<?xml version="1.0" encoding="UTF-8"?>
<!DOCTYPE svg PUBLIC "-//W3C//DTD SVG 1.1//EN" "http://www.w3.org/Graphics/SVG/1.1/DTD/svg11.dtd">
<!-- Creator: CorelDRAW X6 -->
<svg xmlns="http://www.w3.org/2000/svg" xml:space="preserve" width="500px" height="565px" version="1.1" style="shape-rendering:geometricPrecision; text-rendering:geometricPrecision; image-rendering:optimizeQuality; fill-rule:evenodd; clip-rule:evenodd"
viewBox="0 0 500 565"
 xmlns:xlink="http://www.w3.org/1999/xlink"
 xmlns:svg="http://www.w3.org/2000/svg">
 <defs>
  <style type="text/css">
   <![CDATA[
    .str1 {stroke:#2B2A29;stroke-width:0.992126}
    .str0 {stroke:#2B2A29;stroke-width:1.41732}
    .fil2 {fill:#2B2A29}
    .fil1 {fill:#2B2A29}
    .fil0 {fill:#BF9F4F}
    .fil3 {fill:#F00000}
   ]]>
  </style>
 </defs>
 <g id="Layer_x0020_1">
  <metadata id="CorelCorpID_0Corel-Layer"/>
  <path id="path1937" class="fil0 str0" d="M1 1l498 0 0 306c1,339 -499,344 -498,7l0 -313z"/>
  <path class="fil1" d="M145 256c-10,-13 -15,-30 -17,-48 -3,-33 5,-61 28,-87 2,4 3,6 6,6 -1,2 2,5 7,7 1,2 2,4 4,5 1,5 3,8 8,8 -3,19 -11,39 -11,54 11,11 18,22 32,32l30 0c-5,-8 -17,-9 -25,-13 -2,-6 -1,-8 2,-9 2,0 2,2 4,3 2,1 24,7 28,5 9,-6 11,-13 3,-21 -7,-6 -15,-10 -50,-8 -2,-4 -4,-6 -5,-11 1,-2 4,-1 7,-2 8,-2 20,-8 31,-10l3 4 5 0 0 4c4,-5 11,-2 10,4l3 -1c1,-5 -6,-8 -18,-9 0,-1 -2,-2 -1,-4 37,-14 62,-4 63,6 -2,3 -5,4 -6,8 10,-10 21,-14 27,-7 1,2 4,17 -17,22 3,2 6,0 9,0 7,11 4,24 -1,38l8 -1c8,-15 16,-30 23,-48l-6 -47c3,1 5,-1 6,-8 3,-1 6,-3 6,-6 4,-1 7,-1 7,-6 5,3 8,-1 8,-7 7,6 13,14 18,24 2,25 4,50 5,75 -9,16 -19,47 -29,70 -1,3 0,7 2,13 -3,1 -6,0 -8,-6 -2,2 -3,7 -2,13 -2,2 -5,-1 -7,-10 -1,5 0,11 4,16 -3,2 -6,3 -11,1 -6,17 -11,38 -14,61 2,15 26,50 40,65 16,16 32,27 36,39 4,14 -16,38 -51,49 0,-5 1,-8 -6,-7 1,-3 -1,-6 -4,-8 1,-4 2,-6 -4,-10 2,-6 -2,-4 -4,-7 4,-2 11,-4 15,-6l-30 -16c-3,3 -6,5 -10,7 -1,-4 1,-9 1,-14 -2,7 -7,9 -13,9 3,-6 4,-9 3,-11 -2,5 -5,8 -9,9 1,-5 1,-11 -2,-16 -10,-10 -19,-15 -29,-29 -14,5 -22,14 -32,16 -16,47 -18,74 -39,82 -15,6 -33,-3 -57,-25l3 -2c6,-2 4,-3 3,-9 4,2 6,-1 4,-8 4,-1 5,-2 5,-5 8,2 5,-5 5,-8 9,6 13,9 15,8 2,-1 2,-10 4,-26 -5,0 -10,0 -14,-3 6,-3 11,-4 11,-8 -4,0 -8,-1 -10,-2 2,-1 6,-3 8,-5 -1,-2 -3,-1 -8,-4 3,-2 6,-5 10,-7 -1,-22 22,-33 51,-53 -4,-20 -10,-40 -17,-60l-8 -10c-3,3 -6,5 -9,6 2,-6 2,-12 0,-15 -3,2 -6,4 -11,3 3,-5 4,-8 4,-12 -3,3 -7,6 -12,7 3,-6 5,-14 2,-18 -2,5 -4,8 -8,10l-2 -16z"/>
  <rect class="fil2 str1" x="199" y="53" width="103.5" height="10.1251"/>
  <rect class="fil2 str1" x="199" y="66" width="103.5" height="10.1251"/>
  <rect class="fil2 str1" x="199" y="79" width="103.5" height="10.1251"/>
  <rect class="fil2 str1" x="199" y="92" width="103.5" height="10.1251"/>
  <rect class="fil2 str1" x="199" y="105" width="103.5" height="10.1251"/>
  <rect class="fil2 str1" x="199" y="119" width="103.5" height="10.1251"/>
  <rect class="fil2 str1" x="199" y="132" width="103.5" height="10.1251"/>
  <rect class="fil2 str1" x="164" y="54" width="7.12489" height="10.1251"/>
  <rect class="fil2 str1" x="164" y="80" width="7.12489" height="10.1251"/>
  <rect class="fil2 str1" x="164" y="92" width="7.12489" height="10.1251"/>
  <rect class="fil2 str1" x="333" y="53" width="7.12489" height="10.1251"/>
  <rect class="fil2 str1" x="333" y="66" width="7.12489" height="10.1251"/>
  <rect class="fil2 str1" x="333" y="78" width="7.12489" height="10.1251"/>
  <rect class="fil2 str1" x="333" y="91" width="6.74249" height="10.1251"/>
  <rect class="fil2 str1" x="164" y="117" width="7.12489" height="7.33125"/>
  <rect class="fil2 str1" x="164" y="105" width="7.12489" height="10.1251"/>
  <rect class="fil2 str1" x="173" y="48" width="4.42488" height="82.7187"/>
  <rect class="fil2 str1" x="179" y="48" width="4.42488" height="97.9209"/>
  <rect class="fil2 str1" x="186" y="48" width="4.42488" height="98.2962"/>
  <rect class="fil2 str1" x="192" y="48" width="4.42488" height="98.0626"/>
  <path class="fil3" d="M160 119c9,-8 20,-11 22,-11 -3,4 -8,5 -11,8 -1,1 -3,5 -5,7 -3,2 -9,-2 -6,-4z"/>
  <path class="fil3" d="M166 124c3,-4 9,-4 14,-7 5,-2 10,-6 14,-5 -4,3 -12,7 -15,9 -2,2 -5,6 -7,8 -4,3 -9,-1 -6,-5z"/>
  <path class="fil3" d="M172 130c3,-4 9,-5 14,-7 2,-2 8,-6 17,-5 -5,3 -12,6 -15,8 -1,2 -7,6 -9,8 -4,3 -11,0 -7,-4z"/>
  <path class="fil3" d="M177 136c3,-3 8,-2 11,-3 6,-2 7,-4 11,-4 -3,4 -6,4 -11,8 -1,1 -5,4 -7,6 -3,2 -8,-5 -4,-7z"/>
  <rect class="fil2 str1" x="326" y="49" width="4.42488" height="96.5625"/>
  <rect class="fil2 str1" x="333" y="105" width="6.74249" height="17.0357"/>
  <path class="fil3" d="M351 111c-9,-8 -22,-12 -23,-11 3,3 7,4 9,7 2,2 7,5 9,7 3,2 8,0 5,-3z"/>
  <rect class="fil2 str1" x="312" y="49" width="4.42488" height="96.5625"/>
  <rect class="fil2 str1" x="319" y="49" width="4.42488" height="96.5625"/>
  <path class="fil3" d="M342 116c-4,-4 -9,-6 -14,-8 -6,-3 -10,-4 -14,-4 4,4 10,5 13,8 1,1 6,5 9,7 3,3 9,1 6,-3z"/>
  <path class="fil3" d="M335 123c-4,-5 -17,-12 -24,-10 5,3 8,4 11,7 2,1 4,4 6,6 4,3 10,1 7,-3z"/>
  <path class="fil3" d="M330 131c-1,-2 -19,-10 -21,-7 3,3 4,3 6,4 2,1 5,3 8,6 2,2 9,1 7,-3z"/>
  <rect class="fil2 str1" x="305" y="49" width="4.42488" height="96.5625"/>
  <path class="fil3" d="M254 51l-13 0c2,-16 9,-27 19,-34 22,-14 45,16 68,-11 4,14 -7,21 -35,23 20,2 39,-2 49,-26 3,6 1,13 0,17 -3,11 -14,17 -41,18 27,2 46,-4 50,-27 8,16 -8,44 -60,34 -14,-3 -31,-17 -37,6z"/>
  <path class="fil1" d="M292 168c5,-6 -4,-16 -13,-8 6,1 10,4 13,8z"/>
  <path class="fil3" d="M180 190c6,4 12,6 18,6 2,4 5,6 9,8l2 -3 1 2 0 5 -15 0c-10,-1 -15,-7 -15,-18z"/>
  <path class="fil3" d="M200 195l0 -4c11,0 22,-1 30,2 -2,0 -4,1 -6,2l-2 0 0 -2 -1 0 -2 2 -4 -1 -1 -1 -4 3 -3 -2 0 -1 -2 0c0,4 0,5 2,6 0,1 -1,2 -1,3 -2,-1 -4,-4 -6,-7z"/>
  <path class="fil3" d="M211 197c17,0 31,4 34,17l-4 3c-4,-7 -11,-11 -23,-10 -2,-5 -7,-6 -7,-10z"/>
  <polygon class="fil3" points="211,204 213,203 216,211 218,211 219,210 221,210 222,213 224,213 226,211 231,215 231,217 229,217 226,216 221,215 220,214 217,214 213,211 "/>
  <path class="fil3" d="M318 490c-13,5 -18,17 -17,20 7,-6 13,-13 19,-14 5,-2 2,-7 -2,-6z"/>
  <path class="fil3" d="M322 499c-5,1 -20,12 -18,21 8,-9 11,-12 19,-14 4,-3 2,-7 -1,-7z"/>
  <path class="fil3" d="M326 507c-6,3 -17,12 -15,20 1,-1 3,-5 6,-8 4,-2 8,-6 10,-7 5,-1 4,-7 -1,-5z"/>
  <path class="fil3" d="M330 513c-2,1 -18,14 -13,20 1,1 4,-6 6,-8 4,-3 5,-3 9,-5 3,-2 3,-7 -2,-7z"/>
  <path class="fil3" d="M134 460c-11,-9 -27,-8 -29,-5 9,1 20,3 24,8 4,4 8,-1 5,-3z"/>
  <path class="fil3" d="M130 466c-4,-4 -24,-11 -31,-2 16,-2 20,1 26,7 4,3 7,-2 5,-5z"/>
  <path class="fil3" d="M123 476c-5,-4 -22,-11 -28,-3 1,0 9,-1 13,1 4,1 8,4 9,5 4,3 10,0 6,-3z"/>
  <path class="fil3" d="M119 483c-3,-3 -20,-7 -25,-2 2,1 7,1 10,1 4,2 7,2 10,4 5,4 9,1 5,-3z"/>
  <rect class="fil1 str1" x="164" y="67" width="7.12489" height="10.1251"/>
 </g>
</svg>
