<?xml version="1.0" encoding="UTF-8" standalone="no"?>
<!-- Created with Inkscape (http://www.inkscape.org/) -->

<svg
   xmlns:dc="http://purl.org/dc/elements/1.1/"
   xmlns:cc="http://creativecommons.org/ns#"
   xmlns:rdf="http://www.w3.org/1999/02/22-rdf-syntax-ns#"
   xmlns:svg="http://www.w3.org/2000/svg"
   xmlns="http://www.w3.org/2000/svg"
   version="1.1"
   width="500"
   height="540.2843"
   id="svg1901">
  <defs
     id="defs1903">
 <style
   type="text/css"
   id="style4667" />

  </defs>
  <metadata
     id="metadata1906">
    <rdf:RDF>
      <cc:Work
         rdf:about="">
        <dc:format>image/svg+xml</dc:format>
        <dc:type
           rdf:resource="http://purl.org/dc/dcmitype/StillImage" />
        <dc:title></dc:title>
      </cc:Work>
    </rdf:RDF>
  </metadata>
  <g
     transform="translate(-588.42661,-638.66157)"
     id="layer2"
     style="display:inline">
    <path
       d="m 588.42661,638.66157 499.99999,0 -11.1699,307.94922 C 1069.959,1122.9508 928.54014,1179.2455 841.81981,1178.9447 755.04,1178.6437 614.21791,1122.8431 602.98971,946.61079 z"
       id="path2994"
       style="fill:#df0000;fill-opacity:1;stroke:none" />
  </g>
  <g
     id="layer3"
     style="display:inline">
    <path
       d="m 260.98241,444.94457 c 0,0 0.66833,9.56472 -2.06627,16.63316 -3.18265,8.2266 9.39622,13.72 0.17858,29.88244 -7.98351,13.99849 -2.27285,25.75889 -2.27285,25.75889 0,0 -12.05112,-7.33437 -6.81853,-22.34962 7.80383,-18.64457 -11.8782,-17.41829 -8.33376,-34.34519 1.51523,-6.9448 -0.11357,-8.31209 -1.6288,-11.84762 -2.85714,18.34799 -34.11163,21.62414 -41.05014,-2.42078 -6.88816,-23.87045 26.01789,-33.5685 37.98218,-18.03279 -17.85714,-16.78571 -10.51014,-42.12172 13.39286,-40.89286 20.8928,1.0741 28.89421,26.45767 11.39421,44.85053 17.67857,-15.53572 45.52975,-5.49534 38.60579,17.82804 -6.45266,21.7358 -35.99041,15.82865 -39.38327,-5.0642 z"
       id="path4181-4"
       style="fill:#ffffff;fill-opacity:1;stroke:none;display:inline" />
    <path
       d="m 264.9621,449.70219 c 0,0 0.66833,6.53426 -2.06627,13.6027 -3.18265,8.2266 9.39622,13.72 0.17858,29.88244 -7.98351,13.99849 -2.27285,25.75889 -2.27285,25.75889 0,0 -12.05112,-7.33437 -6.81853,-22.34962 7.80383,-18.64457 -11.8782,-17.41829 -8.33376,-34.34519 1.51523,-6.9448 -0.11357,-8.31209 -1.6288,-11.84762 -2.85714,18.34799 -34.11163,21.62414 -41.05014,-2.42078 -6.88816,-23.87045 26.20729,-31.7376 38.17158,-16.20189 -17.85714,-16.78571 -10.69954,-43.95262 13.20346,-42.72376 20.8928,1.0741 30.53571,21.78572 13.03571,40.17858 17.67857,-15.53572 43.88825,-0.82339 36.96429,22.49999 -6.45266,21.7358 -35.99041,18.85911 -39.38327,-2.03374 z"
       id="path4181-4-8"
       style="fill:#910000;fill-opacity:1;stroke:none;display:inline" />
    <path
       d="m 262.75959,449.32199 c 0,0 0.66833,6.53426 -2.06627,13.6027 -3.18265,8.2266 9.39622,13.72 0.17858,29.88244 -7.98351,13.99849 -2.27285,25.75889 -2.27285,25.75889 0,0 -12.05112,-7.33437 -6.81853,-22.34962 7.80383,-18.64457 -11.8782,-17.41829 -8.33376,-34.34519 1.51523,-6.9448 -0.11357,-8.31209 -1.6288,-11.84762 -2.85714,18.34799 -34.11163,21.62414 -41.05014,-2.42078 -6.88816,-23.87045 26.01789,-33.5685 37.98218,-18.03279 -17.85714,-16.78571 -10.51014,-42.12172 13.39286,-40.89286 20.8928,1.0741 30.53571,21.78572 13.03571,40.17858 17.67857,-15.53572 43.88825,-0.82339 36.96429,22.49999 -6.45266,21.7358 -35.99041,18.85911 -39.38327,-2.03374 z"
       id="path4181"
       style="fill:#c5a149;fill-opacity:1;stroke:none;display:inline" />
    <path
       d="m 261.34818,95.726302 c 0,0 0.66833,9.564718 -2.06627,16.633158 -3.18265,8.2266 9.39622,13.72 0.17858,29.88244 -7.98351,13.99849 -2.27285,25.75889 -2.27285,25.75889 0,0 -12.05112,-7.33437 -6.81853,-22.34962 7.80383,-18.64457 -11.8782,-17.41829 -8.33376,-34.34519 1.51523,-6.9448 -0.11357,-8.31209 -1.6288,-11.847618 -2.85714,18.347988 -34.11164,21.624138 -41.05015,-2.42078 -6.88816,-23.87045 26.0179,-33.5685 37.98219,-18.03279 -17.85714,-16.78571 -10.51014,-42.12172 13.39286,-40.89286 20.8928,1.0741 28.89421,26.45767 11.39421,44.85053 17.67857,-15.53572 45.52974,-5.49534 38.60578,17.828038 -6.45265,21.7358 -35.9904,15.82865 -39.38326,-5.064198 z"
       id="path4181-4-5"
       style="fill:#ffffff;fill-opacity:1;stroke:none;display:inline" />
    <path
       d="m 265.32787,100.48392 c 0,0 0.66833,6.53426 -2.06627,13.6027 -3.18265,8.2266 9.39622,13.72 0.17858,29.88244 -7.98351,13.99849 -2.27285,25.75889 -2.27285,25.75889 0,0 -12.05112,-7.33437 -6.81853,-22.34962 7.80383,-18.64457 -11.8782,-17.41829 -8.33376,-34.34519 1.51523,-6.9448 -0.11357,-8.31209 -1.6288,-11.84762 -2.85714,18.34799 -34.11163,21.62414 -41.05015,-2.420778 -6.88816,-23.87045 26.2073,-31.7376 38.17159,-16.20189 -17.85714,-16.78571 -10.69954,-43.95262 13.20346,-42.72376 20.8928,1.0741 30.53571,21.78572 13.03571,40.17858 17.67857,-15.53572 43.88824,-0.82339 36.96428,22.499988 -6.45265,21.7358 -35.9904,18.85911 -39.38326,-2.03374 z"
       id="path4181-4-8-1"
       style="fill:#910000;fill-opacity:1;stroke:none;display:inline" />
    <path
       d="m 263.12536,100.10372 c 0,0 0.66833,6.53426 -2.06627,13.6027 -3.18265,8.2266 9.39622,13.72 0.17858,29.88244 -7.98351,13.99849 -2.27285,25.75889 -2.27285,25.75889 0,0 -12.05112,-7.33437 -6.81853,-22.34962 7.80383,-18.64457 -11.8782,-17.41829 -8.33376,-34.34519 1.51523,-6.9448 -0.11357,-8.31209 -1.6288,-11.84762 -2.85714,18.34799 -34.11164,21.62414 -41.05015,-2.420778 -6.88816,-23.87045 26.0179,-33.5685 37.98219,-18.03279 -17.85714,-16.78571 -10.51014,-42.12172 13.39286,-40.89286 20.8928,1.0741 30.53571,21.78572 13.03571,40.17858 17.67857,-15.53572 43.88824,-0.82339 36.96428,22.499988 -6.45265,21.7358 -35.9904,18.85911 -39.38326,-2.03374 z"
       id="path4181-7"
       style="fill:#c5a149;fill-opacity:1;stroke:none;display:inline" />
    <path
       d="m 99.117981,263.41162 c 0,0 0.66833,9.56472 -2.06627,16.63316 -3.18265,8.2266 9.396219,13.72 0.17858,29.88244 -7.98351,13.99849 -2.27285,25.75889 -2.27285,25.75889 0,0 -12.051125,-7.33437 -6.81853,-22.34962 7.80383,-18.64457 -11.878205,-17.41829 -8.333765,-34.34519 1.51523,-6.9448 -0.11357,-8.31209 -1.6288,-11.84762 -2.85714,18.34799 -34.11163,21.62414 -41.05014,-2.42078 -6.88816,-23.87045 26.01789,-33.5685 37.98218,-18.03279 -17.85714,-16.78571 -10.51014,-42.12172 13.392865,-40.89286 20.892799,1.0741 28.894209,26.45767 11.39421,44.85053 17.678569,-15.53572 45.529749,-5.49534 38.605789,17.82804 -6.45266,21.7358 -35.99041,15.82865 -39.383269,-5.0642 z"
       id="path4181-4-1"
       style="fill:#ffffff;fill-opacity:1;stroke:none;display:inline" />
    <path
       d="m 103.09767,268.16924 c 0,0 0.66833,6.53426 -2.06627,13.6027 -3.182649,8.2266 9.39622,13.72 0.17858,29.88244 -7.983509,13.99849 -2.272849,25.75889 -2.272849,25.75889 0,0 -12.05112,-7.33437 -6.81853,-22.34962 7.80383,-18.64457 -11.878205,-17.41829 -8.333765,-34.34519 1.515235,-6.9448 -0.11357,-8.31209 -1.6288,-11.84762 -2.85714,18.34799 -34.11163,21.62414 -41.05014,-2.42078 -6.88816,-23.87045 26.20729,-31.7376 38.17158,-16.20189 -17.85714,-16.78571 -10.69954,-43.95262 13.203465,-42.72376 20.892799,1.0741 30.535709,21.78572 13.035709,40.17858 17.67857,-15.53572 43.88825,-0.82339 36.96429,22.49999 -6.45266,21.7358 -35.99041,18.85911 -39.38327,-2.03374 z"
       id="path4181-4-8-15"
       style="fill:#910000;fill-opacity:1;stroke:none;display:inline" />
    <path
       d="m 100.89516,267.78904 c 0,0 0.66833,6.53426 -2.066269,13.6027 -3.18265,8.2266 9.396219,13.72 0.17858,29.88244 -7.98351,13.99849 -2.27285,25.75889 -2.27285,25.75889 0,0 -12.051125,-7.33437 -6.81853,-22.34962 7.80383,-18.64457 -11.878205,-17.41829 -8.333765,-34.34519 1.51523,-6.9448 -0.11357,-8.31209 -1.6288,-11.84762 -2.85714,18.34799 -34.11163,21.62414 -41.05014,-2.42078 -6.88816,-23.87045 26.01789,-33.5685 37.98218,-18.03279 -17.85714,-16.78571 -10.51014,-42.12172 13.392865,-40.89286 20.892799,1.0741 30.535709,21.78572 13.035709,40.17858 17.67857,-15.53572 43.88825,-0.82339 36.96429,22.49999 -6.45266,21.7358 -35.99041,18.85911 -39.38327,-2.03374 z"
       id="path4181-2"
       style="fill:#c5a149;fill-opacity:1;stroke:none;display:inline" />
    <path
       d="m 424.40741,263.53818 c 0,0 0.66833,9.56472 -2.06627,16.63316 -3.18265,8.2266 9.39622,13.72 0.17858,29.88244 -7.98351,13.99849 -2.27285,25.75889 -2.27285,25.75889 0,0 -12.05112,-7.33437 -6.81853,-22.34962 7.80383,-18.64457 -11.8782,-17.41829 -8.33376,-34.34519 1.51523,-6.9448 -0.11357,-8.31209 -1.6288,-11.84762 -2.85714,18.34799 -34.11163,21.62414 -41.05014,-2.42078 -6.88816,-23.87045 26.01789,-33.5685 37.98218,-18.03279 -17.85714,-16.78571 -10.51014,-42.12172 13.39286,-40.89286 20.8928,1.0741 28.89421,26.45767 11.39421,44.85053 17.67857,-15.53572 45.52975,-5.49534 38.60579,17.82804 -6.45266,21.7358 -35.99041,15.82865 -39.38327,-5.0642 z"
       id="path4181-4-7"
       style="fill:#ffffff;fill-opacity:1;stroke:none;display:inline" />
    <path
       d="m 428.3871,268.2958 c 0,0 0.66833,6.53426 -2.06627,13.6027 -3.18265,8.2266 9.39622,13.72 0.17858,29.88244 -7.98351,13.99849 -2.27285,25.75889 -2.27285,25.75889 0,0 -12.05112,-7.33437 -6.81853,-22.34962 7.80383,-18.64457 -11.8782,-17.41829 -8.33376,-34.34519 1.51523,-6.9448 -0.11357,-8.31209 -1.6288,-11.84762 -2.85714,18.34799 -34.11163,21.62414 -41.05014,-2.42078 -6.88816,-23.87045 26.20729,-31.7376 38.17158,-16.20189 -17.85714,-16.78571 -10.69954,-43.95262 13.20346,-42.72376 20.8928,1.0741 30.53571,21.78572 13.03571,40.17858 17.67857,-15.53572 43.88825,-0.82339 36.96429,22.49999 -6.45266,21.7358 -35.99041,18.85911 -39.38327,-2.03374 z"
       id="path4181-4-8-6"
       style="fill:#910000;fill-opacity:1;stroke:none;display:inline" />
    <path
       d="m 426.18459,267.9156 c 0,0 0.66833,6.53426 -2.06627,13.6027 -3.18265,8.2266 9.39622,13.72 0.17858,29.88244 -7.98351,13.99849 -2.27285,25.75889 -2.27285,25.75889 0,0 -12.05112,-7.33437 -6.81853,-22.34962 7.80383,-18.64457 -11.8782,-17.41829 -8.33376,-34.34519 1.51523,-6.9448 -0.11357,-8.31209 -1.6288,-11.84762 -2.85714,18.34799 -34.11163,21.62414 -41.05014,-2.42078 -6.88816,-23.87045 26.01789,-33.5685 37.98218,-18.03279 -17.85714,-16.78571 -10.51014,-42.12172 13.39286,-40.89286 20.8928,1.0741 30.53571,21.78572 13.03571,40.17858 17.67857,-15.53572 43.88825,-0.82339 36.96429,22.49999 -6.45266,21.7358 -35.99041,18.85911 -39.38327,-2.03374 z"
       id="path4181-1"
       style="fill:#c5a149;fill-opacity:1;stroke:none;display:inline" />
    <path
       d="m 469.37676,115.02284 c 0,0 -17.43742,-32.239488 -12.52614,-56.871718 0,0 -13.25337,11.096121 -55.92412,-6.007577 l -66.27594,83.642755 0.4349,0.40902 -193.188,210.29753 -1.37761,-1.37873 -57.847045,57.35624 c 7.840203,55.91379 58.282685,53.49315 58.282685,53.49315 l 51.16165,-59.40881 -1.74809,-1.76081 198.5173,-206.99415 0.57019,0.55646 z"
       id="path4332-4"
       style="fill:#910000;fill-opacity:1;stroke:none;display:inline" />
    <path
       d="M 186.9049,394.57171 393.05235,179.62175 337.9974,129.18667 138.10195,346.75023 z"
       id="path4332"
       style="fill:#cfcfcf;fill-opacity:1;stroke:none;display:inline" />
    <path
       d="m 140.27995,341.54022 51.57874,51.43009 -51.15255,59.40659 c 0,0 -50.460303,2.40816 -58.300514,-53.50561 z m 194.12593,-209.32579 54.8097,52.55078 79.01951,-72.25385 c 0,0 -14.88672,-32.908619 -9.97544,-57.540849 0,0 -14.90719,10.690426 -57.57794,-6.413271 z"
       id="path4334"
       style="fill:#c5a149;fill-opacity:1;stroke:none;display:inline" />
    <path
       d="m 97.665028,414.8718 c 0,0 -14.687786,-5.44765 -14.319301,-15.85355 0,0 1.688002,1.13844 6.220612,-3.28539 4.532609,-4.42382 52.633821,-52.60884 52.633821,-52.60884 l 1.71216,1.49476 192.64588,-210.52532 64.03113,-83.165043 c 0,0 33.08534,14.122978 56.56036,5.697455 0,0 -23.67798,10.712075 -55.87721,-1.916291 l -61.68652,82.975399 -193.82863,210.38836 -1.50984,-1.15052 -53.12,53.35773 c 0,0 -2.950503,2.90645 -0.836505,6.14207 2.362355,3.61575 7.374043,8.44918 7.374043,8.44918 z"
       id="path4337"
       style="fill:#ffffff;fill-opacity:1;stroke:none;display:inline" />
    <path
       d="m 466.56809,114.05764 1.65854,-1.50775 -58.79212,-54.573326 z m -79.76286,72.08062 1.8607,-1.91071 -45.82586,-44.83947 z m -196.68918,205.09535 2.1739,-2.26784 -45.71598,-41.01803 z m -52.34541,61.10656 c 1.82276,0.0979 2.94059,0.0306 2.94059,0.0306 L 90.647225,405.07085 z"
       id="path4373"
       style="fill:#df0000;fill-opacity:1;stroke:none;display:inline" />
    <path
       d="m 106.01093,47.72377 c 0,0 -33.345021,15.21702 -57.588681,8.65102 0,0 10.17434,13.97349 -9.77617,55.38975 l 78.968751,71.78125 0.4375,-0.40625 196.75,206.96883 -1.46875,1.2812 53.3125,61.5938 c 56.31603,-4.0406 57.31253,-54.5313 57.31253,-54.5313 l -55.81253,-55.06253 -1.875,1.625 -193.09375,-212.0625 0.59375,-0.53125 z"
       id="path4332-4-8-5"
       style="fill:#df0000;fill-opacity:1;stroke:none;display:inline" />
    <path
       d="m 111.51093,46.723772 c 0,0 -33.345021,15.217021 -57.588681,8.65102 0,0 10.17434,13.973491 -9.77617,55.389748 l 78.968751,71.78125 0.4375,-0.40625 196.75,206.96883 -1.46875,1.2812 53.3125,61.5938 c 56.31603,-4.0406 57.31253,-54.5313 57.31253,-54.5313 l -55.81253,-55.06253 -1.875,1.625 -193.09375,-212.0625 0.59375,-0.53125 z"
       id="path4332-4-7"
       style="fill:#910000;fill-opacity:1;stroke:none;display:inline" />
    <path
       d="M 371.31511,347.45573 170.79983,127.24247 116.75667,178.76025 320.30241,392.91259 z"
       id="path4332-6"
       style="fill:#cfcfcf;fill-opacity:1;stroke:none;display:inline" />
    <path
       d="m 315.25164,390.38721 54.80078,-47.98224 55.81093,55.05331 c 0,0 -1.01016,50.50763 -57.32616,54.54824 z m -195.71705,-207.83888 56.13743,-51.13 -66.74403,-83.725368 c 0,0 -33.840111,12.626911 -58.083771,6.06091 0,0 9.65772,15.596091 -10.29279,57.012348 z"
       id="path4334-1"
       style="fill:#c5a149;fill-opacity:1;stroke:none;display:inline" />
    <path
       d="m 385.53311,437.86423 c 0,0 -6.42857,14.28571 -16.78572,13.21428 0,0 1.25,-1.60714 -2.85714,-6.42857 -4.10714,-4.82143 -48.92857,-56.07143 -48.92857,-56.07143 l 1.60714,-1.60714 L 121.55489,180.52802 42.910929,111.01876 c 0,0 16.32832,-32.054397 9.50979,-56.045518 0,0 9.08612,24.348261 -5.69108,55.619658 l 78.613321,67.1572 196.79729,207.61413 -1.25,1.42857 49.64286,56.60714 c 0,0 2.70024,3.14032 6.07143,1.25 3.76724,-2.1124 8.92857,-6.78571 8.92857,-6.78571 z"
       id="path4337-8"
       style="fill:#ffffff;fill-opacity:1;stroke:none;display:inline" />
    <path
       d="m 110.35798,49.460732 -1.39212,-1.75672 -58.424691,54.966508 z m 66.52093,84.455288 -1.78049,-1.98567 -47.83617,42.68828 z m 191.32293,210.11014 -2.11562,-2.3223 -44.01605,42.8371 z m 57.42633,56.35841 c 0.22096,-1.81196 0.22945,-2.93178 0.22945,-2.93178 l -50.57766,46.7503 z"
       id="path4373-9"
       style="fill:#df0000;fill-opacity:1;stroke:none;display:inline" />
  </g>
</svg>
