<?xml version="1.0" encoding="UTF-8"?>
<!DOCTYPE svg PUBLIC "-//W3C//DTD SVG 1.1//EN" "http://www.w3.org/Graphics/SVG/1.1/DTD/svg11.dtd">
<!-- Creator: CorelDRAW -->
<svg xmlns="http://www.w3.org/2000/svg" xml:space="preserve" width="500px" height="576px" shape-rendering="geometricPrecision" text-rendering="geometricPrecision" image-rendering="optimizeQuality" fill-rule="evenodd" clip-rule="evenodd"
viewBox="0 0 500 576"
 xmlns:xlink="http://www.w3.org/1999/xlink"
 xmlns:svg="http://www.w3.org/2000/svg"
 version="1.0">
 <g id="Layer_x0020_1">
  <metadata id="CorelCorpID_0Corel-Layer"/>
  <path id="path1937" fill="#CCCCCC" stroke="#F00000" stroke-width="0.992126" d="M0.482173 1.15087l498.64 0.0297638 -13.4581 332.782c-18.1321,322.607 -456.056,320.228 -471.331,1.38387l-13.8509 -334.196z"/>
  <ellipse fill="#F00000" cx="249.021" cy="387.186" rx="166.723" ry="165.744"/>
  <path fill="black" stroke="black" stroke-width="0.216" d="M234.665 223.399c1.95732,-6.63392 3.47953,-13.2678 4.56775,-19.9023 -36.7087,-3.0943 -54.87,-30.7194 -64.601,-69.4951 15.7697,13.1596 45.8952,5.11172 64.9273,55.1393 3.80636,-15.6609 1.08737,-28.059 1.63134,-42.0886l9.13323 -13.2463 12.0742 13.5726c-4.8943,11.6371 -6.74306,25.0141 -5.54655,40.1309 9.75742,-6.15969 12.7511,-21.136 24.2164,-31.1516 16.4736,-14.3907 27.125,-11.9242 36.4694,-20.3987 -8.34719,37.3133 -19.2776,58.6103 -59.707,67.2112 -0.10885,6.85191 0.217134,13.7035 0.978804,20.5549l-24.1438 -0.326268z"/>
  <path fill="#F00000" d="M237.602 224.378l5.22029 -21.5337 -4.89402 -3.26268c-2.82756,0.652252 -5.65484,0.108567 -8.48296,-0.978804 -2.71644,-1.35893 0.760536,-2.06617 1.14066,-3.0994 -4.56718,-0.651969 -8.80838,-0.326268 -13.2126,-0.489544 -2.94775,-1.54375 1.69795,-3.43531 3.58895,-3.58895 -6.84964,-0.871087 -11.7437,-2.82841 -14.6821,-5.87282 2.0126,-0.380126 5.98082,1.19565 7.50416,0.326268 -1.41676,-2.06674 -10.1684,-1.03691 -15.0083,-8.1567 -0.432567,-2.2269 4.02435,-0.216284 6.52536,1.63134 0.431717,-3.09912 -8.42712,-2.12343 -10.4406,-7.83043 -2.22548,-2.55288 4.35033,2.06561 6.52536,1.63134 -0.981071,-2.01232 -7.34089,-1.90573 -10.7668,-7.50416 -0.215717,-1.0321 3.48038,0.217701 5.22029,0.326268 -3.30321,-3.23405 -6.44344,-4.67547 -9.90964,-9.70271l1.10438 -2.04435c-2.94151,-2.38961 -4.35515,-5.54372 -5.55052,-8.80782l0.652536 -4.56775c4.45918,3.80665 8.26583,2.556 13.377,11.4194 0.434551,-1.25065 -0.434835,-2.82756 -0.652536,-4.24148 4.51247,-1.89865 6.74306,6.30794 10.1143,9.46177l-0.652536 -4.56775c3.53367,-0.703559 4.78545,7.23147 7.17789,9.1355 -0.326268,-2.50129 -1.63049,-5.49156 -0.978804,-7.50416 3.80636,2.61156 6.09081,8.91808 8.48296,13.7033 0.217134,-2.77314 -0.869953,-5.22029 -1.30507,-7.83043 5.08422,7.12375 11.2819,12.1822 13.377,20.2286l2.93641 -2.28388c2.82784,6.74306 1.74331,14.7898 8.48296,20.2286 -1.20728,-8.0195 2.34369,-20.9299 1.63134,-50.2453l5.22029 -7.50416 7.83043 7.83043c-5.86885,9.14174 -5.21802,41.4284 -3.91521,48.9402 20.6099,-12.1218 13.4161,-19.082 17.9447,-21.2074 0.543685,1.30507 0.761386,3.26211 1.63134,3.91521 2.88114,-3.31852 2.99169,-11.5268 6.19909,-15.3346 1.35865,-0.0532914 0.598394,2.50129 1.63134,3.26268 1.5772,-2.7737 0.165827,-5.05843 5.54655,-9.78804 2.17332,1.08822 -0.217134,2.9914 0.652536,5.22029 3.75109,-3.20882 0.982489,-8.53682 7.83043,-12.0719 0.217417,1.41392 -0.0541418,3.31682 0.652536,4.24148 2.06589,-1.57776 0.709229,-5.76369 5.22029,-8.1567 0,1.41392 -0.488977,3.15383 0,4.24148 1.73991,-1.84876 2.66514,-4.0235 5.22029,-5.54655l0.326268 2.28388c1.84876,-2.17446 3.91521,-3.91436 6.19909,-5.22029 1.62765,2.8304 -2.7754,11.5282 -7.83043,17.2922 0.187087,7.93701 -9.81326,11.9072 -11.4194,14.0295l3.26268 -0.326268c-0.654237,2.71871 -3.26438,5.00259 -7.83043,6.85163l0.652536 1.30507c-1.21918,3.72728 -7.70684,8.30183 -16.1337,11.4406 -8.16662,3.04214 -18.2642,4.66725 -20.4083,7.15663 2.11918,4.29818 0.163559,12.6709 0.978804,20.2286l3.91521 0.652536 -0.326268 4.56775 -19.5761 -2.28388z"/>
  <path fill="#8C0000" d="M224.573 187.271l-36.8362 -38.1402c12.7267,9.57544 29.7051,26.8798 36.8362,38.1402z"/>
  <path fill="#8C0000" d="M289.607 170.32c5.86772,-6.68268 12.0614,-12.7134 17.6032,-20.048 -1.42611,-0.183402 -5.27698,3.81997 -9.12728,8.21027 -3.85058,4.39058 -7.70174,9.16867 -8.47588,11.8378z"/>
  <path fill="#F00000" stroke="black" stroke-width="2.83465" d="M200.931 18.1766c2.62857,27.0992 11.2958,40.1712 32.1146,58.3002 -29.5866,5.55081 -38.8766,13.142 -59.7175,32.9684 28.5562,-0.163276 36.1239,-1.54035 62.0158,-16.0124l27.667 5.41304c25.9495,12.5402 39.229,5.19591 62.517,10.544 -19.044,-20.9982 -16.8747,-29.9271 -54.3476,-30.6958 14.4465,-19.7184 21.7709,-30.5524 29.8313,-60.461 -25.1218,14.7266 -38.9971,12.1924 -50.0777,45.0442 -11.7737,-29.717 -21.0524,-27.6302 -50.0029,-45.1007z"/>
  <path fill="#F00000" stroke="black" stroke-width="3.96851" d="M248.932 21.2769c19.4658,0.452977 27.1451,-6.18945 30.7559,3.71537 0.601512,1.64891 0.815811,9.26476 -0.538866,10.9312 -1.35354,1.66649 -9.43654,9.88243 -6.12936,11.5997 2.10302,1.09219 6.23651,-7.51947 7.15663,-9.29991 1.07688,-2.08687 8.26073,-2.49052 10.1957,-2.31392 12.0127,1.10268 13.7957,13.1579 19.9579,28.6058 6.11774,15.3329 7.91717,19.2402 2.86243,27.8246 -2.53984,4.3132 -8.76558,4.58277 -10.8147,3.74825 -2.93159,-1.19197 -5.94454,-3.24114 -6.95311,-0.841323 -1.00857,2.39981 3.32107,2.65748 6.21865,3.15184 1.21465,0.206929 3.15666,2.47266 3.98977,9.04678 1.43717,11.3335 -6.64356,13.1661 -16.818,22.7872 -10.1744,9.62136 -24.715,22.0859 -35.1411,15.5483 -2.86951,-1.7983 -3.22243,-8.62328 -2.45169,-10.9641 0.50967,-1.54772 0.945071,-5.69622 -1.94995,-5.58454 -0.607465,0.0235276 -2.36098,4.16041 -1.54885,5.65994 0.923811,1.70532 -0.34611,8.97024 -4.64429,10.732 -17.5558,4.43112 -18.968,-4.47336 -29.8145,-14.4853 -8.77493,-8.1017 -17.9535,-8.70889 -17.7018,-18.5196 0.14485,-5.65285 4.54054,-10.95 6.66822,-11.3032 3.19663,-0.530646 6.49559,-3.64025 6.31786,-4.27096 -0.177732,-0.630709 -5.54088,0.314079 -7.33692,1.68406 -2.64813,2.02195 -12.0209,-0.822615 -14.4819,-3.15411 -7.91689,-7.49793 -0.380126,-18.7104 5.07033,-33.3357 5.45018,-14.6256 3.92825,-25.5436 16.4282,-24.9565 2.73288,0.12841 10.0826,4.35827 10.8805,6.46129 1.02643,2.70567 4.68057,8.38545 7.0098,7.23572 0.852095,-0.421512 -2.9588,-8.34208 -4.74888,-9.63298 -1.82523,-1.31811 -4.00139,-6.31644 -3.8778,-10.6441 0.20126,-8.02885 11.9738,-9.87875 31.4399,-9.42577z"/>
  <path fill="#F00000" stroke="black" stroke-width="2.83465" d="M250.452 39.8279c5.13496,-0.0411024 9.7047,-4.07821 11.1271,-5.35975 4.16211,-3.75052 10.7359,-0.106583 5.92356,7.53563 -1.58655,2.52114 -5.77304,9.02325 -1.75947,13.1817 3.14447,2.55628 11.5345,3.74967 14.9587,-4.68425 4.01641,-9.89235 8.64397,-3.36359 10.2688,0.876756 1.37622,3.59433 -2.37458,12.0331 -1.19764,17.2443 1.1761,5.20328 3.96567,7.52967 10.9091,12.3078 3.30973,2.27764 4.56577,10.8326 -3.16233,7.66857 -3.02258,-1.89354 -11.213,-0.528095 -12.4603,3.22469 -1.24724,3.75251 -0.271843,8.31856 4.93625,9.85607 6.53755,1.93068 3.92684,6.86892 -0.524693,9.71547 -3.30321,2.11351 -10.0381,3.82309 -14.8572,6.44655 -2.31846,1.26312 -4.61367,8.06656 -7.03786,12.6247 -3.05377,5.73874 -9.38807,9.37815 -9.33931,-1.13783 0.0187087,-4.09493 1.20728,-10.0077 -6.87374,-10.5423 -4.8943,-0.323717 -11.5404,6.37796 -9.66445,10.383 2.93244,6.25975 -3.95802,10.1687 -7.36838,8.77408 -5.55733,-2.27282 -2.34312,-13.4643 -10.2288,-19.0752 -7.88542,-5.6109 -13.7611,-0.872788 -17.8804,-4.83676 -2.1172,-2.03698 -0.937418,-10.0936 4.58561,-11.1464 13.1111,-2.50129 10.554,-8.4583 9.12983,-10.993 -0.807591,-1.97348 -5.59049,-8.46114 -13.3812,-2.69773 -6.49729,4.80643 -7.67027,-0.582803 -8.19326,-1.9474 -2.46047,-6.41226 9.036,-12.8109 10.6577,-17.0045 0.727087,-1.88079 -4.23836,-11.8621 -2.38904,-17.085 2.94123,-8.30977 7.70854,-4.98501 8.92262,-1.24923 1.16901,3.59547 2.67251,13.1241 17.0496,8.22671 8.57481,-10.8972 -0.602929,-16.8979 -3.06142,-19.6019 -1.95421,-2.15036 -0.889512,-8.02829 5.29115,-7.28731 5.19534,0.623622 10.4848,6.62372 15.6195,6.58262z"/>
  <ellipse fill="#F00000" stroke="black" stroke-width="2.83465" cx="252.169" cy="82.2375" rx="19.1143" ry="19.0358"/>
  <path fill="black" d="M140.649 261.481c-0.701292,-6.88111 -10.0604,-29.9826 -11.5665,-36.5349 -12.4863,6.26315 -25.765,8.90646 -40.7554,1.9766 -13.9677,-6.45704 -30.0549,-19.3856 -46.1699,-35.9566 16.2627,7.2669 34.928,-16.0067 79.3449,20.5705 -2.40945,-15.9358 -19.7374,-33.8896 -24.548,-47.0798l9.96067 -19.3076 14.0315 10.9242c-0.121606,12.6238 6.49644,32.5559 13.3305,46.0933 8.08895,-9.39629 1.15965,-30.2624 8.97846,-47.2964 9.12473,-19.8782 15.8601,-18.5392 21.299,-28.4548 6.408,37.6949 12.024,67.5794 -22.1349,90.853 1.7331,7.14416 9.95982,22.7154 14.2381,27.7883l0.491528 3.29329 -16.4999 13.1309z"/>
  <path fill="#F00000" d="M143.15 260.219l-12.1343 -38.8721c-7.34627,1.50945 -16.3902,2.46104 -23.4216,2.39868 -3.31285,-0.312095 -2.66372,-0.562677 -0.971717,-1.42101 -2.26828,-1.30904 -7.70202,1.83062 -12.0637,-0.200126 3.11131,-1.11345 4.33361,-0.66926 4.94958,-2.05143 -3.72388,-1.86491 -10.2923,2.23994 -14.6976,-0.886111 -1.24384,-1.89723 2.66457,-2.05058 4.70126,-2.26602 -1.53581,-2.27027 -8.604,2.04321 -11.8137,-0.847276 -3.02655,-1.51994 2.85279,-1.85499 4.70126,-3.08098 -1.67017,-1.49074 -8.33074,2.15773 -13.6222,-1.72573 -0.590457,-0.873355 4.44444,-1.93181 6.09591,-2.49024 -4.2823,-1.74189 -8.3863,1.21039 -13.4983,-2.12939l6.27874 -1.33257c-3.62778,-1.09729 -12.4875,-3.80693 -14.8297,-6.37512l-0.800221 -2.51717c5.61374,2.89786 8.53314,0.783213 16.7054,4.52325 -0.0714331,-1.32208 -4.40929,-3.26835 -4.33134,-5.472l8.74234 5.03632c-1.46608,-3.19691 -3.9104,-4.11194 -5.86602,-6.16791 4.76958,-0.588756 8.23522,4.85292 12.3523,7.19802 0.308693,-1.97858 -1.99049,-4.28344 -2.9863,-6.42501 3.00388,-1.98992 7.33096,6.99903 10.2665,7.85481 -1.2498,-2.19147 -3.58923,-4.46485 -3.74854,-6.57411 4.51191,0.975119 8.36306,5.78353 12.3894,9.30615 -0.849544,-2.64898 -2.13052,-4.33899 -3.5212,-6.5897 2.87263,-0.0668977 5.69225,5.41162 9.78549,7.66659l-2.41909 -4.78857c3.28592,0.548788 5.70218,2.61836 7.24904,6.20929 -0.00566929,-2.07354 1.2291,-1.5497 1.27758,-1.78724 1.80567,0.846142 4.10882,2.41455 6.59339,7.0064l-0.592158 -3.87808c5.17096,5.16926 8.19411,5.84958 16.4917,8.33046 -8.06996,-6.63818 -15.2206,-27.1094 -29.2674,-54.2974l4.27266 -8.92262 10.2127 4.60772c-1.96838,10.6835 15.1047,47.1691 19.1557,53.6281 8.99008,-18.9984 3.08693,-14.7796 5.31128,-21.2108 0.997229,1.00148 1.9406,0.12189 2.99339,0.397134 -2.26375,-4.97169 -1.26765,-9.94338 -1.90148,-14.9151 1.18715,0.873922 2.53758,0.932599 3.56173,2.62091 -0.903402,-3.37096 -0.339874,-7.23118 -2.70992,-10.1135 1.23732,-0.564095 2.31647,1.76202 3.5606,2.07553 0.40904,-3.16432 -4.04419,-2.78844 -0.856063,-9.20382 2.42334,0.183969 0.932315,1.70958 2.58123,3.44325 0.819496,-3.85739 -2.76151,-8.53002 -0.475087,-11.5727l4.12441 4.30583c0.0462047,-1.77307 -1.38246,-5.16104 0.492095,-7.36044 0.736725,1.22627 0.880158,2.27565 1.88419,2.86328 1.31471,-2.24249 -2.17843,-6.41764 1.08992,-10.3411 0.535465,1.30847 1.39408,3.59263 2.25865,4.41411 0.909922,-2.36976 -1.1761,-5.54769 0.61115,-7.92511l1.98227 2.80517c0.887528,-2.71304 1.81474,-8.20233 3.43389,-10.2764 2.5784,2.00296 3.26495,10.5798 -1.02302,19.296l3.81855 -0.131528c-0.722268,4.19244 -2.93896,8.08526 -5.8354,11.8423l2.59909 0.655937c0.285449,1.96186 -1.78554,4.86539 -3.71792,7.71336l6.48199 -6.91682c0.858615,3.19918 -3.29925,12.6581 -7.25953,15.664l6.31418 -4.41808 -7.4024 11.4693 4.65676 -2.21301 -7.14161 9.66615 0.593008 2.66684c-4.84016,7.58013 -17.4141,15.6407 -18.4555,18.7571 -0.159307,9.36851 10.6614,24.5526 14.2781,31.2384l5.95163 1.51427 -13.4359 10.5216z"/>
  <path fill="#8C0000" d="M100.731 215.319l-34.1946 -13.0329c15.406,4.04136 23.3297,5.3127 34.1946,13.0329z"/>
  <path fill="#8C0000" d="M140.963 211.01c6.81109,-8.73326 13.1924,-29.8627 13.5873,-43.8032 0.174898,2.61383 -2.88312,16.1668 -6.56731,25.5345 -3.91238,9.94848 -7.11695,17.2695 -7.02,18.2687z"/>
  <path fill="#F00000" stroke="black" stroke-width="2.83465" d="M17.4044 56.8443c12.6975,24.0846 25.67,32.8995 51.8046,41.7921 -25.2797,16.3437 -31.0023,26.888 -42.7805,53.1312 26.3665,-10.9675 32.8487,-15.1084 51.3298,-38.3094l27.656 -5.46945c28.766,1.77647 38.2743,-10.0505 61.8526,-13.9218 -25.5784,-12.2202 -26.953,-21.3052 -61.9249,-7.82334 5.90117,-23.7209 8.57651,-36.5219 4.7075,-67.2551 -17.672,23.1446 -31.4731,26.0549 -29.2847,60.6561 -22.1525,-23.0431 -29.9495,-17.5972 -63.3603,-22.8002z"/>
  <path fill="#F00000" stroke="black" stroke-width="3.96851" d="M63.0029 41.5321c18.1874,-6.95396 22.7784,-16.0101 29.8718,-8.21112 1.1812,1.29827 4.26416,8.26555 3.64167,10.321 -0.621355,2.05484 -4.99011,12.7205 -1.27899,13.057 2.36013,0.214016 2.92366,-9.32117 3.10082,-11.3179 0.206362,-2.33915 6.70196,-5.43374 8.5595,-6.00322 11.5353,-3.52942 17.7517,6.95197 29.3063,18.915 11.4693,11.8729 14.6146,14.8076 13.1882,24.6668 -0.716882,4.95411 -6.37682,7.5617 -8.58898,7.56567 -3.16488,0.00708662 -6.72945,-0.748063 -6.75383,1.85471 -0.0246614,2.60306 4.08019,1.20161 6.94914,0.561544 1.20246,-0.268441 3.85795,1.09276 7.11922,6.86155 5.62281,9.94479 -1.16164,14.7013 -6.93383,27.4595 -5.77191,12.7582 -14.5077,29.8018 -26.6335,27.7005 -3.33666,-0.577701 -6.24841,-6.76035 -6.42161,-9.21856 -0.114803,-1.62539 -1.28296,-5.62989 -3.92032,-4.4297 -0.55304,0.251717 -0.608882,4.74463 0.710363,5.82463 1.50123,1.22825 3.07758,8.43308 -0.232725,11.6915 -14.5695,10.7507 -19.2495,3.04469 -33.0798,-2.11295 -11.1901,-4.1743 -19.9148,-1.25972 -23.3977,-10.4349 -2.00721,-5.28633 0.0544252,-11.8539 1.89014,-12.9867 2.75726,-1.70192 4.63266,-5.82917 4.22901,-6.34564 -0.40337,-0.516473 -5.00882,2.38961 -6.15203,4.33758 -1.68491,2.87433 -11.437,3.79191 -14.5976,2.56621 -10.1673,-3.94044 -7.43896,-17.1723 -7.93446,-32.7722 -0.495496,-15.6002 -6.0395,-25.1283 5.7515,-29.3196 2.57783,-0.916441 10.982,0.214299 12.5172,1.85868 1.97462,2.11521 7.50785,5.98763 9.22791,4.04136 0.629008,-0.71263 -5.89805,-6.59963 -8.04359,-7.11667 -2.18863,-0.528378 -6.09591,-4.32992 -7.62067,-8.38177 -2.85477,-7.507 7.33975,-13.6783 25.5268,-20.6323z"/>
  <path fill="#F00000" stroke="black" stroke-width="2.83465" d="M71.4371 58.1247c4.7367,-1.98284 7.4367,-7.45002 8.26782,-9.1749 2.43128,-5.04766 9.89547,-4.16495 8.33641,4.73046 -0.513355,2.93414 -1.92501,10.5378 3.36444,12.8659 3.87865,1.17468 12.0954,-0.898583 12.0699,-10.0012 -0.0297638,-10.6764 6.72605,-6.38703 9.83566,-3.07786 2.63537,2.80517 2.36041,12.0356 5.42353,16.4126 3.05915,4.37018 6.52224,5.46662 14.758,7.25868 3.9257,0.854363 8.32876,8.29616 -0.0221102,8.29503 -3.5144,-0.607465 -10.5775,3.75874 -10.3102,7.704 0.267024,3.94555 2.89928,7.8018 8.30183,7.25216 6.78161,-0.68967 6.23566,4.86964 3.19408,9.19021 -2.25638,3.20712 -7.84205,7.34032 -11.3083,11.5937 -1.66762,2.04718 -1.21465,9.21317 -1.73169,14.3498 -0.652536,6.46781 -5.13638,12.2352 -9.07427,2.48428 -1.53383,-3.79673 -2.67336,-9.71915 -10.355,-7.15323 -4.65222,1.55452 -8.26441,10.2742 -5.01137,13.2701 5.08507,4.68284 0.188504,10.9103 -3.49625,10.9111 -6.00378,0.00170079 -7.26832,-11.5733 -16.6915,-13.7792 -9.42322,-2.20592 -13.0666,4.40447 -18.3801,2.29635 -2.73118,-1.0834 -4.69077,-8.9864 0.0218268,-12.0529 11.1869,-7.28107 6.56391,-11.8256 4.2857,-13.6318 -1.49471,-1.52079 -8.37865,-5.71351 -13.4059,2.57131 -4.19273,6.90945 -7.31963,2.36636 -8.32054,1.30139 -4.7058,-5.00259 3.51014,-15.279 3.42284,-19.7745 -0.0394016,-2.016 -8.41578,-9.37276 -8.68252,-14.9068 -0.425197,-8.8047 5.24608,-7.53364 7.78479,-4.53572 2.44375,2.88454 7.44435,11.1336 18.8952,1.15569 3.80806,-13.333 -6.95878,-15.4106 -10.258,-16.9818 -2.62318,-1.25008 -3.86419,-7.09314 2.13676,-8.74857 5.04454,-1.39068 12.2122,2.15887 16.9489,0.175748z"/>
  <path fill="#F00000" stroke="black" stroke-width="2.83465" d="M81.8788 79.1071c9.76904,-3.99827 20.9191,0.649418 24.9004,10.3774 3.98183,9.72879 -0.710363,20.8605 -10.4791,24.8584 -9.76904,3.99827 -20.9191,-0.649418 -24.901,-10.3785 -3.98126,-9.72766 0.710929,-20.8593 10.4797,-24.8573z"/>
  <path fill="#8C0000" d="M156.361 156.84l3.58895 -12.0719c0.108567,4.4589 -1.08709,8.48268 -3.58895,12.0719z"/>
  <path fill="black" d="M355.729 261.481c0.701292,-6.88111 10.0604,-29.9826 11.5665,-36.5349 12.4863,6.26315 25.765,8.90646 40.7554,1.9766 13.9677,-6.45704 30.0549,-19.3856 46.1699,-35.9566 -16.2627,7.2669 -34.928,-16.0067 -79.3449,20.5705 2.40945,-15.9358 19.7374,-33.8896 24.548,-47.0798l-9.96067 -19.3076 -14.0315 10.9242c0.121606,12.6238 -6.49644,32.5559 -13.3305,46.0933 -8.08895,-9.39629 -1.15965,-30.2624 -8.97846,-47.2964 -9.12473,-19.8782 -15.8601,-18.5392 -21.299,-28.4548 -6.408,37.6949 -12.024,67.5794 22.1349,90.853 -1.7331,7.14416 -9.95982,22.7154 -14.2381,27.7883l-0.491528 3.29329 16.4999 13.1309z"/>
  <path fill="#F00000" d="M353.228 260.219l12.1343 -38.8721c7.34627,1.50945 16.3902,2.46104 23.4216,2.39868 3.31285,-0.312095 2.66372,-0.562677 0.971717,-1.42101 2.26828,-1.30904 7.70202,1.83062 12.0637,-0.200126 -3.11131,-1.11345 -4.33361,-0.66926 -4.94958,-2.05143 3.72388,-1.86491 10.2923,2.23994 14.6976,-0.886111 1.24384,-1.89723 -2.66457,-2.05058 -4.70126,-2.26602 1.53581,-2.27027 8.604,2.04321 11.8137,-0.847276 3.02655,-1.51994 -2.85279,-1.85499 -4.70126,-3.08098 1.67017,-1.49074 8.33074,2.15773 13.6222,-1.72573 0.590457,-0.873355 -4.44444,-1.93181 -6.09591,-2.49024 4.2823,-1.74189 8.3863,1.21039 13.4983,-2.12939l-6.27874 -1.33257c3.62778,-1.09729 12.4875,-3.80693 14.8297,-6.37512l0.800221 -2.51717c-5.61374,2.89786 -8.53314,0.783213 -16.7054,4.52325 0.0714331,-1.32208 4.40929,-3.26835 4.33134,-5.472l-8.74234 5.03632c1.46608,-3.19691 3.9104,-4.11194 5.86602,-6.16791 -4.76958,-0.588756 -8.23522,4.85292 -12.3523,7.19802 -0.308693,-1.97858 1.99049,-4.28344 2.9863,-6.42501 -3.00388,-1.98992 -7.33096,6.99903 -10.2665,7.85481 1.2498,-2.19147 3.58923,-4.46485 3.74854,-6.57411 -4.51191,0.975119 -8.36306,5.78353 -12.3894,9.30615 0.849544,-2.64898 2.13052,-4.33899 3.5212,-6.5897 -2.87263,-0.0668977 -5.69225,5.41162 -9.78549,7.66659l2.41909 -4.78857c-3.28592,0.548788 -5.70218,2.61836 -7.24904,6.20929 0.00566929,-2.07354 -1.2291,-1.5497 -1.27758,-1.78724 -1.80567,0.846142 -4.10882,2.41455 -6.59339,7.0064l0.592158 -3.87808c-5.17096,5.16926 -8.19411,5.84958 -16.4917,8.33046 8.06996,-6.63818 15.2206,-27.1094 29.2674,-54.2974l-4.27266 -8.92262 -10.2127 4.60772c1.96838,10.6835 -15.1047,47.1691 -19.1557,53.6281 -8.99008,-18.9984 -3.08693,-14.7796 -5.31128,-21.2108 -0.997229,1.00148 -1.9406,0.12189 -2.99339,0.397134 2.26375,-4.97169 1.26765,-9.94338 1.90148,-14.9151 -1.18715,0.873922 -2.53758,0.932599 -3.56173,2.62091 0.903402,-3.37096 0.339874,-7.23118 2.70992,-10.1135 -1.23732,-0.564095 -2.31647,1.76202 -3.5606,2.07553 -0.40904,-3.16432 4.04419,-2.78844 0.856063,-9.20382 -2.42334,0.183969 -0.932315,1.70958 -2.58123,3.44325 -0.819496,-3.85739 2.76151,-8.53002 0.475087,-11.5727l-4.12441 4.30583c-0.0462047,-1.77307 1.38246,-5.16104 -0.492095,-7.36044 -0.736725,1.22627 -0.880158,2.27565 -1.88419,2.86328 -1.31471,-2.24249 2.17843,-6.41764 -1.08992,-10.3411 -0.535465,1.30847 -1.39408,3.59263 -2.25865,4.41411 -0.909922,-2.36976 1.1761,-5.54769 -0.61115,-7.92511l-1.98227 2.80517c-0.887528,-2.71304 -1.81474,-8.20233 -3.43389,-10.2764 -2.5784,2.00296 -3.26495,10.5798 1.02302,19.296l-3.81855 -0.131528c0.722268,4.19244 2.93896,8.08526 5.8354,11.8423l-2.59909 0.655937c-0.285449,1.96186 1.78554,4.86539 3.71792,7.71336l-6.48199 -6.91682c-0.858615,3.19918 3.29925,12.6581 7.25953,15.664l-6.31418 -4.41808 7.4024 11.4693 -4.65676 -2.21301 7.14161 9.66615 -0.593008 2.66684c4.84016,7.58013 17.4141,15.6407 18.4555,18.7571 0.159307,9.36851 -10.6614,24.5526 -14.2781,31.2384l-5.95163 1.51427 13.4359 10.5216z"/>
  <path fill="#8C0000" d="M395.648 215.319l34.1946 -13.0329c-15.406,4.04136 -23.3297,5.3127 -34.1946,13.0329z"/>
  <path fill="#8C0000" d="M355.416 211.01c-6.81109,-8.73326 -13.1924,-29.8627 -13.5873,-43.8032 -0.174898,2.61383 2.88312,16.1668 6.56731,25.5345 3.91238,9.94848 7.11695,17.2695 7.02,18.2687z"/>
  <path fill="#F00000" stroke="black" stroke-width="2.83465" d="M478.974 56.8443c-12.6975,24.0846 -25.67,32.8995 -51.8046,41.7921 25.2797,16.3437 31.0023,26.888 42.7805,53.1312 -26.3665,-10.9675 -32.8487,-15.1084 -51.3298,-38.3094l-27.656 -5.46945c-28.766,1.77647 -38.2743,-10.0505 -61.8526,-13.9218 25.5784,-12.2202 26.953,-21.3052 61.9249,-7.82334 -5.90117,-23.7209 -8.57651,-36.5219 -4.7075,-67.2551 17.672,23.1446 31.4731,26.0549 29.2847,60.6561 22.1525,-23.0431 29.9495,-17.5972 63.3603,-22.8002z"/>
  <path fill="#F00000" stroke="black" stroke-width="3.96851" d="M433.376 41.5321c-18.1874,-6.95396 -22.7784,-16.0101 -29.8718,-8.21112 -1.1812,1.29827 -4.26416,8.26555 -3.64167,10.321 0.621355,2.05484 4.99011,12.7205 1.27899,13.057 -2.36013,0.214016 -2.92366,-9.32117 -3.10082,-11.3179 -0.206362,-2.33915 -6.70196,-5.43374 -8.5595,-6.00322 -11.5353,-3.52942 -17.7517,6.95197 -29.3063,18.915 -11.4693,11.8729 -14.6146,14.8076 -13.1882,24.6668 0.716882,4.95411 6.37682,7.5617 8.58898,7.56567 3.16488,0.00708662 6.72945,-0.748063 6.75383,1.85471 0.0246614,2.60306 -4.08019,1.20161 -6.94914,0.561544 -1.20246,-0.268441 -3.85795,1.09276 -7.11922,6.86155 -5.62281,9.94479 1.16164,14.7013 6.93383,27.4595 5.77191,12.7582 14.5077,29.8018 26.6335,27.7005 3.33666,-0.577701 6.24841,-6.76035 6.42161,-9.21856 0.114803,-1.62539 1.28296,-5.62989 3.92032,-4.4297 0.55304,0.251717 0.608882,4.74463 -0.710363,5.82463 -1.50123,1.22825 -3.07758,8.43308 0.232725,11.6915 14.5695,10.7507 19.2495,3.04469 33.0798,-2.11295 11.1901,-4.1743 19.9148,-1.25972 23.3977,-10.4349 2.00721,-5.28633 -0.0544252,-11.8539 -1.89014,-12.9867 -2.75726,-1.70192 -4.63266,-5.82917 -4.22901,-6.34564 0.40337,-0.516473 5.00882,2.38961 6.15203,4.33758 1.68491,2.87433 11.437,3.79191 14.5976,2.56621 10.1673,-3.94044 7.43896,-17.1723 7.93446,-32.7722 0.495496,-15.6002 6.0395,-25.1283 -5.7515,-29.3196 -2.57783,-0.916441 -10.982,0.214299 -12.5172,1.85868 -1.97462,2.11521 -7.50785,5.98763 -9.22791,4.04136 -0.629008,-0.71263 5.89805,-6.59963 8.04359,-7.11667 2.18863,-0.528378 6.09591,-4.32992 7.62067,-8.38177 2.85477,-7.507 -7.33975,-13.6783 -25.5268,-20.6323z"/>
  <path fill="#F00000" stroke="black" stroke-width="2.83465" d="M424.941 58.1247c-4.7367,-1.98284 -7.4367,-7.45002 -8.26782,-9.1749 -2.43128,-5.04766 -9.89547,-4.16495 -8.33641,4.73046 0.513355,2.93414 1.92501,10.5378 -3.36444,12.8659 -3.87865,1.17468 -12.0954,-0.898583 -12.0699,-10.0012 0.0297638,-10.6764 -6.72605,-6.38703 -9.83566,-3.07786 -2.63537,2.80517 -2.36041,12.0356 -5.42353,16.4126 -3.05915,4.37018 -6.52224,5.46662 -14.758,7.25868 -3.9257,0.854363 -8.32876,8.29616 0.0221102,8.29503 3.5144,-0.607465 10.5775,3.75874 10.3102,7.704 -0.267024,3.94555 -2.89928,7.8018 -8.30183,7.25216 -6.78161,-0.68967 -6.23566,4.86964 -3.19408,9.19021 2.25638,3.20712 7.84205,7.34032 11.3083,11.5937 1.66762,2.04718 1.21465,9.21317 1.73169,14.3498 0.652536,6.46781 5.13638,12.2352 9.07427,2.48428 1.53383,-3.79673 2.67336,-9.71915 10.355,-7.15323 4.65222,1.55452 8.26441,10.2742 5.01137,13.2701 -5.08507,4.68284 -0.188504,10.9103 3.49625,10.9111 6.00378,0.00170079 7.26832,-11.5733 16.6915,-13.7792 9.42322,-2.20592 13.0666,4.40447 18.3801,2.29635 2.73118,-1.0834 4.69077,-8.9864 -0.0218268,-12.0529 -11.1869,-7.28107 -6.56391,-11.8256 -4.2857,-13.6318 1.49471,-1.52079 8.37865,-5.71351 13.4059,2.57131 4.19273,6.90945 7.31963,2.36636 8.32054,1.30139 4.7058,-5.00259 -3.51014,-15.279 -3.42284,-19.7745 0.0394016,-2.016 8.41578,-9.37276 8.68252,-14.9068 0.425197,-8.8047 -5.24608,-7.53364 -7.78479,-4.53572 -2.44375,2.88454 -7.44435,11.1336 -18.8952,1.15569 -3.80806,-13.333 6.95878,-15.4106 10.258,-16.9818 2.62318,-1.25008 3.86419,-7.09314 -2.13676,-8.74857 -5.04454,-1.39068 -12.2122,2.15887 -16.9489,0.175748z"/>
  <path fill="#F00000" stroke="black" stroke-width="2.83465" d="M414.5 79.1071c-9.76904,-3.99827 -20.9191,0.649418 -24.9004,10.3774 -3.98183,9.72879 0.710363,20.8605 10.4791,24.8584 9.76904,3.99827 20.9191,-0.649418 24.901,-10.3785 3.98126,-9.72766 -0.710929,-20.8593 -10.4797,-24.8573z"/>
  <path fill="#8C0000" d="M340.017 156.84l-3.58895 -12.0719c-0.108567,4.4589 1.08709,8.48268 3.58895,12.0719z"/>
  <polygon fill="black" points="189.314,422.749 204.322,439.062 229.119,416.876 243.148,431.558 262.398,415.571 280.995,438.083 297.309,423.075 277.733,400.889 295.025,384.575 280.343,369.893 299.919,350.97 283.606,332.699 261.419,351.949 246.737,336.614 229.119,351.622 205.628,326.173 188.988,340.856 213.132,368.262 200.407,379.355 199.428,386.533 213.458,400.563 "/>
  <polygon fill="#F00000" points="198.123,346.728 214.763,364.347 221.288,359.453 204.649,340.856 "/>
  <polygon fill="#F00000" points="285.563,346.728 271.207,358.8 278.712,366.957 292.415,353.58 "/>
  <polygon fill="#F00000" points="220.636,407.74 198.45,428.948 205.301,435.799 226.835,414.266 "/>
  <polygon fill="#F00000" points="264.03,413.613 281.322,432.537 286.868,426.664 270.555,407.414 "/>
  <polygon fill="#CCCCCC" points="203.67,384.249 243.148,426.99 286.868,386.207 247.064,344.444 "/>
  <path fill="black" d="M86.4074 366.257c-0.988441,7.26889 -1.39011,14.6891 -1.49896,22.2256 -1.32548,91.6895 72.7906,165.303 165.418,164.447 92.6272,-0.856063 165.418,-73.6407 165.418,-164.447 0,-53.5332 -24.1143,-103.711 -63.9647,-133.741 -27.7455,-20.9081 -63.9607,-30.7055 -101.453,-30.7055 -77.0698,0 -141.847,52.4259 -160.209,123.354l2.82416 -0.480473c17.8506,-68.9545 80.826,-119.922 155.752,-119.922 44.2936,0 84.8965,16.1124 114.117,44.4569l-2.34709 6.25068 1.84394 3.86051 2.87348 -0.751181 1.81361 5.22029 0.841323 -6.19682 2.12797 -0.944788c1.04542,1.16589 2.07354,2.34936 3.08296,3.55011 0.953008,1.13329 1.88986,2.28189 2.80999,3.4458l5.62422 4.64003 -2.3641 2.74819 5.82577 3.52177 -4.63607 1.5205 9.61966 5.81585 -3.52006 3.40413 6.0327 7.05289 4.23071 2.22378 -0.845859 3.87865 -5.11484 0.899717 9.92552 6.95112 -2.70539 2.35758 2.71531 2.19543 -6.17188 0.280063 10.4046 5.92866 -2.61354 1.52192 0.63326 4.17827 -3.66492 1.29118 6.98117 7.97131 -4.25254 3.57194 1.56359 7.3732 3.53395 -4.64769 2.91487 12.1221 -7.03985 -4.10485 4.42205 9.01616 -5.35068 2.7428 -3.9274 1.97717 7.70627 4.67178 -4.04646 2.80545 1.35439 2.8766 5.112 4.78318 -7.80719 3.11414 6.18945 1.35865 1.67981 5.87396 -8.12325 -1.08397 3.42822 4.55046 -0.383811 5.54514 2.67902 3.72218 -2.53956 1.94457 -2.5903 -3.94781 -4.2514 1.93323 4.49603 8.75651 -0.972851 5.3966 -4.71799 -4.02945 2.80091 8.61818 -2.96929 7.64958c-0.759118,1.79547 -5.83852,-5.34841 -4.65789,-3.31087l5.16813 8.92148 -1.02047 3.77178 -3.77405 -4.03767 -0.865134 7.43046 -5.01931 -5.54315 5.02129 11.0849 -3.5229 -2.56365 -1.12819 6.88876 -5.37931 -4.74605 0.534331 13.9621 -6.02533 -2.02224 0.622489 7.53648 -4.35515 4.75654 -2.54098 -6.37002 0.0283465 9.54029 -2.71446 0.542551 -0.863434 5.28407 -3.62126 4.788 -2.80148 -9.75317 -5.02838 4.93909 0.458079 8.38545 -3.17934 1.81531 -1.05392 4.87644 -5.22624 -0.471685 -2.4514 -6.20107 -2.376 2.76747 -0.728221 10.3578 -3.36813 1.15767 -0.959245 -6.10044 -1.9749 0.340158 -3.07106 9.45213 -2.85534 -2.71332 -2.30627 5.3212 -2.45537 -4.75427 -3.31229 6.2127 2.89021 0.700725 -2.30457 4.82769 -7.24876 -7.78819 -4.2429 12.7412 -4.57937 -4.67433 -0.926646 4.90876 -2.24589 -7.37235 -3.82394 7.97528 -5.72939 1.41024 -1.52419 -4.92293 -4.1641 7.24621 -5.46066 2.02337 -1.2206 -7.33068 -6.55484 7.33238 -2.66797 -1.63928 -1.87172 -4.12696 -3.58753 5.61374 -7.82618 0.161291 -2.95654 2.74451 0.0133228 -4.79509 -3.00359 0.420662 -4.17799 4.18394 -7.86189 -5.53096 -5.84277 6.09818 -2.29295 -1.16561 2.60929 -4.57115 -1.9868 -0.990426 -3.90416 2.1875 -4.53827 -0.521859 -2.94945 2.4823 -3.65216 -1.1401 2.70454 -3.79191 -3.97701 -0.708945 -4.80926 2.71304 -6.22148 -1.33739 3.56995 -4.47506 -8.8458 3.16006 -0.576567 -2.18835 -6.59707 1.50576 1.59052 -2.43213 -1.23619 -1.9766 -7.13963 1.40032 -1.65033 -1.49329 5.20866 -4.52155 -2.00466 -1.04995 -5.55619 4.26388 -3.86164 -2.2235 3.93421 -2.35304 -1.60073 -2.12769 -7.50558 3.30066 -0.772441 -2.7652 -2.63254 -0.955843 0.0992126 -4.57881 -2.30372 -0.572599 -3.32334 3.77773 0.24548 -4.88381 -6.83207 1.14066 2.18551 -4.65336 -6.06019 1.26425 1.68066 -2.75783 -6.43918 -0.909071 0.371622 -5.70473 -6.32381 1.02331 0.240662 -3.90614 -2.58378 1.05421c-29.9089,-29.0327 -49.7852,-75.4317 -49.7852,-120.261 0,-7.32756 0.496063,-14.5409 1.45701,-21.6079l-2.92734 1.00573z"/>
  <path fill="black" d="M249.674 226.336c-8.83815,21.7585 -19.6625,42.4364 -12.7244,92.9863l3.91521 2.28388 -0.652536 -7.50416 1.95761 -1.95761 -2.28388 -0.978804 -2.93641 -9.46177 1.63134 0 -0.326268 -3.58895 -0.978804 -0.978804 0 -3.91521 1.95761 -2.93641 -0.326268 -2.28388 1.95761 0.978804 3.91521 -2.61014 3.91521 -0.326268 -2.93641 -2.61014 -2.93641 0.326268 0.326268 1.95761 -1.95761 1.30507 -1.30507 -2.28388 -0.326268 -8.48296 7.50416 2.28388 3.26268 -0.652536 -3.58895 -2.61014 0 -1.95761 3.58895 -1.30507 4.89402 3.26268 -10.1143 -9.78804 -0.652536 1.95761 -3.26268 1.95761 0 -2.28388 4.24148 -1.63134 3.91521 -2.93641 -4.56775 -0.978804 -1.30507 2.28388 -4.24148 0.978804 0.326268 -1.95761 6.19909 -1.63134 -1.63134 -1.30507 2.28388 -3.26268 -1.30507 -1.63134 -1.63134 0 0.326268 -2.61014 2.61014 1.63134 1.95761 -1.63134 0 -0.978804 5.54655 -1.63134 -3.26268 -3.26268 -3.26268 -0.978804 0.326268 -1.63134 2.28388 0.652536 7.17789 -1.95761 -1.30507 -3.58895 -3.91521 -5.22029 3.26268 -0.326268 3.58895 6.19909 -0.978804 -7.83043 2.61014 0.652536 0.652536 1.95761 3.26268 0 6.52536 -2.61014 -6.19909 -2.28388 -1.30507 3.58895 -7.50416 -6.52536 -6.19909 -0.326268z"/>
  <polygon fill="black" points="238.581,324.216 238.254,333.025 242.822,334.983 241.191,332.373 240.538,324.868 "/>
  <polygon fill="black" points="256.525,288 251.958,293.547 253.263,293.547 261.419,290.284 "/>
  <polygon fill="black" points="251.305,255.7 250.979,258.962 256.199,259.941 "/>
  <polygon fill="black" points="268.597,252.437 264.682,250.806 264.682,254.721 268.089,254.133 "/>
  <polygon fill="black" points="242.496,314.754 242.496,318.669 246.737,318.343 "/>
  <polygon fill="black" points="256.525,261.246 256.199,266.14 254.241,266.14 254.568,268.424 257.715,269.011 257.83,265.161 265.335,265.488 "/>
  <polygon fill="black" points="253.915,245.912 254.241,250.153 257.178,250.153 256.525,245.912 "/>
  <polygon fill="black" points="238.581,295.831 242.17,293.22 246.085,292.568 242.064,294.951 "/>
  <polygon fill="black" points="246.737,305.945 251.958,302.356 246.737,299.093 247.064,302.356 243.801,302.682 "/>
  <polygon fill="black" points="263.377,246.238 259.462,244.607 259.462,248.522 262.868,247.934 "/>
  <polygon fill="black" points="250.653,280.822 250.979,285.064 253.915,285.064 253.263,280.822 "/>
  <polygon fill="black" points="273.165,245.585 276.754,242.975 280.669,242.323 276.649,244.705 "/>
  <polygon fill="black" points="264.03,241.67 264.23,244.28 266.037,244.28 265.636,241.67 "/>
  <polygon fill="black" points="242.822,278.538 243.023,281.149 244.83,281.149 244.428,278.538 "/>
  <polygon fill="black" points="240.212,303.335 243.021,300.725 246.085,300.072 242.938,302.455 "/>
  <polygon fill="black" points="297.309,324.542 293.067,333.351 296.004,333.025 298.94,326.5 "/>
  <polygon fill="black" points="307.423,315.08 310.686,314.754 312.317,309.208 310.36,309.534 "/>
  <polygon fill="black" points="301.224,321.279 301.55,323.237 306.444,318.669 303.834,318.669 "/>
  <polygon fill="black" points="316.885,302.03 313.296,310.513 317.864,308.555 319.495,304.314 "/>
  <polygon fill="black" points="324.389,295.504 319.821,303.335 323.41,303.335 326.673,302.03 "/>
  <polygon fill="black" stroke="black" stroke-width="0.216" points="326.673,297.788 330.588,290.61 332.546,291.589 337.114,286.695 338.419,288 342.986,283.759 344.291,285.716 348.859,278.538 349.838,282.78 352.774,286.043 354.406,282.78 352.122,280.496 353.427,275.602 357.016,278.212 357.016,274.949 358.647,274.949 359.626,277.886 358.321,279.843 359.952,280.17 359.3,282.454 357.342,287.348 352.774,289.958 351.796,287.674 342.986,288.979 342.66,292.894 341.029,293.22 341.355,298.114 335.808,297.136 339.397,293.873 337.766,289.958 334.83,293.547 332.546,293.547 331.567,298.767 "/>
  <polygon fill="black" points="333.851,296.809 329.936,301.703 331.567,309.534 336.787,311.165 336.787,307.902 333.198,307.25 332.746,303.471 335.808,301.051 "/>
  <polygon fill="black" points="362.562,282.454 364.52,285.064 365.173,289.631 360.279,293.22 358.973,292.242 361.815,288.942 361.257,286.369 358.973,285.39 360.279,282.78 "/>
  <polygon fill="black" points="345.27,291.263 345.596,295.504 348.533,295.504 347.88,291.263 "/>
  <polygon fill="black" points="368.762,282.78 369.088,287.021 372.024,287.021 371.372,282.78 "/>
  <polygon fill="black" points="363.867,292.568 364.194,296.809 367.13,296.809 366.478,292.568 "/>
  <polygon fill="black" points="322.758,311.491 322.958,314.102 324.766,314.102 324.364,311.491 "/>
  <polygon fill="black" points="307.097,319.648 307.298,322.258 309.105,322.258 308.703,319.648 "/>
  <polygon fill="black" points="342.66,299.746 342.861,302.356 344.668,302.356 344.266,299.746 "/>
  <polygon fill="black" points="372.677,288.979 372.877,291.589 374.685,291.589 374.283,288.979 "/>
  <polygon fill="black" points="316.885,313.449 317.086,316.059 318.893,316.059 318.491,313.449 "/>
  <polygon fill="black" points="320.148,307.902 320.348,310.513 322.155,310.513 321.754,307.902 "/>
  <polygon fill="black" points="353.101,291.589 353.301,294.199 355.108,294.199 354.707,291.589 "/>
  <polygon fill="black" points="355.711,299.42 355.911,302.03 357.719,302.03 357.317,299.42 "/>
  <polygon fill="black" points="339.724,311.165 339.924,313.775 341.731,313.775 341.33,311.165 "/>
  <polygon fill="black" points="312.97,312.144 313.17,314.754 314.977,314.754 314.576,312.144 "/>
  <polygon fill="black" points="348.207,300.398 348.407,303.008 350.214,303.008 349.813,300.398 "/>
  <polygon fill="black" points="370.067,294.852 370.267,297.462 372.074,297.462 371.673,294.852 "/>
  <polygon fill="black" points="339.724,299.746 339.924,302.356 341.731,302.356 341.33,299.746 "/>
  <polygon fill="black" points="338.745,306.924 338.946,309.534 340.753,309.534 340.351,306.924 "/>
  <polygon fill="black" points="358.973,294.199 359.174,296.809 360.981,296.809 360.58,294.199 "/>
  <polygon fill="black" points="360.279,299.746 360.479,302.356 362.286,302.356 361.885,299.746 "/>
  <polygon fill="black" points="365.825,288.979 366.026,291.589 367.833,291.589 367.431,288.979 "/>
  <polygon fill="black" points="326.673,302.356 322.939,305.047 324.063,308.229 326.948,306.035 326.999,306.597 "/>
  <path fill="black" d="M296.656 380.334l6.52536 0.652536c7.66687,-3.64309 17.1286,-5.49185 27.4065,-6.52536l1.95761 -3.58895c-12.3985,1.41392 -24.3618,4.56803 -35.8895,9.46177z"/>
  <polygon fill="black" points="336.135,373.482 340.376,369.893 345.923,370.546 351.959,369.727 351.469,372.83 355.386,369.239 360.931,371.525 364.521,369.401 364.194,371.851 370.882,370.708 370.882,372.666 367.944,373.648 365.173,376.746 365.883,378.231 362.562,383.27 362.726,376.093 365.499,373.156 361.584,373.156 360.605,375.114 357.668,374.461 353.101,383.597 350.98,382.781 352.956,380.291 353.101,376.745 355.711,375.44 351.303,374.787 348.186,373.199 343.639,379.029 341.681,377.724 344.618,373.482 341.355,373.482 339.724,375.114 "/>
  <polygon fill="black" points="371.103,373.897 374.037,371.778 376.808,372.919 378.438,371.615 382.513,373.408 386.261,372.43 390.173,375.69 393.107,374.549 395.389,376.831 399.301,376.179 399.301,378.787 395.878,381.395 394.085,380.58 394.248,378.461 392.129,378.624 391.803,380.906 390.173,380.091 389.684,377.646 386.424,375.69 384.469,379.602 381.209,379.439 382.024,376.179 378.764,374.712 376.808,376.831 376.808,379.113 373.222,382.536 372.896,379.113 367.028,380.254 367.028,378.624 372.244,377.32 375.667,374.386 374.2,374.06 371.755,375.201 "/>
  <polygon fill="black" points="389.032,379.765 385.61,383.351 383.817,381.884 386.913,378.95 "/>
  <polygon fill="black" points="385.447,386.61 382.024,390.196 380.231,388.729 383.328,385.795 "/>
  <polygon fill="black" points="392.455,381.558 389.032,385.144 387.239,383.677 390.336,380.743 "/>
  <polygon fill="black" points="392.129,387.099 388.706,390.685 386.913,389.218 390.01,386.284 "/>
  <polygon fill="black" points="392.823,394.15 389.908,397.205 388.38,395.955 391.018,393.456 "/>
  <polygon fill="black" points="397.224,390.076 394.308,393.13 392.781,391.881 395.419,389.381 "/>
  <polygon fill="black" points="372.286,390.901 370.012,393.283 368.821,392.308 370.879,390.359 "/>
  <polygon fill="black" points="379.132,385.685 376.858,388.067 375.667,387.093 377.724,385.144 "/>
  <polygon fill="black" points="343.274,381.284 341,383.666 339.809,382.692 341.866,380.743 "/>
  <polygon fill="black" points="380.436,391.064 378.162,393.446 376.971,392.471 379.028,390.522 "/>
  <polygon fill="black" points="357.943,384.218 355.669,386.6 354.478,385.626 356.535,383.677 "/>
  <polygon fill="black" points="377.297,380.743 377.297,382.536 380.557,384.981 383.002,383.351 382.187,381.558 "/>
  <polygon fill="black" points="391.803,382.699 393.107,386.61 400.279,383.84 397.671,382.21 "/>
  <polygon fill="black" points="403.539,393.456 397.182,399.976 394.574,399.976 395.878,395.412 395.226,393.945 400.279,393.945 402.561,392.478 "/>
  <polygon fill="black" points="397.182,405.681 393.922,409.266 388.217,405.029 391.314,404.703 394.248,405.518 396.53,403.236 "/>
  <polygon fill="black" points="367.517,382.536 367.517,384.492 371.755,384.818 371.592,383.025 "/>
  <polygon fill="black" points="397.508,386.121 399.464,389.055 402.724,387.425 402.398,385.958 "/>
  <polygon fill="black" points="325.954,377.32 326.117,378.95 330.355,378.624 329.866,376.668 "/>
  <polygon fill="black" points="323.346,382.047 324.65,384.329 328.236,382.373 "/>
  <polygon fill="black" points="333.615,373.897 331.659,376.505 332.963,379.113 333.778,376.505 336.712,376.831 336.549,375.201 "/>
  <polygon fill="black" points="347.795,384.003 347.795,386.121 350.892,385.144 350.729,384.166 "/>
  <polygon fill="black" points="383.491,396.716 383.654,398.509 386.261,398.509 386.261,396.879 "/>
  <polygon fill="black" points="383.817,390.685 383.328,394.597 385.121,394.271 387.565,391.011 "/>
  <polygon fill="black" points="386.587,399.487 386.75,401.28 389.358,401.28 389.358,399.65 "/>
  <polygon fill="black" points="378.927,397.368 379.052,399.161 381.046,399.161 381.046,397.531 "/>
  <polygon fill="black" points="358.553,382.699 358.678,384.492 360.672,384.492 360.672,382.862 "/>
  <polygon fill="black" points="348.447,376.016 348.572,377.809 350.566,377.809 350.566,376.179 "/>
  <polygon fill="black" points="302.972,431.596 302.972,433.715 306.069,435.345 308.514,434.041 "/>
  <polygon fill="black" points="313.567,438.279 312.426,436.16 309.655,435.997 309.492,437.627 312.589,439.094 "/>
  <polygon fill="black" points="316.175,441.865 316.012,444.147 318.946,445.614 319.924,444.962 318.294,442.191 "/>
  <polygon fill="black" points="321.228,442.191 321.391,444.962 324.324,445.288 324.324,443.984 322.695,442.354 "/>
  <polygon fill="black" points="330.518,449.525 329.866,451.481 321.554,449.036 321.554,447.733 322.695,447.081 324.813,447.57 326.117,446.918 "/>
  <polygon fill="black" points="328.888,453.111 327.584,455.556 333.289,460.609 336.06,461.261 338.505,457.512 334.756,456.371 334.104,454.252 332.311,455.719 "/>
  <polygon fill="black" points="341.276,461.098 345.513,466.966 345.513,468.107 344.047,472.67 345.35,472.996 349.099,473.974 352.685,481.798 357.086,482.776 356.271,487.992 358.553,493.044 355.13,495.163 354.967,493.37 349.751,491.414 348.61,489.296 354.152,486.525 351.544,484.08 347.632,486.199 345.024,485.547 344.047,481.798 348.121,479.353 346.817,478.212 345.024,478.538 343.558,480.494 341.113,478.701 345.35,475.93 343.069,473.974 339.972,474.789 338.994,479.516 335.245,476.256 337.201,475.767 337.364,473.648 334.43,473.159 334.756,468.921 337.201,469.084 337.364,471.529 338.994,471.529 341.439,467.455 334.267,465.499 335.734,463.054 342.091,465.173 339.483,461.913 "/>
  <polygon fill="black" points="314.871,448.71 311.611,451.97 313.241,451.97 315.686,451.481 319.435,452.948 319.435,451.644 "/>
  <polygon fill="black" points="321.065,457.838 318.294,460.935 326.932,461.098 "/>
  <polygon fill="black" points="339.972,489.133 346.98,488.807 344.047,485.71 "/>
  <polygon fill="black" points="342.091,492.229 346.002,493.37 346.654,496.141 346.328,497.934 352.522,497.608 353.663,496.467 352.685,494.511 350.403,494.837 350.24,492.555 344.535,490.925 "/>
  <polygon fill="black" points="343.395,503.802 349.099,503.965 348.668,501.73 346.817,498.912 345.187,501.683 343.395,502.009 "/>
  <polygon fill="black" points="363.443,493.044 360.998,493.207 361.324,498.26 363.093,497.466 "/>
  <polygon fill="black" points="327.258,468.759 328.888,471.692 331.17,471.692 330.192,469.41 "/>
  <polygon fill="black" points="334.756,484.732 334.593,488.155 336.386,488.155 336.386,485.058 "/>
  <polygon fill="black" points="334.682,478.864 334.593,480.731 335.571,480.731 335.571,479.042 "/>
  <polygon fill="black" points="323.672,468.759 323.509,472.181 325.302,472.181 325.302,469.084 "/>
  <polygon fill="black" points="326.443,455.882 326.28,459.305 328.073,459.305 328.073,456.208 "/>
  <polygon fill="black" points="331.007,462.402 329.703,464.521 331.985,466.803 332.148,464.521 "/>
  <polygon fill="black" points="338.668,491.577 336.875,494.348 338.831,495.978 341.276,493.859 "/>
  <polygon fill="black" points="321.554,472.67 321.554,475.604 324.324,475.93 324.161,474.137 "/>
  <polygon fill="black" points="330.518,480.331 331.605,482.287 333.126,482.287 332.474,480.766 "/>
  <polygon fill="black" points="338.668,502.335 339.754,504.291 341.276,504.291 340.624,502.769 "/>
  <polygon fill="black" points="340.787,498.586 341.873,500.542 343.395,500.542 342.743,499.021 "/>
  <polygon fill="black" points="333.343,500.542 335.222,503.313 337.853,503.313 336.725,501.158 "/>
  <polygon fill="black" points="329.866,493.533 330.953,495.489 332.474,495.489 331.822,493.968 "/>
  <polygon fill="black" points="341.29,482.45 341.113,484.317 343.069,484.317 343.069,482.628 "/>
  <polygon fill="black" points="343.395,509.181 348.121,506.899 346.165,505.595 342.743,507.388 "/>
  <polygon fill="black" points="335.008,491.903 334.919,493.77 335.897,493.77 335.897,492.081 "/>
  <polygon fill="black" points="335.823,507.225 335.734,509.092 336.712,509.092 336.712,507.402 "/>
  <path fill="black" d="M245.634 547.646c8.99944,-22.1553 20.0211,-43.2102 12.9566,-94.682l-3.98665 -2.32554 0.664441 7.64107 -1.99332 1.99332 2.32554 0.996662 2.98999 9.63412 -1.6611 0 0.332221 3.65443 0.996662 0.996662 0 3.98665 -1.99332 2.98999 0.332221 2.32554 -1.99332 -0.996662 -3.98665 2.65777 -3.98665 0.332221 2.98999 2.65777 2.98999 -0.332221 -0.332221 -1.99332 1.99332 -1.32888 1.32888 2.32554 0.332221 8.63774 -7.64107 -2.32554 -3.32221 0.664441 3.65443 2.65777 0 1.99332 -3.65443 1.32888 -4.98303 -3.32221 10.2986 9.96634 0.664441 -1.99332 3.32221 -1.99332 0 2.32554 -4.31887 1.6611 -3.98665 2.98999 4.65109 0.996662 1.32888 -2.32554 4.31887 -0.996662 -0.332221 1.99332 -6.31219 1.6611 1.6611 1.32888 -2.32554 3.32221 1.32888 1.6611 1.6611 0 -0.332221 2.65777 -2.65777 -1.6611 -1.99332 1.6611 0 0.996662 -5.64747 1.6611 3.32221 3.32221 3.32192 0.996662 -0.332221 1.6611 -2.32554 -0.664441 -7.30857 1.99332 1.32888 3.65414 3.98665 5.31553 -3.32221 0.332221 -3.65443 -6.31219 0.996662 7.9733 -2.65777 -0.664441 -0.664441 -1.99332 -3.32221 0 -6.64441 2.65777 6.31219 2.32554 1.32888 -3.65443 7.64107 6.64441 6.31191 0.332221z"/>
  <polygon fill="black" points="256.93,447.98 257.262,439.01 252.611,437.017 254.272,439.675 254.937,447.316 "/>
  <polygon fill="black" points="238.658,484.856 243.309,479.209 241.98,479.209 233.675,482.531 "/>
  <polygon fill="black" points="243.974,517.746 244.306,514.424 238.99,513.427 "/>
  <polygon fill="black" points="226.366,521.068 230.352,522.729 230.352,518.743 226.884,519.341 "/>
  <polygon fill="black" points="252.943,457.615 252.943,453.628 248.624,453.96 "/>
  <polygon fill="black" points="238.658,512.098 238.99,507.115 240.984,507.115 240.651,504.789 237.446,504.192 237.329,508.112 229.688,507.779 "/>
  <polygon fill="black" points="241.316,527.713 240.984,523.394 237.994,523.394 238.658,527.713 "/>
  <polygon fill="black" points="256.93,476.883 253.275,479.541 249.289,480.205 253.383,477.779 "/>
  <polygon fill="black" points="248.624,466.585 243.309,470.239 248.624,473.561 248.292,470.239 251.614,469.907 "/>
  <polygon fill="black" points="231.681,527.38 235.668,529.042 235.668,525.055 232.199,525.653 "/>
  <polygon fill="black" points="244.638,492.165 244.306,487.846 241.316,487.846 241.98,492.165 "/>
  <polygon fill="black" points="221.715,528.045 218.06,530.703 214.074,531.367 218.167,528.941 "/>
  <polygon fill="black" points="231.017,532.032 230.813,529.374 228.973,529.374 229.381,532.032 "/>
  <polygon fill="black" points="252.611,494.491 252.407,491.833 250.567,491.833 250.975,494.491 "/>
  <polygon fill="black" points="255.269,469.242 252.409,471.9 249.289,472.564 252.493,470.138 "/>
  <polygon fill="black" points="195.515,449.264 199.834,440.294 196.844,440.626 193.854,447.27 "/>
  <polygon fill="black" points="185.216,458.898 181.894,459.23 180.233,464.878 182.226,464.546 "/>
  <polygon fill="black" points="191.528,452.586 191.196,450.593 186.213,455.244 188.871,455.244 "/>
  <polygon fill="black" points="175.582,472.187 179.236,463.549 174.585,465.543 172.924,469.861 "/>
  <polygon fill="black" points="167.941,478.831 172.592,470.858 168.938,470.858 165.615,472.187 "/>
  <polygon fill="black" stroke="black" stroke-width="0.216" points="165.615,476.506 161.629,483.814 159.635,482.818 154.984,487.801 153.655,486.472 149.004,490.791 147.676,488.798 143.025,496.107 142.028,491.788 139.038,488.466 137.377,491.788 139.702,494.113 138.374,499.097 134.719,496.439 134.719,499.761 133.058,499.761 132.061,496.771 133.39,494.778 131.729,494.446 132.394,492.12 134.387,487.137 139.038,484.479 140.035,486.804 149.004,485.476 149.337,481.489 150.998,481.157 150.665,476.173 156.313,477.17 152.659,480.492 154.32,484.479 157.31,480.824 159.635,480.824 160.632,475.509 "/>
  <polygon fill="black" points="158.307,477.502 162.293,472.519 160.632,464.546 155.317,462.885 155.317,466.207 158.971,466.871 159.432,470.72 156.313,473.183 "/>
  <polygon fill="black" points="129.071,492.12 127.078,489.462 126.414,484.811 131.397,481.157 132.726,482.153 129.832,485.513 130.4,488.133 132.726,489.13 131.397,491.788 "/>
  <polygon fill="black" points="146.679,483.15 146.347,478.831 143.357,478.831 144.021,483.15 "/>
  <polygon fill="black" points="122.759,491.788 122.427,487.469 119.437,487.469 120.101,491.788 "/>
  <polygon fill="black" points="127.743,481.821 127.41,477.502 124.42,477.502 125.085,481.821 "/>
  <polygon fill="black" points="169.602,462.553 169.398,459.895 167.558,459.895 167.966,462.553 "/>
  <polygon fill="black" points="185.548,454.247 185.344,451.589 183.504,451.589 183.913,454.247 "/>
  <polygon fill="black" points="149.337,474.512 149.132,471.855 147.292,471.855 147.701,474.512 "/>
  <polygon fill="black" points="118.773,485.476 118.568,482.818 116.728,482.818 117.137,485.476 "/>
  <polygon fill="black" points="175.582,460.559 175.377,457.902 173.537,457.902 173.946,460.559 "/>
  <polygon fill="black" points="172.26,466.207 172.055,463.549 170.215,463.549 170.624,466.207 "/>
  <polygon fill="black" points="138.706,482.818 138.501,480.16 136.661,480.16 137.07,482.818 "/>
  <polygon fill="black" points="136.048,474.844 135.844,472.187 134.004,472.187 134.412,474.844 "/>
  <polygon fill="black" points="152.327,462.885 152.122,460.227 150.282,460.227 150.691,462.885 "/>
  <polygon fill="black" points="179.569,461.888 179.364,459.23 177.524,459.23 177.933,461.888 "/>
  <polygon fill="black" points="143.689,473.848 143.484,471.19 141.644,471.19 142.054,473.848 "/>
  <polygon fill="black" points="121.43,479.496 121.226,476.838 119.386,476.838 119.795,479.496 "/>
  <polygon fill="black" points="152.327,474.512 152.122,471.855 150.282,471.855 150.691,474.512 "/>
  <polygon fill="black" points="153.323,467.204 153.119,464.546 151.279,464.546 151.688,467.204 "/>
  <polygon fill="black" points="132.726,480.16 132.521,477.502 130.681,477.502 131.09,480.16 "/>
  <polygon fill="black" points="131.397,474.512 131.193,471.855 129.353,471.855 129.761,474.512 "/>
  <polygon fill="black" points="125.749,485.476 125.545,482.818 123.705,482.818 124.114,485.476 "/>
  <polygon fill="black" points="165.615,471.855 169.417,469.115 168.273,465.875 165.336,468.108 165.283,467.536 "/>
  <path fill="black" d="M194.025 389.762l-6.64441 -0.664441c-7.80662,3.70942 -17.441,5.59191 -27.9063,6.64441l-1.99332 3.65443c12.6247,-1.43972 24.806,-4.65137 36.544,-9.6344z"/>
  <polygon fill="black" points="153.827,396.738 149.508,400.393 143.86,399.728 137.714,400.562 138.213,397.403 134.225,401.059 128.578,398.732 124.922,400.894 125.256,398.399 118.446,399.563 118.446,397.569 121.438,396.57 124.259,393.415 123.536,391.903 126.917,386.772 126.751,394.08 123.927,397.071 127.914,397.071 128.91,395.077 131.9,395.742 136.551,386.44 138.711,387.27 136.699,389.805 136.551,393.416 133.894,394.745 138.382,395.41 141.555,397.027 146.186,391.091 148.179,392.419 145.189,396.738 148.511,396.738 150.172,395.077 "/>
  <polygon fill="black" points="118.221,396.316 115.233,398.473 112.412,397.312 110.752,398.64 106.603,396.814 102.786,397.81 98.8028,394.49 95.8153,395.652 93.4918,393.329 89.5088,393.992 89.5088,391.337 92.994,388.682 94.8195,389.511 94.6537,391.669 96.8111,391.503 97.1431,389.179 98.8028,390.009 99.3005,392.499 102.62,394.49 104.612,390.507 107.931,390.673 107.101,393.992 110.42,395.486 112.412,393.329 112.412,391.005 116.063,387.52 116.395,391.005 122.37,389.843 122.37,391.503 117.059,392.831 113.574,395.818 115.067,396.15 117.557,394.988 "/>
  <polygon fill="black" points="99.9644,390.341 103.45,386.69 105.275,388.184 102.122,391.171 "/>
  <polygon fill="black" points="103.616,383.371 107.101,379.72 108.926,381.213 105.773,384.201 "/>
  <polygon fill="black" points="96.4792,388.516 99.9644,384.865 101.79,386.358 98.6366,389.346 "/>
  <polygon fill="black" points="96.8111,382.873 100.296,379.222 102.122,380.715 98.9686,383.703 "/>
  <polygon fill="black" points="96.1042,375.693 99.0732,372.583 100.628,373.855 97.9422,376.4 "/>
  <polygon fill="black" points="91.6232,379.842 94.5922,376.732 96.1473,378.005 93.4611,380.549 "/>
  <polygon fill="black" points="117.016,379.002 119.331,376.577 120.544,377.569 118.449,379.554 "/>
  <polygon fill="black" points="110.045,384.313 112.361,381.887 113.574,382.88 111.479,384.865 "/>
  <polygon fill="black" points="146.557,388.794 148.873,386.369 150.086,387.361 147.991,389.346 "/>
  <polygon fill="black" points="108.718,378.836 111.033,376.411 112.246,377.403 110.151,379.388 "/>
  <polygon fill="black" points="131.621,385.807 133.936,383.381 135.149,384.374 133.054,386.358 "/>
  <polygon fill="black" points="111.914,389.346 111.914,387.52 108.594,385.03 106.105,386.69 106.935,388.516 "/>
  <polygon fill="black" points="97.1431,387.354 95.8153,383.371 88.513,386.192 91.1682,387.852 "/>
  <polygon fill="black" points="85.1936,376.4 91.6663,369.762 94.3217,369.762 92.994,374.409 93.6579,375.902 88.513,375.902 86.1894,377.396 "/>
  <polygon fill="black" points="91.6663,363.953 94.9856,360.302 100.794,364.617 97.6408,364.949 94.6537,364.119 92.3301,366.442 "/>
  <polygon fill="black" points="121.872,387.52 121.872,385.528 117.557,385.197 117.723,387.022 "/>
  <polygon fill="black" points="91.3343,383.869 89.3427,380.881 86.0233,382.541 86.3553,384.035 "/>
  <polygon fill="black" points="164.193,392.831 164.027,391.171 159.712,391.503 160.21,393.495 "/>
  <polygon fill="black" points="166.848,388.018 165.52,385.694 161.869,387.686 "/>
  <polygon fill="black" points="156.392,396.316 158.384,393.66 157.056,391.005 156.226,393.66 153.239,393.329 153.405,394.988 "/>
  <polygon fill="black" points="141.953,386.026 141.953,383.869 138.8,384.865 138.966,385.86 "/>
  <polygon fill="black" points="105.607,373.081 105.441,371.255 102.786,371.255 102.786,372.915 "/>
  <polygon fill="black" points="105.275,379.222 105.773,375.238 103.948,375.57 101.458,378.89 "/>
  <polygon fill="black" points="102.454,370.26 102.288,368.434 99.6325,368.434 99.6325,370.094 "/>
  <polygon fill="black" points="110.254,372.417 110.127,370.592 108.097,370.592 108.097,372.251 "/>
  <polygon fill="black" points="131,387.354 130.873,385.528 128.842,385.528 128.842,387.188 "/>
  <polygon fill="black" points="141.29,394.159 141.163,392.333 139.132,392.333 139.132,393.992 "/>
  <polygon fill="black" points="191.364,338.642 191.364,336.484 188.21,334.825 185.721,336.152 "/>
  <polygon fill="black" points="180.576,331.837 181.738,333.995 184.559,334.161 184.725,332.501 181.572,331.007 "/>
  <polygon fill="black" points="177.921,328.186 178.087,325.863 175.099,324.369 174.103,325.033 175.763,327.854 "/>
  <polygon fill="black" points="172.776,327.854 172.61,325.033 169.622,324.701 169.622,326.028 171.282,327.688 "/>
  <polygon fill="black" points="163.316,320.386 163.98,318.394 172.444,320.883 172.444,322.211 171.282,322.875 169.125,322.377 167.797,323.041 "/>
  <polygon fill="black" points="164.975,316.734 166.303,314.245 160.494,309.1 157.673,308.436 155.184,312.253 159.001,313.415 159.665,315.573 161.49,314.079 "/>
  <polygon fill="black" points="152.362,308.602 148.047,302.627 148.047,301.466 149.541,296.819 148.213,296.487 144.396,295.491 140.745,287.525 136.263,286.529 137.093,281.218 134.77,276.073 138.255,273.916 138.421,275.741 143.732,277.733 144.894,279.89 139.251,282.712 141.906,285.201 145.89,283.043 148.545,283.707 149.541,287.525 145.392,290.014 146.719,291.176 148.545,290.844 150.039,288.852 152.528,290.678 148.213,293.499 150.536,295.491 153.69,294.661 154.686,289.848 158.503,293.167 156.511,293.665 156.345,295.823 159.333,296.321 159.001,300.636 156.511,300.47 156.345,297.98 154.686,297.98 152.196,302.129 159.499,304.121 158.005,306.61 151.532,304.453 154.188,307.772 "/>
  <polygon fill="black" points="179.248,321.215 182.568,317.896 180.908,317.896 178.419,318.394 174.602,316.901 174.602,318.228 "/>
  <polygon fill="black" points="172.942,311.921 175.763,308.768 166.967,308.602 "/>
  <polygon fill="black" points="153.69,280.056 146.554,280.388 149.541,283.542 "/>
  <polygon fill="black" points="151.532,276.903 147.549,275.741 146.885,272.92 147.217,271.094 140.911,271.426 139.749,272.588 140.745,274.58 143.068,274.248 143.234,276.571 149.043,278.231 "/>
  <polygon fill="black" points="150.205,265.119 144.396,264.954 144.835,267.229 146.719,270.098 148.379,267.277 150.205,266.945 "/>
  <polygon fill="black" points="166.635,300.802 164.975,297.815 162.652,297.815 163.648,300.138 "/>
  <polygon fill="black" points="159.001,284.537 159.167,281.052 157.341,281.052 157.341,284.205 "/>
  <polygon fill="black" points="159.076,290.512 159.167,288.611 158.171,288.611 158.171,290.331 "/>
  <polygon fill="black" points="170.286,300.802 170.452,297.316 168.627,297.316 168.627,300.47 "/>
  <polygon fill="black" points="167.465,313.913 167.631,310.428 165.805,310.428 165.805,313.581 "/>
  <polygon fill="black" points="162.818,307.274 164.146,305.117 161.822,302.793 161.656,305.117 "/>
  <polygon fill="black" points="155.017,277.567 156.843,274.745 154.852,273.086 152.362,275.243 "/>
  <polygon fill="black" points="172.444,296.819 172.444,293.831 169.622,293.499 169.789,295.325 "/>
  <polygon fill="black" points="163.316,289.018 162.209,287.027 160.66,287.027 161.324,288.576 "/>
  <polygon fill="black" points="155.017,266.613 153.911,264.622 152.362,264.622 153.026,266.171 "/>
  <polygon fill="black" points="152.86,270.43 151.754,268.439 150.205,268.439 150.868,269.988 "/>
  <polygon fill="black" points="160.439,268.439 158.526,265.617 155.847,265.617 156.995,267.812 "/>
  <polygon fill="black" points="163.98,275.575 162.873,273.584 161.324,273.584 161.988,275.133 "/>
  <polygon fill="black" points="152.347,286.861 152.528,284.96 150.536,284.96 150.536,286.68 "/>
  <polygon fill="black" points="150.205,259.643 145.392,261.966 147.383,263.294 150.868,261.468 "/>
  <polygon fill="black" points="158.744,277.235 158.835,275.334 157.839,275.334 157.839,277.054 "/>
  <polygon fill="black" points="157.915,261.634 158.005,259.733 157.009,259.733 157.009,261.453 "/>
 </g>
</svg>
