<?xml version="1.0" encoding="UTF-8" standalone="no"?>
<!-- Created with Inkscape (http://www.inkscape.org/) -->

<svg
   xmlns:dc="http://purl.org/dc/elements/1.1/"
   xmlns:cc="http://creativecommons.org/ns#"
   xmlns:rdf="http://www.w3.org/1999/02/22-rdf-syntax-ns#"
   xmlns:svg="http://www.w3.org/2000/svg"
   xmlns="http://www.w3.org/2000/svg"
   xmlns:sodipodi="http://sodipodi.sourceforge.net/DTD/sodipodi-0.dtd"
   xmlns:inkscape="http://www.inkscape.org/namespaces/inkscape"
   width="500"
   height="675"
   id="svg1901"
   sodipodi:version="0.32"
   inkscape:version="0.48.0 r9654"
   sodipodi:docname="Brändö.vaakuna.svg"
   version="1.0"
   inkscape:output_extension="org.inkscape.output.svg.inkscape">
  <defs
     id="defs1903" />
  <sodipodi:namedview
     id="base"
     pagecolor="#ffffff"
     bordercolor="#666666"
     borderopacity="1.0"
     inkscape:pageopacity="0.0"
     inkscape:pageshadow="2"
     inkscape:zoom="1"
     inkscape:cx="360"
     inkscape:cy="331.93859"
     inkscape:document-units="px"
     inkscape:current-layer="layer1"
     gridtolerance="10000"
     inkscape:window-width="1269"
     inkscape:window-height="778"
     inkscape:window-x="0"
     inkscape:window-y="0"
     width="500px"
     height="675px"
     showgrid="false"
     inkscape:window-maximized="0" />
  <metadata
     id="metadata1906">
    <rdf:RDF>
      <cc:Work
         rdf:about="">
        <dc:format>image/svg+xml</dc:format>
        <dc:type
           rdf:resource="http://purl.org/dc/dcmitype/StillImage" />
        <dc:title>Brändön vaakuna, Brändö vapen, Coat of arms of Brändö</dc:title>
        <dc:date>2007-07-24</dc:date>
        <dc:creator>
          <cc:Agent>
            <dc:title>Hippophaë, Wikipedia</dc:title>
          </cc:Agent>
        </dc:creator>
        <dc:subject>
          <rdf:Bag>
            <rdf:li>Brändö</rdf:li>
            <rdf:li>vaakuna</rdf:li>
            <rdf:li>vapen</rdf:li>
            <rdf:li>coat of arms</rdf:li>
          </rdf:Bag>
        </dc:subject>
        <cc:license
           rdf:resource="http://web.resource.org/cc/PublicDomain" />
        <dc:identifier>http://commons.wikimedia.org/wiki/Image:Brändö.vaakuna.svg</dc:identifier>
      </cc:Work>
      <cc:License
         rdf:about="http://web.resource.org/cc/PublicDomain">
        <cc:permits
           rdf:resource="http://web.resource.org/cc/Reproduction" />
        <cc:permits
           rdf:resource="http://web.resource.org/cc/Distribution" />
        <cc:permits
           rdf:resource="http://web.resource.org/cc/DerivativeWorks" />
      </cc:License>
    </rdf:RDF>
  </metadata>
  <g
     inkscape:label="Taso 1"
     inkscape:groupmode="layer"
     id="layer1"
     style="opacity:1">
    <path
       style="fill:#dfdfdf;fill-rule:evenodd;stroke:#000000;stroke-width:1px;stroke-linecap:butt;stroke-linejoin:miter;stroke-opacity:1;fill-opacity:1"
       d="M 0.5,0.5 L 499.5,0.5 L 499.5,530 C 499.5,610 450,605 370,605 C 300,605 265,610 250,674.5 C 235,610 200,605 130,605 C 50,605 0.5,610 0.5,530 L 0.5,0.5 z "
       id="path2197"
       sodipodi:nodetypes="cccscscc" />
    <path
       style="fill:#ff0000;fill-rule:evenodd;stroke:#000000;stroke-width:2;stroke-linecap:butt;stroke-linejoin:miter;stroke-opacity:1;fill-opacity:1;stroke-miterlimit:4;stroke-dasharray:none"
       d="M 268,444.2 C 275.8369,436.73406 305.72278,409.65852 311.6,409.4 C 315.64022,409.22229 354.40502,429.77941 354.8,434.4 C 355.19864,439.06351 339.78061,453.67976 333.4,459.4 L 268,444.2 z "
       id="path6113"
       sodipodi:nodetypes="csscc" />
    <path
       style="fill:none;fill-rule:evenodd;stroke:#000000;stroke-width:2;stroke-linecap:round;stroke-linejoin:miter;stroke-opacity:1;stroke-miterlimit:4;stroke-dasharray:none"
       d="M 284,442.4 C 294.23319,432.42258 301.19129,426.51574 312.2,419.2"
       id="path6115"
       sodipodi:nodetypes="cc" />
    <path
       sodipodi:nodetypes="cc"
       id="path6117"
       d="M 291.6,446.2 C 301.83319,436.22258 308.79129,430.31574 319.8,423"
       style="fill:none;fill-rule:evenodd;stroke:#000000;stroke-width:2;stroke-linecap:round;stroke-linejoin:miter;stroke-opacity:1;stroke-miterlimit:4;stroke-dasharray:none" />
    <path
       style="fill:none;fill-rule:evenodd;stroke:#000000;stroke-width:2;stroke-linecap:round;stroke-linejoin:miter;stroke-opacity:1;stroke-miterlimit:4;stroke-dasharray:none"
       d="M 299,450.8 C 309.23319,440.82258 316.19129,434.91574 327.2,427.6"
       id="path6119"
       sodipodi:nodetypes="cc" />
    <path
       sodipodi:nodetypes="cc"
       id="path6121"
       d="M 306.4,455.2 C 316.63319,445.22258 323.59129,439.31574 334.6,432"
       style="fill:none;fill-rule:evenodd;stroke:#000000;stroke-width:2;stroke-linecap:round;stroke-linejoin:miter;stroke-opacity:1;stroke-miterlimit:4;stroke-dasharray:none" />
    <path
       style="fill:none;fill-rule:evenodd;stroke:#000000;stroke-width:2;stroke-linecap:round;stroke-linejoin:miter;stroke-opacity:1;stroke-miterlimit:4;stroke-dasharray:none"
       d="M 315.6,460.2 C 325.83319,450.22258 332.79129,444.31574 343.8,437"
       id="path6123"
       sodipodi:nodetypes="cc" />
    <path
       style="fill:#ff0000;fill-rule:evenodd;stroke:#000000;stroke-width:2;stroke-linecap:butt;stroke-linejoin:miter;stroke-opacity:1;fill-opacity:1;stroke-miterlimit:4;stroke-dasharray:none"
       d="M 224.2,500.4 L 264.8,500.6 C 264.8,500.6 290.13696,527.70314 282.8,529.8 C 250.49855,539.03156 224.2,500.4 224.2,500.4 z "
       id="path6125"
       sodipodi:nodetypes="ccsc" />
    <path
       sodipodi:nodetypes="cc"
       id="path6127"
       d="M 274.9,525.1 C 264.92258,514.86681 259.01574,507.90871 251.7,496.9"
       style="fill:none;fill-rule:evenodd;stroke:#000000;stroke-width:2;stroke-linecap:round;stroke-linejoin:miter;stroke-opacity:1;stroke-miterlimit:4;stroke-dasharray:none" />
    <path
       style="fill:none;fill-rule:evenodd;stroke:#000000;stroke-width:2;stroke-linecap:round;stroke-linejoin:miter;stroke-opacity:1;stroke-miterlimit:4;stroke-dasharray:none"
       d="M 266.7,525.5 C 255.32258,517.66681 246.41574,509.90871 237.7,498.3"
       id="path6129"
       sodipodi:nodetypes="cc" />
    <path
       sodipodi:nodetypes="ccsc"
       id="path6131"
       d="M 314.6,490 L 361.6,491 C 371.74638,513.45362 394.54823,523.57841 384.4,528.4 C 358.72118,540.60042 314.6,490 314.6,490 z "
       style="fill:#ff0000;fill-rule:evenodd;stroke:#000000;stroke-width:2;stroke-linecap:butt;stroke-linejoin:miter;stroke-opacity:1;fill-opacity:1;stroke-miterlimit:4;stroke-dasharray:none" />
    <path
       style="fill:none;fill-rule:evenodd;stroke:#000000;stroke-width:2;stroke-linecap:round;stroke-linejoin:miter;stroke-opacity:1;stroke-miterlimit:4;stroke-dasharray:none"
       d="M 378.7,522.9 C 366.52258,513.46681 358.01574,504.50871 350.1,493.7"
       id="path6133"
       sodipodi:nodetypes="cc" />
    <path
       sodipodi:nodetypes="cc"
       id="path6135"
       d="M 371.3,524.7 C 359.92258,516.86681 345.61574,506.30871 335.9,495.1"
       style="fill:none;fill-rule:evenodd;stroke:#000000;stroke-width:2;stroke-linecap:round;stroke-linejoin:miter;stroke-opacity:1;stroke-miterlimit:4;stroke-dasharray:none" />
    <path
       style="fill:#ff0000;fill-rule:evenodd;stroke:#000000;stroke-width:1px;stroke-linecap:butt;stroke-linejoin:miter;stroke-opacity:1;fill-opacity:1"
       d="M 0.5,0.5 L 499.5,0.5 L 499.5,315 C 479.5,340 437,340 417,315 C 397,340 354,340 334,315 C 314,340 270,340 250,315 C 230,340 186,340 166,315 C 146,340 103,340 83,315 C 63,340 20.5,340 0.5,315 L 0.5,0.5 z "
       id="path3188"
       sodipodi:nodetypes="cccccccccc" />
    <path
       style="fill:#ff0000;fill-rule:evenodd;stroke:#000000;stroke-width:2;stroke-linecap:butt;stroke-linejoin:miter;stroke-opacity:1;fill-opacity:1;stroke-miterlimit:4;stroke-dasharray:none"
       d="M 49.5,471.5 C 76.115457,445.46073 102.59815,422.95554 181,422.5 C 243.92494,422.13439 343.38135,457.39628 382.5,457.5 C 427.47925,457.61926 461.80176,433.7842 463.625,438.25 C 472.66548,460.39358 436.37887,472.4304 436.375,483.375 C 436.37001,497.64892 462.55758,510.42086 451,523.875 C 448.47867,526.81008 408.65646,498.56904 382,497.5 C 342.53353,495.91723 282.88965,507.31616 228,507 C 217.27442,506.93822 173.42839,506.364 163.24927,503.46734 C 174.65971,497.39401 202.86188,470.92756 180.29794,455.93551 C 202.73401,470.69345 174.93449,497.55569 163,503.5 C 156.97322,506.50181 140.41099,506.12686 123.5,505.5 C 100.57624,504.65025 62.946686,496.6293 58,486.5 C 73.663417,484.5253 89.818152,482.11715 105.5,477.5 C 88.253336,471.94999 69.410915,470.38938 49.5,471.5 z "
       id="path4159"
       sodipodi:nodetypes="csssssssccssccc" />
    <path
       style="fill:none;fill-rule:evenodd;stroke:#000000;stroke-width:2;stroke-linecap:round;stroke-linejoin:miter;stroke-opacity:1;stroke-miterlimit:4;stroke-dasharray:none"
       d="M 395,465.54167 C 424.01899,463.88664 445.34652,456.46594 464.75,442.73333"
       id="path5132"
       sodipodi:nodetypes="cc" />
    <path
       sodipodi:nodetypes="cc"
       id="path5134"
       d="M 395,471.70834 C 423.39399,470.17831 444.31318,465.49928 463.71666,451.76667"
       style="fill:none;fill-rule:evenodd;stroke:#000000;stroke-width:2;stroke-linecap:round;stroke-linejoin:miter;stroke-opacity:1;stroke-miterlimit:4;stroke-dasharray:none" />
    <path
       style="fill:none;fill-rule:evenodd;stroke:#000000;stroke-width:2;stroke-linecap:round;stroke-linejoin:miter;stroke-opacity:1;stroke-miterlimit:4;stroke-dasharray:none"
       d="M 395,476.83334 C 426.51899,475.92831 435.21319,473.95761 454.11667,464.35"
       id="path5136"
       sodipodi:nodetypes="cc" />
    <path
       sodipodi:nodetypes="cc"
       id="path5138"
       d="M 395,493.16667 C 419.31066,494.86336 430.82985,501.96739 453.73333,518.45"
       style="fill:none;fill-rule:evenodd;stroke:#000000;stroke-width:2;stroke-linecap:round;stroke-linejoin:miter;stroke-opacity:1;stroke-miterlimit:4;stroke-dasharray:none" />
    <path
       style="fill:none;fill-rule:evenodd;stroke:#000000;stroke-width:2;stroke-linecap:round;stroke-linejoin:miter;stroke-opacity:1;stroke-miterlimit:4;stroke-dasharray:none"
       d="M 395,486.70833 C 422.14399,486.86336 430.30485,493.39239 451.83333,510"
       id="path5140"
       sodipodi:nodetypes="cc" />
    <path
       sodipodi:nodetypes="cc"
       id="path5142"
       d="M 395,482.5 C 417.43566,482.28003 423.58819,482.92572 437.11667,488.03333"
       style="fill:none;fill-rule:evenodd;stroke:#000000;stroke-width:2;stroke-linecap:round;stroke-linejoin:miter;stroke-opacity:1;stroke-miterlimit:4;stroke-dasharray:none" />
    <path
       sodipodi:type="arc"
       style="opacity:1;fill:#000000;fill-opacity:1;stroke:#000000;stroke-width:2;stroke-linecap:round;stroke-linejoin:bevel;stroke-miterlimit:4;stroke-dasharray:none;stroke-opacity:1"
       id="path8075"
       sodipodi:cx="121.125"
       sodipodi:cy="451.875"
       sodipodi:rx="4.875"
       sodipodi:ry="4.875"
       d="M 126 451.875 A 4.875 4.875 0 1 1  116.25,451.875 A 4.875 4.875 0 1 1  126 451.875 z" />
    <path
       style="fill:#dfdfdf;fill-rule:evenodd;stroke:#000000;stroke-width:2;stroke-linecap:butt;stroke-linejoin:round;stroke-opacity:1;fill-opacity:1;stroke-miterlimit:4;stroke-dasharray:none"
       d="M 22.65,213.75 C 34.896375,204.62561 39.29642,205.14352 66.375,189.375 C 74.465533,184.66368 88.216139,170.67332 99,170.5 C 139.13206,169.855 136.57852,224.13068 235,223.5 C 282.18545,223.20405 312.32144,237.6747 350,237.5 C 389.82267,237.31536 437.8703,223.00906 443.25,226.5 C 446.08627,228.34048 448.72055,267.93543 445.75,270.875 C 442.13634,274.45098 411.02625,267.34423 394,267 C 351.27931,266.1464 287.09017,293.76026 230.5,293.5 C 131.10446,293.04287 124.11417,214.28339 79,213 C 69.477963,212.72608 27.747349,216.89038 23.412191,214.32496 C 40.885697,209.27391 41.068827,209.5517 73.715173,200.87435 C 40.872839,208.61179 40.327479,209.46193 22.65,213.75 z "
       id="path9046"
       sodipodi:nodetypes="csssssssssccc" />
    <path
       style="fill:#000000;fill-rule:evenodd;stroke:#000000;stroke-width:2;stroke-linecap:butt;stroke-linejoin:miter;stroke-opacity:1;fill-opacity:1;stroke-miterlimit:4;stroke-dasharray:none"
       d="M 86.65,191.025 C 93.145919,192.87313 96.937096,192.33395 100.075,187.475 C 94.198288,185.89932 91.118486,185.85228 86.65,191.025 z "
       id="path10017"
       sodipodi:nodetypes="ccc" />
    <path
       style="fill:none;fill-rule:evenodd;stroke:#000000;stroke-width:2;stroke-linecap:round;stroke-linejoin:miter;stroke-opacity:1;stroke-miterlimit:4;stroke-dasharray:none"
       d="M 392,241.04167 C 413.67145,240.19168 425.2448,238.9331 445.125,235"
       id="path10019"
       sodipodi:nodetypes="cc" />
    <path
       sodipodi:nodetypes="cc"
       id="path10021"
       d="M 392,247.58333 C 413.21312,247.23335 427.20314,246.89144 446.16666,245.20834"
       style="fill:none;fill-rule:evenodd;stroke:#000000;stroke-width:2;stroke-linecap:round;stroke-linejoin:miter;stroke-opacity:1;stroke-miterlimit:4;stroke-dasharray:none" />
    <path
       style="fill:none;fill-rule:evenodd;stroke:#000000;stroke-width:2;stroke-linecap:round;stroke-linejoin:miter;stroke-opacity:1;stroke-miterlimit:4;stroke-dasharray:none"
       d="M 392,254.54166 C 414.04645,254.10834 430.45314,254.59977 446.58334,255.33333"
       id="path10023"
       sodipodi:nodetypes="cc" />
    <path
       sodipodi:nodetypes="cc"
       id="path10025"
       d="M 392,261.54166 C 414.17145,260.44168 429.66147,261.34976 446.54166,263.83333"
       style="fill:none;fill-rule:evenodd;stroke:#000000;stroke-width:2;stroke-linecap:round;stroke-linejoin:miter;stroke-opacity:1;stroke-miterlimit:4;stroke-dasharray:none" />
    <path
       style="fill:#dfdfdf;fill-rule:evenodd;stroke:#000000;stroke-width:2;stroke-linecap:butt;stroke-linejoin:miter;stroke-opacity:1;fill-opacity:1;stroke-miterlimit:4;stroke-dasharray:none"
       d="M 164.83333,225.16667 C 197.16667,184.16667 230.76839,95.772531 242.83333,91.833333 C 494.3949,9.4740756 523.16667,19.5 366,71.5 C 458,48.333333 424,70.833333 323,95 C 424,71 387,90.333333 291,116 C 386.83333,90.333333 360,113.33333 270.5,133 C 359.33333,113.33333 326.41667,130.66667 253.25,152 C 305,137 286.83333,155.66667 270.5,159.25 C 283.5,156.41667 282.66667,166.75 267.5,169 C 282.83333,166.41667 276.91667,177.08333 262.5,180 C 277,177.58333 274.75,186.66667 256.5,188.5 C 274.16667,187.08333 271.58333,198.16667 252.5,200 C 271.41667,197.75 264.58333,209.75 248.5,210.5 C 264.16667,209.58333 280.83333,220.41667 240,229.5"
       id="path11965"
       sodipodi:nodetypes="cscccccccccccc" />
  </g>
</svg>
