<?xml version="1.0" encoding="UTF-8"?>
<!DOCTYPE svg PUBLIC "-//W3C//DTD SVG 1.1//EN" "http://www.w3.org/Graphics/SVG/1.1/DTD/svg11.dtd">
<!-- Creator: CorelDRAW -->
<svg xmlns="http://www.w3.org/2000/svg" xml:space="preserve" width="500px" height="571px" style="shape-rendering:geometricPrecision; text-rendering:geometricPrecision; image-rendering:optimizeQuality; fill-rule:evenodd; clip-rule:evenodd"
viewBox="0 0 500 570"
 xmlns:xlink="http://www.w3.org/1999/xlink"
 xmlns:svg="http://www.w3.org/2000/svg"
 version="1.0">
 <defs>
  <style type="text/css">
   <![CDATA[
    .str0 {stroke:#006EC7;stroke-width:0.216}
    .str1 {stroke:#6B4A1C;stroke-width:0.708662}
    .fil1 {fill:#C0A062}
    .fil2 {fill:white}
    .fil0 {fill:#006EC7}
    .fil3 {fill:#6B4A1C}
   ]]>
  </style>
 </defs>
 <g id="Layer_x0020_1">
  <metadata id="CorelCorpID_0Corel-Layer"/>
  <path id="path1937" class="fil0 str0" d="M0.539433 0.90652l499 -0.121039 -0.0722835 336.46c-27.1179,309.798 -469.612,308.83 -498.263,0.867402l-0.665008 -337.207z"/>
  <path class="fil1 str1" d="M50.3348 372.774c-16.6484,59.4329 42.7309,111.901 99.1803,86.7691 56.4494,-25.1323 59.2203,-83.5263 100.813,-134.694 52.5708,37.2796 61.3194,129.202 122.847,138.456 61.5277,9.25371 95.7748,-34.3531 83.5552,-91.6393 -12.2196,-57.286 -107.712,-80.2015 -139.007,-114.211 40.699,-54.7461 131.697,-67.6727 140.467,-121.742 8.7704,-54.0692 -32.8414,-94.9542 -87.0514,-84.7701 -54.2101,10.184 -93.9617,104.617 -121.107,148.368 -50.9344,-42.3624 -51.5092,-111.518 -103.86,-136.646 -52.3514,-25.128 -111.61,11.3961 -101.984,73.5852 9.62646,62.1888 95.5783,89.324 142.436,125.374 -27.8283,36.506 -119.64,51.7184 -136.288,111.151z"/>
  <path class="fil2" d="M196.039 284.29c-3.27005,-7.68048 -8.02999,-16.1238 -8.02999,-24.9857 0,-35.4481 28.9324,-64.1954 64.6084,-64.1954 27.8717,0 49.4139,18.2838 58.4734,42.8633 -15.817,-33.6838 -55.6013,-44.9592 -81.7801,-33.3695 -30.5473,13.5241 -46.264,45.9255 -33.2717,79.6873z"/>
  <path class="fil3" d="M252.617 323.5c-18.1049,-0.307843 -34.0852,-9.39657 -45.868,-25.0506 32.5783,35.0479 71.6091,15.224 75.1482,13.415 25.926,-13.2548 38.4415,-44.9567 25.3151,-82.4182 22.8742,41.8315 -2.65918,94.9369 -54.5953,94.0539z"/>
  <path class="fil0" d="M253.294 289.579c-16.3695,0 -29.6445,-13.2752 -29.6445,-29.6442 0,-4.60375 1.05024,-8.96287 2.92394,-12.8509l-6.29008 -5.11455c2.9948,-4.96205 6.40772,-9.08845 10.2382,-12.3792l5.9417 5.93972c4.7812,-3.30406 10.5809,-5.23985 16.8307,-5.23985 16.369,0 29.6442,13.2752 29.6442,29.6447 0,3.85257 -0.765071,7.31254 -2.18721,10.8077l7.40835 5.22142c-0.117638,2.00211 -10.5871,15.2972 -13.5281,15.4168l-5.96693 -6.09421c-4.48186,2.72381 -9.74353,4.29251 -15.3703,4.29251z"/>
  <path class="fil2" d="M285.94 274.4l2.21953 1.56387c-0.117638,2.00211 -10.5871,15.2972 -13.5281,15.4168l-5.96693 -6.09421c-4.48186,2.72381 -9.74353,4.29251 -15.3703,4.29251 -7.16145,0 -13.731,-2.54098 -18.8552,-6.76999 11.7227,5.89408 23.1832,6.11603 34.0693,-0.131528l6.27392 6.58772c5.81046,-5.79118 9.52952,-10.7464 11.1577,-14.8652zm-11.6855 -35.426c5.36514,5.36485 8.68394,12.776 8.68394,20.9608 0,3.85257 -0.765071,7.31254 -2.18721,10.8077l-2.20451 -1.24016c5.4978,-8.95182 2.75953,-20.7513 -4.29222,-30.5283z"/>
  <path class="fil3" d="M321.713 267.224l2.46217 5.54003c-4.61424,13.6471 -12.1042,26.265 -20.0055,34.471 7.97953,-11.8225 15.3164,-25.7233 17.5433,-40.011z"/>
  <path class="fil3" d="M328.176 271.84l2.15462 3.38542c-4.61424,14.4164 -10.8731,24.3669 -18.7747,31.7013 7.36413,-12.4384 14.3932,-20.7992 16.6201,-35.0867z"/>
  <path class="fil3" d="M334.332 277.536l2.15433 1.99899c-4.61424,14.3651 -10.8729,22.5717 -18.7744,29.8545 7.36441,-11.5665 13.9774,-18.1831 16.6201,-31.8535z"/>
  <path class="fil3" d="M340.795 280.444l2.15433 1.86038c-5.5372,13.8725 -9.33364,21.0736 -17.2355,27.6999 7.36441,-10.643 11.6538,-15.8899 15.0812,-29.5603z"/>
  <path class="fil3" d="M346.781 284.445l2.01572 1.86038c-2.82898,9.03402 -7.5481,17.312 -14.7733,23.3909 6.77566,-9.52498 11.23,-16.0637 12.7576,-25.2513z"/>
  <path class="fil3" d="M353.414 288.46l1.84677 1.53893c-2.57953,6.98967 -5.94766,14.1747 -14.1576,20.929 6.13304,-7.67424 9.77726,-12.8591 12.3109,-22.468z"/>
  <path class="fil3" d="M358.954 291.785l1.73849 0.7543c-2.46983,6.23537 -4.88977,12.7828 -11.895,18.0811 5.34643,-7.17761 8.41493,-12.0093 10.1565,-18.8354z"/>
  <path class="fil3" d="M365.864 294.863l1.70787 0.0606614c-3.28734,6.97862 -6.92363,14.167 -12.1725,17.3744 5.61118,-7.16032 8.63944,-12.4095 10.4647,-17.4351z"/>
  <path class="fil3" d="M371.127 297.913l1.43688 0.0513071c-2.76577,5.8714 -5.8252,11.9191 -10.2413,14.6177 4.72082,-6.02448 7.2686,-10.4409 8.80441,-14.669z"/>
  <path class="fil3" d="M375.946 300.964l1.63361 0.0583937c-3.14419,6.67389 -6.62145,13.5485 -11.6413,16.6159 5.36627,-6.84794 8.26215,-11.8678 10.0077,-16.6742z"/>
  <path class="fil3" d="M381.25 304.015l1.02104 0.328819c-1.18347,4.89005 -3.75704,8.51074 -5.94255,8.93226 2.64076,-3.38995 3.94044,-5.86488 4.92151,-9.26108z"/>
  <path class="fil3" d="M387.498 306.788l0.735024 0.236693c-0.852095,3.52063 -2.70482,6.12766 -4.27833,6.43096 1.9012,-2.44063 2.83691,-4.22249 3.54331,-6.66766z"/>
  <path class="fil3" d="M245.641 327.956l-5.59361 2.33745c-13.9178,-3.97503 -31.127,-18.889 -38.6986,-28.1115 11.4194,9.79314 29.8636,24.5914 44.2922,25.774z"/>
  <path class="fil3" d="M239.006 333.534l-1.55906 2.85846c-14.3096,-4.44671 -29.5821,-17.8347 -36.7376,-26.6624 12.4906,10.2688 23.4491,20.031 38.2966,23.8039z"/>
  <path class="fil3" d="M234.736 339.56l-1.73424 2.88992c-14.2583,-4.93484 -26.5388,-16.6847 -33.0177,-25.2156 10.6177,9.65141 21.1445,19.3774 34.7519,22.3257z"/>
  <path class="fil3" d="M231.527 345.488l-1.43943 2.73685c-13.7449,-5.84674 -24.607,-13.8634 -30.742,-22.3801 8.91383,8.06967 18.5916,15.9106 32.1815,19.6433z"/>
  <path class="fil3" d="M227.549 350.759l-1.28041 2.12995c-9.12445,-2.56224 -22.4476,-12.9308 -28.3629,-20.2904 9.37078,6.98741 20.4925,16.4273 29.6433,18.1605z"/>
  <path class="fil3" d="M224.168 356.832l-1.42384 1.49924c-6.92986,-2.73515 -17.7854,-8.60571 -24.3539,-16.9651 7.53478,6.30369 16.2281,12.7174 25.7777,15.4658z"/>
  <path class="fil3" d="M221.032 362.452l-0.793134 1.72091c-6.39298,-2.60873 -17.8682,-10.3275 -22.8067,-17.4498 7.05629,5.89663 16.8146,14.2776 23.5999,15.7289z"/>
  <path class="fil3" d="M215.614 373.195l-0.0992126 1.70617c-6.90322,-3.44296 -17.1309,-9.4252 -20.2198,-14.7447 7.03276,5.77021 15.3354,11.1013 20.319,13.0385z"/>
  <path class="fil3" d="M213.071 377.763l-0.0836221 1.43547c-5.80791,-2.89673 -16.1578,-9.05726 -18.7566,-13.5329 5.91704,4.85462 14.6472,10.4675 18.8402,12.0974z"/>
  <path class="fil3" d="M210.694 382.513l-0.0946772 1.63191c-6.60189,-3.29273 -12.6159,-6.92334 -15.5701,-12.0107 6.72577,5.51821 10.8989,8.52605 15.6648,10.3788z"/>
  <path class="fil3" d="M206.9 387.435l-0.351496 1.01339c-4.86227,-1.2926 -9.51761,-5.66391 -9.8898,-7.85849 3.32986,2.71588 6.86778,5.78835 10.2413,6.84511z"/>
  <path class="fil3" d="M205.081 392.37l-0.409323 1.19821c-3.50079,-0.930615 -8.87613,-5.33962 -9.14429,-6.91966 2.39754,1.95534 7.1246,4.96063 9.55361,5.72145z"/>
  <path class="fil3" d="M218.533 367.605l-0.792851 1.7212c-6.39298,-2.60901 -15.8386,-8.29786 -20.7771,-15.4202 7.05629,5.89663 14.785,12.2479 21.57,13.699z"/>
  <path class="fil3" d="M202.895 397.992l-0.409323 1.19821c-3.50079,-0.930615 -6.22177,-3.93449 -6.48964,-5.51452 2.39726,1.95562 4.47024,3.5555 6.89896,4.31632z"/>
  <path class="fil3" d="M184.838 253.676l-2.7428 -1.14208c0.98504,-15.1209 10.1812,-33.4925 21.6899,-40.1791 -10.1554,10.9766 -19.0364,26.1332 -18.9471,41.3212z"/>
  <path class="fil3" d="M178.094 248.591l-2.06107 -0.297638c1.19197,-13.5102 7.58948,-26.5819 19.0553,-34.5084 -9.09043,10.1112 -15.7884,18.6046 -16.9943,34.8061z"/>
  <path class="fil3" d="M171.096 243.925l-1.8737 -0.689103c2.97128,-14.9825 10.0908,-25.2851 19.336,-32.1937 -7.3647,8.89909 -14.8198,17.138 -17.4623,32.8828z"/>
  <path class="fil3" d="M165.101 239.706l-2.52879 -0.363118c2.17304,-10.7135 9.17263,-22.2336 19.1069,-29.6649 -8.33131,10.2643 -14.1469,15.5962 -16.5782,30.028z"/>
  <path class="fil3" d="M158.646 237.764l-2.10926 -0.550205c1.09531,-9.40819 8.43959,-22.3325 17.674,-27.7889 -7.5977,8.75254 -13.8611,17.331 -15.5648,28.3391z"/>
  <path class="fil3" d="M151.92 233.375l-1.84649 -0.603213c0.535181,-8.11389 7.05175,-17.6896 16.4035,-24.1104 -6.67474,7.67452 -12.9886,15.1053 -14.557,24.7136z"/>
  <path class="fil3" d="M144.135 230.144l-1.73849 -0.754016c0.408756,-7.09484 8.88548,-18.5346 18.0709,-22.947 -6.40007,5.18003 -15.5341,15.1311 -16.3324,23.7011z"/>
  <path class="fil3" d="M137.225 226.411l-1.70816 -0.0609449c1.83515,-7.64476 8.81462,-16.4302 15.3539,-19.0585 -6.535,5.00457 -12.3982,12.7466 -13.6457,19.1194z"/>
  <path class="fil3" d="M131.681 223.267l-1.43745 -0.0513071c1.78866,-5.9726 8.05182,-12.9399 13.2358,-15.7408 -5.15254,5.88076 -10.5809,11.4579 -11.7984,15.7921z"/>
  <path class="fil3" d="M125.271 220.122l-1.63332 -0.0581103c2.71389,-4.92492 4.49887,-7.33578 9.9567,-11.5631 -4.80388,4.65733 -6.20249,7.47865 -8.32337,11.6212z"/>
  <path class="fil3" d="M119.874 217.072l-1.02132 -0.328536c1.75266,-5.1429 5.0726,-7.27682 8.56262,-8.65191 -4.41836,3.88205 -6.55994,6.3737 -7.5413,8.98045z"/>
  <path class="fil3" d="M114.315 213.984l-1.2634 -0.536882c1.36517,-4.00621 4.41921,-5.38753 7.13792,-6.45874 -3.44183,3.024 -5.1103,4.96488 -5.87452,6.99563z"/>
  <path class="fil3" d="M260.978 189.246l0.338173 -1.85811c9.94763,2.06844 19.9738,4.40249 29.5143,14.2637 -11.3516,-7.56 -15.7913,-9.85408 -29.8525,-12.4055z"/>
  <path class="fil3" d="M265.048 184.795l0.361134 -1.77761c6.2674,1.28098 16.8392,4.82003 22.7364,11.164 -10.4029,-6.25068 -12.7896,-7.21815 -23.0976,-9.38637z"/>
  <path class="fil3" d="M257.607 193.797l0.338173 -1.85811c9.94763,2.06816 19.9738,3.22271 29.5143,13.0842 -11.3516,-7.56029 -15.7913,-8.67459 -29.8525,-11.2261z"/>
  <path class="fil3" d="M267.408 180.076l0.361134 -1.77761c6.2674,1.28098 16.8392,6.0001 22.7364,12.344 -10.4029,-6.25068 -12.7896,-8.39821 -23.0976,-10.5664z"/>
  <path class="fil3" d="M269.767 175.56l0.299622 -1.47515c5.20073,1.06271 14.1421,4.84243 19.0358,10.1067 -8.63263,-5.18684 -10.7819,-5.98961 -19.3354,-8.6315z"/>
  <path class="fil3" d="M273.307 171.581l0.278646 -1.37225c4.83818,0.988725 13.1559,4.50482 17.7083,9.40196 -8.03056,-4.82514 -10.0295,-5.57207 -17.987,-8.0297z"/>
  <path class="fil3" d="M275.329 166.693l0.260504 -1.37225c4.5207,0.988725 12.293,4.50482 16.5467,9.40196 -7.50388,-4.82514 -9.37191,-5.57207 -16.8072,-8.0297z"/>
  <path class="fil3" d="M276.509 162.479l0.260504 -1.37225c4.5207,0.989008 12.293,3.99912 16.5467,8.89654 -7.50388,-4.82514 -9.37191,-5.06636 -16.8072,-7.52429z"/>
  <path class="fil3" d="M279.206 157.631l0.235843 -1.24328c4.09578,0.895748 11.1376,3.62325 14.9913,8.06004 -6.79833,-4.37159 -8.4909,-4.59014 -15.2272,-6.81676z"/>
  <path class="fil3" d="M281.06 153.275l0.240945 -1.26907c4.18139,0.914457 11.3703,3.69893 15.3048,8.22841 -6.94063,-4.46287 -8.66835,-4.68596 -15.5458,-6.95934z"/>
  <path class="fil3" d="M283.419 149.19l0.201543 -1.06129c3.49625,0.764788 9.50712,3.09288 12.797,6.88026 -5.80337,-3.73181 -7.24819,-3.91833 -12.9986,-5.81896z"/>
  <path class="fil3" d="M286.79 144.444l-0.036 -1.03436c2.2972,0.502299 6.24643,2.03188 8.40813,4.52041 -3.81317,-2.45169 -4.59383,-2.23739 -8.37213,-3.48605z"/>
  <path class="fil3" d="M290.984 140.157l0.321166 -1.12904c1.00998,0.221102 2.91515,2.74762 3.86561,3.8418 -1.67669,-1.07802 -2.52539,-2.16369 -4.18677,-2.71276z"/>
  <path class="fil2" d="M319.547 239.337l1.74161 -3.0464c-5.89975,-13.2171 -17.9932,-24.5685 -28.192,-30.7624 11.1339,10.5279 22.8178,21.1796 26.4504,33.8088z"/>
  <path class="fil2" d="M323.589 233.936l1.63361 -1.51313c-7.05374,-13.2222 -18.7744,-23.1421 -28.0001,-29.2428 11.7561,11.5209 20.1104,18.0768 26.3665,30.7559z"/>
  <path class="fil2" d="M327.108 229.617l1.74841 -1.14832c-6.89783,-13.4189 -17.7676,-22.2902 -26.3682,-28.0429 10.8811,9.75374 19.3555,17.6236 24.6198,29.1912z"/>
  <path class="fil2" d="M333.066 227.014l0.227622 -4.41581c-7.32133,-10.5494 -15.3848,-18.8929 -24.7589,-24.2371 9.07456,8.29049 18.4924,17.2131 24.5313,28.6529z"/>
  <path class="fil2" d="M338.591 222.983l-0.133795 -2.97865c-5.28378,-8.24741 -15.7757,-18.1457 -23.4397,-23.2622 9.45837,8.88492 20.1036,19.2742 23.5735,26.2409z"/>
  <path class="fil2" d="M347.164 215.414l0.63241 -2.27197c-3.3874,-5.57915 -10.4236,-13.273 -19.9074,-19.4369 8.08215,7.33295 15.5684,14.2622 19.275,21.7089z"/>
  <path class="fil2" d="M351.96 212.385l2.02621 -0.0513071c-1.96781,-4.97934 -9.79966,-14.5681 -19.5177,-20.6583 7.34032,6.75808 15.7329,15.6852 17.4915,20.7096z"/>
  <path class="fil2" d="M362.156 206.373l1.67528 -0.339024c-2.01713,-3.89509 -9.33478,-14.0324 -17.017,-18.8042 7.47468,6.75241 13.6715,15.9713 15.3417,19.1432z"/>
  <path class="fil2" d="M367.079 204.187l1.40939 -0.285165c-0.96463,-4.25084 -10.0468,-16.342 -16.4787,-18.9374 6.76347,5.65966 14.3308,16.6178 15.0693,19.2226z"/>
  <path class="fil2" d="M380.774 193.566l1.27928 0.485859c-0.962363,-4.12923 -9.25626,-12.4878 -12.2142,-12.9135 4.07169,3.78907 10.2172,11.0327 10.9349,12.4277z"/>
  <path class="fil2" d="M389.094 187.922l1.34504 1.37906c-0.755433,-3.66917 -7.45172,-10.9911 -9.55134,-10.789 2.53588,2.70255 7.11865,8.60032 8.2063,9.40989z"/>
  <path class="fil2" d="M358.336 210.921l0.181417 -3.63232c-2.29493,-4.6046 -11.4863,-14.0803 -19.8261,-18.9352 7.81852,6.7578 17.9839,17.5428 19.6447,22.5675z"/>
  <path class="fil2" d="M392.179 183.554l1.45389 1.92161c-0.648567,-3.52573 -4.69673,-8.20007 -6.70082,-8.14224 2.68044,2.55742 4.30498,5.26677 5.24693,6.22063z"/>
  <path class="fil2" d="M342.606 219.728l-0.242079 -4.932c-6.95707,-9.29254 -14.8544,-15.1143 -21.812,-19.7895 10.1378,8.88492 19.6452,17.7548 22.0541,24.7215z"/>
  <path class="fil2" d="M371.637 201.475l1.40939 -0.285165c-0.0966615,-4.03399 -8.85317,-15.0401 -15.285,-17.6355 6.76347,5.65966 13.1372,15.3159 13.8756,17.9206z"/>
  <path class="fil2" d="M385.187 190.526l1.45389 1.16192c-0.755433,-3.66888 -7.01774,-11.2079 -9.11736,-11.0058 2.53588,2.70255 6.5761,9.0343 7.66347,9.84388z"/>
  <path class="fil2" d="M376.434 197.581l1.27928 0.485575c-1.21465,-5.13355 -11.7139,-16.2411 -14.6016,-16.3857 4.25679,3.69723 13.0099,14.3022 13.3223,15.9001z"/>
  <path class="fil3" d="M320.174 238.908l0 7.38681c48.3299,-56.4526 156.232,-65.1345 132.345,-150.811 12.568,69.7706 -43.7097,83.6215 -96.3346,119.11l-0.10148 -1.09587 -2.35729 0.416126 -0.138614 2.08006 -2.49619 1.94117 -0.693071 -2.63452 -1.94145 0.970583 0.277228 2.6348 -2.49591 2.08006 -0.831969 -2.91203 -1.66422 0.554457 0.138614 3.74429 -3.60539 2.49591 -0.138614 -3.32788 -1.80255 2.21868 0.138614 2.63452 -3.60539 3.18954 -0.693355 -4.85348 -0.970867 2.21868 -1.80255 -1.38671 1.38671 4.9921 -3.32816 3.32816 -0.831969 -3.744 -2.21868 -1.10948 1.1092 7.488 -2.21868 1.66422 -0.554457 -4.43736 -2.21896 -0.416126 0.277512 7.488 -2.628 -1.90743z"/>
  <path class="fil2" d="M186.623 261.623c-27.8283,36.506 -119.64,51.7184 -136.288,111.151 -7.28363,26.0019 -0.0150236,50.671 15.1934,68.0913 -22.2446,-36.6954 -20.6297,-70.261 7.19178,-100.39l1.56926 0.676347 1.20076 -0.676347 -0.923528 -1.23109 0.923528 -0.923528 2.42164 -0.297638 -0.55474 -1.80255 1.66394 -1.38671 1.38671 1.38671 0.138614 -2.49619 1.52532 -1.38671 1.66422 0.831969 0.831969 -0.138614 -0.693355 -1.80255 3.18926 -1.94145 0.55474 1.10948 1.66422 0.693355 -0.277512 -2.6348 3.18954 -2.91203 0.415843 1.66394 1.52532 1.10948 -0.138614 -3.60539 2.49619 -1.66422 1.24781 2.08006 1.2481 0.138614 -0.55474 -3.46649 3.60539 -1.66422 0.970867 1.38671 1.38671 0.416126 -0.693355 -2.6348 3.88262 -2.6348 1.10948 2.08006 1.80255 0.277512 -0.970583 -3.46677 2.6348 -0.970867 1.38671 1.80284 1.66394 0.693355 -0.831969 -3.744 3.60539 -2.08006 1.1092 2.91203 1.38671 0 -0.55474 -3.8829 2.49619 -0.693071 1.52532 2.07978 1.94145 -0.138614 -1.52532 -3.32788 3.46677 -1.52561 1.66394 2.77342 2.08006 0.693355 -1.38671 -4.8532 3.32816 -1.94145 1.1092 3.60539 1.94145 0.277228 -1.10948 -4.85348 3.05093 -1.24781 0.831969 2.63452 1.94117 1.10948 -0.970583 -5.54684 3.60539 -1.52532 1.38671 3.05065 2.6348 0 -1.52532 -4.43736 2.91203 -1.94145 2.63452 4.16013 1.52561 -0.55474 -2.08006 -4.8532 3.32788 -1.80284 1.66422 3.60539 2.08006 -0.277228 -1.94145 -3.8829 3.05065 -2.35729 1.52532 3.88262 1.80284 -0.415843 -0.831969 -5.26933 3.18926 -2.21896c0.423213,2.70454 1.35638,3.60369 3.60539,4.02151l-2.21868 -5.54684 3.32816 -1.94117c-0.0816378,1.15569 0.958678,3.69808 3.744,3.88262 -0.55474,-1.94145 -1.52532,-3.88262 -1.66394,-5.82407l2.63452 -1.94145c0.693355,2.54239 2.12627,4.53005 4.29874,5.96296 -1.1092,-2.81991 -2.31165,-5.77786 -1.38671,-8.45887l2.6348 -2.77342c-0.231591,3.65216 0.738426,6.56476 3.46677,8.7361 -1.01707,-3.28195 -1.47912,-6.56363 -1.38671,-9.84558l2.21868 -2.21868c0.64715,2.77342 1.43291,4.43736 3.18954,6.24019 -0.890079,-4.33333 -0.728504,-8.51613 0.970583,-12.4804l-0.277512 -2.91203 -1.80765 2.22548zm186.552 201.682c-52.8755,-7.95204 -66.7721,-76.9576 -103,-119.868 33.8389,24.0262 43.6476,99.3779 103,119.868zm64.1413 -125.812c-32.7807,-34.0668 -95.3887,-53.7347 -119.593,-80.0388l-0.93515 1.15172c23.4153,25.6513 73.6061,39.441 120.528,78.8871zm-187.285 -138.183c27.1457,-43.7508 66.8974,-138.184 121.107,-148.368 35.6933,-6.70536 65.9254,8.72901 79.9098,35.4895l-4.3784 -3.8744c-25.888,-29.4948 -52.1567,-33.3848 -78.2156,-27.9034 -36.3254,7.64079 -68.1883,61.8055 -106.663,131.172l-11.7604 13.4844zm-177.981 -13.6868c-73.4347,-94.7328 33.2042,-175.381 107.539,-93.9189 -8.66013,-12.0067 -19.1038,-22.1698 -33.4185,-29.0404 -52.3511,-25.128 -111.442,11.4194 -101.984,73.5852 2.63339,17.3095 11.4438,33.7833 27.8632,49.3742z"/>
 </g>
</svg>
