<?xml version="1.0" encoding="UTF-8"?>
<!DOCTYPE svg PUBLIC "-//W3C//DTD SVG 1.1//EN" "http://www.w3.org/Graphics/SVG/1.1/DTD/svg11.dtd">
<!-- Creator: CorelDRAW -->
<svg xmlns="http://www.w3.org/2000/svg" xml:space="preserve" width="500px" height="578px" shape-rendering="geometricPrecision" text-rendering="geometricPrecision" image-rendering="optimizeQuality" fill-rule="evenodd" clip-rule="evenodd"
viewBox="0 0 500 578"
 xmlns:xlink="http://www.w3.org/1999/xlink"
 xmlns:svg="http://www.w3.org/2000/svg"
 version="1.0">
 <g id="Layer_x0020_1">
  <metadata id="CorelCorpID_0Corel-Layer"/>
  <path id="path1937" fill="#0057F0" stroke="#0057F0" stroke-width="0.992126" d="M0.688819 0.714615l498.87 0 -0.182268 339.851c-34.3179,316.218 -464.275,313.187 -498.722,0l0.0342992 -339.851z"/>
  <path fill="#CCCCCC" d="M342.851 382.902c18.0967,-0.549071 28.7377,-5.74753 31.875,-8.49969 16.7253,18.169 29.2462,59.302 40.4734,71.9728 6.62259,4.09011 -1.59137,-6.73257 3.00246,-10.328 2.66939,1.86095 13.4481,15.5656 15.7941,15.0747 1.12762,-3.43758 -0.208347,-9.53292 0.91956,-14.0111 2.33688,1.00573 6.732,5.81613 10.063,5.5046 4.11392,-4.23723 -0.0107717,-12.1612 1.8805,-18.18 0.723402,0.508252 8.32706,8.40841 10.5503,7.41742 -37.7164,-182.35 -133.066,-242.219 -217.709,-257.333 -47.2751,-8.44158 -60.2518,-2.79695 -77.4196,-21.1173 -14.6512,-15.6348 -14.478,-42.592 -21.5119,-68.5109 -5.55279,-20.4616 -23.5488,-47.0699 -50.2787,-48.7284 -17.7143,-1.09899 -27.9972,-0.752882 -35.2066,13.9604 -16.0183,3.5263 -25.7567,9.235 -27.1128,20.5228 13.1984,-10.4318 15.7504,-2.4514 25.0404,7.84007 24.6458,27.3019 -1.80737,102.308 11.6359,153.925 22.4138,86.0613 81.548,127.63 122.301,143.11 -0.407339,21.7848 -10.1466,34.0804 -15.2056,38.9988 -11.5265,11.2065 -28.3845,-2.57188 -36.9958,1.14123 -3.96879,1.71128 -6.20816,11.761 -9.64857,17.7508 -4.45833,7.76155 -4.29392,16.295 2.38054,24.7014 1.33398,-8.00816 4.01669,-14.9377 9.6636,-19.4944 1.59817,3.74995 2.98091,6.09846 5.44111,6.39922 -2.31506,12.9884 -0.425764,23.1735 7.60819,29.2623 -0.48926,-8.61166 0.639213,-14.3116 5.64945,-18.3929 4.73471,0.153638 6.55852,2.89474 9.99922,4.66555 0.00878741,10.3221 4.32992,17.1944 12.9634,20.6175 -0.793418,-10.4774 -0.293103,-16.6422 1.50038,-18.4938 3.64366,-2.75046 2.70794,2.09254 8.10511,0.499181 15.1886,-17.1323 39.4251,-8.93056 41.866,-38.2201l1.73452 1.43263c3.90614,-2.65578 6.51827,-8.76189 7.8361,-18.3175l2.20592 3.51723c6.60331,-5.89975 3.18019,-20.5319 7.19604,-21.5799 8.56687,0.277795 17.4943,2.8715 26.102,2.15745 16.6144,31.9456 -6.54718,44.322 -25.4044,46.1259 -14.3002,1.368 -17.051,3.68561 -16.8999,11.5824 -7.73377,11.7017 -7.05884,27.932 0.0844725,31.2253 0.80504,-12.049 4.19726,-18.4915 10.1767,-19.3269l6.67078 4.88438c-3.14306,9.69903 -2.02734,20.3678 4.96545,26.1851 0.41074,-8.52917 2.54636,-14.04 6.40659,-16.5314l10.4576 1.67102c1.6132,11.5892 7.53874,18.8663 17.7766,21.831 -1.84791,-8.1241 -4.34268,-17.8654 2.21839,-21.4614 2.57698,-0.868819 6.80315,-1.35014 15.2921,-11.255 11.1268,-12.983 26.7123,-6.37512 24.4882,-37.9624l4.04589 -1.39295c1.92217,-11.3598 -0.683717,-11.7227 -1.02558,-17.5839l-0.111685 -2.8338 2.43128 -0.162142c2.21868,-2.86866 3.08948,-8.16378 0.993827,-18.796l1.1401 -2.70822 2.46019 0.799087 1.13528 -3.5538z"/>
  <path fill="#4C4C4C" d="M402.057 290.67c-24.7439,5.41361 -101.644,-10.4868 -125.637,-26.3452l-4.62728 5.06041c60.2581,21.8914 113.578,31.7568 130.265,21.2848z"/>
  <path fill="#4C4C4C" d="M394.805 282.185c-32.5182,-1.07915 -77.0225,-15.067 -108.159,-31.1947l-2.98942 1.9389c26.2928,14.8751 81.7804,33.8335 111.149,29.2558z"/>
  <path fill="#4C4C4C" d="M418.294 437.21c-7.89704,-28.0573 -22.6681,-68.1735 -41.012,-92.8973l0.79115 -3.2641c18.3013,24.4412 40.1335,76.5511 40.2208,96.1614z"/>
  <path fill="#4C4C4C" d="M434.29 437.865c-4.17969,-30.2114 -32.6855,-88.0827 -44.0841,-103.145l1.58655 -1.7898c11.0676,14.5579 42.965,76.4655 42.4976,104.935z"/>
  <path fill="#4C4C4C" d="M445.594 426.845c-5.85695,-25.088 -20.1906,-75.083 -43.5393,-109.17l0.971434 -2.31194c12.4841,13.4215 39.8024,78.9492 42.5679,111.482z"/>
  <path fill="#4C4C4C" d="M221.861 388.213l3.33354 -0.544536c1.14236,7.36158 3.81033,16.0016 7.96026,17.422 -7.61159,-3.83811 -9.11849,-9.37276 -11.2938,-16.8775z"/>
  <path fill="white" d="M150.713 272.514c-1.16391,6.24218 -4.1006,7.69238 -8.30296,7.37887 -9.04876,-0.674929 -10.9457,-5.12504 -14.0102,-6.89386 2.69745,11.293 25.9211,13.6667 22.3132,-0.485008z"/>
  <path fill="white" d="M91.4865 203.911c-1.88504,1.4743 -1.76825,5.13383 -5.79969,5.37591 -5.09698,0.305858 -5.48221,-2.56422 -7.7692,-4.30328 0.0473386,7.78111 13.3333,9.1423 13.5689,-1.07263z"/>
  <path fill="white" d="M82.9843 175.275c-1.35354,1.87625 -2.57358,5.80025 -5.18429,5.86715 -4.05723,0.103465 -4.64684,-5.51452 -6.28413,-8.0263 0.0873071,11.5787 10.7306,14.0247 11.4684,2.15915z"/>
  <path fill="white" d="M87.7533 190.14c-1.54488,1.78243 -1.72715,4.43991 -5.49922,4.01329 -5.05701,-0.572032 -5.82095,-5.71096 -8.06967,-8.31742 -0.0739843,9.74382 13.316,13.9411 13.5689,4.30413z"/>
  <path fill="white" d="M73.0945 169.403c-4.91131,1.36375 -4.64882,1.33115 -8.01752,-4.14284 0.754867,8.29673 5.42353,7.80945 8.01752,4.14284z"/>
  <path fill="white" d="M76.8838 228.269c-6.42019,1.79206 -5.99698,2.24107 -9.79484,-5.60268 0.31663,8.07704 5.41503,11.3604 9.79484,5.60268z"/>
  <path fill="white" d="M78.677 131.652c-5.18542,3.56995 -8.07761,1.97093 -10.0406,-5.81471 -1.80595,10.5508 5.38328,13.1216 10.0406,5.81471z"/>
  <path fill="white" d="M86.0851 149.015c-4.968,4.09833 -9.69393,1.64126 -10.0406,-8.72589 -5.23304,6.78615 5.95503,19.8128 10.0406,8.72589z"/>
  <path fill="white" d="M103.094 231.27c-1.75295,2.36891 -1.38416,6.52564 -4.59128,6.99478 -3.4784,0.509103 -5.95304,-2.96561 -8.4121,-5.84448 1.29969,10.1169 14.2322,11.0197 13.0034,-1.1503z"/>
  <path fill="#4C4C4C" d="M119.446 104.919c-3.64337,-0.00907087 -4.90536,4.3784 -9.54057,-7.89846 -0.297921,8.12041 5.91959,14.5423 9.54057,7.89846z"/>
  <path fill="#4C4C4C" d="M128.675 90.7087c-3.41717,8.44186 -9.07342,8.56063 -12.8543,-2.93103 0.190772,14.902 12.1844,15.52 12.8543,2.93103z"/>
  <path fill="#4C4C4C" d="M133.093 104.123c-0.746646,3.38117 -8.43534,4.74378 -10.2668,-2.60759 -1.48167,7.94637 9.75686,12.1212 10.2668,2.60759z"/>
  <path fill="#4C4C4C" d="M129.86 94.04c2.87632,4.7503 5.23786,5.45301 9.19956,3.5915 -2.56082,4.75767 -9.35462,3.9223 -9.19956,-3.5915z"/>
  <path fill="#4C4C4C" d="M191.514 360.402c6.66936,9.76763 -9.15478,15.1858 -22.0513,3.32844 15.9832,5.7138 22.3138,7.81824 22.0513,-3.32844z"/>
  <path fill="#4C4C4C" d="M132.88 83.9163c-3.12832,6.29547 -13.6174,3.7491 -12.8546,-6.48851 0.783213,8.32366 8.46454,8.40161 12.8546,6.48851z"/>
  <path fill="#4C4C4C" d="M128.889 112.209c-0.423213,8.24599 -5.84816,9.92637 -11.884,-0.0204095 0.142016,9.89462 14.4034,13.7514 11.884,0.0204095z"/>
  <path fill="#4C4C4C" d="M141.826 110.269c-0.422929,8.24599 -4.87758,12.1904 -10.9134,2.24362 0.142016,9.89462 13.4331,11.4877 10.9134,-2.24362z"/>
  <path fill="#4C4C4C" d="M138.915 123.206c-0.422929,8.24599 -6.81846,10.2498 -12.8543,0.303024 0.142016,9.89462 15.3737,13.428 12.8543,-0.303024z"/>
  <path fill="#4C4C4C" d="M140.21 129.618c2.87603,5.18173 3.29754,5.88444 7.25868,3.5915 -2.56082,4.75796 -7.41402,3.9223 -7.25868,-3.5915z"/>
  <path fill="#4C4C4C" d="M135.358 136.466c-0.422929,8.24627 -5.20129,8.63292 -11.2371,-1.31386 0.142016,9.89462 13.7565,15.0452 11.2371,1.31386z"/>
  <path fill="#4C4C4C" d="M145.707 152.962c-0.422929,8.24627 -6.17159,7.98577 -12.2074,-1.96101 0.142016,9.89462 14.7268,15.6923 12.2074,1.96101z"/>
  <path fill="#4C4C4C" d="M138.336 141.965c-0.870804,9.86344 13.6103,11.8678 8.32593,-3.57789 2.23002,10.3263 -5.88643,12.8889 -8.32593,3.57789z"/>
  <path fill="#F00000" d="M82.1382 50.2679c4.67717,0.323433 9.703,2.89644 9.703,6.46838 0,3.57194 -3.08523,0.000283465 -9.37956,1.29402 -6.29433,1.29373 -8.7327,1.30762 -8.7327,-1.29402 0,-2.60164 3.7321,-6.79181 8.40926,-6.46838z"/>
  <ellipse fill="black" cx="83.5936" cy="61.9115" rx="7.27725" ry="5.8218"/>
  <path fill="white" d="M85.0491 66.1162c-1.40145,-3.50391 -2.80347,-1.1863 -3.55805,-2.42589 -0.7543,-1.23959 -0.215433,-3.77348 -0.970016,-5.01307 -3.98948,3.66548 -2.47975,8.40898 4.52807,7.43896z"/>
  <path fill="white" d="M78.0305 151.382c-5.18542,3.56967 -9.04819,0.35348 -11.0112,-7.43216 -1.1588,11.1977 6.35386,14.7387 11.0112,7.43216z"/>
  <path fill="white" d="M83.5288 163.995c-5.18542,3.56995 -9.37163,-0.293103 -11.3346,-8.07874 -1.1588,11.1977 6.67729,15.3853 11.3346,8.07874z"/>
  <path fill="white" d="M72.125 185.399c-4.04958,1.79462 -3.46394,4.18507 -7.69408,-1.7195 1.96639,8.29645 6.04262,5.38583 7.69408,1.7195z"/>
  <path fill="white" d="M76.9533 196.603c-1.60951,1.78243 -1.5806,5.57093 -4.32652,5.14432 -3.68164,-0.572032 -4.2378,-5.71096 -5.87481,-8.31742 -0.215433,10.8746 10.5018,14.1027 10.2013,3.1731z"/>
  <path fill="white" d="M78.8837 210.051c-1.88504,1.4743 -0.954709,4.88523 -4.99181,5.05276 -3.48066,0.144284 -4.18961,-3.3721 -6.4766,-5.11115 0.612851,7.96961 11.9599,10.5157 11.4684,0.0583937z"/>
  <path fill="white" d="M88.5782 219.584c-1.88504,1.4743 0.0150236,5.37024 -4.66866,5.37591 -3.48492,0.00396851 -4.99748,-3.3721 -7.28448,-5.11115 1.21124,8.26895 13.587,10.7632 11.9531,-0.264756z"/>
  <path fill="white" d="M102.312 212.959c-1.88476,1.4743 0.33789,8.11758 -4.34523,8.12268 -3.48463,0.00396851 -5.96693,-4.17997 -8.25393,-5.91903 2.196,10.239 15.4021,11.1626 12.5992,-2.20365z"/>
  <path fill="white" d="M87.4469 230.733c-1.88476,1.47402 1.30706,10.2181 -3.37578,10.2232 -3.48435,0.00368504 -5.48221,-3.3721 -7.7692,-5.11115 2.51943,8.78485 15.5636,11.1626 11.145,-5.112z"/>
  <path fill="white" d="M83.9931 250.081c-3.35055,2.76151 -5.02753,3.85654 -9.47169,-2.04832 0.478205,7.10759 8.8081,8.61393 9.47169,2.04832z"/>
  <path fill="white" d="M99.4386 241.235c-2.65606,1.4743 2.00239,11.3494 -4.59553,11.3542 -4.90904,0.00340158 -8.85572,-5.47257 -12.0781,-7.21163 4.76192,12.2182 22.9802,14.4074 16.6737,-4.14255z"/>
  <path fill="white" d="M93.9099 258.847c-1.88476,1.4743 1.46835,8.60259 -3.21421,8.60741 -3.48378,0.00340158 -4.99748,-1.4332 -7.28419,-3.17225 2.72098,6.57525 15.1452,8.30608 10.4984,-5.43515z"/>
  <path fill="white" d="M110.407 255.777c-2.35191,1.4743 1.63474,7.70202 -4.17232,8.12268 -4.50822,0.326551 -6.72038,-4.17969 -9.7356,-4.46485 3.61077,8.51443 18.4674,10.5684 13.9079,-3.65783z"/>
  <path fill="white" d="M93.3645 279.326c-5.51339,0.598677 -6.00237,-0.349795 -9.14854,-4.95666 -0.657071,5.48561 6.59226,8.81887 9.14854,4.95666z"/>
  <path fill="white" d="M109.037 274.479c-2.28217,3.18388 -6.00237,5.4669 -13.9958,-2.37147 0.312095,6.29348 14.5094,11.2425 13.9958,2.37147z"/>
  <path fill="white" d="M118.797 281.912c-1.73962,3.18359 -5.70586,7.24422 -11.7987,-0.594142 0.237827,6.29348 12.1901,9.46489 11.7987,0.594142z"/>
  <path fill="white" d="M108.779 285.466c-1.2549,3.50703 -3.76725,8.53711 -11.9602,1.50661 0.237827,6.29348 13.6443,8.49544 11.9602,-1.50661z"/>
  <path fill="white" d="M119.766 294.029c-0.87789,3.25559 -0.864,10.802 -10.0213,4.41496 0.237827,6.29348 13.6443,6.39496 10.0213,-4.41496z"/>
  <path fill="white" d="M120.897 307.925c-0.877607,2.95654 -1.02586,7.48318 -10.1829,1.66791 -0.16611,4.27323 13.3478,6.85248 10.1829,-1.66791z"/>
  <path fill="white" d="M107.098 300.816c-4.78602,0.598394 -5.11342,1.5891 -8.82511,-3.01777 -0.108,5.21093 7.47752,6.27534 8.82511,3.01777z"/>
  <path fill="white" d="M142.796 246.016c2.22973,9.63497 -1.83912,11.7318 -6.04092,11.4182 -9.04848,-0.675213 -10.6228,-5.28662 -13.6874,-7.05544 2.69773,12.5855 29.7992,13.5051 19.7283,-4.36281z"/>
  <path fill="white" d="M143.604 227.597c-1.16391,6.24218 -4.10088,7.69267 -8.30296,7.37887 -9.04876,-0.674929 -10.946,-6.09449 -14.0105,-7.86331 2.21301,11.778 25.5439,15.0137 22.3135,0.484441z"/>
  <path fill="white" d="M173.94 284.633c-1.38104,6.24218 -4.37811,9.43682 -9.36624,9.15676 -12.0283,-0.675213 -10.8865,-5.77191 -17.1079,-8.67175 2.39273,13.1105 30.7545,15.7272 26.4742,-0.485008z"/>
  <path fill="white" d="M172.265 257.972c1.34504,7.69635 -4.40079,11.5778 -11.1524,11.0951 -15.4151,-1.10239 -14.0556,-7.70996 -18.1718,-9.47878 1.6835,15.1716 37.9925,16.037 29.3241,-1.61632z"/>
  <path fill="white" d="M157.338 230.343c4.00706,10.12 -1.83997,14.1565 -6.04063,13.8427 -9.04734,-0.675496 -11.431,-5.93377 -14.4955,-7.70259 4.95978,16.7868 33.1926,10.2739 20.5362,-6.14013z"/>
  <path fill="white" d="M160.246 208.531c4.16863,9.47367 -1.19367,14.8028 -6.04092,14.489 -9.04734,-0.67578 -11.4307,-6.58007 -14.4953,-8.34889 4.95922,18.5794 34.1612,11.3389 20.5362,-6.14013z"/>
  <path fill="white" d="M182.406 218.872c2.79865,9.63497 -0.208913,14.1562 -8.87471,14.1653 -11.3873,0.0119055 -11.0704,-4.80218 -15.8862,-7.21729 3.16375,14.0196 37.9999,12.1255 24.7609,-6.948z"/>
  <path fill="white" d="M183.853 237.453c5.65994,9.95812 2.50214,16.7956 -7.51578,16.9115 -14.944,0.173197 -15.5475,-7.54838 -21.1161,-9.9635 8.02092,21.7749 48.6261,12.4484 28.6319,-6.948z"/>
  <path fill="white" d="M205.303 220.649c0.536882,12.382 -3.0308,16.693 -11.3545,17.0739 -9.01474,0.412441 -12.6734,-5.93348 -18.0456,-8.3486 8.21509,18.3821 41.0993,10.5097 29.4001,-8.72533z"/>
  <path fill="white" d="M190.362 263.95c1.99134,7.37348 -0.357166,14.5984 -7.11355,14.1653 -17.1913,-1.10268 -18.0947,-10.6183 -22.2109,-12.3871 5.18429,19.3286 41.3858,19.9043 29.3244,-1.77817z"/>
  <path fill="white" d="M210.882 248.924c4.25339,10.2821 -0.370772,15.1472 -6.95169,14.8116 -17.2145,-0.87789 -18.2565,-9.16441 -22.3727,-10.9332 7.55433,19.1126 44.0782,17.104 29.3244,-3.87836z"/>
  <path fill="white" d="M221.65 231.151c6.5469,11.2513 -0.614551,18.1959 -3.79021,17.8821 -5.995,0.455528 -11.0021,-2.21754 -13.9085,-3.98636 10.7634,13.6607 31.784,1.72347 17.6987,-13.8957z"/>
  <path fill="white" d="M241.224 304.57c-8.33556,11.4905 -39.1694,19.9392 -68.7016,-5.26366l-2.02621 1.6801c25.6604,26.7761 65.5146,21.2499 70.7278,3.58356z"/>
  <path fill="white" d="M256.089 287.605c-8.65418,10.5559 -37.2949,17.0977 -66.278,-6.87941l-5.904 0.549071c26.8892,26.2837 65.632,24.2719 72.182,6.33033z"/>
  <path fill="white" d="M266.914 272.094c-5.96608,8.89654 -32.5996,16.2695 -54.1599,-2.84003l-2.99566 0.872221c20.1668,21.121 54.6891,15.1101 57.1556,1.96781z"/>
  <path fill="white" d="M279.194 248.989c-0.310961,11.1586 -14.5032,26.7718 -51.09,6.04659l0.0742678 2.64954c28.8919,18.8589 53.7197,8.80867 51.0157,-8.69613z"/>
  <path fill="#4C4C4C" d="M408.52 300.365c-24.9594,12.3075 -129.219,-8.76331 -142.656,-19.6668l-5.05814 3.76781c41.9001,18.7444 136.407,29.0781 147.715,15.899z"/>
  <path fill="#4C4C4C" d="M408.735 307.905c-33.2629,18.6531 -140.234,1.98085 -154.936,-11.6958l-3.33468 3.55238c31.1284,20.2524 144.163,26.9238 158.271,8.14337z"/>
  <path fill="#4C4C4C" d="M402.272 315.445c-33.2629,18.6531 -150.575,12.1062 -165.277,-1.57039l-3.33468 3.55238c31.7928,19.5877 154.988,16.3131 168.612,-1.98199z"/>
  <path fill="#4C4C4C" d="M207.892 365.357c6.58999,8.59919 -6.84369,14.3396 -19.2555,4.19018 12.5331,4.83421 20.5642,5.60977 19.2555,-4.19018z"/>
  <path fill="#4C4C4C" d="M217.552 418.887l2.08828 0.234709c0.863434,5.56328 2.44857,12.7389 5.58482,13.8124 -5.75235,-2.90069 -6.02929,-8.37582 -7.67311,-14.0471z"/>
  <path fill="#4C4C4C" d="M207.03 357.601c5.9434,8.59919 -11.3681,10.6773 -19.4709,0.312378 7.36271,4.18791 20.7797,9.48756 19.4709,-0.312378z"/>
  <path fill="#4C4C4C" d="M225.796 355.231c6.45222,7.73689 -13.1786,9.81468 -22.0791,0.312378 8.16605,3.82195 23.1599,8.68111 22.0791,-0.312378z"/>
  <path fill="#4C4C4C" d="M230.32 363.418c6.88309,9.67578 -12.1014,11.1073 -21.0019,1.60498 8.16605,3.82195 22.0828,7.38851 21.0019,-1.60498z"/>
  <path fill="#4C4C4C" d="M240.23 371.389c6.88309,9.67578 -15.9795,14.9851 -16.4781,1.38954 5.36514,8.13062 16.4818,6.95764 16.4781,-1.38954z"/>
  <path fill="#4C4C4C" d="M222.855 373.193c5.75887,6.336 -13.3696,9.8127 -13.7869,0.909922 4.48895,5.32432 13.79,4.55613 13.7869,-0.909922z"/>
  <path fill="#4C4C4C" d="M254.495 371.685c4.75739,5.4309 -11.0444,8.41096 -11.389,0.779811 3.70829,4.56378 11.3916,3.90529 11.389,-0.779811z"/>
  <path fill="#4C4C4C" d="M250.617 377.501c5.22369,4.60488 -11.4395,10.7442 -12.4662,4.01131 4.78942,3.4818 13.1173,0.0249449 12.4662,-4.01131z"/>
  <path fill="#4C4C4C" d="M262.682 380.948c5.22369,4.60488 -11.4395,10.7442 -12.4662,4.01131 4.78942,3.4818 13.1173,0.0249449 12.4662,-4.01131z"/>
  <path fill="#4C4C4C" d="M223.257 377.07c4.99011,4.83874 -18.2446,5.48419 -18.9292,-1.58995 4.43849,4.18337 19.3553,6.07578 18.9292,1.58995z"/>
  <path fill="#4C4C4C" d="M241.785 381.379c4.99011,4.83874 -18.2446,5.48419 -18.9292,-1.58995 4.43849,4.18337 19.3553,6.07578 18.9292,1.58995z"/>
  <path fill="#4C4C4C" d="M231.257 408.093c-2.15433,-5.38583 -1.72347,-9.04819 -2.5852,-13.5723 -1.14945,6.53528 -0.8623,11.6337 2.5852,13.5723z"/>
  <path fill="#4C4C4C" d="M251.048 380.517c5.22369,4.60488 -11.4395,10.7442 -12.4662,4.01131 4.78942,3.4818 13.1173,0.0249449 12.4662,-4.01131z"/>
  <path fill="#4C4C4C" d="M261.418 375.347c-1.93918,1.65175 -4.45295,1.8669 -7.54016,0.6463 1.93862,3.2315 5.74441,3.2315 7.54016,-0.6463z"/>
  <path fill="#4C4C4C" d="M268.743 385.257c-1.93918,1.65175 -2.51405,3.37493 -5.60126,2.15433 1.93862,3.2315 3.80551,1.72347 5.60126,-2.15433z"/>
  <path fill="white" d="M174.22 369.978c-39.458,-18.8393 -89.2358,-60.2462 -109.373,-137.567 -13.4433,-51.6169 13.0099,-126.623 -11.6359,-153.925 -9.28999,-10.2915 -11.842,-18.2719 -25.0404,-7.84007 1.3561,-11.2878 11.0945,-16.9965 27.1128,-20.5228 7.20936,-14.7132 17.4926,-15.0593 35.2066,-13.9604 14.2002,0.880725 25.9356,8.80356 34.6499,19.1055 -7.24507,-6.33062 -14.2801,-10.7685 -21.0079,-12.4398 6.45959,4.21597 11.463,8.2698 13.2608,11.967 -7.03418,-6.55059 -14.6993,-11.6283 -23.2872,-14.5545 6.31928,4.07566 10.3085,7.6337 11.967,10.6733 -7.63342,-6.14665 -14.7487,-9.70413 -21.3466,-10.6733 3.77348,2.17758 7.54725,4.87304 11.3202,8.08583 -6.53329,-2.43638 -13.002,-8.23805 -19.406,-8.08583l7.24479 6.08088 -12.4197 -5.75745c-9.59783,1.81021 -9.48728,7.11553 -14.2311,10.6733 3.60085,5.8218 2.92961,10.8669 11.967,17.4654l0.583654 2.06929 -5.11172 0.518173 -9.31522 6.59849c26.4441,30.4484 -1.48564,100.493 13.5652,155.025 18.3682,66.551 54.0134,101.453 92.6006,127.191l12.6964 9.87336zm-23.9309 100.474c-0.0110551,1.20869 0.0257953,2.48315 0.102047,3.82847 -8.03396,-6.08882 -9.92325,-16.274 -7.60819,-29.2623 2.60107,-0.25937 -0.67578,-8.4104 5.11144,-11.0353 4.47619,-2.03046 6.13531,-2.15206 12.1663,-1.33257 5.18003,0.703843 18.4538,-3.20145 26.0566,-7.95941 -1.87682,3.10649 -5.82492,5.69509 -11.8446,7.76693l7.37859 1.16504c-4.72479,1.16504 -11.7797,0 -17.0873,2.33008l7.76693 1.35921c-8.41408,3.04186 -21.4883,-4.98388 -23.495,6.79607 -5.58312,3.26296 -5.19591,20.2317 1.45304,26.3438zm28.5253 7.88542c0.0515906,0.90652 0.11452,1.85102 0.188787,2.83323 -8.63348,-3.42312 -12.9546,-10.2954 -12.9634,-20.6175 -2.43836,-6.82186 1.6081,-16.433 8.51046,-16.1138 9.63922,0.445607 12.7843,-4.76731 22.8291,-6.54463l-6.99024 4.27181 6.99024 -0.776693c-3.88347,3.1714 -11.4562,2.84769 -13.9805,4.85433l8.54363 1.35921c-3.93534,3.18047 -14.9584,-1.84252 -20.1073,2.77002 -5.14914,4.61254 -2.67732,20.8029 6.97918,27.9641zm110.969 21.4753c-10.2379,-2.96476 -16.1634,-10.2419 -17.7766,-21.831 0.103748,-4.87503 -1.15115,-10.3331 1.67102,-12.4897 6.26542,-4.78772 18.5193,-5.51821 27.002,-18.277l1.94173 -0.194173 0 1.16504 -7.57276 7.96111 4.46599 -1.74756c-1.74331,2.5251 -4.85178,4.59581 -8.15528,6.60189 2.39499,-0.258803 5.56668,-1.81247 9.51449,-4.66016 -3.62438,8.93197 -26.278,8.34945 -24.2717,16.3106 -2.34595,7.78989 -1.06243,16.2598 13.1811,27.161zm127.429 -56.7505c0.742961,3.19606 1.71269,5.61374 -2.01232,3.31314 -11.2272,-12.6709 -23.7481,-53.8039 -40.4734,-71.9728l-15.082 -19.7841 0.323433 -1.61717 1.9406 0.323433c39.4577,43.1731 38.1629,67.2639 55.3037,89.7376zm-251.752 -286.496c15.7445,14.506 29.9203,10.0398 74.2403,17.9535 54.8861,9.80023 114.273,38.4197 159.53,107.048 -108.649,-138.697 -216.652,-88.1862 -233.77,-125.002zm-37.2149 298.597c-0.212032,0.964914 -0.399969,1.9491 -0.566646,2.95002 -6.67446,-8.40643 -6.83887,-16.9399 -2.38054,-24.7014 3.44041,-5.98989 5.67978,-16.0396 9.64857,-17.7508 8.61137,-3.7131 25.4693,10.0653 36.9958,-1.14123 5.05899,-4.9184 14.7983,-17.214 15.2056,-38.9988l4.40646 1.59732 0.58252 3.30095 3.30095 8.93197 -0.194173 4.46599 -1.74756 -1.55339 -1.74756 -5.24268 -1.74756 -0.194173 1.74756 5.63103 0.970867 6.79607 0 3.88347 -1.55339 -2.33008 -0.58252 -4.46599 -1.74756 -2.33008 -0.194173 5.43685 0.970867 4.07764 -2.13591 0.194173 -2.33008 -2.9126 -0.388347 7.96111 -2.71843 0.194173c-2.00636,5.6469 -4.01216,9.8212 -6.01937,11.8446l1.74756 -7.37859c-3.75364,5.17805 -6.73087,8.28454 -8.93197,9.32032l1.74756 -4.07764c-3.89651,3.35849 -14.5962,3.15298 -18.707,3.54218 -4.76986,0.451843 -10.0809,-3.03109 -12.6147,-3.2811 -3.84775,-0.379559 -6.94403,4.50284 -8.62243,10.0641 -2.9452,9.75827 -7.58863,12.0365 -2.39443,26.1666zm105.085 25.9362c-7.14331,-3.29329 -7.81824,-19.5236 -0.0844725,-31.2253 -0.151087,-7.89676 2.59965,-10.2144 16.8999,-11.5824 18.8572,-1.80397 42.0188,-14.1803 25.4044,-46.1259l-9.04423 -19.1251 -0.194173 -1.55339 1.55339 0.194173c7.94778,6.78133 17.7554,11.0855 20.3882,17.8639 -3.9481,-2.58917 -7.31367,-6.34309 -11.8446,-7.76693l2.33008 5.63103c11.1974,6.66652 15.0163,17.6049 17.8639,24.0775 -5.11314,-4.20718 -9.25541,-16.958 -15.9222,-19.029 0.339591,1.92529 4.10825,5.38328 6.4457,9.10659 3.00501,4.78715 4.91358,10.1409 7.53478,14.5826 -3.68929,-2.07128 -7.57276,-11.327 -11.6504,-16.1164 4.5309,10.9383 4.59553,18.3816 7.76693,27.5726l-6.40772 -12.0387 1.55339 10.8737 -2.9126 -5.43685c-1.10013,3.55975 -2.71814,6.60161 -4.85433,9.12615l4.27181 -0.388347 -7.96111 4.27181 5.43685 -0.970867c-6.084,6.98996 -15.5982,4.85405 -18.0581,7.57276l4.85433 0.970867c-9.83793,3.30095 -28.9965,-4.66016 -29.5143,9.90284 -8.6726,3.4064 -7.62492,15.3184 -3.8554,29.6127zm21.8129 11.7425c-6.99279,-5.81726 -8.10851,-16.486 -4.96545,-26.1851 0.428032,-4.08076 0.27411,-7.73632 2.83805,-9.81156 4.00592,-3.24199 10.6892,-4.19698 15.7405,-6.59424 6.49446,-3.0824 11.4338,-7.53591 16.5844,-11.5798l2.33008 -0.388347 -0.194173 1.74756 -5.24268 4.07764 0 2.13591 -2.33008 0 -0.58252 1.94173 -2.13591 0.58252 -1.16504 2.33008 5.43685 0c-2.45934,2.00636 -8.60826,1.68265 -12.6213,3.68929l9.90284 0.776693c-6.2195,2.83153 -13.8413,-1.05704 -23.2801,3.56287 -1.70447,0.834237 -0.111969,5.69877 -0.603213,7.31084 -4.8566,2.48939 -4.76022,18.7991 0.287717,26.4039z"/>
  <path fill="#F00000" d="M253.908 466.904c4.69843,-1.59959 8.46256,2.95172 8.63292,8.13289 -5.54344,4.30583 -6.54662,11.4078 -7.44463,18.0649 -3.70999,-3.66945 -7.39021,-20.213 -1.18828,-26.1978z"/>
  <path fill="#F00000" d="M276.555 473.342c4.29931,-2.47975 10.2311,1.36091 12.2825,4.5224 -3.13824,9.7149 1.02019,16.4554 2.24674,22.3878 -9.83821,-3.67682 -18.9182,-19.7252 -14.5293,-26.9102z"/>
  <path fill="#F00000" d="M236.414 451.503c4.69843,-1.59959 9.30303,7.67452 7.14501,10.8502 -6.1903,1.0715 -9.13408,5.90939 -10.0321,19.6821 -5.34643,-11.7207 -4.75937,-25.3086 2.88709,-30.5323z"/>
  <path fill="#F00000" d="M147.125 444.6c5.56073,-2.89361 11.7176,3.14532 12.255,7.93871 -5.97912,7.11723 -8.16633,4.62047 -9.0618,18.7118 -5.98054,-5.89238 -8.24457,-19.4822 -3.19323,-26.6505z"/>
  <path fill="#F00000" d="M170.361 457.719c3.81997,-3.16885 7.38567,-2.20621 9.94054,0.564378 2.10756,6.68353 -3.40016,3.22243 -0.868819,21.6479 -5.88331,-3.83443 -12.187,-14.3904 -9.07172,-22.2123z"/>
  <path fill="#F00000" d="M130.795 430.78c3.72813,-2.24646 6.97408,2.17559 7.40353,7.29185 -5.22,5.923 -8.81065,8.82029 -9.70867,20.0055 -3.23178,-11.2295 -4.84895,-22.5556 2.30514,-27.2974z"/>
  <path fill="#F00000" d="M59.8581 54.2282c0.433134,4.85093 3.45373,9.70243 9.0618,14.5542 -12.3919,-3.82366 -23.1664,-5.436 -30.3815,-3.21959 9.54596,0.581953 18.5522,2.24249 26.3736,6.27591 -3.46762,2.36438 -4.20151,5.48391 -11.1521,5.8938 -8.02262,-3.29896 -9.09752,-10.8388 -16.2422,-11.3737 -2.38139,-0.178016 -3.5691,4.44671 -9.26731,4.8994 8.4121,-13.667 15.3238,-17.0717 31.6077,-17.03z"/>
  <path fill="#4C4C4C" d="M232.209 426.389l-1.73452 -1.43263c-5.99301,-5.75377 -7.65752,-12.5104 -6.00322,-21.7644l2.10047 0.969449c-1.51399,15.1648 3.75818,14.8184 5.63726,22.2276zm10.042 -14.8003l-2.20592 -3.51723c-0.0411024,0.298488 -0.0836221,0.593859 -0.127276,0.885544 -4.13887,-3.16063 -5.97544,-9.39119 -6.23679,-17.7216l2.42362 -0.969449c-0.967749,5.0332 0.219685,11.5484 6.14637,21.3228zm33.298 -19.4224c-8.60769,0.714048 -17.5351,-1.87965 -26.102,-2.15745 -25.9135,-4.26359 -42.9628,-9.15931 -56.806,-14.2846l2.74677 -1.13102c28.3558,10.264 54.0221,13.4756 76.0907,15.3519l4.07055 2.22123zm58.5094 36.184l-2.27679 0.784063c0.0172913,0.246614 0.0340158,0.490961 0.0490394,0.733323 -3.74032,-1.56756 -6.8349,-3.5657 -9.28347,-5.99414l0.32315 -1.9389c2.92195,2.34057 6.5435,4.50539 11.1881,6.41566zm3.06312 -21.1887l-2.43128 0.162142 0.111685 2.8338c-5.01591,-2.54466 -9.66246,-6.19739 -13.3858,-12.6207l-0.161575 -2.42362 1.77732 -0.32315c0.969449,4.20095 4.73953,8.40189 11.3102,12.6028m4.91329 -21.7355l-1.1401 2.70822c-3.19635,-0.632126 -7.09285,-5.11484 -12.0135,-15.2266l0.6463 -2.74677 1.2926 0.32315c3.90076,7.73887 7.74737,14.5576 11.2147,14.942zm35.4705 -11.2544c-3.13739,2.75216 -13.7784,7.95062 -31.875,8.49969l-1.70674 -1.74331c-1.73821,-10.2631 -5.25459,-16.3786 -9.57884,-20.609l1.45134 -1.16107c-2.80545,-3.68589 -5.61147,-6.60416 -8.41777,-8.9983l1.45134 -1.16107c2.70992,2.19855 5.41928,5.06977 8.1275,8.1275 3.33808,-0.0941103 6.97181,-1.37395 10.7399,-3.19295l0.580536 1.16107c-2.73969,1.88221 -6.12624,3.33354 -10.1594,4.35402l1.16107 2.32214c4.20435,-0.514772 7.97783,-1.67584 11.3204,-3.48321l0.290268 2.32214c-3.58016,1.9046 -7.15975,3.16233 -10.7399,3.77348l0.870804 2.03188c7.344,-0.0487559 13.8266,-2.46756 19.4479,-7.2567l0.580536 2.03188c-4.59043,3.85399 -10.9715,6.4287 -18.5771,8.1275l1.45134 2.90268c5.97799,-0.327685 10.0573,-1.55764 12.1584,-4.90167 3.16148,0.421795 6.00038,-0.772158 7.87011,-2.93556l2.03188 1.74161c-2.45027,1.9046 -5.54655,3.16233 -9.28857,3.77348 -3.19691,3.53367 -8.06004,3.50561 -11.6107,4.06375l0 2.61241c4.93455,-0.416693 9.86911,-1.64098 14.8037,-4.64429 3.61814,-0.00510236 6.67106,-1.18148 8.9983,-3.77348l0.580536 2.32214c-2.85421,1.74302 -6.00435,2.89332 -9.28857,3.77348 -4.69219,2.56706 -9.6806,3.65244 -14.8037,4.06375l0 0.870804c5.815,0.811276 11.8993,0.00651969 18.5771,-4.35402l2.61241 -0.290268 -5.22482 3.77348c5.01137,-0.788599 9.4836,-1.98142 12.7718,-4.06375l3.39392 -0.0802205z"/>
  <path fill="white" d="M316.569 410.301c1.95222,6.54378 6.1801,12.037 13.7339,15.9959l0 -2.10047c-5.33282,-2.73402 -9.69534,-7.71619 -13.7339,-13.8954z"/>
  <path fill="white" d="M320.931 388.812c1.95222,6.54378 4.72592,13.0065 12.2797,16.9654l0 -2.10047c-5.33282,-2.73402 -8.24117,-8.68564 -12.2797,-14.8649z"/>
  <path fill="white" d="M305.582 389.135c1.95222,6.54378 6.01852,11.5523 13.5723,15.5112l0 -2.10047c-5.33282,-2.73402 -9.53377,-7.23147 -13.5723,-13.4107z"/>
  <path fill="white" d="M301.381 368.615c0.330236,7.19263 6.2229,16.3494 16.4806,19.2274l0 -2.10047c-7.51493,-1.52249 -14.1398,-10.0057 -16.4806,-17.1269z"/>
  <path fill="white" d="M315.276 365.868c1.00942,6.35528 4.15956,14.7027 12.926,18.9043l0 -2.10047c-6.86977,-2.99055 -9.93941,-10.8003 -12.926,-16.8038z"/>
  <path fill="white" d="M337.735 384.611l-7.59402 -11.4718c1.45417,4.68567 3.98551,8.50961 7.59402,11.4718z"/>
 </g>
</svg>
