<?xml version="1.0" encoding="UTF-8"?>
<!DOCTYPE svg PUBLIC "-//W3C//DTD SVG 1.1//EN" "http://www.w3.org/Graphics/SVG/1.1/DTD/svg11.dtd">
<!-- Creator: CorelDRAW -->
<svg xmlns="http://www.w3.org/2000/svg" xml:space="preserve" width="500px" height="559px" shape-rendering="geometricPrecision" text-rendering="geometricPrecision" image-rendering="optimizeQuality" fill-rule="evenodd" clip-rule="evenodd"
viewBox="0 0 500 559"
 xmlns:xlink="http://www.w3.org/1999/xlink"
 xmlns:svg="http://www.w3.org/2000/svg"
 version="1.0">
 <g id="Layer_x0020_1">
  <metadata id="CorelCorpID_0Corel-Layer"/>
  <path id="path1937" fill="#0057F0" stroke="black" stroke-width="1.41732" d="M1.12904 1.07235l498.015 0.265323 -13.5879 316.743c-15.5146,318.05 -456.765,319.198 -471.17,0.374457l-13.2574 -317.383z"/>
  <path fill="white" d="M71.1196 66.9507l56.4679 0 0 36.4309 49.4277 0.34441 1.5755 -36.7753 47.3601 0 0 37.0381 49.4807 -0.197008 2.12967 -36.8411 49.1817 0 -0.607181 34.6093 51.6943 0.119055 0.523276 -34.7284 55.8607 0 -2.83238 50.9806 -35.424 -1.05676 -3.46451 52.2102 35.9515 1.71071 -2.96674 53.4019 -35.1493 -1.21039 -2.75471 51.9047 34.9691 2.13619 -2.90126 52.2253 -34.0027 -4.93229 -9.15704 54.1049 32.8774 8.05947c-6.5435,19.3643 -15.8871,36.1851 -27.2988,50.4666l-25.4957 -25.232 -38.8449 34.3026 21.6505 27.9675c-18.1786,10.7541 -38.2524,17.7817 -58.9179,21.0909l-1.43263 -39.0283 -51.8548 0.836221 -1.76967 38.2924c-20.66,-3.22498 -40.7673,-10.1483 -59.0261,-20.7621l21.8404 -30.2131 -39.1351 -31.9371 -25.0829 26.3466c-11.9398,-14.3943 -22.3554,-32.0403 -29.2451,-51.7187l33.412 -11.2595 -6.67843 -50.7413 -37.0026 4.35714 -2.67959 -52.8123 34.4472 -2.09112 -1.21465 -51.3326 -35.9408 0.0368504 -2.61921 -51.6314 36.233 -0.628158 -1.37169 -52.3367 -37.5832 0.124158 -2.62914 -51.6311z"/>
  <path fill="#BF9F4F" d="M67.8456 63.6767l56.4679 0 0 36.4309 50.0701 0.34441 0.933166 -36.7753 47.3601 0 0 37.0381 49.4807 -0.197008 2.12967 -36.8411 49.1817 0 -0.607181 34.6093 51.6943 0.119055 0.523276 -34.7284 55.8607 0 -2.83238 50.9806 -35.424 -1.05676 -3.46451 52.2102 35.9515 1.71071 -2.96674 53.4019 -35.1493 -1.21039 -2.75471 51.9047 34.9691 2.13619 -2.90126 52.2253 -34.0027 -4.93229 -9.15704 54.1049 32.8774 8.05947c-6.5435,19.3643 -15.8871,36.1851 -27.2988,50.4666l-25.4957 -25.232 -38.8449 34.3026 21.6505 27.9675c-18.1786,10.7541 -38.2524,17.7817 -58.9179,21.0909l-1.43263 -39.0283 -51.8548 0.836221 -1.76967 38.2924c-20.66,-3.22498 -40.7673,-10.1483 -59.0261,-20.7621l21.8404 -30.2131 -39.1351 -31.9371 -25.0829 26.3466c-11.9398,-14.3943 -22.3554,-32.0403 -29.2451,-51.7187l33.412 -11.2595 -6.67843 -50.7413 -37.0026 4.35714 -2.67959 -52.8123 34.4472 -2.09112 -1.21465 -51.3326 -35.9408 0.0368504 -2.61921 -51.6314 36.233 -0.628158 -1.37169 -52.3367 -37.5832 0.124158 -2.62914 -51.6311z"/>
  <polygon fill="white" points="289.503,129.638 303.635,127.069 313.912,137.025 307.167,141.842 282.117,140.237 "/>
  <polygon fill="white" points="191.096,239.887 193.452,249.312 238.219,226.929 231.151,212.792 "/>
  <polygon fill="white" points="206.643,285.724 206,282.834 259.635,235.302 287.898,241.082 293.036,252.644 222.701,290.542 "/>
  <polygon fill="white" points="269.591,386.892 274.409,383.038 310.058,305.637 251.927,313.024 250.642,371.476 "/>
  <polygon fill="white" points="191.548,232.732 193.154,235.623 231.051,199.973 216.92,196.44 194.76,205.433 "/>
  <polygon fill="white" stroke="black" stroke-width="0.992126" points="179.421,127.895 169.867,139.724 183.21,186.024 202.336,189.97 201.729,181.166 190.193,179.041 187.157,167.201 226.828,156.624 205.979,148.075 183.514,153.843 180.174,140.485 184.728,136.842 "/>
  <polygon fill="#0057F0" points="180.46,130.484 173.495,139.271 185.478,186.477 202.336,189.97 201.729,181.166 189.871,178.399 187.157,167.201 227.925,156.189 205.979,148.396 183.192,154.807 179.211,140.485 183.765,136.521 "/>
  <polyline fill="none" stroke="black" stroke-width="1.41732" points="124.349,102.075 176.782,102.075 177.103,65.6788 217.498,65.6436 "/>
  <polyline fill="none" stroke="black" stroke-width="1.41732" points="222.07,102.717 274.433,102.682 276.36,65.2873 318.004,65.2873 "/>
  <polyline fill="none" stroke="black" stroke-width="1.41732" points="322.255,99.9318 376.509,99.9318 377.152,65.6085 425.475,65.6085 "/>
  <polyline fill="none" stroke="black" stroke-width="1.41732" points="77.7583,216.079 75.4906,170.292 110.992,168.917 109.778,115.287 "/>
  <polyline fill="none" stroke="black" stroke-width="1.41732" points="83.4917,321.764 81.3841,275.764 115.421,273.726 114.207,219.757 "/>
  <path fill="none" stroke="black" stroke-width="1.41732" d="M120.6 430.771c-9.9173,-12.7508 -19.5001,-29.3689 -26.1791,-45.358l33.4301 -11.5716c-3.44069,-16.7987 -5.10832,-32.1588 -6.92986,-50.5766"/>
  <path fill="black" d="M148.062 248.917c6.70252,2.10558 7.21361,6.5914 13.2245,8.75452 5.0658,1.82296 50.5401,-17.7406 64.6036,-24.8309 6.69544,-3.3755 7.18895,-10.3819 4.54677,-12.149 -3.49852,1.28466 -0.0649134,3.38315 -3.56655,7.5138 -1.57238,1.85528 -10.6107,6.75893 -20.734,10.836 -10.6078,4.27181 -19.6118,11.2742 -29.5365,1.97178 19.3065,2.52397 20.1541,-17.0513 31.544,-21.6865 -3.40498,-0.657071 -7.53222,2.17389 -11.0707,1.9715 2.66315,-2.55288 4.52863,-7.12517 10.1276,-9.4921 4.7418,-2.00466 10.4703,-2.40832 13.1556,-2.79184l1.89128 -1.51654c-5.27641,-1.04258 -8.72674,-3.15298 -14.7104,-3.33638 5.63585,-3.82876 13.6735,-5.01704 23.3547,-4.39795l0.303307 -2.2748c-3.13427,-1.4658 -6.57185,-8.39141 -9.85749,-12.5873 8.19383,4.46173 13.0958,5.53862 18.5275,5.28151 9.49834,-0.449858 17.3441,-8.17881 16.8078,-9.07285 -1.04258,-1.70249 -4.74718,0.22252 -8.60882,-0.140598 -4.96488,-0.46715 -9.22196,-2.63225 -13.9119,-0.547937 -7.19037,3.1955 -16.4616,2.2286 -21.6105,-3.40611 4.5051,0.177732 7.48489,-0.902552 13.9048,-3.69468 5.24268,-2.28047 16.3976,2.86044 16.3973,-7.97301 -0.000283465,-6.60274 -7.2618,-11.0764 -12.0396,-9.52243 -7.83185,2.54693 -11.2652,2.39556 -12.5864,0.108567 -4.23695,-7.33295 -9.59358,-0.826867 -9.77075,-1.81814 -3.03166,-1.92359 -1.48819,-5.41701 -2.83493,-6.76035 -2.17077,-2.16539 -1.68123,-4.73698 -0.0464882,-5.8269 4.10173,-3.56315 25.1719,-5.39433 28.0035,-11.361 1.64013,-3.45685 25.6346,-6.52366 32.203,-7.74737 9.91106,-8.80838 19.7376,-8.20602 23.62,-0.933449 6.58233,12.3301 -5.08139,16.0648 -3.45005,18.3736 1.98312,-0.298488 4.28882,-3.65471 5.86942,-7.85793 1.8411,-4.89487 7.95714,-11.7581 8.68933,-11.5537 2.46983,1.78299 2.66088,6.03723 1.60639,10.8204 -1.36375,6.18633 -5.33481,8.20772 -4.94277,10.2594 4.63748,-0.113386 9.11141,-1.70561 13.3455,-5.45953 0.960378,15.3678 -5.66192,12.2335 -8.4926,18.3501 3.23518,4.2463 15.2663,5.45953 21.5348,4.09465 -2.18665,7.35563 -8.27802,4.77723 -10.7674,7.27937 2.17361,1.56728 7.22863,1.31443 9.70583,2.88142 -7.06026,6.18378 -15.0301,2.5098 -17.5405,4.90196 4.45578,12.1371 12.3491,17.197 23.6801,15.1795 -3.69666,5.26451 -12.3222,5.19477 -12.2273,6.00888 -0.0371339,3.31172 5.08196,1.92217 8.07818,4.02038 -4.43707,4.21966 -10.5423,4.26699 -17.4059,2.41795 0.837071,7.00838 4.32907,14.1429 13.6616,21.5549 -9.86287,2.93216 -14.7212,-0.35348 -17.3047,0.607181 0.263055,2.18438 4.00592,3.60227 7.58977,6.98259 -4.95922,2.52624 -10.12,0.80589 -15.4831,-5.16104 -3.41008,8.75311 0.384378,16.5453 9.10772,23.6801 -10.6231,4.02293 -18.3138,1.63134 -22.4657,-8.50054 -3.99742,2.8868 -4.05184,11.2331 -12.4472,17.3047 0.732756,-5.76794 -2.35673,-11.5364 -7.28618,-17.3047 -1.46665,-0.808441 -2.17502,0.354614 -2.12513,1.21436 -1.21408,-0.404788 -1.51824,-1.11288 -2.73232,-1.21436 -1.51795,0.916441 0.148819,11.3871 -4.55386,20.9478 -1.2138,-1.82126 -0.911056,-3.49087 -1.82154,-4.55386 -3.84633,1.42214 -4.35629,17.0997 -14.2688,21.5549 1.83175,-4.71714 1.5035,-8.23408 -0.303591,-10.9293 -1.30989,0.229039 -3.83669,2.01657 -4.73811,4.93342 -0.491811,1.59194 -4.08898,3.16914 -4.75909,4.97622 -0.742394,2.00183 -4.78035,4.51474 -6.8967,5.57348 -0.505134,-3.13824 6.11745,-7.94467 1.21436,-13.0544 -6.57978,2.88737 -13.1596,15.7839 -26.1088,19.1262 1.21436,-2.63112 4.09692,-5.7172 3.64309,-7.89336 -4.15276,0.509103 -14.675,10.2691 -24.2873,11.5364 3.29131,-3.04923 7.44548,-6.31418 7.28618,-8.50054 -4.04873,-1.41364 -9.9173,4.30044 -14.8759,5.76822 -1.41846,-4.55273 -5.31723,-6.94545 -11.5892,-6.64385 0.938835,-4.39739 -1.20246,-5.9281 -8.35172,-5.87792 2.22463,-3.48775 0.89263,-6.52394 -3.35424,-7.18129 1.84592,-1.74331 1.6594,-3.93477 -0.945638,-6.084 2.376,-0.808725 0.0952441,-2.62545 2.47096,-3.73777 0.20211,-1.8703 -0.0223937,-5.05333 1.49556,-6.14183 0.334205,-0.239528 0.938552,-3.39761 1.21635,-5.26791z"/>
  <path fill="black" d="M292.766 252.236c11.228,17.462 21.073,35.6159 29.8758,54.292 9.37701,-1.31046 13.0547,10.3992 18.3396,5.03263 3.32759,-3.37918 0.0674646,-6.72237 1.37537,-7.7624 7.43613,2.31109 6.25266,11.2547 1.66961,16.041 -3.13569,3.27487 -8.75141,3.31342 -10.7688,3.06737 -1.26397,2.83068 4.1451,3.38684 5.30788,5.30788 -2.72977,1.61745 -6.01569,2.12287 -9.55418,2.12315 -0.758552,1.41506 -0.910205,2.8304 -0.454961,4.2463 6.11632,1.31414 10.3119,6.82385 17.5918,0.606614 2.376,13.4464 -8.9983,14.5582 -13.6488,16.9852 1.36488,2.17361 14.8621,10.4134 20.4732,5.61118 0.0768189,12.1079 -13.5216,14.0287 -17.4402,14.5587 -0.252851,3.53849 9.04848,11.3233 15.6203,8.79591 -1.81984,5.6109 -7.88599,7.38029 -18.1984,5.30788 0.483307,2.90013 3.11159,5.9434 6.5126,8.96089 3.09232,2.74309 8.35909,3.12406 10.7759,4.68794 -5.52303,5.86375 -10.5531,4.54904 -18.0468,3.48803 0,2.98233 1.81984,4.54933 5.45953,4.70126 -2.1994,2.95682 -6.79947,2.55232 -13.0422,-0.151654 5.88104,21.5535 -21.6051,15.1688 -27.7631,15.719 -7.50926,0.670961 -13.1788,5.8286 -15.0032,5.9675 0.259654,-3.84888 -0.0394016,-7.13906 -4.2463,-6.52111 -2.2748,-1.87058 -4.39795,-0.556158 -4.54961,-2.88142 3.54784,-2.16595 0.68315,-4.34268 -3.03307,-4.2463 1.92189,-2.45225 2.07411,-5.03036 -1.66819,-7.88599 3.79134,-1.0114 4.34778,-3.03364 1.66819,-6.06614 1.61802,-0.454961 2.42702,-1.31471 2.42646,-2.57811 1.36488,-0.910205 1.92132,-2.22491 1.66819,-3.94299 1.56387,0 5.76227,1.97376 9.16753,7.22778 3.17452,4.89742 15.4091,2.65805 19.2373,-4.05383 0.591591,-1.0372 5.11342,-6.86438 1.25036,-10.1446 -5.48504,-4.65761 -10.1319,0.220252 -17.8262,-8.04303 -7.18555,4.5618 -14.9533,4.70183 -21.401,-0.0357166 2.78051,-2.02224 12.9413,-0.859748 10.7853,-4.96885 -2.37402,-0.0172913 -7.83695,2.8851 -12.2562,1.48082 -2.72466,-0.865985 -4.43651,-3.92967 -7.19122,-5.34359 3.30973,-1.30025 7.45229,1.08624 13.3172,-3.15695 14.8334,-10.7311 6.46129,-23.5996 7.86359,-38.3502 1.23052,-12.9433 8.6264,-24.7663 28.4635,-16.0855l0.892063 -1.17751c-17.4399,-8.8149 -28.0046,-3.62098 -31.6956,16.2269 -8.46596,-9.22848 -21.5215,-13.8645 -39.7332,-13.3455 0.000283465,-2.78051 5.10605,-7.58325 1.21323,-9.85749 -1.14973,0.596977 -4.27465,2.59909 -5.31666,4.30753 -1.2121,1.9868 -6.067,3.93874 -8.48382,6.15657 0.354331,-5.08082 6.37002,-13.3713 2.2748,-14.2554 -5.91421,8.92205 -12.7891,10.6404 -20.3216,7.43103 8.68224,-6.26854 12.6003,-11.2227 9.55418,-14.2554 -7.65837,5.95219 -14.3311,7.13991 -19.5633,1.36488 8.07591,-1.55424 13.0224,-5.87991 12.6051,-11.8826 6.20051,-2.808 9.61427,-9.14854 14.1216,-12.4535 0.303591,3.99345 -1.09361,8.30778 -4.83506,12.3018 15.317,-0.606614 16.0574,-12.1323 20.1521,-14.5587 0.758268,4.04419 -2.13761,9.04848 -3.14901,11.829 6.64158,1.1435 13.6276,-6.30029 17.9932,-21.0799 0.710079,1.66677 0.709229,3.68929 0.606614,5.76284 3.14079,-2.09792 6.6994,-12.2409 7.56482,-24.3984l1.36488 2.31052 1.85556 -2.46217c5.66192,9.09922 3.57137,16.3786 5.74498,19.1084 10.717,-7.10278 10.0752,-10.5908 13.3098,-17.4402 2.27509,5.2835 7.95487,9.66671 11.0886,8.37667z"/>
  <path fill="black" d="M252.429 367.875c15.9273,5.08819 27.163,-3.79673 22.4657,-25.8052l-13.9649 -20.037c-33.2328,-16.8803 -33.8601,42.8244 -66.1831,12.1436 -0.400536,8.59975 3.64734,14.7728 12.1436,18.519 -0.458079,2.88114 -3.44381,2.83011 -10.3221,-1.51795 1.38274,6.14608 6.21553,10.6492 16.0903,12.7508 -0.968599,3.87525 -6.40715,6.3927 -6.84709,10.9023 -0.931465,9.55078 -3.85569,14.5681 -8.84382,17.9243 -4.16126,1.6509 -15.3867,-2.65153 -16.8922,-5.43544 -2.20082,-4.0697 -3.65188,-7.17137 -5.66929,-9.12246l-1.2943 0.214866 -2.88142 2.88142 0 3.33638c1.16306,2.27424 0.759402,3.78992 -0.909922,3.18473l-0.151654 3.79134c3.63969,1.01027 2.93244,4.75115 0.758268,5.76284l4.2463 3.48803c0.66841,0.795685 0.91304,4.17118 -1.41647,5.03632l0.809859 1.93975c2.93244,1.21295 4.04447,1.86973 4.54961,4.70126 12.89,-1.95024 23.6441,17.0342 31.9983,13.5666 8.82908,-3.66463 3.69099,-17.5391 7.88656,-17.9646 6.14778,6.84114 13.6097,8.2613 22.9918,1.75748 -6.1217,-1.77392 -11.3593,-10.9536 -8.73638,-15.4063 7.10278,8.71994 15.747,12.1572 22.4447,6.82441 -5.30788,-0.434268 -8.57254,-9.83141 -9.44023,-11.3885 -0.616252,-1.10608 -0.319181,-2.46274 0.189354,-3.17027l1.81984 -1.06158c6.16054,7.31084 13.604,8.20772 22.5964,1.36488 -1.53269,-1.9817 -4.59298,-2.84428 -5.93717,-4.40646 -1.83685,-2.13421 -2.8491,-3.96312 -4.41241,-4.65364 -4.1451,-1.83118 -6.76035,-5.40794 -7.08832,-10.1211z"/>
  <path fill="white" d="M289.278 317.447c0.758268,0.859465 -4.85292,5.81358 -6.36945,9.40252 0.454961,-4.04391 4.2463,-10.2112 6.36945,-9.40252z"/>
  <path fill="white" d="M291.856 322.603c0.758268,1.01112 -6.06614,3.99373 -8.79591,16.9852 -1.21323,-10.565 7.12772,-18.2489 8.79591,-16.9852z"/>
  <path fill="white" d="M289.885 334.432c0.46063,0.431717 -1.32151,3.02258 -2.64983,7.28136 -1.32832,4.25764 -1.74813,10.7909 -3.56797,16.6799 -0.189354,-6.06756 0.416693,-12.5799 2.06589,-17.5215 1.45559,-4.36054 3.43673,-7.11043 4.15191,-6.43975z"/>
  <path fill="white" d="M290.492 349.901c0.758268,1.01112 -5.15622,7.78507 -0.758268,20.7765 -6.97607,-8.59352 -0.909922,-22.0402 0.758268,-20.7765z"/>
  <path fill="white" d="M295.951 364.156c0.921827,0.864284 -1.21323,7.17846 5.00457,16.8336 -8.34095,-7.9869 -6.53131,-18.2648 -5.00457,-16.8336z"/>
  <path fill="white" d="M304.747 376.44c1.28891,1.56756 1.18857,4.04447 2.12315,6.06614 -2.32498,-2.02167 -3.03251,-4.04362 -2.12315,-6.06614z"/>
  <path fill="white" d="M309.145 383.416c5.5732,5.27925 1.14973,7.55745 -0.618803,12.5164 -0.73304,2.05625 -3.56457,5.96041 -6.05396,10.535 3.01578,-1.34532 4.22759,-4.68255 6.25153,-7.67622 2.29408,-3.39307 4.22532,-6.51884 4.22334,-8.95578 -0.00283465,-3.75137 -0.0232441,-6.37824 -3.80211,-6.41934z"/>
  <path fill="white" d="M215.878 345.654c3.59462,1.56217 9.49408,0.133795 12.9994,-3.20854 3.01266,-2.87263 5.92668,-5.41786 9.29367,-6.95226l-4.09465 -1.06158c-6.2178,2.98233 -8.03764,9.90794 -14.1038,9.40252l-4.09465 1.81984z"/>
  <path fill="white" d="M248.787 327.608c-6.16763,0.000283465 -12.7395,2.83153 -19.715,8.4926 4.33588,-6.75128 11.0852,-10.6458 19.8666,-10.9191 1.31471,0.0527244 0.151937,2.37912 -0.151654,2.42646z"/>
  <path fill="white" d="M256.066 323.513c-7.27937,-1.71865 -11.9806,0.809008 -14.5587,0.303307 2.72948,-1.87002 7.68331,-2.5268 14.8621,-1.9715 0.808725,-0.0504567 0.404221,1.71893 -0.303307,1.66819z"/>
  <path fill="white" d="M232.257 242.075c-1.46608,-1.01112 -1.87058,-2.32554 -3.33666,-3.33666 -1.46551,-1.01055 -3.99345,-1.71865 -5.45925,-2.72948 3.53821,-1.06158 10.4131,3.84123 8.79591,6.06614z"/>
  <path fill="white" d="M227.252 244.198c-1.46608,-1.01112 -1.87058,-2.32554 -3.33666,-3.33666 -1.46551,-1.01055 -3.99345,-1.71865 -5.45925,-2.72948 3.53821,-1.06158 10.4131,3.84123 8.79591,6.06614z"/>
  <path fill="white" d="M222.423 245.563c-1.31839,-0.909355 -1.68208,-2.0914 -3.00047,-3.00076 -1.31811,-0.908788 -3.5915,-1.54545 -4.90961,-2.45452 3.18189,-0.954709 9.36454,3.4543 7.91008,5.45528z"/>
  <path fill="white" d="M216.3 249.035c-1.20076,-1.05987 -1.42101,-2.27707 -2.62177,-3.33695 -1.20019,-1.05931 -3.38145,-1.96243 -4.58192,-3.0223 3.27317,-0.56863 8.88605,4.54592 7.20369,6.35925z"/>
  <path fill="white" d="M211.244 250.817c-0.903969,-0.684851 -1.12394,-1.53269 -2.02791,-2.21754 -0.903685,-0.684567 -2.49165,-1.20699 -3.39562,-1.89184 2.28132,-0.574866 6.51572,2.73969 5.42353,4.10939z"/>
  <path fill="white" d="M205.785 252.789c-0.903969,-0.684851 -1.12394,-1.53269 -2.02791,-2.21754 -0.903685,-0.684567 -2.49165,-1.20699 -3.39562,-1.89184 2.28132,-0.574866 6.51572,2.73969 5.42353,4.10939z"/>
  <path fill="white" d="M201.084 254.305c-0.903969,-0.684851 -1.12394,-1.53269 -2.02791,-2.21754 -0.903685,-0.684567 -2.49165,-1.20699 -3.39562,-1.89184 2.28132,-0.574866 6.51572,2.73969 5.42353,4.10939z"/>
  <path fill="white" d="M196.382 255.67c-0.903969,-0.684851 -1.12394,-1.53269 -2.02791,-2.21754 -0.903685,-0.684567 -2.49165,-1.20699 -3.39562,-1.89184 2.28132,-0.574866 6.51572,2.73969 5.42353,4.10939z"/>
  <path fill="white" d="M192.043 256.432c-1.28098,-0.595559 -1.77222,-1.56926 -3.0532,-2.16482 -1.28041,-0.594992 -3.3514,-0.812126 -4.6321,-1.4074 2.62517,-1.3011 8.65361,1.61717 7.6853,3.57222z"/>
  <path fill="white" d="M185.402 257.342c-0.885827,-0.411874 -1.22542,-1.0851 -2.11125,-1.49698 -0.885544,-0.411591 -2.31761,-0.561544 -3.20315,-0.973134 1.81531,-0.899717 5.98394,1.11827 5.3144,2.47011z"/>
  <path fill="white" d="M180.112 258.252c-0.661323,-0.307276 -0.914741,-0.810142 -1.57606,-1.11742 -0.66104,-0.307276 -1.73027,-0.419244 -2.39131,-0.726804 1.35524,-0.671528 4.4674,0.835087 3.96737,1.84422z"/>
  <path fill="white" d="M177.143 260.337c-0.798237,-0.371055 -1.10466,-0.977953 -1.9029,-1.34901 -0.797953,-0.371055 -2.08828,-0.506268 -2.88652,-0.87704 1.63587,-0.810993 5.39263,1.00772 4.78942,2.22605z"/>
  <polyline fill="none" stroke="black" stroke-width="1.41732" points="72.1327,111.644 69.865,65.4109 120.348,65.4109 "/>
  <path fill="white" d="M171.468 261.437c-0.661323,-0.307276 -0.914741,-0.810142 -1.57606,-1.11742 -0.66104,-0.307276 -1.73027,-0.419244 -2.39131,-0.726804 1.65969,-0.823748 4.97452,0.581386 3.96737,1.84422z"/>
  <path fill="white" d="M167.084 261.437c-0.482457,-0.224221 -0.819213,-0.288 -1.30167,-0.512221 -0.482457,-0.224221 -0.807591,-0.457512 -1.29005,-0.682016 0.989008,-0.49011 2.95654,0.457796 2.59172,1.19424z"/>
  <path fill="white" d="M210.115 224.483l-3.94299 0c-4.95383,2.47691 -6.1166,6.31871 -8.64426,9.09922l1.66819 -0.303307c3.03307,-5.05531 8.1893,-3.74088 10.9191,-8.79591z"/>
  <path fill="white" d="M203.594 217.052c1.50435,-2.7618 5.22,-4.41751 10.7674,-5.15622 0.505701,0.404221 1.16277,2.47691 -0.303307,2.57811 -3.43701,0.328252 -7.02624,1.44028 -10.4641,2.57811z"/>
  <path fill="white" d="M216.485 204.616c1.95931,-3.82337 6.43323,-2.44602 11.5257,-2.72977 0.0507402,0.252567 1.61773,2.62857 0.151654,2.72977 0.66841,-0.687402 -6.18832,-1.74756 -11.6773,0z"/>
  <path fill="white" d="M250.91 193.546c-3.2984,0.142016 -6.14211,1.80142 -9.44079,1.94343 -2.56479,0.110268 -5.58567,-1.29543 -8.15103,-1.18517 1.14208,3.80183 4.99635,2.56819 8.02517,3.3035 3.89764,0.946205 6.60841,-0.563811 9.56665,-4.06177z"/>
  <path fill="white" d="M288.065 124.695c-3.9634,-6.3224 -9.3909,-5.52501 -16.3964,2.76548 -3.63969,-0.606614 -7.092,-0.945638 -11.1867,-0.624473l1.04372 1.65033c4.06205,-0.591874 8.07052,1.43008 11.2045,-0.18737 4.31178,-1.46608 5.68857,-11.4783 15.3349,-3.60397z"/>
  <path fill="white" d="M244.54 169.433c2.19232,-4.75229 0.182551,-9.504 -5.30788,-14.2554 7.43103,1.92076 11.8792,12.1825 5.61118,17.1369l-0.303307 -2.88142z"/>
  <path fill="white" d="M198.893 417.083c2.02195,-0.151937 6.71415,4.03966 9.40281,2.67251 2.42702,-1.23449 2.47691,-4.51786 4.24602,-7.82873 1.09928,9.83226 -5.69906,13.775 -13.6488,5.15622z"/>
  <path fill="white" d="M213.755 366.886c-3.08353,5.40879 -6.37314,9.91191 -6.55881,14.4638 -0.239811,5.88274 -2.94491,8.71399 -3.90529,11.1657 6.26854,-1.21323 4.19584,-17.4402 12.8906,-23.8096 -0.657355,-1.06186 -1.36517,-1.56728 -2.42646,-1.81984z"/>
  <path fill="white" d="M173.415 385.084c2.37628,2.35049 4.75229,5.5355 7.12772,9.09922 -3.18444,-2.02195 -5.56044,-5.05503 -7.12772,-9.09922z"/>
  <path fill="white" d="M171.595 390.847c2.37628,2.35049 3.3874,2.95739 5.76284,6.52111 -3.18444,-2.02195 -4.19556,-2.47691 -5.76284,-6.52111z"/>
  <path fill="white" d="M174.476 399.643c2.22463,2.9571 4.29733,2.95739 6.67276,6.52111 -3.18444,-1.11203 -5.10548,-2.47691 -6.67276,-6.52111z"/>
  <path fill="white" d="M178.571 408.591c2.22463,2.9571 -0.10063,-1.28891 2.2748,2.2748 -3.18444,-1.11203 -0.707528,1.76939 -2.2748,-2.2748z"/>
  <path fill="white" d="M274.511 400.401c2.37628,2.35049 3.53906,3.26069 5.91449,6.82441 -3.18444,-2.02195 -4.34721,-2.78022 -5.91449,-6.82441z"/>
  <path fill="white" d="M272.236 408.439c1.31471,0.833953 3.53906,2.19912 6.36945,5.30788 -3.3361,-1.56699 -5.10548,-2.17361 -6.36945,-5.30788z"/>
  <ellipse fill="#0057F0" cx="139.948" cy="170.768" rx="9.56311" ry="8.88003"/>
  <path fill="white" d="M277.68 420.717c1.55707,0.000283465 4.16665,-0.0377008 8.22161,1.07235 -3.65669,0.462898 -5.47569,0.898016 -8.22161,-1.07235z"/>
  <path fill="white" d="M254.701 154.419c-1.61773,-0.556158 -3.23518,-2.32554 -4.8532,-3.48832 -1.61717,-1.16249 -3.8418,-2.32526 -4.85263,-3.48775 3.20995,0.706961 8.36589,4.04334 9.70583,6.97607z"/>
  <path fill="white" d="M257.645 151.538c-1.54999,-0.366236 -3.21166,-1.85641 -4.81748,-2.78476 -1.60526,-0.928063 -3.77348,-1.80028 -4.81692,-2.78419 3.03874,0.359433 8.12268,2.97525 9.6344,5.56895z"/>
  <path fill="white" d="M260.526 147.898c-1.10806,-0.261921 -2.2955,-1.32718 -3.44381,-1.99049 -1.14747,-0.663307 -2.69717,-1.28693 -3.44296,-1.99021 2.17219,0.256819 5.80621,2.12684 6.88678,3.98069z"/>
  <path fill="white" d="M260.883 142.834c-1.13839,-0.00850394 -2.53361,-0.782079 -3.80069,-1.17298 -1.26652,-0.390898 -2.91628,-0.653386 -3.80013,-1.17269 2.17502,-0.233858 6.13446,0.779244 7.60082,2.34567z"/>
  <path fill="white" d="M262.166 138.344c-0.675213,-0.159591 -1.39918,-0.809008 -2.09906,-1.21323 -0.699307,-0.404504 -1.6441,-0.78463 -2.09877,-1.21323 1.32406,0.156473 3.53934,1.29628 4.19783,2.42646z"/>
  <path fill="white" d="M251.559 128.455c-0.691654,-0.0547087 -1.50605,-0.585922 -2.2595,-0.878741 -0.752882,-0.292819 -1.74444,-0.52441 -2.2595,-0.878741 1.33257,-0.0473386 3.69581,0.74126 4.51899,1.75748z"/>
  <path fill="white" d="M259.304 133.151c-0.673229,0.168095 -1.61433,-0.0768189 -2.42164,-0.114803 -0.807024,-0.0385512 -1.82069,0.0572599 -2.42164,-0.114803 1.24838,-0.468567 3.73975,-0.472252 4.84328,0.229606z"/>
  <path fill="white" d="M230.167 145.775c-0.675213,-0.159591 -1.50066,-0.707528 -2.20025,-1.11203 -0.699307,-0.404221 -1.5429,-0.885827 -1.99758,-1.31443 1.54375,0.0467717 3.85994,1.13613 4.19783,2.42646z"/>
  <path fill="white" d="M225.849 146.534c-0.649985,-0.242646 -1.40032,-0.889796 -2.04378,-1.37877 -0.643181,-0.488693 -1.41987,-1.07178 -1.81729,-1.55424 1.52561,0.239811 3.68759,1.61065 3.86107,2.93301z"/>
  <path fill="white" d="M222.004 146.939c-0.649985,-0.242646 -1.40032,-0.889796 -2.04378,-1.37877 -0.643181,-0.488693 -1.41987,-1.07178 -1.81729,-1.55424 1.52561,0.239811 3.68759,1.61065 3.86107,2.93301z"/>
  <path fill="white" d="M217.959 147.063c-0.565512,-0.211181 -1.21805,-0.774142 -1.77761,-1.19934 -0.559559,-0.424914 -1.23506,-0.932315 -1.58088,-1.35184 1.32718,0.20863 3.2074,1.40088 3.35849,2.55118z"/>
  <path fill="white" d="M215.328 147.771c-0.565512,-0.211181 -1.01565,-0.774142 -1.57521,-1.19934 -0.559559,-0.424914 -0.931465,-0.729922 -1.27729,-1.14945 1.32718,0.20863 2.70142,1.19849 2.85251,2.34879z"/>
  <path fill="white" d="M211.9 148.252c-0.524693,-0.298772 -0.879308,-0.926363 -1.36403,-1.43518 -0.484725,-0.508536 -0.803339,-0.868819 -1.07773,-1.33824 1.27673,0.417544 2.47606,1.61376 2.44177,2.77342z"/>
  <path fill="white" d="M209.37 148.252c-0.524693,-0.298772 -0.879308,-0.926363 -1.36403,-1.43518 -0.484725,-0.508536 -0.803339,-0.868819 -1.07773,-1.33824 1.27673,0.417544 2.47606,1.61376 2.44177,2.77342z"/>
  <path fill="white" d="M235.428 137.55c-2.02394,2.12513 -5.05985,1.82154 -7.28618,3.3395 0.236126,3.1371 4.31773,0.607181 6.4766,0.910772 3.84548,4.58759 8.09575,-1.34929 12.1436,-2.02394 -0.101197,-2.56365 -4.75625,-2.90098 -6.679,-4.95865 4.01386,-1.28183 5.59928,-2.83351 4.75625,-4.65506 -4.3543,2.93443 -14.4028,3.94696 -12.5484,6.5778l3.1371 0.809575z"/>
  <path fill="#0057F0" d="M235.428 137.55c1.84224,4.62501 7.14955,-1.43178 9.91106,0.211465 -1.55594,-0.983906 -3.9943,-1.59364 -5.256,-2.94378 3.32277,-1.02246 -0.308693,-2.38791 -2.4738,-1.70136 -3.48888,1.10636 -6.39043,2.10331 -5.31836,3.6241l3.1371 0.809575z"/>
  <path fill="black" stroke="black" stroke-width="0.216" d="M240.083 141.396c-1.55169,-0.438236 -3.20457,-1.41647 -3.94668,-2.93471l-0.607181 2.83351c-0.709796,-1.31556 -1.29827,-4.14709 -0.657071,-5.46322 1.61887,-0.320882 4.46882,3.67427 5.21093,5.56441z"/>
  <path fill="white" d="M151.425 255.253c2.37628,2.35049 3.3874,2.95739 5.76284,6.52111 -3.18444,-2.02195 -4.19556,-2.47691 -5.76284,-6.52111z"/>
  <path fill="white" d="M147.355 262.553c2.58633,1.27247 3.57931,1.49244 6.49673,3.75761 -3.15751,-0.78293 -4.10882,-0.878457 -6.49673,-3.75761z"/>
  <path fill="white" d="M148.246 270.162c2.20167,-0.290551 2.93754,-0.629859 5.7583,-0.253701 -2.3743,1.00828 -3.03279,1.43121 -5.7583,0.253701z"/>
  <path fill="white" d="M153.314 275.618c2.1274,-0.635811 2.80035,-1.08765 5.64492,-1.16362 -2.18438,1.37225 -2.76718,1.89411 -5.64492,1.16362z"/>
  <path fill="black" d="M265.014 324.12c4.43367,0.502583 6.95821,6.06331 10.1429,7.52911l0.0178583 6.57468c-0.994961,-0.0966615 -3.16403,-3.46876 -5.48419,-6.86495 -1.80454,-2.64161 -4.27635,-4.96715 -4.6766,-7.23884z"/>
  <path fill="black" d="M199.892 222.797c-1.76882,3.84151 -5.69991,7.44832 -8.27859,10.482 -7.93644,-9.75657 -12.8398,-12.5365 -19.26,-18.805 4.1349,0.775276 10.131,5.3589 12.2839,3.18473 -7.59345,-8.32281 -15.6484,-18.0301 -23.658,-27.601 3.28592,1.9715 6.42019,4.54961 9.85749,4.54961 -0.227055,-2.47663 -4.06885,-6.47008 -8.94756,-9.70583 -9.60463,-1.21323 -10.8683,-5.15622 -16.3786,-7.73433 -0.724536,-1.32123 0.876473,-2.64302 3.89197,-1.99361 0.778394,-2.62233 1.30309,-5.29484 0.0510236,-7.10561 -4.22164,-4.37244 -5.2835,-8.36561 0.606614,-11.5257 0.20211,-3.08353 1.92076,-5.15622 6.97607,-5.00457 0.809008,-3.38684 3.64025,-4.54933 8.4926,-3.48803 4.90422,-3.41348 11.173,-0.128126 11.9806,10.6158l3.18473 14.5587c1.06186,3.94328 1.71893,8.08867 1.9715,12.4356 6.92561,0.909922 14.7611,4.39795 19.8666,4.54961l-0.606614 -9.40196 -11.5262 -2.42731 -2.73033 -11.0704c2.85619,1.71893 6.04233,6.16763 11.0718,8.79591 0.808725,-0.606614 0.707528,-2.72977 1.06158,-4.09465 6.36945,7.88599 12.9263,23.3637 21.2763,25.5314l-4.74605 0.856347c-6.16763,0.809292 -9.90851,3.43786 -11.2224,7.88599 2.47691,0.505701 7.67481,-0.844441 10.0004,0.874205 -10.1486,1.55452 -17.3398,7.51238 -19.8043,15.9415 1.31471,0.505134 3.27147,0.403937 4.58533,-0.303307z"/>
  <path fill="white" d="M182.211 211.441c-2.98262,-5.03008 -6.92589,-9.57997 -11.5257,-13.8005 4.05666,6.10356 7.87295,10.5267 11.5257,13.8005z"/>
  <path fill="white" d="M182.666 222.512l8.64426 8.03764c1.21351,-2.42617 -6.21751,-8.29021 -8.64426,-8.03764z"/>
  <path fill="#F00000" d="M151.122 175.651c-1.06158,-3.63969 1.21295,-5.45953 6.2178,-5.45953 0.707811,-6.0154 4.34721,-7.78451 8.79591,-4.39795 -1.46608,-4.44813 0.10063,-6.47008 4.70126,-6.06614 2.22406,-2.12315 4.09408,-2.88142 6.06614,-0.909922l3.48803 15.1654c-2.42674,-2.07241 -4.44898,-4.54933 -6.06614,-7.43103 1.16249,3.69043 1.92076,7.38085 2.2748,11.0707 -3.89254,-1.85754 -6.8247,-4.91556 -9.09922,-8.79591 1.16249,3.00813 2.07213,6.1424 2.42646,9.55418 -4.32255,-1.26454 -7.81059,-3.08353 -10.9191,-5.15622 1.61745,3.08296 2.72948,6.41963 2.72977,10.3124 -3.53877,-2.62885 -10.8686,-4.19584 -10.6158,-7.88599z"/>
  <path fill="white" d="M155.065 173.369c1.22485,2.79695 2.7428,3.41036 4.39795,6.98315 -3.84151,-1.01084 -4.54139,-2.87943 -6.3618,-4.69984 -1.37792,-2.16794 -1.82721,-3.64791 1.96384,-2.28331z"/>
  <path fill="white" d="M162.649 167.8c2.69065,3.21109 3.45629,4.99663 5.15481,7.39531 -3.84151,-1.01084 -5.7532,-2.90891 -7.57361,-4.72933 -1.06129,-4.70098 -1.37225,-4.03058 2.4188,-2.66599z"/>
  <path fill="white" d="M169.624 163.67c2.70539,1.84536 4.21881,5.59077 4.24347,9.66019 -1.6251,-1.32747 -4.09323,-4.2412 -5.58596,-6.33855 -2.05767,-2.89077 -2.44857,-4.68624 1.34249,-3.32164z"/>
  <path fill="white" d="M174.173 159.879c1.31386,1.22542 1.9868,2.30003 2.01147,6.36945 -2.47663,-1.31414 -2.14016,-1.80595 -3.05065,-3.77802 -1.21295,-4.24602 -0.932032,-4.10769 1.03918,-2.59143z"/>
  <path fill="#F00000" stroke="black" stroke-width="0.708662" d="M145.511 177.774c4.70126,-0.0504567 8.92829,3.94158 13.3262,6.6206 -9.8572,-1.06129 -14.3875,-2.32356 -13.3262,-6.6206z"/>
  <path fill="white" d="M150.819 166.724c-0.981922,-0.558709 -2.49761,-2.50016 -3.08353,-3.50221 1.61235,0.527244 3.12662,2.03783 3.08353,3.50221z"/>
  <path fill="white" d="M154.181 161.758c-0.657638,-0.538016 -1.53751,-2.16907 -1.84592,-2.98602 1.12961,0.594142 2.06249,1.90517 1.84592,2.98602z"/>
  <path fill="white" d="M160.7 156.782c-0.683433,-0.899434 -1.31499,-3.28025 -1.46069,-4.43169 1.27587,1.11798 2.07553,3.10167 1.46069,4.43169z"/>
  <path fill="white" d="M169.609 155.156c-0.594709,-1.08369 -0.997512,-3.82564 -1.03323,-5.13468 1.16419,1.39238 1.77165,3.70658 1.03323,5.13468z"/>
  <path fill="#F00000" stroke="black" stroke-width="0.708662" d="M147.33 249.961l1.21323 -0.758268c-6.69884,-3.56429 -12.0067,-2.4018 -16.6819,0.909922 3.38684,1.16249 7.53194,0.505418 10.1608,3.48803 3.7406,1.16221 5.45896,0.302457 5.15622,-2.57811 -2.4772,-0.859465 -4.95411,-1.71865 -7.43103,-2.57811 2.52709,-0.378992 5.05474,-0.126425 7.58268,1.51654z"/>
  <path fill="#F00000" stroke="black" stroke-width="0.708662" d="M145.668 256.34l0.801638 -1.67329c-7.42649,-1.5565 -13.8685,2.85874 -16.6774,7.34202 3.57647,0.17263 8.13289,-2.06844 11.4885,0.0634961 2.96844,0.0739843 4.10117,-1.07887 4.08246,-3.76073 -2.61836,-1.04485 -5.99556,-0.270142 -8.61364,-0.405355 2.32129,-1.06838 6.0327,-2.43978 8.91837,-1.56614z"/>
  <path fill="#F00000" stroke="black" stroke-width="0.708662" d="M143.811 265.358l-0.217984 -1.48649c-7.42196,1.57833 -11.4976,7.09541 -12.1901,12.4863 3.3412,-1.28778 5.63811,-4.60829 9.56949,-4.01471 3.61191,-1.5154 5.18712,-4.07254 3.1028,-6.084 -2.4497,0.934867 -5.71125,2.66372 -8.16095,3.5983 1.69172,-1.91537 4.90422,-4.13207 7.89676,-4.49944z"/>
  <path fill="#F00000" stroke="black" stroke-width="0.708662" d="M147.022 272.507l-0.323433 -2.4069c-6.34309,4.16466 -7.98633,9.87449 -6.67503,15.1492 2.64614,-2.41257 2.06419,-4.67235 6.3978,-5.54627 2.81565,-2.72325 2.99367,-4.72933 0.321732,-5.84703 -1.94343,1.76032 -2.78051,2.09027 -4.72366,3.8503 0.881008,-2.39868 2.34737,-3.77065 5.00259,-5.19931z"/>
  <path fill="#F00000" stroke="black" stroke-width="0.708662" d="M150.758 277.496l-1.27247 -0.262772c-1.52447,8.12183 -0.875339,14.074 2.9194,15.7652 0.921827,-4.13405 0.748063,-7.38567 2.42958,-9.21034 1.77591,-2.14526 0.243213,-6.29433 -2.55345,-5.76 -0.916725,2.88425 -0.324284,5.80734 -0.785764,8.38829 -0.769607,-2.43666 -1.96469,-6.16649 -0.737292,-8.92035z"/>
  <path fill="#F00000" stroke="black" stroke-width="0.708662" d="M273.963 396.239l0.35263 -0.605764c-6.09222,-4.62586 -12.1555,-2.60419 -13.3427,1.92076 2.32526,0.555874 7.02709,-1.06072 9.25115,0.909922 3.25729,1.3235 3.19521,1.80113 3.69836,-1.34759 -2.67959,-1.87143 -5.7223,-1.7365 -8.19922,-2.59597 2.83181,-0.531213 6.21893,-0.178016 8.23975,1.71865z"/>
  <path fill="#F00000" stroke="black" stroke-width="0.708662" d="M270.626 402.153l0.809008 -0.555024c-6.40489,-4.0011 -14.0899,2.62687 -13.9507,7.53222 2.63055,0.558142 8.87726,-2.85137 10.8295,-1.05392 4.02321,-0.220536 3.38712,-2.81622 2.80205,-4.3149 -2.4772,-0.859465 -6.96161,0.515906 -9.74212,1.17439 2.61213,-2.07241 7.69947,-4.58561 9.25229,-2.78277z"/>
  <path fill="#F00000" stroke="black" stroke-width="0.708662" d="M271.512 410.704l-2.4395 -2.14101c-5.43402,0.14485 -10.2983,9.11878 -8.92885,13.0723 2.34057,-0.487843 5.0074,-5.98564 8.15046,-5.11625 2.26006,-0.745229 3.15383,-1.5052 2.8664,-4.18451 -2.60731,0.278362 -4.20066,0.756284 -6.65603,1.94428 0.060378,-2.29436 4.37103,-4.42914 7.00753,-3.57477z"/>
  <path fill="#F00000" stroke="black" stroke-width="0.708662" d="M272.626 416.405l-0.977103 0.0345827c-5.98621,-1.38728 -4.8481,8.75027 -2.75443,13.2894 0.921544,-1.78186 2.11635,-4.23496 4.12611,-6.27931 1.28353,-1.16731 0.0861733,-1.94315 0.325134,-3.39449 -3.35877,-0.0731339 -3.06312,1.44624 -4.52325,3.42766 -0.531496,-2.23257 1.35695,-7.06564 3.80353,-7.07783z"/>
  <path fill="#F00000" stroke="black" stroke-width="0.708662" d="M278.475 423.476l-1.06413 -0.433701c-2.89021,6.00435 -1.18658,12.1003 0.342425,12.4308 2.01402,-1.62482 0.929197,-4.11647 4.08132,-5.03207 -0.472252,-2.06362 0.597544,-3.87241 -0.513638,-5.14262 -1.2858,0.36652 -2.58973,2.55543 -3.45657,4.52155 -0.26504,-1.72772 -1.14293,-5.73364 0.610583,-6.34394z"/>
  <path fill="#F00000" stroke="black" stroke-width="0.708662" d="M172.511 378.504l1.9732 -0.130677c-6.46696,-6.51855 -15.2861,-3.84832 -16.2697,1.13726 2.17134,0.478772 6.18208,-1.52277 8.40615,0.447874 3.38995,2.00665 3.38995,2.00665 4.69049,-0.0501733 -2.67959,-1.87143 -4.63947,-2.34028 -7.11638,-3.19975 2.83181,-0.531213 5.68063,-0.871937 8.31629,1.79547z"/>
  <path fill="#F00000" stroke="black" stroke-width="0.708662" d="M169.943 384.727l0.194457 -1.40258c-6.94772,-4.65251 -15.694,2.75726 -15.4108,7.76325 2.63055,0.558142 6.48454,-3.2434 9.58933,-1.67669 3.06397,0.910205 3.87156,1.94854 5.55194,-1.68236 -2.016,-1.3218 -4.7829,-2.57273 -7.56341,-1.91424 2.61213,-1.84592 6.08514,-1.90488 7.63852,-1.08737z"/>
  <path fill="#F00000" stroke="black" stroke-width="0.708662" d="M170.157 392.038l-0.902835 -1.24299c-6.54945,-1.47884 -11.6334,7.76693 -9.94706,12.1805 2.34057,-0.487843 6.00577,-6.60189 9.14911,-5.73279 1.72233,0.487559 3.66406,-0.966048 3.37663,-3.64507 -4.06715,-0.107433 -7.55405,1.98936 -10.0094,3.17707 -0.016441,-2.98772 5.69736,-5.59134 8.33358,-4.7367z"/>
  <path fill="#F00000" stroke="black" stroke-width="0.708662" d="M173.096 400.223l-1.13074 -1.13386c-6.70507,0.878174 -9.11112,9.45298 -6.36605,13.3665 1.07547,-2.93783 4.80558,-3.6961 6.81534,-5.74044 1.28353,-1.16731 1.77676,-2.09707 2.01572,-3.54841 -3.35877,-0.0731339 -4.98416,0.136347 -6.44429,2.11776 -0.463181,-1.95931 2.48202,-4.64939 5.11002,-5.06155z"/>
  <path fill="#F00000" stroke="black" stroke-width="0.708662" d="M175.409 408.36l-1.2172 -0.355748c-3.58611,4.43254 -4.23383,12.1785 -2.50101,12.9699 1.10948,-1.24951 1.0474,-2.49704 2.19997,-4.04419 1.152,-1.54743 2.44375,-1.93039 4.87814,-4.14737 -1.08737,-1.52447 -0.555024,-1.25235 -1.66621,-2.52255 -4.59014,1.59931 -4.1264,3.09458 -4.99323,5.0607 -0.26504,-1.72772 1.54602,-6.35046 3.29953,-6.96076z"/>
  <path fill="#0057F0" stroke="black" stroke-width="0.992126" d="M303.432 127.431c21.8585,-5.56214 47.9673,-14.7674 67.7007,-11.84 -20.5319,13.9541 -39.6105,18.8291 -59.8462,23.6976l0.0564095 -4.60658c-4.85745,3.33921 -8.98895,5.70189 -13.0368,5.80337 3.75166,-4.14992 5.3589,-7.28674 5.12589,-13.0544z"/>
  <path fill="black" d="M185.942 160.522c6.27421,-1.61915 13.8155,-2.96986 20.0897,-4.58901l0.0527244 -1.50038 -20.1424 6.08939z"/>
  <path fill="black" d="M350.185 121.359c-15.0783,5.56583 -31.9782,9.46375 -47.9673,14.4224l1.21436 -1.82154 46.753 -12.6009z"/>
  <path fill="white" stroke="black" stroke-width="0.992126" d="M208.408 153.843c-0.307559,3.74429 0.807024,7.48829 2.12513,11.2329 0.0975119,-4.35288 2.39443,-9.76054 4.93087,-13.3004l-7.056 2.06759z"/>
  <path fill="#F00000" stroke="black" stroke-width="0.992126" d="M198.086 160.826c5.1103,20.5801 21.5385,6.79862 37.4726,11.6099 -11.725,-15.9474 -30.1864,-3.51411 -37.4726,-11.6099z"/>
  <ellipse fill="#BF9F4F" cx="139.763" cy="170.163" rx="4.96264" ry="4.60817"/>
  <path fill="white" d="M135.546 166.898c3.84066,-2.21641 6.4715,-2.01402 7.89336,0.607181 1.31046,2.12485 1.41165,4.24999 -0.0130394,6.05877l-1.50491 -0.290551c-0.607181,-3.03591 -2.83351,-4.45266 -6.679,-4.25027l0.303591 -2.12513z"/>
  <path fill="white" stroke="black" stroke-width="0.992126" d="M212.602 176.557c-0.307559,-3.74429 -0.292252,-6.38901 1.02586,-10.1336 0.0975119,4.35288 2.20337,7.37093 4.73981,10.9108l-5.76567 -0.77726z"/>
  <path fill="white" stroke="black" stroke-width="0.992126" d="M208.408 153.843c-0.307559,3.74429 0.807024,7.48829 2.12513,11.2329 0.0975119,-4.35288 2.39443,-9.76054 4.93087,-13.3004l-7.056 2.06759z"/>
  <line fill="none" stroke="black" stroke-width="1.41732" x1="389.065" y1="168.178" x2="422.466" y2= "169.463" />
  <line fill="none" stroke="black" stroke-width="1.41732" x1="385.211" y1="274.163" x2="417.006" y2= "275.768" />
  <line fill="none" stroke="black" stroke-width="1.41732" x1="373.006" y1="377.257" x2="403.196" y2= "384.643" />
  <line fill="none" stroke="black" stroke-width="1.41732" x1="277.941" y1="454.336" x2="279.547" y2= "487.738" />
  <line fill="none" stroke="black" stroke-width="1.41732" x1="166.497" y1="469.431" x2="186.409" y2= "443.096" />
  <path fill="white" d="M147.318 251.388c-2.24646,-1.12394 -5.13468,-2.19345 -8.66382,-2.88794 2.62063,-0.856063 5.66873,-0.428032 9.14514,1.28353l-0.481323 1.60441z"/>
  <path fill="white" d="M145.392 258.448c-2.24646,-1.12394 -6.09733,-0.268158 -9.62646,-0.320882 2.46019,-1.17695 6.79181,-3.31597 10.2682,-1.60441l-0.641764 1.92529z"/>
  <path fill="white" d="M144.43 266.951c-2.24646,-0.642614 -6.89981,3.31484 -9.30558,3.20882 1.65799,-1.33739 4.22476,-4.75994 8.9847,-4.97367l0.320882 1.76485z"/>
  <path fill="white" d="M147.799 274.331c-2.24646,-0.321732 -5.13496,3.31484 -6.41764,4.17147 0.695339,-0.856063 1.33682,-6.36435 6.09676,-6.57808 0.534614,0.802205 0.641197,1.60441 0.320882,2.40662z"/>
  <path fill="white" d="M152.982 277.871c-1.95534,1.152 -0.816095,8.5235 -1.44312,9.67267 -0.454961,-1.2274 -2.93925,-7.24706 -0.631276,-10.0678 0.918709,0.292536 1.82353,-0.431433 2.07439,0.39515z"/>
  <path fill="white" d="M171.063 394.341c-2.24646,-1.12394 -6.89953,1.65713 -9.46602,3.04838 -0.105449,-3.58186 4.76107,-6.36152 7.70117,-5.45499 1.60413,0.37389 1.87115,1.1761 1.76485,2.40662z"/>
  <path fill="white" d="M169.991 388.885c-0.791717,-3.40271 -6.30284,-3.00473 -9.18341,-2.53049 3.59065,-3.28309 8.06372,-3.0892 9.52668,-1.40428 0.911906,1.03918 0.160158,2.80687 -0.343276,3.93477z"/>
  <path fill="white" d="M170.672 380.564c-0.828567,-2.54154 -5.39688,-2.82558 -7.73405,-3.79616 4.50737,-1.8326 8.79506,-0.418394 9.58224,1.66961 0.494646,1.29118 -0.984473,1.24356 -1.84819,2.12655z"/>
  <path fill="white" d="M174.666 403.925c-2.40406,-1.16872 -4.65789,0.958678 -6.97918,1.96639 -0.10148,-3.48973 3.29669,-5.95644 5.76964,-5.41474 1.27247,0.540567 1.17383,2.21358 1.20954,3.44835z"/>
  <path fill="white" d="M176.432 410.823c-3.68788,1.07745 -3.05377,3.84662 -4.57285,5.17522 -0.10063,-3.59717 2.17417,-7.50785 4.00507,-7.17959 1.27219,0.540851 1.01339,1.57181 0.56778,2.00438z"/>
  <path fill="white" d="M271.389 404.768c-1.43036,-3.08381 -8.3177,0.168378 -10.9483,0.517607 3.59065,-3.28309 8.86621,-5.01421 10.3292,-3.32929 0.269858,0.397418 0.801638,1.84422 0.619087,2.81169z"/>
  <path fill="white" d="M273.541 398.197c-0.636662,-3.19918 -6.88848,-2.56025 -8.748,-3.55068 4.62331,-1.26113 8.35569,0.00113386 8.99604,1.96498 0.403654,1.32236 0.674929,0.764788 -0.248032,1.5857z"/>
  <path fill="white" d="M271.229 413.432c-3.10309,-1.96611 -5.70416,1.41619 -7.41827,1.15965 0.702709,-3.12265 5.65711,-5.65597 7.12007,-3.97106 0.483307,0.396851 0.694205,1.84394 0.298205,2.8114z"/>
  <path fill="white" d="M273.953 420.222c-3.57421,-0.84926 -4.29081,3.35537 -5.35323,3.67087 -0.512221,-3.66265 2.5458,-8.31175 4.47733,-7.1949 1.76627,-0.104315 2.75896,1.94258 0.875906,3.52403z"/>
  <path fill="white" d="M281.469 425.647c-3.10252,0.49663 -2.46898,4.35572 -3.66888,5.03377 -1.28948,-3.76895 -0.435402,-7.86898 1.42101,-7.20199 0.859465,-0.0127559 2.41625,0.735591 2.24788,2.16822z"/>
 </g>
</svg>
