<?xml version="1.0" encoding="UTF-8" standalone="no"?>
<!-- Created with Inkscape (http://www.inkscape.org/) -->
<svg
   xmlns:dc="http://purl.org/dc/elements/1.1/"
   xmlns:cc="http://web.resource.org/cc/"
   xmlns:rdf="http://www.w3.org/1999/02/22-rdf-syntax-ns#"
   xmlns:svg="http://www.w3.org/2000/svg"
   xmlns="http://www.w3.org/2000/svg"
   xmlns:sodipodi="http://sodipodi.sourceforge.net/DTD/sodipodi-0.dtd"
   xmlns:inkscape="http://www.inkscape.org/namespaces/inkscape"
   width="500"
   height="620"
   id="svg1901"
   sodipodi:version="0.32"
   inkscape:version="0.45.1"
   sodipodi:docname="Finström.vaakuna.svg"
   sodipodi:docbase="/"
   version="1.0"
   inkscape:output_extension="org.inkscape.output.svg.inkscape">
  <defs
     id="defs1903" />
  <sodipodi:namedview
     id="base"
     pagecolor="#ffffff"
     bordercolor="#666666"
     borderopacity="1.0"
     inkscape:pageopacity="0.0"
     inkscape:pageshadow="2"
     inkscape:zoom="1"
     inkscape:cx="460"
     inkscape:cy="301.73866"
     inkscape:document-units="px"
     inkscape:current-layer="layer1"
     gridtolerance="10000"
     inkscape:window-width="1272"
     inkscape:window-height="970"
     inkscape:window-x="-2"
     inkscape:window-y="-1"
     width="500px"
     height="620px" />
  <metadata
     id="metadata1906">
    <rdf:RDF>
      <cc:Work
         rdf:about="">
        <dc:format>image/svg+xml</dc:format>
        <dc:type
           rdf:resource="http://purl.org/dc/dcmitype/StillImage" />
        <dc:title>Finströmin vaakuna, Finströms vapen, Coat of arms of Finström</dc:title>
        <dc:date>2007-08-31</dc:date>
        <dc:creator>
          <cc:Agent>
            <dc:title>Hippophaë, Wikipedia</dc:title>
          </cc:Agent>
        </dc:creator>
        <dc:identifier>http://commons.wikimedia.org/wiki/Image:Finström.vaakuna.svg</dc:identifier>
        <dc:subject>
          <rdf:Bag>
            <rdf:li>Finström</rdf:li>
            <rdf:li>vaakuna</rdf:li>
            <rdf:li>vapen</rdf:li>
            <rdf:li>coat of arms</rdf:li>
          </rdf:Bag>
        </dc:subject>
        <cc:license
           rdf:resource="http://web.resource.org/cc/PublicDomain" />
      </cc:Work>
      <cc:License
         rdf:about="http://web.resource.org/cc/PublicDomain">
        <cc:permits
           rdf:resource="http://web.resource.org/cc/Reproduction" />
        <cc:permits
           rdf:resource="http://web.resource.org/cc/Distribution" />
        <cc:permits
           rdf:resource="http://web.resource.org/cc/DerivativeWorks" />
      </cc:License>
    </rdf:RDF>
  </metadata>
  <g
     inkscape:label="Taso 1"
     inkscape:groupmode="layer"
     id="layer1"
     style="opacity:1">
    <path
       style="fill:#ff0000;fill-rule:evenodd;stroke:#000000;stroke-width:1px;stroke-linecap:butt;stroke-linejoin:miter;stroke-opacity:1;fill-opacity:1"
       d="M 0.5,0.5 L 499.5,0.5 L 499.5,420 C 440,510 360,570 250,619.5 C 140,570 60,510 0.5,420 L 0.5,0.5 z "
       id="path2187"
       sodipodi:nodetypes="cccccc" />
    <path
       style="fill:#dfdfdf;fill-rule:evenodd;stroke:#000000;stroke-width:1px;stroke-linecap:butt;stroke-linejoin:miter;stroke-opacity:1;fill-opacity:1"
       d="M 49.3,482.4 C 56.2,478 58.9,470 70,470 C 85,470 85,485 100,485 C 115,485 115,470 130,470 C 145,470 145,485 160,485 C 175,485 175,470 190,470 C 205,470 205,485 220,485 C 235,485 235,470 250,470 C 265,470 265,485 280,485 C 295,485 295,470 310,470 C 325,470 325,485 340,485 C 355,485 355,470 370,470 C 385,470 385,485 400,485 C 415,485 415,470 430,470 C 441.1,470 443.8,478 450.7,482.4 C 433.1,501.3 417.2,516.1 394.6,534.2 C 385,531.5 383,520 370,520 C 355,520 355,535 340,535 C 325,535 325,520 310,520 C 295,520 295,535 280,535 C 265,535 265,520 250,520 C 235,520 235,535 220,535 C 205,535 205,520 190,520 C 175,520 175,535 160,535 C 145,535 145,520 130,520 C 117,520 115,531.5 105.4,534.2 C 82.8,516.1 66.9,501.3 49.3,482.4 z "
       id="path2189"
       sodipodi:nodetypes="csssssssssssssccssssssssscc" />
    <path
       id="path4151"
       style="fill:#bf9f4f;fill-rule:evenodd;stroke:#000000;stroke-width:1px;stroke-linecap:butt;stroke-linejoin:miter;stroke-opacity:1;fill-opacity:1"
       d="M 250,397 C 242.33034,423.48096 234.54651,432.59157 223.5,453.5 C 228.71318,431.25823 234.26002,414.31251 234,387 C 216.42669,408.47918 191.23396,423.45216 163,433 C 221.73396,379.11883 226.10563,364.46828 228,329.5 C 229.68961,298.31151 207.50904,275.57142 173,269 C 144.98499,263.66521 138.73094,284.72086 131.75,299.5 C 136.58363,301.27782 147.91436,302.9224 151,307.25 C 158.14442,317.27002 144.53176,315.57298 147,319.75 C 148.86509,322.90631 164.0074,324.01292 166.25,327 C 173.27466,336.35665 157.50895,335.83282 159.75,339.5 C 161.17561,341.83282 176.02914,347.67858 177,349.75 C 182.89321,362.32367 165.83262,355.08016 166,361 C 166.14394,366.09091 184.72103,373.54602 170.5,386.25 C 163.19659,392.77431 154.18102,380.90547 149,380.5 C 144.59769,380.15547 138.33122,393.21543 132.75,388.25 C 123.61744,380.12506 125.71199,364.0301 123,360.5 C 120.81832,357.66019 109.14816,373.95592 105.75,360.75 C 102.04564,346.35411 109.45456,336.77442 109,330 C 108.75718,326.38121 91.897125,336.64959 95.25,323.5 C 96.896328,317.04329 105.68872,313.91468 107.60836,310.30012 C 109.1285,307.4378 90.66482,303.35688 120.25,297 C 122.07963,282.88043 131.24295,274.0697 139.5,264.75 C 116.24295,263.90303 104.58839,263.40143 93,268 C 83.588392,271.73477 76.027517,277.43333 67.75,283.5 C 48.429186,297.66041 44.663803,289.92211 39,295 C 34.997136,298.58877 39.590419,306.25348 36,310 C 31.923752,314.25348 23.764357,318.25957 18.5,314.75 C 13.764357,311.5929 13.382481,302.35513 16.75,297.25 C 21.705777,289.73709 26.208386,291.57528 30.5,287.75 C 35.101524,283.64848 30.002311,278.04908 43.75,271 C 65.403484,259.91597 102.81144,250.97458 128.25,252 C 184.67189,254.27435 188.16122,258.65682 211.25,271.25 C 233.8477,283.57534 222.81332,257.57613 215,250.5 C 196.95639,234.15882 176.81979,219.11837 154.25,211.25 C 140.48646,206.4517 120.63731,218.90631 107,216 C 100.30398,214.57298 107.24014,203.13551 101.75,202.25 C 96.906806,201.46884 84.353349,207.35688 73.25,206.58333 C 63.077634,205.87465 73.435615,191.92639 70.666667,189.83333 C 67.634323,187.54117 60.476384,189.60141 47.333333,184 C 37.538428,179.82553 51.892985,172.07441 50.666667,169.25 C 49.157857,165.77496 36.822069,164.25461 34.576296,158.44648 C 32.790554,153.82811 37.091676,154.75712 36.219587,151.53517 C 35.668199,149.49806 30.925029,150.2172 32.25,145.5 C 34.075081,139.00229 39.819227,142.74896 42.209167,141.55861 C 44.679133,140.3284 45.085843,131.98257 51.444341,135.18256 C 53.841494,136.38896 61.824418,141.77062 63.5,141 C 67.237364,139.28115 66.560022,125.9969 74.25,131 C 78.458445,133.73802 86.629169,143.57929 92,144.5 C 98.295836,145.57929 94.965237,129.68433 104.25,136.5 C 109.00937,139.99371 118.75793,155.41121 124.5,159 C 129.4246,162.07787 134.09734,146.55805 142.08333,157.5 C 154.30619,174.24706 150.70973,185.39584 162.16667,197.16667 C 175.04306,210.39584 195.55429,223.68995 213,225 C 237.31238,226.82569 235.36333,196.22137 221.75,185.5 C 200.90517,169.08337 127.66251,120.9425 116.85224,111.43574 C 106.76116,102.56146 100.81713,105.13321 89.25,96.5 C 84.76244,93.149376 86.100667,83.186873 84,80 C 81.973935,76.926303 75.495163,78.763921 71.25,73.5 C 67.882187,69.323976 67.539272,61.230607 73.75,56 C 78.409108,52.076151 86.184933,51.944229 92.25,58.75 C 95.259924,62.127515 92.962111,67.647673 95.75,71 C 97.453356,73.048219 106.40863,70.688721 110.75,74.75 C 116.74197,80.355387 113.84447,93.400133 124.5,101.5 C 152.66153,122.90715 188.58466,150.06059 214,164 C 247.34537,182.28875 244.48764,146.54181 243.25,129.75 C 242.68185,122.0416 215.96557,104.16649 213.75,87.25 C 212.06871,74.412858 222.17448,82.472154 223.25,79.5 C 225.03392,74.570214 209.84169,62.920912 208.75,48.25 C 207.85698,36.248847 219.91633,46.721198 222.5,43.75 C 225.11454,40.743297 217.03922,34.728444 219.75,28.75 C 221.65611,24.546198 226.82048,32.771522 229.5,28.25 C 231.89951,24.200977 227.32168,18.39216 231.25,16 C 236.17319,13.00201 237.79398,17.57986 242.25,16.5 C 245.35834,15.746732 240,8 250,8 C 259.99998,8 254.64165,15.746732 257.74999,16.5 C 262.206,17.57986 263.82679,13.00201 268.74997,16 C 272.67828,18.39216 268.10046,24.200977 270.49996,28.25 C 273.17948,32.771522 278.34384,24.546198 280.24994,28.75 C 282.96072,34.728444 274.88541,40.743297 277.49995,43.75 C 280.08361,46.721198 292.14294,36.248847 291.24992,48.25 C 290.15824,62.920912 274.96603,74.570214 276.74995,79.5 C 277.82547,82.472154 287.93122,74.412858 286.24993,87.25 C 284.03437,104.16649 257.31814,122.0416 256.74999,129.75 C 255.51235,146.54181 252.65463,182.28875 285.99993,164 C 311.41522,150.06059 347.33829,122.90715 375.49976,101.5 C 386.15527,93.400133 383.25778,80.355387 389.24974,74.75 C 393.5911,70.688721 402.54635,73.048219 404.24971,71 C 407.03759,67.647673 404.73978,62.127515 407.7497,58.75 C 413.81476,51.944229 421.59057,52.076151 426.24967,56 C 432.46039,61.230607 432.11747,69.323976 428.74966,73.5 C 424.50451,78.763921 418.02574,76.926303 415.99969,80 C 413.89902,83.186873 415.23725,93.149376 410.7497,96.5 C 399.18259,105.13321 393.23857,102.56146 383.14751,111.43574 C 372.33726,120.9425 299.09474,169.08337 278.24995,185.5 C 264.63664,196.22137 262.6876,226.82569 286.99993,225 C 304.44561,223.68995 324.9568,210.39584 337.83317,197.16667 C 349.29008,185.39584 345.69363,174.24706 357.91647,157.5 C 365.90244,146.55805 370.57517,162.07787 375.49976,159 C 381.24182,155.41121 390.99036,139.99371 395.74973,136.5 C 405.03447,129.68433 401.70387,145.57929 407.9997,144.5 C 413.37052,143.57929 421.54123,133.73802 425.74967,131 C 433.43963,125.9969 432.76229,139.28115 436.49965,141 C 438.17522,141.77062 446.15813,136.38896 448.55529,135.18256 C 454.91377,131.98257 455.32048,140.3284 457.79044,141.55861 C 460.18037,142.74896 465.92451,139.00229 467.74959,145.5 C 469.07456,150.2172 464.3314,149.49806 463.78001,151.53517 C 462.90792,154.75712 467.20903,153.82811 465.42329,158.44648 C 463.17753,164.25461 450.84176,165.77496 449.33295,169.25 C 448.10664,172.07441 462.46117,179.82553 452.66629,184 C 439.52325,189.60141 432.36534,187.54117 429.33299,189.83333 C 426.56405,191.92639 436.92201,205.87465 426.74967,206.58333 C 415.64634,207.35688 403.0929,201.46884 398.24972,202.25 C 392.75959,203.13551 399.69574,214.57298 392.99973,216 C 379.36245,218.90631 359.51333,206.4517 345.74982,211.25 C 323.18007,219.11837 303.04351,234.15882 284.99993,250.5 C 277.18663,257.57613 266.15227,283.57534 288.74993,271.25 C 311.83866,258.65682 315.32799,254.27435 371.74977,252 C 397.18828,250.97458 434.59616,259.91597 456.24961,271 C 469.99727,278.04908 464.89806,283.64848 469.49959,287.75 C 473.79119,291.57528 478.29379,289.73709 483.24956,297.25 C 486.61707,302.35513 486.23519,311.5929 481.49956,314.75 C 476.23521,318.25957 468.07584,314.25348 463.9996,310 C 460.40918,306.25348 465.00245,298.58877 460.9996,295 C 455.33581,289.92211 451.57043,297.66041 432.24966,283.5 C 423.97215,277.43333 416.4113,271.73477 406.9997,268 C 395.41134,263.40143 383.7568,263.90303 360.49979,264.75 C 368.75683,274.0697 377.92013,282.88043 379.74976,297 C 409.33488,303.35688 390.87123,307.4378 392.39137,310.30012 C 394.31101,313.91468 403.10338,317.04329 404.74971,323.5 C 408.10257,336.64959 391.24255,326.38121 390.99973,330 C 390.54518,336.77442 397.95408,346.35411 394.24973,360.75 C 390.85157,373.95592 379.18144,357.66019 376.99976,360.5 C 374.28778,364.0301 376.38232,380.12506 367.24978,388.25 C 361.66857,393.21543 355.40211,380.15547 350.99981,380.5 C 345.8188,380.90547 336.80325,392.77431 329.49985,386.25 C 315.27885,373.54602 333.8559,366.09091 333.99984,361 C 334.16722,355.08016 317.10666,362.32367 322.99986,349.75 C 323.97072,347.67858 338.82422,341.83282 340.24983,339.5 C 342.49088,335.83282 326.7252,336.35665 333.74984,327 C 335.99244,324.01292 351.13472,322.90631 352.99981,319.75 C 355.46804,315.57298 341.85541,317.27002 348.99981,307.25 C 352.08545,302.9224 363.41616,301.27782 368.24978,299.5 C 361.26885,284.72086 355.01481,263.66521 326.99986,269 C 292.49088,275.57142 270.31035,298.31151 271.99996,329.5 C 273.89433,364.46828 278.26599,379.11883 336.99984,433 C 308.76593,423.45216 283.57325,408.47918 265.99997,387 C 265.73995,414.31251 271.28678,431.25823 276.49995,453.5 C 265.45346,432.59157 257.66965,423.48096 250,397 z " />
  </g>
</svg>
