<?xml version="1.0" encoding="UTF-8" standalone="no"?>
<!-- Created with Inkscape (http://www.inkscape.org/) -->
<svg
   xmlns:svg="http://www.w3.org/2000/svg"
   xmlns="http://www.w3.org/2000/svg"
   version="1.0"
   width="500.00168"
   height="572.82635"
   id="svg1901">
  <defs
     id="defs1903" />
  <g
     transform="translate(-86.973803,-267.45082)"
     style="opacity:1"
     id="layer1">
    <path
       d="M 87.473803,267.95082 L 87.473803,444.34567 C 87.473803,584.29857 89.047343,626.85029 95.150133,650.28032 C 117.06145,734.40373 172.71312,796.55769 252.73596,826.27327 C 272.04894,833.44492 297.08747,837.96523 322.74732,839.41546 L 322.74732,839.2949 C 327.40291,839.60223 332.15087,839.77718 336.97465,839.77718 C 341.79843,839.77718 346.54639,839.60223 351.20199,839.2949 L 351.20199,839.41546 C 376.86184,837.96524 401.90035,833.44492 421.21334,826.27327 C 501.23618,796.5577 556.88785,734.40373 578.79917,650.28032 C 584.90195,626.8503 586.47549,584.29857 586.47549,444.34567 L 586.47549,267.95082 L 87.473803,267.95082 z "
       style="fill:#1860ab;fill-opacity:1;stroke:#000000;stroke-width:1;stroke-opacity:1"
       id="path4342" />
    <path
       d="M 289.56961,313.89019 L 314.48853,363.7592 C 281.72243,367.85842 251.68703,380.78489 226.8513,400.09279 L 209.1991,347.16739 L 142.14571,414.22078 L 195.1023,431.84179 C 175.77945,456.68424 162.83865,486.72883 158.73753,519.5102 L 108.86851,494.59129 L 108.86851,589.40167 L 158.73753,564.48276 C 162.83757,597.25551 175.78789,627.28133 195.1023,652.11998 L 142.14571,669.77218 L 209.1991,736.79439 L 226.8513,683.86899 C 251.68995,703.18339 281.71577,716.13372 314.48853,720.23376 L 289.56961,770.10277 L 384.37999,770.10277 L 359.46108,720.23376 C 392.23384,716.13372 422.25965,703.18339 447.09831,683.86899 L 464.7505,736.79439 L 531.8039,669.77218 L 478.84731,652.11998 C 498.16171,627.28133 511.11204,597.25551 515.21208,564.48276 L 565.08109,589.40167 L 565.08109,494.59129 L 515.21208,519.5102 C 511.11095,486.72883 498.17015,456.68424 478.84731,431.84179 L 531.8039,414.22078 L 464.7505,347.16739 L 447.09831,400.09279 C 422.26258,380.78489 392.22719,367.85842 359.46108,363.7592 L 384.37999,313.89019 L 289.56961,313.89019 z M 314.51971,414.18959 L 314.51971,486.10826 L 281.08658,486.10826 L 281.08658,519.54139 L 209.16792,519.54139 C 218.5391,465.91117 260.88949,423.56078 314.51971,414.18959 z M 359.42989,414.18959 C 413.06011,423.56078 455.4105,465.91117 464.78169,519.54139 L 392.86303,519.54139 L 392.86303,486.10826 L 359.42989,486.10826 L 359.42989,414.18959 z M 316.01672,521.0384 L 357.93289,521.0384 L 357.93289,562.95456 L 316.01672,562.95456 L 316.01672,521.0384 z M 209.16792,564.45157 L 281.08658,564.45157 L 281.08658,597.8847 L 314.51971,597.8847 L 314.51971,669.80337 C 260.88949,660.43218 218.5391,618.08179 209.16792,564.45157 z M 392.86303,564.45157 L 464.78169,564.45157 C 455.4105,618.08179 413.06011,660.43218 359.42989,669.80337 L 359.42989,597.8847 L 392.86303,597.8847 L 392.86303,564.45157 z "
       style="fill:#dfdfdf;fill-opacity:1;stroke:#000000;stroke-width:1;stroke-opacity:1"
       id="path2187" />
  </g>
</svg>
