<?xml version="1.0" encoding="UTF-8" standalone="no"?>
<!-- Created with Inkscape (http://www.inkscape.org/) -->
<svg
   xmlns:dc="http://purl.org/dc/elements/1.1/"
   xmlns:cc="http://web.resource.org/cc/"
   xmlns:rdf="http://www.w3.org/1999/02/22-rdf-syntax-ns#"
   xmlns:svg="http://www.w3.org/2000/svg"
   xmlns="http://www.w3.org/2000/svg"
   xmlns:sodipodi="http://sodipodi.sourceforge.net/DTD/sodipodi-0.dtd"
   xmlns:inkscape="http://www.inkscape.org/namespaces/inkscape"
   width="500"
   height="580"
   id="svg2"
   sodipodi:version="0.32"
   inkscape:version="0.45.1"
   sodipodi:docbase="/"
   sodipodi:docname="Föglö.vaakuna.svg"
   version="1.0"
   inkscape:output_extension="org.inkscape.output.svg.inkscape">
  <defs
     id="defs4" />
  <sodipodi:namedview
     id="base"
     pagecolor="#ffffff"
     bordercolor="#666666"
     borderopacity="1.0"
     inkscape:pageopacity="0.0"
     inkscape:pageshadow="2"
     inkscape:zoom="1"
     inkscape:cx="453.25306"
     inkscape:cy="305.07138"
     inkscape:document-units="px"
     inkscape:current-layer="layer1"
     inkscape:window-width="1273"
     inkscape:window-height="971"
     inkscape:window-x="-1"
     inkscape:window-y="-1"
     height="580px" />
  <metadata
     id="metadata7">
    <rdf:RDF>
      <cc:Work
         rdf:about="">
        <dc:format>image/svg+xml</dc:format>
        <dc:type
           rdf:resource="http://purl.org/dc/dcmitype/StillImage" />
        <dc:title>Föglön vaakuna, Föglö vapen, Coat of arms of Föglö</dc:title>
        <dc:creator>
          <cc:Agent>
            <dc:title>Hippophaë, Wikipedia</dc:title>
          </cc:Agent>
        </dc:creator>
        <dc:subject>
          <rdf:Bag>
            <rdf:li>Föglö</rdf:li>
            <rdf:li>vaakuna</rdf:li>
            <rdf:li>vapen</rdf:li>
            <rdf:li>coat of arms</rdf:li>
          </rdf:Bag>
        </dc:subject>
        <cc:license
           rdf:resource="http://web.resource.org/cc/PublicDomain" />
        <dc:date>2007-07-22</dc:date>
        <dc:identifier>http://commons.wikimedia.org/wiki/Image:Föglö.vaakuna.svg</dc:identifier>
      </cc:Work>
      <cc:License
         rdf:about="http://web.resource.org/cc/PublicDomain">
        <cc:permits
           rdf:resource="http://web.resource.org/cc/Reproduction" />
        <cc:permits
           rdf:resource="http://web.resource.org/cc/Distribution" />
        <cc:permits
           rdf:resource="http://web.resource.org/cc/DerivativeWorks" />
      </cc:License>
    </rdf:RDF>
  </metadata>
  <g
     inkscape:label="Layer 1"
     inkscape:groupmode="layer"
     id="layer1">
    <path
       style="fill:#0000bf;fill-opacity:1;fill-rule:evenodd;stroke:black;stroke-width:1px;stroke-linecap:butt;stroke-linejoin:miter;stroke-opacity:1"
       d="M 0.5,0.5 L 499.5,0.5 L 499.5,440 C 499.5,540 485,545 370,545 C 300,545 260,540 250,579.5 C 240,540 200,545 130,545.625 C 15,545 0.5,540 0.5,440 L 0.5,0.5 z "
       id="path3671"
       sodipodi:nodetypes="cccscscc" />
    <path
       style="fill:#bf9f4f;fill-opacity:1;fill-rule:evenodd;stroke:black;stroke-width:1px;stroke-linecap:butt;stroke-linejoin:miter;stroke-opacity:1"
       d="M 140,491 C 157.24884,457.036 172.64965,426.94631 205,411.5 C 215.5589,406.45845 231.9723,410.97857 243,402 C 239.18168,393.89478 225.45984,381.90905 215,374.5 C 209.45984,370.57572 204.10588,372.43586 198.5,369 C 193.77255,366.10253 189.83333,359 186.5,354 C 179.97229,348.48384 173.98243,344.3328 167.5,337.5 C 177.83333,339.83333 181.66667,342.66667 192,345 C 198.33333,344.66667 204.76236,342.14911 213.5,346.5 C 219.29221,349.38422 222,355.16667 226,361.5 C 232.66667,366.5 238.58553,373.31957 246,376.5 C 252.5889,379.3263 262.99663,376.65992 269,375 C 263,362.66667 251.9242,350.46253 255.5,338.5 C 265.69094,304.4071 293.43918,281.06531 325,267 C 323.60417,271.875 319.60707,278.48407 318.10918,282.92694 C 316.61128,287.36981 319.58808,291.43596 319.2136,295.85666 C 318.8146,300.56684 312.6728,300.63514 311.91612,305.88748 C 311.02149,312.09734 315.52147,311.71859 314.81959,318.11775 C 314.07157,324.93764 307.34309,324.71686 306.70655,329.88018 C 306.01335,335.50308 310.37029,337.63051 309.95329,343.06997 C 309.57192,348.04449 304.70315,351.40726 304.30328,357.12922 C 303.90071,362.88977 308.77313,368.55306 307,375 C 305.3818,380.88364 298.89725,383.55482 297.5,388 C 303.71236,396.68727 346.47606,425.93242 343.5,447 C 342.76331,452.21502 334.47814,448.06393 326.5,449.5 C 317.81148,451.06393 310.22866,454.94558 302,453.5 C 285.56199,450.61224 271.22674,441.18839 260.5,436 C 254.56195,437.15177 249.13314,448.03234 241.5,452.5 C 235.44521,456.04385 231.26154,452.74994 223.43651,455.76521 C 216.91738,458.27727 217.90399,464.05082 213.25627,465.93685 C 208.38299,467.91442 205.68956,465.77008 200.3276,467.46238 C 194.95717,469.15735 196.19383,476.5502 190.61409,478.14452 C 184.56669,479.87246 183.9834,476.57624 178.57935,477.786 C 173.67102,478.88479 171.57586,482.44994 168.18697,483.68956 C 164.79808,484.92917 161.43084,482.88737 156.90055,484.65792 C 150.73012,487.06948 147.08753,487.49148 140,491 z "
       id="path2804"
       sodipodi:nodetypes="cscsscccscscscsssssssscssscssssssssc" />
    <path
       style="fill:none;fill-opacity:0.75;fill-rule:evenodd;stroke:black;stroke-width:1px;stroke-linecap:round;stroke-linejoin:miter;stroke-opacity:1"
       d="M 186.25,353.15 C 186.97578,349.15104 189.04273,346.94031 191.35,345.05"
       id="path2806"
       sodipodi:nodetypes="cc" />
    <path
       sodipodi:type="arc"
       style="opacity:1;fill:black;fill-opacity:1;stroke:none;stroke-width:2;stroke-linecap:round;stroke-linejoin:miter;stroke-miterlimit:4;stroke-dasharray:none;stroke-opacity:1"
       id="path3693"
       sodipodi:cx="201"
       sodipodi:cy="351.39999"
       sodipodi:rx="2"
       sodipodi:ry="2.2"
       d="M 203 351.39999 A 2 2.2 0 1 1  199,351.39999 A 2 2.2 0 1 1  203 351.39999 z"
       transform="matrix(1.227273,0,0,1.227273,-45.82727,-80.96363)" />
    <path
       style="fill:#bf9f4f;fill-opacity:1;fill-rule:evenodd;stroke:black;stroke-width:1px;stroke-linecap:butt;stroke-linejoin:miter;stroke-opacity:1"
       d="M 25.5,249.5 C 42.74884,215.536 58.14965,185.44631 90.5,170 C 101.0589,164.95845 117.4723,169.47857 128.5,160.5 C 124.68168,152.39478 110.95984,140.40905 100.5,133 C 94.95984,129.07572 89.60588,130.93586 84,127.5 C 79.27255,124.60253 75.33333,117.5 72,112.5 C 65.47229,106.98384 59.48243,102.8328 53,96 C 63.33333,98.33333 67.16667,101.16667 77.5,103.5 C 83.83333,103.16667 90.26236,100.64911 99,105 C 104.79221,107.88422 107.5,113.66667 111.5,120 C 118.16667,125 124.08553,131.81957 131.5,135 C 138.0889,137.8263 148.49663,135.15992 154.5,133.5 C 148.5,121.16667 137.4242,108.96253 141,97 C 151.19094,62.9071 178.93918,39.56531 210.5,25.5 C 209.10417,30.375 205.10707,36.98407 203.60918,41.42694 C 202.11128,45.86981 205.08808,49.93596 204.7136,54.35666 C 204.3146,59.06684 198.1728,59.13514 197.41612,64.38748 C 196.52149,70.59734 201.02147,70.21859 200.31959,76.61775 C 199.57157,83.43764 192.84309,83.21686 192.20655,88.38018 C 191.51335,94.00308 195.87029,96.13051 195.45329,101.56997 C 195.07192,106.54449 190.20315,109.90726 189.80328,115.62922 C 189.40071,121.38977 194.27313,127.05306 192.5,133.5 C 190.8818,139.38364 184.39725,142.05482 183,146.5 C 189.21236,155.18727 231.97606,184.43242 229,205.5 C 228.26331,210.71502 219.97814,206.56393 212,208 C 203.31148,209.56393 195.72866,213.44558 187.5,212 C 171.06199,209.11224 156.72674,199.68839 146,194.5 C 140.06195,195.65177 134.63314,206.53234 127,211 C 120.94521,214.54385 116.76154,211.24994 108.93651,214.26521 C 102.41738,216.77727 103.40399,222.55082 98.75627,224.43685 C 93.88299,226.41442 91.18956,224.27008 85.8276,225.96238 C 80.45717,227.65735 81.69383,235.0502 76.11409,236.64452 C 70.06669,238.37246 69.4834,235.07624 64.07935,236.286 C 59.17102,237.38479 57.07586,240.94994 53.68697,242.18956 C 50.29808,243.42917 46.93084,241.38737 42.40055,243.15792 C 36.23012,245.56948 32.58753,245.99148 25.5,249.5 z "
       id="path8142"
       sodipodi:nodetypes="cscsscccscscscsssssssscssscssssssssc" />
    <path
       style="fill:none;fill-opacity:0.75;fill-rule:evenodd;stroke:black;stroke-width:1px;stroke-linecap:round;stroke-linejoin:miter;stroke-opacity:1"
       d="M 71.75,111.65 C 72.47578,107.65104 74.54273,105.44031 76.85,103.55"
       id="path8144"
       sodipodi:nodetypes="cc" />
    <path
       sodipodi:type="arc"
       style="opacity:1;fill:black;fill-opacity:1;stroke:none;stroke-width:2;stroke-linecap:round;stroke-linejoin:miter;stroke-miterlimit:4;stroke-dasharray:none;stroke-opacity:1"
       id="path8146"
       sodipodi:cx="201"
       sodipodi:cy="351.39999"
       sodipodi:rx="2"
       sodipodi:ry="2.2"
       d="M 203 351.39999 A 2 2.2 0 1 1  199,351.39999 A 2 2.2 0 1 1  203 351.39999 z"
       transform="matrix(1.227273,0,0,1.227273,-160.3273,-322.4636)" />
    <path
       style="fill:#bf9f4f;fill-opacity:1;fill-rule:evenodd;stroke:black;stroke-width:1px;stroke-linecap:butt;stroke-linejoin:miter;stroke-opacity:1"
       d="M 275.5,249.5 C 292.74884,215.536 308.14965,185.44631 340.5,170 C 351.0589,164.95845 367.4723,169.47857 378.5,160.5 C 374.68168,152.39478 360.95984,140.40905 350.5,133 C 344.95984,129.07572 339.60588,130.93586 334,127.5 C 329.27255,124.60253 325.33333,117.5 322,112.5 C 315.47229,106.98384 309.48243,102.8328 303,96 C 313.33333,98.33333 317.16667,101.16667 327.5,103.5 C 333.83333,103.16667 340.26236,100.64911 349,105 C 354.79221,107.88422 357.5,113.66667 361.5,120 C 368.16667,125 374.08553,131.81957 381.5,135 C 388.0889,137.8263 398.49663,135.15992 404.5,133.5 C 398.5,121.16667 387.4242,108.96253 391,97 C 401.19094,62.9071 428.93918,39.56531 460.5,25.5 C 459.10417,30.375 455.10707,36.98407 453.60918,41.42694 C 452.11128,45.86981 455.08808,49.93596 454.7136,54.35666 C 454.3146,59.06684 448.1728,59.13514 447.41612,64.38748 C 446.52149,70.59734 451.02147,70.21859 450.31959,76.61775 C 449.57157,83.43764 442.84309,83.21686 442.20655,88.38018 C 441.51335,94.00308 445.87029,96.13051 445.45329,101.56997 C 445.07192,106.54449 440.20315,109.90726 439.80328,115.62922 C 439.40071,121.38977 444.27313,127.05306 442.5,133.5 C 440.8818,139.38364 434.39725,142.05482 433,146.5 C 439.21236,155.18727 481.97606,184.43242 479,205.5 C 478.26331,210.71502 469.97814,206.56393 462,208 C 453.31148,209.56393 445.72866,213.44558 437.5,212 C 421.06199,209.11224 406.72674,199.68839 396,194.5 C 390.06195,195.65177 384.63314,206.53234 377,211 C 370.94521,214.54385 366.76154,211.24994 358.93651,214.26521 C 352.41738,216.77727 353.40399,222.55082 348.75627,224.43685 C 343.88299,226.41442 341.18956,224.27008 335.8276,225.96238 C 330.45717,227.65735 331.69383,235.0502 326.11409,236.64452 C 320.06669,238.37246 319.4834,235.07624 314.07935,236.286 C 309.17102,237.38479 307.07586,240.94994 303.68697,242.18956 C 300.29808,243.42917 296.93084,241.38737 292.40055,243.15792 C 286.23012,245.56948 282.58753,245.99148 275.5,249.5 z "
       id="path8148"
       sodipodi:nodetypes="cscsscccscscscsssssssscssscssssssssc" />
    <path
       style="fill:none;fill-opacity:0.75;fill-rule:evenodd;stroke:black;stroke-width:1px;stroke-linecap:round;stroke-linejoin:miter;stroke-opacity:1"
       d="M 321.75,111.65 C 322.47578,107.65104 324.54273,105.44031 326.85,103.55"
       id="path8150"
       sodipodi:nodetypes="cc" />
    <path
       sodipodi:type="arc"
       style="opacity:1;fill:black;fill-opacity:1;stroke:none;stroke-width:2;stroke-linecap:round;stroke-linejoin:miter;stroke-miterlimit:4;stroke-dasharray:none;stroke-opacity:1"
       id="path8152"
       sodipodi:cx="201"
       sodipodi:cy="351.39999"
       sodipodi:rx="2"
       sodipodi:ry="2.2"
       d="M 203 351.39999 A 2 2.2 0 1 1  199,351.39999 A 2 2.2 0 1 1  203 351.39999 z"
       transform="matrix(1.227273,0,0,1.227273,89.6727,-322.4636)" />
  </g>
</svg>
