<?xml version="1.0" encoding="UTF-8" standalone="no"?>
<!-- Created with Inkscape (http://www.inkscape.org/) -->
<svg
   xmlns:dc="http://purl.org/dc/elements/1.1/"
   xmlns:cc="http://web.resource.org/cc/"
   xmlns:rdf="http://www.w3.org/1999/02/22-rdf-syntax-ns#"
   xmlns:svg="http://www.w3.org/2000/svg"
   xmlns="http://www.w3.org/2000/svg"
   xmlns:sodipodi="http://sodipodi.sourceforge.net/DTD/sodipodi-0.dtd"
   xmlns:inkscape="http://www.inkscape.org/namespaces/inkscape"
   width="500"
   height="625"
   id="svg2"
   sodipodi:version="0.32"
   inkscape:version="0.45.1"
   sodipodi:docbase="/"
   sodipodi:docname="Geta.vaakuna.svg"
   version="1.0"
   inkscape:output_extension="org.inkscape.output.svg.inkscape">
  <defs
     id="defs4" />
  <sodipodi:namedview
     id="base"
     pagecolor="#ffffff"
     bordercolor="#666666"
     borderopacity="1.0"
     inkscape:pageopacity="0.0"
     inkscape:pageshadow="2"
     inkscape:zoom="1"
     inkscape:cx="386.24308"
     inkscape:cy="304.70375"
     inkscape:document-units="px"
     inkscape:current-layer="layer1"
     inkscape:window-width="1271"
     inkscape:window-height="968"
     inkscape:window-x="0"
     inkscape:window-y="0"
     height="625px" />
  <metadata
     id="metadata7">
    <rdf:RDF>
      <cc:Work
         rdf:about="">
        <dc:format>image/svg+xml</dc:format>
        <dc:type
           rdf:resource="http://purl.org/dc/dcmitype/StillImage" />
        <dc:title>Getan vaakuna, Geta vapen, Coat of arms of Geta</dc:title>
        <dc:creator>
          <cc:Agent>
            <dc:title>Hippophaë, Wikipedia</dc:title>
          </cc:Agent>
        </dc:creator>
        <dc:subject>
          <rdf:Bag>
            <rdf:li>Geta</rdf:li>
            <rdf:li>vaakuna</rdf:li>
            <rdf:li>vapen</rdf:li>
            <rdf:li>coat of arms</rdf:li>
          </rdf:Bag>
        </dc:subject>
        <cc:license
           rdf:resource="http://web.resource.org/cc/PublicDomain" />
        <dc:date>2006-09-16</dc:date>
        <dc:identifier>http://commons.wikimedia.org/wiki/Image:Geta.vaakuna.svg</dc:identifier>
      </cc:Work>
      <cc:License
         rdf:about="http://web.resource.org/cc/PublicDomain">
        <cc:permits
           rdf:resource="http://web.resource.org/cc/Reproduction" />
        <cc:permits
           rdf:resource="http://web.resource.org/cc/Distribution" />
        <cc:permits
           rdf:resource="http://web.resource.org/cc/DerivativeWorks" />
      </cc:License>
    </rdf:RDF>
  </metadata>
  <g
     inkscape:label="Layer 1"
     inkscape:groupmode="layer"
     id="layer1">
    <path
       style="fill:#0000bf;fill-opacity:1;fill-rule:evenodd;stroke:black;stroke-width:1px;stroke-linecap:butt;stroke-linejoin:miter;stroke-opacity:1"
       d="M 0.5,0.5 L 499.5,0.5 L 499.5,420 C 450,510 340,590 250,624.5 C 160,590 50,510 0.5,420 L 0.5,0.5 z "
       id="path3671"
       sodipodi:nodetypes="cccccc" />
    <path
       style="fill:#bf9f4f;fill-opacity:1;fill-rule:evenodd;stroke:black;stroke-width:2;stroke-linecap:butt;stroke-linejoin:miter;stroke-opacity:1;stroke-miterlimit:4;stroke-dasharray:none"
       d="M 38.5,123.5 C 34.641426,117.58238 50.133058,98.291225 55.5,97.5 C 60.419376,96.774758 72.394826,111.34841 82.5,116 C 93.394826,121.01508 107.38341,117.71456 115,125 C 122.71674,132.38123 119.82287,147.76364 126,164.5 C 128.49277,171.25392 145.26257,195.69986 157.5,195.5 C 170.28224,195.29941 180.09643,186.84684 191,181 C 203.09643,174.51351 226.46334,177.50814 226.5,158.5 C 226.51263,151.95059 224.66501,148.54587 215.5,148.75 C 205.20383,148.97932 200.84243,159.4594 197.37196,164.13452 C 197.21268,161.4283 196.67168,159.97377 195.49732,158.25854 C 194.48963,160.5433 193.26525,162.1507 190.57252,163.56834 C 191.3798,159.81932 191.43891,154.50564 184.86623,153.78137 C 181.89482,153.45394 175.65526,151.72147 175.16667,150.5 C 173.78769,147.05255 187.94763,143.3263 187.5,142.5 C 186.6884,141.00182 174.48761,148.86064 168.25,148.5 C 160.5821,148.05666 149.44173,143.76085 149,136 C 147.7918,114.77283 210.19012,91.251392 234.5,65.5 C 239.90756,59.771791 229.08387,52.895484 222.5,47 C 235.75054,48.562151 246.75394,49.13418 254.5,56 C 299.75394,37.63418 328.88996,48.792278 348.5,58.5 C 327.09157,58.001453 298.36889,53.298727 267,72 C 320.70222,63.465394 337,73.378416 353,83.5 C 302,83.711749 268.95559,83.313929 269,115.5 C 269.02831,136.01471 282.42391,139.9321 295.5,140 C 332.38346,140.18446 326.85128,182.72947 326.5,206.5 C 320.51794,182.5628 316.76641,170.69816 302.5,166.5 C 310.59974,185.36483 311.47213,196.23419 309.5,214.5 C 303.30546,192.56753 298.67299,186.42765 289.5,176.5 C 292.00632,192.26099 293.19463,207.52394 291,224.5 C 286.49567,204.15657 284.13861,197.68966 274.5,187.5 C 277.55023,202.47508 280.01639,215.766 275.5,235.5 C 273.656,221.766 269.39159,211.43285 263,205 C 264.1905,221.76618 263.66084,230.33333 261,245.5 C 258.80298,236.15475 257.33333,232 253,228.5 C 250.66667,231.5 242.94798,243.05284 242.5,266.5 C 242.23348,280.44962 264.27103,292.73886 302.5,292.5 C 323.07197,292.37146 340.92702,306.22238 353.5,318.5 C 362.59368,303.88905 379.9797,295.38129 393.5,295 C 408.16452,294.58644 411.97427,301.88078 415,307.5 C 409.64093,307.04745 406.64929,307.02933 400.5,309.5 C 402.81595,315.02933 404.15416,324.08646 403,330.5 C 396.82082,324.41979 388.9323,318.5 381.5,318.5 C 376.09897,318.5 366.04638,316.94558 359,324.5 C 379.21304,335.11225 385.5682,349.75083 385.5,360.5 C 385.32556,388.99207 362.89002,390.87613 363.56378,409.67532 C 363.76946,415.26156 368.96987,424.2773 378.84932,423.78185 C 395.57162,422.94323 394.1395,418.69791 401.24535,418.68573 C 405.62135,418.6778 403.95107,423.3351 405.36409,424.71336 C 407.05193,426.3597 411.27341,424.19087 410.98259,431.06683 C 410.62004,439.63859 398.79578,438.83768 398.94957,445.71188 C 399.01134,448.47314 402.59807,449.66384 402.86064,459.54173 C 403.00868,465.11105 384.58019,475.33267 376.8125,484.28549 C 369.04482,493.2383 371.43298,508.77661 369.22922,511.41636 C 368.38117,512.43218 356.92742,511.82061 356.39276,517.34338 C 355.58041,525.73453 367.09647,532.19106 363.52673,535.16265 C 356.38724,541.10583 344.90452,535.10923 339.7649,536.77026 C 329.48567,540.09234 334.5788,526.045 334.53482,521.4076 C 334.37657,503.72104 381.8138,474.15829 381.82915,451.43177 C 381.83237,446.65836 379.08319,442.11669 369.09823,441.70476 C 362.54948,441.43459 360.85174,446.5641 354.70798,453.57698 C 355.13296,441.12851 352.6922,436.54574 348.87226,429.06638 C 346.25935,441.94805 343.0807,449.18591 336.09451,458.1595 C 335.78186,446.76326 334.95586,443.61703 331.23656,435.25272 C 326.76727,448.63842 324.15469,455.30604 319.0189,464.03751 C 318.7225,454.48504 318.74819,452.08826 317.46087,440.92211 C 311.86038,451.18347 310.7512,453.19448 302.28632,460.44067 C 306.99883,441.87252 306.25809,433.15806 304.60635,417.34823 C 300.93993,418.59765 295.72199,419.73115 291.05425,419.71904 C 279.90598,419.69012 280.27813,410.19529 270.80335,410.21629 C 256.65495,410.24377 252.09454,397.62682 266.71147,382.10056 C 247.27013,405.73376 264.29699,403.40069 264.13062,415.40768 C 264.0096,424.14173 248.47897,438.52776 244.96396,439.66198 C 248.6539,430.94884 248.84748,426.03077 246.64642,419.1281 C 238.44535,429.97544 234.59965,434.58818 224.46103,442.68666 C 227.8224,434.53514 230.14086,430.86937 230.51812,422.40966 C 204.33175,437.05481 185.59415,458.59384 172.80196,476.76243 C 169.39892,481.59573 170.72001,490.63158 169.42801,490.6191 C 166.19662,490.5879 165.65498,484.08477 157.62684,483.79995 C 152.97934,483.63507 161.40145,505.9922 158.97457,508.23346 C 156.42255,510.59029 133.55909,510.85282 131.78481,507.63915 C 130.19536,504.76024 139.40015,483.88137 142.87118,477.98655 C 147.81765,469.58601 154.86068,464.96834 166.13046,448.90929 C 177.40024,432.85023 186.12665,416.55122 189.75022,412.18371 C 197.74638,402.54589 216.0793,392.48936 222.60751,385.03635 C 232.93902,373.24125 243.35921,351.23384 257.63648,350.51008 C 262.96347,350.24004 298.40443,348.50241 299.10132,386.01514 C 298.5273,348.46878 263.84407,350.16891 258.21612,350.24841 C 196.5373,351.11969 153.53169,335.32518 143.55222,277.00937 C 141.20724,290.86005 139.11954,299.7884 128.84968,315.96242 C 132.32982,303.63643 129.6278,298.3061 125.30419,290.13942 C 123.98059,296.47274 123.28539,304.71971 116.02918,312.7983 C 117.02297,305.62689 118.20574,300.28711 116.63807,295.19695 C 112.82039,300.35679 110.00227,302.51624 104.24427,305.09329 C 116.73627,269.17034 97.038397,253.16499 86.711214,253.74523 C 76.384032,254.32546 66.814466,265.69791 62.902317,274.66067 C 59.676116,282.05192 64.572475,288.70961 62.820675,290.48241 C 61.36697,291.95354 49.050607,289.46274 49.039247,297.15717 C 49.031087,302.68425 58.25113,299.10002 59.884025,301.2554 C 60.778429,302.43599 55.01805,303.28513 55.181,307.59752 C 55.237724,309.09869 69.039588,305.62483 69.923823,308.81237 C 71.223243,313.49658 55.338615,331.17461 52.602044,330.4534 C 37.288081,326.41751 26.981854,305.36406 27.037029,294.57012 C 27.120647,278.2118 55.744168,222.03806 76.050142,221.21203 C 93.223302,220.51344 88.965354,246.04268 123.21275,246.92862 C 135.46477,247.24556 138.28984,243.73849 138.5962,237.01938 C 138.95744,232.11373 138.84575,218.70082 139.22646,213.81478 C 133.29892,218.14961 128.05541,219.48214 112.31113,225.02144 C 118.39275,217.97668 121.54685,214.47736 122.78533,206.53173 C 115.02382,211.58611 109.34669,212.19418 97.765839,213.86419 C 104.18499,205.0342 105.20042,204.76616 105.32401,196.56831 C 99.269652,199.72639 91.024093,202.0534 78.031223,201.6936 C 95.38306,190.14439 105.33418,187.4368 105.95883,166.78956 C 106.54557,147.39527 81.936823,135.39537 75.650496,135.31166 C 67.443227,135.20237 63.988875,136.71956 61.899102,135.77103 C 59.791627,134.81447 63.696677,126.61706 56.617646,125.29754 C 50.218077,124.10467 40.557457,126.65538 38.5,123.5 z "
       id="path3679"
       sodipodi:nodetypes="csssssssscccsssssscccccssccccccccccsscscccscssssssssssssssssccccccccsscsccccsssssssssscsccccccssssssssssscccccccsssss" />
    <path
       style="fill:none;fill-opacity:0.75;fill-rule:evenodd;stroke:black;stroke-width:2;stroke-linecap:butt;stroke-linejoin:miter;stroke-opacity:1;stroke-miterlimit:4;stroke-dasharray:none"
       d="M 139.29167,213.70833 C 140.05433,207.34017 147.60902,197.08606 156.95833,195.45833"
       id="path6336"
       sodipodi:nodetypes="cc" />
    <path
       style="fill:#bf9f4f;fill-opacity:1;fill-rule:evenodd;stroke:black;stroke-width:2;stroke-linecap:butt;stroke-linejoin:miter;stroke-opacity:1;stroke-miterlimit:4;stroke-dasharray:none"
       d="M 243.5,103.5 C 259.01138,102.71955 272.05752,104.84145 286,115.75 C 273.72275,124.64037 261.84204,132.39104 246.25,133"
       id="path6338"
       sodipodi:nodetypes="ccc" />
    <path
       style="fill:black;fill-opacity:1;fill-rule:evenodd;stroke:black;stroke-width:1px;stroke-linecap:butt;stroke-linejoin:miter;stroke-opacity:1"
       d="M 194.3649,111.10672 C 197.91061,117.8381 211.5996,111.01472 216.36132,104.64279 C 207.63702,103.10076 195.1619,102.80427 194.3649,111.10672 z "
       id="path6340"
       sodipodi:nodetypes="ccc" />
    <path
       style="fill:none;fill-opacity:0.75;fill-rule:evenodd;stroke:black;stroke-width:2;stroke-linecap:butt;stroke-linejoin:miter;stroke-opacity:1;stroke-miterlimit:4;stroke-dasharray:none"
       d="M 143.5,277.5 C 144.02626,269.53361 153.42548,263.74859 159.25,262 C 173.4193,257.7462 181.26437,262.76724 192.75,253.25"
       id="path6342"
       sodipodi:nodetypes="csc" />
  </g>
</svg>
