<?xml version="1.0" encoding="UTF-8" standalone="no"?>
<!-- Created with Inkscape (http://www.inkscape.org/) -->
<svg
   xmlns:dc="http://purl.org/dc/elements/1.1/"
   xmlns:cc="http://creativecommons.org/ns#"
   xmlns:rdf="http://www.w3.org/1999/02/22-rdf-syntax-ns#"
   xmlns:svg="http://www.w3.org/2000/svg"
   xmlns="http://www.w3.org/2000/svg"
   xmlns:sodipodi="http://sodipodi.sourceforge.net/DTD/sodipodi-0.dtd"
   xmlns:inkscape="http://www.inkscape.org/namespaces/inkscape"
   width="500"
   height="550"
   id="svg2"
   sodipodi:version="0.32"
   inkscape:version="0.46"
   version="1.0"
   sodipodi:docbase=""
   sodipodi:docname="Hailuoto.vaakuna.svg"
   inkscape:output_extension="org.inkscape.output.svg.inkscape">
  <defs
     id="defs4">
    <inkscape:perspective
       sodipodi:type="inkscape:persp3d"
       inkscape:vp_x="0 : 275 : 1"
       inkscape:vp_y="0 : 1000 : 0"
       inkscape:vp_z="500 : 275 : 1"
       inkscape:persp3d-origin="250 : 183.33333 : 1"
       id="perspective10" />
  </defs>
  <sodipodi:namedview
     id="base"
     pagecolor="#ffffff"
     bordercolor="#666666"
     borderopacity="1.0"
     inkscape:pageopacity="0.0"
     inkscape:pageshadow="2"
     inkscape:zoom="0.70710678"
     inkscape:cx="121.88698"
     inkscape:cy="295.56153"
     inkscape:document-units="px"
     inkscape:current-layer="layer1"
     inkscape:window-width="1008"
     inkscape:window-height="732"
     inkscape:window-x="0"
     inkscape:window-y="0"
     showgrid="false" />
  <metadata
     id="metadata7">
    <rdf:RDF>
      <cc:Work
         rdf:about="">
        <dc:format>image/svg+xml</dc:format>
        <dc:type
           rdf:resource="http://purl.org/dc/dcmitype/StillImage" />
      </cc:Work>
    </rdf:RDF>
  </metadata>
  <g
     inkscape:label="Layer 1"
     inkscape:groupmode="layer"
     id="layer1">
    <path
       style="fill:rgb(0, 138, 208);fill-opacity:1;fill-rule:evenodd;stroke:rgb(0, 0, 0);stroke-width:0.5;stroke-linecap:butt;stroke-linejoin:miter;stroke-opacity:1;stroke-miterlimit:4;stroke-dasharray:none"
       d="M 0.5,0.5 L 499.5,0.5 L 485,350 C 481.8,425 400,549.5 250,549.5 C 100,549.5 18.2,425 15,350 L 0.5,0.5 z "
       id="path1383"
       sodipodi:nodetypes="ccccccc" />
    <path
       style="fill: rgb(178, 176, 177); fill-opacity: 1; fill-rule: evenodd; stroke: none; stroke-width: 1px; stroke-linecap: butt; stroke-linejoin: miter; stroke-opacity: 1;"
       d="M 250,230 C 310,230 352,200 352,165 C 352,140 325,100 325,70 C 325,50 352,25 364,14 L 386,36 C 375,45 360,55 360,70 C 360,85 404,135 404,185 C 404,235 347,277 288,288 L 287,306 L 308,306 L 325,349.5 L 286,350 L 280,510 C 280,529 262,534 250,534 C 238,534 220,529 220,510 L 214,350 L 175,349.5 L 192,306 L 213,306 L 212,288 C 153,277 96,235 96,185 C 96,135 140,85 140,70 C 140,55 125,45 114,36 L 136,14 C 148,25 175,50 175,70 C 175,100 148,140 148,165 C 148,200 190,230 250,230 z "
       id="path1385"
       sodipodi:nodetypes="cssccsscccccccccccccccccccc" />
    <path
       sodipodi:type="arc"
       style="fill: rgb(0, 138, 208); fill-opacity: 1; stroke: none; stroke-width: 1; stroke-miterlimit: 4; stroke-dasharray: none; stroke-opacity: 1;"
       id="path1391"
       sodipodi:cx="253.75"
       sodipodi:cy="499.5"
       sodipodi:rx="20.5"
       sodipodi:ry="20.5"
       d="M 274.25 499.5 A 20.5 20.5 0 1 1  233.25,499.5 A 20.5 20.5 0 1 1  274.25 499.5 z"
       transform="matrix(0.952388, 0, 0, 0.952388, 8.33169, 19.282)" />
    <path
       style="opacity:1;fill:#2c5aa0;fill-opacity:1;stroke:none;stroke-width:0.5;stroke-linejoin:miter;stroke-miterlimit:4;stroke-dasharray:none;stroke-opacity:1"
       d="M 209.4268,545.19533 C 174.77947,538.99437 146.61537,528.36273 120.75989,511.72452 C 69.552663,478.7722 30.073604,424.53354 19.028285,371.95962 C 16.793828,361.32398 15.206967,331.56695 9.3749624,190.94028 C 5.5363625,98.380002 2.1036419,17.716796 1.7467227,11.688711 L 1.0977967,0.7285557 L 249.86558,0.7285557 C 386.68793,0.7285557 498.63347,1.2294136 498.63347,1.8415701 C 498.63347,8.5707093 484.40366,345.03927 483.78791,352.86773 C 479.97415,401.36092 447.73076,457.84423 402.96315,494.45475 C 369.31812,521.96931 330.91305,538.98108 287.03979,545.80374 C 267.31391,548.87133 228.25507,548.56509 209.4268,545.19533 z M 264.98008,531.69074 C 273.29356,528.218 277.72408,523.05887 279.36894,514.93563 C 280.17208,510.96931 281.78453,480.35909 282.95219,446.91293 C 284.11985,413.46678 285.47777,377.9877 285.96981,368.07053 L 286.8644,350.03931 L 305.77485,350.03931 C 320.00303,350.03931 324.66538,349.60161 324.60512,348.27154 C 324.56109,347.29927 320.88716,337.27603 316.44088,325.99767 L 308.35667,305.49158 L 298.13616,305.07605 L 287.91565,304.66056 L 287.91565,296.418 L 287.91565,288.17541 L 293.36035,287.30476 C 301.52698,285.99886 319.69589,279.7012 332.68668,273.67356 C 364.19076,259.0559 388.44816,236.2932 398.99999,211.44638 C 402.20381,203.90235 403.01064,199.59125 403.49974,187.40475 C 404.52213,161.92982 397.89854,142.63384 371.76502,94.95431 C 356.61737,67.318074 356.98373,62.801034 375.78453,45.39437 L 385.99504,35.94096 L 374.81987,24.699886 L 363.64469,13.458769 L 353.96203,23.003579 C 334.58498,42.104654 324.6852,58.663412 324.6852,71.97317 C 324.6852,81.102781 329.0377,96.344411 339.27331,123.05803 C 353.28499,159.62671 354.23852,168.85373 345.75925,185.82226 C 331.33986,214.67798 283.94033,233.02382 235.68529,228.42605 C 219.46643,226.88069 213.11363,225.54541 198.96989,220.70887 C 180.74105,214.4754 164.92745,203.29539 157.22994,191.19922 C 145.25393,172.37965 145.92082,160.87953 161.26344,121.64382 C 176.104,83.692037 178.05253,69.244289 170.42109,53.742656 C 166.13103,45.028357 152.72499,28.832981 141.44596,18.738862 L 135.69055,13.58807 L 124.53886,24.805527 L 113.38716,36.022999 L 119.68768,41.310121 C 134.07464,53.382965 139.44824,61.10122 139.40179,69.626042 C 139.38996,71.790058 134.91114,81.833703 129.44875,91.94533 C 108.67714,130.39654 101.78604,146.45468 97.587283,166.19154 C 89.414514,204.60864 108.06608,238.61809 152.24592,265.85677 C 164.14607,273.1937 186.71651,282.40115 201.49752,285.94859 L 211.54812,288.36073 L 211.54812,294.33561 C 211.54812,297.62181 211.9344,301.31715 212.40653,302.54748 C 213.1388,304.45574 211.8134,304.78447 203.3873,304.78447 C 197.04714,304.78447 192.96745,305.43781 191.99561,306.60879 C 190.69531,308.17552 174.77857,347.77252 174.77857,349.44051 C 174.77857,349.76984 183.36991,350.03931 193.87045,350.03931 C 204.37099,350.03931 213.02262,350.1984 213.0963,350.39286 C 213.17,350.58731 214.68651,388.02228 216.46636,433.58168 C 219.9928,523.84929 219.75541,521.99021 228.55583,528.25667 C 230.93323,529.94946 234.60208,531.85416 236.7089,532.48925 C 243.33451,534.4865 259.37159,534.03354 264.98011,531.69072 L 264.98008,531.69074 z"
       id="path3173" />
    <path
       style="opacity:1;fill:#cccccc;fill-opacity:1;stroke:none;stroke-width:0.5;stroke-linejoin:miter;stroke-miterlimit:4;stroke-dasharray:none;stroke-opacity:1"
       d="M 232.95657,529.41725 C 229.5638,527.73783 225.63186,524.46286 224.21895,522.13949 C 220.83894,516.58155 220.45051,511.16382 217.21463,424.45337 C 215.70868,384.09915 214.16917,350.77474 213.79348,350.39904 C 213.41778,350.02337 204.80393,349.37907 194.65159,348.9673 C 184.49922,348.55556 176.24618,347.83281 176.31145,347.36121 C 176.37671,346.88964 180.036,337.59423 184.44317,326.70478 L 192.45624,306.90579 L 202.70928,306.49027 L 212.96233,306.07477 L 212.96233,296.99883 L 212.96233,287.92293 L 206.95192,286.43108 C 154.75749,273.47565 115.05508,244.39269 101.00746,208.82417 C 98.414598,202.25905 97.84071,197.94888 97.778994,184.57632 C 97.663608,159.5837 103.25858,142.82647 125.05643,102.87842 C 139.60024,76.224579 141.23491,72.285598 140.07187,66.696541 C 138.82083,60.684719 133.1374,51.04899 128.85611,47.681323 C 126.93223,46.167973 123.02657,42.882684 120.17697,40.3807 L 114.99584,35.831627 L 125.34203,25.415916 L 135.68822,15.000205 L 141.29985,20.069977 C 152.54516,30.229418 165.14962,45.480693 169.34809,54.008033 C 172.70729,60.830864 173.6472,64.617888 173.6472,71.330622 C 173.64718,83.441282 171.59907,90.939372 159.51777,123.05803 C 150.6163,146.723 148.77693,153.07454 148.25525,161.9489 C 147.48543,175.04405 151.00605,185.57342 159.73454,196.2809 C 184.9434,227.20518 247.95515,239.08018 299.22936,222.56962 C 327.30074,213.53046 348.68516,192.63902 352.0409,170.97547 C 353.44223,161.92923 350.70351,150.58278 340.67468,123.88512 C 328.84223,92.385985 326.09618,82.629778 326.11323,72.150838 C 326.13583,58.260743 335.20384,42.880987 354.67377,23.710855 L 363.64953,14.873364 L 374.11406,25.408195 L 384.57858,35.943067 L 374.60624,45.175944 C 355.66951,62.708459 355.55193,66.665499 373.00621,99.022267 C 396.15182,141.92959 402.46695,160.00737 402.46695,183.35676 C 402.46695,200.77162 399.11067,212.01242 389.71787,226.05582 C 377.78762,243.89299 359.88969,258.83983 336.21291,270.7386 C 323.72123,277.01629 297.40928,286.3997 292.29773,286.3997 C 288.56811,286.3997 286.50144,291.22269 286.50144,299.92679 L 286.50144,306.19869 L 296.9998,306.19869 L 307.49815,306.19869 L 315.38457,326.36663 C 319.72211,337.45897 323.27099,346.90882 323.27099,347.36629 C 323.27099,347.82374 314.93535,348.56875 304.74732,349.02185 C 294.5593,349.47496 286.04458,350.04834 285.8257,350.29604 C 285.60685,350.54373 284.04359,387.54824 282.35185,432.52825 C 280.66011,477.50826 278.63001,516.00906 277.84051,518.08558 C 274.17261,527.73295 265.03902,532.39746 249.73189,532.44068 C 241.66838,532.46348 237.64624,531.73852 232.95658,529.41721 L 232.95657,529.41725 z M 260.75954,511.78531 C 274.78966,502.74618 271.1211,480.1406 254.91595,475.77701 C 243.35554,472.66414 231.63018,481.0608 230.36587,493.3576 C 228.73527,509.2172 247.28704,520.46519 260.75955,511.7853 L 260.75954,511.78531 z"
       id="path3175" />
    <path
       style="opacity:1;fill:#2c5aa0;fill-opacity:1;stroke:none;stroke-width:0.5;stroke-linejoin:miter;stroke-miterlimit:4;stroke-dasharray:none;stroke-opacity:1"
       d="M 241.60897,511.76219 C 228.08784,505.09652 228.22626,484.63452 241.83618,478.17619 C 254.89027,471.98164 268.09924,480.87467 268.11137,495.86613 C 268.11758,503.56834 264.39437,509.18145 257.31804,512.13813 C 251.29289,514.65565 247.28358,514.55966 241.60897,511.76218 L 241.60897,511.76219 z"
       id="path3177" />
  </g>
</svg>
