<?xml version="1.0" encoding="UTF-8"?>
<!DOCTYPE svg PUBLIC "-//W3C//DTD SVG 1.1//EN" "http://www.w3.org/Graphics/SVG/1.1/DTD/svg11.dtd">
<!-- Creator: CorelDRAW -->
<svg xmlns="http://www.w3.org/2000/svg" xml:space="preserve" width="500px" height="547px" shape-rendering="geometricPrecision" text-rendering="geometricPrecision" image-rendering="optimizeQuality" fill-rule="evenodd" clip-rule="evenodd"
viewBox="0 0 500 547"
 xmlns:xlink="http://www.w3.org/1999/xlink"
 xmlns:svg="http://www.w3.org/2000/svg"
 version="1.0">
 <g id="Layer_x0020_1">
  <metadata id="CorelCorpID_0Corel-Layer"/>
  <path id="path1937" fill="#F00000" stroke="black" stroke-width="0.510236" d="M0.309827 0.729071l499.412 -0.000283465 -8.85657 331.048c-19.387,278.398 -448.656,290.6 -477.905,6.2487l-12.6505 -337.297z"/>
  <path fill="#CCCCCC" d="M36.1976 273.861l197.356 -246.695 -2.90154 352.309c-7.06791,51.1685 -19.1795,84.6315 -69.2093,85.4167 -145.544,2.28416 -64.942,-172.898 -125.245,-191.031z"/>
  <path fill="#CCCCCC" d="M458.749 277.873l-192.71 -250.201 -2.54693 352.605c4.66044,47.9585 28.0018,84.3693 71.6168,84.6142 139.03,0.780662 70.2125,-168.886 123.64,-187.018z"/>
  <path fill="white" d="M173.765 348.659c1.98624,-2.84655 3.81855,-6.11603 5.47399,-9.80334 0.0110551,6.81364 -1.63616,12.3684 -4.33843,16.774 -2.68214,-0.385229 -0.757134,-4.64712 -1.13556,-6.97068zm-3.42425 12.5374c-2.20989,2.0554 -4.71232,3.69241 -7.36385,4.93625 -0.590174,-3.6017 -0.320599,-6.09534 0.809292,-7.48092 2.15405,-1.4006 4.21144,-3.14561 6.1543,-5.23191l0.400252 7.77657zm-10.6044 6.24076c-2.41569,0.821481 -4.90337,1.34873 -7.36583,1.59704 -1.0372,-1.95874 -0.721701,-4.08586 0.208347,-6.2898 2.46558,-0.27978 4.85773,-0.918993 7.15833,-1.91339l-0.000850394 6.60615zm-12.0209 1.73906c-2.54154,-0.103748 -4.98614,-0.507969 -7.21673,-1.19112 -0.875056,-2.61043 -0.45978,-3.92825 0.415843,-6.44627 2.38734,0.730772 4.73528,1.16844 7.03021,1.31443l-0.229323 6.32296zm-11.1002 -9.25342c-2.40917,-1.07093 -4.8515,-2.43213 -7.31424,-4.08444 0.176599,4.77213 3.14873,8.41635 7.56312,10.6844l-0.248882 -6.59991z"/>
  <polygon fill="white" points="73.6368,394.924 225.347,393.028 225.663,387.655 221.562,387.574 221.632,382.438 219.355,384.702 219.028,387.779 209.55,387.957 209.533,375.563 207.211,384.829 207.016,388.005 197.215,388.188 196.954,384.559 194.107,386.326 193.746,388.253 186.157,388.401 185.324,386.058 182.577,385.913 182.523,388.466 173.987,388.626 173.934,384.53 170.265,385.026 170.038,388.697 163.087,388.827 162.833,385.054 159.372,385.388 159.283,388.898 152.338,389.028 151.866,385.729 149.425,385.737 149.179,389.087 140.332,389.253 140.333,384.316 137.105,384.705 137.172,389.323 129.894,389.448 129.19,383.951 126.209,386.014 126.266,389.524 118.52,389.661 118.554,383.569 115.476,385.124 114.728,389.731 108.719,389.844 108.641,386.998 104.895,387.041 104.612,389.92 98.2928,390.039 98.3563,386.702 95.7382,387.075 95.1333,390.098 88.1822,390.07 88.0152,385.989 84.6837,386.322 84.3849,390.14 73.6368,390.499 "/>
  <path fill="black" d="M120.927 348.186c-5.19364,-5.26621 -5.62196,-17.6959 -2.05228,-25.0838l1.50775 3.4801c-1.68973,5.67468 -1.57266,13.3007 0.544536,21.6037m9.72454 -38.3514c-2.5132,0.831969 -4.22419,1.54375 -5.99074,3.21279l0.524126 6.43947c2.06022,-2.97298 4.64967,-5.30107 7.61131,-6.95906l-2.14469 -2.6932m40.011 12.7826c1.68435,1.50293 2.22747,2.42674 3.45629,4.61906 -0.161858,-3.16772 -1.62142,-7.44152 -3.32306,-9.69648l-0.133228 5.07742zm-4.69219 -10.2209c-2.18353,-1.92416 -4.51134,-3.45969 -6.92164,-4.63578l-0.139181 4.9646c2.31165,1.05704 4.61962,2.3777 6.89018,3.96595l0.170646 -4.29477zm-18.1432 -2.75811c2.39017,-0.335055 4.46202,-0.052441 6.7354,0.667559l0.189071 -4.24403c-2.26347,-0.697323 -4.56662,-1.11118 -6.86268,-1.26312l-0.0617953 4.83959m-4.40618 0.0473386l0.735307 -3.80892c-2.76917,-0.223654 -5.2115,-0.118205 -8.42372,0.544252l0.180284 4.65931c2.59597,-0.977953 4.57399,-1.32435 7.50813,-1.39465"/>
  <line fill="none" stroke="#0581ED" stroke-width="2.83465" x1="221.542" y1="80.9796" x2="219.012" y2= "385.801" />
  <line fill="none" stroke="#0581ED" stroke-width="2.83465" x1="206.364" y1="384.536" x2="209.526" y2= "98.6871" />
  <line fill="none" stroke="#0581ED" stroke-width="2.83465" x1="194.348" y1="386.434" x2="196.878" y2= "117.027" />
  <line fill="none" stroke="#0581ED" stroke-width="2.83465" x1="182.965" y1="385.801" x2="184.229" y2= "132.837" />
  <line fill="none" stroke="#0581ED" stroke-width="2.83465" x1="170.316" y1="386.434" x2="169.052" y2= "151.177" />
  <path fill="white" d="M60.6864 311.366c-1.12054,-6.54832 -2.6144,-12.5422 -4.72025,-17.7625 29.0682,35.3537 -7.1538,99.9389 55.4171,162.158 -53.2865,-25.5115 -42.8516,-98.5547 -50.6968,-144.396m172.665 -259.689l0.0702992 -8.53569 -186.622 236.616c0.928914,0.834237 1.80312,1.73254 2.62602,2.69065l17.4047 -21.8387 3.53339 10.9741 0.92863 -2.09424 -3.20173 -10.461 10.7274 -13.4598 2.9435 10.5656 0.829134 -1.49046 -2.09736 -11.1767 10.0976 -12.6692 1.14945 13.6777 1.35354 -2.01175 -1.07433 -13.4583 141.332 -177.328zm0.111969 -13.5896l0.0901418 -10.9222 -197.356 246.695c2.35559,0.708095 4.49603,1.65657 6.44344,2.82388l190.822 -238.597z"/>
  <line fill="none" stroke="#0581ED" stroke-width="2.83465" x1="159.565" y1="385.801" x2="157.036" y2= "168.252" />
  <line fill="none" stroke="#0581ED" stroke-width="2.83465" x1="148.182" y1="385.801" x2="145.652" y2= "181.533" />
  <line fill="none" stroke="#0581ED" stroke-width="2.83465" x1="137.431" y1="384.536" x2="132.372" y2= "198.608" />
  <line fill="none" stroke="#0581ED" stroke-width="2.83465" x1="107.708" y1="228.331" x2="115.929" y2= "385.801" />
  <line fill="none" stroke="#0581ED" stroke-width="2.83465" x1="126.68" y1="385.169" x2="120.988" y2= "211.888" />
  <line fill="none" stroke="#0581ED" stroke-width="2.83465" x1="105.178" y1="385.801" x2="93.7948" y2= "247.303" />
  <line fill="none" stroke="#0581ED" stroke-width="2.83465" x1="84.9411" y1="387.066" x2="71.028" y2= "277.027" />
  <line fill="none" stroke="#0581ED" stroke-width="2.83465" x1="83.6762" y1="261.216" x2="95.692" y2= "387.066" />
  <line fill="none" stroke="black" stroke-width="2.83465" x1="82.1705" y1="417.997" x2="220.606" y2= "416.733" />
  <path fill="black" d="M323.117 352.903c-8.23919,-3.18983 -7.22637,-23.6954 0.541985,-34.0458l0.6823 5.60268c-4.28429,4.2154 -4.83562,19.3587 -1.22428,28.4431zm12.4367 -43.7757c-2.5132,0.831969 -5.16756,1.77959 -6.93411,3.44863l-0.183402 5.4961c2.06022,-2.97298 4.88551,-4.23978 7.84715,-5.89777l-0.729638 -3.04696zm38.3601 17.3815c1.68435,1.50293 1.2841,9.73786 2.51291,11.9302 -0.161858,-3.16772 0.147402,-14.281 -1.55424,-16.5359l-0.958678 4.60573zm-1.27247 -7.15493c-2.18353,-1.92416 -6.16224,-7.23317 -8.57254,-8.40926l0.0966615 4.84668c2.31165,1.05704 6.03468,7.56624 8.30523,9.15449l0.170646 -5.59191zm-20.9733 -9.59755c2.74365,0.195874 5.79827,2.24731 7.7967,2.5543l-0.282614 -2.82898c-2.26347,-0.697323 -5.50999,-2.99792 -7.80605,-3.14986l0.291969 3.42454zm-4.5241 0.0473386l-0.325984 -3.45515c-2.4154,0.365953 -2.85307,0.825166 -6.06529,1.48762l0.534048 3.12633c2.59597,-0.977953 2.92309,-1.0885 5.85723,-1.1588z"/>
  <polygon fill="white" points="425.697,398.17 271.436,396.274 271.12,390.669 278.236,390.356 278.166,386.844 281.139,387.484 281.465,390.562 290.944,390.74 290.96,387.852 293.283,387.611 293.477,390.787 302.118,390.971 302.38,387.342 305.227,385.862 305.43,390.72 314.8,390.488 314.686,388.303 318.38,387.999 318.433,390.553 327.898,390.945 327.793,387.638 331.304,387.976 331.531,391.016 338.798,391.146 339.052,387.373 341.25,384.707 341.654,391.375 349.546,391.347 349.545,388.048 352.459,388.056 352.706,391.406 360.447,391.571 360.446,386.635 363.674,387.023 363.607,391.642 370.885,391.767 371.59,386.27 375.044,371.754 374.513,391.843 382.26,391.979 382.225,385.888 385.934,371.812 385.262,392.05 391.744,392.162 391.822,389.317 397.937,357.624 395.852,392.239 403.592,392.357 403.528,389.02 409.304,354.342 406.751,392.416 414.965,392.23 414.659,388.308 423.99,334.8 417.5,392.459 425.929,393.746 "/>
  <path fill="white" d="M375.365 348.659c2.11493,-0.494929 1.16221,-14.7093 1.0097,-19.2385 0.718016,-0.904819 0.0385512,-1.56784 1.04457,-2.71077 4.74633,6.81364 4.62444,24.5146 -0.918709,28.9199 -2.68214,-0.385229 -0.757134,-4.64712 -1.13556,-6.97068zm-3.30633 13.009c-2.20989,2.0554 -4.83024,4.1641 -7.48177,5.40794 -0.590174,-3.6017 -0.320599,-5.97742 0.809292,-7.363 2.15405,-1.4006 4.21144,-4.2069 6.1543,-6.2932l0.518173 8.24826zm-11.3119 6.4766c-2.41569,0.821481 -5.49298,1.34873 -7.95544,1.59704 -1.0372,-1.95874 -0.721701,-2.90665 0.208347,-5.11059 2.46558,-0.27978 5.68318,-1.74444 7.98378,-2.73884l-0.236693 6.25238zm-11.785 2.09282c-2.54154,-0.103748 -4.04277,-0.390047 -6.27336,-1.0732 -0.875056,-2.61043 -1.16731,-3.1028 -0.291685,-5.62082 2.22973,1.04513 4.57767,1.4828 7.03021,1.31443l-0.465166 5.37959zm-10.7464 -8.54589c-2.40917,-1.07093 -6.26655,-2.55005 -8.7293,-4.20236 0.176599,4.77213 4.44586,7.11922 8.86026,9.38722l-0.130961 -5.18485z"/>
  <line fill="none" stroke="#0581ED" stroke-width="2.83465" x1="279.491" y1="86.0502" x2="278.483" y2= "387.688" />
  <line fill="none" stroke="#0581ED" stroke-width="2.83465" x1="291.485" y1="387.838" x2="291.507" y2= "103.758" />
  <line fill="none" stroke="#0581ED" stroke-width="2.83465" x1="303.029" y1="387.377" x2="304.155" y2= "122.098" />
  <line fill="none" stroke="#0581ED" stroke-width="2.83465" x1="315.12" y1="387.57" x2="316.803" y2= "137.908" />
  <line fill="none" stroke="#0581ED" stroke-width="2.83465" x1="327.69" y1="389.23" x2="330.802" y2= "155.776" />
  <line fill="none" stroke="#0581ED" stroke-width="2.83465" x1="339.029" y1="389.305" x2="343.053" y2= "172.851" />
  <line fill="none" stroke="#0581ED" stroke-width="2.83465" x1="349.589" y1="388.987" x2="354.437" y2= "186.132" />
  <line fill="none" stroke="#0581ED" stroke-width="2.83465" x1="361.243" y1="389.061" x2="367.599" y2= "204.74" />
  <line fill="none" stroke="#0581ED" stroke-width="2.83465" x1="392.263" y1="234.463" x2="382.745" y2= "389.221" />
  <line fill="none" stroke="#0581ED" stroke-width="2.83465" x1="371.994" y1="389.062" x2="378.983" y2= "218.02" />
  <line fill="none" stroke="#0581ED" stroke-width="2.83465" x1="393.378" y1="389.339" x2="405.94" y2= "252.846" />
  <line fill="none" stroke="#0581ED" stroke-width="2.83465" x1="415.03" y1="389.896" x2="428.707" y2= "282.569" />
  <line fill="none" stroke="#0581ED" stroke-width="2.83465" x1="415.469" y1="266.523" x2="403.689" y2= "389.66" />
  <path fill="black" d="M94.7209 444.571c18.7776,11.9432 40.3943,21.6017 66.7219,19.372 47.5376,-4.02605 65.6178,-39.7483 67.629,-83.2043l4.48186 -353.573 -3.56655 4.45777 -1.16334 33.0146 -172.887 222.508c-3.79559,-6.09194 -9.1715,-12.1836 -18.0241,-15.4307l-1.71553 2.14498c14.851,4.46542 21.1564,18.4564 24.3978,36.9757l-2.44573 -20.5294 171.306 -219.348 -3.08948 305.319c-1.2875,71.0791 -47.3766,109.253 -131.646,68.2932z"/>
  <path fill="white" d="M280.469 434.53c-9.32372,-14.4995 -14.9386,-33.2714 -16.9773,-54.2532l2.54693 -352.605 4.00649 5.20129 0.735024 37.7204 172.123 222.528c-1.0046,1.97717 -1.64551,3.34715 -2.44658,5.61345l-169.93 -219.272 -0.253417 302.327c1.65799,18.4255 7.29638,37.1571 17.7392,56.2587l-7.54356 -3.51921z"/>
  <line fill="none" stroke="black" stroke-width="2.83465" x1="414.381" y1="420.841" x2="276.705" y2= "419.52" />
  <path fill="black" d="M280.972 435.303c12.621,16.9251 36.2631,28.9392 55.0846,28.9565 137.265,0.126142 68.5143,-169.366 122.376,-187.018l-192.394 -249.569 -0.0453544 6.30851 187.867 242.103c-1.86803,1.13102 -2.97043,1.81134 -6.32126,5.37307l-181.649 -233.254 -0.0340158 4.74066 179.786 231.042c-22.2165,23.4309 -7.93191,84.6301 -32.8263,138.469 -17.3925,37.6143 -87.4752,58.6656 -131.845,12.8483z"/>
 </g>
</svg>
