<?xml version="1.0" encoding="UTF-8"?>
<!DOCTYPE svg PUBLIC "-//W3C//DTD SVG 1.1//EN" "http://www.w3.org/Graphics/SVG/1.1/DTD/svg11.dtd">
<!-- Creator: CorelDRAW -->
<svg xmlns="http://www.w3.org/2000/svg" xml:space="preserve" width="500px" height="562px" shape-rendering="geometricPrecision" text-rendering="geometricPrecision" image-rendering="optimizeQuality" fill-rule="evenodd" clip-rule="evenodd"
viewBox="0 0 500 562"
 xmlns:xlink="http://www.w3.org/1999/xlink"
 xmlns:svg="http://www.w3.org/2000/svg"
 version="1.0">
 <g id="Layer_x0020_1">
  <metadata id="CorelCorpID_0Corel-Layer"/>
  <path id="path1937" fill="#0581ED" stroke="black" stroke-width="1.41732" d="M0.810709 0.838205l498.015 -0.040252 -11.2535 320.648c-11.4409,318.441 -459.925,321.516 -475.837,0.374457 -3.64167,-106.994 -7.28306,-213.988 -10.925,-320.982z"/>
  <path fill="black" d="M56.9889 199.507l-19.7365 -11.4599c8.36051,88.6882 26.3886,162.875 78.9461,185.269 95.2867,5.94227 189.725,5.94199 283.314,0 33.0531,-15.7037 58.6253,-70.2448 76.3994,-182.722l-20.3732 8.91326 -5.09329 26.7398c-16.022,13.5816 -40.2154,24.8292 -68.1228,35.0164 -3.92655,25.0469 -33.2127,28.8655 -37.563,12.0966 -80.432,17.6139 -113.114,15.2793 -179.539,0 -6.14665,21.1368 -38.1042,8.4498 -39.473,-12.7332 -21.2224,-6.04857 -41.5956,-16.4475 -61.1195,-29.2864l-7.63994 -31.8331z"/>
  <polygon fill="black" points="159.977,185.744 173.688,194.584 160.434,202.11 146.722,193.907 "/>
  <polygon fill="black" points="339.834,183.834 350.044,192.674 339.654,202.11 324.669,194.543 "/>
  <path fill="black" d="M344.16 211.553c3.23632,0.212315 3.024,-8.80668 0,-8.91326l0 -15.9165c4.98699,0.106299 5.09273,-7.74567 0.318331,-7.32161 15.4919,-0.212032 10.2926,-30.0291 30.2414,-28.3314 2.22803,-8.27632 -1.91027,-11.8837 -12.4149,-10.8232 -10.1118,-32.6302 -38.4849,-73.2688 -99.0009,-80.856 -0.424063,-3.18303 -2.5458,-5.72939 -7.32161,-5.72996l0 -13.0516 8.91326 0 0 -7.32161 -8.2766 0 0 -11.1416 -8.26186 0 0 11.1416 -8.2766 0 0 7.32161 8.91326 0 0 13.0516c-4.77581,0.000566929 -6.89755,2.54693 -7.32161,5.72996 -54.5772,5.92668 -84.6153,45.6792 -99.0009,80.856 -10.5046,-1.06044 -14.6429,2.54693 -12.4149,10.8232 19.9488,-1.69767 14.7495,28.1194 30.2414,28.3314 -4.7744,-0.424063 -4.66866,7.42791 0.318331,7.32161l0 15.9165c-3.024,0.106583 -3.23632,9.12558 0,8.91326l183.344 0z"/>
  <ellipse fill="black" cx="252.547" cy="50.2076" rx="11.4599" ry="9.2316"/>
  <ellipse fill="white" cx="250" cy="50.2076" rx="11.4599" ry="9.2316"/>
  <path fill="#CCCCCC" d="M245.858 44.248c-4.11336,1.40173 -6.99959,4.68284 -6.99959,8.50621 0,5.09783 5.13156,9.2316 11.4599,9.2316 6.32835,0 11.4599,-4.13377 11.4599,-9.2316 0,-2.86753 -2.26035,-5.7481 -4.80756,-7.4418l-0.749481 7.17789 -9.06804 -1.16135 -1.29515 -7.08095z"/>
  <path fill="black" d="M362.666 122.612c-5.01052,0 -9.07371,4.06318 -9.07371,9.07371 0,4.38435 1.99786,6.77055 6.13219,7.61698 1.16872,-2.0897 7.30148,-1.60696 11.0557,0.699024 1.29458,-1.56841 1.91367,-4.69276 1.91367,-6.88479 0,-5.01052 -5.01733,-10.5049 -10.0278,-10.5049z"/>
  <path fill="white" d="M360.44 122.93c-5.01052,0 -9.07371,4.06318 -9.07371,9.07371 0,4.38435 2.47493,7.72526 6.60926,8.57141 1.8051,-1.93068 3.48435,-1.7657 8.51074,-1.68605 1.29458,-1.56841 3.0274,-4.69333 3.0274,-6.88536 0,-5.01052 -4.06318,-9.07371 -9.07371,-9.07371z"/>
  <path fill="#BF9F4F" d="M341.983 209.376c3.23632,0.212315 3.024,-8.80668 0,-8.91326l0 -15.9165c4.98699,0.106299 5.09273,-7.74567 0.318331,-7.32161 15.4919,-0.212032 10.2926,-30.0291 30.2414,-28.3314 2.22803,-8.27632 -1.91027,-11.8837 -12.4149,-10.8232 -10.1118,-32.6302 -38.4849,-73.2688 -99.0009,-80.856 -0.424063,-3.18303 -2.5458,-5.72939 -7.32161,-5.72996l0 -13.0516 8.91326 0 0 -7.32161 -8.2766 0 0 -11.1416 -8.26186 0 0 11.1416 -8.2766 0 0 7.32161 8.91326 0 0 13.0516c-4.77581,0.000566929 -6.89755,2.54693 -7.32161,5.72996 -54.5772,5.92668 -84.6153,45.6792 -99.0009,80.856 -10.5046,-1.06044 -14.6429,2.54693 -12.4149,10.8232 19.9488,-1.69767 14.7495,28.1194 30.2414,28.3314 -4.7744,-0.424063 -4.66866,7.42791 0.318331,7.32161l0 15.9165c-3.024,0.106583 -3.23632,9.12558 0,8.91326l183.344 0z"/>
  <path fill="#CCCCCC" d="M359.168 123.407c-5.01052,0 -9.07371,4.06318 -9.07371,9.07371 0,4.38435 2.15603,7.7247 6.29037,8.57084 1.80567,-1.77137 4.75824,-2.87915 9.78463,-2.7995 1.29458,-1.56841 2.07241,-3.57931 2.07241,-5.77134 0,-5.01052 -4.06318,-9.07371 -9.07371,-9.07371z"/>
  <path fill="white" d="M48.2808 195.153l-19.7365 -11.4599c8.36051,88.6882 26.3886,162.875 78.9461,185.269 95.2867,5.94227 189.725,5.94199 283.314,0 33.0531,-15.7037 58.6253,-70.2448 76.3994,-182.722l-20.3732 8.91326 -5.09329 26.7398c-16.022,13.5816 -40.2154,24.8292 -68.1228,35.0164 -2.13619,28.628 -32.1387,31.0142 -37.563,12.0966 -80.432,17.6139 -113.114,15.2793 -179.539,0 -6.14665,21.1368 -38.1042,8.4498 -39.473,-12.7332 -21.2224,-6.04857 -41.5956,-16.4475 -61.1195,-29.2864l-7.63994 -31.8331z"/>
  <path fill="#644D36" d="M156.318 205.873c0.148819,1.92161 0.905103,3.59518 2.32073,3.50249l183.344 0c3.23632,0.212315 3.024,-8.80668 0,-8.91326l0 -15.9165c4.98699,0.106299 5.09273,-7.74567 0.318331,-7.32161 15.4919,-0.212032 10.2926,-30.0291 30.2414,-28.3314 0.417544,-1.55169 0.611433,-2.93953 0.58167,-4.16296 -6.26854,-1.32945 -11.4766,0.945922 -15.6243,6.82498l3.97559 -7.31509 -4.13462 2.54438 -5.40681 8.58728 -0.477071 4.77071 -2.86243 4.45266 0.318047 1.59024 -2.54438 2.7034 1.11317 1.74926 7.95119 -10.8136c-6.12227,14.8158 -6.65263,15.717 -29.5784,15.1073l-0.795119 1.43121 16.2204 0.477071 -2.38536 2.86243 -33.395 -0.318047 -2.06731 2.38536 -122.289 -1.11317 0 1.90828 73.787 1.27219 4.13462 2.86243 -1.11317 1.90828 2.22633 0.636095 0.795119 -1.27219 1.74926 0 1.90828 2.06731 0.477071 1.27219 -2.22633 1.59024 -1.74926 2.54438 9.85947 0.159024 2.22633 -1.90828 -1.59024 -1.90828 0 -2.7034 -1.43121 0.795119 -0.159024 1.90828 -3.65755 0.159024 -1.11317 -3.49852 1.74926 -0.636095 0.636095 2.54438 3.18047 -2.38536 -0.159024 -3.02145 60.588 -0.318047 8.74545 0 -0.953292 17.0155 -30.0555 -0.954142 0.159024 1.11317 26.3979 0.795119 -0.795119 0.795119 -25.1257 0.159024 0.159024 0.954142 23.3765 1.11317 3.02145 1.43121 -179.873 -1.18091zm99.883 -167.441l-2.39613 0 0 13.0516c0.895465,0 1.69739,0.0898583 2.41257,0.256252l-0.016441 -13.3078zm6.51714 -7.32161l0 7.32161 1.91169 0.0569764 0 -7.95119 -1.91169 0.572599zm-8.2766 -11.1416l0 11.1416 1.76003 0 0 -11.0682 -1.76003 -0.0734174zm-126.363 128.924c6.55711,-0.557859 10.3972,2.28898 13.1482,6.3703 -0.0890079,-2.75953 -6.85701,-17.2868 -13.1482,-6.3703z"/>
  <path fill="#644D36" d="M349.237 161.626c-4.97622,0.937985 -10.1594,-5.20214 -9.41131,-10.6339l1.29458 1.19877c0.371339,3.65783 2.01458,5.83115 4.92973,6.51997l3.18699 2.91515zm-16.6034 -2.73118l2.27849 0.184536c2.56649,6.02816 4.89799,8.76615 7.50473,8.49742 -3.34715,2.15943 -5.68772,-0.212882 -7.33947,-5.68545l-2.06731 -1.11317 -0.376441 -1.88334zm-47.3811 -84.8098c10.446,4.88863 29.1345,23.8689 44.5663,60.8012l-10.5049 7.00328c18.7651,2.90495 8.37638,31.3115 -8.91326,19.7365 3.08126,4.95326 7.11496,7.49282 11.1407,7.18271 -6.06303,0.928063 -9.5023,-1.64296 -11.7488,-5.80422l0.477071 -5.24778c12.4438,9.29367 24.6337,-8.16804 9.3824,-12.0858 -3.18047,5.08876 -7.95119,-0.954142 -3.3395,-5.72485l-4.13462 -4.61169 1.25036 -0.744945c1.27956,0.513355 2.71814,1.6628 3.8384,2.97128l1.90828 -3.65755 5.56583 -2.38536 -0.477071 2.22633 -3.3395 2.22633 0.636095 1.90828 3.3395 -2.38536 2.22633 0.636095 0 -1.90828 -1.59024 -0.795119 0.159024 -3.18047 -10.0185 -18.4467c-3.23348,-6.30794 -6.14892,-10.0715 -9.3824,-16.3794l0.159024 4.77071 -4.29364 0.477071 -16.907 -26.5822z"/>
  <path fill="#644D36" d="M148.452 159.398c13.0513,8.48892 21.8585,-11.1413 7.32161,-18.7815 8.11333,-19.3981 22.9056,-44.2103 53.4906,-64.1271l-2.87603 -0.494079 -2.54665 2.86498 -1.59165 -1.59165 -19.0999 5.09329 -37.8814 42.0197 0 19.4182 4.1383 -3.50164c15.8686,10.1971 15.2379,18.1692 -0.954993,19.0999zm29.3015 8.24542c-3.30208,-0.34441 -6.52876,-2.95087 -9.19645,-8.58955l-2.27849 -0.292536 1.18772 1.22202c2.36863,4.46145 5.7977,7.01462 10.2872,7.66007zm-3.66747 -11.7972c1.77024,5.04057 7.87011,8.20772 15.749,3.55181l-1.27332 -2.54665c-6.09874,2.84825 -9.65056,-0.670111 -14.4757,-1.00517z"/>
  <path id="path1937_0" fill="black" d="M484.246 354.957c-7.19972,53.8209 -27.7688,97.2961 -56.5458,130.372 -14.6985,4.4847 -16.596,3.23887 -25.1008,3.68447 -32.4751,1.70164 -45.1111,-24.9832 -71.4263,-24.8752 -26.3149,0.108 -53.3722,25.4197 -79.263,25.5257 -25.8908,0.106299 -50.3005,-24.9931 -76.4031,-24.8857 -26.1026,0.10715 -59.4343,25.4001 -80.2126,25.5305 -20.7782,0.130677 -13.9017,0.764221 -19.8978,-3.51808 -29.3111,-32.948 -50.578,-76.4655 -58.6338,-130.604 29.9183,-0.0779528 55.2291,25.0552 81.01,24.988 25.7805,-0.0671811 58.847,-25.3545 87.9424,-25.4299 29.0957,-0.0751181 47.8055,25.075 72.9525,25.0092 25.1473,-0.0654803 48.6431,-25.3281 74.3434,-25.3945 25.7,-0.0666142 52.0404,25.0637 78.0001,24.9959 25.9597,-0.0674646 48.9215,-25.3349 73.2348,-25.3982z"/>
  <path fill="#BF9F4F" d="M179.649 92.8664l0.318331 1.90999c-8.72731,9.576 -18.4363,17.4813 -22.9198,29.6048l-3.18331 0c8.3829,-14.1392 16.2352,-21.8327 25.7848,-31.5148z"/>
  <path fill="#BF9F4F" d="M52.6349 199.507l-19.7365 -11.4599c8.36051,88.6882 26.3886,162.875 78.9461,185.269 95.2867,5.94227 189.725,5.94199 283.314,0 33.0531,-15.7037 58.6253,-70.2448 76.3994,-182.722l-20.3732 8.91326 -5.09329 26.7398c-16.022,13.5816 -40.2154,24.8292 -68.1228,35.0164 -3.92655,25.0469 -33.2127,28.8655 -37.563,12.0966 -80.432,17.6139 -113.114,15.2793 -179.539,0 -6.14665,21.1368 -38.1042,8.4498 -39.473,-12.7332 -21.2224,-6.04857 -41.5956,-16.4475 -61.1195,-29.2864l-7.63994 -31.8331z"/>
  <path fill="#644D36" d="M465.192 193.777l2.86498 0c-21.301,114.785 -42.7884,157.07 -77.6727,176.037l-3.81997 -1.27332 7.63994 -5.41162c-3.50164,1.43235 -10.8227,3.55436 -14.6432,3.81997l-2.86498 -2.22832c8.06485,-1.91027 16.1291,-4.66951 24.1931,-8.2766l6.36662 -6.68495c-12.2814,4.72139 -25.704,8.64737 -38.8364,10.8232l-1.90999 -2.86498c15.0684,-2.65351 31.091,-7.95941 46.158,-14.0066 6.02192,-5.09358 9.36454,-8.91355 11.1416,-14.0066 -22.1369,11.2606 -46.1974,19.8289 -72.5794,25.1481l-3.81997 -1.59165c27.6951,-6.44655 54.0114,-15.3071 78.3094,-27.6948 2.33433,-3.71395 4.2446,-7.85254 5.72996,-12.4149 -83.6088,44.3549 -161.401,48.2808 -196.41,45.8396l8.59493 -2.54665c49.7554,0.888662 113.932,-7.22211 190.68,-48.3863l2.22832 -4.45663c-31.2721,16.0784 -65.4985,28.6994 -101.866,38.8364l-0.636662 -2.86498c35.0034,-10.1203 69.1977,-23.0927 102.503,-39.1547l2.54665 -7.32161c-35.3347,17.5876 -70.6692,29.7374 -106.004,38.8364l-0.318331 -3.18331c38.3723,-10.1271 74.3174,-23.0859 107.596,-39.1547 0.848977,-2.75896 2.01628,-5.51792 2.54665,-8.2766 -32.9202,17.8795 -67.3529,30.7188 -102.821,40.1097l0 -2.86498c37.0596,-10.5982 71.811,-23.8893 103.776,-40.428 2.2286,-4.03257 3.92627,-7.74652 4.45663,-11.7782 -58.3929,34.0815 -122.735,57.0677 -206.597,57.6179l0.318331 -2.86498c72.1293,0.016441 140.305,-19.9664 205.642,-57.2996l1.59165 -4.45663c-32.4689,17.1941 -65.9994,31.8354 -101.866,43.9297l-0.318331 -3.18331c35.5547,-12.3806 70.4526,-26.5595 103.458,-44.8847l1.27332 -7.32161c-31.8101,19.283 -64.4259,32.9278 -97.0909,44.5663l0.318331 -3.50164c34.3281,-11.6187 67.4351,-26.5799 98.3642,-45.8396l1.27332 -7.63994c-22.8268,13.6216 -46.0384,25.3199 -69.7145,34.6981l0 -3.18331c24.2731,-10.2399 47.7766,-22.0184 70.3511,-35.6531 5.51792,-13.1579 6.57893,-25.0421 9.86826,-37.563z"/>
  <path id="path1937_1" fill="white" d="M485.936 350.182c-7.2,53.8209 -27.7688,97.2961 -56.5461,130.372 -15.3349,4.80331 -23.6891,3.61701 -31.2474,3.36643 -16.1456,-0.535748 -45.4295,-24.9832 -71.7446,-24.8752 -26.3149,0.108 -53.3722,25.4197 -79.263,25.5257 -25.8908,0.106299 -50.3005,-24.9931 -76.4031,-24.8857 -26.1026,0.10715 -59.4343,25.4001 -80.2126,25.5305 -20.7782,0.130677 -11.0367,1.40088 -17.0328,-2.88142 -29.3108,-32.948 -51.2147,-79.9671 -59.2708,-134.106 29.9186,-0.0782363 53.0011,27.9201 78.7819,27.853 25.7805,-0.0671811 59.802,-26.3098 88.8977,-26.3852 29.0954,-0.0751181 46.8502,26.0303 71.9972,25.9645 25.1473,-0.0654803 53.4178,-29.1481 79.1181,-29.2144 25.7003,-0.0663307 44.7191,28.8836 70.6788,28.8159 25.9597,-0.0674646 49.6568,-25.6536 82.2467,-25.0801z"/>
  <path id="path1937_2" fill="#CCCCCC" d="M484.981 352.41c-7.19972,53.8209 -27.7688,97.2961 -56.5458,130.372 -15.3352,4.80303 -19.8658,3.55125 -27.4275,3.68447 -31.3849,0.552756 -45.4295,-24.9832 -71.7446,-24.8752 -26.3149,0.108 -53.3722,25.4197 -79.263,25.5257 -25.8908,0.106299 -50.3005,-24.9931 -76.4031,-24.8857 -26.1026,0.10715 -59.4343,25.4001 -80.2126,25.5305 -20.7782,0.130677 -13.9017,0.764221 -19.8978,-3.51808 -29.3111,-32.948 -50.578,-76.4655 -58.6338,-130.604 29.9183,-0.0779528 55.2291,25.0552 81.01,24.988 25.7805,-0.0671811 58.847,-25.3545 87.9424,-25.4299 29.0957,-0.0751181 47.8055,25.075 72.9525,25.0092 25.1473,-0.0654803 48.6431,-25.3281 74.3434,-25.3945 25.7,-0.0666142 52.0404,25.0637 78.0001,24.9959 25.9597,-0.0674646 51.5665,-25.3349 75.8798,-25.3982z"/>
  <path fill="white" d="M59.0015 227.52l-15.2799 -8.2766c9.78775,86.7272 35.9572,135.448 75.7627,150.252l1.90999 -0.636662c-24.4057,-11.653 -40.9589,-30.3681 -50.9329,-54.7529 49.2211,26.674 104.425,39.7517 162.985,45.203l-3.81997 -3.18331c-75.5501,-8.00561 -125.434,-25.9472 -163.622,-48.3863 -7.00356,-15.0676 -10.6107,-28.4377 -10.8232,-40.1097 71.1392,42.1115 127.933,55.531 179.539,58.5729l-8.91326 -3.81997c-59.2234,-4.39767 -115.329,-24.1484 -172.854,-58.2545 -2.63934,-13.0655 -4.5754,-26.5147 -6.36662,-40.428l13.2531 7.38369 -0.838205 -3.56372z"/>
  <path fill="#CCCCCC" d="M114.709 263.81c-22.0947,-8.0966 -44.6925,-19.7209 -67.6341,-33.7584l1.42129 1.92529c22.8926,14.8683 45.0167,24.6036 66.2128,31.8331z"/>
  <path fill="#CCCCCC" d="M116.938 274.952c-22.0947,-8.0966 -44.6925,-19.7209 -67.6341,-33.7584l1.42129 1.92529c22.8926,14.8683 45.0167,24.6036 66.2128,31.8331z"/>
  <path fill="#CCCCCC" d="M117.574 284.502c-22.0947,-8.0966 -44.6925,-20.6759 -67.6341,-34.7134l1.42129 1.92529c22.8926,14.8683 45.0167,25.5586 66.2128,32.7881z"/>
  <path fill="#CCCCCC" d="M122.986 305.83c-22.0947,-8.0966 -44.6925,-18.1293 -67.6341,-32.1667l1.42129 1.92529c22.8926,14.8683 45.0167,23.0119 66.2128,30.2414z"/>
  <path fill="#CCCCCC" d="M125.533 317.608c-22.0947,-8.0966 -44.6925,-18.1293 -67.6341,-32.1667l1.42129 1.92529c22.8926,14.8683 45.0167,23.0119 66.2128,30.2414z"/>
  <path fill="#CCCCCC" d="M124.896 327.158c-22.5459,-8.99887 -40.3158,-15.7422 -62.8591,-28.9834l1.42129 1.92529c22.8923,14.0193 40.2412,18.9797 61.4379,27.0581z"/>
  <path fill="#CCCCCC" d="M126.806 345.303c-23.3949,-9.4235 -30.3415,-10.4372 -52.0359,-23.2535l1.42129 1.92529c21.9903,14.019 28.622,13.2494 50.6146,21.3282z"/>
  <path fill="#CCCCCC" d="M122.986 353.579c-22.5462,-10.489 -19.3065,-7.57503 -41.8493,-19.7518l1.42129 1.92529c23.8757,13.7804 19.9485,9.1372 40.428,17.8265z"/>
  <path fill="#CCCCCC" d="M123.623 361.538c-10.3966,-6.35074 -18.1925,-5.98366 -29.1161,-12.7485l1.42129 1.92529c7.48092,5.50347 13.6341,6.16564 27.6948,10.8232z"/>
  <path fill="#C9015C" d="M148.452 159.398c5.94227,8.48892 13.2636,10.0803 17.8265,-0.636662l2.27849 0.292536c6.09818,12.8889 15.1152,9.9326 21.278,0.344126 -14.0071,8.27717 -22.39,-8.16974 -10.8232,-15.9165l-6.36662 -5.41162c9.70895,-21.1425 24.6702,-44.3274 40.428,-63.9845 -33.1804,20.2944 -48.8563,46.3445 -57.2996,66.5312 14.5369,7.64022 5.72967,27.2704 -7.32161,18.7815z"/>
  <ellipse fill="#4F2900" cx="168.03" cy="153.827" rx="5.25246" ry="5.25229"/>
  <ellipse fill="#CCCCCC" cx="167.393" cy="153.19" rx="4.29747" ry="4.29733"/>
  <circle fill="white" cx="167.393" cy="154.463" r="2.38748"/>
  <path fill="#0581ED" d="M200.606 90.6211c4.04022,-5.69537 8.2253,-11.2439 12.4679,-16.5362 -10.6501,6.51374 -19.4967,13.621 -26.8798,20.937 8.30552,-0.193606 9.60775,-3.57052 14.4119,-4.40079z"/>
  <path fill="#C9015C" d="M241.723 71.8566c-19.2098,18.0071 -26.8478,40.0269 -27.3765,63.9845 -3.50164,2.54665 -7.95827,3.50164 -10.5049,7.63994 19.4185,-7.00356 14.2194,29.8168 -7.00328,14.9616 5.62394,11.4599 12.9458,11.4599 21.9648,0l3.18331 0c5.71918,11.2082 15.3819,14.5981 21.3282,2.86498 -14.262,10.7544 -23.0128,-8.25959 -10.8232,-15.2799l-5.72996 -5.72996c5.62394,-21.5405 14.4312,-43.7176 14.9616,-68.4411z"/>
  <ellipse fill="#4F2900" cx="220.757" cy="153.827" rx="5.25246" ry="5.25229"/>
  <ellipse fill="#CCCCCC" cx="220.12" cy="153.19" rx="4.29747" ry="4.29733"/>
  <circle fill="white" cx="219.483" cy="152.553" r="2.38748"/>
  <path fill="#0581ED" d="M241.723 71.8566c-6.60331,6.18974 -11.8392,12.8543 -15.889,19.908 9.53235,-4.55103 9.51478,2.67647 13.3169,2.58236 1.43263,-7.28674 2.40662,-14.7645 2.57216,-22.4904z"/>
  <path fill="#C9015C" d="M257.304 71.5383c19.2098,18.0071 30.0311,33.6603 30.2414,63.9845 2.75868,4.03257 7.32133,6.68495 10.8232,8.91326 -18.2279,-4.58107 -13.9966,28.0817 4.1383,15.2799 -4.66895,11.1416 -14.5375,10.1866 -23.5565,-1.27332l-3.18331 0c-2.05852,11.6317 -13.8438,15.6586 -22.2832,3.50164 17.4453,11.9483 27.2568,-9.13522 11.4599,-17.5082l9.2316 -5.72996c-6.08542,-17.8637 -13.282,-39.3854 -16.8715,-67.1678z"/>
  <circle fill="white" cx="232.013" cy="59.2842" r="3.02414"/>
  <circle fill="white" cx="221.987" cy="61.67" r="4.1383"/>
  <circle fill="white" cx="199.067" cy="69.31" r="6.36662"/>
  <circle fill="white" cx="214.665" cy="64.535" r="5.09329"/>
  <circle fill="white" cx="186.334" cy="75.9949" r="7.00328"/>
  <circle fill="white" cx="172.168" cy="85.704" r="8.11744"/>
  <circle fill="white" cx="158.321" cy="98.2781" r="9.2316"/>
  <circle fill="white" cx="147.179" cy="113.876" r="9.86826"/>
  <path fill="white" d="M139.221 121.835c5.44933,0 9.86826,4.41893 9.86826,9.86826 0,4.08699 -2.4857,7.5943 -6.02759,9.09241 -1.73055,-1.51739 -4.95865,-4.78914 -11.4551,-2.81565 -1.40797,-1.70589 -2.25383,-3.89282 -2.25383,-6.27676 0,-5.44933 4.41893,-9.86826 9.86826,-9.86826z"/>
  <path fill="#0581ED" d="M257.304 71.5383c7.20369,6.75241 13.2279,13.1743 17.9549,20.1626 -4.32425,-1.54885 -12.1501,-2.77937 -13.9278,2.99367 -1.57776,-7.21248 -2.96164,-14.9085 -4.02718,-23.1562z"/>
  <path fill="#C9015C" d="M349.237 161.626c-5.94227,8.48892 -9.76196,8.1703 -14.3249,-2.54665l-2.27849 -0.184536c-6.09818,12.8889 -16.0702,12.638 -22.233,2.73118 17.2896,11.575 27.6783,-16.8316 8.91326,-19.7365l10.5049 -7.00328c-15.4318,-36.9323 -34.1204,-55.9126 -44.5663,-60.8012 33.1804,20.2944 51.4029,50.4828 59.8462,70.6695 -10.7762,4.62529 -3.09997,18.2361 4.1383,16.8715z"/>
  <ellipse fill="#4F2900" cx="278.357" cy="153.827" rx="5.25246" ry="5.25229"/>
  <ellipse fill="#CCCCCC" cx="277.72" cy="153.19" rx="4.29747" ry="4.29733"/>
  <circle fill="white" cx="276.128" cy="152.553" r="2.38748"/>
  <ellipse fill="#4F2900" cx="334.683" cy="153.827" rx="5.25246" ry="5.25229"/>
  <ellipse fill="#CCCCCC" cx="334.047" cy="153.19" rx="4.29747" ry="4.29733"/>
  <circle fill="black" cx="280.694" cy="61.1938" r="4.1383"/>
  <circle fill="#4F2900" cx="235.358" cy="61.0329" r="3.02414"/>
  <circle fill="#644D36" cx="205.434" cy="69.7867" r="6.36662"/>
  <circle fill="#4F2900" cx="218.167" cy="64.8528" r="5.09329"/>
  <circle fill="#644D36" cx="191.746" cy="77.2671" r="7.00328"/>
  <circle fill="#644D36" cx="179.012" cy="85.5444" r="8.11744"/>
  <circle fill="#644D36" cx="165.643" cy="97.9595" r="9.2316"/>
  <circle fill="#644D36" cx="152.432" cy="113.399" r="9.86826"/>
  <circle fill="white" cx="333.41" cy="152.553" r="2.38748"/>
  <path fill="#0581ED" d="M307.906 95.3802c-8.76218,-11.734 -16.9404,-18.6219 -22.6528,-21.2953 10.8873,6.65887 20.1643,14.3833 28.0137,22.4702 -1.78696,-1.24044 -3.57392,-1.63191 -5.36088,-1.17496z"/>
  <circle fill="white" cx="278.308" cy="61.8299" r="4.1383"/>
  <circle fill="#CCCCCC" cx="234.561" cy="60.8742" r="3.02414"/>
  <circle fill="#4F2900" cx="228.991" cy="62.6247" r="4.1383"/>
  <circle fill="#CCCCCC" cx="227.717" cy="62.625" r="4.1383"/>
  <circle fill="#CCCCCC" cx="203.842" cy="69.31" r="6.36662"/>
  <circle fill="#CCCCCC" cx="216.894" cy="64.535" r="5.09329"/>
  <circle fill="#CCCCCC" cx="190.79" cy="76.3132" r="7.00328"/>
  <circle fill="#CCCCCC" cx="177.261" cy="85.3857" r="8.11744"/>
  <circle fill="#CCCCCC" cx="164.051" cy="97.9597" r="9.2316"/>
  <circle fill="#CCCCCC" cx="150.681" cy="113.558" r="9.86826"/>
  <circle fill="#644D36" cx="145.587" cy="130.749" r="9.86826"/>
  <path fill="#CCCCCC" d="M142.722 121.516c5.44933,0 9.86826,4.41893 9.86826,9.86826 0,4.76816 -3.38343,8.74715 -7.87975,9.66756 -0.642331,0.131528 -1.73934,0.83452 -1.9885,0.200693 -1.46693,-3.72869 -4.84526,-3.63543 -7.61443,-3.5915 -1.40797,-1.70589 -2.25383,-3.89282 -2.25383,-6.27676 0,-5.44933 4.41893,-9.86826 9.86826,-9.86826z"/>
  <circle fill="white" cx="139.539" cy="126.61" r="4.1383"/>
  <circle fill="white" cx="146.383" cy="109.26" r="3.97914"/>
  <circle fill="#CCCCCC" cx="277.831" cy="62.9431" r="4.1383"/>
  <circle fill="white" cx="161.663" cy="92.7073" r="3.6608"/>
  <circle fill="white" cx="174.874" cy="81.4065" r="3.50164"/>
  <circle fill="white" cx="189.199" cy="73.4483" r="3.18331"/>
  <circle fill="white" cx="201.614" cy="67.0816" r="3.18331"/>
  <circle fill="white" cx="215.779" cy="64.0575" r="2.38748"/>
  <circle fill="white" cx="226.125" cy="62.3067" r="1.59165"/>
  <circle fill="#4F2900" cx="241.404" cy="63.2612" r="3.02414"/>
  <circle fill="white" cx="235.357" cy="60.0784" r="1.59165"/>
  <path fill="white" d="M153.103 164.386c4.78007,3.5263 9.75402,2.41228 13.176,-5.62536 0.719717,1.31613 1.85925,0.737575 1.73679,1.81701 -1.12252,9.88526 -12.6632,11.715 -14.9128,3.80835zm36.7325 -4.9887c-2.69603,4.19471 -5.93887,7.12035 -9.24435,8.00476l0.0745512 1.80397c6.41396,-0.26504 8.6933,-2.27934 9.22337,-8.90533m23.1846 -86.2161c-15.7578,19.6571 -30.7191,42.842 -40.428,63.9845l6.36662 5.41162c-5.06041,3.3891 -6.30255,8.44385 -4.92577,12.3647l3.08069 0.320599c-2.91572,-5.03547 -1.16646,-8.79903 5.24778,-11.2907 3.50788,4.51616 8.28482,-2.04917 3.81657,-3.18047 -0.214299,-2.17389 1.48054,-4.29421 5.08876,-6.0429 -3.76384,-0.0527244 -6.04318,2.01458 -6.83802,6.20192l-4.92973 -4.13462 2.7034 -6.679 0 -1.90828 -4.45266 9.22337 5.08876 4.77071 -2.86243 -0.795119 -5.24778 -3.97559c10.8556,-24.2858 25.5277,-42.8471 38.2918,-64.2708z"/>
  <circle fill="#CCCCCC" cx="240.609" cy="62.7842" r="3.02414"/>
  <circle fill="#644D36" cx="225.807" cy="73.4483" r="5.09329"/>
  <circle fill="#CCCCCC" cx="224.215" cy="73.1299" r="5.09329"/>
  <circle fill="#644D36" cx="208.935" cy="96.0497" r="7.63994"/>
  <circle fill="black" cx="271.305" cy="58.9659" r="3.02414"/>
  <circle fill="#CCCCCC" cx="207.025" cy="96.0497" r="7.63994"/>
  <circle fill="#CCCCCC" cx="269.556" cy="60.2381" r="3.02414"/>
  <ellipse fill="white" cx="275.471" cy="64.3523" rx="2.70582" ry="2.8288"/>
  <circle fill="#644D36" cx="216.575" cy="82.6799" r="7.63994"/>
  <circle fill="#CCCCCC" cx="215.302" cy="82.3615" r="7.63994"/>
  <circle fill="#644D36" cx="201.614" cy="110.375" r="9.2316"/>
  <circle fill="#CCCCCC" cx="199.704" cy="110.375" r="9.2316"/>
  <path fill="#644D36" d="M195.884 117.06c5.80082,0 10.5049,4.7041 10.5049,10.5049 0,3.26296 -2.7618,7.77033 -5.0967,9.69733 -3.67229,-5.22737 -9.792,-4.34636 -13.191,-0.986741 -2.7944,-1.88816 -2.72211,-5.08507 -2.72211,-8.71059 0,-5.80082 4.7041,-10.5049 10.5049,-10.5049z"/>
  <path fill="#CCCCCC" d="M193.655 117.378c5.80082,0 10.5049,4.7041 10.5049,10.5049 0,3.26296 -1.48847,6.17868 -3.82337,8.10567 -3.99062,-2.99906 -9.15534,-2.75471 -12.5544,0.604914 -2.7944,-1.88816 -4.6321,-5.08507 -4.6321,-8.71059 0,-5.80082 4.7041,-10.5049 10.5049,-10.5049z"/>
  <circle fill="white" cx="189.676" cy="127.087" r="4.6158"/>
  <ellipse fill="white" cx="195.406" cy="110.852" rx="3.97914" ry="4.6158"/>
  <ellipse fill="white" cx="203.633" cy="95.7314" rx="3.29308" ry="3.81997"/>
  <circle fill="#4F2900" stroke="black" stroke-width="0.216" cx="270.769" cy="63.6578" r="4.37882"/>
  <circle fill="#4F2900" stroke="black" stroke-width="0.216" cx="234.083" cy="66.445" r="4.1383"/>
  <ellipse fill="white" cx="211.91" cy="82.6799" rx="3.29308" ry="3.81997"/>
  <circle fill="white" cx="296.037" cy="67.7936" r="6.91753"/>
  <circle fill="black" cx="289.464" cy="65.1857" r="5.42594"/>
  <circle fill="#644D36" cx="290.506" cy="83.7127" r="5.97048"/>
  <circle fill="#CCCCCC" cx="232.81" cy="66.1266" r="4.1383"/>
  <circle fill="white" cx="289.551" cy="85.6226" r="5.97048"/>
  <circle fill="#644D36" cx="297.587" cy="95.0948" r="7.32161"/>
  <ellipse fill="white" cx="222.464" cy="73.1299" rx="2.38753" ry="2.86498"/>
  <circle fill="#644D36" cx="250.477" cy="86.0223" r="5.57079"/>
  <circle fill="#CCCCCC" cx="248.886" cy="86.3407" r="5.57079"/>
  <circle fill="white" cx="269.178" cy="65.2495" r="4.37882"/>
  <circle fill="#CCCCCC" cx="268.223" cy="67.1595" r="4.37882"/>
  <circle fill="#4F2900" cx="277.055" cy="69.1508" r="5.25246"/>
  <circle fill="white" cx="287.874" cy="65.8218" r="5.42594"/>
  <ellipse fill="white" cx="231.378" cy="67.2726" rx="1.75086" ry="2.10098"/>
  <circle fill="white" cx="296.154" cy="95.8906" r="6.52578"/>
  <circle fill="#CCCCCC" cx="295.359" cy="97.0047" r="7.32161"/>
  <circle fill="#644D36" cx="251.114" cy="96.2089" r="6.20745"/>
  <circle fill="#CCCCCC" cx="249.204" cy="97.1639" r="6.20745"/>
  <ellipse fill="white" cx="239.973" cy="63.1343" rx="1.75086" ry="1.78266"/>
  <circle fill="#644D36" cx="251.114" cy="107.669" r="7.48078"/>
  <circle fill="#CCCCCC" cx="288.596" cy="86.5776" r="5.97048"/>
  <circle fill="white" cx="275.781" cy="71.3791" r="5.25246"/>
  <circle fill="#CCCCCC" cx="249.204" cy="108.305" r="7.48078"/>
  <circle fill="#CCCCCC" cx="288.033" cy="67.8891" r="5.42594"/>
  <ellipse fill="white" transform="matrix(0.775906 0.183312 -0.216979 0.918409 286.398 69.3162)" rx="3.97559" ry="3.89594"/>
  <path fill="#644D36" d="M252.228 111.966c5.62507,0 10.1866,4.56151 10.1866,10.1866 0,4.21881 -3.20258,8.47559 -6.85871,10.0225 -2.09254,-1.05874 -4.35175,-1.6954 -7.29241,-0.636662 -3.65613,-1.54687 -6.22205,-5.16699 -6.22205,-9.3858 0,-5.62507 4.56151,-10.1866 10.1866,-10.1866z"/>
  <path fill="#CCCCCC" d="M249.363 112.603c5.62507,0 10.1866,4.56151 10.1866,10.1866 0,4.21881 -2.56592,7.83893 -6.22205,9.3858 -2.09254,-1.05874 -4.98841,-1.05874 -7.92907,0 -3.65613,-1.54687 -6.22205,-5.16699 -6.22205,-9.3858 0,-5.62507 4.56151,-10.1866 10.1866,-10.1866z"/>
  <circle fill="#644D36" cx="250.477" cy="75.5174" r="4.6158"/>
  <circle fill="#CCCCCC" cx="249.204" cy="75.5174" r="4.6158"/>
  <circle fill="#4F2900" cx="250.796" cy="60.5559" r="3.34247"/>
  <circle fill="#644D36" cx="304.909" cy="108.783" r="8.91327"/>
  <circle fill="#CCCCCC" cx="249.204" cy="61.1925" r="3.34247"/>
  <circle fill="white" cx="303.08" cy="110.138" r="8.67629"/>
  <ellipse fill="white" cx="245.862" cy="108.41" rx="2.5467" ry="3.44653"/>
  <circle fill="#644D36" cx="284.695" cy="74.8807" r="5.25246"/>
  <ellipse fill="white" cx="283.184" cy="76.9499" rx="5.33381" ry="4.77496"/>
  <circle fill="white" cx="260.979" cy="61.0334" r="4.1383"/>
  <circle fill="#CCCCCC" cx="302.362" cy="111.33" r="8.91327"/>
  <path fill="#644D36" d="M309.765 115.21c-5.49411,0 -9.94961,4.4555 -9.94961,9.94961 0,3.09062 1.40967,5.85213 3.62126,7.67736 3.46025,-1.56217 6.86495,-0.479055 10.9358,2.48287 2.64671,-1.78838 5.34218,-6.72633 5.34218,-10.1602 0,-5.49411 -4.4555,-9.94961 -9.94961,-9.94961z"/>
  <circle fill="#644D36" cx="251.114" cy="66.9225" r="3.97914"/>
  <circle fill="#4F2900" cx="262.015" cy="58.8864" r="4.53799"/>
  <ellipse fill="white" cx="244.698" cy="122.153" rx="3.29308" ry="4.45663"/>
  <path fill="white" d="M307.537 116.484c-5.49411,0 -9.94961,4.4555 -9.94961,9.94961 0,3.09062 1.40967,5.85213 3.62126,7.67736 3.77972,-2.8406 8.67147,-2.60901 11.8908,0.572882 2.64671,-1.78838 4.38718,-4.81635 4.38718,-8.25024 0,-5.49411 -4.4555,-9.94961 -9.94961,-9.94961z"/>
  <circle fill="#CCCCCC" cx="249.204" cy="67.2408" r="3.97914"/>
  <ellipse fill="white" cx="246.145" cy="98.7555" rx="1.8747" ry="3.02408"/>
  <ellipse fill="white" cx="247.46" cy="87.6139" rx="2.23454" ry="3.02408"/>
  <ellipse fill="white" cx="247.778" cy="76.7907" rx="2.23454" ry="2.38743"/>
  <ellipse fill="white" cx="248.408" cy="68.5141" rx="1.90997" ry="2.38743"/>
  <ellipse fill="white" cx="248.705" cy="61.1925" rx="0.933765" ry="1.75078"/>
  <circle fill="#CCCCCC" cx="260.342" cy="62.625" r="4.1383"/>
  <circle fill="#CCCCCC" cx="282.466" cy="78.7007" r="5.25246"/>
  <path fill="#CCCCCC" d="M306.582 117.439c-5.49411,0 -9.94961,4.4555 -9.94961,9.94961 0,3.09062 1.40967,5.85213 3.62126,7.67736 3.77972,-2.8406 8.67147,-2.60901 11.8908,0.572882 2.64671,-1.78838 4.38718,-4.81635 4.38718,-8.25024 0,-5.49411 -4.4555,-9.94961 -9.94961,-9.94961z"/>
  <circle fill="#CCCCCC" cx="275.463" cy="72.9708" r="5.25246"/>
  <ellipse fill="white" cx="302.233" cy="125.973" rx="3.5283" ry="4.77496"/>
  <ellipse fill="white" cx="298.227" cy="111.33" rx="3.66082" ry="4.45663"/>
  <ellipse fill="white" cx="292.975" cy="97.6968" rx="3.18332" ry="3.87533"/>
  <ellipse fill="white" cx="287.245" cy="88.2506" rx="3.50165" ry="3.6608"/>
  <ellipse fill="white" cx="280.719" cy="78.5054" rx="2.70582" ry="2.8288"/>
  <ellipse fill="white" cx="274.034" cy="72.4571" rx="2.70582" ry="2.8288"/>
  <ellipse fill="white" cx="267.667" cy="67.6821" rx="2.70582" ry="2.8288"/>
  <ellipse fill="white" cx="260.505" cy="63.2255" rx="2.54666" ry="2.8288"/>
  <circle fill="black" cx="303.352" cy="69.2248" r="6.91753"/>
  <circle fill="black" cx="316.666" cy="75.2001" r="7.00328"/>
  <circle fill="white" cx="312.372" cy="74.882" r="7.00328"/>
  <circle fill="#CCCCCC" cx="313.644" cy="79.9708" r="7.00328"/>
  <circle fill="black" cx="345.95" cy="97.8007" r="9.2316"/>
  <circle fill="black" cx="330.195" cy="85.2266" r="8.11744"/>
  <circle fill="white" cx="338.953" cy="94.9383" r="9.2316"/>
  <circle fill="white" cx="326.06" cy="84.1135" r="8.11744"/>
  <circle fill="#CCCCCC" cx="327.014" cy="89.2022" r="8.11744"/>
  <ellipse fill="black" cx="356.497" cy="114.909" rx="9.74906" ry="10.1074"/>
  <circle fill="white" cx="351.886" cy="112.405" r="9.74906"/>
  <circle fill="#CCCCCC" cx="352.045" cy="115.426" r="9.74906"/>
  <circle fill="#CCCCCC" cx="341.02" cy="100.822" r="9.2316"/>
  <ellipse fill="white" cx="355.274" cy="132.545" rx="4.29364" ry="4.20761"/>
  <ellipse fill="white" cx="348.436" cy="116.569" rx="4.45266" ry="4.61147"/>
  <ellipse fill="white" transform="matrix(1.04592 0.247104 -0.292488 1.23802 337.763 100.961)" rx="3.97559" ry="3.89594"/>
  <circle fill="#CCCCCC" cx="299.536" cy="72.2462" r="6.91753"/>
  <ellipse fill="white" transform="matrix(0.895892 -0.487136 0.576604 1.06043 324.178 87.8338)" rx="3.97559" ry="3.89594"/>
  <ellipse fill="white" transform="matrix(0.703017 -0.419253 0.452468 0.912659 310.235 78.9287)" rx="3.97559" ry="3.89594"/>
  <ellipse fill="white" transform="matrix(0.775906 0.183312 -0.216979 0.918409 298.166 71.8606)" rx="3.97559" ry="3.89594"/>
  <polygon fill="#F00000" points="248.976,184.003 262.688,192.842 250.388,201.005 235.721,193.757 "/>
  <polygon fill="white" points="248.976,184.003 249.05,193.283 235.721,193.757 "/>
  <polygon fill="#F00000" points="246.18,189.002 246.18,191.549 242.36,191.867 "/>
  <polygon fill="#F00000" points="158.252,183.366 173.555,191.887 158.709,199.414 147.225,192.165 "/>
  <polygon fill="white" points="158.252,183.366 158.326,192.647 146.907,192.484 "/>
  <polygon fill="#F00000" points="155.774,188.047 155.774,190.594 151.954,190.594 "/>
  <polygon fill="#F00000" points="339.7,183.366 349.274,192.206 340.476,200.369 324.217,192.484 "/>
  <polygon fill="white" points="340.018,183.366 339.774,192.647 324.217,192.484 "/>
  <polygon fill="#F00000" points="335.631,188.047 335.631,190.912 330.856,190.912 "/>
  <circle fill="#0581ED" cx="201.614" cy="192.186" r="3.81997"/>
  <circle fill="#0581ED" cx="289.155" cy="191.867" r="3.81997"/>
  <ellipse fill="white" cx="296.795" cy="191.867" rx="4.77496" ry="3.81997"/>
  <ellipse fill="white" cx="209.254" cy="192.186" rx="4.77496" ry="3.81997"/>
  <path fill="white" d="M341.983 209.376c3.23632,0.212315 3.024,-8.80668 0,-8.91326 1.27219,2.5475 1.27219,5.51849 0,8.91326zm30.5598 -60.4829c-5.92214,-0.503717 -9.62816,1.76967 -12.3171,5.2217 1.3218,-5.08054 4.6321,-7.77544 12.3171,-5.2217zm-109.824 -116.129l0 -1.65373 -8.2766 0 -0.148252 1.33569 8.42485 0.318047zm-8.2766 -10.1775l0 -2.6178 -8.26186 0 0 2.6178 8.26186 0zm-8.26186 8.52378l-8.2766 0 0 1.65373 8.12098 0 0.155622 -1.65373zm-118.101 117.782c-2.22803,-8.27632 1.91027,-11.8837 12.4149,-10.8232 -5.19818,2.54806 -9.33648,6.15572 -12.4149,10.8232zm14.9349 9.43682c4.20435,8.20574 6.10838,18.7688 15.3065,18.8946 -2.68554,-0.238394 -3.82706,2.14158 -3.42425,4.25084 3.71282,-1.96895 9.12189,-3.09005 16.2278,-3.36331l1.90828 2.06731c0.689103,-0.901134 0.901134,-2.43836 2.06731,-2.7034l-2.06731 -1.11317 -13.358 0.477071c-9.05188,-2.8304 -13.4921,-18.8598 -16.6604,-18.51zm47.4579 41.1778l-31.8331 0.954993c-1.13386,0.0399685 -1.87257,1.33342 -2.18211,2.92309l32.4235 -1.0131c1.16646,-0.954709 1.69682,-1.9097 1.59165,-2.86498"/>
  <polygon fill="white" points="179.234,176.362 179.393,178.748 219.945,179.225 222.807,178.271 217.241,176.68 "/>
  <path fill="white" d="M229.645 179.384l13.0399 -0.318047 2.54438 -1.74926c-5.3538,0.212032 -10.3895,-0.371055 -15.1073,0.159024 -0.159024,0.636095 -0.795119,1.27219 -0.477071,1.90828z"/>
  <path fill="white" d="M196.568 202.124l27.1931 0c1.00687,-0.636095 0.953859,-1.48422 -0.159024,-2.54438l-25.6028 0.159024c-1.43178,0.477355 -1.59024,1.59052 -1.43121,2.38536z"/>
  <path fill="white" d="M225.828 202.283l19.878 0.318047c1.00687,-0.636095 0.953859,-1.48422 -0.159024,-2.54438l-18.2877 -0.159024c-1.43178,0.477355 -1.59024,1.59052 -1.43121,2.38536z"/>
  <path fill="white" d="M252.226 202.124l17.3336 0.477071c1.00687,-0.636095 2.70312,-1.96129 1.59024,-3.02145l-17.0155 0c-1.43178,0.477355 -2.06731,1.74954 -1.90828,2.54438z"/>
  <path fill="#BF9F4F" d="M174.556 103.69l0 1.90999c-8.72731,9.576 -14.9346,20.6646 -19.4182,32.7881l-3.81997 0.318331c6.15459,-12.8659 13.6885,-24.6977 23.2382,-35.0164z"/>
  <polygon fill="#BF9F4F" points="180.286,96.6864 180.604,99.2331 184.424,96.0497 184.424,94.1398 "/>
  <polygon fill="#BF9F4F" points="187.607,83.6348 190.154,85.8632 189.199,90.6381 187.925,90.6381 "/>
  <path fill="white" d="M296.753 79.517l2.54438 2.54438 2.22633 -1.27219 5.72485 6.51997 -1.11317 -3.49852 4.77071 4.45266 1.11317 -0.636095c12.2054,12.013 25.0075,29.9699 38.4837,52.1598l-0.636095 2.7034c-17.1652,-30.1774 -27.1877,-41.6217 -35.4623,-49.2973 8.73326,12.3894 19.5143,21.6853 32.9179,49.9334l5.24778 0.795119c-0.530079,-1.53695 0.212032,-2.65011 2.22633,-3.3395l1.11317 0.795119c-2.17361,0.742111 -2.86271,2.54438 -2.06731,5.40681 -12.3058,-5.82038 -14.2634,6.73682 -8.58728,11.7678l-4.29364 -6.51997 -1.13556 -1.03975c0.339874,-2.46954 1.90545,-4.79225 5.27301,-6.23764 -7.48233,-17.8892 -22.6451,-43.6334 -49.0916,-63.3855l0.745512 -1.85187zm35.881 79.3778c-1.3337,2.81934 -2.85336,5.00996 -4.47761,6.60841l0.401386 2.11295 4.29364 -4.45266 -0.217417 -4.2687z"/>
  <path fill="white" d="M294.566 130.429c-0.19389,-20.613 -7.09881,-31.5315 -14.9616,-41.0647 8.43534,13.9796 13.4226,27.6148 13.3699,40.7464l1.59165 0.318331z"/>
  <polygon fill="white" points="237.585,121.835 234.72,138.388 233.128,137.433 "/>
  <path fill="#644D36" d="M307.936 162.581c0.954993,1.59165 1.43291,3.02428 2.86498,4.77496l-3.3429 0c-1.96186,-2.01572 -2.49222,-4.34977 -2.54636,-6.52422l3.02428 1.74926z"/>
  <path fill="white" d="M257.304 71.5383c19.2098,18.0071 30.0311,33.6603 30.2414,63.9845 0.280063,0.409323 0.578835,0.80504 0.893197,1.18687 2.77002,-26.1145 -5.72372,-49.796 -29.2524,-66.8634 -1.35354,-0.981922 -1.09049,-1.89184 -2.50696,-2.89219l0.624756 4.58419zm41.0647 72.8978c-0.328252,-0.20863 -0.666142,-0.421229 -1.01084,-0.638646 0.222236,-3.93421 0.974552,-7.07386 2.89389,-8.46312l2.7034 1.11317c-4.18791,0.424063 -4.77099,3.39251 -1.74926,8.90533l-0.954142 2.06731 -2.22633 -1.27219 0.343276 -1.71184zm-4.29166 -0.401103c-8.82567,0.816095 -9.43541,12.9787 -3.82167,17.2256l-0.181134 -4.45805c-2.86271,-3.97588 -1.16646,-8.1635 3.65755,-10.6546l0.34526 -2.11295zm4.2086 21.67c1.65487,-1.30167 3.09062,-3.29074 4.22136,-5.98904l-0.0289134 4.40164 -3.3395 2.7034 -0.852945 -1.116zm-28.2484 2.16255c2.81849,-1.77052 4.95808,-5.06325 5.72996,-9.42492l1.10806 3.76668c-1.24611,2.86214 -3.36614,5.14148 -5.88388,7.15607l-0.954142 -1.49783z"/>
  <path fill="#644D36" d="M302.507 159.716c-5.66703,4.00054 -9.97682,3.56117 -12.6672,1.20586l0.711496 -3.16517c3.18047,1.85499 6.57298,2.22605 10.1775,1.11317l1.77817 0.846142zm-10.1472 7.83865c-4.1777,-0.278362 -8.89994,-3.38202 -13.4093,-9.11197l-3.18331 0c5.9281,6.01909 11.5121,9.45383 16.5926,9.11197zm-26.9728 1.7708c-3.87836,0.158173 -8.21084,-2.06249 -11.903,-7.38114 17.4453,11.9483 27.2568,-9.13522 11.4599,-17.5082l9.2316 -5.72996c-6.08542,-17.8637 -13.282,-39.3854 -16.8715,-67.1678l-0.624756 -3.63005 -0.477071 -0.795119 -1.27219 1.43121 8.11021 42.6184 -1.59024 2.86243 0.954142 6.36095 1.27219 -3.97559 0.954142 -0.477071 -0.954142 11.1317 0.954142 0.159024 -0.159024 3.81657 -1.74926 -1.59024 -1.11317 2.86243 2.38536 1.11317 2.06731 -1.27219 -0.318047 2.22633 2.06731 0.318047 0.159024 -0.795119 -0.795119 -3.65755 1.11317 -0.954142 0.795119 4.13462 1.11317 -0.477071 0.318047 1.43121 -4.13462 2.54438 -3.49852 4.13462 8.42826 -4.45266 0.477071 1.74926 -1.74926 1.74926 -6.0429 2.06731 -3.81657 2.7034c13.3846,6.24161 9.99185,22.2764 -7.79216,13.8351l0 5.08876c4.70466,3.88318 9.14457,6.30822 13.0014,5.52586z"/>
  <polygon fill="#644D36" points="257.951,132.472 259.223,135.493 261.45,133.744 259.541,130.086 "/>
  <path fill="#644D36" d="M255.884 145.671l0.795119 1.59024 6.83802 -8.11021 -0.795119 -0.318047 -1.59024 1.11317 -0.159024 -1.27219 -1.11317 0.318047c0.212882,-2.22718 -1.05987,-4.08218 -2.54438,-5.40681l-1.74926 1.11317 0.159024 1.11317 1.59024 -0.795119 -0.795119 3.97559 0.636095 0.636095 1.27219 -2.06731 0.159024 1.74926 -0.795119 2.22633 -0.318047 1.74926 -1.59024 2.38536z"/>
  <path fill="white" d="M218.804 158.443c-2.67732,3.40214 -5.20555,5.7943 -7.58353,7.17619l0.932315 2.47436c2.75641,-1.27219 5.08876,-3.60454 6.99704,-6.99704l-0.345827 -2.65351zm24.5115 2.86498c-2.04378,4.03314 -4.52721,6.27931 -7.13821,7.03531l1.89638 1.49953c1.96129,-0.954142 3.44551,-1.90828 4.92973,-3.3395l0.312095 -5.19534zm-16.3457 -3.58583c-0.925229,-4.01074 0.570614,-8.84211 5.52246,-11.6941l-3.1921 -3.1921 0.34526 -1.61745 6.20192 3.49852 3.02145 0 -9.22337 -5.24778 0.636095 -1.27219 1.11317 -0.318047 6.0429 4.29364 0.795119 -0.318047c0.106016,-4.8121 2.75641,-8.51018 7.95119,-9.70045l0 1.74926c-5.83087,0.742111 -8.21622,5.45981 -4.77071,11.7678l-1.11317 2.06731c-5.40681,-2.80942 -14.8422,2.91543 -12.0858,8.58728l-1.24441 1.39635zm0.740126 -16.4764l-0.947623 -0.947623c5.62394,-21.5405 14.4312,-43.7176 14.9616,-68.4411l3.02882 -3.94838c0.836504,15.9829 -9.19645,52.7369 -17.0427,73.3371z"/>
  <path fill="#644D36" d="M241.723 71.8566c-19.2098,18.0071 -26.8478,40.0269 -27.3765,63.9845 -3.50164,2.54665 -7.95827,3.50164 -10.5049,7.63994 19.4185,-7.00356 14.2194,29.8168 -7.00328,14.9616 3.33921,6.80429 7.27711,9.56835 11.8134,8.29276 -7.15607,1.67216 -11.5019,-2.06306 -12.4021,-9.29679l-1.43121 -1.27219 1.43121 -2.7034c2.34369,5.78098 15.0718,5.68375 16.4441,-1.42895 1.96129,-10.1659 -8.25959,-6.76574 -13.8997,-6.04517l1.74926 -5.08876c0.530079,-1.59024 -0.0530079,-3.49852 -0.795119,-4.77071l6.36095 -1.90828 0.477071 2.06731 -3.49852 1.74926 0.159024 1.74926c2.96844,-1.48422 5.93688,-3.60454 8.90533,-4.45266l0.477071 -2.54438 -3.65755 2.54438 -0.636095 -0.795119 3.81657 -4.61169c2.83096,-21.4472 7.92312,-29.3241 12.5629,-39.9149 -7.39446,10.7408 -12.0061,24.0321 -14.3121,39.4379l-1.74926 3.02145c1.26227,-18.1157 7.69635,-35.4759 17.4926,-49.4564l-0.795119 -3.3395 5.08876 -4.29364 0.954142 1.11317 0.795119 -0.477071 -0.477071 -2.7034 1.74926 -1.27219 0.795119 1.74926 1.27219 -2.06731 1.11317 1.43121 0.954142 -3.02145 1.74926 -1.27219 -1.90828 4.29364c-7.71761,7.38 -6.23906,7.23459 -7.95119,9.70045l10.6546 -11.9268 0.636095 -1.59024 1.90828 -0.636095 -0.961512 3.15326zm-6.26174 96.6558c-4.78545,0.886111 -9.90029,-3.06482 -13.4748,-10.0698l-3.18331 0c4.34523,6.63336 9.3413,11.5024 16.6581,10.0698zm7.85339 -7.20482c-8.46794,6.38533 -14.993,2.27594 -16.3457,-3.58583l1.24441 -1.55537c2.22633,4.6647 8.21622,5.40681 15.5843,1.27219l-0.483024 3.86901z"/>
  <path fill="#644D36" d="M212.629 188.448c1.64296,0.636095 2.65011,1.90828 3.02145,3.81657l5.56583 0 -2.38536 -1.90828 2.86243 -1.11317 -0.318047 -1.11317 -2.06731 0.954142 0.159024 -0.795119 2.7034 -3.49852 -1.11317 0 -1.74926 1.74926 -1.11317 -0.636095 -4.61169 0.159024 0.477071 1.90828 -1.43121 0.477071z"/>
  <polygon fill="#644D36" points="308.362,185.745 327.922,185.586 325.377,187.335 307.885,187.494 "/>
  <polygon fill="#644D36" points="322.356,188.766 319.97,190.038 306.93,190.038 307.249,188.448 "/>
  <polygon fill="#644D36" points="306.135,192.742 322.992,192.742 324.423,190.515 306.294,190.515 "/>
  <polygon fill="#644D36" points="324.582,193.06 306.612,193.378 305.658,195.922 322.356,195.763 325.305,194.431 "/>
  <rect fill="white" x="275.466" y="199.507" width="21.9648" height="0.636662"/>
  <rect fill="white" x="301.251" y="199.507" width="31.8331" height="0.954993"/>
  <rect fill="white" x="181.241" y="190.276" width="2.54665" height="0.318331"/>
  <rect fill="white" x="180.922" y="193.141" width="3.18331" height="0.636662"/>
  <polygon fill="white" points="166.916,203.327 179.012,203.646 176.784,205.874 165.006,205.874 "/>
  <path fill="white" d="M151.282 144.507l0.45978 1.87427c-1.4383,-0.306425 -2.68781,0.141449 -3.74967,1.34476l-0.494929 -1.98085c1.30876,-1.02586 3.32476,-1.34419 3.78482,-1.23817z"/>
  <rect fill="white" x="254.457" y="176.906" width="14.0066" height="0.636662"/>
  <rect fill="white" x="283.425" y="176.906" width="3.81997" height="1.27332"/>
  <rect fill="white" x="305.071" y="176.906" width="11.4599" height="0.636662"/>
 </g>
</svg>
