<?xml version="1.0" encoding="UTF-8"?>
<!DOCTYPE svg PUBLIC "-//W3C//DTD SVG 1.1//EN" "http://www.w3.org/Graphics/SVG/1.1/DTD/svg11.dtd">
<!-- Creator: CorelDRAW -->
<svg xmlns="http://www.w3.org/2000/svg" xml:space="preserve" width="500px" height="569px" shape-rendering="geometricPrecision" text-rendering="geometricPrecision" image-rendering="optimizeQuality" fill-rule="evenodd" clip-rule="evenodd"
viewBox="0 0 500 569"
 xmlns:xlink="http://www.w3.org/1999/xlink"
 xmlns:svg="http://www.w3.org/2000/svg"
 version="1.0">
 <g id="Layer_x0020_1">
  <metadata id="CorelCorpID_0Corel-Layer"/>
  <path id="path1937" fill="black" stroke="black" stroke-width="0.992126" d="M0.653103 0.782363l498.933 -0.121606 0.274677 318.651c-2.22378,161.596 -119.035,248.367 -249.35,248.448 -130.315,0.0810709 -245.813,-85.8447 -250.145,-248.795l0.286583 -318.181z"/>
  <path id="path1937_0" fill="#CCCCCC" stroke="black" stroke-width="0.992126" d="M499.711 145.796l0.149953 173.516c-0.208347,15.1495 -1.42469,29.6413 -3.56372,43.4659 -3.28649,-0.0229606 3.44835,0.024378 -9.9601,-0.0711496 -13.4082,-0.0958111 -47.3825,38.0642 -72.6118,37.8848 -28.8343,-0.204662 -49.0794,-38.7547 -79.6938,-38.9724 -30.6148,-0.217701 -55.3006,40.1644 -82.2277,39.9733 -25.2445,-0.178866 -49.6542,-40.9142 -78.8029,-41.1225 -29.1487,-0.208347 -59.5432,37.9769 -81.7946,37.819 -36.652,-0.259937 -55.5565,-38.861 -77.1069,-38.9537 -13.0141,-0.056126 -6.63307,-0.0470551 -10.2144,-0.072567 -1.95279,-12.8602 -3.14646,-26.2948 -3.51865,-40.2982l0.158173 -175.302c3.59093,0.0153071 7.11638,0.0308977 10.5942,0.0456378 24.3431,0.103465 45.3076,42.8789 71.5147,42.9894 23.2946,0.0980788 56.9532,-42.4429 86.4893,-42.3182 29.5362,0.124724 50.2149,42.9171 80.441,43.0472 30.2258,0.13011 53.1227,-42.4664 85.79,-42.3278 32.6673,0.138331 47.5464,44.8827 79.2587,44.0932 31.7126,-0.789449 56.2618,-43.5175 75.8523,-43.435 2.79723,0.0116221 5.8337,0.0246614 9.24605,0.0391181z"/>
  <path fill="white" d="M30.7741 284.811c139.866,-2.88454 77.3989,-56.8664 174.219,-106.112l16.2774 18.2571c-27.7087,23.4442 -34.0172,39.5255 -33.524,54.0394 0.341292,10.0383 5.79005,35.2018 28.4516,35.1142 10.6982,-0.0411024 233.782,0.020126 247.067,-0.0575433 -2.96362,9.42067 -9.02835,25.3537 -10.4411,27.0218 -1.70022,1.85358 -39.5201,11.1716 -62.6176,17.0566 -1.67896,0.449858 -4.97254,1.91877 -10.7708,1.84677 -84.1431,0.120756 -167.046,-0.0685985 -251.189,0.052441 -4.75994,-0.152787 -5.48816,-0.460347 -9.93771,-1.54318 -27.3169,-6.95197 -78.808,-18.1242 -81.1755,-21.7857 -2.3675,-3.66151 -2.7411,-14.6863 -6.3601,-23.8898z"/>
  <path fill="black" d="M36.4235 292.941c139.866,-2.88454 78.0191,-56.8664 174.84,-106.112l16.2774 18.2571c-27.7087,23.4442 -34.0172,39.5255 -33.524,54.0394 0.341292,10.0383 5.79005,35.2012 28.4516,35.1142 10.0293,-0.0385512 207.346,-6.19002 242.841,-6.247 2.36608,-0.00368504 3.39619,6.19427 4.22646,6.18945 -3.68221,8.70237 -9.22961,25.1524 -10.4411,27.0218 -1.70022,1.85358 -39.5201,11.1716 -62.6176,17.0566 -1.67896,0.449858 -4.97254,1.91877 -10.7708,1.84677 -84.1431,0.120756 -167.046,-0.0685985 -251.189,0.052441 -4.75994,-0.152787 -5.48816,-0.460347 -9.93771,-1.54318 -27.3169,-6.95197 -79.7383,-19.3646 -81.1755,-21.7857 -1.43717,-2.42107 -4.91188,-15.6166 -6.98032,-23.8898z"/>
  <path fill="#F00000" d="M34.064 286.051c136.765,-1.95421 76.7787,-57.1765 173.599,-106.422l16.2774 18.2571c-27.7087,23.4442 -34.0172,39.5255 -33.524,54.0394 0.341292,10.0383 5.79005,35.2018 28.4516,35.1142 10.6982,-0.0411024 233.782,0.020126 247.067,-0.0575433 -2.96362,9.42067 -9.02835,25.3537 -10.4411,27.0218 -1.70022,1.85358 -39.5201,11.1716 -62.6176,17.0566 -1.67896,0.449858 -4.97254,1.91877 -10.7708,1.84677 -84.1431,0.120756 -167.046,-0.0685985 -251.189,0.052441 -4.75994,-0.152787 -5.48816,-0.460347 -9.93771,-1.54318 -27.3169,-6.95197 -78.4982,-18.7444 -81.1755,-21.7857 -2.67732,-3.04129 -2.7411,-14.3762 -5.73988,-23.5797z"/>
  <circle fill="black" cx="155.881" cy="295.819" r="15.9707"/>
  <ellipse fill="#CCCCCC" cx="158.672" cy="298.3" rx="13.1797" ry="13.4898"/>
  <path fill="#F00000" stroke="#F00000" stroke-width="0.216" d="M172.783 285.741c6.92391,-1.56501 17.1003,0.59726 20.649,9.27667 1.89184,-3.66293 17.6406,-10.042 26.6301,4.17827 4.13348,-4.15106 14.7861,-11.6603 30.5453,-2.49534 8.1618,-8.45065 20.041,-11.1362 31.3623,-6.95282 6.45052,-5.97714 14.0173,-7.40353 21.6799,-4.9371 1.24044,-7.73348 19.537,-15.467 26.6695,-9.86542 1.25008,-6.02703 12.4503,-15.5653 24.0253,-16.6235 -0.685701,-4.00847 3.52687,-14.1078 13.8183,-17.6278 -6.3326,-4.64145 -2.23484,-21.5623 -2.43156,-16.5742 -7.34741,0.0875906 -16.5495,-6.10526 -18.3776,-14.6724 -6.70536,8.06542 -18.8977,9.62278 -28.8919,-0.270425 -4.03597,12.424 -23.5497,8.51528 -26.8696,8.16407 -1.27956,14.2177 -20.194,11.1524 -26.7063,11.0296 0.0507402,12.5742 -15.7139,14.9148 -24.9662,13.2239 -0.623906,13.521 -8.69046,16.8083 -24.1997,17.3047 -2.25099,9.19871 -9.85182,14.3654 -17.9949,16.7414 -4.81181,-6.21355 -5.82407,-12.4268 -7.8446,-23.6024 4.23099,-2.51121 9.08221,-4.40221 14.5536,-3.8126 2.98262,-8.54278 11.8573,-12.4339 20.7323,-14.7747 8.6967,-13.7529 19.5645,-13.2406 30.7423,-15.2093 6.19824,-10.4854 16.4282,-11.6674 24.7975,-10.3686 6.46696,-11.6167 17.5859,-11.7595 30.5654,-11.5923 11.8443,-7.18611 22.7582,-5.06892 31.8115,0.769607 12.3625,-4.83874 25.9654,-1.92473 26.8537,12.153 20.2527,-2.04548 16.937,18.8572 9.59018,29.5263 7.87437,2.8783 4.58476,16.3004 -9.86882,25.3809 -2.35588,8.8886 -8.12296,14.9862 -22.8833,16.4319 -4.92236,9.90086 -11.3953,15.4604 -29.6521,14.8178 -5.02328,12.003 -15.9384,10.6713 -30.8849,9.95982 -7.2275,12.2372 -26.549,11.4497 -31.9156,4.14992 -7.63966,9.0686 -17.4501,12.8653 -29.431,2.70737 -5.12674,5.6109 -14.4403,13.5998 -26.6984,-0.84189 -6.88139,5.86942 -17.1737,7.3973 -25.2953,-5.65002 -8.50819,9.45128 -20.7672,1.57805 -19.9619,-10.6413 2.17077,-9.92353 9.92353,-13.0246 19.8471,-9.30303z"/>
  <path fill="none" stroke="white" stroke-width="1.98425" d="M189.88 252.038c4.23099,-2.51121 9.08221,-4.40221 14.5536,-3.8126 2.98262,-8.54278 11.8573,-12.4339 20.7323,-14.7747 8.6967,-13.7529 19.5645,-13.2406 30.7423,-15.2093 6.19824,-10.4854 16.4282,-11.6674 24.7975,-10.3686 6.46696,-11.6167 17.5859,-11.7595 30.5654,-11.5923 11.8443,-7.18611 22.7582,-5.06892 31.8115,0.769607 12.3625,-4.83874 25.9654,-1.92473 26.8537,12.153m-217.311 85.2205c1.86066,-8.37298 12.4044,-13.3347 18.9167,-8.3727 6.92391,-1.87512 18.3407,0.28715 21.8894,8.96656 1.89184,-3.66293 17.6406,-10.042 26.6301,4.17827 4.13348,-4.15106 14.7861,-11.6603 30.5453,-2.49534 8.1618,-8.45065 20.041,-11.1362 31.3623,-6.95282 6.02646,-5.47087 13.3906,-6.47944 21.6799,-4.9371 1.24044,-7.73348 18.2965,-14.5366 26.6695,-9.86542 1.25008,-6.02703 12.4503,-15.5653 24.0253,-16.6235 -0.685701,-4.00847 3.83698,-14.728 14.1284,-18.248 -5.86715,-4.64173 -2.80347,-20.0115 -3.36189,-15.0236"/>
  <path fill="none" stroke="black" stroke-width="2.83465" d="M369.936 209.203c20.2527,-2.04548 16.937,18.8572 9.59018,29.5263 7.87437,2.8783 4.58476,16.3004 -9.86882,25.3809 -2.35588,8.8886 -8.12296,14.9862 -22.8833,16.4319 -4.92236,9.90086 -11.3953,15.4604 -29.6521,14.8178 -5.02328,12.003 -15.9384,10.6713 -30.8849,9.95982 -7.2275,12.2372 -26.549,11.4497 -31.9156,4.14992 -7.63966,9.0686 -17.4501,12.8653 -29.431,2.70737 -4.35232,5.40085 -13.5632,12.9739 -26.6984,-0.84189 -6.88139,5.86942 -17.1737,7.3973 -25.2953,-5.65002 -8.50819,9.45128 -20.4571,0.0274961 -20.272,-10.6413m212.795 -71.2344c-7.59544,1.12195 -16.9835,-5.17408 -18.0675,-14.3623 -6.70536,8.06542 -18.8977,9.62278 -28.8919,-0.270425 -3.82479,12.786 -22.9224,8.97988 -26.8696,8.16407 -1.27956,14.2177 -20.194,11.1524 -26.7063,11.0296 0.0507402,12.5742 -15.7139,14.9148 -24.9662,13.2239 -0.623906,13.521 -8.69046,16.8083 -24.1997,17.3047 -2.25099,9.19871 -9.85182,14.3654 -17.9949,16.7414"/>
  <line fill="none" stroke="black" stroke-width="2.83465" x1="215.719" y1="258.899" x2="207.515" y2= "258.141" />
  <line fill="none" stroke="black" stroke-width="2.83465" x1="291.902" y1="217.031" x2="286.903" y2= "215.035" />
  <line fill="none" stroke="black" stroke-width="2.83465" x1="264.885" y1="228.37" x2="260.854" y2= "227.75" />
  <line fill="none" stroke="black" stroke-width="2.83465" x1="239.919" y1="241.594" x2="235.115" y2= "240.465" />
  <line fill="none" stroke="black" stroke-width="2.83465" x1="318.461" y1="209.177" x2="316.054" y2= "206.042" />
  <line fill="none" stroke="black" stroke-width="2.83465" x1="347.353" y1="209.447" x2="345.824" y2= "203.872" />
  <line fill="none" stroke="black" stroke-width="2.83465" x1="198.193" y1="311.335" x2="195.421" y2= "307.448" />
  <line fill="none" stroke="black" stroke-width="2.83465" x1="172.897" y1="305.685" x2="170.548" y2= "302.149" />
  <line fill="none" stroke="black" stroke-width="2.83465" x1="224.891" y1="312.177" x2="222.4" y2= "309.309" />
  <line fill="none" stroke="black" stroke-width="2.83465" x1="254.322" y1="309.469" x2="251.551" y2= "306.828" />
  <line fill="none" stroke="black" stroke-width="2.83465" x1="286.238" y1="305.32" x2="281.941" y2= "304.657" />
  <line fill="none" stroke="black" stroke-width="2.83465" x1="317.122" y1="295.36" x2="311.402" y2= "294.734" />
  <line fill="none" stroke="black" stroke-width="2.83465" x1="346.775" y1="280.542" x2="340.862" y2= "281.089" />
  <line fill="none" stroke="black" stroke-width="2.83465" x1="369.658" y1="264.11" x2="363.811" y2= "266.204" />
  <line fill="none" stroke="black" stroke-width="2.83465" x1="379.527" y1="238.729" x2="376.215" y2= "241.085" />
  <line fill="none" stroke="white" stroke-width="1.98425" x1="204.434" y1="248.225" x2="209.065" y2= "248.217" />
  <line fill="none" stroke="white" stroke-width="1.98425" x1="225.166" y1="233.45" x2="230.463" y2= "232.712" />
  <line fill="none" stroke="white" stroke-width="1.98425" x1="255.908" y1="218.241" x2="261.784" y2= "218.137" />
  <line fill="none" stroke="white" stroke-width="1.98425" x1="280.706" y1="207.873" x2="285.973" y2= "208.523" />
  <line fill="none" stroke="white" stroke-width="1.98425" x1="311.271" y1="196.28" x2="316.674" y2= "197.669" />
  <line fill="none" stroke="white" stroke-width="1.98425" x1="343.083" y1="197.05" x2="347.065" y2= "199.53" />
  <line fill="none" stroke="white" stroke-width="1.98425" x1="193.431" y1="295.017" x2="195.421" y2= "300.006" />
  <line fill="none" stroke="white" stroke-width="1.98425" x1="220.062" y1="299.196" x2="222.4" y2= "303.107" />
  <line fill="none" stroke="white" stroke-width="1.98425" x1="250.607" y1="296.7" x2="254.342" y2= "299.386" />
  <line fill="none" stroke="white" stroke-width="1.98425" x1="281.969" y1="289.747" x2="285.663" y2= "292.253" />
  <line fill="none" stroke="white" stroke-width="1.98425" x1="303.649" y1="284.81" x2="308.921" y2= "287.024" />
  <line fill="none" stroke="white" stroke-width="1.98425" x1="330.319" y1="274.945" x2="333.73" y2= "277.058" />
  <line fill="none" stroke="white" stroke-width="1.98425" x1="354.344" y1="258.321" x2="359.159" y2= "257.521" />
  <line fill="none" stroke="white" stroke-width="1.98425" x1="368.162" y1="240.073" x2="372.494" y2= "238.914" />
  <path fill="black" d="M218.179 287.034c-20.5376,-1.71128 -24.1316,-22.5224 -24.1622,-28.2189 -0.0779528,-14.5216 5.81528,-30.2851 33.524,-53.7293l-5.19052 -5.8218c-25.8395,21.9546 -32.7249,37.2164 -32.5537,52.3511 0.106299,9.41613 6.49559,35.4648 28.3825,35.4189z"/>
  <line fill="none" stroke="white" stroke-width="1.98425" x1="171.28" y1="286.036" x2="174.859" y2= "289.637" />
  <line fill="none" stroke="white" stroke-width="1.98425" x1="364.89" y1="226.137" x2="365.671" y2= "221.548" />
 </g>
</svg>
