<?xml version="1.0" encoding="UTF-8"?>
<!DOCTYPE svg PUBLIC "-//W3C//DTD SVG 1.1//EN" "http://www.w3.org/Graphics/SVG/1.1/DTD/svg11.dtd">
<!-- Creator: CorelDRAW -->
<svg xmlns="http://www.w3.org/2000/svg" xml:space="preserve" width="500px" height="593px" shape-rendering="geometricPrecision" text-rendering="geometricPrecision" image-rendering="optimizeQuality" fill-rule="evenodd" clip-rule="evenodd"
viewBox="0 0 500 593"
 xmlns:xlink="http://www.w3.org/1999/xlink"
 xmlns:svg="http://www.w3.org/2000/svg"
 version="1.0">
 <g id="Layer_x0020_1">
  <metadata id="CorelCorpID_0Corel-Layer"/>
  <path id="path1937" fill="#0581ED" stroke="black" stroke-width="0.992126" d="M0.426898 0.980504l499.412 -0.000283465 -0.000850394 358.01c-24.9554,310.088 -476.485,314.015 -499.412,-7.57559l0 -350.434z"/>
  <polygon fill="black" points="143.73,77.6682 180.231,146.554 167.575,145.804 181.642,186.56 201.723,161.256 230.101,240.453 267.863,356.688 290.548,442.547 309.831,408.75 312.035,411.096 328.46,501.669 340.339,494.25 342.252,497.703 336.127,570.337 332.5,570.142 302.027,508.453 315.777,510.312 303.162,466.184 283.806,495.921 260.571,411.569 208.847,245.004 195.784,201.899 169.358,231.629 154.493,148.426 141.844,156.609 "/>
  <polygon fill="white" points="141.081,79.9387 174.933,143.149 163.412,142.777 180.507,190.345 181.027,185.232 200.13,160.952 199.453,167.311 227.452,241.21 266.728,360.093 288.277,449.737 290.915,440.254 309.453,409.885 325.811,506.967 327.933,499.996 340.039,494.51 338.446,498.791 332.5,571.656 299,505.048 312.371,504.635 300.723,469.954 302.027,460.886 282.67,491.758 259.057,411.947 208.091,245.004 193.099,205.782 193.513,200.007 168.601,229.737 153.172,150.48 154.493,144.264 141.087,153.96 "/>
  <polygon fill="#C4A177" points="142.973,81.8309 174.933,143.149 163.412,142.777 180.507,190.345 199.831,166.932 227.452,241.21 266.728,360.093 288.277,449.737 309.831,414.804 325.811,506.967 338.446,498.791 332.5,570.142 302.027,508.453 315.777,510.312 302.027,460.886 283.049,491.38 260.571,411.569 208.847,245.004 193.513,200.007 169.358,229.737 154.493,144.264 142.601,152.068 "/>
  <polygon fill="black" points="362.649,76.5601 322.006,144.669 338.446,144.669 319.5,184.29 301.657,163.825 298.284,161.634 272.177,241.21 231.042,359.35 210.27,445.925 191.677,409.983 188.283,408.426 173.074,505.852 160.439,499.163 166.399,571.69 200.663,505.44 186.893,505.061 200.622,463.163 213.654,497.786 240.572,415.732 292.673,245.761 309.879,203 332.176,233.487 348.514,148.825 360.433,157.744 "/>
  <polygon fill="white" points="360,76.9386 323.898,142.02 338.446,142.777 334.899,147.229 318.512,182.529 319.122,190.345 297.905,163.905 269.906,239.318 228.772,356.701 207.856,441.336 208.378,451.223 187.905,408.426 172.317,500.932 160.061,494.622 165.642,568.284 195.743,507.71 198.156,504.683 187.6,504.003 183.108,507.71 197.973,460.514 211.005,492.866 239.058,411.569 290.781,245.004 307.23,201.865 329.527,231.595 346.622,143.149 357.027,152.068 "/>
  <polygon fill="#C4A177" points="360,80.3444 326.926,142.777 338.446,142.777 319.122,190.345 299.797,166.932 272.177,241.21 231.042,359.35 208.378,451.223 189.797,411.831 173.074,505.852 160.439,499.163 165.642,568.284 195.743,507.71 183.108,507.71 197.973,460.514 211.005,492.866 239.058,411.569 290.781,245.004 307.23,201.865 329.527,231.595 346.622,143.149 357.027,152.068 "/>
  <polygon fill="black" points="168.615,9.73616 200.946,75.1417 187.568,73.2836 196.858,105.243 214.696,74.7701 244.175,170.602 287.167,313.269 306.858,363.521 326.922,338.655 331.014,336.764 346.994,422.98 359.629,415.548 359.629,493.588 356.441,492.605 322.095,432.271 336.216,431.156 316.892,380.987 299.054,407.001 264.659,318.292 230.03,210.443 208.378,124.939 186.824,157.27 174.932,76.2568 160.811,82.946 "/>
  <polygon fill="white" points="167.129,12.7091 196.115,71.4255 183.852,71.4255 195.372,111.932 196.781,104.081 213.21,77.3714 241.945,171.345 285.681,313.641 306.115,371.325 307.275,364.016 326.537,338.813 329.156,341.595 345.507,430.041 347.215,422.855 356.656,417.034 356.656,493.96 319.122,427.811 333.615,427.068 317.467,389.084 318.378,384.846 316.892,380.987 299.054,407.001 298.7,410.338 263.544,320.15 229.287,210.814 208.851,133.831 208.164,126.481 206.892,121.595 187.939,153.183 186.475,156.151 173.248,78.1467 174.561,71.4257 161.182,81.0879 "/>
  <polygon fill="#C4A177" points="168.615,14.1956 196.115,71.4255 183.852,71.4255 195.372,111.932 214.325,80.716 241.945,171.345 285.681,313.641 306.115,371.325 329.156,341.595 345.507,430.041 356.656,420.007 356.656,493.96 322.095,432.271 336.216,431.156 316.892,380.987 299.054,407.001 264.659,318.292 230.03,210.443 206.892,121.595 187.939,153.183 174.561,71.4257 163.412,80.3447 "/>
  <polygon fill="black" points="336.588,10.1078 299.797,71.0538 315.777,70.3106 304.628,108.216 286.047,73.2836 257.683,171.345 213.948,313.641 195,368.723 169.358,336.764 151.52,426.696 141.115,418.892 139.628,495.818 142.768,497.357 178.649,425.21 164.899,425.953 181.25,382.474 200.203,411.46 235.342,325.724 268.112,212.301 293.48,123.081 312.061,157.642 327.669,75.142 339.19,83.6893 "/>
  <polygon fill="white" points="333.615,9.73616 301.284,68.0809 315.777,67.7092 312.346,71.1358 302.643,104.184 303.142,111.561 284.932,76.6282 255.825,170.602 211.346,312.526 192.354,365.737 193.513,371.325 168.243,338.622 150.034,421.122 139.628,413.318 139.628,495.818 176.047,425.21 165.539,424.723 161.926,428.183 178.277,380.987 198.345,408.487 234.97,318.292 266.997,207.47 290.507,120.851 310.203,153.926 325.811,69.5676 336.217,78.1149 "/>
  <polygon fill="#C4A177" points="333.987,13.0808 303.514,68.4525 315.777,67.7092 303.142,111.561 287.162,78.8579 257.683,171.345 213.948,313.641 193.513,371.325 170.473,341.595 151.52,426.696 141.115,418.892 139.628,495.818 174.189,428.555 161.926,428.183 178.277,380.987 198.345,408.487 234.97,318.292 266.997,207.47 290.507,120.851 310.203,153.926 325.811,69.5676 336.217,78.1149 "/>
  <path fill="#C4A177" d="M240.709 27.574c-1.10438,8.86536 -2.57868,22.5578 -0.712063,26.2247 -2.24532,2.29351 -3.74797,24.0823 -2.27991,27.4901 -2.04832,7.42621 -3.53991,29.149 -1.68945,32.3051 -2.42504,1.85046 -3.73606,20.4112 -1.70532,29.5027l-10.3363 103.734 1.1143 87.3312c1.51087,10.0848 0.979371,26.1114 4.53232,30.255 0.496063,8.479 0.249449,16.5867 2.97354,23.7662 -0.865985,13.5386 -0.647433,26.5037 3.44325,36.5723 -3.04469,2.70142 -3.41178,32.3946 0.846709,34.9109 -1.88674,6.18747 -0.864567,25.8664 1.5806,29.888 -1.02387,6.3737 -0.748347,26.1159 1.38387,29.1478 -1.14038,6.12482 0.68967,20.7907 1.03436,31.1862 0.185669,2.4154 2.88,3.33411 8.40756,3.29811 5.15594,-0.0334488 7.75786,0.232441 8.50111,-3.48378 0.795402,-14.2296 4.00451,-38.4854 2.38649,-42.6887 2.66485,-4.45238 3.65896,-24.6867 1.86803,-33.4094 2.60617,-2.47493 2.79893,-20.9174 1.50633,-30.0762 2.75754,-2.04406 3.28734,-25.6255 2.88879,-35.2817 1.96016,-3.71906 3.9206,-33.0605 1.61065,-37.1509 3.46677,-3.13739 4.15673,-23.7784 5.71947,-41.7651l0 -84.7299c-1.11402,-22.4201 -2.79241,-30.7233 -4.41468,-40.4181 0.822898,-2.10019 -2.43865,-27.5947 -3.65783,-41.3918 1.06328,-2.16737 -1.02983,-32.3708 -2.93726,-34.3522 1.55991,-2.53332 -0.222236,-24.9333 -2.00438,-31.5513 1.40173,-1.55594 -0.909922,-29.291 -2.4789,-33.0747 2.12712,-1.62057 -0.944221,-24.7785 -1.9732,-36.2393 -0.230173,-3.22441 -3.81288,-3.18501 -7.47893,-2.88 -3.12888,0.260504 -7.49537,-0.216284 -8.1292,2.88z"/>
  <g id="_55570864">
   <polygon id="_55516504" fill="black" points="173.257,286.408 199.456,260.209 183.848,244.601 156.72,271.729 130.521,245.529 107.672,259.095 137.955,289.565 106.743,313.351 126.622,333.229 153.007,306.659 179.206,332.858 199.27,312.794 "/>
   <polygon id="_55515512" fill="white" points="165.273,284.923 191.804,260.478 198.342,259.095 179.578,240.331 153.378,266.53 127.179,240.331 108.229,259.095 113.885,260.286 139.812,286.223 134.002,285.929 107.3,312.794 114.906,312.305 127.179,323.946 153.378,297.747 179.577,323.946 192.818,312.527 198.899,312.051 173.582,286.734 "/>
   <polygon id="_55514168" fill="#C4A177" points="168.801,286.037 195,259.838 179.392,244.23 153.193,270.429 126.993,244.23 111.385,259.838 137.584,286.037 111.385,312.237 126.993,327.845 153.193,301.646 179.392,327.845 195,312.237 "/>
  </g>
  <g id="_55528904">
   <polygon id="_55505272" fill="black" points="73.7575,286.408 99.9567,260.209 84.3486,244.601 57.2208,271.729 31.0212,245.529 8.172,259.095 38.456,289.565 7.24394,313.351 27.1225,333.229 53.5074,306.659 79.7066,332.858 99.7708,312.794 "/>
   <polygon id="_55504432" fill="white" points="65.7737,284.923 92.3043,260.478 98.8427,259.095 80.0782,240.331 53.8787,266.53 27.6792,240.331 8.72901,259.095 14.3858,260.286 40.3127,286.223 34.5022,285.929 7.80095,312.794 15.406,312.305 27.6795,323.946 53.8787,297.747 80.0779,323.946 93.318,312.527 99.3995,312.051 74.0827,286.734 "/>
   <polygon id="_55559112" fill="#C4A177" points="69.3015,286.037 95.5007,259.838 79.8925,244.23 53.693,270.429 27.4935,244.23 11.8854,259.838 38.0846,286.037 11.8857,312.237 27.4938,327.845 53.693,301.646 79.8923,327.845 95.5004,312.237 "/>
  </g>
  <g id="_55533064">
   <polygon id="_55538040" fill="black" points="466.007,286.408 492.206,260.209 476.598,244.601 449.47,271.729 423.271,245.529 400.421,259.095 430.705,289.565 399.493,313.351 419.372,333.229 445.757,306.659 471.956,332.858 492.02,312.794 "/>
   <polygon id="_55537056" fill="white" points="458.023,284.923 484.554,260.478 491.092,259.095 472.328,240.331 446.128,266.53 419.929,240.331 400.978,259.095 406.635,260.286 432.562,286.223 426.752,285.929 400.05,312.794 407.655,312.305 419.929,323.946 446.128,297.747 472.327,323.946 485.567,312.527 491.649,312.051 466.332,286.734 "/>
   <polygon id="_55533088" fill="#C4A177" points="461.551,286.037 487.75,259.838 472.142,244.23 445.942,270.429 419.743,244.23 404.135,259.838 430.334,286.037 404.135,312.237 419.743,327.845 445.942,301.646 472.142,327.845 487.75,312.237 "/>
  </g>
  <g id="_55472936">
   <polygon id="_55526776" fill="black" points="366.507,286.408 392.707,260.209 377.098,244.601 349.971,271.729 323.771,245.529 300.922,259.095 331.206,289.565 299.994,313.351 319.872,333.229 346.257,306.659 372.456,332.858 392.521,312.794 "/>
   <polygon id="_55526672" fill="white" points="358.524,284.923 385.054,260.478 391.593,259.095 372.828,240.331 346.629,266.53 320.429,240.331 301.479,259.095 307.136,260.286 333.063,286.223 327.252,285.929 300.551,312.794 308.156,312.305 320.429,323.946 346.629,297.747 372.828,323.946 386.068,312.527 392.149,312.051 366.833,286.734 "/>
   <polygon id="_55519504" fill="#C4A177" points="362.051,286.037 388.251,259.838 372.642,244.23 346.443,270.429 320.243,244.23 304.635,259.838 330.834,286.037 304.636,312.237 320.244,327.845 346.443,301.646 372.642,327.845 388.25,312.237 "/>
  </g>
  <path fill="#644D36" d="M249.443 371.106l-0.371339 2.04236 10.2118 -5.57008 0 0.557008 2.22803 -0.557008 0.185669 -1.11402 4.45607 -2.04236 -0.557008 -1.85669 -3.34205 1.29969 0.371339 -2.22803 1.48536 -0.185669 0.557008 -3.71339c0.928347,-2.22803 2.78504,-1.11402 2.78504,-6.6841 3.19465,-0.834804 5.71635,-2.56791 7.42678,-5.38441 3.37266,1.0525 5.16756,3.28054 7.05544,6.31276l0.371339 -3.15638 3.71339 3.34205 -0.371339 -3.34205c3.21817,1.85669 5.32233,4.45607 7.98378,6.86977 1.36148,-0.185669 1.79462,-3.34205 3.52772,-4.08473l2.4137 2.59937c4.20832,0.247748 3.21817,-5.44621 4.8274,-8.16945l-27.6647 -43.4466 -24.8797 1.29969 -17.6386 48.0884 6.49843 3.15638c0.371339,2.84712 2.04236,6.80797 5.57008,6.86977 0.866552,-1.29969 -1.05194,-4.08473 0.371339,-5.57008 1.20558,0.516756 1.66847,1.52844 1.38813,3.03506l2.6966 -0.0643465c-0.495213,1.11402 -3.96085,2.97071 -2.59937,4.8274 1.06753,0.0232441 1.78214,-2.69008 3.5657,-2.33773 3.40923,0.673796 5.63273,-3.71197 7.76013,-4.7177l0.557008 1.85669 -5.75575 3.15638 -0.185669 1.11402 6.12709 -2.4137 0 1.11402 -6.31276 3.89906 1.29969 0.371339 5.38441 -2.97071 -0.185669 2.4137 -10.9545 5.38441z"/>
  <path fill="#644D36" d="M273.209 227.955l0.557008 -2.22803c5.38441,4.2704 3.52772,18.7526 -3.34205,41.2186l-6.49843 -4.2704 9.28347 -34.7202z"/>
  <path fill="#644D36" d="M219.179 227.398c3.27997,8.41692 10.4593,24.2606 7.05544,39.1762l-6.86977 -2.22803 -0.185669 -36.9482z"/>
  <path fill="#644D36" d="M225.306 327.474c-1.32491,21.2754 -7.88684,25.4787 -16.1532,23.9514 -2.59937,3.03251 -7.05544,2.35162 -10.5832,3.52772l2.22803 -3.15638 23.3943 -49.9451 10.5832 0.557008 -9.46914 25.0654z"/>
  <path fill="#C4A177" d="M288.268 271.124c12.3627,-9.62221 12.6051,-30.4685 19.5633,-39.2409 4.68794,-5.91052 5.34246,5.08479 10.243,0.455244 6.44145,-17.0946 -14.4312,-17.466 -16.9087,-9.84841 -7.06111,-0.804473 -12.0779,3.40696 -15.0508,8.73355 -0.743244,-1.73424 -2.10586,-1.61036 -4.83109,-3.3446 -9.41443,11.0248 1.23902,34.1272 -9.29027,38.8344 -17.2284,-3.04243 8.80441,-28.7365 1.04542,-38.6487 -0.979654,-1.02019 -1.95931,-1.29827 -2.93896,-0.833953 -1.65373,-4.36479 -5.50403,-4.08813 -10.8094,-3.06794 -1.92104,-3.49767 -5.20328,-4.6131 -9.10489,-4.64514 -3.81855,-0.280914 -9.05415,0.0130394 -11.3006,3.25389 -5.50517,1.02387 -7.90215,4.33758 -8.59834,6.4732 -1.96356,0.554457 -3.18019,-1.29742 -4.44218,0.864 -4.33559,10.777 13.2545,32.7028 0.371622,36.419 -10.9009,-1.73424 1.23874,-29.8537 -8.17569,-40.8784 -2.72523,1.73424 -4.45947,3.46847 -5.20271,5.20271 -2.97298,-5.32659 -6.31758,-9.5383 -13.75,-9.66218 -9.5383,-4.08784 -18.3334,-1.85811 -18.2095,11.5203 4.90054,4.62955 10.1982,-3.95093 13.2157,1.03181 5.55903,9.17859 8.62215,27.3543 18.4351,36.5253 -13.0221,5.1327 -15.6385,24.7589 1.06951,31.0068 -14.7042,5.01449 -12.4078,28.1135 -19.5052,39.0804 -3.94526,6.09619 -8.31515,-3.41206 -13.2157,1.21748 -0.123874,13.3784 7.18583,14.8655 16.7241,10.7776 7.43244,-0.123874 14.1191,-4.33559 17.0921,-9.66218 0.743244,1.73424 0.992126,2.35446 3.71736,4.08869 9.41443,-11.0248 -3.28224,-41.1866 9.10404,-42.9208 11.5832,1.67386 -5.63556,11.1597 -2.59965,38.2757 0.704977,4.57512 3.59263,1.98057 5.55619,2.53502 0.696189,2.13562 1.97915,5.82066 7.48432,6.84454 2.24646,3.24085 8.59607,2.79213 12.4146,2.51121 3.90161,-0.0320315 9.96889,-2.26148 11.8899,-5.75915 5.30533,1.02019 6.18492,1.66819 7.83865,-2.6966 0.979654,0.464315 1.95931,0.186236 2.93896,-0.833953 7.759,-9.91219 -17.5312,-38.577 -0.30274,-41.6194 10.5293,4.70721 -2.53786,30.966 6.87657,41.9908 2.72523,-1.73424 4.83052,-1.23902 5.57377,-2.97326 2.97298,5.32659 8.73241,8.60967 16.1649,8.73355 1.35354,5.84646 20.1456,4.42488 16.723,-10.4054 -4.90054,-4.62955 -9.45383,4.13802 -12.471,-0.844441 -8.02857,-27.2628 -9.37248,-36.5417 -17.6672,-39.3415 8.3503,-7.67169 11.5583,-21.4759 0.332504,-29.1481z"/>
  <path fill="white" d="M226.42 343.07c0.773575,-8.26271 2.56847,-16.1844 4.8274,-23.9514 -3.92939,8.44753 -5.84816,16.4931 -4.8274,23.9514z"/>
  <path fill="white" d="M281.192 342.142c-1.93436,-4.70381 -2.39839,-11.7595 -1.85669,-20.4236 -1.48536,7.9217 -1.67102,14.9153 0,21.5376 -0.123874,1.85669 1.98028,0 1.85669,-1.11402z"/>
  <path fill="white" d="M213.237 233.154c-0.0617953,-2.04236 2.84712,-2.97071 4.2704,-4.45607 -1.42328,1.48536 -1.73282,5.01307 -4.2704,4.45607z"/>
  <path fill="white" d="M273.039 228.064c-0.979654,-1.02019 -1.95931,-1.29827 -2.93896,-0.833953 -0.930048,-2.45509 -2.55572,-3.44155 -4.74407,-3.65329 0.451276,3.50192 4.61622,5.88955 6.92448,8.83418l0.758552 -4.34693zm-10.0539 -4.46655c-1.13272,0.100913 -1.81106,0.495496 -3.13739,0.750331l-2.42079 3.60709c3.34318,-1.01679 5.69424,-1.84847 5.55818,-4.35742zm-6.93553 -2.76662c-1.67046,-0.934583 -3.66917,-1.296 -5.86375,-1.31386 -3.81855,-0.280914 -9.05415,0.0130394 -11.3006,3.25389 -5.50517,1.02387 -7.90215,4.33758 -8.59834,6.4732 -1.96356,0.554457 -3.18019,-1.29742 -4.44218,0.864 -2.77739,6.90378 3.44353,18.3833 4.88608,26.72 2.53077,-4.44076 -5.70671,-18.9079 -3.17651,-23.3484 1.02784,-1.80369 4.2035,1.23165 4.92945,-1.9783 2.15603,-9.53065 10.0724,0.946772 13.9887,-1.68973l-2.97071 -2.22803c0.866552,-1.3612 1.98028,-2.22747 3.34205,-2.59937l-5.75575 -1.11402c2.09991,-3.24085 8.93197,-2.02592 14.9616,-3.03931zm61.4994 0.171496c-4.18394,-5.10577 -15.2371,-3.6686 -16.1975,1.85839 -6.68977,-1.36148 -12.2635,3.03562 -15.2365,8.36221 -0.743244,-1.73424 -2.10586,-1.61036 -4.83109,-3.3446 -4.96517,5.81443 -4.24488,14.9372 -4.00025,22.9516 0.683433,-7.58495 0.884126,-15.7312 4.65166,-19.7187 0.928347,-0.557008 3.15638,2.59937 5.57008,2.22803 1.67102,-1.05194 2.4137,-5.07487 8.35512,-8.72646 5.8561,4.86596 7.68728,-1.85017 14.5777,-2.33943 6.70706,-0.476221 3.40895,4.6372 6.4029,4.75314 1.90687,-1.45106 0.471685,-4.01613 0.707811,-6.02419zm-106.447 6.99024c-2.63509,-3.90331 -5.97544,-6.70281 -12.0141,-6.80344 -7.74964,-3.32136 -15.0089,-2.47181 -17.3923,5.13893 0.364252,1.78016 0.171213,3.56032 1.09219,5.34019 5.44649,-0.494929 4.39427,-8.60259 16.8959,-5.38441l0.557008 -1.29969c1.94939,-0.296788 5.38413,-0.222236 10.8612,3.00841z"/>
  <path fill="white" d="M181.17 346.043c-0.206646,-1.31301 -0.307276,-2.7995 -0.291969,-4.47166 4.90054,-4.62955 9.27043,4.87871 13.2157,-1.21748 6.46356,-9.9876 5.13638,-30.0379 15.9545,-37.3263 1.55849,0.102898 4.04504,-0.722268 4.6749,0.30926 -14.544,5.07487 -8.29304,27.2313 -17.4529,35.8342 -0.224504,5.2818 3.64649,4.82457 1.70306,8.36193 -1.20387,2.1909 -4.2755,-1.09361 -6.53046,4.63493l-1.29969 -1.48536 -2.97071 0.557008c0.928347,-4.14681 6.6841,-2.16624 4.45607,-7.42678 -3.0943,-0.185669 -9.53093,-4.8274 -9.84048,-0.557008l1.85669 1.11402 -0.928347 2.4137c-0.663024,0.31011 -2.06873,0.0632126 -2.54636,-0.74041zm135.536 -6.55682c-4.37244,-2.13477 -8.36845,4.6423 -11.1027,0.126992l-2.68696 2.71417c3.89877,2.16595 4.08444,10.0256 10.5832,1.85669 -0.123874,1.73282 -0.0620788,3.65131 1.29969,2.97071 1.42328,-1.23789 0.990142,-3.96114 2.04236,-6.49843"/>
  <path fill="white" d="M234.589 350.125l-2.59937 -2.59937c-0.371622,2.35134 0.494646,3.21789 2.59937,2.59937z"/>
  <path fill="white" d="M245.358 243.551c-1.73282,-0.433134 -3.21846,-0.123307 -4.45607,0.928347 1.71695,1.53893 2.67307,0.964914 4.45607,-0.928347z"/>
  <path fill="white" d="M202.58 290.395c-2.14243,-7.03163 0.955843,-15.0985 7.632,-19.0035l8.20035 3.31087 58.3447 0.371622 -60.946 1.48649c-8.49799,-0.219685 -11.0503,7.73632 -13.231,13.8345z"/>
  <path fill="black" d="M180.878 232.71c4.90054,4.62955 10.1982,-3.95093 13.2157,1.03181l-2.81027 -2.88992 2.97298 -4.83109c-7.06082,0.247748 -10.777,12.3874 -13.3784,0.743244l0 5.94596zm133.765 119.099c2.87348,-2.1138 4.71373,-5.78977 3.43049,-11.3511l-3.43049 11.3511zm-9.04054 -12.1955c-8.02857,-27.2628 -9.37248,-36.5417 -17.6672,-39.3415 8.3503,-7.67169 11.5583,-21.4759 0.332504,-29.1481 12.3627,-9.62221 12.6051,-30.4685 19.5633,-39.2409 4.68794,-5.91052 5.34246,5.08479 10.243,0.455244 2.01288,-5.34189 1.35808,-9.05074 -0.56863,-11.3933 0.425481,12.9532 -4.97934,4.22221 -5.96013,4.72394 -14.9258,7.63541 -9.45808,31.9717 -26.9847,46.0613 15.732,9.90993 3.96397,22.7928 4.83109,30.8446 5.45046,7.68019 10.1577,25.0226 14.1216,38.6487l2.08913 -1.61008z"/>
  <path fill="black" d="M185.338 353.858c-0.738992,-1.97773 -1.85102,-4.32879 -5.57433,-9.29056 0.371339,2.60107 2.22945,5.69792 5.57433,9.29056z"/>
  <path fill="#644D36" d="M232.162 231.966l2.97298 -4.08784c7.06082,-0.743244 13.0068,12.2635 28.9865,-3.71622l7.06082 7.06082 -2.60136 -0.371622 -2.22973 1.48649 3.3446 2.22973 -1.11487 2.22973 -1.85811 -1.48649 -1.11487 1.48649 0.743244 1.11487 -2.22973 2.60136 2.97298 2.60136 0.371622 4.45947 -2.22973 0 -1.11487 -3.3446 -1.48649 -2.60136 -0.743244 4.83109 -1.11487 -0.371622 -1.11487 1.85811 2.22973 1.48649 -1.48649 1.11487 -1.85811 -1.11487 -2.22973 6.31758 -1.48649 -0.743244 4.08784 -12.2635 2.97298 0.743244 -1.48649 -1.48649 0.371622 -1.48649 0.743244 -0.371622 0.743244 -3.71622 -2.22973 1.85811 -0.743244 -1.85811 -1.85811 -1.48649 -2.97298 3.71622 1.11487 2.22973 2.22973 -2.22973 -0.371622 3.71622 -3.71622 10.4054 -1.11487 -2.60136 1.48649 -4.83109 -1.85811 0.743244 -0.371622 -4.08784 1.48649 -1.85811 -4.08784 -1.11487 1.85811 -3.3446 -5.57433 -0.743244 1.11487 4.08784 -2.97298 3.3446 -3.71622 0.371622 0.371622 -5.94596 -1.48649 1.85811 -1.11487 -2.97298 -1.11487 2.97298 -4.45947 -6.6892z"/>
  <polygon fill="#644D36" points="240.338,246.088 240.338,249.433 243.311,254.264 245.169,249.804 "/>
  <polygon fill="#644D36" points="258.547,254.635 253.716,261.324 255.574,261.324 260.405,255.75 "/>
  <path fill="#644D36" d="M217.669 271.358l63.919 -0.743244 5.57433 1.85811 -0.743244 -3.71622 -1.85811 -0.743244c11.7034,-8.36561 15.7944,-44.396 24.5271,-41.2501l4.08784 -0.371622c-8.60712,-7.92227 -10.1588,4.20775 -17.4662,-1.48649l-2.97298 2.97298 1.85811 2.22973 -1.11487 1.11487 -1.85811 -2.97298 -2.22973 2.60136 -0.557859 5.20328 1.30082 -0.000283465 0.743528 -2.41512 2.97241 0.743811 -2.97269 9.84643 -4.08756 0.371906 -0.743244 3.5297 1.48649 -0.928347 1.11487 -1.11487 1.48649 1.85811 -1.48649 4.83109 -3.71622 -3.71622 -0.743244 1.48649 4.45947 4.08784c-3.49257,6.11462 -7.6578,9.98561 -12.6352,11.1487l-2.22973 2.22973 -9.66218 -0.743244 -2.22973 -3.71622 -2.22973 3.3446 -0.743244 -1.11487 2.22973 -3.71622 -0.371622 -4.83109 -6.31758 10.0338 -3.71622 -0.371622 -2.60136 1.48649 -2.22973 -1.11487 -1.48649 1.11487 -3.3446 -0.371622 0 1.11487 -6.68948 0.743244 -0.728504 0.653386 -7.81852 -0.281764 -1.48649 -1.85811 -1.48649 0.371622 -0.371622 1.11487 -2.04463 -0.371906 -2.60079 -2.04236 -0.185669 3.90076z"/>
  <polygon fill="#644D36" points="284.535,252.463 283.792,256.919 282.678,257.848 282.678,252.463 "/>
  <polygon fill="#644D36" points="289.548,239.281 288.062,239.466 289.176,241.137 "/>
  <polygon fill="#644D36" points="200.241,226.284 206.182,232.782 203.397,237.053 203.211,235.01 204.325,233.154 203.026,232.968 201.726,233.896 200.612,231.297 198.57,233.525 196.342,230.554 193.557,232.225 194.485,229.44 192.442,229.255 194.114,225.913 198.57,226.655 198.013,227.769 196.713,229.255 199.312,230.369 199.684,229.626 "/>
  <polygon fill="#644D36" points="206.182,227.398 205.996,229.812 207.482,231.668 210.267,229.44 209.338,228.141 207.667,229.069 "/>
  <polygon fill="#644D36" points="218.251,240.952 218.251,243.737 219.55,243.551 219.736,241.137 "/>
  <polygon fill="#644D36" points="219.179,247.265 218.808,250.05 217.694,248.75 "/>
  <polygon fill="#644D36" points="218.808,252.463 217.508,253.949 216.023,252.092 217.694,250.978 "/>
  <polygon fill="#644D36" points="218.808,235.567 219.179,239.838 218.065,239.652 "/>
  <polygon fill="#644D36" points="229.576,233.711 231.804,237.981 231.247,233.525 "/>
  <polygon fill="#644D36" points="211.195,264.903 211.938,267.503 213.609,266.203 "/>
  <path fill="black" d="M205.439 295.539c2.53644,2.2921 5.19704,4.39824 8.72646,5.19874l-2.59937 1.29969c-3.46677,-1.17326 -5.19931,-3.0308 -6.12709,-6.49843z"/>
  <path fill="#644D36" d="M213.98 299.995l1.67102 0.557008 1.17893 1.23619 2.72013 0.249165 0.185669 -1.29969 2.59937 -0.371339 0.185669 1.29969 14.6679 -1.11402 3.89906 0.928347 -0.928347 5.38441 1.85669 -0.928347 1.29969 0.557008 2.59937 -2.22803 -1.11402 -3.34205 10.2118 0.557008 2.04236 3.89906 3.52772 3.52772 0.928347 -1.85669 -0.371339 -2.04236 -2.4137 -2.22803 -1.29969 0.557008 -1.11402 -1.48536 0.742678 -0.557008 2.04236 0.742678 2.4137 -0.371339 1.11402 1.67102 0.928347 3.71339 1.67102 -0.185669 -1.48536 -3.15638 2.04236 -0.557008 -0.928347 -2.04236 1.67102 0 0.928347 2.04236 1.67102 -0.185669 0.371339 -2.04236 7.79811 -0.371339 3.89906 4.08473 0.371339 -2.59937 -1.29969 -1.67102 2.4137 0 0.742678 2.78504 4.8274 3.52772 0.185669 1.48536 -4.2704 -2.59937 -1.48536 0.371339 3.89906 4.2704 0 0.742678 3.89906 2.97071 0 1.48536 -1.11402 0.185669 -4.45607 -4.2704 -0.185669 1.67102 2.04236 2.59937 0.742678 4.64173 1.48536 -0.185669 1.67102 -1.67102 0.742678 0 -0.185669 2.59937 -1.11402 2.22803 -1.85669 -1.29969 -1.29969 0.185669 1.11402 2.97071 -0.185669 1.11402 1.85669 4.8274 6.12709 10.3975 1.11402 -0.557008 -1.11402 -5.01307 1.48536 2.59937 1.29969 0.557008 0 1.67102 -1.48536 0.928347 -2.4137 1.48536 -0.742678 1.29969 -1.85669 -2.4137 -0.185669 -2.59937 -0.928347 -1.85669 -0.742678 2.4137 -0.928347 0.557008 -0.928347 0 -2.78504 -2.04236 -4.08473 3.34205 0.928347 2.22803 2.22803 -1.29969 0.742678 -2.22803 3.34205 2.59937 0.185669 1.29969 -0.928347 0.928347 1.67102 1.85669 2.4137 -0.185669 0.742678 1.48536 1.85669 1.11402 7.05544 1.11402c1.91849,5.94114 15.2867,2.97043 14.4822,-3.89906 -0.990426,-0.495213 -3.46592,2.72296 -2.97071,-1.48536 -6.74618,5.32233 -6.25096,1.17581 -10.2118,-2.97071l-7.98378 -11.6972c1.67102,-5.60098 -0.185953,-12.9662 -4.45607,-21.5376l-3.15638 -8.72646c1.79462,-4.57966 4.33219,-3.21817 5.38441,-13.7395l-5.94142 9.65481 3.15638 -9.0978 -1.29969 0.371339 -1.29969 0.742678 0.185669 -2.59937 1.764 -1.29373 -2.32101 -1.11997 4.08473 -1.11402 -0.928347 -2.04236 -3.71339 -0.557008 2.04236 -1.11402 -1.85669 -0.928347 -12.8112 0.185669 -0.557008 1.67102 10.2118 0.371339 1.85669 1.11402 -8.72646 0 -1.48536 1.67102 1.48536 2.4137 2.97071 -1.29969 3.34205 -1.11402 -1.11402 1.67102 2.78504 2.04236 -10.5832 0 -0.742678 1.67102 10.5832 0.742678 -14.1109 1.48536 -1.29969 2.78504 -2.4137 0 -1.29969 -1.67102 -3.89906 -0.185669 1.48536 1.48536 0 2.04236 -2.04236 -0.185669 -0.557008 -3.15638 -1.48536 0.185669 0 2.78504 -5.19874 0 -1.11402 2.59937 -1.29969 0 0.557008 -1.85669 -3.15638 -0.742678 -4.45607 0.742678 -0.928347 1.85669 -1.29969 -1.67102 -1.29969 1.11402 -2.59937 0.742678 -1.11402 0.928347 -1.67102 -2.97071 -1.48536 0.185669 -0.928347 2.97071 -1.85669 -0.371339 -0.185669 -1.67102 -0.928347 0 -1.11402 1.67102 -10.0261 0.742678 -1.11402 0.742678 -3.15638 0.742678z"/>
  <polygon fill="#C4A177" points="299.574,345.484 298.088,347.155 301.987,349.383 301.43,346.969 "/>
  <polygon fill="#644D36" points="254.085,304.636 257.984,311.321 258.169,309.092 "/>
  <polygon fill="#644D36" points="279.707,274.372 279.707,276.043 286.577,275.672 286.02,275.115 "/>
  <polygon fill="#644D36" points="254.456,310.392 254.456,312.063 257.055,313.92 256.127,310.578 "/>
  <polygon fill="#644D36" points="269.31,286.069 268.753,287.926 271.723,288.112 "/>
  <polygon fill="#644D36" points="260.026,286.069 259.469,287.926 262.44,288.112 "/>
  <polygon fill="#644D36" points="263.74,279.2 263.183,281.056 266.153,281.242 "/>
  <polygon fill="#644D36" points="289.176,333.229 290.847,335.829 289.362,338.614 287.505,338.428 287.691,336.943 "/>
  <path fill="#644D36" d="M220.85 341.585l-2.22803 5.19874 -3.15638 -2.4137c2.04236,0.0617953 3.83755,-0.866835 5.38441,-2.78504z"/>
  <path fill="#644D36" d="M200.798 351.982l-2.97071 0.185669 -7.79811 2.04236c5.57008,-2.4137 4.08473,-5.19874 7.24111,-5.57008l0.371339 2.04236 3.15638 1.29969z"/>
  <polygon fill="#644D36" points="258.726,346.598 255.57,346.598 255.57,345.112 252.228,343.813 250,343.813 250,342.327 246.844,344.37 247.215,346.598 250.928,346.783 251.3,345.855 255.941,348.269 258.355,349.197 259.655,348.083 "/>
  <polygon fill="#644D36" points="243.316,344.927 244.244,346.969 245.358,347.155 245.544,344.927 "/>
  <path fill="#644D36" d="M256.87 341.585c-0.247748,3.46564 3.58951,4.33219 5.38441,6.49843 1.8258,-0.835937 3.49654,-0.8983 4.8274,0.742678l3.52772 -3.34205c1.42328,0.123307 2.59909,-0.495496 3.52772,-1.85669l-2.4137 -0.557008 0 -2.4137 1.29969 -1.11402 -0.185669 -5.19874 -2.04236 2.78504 0.185669 2.59937 -4.08473 2.22803 0.742678 2.4137 -3.52772 0.371339 -1.85669 -0.928347 -2.59937 -2.59937 -2.78504 0.371339z"/>
  <path fill="black" d="M254.817 25.1654c0.85663,0.449292 1.41477,1.19962 1.50095,2.4086 1.02898,11.4608 4.10032,34.6187 1.9732,36.2393 1.56898,3.78369 3.88063,31.5187 2.4789,33.0747 1.78214,6.61805 3.56429,29.018 2.00438,31.5513 0.864284,0.897733 1.76655,7.59033 2.39613,14.8431l-1.43065 2.2354 -1.29969 -1.11402c0.990142,-8.23153 -0.990426,-12.5637 -2.04236,-15.7819 2.66117,-3.77547 1.05194,-25.1892 -2.59937,-32.4921 5.81755,-0.495213 -0.619087,-32.1829 -2.04236,-33.7918 3.58583,-1.62199 -0.811843,-25.153 -0.939119,-37.1724zm11.8936 179.767c-0.0657638,3.38627 1.53921,8.81547 2.4018,12.0161 0.777827,2.88567 -2.90098,0.406488 -2.77314,7.10788l3.89906 3.71339 2.35502 -0.52441c-0.966898,-10.3887 -2.10869,-16.3964 -3.22384,-23.0616 0.166961,-0.426331 0.165543,-1.81871 0.0470551,-3.88148l-2.70595 4.63011zm5.55733 143.884c-0.901418,11.0772 -1.98255,20.2708 -4.20321,22.2806l-1.72545 -3.51808c2.90863,-4.51814 2.4755,-11.6354 3.71339,-17.4529l2.21528 -1.30961zm-8.52804 85.4178l-1.85669 10.2118c0.299906,12.6967 0.821197,25.8041 -2.4137,31.9351 1.54715,3.77518 2.35162,26.4886 -2.04236,32.4921l-0.928347 35.6485c0.247465,3.62069 -1.54743,4.85887 -4.2704,5.01307l-11.3326 0.354614c0.185669,2.4154 2.88,3.33411 8.40756,3.29811 5.15594,-0.0334488 7.75786,0.232441 8.50111,-3.48378 0.795402,-14.2296 4.00451,-38.4854 2.38649,-42.6887 2.66485,-4.45238 3.65896,-24.6867 1.86803,-33.4094 2.60617,-2.47493 2.79893,-20.9174 1.50633,-30.0762 0.861733,-0.638646 1.50576,-3.38088 1.97206,-7.14388l-1.79745 -2.1515z"/>
  <path fill="white" d="M240.16 59.3671l1.85669 -0.928347 0.185669 -1.29969 -2.20451 -3.34035c-1.96441,2.00665 -3.36019,18.9397 -2.69547,25.4245l1.37225 -1.47487c0.232441,-6.39071 0.758552,-12.4866 1.48536,-18.3813zm-3.17849 25.3123c-1.27531,7.16854 -2.1274,19.0987 -1.66762,25.2919l0.761386 -1.03039c0.0620788,-5.81811 0.371622,-11.6357 0.928347,-17.4529 0.990426,-0.619087 1.98057,-2.35191 3.15638,-5.01307 -0.811843,-1.09389 -1.87115,-1.69257 -3.17849,-1.79547zm-3.53452 51.3655c-0.527244,-9.36057 0.687118,-21.0053 2.58151,-22.451l4.1315 2.03102 -0.928347 1.48536 -2.04236 0.371339c-1.48536,5.44621 -2.22803,11.3876 -2.22803,17.8243l-1.51427 0.738992zm24.7229 242.674c-13.4921,6.93156 -14.3586,8.29304 -21.5376,12.4398l-4.19074 -0.12841c-0.344126,6.61805 -0.378142,13.0581 0.22989,19.042 0.330236,-5.00485 0.103181,-10.381 0.990142,-15.0146l2.22803 -1.11402c7.42678,-4.33247 7.61244,-6.43663 22.2803,-15.2249zm-22.6517 56.4435l1.29969 -3.15638 14.4822 -10.3975 -3.71339 0.742678 -9.84048 6.86977 -2.9194 -1.4281c-1.59506,7.24536 -1.56416,24.5897 0.875056,30.2349m0.875056 2.95058c-1.34362,6.82016 -0.511937,22.6556 1.48592,27.7146l1.35439 -1.72885c-2.78504,-7.24111 -1.67102,-14.2965 -2.22803,-21.7233 6.06501,-4.14681 9.53093,-7.55065 18.1956,-12.4398 -5.56498,2.55685 -10.9831,4.89799 -15.9676,8.54079l-2.84032 -0.363402zm1.6475 30.697c-0.504851,5.61203 -0.436536,15.7003 0.359433,21.9507 0.216,-6.16422 -0.125008,-13.2568 0.647717,-19.0494l2.22803 -1.67102c1.98,-1.42384 3.96057,-2.8474 5.94142,-4.2704 -2.16652,0.803339 -4.33276,1.66932 -6.49843,2.97071l-0.928347 -0.557008 -1.74983 0.626457zm1.27304 33.4188c-0.00878741,-0.741544 -0.00737008,-1.45361 0.00651969,-2.12967 5.14262,-3.38797 10.3516,-6.23424 15.6952,-8.52123 -6.47178,3.67399 -10.5299,6.97663 -15.7017,10.6509zm15.3196 -499.928c-1.42781,-0.74863 -3.68703,-0.66189 -5.97799,-0.471402 -3.12888,0.260221 -7.49537,-0.216284 -8.1292,2.88 -0.828284,6.64895 -1.86463,16.0135 -1.54347,21.8268l1.73622 -0.988158 1.67102 -16.5246c1.48536,-6.56051 6.86977,-1.7949 10.5832,-2.97071l1.66025 -3.75194z"/>
  <path fill="white" d="M253.528 161.3c-2.90891,-1.29969 -5.57037,-3.09487 -7.98378,-5.38441 2.90863,1.05194 5.5698,2.84655 7.98378,5.38441z"/>
  <polygon fill="white" points="235.889,148.117 234.218,151.459 236.817,151.645 237.931,149.231 "/>
  <path fill="white" d="M234.961 185.065c6.6841,4.8892 12.6255,9.96407 20.0523,14.6679 -6.93185,-2.97071 -13.6777,-8.54079 -20.6093,-12.6255l0.557008 -2.04236z"/>
  <polygon fill="white" points="228.091,203.818 225.863,228.698 227.163,228.326 229.762,204.932 "/>
  <path fill="#644D36" d="M241.824 53.4637c4.70721,3.3857 9.41443,5.2852 14.1216,7.92794l0.495496 2.72523c-4.54224,-2.97298 -9.57969,-5.20271 -13.6261,-8.91893l-0.990993 -1.73424z"/>
  <path fill="#644D36" d="M238.108 79.725c8.98101,8.52634 17.4453,12.8619 21.8018,15.3604l-1.98199 1.98199c-3.65443,-3.36558 -16.9914,-11.6654 -19.3244,-15.6081l-0.495496 -1.73424z"/>
  <path fill="#644D36" d="M244.55 115.401c2.97298,3.3857 10.9009,8.01043 16.8469,10.9009l-0.495496 1.98199c-5.28548,-3.46847 -13.0482,-7.1847 -15.8559,-10.9009l-0.495496 -1.98199z"/>
  <path fill="#644D36" d="M240.338 146.617c9.45582,6.81251 18.0437,10.7765 21.8018,13.8739l1.49528 -1.50548 -0.335622 -13.1255 1.98085 -3.25786c-0.240662,7.28561 1.2532,15.0667 0.765071,20.3703 1.49074,7.92737 1.99077,24.774 2.9863,37.1611l-2.91884 6.56363c-4.6783,-6.56391 -21.0008,-16.3483 -28.8998,-23.4074 15.4959,7.67339 25.0461,18.5675 28.6503,17.0742l-1.98936 -34.1748c-4.89317,-7.32955 -20.7077,-13.8952 -23.0406,-17.8379l-0.495496 -1.73424z"/>
  <path fill="#644D36" d="M265.113 435.987l-1.48649 -1.98199 0.247748 -21.3063 -1.98199 -2.47748 -22.2973 13.8739 0.247748 -2.22973c8.01071,-5.03745 14.0392,-9.08391 21.0586,-13.6261 1.23874,-1.65147 2.97298,-2.80772 3.71622,-4.95496 0.660756,-9.00142 4.54224,-25.4353 -0.990993,-30.7208l-2.72523 0.495496 -24.7748 14.6171 0 -1.98199 21.5541 -12.1397 -3.71622 -1.23874 6.6892 -4.45947 1.98199 -0.247748 1.23874 -0.743244 0.495496 0.743244 1.98199 -0.247748 2.72523 3.22073c0.640063,13.172 -0.31011,36.2129 -2.72523,37.6577 1.23874,2.808 0.247748,19.4896 -1.23874,27.7478z"/>
  <path fill="#644D36" d="M262.387 440.199l-4.70721 3.71622c-4.87219,3.3857 -8.01043,6.77169 -14.6171,10.1577l-0.247748 1.48649 2.47748 -0.495496c5.36797,-3.22073 9.24945,-6.44145 13.8739,-9.66218l2.97298 2.72523 0.247748 -7.92794z"/>
  <path fill="#644D36" d="M260.901 470.919l-5.45046 5.20271c-4.87219,3.3857 -8.01043,6.27619 -14.6171,9.66218l-0.247748 1.48649 2.47748 -0.495496c5.36797,-3.22073 9.74495,-6.1937 14.3694,-9.41443l2.47748 -0.495496 0.990993 -5.94596z"/>
  <path fill="#644D36" d="M258.919 506.1c-6.44145,3.96397 -12.8829,7.1847 -19.3244,11.6442l1.23874 0.743244c4.78999,-3.22073 9.08419,-5.45046 13.6261,-8.17569l2.72523 -0.247748 1.73424 -3.96397z"/>
  <polygon fill="#644D36" points="250.743,34.1394 254.212,36.3691 254.459,32.4051 "/>
  <polygon fill="#644D36" points="250,55.9412 255.203,59.9052 255.203,56.9322 256.689,56.9322 256.194,53.4637 255.203,54.7025 247.77,49.9952 248.761,52.225 253.716,55.9412 253.698,56.8973 "/>
  <polygon fill="#644D36" points="250.495,49.7475 254.707,52.9682 254.459,50.4907 250.743,48.0133 "/>
  <polygon fill="#644D36" points="249.752,46.0313 253.964,49.252 253.716,46.7745 250,44.297 "/>
  <polygon fill="#644D36" points="251.239,43.5538 255.45,46.7745 255.203,44.297 251.486,41.8195 "/>
  <polygon fill="#644D36" points="250.248,39.8376 254.459,43.0583 254.212,40.5808 250.495,38.1033 "/>
  <polygon fill="#644D36" points="251.338,37.7564 254.707,40.3331 254.509,38.3511 251.536,36.3691 "/>
  <polygon fill="#644D36" points="249.009,65.3556 253.221,68.5763 252.973,66.0989 249.257,63.6214 "/>
  <polygon fill="#644D36" points="251.239,69.8151 255.45,73.0358 255.203,70.5583 251.486,68.0809 "/>
  <polygon fill="#644D36" points="251.486,73.5313 255.698,76.752 255.45,74.2746 251.734,71.7971 "/>
  <polygon fill="#644D36" points="251.982,77.743 256.194,80.9638 255.946,78.4863 252.23,76.0088 "/>
  <polygon fill="#644D36" points="251.734,80.2205 255.946,83.4412 255.698,80.9638 251.982,78.4863 "/>
  <polygon fill="#644D36" points="252.477,84.1845 256.689,87.4052 256.441,84.9277 252.725,82.4502 "/>
  <polygon fill="#644D36" points="252.973,87.653 255.402,89.3529 254.92,91.9265 257.185,93.4731 256.937,88.3962 253.221,85.9187 "/>
  <polygon fill="#644D36" points="252.663,98.1097 256.875,101.33 256.627,98.8529 252.911,96.3755 "/>
  <polygon fill="#644D36" points="253.22,101.823 257.432,105.044 257.184,102.566 253.468,100.089 "/>
  <polygon fill="#644D36" points="251.92,104.979 256.132,108.2 255.884,105.723 252.168,103.245 "/>
  <polygon fill="#644D36" points="253.034,109.25 257.246,112.471 256.998,109.993 253.282,107.516 "/>
  <polygon fill="#644D36" points="254.149,112.778 258.36,115.998 258.112,113.521 254.396,111.043 "/>
  <polygon fill="#644D36" points="252.292,118.162 257.432,122.311 256.256,118.905 252.54,116.428 "/>
  <polygon fill="#644D36" points="254.52,129.116 259.474,132.709 259.041,130.974 255.139,128.311 "/>
  <polygon fill="#644D36" points="252.849,130.787 259.846,135.865 259.412,134.13 253.839,130.167 "/>
  <polygon fill="#644D36" points="253.034,133.944 260.031,139.021 259.598,137.286 254.025,133.324 "/>
  <polygon fill="#644D36" points="253.963,137.843 260.96,142.92 260.526,141.186 254.953,137.223 "/>
  <polygon fill="#644D36" points="252.477,139.885 259.474,144.963 259.226,143.042 253.468,139.265 "/>
  <polygon fill="#644D36" points="252.849,143.227 259.846,148.676 260.526,145.642 253.839,142.607 "/>
  <polygon fill="#644D36" points="255.448,148.797 261.331,152.761 260.898,150.84 256.439,147.992 "/>
  <polygon fill="#644D36" points="261.512,159.629 254.456,153.316 258.726,151.831 261.14,156.287 "/>
  <polygon fill="#644D36" points="255.756,162.785 261.14,166.127 261.326,170.026 257.241,167.984 260.212,167.798 260.212,166.498 257.612,164.827 257.241,167.241 253.342,166.87 253.156,165.384 255.199,164.827 "/>
  <polygon fill="#644D36" points="254.149,168.85 260.031,172.813 259.598,170.893 255.139,168.044 "/>
  <polygon fill="#644D36" points="255.634,173.12 260.403,176.155 260.712,175.163 256.624,172.314 "/>
  <polygon fill="#644D36" points="255.263,178.69 261.702,183.025 260.217,178.747 257.072,176.634 256.253,177.884 "/>
  <polygon fill="#644D36" points="253.22,181.104 259.103,185.067 258.669,183.147 254.211,180.298 "/>
  <polygon fill="#644D36" points="254.334,185.374 262.074,190.452 261.269,188.346 255.325,184.568 "/>
  <polygon fill="#644D36" points="254.706,189.088 262.445,194.165 261.64,192.059 255.696,188.282 "/>
  <polygon fill="#644D36" points="256.377,192.615 263.002,197.878 262.383,195.958 257.367,191.81 "/>
  <polygon fill="#644D36" points="230.505,179.124 231.804,182.837 233.29,182.652 231.99,179.124 "/>
  <polygon fill="#644D36" points="259.283,203.261 262.254,206.046 260.583,206.789 258.169,204.189 "/>
  <polygon fill="#644D36" points="262.997,209.388 252.785,200.847 252.414,203.447 262.626,211.616 "/>
  <polygon fill="#644D36" points="255.199,206.603 255.013,208.088 262.997,213.287 264.854,212.916 "/>
  <polygon fill="#644D36" points="266.153,217.186 254.27,208.831 255.013,210.873 260.026,215.144 256.498,215.144 265.411,221.457 265.225,218.857 "/>
  <polygon fill="#644D36" points="264.111,379.09 256.87,383.175 256.87,384.846 264.482,380.575 "/>
  <polygon fill="#644D36" points="263.183,383.36 255.941,387.445 255.941,389.116 263.554,384.846 "/>
  <polygon fill="#644D36" points="262.997,386.145 255.756,390.23 255.756,391.901 263.368,387.631 "/>
  <polygon fill="#644D36" points="262.069,390.416 254.827,394.5 254.827,396.171 262.44,391.901 "/>
  <polygon fill="#644D36" points="263.368,392.829 256.127,396.914 256.127,398.585 263.74,394.315 "/>
  <polygon fill="#644D36" points="262.811,395.986 256.498,399.885 257.241,401.37 263.183,397.471 "/>
  <polygon fill="#644D36" points="262.626,400.627 255.384,404.712 255.384,406.383 262.997,402.113 "/>
  <polygon fill="#644D36" points="262.997,403.97 255.756,408.054 255.756,409.725 263.368,405.455 "/>
  <polygon fill="#644D36" points="262.069,416.595 254.827,420.68 254.827,422.351 262.44,418.08 "/>
  <polygon fill="#644D36" points="261.883,420.123 254.27,424.579 254.27,426.25 262.44,421.794 "/>
  <polygon fill="#644D36" points="262.069,423.279 254.827,427.364 254.827,429.035 262.44,424.764 "/>
  <polygon fill="#644D36" points="260.583,427.921 253.342,432.006 253.342,433.677 260.954,429.406 "/>
  <polygon fill="#644D36" points="260.583,430.892 251.3,436.647 251.3,438.318 261.326,432.748 "/>
  <polygon fill="#644D36" points="260.583,435.533 253.342,439.618 253.342,441.289 260.954,437.019 "/>
  <polygon fill="#644D36" points="260.954,439.432 253.713,443.517 254.085,444.074 260.769,440.175 "/>
  <polygon fill="#644D36" points="259.098,453.729 258.912,455.586 254.27,457.071 "/>
  <polygon fill="#644D36" points="257.798,466.354 253.342,469.139 254.27,470.253 257.971,468.049 "/>
  <polygon fill="#644D36" points="259.098,456.143 254.642,458.928 255.57,460.042 259.271,457.837 "/>
  <polygon fill="#644D36" points="258.355,459.485 253.899,462.27 254.827,463.384 258.528,461.18 "/>
  <polygon fill="#644D36" points="257.241,463.012 252.785,465.797 253.713,466.911 257.414,464.707 "/>
  <polygon fill="#644D36" points="257.798,470.253 253.342,473.039 254.27,474.153 "/>
  <polygon fill="#644D36" points="257.798,481.208 254.456,483.993 254.456,485.664 257.427,483.436 "/>
  <polygon fill="#644D36" points="256.684,499.961 256.498,501.632 252.042,503.117 "/>
  <polygon fill="#644D36" points="256.313,486.035 256.313,487.521 253.156,489.377 253.342,487.706 "/>
  <polygon fill="#644D36" points="254.642,490.863 254.642,492.348 251.485,494.205 251.671,492.534 "/>
  <polygon fill="#644D36" points="257.612,492.534 257.612,494.019 251.3,497.918 254.642,494.205 "/>
  <polygon fill="#644D36" points="256.313,496.804 256.313,498.29 253.156,500.146 253.342,498.475 "/>
  <polygon fill="#644D36" points="256.87,503.674 255.57,505.902 252.414,507.759 252.599,506.088 "/>
  <polygon fill="#644D36" points="256.313,514.628 256.313,516.114 253.156,517.971 253.342,516.3 "/>
  <polygon fill="#644D36" points="256.498,520.756 256.498,522.241 253.342,524.098 253.528,522.427 "/>
  <polygon fill="#644D36" points="253.713,524.098 253.713,525.583 250.557,527.44 250.743,525.769 "/>
  <polygon fill="#644D36" points="255.384,529.482 255.384,530.967 252.228,532.824 252.414,531.153 "/>
  <polygon fill="#644D36" points="253.156,537.094 253.156,538.58 250,540.437 250.186,538.765 "/>
  <polygon fill="#644D36" points="254.642,538.951 254.642,540.437 251.485,542.293 251.671,540.622 "/>
  <polygon fill="#644D36" points="252.599,542.85 252.599,544.336 249.443,546.192 249.629,544.521 "/>
  <polygon fill="#644D36" points="256.498,532.267 256.498,533.752 253.342,535.609 253.528,533.938 "/>
  <polygon fill="#644D36" points="255.384,525.954 255.384,527.44 252.228,529.296 252.414,527.625 "/>
 </g>
</svg>
