<?xml version="1.0" encoding="UTF-8" standalone="no"?>
<!-- Created with Inkscape (http://www.inkscape.org/) -->
<svg
   xmlns:dc="http://purl.org/dc/elements/1.1/"
   xmlns:cc="http://web.resource.org/cc/"
   xmlns:rdf="http://www.w3.org/1999/02/22-rdf-syntax-ns#"
   xmlns:svg="http://www.w3.org/2000/svg"
   xmlns="http://www.w3.org/2000/svg"
   xmlns:sodipodi="http://sodipodi.sourceforge.net/DTD/sodipodi-0.dtd"
   xmlns:inkscape="http://www.inkscape.org/namespaces/inkscape"
   width="500"
   height="550"
   id="svg1901"
   sodipodi:version="0.32"
   inkscape:version="0.45.1"
   sodipodi:docname="Hartola.vaakuna.svg"
   sodipodi:docbase="/"
   version="1.0"
   inkscape:output_extension="org.inkscape.output.svg.inkscape">
  <defs
     id="defs1903" />
  <sodipodi:namedview
     id="base"
     pagecolor="#ffffff"
     bordercolor="#666666"
     borderopacity="1.0"
     inkscape:pageopacity="0.0"
     inkscape:pageshadow="2"
     inkscape:zoom="1"
     inkscape:cx="405.2912"
     inkscape:cy="234.83931"
     inkscape:document-units="px"
     inkscape:current-layer="layer1"
     gridtolerance="10000"
     inkscape:window-width="1272"
     inkscape:window-height="969"
     inkscape:window-x="-1"
     inkscape:window-y="-1"
     width="500px"
     height="550px" />
  <metadata
     id="metadata1906">
    <rdf:RDF>
      <cc:Work
         rdf:about="">
        <dc:format>image/svg+xml</dc:format>
        <dc:type
           rdf:resource="http://purl.org/dc/dcmitype/StillImage" />
        <dc:title>Hartolan vaakuna, Gustav Adolfs vapen, Coat of arms of Hartola</dc:title>
        <dc:date>2007-09-05</dc:date>
        <dc:creator>
          <cc:Agent>
            <dc:title>Hippophaë, Wikipedia</dc:title>
          </cc:Agent>
        </dc:creator>
        <dc:identifier>http://commons.wikimedia.org/wiki/Image:Hartola.maalaiskunta.vaakuna.svg</dc:identifier>
        <dc:subject>
          <rdf:Bag>
            <rdf:li>Hartola</rdf:li>
            <rdf:li>Gustav Adolfs</rdf:li>
            <rdf:li>vaakuna</rdf:li>
            <rdf:li>vapen</rdf:li>
            <rdf:li>coat of arms</rdf:li>
          </rdf:Bag>
        </dc:subject>
        <cc:license
           rdf:resource="http://web.resource.org/cc/PublicDomain" />
      </cc:Work>
      <cc:License
         rdf:about="http://web.resource.org/cc/PublicDomain">
        <cc:permits
           rdf:resource="http://web.resource.org/cc/Reproduction" />
        <cc:permits
           rdf:resource="http://web.resource.org/cc/Distribution" />
        <cc:permits
           rdf:resource="http://web.resource.org/cc/DerivativeWorks" />
      </cc:License>
    </rdf:RDF>
  </metadata>
  <g
     inkscape:label="Taso 1"
     inkscape:groupmode="layer"
     id="layer1"
     style="opacity:1">
    <path
       style="fill:#df0000;fill-opacity:1;fill-rule:evenodd;stroke:#000000;stroke-width:1px;stroke-linecap:butt;stroke-linejoin:miter;stroke-opacity:1"
       d="M 0.5,0.5 L 499.5,0.5 L 499.5,305 C 499.5,460 370,549.5 250,549.5 C 130,549.5 0.5,460 0.5,305 L 0.5,15.5 L 0.5,0.5 z "
       id="path2167"
       sodipodi:nodetypes="cccccc" />
    <path
       style="fill:#cfcfcf;fill-rule:evenodd;stroke:#000000;stroke-width:0.99999994px;stroke-linecap:butt;stroke-linejoin:miter;stroke-opacity:1;fill-opacity:1"
       d="M 385.99158,298.88845 C 393.54313,286.91381 405.40985,286.74749 405.24388,269.28446 C 405.07785,251.81511 383.99996,244.58675 383.99996,227.70584 C 383.99996,210.37697 399.51798,212.23858 399.9329,201.0955 C 400.55402,184.41485 391.02041,187.72381 395.94967,166.36903 C 400.08227,176.94663 409.04455,186.37666 417.45913,190.31832 C 413.72485,178.49335 412.73458,170.66511 412.87841,164.97198 C 413.32044,147.27692 438.7485,139.82729 438.76943,124.0586 C 438.7823,114.36253 435.8318,112.13385 429.20967,104.50002 C 440.5121,107.84294 457.70737,117.36599 457.29147,132.44086 C 456.93421,145.56161 447.97571,158.48555 447.53255,172.15677 C 447.15922,183.6736 449.37479,192.56357 451.71494,199.49888 C 461.22491,198.4511 467.61469,192.66335 464.66045,181.47038 C 471.1996,185.77793 473.33297,188.97289 472.95885,195.10818 C 472.1325,208.65988 459.14017,208.31089 458.6856,223.04902 C 458.05388,243.53104 465.98819,239.51416 464.99239,270.94761 C 464.09576,299.25033 446.11859,330.02602 425.82392,330.48822 C 414.87003,330.73769 410.13994,326.99562 397.27741,322.17249 L 385.99158,298.88845 z "
       id="path8099"
       sodipodi:nodetypes="csscccsscssccsssscc" />
    <path
       sodipodi:nodetypes="csscccsscssccsssscc"
       id="path8101"
       d="M 114.00838,298.88845 C 106.45683,286.91381 94.590108,286.74749 94.756078,269.28446 C 94.922108,251.81511 116,244.58675 116,227.70584 C 116,210.37697 100.48198,212.23858 100.06706,201.0955 C 99.445938,184.41485 108.97955,187.72381 104.05029,166.36903 C 99.917688,176.94663 90.955408,186.37666 82.540828,190.31832 C 86.275108,178.49335 87.265378,170.66511 87.121548,164.97198 C 86.679518,147.27692 61.251458,139.82729 61.230528,124.0586 C 61.217658,114.36253 64.168158,112.13385 70.790288,104.50002 C 59.487858,107.84294 42.292588,117.36599 42.708488,132.44086 C 43.065748,145.56161 52.024248,158.48555 52.467408,172.15677 C 52.840738,183.6736 50.625168,192.56357 48.285018,199.49888 C 38.775048,198.4511 32.385268,192.66335 35.339508,181.47038 C 28.800358,185.77793 26.666988,188.97289 27.041108,195.10818 C 27.867458,208.65988 40.859788,208.31089 41.314358,223.04902 C 41.946078,243.53104 34.011768,239.51416 35.007568,270.94761 C 35.904198,299.25033 53.881368,330.02602 74.176038,330.48822 C 85.129928,330.73769 89.860018,326.99562 102.72255,322.17249 L 114.00838,298.88845 z "
       style="fill:#cfcfcf;fill-rule:evenodd;stroke:#000000;stroke-width:0.99999994px;stroke-linecap:butt;stroke-linejoin:miter;stroke-opacity:1;fill-opacity:1" />
    <path
       d="M 385.62578,470.69571 C 383.2039,475.07001 376.74678,476.41002 365.03454,470.72553 L 144.88142,362.55157 C 144.88142,362.55157 132.6483,366.06592 128.274,363.64404 C 124.77456,361.70653 126.025,353.25452 126.025,353.25452 C 126.025,353.25452 99.418538,357.95523 88.045368,351.65833 C 77.547048,345.84581 96.922118,310.85143 96.922118,310.85143 C 96.922118,310.85143 116.29718,275.85705 126.7955,281.66957 C 138.16867,287.96646 148.30632,313.01098 148.30632,313.01098 C 148.30632,313.01098 154.80591,307.46524 158.30535,309.40274 C 162.67965,311.82463 166.194,324.05775 166.194,324.05775 L 374.72208,453.22833 C 385.75619,460.13763 388.04767,466.32141 385.62578,470.69571 z "
       style="fill:#bf9f4f;fill-rule:evenodd;stroke:#000000;stroke-width:1px;stroke-linecap:butt;stroke-linejoin:miter;stroke-opacity:1;fill-opacity:1"
       id="path8097" />
    <path
       id="path8135"
       style="fill:#bf9f4f;fill-rule:evenodd;stroke:#000000;stroke-width:1px;stroke-linecap:butt;stroke-linejoin:miter;stroke-opacity:1;fill-opacity:1"
       d="M 250,40 C 256,40 280.7491,58.844315 280.5,70.75 C 280.21109,84.558771 270.29883,85.627281 270,91.5 C 269.67513,97.884467 270.49823,102.29458 275.25,102.25 C 282.25415,102.18429 288.99248,90.728529 293,92 C 296.58711,93.138087 304,112.625 301,130.75 C 298,148.875 284.39337,164.06831 281,163 C 276.49802,161.58267 275.74705,153.91424 270.5,153.5 C 265.75,153.125 262.25238,155.43344 262,162.5 C 261.75,169.5 267,177.5 274.5,181.5 C 282,185.5 290.84137,181.53488 292.5,177.75 C 293.58985,175.26304 286.8326,170.43429 291,163.41667 C 294.96962,156.73209 301.14339,156.05649 307.16667,159.16667 C 313.08198,162.2211 314.44555,167.98557 312.5,172.83333 C 309.82052,179.50986 303.125,178.5 302.16667,181 C 299.99633,186.66174 308.48751,193.5 318.5,193.5 C 328.25,193.5 338,186 341.75,178.75 C 345.5,171.5 338.50112,165.82865 333.5,164.5 C 330.3607,163.66598 325.65835,171.81452 321.75,170 C 318.0561,168.28504 314.50092,148.26432 320.5,133 C 326.125,118.6875 340.5206,108.77057 345.5,110.25 C 347.97422,110.98511 347.68005,116.09014 349.8519,119.61513 C 352.02376,123.14011 356.66165,125.08506 358,123.5 C 363.63929,116.82117 349.83611,116.88741 357.5,103.5 C 367.49062,86.048206 411,77 411,77 C 380.09821,109.95113 356.09109,158.65566 353,220 L 147,220 C 143.90891,158.65566 119.90179,109.95113 89,77 C 89,77 132.50938,86.048206 142.5,103.5 C 150.16389,116.88741 136.36071,116.82117 142,123.5 C 143.33835,125.08506 147.97624,123.14011 150.1481,119.61513 C 152.31995,116.09014 152.02578,110.98511 154.5,110.25 C 159.4794,108.77057 173.875,118.6875 179.5,133 C 185.49908,148.26432 181.9439,168.28504 178.25,170 C 174.34165,171.81452 169.6393,163.66598 166.5,164.5 C 161.49888,165.82865 154.5,171.5 158.25,178.75 C 162,186 171.75,193.5 181.5,193.5 C 191.51249,193.5 200.00367,186.66174 197.83333,181 C 196.875,178.5 190.17948,179.50986 187.5,172.83333 C 185.55445,167.98557 186.91802,162.2211 192.83333,159.16667 C 198.85661,156.05649 205.03038,156.73209 209,163.41667 C 213.1674,170.43429 206.41015,175.26304 207.5,177.75 C 209.15863,181.53488 218,185.5 225.5,181.5 C 233,177.5 238.25,169.5 238,162.5 C 237.74762,155.43344 234.25,153.125 229.5,153.5 C 224.25295,153.91424 223.50198,161.58267 219,163 C 215.60663,164.06831 202,148.875 199,130.75 C 196,112.625 203.41289,93.138087 207,92 C 211.00752,90.728529 217.74585,102.18429 224.75,102.25 C 229.50177,102.29458 230.32487,97.884467 230,91.5 C 229.70117,85.627281 219.78891,84.558771 219.5,70.75 C 219.2509,58.844315 244,40 250,40 z "
       sodipodi:nodetypes="csssssssssssssssssssssssccccsssssssssssssssssssssssc" />
    <path
       style="fill:#bf9f4f;fill-rule:evenodd;stroke:#000000;stroke-width:1px;stroke-linecap:butt;stroke-linejoin:miter;stroke-opacity:1;fill-opacity:1"
       d="M 150,220 L 350,220 L 350,255 L 150,255 L 150,220 z "
       id="path8139" />
    <path
       id="path8088"
       style="fill:#bf9f4f;fill-rule:evenodd;stroke:#000000;stroke-width:1px;stroke-linecap:butt;stroke-linejoin:miter;stroke-opacity:1;fill-opacity:1"
       d="M 114.37429,470.69571 C 116.79617,475.07001 123.25329,476.41002 134.96553,470.72553 L 355.11865,362.55157 C 355.11865,362.55157 367.35177,366.06592 371.72607,363.64404 C 375.22551,361.70653 373.97507,353.25452 373.97507,353.25452 C 373.97507,353.25452 400.58153,357.95523 411.9547,351.65833 C 422.45302,345.84581 403.07795,310.85143 403.07795,310.85143 C 403.07795,310.85143 383.70289,275.85705 373.20457,281.66957 C 361.8314,287.96646 351.69375,313.01098 351.69375,313.01098 C 351.69375,313.01098 345.19416,307.46524 341.69472,309.40274 C 337.32042,311.82463 333.80607,324.05775 333.80607,324.05775 L 125.27799,453.22833 C 114.24388,460.13763 111.9524,466.32141 114.37429,470.69571 z " />
  </g>
</svg>
