<?xml version="1.0" encoding="UTF-8"?>
<!DOCTYPE svg PUBLIC "-//W3C//DTD SVG 1.1//EN" "http://www.w3.org/Graphics/SVG/1.1/DTD/svg11.dtd">
<!-- Creator: CorelDRAW -->
<svg xmlns="http://www.w3.org/2000/svg" xml:space="preserve" width="500px" height="615px" shape-rendering="geometricPrecision" text-rendering="geometricPrecision" image-rendering="optimizeQuality" fill-rule="evenodd" clip-rule="evenodd"
viewBox="0 0 500 615"
 xmlns:xlink="http://www.w3.org/1999/xlink"
 xmlns:svg="http://www.w3.org/2000/svg"
 version="1.0">
 <g id="Layer_x0020_1">
  <metadata id="CorelCorpID_0Corel-Layer"/>
  <path id="path1937" fill="red" stroke="red" stroke-width="0.992126" d="M0.773008 -0.20778l500.596 0.0674646 -1.34136 393.503c-26.0005,148.916 -120.827,210.785 -250.992,220.194 -143.274,-4.02378 -231.896,-106.275 -247.775,-226.46l-0.487843 -387.305z"/>
  <polygon fill="#333333" stroke="#333333" stroke-width="0.992126" points="208.88,50.7158 286.684,50.7158 286.684,107.687 343.6,107.054 343.59,179.599 285.419,179.149 286.684,235.421 208.88,236.686 208.88,179.756 151.996,179.972 151.95,107.607 208.88,107.646 "/>
  <polygon fill="#CC9933" stroke="black" stroke-width="0.992126" points="211.41,46.9205 289.214,46.9205 289.214,103.892 346.131,103.259 346.121,175.804 287.949,175.354 289.214,231.626 211.41,232.891 211.41,175.961 154.527,176.177 154.481,103.812 211.41,103.851 "/>
  <path id="path1937_0" fill="#CC9933" d="M0.773008 267.994l499.254 -0.00878741 0 125.378c-12.5938,72.131 -43.5453,126.37 -85.6029,161.586 -3.02343,-44.7438 -30.9495,-161.416 -165.618,-161.519 -134.668,-0.103181 -162.758,102.841 -166.44,155.822 -44.3208,-41.9117 -72.9185,-100.184 -81.1058,-162.154l-0.487843 -119.104z"/>
  <line fill="none" stroke="#996633" stroke-width="5.66929" x1="0.770457" y1="327.773" x2="501.751" y2= "327.773" />
  <line fill="none" stroke="#996633" stroke-width="5.66929" x1="0.770457" y1="388.498" x2="500.486" y2= "388.498" />
  <path fill="none" stroke="#996633" stroke-width="5.66929" d="M61.4954 267.048l0 60.7249m0 60.7249l0 37.9531"/>
  <path fill="none" stroke="#996633" stroke-width="5.66929" d="M19.747 450.488l26.5672 0m395.977 0l44.2786 0"/>
  <path id="path1937_1" fill="#CC9933" d="M468.275 487.999c-14.5692,26.9782 -32.8218,49.3421 -53.8504,66.9501 -3.02343,-44.7438 -30.9495,-161.416 -165.618,-161.519 -134.668,-0.103181 -162.758,102.841 -166.44,155.822 -22.1604,-20.9557 -40.39,-46.0021 -54.1026,-73.5551 84.2205,-188.077 374.971,-193.454 440.011,12.3027z"/>
  <line fill="none" stroke="#996633" stroke-width="5.66929" x1="96.9183" y1="482.116" x2="38.7235" y2= "455.549" />
  <path fill="none" stroke="#996633" stroke-width="5.66929" d="M434.701 267.048l0 60.7249m0 60.7249l0 34.1578"/>
  <line fill="none" stroke="#996633" stroke-width="5.66929" x1="246.2" y1="392.294" x2="246.2" y2= "332.834" />
  <line fill="none" stroke="#996633" stroke-width="5.66929" x1="342.348" y1="417.596" x2="375.241" y2= "365.726" />
  <line fill="none" stroke="#996633" stroke-width="5.66929" x1="398.013" y1="485.911" x2="456.208" y2= "456.814" />
  <line fill="none" stroke="#996633" stroke-width="5.66929" x1="182.945" y1="268.314" x2="182.945" y2= "327.773" />
  <line fill="none" stroke="#996633" stroke-width="5.66929" x1="309.456" y1="267.048" x2="309.456" y2= "326.508" />
  <line fill="none" stroke="#996633" stroke-width="5.66929" x1="373.976" y1="326.508" x2="373.976" y2= "366.992" />
  <path id="path1937_2" fill="none" stroke="#996633" stroke-width="5.66929" d="M28.264 475.696c84.2205,-188.077 374.971,-193.454 440.011,12.3027m-53.8504 66.9501c-3.02343,-44.7438 -30.9495,-161.416 -165.618,-161.519 -134.668,-0.103181 -162.758,102.841 -166.44,155.822"/>
  <path id="path1937_3" fill="none" stroke="#996633" stroke-width="5.66929" d="M0.773008 267.994l499.254 -0.00878741m-85.6029 286.964c-3.02343,-44.7438 -30.9495,-161.416 -165.618,-161.519 -134.668,-0.103181 -162.758,102.841 -166.44,155.822"/>
  <path id="path1937_4" fill="none" stroke="#CCCCCC" stroke-width="3.96851" d="M91.1175 399.623c34.7105,-31.3863 77.8887,-49.6625 122.437,-57.606"/>
  <line fill="none" stroke="#CCCCCC" stroke-width="3.96851" x1="347.408" y1="418.228" x2="377.138" y2= "372.051" />
  <line fill="none" stroke="#CCCCCC" stroke-width="3.96851" x1="64.067" y1="332.833" x2="201.933" y2= "332.833" />
 </g>
</svg>
