<?xml version="1.0" encoding="UTF-8" standalone="no"?>
<!-- Created with Inkscape (http://www.inkscape.org/) -->
<svg
   xmlns:dc="http://purl.org/dc/elements/1.1/"
   xmlns:cc="http://web.resource.org/cc/"
   xmlns:rdf="http://www.w3.org/1999/02/22-rdf-syntax-ns#"
   xmlns:svg="http://www.w3.org/2000/svg"
   xmlns="http://www.w3.org/2000/svg"
   xmlns:sodipodi="http://sodipodi.sourceforge.net/DTD/sodipodi-0.dtd"
   xmlns:inkscape="http://www.inkscape.org/namespaces/inkscape"
   width="500"
   height="535"
   id="svg1901"
   sodipodi:version="0.32"
   inkscape:version="0.45.1"
   sodipodi:docname="Heinola.vaakuna.svg"
   sodipodi:docbase="/"
   version="1.0"
   inkscape:output_extension="org.inkscape.output.svg.inkscape">
  <defs
     id="defs1903" />
  <sodipodi:namedview
     id="base"
     pagecolor="#ffffff"
     bordercolor="#666666"
     borderopacity="1.0"
     inkscape:pageopacity="0.0"
     inkscape:pageshadow="2"
     inkscape:zoom="1"
     inkscape:cx="460"
     inkscape:cy="254.98021"
     inkscape:document-units="px"
     inkscape:current-layer="layer1"
     gridtolerance="10000"
     inkscape:window-width="1272"
     inkscape:window-height="969"
     inkscape:window-x="3"
     inkscape:window-y="1"
     width="500px"
     height="535px" />
  <metadata
     id="metadata1906">
    <rdf:RDF>
      <cc:Work
         rdf:about="">
        <dc:format>image/svg+xml</dc:format>
        <dc:type
           rdf:resource="http://purl.org/dc/dcmitype/StillImage" />
        <dc:title>Heinolan vaakuna, Heinola vapen, Coat of arms of Heinola</dc:title>
        <dc:date>2007-09-06</dc:date>
        <dc:creator>
          <cc:Agent>
            <dc:title>Hippophaë, Wikipedia</dc:title>
          </cc:Agent>
        </dc:creator>
        <dc:identifier>http://commons.wikimedia.org/wiki/Image:Heinola.vaakuna.svg</dc:identifier>
        <dc:subject>
          <rdf:Bag>
            <rdf:li>Heinola</rdf:li>
            <rdf:li>vaakuna</rdf:li>
            <rdf:li>vapen</rdf:li>
            <rdf:li>coat of arms</rdf:li>
          </rdf:Bag>
        </dc:subject>
        <cc:license
           rdf:resource="http://web.resource.org/cc/PublicDomain" />
      </cc:Work>
      <cc:License
         rdf:about="http://web.resource.org/cc/PublicDomain">
        <cc:permits
           rdf:resource="http://web.resource.org/cc/Reproduction" />
        <cc:permits
           rdf:resource="http://web.resource.org/cc/Distribution" />
        <cc:permits
           rdf:resource="http://web.resource.org/cc/DerivativeWorks" />
      </cc:License>
    </rdf:RDF>
  </metadata>
  <g
     inkscape:label="Taso 1"
     inkscape:groupmode="layer"
     id="layer1"
     style="opacity:1">
    <path
       style="fill:#cfcfcf;fill-opacity:1;fill-rule:evenodd;stroke:#000000;stroke-width:1px;stroke-linecap:butt;stroke-linejoin:miter;stroke-opacity:1"
       d="M 0.5,0.5 L 499.5,0.5 L 483,300 C 475,450 370,534.5 250,534.5 C 130,534.5 25,450 17,300 L 0.5,0.5 z "
       id="path2167"
       sodipodi:nodetypes="ccsccc" />
    <path
       sodipodi:nodetypes="ccccc"
       id="path6111"
       d="M 0.5,0.5 L 499.5,0.5 L 483,299 L 17,300 L 0.5,0.5 z "
       style="fill:#df0000;fill-opacity:1;fill-rule:evenodd;stroke:#000000;stroke-width:1px;stroke-linecap:butt;stroke-linejoin:miter;stroke-opacity:1" />
    <path
       style="fill:#000000;fill-rule:evenodd;stroke:#000000;stroke-width:1px;stroke-linecap:butt;stroke-linejoin:miter;stroke-opacity:1;fill-opacity:1"
       d="M 150.5,41.75 C 148.60301,31.910108 138.26121,26.646261 137.76667,16.4 C 142.39945,17.973555 144.4447,19.862123 146.01667,22.3 C 147.71747,18.562052 148.62347,16.356175 150.33333,13.933333 C 151.49056,18.044849 152.24547,22.651657 154.15,26.416667 C 156.51115,22.791722 158.00284,19.345927 161.95,16.633333 C 161.38624,27.71812 157.88846,34.819231 150.5,41.75 z "
       id="path10997"
       sodipodi:nodetypes="ccccccc" />
    <path
       style="fill:#bf9f4f;fill-rule:evenodd;stroke:#000000;stroke-width:1px;stroke-linecap:butt;stroke-linejoin:miter;stroke-opacity:1;fill-opacity:1"
       d="M 325.7,157.2 C 293.86667,165.1 291.73333,212.1 263.1,212 C 266.67184,216.82988 272.84491,218.53658 278.75,218.5 C 276.60919,224.68619 272.80359,228.5417 268,231 C 273.08837,233.34936 278.36679,235.25527 284.25,235.75 C 285.05,246.16667 293.76725,253.9584 292.75,264 C 292.21067,269.32384 286.66466,275.8823 282.35,278.3 C 280.51181,279.33002 270.45203,271.84254 265.35,272.5 C 259.2135,273.29077 251.56857,280.50328 254.2,282.6 C 261.1896,288.16929 278.58259,297.48118 289.75,297.75 C 297.66959,297.94064 301.95,290.35 302.15,284.35 C 308.56176,277.57733 313.2218,269.68525 318,262.25 C 326.39229,263.66088 334.42557,256.87025 338.2,249.85 C 309.23333,254.36667 305.16667,217.18333 344.8,199.9 L 325.7,157.2 z "
       id="path12005"
       sodipodi:nodetypes="cccccsssssccccc" />
    <path
       style="fill:#bf9f4f;fill-rule:evenodd;stroke:#000000;stroke-width:1px;stroke-linecap:butt;stroke-linejoin:miter;stroke-opacity:1;fill-opacity:1"
       d="M 156,70.5 C 199.30445,57.450306 194.21716,125.60729 237.25,126.5 C 257.90306,126.92844 296.40344,102.58973 326.25,103.5 C 381.54962,105.19417 377.41667,150.41667 410.75,139.25 C 406.78397,151.06411 398.51942,157.70077 379.25,156.25 C 406.25,203.75 388.75,226.5 421,235.5 C 421.18649,246.09603 422.01011,256.56465 425.5,266.5 C 421.1958,262.42168 418.03089,258.11265 415.375,253.375 C 414.65309,258.35922 415.01468,263.59943 416.625,269.25 C 412.65698,267.15068 410.60883,263.96642 408,260 C 403.57854,266.89809 397.55734,275.75626 391.5,282 C 392.76252,289.35327 386.71226,298.23693 380.125,297.375 C 367.82951,295.76617 351.5825,286.12339 345,279 C 343.33538,277.1986 349.2946,271.46986 356.875,272.25 C 362.29073,272.80736 368.30435,279.26169 370.5,279.125 C 373.66496,278.92796 382.84152,264.38865 381,257.5 C 378.34152,247.55531 375,237.16667 356.25,228.625 C 352.95833,232.125 348.66667,235 344.5,237.5 C 346.625,208 318.89214,204.79778 319,165 C 319,156 319,148 327,139 C 319,148 319,156 319,165 C 312.54166,163.95834 304.21342,165.03935 297.375,167.375 C 275.69395,174.78011 265,189.83333 242.83333,201.5 C 245.33333,203.83333 247.16667,204.5 249.16667,205 C 223.83333,223.75 189.41667,221.66666 169.08333,210.33334 C 160.13422,216.36451 150.0847,221.62809 139.75,225.08333 C 141.25,221.25 141.83333,220 142,216 C 137.95068,220.18535 133.71305,223.80583 129,226 C 130.08333,222.91666 131.08334,219 131,215.83333 C 124.48944,220.54342 117.08385,229.15114 109.5,233 C 110.66667,234.33333 111.95834,235.18767 112.08333,236.75 C 112.29168,239.35433 108.5,242.58334 109.83333,245.33333 C 102,251.75 91.982885,261.79762 85,263 C 80.843095,263.71577 79.639313,258.06898 79.75,254 C 80.015175,244.25186 86.142738,241.87954 88.666667,237.66667 C 92.078979,231.97094 90.173395,226.93727 93.75,223 C 110.00673,205.10394 131.66666,189.66666 150.83333,173.33333 C 139.9733,148.29288 155.67672,105.76935 156,70.5 z "
       id="path11001"
       sodipodi:nodetypes="cssccccccccsssssccsccsccccccccscsssscc" />
    <path
       style="fill:#bf9f4f;fill-rule:evenodd;stroke:#000000;stroke-width:1px;stroke-linecap:butt;stroke-linejoin:miter;stroke-opacity:1;fill-opacity:1"
       d="M 223.65,171.85 C 224.11445,182.77861 224.94633,191.67408 228.25,202.25 C 215.52058,218.37659 212.07532,262.84892 236.75,263.5 C 232.28288,269.10415 226.89715,273.04018 218.75,273.65 C 218.3,281.85 210.05061,296.37788 200.8,296.35 C 188.4424,296.31235 172.45053,289.71012 168.35,281.55 C 166.24781,277.36662 176.88573,274.03437 183.15,274.5 C 186.32438,274.73596 189.40896,277.65861 194.25,277.75 C 197.7449,277.81464 203.01751,267.51763 203.25,261.75 C 203.89744,245.68818 179.46667,223.5 174.8,188.2"
       id="path12003"
       sodipodi:nodetypes="ccccsssssc" />
    <path
       style="fill:#df0000;fill-rule:evenodd;stroke:#000000;stroke-width:1px;stroke-linecap:butt;stroke-linejoin:miter;stroke-opacity:1;fill-opacity:1"
       d="M 75,456.12 C 163,352.74 337,352.74 425,456.12 C 337,560.5 163,560.5 75,456.12 z "
       id="path6113"
       sodipodi:nodetypes="ccc" />
    <path
       style="fill:#000000;fill-rule:evenodd;stroke:#000000;stroke-width:1px;stroke-linecap:butt;stroke-linejoin:miter;stroke-opacity:1;fill-opacity:1"
       d="M 168.21667,44.95 C 171.13541,39.777326 174.76117,27.780088 174.5,20.5 C 175.88845,22.833769 177.31181,25.132635 178.18333,27.983333 C 179.95679,24.830494 180.82294,21.314733 181.73333,17.816667 C 183.36308,22.01356 184.66996,25.997599 185.26667,30.366667 C 190.34795,29.371691 193.17228,27.009601 197.26667,24.8 C 189.37836,41.748187 178.96726,41.47141 168.21667,44.95 z "
       id="path10999"
       sodipodi:nodetypes="ccccccc" />
    <path
       style="fill:#0000bf;fill-rule:evenodd;stroke:#000000;stroke-width:1px;stroke-linecap:butt;stroke-linejoin:miter;stroke-opacity:1;fill-opacity:1"
       d="M 146.6,106.7 C 142.22234,93.377664 129.51317,93.267465 113.6,94 C 85.080693,95.317439 88.706272,79.999172 85.8,80.1 C 82.937474,80.199311 81.462683,84.763555 81.7,90.5 C 82.039604,98.708931 92.439212,103.75185 111.3,102.3 C 127.59832,101.04541 138.35695,99.043046 143.4,108.9 L 146.6,106.7 z "
       id="path9028"
       sodipodi:nodetypes="csssscc" />
    <path
       style="fill:#bf9f4f;fill-rule:evenodd;stroke:#000000;stroke-width:1px;stroke-linecap:butt;stroke-linejoin:miter;stroke-opacity:1;fill-opacity:1"
       d="M 112.33333,86.6 L 106,85.566667 C 106.21829,82.931558 106.1511,81.35623 105.5,78.5 C 105.12841,76.869968 102.52736,73.501108 103.16667,71.833334 C 105.31256,66.235347 109.32878,66.238134 112.5,62.666667 C 115.051,59.79369 117.58804,55.593934 120.66666,53.666666 C 124.42138,51.316156 128.44444,51 133,49.833333 C 137.40017,42.61788 143.90941,38.401208 149.5,31.833334 C 155.11111,39.777778 154.05556,45.555556 152.16667,52 C 154.74264,45.871319 166.88894,42.611135 172.66666,38.166666 C 175.76423,50.420733 173.69989,59.57586 166,65 C 173.55556,66.333333 183.94444,72.166666 187.83333,76.666666 C 183.16666,77.111111 176,75.888889 170.5,75.166667 C 177.05556,79.333333 179.77778,86.500001 181.16667,92.666667 C 179.1075,90.129158 176.83692,88.64874 174.33333,88.333333 C 177.21408,95.51748 178.39145,102.87197 176.83333,110.5 C 175.91026,106.35384 173.1192,103.32848 170,100.5 C 177.69869,113.89027 174.02075,123.59082 165.33333,131.66667 C 168.26201,124.93323 167.12587,118.678 162.5,112.83333 C 165.72351,125.89672 160.5419,133.70801 150,139.66667 C 155.41579,131.97939 153.53614,127.15763 150.16667,121.66667 C 154.83873,138.29408 142.37295,143.82086 126.66666,144.5 C 132.20008,138.3508 135.12075,132.09305 131.33333,125.5 C 134.12364,136.71888 124.31557,143.16365 108,132.5 C 121.19922,126.71459 122.29565,117.52482 111.26667,109.63333 L 117.06667,105.16667 C 121.73334,107.61111 123.90346,108.50725 131.6,108.46667 C 142.34358,108.40949 149.03617,105.24255 149.26667,93.766667 C 149.44651,84.812998 138.65194,77.104013 129.66667,77.333333 C 120.47926,77.572065 117.27778,81.044445 112.33333,86.6 z "
       id="path7084"
       sodipodi:nodetypes="ccssssccccccccccccccccccccsssc" />
    <path
       style="fill:#0000bf;fill-rule:evenodd;stroke:#000000;stroke-width:1px;stroke-linecap:butt;stroke-linejoin:miter;stroke-opacity:1;fill-opacity:1"
       d="M 111.25,109.625 C 107.39016,107.0292 108.1852,101.25252 109,98 C 111.25958,101.41418 113.5402,103.38626 117.075,105.15 L 111.25,109.625 z "
       id="path7086"
       sodipodi:nodetypes="cccc" />
    <path
       style="fill:#0000bf;fill-rule:evenodd;stroke:#000000;stroke-width:1px;stroke-linecap:butt;stroke-linejoin:miter;stroke-opacity:1;fill-opacity:1"
       d="M 106,85.575 L 112.375,86.6 C 110.79224,88.392049 109.33362,91.583528 108.475,94.9 C 106.54478,91.810706 105.66935,89.153326 106,85.575 z "
       id="path8057"
       sodipodi:nodetypes="cccc" />
    <path
       style="fill:#df0000;fill-rule:evenodd;stroke:#000000;stroke-width:1px;stroke-linecap:butt;stroke-linejoin:miter;stroke-opacity:1;fill-opacity:1"
       d="M 122.2,60.2 L 132.8,60.2 L 126,65.8 L 122.2,60.2 z "
       id="path9057"
       sodipodi:nodetypes="cccc" />
    <path
       style="fill:#0000bf;fill-rule:evenodd;stroke:#000000;stroke-width:1px;stroke-linecap:butt;stroke-linejoin:miter;stroke-opacity:1;opacity:1;fill-opacity:1"
       d="M 89.625,261 C 89.616081,259.339 93.746505,256.63706 95.25,257.375 C 97.151704,258.30838 98.589663,264.375 101.875,270.75 C 94.209721,269.24168 89.640679,264.13955 89.625,261 z "
       id="path12976"
       sodipodi:nodetypes="cscs" />
    <path
       sodipodi:nodetypes="cscs"
       id="path12978"
       d="M 96.375,256 C 96.366081,254.339 100.87151,250.88706 102.375,251.625 C 104.2767,252.55838 106.46466,258.625 109.75,265 C 102.08472,263.49168 96.390679,259.13955 96.375,256 z "
       style="fill:#0000bf;fill-rule:evenodd;stroke:#000000;stroke-width:1px;stroke-linecap:butt;stroke-linejoin:miter;stroke-opacity:1;opacity:1;fill-opacity:1" />
    <path
       style="opacity:1;fill:#0000bf;fill-rule:evenodd;stroke:#000000;stroke-width:1px;stroke-linecap:butt;stroke-linejoin:miter;stroke-opacity:1;fill-opacity:1"
       d="M 103,250 C 102.99108,248.339 108.37151,244.76206 109.875,245.5 C 111.7767,246.43338 115.46466,251.875 119.75,257.875 C 111.20972,257.49168 103.01568,253.13955 103,250 z "
       id="path13949"
       sodipodi:nodetypes="cscs" />
    <path
       sodipodi:nodetypes="cscs"
       id="path13951"
       d="M 81.375,262.375 C 81.36608,260.714 86.62151,260.88706 88.125,261.625 C 90.0267,262.55838 89.71466,268.875 93.875,275 C 86.20972,273.49168 81.39068,265.51455 81.375,262.375 z "
       style="opacity:1;fill:#0000bf;fill-rule:evenodd;stroke:#000000;stroke-width:1px;stroke-linecap:butt;stroke-linejoin:miter;stroke-opacity:1;fill-opacity:1" />
    <path
       style="opacity:1;fill:#0000bf;fill-rule:evenodd;stroke:#000000;stroke-width:1px;stroke-linecap:butt;stroke-linejoin:miter;stroke-opacity:1;fill-opacity:1"
       d="M 187.375,292.125 C 187.90848,290.55198 194.46078,292.58325 194.625,294.25 C 194.9017,297.05838 191.21466,298.625 191.375,304.5 C 186.58472,300.36668 186.14068,295.76455 187.375,292.125 z "
       id="path13953"
       sodipodi:nodetypes="cscs" />
    <path
       sodipodi:nodetypes="cscs"
       id="path13955"
       d="M 179.125,289.5 C 179.65848,287.92698 186.57248,289.96186 186.375,291.625 C 186.0267,294.55838 181.96466,298.125 179.75,303.25 C 177.83472,296.99168 177.89068,293.13955 179.125,289.5 z "
       style="opacity:1;fill:#0000bf;fill-rule:evenodd;stroke:#000000;stroke-width:1px;stroke-linecap:butt;stroke-linejoin:miter;stroke-opacity:1;fill-opacity:1" />
    <path
       style="opacity:1;fill:#0000bf;fill-rule:evenodd;stroke:#000000;stroke-width:1px;stroke-linecap:butt;stroke-linejoin:miter;stroke-opacity:1;fill-opacity:1"
       d="M 171.625,286.5 C 172.44705,285.05666 179.16041,287.30956 178.5,289.375 C 177.63837,292.06977 171.58966,296.75 169.125,301.625 C 168.08472,295.61668 169.76568,289.76455 171.625,286.5 z "
       id="path13957"
       sodipodi:nodetypes="cscs" />
    <path
       sodipodi:nodetypes="cscs"
       id="path13959"
       d="M 167.625,281 C 169.0241,280.10473 171.46078,283.45825 171.625,285.125 C 171.9017,287.93338 164.83966,291.625 162.375,297.5 C 159.33472,290.36668 163.89068,283.38955 167.625,281 z "
       style="opacity:1;fill:#0000bf;fill-rule:evenodd;stroke:#000000;stroke-width:1px;stroke-linecap:butt;stroke-linejoin:miter;stroke-opacity:1;fill-opacity:1" />
    <path
       sodipodi:nodetypes="cscs"
       id="path13961"
       d="M 254,282.625 C 254.99787,281.29713 261.62666,285.89721 260.5,287.75 C 259.01337,290.19477 257.58966,295.625 255.875,301.375 C 252.33472,295.36668 251.64068,285.76455 254,282.625 z "
       style="opacity:1;fill:#0000bf;fill-rule:evenodd;stroke:#000000;stroke-width:1px;stroke-linecap:butt;stroke-linejoin:miter;stroke-opacity:1;fill-opacity:1" />
    <path
       style="opacity:1;fill:#0000bf;fill-rule:evenodd;stroke:#000000;stroke-width:1px;stroke-linecap:butt;stroke-linejoin:miter;stroke-opacity:1;fill-opacity:1"
       d="M 261.25,285.875 C 262.24787,284.54713 268.25166,288.02221 267.125,289.875 C 265.63837,292.31977 264.83966,296.375 263.125,302.125 C 259.58472,296.11668 258.89068,289.01455 261.25,285.875 z "
       id="path13963"
       sodipodi:nodetypes="cscs" />
    <path
       sodipodi:nodetypes="cscs"
       id="path13965"
       d="M 268.375,288.375 C 269.37287,287.04713 276.00166,289.64721 274.875,291.5 C 273.38837,293.94477 272.83966,298.125 271.125,303.875 C 267.58472,297.86668 266.01568,291.51455 268.375,288.375 z "
       style="opacity:1;fill:#0000bf;fill-rule:evenodd;stroke:#000000;stroke-width:1px;stroke-linecap:butt;stroke-linejoin:miter;stroke-opacity:1;fill-opacity:1" />
    <path
       style="opacity:1;fill:#0000bf;fill-rule:evenodd;stroke:#000000;stroke-width:1px;stroke-linecap:butt;stroke-linejoin:miter;stroke-opacity:1;fill-opacity:1"
       d="M 276,291 C 276.99787,289.67213 283.12666,292.39721 282,294.25 C 280.51337,296.69477 279.96466,298.75 278.25,304.5 C 274.70972,298.49168 273.64068,294.13955 276,291 z "
       id="path13967"
       sodipodi:nodetypes="cscs" />
    <path
       style="opacity:1;fill:#0000bf;fill-rule:evenodd;stroke:#000000;stroke-width:1px;stroke-linecap:butt;stroke-linejoin:miter;stroke-opacity:1;fill-opacity:1"
       d="M 345.5,279.25 C 346.49787,277.92213 353.00166,284.89721 351.875,286.75 C 350.38837,289.19477 345.33966,293.5 343.625,299.25 C 340.08472,291.61668 343.14068,282.38955 345.5,279.25 z "
       id="path13969"
       sodipodi:nodetypes="cscs" />
    <path
       sodipodi:nodetypes="cscs"
       id="path13971"
       d="M 352.625,284.875 C 353.62287,283.54713 359.62666,287.02221 358.5,288.875 C 357.01337,291.31977 354.96466,294.875 353.25,300.625 C 349.70972,294.61668 350.26568,288.01455 352.625,284.875 z "
       style="opacity:1;fill:#0000bf;fill-rule:evenodd;stroke:#000000;stroke-width:1px;stroke-linecap:butt;stroke-linejoin:miter;stroke-opacity:1;fill-opacity:1" />
    <path
       style="opacity:1;fill:#0000bf;fill-rule:evenodd;stroke:#000000;stroke-width:1px;stroke-linecap:butt;stroke-linejoin:miter;stroke-opacity:1;fill-opacity:1"
       d="M 359.75,287.375 C 360.74787,286.04713 367.37666,288.64721 366.25,290.5 C 364.76337,292.94477 363.21466,296 361.5,301.75 C 357.95972,295.74168 357.39068,290.51455 359.75,287.375 z "
       id="path13973"
       sodipodi:nodetypes="cscs" />
    <path
       sodipodi:nodetypes="cscs"
       id="path13975"
       d="M 367.375,290 C 368.37287,288.67213 374.50166,291.39721 373.375,293.25 C 371.88837,295.69477 371.58966,296.75 369.875,302.5 C 366.33472,296.49168 365.01568,293.13955 367.375,290 z "
       style="opacity:1;fill:#0000bf;fill-rule:evenodd;stroke:#000000;stroke-width:1px;stroke-linecap:butt;stroke-linejoin:miter;stroke-opacity:1;fill-opacity:1" />
  </g>
</svg>
