<?xml version="1.0" encoding="UTF-8"?>
<!DOCTYPE svg PUBLIC "-//W3C//DTD SVG 1.1//EN" "http://www.w3.org/Graphics/SVG/1.1/DTD/svg11.dtd">
<!-- Creator: CorelDRAW -->
<svg xmlns="http://www.w3.org/2000/svg" xml:space="preserve" width="500px" height="550px" shape-rendering="geometricPrecision" text-rendering="geometricPrecision" image-rendering="optimizeQuality" fill-rule="evenodd" clip-rule="evenodd"
viewBox="0 0 500 550"
 xmlns:xlink="http://www.w3.org/1999/xlink"
 xmlns:svg="http://www.w3.org/2000/svg"
 version="1.0">
 <g id="Layer_x0020_1">
  <metadata id="CorelCorpID_0Corel-Layer"/>
  <path id="path1937" fill="#BF9F4F" stroke="#0581ED" stroke-width="0.708662" d="M483.884 322.215c-17.8041,301.301 -446.067,299.289 -467.55,0.641764l-16.1235 -322.134 499.847 -0.117071 -16.1739 321.609z"/>
  <path fill="#0581ED" d="M155.569 337.909c-1.24583,-1.36063 -2.10784,-2.72126 -2.58605,-4.08189 -7.7641,-4.23043 -7.75928,-12.2973 2.02791,-16.1444l8.82426 -98.6412c-8.63292,1.04598 -11.1277,-6.5401 -1.4417,-11.537l-0.463748 -5.75603 3.92032 -2.58633 7.99541 -81.7444 -8.407 2.30003 0.125008 -4.8566 8.82227 -3.17395 9.40252 -100.864 7.19887 5.47087 2.87887 19.8661 10.3655 12.3786 2.01402 5.47427c10.1775,5.66901 31.8637,29.7519 47.7958,44.6276 6.52592,4.46032 5.85837,5.41956 13.5346,-3.74287l5.75859 5.75859 -6.88989 8.78939c4.88665,68.8085 13.9592,140.397 37.836,204.218 5.63528,4.14794 3.18359,7.6218 -0.423496,10.999l-126.118 5.47427 -2.30088 12.0918 -19.8695 -4.31915z"/>
  <polygon fill="#0581ED" points="199.086,328.936 199.374,351.666 203.402,352.529 202.539,328.936 "/>
  <polygon fill="#0581ED" points="214.911,328.649 217.5,353.392 220.953,353.968 218.363,328.649 "/>
  <polygon fill="#0581ED" points="228.146,327.786 231.023,354.831 234.763,356.557 231.886,326.347 "/>
  <path fill="#BF9F4F" d="M198.322 313.474c-9.00624,1.58797 -15.3488,3.75846 -16.7862,6.54322l16.6947 -0.684851 0.0915591 -5.85837zm30.8662 -2.97269c27.9306,-1.19225 58.7679,0.579402 64.5571,4.91244l-62.9983 2.5852 -1.55877 -7.49764zm-2.69263 0.124441c-3.23348,0.161291 -6.41594,0.363402 -9.50145,0.606614l0.815528 7.29723 9.19134 -0.377008 -0.505418 -7.52684zm-13.1573 0.918426c-3.77632,0.347528 -7.37292,0.761103 -10.6997,1.24129l0.199559 6.35811 10.6393 -0.436252 -0.139181 -7.16315z"/>
  <path fill="#BF9F4F" d="M251.451 111.998l-65.5994 65.3117c-0.86315,-0.767056 -0.86315,-3.83613 1.7263,-7.48063 18.6055,-22.0822 38.4577,-41.9823 60.1328,-58.6942 0.671244,-0.86315 4.79509,-0.287717 3.74032,0.86315z"/>
  <path fill="#0581ED" d="M313.995 349.242c-1.24583,-1.36063 1.63247,-22.5737 1.15427,-23.9343 -6.42104,-4.90167 -5.7447,-15.1741 2.31562,-18.1585l7.38567 -88.8588c-9.38608,3.2298 -13.1862,-2.93953 -11.0137,-6.07918 1.88476,-4.86652 10.8941,-11.3074 12.1655,-14.3756l13.047 -170.501c3.74202,-2.97128 7.10051,-2.49024 10.076,1.44284l2.30343 11.2346c18.0439,24.9523 40.6916,42.9018 58.449,59.3156 3.07332,-0.430866 0.967182,3.40555 9.21884,-4.60602l4.89544 7.19717 -5.45131 5.62451c3.44806,73.1243 14.2469,119.969 38.1237,183.79 11.7731,0.120189 11.0475,5.89607 2.45367,8.12183l-122.09 20.7233 0.000850394 23.8881 -23.0343 5.1755z"/>
  <path fill="#BF9F4F" d="M405.091 110.559l-56.9679 61.2837c-0.86315,-0.767056 -0.575433,-4.41156 2.01402,-8.05607 14.5174,-20.128 28.8306,-36.9349 51.2136,-54.0907 0.671244,-0.86315 4.79509,-0.287717 3.74032,0.86315z"/>
  <path fill="#BF9F4F" d="M346.367 306.231l-2.27112 0.263055c0.658489,-0.869386 1.35865,-1.7898 2.11918,-2.60816l0.151937 2.3451zm13.2568 -1.53666l-10.427 1.20869 -0.20948 -3.72501c3.0515,-0.801355 6.62655,-2.03754 9.61569,-2.83011l1.02076 5.34643zm13.8249 -1.60186l77.3901 -8.97024c-0.384378,-2.49336 -1.91906,-3.83556 -4.60347,-4.02803 -33.2447,-1.7932 -54.3991,1.28013 -73.3641,5.71493l0.577418 7.28334zm-3.56343 -6.57015c-2.43638,0.593292 -4.9887,1.20671 -7.39134,1.83232l0.569764 5.94114 7.2292 -0.837638 -0.407622 -6.93581z"/>
  <path fill="#0581ED" d="M361.285 315.938c-0.479055,10.1081 0.0479055,20.2161 1.29345,29.3182l2.73062 -1.00602c-1.62879,-9.72482 -1.38926,-18.8748 -1.29345,-28.7433l-2.73062 0.43115z"/>
  <path fill="#0581ED" d="M372.459 314.07c-0.0595276,9.91616 1.01849,18.9224 2.87433,27.3062l2.5869 -0.718583c-2.43751,-8.07222 -3.21619,-17.2701 -3.73663,-26.875l-1.7246 0.287433z"/>
  <path fill="#0581ED" d="M355.213 328.441c18.97,-6.12 37.9409,-11.7485 56.9118,-17.1023 -0.623055,4.3115 -1.62907,8.43137 -3.01805,12.3596 -17.7579,6.35925 -35.3696,12.1314 -52.744,16.9586 -0.766489,-3.88063 -1.14973,-7.9526 -1.14973,-12.2159z"/>
  <path fill="#0581ED" d="M346.194 317.95c-0.479055,10.1081 -0.0958111,20.9347 1.14973,30.0368l2.5869 -0.574866c-1.62879,-9.72482 -1.10183,-20.0245 -1.00602,-29.8931l-2.73062 0.43115z"/>
  <path fill="#0581ED" d="M47.0716 214.689l135.294 -186.82 0.287717 7.77289 -132.127 180.774c-2.49477,3.17367 -3.26268,1.25178 -3.45458,-1.72687z"/>
  <polygon fill="#0581ED" points="192.181,25.1076 338.917,44.3846 338.341,48.1249 192.181,29.1356 "/>
  <path fill="#0581ED" d="M158.185 122.574l-114.568 110.538 -4.60573 -2.87858 -10.3629 12.0901c30.8254,9.83481 57.4521,31.4243 80.6004,62.7531 5.77673,-58.4901 19.2827,-118.099 54.1174,-180.775l-5.18145 -1.72715z"/>
  <path fill="#0581ED" d="M104.602 298.606l20.6569 29.8256c1.16731,1.45502 -1.50718,2.70369 -3.22158,3.05887l12.5436 4.67462 -25.9073 -35.6944 -4.07169 -1.86463z"/>
  <path fill="#0581ED" d="M28.7756 241.638l-10.381 7.34145 39.7131 55.016c13.2472,22.9587 10.8907,72.1202 28.7362,109.421 11.8196,24.7059 33.9562,45.3402 70.1286,45.6438 80.6398,1.43858 159.553,1.15087 239.33,1.7263 11.2629,1.01622 20.7828,0.680032 26.8243,-4.76561 8.27915,-7.46278 11.0387,-22.5017 12.0379,-38.3372 -1.6081,-9.45326 -11.4146,-9.288 -13.5941,-31.4394 0.341858,-8.7446 27.0663,-22.6571 31.5457,-36.2707l19.4454 -53.3673c-143.09,87.0585 -318.319,75.5431 -401.223,1.02501l-42.5636 -55.9931z"/>
  <polygon fill="#BF9F4F" points="194.771,360.585 194.771,366.627 243.682,370.655 241.956,364.326 237.353,364.038 236.777,358.859 231.598,358.571 231.023,363.175 224.118,362.312 222.391,357.708 216.349,356.845 215.774,361.736 205.992,361.448 204.553,355.694 199.086,354.543 198.799,360.585 "/>
  <polygon fill="#BF9F4F" points="342.945,367.203 386.102,357.708 385.527,349.652 380.923,350.227 380.06,341.596 374.594,342.459 374.594,353.68 368.264,354.543 367.113,345.049 362.222,346.199 361.646,355.982 352.152,357.708 351.864,349.364 345.534,349.94 345.246,360.01 341.794,360.585 "/>
  <path fill="#BF9F4F" d="M73.901 309.325c9.89774,48.9399 12.9719,94.1948 34.244,118.324 13.011,14.7589 37.6308,22.9774 68.4295,24.9208 31.9842,2.01827 84.5952,1.21181 126.037,2.26063 12.725,0.322016 34.7071,-3.60369 46.0477,-10.4151 25.1042,-15.0778 32.1497,-24.3292 55.9273,-44.0141l-0.356882 -4.17629c-16.3758,12.8217 -29.8284,25.8063 -50.2206,38.9466 -14.1857,9.1406 -34.1215,13.7225 -47.7406,14.201 -46.1254,1.62057 -86.3915,1.68066 -129.162,-1.87342 -24.5387,-2.03896 -42.2881,-3.47017 -59.798,-17.9932 -13.928,-11.552 -20.2462,-26.1119 -24.4967,-43.2261 48.4983,41.6526 176.895,66.0597 295.779,14.5715l-3.08353 -1.728c-112.299,41.5778 -225.893,32.8289 -293.595,-19.7719 -2.66854,-9.96832 -4.57002,-20.3199 -5.70331,-31.055 73.5857,54.5712 210.218,53.2894 353.823,12.7199l-1.85273 -3.0189c-145.835,35.4246 -270.203,41.2331 -351.971,-15.4415 -2.95767,-5.08054 -0.276378,-8.72476 -12.3069,-33.2314z"/>
  <polygon fill="#BF9F4F" points="401.639,419.279 399.049,432.514 403.365,433.09 405.667,419.279 "/>
  <polygon fill="#BF9F4F" points="405.379,393.385 403.077,409.497 407.681,409.785 409.983,393.385 "/>
  <polygon fill="#BF9F4F" points="395.309,453.805 397.611,443.16 402.214,443.735 399.625,454.093 "/>
 </g>
</svg>
