<?xml version="1.0" encoding="UTF-8"?>
<!DOCTYPE svg PUBLIC "-//W3C//DTD SVG 1.1//EN" "http://www.w3.org/Graphics/SVG/1.1/DTD/svg11.dtd">
<!-- Creator: CorelDRAW -->
<svg xmlns="http://www.w3.org/2000/svg" xml:space="preserve" width="500px" height="569px" shape-rendering="geometricPrecision" text-rendering="geometricPrecision" image-rendering="optimizeQuality" fill-rule="evenodd" clip-rule="evenodd"
viewBox="0 0 500 569"
 xmlns:xlink="http://www.w3.org/1999/xlink"
 xmlns:svg="http://www.w3.org/2000/svg"
 version="1.0">
 <g id="Layer_x0020_1">
  <metadata id="CorelCorpID_0Corel-Layer"/>
  <path id="path1937" fill="#BF9F4F" stroke="black" stroke-width="1.98425" d="M0.989859 1.41137l498.02 -0.117354c-5.88529,121.478 -2.93556,332.029 -6.69884,345.799 -28.8686,304.47 -458.488,280.255 -474.947,-0.432567 -3.96964,-8.5989 -9.11821,-223.437 -16.3743,-345.249z"/>
  <path fill="#F00000" stroke="#F00000" stroke-width="0.992126" d="M165.798 526.014c4.26501,-4.71203 17.1927,-15.2975 21.0308,-30.4631 4.32794,-7.13055 31.4742,-3.50674 28.5163,3.58073 -16.8747,22.1159 -34.4149,29.6189 -49.5471,26.8824z"/>
  <path fill="#F00000" stroke="#F00000" stroke-width="0.992126" d="M342.026 527.475c4.26501,-4.71203 22.161,-23.4811 21.9076,-33.9704 4.62047,-13.8524 30.5975,0.000566929 27.6395,7.08804 -16.8747,22.1159 -34.4149,29.6189 -49.5471,26.8824z"/>
  <path fill="#F00000" d="M149.473 467.749c-8.80697,-14.1661 -22.8277,-26.5527 -36.7665,-33.6549 -2.94605,-3.82847 20.9719,-21.5051 23.0445,-18.4269 13.9003,22.4926 17.3772,39.2494 13.722,52.0818z"/>
  <path fill="#F00000" stroke="#F00000" stroke-width="0.992126" d="M249.675 516.954c4.26501,-4.71203 22.161,-23.4811 21.9076,-33.9704 4.62047,-13.8524 30.5975,0.000566929 27.6395,7.08804 -16.8747,22.1159 -34.4149,29.6189 -49.5471,26.8824z"/>
  <path fill="black" d="M235.503 333.278c3.95603,9.99893 41.7274,-10.1713 72.5758,-24.2994 -1.31924,17.4767 3.46536,21.0181 7.71534,28.7181 3.5212,6.37994 5.4,12.6536 11.804,16.3293 12.8339,7.36611 24.2762,10.2699 23.6027,22.2693 2.18551,8.16123 -24.431,47.5674 -40.2426,63.3841 -15.2898,15.2949 -25.179,20.598 -38.3944,37.158 -1.5052,8.61959 11.679,9.85607 20.4452,9.82999 8.31147,-0.0246614 4.27408,19.677 28.5727,3.79588 -10.8145,-1.27956 -16.611,-3.07786 -16.2099,-15.6773 -0.779811,-9.96775 23.5154,-33.9457 44.585,-50.6914 8.89115,-8.41068 29.0693,-20.0716 42.7944,-29.0271 7.18895,-4.69077 14.017,-4.57455 13.5388,-11.1926 0.064063,-6.57865 -5.04737,-8.89541 -4.37443,-16.0832 4.56293,3.38995 9.0601,2.99367 12.8999,7.25103 7.51408,8.33131 3.78312,22.9601 1.55906,35.4694 -5.9709,9.27695 -8.68763,26.3174 -17.1675,37.7351 -16.189,21.7982 -35.0062,33.4086 -33.1903,41.1829 4.36195,0.325134 6.46952,6.40432 10.3232,7.13679 10.7612,-3.30321 19.9247,-1.00517 19.7861,16.2346 13.3237,-15.8675 -3.89764,-29.6524 8.20715,-49.22 30.1054,-48.6661 65.7947,-79.8024 66.2055,-90.7464 0.377008,-10.0432 -18.5468,-2.18976 -18.8626,-39.7083 -0.11452,-13.6083 1.5925,-21.507 4.92236,-31.3248 3.16233,-9.32372 1.22117,-23.2336 -3.48151,-35.6995 5.4618,5.13185 6.94715,12.9773 6.68637,38.6289 21.4838,-21.8614 1.60044,-62.2406 -31.7463,-81.269 -33.4194,-20.3919 -87.795,-23.868 -95.7535,-26.8291 -12.289,-4.57229 -21.9039,-13.013 -30.8047,-21.1331 -1.61263,-1.47147 3.15411,-2.89332 6.12426,-5.21235 -3.42255,-2.92791 -14.1228,-1.88334 -15.6164,-3.29386 -1.81021,-1.70986 1.90885,-4.00621 3.98041,-6.14892 -2.19033,-1.53383 -14.5539,-1.69767 -16.8687,-2.79666 -4.21144,-1.99899 -0.458362,-3.57874 0.267591,-7.68444 -4.35232,-1.548 -20.7649,-0.193606 -25.0401,-0.889796 -1.5171,-0.247181 5.20044,-5.68574 3.71622,-5.94 -8.01496,-1.37367 -23.7473,2.6674 -30.6046,5.47399 -8.44243,0.199843 -33.577,-42.2725 -53.0031,-49.032 6.45761,-5.46803 5.78013,-6.94772 6.92873,-7.06848 28.8836,-1.9508 85.8827,7.26208 100.933,6.79522 26.3251,-0.816662 94.1219,-44.6032 67.3563,-70.6386 -2.44063,8.85232 -5.78183,15.927 -11.3394,16.9863 1.05676,-11.2745 -0.882142,-21.2094 -13.0742,-25.4687 6.19002,26.6961 -13.0346,35.1627 -30.7126,34.3863 -4.47959,-12.1618 25.9657,-13.7296 12.121,-34.2204 -7.13651,10.3785 -13.2579,6.0755 -19.5656,10.8051 -12.6635,9.4955 -11.7054,22.991 -23.8581,16.3587 -1.10296,-12.8387 3.76526,-14.0244 18.7421,-30.2749 -24.372,-4.24687 -42.789,44.4283 -70.0711,40.705 -8.82284,-14.8082 20.3349,-19.0831 30.2162,-40.9054 -26.3435,-0.56778 -46.1602,31.4019 -57.5986,28.2042 -5.07515,-8.27547 10.3073,-20.6422 15.461,-30.9631 -14.2126,-4.8566 -38.812,35.2205 -61.2074,34.748 -24.2348,0.0643465 -26.1241,-21.5223 -36.5981,-33.1968 -8.74659,10.7277 -4.30498,19.9332 6.05509,35.106 -2.60249,2.57443 -7.83496,4.56435 -13.0674,5.09301 -18.7855,-0.66926 -24.6453,-20.7162 -27.7243,-40.0125 -23.4332,22.0955 7.84602,67.3779 62.4331,61.2233l2.96873 5.95134c-65.2873,5.851 -102.631,24.2082 -108.384,36.4286 -6.81506,24.605 -7.09739,36.3895 -0.875056,39.1028 2.52142,1.39918 -1.00857,5.03122 3.13824,3.85484 5.72655,-4.18932 8.53059,-3.31285 11.0424,-3.50759 3.15269,-0.560977 7.82193,3.49909 10.8147,2.99792 8.97931,-1.50406 13.3974,-13.087 21.7602,-13.235 13.0493,16.5087 3.97673,26.3205 4.1967,39.2264 0.214866,12.6057 9.11226,26.8166 8.59635,43.562 4.2446,-4.88325 6.15147,-24.9636 11.5654,-27.2166 1.86747,1.36828 2.85817,4.49036 3.84917,7.61244 6.70848,-7.67651 10.2419,-33.8675 17.1079,-35.9737 8.95919,10.5968 3.96312,14.3263 -0.733323,22.1831 -2.81792,4.71373 -3.56287,17.8433 -4.43395,24.2014 6.89018,-1.74983 7.38822,-4.1091 10.5055,-5.63556 -4.34608,7.87238 -10.3034,27.2965 -9.49947,35.0073 7.98067,-2.39329 4.5754,-6.40574 13.3965,-10.5766 -1.46466,12.6904 -4.40249,19.8405 -4.04022,28.4275 6.61833,-4.87276 5.39433,-5.05729 11.1359,-9.93005 -0.806174,16.7346 -1.62397,17.2253 -1.41931,29.3451 4.68596,-1.14265 4.1967,-9.12898 10.6364,-8.22586 -0.663024,3.02825 -1.0165,5.88671 -1.04258,8.63887 -28.2141,7.64646 -75.6298,28.6441 -76.2058,40.7126 -0.291685,7.08804 23.7679,56.5798 38.2853,77.5659 5.09981,7.37178 1.19509,27.4504 6.57213,29.7337 3.93988,3.11754 18.5236,-27.4901 37.7181,-23.2676 -2.54239,-12.5612 -26.6431,-7.37065 -35.9813,-18.9893 -7.92936,-9.86571 -7.68955,-36.8983 -11.6016,-52.0274l1.45843 -3.08183c2.58917,0.85578 5.66533,1.25178 9.38013,0.997796 5.78041,1.23902 8.24429,-4.15503 14.5775,-3.1921 2.4772,0.0566929 7.59005,1.46239 15.5197,2.27282 8.24287,0.842741 22.9076,-3.36246 29.7082,-7.25585l4.62076 1.36545c4.36762,12.8225 11.1232,28.0154 17.377,37.7796 -3.06936,8.73752 0.997512,31.3328 6.50211,46.3062l1.20784 59.542c-7.53874,3.40555 -13.2752,9.72171 -13.0201,15.4661 7.07925,1.04117 7.26067,2.64558 12.6709,4.25055 17.9246,-9.10744 22.5907,16.2709 31.2429,6.57411 -10.4321,-3.20117 -4.93285,-21.3078 -14.936,-20.9004l2.49761 -68.1387c5.96693,-8.60485 4.74888,-19.5117 2.9211,-32.7926 -1.42328,-19.2042 4.52296,-36.5652 14.8176,-49.5199z"/>
  <path fill="#CCCCCC" d="M376.573 399.156c5.74129,-3.9617 13.0816,-8.16322 22.5746,-12.7341 2.44517,-9.61852 -6.06955,-8.58161 -7.27767,-15.1557 0.913323,7.50955 6.6977,8.62583 4.87106,14.3087 -8.44782,3.91833 -15.069,8.44526 -20.1679,13.5811z"/>
  <path fill="#CCCCCC" d="M168.641 134.974c-0.696473,13.1774 -12.2919,24.5608 -21.7451,29.1637 -13.212,6.43266 -15.0327,10.3728 -17.9887,14.4295 4.30668,-1.84564 8.34095,-9.68882 16.8781,-11.1572 7.25244,-1.24724 25.996,-18.0587 22.8558,-32.436z"/>
  <path fill="#CCCCCC" d="M48.4954 139.682c-4.79821,5.52133 -6.76999,10.4434 -7.13424,14.4624 5.30901,-5.25855 12.445,-5.95049 15.9276,-15.7757l-1.82665 -0.608882c-1.62369,4.76958 -4.87106,7.91547 -9.74212,9.43767l2.7754 -7.5155z"/>
  <path fill="none" stroke="#BF9F4F" stroke-width="0.368504" d="M109.427 101.456c3.01975,-0.584504 4.28627,-1.31528 5.84504,-5.40681"/>
  <path fill="#CCCCCC" d="M160.163 106.696c23.4054,-6.47462 31.7775,-20.363 36.0868,-38.3145 -15.3927,-1.92529 -26.4172,-0.785764 -36.942,7.6303 -3.46139,2.76775 -9.58309,4.43339 -13.7021,9.81156 -2.38762,3.11754 -7.15323,3.27969 -10.5758,6.2521 2.42589,-0.5743 11.257,-2.85449 14.0584,-7.5223 0.526111,-0.87704 8.77352,-3.5178 12.7395,-6.768 11.8372,-9.70073 27.1091,-8.76983 31.8507,-7.00271 -2.9503,16.5396 -15.645,26.5819 -33.5154,35.9136z"/>
  <path fill="#CCCCCC" d="M194.423 70.8171c-6.08259,3.1748 -14.9587,4.6338 -20.7972,8.50536 -11.1467,7.39106 -9.53575,16.2233 -33.2022,20.1149 22.0847,1.1588 18.7554,-6.59764 32.5911,-17.3027 5.41418,-4.18876 15.1552,-3.44325 21.4084,-11.3176z"/>
  <line fill="none" stroke="#BF9F4F" stroke-width="0.368504" x1="127.839" y1="139.303" x2="126.962" y2= "143.394" />
  <path fill="#CCCCCC" d="M85.2974 182.208c0.329386,-9.38693 -1.95336,-19.6362 -7.30659,-29.8352l2.43553 0.304441c4.6681,7.9407 6.6977,17.5303 4.87106,29.5308z"/>
  <path fill="#CCCCCC" d="M100.824 179.772c0.329386,-9.38693 -6.21581,-25.7253 -11.5688,-35.924l2.43553 0.304441c4.6681,7.9407 10.9599,23.6191 9.13323,35.6196z"/>
  <path fill="#CCCCCC" d="M106.304 176.728c0.329386,-9.38665 -2.86696,-23.8986 -8.21991,-34.0974l2.43553 0.304441c4.6681,7.9407 7.61103,21.7925 5.78438,33.793z"/>
  <path fill="#CCCCCC" d="M89.5595 163.942c-0.431717,-9.38693 -1.59902,-7.45909 -6.08882,-17.6576l2.43553 0.304441c3.13966,6.41226 2.12712,5.65342 3.65329,17.3531z"/>
  <path fill="#CCCCCC" d="M113.61 173.684c0.689386,-9.56665 2.03839,-13.1085 -4.87106,-22.5286l2.43553 0.304441c4.6681,7.9407 4.26218,10.2237 2.43553,22.2242z"/>
  <path fill="#CCCCCC" d="M121.526 164.246c-2.35531,-6.92816 -1.92019,-8.64397 -5.1755,-14.0043l2.43553 0.304441c1.92813,4.49036 1.82665,4.94646 2.73997,13.6998z"/>
  <path fill="#CCCCCC" d="M127.615 154.504c-1.39153,-2.66627 -4.50822,-3.77348 -8.21991,-9.13323 3.45232,0.365953 6.58347,2.41342 8.21991,9.13323z"/>
  <path fill="#CCCCCC" d="M135.53 152.068c-1.39153,-2.66627 -6.03014,-5.90457 -9.74212,-11.2643 3.14646,0.366236 7.596,4.54422 9.74212,11.2643z"/>
  <path fill="#CCCCCC" d="M142.532 144.762c-1.39153,-2.66627 -4.50822,-3.77348 -8.21991,-9.13323 3.14646,0.366236 6.0738,2.41314 8.21991,9.13323z"/>
  <path fill="#CCCCCC" d="M26.8447 135.324c5.58114,23.6449 2.33376,13.3954 -0.913323,9.43767l-2.73997 1.82665c9.74212,15.7295 9.74212,-1.11628 6.39326,-14.0043l-2.73997 2.73997z"/>
  <path fill="#CCCCCC" d="M94.735 99.7045l10.0466 0 2.13109 4.26218 11.2643 -7.00215c-10.8584,1.92813 -11.5688,-2.53701 -13.3954,-7.91547l-3.04441 7.00215 -7.00215 3.65329z"/>
  <path fill="#CCCCCC" d="M167.496 326.513c-5.27698,-2.43553 -9.33619,-12.1776 -12.1776,-29.2263l-1.21776 3.04441c1.21776,15.2221 4.36366,23.239 11.2643,29.5308l2.13109 -3.34885z"/>
  <path fill="#CCCCCC" d="M150.752 312.204c-5.27698,-2.43553 -4.1607,-13.6998 -7.00215,-30.7486l-2.13109 3.34885c1.21776,15.2221 1.0148,23.8479 7.91547,30.1397l1.21776 -2.73997z"/>
  <path fill="#CCCCCC" d="M79.8174 324.382c4.1607,-2.43553 6.6977,-6.08882 7.61103,-10.9599 0.710363,6.49474 -1.82665,10.148 -7.61103,10.9599z"/>
  <path fill="#CCCCCC" d="M98.9972 342.953c-0.811843,-4.87106 -3.24737,-8.11843 -7.30659,-9.74212l2.43553 -0.304441c3.34885,0.405921 5.47994,2.84145 6.39326,7.30659l-1.52221 2.73997z"/>
  <path fill="#CCCCCC" d="M127.31 190.428c-4.26444,5.27329 -7.81541,11.9727 -11.2643,18.8753 1.62369,-7.81399 5.27698,-15.2221 10.9599,-22.2242l0.304441 3.34885z"/>
  <path fill="#CCCCCC" d="M126.092 222.394c-5.07629,6.08542 -4.6698,15.2204 -7.30659,21.3109 0.557575,-6.74788 0.253134,-16.5912 7.30659,-24.9642l0 3.65329z"/>
  <path fill="#CCCCCC" d="M133.095 238.53c-5.07629,6.08542 -4.6698,15.2204 -7.30659,21.3109 0.557575,-6.74788 0.253134,-16.5912 7.30659,-24.9642l0 3.65329z"/>
  <path fill="#CCCCCC" d="M138.879 260.145c-5.07629,6.08542 -1.62539,13.6981 -4.26218,19.7887 0.557575,-6.74788 -2.79128,-15.069 4.26218,-23.442l0 3.65329z"/>
  <polygon fill="#CCCCCC" points="176.63,333.211 159.885,281.76 159.277,288.458 173.585,331.689 "/>
  <polygon fill="#CCCCCC" points="186.372,347.824 195.505,363.959 193.678,366.09 185.763,349.651 "/>
  <path fill="#CCCCCC" d="M204.638 445.854l0 -34.4018c-0.710363,-4.97254 -6.90066,-9.64063 -5.78438,-24.9642l-2.73997 -0.304441c-2.2578,17.125 4.79537,21.5393 5.47994,26.4864l3.04441 33.1841z"/>
  <path fill="#CCCCCC" d="M416.834 421.194c1.00261,-8.21934 9.04451,-21.9192 3.34885,-45.6662 6.2161,19.1035 4.23695,33.8686 -3.34885,45.6662z"/>
  <path fill="#CCCCCC" d="M364.165 333.82c-4.05921,-20.1946 -21.2094,-33.387 -7.61103,-63.3237 -8.77238,16.6527 -10.4238,36.1103 7.61103,63.3237z"/>
  <path fill="#CCCCCC" d="M385.172 344.171c-10.1489,-8.72788 -15.8318,-17.4549 -19.4842,-26.1819 -0.354898,9.48841 5.22596,18.3169 19.4842,26.1819z"/>
  <path fill="#CCCCCC" d="M445.756 397.143c3.75477,-13.6998 21.8183,-21.6153 14.0043,-25.5731 5.02328,-0.684851 4.08246,2.82558 2.27736,6.56306 -3.11131,6.44202 -9.71093,7.28901 -16.2816,19.01z"/>
  <path fill="#CCCCCC" d="M248.782 149.633l-21.0064 3.95773c7.45881,0.96463 14.3592,-0.862016 21.0064,-3.95773z"/>
  <path fill="#CCCCCC" d="M270.702 153.286l-21.0064 3.95773c7.45881,0.96463 14.3592,-0.862016 21.0064,-3.95773z"/>
  <path fill="#CCCCCC" d="M285.62 163.333l-18.2665 3.95773c8.06769,0.0513071 11.3148,-1.16646 18.2665,-3.95773z"/>
  <path fill="#CCCCCC" d="M292.622 172.466l-10.6554 0c3.95773,1.62369 7.50955,1.62369 10.6554,0z"/>
  <path fill="#CCCCCC" d="M293.535 182.208l-10.6554 0c3.95773,1.62369 7.50955,1.62369 10.6554,0z"/>
  <path fill="#CCCCCC" d="M295.666 193.168l-10.6554 0c3.95773,1.62369 7.50955,1.62369 10.6554,0z"/>
  <path fill="#CCCCCC" d="M293.535 202.91l-10.351 -2.13109c3.95773,1.62369 5.6829,2.84145 10.351,2.13109z"/>
  <path fill="#CCCCCC" d="M281.662 221.785l-10.351 -3.65329c2.73997,2.84145 6.29178,5.27698 10.351,3.65329z"/>
  <path fill="#CCCCCC" d="M276.486 231.527l-10.351 -3.65329c2.73997,2.84145 6.29178,5.27698 10.351,3.65329z"/>
  <path fill="#CCCCCC" d="M274.051 243.401l-10.351 -3.65329c3.14561,2.43553 6.69742,4.87106 10.351,3.65329z"/>
  <path fill="#CCCCCC" d="M267.049 255.883l-10.351 -3.65329c3.04554,2.23002 6.8006,4.25792 10.351,3.65329z"/>
  <path fill="#CCCCCC" d="M239.953 286.631l-7.30659 -6.39326c1.52221,2.84145 2.94293,5.58142 7.30659,6.39326z"/>
  <path fill="#CCCCCC" d="M252.131 273.54l-7.30659 -6.39326c1.52221,2.84145 2.94293,5.58142 7.30659,6.39326z"/>
  <path fill="none" stroke="#CCCCCC" stroke-width="0.992126" d="M442.711 339.3c-1.67329,3.55153 -4.61622,7.10306 -7.91547,10.6554"/>
  <path fill="#CCCCCC" d="M334.026 422.716c-16.4903,16.9475 -33.2343,33.387 -50.5372,48.7106l-0.608882 4.26218 8.52435 1.52221 -6.08882 -3.34885c-0.00255118,-2.71616 16.1175,-15.3865 23.7467,-23.3663 8.64624,-9.04309 16.9447,-18.3186 24.9639,-27.7798z"/>
  <path fill="#CCCCCC" d="M337.679 419.063c15.3125,-22.2792 24.4018,-42.7802 11.2643,-56.9305 15.8865,9.38438 7.76693,30.4926 -11.2643,56.9305z"/>
  <path fill="#CCCCCC" d="M82.8618 65.6071c-7.28136,-7.15437 -13.1165,-17.2009 -17.962,-29.2263 2.13109,17.5561 12.1776,25.6745 17.962,29.2263z"/>
  <path fill="#CCCCCC" d="M114.219 52.5161c-7.28136,-7.15437 -8.24542,-13.8521 -13.091,-25.8775 2.13109,17.5561 7.30659,22.3257 13.091,25.8775z"/>
  <path fill="#CCCCCC" d="M165.67 47.3406l-17.3531 7.30659c6.13956,-0.659055 12.0254,-2.58718 17.3531,-7.30659z"/>
  <path fill="#CCCCCC" d="M308.453 309.16c10.6554,-6.49474 22.5286,-10.554 35.6196,-12.1776 -2.44914,-24.6475 4.98416,-42.533 17.962,-56.626 -28.6175,42.3173 -14.8161,100.161 28.6175,115.079l11.5688 13.091 0.304441 6.08882 -14.9176 -18.2665c-24.0772,-5.89777 -37.6248,-26.8793 -42.9262,-56.3216 -7.56822,-0.207213 -14.5984,2.06192 -19.7201,3.66775l21.956 0.938268c-14.9533,-0.317197 -28.3839,1.59817 -38.4645,4.52721z"/>
  <path fill="#CCCCCC" d="M226.558 280.847c8.67685,7.88769 15.7802,25.8421 7.61103,56.3216 -6.45648,7.27059 -10.0196,17.4334 -11.6045,29.5756 -2.49619,20.4395 2.60051,25.5254 0.517607,36.1735 -1.23477,6.31333 -5.24268,13.0972 -6.57071,39.5875 -0.179717,-28.1115 2.91458,-28.7178 4.82514,-40.5749 1.45758,-9.04508 -1.84309,-24.1268 -0.201543,-35.7307 1.51257,-10.694 7.09059,-24.9486 11.2073,-32.9888 5.06183,-17.8228 4.57966,-35.3537 -5.78438,-52.3639z"/>
  <path fill="#CCCCCC" d="M466.762 366.699c-14.6384,-12.9005 -12.8889,-20.4809 -13.5882,-35.9019 -0.313512,-6.91739 -0.0291969,-21.2 6.58602,-28.944 0.228756,-22.6556 -1.95336,-33.26 -5.78438,-35.6196 3.29868,12.9387 4.82117,25.6244 2.43553,37.7507 -1.8034,1.8034 -4.58788,14.5888 -4.68794,28.298 -0.0972284,13.2871 1.94797,28.0332 15.0389,34.4169z"/>
  <path fill="#CCCCCC" d="M82.8618 65.6071c-7.28136,-7.15437 -13.1165,-17.2009 -17.962,-29.2263 2.13109,17.5561 12.1776,25.6745 17.962,29.2263z"/>
  <path fill="#CCCCCC" d="M283.247 213.406l-7.07018 -4.06488c1.9508,2.1668 4.30753,3.52177 7.07018,4.06488z"/>
  <path fill="#CCCCCC" d="M261.225 172.248l-10.2047 4.08189c4.21342,-0.142866 7.615,-1.5035 10.2047,-4.08189z"/>
  <line fill="none" stroke="#CCCCCC" stroke-width="0.992126" x1="257.143" y1="193.678" x2="266.328" y2= "193.678" />
  <path fill="#CCCCCC" d="M111.216 428.387c-1.30621,-2.00353 -1.39465,-13.7492 -11.2252,-22.4504 11.0483,5.96126 9.61456,15.8803 11.2252,22.4504z"/>
  <path fill="#CCCCCC" d="M268.369 183.473l-11.2252 3.06142c2.10473,-0.574016 4.51418,-0.234992 6.61862,-0.808725 1.63673,-0.446457 2.96958,-1.80624 4.60658,-2.25269z"/>
  <path fill="none" stroke="#CCCCCC" stroke-width="0.992126" d="M263.266 203.883l-5.10236 -1.02047c1.29487,0.746079 2.99566,1.08624 5.10236,1.02047z"/>
  <path fill="#CCCCCC" stroke="#CCCCCC" stroke-width="0.992126" d="M326.535 48.771c8.93594,-11.9787 2.95427,-13.6063 3.06142,-20.4095 4.25651,6.80315 3.23603,13.6063 -3.06142,20.4095z"/>
  <path fill="white" d="M271.92 491.52l0.304441 -11.5688c14.6152,12.1411 24.0219,0.954709 27.7041,12.1776 -10.0466,-6.49616 -15.5273,0.300756 -23.7464,-6.6977 -0.12189,2.67931 -2.4086,4.27578 -4.26218,6.08882z"/>
  <path fill="white" d="M367.514 496.391l3.04441 2.43553 -8.82879 10.9599c1.27843,-4.8977 1.90828,-10.2294 5.78438,-13.3954z"/>
  <path fill="white" d="M366.601 489.389l0 4.26218 9.43767 7.30659c4.97254,-3.04441 10.8584,-3.04441 14.9176,0.913323l2.43553 -2.13109c-3.04441,-5.47994 -8.93027,-6.49474 -17.6576,-3.04441 -2.53531,-3.4543 -5.78353,-5.48249 -9.13323,-7.30659z"/>
  <path fill="white" d="M187.894 493.042l1.52221 3.04441 8.82879 4.87106c7.50955,-4.46514 13.8013,-3.65329 18.8753,2.43553 -2.33405,-7.50955 -8.72731,-9.33619 -19.1798,-5.47994l-10.0466 -4.87106z"/>
  <polygon fill="#CCCCCC" points="178.152,517.093 187.894,501.262 189.416,503.393 "/>
  <path fill="white" d="M135.53 415.714l-21.9198 20.0931c2.91657,-7.30517 10.0701,-13.5964 21.9198,-20.0931z"/>
  <polygon fill="white" points="137.357,440.07 142.228,440.07 148.012,451.334 "/>
  <polygon fill="white" points="130.659,443.723 135.226,449.203 134.008,443.723 "/>
  <path fill="#CCCCCC" d="M467.371 293.938c5.62507,-25.833 -8.43591,-45.3152 -28.0086,-63.0193 24.3048,19.1353 36.178,39.8242 28.0086,63.0193z"/>
 </g>
</svg>
