<?xml version="1.0" encoding="UTF-8" standalone="no"?>
<!-- Created with Inkscape (http://www.inkscape.org/) -->
<svg
   xmlns:dc="http://purl.org/dc/elements/1.1/"
   xmlns:cc="http://web.resource.org/cc/"
   xmlns:rdf="http://www.w3.org/1999/02/22-rdf-syntax-ns#"
   xmlns:svg="http://www.w3.org/2000/svg"
   xmlns="http://www.w3.org/2000/svg"
   xmlns:sodipodi="http://sodipodi.sourceforge.net/DTD/sodipodi-0.dtd"
   xmlns:inkscape="http://www.inkscape.org/namespaces/inkscape"
   width="500"
   height="585"
   id="svg1901"
   sodipodi:version="0.32"
   inkscape:version="0.45.1"
   sodipodi:docname="Hollola.vaakuna.svg"
   sodipodi:docbase="/"
   version="1.0"
   inkscape:output_extension="org.inkscape.output.svg.inkscape">
  <defs
     id="defs1903" />
  <sodipodi:namedview
     id="base"
     pagecolor="#ffffff"
     bordercolor="#666666"
     borderopacity="1.0"
     inkscape:pageopacity="0.0"
     inkscape:pageshadow="2"
     inkscape:zoom="1"
     inkscape:cx="435.11502"
     inkscape:cy="270.94111"
     inkscape:document-units="px"
     inkscape:current-layer="layer1"
     gridtolerance="10000"
     inkscape:window-width="1272"
     inkscape:window-height="970"
     inkscape:window-x="-1"
     inkscape:window-y="-1"
     width="500px"
     height="585px"
     showguides="true"
     inkscape:guide-bbox="true" />
  <metadata
     id="metadata1906">
    <rdf:RDF>
      <cc:Work
         rdf:about="">
        <dc:format>image/svg+xml</dc:format>
        <dc:type
           rdf:resource="http://purl.org/dc/dcmitype/StillImage" />
        <dc:identifier>http://commons.wikimedia.org/wiki/Image:Hollola.vaakuna.png</dc:identifier>
        <dc:title>Hollolan vaakuna, Hollola vapen, Coat of arms of Hollola</dc:title>
        <dc:date>2007-09-07</dc:date>
        <dc:creator>
          <cc:Agent>
            <dc:title>Hippophaë, Wikipedia</dc:title>
          </cc:Agent>
        </dc:creator>
        <dc:subject>
          <rdf:Bag>
            <rdf:li>Hollola</rdf:li>
            <rdf:li>vaakuna</rdf:li>
            <rdf:li>vapen</rdf:li>
            <rdf:li>coat of arms</rdf:li>
          </rdf:Bag>
        </dc:subject>
        <cc:license
           rdf:resource="http://web.resource.org/cc/PublicDomain" />
      </cc:Work>
      <cc:License
         rdf:about="http://web.resource.org/cc/PublicDomain">
        <cc:permits
           rdf:resource="http://web.resource.org/cc/Reproduction" />
        <cc:permits
           rdf:resource="http://web.resource.org/cc/Distribution" />
        <cc:permits
           rdf:resource="http://web.resource.org/cc/DerivativeWorks" />
      </cc:License>
    </rdf:RDF>
  </metadata>
  <g
     inkscape:label="Taso 1"
     inkscape:groupmode="layer"
     id="layer1"
     style="opacity:1">
    <path
       style="fill:#df0000;fill-rule:evenodd;stroke:#000000;stroke-width:1px;stroke-linecap:butt;stroke-linejoin:miter;stroke-opacity:1;fill-opacity:1"
       d="M 0.5,0.5 L 499.5,0.5 L 454,417 C 443,513 355,584.5 250,584.5 C 145,584.5 57,513 46,417 L 0.5,0.5 z "
       id="path2167"
       sodipodi:nodetypes="ccsccc" />
    <path
       sodipodi:nodetypes="cssss"
       id="path13941"
       d="M 167.00853,519.33331 C 224.77235,459.76357 158.34374,441.86766 233.67518,340.99998 C 235.20027,338.9579 232.3457,335.92102 229.34186,339.66665 C 137.3484,454.3775 219.91177,464.67201 150.67519,513.66665 C 146.84422,516.3776 162.94859,523.52018 167.00853,519.33331 z "
       style="opacity:1;fill:#bf9f4f;fill-opacity:1;fill-rule:evenodd;stroke:#000000;stroke-width:1px;stroke-linecap:butt;stroke-linejoin:miter;stroke-opacity:1" />
    <path
       style="opacity:1;fill:#bf9f4f;fill-opacity:1;fill-rule:evenodd;stroke:#000000;stroke-width:1px;stroke-linecap:butt;stroke-linejoin:miter;stroke-opacity:1"
       d="M 179.6752,526.33331 C 228.43902,443.76357 169.34374,447.86766 239.34185,344.66665 C 240.77253,342.55734 237.48853,338.37352 234.34186,341.99998 C 159.68174,428.04417 217.57844,465.33868 166.00853,518.99998 C 162.75657,522.38382 176.70949,531.35502 179.6752,526.33331 z "
       id="path13943"
       sodipodi:nodetypes="cssss" />
    <path
       sodipodi:nodetypes="cssss"
       id="path13945"
       d="M 191.6752,534.33331 C 228.43902,454.0969 189.67707,435.20099 242.00852,343.99998 C 243.277,341.78933 242.49374,336.44635 239.67519,340.33331 C 175.34841,429.04417 218.24511,458.00535 178.00853,526.99998 C 175.64424,531.05408 189.24585,539.63532 191.6752,534.33331 z "
       style="opacity:1;fill:#bf9f4f;fill-opacity:1;fill-rule:evenodd;stroke:#000000;stroke-width:1px;stroke-linecap:butt;stroke-linejoin:miter;stroke-opacity:1" />
    <path
       style="opacity:1;fill:#bf9f4f;fill-opacity:1;fill-rule:evenodd;stroke:#000000;stroke-width:1px;stroke-linecap:butt;stroke-linejoin:miter;stroke-opacity:1"
       d="M 226.00853,530.99998 C 260.10569,451.0969 233.34374,444.20099 267.00852,344.99998 C 267.82758,342.58645 261.396,337.83432 259.00852,341.99997 C 205.68174,435.04417 241.91178,460.33868 215.00853,527.66665 C 213.2671,532.02474 223.71951,536.36406 226.00853,530.99998 z "
       id="path13951"
       sodipodi:nodetypes="cssss" />
    <path
       style="fill:#bf9f4f;fill-rule:evenodd;stroke:#000000;stroke-width:1px;stroke-linecap:butt;stroke-linejoin:miter;stroke-opacity:1;opacity:1;fill-opacity:1"
       d="M 275.75,124.75 C 291.29838,109.18814 291.54059,94.746554 320.5,104.25 C 323.46965,147.72848 294.17187,138.60415 275.75,124.75 z "
       id="path7104"
       sodipodi:nodetypes="ccc" />
    <path
       style="fill:#bf9f4f;fill-rule:evenodd;stroke:#000000;stroke-width:1px;stroke-linecap:butt;stroke-linejoin:miter;stroke-opacity:1;opacity:1;fill-opacity:1"
       d="M 285.75,128 C 298.5562,139.46659 312.83649,125.45543 314,109 C 293.2518,109.91005 293.18166,121.0342 285.75,128 z "
       id="path7106"
       sodipodi:nodetypes="ccc" />
    <path
       sodipodi:nodetypes="ccc"
       id="path7108"
       d="M 224.25039,124.75 C 208.70201,109.18814 208.4598,94.746554 179.50039,104.25 C 176.53074,147.72848 205.82852,138.60415 224.25039,124.75 z "
       style="fill:#bf9f4f;fill-rule:evenodd;stroke:#000000;stroke-width:1px;stroke-linecap:butt;stroke-linejoin:miter;stroke-opacity:1;opacity:1;fill-opacity:1" />
    <path
       sodipodi:nodetypes="ccc"
       id="path7110"
       d="M 214.25039,128 C 201.44419,139.46659 187.1639,125.45543 186.00039,109 C 206.74859,109.91005 206.81873,121.0342 214.25039,128 z "
       style="fill:#bf9f4f;fill-rule:evenodd;stroke:#000000;stroke-width:1px;stroke-linecap:butt;stroke-linejoin:miter;stroke-opacity:1;opacity:1;fill-opacity:1" />
    <path
       style="opacity:1;fill:#bf9f4f;fill-opacity:1;fill-rule:evenodd;stroke:#000000;stroke-width:1px;stroke-linecap:butt;stroke-linejoin:miter;stroke-opacity:1"
       d="M 291.66666,524.99999 C 284.23617,466.09691 272.33145,451.86768 276.33334,388.33333 C 276.49356,385.78964 286.61142,378.9199 287.33332,383.66666 C 297.32679,449.37752 292.76341,464.33869 306.33333,521.99999 C 307.40843,526.56832 292.39658,530.78619 291.66666,524.99999 z "
       id="path13939"
       sodipodi:nodetypes="cssss" />
    <path
       id="path4956"
       style="fill:#cfcfcf;fill-opacity:1;fill-rule:evenodd;stroke:#000000;stroke-width:0.99999988px;stroke-linecap:butt;stroke-linejoin:miter;stroke-opacity:1;opacity:1"
       d="M 250,105 L 260,53 C 270,53 278,57 288,63 L 288,26 C 279,32 269,38 258,38 C 260,26 263,20 270,11 L 250,11 L 230,11 C 237,20 240,26 242,38 C 231,38 221,32 212,26 L 212,63 C 222,57 230,53 240,53 L 250,105 z "
       sodipodi:nodetypes="ccccccccccccc" />
    <path
       sodipodi:nodetypes="ccccccccccccc"
       d="M 93.5,279.5 L 103.5,227.5 C 113.5,227.5 121.5,231.5 131.5,237.5 L 131.5,200.5 C 122.5,206.5 112.5,212.5 101.5,212.5 C 103.5,200.5 106.5,194.5 113.5,185.5 L 93.5,185.5 L 73.5,185.5 C 80.5,194.5 83.5,200.5 85.5,212.5 C 74.5,212.5 64.5,206.5 55.5,200.5 L 55.5,237.5 C 65.5,231.5 73.5,227.5 83.5,227.5 L 93.5,279.5 z "
       style="fill:#cfcfcf;fill-opacity:1;fill-rule:evenodd;stroke:#000000;stroke-width:0.99999988px;stroke-linecap:butt;stroke-linejoin:miter;stroke-opacity:1;opacity:1"
       id="path5127" />
    <path
       id="path5129"
       style="fill:#cfcfcf;fill-opacity:1;fill-rule:evenodd;stroke:#000000;stroke-width:0.99999988px;stroke-linecap:butt;stroke-linejoin:miter;stroke-opacity:1;opacity:1"
       d="M 406.5,279.5 L 416.5,227.5 C 426.5,227.5 434.5,231.5 444.5,237.5 L 444.5,200.5 C 435.5,206.5 425.5,212.5 414.5,212.5 C 416.5,200.5 419.5,194.5 426.5,185.5 L 406.5,185.5 L 386.5,185.5 C 393.5,194.5 396.5,200.5 398.5,212.5 C 387.5,212.5 377.5,206.5 368.5,200.5 L 368.5,237.5 C 378.5,231.5 386.5,227.5 396.5,227.5 L 406.5,279.5 z "
       sodipodi:nodetypes="ccccccccccccc" />
    <path
       id="path5131"
       style="fill:#cfcfcf;fill-opacity:1;fill-rule:evenodd;stroke:#000000;stroke-width:0.99999988px;stroke-linecap:butt;stroke-linejoin:miter;stroke-opacity:1;opacity:1"
       d="M 111.5,439.5 L 121.5,387.5 C 131.5,387.5 139.5,391.5 149.5,397.5 L 149.5,360.5 C 140.5,366.5 130.5,372.5 119.5,372.5 C 121.5,360.5 124.5,354.5 131.5,345.5 L 111.5,345.5 L 91.5,345.5 C 98.5,354.5 101.5,360.5 103.5,372.5 C 92.5,372.5 82.5,366.5 73.5,360.5 L 73.5,397.5 C 83.5,391.5 91.5,387.5 101.5,387.5 L 111.5,439.5 z "
       sodipodi:nodetypes="ccccccccccccc" />
    <path
       sodipodi:nodetypes="ccccccccccccc"
       d="M 388.5,439.5 L 398.5,387.5 C 408.5,387.5 416.5,391.5 426.5,397.5 L 426.5,360.5 C 417.5,366.5 407.5,372.5 396.5,372.5 C 398.5,360.5 401.5,354.5 408.5,345.5 L 388.5,345.5 L 368.5,345.5 C 375.5,354.5 378.5,360.5 380.5,372.5 C 369.5,372.5 359.5,366.5 350.5,360.5 L 350.5,397.5 C 360.5,391.5 368.5,387.5 378.5,387.5 L 388.5,439.5 z "
       style="fill:#cfcfcf;fill-opacity:1;fill-rule:evenodd;stroke:#000000;stroke-width:0.99999988px;stroke-linecap:butt;stroke-linejoin:miter;stroke-opacity:1;opacity:1"
       id="path5133" />
    <path
       id="path5137"
       style="opacity:1;fill:#bf9f4f;fill-rule:evenodd;stroke:#000000;stroke-width:1px;stroke-linecap:butt;stroke-linejoin:miter;stroke-opacity:1;fill-opacity:1"
       d="M 250,279 C 268,279 271,266 279,258 C 287.8346,249.7274 290.60764,247.4243 291,237.83333 C 291.375,228.66667 282.01117,232.62587 284.33333,214.66667 C 286.73844,196.06595 279.8807,197.39412 284.5,185.16667 C 289.21339,172.69018 305,164 305,145 C 305,139 275,112 250,112 C 225,112 195,139 195,145 C 195,164 210.78661,172.69018 215.5,185.16667 C 220.1193,197.39412 213.26156,196.06595 215.66667,214.66667 C 217.98883,232.62587 208.625,228.66667 209,237.83333 C 209.39236,247.4243 212.1654,249.7274 221,258 C 229,266 232,279 250,279 z " />
    <path
       transform="matrix(-0.8834656,-0.8445802,-0.6679862,0.698741,588.70431,233.52505)"
       d="M 224.33333 163 A 9 15 0 1 1  206.33333,163 A 9 15 0 1 1  224.33333 163 z"
       sodipodi:ry="15"
       sodipodi:rx="9"
       sodipodi:cy="163"
       sodipodi:cx="215.33333"
       id="path6127"
       style="opacity:1;fill:#bf9f4f;fill-opacity:1;fill-rule:evenodd;stroke:#000000;stroke-width:0.91999722;stroke-linecap:round;stroke-linejoin:round;stroke-miterlimit:4;stroke-dasharray:none;stroke-opacity:1"
       sodipodi:type="arc" />
    <path
       sodipodi:type="arc"
       style="opacity:1;fill:#bf9f4f;fill-opacity:1;fill-rule:evenodd;stroke:#000000;stroke-width:0.97499603;stroke-linecap:round;stroke-linejoin:round;stroke-miterlimit:4;stroke-dasharray:none;stroke-opacity:1"
       id="path6113"
       sodipodi:cx="279"
       sodipodi:cy="254.33333"
       sodipodi:rx="7.3333335"
       sodipodi:ry="11.666667"
       d="M 286.33333 254.33333 A 7.3333335 11.666667 0 1 1  271.66667,254.33333 A 7.3333335 11.666667 0 1 1  286.33333 254.33333 z"
       transform="matrix(0.7976519,0.6400957,-0.6437534,0.8022099,219.18309,-128.11542)" />
    <path
       transform="matrix(-0.7976519,0.6400957,0.6437534,0.8022099,280.81762,-128.11542)"
       d="M 286.33333 254.33333 A 7.3333335 11.666667 0 1 1  271.66667,254.33333 A 7.3333335 11.666667 0 1 1  286.33333 254.33333 z"
       sodipodi:ry="11.666667"
       sodipodi:rx="7.3333335"
       sodipodi:cy="254.33333"
       sodipodi:cx="279"
       id="path6115"
       style="opacity:1;fill:#bf9f4f;fill-opacity:1;fill-rule:evenodd;stroke:#000000;stroke-width:0.97499603;stroke-linecap:round;stroke-linejoin:round;stroke-miterlimit:4;stroke-dasharray:none;stroke-opacity:1"
       sodipodi:type="arc" />
    <path
       sodipodi:type="arc"
       style="opacity:1;fill:#bf9f4f;fill-opacity:1;fill-rule:evenodd;stroke:#000000;stroke-width:0.91999722;stroke-linecap:round;stroke-linejoin:round;stroke-miterlimit:4;stroke-dasharray:none;stroke-opacity:1"
       id="path7102"
       sodipodi:cx="215.33333"
       sodipodi:cy="163"
       sodipodi:rx="9"
       sodipodi:ry="15"
       d="M 224.33333 163 A 9 15 0 1 1  206.33333,163 A 9 15 0 1 1  224.33333 163 z"
       transform="matrix(0.8834656,-0.8445802,0.6679862,0.698741,-88.704364,233.52505)" />
    <path
       sodipodi:type="arc"
       style="opacity:1;fill:#bf9f4f;fill-opacity:1;fill-rule:evenodd;stroke:#000000;stroke-width:0.98801547;stroke-linecap:round;stroke-linejoin:round;stroke-miterlimit:4;stroke-dasharray:none;stroke-opacity:1"
       id="path6117"
       sodipodi:cx="206.5"
       sodipodi:cy="167.5"
       sodipodi:rx="6.8333335"
       sodipodi:ry="12.5"
       d="M 213.33333 167.5 A 6.8333335 12.5 0 1 1  199.66667,167.5 A 6.8333335 12.5 0 1 1  213.33333 167.5 z"
       transform="matrix(0.737926,-0.7105338,0.6936276,0.7203446,-61.033842,194.14028)" />
    <path
       transform="matrix(-0.737926,-0.7105338,-0.6936276,0.7203446,561.03384,194.14028)"
       d="M 213.33333 167.5 A 6.8333335 12.5 0 1 1  199.66667,167.5 A 6.8333335 12.5 0 1 1  213.33333 167.5 z"
       sodipodi:ry="12.5"
       sodipodi:rx="6.8333335"
       sodipodi:cy="167.5"
       sodipodi:cx="206.5"
       id="path6119"
       style="opacity:1;fill:#bf9f4f;fill-opacity:1;fill-rule:evenodd;stroke:#000000;stroke-width:0.98801547;stroke-linecap:round;stroke-linejoin:round;stroke-miterlimit:4;stroke-dasharray:none;stroke-opacity:1"
       sodipodi:type="arc" />
    <path
       style="fill:#bf9f4f;fill-rule:evenodd;stroke:#000000;stroke-width:1px;stroke-linecap:butt;stroke-linejoin:miter;stroke-opacity:1;opacity:1;fill-opacity:1"
       d="M 311,123.33333 C 307.94126,123.36634 306.58314,119.10578 300.75987,119.04283 C 294.95462,118.98224 293.44967,125.40188 293.33333,134 C 293.20455,143.5171 296.66667,150.66667 303.4,150.66667 C 310.33333,150.66667 312.58333,149.33333 327,149.33333 C 346.46239,149.33333 341.07492,157.41387 384,157.33333 C 429.41667,157.25 464.39039,114.05109 481,82.133333 C 485.04065,74.368633 474.84876,69.550611 471.33333,76.533333 C 466.81667,85.504807 465.28333,88.683337 453,104.66667 C 457.25,89.250003 457.66667,82.416668 458,73.666667 C 458.33694,64.822078 448.65977,64.360163 446,74 C 442.796,85.612301 439.33333,100.75 431.33333,110.66667 C 435.2185,88.442259 432.97117,71.405377 415.66667,109.33333 C 423.90001,86.416662 427.66667,74.533333 428.66667,61.2 C 429.66667,47.866668 419.85364,48.698214 418.06667,60 C 416.16667,72.016667 411.66667,82 403.86667,97.266667 C 407.46667,79.933334 410.83425,61.107054 410.86667,47.866667 C 410.88841,38.987315 399.67661,39.6066 398.6,49.133333 C 396.864,64.494817 387.06666,94.7 382.73333,98.2 C 380.8,81.9 380.15,75.25 381.86667,64.333333 C 383.4799,54.074449 373.20732,50.114737 370.6,61.133333 C 366.32512,79.199118 361.2,111.08333 352.2,121.6 C 352.2,98.916667 353.52391,90.25779 354.8,77.6 C 355.81823,67.500024 343.3409,66.87984 340.93333,80.333333 C 335.95185,108.16985 325.59867,123.17579 311,123.33333 z "
       id="path6129"
       sodipodi:nodetypes="cssssssscssccsscsscsscsss" />
    <path
       sodipodi:nodetypes="cssssssscssccsscsscsscsss"
       id="path7100"
       d="M 189.00013,123.33333 C 192.05887,123.36634 193.41699,119.10578 199.24026,119.04283 C 205.04551,118.98224 206.55046,125.40188 206.6668,134 C 206.79558,143.5171 203.33346,150.66667 196.60013,150.66667 C 189.6668,150.66667 187.4168,149.33333 173.00013,149.33333 C 153.53774,149.33333 158.92521,157.41387 116.00013,157.33333 C 70.583458,157.25 35.609738,114.05109 19.000128,82.133333 C 14.959478,74.368633 25.151368,69.550611 28.666798,76.533333 C 33.183458,85.504807 34.716798,88.683337 47.000128,104.66667 C 42.750128,89.250003 42.333458,82.416668 42.000128,73.666667 C 41.663188,64.822078 51.340358,64.360163 54.000128,74 C 57.204128,85.612301 60.666798,100.75 68.666798,110.66667 C 64.781628,88.442259 67.028958,71.405377 84.333458,109.33333 C 76.100118,86.416662 72.333458,74.533333 71.333458,61.2 C 70.333458,47.866668 80.146488,48.698214 81.933458,60 C 83.833458,72.016667 88.333458,82 96.133458,97.266667 C 92.533458,79.933334 89.165878,61.107054 89.133458,47.866667 C 89.111718,38.987315 100.32352,39.6066 101.40013,49.133333 C 103.13613,64.494817 112.93347,94.7 117.2668,98.2 C 119.20013,81.9 119.85013,75.25 118.13346,64.333333 C 116.52023,54.074449 126.79281,50.114737 129.40013,61.133333 C 133.67501,79.199118 138.80013,111.08333 147.80013,121.6 C 147.80013,98.916667 146.47622,90.25779 145.20013,77.6 C 144.1819,67.500024 156.65923,66.87984 159.0668,80.333333 C 164.04828,108.16985 174.40146,123.17579 189.00013,123.33333 z "
       style="fill:#bf9f4f;fill-rule:evenodd;stroke:#000000;stroke-width:1px;stroke-linecap:butt;stroke-linejoin:miter;stroke-opacity:1;opacity:1;fill-opacity:1" />
    <path
       style="fill:#bf9f4f;fill-rule:evenodd;stroke:#000000;stroke-width:1px;stroke-linecap:butt;stroke-linejoin:miter;stroke-opacity:1;fill-opacity:1;opacity:1"
       d="M 220,544 C 242.15304,482.24669 245.99811,420.86768 250,357.33333 C 250.16022,354.78964 257.4568,353.86692 257.33333,358.66667 C 255.66013,423.71086 251.06629,488.04007 231.66666,548 C 230.93589,550.25867 218.60333,547.89332 220,544 z "
       id="path10990"
       sodipodi:nodetypes="cssss" />
    <path
       sodipodi:nodetypes="cssss"
       id="path10992"
       d="M 232.33333,545.66666 C 251.15304,483.58002 252.99811,421.20101 257,357.66666 C 257.16022,355.12297 264.79013,356.20025 264.66666,361 C 262.99346,426.04419 256.06629,487.3734 243.99999,549.33333 C 243.5462,551.6635 231.13346,549.62506 232.33333,545.66666 z "
       style="fill:#bf9f4f;fill-rule:evenodd;stroke:#000000;stroke-width:1px;stroke-linecap:butt;stroke-linejoin:miter;stroke-opacity:1;fill-opacity:1;opacity:1" />
    <path
       style="fill:#bf9f4f;fill-rule:evenodd;stroke:#000000;stroke-width:1px;stroke-linecap:butt;stroke-linejoin:miter;stroke-opacity:1;fill-opacity:1;opacity:1"
       d="M 243.99999,547.33332 C 256.15304,484.58002 256.99811,422.53434 261,358.99999 C 261.16022,356.4563 266.45679,354.86691 266.33332,359.66666 C 264.66012,424.71085 262.39962,486.04007 255.66666,546.33333 C 255.4032,548.69261 243.21356,551.39413 243.99999,547.33332 z "
       id="path10994"
       sodipodi:nodetypes="cssss" />
    <path
       sodipodi:nodetypes="cssss"
       id="path11965"
       d="M 255.33332,542.99999 C 262.23616,482.43025 261.99811,421.86768 266,358.33333 C 266.16022,355.78964 270.79012,354.53358 270.66665,359.33333 C 268.99345,424.37752 267.76341,483.00536 266.99999,543.33333 C 266.94061,548.02609 254.67294,548.79454 255.33332,542.99999 z "
       style="fill:#bf9f4f;fill-opacity:1;fill-rule:evenodd;stroke:#000000;stroke-width:1px;stroke-linecap:butt;stroke-linejoin:miter;stroke-opacity:1;opacity:1" />
    <path
       style="fill:#bf9f4f;fill-opacity:1;fill-rule:evenodd;stroke:#000000;stroke-width:1px;stroke-linecap:butt;stroke-linejoin:miter;stroke-opacity:1;opacity:1"
       d="M 266.99999,541.99999 C 266.90283,482.43025 266.33145,422.20101 270.33334,358.66666 C 270.49356,356.12297 275.12346,353.53358 274.99999,358.33333 C 273.32679,423.37752 276.76341,482.33869 281.66666,541.66666 C 282.05321,546.34385 267.00945,547.83204 266.99999,541.99999 z "
       id="path11967"
       sodipodi:nodetypes="cssss" />
    <path
       sodipodi:nodetypes="cssss"
       id="path11969"
       d="M 281.99999,541.33332 C 274.5695,482.43024 269.66478,421.53434 273.66667,357.99999 C 273.82689,355.4563 278.30944,354.19871 278.33332,358.99999 C 278.66012,424.71085 283.09674,480.67202 296.66666,538.33332 C 297.74176,542.90165 282.72991,547.11952 281.99999,541.33332 z "
       style="fill:#bf9f4f;fill-opacity:1;fill-rule:evenodd;stroke:#000000;stroke-width:1px;stroke-linecap:butt;stroke-linejoin:miter;stroke-opacity:1;opacity:1" />
    <path
       sodipodi:nodetypes="cssss"
       id="path13949"
       d="M 217.6752,529.99998 C 244.10569,448.76357 208.34374,436.53432 258.67519,343.99998 C 259.893,341.76102 253.06267,336.83432 250.67519,340.99997 C 197.34841,434.04417 233.57845,459.33868 206.6752,526.66665 C 204.93377,531.02474 215.87082,535.5459 217.6752,529.99998 z "
       style="opacity:1;fill:#bf9f4f;fill-opacity:1;fill-rule:evenodd;stroke:#000000;stroke-width:1px;stroke-linecap:butt;stroke-linejoin:miter;stroke-opacity:1" />
    <path
       style="opacity:1;fill:#bf9f4f;fill-opacity:1;fill-rule:evenodd;stroke:#000000;stroke-width:1px;stroke-linecap:butt;stroke-linejoin:miter;stroke-opacity:1"
       d="M 208.00853,538.33331 C 237.43902,457.43023 199.67707,436.86765 250.00852,344.33331 C 251.22633,342.09435 245.396,337.83432 243.00852,341.99997 C 189.68174,435.04417 223.24511,465.67201 191.34186,532.33331 C 189.31371,536.56559 206.01479,543.81401 208.00853,538.33331 z "
       id="path13947"
       sodipodi:nodetypes="cssss" />
    <path
       style="opacity:1;fill:#bf9f4f;fill-opacity:1;fill-rule:evenodd;stroke:#000000;stroke-width:1px;stroke-linecap:butt;stroke-linejoin:miter;stroke-opacity:1"
       d="M 348.66666,523.66665 C 306.23617,472.76357 342.33145,461.201 300.00001,383.66665 C 298.77865,381.42962 303.53332,376.54739 305.99999,380.66665 C 356.32679,464.71084 309.09675,474.33868 364.33333,520.33332 C 367.93985,523.33641 352.4037,528.14409 348.66666,523.66665 z "
       id="path13929"
       sodipodi:nodetypes="cssss" />
    <path
       sodipodi:nodetypes="cssss"
       id="path13931"
       d="M 337.99999,527.66665 C 301.90283,472.43024 331.99811,463.86767 292.33334,386.33332 C 291.17255,384.06427 297.4128,380.76054 299.66665,384.99998 C 343.99345,468.37751 304.76341,470.67201 351.66666,524.33332 C 354.75523,527.86691 341.19041,532.54868 337.99999,527.66665 z "
       style="opacity:1;fill:#bf9f4f;fill-opacity:1;fill-rule:evenodd;stroke:#000000;stroke-width:1px;stroke-linecap:butt;stroke-linejoin:miter;stroke-opacity:1" />
    <path
       style="opacity:1;fill:#bf9f4f;fill-opacity:1;fill-rule:evenodd;stroke:#000000;stroke-width:1px;stroke-linecap:butt;stroke-linejoin:miter;stroke-opacity:1"
       d="M 332.99999,530.33332 C 296.90283,475.09691 326.99811,466.53434 287.33334,388.99999 C 286.17255,386.73094 290.4128,382.76054 292.66665,386.99998 C 336.99345,470.37751 301.43008,472.33868 340.99999,528.33332 C 343.70847,532.16604 336.19041,535.21535 332.99999,530.33332 z "
       id="path13933"
       sodipodi:nodetypes="cssss" />
    <path
       sodipodi:nodetypes="cssss"
       id="path12956"
       d="M 315.66667,390.33333 C 306.39039,373.02256 264.88806,330.31576 249.33335,315.66666 C 245.75205,312.29387 256.01235,308.47868 258.33334,309.99999 C 276.9788,322.22134 310.16567,366.71891 319.66667,386.66666 C 321.70498,390.94617 317.75426,394.22906 315.66667,390.33333 z "
       style="fill:#bf9f4f;fill-rule:evenodd;stroke:#000000;stroke-width:1px;stroke-linecap:butt;stroke-linejoin:miter;stroke-opacity:1;fill-opacity:1;opacity:1" />
    <path
       sodipodi:nodetypes="cssss"
       id="path13935"
       d="M 321.99999,533.66666 C 293.90283,479.09691 318.66478,467.20101 284.00001,390.33333 C 282.95223,388.00993 285.44716,383.74246 287.66665,387.99998 C 323.66012,457.04418 303.76342,476.67202 334.66666,529.99999 C 337.01976,534.0606 324.66974,538.85178 321.99999,533.66666 z "
       style="opacity:1;fill:#bf9f4f;fill-opacity:1;fill-rule:evenodd;stroke:#000000;stroke-width:1px;stroke-linecap:butt;stroke-linejoin:miter;stroke-opacity:1" />
    <path
       style="fill:#bf9f4f;fill-rule:evenodd;stroke:#000000;stroke-width:1px;stroke-linecap:butt;stroke-linejoin:miter;stroke-opacity:1;fill-opacity:1;opacity:1"
       d="M 311,393 C 301.72372,375.68923 262.22139,333.98243 246.66668,319.33333 C 243.08538,315.96054 248.80571,311.63437 251,313.33333 C 267.64546,326.22134 306.79733,370.15928 317,389 C 319.32911,393.30103 313.08759,396.89573 311,393 z "
       id="path12954"
       sodipodi:nodetypes="cssss" />
    <path
       style="opacity:1;fill:#bf9f4f;fill-opacity:1;fill-rule:evenodd;stroke:#000000;stroke-width:1px;stroke-linecap:butt;stroke-linejoin:miter;stroke-opacity:1"
       d="M 309.66666,534.66666 C 284.23617,480.76358 304.99812,467.20101 279.00001,392 C 278.16724,389.59115 282.01932,386.79308 284.33332,390.99998 C 313.32679,443.71085 301.09676,480.33869 322.33333,530.99999 C 324.14768,535.32824 312.15509,539.9412 309.66666,534.66666 z "
       id="path13937"
       sodipodi:nodetypes="cssss" />
    <path
       sodipodi:nodetypes="cssss"
       id="path12952"
       d="M 302.66667,392.66667 C 293.39039,375.3559 258.22139,337.98243 242.66668,323.33333 C 239.08538,319.96054 243.13905,315.30104 245.33334,317 C 261.9788,329.88801 298.464,369.82595 308.66667,388.66667 C 310.99578,392.9677 304.75426,396.5624 302.66667,392.66667 z "
       style="fill:#bf9f4f;fill-rule:evenodd;stroke:#000000;stroke-width:1px;stroke-linecap:butt;stroke-linejoin:miter;stroke-opacity:1;fill-opacity:1;opacity:1" />
    <path
       style="fill:#bf9f4f;fill-rule:evenodd;stroke:#000000;stroke-width:1px;stroke-linecap:butt;stroke-linejoin:miter;stroke-opacity:1;fill-opacity:1;opacity:1"
       d="M 295.66667,395.66667 C 286.39039,378.3559 254.22139,343.31576 238.66668,328.66666 C 235.08538,325.29387 239.80572,321.96771 242.00001,323.66667 C 258.64547,336.55468 291.464,372.82595 301.66667,391.66667 C 303.99578,395.9677 297.75426,399.5624 295.66667,395.66667 z "
       id="path12950"
       sodipodi:nodetypes="cssss" />
    <path
       sodipodi:nodetypes="cssss"
       id="path12948"
       d="M 289,398 C 279.72372,380.68923 253.22139,350.64909 238.00001,336.66666 C 234.37708,333.33863 237.80572,328.30104 240.00001,330 C 256.64547,342.88801 284.79733,375.15928 295,394 C 297.32911,398.30103 291.08759,401.89573 289,398 z "
       style="fill:#bf9f4f;fill-rule:evenodd;stroke:#000000;stroke-width:1px;stroke-linecap:butt;stroke-linejoin:miter;stroke-opacity:1;fill-opacity:1;opacity:1" />
    <path
       style="fill:#bf9f4f;fill-rule:evenodd;stroke:#000000;stroke-width:1px;stroke-linecap:butt;stroke-linejoin:miter;stroke-opacity:1;fill-opacity:1;opacity:1"
       d="M 188.66666,388.66667 C 197.19156,377.14823 215.65878,350.97732 229.33333,339.33334 C 231.66544,337.34753 231.15407,327.77351 227.66666,331 C 215.82782,341.95308 193.20592,369.32638 183.99999,382 C 181.40362,385.57437 185.76573,392.58627 188.66666,388.66667 z "
       id="path12944"
       sodipodi:nodetypes="cssss" />
    <path
       style="fill:#bf9f4f;fill-rule:evenodd;stroke:#000000;stroke-width:1px;stroke-linecap:butt;stroke-linejoin:miter;stroke-opacity:1;fill-opacity:1;opacity:1"
       d="M 284.33333,403 C 275.05705,385.68923 248.55472,355.64909 233.33334,341.66666 C 229.71041,338.33863 233.13905,333.30104 235.33334,335 C 251.9788,347.88801 280.13066,380.15928 290.33333,399 C 292.66244,403.30103 286.42092,406.89573 284.33333,403 z "
       id="path12946"
       sodipodi:nodetypes="cssss" />
    <path
       sodipodi:nodetypes="cssss"
       id="path12942"
       d="M 191.33333,392.66667 C 199.85823,381.14823 216.99212,358.97732 230.66667,347.33334 C 232.99878,345.34753 229.48741,339.44018 226,342.66667 C 214.16116,353.61975 194.87259,375.99305 185.66666,388.66667 C 183.07029,392.24104 188.4324,396.58627 191.33333,392.66667 z "
       style="fill:#bf9f4f;fill-rule:evenodd;stroke:#000000;stroke-width:1px;stroke-linecap:butt;stroke-linejoin:miter;stroke-opacity:1;fill-opacity:1;opacity:1" />
    <path
       style="fill:#bf9f4f;fill-rule:evenodd;stroke:#000000;stroke-width:1px;stroke-linecap:butt;stroke-linejoin:miter;stroke-opacity:1;fill-opacity:1;opacity:1"
       d="M 195.33333,396 C 203.85823,384.48156 220.99212,362.31065 234.66667,350.66667 C 236.99878,348.68086 233.48741,342.77351 230,346 C 218.16116,356.95308 198.87259,379.32638 189.66666,392 C 187.07029,395.57437 192.4324,399.9196 195.33333,396 z "
       id="path12940"
       sodipodi:nodetypes="cssss" />
    <path
       style="fill:#bf9f4f;fill-rule:evenodd;stroke:#000000;stroke-width:1px;stroke-linecap:butt;stroke-linejoin:miter;stroke-opacity:1;fill-opacity:1;opacity:1"
       d="M 240,350 C 236.08066,348.81572 235.08264,352.48507 231,354 C 224.5423,348.59041 223.16667,339.25 227,329.66667 C 230.83334,320.08333 238.09605,317.36634 248,313.66666 C 237.75,324.83333 235.5,338.74999 240,350 z "
       id="path12958"
       sodipodi:nodetypes="ccscc" />
    <path
       style="fill:#bf9f4f;fill-rule:evenodd;stroke:#000000;stroke-width:1px;stroke-linecap:butt;stroke-linejoin:miter;stroke-opacity:1;opacity:1;fill-opacity:1"
       d="M 181.33333,459.33334 C 197.49611,457.41151 217.37664,460.50687 228.33334,466 C 233.14103,468.41033 231.87712,479.94437 228,477 C 218.29859,469.63254 197.23554,465.26785 181,468.66667 C 176.4873,469.61137 176.82742,459.86911 181.33333,459.33334 z "
       id="path13953"
       sodipodi:nodetypes="cssss" />
    <path
       sodipodi:nodetypes="cssss"
       id="path13955"
       d="M 239.99999,464 C 254.49611,460.07817 272.70997,460.8402 283.66667,466.33333 C 288.47436,468.74366 289.21045,479.94437 285.33333,477 C 275.63192,469.63254 253.56887,468.26785 238,474 C 233.67341,475.59297 235.61981,465.18503 239.99999,464 z "
       style="fill:#bf9f4f;fill-rule:evenodd;stroke:#000000;stroke-width:1px;stroke-linecap:butt;stroke-linejoin:miter;stroke-opacity:1;opacity:1;fill-opacity:1" />
    <path
       style="fill:#bf9f4f;fill-rule:evenodd;stroke:#000000;stroke-width:1px;stroke-linecap:butt;stroke-linejoin:miter;stroke-opacity:1;opacity:1;fill-opacity:1"
       d="M 293.66666,461 C 305.16278,455.07817 321.37664,452.8402 333,457 C 338.06356,458.81216 337.77192,469.95025 333.66666,467.33334 C 322.63192,460.29921 309.56887,463.26785 294.66667,470.33334 C 290.50067,472.30853 289.63274,463.07794 293.66666,461 z "
       id="path13957"
       sodipodi:nodetypes="cssss" />
  </g>
</svg>
