<?xml version="1.0" encoding="UTF-8"?>
<!DOCTYPE svg PUBLIC "-//W3C//DTD SVG 1.1//EN" "http://www.w3.org/Graphics/SVG/1.1/DTD/svg11.dtd">
<!-- Creator: CorelDRAW -->
<svg xmlns="http://www.w3.org/2000/svg" xml:space="preserve" width="500px" height="577px" shape-rendering="geometricPrecision" text-rendering="geometricPrecision" image-rendering="optimizeQuality" fill-rule="evenodd" clip-rule="evenodd"
viewBox="0 0 500 577"
 xmlns:xlink="http://www.w3.org/1999/xlink"
 xmlns:svg="http://www.w3.org/2000/svg"
 version="1.0">
 <g id="Layer_x0020_1">
  <metadata id="CorelCorpID_0Corel-Layer"/>
  <path id="path1937" fill="#0581ED" stroke="black" stroke-width="0.992126" d="M0.378142 1.05931l499.276 -0.117638c-9.50315,116.654 -26.0396,359.893 -28.5965,367.632 -21.996,277.186 -418.868,275.188 -441.183,0.48274 -3.96964,-8.5989 -16.2099,-248.597 -29.4971,-367.997z"/>
  <path fill="#644D36" d="M127.112 475.475l-2.43666 -21.93c-37.9709,-6.49815 -22.5386,-22.7421 -17.0566,-24.9758 -16.9554,-10.4581 -13.0972,-25.0778 10.965,-28.0216l-9.74665 -77.9732c-32.489,-1.62454 -22.9453,-20.9149 -13.4016,-23.1483 -17.869,-8.1224 -16.2445,-24.1637 8.52832,-26.1941 -10.0006,-101.807 -27.7682,-182.065 -57.2616,-235.138 -2.2337,-8.73156 43.0475,3.24879 59.6982,8.52832 5.68545,1.42129 0.405921,5.27925 25.585,172.394 0.609166,8.52804 3.24851,16.2439 11.5741,23.1483l214.446 0c8.32564,-6.90435 10.965,-14.6203 11.5741,-23.1483 25.179,-167.115 18.6812,-170.973 24.3666,-172.394 16.6507,-5.27953 61.9319,-17.2599 59.6982,-8.52832 -29.4934,53.0734 -44.8243,133.331 -54.8249,235.138 24.0616,-1.11713 22.4374,21.4223 7.30999,26.1941 8.62923,1.62425 16.3454,22.7424 -13.4016,23.1483l-9.74665 77.9732c27.108,1.72545 27.9204,16.9543 10.965,27.4125 5.48192,2.2337 20.9143,22.1326 -17.0566,24.3666l-2.43666 23.1483c-0.206362,1.85811 -1.02189,3.71622 -4.2738,3.74712l-237.585 -0.092126c-1.8275,0 -5.48249,-1.21833 -5.48249,-3.65499z"/>
  <polygon fill="#B2B2B2" points="186.981,80.3628 209.814,119.027 170.845,145.513 218.034,155.864 214.38,203.053 251.218,171.086 285.62,203.661 283.793,154.951 331.286,147.34 292.622,121.158 315.759,78.2317 269.18,92.8449 251.218,49.0054 233.256,91.9316 "/>
  <polygon fill="#E5E5E5" points="250.913,124.811 251.218,49.0054 233.865,91.3227 "/>
  <polygon fill="#E5E5E5" points="187.894,81.2761 249.391,127.551 232.038,92.8449 "/>
  <polygon fill="#E5E5E5" points="254.262,126.942 270.093,94.0627 314.846,79.145 "/>
  <polygon fill="#E5E5E5" points="247.869,129.682 177.847,146.122 172.368,144.6 208.596,120.853 "/>
  <polygon fill="#E5E5E5" points="249.696,132.727 218.643,156.473 214.685,201.835 218.338,198.79 "/>
  <polygon fill="#E5E5E5" points="252.436,133.336 285.62,198.79 285.315,203.357 251.827,170.782 "/>
  <polygon fill="#E5E5E5" points="257.307,130.596 327.328,147.34 330.981,146.731 292.926,121.767 "/>
  <path fill="#BF9F4F" d="M128.167 476.53l-2.43666 -21.93c-37.9709,-6.49815 -22.5386,-22.7421 -17.0566,-24.9758 -16.9554,-10.4581 -13.0972,-25.0778 10.965,-28.0216l-9.74665 -77.9732c-32.489,-1.62454 -22.9453,-20.9149 -13.4016,-23.1483 -17.869,-8.1224 -16.2445,-24.1637 8.52832,-26.1941 -10.0006,-101.807 -27.7682,-182.065 -57.2616,-235.138 -2.2337,-8.73156 43.0475,3.24879 59.6982,8.52832 5.68545,1.42129 0.405921,5.27925 25.585,172.394 0.609166,8.52804 3.24851,16.2439 11.5741,23.1483l214.446 0c8.32564,-6.90435 10.965,-14.6203 11.5741,-23.1483 25.179,-167.115 18.6812,-170.973 24.3666,-172.394 16.6507,-5.27953 61.9319,-17.2599 59.6982,-8.52832 -29.4934,53.0734 -44.8243,133.331 -54.8249,235.138 24.0616,-1.11713 22.4374,21.4223 7.30999,26.1941 8.62923,1.62425 16.3454,22.7424 -13.4016,23.1483l-9.74665 77.9732c27.108,1.72545 27.9204,16.9543 10.965,27.4125 5.48192,2.2337 20.9143,22.1326 -17.0566,24.3666l-2.43666 23.1483c-0.206362,1.85811 -1.02189,3.71622 -4.2738,3.74712l-237.585 -0.092126c-1.8275,0 -5.48249,-1.21833 -5.48249,-3.65499z"/>
  <path fill="#8C0000" d="M144.614 243.22c-8.32564,-6.90435 -10.965,-14.6203 -11.5741,-23.1483 -18.8841,-125.336 -20.6351,-158.84 -22.7293,-168.358l-4.92038 -0.272126 23.1375 172.009c1.46721,8.67771 4.71203,17.0002 14.3087,24.0508l1.21776 26.7908 4.56662 0.913323 -1.52221 -28.313 -2.48457 -3.67257zm310.085 -204.07c-29.4934,53.0734 -44.8243,133.331 -54.8249,235.138l-6.17868 -0.299622 4.26218 -26.7908 -1.82665 -0.304441 4.56662 -22.2242 -2.43553 -0.304441 3.95773 -16.7443 -1.82665 -2.43553c4.26218,-10.351 6.90066,-22.7316 7.91547,-37.1418 3.85625,-8.47304 5.7841,-19.8391 6.39326,-33.1841 2.26318,-6.04347 8.86111,-29.92 18.7503,-57.519 4.33333,-12.0943 10.0375,-24.6575 15.0426,-37.1622l6.20419 -1.02756zm-40.5601 257.099c6.24246,-6.40715 5.94029,-16.9946 -4.16438,-20.6839l0.465166 2.38139 -5.1755 1.52221 5.47994 1.52221 -5.1755 1.21776 8.82879 1.52221 -7.91547 0.913323 7.00215 2.13109 -8.21991 1.21776 6.6977 1.52221 -8.21991 1.52221 6.39326 1.82665c-28.313,2.63849 -203.367,2.23257 -305.05,3.34885 -4.11988,0.690237 -9.3223,-0.78463 -14.3087,-1.82665 5.37846,3.95773 12.2791,5.1755 19.7887,5.47994l294.09 -1.82665c3.1612,-0.291118 6.3224,-0.683717 9.4836,-1.79065zm-21.3568 130.265c2.40576,-0.148252 7.29638,-1.15824 8.43364,-2.27792 6.14211,-6.04574 6.99194,-12.6848 1.29628,-17.2298l-0.292252 5.80791 -5.47994 0.304441 4.56662 1.82665 -3.95773 1.21776 3.04441 1.52221 -7.61103 2.13109 5.78438 1.82665 -284.044 2.73997c-2.73997,0 -5.47994,-0.811843 -8.21991,-2.43553 1.21776,3.04441 4.46514,4.87106 9.74212,5.47994l276.737 -0.913323zm-17.962 30.7486l-3.65329 17.962 -26.4864 0.608882c-0.304441,-6.29178 0.202961,-12.5836 1.52221,-18.8753l-6.39326 0.304441 -1.21776 18.2665 -50.8417 0c-0.608882,-5.37846 -0.405921,-11.5688 0.608882,-18.5709l-5.78438 0.304441c-0.10148,6.1903 0.710363,12.3806 -0.304441,18.5709l-62.7149 0.608882 -0.608882 -19.7887 -4.87106 -0.304441 0.608882 20.3976 -51.4505 0 -1.21776 -20.3976 -4.56662 0 1.21776 20.3976 -25.2686 -0.608882 0.250299 4.04873 237.585 0.092126c3.25191,-0.0308977 4.06744,-1.88901 4.2738,-3.74712l2.43666 -23.1483c33.2243,-1.95449 25.5617,-17.4339 19.455,-22.7699l-1.57266 2.90268 1.21776 1.52221 -3.34885 0.913323 4.56662 1.82665 -5.78438 2.13109 5.47994 0.608882 -0.608882 3.65329 -6.6977 0.608882 3.65329 1.21776c-1.42073,1.52221 -3.65329,2.23257 -6.6977,2.13109l-282.018 -0.323433c3.7372,2.65578 10.0553,5.06977 20.1413,6.79578l0.267024 2.40095 248.824 0.259937zm9.21572 -54.745l9.74665 -78.8865c26.0286,-0.355181 23.3742,-16.5679 16.5232,-21.7038l-7.47695 2.81027 6.39326 2.13109 -6.6977 1.52221 7.00215 0.913323 0.304441 2.13109 -7.61103 0.304441 6.6977 1.82665 -6.6977 1.82665 5.1755 1.21776c-1.62369,2.02961 -4.46514,2.63849 -5.1755,3.04441l-308.056 0.737292c3.52403,1.68265 8.62016,2.8834 15.7269,3.23858l0.607748 4.86142 37.5126 -0.312945 5.47994 73.6747 3.95773 0.913323 -5.47994 -74.5881 57.8438 0 2.73997 74.5881 4.56662 -0.304441 -3.04441 -73.9792 73.3703 0c-1.62369,24.7612 -2.02961,49.5224 -1.21776,74.2836l4.87106 -0.608882c-1.62369,-21.6153 1.0148,-48.7106 1.52221,-73.0659l56.0172 0.304441 -4.87106 73.6747 6.08882 -0.304441c0.10148,-24.2538 2.63849,-49.1165 3.95773,-73.6747l35.0107 -0.913323 -8.52435 74.8925 3.73578 -0.554457z"/>
  <polygon fill="#8C0000" points="207.378,248.414 208.292,273.074 211.64,272.77 211.032,249.023 "/>
  <path fill="#8C0000" d="M290.795 249.632l-0.608882 23.442c1.72517,1.0148 3.45033,0.811843 5.1755,-0.608882l0 -22.5286c-1.31924,-1.42073 -4.1607,-0.710363 -4.56662,-0.304441z"/>
  <path fill="#8C0000" d="M355.032 248.414l-1.52221 23.442c1.72517,1.0148 3.14589,0.811843 4.87106,-0.608882l1.21776 -22.5286c-1.31924,-1.42073 -4.1607,-0.710363 -4.56662,-0.304441z"/>
  <path fill="#8C0000" d="M221.383 400.33c-3.50221,-21.1462 -5.42977,-43.3962 -4.87106,-66.977 -1.30649,25.6745 0.494362,47.797 4.87106,66.977z"/>
  <path fill="#8C0000" d="M229.907 401.853c-3.50221,-21.1462 -5.42977,-43.3962 -4.87106,-66.977 -2.01799,26.6233 -1.32293,50.2186 4.87106,66.977z"/>
  <path fill="#8C0000" d="M238.736 402.157c-4.95468,-39.6542 -9.66048,-30.471 -6.08882,-67.2815 -0.876189,29.1855 0.884126,46.3368 6.08882,67.2815z"/>
  <path fill="#8C0000" d="M265.526 404.593c8.47333,-18.5967 5.73336,-49.7007 6.08882,-74.8925 5.27698,35.1122 2.94293,63.4252 -6.08882,74.8925z"/>
  <path fill="#8C0000" d="M281.357 404.288c7.86444,-17.6834 5.73336,-54.8762 0.608882,-75.8058 7.40807,19.8902 7.50955,63.1208 -0.608882,75.8058z"/>
  <path fill="#8C0000" d="M274.355 404.897c7.86444,-17.6834 7.56,-55.1807 2.43553,-76.1103 8.93027,18.9768 6.59622,64.643 -2.43553,76.1103z"/>
  <path fill="#8C0000" d="M241.171 331.527c-3.10847,28.7952 -1.2566,53.5059 9.43767,70.9348l4.87106 0c9.00624,-16.4656 10.7819,-42.0891 7.61103,-73.9792 0.101764,27.0454 -1.82608,51.2992 -8.21991,69.4126 -14.7458,-7.4486 -12.2329,-40.8646 -13.6998,-66.3682z"/>
  <path fill="#8C0000" d="M249.391 328.787c-1.31924,4.76958 -1.82665,9.13323 -1.52221,13.091l-2.13109 -0.608882c0.101764,-3.75506 0.304725,-7.61131 1.52221,-12.4821l2.13109 0z"/>
  <path fill="#8C0000" d="M255.784 329.396c1.42073,18.3679 0,32.2708 -4.26218,41.7084 -4.05921,-6.29178 -5.6829,-15.0191 -4.87106,-26.1819l2.43553 0.913323 0.304441 8.21991 1.52221 0.304441 0.608882 -2.13109 1.21776 3.04441c3.04328,-7.49906 2.73714,-14.9956 0.909071,-22.4932l2.13534 -3.38429z"/>
  <path fill="#8C0000" d="M297.797 401.548c-2.7394,-21.9583 -1.92728,-46.1361 1.82665,-72.1525 -6.24388,25.9294 -5.32999,49.4722 -1.82665,72.1525z"/>
  <path fill="#8C0000" d="M304.799 401.853c-2.02961,-12.1776 -2.84145,-25.979 -2.43553,-41.404 -2.84145,14.2073 -2.02961,28.0086 2.43553,41.404z"/>
  <path fill="#8C0000" d="M306.626 329.091c0.314079,9.5023 -2.50725,20.1852 -3.34885,29.2263 3.75477,-10.6554 3.55181,-17.962 3.34885,-29.2263z"/>
  <path fill="#8C0000" d="M313.628 330.005c-6.64356,24.5055 -5.76085,46.4386 4.87106,66.3682l0.304441 6.6977c-12.0566,-24.0744 -15.7604,-45.3847 -5.1755,-73.0659z"/>
  <path fill="#8C0000" d="M317.89 329.091c-1.72091,8.97251 -4.89629,16.0169 -4.75682,27.8181 0.0833386,7.07074 4.85575,16.9501 6.88791,27.5902l2.43553 0.304441c4.42063,-7.38567 8.49912,-16.0427 9.05216,-26.0768 0.487843,-8.85345 -2.30712,-18.8476 -2.35446,-29.0271l-3.04441 0c3.70403,15.8057 4.10967,29.9619 -0.304441,41.7084l-3.04441 0.608882c-0.811843,-3.95773 -4.97254,-4.56662 -5.47994,-8.21991 -1.92813,-10.8584 -1.0148,-22.5286 2.73997,-35.0107l-2.13109 0.304441z"/>
  <path fill="#8C0000" d="M334.33 330.005c-2.94293,23.1375 9.64063,27.0953 -8.82879,69.4126l2.13109 3.04441c17.6919,-37.6498 6.28838,-50.7303 8.52435,-73.3703l-1.82665 0.913323z"/>
  <path fill="#8C0000" d="M342.246 329.396c-0.938268,13.0405 -0.887528,26.7404 0.608882,41.404 -4.35005,-4.58022 -5.28803,-36.8255 -0.608882,-41.404z"/>
  <path fill="#8C0000" d="M334.635 402.766c3.19691,-8.67685 5.42977,-18.3178 7.00215,-28.6175 0.507402,14.0043 -1.82665,23.5434 -7.00215,28.6175z"/>
  <path fill="#8C0000" d="M346.203 338.833l0.608882 -7.00215c-0.608882,2.73997 -1.72517,5.37846 -0.608882,7.00215z"/>
  <line fill="none" stroke="#8C0000" stroke-width="0.992126" x1="396.741" y1="410.073" x2="400.394" y2= "410.377" />
  <line fill="none" stroke="#8C0000" stroke-width="0.992126" x1="395.523" y1="407.333" x2="398.263" y2= "407.333" />
  <path fill="#8C0000" d="M353.206 400.635c10.4525,-28.2115 -0.10148,-41.8099 2.13109,-64.5415 2.95597,25.7505 2.11833,41.7334 -2.13109,64.5415z"/>
  <path fill="#8C0000" d="M362.948 368.973c-1.87767,-11.0361 -2.79099,-24.4823 -3.04441,-39.5773 -1.0148,18.8753 0,32.0678 3.04441,39.5773z"/>
  <path fill="#8C0000" d="M364.47 372.931c-1.11628,2.48627 -2.00438,9.61541 -3.19663,15.9452 -1.19225,6.32948 -2.68923,11.8604 -2.58775,13.5856 3.55181,-7.00215 5.47994,-16.8457 5.78438,-29.5308z"/>
  <path fill="#8C0000" d="M382.736 328.482c-3.24737,26.6893 -16.5413,24.7612 -19.1798,2.43553 -1.67414,26.2324 17.0994,31.4076 22.2242,-2.43553l-3.04441 0z"/>
  <path fill="#8C0000" d="M372.994 402.157c0.737008,-42.0126 7.78933,-30.1394 14.3087,-61.1927l-0.608882 -7.61103c-7.91547,41.5055 -18.5709,26.0805 -13.6998,68.8037z"/>
  <path fill="#8C0000" d="M376.343 401.853c3.34885,-10.9599 1.82665,-21.9198 9.13323,-41.0995l0.304441 -8.21991c-1.47458,7.70599 -5.38498,16.0214 -6.85956,23.7274 -1.67102,8.73355 -0.907087,16.8585 -2.57811,25.592z"/>
  <polygon fill="#8C0000" points="237.518,457.261 239.048,457.919 239.04,466.394 "/>
  <polygon fill="#8C0000" points="243.911,456.348 243.911,476.745 245.129,476.441 245.472,456.382 "/>
  <path fill="#8C0000" d="M250.609 456.956l0.913323 17.0487c1.31924,2.02961 3.04441,2.43553 5.1755,1.21776l5.78438 -18.2665 -2.13109 0 -4.56662 14.9176 -3.04441 -1.52221 -2.13109 -13.3954z"/>
  <path fill="#8C0000" d="M269.484 456.956c-2.13477,4.25991 -2.84372,9.2333 -3.34885,14.3087 -0.10148,-5.6829 0.10148,-9.53915 1.52221,-14.3087l1.82665 0z"/>
  <path fill="#8C0000" d="M273.138 474.31l2.13109 -17.962c-3.45033,4.1607 -3.24737,11.0614 -2.13109,17.962z"/>
  <polygon fill="#8C0000" points="277.4,457.261 278.922,460.305 278.922,475.527 280.14,458.479 281.662,457.261 "/>
  <polygon fill="#8C0000" points="292.622,457.261 290.491,460.001 288.664,456.956 "/>
  <path fill="#8C0000" d="M289.882 468.221l0.913323 -6.08882c-0.304441,2.02961 1.52221,4.6681 -0.913323,6.08882z"/>
  <path fill="#8C0000" d="M296.884 456.652c-0.405921,7.30659 -1.21776,13.3954 -2.43553,18.2665 2.63849,-4.56662 3.14589,-12.1776 4.26218,-18.2665l-1.82665 0z"/>
  <path fill="#8C0000" d="M303.277 456.956c1.62369,7.71251 0.811843,13.8013 -2.43553,18.2665 2.00891,-1.76032 1.27361,-8.43903 4.26218,-18.2665l-1.82665 0z"/>
  <path fill="#8C0000" d="M309.062 456.956c-0.405921,7.30659 -0.913323,13.6998 -2.13109,18.5709 2.63849,-4.56662 2.84145,-12.7865 3.95773,-18.8753l-1.82665 0.304441z"/>
  <polygon fill="#8C0000" points="315.15,456.956 316.673,475.223 319.413,474.918 322.153,463.045 317.586,464.872 317.281,456.956 "/>
  <polygon fill="#8C0000" points="323.37,456.652 323.066,460.001 326.11,456.348 "/>
  <path fill="#8C0000" d="M326.415 475.223c-0.0507402,-5.83512 0.659622,-11.9242 3.04441,-18.5709 -2.79099,5.47966 -4.3132,11.4667 -3.04441,18.5709z"/>
  <path fill="#8C0000" d="M331.895 474.918c0.659906,-5.47994 0.355748,-8.72759 1.82665,-15.8309 -2.08035,5.47937 -2.18183,8.72646 -1.82665,15.8309z"/>
  <path fill="#8C0000" d="M337.679 470.047c0.965764,-5.17436 -0.0476221,-6.39213 0.913323,-14.0043 -1.67443,5.47937 -0.862583,6.89953 -0.913323,14.0043z"/>
  <path fill="#8C0000" d="M348.334 476.745c-1.48054,-6.75695 -1.20217,-13.4127 -0.913323,-20.0931 0,7.50955 0.913323,13.4969 2.73997,19.7887l-1.82665 0.304441z"/>
  <path fill="#8C0000" d="M352.292 475.832c-1.20274,-5.48986 -1.85329,-13.9578 -1.67187,-19.3816 -1.1761,0.270709 1.00885,1.45417 1.06299,0.201827 0,7.50955 0.608882,12.5836 2.43553,18.8753l-1.82665 0.304441z"/>
  <path fill="#8C0000" d="M356.25 476.136c-2.2218,-4.98076 -3.07361,-13.957 -2.28076,-19.6861 -1.1761,0.270709 1.00885,1.45417 1.06299,0.201827 -0.305291,7.81541 1.01254,13.0927 3.34885,18.8753l-2.13109 0.608882z"/>
  <path fill="#8C0000" d="M362.948 476.136c1.31811,-3.03903 3.34829,-8.21679 5.47994,-13.6998 -1.0148,8.42287 -2.84145,13.3954 -5.47994,13.6998z"/>
  <polygon fill="#8C0000" points="370.559,456.043 368.428,459.088 368.428,455.739 "/>
  <path fill="#8C0000" d="M371.168 466.09c-0.175748,2.81424 0.0810709,5.19591 -1.82665,9.74212l-2.16057 -0.229606c1.43065,-2.66343 3.36841,-6.03723 3.98721,-9.51251z"/>
  <polygon fill="#8C0000" points="371.168,456.348 371.776,464.263 372.994,456.043 "/>
  <path fill="#8C0000" d="M358.685 456.652c-0.202961,5.78438 1.21776,9.94508 4.26218,12.4821 0.405921,-4.6681 2.63849,-8.11843 3.95773,-12.1776l-2.73997 0.304441c-0.405921,6.7989 -2.73997,2.84117 -2.73997,0l-2.73997 -0.608882z"/>
  <line fill="none" stroke="#8C0000" stroke-width="0.992126" x1="181.805" y1="330.005" x2="181.805" y2= "328.178" />
  <line fill="none" stroke="#8C0000" stroke-width="0.992126" x1="185.405" y1="330.005" x2="185.405" y2= "328.178" />
  <line fill="none" stroke="#8C0000" stroke-width="0.992126" x1="189.005" y1="330.005" x2="189.005" y2= "328.178" />
  <line fill="none" stroke="#8C0000" stroke-width="0.992126" x1="196.205" y1="330.005" x2="196.205" y2= "328.178" />
  <line fill="none" stroke="#8C0000" stroke-width="0.992126" x1="199.805" y1="330.005" x2="199.805" y2= "328.178" />
  <line fill="none" stroke="#8C0000" stroke-width="0.992126" x1="230.074" y1="330.005" x2="230.074" y2= "328.178" />
  <line fill="none" stroke="#8C0000" stroke-width="0.992126" x1="222.874" y1="330.005" x2="222.874" y2= "328.178" />
  <line fill="none" stroke="#8C0000" stroke-width="0.992126" x1="237.274" y1="330.005" x2="237.274" y2= "328.178" />
  <line fill="none" stroke="#8C0000" stroke-width="0.992126" x1="231.543" y1="458.996" x2="231.543" y2= "457.169" />
  <line fill="none" stroke="#8C0000" stroke-width="0.992126" x1="224.343" y1="458.996" x2="224.343" y2= "457.169" />
  <line fill="none" stroke="#8C0000" stroke-width="0.992126" x1="209.943" y1="458.996" x2="209.943" y2= "457.169" />
  <line fill="none" stroke="#8C0000" stroke-width="0.992126" x1="202.743" y1="458.996" x2="202.743" y2= "457.169" />
  <line fill="none" stroke="#8C0000" stroke-width="0.992126" x1="305.674" y1="330.005" x2="305.674" y2= "328.178" />
  <line fill="none" stroke="#8C0000" stroke-width="0.992126" x1="217.729" y1="269.116" x2="217.425" y2= "272.465" />
  <path fill="#8C0000" d="M224.731 272.465l-0.608882 -13.6998c-1.0148,5.1755 -1.42073,9.74212 0.608882,13.6998z"/>
  <path fill="#8C0000" d="M232.647 273.378c-0.10148,-5.98734 0.405921,-12.2791 -0.304441,-17.962 -0.507402,6.29178 -1.31924,11.9747 0.304441,17.962z"/>
  <path fill="#8C0000" d="M240.867 271.856c0.401669,-4.86936 -0.510236,-13.8005 -0.608882,-19.7887 -0.507402,6.29178 -1.0148,13.8013 0.608882,19.7887z"/>
  <path fill="#8C0000" d="M246.042 261.81c3.0464,0.804756 5.89011,2.22095 7.30659,7.91547 1.22598,-13.1307 -5.27188,-22.3495 -7.30659,-7.91547z"/>
  <path fill="#8C0000" d="M257.915 248.11c3.04469,1.34504 4.76958,8.29616 4.56662,23.442l-2.43553 -4.87106c1.11628,-8.32139 -0.507402,-14.2073 -3.04441,-16.7443l0.913323 -1.82665z"/>
  <path fill="#8C0000" d="M269.789 250.241c-0.608882,9.64063 0,17.2517 1.82665,22.8331 -4.1607,-4.56662 -4.46514,-14.0043 -1.82665,-22.8331z"/>
  <path fill="#8C0000" d="M278.009 248.719l1.21776 24.6597 -2.73997 -2.43553c0.507402,-7.40807 -0.202961,-13.2939 1.52221,-22.2242z"/>
  <path fill="#8C0000" d="M284.706 249.023c1.62369,7.71251 1.42073,16.0339 2.13109,24.0508l-2.13109 -2.73997 0 -21.3109z"/>
  <path fill="#8C0000" d="M303.886 273.378c-2.18239,-7.25585 -3.60312,-15.2728 -3.34885,-24.9642l-2.13109 0c0.405638,9.03175 1.82608,17.5555 5.47994,24.9642z"/>
  <path fill="#8C0000" d="M321.239 273.987c-3.55181,-5.58142 -5.78438,-14.3087 -6.08882,-25.5731l2.43553 1.21776c0.354614,8.32139 2.07978,16.0336 3.65329,24.3553z"/>
  <path fill="#8C0000" d="M311.193 273.987c-3.55181,-5.58142 -5.47994,-14.0043 -5.78438,-25.2686l2.43553 1.21776c-0.254268,8.01695 1.16646,16.0336 3.34885,24.0508z"/>
  <path fill="#8C0000" d="M328.85 273.987c3.55181,-5.58142 5.47994,-14.0043 5.78438,-25.2686l-2.43553 1.21776c0.254268,8.01695 -1.16646,16.0336 -3.34885,24.0508z"/>
  <path fill="#8C0000" d="M335.548 273.074c3.55181,-5.58142 5.47994,-14.0043 5.78438,-25.2686l-2.43553 1.21776c0.254268,8.01695 -1.16646,16.0336 -3.34885,24.0508z"/>
  <path fill="#8C0000" d="M342.55 274.596c3.98353,-4.28769 5.86063,-12.8628 5.78438,-25.2686l-2.43553 1.21776c0.628725,8.01667 -0.728221,16.033 -3.34885,24.0508z"/>
  <path fill="#8C0000" d="M347.421 273.683c3.55181,-5.58142 5.47994,-14.0043 5.78438,-25.2686l-2.43553 1.21776c0.660473,8.01667 -0.760252,16.0333 -3.34885,24.0508z"/>
  <polygon fill="#8C0000" points="365.688,245.674 362.948,248.719 362.643,273.074 364.165,272.77 "/>
  <path fill="#8C0000" d="M370.254 242.63c-0.169795,10.0466 -0.602929,20.0925 0.913323,30.1397l-2.43553 0c-0.405921,-10.5035 0.304725,-20.4486 1.52221,-30.1397z"/>
  <polygon fill="#8C0000" points="394.914,249.328 392.783,258.156 393.392,260.896 394.61,258.765 396.849,249.93 "/>
  <polygon fill="#8C0000" points="393.392,261.81 391.565,262.114 387.607,272.77 391.565,272.161 "/>
  <path fill="#8C0000" d="M376.039 240.499l-1.82665 3.65329c-1.36998,27.5009 5.42863,36.6336 15.2221,17.0487l-0.304441 -3.95773c-5.5817,8.62583 -13.2942,16.4398 -13.091,-16.7443z"/>
  <polygon fill="#8C0000" points="398.872,223.146 390.043,254.808 400.698,223.45 "/>
  <path fill="#8C0000" d="M379.996 231.061l1.21776 -0.913323c4.35799,17.5365 7.41572,9.47481 19.1798,-22.8331l0.913323 1.52221c-14.0502,42.0001 -18.595,43.096 -21.3109,22.2242z"/>
  <path fill="#8C0000" d="M411.049 49.3098c4.69928,79.7256 -29.8777,69.6331 -29.8352,179.62 -7.81399,-99.4508 34.3004,-99.6537 27.7041,-180.534l2.13109 0.913323z"/>
  <path fill="#8C0000" d="M416.834 47.1787l-1.82665 0.304441c1.21776,79.865 -33.793,98.8419 -25.5731,167.443 28.6444,-51.6906 18.1287,-60.4231 25.2958,-90.7923 6.94687,-29.4353 17.9683,-54.2693 26.4592,-82.7391l-3.95773 0.913323c-3.1252,25.6442 -15.2518,46.1515 -23.0584,72.3739 -9.80363,32.9315 -0.337606,51.6067 -16.8233,78.02l-1.82665 -1.82665 -2.13109 3.95773c-12.3718,-21.8234 27.1916,-85.3878 23.442,-147.654z"/>
  <path fill="#8C0000" d="M414.398 135.467c4.69984,-20.8097 11.3343,-42.0069 20.0931,-63.6282 -11.7207,24.558 -18.114,45.5644 -20.0931,63.6282z"/>
  <path fill="#8C0000" d="M403.743 157.082l0 -9.43767 -1.52221 -0.304441 -2.13109 7.30659c0.913323,-1.62369 3.65329,1.31924 3.65329,2.43553z"/>
  <path fill="#8C0000" d="M401.916 166.215l-3.32703 6.36152 -0.630709 -9.10148c-1.47147,6.54548 -2.18183,12.3299 -1.21776,16.4398 2.3366,-2.73288 4.46882,-6.07748 5.1755,-13.6998z"/>
  <path fill="#8C0000" d="M403.438 49.3098c0.191055,36.7237 -2.32073,59.8867 -17.3531,91.9412 16.7542,-28.0032 21.1312,-59.2804 17.3531,-91.9412z"/>
  <path fill="#8C0000" d="M390.956 113.547c4.97339,-13.3197 7.3063,-29.6073 5.78438,-50.2328 4.54139,22.3512 1.85216,38.4355 -5.78438,50.2328z"/>
  <path fill="#8C0000" d="M432.36 44.7432c-0.811843,6.54548 -2.13109,12.3299 -4.56662,16.4398 -3.55181,2.43553 -5.07402,-2.84145 -4.56662,-15.8309l2.43553 0.304441c-1.21776,6.08882 0,8.52435 3.65329,7.30659l3.04441 -8.21991z"/>
  <path fill="#E5E5E5" d="M350.466 403.984c-38.867,-1.11628 -78.9517,0.202961 -118.428,0.304441 39.4759,-0.10148 79.865,0.710363 118.428,-0.304441z"/>
  <path fill="#E5E5E5" d="M358.077 428.948c-38.867,-1.11628 -78.9517,0.202961 -118.428,0.304441 39.4759,-0.10148 79.865,0.710363 118.428,-0.304441z"/>
  <path fill="#E5E5E5" d="M376.647 301.083c-38.867,-1.11628 -78.9517,0.202961 -118.428,0.304441 39.4759,-0.10148 79.865,0.710363 118.428,-0.304441z"/>
  <path fill="#E5E5E5" d="M378.779 275.205c-38.867,-1.11628 -78.9517,0.202961 -118.428,0.304441 39.4759,-0.10148 79.865,0.710363 118.428,-0.304441z"/>
  <path fill="#E5E5E5" d="M355.032 245.979c-38.867,-1.11628 -78.9517,0.202961 -118.428,0.304441 39.4759,-0.10148 79.865,0.710363 118.428,-0.304441z"/>
 </g>
</svg>
