<?xml version="1.0" encoding="UTF-8" standalone="no"?>
<!-- Created with Inkscape (http://www.inkscape.org/) -->
<svg
   xmlns:dc="http://purl.org/dc/elements/1.1/"
   xmlns:cc="http://web.resource.org/cc/"
   xmlns:rdf="http://www.w3.org/1999/02/22-rdf-syntax-ns#"
   xmlns:svg="http://www.w3.org/2000/svg"
   xmlns="http://www.w3.org/2000/svg"
   xmlns:sodipodi="http://sodipodi.sourceforge.net/DTD/sodipodi-0.dtd"
   xmlns:inkscape="http://www.inkscape.org/namespaces/inkscape"
   width="489.66333"
   height="554.63031"
   id="svg1901"
   sodipodi:version="0.32"
   inkscape:version="0.45.1"
   sodipodi:docname="Hummpilan vaakuna.svg"
   sodipodi:docbase="D:\Eigene Datein\AR\tx\Kuwat\SVG muokkaus\Valmiit"
   version="1.0"
   inkscape:output_extension="org.inkscape.output.svg.inkscape"
   inkscape:export-filename="D:\Eigene Datein\AR\tx\Kuwat\SVG muokkaus\Valmiit\Hummpilan vaakuna_w.png"
   inkscape:export-xdpi="90"
   inkscape:export-ydpi="90">
  <defs
     id="defs1903" />
  <sodipodi:namedview
     id="base"
     pagecolor="#ffffff"
     bordercolor="#666666"
     borderopacity="1.0"
     inkscape:pageopacity="0.0"
     inkscape:pageshadow="2"
     inkscape:zoom="1.4"
     inkscape:cx="343.05159"
     inkscape:cy="250.45248"
     inkscape:document-units="px"
     inkscape:current-layer="layer1"
     gridtolerance="10000"
     inkscape:window-width="1680"
     inkscape:window-height="950"
     inkscape:window-x="0"
     inkscape:window-y="60"
     width="490px"
     height="555px"
     showgrid="false" />
  <metadata
     id="metadata1906">
    <rdf:RDF>
      <cc:Work
         rdf:about="">
        <dc:format>image/svg+xml</dc:format>
        <dc:type
           rdf:resource="http://purl.org/dc/dcmitype/StillImage" />
      </cc:Work>
    </rdf:RDF>
  </metadata>
  <g
     inkscape:label="Taso 1"
     inkscape:groupmode="layer"
     id="layer1"
     style="opacity:1"
     transform="translate(-0.3899603,-497.61284)">
    <g
       style="opacity:1"
       id="g4278"
       transform="matrix(4.9977533,0,0,5.0002375,-1480.7701,-3306.5189)">
      <path
         style="opacity:1;fill:#ad8a2e;fill-opacity:1"
         d="M 338.25041,513.53182 C 320.84749,508.03108 307.11874,492.72271 303.80088,475.11855 C 303.24253,472.15598 302.78569,454.94348 302.78569,436.86855 L 302.78727,403.964 C 335.44577,404.03387 368.10426,403.97167 400.76277,403.96756 C 400.76389,405.58526 400.77141,422.48299 400.7596,440.02252 C 400.75133,466.39664 400.5814,473.00474 399.24953,478.14459 C 394.83859,495.16697 382.06591,508.65549 365.85419,513.41158 C 359.34686,515.32066 344.11967,515.38699 338.25041,513.53182 z "
         id="path3163"
         sodipodi:nodetypes="cscccsssc"
         transform="translate(-6.4205092,356.82684)" />
      <path
         id="path2190"
         d="M 345.53125,764.3125 L 345.46875,764.34375 L 298.78125,794.28125 L 300.12914,798.20088 L 303.875,795.96875 L 307.40625,801.5625 L 318.21875,794.78125 L 318.03125,863.46875 L 326.8125,868.5 L 326.8125,810.40625 L 342.75,810.40625 L 343.03125,815.625 C 341.86269,816.07409 341.0625,816.90964 341.0625,817.84375 C 341.0625,818.72205 341.7585,819.50588 342.8125,819.96875 C 340.57349,820.73044 338.80271,822.59066 338.03125,824.9375 L 337.0625,824.9375 L 335.53125,835.46875 C 334.91377,838.18442 333.52805,842.37446 330.11069,842.08482 L 330.09375,842.09375 L 329.28125,845.71875 L 329.25,845.875 C 329.21822,845.98897 329.16707,846.11206 329.15625,846.21875 L 328.5625,848.875 L 340.78125,848.875 C 340.85699,850.73145 342.01536,852.26945 343.625,852.875 C 343.61503,852.92949 343.59375,852.97417 343.59375,853.03125 C 343.59375,853.58571 344.08375,854.03125 344.6875,854.03125 C 345.26857,854.03125 345.74633,853.61935 345.78125,853.09375 C 347.78558,852.76048 349.31865,851.02237 349.40625,848.875 L 361.78125,848.875 L 360.34375,842.09375 C 356.9182,842.43144 356.20623,838.93707 355.28125,836.125 L 353.21875,824.9375 L 352.15625,824.9375 C 351.38508,822.59155 349.61281,820.73098 347.375,819.96875 C 348.429,819.50588 349.09375,818.72206 349.09375,817.84375 L 349.09375,817.78125 C 349.06939,816.8257 348.22584,816.02293 347,815.59375 L 347.3125,810.40625 L 363.9375,810.40625 L 363.9375,868.5625 L 372.21875,864.21875 L 372.53125,794.65625 L 383.59375,801.59375 L 387.125,796 L 390.78713,798.43415 L 392.21875,794.3125 L 345.53125,764.375 L 345.53125,764.3125 z M 345.46875,777.65625 L 363.9375,789.25 L 363.9375,800.4375 L 348.46875,800.4375 C 347.81087,798.88915 346.5119,797.81248 344.96875,797.8125 C 343.41812,797.8125 342.06074,798.8788 341.40625,800.4375 L 326.8125,800.4375 L 326.8125,789.375 L 345.46875,777.65625 z "
         style="opacity:1;fill:#000000"
         sodipodi:nodetypes="ccccccccccccsccccccccccccssccccccccccccccccccccccccccscccc" />
      <path
         style="fill:#000000;fill-opacity:1;fill-rule:evenodd;stroke:none;stroke-width:1px;stroke-linecap:butt;stroke-linejoin:miter;stroke-opacity:1"
         d="M 344.34375,852.8125 C 344.34375,852.8125 341.65518,864.56351 335.3793,871.10711 L 336.42855,871.2366 C 343.00795,864.37652 345.34375,853 345.34375,853 L 344.34375,852.8125 z "
         id="path3178"
         sodipodi:nodetypes="ccccc" />
    </g>
  </g>
</svg>
