<?xml version="1.0" encoding="UTF-8" standalone="no"?>
<!-- Created with Inkscape (http://www.inkscape.org/) -->
<svg
   xmlns:dc="http://purl.org/dc/elements/1.1/"
   xmlns:cc="http://web.resource.org/cc/"
   xmlns:rdf="http://www.w3.org/1999/02/22-rdf-syntax-ns#"
   xmlns:svg="http://www.w3.org/2000/svg"
   xmlns="http://www.w3.org/2000/svg"
   xmlns:sodipodi="http://inkscape.sourceforge.net/DTD/sodipodi-0.dtd"
   xmlns:inkscape="http://www.inkscape.org/namespaces/inkscape"
   id="svg1382"
   sodipodi:version="0.32"
   inkscape:version="0.43"
   width="500"
   height="580"
   sodipodi:docbase="I:\Wikipedia\Suomi\Vaakunat"
   sodipodi:docname="Hyvinkaa.vaakuna.svg"
   version="1.0">
  <metadata
     id="metadata1387">
    <rdf:RDF>
      <cc:Work
         rdf:about="">
        <dc:format>image/svg+xml</dc:format>
        <dc:type
           rdf:resource="http://purl.org/dc/dcmitype/StillImage" />
      </cc:Work>
    </rdf:RDF>
  </metadata>
  <defs
     id="defs1385" />
  <sodipodi:namedview
     inkscape:window-height="938"
     inkscape:window-width="1280"
     inkscape:pageshadow="2"
     inkscape:pageopacity="0.0"
     borderopacity="1.0"
     bordercolor="#666666"
     pagecolor="#ffffff"
     id="base"
     showgrid="true"
     inkscape:grid-points="true"
     gridtolerance="1px"
     gridspacingy="2px"
     gridspacingx="2px"
     inkscape:zoom="1.0025097"
     inkscape:cx="540.36336"
     inkscape:cy="315.02545"
     inkscape:window-x="-4"
     inkscape:window-y="-4"
     inkscape:current-layer="svg1382" />
  <path
     style="fill:#3e4ac6;fill-opacity:1;fill-rule:evenodd;stroke:#000000;stroke-width:1.00504291;stroke-linecap:butt;stroke-linejoin:miter;stroke-miterlimit:4;stroke-dasharray:none;stroke-opacity:1"
     d="M 4,5.4780784 L 4,343.47807 C 4,343.47807 26.222447,575.47807 252.48735,575.96521 C 478.76568,576.45238 502.99493,333.47807 502.99493,333.47807 L 502.99493,5.4780784 L 4,5.4780784 z "
     id="path1391"
     sodipodi:nodetypes="cczccc" />
  <path
     id="path2266"
     style="fill:#f7bd31;fill-opacity:1;fill-rule:evenodd;stroke:#4a3910;stroke-width:3.01512861;stroke-linecap:butt;stroke-linejoin:miter;stroke-miterlimit:4;stroke-opacity:1"
     d="M 252.48735,435.47807 C 215.96248,435.47807 185.82001,441.47807 145.41557,441.47807 C 111.07178,441.47807 54.505561,417.47807 36.323558,379.47807 C 30.785947,367.90458 54.505561,365.47807 70.667339,367.47807 C 88.708937,369.7107 92.889787,375.47807 119.15267,375.47807 C 147.43579,375.47807 197.94135,335.47807 252.48735,335.47807 C 307.03336,335.47807 357.53891,375.47807 385.82203,375.47807 C 412.08492,375.47807 416.26576,369.7107 434.30736,367.47807 C 450.46914,365.47807 474.18875,367.90458 468.65114,379.47807 C 450.46914,417.47807 393.90292,441.47807 359.55913,441.47807 C 319.15468,441.47807 289.01221,435.47807 252.48735,435.47807 z M 252.48735,421.47807 C 252.48735,421.47807 206.02224,421.47807 187.84024,419.47807 C 177.73913,411.47807 179.75935,399.47808 179.75935,399.47808 L 199.96157,399.47807 L 199.96157,385.47807 L 179.75935,385.47807 C 179.75935,385.47807 179.75935,373.47807 187.84024,365.47807 C 204.00201,363.47807 252.48735,363.47807 252.48735,363.47807 C 252.48735,363.47807 300.97269,363.47807 317.13446,365.47807 C 325.21535,373.47807 325.21535,385.47807 325.21535,385.47807 L 305.01314,385.47807 L 305.01314,399.47807 L 325.21535,399.47808 C 325.21535,399.47808 327.23557,411.47807 317.13446,419.47807 C 298.95247,421.47807 252.48735,421.47807 252.48735,421.47807 z "
     sodipodi:nodetypes="csssszsssszccccccccccccccc" />
  <path
     sodipodi:nodetypes="csscc"
     d="M 90.839065,427.31694 C 68.296295,416.53422 46.097326,399.90504 36.323558,379.47807 C 30.785947,367.90458 54.505561,365.47807 70.667339,367.47807 C 81.349339,368.79996 88.50602,371.60865 96.93023,373.47807 C 96.93023,373.47807 90.869564,427.47807 90.839065,427.31694 z "
     style="fill:#ffffef;fill-opacity:1;fill-rule:evenodd;stroke:#4a3910;stroke-width:3.01512861;stroke-linecap:butt;stroke-linejoin:miter;stroke-miterlimit:4;stroke-opacity:1"
     id="path3148" />
  <path
     id="path3150"
     style="fill:#ffffef;fill-opacity:1;fill-rule:evenodd;stroke:#4a3910;stroke-width:3.01512861;stroke-linecap:butt;stroke-linejoin:miter;stroke-miterlimit:4;stroke-opacity:1"
     d="M 414.13564,427.31694 C 436.67841,416.53422 458.87737,399.90504 468.65115,379.47807 C 474.18875,367.90458 450.46915,365.47807 434.30737,367.47807 C 423.62536,368.79996 416.46868,371.60865 408.04448,373.47807 C 408.04448,373.47807 414.10515,427.47807 414.13564,427.31694 z "
     sodipodi:nodetypes="csscc" />
  <rect
     style="opacity:1;color:#000000;fill:#ffffef;fill-opacity:1;fill-rule:evenodd;stroke:#181821;stroke-width:3.01512861;stroke-linecap:round;stroke-linejoin:round;marker:none;marker-start:none;marker-mid:none;marker-end:none;stroke-miterlimit:4;stroke-dasharray:none;stroke-dashoffset:0;stroke-opacity:1;visibility:visible;display:inline;overflow:visible"
     id="rect3152"
     width="16.161779"
     height="38"
     x="244.40646"
     y="373.47809"
     rx="6"
     ry="6.8896003" />
  <rect
     style="opacity:1;color:#000000;fill:#ffffef;fill-opacity:1;fill-rule:evenodd;stroke:#181821;stroke-width:3.01512861;stroke-linecap:round;stroke-linejoin:round;marker:none;marker-start:none;marker-mid:none;marker-end:none;stroke-miterlimit:4;stroke-dasharray:none;stroke-dashoffset:0;stroke-opacity:1;visibility:visible;display:inline;overflow:visible"
     id="rect3154"
     width="16.161779"
     height="34"
     x="228.24467"
     y="375.47809"
     rx="6"
     ry="6.8896003" />
  <rect
     style="opacity:1;color:#000000;fill:#ffffef;fill-opacity:1;fill-rule:evenodd;stroke:#181821;stroke-width:3.01512861;stroke-linecap:round;stroke-linejoin:round;marker:none;marker-start:none;marker-mid:none;marker-end:none;stroke-miterlimit:4;stroke-dasharray:none;stroke-dashoffset:0;stroke-opacity:1;visibility:visible;display:inline;overflow:visible"
     id="rect3156"
     width="16.161779"
     height="34"
     x="260.56824"
     y="375.47809"
     rx="6"
     ry="6.8896003" />
  <rect
     style="opacity:1;color:#000000;fill:#ffffef;fill-opacity:1;fill-rule:evenodd;stroke:#181821;stroke-width:3.01512861;stroke-linecap:round;stroke-linejoin:round;marker:none;marker-start:none;marker-mid:none;marker-end:none;stroke-miterlimit:4;stroke-dasharray:none;stroke-dashoffset:0;stroke-opacity:1;visibility:visible;display:inline;overflow:visible"
     id="rect3158"
     width="14.141558"
     height="30"
     x="276.73001"
     y="377.47809"
     rx="6"
     ry="6.8896003" />
  <rect
     style="opacity:1;color:#000000;fill:#ffffef;fill-opacity:1;fill-rule:evenodd;stroke:#181821;stroke-width:3.01512861;stroke-linecap:round;stroke-linejoin:round;marker:none;marker-start:none;marker-mid:none;marker-end:none;stroke-miterlimit:4;stroke-dasharray:none;stroke-dashoffset:0;stroke-opacity:1;visibility:visible;display:inline;overflow:visible"
     id="rect3160"
     width="14.141558"
     height="30"
     x="214.10313"
     y="377.47809"
     rx="6"
     ry="6.8896003" />
  <rect
     style="opacity:1;color:#000000;fill:#ffffef;fill-opacity:1;fill-rule:evenodd;stroke:#181821;stroke-width:3.01512861;stroke-linecap:round;stroke-linejoin:round;marker:none;marker-start:none;marker-mid:none;marker-end:none;stroke-miterlimit:4;stroke-dasharray:none;stroke-dashoffset:0;stroke-opacity:1;visibility:visible;display:inline;overflow:visible"
     id="rect3162"
     width="14.141558"
     height="24"
     x="290.87158"
     y="379.47809"
     rx="6"
     ry="6.8896003" />
  <rect
     style="opacity:1;color:#000000;fill:#ffffef;fill-opacity:1;fill-rule:evenodd;stroke:#181821;stroke-width:3.01512861;stroke-linecap:round;stroke-linejoin:round;marker:none;marker-start:none;marker-mid:none;marker-end:none;stroke-miterlimit:4;stroke-dasharray:none;stroke-dashoffset:0;stroke-opacity:1;visibility:visible;display:inline;overflow:visible"
     id="rect3164"
     width="14.141558"
     height="26"
     x="199.96156"
     y="379.47809"
     rx="6"
     ry="6.8896003" />
  <path
     sodipodi:nodetypes="csssszsssszccccccccccccccc"
     d="M 252.48735,295.97807 C 215.96248,295.97807 185.82001,301.97807 145.41557,301.97807 C 111.07178,301.97807 54.505561,277.97807 36.323558,239.97807 C 30.785947,228.40458 54.505561,225.97807 70.667339,227.97807 C 88.708937,230.2107 92.889787,235.97807 119.15267,235.97807 C 147.43579,235.97807 197.94135,195.97807 252.48735,195.97807 C 307.03336,195.97807 357.53891,235.97807 385.82203,235.97807 C 412.08492,235.97807 416.26576,230.2107 434.30736,227.97807 C 450.46914,225.97807 474.18875,228.40458 468.65114,239.97807 C 450.46914,277.97807 393.90292,301.97807 359.55913,301.97807 C 319.15468,301.97807 289.01221,295.97807 252.48735,295.97807 z M 252.48735,281.97807 C 252.48735,281.97807 206.02224,281.97807 187.84024,279.97807 C 177.73913,271.97807 179.75935,259.97808 179.75935,259.97808 L 199.96157,259.97807 L 199.96157,245.97807 L 179.75935,245.97807 C 179.75935,245.97807 179.75935,233.97807 187.84024,225.97807 C 204.00201,223.97807 252.48735,223.97807 252.48735,223.97807 C 252.48735,223.97807 300.97269,223.97807 317.13446,225.97807 C 325.21535,233.97807 325.21535,245.97807 325.21535,245.97807 L 305.01314,245.97807 L 305.01314,259.97807 L 325.21535,259.97808 C 325.21535,259.97808 327.23557,271.97807 317.13446,279.97807 C 298.95247,281.97807 252.48735,281.97807 252.48735,281.97807 z "
     style="fill:#f7bd31;fill-opacity:1;fill-rule:evenodd;stroke:#4a3910;stroke-width:3.01512861;stroke-linecap:butt;stroke-linejoin:miter;stroke-miterlimit:4;stroke-opacity:1"
     id="path3166" />
  <path
     id="path3168"
     style="fill:#ffffef;fill-opacity:1;fill-rule:evenodd;stroke:#4a3910;stroke-width:3.01512861;stroke-linecap:butt;stroke-linejoin:miter;stroke-miterlimit:4;stroke-opacity:1"
     d="M 90.839065,287.81694 C 68.296295,277.03422 46.097326,260.40504 36.323558,239.97807 C 30.785947,228.40458 54.505561,225.97807 70.667339,227.97807 C 81.349339,229.29996 88.50602,232.10865 96.93023,233.97807 C 96.93023,233.97807 90.869564,287.97807 90.839065,287.81694 z "
     sodipodi:nodetypes="csscc" />
  <path
     sodipodi:nodetypes="csscc"
     d="M 414.13564,287.81694 C 436.67841,277.03422 458.87737,260.40504 468.65115,239.97807 C 474.18875,228.40458 450.46915,225.97807 434.30737,227.97807 C 423.62536,229.29996 416.46868,232.10865 408.04448,233.97807 C 408.04448,233.97807 414.10515,287.97807 414.13564,287.81694 z "
     style="fill:#ffffef;fill-opacity:1;fill-rule:evenodd;stroke:#4a3910;stroke-width:3.01512861;stroke-linecap:butt;stroke-linejoin:miter;stroke-miterlimit:4;stroke-opacity:1"
     id="path3170" />
  <rect
     ry="6.8896003"
     rx="6"
     y="233.97809"
     x="244.40646"
     height="38"
     width="16.161779"
     id="rect3172"
     style="opacity:1;color:#000000;fill:#ffffef;fill-opacity:1;fill-rule:evenodd;stroke:#181821;stroke-width:3.01512861;stroke-linecap:round;stroke-linejoin:round;marker:none;marker-start:none;marker-mid:none;marker-end:none;stroke-miterlimit:4;stroke-dasharray:none;stroke-dashoffset:0;stroke-opacity:1;visibility:visible;display:inline;overflow:visible" />
  <rect
     ry="6.8896003"
     rx="6"
     y="235.97809"
     x="228.24467"
     height="34"
     width="16.161779"
     id="rect3174"
     style="opacity:1;color:#000000;fill:#ffffef;fill-opacity:1;fill-rule:evenodd;stroke:#181821;stroke-width:3.01512861;stroke-linecap:round;stroke-linejoin:round;marker:none;marker-start:none;marker-mid:none;marker-end:none;stroke-miterlimit:4;stroke-dasharray:none;stroke-dashoffset:0;stroke-opacity:1;visibility:visible;display:inline;overflow:visible" />
  <rect
     ry="6.8896003"
     rx="6"
     y="235.97809"
     x="260.56824"
     height="34"
     width="16.161779"
     id="rect3176"
     style="opacity:1;color:#000000;fill:#ffffef;fill-opacity:1;fill-rule:evenodd;stroke:#181821;stroke-width:3.01512861;stroke-linecap:round;stroke-linejoin:round;marker:none;marker-start:none;marker-mid:none;marker-end:none;stroke-miterlimit:4;stroke-dasharray:none;stroke-dashoffset:0;stroke-opacity:1;visibility:visible;display:inline;overflow:visible" />
  <rect
     ry="6.8896003"
     rx="6"
     y="237.97809"
     x="276.73001"
     height="30"
     width="14.141558"
     id="rect3178"
     style="opacity:1;color:#000000;fill:#ffffef;fill-opacity:1;fill-rule:evenodd;stroke:#181821;stroke-width:3.01512861;stroke-linecap:round;stroke-linejoin:round;marker:none;marker-start:none;marker-mid:none;marker-end:none;stroke-miterlimit:4;stroke-dasharray:none;stroke-dashoffset:0;stroke-opacity:1;visibility:visible;display:inline;overflow:visible" />
  <rect
     ry="6.8896003"
     rx="6"
     y="237.97809"
     x="214.10313"
     height="30"
     width="14.141558"
     id="rect3180"
     style="opacity:1;color:#000000;fill:#ffffef;fill-opacity:1;fill-rule:evenodd;stroke:#181821;stroke-width:3.01512861;stroke-linecap:round;stroke-linejoin:round;marker:none;marker-start:none;marker-mid:none;marker-end:none;stroke-miterlimit:4;stroke-dasharray:none;stroke-dashoffset:0;stroke-opacity:1;visibility:visible;display:inline;overflow:visible" />
  <rect
     ry="6.8896003"
     rx="6"
     y="239.97809"
     x="290.87158"
     height="24"
     width="14.141558"
     id="rect3182"
     style="opacity:1;color:#000000;fill:#ffffef;fill-opacity:1;fill-rule:evenodd;stroke:#181821;stroke-width:3.01512861;stroke-linecap:round;stroke-linejoin:round;marker:none;marker-start:none;marker-mid:none;marker-end:none;stroke-miterlimit:4;stroke-dasharray:none;stroke-dashoffset:0;stroke-opacity:1;visibility:visible;display:inline;overflow:visible" />
  <rect
     ry="6.8896003"
     rx="6"
     y="239.97809"
     x="199.96156"
     height="26"
     width="14.141558"
     id="rect3184"
     style="opacity:1;color:#000000;fill:#ffffef;fill-opacity:1;fill-rule:evenodd;stroke:#181821;stroke-width:3.01512861;stroke-linecap:round;stroke-linejoin:round;marker:none;marker-start:none;marker-mid:none;marker-end:none;stroke-miterlimit:4;stroke-dasharray:none;stroke-dashoffset:0;stroke-opacity:1;visibility:visible;display:inline;overflow:visible" />
  <path
     id="path3186"
     style="fill:#f7bd31;fill-opacity:1;fill-rule:evenodd;stroke:#4a3910;stroke-width:3.01512861;stroke-linecap:butt;stroke-linejoin:miter;stroke-miterlimit:4;stroke-opacity:1"
     d="M 251.98229,160.13884 C 215.45743,160.13884 185.31496,166.13884 144.91051,166.13884 C 110.56673,166.13884 54.000506,142.13884 35.818503,104.13884 C 30.280891,92.565359 54.000506,90.138849 70.162284,92.138849 C 88.203882,94.371479 92.38473,100.13884 118.64761,100.13884 C 146.93074,100.13884 197.43629,60.138849 251.98229,60.138849 C 306.5283,60.138849 357.03385,100.13884 385.31697,100.13884 C 411.57986,100.13884 415.7607,94.371479 433.80231,92.138849 C 449.96408,90.138849 473.68369,92.565359 468.14608,104.13884 C 449.96408,142.13884 393.39786,166.13884 359.05407,166.13884 C 318.64963,166.13884 288.50716,160.13884 251.98229,160.13884 z M 251.98229,146.13884 C 251.98229,146.13884 205.51718,146.13884 187.33518,144.13884 C 177.23407,136.13884 179.25429,124.13885 179.25429,124.13885 L 199.45651,124.13884 L 199.45651,110.13884 L 179.25429,110.13884 C 179.25429,110.13884 179.25429,98.138849 187.33518,90.138849 C 203.49696,88.138849 251.98229,88.138849 251.98229,88.138849 C 251.98229,88.138849 300.46764,88.138849 316.62941,90.138849 C 324.71029,98.138849 324.71029,110.13884 324.71029,110.13884 L 304.50808,110.13884 L 304.50808,124.13884 L 324.71029,124.13885 C 324.71029,124.13885 326.73052,136.13884 316.62941,144.13884 C 298.44742,146.13884 251.98229,146.13884 251.98229,146.13884 z "
     sodipodi:nodetypes="csssszsssszccccccccccccccc" />
  <path
     sodipodi:nodetypes="csscc"
     d="M 90.334009,151.97771 C 67.79124,141.19499 45.59227,124.56581 35.818503,104.13884 C 30.280891,92.565359 54.000506,90.138849 70.162284,92.138849 C 80.844283,93.460739 88.000964,96.269429 96.425175,98.138849 C 96.425175,98.138849 90.364508,152.13884 90.334009,151.97771 z "
     style="fill:#ffffef;fill-opacity:1;fill-rule:evenodd;stroke:#4a3910;stroke-width:3.01512861;stroke-linecap:butt;stroke-linejoin:miter;stroke-miterlimit:4;stroke-opacity:1"
     id="path3188" />
  <path
     id="path3190"
     style="fill:#ffffef;fill-opacity:1;fill-rule:evenodd;stroke:#4a3910;stroke-width:3.01512861;stroke-linecap:butt;stroke-linejoin:miter;stroke-miterlimit:4;stroke-opacity:1"
     d="M 413.63059,151.97771 C 436.17336,141.19499 458.37232,124.56581 468.14609,104.13884 C 473.68369,92.565359 449.96409,90.138849 433.80232,92.138849 C 423.12031,93.460739 415.96363,96.269429 407.53943,98.138849 C 407.53943,98.138849 413.60009,152.13884 413.63059,151.97771 z "
     sodipodi:nodetypes="csscc" />
  <rect
     style="opacity:1;color:#000000;fill:#ffffef;fill-opacity:1;fill-rule:evenodd;stroke:#181821;stroke-width:3.01512861;stroke-linecap:round;stroke-linejoin:round;marker:none;marker-start:none;marker-mid:none;marker-end:none;stroke-miterlimit:4;stroke-dasharray:none;stroke-dashoffset:0;stroke-opacity:1;visibility:visible;display:inline;overflow:visible"
     id="rect3192"
     width="16.161779"
     height="38"
     x="243.9014"
     y="98.138847"
     rx="6"
     ry="6.8896003" />
  <rect
     style="opacity:1;color:#000000;fill:#ffffef;fill-opacity:1;fill-rule:evenodd;stroke:#181821;stroke-width:3.01512861;stroke-linecap:round;stroke-linejoin:round;marker:none;marker-start:none;marker-mid:none;marker-end:none;stroke-miterlimit:4;stroke-dasharray:none;stroke-dashoffset:0;stroke-opacity:1;visibility:visible;display:inline;overflow:visible"
     id="rect3194"
     width="16.161779"
     height="34"
     x="227.73962"
     y="100.13885"
     rx="6"
     ry="6.8896003" />
  <rect
     style="opacity:1;color:#000000;fill:#ffffef;fill-opacity:1;fill-rule:evenodd;stroke:#181821;stroke-width:3.01512861;stroke-linecap:round;stroke-linejoin:round;marker:none;marker-start:none;marker-mid:none;marker-end:none;stroke-miterlimit:4;stroke-dasharray:none;stroke-dashoffset:0;stroke-opacity:1;visibility:visible;display:inline;overflow:visible"
     id="rect3196"
     width="16.161779"
     height="34"
     x="260.0632"
     y="100.13885"
     rx="6"
     ry="6.8896003" />
  <rect
     style="opacity:1;color:#000000;fill:#ffffef;fill-opacity:1;fill-rule:evenodd;stroke:#181821;stroke-width:3.01512861;stroke-linecap:round;stroke-linejoin:round;marker:none;marker-start:none;marker-mid:none;marker-end:none;stroke-miterlimit:4;stroke-dasharray:none;stroke-dashoffset:0;stroke-opacity:1;visibility:visible;display:inline;overflow:visible"
     id="rect3198"
     width="14.141558"
     height="30"
     x="276.22495"
     y="102.13885"
     rx="6"
     ry="6.8896003" />
  <rect
     style="opacity:1;color:#000000;fill:#ffffef;fill-opacity:1;fill-rule:evenodd;stroke:#181821;stroke-width:3.01512861;stroke-linecap:round;stroke-linejoin:round;marker:none;marker-start:none;marker-mid:none;marker-end:none;stroke-miterlimit:4;stroke-dasharray:none;stroke-dashoffset:0;stroke-opacity:1;visibility:visible;display:inline;overflow:visible"
     id="rect3200"
     width="14.141558"
     height="30"
     x="213.59807"
     y="102.13885"
     rx="6"
     ry="6.8896003" />
  <rect
     style="opacity:1;color:#000000;fill:#ffffef;fill-opacity:1;fill-rule:evenodd;stroke:#181821;stroke-width:3.01512861;stroke-linecap:round;stroke-linejoin:round;marker:none;marker-start:none;marker-mid:none;marker-end:none;stroke-miterlimit:4;stroke-dasharray:none;stroke-dashoffset:0;stroke-opacity:1;visibility:visible;display:inline;overflow:visible"
     id="rect3202"
     width="14.141558"
     height="24"
     x="290.36652"
     y="104.13885"
     rx="6"
     ry="6.8896003" />
  <rect
     style="opacity:1;color:#000000;fill:#ffffef;fill-opacity:1;fill-rule:evenodd;stroke:#181821;stroke-width:3.01512861;stroke-linecap:round;stroke-linejoin:round;marker:none;marker-start:none;marker-mid:none;marker-end:none;stroke-miterlimit:4;stroke-dasharray:none;stroke-dashoffset:0;stroke-opacity:1;visibility:visible;display:inline;overflow:visible"
     id="rect3204"
     width="14.141558"
     height="26"
     x="199.45651"
     y="104.13885"
     rx="6"
     ry="6.8896003" />
  <g
     inkscape:groupmode="layer"
     id="layer1"
     inkscape:label="Layer 1" />
</svg>
