<?xml version="1.0" encoding="UTF-8"?>
<!DOCTYPE svg PUBLIC "-//W3C//DTD SVG 1.1//EN" "http://www.w3.org/Graphics/SVG/1.1/DTD/svg11.dtd">
<!-- Creator: CorelDRAW -->
<svg xmlns="http://www.w3.org/2000/svg" xml:space="preserve" width="500px" height="564px" shape-rendering="geometricPrecision" text-rendering="geometricPrecision" image-rendering="optimizeQuality" fill-rule="evenodd" clip-rule="evenodd"
viewBox="0 0 500 564"
 xmlns:xlink="http://www.w3.org/1999/xlink"
 xmlns:svg="http://www.w3.org/2000/svg"
 version="1.0">
 <g id="Layer_x0020_1">
  <metadata id="CorelCorpID_0Corel-Layer"/>
  <path id="path1937" fill="#0581ED" stroke="black" stroke-width="0.992126" d="M0.683717 1.10721l498.971 -0.116504 -6.65008 298.171c0.383811,352.608 -484.941,352.092 -484.471,0.482457l-7.84942 -298.537z"/>
  <path id="path1937_0" fill="black" d="M495.758 214.454l-2.75329 84.7072c0.383811,352.608 -482.538,351.94 -482.068,0.329669l-2.01969 -76.8101 29.1456 -76.7053 28.3768 76.705c-0.200976,-32.6588 18.9995,-23.3379 18.6857,-48.0991 -0.203811,-16.1283 7.35307,-15.3941 9.69223,-28.6047 7.76126,9.50032 0.515055,27.2429 9.30274,34.9489 13.7633,12.0699 -0.308693,22.3475 18.4711,41.7541l26.5666 -76.7013 28.9811 76.7004c1.06214,-29.8846 21.9155,-24.9968 16.511,-46.747 -2.94605,-11.8565 5.88558,-14.9505 8.24429,-29.952 10.698,14.3994 -1.93096,23.796 12.17,37.1605 9.0156,8.54504 4.36536,21.7298 13.7923,39.5379l27.7739 -76.6976 23.5468 76.6968c3.58469,-20.4684 25.5563,-31.7154 23.1647,-46.5679 -2.28019,-14.1588 7.26945,-10.8893 9.43909,-30.1275 5.84873,11.5934 -5.22992,22.9816 10.5157,35.7027 10.3516,8.36278 -0.64715,22.2662 14.8436,40.9921l27.7739 -76.6934 27.7736 76.6922c2.07553,-22.8322 21.1612,-24.029 17.6978,-43.1382 -2.88227,-15.9029 9.73701,-15.7266 9.47226,-33.5523 7.4024,13.4983 -1.16221,20.3749 11.1603,35.1987 15.6424,18.8175 -0.203528,24.8043 16.6136,41.491l28.3779 -76.6885 18.7484 68.4678z"/>
  <path id="path1937_1" fill="white" d="M491.077 219.205l-1.39323 76.3345c0.384095,352.608 -481.707,352.42 -481.237,0.810709l-2.28983 -87.0832 24.9738 -66.7605 28.3768 76.705c-0.200976,-32.6588 18.9995,-23.3379 18.6857,-48.0991 -0.203811,-16.1283 7.35307,-15.3941 9.69223,-28.6047 7.76126,9.50032 0.515055,27.2429 9.30274,34.9489 13.7633,12.0699 -0.308693,22.3475 18.4711,41.7541l26.5666 -76.7013 28.9811 76.7004c1.06214,-29.8846 21.9155,-24.9968 16.511,-46.747 -2.94605,-11.8565 5.88558,-14.9505 8.24429,-29.952 10.698,14.3994 -1.93096,23.796 12.17,37.1605 9.0156,8.54504 4.36536,21.7298 13.7923,39.5379l27.7739 -76.6976 23.5468 76.6968c3.58469,-20.4684 25.5563,-31.7154 23.1647,-46.5679 -2.28019,-14.1588 7.26945,-10.8893 9.43909,-30.1275 5.84873,11.5934 -5.22992,22.9816 10.5157,35.7027 10.3516,8.36278 -0.64715,22.2662 14.8436,40.9921l27.7739 -76.6934 27.7736 76.6922c2.07553,-22.8322 21.1612,-24.029 17.6978,-43.1382 -2.88227,-15.9029 9.73701,-15.7266 9.47226,-33.5523 7.4024,13.4983 -1.16221,20.3749 11.1603,35.1987 15.6424,18.8175 -0.203528,24.8043 16.6136,41.491l28.3779 -76.6885 20.9988 76.6877z"/>
  <path id="path1937_2" fill="#BF9F4F" d="M495.605 222.827l-2.60051 76.3345c0.383811,352.608 -484.941,352.092 -484.471,0.482457l-2.01969 -76.8101 29.1456 -76.7053 28.3768 76.705c-0.200976,-32.6588 18.9995,-23.3379 18.6857,-48.0991 -0.203811,-16.1283 7.35307,-15.3941 9.69223,-28.6047 7.76126,9.50032 0.515055,27.2429 9.30274,34.9489 13.7633,12.0699 -0.308693,22.3475 18.4711,41.7541l26.5666 -76.7013 28.9811 76.7004c1.06214,-29.8846 21.9155,-24.9968 16.511,-46.747 -2.94605,-11.8565 5.88558,-14.9505 8.24429,-29.952 10.698,14.3994 -1.93096,23.796 12.17,37.1605 9.0156,8.54504 4.36536,21.7298 13.7923,39.5379l27.7739 -76.6976 23.5468 76.6968c3.58469,-20.4684 25.5563,-31.7154 23.1647,-46.5679 -2.28019,-14.1588 7.26945,-10.8893 9.43909,-30.1275 5.84873,11.5934 -5.22992,22.9816 10.5157,35.7027 10.3516,8.36278 -0.64715,22.2662 14.8436,40.9921l27.7739 -76.6934 27.7736 76.6922c2.07553,-22.8322 21.1612,-24.029 17.6978,-43.1382 -2.88227,-15.9029 9.73701,-15.7266 9.47226,-33.5523 7.4024,13.4983 -1.16221,20.3749 11.1603,35.1987 15.6424,18.8175 -0.203528,24.8043 16.6136,41.491l28.3779 -76.6885 20.9988 76.6877z"/>
  <path fill="#644D36" d="M101.772 334.831l124.379 -5.43402c3.2332,-0.00226772 3.8452,-9.16073 -2.11323,-9.35859l0.90567 -44.6797c6.35159,0.00708662 7.46589,-9.3464 2.11323,-10.2643l-129.511 -0.30189c-6.54095,0.503433 -6.23906,10.7677 -0.90567,11.4718l3.92457 46.7929c-5.96466,2.1257 -4.54422,12.4855 1.20756,11.7737z"/>
  <path fill="#644D36" d="M416.643 353.246l-38.0381 -10.868c-1.0063,-3.32051 0.80504,-5.43374 5.43402,-6.33969 8.85544,-16.9058 14.3901,-48.0005 22.038,-57.0572 5.98819,7.99711 10.2152,25.3049 10.5661,63.095l3.92457 5.13213c-0.905953,2.41512 -2.21414,4.42772 -3.92457,6.0378z"/>
  <polygon fill="black" points="254.226,13.9218 242.151,57.9977 210.151,51.3562 231.887,73.696 201.094,102.677 240.943,100.262 251.811,138.3 263.887,99.0548 306.755,106.904 277.774,73.696 308.567,44.1108 270.529,57.9977 "/>
  <polygon fill="white" points="251.811,12.7142 239.736,50.1486 199.886,42.9032 225.245,71.8847 198.679,100.866 236.717,94.2245 248.792,135.282 262.679,89.9981 301.925,100.866 273.547,71.8847 307.963,41.6957 265.094,48.941 "/>
  <polygon fill="#BF9F4F" points="254.226,18.1483 243.962,54.9788 207.132,47.7335 231.887,73.696 205.32,100.262 242.755,95.4321 251.208,130.451 262.076,94.2245 303.736,103.281 275.359,71.2809 301.321,48.3373 267.51,54.3751 "/>
  <path fill="black" d="M414.832 352.318l-36.2268 -5.73591c-15.1569,30.2522 -45.2197,43.6108 -84.5292,46.491l-14.6701 77.9587c68.2926,-5.80933 113.945,-47.7865 135.426,-118.714z"/>
  <path fill="#0581ED" d="M413.624 352.642l-35.0192 -9.66048c-15.1569,30.2522 -45.2197,43.6108 -84.5292,46.491l-11.4525 74.0004 2.39443 3.5331c57.9804,-5.16076 105.301,-43.2216 128.607,-114.364z"/>
  <path fill="#000045" d="M299.812 392.794c-0.691937,18.5794 -2.93103,37.6733 -6.0378,57.0572l1.81134 -0.30189 5.43402 -24.1512 -0.60378 23.5474c1.20756,1.40882 2.81764,1.20756 4.83024,-0.60378l2.41512 -21.4342 1.50945 20.8304c1.61008,1.0063 2.81764,0.80504 3.62268,-0.60378l2.71701 -23.8493 1.81134 21.7361c1.40882,0.80504 2.41512,0.40252 3.0189,-1.20756l1.50945 -22.038 2.71701 19.321c2.01232,2.21358 3.21988,1.71043 3.62268,-0.90567l0.30189 -18.7172 4.52835 17.5096c1.40882,0.40252 3.42142,-0.40252 3.32079,-2.41512l-1.50945 -18.1134 5.73591 16.0002c0.905386,0.905386 4.02492,-0.201827 3.92457,-2.41512l-4.52835 -16.3021 9.0567 13.8869c2.81764,0.20126 4.0252,-0.80504 3.62268,-3.0189l-5.43402 -13.2832 8.45292 10.868c3.0189,1.40882 4.0252,0.40252 3.0189,-3.0189l-4.83024 -9.96237 8.45292 7.54725c2.21386,1.30847 3.22016,0.604063 3.0189,-2.11323l-7.24536 -9.96237 9.66048 7.24536c3.42142,0.704693 4.42772,-0.200976 3.0189,-2.71701l-6.33969 -9.0567 8.75481 6.64158c3.22016,0.60378 4.42772,-0.80504 3.62268,-4.22646l-6.33969 -8.15103 8.15103 5.73591c2.31421,0.40252 3.42114,-0.80504 3.32079,-3.62268l-6.94347 -8.75481 9.0567 5.43402c2.71673,-0.100347 3.82366,-1.40854 3.32079,-3.92457l-6.0378 -7.54725 8.45292 5.13213c1.71071,-0.40252 2.51575,-2.21386 1.81134,-4.22646l-4.83024 -6.64158 6.64158 3.92457c1.81134,-0.301606 2.81764,-1.40854 3.0189,-3.32079l-6.94347 -7.84914 8.45292 3.32079c3.0189,0.70441 2.11323,-1.61008 1.81134,-2.41512l-5.43402 -6.94347 6.0378 1.81134c2.62205,-0.0966615 3.12293,-1.60753 3.32079,-3.32079l-6.94347 -6.94347 8.45292 2.11323 0.60378 -4.22646 -17.3225 -6.02873 -2.03556 -1.83373 24.4902 6.95679c-22.1822,70.6394 -71.7049,106.575 -125.888,109.284 6.7286,-18.5468 11.6544,-40.6741 12.7443,-68.8799l2.04832 -0.85663z"/>
  <path fill="#000045" d="M329.699 409.096l2.26403 6.56618c1.00573,0.502016 1.55934,0.0742678 1.96243,-1.43405l-2.11323 -5.73591c-1.0063,-0.602929 -1.71071,-0.401669 -2.11323,0.60378z"/>
  <path fill="#000045" d="M322.918 410.608l1.63191 7.72867c0.894898,0.867402 1.58995,0.680315 2.08488,-0.501449l-1.44765 -7.66063c-0.932599,-1.16277 -1.9406,-0.615685 -2.26914,0.433418z"/>
  <path fill="#000045" d="M314.993 411.815l0.802205 7.65383c0.795119,0.687118 1.33937,0.896882 1.93436,-0.425764l-0.844158 -7.73632c-0.832252,-0.735307 -1.46324,-0.566079 -1.89241,0.508252z"/>
  <path fill="#000045" d="M307.747 413.551l0.273827 7.50189c0.795685,0.68967 1.21436,0.723969 2.01005,-0.198992l-0.693638 -7.43471c-0.530079,-0.558992 -1.06016,-0.515055 -1.59024,0.131811z"/>
  <path fill="#000045" d="M301.106 413.521l0.122457 6.71585c0.509103,0.382961 1.04343,0.438803 1.75408,-0.585638l-0.19474 -6.2314c-0.460063,-0.368221 -1.02104,-0.334488 -1.6818,0.101197z"/>
  <path fill="#000045" d="M336.72 407.002l3.45402 6.69855c0.907371,-0.106866 2.09055,0.288 2.19062,-1.23137l-3.63203 -6.32835c-1.07291,-0.818646 -1.74387,-0.531496 -2.0126,0.861166z"/>
  <path fill="#000045" d="M343.89 402.423l3.52914 5.76709c1.41109,0.7543 2.31732,0.500315 2.11521,-1.9732l-3.33014 -4.83166c-1.51937,-0.722268 -2.20309,-0.250583 -2.31421,1.03776z"/>
  <path fill="#000045" d="M351.135 398.649l3.75506 5.01336c1.7725,0.247181 2.10047,-0.260221 1.6628,-1.82239l-3.32986 -4.53033c-1.90743,-0.66274 -1.99814,0.388063 -2.088,1.33937z"/>
  <path fill="#000045" d="M358.148 394.821l4.16977 4.31235c1.33654,-0.0555591 1.86888,-0.713764 1.59732,-1.9749l-3.75818 -3.60567c-1.80482,-0.71263 -2.02054,0.16441 -2.00891,1.26822z"/>
  <path fill="#000045" d="M364.416 389.533l3.7321 3.26126c1.3303,-0.205228 2.03216,-0.66189 1.35184,-1.67159l-3.384 -2.66287c-1.47147,-0.546803 -2.03811,-0.189071 -1.69994,1.0732z"/>
  <path fill="#000045" d="M369.995 383.005l5.12533 3.89452c1.23647,-0.315496 1.56784,-1.03351 0.995245,-2.15376l-4.59071 -3.34829c-1.41506,0.133795 -1.92473,0.669827 -1.52986,1.60753z"/>
  <path fill="#000045" d="M375.204 376.771l4.47591 2.7377c1.22882,-0.276095 1.65317,-0.979371 1.27446,-1.65799l-4.28769 -2.60107c-1.97575,-0.324567 -1.70731,0.837071 -1.46268,1.52136z"/>
  <path fill="#000045" d="M382.228 368.934l3.78936 2.27537c0.765071,-0.341575 1.54148,-0.394583 0.891213,-1.74954l-3.54274 -2.11295c-1.18375,0.126709 -1.56302,0.655937 -1.13783,1.58712z"/>
  <path fill="#000045" d="M385.822 363.169l4.30356 1.64183c0.943937,-0.649134 0.983339,-1.39861 0.118205,-2.24873l-3.77178 -1.23449c-1.60469,0.361984 -1.26624,1.0766 -0.649985,1.84139z"/>
  <path fill="#000045" d="M389.52 354.867l4.22816 1.41591c0.871937,-0.522992 1.46608,-1.12054 0.118205,-2.24873l-3.6961 -1.00857c-1.02104,0.312378 -1.23789,0.926079 -0.650268,1.84139z"/>
  <path fill="white" d="M380.443 343.489l-1.83827 -0.507118c-15.1569,30.2522 -45.2197,43.6108 -84.5292,46.491l-0.472819 2.63197c42.7397,-1.56671 69.9222,-16.8905 86.8403,-48.6159z"/>
  <path fill="#CCCCCC" d="M414.53 353.85l-38.0381 -10.868c-1.0063,-3.32051 0.80504,-5.43374 5.43402,-6.33969 8.85544,-16.9058 14.3901,-48.0005 22.038,-57.0572 5.98819,7.99711 10.2152,25.3049 10.5661,63.095l3.92457 5.13213c-0.905953,2.41512 -2.21414,4.42772 -3.92457,6.0378z"/>
  <path fill="white" d="M379.004 343.7l-2.51206 -0.717733c-1.0063,-3.32051 0.80504,-5.43374 5.43402,-6.33969 8.85544,-16.9058 14.3901,-48.0005 22.038,-57.0572l-2.41512 16.3021 1.81134 1.50945 -2.41512 0.60378 3.92457 3.0189 -4.83024 0.90567 0.60378 2.11323 -2.41512 1.20756 4.83024 3.0189 -3.62268 0.60378 3.62268 2.71701 -5.43402 1.20756 4.52835 2.41512 -6.0378 1.50945 4.83024 3.62268 -5.73591 0.60378 5.73591 3.32079 -7.84914 0.60378 6.0378 3.62268 -6.64158 -0.30189 5.13213 4.22646 -6.94347 -0.90567 7.24536 4.22646 -7.84914 -0.90567 6.33969 4.83024 -7.24536 -0.90567c7.62265,5.20753 16.2267,8.78032 26.2644,9.96237l-0.30189 1.50945c-11.0693,-1.30819 -20.6291,-4.42772 -28.6795,-8.45292l-7.4503 1.92529z"/>
  <path fill="#666666" d="M407.888 298c1.96469,15.0449 2.8715,29.7371 0,43.1703l-4.83024 -1.50945c3.32079,-12.8806 1.81134,-28.4783 4.83024,-41.6608z"/>
  <path fill="#CCCCCC" d="M321.548 501.776l-140.681 -0.60378c-4.0252,0.30189 -2.91827,-3.32079 -2.11323,-4.52835l11.7737 -22.6417 36.2268 1.50945c3.72359,-0.502866 6.23934,-2.6161 7.54725,-6.33969l-2.8681 -0.904819c-1.56047,1.00573 -3.72473,0.804473 -6.49248,-0.602646 -1.23817,-0.363118 -2.78221,-1.48422 -1.92019,-3.0566 10.9672,-30.276 20.0702,-63.0947 23.6582,-98.0785l5.73591 1.20756c2.41512,2.21386 3.22016,4.83024 2.41512,7.84914 3.97503,3.43417 20.5793,8.94388 33.2079,11.7737 0.302173,-1.81106 3.1201,-4.6287 7.84914,-3.62268 1.78441,32.2739 -10.9919,88.644 -19.0191,89.3594l-0.30189 3.0189 30.7928 0 14.1888 25.6606z"/>
  <path fill="white" d="M234.302 469.172c-1.30791,3.72359 -3.82366,5.83682 -7.54725,6.33969l-36.2268 -1.50945 -11.7737 22.6417c-0.80504,1.20756 -1.91197,4.83024 2.11323,4.52835l3.92457 0.0170079 2.41512 -2.43213c2.91799,0.803906 5.23248,0.401386 6.94347,-1.20756l-7.54725 -1.81134c-0.401669,-0.251717 -0.702992,-2.01175 0.90567,-2.11323l6.0378 -1.20756 -5.13213 -1.05704c-0.837355,-0.704977 -1.45701,-2.31307 0.90567,-2.56564l7.54725 -0.60378 -5.73591 -2.11323c-1.30649,-0.65367 0.252284,-1.30734 1.05676,-1.50888l13.1321 -0.604347 -11.4718 -2.71701c-1.50945,-1.50945 0.90567,-2.71701 1.50945,-2.71701 37.3805,3.16318 75.968,1.14406 112.442,2.50554l-0.440788 -4.92066 -30.7928 0 -40.7551 0.30189c1.91225,-4.42772 1.4091,-6.84284 -1.50945,-7.24536zm3.79928 -54.7076c-4.38633,17.5825 -9.25371,34.0594 -15.08,50.1435l1.92246 2.14866c6.71698,-16.5532 12.3021,-34.3644 16.6037,-52.5286l-3.44608 0.23641zm11.3627 -47.3488l-2.78447 -0.586205c-1.3663,13.3237 -3.62041,26.3994 -6.49333,39.1558l4.07821 0.391748c2.23909,-9.35859 4.00025,-20.6289 5.43402,-33.2079l-2.41512 0.30189 2.18069 -6.05537zm43.2448 16.5087c-2.80177,0.452977 -4.44388,2.37742 -4.67036,3.7355 -11.05,-2.47606 -25.1439,-7.00413 -31.1576,-10.3978l0.0629292 12.2091 4.22646 -5.43402 1.50945 0.60378 0.30189 5.73591 3.0189 -4.52835 1.50945 0.30189 0 5.43402 3.0189 -4.22646 1.20756 0.90567 0.30189 4.83024 2.71701 -4.22646 1.20756 0.30189 0.60378 6.0378 4.22646 -5.13213 1.20756 4.52835 3.32079 -2.71701 0.90567 3.92457 3.92457 -2.41512c-0.200693,11.5724 -1.50917,23.1452 -3.32079,34.7173l1.81134 -0.90567c3.16715,-19.1081 4.72451,-37.3604 4.06658,-43.2831z"/>
  <path fill="white" d="M282.302 444.719l1.81134 0.30189c-2.06249,8.20148 -4.67887,15.8491 -7.54725,23.2455l-2.11323 -0.30189c3.0189,-7.34627 5.63528,-15.0948 7.84914,-23.2455z"/>
  <polygon fill="white" points="283.208,442.304 286.529,429.624 288.34,428.719 285.321,442.002 "/>
  <path fill="#666666" d="M248.341 415.763c-4.41893,16.8877 -9.24067,33.9769 -16.89,52.4795l18.398 1.96044 5.12731 0.301606 8.14337 0.150803 5.42892 1.50803 2.71446 -1.05562 10.5562 -33.3275 -9.3498 23.2237 4.37329 -24.4301 -8.59578 24.1285c-1.20813,-0.297921 -2.26545,-0.89915 -2.26205,-3.61928l5.12731 -19.6044c-2.91572,7.77856 -5.83144,14.7404 -8.74659,20.5092l2.86526 -22.1681c-3.01663,8.19298 -4.97169,16.5427 -8.59578,23.6761 -0.20126,-6.33374 1.70901,-15.9851 2.56365,-23.9777 -2.46331,7.99257 -5.07714,15.8343 -7.84177,22.6205 -0.918993,-5.95729 1.21351,-15.8369 3.16687,-25.4857 -2.71446,8.14337 -4.6749,17.1916 -8.14337,24.4301 -0.653386,-7.13821 2.91543,-18.8002 4.37329,-28.2002 -3.26721,8.44498 -5.62989,18.398 -9.80221,25.3349 2.41285,-12.5167 6.78615,-27.8986 7.38936,-38.4548z"/>
  <path fill="#666666" d="M241.404 500.816l78.2669 -0.150803 -3.61928 -2.41285 -46.7473 0.59074c-0.403087,-2.63509 1.8754,-3.12633 3.61758,-4.04674 -2.66428,-0.894615 -5.32857,0.975119 -7.99229,4.10173l-8.59607 0.108284c-2.81509,-1.2566 -11.6623,-1.90999 -17.4932,-2.86526l12.6678 3.46847 -10.1041 1.20643z"/>
  <path fill="#666666" d="M315.147 496.442l-39.5104 -0.603213c11.9631,-1.5721 24.279,-2.70312 37.8516,-2.26205l1.65884 2.86526z"/>
  <path fill="#666666" d="M312.734 492.521c-10.3297,-0.377292 -21.4892,0.0751181 -33.0259,0.904819 8.40728,-3.01578 18.7376,-4.27238 30.7639,-4.07169l2.26205 3.16687z"/>
  <path fill="#999999" d="M235.07 491.918c11.4724,1.40485 21.9852,3.01153 25.7874,6.03213 2.76435,-0.55304 4.92577,-2.51348 6.48454,-5.88133l11.7627 0.603213c-2.51348,-1.6081 -7.03758,-2.61354 -13.5723,-3.01606 -2.21216,0.955276 -3.92117,2.31222 -5.73024,4.07169 -6.85673,-2.85506 -16.1598,-1.95704 -24.732,-1.80964z"/>
  <path fill="#999999" d="M253.619 490.259c0.980221,-4.52466 6.25833,-6.18293 14.4771,-5.88133 -11.3474,-1.89156 -14.7903,-1.52646 -14.4771,5.88133z"/>
  <path fill="#666666" d="M307.607 486.942c-12.4552,2.88482 -25.45,0.987308 -29.2558,11.3102 -0.289417,-9.32457 10.6438,-12.4413 29.2558,-11.3102z"/>
  <path fill="#666666" d="M307.908 484.83c-9.75175,-0.126142 -18.7495,0.125008 -26.089,1.20643l-3.46847 -4.22249c9.14911,-1.00517 18.2979,-1.20586 27.4462,-0.603213l2.11125 3.61928z"/>
  <path fill="black" d="M230.396 467.488c-0.703843,-1.40769 -2.21188,-2.41342 -4.5241,-3.01606l-1.35723 2.86526c1.96044,1.05534 3.92088,1.10523 5.88133,0.150803z"/>
  <path fill="black" d="M281.82 467.638c-1.52391,3.10451 -6.804,3.61729 -10.465,3.21903 -0.384945,0.908504 -1.35921,1.15228 -4.01159,0.702709 4.22249,1.65855 6.35018,2.78617 10.5542,2.26233 1.43972,-0.17915 8.24996,-5.22964 3.9223,-6.18407z"/>
  <path fill="#F00000" d="M247.887 368.642c-12.8551,-12.9305 -20.4528,-26.8175 -24.4531,-41.3589l-121.36 6.0378c2.83153,59.5299 63.8297,120.367 121.36,132.53 10.3776,-27.9499 18.9065,-59.5982 24.4531,-97.2086z"/>
  <path fill="#C20000" d="M215.585 331.208c7.14444,18.7172 16.7043,32.6041 28.6795,41.6608l-2.41512 25.6606 -14.1888 28.9814 7.84914 -23.8493 -14.1888 23.5474 10.2643 -25.3588 -14.7926 20.5285 9.35859 -24.4531 -17.2077 21.1323 12.9813 -25.9625 -18.4153 21.4342 13.8869 -24.4531 -21.7361 23.8493 15.0945 -28.0758 -22.6417 22.038 20.2266 -28.0758 -24.4531 22.6417 20.2266 -27.1701 -30.189 24.4531 27.472 -28.9814 -29.5852 21.1323 23.2455 -24.1512 -28.0758 16.6039 24.755 -22.038 -28.6795 15.3964 25.3588 -19.9247 -33.8117 15.0945 30.189 -20.5285 -30.7928 10.868 28.0758 -16.0002 -34.4155 9.0567 30.189 -12.0756 -35.3211 1.81134 38.0381 -6.64158 -42.5665 -1.81134 41.6608 -4.83024 35.9249 -1.50945z"/>
  <path fill="white" d="M224.401 463.22c-0.320599,0.881008 -0.643181,1.75805 -0.967465,2.6314 -5.33424,-1.12762 -10.6985,-2.67449 -16.0435,-4.59921 5.97232,-0.249732 11.9446,1.61376 17.011,1.96781zm-76.0587 -39.7001c-26.0082,-25.1025 -44.7296,-57.8435 -46.2685,-90.1982l5.72202 -0.284599c0.558425,29.1646 18.9947,59.7036 40.5465,90.4828z"/>
  <rect fill="white" x="115.659" y="340.567" width="4.52835" height="2.11323" rx="0.845292" ry="0.845292"/>
  <rect fill="white" transform="matrix(1.1944 -0.115785 0.0964879 0.995334 117.683 349.89)" width="4.52835" height="2.11323" rx="0.845292" ry="0.845292"/>
  <rect fill="white" transform="matrix(0.978569 -0.20592 0.20592 0.978569 118.811 357.66)" width="4.52835" height="2.11323" rx="0.845292" ry="0.845292"/>
  <rect fill="white" transform="matrix(0.978569 -0.20592 0.20592 0.978569 120.924 363.999)" width="4.52835" height="2.11323" rx="0.845292" ry="0.845292"/>
  <rect fill="white" transform="matrix(0.978569 -0.20592 0.20592 0.978569 123.943 372.15)" width="4.52835" height="2.11323" rx="0.845292" ry="0.845292"/>
  <rect fill="white" transform="matrix(0.928767 -0.370665 0.370665 0.928767 126.901 379.217)" width="4.52835" height="2.11323" rx="0.845292" ry="0.845292"/>
  <rect fill="white" transform="matrix(0.819967 -0.572411 0.572411 0.819967 130.556 386.733)" width="4.52835" height="2.11323" rx="0.845292" ry="0.845292"/>
  <rect fill="white" transform="matrix(0.781989 -0.545898 0.545898 0.781989 133.893 392.232)" width="4.52835" height="2.11323" rx="0.845292" ry="0.845292"/>
  <rect fill="white" transform="matrix(0.667266 -0.304195 0.387157 0.849247 139.015 397.972)" width="4.52835" height="2.11323" rx="0.845292" ry="0.845292"/>
  <rect fill="white" transform="matrix(0.627276 -0.379872 0.483473 0.798351 142.949 404.842)" width="4.52835" height="2.11323" rx="0.845292" ry="0.845292"/>
  <rect fill="white" transform="matrix(0.435486 -0.261736 0.333119 0.554255 146.05 411.015)" width="4.52835" height="2.11323" rx="0.845292" ry="0.845292"/>
  <rect fill="white" transform="matrix(0.356948 -0.317421 0.40399 0.454297 151.855 416.759)" width="4.52835" height="2.11323" rx="0.845292" ry="0.845292"/>
  <rect fill="white" transform="matrix(0.276152 -0.389754 0.49605 0.351466 155.888 421.243)" width="4.52835" height="2.11323" rx="0.845292" ry="0.845292"/>
  <rect fill="#F00000" x="204.415" y="333.019" width="7.54725" height="2.11323" rx="0.845292" ry="0.845292"/>
  <rect fill="#F00000" transform="matrix(1.58064 -0.528527 0.317116 0.948387 206.388 338.497)" width="4.52835" height="2.11323" rx="0.845292" ry="0.845292"/>
  <rect fill="#F00000" transform="matrix(1.4268 -0.861402 0.516841 0.856081 209.342 345.744)" width="4.52835" height="2.11323" rx="0.845292" ry="0.845292"/>
  <rect fill="#F00000" transform="matrix(1.4268 -0.861402 0.516841 0.856081 211.455 351.178)" width="4.52835" height="2.11323" rx="0.845292" ry="0.845292"/>
  <rect fill="#F00000" transform="matrix(1.4268 -0.861402 0.516841 0.856081 214.474 355.707)" width="4.52835" height="2.11323" rx="0.845292" ry="0.845292"/>
  <rect fill="#F00000" transform="matrix(1.14402 -0.69068 0.414408 0.686413 218.616 360.754)" width="4.52835" height="2.11323" rx="0.845292" ry="0.845292"/>
  <rect fill="#F00000" transform="matrix(1.14402 -0.69068 0.414408 0.686413 221.333 364.075)" width="4.52835" height="2.11323" rx="0.845292" ry="0.845292"/>
  <rect fill="#F00000" transform="matrix(1.03834 -0.841229 0.504737 0.623007 224.821 369.317)" width="4.52835" height="2.11323" rx="0.845292" ry="0.845292"/>
  <rect fill="#F00000" transform="matrix(0.813182 -1.06045 0.636272 0.487909 229.459 373.88)" width="4.52835" height="2.11323" rx="0.845292" ry="0.845292"/>
  <rect fill="#F00000" transform="matrix(0.737907 -1.11415 0.668487 0.442744 234.135 377.972)" width="4.52835" height="2.11323" rx="0.845292" ry="0.845292"/>
  <rect fill="#F00000" transform="matrix(0.398292 -1.27561 0.765368 0.238975 238.47 382.461)" width="4.52835" height="2.11323" rx="0.845292" ry="0.845292"/>
  <polygon fill="#8C0000" points="108.414,333.623 223.132,327.585 224.037,330.906 108.414,335.435 "/>
  <path fill="#CCCCCC" d="M99.3569 334.831l124.379 -5.43402c3.2332,-0.00226772 3.8452,-9.16073 -2.11323,-9.35859l0.90567 -44.6797c6.35159,0.00708662 7.46589,-9.3464 2.11323,-10.2643l-129.511 -0.30189c-6.54095,0.503433 -6.23906,10.7677 -0.90567,11.4718l3.92457 46.7929c-5.96466,2.1257 -4.54422,12.4855 1.20756,11.7737z"/>
  <path fill="#8C0000" d="M242.151 392.794l4.52835 -24.4531c-9.88697,-9.08108 -17.2826,-22.515 -22.3399,-35.623l0.30189 6.0378c6.33685,13.4348 12.6751,21.9892 20.2266,29.8871l-2.71701 24.1512z"/>
  <path fill="white" d="M224.641 265.094c-30.8282,-0.0717166 -61.657,-0.143433 -92.4855,-0.21515l-0.19474 2.93216 92.9821 1.50945c2.0126,-1.10693 -0.20126,-2.81764 -0.30189,-4.22646zm-118.381 -0.275811c-3.7097,-0.00850394 -7.41997,-0.0175748 -11.1297,-0.0260788 -6.54095,0.503433 -6.23906,10.7677 -0.90567,11.4718l3.92457 46.7929c-5.96466,2.1257 -4.54422,12.4855 1.20756,11.7737l2.11323 -2.41512 7.84914 -1.81134 -6.94347 -2.11323 9.66048 -0.90567c-2.11323,-0.80504 -6.94347,-3.11953 -2.71701,-3.92457l30.7928 -0.90567 -1.81134 -1.81134 -18.7172 0c-1.10693,-0.30189 -1.61008,-1.81134 0.30189,-2.71701l20.8304 -1.50945 -0.60378 -2.41512 -20.8304 -0.60378c-1.0063,-0.40252 -1.10693,-2.61638 -0.30189,-3.0189l20.5285 -0.30189 -0.60378 -3.0189 -18.4153 -0.90567c-0.80504,-0.20126 -0.70441,-1.91197 0.30189,-2.41512l20.5285 -0.90567 -0.90567 -2.41512 -21.7361 -1.20756c-0.90567,-0.70441 -0.90567,-1.10693 0,-2.11323l21.1323 -1.20756 0 -1.50945 -22.9436 -2.71701c-0.50315,-0.20126 -0.70441,-1.91197 0.30189,-2.41512l21.1323 0 1.81134 -1.20756 -0.90567 -2.71701 -23.5474 0c-0.90567,-0.70441 -1.20756,-2.0126 0,-3.0189l19.6228 -1.50945 -0.30189 -2.41512 -30.7928 -0.30189 -0.60378 -1.81134 -6.0378 -0.30189 0.60378 -2.11323 16.0002 -1.50945 -16.3021 -1.50945 0 -2.11323 9.96237 -1.50945 -1.5497 -2.69093z"/>
  <rect fill="#CCCCCC" x="105.697" y="312.793" width="7.54725" height="2.11323" rx="0.845292" ry="0.845292"/>
  <rect fill="#CCCCCC" x="106.3" y="318.529" width="7.54725" height="2.11323" rx="0.845292" ry="0.845292"/>
  <rect fill="#CCCCCC" x="105.697" y="305.246" width="6.64158" height="2.11323" rx="0.845292" ry="0.845292"/>
  <rect fill="#CCCCCC" x="104.187" y="298.302" width="5.73591" height="2.11323" rx="0.845292" ry="0.845292"/>
  <rect fill="#CCCCCC" x="102.678" y="290.755" width="6.64158" height="2.11323" rx="0.845292" ry="0.845292"/>
  <rect fill="#CCCCCC" x="101.772" y="283.208" width="7.54725" height="2.11323" rx="0.845292" ry="0.845292"/>
  <rect fill="#CCCCCC" x="99.3569" y="324.567" width="5.73591" height="2.11323" rx="0.845292" ry="0.845292"/>
  <path fill="white" d="M185.094 325.17l-68.529 2.11323c22.8424,0.201543 45.6857,-0.703843 68.529,-2.11323z"/>
  <polygon fill="#999999" points="150.376,275.057 218.905,274.453 217.094,320.34 163.961,323.661 185.697,320.038 163.358,317.321 185.396,314.302 161.546,312.491 185.697,309.17 166.075,306.151 187.207,302.529 165.169,299.51 188.113,295.283 156.414,291.359 187.509,290.151 158.829,283.509 186.301,282.302 172.112,279.887 182.075,278.377 148.263,276.868 "/>
  <path fill="#666666" d="M150.376 275.057l68.529 -0.60378c-9.45922,7.24536 -12.1762,33.711 -1.81134,45.8873l-29.8837 1.86747 -1.51285 -2.16936 0 -10.868c-6.06388,-2.21443 -2.93414,-4.428 1.50945,-6.64158 -7.34627,-2.41512 -7.04438,-4.83024 0.90567,-7.24536 -10.6668,-2.91855 -10.868,-4.62926 -0.60378,-5.13213 -12.0756,-3.82394 -12.4781,-6.44032 -1.20756,-7.84914 -3.42142,-0.905953 -4.83024,-2.21414 -4.22646,-3.92457l-33.8117 -1.50945 2.11323 -1.81134z"/>
  <path fill="white" d="M126.527 267.509l-18.7172 0c6.64158,-0.80504 12.8806,-0.80504 18.7172,0z"/>
  <path fill="#644D36" d="M224.943 468.266c2.11351,0.40252 4.52863,0.90567 6.64158,-0.30189 0.101197,1.9114 -3.01833,3.11896 -6.64158,0.30189z"/>
  <path fill="#644D36" d="M310.68 474.606l-0.60378 5.13213 12.0756 22.3399 -142.19 -0.60378c-0.90567,0.80504 1.20756,2.51575 3.62268,2.41512l138.266 0.30189c1.91169,-0.503433 3.01862,-1.81162 3.32079,-3.92457l-14.4907 -25.6606z"/>
  <path id="path1937_3" fill="none" stroke="black" stroke-width="0.992126" d="M0.683717 1.10721l498.971 -0.116504 -6.65008 298.171c0.383811,352.608 -484.941,352.092 -484.471,0.482457l-7.84942 -298.537z"/>
 </g>
</svg>
