<?xml version="1.0" encoding="UTF-8"?>
<!DOCTYPE svg PUBLIC "-//W3C//DTD SVG 1.1//EN" "http://www.w3.org/Graphics/SVG/1.1/DTD/svg11.dtd">
<!-- Creator: CorelDRAW -->
<svg xmlns="http://www.w3.org/2000/svg" xml:space="preserve" width="500px" height="583px" shape-rendering="geometricPrecision" text-rendering="geometricPrecision" image-rendering="optimizeQuality" fill-rule="evenodd" clip-rule="evenodd"
viewBox="0 0 500 583"
 xmlns:xlink="http://www.w3.org/1999/xlink"
 xmlns:svg="http://www.w3.org/2000/svg"
 version="1.0">
 <g id="Layer_x0020_1">
  <metadata id="CorelCorpID_0Corel-Layer"/>
  <path id="path1937" fill="black" stroke="black" stroke-width="2.83465" d="M1.55509 0.357732l496.913 0.000283465 0 335.462c-13.7299,327.365 -473.209,328.442 -496.914,-0.495496l0.000566929 -334.967z"/>
  <path fill="white" d="M253.458 564.41c-11.5254,0.200126 -20.2431,-14.5724 -14.2988,-25.6022 -8.49685,6.88621 -18.1837,14.8853 -27.6738,5.06013 -9.49012,-9.82517 -2.51717,-24.1489 8.76416,-28.0752 -29.522,-12.8883 -59.8757,-29.9359 -86.0698,-51.1421 8.98073,10.6784 0.405355,31.6253 -12.6723,31.0932 -13.0776,-0.532063 -17.629,-24.3822 -8.50678,-33.7675 -9.51194,12.1207 -29.7349,-0.0235276 -29.4664,-11.9886 0.268441,-11.965 20.9177,-21.6567 30.7551,-9.55815 -14.2668,-12.2443 -3.0189,-34.2077 9.29452,-34.2332 12.3134,-0.0255118 19.5214,17.9836 9.47452,32.4374 27.33,-23.3762 56.6873,-44.0479 89.0091,-60.7677 -2.28926,-3.74429 -11.7746,-8.65474 -10.6109,-13.7285 1.16362,-5.07373 8.29843,-7.48318 12.4478,-11.8485l-0.0391181 -229.595 -21.1433 -0.0204095 0 42.4256 -71.1253 0 0.275244 -33.2323 -20.8641 -1.08255 -0.000283465 34.3148 -26.8277 0 -0.0297638 -57.5241 71.2313 -0.092693 -0.0286299 34.6504 26.593 -0.189071 0.141732 -88.3905 -27.0539 -0.918426 0.271559 31.3566 -71.1253 0 0 -54.9037 26.204 0 0 34.3148 20.5889 0 0 -34.3148 71.125 0 0.000283465 45.5451 21.4622 0.256252 0.41074 -12.6482c2.86016,-0.0558425 10.3144,-3.01663 10.4525,-7.65411 0.138047,-4.63748 -12.0135,-5.40624 -11.435,-18.1687 0.578551,-12.7624 13.5247,-25.0597 26.5263,-24.7998 13.0017,-0.259937 24.9755,12.0373 25.5541,24.7998 0.578551,12.7624 -11.573,13.5312 -11.435,18.1687 0.138047,4.63748 7.59232,7.59827 10.4525,7.65411l0.41074 12.6482 21.4622 -0.256252 0.000283465 -45.5451 71.125 0 0 34.3148 20.5889 0 0 -34.3148 26.204 0 0 54.9037 -71.1253 0 0.271559 -31.3566 -27.0539 0.918426 0.141732 88.3905 26.593 0.189071 -0.0286299 -34.6504 71.2313 0.092693 -0.0297638 57.5241 -26.8277 0 -0.000283465 -34.3148 -20.8641 1.08255 0.275244 33.2323 -71.1253 0 0 -42.4256 -21.1433 0.0204095 -0.0391181 229.595c4.14936,4.36536 11.2842,6.77481 12.4478,11.8485 1.16362,5.07373 -8.32167,9.98419 -10.6109,13.7285 32.3218,16.7199 64.7972,33.338 92.1272,56.7142 -7.75531,-11.1745 2.85137,-27.9114 13.5281,-27.4485 10.6767,0.462898 21.6904,22.9244 6.80003,34.545 10.461,-11.7867 31.1103,-5.2132 31.0669,7.99909 -0.0433701,13.2123 -21.5136,21.6148 -31.3373,9.49408 10.0576,7.82618 6.75355,33.859 -6.3241,34.3911 -13.0776,0.532063 -22.2766,-16.9849 -14.5432,-28.2869 -26.1941,21.2063 -54.3651,38.5657 -83.8871,51.4539 11.2813,3.92627 19.5015,14.1965 10.0114,24.0216 -9.49012,9.82517 -18.5533,4.63238 -27.0502,-2.25383 5.94425,11.0299 -1.39805,26.1142 -12.9234,25.9141z"/>
  <path id="path1937_0" fill="white" stroke="white" stroke-width="0.708662" d="M498.61 194.254l-0.623339 128.524c-25.5144,-0.192189 -39.0056,24.6586 -57.7769,24.5177 -18.7713,-0.140882 -34.5728,-25.2077 -65.6289,-25.4407 -17.8313,-0.133228 -39.2043,25.9223 -59.5364,25.7686 -20.3324,-0.153638 -37.2895,-26.5 -65.4336,-26.7103 -18.3733,-0.13748 -41.9463,26.502 -63.1409,26.3427 -21.1947,-0.159307 -39.3534,-27.116 -58.9281,-27.2622 -22.3713,-0.167244 -42.2493,27.1145 -63.7679,26.9527 -21.5184,-0.161858 -39.0643,-27.7693 -62.3886,-27.9119l-0.000566929 -126.028c26.6893,0 35.839,27.4408 60.5699,27.4881 14.8371,0.0283465 41.3042,-27.9771 66.2942,-27.2821 24.9897,0.695055 39.4651,26.1842 60.0146,27.0383 20.5495,0.854363 35.4118,-26.6936 60.0333,-26.6037 18.8348,0.0694489 42.9608,30.111 65.3823,30.1839 22.4212,0.0728504 41.5332,-31.6948 62.2197,-31.0176 20.6867,0.677481 40.5139,28.1789 60.759,28.2132 20.245,0.0342992 43.3823,-26.7724 61.9523,-26.7724z"/>
  <path id="path1937_1" fill="#B2B2B2" stroke="#B2B2B2" stroke-width="0.708662" d="M498.468 195.983l0 128.524c-25.5144,-0.192189 -38.0702,24.6586 -56.8415,24.5177 -18.7713,-0.140882 -34.5728,-25.2077 -65.6289,-25.4407 -17.8313,-0.133228 -39.2043,25.9223 -59.5364,25.7686 -20.3324,-0.153638 -37.2895,-26.5 -65.4336,-26.7103 -18.3733,-0.13748 -41.9463,26.502 -63.1409,26.3427 -21.1947,-0.159307 -39.3534,-27.116 -58.9281,-27.2622 -22.3713,-0.167244 -42.2493,27.1145 -63.7679,26.9527 -21.5184,-0.161858 -40.3118,-27.7693 -63.6361,-27.9119l0 -126.028c26.6893,0 37.086,27.4402 61.8169,27.4881 14.838,0.0283465 41.3042,-27.9771 66.2942,-27.2821 24.9897,0.695055 39.4651,26.1842 60.0146,27.0383 20.5495,0.854363 35.4118,-26.6936 60.0333,-26.6037 18.8348,0.0694489 42.9608,30.111 65.3823,30.1839 22.4212,0.0728504 41.5332,-31.6948 62.2197,-31.0176 20.6867,0.677481 40.5139,28.1789 60.759,28.2132 20.245,0.0342992 41.8235,-26.7724 60.3936,-26.7724z"/>
  <path fill="#BF9F4F" stroke="#BF9F4F" stroke-width="0.708662" d="M255.187 564.722c-11.5254,0.200126 -20.2431,-14.5724 -14.2988,-25.6022 -8.49685,6.88621 -18.1837,14.8853 -27.6738,5.06013 -9.49012,-9.82517 -2.51717,-24.1489 8.76416,-28.0752 -29.522,-12.8883 -59.8757,-29.9359 -86.0698,-51.1421 8.98073,10.6784 0.405355,31.6253 -12.6723,31.0932 -13.0776,-0.532063 -17.629,-24.3822 -8.50678,-33.7675 -9.51194,12.1207 -29.7349,-0.0235276 -29.4664,-11.9886 0.268441,-11.965 20.9177,-21.6567 30.7551,-9.55815 -14.2668,-12.2443 -3.0189,-34.2077 9.29452,-34.2332 12.3134,-0.0255118 19.5214,17.9836 9.47452,32.4374 27.33,-23.3762 56.6873,-44.0479 89.0091,-60.7677 -2.28926,-3.74429 -11.7746,-8.65474 -10.6109,-13.7285 1.16362,-5.07373 8.29843,-7.48318 12.4478,-11.8485l-0.0391181 -229.595 -21.1433 -0.0204095 0 42.4256 -71.1253 0 0.275244 -33.2323 -20.8641 -1.08255 -0.000283465 34.3148 -26.8277 0 -0.0297638 -57.5241 71.2313 -0.092693 -0.0286299 34.6504 26.593 -0.189071 0.141732 -88.3905 -27.0539 -0.918426 0.271559 31.3566 -71.1253 0 0 -54.9037 26.204 0 0 34.3148 20.5889 0 0 -34.3148 71.125 0 0.000283465 45.5451 21.4622 0.256252 0.41074 -12.6482c2.86016,-0.0558425 10.3144,-3.01663 10.4525,-7.65411 0.138047,-4.63748 -12.0135,-5.40624 -11.435,-18.1687 0.578551,-12.7624 13.5247,-25.0597 26.5263,-24.7998 13.0017,-0.259937 24.9755,12.0373 25.5541,24.7998 0.578551,12.7624 -11.573,13.5312 -11.435,18.1687 0.138047,4.63748 7.59232,7.59827 10.4525,7.65411l0.41074 12.6482 21.4622 -0.256252 0.000283465 -45.5451 71.125 0 0 34.3148 20.5889 0 0 -34.3148 26.204 0 0 54.9037 -71.1253 0 0.271559 -31.3566 -27.0539 0.918426 0.141732 88.3905 26.593 0.189071 -0.0286299 -34.6504 71.2313 0.092693 -0.0297638 57.5241 -26.8277 0 -0.000283465 -34.3148 -20.8641 1.08255 0.275244 33.2323 -71.1253 0 0 -42.4256 -21.1433 0.0204095 -0.0391181 229.595c4.14936,4.36536 11.2842,6.77481 12.4478,11.8485 1.16362,5.07373 -8.32167,9.98419 -10.6109,13.7285 32.3218,16.7199 64.7972,33.338 92.1272,56.7142 -7.75531,-11.1745 2.85137,-27.9114 13.5281,-27.4485 10.6767,0.462898 21.6904,22.9244 6.80003,34.545 10.461,-11.7867 31.1103,-5.2132 31.0669,7.99909 -0.0433701,13.2123 -21.5136,21.6148 -31.3373,9.49408 10.0576,7.82618 6.75355,33.859 -6.3241,34.3911 -13.0776,0.532063 -22.2766,-16.9849 -14.5432,-28.2869 -26.1941,21.2063 -54.3651,38.5657 -83.8871,51.4539 11.2813,3.92627 19.5015,14.1965 10.0114,24.0216 -9.49012,9.82517 -18.5533,4.63238 -27.0502,-2.25383 5.94425,11.0299 -1.39805,26.1142 -12.9234,25.9141z"/>
  <path fill="black" stroke="black" stroke-width="1.98425" d="M232.036 436.504c-2.19685,-10.0715 -13.6701,-24.3218 -0.327969,-38.7448 13.3421,-14.423 29.8313,-13.5836 41.4485,0.234992 11.6172,13.8186 3.07588,28.9423 0.225638,37.8862 25.1839,-8.89569 35.7409,-11.3919 52.9294,-4.29449 17.1884,7.09739 17.1763,31.9567 1.57748,37.8278 -15.5988,5.87112 -26.0291,7.84148 -55.1305,-1.46665 5.03433,13.0119 6.44599,25.1153 -0.0782363,36.1194 -6.52422,11.0041 -33.6308,12.9013 -41.3252,0.473386 -7.69437,-12.4279 -7.87833,-23.705 0.0572599,-37.84 -31.364,7.363 -36.9723,11.0925 -51.2221,3.31002 -14.2498,-7.78252 -17.1862,-30.7406 0.853512,-39.1161 10.9823,-5.09896 27.9593,-7.16259 50.9922,5.61033z"/>
  <line fill="none" stroke="#877138" stroke-width="5.66929" x1="222.745" y1="375.416" x2="278.762" y2= "375.416" />
  <rect fill="#877138" x="268.164" y="62.5677" width="7.56993" height="290.139"/>
  <ellipse fill="#877138" transform="matrix(1.33289 -0.996691 0.879433 1.17608 267.872 46.345)" rx="4.67717" ry="2.96221"/>
 </g>
</svg>
