<?xml version="1.0" encoding="UTF-8" standalone="no"?>
<!-- Created with Inkscape (http://www.inkscape.org/) -->

<svg
   xmlns:dc="http://purl.org/dc/elements/1.1/"
   xmlns:cc="http://creativecommons.org/ns#"
   xmlns:rdf="http://www.w3.org/1999/02/22-rdf-syntax-ns#"
   xmlns:svg="http://www.w3.org/2000/svg"
   xmlns="http://www.w3.org/2000/svg"
   version="1.0"
   width="499.99582"
   height="577.19482"
   id="svg1901">
  <metadata
     id="metadata10">
    <rdf:RDF>
      <cc:Work
         rdf:about="">
        <dc:format>image/svg+xml</dc:format>
        <dc:type
           rdf:resource="http://purl.org/dc/dcmitype/StillImage" />
        <dc:title></dc:title>
      </cc:Work>
    </rdf:RDF>
  </metadata>
  <defs
     id="defs1903" />
  <path
     d="m 124.73529,0 0,547.96875 c 36.85548,18.57066 79.68145,29.21875 125.35846,29.21875 45.59265,10e-6 88.35735,-10.58666 125.16677,-29.09375 L 375.26052,0 124.73529,0 z"
     id="path2179"
     style="fill:#0056f0;fill-opacity:1;stroke:none" />
  <path
     d="M -1e-6,-2.7499993e-7 -1e-6,360.6873 l 0.22371178,0 c 0,79.93115 50.08749622,149.76914 124.51157922,187.27871 l 0,-547.96601027499991 -124.735291,0 z m 375.260521,0 0,548.0938502749999 c 74.55113,-37.48144 124.7353,-107.39296 124.7353,-187.40655 l -0.47939,0 0,-360.68730027499992 -124.25591,0 z"
     id="path2177"
     style="fill:#bf9f4f;fill-opacity:1;stroke:none" />
  <g
     transform="translate(0.01282117,-0.02197214)"
     id="g3819"
     style="fill:#cccccc;fill-opacity:1">
    <path
       d="m 249.77838,15.427878 c -5.96506,-0.05128 -11.62233,1.02133 -17.66051,3.38385 -0.8135,29.695719 -1.75979,59.389128 -2.65723,89.082802 -1.69304,14.00333 1.52805,25.51947 6.48803,31.33544 4.95999,5.81599 8.19083,11.70236 8.25229,23.46596 l -2.04885,182.50974 c 0.0835,15.98209 -8.85716,21.29419 -8.79297,33.55945 l 1.50819,150.83212 c 0.26572,1.64174 0.40794,1.97432 1.42281,2.99384 l 6.6872,4.79013 -0.73986,26.74491 7.56936,-0.0285 7.59781,0.0285 -0.73987,-26.74491 6.68721,-4.79013 c 1.01486,-1.01952 1.15709,-1.3521 1.42281,-2.99384 l 1.53662,-150.83212 c 0.0642,-12.26526 -8.90493,-17.57736 -8.82142,-33.55945 l -2.04885,-182.50974 c 0.0614,-11.7636 3.29231,-17.64997 8.25232,-23.46596 4.95996,-5.81597 8.18105,-17.33211 6.488,-31.33544 -0.92122,-29.693311 -1.73298,-59.390084 -2.67284,-89.082802 -6.03817,-2.36252 -11.65141,-3.435109 -17.61646,-3.38385 -0.0382,-4.29e-4 -0.0757,3.29e-4 -0.11382,0 z"
       id="path3807"
       style="fill:#cccccc;fill-opacity:1;stroke:none" />
    <path
       d="m 174.9856,15.427878 c -5.96506,-0.05128 -11.62233,1.02133 -17.66051,3.38385 -0.8135,29.695719 -1.75979,59.389128 -2.65723,89.082802 -1.69304,14.00333 1.52805,25.51947 6.48803,31.33544 4.95999,5.81599 8.19083,11.70236 8.25229,23.46596 l -2.04885,167.61564 c 0.0835,15.98209 -8.85716,21.29419 -8.79297,33.55945 l 1.50819,150.83212 c 0.26572,1.64174 0.40794,1.97432 1.42281,2.99384 l 6.6872,4.79013 -0.73986,26.74491 7.56936,-0.0285 7.59781,0.0285 -0.73987,-26.74491 6.68721,-4.79013 c 1.01486,-1.01952 1.15709,-1.3521 1.42281,-2.99384 l 1.53662,-150.83212 c 0.0642,-12.26526 -8.90493,-17.57736 -8.82142,-33.55945 l -2.04885,-167.61564 c 0.0614,-11.7636 3.29231,-17.64997 8.25232,-23.46596 4.95996,-5.81597 8.18105,-17.33211 6.488,-31.33544 -0.92122,-29.693311 -1.73298,-59.390084 -2.67284,-89.082802 -6.03817,-2.36252 -11.65141,-3.435109 -17.61646,-3.38385 -0.0382,-4.29e-4 -0.0757,3.29e-4 -0.11382,0 z"
       id="path3815"
       style="fill:#cccccc;fill-opacity:1;stroke:none" />
    <path
       d="m 324.89377,15.427878 c -5.96506,-0.05128 -11.62233,1.02133 -17.66051,3.38385 -0.8135,29.695719 -1.75979,59.389128 -2.65723,89.082802 -1.69304,14.00333 1.52805,25.51947 6.48803,31.33544 4.95999,5.81599 8.19083,11.70236 8.25229,23.46596 l -2.04885,167.61564 c 0.0835,15.98209 -8.85716,21.29419 -8.79297,33.55945 l 1.50819,150.83212 c 0.26572,1.64174 0.40794,1.97432 1.42281,2.99384 l 6.6872,4.79013 -0.73986,26.74491 7.56936,-0.0285 7.59781,0.0285 -0.73987,-26.74491 6.68721,-4.79013 c 1.01486,-1.01952 1.15709,-1.3521 1.42281,-2.99384 l 1.53662,-150.83212 c 0.0642,-12.26526 -8.90493,-17.57736 -8.82142,-33.55945 l -2.04885,-167.61564 c 0.0614,-11.7636 3.29231,-17.64997 8.25232,-23.46596 4.95996,-5.81597 8.18105,-17.33211 6.488,-31.33544 -0.92122,-29.693311 -1.73298,-59.390084 -2.67284,-89.082802 -6.03817,-2.36252 -11.65141,-3.435109 -17.61646,-3.38385 -0.0382,-4.29e-4 -0.0757,3.29e-4 -0.11382,0 z"
       id="path3817"
       style="fill:#cccccc;fill-opacity:1;stroke:none" />
  </g>
</svg>
