<?xml version="1.0" encoding="UTF-8" standalone="no"?>
<!-- Creator: CorelDRAW -->

<svg
   xmlns:dc="http://purl.org/dc/elements/1.1/"
   xmlns:cc="http://creativecommons.org/ns#"
   xmlns:rdf="http://www.w3.org/1999/02/22-rdf-syntax-ns#"
   xmlns:svg="http://www.w3.org/2000/svg"
   xmlns="http://www.w3.org/2000/svg"
   xmlns:sodipodi="http://sodipodi.sourceforge.net/DTD/sodipodi-0.dtd"
   xmlns:inkscape="http://www.inkscape.org/namespaces/inkscape"
   xml:space="preserve"
   width="500"
   height="614"
   style="fill-rule:evenodd"
   viewBox="0 0 500 586.30793"
   version="1.0"
   sodipodi:version="0.32"
   inkscape:version="0.48.1 "
   sodipodi:docname="Ilmajoki.vaakuna.svg"
   inkscape:output_extension="org.inkscape.output.svg.inkscape"
   id="svg2"><metadata
   id="metadata192"><rdf:RDF><cc:Work
       rdf:about=""><dc:format>image/svg+xml</dc:format><dc:type
         rdf:resource="http://purl.org/dc/dcmitype/StillImage" /></cc:Work></rdf:RDF></metadata><sodipodi:namedview
   pagecolor="#ffffff"
   bordercolor="#666666"
   borderopacity="1"
   objecttolerance="10"
   gridtolerance="10"
   guidetolerance="10"
   inkscape:pageopacity="0"
   inkscape:pageshadow="2"
   inkscape:window-width="678"
   inkscape:window-height="480"
   id="namedview190"
   showgrid="false"
   fit-margin-top="0"
   fit-margin-left="0"
   fit-margin-right="0"
   fit-margin-bottom="0"
   inkscape:zoom="0.4059098"
   inkscape:cx="249.65361"
   inkscape:cy="306.21057"
   inkscape:window-x="0"
   inkscape:window-y="0"
   inkscape:window-maximized="0"
   inkscape:current-layer="Layer_x0020_1" />
 <defs
   id="defs4">
  <style
   type="text/css"
   id="style6">
   
    .str1 {stroke:#1F1A17;stroke-width:0.216}
    .str0 {stroke:#006EC7;stroke-width:0.216}
    .fil2 {fill:#1F1A17}
    .fil1 {fill:#DEDEDD}
    .fil0 {fill:#006EC7}
   
  </style>
 </defs>
 <g
   id="Layer_x0020_1"
   transform="translate(-0.346394,-13.710524)">
  <metadata
   id="CorelCorpID_0Corel-Layer" />
  <path
   id="path2872"
   class="fil0 str0"
   d="m 0.454394,0.496063 499.377996,0 0,439.452997 c 0,129.838 -234.707,108.899 -249.689,173.819 -14.9814,-64.9191 -249.688996,-43.9804 -249.688996,-173.819 l 0,-439.452997 z"
   inkscape:connector-curvature="0"
   style="fill:#006ec7;stroke:#006ec7;stroke-width:0.21600001" />
  <polygon
   id="path2400"
   class="fil1 str0"
   points="1.25858,140.494 1.25858,1.55991 499.059,1.55991 499.059,140.494 499.059,279.428 1.25858,279.428 "
   style="fill:#dededd;stroke:#006ec7;stroke-width:0.21600001" />
  <sodipodi:namedview
   inkscape:window-height="671"
   inkscape:window-width="640"
   inkscape:pageshadow="2"
   inkscape:pageopacity="0.0"
   guidetolerance="10.0"
   gridtolerance="10.0"
   objecttolerance="10.0"
   borderopacity="1.0"
   bordercolor="#666666"
   pagecolor="#ffffff"
   id="base"
   showgrid="false"
   inkscape:zoom="0.26559621"
   inkscape:cx="250"
   inkscape:cy="306.16883"
   inkscape:window-x="96"
   inkscape:window-y="8"
   inkscape:current-layer="svg2" />
  <path
   id="path2874"
   class="fil2"
   d="m 247.797,269.875 c -9.36312,0 -15.2272,0.92154 -18.9034,-0.41584 -6.12822,-2.22945 -6.18208,-8.64851 -6.23991,-20.7714 -3.02542,-9.42463 -18.2923,-19.4403 -21.4452,-22.0893 -2.94095,-2.47096 -17.3188,-4.40334 -26.4388,-8.78656 9.68571,-3.01096 15.2447,-9.24293 15.7493,-17.7625 -10.3204,5.5817 -21.814,11.9004 -32.1347,4.75625 12.0974,-4.17487 20.2655,-7.93843 19.2101,-17.75 -9.87506,4.39881 -24.9165,13.0244 -34.664,-2.93726 22.7846,-0.19503 22.597,-7.64958 24.6498,-13.8628 -19.4423,6.81676 -31.9765,7.19065 -40.5975,-14.5684 17.0127,1.37452 23.7217,1.0868 23.4383,-12.3701 -1.78243,-13.4561 -6.06926,-23.5046 -5.86999,-39.7349 -0.14598,-16.236603 0.16242,-17.013003 5.51849,-24.358103 -9.30898,-5.81896 -18.9802,-55.0001 -8.63972,-63.0961 15.4548,-10.9128 30.7415,13.6352 57.3409,13.2216 26.5918,-0.413858 19.0639,-10.6376 49.0264,-10.6376 29.9628,0 23.0213,8.46397 49.6131,8.87755 26.5995,0.413858 33.0871,-18.2682 54.4079,-9.70186 6.23424,8.09632 4.77553,49.0646 -8.05323,59.5766 3.59632,9.10489 5.66448,9.29452 5.51849,25.531403 -0.14655,16.2298 -5.58681,27.4516 -5.86999,40.9082 -0.28346,13.4569 4.66583,14.9176 21.6785,13.5434 -6.27421,11.9619 -12.9419,22.7101 -37.6645,12.8084 2.05285,6.21326 3.62495,16.0143 24.6498,15.0361 -11.9962,11.9526 -22.7359,11.931 -34.664,2.35049 -2.81509,13.9178 6.52592,15.9216 18.6236,20.0965 -10.3207,1.86491 -23.5743,1.99871 -30.9614,-7.68926 -2.42844,10.2793 9.58309,14.7515 19.2688,17.7625 -9.11991,4.38321 -24.6711,4.55584 -27.612,7.02681 -3.15269,2.64869 -20.7661,16.1841 -23.7918,25.6088 -1.60044,8.87953 -0.002,15.6453 -6.5778,18.4399 -3.44353,1.4641 -9.98249,0.98759 -18.5655,0.98759 z"
   inkscape:connector-curvature="0"
   style="fill:#1f1a17" />
  <path
   id="path6476"
   class="fil1"
   d="m 73.4947,464.577 c 57.4277,-18.6698 211.809,-110.963 223.651,-113.274 18.362,-16.0997 16.0098,-23.8558 37.9962,-28.4247 9.18426,-1.90857 17.5399,0.98164 18.8515,-8.82681 11.7074,-18.5706 28.3538,-4.30243 39.9456,-15.8822 6.65377,-6.64668 13.722,-10.4822 22.8733,-6.80741 2.58548,1.03805 5.5338,2.09424 8.82057,2.81055 12.6604,2.76095 19.4709,-4.45068 26.2508,8.94104 7.79301,15.3936 -11.2748,20.217 -8.17399,34.6425 1.81843,8.46 -13.0212,13.7971 -16.998,14.47 -5.82265,0.98589 -13.6072,2.83153 -19.8987,11.3233 -5.02243,6.77963 -6.83122,12.659 -25.685,10.7688 -22.8878,-2.29436 -27.7563,13.0867 -46.5089,17.8815 -55.9987,1.88731 -152.573,47.1076 -247.682,90.6665 -10.921,3.76555 -18.3186,-9.86939 -13.4419,-18.2889 z"
   inkscape:connector-curvature="0"
   style="fill:#dededd" />
  <path
   id="path6476_0"
   class="fil2 str1"
   d="m 446.702,296.455 c 1.78951,1.25008 3.48662,3.31058 5.18145,6.6583 7.79301,15.3936 -11.2748,20.217 -8.17399,34.6425 1.81843,8.46 -13.0212,13.7971 -16.998,14.47 -5.82265,0.98589 -13.6072,2.83153 -19.8987,11.3233 -5.02243,6.77963 -6.83122,12.659 -25.685,10.7688 -22.8878,-2.29436 -27.7563,13.0867 -46.5089,17.8815 -55.9987,1.88731 -152.573,47.1076 -247.682,90.6665 -3.32532,1.53666 -6.36152,0.0896 -8.74007,-2.59654 61.9257,-24.1464 161.3,-77.3921 239.821,-90.8 12.3956,-2.11663 26.3279,-4.06545 33.3919,-9.2007 20.6796,-15.0341 37.5021,-0.73276 51.0769,-18.6829 8.06599,-10.6654 17.9955,-13.0484 28.9035,-15.984 7.92737,-2.13392 6.92249,-18.5576 13.0819,-24.1421 10.3269,-9.36369 4.42007,-15.2623 2.2303,-25.0047 z"
   inkscape:connector-curvature="0"
   style="fill:#1f1a17;stroke:#1f1a17;stroke-width:0.21600001" />
  <path
   class="fil2 str1"
   d="m 219.357,417.795 c 30.6868,-15.4378 88.5351,-34.2451 109.227,-35.8532 15.6543,-1.21663 30.7049,-14.0675 47.3037,-14.2041 32.8037,-0.27042 26.8002,-24.2294 39.1779,-23.7767 3.77518,0.13805 10.0466,2.00551 14.8839,-4.18479 -6.3978,9.82404 -10.8887,3.02173 -20.5262,8.839 -2.08091,1.25603 -10.0828,21.4075 -27.8002,21.28 -25.401,-0.1834 -39.8475,14.8082 -53.517,15.5914 -25.5498,1.4641 -85.7648,24.1492 -108.749,32.3085 z"
   id="path16"
   inkscape:connector-curvature="0"
   style="fill:#1f1a17;stroke:#1f1a17;stroke-width:0.21600001" />
  <path
   id="path6476_1"
   class="fil1"
   d="m 424.446,468.683 c -57.4274,-18.6698 -215.328,-113.31 -227.17,-115.621 -16.6022,-16.0997 -16.0095,-19.749 -37.9965,-24.3184 -9.18454,-1.90913 -14.6067,-8.99065 -17.0915,-12.9331 -11.7074,-18.5706 -30.1133,-6.06189 -41.7056,-17.642 -6.65377,-6.64696 -13.7217,-8.72278 -22.8731,-5.04766 -2.58577,1.03805 -5.53408,2.09424 -8.82057,2.81084 -12.6604,2.76066 -19.4712,-4.45096 -26.2511,8.94104 -7.79273,15.3933 11.8621,16.6966 8.76076,31.1227 -1.81871,8.46029 11.2615,19.0763 15.2382,19.7493 5.82265,0.98617 11.2606,0.48529 17.5521,8.97704 5.02243,6.77963 9.17689,13.2457 28.0315,11.3553 22.8884,-2.29493 27.7563,8.98045 46.5089,13.7753 87.6756,22.4187 159.026,49.4541 254.135,93.013 8.86791,4.09777 13.9193,-8.91185 11.6819,-14.1826 z"
   inkscape:connector-curvature="0"
   style="fill:#dededd" />
  <path
   class="fil1"
   d="M 246.037,68.8643 C 229.8072,33.129 198.5218,32.2492 179.1637,52.4392 l -4.10627,-1.75975 c -8.03878,-19.5197 -19.1639,-24.033 -25.098,-26.3585 0.23584,2.3023 -2.46047,4.85377 -3.64592,7.58693 -9.58111,-23.4644 19.5537,-9.97229 31.0904,12.3188 l 2.93301,0 c 22.2911,-17.4027 47.7516,-12.3188 66.5229,14.6653 15.8386,-26.3974 42.8224,-32.0681 65.1135,-14.6653 l 2.93301,0 c 10.3076,-22.2902 40.2446,-35.7826 31.0901,-12.3188 -1.18517,-2.73317 -3.88148,-5.28463 -3.64564,-7.58693 -5.93405,2.32554 -17.0592,6.83887 -25.098,26.3585 l -4.10627,1.75975 c -19.3581,-20.1901 -47.7105,-19.3102 -63.9403,16.4251 l -3.16942,0 z"
   id="path19"
   inkscape:connector-curvature="0"
   style="fill:#dededd" />
  <path
   class="fil1"
   d="m 254.349,116.38 c 5.08394,9.7767 13.2962,14.8606 24.6373,15.2518 14.1537,-3.39931 23.239,0.45978 31.1916,-2.17389 22.9913,-7.61528 22.7764,-30.6763 22.1899,-50.0344 7.52797,30.6014 0.48954,49.373 -26.9841,56.901 l 11.7323,4.10627 -13.4147,3.09515 c -7.06054,9.5573 -14.9094,11.0551 -22.3685,10.3969 -3.45062,13.8971 -1.42129,31.3345 -9.02977,58.1755 4.00762,9.75771 -1.15427,28.2473 -0.99723,36.3416 0.14485,7.45342 -17.4662,2.29776 -24.6827,3.44665 -7.21616,-1.14888 -22.9677,3.42029 -22.8229,-4.03314 0.15704,-8.09433 -5.59162,-25.9974 -1.584,-35.7551 -7.60848,-26.841 -6.75241,-42.5186 -10.2027,-56.4157 -7.45909,0.65849 -14.7215,-0.25285 -20.6087,-12.1567 l -14.0012,-4.26841 10.5588,-2.93301 c -27.4734,-7.52797 -35.0986,-26.2996 -28.1571,-55.7277 l 2.34652,-1.17326 c -2.81452,24.8083 2.4531,43.3024 22.7764,50.0344 7.95289,2.63395 17.0376,-1.22542 31.1916,2.17389 11.3409,-0.39118 19.5534,-5.47512 24.6373,-15.2518 l 13.5918,0 z m 8.63972,130.814 c -5.2886,-7.04183 -9.79144,-12.7131 -8.79903,-18.1848 l 4.69276,-0.58649 c 0.38154,4.88835 0.37559,9.19078 7.03928,14.0786 -0.78208,-11.3411 4.30186,-28.5483 -5.27953,-34.0234 l -28.0976,0 c -9.58111,5.47512 -3.32391,22.6823 -4.10627,34.0234 6.66369,-4.88778 7.831,-9.77698 8.21254,-14.6653 l 5.27953,0 c 0.99241,5.47172 -3.51043,12.3163 -8.79903,19.3581 9.95188,-3.91068 19.9043,-3.91068 29.8573,0 z m -35.7234,-40.4759 c -6.06161,-27.5706 -8.9949,-51.2306 -8.79931,-70.9796 10.5591,0.19559 20.5313,-3.1286 24.6376,-13.4921 l 8.91156,0 c 4.10627,10.3635 12.3188,14.8609 22.8779,14.6653 0.19531,19.749 -1.56444,42.2357 -7.03928,69.8063 -7.46816,-5.27953 -35.0759,-5.27953 -40.5885,0 z m -32.2637,-70.9796 c 3.51978,-2.64983 11.7329,-3.05235 17.5983,0.58649 l 1.17326,12.3188 c -10.95,2.73742 -19.5537,-2.73742 -18.7716,-12.9053 z m 102.671,-0.58677 c -4.30158,-1.86718 -11.9288,-2.2697 -17.0116,0.58677 l -0.58649,12.9053 c 12.7097,0.97767 17.2072,-3.91068 17.5981,-13.4921 z"
   id="path21"
   inkscape:connector-curvature="0"
   style="fill:#dededd" />
  <polygon
   class="fil1"
   points="242.518,113.447 252.49,112.86 250.73,108.754 243.691,108.754 "
   id="polygon23"
   style="fill:#dededd" />
  <polygon
   class="fil1"
   points="244.859,91.4673 244.859,95.1665 249.351,95.1665 248.558,91.2031 "
   id="polygon25"
   style="fill:#dededd" />
  <polygon
   class="fil1"
   points="244.33,100.187 243.273,105.208 250.408,105.208 249.086,100.187 "
   id="polygon27"
   style="fill:#dededd" />
  <path
   id="path2398"
   class="fil2"
   d="m 239.629,540.928 c -16.0095,3.95773 -12.8092,13.1706 -13.4008,18.5029 l -17.1731,0.25824 c 1.44709,-17.8296 6.85815,-31.2222 30.5651,-35.8007 l 0.7132,-24.3187 -61.9475,0 c 11.0886,-33.8593 39.7865,-57.8662 70.6289,-58.489 30.8421,-0.62278 63.8153,19.3887 72.9893,57.7848 l -27.9131,0.91786 c -1.12082,21.44269 -20.2306,33.34619 -35.5887,37.44939 l 0.23216,45.709 -19.1055,0 0,-42.0137 z m 39.6125,-41.2149 -20.6116,-0.14343 0.0839,19.3519 c 11.8457,-1.09786 19.8235,-8.40331 20.5277,-19.2084 z M 239.9816,459.437 c -13.263,1.92274 -30.4472,12.6853 -33.969,24.1727 l 33.9684,0.0411 5.7e-4,-24.2138 z m 54.2016,23.6208 c -0.70441,-11.6946 -22.0813,-25.2468 -35.6536,-24.7054 l 0.19446,24.5001 35.4592,0.20523 z"
   inkscape:connector-curvature="0"
   style="fill:#1f1a17" />
  <path
   id="path2398_2"
   class="fil1"
   d="m 237.515,539.078 c -16.0092,3.95802 -12.8089,13.1709 -13.4005,18.5032 l -17.1731,0.25824 c 1.4468,-17.8296 6.85815,-31.2222 30.5651,-35.8007 l 0.71291,-24.3187 -61.9475,0 c 11.0886,-33.8593 39.7868,-57.8662 70.6289,-58.489 30.8424,-0.62278 63.8153,19.3887 72.9893,57.7846 l -27.9128,0.91814 c -1.12082,21.4424 -20.2306,33.3459 -35.5887,37.4494 l 0.23216,45.709 -19.1058,0 0,-42.014 z m 39.6128,-41.2146 -20.6116,-0.14343 0.0836,19.3519 c 11.846,-1.09786 19.8235,-8.40331 20.5279,-19.2084 z m -39.2601,-40.2761 c -13.2627,1.92274 -30.4469,12.6853 -33.9687,24.1727 l 33.9684,0.0411 2.8e-4,-24.2138 z m 54.2016,23.6208 c -0.70413,-11.6946 -22.0811,-25.2468 -35.6536,-24.7054 l 0.19446,24.5001 35.4592,0.20523 z"
   inkscape:connector-curvature="0"
   style="fill:#dededd" />
  <path
   id="path6476_3"
   class="fil2"
   d="m 424.446,468.683 c 2.23739,5.27074 -2.81395,18.2804 -11.6819,14.1826 -95.1089,-43.5589 -166.459,-70.5943 -254.135,-93.013 -18.7526,-4.79481 -23.6205,-16.0702 -46.5089,-13.7753 -18.8547,1.89043 -23.0091,-4.57569 -28.0315,-11.3553 -6.2915,-8.49175 -11.7295,-7.99087 -17.5521,-8.97704 -3.97673,-0.67295 -17.0569,-11.289 -15.2382,-19.7493 7.53336,13.4459 16.9421,17.1799 22.4093,17.1907 7.60507,0.0156 10.3774,7.79443 15.6881,11.9225 6.82781,5.30816 15.9392,7.26463 24.6674,7.27966 23.9343,0.0417 40.1797,15.1744 63.2775,18.2132 13.6006,1.78923 45.6421,11.6419 67.1942,19.2147 86.2226,30.2956 166.839,72.4814 169.805,71.5802 11.0911,-3.37011 4.97792,-14.5372 10.1058,-12.7137 z"
   inkscape:connector-curvature="0"
   style="fill:#1f1a17" />
  <path
   class="fil2 str1"
   d="M 276.541,420.829 C 245.8542,405.3912 196.3726,386.5269 175.68,384.9177 160.0245,383.69994 128.8312,367.5059 115.4018,367.1042 82.6112,366.12285 86.1709,348.3014 73.7931,348.7547 c -3.77603,0.13833 -4.18054,4.93852 -13.7106,-4.18479 6.39752,9.82404 10.8882,3.02145 20.526,8.83928 2.08148,1.25632 11.3409,15.9798 29.0583,15.8522 25.401,-0.1834 53.2789,19.571 65.17,19.167 25.5782,-0.86882 78.7201,24.2413 101.704,32.4006 z"
   id="path32"
   inkscape:connector-curvature="0"
   style="fill:#1f1a17;stroke:#1f1a17;stroke-width:0.21600001" />
  <path
   class="fil2"
   d="m 89.4127,351.023 c -6.45251,-3.83329 -12.9053,-6.96189 -19.3581,-9.3858 9.39572,1.37452 14.6707,5.02781 19.3581,9.3858 z"
   id="path34"
   inkscape:connector-curvature="0"
   style="fill:#1f1a17" />
  <path
   class="fil2"
   d="m 141.468,372.69 c -6.45251,-3.83329 -12.9053,-6.96189 -19.3581,-9.3858 9.39572,1.37452 14.6704,5.02781 19.3581,9.3858 z"
   id="path36"
   inkscape:connector-curvature="0"
   style="fill:#1f1a17" />
  <path
   class="fil2"
   d="m 136.447,347.323 c -12.5306,-8.01723 -37.7445,-10.2651 -54.2376,-18.1055 16.2658,5.60211 43.4724,9.25541 54.2376,18.1055 z"
   id="path38"
   inkscape:connector-curvature="0"
   style="fill:#1f1a17" />
  <path
   class="fil2"
   d="m 164.103,380.612 c 7.4744,0.68173 14.6455,0.72737 21.513,0.13691 -9.07172,2.80488 -15.4057,1.77846 -21.513,-0.13691 z"
   id="path40"
   inkscape:connector-curvature="0"
   style="fill:#1f1a17" />
  <path
   class="fil2"
   d="m 46.3544,304.333 c 0.624189,6.5143 3.68703,14.5293 10.6415,19.8148 -8.49175,-5.82208 -11.1515,-12.9203 -10.6415,-19.8148 z"
   id="path42"
   inkscape:connector-curvature="0"
   style="fill:#1f1a17" />
  <path
   class="fil2"
   d="m 145.766,362.311 c -8.09037,-5.17635 -28.0692,-5.04227 -38.7179,-10.1044 10.5021,3.61701 31.5034,3.59773 38.7179,10.1044 z"
   id="path44"
   inkscape:connector-curvature="0"
   style="fill:#1f1a17" />
  <path
   class="fil2"
   d="m 95.4712,321.989 c -9.11708,-3.02173 -20.5005,-14.7495 -31.1403,-19.8301 9.42549,5.87679 22.324,18.0323 31.1403,19.8301 z"
   id="path46"
   inkscape:connector-curvature="0"
   style="fill:#1f1a17" />
  <path
   class="fil2"
   d="m 131.581,327.96 c 5.44025,3.35679 10.8907,6.1132 16.3514,8.26952 -7.9818,-1.30479 -12.4217,-4.49121 -16.3514,-8.26952 z"
   id="path48"
   inkscape:connector-curvature="0"
   style="fill:#1f1a17" />
  <path
   class="fil2"
   d="m 125.593,362.064 c -7.39503,-1.28324 -14.5389,-1.908 -21.4316,-1.87399 9.26873,-2.06277 15.499,-0.52838 21.4316,1.87399 z"
   id="path50"
   inkscape:connector-curvature="0"
   style="fill:#1f1a17" />
  <path
   class="fil2"
   d="m 379.58,360.629 c -7.29496,1.7657 -14.0973,4.03569 -20.4072,6.80996 7.68218,-5.58114 14.0085,-6.65263 20.4072,-6.80996 z"
   id="path52"
   inkscape:connector-curvature="0"
   style="fill:#1f1a17" />
  <path
   class="fil2"
   d="m 439.792,314.287 c -6.86381,3.03676 -13.6434,5.37392 -20.3392,7.01093 9.49238,-0.24435 15.1654,-3.24284 20.3392,-7.01093 z"
   id="path54"
   inkscape:connector-curvature="0"
   style="fill:#1f1a17" />
  <path
   class="fil2"
   d="m 443.918,302.873 c 7.09342,10.6415 -4.7058,19.1222 -14.0584,22.9686 13.6636,-8.16208 17.2619,-17.4484 14.0584,-22.9686 z"
   id="path56"
   inkscape:connector-curvature="0"
   style="fill:#1f1a17" />
  <path
   class="fil2"
   d="m 439.338,326.588 c -4.392,1.94315 -8.73043,3.43871 -13.0147,4.4864 6.07408,-0.15647 9.70413,-2.07525 13.0147,-4.4864 z"
   id="path58"
   inkscape:connector-curvature="0"
   style="fill:#1f1a17" />
  <path
   class="fil2"
   d="m 439.602,329.231 c -4.392,1.94315 -8.73015,3.43843 -13.0147,4.48611 6.07351,0.24009 9.70356,-1.76655 13.0147,-4.48611 z"
   id="path60"
   inkscape:connector-curvature="0"
   style="fill:#1f1a17" />
  <path
   class="fil2"
   d="m 446.134,312.701 c -8.33074,4.50397 -16.0985,10.9993 -21.1317,10.9749 9.49238,-0.24463 15.9579,-7.20681 21.1317,-10.9749 z"
   id="path62"
   inkscape:connector-curvature="0"
   style="fill:#1f1a17" />
  <path
   class="fil2"
   d="m 380.603,344.146 c -6.86353,3.03676 -13.6434,5.37364 -20.3389,7.01093 9.49238,-0.24463 15.1651,-3.24284 20.3389,-7.01093 z"
   id="path64"
   inkscape:connector-curvature="0"
   style="fill:#1f1a17" />
  <path
   class="fil2"
   d="m 387.873,343.423 c -6.31786,4.05184 -12.6598,7.39928 -19.0259,10.0426 9.34328,-1.69512 14.4901,-5.52671 19.0259,-10.0426 z"
   id="path66"
   inkscape:connector-curvature="0"
   style="fill:#1f1a17" />
  <path
   class="fil2"
   d="m 259.128,378.43 -4.75625,2.37799 c 0.88072,-1.14491 2.46614,-1.93748 4.75625,-2.37799 z"
   id="path68"
   inkscape:connector-curvature="0"
   style="fill:#1f1a17" />
  <path
   class="fil2"
   d="m 265.469,382.129 -4.75625,2.37827 c 0.88072,-1.14491 2.46614,-1.93776 4.75625,-2.37827 z"
   id="path70"
   inkscape:connector-curvature="0"
   style="fill:#1f1a17" />
  <path
   class="fil2"
   d="m 256.749,377.373 -3.69921,1.84961 c 0.68485,-0.89036 1.91792,-1.5069 3.69921,-1.84961 z"
   id="path72"
   inkscape:connector-curvature="0"
   style="fill:#1f1a17" />
  <path
   class="fil2"
   d="m 261.241,379.486 -3.69921,1.84989 c 0.68485,-0.89065 1.91792,-1.50718 3.69921,-1.84989 z"
   id="path74"
   inkscape:connector-curvature="0"
   style="fill:#1f1a17" />
  <path
   class="fil2"
   d="m 281.495,397.91 -12.3625,-6.92306 0.98901,-0.49436 2.96703,1.68123 c 3.93222,-2.20422 10.2705,-4.19046 17.1096,-6.13191 -6.83405,2.2748 -12.9166,4.54989 -16.3185,6.82413 l 8.80215,4.64854 -1.18687,0.39543 z"
   id="path76"
   inkscape:connector-curvature="0"
   style="fill:#1f1a17" />
  <path
   class="fil2"
   d="m 82.306,307.429 c 8.21991,5.07147 16.4548,9.23613 24.7051,12.494 -12.0592,-1.97121 -18.7676,-6.78558 -24.7051,-12.494 z"
   id="path78"
   inkscape:connector-curvature="0"
   style="fill:#1f1a17" />
  <path
   class="fil2"
   d="m 114.19,325.408 c 10.5749,7.10363 19.8244,12.778 29.7303,16.2295 -14.8995,-2.43553 -22.3948,-9.1766 -29.7303,-16.2295 z"
   id="path80"
   inkscape:connector-curvature="0"
   style="fill:#1f1a17" />
  <path
   class="fil2"
   d="m 174.646,341.074 c 3.63884,5.25572 7.52769,9.96577 11.666,14.1299 -6.78955,-4.39427 -9.58026,-9.09326 -11.666,-14.1299 z"
   id="path82"
   inkscape:connector-curvature="0"
   style="fill:#1f1a17" />
  <path
   class="fil2"
   d="m 170.54,345.767 c 3.1663,4.57342 6.5503,8.67175 10.1514,12.2953 -5.90825,-3.82394 -8.33641,-7.91263 -10.1514,-12.2953 z"
   id="path84"
   inkscape:connector-curvature="0"
   style="fill:#1f1a17" />
  <path
   class="fil2"
   d="M 116.101,367.406 C 94.0582,365.42231 86.5487,348.2891 71.1117,344.2798 87.6062,346.71079 93.4745,362.783 116.101,367.406 z"
   id="path86"
   inkscape:connector-curvature="0"
   style="fill:#1f1a17" />
  <path
   class="fil2"
   d="m 62.737,318.073 c 3.72869,6.51374 11.2397,10.2997 15.6626,15.5866 -7.50076,-5.82265 -13.7285,-9.4853 -15.6626,-15.5866 z"
   id="path88"
   inkscape:connector-curvature="0"
   style="fill:#1f1a17" />
  <path
   class="fil2"
   d="m 43.1836,306.183 c 1.74699,6.51374 4.67745,12.9424 10.6418,18.2293 -7.50076,-5.82265 -10.029,-11.3355 -10.6418,-18.2293 z"
   id="path90"
   inkscape:connector-curvature="0"
   style="fill:#1f1a17" />
  <path
   class="fil2"
   d="m 90.1863,323.046 c -9.11679,-3.02173 -16.5368,-13.6928 -31.14,-19.8301 19.7303,6.93383 22.3237,18.0323 31.14,19.8301 z"
   id="path92"
   inkscape:connector-curvature="0"
   style="fill:#1f1a17" />
  <path
   class="fil2"
   d="m 124.975,329.017 c 6.77934,4.18281 13.5714,7.61755 20.3757,10.3048 -9.94621,-1.62595 -15.4789,-5.59644 -20.3757,-10.3048 z"
   id="path94"
   inkscape:connector-curvature="0"
   style="fill:#1f1a17" />
  <path
   class="fil2"
   d="m 80.8475,323.997 c 6.78076,5.1738 20.7062,7.94807 27.5105,9.51194 -9.94479,0.46828 -22.612,-3.3704 -27.5105,-9.51194 z"
   id="path96"
   inkscape:connector-curvature="0"
   style="fill:#1f1a17" />
  <path
   class="fil2"
   d="m 94.2625,308.167 c 5.55648,5.0451 13.8694,6.32863 19.7076,9.99298 -8.93141,-3.22384 -15.9854,-4.7863 -19.7076,-9.99298 z"
   id="path98"
   inkscape:connector-curvature="0"
   style="fill:#1f1a17" />
  <path
   class="fil2"
   d="m 147.948,330.62 c -2.87717,-5.7087 -6.0772,-10.9111 -9.6001,-15.6076 6.11688,5.29115 8.23068,10.3309 9.6001,15.6076 z"
   id="path100"
   inkscape:connector-curvature="0"
   style="fill:#1f1a17" />
  <path
   class="fil2"
   d="m 107.264,307.74 c -4.53799,-4.50255 -9.22167,-8.42287 -14.0511,-11.761 7.47808,3.08013 11.0801,7.19008 14.0511,11.761 z"
   id="path102"
   inkscape:connector-curvature="0"
   style="fill:#1f1a17" />
  <path
   class="fil2"
   d="m 276.173,417.883 c -34.3837,-11.8466 -59.9621,-35.276 -73.3028,-31.3172 21.6661,-2.95795 37.8638,17.6655 73.3028,31.3172 z"
   id="path104"
   inkscape:connector-curvature="0"
   style="fill:#1f1a17" />
  <path
   class="fil2"
   d="m 284.894,417.618 c -27.646,-8.85232 -54.8099,-38.9753 -74.096,-37.6589 25.0243,-1.95109 42.3442,25.1133 74.096,37.6589 z"
   id="path106"
   inkscape:connector-curvature="0"
   style="fill:#1f1a17" />
  <path
   class="fil2"
   d="m 184.423,368.026 c 2.71417,6.48936 22.7203,13.1369 28.0488,15.715 -6.78983,-4.39427 -25.9628,-10.6784 -28.0488,-15.715 z"
   id="path108"
   inkscape:connector-curvature="0"
   style="fill:#1f1a17" />
  <path
   class="fil2"
   d="m 399.837,473.372 c -34.3837,-11.8466 -58.9051,-30.7837 -73.3028,-31.3172 15.3244,-1.10806 37.8635,17.6655 73.3028,31.3172 z"
   id="path110"
   inkscape:connector-curvature="0"
   style="fill:#1f1a17" />
  <path
   class="fil2"
   d="m 332.247,350.752 c -6.8641,3.92145 -13.6437,5.90457 -20.3392,7.01093 9.49238,-0.24435 15.1654,-3.24284 20.3392,-7.01093 z"
   id="path112"
   inkscape:connector-curvature="0"
   style="fill:#1f1a17" />
  <path
   class="fil2"
   d="m 423.145,309.266 c -6.86381,3.92145 -13.6437,5.90457 -20.3392,7.01093 9.49267,-0.24435 15.1654,-3.24284 20.3392,-7.01093 z"
   id="path114"
   inkscape:connector-curvature="0"
   style="fill:#1f1a17" />
  <path
   class="fil2"
   d="m 358.142,319.572 c -6.07522,8.66835 -16.1977,10.4083 -23.5097,7.8035 10.1968,1.8686 19.0403,-1.92132 23.5097,-7.8035 z"
   id="path116"
   inkscape:connector-curvature="0"
   style="fill:#1f1a17" />
  <path
   class="fil2"
   d="m 392.229,304.744 c -5.37534,7.66942 -14.3314,9.20892 -20.8009,6.90407 9.02183,1.65345 16.8463,-1.69965 20.8009,-6.90407 z"
   id="path118"
   inkscape:connector-curvature="0"
   style="fill:#1f1a17" />
  <path
   class="fil2"
   d="m 392.229,359.472 c -6.86381,3.03676 -13.6434,5.37364 -20.3392,7.01093 9.49238,-0.24463 15.1654,-3.24284 20.3392,-7.01093 z"
   id="path120"
   inkscape:connector-curvature="0"
   style="fill:#1f1a17" />
  <path
   class="fil2"
   d="m 375.352,359.308 c -7.29468,1.7657 -18.3249,14.8691 -47.888,21.0787 24.5937,-7.16684 41.4893,-20.9214 47.888,-21.0787 z"
   id="path122"
   inkscape:connector-curvature="0"
   style="fill:#1f1a17" />
  <path
   class="fil2"
   d="m 352.858,329.613 c -5.41446,2.17928 -10.7626,3.28139 -16.0441,3.89651 7.84035,0.21657 12.3148,-1.44992 16.0441,-3.89651 z"
   id="path124"
   inkscape:connector-curvature="0"
   style="fill:#1f1a17" />
  <path
   class="fil2"
   d="m 423.505,298.751 c -3.18047,5.03433 -10.065,6.63648 -15.7122,8.01695 8.11503,-0.72057 13.7299,-2.46671 15.7122,-8.01695 z"
   id="path126"
   inkscape:connector-curvature="0"
   style="fill:#1f1a17" />
  <path
   class="fil2"
   d="m 437.174,300.059 c 11.9806,7.08066 6.83547,16.7604 -3.1201,24.2022 13.521,-11.1991 9.53377,-19.5401 3.1201,-24.2022 z"
   id="path128"
   inkscape:connector-curvature="0"
   style="fill:#1f1a17" />
  <path
   class="fil2"
   d="m 426.654,345.928 c 13.0878,-5.52671 8.57226,-16.6059 13.3818,-22.9853 7.02822,-9.32344 11.7371,-15.0707 3.26523,-25.6346 11.5313,14.2189 2.8012,20.1742 -1.54545,26.3999 -5.63499,8.07222 -0.27128,16.5912 -15.1016,22.2199 z"
   id="path130"
   inkscape:connector-curvature="0"
   style="fill:#1f1a17" />
  <path
   class="fil2"
   d="m 388.549,316.904 c -5.16048,2.72665 -10.3663,4.37528 -15.556,5.5321 7.82051,-0.59386 12.0994,-2.71361 15.556,-5.5321 z"
   id="path132"
   inkscape:connector-curvature="0"
   style="fill:#1f1a17" />
  <path
   class="fil2"
   d="m 392.777,313.205 c -5.16048,2.72665 -10.3663,4.37499 -15.556,5.5321 7.82051,-0.59414 12.0994,-2.71361 15.556,-5.5321 z"
   id="path134"
   inkscape:connector-curvature="0"
   style="fill:#1f1a17" />
  <path
   class="fil2"
   d="m 407.026,333.312 c -6.86438,3.42737 -13.9079,4.8875 -20.6031,6.21837 9.49238,-0.24435 15.4293,-2.45027 20.6031,-6.21837 z"
   id="path136"
   inkscape:connector-curvature="0"
   style="fill:#1f1a17" />
  <path
   class="fil2"
   d="m 407.555,338.596 c -6.8641,3.42766 -13.9076,4.88778 -20.6031,6.21865 9.49238,-0.24463 15.4296,-2.45055 20.6031,-6.21865 z"
   id="path138"
   inkscape:connector-curvature="0"
   style="fill:#1f1a17" />
  <path
   class="fil2"
   d="m 407.026,333.312 c -6.86438,3.42737 -13.9079,4.8875 -20.6031,6.21837 9.49238,-0.24435 15.4293,-2.45027 20.6031,-6.21837 z"
   id="path140"
   inkscape:connector-curvature="0"
   style="fill:#1f1a17" />
  <path
   class="fil2"
   d="m 406.762,330.405 c -6.86438,3.42737 -13.9079,4.8875 -20.6031,6.21837 9.49238,-0.24435 15.4293,-2.45027 20.6031,-6.21837 z"
   id="path142"
   inkscape:connector-curvature="0"
   style="fill:#1f1a17" />
  <path
   class="fil2"
   d="m 399.152,330.892 c 5.16048,-2.72693 15.3867,-8.86734 20.5767,-10.0244 -7.82079,0.59414 -17.1201,7.20567 -20.5767,10.0244 z"
   id="path144"
   inkscape:connector-curvature="0"
   style="fill:#1f1a17" />
  <path
   class="fil2"
   d="m 351.801,336.747 c -6.86381,3.92145 -13.6434,5.90429 -20.3389,7.01093 9.49238,-0.24435 15.1654,-3.24284 20.3389,-7.01093 z"
   id="path146"
   inkscape:connector-curvature="0"
   style="fill:#1f1a17" />
  <path
   class="fil2"
   d="m 375.088,356.93 c -7.29496,1.7657 -18.589,9.8487 -24.8993,12.623 7.68246,-5.58114 18.5006,-12.4659 24.8993,-12.623 z"
   id="path148"
   inkscape:connector-curvature="0"
   style="fill:#1f1a17" />
  <path
   class="fil2"
   d="m 321.942,377.175 c -6.86381,3.92145 -13.6437,5.90457 -20.3389,7.01093 9.49238,-0.24435 15.1651,-3.24284 20.3389,-7.01093 z"
   id="path150"
   inkscape:connector-curvature="0"
   style="fill:#1f1a17" />
  <path
   class="fil2"
   d="m 338.853,360.793 c -5.27868,6.69657 -37.7762,25.5019 -45.7056,24.4505 11.0897,1.99021 42.4588,-17.9847 45.7056,-24.4505 z"
   id="path152"
   inkscape:connector-curvature="0"
   style="fill:#1f1a17" />
  <path
   class="fil2"
   d="m 328.654,379.254 c 5.95503,-5.19874 12.2102,-8.4807 18.5556,-10.8865 -9.25739,2.11266 -14.2271,6.17159 -18.5556,10.8865 z"
   id="path154"
   inkscape:connector-curvature="0"
   style="fill:#1f1a17" />
  <path
   class="fil2"
   d="m 329.447,372.119 c 5.95503,-5.19874 12.2102,-8.48041 18.5556,-10.8865 -9.25767,2.11295 -14.2274,6.17159 -18.5556,10.8865 z"
   id="path156"
   inkscape:connector-curvature="0"
   style="fill:#1f1a17" />
  <path
   class="fil2"
   d="m 319.036,371.891 c -6.86381,3.92145 -29.234,11.7176 -35.9294,12.8242 9.49267,-0.24463 30.7556,-9.05613 35.9294,-12.8242 z"
   id="path158"
   inkscape:connector-curvature="0"
   style="fill:#1f1a17" />
  <path
   class="fil2"
   d="m 275.179,382.337 c 6.86381,-3.92145 29.2337,-11.7176 35.9292,-12.8242 -9.49238,0.24463 -30.7556,9.05613 -35.9292,12.8242 z"
   id="path160"
   inkscape:connector-curvature="0"
   style="fill:#1f1a17" />
  <path
   class="fil2"
   d="m 410.027,341.144 c -5.8646,4.68369 -11.8261,8.66948 -17.8846,11.9571 9.11764,-2.65266 13.8404,-6.99619 17.8846,-11.9571 z"
   id="path162"
   inkscape:connector-curvature="0"
   style="fill:#1f1a17" />
  <path
   class="fil2"
   d="M 305.285,417.31 254.25,387.3929 c 17.0116,8.21169 34.0229,18.5752 51.035,29.9171 z"
   id="path164"
   inkscape:connector-curvature="0"
   style="fill:#1f1a17" />
  <path
   class="fil2"
   d="m 335.788,437.254 65.7,29.3304 c -17.0116,-8.21169 -48.6882,-17.9887 -65.7,-29.3304 z"
   id="path166"
   inkscape:connector-curvature="0"
   style="fill:#1f1a17" />
  <path
   class="fil2"
   d="m 319.95,428.275 c -11.6929,-8.01752 -35.2216,-10.2654 -50.6121,-18.1057 15.1784,5.6024 40.5666,9.25569 50.6121,18.1057 z"
   id="path168"
   inkscape:connector-curvature="0"
   style="fill:#1f1a17" />
  <path
   class="fil2"
   d="m 361.012,444.88 -37.0253,-21.7043 c 12.3418,5.95758 24.6833,13.4759 37.0253,21.7043 z"
   id="path170"
   inkscape:connector-curvature="0"
   style="fill:#1f1a17" />
  <path
   class="fil2"
   d="m 112.705,453.093 33.0225,-19.3581 c -11.0075,5.31355 -22.0147,12.0195 -33.0225,19.3581 z"
   id="path172"
   inkscape:connector-curvature="0"
   style="fill:#1f1a17" />
  <path
   class="fil2"
   d="m 217.512,410.896 c -9.99582,10.0542 -32.6943,15.4701 -46.3558,26.0388 15.4344,-7.54867 39.6978,-14.6908 46.3558,-26.0388 z"
   id="path174"
   inkscape:connector-curvature="0"
   style="fill:#1f1a17" />
  <path
   class="fil2"
   d="m 116.05,465.281 c 11.8239,-13.1774 33.5035,-14.9871 46.2847,-27.5916 -14.726,8.85119 -40.6298,15.7119 -46.2847,27.5916 z"
   id="path176"
   inkscape:connector-curvature="0"
   style="fill:#1f1a17" />
  <polygon
   class="fil2"
   points="194.654,411.988 206.28,403.796 208.13,404.325 203.109,408.553 "
   id="polygon178"
   style="fill:#1f1a17" />
  <path
   class="fil2"
   d="m 209.715,405.118 -4.75625,3.43503 c 0.88044,-1.14491 2.46586,-2.99452 4.75625,-3.43503 z"
   id="path180"
   inkscape:connector-curvature="0"
   style="fill:#1f1a17" />
  <path
   class="fil2"
   d="m 217.906,408.024 -4.75625,2.37827 c 0.88073,-1.14491 2.46614,-1.93776 4.75625,-2.37827 z"
   id="path182"
   inkscape:connector-curvature="0"
   style="fill:#1f1a17" />
  <path
   class="fil2"
   d="m 220.02,408.817 -6.34167,3.17084 c 1.17439,-1.52674 3.28819,-2.5835 6.34167,-3.17084 z"
   id="path184"
   inkscape:connector-curvature="0"
   style="fill:#1f1a17" />
  <path
   class="fil2"
   d="m 214.736,406.967 -10.8337,5.41701 c 2.0058,-2.60788 5.61714,-4.41355 10.8337,-5.41701 z"
   id="path186"
   inkscape:connector-curvature="0"
   style="fill:#1f1a17" />
  <polygon
   class="fil2"
   points="234.289,412.516 232.175,411.723 230.326,413.045 229.797,410.931 228.476,410.667 227.419,411.723 226.362,409.61 224.512,409.874 222.927,408.553 216.321,413.837 221.87,411.195 215,416.744 219.756,414.63 221.077,415.423 198.089,427.049 218.435,418.858 215,421.5 239.574,414.102 236.667,413.045 234.289,413.573 "
   id="polygon188"
   style="fill:#1f1a17" />
 </g>
</svg>