<?xml version="1.0" encoding="UTF-8"?>
<!DOCTYPE svg PUBLIC "-//W3C//DTD SVG 1.1//EN" "http://www.w3.org/Graphics/SVG/1.1/DTD/svg11.dtd">
<!-- Creator: CorelDRAW -->
<svg xmlns="http://www.w3.org/2000/svg" xml:space="preserve" width="500px" height="558px" shape-rendering="geometricPrecision" text-rendering="geometricPrecision" image-rendering="optimizeQuality" fill-rule="evenodd" clip-rule="evenodd"
viewBox="0 0 500 558"
 xmlns:xlink="http://www.w3.org/1999/xlink"
 xmlns:svg="http://www.w3.org/2000/svg"
 version="1.0">
 <g id="Layer_x0020_1">
  <metadata id="CorelCorpID_0Corel-Layer"/>
  <path id="path1937" fill="black" stroke="black" stroke-width="1.41732" d="M0.810709 0.966048l498.33 -0.040252 0.286016 313.448c-11.4287,321.569 -482.384,324.821 -498.286,0.37474l-0.329386 -313.782z"/>
  <path fill="#CCCCCC" d="M127.237 335.256c25.2292,-1.6543 62.6687,1.56501 92.1977,7.77204 29.8721,-38.249 62.7837,-54.5959 71.6996,-54.0723 0.343559,22.7608 5.55931,40.8181 14.1732,56.3868 -7.12517,2.52085 -12.9932,5.51339 -20.1175,10.8649 22.7676,3.27827 42.9679,4.40816 61.5433,1.81786 17.2964,-30.5479 27.5003,-24.4783 28.7538,-18.7974 1.92246,8.71285 -3.26693,10.317 -4.13207,14.1602 40.1548,-11.6943 23.741,-23.3754 69.4061,-64.5872 8.67771,-7.83128 17.428,-16.0339 19.696,-12.1278 1.95902,3.3738 -19.1004,51.0466 -12.6593,62.0283 8.06514,13.7506 38.7865,23.9624 38.7352,26.9683 -0.0637796,3.71764 -29.0455,10.2532 -47.3069,11.2674 -12.3097,0.683717 -21.8741,1.55764 -26.0201,2.02507 -4.51503,0.509103 -28.5628,19.3867 -33.2161,22.5207 4.94022,2.98063 16.168,6.58999 14.8212,10.514 -18.8289,17.0232 -34.0932,31.8056 -39.5005,46.313 -15.5693,-3.3806 -28.7805,-10.3235 -39.6332,-16.4276 -23.044,6.55229 -46.7691,10.5619 -66.1428,8.09859 4.93937,3.57619 15.4522,6.59906 16.223,10.3269 1.57776,7.6303 -1.53496,16.7976 -3.58384,24.0372 -2.25043,7.95204 -3.60851,13.6446 -5.21745,13.9482 -2.56677,0.484441 -6.43947,-5.69055 -12.5413,-14.0511 -0.950457,1.89383 -7.24422,15.1019 -8.19582,14.4828 -7.91519,-5.15027 -14.0006,-31.2667 -18.6432,-49.572 -20.4219,-2.63225 -39.4818,-6.62627 -56.5489,-12.6099 -1.33313,9.03034 -7.5104,24.0611 -9.65849,24.8908 -2.43723,0.941386 -5.89833,-4.93654 -10.5764,-11.3346 -1.11827,2.02167 -3.13994,8.69273 -4.9269,7.63654 -4.84384,-2.86299 -15.6986,-29.1303 -17.8889,-38.8225 -4.32057,-2.52822 -14.599,-7.43103 -25.6456,-17.8373 -14.5247,-5.27018 -41.4621,-21.475 -43.6706,-27.5545 -2.02791,-5.58142 5.86432,-2.60504 10.3683,-2.64983 -5.34529,-11.3431 -13.826,-8.85941 -12.263,-14.5392 2.00806,-7.29723 32.0443,-13.5473 43.3508,-16.7057l37.1206 -4.37074z"/>
  <path fill="#BF9F4F" d="M280.005 255.691c11.6838,-3.61673 39.8801,4.58533 76.5766,1.79348 27.6477,-2.10359 59.6639,-10.8119 70.1825,-22.9759 -47.0251,11.9506 -103.838,5.50829 -122.907,-7.03361 -4.14766,-2.72806 -0.365953,-19.173 5.54088,-23.3184 6.36066,-4.46344 29.0344,0.814111 52.9316,-1.72942 21.7573,-2.31591 45.2829,-13.0915 43.7463,-16.1121 -2.63537,-5.18032 -11.6374,1.09332 -26.8138,0.936284 -17.7489,-0.183685 -41.1293,-3.83641 -53.8132,-7.35307 -17.1391,-4.75229 -9.98986,-26.6185 -4.52835,-31.0377 8.24315,-6.66992 48.3622,-1.06554 81.0426,-4.30866 24.713,-2.45254 39.4881,-12.128 37.6895,-15.5376 -1.19509,-2.26602 -6.88337,-0.615969 -14.4833,0.97852 -4.54649,0.953859 -31.7509,0.614835 -36.8294,-8.9487 -5.9794,-11.2601 21.9319,-44.7696 13.4425,-51.5265 -3.2332,-2.57329 -16.3355,23.101 -26.4042,28.5211 1.56274,-11.8698 7.82986,-23.6809 4.9663,-26.4529 -3.59377,-3.47896 -8.69159,9.07682 -17.2545,20.361 -11.1969,14.7555 -39.2338,43.2014 -59.1772,25.3965 -15.0114,-13.4016 -4.87106,-34.0092 2.25354,-55.7133 4.39087,-13.3764 9.72312,-38.42 3.88177,-43.3315 -9.11963,0.792 -3.52432,19.1203 -28.1169,32.0596 1.18517,-13.7818 5.50403,-25.7202 -1.76684,-25.1059 -5.18882,0.43852 -7.32643,13.741 -12.5753,21.1666 -4.73216,6.69515 -10.7243,13.1567 -16.636,18.2064 -26.2806,5.44621 -64.154,9.32372 -114.215,4.69333 -18.053,-1.66989 -34.3225,-6.14608 -34.4875,-2.5132 -0.522425,11.5087 78.5098,22.6219 71.5666,24.5863 -63.2047,9.4493 -77.3411,-4.32681 -77.0287,4.65307 0.206646,5.9349 34.6255,13.1437 56.5521,14.1494 38.5963,1.7708 86.1903,-3.0274 105.376,20.0478 15.9259,19.154 17.4422,55.7309 0.0459213,82.3352 -18.9641,29.0021 -51.4996,48.0529 -65.4018,48.6014 -3.87099,0.152504 -29.2193,-20.2941 -47.7851,-38.2278 -19.4009,-20.238 -34.0968,-41.9774 -37.1764,-39.7803 -5.0349,3.59263 17.4611,38.4835 15.4534,40.1599 -3.81515,3.18558 -20.9614,-19.8644 -23.4337,-17.0518 -3.83698,4.36422 9.43257,17.5453 12.8237,25.8143 1.61632,3.94158 16.7613,20.1229 27.22,30.0824 7.63172,7.26775 16.1212,14.993 16.0486,19.4718 -0.0737008,4.55499 -7.45909,5.57518 -15.9163,10.4536 -13.2086,7.61981 -25.1422,10.0902 -31.6086,8.47304 -22.4348,-5.37534 -30.1011,-60.325 -37.8224,-58.1176 -5.18797,1.48309 -0.556725,27.4487 -5.27613,28.3272 -6.44344,1.19962 -14.2311,-25.8971 -18.4244,-24.948 -5.01024,1.13386 5.78353,28.1512 2.75103,29.3908 -6.75893,2.76293 -18.4839,-26.6891 -22.8935,-24.5197 -6.27874,3.08891 13.4382,30.2857 12.3245,32.6991 -1.78611,3.86929 -17.0314,-14.1554 -18.392,-11.833 -2.3108,3.94413 6.92788,18.121 19.6659,29.3647 16.3777,14.4558 38.1297,25.5841 44.2126,28.8638 4.16863,2.24731 4.03314,12.0705 9.28347,13.7242 8.80668,2.77399 16.6898,3.82592 29.0469,-3.65953 3.53877,-2.14356 -0.995528,-4.0286 4.8515,-9.83764 3.55635,-3.53282 45.8572,-19.6557 83.7803,-37.9256 31.7619,-15.3014 53.3206,-31.8943 67.9116,-36.411z"/>
  <path fill="white" d="M301.314 337.391c-0.284599,-0.629292 -0.564378,-1.26227 -0.838205,-1.89978 -6.82696,2.70964 -13.0785,7.435 -19.0675,13.0774 6.63477,-4.74803 13.2701,-8.94558 19.9057,-11.1776zm-211.197 2.23597c-11.3066,3.15836 -41.3428,9.40848 -43.3508,16.7057 -0.500599,1.81928 0.0291969,2.80091 1.15625,3.66775l4.2086 -0.596126 -1.09928 -0.942237 -1.41336 -0.314079 0.157039 -2.04151 1.09928 0 0.471118 0.942237 2.98375 1.09928 0.785197 -0.314079 5.1823 2.51263 -2.19855 -2.66967 -3.45487 -1.25632 1.57039 -1.41336 3.29783 0 0.785197 -2.82671 1.72743 0.314079 0.471118 1.25632 0.942237 -0.157039 0.471118 -1.41336 1.41336 0.314079 0 1.25632 1.09928 -0.471118 0.314079 -2.98375 1.41336 1.09928 1.72743 2.35559 0.314079 -3.45487 5.02526 -4.3971 0.785197 1.88447 11.778 -2.35559 2.82671 2.51263 -0.471118 -2.98375 3.45487 -2.19855 -3.47244 -3.13115zm-31.0879 31.2449c-4.50397,0.0447874 -12.3962,-2.93159 -10.3683,2.64983l3.1561 -1.24016 9.26533 0.471118 1.88447 2.51263 -1.88447 -4.71118 -2.05313 0.317764zm81.3042 80.1794c-1.1605,2.61695 -2.90381,7.60876 -4.4674,6.68466 -4.84384,-2.86299 -15.6986,-29.1303 -17.8889,-38.8225l5.13581 2.67846 -1.41336 2.66967 2.51263 0.942237 -1.25632 2.04151 1.72743 0.942237 0 3.76895 1.41336 0.314079 0.942237 1.88447 -0.942237 4.3971 3.14079 -0.628158 1.57039 7.85197 1.72743 0.628158 2.04151 3.92599 -0.628158 2.04151 1.41336 -0.157039 0.314079 2.35559c1.20359,0.680032 2.19799,-0.523843 2.98375,-3.61191l1.67358 0.0929764zm20.6943 -14.508c-1.33313,9.03034 -7.5104,24.0613 -9.65849,24.8908 -2.17021,0.838205 -5.15367,-3.7321 -9.08504,-9.26221l1.29288 -1.48507c0.811559,-1.52787 0.157606,-4.31235 -1.96186,-8.35229l-1.99049 0.140882c-5.54287,-11.8726 -11.4398,-25.4478 -16.2181,-31.3957 -1.8051,-3.44268 4.9921,-4.428 12.0668,-5.33339 -3.85852,1.19877 -8.50224,2.08347 -11.5753,3.5966 8.01326,11.3298 17.9121,32.0848 27.3249,50.4097l3.61191 -7.85197c-3.80211,-4.56095 -7.87181,-10.463 -12.092,-17.1173 4.3183,5.7841 8.50621,11.1759 12.4061,15.7039l3.14079 -7.85197c-6.4389,-6.28158 -12.6683,-15.0758 -18.6877,-26.3826 6.33345,10.0896 12.6675,18.648 19.0018,24.9693l1.25632 -5.33934 1.16759 0.660756zm99.6517 50.6911c0.628158,-2.35559 1.25632,-4.71118 1.88447,-7.06678 -8.42826,-7.26322 -15.0239,-16.8165 -20.101,-28.2671 6.20192,11.7941 13.0595,19.9851 20.101,27.1678l1.72743 -7.06678c-7.19802,-7.53818 -14.0032,-15.3377 -19.944,-23.713 7.13339,8.79959 13.9615,16.3783 20.2581,21.8285 4.24177,-15.5064 -9.1046,-12.1677 -15.0701,-20.1359 4.93937,3.57619 15.4522,6.59906 16.223,10.3269 1.57776,7.6303 -1.53496,16.7976 -3.58384,24.0372 -2.25043,7.95204 -3.60879,13.6446 -5.21745,13.9482 -2.42617,0.457512 -6.01994,-5.0349 -11.5603,-12.6998l0.363969 -1.5001 2.35559 1.09928c-6.80542,-11.5461 -13.6106,-26.1964 -20.4151,-43.1858l17.2743 0.471118 0.157039 0.942237 -13.9765 -0.628158 -0.471118 0.628158c9.3498,25.784 18.1834,42.0047 26.6967,52.2941l3.14079 -7.38085c-8.16633,-8.06174 -15.2858,-19.264 -21.3574,-33.6064 7.17137,14.4414 14.3425,26.0226 21.5144,32.5072m54.9987 -45.3518c10.8527,6.10413 24.0639,13.047 39.6332,16.4276 5.40737,-14.5074 20.6717,-29.2898 39.5005,-46.313 1.22032,-3.55606 -7.88627,-6.85389 -13.2817,-9.65963l-0.558425 0.723685 0.942237 2.35559c4.14964,1.72091 10.0919,3.79984 11.6209,6.12454 -1.98936,1.46551 -3.50731,3.24539 -5.9675,4.3971l-9.42237 -5.02526 -1.41336 0.157039 9.73645 6.12454 -6.12454 5.9675 -10.6787 -5.65342 -1.25632 0.157039 11.3068 6.59566 -5.65342 5.9675c-4.30271,-1.20076 -9.4133,-3.77263 -14.1336,-7.06678l-0.471118 0.628158c4.3183,3.37606 9.44816,6.41197 13.3484,7.69493l-6.59566 6.90974c-5.23503,-2.32951 -11.6736,-5.78466 -17.7455,-10.2076l-0.785197 0.157039c5.7841,4.58022 11.7513,8.82029 17.1173,11.3068l-4.86822 6.59566c-5.81074,-1.83232 -11.831,-4.71175 -18.0595,-8.63717l-2.04151 0c6.47122,3.97134 12.7919,7.49169 18.8447,10.2076l-4.55414 8.79421c-18.112,-4.03087 -26.4875,-9.94593 -36.9043,-14.9187m166.455 -78.4497c-7.19802,-4.17855 -26.0405,-12.0147 -34.0747,-21.9668l0.631843 3.36614c-6.45194,3.76866 -17.4186,8.11333 -21.3574,8.63717l-0.942237 2.82671c9.13437,-3.06255 17.3529,-6.25607 23.5559,-9.73645 1.51795,2.25071 4.29222,3.55947 6.43862,5.33934 -2.69462,2.40435 -15.3213,5.91307 -29.3664,9.57941l-0.314079 0.942237c15.2325,-3.14107 26.2775,-6.07266 33.1353,-8.79421 2.25071,2.25071 5.44394,3.55947 8.16605,5.33934 -4.72224,4.60687 -26.6247,7.53733 -38.6317,9.10829l-1.57039 0.785197c15.3964,-0.425481 30.0402,-2.50611 43.3429,-7.53789 3.03591,0.209197 7.01433,2.30315 10.5216,3.45487l0.464599 -1.34334zm-47.4194 -19.3859c4.44189,-4.08813 6.99931,-5.66362 10.499,-8.49515 -0.112819,-0.794268 -0.170362,-1.66025 -0.178583,-2.58747l-12.3619 9.66926 -0.314079 2.35559 2.35559 -0.942237m12.1286 -24.1878c0.371622,-1.63332 0.788032,-3.30888 1.23647,-5.00712 -18.4059,16.4659 -18.9473,19.0361 -26.0853,25.583l0.942237 0.471118c7.96876,-7.01575 13.5819,-14.3456 23.9066,-21.047m6.47575 -22.4396c0.764788,-2.3658 1.50945,-4.63663 2.19402,-6.751 -15.8842,17.4787 -23.131,20.0387 -47.6521,52.4362l0.157039 2.51263c16.5138,-22.8991 31.2999,-37.4465 45.3011,-48.1978zm5.02866 -16.0393c0.62504,-2.38167 0.881008,-3.99062 0.57515,-4.51729 -2.26772,-3.90614 -11.0183,4.29619 -19.696,12.1278 -45.5335,41.0927 -29.3457,52.8253 -69.0594,64.4857 -0.630426,0.184819 0.138331,1.46976 -0.520441,1.65487l-2.45934 1.3218 -1.72743 -0.314079 -2.98375 1.25632 0 0.785197 -2.66967 -0.785197 -2.19855 1.57039 -3.92599 -1.25632 -2.66967 1.72743 -2.66967 -0.942237c5.03915,-3.42907 11.8057,-23.0332 25.0112,-20.6518 -2.67137,-4.91244 -12.4804,-7.31141 -28.1551,20.3723 -18.5754,2.5903 -38.7757,1.46041 -61.5433,-1.81786l-9.27837 -0.415276 -0.785197 -2.19855 -2.35559 -0.314079 -0.471118 1.41336 -3.92599 -0.785197 -4.71118 -0.157039 -0.942237 -0.314079c0.0263622,-3.56032 19.1605,-17.9955 34.6303,-26.1094 -0.22337,-0.662174 -0.441355,-1.32945 -0.653386,-2.00098 -15.4613,9.47452 -27.7815,18.5307 -36.9607,27.1681l-4.55414 -0.314079 0.157039 -0.785197 -4.86822 0 0.157039 -1.25632 -1.57039 0c10.6418,-12.6439 25.8438,-23.7677 45.2804,-33.4797 -0.162142,-0.705544 -0.318898,-1.41647 -0.469418,-2.13251 -20.5158,10.5681 -35.6032,22.6877 -47.3236,35.7693l-3.29783 -0.314079 0.157039 -0.628158 -6.12454 -0.628158c0.0493229,-9.53689 37.1393,-39.894 54.7492,-45.6095 -0.158173,-1.38217 -0.296788,-2.78306 -0.414425,-4.20321 -4.70608,5.59446 -13.0504,8.09008 -18.9074,12.1981 -16.861,11.8253 -30.0314,23.9976 -39.5104,36.5154l-3.14079 -1.72743 -0.157039 1.09928 -1.88447 -0.628158 0.471118 -0.942237 -2.66967 -0.628158c2.94803,-11.7791 43.3834,-49.1845 65.4392,-51.6308 -0.0589607,-1.38614 -0.0997796,-2.79043 -0.121039,-4.21285 -8.91582,-0.523559 -41.8275,15.8233 -71.6996,54.0723 -29.5291,-6.20703 -66.9685,-9.42634 -92.1977,-7.77204l-0.0416693 2.94775 1.57039 0.471118 3.76895 4.08303 -1.88447 -4.55414 2.66967 0.314079 3.92599 3.14079 -0.471118 -3.76895 1.25632 -0.157039 0.942237 1.57039 1.25632 -1.41336 1.72743 2.82671 -0.157039 -3.14079 1.72743 0.157039 2.35559 3.14079 2.35559 1.09928 -1.88447 -2.98375 0.785197 -0.942237 2.98375 -0.942237 2.82671 0.628158 2.66967 1.88447 0.471118 2.51263 2.04151 -2.66967 -1.41336 -1.88447 2.51263 0.314079 2.66967 5.1823 1.72743 -2.35559 -1.25632 -2.19855 3.14079 -0.314079 2.82671 4.55414 1.41336 -2.66967 -1.72743 0.314079 0 -1.57039 2.35559 0.157039 4.08303 5.1823 1.25632 -2.19855 -2.04151 -2.51263 2.51263 -0.157039 4.08303 5.02526 0.157039 -2.51263 -1.09928 -1.72743 2.66967 0.157039 3.76895 5.49638 0.471118 -1.57039 -2.04151 -3.29783 2.35559 -0.157039 5.02526 5.1823 0 -2.19855 -1.57039 -3.45487 1.88447 -0.314079 3.45487 2.35559 0.157039 3.45487 1.57039 0.785197 2.35559 0.314079 -1.09928 -3.14079 -0.942237 -2.35559 1.88447 0 2.04151 2.35559 2.19855 4.55414 0.785197 -1.57039 -0.942237 -2.19855 0.314079 -1.57039 1.72743 0.471118 2.04151 2.98375 1.25632 2.82671 2.19855 -0.314079 -2.19855 -4.3971 1.57039 0.157039 2.51263 1.25632 2.04151 5.49638 0.942237 -3.45487 0 -2.35559 2.19855 -0.157039 1.88447 2.82671 1.72743 2.98375 1.72743 -0.314079 -0.157039 -1.88447 -1.88447 -2.66967 1.72743 -0.471118 0.628158 -1.57039 1.25632 1.88447 2.98375 5.02526 0.471118 -1.41336 -1.25632 -2.51263 5.02526 1.57039 2.04151 4.08303 1.25632 -1.72743 -0.471118 -1.88447 3.45487 0.471118 1.72743 2.35559 0 1.88447 2.35559 0.314079 -0.942237 -2.19855 1.41336 -1.25632 1.72743 0 0.785197 2.04151 3.61191 3.76895 -1.25632 -3.29783 0.785197 -1.41336 2.66967 0.471118 0.157039 1.88447 2.66967 2.98375 1.72743 -0.314079 -1.41336 -1.72743 0.157039 -2.04151 1.88447 0 2.66967 1.72743 1.41336 3.14079 1.72743 0 -1.41336 -2.98375 1.09928 -0.942237 2.04151 1.25632 1.25632 2.35559 2.82671 2.66967 0.314079 -1.57039 -1.25632 -1.88447 1.72743 -2.04151 2.04151 1.41336 1.57039 2.51263 0.157039 1.72743 2.82671 0.157039 -1.09928 -1.72743 0 -1.88447 1.72743 0 2.19855 1.57039 1.88447 3.14079 2.04151 0.314079 0 -2.98375 0.942237 -0.628158 2.51263 1.57039 3.61191 4.08303 0.471118 -1.88447 -1.25632 -1.09928 0.314079 -1.72743 2.82671 0.628158 2.82671 4.71118 2.19855 -1.41336 -1.09928 -1.88447 0.628158 -1.41336 2.66967 1.72743 1.41336 3.29783 2.66967 -0.157039 -1.41336 -2.82671 1.09928 -0.942237 2.51263 1.09928 1.09928 2.04151 3.45487 2.04151 -1.88447 -2.82671 0.314079 -2.19855 2.35559 1.09928 1.57039 2.35559 3.61191 -0.157039 -1.41336 -0.942237 0.314079 -1.72743 1.72743 0.157039 3.76895 3.92599 0.314079 -2.19855 1.25632 -2.04151 2.35559 0.628158 2.51263 4.71118 0.157039 -4.3971 1.57039 -0.628158 1.41336 0.471118 2.35559 2.35559 2.19855 -0.157039 -1.72743 -2.04151 1.41336 -1.25632 2.82671 1.09928 2.04151 3.14079 0.471118 -3.92599 2.04151 -0.157039 3.45487 3.76895 0.942237 -0.157039 0 -4.08303 1.41336 -0.157039 2.98375 2.66967 2.35559 -0.471118 -1.09928 -1.57039 2.35559 -2.51263 0.785197 2.04151 1.25632 1.57039 1.72743 0 0 -3.92599 2.04151 0.942237 2.19855 2.19855 1.41336 -1.25632 -1.09928 -0.785197 0.785197 -1.57039 3.45487 1.25632 2.98375 0 -1.57039 -0.942237 0.157039 -1.88447 1.57039 0.157039 1.41336 1.57039 3.14079 -0.471118 -0.628158 -1.88447 1.88447 -0.785197 1.88447 1.72743 1.41336 -0.785197 -0.471118 -2.04151 2.51263 -0.628158 0.785197 1.57039 2.35559 -0.942237 -0.314079 -1.88447 1.72743 -0.628158 1.09928 1.72743 1.57039 0.471118 0 -3.29783 1.72743 -0.628158 0 1.41336 3.45487 -3.45487 2.82671 0 0 -2.19855 2.04151 -0.628158 2.19855 0.942237 0.785197 -2.66967 1.09928 0 1.09928 1.09928c0.0521575,-1.15172 0.104598,-2.30343 0.157039,-3.45487 11.0452,-17.1088 23.7079,-33.7774 40.3039,-49.3716 3.82989,-3.59858 11.2448,-10.7606 16.4645,-10.6254m-223.073 213.739c-4.9731,-9.10885 -9.21289,-22.8234 -13.3484,-41.1443 -1.74076,-0.669827 -3.48151,-4.3234 -5.22227,-2.0092 4.55471,18.085 10.4369,42.0407 17.981,46.9494 0.951591,0.619087 7.24536,-12.589 8.19582,-14.4828 -1.12224,1.04967 -2.08715,3.82677 -3.36614,3.14901 -4.29081,-7.59289 -8.35881,-16.7443 -11.8108,-30.2026l-1.69455 -2.77569c4.16778,17.8764 8.604,28.241 13.1913,34.3916 -1.0474,5.50233 -2.98517,6.71018 -3.92599,6.12454"/>
  <path fill="black" d="M92.1754 344.014c13.6766,5.12362 24.5914,3.14674 32.8212,-4.71118 2.14753,2.09225 4.3971,4.77978 4.86822,7.85197l-3.45487 -3.76895 -1.41336 0.942237c0.369921,0.800504 0.802205,1.75606 1.27814,2.82614l0.698457 -1.42073 0.0600945 3.13909c3.93903,8.98895 9.88583,23.5267 9.64035,26.144 -9.8263,4.49773 -17.5425,22.8461 -33.4029,26.2967 -5.58312,1.21465 -11.3462,-1.69143 -19.6107,-6.23339 -3.42369,-1.88164 -9.96945,-4.58674 -14.7767,-7.55292 -4.80728,-2.96617 -7.87635,-6.1937 -11.2567,-7.86501 5.74186,1.42441 11.1745,7.25755 16.8795,9.42492 7.85991,2.98602 18.0298,11.5778 26.6205,10.8332l-7.22381 -3.29783c4.19953,1.07603 8.41153,2.12485 13.0343,2.35559l2.51263 -1.41336 -6.28158 -0.785197 7.85197 -0.628158 3.14079 -1.88447 -4.08303 -1.41336 4.71118 0.157039 3.92599 -2.82671 -5.33934 -1.09928 6.12454 0.157039 1.88447 -2.04151 -5.33934 -0.785197 5.81046 -0.471118 1.25632 -1.88447 -4.86822 -0.942237 6.12454 -0.314079 3.14079 -2.51263 -7.38085 -0.628158 8.00901 -0.471118 2.66967 -1.57039 -5.1823 -1.25632 5.9675 0 3.14079 -2.04151 -0.157039 -0.471118 -5.9675 -0.785197 5.81046 -0.471118 -0.628158 -2.04151 -5.81046 -1.25632 5.33934 -0.314079 -1.09928 -2.35559 -4.86822 -1.09928 4.86822 -0.471118 -0.942237 -1.88447 -3.76895 -0.471118 2.35559 -0.785197 -0.157039 -1.72743 -4.3971 -1.57039 4.24007 -0.471118c-0.196158,-0.476221 -0.392599,-0.960378 -0.58904,-1.44822l-1.83232 -2.13732 0.586772 -0.960662c-0.370488,-0.910772 -0.74126,-1.80057 -1.11203,-2.63962l-1.56473 -1.87795 -0.519874 -2.11039c-0.416693,-0.612 -0.83367,-1.08907 -1.25036,-1.38898l-2.04151 0.628158c3.62948,13.9655 0.940536,24.6337 -3.88687,33.7748 -3.0943,5.8595 -7.52089,11.9534 -12.4081,13.5788 -4.25481,1.41477 -9.31522,2.33688 -14.271,0.327402 -6.82838,-2.76888 -12.7015,-3.27288 -14.6614,-7.00781 5.24948,3.07758 19.5599,7.38822 25.7497,6.19994 3.07616,-0.59074 6.35471,-2.24306 6.98797,-4.98331 0.501449,-2.17049 6.04885,-5.10605 6.05112,-9.8538l-10.5216 0.785197c3.84236,-2.79723 10.7198,-3.31852 13.712,-7.32359 4.04107,-5.40879 4.62756,-14.2722 2.46302,-24.7125l-3.76895 1.41336c-0.160158,6.99166 -3.49937,16.5739 -7.20397,21.5204 -5.40567,7.21701 -8.23578,12.5824 -12.28,14.8303 -6.44911,3.58469 -13.6083,3.24142 -17.0076,0.646016 -3.22753,-2.46473 -7.63597,-3.34517 -8.10766,-8.4155 9.08193,2.60873 13.3217,7.5053 25.9115,0.314079 -5.94085,6.46413 -13.8453,7.72016 -20.8862,3.45487 3.9464,6.52252 13.2551,6.6257 19.7719,1.68662 1.71156,-1.29685 4.70693,-2.63084 5.60098,-5.76029 0.583087,-2.0418 13.3186,-14.0119 12.9447,-27.8053 -4.86822,0.314079 -7.22381,2.19855 -14.6047,-0.471118 0.954993,9.85437 -2.31676,14.4867 -8.48013,15.5469 4.65846,-2.72211 6.80457,-6.6481 6.43862,-13.1913 -7.14615,1.38756 -9.97257,0.183118 -10.8357,-2.19855 4.65336,1.9525 9.83793,2.23852 11.3068,-0.471118 -2.35559,-1.3612 -5.33934,-2.09395 -7.06678,-4.08303z"/>
  <path fill="white" d="M83.3026 348.569c4.81266,0 8.71569,3.83273 8.71569,8.55865 0,1.97972 -0.893481,5.84022 -2.30627,5.724l-0.446457 -5.2526 -0.918142 6.50778c-1.42384,0.994394 -3.16488,1.57947 -5.04482,1.57947 -4.81266,0 -8.71569,-3.83273 -8.71569,-8.55865 0,-0.886111 0.13748,-1.74076 0.392032,-2.54495 1.41137,4.22136 8.91497,11.2229 12.5444,3.72955 3.14419,-6.49134 -4.18422,-8.94019 -9.43484,-8.04274 1.45417,-1.06781 3.25899,-1.7005 5.21405,-1.7005z"/>
  <path fill="black" d="M79.6907 350.139c2.55799,0 4.63266,2.07439 4.63266,4.63266 0,2.55827 -2.07468,4.63266 -4.63266,4.63266 -2.23824,0 -4.10599,-1.58825 -4.53827,-3.69921 -0.0615118,-0.301606 -0.0943937,-0.613985 -0.0943937,-0.933449 0,-0.879024 2.0418,3.9926 4.28287,0.895748 2.37515,-3.28224 -2.5801,-4.5771 -1.85811,-4.96942 0.656221,-0.356599 1.40854,-0.558992 2.20791,-0.558992z"/>
  <ellipse fill="white" transform="matrix(0.789791 -0.613376 0.613376 0.789791 77.5707 353.829)" rx="1.88447" ry="1.02076"/>
  <path fill="black" d="M74.901 364.587c-0.48189,-2.23399 -3.49058,-3.80608 -3.91748,-7.6612 -0.350646,-3.16715 1.16929,-6.78671 3.76044,-9.92722 -6.70281,4.99833 -6.96359,12.6408 0.157039,17.5884z"/>
  <path fill="black" d="M60.1251 361.363c4.44047,3.04526 15.9279,13.6055 4.71544,15.4038 -4.33559,0.543118 -8.91695,1.27814 -13.2007,-1.66025 6.30426,2.04208 9.14457,1.32463 12.7227,0.714615 -1.02643,-1.91736 -2.23965,-3.83471 -2.9228,-5.87679 1.32945,1.54772 3.13994,7.20057 6.13985,4.64259 2.0109,-1.71496 -0.593859,-5.71295 -3.30208,-8.8064 -1.91367,-2.1858 -3.94158,-3.78029 -4.15247,-4.41751z"/>
  <path fill="black" d="M133.32 347.94c-0.680882,-2.19884 -1.57096,-4.18819 -2.66967,-5.9675 2.40775,0.941953 2.98318,3.08806 2.66967,5.9675z"/>
  <path fill="black" d="M135.185 345.753c-0.69052,-2.3281 -1.77704,-4.21739 -3.25871,-5.66759 2.49052,0.694205 3.27969,2.77115 3.25871,5.66759z"/>
  <path fill="black" d="M140.591 346.414c0.00141732,-2.42844 -0.501449,-4.54904 -1.5086,-6.36095 2.18948,1.3748 2.35417,3.59065 1.5086,6.36095z"/>
  <path fill="black" d="M148.359 346.957c-0.594992,-2.3281 -1.67074,-4.63663 -2.94718,-6.08684 2.14554,0.694205 3.52432,3.33043 2.94718,6.08684z"/>
  <path fill="black" d="M158.396 347.234c-0.0666142,-2.40208 -0.562677,-4.45125 -1.48791,-6.14722 2.68498,1.70901 2.88992,3.8846 1.48791,6.14722z"/>
  <path fill="black" d="M164.52 348.49c-0.0666142,-2.40208 -0.562677,-4.45125 -1.48791,-6.14722 1.93975,1.1503 2.14469,3.32617 1.48791,6.14722z"/>
  <path fill="black" d="M173.788 348.403c-0.31748,-2.38195 -1.02529,-4.36791 -2.12287,-5.95786 2.04945,0.941103 2.48088,3.08353 2.12287,5.95786z"/>
  <path fill="black" d="M181.026 347.885c-1.12621,-1.61915 -2.4429,-3.42794 -4.02888,-4.87559 2.24759,0.185102 3.38429,2.05172 4.02888,4.87559z"/>
  <path fill="black" d="M185.819 349.175c-0.650268,-2.31307 -1.63106,-4.17969 -2.9418,-5.59871 2.1617,0.642614 2.89106,2.70284 2.9418,5.59871z"/>
  <path fill="black" d="M193.589 351.409c-1.11147,-2.13052 -2.76888,-4.13858 -4.34325,-5.25827 2.87291,-0.340725 4.31121,2.11862 4.34325,5.25827z"/>
  <path fill="black" d="M195.966 351.582c-0.220536,-2.39273 -0.846993,-5.19137 -1.87909,-6.82441 2.32469,1.02331 2.8783,3.96681 1.87909,6.82441z"/>
  <path fill="black" d="M201.755 352.596c-1.26879,-1.81502 -2.71786,-3.23036 -4.02888,-4.87559 2.24759,0.185102 3.38429,2.05172 4.02888,4.87559z"/>
  <path fill="black" d="M209.255 358.307c-0.388063,-3.14532 -1.52079,-7.65667 -2.84173,-9.06634 2.16595,0.627024 4.16523,4.21682 2.84173,9.06634z"/>
  <path fill="black" d="M224.942 360.943c-0.666709,-2.30854 -2.16709,-7.79698 -5.02498,-9.76593 3.92032,0.208347 6.12992,6.86977 5.02498,9.76593z"/>
  <path fill="black" d="M215.397 359.686c-0.248315,-3.7029 -1.6268,-7.30772 -2.80828,-8.99689 2.7428,0.20778 4.67263,4.84583 2.80828,8.99689z"/>
  <path fill="black" d="M230.874 363.943c-0.0391181,-2.09934 0.258236,-7.90073 -1.6903,-9.5196 2.98914,1.07263 4.71005,5.79175 1.6903,9.5196z"/>
  <path fill="black" d="M135.388 356.165c-0.347811,-2.40321 -1.15058,-4.42942 -2.40803,-6.07777 2.36466,1.0457 2.84627,3.21477 2.40803,6.07777z"/>
  <path fill="black" d="M164.537 359.977c-1.11147,-2.13052 -4.11166,-5.65796 -5.12816,-6.91711 2.24759,0.185102 4.48356,4.09323 5.12816,6.91711z"/>
  <path fill="black" d="M149.147 359.139c0.0663307,-2.36608 -1.85273,-7.34117 -4.34296,-8.27745 3.34687,0.00198425 6.01937,4.17147 4.34296,8.27745z"/>
  <path fill="black" d="M155.306 360.849c-0.170079,-2.36636 -1.75776,-8.10936 -4.06375,-9.04536 3.5898,0.028063 6.13191,5.17465 4.06375,9.04536z"/>
  <path fill="black" d="M171.603 360.919c-0.259654,-2.04038 -2.7428,-6.19059 -4.81408,-7.54498 3.76526,-0.208063 5.90797,4.32255 4.81408,7.54498z"/>
  <path fill="black" d="M142.409 356.746c-0.69052,-2.3281 -1.77704,-4.21739 -3.25871,-5.66759 2.85676,0.694205 3.75081,2.77087 3.25871,5.66759z"/>
  <path fill="black" d="M177.728 361.076c-0.064063,-2.1308 -0.465449,-5.7977 -3.08665,-6.91711 3.52999,0.00170079 4.09153,3.85739 3.08665,6.91711z"/>
  <path fill="black" d="M186.208 364.688c0.610016,-1.68151 0.430583,-6.0378 -2.77257,-7.54526 4.00309,0.316914 4.56548,5.01137 2.77257,7.54526z"/>
  <path fill="black" d="M153.716 346.538c-0.594992,-2.3281 -1.53099,-4.21739 -2.80743,-5.66759 2.33206,0.134646 3.01181,2.21159 2.80743,5.66759z"/>
  <path fill="black" d="M139.287 350.139c-0.313795,-3.58611 -1.77987,-6.30822 -3.76895,-8.63717 3.45345,1.83175 4.49944,4.71005 3.76895,8.63717z"/>
  <path fill="black" d="M144.085 352.668c0.523559,-3.79588 1.01197,-9.20438 -1.81446,-11.3236 4.4674,1.55282 5.21348,8.32876 1.81446,11.3236z"/>
  <path fill="black" d="M150.664 353.07c0.523559,-3.79588 0.871654,-8.50678 -1.95477,-10.626 4.18762,1.41279 4.04816,5.86177 1.95477,10.626z"/>
  <path fill="black" d="M161.482 352.862c0.197858,-3.30747 0.314079,-8.29928 -2.09339,-11.0461 4.50284,2.04378 5.27188,8.45037 2.09339,11.0461z"/>
  <path fill="black" d="M156.404 351.081c0.287717,-3.79588 0.28715,-5.73307 -2.35559,-7.85197 4.00451,1.96271 3.79446,4.21257 2.35559,7.85197z"/>
  <path fill="black" d="M169.15 353.018c0.215717,-3.67852 0.780378,-7.95487 -0.981071,-10.4664 3.93364,2.0143 3.27799,6.41481 0.981071,10.4664z"/>
  <path fill="black" d="M176.929 352.328c-0.317764,-2.38195 -1.02558,-7.35137 -2.12315,-8.94133 2.25865,0.521859 2.69008,5.64747 2.12315,8.94133z"/>
  <path fill="black" d="M182.112 353.742c0.519874,-1.96299 1.06781,-7.24706 -0.867119,-9.25569 3.83018,1.30791 3.21477,6.85248 0.867119,9.25569z"/>
  <path fill="black" d="M188.079 356.726c0.520158,-1.96299 0.282614,-8.81774 -1.65232,-10.8264 2.99169,0.888378 3.16177,8.00391 1.65232,10.8264z"/>
  <path fill="black" d="M195.146 356.412c-0.422929,-2.19884 -0.765071,-6.64526 -1.96639,-8.47049 2.25836,0.888378 2.53276,5.64775 1.96639,8.47049z"/>
  <path fill="black" d="M200.328 356.883c-0.422929,-2.19884 -0.136913,-4.91783 -1.33824,-6.74306 2.25836,1.3612 1.9046,4.70807 1.33824,6.74306z"/>
  <path fill="black" d="M237.854 363.717c-0.0291969,-2.47266 -1.23477,-9.08221 -3.17367,-10.2359 2.89928,0.810142 4.74151,6.45959 3.17367,10.2359z"/>
  <path fill="black" d="M246.299 362.67c-0.222236,-2.08658 -1.72233,-5.15764 -3.43588,-6.76318 3.45827,-0.587339 4.30611,4.10287 3.43588,6.76318z"/>
  <path fill="black" d="M253.419 368.585c0.419244,-2.36098 0.430583,-8.7361 -1.93521,-10.2362 3.63175,0.627307 4.58391,5.52699 1.93521,10.2362z"/>
  <path fill="black" d="M262.788 366.753c-0.222236,-2.08658 -2.21074,-5.38526 -3.924,-6.99109 3.16205,0.284315 4.95185,4.01499 3.924,6.99109z"/>
  <path fill="black" d="M277.55 369.737c-0.222236,-2.08658 -1.58258,-5.8561 -3.29584,-7.46193 3.21477,0.652536 4.69134,4.53827 3.29584,7.46193z"/>
  <path fill="black" d="M286.03 370.993c-0.221953,-2.08658 -1.11147,-5.8561 -2.82473,-7.46193 2.89928,0.810142 3.69496,4.80161 2.82473,7.46193z"/>
  <path fill="black" d="M298.593 372.564c-0.221953,-2.08658 -1.11147,-5.8561 -2.82473,-7.46193 2.89928,0.810142 3.69496,4.80161 2.82473,7.46193z"/>
  <path fill="black" d="M270.012 369.737c-0.221953,-2.08658 0.458929,-3.65755 -1.25461,-5.26309 2.7601,1.92756 2.17162,3.90671 1.25461,5.26309z"/>
  <path fill="black" d="M265.144 362.041c-0.485008,-2.08658 -0.641197,-3.18614 -2.19685,-4.7914 2.47975,1.6475 2.64756,2.96873 2.19685,4.7914z"/>
  <path fill="black" d="M257.606 362.513c-0.485008,-2.08658 -0.641197,-3.18614 -2.19685,-4.7914 2.47975,1.6475 2.64756,2.96873 2.19685,4.7914z"/>
  <path fill="black" d="M249.163 360.157c-0.394299,-1.69569 -0.940536,-2.44914 -2.20451,-3.75364 2.38762,1.3388 2.94293,2.27254 2.20451,3.75364z"/>
  <path fill="black" d="M240.84 358.43c-0.394299,-1.69569 -0.521292,-2.58917 -1.78526,-3.89339 2.01515,1.3388 2.1515,2.41228 1.78526,3.89339z"/>
  <path fill="black" d="M211.087 352.719c-0.308693,-1.3286 -0.408189,-2.49988 -1.39861,-3.52177 1.99729,1.0491 2.10416,2.36126 1.39861,3.52177z"/>
  <path fill="black" d="M226.371 356.261c-0.308693,-1.3286 0.0110551,-2.58775 -0.979371,-3.60964 1.95137,1.04882 1.63871,2.44885 0.979371,3.60964z"/>
  <path fill="black" d="M204.334 352.562c-0.308693,-1.3286 -0.408189,-2.02876 -1.39861,-3.05065 1.5789,1.04882 1.68548,1.88986 1.39861,3.05065z"/>
  <path fill="black" d="M233.857 357.116c-0.308693,-1.3286 -0.408189,-3.91323 -1.39861,-4.93512 2.06788,0.885544 2.31449,3.56457 1.39861,4.93512z"/>
  <path fill="black" d="M280.534 366.281c-0.485008,-2.08658 -1.58343,-4.5995 -3.1388,-6.20476 2.47975,1.6475 3.58951,4.38208 3.1388,6.20476z"/>
  <path fill="black" d="M288.423 366.91c-0.394299,-1.69569 -0.83537,-2.74621 -2.09934,-4.05071 2.64331,1.12989 3.09345,2.36013 2.09934,4.05071z"/>
  <path fill="black" d="M195.944 362.804c-0.902268,-1.29345 -2.29181,-3.10479 -4.02888,-4.87559 2.24759,0.185102 3.38429,2.05172 4.02888,4.87559z"/>
  <path fill="black" d="M204.738 365.944c-0.876189,-2.13052 -2.27169,-5.3263 -4.34296,-6.28895 3.39988,0.028063 4.69389,3.46394 4.34296,6.28895z"/>
  <path fill="black" d="M211.02 367.358c-0.0385512,-1.50208 -0.178016,-5.64038 -2.77228,-7.38822 3.34658,0.604063 3.54019,4.98274 2.77228,7.38822z"/>
  <path fill="black" d="M221.995 368.666c-1.11118,-2.13052 -2.5937,-4.59241 -4.16807,-5.71238 2.24759,0.185102 4.08161,3.16743 4.16807,5.71238z"/>
  <path fill="black" d="M217.682 353.661c-0.308693,-1.3286 -0.408189,-2.02876 -1.39861,-3.05065 1.5789,1.04882 1.68548,1.88986 1.39861,3.05065z"/>
  <path fill="black" d="M230.179 371.127c-0.0385512,-1.50236 0.136063,-4.38435 -2.45821,-6.13219 3.34658,0.604063 3.22611,3.72671 2.45821,6.13219z"/>
  <path fill="black" d="M236.46 371.912c-0.0385512,-1.50236 0.607465,-5.01222 -1.9868,-6.76007 3.34658,0.604063 2.75471,4.35458 1.9868,6.76007z"/>
  <path fill="black" d="M244.94 373.168c-0.0385512,-1.50236 0.607465,-5.01222 -1.9868,-6.76007 3.34658,0.604063 2.75471,4.35458 1.9868,6.76007z"/>
  <path fill="black" d="M254.188 374.389c-1.11147,-1.50265 -2.59427,-3.54643 -4.16807,-5.15424 2.24759,0.185102 3.52375,2.33036 4.16807,5.15424z"/>
  <path fill="black" d="M262.529 375.838c-1.11147,-2.13024 -1.51257,-3.91238 -3.08665,-5.03207 2.24731,0.184819 2.44205,2.20847 3.08665,5.03207z"/>
  <path fill="black" d="M269.384 378.06c-0.593859,-2.08658 0.0873071,-3.81458 -1.25433,-5.57717 2.71219,-0.881292 1.84479,3.58526 1.25433,5.57717z"/>
  <path fill="black" d="M277.55 379.002c-0.40252,-1.5463 -0.780378,-4.28655 -2.30117,-6.46696 3.45317,2.09622 3.41036,4.98728 2.30117,6.46696z"/>
  <path fill="black" d="M285.402 377.589c-0.485292,-2.08658 -1.89808,-3.02939 -3.45345,-4.63465 2.68923,1.01962 4.11364,2.18353 3.45345,4.63465z"/>
  <path fill="black" d="M139.32 364.967c-0.308693,-1.32832 -0.408189,-2.81367 -1.39861,-3.83584 1.78838,0.839622 1.89468,2.46558 1.39861,3.83584z"/>
  <path fill="black" d="M146.229 367.637c-0.308693,-1.32832 -0.408189,-2.81367 -1.39861,-3.83584 1.78838,0.839622 1.89468,2.46558 1.39861,3.83584z"/>
  <path fill="black" d="M153.139 367.323c-0.308693,-1.32832 -0.408189,-2.81367 -1.39861,-3.83584 1.78838,0.839622 1.89468,2.46558 1.39861,3.83584z"/>
  <path fill="black" d="M146.143 375.477c-0.255118,-0.943371 -0.337323,-1.99814 -1.15512,-2.7241 1.47685,0.59641 1.56501,1.75096 1.15512,2.7241z"/>
  <path fill="black" d="M161.553 371.441c-0.064063,-2.1308 -0.465449,-5.16955 -3.08665,-6.28895 4.47137,-0.627024 4.09096,3.59547 3.08665,6.28895z"/>
  <path fill="black" d="M156.036 376.576c-0.255118,-0.943654 -0.337323,-2.78334 -0.212882,-3.66633 1.00573,1.53865 0.622489,2.6932 0.212882,3.66633z"/>
  <path fill="black" d="M163.237 378.617c-0.233575,-0.943654 -0.308977,-2.78334 -0.195024,-3.66633 0.922111,1.53865 0.570614,2.6932 0.195024,3.66633z"/>
  <path fill="black" d="M171.125 372.438c-0.302173,-1.62425 -0.392882,-4.38293 -0.0992126,-5.4961 0.887528,2.30655 0.708945,4.03739 0.0992126,5.4961z"/>
  <path fill="black" d="M172.926 380.671c-0.72737,-1.11912 -0.82715,-2.60447 -1.39861,-3.83584 1.78838,0.839622 1.89468,2.46558 1.39861,3.83584z"/>
  <path fill="black" d="M183.605 383.498c-0.308693,-1.3286 -1.82154,-3.91295 -2.81197,-4.93512 2.78788,1.0491 4.30753,3.77405 2.81197,4.93512z"/>
  <path fill="black" d="M182.034 372.802c-0.587622,-0.909922 -1.82154,-4.05241 -2.81197,-5.07459 1.78838,0.839622 3.30803,3.70432 2.81197,5.07459z"/>
  <path fill="black" d="M190.985 374.637c-0.308693,-1.95817 -0.408189,-4.14737 -1.39861,-5.6537 1.78838,1.23732 1.89468,3.63402 1.39861,5.6537z"/>
  <path fill="black" d="M192.87 387.358c-0.308977,-1.95817 0.534048,-4.61849 -0.456378,-6.12482 2.31336,1.23704 1.26765,4.10485 0.456378,6.12482z"/>
  <path fill="black" d="M199.623 376.679c-0.308693,-1.95817 0.0626457,-4.61877 -0.927497,-6.12511 2.49477,1.23704 1.9732,4.10485 0.927497,6.12511z"/>
  <path fill="black" d="M207.946 378.249c-0.308977,-1.95817 -0.408473,-4.93229 -1.39861,-6.43862 2.20677,1.02784 2.31307,4.20917 1.39861,6.43862z"/>
  <path fill="black" d="M204.962 386.953c-0.308693,-1.32832 -0.408189,-2.81367 -1.39861,-3.83584 1.78838,0.839622 1.89468,2.46558 1.39861,3.83584z"/>
  <polygon fill="black" points="138.345,376.993 140.072,378.092 141.172,376.993 "/>
  <polygon fill="black" points="141.957,377.935 147.296,379.191 146.668,380.291 141.8,379.034 "/>
  <polygon fill="black" points="150.502,380.28 154.851,381.236 154.55,382.369 150.139,381.386 "/>
  <polygon fill="black" points="157.287,382.165 164.492,383.905 163.734,384.845 157.834,383.368 "/>
  <polygon fill="black" points="167.023,384.992 173.757,386.418 173,387.357 167.571,386.195 "/>
  <polygon fill="black" points="177.702,387.19 182.865,387.988 182.422,389.242 178.249,388.864 "/>
  <polygon fill="black" points="186.182,389.546 191.66,390.658 190.274,391.754 186.73,390.749 "/>
  <polygon fill="black" points="196.233,392.058 201.71,393.17 200.953,394.11 196.78,393.262 "/>
  <polygon fill="black" points="205.184,393.943 211.133,394.898 210.375,395.837 205.731,395.146 "/>
  <polygon fill="black" points="215.706,395.984 223.225,396.94 222.467,397.879 216.253,397.188 "/>
  <path fill="black" d="M214.384 389.151c-0.308693,-1.32832 -0.408189,-2.81367 -1.39861,-3.83584 1.78838,0.839622 1.89468,2.46558 1.39861,3.83584z"/>
  <path fill="black" d="M223.07 391.18c-0.233858,-0.943654 -0.30926,-2.78334 -0.195024,-3.66633 0.921544,1.53865 0.570331,2.6932 0.195024,3.66633z"/>
  <path fill="black" d="M233.748 394.11c-0.652819,-1.08425 -0.727937,-3.60624 -0.195024,-5.02526 0.921544,2.10869 0.570331,3.69128 0.195024,5.02526z"/>
  <path fill="black" d="M216.897 379.506c-0.308693,-1.95817 -0.408189,-4.14737 -1.39861,-5.6537 1.78838,1.23732 1.89468,3.63402 1.39861,5.6537z"/>
  <path fill="black" d="M226.005 382.175c-0.308693,-1.95817 -0.722552,-5.56101 -1.71269,-7.06734 2.25921,1.23732 2.57528,5.04766 1.71269,7.06734z"/>
  <path fill="black" d="M234.642 382.961c-0.308693,-1.95817 -0.879591,-3.99062 -1.86973,-5.49695 2.20706,0.609166 2.78447,2.84854 1.86973,5.49695z"/>
  <path fill="black" d="M246.142 396.309c-0.24463,-1.55112 -0.696756,-3.16091 -1.4811,-4.35402 1.41647,0.979938 1.87399,2.75414 1.4811,4.35402z"/>
  <path fill="black" d="M244.091 385.742c-0.611433,-1.88561 -1.20926,-4.97452 -2.42277,-6.30737 2.48372,0.810142 3.32986,3.94441 2.42277,6.30737z"/>
  <path fill="black" d="M252.75 386.258c-0.233858,-1.29345 -0.30926,-3.81543 -0.195024,-5.02526 0.921544,2.10869 0.570331,3.69128 0.195024,5.02526z"/>
  <path fill="black" d="M262.173 388.142c-0.233858,-1.29317 -0.152221,-4.60035 -0.0379843,-5.81018 1.18432,1.84564 0.571181,4.31858 0.0379843,5.81018z"/>
  <path fill="black" d="M256.02 396.152c-0.190205,-1.20614 -0.541701,-2.45792 -1.15172,-3.38542 1.10126,0.761953 1.45701,2.14129 1.15172,3.38542z"/>
  <polygon fill="black" points="227.012,398.026 234.532,398.981 233.774,399.921 227.56,399.229 "/>
  <polygon fill="black" points="236.592,399.439 243.64,400.237 242.882,401.177 237.139,400.643 "/>
  <polygon fill="black" points="247.899,400.224 254.319,401.023 253.561,401.962 248.446,401.428 "/>
  <polygon fill="black" points="259.52,401.167 266.568,401.337 265.81,402.277 260.067,402.37 "/>
  <polygon fill="black" points="269.727,401.638 276.776,401.808 276.018,402.748 270.275,402.841 "/>
  <path fill="black" d="M290.754 389.87c-0.233858,-1.49499 -0.30926,-4.41128 -0.195024,-5.81018 1.18432,2.43836 0.727937,4.26813 0.195024,5.81018z"/>
  <path fill="black" d="M268.646 395.052c-0.118772,-0.525544 -0.157039,-1.54999 -0.0989292,-2.0418 0.468,0.856914 0.289701,1.49981 0.0989292,2.0418z"/>
  <path fill="black" d="M282.252 389.511c-0.611433,-1.88561 -1.05222,-3.56117 -2.26573,-4.89402 2.37827,0.73304 2.85817,2.61213 2.26573,4.89402z"/>
  <path fill="black" d="M281.911 395.904c-0.308693,-0.700441 -0.879591,-1.08652 -1.86973,-2.73657 1.36942,0.420945 1.94684,0.947339 1.86973,2.73657z"/>
  <path fill="black" d="M292.94 379.944c-0.221953,-2.08658 -0.169228,-4.44274 -1.88277,-6.04857 3.05802,1.91027 2.59654,4.38265 1.88277,6.04857z"/>
  <path fill="black" d="M270.531 389.713c-0.56778,-1.29373 -0.545386,-3.81572 -0.0989292,-5.02526 0.468,2.10869 0.289701,3.69128 0.0989292,5.02526z"/>
  <path fill="black" d="M296.673 396.375c-0.308693,-1.3286 -0.879308,-1.71439 -1.86973,-2.73657 1.36942,0.420945 1.94684,0.947339 1.86973,2.73657z"/>
  <path fill="black" d="M293.919 367.067c-0.394299,-1.69569 -1.14945,-3.37436 -2.41342,-4.67859 2.01515,1.3388 2.77965,3.19748 2.41342,4.67859z"/>
  <path fill="black" d="M301.106 381.358c-0.221953,-2.08658 -0.587622,-5.0006 -2.30117,-6.60643 3.41405,0.84104 3.09685,4.69361 2.30117,6.60643z"/>
  <path fill="black" d="M306.166 375.04c-0.221953,-2.0863 -0.693071,-7.52967 -2.5458,-8.99604 2.89928,0.810142 4.11364,3.9651 2.5458,8.99604z"/>
  <polygon fill="black" points="279.15,401.795 285.098,401.965 284.34,402.905 279.854,402.841 "/>
  <path fill="black" d="M299.705 388.614c-0.233858,-1.21238 -0.30926,-3.57676 -0.195024,-4.71118 0.921544,1.97717 0.570331,3.46082 0.195024,4.71118z"/>
  <path fill="black" d="M307.666 388.994c-0.308977,-0.909922 -1.03663,-1.6098 -2.02677,-3.05065 1.7881,0.211465 2.52227,1.05194 2.02677,3.05065z"/>
  <path fill="black" d="M310.057 380.73c-0.221953,-2.08658 -0.169228,-4.44274 -1.88277,-6.04857 3.05802,1.91027 2.59654,4.38265 1.88277,6.04857z"/>
  <path fill="black" d="M320.421 372.667c-0.18652,-1.64891 -1.36715,-3.34658 -3.13852,-5.6812 2.6898,0.810142 3.64195,3.02088 3.13852,5.6812z"/>
  <path fill="black" d="M308.524 369.108c-0.394299,-1.69569 -1.14945,-3.37436 -2.41342,-4.67859 2.01515,1.3388 2.77965,3.19748 2.41342,4.67859z"/>
  <polygon fill="black" points="290.887,401.698 295.654,401.438 295.134,402.428 291.544,402.689 "/>
  <polygon fill="black" points="300.914,400.767 305.604,399.875 305.22,400.927 301.697,401.662 "/>
  <path fill="black" d="M318.537 381.358c-0.431717,-1.66791 -1.79235,-4.49518 -3.29613,-6.51969 3.05802,1.91027 4.00989,4.85377 3.29613,6.51969z"/>
  <path fill="black" d="M308.733 395.587c0.988158,-0.940252 0.403087,-0.99978 0.781512,-2.37147 0.332221,1.39351 0.799654,1.53014 -0.781512,2.37147z"/>
  <path fill="black" d="M316.533 369.422c-0.394299,-1.69569 -1.14945,-3.37436 -2.41342,-4.67859 2.01515,1.3388 2.77965,3.19748 2.41342,4.67859z"/>
  <path fill="black" d="M316.533 369.422c-0.394299,-1.69569 -1.14945,-3.37436 -2.41342,-4.67859 2.01515,1.3388 2.77965,3.19748 2.41342,4.67859z"/>
  <path fill="black" d="M321.014 393.391c-0.308693,-1.3286 -0.879308,-1.71439 -1.86973,-2.73657 1.36942,0.420945 1.94684,0.947339 1.86973,2.73657z"/>
  <path fill="black" d="M318.03 386.953c-0.518457,-1.1194 -1.08907,-1.97632 -1.86973,-3.20769 1.5789,0.629859 2.15603,1.62765 1.86973,3.20769z"/>
  <path fill="black" d="M313.355 372.564c-0.221953,-2.08658 -0.483591,-4.7571 -2.19685,-6.36265 3.05802,1.91027 2.91062,4.69673 2.19685,6.36265z"/>
  <polygon fill="black" points="310.651,398.412 317.696,397.206 317.312,398.257 311.591,399.307 "/>
  <path fill="black" d="M328.395 384.911c-0.518457,-1.11912 -1.08907,-1.5052 -1.86973,-2.73657 1.36942,0.420945 1.94684,0.947339 1.86973,2.73657z"/>
  <path fill="black" d="M324.819 379.944c0.040252,-2.08687 -0.012189,-3.65811 -1.88277,-5.26337 3.05773,1.1211 2.59625,3.12406 1.88277,5.26337z"/>
  <path fill="black" d="M322.27 368.108c-0.518457,-1.11912 -1.08907,-1.5052 -1.86973,-2.73657 1.36942,0.420945 1.94684,0.947339 1.86973,2.73657z"/>
  <path fill="black" d="M326.703 373.663c-0.221953,-2.08658 -0.79767,-6.17046 -2.51093,-7.776 3.26721,1.70079 3.43389,5.9006 2.51093,7.776z"/>
  <polygon fill="black" points="321.572,396.847 327.342,394.702 327.154,395.805 322.659,397.557 "/>
  <path fill="black" d="M332.834 379.083c-0.18652,-1.64891 0.306425,-3.62551 -1.46495,-5.96013 3.06142,1.18176 2.34,3.67115 1.46495,5.96013z"/>
  <path fill="black" d="M332.555 372.284c-0.18652,-1.64891 -2.06476,-3.80041 -3.83613,-6.13503 2.82926,0.392032 4.65392,3.47443 3.83613,6.13503z"/>
  <path fill="black" d="M334.442 370.74c0.040252,-2.08687 -0.012189,-3.65811 -1.88277,-5.26337 3.05773,1.1211 2.59625,3.12406 1.88277,5.26337z"/>
  <path fill="black" d="M339.044 371.647c-0.169512,-1.87767 -0.222236,-4.07707 -1.88277,-5.89125 3.15893,1.22202 2.96192,4.11732 1.88277,5.89125z"/>
  <path fill="black" d="M348.109 368.09c-0.659906,-2.08658 -1.12989,-2.68186 -2.5801,-4.28712 2.77767,1.12139 2.82614,2.14725 2.5801,4.28712z"/>
  <path fill="black" d="M340.997 367.672c-0.659906,-2.08658 -1.12989,-2.68186 -2.5801,-4.28712 2.77767,1.12139 2.82614,2.14725 2.5801,4.28712z"/>
  <path fill="black" d="M349.783 375.9c-0.659906,-2.08658 -1.12989,-2.68186 -2.5801,-4.28712 2.77767,1.12139 2.82614,2.14725 2.5801,4.28712z"/>
  <path fill="black" d="M346.175 370.74c-0.532347,-1.6835 -0.911339,-2.16369 -2.08148,-3.45855 2.24079,0.904536 2.28019,1.73225 2.08148,3.45855z"/>
  <path fill="black" d="M337.879 383.935c-0.518457,-1.11912 -1.08907,-1.5052 -1.86973,-2.73657 1.36942,0.420945 1.94684,0.947339 1.86973,2.73657z"/>
  <path fill="black" d="M346.836 381.261c-0.79937,-0.939402 -1.45247,-1.15852 -2.53446,-2.13562 1.43206,0.0385512 2.12939,0.391181 2.53446,2.13562z"/>
  <path fill="black" d="M335.994 365.719c-0.532347,-1.6835 -0.911339,-2.16369 -2.08148,-3.45855 2.24079,0.904536 2.28019,1.73225 2.08148,3.45855z"/>
  <path fill="black" d="M352.359 369.739c-0.18652,-1.6492 -2.06476,-3.48633 -3.83613,-5.82095 2.82926,0.392032 4.33956,3.16035 3.83613,5.82095z"/>
  <polygon fill="black" points="331.672,394.098 337.728,392.999 337.35,394.052 332.617,394.988 "/>
  <polygon fill="black" points="341.225,391.872 346.972,389.668 346.795,390.773 342.318,392.571 "/>
  <polygon fill="black" points="350.734,388.099 356.084,385.833 355.953,386.881 351.788,388.723 "/>
  <polygon fill="black" points="358.126,385.45 363.475,383.183 363.344,384.231 359.18,386.074 "/>
  <path fill="black" d="M357.156 379.169c-0.79937,-0.939402 -1.45247,-1.15852 -2.53446,-2.13562 1.43206,0.0385512 2.12939,0.391181 2.53446,2.13562z"/>
  <path fill="black" d="M342.76 375.846c-0.518457,-1.11912 -1.08907,-1.5052 -1.86973,-2.73657 1.36942,0.420945 1.94684,0.947339 1.86973,2.73657z"/>
  <path fill="black" d="M359.193 368.902c-0.18652,-1.64891 -2.48315,-3.48633 -4.25452,-5.82095 2.82926,0.392032 4.33956,3.99742 4.25452,5.82095z"/>
  <path fill="black" d="M353.612 365.461c-0.0977953,-1.76287 -0.345543,-2.32214 -1.15739,-3.86731 1.94599,1.43291 1.77846,2.24419 1.15739,3.86731z"/>
  <path fill="black" d="M356.262 373.829c-0.0977953,-1.76287 -0.345543,-2.32214 -1.15739,-3.86731 1.94599,1.43291 1.77846,2.24419 1.15739,3.86731z"/>
  <path fill="black" d="M365.477 370.523c-1.224,-0.939402 -2.22435,-1.15852 -3.88148,-2.13562 2.19317,0.0385512 3.26126,0.391181 3.88148,2.13562z"/>
  <path fill="black" d="M363.59 365.719c-0.659906,-2.08658 -1.12989,-2.68186 -2.5801,-4.28712 2.77767,1.12139 2.82614,2.14725 2.5801,4.28712z"/>
  <path fill="black" d="M368.202 365.329c-0.128976,-2.60221 -0.43852,-3.4268 -1.45162,-5.70388 2.41852,2.10558 2.21414,3.30435 1.45162,5.70388z"/>
  <path fill="black" d="M364.935 362.179c-0.518457,-1.11912 -1.08907,-1.5052 -1.86973,-2.73657 1.36942,0.420945 1.94684,0.947339 1.86973,2.73657z"/>
  <path fill="black" d="M358.811 364.267c-0.286583,-1.19962 -0.769607,-1.69087 -1.29118,-3.05235 1.25915,0.683433 1.72091,1.31358 1.29118,3.05235z"/>
  <path fill="black" d="M370.665 369.373c-0.286583,-1.50747 -0.769607,-2.12457 -1.29118,-3.83499 1.25915,0.858615 1.72091,1.65062 1.29118,3.83499z"/>
  <path fill="black" d="M375.221 362.846c-1.34787,-1.72403 -1.99644,-2.11748 -3.91663,-3.11414 2.99452,0.0790867 3.39874,1.02331 3.91663,3.11414z"/>
  <path fill="black" d="M375.407 367.421c-0.286583,-1.50747 -0.769607,-2.12457 -1.29118,-3.83499 1.25915,0.858615 1.72091,1.65062 1.29118,3.83499z"/>
  <polygon fill="black" points="366.773,381.266 372.122,378.999 371.991,380.047 367.827,381.89 "/>
  <polygon fill="black" points="374.009,378.144 379.402,375.984 379.251,377.03 375.051,378.789 "/>
  <polygon fill="black" points="381.784,374.271 386.888,371.496 386.86,372.552 382.894,374.79 "/>
  <polygon fill="black" points="388.797,370.729 393.806,367.787 393.813,368.843 389.923,371.211 "/>
  <path fill="black" d="M381.292 365.602c-0.233858,-1.21238 -0.30926,-3.57676 -0.195024,-4.71118 0.921544,1.97717 0.570331,3.46082 0.195024,4.71118z"/>
  <path fill="black" d="M370.219 360.126c-0.534898,-0.892347 -1.04797,-1.16504 -1.81304,-2.12797 1.1863,0.230457 1.71751,0.620221 1.81304,2.12797z"/>
  <path fill="black" d="M379.823 361.312c-1.34787,-1.72403 -1.99644,-2.11748 -3.91663,-3.11414 2.99452,0.0790867 3.39874,1.02331 3.91663,3.11414z"/>
  <path fill="black" d="M375.797 359.847c-0.534898,-0.892347 -1.04797,-1.16504 -1.81304,-2.12797 1.1863,0.230457 1.71751,0.620221 1.81304,2.12797z"/>
  <path fill="black" d="M380.653 358.634c-0.650835,-1.08595 -1.27502,-1.41761 -2.20592,-2.58917 1.4434,0.280347 2.08999,0.754583 2.20592,2.58917z"/>
  <path fill="black" d="M385.402 358.662c-1.34787,-1.72403 -1.99644,-2.11748 -3.91663,-3.11414 2.99452,0.0790867 3.39874,1.02331 3.91663,3.11414z"/>
  <path fill="black" d="M387.094 361.757c-0.699591,-1.16674 -1.37055,-1.52334 -2.3709,-2.78221 1.55112,0.30104 2.24617,0.810993 2.3709,2.78221z"/>
  <path fill="black" d="M386.117 355.899c-0.699591,-1.16674 -1.37055,-1.52334 -2.3709,-2.78221 1.55112,0.30104 2.24617,0.810993 2.3709,2.78221z"/>
  <path fill="black" d="M390.162 356.178c-0.699591,-1.16674 -1.37055,-1.52334 -2.3709,-2.78221 1.55112,0.30104 2.24617,0.810993 2.3709,2.78221z"/>
  <path fill="black" d="M389.027 353.315c-0.397984,-0.954993 -0.863717,-1.29713 -1.47827,-2.35446 1.13443,0.397134 1.60129,0.857197 1.47827,2.35446z"/>
  <path fill="black" d="M391.771 359.275c-0.260788,-1.0012 -0.674363,-1.40513 -1.13499,-2.53814 1.06781,0.551906 1.4658,1.07263 1.13499,2.53814z"/>
  <path fill="black" d="M396.513 357.519c-0.260788,-1.40854 -0.674363,-1.9766 -1.13499,-3.57052 1.06781,0.776126 1.4658,1.50888 1.13499,3.57052z"/>
  <path fill="black" d="M392.952 353.38c-0.857481,-0.946489 -1.54035,-1.152 -2.69178,-2.12825 1.48337,-0.00623622 2.21641,0.335906 2.69178,2.12825z"/>
  <path fill="black" d="M395.889 350.018c-1.21578,-0.61767 -1.97547,-0.562394 -3.49569,-1.09786 1.47713,-0.571465 2.33887,-0.509103 3.49569,1.09786z"/>
  <path fill="black" d="M400.631 348.065c-1.21578,-0.61767 -1.97547,-0.562394 -3.49569,-1.09786 1.47713,-0.571465 2.33887,-0.509103 3.49569,1.09786z"/>
  <path fill="black" d="M400.615 354.311c-0.338173,-1.07858 -0.873922,-1.51342 -1.47118,-2.73373 1.38387,0.594142 1.89978,1.15512 1.47118,2.73373z"/>
  <path fill="black" d="M404.462 353.195c-0.260788,-1.40854 -0.674363,-1.9766 -1.13499,-3.57052 1.06781,0.776126 1.4658,1.50888 1.13499,3.57052z"/>
  <path fill="black" d="M402.909 357.792c-0.233858,-0.895748 -0.30926,-2.64274 -0.195024,-3.48095 0.921544,1.46069 0.570331,2.55714 0.195024,3.48095z"/>
  <polygon fill="black" points="398.559,365.413 402.291,363.221 402.295,364.008 399.398,365.772 "/>
  <path fill="black" d="M402.288 347.059c-0.338173,-1.07858 -0.873922,-1.51342 -1.47118,-2.73373 1.38387,0.594142 1.89978,1.15512 1.47118,2.73373z"/>
  <path fill="black" d="M405.922 347.847c-0.652252,-0.923245 -1.29543,-1.17298 -2.23795,-2.15178 1.49953,0.141732 2.16255,0.517607 2.23795,2.15178z"/>
  <path fill="black" d="M410.517 351.522c-0.338173,-1.07858 -0.873922,-1.51342 -1.47118,-2.73373 1.38387,0.594142 1.89978,1.15512 1.47118,2.73373z"/>
  <path fill="black" d="M104.581 402.119l-4.24007 2.82671c2.04378,0.319181 3.87723,0.217701 4.24007,-2.82671z"/>
  <path fill="black" d="M109.921 400.235l-4.24007 2.82671c2.04378,0.319181 3.87723,0.217701 4.24007,-2.82671z"/>
  <path fill="black" d="M110.917 404.317l-4.93654 1.26397c1.82296,0.97767 3.58668,1.48876 4.93654,-1.26397z"/>
  <path fill="black" d="M110.863 407.458l-6.45251 1.26397c2.38252,0.97767 4.68794,1.48876 6.45251,-1.26397z"/>
  <path fill="black" d="M116.045 409.814l-6.45251 1.26397c2.38252,0.97767 4.68794,1.48876 6.45251,-1.26397z"/>
  <path fill="black" d="M119.94 411.34l-4.91386 2.80743c2.57074,0.156473 4.13207,0.36737 4.91386,-2.80743z"/>
  <path fill="black" d="M123.115 414.376c-1.56869,1.12224 -3.11386,2.1515 -5.05389,2.52794 2.71049,0.437386 4.50454,1.11458 5.05389,-2.52794z"/>
  <path fill="black" d="M161.084 427.515c-0.852945,1.7212 -1.81077,3.70432 -3.50079,5.00599 2.57074,0.156473 3.50419,-1.20274 3.50079,-5.00599z"/>
  <path fill="black" d="M167.028 429.315c-1.0474,1.49074 -4.0303,3.64252 -6.11887,4.07651 2.87263,1.89071 6.03241,-0.49578 6.11887,-4.07651z"/>
  <path fill="black" d="M172.682 431.985c-1.0474,1.49074 -4.5017,3.1714 -6.59027,3.60539 2.66343,1.26255 6.29377,-0.652252 6.59027,-3.60539z"/>
  <path fill="black" d="M178.493 433.869c-1.0474,1.49074 -4.03058,3.32844 -6.11915,3.76243 2.66343,1.26255 5.82293,-0.809292 6.11915,-3.76243z"/>
  <path fill="black" d="M190.585 435.754c-1.0474,1.49074 -4.34466,4.42772 -6.43323,4.8617 3.08183,1.47175 6.55512,-1.69937 6.43323,-4.8617z"/>
  <path fill="black" d="M184.043 436.571c-0.761103,1.08312 -2.14328,2.41852 -3.66095,2.73373 2.35361,1.12677 3.86391,-0.378709 3.66095,-2.73373z"/>
  <path fill="black" d="M196.552 437.638c-1.0474,1.49074 -2.61695,3.48548 -4.70551,3.91947 2.66343,1.26255 4.40929,-0.966331 4.70551,-3.91947z"/>
  <path fill="black" d="M201.891 438.737c-1.0474,1.49074 -1.67471,3.79984 -3.76328,4.23383 3.29131,0.633827 4.09436,-1.90885 3.76328,-4.23383z"/>
  <path fill="black" d="M207.231 440.308c-1.0474,1.49074 -1.67471,3.79984 -3.76328,4.23383 3.29131,0.633827 4.09436,-1.90885 3.76328,-4.23383z"/>
  <path fill="black" d="M213.983 441.25c-1.0474,1.49074 -1.67471,3.79984 -3.76328,4.23383 3.29131,0.633827 4.09436,-1.90885 3.76328,-4.23383z"/>
  <path fill="black" d="M218.537 441.564c-1.0474,1.49074 -1.67471,3.79984 -3.76328,4.23383 3.29131,0.633827 4.09436,-1.90885 3.76328,-4.23383z"/>
  <path fill="black" d="M223.247 442.977c-0.872221,1.24129 -1.39436,3.16347 -3.13314,3.52488 2.73997,0.527528 3.40866,-1.58939 3.13314,-3.52488z"/>
  <path fill="black" d="M225.602 445.019c-0.872221,1.24129 -1.39436,3.16347 -3.13314,3.52488 2.73997,0.527528 3.40866,-1.58939 3.13314,-3.52488z"/>
  <path fill="black" d="M248.53 443.134c-0.872221,1.24129 -1.39436,3.16347 -3.13314,3.52488 2.73997,0.527528 3.40866,-1.58939 3.13314,-3.52488z"/>
  <path fill="black" d="M253.412 444.022c-0.657355,0.935717 -1.05109,2.38451 -2.36154,2.65691 2.06532,0.397701 2.56932,-1.19792 2.36154,-2.65691z"/>
  <path fill="black" d="M260.377 443.264c-0.70526,1.72148 -0.975969,4.25112 -2.65408,4.99692 2.78532,0.219402 3.17622,-2.58208 2.65408,-4.99692z"/>
  <path fill="black" d="M267.846 442.506c-0.872221,1.24129 -1.39436,3.16347 -3.13314,3.52488 2.73997,0.527528 3.40866,-1.58939 3.13314,-3.52488z"/>
  <path fill="black" d="M274.441 442.82c-0.872221,1.24129 -1.39436,3.16347 -3.13314,3.52488 2.73997,0.527528 3.40866,-1.58939 3.13314,-3.52488z"/>
  <path fill="black" d="M280.566 441.878c-0.872221,1.24129 -1.39436,3.16347 -3.13314,3.52488 2.73997,0.527528 3.40866,-1.58939 3.13314,-3.52488z"/>
  <path fill="black" d="M287.319 441.093c-0.872221,1.24129 -1.39436,3.16347 -3.13314,3.52488 2.73997,0.527528 3.40866,-1.58939 3.13314,-3.52488z"/>
  <path fill="black" d="M293.129 440.151c-0.872221,1.24129 -1.39436,3.16347 -3.13314,3.52488 2.73997,0.527528 3.40866,-1.58939 3.13314,-3.52488z"/>
  <path fill="black" d="M299.243 438.109c-1.03039,1.46636 -1.6475,4.05184 -3.70177,4.47874 3.71027,0.308126 4.81522,-2.71701 3.70177,-4.47874z"/>
  <path fill="black" d="M305.525 435.597c-0.612284,1.46636 -0.915591,5.15084 -3.38769,5.57774 3.91975,0.30841 4.71005,-3.81543 3.38769,-5.57774z"/>
  <path fill="black" d="M272.174 364.201c-0.394299,-1.69569 -0.521292,-2.58917 -1.78526,-3.89339 2.01515,1.3388 2.1515,2.41228 1.78526,3.89339z"/>
  <polygon fill="black" points="309.133,440.919 307.599,443.847 309.272,443.289 310.528,441.198 "/>
  <path fill="black" d="M407.177 379.554c-10.338,7.14133 -20.8086,14.15 -31.519,20.9197l0.976252 -4.46287 -0.836788 0.557859 -1.9525 4.46287 -1.66791 1.26765 -0.0632126 -2.57613 -1.10069 0.170079 -0.77641 2.16057 -0.67578 2.36948 -3.26325 2.23654 0.0408189 -3.10337 -1.11175 -0.804756 -0.199276 5.01166 -3.5246 2.6898 -0.218551 -4.14907 -1.08057 0.489544 0.166677 3.62721 -3.88573 2.31421 0.189354 -2.81792 -1.40939 0.269291 0.0680315 3.95575 -4.14 2.65578 0.0600945 -4.46769 -1.64126 0.253417 -0.0969449 5.02328 -2.72353 1.41902 -0.724819 -0.894048 0.225638 -3.30123 -1.24186 0.261921 0.0379843 5.28151 -4.78035 2.72183 0.54652 -1.58797 0.0972284 -1.8754 -1.08 0.0776693 -1.38501 1.98312 -0.165827 2.35843 -3.89452 2.16907 0.669544 -1.99701 0.593292 -2.41455 -2.87887 3.79928 -0.184536 2.0211 -2.53304 1.22202 -0.00198425 -1.43291 0.611433 -0.814678 0.229606 -1.36488 -2.02734 -0.13663 -0.269575 3.36444 -2.03301 2.11833 -2.69348 2.25241 0.0294803 -3.71169 0.936851 -0.516473 -0.122457 -1.2223 -1.48649 0.774993 -0.402803 5.04737 -4.26586 2.23512 -0.240378 -1.15398 1.11345 -1.41222 0.322016 -2.03131 -2.3315 1.58599 -0.121323 3.79843 -3.90246 1.7229 -1.75323 0.128976 1.80113 -3.66888 -1.14293 0.61767 -1.69767 2.08091 0.0235276 2.55005 3.48662 0.278929 4.3407 1.53354 -2.35219 -2.65125c20.5421,-11.5835 40.9238,-24.3031 61.8503,-37.8655 3.05036,-0.13748 19.3816,-12.4421 28.9052,-18.8946l0.278929 -2.51036z"/>
  <path fill="black" d="M320.709 442.871l1.81304 0c8.90221,4.53288 18.3852,8.4841 29.1481,11.1572 8.64596,-13.6905 20.5461,-27.7297 39.608,-42.5367l0 1.25518c-22.1193,17.5408 -30.8444,29.8545 -37.6555,41.421l-1.9525 1.53411c-11.7034,-3.09175 -21.8614,-7.50813 -30.9611,-12.8307z"/>
  <path fill="black" d="M287.516 292.947c1.24923,14.2895 3.21307,24.5282 5.57859,32.4953 -1.75521,-9.15137 -3.31285,-19.3904 -4.3234,-32.6347l-1.25518 0.139465z"/>
  <path fill="black" d="M294.35 327.255c2.28898,7.6938 4.17147,11.8775 5.71805,14.3649 -10.855,4.79962 -17.7353,9.37843 -21.8959,13.807l1.67358 -0.278929c4.96857,-4.68425 12.5578,-8.89115 21.617,-12.8307 -2.34822,-4.26473 -4.53345,-8.93622 -6.13644,-15.0622l-0.976252 0z"/>
  <path fill="black" d="M283.193 355.427l2.3709 -0.139465 5.02073 -4.7418c-2.46444,0.999497 -4.92803,2.76605 -7.39163,4.88126z"/>
  <path fill="black" d="M294.071 348.872l2.3709 -0.139465 5.02073 -4.7418c-2.46444,0.999497 -4.92803,2.76605 -7.39163,4.88126z"/>
  <path fill="black" d="M236.193 493.218l0.557859 1.25518c2.23143,-4.3234 3.90501,-8.22841 5.43912,-13.3886l-1.25518 -0.139465c-1.09247,4.41638 -2.53389,8.6006 -4.7418,12.2729z"/>
  <path fill="black" d="M255.579 493.357l0.557859 1.25518c3.80069,-7.36385 5.26734,-13.4087 6.27591,-21.4776 -1.09247,4.41638 -4.62586,16.5501 -6.83377,20.2224z"/>
  <path fill="black" d="M263.11 472.438c1.93238,-5.54797 2.60901,-9.84104 0.217984,-12.3208 -4.59355,-4.76419 -16.3698,-6.19767 -17.5116,-15.2932 -3.71906,-0.51137 -7.43811,-0.464882 -11.1572,-0.697323l0.278929 0.836788c3.25417,0.325417 6.64781,0.0929764 9.76252,0.976252 1.29118,8.89739 13.858,9.78804 17.9212,15.0273 2.47125,3.18671 1.39465,5.78778 0.488126,11.471z"/>
  <polygon fill="white" points="234.24,446.358 238.564,453.052 239.122,451.1 236.054,446.916 "/>
  <polygon fill="black" points="218.899,449.147 221.968,452.494 221.828,450.542 224.06,451.936 223.92,450.681 226.988,451.657 227.546,449.705 225.036,449.705 224.757,449.008 224.199,449.008 224.06,449.565 223.223,449.426 223.083,449.008 221.131,448.729 220.991,449.565 "/>
  <path fill="black" d="M379.77 396.627c0.144,-1.22627 1.76372,-3.7817 2.21556,-4.82854 0.466299,2.34907 -1.29345,3.93562 -2.21556,4.82854z"/>
  <path fill="black" d="M384.512 393.559c0.144,-1.22627 1.06639,-3.50306 1.51824,-4.54989 0.466583,2.34907 -0.596126,3.65698 -1.51824,4.54989z"/>
  <path fill="black" d="M390.369 389.096c0.144,-1.22627 0.92693,-2.9452 1.37877,-3.99203 0.466583,2.34907 -0.456662,3.09912 -1.37877,3.99203z"/>
  <path fill="black" d="M394.135 386.028c0.144,-1.22627 1.06639,-3.50306 1.51824,-4.54989 0.466583,2.34907 -0.596126,3.65698 -1.51824,4.54989z"/>
  <path fill="black" d="M397.901 383.936c0.144,-1.22627 2.18211,-4.47931 2.63395,-5.52614 0.466583,2.34907 -1.71184,4.63323 -2.63395,5.52614z"/>
  <path fill="black" d="M402.224 381.704c0.144,-1.22627 1.48479,-3.36331 1.93663,-4.41014 0.466583,2.34907 -1.01452,3.51723 -1.93663,4.41014z"/>
  <path fill="black" d="M419.031 372.999l-0.697323 1.25518c23.1713,0.775559 44.7475,-2.16992 64.5721,-9.20467l-2.64983 -1.39465c-18.042,7.63314 -39.0898,9.52612 -61.225,9.34413z"/>
  <polygon fill="black" points="480.117,367.002 478.861,367.979 479.28,369.513 482.488,368.258 482.627,367.142 "/>
  <path fill="black" d="M407.384 377.799c0.144,-1.22627 0.92693,-2.9452 1.37877,-3.99203 0.466583,2.34907 -0.456662,3.09912 -1.37877,3.99203z"/>
  <path fill="black" d="M410.849 376.536c0.233291,-1.21266 1.41874,-2.59058 1.9457,-3.6017 0.0598111,2.37628 -1.10098,2.77795 -1.9457,3.6017z"/>
  <path fill="black" d="M413.792 375.994c-0.169795,-1.22287 0.508252,-2.90948 0.681733,-4.03625 0.822048,2.2303 -0.147402,2.9846 -0.681733,4.03625z"/>
  <path fill="black" d="M416.589 373.697c-0.439087,-1.43632 -0.155339,-3.67058 -0.238677,-5.08564 1.30025,2.47635 0.524126,3.66123 0.238677,5.08564z"/>
  <path fill="black" d="M413.521 368.258c-0.439087,-0.984756 -0.155339,-2.5166 -0.238677,-3.4869 1.30025,1.69795 0.524126,2.51036 0.238677,3.4869z"/>
  <path fill="black" d="M410.452 372.721c-0.439087,-0.984756 -0.155339,-2.5166 -0.238677,-3.4869 1.30025,1.69795 0.524126,2.51036 0.238677,3.4869z"/>
  <path fill="black" d="M406.826 375.51c-0.439087,-0.669544 -0.155339,-1.71128 -0.238677,-2.37118 1.30025,1.15455 0.524126,1.70702 0.238677,2.37118z"/>
  <path fill="black" d="M393.996 362.4c-0.439087,-0.669544 -0.155339,-1.71128 -0.238677,-2.37118 1.30025,1.15455 0.524126,1.70702 0.238677,2.37118z"/>
  <path fill="black" d="M386.186 367.003c-0.439087,-0.669544 0.263055,-1.71128 0.179717,-2.37118 1.30025,1.15455 0.105732,1.70702 -0.179717,2.37118z"/>
  <path fill="black" d="M419.378 360.169c-0.439087,-1.33909 -0.155339,-3.42227 -0.238677,-4.7418 1.30025,2.30882 0.524126,3.41377 0.238677,4.7418z"/>
  <path fill="black" d="M421.191 362.958c-0.439087,-1.33909 -0.155339,-3.42227 -0.238677,-4.7418 1.30025,2.30882 0.524126,3.41377 0.238677,4.7418z"/>
  <path fill="black" d="M419.378 366.444c-0.439087,-1.18148 -0.155339,-3.01975 -0.238677,-4.18394 1.30025,2.03726 0.524126,3.0121 0.238677,4.18394z"/>
  <path fill="black" d="M417.286 362.539c-0.439087,-0.945355 -0.155339,-2.41569 -0.238677,-3.34715 1.30025,1.62992 0.524126,2.40973 0.238677,3.34715z"/>
  <path fill="black" d="M419.222 369.918c0.0107717,-1.25943 0.930048,-2.87462 1.26709,-3.99118 0.48841,2.36495 -0.58337,2.99877 -1.26709,3.99118z"/>
  <path fill="black" d="M418.123 372.441c-0.439087,-0.630142 -0.155339,-1.61065 -0.238677,-2.23143 1.30025,1.08652 0.524126,1.60639 0.238677,2.23143z"/>
  <path fill="black" d="M414.632 356.255c-0.236126,-1.21181 -0.0136063,-3.0875 0.0980788,-4.22221 1.15937,2.09537 0.508536,3.0909 -0.0980788,4.22221z"/>
  <path fill="black" d="M417.705 355.567c-0.439087,-0.984756 -0.155339,-2.5166 -0.238677,-3.4869 1.30025,1.69795 0.524126,2.51036 0.238677,3.4869z"/>
  <path fill="black" d="M419.518 355.706c-0.439087,-0.748347 -0.155339,-1.91282 -0.238677,-2.65011 1.30025,1.29033 0.524126,1.90772 0.238677,2.65011z"/>
  <polygon fill="black" points="406.357,362.252 408.241,358.356 408.682,359.007 407.254,362.084 "/>
  <rect fill="white" x="413.592" y="346.083" width="2.3709" height="0.836788"/>
  <rect fill="white" x="405.921" y="342.178" width="1.81304" height="0.836788"/>
  <rect fill="white" transform="matrix(0.91129 -0.411765 0.411765 0.91129 426.635 348.839)" width="2.3709" height="0.836788"/>
  <rect fill="white" x="422.518" y="350.964" width="1.11572" height="0.836788"/>
  <path fill="black" d="M458.36 279.14c-12.4067,34.3443 -13.0246,45.11 -14.0859,56.7621 -0.703276,-14.6701 3.43843,-30.3231 12.5518,-55.9253l1.53411 -0.836788z"/>
  <path fill="black" d="M371.892 341.62c-1.34816,4.04447 -4.64882,7.81002 -6.97323,11.715l1.39465 0c1.90602,-3.39364 4.36989,-7.06621 5.71805,-10.1809l-0.139465 -1.53411z"/>
  <path fill="black" d="M375.094 341.439c-1.40117,4.20321 -4.83109,8.11645 -7.24678,12.1745l1.44936 0c1.98085,-3.52658 4.82032,-6.78529 6.2212,-10.0222l-0.42378 -2.15235z"/>
  <rect fill="black" stroke="black" stroke-width="0.216" x="109.28" y="348.872" width="0.418394" height="3.76555"/>
  <rect fill="black" stroke="black" stroke-width="0.216" x="106.351" y="348.732" width="0.418394" height="3.76555"/>
  <path fill="black" d="M67.5803 359.611l-3.34715 -5.02073c2.97525,2.23143 4.09096,3.90501 3.34715,5.02073z"/>
  <path fill="black" d="M65.3488 359.332l-2.09197 -2.51036c2.41739,1.74784 2.27764,1.1092 2.09197,2.51036z"/>
  <path fill="black" d="M61.3075 358.769l0.0153071 -3.40469c0.793418,3.06539 0.887811,2.44885 -0.0153071,3.40469z"/>
  <path fill="black" d="M131.064 353.516c-0.347811,-2.40321 -1.56869,-4.01103 -2.82614,-5.65937 3.89877,1.88249 3.26438,2.79638 2.82614,5.65937z"/>
  <rect fill="black" stroke="black" stroke-width="0.216" x="118.485" y="348.732" width="0.418394" height="3.20769"/>
  <path fill="white" d="M135.639 357.24c0.31663,3.8795 -1.49613,6.62145 5.02073,13.807l1.53411 -1.39465 -0.139465 -1.25518 -3.76555 -1.67358 1.25518 -1.25518 -3.90501 -8.22841z"/>
  <path fill="black" d="M119.755 418.329c-0.931749,3.12095 5.4034,1.9097 4.33219,5.58992l0.419244 -1.67698c1.43461,0.474803 2.15518,3.0617 2.51547,3.21421 1.49046,-4.89118 -4.8447,-4.75144 -7.2669,-7.12715z"/>
  <polygon fill="black" points="130.515,408.127 130.096,409.804 132.751,408.547 133.171,409.944 136.385,408.686 139.599,410.922 139.459,408.686 137.643,407.429 138.9,405.332 138.202,405.193 137.782,403.376 137.084,403.376 136.664,406.031 135.826,407.149 132.332,406.87 131.913,407.988 "/>
  <path fill="black" d="M135.686 453.685l2.51547 -5.03093c0.838489,2.04973 0,5.26366 -2.51547,5.03093z"/>
  <path fill="black" d="M141.416 409.804l-0.978237 1.53723c2.56167,1.5137 5.12362,3.79588 7.68615,6.42841l-0.558992 -2.51547 -6.14892 -5.45018z"/>
  <path fill="black" d="M148.124 415.534l2.09622 3.35395c12.7009,9.56098 5.91563,23.3428 0.419244,39.1295l0.139748 1.67698c8.50167,-21.5269 14.1982,-31.2656 -2.65521,-44.1604z"/>
  <polygon fill="white" points="133.869,415.953 140.298,431.186 141.416,429.649 135.546,416.512 "/>
  <polygon fill="white" points="143.652,415.255 153.015,427.552 154.832,426.574 "/>
  <path fill="white" d="M356.254 356.962l13.2032 -16.9756c-6.07777,5.65852 -10.4786,11.317 -13.2032,16.9756z"/>
  <path fill="white" d="M72.6135 242.686c-0.485292,-0.282331 -0.968315,-0.367654 -1.45049,-0.22989 -5.18797,1.4828 -0.556725,27.4487 -5.27613,28.3272 8.95011,6.14637 1.13046,-13.9799 6.72662,-28.0973zm-23.8811 3.57562c-0.452126,-0.357449 -0.877323,-0.515055 -1.26992,-0.426331 -5.01024,1.13358 5.78353,28.1512 2.75103,29.3908 5.79487,-0.151937 -1.96583,-13.7197 -1.4811,-28.9644zm-20.1212 4.54564c-0.479055,-0.240095 -0.912756,-0.28715 -1.29118,-0.100913 -6.27874,3.08863 13.4382,30.2857 12.3245,32.6991 0.654237,-3.04016 -14.0635,-27.322 -11.0333,-32.5982zm40.3597 68.23c6.1081,3.99912 12.1399,5.08507 17.2545,10.0244 4.21994,4.07537 7.183,12.3443 8.18901,14.4635 -5.32205,-1.40627 -5.11484,-11.4769 -9.28347,-13.7242 -6.08287,-3.27969 -27.8348,-14.4079 -44.2126,-28.8638 -12.7381,-11.2436 -21.9767,-25.4208 -19.6659,-29.3647 0.169795,-0.290268 0.557292,-0.262488 1.10778,0.000566929 5.57745,22.9235 31.7214,37.7155 46.6107,47.4642m287.61 -61.5524c-36.6965,2.79184 -64.8927,-5.41021 -76.5766,-1.79348 8.2355,-5.68942 50.7365,3.08183 76.5766,1.79348zm48.2077 -72.6101c-3.6961,-2.2714 -12.2482,2.51405 -25.5274,2.37685 8.92744,0.462898 17.0181,-1.58457 25.5274,-2.37685zm34.863 -55.8601c-1.0457,-1.98255 -5.53153,-0.967182 -11.7281,0.385795 -0.88526,0.193039 -1.80567,0.393449 -2.75528,0.592725 5.18372,-0.562961 10.4372,-1.17269 14.4833,-0.97852zm-36.5137 -57.4464c-0.252284,-0.831402 -0.693638,-1.52277 -1.35666,-2.0503 -2.87915,-2.29181 -13.5876,17.8226 -23.0085,26.0793l-0.0473386 2.3777c8.55582,-8.38375 19.3431,-25.6932 24.4125,-26.4067zm-22.7945 0.0178583c-3.59377,-3.47896 -8.69159,9.07682 -17.2545,20.361 -7.08548,9.33733 -20.9146,24.1574 -35.1692,29.2697 22.0845,-5.97175 41.7711,-32.3218 46.3377,-42.1719 2.19997,-4.7452 1.99049,-3.58158 6.08599,-7.45881zm-70.2964 -53.2874c-9.11963,0.792 -3.52432,19.1203 -28.1169,32.0596l4.33021 -0.35915c18.2492,-11.8219 15.1603,-22.6675 23.7867,-31.7004zm-26.9192 7.86161c-0.645449,-0.696756 -1.60158,-1.02302 -2.96447,-0.907937 -5.18882,0.438236 -7.32643,13.741 -12.5753,21.1666 -4.73216,6.69515 -10.7243,13.1567 -16.636,18.2064 -26.2806,5.44621 -64.154,9.32372 -114.215,4.69333 42.7439,6.52819 79.7604,2.31477 115.778,-3.77065 24.0114,-18.4289 20.8273,-39.6471 30.6133,-39.3877zm-177.236 39.2616c-2.27565,-0.0181417 -3.59603,0.362268 -3.64224,1.38359 -0.134362,2.96703 5.01818,5.90797 12.6227,8.6726 -8.64908,-3.9274 -13.3177,-7.38369 -8.98045,-10.0562m21.7193 41.7368c-16.1705,-2.88114 -30.6899,-7.26577 -30.8237,-11.1138 -0.0680315,-1.96413 0.55474,-2.83975 2.23143,-3.10762 -5.39774,7.78536 20.9333,9.79739 28.5922,14.2214zm70.0319 4.03455c33.4542,-1.41647 73.6844,5.292 76.1809,56.7649 1.0131,20.8885 -9.39374,41.885 -22.7778,57.7718 -20.2068,23.9856 -47.755,37.963 -55.6112,35.278 14.8538,-1.99021 45.2515,-20.7882 63.3266,-48.4308 17.3962,-26.6043 15.88,-63.1812 -0.0459213,-82.3352 -12.1408,-14.6021 -35.6582,-18.0425 -61.0725,-19.0488m-89.2449 71.9774c-0.943937,0.673512 -0.920126,2.44772 -0.271559,4.89685l1.32293 -1.09247 0 -2.35559 -1.05137 -1.44879zm-5.45329 32.7492c-2.61014,-4.13462 -4.20577,-7.73207 -2.52709,-9.6412 0.308977,-0.351496 0.847276,-0.298488 1.56019,0.056126 -0.934016,2.88114 0.644599,6.39014 0.966898,9.58508zm8.71314 85.0669c6.79692,0.506268 17.3784,-2.21896 28.9358,-8.88605 8.45717,-4.87843 15.8426,-5.89862 15.9163,-10.4536 0.072567,-4.47874 -8.41692,-12.204 -16.0486,-19.4718 -10.4587,-9.95953 -25.6037,-26.1408 -27.22,-30.0824 3.84548,3.5623 12.7936,14.019 22.4476,23.5029 10.9074,10.7152 21.805,19.1075 22.4133,23.6886 1.15342,8.68649 -11.8964,11.2813 -16.3259,14.2682 -9.01304,6.0772 -26.4518,9.88385 -30.1184,7.43415z"/>
  <path fill="#644D36" d="M96.031 343.293c5.13128,4.3149 20.6694,2.1532 28.0324,-4.04447 -2.55685,-6.97323 3.25417,-9.4836 4.88126,-14.2254l-1.25518 -2.78929 -6.97323 0.139465 5.29966 1.81304 -0.697323 1.53411 -8.64681 -0.278929 0.278929 0.557859 5.43912 2.23143 -2.09197 1.53411 -5.99698 0 -0.976252 1.11572 5.57859 0.697323 -1.39465 1.67358 -4.46287 0.836788 -2.09197 1.67358 5.02073 -0.139465 -2.78929 2.92876 -7.67056 0.557859 -0.557859 1.53411 5.99698 -0.278929 -0.836788 1.53411 -2.64983 -0.139465 -0.418394 1.11572 1.25518 0.139465 -12.2729 0.278929z"/>
  <polygon fill="#644D36" points="125.04,317.632 126.713,319.305 130.758,319.863 129.781,322.234 130.758,324.466 138.289,321.258 136.197,318.748 132.71,319.305 130.339,317.353 "/>
  <polygon fill="#644D36" points="132.292,314.564 132.85,316.516 136.755,316.795 137.034,319.166 138.986,320.421 145.541,318.19 143.588,315.958 139.962,316.237 137.173,314.145 "/>
  <polygon fill="#644D36" points="139.683,312.193 140.241,314.145 144.146,314.424 144.425,316.795 146.378,318.05 159.348,312.472 157.386,311.841 156.264,310.6 150.266,308.499 147.374,309.819 148.475,311.909 151.367,311.743 151.12,313.587 147.354,313.866 144.704,312.193 "/>
  <polygon fill="#644D36" points="151.399,306.335 159.069,309.682 158.651,311.077 161.44,312.472 165.763,310.24 161.3,306.893 160.045,307.033 159.627,308.427 156.419,306.754 "/>
  <polygon fill="#644D36" points="157.953,303.964 165.624,307.311 165.206,308.706 167.995,310.101 172.318,307.869 167.855,304.522 166.6,304.662 166.182,306.056 163.253,303.964 "/>
  <polygon fill="#644D36" points="164.927,300.896 172.597,304.243 172.179,305.638 174.968,307.033 180.268,304.243 174.829,301.454 173.573,301.593 173.155,302.988 171.481,300.757 "/>
  <polygon fill="#644D36" points="172.458,297.967 178.455,299.78 178.176,302.43 180.826,303.685 185.288,302.291 183.196,300.338 184.312,298.944 180.407,298.386 179.012,297.688 "/>
  <polygon fill="#644D36" points="180.547,295.178 187.659,297.409 186.823,299.641 188.775,301.175 194.493,298.246 190.449,297.549 192.122,295.875 190.449,295.178 187.241,295.457 185.848,294.568 "/>
  <polygon fill="#644D36" points="188.636,291.831 191.285,293.226 193.875,294.39 193.187,295.574 194.493,297.688 210.253,290.436 214.158,288.344 211.089,287.647 212.763,285.276 203.558,284.997 205.511,287.089 208.858,287.647 205.79,288.344 203.558,287.089 199.235,287.089 199.932,288.344 193.517,288.205 195.469,289.181 199.793,291.273 "/>
  <polygon fill="#644D36" points="209.974,280.534 217.226,281.65 220.015,280.395 219.318,282.068 223.083,280.674 221.689,283.324 217.505,286.95 216.389,284.439 217.226,282.766 214.585,282.961 209.834,281.929 "/>
  <polygon fill="#644D36" points="220.015,276.49 227.407,277.187 229.22,275.932 229.08,277.466 233.125,276.629 228.383,280.674 225.175,281.929 224.757,280.255 226.43,278.582 224.627,278.917 219.876,277.884 "/>
  <polygon fill="#644D36" points="229.638,271.748 236.332,272.445 238.146,271.19 238.006,272.724 240.656,272.166 237.309,275.932 234.101,277.187 234.24,275.374 235.356,273.84 233.553,274.175 228.941,273.422 "/>
  <polygon fill="#644D36" points="237.588,267.843 243.445,267.843 245.537,266.867 244.086,265.841 240.751,264.828 246.234,264.217 248.894,263.643 246.058,266.658 247.49,267.843 244.421,271.33 241.772,272.864 241.772,270.772 242.469,269.238 240.665,269.573 234.101,268.959 "/>
  <polygon fill="#644D36" points="249.861,259.754 249.442,261.567 253.208,261.846 253.347,263.38 255.439,265.333 255.021,262.264 257.81,263.798 259.484,260.87 259.484,259.615 263.668,258.638 261.436,257.383 251.674,257.244 255.16,258.359 257.531,259.057 256.136,260.033 "/>
  <path fill="#644D36" d="M299.092 252.92l-2.09197 0.418394 -2.51036 -0.557859 -0.278929 0.557859 -3.06822 -0.557859 -0.557859 0.557859 -1.11572 -0.697323 -2.09197 0.278929 -6.55484 0.139465 -1.67358 0.697323 -5.85751 0.418394 -0.976252 1.67358 -3.34715 0.278929 -2.78929 2.23143 -3.9583 -1.36233 2.0058 -1.84536 -3.06822 -0.557859 -0.418394 -1.67358 2.09197 -0.697323 2.78929 0.278929 -0.278929 1.81304 5.02073 0.139465 1.81304 -0.557859 -2.92876 -1.9525 7.1127 0.418394 -5.16019 -5.02073 5.46095 3.79531 1.91594 -0.226205 0.851528 2.14895 4.3234 -0.976252 -6.97323 -5.85751 8.36788 4.60233 -0.278929 -0.976252 3.76555 1.67358 -0.557859 -1.67358 -2.78929 -1.39465 -0.139465 -1.39465 4.60233 0.836788 3.62608 3.90501 3.34715 0 -1.81304 -1.53411 2.51036 -1.25518 4.04447 2.92876 -0.139465 -2.3709 0.697323 -0.278929 2.3709 3.20769 0 -1.67358 2.51036 1.81304 0.836788 -0.836788 5.02073 0.278929 3.34715 0.976252 -0.557859 -2.78929 1.67358 0.697323 0.139465 2.09197 2.51036 -1.25518 0.418394 1.39465 2.09197 -1.39465 0.697323 1.81304 3.06822 -0.278929 -0.418394 -2.3709 3.62608 2.64983 1.11572 -0.976252 1.53411 2.09197 1.67358 -0.418394 0.139465 -1.81304 2.64983 -0.836788 0.836788 2.09197 1.53411 -0.139465 0.278929 1.25518 2.64983 0.278929 -0.976252 -2.3709 1.67358 -1.39465 1.25518 1.9525 2.09197 -0.697323 1.81304 2.09197 1.9525 0 1.53411 -2.64983 1.39465 0.836788 1.11572 -1.11572 0.697323 2.64983 3.76555 0 0.418394 -1.81304 2.09197 -0.139465 1.25518 0.418394 0.418394 -0.836788 1.9525 0.976252 0.836788 -1.39465 2.92876 -1.25518 2.09197 2.64983 2.78929 -0.278929 -1.11572 -2.51036 2.09197 -2.09197 1.11572 -0.139465 -0.278929 2.64983 2.3709 0.418394 2.64983 -2.64983 1.53411 0.139465 -0.418394 1.81304 2.3709 -0.836788 0.976252 1.11572 2.3709 -3.34715 2.09197 -0.697323 2.3709 0 -2.51036 3.62608c-28.0746,8.54845 -55.2229,6.27251 -87.0208,3.94498l-2.376 -1.29515z"/>
  <path fill="#644D36" d="M22.921 273.661c6.1064,16.1189 18.4867,26.8934 30.6556,35.1071 6.19569,4.18195 13.1613,8.94473 18.6639,12.0764 7.54101,4.29222 11.9262,5.9984 16.323,10.2929l3.92599 0.314079 -0.314079 -1.41336 -1.57039 -0.471118 -2.04151 0.157039 -1.41336 -1.72743 1.88447 -1.57039 -2.82671 -0.942237 -1.57039 -0.157039 0 -1.09928 -2.04151 -0.471118 -1.57039 0.471118 -0.471118 -1.25632 1.25632 -1.41336 -2.35559 0.785197 0 -1.88447 -1.41336 0.157039 -2.04151 -1.41336 1.88447 -0.942237 0.157039 -1.25632 -4.08303 -0.157039 -0.314079 0.785197 -1.41336 -2.19855 2.82671 -1.09928 -0.471118 -1.09928 -3.14079 1.57039 0.628158 -1.57039 -2.04151 0.314079 -2.98375 -3.14079 -0.157039 -1.88447 -2.82671 -1.09928 1.72743 2.82671 -3.14079 -2.66967 0.157039 -1.57039 3.29783 -0.628158 -0.157039 -1.25632 -2.82671 0.471118 -0.471118 -1.41336 -1.41336 0.157039 -0.785197 1.57039 -1.41336 -1.72743 -0.157039 2.19855 2.66967 2.66967 0.942237 0.471118 0.942237 1.88447 2.51263 1.72743 -0.314079 1.57039 -1.25632 0.157039 -0.471118 -1.41336 -1.88447 0 -2.35559 -1.25632 -0.942237 -2.82671 -0.628158 0 0 1.72743 -0.628158 -0.157039 -0.471118 -2.04151 -2.98375 -0.314079 1.09928 -2.04151 -4.24007 -0.471118 0.628158 -1.88447 -1.72743 0.785197 -0.157039 -1.88447 -2.82671 0.314079 -2.98375 -2.51263 1.88447 -0.314079 -0.157039 -2.04151 -2.66967 1.09928 -1.88447 -2.35559 -4.71118 -2.66967 0.157039 -2.98375 -2.19855 0.157039c-4.71147,-5.23503 -8.27093,-11.0455 -11.3068,-17.1173z"/>
  <polygon fill="#644D36" points="42.865,285.439 49.4606,294.233 51.031,293.134 48.3613,289.993 49.7747,288.894 48.5184,288.423 46.948,288.58 47.8902,287.48 46.0058,287.48 45.0635,285.125 "/>
  <path fill="#644D36" d="M31.8722 265.024c3.19295,4.3971 6.0721,9.57941 9.57941,13.1913l-1.57039 1.57039c-3.47301,-4.51956 -5.52473,-9.74892 -8.00901,-14.7617z"/>
  <polygon fill="#644D36" points="40.6664,281.67 42.3938,284.339 46.0058,283.711 44.9065,282.141 42.0798,282.926 42.0798,280.885 "/>
  <path fill="#644D36" d="M49.3036 248.534l0.157039 1.57039 2.66967 3.45487 -2.35559 -1.09928 4.24007 5.33934 1.25632 2.66967 -1.25632 -0.628158 0.942237 2.66967 1.57039 0.157039 4.3971 7.69493 3.92599 0.785197c-5.86829,-5.33282 -9.89689,-13.2398 -13.6624,-21.5144l-1.88447 -1.09928z"/>
  <path fill="#644D36" d="M87.9353 283.868l-2.98375 -3.61191 -0.628158 -3.14079 -0.942237 -0.157039 -1.41336 -3.14079 -2.51263 -3.45487 0.471118 -1.25632 -2.19855 -2.04151 -0.157039 -3.14079 -1.72743 -2.35559 -0.314079 -3.14079 -0.942237 -2.35559 -1.72743 0 0.157039 -6.12454 -1.09928 0.785197 0.157039 0 0 -5.33934 0.628158 -0.785197c3.03619,12.3015 10.1554,26.1734 15.2328,39.2599z"/>
  <path fill="#644D36" d="M73.4877 243.823c4.97254,18.4266 17.2216,44.7565 29.2093,54.1786 -7.64278,-9.47481 -24.2365,-38.8936 -25.9115,-48.5252l-3.29783 -5.65342z"/>
  <polygon fill="#644D36" points="108.036,222.78 112.748,230.318 129.551,248.849 133.477,249.948 135.047,248.534 133.163,248.849 133.634,247.592 131.121,247.906 131.121,246.493 129.08,246.65 128.609,245.08 125.782,243.352 122.641,239.269 125.468,241.154 125.154,238.798 121.228,237.856 115.731,231.417 116.831,230.475 115.103,230.004 114.946,228.433 113.219,228.276 110.235,224.193 "/>
  <path fill="#644D36" d="M154.206 272.719c-6.80485,-6.49077 -14.0811,-12.9818 -20.4151,-19.4729l1.25632 -0.785197 2.35559 0 1.57039 1.72743 2.51263 -0.314079 -3.29783 2.51263 2.19855 -0.471118 -0.785197 1.72743 2.66967 -1.25632 0 2.35559 1.72743 0.785197 0.628158 1.72743 2.35559 -0.157039 -0.314079 2.35559 1.57039 1.72743 2.04151 -0.157039 0.628158 1.09928 -0.785197 0.942237 2.19855 2.51263 1.72743 -1.57039 -0.157039 1.57039 1.57039 0.314079 -1.25632 2.82671z"/>
  <path fill="#644D36" d="M108.979 189.017c2.75131,13.4873 18.8283,37.2458 27.3164,46.914 8.61959,9.8178 9.9893,13.0022 12.8857,14.4884l0.785197 -2.04151 3.92599 -0.157039 -4.24007 -1.88447 -0.157039 -1.41336 -2.19855 1.09928 0.942237 -1.57039 -2.19855 0.471118 -0.157039 -1.57039 -1.88447 -0.785197 2.19855 -0.314079 -0.314079 -1.41336 -2.66967 -0.471118 0.628158 -1.57039 -3.29783 -0.314079 -1.09928 -2.04151 1.09928 -2.04151 -2.19855 0.628158 0.314079 -2.04151 -2.35559 1.09928 -1.57039 -2.51263 1.88447 -1.41336 -2.66967 0 -0.314079 -2.66967 -1.09928 0.157039 -1.09928 -1.41336 -1.25632 -0.628158 1.88447 -0.471118 -6.12454 -4.24007 1.72743 -2.35559 -1.72743 -0.314079 -0.157039 -1.57039 -3.76895 -3.45487 1.88447 -0.471118 -3.76895 -1.57039 0 -1.41336 -2.66967 -2.82671 2.82671 1.41336 -2.51263 -2.98375 -1.57039 -0.314079 -1.41336 -4.71118 -0.785197 0.157039 -0.628158 -4.86822 -3.14079 -3.76895 1.25632 -0.157039 -2.51263 -2.66967z"/>
  <polygon fill="#644D36" points="151.065,249.791 149.809,252.46 155.933,258.428 155.776,260.627 158.917,260.627 157.818,258.899 160.959,260.627 158.603,257.957 156.876,257.329 153.892,254.031 155.619,253.874 159.074,255.13 156.247,252.303 153.578,251.832 153.264,249.948 "/>
  <polygon fill="#644D36" points="157.504,263.453 160.959,267.536 161.43,271.148 162.372,269.421 164.099,268.636 166.141,269.735 164.099,267.379 161.43,266.123 160.33,264.238 164.256,265.181 162.686,263.924 161.43,263.453 159.545,261.412 "/>
  <path fill="#644D36" d="M190.953 260.784c-19.1458,-15.4094 -38.5929,-32.1735 -58.5757,-51.3519 20.1923,24.2362 39.6391,40.5159 58.5757,51.3519z"/>
  <path fill="#644D36" d="M267.902 138.45l0.157039 2.82671c-4.74321,-7.89648 -12.7845,-20.431 -30.7194,-25.888 -28.0015,-8.52038 -68.01,-3.67427 -99.7801,-7.89676 -15.8219,-2.10274 -29.7097,-4.25169 -38.9461,-12.2278l4.08303 2.35559 0.942237 -1.25632 0.628158 1.09928 1.25632 0.314079 0.314079 1.41336 5.49638 0.314079 0.471118 1.41336 1.25632 0 0.471118 -0.628158 1.41336 1.41336 0.628158 -0.942237 1.41336 0 1.09928 1.88447 2.19855 0 1.72743 -0.942237 -0.785197 1.25632 2.04151 -1.25632 1.72743 0 -1.41336 1.72743 2.35559 0 -0.314079 0.785197 4.71118 -0.628158 0.314079 0.942237 1.88447 -1.09928 0.314079 1.25632 6.90974 -0.471118 -0.785197 0.942237 5.33934 0.314079 3.76895 -1.41336 -1.25632 2.19855 6.12454 -1.09928 2.66967 0 -1.09928 1.57039 7.06678 -2.35559 1.88447 -0.314079 -2.35559 2.19855 4.55414 0.314079 3.14079 -2.51263 1.09928 0.628158 -1.72743 2.19855 3.92599 0 3.45487 -2.66967 2.51263 -0.471118 -2.04151 3.29783 3.45487 -0.157039 4.71118 -2.98375 1.88447 0 -2.51263 2.98375 3.29783 0.314079 2.66967 -2.51263 3.45487 -0.471118 -1.88447 3.14079 2.19855 -0.157039 3.76895 -1.88447 2.51263 -0.157039 -1.72743 1.72743 1.25632 0.628158 3.45487 -0.785197 4.3971 -1.41336 1.57039 0 -3.14079 2.19855 2.19855 0.157039 1.57039 -0.628158 1.88447 0.157039 1.88447 -1.09928 2.51263 0 -0.314079 2.04151 9.89349 -1.09928 -1.57039 2.35559 5.49638 -0.942237 3.45487 0.157039 -3.14079 0.942237 1.25632 1.25632 5.49638 -0.471118 0 1.41336 2.82671 -0.942237 -0.314079 1.72743 2.35559 -0.471118 3.92599 -0.157039 -3.92599 1.88447 0.471118 1.09928 7.22381 0.314079 3.45487 1.57039 -4.24007 0.471118 2.51263 1.72743 5.33934 0.314079 3.14079 1.57039 -5.49638 -0.157039 2.66967 2.98375 2.04151 -1.09928 3.29783 1.41336 -4.08303 0.942237 1.25632 0.785197 2.98375 1.41336 4.24007 1.41336 -3.92599 0.157039 1.25632 2.19855 1.88447 0.157039 2.35559 1.25632 -3.14079 0.314079 1.25632 2.51263 4.86822 -0.314079 -4.08303 1.09928 1.72743 2.51263z"/>
  <path fill="#644D36" d="M279.052 138.45c-4.28599,-10.537 -11.8823,-21.4648 -22.5774,-28.1829 -36.9437,-23.2056 -115.339,-18.7719 -151.422,-41.0715l4.3971 1.72743 2.82671 0.314079 0.157039 0.785197 4.3971 0.785197 5.02526 2.35559 2.82671 -0.157039 3.29783 2.35559 5.1823 -1.09928 1.57039 0.157039 -0.942237 2.04151 3.45487 0.942237 2.19855 -1.41336 2.35559 0.314079 -0.471118 2.19855 3.61191 -0.314079 -0.314079 1.25632 2.98375 -1.88447 2.19855 0 -2.51263 2.04151 4.86822 1.09928 2.19855 -1.41336 1.41336 -0.157039 -2.19855 2.19855 5.9675 -0.471118 0.157039 1.57039 1.72743 -1.88447 3.61191 0.628158 -1.57039 2.19855 4.71118 -1.57039 3.29783 -0.314079 -2.35559 1.72743 10.6787 -0.157039 -1.09928 1.25632 1.72743 1.41336 0.157039 0.157039 2.19855 -2.51263 1.57039 0.157039 -0.785197 1.57039 1.72743 -0.785197 1.72743 0 0.942237 2.98375 1.25632 -1.57039 1.41336 0 -0.157039 1.09928 2.51263 -1.57039 3.45487 -0.314079 -1.09928 2.35559 3.29783 0.785197 1.09928 -1.41336 2.04151 -0.157039 -1.09928 1.41336 2.04151 1.09928 4.3971 -1.41336 1.88447 0.785197 -2.51263 1.57039 4.71118 -0.628158 0.785197 0.628158 3.14079 -1.41336 2.98375 0 -2.35559 2.66967 2.51263 0.471118 3.29783 -1.09928 0 1.72743 2.51263 -2.04151 2.04151 0.157039 -2.98375 2.82671 2.35559 0.314079 3.45487 -1.25632 5.65342 0 -5.1823 2.66967 8.79421 -0.471118 3.61191 0.471118 -4.08303 2.35559 9.57941 -0.314079 -0.314079 0.628158 -2.82671 1.09928 0.942237 1.25632 3.29783 -0.785197 4.08303 -0.157039 -2.98375 1.72743 1.72743 1.09928 4.71118 -0.471118 3.45487 0.785197 -3.92599 2.19855 2.19855 1.41336 3.14079 -0.628158 2.82671 1.09928 -2.66967 0.628158 0 1.41336 7.22381 0.471118 0.157039 0.785197 -4.71118 0.157039 2.19855 2.66967 6.59566 0.314079 0.157039 0.785197 -5.02526 0 2.35559 2.98375 4.86822 -0.157039 -0.157039 0.628158 -2.82671 0.628158 0.157039 2.35559 4.86822 0.314079 0.314079 1.25632 -2.51263 1.57039 0.785197 1.88447 2.35559 -0.628158 1.41336 0.942237 -3.29783 1.57039c2.40321,2.75613 2.60164,5.56696 3.14079,9.57941z"/>
  <polygon fill="#644D36" points="278.738,129.342 278.738,130.598 281.251,130.755 281.094,129.185 "/>
  <polygon fill="#644D36" points="280.623,132.953 280.78,134.681 283.135,132.796 "/>
  <polygon fill="#644D36" points="274.184,55.533 279.68,50.9789 279.523,48.4662 281.094,46.1106 281.565,42.0276 282.821,39.8291 281.722,40.3002 282.507,37.9446 282.35,27.737 280.937,29.4645 281.408,30.2497 280.623,31.663 281.408,32.7623 279.68,33.7045 279.837,35.2749 281.251,36.2172 279.68,39.515 280.309,40.6143 278.424,43.9121 279.68,45.0114 277.796,48.4662 278.11,49.8796 273.713,53.8056 "/>
  <path fill="#644D36" d="M309.989 20.9843c1.76032,11.5322 -0.975402,27.6035 -5.52473,41.2478 -4.14227,12.4226 -8.85034,22.485 -10.1611,32.0936 -1.296,9.50174 4.1624,19.2175 9.56126,25.5935l-2.04151 -1.88447 -2.82671 1.72743 -0.314079 -1.57039 1.88447 -0.942237 -1.72743 -2.04151 -3.14079 2.35559 -0.471118 -1.57039 2.51263 -1.72743 -0.942237 -1.41336 -3.45487 1.72743 -0.157039 -1.09928 2.51263 -1.88447 -0.942237 -2.04151 -4.08303 2.19855 0.157039 -1.25632 2.19855 -2.66967 -0.314079 -1.72743 -3.14079 2.04151 0 -1.72743 2.66967 -4.3971 0 -3.45487 -3.76895 3.76895 0 -1.88447 2.98375 -2.82671 -0.942237 -1.09928 1.57039 -2.35559 0.628158 -2.82671 -5.65342 5.02526 1.09928 -3.14079 4.86822 -4.3971 -1.72743 0.314079 2.66967 -4.3971 -4.24007 3.61191 0.157039 -1.72743 3.14079 -3.29783 1.57039 -3.76895 1.25632 -1.41336 -2.51263 -0.471118 2.98375 -3.92599 3.92599 -2.35559 -3.76895 0.471118 0.314079 -2.19855 4.55414 -4.08303 0.157039 -2.66967 -2.35559 0.785197 0 -1.41336 4.55414 -4.86822 1.41336 -2.51263 -3.76895 2.19855 2.04151 -4.71118 2.35559 -1.41336 0.471118 -2.98375 -3.76895 3.61191 2.98375 -5.65342 1.09928 -0.628158 0.628158 -2.66967 -2.51263 1.09928 2.19855 -3.45487 1.25632 -2.82671 -3.14079 1.41336 3.61191 -4.86822 0.314079 -1.09928 -2.35559 0.157039 2.98375 -3.92599 0 -1.57039 -2.04151 0.628158 1.09928 -3.92599 0.942237 -0.314079 0.471118 -2.98375z"/>
  <path fill="#644D36" d="M380.029 74.3777c-2.66825,10.1166 -5.70416,19.7756 -10.0505,27.796l-3.29783 3.76895 0 -1.41336 -2.04151 -0.471118 1.88447 -2.35559 1.25632 0.471118 0.628158 -2.35559 1.57039 -1.41336 -1.88447 -0.314079 1.41336 -2.19855 3.45487 -2.82671 -1.88447 -0.628158 3.14079 -2.66967 0.157039 -2.66967 0.785197 -0.471118 0.157039 -2.82671 1.72743 -2.51263 0.833386 -3.59121 2.15036 -3.31852z"/>
  <path fill="#644D36" d="M390.079 126.044c-4.40929,-3.99799 -6.02164,-7.99824 -3.6309,-14.5386 3.20372,-8.7653 14.169,-31.3906 15.5659,-39.1689l-0.785197 0.942237 -0.628158 2.66967 -1.57039 0.471118 0 2.19855 -1.41336 2.04151 -0.471118 2.35559 -2.51263 4.24007 -1.72743 1.25632 0.314079 2.66967 -1.72743 3.29783 -0.314079 2.51263 -2.51263 3.29783 -2.35559 0.785197 2.66967 0.628158 -5.9675 4.24007 -0.314079 2.04151 3.61191 -1.57039 -2.19855 2.51263 -5.02526 4.55414 -0.314079 1.72743 5.65342 -3.76895 -0.314079 1.88447 -6.59566 5.33934 1.41336 0.785197 5.02526 -4.08303 -0.628158 2.66967 -2.98375 2.82671 1.25632 0.314079 2.19855 -1.09928 -2.51263 4.55414 1.72743 -0.628158 1.72743 -2.82671 0.785197 2.04151 -0.471118 2.82671 0.942237 0.157039 0.628158 -1.88447 1.09928 2.04151 2.35559 -0.314079z"/>
  <path fill="white" d="M328.961 134.975c0.784347,-1.56671 0.984756,-2.39698 2.33603,-1.86605 1.35128,0.531213 0.964347,1.62567 0.440788,2.95739 -0.523276,1.33172 -0.896032,2.60051 -2.33603,1.86605 -1.44,-0.734741 -1.22542,-1.39068 -0.440788,-2.95739z"/>
  <path fill="#644D36" d="M432.323 133.11c-11.6164,10.1781 -38.9801,10.5741 -62.3719,10.6977 -28.4604,0.15052 -33.7862,-2.13052 -47.1926,1.99502 -15.1815,4.67178 -9.30133,27.565 -6.6447,30.4931l-3.61191 2.66967 -0.157039 -1.88447 2.04151 -2.19855 -0.628158 -1.25632 -3.45487 2.04151 -0.785197 -1.25632 2.98375 -1.72743 -0.942237 -1.88447 -3.14079 2.04151 0.157039 -2.51263 2.51263 -1.88447 0 -2.19855 -3.29783 2.19855 0.157039 -1.41336 2.66967 -2.66967 0.314079 -2.82671 -3.92599 2.82671 0.157039 -1.41336 3.92599 -3.61191 -1.25632 -2.66967 3.92599 -4.55414 -4.86822 2.04151 3.61191 -4.3971 3.29783 -1.88447 -5.81046 0.942237 0.314079 -1.09928 7.69493 -1.72743 -0.314079 -0.785197 -6.59566 -0.314079 1.41336 -1.88447 7.38085 1.25632 0.314079 -1.09928 -1.57039 -0.785197 0 -2.35559 1.57039 1.88447 2.04151 -1.72743 3.45487 2.04151 -0.785197 -2.66967 2.51263 0.628158 5.9675 1.57039 -1.72743 -2.66967 2.35559 0.157039 4.24007 2.35559 1.25632 -1.09928 -3.14079 -2.35559 1.88447 -0.785197 3.61191 3.29783 1.25632 -0.628158 4.86822 1.57039 0.157039 -0.942237 -2.98375 -1.25632 2.82671 -0.628158 4.55414 2.98375 1.72743 -0.785197 -0.785197 -2.82671 3.29783 2.82671 1.09928 -0.628158 5.33934 0.785197 0.471118 -1.09928 5.81046 1.72743 1.25632 -0.471118 -0.942237 -1.41336 1.25632 -1.25632 2.35559 2.19855 5.81046 0.628158 -0.157039 -2.04151 5.33934 1.72743 1.57039 0.157039 -1.41336 -1.88447 8.32309 0.785197 2.82671 1.09928 1.09928 -0.471118 -1.09928 -2.19855 8.63717 1.57039 -1.09928 -1.72743 2.35559 -0.157039 2.35559 1.41336 0.471118 -0.785197 2.04151 0.628158 0.157039 -1.57039 2.66967 0.785197 3.29783 -0.628158 -0.157039 -1.41336 2.51263 1.09928c1.60951,-0.529796 3.25616,-1.01594 4.78233,-1.50747l-0.64715 -0.665575 3.95688 -0.274394c1.36828,-0.538866 1.87143,-1.11798 2.58662,-1.79263l2.66967 -0.471118z"/>
  <path fill="#644D36" d="M298.211 219.639l1.88447 -1.57039c6.29603,-37.5565 46.0058,0.586772 104.274,-30.4657l-0.314079 -1.09928 -1.25632 0.314079 -0.314079 1.09928 -1.41336 0.942237 -0.157039 -0.942237 -1.88447 0.314079 -0.471118 1.09928 -3.29783 1.25632 -0.157039 -1.41336 -4.08303 1.72743 0 0.785197 -2.04151 0.471118 -2.66967 0.942237 0 0.785197 -5.1823 0.314079 -2.19855 1.57039 -0.942237 -0.942237 -1.57039 1.72743 -3.92599 -0.942237 -0.942237 1.41336 -0.471118 -1.88447 -1.72743 0.628158 0.628158 1.88447 -5.1823 -0.314079 -1.57039 1.25632 0.157039 -1.09928 -2.82671 0.157039 -1.09928 1.41336 -0.785197 -0.628158 -2.51263 0.314079 -1.88447 -1.57039 -1.41336 1.09928 -1.09928 -1.41336 -2.66967 -0.157039 2.19855 2.04151 -2.51263 0.157039 -0.628158 -0.942237 -5.81046 -0.942237 1.72743 2.19855 -3.29783 0 -3.61191 -2.04151 -1.57039 0 1.25632 2.19855 -3.14079 0 -2.66967 -1.57039 -2.66967 0.471118 -5.02526 -0.157039 -1.25632 -1.25632 -0.628158 0.785197 -3.29783 -1.72743 1.57039 2.98375 -2.51263 -1.09928 -2.51263 0.314079 -3.45487 -2.19855 -0.628158 0.628158 2.51263 2.51263 -5.49638 -1.25632 -2.66967 0.157039 -0.157039 1.41336 3.76895 0.157039 -1.41336 1.41336 -5.81046 0.471118 -0.471118 0.942237 4.24007 0.314079 -1.41336 1.72743 -3.76895 0.157039 -1.25632 2.04151 2.82671 -0.314079 -1.09928 2.66967 -3.29783 0.628158 -1.72743 2.04151 5.02526 -0.628158 -1.25632 1.72743 -4.71118 1.09928 -0.471118 2.04151 5.1823 -1.41336 -0.628158 1.72743 -4.55414 2.35559 0 1.88447 3.76895 -2.19855 0.471118 1.41336z"/>
  <polygon fill="#644D36" points="300.253,219.639 300.253,221.681 294.599,224.664 296.327,221.838 "/>
  <polygon fill="#644D36" points="295.856,227.648 300.41,224.979 300.567,227.177 301.509,225.45 301.195,223.565 299.624,223.879 296.484,226.078 "/>
 </g>
</svg>
