<?xml version="1.0" encoding="UTF-8" standalone="no"?>
<!-- Created with sK1/UniConvertor (http://sk1project.org/) -->

<svg
   xmlns:dc="http://purl.org/dc/elements/1.1/"
   xmlns:cc="http://creativecommons.org/ns#"
   xmlns:rdf="http://www.w3.org/1999/02/22-rdf-syntax-ns#"
   xmlns:svg="http://www.w3.org/2000/svg"
   xmlns="http://www.w3.org/2000/svg"
   xmlns:sodipodi="http://sodipodi.sourceforge.net/DTD/sodipodi-0.dtd"
   xmlns:inkscape="http://www.inkscape.org/namespaces/inkscape"
   width="499.99997"
   height="609.17969"
   viewBox="0 0 399.99999 487.34373"
   id="svg2"
   version="1.1"
   inkscape:version="0.48.0 r9654"
   sodipodi:docname="Inkoo.vaakuna.svg"
   style="fill-rule:evenodd">
  <metadata
     id="metadata48">
    <rdf:RDF>
      <cc:Work
         rdf:about="">
        <dc:format>image/svg+xml</dc:format>
        <dc:type
           rdf:resource="http://purl.org/dc/dcmitype/StillImage" />
        <dc:title />
      </cc:Work>
    </rdf:RDF>
  </metadata>
  <defs
     id="defs46" />
  <sodipodi:namedview
     pagecolor="#ffffff"
     bordercolor="#666666"
     borderopacity="1"
     objecttolerance="10"
     gridtolerance="10"
     guidetolerance="10"
     inkscape:pageopacity="0"
     inkscape:pageshadow="2"
     inkscape:window-width="1280"
     inkscape:window-height="738"
     id="namedview44"
     showgrid="false"
     inkscape:zoom="0.70710678"
     inkscape:cx="221.0507"
     inkscape:cy="351.73472"
     inkscape:window-x="-8"
     inkscape:window-y="-8"
     inkscape:window-maximized="1"
     inkscape:current-layer="svg2"
     fit-margin-top="0"
     fit-margin-left="0"
     fit-margin-right="0"
     fit-margin-bottom="0" />
  <path
     style="fill:#0057f0;fill-opacity:1;stroke:#0057f0;stroke-width:0.29476643000000002;stroke-opacity:1"
     d="M 199.78666,487.1677 C 285.92633,443.87868 333.64118,424.62748 372.41475,349.39285 407.68797,280.95098 385.82508,100.79103 399.79775,56.045409 333.4956,56.030204 274.9133,0.13957635 199.94744,0.13957635 124.9808,0.13957635 66.506792,56.030214 0.20450343,56.045409 14.177315,100.79103 -7.6861611,280.95178 27.586924,349.39285 66.360495,424.62748 113.64781,443.87868 199.78666,487.1677 z"
     id="path8"
     inkscape:connector-curvature="0" />
  <path
     style="fill:none;stroke:#ffffff;stroke-width:1.58720207"
     d="m 6.1821428,210.53335 c 9.0851162,0.0216 17.1463502,-6.14882 30.1355332,-6.11763 12.98926,0.0312 32.554264,14.4782 50.679044,14.52138 18.12414,0.044 38.80715,-14.3046 58.06877,-14.25662 19.2624,0.048 35.83953,14.4878 58.03276,14.54139 22.19325,0.0544 36.79582,-14.27103 59.85616,-14.21503 23.06032,0.0552 38.3874,14.50779 55.82364,14.5494 17.43542,0.0416 41.36245,-14.32062 50.61249,-14.29823"
     id="path10"
     inkscape:connector-curvature="0"
     sodipodi:nodetypes="cscsccsc" />
  <path
     style="fill:#cca452;fill-opacity:1;stroke:none"
     d="m 393.82009,211.47484 c 1.41182,-65.0047 -1.6638,-130.313353 5.97766,-155.429431 C 333.4956,56.030204 274.9133,0.13957635 199.94744,0.13957635 124.9808,0.13957635 66.506792,56.030214 0.20450343,56.045409 7.8457593,80.515961 4.7699828,145.48466 6.1821428,210.53335 c 9.0851162,0.0216 14.2667112,-5.72488 27.2558922,-5.69289 12.989262,0.0312 32.554262,14.4774 50.679044,14.52139 18.124151,0.044 38.807161,-14.30461 58.068761,-14.25662 19.26239,0.0472 35.83953,14.48699 58.03278,14.54139 22.19323,0.0536 36.7958,-14.27101 59.85614,-14.21583 23.06032,0.056 38.38742,14.50779 55.82364,14.5494 17.43542,0.0424 41.36245,-14.31983 50.61249,-14.29824 9.25085,0.0224 22.68818,3.89312 27.3092,5.79289 z"
     id="path12"
     inkscape:connector-curvature="0"
     sodipodi:nodetypes="ccscccscccccc" />
  <path
     style="fill:#ffffff;stroke:none"
     d="m 196.92302,184.76057 c -43.28339,0 -78.38463,-35.10122 -78.38463,-78.38385 0,-43.283385 35.10124,-78.384615 78.38463,-78.384615 43.28262,0 78.38384,35.10123 78.38384,78.384615 0,43.28263 -35.10122,78.38385 -78.38384,78.38385 z m 42.87386,-89.670424 -34.94205,0 0,-28.332469 c 20.61665,-33.986967 59.64457,11.80733 34.94205,28.332469 z m -87.49229,0 34.94204,0 0,-28.332469 C 166.62999,32.77071 127.60206,78.565007 152.30459,95.090146 z m 0,19.904714 34.94204,0 0,28.33247 C 166.62999,177.3151 127.60206,131.52 152.30459,114.99486 z m 87.49229,0 -34.94205,0 0,28.33247 C 225.47148,177.3151 264.4994,131.52 239.79688,114.99486 z"
     id="path14"
     inkscape:connector-curvature="0" />
  <path
     style="fill:#73603d;stroke:#73603d;stroke-width:0.79360187"
     d="m 199.84986,187.6874 c -43.2834,0 -78.38464,-35.10123 -78.38464,-78.38383 0,-43.283399 35.10124,-78.384629 78.38464,-78.384629 43.28261,0 78.38383,35.10123 78.38383,78.384629 0,43.2826 -35.10122,78.38383 -78.38383,78.38383 z m 42.87386,-89.670418 -34.94206,0 0,-28.332467 c 20.61664,-33.987769 59.64458,11.807328 34.94206,28.332467 z m -87.49309,0 34.94283,0 0,-28.332467 C 169.55604,35.696746 130.52889,81.491843 155.23063,98.016982 z m 0,19.904718 34.94283,0 0,28.33247 c -20.61742,33.98697 -59.64457,-11.80734 -34.94283,-28.33247 z m 87.49309,0 -34.94206,0 0,28.33247 c 20.61664,33.98697 59.64458,-11.80734 34.94206,-28.33247 z"
     id="path16"
     inkscape:connector-curvature="0" />
  <path
     style="fill:#f00000;fill-opacity:1;stroke:none"
     d="m 198.38605,186.22359 c -43.28261,0 -78.38384,-35.10043 -78.38384,-78.38384 0,-43.282597 35.10123,-78.383827 78.38384,-78.383827 43.28339,0 78.38381,35.10123 78.38381,78.383827 0,43.28341 -35.10042,78.38384 -78.38381,78.38384 z m 42.87464,-89.669625 -34.94203,0 0,-28.33327 c 20.61662,-33.986966 59.64457,11.807329 34.94203,28.33327 z m -87.49309,0 34.94204,0 0,-28.33327 C 168.09302,34.233729 129.06508,80.028024 153.7676,96.553965 z m 0,19.903905 34.94204,0 0,28.33327 c -20.61662,33.98697 -59.64456,-11.80732 -34.94204,-28.33327 z m 87.49309,0 -34.94203,0 0,28.33327 c 20.61662,33.98697 59.64457,-11.80732 34.94203,-28.33327 z"
     id="path18"
     inkscape:connector-curvature="0" />
  <path
     style="fill:#ffffff;stroke:none"
     d="m 126.87015,375.5952 c -4.721,28.32446 14.16223,39.65426 14.16223,58.06556 5.66489,-6.60878 8.18298,-15.10612 7.55347,-25.49203 8.65493,-2.67567 18.09614,-5.82247 24.0762,-13.6903 -19.51356,6.21844 -32.73193,-3.22358 -45.7919,-18.88323 z"
     id="path20"
     inkscape:connector-curvature="0" />
  <path
     style="fill:#5f5233;stroke:none"
     d="m 127.3421,377.9557 c -4.72102,28.32446 14.16223,39.65426 14.16223,58.06556 5.66489,-6.60877 8.18297,-15.10691 7.55346,-25.49203 8.65492,-2.67566 18.09615,-5.82247 24.07621,-13.69028 -19.51358,6.21842 -32.73193,-3.2236 -45.7919,-18.88325 z"
     id="path22"
     inkscape:connector-curvature="0" />
  <path
     style="fill:#cca452;fill-opacity:1;stroke:none"
     d="m 127.3421,376.53907 c -4.72102,28.32527 14.16223,39.65507 14.16223,58.06557 5.66489,-6.60877 8.18297,-15.10611 7.55346,-25.49203 8.65492,-2.67486 18.09615,-5.82248 24.07621,-13.69029 -19.51358,6.21842 -32.73193,-3.22359 -45.7919,-18.88325 z"
     id="path24"
     inkscape:connector-curvature="0" />
  <path
     style="fill:#ffffff;stroke:none"
     d="m 246.52163,246.35209 c 30.79698,-0.21436 23.22672,17.06507 54.37803,14.70617 -6.75275,5.49292 -12.47924,13.45672 -24.26177,10.19952 -2.42449,8.58374 -3.45317,17.94098 -12.8888,23.71626 -0.36474,-24.30498 -7.41827,-39.01994 -17.22746,-48.62195 z"
     id="path26"
     inkscape:connector-curvature="0" />
  <path
     style="fill:#5f5233;stroke:none"
     d="m 248.4102,249.65648 c 30.79698,-0.21438 23.22672,16.59313 54.37804,14.23423 -6.75276,5.49292 -12.48005,13.45672 -24.26179,10.19953 -2.4253,8.58372 -3.45396,17.94097 -12.88879,23.71624 -0.36556,-24.30497 -7.41827,-38.548 -17.22746,-48.15 z"
     id="path28"
     inkscape:connector-curvature="0" />
  <path
     style="fill:#cca452;fill-opacity:1;stroke:none"
     d="m 247.93747,247.76791 c 30.79776,-0.21436 23.2275,17.06587 54.37802,14.70618 -6.75195,5.49372 -12.47925,13.45671 -24.26177,10.20031 -2.4245,8.58294 -3.45318,17.94099 -12.88801,23.71626 -0.36553,-24.30577 -7.41827,-39.02073 -17.22824,-48.62275 z"
     id="path30"
     inkscape:connector-curvature="0" />
  <path
     style="fill:#ffffff;stroke:none"
     d="m 291.93919,403.82047 c -3.38118,-1.33424 -2.90844,-16.60913 -8e-4,-23.16672 31.33689,-57.32965 13.36154,-101.73292 -30.30902,-124.85243 60.28848,58.22635 29.48273,125.42916 -8.01581,105.51805 L 142.4698,259.66803 c 0.59994,-1.92855 0.9231,-4.45143 0.9231,-6.57758 0,-11.33938 -9.19567,-20.53583 -20.53505,-20.53583 -11.34018,0 -20.53583,9.19645 -20.53583,20.53583 0,11.33938 9.19645,20.53505 20.53583,20.53505 2.83404,0 6.4792,-0.10239 8.93648,-1.14146 l 114.0402,105.9436 c 29.22117,35.43398 -75.11864,66.96364 -114.71531,8.49734 11.76173,43.86414 90.36315,55.58827 142.56783,22.65958 4.24828,-1.57341 8.49735,-1.88777 12.74642,-0.9439 l 5.50572,-4.82019 z M 123.32979,239.16419 c 7.42868,0 13.45432,6.02484 13.45432,13.45433 0,7.42867 -6.02564,13.45431 -13.45432,13.45431 -7.42946,0 -13.45432,-6.02564 -13.45432,-13.45431 0,-7.42949 6.02486,-13.45433 13.45432,-13.45433 z"
     id="path32"
     inkscape:connector-curvature="0" />
  <path
     style="fill:#5f5233;stroke:none"
     d="m 291.46725,409.53256 c -3.38119,-1.33423 -2.90924,-16.60913 -8e-4,-23.16671 31.33689,-57.32966 13.83348,-104.56537 -28.8932,-128.15683 57.92797,56.80973 29.95547,128.26161 -7.54388,110.711 L 141.99707,265.38013 c 0.60073,-1.92856 0.92388,-4.45146 0.92388,-6.57759 0,-11.33938 -9.19645,-20.53584 -20.53585,-20.53584 -11.33938,0 -20.53502,9.19646 -20.53502,20.53584 0,11.33939 9.19644,20.53504 20.53502,20.53504 2.83485,0 6.48,-0.10238 8.9373,-1.14145 l 114.03938,105.94359 c 29.22197,35.43399 -74.64589,66.49091 -114.24256,7.08072 11.76173,43.86495 89.8904,57.00489 142.0959,24.0762 4.24828,-1.57341 8.49735,-1.88777 12.74562,-0.94388 l 5.50651,-4.8202 z M 122.85785,244.87629 c 7.42867,0 13.45353,6.02484 13.45353,13.4543 0,7.42868 -6.02486,13.45434 -13.45353,13.45434 -7.42947,0 -13.45431,-6.02566 -13.45431,-13.45434 0,-7.42946 6.02484,-13.4543 13.45431,-13.4543 z"
     id="path34"
     inkscape:connector-curvature="0" />
  <path
     style="fill:#cca351;fill-opacity:1;stroke:none"
     d="m 290.9953,405.23709 c -3.38117,-1.33424 -2.90924,-16.60993 -8e-4,-23.16671 31.33609,-57.33046 12.41686,-102.6776 -30.30982,-126.26906 62.17706,57.28166 31.3713,126.37385 -6.12723,108.82244 L 141.52512,261.08465 c 0.60073,-1.92935 0.92388,-4.45223 0.92388,-6.57838 0,-11.33938 -9.19644,-20.53502 -20.53583,-20.53502 -11.33938,0 -20.53504,9.19564 -20.53504,20.53502 0,11.33939 9.19646,20.53585 20.53504,20.53585 2.83485,0 6.47999,-0.10319 8.93649,-1.14226 l 114.04019,105.94361 c 29.22196,35.43397 -75.11785,66.96364 -114.71531,7.55344 11.76253,43.86415 90.36313,56.53217 142.56863,23.60427 4.24828,-1.5734 8.49735,-1.88857 12.74562,-0.94469 l 5.50651,-4.8194 z M 122.3851,240.58001 c 7.42949,0 13.45434,6.02485 13.45434,13.45433 0,7.42948 -6.02485,13.45432 -13.45434,13.45432 -7.42867,0 -13.45431,-6.02484 -13.45431,-13.45432 0,-7.42948 6.02564,-13.45433 13.45431,-13.45433 z"
     id="path36"
     inkscape:connector-curvature="0" />
  <path
     style="fill:#ffffff;stroke:none"
     d="m 95.240499,322.72178 2.360506,3.30519 c 36.488255,-25.92476 67.999525,-56.37378 90.639905,-94.88818 l -3.3052,-2.36052 c -40.99249,28.60046 -61.44913,52.75505 -89.695211,93.94351 z"
     id="path38"
     inkscape:connector-curvature="0" />
  <path
     style="fill:#5f5233;stroke:none"
     d="m 99.489569,323.66645 2.360511,3.3044 c 36.48825,-25.92477 67.99952,-56.37378 90.6391,-94.88819 l -3.3044,-2.36049 C 148.19229,258.3226 127.73486,282.478 99.489569,323.66645 z"
     id="path40"
     inkscape:connector-curvature="0" />
  <path
     style="fill:#cca452;fill-opacity:1;stroke:none"
     d="m 98.072945,321.7779 2.360505,3.30438 c 36.48825,-25.92397 67.99952,-56.37296 90.63991,-94.88819 l -3.3052,-2.3597 c -40.99249,28.59964 -61.44913,52.75504 -89.695215,93.94351 z"
     id="path42"
     inkscape:connector-curvature="0" />
</svg>
