<?xml version="1.0" encoding="UTF-8"?>
<!DOCTYPE svg PUBLIC "-//W3C//DTD SVG 1.1//EN" "http://www.w3.org/Graphics/SVG/1.1/DTD/svg11.dtd">
<!-- Creator: CorelDRAW -->
<svg xmlns="http://www.w3.org/2000/svg" xml:space="preserve" width="500px" height="591px" shape-rendering="geometricPrecision" text-rendering="geometricPrecision" image-rendering="optimizeQuality" fill-rule="evenodd" clip-rule="evenodd"
viewBox="0 0 500 591"
 xmlns:xlink="http://www.w3.org/1999/xlink"
 xmlns:svg="http://www.w3.org/2000/svg"
 version="1.0">
 <g id="Layer_x0020_1">
  <metadata id="CorelCorpID_0Corel-Layer"/>
  <path id="path1937" fill="#BF9F4F" stroke="#BF9F4F" stroke-width="1.98425" d="M1.224 1.49499l497.584 -0.000566929 -19.9296 374.683c-4.99522,285.583 -454.438,285.319 -466.445,0.0428032l-11.2096 -374.725z"/>
  <path id="path1937_0" fill="#F00000" stroke="#F00000" stroke-width="1.98425" d="M491.514 138.618l-12.6357 237.56c-4.99522,285.583 -454.438,285.319 -466.445,0.0428032l-7.10561 -237.551 17.983 -0.00170079 0.000283465 46.7309 47.168 0 0.162709 -46.7357 51.6898 -0.00510236 0 46.7405 47.6603 0.000283465 0.293386 -46.7456 54.8042 -0.00595276 -0.000566929 46.7516 44.2486 0 -0.0320315 -46.7564 57.2953 -0.00595276 -0.000283465 46.762 47.0067 0.000283465 -0.298772 -46.7674 53.5584 -0.00566929 -0.000283465 46.7728 43.8032 0 -0.208913 -46.7776 21.0532 -0.00283465z"/>
  <path fill="white" d="M55.0724 54.6163l47.9534 0c-9.54936,-9.96407 -25.1189,-16.1918 -33.6297,-29.8931l32.3841 -1.86832c13.9065,18.9958 33.0041,35.3957 63.5227,46.0851 -27.2999,12.1431 -49.9281,26.8812 -62.2772,47.3307l-42.3485 0c10.5871,-11.8327 31.1386,-21.797 48.5762,-33.6297l-54.1812 0.622772 0 -28.6475z"/>
  <path fill="black" d="M56.3179 55.8618l47.9534 0c-9.54936,-9.96407 -25.1189,-16.1918 -33.6297,-29.8931l32.3841 -1.86832c13.9065,18.9958 33.0041,35.3957 63.5227,46.0851 -27.2999,12.1431 -49.9281,26.8812 -62.2772,47.3307l-42.3485 0c10.5871,-11.8327 31.1386,-21.797 48.5762,-33.6297l-54.1812 0.622772 0 -28.6475z"/>
  <path fill="white" d="M444.372 54.6163l-47.9534 0c9.54936,-9.96407 25.1189,-16.1918 33.6297,-29.8931l-32.3841 -1.86832c-13.9065,18.9958 -33.0041,35.3957 -63.5227,46.0851 27.2999,12.1431 49.9281,26.8812 62.2772,47.3307l42.3485 0c-10.5871,-11.8327 -31.1386,-21.797 -48.5762,-33.6297l54.1812 0.622772 0 -28.6475z"/>
  <path fill="black" stroke="black" stroke-width="0.992126" d="M445.617 55.8618l-47.9534 0c9.54936,-9.96407 25.1189,-16.1918 33.6297,-29.8931l-32.3841 -1.86832c-13.9065,18.9958 -33.0041,35.3957 -63.5227,46.0851 27.2999,12.1431 49.9281,26.8812 62.2772,47.3307l42.3485 0c-10.5871,-11.8327 -31.1386,-21.797 -48.5762,-33.6297l54.1812 0.622772 0 -28.6475z"/>
  <path fill="white" d="M258.096 82.9905c13.2857,-1.03833 28.6475,3.38655 44.2171,13.3515l0 -45.4624c-10.5871,6.43437 -25.3264,11.2088 -44.2168,14.3238 -0.622772,-16.6076 4.56662,-32.3847 15.5693,-47.3307l-50.4445 0c7.68076,12.8701 12.0399,28.232 13.0782,46.0851 -13.9085,1.6611 -26.1564,-3.38655 -41.726,-13.3515l0 44.8396c10.5871,-6.43437 24.0809,-11.2088 43.594,-13.701 0.622772,16.6076 -5.18939,27.4025 -16.1921,42.3485l47.3307 0.622772c-7.68076,-12.8701 -10.1716,-23.8725 -11.2099,-41.7257z"/>
  <path fill="black" d="M259.341 84.2361c13.2857,-1.03833 28.6475,3.38655 44.2171,13.3515l0 -45.4624c-10.5871,6.43437 -25.3264,11.2088 -44.2168,14.3238 -0.622772,-16.6076 4.56662,-32.3847 15.5693,-47.3307l-50.4445 0c7.68076,12.8701 12.0399,28.232 13.0782,46.0851 -13.9085,1.6611 -26.1564,-3.38655 -41.726,-13.3515l0 44.8396c10.5871,-6.43437 24.0809,-11.2088 43.594,-13.701 0.622772,16.6076 -5.18939,27.4025 -16.1921,42.3485l47.3307 0.622772c-7.68076,-12.8701 -10.1716,-23.8725 -11.2099,-41.7257z"/>
  <path fill="#BF9F4F" stroke="#4F2900" stroke-width="5.66929" d="M225.712 509.863l-14.6605 23.0426c-23.5094,-11.937 -42.9185,-22.1094 -54.8039,-37.3663 -13.7001,13.5995 -31.1377,16.2978 -46.7079,11.8327 22.8351,-38.4041 -9.75657,-57.5025 -1.24554,-78.4693l-16.8148 -3.11386 16.1921 -16.8148c-10.5911,-9.76451 -14.5332,-13.913 -16.8148,-23.6653 24.9642,-2.5441 35.4478,-11.1586 45.4624,-33.6297 -6.64838,-9.33988 -10.8057,-20.3406 -12.4719,-33.0024 -18.4493,-19.6608 -22.1925,-35.6224 -17.4212,-73.4916l21.1742 -19.3059c20.5189,24.7334 49.4853,16.9844 77.2237,56.6722 29.6331,-13.3373 50.2101,-12.1958 82.5427,0 29.2958,-38.1314 63.4519,-24.5696 82.2059,-51.0673l18.6832 7.47326c5.30136,38.9274 2.81651,69.8604 -16.7984,87.1926 -3.94214,8.09887 -8.30977,14.7382 -12.4719,22.4153 12.922,29.0115 29.2181,43.854 50.4445,37.9891 -1.24554,10.1721 -7.47326,19.5137 -18.6832,28.0247l11.2099 14.9465 -14.3238 7.47326c0.414992,14.1163 -17.2301,43.8018 -0.622772,72.2415 -15.5701,4.46514 -33.0078,1.76684 -46.7079,-11.8327 -11.8854,15.2569 -30.6717,28.5432 -54.1812,40.4802l-18.0604 -28.0247c-14.9993,6.6943 -29.0115,6.59084 -42.3485,0z"/>
  <path fill="#4F2900" d="M221.988 480.815c11.2295,33.8735 44.7911,34.7037 49.7991,-1.55622l8.40359 -2.48995c-2.07439,19.5069 -10.904,29.8106 -20.5532,33.3363l12.1496 0.589323c10.0636,-9.23358 15.1472,-25.937 15.251,-50.1103l3.42369 -4.97991c6.74363,-2.07496 9.75232,-6.63988 9.02608,-13.6947 4.87644,-2.64529 6.3292,-7.003 6.22489,-12.1385 3.52743,0.829985 5.3949,-1.24498 5.6024,-6.22489l26.767 -8.09235 0.933733 7.46986 4.97991 -3.73493c-3.03506,-30.1385 -16.1586,-55.4534 -32.6806,-59.1364 -12.4506,3.9172 -26.2488,7.49622 -42.018,10.5823 -6.74334,0.678048 -10.7895,-5.65229 -13.3835,-14.9397l-2.17871 0.311244c5.80933,15.4602 5.80904,20.9594 16.1847,19.2971l-7.46986 34.8594c-11.4123,-4.97991 -22.8246,-4.97991 -34.2369,0 -3.7372,-9.54454 -4.39144,-21.8903 -5.21745,-32.6806 10.3757,1.66224 16.6003,-5.70444 22.4096,-21.1646l-2.17871 -0.311244c-2.59399,9.28744 -9.13011,15.6178 -15.8735,14.9397 -15.7691,-3.08608 -30.1898,-9.77755 -42.6405,-13.6947 -20.3332,8.24599 -34.8766,39.7749 -36.4156,68.785l4.35742 -0.933733c-0.207496,-4.14992 0.829985,-8.29985 3.11244,-12.4498 7.78139,1.19282 17.5337,5.34274 28.6345,11.516 0.207496,4.97991 -1.34873,6.74363 2.8012,8.09235 -0.104315,5.13553 -0.830268,8.5595 4.04618,11.2048 0.51874,6.22489 3.21619,7.36611 8.71484,10.2711l3.11244 7.78111c-0.648284,27.182 10.5049,42.9514 21.4759,48.5541l11.8273 1.24498c-9.20637,-3.30406 -24.609,-12.5104 -28.012,-32.6806l13.621 2.17871z"/>
  <path fill="#BF9F4F" d="M246.554 442.221c9.62249,5.75774 24.325,8.55893 41.4176,9.33733 13.339,-20.6734 15.2399,-36.1854 1.50066,-39.8441 -3.28734,-1.55395 -4.08416,-3.93818 -2.39074,-7.15267l2.13506 -3.73606 2.17871 0 -1.24498 7.15862c5.1874,-1.03748 10.3748,3.73493 15.5622,14.3172 4.97991,-5.1874 15.3547,-9.54482 31.1244,-13.0723 -2.28246,-20.5421 -9.12983,-34.4444 -20.5421,-41.7067 -28.427,39.8393 -29.4645,14.3172 -44.1967,21.4759l-8.71484 33.9256c-0.933733,9.02608 -10.5823,0.311244 -12.1385,14.9397 -3.40895,2.48995 -6.60303,2.48995 -10.8714,0 -0.579118,-16.8939 -12.0915,-5.05758 -14.0372,-14.9397l-5.91364 -39.8393c-4.54933,3.08154 -8.29389,1.19679 -12.4002,3.1612 -11.3811,5.44536 -24.0457,6.83178 -27.4391,-20.5909 -11.4123,7.26237 -21.3721,21.7871 -23.6546,42.3292 14.4193,3.52772 22.3039,7.26265 29.257,12.4498 5.1874,-10.5823 9.75232,-13.7985 14.9397,-12.761l-0.311244 -9.64857 4.04618 0.311244 0.267591 7.15975c1.69342,3.21449 0.27411,4.04249 -3.01323,5.59644 -17.1927,0.205228 -15.135,25.8341 3.99062,41.4003 17.0926,-0.778394 30.8262,-4.51333 40.4487,-10.2711z"/>
  <path fill="white" d="M178.725 290.956c-8.09235,7.05487 -19.2971,13.7985 -24.2771,21.1646 8.61109,-4.46117 17.2222,-12.6573 24.8995,-18.9859l-0.622489 -2.17871z"/>
  <path fill="#4F2900" d="M131.362 241.448c5.34586,12.3766 27.1429,16.6842 48.8877,47.9532 -12.1105,12.56 -25.2981,25.5226 -30.5158,35.498 -3.00898,-9.34186 -0.415276,-19.9287 -0.622772,-29.8931l-5.60495 4.3594c0.415559,12.2477 -3.00784,23.3544 4.35912,38.3003 6.64441,-18.8382 23.7699,-32.5403 43.5943,-47.6425 -11.107,-25.8446 -36.536,-33.0063 -52.9356,-47.9529l-7.16202 -0.622489z"/>
  <path fill="#4F2900" d="M130.482 337.02c-3.38797,-9.7869 -4.67717,-23.8502 2.48995,-44.1967l-2.48995 0c-8.71484,12.6573 -8.71484,27.3895 0,44.1967z"/>
  <path fill="black" stroke="black" stroke-width="0.992126" d="M104.026 244.892c-24.9253,-13.5646 -39.5017,-27.6225 -46.9979,-42.018 -1.14123,-3.52743 9.85607,-3.94243 14.3172,-1.24498 2.17871,3.63118 6.01739,7.9886 11.516,14.9397 0.829985,1.14123 3.83868,0.414992 3.42369,-0.311244 -5.03207,-4.56463 -8.35172,-9.12955 -10.8935,-13.6947 -0.846142,-3.74684 4.14029,-3.11953 9.95982,-1.86747 2.27537,5.08252 5.17578,10.2696 12.4498,16.1847l-7.15862 -14.3172c2.8012,-3.00869 6.43238,-3.52743 10.8935,-1.55622 0.617103,4.15531 2.99537,9.66076 10.2711,17.1184 -3.42369,-5.70614 -5.1874,-10.5823 -5.29115,-14.6285 1.03635,-4.15077 5.4978,-3.73521 11.516,-1.24498 2.77427,14.1883 11.9557,24.9268 25.522,33.3031 -3.11103,2.38989 -6.32722,4.46769 -10.2711,4.35742 -5.1874,-3.52743 -8.71484,-6.22489 -10.5823,-8.09235 -2.69745,6.22489 -6.63988,11.2048 -11.8273,14.9397l-6.84737 -1.86747z"/>
  <path fill="black" d="M365.783 232.442c10.012,-7.91037 18,-17.5071 23.0321,-29.5682 1.55622,-1.76372 4.77241,-1.86747 9.64857,-0.311244 -0.436252,3.83896 -3.08495,7.67764 -5.29115,11.516l2.17871 0c3.94243,-3.42369 7.46986,-7.26237 10.5823,-11.516 2.69745,-1.03748 5.80989,-0.829985 9.33733,0.622489l-5.29115 9.02608 3.73493 0.311244 7.15862 -9.33733c4.35912,-0.0975119 5.91449,0.107717 5.29115,2.48995l-6.53613 7.15862 3.42369 0.933733 11.516 -9.95982c3.21619,-0.314929 6.43181,-0.316914 9.64857,1.86747 -13.7979,21.5822 -36.0003,28.6362 -54.4677,34.8594 -6.32863,-1.86747 -10.1673,-4.14992 -11.516,-6.84737 -4.56492,0 -8.71484,-0.414992 -12.4498,-1.24498z"/>
  <path fill="#4F2900" d="M371.385 236.177c1.65997,10.9973 -36.2081,26.352 -53.8453,53.534 0.207496,7.15862 11.931,15.5622 25.8333,40.1505 4.77241,-7.05487 6.63988,-16.5997 5.6024,-28.6345l2.8012 -1.86747c3.73493,11.4123 1.24498,24.8995 -7.46986,40.4618 -11.8789,-22.4875 -24.7436,-39.5541 -38.283,-52.9115l17.4297 -16.8072 6.22489 -1.55622c10.1673,-11.4123 30.2944,-20.6459 41.7067,-32.3694z"/>
  <path fill="#4F2900" d="M366.405 300.293l2.8012 0.311244 -0.622489 -0.311244 1.86747 24.2771 -12.4498 20.5421c6.66624,-14.1602 9.20807,-28.1659 8.40359,-44.8192z"/>
  <path fill="#4F2900" d="M151.958 439.731c15.4244,-4.87701 30.8064,-13.5808 44.5079,-13.0723l-1.86747 2.8012c-14.4471,2.77512 -28.4012,8.01468 -42.018,14.9397 -6.95112,1.14123 -6.95112,-0.933733 -0.622489,-4.66866z"/>
  <path fill="#4F2900" d="M159.117 445.644c15.8913,-5.81074 29.9242,-13.9958 43.263,-12.761l-0.622489 1.55622c-14.1214,2.44914 -30.6975,9.06605 -44.8192,16.4959 -6.95112,1.14123 -3.52743,-2.48995 2.17871,-5.29115z"/>
  <path fill="#4F2900" d="M160.673 458.716c10.7583,-4.34353 29.1342,-16.0671 43.263,-15.8735l-1.55622 0.933733c-14.9275,2.64926 -29.5353,13.2112 -40.773,19.9196 -8.54193,2.73232 -7.00696,-1.81162 -0.933733,-4.97991z"/>
  <path fill="#4F2900" d="M340.113 442.221c-10.5999,-10.4012 -34.4886,-19.3638 -47.3091,-19.2971l1.86747 2.8012c13.9411,0.748063 29.6331,11.3842 43.5742,19.6084 4.49008,5.82747 6.54208,3.43417 1.86747,-3.11244z"/>
  <path fill="#4F2900" d="M333.266 455.604c-5.01109,-3.90841 -16.8866,-14.3439 -40.4618,-20.2309l0.622489 1.55622c20.2964,4.9921 33.0344,19.1815 39.2168,23.3433 4.22759,6.69487 10.8159,4.09692 0.622489,-4.66866z"/>
  <path fill="#4F2900" d="M324.24 469.921c-4.8447,-5.89975 -18.8632,-17.6233 -38.5943,-25.8333l-1.55622 0.622489c28.052,16.3718 35.3393,25.4308 38.9055,29.5682 5.9383,7.41912 5.75632,1.62284 1.24498,-4.35742z"/>
  <circle fill="#4F2900" cx="282.992" cy="419.811" r="1.86747"/>
  <circle fill="#4F2900" cx="273.966" cy="434.128" r="1.86747"/>
  <circle fill="#4F2900" cx="284.859" cy="428.526" r="1.86747"/>
  <circle fill="#4F2900" cx="272.721" cy="445.644" r="1.86747"/>
  <circle fill="#4F2900" cx="260.271" cy="438.486" r="1.86747"/>
  <circle fill="#4F2900" cx="230.392" cy="438.486" r="1.86747"/>
  <circle fill="#4F2900" cx="210.783" cy="429.46" r="1.86747"/>
  <circle fill="#4F2900" cx="203.313" cy="419.5" r="1.86747"/>
  <circle fill="#4F2900" cx="217.631" cy="442.843" r="1.86747"/>
  <path fill="white" d="M197.711 425.725c-7.039,-1.32633 -17.6485,1.89128 -29.257,6.38051 11.9313,-6.66681 22.3061,-10.0908 29.257,-6.38051z"/>
  <circle fill="#4F2900" cx="221.366" cy="431.949" r="2.8012"/>
  <ellipse fill="#4F2900" cx="271.476" cy="426.036" rx="1.24498" ry="0.933733"/>
  <ellipse fill="#4F2900" cx="284.548" cy="439.419" rx="1.24498" ry="0.933733"/>
  <ellipse fill="#4F2900" cx="217.942" cy="419.811" rx="3.42369" ry="2.48995"/>
  <path fill="#BF9F4F" d="M272.721 456.227l0 19.6084 2.17871 -0.311244c4.14992,-4.56492 7.88485,-11.2048 11.2048,-19.9196l-13.3835 0.622489z"/>
  <path fill="#BF9F4F" d="M273.966 385.263l0 -9.33733 9.02608 -3.73493c1.24498,4.25367 3.31994,8.09235 6.22489,11.516 -0.414992,3.00869 -10.7898,-3.63118 -15.251,1.55622z"/>
  <path fill="#BF9F4F" d="M301.667 380.283c3.31994,-3.73493 6.53613,-8.29985 9.02608,-13.6947 -3.83868,1.14123 -6.84737,2.69745 -9.02608,4.66866 1.43206,1.01707 0.33874,5.35351 0,9.02608z"/>
  <path fill="#BF9F4F" d="M220.132 476.813c-0.103748,-5.3949 -1.77477,-12.7015 -0.944788,-18.0964l-10.2711 0.311244c1.63361,6.71216 4.09408,15.0766 11.2158,17.7851z"/>
  <path fill="#BF9F4F" d="M203.625 383.395l7.15862 -10.8935 7.78111 3.73493c-3.73493,7.10674 -6.08174,3.75421 -8.01468,4.2018 -2.02252,0.468284 -3.19011,4.56492 -6.92504,2.95682z"/>
  <path fill="#BF9F4F" d="M182.771 365.032c3.31994,9.4938 6.63988,16.6521 9.95982,18.6747 -1.76372,-5.91364 -2.69745,-12.2423 -2.8012,-18.9859 -3.63118,-1.55622 -6.01739,-1.45247 -7.15862,0.311244z"/>
  <path fill="#BF9F4F" d="M198.956 365.966c-0.207496,2.8012 0.414992,5.6024 1.86747,8.40359 -0.829985,-3.11244 -0.829985,-5.80989 0,-8.09235l-1.86747 -0.311244z"/>
  <path fill="#0057F0" d="M268.363 456.538c5.29115,71.7937 -46.4791,51.874 -45.1304,2.8012 14.002,-2.03244 19.6005,2.78249 23.3317,2.30627 3.53112,-0.146268 3.01635,-4.64996 21.7987,-5.10747z"/>
  <path fill="white" d="M267.888 479.283c-2.9744,20.4432 -13.2318,26.7735 -23.169,23.307 9.74863,-4.73103 18.4062,-11.0976 23.169,-23.307z"/>
  <path fill="white" d="M210.472 463.696l5.59134 9.11452c-1.55254,-1.25547 -2.78362,-1.32803 -4.65761,-5.69084l-0.933733 -3.42369z"/>
  <path fill="white" d="M209.538 481.749c3.06964,5.41701 6.9687,12.996 11.8715,17.496 -3.68136,0.396567 -7.03758,-3.94016 -8.13657,-7.84744 -2.28671,-3.7372 -3.11499,-6.74533 -3.73493,-9.64857z"/>
  <path fill="white" d="M277.701 485.172c-2.56422,6.75837 -5.98791,13.087 -10.2711,18.9859 5.91364,-4.25367 10.5823,-10.8935 10.2711,-18.9859z"/>
  <path fill="white" d="M272.865 475.991c2.81736,-0.669544 3.91323,-2.30797 3.29017,-2.97893l-3.29017 -0.911623 0 3.89055z"/>
  <ellipse fill="white" cx="204.403" cy="415.687" rx="1.55622" ry="0.544536"/>
  <ellipse fill="white" cx="217.786" cy="415.376" rx="1.55622" ry="0.544536"/>
  <ellipse fill="white" cx="220.432" cy="427.67" rx="1.55622" ry="0.544536"/>
  <ellipse fill="white" cx="227.902" cy="435.303" rx="1.08935" ry="0.381175"/>
  <ellipse fill="white" cx="217.164" cy="439.497" rx="1.55622" ry="0.544536"/>
  <ellipse fill="white" cx="210.005" cy="426.121" rx="1.08935" ry="0.381175"/>
  <ellipse fill="white" cx="282.836" cy="441.676" rx="1.55622" ry="0.544536"/>
  <path fill="white" d="M189.307 412.341c3.2417,-3.74797 6.82101,-6.98996 10.8935,-9.49295l-0.311244 3.26806c-2.74706,-0.00765355 -6.58687,2.90069 -10.5823,6.22489z"/>
  <path fill="white" d="M286.416 446.889c-4.72054,4.97934 -14.836,1.71128 -16.8072,-1.4006 -1.79603,7.39815 20.2632,5.88076 16.8072,1.4006z"/>
  <path fill="white" d="M330.301 386.352l-7.31424 -11.3604c3.47528,2.33405 5.91336,6.12085 7.31424,11.3604z"/>
  <ellipse fill="white" cx="200.745" cy="370.868" rx="0.388914" ry="1.16702"/>
 </g>
</svg>
