<?xml version="1.0" encoding="UTF-8" standalone="no"?>
<!-- Creator: CorelDRAW -->

<svg
   xmlns:dc="http://purl.org/dc/elements/1.1/"
   xmlns:cc="http://creativecommons.org/ns#"
   xmlns:rdf="http://www.w3.org/1999/02/22-rdf-syntax-ns#"
   xmlns:svg="http://www.w3.org/2000/svg"
   xmlns="http://www.w3.org/2000/svg"
   xmlns:sodipodi="http://sodipodi.sourceforge.net/DTD/sodipodi-0.dtd"
   xmlns:inkscape="http://www.inkscape.org/namespaces/inkscape"
   xml:space="preserve"
   width="500"
   height="602"
   style="fill-rule:evenodd"
   viewBox="0 0 500 634.508"
   version="1.0"
   id="svg2"
   inkscape:version="0.48.0 r9654"
   sodipodi:docname="Jokioinen.vaakuna.svg"><metadata
   id="metadata486"><rdf:RDF><cc:Work
       rdf:about=""><dc:format>image/svg+xml</dc:format><dc:type
         rdf:resource="http://purl.org/dc/dcmitype/StillImage" /></cc:Work></rdf:RDF></metadata><sodipodi:namedview
   pagecolor="#ffffff"
   bordercolor="#666666"
   borderopacity="1"
   objecttolerance="10"
   gridtolerance="10"
   guidetolerance="10"
   inkscape:pageopacity="0"
   inkscape:pageshadow="2"
   inkscape:window-width="1280"
   inkscape:window-height="738"
   id="namedview484"
   showgrid="false"
   fit-margin-top="0"
   fit-margin-left="0"
   fit-margin-right="0"
   fit-margin-bottom="0"
   inkscape:zoom="0.43355482"
   inkscape:cx="249.7993"
   inkscape:cy="300.62315"
   inkscape:window-x="-8"
   inkscape:window-y="-8"
   inkscape:window-maximized="1"
   inkscape:current-layer="svg2" />
 <defs
   id="defs4">
  <style
   type="text/css"
   id="style6">
   
    .str1 {stroke:#1F1A17;stroke-width:0.227664}
    .str3 {stroke:#615233;stroke-width:0.227664}
    .str2 {stroke:#EEEED4;stroke-width:0.227664}
    .str0 {stroke:#1F1A17;stroke-width:1.0457}
    .fil0 {fill:none}
    .fil5 {fill:#1F1A17}
    .fil2 {fill:#C0A062}
    .fil6 {fill:white}
    .fil4 {fill:#615233}
    .fil3 {fill:#EEEED4}
    .fil1 {fill:#F00000}
   
  </style>
 </defs>
 <g
   id="Layer_x0020_1"
   transform="translate(-14.440536,0.3971906)">
  <metadata
   id="CorelCorpID_0Corel-Layer" />
  <path
   id="path1937"
   class="fil0 str0"
   d="M 0.735576,0.740058 526.28358,0.6943459 518.66729,479.70335 c -1.72481,65.722 -49.2746,125.645 -111.175,126.576 -100.576,1.51358 -117.658,-10.6542 -144.953,27.3086 -28.1147,-38.9061 -54.0801,-27.1034 -147.639,-29.3298 C 45.949986,602.617 9.769286,545.10045 8.227286,485.17015 L 0.734386,0.7401459 z"
   inkscape:connector-curvature="0"
   style="fill:none;stroke:#1f1a17;stroke-width:1.04569995" />
  <path
   id="path1937_0"
   class="fil1 str0"
   d="M 0.735576,0.740058 526.28358,0.6943459 518.66729,479.70335 c -1.72481,65.722 -38.9034,125.645 -111.175,126.576 -100.579,1.29637 -117.658,-10.6542 -144.953,27.3086 -28.1147,-38.9061 -54.0732,-27.3941 -147.639,-29.3298 C 35.578786,602.617 9.769286,545.10045 8.227286,485.17015 L 0.734386,0.7401459 z"
   inkscape:connector-curvature="0"
   style="fill:#f00000;stroke:#1f1a17;stroke-width:1.04569995" />
  <path
   id="path1937_1"
   class="fil2"
   d="m 522.172,259.97 -1.91692,120.558 c -26.3331,0.0356 -50.9137,-26.493 -79.0015,-26.455 -28.0878,0.0382 -59.899,26.6457 -89.5347,26.6857 -29.6355,0.0403 -58.8539,-26.4807 -88.2805,-26.441 -29.4263,0.0397 -59.5225,26.6442 -88.2802,26.6836 -28.758,0.0394 -56.1802,-26.4846 -84.2683,-26.4464 -28.0878,0.0379 -56.1787,26.64 -84.268,26.6785 L 4.73543,259.2784 c 28.297,0.0377 56.5946,-26.4852 84.8915,-26.4479 28.2973,0.0374 55.922,26.6367 84.8927,26.6746 28.9704,0.0382 59.2898,-26.4819 88.9342,-26.4425 29.6441,0.0391 59.0788,26.6403 88.9342,26.68 29.8551,0.0397 61.9004,-26.4784 90.198,-26.4407 28.2976,0.0379 53.0577,26.6322 79.5859,26.6675 z"
   inkscape:connector-curvature="0"
   style="fill:#c0a062" />
  <path
   id="path1937_2"
   class="fil3"
   d="m 522.172,263.765 c -26.5282,-0.0353 -51.2884,-26.6295 -79.5859,-26.6675 -28.2976,-0.0376 -60.3429,26.4804 -90.198,26.4407 -29.8554,-0.0397 -59.2901,-26.6409 -88.9342,-26.68 -29.6444,-0.0394 -59.9638,26.4807 -88.9342,26.4425 C 145.549,263.26276 117.924,236.6634 89.627,236.6261 61.33,236.58875 33.0913,263.1119 4.7943,263.0743 l -0.058858,-3.7947 c 28.297,0.0376 56.5946,-26.4852 84.8915,-26.4479 28.297298,0.0373 55.921998,26.6367 84.892698,26.6746 28.9704,0.0382 59.2898,-26.4819 88.9342,-26.4425 29.6441,0.0391 59.0788,26.6403 88.9342,26.68 29.8551,0.0397 61.9004,-26.4784 90.198,-26.4407 28.2976,0.0379 53.0577,26.6322 79.5859,26.6675 l 0,3.7944 z"
   inkscape:connector-curvature="0"
   style="fill:#eeeed4" />
  <path
   id="path1937_3"
   class="fil4"
   d="m 520.255,380.529 c -26.3331,0.0356 -50.9137,-26.493 -79.0015,-26.455 -28.0878,0.0382 -59.899,26.6457 -89.5347,26.6857 -29.6355,0.0403 -58.8539,-26.4807 -88.2805,-26.441 -29.4263,0.0397 -59.5225,26.6442 -88.2802,26.6836 -28.758,0.0394 -56.1802,-26.4846 -84.2683,-26.4464 -28.0878,0.0379 -56.1787,26.64 -84.268,26.6785 l 0,-3.7944 c 28.0893,-0.0385 56.1802,-26.6406 84.268,-26.6785 28.0881,-0.0382 55.5103,26.4858 84.2683,26.4464 28.7577,-0.0394 58.8539,-26.6439 88.2802,-26.6836 29.4266,-0.0397 58.645,26.4813 88.2805,26.441 29.6358,-0.04 61.4469,-26.6475 89.5347,-26.6857 28.0878,-0.0379 52.6684,26.4906 79.0015,26.455 l 0,3.7944 z"
   inkscape:connector-curvature="0"
   style="fill:#615233" />
  <path
   class="fil2"
   d="m 81.1924,408.203 347.064,0 -0.56617,50.3891 c -107.29,7.90281 -121.444,57.5844 -57.7496,77.5659 l 1.13235,34.5365 -74.1689,0 -1.66057,-3.47741 -56.6549,0.0804 -0.56618,3.39704 -75.8671,0 0.56618,-34.5365 c 33.9593,-9.04352 50.9292,-24.6944 30.5234,-54.8796 L 81.192907,433.1143 c -24.5342,-13.777 -13.2105,-24.9116 0,-24.9113 z"
   id="path15"
   inkscape:connector-curvature="0"
   style="fill:#c0a062" />
  <path
   class="fil3"
   d="m 165.899,539.065 67.1403,-0.11831 1.83416,-2.76274 -59.129,0.15177 c 75.1118,-30.1942 -19.6281,-67.1824 18.1166,-124.553 l 234.35,0.38243 0.0448,-3.96261 -347.064004,0 c -8.25656,0 -15.776,4.34922 -14.2649,10.9748 5.32113,4.83413 -0.6812,-7.31662 14.2649,-7.57775 l 107.574004,0.17508 c -11.9545,18.2134 -12.2544,40.7205 4.47799,69.5033 20.4058,30.1852 3.43588,45.8361 -30.5234,54.8796 l -0.49238,30.0176 3.88941,-0.0105 -0.219,-27.1001 z"
   id="path17"
   inkscape:connector-curvature="0"
   style="fill:#eeeed4" />
  <path
   class="fil3"
   d="m 85.7218,416.696 85.4921,3.96321 c 2.63337,0.37406 3.00206,2.44664 2.80457,4.51952 l -0.55004,5.09227 c -0.94023,0.948 -4.14516,1.89601 -6.21774,1.14549 l -79.753499,-11.7501 c -1.72421,0.14222 -6.84546,-3.1126 -1.7753,-2.97039 z"
   id="path19"
   inkscape:connector-curvature="0"
   style="fill:#eeeed4" />
  <path
   class="fil3"
   d="m 273.691,482.372 c 14.7205,13.9655 23.024,19.061 19.816,81.5288 l 3.96321,0 0,-24.9116 69.0731,0 -5.66173,-3.39704 -63.9775,0 c 0.75679,-30.4825 -8.86874,-45.3912 -23.2131,-53.2202 z"
   id="path21"
   inkscape:connector-curvature="0"
   style="fill:#eeeed4" />
  <path
   class="fil4"
   d="m 428.205,412.732 -0.51508,45.8603 c -107.29,7.90281 -121.444,57.5844 -57.7496,77.5659 l 1.13235,34.5365 -74.1689,0 -1.66057,-3.47741 -56.6549,0.0804 -0.56618,3.39704 -75.8671,0 0.0741,-4.52819 72.396,0.56498 c -1.69912,-55.3439 0.94322,-80.3499 25.4778,-83.2274 l 0,2.26469 c -24.2253,12.9117 -21.482,38.3946 -19.816,78.1318 l 58.8819,0.56617 0,1.69852 67.3745,0 0,-28.3086 c -43.6434,-11.9371 -51.8533,-44.3037 -13.022,-66.2422 l -1.13235,-56.6173 7.36024,0 1.13235,44.7276 c 20.0046,-6.79437 41.3303,-10.1914 63.4113,-11.8896 l 0.56617,-35.1027 3.34595,-6e-4 z m -361.278,6.446 c 0.906474,3.97546 5.06478,8.77015 14.2649,13.9365 l 112.052,48.1641 -3.91331,-6.26704 -115.499,-48.6908 c -3.24825,-2.38151 -5.17084,-4.76212 -6.90462,-7.14274 z m 292.822,48.4733 c 18.3057,-7.54907 39.6312,-12.0781 63.9775,-13.5881 l 0,-3.96321 c -22.8357,2.26499 -44.1618,6.79467 -63.9775,13.5881 l 0,3.96321 z"
   id="path23"
   inkscape:connector-curvature="0"
   style="fill:#615233" />
  <path
   class="fil4"
   d="m 181.971,454.063 c 0.94352,4.15203 0.94322,9.81346 5.09555,16.9852 -36.4236,-16.0417 -75.6783,-30.9507 -109.271,-48.1247 l 10.7573,0.56617 c 31.1395,13.022 62.279,20.3822 93.4185,30.5733 z"
   id="path25"
   inkscape:connector-curvature="0"
   style="fill:#615233" />
  <polygon
   class="fil4"
   points="96.4791,424.622 176.309,447.835 179.14,445.57 "
   id="polygon27"
   style="fill:#615233" />
  <polygon
   class="fil4"
   points="233.311,532.761 234.059,535.026 179.975,534.776 184.216,532.761 "
   id="polygon29"
   style="fill:#615233" />
  <polygon
   class="fil4"
   points="235.805,527.771 233.311,530.286 191.701,529.537 192.948,527.771 "
   id="polygon31"
   style="fill:#615233" />
  <polygon
   class="fil4"
   points="235.805,523.031 234.059,525.546 196.441,524.049 200.682,522.034 "
   id="polygon33"
   style="fill:#615233" />
  <polygon
   class="fil4"
   points="235.556,517.543 231.564,519.558 210.661,519.558 205.172,517.044 "
   id="polygon35"
   style="fill:#615233" />
  <polygon
   class="fil4"
   points="235.306,513.052 231.315,515.068 210.411,515.068 204.923,512.553 "
   id="polygon37"
   style="fill:#615233" />
  <polygon
   class="fil4"
   points="209.413,508.581 210.661,507.315 236.304,507.813 234.309,509.579 219.836,510.406 "
   id="polygon39"
   style="fill:#615233" />
  <polygon
   class="fil4"
   points="237.302,503.822 234.558,505.338 207.418,504.34 207.916,502.824 "
   id="polygon41"
   style="fill:#615233" />
  <polygon
   class="fil4"
   points="236.554,499.331 233.061,501.097 210.661,500.099 211.16,498.583 "
   id="polygon43"
   style="fill:#615233" />
  <polygon
   class="fil4"
   points="234.558,495.589 234.059,496.856 217.646,497.355 217.895,495.09 "
   id="polygon45"
   style="fill:#615233" />
  <polygon
   class="fil4"
   points="230.067,491.348 232.313,493.114 219.642,493.363 219.891,491.099 "
   id="polygon47"
   style="fill:#615233" />
  <polygon
   class="fil4"
   points="228.072,487.856 230.566,489.621 223.384,489.871 220.39,487.606 "
   id="polygon49"
   style="fill:#615233" />
  <polygon
   class="fil4"
   points="299.4,532.511 300.647,535.026 358.723,534.776 354.482,533.26 "
   id="polygon51"
   style="fill:#615233" />
  <polygon
   class="fil4"
   points="349.991,531.283 346.499,529.268 302.394,528.27 299.151,530.036 304.662,530.578 "
   id="polygon53"
   style="fill:#615233" />
  <polygon
   class="fil4"
   points="342.257,526.045 338.765,524.029 302.893,523.031 298.153,524.049 299.568,525.709 "
   id="polygon55"
   style="fill:#615233" />
  <polygon
   class="fil4"
   points="336.021,521.055 330.033,518.79 303.142,517.543 299.4,519.309 302.848,519.808 "
   id="polygon57"
   style="fill:#615233" />
  <polygon
   class="fil4"
   points="331.53,515.567 330.782,513.551 303.392,513.052 297.654,514.07 303.347,515.567 "
   id="polygon59"
   style="fill:#615233" />
  <polygon
   class="fil4"
   points="329.34,510.905 327.289,508.811 302.394,507.813 297.155,509.829 303.725,510.126 "
   id="polygon61"
   style="fill:#615233" />
  <polygon
   class="fil4"
   points="300.897,503.822 304.14,505.338 328.287,506.087 325.792,504.071 "
   id="polygon63"
   style="fill:#615233" />
  <polygon
   class="fil4"
   points="303.641,499.581 305.637,501.097 323.048,500.848 322.05,499.082 "
   id="polygon65"
   style="fill:#615233" />
  <polygon
   class="fil4"
   points="308.132,495.34 308.88,496.856 321.052,497.355 320.803,495.09 "
   id="polygon67"
   style="fill:#615233" />
  <polygon
   class="fil4"
   points="310.128,491.598 310.108,492.879 324.295,493.363 320.803,491.348 "
   id="polygon69"
   style="fill:#615233" />
  <polygon
   class="fil4"
   points="312.872,485.86 307.633,487.127 321.052,489.372 321.302,487.357 "
   id="polygon71"
   style="fill:#615233" />
  <path
   class="fil2"
   d="m 374.655,135.684 0.34628,-2.42394 c 13.7489,15.024 41.8875,22.1626 63.063,49.92 14.4441,18.9338 22.7706,8.03786 32.2458,22.986 6.20579,9.79045 18.6496,6.11496 31.7747,18.1647 -4.17623,7.86606 -10.443,9.96673 -22.5683,4.01639 -18.4148,-9.03665 -11.6784,2.78844 -34.3579,-10.5233 -16.9795,-9.96613 -30.6728,6.41105 -61.8144,-3.308 -31.0687,-9.69664 -41.2284,5.38895 -75.8668,-0.57334 l 0,-2.07766 c 64.2796,0.24917 66.5323,-30.0968 96.2649,-24.2394 -15.5824,-16.275 -11.7734,-37.7441 -29.0872,-51.9415 z"
   id="path73"
   inkscape:connector-curvature="0"
   style="fill:#c0a062" />
  <path
   class="fil2"
   d="m 357.687,203.554 c -30.4723,-9.98406 -30.2984,-1.9695 -40.1681,-5.02086 -10.1771,-3.14637 -14.6201,-0.84881 -40.8606,-5.02116 l 0,-3.46277 c 57.9438,4.73255 36.2437,-17.5445 79.2973,-21.1229 -22.508,-23.2005 -1.73138,-29.7798 -34.9739,-56.0968 l -1.03883,-2.77021 c 10.4857,2.68387 7.25537,2.64383 17.1492,12.8585 7.70831,7.95779 28.7415,10.956 47.2582,23.8468 l 20.084,40.8606 -46.7473,15.9287 z"
   id="path75"
   inkscape:connector-curvature="0"
   style="fill:#c0a062" />
  <path
   class="fil4"
   d="m 501.276,225.737 c -4.17414,6.6901 -10.3925,8.18784 -21.7598,2.60977 -18.4145,-9.03665 -11.6784,2.78844 -34.3579,-10.5233 -16.9795,-9.96613 -30.6728,6.41105 -61.8144,-3.308 -8.73788,-2.72689 -15.8224,-3.49384 -22.2621,-3.32025 l 9.41759,-3.48607 c 19.0533,5.7887 37.4113,10.0707 50.9026,3.80904 6.23268,0.57693 12.0038,0.23065 17.3138,-1.03883 5.09705,1.25902 6.89535,4.02177 13.1803,7.81229 11.8317,7.13616 9.67423,-3.90375 30.0824,6.36324 8.55204,4.30231 10.7492,5.67069 15.6043,0.36809 l 3.69312,0.71406 z m -97.5341,-38.1119 c -11.6868,-12.206 -12.466,-27.3343 -19.4294,-40.1251 14.3252,19.6078 11.3369,34.368 42.9762,58.824 l -3.46277,0 c -6.69488,-6.23298 -13.3895,-9.69574 -20.084,-18.6989 z"
   id="path77"
   inkscape:connector-curvature="0"
   style="fill:#615233" />
  <path
   class="fil3"
   d="m 403.742,187.625 c -25.0867,-4.94198 -30.6107,15.8893 -70.3354,22.3699 l 1.08006,1.52314 c 48.9406,-4.84787 38.3211,-25.9707 72.0255,-20.7766 l -2.77021,-3.11649 z m -21.309,-43.2708 c -2.02806,-3.09109 -4.53207,-6.0089 -7.77823,-8.67066 l 0.34628,-2.42394 c 13.7489,15.024 41.8875,22.1626 63.063,49.92 14.4441,18.9338 22.7706,8.03786 32.2458,22.986 6.20579,9.79045 18.6496,6.11496 31.7747,18.1647 -0.26083,0.49148 -0.53032,0.96055 -0.80848,1.40662 -6.45945,-1.70748 -12.5194,-5.5464 -20.3744,-9.72383 -4.71283,-2.5064 -8.8535,-4.47052 -11.9419,-8.03009 -9.33483,-10.7588 -21.4243,-6.67755 -33.6235,-22.1551 -14.7629,-18.7306 -31.147,-31.052 -52.9032,-41.4737 z"
   id="path79"
   inkscape:connector-curvature="0"
   style="fill:#eeeed4" />
  <path
   class="fil3"
   d="m 393.7,157.845 8.31064,13.5048 c 0.80788,1.73138 4.38597,3.11649 2.42394,0 l -8.31064,-14.1973 c -1.15445,-2.19299 -2.65489,0.4619 -2.42394,0.69255 z"
   id="path81"
   inkscape:connector-curvature="0"
   style="fill:#eeeed4" />
  <path
   class="fil3"
   d="m 399.904,160.601 8.31064,13.5048 c 0.80788,1.73138 4.38597,3.11649 2.42394,0 l -8.31064,-14.1973 c -1.15445,-2.19299 -2.65489,0.4619 -2.42394,0.69255 z"
   id="path83"
   inkscape:connector-curvature="0"
   style="fill:#eeeed4" />
  <path
   class="fil3"
   d="m 406.858,164.771 8.31064,13.5048 c 0.80788,1.73138 4.38597,3.11649 2.42394,0 l -8.31064,-14.1973 c -1.15445,-2.19299 -2.65489,0.4619 -2.42394,0.69255 z"
   id="path85"
   inkscape:connector-curvature="0"
   style="fill:#eeeed4" />
  <path
   class="fil3"
   d="m 416.206,171.936 7.73998,12.5777 c 0.75231,1.61247 4.08481,2.90257 2.25752,0 l -7.73998,-13.2227 c -1.07528,-2.0424 -2.47264,0.43023 -2.25752,0.64505 z"
   id="path87"
   inkscape:connector-curvature="0"
   style="fill:#eeeed4" />
  <path
   class="fil3"
   d="m 379.849,200.437 c 6.00113,-3.80844 13.8496,-6.23148 23.5468,-7.27181 l -1.38511,-1.73138 c -9.92669,0.80818 -17.5448,3.00146 -22.8543,6.57925 l 0.69255,2.42394 z"
   id="path89"
   inkscape:connector-curvature="0"
   style="fill:#eeeed4" />
  <path
   class="fil4"
   d="m 379.156,203.9 c 7.84874,3.00086 8.42596,7.04086 31.8574,4.84787 l -0.34628,2.77021 c -13.0435,4.3068 -22.9705,-1.06303 -33.9351,-6.23298 l 2.42394,-1.38511 z"
   id="path91"
   inkscape:connector-curvature="0"
   style="fill:#615233" />
  <polygon
   class="fil4"
   points="435.599,209.094 435.599,210.826 424.519,210.826 425.557,208.748 "
   id="polygon93"
   style="fill:#615233" />
  <path
   class="fil4"
   d="m 449.104,214.981 c 9.81107,8.31064 15.1205,-0.69255 33.5888,7.27181 l -9.34947,-5.54042 c -8.54159,-1.61606 -11.1965,1.61606 -25.6245,-4.84787 l 1.38511,3.11649 z"
   id="path95"
   inkscape:connector-curvature="0"
   style="fill:#615233" />
  <polygon
   class="fil4"
   points="432.137,201.822 428.674,201.822 424.865,197.321 426.943,195.243 "
   id="polygon97"
   style="fill:#615233" />
  <polygon
   class="fil4"
   points="435.253,201.13 431.79,201.13 427.981,196.628 430.059,194.551 "
   id="polygon99"
   style="fill:#615233" />
  <polygon
   class="fil4"
   points="439.062,200.784 435.599,200.784 431.79,196.282 433.868,194.204 "
   id="polygon101"
   style="fill:#615233" />
  <polygon
   class="fil4"
   points="441.841,200.461 438.596,199.252 436.597,193.704 439.269,192.482 "
   id="polygon103"
   style="fill:#615233" />
  <polygon
   class="fil4"
   points="427.635,202.861 424.519,201.476 420.017,194.897 422.095,192.819 "
   id="polygon105"
   style="fill:#615233" />
  <path
   class="fil3"
   d="m 450.836,201.822 -3.80904,1.73138 3.58287,2.88076 13.3847,5.77616 1.38511,-2.07766 c -5.8867,-7.27181 -9.69574,-5.54042 -14.5436,-8.31064 z"
   id="path107"
   inkscape:connector-curvature="0"
   style="fill:#eeeed4" />
  <path
   class="fil2"
   d="m 172.776,165.041 45.0159,19.8525 c 16.9571,-1.53927 31.4858,-5.10691 43.6228,-14.7976 l -40.3575,-25.3657 -30.66,-2.7487 c -3.99279,10.385 -9.25087,18.9801 -17.6213,23.0595 z"
   id="path109"
   inkscape:connector-curvature="0"
   style="fill:#c0a062" />
  <polygon
   class="fil4"
   points="212.764,161.539 219.734,162.874 217.786,163.798 217.581,164.825 218.811,166.776 221.681,166.878 219.529,167.905 219.836,168.726 224.551,169.137 219.324,170.574 219.016,172.012 221.783,171.704 219.631,172.525 219.631,174.168 222.399,174.168 221.886,175.913 218.913,176.735 219.016,178.069 217.581,177.248 216.659,178.069 220.143,179.815 218.606,180.02 216.351,179.301 214.916,180.431 211.534,180.533 212.046,182.381 216.966,182.381 214.301,183.203 217.171,183.922 252.943,170.266 254.685,162.155 218.401,152.607 207.331,153.839 206.921,155.379 209.176,155.482 208.254,156.714 208.664,158.254 216.044,158.562 217.684,159.794 212.661,159.589 "
   id="polygon111"
   style="fill:#615233" />
  <path
   class="fil2"
   d="m 274.227,93.6366 c 23.0347,-17.1304 46.0694,-39.0011 69.1044,-57.3791 l 9.23055,-5.48844 -2.24527,3.74212 c -35.9769,26.9089 -55.2507,47.231 -68.8549,65.1128 l -7.23476,-5.98739 z"
   id="path113"
   inkscape:connector-curvature="0"
   style="fill:#c0a062" />
  <path
   class="fil5"
   d="M 307.5,70.4528 C 296.4843,81.1321 288.2645,90.6832 281.4623,99.624 l -2.82877,-2.34088 21.5394,-22.6066 5.48844,-4.24107 1.83864,0.01733 z"
   id="path115"
   inkscape:connector-curvature="0"
   style="fill:#1f1a17" />
  <path
   class="fil2"
   d="m 314.129,187.231 c -22.9863,-5.61721 -15.9508,-3.01013 -25.8199,-3.77319 -6.63662,-0.51329 -18.5131,-1.92678 -26.6412,-13.192 -8.70322,-0.77053 -13.529,-0.24619 -25.4485,-1.18672 l -1.66356,-2.63098 c 53.7849,4.10871 26.2623,-15.8809 83.0403,-10.7256 -31.9701,-33.8096 -15.2401,-43.7943 -42.6849,-66.5679 -18.6607,-20.1534 -21.5755,-20.2083 -38.6608,-40.0596 l 4.1598,0.764856 c 15.6843,15.7844 35.5359,35.0833 45.4297,45.298 22.6804,23.137804 32.9005,18.026104 50.3774,32.996404 l 4.56464,6.54997 15.7273,34.7265 -42.3805,17.8002 z"
   id="path117"
   inkscape:connector-curvature="0"
   style="fill:#c0a062" />
  <path
   class="fil3"
   d="m 384.351,146.764 c -18.5167,-12.8908 -39.5499,-15.889 -47.2582,-23.8468 -9.89383,-10.2147 -6.66351,-10.1747 -17.1492,-12.8585 l 1.03883,2.77021 c 5.19415,4.112 9.06922,7.74237 11.9972,11.0295 22.5489,16.4077 34.4845,11.8484 53.5707,28.602 l -2.19926,-5.69638 z m -28.3947,22.1617 c -40.3626,3.35461 -23.8133,23.1438 -69.3309,21.7049 48.1578,6.6163 29.8303,-16.8938 72.7937,-18.5884 l -3.46277,-3.11649 z"
   id="path119"
   inkscape:connector-curvature="0"
   style="fill:#eeeed4" />
  <path
   class="fil4"
   d="m 355.956,168.926 c -18.2875,-18.8504 -8.00081,-26.7284 -21.3308,-43.1355 l 6.09465,3.31368 c 8.85261,14.6676 -1.09769,31.0633 45.3622,58.5207 l -2.42394,1.38511 c -9.23444,-2.63816 -18.4686,-10.9554 -27.7021,-20.084 z m 1.73138,34.6277 c -30.4723,-9.98406 -30.2984,-1.9695 -40.1681,-5.02086 -1.90796,-0.58978 -3.61484,-0.98834 -5.30111,-1.27396 l 1.14579,-2.01581 c 10.6694,3.39763 18.2227,-1.86075 27.5076,-0.88705 7.22072,0.75738 14.7889,5.32381 22.0099,6.0812 l -5.19415,3.11649 z"
   id="path121"
   inkscape:connector-curvature="0"
   style="fill:#615233" />
  <path
   class="fil3"
   d="m 339.968,185.547 c 5.48694,-3.80844 12.6625,-6.23148 21.5286,-7.27181 l -1.26649,-1.73138 c -9.07579,0.80818 -16.0408,3.00146 -20.8952,6.57925 l 0.6331,2.42394 z"
   id="path123"
   inkscape:connector-curvature="0"
   style="fill:#eeeed4" />
  <path
   class="fil3"
   d="m 347.645,140.185 8.31064,13.5048 c 0.80788,1.73138 4.38597,3.11649 2.42394,0 l -8.31064,-14.1973 c -1.15445,-2.19299 -2.65489,0.4619 -2.42394,0.69255 z"
   id="path125"
   inkscape:connector-curvature="0"
   style="fill:#eeeed4" />
  <path
   class="fil3"
   d="m 354.221,143.446 7.22968,11.7483 c 0.70271,1.50611 3.81532,2.71106 2.10843,0 l -7.22968,-12.3506 c -1.00417,-1.90766 -2.30951,0.40185 -2.10843,0.60232 z"
   id="path127"
   inkscape:connector-curvature="0"
   style="fill:#eeeed4" />
  <path
   class="fil3"
   d="m 361.638,145.324 4.52012,11.7375 c 0.37854,1.46757 2.9677,3.06719 1.89033,0.35195 l -4.41943,-12.2777 c -0.58201,-1.87778 -2.13741,-0.0254 -1.99102,0.18823 z"
   id="path129"
   inkscape:connector-curvature="0"
   style="fill:#eeeed4" />
  <path
   class="fil3"
   d="m 367.179,148.44 4.52012,11.7375 c 0.37854,1.46757 2.9677,3.06719 1.89033,0.35195 l -4.41943,-12.2777 c -0.58201,-1.87778 -2.13741,-0.0254 -1.99102,0.18823 z"
   id="path131"
   inkscape:connector-curvature="0"
   style="fill:#eeeed4" />
  <path
   class="fil3"
   d="m 372.027,150.172 4.52012,11.7375 c 0.37854,1.46757 2.9677,3.06719 1.89033,0.35195 l -4.41943,-12.2777 c -0.58201,-1.87778 -2.13741,-0.0254 -1.99102,0.18823 z"
   id="path133"
   inkscape:connector-curvature="0"
   style="fill:#eeeed4" />
  <path
   class="fil3"
   d="m 378.26,153.288 4.52012,11.7375 c 0.37854,1.46757 2.9677,3.06719 1.89033,0.35195 l -4.41943,-12.2777 c -0.58201,-1.87778 -2.13741,-0.0254 -1.99102,0.18823 z"
   id="path135"
   inkscape:connector-curvature="0"
   style="fill:#eeeed4" />
  <path
   class="fil4"
   d="m 323.06,192.819 4.15532,0.69255 c 14.428,-3.69372 28.8563,5.4248 42.2457,3.46277 l 11.7734,-7.27181 c -7.73371,-5.8867 -12.0044,-4.15532 -18.0064,-6.23298 l -0.69255,1.73138 2.07766,1.38511 -4.84787,-0.34627 2.07766,3.11649 -3.80904,1.73138 0.69255,1.38511 -2.42394,-0.69256 0,2.07766 c -13.1594,-5.54162 -23.7787,-4.73314 -33.2425,-1.03883 z"
   id="path137"
   inkscape:connector-curvature="0"
   style="fill:#615233" />
  <polygon
   class="fil5"
   points="377.771,191.78 371.192,193.512 371.538,191.78 369.114,190.395 371.531,189.201 370.989,187.607 374.655,188.318 368.422,185.894 382.965,188.664 "
   id="polygon139"
   style="fill:#1f1a17" />
  <path
   class="fil4"
   d="m 402.303,186.843 -10.9171,-0.15596 c -4.31486,0.10397 -9.66945,-5.40657 -16.0638,-16.5316 l 1.87151,0.15596 2.96322,2.49534 -1.55959,-3.4311 1.71555,0 1.40363,1.24767 3.27514,-0.93575 3.58705,4.21089 -1.87151,-5.77048 5.3026,2.02747 7.48603,14.1923 2.80726,2.49534 z"
   id="path141"
   inkscape:connector-curvature="0"
   style="fill:#615233" />
  <polygon
   class="fil5"
   points="394.125,183.97 391.501,183.694 392.73,186.396 402.738,186.742 397.509,179.661 397.509,182.777 393.354,178.276 395.778,183.124 392.661,181.046 391.725,180.768 "
   id="polygon143"
   style="fill:#1f1a17" />
  <path
   class="fil4"
   d="m 385.148,186.375 -5.77048,-3.58705 c -4.52281,-3.67639 -9.04532,-10.4089 -13.5684,-18.2472 l 2.96322,1.40363 c 1.55989,2.96471 3.11948,5.77377 4.67877,7.48603 l -1.71555,-4.67877 1.55959,0.62384 -0.93575,-2.80726 1.71555,0.46787 c 1.39048,5.19863 4.01609,10.3976 7.48603,15.5959 l 3.58705,3.74301 z"
   id="path145"
   inkscape:connector-curvature="0"
   style="fill:#615233" />
  <path
   class="fil3"
   d="m 317.596,155.723 c -54.1162,-4.9136 -31.6507,13.0154 -75.9956,11.1499 l -0.14251,1.7753 c 40.48,4.50548 30.8452,-16.9822 80.2668,-9.56548 l -4.12873,-3.35969 z M 252.3386,61.7682 c -4.0869,-4.05642 -8.13018,-8.08506 -11.9285,-11.9078 l -4.1598,-0.764856 c 3.20343,3.7221 5.90851,6.74836 8.31333,9.3417 l 7.77494,3.33101 z m 33.5013,33.3901 c 22.6804,23.1378 32.9005,18.0261 50.3774,32.9964 l 4.14725,6.32171 c -24.3406,-20.1967 -28.2635,-8.40774 -54.4063,-36.9455 l -0.11831,-2.37255 z"
   id="path147"
   inkscape:connector-curvature="0"
   style="fill:#eeeed4" />
  <path
   class="fil2"
   d="m 248.244,166.71 -5.5715,-0.65222 9.82989,-2.40481 -4.71791,-0.15327 -12.2837,1.54734 8.25596,-2.65578 -10.5765,0.76456 10.1998,-2.46427 -16.6613,2.0914 7.60285,-2.78186 -11.5753,1.25454 8.60194,-2.52731 -11.1496,0.96025 6.78989,-2.46158 -10.2126,0.23573 5.132,-2.03075 -7.80332,0.82282 4.36685,-2.32594 -5.37162,-0.15058 3.14009,-1.2892 c -8.70322,-0.77053 -10.2858,1.50013 -22.2053,0.5596 l -1.66356,-2.63098 c 53.286,-8.11554 44.474,-15.6314 77.5519,-16.214 -13.01,-11.8559 1.97369,-8.86785 -45.9281,-67.815201 -18.6607,-20.1534 -11.5965,-10.9778 -30.4281,-27.3364 l 7.65244,1.51328 c 13.938,10.296 25.5569,22.859 36.1992,33.0737 20.8976,22.7306 26.1763,2.85984 55.6905,39.546301 l 22.9621,41.9613 c -44.3132,-4.87715 -39.2305,14.1952 -67.8269,11.5634 z"
   id="path149"
   inkscape:connector-curvature="0"
   style="fill:#c0a062" />
  <path
   class="fil4"
   d="m 274.911,89.155 c 27.7126,22.773 11.4125,33.2575 41.9365,67.0668 l 14.1101,12.9252 6.155,1.5805 C 286.0274,126.2272 310.6342,119.365 276.1847,89.005 l -1.27366,0.149983 z m 45.8068,94.1278 -6.58911,3.94857 c -22.9863,-5.61721 -15.9508,-3.01013 -25.8199,-3.77319 -6.63662,-0.51329 -18.5131,-1.92678 -26.6412,-13.192 l 4.53565,0.66925 c 8.61389,9.88038 19.5017,9.88008 29.8688,9.53082 6.66978,-0.22468 14.2891,5.01996 24.6457,2.81652 z"
   id="path151"
   inkscape:connector-curvature="0"
   style="fill:#615233" />
  <path
   class="fil3"
   d="m 291.57,166.338 c 6.98379,-2.06212 12.1636,-2.23989 18.5346,-2.53179 l 0.23065,-1.98086 c -9.57474,0.0598 -12.0492,1.00567 -19.3984,2.08871 l 0.6331,2.42394 z"
   id="path153"
   inkscape:connector-curvature="0"
   style="fill:#eeeed4" />
  <path
   class="fil3"
   d="m 306.981,123.47 8.31064,13.5048 c 0.80788,1.73138 4.38597,3.11649 2.42394,0 l -8.31064,-14.1973 c -1.15445,-2.19299 -2.65489,0.4619 -2.42394,0.69255 z"
   id="path155"
   inkscape:connector-curvature="0"
   style="fill:#eeeed4" />
  <path
   class="fil3"
   d="m 312.968,125.965 8.31064,13.5048 c 0.80788,1.73138 4.38597,3.11649 2.42394,0 l -8.31064,-14.1973 c -1.15445,-2.19299 -2.65489,0.4619 -2.42394,0.69255 z"
   id="path157"
   inkscape:connector-curvature="0"
   style="fill:#eeeed4" />
  <path
   class="fil3"
   d="m 319.954,128.46 8.31064,13.5048 c 0.80788,1.73138 4.38597,3.11649 2.42394,0 l -8.31064,-14.1973 c -1.15445,-2.19299 -2.65489,0.4619 -2.42394,0.69255 z"
   id="path159"
   inkscape:connector-curvature="0"
   style="fill:#eeeed4" />
  <path
   class="fil3"
   d="m 301.736,122.578 6.20818,10.0883 c 0.60352,1.29338 4.02475,2.07885 2.55928,-0.24947 l -5.9587,-9.85708 c -0.86255,-1.63817 -2.98115,-0.15417 -2.80875,0.0182 z"
   id="path161"
   inkscape:connector-curvature="0"
   style="fill:#eeeed4" />
  <path
   class="fil3"
   d="m 326.683,131.809 6.20818,10.0883 c 0.60352,1.29338 4.02475,2.07885 2.55928,-0.24947 l -5.9587,-9.85708 c -0.86255,-1.63817 -2.98115,-0.15417 -2.80875,0.0182 z"
   id="path163"
   inkscape:connector-curvature="0"
   style="fill:#eeeed4" />
  <path
   class="fil4"
   d="m 270.984,172.471 c 10.935,7.0059 19.4999,7.2966 26.4443,2.99369 l -1.9958,-1.49685 c -5.19803,2.24467 -12.7653,1.33013 -21.9538,-1.74632 l -2.49474,0.24947 z"
   id="path165"
   inkscape:connector-curvature="0"
   style="fill:#615233" />
  <path
   class="fil4"
   d="m 324.372,180.454 c -11.3925,1.74662 -20.1241,0.49895 -26.1948,-3.74212 l 1.49685,-0.9979 1.49685,0.49895 -2.49474,-3.49264 2.24527,0 -0.49895,-1.49685 12.4737,0 1.49685,0.9979 0.9979,-0.74842 -1.24737,-1.74632 0.49895,-0.74843 2.74422,0 -1.49685,-1.24737 2.24527,-0.24947 -0.9979,-1.24737 2.49474,-0.49895 -2.74422,-1.49685 -0.74842,-1.24737 1.9958,0.24947 -0.49895,-2.24527 2.24527,0 2.49474,0.9979 15.7169,10.2285 -10.7274,4.98949 -2.74422,0 1.49685,2.49474 -1.74632,0.74843 z"
   id="path167"
   inkscape:connector-curvature="0"
   style="fill:#615233" />
  <line
   class="fil0 str1"
   x1="318.384"
   y1="167.73"
   x2="317.38599"
   y2="166.23399"
   id="line169"
   style="fill:none;stroke:#1f1a17;stroke-width:0.22766399" />
  <polygon
   class="fil5"
   points="332.367,175.315 326.037,177.545 327.88,174.317 324.458,174.429 328.621,172.736 326.582,170.393 329.999,170.854 324.764,168.431 339.307,171.201 "
   id="polygon171"
   style="fill:#1f1a17" />
  <path
   class="fil4"
   d="m 355.307,168.728 -9.48003,1.24737 c -4.40718,-1.66296 -7.31782,-4.82307 -10.2285,-7.23476 l 3.74212,4.24107 0.24947,1.74632 c -7.20309,-5.52967 -12.5876,-12.515 -16.4653,-20.7064 l 0,-2.74422 1.9958,0.9979 c 1.33043,3.65936 3.32653,7.31842 5.98739,10.9769 l -2.24527,-7.73371 1.74632,0.74842 -1.74632,-4.98949 1.9958,-0.24947 3.74212,6.73581 0.74843,-1.74632 -2.24527,-4.98949 2.24527,-0.49895 2.99369,4.49054 1.49685,-1.9958 c 3.90883,7.23476 8.89862,14.4698 15.4674,21.7043 z"
   id="path173"
   inkscape:connector-curvature="0"
   style="fill:#615233" />
  <polygon
   class="fil5"
   points="347.474,166.507 344.6,165.732 346.577,168.933 356.086,169.279 350.857,162.198 350.857,164.067 346.702,160.812 349.126,165.66 346.009,163.583 345.074,163.305 "
   id="polygon175"
   style="fill:#1f1a17" />
  <path
   class="fil4"
   d="m 282.71,156.504 -8.98108,2.99369 c -12.3904,-4.82337 -27.7747,1.5802 -46.1528,-6.23686 l 1.74632,-1.49685 15.4674,2.99369 1.74632,-0.49895 -0.49895,-1.74632 5.98739,0.74842 0,-1.49685 8.73161,0.9979 0.49895,-1.49685 4.49054,0.74842 0.24947,-1.49685 4.24107,0 -0.74842,-1.49685 6.98528,0 3.24317,-2.99369 2.99369,10.4779 z"
   id="path177"
   inkscape:connector-curvature="0"
   style="fill:#615233" />
  <path
   class="fil2"
   d="m 66.0874,119.865 1.7992,-2.97726 c 137.431,29.6286 97.108,-8.35964 154.079,-1.32416 -16.1265,-21.5516 -9.10716,-27.2205 -37.2712,-60.5434 -18.6607,-20.1534 -32.0268,-28.2916 -47.0494,-37.7247 l 0.38064,-2.64204 c 19.8247,6.83321 48.4112,38.7878 58.7072,47.2711 3.93004,3.33907 28.254,10.8242 36.9915,17.7309 17.465,17.6807 24.542,36.7465 36.8132,55.1198 l -58.9889,11.7749 c -8.69127,0.13086 -14.5036,-0.99133 -25.7281,-5.49441 -25.444,-10.2075 -59.161,-8.00977 -119.733005,-21.1907 z"
   id="path179"
   inkscape:connector-curvature="0"
   style="fill:#c0a062" />
  <path
   class="fil5 str1"
   d="m 194.034,153.049 c 11.9195,0.94053 13.5021,-1.33013 22.2053,-0.5596 l -3.14009,1.2892 5.37162,0.15058 -4.36685,2.32594 7.80332,-0.82282 -5.132,2.03075 10.2126,-0.23573 -6.78989,2.46158 11.1496,-0.96025 -8.60194,2.52731 11.5753,-1.25454 -7.60285,2.78186 16.6613,-2.0914 -10.1998,2.46427 10.5765,-0.76456 -8.25596,2.65578 12.2837,-1.54734 4.71791,0.15327 -9.82989,2.40481 5.5715,0.65222 c 12.5108,1.15117 18.5752,-1.85149 25.15,-5.18548 -16.2708,-5.35578 -32.2913,3.85147 -54.7989,-12.5048 -8.18635,1.67611 -16.373,3.01939 -24.5605,4.02894 z m 75.8883,-18.845 c -13.01,-11.8559 1.97369,-8.86785 -45.9281,-67.8152 8.46182,7.01188 10.8511,12.8083 15.0133,17.1226 9.15586,9.49108 14.8182,14.2239 20.8357,27.2988 9.70471,21.087 23.6466,41.9329 33.5936,43.4489 l -9.7295,2.49474 -7.98318,0.9979 1.74632,-0.9979 -1.49685,-1.9958 1.9958,-0.49895 -3.49264,-2.74422 0.9979,-0.24947 2.74422,0.74842 -3.99159,-2.24527 1.9958,-0.49895 4.49054,1.74632 -1.24737,-2.99369 -1.74632,0 -7.79765,-13.8182 z"
   id="path181"
   inkscape:connector-curvature="0"
   style="fill:#1f1a17;stroke:#1f1a17;stroke-width:0.22766399" />
  <path
   class="fil3"
   d="m 269.922,134.204 c -33.0779,0.5826 -24.2659,8.09851 -77.5519,16.214 l 1.66356,2.63098 c 51.5124,-6.665 54.6265,-15.5753 76.7007,-16.2532 l 0.9979,-1.24737 -1.81026,-1.34447 z m -72.304,-94.35 14.843,14.5594 3.52999,-1.55152 c -4.6456,-4.25541 -9.54606,-8.43552 -14.7728,-12.2963 l -3.6002,-0.711674 m 95.4899,73.331704 c -29.5142,-36.686504 -34.7929,-16.815804 -55.6905,-39.546304 l -1.85896,1.28681 c 14.22,21.3717 27.9411,6.81917 54.6349,37.920104 l 2.91452,0.3394 z"
   id="path183"
   inkscape:connector-curvature="0"
   style="fill:#eeeed4" />
  <path
   class="fil4"
   d="m 303.665,154.259 -5.98739,0 c -12.5625,-6.66859 -18.8806,-18.021 -23.4506,-30.6854 l 4.24107,0.9979 1.9958,6.98528 3.24317,2.49474 -2.24527,-2.99369 2.24527,-0.24948 3.74212,4.74001 -5.48844,-13.4716 1.9958,0.74843 2.99369,6.98528 1.9958,0.99789 -1.9958,-6.48633 2.49474,0.99789 0.9979,2.74422 0.9979,-1.74632 3.49264,0.49895 c 3.82547,7.98318 15.3841,20.4569 20.7064,28.1906 l -11.9748,-0.74842 z"
   id="path185"
   inkscape:connector-curvature="0"
   style="fill:#615233" />
  <path
   class="fil4"
   d="m 232.464,140.855 c -5.70385,2.46039 -9.06683,1.14071 -13.2422,0.7308 -8.96764,-0.88019 -20.3691,2.20523 -35.2736,-5.72507 l 1.24857,-1.42693 c 17.361,3.32951 25.9821,3.27006 34.4248,3.03224 l -0.89183,-1.42693 1.42693,-1.24857 6.06447,1.24857 -1.96203,-2.1404 1.24857,-0.89184 3.56734,0.35674 -0.71347,-1.6053 1.78367,-0.89184 -1.24857,-0.71347 3.7457,-2.49712 12.3073,7.84813 -7.13467,3.2106 -3.03224,-0.17836 -2.31877,2.31877 z"
   id="path187"
   inkscape:connector-curvature="0"
   style="fill:#615233" />
  <path
   class="fil3"
   d="m 244.668,149.873 c 5.48694,-3.80844 16.4047,-6.23148 25.2707,-7.27181 l 0.47983,-2.23033 c -10.1992,0.43411 -22.4031,3.20971 -26.3836,7.0782 l 0.63309,2.42394 z"
   id="path189"
   inkscape:connector-curvature="0"
   style="fill:#eeeed4" />
  <path
   class="fil3"
   d="m 272.803,103.014 7.56221,13.5048 c 0.80788,1.73138 5.13439,3.11649 3.17236,0 l -8.31064,-14.1973 c -1.15445,-2.19299 -2.65489,0.4619 -2.42394,0.69255 z"
   id="path191"
   inkscape:connector-curvature="0"
   style="fill:#eeeed4" />
  <path
   class="fil3"
   d="m 265.818,99.5209 c 4.64112,5.12543 7.66081,9.70978 8.31064,13.5048 0.80788,1.73138 3.1374,3.11649 2.42394,0 -0.52464,-3.98382 -3.7941,-8.88308 -8.31064,-14.1973 -1.15445,-2.19299 -2.65489,0.461901 -2.42394,0.692553 z"
   id="path193"
   inkscape:connector-curvature="0"
   style="fill:#eeeed4" />
  <path
   class="fil3"
   d="m 259.575,96.3838 8.9524,12.3333 c 0.60352,1.29338 4.02475,2.07885 2.55928,-0.24947 l -6.9566,-8.609714 c -0.86255,-1.63817 -4.72777,-3.64651 -4.55507,-3.47412 z"
   id="path195"
   inkscape:connector-curvature="0"
   style="fill:#eeeed4" />
  <path
   class="fil3"
   d="m 256.082,94.1382 6.45765,10.5873 c 0.60352,1.29338 4.02475,2.07885 2.55928,-0.24947 l -7.45585,-9.607604 c -0.86226,-1.63817 -1.73377,-0.902291 -1.56108,-0.730198 z"
   id="path197"
   inkscape:connector-curvature="0"
   style="fill:#eeeed4" />
  <path
   class="fil3"
   d="m 277.038,104.616 8.9524,14.0799 c 0.45264,0.97011 3.86192,1.4356 3.6731,-0.24708 -0.0627,-0.5608 -2.24467,-2.91303 -2.61097,-3.49503 l -8.45345,-9.6076 c -0.86226,-1.63817 -1.73377,-0.9023 -1.56108,-0.7302 z"
   id="path199"
   inkscape:connector-curvature="0"
   style="fill:#eeeed4" />
  <path
   class="fil2"
   d="m 26.8993,92.9013 2.49654,-1.35015 c 122.322,33.5802 87.1129,-3.24586 144.084,3.78962 -16.1265,-19.4596 -6.31783,-29.0801 -34.7143,-56.5919 -14.4767,-14.8071 -20.1722,-15.2747 -35.6596,-27.4972 l 8.28375,2.00685 c 7.73759,3.57899 27.0263,19.9597 37.3223,28.4431 12.298,11.2422 37.7842,19.1922 46.5218,26.0989 17.465,17.6807 14.5469,28.8434 26.8181,47.2167 l -56.432,12.0073 c -8.69127,0.13086 -21.7306,-2.3361 -32.9339,-6.88908 -29.4239,-11.958 -45.3398,-9.16453 -105.786,-27.2342 z"
   id="path201"
   inkscape:connector-curvature="0"
   style="fill:#c0a062" />
  <path
   class="fil6 str2"
   d="M 160.477,28.6316 C 152.69041,22.31945 144.8402,17.0019 138.0255,14.6533 l -0.38064,2.64204 c 5.86818,3.68475 11.4839,7.17202 17.2606,11.255 l 5.5715,0.08127 z m 83.3803,62.8039 c -2.98951,-3.97845 -6.31275,-7.91267 -10.1331,-11.7803 -8.73758,-6.90671 -33.0615,-14.3918 -36.9915,-17.7309 l 5.47619,6.23537 c 13.883,9.49019 23.2639,8.2455 41.6485,23.2758 z m -160.663,28.6214 c -4.84279,-0.95756 -9.93984,-2.01223 -15.3082,-3.16937 l 4.81501,2.52104 10.4932,0.64833 z m 138.771,-4.49353 c -41.059,-5.07046 -31.5829,13.2452 -74.5322,12.7803 l 0.75649,2.49206 c 44.3234,-0.23065 29.4335,-13.9664 74.7957,-13.1585 l -1.02001,-2.11381 z"
   id="path203"
   inkscape:connector-curvature="0"
   style="fill:#ffffff;stroke:#eeeed4;stroke-width:0.22766399" />
  <path
   class="fil5"
   d="m 225.435,143.778 -13.8866,2.77171 c -8.69127,0.13086 -14.5036,-0.99132 -25.7281,-5.49441 -16.6975,-6.69846 -36.9584,-8.05459 -66.0331,-11.9207 l 1.73915,-1.41558 c 21.885,4.69908 43.2753,2.21868 59.2318,8.80988 13.8935,5.73911 25.7147,9.06265 44.6768,7.2491 z m -3.46964,-28.2148 c -16.1265,-21.5516 -9.10716,-27.2205 -37.2712,-60.5434 32.6169,22.0401 26.7971,64.8568 66.6859,80.6636 l -14.5436,4.50159 0.69255,-1.38511 -2.54255,-1.61277 4.53356,-0.57663 -2.25214,-1.39198 3.70716,0.12817 -6.21625,-2.4335 0,-2.07766 6.57925,2.07766 c -7.38116,-4.85982 -13.8388,-10.6428 -19.3727,-17.35 z"
   id="path205"
   inkscape:connector-curvature="0"
   style="fill:#1f1a17" />
  <path
   class="fil4"
   d="m 270.278,134.077 -14.4477,0.89183 c -25.8632,-18.6691 -16.9448,-17.361 -23.0093,-24.4362 l 0,-1.78367 1.6053,-0.89183 6.06447,7.31304 1.78367,0 1.78367,-1.0702 4.2808,5.17264 -1.42693,-4.99427 1.78367,-0.35673 2.49713,3.56734 -1.78367,-4.99427 0,-1.96203 2.31877,0 1.6053,2.49713 2.85387,1.0702 c 3.92407,7.72923 9.45344,13.1397 14.091,19.9771 z"
   id="path207"
   inkscape:connector-curvature="0"
   style="fill:#615233" />
  <polygon
   class="fil5"
   points="304.933,151.512 303.169,154.463 316.419,155.059 311.191,149.847 307.036,146.592 309.709,150.941 306.592,148.864 305.407,149.085 308.057,152.786 "
   id="polygon209"
   style="fill:#1f1a17" />
  <polygon
   class="fil5"
   points="259.499,127.395 258.314,127.616 260.785,130.782 257.126,129.151 259.05,131.485 256.905,131.589 256.075,132.994 269.326,133.59 262.815,123.525 264.097,128.377 259.942,125.123 262.615,129.472 "
   id="polygon211"
   style="fill:#1f1a17" />
  <path
   class="fil3"
   d="m 194.904,131.501 c 6.31902,-5.68115 21.2197,-5.42868 29.0161,-4.06121 l 1.19359,-1.51686 c -19.1175,-6.34382 -26.8623,-0.71436 -30.8428,3.15413 l 0.6331,2.42394 z"
   id="path213"
   inkscape:connector-curvature="0"
   style="fill:#eeeed4" />
  <path
   class="fil3"
   d="m 223.932,84.2327 8.26194,13.0886 c 0.89781,1.68627 5.11288,1.59335 2.98981,-1.41558 l -8.86755,-12.4919 c -1.26799,-2.12935 -2.6268,0.60083 -2.3842,0.818934 z"
   id="path215"
   inkscape:connector-curvature="0"
   style="fill:#eeeed4" />
  <path
   class="fil3"
   d="m 218.226,82.6125 8.97451,12.6106 c 0.98983,1.63428 5.44063,2.54464 3.15384,-0.342094 l -9.79344,-13.2183 c -1.38421,-2.05555 -2.58946,0.745436 -2.3349,0.949796 z"
   id="path217"
   inkscape:connector-curvature="0"
   style="fill:#eeeed4" />
  <path
   class="fil3"
   d="m 212.875,79.4019 8.43941,12.6106 c 0.99013,1.63428 4.37043,2.36627 2.08363,-0.52046 -1.92708,-4.04985 -4.83473,-8.09911 -8.18814,-12.1481 -1.38421,-2.05555 -2.58946,-0.146398 -2.3349,0.05796 z"
   id="path219"
   inkscape:connector-curvature="0"
   style="fill:#eeeed4" />
  <path
   class="fil3"
   d="m 229.463,86.8936 9.68827,12.6103 c 0.98983,1.63428 4.72657,2.90137 2.44007,0.01464 -1.92738,-4.04985 -6.44003,-9.16931 -9.79344,-13.2183 -1.38421,-2.05555 -2.58946,0.389001 -2.3349,0.593361 z"
   id="path221"
   inkscape:connector-curvature="0"
   style="fill:#eeeed4" />
  <path
   class="fil3"
   d="m 235.884,91.5311 9.15317,10.4699 c 0.98983,1.63428 4.19177,2.36627 1.90497,-0.52046 -1.92708,-4.04985 -5.36983,-6.49381 -8.72324,-10.5428 -1.38421,-2.05555 -2.58946,0.389001 -2.3349,0.593361 z"
   id="path223"
   inkscape:connector-curvature="0"
   style="fill:#eeeed4" />
  <path
   class="fil4"
   d="m 186.981,117.846 c -23.1724,4.74181 -37.4122,3.99846 -57.7908,-3.03224 l 1.24857,-1.42693 c 4.88044,1.39168 9.79882,0.91902 15.0506,2.32773 6.2509,1.67671 14.794,0.87749 22.9415,-0.54406 l 1.96203,-1.0702 4.63754,0 0.71347,-1.0702 -2.85387,-1.0702 1.0702,-1.42693 3.2106,0.35673 -0.89184,-2.49713 0.5351,-0.5351 -0.17836,-1.42693 2.49713,0 10.1669,7.31304 -2.31877,4.10244 z"
   id="path225"
   inkscape:connector-curvature="0"
   style="fill:#615233" />
  <path
   class="fil2"
   d="m 12.9945,65.9473 2.49654,-1.35015 c 30.3053,9.07579 44.3846,16.1423 56.3678,17.4773 15.4065,1.71615 20.3732,-5.87923 58.8368,0.431128 -27.8921,-25.4494 -12.9494,-26.0852 -39.6345,-51.2438 -14.4767,-14.8071 -13.3267,-7.78749 -28.8142,-20.0099 l 8.28375,2.00685 c 7.73759,3.57899 24.4593,17.1788 34.7552,25.6621 11.0145,9.95866 22.3819,-0.488492 47.5914,16.4725 12.0384,11.2377 4.84429,17.3757 20.8283,40.1573 l -64.561,10.723802 C 91.46869,93.783928 89.77189,95.368928 78.56379,90.400728 c -17.0422,-7.55445 -6.83411,-3.60259 -65.5694,-24.4533 z"
   id="path227"
   inkscape:connector-curvature="0"
   style="fill:#c0a062" />
  <path
   class="fil5"
   d="m 165.62,127.025 c -8.69127,0.13086 -21.7306,-2.3361 -32.9339,-6.88908 -20.675,-8.40236 -34.6811,-9.52126 -62.1529,-15.713 73.3987,6.50874 68.9255,25.9143 110.449,17.7121 l -15.3625,4.89 z m 13.503,-16.9771 5.57867,4.64889 -5.57867,-2.55689 0,1.16222 5.57867,3.25422 -4.41644,-1.16222 -0.69733,1.16222 2.092,1.39467 -3.02178,0 -1.39467,1.62711 11.8547,-1.16222 7.90311,-3.02178 c -6.99485,-5.55686 -13.324,-8.72115 -19.4503,-17.6461 -13.618,-19.839 -11.8789,-40.4507 -37.0337,-59.0606 l -1.77142,0.06185 c 28.3965,27.5118 18.5878,37.1323 34.7143,56.5919 0.0586,4.74778 5.65874,10.3471 13.7785,16.3339 l -7.43822,-4.41644 3.84041,4.1604 -4.53775,-1.37106 z"
   id="path229"
   inkscape:connector-curvature="0"
   style="fill:#1f1a17" />
  <path
   class="fil6 str2"
   d="m 154.962,46.4979 c 13.2449,8.78299 32.8308,15.4214 40.2712,21.3027 l 6.1305,10.258 c -3.75168,-2.31219 -6.62048,-4.2079 -8.22997,-6.0074 -4.07345,-4.55448 -26.2913,-13.6422 -36.7911,-21.7419 l -1.38062,-3.81143 z M 49.92,99.3859 C 43.01927,97.57116 35.3994,95.44241 26.8993,92.90136 l 2.49654,-1.35015 c 7.43763,2.04151 14.2926,3.82368 20.6218,5.37042 l -0.0977,2.46427 z m 123.56,-4.04507 c -40.5027,-5.00174 -34.4149,12.1657 -71.4647,10.4421 l 3.19029,3.79978 c 35.0606,1.56138 22.3069,-9.47346 69.2685,-10.6924 l 1.85956,-1.39467 -2.85357,-2.15474 z m -52.165,-71.3097 c -5.16935,-3.49563 -10.4654,-6.66829 -18.2089,-12.7794 l 8.28375,2.00685 c 2.78067,1.28591 7.0534,4.22553 11.8642,7.858 l 0.42844,1.91782 -2.36747,0.996703 z"
   id="path231"
   inkscape:connector-curvature="0"
   style="fill:#ffffff;stroke:#eeeed4;stroke-width:0.22766399" />
  <path
   class="fil4"
   d="m 216.411,113.743 -16.9448,-0.17837 c -5.58853,-4.45827 -11.1774,-11.8308 -16.7665,-21.047297 l 3.2106,0 c 2.10126,4.67817 5.00831,6.12871 7.66977,8.561597 l -4.99427,-7.491397 2.85387,-1.0702 6.24284,7.491397 0.89183,-0.713464 -5.17264,-7.84814 3.2106,-0.5351 c 3.09229,7.32499 6.18368,8.99662 9.27507,12.842404 l 0.71347,-0.89184 -7.13467,-9.096708 1.6053,-1.42693 5.52937,6.77794 -3.92407,-7.31304 1.96203,-0.178367 14.4477,18.906905 -2.6755,3.2106 z"
   id="path233"
   inkscape:connector-curvature="0"
   style="fill:#615233" />
  <polygon
   class="fil5"
   points="210.895,109.02 212.296,110.759 209.707,110.556 207.394,112.063 212.143,112.307 221.907,114.994 213.305,102.605 215.284,107.69 210.199,105.133 213.337,109.249 208.129,106.242 "
   id="polygon235"
   style="fill:#1f1a17" />
  <path
   class="fil3"
   d="m 170.602,65.1326 6.65574,10.1131 c 0.98983,1.63428 5.44063,2.54464 3.15384,-0.342094 l -7.47467,-10.7208 c -1.38421,-2.05555 -2.58946,0.745436 -2.3349,0.949796 z"
   id="path237"
   inkscape:connector-curvature="0"
   style="fill:#eeeed4" />
  <path
   class="fil3"
   d="m 176.666,68.1648 8.08267,12.4319 c 0.98983,1.63398 4.37043,2.00954 2.08363,-0.877194 l -7.83141,-12.5045 c -1.38421,-2.05555 -2.58946,0.745436 -2.3349,0.949796 z"
   id="path239"
   inkscape:connector-curvature="0"
   style="fill:#eeeed4" />
  <path
   class="fil3"
   d="m 182.909,70.6619 8.08267,12.4319 c 0.98983,1.63398 4.37043,2.00954 2.08363,-0.877194 l -7.83141,-12.5045 c -1.38421,-2.05555 -2.58946,0.745436 -2.3349,0.949796 z"
   id="path241"
   inkscape:connector-curvature="0"
   style="fill:#eeeed4" />
  <path
   class="fil3"
   d="m 190.575,74.5842 7.2249,11.1122 c 0.88466,1.4607 3.90644,1.79651 1.86224,-0.783678 l -6.99992,-11.1777 c -1.23751,-1.83745 -2.31488,0.66656 -2.08722,0.849109 z"
   id="path243"
   inkscape:connector-curvature="0"
   style="fill:#eeeed4" />
  <path
   class="fil3"
   d="m 167.209,65.4875 6.1544,10.7555 c 0.88496,1.4607 4.26347,1.43978 2.21928,-1.14041 -1.56049,-3.48846 -3.77528,-6.97662 -6.28646,-10.4642 -1.23751,-1.83745 -2.31488,0.66656 -2.08722,0.849109 z"
   id="path245"
   inkscape:connector-curvature="0"
   style="fill:#eeeed4" />
  <path
   class="fil3"
   d="m 148.885,112.594 c 6.31902,-4.96499 20.1489,-6.37489 27.9459,-6.20161 l -2.55211,-2.05196 c -16.2816,-4.13739 -23.2367,2.58199 -26.0269,5.82964 l 0.6331,2.42394 z"
   id="path247"
   inkscape:connector-curvature="0"
   style="fill:#eeeed4" />
  <path
   class="fil2"
   d="m 7.33216,46.2451 3.12037,-1.35015 c 63.8834,28.052 35.091,10.9864 71.2242,14.1654 -8.66707,-23.992 -17.9577,-34.4051 -44.119,-49.4195 l 0.797721,-2.67192 c 7.73759,3.57899 25.7069,15.9311 38.1863,26.9098 3.84041,4.34414 19.5746,4.50219 25.133299,8.05071 l 30.1858,41.0931 -57.698799,-1.12906 c -0.974892,-0.688669 -5.17353,-3.06779 -9.3169,-8.31183 -4.49741,-5.6916 -45.4638,-20.0321 -57.513,-27.3364 z"
   id="path249"
   inkscape:connector-curvature="0"
   style="fill:#c0a062" />
  <path
   class="fil3"
   d="M 130.696,82.5055 C 92.2324,76.19514 87.2653,83.79022 71.8592,82.074372 l -1.52911,1.69852 c 21.8913,6.31066 27.0191,-2.8936 37.8108,-0.10696 9.29121,2.39914 14.9565,1.71136 25.5097,2.03225 l 0,-3.20881 -2.95455,0.01613 z M 81.0694,19.8871 C 76.91229,16.90327 73.19079,14.48859 70.5311,13.25855 L 62.24735,11.2517 c 8.95359,7.06595 12.3464,7.70114 16.4133,9.84035 l 2.4087,-1.20495 z m 71.8083,35.506 C 127.6682,38.4321 116.3009,48.87928 105.2863,38.9206 l -0.94292,0.570654 c 13.5484,17.0425 23.8877,-2.70956 50.2713,22.8895 l 2.78097,0 -4.51803,-6.98767 z m -137.386,9.20396 0.20675,2.30951 c 4.78812,1.69882 9.09402,3.22494 12.9757,4.59899 l 2.08095,-0.781886 10.3211,2.19896 c -7.0543,-2.45441 -15.4038,-5.27691 -25.5844,-8.32558"
   id="path251"
   inkscape:connector-curvature="0"
   style="fill:#eeeed4" />
  <path
   class="fil4"
   d="m 80.8118,87.4096 6.84546,3.63665 c 10.91,0.07111 23.3173,13.6195 35.9387,13.0492 l 19.4668,-7.70114 -7.70114,-4.70625 -1.92529,0 0.42784,2.78097 -2.56705,1.0696 -3.42273,0 -1.49744,1.49744 -1.71136,0.213921 -1.92529,2.35313 -2.35313,-1.0696 c -10.8388,1.853879 -17.8268,-10.1971 -39.575299,-11.1239 z"
   id="path253"
   inkscape:connector-curvature="0"
   style="fill:#615233" />
  <path
   class="fil5"
   d="m 115.442,105.228 -6.29751,1.046 C 91.46859,93.7835 89.77179,95.3685 78.56369,90.4003 67.37979,85.44278 67.93159,85.44039 53.03279,80.1318 l 1.46667,-0.8515 c 20.6905,5.36385 31.2736,12.4125 36.2479,12.1911 5.04805,-0.224676 19.6162,11.5944 24.6947,13.7566 z M 130.6955,82.5052 C 102.8034,57.0558 117.7461,56.42 91.061,31.2614 l 2.15803,-0.113235 c 20.7503,16.1869 21.1781,41.7859 59.6839,63.3205 l -14.7605,3.85057 -2.78097,0.641762 -0.64176,-1.71136 1.92529,0.213921 0,-1.28352 4.06449,0 -5.77586,-1.71136 -0.21392,-1.71136 6.2037,2.13921 -5.34802,-2.99489 0.21392,-1.0696 2.99489,1.92529 -2.13921,-1.92529 1.92529,-0.427841 3.20881,1.28352 -11.0835,-9.18245 z"
   id="path255"
   inkscape:connector-curvature="0"
   style="fill:#1f1a17" />
  <path
   class="fil3"
   d="m 108.241,94.6246 c 9.81286,-6.49769 21.3604,-1.7039 25.8067,-0.211829 l -1.26859,-2.69373 c -15.6401,-7.56012 -22.381,-2.76603 -25.1712,0.48162 l 0.6331,2.42394 z"
   id="path257"
   inkscape:connector-curvature="0"
   style="fill:#eeeed4" />
  <path
   class="fil2"
   d="m 325.12,93.8861 c -5.23926,4.32383 -7.23506,6.65215 -12.4737,14.9685 9.23175,0.075 16.9018,11.3318 27.6355,10.1003 6.50456,-0.74633 22.0751,7.72773 36.23,5.61661 5.90403,1.66267 16.1325,-0.9982 30.6854,-7.98318 25.6119,-7.23506 51.2253,-12.8899 76.8381,-17.4632 l 1.74632,-1.49685 -2.24527,-1.24737 -61.8697,12.2242 c -6.87952,-2.08722 -19.0912,0.18494 -28.3827,-5.42211 -6.11317,-3.68923 -13.6775,-5.10183 -20.5161,-6.1556 l -3.72419,-1.89601 3.75467,-1.73616 1.70031,-2.47951 -2.46606,-2.26798 1.44456,-1.49655 -0.75679,-2.20255 -6.07762,5.21685 c 9.40862,-11.5699 4.09108,-17.2675 9.14301,-22.4987 5.35011,-5.53983 7.59687,-11.2434 6.36772,-18.021 13.8627,-13.5496 29.181,-26.3714 45.7055,-38.5912 l 4.16339,-4.78782 -5.06299,0.249176 c -20.8181,15.4579 -40.1493,32.6298 -61.2987,49.8345 -14.6055,3.72837 -28.0152,11.9368 -31.5596,21.3198 l -8.98108,16.2158 z"
   id="path259"
   inkscape:connector-curvature="0"
   style="fill:#c0a062" />
  <path
   class="fil3"
   d="m 129.987,54.5775 c 3.43647,2.43828 6.12452,5.37729 9.57743,11.8251 0.88496,1.4607 4.26347,1.43978 2.21928,-1.14041 -1.78247,-3.75974 -5.91747,-8.49378 -8.8535,-11.5335 -1.23721,-1.83775 -3.17057,0.666261 -2.9432,0.848811 z"
   id="path261"
   inkscape:connector-curvature="0"
   style="fill:#eeeed4" />
  <path
   class="fil3"
   d="m 135.121,55.6471 c 3.43647,2.43828 6.12452,5.37729 9.57743,11.8251 0.88496,1.4607 4.26347,1.43978 2.21928,-1.14041 -1.78247,-3.75974 -5.06179,-7.42388 -9.06743,-10.8917 -1.23721,-1.83745 -2.95665,0.0245 -2.72928,0.207049 z"
   id="path263"
   inkscape:connector-curvature="0"
   style="fill:#eeeed4" />
  <path
   class="fil3"
   d="m 142.286,58.2016 c 2.52104,1.78875 3.20941,2.23362 5.74269,6.96377 0.64893,1.0714 3.98323,1.91184 2.48369,0.01882 -1.30772,-2.75796 -2.64383,-5.44631 -5.58225,-7.99035 -0.90767,-1.34806 -2.81114,0.873609 -2.64413,1.00776 z"
   id="path265"
   inkscape:connector-curvature="0"
   style="fill:#eeeed4" />
  <path
   class="fil3"
   d="m 125.067,52.4386 c 2.36687,2.86582 5.26854,5.377 8.72145,11.8248 0.88496,1.4607 4.26347,1.43978 2.21928,-1.14041 -3.17116,-5.37012 -6.28407,-8.44299 -10.9407,-10.6844 z"
   id="path267"
   inkscape:connector-curvature="0"
   style="fill:#eeeed4" />
  <path
   class="fil4"
   d="m 163.842,93.7358 -10.1373,-1.55959 -2.6513,0.623836 c -7.77195,-4.1846 -12.9706,-10.3707 -16.9995,-17.4674 l 1.40363,-1.24767 c 2.98921,3.45739 5.84876,6.26495 8.42178,7.64199 l -3.11918,-6.0824 2.80726,0.935753 2.33938,3.4311 -2.18342,-5.92644 1.87151,0 2.02747,3.4311 -0.93575,-5.45856 0.15596,-1.09171 3.4311,1.55959 4.36685,5.61452 -0.62384,-3.11918 1.71555,-1.09171 5.14664,4.21089 1.40363,0.623836 8.10986,12.3208 -6.55027,2.6513 z"
   id="path269"
   inkscape:connector-curvature="0"
   style="fill:#615233" />
  <path
   class="fil2 str1"
   d="M 81.9639,58.3331 53.8913,61.45228 C 47.88688,56.34418 48.74436,52.89785 41.4926,48.27408 32.4186,42.48836 21.7898,36.06928 13.342,29.63668 l 5.92644,0.935753 24.6415,14.0363 -0.935753,-5.61452 c -9.56548,-7.59 -21.0025,-12.9966 -28.6964,-22.77 l 5.3026,1.24767 30.256,20.5866 c 5.97842,-1.76783 14.6081,-0.311918 23.0819,1.24767 l 9.04562,19.027 z"
   id="path271"
   inkscape:connector-curvature="0"
   style="fill:#c0a062;stroke:#1f1a17;stroke-width:0.22766399" />
  <polygon
   class="fil5"
   points="161.853,85.2384 164.991,89.3549 159.783,86.3474 162.549,89.1257 163.95,90.8646 159.735,88.821 161.361,91.4409 158.292,90.9969 160.214,92.6536 158.424,93.7283 163.173,93.9715 173.561,95.0997 165.109,82.9307 163.399,82.7102 166.938,87.7953 "
   id="polygon273"
   style="fill:#1f1a17" />
  <path
   class="fil3"
   d="m 76.5418,33.8786 c 3.84041,4.34414 19.5746,4.50219 25.1333,8.05071 l 1.88973,4.72239 C 93.24553,41.18806 84.17363,46.017706 73.54213,34.9392 L 76.5418,33.87856 z M 35.9796,55.6928 C 29.67462,53.20523 21.4324,49.71617 10.4525,44.8949 l -3.12037,1.35015 c 4.51833,2.73914 13.1032,6.46781 22.3069,10.3587 l 6.34054,-0.910955 z m 19.0171,5.63095 c 6.58164,0.26023 7.04355,-3.99099 26.68,-2.2635 l 2.15863,-0.415293 0,3.74301 c -11.6449,-0.623836 -15.18,3.11918 -22.77,4.67877 l -6.55027,-2.80726 0.48162,-2.93573 z m 1.99639,-42.7441 C 49.46404,13.24747 42.46589,8.86987 38.35539,6.96875 l -0.797721,2.67192 c 4.47082,2.56585 8.44867,4.99785 12.0157,7.38564 0.998495,0.668651 1.96532,-0.53749 2.90107,0.126082 l 4.51862,1.42723 z"
   id="path275"
   inkscape:connector-curvature="0"
   style="fill:#eeeed4" />
  <polygon
   class="fil4"
   points="92.881,79.8554 81.0281,82.0389 73.2302,73.929 74.7898,73.6171 78.2208,75.4886 78.5328,73.3052 81.34,74.5528 83.5235,74.2409 91.3214,74.8647 "
   id="polygon277"
   style="fill:#615233" />
  <path
   class="fil5"
   d="m 80.7228,82.0218 -6.56073,-0.128472 c -0.974892,-0.688669 -5.17353,-3.06779 -9.3169,-8.31183 -2.17835,-2.75677 -12.9129,-7.54309 -24.7733,-12.5756 l 1.03076,-1.42514 c 29.4266,9.35186 26.4135,14.9607 39.6201,22.441 z m 0.953978,-22.9615 c -6.22939,-17.2442 -12.7809,-27.4739 -25.6872,-37.4385 32.6758,21.0748 19.1877,38.0946 47.496702,58.5455 l -17.779302,0 -0.623836,-1.87151 4.36685,0.623836 -4.36685,-2.18342 0.311918,-1.55959 6.23836,2.49534 -4.36685,-4.05493 1.87151,-1.24767 c -3.73465,-4.01997 -6.22133,-8.45644 -7.46123,-13.3091 z"
   id="path279"
   inkscape:connector-curvature="0"
   style="fill:#1f1a17" />
  <path
   class="fil4"
   d="m 118.77,80.4793 -11.541,-1.24767 c -4.1589,-4.05493 -6.75822,-8.10986 -8.7337,-12.1648 l 4.99068,1.55959 -2.49534,-3.4311 3.74301,3.11918 -2.49534,-4.67877 2.49534,0.311918 -0.31192,-1.24767 4.36685,1.55959 -0.31192,-1.55959 3.74301,2.80726 -1.24767,-2.49534 3.4311,1.55959 10.9171,14.6601 -6.55027,1.24767 z"
   id="path281"
   inkscape:connector-curvature="0"
   style="fill:#615233" />
  <polygon
   class="fil5"
   points="117.674,73.5588 120.44,76.3371 121.841,78.0759 117.626,76.0323 119.252,78.6523 116.183,78.2083 118.105,79.865 116.315,80.6278 121.064,81.1829 130.204,81.9991 124.829,75.0067 119.744,72.4498 122.882,76.5663 "
   id="polygon283"
   style="fill:#1f1a17" />
  <path
   class="fil3"
   d="m 88.7287,47.6275 c 2.71793,2.53568 5.92016,4.65038 10.1783,10.5968 1.06632,1.33402 4.41376,0.876298 2.05316,-1.41797 -3.83952,-4.9145 -7.32379,-7.55863 -12.2314,-9.17887 z"
   id="path285"
   inkscape:connector-curvature="0"
   style="fill:#eeeed4" />
  <path
   class="fil3"
   d="m 95.1663,47.9388 c 3.52073,2.31459 6.31155,5.1565 9.99153,11.4773 0.93605,1.42813 4.31158,1.28741 2.17715,-1.21869 -1.91513,-3.69401 -6.21565,-8.27777 -9.25774,-11.2117 -1.30175,-1.79233 -3.14487,0.778599 -2.91093,0.953082 z"
   id="path287"
   inkscape:connector-curvature="0"
   style="fill:#eeeed4" />
  <path
   class="fil3"
   d="m 85.9214,48.5633 c 2.09798,1.95725 4.57001,3.58974 7.8571,8.18007 0.823116,1.02987 3.40719,0.676419 1.58469,-1.0944 -2.96382,-3.7938 -5.65336,-5.83501 -9.44179,-7.08567 z"
   id="path289"
   inkscape:connector-curvature="0"
   style="fill:#eeeed4" />
  <polygon
   class="fil4"
   points="59.8177,55.5258 57.6343,56.4616 55.4509,55.5258 53.2674,55.2139 58.57,61.1404 68.5514,58.3331 "
   id="polygon291"
   style="fill:#615233" />
  <path
   class="fil5 str1"
   d="m 57.9614,61.2772 -4.07017,0.17508 c -6.00442,-5.1081 -5.14694,-8.55443 -12.3987,-13.1782 -3.40271,-2.16938 -7.02442,-4.4281 -10.667,-6.74328 l 2.16729,-0.353148 13.4125,7.17411 0,-2.49534 -2.49534,-1.24767 -0.463395,-2.78186 3.27065,-0.961149 0.623836,2.80726 30.5694,14.7375 -16.5027,1.13205 0.281443,-1.20943 4.99068,-0.311918 -5.3026,-1.55959 0.311918,-1.24767 5.92644,2.18342 c -6.02025,-2.81981 -11.7286,-6.57567 -18.0608,-8.46002 0.306839,4.11349 5.60436,8.22668 8.40654,12.3399 z"
   id="path293"
   inkscape:connector-curvature="0"
   style="fill:#1f1a17;stroke:#1f1a17;stroke-width:0.22766399" />
  <path
   class="fil3"
   d="M 35.1696,39.63 19.2684,30.57243 13.34196,29.636677 c 3.69581,2.81413 7.809,5.62617 12.0274,8.38324 l 6.68771,1.59813 3.1126,0.01195 z m -3.14398,-13.69 -12.4453,-8.46809 -5.3026,-1.24767 c 3.84699,4.88671 8.62972,8.68201 13.6464,12.2039 l 4.10154,-2.48817 z"
   id="path295"
   inkscape:connector-curvature="0"
   style="fill:#eeeed4" />
  <polygon
   class="fil4"
   points="71.0467,50.5352 76.3493,50.5352 79.4685,57.3974 68.5514,52.4067 71.3587,52.4067 "
   id="polygon297"
   style="fill:#615233" />
  <path
   class="fil2"
   d="m 317.636,106.36 2.24527,2.99369 0.74842,2.74422 -1.49685,0.74842 1.74632,1.49685 -0.74842,0.74843 0.74842,2.49474 c -13.9792,-5.2294 -20.0464,-7.97751 -35.6748,-23.201104 l 10.9769,-13.7211 c 8.98108,-6.19772 20.2442,-3.90614 28.4401,-11.1092 15.4668,-13.5932 42.4107,-35.1708 67.3581,-55.0015 l 3.74212,0.249474 c -29.9166,24.6382 -60.766,50.3075 -61.8697,62.1191 -0.73826,4.22015 -3.58646,8.50275 -8.98108,16.7148 -5.23926,4.32383 -6.98558,6.90163 -12.2242,15.2179 l 3.24317,0 1.74632,-2.49474 z"
   id="path299"
   inkscape:connector-curvature="0"
   style="fill:#c0a062" />
  <path
   class="fil3"
   d="m 65.2222,42.3243 c 3.52073,2.31459 3.81621,1.10127 7.49589,7.42209 0.936351,1.42843 4.31187,1.28771 2.17745,-1.21839 -1.91513,-3.69401 -3.72031,-4.22284 -6.7624,-7.15678 -1.30175,-1.79233 -3.14487,0.778599 -2.91093,0.953082 z"
   id="path301"
   inkscape:connector-curvature="0"
   style="fill:#eeeed4" />
  <path
   class="fil3"
   d="m 61.1673,42.6362 c 3.52073,2.31459 3.81621,0.165818 7.49589,6.48663 0.936351,1.42843 4.31187,1.28741 2.17745,-1.21869 -1.91513,-3.69401 -3.72031,-3.28709 -6.7624,-6.22103 -1.30175,-1.79233 -3.14487,0.778599 -2.91093,0.953082 z"
   id="path303"
   inkscape:connector-curvature="0"
   style="fill:#eeeed4" />
  <path
   class="fil2"
   d="m 158.595,133.979 -2.47652,-0.71974 c -23.761,25.8883 -47.494,19.7865 -63.9151,45.0204 -13.2281,20.3275 -20.2678,5.49143 -32.6719,25.1163 -7.59807,12.0211 -19.9278,7.60613 -33.0528,19.6559 -3.43976,0.78368 0.750216,2.63845 4.7433,5.78034 3.59691,2.82967 7.93329,5.55656 13.3515,2.28351 29.0651,-17.5564 20.8387,-4.66801 38.6183,-14.9969 21.4969,6.93927 24.9212,6.83709 56.0627,-2.88195 32.4215,-8.44568 44.465,9.47226 90.1395,-0.57334 l 0,-2.07766 c -67.901,9.62224 -46.295,-17.5283 -105.851,-23.8133 21.5471,-17.5531 21.9986,-38.1702 35.0519,-52.7936 z"
   id="path305"
   inkscape:connector-curvature="0"
   style="fill:#c0a062" />
  <path
   class="fil3"
   d="m 183.333,209.527 c -16.7193,-5.94078 -21.3392,-18.6962 -59.7899,-22.7539 -9.30196,-1.60918 -18.6039,-1.22974 -27.9059,1.13802 l 2.98234,2.34327 c 14.1492,-1.86045 24.8285,-1.62353 33.2545,0.71377 18.7154,5.19176 28.3095,11.3076 47.9078,19.3105 l 3.5512,-0.75171 z m -25.3771,-75.5474 -1.83745,-0.71974 c -23.761,25.8883 -47.494,19.7865 -63.9151,45.0204 -13.2281,20.3275 -20.2678,5.49143 -32.6719,25.1163 -7.12302,11.2697 -18.4049,8.09403 -30.602,17.5812 -1.97787,1.1912 0.304747,6.21684 1.73527,2.93454 11.8284,-8.35695 27.8862,-8.92312 33.4819,-21.8776 3.23241,-7.48334 15.9682,-7.103 22.0768,-11.6536 8.37487,-6.23836 6.77047,-13.9066 23.1462,-24.381 16.4112,-10.497 32.2488,-9.48869 48.5863,-32.0206 z m 62.2835,80.4076 c 2.89779,-0.44876 5.94347,-1.01672 9.15467,-1.72302 l 0,-2.07766 c -2.6522,0.37585 -5.16845,0.69554 -7.55773,0.96264"
   id="path307"
   inkscape:connector-curvature="0"
   style="fill:#eeeed4" />
  <path
   class="fil4"
   d="m 27.7066,221.97 c -0.40872,0.34538 -0.818336,0.706 -1.22825,1.08245 -3.43976,0.78368 0.750216,2.63845 4.7433,5.78034 3.59691,2.82967 7.93329,5.55656 13.3515,2.28351 29.0651,-17.5564 20.8387,-4.66801 38.6183,-14.9969 21.4969,6.93927 24.9212,6.83709 56.0627,-2.88195 25.3293,-6.59808 38.2207,2.8942 64.428,2.57332 l -2.17237,-1.4846 c -17.9305,2.8709 -30.6848,-8.60821 -54.576,-5.28438 -24.6675,3.43199 -32.0262,14.8065 -65.3566,3.15413 -6.41164,7.53562 -14.2684,4.82516 -19.5788,6.92254 -9.46658,3.73913 -14.4307,7.15051 -23.6651,10.9715 -3.54224,-2.70687 -9.64077,-4.9874 -10.6267,-8.12002 z"
   id="path309"
   inkscape:connector-curvature="0"
   style="fill:#615233" />
  <path
   class="fil4"
   d="m 37.9073,225.829 0,2.98234 c 9.01783,-5.82246 18.8881,-8.66289 28.3322,-12.9945 l -0.213024,-1.91722 c -9.37307,3.83444 -20.8764,4.47351 -28.1192,11.9294 z"
   id="path311"
   inkscape:connector-curvature="0"
   style="fill:#615233" />
  <path
   class="fil4"
   d="m 66.6656,216.456 4.26049,0 8.52097,-5.11258 -0.213024,-1.49117 -1.91722,0.21302 3.19536,-3.40839 -1.27815,-0.42605 c -4.18968,3.40839 -6.88789,6.81678 -12.5684,10.2252 z"
   id="path313"
   inkscape:connector-curvature="0"
   style="fill:#615233" />
  <polygon
   class="fil4"
   points="88.8201,200.692 85.8377,199.201 80.5121,201.119 80.0861,203.036 "
   id="polygon315"
   style="fill:#615233" />
  <polygon
   class="fil4"
   points="96.702,203.888 99.4713,203.888 100.962,205.379 103.519,205.592 105.223,206.657 97.7671,209.853 94.3587,209 94.1457,208.148 92.4415,206.87 86.9029,206.657 86.6898,205.166 91.3764,202.184 94.5717,203.036 "
   id="polygon317"
   style="fill:#615233" />
  <path
   class="fil4"
   d="m 173.391,210.705 2.55629,-0.63907 0.42605,-1.27815 c -39.9775,-11.5741 -40.9715,1.98803 -58.5817,3.62141 -16.1668,-2.98443 -18.934101,0.9973 -30.249501,-4.04746 l -4.04746,2.76932 c 54.250401,13.2783 45.871301,-12.4265 89.896301,-0.42605 z"
   id="path319"
   inkscape:connector-curvature="0"
   style="fill:#615233" />
  <polygon
   class="fil4"
   points="113.993,183.204 112.253,183.864 110.123,183.864 110.549,181.094 115.874,181.946 115.448,184.077 "
   id="polygon321"
   style="fill:#615233" />
  <polygon
   class="fil4"
   points="119.106,184.056 117.152,185.568 115.022,184.929 116.726,181.52 120.987,182.798 120.561,184.929 "
   id="polygon323"
   style="fill:#615233" />
  <polygon
   class="fil4"
   points="104.944,179.828 109.27,181.094 108.398,183.32 104.797,183.224 103.342,181.074 100.962,182.585 98.8322,181.946 101.602,177.473 "
   id="polygon325"
   style="fill:#615233" />
  <path
   class="fil3"
   d="m 141.79,155.565 -7.25806,11.1633 c -0.88885,1.46727 -3.92467,1.80458 -1.87121,-0.78756 l 7.03249,-11.2287 c 1.24289,-1.84611 2.32534,0.66925 2.09678,0.85299 z"
   id="path327"
   inkscape:connector-curvature="0"
   style="fill:#eeeed4" />
  <path
   class="fil3"
   d="m 105.471,200.285 c 12.0847,-3.9414 19.3718,-0.21243 21.5462,-1.27695 l 0.64834,-2.05465 c -14.2696,-2.8222 -19.6236,-0.13385 -22.8277,0.90767 l 0.63309,2.42394 z"
   id="path329"
   inkscape:connector-curvature="0"
   style="fill:#eeeed4" />
  <path
   class="fil3"
   d="m 121.127,162.595 -7.47109,9.03307 c -0.88885,1.46727 -4.35072,1.37853 -2.29726,-1.21361 l 7.67156,-8.67245 c 1.24289,-1.84611 2.32534,0.66925 2.09678,0.85299 z"
   id="path331"
   inkscape:connector-curvature="0"
   style="fill:#eeeed4" />
  <path
   class="fil3"
   d="m 135.186,157.482 -7.04534,10.95 c -0.88915,1.46757 -5.20311,-0.53839 -3.14965,-3.13053 l 8.09821,-8.67245 c 1.24289,-1.84611 2.32534,0.66925 2.09678,0.85299 z"
   id="path333"
   inkscape:connector-curvature="0"
   style="fill:#eeeed4" />
  <path
   class="fil3"
   d="m 126.452,162.169 -5.97992,9.03277 c -0.88885,1.46757 -4.35042,1.37883 -2.29696,-1.21331 l 6.18009,-8.67245 c 1.24289,-1.84611 2.32534,0.66925 2.09678,0.85299 z"
   id="path335"
   inkscape:connector-curvature="0"
   style="fill:#eeeed4" />
  <path
   class="fil2"
   d="m 262.222,182.798 1.91722,2.55629 c -16.5669,14.9849 -35.0546,3.4783 -49.3711,12.8744 -17.2317,11.3091 -33.6507,4.73703 -46.9158,3.10245 -15.9768,-8.94702 -28.3322,-12.5684 -44.096,-14.6987 19.7405,-17.255 21.5866,-32.8057 32.3797,-49.2086 l 1.70419,0.63907 -5.11258,7.8819 c 5.46782,-3.62111 10.0835,-7.24253 13.8466,-10.8642 l 23.8587,7.24283 c -4.26049,9.87023 -10.0121,18.7464 -17.894,22.7936 10.7432,2.11799 17.554,6.02712 28.5966,12.1675 20.5976,11.4534 46.3028,17.8412 61.0866,5.51353 z"
   id="path337"
   inkscape:connector-curvature="0"
   style="fill:#c0a062" />
  <polygon
   class="fil4"
   points="166.361,154.466 161.674,154.253 165.083,152.762 164.231,150.845 161.248,151.271 158.692,151.697 163.592,148.502 162.526,147.01 149.532,152.336 145.485,162.774 162.526,162.561 164.444,161.07 162.1,159.579 167.426,158.514 166.574,157.236 164.231,156.383 166.361,155.957 "
   id="polygon339"
   style="fill:#615233" />
  <polygon
   class="fil4"
   points="156.775,175.982 157.84,177.899 138.242,178.751 132.916,179.816 141.491,173.717 138.559,173.128 141.224,169.165 155.923,168.1 157.84,170.017 154.432,169.804 158.266,171.295 158.692,172.573 156.775,173.212 149.319,172.786 157.84,174.704 "
   id="polygon341"
   style="fill:#615233" />
  <polygon
   class="fil4"
   points="156.562,180.668 137.816,179.177 135.472,187.485 147.615,188.55 147.615,187.485 151.662,188.763 154.858,188.763 151.875,185.568 158.053,185.781 155.71,183.011 157.627,182.585 "
   id="polygon343"
   style="fill:#615233" />
  <path
   class="fil5"
   d="m 253.055,191.881 c -13.3721,4.42421 -27.1028,-0.99252 -38.2873,6.34771 l 0.8016,-2.64921 -2.34327,-0.63907 5.96468,-3.19536 c 9.6572,0.78099 19.5274,0.70988 28.9713,-0.21303 l 4.89299,0.34897 z m -100.328,-45.9362 5.11258,-7.8819 -1.70419,-0.63907 c -10.7931,16.4029 -12.6392,31.9536 -32.3797,49.2086 l 13.4205,2.55629 3.83444,-1.70419 -0.63907,-1.49117 -2.34327,0 1.70419,-1.91722 -2.34327,-0.63908 -0.21303,-1.06512 2.76932,-4.26049 -2.13024,0 -2.34327,2.13024 -2.76932,2.34327 c 5.00622,-6.85203 9.48003,-13.1714 12.7815,-18.3201 l 4.68653,-0.21302 7.45585,-1.27815 -2.13024,-1.91722 -2.13024,-0.21302 1.27815,-1.49117 -0.85209,-0.8521 -0.42605,-1.70419 -5.32561,2.76932 4.68653,-13.4205 z"
   id="path345"
   inkscape:connector-curvature="0"
   style="fill:#1f1a17" />
  <path
   class="fil4"
   d="m 170.245,136.196 20.1874,6.12811 c -0.26621,0.61666 -0.53898,1.22496 -0.81864,1.8243 l -0.45951,-0.75918 -1.70419,1.27815 c -7.0295,0.64296 -14.059,-2.26947 -21.0894,-6.1777 l 3.88433,-2.29367 z m 44.5227,62.0334 c -17.2317,11.3091 -33.6507,4.73703 -46.9158,3.10245 l -6.1777,-4.26049 c 23.1799,5.07225 33.3776,8.66528 52.191,-2.13024 l 2.13024,0.42605 -1.22765,2.86223 z"
   id="path347"
   inkscape:connector-curvature="0"
   style="fill:#615233" />
  <path
   class="fil3"
   d="m 239.872,189.472 c -12.4761,-0.37137 -26.5067,-5.38626 -38.7364,-12.1866 -11.0426,-6.14036 -17.8534,-10.0495 -28.5966,-12.1675 -7.93359,-1.22556 -17.2006,-1.1189 -26.8411,-0.63907 l -2.76932,3.62141 2.98234,-1.06512 c 53.9011,-0.18972 52.2026,25.8222 93.961,22.4369 z m -69.8215,-53.3352 -3.47621,-1.05526 c -3.76303,3.62171 -8.37876,7.24312 -13.8466,10.8642 l -0.8521,2.13024 18.1749,-11.9392 z"
   id="path349"
   inkscape:connector-curvature="0"
   style="fill:#eeeed4" />
  <path
   class="fil3"
   d="m 161.071,176.852 c 13.071,-0.98176 19.4345,4.02446 21.3332,2.13144 l 0.64833,-2.05465 c -13.9135,-2.10903 -19.197,-3.1141 -22.6146,-2.50072 l 0.6331,2.42394 z"
   id="path351"
   inkscape:connector-curvature="0"
   style="fill:#eeeed4" />
  <path
   class="fil4"
   d="m 214.291,191.958 c -12.9234,7.81049 -24.4267,9.37247 -34.5099,4.68653 l 0.42605,-1.70419 3.62141,0.8521 2.13024,-0.8521 -2.55629,-0.63907 -2.13024,-1.27815 6.60375,-1.06512 -4.89956,-1.06512 -0.63907,-1.06512 1.06512,-0.8521 -0.8521,-2.13024 3.40839,0.63907 0,-2.98234 c 4.01549,-0.0245 8.06803,0.0595 11.5033,-1.70419 l 3.40839,2.55629 -0.8521,2.34327 2.76932,-0.85209 7.45585,3.19536 0,1.27815 4.04746,0.63907 z"
   id="path353"
   inkscape:connector-curvature="0"
   style="fill:#615233" />
  <polygon
   class="fil4"
   points="198.004,158.459 192.879,158.767 192.879,159.383 199.644,159.486 202.822,161.026 202.822,161.95 197.082,162.463 200.566,163.593 201.387,165.133 197.389,165.441 200.464,167.186 200.566,168.624 194.416,168.316 194.416,170.164 191.444,170.061 187.754,168.829 182.117,163.388 182.732,159.383 186.217,156.817 189.804,156.919 187.652,155.174 189.907,153.942 195.954,153.326 200.874,153.429 200.976,154.455 199.131,155.379 191.547,156.201 201.694,156.098 201.694,157.433 "
   id="polygon355"
   style="fill:#615233" />
  <path
   class="fil5"
   d="m 194.628,144.014 -4.23091,-2.03314 c -3.99279,10.385 -9.25087,18.9801 -17.6213,23.0595 4.27871,1.08663 8.67693,2.35283 13.5036,4.26228 l 1.67999,0.0394 -0.20496,-2.05346 2.97248,1.33491 -0.30743,-1.74542 -2.35761,-0.41081 2.35761,-0.61607 -0.71765,-1.43739 -1.63996,-0.10248 0.51269,-0.51359 -0.51269,-1.64265 -0.92231,-0.10248 -0.30744,-1.8482 -1.63996,-0.30803 0,1.64265 -1.02509,0.71884 -1.435,-0.20525 0.30744,-1.74542 c 4.78513,-3.17206 6.70056,-10.8621 11.5885,-16.2932 z m 19.9409,39.4573 3.22285,1.42156 c 16.9571,-1.53927 31.4858,-5.10691 43.6228,-14.7976 l -5.45139,-0.008 c -3.91481,4.8894 -13.174,4.63963 -23.9295,2.95097 l 0.10248,0.61607 -1.02509,0.10278 0.20496,1.12936 -2.35731,-0.10278 -0.92261,0.71885 1.94739,0.71854 -1.02479,0.51329 -1.94769,-0.71854 -0.40992,0.71854 -0.92231,-0.10248 0.10248,1.64265 -1.23004,-0.10278 0,0.71885 -1.84492,-0.20556 -0.10248,1.54017 -1.12756,0 -0.51239,1.54017 -2.97248,-0.30803 0.10248,0.61607 2.25483,0.51329 -1.22974,0.82132 -3.99757,0.30804"
   id="path357"
   inkscape:connector-curvature="0"
   style="fill:#1f1a17" />
  <path
   class="fil5"
   d="m 234.903,172.012 2.15265,0.9241 10.967,-0.10278 c 1.81056,-0.34239 3.92885,-0.88974 4.8174,-1.95068 l -1.84492,-0.10278 -12.1971,0.20526 0,0.71885 9.42984,-0.10278 -9.42984,0.61606 -0.92261,-0.51329 -2.97248,0.30804 z"
   id="path359"
   inkscape:connector-curvature="0"
   style="fill:#1f1a17" />
  <polygon
   class="fil3"
   points="202.719,173.655 206.716,172.525 206.716,171.499 202.719,171.704 "
   id="polygon361"
   style="fill:#eeeed4" />
  <polygon
   class="fil3"
   points="212.559,178.788 214.738,177.283 213.481,176.529 209.176,176.529 206.204,178.685 209.051,179.517 "
   id="polygon363"
   style="fill:#eeeed4" />
  <polygon
   class="fil3"
   points="209.176,173.757 205.179,173.963 203.334,176.221 204.747,176.848 209.176,174.784 "
   id="polygon365"
   style="fill:#eeeed4" />
  <polygon
   class="fil2"
   points="256.016,85.9029 253.272,84.905 285.953,57.2133 290.443,56.9638 290.443,58.2112 "
   id="polygon367"
   style="fill:#c0a062" />
  <polygon
   class="fil3"
   points="290.443,58.2112 280.729,66.025 278.718,64.947 283.516,59.2781 285.953,57.2133 290.443,56.9638 "
   id="polygon369"
   style="fill:#eeeed4" />
  <path
   class="fil3"
   d="m 339.097,43.1098 -3.32384,-0.707193 c 2.51984,-2.08304 5.03938,-4.1353 7.55863,-6.14514 l 9.23055,-5.48844 -2.24527,3.74212 c -3.93482,2.9429 -7.67007,5.80753 -11.2201,8.59865 z"
   id="path371"
   inkscape:connector-curvature="0"
   style="fill:#eeeed4" />
  <path
   class="fil3"
   d="m 337.657,58.4365 c -4.8888,4.08092 -9.29778,7.8329 -13.036,11.1182 -8.19591,7.20309 -19.459,4.91151 -28.4401,11.1092 l -3.89419,4.86759 c 6.87743,-3.90973 14.9634,-6.95332 21.8459,-7.64587 8.04055,-0.808775 13.8059,-10.0677 25.3146,-19.1638 l -1.79024,-0.285327 z m 46.8615,-34.3752 c 3.70895,-3.08303 7.46332,-6.1789 11.2027,-9.25864 l -3.74212,-0.249474 c -3.50818,2.78844 -7.05609,5.61183 -10.6058,8.44269 l 3.14517,1.06542 z"
   id="path373"
   inkscape:connector-curvature="0"
   style="fill:#eeeed4" />
  <path
   class="fil2"
   d="m 333.353,118.584 c 5.30081,7.96197 15.7369,13.1594 29.6875,16.4653 36.8117,-7.56699 81.3284,-12.1418 94.0519,-18.2116 l -4.24107,-0.49895 c -39.9285,8.7095 -58.8064,10.1624 -69.713,9.74175 -4.95722,-0.19121 -2.33132,-1.56138 -9.72144,-1.42305 -16.1815,0.30325 -23.882,-6.37728 -40.0638,-6.07343 z"
   id="path375"
   inkscape:connector-curvature="0"
   style="fill:#c0a062" />
  <path
   class="fil3"
   d="m 438.387,121.966 c 8.34798,-1.65579 14.9278,-3.32593 18.7049,-5.12782 l -4.24107,-0.49895 c -4.36715,0.95249 -8.48243,1.81862 -12.3632,2.60439 l -2.10066,3.02238 z m -105.034,-3.3815 c 16.1818,-0.30385 23.8823,6.37669 40.0638,6.07343 1.3854,-0.0257 2.41945,9e-4 3.21628,0.0633 l -0.61995,2.84431 c -15.6338,3.5757 -25.0308,-5.07285 -37.1717,-5.73791 l -5.48844,-3.24317 z"
   id="path377"
   inkscape:connector-curvature="0"
   style="fill:#eeeed4" />
  <path
   class="fil5"
   d="m 333.353,118.584 c 5.30081,7.96197 15.7369,13.1594 29.6875,16.4653 10.353,-2.12815 21.3159,-4.01997 32.0095,-5.77466 l -1.82311,-0.96115 -31.1843,4.98949 c -9.56339,-4.90643 -18.1286,-5.5718 -28.6896,-14.719 z"
   id="path379"
   inkscape:connector-curvature="0"
   style="fill:#1f1a17" />
  <polygon
   class="fil4"
   points="363.29,128.812 350.317,126.318 347.323,125.32 340.837,124.072 362.292,133.054 370.774,132.056 "
   id="polygon381"
   style="fill:#615233" />
  <path
   class="fil4"
   d="m 371.475,93.9443 c 4.92137,0.485205 6.09973,-0.27726 9.56548,-1.87151 l -2.2874,-0.41589 c -1.66356,1.59425 -5.47589,0.27726 -7.69397,0.207945 l 0.41589,2.07945 z"
   id="path383"
   inkscape:connector-curvature="0"
   style="fill:#615233" />
  <path
   class="fil5"
   d="m 352.906,51.6965 c -11.0056,10.5317 -18.5194,19.5041 -19.0539,25.2253 -0.73827,4.22015 -3.58646,8.50275 -8.98108,16.7148 -5.23926,4.32383 -6.98558,6.90163 -12.2242,15.2179 l 3.24317,0 1.74632,-2.49474 2.24527,2.99369 0.74842,2.74422 -1.49685,0.74842 1.74632,1.49685 -0.74842,0.74843 0.74842,2.49474 c -4.80515,-1.79741 -8.67574,-3.30203 -12.3213,-5.12095 2.05017,-7.62017 4.65905,-14.982804 12.342,-21.664204 12.8191,-11.1481 7.4433,-21.7888 32.0059,-39.1044 z"
   id="path385"
   inkscape:connector-curvature="0"
   style="fill:#1f1a17" />
  <path
   class="fil3"
   d="m 323.077,81.1655 -6.20818,10.0883 c -0.60352,1.29338 -4.02475,2.07885 -2.55928,-0.249474 l 5.9587,-9.85708 c 0.86255,-1.63817 2.98115,-0.154166 2.80875,0.01823 z"
   id="path387"
   inkscape:connector-curvature="0"
   style="fill:#eeeed4" />
  <path
   class="fil3"
   d="m 310.108,84.4496 -5.05044,8.14452 c -0.44248,0.948302 -2.95097,1.52403 -1.87629,-0.182848 l 4.86759,-7.97482 c 0.6322,-1.20106 2.18552,-0.112936 2.05914,0.01315 z"
   id="path389"
   inkscape:connector-curvature="0"
   style="fill:#eeeed4" />
  <path
   class="fil3"
   d="m 315.845,83.4517 -5.05044,7.3961 c -0.44248,0.948302 -3.20044,1.52403 -2.12576,-0.182848 l 4.86759,-7.97482 c 0.6322,-1.20106 2.43499,0.635189 2.30861,0.761569 z"
   id="path391"
   inkscape:connector-curvature="0"
   style="fill:#eeeed4" />
  <path
   class="fil3"
   d="m 305.866,83.9507 -5.05044,8.14452 c -0.44248,0.948302 -3.20014,1.52403 -2.12546,-0.182848 l 4.86759,-7.97482 c 0.6322,-1.20106 2.43499,-0.112936 2.30831,0.01315 z"
   id="path393"
   inkscape:connector-curvature="0"
   style="fill:#eeeed4" />
  <path
   class="fil3"
   d="m 303.428,85.291 -6.63602,6.91388 c -0.63011,0.835366 -3.20343,0.8757 -1.79681,-0.569758 l 6.4218,-6.7863 c 0.86853,-1.04301 2.16102,0.344783 2.01103,0.442182 z"
   id="path395"
   inkscape:connector-curvature="0"
   style="fill:#eeeed4" />
  <path
   class="fil2"
   d="m 361.974,93.6769 c 16.9293,5.33606 32.723,15.8994 53.4682,12.8057 5.90403,1.66267 8.23057,-6.82066 22.7834,-13.8056 26.6516,-5.15561 47.0664,-13.3058 72.6792,-17.8791 l -0.49895,-2.74422 -50.4327,12.2242 c -6.87952,-2.08722 -15.3488,3.09587 -24.6397,-2.51088 -6.11287,-3.68864 -15.1331,-1.56676 -21.9717,-2.62053 l -5.17981,-1.89601 4.3785,-0.696437 0.86853,-3.72718 -1.84223,-1.02031 -3.33818,1.20674 3.818,-4.282 -1.71077,-1.0215 c 9.82451,-7.20309 12.4095,-6.03907 13.9258,-8.15049 4.49174,-6.25479 5.30947,-8.54009 8.23923,-16.5654 13.8627,-13.5496 24.8142,-19.7171 41.7546,-30.6892 l 4.99517,-4.78782 -5.06299,0.249176 c -20.5029,15.1122 -41.2383,26.3176 -61.5067,37.9817 -10.6545,0.401251 -25.104,-0.331935 -30.1039,7.59538 -9.803,16.5194 -12.4316,24.9334 -20.623,40.3339 z"
   id="path397"
   inkscape:connector-curvature="0"
   style="fill:#c0a062" />
  <path
   class="fil3"
   d="m 380.754,43.88 c -4.95573,4.13889 -9.97151,8.30376 -15.0934,12.4704 -14.6055,3.72837 -28.0152,11.9368 -31.5596,21.3198 l 2.74422,-1.49685 c 5.90403,-8.81437 16.1325,-14.9679 30.6854,-18.4611 l 12.4737,-11.2264 0.74962,-2.60589 z m 88.8739,57.9345 c 4.80246,-0.93665 9.60521,-1.83207 14.4074,-2.68954 l 1.74632,-1.49685 -2.24527,-1.24737 -13.4875,2.66475 -0.42097,2.76902 z m -96.86,-4.78722 c 6.83859,1.05377 14.4029,2.46636 20.5161,6.1556 9.2915,5.60705 21.5032,3.33489 28.3827,5.42211 l -9.48003,2.24527 c -11.9512,-0.64684 -17.4166,-2.29248 -25.8754,-7.18038 -8.09313,-4.67668 -20.9842,-2.46248 -34.9216,-6.23387 -10.8105,-2.92527 -22.6024,-0.587087 -29.5127,-0.05736 l 2.49474,-2.74422 c 9.2691,-4.56732 28.0624,1.13653 48.3963,2.39286 z m 45.9248,-79.0347 c 3.01222,-2.3343 6.06806,-4.6471 9.16632,-6.93808 l 4.16339,-4.78782 -5.06299,0.249176 c -2.83475,2.10485 -5.64171,4.24166 -8.43015,6.40597 l 0.16343,5.07076 z"
   id="path399"
   inkscape:connector-curvature="0"
   style="fill:#eeeed4" />
  <path
   class="fil4"
   d="m 369.344,96.699 c 4.92137,0.485205 5.68383,-0.06932 9.14959,-2.2874 l -1.87151,-0.41589 c -1.66356,1.59425 -5.47589,0.693151 -7.69397,0.623836 l 0.41589,2.07945 z"
   id="path401"
   inkscape:connector-curvature="0"
   style="fill:#615233" />
  <path
   class="fil5"
   d="m 376.512,124.571 c 5.90403,1.66267 16.1325,-0.9982 30.6854,-7.98318 10.8048,-3.05225 21.6102,-5.82336 32.4155,-8.35067 l -1.48071,-1.12936 -32.6812,6.73581 c -5.52907,6.19593 -16.091,9.68797 -28.939,10.7274 z m -3.74391,-27.5441 -3.72419,-1.89601 3.75467,-1.73616 1.70031,-2.47951 -2.46606,-2.26798 1.44456,-1.49655 -0.75679,-2.20255 -6.07762,5.21685 c 9.40862,-11.5699 4.09108,-17.2675 9.14301,-22.4987 5.35011,-5.53983 7.59687,-11.2434 6.36772,-18.021 4.33189,-4.23419 8.8063,-8.39758 13.4149,-12.4931 l -2.59125,0.851201 -15.2179,14.22 c 0.79055,6.02922 -0.70659,11.8505 -7.23476,17.2137 -0.49925,10.4779 -5.65545,18.9601 -15.4674,25.4464 l 17.7109,2.14339 z"
   id="path403"
   inkscape:connector-curvature="0"
   style="fill:#1f1a17" />
  <path
   class="fil3"
   d="m 372.224,62.7047 -7.20608,12.3333 c -0.60352,1.29338 -4.02475,2.07885 -2.55928,-0.249474 l 5.9587,-9.85708 c 0.86255,-1.63817 3.97904,-2.39914 3.80665,-2.22675 z"
   id="path405"
   inkscape:connector-curvature="0"
   style="fill:#eeeed4" />
  <path
   class="fil4"
   d="m 406.698,111.1 -3.99159,3.74212 -6.23686,3.24317 7.48423,-2.49474 c -7.04594,5.8625 -16.7614,8.21861 -27.6917,8.98108 l -5.98739,-1.74632 0,-0.9979 -1.9958,-0.74842 0.74842,-0.9979 2.24527,-0.74842 -14.22,-0.9979 -0.74842,-2.24527 4.24107,-1.24737 2.99369,1.9958 7.48423,-0.24947 2.24527,-1.49685 -0.49895,-1.9958 -3.49264,1.74632 -5.73791,0 -0.24947,-2.49474 11.2264,-0.74843 1.24737,-0.49895 -1.49685,-0.49895 -0.24948,-1.74632 2.24527,0 0.24948,-1.49685 0.9979,-1.24737 5.98739,-0.49894 0.99789,1.49685 -2.24527,1.24737 3.24317,0 -0.74842,2.24527 4.49054,-1.49685 0.24947,1.49685 -1.24737,1.49685 2.99369,0.49894 3.24317,-1.24737 3.49264,0.9979 8.73161,-1.24737 z"
   id="path407"
   inkscape:connector-curvature="0"
   style="fill:#615233" />
  <path
   class="fil3"
   d="m 366.163,63.2231 -6.79855,11.6357 c -0.56946,1.22018 -3.79709,1.96114 -2.41437,-0.235432 l 5.62169,-9.29927 c 0.81356,-1.54555 3.75377,-2.2635 3.59124,-2.10096 z"
   id="path409"
   inkscape:connector-curvature="0"
   style="fill:#eeeed4" />
  <path
   class="fil3"
   d="m 360.674,64.221 -6.79855,11.6357 c -0.56946,1.22018 -3.79709,1.96114 -2.41437,-0.235432 l 5.62169,-9.29927 c 0.81356,-1.54555 3.75377,-2.2635 3.59124,-2.10096 z"
   id="path411"
   inkscape:connector-curvature="0"
   style="fill:#eeeed4" />
  <path
   class="fil3"
   d="m 354.747,68.2631 -6.15978,9.0002 c -0.58081,1.02389 -3.81532,1.61307 -2.41198,-0.225871 l 4.96081,-7.04086 c 0.82819,-1.29577 3.77498,-1.86912 3.61096,-1.73347 z"
   id="path413"
   inkscape:connector-curvature="0"
   style="fill:#eeeed4" />
  <path
   class="fil3"
   d="m 348.541,69.2888 -4.44094,9.96105 c -0.38721,1.11173 -3.46306,2.27306 -2.41318,0.211829 l 3.61394,-7.81826 c 0.58141,-1.42365 3.37732,-2.51745 3.24018,-2.35462 z"
   id="path415"
   inkscape:connector-curvature="0"
   style="fill:#eeeed4" />
  <polygon
   class="fil4"
   points="332.854,105.861 333.852,107.108 346.824,109.353 345.328,111.349 330.858,109.353 327.864,109.603 326.617,107.857 314.642,107.857 315.141,105.611 316.389,105.611 316.389,103.616 317.636,103.616 317.636,101.121 321.378,101.62 321.129,100.123 319.133,99.8734 321.129,97.8776 339.839,97.3787 349.07,100.871 349.319,102.119 338.592,102.618 339.091,103.117 344.579,104.115 347.323,105.112 347.573,106.36 "
   id="polygon417"
   style="fill:#615233" />
  <polygon
   class="fil4"
   points="340.338,112.347 319.881,108.356 324.621,111.1 338.592,113.345 345.827,113.844 "
   id="polygon419"
   style="fill:#615233" />
  <polygon
   class="fil4"
   points="346.076,116.588 333.103,114.343 329.611,115.59 343.332,118.584 "
   id="polygon421"
   style="fill:#615233" />
  <path
   class="fil2"
   d="m 507.42,11.6494 -5.82246,0.41589 -25.9931,15.8038 c -5.45856,0.857774 -8.00589,1.29966 -15.9598,6.52428 -8.05011,5.28796 -18.6111,4.86938 -27.7087,8.65572 l -33.0633,34.5189 48.4512,6.86219 c 13.863,-6.23836 18.1605,-12.4767 41.589,-18.7151 l 25.5773,-7.48603 -2.2874,-2.49534 c -11.3563,3.60438 -23.6866,7.20877 -42.8367,10.8131 l -7.07014,-0.831781 -0.20795,-0.207945 -1.66356,-1.03973 1.24767,-1.87151 -1.45562,-1.45562 -2.91123,2.07945 -3.32712,-1.03973 1.87151,-1.87151 1.66357,-2.70329 2.28739,-1.45562 3.95097,-0.41589 -0.83179,-1.24767 -1.66356,-0.41589 0.83178,-2.49534 -2.07945,0 0.20795,-1.66356 -1.24767,-0.41589 -3.32712,1.45562 c 1.94112,-6.82753 12.1997,-14.3832 27.6567,-23.9137 10.12,-5.90941 18.646,-10.3109 24.1216,-15.3879 z"
   id="path423"
   inkscape:connector-curvature="0"
   style="fill:#c0a062" />
  <polygon
   class="fil4"
   points="332.954,112.919 330.666,114.79 327.547,112.087 "
   id="polygon425"
   style="fill:#615233" />
  <polygon
   class="fil4"
   points="336.905,81.7269 340.024,81.7269 339.4,84.2223 337.321,84.4302 336.073,89.005 337.944,88.3812 339.816,87.3415 341.895,88.7971 343.559,87.7573 346.886,90.2527 344.183,91.9162 335.033,92.956 338.568,90.4606 330.874,91.5004 330.666,92.5401 325.676,93.5798 334.617,79.8554 337.944,79.2316 "
   id="polygon427"
   style="fill:#615233" />
  <path
   class="fil3"
   d="m 496.881,77.5259 c 4.56464,-0.960551 9.22129,-1.87061 14.0235,-2.72809 l -0.49895,-2.74422 -12.3022,2.98174 -1.22228,2.49056 z m -36.9082,6.75194 C 453.09328,82.19062 444.624,87.37371 435.3331,81.76696 429.22023,78.07832 420.2,80.2002 413.3614,79.14643 399.9364,81.94742 392.75,72.06375 373.7108,75.07268 l 0,2.91123 c 6.98648,-2.22406 14.8857,0.09262 21.9514,2.58467 14.1086,4.97634 24.7595,1.46996 35.6799,4.30978 12.5523,3.26438 20.0793,2.07258 28.6307,-0.600531 z m 4.12723,-69.37 c 3.37343,-2.28829 6.74358,-4.66263 10.1072,-7.14184 l 5.06299,-0.249176 -4.99517,4.78782 -10.175,2.6032 z m -25.7912,16.1361 c -8.58342,5.03371 -17.137,9.8287 -25.6083,14.7038 -10.6545,0.401251 -25.104,-0.331935 -30.1039,7.59538 l -0.15208,1.76694 c 7.69397,-4.1589 18.9923,-6.65425 33.8951,-7.48603 l 18.923,-10.8131 3.95096,-4.1589 -0.90468,-1.60799 z"
   id="path429"
   inkscape:connector-curvature="0"
   style="fill:#eeeed4" />
  <polygon
   class="fil4"
   points="422.786,69.6661 416.548,74.2409 420.291,72.9932 421.954,73.825 413.013,79.4395 405.111,75.9045 410.725,65.9231 420.499,61.5563 415.924,65.2993 423.618,60.9324 425.281,61.7642 416.964,68.2105 422.37,65.5072 423.618,66.131 416.964,70.4979 420.291,69.2502 "
   id="polygon431"
   style="fill:#615233" />
  <path
   class="fil5"
   d="m 470.582,84.7406 c -10.2302,2.85178 -20.6965,5.68085 -32.3564,7.93628 -14.5529,6.98499 -16.8794,15.4683 -22.7834,13.8056 -2.91721,0.43501 -5.73642,0.59964 -8.47526,0.54735 18.2349,-4.20611 20.2502,-15.6903 32.247,-16.3613 l 2.2874,-0.831781 c 8.80271,-1.10904 17.6057,-2.98085 26.409,-5.19863 l 2.67162,0.102479 z M 453.4839,25.8222 c -7.05579,4.85833 -13.5986,9.9736 -20.963,17.1716 -2.92976,8.02531 -3.74749,10.3106 -8.23923,16.5654 -1.51627,2.11142 -4.10124,0.947405 -13.9258,8.15049 l 1.71077,1.0215 -3.818,4.282 3.33818,-1.20674 1.84223,1.02031 -0.86853,3.72718 -4.3785,0.696437 5.17981,1.89601 c -3.51296,1.06811 -9.72891,0.05677 -14.9051,-1.78636 12.9622,-20.5328 23.9265,-16.0886 27.8661,-26.8718 3.74242,-10.2428 15.595,-17.367 27.2393,-27.4019 l 2.91123,-0.623836 -2.98951,3.35969 z"
   id="path433"
   inkscape:connector-curvature="0"
   style="fill:#1f1a17" />
  <path
   class="fil3"
   d="m 413.109,52.0392 -8.62823,10.3518 c -0.76306,1.10934 -4.06897,1.30653 -2.34207,-0.631006 l 7.08119,-8.24252 c 1.05795,-1.38989 4.07644,-1.61187 3.88911,-1.47832 z"
   id="path435"
   inkscape:connector-curvature="0"
   style="fill:#eeeed4" />
  <path
   class="fil3"
   d="m 417.684,52.871 -8.62823,10.3518 c -0.76306,1.10934 -4.06897,1.30653 -2.34207,-0.631006 l 7.08119,-8.24252 c 1.05795,-1.38989 4.07644,-1.61187 3.88911,-1.47832 z"
   id="path437"
   inkscape:connector-curvature="0"
   style="fill:#eeeed4" />
  <path
   class="fil3"
   d="m 406.663,53.0789 -6.34083,8.48034 c -0.76306,1.10934 -4.06897,1.30653 -2.34207,-0.631006 l 7.08119,-8.24252 c 1.05795,-1.38989 1.78934,0.259931 1.60172,0.393184 z"
   id="path439"
   inkscape:connector-curvature="0"
   style="fill:#eeeed4" />
  <path
   class="fil3"
   d="m 399.593,54.3269 -4.88522,7.23237 c -0.76306,1.10934 -4.06897,1.30653 -2.34207,-0.631006 l 5.62557,-6.99485 c 1.05795,-1.38959 1.78905,0.259931 1.60172,0.393482 z"
   id="path441"
   inkscape:connector-curvature="0"
   style="fill:#eeeed4" />
  <path
   class="fil3"
   d="m 440.142,46.425 -3.22166,4.94497 c -0.76306,1.10934 -4.06897,1.30653 -2.34207,-0.631006 l 3.96201,-4.70715 c 1.05795,-1.38989 1.78905,0.259633 1.60172,0.393184 z"
   id="path443"
   inkscape:connector-curvature="0"
   style="fill:#eeeed4" />
  <path
   class="fil3"
   d="m 390.027,54.9507 -2.18163,3.48936 c -0.76336,1.10934 -4.06897,1.51447 -2.34207,-0.423061 l 2.92199,-3.45978 c 0.50373,2.2145 1.23482,3.86402 1.60172,0.393482 z"
   id="path445"
   inkscape:connector-curvature="0"
   style="fill:#eeeed4" />
  <path
   class="fil4"
   d="m 371.631,82.1428 c 3.46575,-0.55452 6.93151,-1.94082 10.3973,-4.1589 l -3.74301,-0.623836 c -1.66356,1.59425 -3.60438,2.35671 -5.82246,2.2874 l -0.83178,2.49534 z"
   id="path447"
   inkscape:connector-curvature="0"
   style="fill:#615233" />
  <path
   class="fil4"
   d="m 370.176,85.6779 c 4.92137,0.485205 9.42685,-1.52493 12.8926,-3.74301 l -4.36685,-0.207945 c -1.66356,1.59425 -5.47589,1.52493 -7.69397,1.45562 l -0.83178,2.49534 z"
   id="path449"
   inkscape:connector-curvature="0"
   style="fill:#615233" />
  <path
   class="fil4"
   d="m 373.295,90.8765 c 4.92137,0.485205 6.93151,-0.485205 10.3973,-2.70329 l -1.87151,-0.41589 c -1.66356,1.59425 -5.47589,0.693151 -7.69397,0.623836 l -0.83178,2.49534 z"
   id="path451"
   inkscape:connector-curvature="0"
   style="fill:#615233" />
  <path
   class="fil4"
   d="m 372.463,89.4209 c 4.92137,0.485205 8.59507,-2.14877 12.0608,-4.36685 l -3.53507,0 c -1.66356,1.59425 -5.47589,1.94082 -7.69397,1.87151 l -0.83178,2.49534 z"
   id="path453"
   inkscape:connector-curvature="0"
   style="fill:#615233" />
  <polygon
   class="fil4"
   points="386.604,95.4513 396.793,95.6593 393.674,97.7387 387.851,97.5308 "
   id="polygon455"
   style="fill:#615233" />
  <polygon
   class="fil4"
   points="391.594,90.4606 403.655,90.8765 401.784,92.748 392.842,92.5401 "
   id="polygon457"
   style="fill:#615233" />
  <polygon
   class="fil4"
   points="404.071,87.9653 411.973,87.7573 410.517,89.6289 406.358,90.0447 "
   id="polygon459"
   style="fill:#615233" />
  <path
   class="fil4"
   d="m 408.022,106.057 -11.6449,-2.07945 -0.62384,-3.11918 1.45562,0.41589 0,-1.45562 2.49534,-0.623836 c 3.32712,1.039726 6.65425,1.247666 9.98137,0.623836 l -9.56548,-1.87151 -0.83178,-1.66356 5.82246,-2.91123 c 4.08929,0.693449 8.17888,1.04032 12.2688,0.623836 l -7.69397,-1.66356 -0.20794,-1.24767 c 9.14959,-1.3863 18.5071,-2.14877 27.4488,-4.1589 -9.63479,6.37699 -15.9425,14.209604 -28.9044,19.131004 z"
   id="path461"
   inkscape:connector-curvature="0"
   style="fill:#615233" />
  <path
   class="fil2"
   d="m 465.207,39.3061 c 5.40657,-0.485205 11.3677,0.13863 17.8833,1.87151 l 35.9745,-20.1707 2.70329,0 -2.49534,4.1589 -31.3997,17.0515 c 1.73288,1.17836 2.70329,3.53507 1.66356,7.48603 l 30.5679,-12.8926 2.07945,0.207945 -4.78274,5.19863 -31.1918,13.1005 c -5.75345,4.60945 -11.5066,8.0752 -17.2594,11.0211 -7.07014,-0.311619 -14.1403,-1.76753 -21.2104,-3.74301 4.77856,-9.85081 9.90548,-19.0061 17.4674,-23.2899 z"
   id="path463"
   inkscape:connector-curvature="0"
   style="fill:#c0a062" />
  <path
   class="fil3"
   d="m 475.604,27.8691 c -5.45856,0.857774 -8.00589,1.29966 -15.9598,6.52428 -8.05011,5.28796 -18.6111,4.86938 -27.7087,8.65572 l 0,3.11918 c 8.18784,-3.4311 14.8478,-4.72956 20.4593,-5.9847 6.09046,-1.3624 16.0222,-7.7355 23.2092,-12.3145 z m 34.3916,31.6752 4.49413,-1.31519 -2.2874,-2.49534 c -3.19387,1.01373 -6.46482,2.02776 -9.94283,3.0412 l 2.04091,0.90976 5.69519,-0.140423 z m -47.9081,5.96289 0.20794,0.207945 7.07014,0.831781 c -15.5266,8.38712 -27.726,-5.26794 -44.0844,-7.90192 l 2.2874,-2.91123 c 11.5063,2.01014 25.3,12.546 34.5189,9.77342 z m 41.901,-51.0299 c 1.24648,-0.927985 2.39376,-1.86613 3.4311,-2.82788 l -5.82246,0.41589 -8.6841,5.2799 4.5252,0.334624 6.55027,-3.20253 z"
   id="path465"
   inkscape:connector-curvature="0"
   style="fill:#eeeed4" />
  <path
   class="fil5"
   d="m 439.258,83.2877 c 2.68865,0.380038 5.37819,0.760673 8.06564,1.1425 13.863,-6.23836 18.1605,-12.4767 41.589,-18.7151 l -0.83178,-0.623836 c -39.1481,10.0163 -29.8452,16.4976 -48.8229,18.1964 z m 44.0402,-56.2504 c -15.457,9.53052 -25.7156,17.0862 -27.6567,23.9137 l 3.32712,-1.45562 1.24767,0.41589 -0.20795,1.66356 2.07945,0 -0.83178,2.49534 1.66356,0.41589 0.83178,1.24767 -3.95096,0.41589 -2.2874,1.45562 -1.66356,2.70329 -1.87151,1.87151 3.32712,1.03973 2.91123,-2.07945 1.45562,1.45562 -1.24767,1.87151 1.66356,1.03973 0.20795,0.207945 c -4.31426,0.796824 -9.61717,-0.381532 -15.5959,-2.91123 3.89897,-4.26288 5.34204,-8.03099 5.69997,-11.9437 0.65521,-7.16335 7.08866,-9.7779 25.4918,-22.1593 l 5.40657,-1.66356 z"
   id="path467"
   inkscape:connector-curvature="0"
   style="fill:#1f1a17" />
  <path
   class="fil3"
   d="m 445.757,46.6329 -4.46933,5.9847 c -0.76306,1.10934 -4.06897,1.30653 -2.34207,-0.631006 l 3.96201,-4.70715 c 1.05795,-1.38989 3.03702,-0.779794 2.84939,-0.646542 z"
   id="path469"
   inkscape:connector-curvature="0"
   style="fill:#eeeed4" />
  <path
   class="fil3"
   d="m 449.916,47.2567 -5.09316,7.23237 c -0.76306,1.10934 -4.06897,1.30653 -2.34207,-0.631006 l 5.62557,-6.99485 c 1.05795,-1.38959 1.99699,0.259931 1.80966,0.393482 z"
   id="path471"
   inkscape:connector-curvature="0"
   style="fill:#eeeed4" />
  <polygon
   class="fil4"
   points="430.272,55.7338 434.431,53.4464 432.975,51.3669 429.648,52.1987 433.807,49.2875 433.599,48.0398 429.856,49.0795 426.737,56.1497 "
   id="polygon473"
   style="fill:#615233" />
  <polygon
   class="fil4"
   points="448.571,74.6568 440.877,73.825 440.045,70.7058 453.978,71.9535 "
   id="polygon475"
   style="fill:#615233" />
  <path
   class="fil4"
   d="m 463.543,72.7853 -3.95096,0.623836 2.2874,-3.95096 -2.2874,0 -2.20912,2.25304 -9.43581,3.98532 -9.98137,-2.07945 -3.95096,0 0,1.45562 7.69397,1.66356 -8.10986,-0.207945 0.41589,1.87151 5.19863,0.623836 -2.70329,1.24767 0,1.66356 4.57479,0.831781 c 7.79794,0.52046 13.5514,-4.88641 22.4581,-9.98137 z"
   id="path477"
   inkscape:connector-curvature="0"
   style="fill:#615233" />
  <path
   class="fil3"
   d="m 479.483,40.3199 c -5.12453,-1.0699 -9.88367,-1.40781 -14.2765,-1.01373 -1.18134,0.669249 -2.30353,1.45771 -3.37403,2.34865 5.43914,-0.194202 11.1039,0.06274 17.0984,0.978478 l 1.66356,-0.831781 -1.11143,-1.48161 z m 27.5665,-12.5762 12.0148,-6.73671 2.70329,0 -9.35753,6.23836 -5.36056,0.498351 z m 10.3512,14.4737 4.78274,-5.19863 -2.07945,-0.207945 -9.88875,4.17056 -2.58796,2.27574 3.32712,0.207945 6.4463,-1.24767 z"
   id="path479"
   inkscape:connector-curvature="0"
   style="fill:#eeeed4" />
  <path
   class="fil5"
   d="m 489.536,49.7034 c 1.03973,-3.95096 0.0693,-6.30767 -1.66356,-7.48603 l 9.07161,-4.92615 -2.41736,-0.27248 -8.94164,4.57479 0.20795,2.70329 -15.59591,6.4463 -5.82246,3.32712 c -2.07945,2.70329 -4.36685,3.74301 -7.48603,4.36685 l -4.1589,4.36685 c 5.40657,2.14877 10.8131,3.60438 16.2197,3.53507 5.75285,-2.94589 11.506,-6.41164 17.2594,-11.0211 l 17.093,-7.17919 -1.08125,-0.930674 -10.1893,4.1589 -3.74302,0 -0.20794,-0.831781 1.45562,-0.831781 z m -4.36685,-2.2874 0.83178,2.49534 c -5.9608,7.5903 -13.4468,11.7492 -21.6263,14.3482 l 1.66356,-2.2874 -0.20794,-0.831781 -2.2874,0 5.61452,-3.53507 0,-0.831781 -6.86219,2.70329 -2.07945,0 21.0025,-11.0211 3.95096,-1.03973 z"
   id="path481"
   inkscape:connector-curvature="0"
   style="fill:#1f1a17" />
  <path
   id="path1937_4"
   class="fil0 str3"
   d="M 0.735576,0.740058 526.28358,0.6943459 518.66729,479.70335 c -1.72481,65.722 -38.9034,125.645 -111.175,126.576 -100.579,1.29637 -117.658,-10.6542 -144.953,27.3086 -28.1147,-38.9061 -54.0732,-27.3941 -147.639,-29.3298 C 35.578786,602.617 9.769286,545.10045 8.227286,485.17015 L 0.734386,0.7401459 z"
   inkscape:connector-curvature="0"
   style="fill:none;stroke:#615233;stroke-width:0.22766399" />
 </g>
</svg>