<?xml version="1.0" encoding="UTF-8" standalone="no"?>
<!-- Created with Inkscape (http://www.inkscape.org/) -->
<svg
   xmlns:dc="http://purl.org/dc/elements/1.1/"
   xmlns:cc="http://web.resource.org/cc/"
   xmlns:rdf="http://www.w3.org/1999/02/22-rdf-syntax-ns#"
   xmlns:svg="http://www.w3.org/2000/svg"
   xmlns="http://www.w3.org/2000/svg"
   xmlns:sodipodi="http://sodipodi.sourceforge.net/DTD/sodipodi-0.dtd"
   xmlns:inkscape="http://www.inkscape.org/namespaces/inkscape"
   width="500"
   height="650"
   id="svg2"
   sodipodi:version="0.32"
   inkscape:version="0.45.1"
   sodipodi:docbase="/"
   sodipodi:docname="Jomala.vaakuna.svg"
   version="1.0"
   inkscape:output_extension="org.inkscape.output.svg.inkscape">
  <defs
     id="defs4" />
  <sodipodi:namedview
     id="base"
     pagecolor="#ffffff"
     bordercolor="#666666"
     borderopacity="1.0"
     inkscape:pageopacity="0.0"
     inkscape:pageshadow="2"
     inkscape:zoom="1"
     inkscape:cx="413.76352"
     inkscape:cy="310.86516"
     inkscape:document-units="px"
     inkscape:current-layer="layer1"
     inkscape:window-width="1254"
     inkscape:window-height="938"
     inkscape:window-x="18"
     inkscape:window-y="2"
     height="650px" />
  <metadata
     id="metadata7">
    <rdf:RDF>
      <cc:Work
         rdf:about="">
        <dc:format>image/svg+xml</dc:format>
        <dc:type
           rdf:resource="http://purl.org/dc/dcmitype/StillImage" />
        <dc:title>Jomalan vaakuna, Jomala vapen, Coat of arms of Jomala</dc:title>
        <dc:creator>
          <cc:Agent>
            <dc:title>Hippophaë, Wikipedia</dc:title>
          </cc:Agent>
        </dc:creator>
        <dc:subject>
          <rdf:Bag>
            <rdf:li>Jomala</rdf:li>
            <rdf:li>vaakuna</rdf:li>
            <rdf:li>vapen</rdf:li>
            <rdf:li>coat of arms</rdf:li>
          </rdf:Bag>
        </dc:subject>
        <cc:license
           rdf:resource="http://web.resource.org/cc/PublicDomain" />
        <dc:date>2007-07-22</dc:date>
        <dc:identifier>http://commons.wikimedia.org/wiki/Image:Jomala.vaakuna.svg</dc:identifier>
      </cc:Work>
      <cc:License
         rdf:about="http://web.resource.org/cc/PublicDomain">
        <cc:permits
           rdf:resource="http://web.resource.org/cc/Reproduction" />
        <cc:permits
           rdf:resource="http://web.resource.org/cc/Distribution" />
        <cc:permits
           rdf:resource="http://web.resource.org/cc/DerivativeWorks" />
      </cc:License>
    </rdf:RDF>
  </metadata>
  <g
     inkscape:label="Layer 1"
     inkscape:groupmode="layer"
     id="layer1">
    <path
       style="fill:#0000bf;fill-opacity:1;fill-rule:evenodd;stroke:black;stroke-width:1px;stroke-linecap:butt;stroke-linejoin:miter;stroke-opacity:1"
       d="M 0.5,0.5 L 499.5,0.5 L 499.5,380 C 499.5,480 380,580 250,649 C 80,580 0.5,480 0.5,380 L 0.5,0.5 z "
       id="path1917"
       sodipodi:nodetypes="cccccc" />
    <path
       style="fill:#bf9f4f;fill-opacity:1;fill-rule:evenodd;stroke:black;stroke-width:1px;stroke-linecap:butt;stroke-linejoin:miter;stroke-opacity:1"
       d="M 50,365 L 450,365 L 385,425 L 385,510 C 385,545 310,570 250,570 C 190,570 115,545 115,510 L 115,425 L 50,365 z "
       id="path1916"
       sodipodi:nodetypes="ccccsccc" />
    <path
       style="fill:#bf9f4f;fill-opacity:1;fill-rule:evenodd;stroke:black;stroke-width:1px;stroke-linecap:butt;stroke-linejoin:miter;stroke-opacity:1"
       d="M 20,357 L 480,357 L 480,371 L 20,371 L 20,357 z "
       id="path1919" />
    <path
       style="fill:#bf9f4f;fill-opacity:1;fill-rule:evenodd;stroke:black;stroke-width:1px;stroke-linecap:butt;stroke-linejoin:miter;stroke-opacity:1"
       d="M 30,235 L 70,235 L 70,357 L 30,357 L 30,235 z "
       id="path1923" />
    <path
       style="fill:#bf9f4f;fill-opacity:1;fill-rule:evenodd;stroke:black;stroke-width:1;stroke-linecap:butt;stroke-linejoin:miter;stroke-miterlimit:4;stroke-dasharray:none;stroke-opacity:1"
       d="M 50,150 C 60,150 60,165 55,170 L 85,275 C 85,275 60,240 50,240 C 40,240 15,275 15,275 L 45,170 C 40,165 40,150 50,150 z "
       id="path1921"
       sodipodi:nodetypes="cccsccs" />
    <path
       style="fill:#bf9f4f;fill-opacity:1;fill-rule:evenodd;stroke:black;stroke-width:1px;stroke-linecap:butt;stroke-linejoin:miter;stroke-opacity:1"
       d="M 42,285 C 42,276 58,276 58,285 L 58,357 L 42,357 L 42,285 z "
       id="path2814"
       sodipodi:nodetypes="ccccc" />
    <path
       id="path2816"
       d="M 430,235 L 470,235 L 470,357 L 430,357 L 430,235 z "
       style="fill:#bf9f4f;fill-opacity:1;fill-rule:evenodd;stroke:black;stroke-width:1px;stroke-linecap:butt;stroke-linejoin:miter;stroke-opacity:1" />
    <path
       sodipodi:nodetypes="cccsccs"
       id="path2818"
       d="M 450,150 C 460,150 460,165 455,170 L 485,275 C 485,275 460,240 450,240 C 440,240 415,275 415,275 L 445,170 C 440,165 440,150 450,150 z "
       style="fill:#bf9f4f;fill-opacity:1;fill-rule:evenodd;stroke:black;stroke-width:1;stroke-linecap:butt;stroke-linejoin:miter;stroke-miterlimit:4;stroke-dasharray:none;stroke-opacity:1" />
    <path
       sodipodi:nodetypes="ccccc"
       id="path2820"
       d="M 442,285 C 442,276 458,276 458,285 L 458,357 L 442,357 L 442,285 z "
       style="fill:#bf9f4f;fill-opacity:1;fill-rule:evenodd;stroke:black;stroke-width:1px;stroke-linecap:butt;stroke-linejoin:miter;stroke-opacity:1" />
    <path
       style="fill:none;fill-opacity:0.75;fill-rule:evenodd;stroke:black;stroke-width:1px;stroke-linecap:butt;stroke-linejoin:miter;stroke-opacity:1"
       d="M 85,398 L 415,398 L 415,410 L 85,410 L 85,398 z "
       id="path1942" />
    <path
       style="fill:#bf9f4f;fill-opacity:1;fill-rule:evenodd;stroke:black;stroke-width:1px;stroke-linecap:butt;stroke-linejoin:miter;stroke-opacity:1"
       d="M 28,371 L 62,371 C 85,371 83,400 100,400 C 133,400 115,442 144,442 L 186,442 L 186,458 L 140,458 C 95,458 121,416 91,416 C 66.5,416 79.5,385 52,385 C 45,385 33,385 28,385 C 20,385 20,371 28,371 z "
       id="path2822"
       sodipodi:nodetypes="csssccsssss" />
    <path
       sodipodi:nodetypes="csssccsssss"
       id="path1880"
       d="M 472,371 L 438,371 C 415,371 417,400 400,400 C 367,400 385,442 356,442 L 314,442 L 314,458 L 360,458 C 405,458 379,416 409,416 C 433.5,416 420.5,385 448,385 C 455,385 467,385 472,385 C 480,385 480,371 472,371 z "
       style="fill:#bf9f4f;fill-opacity:1;fill-rule:evenodd;stroke:black;stroke-width:1px;stroke-linecap:butt;stroke-linejoin:miter;stroke-opacity:1" />
    <path
       style="fill:none;fill-opacity:0.75;fill-rule:evenodd;stroke:black;stroke-width:1px;stroke-linecap:butt;stroke-linejoin:miter;stroke-opacity:1"
       d="M 246.25,519.25 C 261.36347,526.81433 221.72591,567.66445 190.75,557.25 C 173.72166,551.52488 205.73372,515.40446 246.25,519.25 z "
       id="path1920"
       sodipodi:nodetypes="csc" />
    <path
       style="fill:none;fill-opacity:0.75;fill-rule:evenodd;stroke:black;stroke-width:1px;stroke-linecap:butt;stroke-linejoin:miter;stroke-opacity:1"
       d="M 280.75,520.25 C 321.95306,512.79011 349.8737,538.73458 339.75,548.75 C 330.29591,558.10297 262.79315,548.99111 280.75,520.25 z "
       id="path1922"
       sodipodi:nodetypes="csc" />
    <path
       style="fill:#bf9f4f;fill-opacity:1;fill-rule:evenodd;stroke:black;stroke-width:1px;stroke-linecap:butt;stroke-linejoin:miter;stroke-opacity:1"
       d="M 233.4,166 C 239.03588,163.14758 238.84942,160.50013 240,153.2 L 269.6,153.4 C 271.48198,165.41284 275.59438,163.56807 280.8,166.4 L 254.4,190.6 L 233.4,166 z "
       id="path2878"
       sodipodi:nodetypes="cccccc" />
    <path
       style="fill:#bf9f4f;fill-opacity:1;fill-rule:evenodd;stroke:black;stroke-width:1px;stroke-linecap:butt;stroke-linejoin:miter;stroke-opacity:1"
       d="M 195.2,364 C 196.2865,339.41955 192.64413,315.53434 201.6,280.8 C 190.77746,323.63434 160.45683,335.61728 149.6,336 C 124.69471,336.87795 136.74893,302.57285 143.2,285.6 C 160.44571,240.22629 167.77642,207.87338 194.4,180 C 202.32094,171.70722 220.89837,175.20914 234.4,164 C 250.89528,181.73397 266.70957,176.72994 280.8,164.8 C 288.18028,175.46136 322.22204,171.22692 335.2,185.6 C 348.38695,200.20454 348.79501,210.55488 360.6394,226.70717 C 372.8556,243.3665 386.62522,256.99858 385.6,288 C 384.22853,329.47153 354.99635,363.25138 344,363.2 L 195.2,364 z "
       id="path2831"
       sodipodi:nodetypes="ccsssccssscc" />
    <path
       style="fill:none;fill-opacity:0.75;fill-rule:evenodd;stroke:black;stroke-width:1px;stroke-linecap:butt;stroke-linejoin:miter;stroke-opacity:1"
       d="M 202.75,272 C 224.74571,281.67302 269.40288,256.01455 317,279.25 L 318.5,292.25 C 270.26939,273.70897 240.54449,295.97098 200,287.25 C 201.24219,282.1211 202.74252,277.74626 202.75,272 z "
       id="path1970"
       sodipodi:nodetypes="ccccc" />
    <path
       style="fill:#bf9f4f;fill-opacity:1;fill-rule:evenodd;stroke:black;stroke-width:1px;stroke-linecap:butt;stroke-linejoin:miter;stroke-opacity:1"
       d="M 148.5,516.5 C 150.0435,330.89443 178.52856,328.1322 205.5,327.5 C 227.33908,326.9881 222.5,362 258.5,361.5 C 287.50151,361.0972 280.75162,327.92591 317.5,327.5 C 375.56785,326.82699 356.87359,462.04617 369.5,518.5 C 372.57595,532.25283 364.49072,534.3 353.2,531.8 C 338.68731,544.81984 328,535 324,529.5 C 320.7632,531.4174 311.00635,536.53151 298.49963,530.23421 C 288.83636,535.03718 281.73632,535.72822 272,530.5 C 270.96625,539.25977 260.35223,542.70242 249.74116,529.48381 C 242.63008,534.7652 241.02195,534.38531 234.5,530.5 C 233.7227,532.21751 221.31478,537.18695 217.33244,532.1786 C 213.85011,536.17024 208.29336,539.68409 201.71841,534.9904 C 184.64346,554.29671 171.40348,551.29826 162,533.5 C 153.5,537.75 148.39502,529.05525 148.5,516.5 z "
       id="path1918"
       sodipodi:nodetypes="csssscccccccccs" />
    <path
       style="fill:none;fill-opacity:0.75;fill-rule:evenodd;stroke:black;stroke-width:1px;stroke-linecap:butt;stroke-linejoin:miter;stroke-opacity:1"
       d="M 162,533.5 C 165,381.5 176.96451,345.84045 199.5,345.5 C 229.99754,345.03926 212.74997,392.25581 256.5,392.5 C 288.30659,392.67753 284.85728,337.43701 312.5,338.5 C 354.97097,340.1332 348.05,447.1 353.3,531.6"
       id="path1924"
       sodipodi:nodetypes="cssss" />
    <path
       style="fill:none;fill-opacity:0.75;fill-rule:evenodd;stroke:black;stroke-width:1px;stroke-linecap:butt;stroke-linejoin:miter;stroke-opacity:1"
       d="M 218.6,358.5 C 228.1,373.5 227.78242,416.41887 257.5,415.5 C 291.29228,414.45514 280.75,373.95 289,359.2"
       id="path1926"
       sodipodi:nodetypes="css" />
    <path
       style="fill:none;fill-opacity:0.75;fill-rule:evenodd;stroke:black;stroke-width:1px;stroke-linecap:butt;stroke-linejoin:miter;stroke-opacity:1"
       d="M 206.5,406.5 C 203.83276,449.16667 201.80057,492.23333 201.8,534.9"
       id="path1928"
       sodipodi:nodetypes="cc" />
    <path
       style="fill:none;fill-opacity:0.75;fill-rule:evenodd;stroke:black;stroke-width:1px;stroke-linecap:butt;stroke-linejoin:miter;stroke-opacity:1"
       d="M 219,431 C 216.13589,464.33333 217.64849,498.86667 217.4,532.2"
       id="path1930"
       sodipodi:nodetypes="cc" />
    <path
       style="fill:none;fill-opacity:0.75;fill-rule:evenodd;stroke:black;stroke-width:1px;stroke-linecap:butt;stroke-linejoin:miter;stroke-opacity:1"
       d="M 231.5,428 C 233.16863,464.66667 236.91098,493.73333 234.6,530.4"
       id="path1932"
       sodipodi:nodetypes="cc" />
    <path
       style="fill:none;fill-opacity:0.75;fill-rule:evenodd;stroke:black;stroke-width:1px;stroke-linecap:butt;stroke-linejoin:miter;stroke-opacity:1"
       d="M 248,442.5 C 248.89987,474.16667 251.41126,497.83333 249.7,529.5"
       id="path1934"
       sodipodi:nodetypes="cc" />
    <path
       style="fill:none;fill-opacity:0.75;fill-rule:evenodd;stroke:black;stroke-width:1px;stroke-linecap:butt;stroke-linejoin:miter;stroke-opacity:1"
       d="M 270.5,438 C 271.75867,470.66667 274.63383,497.73333 272,530.4"
       id="path1936"
       sodipodi:nodetypes="cc" />
    <path
       style="fill:none;fill-opacity:0.75;fill-rule:evenodd;stroke:black;stroke-width:1px;stroke-linecap:butt;stroke-linejoin:miter;stroke-opacity:1"
       d="M 306.5,395 C 293.38154,427.50137 299.65802,485.22427 298.5,530.3"
       id="path1938"
       sodipodi:nodetypes="cc" />
    <path
       style="fill:none;fill-opacity:0.75;fill-rule:evenodd;stroke:black;stroke-width:1px;stroke-linecap:butt;stroke-linejoin:miter;stroke-opacity:1"
       d="M 324,529.4 C 322.66267,503.73333 323.21365,476.66667 324.5,451"
       id="path1940"
       sodipodi:nodetypes="cc" />
    <path
       style="fill:#bf9f4f;fill-opacity:1;fill-rule:evenodd;stroke:black;stroke-width:1px;stroke-linecap:butt;stroke-linejoin:miter;stroke-opacity:1"
       d="M 151.2,317.6 C 174.84664,283.98444 174.46841,275.97593 120.4,226.4 C 112.23701,218.91527 90.365524,202.80397 94.8,234.4 C 95.411156,238.75454 97.567238,244.03318 104,244.4 C 112.62965,244.8921 119.14563,245.79801 122,247.6 C 125.87552,250.04665 144.35336,275.61556 151.2,317.6 z "
       id="path3720"
       sodipodi:nodetypes="cssssc" />
    <path
       style="fill:black;fill-opacity:1;fill-rule:evenodd;stroke:black;stroke-width:1px;stroke-linecap:butt;stroke-linejoin:miter;stroke-opacity:1"
       d="M 114.8,234.6 L 124,231.8 C 127.33428,235.8 136.01109,244.4034 131.6,244.6 C 129.70777,244.68433 123.6,237.27656 114.8,234.6 z "
       id="path3722"
       sodipodi:nodetypes="ccsc" />
    <path
       style="fill:#bf9f4f;fill-opacity:1;fill-rule:evenodd;stroke:black;stroke-width:1px;stroke-linecap:butt;stroke-linejoin:miter;stroke-opacity:1"
       d="M 114.15258,187.94748 L 97.924119,190.89996 L 97.21081,176.68816 L 113.65326,177.99922 L 110.70224,161.76268 L 124.90698,161.04902 L 123.59658,177.49965 L 139.82503,174.54717 L 140.53834,188.75898 L 124.0959,187.44792 L 127.22524,207.23741 L 113.0205,207.95106 L 114.15258,187.94748 z "
       id="path4609"
       sodipodi:nodetypes="ccccccccccccc" />
    <path
       sodipodi:type="arc"
       style="opacity:1;fill:#bf9f4f;fill-opacity:1;stroke:black;stroke-width:1.03152287;stroke-linecap:round;stroke-linejoin:miter;stroke-miterlimit:4;stroke-dasharray:none;stroke-opacity:1"
       id="path2833"
       sodipodi:cx="129.60001"
       sodipodi:cy="219.2"
       sodipodi:rx="21.6"
       sodipodi:ry="19.200001"
       d="M 151.20001 219.2 A 21.6 19.200001 0 1 1  108.00001,219.2 A 21.6 19.200001 0 1 1  151.20001 219.2 z"
       transform="matrix(1.074074,0,0,0.875,-17.6,31.4)" />
    <path
       style="fill:#bf9f4f;fill-opacity:1;fill-rule:evenodd;stroke:black;stroke-width:1px;stroke-linecap:butt;stroke-linejoin:miter;stroke-opacity:1"
       d="M 363.3,103.3 C 372.29888,131.73574 395.04812,112.10285 409.5,96.3 C 409.04444,133.44833 403.86523,164.14812 379.7,196.5 C 371.16441,169.84633 368.04039,157.73127 342.1,168.5 L 363.3,103.3 z "
       id="path4613"
       sodipodi:nodetypes="ccccc" />
    <path
       style="fill:none;fill-opacity:0.75;fill-rule:evenodd;stroke:black;stroke-width:1px;stroke-linecap:butt;stroke-linejoin:miter;stroke-opacity:1"
       d="M 151.3,317.4 C 144.68936,327.51901 136.54214,332.15422 134.7,323.4"
       id="path4615"
       sodipodi:nodetypes="cc" />
    <path
       style="fill:none;fill-opacity:0.75;fill-rule:evenodd;stroke:black;stroke-width:1px;stroke-linecap:butt;stroke-linejoin:miter;stroke-opacity:1"
       d="M 153.3,258.35 C 197.78955,253.20061 206.60687,263.21735 201.5,281.2"
       id="path4617"
       sodipodi:nodetypes="cc" />
    <path
       style="fill:none;fill-opacity:0.75;fill-rule:evenodd;stroke:black;stroke-width:1px;stroke-linecap:butt;stroke-linejoin:miter;stroke-opacity:1"
       d="M 224.3,169.9 C 246.84148,191.07382 269.51497,189.97631 291.5,170.9"
       id="path1964"
       sodipodi:nodetypes="cc" />
    <path
       style="fill:#bf9f4f;fill-opacity:1;fill-rule:evenodd;stroke:black;stroke-width:1px;stroke-linecap:butt;stroke-linejoin:miter;stroke-opacity:1"
       d="M 202.3,268.6 C 201.98495,256.04901 202.46303,238.09002 205.5,231.83333 C 216.14726,209.89813 237.52125,174.94144 249.06667,174.93333 L 252.13333,184.8 C 232.83188,206.45242 218.09323,237.29765 202.3,268.6 z "
       id="path1966"
       sodipodi:nodetypes="csccc" />
    <path
       style="fill:#bf9f4f;fill-opacity:1;fill-rule:evenodd;stroke:black;stroke-width:1px;stroke-linecap:butt;stroke-linejoin:miter;stroke-opacity:1"
       d="M 257.26667,185.36667 L 260.46667,175.9 C 270.99976,177.13113 304.77385,249.39286 315.16667,286.16667 L 301.5,291.16667 C 292.68459,255.60587 278.30989,220.05406 257.26667,185.36667 z "
       id="path1968"
       sodipodi:nodetypes="ccccc" />
    <path
       style="fill:#bf9f4f;fill-opacity:1;fill-rule:evenodd;stroke:black;stroke-width:1px;stroke-linecap:butt;stroke-linejoin:miter;stroke-opacity:1"
       d="M 343,263.5 C 357.12998,263.45929 377.21643,286.94709 377,321 C 376.89818,336.5497 371.58221,368.50542 362,368.5 C 345.7176,368.49135 360.0401,346.94844 350.44163,326.0119 C 341.52916,306.57169 333.17796,295.97751 324,296 C 316.40053,296.01862 308.18777,310.1436 302.83333,309.66667 C 297.18132,309.16323 300.80193,292.7067 301,287.5 C 301.67089,269.86375 327.06125,263.54448 343,263.5 z "
       id="path4619"
       sodipodi:nodetypes="csssssss" />
    <path
       style="fill:#bf9f4f;fill-opacity:1;fill-rule:evenodd;stroke:black;stroke-width:1px;stroke-linecap:butt;stroke-linejoin:miter;stroke-opacity:1"
       d="M 292.5,310 L 362,90.5 L 371,93.5 L 300,313 L 292.5,310 z "
       id="path4611"
       sodipodi:nodetypes="ccccc" />
    <path
       style="fill:#bf9f4f;fill-opacity:1;fill-rule:evenodd;stroke:black;stroke-width:1px;stroke-linecap:butt;stroke-linejoin:miter;stroke-opacity:1"
       d="M 341.75,310 C 313.76573,320.3265 320.58203,328.72034 301.16667,329.25 C 288.8616,329.58569 286.10085,317.92643 286.75,311.5 C 288.31824,295.97467 292.89784,288.49058 299.75,287 C 296.95492,294.5785 290.65879,303.91857 301.15,304.66667 C 303.60624,304.84182 305.18243,300.91071 305.11225,297.68499 C 314.44208,303.05927 319.32615,296.73022 324,294.08333 C 329.65464,294.45721 337.93239,303.5765 341.75,310 z "
       id="path1974"
       sodipodi:nodetypes="ccscsccc" />
    <path
       style="fill:none;fill-opacity:0.75;fill-rule:evenodd;stroke:black;stroke-width:1px;stroke-linecap:butt;stroke-linejoin:miter;stroke-opacity:1"
       d="M 213.2,289.4 C 234.10984,320.86381 253.69408,343.60996 269.6412,343.61341 C 286.36669,343.61694 276.61177,336.28741 304.4,329.2"
       id="path1976"
       sodipodi:nodetypes="csc" />
    <path
       style="fill:none;fill-opacity:0.75;fill-rule:evenodd;stroke:black;stroke-width:1px;stroke-linecap:butt;stroke-linejoin:miter;stroke-opacity:1"
       d="M 242.25,326.75 C 261.40742,316.86344 275.38316,302.74979 287.75,285.25"
       id="path1978"
       sodipodi:nodetypes="cc" />
    <path
       style="fill:none;fill-opacity:0.75;fill-rule:evenodd;stroke:black;stroke-width:1px;stroke-linecap:butt;stroke-linejoin:miter;stroke-opacity:1"
       d="M 217.75,250.75 C 217.199,257.75 216.51399,266.75 217.25,273.75"
       id="path1980"
       sodipodi:nodetypes="cc" />
    <path
       style="fill:none;fill-opacity:0.75;fill-rule:evenodd;stroke:black;stroke-width:1px;stroke-linecap:butt;stroke-linejoin:miter;stroke-opacity:1"
       d="M 235.75,225.25 C 234.26295,240.13317 234.01374,257.36363 233.85,272.25"
       id="path1982"
       sodipodi:nodetypes="cc" />
    <path
       style="fill:none;fill-opacity:0.75;fill-rule:evenodd;stroke:black;stroke-width:1px;stroke-linecap:butt;stroke-linejoin:miter;stroke-opacity:1"
       d="M 251.25,204.25 C 250.02037,225.58333 249.33492,248.71667 250.75,270.05"
       id="path1984"
       sodipodi:nodetypes="cc" />
    <path
       style="fill:none;fill-opacity:0.75;fill-rule:evenodd;stroke:black;stroke-width:1px;stroke-linecap:butt;stroke-linejoin:miter;stroke-opacity:1"
       d="M 265.25,227.75 C 265.97858,241.25 265.87692,255.75 265.25,269.25"
       id="path1986"
       sodipodi:nodetypes="cc" />
    <path
       style="fill:none;fill-opacity:0.75;fill-rule:evenodd;stroke:black;stroke-width:1px;stroke-linecap:butt;stroke-linejoin:miter;stroke-opacity:1"
       d="M 277.75,242.75 C 278.18189,251.41667 278.619,260.48333 277.75,269.15"
       id="path1988"
       sodipodi:nodetypes="cc" />
    <path
       sodipodi:type="arc"
       style="opacity:1;fill:#bf9f4f;fill-opacity:1;stroke:black;stroke-width:0.89418787;stroke-linecap:round;stroke-linejoin:miter;stroke-miterlimit:4;stroke-dasharray:none;stroke-opacity:1"
       id="path1990"
       sodipodi:cx="269.79999"
       sodipodi:cy="120.2"
       sodipodi:rx="28.799999"
       sodipodi:ry="33.200001"
       d="M 298.59999 120.2 A 28.799999 33.200001 0 1 1  240.99999,120.2 A 28.799999 33.200001 0 1 1  298.59999 120.2 z"
       transform="matrix(1.027778,0,0,1.216867,-22.69444,-24.46747)" />
    <path
       style="fill:none;fill-opacity:0.75;fill-rule:evenodd;stroke:black;stroke-width:0.99999988px;stroke-linecap:butt;stroke-linejoin:miter;stroke-opacity:1"
       d="M 237.90003,116.09785 C 240.22066,114.67673 247.91414,111.51597 250.70003,116.27508 C 246.99444,120.668 240.37965,117.10139 237.90003,116.09785 z "
       id="path2880"
       sodipodi:nodetypes="ccc" />
    <path
       style="fill:none;fill-opacity:0.75;fill-rule:evenodd;stroke:black;stroke-width:0.99999988px;stroke-linecap:butt;stroke-linejoin:miter;stroke-opacity:1"
       d="M 256.3,116.38981 C 259.0977,120.78963 266.02225,117.45342 268.7,116.38981 C 265.70279,114.85246 258.90263,112.023 256.3,116.38981 z "
       id="path2882"
       sodipodi:nodetypes="ccc" />
    <path
       style="fill:none;fill-opacity:0.75;fill-rule:evenodd;stroke:black;stroke-width:0.99999994px;stroke-linecap:butt;stroke-linejoin:miter;stroke-opacity:1"
       d="M 249.10004,129.79997 C 249.16065,131.08043 250.76891,132.12058 251.85665,131.70418 C 252.88155,132.72721 254.33056,132.82513 255.35545,131.5984 C 256.55237,132.25508 257.72725,131.1883 257.90003,130.11734"
       id="path2884"
       sodipodi:nodetypes="cccc" />
    <path
       style="fill:black;fill-opacity:1;fill-rule:evenodd;stroke:black;stroke-width:1px;stroke-linecap:butt;stroke-linejoin:miter;stroke-opacity:1"
       d="M 247.1,141 C 255.01014,143.56216 253.9199,143.71847 260.9,141 C 254.01592,141.82672 254.30695,141.55476 247.1,141 z "
       id="path2886"
       sodipodi:nodetypes="ccc" />
    <path
       sodipodi:type="arc"
       style="opacity:1;fill:black;fill-opacity:1;stroke:black;stroke-width:1;stroke-linecap:round;stroke-linejoin:miter;stroke-miterlimit:4;stroke-dasharray:none;stroke-opacity:1"
       id="path4658"
       sodipodi:cx="245.7"
       sodipodi:cy="116.1"
       sodipodi:rx="1.5"
       sodipodi:ry="1.5"
       d="M 247.2 116.1 A 1.5 1.5 0 1 1  244.2,116.1 A 1.5 1.5 0 1 1  247.2 116.1 z" />
    <path
       sodipodi:type="arc"
       style="opacity:1;fill:black;fill-opacity:1;stroke:black;stroke-width:1;stroke-linecap:round;stroke-linejoin:miter;stroke-miterlimit:4;stroke-dasharray:none;stroke-opacity:1"
       id="path4660"
       sodipodi:cx="261.20001"
       sodipodi:cy="116.4"
       sodipodi:rx="1.6"
       sodipodi:ry="1.4"
       d="M 262.80001 116.4 A 1.6 1.4 0 1 1  259.60001,116.4 A 1.6 1.4 0 1 1  262.80001 116.4 z" />
    <path
       style="fill:none;fill-opacity:0.75;fill-rule:evenodd;stroke:black;stroke-width:1.00000024px;stroke-linecap:butt;stroke-linejoin:miter;stroke-opacity:1"
       d="M 250.90012,110.2 C 245.73586,107.80722 241.99082,108.9362 238.30011,110.2"
       id="path4666"
       sodipodi:nodetypes="cc" />
    <path
       style="fill:none;fill-opacity:0.75;fill-rule:evenodd;stroke:black;stroke-width:1px;stroke-linecap:butt;stroke-linejoin:miter;stroke-opacity:1"
       d="M 268.19996,110.70124 C 261.88331,108.64194 258.72347,109.62888 255.79996,110.70124"
       id="path4668"
       sodipodi:nodetypes="cc" />
    <path
       style="fill:#bf9f4f;fill-opacity:1;fill-rule:evenodd;stroke:black;stroke-width:1px;stroke-linecap:butt;stroke-linejoin:miter;stroke-opacity:1"
       d="M 219,78.6 L 285.4,78.6 C 290.72167,93.695666 291.52745,100.79344 295,119.8 C 301.55389,155.67194 305.3,154.6 291.4,155 C 281.7785,155.27688 280.4579,148.09149 278.2,141 C 274.31852,128.80923 288.32677,115.53333 266.6,83.8 L 240.6,83.4 C 215.2522,118.2 232.55601,127.1334 226.6,146.6 C 224.69658,152.82112 218.79832,157.12816 210.2,156.6 C 194.63023,155.64362 194.88588,163.61234 198.6,135 C 201.97956,108.96505 206.73884,90.299823 219,78.6 z "
       id="path4670"
       sodipodi:nodetypes="ccsssccsssc" />
    <path
       style="fill:none;fill-opacity:0.75;fill-rule:evenodd;stroke:black;stroke-width:1px;stroke-linecap:butt;stroke-linejoin:miter;stroke-opacity:1"
       d="M 202,148.6 C 211.01749,128.92277 202.92075,117.36939 217.2,90"
       id="path4674"
       sodipodi:nodetypes="cc" />
    <path
       style="fill:none;fill-opacity:0.75;fill-rule:evenodd;stroke:black;stroke-width:1px;stroke-linecap:butt;stroke-linejoin:miter;stroke-opacity:1"
       d="M 212.8,128.6 C 218.99043,114.10473 212.53505,109.24559 225.6,90"
       id="path4676"
       sodipodi:nodetypes="cc" />
    <path
       style="fill:none;fill-opacity:0.75;fill-rule:evenodd;stroke:black;stroke-width:1px;stroke-linecap:butt;stroke-linejoin:miter;stroke-opacity:1"
       d="M 216,149 C 225.29369,136.38553 213.34132,112.35826 232.1,90"
       id="path4678"
       sodipodi:nodetypes="cc" />
    <path
       style="fill:none;fill-opacity:0.75;fill-rule:evenodd;stroke:black;stroke-width:1px;stroke-linecap:butt;stroke-linejoin:miter;stroke-opacity:1"
       d="M 296,147.8 C 289.45945,129.93333 290.3448,108.96667 283.1,90.3"
       id="path4680"
       sodipodi:nodetypes="cc" />
    <path
       style="fill:none;fill-opacity:0.75;fill-rule:evenodd;stroke:black;stroke-width:1px;stroke-linecap:butt;stroke-linejoin:miter;stroke-opacity:1"
       d="M 286.4,139.4 C 280.05207,122.39465 287.47935,104.79638 276.5,90.2"
       id="path4682"
       sodipodi:nodetypes="cc" />
    <path
       style="fill:#bf9f4f;fill-opacity:1;fill-rule:evenodd;stroke:black;stroke-width:1px;stroke-linecap:butt;stroke-linejoin:miter;stroke-opacity:1"
       d="M 210,73 C 206.5717,56.16163 195.56727,47.899392 184.2,37.4 C 204.72894,33.805491 210.74357,44.353866 221.8,50.6 C 230.76017,41.773581 239.11619,34.640947 251,29 C 260.6765,34.673382 268.73397,40.409343 277.4,51.4 C 295.64978,37.669694 305.4533,38.391293 318.2,39.8 C 303.72282,51.761411 293.92853,58.164265 290,73 L 210,73 z "
       id="path4684"
       sodipodi:nodetypes="cccccccc" />
    <path
       style="fill:none;fill-opacity:0.75;fill-rule:evenodd;stroke:black;stroke-width:1px;stroke-linecap:butt;stroke-linejoin:miter;stroke-opacity:1"
       d="M 230.7,42.2 C 237.10063,47.715237 241.55911,52.836933 245.9,60.4 C 242.94864,66.069053 239.77979,69.697292 234.3,75.8 L 268.9,76 C 264.20151,70.20576 261.35073,66.782893 258.1,60.4 C 261.22472,53.744072 266.26197,48.438186 270.9,43.8"
       id="path4686"
       sodipodi:nodetypes="cccccc" />
    <path
       style="fill:#bf9f4f;fill-opacity:1;fill-rule:evenodd;stroke:black;stroke-width:1px;stroke-linecap:butt;stroke-linejoin:miter;stroke-opacity:1"
       d="M 210,90 C 210,84.2 210.49877,78.6 210,73 L 290,73 C 289.58363,79.266667 289.10647,84.733333 290.4,90.2 L 210,90 z "
       id="path4672"
       sodipodi:nodetypes="ccccc" />
  </g>
</svg>
