<?xml version="1.0" encoding="UTF-8"?>
<!DOCTYPE svg PUBLIC "-//W3C//DTD SVG 1.1//EN" "http://www.w3.org/Graphics/SVG/1.1/DTD/svg11.dtd">
<!-- Creator: CorelDRAW -->
<svg xmlns="http://www.w3.org/2000/svg" xml:space="preserve" width="500px" height="535px" shape-rendering="geometricPrecision" text-rendering="geometricPrecision" image-rendering="optimizeQuality" fill-rule="evenodd" clip-rule="evenodd"
viewBox="0 0 500 535"
 xmlns:xlink="http://www.w3.org/1999/xlink"
 xmlns:svg="http://www.w3.org/2000/svg"
 version="1.0">
 <g id="Layer_x0020_1">
  <metadata id="CorelCorpID_0Corel-Layer"/>
  <path id="path1937" fill="#BF9F4F" stroke="black" stroke-width="1.41732" d="M0.702709 0.930898l498.629 0.000566929 -19.8629 319.167c-20.977,286.79 -437.882,284.484 -461.767,0.37389l-16.9999 -319.542z"/>
  <path fill="#F00000" stroke="#F00000" stroke-width="0.992126" d="M162.699 157.733c-53.0085,-23.7348 -62.602,-138.402 -137.604,-137.919 2.04917,16.5484 33.2989,27.3376 43.4724,66.4577 12.7828,49.1545 35.8898,84.5309 73.9279,117.566l19.7929 1.04173 0.41074 -47.1459z"/>
  <path fill="#F06E6E" d="M33.3012 26.0167c56.2235,39.4693 53.4433,112.655 107.56,156.339l15.4409 14.9145c-69.5158,-33.613 -70.6369,-131.001 -123.001,-171.254z"/>
  <path fill="#8C0000" d="M157.004 156.738c-8.71456,-5.55619 -16.4934,-12.7502 -23.3368,-21.5822 -2.73345,6.15685 -6.15459,10.1636 -11.2297,12.1071l3.33383 2.45651c4.15276,-2.0469 7.60394,-4.79566 10.3524,-8.24684l1.40372 1.40372 -7.72044 7.72044 -3.50929 0.350929 0.175465 3.15836 5.4394 0.175465 3.33383 -2.80743 1.05279 0.350929 -1.75465 3.33383 -5.79033 1.75465 0.701859 2.45651 4.56208 0.526394 6.14126 -2.45651 1.57918 1.40372 -7.19405 3.33383 0.350929 1.57918 7.54498 0.350929 4.03569 -1.75465 2.10558 2.45651 -5.79033 2.28104 1.57918 2.63197 5.79033 -2.10558 0.350929 0.701859 -0.877323 1.57918 2.63197 2.80743 4.73755 -15.9673z"/>
  <path fill="#F00000" d="M342.714 150.709c46.6866,-22.3299 64.7093,-131.377 129.175,-132.3 -2.04917,16.5484 -25.5719,19.6104 -35.7458,58.7311 -12.7834,49.1548 -40.8067,93.6624 -78.8449,126.697l-19.7929 1.04173 5.20866 -54.1701z"/>
  <path fill="#F06E6E" d="M453.82 26.7823c-57.274,26.8501 -62.4456,115.144 -112.154,131.705l18.8484 -3.74627c34.1462,-34.035 42.7706,-92.9152 93.3055,-127.959z"/>
  <path fill="#8C0000" d="M358.488 200.518l7.98237 -9.43371 -4.71685 -7.61953 2.90268 -1.45134 4.35402 5.44252 3.26551 -0.362835 0 -2.53984 -2.17701 -4.71685 -1.45134 0 -0.362835 -2.90268 2.17701 -0.72567 5.80536 7.2567 2.53984 -3.99118 -5.80536 -8.3452 0.72567 -1.45134 2.90268 1.45134 3.26551 5.07969 2.53984 -0.72567 0.362835 -3.62835 -5.44252 -4.35402 -2.90268 0.362835 -0.362835 -1.45134 2.17701 -2.53984 9.79654 6.16819 1.0885 -1.45134 -11.6107 -7.98237 -6.53103 6.53103c-5.44281,4.3543 -10.4017,6.2898 -14.8762,5.80536l-10.885 23.9471 12.6992 -6.89386 2.53984 10.5222z"/>
  <path fill="black" d="M294.98 470.039c19.4335,-2.39953 11.1209,-17.0912 14.0471,-24.0562 -0.144284,-15.1648 10.5987,-35.2466 -5.70161,-51.8162 -1.41137,-5.75093 -1.02246,-9.40479 -0.0215433,-11.6334 1.87228,-4.16807 11.5985,-29.5571 13.3257,-37.0766 4.42517,-19.2665 5.74243,-40.6585 8.80073,-43.3511 10.967,-10.1713 17.2511,-15.0741 14.989,-25.9472l0.951874 -14.8045c33.6161,-2.9571 57.4271,-21.8792 72.3101,-51.0596 -24.3371,2.29039 -30.0603,-4.90196 -64.9341,6.87147 -1.33285,-8.97166 11.734,-14.4312 12.5084,-24.4562 -5.15679,0.822331 -14.8796,5.8595 -19.6855,5.97969 3.46025,-6.732 25.8268,-14.635 29.168,-31.4368 -6.1937,4.8447 -11.9191,7.23033 -19.285,7.1572 8.77635,-7.36215 7.61641,-19.5826 14.5191,-29.988 -7.31792,5.23928 -16.0407,9.07371 -24.4123,16.069 -0.59726,-2.72495 1.91877,-11.3043 5.78495,-17.7812 4.3818,-7.34117 11.2521,-9.52101 9.7081,-16.5164 -7.90101,12.3024 -18.9632,8.80045 -28.2694,18.9958 0.630709,-11.9852 8.63689,-13.434 10.3212,-21.5558 -6.44315,7.36526 -20.9642,6.3017 -29.1637,14.0185 2.9554,-6.02533 8.48608,-10.6458 11.6748,-15.9681 -6.62429,1.51399 -15.9409,3.37918 -25.1413,7.70344 0.794835,-3.82224 4.51588,-9.98533 6.24558,-15.679 -4.60432,-0.417827 -19.3938,11.808 -28.9154,16.3072 0.20863,-5.01874 3.22696,-8.63235 3.78681,-15.0557 -4.77128,3.66151 -12.0594,9.78152 -19.4071,11.6867 -7.15011,-5.27556 -12.2553,-4.09436 -18.4666,0 -7.34769,-1.90517 -13.5822,-10.4837 -18.3535,-14.1452 0.559843,6.42331 0.41726,10.0369 0.62589,15.0557 -9.52158,-4.49915 -19.7453,-12.8616 -24.3496,-12.4438 1.7297,5.69367 2.99225,10.4519 3.78709,14.2741 -6.74192,-6.43153 -15.3561,-9.35037 -21.6292,-10.8644 4.59355,4.97112 7.31452,11.3477 8.16265,19.129 -8.55071,-5.25827 -18.1548,-14.3799 -25.6516,-17.8818 1.68435,8.12183 8.63689,11.3267 9.2676,23.3119 -8.25251,-2.46869 -16.8562,-4.58618 -20.5427,-16.8885 -5.13808,12.4861 12.2017,27.4306 10.9273,33.2439 -9.4252,-2.78079 -14.6358,-10.4786 -21.9538,-15.7178 2.33688,11.8103 6.79635,21.9234 13.8166,29.988 -8.06826,0.775559 -14.8473,-2.31251 -21.041,-7.1572 4.39484,16.4506 16.5762,23.2999 23.1973,30.3832 -4.80586,-0.120189 -10.3141,-1.64523 -15.4709,-2.46756 0.774426,7.91774 14.1925,16.8894 17.0742,24.8074 -34.8738,-11.7734 -49.0261,-6.68835 -73.3632,-8.97874 18.0445,28.6532 43.2601,43.4781 74.4174,46.8451l0.600662 19.7215c-2.26205,10.8731 3.67087,19.2881 15.6915,28.4057 3.0583,2.69263 1.9165,20.9234 6.34224,40.1902 1.72743,7.52004 11.4534,32.9086 13.3257,37.0766 1.00091,2.2286 1.38983,5.88246 -0.0215433,11.6334 -16.3004,16.5696 -6.25975,41.9196 -5.70161,51.8162 2.92621,6.96501 -5.3864,21.6567 14.0471,24.0562 30.6862,-1.40485 61.3721,-1.40485 92.0574,0z"/>
  <path fill="#F00000" d="M282.461 281.844c-0.0654803,-2.92762 3.93534,-3.24454 4.93059,-5.75263 3.73918,-9.4201 14.2951,-18.2724 20.0146,-15.4653 3.06397,1.50406 11.8879,0.318047 15.9381,1.74132 -0.539717,9.78549 -4.3132,14.6186 -8.48126,19.1642 -7.65695,8.34974 -28.4987,5.46407 -32.402,0.312378z"/>
  <path fill="#F00000" d="M214.732 281.318c0.54,-2.93896 -2.10643,-1.15058 -7.77912,-12.1507 -5.27925,-10.237 -19.7141,-15.0406 -32.2268,-4.1675 1.97915,3.31994 2.31789,7.99285 4.75852,11.5234 3.97814,5.75462 7.27002,5.73704 11.4044,7.66659 5.85128,2.7309 12.2213,2.60589 23.8431,-2.87178z"/>
  <path fill="black" d="M196.263 259.358c4.24148,1.28665 7.3766,6.00038 7.3766,11.4004 0,6.40007 -4.40362,11.59 -9.83396,11.59 -5.43033,0 -9.83396,-5.18996 -9.83396,-11.59 0,-3.20003 1.10098,-6.09733 2.88085,-8.19496l2.57726 0.398551c-2.37912,3.0583 -2.88624,6.35046 -1.52249,9.87619l1.8618 -2.29408c-1.32463,-4.26699 4.54479,-5.90202 4.97481,-0.694205l1.78668 -0.249449c-0.0096378,-3.45799 -0.721134,-5.04397 -2.13449,-4.75909 0.972851,-1.12592 1.82891,-2.9537 1.8669,-5.48334z"/>
  <path fill="black" d="M301.148 269.386c0.522709,0.578268 1.2926,-0.283181 2.63792,-1.06951 -0.233575,-2.89191 2.21386,-0.44504 6.09137,-0.619654 0.599244,-2.03613 -1.01367,-5.24807 -0.33704,-4.4195 1.69909,2.08006 2.74989,4.95355 2.74989,8.12637 0,5.46888 -4.73046,11.1421 -9.91389,11.1421 -5.18344,0 -8.86082,-4.79594 -8.86082,-11.1421 0,-5.65172 3.3344,-10.3527 7.72583,-11.3134 0.53915,-0.117921 -1.36205,7.89194 -0.0932599,9.29566z"/>
  <ellipse fill="#7F7F7F" cx="308.781" cy="270.877" rx="0.526394" ry="1.66677"/>
  <ellipse fill="#7F7F7F" cx="294.568" cy="271.492" rx="0.526394" ry="1.40372"/>
  <path fill="#7F7F7F" d="M306.149 278.686c0.387496,0 0.701859,0.785764 0.701859,1.75465 0,0.968882 -0.665292,0.877323 -1.05279,0.877323 -0.387496,0 -0.350929,0.0915591 -0.350929,-0.877323 0,-0.968882 0.314362,-1.75465 0.701859,-1.75465z"/>
  <path fill="#7F7F7F" d="M170.275 253.9c3.12718,11.3403 21.3421,-4.55018 34.6496,4.29024 9.50315,6.31276 7.32728,18.2265 18.3835,23.1044 -0.319181,-5.40142 -4.24857,-8.892 -5.65087,-12.1184 -3.08608,-7.09909 -5.14205,-11.1983 -12.1901,-14.7821 -14.4816,-7.36385 -25.6272,5.11427 -35.1921,-0.494079z"/>
  <path fill="#7F7F7F" d="M186.657 249.734c5.83059,-1.32491 13.5785,-2.44432 19.5781,0.850111 11.7193,6.43493 14.1316,17.3143 17.445,20.3811 0.494362,-4.45805 -4.78148,-18.2033 -16.4478,-22.5672 -7.704,-2.8817 -13.9921,-4.43707 -20.5753,1.33597z"/>
  <path fill="#7F7F7F" d="M204.73 237.627c-0.965197,2.71956 6.39525,3.1646 13.2216,9.51874 4.46514,4.15616 5.76539,10.4842 8.18504,15.7482 5.76454,-6.31616 -6.69402,-22.576 -21.4067,-25.2669z"/>
  <path fill="#7F7F7F" d="M224.558 239.206c4.97254,3.88829 7.7213,15.177 8.59777,29.829 1.6234,-13.43 0.0742678,-24.5276 -7.19405,-31.4082l-1.22825 0.350929 -0.175465 1.22825z"/>
  <path fill="#7F7F7F" d="M196.834 290.091c-12.5167,0.87704 -23.2787,-8.89087 -24.3896,-17.1955l-1.22825 0.350929c1.19877,12.0481 13.013,19.5347 25.9688,18.2483l-0.350929 -1.40372z"/>
  <path fill="#7F7F7F" d="M278.425 276.054l0.175465 -1.75465c2.9401,-5.04114 5.58397,-7.08123 8.48211,-11.6558 8.58785,-13.5567 26.144,-15.7204 43.6309,-7.46986 -2.1206,5.61544 -12.7364,5.61544 -14.5636,-1.05279 -26.7877,-2.69036 -26.7293,15.8505 -37.7249,21.9331z"/>
  <path fill="#7F7F7F" d="M279.478 266.579l-2.80743 1.57918c6.05055,-20.2442 32.9942,-42.0137 55.7978,-20.7048l-8.24684 -2.9829 -2.9829 0.175465c-13.6576,-10.5044 -37.6503,6.63449 -41.7606,21.9331z"/>
  <path fill="#7F7F7F" d="M274.741 258.858l6.31673 -11.7561c1.63758,-1.9885 3.40668,-3.05632 4.4521,-5.17607 1.21493,-2.46416 4.17487,-5.29342 6.42671,-7.28192 3.88914,0.176032 7.28164,-1.57861 10.7033,-4.21115l-7.19405 1.75465c1.62397,-1.34362 4.59695,-2.80488 15.6164,-5.08848l-1.40372 -0.877323c-9.72993,0.374457 -20.1251,5.80762 -23.3515,10.5296 -2.56621,3.75591 -5.50432,5.6075 -7.7057,9.82432 -1.29232,0.0257953 -3.73975,2.06589 -4.02321,4.3543 -0.37389,3.0206 -2.93471,4.40844 0.162992,7.92822z"/>
  <path fill="#7F7F7F" d="M308.43 291.495c-2.13336,3.07049 -8.27433,3.42114 -16.4937,2.28104 -1.34504,0.701859 -2.45622,0.701859 -3.33383,0 -1.46211,0.818363 -2.45622,0.233575 -2.9829,-1.75465l-0.175465 -1.75465c6.14126,-1.22825 15.09,1.57918 21.5822,0l1.40372 1.22825z"/>
  <path fill="#F00000" d="M274.234 468.842c-15.5707,-0.468284 -31.1411,-0.468284 -46.7113,0 4.06772,57.0719 33.7451,62.1057 46.7113,0z"/>
  <path fill="#8C0000" d="M242.322 511.621c10.6228,7.30233 24.213,-5.90372 31.9116,-42.7788 -0.684,-0.0204095 -4.52948,10.4961 -5.21377,10.4774 -0.684284,-0.0187087 1.79235,-10.5732 1.10806,-10.59 -13.2284,-0.327685 -26.4575,-0.31748 -39.6862,0.0303307l1.64636 3.94555 9.10404 0.535748 7.04126 1.84394 4.56378 -1.59676 4.22816 3.05547 2.02932 -2.60419 7.10107 3.68277c-4.19868,23.508 -11.4409,34.8406 -23.8337,33.9985z"/>
  <path fill="#7F7F7F" d="M154.821 248.632c0,0.819496 0,1.63899 0,2.45849 -10.5296,4.40731 -31.6854,-8.15726 -62.5159,-36.1749l4.79452 1.42158 0.466866 -1.43972 5.12391 2.31222 0.58989 -1.27587 3.1028 1.49981 1.29855 -1.11855 3.96822 3.69865c4.51049,-0.439654 8.3333,-1.10863 11.1515,-2.11295 -0.841607,1.35723 -2.95257,2.57329 -6.3326,3.64762l2.20706 1.53921 10.6719 0.117921 -3.91011 2.84457 7.79103 0.0714331 1.28041 2.39046 5.69537 0.406772c-0.540851,1.21833 -2.31024,1.6886 -4.2704,2.05767l3.15354 2.15547 10.3232 0.0626457c-0.221953,1.6458 -1.93068,2.30003 -3.852,2.81254l5.75008 3.14221c2.37402,-2.76208 5.45216,-4.29024 10.0826,-3.10451 -6.70082,1.61093 -7.58438,2.63906 -5.82435,3.40271l2.47748 0.17348c-2.96873,1.64891 -6.50211,2.31194 -10.599,1.9868 -11.649,-5.05333 -18.54,-14.1245 -20.6731,-11.0364 -7.01887,-4.61424 -13.4739,-7.95969 -19.3652,-10.0364 15.3621,20.4347 31.841,29.3377 47.4137,28.097z"/>
  <path fill="#7F7F7F" d="M376.437 241.256c-3.1989,2.54353 -7.80067,6.34309 -10.658,6.32296 -0.911339,-0.00651969 -15.6096,7.10901 -22.7072,6.67191l0 2.10728c11.7408,0.0416693 22.8787,-3.94526 33.3652,-12.2924l0 -2.8097z"/>
  <path fill="#7F7F7F" d="M404.316 217.14c-3.91805,3.57534 -7.15975,3.81742 -8.0263,5.7807 -0.477922,1.08312 -2.60759,2.06816 -3.68334,2.60759l2.56139 1.20586c2.05625,-1.99219 8.39906,-7.28731 9.14826,-9.59415z"/>
  <path fill="#7F7F7F" d="M338.506 237.042c26.5513,7.81824 37.8108,-14.1919 61.8134,-20.7216 -6.05594,-0.804473 -10.1296,1.60044 -14.864,2.58945 -4.40504,-0.943937 -8.24372,-0.75515 -13.1207,-2.73742 1.10126,2.76888 5.78948,3.27232 8.68422,4.90847 -16.6133,7.92907 -17.2741,20.0115 -32.5658,10.7609l-0.849544 1.32151 -7.07953 -3.30378c1.44737,2.29691 5.25459,4.68822 8.87301,7.17392 -2.03528,-0.265323 -5.63556,-1.29969 -6.25578,-0.993827 -0.99156,0.488693 -2.97525,0.0734174 -4.5995,-0.422079l-0.0357166 1.42441z"/>
  <path fill="#7F7F7F" d="M375.732 220.986c-1.03805,2.10784 -2.3281,3.58668 -3.87014,4.43651 -2.45084,-0.0150236 -5.84051,0.169228 -7.77629,-0.61852 -3.19606,-1.30082 -10.3779,1.19367 -10.5361,-5.32829 4.46825,1.66025 9.34526,2.39925 14.8198,1.79348 -1.52079,-1.19565 -3.22611,-2.10784 -3.11499,-3.58696 3.13852,1.80936 6.58432,3.00501 10.4777,3.30378z"/>
  <path fill="#7F7F7F" d="M369.974 227.027l-5.00287 2.92621c-9.2829,0.676914 -15.8907,0.0161575 -16.6133,-3.58696 2.80035,0.219969 5.16019,2.13931 7.92907,2.07666l-1.5103 -1.60469c2.28161,1.06951 4.86142,1.54148 7.64589,1.60469l-1.5103 -1.60469c3.65216,0.852945 6.42076,0.600095 9.0618,0.188787z"/>
  <polygon fill="#7F7F7F" points="347.886,227.783 346.376,226.272 346.282,228.255 "/>
  <polygon fill="#7F7F7F" points="342.6,228.349 341.562,226.461 341.468,228.443 "/>
  <path fill="#7F7F7F" d="M172.971 217.273c-0.322866,2.85251 -4.00734,8.08668 -4.21115,8.07137 0.526394,-2.33943 1.93011,-5.73166 4.21115,-8.07137z"/>
  <path fill="#7F7F7F" d="M174.024 219.203c-0.322866,2.85251 -5.58652,11.0696 -5.79033,11.0543 0.526394,-2.33943 3.50929,-8.71456 5.79033,-11.0543z"/>
  <path fill="#7F7F7F" d="M174.375 225.695c-0.00878741,3.69383 -3.25928,7.60649 -3.68476,7.36952 0.526394,-2.33943 1.40372,-5.0298 3.68476,-7.36952z"/>
  <path fill="#7F7F7F" d="M175.778 227.099c-0.102614,3.29443 -6.97096,16.0211 -7.36952,15.6164 0.526394,-2.33943 5.08848,-13.2766 7.36952,-15.6164z"/>
  <path fill="#7F7F7F" d="M167.181 240.259c-0.322866,2.85251 -2.07723,4.05099 -2.28104,4.03569 0.526394,-2.33943 0,-1.69597 2.28104,-4.03569z"/>
  <path fill="#7F7F7F" d="M178.235 231.135c-0.322866,2.85251 -6.11292,11.9469 -6.31673,11.9316 -0.0189921,-2.33915 3.33354,-9.5916 6.31673,-11.9316z"/>
  <path fill="#7F7F7F" d="M177.709 227.976c-0.322866,2.85251 -1.7263,4.05099 -1.93011,4.03569 0.526394,-2.33943 -0.350929,-1.69597 1.93011,-4.03569z"/>
  <path fill="#7F7F7F" d="M169.111 244.997c-0.322866,2.85251 -2.60362,5.27925 -2.80743,5.26394 0.526394,-2.33943 0.526394,-2.92422 2.80743,-5.26394z"/>
  <path fill="#7F7F7F" d="M171.879 246.985c0.382677,3.51836 -2.36495,5.09131 -2.76832,4.85433 0.526394,-2.33943 0.487276,-2.51462 2.76832,-4.85433z"/>
  <path fill="#7F7F7F" d="M176.129 246.751c-0.322866,2.85251 -3.83188,8.08668 -4.03569,8.07137 0.526394,-2.33943 1.75465,-5.73166 4.03569,-8.07137z"/>
  <path fill="#7F7F7F" d="M180.691 234.82c-0.322866,2.85251 -6.46385,10.7187 -6.66766,10.7033 0.526394,-2.33943 4.38662,-8.36363 6.66766,-10.7033z"/>
  <path fill="#7F7F7F" d="M179.814 231.661c-0.322866,2.85251 -2.07723,4.05099 -2.28104,4.03569 0.526394,-2.33943 0,-1.69597 2.28104,-4.03569z"/>
  <path fill="#7F7F7F" d="M171.041 253.945c-0.322866,2.85251 -1.37537,3.34914 -1.57918,3.33383 0.526394,-2.33943 -0.701859,-0.994111 1.57918,-3.33383z"/>
  <path fill="#7F7F7F" d="M166.83 256.226c-0.322866,2.85251 -1.37537,3.34914 -1.57918,3.33383 0.526394,-2.33943 -0.701859,-0.994111 1.57918,-3.33383z"/>
  <path fill="#7F7F7F" d="M180.341 227.45l-2.45651 2.10558c0.466016,-1.23024 1.04995,-2.28416 2.45651,-2.10558z"/>
  <path fill="#7F7F7F" d="M183.499 226.573l-2.9829 2.28104c0.466016,-1.23024 1.57635,-2.45962 2.9829,-2.28104z"/>
  <path fill="#7F7F7F" d="M183.85 229.38l-2.80743 1.93011c0.466016,-1.23024 1.40088,-2.10869 2.80743,-1.93011z"/>
  <path fill="#7F7F7F" d="M184.376 232.188l-2.80743 2.10558c0.466016,-1.23024 1.40088,-2.28416 2.80743,-2.10558z"/>
  <path fill="#7F7F7F" d="M187.535 231.31l-2.45651 1.40372c0.466016,-1.23024 1.04995,-1.5823 2.45651,-1.40372z"/>
  <path fill="#7F7F7F" d="M186.833 228.854l-2.45651 1.40372c0.466016,-1.23024 1.04995,-1.5823 2.45651,-1.40372z"/>
  <path fill="#7F7F7F" d="M186.657 225.169l-2.28104 1.75465c0.466016,-1.23024 0.874489,-1.93323 2.28104,-1.75465z"/>
  <path fill="#7F7F7F" d="M187.359 234.82l-2.28104 1.75465c0.466016,-1.23024 0.874489,-1.93323 2.28104,-1.75465z"/>
  <path fill="#7F7F7F" d="M184.201 236.75l-2.63197 1.75465c0.466016,-1.23024 1.22542,-1.93323 2.63197,-1.75465z"/>
  <path fill="#7F7F7F" d="M226.137 280.089c-0.322866,2.85251 -4.35827,9.84133 -4.56208,9.82602 0.526394,-2.33943 2.28104,-7.4863 4.56208,-9.82602z"/>
  <path fill="#7F7F7F" d="M227.541 286.055c-1.08255,0.745512 -4.46485,11.1144 -5.68205,19.4811 -0.81326,5.59021 -2.56536,23.1483 -1.68747,24.5605 -3.13087,-1.11147 0.320032,-40.1222 7.36952,-44.0416z"/>
  <path fill="#7F7F7F" d="M230.699 287.284c-3.18983,2.50158 -4.01981,8.56999 -6.20873,21.4104 -1.31669,7.72441 -2.74054,31.5714 -1.86265,32.9837 -3.32136,-8.5252 1.21323,-57.5722 8.07137,-54.394z"/>
  <path fill="#7F7F7F" d="M233.331 302.374c-1.08255,0.745512 -4.69474,12.3562 -5.85751,22.464 -0.928914,8.07534 -1.68803,29.9914 -0.810142,31.4036 -4.45295,-4.75824 0.0660473,-53.2642 6.66766,-53.8676z"/>
  <path fill="#7F7F7F" d="M231.927 293.776c-0.794552,0.547087 -3.22044,8.59408 -4.82655,16.4937 -1.60611,7.90016 -2.39358,15.6543 -2.01657,17.0201 -2.74961,-0.860882 1.05335,-28.3842 6.84312,-33.5137z"/>
  <path fill="#7F7F7F" d="M234.559 311.849c-0.794552,0.547087 -3.92825,12.168 -4.82655,18.5993 -1.12394,8.047 -0.502016,17.0578 -0.261921,18.4238 -3.33496,-1.83515 -1.05279,-32.347 5.08848,-37.023z"/>
  <path fill="#7F7F7F" d="M236.314 318.692c-0.794552,0.547087 -2.87575,10.5891 -3.77377,17.0201 -1.12365,8.04671 -1.5548,18.637 -1.31471,20.003 -2.3828,-2.59739 0.339024,-33.4599 5.08848,-37.023z"/>
  <path fill="#7F7F7F" d="M238.244 328.518c-0.794552,0.547087 -2.41597,6.15855 -2.89644,15.09 -0.433134,8.05692 0.024378,30.2176 0.264473,31.5836 -2.67307,-5.68517 -3.5178,-47.4886 2.63197,-46.6736z"/>
  <path fill="#7F7F7F" d="M205.765 350.678c-1.28721,5.80848 -1.03011,29.0965 -0.696473,33.5052 -1.9012,-1.11147 -4.42063,-26.4254 0.696473,-33.5052z"/>
  <path fill="#7F7F7F" d="M203.658 338.737c-1.28721,5.80848 -2.43496,34.3647 -2.10132,38.7734 -2.19373,-0.350362 -2.48854,-31.1669 2.10132,-38.7734z"/>
  <path fill="#7F7F7F" d="M201.2 331.011c-1.28721,5.80848 -2.78617,32.6086 -2.45254,37.0174 -2.19373,-0.350362 -2.13732,-29.4109 2.45254,-37.0174z"/>
  <path fill="#7F7F7F" d="M199.092 321.879c-0.759685,5.80819 -3.42964,26.989 -3.50617,31.398 -1.86832,0.553607 -0.462331,-22.8322 3.50617,-31.398z"/>
  <path fill="#7F7F7F" d="M197.687 315.206c-1.11232,5.80819 -5.07062,25.9348 -4.55981,30.3443 -2.19345,0.879024 -0.0294803,-21.1575 4.55981,-30.3443z"/>
  <path fill="#7F7F7F" d="M197.687 306.776c-1.62482,6.3207 -7.89563,26.8288 -6.49163,30.3449 -3.13002,0.879024 0.965764,-21.1584 6.49163,-30.3449z"/>
  <path fill="#7F7F7F" d="M195.582 302.214c-1.62482,6.3207 -7.0183,22.2667 -6.49163,28.5903 -2.95455,-0.875622 2.54495,-23.6149 6.49163,-28.5903z"/>
  <path fill="#7F7F7F" d="M190.669 308.355c-2.05427,5.32035 -2.8749,8.62583 -3.50873,13.1494 -0.66104,-5.6469 0.957544,-10.3164 3.50873,-13.1494z"/>
  <path fill="#7F7F7F" d="M193.301 299.933c-2.05427,5.32035 -5.50687,9.85408 -6.66709,14.3776 -1.02444,-3.85852 3.42227,-11.1569 6.66709,-14.3776z"/>
  <polygon fill="#7F7F7F" points="182.797,296.934 182.622,302.023 179.99,300.443 180.341,296.583 "/>
  <polygon fill="#7F7F7F" points="173.848,285.529 172.094,295.53 169.813,291.846 "/>
  <polygon fill="#7F7F7F" points="179.99,292.021 180.341,299.391 177.182,299.04 177.358,295.881 "/>
  <polygon fill="#7F7F7F" points="169.988,282.02 169.813,291.67 166.654,289.74 168.409,282.02 "/>
  <polygon fill="#7F7F7F" points="177.182,290.266 176.305,298.689 173.848,296.057 175.252,292.197 174.375,289.389 "/>
  <polygon fill="#7F7F7F" points="165.251,289.565 164.022,292.372 162.092,290.617 163.496,288.863 "/>
  <path fill="#F06464" d="M243.657 511.361c-0.58904,-2.45906 -6.4749,-11.6541 -8.71881,-18.7679 -2.17474,-6.89415 -3.97021,-20.4418 -4.73159,-22.0723 -0.174047,14.5154 4.45833,30.2511 13.4504,40.8402z"/>
  <path fill="#7F7F7F" d="M267.831 292.898c0.731622,1.27191 4.28967,7.43018 5.68205,13.5153 1.20586,5.27103 2.21443,15.6033 2.74025,23.1568 1.37622,-12.8676 -2.42561,-35.3846 -8.4223,-36.6721z"/>
  <path fill="#7F7F7F" d="M272.92 285.353c0.731622,1.27191 1.83345,6.20221 3.22554,12.2871 1.20558,5.27074 1.51257,11.5676 2.03839,19.1211 1.51313,-8.25931 -0.696473,-28.406 -5.26394,-31.4082z"/>
  <path fill="#7F7F7F" d="M268.358 306.058c0.731622,1.27191 3.06199,6.02674 4.27833,12.638 0.978237,5.31723 1.3371,14.726 1.86293,22.2795 1.61008,-12.1657 0.0892914,-32.9281 -6.14126,-34.9175z"/>
  <path fill="#7F7F7F" d="M269.06 314.831c0.731622,1.27191 1.68406,8.03934 2.17276,14.7436 0.451559,6.19427 0.986174,15.0769 1.512,22.6304 0.277512,-11.0239 0.598394,-33.7159 -3.68476,-37.374z"/>
  <path fill="#7F7F7F" d="M266.252 323.429c0.731622,1.27191 2.03556,5.5834 2.52369,12.2871 0.450992,6.1937 0.810709,7.88287 1.512,15.0854 0.642614,-6.03043 -0.177165,-25.0234 -4.03569,-27.3725z"/>
  <path fill="#7F7F7F" d="M264.322 328.693c0.731622,1.27191 1.86038,4.88183 2.34822,11.5852 0.450709,6.19342 0.284315,5.77729 0.985607,12.9798 0.642331,-7.39021 0.52441,-23.6639 -3.33383,-24.5651z"/>
  <path fill="#7F7F7F" d="M276.846 279.739c0.322866,2.85251 0.673512,10.0168 1.75465,11.2297 -0.0294803,-2.10529 0.262772,-8.36306 -1.75465,-11.2297z"/>
  <path fill="#7F7F7F" d="M301.762 303.777c-0.174047,3.35027 1.81446,12.5612 3.33383,13.3353 0.202961,-1.31471 -1.2583,-9.67834 -3.33383,-13.3353z"/>
  <path fill="#7F7F7F" d="M307.903 299.742c0.322866,2.85251 1.55084,8.78854 2.63197,10.0015 -0.0294803,-2.10529 -0.614551,-7.13481 -2.63197,-10.0015z"/>
  <path fill="#7F7F7F" d="M305.973 303.953c0.322866,2.85251 0.498047,5.80564 1.57918,7.01859 -0.0294803,-2.10529 0.438236,-4.15191 -1.57918,-7.01859z"/>
  <path fill="#7F7F7F" d="M300.183 312.55c-0.174047,3.35027 0.41074,14.1404 1.93011,14.9145 0.0289134,-1.31499 -0.146551,-11.2575 -1.93011,-14.9145z"/>
  <path fill="#7F7F7F" d="M297.726 320.797c-0.174047,3.35027 4.62189,10.6311 6.14126,11.4052 0.496914,-1.31528 -3.8897,-7.74851 -6.14126,-11.4052z"/>
  <path fill="#7F7F7F" d="M296.674 328.693c-0.174047,3.35027 2.51632,12.9121 3.86022,14.0372 0.321449,-2.01713 -1.60866,-10.3805 -3.86022,-14.0372z"/>
  <path fill="#7F7F7F" d="M295.27 340.098c0.527811,3.52573 1.63899,7.29723 2.9829,8.4223 0.0873071,-2.76293 -0.96463,-6.40545 -2.9829,-8.4223z"/>
  <path fill="#7F7F7F" d="M293.866 346.591c-0.174047,3.35027 0.41074,6.77084 1.75465,7.89591 0.321449,-1.84167 -0.38041,-4.76561 -1.75465,-7.89591z"/>
  <path fill="#7F7F7F" d="M288.953 356.592c0.352347,2.99934 1.46353,6.24444 2.28104,7.72044 0.496914,-2.54353 -0.555874,-5.292 -2.28104,-7.72044z"/>
  <path fill="#7F7F7F" d="M288.251 366.769c0.586205,2.76548 0.468851,3.02769 1.05279,4.73755 0.496914,-2.54353 0.672378,-2.3091 -1.05279,-4.73755z"/>
  <path fill="#7F7F7F" d="M285.97 374.139c0.35263,2.76548 2.34085,11.8009 3.15836,13.5108 0.964347,-2.30939 -0.965481,-10.8479 -3.15836,-13.5108z"/>
  <path fill="#7F7F7F" d="M280.946 372.597c1.764,2.20904 1.77676,2.49591 3.06539,3.76243 -0.696473,-2.49619 -0.434551,-2.36551 -3.06539,-3.76243z"/>
  <path fill="#7F7F7F" d="M323.246 193.867c-0.322866,2.85251 -5.93745,10.7187 -6.14126,10.7033 0.526394,-2.33943 3.86022,-8.36363 6.14126,-10.7033z"/>
  <path fill="#7F7F7F" d="M320.614 190.358c0.106016,3.06766 -10.4479,21.4481 -11.5807,21.7576 0.175465,-2.33943 9.29963,-19.4179 11.5807,-21.7576z"/>
  <path fill="#7F7F7F" d="M318.157 199.131c0.278079,3.15383 -5.33282,10.4947 -5.79033,10.3524 0.526394,-2.33943 3.50929,-8.0127 5.79033,-10.3524z"/>
  <path fill="#7F7F7F" d="M310.612 201.062c0.227906,3.40413 -4.59638,9.42804 -5.08848,9.12416 0.526394,-2.33943 2.80743,-6.78444 5.08848,-9.12416z"/>
  <path fill="#7F7F7F" d="M316.403 193.517c0.144284,3.47698 -7.3287,16.0798 -7.89591,15.4409 0.526394,-2.33943 5.61487,-13.1012 7.89591,-15.4409z"/>
  <path fill="#7F7F7F" d="M310.086 198.43c0.260221,3.14476 -3.21619,6.11377 -3.68476,5.9658 0.526394,-0.760252 1.40372,-3.62608 3.68476,-5.9658z"/>
  <path fill="#7F7F7F" d="M309.033 195.798c0.320315,0.922394 -0.907654,2.82274 -1.75465,2.80743 0.175465,-0.233858 -0.526394,-0.467717 1.75465,-2.80743z"/>
  <path fill="#7F7F7F" d="M312.718 192.815c0.581103,1.70561 -1.27786,4.16977 -2.28104,3.68476 0.175465,-0.233858 0,-1.34504 2.28104,-3.68476z"/>
  <path fill="#7F7F7F" d="M305.173 184.392c-0.128126,3.24284 -10.6302,21.6882 -11.5807,21.7576 -0.108284,-2.05569 9.16101,-19.2793 11.5807,-21.7576z"/>
  <path fill="#7F7F7F" d="M300.786 188.253c0.0666142,2.85279 -11.9883,24.5804 -13.1598,25.0914 0.175465,-2.33943 10.8788,-22.7517 13.1598,-25.0914z"/>
  <path fill="#7F7F7F" d="M302.366 181.76c-1.0148,4.00536 -17.8795,34.5407 -17.8974,33.8647 -0.285732,-2.33943 15.2459,-31.5247 17.8974,-33.8647z"/>
  <path fill="#7F7F7F" d="M294.821 192.113c-0.54737,4.23978 -9.79569,19.2818 -10.177,18.4238 -0.00651969,-2.52142 7.66177,-16.3179 10.177,-18.4238z"/>
  <path fill="#7F7F7F" d="M294.294 188.954c-0.625323,4.00564 -9.71774,19.0999 -10.177,18.4238 0.175465,-2.33943 7.89591,-16.0841 10.177,-18.4238z"/>
  <path fill="#7F7F7F" d="M298.681 184.568c-1.0148,4.00536 -3.14051,6.4664 -3.15836,5.79033 0.701575,-2.33887 1.28636,-3.45033 3.15836,-5.79033z"/>
  <path fill="#7F7F7F" d="M289.732 192.464c-0.218551,4.55726 -4.43821,10.9661 -4.91301,10.0015 0.175465,-2.33943 2.63197,-7.66177 4.91301,-10.0015z"/>
  <path fill="#7F7F7F" d="M305.875 177.725c-0.225638,2.42674 -1.1812,5.82322 -2.10558,6.31673 0.324567,-0.812977 0.152787,-3.32022 2.10558,-6.31673z"/>
  <path fill="#7F7F7F" d="M306.928 172.812c-0.225638,2.42674 -1.00573,4.06857 -1.93011,4.56208 0.175465,-1.11118 -0.350929,-2.22236 1.93011,-4.56208z"/>
  <path fill="#7F7F7F" d="M303.945 174.391c-0.225638,2.42674 -1.1812,5.82322 -2.10558,6.31673 0.324567,-0.812977 0.152787,-3.32022 2.10558,-6.31673z"/>
  <path fill="#7F7F7F" d="M294.821 183.866c-0.225638,2.42674 -1.53213,4.24403 -2.45651,4.73755 0.198992,-0.938268 0.12926,-2.11493 2.45651,-4.73755z"/>
  <path fill="#7F7F7F" d="M299.383 179.83c-0.225638,2.42674 -1.00573,3.19125 -1.93011,3.68476 0.198992,-0.938268 -0.397134,-1.06214 1.93011,-3.68476z"/>
  <path fill="#7F7F7F" d="M299.558 174.391c-0.225638,2.42674 -1.00573,3.19125 -1.93011,3.68476 0.198992,-0.938268 -0.397134,-1.06214 1.93011,-3.68476z"/>
  <path fill="#7F7F7F" d="M303.402 169.259c1.22003,2.10983 1.02614,3.18473 0.557859,4.12214 -0.38041,-0.880441 -0.938552,-0.636378 -0.557859,-4.12214z"/>
  <path fill="#7F7F7F" d="M289.19 181.542c1.22032,2.10983 0.324567,8.97534 -0.143717,9.91276 -0.84841,-0.880158 -0.704977,-6.42643 0.143717,-9.91276z"/>
  <path fill="#7F7F7F" d="M285.681 181.366c1.00063,2.11068 0.426614,9.15109 0.206929,10.0882 -0.847843,-0.67578 -1.05534,-6.33827 -0.206929,-10.0882z"/>
  <path fill="#7F7F7F" d="M285.681 168.733c-1.35326,2.81254 -1.3714,27.9252 0.733323,28.1608 -3.11471,-0.200693 -5.04681,-22.5476 -0.733323,-28.1608z"/>
  <path fill="#7F7F7F" d="M278.327 184.217c-0.322866,2.85251 -10.8505,21.2465 -11.5807,21.7576 -0.332504,-2.33943 8.97364,-19.4176 11.5807,-21.7576z"/>
  <path fill="#7F7F7F" d="M271.659 192.464c-0.58337,4.1264 -7.47808,15.3 -8.59777,15.6164 0.175465,-2.33943 6.31673,-13.2766 8.59777,-15.6164z"/>
  <path fill="#7F7F7F" d="M267.974 194.92c-0.432851,3.90558 -7.0818,14.7543 -8.07137,15.2654 0.175465,-2.33943 5.79033,-12.9257 8.07137,-15.2654z"/>
  <path fill="#7F7F7F" d="M273.765 184.568c-0.530929,4.15304 -4.54677,9.65963 -5.61487,10.0015 0.175465,-2.33943 3.33383,-7.66177 5.61487,-10.0015z"/>
  <path fill="#7F7F7F" d="M267.974 190.534c-0.804189,4.34721 -7.14643,15.1441 -8.07137,15.2654 0.175465,-2.33943 5.79033,-12.9257 8.07137,-15.2654z"/>
  <path fill="#7F7F7F" d="M279.555 166.144c0.93515,4.94334 1.28608,15.1787 -3.15836,17.1955 3.12917,-6.27279 2.36863,-10.3374 3.15836,-17.1955z"/>
  <path fill="#7F7F7F" d="M274.818 167.899c0.93515,4.94334 1.81247,12.7222 -2.63197,14.739 2.42731,-4.16721 2.0177,-8.05635 2.63197,-14.739z"/>
  <path fill="#7F7F7F" d="M268.426 180.426c0.596693,3.15468 1.15654,8.119 -1.67981,9.40621 1.54913,-2.65947 1.28778,-5.14148 1.67981,-9.40621z"/>
  <path fill="#7F7F7F" d="M264.215 182.005c0.128976,1.5171 1.74161,11.2192 -0.62674,14.1438 0.714331,-3.21562 -0.336189,-10.2594 0.62674,-14.1438z"/>
  <path fill="#7F7F7F" d="M261.094 193.74c0.935434,1.73197 2.1858,4.52835 0.768189,5.80791 0.410457,-1.84195 -0.204095,-3.2434 -0.768189,-5.80791z"/>
  <path fill="#7F7F7F" d="M259.63 188.95c1.10551,1.64268 1.88986,5.25345 -0.527811,6.73314 0.595559,-1.79065 0.828567,-4.12469 0.527811,-6.73314z"/>
  <path fill="#7F7F7F" d="M259.805 182.808c1.51512,0.58989 4.34665,5.95531 1.4023,7.435 1.12195,-1.79065 -0.691937,-4.82655 -1.4023,-7.435z"/>
  <path fill="#7F7F7F" d="M259.454 173.158c0.943937,1.64324 1.40627,11.2195 -0.878741,12.1725 -0.106583,-1.70249 0.76989,-9.35887 0.878741,-12.1725z"/>
  <path fill="#7F7F7F" d="M251.832 179.128c-1.02472,3.90529 -11.0259,21.0711 -11.7561,21.5822 0.175465,-2.33943 9.47509,-19.2424 11.7561,-21.5822z"/>
  <path fill="#7F7F7F" d="M251.305 185.972c-1.02472,3.90529 -6.56107,15.1047 -7.29128,15.6158 0.175465,-2.33943 5.01024,-13.2761 7.29128,-15.6158z"/>
  <path fill="#7F7F7F" d="M255.341 175.795c-1.02472,3.90529 -6.99024,14.4034 -7.72044,14.9145 0.175465,-2.33943 5.4394,-12.5748 7.72044,-14.9145z"/>
  <path fill="#7F7F7F" d="M254.113 169.478c-0.739276,3.90558 -8.91298,19.141 -9.82602,19.652 0.379843,-2.33915 7.80775,-17.312 9.82602,-19.652z"/>
  <path fill="#7F7F7F" d="M257.019 168.349c0.26504,1.48932 -2.77002,6.70111 -3.08126,6.91909 -0.10063,-1.17269 2.10898,-5.92158 3.08126,-6.91909z"/>
  <path fill="#7F7F7F" d="M253.685 158.348c2.03443,3.74145 0.490677,13.2225 -1.32661,11.4812 1.08369,-1.45049 1.50917,-10.6736 1.32661,-11.4812z"/>
  <path fill="#7F7F7F" d="M246.652 197.524c1.47997,2.59087 -1.34986,9.39005 -3.84605,7.99626 1.05619,-0.0666142 3.96482,-7.471 3.84605,-7.99626z"/>
  <path fill="#7F7F7F" d="M244.736 196.302c-0.198142,2.75584 -2.22832,6.62344 -3.95858,6.51402 0.105165,-1.40173 2.592,-5.11229 3.95858,-6.51402z"/>
  <path fill="#7F7F7F" d="M242.111 192.182c-0.298205,2.3451 -1.97206,5.5338 -3.26353,5.37052 0.0867402,-1.15569 2.13676,-4.21484 3.26353,-5.37052z"/>
  <path fill="#7F7F7F" d="M241.409 189.374c0.390331,1.79291 -2.66088,7.66545 -3.96539,7.4761 0.0867402,-1.15569 2.83862,-6.32041 3.96539,-7.4761z"/>
  <path fill="#7F7F7F" d="M242.111 184.461c0.721985,1.57833 -4.98699,10.9083 -6.07096,11.1609 -0.147402,-1.38954 4.76221,-10.1869 6.07096,-11.1609z"/>
  <path fill="#7F7F7F" d="M243.866 177.092c0.390331,1.79263 -2.6606,7.66517 -3.96539,7.4761 0.0867402,-1.15569 2.83862,-6.32041 3.96539,-7.4761z"/>
  <path fill="#7F7F7F" d="M238.426 186.918c0.429449,2.10473 -2.34907,6.54123 -3.61446,6.24785 0.0867402,-1.15569 2.48769,-5.09216 3.61446,-6.24785z"/>
  <path fill="#7F7F7F" d="M238.602 183.058c0.377575,1.76684 -3.34942,8.56885 -4.66725,8.35342 0.0867402,-1.15569 3.54047,-7.19774 4.66725,-8.35342z"/>
  <path fill="#7F7F7F" d="M239.479 177.969c0.365103,1.40343 -5.26649,11.2592 -6.59736,11.5118 0.0867402,-1.15569 5.47059,-10.3558 6.59736,-11.5118z"/>
  <path fill="#7F7F7F" d="M239.128 173.582c0.429449,1.87087 -1.41959,6.28781 -2.73714,6.07238 0.320599,-0.921544 1.84422,-4.68255 2.73714,-6.07238z"/>
  <path fill="#7F7F7F" d="M234.917 181.127c0.429449,1.87087 -1.41959,6.28781 -2.73714,6.07238 0.320599,-0.921544 1.84422,-4.68255 2.73714,-6.07238z"/>
  <path fill="#7F7F7F" d="M235.443 176.916c0.429449,1.87087 -2.12145,6.63874 -3.43899,6.42331 0.320599,-0.921544 2.54608,-5.03348 3.43899,-6.42331z"/>
  <path fill="#7F7F7F" d="M234.741 174.284c0.429449,1.87087 -2.12145,6.63874 -3.43899,6.42331 0.320599,-0.921544 2.54608,-5.03348 3.43899,-6.42331z"/>
  <path fill="#7F7F7F" d="M235.619 168.494c0.429449,1.87087 -3.17424,8.56885 -4.49178,8.35342 0.320599,-0.921544 3.59887,-6.96359 4.49178,-8.35342z"/>
  <path fill="#7F7F7F" d="M235.619 164.985c0.429449,1.87087 -0.893197,4.00677 -2.21074,3.79134 0.320599,-0.921544 1.31783,-2.40151 2.21074,-3.79134z"/>
  <path fill="#7F7F7F" d="M247.024 203.061c0.429449,1.87087 -0.893197,4.00677 -2.21074,3.79134 0.320599,-0.921544 1.31783,-2.40151 2.21074,-3.79134z"/>
  <path fill="#7F7F7F" d="M247.308 206.187c0.314079,1.36857 -0.653386,2.93131 -1.61745,2.7737 0.234425,-0.674363 0.964063,-1.75691 1.61745,-2.7737z"/>
  <path fill="#7F7F7F" d="M222.459 193.41c1.11175,1.9681 -4.7211,12.4027 -6.24643,12.2134 0.0867402,-1.15569 5.11966,-11.0577 6.24643,-12.2134z"/>
  <path fill="#7F7F7F" d="M222.634 197.27c0.721985,1.57805 -3.58328,9.50429 -4.66725,9.75686 -0.328819,-1.15569 3.12463,-8.60089 4.66725,-9.75686z"/>
  <path fill="#7F7F7F" d="M222.635 201.482c0.721701,1.57833 -1.82891,5.4686 -2.91288,5.72117 -0.334488,-1.1075 1.00573,-4.56208 2.91288,-5.72117z"/>
  <path fill="#7F7F7F" d="M223.062 204.458c0.731339,1.56019 -0.943087,4.0303 -1.93663,3.79758 -0.250016,-0.838205 0.597827,-2.95937 1.93663,-3.79758z"/>
  <path fill="#7F7F7F" d="M223.8 207.161c0.763654,1.11515 -0.182835,2.51178 -1.09502,2.14725 0.0354331,-0.473953 0.632977,-1.67358 1.09502,-2.14725z"/>
  <path fill="#7F7F7F" d="M220.178 193.937c0.923245,1.96838 -4.24658,10.999 -5.54457,10.8096 0.0867402,-1.15569 4.4178,-9.65396 5.54457,-10.8096z"/>
  <path fill="#7F7F7F" d="M217.37 195.165c0.942804,2.24136 -2.51121,7.80804 -3.78992,7.47581 0.0867402,-1.15569 2.66315,-6.32013 3.78992,-7.47581z"/>
  <path fill="#7F7F7F" d="M227.021 180.25c0.721985,1.57833 -3.58328,10.3816 -4.66725,10.6342 0.291402,-0.951024 3.80381,-9.21487 4.66725,-10.6342z"/>
  <path fill="#7F7F7F" d="M220.178 187.444c1.01537,1.872 -0.0737008,5.46945 -1.3337,5.5457 0.52526,-0.951024 0.703276,-4.1264 1.3337,-5.5457z"/>
  <path fill="#7F7F7F" d="M215.265 183.233c1.15965,2.59937 0.922961,14.3739 -0.612284,13.4025 0.52526,-0.951024 -0.0181417,-11.9835 0.612284,-13.4025z"/>
  <path fill="#7F7F7F" d="M213.686 196.042c1.01537,2.3108 -0.424914,6.14183 -1.68463,5.72117 0.52526,-0.951024 1.05449,-4.30214 1.68463,-5.72117z"/>
  <path fill="#7F7F7F" d="M212.603 194.463c0.891497,2.49902 -0.37304,5.29824 -1.47912,4.14595 0.461197,-0.835087 0.925796,-2.89984 1.47912,-4.14595z"/>
  <path fill="#7F7F7F" d="M211.901 192.006c1.00261,2.14016 -0.0405355,4.8481 -1.47912,4.14595 0.461197,-0.835087 0.925796,-2.89984 1.47912,-4.14595z"/>
  <path fill="#7F7F7F" d="M211.199 190.252c0.891497,2.02904 -0.37304,4.51531 -1.47912,4.14595 0.461197,-0.835087 0.925796,-2.89984 1.47912,-4.14595z"/>
  <path fill="#7F7F7F" d="M210.147 187.971c0.891497,2.02904 -0.37304,4.51531 -1.47912,4.14595 0.461197,-0.835087 0.925796,-2.89984 1.47912,-4.14595z"/>
  <path fill="#7F7F7F" d="M209.445 186.216c0.891497,2.02904 -0.0221102,3.11159 -1.12819,2.74224 0.461197,-0.835087 0.574866,-1.49613 1.12819,-2.74224z"/>
  <path fill="#7F7F7F" d="M208.743 183.408c0.891497,2.02904 -0.0221102,3.11159 -1.12819,2.74224 0.461197,-0.835087 0.574866,-1.49613 1.12819,-2.74224z"/>
  <path fill="#7F7F7F" d="M208.216 173.232c0.891497,2.02904 0.504284,6.62089 -0.601796,6.25153 0.461197,-0.835087 0.0484725,-5.00542 0.601796,-6.25153z"/>
  <path fill="#7F7F7F" d="M199.725 204.633c0.836504,1.61405 -0.629008,4.39739 -1.93663,3.79758 0.0629292,-0.837922 1.1194,-2.95966 1.93663,-3.79758z"/>
  <path fill="#7F7F7F" d="M200.112 207.161c0.763654,1.11515 -0.182835,2.51178 -1.09502,2.14725 0.0354331,-0.473953 0.632977,-1.67358 1.09502,-2.14725z"/>
  <path fill="#7F7F7F" d="M200.427 200.949c0.70526,1.5086 -2.98347,7.29893 -4.00309,7.01405 -0.405071,-1.07178 2.82189,-6.35783 4.00309,-7.01405z"/>
  <path fill="#7F7F7F" d="M201.304 194.632c0.731339,2.18381 -2.69745,6.93496 -3.69128,6.07862 0.0629292,-0.837922 2.87405,-5.2407 3.69128,-6.07862z"/>
  <path fill="#7F7F7F" d="M202.708 188.315c0.731339,1.97603 -3.57477,8.30637 -4.5686,7.6578 0.0629292,-0.837922 3.75166,-6.81988 4.5686,-7.6578z"/>
  <path fill="#7F7F7F" d="M202.708 184.28c0.731339,1.97575 -2.87291,7.60451 -3.86674,6.95594 0.0629292,-0.837922 3.04951,-6.11802 3.86674,-6.95594z"/>
  <path fill="#7F7F7F" d="M202.884 179.717c0.523559,1.14435 -2.02791,5.01818 -2.81395,5.20129 0.0629292,-0.837922 1.99701,-4.36337 2.81395,-5.20129z"/>
  <path fill="#7F7F7F" d="M199.789 172.523c-0.523559,1.14463 1.32605,6.07125 2.1121,6.25437 -0.0629292,-0.838205 -1.29515,-5.41616 -2.1121,-6.25437z"/>
  <path fill="#7F7F7F" d="M197.444 201.3c1.19991,1.76797 -1.63134,6.16819 -2.98942,5.72769 0.0629292,-0.837922 2.17247,-4.88977 2.98942,-5.72769z"/>
  <path fill="#7F7F7F" d="M196.567 199.72c0.705544,1.5086 -2.14526,6.53925 -3.16488,6.25437 0.0629292,-0.837922 2.34794,-5.41616 3.16488,-6.25437z"/>
  <path fill="#7F7F7F" d="M194.286 200.598c0.731339,1.76825 -1.64466,4.76476 -2.63849,4.32397 0.0629292,-0.837922 1.82154,-3.48605 2.63849,-4.32397z"/>
  <path fill="#7F7F7F" d="M194.345 193.404c-0.523559,1.14435 1.15058,6.59736 1.93663,6.78048 -0.0629292,-0.837922 -1.11969,-5.94255 -1.93663,-6.78048z"/>
  <path fill="#7F7F7F" d="M193.058 199.019c0.939402,1.76825 -0.910489,4.23808 -2.1121,3.79758 0.0629292,-0.837922 1.29515,-2.95937 2.1121,-3.79758z"/>
  <path fill="#7F7F7F" d="M191.829 197.264c0.939402,1.56019 -1.61235,5.08309 -2.81395,4.85036 0.0629292,-0.837922 1.99701,-4.01244 2.81395,-4.85036z"/>
  <path fill="#7F7F7F" d="M188.384 190.947c-0.523559,1.14435 1.50151,5.72003 2.28756,5.90315 -0.0629292,-0.837922 -1.47061,-5.06523 -2.28756,-5.90315z"/>
  <path fill="#7F7F7F" d="M187.156 197.264c-0.523276,1.14435 0.799937,3.78992 1.58599,3.97304 -0.0629292,-0.837922 -0.768756,-3.13512 -1.58599,-3.97304z"/>
  <path fill="#7F7F7F" d="M174.458 206.213c0.731622,1.55991 -0.942804,3.85484 -1.93663,3.62211 -0.30104,-1.01991 0.651685,-3.01805 1.93663,-3.62211z"/>
  <path fill="#7F7F7F" d="M172.879 204.809c0.939402,1.56019 -0.735024,3.85484 -1.93663,3.62211 0.0629292,-0.837922 1.11969,-2.78419 1.93663,-3.62211z"/>
  <path fill="#7F7F7F" d="M171.651 203.23c0.731339,1.76825 -0.942804,4.68652 -1.93663,4.24573 0.0629292,-0.837922 1.11969,-3.40781 1.93663,-4.24573z"/>
  <path fill="#7F7F7F" d="M169.721 203.405c0.939402,1.56019 -0.384095,3.32844 -1.5857,3.09572 0.0629292,-0.837922 0.768756,-2.2578 1.5857,-3.09572z"/>
  <path fill="#7F7F7F" d="M168.668 202.528c0.523559,1.14435 -0.799654,2.03528 -1.5857,2.21839 0.0629292,-0.837922 0.768756,-1.38019 1.5857,-2.21839z"/>
  <path fill="#7F7F7F" d="M166.913 200.949c0.523559,1.14435 -0.799654,2.03528 -1.5857,2.21839 0.0629292,-0.837922 0.768756,-1.38019 1.5857,-2.21839z"/>
  <path fill="#7F7F7F" d="M166.212 198.668c0.523559,1.14435 -0.799654,2.03528 -1.5857,2.21839 0.0629292,-0.837922 0.768756,-1.38019 1.5857,-2.21839z"/>
  <path fill="#7F7F7F" d="M175.511 208.845c0.523559,1.14435 -0.27326,1.50888 -1.05931,1.692 0.0629292,-0.837922 0.242362,-0.853796 1.05931,-1.692z"/>
  <path fill="#7F7F7F" d="M174.465 201.606c1.04825,0.696473 0.393166,2.15093 -0.178299,2.72098 -0.388063,-0.745229 -0.0742678,-1.57833 0.178299,-2.72098z"/>
  <path fill="#7F7F7F" d="M174.115 197.22c1.04825,0.696473 0.393166,2.15093 -0.178299,2.72098 -0.388063,-0.745229 -0.0742678,-1.57833 0.178299,-2.72098z"/>
  <path fill="#7F7F7F" d="M261.981 337.356c0.0291969,1.27191 1.12621,5.9383 1.41165,11.8193 0.318047,6.54945 -0.41811,5.30901 0.283181,12.5116 0.642331,-7.39021 2.63169,-23.8981 -1.69484,-24.3309z"/>
  <path fill="#7F7F7F" d="M258.234 339.23c0.0291969,1.27191 1.12621,5.9383 1.41165,11.8193 0.318047,6.54945 -0.41811,5.30901 0.283181,12.5116 0.642331,-7.39021 2.63169,-23.8981 -1.69484,-24.3309z"/>
  <path fill="#7F7F7F" d="M239.95 343.186c-0.524977,5.30051 -0.384378,26.0121 -1.86718,30.4614 -0.613418,-2.2235 -0.79115,-27.2648 1.86718,-30.4614z"/>
  <path fill="#7F7F7F" d="M241.355 352.317c-0.524977,5.30051 1.02047,19.9245 0.00595276,25.0761 -0.613418,-2.2235 -2.66428,-21.8795 -0.00595276,-25.0761z"/>
  <path fill="#7F7F7F" d="M244.867 341.313c-0.132378,5.6914 0.319748,7.51522 -0.930615,12.4325 -0.378142,-2.45849 -1.33569,-9.62816 0.930615,-12.4325z"/>
  <path fill="#7F7F7F" d="M248.093 340.142c1.69313,6.0035 -1.33455,8.52945 -1.64495,13.1349 2.36835,-2.79071 5.66731,-10.6237 1.64495,-13.1349z"/>
  <path fill="#7F7F7F" d="M254.488 349.064c0.0291969,1.27191 1.12621,5.93859 1.41165,11.8193 0.317764,6.54945 -1.35468,14.9088 -0.653386,22.1114 1.34476,-7.85849 3.56825,-33.4979 -0.758268,-33.9307z"/>
  <path fill="#7F7F7F" d="M257.766 361.239c1.1228,8.18845 -1.27758,11.8709 -0.646583,23.6285 0.759402,-7.56596 4.30951,-22.8643 0.646583,-23.6285z"/>
  <path fill="#7F7F7F" d="M250.274 350.234c0.0291969,1.27191 1.36091,7.57786 1.41165,8.54136 0.346677,6.54747 -0.652252,5.54315 0.0490394,12.7457 0.798237,-6.76545 2.16284,-19.4494 -1.46069,-21.2871z"/>
  <path fill="#7F7F7F" d="M230.751 353.337c-3.35282,0.782363 -2.77399,19.3028 -3.10025,24.6643 -1.89071,-5.04114 -2.57953,-24.8732 3.10025,-24.6643z"/>
  <path fill="#7F7F7F" d="M240.117 376.049c-2.10359,1.71921 -2.2269,9.00085 -3.80268,13.4255 -0.524126,-4.22136 -0.120189,-12.5802 3.80268,-13.4255z"/>
  <path fill="#7F7F7F" d="M247.844 357.785c-2.10359,1.71921 -1.99276,3.38145 -3.56854,7.80605 -0.211748,-3.90898 -0.0419528,-6.64838 3.56854,-7.80605z"/>
  <path fill="#7F7F7F" d="M264.234 366.449c-3.35282,0.782363 -2.3057,16.0248 -0.524693,29.8154 -3.23688,-9.40196 -5.75944,-29.7216 0.524693,-29.8154z"/>
  <path fill="#7F7F7F" d="M233.745 374.809c-1.02472,3.90529 -6.87402,14.404 -7.60422,14.9151 0.175465,-2.33943 5.32318,-12.5753 7.60422,-14.9151z"/>
  <path fill="#7F7F7F" d="M226.018 385.345c-0.58337,4.34721 -12.1037,25.5643 -13.2236,25.6856 0.175465,-2.33943 10.9426,-23.3459 13.2236,-25.6856z"/>
  <path fill="#7F7F7F" d="M221.569 389.794c-0.777827,4.40022 -6.70507,14.7421 -7.60422,14.9151 0.175465,-2.33943 5.32318,-12.5753 7.60422,-14.9151z"/>
  <path fill="#7F7F7F" d="M224.847 379.96c-0.473953,3.90614 -6.58574,14.404 -7.60422,14.9151 0.175465,-2.33943 5.32318,-12.5753 7.60422,-14.9151z"/>
  <path fill="#7F7F7F" d="M230.701 372.936c-1.02472,3.90529 -5.93745,12.765 -6.66766,13.2761 0.175465,-2.33943 4.38662,-10.9364 6.66766,-13.2761z"/>
  <path fill="#7F7F7F" d="M222.506 375.98c-0.303307,4.26643 -5.73562,12.8659 -6.66766,13.2761 0.175465,-2.33943 4.38662,-10.9364 6.66766,-13.2761z"/>
  <path fill="#7F7F7F" d="M225.181 376.007c-0.896315,3.4149 -2.61638,6.71358 -3.25503,7.1606 -0.0283465,-2.22775 1.02586,-5.34841 3.25503,-7.1606z"/>
  <path fill="#7F7F7F" d="M224.847 392.838c-1.02501,4.19471 -11.5571,21.9793 -12.2871,21.9393 0.175465,-2.50838 10.0057,-19.8462 12.2871,-21.9393z"/>
  <path fill="#7F7F7F" d="M223.911 397.755c-1.02529,4.07424 -10.3864,20.2703 -11.1164,20.5345 -0.0711496,-2.33943 8.66637,-18.1945 11.1164,-20.5345z"/>
  <path fill="#7F7F7F" d="M225.784 397.755c-1.15824,4.95468 -11.3794,24.2459 -11.8188,22.4076 0.175465,-2.33943 9.53774,-20.0679 11.8188,-22.4076z"/>
  <path fill="#7F7F7F" d="M220.633 411.335c-0.816945,4.11307 -5.49496,12.5042 -6.43352,12.8078 0.175465,-2.33943 4.15247,-10.4681 6.43352,-12.8078z"/>
  <path fill="#7F7F7F" d="M221.569 414.145c-0.791433,4.13915 -5.52133,11.3074 -6.43352,11.6371 0.175465,-2.33943 4.15247,-9.29736 6.43352,-11.6371z"/>
  <path fill="#7F7F7F" d="M222.74 416.018c-0.816945,4.52863 -5.26082,11.9835 -6.19937,11.8712 -0.0581103,-2.34 3.73663,-9.53178 6.19937,-11.8712z"/>
  <path fill="#7F7F7F" d="M221.335 422.574c-0.763937,3.90473 -3.43928,7.37944 -4.32624,7.89081 0.175465,-2.33943 2.0452,-5.55109 4.32624,-7.89081z"/>
  <path fill="#7F7F7F" d="M222.506 423.979c-0.73304,4.71799 -3.4628,7.82476 -4.32624,7.89081 0.175748,-2.33972 2.04548,-5.55137 4.32624,-7.89081z"/>
  <path fill="#7F7F7F" d="M223.442 426.086c-0.763937,4.42658 -3.43928,7.69238 -4.32624,7.89081 0.175181,-2.49619 2.04548,-5.81244 4.32624,-7.89081z"/>
  <path fill="#7F7F7F" d="M224.613 427.491c-0.790583,4.13887 -3.41377,7.56142 -4.32624,7.89081 0.175465,-2.33943 2.0452,-5.55109 4.32624,-7.89081z"/>
  <path fill="#7F7F7F" d="M225.316 430.066c-0.556441,4.37273 -2.52936,6.80684 -3.62381,6.95424 0.175465,-2.33943 1.34277,-4.61452 3.62381,-6.95424z"/>
  <path fill="#7F7F7F" d="M226.252 432.876c-1.02472,3.90529 -2.42532,5.27244 -3.15553,5.78353 0.0187087,-2.49619 0.613985,-3.70517 3.15553,-5.78353z"/>
  <path fill="#7F7F7F" d="M226.486 435.218c-0.441071,4.19641 -2.16,5.87282 -3.15553,6.25181 0.175465,-2.33943 0.874489,-3.9121 3.15553,-6.25181z"/>
  <path fill="#7F7F7F" d="M230.233 432.642c-1.02472,3.90529 -5.00088,10.6577 -5.73109,11.1688 0.175465,-2.33943 3.45005,-8.82908 5.73109,-11.1688z"/>
  <path fill="#7F7F7F" d="M227.657 441.071c-1.02472,3.90529 -1.95704,5.0383 -2.68725,5.54939 0.175465,-2.33943 0.406205,-3.20967 2.68725,-5.54939z"/>
  <path fill="#7F7F7F" d="M225.55 402.438c-1.02472,3.90529 -1.95704,5.0383 -2.68725,5.54939 0.175465,-2.33943 0.406205,-3.20967 2.68725,-5.54939z"/>
  <path fill="#7F7F7F" d="M224.379 408.76c-1.02472,3.90529 -0.786331,2.46274 -1.51654,2.97383 0.175465,-2.33943 -0.764504,-0.634111 1.51654,-2.97383z"/>
  <path fill="#7F7F7F" d="M225.081 415.55c-1.02472,3.90529 -2.19118,4.57002 -2.92139,5.0811 0.175465,-2.33943 0.640347,-2.74139 2.92139,-5.0811z"/>
  <path fill="#7F7F7F" d="M225.316 418.125c-0.763654,4.42687 -1.332,4.18025 -2.21896,4.37868 0.175465,-2.33943 -0.0620788,-2.03896 2.21896,-4.37868z"/>
  <path fill="#7F7F7F" d="M226.018 420.701c-0.763654,4.42687 -1.332,4.18025 -2.21896,4.37868 0.0737008,-2.44035 -0.422362,-2.40038 2.21896,-4.37868z"/>
  <path fill="#7F7F7F" d="M227.189 422.34c-0.790867,4.37273 -1.30649,4.23099 -2.21896,4.37868 0.0708662,-2.39386 -0.375024,-2.40633 2.21896,-4.37868z"/>
  <path fill="#7F7F7F" d="M227.891 425.149c-0.69137,4.2378 -1.37764,3.97814 -2.21896,4.37868 0.06463,-2.67165 -0.394016,-3.03704 2.21896,-4.37868z"/>
  <path fill="#7F7F7F" d="M228.828 427.491c-1.02472,3.90529 -1.48876,3.86759 -2.21896,4.37868 -0.0462047,-2.4497 -0.725953,-2.3726 2.21896,-4.37868z"/>
  <path fill="#7F7F7F" d="M229.53 429.364c-0.732756,4.48838 -1.35581,4.13235 -2.21896,4.37868 0.175465,-2.33943 -0.0620788,-2.03896 2.21896,-4.37868z"/>
  <path fill="#7F7F7F" d="M213.374 389.326c-0.65367,3.90586 -11.069,22.5989 -12.0529,23.11 0.175465,-2.33943 9.77188,-20.7703 12.0529,-23.11z"/>
  <path fill="#7F7F7F" d="M205.648 395.882c-1.02472,3.90529 -1.95704,5.0383 -2.68725,5.54939 0.175465,-2.33943 0.406205,-3.20967 2.68725,-5.54939z"/>
  <path fill="#7F7F7F" d="M198.623 406.418c-1.02472,3.90529 -1.95704,5.0383 -2.68725,5.54939 0.175465,-2.33943 0.406205,-3.20967 2.68725,-5.54939z"/>
  <path fill="#7F7F7F" d="M196.984 412.037c-1.02472,3.90529 -1.95704,5.0383 -2.68725,5.54939 0.175465,-2.33943 0.406205,-3.20967 2.68725,-5.54939z"/>
  <path fill="#7F7F7F" d="M206.584 406.652c-1.02472,3.90529 -6.17159,12.2967 -6.9018,12.8078 0.175465,-2.33943 4.62076,-10.4681 6.9018,-12.8078z"/>
  <path fill="#7F7F7F" d="M205.414 412.74c-1.02472,3.90529 -3.83018,7.37972 -4.56038,7.89081 0.175465,-2.33943 2.27934,-5.55109 4.56038,-7.89081z"/>
  <path fill="#7F7F7F" d="M199.56 411.335c-1.02472,3.90529 -2.19118,6.67729 -2.92139,7.18838 0.175465,-2.33943 0.640347,-4.84866 2.92139,-7.18838z"/>
  <path fill="#7F7F7F" d="M199.794 415.315c-1.02472,3.90529 -2.19118,6.67729 -2.92139,7.18838 0.175465,-2.33943 0.640347,-4.84866 2.92139,-7.18838z"/>
  <path fill="#7F7F7F" d="M202.604 420.935c-1.02472,3.90529 -2.89361,8.08215 -3.62381,8.59323 0.175465,-2.33943 1.34277,-6.25351 3.62381,-8.59323z"/>
  <path fill="#7F7F7F" d="M201.199 419.998c-1.02472,3.90529 -1.7229,5.74073 -2.68725,6.25181 0.175465,-2.33943 0.406205,-3.9121 2.68725,-6.25181z"/>
  <path fill="#7F7F7F" d="M200.497 428.896c-0.50315,4.16608 -2.81452,7.77033 -4.0921,8.12495 0.175465,-2.33943 1.81106,-5.78523 4.0921,-8.12495z"/>
  <path fill="#7F7F7F" d="M204.009 426.788c-1.02472,3.90529 -5.23503,12.0626 -6.19937,12.5736 -0.0581103,-2.80743 3.73692,-10.5979 6.19937,-12.5736z"/>
  <path fill="#7F7F7F" d="M202.838 432.642c-0.803906,4.34665 -3.40101,9.17405 -4.56038,9.29566 0.175465,-2.33943 2.27934,-6.95594 4.56038,-9.29566z"/>
  <path fill="#7F7F7F" d="M204.009 434.749c-1.02472,3.90529 -4.29846,9.95528 -5.26281,10.4664 -0.00651969,-2.52114 2.74819,-8.36079 5.26281,-10.4664z"/>
  <path fill="#7F7F7F" d="M204.009 438.496c-0.790583,4.37273 -4.35033,10.5528 -5.49695,10.7005 0.175465,-2.33943 3.21591,-8.36079 5.49695,-10.7005z"/>
  <path fill="#7F7F7F" d="M204.711 441.774c-1.02472,3.90529 -4.5326,9.72114 -5.49695,10.2322 0.175465,-2.33943 3.21591,-7.89251 5.49695,-10.2322z"/>
  <path fill="#7F7F7F" d="M204.711 445.988c-1.02472,3.90529 -4.06432,8.08215 -5.02866,8.59323 0.175465,-2.33943 2.74762,-6.25351 5.02866,-8.59323z"/>
  <path fill="#7F7F7F" d="M205.179 448.329c-1.02472,3.90529 -2.42532,6.20901 -3.38967,6.7201 0.175465,-2.33943 1.10863,-4.38038 3.38967,-6.7201z"/>
  <path fill="#7F7F7F" d="M206.35 449.032c-1.02472,3.90529 -2.89361,6.91144 -3.85795,7.42252 0.175465,-2.33943 1.57691,-5.08281 3.85795,-7.42252z"/>
  <path fill="#7F7F7F" d="M206.818 452.778c-1.02472,3.90529 -1.7229,4.80416 -2.68725,5.31525 0.175465,-2.33943 0.406205,-2.97553 2.68725,-5.31525z"/>
  <path fill="#7F7F7F" d="M208.926 451.842c-0.441071,4.19641 -1.92586,6.57553 -3.15553,6.95424 0.175465,-2.33943 0.874489,-4.61452 3.15553,-6.95424z"/>
  <path fill="#7F7F7F" d="M210.799 453.012c-0.441071,3.90473 -1.92586,6.44287 -3.15553,6.95424 0.00651969,-2.67761 0.627591,-5.10917 3.15553,-6.95424z"/>
  <path fill="#7F7F7F" d="M213.609 451.607c-1.02472,3.90529 -2.19118,6.44315 -3.15553,6.95424 -0.240095,-2.5475 0.458929,-4.82287 3.15553,-6.95424z"/>
  <path fill="#7F7F7F" d="M216.418 449.5c-1.02472,3.90529 -2.19118,6.44315 -3.15553,6.95424 -0.473953,-2.13165 0.277228,-4.40731 3.15553,-6.95424z"/>
  <path fill="#7F7F7F" d="M218.291 450.437c-0.502583,4.42687 -1.87767,6.75581 -3.15553,6.95424 0.175465,-2.33943 0.874489,-4.61452 3.15553,-6.95424z"/>
  <path fill="#7F7F7F" d="M221.803 450.905c-1.02472,3.90529 -0.318047,4.10173 -1.28239,4.61282 0.175465,-2.33943 -0.998646,-2.2731 1.28239,-4.61282z"/>
  <path fill="#7F7F7F" d="M225.316 448.095c-1.02472,3.90529 -0.0839056,3.63345 -1.04825,4.14454 0.175465,-2.33943 -1.23279,-1.80482 1.04825,-4.14454z"/>
  <path fill="#7F7F7F" d="M229.382 419.764c1.02472,3.90529 0.0839056,3.63345 1.04825,4.14454 -0.175465,-2.33943 1.23279,-1.80482 -1.04825,-4.14454z"/>
  <path fill="#7F7F7F" d="M234.299 427.023c1.02472,3.90529 0.318047,5.97487 1.28239,6.48596 -0.175465,-2.33943 0.998646,-4.14624 -1.28239,-6.48596z"/>
  <path fill="#7F7F7F" d="M230.553 426.086c1.02472,3.90529 0.318047,5.97487 1.28239,6.48596 -0.175465,-2.33943 0.998646,-4.14624 -1.28239,-6.48596z"/>
  <path fill="#7F7F7F" d="M230.787 432.642c1.02472,3.90529 0.318047,5.97487 1.28239,6.48596 -0.175465,-2.33943 0.998646,-4.14624 -1.28239,-6.48596z"/>
  <path fill="#7F7F7F" d="M229.148 438.964c1.02472,3.90529 0.318047,5.97487 1.28239,6.48596 -0.175465,-2.33943 0.998646,-4.14624 -1.28239,-6.48596z"/>
  <path fill="#7F7F7F" d="M230.787 415.081c1.37594,4.60772 1.52759,8.1601 2.21896,8.12495 0.607465,-1.55622 0.53178,-5.31525 -2.21896,-8.12495z"/>
  <path fill="#7F7F7F" d="M226.572 405.247c1.37594,4.60772 1.52759,8.1601 2.21896,8.12495 0.607465,-1.55622 0.53178,-5.31525 -2.21896,-8.12495z"/>
  <path fill="#7F7F7F" d="M237.257 445.52c-0.441355,3.90501 -3.79899,9.955 -5.02866,10.4664 0.175465,-2.33943 2.74762,-8.12665 5.02866,-10.4664z"/>
  <path fill="#7F7F7F" d="M237.491 449.266c-1.02472,3.90529 -3.12775,8.55043 -4.0921,9.06152 0.175465,-2.33943 1.81106,-6.7218 4.0921,-9.06152z"/>
  <path fill="#7F7F7F" d="M231.637 452.778c-1.02472,3.90529 -2.42532,6.20901 -3.38967,6.7201 0.175465,-2.33943 1.10863,-4.38038 3.38967,-6.7201z"/>
  <path fill="#7F7F7F" d="M226.72 457.695c-1.02472,3.90529 -1.48876,3.86759 -2.4531,4.37868 0.175465,-2.33943 0.172063,-2.03896 2.4531,-4.37868z"/>
  <path fill="#7F7F7F" d="M221.803 459.802c-0.745512,2.84173 -1.0834,2.81424 -1.78498,3.18614 0.127559,-1.70221 0.125291,-1.48365 1.78498,-3.18614z"/>
  <path fill="#7F7F7F" d="M245.218 447.393c-1.02472,3.90529 -2.42532,7.848 -3.38967,8.35909 0.175465,-2.33943 1.10863,-6.01937 3.38967,-8.35909z"/>
  <path fill="#7F7F7F" d="M243.345 446.69c-1.02472,3.90529 -2.65947,6.67729 -3.62381,7.18838 0.175465,-2.33943 1.34277,-4.84866 3.62381,-7.18838z"/>
  <path fill="#7F7F7F" d="M242.408 444.583c-1.02472,3.90529 -1.48876,3.86759 -2.4531,4.37868 0.175465,-2.33943 0.172063,-2.03896 2.4531,-4.37868z"/>
  <path fill="#7F7F7F" d="M262.769 358.565c2.10359,1.71921 2.77228,1.51058 4.34807,5.93518 0.211748,-3.90898 -0.737575,-4.77751 -4.34807,-5.93518z"/>
  <path fill="#7F7F7F" d="M262.925 362.307c2.10359,1.71921 1.83685,0.263339 3.41263,4.68794 0.211748,-3.90898 0.197858,-3.53027 -3.41263,-4.68794z"/>
  <path fill="#7F7F7F" d="M265.731 368.543c1.79235,1.87795 1.16107,2.8664 2.16539,4.53203 0.419528,-3.28479 1.65232,-2.74989 -2.16539,-4.53203z"/>
  <path fill="#7F7F7F" d="M233.189 365.581c-1.47997,2.65465 -0.433701,5.25232 -0.918142,9.67692 -1.45899,-3.75307 -2.53644,-7.1161 0.918142,-9.67692z"/>
  <path fill="#7F7F7F" d="M230.794 356.865c-0.211748,2.44347 0.793418,5.10095 1.43178,7.11496 -2.31449,-2.28047 -2.97241,-4.71147 -1.43178,-7.11496z"/>
  <path fill="#7F7F7F" d="M265.561 375.262c-0.211748,2.44347 0.793418,5.10095 1.43178,7.11496 -2.31449,-2.28047 -2.97241,-4.71147 -1.43178,-7.11496z"/>
  <path fill="#7F7F7F" d="M263.379 366.999c-0.211748,2.44318 0.481607,5.88048 1.11997,7.89449 -2.31449,-2.28047 -2.6606,-5.49128 -1.11997,-7.89449z"/>
  <path fill="#7F7F7F" d="M262.443 360.295c-0.211748,2.44347 0.325701,3.85399 0.964063,5.868 -2.31449,-2.28047 -2.50469,-3.46451 -0.964063,-5.868z"/>
  <path fill="#7F7F7F" d="M269.161 375.247c1.79235,1.87795 -0.0861733,2.08687 0.918142,3.75251 0.679465,-1.1537 2.6915,-1.55424 -0.918142,-3.75251z"/>
  <path fill="#7F7F7F" d="M266.51 373.22c1.79235,1.87795 0.84926,3.0223 1.85358,4.68794 0.211748,-2.86866 1.75606,-2.48967 -1.85358,-4.68794z"/>
  <path fill="#7F7F7F" d="M265.873 380.407c-0.211748,2.44347 0.793418,5.10095 1.43178,7.11496 -2.31449,-2.28047 -2.97241,-4.71147 -1.43178,-7.11496z"/>
  <path fill="#7F7F7F" d="M271.63 378.707c-0.79115,4.13972 -3.10677,7.41402 -4.0184,7.74341 0.175465,-2.33943 1.73736,-5.40369 4.0184,-7.74341z"/>
  <path fill="#7F7F7F" d="M273.033 380.11c-1.02472,3.90529 -3.28819,7.23232 -4.0184,7.74341 -0.188221,-2.33972 1.26935,-5.4034 4.0184,-7.74341z"/>
  <path fill="#7F7F7F" d="M274.436 381.825c-1.02472,3.90529 -3.28819,7.23232 -4.0184,7.74341 -0.188221,-2.33972 1.26935,-5.4034 4.0184,-7.74341z"/>
  <path fill="#7F7F7F" d="M274.28 386.502c-1.02472,3.90529 -3.28819,7.23232 -4.0184,7.74341 -0.188221,-2.33972 1.26935,-5.4034 4.0184,-7.74341z"/>
  <path fill="#7F7F7F" d="M275.995 387.749c-1.02472,3.90529 -3.6,7.23232 -4.33021,7.74341 -0.188221,-2.33972 1.58117,-5.4034 4.33021,-7.74341z"/>
  <path fill="#7F7F7F" d="M276.463 389.776c-1.02472,3.90529 -2.82047,5.82917 -3.55068,6.34026 0.319748,-2.33943 1.54233,-3.9994 3.55068,-6.34026z"/>
  <path fill="#7F7F7F" d="M277.71 390.867c-0.794268,4.1366 -7.62463,16.3043 -8.53966,16.63 -0.0325984,-2.54721 6.05055,-14.4981 8.53966,-16.63z"/>
  <path fill="#7F7F7F" d="M279.113 392.582c-0.794268,4.1366 -7.46873,15.3689 -8.38375,15.6946 -0.0325984,-2.54721 5.89465,-13.5627 8.38375,-15.6946z"/>
  <path fill="#7F7F7F" d="M280.36 393.829c-0.794268,4.1366 -8.09235,16.4602 -9.00737,16.7859 0.149386,-2.54721 6.75185,-14.6537 9.00737,-16.7859z"/>
  <path fill="#7F7F7F" d="M281.92 395.544c-0.794268,4.1366 -10.7427,20.3579 -11.6578,20.6836 -0.0325984,-2.54721 9.16867,-18.5516 11.6578,-20.6836z"/>
  <path fill="#7F7F7F" d="M280.828 402.092c-0.794268,4.1366 -10.7427,20.3579 -11.6578,20.6836 -0.0325984,-2.54721 9.16867,-18.5516 11.6578,-20.6836z"/>
  <path fill="#7F7F7F" d="M278.49 409.42c-0.794268,4.1366 -12.6136,24.8791 -13.5286,25.2048 -0.0325984,-2.54721 11.0395,-23.0729 13.5286,-25.2048z"/>
  <path fill="#7F7F7F" d="M278.957 412.85c-0.794268,4.1366 -14.9522,28.465 -15.8672,28.7907 -0.0325984,-2.54721 13.3781,-26.6587 15.8672,-28.7907z"/>
  <path fill="#7F7F7F" d="M278.49 417.059c-0.794552,4.38407 -14.1727,27.3867 -15.0877,27.5434 -0.0325984,-2.54721 12.5986,-25.4115 15.0877,-27.5434z"/>
  <path fill="#7F7F7F" d="M273.657 430.311c-1.04145,4.87786 -4.20747,9.79541 -4.95383,9.61427 -0.240378,-2.54721 2.25695,-7.48262 4.95383,-9.61427z"/>
  <path fill="#7F7F7F" d="M277.554 422.516c-1.56302,4.61651 -2.80517,6.36463 -3.23887,6.34026 -0.240378,-2.54721 0.541985,-4.2086 3.23887,-6.34026z"/>
  <path fill="#7F7F7F" d="M267.888 440.757c-1.56302,4.61651 -2.80517,6.36463 -3.23887,6.34026 -0.240378,-2.54721 0.541985,-4.2086 3.23887,-6.34026z"/>
  <path fill="#7F7F7F" d="M267.264 445.746c-1.56302,4.61651 -2.18154,4.64967 -2.61525,4.62529 -0.240378,-2.54721 -0.0816378,-2.49364 2.61525,-4.62529z"/>
  <path fill="#7F7F7F" d="M267.732 448.864c-1.56302,4.61651 -1.71383,4.02605 -2.14753,4.00167 -0.240378,-2.54721 -0.549355,-1.87002 2.14753,-4.00167z"/>
  <path fill="#7F7F7F" d="M269.135 449.8c-1.56302,4.61651 -1.71383,4.02605 -2.14753,4.00167 -0.240378,-2.54721 -0.549355,-1.87002 2.14753,-4.00167z"/>
  <path fill="#7F7F7F" d="M270.85 450.735c-1.56302,4.61651 -1.71383,4.02605 -2.14753,4.00167 -0.240378,-2.54721 -0.549355,-1.87002 2.14753,-4.00167z"/>
  <path fill="#7F7F7F" d="M272.409 451.514c-1.56302,4.61651 -2.18154,5.4292 -2.61525,5.40482 -0.240378,-2.54721 -0.0816378,-3.27317 2.61525,-5.40482z"/>
  <path fill="#7F7F7F" d="M274.436 451.982c-1.56302,4.61651 -2.18154,5.4292 -2.61525,5.40482 -0.240378,-2.54721 -0.0816378,-3.27317 2.61525,-5.40482z"/>
  <path fill="#7F7F7F" d="M276.307 455.88c-1.56302,4.61651 -1.86973,4.80558 -2.30343,4.7812 -0.240378,-2.54721 -0.393449,-2.64954 2.30343,-4.7812z"/>
  <path fill="#7F7F7F" d="M276.931 451.047c-1.56302,4.61651 -1.40202,3.87014 -1.83572,3.84577 -0.240378,-2.54721 -0.861166,-1.71411 1.83572,-3.84577z"/>
  <path fill="#7F7F7F" d="M279.425 450.111c-1.56302,4.61651 -1.40202,3.87014 -1.83572,3.84577 -0.240378,-2.54721 -0.861166,-1.71411 1.83572,-3.84577z"/>
  <path fill="#7F7F7F" d="M283.946 450.267c-1.56302,4.61651 -5.61147,7.30007 -6.04517,7.27569 -0.240378,-2.54721 3.34829,-5.14403 6.04517,-7.27569z"/>
  <path fill="#7F7F7F" d="M288.312 448.708c-0.627307,6.01937 -4.7795,10.2101 -5.57745,9.45837 0.305858,-2.00154 3.58271,-6.62514 5.57745,-9.45837z"/>
  <path fill="#7F7F7F" d="M294.548 433.429c-0.627307,6.01937 -10.3921,20.344 -11.1901,19.5922 0.305858,-2.00154 9.19531,-16.759 11.1901,-19.5922z"/>
  <path fill="#7F7F7F" d="M294.08 438.886c-1.40712,4.92832 -3.58469,7.14416 -4.0184,7.11978 0.383528,-2.96334 1.94542,-5.40425 4.0184,-7.11978z"/>
  <path fill="#7F7F7F" d="M293.768 430.935c-1.40684,5.47881 -7.48205,15.5395 -7.91604,15.2269 0.383528,-2.96334 5.84306,-13.5113 7.91604,-15.2269z"/>
  <path fill="#7F7F7F" d="M294.236 425.79c-1.40684,5.47881 -7.17024,14.76 -7.60422,14.4473 0.383528,-2.96334 5.53125,-12.7318 7.60422,-14.4473z"/>
  <path fill="#7F7F7F" d="M293.457 423.919c-1.40684,5.47881 -6.0789,12.1096 -6.51289,11.797 0.383528,-2.96334 4.43991,-10.0814 6.51289,-11.797z"/>
  <path fill="#7F7F7F" d="M293.301 420.177c-1.40684,5.47881 -6.0789,12.1096 -6.51289,11.797 0.383528,-2.96334 4.43991,-10.0814 6.51289,-11.797z"/>
  <path fill="#7F7F7F" d="M295.483 413.006c-1.40684,5.47881 -8.10567,15.0718 -8.53966,14.7592 0.383528,-2.96334 6.46668,-13.0436 8.53966,-14.7592z"/>
  <path fill="#7F7F7F" d="M295.016 409.732c-1.40684,5.47881 -7.17024,14.1364 -7.60422,13.8237 0.383528,-2.96334 5.53125,-12.1082 7.60422,-13.8237z"/>
  <path fill="#7F7F7F" d="M293.301 408.796c-1.40684,5.47881 -6.0789,12.1096 -6.51289,11.797 0.383528,-2.96334 4.43991,-10.0814 6.51289,-11.797z"/>
  <path fill="#7F7F7F" d="M290.027 410.823c-1.40684,5.47881 -3.11669,6.80882 -3.55068,6.49616 0.383528,-2.96334 1.4777,-4.78063 3.55068,-6.49616z"/>
  <path fill="#7F7F7F" d="M289.091 408.485c-1.40684,5.47881 -3.11669,6.80882 -3.55068,6.49616 0.383528,-2.96334 1.4777,-4.78063 3.55068,-6.49616z"/>
  <path fill="#7F7F7F" d="M288.468 406.302c-1.40684,5.47881 -3.11669,6.80882 -3.55068,6.49616 0.383528,-2.96334 1.4777,-4.78063 3.55068,-6.49616z"/>
  <path fill="#7F7F7F" d="M299.266 413.561c-1.0525,4.0989 -2.01997,4.31433 -2.34454,4.08047 0.286866,-2.21698 0.793701,-2.79695 2.34454,-4.08047z"/>
  <path fill="#7F7F7F" d="M296.304 415.432c-1.0525,4.0989 -2.01997,4.31433 -2.34454,4.08047 0.286866,-2.21698 0.793701,-2.79695 2.34454,-4.08047z"/>
  <path fill="#7F7F7F" d="M296.327 418.448c-0.642898,2.50356 -1.23364,2.63509 -1.43206,2.49222 0.175181,-1.35411 0.484725,-1.70844 1.43206,-2.49222z"/>
  <path fill="#7F7F7F" d="M300.069 403.481c-0.642898,2.50356 -1.23364,2.63509 -1.43206,2.49222 0.175181,-1.35411 0.484725,-1.70844 1.43206,-2.49222z"/>
  <path fill="#7F7F7F" d="M310.203 407.691c-0.642898,2.50356 -1.23364,2.63509 -1.43206,2.49222 0.175181,-1.35411 0.484725,-1.70844 1.43206,-2.49222z"/>
  <path fill="#7F7F7F" d="M294.3 402.702c-0.642898,2.50356 -1.23364,2.63509 -1.43206,2.49222 0.175181,-1.35411 0.484725,-1.70844 1.43206,-2.49222z"/>
  <path fill="#7F7F7F" d="M295.859 404.417c-0.642898,2.50356 -1.23364,2.63509 -1.43206,2.49222 0.175181,-1.35411 0.484725,-1.70844 1.43206,-2.49222z"/>
  <path fill="#7F7F7F" d="M296.795 406.444c-0.642898,2.50356 -1.23364,2.63509 -1.43206,2.49222 0.175181,-1.35411 0.484725,-1.70844 1.43206,-2.49222z"/>
  <path fill="#7F7F7F" d="M292.273 406.911c-0.642898,2.50356 -1.23364,2.63509 -1.43206,2.49222 0.175181,-1.35411 0.484725,-1.70844 1.43206,-2.49222z"/>
  <path fill="#7F7F7F" d="M290.714 405.508c-0.642898,2.50356 -1.23364,2.63509 -1.43206,2.49222 0.175181,-1.35411 0.484725,-1.70844 1.43206,-2.49222z"/>
  <path fill="#7F7F7F" d="M290.091 403.637c-0.642898,2.50356 -1.23364,2.63509 -1.43206,2.49222 0.175181,-1.35411 0.484725,-1.70844 1.43206,-2.49222z"/>
  <path fill="#7F7F7F" d="M290.38 398.21c-0.912473,3.55351 -1.75124,3.74032 -2.03273,3.53764 0.248882,-1.92217 0.688252,-2.42504 2.03273,-3.53764z"/>
  <path fill="#7F7F7F" d="M267.925 408.626c-0.840756,3.27458 -1.61376,3.44665 -1.87313,3.25984 0.229323,-1.77109 0.634111,-2.23455 1.87313,-3.25984z"/>
  <path fill="#7F7F7F" d="M267.64 420.319c-0.642898,2.50356 -1.23364,2.63509 -1.43206,2.49222 0.175181,-1.35411 0.484725,-1.70844 1.43206,-2.49222z"/>
  <path fill="#7F7F7F" d="M269.199 411.277c-0.642898,2.50356 -1.23364,2.63509 -1.43206,2.49222 0.175181,-1.35411 0.484725,-1.70844 1.43206,-2.49222z"/>
  <path fill="#7F7F7F" d="M260.442 414.863c-0.840756,3.27458 -1.61376,3.44665 -1.87313,3.25984 0.229323,-1.77109 0.634111,-2.23455 1.87313,-3.25984z"/>
  <path fill="#7F7F7F" d="M259.507 419.384c-0.840756,3.27458 -1.61376,3.44665 -1.87313,3.25984 0.229323,-1.77109 0.634111,-2.23455 1.87313,-3.25984z"/>
  <path fill="#7F7F7F" d="M263.092 402.234c-0.840756,3.27458 -1.61376,3.44665 -1.87313,3.25984 0.229323,-1.77109 0.634111,-2.23455 1.87313,-3.25984z"/>
  <path fill="#7F7F7F" d="M262.625 406.755c-0.840756,3.27458 -2.7051,5.78523 -2.96447,5.59843 0.229323,-1.77109 1.72545,-4.57285 2.96447,-5.59843z"/>
  <path fill="#7F7F7F" d="M261.066 405.976c-0.840756,3.27458 -1.61376,3.44665 -1.87313,3.25984 0.229323,-1.77109 0.634111,-2.23455 1.87313,-3.25984z"/>
  <path fill="#7F7F7F" d="M268.393 404.885c-0.840756,3.27458 -1.61376,3.44665 -1.87313,3.25984 0.229323,-1.77109 0.634111,-2.23455 1.87313,-3.25984z"/>
  <path fill="#7F7F7F" d="M265.899 416.11c-0.840756,3.27458 -1.61376,3.44665 -1.87313,3.25984 0.229323,-1.77109 0.634111,-2.23455 1.87313,-3.25984z"/>
  <path fill="#7F7F7F" d="M256.544 433.259c-0.0615118,3.27458 -2.7051,7.812 -3.12038,8.09292 0.229323,-1.77109 1.72545,-7.22353 3.12038,-8.09292z"/>
  <path fill="#7F7F7F" d="M255.947 412.68c-0.642898,2.50356 -1.23364,2.63509 -1.43206,2.49222 0.175181,-1.35411 0.484725,-1.70844 1.43206,-2.49222z"/>
  <path fill="#7F7F7F" d="M258.754 425.308c-0.642898,2.50356 -1.23364,2.63509 -1.43206,2.49222 0.175181,-1.35411 0.484725,-1.70844 1.43206,-2.49222z"/>
  <path fill="#7F7F7F" d="M261.222 425.62c0.484725,5.61317 -2.52284,9.78662 -2.96447,8.87245 0.69704,-0.835654 2.0897,-7.1195 2.96447,-8.87245z"/>
  <path fill="#7F7F7F" d="M260.442 431.077c0.484725,5.61317 -2.52284,9.78662 -2.96447,8.87245 0.69704,-0.835654 2.0897,-7.1195 2.96447,-8.87245z"/>
  <path fill="#7F7F7F" d="M259.689 440.119c-0.642898,2.50356 -1.23364,2.63509 -1.43206,2.49222 0.175181,-1.35411 0.484725,-1.70844 1.43206,-2.49222z"/>
  <path fill="#7F7F7F" d="M258.981 445.22c-0.478205,2.54013 -1.05931,2.70992 -1.26652,2.58038 0.0867402,-1.36261 0.372473,-1.7365 1.26652,-2.58038z"/>
  <path fill="#7F7F7F" d="M258.669 449.118c-0.478205,2.54013 -1.05931,2.70992 -1.26652,2.58038 0.0867402,-1.36261 0.372473,-1.7365 1.26652,-2.58038z"/>
  <path fill="#7F7F7F" d="M259.489 451.656c-0.670111,3.5589 -1.48422,3.79701 -1.77449,3.61531 0.121323,-1.90913 0.521859,-2.43269 1.77449,-3.61531z"/>
  <path fill="#7F7F7F" d="M260.425 453.683c-0.670111,3.5589 -1.48422,3.79701 -1.77449,3.61531 0.121323,-1.90913 0.521859,-2.43269 1.77449,-3.61531z"/>
  <path fill="#7F7F7F" d="M259.449 458.784c-0.478205,2.54013 -1.05931,2.70992 -1.26652,2.58038 0.0867402,-1.36261 0.372473,-1.7365 1.26652,-2.58038z"/>
  <path fill="#7F7F7F" d="M261.632 460.187c-0.478205,2.54013 -1.05931,2.70992 -1.26652,2.58038 0.0867402,-1.36261 0.372473,-1.7365 1.26652,-2.58038z"/>
  <path fill="#7F7F7F" d="M252.162 457.737c-0.337323,3.8914 -1.3731,3.90756 -1.77449,3.61531 0.121323,-1.90913 0.521859,-2.43269 1.77449,-3.61531z"/>
  <path fill="#7F7F7F" d="M251.226 455.554c-0.337323,4.22362 -1.3731,3.55068 -1.77449,3.14759 0.121323,-1.90913 0.521859,-1.96526 1.77449,-3.14759z"/>
  <path fill="#7F7F7F" d="M250.291 453.371c-0.00453544,4.22419 -0.950741,3.55096 -1.46296,3.14759 0.121323,-1.90913 0.210047,-1.96498 1.46296,-3.14759z"/>
  <path fill="#7F7F7F" d="M254.501 460.543c-0.670394,3.95717 -1.0165,3.26523 -1.30706,2.99169 0.121323,-1.90913 0.0541418,-1.80907 1.30706,-2.99169z"/>
  <path fill="#7F7F7F" d="M255.904 462.102c-0.670394,3.95717 -1.0165,3.26523 -1.30706,2.99169 0.121323,-1.90913 0.0541418,-1.80907 1.30706,-2.99169z"/>
  <path fill="#7F7F7F" d="M253.253 459.452c-0.670394,3.95717 -1.0165,3.26523 -1.30706,2.99169 0.121323,-1.90913 0.0541418,-1.80907 1.30706,-2.99169z"/>
  <path fill="#7F7F7F" d="M283.008 397.836c0.534898,2.58378 3.19862,8.13742 3.78199,10.0809 0.729071,-2.30854 -1.77109,-7.41714 -3.78199,-10.0809z"/>
  <path fill="#7F7F7F" d="M280.358 399.395c0.534898,2.58378 3.19862,8.13742 3.78199,10.0809 0.729071,-2.30854 -1.77109,-7.41714 -3.78199,-10.0809z"/>
  <path fill="#7F7F7F" d="M266.014 391.444c0.977103,2.8046 2.02932,9.11226 2.22293,10.8604 1.17014,-3.19153 0.176882,-8.97563 -2.22293,-10.8604z"/>
  <path fill="#7F7F7F" d="M243.878 201.354c0.314079,1.36857 -0.653386,2.93131 -1.61745,2.7737 0.234425,-0.674363 0.964063,-1.75691 1.61745,-2.7737z"/>
  <path fill="#7F7F7F" d="M302.445 192.38c-0.225638,2.42674 -2.27254,5.66731 -3.19691,6.16082 0.324567,-0.812977 1.24413,-3.16432 3.19691,-6.16082z"/>
  <polygon fill="#8C0000" points="387.877,168.588 380.258,158.066 377.355,160.243 386.063,141.739 396.585,149.721 398.399,152.624 397.311,153.712 387.152,146.818 385.337,147.181 385.337,149.358 392.231,153.712 392.231,155.163 394.045,154.438 395.86,155.163 392.957,161.695 387.152,152.624 384.612,153.349 384.249,155.526 387.814,157.407 391.506,162.42 "/>
  <polygon fill="#8C0000" points="387.152,140.287 398.399,147.544 401.302,147.544 401.302,144.278 389.691,135.208 "/>
  <polygon fill="#8C0000" points="406.382,137.747 392.231,129.765 393.683,126.137 407.833,134.482 "/>
  <polygon fill="#8C0000" points="417.63,122.146 413.639,121.42 405.293,115.977 401.302,115.977 403.479,110.898 408.559,113.437 408.196,114.526 413.639,115.614 "/>
  <polygon fill="#8C0000" points="404.568,141.376 402.391,144.278 400.613,141.692 401.181,139.679 397.753,139.486 391.506,133.031 392.594,131.216 399.851,135.57 "/>
  <polygon fill="#8C0000" points="418.718,112.712 416.178,115.977 411.099,113.8 411.099,112.349 403.842,110.535 407.47,104.729 410.736,107.269 410.968,110.001 "/>
  <polygon fill="#8C0000" points="413.276,124.323 407.107,119.969 402.028,118.88 402.028,117.066 399.488,116.703 397.674,119.606 411.824,128.314 "/>
  <polygon fill="#8C0000" points="409.685,132.38 411.558,129.336 401.256,123.249 398.212,123.249 398.68,121.141 397.509,120.907 395.402,124.888 400.553,128.4 401.021,126.761 398.68,125.824 399.148,125.122 405.002,127.463 404.299,128.4 401.724,127.229 401.256,129.102 "/>
  <polygon fill="#8C0000" points="408.046,102.878 410.153,99.6004 420.689,105.922 419.285,110.137 413.899,106.859 412.494,104.283 "/>
  <polygon fill="#8C0000" points="423.967,101.239 417.177,97.0249 414.368,96.7907 413.197,93.2786 410.621,98.6639 416.007,99.8346 415.538,101.942 419.753,102.41 422.094,106.156 "/>
  <polygon fill="#8C0000" points="412.026,93.5127 423.499,98.898 425.841,93.981 415.538,88.3616 414.133,90.2348 422.563,94.6834 419.753,94.9176 413.665,91.6396 "/>
  <polygon fill="#8C0000" points="423.265,88.1275 418.582,81.8056 415.304,87.4251 419.285,87.6592 423.031,89.2982 423.78,91.1211 426.543,92.5762 427.48,89.2982 "/>
  <polygon fill="#8C0000" points="418.582,81.3374 421.626,76.1862 430.055,82.0398 427.948,86.2543 423.265,83.2105 424.436,82.5081 426.543,83.4446 426.777,82.2739 421.86,79.4642 419.987,80.8691 421.626,81.8056 420.689,82.9764 "/>
  <polygon fill="#8C0000" points="430.992,79.9325 432.397,77.357 429.353,74.079 422.328,74.079 421.86,75.9521 "/>
  <polygon fill="#8C0000" points="434.27,75.718 434.504,71.0351 430.055,70.801 426.309,67.523 424.67,70.0986 428.416,72.9083 "/>
  <polygon fill="#8C0000" points="435.674,68.2254 438.718,66.3523 434.972,62.1377 433.099,62.3719 432.631,60.4987 429.821,59.0939 427.714,63.3084 "/>
  <polygon fill="#8C0000" points="439.655,62.3719 441.294,58.8597 435.909,56.9866 433.567,57.2208 434.738,55.1135 433.801,54.1769 430.055,58.1573 436.845,59.7963 "/>
  <polygon fill="#8C0000" points="443.635,49.2599 445.04,50.4306 446.679,48.3234 445.743,45.3966 442.037,45.0295 443.096,43.397 442.465,41.7674 437.782,46.9185 444.338,47.6209 "/>
  <polygon fill="#8C0000" points="437.431,47.3868 433.918,53.0062 438.835,54.7623 441.06,54.6452 440.826,56.6354 442.582,56.5183 442.699,53.5916 441.06,52.7721 436.377,52.4208 438.367,49.7282 438.484,47.5039 "/>
  <polygon fill="#8C0000" points="462.484,30.7627 449.255,44.2259 446.211,42.3527 447.616,40.2455 448.786,41.065 450.191,38.3723 449.606,37.6699 448.904,39.3089 448.669,35.7968 459.908,29.592 "/>
  <polygon fill="#8C0000" points="447.265,36.7333 447.265,38.7235 445.04,42.1186 442.348,40.4796 "/>
  <polygon fill="#8C0000" points="133.667,134.103 126.202,141.745 119.981,145.333 118.928,140.946 125.42,138.49 130.684,130.418 "/>
  <polygon fill="#8C0000" points="129.631,130.067 124.367,135.331 118.402,139.016 115.419,135.682 122.262,131.471 128.228,126.032 "/>
  <polygon fill="#8C0000" points="126.824,124.101 114.717,133.927 112.611,130.067 115.945,129.365 124.367,120.592 "/>
  <polygon fill="#8C0000" points="123.139,117.96 112.611,128.137 109.453,123.926 119.279,116.907 118.928,114.1 120.858,114.451 "/>
  <polygon fill="#8C0000" points="119.981,113.924 108.926,123.049 107.698,119.188 116.471,113.223 116.296,110.942 118.051,110.942 "/>
  <polygon fill="#8C0000" points="116.822,108.661 114.366,111.994 106.119,116.907 104.189,114.626 112.085,110.064 114.366,106.73 "/>
  <polygon fill="#8C0000" points="114.541,104.8 108.575,110.064 108.049,109.187 103.136,112.872 101.031,106.379 111.383,100.238 "/>
  <polygon fill="#8C0000" points="109.979,99.01 101.031,105.151 98.574,101.993 104.364,99.5364 105.417,97.2553 108.049,97.0799 108.049,96.0271 109.804,96.0271 "/>
  <polygon fill="#8C0000" points="107.523,92.5178 98.574,99.8873 95.7666,96.2025 106.645,89.8858 "/>
  <polygon fill="#8C0000" points="105.242,89.184 95.7666,94.7988 94.7138,90.2367 102.434,88.6576 102.61,87.0784 104.364,86.552 "/>
  <polygon fill="#8C0000" points="102.785,82.3408 102.61,84.6219 92.9591,89.8858 91.7309,84.6219 98.3985,82.1654 100.68,78.6561 "/>
  <polygon fill="#8C0000" points="99.2759,76.726 96.9948,81.1126 93.1346,80.9371 92.0818,83.7445 88.5725,79.007 92.6082,78.4806 98.3985,74.6204 "/>
  <path fill="#8C0000" d="M97.1703 72.5148l0 1.57918 -8.59777 4.38662 -0.175465 -2.10558 1.75465 -0.526394 0.175465 -1.57918 4.38662 -2.80743 -0.701859 -1.05279 -4.56208 2.10558 -0.526394 1.40372 -3.33383 0.175465 -1.57918 -2.45651 7.01859 -5.79033 -1.75465 -1.22825 -1.93011 0 -3.68476 3.15836 -4.38662 0 1.75465 -4.38662 3.33383 -1.05279 -1.22825 -1.22825 -1.22825 0 -2.10558 1.40372 -3.15836 -3.86022 7.19405 -3.15836 -1.05279 -1.93011 -7.36952 4.73755 -2.28104 -3.33383 5.9658 -4.21115 -1.22825 -1.40372 -5.26394 3.68476 -2.80743 -2.9829 4.03569 -3.15836 -1.40372 -0.877323 -4.03569 3.15836 -2.10558 -2.28104 3.50929 -3.86022 -0.701859 -1.57918 -4.91301 4.56208 -1.40372 -1.93011 4.73755 -6.49219c13.4949,10.3269 21.4104,22.682 29.6535,34.9175z"/>
  <polygon fill="#8C0000" points="66.113,35.8427 65.9376,38.1237 62.0774,42.3349 59.0945,39.5275 63.6565,34.6144 "/>
  <polygon fill="#8C0000" points="62.6037,34.439 56.8134,38.6501 55.5852,37.5973 56.9889,36.0182 54.3569,35.4918 54.3569,33.5617 59.7963,32.5089 61.551,32.5089 "/>
  <polygon fill="#8C0000" points="57.5153,29.7014 56.1116,32.3334 55.2342,32.1579 52.4268,34.7899 50.3212,33.2107 55.2342,27.7713 "/>
  <polygon fill="#8C0000" points="52.9532,27.7713 46.1101,34.7899 44.3554,32.6843 49.4439,28.2977 50.1458,25.3148 "/>
  <polygon fill="#8C0000" points="41.7235,27.9468 45.2327,24.0866 48.3911,26.0167 43.6536,30.9297 "/>
  <polygon fill="#8C0000" points="43.4781,23.9111 39.0915,27.7713 36.9859,24.4375 39.6179,23.7356 "/>
  <polygon fill="#8C0000" points="29.09,26.0167 33.4766,22.3319 35.5822,22.8583 31.371,26.894 "/>
  <polygon fill="#8C0000" points="31.0201,21.4546 26.809,22.1565 27.3354,24.4375 "/>
  <ellipse fill="black" cx="248.244" cy="63.5426" rx="45.3064" ry="46.3601"/>
  <ellipse fill="black" cx="110.569" cy="357.859" rx="45.3064" ry="46.3601"/>
  <ellipse fill="black" cx="387.857" cy="357.859" rx="45.3064" ry="46.3601"/>
  <path fill="#7F7F7F" d="M277.555 75.8486c0.390331,1.79263 -2.6606,7.66517 -3.96539,7.4761 0.0867402,-1.15569 2.83862,-6.32041 3.96539,-7.4761z"/>
  <path fill="#7F7F7F" d="M273.344 84.6219c0.390331,1.79263 -4.06432,10.4726 -5.36911,10.2835 0.0867402,-1.15569 4.24233,-9.12785 5.36911,-10.2835z"/>
  <path fill="#7F7F7F" d="M270.712 84.2709c0.390331,1.79263 -2.6606,7.66517 -3.96539,7.4761 0.0867402,-1.15569 2.83862,-6.32041 3.96539,-7.4761z"/>
  <path fill="#7F7F7F" d="M280.187 76.375c0.390331,1.79263 -2.30967,6.43692 -3.61446,6.24785 0.0867402,-1.15569 2.48769,-5.09216 3.61446,-6.24785z"/>
  <path fill="#7F7F7F" d="M262.991 91.465c0.390331,1.79291 -1.60781,5.73506 -2.9126,5.54599 0.0867402,-1.15569 1.78583,-4.39002 2.9126,-5.54599z"/>
  <path fill="#7F7F7F" d="M265.097 91.6407c0.390331,1.79263 -0.905953,4.50652 -2.21074,4.31745 0.0867402,-1.15569 1.08397,-3.16177 2.21074,-4.31745z"/>
  <path fill="#7F7F7F" d="M258.078 92.5181c0.390331,1.79263 -0.905953,4.50652 -2.21074,4.31745 0.0867402,-1.15569 1.08397,-3.16177 2.21074,-4.31745z"/>
  <path fill="#7F7F7F" d="M260.008 92.5181c0.390614,1.79263 -0.379276,3.45373 -1.68406,3.26466 0.0867402,-1.15569 0.557292,-2.10898 1.68406,-3.26466z"/>
  <path fill="#7F7F7F" d="M255.27 94.2727c0.390614,1.79263 -0.379276,3.45373 -1.68406,3.26466 0.0867402,-1.15569 0.557292,-2.10898 1.68406,-3.26466z"/>
  <path fill="#7F7F7F" d="M249.305 94.2727c0.390614,1.79263 -0.379276,3.45373 -1.68406,3.26466 0.0867402,-1.15569 0.557292,-2.10898 1.68406,-3.26466z"/>
  <path fill="#7F7F7F" d="M254.393 91.6407c0.390614,1.79263 -0.379276,3.45373 -1.68406,3.26466 0.0867402,-1.15569 0.557292,-2.10898 1.68406,-3.26466z"/>
  <path fill="#7F7F7F" d="M243.081 92.8344c0.290268,1.332 -0.281764,2.56621 -1.25121,2.42561 0.0643465,-0.858615 0.414142,-1.56699 1.25121,-2.42561z"/>
  <path fill="#7F7F7F" d="M281.239 70.2341c0.390614,1.79263 -0.379276,3.45373 -1.68406,3.26466 0.0867402,-1.15569 0.557292,-2.10898 1.68406,-3.26466z"/>
  <path fill="#7F7F7F" d="M282.117 64.0928c0.390614,1.79263 -0.379276,3.45373 -1.68406,3.26466 0.0867402,-1.15569 0.557292,-2.10898 1.68406,-3.26466z"/>
  <path fill="#7F7F7F" d="M278.958 69.5322c0.390614,1.79263 -0.379276,3.45373 -1.68406,3.26466 0.0867402,-1.15569 0.557292,-2.10898 1.68406,-3.26466z"/>
  <path fill="#7F7F7F" d="M272.992 89.0088c0.390614,1.79263 -0.379276,3.45373 -1.68406,3.26466 0.0867402,-1.15569 0.557292,-2.10898 1.68406,-3.26466z"/>
  <path fill="#7F7F7F" d="M275.449 84.0958c0.390614,1.79263 -0.379276,3.45373 -1.68406,3.26466 0.0867402,-1.15569 0.557292,-2.10898 1.68406,-3.26466z"/>
  <path fill="#7F7F7F" d="M225.617 60.759c0.390331,1.79263 -1.60781,5.20838 -2.9126,5.01931 0.0867402,-1.15569 1.78583,-3.86362 2.9126,-5.01931z"/>
  <path fill="#7F7F7F" d="M224.482 73.5333c0.290268,1.332 -0.281764,2.56621 -1.25121,2.42561 0.0643465,-0.858615 0.414142,-1.56699 1.25121,-2.42561z"/>
  <path fill="#7F7F7F" d="M220.632 61.2219c0.251717,1.15597 -0.24463,2.2269 -1.08567,2.10501 0.0558425,-0.745229 0.359433,-1.35978 1.08567,-2.10501z"/>
  <path fill="#7F7F7F" d="M223.956 66.5147c0.290268,1.332 -0.281764,2.56621 -1.25121,2.42561 0.0643465,-0.858615 0.414142,-1.56699 1.25121,-2.42561z"/>
  <path fill="#7F7F7F" d="M99.9018 341.028c-0.776126,4.40221 -6.4783,13.9635 -7.42819,14.036 -0.247748,-2.55884 4.63663,-11.9458 7.42819,-14.036z"/>
  <path fill="#7F7F7F" d="M101.656 342.257c-1.02472,3.90529 -5.82066,11.7703 -6.55087,12.2814 -0.292252,-2.57358 3.80211,-10.1758 6.55087,-12.2814z"/>
  <path fill="#7F7F7F" d="M98.1471 340.151c-0.776126,4.40221 -7.35563,15.7181 -8.30552,15.7907 -0.000283465,-2.50243 5.73194,-13.7619 8.30552,-15.7907z"/>
  <path fill="#7F7F7F" d="M97.6207 336.642c-0.527244,4.40221 -7.13594,15.7178 -8.30552,15.7907 0.175465,-2.33943 6.02448,-13.451 8.30552,-15.7907z"/>
  <path fill="#7F7F7F" d="M98.1471 333.483c-1.55084,3.90501 -6.2297,11.77 -6.55087,12.2814 -0.292252,-2.57358 3.80211,-10.1758 6.55087,-12.2814z"/>
  <path fill="#7F7F7F" d="M93.585 338.046c-1.55084,3.90501 -3.07134,5.10236 -3.39251,5.61374 -0.292252,-2.57358 0.643748,-3.50816 3.39251,-5.61374z"/>
  <path fill="#7F7F7F" d="M90.4267 332.606c-1.55084,3.90501 -3.07134,5.10236 -3.39251,5.61374 -0.292252,-2.57358 0.643748,-3.50816 3.39251,-5.61374z"/>
  <path fill="#7F7F7F" d="M93.4096 332.08c-1.55084,3.90501 -3.07134,5.10236 -3.39251,5.61374 -0.292252,-2.57358 0.643748,-3.50816 3.39251,-5.61374z"/>
  <path fill="#7F7F7F" d="M95.4156 334.355c-0.270425,2.50158 -1.39181,3.04384 -1.9114,3.1629 -0.63241,-1.68406 -0.105165,-2.21074 1.9114,-3.1629z"/>
  <path fill="#7F7F7F" d="M101.656 333.834c-1.55084,3.90501 -3.07134,5.10236 -3.39251,5.61374 -0.292252,-2.57358 0.643748,-3.50816 3.39251,-5.61374z"/>
  <path fill="#7F7F7F" d="M104.013 333.802c-1.26907,3.19521 -2.51291,4.17487 -2.77597,4.59326 -0.238961,-2.10586 0.526961,-2.87036 2.77597,-4.59326z"/>
  <path fill="#7F7F7F" d="M106.47 332.574c-1.26907,3.19521 -1.98652,3.29754 -2.24958,3.71594 -0.238961,-2.10586 0.000283465,-1.99304 2.24958,-3.71594z"/>
  <path fill="#7F7F7F" d="M103.838 336.96c-1.26907,3.19521 -1.98652,3.29754 -2.24958,3.71594 -0.238961,-2.10586 0.000283465,-1.99304 2.24958,-3.71594z"/>
  <path fill="#7F7F7F" d="M104.715 339.768c-1.26907,3.19521 -1.98652,3.29754 -2.24958,3.71594 -0.238961,-2.10586 0.000283465,-1.99304 2.24958,-3.71594z"/>
  <path fill="#7F7F7F" d="M110.506 332.398c-0.894331,3.94413 -1.86151,3.54699 -2.24958,3.71594 -0.238961,-2.10586 0.000283465,-1.99304 2.24958,-3.71594z"/>
  <path fill="#7F7F7F" d="M108.575 332.819c-0.885827,2.23002 -1.38643,2.30145 -1.57011,2.59342 -0.166677,-1.46976 0.000283465,-1.39096 1.57011,-2.59342z"/>
  <path fill="#7F7F7F" d="M112.786 332.574c-1.26879,3.19521 -2.1617,4.17458 -2.42476,4.59298 -0.238961,-2.10586 0.175748,-2.87036 2.42476,-4.59298z"/>
  <path fill="#7F7F7F" d="M115.068 332.223c-0.894331,3.94413 -1.15965,2.66967 -1.54772,2.83862 -0.238961,-2.10586 -0.701575,-1.11572 1.54772,-2.83862z"/>
  <path fill="#7F7F7F" d="M118.577 332.574c-0.894331,3.94413 -1.15965,2.66967 -1.54772,2.83862 -0.238961,-2.10586 -0.701575,-1.11572 1.54772,-2.83862z"/>
  <path fill="#7F7F7F" d="M121.911 331.697c-0.894331,3.94413 -1.15965,2.66967 -1.54772,2.83862 -0.238961,-2.10586 -0.701575,-1.11572 1.54772,-2.83862z"/>
  <path fill="#7F7F7F" d="M124.016 332.749c-0.894331,3.94413 -1.15965,2.66967 -1.54772,2.83862 -0.238961,-2.10586 -0.701575,-1.11572 1.54772,-2.83862z"/>
  <path fill="#7F7F7F" d="M106.821 341.873c-0.894331,3.94413 -1.15965,2.66967 -1.54772,2.83862 -0.238961,-2.10586 -0.701575,-1.11572 1.54772,-2.83862z"/>
  <path fill="#7F7F7F" d="M110.24 340.274c-1.11657,4.92435 -1.44794,3.33326 -1.9321,3.54416 -0.298488,-2.62914 -0.875906,-1.39323 1.9321,-3.54416z"/>
  <path fill="#7F7F7F" d="M107.523 337.662c-0.894331,3.94413 -1.15965,2.66967 -1.54772,2.83862 -0.238961,-2.10586 -0.701575,-1.11572 1.54772,-2.83862z"/>
  <path fill="#7F7F7F" d="M112.436 340.821c-0.894331,3.94413 -1.15965,2.66967 -1.54772,2.83862 -0.238961,-2.10586 -0.701575,-1.11572 1.54772,-2.83862z"/>
  <path fill="#7F7F7F" d="M121.384 338.715c-0.894331,3.94413 -2.21244,4.24914 -2.60051,4.41808 -0.238961,-2.10586 0.351213,-2.69518 2.60051,-4.41808z"/>
  <path fill="#7F7F7F" d="M123.315 339.768c-0.894331,3.94413 -2.21244,4.24914 -2.60051,4.41808 -0.238961,-2.10586 0.351213,-2.69518 2.60051,-4.41808z"/>
  <path fill="#7F7F7F" d="M125.069 339.592c-0.894331,3.94413 -2.21244,4.24914 -2.60051,4.41808 -0.238961,-2.10586 0.351213,-2.69518 2.60051,-4.41808z"/>
  <path fill="#7F7F7F" d="M126.473 340.645c-0.894331,3.94413 -1.86151,3.89821 -2.24958,4.06715 -0.238961,-2.10586 0.000283465,-2.34425 2.24958,-4.06715z"/>
  <path fill="#7F7F7F" d="M128.929 340.119c-0.894331,3.94413 -2.21244,4.24914 -2.60051,4.41808 -0.238961,-2.10586 0.351213,-2.69518 2.60051,-4.41808z"/>
  <path fill="#7F7F7F" d="M130.859 340.469c-0.894331,3.94413 -2.21244,4.24914 -2.60051,4.41808 -0.238961,-2.10586 0.351213,-2.69518 2.60051,-4.41808z"/>
  <path fill="#7F7F7F" d="M132.263 341.698c-0.894331,3.94413 -2.03669,3.54728 -2.42476,3.71622 -0.238961,-2.10586 0.175748,-1.99332 2.42476,-3.71622z"/>
  <path fill="#7F7F7F" d="M134.369 342.049c-0.894331,3.94413 -1.68576,3.54728 -2.07383,3.71622 -0.238961,-2.10586 -0.175181,-1.99332 2.07383,-3.71622z"/>
  <path fill="#7F7F7F" d="M92.7837 358.192c-0.894331,3.94413 -1.15965,2.66967 -1.54772,2.83862 -0.238961,-2.10586 -0.701575,-1.11572 1.54772,-2.83862z"/>
  <path fill="#7F7F7F" d="M94.1874 359.771c-0.894331,3.94413 -1.15965,2.66967 -1.54772,2.83862 -0.238961,-2.10586 -0.701575,-1.11572 1.54772,-2.83862z"/>
  <path fill="#7F7F7F" d="M112.436 367.667c-0.894331,3.94413 -1.15965,2.66967 -1.54772,2.83862 -0.238961,-2.10586 -0.701575,-1.11572 1.54772,-2.83862z"/>
  <path fill="#7F7F7F" d="M124.192 391.354c-0.894331,3.94413 -1.15965,2.66967 -1.54772,2.83862 -0.238961,-2.10586 -0.701575,-1.11572 1.54772,-2.83862z"/>
  <path fill="#7F7F7F" d="M128.228 380.476c-0.894331,3.94413 -1.15965,2.66967 -1.54772,2.83862 -0.238961,-2.10586 -0.701575,-1.11572 1.54772,-2.83862z"/>
  <path fill="#7F7F7F" d="M119.805 392.056c-0.894331,3.94413 -1.15965,2.66967 -1.54772,2.83862 -0.238961,-2.10586 -0.701575,-1.11572 1.54772,-2.83862z"/>
  <path fill="#7F7F7F" d="M118.226 392.232c-0.894331,3.94413 -1.15965,2.66967 -1.54772,2.83862 -0.238961,-2.10586 -0.701575,-1.11572 1.54772,-2.83862z"/>
  <path fill="#7F7F7F" d="M114.015 391.881c-0.894331,3.94413 -1.15965,2.66967 -1.54772,2.83862 -0.238961,-2.10586 -0.701575,-1.11572 1.54772,-2.83862z"/>
  <path fill="#7F7F7F" d="M79.9747 374.861c-0.894331,3.94413 -1.15965,2.66967 -1.54772,2.83862 -0.238961,-2.10586 -0.701575,-1.11572 1.54772,-2.83862z"/>
  <path fill="#7F7F7F" d="M77.5182 371.527c-0.894331,3.94413 -1.15965,2.66967 -1.54772,2.83862 -0.238961,-2.10586 -0.701575,-1.11572 1.54772,-2.83862z"/>
  <path fill="#7F7F7F" d="M79.6238 371.176c-0.894331,3.94413 -1.15965,2.66967 -1.54772,2.83862 -0.238961,-2.10586 -0.701575,-1.11572 1.54772,-2.83862z"/>
  <path fill="#7F7F7F" d="M76.1145 369.597c-0.894331,3.94413 -1.15965,2.66967 -1.54772,2.83862 -0.238961,-2.10586 -0.701575,-1.11572 1.54772,-2.83862z"/>
  <path fill="#7F7F7F" d="M76.6409 357.49c-0.894331,3.94413 -1.15965,2.66967 -1.54772,2.83862 -0.238961,-2.10586 -0.701575,-1.11572 1.54772,-2.83862z"/>
  <path fill="#7F7F7F" d="M79.4484 356.262c-0.894331,3.94413 -1.15965,2.66967 -1.54772,2.83862 -0.238961,-2.10586 -0.701575,-1.11572 1.54772,-2.83862z"/>
  <path fill="#7F7F7F" d="M76.1145 355.033c-0.894331,3.94413 -1.15965,2.66967 -1.54772,2.83862 -0.238961,-2.10586 -0.701575,-1.11572 1.54772,-2.83862z"/>
  <path fill="#7F7F7F" d="M73.8335 350.647c-0.894331,3.94413 -1.15965,2.66967 -1.54772,2.83862 -0.238961,-2.10586 -0.701575,-1.11572 1.54772,-2.83862z"/>
  <path fill="#7F7F7F" d="M81.3785 345.383c-0.894331,3.94413 -1.15965,2.66967 -1.54772,2.83862 -0.238961,-2.10586 -0.701575,-1.11572 1.54772,-2.83862z"/>
  <path fill="#7F7F7F" d="M77.8692 351.349c-0.894331,3.94413 -1.15965,2.66967 -1.54772,2.83862 -0.238961,-2.10586 -0.701575,-1.11572 1.54772,-2.83862z"/>
  <path fill="#7F7F7F" d="M80.1499 351.173c-0.894331,3.94413 -2.56337,5.12618 -2.95115,5.29512 -0.239244,-2.10586 0.702142,-3.57222 2.95115,-5.29512z"/>
  <path fill="#7F7F7F" d="M79.7993 343.628c-0.894331,3.94413 -1.15965,2.66967 -1.54772,2.83862 -0.238961,-2.10586 -0.701575,-1.11572 1.54772,-2.83862z"/>
  <path fill="#7F7F7F" d="M83.835 350.12c-0.894331,3.94413 -1.15965,2.66967 -1.54772,2.83862 -0.238961,-2.10586 -0.701575,-1.11572 1.54772,-2.83862z"/>
  <path fill="#7F7F7F" d="M82.6067 346.786c-0.894331,3.94413 -1.15965,2.66967 -1.54772,2.83862 -0.238961,-2.10586 -0.701575,-1.11572 1.54772,-2.83862z"/>
  <path fill="#7F7F7F" d="M83.484 343.453c-0.894331,3.94413 -1.15965,2.66967 -1.54772,2.83862 -0.238961,-2.10586 -0.701575,-1.11572 1.54772,-2.83862z"/>
  <path fill="#7F7F7F" d="M87.344 339.066c-0.894331,3.94413 -2.38762,3.89821 -2.77569,4.06715 -0.238961,-2.10586 0.526677,-2.34425 2.77569,-4.06715z"/>
  <path fill="#7F7F7F" d="M83.835 340.294c-0.894331,3.94413 -1.15965,2.66967 -1.54772,2.83862 -0.238961,-2.10586 -0.701575,-1.11572 1.54772,-2.83862z"/>
  <path fill="#7F7F7F" d="M86.2915 335.206c-0.894331,3.94413 -1.15965,2.66967 -1.54772,2.83862 -0.238961,-2.10586 -0.701575,-1.11572 1.54772,-2.83862z"/>
  <path fill="#7F7F7F" d="M82.7822 333.627c-0.894331,3.94413 -1.15965,2.66967 -1.54772,2.83862 -0.238961,-2.10586 -0.701575,-1.11572 1.54772,-2.83862z"/>
  <path fill="#7F7F7F" d="M74.8863 345.383c-0.894331,3.94413 -1.15965,2.66967 -1.54772,2.83862 -0.238961,-2.10586 -0.701575,-1.11572 1.54772,-2.83862z"/>
  <path fill="#7F7F7F" d="M77.1673 348.19c-0.983056,4.33503 -1.27474,2.93443 -1.70107,3.1201 -0.262772,-2.31449 -0.771024,-1.22655 1.70107,-3.1201z"/>
  <path fill="#7F7F7F" d="M77.3428 342.224c-0.894331,3.94413 -1.15965,2.66967 -1.54772,2.83862 -0.238961,-2.10586 -0.701575,-1.11572 1.54772,-2.83862z"/>
  <path fill="#7F7F7F" d="M367.522 356.157c-1.40684,5.47881 -4.67518,9.47764 -5.10917,9.16498 0.383528,-2.96334 3.03619,-7.44945 5.10917,-9.16498z"/>
  <path fill="#7F7F7F" d="M371.558 342.822c-0.903119,5.82945 -9.61427,20.5316 -10.1976,20.2193 0.383528,-2.96334 8.12467,-18.5037 10.1976,-20.2193z"/>
  <path fill="#7F7F7F" d="M367.171 348.612c-1.40684,5.47881 -6.25437,12.1096 -6.68835,11.797 0.383528,-2.96334 4.61537,-10.0814 6.68835,-11.797z"/>
  <path fill="#7F7F7F" d="M375.594 340.19c-1.40684,5.47881 -3.79786,7.723 -4.23184,7.41033 0.383528,-2.96334 2.15887,-5.69481 4.23184,-7.41033z"/>
  <path fill="#7F7F7F" d="M363.837 349.84c-1.40684,5.47881 -2.39414,5.44196 -2.82813,5.12929 0.383528,-2.96334 0.75515,-3.41377 2.82813,-5.12929z"/>
  <path fill="#7F7F7F" d="M361.118 351.153c-1.10183,4.29024 -1.87484,4.26161 -2.21471,4.01669 0.300473,-2.32044 0.591307,-2.67336 2.21471,-4.01669z"/>
  <path fill="#7F7F7F" d="M364.227 345.83c-1.16447,4.53487 -1.9817,4.50425 -2.34085,4.24545 0.31748,-2.45282 0.62504,-2.82558 2.34085,-4.24545z"/>
  <path fill="#7F7F7F" d="M358.311 356.943c-1.10183,4.29024 -1.87484,4.26161 -2.21471,4.01669 0.300473,-2.32044 0.591307,-2.67336 2.21471,-4.01669z"/>
  <path fill="#7F7F7F" d="M359.013 360.101c-1.10183,4.29024 -1.87484,4.26161 -2.21471,4.01669 0.300473,-2.32044 0.591307,-2.67336 2.21471,-4.01669z"/>
  <path fill="#7F7F7F" d="M365.856 366.067c-1.10183,4.29024 -1.87484,4.26161 -2.21471,4.01669 0.300473,-2.32044 0.591307,-2.67336 2.21471,-4.01669z"/>
  <path fill="#7F7F7F" d="M367.26 367.12c-1.10183,4.29024 -1.87484,4.26161 -2.21471,4.01669 0.300473,-2.32044 0.591307,-2.67336 2.21471,-4.01669z"/>
  <path fill="#7F7F7F" d="M365.099 363.435c-0.724819,2.82303 -1.23364,2.80403 -1.45729,2.64302 0.197575,-1.52702 0.389197,-1.75918 1.45729,-2.64302z"/>
  <path fill="#7F7F7F" d="M367.029 371.682c-0.724819,2.82303 -1.23364,2.80403 -1.45729,2.64302 0.197575,-1.52702 0.389197,-1.75918 1.45729,-2.64302z"/>
  <path fill="#7F7F7F" d="M368.959 372.208c-0.724819,2.82303 -1.23364,2.80403 -1.45729,2.64302 0.197575,-1.52702 0.389197,-1.75918 1.45729,-2.64302z"/>
  <path fill="#7F7F7F" d="M371.064 373.086c-0.724819,2.82303 -1.23364,2.80403 -1.45729,2.64302 0.197575,-1.52702 0.389197,-1.75918 1.45729,-2.64302z"/>
  <path fill="#7F7F7F" d="M369.836 377.297c-0.724819,2.82303 -1.23364,2.80403 -1.45729,2.64302 0.197575,-1.52702 0.389197,-1.75918 1.45729,-2.64302z"/>
  <path fill="#7F7F7F" d="M368.783 344.134c-0.724819,2.82303 -1.23364,2.80403 -1.45729,2.64302 0.197575,-1.52702 0.389197,-1.75918 1.45729,-2.64302z"/>
  <path fill="#7F7F7F" d="M378.434 339.572c0.172347,2.82274 -1.02643,2.80403 -1.45729,2.64302 -0.270142,-1.99502 -0.0788032,-2.22718 1.45729,-2.64302z"/>
  <path fill="#7F7F7F" d="M383.171 337.291c0.172347,2.82274 -1.02643,2.80403 -1.45729,2.64302 -0.270142,-1.99502 -0.0788032,-2.22718 1.45729,-2.64302z"/>
  <path fill="#7F7F7F" d="M386.681 335.887c0.172347,2.82274 -1.02643,2.80403 -1.45729,2.64302 -0.270142,-1.99502 -0.0788032,-2.22718 1.45729,-2.64302z"/>
  <path fill="#7F7F7F" d="M388.962 335.361c0.172347,2.82274 -1.02643,2.80403 -1.45729,2.64302 -0.270142,-1.99502 -0.0788032,-2.22718 1.45729,-2.64302z"/>
  <path fill="#7F7F7F" d="M391.067 334.133c0.172347,2.82274 -1.02643,2.80403 -1.45729,2.64302 -0.270142,-1.99502 -0.0788032,-2.22718 1.45729,-2.64302z"/>
  <path fill="#7F7F7F" d="M393.348 334.308c0.172347,2.82274 -1.02643,2.80403 -1.45729,2.64302 -0.270142,-1.99502 -0.0788032,-2.22718 1.45729,-2.64302z"/>
  <path fill="#7F7F7F" d="M395.454 333.431c0.172347,2.82274 -1.02643,2.80403 -1.45729,2.64302 -0.270142,-1.99502 -0.0788032,-2.22718 1.45729,-2.64302z"/>
  <path fill="#7F7F7F" d="M398.086 333.606c0.172347,2.82274 -1.02643,2.80403 -1.45729,2.64302 -0.270142,-1.99502 -0.0788032,-2.22718 1.45729,-2.64302z"/>
  <path fill="#7F7F7F" d="M399.49 334.659c0.172347,2.82274 -1.02643,2.80403 -1.45729,2.64302 -0.270142,-1.99502 -0.0788032,-2.22718 1.45729,-2.64302z"/>
  <path fill="#7F7F7F" d="M401.771 334.133c0.172347,2.82274 -1.02643,2.80403 -1.45729,2.64302 -0.270142,-1.99502 -0.0788032,-2.22718 1.45729,-2.64302z"/>
  <path fill="#7F7F7F" d="M404.578 334.659c0.172347,2.82274 -1.02643,2.80403 -1.45729,2.64302 -0.270142,-1.99502 -0.0788032,-2.22718 1.45729,-2.64302z"/>
  <path fill="#7F7F7F" d="M388.959 329.212c0.0943937,1.54715 -0.562677,1.53666 -0.798804,1.4485 -0.148252,-1.09332 -0.0430866,-1.2206 0.798804,-1.4485z"/>
  <path fill="#7F7F7F" d="M386.152 332.546c0.0943937,1.54715 -0.562677,1.53666 -0.798804,1.4485 -0.148252,-1.09332 -0.0430866,-1.2206 0.798804,-1.4485z"/>
  <path fill="#7F7F7F" d="M360.183 347.636c0.0943937,1.54715 -0.562677,1.53666 -0.798804,1.4485 -0.148252,-1.09332 -0.0430866,-1.2206 0.798804,-1.4485z"/>
  <path fill="#7F7F7F" d="M379.133 326.58c0.0943937,1.54715 -0.562677,1.53666 -0.798804,1.4485 -0.148252,-1.09332 -0.0430866,-1.2206 0.798804,-1.4485z"/>
 </g>
</svg>
