<?xml version="1.0" encoding="UTF-8" standalone="no"?>
<!-- Created with Inkscape (http://www.inkscape.org/) -->

<svg
   xmlns:dc="http://purl.org/dc/elements/1.1/"
   xmlns:cc="http://creativecommons.org/ns#"
   xmlns:rdf="http://www.w3.org/1999/02/22-rdf-syntax-ns#"
   xmlns:svg="http://www.w3.org/2000/svg"
   xmlns="http://www.w3.org/2000/svg"
   xmlns:sodipodi="http://sodipodi.sourceforge.net/DTD/sodipodi-0.dtd"
   xmlns:inkscape="http://www.inkscape.org/namespaces/inkscape"
   width="500"
   height="581.84418"
   id="svg1901"
   sodipodi:version="0.32"
   inkscape:version="0.48.2 r9819"
   sodipodi:docname="joutsa.svg"
   version="1.1">
  <defs
     id="defs1903" />
  <sodipodi:namedview
     id="base"
     pagecolor="#ffffff"
     bordercolor="#666666"
     borderopacity="1.0"
     inkscape:pageopacity="0.0"
     inkscape:pageshadow="2"
     inkscape:zoom="0.90509668"
     inkscape:cx="66.664667"
     inkscape:cy="368.87358"
     inkscape:document-units="px"
     inkscape:current-layer="layer1"
     inkscape:window-width="1600"
     inkscape:window-height="848"
     inkscape:window-x="-8"
     inkscape:window-y="-8"
     showgrid="false"
     fit-margin-top="0"
     fit-margin-left="0"
     fit-margin-right="0"
     fit-margin-bottom="0"
     inkscape:window-maximized="1" />
  <metadata
     id="metadata1906">
    <rdf:RDF>
      <cc:Work
         rdf:about="">
        <dc:format>image/svg+xml</dc:format>
        <dc:type
           rdf:resource="http://purl.org/dc/dcmitype/StillImage" />
        <dc:title />
      </cc:Work>
    </rdf:RDF>
  </metadata>
  <g
     inkscape:label="Taso 1"
     inkscape:groupmode="layer"
     id="layer1"
     transform="translate(4.6190499e-6,-470.518)">
    <g
       transform="translate(-600.07623,-227.58357)"
       id="layer2"
       style="display:inline">
      <g
         transform="matrix(0.30109454,0,0,0.30109454,296.42464,855.31443)"
         id="Layer_x0020_1"
         style="fill-rule:evenodd">
        <metadata
           id="CorelCorpID_0Corel-Layer" />
        <path
           inkscape:connector-curvature="0"
           d="m 1008.4946,-522.13787 1660.6059,0 -25.1566,1137.98023 c -27.5181,432.42894 -460.1054,662.53834 -809.3078,794.45004 -392.5676,-150.7386 -752.3493,-362.6418 -792.6043,-793.22857 l -33.5393,-1139.20022 z"
           id="path1937"
           style="fill:#df0000;fill-opacity:1;stroke:none" />
      </g>
    </g>
    <g
       transform="translate(-580.30401,-204.77504)"
       id="layer18"
       style="display:inline">
      <path
         inkscape:connector-curvature="0"
         d="m 864.77651,773.70737 c -5.37667,-17.2054 -10.10816,-6.45202 -10.10816,-6.45202 -3.81906,-7.54041 -6.97125,-0.15208 -6.97125,-0.15208 -5.16163,-7.52737 -7.86841,0.79728 -7.86841,0.79728 l 0,58.28078 c 0,0 3.90402,7.33654 8.01008,0.45623 0,0 3.72583,5.39869 7.14753,-2.12906 0,0 2.89262,7.30728 9.42872,-3.49774 0,0 9.42868,0.91245 22.20306,-11.55775 12.77435,-12.47021 50.0024,-31.64391 83.33745,62.65519 33.76087,95.50354 86.37907,59.30953 97.32847,35.58572 l -3.6498,-24.33212 c -8.2121,27.67776 -50.5416,36.28362 -64.44049,-30.29451 -13.04576,-62.49151 -45.68348,-108.74832 -95.8374,-102.39376 -21.79629,2.76162 -27.3963,19.16262 -38.5798,23.03384 z"
         id="path4696-5"
         style="fill:#870000;fill-opacity:1;stroke:none;display:inline" />
      <path
         inkscape:connector-curvature="0"
         d="m 804.36042,773.91009 c 5.37671,-17.20541 10.1082,-6.45203 10.1082,-6.45203 3.81902,-7.54041 6.97123,-0.15208 6.97123,-0.15208 5.16161,-7.52736 4.85747,8.21711 4.85747,8.21711 l 3.01095,50.86096 c 0,0 -3.90405,7.33653 -8.01008,0.45623 0,0 -3.72587,5.39868 -7.14756,-2.12906 0,0 -2.89261,7.30727 -9.42868,-3.49775 0,0 -9.42872,0.91246 -22.20305,-11.55775 -12.77435,-12.47021 -50.00243,-31.64391 -83.33748,62.65519 -33.76083,95.50356 -86.37903,59.30952 -97.32848,35.58571 l 3.64984,-24.3321 c 8.21208,27.67777 50.54154,36.2836 64.44046,-30.29452 13.04576,-62.49151 45.68348,-108.74831 95.8374,-102.39375 21.79629,2.76161 27.39629,19.16262 38.57978,23.03384 z"
         id="path4696-2-7"
         style="fill:#870000;fill-opacity:1;stroke:none;display:inline" />
      <path
         inkscape:connector-curvature="0"
         d="m 661.30363,870.05608 c -7.26881,-21.72733 54.89493,20.96783 33.1942,22.19332 0,0 4.26446,8.76558 -4.98345,7.69025 0,0 3.59318,9.08502 -5.16163,7.09722 0,0 4.73149,10.53831 -8.17255,6.66711 -12.90407,-3.87123 -40.43269,-26.66836 -23.87249,-28.06631 0,0 -5.23543,-8.57345 4.54249,-8.56897 0,0 -4.26446,-8.27694 4.45343,-7.01262 z"
         id="path4712-2-6"
         style="fill:#870000;fill-opacity:1;stroke:none;display:inline" />
      <path
         inkscape:connector-curvature="0"
         d="m 1007.8333,869.85336 c 7.2688,-21.72732 -54.89491,20.96783 -33.19418,22.19334 0,0 -4.26446,8.76559 4.98344,7.69023 0,0 -3.59317,9.08504 5.16164,7.09725 0,0 -4.73149,10.53831 8.17255,6.66707 12.90405,-3.8712 40.43265,-26.66836 23.87245,-28.0663 0,0 5.2355,-8.57344 -4.5425,-8.56897 0,0 4.2645,-8.27693 -4.4534,-7.01262 z"
         id="path4712-1"
         style="fill:#870000;fill-opacity:1;stroke:none;display:inline" />
      <path
         inkscape:connector-curvature="0"
         d="m 859.30216,771.91663 c -5.37668,-17.2054 -10.10817,-6.45202 -10.10817,-6.45202 -3.81905,-7.54041 -6.97124,-0.15208 -6.97124,-0.15208 -5.16164,-7.52736 -7.86842,0.79728 -7.86842,0.79728 l 0,58.28079 c 0,0 3.90403,7.33653 8.01008,0.45623 0,0 3.72584,5.39868 7.14754,-2.12906 0,0 2.89261,7.30727 9.42871,-3.49775 0,0 9.42869,0.91246 22.20304,-11.55775 12.77435,-12.47021 50.0024,-31.64391 83.33745,62.65519 33.76083,95.50354 88.63725,58.12667 99.58665,34.40286 l -3.7036,-26.26773 c -8.8204,31.02343 -52.746,39.40209 -66.64487,-27.17604 -13.04576,-62.49151 -45.68348,-108.74831 -95.8374,-102.39375 -21.79628,2.76161 -27.39628,19.16262 -38.57977,23.03383 z"
         id="path4696-5-1"
         style="fill:#ffffff;fill-opacity:1;stroke:none;display:inline" />
      <path
         inkscape:connector-curvature="0"
         d="m 798.88607,772.11935 c 5.37671,-17.2054 10.10819,-6.45203 10.10819,-6.45203 3.81902,-7.5404 6.97124,-0.15207 6.97124,-0.15207 5.1616,-7.52736 9.76573,0.46246 9.76573,0.46246 l -1.89732,58.6156 c 0,0 -3.90405,7.33654 -8.01008,0.45623 0,0 -3.72586,5.39869 -7.14755,-2.12906 0,0 -2.89262,7.30728 -9.42869,-3.49774 0,0 -9.42871,0.91245 -22.20304,-11.55775 -12.77436,-12.47021 -50.00244,-31.64391 -83.33749,62.65519 -33.76082,95.50355 -86.37902,59.30951 -97.32848,35.5857 l 4.97668,-29.26151 c 6.64362,34.02991 49.21471,41.21301 63.11363,-25.3651 13.04576,-62.49151 45.68347,-108.74832 95.83739,-102.39376 21.7963,2.76162 27.3963,19.16262 38.57979,23.03384 z"
         id="path4696-2-7-1"
         style="fill:#ffffff;fill-opacity:1;stroke:none;display:inline" />
      <path
         inkscape:connector-curvature="0"
         d="m 655.82928,868.26534 c -7.26881,-21.72733 54.89492,20.96784 33.1942,22.19332 0,0 4.26446,8.76559 -4.98345,7.69026 0,0 3.59317,9.08501 -5.16163,7.09722 0,0 4.73149,10.53831 -8.17255,6.6671 -12.90407,-3.87123 -40.43269,-26.66836 -23.87249,-28.06631 0,0 -5.23543,-8.57344 4.54249,-8.56897 0,0 -4.26446,-8.27693 4.45343,-7.01262 z"
         id="path4712-2-6-3"
         style="fill:#ffffff;fill-opacity:1;stroke:none;display:inline" />
      <path
         inkscape:connector-curvature="0"
         d="m 1000.8535,870.53591 c 7.2688,-21.72733 -53.38949,18.49454 -31.68876,19.72006 0,0 -4.26446,8.76558 4.98344,7.69022 0,0 -3.59317,9.08505 5.16164,7.09725 0,0 -4.73149,10.53831 8.17255,6.66708 12.90403,-3.8712 40.43273,-26.66837 23.87253,-28.0663 0,0 5.2354,-8.57345 -4.5425,-8.56897 0,0 2.759,-5.80366 -5.9589,-4.53934 z"
         id="path4712-1-8"
         style="fill:#ffffff;fill-opacity:1;stroke:none;display:inline" />
      <path
         inkscape:connector-curvature="0"
         d="m 866.20153,930.85076 123.01866,0 c 0,0 25.48551,0 41.93821,-18.71088 18.0092,-20.48114 11.968,-13.58184 9.8173,-7.34488 -2.1507,6.23696 -14.1187,34.87352 -52.18565,34.87352 -38.06696,0 -123.01866,0 -123.01866,0 -5.83536,0.48543 -7.94595,-9.6742 0.43014,-8.81776 z"
         id="path5232-2"
         style="fill:#870000;fill-opacity:1;stroke:none;display:inline" />
      <path
         inkscape:connector-curvature="0"
         d="m 805.12074,930.65866 -123.01862,0 c 0,0 -25.48548,0 -41.93815,-18.71087 -18.00928,-20.48114 -16.99032,-12.68899 -14.83966,-6.45203 2.15069,6.23696 19.141,33.98069 57.20795,33.98069 38.06697,0 123.01862,0 123.01862,0 5.83537,0.48543 7.94595,-9.67422 -0.43014,-8.81779 z"
         id="path5232-8-8"
         style="fill:#870000;fill-opacity:1;stroke:none;display:inline" />
      <path
         inkscape:connector-curvature="0"
         d="m 1048.8418,1088.4409 c -67.01107,88.1217 -135.78991,123.1149 -223.80023,156.4764 -98.59228,-37.9891 -182.50804,-79.4963 -216.16205,-171.5999 71.62892,78.6897 286.73451,181.1186 439.96228,15.1235 z"
         id="path1937-4-1"
         style="fill:#700000;fill-opacity:1;fill-rule:evenodd;stroke:none;display:inline" />
      <path
         inkscape:connector-curvature="0"
         d="m 711.98916,1103.1082 -15.89192,-15.3596 0,-19.1873 -15.35965,15.1806 -17.18455,0 0,-25.1919 34.06496,-29.5027 0,-21.5947 -18.8574,0 -15.96794,15.9679 0,-23.2676 -12.54625,-12.54624 -13.76285,13.76284 0,21.8989 -15.6638,-15.6638 -17.4887,0 0,19.3137 32.69627,32.6963 0,24.1273 -17.79285,0 c 44.0511,59.9579 55.75025,73.6296 105.84468,71.2241 l -1.52074,-53.2265 z m 122.70553,0.012 -15.11198,-15.3715 0,-19.1874 -15.35964,15.1807 -17.18455,0 0,-25.1919 34.06496,-29.5027 0,-21.5948 -18.8574,0 -15.96795,15.968 0,-23.2676 -12.54624,-12.54625 -13.76286,13.76285 0,21.8989 -15.66381,-15.6638 -17.48868,0 0,19.3136 32.69628,32.6963 0,24.1274 -17.79285,0 -15.2076,-15.1549 0,19.1336 -15.13151,15.3876 -11.32964,-0.1521 -0.91247,53.5306 146.60097,19.7699 -3.04149,-68.4721 z m 214.06161,-19.0741 -16.5718,-0.3041 0,-25.1919 34.065,-29.5027 0,-21.5947 -18.8574,0 -15.968,15.9679 0,-23.2676 -12.5462,-12.54625 -13.7628,13.76285 0,21.8989 -15.66385,-15.6637 -17.48871,0 0,19.3136 32.69626,32.6963 0,24.1273 -17.79283,0 -15.20757,-15.1549 0,19.1336 -14.71334,15.1595 -11.74784,0.076 -0.91247,53.5307 c 49.4145,-0.4629 78.22685,-42.0928 104.47155,-72.4408 z m -91.43105,18.5299 -14.8654,-14.8273 0,-19.1874 -15.35964,15.1807 -17.18455,0 0,-25.1919 34.06496,-29.5027 0,-21.5948 -18.8574,0 -15.96795,15.968 0,-23.2676 -12.54625,-12.54625 -13.76285,13.76285 0,21.8989 -15.66378,-15.6638 -17.48869,0 0,19.3136 32.69625,32.6963 0,24.1274 -17.79285,0 -15.20756,-15.1549 0,19.1336 -15.13805,15.2893 -11.32312,-0.054 4.56227,77.2545 142.95113,-25.2446 -1.52074,-53.2265 z"
         id="path4495-4-1"
         style="fill:#870000;fill-opacity:1;stroke:none;display:inline" />
      <path
         inkscape:connector-curvature="0"
         d="m 1059.173,1070.936 c -37.8923,93.8394 -119.27492,121.5606 -207.28524,154.9221 -98.59229,-37.9891 -202.29426,-45.5156 -235.94827,-137.6192 71.62891,78.6897 270.21954,145.6812 443.23351,-17.3029 z"
         id="path1937-4-5"
         style="fill:#ffffff;fill-opacity:1;fill-rule:evenodd;stroke:none;display:inline" />
      <path
         inkscape:connector-curvature="0"
         d="m 704.94069,1103.405 -12.77437,-15.6638 0.32353,-22.1091 -18.80072,18.4066 -17.18455,0 0,-25.1918 34.06496,-29.5027 0,-21.7088 -18.47721,-0.1521 -16.34814,16.2341 2.62331,-24.14206 -13.34464,-13.49671 -15.58776,15.58777 0,21.8989 -15.47371,-15.8159 -17.67879,-0.114 0,19.5797 32.69627,32.6963 0,24.1273 -17.79286,0 c 44.05111,59.9579 55.75026,73.6296 105.84468,71.2242 l -1.52074,-53.2265 z m 122.70553,0.012 -12.20856,-15.3716 0.53767,-22.1983 -18.80073,18.1916 -17.18455,0 0,-25.1919 34.06497,-29.5026 0.038,-21.7088 -18.51523,-0.1521 -16.34814,16.2341 2.79588,-23.85907 -13.46029,-13.78287 -15.64469,15.59094 0,21.8989 -15.39768,-15.8159 -17.75482,-0.114 0,19.5797 32.69628,32.6963 0,24.1273 -14.37114,0.1521 -18.6293,-19.0328 0,22.8595 -15.13151,15.3875 -11.32964,-0.152 -0.91247,53.5306 146.60097,19.7699 -3.0415,-68.4721 z m 218.01558,-19.3783 -20.5258,0 0,-25.1918 34.065,-29.5027 0,-21.5948 -18.8574,-0.3225 -15.9679,16.2905 2.4732,-23.96659 -13.1914,-13.72913 -15.59091,15.64472 0,21.8989 -15.66381,-15.6638 -17.48871,0 0,19.3137 32.69627,32.6962 0,24.1273 -14.52323,0 -18.47718,-18.8448 0,22.8236 -14.71334,15.1594 -11.74784,0.076 -0.91247,53.5306 c 49.41449,-0.4628 108.03362,-50.9132 108.42552,-72.7449 z m -95.38502,18.8341 -11.59579,-14.6753 0.15209,-22.3049 -18.78135,18.1461 -17.18455,0 0,-25.1919 34.06497,-29.5026 0,-21.5948 -18.31974,-0.3226 -16.50561,16.2906 2.25821,-24.34296 -12.86884,-13.19146 -15.69842,15.48342 0,21.8989 -15.66381,-15.7713 -17.48871,-0.2151 0,19.6362 32.69627,32.6963 0,24.1273 -14.52322,0 -18.4772,-18.8807 0,22.8595 -15.13806,15.2892 -11.32311,-0.054 4.56227,77.2544 142.95112,-25.2445 -1.52074,-53.2265 z"
         id="path4495-4-5"
         style="fill:#ffffff;fill-opacity:1;stroke:none;display:inline" />
      <path
         inkscape:connector-curvature="0"
         d="m 1058.5132,1072.5708 c -35.6112,94.1436 -141.38169,148.4929 -229.39203,181.8544 -98.59229,-37.9891 -190.25048,-88.9593 -223.90449,-181.0629 71.62892,78.6897 300.06871,165.2036 453.29652,-0.7915 z"
         id="path1937-4"
         style="fill:#cfcfcf;fill-opacity:1;fill-rule:evenodd;stroke:none;display:inline" />
      <path
         inkscape:connector-curvature="0"
         d="m 708.32632,1103.1531 -15.89192,-15.3596 0,-19.1874 -15.35965,15.1807 -17.18455,0 0,-25.1919 34.06496,-29.5027 0,-21.5947 -18.8574,0 -15.96794,15.9679 0,-23.2676 -12.54625,-12.54622 -13.76285,13.76282 0,21.8989 -15.6638,-15.6637 -17.4887,0 0,19.3136 32.69627,32.6963 0,24.1273 -17.79285,0 c 44.0511,59.9579 55.75025,73.6296 105.84468,71.2241 l -1.52074,-53.2265 z m 122.70553,0.012 -15.11198,-15.3716 0,-19.1873 -15.35964,15.1807 -17.18455,0 0,-25.1919 34.06496,-29.5027 0,-21.5947 -18.8574,0 -15.96795,15.9679 0,-23.2676 -12.54624,-12.54623 -13.76285,13.76283 0,21.8989 -15.66382,-15.6638 -17.48868,0 0,19.3137 32.69628,32.6962 0,24.1274 -17.79285,0 -15.2076,-15.1549 0,19.1336 -15.13151,15.3876 -11.32964,-0.1521 -0.91246,53.5306 146.60096,19.7699 -3.04149,-68.4721 z m 218.01555,-19.3782 -20.5257,0 0,-25.1919 34.065,-29.5027 0,-21.5947 -18.8574,0 -15.968,15.9679 0,-23.2676 -12.5462,-12.54623 -13.7628,13.76283 0,21.899 -15.66386,-15.6638 -17.48872,0 0,19.3136 32.69628,32.6963 0,24.1273 -17.79285,0 -15.20756,-15.1549 0,19.1336 -14.71335,15.1595 -11.74783,0.076 -0.91247,53.5307 c 49.41449,-0.4629 108.03366,-50.9132 108.42546,-72.7449 z m -95.38497,18.834 -14.86539,-14.8274 0,-19.1873 -15.35965,15.1807 -17.18455,0 0,-25.1919 34.06496,-29.5027 0,-21.5947 -18.8574,0 -15.96794,15.9679 0,-23.2676 -12.54625,-12.54623 -13.76285,13.76283 0,21.8989 -15.6638,-15.6638 -17.4887,0 0,19.3137 32.69627,32.6962 0,24.1274 -17.79285,0 -15.20757,-15.1549 0,19.1336 -15.13806,15.2893 -11.32312,-0.054 4.56227,77.2545 142.95116,-25.2446 -1.52074,-53.2265 z"
         id="path4495-4"
         style="fill:#cfcfcf;fill-opacity:1;stroke:none;display:inline" />
      <path
         inkscape:connector-curvature="0"
         d="m 861.99945,772.15997 c -5.37669,-17.20541 -10.10817,-6.45203 -10.10817,-6.45203 -3.81903,-7.54041 -6.97125,-0.15207 -6.97125,-0.15207 -5.16162,-7.52737 -7.86841,0.79728 -7.86841,0.79728 l 0,58.28078 c 0,0 3.90403,7.33653 8.01008,0.45623 0,0 3.72585,5.39868 7.14755,-2.12906 0,0 2.89261,7.30727 9.4287,-3.49774 0,0 9.42869,0.91245 22.20304,-11.55776 12.77436,-12.47021 50.00244,-31.64391 83.33749,62.65519 33.76082,95.50355 86.37902,59.30953 97.32852,35.58572 l -3.6499,-24.33211 c -8.2121,27.67778 -50.5415,36.2836 -64.44045,-30.29451 -13.04576,-62.49151 -45.68347,-108.74832 -95.83739,-102.39376 -21.79631,2.76161 -27.39631,19.16262 -38.57981,23.03384 z"
         id="path4696"
         style="fill:#cfcfcf;fill-opacity:1;stroke:none;display:inline" />
      <path
         inkscape:connector-curvature="0"
         d="m 801.58336,772.36268 c 5.37671,-17.2054 10.1082,-6.45202 10.1082,-6.45202 3.81902,-7.54041 6.97124,-0.15208 6.97124,-0.15208 5.1616,-7.52736 9.09609,0.57407 9.09609,0.57407 l -0.66964,58.16918 c 0,0 -4.46209,7.67135 -8.56812,0.79104 0,0 -3.72586,5.39869 -7.14756,-2.12906 0,0 -2.89261,7.30728 -9.42868,-3.49774 0,0 -9.42872,0.91246 -22.20305,-11.55775 -12.77435,-12.47021 -50.00244,-31.64391 -83.33748,62.65519 -33.76083,95.50354 -86.37903,59.30953 -97.32848,35.58572 l 3.64984,-24.33212 c 8.21208,27.67778 50.54154,36.28361 64.44046,-30.29451 13.04576,-62.49151 45.68348,-108.74831 95.8374,-102.39376 21.79629,2.76162 27.39629,19.16262 38.57978,23.03384 z"
         id="path4696-2"
         style="fill:#cfcfcf;fill-opacity:1;stroke:none;display:inline" />
      <path
         inkscape:connector-curvature="0"
         d="m 803.26091,791.93383 c 0,0 -8.16647,-0.98626 -23.86638,-15.61085 -15.69994,-14.62459 -44.21483,-2.79588 -63.14076,22.15195 -18.92596,24.94784 -30.53138,63.67506 -33.92534,75.39962 -7.09722,24.5177 -16.70651,27.74333 -23.5499,35.27108 0,0 1.42056,2.70733 -1.37532,13.89084 0,0 3.86076,-3.16989 3.34153,-12.90775 18.09701,-13.99097 9.06737,5.85657 20.61591,-37.3295 16.76253,-62.68386 43.65871,-103.66255 80.22016,-105.38309 20.44773,0.22606 19.78535,13.49773 41.46503,21.72182 z"
         id="path4822-3"
         style="fill:#ffffff;fill-opacity:1;stroke:none;display:inline" />
      <path
         inkscape:connector-curvature="0"
         d="m 803.44181,793.02085 c 0,0 -6.50499,1.63655 -25.67295,-15.61084 -16.87366,-15.18298 -44.82313,-2.79588 -63.74906,22.15195 -18.92596,24.94783 -29.92308,63.67506 -33.31704,75.39962 -7.09722,24.5177 -16.7065,27.74332 -23.5499,35.27107 0,0 1.76394,4.63088 -0.0849,12.8155 0,0 2.14022,-2.84728 1.62098,-12.58515 18.09702,-13.99096 9.49752,6.60932 21.04606,-36.57676 16.76253,-62.68385 43.65871,-103.23241 80.22016,-104.95295 20.44776,0.22606 21.59192,13.7128 43.2716,21.93688 z"
         id="path4822-6-2"
         style="fill:#787878;fill-opacity:1;stroke:none;display:inline" />
      <path
         inkscape:connector-curvature="0"
         d="m 658.52657,868.50868 c -7.26881,-21.72733 54.89493,20.96783 33.1942,22.19333 0,0 4.26446,8.76558 -4.98345,7.69024 0,0 3.59318,9.08503 -5.16163,7.09723 0,0 4.73149,10.53831 -8.17255,6.6671 -12.90407,-3.87122 -40.43269,-26.66838 -23.87249,-28.06632 0,0 -5.23543,-8.57344 4.54249,-8.56896 0,0 -4.26446,-8.27694 4.45343,-7.01262 z"
         id="path4712-2"
         style="fill:#cfcfcf;fill-opacity:1;stroke:none;display:inline" />
      <path
         inkscape:connector-curvature="0"
         d="m 859.50509,927.27932 123.01864,0 c 0,0 27.60277,0.87371 44.05537,-17.83716 18.0093,-20.48114 19.1347,-13.72054 16.984,-7.48358 -2.1507,6.23696 -23.4026,34.13851 -61.46951,34.13851 -38.06696,0 -123.01862,0 -123.01862,0 -5.83536,0.48542 -7.94597,-9.67421 0.43012,-8.81777 z"
         id="path5232-6"
         style="fill:#ffffff;fill-opacity:1;stroke:none;display:inline" />
      <path
         inkscape:connector-curvature="0"
         d="m 798.42433,927.08722 -123.01864,0 c 0,0 -23.47655,-0.11161 -39.92922,-18.82248 -18.00928,-20.48114 -16.7671,-10.56844 -14.61644,-4.33149 2.15069,6.23696 17.13207,32.64141 55.19902,32.64141 38.06698,0 122.79542,-0.66964 122.79542,-0.66964 5.83536,0.48543 7.94594,-9.67424 -0.43014,-8.8178 z"
         id="path5232-8-0"
         style="fill:#ffffff;fill-opacity:1;stroke:none;display:inline" />
      <path
         inkscape:connector-curvature="0"
         d="m 863.50492,928.94419 123.01864,0 c 0,0 25.48544,0 41.93814,-18.71087 18.0093,-20.48114 16.9903,-12.68899 14.8397,-6.45203 -2.1507,6.23696 -19.141,33.98067 -57.20798,33.98067 -38.06696,0 -123.01863,0 -123.01863,0 -5.83536,0.48543 -7.94596,-9.6742 0.43013,-8.81777 z"
         id="path5232"
         style="fill:#bf9f4f;fill-opacity:1;stroke:none;display:inline" />
      <path
         inkscape:connector-curvature="0"
         d="m 802.42415,928.7521 -123.01863,0 c 0,0 -25.48548,0 -41.93815,-18.71088 -18.00928,-20.48114 -16.99032,-12.68898 -14.83966,-6.45202 2.15069,6.23695 19.141,33.98067 57.20795,33.98067 38.06697,0 123.01864,0 123.01864,0 5.83536,0.48543 7.94594,-9.6742 -0.43015,-8.81777 z"
         id="path5232-8"
         style="fill:#bf9f4f;fill-opacity:1;stroke:none;display:inline" />
      <path
         inkscape:connector-curvature="0"
         d="m 661.85333,925.6116 c -8.63966,-2.65081 -20.57849,-8.5066 -31.35401,-23.05026 l 2.05078,-0.29297 c 0,0 10.3598,17.2436 30.12336,22.71235 z m 355.81517,6.8267 c 0,0 21.1275,-8.82266 28.2704,-32.37177 l -1.7808,0.76829 c 0,0 -3.8526,17.40451 -29.545,30.88558 0,0 1.3685,0.46141 3.0554,0.7179 z"
         id="path6000"
         style="fill:#787878;fill-opacity:1;stroke:none;display:inline" />
      <path
         inkscape:connector-curvature="0"
         d="m 860.32192,791.73111 c 0,0 8.16646,-0.98625 23.86638,-15.61084 15.69994,-14.6246 44.21483,-2.79588 63.14076,22.15195 18.92596,24.94783 30.53138,63.67506 33.92535,75.39962 7.09722,24.5177 16.7065,27.74332 23.54989,35.27107 0,0 -1.8151,1.76032 0.9807,12.94383 0,0 -3.4661,-2.22287 -2.9469,-11.96074 -18.09702,-13.99096 -9.06737,5.85658 -20.61591,-37.3295 -16.76254,-62.68385 -43.65871,-103.66254 -80.22017,-105.38309 -20.44772,0.22606 -19.78534,13.49774 -41.46503,21.72182 z"
         id="path4822"
         style="fill:#787878;fill-opacity:1;stroke:none;display:inline" />
      <path
         inkscape:connector-curvature="0"
         d="m 860.14101,792.81814 c 0,0 9.97303,-0.98626 25.67296,-15.61085 15.69994,-14.62459 44.82313,-2.79588 63.74906,22.15195 18.92596,24.94784 29.92308,63.67506 33.31705,75.39962 7.09722,24.5177 16.7065,27.74333 23.54992,35.27108 0,0 -1.1326,1.63199 -0.3097,11.86848 0,0 -2.1402,-2.0581 -1.621,-11.79597 -18.09699,-13.99096 -9.1029,6.76715 -20.65145,-36.41893 -16.76253,-62.68385 -43.6587,-103.23241 -80.22016,-104.95295 -20.44775,0.22606 -21.59191,13.7128 -43.27161,21.93689 z"
         id="path4822-6"
         style="fill:#ffffff;fill-opacity:1;stroke:none;display:inline" />
      <path
         inkscape:connector-curvature="0"
         d="m 1005.0563,868.30596 c 7.2688,-21.72733 -54.89496,20.96784 -33.19424,22.19333 0,0 -4.26446,8.76559 4.98345,7.69025 0,0 -3.59317,9.08502 5.16163,7.09723 0,0 -4.73149,10.53831 8.17255,6.66709 12.90411,-3.87122 40.43271,-26.66837 23.87251,-28.06631 0,0 5.2354,-8.57345 -4.5425,-8.56897 0,0 4.2645,-8.27693 -4.4534,-7.01262 z"
         id="path4712"
         style="fill:#cfcfcf;fill-opacity:1;stroke:none;display:inline" />
      <path
         inkscape:connector-curvature="0"
         d="m 881.71195,786.76708 c 0,0 18.6423,-16.9542 40.75628,-4.25812 -19.92192,-15.96795 -40.75628,4.25812 -40.75628,4.25812 z m -1.97699,9.12454 c 0,0 20.9928,-20.05106 45.47064,-6.2351 -24.4842,-16.88041 -45.47064,6.2351 -45.47064,6.2351 z m -5.47473,11.70983 c 13.2306,-3.64981 18.6347,-21.73154 47.14348,-14.75134 -24.78833,-10.49322 -36.19403,10.18907 -47.14348,14.75134 z"
         id="path5002"
         style="fill:#787878;fill-opacity:1;stroke:none;display:inline" />
      <path
         inkscape:connector-curvature="0"
         d="m 782.9783,787.08001 c 0,0 -18.6423,-16.9542 -40.75628,-4.25812 19.92192,-15.96795 40.75628,4.25812 40.75628,4.25812 z m 1.97699,9.12454 c 0,0 -20.9928,-20.05107 -45.47064,-6.23511 24.4842,-16.8804 45.47064,6.23511 45.47064,6.23511 z m 5.47471,11.70983 c -13.23058,-3.64982 -18.63468,-21.73154 -47.14346,-14.75134 24.78833,-10.49322 36.19403,10.18907 47.14346,14.75134 z"
         id="path5002-6"
         style="fill:#787878;fill-opacity:1;stroke:none;display:inline" />
      <path
         inkscape:connector-curvature="0"
         d="m 1014.6589,884.05312 c 0,0 -20.00022,13.66073 -27.90813,19.59168 -7.90795,5.93095 -3.58104,6.85746 0.0783,3.98006 17.79283,-13.99097 27.82983,-18.24909 27.82983,-23.57174 z m -5.3227,-7.60378 c 0,0 -19.57003,13.44566 -27.47795,19.37661 -7.90794,5.93095 -2.72078,6.10472 0.93851,3.22732 17.79284,-13.99096 26.53944,-17.28128 26.53944,-22.60393 z m -4.7143,-6.84341 c 0,0 -20.64539,13.98332 -28.5533,19.91428 -7.90795,5.93095 -2.93586,6.53486 0.72344,3.65746 17.79288,-13.99097 27.82986,-18.24909 27.82986,-23.57174 z m -4.5152,-6.45678 c 0,0 -19.03235,12.37032 -26.94026,18.30127 -7.90795,5.93095 -2.61323,6.10473 1.04606,3.22732 17.79288,-13.99096 25.8942,-16.20594 25.8942,-21.52859 z"
         id="path5395-79"
         style="fill:#ffffff;fill-opacity:1;stroke:none;display:inline" />
      <path
         inkscape:connector-curvature="0"
         d="m 983.04514,911.57302 c 0,0 33.68956,-17.02587 35.09576,-22.1601 1.4107,-5.15078 -2.0183,-4.11735 -2.9556,-2.69888 -1.1774,1.78188 0.6926,4.24126 -32.14016,24.85898 z m -4.73149,-7.41983 c 0,0 33.68955,-17.1334 35.09575,-22.26763 1.4108,-5.15078 -2.0183,-4.11736 -2.9556,-2.69888 -1.1774,1.78188 0.6926,4.34879 -32.14015,24.96651 z m -5.37668,-7.6349 c 0,0 34.54983,-17.56353 35.95603,-22.69777 1.4107,-5.15078 -2.0183,-4.11735 -2.9556,-2.69887 -1.1774,1.78187 -0.1676,4.77892 -33.00043,25.39664 z m -3.84603,-7.57478 c 0,0 34.01216,-17.24093 35.41836,-22.37516 1.4107,-5.15078 -2.0183,-4.11736 -2.9556,-2.69888 -1.1774,1.78188 0.37,4.45632 -32.46276,25.07404 z"
         id="path5430-9"
         style="fill:#787878;fill-opacity:1;stroke:none;display:inline" />
      <path
         inkscape:connector-curvature="0"
         d="m 680.16177,907.23343 c 0,0 -19.16934,-13.01072 -27.29823,-18.63499 -8.1289,-5.6243 -7.63833,-1.22659 -3.7507,1.33391 18.90313,12.45012 25.9999,18.98568 31.04893,17.30108 z m 5.94724,-7.23753 c 0,0 -22.12341,-14.36623 -30.25231,-19.9905 -8.1289,-5.6243 -6.65202,-0.64879 -2.76438,1.9117 18.90313,12.45012 27.96766,19.7634 33.01669,18.0788 z m 5.16449,-7.33149 c 0,0 -22.35747,-14.77223 -30.48636,-20.3965 -8.12891,-5.6243 -7.12812,-0.71667 -3.24048,1.84382 18.90312,12.45013 28.67781,20.23728 33.72684,18.55268 z m 3.17903,-5.96863 c 0,0 -20.82989,-14.72167 -28.95879,-20.34594 -8.1289,-5.6243 -6.61798,-0.54677 -2.73034,2.01373 18.90312,12.45012 26.64009,20.01681 31.68913,18.33221 z"
         id="path5395-79-8"
         style="fill:#ffffff;fill-opacity:1;stroke:none;display:inline"
         sodipodi:nodetypes="cssccssccssccssc" />
      <path
         inkscape:connector-curvature="0"
         d="m 645.53886,889.25642 c 0,0 26.08506,23.03148 31.39713,22.68554 5.3292,-0.34702 3.23352,-3.25121 1.58685,-3.6744 -2.06854,-0.53162 -2.78199,5.29776 -32.98398,-19.01114 z m 3.64134,-8.10376 c 0,0 28.01537,23.73317 33.32744,23.38723 5.32919,-0.34703 3.23351,-3.25121 1.58684,-3.67441 -2.06853,-0.53161 -4.71229,4.59609 -34.91428,-19.71282 z m 5.00843,-8.32885 c 0,0 28.6835,24.84566 33.99556,24.49972 5.3292,-0.34703 3.23352,-3.25121 1.58685,-3.67441 -2.06853,-0.53161 -5.38042,3.4836 -35.58241,-20.82531 z m 4.73514,-6.60646 c 0,0 27.95282,24.15292 33.26489,23.80699 5.3292,-0.34703 3.23352,-3.25122 1.58685,-3.67441 -2.06853,-0.53161 -4.64976,4.17633 -34.85174,-20.13258 z"
         id="path5430-9-6"
         style="fill:#787878;fill-opacity:1;stroke:none;display:inline"
         sodipodi:nodetypes="cssccssccssccssc" />
      <path
         inkscape:connector-curvature="0"
         d="m 834.66287,890.34249 -30.80357,30.80357 c 0,0 -4.95366,32.611 -10.75723,59.17348 l 37.34216,-28.9254 42.61149,31.48907 c 0,0 -6.4732,-33.61213 -8.70534,-64.86215 z"
         id="path5557-5"
         style="fill:#870000;fill-opacity:1;stroke:none;display:inline" />
      <path
         inkscape:connector-curvature="0"
         d="m 829.74597,890.61938 -30.13393,30.91518 c 0,0 -3.125,31.75224 -8.92857,58.31473 l 37.05357,-30.85937 38.61608,21.20535 c 0,0 -4.68751,-20.08927 -6.91965,-51.33928 z"
         id="path5557-0"
         style="fill:#ffffff;fill-opacity:1;stroke:none;display:inline" />
      <path
         inkscape:connector-curvature="0"
         d="m 832.31293,891.0658 -30.80357,30.80358 c 0,0 -2.90178,29.6875 -8.70535,56.25 l 37.5,-29.24107 40.40178,29.9107 c 0,0 -6.47321,-28.79463 -8.70536,-60.04463 z"
         id="path5557"
         style="fill:#bf9f4f;fill-opacity:1;stroke:none;display:inline" />
      <path
         inkscape:connector-curvature="0"
         d="m 832.10507,989.59325 6.66709,0 c 0,0 9.28968,-151.71792 1.38174,-267.29546 l -7.40363,0 c 0,0 -4.43592,155.61822 -0.6452,267.29546 z"
         id="path4715-7"
         style="fill:#870000;fill-opacity:1;stroke:none;display:inline" />
      <path
         inkscape:connector-curvature="0"
         d="m 840.59259,827.73648 c 0,0 1.46607,0.39482 2.76991,-0.53266 0,0 0.53495,-32.75003 -1.08569,-64.37915 0,0 -1.13106,-0.74137 -2.68984,0.14257 0,0 1.85916,48.71024 1.00562,64.76924 z"
         id="path4801"
         style="fill:#787878;fill-opacity:1;stroke:none;display:inline" />
      <path
         inkscape:connector-curvature="0"
         d="m 796.69398,745.32053 c 0,0 18.77593,0.59245 29.22015,-12.15077 7.6661,-9.35358 13.21455,-5.86069 17.74515,-1.09062 6.68582,7.0392 15.2305,15.24894 30.94963,12.22904 0,0 -24.18937,-20.90923 -39.45917,-60.26659 0,0 -8.08992,36.74593 -38.45576,61.27894 z"
         id="path4739-1"
         style="fill:#870000;fill-opacity:1;stroke:none;display:inline" />
      <path
         inkscape:connector-curvature="0"
         d="m 826.61833,988.49796 6.69559,0.01 c 0,0 9.26116,-151.94603 1.35324,-267.52357 l -7.40364,0 c 0,0 -4.43591,155.83682 -0.64519,267.51406 z"
         id="path4715-5"
         style="fill:#ffffff;fill-opacity:1;stroke:none;display:inline" />
      <path
         inkscape:connector-curvature="0"
         d="m 830.16946,988.51789 6.66709,0 c 0,0 9.28968,-151.71788 1.38174,-267.29542 l -7.40363,0 c 0,0 -4.43592,155.61821 -0.6452,267.29542 z"
         id="path4715"
         style="fill:#cfcfcf;fill-opacity:1;stroke:none;display:inline" />
      <path
         inkscape:connector-curvature="0"
         d="m 834.87263,984.61757 c 0,0 7.52774,-140.44882 2.66132,-254.80975 0,0 1.21779,-0.33412 1.67283,-0.82949 0,0 -7.201,-5.27503 -12.88698,0.31236 0,0 3.00206,1.36659 8.93302,0.91036 0,0 2.38737,132.87427 -0.38019,254.41652 z"
         id="path4736"
         style="fill:#787878;fill-opacity:1;stroke:none;display:inline" />
      <path
         inkscape:connector-curvature="0"
         d="m 790.2952,745.4402 c 0,0 19.12542,0.56557 29.56964,-12.17766 7.66609,-9.35357 15.19153,-10.1188 19.72213,-5.34874 6.68582,7.0392 12.34106,16.31348 28.06021,13.29358 0,0 -19.62712,-17.8297 -34.89691,-57.18706 0,0 -12.08922,36.88687 -42.45507,61.41988 z"
         id="path4739-2"
         style="fill:#ffffff;fill-opacity:1;stroke:none;display:inline" />
      <path
         inkscape:connector-curvature="0"
         d="m 794.2945,745.26123 c 0,0 18.77594,0.59245 29.22015,-12.15077 7.6661,-9.35358 13.21455,-5.86069 17.74515,-1.09062 6.68582,7.0392 15.2305,15.24894 30.94965,12.22904 0,0 -24.18939,-20.90923 -39.45918,-60.26659 0,0 -8.08992,36.74593 -38.45577,61.27894 z"
         id="path4739"
         style="fill:#bf9f4f;fill-opacity:1;stroke:none;display:inline" />
      <path
         inkscape:connector-curvature="0"
         d="m 827.12666,727.70838 c 0,0 1.51918,-1.57556 3.41322,-1.73339 0,0 1.03957,-18.73954 1.67092,-36.73288 -2.84106,24.93814 -5.08414,38.46627 -5.08414,38.46627 z"
         id="path5532"
         style="fill:#ffffff;fill-opacity:1;stroke:none;display:inline" />
      <path
         inkscape:connector-curvature="0"
         d="m 840.33937,727.28067 c 0,0 -3.55132,-14.67878 -6.70804,-37.56505 1.87024,39.64593 6.70804,37.56505 6.70804,37.56505 z"
         id="path5534"
         style="fill:#870000;fill-opacity:1;stroke:none;display:inline" />
      <path
         inkscape:connector-curvature="0"
         d="m 823.05629,907.05626 c 0,0 -10.57503,8.52316 -19.41387,16.57281 0,0 11.52205,-5.6821 19.41387,-16.57281 z m -0.15783,10.10152 c 0,0 -9.15451,6.9448 -19.88738,16.09931 0,0 13.25825,-6.47129 19.88738,-16.09931 z m -0.63135,12.1534 c 0,0 -11.20638,8.04966 -22.09709,17.83551 0,0 15.94147,-8.99668 22.09709,-17.83551 z m 0,12.78475 c 0,0 -12.78474,9.62801 -25.88516,21.62357 0,0 16.41498,-9.78585 25.88516,-21.62357 z"
         id="path5889"
         style="fill:#ffff00;stroke:none;display:inline" />
      <path
         inkscape:connector-curvature="0"
         d="m 840.57613,906.42491 c 0,0 10.57503,8.2075 20.36088,18.30902 0,0 -12.6269,-6.47129 -20.36088,-18.30902 z m 21.62357,30.14675 c 0,0 -10.10152,-11.67989 -21.46574,-20.20306 0,0 11.83773,14.52095 21.46574,20.20306 z m 1.26269,12.6269 c 0,0 -9.78585,-12.46907 -23.20194,-22.09709 0,0 12.31124,14.20527 23.20194,22.09709 z m 1.89404,14.52094 c 0,0 -13.8896,-16.41497 -25.41165,-24.30679 0,0 11.83772,14.36311 25.41165,24.30679 z"
         id="path5891"
         style="fill:#870000;fill-opacity:1;stroke:none;display:inline" />
    </g>
    <g
       transform="translate(-580.30401,-204.77504)"
       id="layer19"
       style="display:inline">
      <path
         inkscape:connector-curvature="0"
         d="m 855.44796,764.49229 c -0.0502,0.007 -0.10513,0.0215 -0.15996,0.0471 -1.75478,0.81802 -0.66506,20.7191 -1.64661,45.15477 -0.28983,7.21531 1.75952,11.17813 1.75952,11.17813 1.75478,-0.65441 1.8294,-18.99817 1.97991,-35.70488 0.10754,-11.93606 -0.37581,-20.89954 -1.93286,-20.67507 z m -41.99328,0.207 c -0.0723,0.007 -0.14691,0.0212 -0.22582,0.0471 -2.52539,0.82763 -0.94912,20.95889 -2.36171,45.68169 -0.41711,7.30009 2.52166,11.92146 2.52166,11.92146 2.52538,-0.66211 1.05364,-20.31038 1.27024,-37.2134 0.15476,-12.07633 1.03645,-20.6639 -1.20437,-20.4368 z m 7.3674,0.11291 c -0.0723,0.007 -0.1469,0.0215 -0.22582,0.0471 -2.52538,0.81802 -0.94911,20.7191 -2.36171,45.15477 -0.41711,7.21531 2.52167,11.78033 2.52167,11.78033 2.52538,-0.65442 1.05363,-20.07388 1.27024,-36.78058 0.15476,-11.93607 1.03645,-20.42604 -1.20438,-20.20157 z m 27.41842,0.27287 c -0.042,0.007 -0.0859,0.0215 -0.13172,0.0471 -1.46581,0.81802 -0.55384,20.7191 -1.37375,45.15477 -0.2421,7.21531 1.38892,10.78354 1.38892,10.78354 1.4658,-0.65441 0.68711,-19.07709 0.81284,-35.7838 0.0898,-11.93606 0.60436,-20.42603 -0.69629,-20.20156 z m -43.42347,0.83742 c -0.0723,0.007 -0.14691,0.0217 -0.22582,0.0471 -2.52539,0.81161 -0.95853,20.55297 -2.37112,44.79722 -0.41711,7.15878 2.53107,11.68623 2.53107,11.68623 2.52538,-0.64929 1.05364,-19.91306 1.27024,-36.48889 0.15476,-11.84256 1.03645,-20.26432 -1.20437,-20.04161 z"
         id="path6201-6"
         style="fill:#ffffff;fill-opacity:1;stroke:none" />
      <path
         inkscape:connector-curvature="0"
         d="m 849.85346,764.7341 c 0,0 2.01514,5.26726 2.40255,25.9426 0.35398,18.89085 0.27141,34.76767 -4.66178,34.71278 -3.44203,-0.0383 -0.51766,-2.61784 0.74503,-4.03837 2.99112,-4.75926 2.4923,-39.21182 1.5142,-56.61701 z m -5.58069,1.21647 c 0,0 3.72269,55.36225 0.88164,58.20331 -2.84106,2.84105 -4.03044,-2.35962 -2.92558,-2.83313 1.10485,-0.4735 2.15787,-1.4037 2.14433,-6.19063 -0.0175,-6.17377 -0.10039,-49.17955 -0.10039,-49.17955 z m -19.54773,0.62366 c 0,0 1.89404,55.71623 -0.94702,58.55728 -2.84105,2.84106 -4.25365,-1.46675 -3.14879,-1.94026 1.10485,-0.47351 1.97295,-3.32018 1.7362,-7.66067 -0.33626,-6.16464 2.35961,-48.95635 2.35961,-48.95635 z m -7.26047,-0.15783 c 0,0 2.20971,54.7692 -0.63134,57.61026 -2.84106,2.84105 -4.25365,-1.46676 -3.1488,-1.94027 1.10486,-0.47351 1.97296,-3.32017 1.7362,-7.66067 -0.33626,-6.16464 2.04394,-48.00932 2.04394,-48.00932 z m -7.5087,0.008 c 0,0 2.20971,53.98003 -0.63134,56.82108 -2.84106,2.84106 -4.25365,-1.46675 -3.1488,-1.94026 1.10486,-0.47351 1.97296,-3.32017 1.7362,-7.66067 -0.33625,-6.16464 2.04394,-47.22015 2.04394,-47.22015 z"
         id="path6315"
         style="fill:#787878;fill-opacity:1;stroke:none" />
      <path
         inkscape:connector-curvature="0"
         d="m 857.08972,765.06134 c 3.33061,10.26979 8.58628,53.02854 -1.83482,58.81516 -3.31456,0.39459 0.75033,-2.12814 2.23887,-7.10264 1.86393,-6.22901 3.16369,-20.92286 -0.40405,-51.71252 z"
         id="path6318"
         style="fill:#787878;fill-opacity:1;stroke:none" />
    </g>
  </g>
</svg>
