<?xml version="1.0" encoding="UTF-8"?>
<!DOCTYPE svg PUBLIC "-//W3C//DTD SVG 1.1//EN" "http://www.w3.org/Graphics/SVG/1.1/DTD/svg11.dtd">
<!-- Creator: CorelDRAW -->
<svg xmlns="http://www.w3.org/2000/svg" xml:space="preserve" width="500px" height="572px" shape-rendering="geometricPrecision" text-rendering="geometricPrecision" image-rendering="optimizeQuality" fill-rule="evenodd" clip-rule="evenodd"
viewBox="0 0 500 572"
 xmlns:xlink="http://www.w3.org/1999/xlink"
 xmlns:svg="http://www.w3.org/2000/svg"
 version="1.0">
 <g id="Layer_x0020_1">
  <metadata id="CorelCorpID_0Corel-Layer"/>
  <path id="path1937" fill="#CCCCCC" stroke="black" stroke-width="2.83465" d="M1.55877 1.78044l496.913 0.000283465 0 335.462c-0.000283465,133.646 -123.45,232.082 -248.457,232.823 -125.007,0.74041 -248.458,-96.2079 -248.457,-230.823l0.000566929 -337.463z"/>
  <path fill="white" stroke="white" stroke-width="2.83465" d="M70.2805 68.3105c56.9469,52.4228 118.703,70.225 124.659,-18.8028l55.2033 -28.7487c17.7883,9.54993 33.0812,19.1001 50.8697,28.6503 -0.318898,69.3448 50.1066,89.1927 130.064,33.3408l25.4801 51.1691c-36.5647,15.5738 -62.3917,52.0002 -61.9611,88.8585 0.347244,29.715 4.11903,49.0476 2.12769,73.2303 -2.12117,25.7616 -6.23367,41.3396 -5.18145,68.9049 1.05222,27.5652 20.2921,55.9466 47.0285,75.6726l-33.6977 43.96c-59.9928,-54.2033 -138.902,-37.4964 -150.667,26.1669l-12.9682 3.07644c-11.9517,-62.6528 -71.303,-77.4984 -148.631,-36.7314l-35.604 -45.9088c17.8654,-13.0005 47.9257,-29.7227 48.3217,-69.6022 0.168095,-16.9302 -10.0244,-62.6587 -10.0236,-82.3264 0.00113386,-21.8483 5.37081,-34.7559 5.53096,-56.6691 0.371906,-50.8414 -45.4014,-75.1593 -66.7007,-94.2495l36.1505 -59.9911z"/>
  <path fill="black" stroke="black" stroke-width="1.98425" d="M70.7386 79.399c52.3114,52.7797 121.2,62.0235 128.582,-24.1518l49.8544 -26.6091c17.7883,9.54993 43.7791,19.1001 61.5677,28.6503 1.82069,71.4844 50.1066,84.9136 130.064,29.0617l28.6895 52.2389c-36.5647,15.5738 -66.6703,45.5823 -66.2403,82.4398 0.346394,29.7145 4.83166,49.0485 2.84145,73.2303 -2.12032,25.7604 -6.94744,46.6886 -8.03481,76.3935 -1.08737,29.7048 10.6639,59.334 40.6097,75.8506l-30.4883 50.0227c-59.993,-58.3793 -135.693,-47.3128 -147.457,18.8564l-15.1078 -1.20274c-11.9517,-62.6528 -75.7602,-67.1565 -153.089,-26.3894l-33.2864 -48.7622c17.8654,-13.0005 54.3442,-29.7227 54.7404,-69.6022 0.168095,-16.9305 -13.2338,-63.7288 -13.233,-83.3962 0.000850394,-21.8483 4.72337,-35.8404 5.53096,-57.7389 1.44142,-39.0733 -40.7662,-71.9499 -66.3446,-96.3891l30.8016 -52.5025z"/>
  <path fill="#F00000" stroke="#F00000" stroke-width="1.98425" d="M72.8107 75.1198c52.3114,52.7797 118.346,64.1631 125.729,-22.0122l55.2033 -28.7487c17.7883,9.54993 33.0812,19.1001 50.8697,28.6503 -0.318898,69.3448 50.1066,89.1927 130.064,33.3408l25.4801 51.1691c-36.5647,15.5738 -62.3917,52.0002 -61.9611,88.8585 0.347244,29.715 4.11903,49.0476 2.12769,73.2303 -2.12117,25.7616 -6.23367,41.3396 -5.18145,68.9049 1.05222,27.5652 11.7337,55.9466 38.4701,75.6726l-25.1394 43.96c-59.9928,-54.2033 -138.902,-41.7756 -150.667,21.8877l-14.038 -0.132945c-11.9517,-62.6528 -70.2332,-70.0098 -147.562,-29.2428l-32.3946 -45.9088c17.8654,-13.0005 46.8553,-29.7224 47.2519,-69.6022 0.168378,-16.9308 -11.0945,-62.6585 -11.0934,-82.3264 0.00141732,-21.8486 4.30073,-34.7556 4.46117,-56.6691 0.372189,-50.8417 -41.1222,-79.4384 -62.4215,-98.5286l30.8016 -52.5025z"/>
  <polygon fill="white" stroke="white" stroke-width="1.41732" points="269.588,414.664 269.588,379.117 340.595,317.384 340.993,289.939 316.053,290.336 269.588,328.604 269.588,268.112 345.203,203.44 346.294,181.117 323.764,179.751 269.588,221.964 269.588,141.866 249.262,123.68 229.106,142.178 229.106,222.276 174.929,180.063 152.4,181.429 153.49,203.752 229.106,268.424 229.106,328.915 182.641,290.648 157.701,290.251 158.099,317.696 229.106,379.429 229.106,414.976 239.75,422.491 242.824,442.7 252.819,442.613 254.561,422.458 "/>
  <polygon fill="black" stroke="black" stroke-width="1.41732" points="277.044,421.343 277.044,385.795 347.739,324.374 348.137,297.553 322.574,297.639 276.732,335.594 276.732,275.414 352.348,210.119 353.438,188.419 330.285,187.053 276.732,228.643 276.732,149.792 255.783,130.982 235.627,149.48 235.627,229.578 181.45,187.365 158.921,188.731 160.011,211.678 235.627,276.35 235.627,336.217 189.162,297.95 164.222,297.553 164.62,325.621 235.627,387.355 235.627,419.069 246.271,426.583 249.345,450.002 259.34,449.915 261.082,429.76 "/>
  <polygon fill="#BF9F4F" stroke="#BF9F4F" stroke-width="1.98425" points="274.648,417.585 274.648,382.038 345.655,320.305 346.053,292.86 321.113,293.257 274.648,331.524 274.648,271.033 350.264,206.361 351.354,184.038 328.825,182.672 274.648,224.885 274.648,144.787 254.322,126.6 234.166,145.099 234.166,225.197 179.99,182.984 157.461,184.35 158.551,206.673 234.166,271.345 234.166,331.836 187.701,293.569 162.761,293.172 163.159,320.616 234.166,382.35 234.166,417.897 244.811,425.412 247.885,445.621 257.879,445.534 259.621,425.379 "/>
 </g>
</svg>
