<?xml version="1.0" encoding="UTF-8"?>
<!DOCTYPE svg PUBLIC "-//W3C//DTD SVG 1.1//EN" "http://www.w3.org/Graphics/SVG/1.1/DTD/svg11.dtd">
<!-- Creator: CorelDRAW -->
<svg xmlns="http://www.w3.org/2000/svg" xml:space="preserve" width="500px" height="544px" shape-rendering="geometricPrecision" text-rendering="geometricPrecision" image-rendering="optimizeQuality" fill-rule="evenodd" clip-rule="evenodd"
viewBox="0 0 500 544"
 xmlns:xlink="http://www.w3.org/1999/xlink"
 xmlns:svg="http://www.w3.org/2000/svg"
 version="1.0">
 <g id="Layer_x0020_1">
  <metadata id="CorelCorpID_0Corel-Layer"/>
  <path id="path1937" fill="#BF9F4F" stroke="black" stroke-width="0.510236" d="M0.325701 -0.0541418l499.847 -0.117071c-9.50372,116.654 -16.052,347.453 -18.6089,355.193 -23.6874,116.436 -102.798,183.624 -219.517,188.184 -142.58,-3.3154 -215.657,-72.0632 -242.95,-191.162 -3.96964,-8.5989 -5.48362,-232.698 -18.7707,-352.098z"/>
  <path id="path1937_0" fill="#0581ED" d="M0.325701 -0.0541418l56.8511 -0.0130394 405.27 415.444c-10.6095,23.5528 -24.2615,44.0819 -40.7033,61.3979l-416.959 -427.771c-1.32038,-17.572 -2.79808,-34.1328 -4.4589,-49.0578z"/>
  <g id="_46799928">
   <path id="_46688368" fill="#0581ED" stroke="#0581ED" stroke-width="0.992126" d="M226.884 27.3654c14.47,12.308 29.7873,5.44876 37.2113,15.2221 52.2465,64.4624 138.886,130.617 211.993,196.771 -31.409,-15.4029 -62.8178,-31.9334 -93.0989,-50.7192 16.9376,29.3103 63.7572,77.7901 89.716,120.068 -56.7088,-49.2151 -107.779,-97.3024 -160.541,-148.209 2.88425,-2.05228 5.76879,-2.13222 8.65333,-2.7754 -4.38463,-1.42951 -8.76926,-1.44992 -14.8445,-0.0615118 -8.56687,1.47855 40.0643,37.6143 42.7683,62.7614l-39.0801 -38.1966 35.6332 38.5966c6.06019,9.11027 14.0927,20.1929 13.9541,30.4302l-36.9343 -34.511c0.961229,9.27808 74.882,72.3932 66.3832,102.114 -114.492,-132.464 -192.637,-166.31 -165.683,-220.161 8.52152,-9.83849 36.4847,25.9688 46.4151,22.8926 6.7252,-1.50293 10.633,-3.5691 10.878,-7.88939 -3.37125,1.59704 -5.05162,4.32114 -9.83141,1.97376 -11.9928,-16.6564 -37.7997,-48.2448 -43.5923,-88.3066z"/>
   <path id="_46170920" fill="#0581ED" stroke="#0581ED" stroke-width="0.992126" d="M298.745 23.8184c32.6755,-9.64149 60.7964,26.4339 72.5004,40.7033 24.1523,23.7342 81.0434,75.0314 108.674,106.941 -18.5964,3.0994 -80.3027,-63.1151 -90.4462,-67.6233 12.8033,19.7651 41.3856,40.9391 61.2332,61.8313 -16.9421,4.25282 -53.0442,-32.9137 -78.721,-53.1743 10.3615,17.3659 29.4577,30.2236 37.8468,42.7998 -22.9408,-10.3901 -52.9257,-42.194 -67.1318,-41.3133l-33.2555 -31.2727c-2.38536,-8.5544 0.583087,-15.9817 -3.49257,-18.9006 -20.717,-14.8331 -16.9206,-34.738 -7.20709,-39.9912z"/>
   <ellipse id="_46690792" fill="#BF9F4F" stroke="#BF9F4F" stroke-width="0.992126" transform="matrix(0.790986 0.555685 -0.423025 0.602153 248.45 48.7733)" rx="4.22646" ry="3.66293"/>
  </g>
  <path fill="#0581ED" stroke="#0581ED" stroke-width="0.992126" d="M57.4852 242.685c14.47,12.308 29.7873,5.44876 37.2113,15.2221 52.2465,64.4624 155.29,149.072 240.702,211.125 -31.409,-15.4029 -91.5259,-46.2875 -121.807,-65.0733 16.9376,29.3103 63.7572,77.7901 89.716,120.068 -56.7088,-49.2151 -107.779,-97.3024 -160.541,-148.209 2.88425,-2.05228 5.76879,-2.13222 8.65333,-2.7754 -4.38463,-1.42951 -8.76926,-1.44992 -14.8445,-0.0615118 -8.56687,1.47855 40.0643,37.6143 42.7683,62.7614l-39.0801 -38.1966 35.6332 38.5966c6.06019,9.11027 21.2698,28.3952 21.1312,38.6326l-44.1114 -42.7133c0.961229,9.27808 68.7303,68.292 60.2314,98.0127 -114.492,-132.464 -186.485,-162.208 -159.531,-216.06 8.52152,-9.83849 36.4847,25.9688 46.4151,22.8926 6.7252,-1.50293 10.633,-3.5691 10.878,-7.88939 -3.37125,1.59704 -5.05162,4.32114 -9.83141,1.97376 -11.9928,-16.6564 -39.8503,-48.2448 -43.5923,-88.3066z"/>
  <path fill="#0581ED" stroke="#0581ED" stroke-width="0.992126" d="M129.347 239.138c37.802,-10.6668 64.8975,26.4339 76.6015,40.7033 24.1523,23.7342 93.3469,93.4867 120.977,125.396 -21.6723,5.14999 -96.7074,-81.5704 -106.851,-86.0786 12.8033,19.7651 39.335,41.9644 59.1826,62.8566 -16.9421,4.25282 -50.9936,-33.9389 -76.6704,-54.1996 10.3615,17.3659 29.4577,30.2236 37.8468,42.7998 -22.9408,-10.3901 -52.9257,-42.194 -67.1318,-41.3133l-33.2555 -31.2727c-2.38536,-8.5544 0.583087,-15.9817 -3.49257,-18.9006 -20.717,-14.8331 -16.9206,-34.738 -7.20709,-39.9912z"/>
  <ellipse fill="#BF9F4F" stroke="#BF9F4F" stroke-width="0.992126" transform="matrix(0.790986 0.555685 -0.423025 0.602153 79.0518 264.093)" rx="4.22646" ry="3.66293"/>
 </g>
</svg>
