<?xml version="1.0" encoding="UTF-8" standalone="no"?>
<!-- Created with Inkscape (http://www.inkscape.org/) -->
<svg
   xmlns:dc="http://purl.org/dc/elements/1.1/"
   xmlns:cc="http://web.resource.org/cc/"
   xmlns:rdf="http://www.w3.org/1999/02/22-rdf-syntax-ns#"
   xmlns:svg="http://www.w3.org/2000/svg"
   xmlns="http://www.w3.org/2000/svg"
   xmlns:sodipodi="http://inkscape.sourceforge.net/DTD/sodipodi-0.dtd"
   xmlns:inkscape="http://www.inkscape.org/namespaces/inkscape"
   id="svg1333"
   sodipodi:version="0.32"
   inkscape:version="0.43"
   width="500"
   height="580"
   sodipodi:docbase="I:\Wikipedia\Suomi\Vaakunat"
   sodipodi:docname="Jarvenpaa.vaakuna.svg"
   version="1.0">
  <metadata
     id="metadata1338">
    <rdf:RDF>
      <cc:Work
         rdf:about="">
        <dc:format>image/svg+xml</dc:format>
        <dc:type
           rdf:resource="http://purl.org/dc/dcmitype/StillImage" />
      </cc:Work>
    </rdf:RDF>
  </metadata>
  <defs
     id="defs1336" />
  <sodipodi:namedview
     inkscape:window-height="938"
     inkscape:window-width="1280"
     inkscape:pageshadow="2"
     inkscape:pageopacity="0.0"
     borderopacity="1.0"
     bordercolor="#666666"
     pagecolor="#ffffff"
     id="base"
     showgrid="true"
     inkscape:grid-points="true"
     gridspacingx="2px"
     gridspacingy="2px"
     gridtolerance="1px"
     inkscape:zoom="0.70888141"
     inkscape:cx="437.79185"
     inkscape:cy="170.78978"
     inkscape:window-x="-4"
     inkscape:window-y="-4"
     inkscape:current-layer="layer1" />
  <g
     inkscape:groupmode="layer"
     id="layer1"
     inkscape:label="Layer 1">
    <path
       style="fill:#2a4ec9;fill-opacity:1;fill-rule:evenodd;stroke:#000000;stroke-width:1.0101198;stroke-linecap:butt;stroke-linejoin:miter;stroke-miterlimit:4;stroke-dasharray:none;stroke-opacity:1"
       d="M 0.0012356822,3.0838663 L 0.0012356822,344.5039 C 0.0012356822,344.5039 22.223901,578.85138 248.49103,579.34345 C 474.7716,579.83555 499.00108,334.40271 499.00108,334.40271 L 499.00108,3.0838663 L 0.0012356822,3.0838663 z "
       id="path1391"
       sodipodi:nodetypes="cczccc" />
    <path
       style="fill:#828691;fill-opacity:1;fill-rule:evenodd;stroke:#000000;stroke-width:2.02023959;stroke-linecap:butt;stroke-linejoin:miter;stroke-miterlimit:4;stroke-dasharray:none;stroke-opacity:1"
       d="M 128.28661,327.82469 C 128.28661,327.82469 116.16516,333.8854 112.12467,354.08777 C 108.08419,374.29014 120.18789,382.37109 120.18789,382.37109 C 120.20564,352.06753 136.36758,348.02706 136.36758,348.02706 L 128.28661,327.82469 z "
       id="path8676"
       sodipodi:nodetypes="csccc" />
    <path
       style="fill:#a1a8b7;fill-opacity:1;fill-rule:evenodd;stroke:#000000;stroke-width:2.02023959;stroke-linecap:butt;stroke-linejoin:miter;stroke-miterlimit:4;stroke-dasharray:none;stroke-opacity:1"
       d="M 122.22588,323.78422 C 122.22588,323.78422 97.98299,335.90564 77.780564,331.86516 C 56.352659,327.57959 51.517414,313.68303 51.517414,313.68303 C 91.92226,325.80445 116.16516,311.66279 116.16516,311.66279 L 122.22588,323.78422 z "
       id="path8672"
       sodipodi:nodetypes="csccc" />
    <path
       style="fill:#a1a8b7;fill-opacity:1;fill-rule:evenodd;stroke:#000000;stroke-width:2.02023959;stroke-linecap:butt;stroke-linejoin:miter;stroke-miterlimit:4;stroke-dasharray:none;stroke-opacity:1"
       d="M 122.41843,312.48384 C 122.41843,312.48384 103.80805,321.8593 93.942502,339.94611 C 81.821048,362.16872 95.962745,376.31038 95.962745,376.31038 C 97.98299,339.94611 129.29673,324.16075 129.29673,324.16075 L 122.41843,312.48384 z "
       id="path8674"
       sodipodi:nodetypes="csccc" />
    <path
       style="fill:#a1a8b7;fill-opacity:1;fill-rule:evenodd;stroke:#000000;stroke-width:2.02023959;stroke-linecap:butt;stroke-linejoin:miter;stroke-miterlimit:4;stroke-dasharray:none;stroke-opacity:1"
       d="M 108.08419,305.60208 C 108.08419,305.60208 72.404271,311.44567 45.456687,293.48066 C 27.274506,281.35924 30.360988,264.18723 30.360988,264.18723 C 71.719837,291.46043 102.02346,281.35924 102.02346,281.35924 L 108.08419,305.60208 z "
       id="path8670"
       sodipodi:nodetypes="csccc" />
    <path
       style="fill:#a1a8b7;fill-opacity:1;fill-rule:evenodd;stroke:#000000;stroke-width:2.02023959;stroke-linecap:butt;stroke-linejoin:miter;stroke-miterlimit:4;stroke-dasharray:none;stroke-opacity:1"
       d="M 95.962745,273.27829 C 95.962745,273.27829 66.706171,273.30785 41.416202,253.07592 C 21.213779,236.91403 23.234021,210.65095 23.234021,210.65095 C 59.598383,249.03545 95.962745,251.05569 95.962745,251.05569 L 95.962745,273.27829 z "
       id="path8668"
       sodipodi:nodetypes="csccc" />
    <path
       style="fill:#a1a8b7;fill-opacity:1;fill-rule:evenodd;stroke:#000000;stroke-width:2.02023959;stroke-linecap:butt;stroke-linejoin:miter;stroke-miterlimit:4;stroke-dasharray:none;stroke-opacity:1"
       d="M 97.98299,196.50929 C 97.98299,196.50929 51.107601,153.6506 45.456687,121.76052 C 36.989487,73.977172 62.845295,57.01012 62.845295,57.01012 C 57.578141,115.69981 114.14492,166.20574 114.14492,166.20574 L 97.98299,196.50929 z "
       id="path8664"
       sodipodi:nodetypes="csccc" />
    <path
       style="fill:#a1a8b7;fill-opacity:1;fill-rule:evenodd;stroke:#000000;stroke-width:2.02023959;stroke-linecap:butt;stroke-linejoin:miter;stroke-miterlimit:4;stroke-dasharray:none;stroke-opacity:1"
       d="M 140.40807,107.61887 C 140.40807,107.61887 131.25728,81.718784 132.3271,57.112948 C 134.34734,10.647499 164.65097,10.647499 164.65097,10.647499 C 155.38879,59.095697 172.73194,109.6391 172.73194,109.6391 L 140.40807,107.61887 z "
       id="path7787"
       sodipodi:nodetypes="csccc" />
    <path
       style="fill:#a1a8b7;fill-opacity:1;fill-rule:evenodd;stroke:#000000;stroke-width:2.02023959;stroke-linecap:butt;stroke-linejoin:miter;stroke-miterlimit:4;stroke-dasharray:none;stroke-opacity:1"
       d="M 112.12467,152.06408 C 112.12467,152.06408 84.513247,99.572921 85.861533,67.214133 C 87.881775,18.728447 118.1854,14.687973 118.1854,14.687973 C 104.0437,91.456976 138.38782,123.78076 138.38782,123.78076 L 112.12467,152.06408 z "
       id="path8662"
       sodipodi:nodetypes="csccc" />
    <path
       style="fill:#a1a8b7;fill-opacity:1;fill-rule:evenodd;stroke:#000000;stroke-width:2.02023959;stroke-linecap:butt;stroke-linejoin:miter;stroke-miterlimit:4;stroke-dasharray:none;stroke-opacity:1"
       d="M 89.902018,238.93427 C 89.902018,238.93427 62.296999,225.47098 39.39596,202.57 C 21.213779,184.38787 28.71199,147.17985 28.71199,147.17985 C 55.557898,196.50929 100.00322,208.63071 100.00322,208.63071 L 89.902018,238.93427 z "
       id="path8666"
       sodipodi:nodetypes="csccc" />
    <path
       style="fill:#a1a8b7;fill-opacity:1;fill-rule:evenodd;stroke:#000000;stroke-width:2.02023959;stroke-linecap:butt;stroke-linejoin:miter;stroke-miterlimit:4;stroke-dasharray:none;stroke-opacity:1"
       d="M 158.59025,297.52114 C 158.59025,297.52114 128.28661,277.31877 128.28661,230.85332 C 128.28661,180.34739 148.48903,164.1855 156.57,164.1855 C 164.65097,164.1855 172.73194,172.26646 176.77243,170.24621 C 185.35846,161.15514 188.89388,149.08308 188.89388,125.801 C 188.89388,103.57839 176.77243,103.57839 182.83315,77.315317 C 162.63073,77.315317 158.59025,107.61887 158.59025,107.61887 C 143.45015,105.83768 136.36758,89.436739 136.36758,89.436739 C 112.49965,95.136527 124.24613,131.86171 124.24613,131.86171 C 113.73712,137.73962 91.92226,123.78076 91.92226,123.78076 C 80.700773,150.67664 100.00322,178.32716 100.00322,178.32716 C 86.288078,181.35517 67.679352,176.30692 67.679352,176.30692 C 67.679352,202.57 89.902018,220.75213 89.902018,220.75213 C 87.230235,227.52063 65.65911,228.83308 65.65911,228.83308 C 69.755843,253.59154 91.92226,259.13663 91.92226,259.13663 C 88.003646,265.72701 65.65911,269.23782 65.65911,269.23782 C 73.31822,291.32449 100.00322,289.44019 100.00322,289.44019 C 99.46888,298.16799 75.760322,307.62232 75.760322,307.62232 C 88.228641,316.172 106.06395,311.66279 106.06395,311.66279 C 108.91385,317.5407 97.98299,329.84493 97.98299,329.84493 C 105.64209,332.69482 118.1854,325.80445 118.1854,325.80445 C 118.1854,325.80445 109.59937,339.94611 112.12467,341.96635 C 114.64998,343.98658 128.28661,333.8854 128.28661,333.8854 C 128.28661,333.8854 126.04515,349.93669 130.30685,352.06753 C 134.34734,354.08777 144.44855,343.98658 144.44855,343.98658 L 158.59025,297.52114 z "
       id="path6912"
       sodipodi:nodetypes="czscsccccccccccccccccscscc" />
    <path
       style="fill:#a1a8b7;fill-opacity:1;fill-rule:evenodd;stroke:#000000;stroke-width:2.02023959;stroke-linecap:butt;stroke-linejoin:miter;stroke-miterlimit:4;stroke-dasharray:none;stroke-opacity:1"
       d="M 162.63073,535.90909 L 336.37157,535.90909 L 336.37157,509.64601 L 162.63073,509.64601 L 162.63073,535.90909 z M 188.89388,509.64601 C 188.89388,509.64601 194.95461,487.42341 194.95461,475.30198 L 304.04769,475.30198 C 304.04769,487.42341 310.10842,509.64601 310.10842,509.64601 L 188.89388,509.64601 z "
       id="path2521"
       sodipodi:nodetypes="cccccccccc" />
    <rect
       style="opacity:1;color:#000000;fill:#a1a8b7;fill-opacity:1;fill-rule:evenodd;stroke:#000000;stroke-width:2.02023959;stroke-linecap:round;stroke-linejoin:round;marker:none;marker-start:none;marker-mid:none;marker-end:none;stroke-miterlimit:4;stroke-dasharray:none;stroke-dashoffset:0;stroke-opacity:1;visibility:visible;display:inline;overflow:visible"
       id="rect6902"
       width="6.0607271"
       height="252.52962"
       x="205.05583"
       y="141.96291"
       rx="0.092806101"
       ry="0.092806101" />
    <path
       sodipodi:nodetypes="csccc"
       id="path8678"
       d="M 355.88092,108.73181 C 355.88092,108.73181 365.03171,82.831731 363.96189,58.225895 C 361.94165,11.760445 331.63801,11.760445 331.63801,11.760445 C 340.9002,60.208643 323.55704,110.75205 323.55704,110.75205 L 355.88092,108.73181 z "
       style="fill:#a1a8b7;fill-opacity:1;fill-rule:evenodd;stroke:#000000;stroke-width:2.02023959;stroke-linecap:butt;stroke-linejoin:miter;stroke-miterlimit:4;stroke-dasharray:none;stroke-opacity:1" />
    <path
       sodipodi:nodetypes="csccc"
       id="path8680"
       d="M 384.1643,153.17703 C 384.1643,153.17703 411.77574,100.68587 410.42745,68.327079 C 408.40721,19.841393 378.10358,15.80092 378.10358,15.80092 C 392.24527,92.569922 357.90116,124.89371 357.90116,124.89371 L 384.1643,153.17703 z "
       style="fill:#a1a8b7;fill-opacity:1;fill-rule:evenodd;stroke:#000000;stroke-width:2.02023959;stroke-linecap:butt;stroke-linejoin:miter;stroke-miterlimit:4;stroke-dasharray:none;stroke-opacity:1" />
    <path
       sodipodi:nodetypes="csccc"
       id="path8682"
       d="M 398.306,197.62224 C 398.306,197.62224 445.18139,154.76355 450.8323,122.87347 C 459.29951,75.090118 433.4437,58.123067 433.4437,58.123067 C 438.71084,116.81276 382.14407,167.31869 382.14407,167.31869 L 398.306,197.62224 z "
       style="fill:#a1a8b7;fill-opacity:1;fill-rule:evenodd;stroke:#000000;stroke-width:2.02023959;stroke-linecap:butt;stroke-linejoin:miter;stroke-miterlimit:4;stroke-dasharray:none;stroke-opacity:1" />
    <path
       sodipodi:nodetypes="csccc"
       id="path8684"
       d="M 406.38697,240.04721 C 406.38697,240.04721 433.99199,226.58393 456.89302,203.68295 C 475.07521,185.50082 467.577,148.2928 467.577,148.2928 C 440.73109,197.62224 396.28576,209.74366 396.28576,209.74366 L 406.38697,240.04721 z "
       style="fill:#a1a8b7;fill-opacity:1;fill-rule:evenodd;stroke:#000000;stroke-width:2.02023959;stroke-linecap:butt;stroke-linejoin:miter;stroke-miterlimit:4;stroke-dasharray:none;stroke-opacity:1" />
    <path
       sodipodi:nodetypes="csccc"
       id="path8688"
       d="M 388.20479,306.71503 C 388.20479,306.71503 423.88472,312.55862 450.8323,294.59361 C 469.01448,282.47219 465.928,265.30018 465.928,265.30018 C 424.56915,292.57337 394.26551,282.47219 394.26551,282.47219 L 388.20479,306.71503 z "
       style="fill:#a1a8b7;fill-opacity:1;fill-rule:evenodd;stroke:#000000;stroke-width:2.02023959;stroke-linecap:butt;stroke-linejoin:miter;stroke-miterlimit:4;stroke-dasharray:none;stroke-opacity:1" />
    <path
       sodipodi:nodetypes="csccc"
       id="path8686"
       d="M 400.32624,274.39124 C 400.32624,274.39124 429.58281,274.4208 454.87278,254.18887 C 475.07521,238.02698 473.05496,211.7639 473.05496,211.7639 C 436.6906,250.1484 400.32624,252.16864 400.32624,252.16864 L 400.32624,274.39124 z "
       style="fill:#a1a8b7;fill-opacity:1;fill-rule:evenodd;stroke:#000000;stroke-width:2.02023959;stroke-linecap:butt;stroke-linejoin:miter;stroke-miterlimit:4;stroke-dasharray:none;stroke-opacity:1" />
    <path
       sodipodi:nodetypes="csccc"
       id="path8690"
       d="M 374.0631,324.89716 C 374.0631,324.89716 398.306,337.01859 418.50842,332.97811 C 439.93633,328.69254 444.77157,314.79598 444.77157,314.79598 C 404.36672,326.9174 380.12383,312.77574 380.12383,312.77574 L 374.0631,324.89716 z "
       style="fill:#a1a8b7;fill-opacity:1;fill-rule:evenodd;stroke:#000000;stroke-width:2.02023959;stroke-linecap:butt;stroke-linejoin:miter;stroke-miterlimit:4;stroke-dasharray:none;stroke-opacity:1" />
    <path
       sodipodi:nodetypes="csccc"
       id="path8692"
       d="M 373.87055,313.59679 C 373.87055,313.59679 392.48092,322.97225 402.34648,341.05906 C 414.46794,363.28167 400.32624,377.42332 400.32624,377.42332 C 398.306,341.05906 366.99225,325.2737 366.99225,325.2737 L 373.87055,313.59679 z "
       style="fill:#a1a8b7;fill-opacity:1;fill-rule:evenodd;stroke:#000000;stroke-width:2.02023959;stroke-linecap:butt;stroke-linejoin:miter;stroke-miterlimit:4;stroke-dasharray:none;stroke-opacity:1" />
    <path
       sodipodi:nodetypes="csccc"
       id="path8694"
       d="M 368.00237,328.93764 C 368.00237,328.93764 380.12383,334.99835 384.1643,355.20072 C 388.20479,375.40309 376.10109,383.48403 376.10109,383.48403 C 376.08334,353.18048 359.9214,349.14001 359.9214,349.14001 L 368.00237,328.93764 z "
       style="fill:#a1a8b7;fill-opacity:1;fill-rule:evenodd;stroke:#000000;stroke-width:2.02023959;stroke-linecap:butt;stroke-linejoin:miter;stroke-miterlimit:4;stroke-dasharray:none;stroke-opacity:1" />
    <path
       sodipodi:nodetypes="czscsccccccccccccccccscscc"
       id="path8696"
       d="M 337.69874,298.63408 C 337.69874,298.63408 368.00237,278.43172 368.00237,231.96627 C 368.00237,181.46034 347.79995,165.29845 339.71898,165.29845 C 331.63801,165.29845 323.55704,173.37941 319.51656,171.35916 C 310.93053,162.26809 307.3951,150.19603 307.3951,126.91395 C 307.3951,104.69134 319.51656,104.69134 313.45583,78.428264 C 333.65825,78.428264 337.69874,108.73181 337.69874,108.73181 C 352.83884,106.95063 359.9214,90.549685 359.9214,90.549685 C 383.78932,96.249474 372.04286,132.97466 372.04286,132.97466 C 382.55185,138.85257 404.36672,124.89371 404.36672,124.89371 C 415.58822,151.78959 396.28576,179.44011 396.28576,179.44011 C 410.00091,182.46812 428.60963,177.41987 428.60963,177.41987 C 428.60963,203.68295 406.38697,221.86508 406.38697,221.86508 C 409.05876,228.63358 430.62987,229.94603 430.62987,229.94603 C 426.53315,254.70449 404.36672,260.24958 404.36672,260.24958 C 408.28535,266.83996 430.62987,270.35077 430.62987,270.35077 C 422.97077,292.43744 396.28576,290.55314 396.28576,290.55314 C 396.82011,299.28093 420.52866,308.73527 420.52866,308.73527 C 408.06034,317.28495 390.22503,312.77574 390.22503,312.77574 C 387.37512,318.65365 398.306,330.95788 398.306,330.95788 C 390.64688,333.80777 378.10358,326.9174 378.10358,326.9174 C 378.10358,326.9174 386.6896,341.05906 384.1643,343.0793 C 381.63901,345.09953 368.00237,334.99835 368.00237,334.99835 C 368.00237,334.99835 370.24383,351.04964 365.98213,353.18048 C 361.94165,355.20072 351.84043,345.09953 351.84043,345.09953 L 337.69874,298.63408 z "
       style="fill:#a1a8b7;fill-opacity:1;fill-rule:evenodd;stroke:#000000;stroke-width:2.02023959;stroke-linecap:butt;stroke-linejoin:miter;stroke-miterlimit:4;stroke-dasharray:none;stroke-opacity:1" />
    <rect
       style="opacity:1;color:#000000;fill:#a1a8b7;fill-opacity:1;fill-rule:evenodd;stroke:#000000;stroke-width:2.02023959;stroke-linecap:round;stroke-linejoin:round;marker:none;marker-start:none;marker-mid:none;marker-end:none;stroke-miterlimit:4;stroke-dasharray:none;stroke-dashoffset:0;stroke-opacity:1;visibility:visible;display:inline;overflow:visible"
       id="rect6904"
       width="6.0607271"
       height="252.52962"
       x="225.25826"
       y="141.96291"
       rx="0.092806101"
       ry="0.092806101" />
    <rect
       style="opacity:1;color:#000000;fill:#a1a8b7;fill-opacity:1;fill-rule:evenodd;stroke:#000000;stroke-width:2.02023959;stroke-linecap:round;stroke-linejoin:round;marker:none;marker-start:none;marker-mid:none;marker-end:none;stroke-miterlimit:4;stroke-dasharray:none;stroke-dashoffset:0;stroke-opacity:1;visibility:visible;display:inline;overflow:visible"
       id="rect6906"
       width="6.0607271"
       height="252.52962"
       x="243.44043"
       y="141.96291"
       rx="0.092806101"
       ry="0.092806101" />
    <rect
       style="opacity:1;color:#000000;fill:#a1a8b7;fill-opacity:1;fill-rule:evenodd;stroke:#000000;stroke-width:2.02023959;stroke-linecap:round;stroke-linejoin:round;marker:none;marker-start:none;marker-mid:none;marker-end:none;stroke-miterlimit:4;stroke-dasharray:none;stroke-dashoffset:0;stroke-opacity:1;visibility:visible;display:inline;overflow:visible"
       id="rect6908"
       width="6.0607271"
       height="252.52962"
       x="262.63272"
       y="141.96291"
       rx="0.092806101"
       ry="0.092806101" />
    <rect
       style="opacity:1;color:#000000;fill:#a1a8b7;fill-opacity:1;fill-rule:evenodd;stroke:#000000;stroke-width:2.02023959;stroke-linecap:round;stroke-linejoin:round;marker:none;marker-start:none;marker-mid:none;marker-end:none;stroke-miterlimit:4;stroke-dasharray:none;stroke-dashoffset:0;stroke-opacity:1;visibility:visible;display:inline;overflow:visible"
       id="rect6910"
       width="6.0607271"
       height="252.52962"
       x="281.82504"
       y="141.96291"
       rx="0.092806101"
       ry="0.092806101" />
    <rect
       style="opacity:1;color:#000000;fill:#a1a8b7;fill-opacity:1;fill-rule:evenodd;stroke:#000000;stroke-width:2.02023959;stroke-linecap:round;stroke-linejoin:round;marker:none;marker-start:none;marker-mid:none;marker-end:none;stroke-miterlimit:4;stroke-dasharray:none;stroke-dashoffset:0;stroke-opacity:1;visibility:visible;display:inline;overflow:visible"
       id="rect3408"
       width="181.82181"
       height="18.182133"
       x="158.59026"
       y="234.8938"
       rx="0.092806101"
       ry="0" />
    <path
       id="path3401"
       style="fill:#a1a8b7;fill-opacity:1;fill-rule:evenodd;stroke:#000000;stroke-width:2.02023959;stroke-linecap:butt;stroke-linejoin:miter;stroke-miterlimit:4;stroke-dasharray:none;stroke-opacity:1"
       d="M 249.28226,481.36269 C 130.19741,481.36269 132.9918,428.26338 138.38782,366.20919 C 142.42831,319.74374 170.7117,279.339 170.7117,244.99498 C 170.7117,206.55735 162.63073,188.42834 162.63073,188.42834 L 182.83315,188.42834 C 182.83315,188.42834 192.93437,210.65096 192.93437,244.99498 C 192.93437,291.02469 174.24712,324.28927 172.73194,372.2699 C 171.21676,420.25053 188.89388,436.91748 188.89388,436.91748 L 203.03558,436.91748 C 199.63495,402.53348 190.91412,394.49251 190.91412,394.49251 L 307.86928,394.49251 C 307.86928,394.49251 299.14845,402.53348 295.74783,436.91748 L 309.88953,436.91748 C 309.88953,436.91748 327.56665,420.25053 326.05147,372.2699 C 324.53628,324.28927 305.84904,291.02469 305.84904,244.99498 C 305.84904,210.65096 315.95025,188.42834 315.95025,188.42834 L 336.15268,188.42834 C 336.15268,188.42834 328.07171,206.55735 328.07171,244.99498 C 328.07171,279.339 356.57399,323.78422 360.39558,366.20919 C 365.98382,428.24637 368.36711,481.36269 249.28226,481.36269 z "
       sodipodi:nodetypes="cssccssccccccssccssz" />
  </g>
</svg>
