<?xml version="1.0" encoding="UTF-8"?>
<!DOCTYPE svg PUBLIC "-//W3C//DTD SVG 1.1//EN" "http://www.w3.org/Graphics/SVG/1.1/DTD/svg11.dtd">
<!-- Creator: CorelDRAW -->
<svg xmlns="http://www.w3.org/2000/svg" xml:space="preserve" width="500px" height="546px" shape-rendering="geometricPrecision" text-rendering="geometricPrecision" image-rendering="optimizeQuality" fill-rule="evenodd" clip-rule="evenodd"
viewBox="0 0 500 546"
 xmlns:xlink="http://www.w3.org/1999/xlink"
 xmlns:svg="http://www.w3.org/2000/svg"
 version="1.0">
 <g id="Layer_x0020_1">
  <metadata id="CorelCorpID_0Corel-Layer"/>
  <path id="path1937" fill="#F00000" stroke="black" stroke-width="0.216" d="M0.342709 0.451276l499.554 -0.121606 -0.345827 335.908c-35.7701,111.447 -118.724,206.192 -249.039,206.273 -130.315,0.0810709 -212.861,-82.7635 -250.211,-205.248l0.0425197 -336.812z"/>
  <path id="path1937_0" fill="black" d="M5.72854 248.199c17.4356,-8.64681 24.8599,-30.4039 43.4809,-38.5435 15.429,-6.74391 37.3476,0.0892914 52.225,-6.63988 18.5681,-8.39878 22.2548,-29.7927 39.9617,-38.2675 15.6234,-7.4778 45.2829,-2.03953 61.3168,-9.43682 19.5469,-9.01758 25.2369,-31.7526 43.9047,-41.0732 14.5208,-7.24933 41.993,-1.05392 57.0759,-8.33783 16.5274,-7.98095 22.6128,-30.8645 38.6875,-39.6958 15.1007,-8.29616 40.191,-2.53871 55.7161,-10.2385 19.2402,-9.54171 24.9857,-31.1743 44.2262,-42.0285 9.96605,-5.62224 32.7671,-2.67534 46.7201,-4.82032 6.34224,-0.974835 5.73591,-5.79572 10.266,-8.04246l-0.345827 335.908c-15.37,47.8874 -39.4515,92.6907 -72.2591,128.226 -3.48265,-1.77562 -4.03285,-7.07273 -7.51493,-8.84778 -16.8333,-8.58104 -40.5629,-0.148536 -57.8373,-8.14394 -17.2738,-7.99541 -28.6821,-34.1824 -45.5148,-42.7629 -16.9004,-8.61534 -44.2483,-2.56564 -61.6037,-11.1824 -16.3032,-8.09433 -23.7952,-29.687 -39.6715,-37.7799 -17.6871,-9.01645 -47.2607,0.593859 -64.5083,-8.56999 -17.2477,-9.16328 -21.5898,-36.5202 -39.2766,-45.5366 -18.8603,-9.61399 -43.3179,-0.573733 -62.481,-9.7356 -18.0026,-8.60627 -24.8497,-35.4175 -42.5679,-44.4507z"/>
  <path id="path1937_1" fill="white" d="M5.14177 246.122c17.4356,-8.64681 24.8599,-30.4039 43.4809,-38.5435 15.429,-6.74391 37.3476,0.0892914 52.225,-6.63988 18.5681,-8.39878 22.2548,-29.7927 39.9617,-38.2675 15.6234,-7.4778 45.2829,-2.03953 61.3168,-9.43682 19.5469,-9.01758 25.2369,-31.7526 43.9047,-41.0732 14.5208,-7.24933 41.993,-1.05392 57.0759,-8.33783 16.5274,-7.98095 22.6128,-30.8645 38.6875,-39.6958 15.1007,-8.29616 40.191,-2.53871 55.7161,-10.2385 19.2402,-9.54171 24.9857,-31.1743 44.2262,-42.0285 9.96605,-5.62224 32.7671,-2.67534 46.7201,-4.82032 6.34224,-0.974835 5.73591,-5.79572 10.266,-8.04246l-0.345827 335.908c-15.37,47.8874 -39.4515,92.6907 -72.2591,128.226 -3.48265,-1.77562 -4.03285,-7.07273 -7.51493,-8.84778 -16.8333,-8.58104 -40.5629,-0.148536 -57.8373,-8.14394 -17.2738,-7.99541 -28.6821,-34.1824 -45.5148,-42.7629 -16.9004,-8.61534 -44.2483,-2.56564 -61.6037,-11.1824 -16.3032,-8.09433 -23.7952,-29.687 -39.6715,-37.7799 -17.6871,-9.01645 -47.2607,0.593859 -64.5083,-8.56999 -17.2477,-9.16328 -21.5898,-36.5202 -39.2766,-45.5366 -18.8603,-9.61399 -43.3179,-0.573733 -62.481,-9.7356 -18.0026,-8.60627 -24.8497,-35.4175 -42.5679,-44.4507z"/>
  <path id="path1937_2" fill="#B2B2B2" stroke="black" stroke-width="0.216" d="M6.31531 247.454c17.4356,-8.64681 24.8599,-30.4039 43.4809,-38.5435 15.429,-6.74391 37.3476,0.0892914 52.225,-6.63988 18.5681,-8.39878 22.2548,-29.7927 39.9617,-38.2675 15.6234,-7.4778 45.2829,-2.03953 61.3168,-9.43682 19.5469,-9.01758 25.2369,-31.7526 43.9047,-41.0732 14.5208,-7.24933 41.993,-1.05392 57.0759,-8.33783 16.5274,-7.98095 22.6128,-30.8645 38.6875,-39.6958 15.1007,-8.29616 40.191,-2.53871 55.7161,-10.2385 19.2402,-9.54171 24.9857,-31.1743 44.2262,-42.0285 9.96605,-5.62224 32.7671,-2.67534 46.7201,-4.82032 6.34224,-0.974835 5.73591,-5.79572 10.266,-8.04246l-0.345827 335.908c-15.37,47.8874 -39.4515,92.6907 -72.2591,128.226 -3.48265,-1.77562 -4.03285,-7.07273 -7.51493,-8.84778 -16.8333,-8.58104 -40.5629,-0.148536 -57.8373,-8.14394 -17.2738,-7.99541 -28.6821,-34.1824 -45.5148,-42.7629 -16.9004,-8.61534 -44.2483,-2.56564 -61.6037,-11.1824 -16.3032,-8.09433 -23.7952,-29.687 -39.6715,-37.7799 -17.6871,-9.01645 -47.2607,0.593859 -64.5083,-8.56999 -17.2477,-9.16328 -21.5898,-36.5202 -39.2766,-45.5366 -18.8603,-9.61399 -43.3179,-0.573733 -62.481,-9.7356 -18.0026,-8.60627 -24.8497,-35.4175 -42.5679,-44.4507z"/>
 </g>
</svg>
