<?xml version="1.0" encoding="UTF-8"?>
<!DOCTYPE svg PUBLIC "-//W3C//DTD SVG 1.1//EN" "http://www.w3.org/Graphics/SVG/1.1/DTD/svg11.dtd">
<!-- Creator: CorelDRAW -->
<svg xmlns="http://www.w3.org/2000/svg" xml:space="preserve" width="500px" height="553px" shape-rendering="geometricPrecision" text-rendering="geometricPrecision" image-rendering="optimizeQuality" fill-rule="evenodd" clip-rule="evenodd"
viewBox="0 0 500 553"
 xmlns:xlink="http://www.w3.org/1999/xlink"
 xmlns:svg="http://www.w3.org/2000/svg"
 version="1.0">
 <g id="Layer_x0020_1">
  <metadata id="CorelCorpID_0Corel-Layer"/>
  <path id="path1937" fill="#CCCCCC" stroke="black" stroke-width="1.41732" d="M1.11061 16.435c81.6101,-8.96485 165.744,-15.1158 249.003,-15.1362 83.2587,-0.0204095 163.763,4.81238 248.671,15.0146l-14.8527 323.862c-31.6829,283.701 -433.716,281.413 -468.326,2.29408l-14.4953 -326.034z"/>
  <path fill="white" d="M66.6085 127.574l-0.638929 -23.6404c-0.000283465,-3.83329 5.53692,-10.8615 16.6122,-8.62555 4.05043,0.211181 6.60444,1.17043 8.94501,2.23625 1.27389,-0.214016 2.86838,-0.00170079 6.70876,0.638929 15.4406,-28.3258 43.3406,13.3112 72.199,-5.4309 0.960945,4.7384 -3.29754,9.42435 -18.529,15.0148 5.59049,1.81701 11.137,11.3737 18.3611,17.6964 3.78425,3.31172 8.26101,4.11392 12.9464,5.94397 -4.79197,0.212882 -8.94501,1.38416 -14.3759,0.638929 5.00173,10.5707 12.7732,20.2088 25.2377,26.5156 -4.10032,0.532063 -9.10545,0.850961 -14.0564,-0.319465 3.62041,8.09292 7.24111,14.9083 10.8618,24.2793 20.3125,-13.0453 23.2407,-35.195 13.4175,-40.572 -14.4624,-15.1254 -2.32271,-37.8179 24.0154,-45.44 34.9586,-10.1169 79.2032,1.52532 89.3946,-25.4812 1.49074,5.96353 2.0228,11.9273 0.958394,17.89 58.9227,-1.74331 108.6,-8.62356 113.729,-40.2526 13.1513,19.4879 -0.479339,38.869 -22.3625,53.0311l-81.144 309.881 18.2095 31.9465 18.2095 0 -9.90341 24.5988 -191.998 0c-10.1166,-5.53748 -11.7139,-13.2046 -4.79197,-23.0015 0.958394,-24.7054 12.1397,-19.381 18.2095,-14.6954 7.66687,-1.01084 15.334,-4.95043 23.0015,-15.3343 0.424347,-11.8196 -0.427748,-23.6393 -3.51411,-33.5438 -2.55572,4.47251 -4.15304,11.8202 -7.66715,13.4175 -1.17184,-8.81207 5.32403,-21.1116 -4.47251,-30.0297 -0.266173,7.02794 -1.33115,13.5235 -4.15304,18.8484 -1.27786,-8.73213 -1.27786,-18.7421 -3.83358,-26.1961 -21.098,-30.6153 -32.2968,-60.5855 -37.1367,-90.815 -10.6481,-66.5039 -0.387213,-122.801 -55.1886,-135.047 17.78,-7.92964 18.2072,1.75918 27.7934,0 -7.67367,-15.1112 -19.8794,-7.72781 -28.296,-15.0579 -6.54577,-5.70076 -10.4494,-7.22467 -13.2344,10.9049l-3.51411 0z"/>
  <path fill="#F00000" d="M65.6689 127.261l-0.638929 -23.6404c-0.000283465,-3.83329 5.53692,-10.8615 16.6122,-8.62555 4.05043,0.211181 6.60444,1.17043 8.94501,2.23625 1.27389,-0.214016 2.86838,-0.00170079 6.70876,0.638929 15.4406,-28.3258 43.3406,13.3112 72.199,-5.4309 0.960945,4.7384 -3.29754,9.42435 -18.529,15.0148 5.59049,1.81701 11.137,11.3737 18.3611,17.6964 3.78425,3.31172 8.26101,4.11392 12.9464,5.94397 -4.79197,0.212882 -8.94501,1.38416 -14.3759,0.638929 5.00173,10.5707 12.7732,20.2088 25.2377,26.5156 -4.10032,0.532063 -9.10545,0.850961 -14.0564,-0.319465 3.62041,8.09292 7.24111,14.9083 10.8618,24.2793 20.3125,-13.0453 23.2407,-35.195 13.4175,-40.572 -14.4624,-15.1254 -2.32271,-37.8179 24.0154,-45.44 34.9586,-10.1169 79.2032,1.52532 89.3946,-25.4812 1.49074,5.96353 2.0228,11.9273 0.958394,17.89 58.9227,-1.74331 108.6,-8.62356 113.729,-40.2526 13.1513,19.4879 -0.479339,38.869 -22.3625,53.0311l-81.144 309.881 18.2095 31.9465 18.2095 0 -9.90341 24.5988 -191.998 0c-10.1166,-5.53748 -11.7139,-13.2046 -4.79197,-23.0015 0.958394,-24.7054 12.1397,-19.381 18.2095,-14.6954 7.66687,-1.01084 15.334,-4.95043 23.0015,-15.3343 0.424347,-11.8196 -0.427748,-23.6393 -3.51411,-33.5438 -2.55572,4.47251 -4.15304,11.8202 -7.66715,13.4175 -1.17184,-8.81207 5.32403,-21.1116 -4.47251,-30.0297 -0.266173,7.02794 -1.33115,13.5235 -4.15304,18.8484 -1.27786,-8.73213 -1.27786,-18.7421 -3.83358,-26.1961 -21.098,-30.6153 -32.2968,-60.5855 -37.1367,-90.815 -10.6481,-66.5039 -0.387213,-122.801 -55.1886,-135.047 17.78,-7.92964 18.2072,1.75918 27.7934,0 -7.67367,-15.1112 -19.8794,-7.72781 -28.296,-15.0579 -6.54577,-5.70076 -10.4494,-7.22467 -13.2344,10.9049 -2.42447,1.25291 -2.65606,0.626457 -3.51411,0z"/>
  <path fill="white" d="M346.479 151.378l11.1813 32.2659 24.2793 -56.8647 -7.34769 3.83358c1.27786,3.24992 -7.98747,8.25506 -22.0431,14.0564 -1.59789,2.6623 -3.62126,4.89884 -6.06983,6.70876z"/>
  <path fill="white" d="M326.513 162.081l17.2511 56.2258 7.98662 -21.7236 -12.1397 -40.2526c-4.25962,3.19465 -8.19978,4.15304 -13.0981,5.75037z"/>
  <path fill="white" d="M304.789 175.659l24.2793 76.3521 8.94501 -21.0847 -19.1679 -62.2956c-4.15332,4.04674 -8.51953,5.75093 -14.0564,7.02822z"/>
  <path fill="white" d="M280.989 177.256l32.9049 108.937 9.58394 -21.0847 -26.835 -89.1307c-4.79225,1.70419 -10.0108,2.12995 -15.6538,1.27786z"/>
  <path fill="white" d="M248.723 191.95c-4.15276,2.98091 -9.58309,4.68454 -16.2927,5.11144l52.3922 161.33 9.26448 -22.682 -45.364 -143.759z"/>
  <path fill="white" d="M272.523 180.131l36.7384 118.841 -8.94501 22.3625 -43.4472 -137.37c5.64407,0.851811 10.8621,-0.426047 15.6538,-3.83358z"/>
  <polygon fill="white" points="225.242,200.258 210.866,211.119 269.009,397.048 279.871,372.449 "/>
  <path fill="white" d="M204.158 214.155l60.0594 195.193c-76.0326,-36.419 -45.0445,-125.23 -65.1708,-191.679l5.11144 -3.51411z"/>
  <g id="_57371400">
   <path id="_58134032" fill="white" d="M77.8085 260.477c-5.00655,-0.106016 -13.93,-2.32356 -15.6376,-13.5686 -1.67273,-11.014 8.93084,-15.3578 6.56419,-26.8722 -2.69405,-13.1071 8.92857,-10.9916 3.32306,-29.2025 19.1679,13.8433 3.34375,21.9816 13.8166,36.6582 14.7155,20.6229 -1.35581,33.1271 -8.06627,32.9851z"/>
   <path id="_58295056" fill="#F00000" d="M76.5307 259.838c-5.00655,-0.106016 -13.93,-2.32356 -15.6376,-13.5686 -1.67273,-11.014 8.93084,-15.3578 6.56419,-26.8722 -2.69405,-13.1071 8.92857,-10.9916 3.32306,-29.2025 19.1679,13.8433 3.34375,21.9816 13.8166,36.6582 14.7155,20.6229 -1.35581,33.1271 -8.06627,32.9851z"/>
   <path id="_58741840" fill="white" d="M72.8567 232.365c2.9537,0 1.11827,4.4538 0.479339,7.18781 -0.638929,2.73402 -0.400819,3.67399 -3.67399,3.67399 -3.27317,0 -3.03449,-2.21783 -2.39584,-4.63238 0.638646,-2.41455 2.63679,-6.22942 5.59049,-6.22942z"/>
   <path id="_58742704" fill="#8C0000" d="M78.7669 201.696c-0.48926,7.54725 -4.10372,18.7778 1.0423,26.0575 6.87657,9.72794 3.75931,24.8976 -5.83427,25.6958 12.3341,5.81018 18.9459,-12.4019 11.0812,-22.5031 -10.237,-13.1482 -2.90977,-22.2236 -6.28923,-29.2502z"/>
  </g>
  <g id="_58117896">
   <path id="_57956672" fill="white" d="M103.29 423.789c-5.00655,-0.106016 -13.93,-2.32356 -15.6376,-13.5686 -1.67273,-11.014 8.93084,-15.3578 6.56419,-26.8722 -2.69405,-13.1071 8.92857,-10.9916 3.32306,-29.2025 19.1679,13.8433 3.34375,21.9816 13.8166,36.6582 14.7155,20.6229 -1.35581,33.1271 -8.06627,32.9851z"/>
   <path id="_58101952" fill="#F00000" d="M102.012 423.15c-5.00655,-0.106016 -13.93,-2.32356 -15.6376,-13.5686 -1.67273,-11.014 8.93084,-15.3578 6.56419,-26.8722 -2.69405,-13.1071 8.92857,-10.9916 3.32306,-29.2025 19.1679,13.8433 3.34375,21.9816 13.8166,36.6582 14.7155,20.6229 -1.35581,33.1271 -8.06627,32.9851z"/>
   <path id="_57972680" fill="white" d="M98.3379 395.676c2.9537,0 1.11827,4.4538 0.479339,7.18781 -0.638929,2.73402 -0.400819,3.67399 -3.67399,3.67399 -3.27317,0 -3.03449,-2.21783 -2.39584,-4.63238 0.638646,-2.41455 2.63679,-6.22942 5.59049,-6.22942z"/>
   <path id="_57020136" fill="#8C0000" d="M104.248 365.007c-0.48926,7.54725 -4.10372,18.7778 1.0423,26.0575 6.87657,9.72794 3.75931,24.8976 -5.83427,25.6958 12.3341,5.81018 18.9459,-12.4019 11.0812,-22.5031 -10.237,-13.1482 -2.90977,-22.2236 -6.28923,-29.2502z"/>
  </g>
  <g id="_58293080">
   <path id="_58604080" fill="white" d="M160.043 83.2672c-5.00655,-0.106016 -13.93,-2.32356 -15.6376,-13.5686 -1.67273,-11.014 8.93084,-15.3578 6.56419,-26.8722 -2.69405,-13.1071 8.92857,-10.9916 3.32306,-29.2025 19.1679,13.8433 3.34375,21.9816 13.8166,36.6582 14.7155,20.6229 -1.35581,33.1271 -8.06627,32.9851z"/>
   <path id="_58293736" fill="#F00000" d="M158.765 82.6283c-5.00655,-0.106016 -13.93,-2.32356 -15.6376,-13.5686 -1.67273,-11.014 8.93084,-15.3578 6.56419,-26.8722 -2.69405,-13.1071 8.92857,-10.9916 3.32306,-29.2025 19.1679,13.8433 3.34375,21.9816 13.8166,36.6582 14.7155,20.6229 -1.35581,33.1271 -8.06627,32.9851z"/>
   <path id="_57041848" fill="white" d="M155.091 55.1543c2.9537,0 1.11827,4.4538 0.479339,7.18781 -0.638929,2.73402 -0.400819,3.67399 -3.67399,3.67399 -3.27317,0 -3.03449,-2.21783 -2.39584,-4.63238 0.638646,-2.41455 2.63679,-6.22942 5.59049,-6.22942z"/>
   <path id="_58351304" fill="#8C0000" d="M161.002 24.4857c-0.48926,7.54725 -4.10372,18.7778 1.0423,26.0575 6.87657,9.72794 3.75931,24.8976 -5.83427,25.6958 12.3341,5.81018 18.9459,-12.4019 11.0812,-22.5031 -10.237,-13.1482 -2.90977,-22.2236 -6.28923,-29.2502z"/>
  </g>
  <g id="_57988760">
   <path id="_57294432" fill="white" d="M341.887 78.6342c-5.00655,-0.106016 -13.93,-2.32356 -15.6376,-13.5686 -1.67273,-11.014 8.93084,-15.3578 6.56419,-26.8722 -2.69405,-13.1071 8.92857,-10.9916 3.32306,-29.2025 19.1679,13.8433 3.34375,21.9816 13.8166,36.6582 14.7155,20.6229 -1.35581,33.1271 -8.06627,32.9851z"/>
   <path id="_58311936" fill="#F00000" d="M340.609 77.9953c-5.00655,-0.106016 -13.93,-2.32356 -15.6376,-13.5686 -1.67273,-11.014 8.93084,-15.3578 6.56419,-26.8722 -2.69405,-13.1071 8.92857,-10.9916 3.32306,-29.2025 19.1679,13.8433 3.34375,21.9816 13.8166,36.6582 14.7155,20.6229 -1.35581,33.1271 -8.06627,32.9851z"/>
   <path id="_58310168" fill="white" d="M336.935 50.5213c2.9537,0 1.11827,4.4538 0.479339,7.18781 -0.638929,2.73402 -0.400819,3.67399 -3.67399,3.67399 -3.27317,0 -3.03449,-2.21783 -2.39584,-4.63238 0.638646,-2.41455 2.63679,-6.22942 5.59049,-6.22942z"/>
   <path id="_58471176" fill="#8C0000" d="M342.845 19.8527c-0.48926,7.54725 -4.10372,18.7778 1.0423,26.0575 6.87657,9.72794 3.75931,24.8976 -5.83427,25.6958 12.3341,5.81018 18.9459,-12.4019 11.0812,-22.5031 -10.237,-13.1482 -2.90977,-22.2236 -6.28923,-29.2502z"/>
  </g>
  <g id="_58471152">
   <path id="_58166120" fill="white" d="M428.754 260.477c-5.00655,-0.106016 -13.93,-2.32356 -15.6376,-13.5686 -1.67273,-11.014 8.93084,-15.3578 6.56419,-26.8722 -2.69405,-13.1071 8.92857,-10.9916 3.32306,-29.2025 19.1679,13.8433 3.34375,21.9816 13.8166,36.6582 14.7155,20.6229 -1.35581,33.1271 -8.06627,32.9851z"/>
   <path id="_56342504" fill="#F00000" d="M427.476 259.838c-5.00655,-0.106016 -13.93,-2.32356 -15.6376,-13.5686 -1.67273,-11.014 8.93084,-15.3578 6.56419,-26.8722 -2.69405,-13.1071 8.92857,-10.9916 3.32306,-29.2025 19.1679,13.8433 3.34375,21.9816 13.8166,36.6582 14.7155,20.6229 -1.35581,33.1271 -8.06627,32.9851z"/>
   <path id="_57860032" fill="white" d="M423.802 232.365c2.9537,0 1.11827,4.4538 0.479339,7.18781 -0.638929,2.73402 -0.400819,3.67399 -3.67399,3.67399 -3.27317,0 -3.03449,-2.21783 -2.39584,-4.63238 0.638646,-2.41455 2.63679,-6.22942 5.59049,-6.22942z"/>
   <path id="_58597704" fill="#8C0000" d="M429.713 201.696c-0.48926,7.54725 -4.10372,18.7778 1.0423,26.0575 6.87657,9.72794 3.75931,24.8976 -5.83427,25.6958 12.3341,5.81018 18.9459,-12.4019 11.0812,-22.5031 -10.237,-13.1482 -2.90977,-22.2236 -6.28923,-29.2502z"/>
  </g>
  <g id="_58198848">
   <path id="_56325592" fill="white" d="M397.482 423.789c-5.00655,-0.106016 -13.93,-2.32356 -15.6376,-13.5686 -1.67273,-11.014 8.93084,-15.3578 6.56419,-26.8722 -2.69405,-13.1071 8.92857,-10.9916 3.32306,-29.2025 19.1679,13.8433 3.34375,21.9816 13.8166,36.6582 14.7155,20.6229 -1.35581,33.1271 -8.06627,32.9851z"/>
   <path id="_57908400" fill="#F00000" d="M396.204 423.15c-5.00655,-0.106016 -13.93,-2.32356 -15.6376,-13.5686 -1.67273,-11.014 8.93084,-15.3578 6.56419,-26.8722 -2.69405,-13.1071 8.92857,-10.9916 3.32306,-29.2025 19.1679,13.8433 3.34375,21.9816 13.8166,36.6582 14.7155,20.6229 -1.35581,33.1271 -8.06627,32.9851z"/>
   <path id="_57924544" fill="white" d="M392.53 395.676c2.9537,0 1.11827,4.4538 0.479339,7.18781 -0.638929,2.73402 -0.400819,3.67399 -3.67399,3.67399 -3.27317,0 -3.03449,-2.21783 -2.39584,-4.63238 0.638646,-2.41455 2.63679,-6.22942 5.59049,-6.22942z"/>
   <path id="_58742664" fill="#8C0000" d="M398.44 365.007c-0.48926,7.54725 -4.10372,18.7778 1.0423,26.0575 6.87657,9.72794 3.75931,24.8976 -5.83427,25.6958 12.3341,5.81018 18.9459,-12.4019 11.0812,-22.5031 -10.237,-13.1482 -2.90977,-22.2236 -6.28923,-29.2502z"/>
  </g>
  <g id="_57439744">
   <path id="_57423352" fill="white" d="M251.544 539.612c-5.00655,-0.106016 -13.93,-2.32356 -15.6376,-13.5686 -1.67273,-11.014 8.93084,-15.3578 6.56419,-26.8722 -2.69405,-13.1071 8.92857,-10.9916 3.32306,-29.2025 19.1679,13.8433 3.34375,21.9816 13.8166,36.6582 14.7155,20.6229 -1.35581,33.1271 -8.06627,32.9851z"/>
   <path id="_58741768" fill="#F00000" d="M250.266 538.974c-5.00655,-0.106016 -13.93,-2.32356 -15.6376,-13.5686 -1.67273,-11.014 8.93084,-15.3578 6.56419,-26.8722 -2.69405,-13.1071 8.92857,-10.9916 3.32306,-29.2025 19.1679,13.8433 3.34375,21.9816 13.8166,36.6582 14.7155,20.6229 -1.35581,33.1271 -8.06627,32.9851z"/>
   <path id="_58477464" fill="white" d="M246.592 511.5c2.9537,0 1.11827,4.4538 0.479339,7.18781 -0.638929,2.73402 -0.400819,3.67399 -3.67399,3.67399 -3.27317,0 -3.03449,-2.21783 -2.39584,-4.63238 0.638646,-2.41455 2.63679,-6.22942 5.59049,-6.22942z"/>
   <path id="_58604144" fill="#8C0000" d="M252.502 480.831c-0.48926,7.54725 -4.10372,18.7778 1.0423,26.0575 6.87657,9.72794 3.75931,24.8976 -5.83427,25.6958 12.3341,5.81018 18.9459,-12.4019 11.0812,-22.5031 -10.237,-13.1482 -2.90977,-22.2236 -6.28923,-29.2502z"/>
  </g>
  <path fill="#CCCCCC" d="M204.955 214.155l60.0594 195.193c-76.0326,-36.419 -45.0445,-125.23 -65.1708,-191.679l5.11144 -3.51411z"/>
  <polygon fill="#CCCCCC" points="226.04,199.46 211.664,210.321 269.807,396.25 280.669,371.651 "/>
  <path fill="#CCCCCC" d="M250 189.876c-4.15276,2.98091 -9.58309,4.68454 -16.2927,5.11144l52.3922 161.33 9.26448 -22.682 -45.364 -143.759z"/>
  <path fill="#CCCCCC" d="M273.321 179.333l36.7384 118.841 -8.94501 22.3625 -43.4472 -137.37c5.64407,0.851811 10.8621,-0.426047 15.6538,-3.83358z"/>
  <path fill="#CCCCCC" d="M282.266 176.778l32.9049 108.937 9.58394 -21.0847 -26.835 -89.1307c-4.79225,1.70419 -10.0108,2.12995 -15.6538,1.27786z"/>
  <path fill="#CCCCCC" d="M305.587 174.541l24.2793 76.3521 8.94501 -21.0847 -19.1679 -62.2956c-4.15332,4.04674 -8.51953,5.75093 -14.0564,7.02822z"/>
  <path fill="#CCCCCC" d="M327.63 160.485l17.2511 56.2258 7.98662 -21.7236 -12.1397 -40.2526c-4.25962,3.19465 -8.19978,4.15304 -13.0981,5.75037z"/>
  <path fill="#CCCCCC" d="M347.756 148.984l11.1813 32.2659 24.2793 -56.8647 -7.34769 3.83358c1.27786,3.24992 -7.98747,8.25506 -22.0431,14.0564 -1.59789,2.6623 -3.62126,4.89884 -6.06983,6.70876z"/>
  <path fill="#540000" d="M330.825 109.371l-6.06983 5.11144c8.73185,-1.17156 19.3808,-0.426047 26.1961,-3.51411 25.6802,-1.9491 42.48,-5.04425 53.729,-8.85572l-10.9208 13.936 -2.95767 0.432567 -1.87342 -2.9109 -2.16085 -0.499181 3.08835 5.41843 -5.47767 -2.31222 0.783496 4.78375 -4.13802 -3.54076 1.12989 6.33969c7.05544,-0.485575 10.9159,-3.04753 16.3749,-6.72775 0.810142,5.63414 -53.3274,196.558 -79.9909,294.837l-3.18869 0.414425 17.0218 32.6308 -3.49143 -0.562394 -15.3028 -31.2545 -1.70844 1.77336 15.0698 30.3114 -29.6861 -0.56863 -1.27276 -2.23795c8.87982,-0.123874 11.954,-1.20529 12.0986,-1.96696l14.9301 -0.0331654 0.370205 -1.64041 -15.2331 -1.3629c-2.52085,-10.518 -12.0742,-18.4496 -22.5244,-21.475 -9.04111,-2.6178 -19.7274,-3.08013 -25.4325,-8.0898l-2.1926 0.436819c4.35799,5.68092 19.3065,7.64193 31.2577,12.5904 10.5452,4.36592 18.8277,11.4832 14.4369,19.4907 -3.60284,-0.838205 -8.803,1.19877 -10.8085,-2.51462 1.26255,3.56145 2.09764,7.01604 -0.0617953,9.72312l65.986 0.533481 -4.21342 8.10993 -1.56983 0.489544 -0.271276 -4.60035 -4.27181 9.63298 1.85159 -0.436819 0.612 1.77647 -5.12136 1.03238 4.79679 -9.30189 -4.572 1.18573 -2.46019 6.98599 -135.787 1.05931 2.24107 2.08347c-2.53077,0.131528 -4.21002,-0.58904 -5.03745,-2.16085l-24.9679 0.627024c-4.1607,-6.73484 7.97103,-7.0801 0.934867,-14.4536 1.4709,4.78857 -5.36429,9.25767 -2.29606,16.2825l-3.06595 0.0989292 -3.17084 -1.25036 -0.771591 -4.1726 -0.892914 3.21959c-9.57941,1.35156 -4.46344,-13.2698 0.972,-9.36227l4.13575 -3.8024 -2.54977 -0.0385512 -0.00538583 -7.7006 -1.90857 4.29052 -4.48016 -4.85802 -0.0853229 6.92674c-5.79855,4.67887 -6.912,10.6359 -3.34006,17.8713l191.594 0.474803 8.62498 -23.0193 -23.7141 -0.623622 -16.0367 -27.9658 0.547654 -6.06728 84.5198 -309.246c8.89937,-4.31603 15.8156,-11.2184 18.5763,-16.3823l-5.4309 -2.23625 -1.91679 1.59732 3.83358 0.958394 -1.91679 2.87518 -4.79197 -0.958394 -1.27786 1.27786 3.83358 0.958394 -1.91679 2.23625 -3.19465 -0.958394 -1.59732 0.958394 2.23625 1.59732 -3.19465 1.91679 -9.90341 -4.15304 -1.59732 0.638929 9.26448 4.47251 -4.79197 1.91679c-2.21584,-1.7881 -4.97736,-3.21279 -7.98662,-4.47251l-1.27786 1.27786c2.54835,1.82891 6.58489,1.17751 7.64533,5.48646l-6.36747 0.263906 -6.95084 -4.15304 -0.285732 1.25603c2.1668,1.51682 4.92888,3.03336 5.11144,4.25225l-5.54202 2.15887c-1.38926,-1.98482 -3.24907,-3.65528 -5.4309,-5.11144l-1.27786 0.958394c1.95988,0.838772 3.79134,2.25638 4.42885,4.15304l-6.02618 0c-2.6623,-1.17128 -4.43169,-2.93783 -7.98662,-3.51411l-1.27786 0.958394c2.15745,0.940252 4.46372,1.94655 5.82775,3.4149l-4.86936 0.418677c-0.840189,-2.27707 -4.45805,-2.47096 -6.38929,-4.15304l-0.958394 1.27786c1.91679,1.27786 4.23043,1.86123 5.75037,3.83358l-6.38929 0c-2.18863,-1.73112 -4.54309,-3.21477 -7.26038,-4.15304l-1.36517 0.638929c2.36126,1.34419 5.41701,2.19203 6.48851,4.92492l-4.89118 0.18652 -11.8202 -7.02822 -1.27786 0.638929c4.66895,2.82274 4.02577,3.29641 6.27251,4.73953 1.74756,1.12224 3.28224,-0.546236 4.72224,2.9058 -8.41267,1.06526 -17.4909,0.980504 -25.0512,0.341292z"/>
  <polygon fill="#FFC8C8" points="384.814,123.108 388.328,122.469 278.432,397.847 271.404,405.514 273.321,394.333 "/>
  <polygon fill="#540000" points="377.147,127.261 371.077,117.996 382.258,124.385 "/>
  <path fill="#540000" d="M375.55 128.219c-18.9337,4.00536 -41.8836,6.69203 -62.6369,7.39134 4.26955,-0.987591 15.8808,-1.28069 17.2729,-3.55777 -1.93833,-0.61767 -4.24063,-0.870804 -6.70876,-0.958394l5.75037 -0.958394c-1.22372,-3.38967 -3.57647,-6.40347 -6.38929,-9.26448 2.6161,1.03238 5.64548,3.30492 9.58394,8.30608l3.47046 0.154772c0.0756851,-2.08942 -2.39783,-4.5754 -4.10939,-6.86353 2.96731,1.32435 6.23197,5.22766 9.00057,8.63547l2.34652 0.369921c-0.246614,-2.68753 -3.18388,-5.78807 -6.87459,-9.00539 3.51411,1.15824 7.02879,3.01125 10.5423,7.34769l2.21443 0.297638 -0.220252 -5.21065 -2.95257 -3.39307c3.04725,-0.023811 8.07874,7.49254 11.8202,7.66715 0.680032,-1.67074 -0.822615,-3.14306 -1.23421,-4.71459 1.67471,-0.599244 2.95257,0.587339 4.42885,0.881008l0 -0.319465c0.860599,-0.204662 3.83669,1.70674 6.38929,3.19465 0.665575,-1.49811 -0.851811,-3.19465 -1.27786,-4.79197l0.958394 0.319465 -1.27786 -3.83358c3.74797,2.76917 6.95027,5.53805 9.90341,8.30608z"/>
  <path fill="#540000" d="M360.92 136.267c2.74507,0.496063 4.69616,-1.28976 6.74646,-0.892914 -15.0199,10.2943 -47.2187,13.4031 -61.3134,11.5087l10.4173 -1.09134c-0.914174,-1.74217 -2.92507,-3.23348 -4.46457,-4.66299 2.54693,0.330236 4.79566,1.35553 7.34174,4.06772 1.38898,0.826583 2.87717,-0.132378 3.86929,-0.496063 -0.760536,-2.08347 -2.71162,-3.37323 -3.96851,-5.05985 2.34851,0.297354 4.49802,1.62 6.84567,4.56378 1.45531,0.33052 3.90246,0.264473 5.15906,-0.198425 -0.694489,-2.34822 -5.65512,-2.61269 -8.03622,-5.85355 4.10117,0.869953 8.20205,2.53559 12.3024,5.25827l3.37323 -1.09134c-0.429733,-1.42214 -2.44715,-2.24901 -3.67087,-3.37323 2.14951,-0.16526 4.43169,0.72737 6.84567,2.67874l4.66299 0 -2.57953 -3.37323c1.09162,0.0328819 2.05087,0.594709 2.87717,1.68662l0.297638 -1.98425 2.57953 2.67874c1.98425,-0.297921 3.1748,-0.860315 3.57166,-1.68662l-2.3811 -2.57953 5.05985 2.08347 2.97638 -0.892914 -3.67087 -2.77795c1.88532,-0.132095 3.53906,0.297638 5.15906,1.48819z"/>
  <path fill="#540000" d="M293.951 161.17c9.02835,1.15767 19.4457,-0.264473 29.1685,-0.396851 -2.52992,4.68 -6.69685,6.99449 -11.6079,8.23465 -2.03443,-2.00126 -3.8863,-3.45657 -5.65512,-4.66299 1.20359,2.14554 3.21392,3.82224 3.86929,6.05197 -0.727654,0.760252 -2.91033,0.727087 -4.76221,0.496063 -1.6869,-2.47323 -3.37351,-3.91153 -5.05985,-5.05985 0.826583,2.18268 2.64558,4.06772 3.67087,5.95276 -1.15767,0.661323 -3.70403,0.33052 -5.55591,0.496063 -2.84428,-1.19055 -4.00167,-5.55591 -4.96063,-4.76221 0.528945,1.42186 1.45502,2.74479 1.98425,4.16693 -1.32265,1.71978 -2.64586,2.11635 -3.96851,1.19055l-1.48819 1.68662c-3.70375,0.132095 -9.78889,0.958961 -11.1118,0.396851l-0.694489 -0.992126c-1.02529,0.958678 -1.91792,1.38841 -2.67874,1.28976 0.363969,-1.22372 1.1245,-2.34822 1.09134,-3.67087 -1.88476,2.64558 -4.03399,3.83613 -6.44882,3.57166 2.74507,7.67226 -21.7936,7.80463 -32.2441,7.8378l-1.09134 -1.19055 -0.496063 0.793701 -1.09134 0.0992126 2.18268 1.48819 17.263 0.595276c-5.64265,6.22545 -17.4404,9.05301 -27.1843,7.44095l-2.87717 0.396851c-2.29862,1.02472 -2.66202,2.64529 -2.57953,3.67087 1.3561,-0.330803 2.01742,-2.1498 3.86929,-1.78583 -0.904819,3.06709 -3.69128,6.48964 -6.44882,9.02835 2.41427,0.198425 4.82854,-2.97638 7.24252,-4.46457l0.892914 1.09134 0.198425 -4.76221 3.67087 -0.992126 51.8882 162.907 0.396851 -3.67087 -50.7969 -158.74c5.68914,0.0598111 11.4979,-1.55849 17.4509,-5.20158l0.460914 0.702142c2.28302,-1.04457 4.33304,-2.16482 5.89918,-3.23915l42.463 136.219 0 -6.74646 -41.967 -132.647c0.968315,-1.48734 11.3695,1.35723 18.0567,-6.54803l4.56378 -0.793701 33.5339 110.523 -0.297638 -4.16693 -31.9465 -106.554c14.0553,2.21556 15.6096,-1.22372 18.9496,-2.28189l3.96851 1.68662 24.2079 78.0804 1.19055 -2.28189 -24.9024 -77.2867c7.75871,-1.06243 14.7949,-5.45301 21.2315,-12.6l18.2551 61.0158 0.793701 -1.98425 -17.8583 -60.1229c9.8881,-2.74479 12.6329,-5.48958 18.9496,-8.23465l11.8063 36.9071 0.793701 -2.08347 -11.5087 -36.8079c1.05931,-1.02472 1.65402,-2.05002 2.18268,-3.07559 -3.18756,3.2828 -7.09824,5.11824 -11.6079,5.75433 -1.95137,-1.42158 -3.86986,-1.75238 -5.55591,-1.5874 1.2566,0.992126 2.91005,1.38898 3.86929,2.67874l-3.77008 1.38898c-1.41732,-1.90687 -2.86441,-2.77739 -4.66299,-2.48032 0.992126,1.25688 2.71134,1.42243 2.48032,3.07559l-1.19055 0.694489c-3.04271,-0.892914 -2.81112,-3.86929 -4.96063,-4.46457l0.198425 1.88504 1.98425 2.57953 -1.68662 -1.38898 -1.5874 2.3811 -2.87717 -0.297638 1.09134 -2.87717 1.98425 0.0992126 -1.88504 -2.28189 -0.694489 1.28976 -1.68662 0.297638 1.09134 0.892914 -0.694489 2.08347c-2.19997,-2.05058 -3.45657,-3.10847 -5.35748,-3.07559 1.05817,1.28976 2.61241,2.57953 3.1748,3.86929l-3.07559 -0.0992126c-1.09191,-1.98567 -3.44013,-2.41455 -5.05985,-2.28189 1.05817,0.926079 2.81084,1.75295 3.1748,2.77795 -4.16693,2.1498 -11.7071,1.91821 -17.5606,2.87717z"/>
  <path fill="#FFC8C8" d="M421.233 70.7154c-24.1288,11.5501 -44.7823,14.9735 -101.59,19.8068l0 2.87518c58.3206,-4.35827 89.4561,-11.0154 101.59,-22.682z"/>
  <path fill="#FFC8C8" d="M309.101 83.1745c-20.3394,20.2329 -115.433,-6.17613 -106.062,52.0728 0.745229,1.06498 3.72699,-0.106299 3.19465,-1.59732 -11.075,-52.6051 88.3851,-26.9413 102.868,-50.4754z"/>
  <polygon fill="#FFC8C8" points="342.645,154.735 351.59,186.362 352.868,185.723 343.572,155.808 "/>
  <path fill="#540000" d="M301.114 103.94c5.53748,-9.0516 17.4643,-7.24139 16.6122,-27.1545 2.43298,9.05103 0.573733,18.1023 -16.6122,27.1545z"/>
  <path fill="#540000" d="M315.491 101.171l-1.91792 1.17156c1.09644,3.3018 -0.0745512,7.02851 -3.51411,11.1813 -1.95194,-0.142866 -3.76186,-0.568914 -5.4309,-1.27786 0.320882,1.80822 2.02365,1.80964 3.19465,2.23625l-2.55572 3.19465c-0.639496,-1.27701 -1.81049,-1.91622 -2.87518,-2.23625 0.426047,1.17128 1.27729,1.81106 1.27786,3.51411l-1.59732 0.638929c-0.958394,-0.745512 -1.81049,-1.91622 -2.87518,-2.23625 0.603213,1.13613 0.922678,2.41399 0.958394,3.83358l-2.23625 0c-0.851811,-0.638929 -1.17213,-2.34085 -2.55572,-1.91679 0.319465,1.06469 0.851245,1.91679 0.957827,3.19408l-0.825733 0.398268c-0.992126,0.283465 -1.98425,-1.13386 -2.97638,-1.70079l0.531496 2.33858 -2.12599 0.318898c-0.814961,-0.566929 -1.52362,-1.55906 -2.44488,-1.70079 0.283465,1.02756 0.566929,1.84252 0.637796,2.87008 -1.55906,0.673229 -3.33071,-0.885827 -4.99607,-0.850394 -1.73622,1.09843 0.141732,3.36614 -5.20866,3.29528 -0.602079,-1.59449 -2.76321,-3.18926 -5.63386,-4.78347l3.61418 4.78347c-3.79134,0.956693 -7.58268,0.637796 -11.374,0.956693 -1.26227,0.0666142 -0.71263,-1.36063 -1.77987,-2.23172 -0.777827,-0.635244 -2.21329,-0.611433 -3.23972,-1.13386 -1.3201,-0.671528 -1.18091,-1.72545 -3.16545,-1.84309l0.318898 2.97638c0.56126,0.87789 1.11969,1.31754 2.03556,0.618803 1.49301,0.532347 3.72132,1.96781 5.29909,3.31427 -1.5412,3.67625 -4.69474,6.31559 -10.2047,7.44095 -0.885827,-0.283465 -2.09055,-1.94882 -2.65748,-2.44488 -0.496063,1.45276 0.496063,2.26772 0.744095,3.40158 -1.16929,-0.106299 -2.23228,0.212599 -3.50788,-0.318898l1.06299 2.55118c1.84252,-0.141732 3.54331,-0.708662 5.10236,-1.70079 -0.0354331,0.850394 0.354331,1.80709 0.850394,2.55118l0.212599 -2.44488c4.76589,-1.87342 7.8497,-4.85944 10.6299,-9.56693 3.72076,0.619654 9.07144,0.15874 13.9252,-0.637796l11.7992 -3.40158c11.2938,0.838205 23.5134,-11.8327 22.5465,-24.353z"/>
  <polygon fill="#540000" points="261.906,119.784 268.602,126.693 267.539,124.036 268.496,123.079 "/>
  <polygon fill="#540000" points="256.909,140.831 256.909,143.382 262.224,146.04 "/>
  <polygon fill="#540000" points="263.075,140.618 264.776,142.638 266.902,142.425 264.032,139.981 "/>
  <polygon fill="#540000" points="253.508,133.177 256.909,135.303 257.228,133.284 "/>
  <path fill="#540000" d="M296.134 105.752l4.57087 -3.50788c-1.20473,2.44488 -2.30315,3.50788 -4.57087,3.50788z"/>
  <path fill="#540000" d="M294.008 107.028c-1.52362,-0.496063 -3.15354,0.177165 -4.88977,0.106299 -0.990426,1.56501 -4.13121,2.77172 -6.90945,4.03937 2.12599,0.389481 4.3937,-0.496347 6.80315,-2.65748 1.02756,-0.814961 3.54331,-0.566929 4.99607,-1.48819z"/>
  <polygon fill="#540000" points="289.331,101.819 289.756,103.945 294.327,103.839 293.158,102.032 292.52,103.201 290.606,102.988 "/>
  <polygon fill="#540000" points="281.89,104.051 284.654,105.646 287.311,105.327 "/>
  <polygon fill="#540000" points="270.622,105.008 273.28,107.559 278.063,108.303 272.11,104.583 "/>
  <path fill="#540000" d="M275.831 109.579l5.31496 2.65748c-1.77165,0.531496 -3.54331,-0.354047 -5.31496,-2.65748z"/>
  <path fill="#540000" d="M263.181 105.008c4.10995,4.48271 8.39736,7.45881 13.0748,7.12205l-0.531496 -1.70079c-4.7126,-0.708662 -8.68111,-3.54331 -12.5433,-5.42126z"/>
  <polygon fill="#540000" points="253.72,105.858 260.949,110.429 263.287,109.473 258.398,104.37 257.441,105.54 "/>
  <polygon fill="#540000" points="263.287,115.744 265.839,113.299 270.091,112.024 265.732,109.473 265.626,110.855 263.287,109.792 264.138,112.13 "/>
  <polygon fill="#540000" points="260.524,116.701 254.571,122.229 255.528,123.398 "/>
  <polygon fill="#FFC8C8" points="253.475,272.775 232.626,211.388 235.624,213.197 "/>
  <polygon fill="#FFC8C8" points="259.146,295.102 279.156,358.804 278.432,352.164 "/>
  <polygon fill="#FFC8C8" points="258.747,207.594 251.797,189.062 254.153,188.917 "/>
  <polygon fill="#FFC8C8" points="309.07,287.832 292.855,234.553 294.725,235.559 309.74,284.757 "/>
  <polygon fill="#FFC8C8" points="314.901,228.56 304.437,191.698 306.545,192.431 "/>
  <polygon fill="#FFC8C8" points="339.184,220.654 331.077,195.173 333.7,196.584 339.131,215.752 "/>
  <polygon fill="#FFC8C8" points="263.499,397.664 250.68,355.851 263.737,393.694 "/>
  <polygon fill="#FFC8C8" points="280.349,193.39 277.793,180.292 274.918,179.653 "/>
  <polygon fill="#FFC8C8" points="227.318,196.904 228.871,197.238 230.193,205.21 "/>
  <path fill="#540000" d="M309.049 124.37c-1.22343,6.80911 -3.08495,10.6923 -6.54322,11.6501l-1.91509 -0.797953 0.319181 2.07468c-1.01084,1.01055 -2.34057,2.1274 -3.67058,2.39386l-0.797953 -0.478772c-2.71276,1.73565 -5.4258,1.62936 -8.13912,-0.319181l2.07468 2.87263 -2.07468 0.957544 -2.39386 -1.7555 -0.319181 0.638363 -3.3514 -1.43632 1.59591 2.55345 0.159591 1.91509 -1.91509 0.797953c-4.09607,-1.6492 -8.40473,-4.89288 -12.2885,-4.94731 3.51099,2.12769 9.36057,4.14936 10.533,6.38363 -5.24863,1.13386 -10.3555,1.13386 -15.3207,0l-3.51099 0.638363c-1.38302,1.43603 -2.99651,2.87235 -4.94731,4.30895 -1.80879,0.160724 -3.58186,0.17915 -5.1069,-0.797953l2.07468 2.39386 0 1.27673 2.71304 0.957544 4.46854 -4.14936 3.67058 -0.957544c-1.25802,-0.850961 -1.24016,-1.56047 0.052441,-2.1274 9.14939,1.35439 16.6156,0.431717 24.5245,-2.50073 2.42901,-0.692221 4.29109,-1.80936 5.58567,-3.3514l1.43632 1.27673 0.638363 -1.43632c1.33682,-0.413008 2.45849,-1.25518 3.51099,-2.23427l1.43632 1.27673c5.98394,-6.4783 10.0395,-12.3001 7.50076,-17.0762z"/>
  <path fill="#540000" d="M242.559 155.394l2.76378 3.40158c1.41732,-0.248315 2.40945,-1.06328 2.97638,-2.44488 1.87767,0.602079 3.61389,0.354047 5.20866,-0.744095l-1.06299 -1.27559 -2.76378 1.16929 0 -1.91339 -1.16929 1.06299 -2.97638 -1.38189 1.80709 2.12599c-1.45304,0.566929 -3.04753,0.566929 -4.78347,0z"/>
  <polygon fill="#540000" points="248.724,158.902 249.256,160.177 251.063,159.965 "/>
  <polygon fill="#540000" points="245.004,150.185 246.811,151.673 248.724,150.398 "/>
  <polygon fill="#540000" points="237.244,148.272 239.583,148.484 239.37,149.122 "/>
  <polygon fill="#540000" points="250.638,146.677 247.13,147.74 249.787,148.803 "/>
  <polygon fill="#540000" points="240.858,148.378 240.539,149.973 242.665,148.378 "/>
  <polygon fill="#540000" points="246.598,149.016 245.961,148.378 243.409,149.335 243.516,147.421 246.386,147.634 "/>
  <polygon fill="#540000" points="248.831,151.355 249.043,152.418 251.276,151.567 "/>
  <polygon fill="#FFC8C8" points="237.776,154.969 246.173,162.303 246.598,159.54 240.646,154.331 "/>
  <path fill="#540000" d="M291.457 153.268l5.52756 -4.99607c-0.283465,3.64932 -2.12599,5.31468 -5.52756,4.99607z"/>
  <polygon fill="#540000" points="285.929,150.929 289.756,154.969 288.268,156.67 285.185,151.461 "/>
  <polygon fill="#540000" points="288.161,160.284 290.5,162.835 290.394,160.603 "/>
  <polygon fill="#540000" points="287.736,156.351 284.972,158.689 278.701,161.028 274.236,163.792 275.299,160.815 273.28,157.414 279.232,159.54 279.764,157.839 280.827,157.095 281.783,158.583 282.846,158.37 284.76,154.969 "/>
  <polygon fill="#540000" points="269.24,157.52 273.598,162.091 272.004,164.217 271.791,162.091 268.921,159.008 "/>
  <polygon fill="#540000" points="262.65,155.075 265.52,157.839 264.244,155.075 "/>
  <polygon fill="#540000" points="270.409,161.666 268.709,164.323 271.154,162.729 "/>
  <polygon fill="#540000" points="260.311,157.733 264.35,161.028 265.094,160.603 268.071,162.622 264.988,158.902 263.075,158.796 "/>
  <polygon fill="#540000" points="264.988,162.516 265.094,164.429 266.795,164.217 "/>
  <polygon fill="#540000" points="257.122,162.41 260.736,161.772 264.032,162.729 263.925,164.323 261.374,163.26 260.736,164.217 259.673,163.047 257.866,164.004 "/>
  <path fill="#540000" d="M255.315 162.835l-1.70079 -1.06299 0 -2.55118c-2.3281,1.09899 -1.9834,6.44826 -5.95276,6.48426l-1.59449 0.637796 -1.48819 -1.06299 0 3.08268c2.01969,0.318898 2.97638,-1.48819 5.10236,-0.637796 1.87824,-2.33858 3.75619,-3.96851 5.63386,-4.88977z"/>
  <path fill="#540000" d="M239.476 161.453c-1.70079,0.0354331 -1.06299,2.30315 -5.10236,0.106299 1.16901,1.59421 2.90523,2.19657 5.20866,1.80709l-0.106299 -1.91339z"/>
  <polygon fill="#540000" points="234.374,166.236 238.945,168.256 241.602,164.642 239.051,166.343 236.606,165.705 "/>
  <path fill="#540000" d="M235.968 170.701l-4.14567 -1.48819c0.425197,2.19685 2.23228,1.94882 4.14567,1.48819z"/>
  <polygon fill="#540000" points="243.835,168.681 241.39,170.488 239.795,169.213 238.945,170.488 237.776,168.894 240.008,167.406 241.071,168.256 "/>
  <polygon fill="#540000" points="241.921,165.705 242.772,167.937 243.303,165.599 "/>
  <path fill="#540000" d="M286.673 161.453l-0.850394 3.29528c-1.34646,0.92126 -2.69291,1.55906 -4.03937,1.91339 -1.61178,3.10025 -5.08422,2.60419 -5.95276,4.03937 -1.23987,1.91339 -3.04696,2.40945 -5.42126,1.48819 0.779528,-1.45276 2.72835,-2.69291 4.57087,-3.08268 0.106299,-1.41732 0.850394,-3.25984 2.87008,-2.33858 1.06299,-1.16929 2.44488,-3.08268 5.74016,-3.50788l3.08268 -1.80709z"/>
  <path fill="#540000" d="M254.677 173.359c0.92126,0.744095 2.05512,0.956693 2.76378,2.23228l1.59449 -1.70079c1.24016,0.531496 2.58662,0.637796 4.03937,0 2.90551,-0.248032 5.2441,-1.06271 7.01575,-2.44488l-6.37796 1.06299c-3.01181,0.283465 -7.29922,0.141732 -9.03544,0.850394z"/>
  <path fill="#540000" d="M223.85 182.819l0.850394 -1.27559 1.48819 0.850394 1.59449 -1.70079c4.00394,1.45276 6.51969,-1.98425 9.77953,-2.97638 4.8189,-0.92126 5.95276,-2.55118 3.40158,-4.88977 1.27559,0.0708662 2.12599,1.20473 3.82677,0.212599 1.06299,0.53178 1.98425,0.496347 2.76378,-0.106299l6.05906 0.106299 0 1.38189c-0.708662,-0.637796 -1.55906,-0.850394 -2.55118,-0.637796l-0.637796 0.744095 -1.16929 -0.850394c-0.992126,0.141732 -1.55906,0.566929 -1.70079,1.27559l-2.65748 -0.425197c-2.28558,3.00331 -4.80133,4.96999 -7.65355,5.42126 -1.87824,1.84252 -3.75619,2.69291 -5.63386,2.55118 -1.94882,0.850394 -5.17323,0.212599 -7.75985,0.318898z"/>
  <path fill="#FFC8C8" d="M237.563 170.914c-3.0875,-2.58577 -7.90952,-1.98255 -8.92914,-4.88977 2.97638,1.62992 7.33465,0.0708662 8.92914,4.88977z"/>
  <polygon fill="#FFC8C8" points="252.445,123.185 256.484,126.374 254.465,123.185 "/>
  <path fill="#FFC8C8" d="M247.768 107.453l-7.97244 1.38189c2.0194,-1.94854 4.74775,-3.18869 8.18504,-3.72047l-0.212599 2.33858z"/>
  <path fill="#FFC8C8" d="M293.795 104.902c-7.37008,0.814961 -9.6378,3.54331 -15.7323,4.67717 5.03235,1.61348 8.27915,-1.66394 15.7323,-4.67717z"/>
  <path fill="#540000" d="M215.453 113.193c1.20473,1.13386 2.55118,1.41732 4.03937,0.850394 -0.142583,-2.07241 3.61332,-4.34013 9.14174,-6.69685 -4.23921,0.177165 -8.87897,2.42362 -13.1811,5.84646z"/>
  <path fill="#540000" d="M218.11 131.051c0.896882,0.996378 0.987875,2.8732 1.60526,4.56548 0.479906,1.31613 1.84961,2.16028 1.90262,3.30066 -3.56145,-0.229323 -4.19925,-3.38315 -3.50788,-7.86615z"/>
  <path fill="#540000" d="M216.622 132.114c-1.02784,-1.02699 -2.01997,-2.12428 -2.76378,-3.72047 -0.175465,-4.64599 5.14092,-11.8295 13.0748,-16.9016 -3.47244,5.2441 -10.3465,8.68111 -9.46063,12.2244 1.31102,-0.106299 3.36614,-3.08268 5.84646,-4.14567 -1.80709,4.1811 -6.05906,6.76772 -6.69685,12.5433z"/>
  <path fill="#540000" d="M213.327 124.992l-0.850394 -2.97638c0.744095,-0.531213 1.34617,-1.34617 1.80709,-2.44488l-0.956693 -2.55118 2.23228 0.850394c0.935434,-0.219402 1.49273,-1.19509 2.12599,-2.01969 -0.0708662,2.40945 -3.22441,5.3504 -4.35827,9.14174z"/>
  <path fill="#540000" d="M218.854 129.138l1.70079 0.106299c0.672945,-1.62992 1.62964,-3.11811 2.87008,-4.46457l-0.106299 -1.16929c-1.87399,1.8428 -3.44183,3.68561 -4.46457,5.52756z"/>
  <path fill="#540000" d="M221.831 132.221l2.33858 -4.57087c0.177165,2.58662 -1.34646,3.68504 -2.33858,4.57087z"/>
  <path fill="#540000" d="M237.882 104.477c-2.05512,-0.106016 -3.96851,0.212882 -5.74016,0.956693l1.38189 1.16929c1.09672,-1.06498 2.69178,-1.63077 4.35827,-2.12599z"/>
  <polygon fill="#540000" points="234.799,115.319 235.012,117.445 236.925,115.425 "/>
  <polygon fill="#540000" points="240.539,114.681 241.815,116.063 244.047,113.618 "/>
  <polygon fill="#540000" points="237.669,114.469 238.094,115.957 239.583,114.362 "/>
  <polygon fill="#540000" points="240.433,132.752 243.091,134.984 245.323,132.54 242.665,133.071 "/>
  <polygon fill="#540000" points="249.043,134.347 248.512,136.154 250.638,135.835 "/>
  <polygon fill="#540000" points="245.217,118.721 245.217,119.571 248.087,120.209 "/>
  <polygon fill="#540000" points="240.433,123.823 245.004,126.162 245.004,124.673 "/>
  <polygon fill="#540000" points="242.24,119.996 242.346,121.378 245.11,122.654 "/>
  <path fill="#FFC8C8" d="M250.319 122.229l-7.97244 1.27559c3.2777,0.443339 6.11207,0.26589 7.97244,-1.27559z"/>
  <path fill="#FFC8C8" d="M242.984 140.299l-2.01969 -5.95276c1.8068,0.566929 2.48003,2.55118 2.01969,5.95276z"/>
  <path fill="#FFC8C8" d="M247.13 139.874l-2.87008 -1.48819c2.14951,-0.895748 2.45537,0.35915 2.87008,1.48819z"/>
  <path fill="#540000" d="M220.874 140.831c0.814678,1.02728 1.48791,2.90523 2.01969,5.63386l3.08268 -1.16929 -2.44488 2.87008 0.318898 3.40158 1.38189 -1.16929 0.744095 0.850394 -2.23228 1.70079c0.426331,1.23931 0.354898,2.72778 0.212599,4.25197l1.48819 -0.744095 -1.38189 3.08268c-2.84797,8.83134 -8.41919,16.5736 -15.5197,23.7047 7.26378,-12.5257 17.7925,-17.2321 12.3307,-42.4134z"/>
  <polygon fill="#540000" points="223.425,164.429 229.165,155.394 229.059,158.583 "/>
  <polygon fill="#540000" points="229.484,145.296 227.882,146.877 226.827,146.784 227.89,145.296 "/>
  <polygon fill="#540000" points="227.252,151.673 229.909,152.63 229.01,151.141 229.803,148.697 "/>
  <path fill="#540000" d="M205.673 184.201c-7.18328,6.60161 -13.9334,12.6799 -23.2795,13.6063l1.06299 2.01969c8.82709,-2.32271 17.0031,-8.34208 24.2362,-15.3071l-2.01969 -0.318898z"/>
  <path fill="#540000" d="M215.24 176.547l12.7559 -14.7756c-4.55755,8.74517 -8.76501,13.1168 -12.7559,14.7756z"/>
  <path fill="#540000" d="M216.409 176.122c-4.81323,5.01081 -5.37477,7.68359 -8.7001,11.1002 -3.12321,3.2091 -7.52287,5.56838 -10.6464,8.77777l3.18898 0c7.98804,-6.51289 14.7002,-13.0808 16.1575,-19.878z"/>
  <path fill="#540000" d="M216.728 183.882c3.01181,-4.99607 7.93701,-11.0551 9.03544,-14.9882 -3.57874,5.0315 -7.37008,8.89371 -10.7362,15.0945l1.70079 -0.106299z"/>
  <polygon fill="#540000" points="214.283,184.945 212.37,186.752 215.665,185.158 "/>
  <path fill="#540000" d="M186.327 208.544l2.01969 1.27559 6.90945 -3.18898 3.93307 -0.744095c15.7056,1.54715 17.9839,-0.589607 20.1969,-3.29528 -4.99607,1.02756 -6.90945,2.26772 -8.61024,2.12599l-0.850394 -0.425197c-0.886111,0.496063 -1.91367,0.425197 -3.08268,-0.212599 -0.850111,1.06724 -1.94882,0.640347 -3.08268,0 -1.7365,0.425197 -3.61446,0.566929 -5.63386,0.425197 -1.62992,1.09843 -2.83465,0.92126 -4.25197,1.38189 -4.41921,1.30904 -4.28825,2.36268 -7.54725,2.65748z"/>
  <path fill="#540000" d="M183.457 201.953l2.55118 4.14567 4.57087 -1.70079c-3.11811,0.425197 -4.8189,-0.283465 -5.10236,-2.12599l-2.01969 -0.318898z"/>
  <polygon fill="#540000" points="186.327,202.91 190.898,202.697 189.409,201.422 "/>
  <path fill="#540000" d="M195.362 196.107l2.44488 0.531496c-1.70079,1.62992 -3.61418,3.04725 -5.10236,4.88977l-0.531496 3.08268 -1.70079 -0.106299c0.602646,-0.92126 0.638079,-1.98425 0.106299,-3.18898 2.01997,-1.31131 3.61446,-3.04753 4.78347,-5.20866z"/>
  <polygon fill="#540000" points="209.713,189.516 212.157,191.748 214.602,191.429 213.752,190.047 "/>
  <polygon fill="#540000" points="212.157,193.555 212.157,194.831 213.965,193.555 "/>
  <polygon fill="#540000" points="215.559,190.579 218.642,190.685 218.323,192.811 "/>
  <polygon fill="#540000" points="215.134,195.256 216.941,194.193 215.028,193.768 "/>
  <polygon fill="#540000" points="218.323,194.725 219.173,196.638 220.768,193.449 "/>
  <path fill="#540000" d="M179.142 216.613c2.39046,3.17821 1.62425,5.79629 3.67966,8.19298 1.1126,1.29713 0.131244,2.82954 2.12769,5.24636 1.55367,1.88079 2.24164,4.95355 3.60851,6.98826l-1.43632 -7.02199 2.71304 2.55345 1.43632 -1.59591 -0.478772 -1.7555 1.43632 -1.11713c1.17014,4.68114 3.13852,6.01115 3.51099,14.044l-1.91509 2.71304 -0.797953 -5.26649 -1.43632 1.43632c-0.904536,5.95786 4.89402,3.93647 -2.71304,17.8742l3.83018 -2.87263 -0.638363 3.98977c2.34794,1.16787 2.07893,3.08353 1.43632,5.1069l3.3514 5.26649 0 14.3632c1.26312,4.12214 1.44907,9.60152 1.43632,16.2782 1.59562,2.07439 2.1274,5.00032 1.59591,8.77748l2.71304 2.39386c-0.957544,-5.47937 -3.03222,-17.0232 -3.3514,-27.4496 0.837922,-5.32007 0.332221,-11.4914 -0.957544,-18.5125l-0.797953 -9.73503 -1.42753 3.67824 -1.28551 -0.167244 0.478772 -3.51099 -0.797953 0 -0.478772 -2.87263 1.83827 -1.99843 1.06243 4.90961 0.291118 -6.74136c-0.220819,-2.916 -0.716032,-4.42545 0.00850394,-7.03191 1.00063,-3.59858 -1.2841,-4.79821 0.442205,-10.0327 0.932882,-2.82954 -3.60255,-9.61711 -2.3658,-14.694l2.07468 -0.478772 0.957544 2.07468 1.7555 -0.159591 -0.159591 -2.39386 5.74526 -3.3514 4.62813 -1.27673 54.7396 178.103 2.39386 2.55345 -55.8567 -182.412 5.58567 -4.94731 -3.67058 0.478772c-0.372473,1.5429 -2.50044,3.72388 -3.98977,4.62813 -2.02167,0.691654 -3.83074,1.59619 -5.42608,2.71304l-0.478772 -1.11713 -3.03222 2.55345c-0.957827,-0.106299 -2.12854,0.212882 -3.51099,0.957544l-3.3514 0.159591c-2.18126,-0.106583 -3.40469,1.06384 -5.1069,1.59591 -1.5429,0.0532914 -2.66003,-0.744662 -3.3514,-2.39386l-1.91509 0.957544 1.27673 2.23427 -1.11713 0.478772 -3.03222 -3.03222 -1.27673 0.638363z"/>
  <path fill="#540000" d="M190.951 286.993c2.82614,2.38677 3.61049,4.68737 5.1069,12.2885l0 -14.6823 -1.43632 -0.797953c-0.798237,1.91537 -2.02167,2.9795 -3.67058,3.19181z"/>
  <path fill="#540000" d="M202.123 279.173l-3.67058 -24.4174c3.03194,9.72142 4.04249,17.6743 3.67058,24.4174z"/>
  <path fill="#540000" d="M201.484 248.691l-2.71304 -12.1289c2.18098,3.82989 3.08495,7.87267 2.71304,12.1289z"/>
  <path fill="#540000" d="M179.461 241.35c6.17103,-6.06444 1.80879,-10.2138 2.71304,-15.3207 5.05389,11.2776 4.14936,16.3845 -2.71304,15.3207z"/>
  <path fill="#540000" d="M179.142 244.222c2.28728,2.13789 1.5429,4.43566 3.03251,6.41367 1.9148,2.54325 5.74526,4.4487 7.18129,7.15153 -7.87267,-3.4577 -11.2774,-7.97925 -10.2138,-13.5652z"/>
  <path fill="#540000" d="M191.271 271.991c0.585071,-3.19181 -1.06413,-6.06444 -1.59591,-9.09667 -0.319465,4.52155 0.212315,7.55377 1.59591,9.09667z"/>
  <path fill="#540000" d="M175.471 233.849c-0.478772,-5.58567 -1.43632,-10.3734 -3.83018,-13.8844 0.26589,3.98977 1.9681,7.18158 1.7555,11.0118l2.07468 2.87263z"/>
  <path fill="#540000" d="M178.982 242.627l-2.87263 -5.42608c-0.319181,2.28728 1.11713,3.93647 2.87263,5.42608z"/>
  <path fill="#FFC8C8" d="M130.945 95.484c-7.23487,0.0532914 -20.8534,-12.0223 -28.4071,0.638363 -0.797953,1.22343 2.39386,2.28728 3.3514,0.797953 2.50016,-11.065 16.81,0.212599 25.2153,0.319181l-0.159591 -1.7555z"/>
  <path fill="#FFC8C8" d="M114.986 108.411c3.75109,0.132945 6.571,-0.665008 7.34117,-3.51099 1.06413,4.52155 -1.22343,8.88378 -7.34117,3.51099z"/>
  <path fill="#540000" d="M111.475 99.7929c1.3252,2.87745 3.02939,3.56684 5.74526,4.46854l0 3.3514c1.86435,0.269858 3.5144,0.218551 3.67058,-2.07468l-1.91509 -0.797953 -3.3514 -3.83018 -0.638363 0.957544 -3.51099 -2.07468z"/>
  <path fill="#540000" d="M122.806 105.059c4.20236,-0.0532914 7.76637,0.318898 10.6926,1.11713 4.20236,0.585071 6.80911,1.64891 9.73503,5.58567l-2.23427 0.159591c-1.59591,-1.96838 -2.71304,-3.2984 -5.26649,-3.51099l3.98977 3.98977 -0.797953 1.11713c-1.11742,-1.4366 -2.23455,-2.23455 -3.3514,-2.39386l1.7555 2.71304 -1.11713 0.159591 -2.55345 -2.55345 -5.1069 0.957544 -0.319181 1.43632c-1.59591,0.63978 -3.1921,0.53263 -4.78772,0.319181l-0.957544 -1.27673c1.17014,-0.851528 1.59534,-2.23484 1.91509,-3.51099l-1.11713 -1.91509 2.87263 1.91509 -2.07468 -2.39386 -1.43632 -0.319181 0.159591 -1.59591z"/>
  <path fill="#540000" d="M153.926 187.408l-8.77748 -17.3954c1.52901,7.39389 4.26841,13.405 8.77748,17.3954z"/>
  <path fill="#540000" d="M160.15 183.099l-9.09667 -20.268c0.343276,3.95887 3.37606,12.5776 7.97953,22.5023l1.11713 -2.23427z"/>
  <path fill="#540000" d="M160.47 187.887l2.55345 -5.74526c-2.45282,0.846709 -2.66315,3.18898 -2.55345,5.74526z"/>
  <polygon fill="#540000" points="161.906,174.641 160.322,176.066 161.587,179.109 "/>
  <path fill="#540000" d="M156.639 201.133l-2.71304 -3.83018c1.75521,0.425481 2.6589,1.70164 2.71304,3.83018z"/>
  <path fill="#540000" d="M97.5909 104.102c-5.0006,0.53178 -5.53266,-0.851245 -8.29871,-1.27673 5.47909,8.72419 6.9687,2.76605 8.29871,1.27673z"/>
  <polygon fill="#540000" points="88.4943,104.9 88.1751,109.209 87.058,109.049 87.5367,106.177 87.058,105.538 "/>
  <path fill="#540000" d="M85.1429 102.027c0,1.5429 -0.478772,2.92592 0,4.62813 -1.48961,-1.32973 -1.48932,-2.87235 0,-4.62813z"/>
  <polygon fill="#540000" points="81.3127,103.144 81.3127,109.049 83.2278,108.411 82.1107,107.134 82.5894,105.059 "/>
  <polygon fill="#540000" points="75.4078,104.102 77.0038,105.059 80.3552,104.261 79.3976,102.825 "/>
  <polygon fill="#540000" points="143.872,113.837 146.266,116.869 148.181,114.316 "/>
  <path fill="#540000" d="M142.276 105.059c3.13852,3.13852 6.06416,3.93619 8.77748,2.39386 10.4539,-3.59036 16.9441,-7.95232 18.5125,-12.4481l-0.638363 -0.638363c1.61518,4.08813 -19.1078,16.56 -26.6516,10.6926z"/>
  <polygon fill="#540000" points="78.1209,105.538 79.238,105.538 79.238,107.932 78.4401,107.772 "/>
  <path fill="#540000" d="M103.017 103.942l3.83018 9.25626 0.478772 -1.59591c-0.106583,-3.2984 -1.80879,-4.68142 -2.23427,-7.50076l-2.07468 -0.159591z"/>
  <path fill="#540000" d="M106.847 114.475c1.17014,2.34057 2.50016,4.52155 4.94731,6.06444l-3.51099 -6.06444 -1.43632 0z"/>
  <path fill="#540000" d="M115.146 142.244c2.17417,6.1441 6.60501,2.12145 8.91468,-4.44898 0.941953,-2.67902 -1.40598,-5.40907 -4.28854,-8.40076 -2.88255,-2.99112 -6.30057,-6.24501 -8.13714,-7.41827 0.977386,4.20407 6.80826,6.61323 8.86961,11.3899 1.93635,4.48725 0.623339,13.4306 -5.35862,8.87811z"/>
  <path fill="#540000" d="M153.607 128.36c-0.532063,-1.96838 -1.48961,-4.04306 -2.87263,-4.78772 0.957544,1.59591 -0.638363,3.83018 2.87263,4.78772z"/>
  <path fill="#540000" d="M174.354 130.913c-2.37515,-1.02246 -5.1738,-0.289701 -7.44633,-1.31216 -2.57499,-1.15824 -4.61084,-4.07282 -7.07641,-5.23106 2.84599,6.17046 7.42054,8.8835 14.5227,6.54322z"/>
  <path fill="#540000" d="M167.332 145.117c-2.18126,-3.2451 -4.52183,-6.01144 -6.54322,-9.73503 0.718016,3.01862 2.47323,6.55569 5.74526,10.8522l0.797953 -1.11713z"/>
  <path fill="#540000" d="M137.808 152.777l-3.19181 -7.50076c-0.851245,3.13852 0.212315,5.6384 3.19181,7.50076z"/>
  <path fill="#540000" d="M141.319 145.915l-4.14936 -7.81994c3.51071,1.32973 4.89345,3.93619 4.14936,7.81994z"/>
  <path fill="#540000" d="M144.989 156.288c-2.50044,-0.851245 -4.57512,-2.12797 -6.22403,-3.83018l-0.159591 2.23427c1.9681,1.01055 3.77688,1.70221 6.38363,1.59591z"/>
  <path fill="#540000" d="M148.66 156.448c1.8085,-6.17074 1.27616,-11.2779 -1.59591,-15.3207l1.59591 -2.55345c2.79354,8.37865 3.5915,15.0284 0,17.8742z"/>
  <polygon fill="#540000" points="162.385,154.213 154.565,146.074 154.884,144.478 163.023,152.617 "/>
  <path fill="#540000" d="M169.886 149.426c-1.01084,2.28756 -2.66003,3.2984 -3.98977,4.94731l-2.87263 -0.797953c2.44772,-1.06243 4.84158,-2.23172 6.8624,-4.14936z"/>
  <path fill="#540000" d="M170.524 148.787l-1.43632 -4.46854c1.54205,1.06328 2.02082,2.5526 1.43632,4.46854z"/>
  <path fill="#540000" d="M169.886 150.862c1.38416,3.05915 2.23455,5.71918 1.91509,7.50076 -0.797953,-2.28728 -2.0211,-4.36195 -3.67058,-6.22403l1.7555 -1.27673z"/>
  <path fill="#540000" d="M173.556 154.213c0.53178,1.64891 3.77688,3.4577 8.29871,10.2138l-3.3514 -6.54322c2.92564,0.638079 6.48964,0.850678 10.6926,0.638363 -9.84161,-1.43632 -10.4267,-2.87263 -15.6399,-4.30895z"/>
  <path fill="#540000" d="M174.514 166.981c-2.76888,-1.3252 -2.71474,-4.83818 -5.26649,-8.93708 4.94731,2.81934 3.98977,6.11745 5.26649,8.93708z"/>
  <path fill="#540000" d="M171.801 169.534c0.0530079,-3.51099 -2.28756,-3.98977 -3.67058,-11.0118 -0.26589,7.075 0.95726,10.7456 3.67058,11.0118z"/>
  <path fill="#540000" d="M167.492 168.257c-0.744945,-4.20265 -2.92592,-6.49021 -4.14936,-8.77748 -0.212882,3.77688 2.44687,7.075 4.14936,8.77748z"/>
  <path fill="#540000" d="M177.227 178.152c-0.372473,-4.36224 -1.70249,-6.6498 -2.71304,-9.73503 3.13852,2.0211 4.62784,5.26592 2.71304,9.73503z"/>
  <path fill="#540000" d="M182.174 176.556l-3.03222 -2.87263c2.28728,-0.319181 3.29783,0.638363 3.03222,2.87263z"/>
  <path fill="#540000" d="M176.907 185.493c-7.55405,2.02139 -8.4053,-6.49021 -12.6077,-9.73503 1.20529,3.67002 4.41638,15.5914 12.6077,9.73503z"/>
  <path fill="#540000" d="M169.247 181.822c-0.212882,-4.78772 -1.38331,-4.46854 -2.07468,-6.70281 3.6703,1.38302 4.36195,3.61729 2.07468,6.70281z"/>
  <path fill="#540000" stroke="black" stroke-width="0.216" d="M175.152 189.642c5.26819,-4.13603 12.6113,-1.56954 21.869,-12.568 4.63238,-5.50318 10.1574,-11.1447 12.2834,-20.6269 1.02132,6.08599 -2.7068,12.9353 -7.57956,18.9414 -6.67815,8.23125 -11.8783,13.3033 -26.5728,14.2535z"/>
  <path fill="#FFC8C8" d="M171.801 191.238c12.2885,-1.09701 22.3625,-6.14778 28.9794,-14.8876 7.58098,-10.0131 10.2756,-16.2337 9.3223,-25.3293 8.13912,15.1078 -17.0762,45.1109 -38.3018,40.2168z"/>
  <path fill="#540000" d="M179.78 183.099c-0.319465,-1.70277 -0.426047,-3.40498 -0.319181,-5.1069 -2.12797,1.8085 -1.06413,3.93647 0.319181,5.1069z"/>
  <path fill="#540000" d="M183.291 186.131l-3.19181 -3.51099c2.76605,0.318898 3.82961,1.48904 3.19181,3.51099z"/>
  <path fill="#540000" d="M185.559 185.653l-2.58747 -2.84627c2.24221,0.25852 3.10451,1.20728 2.58747,2.84627z"/>
  <path fill="#540000" d="M178.378 187.089l-2.58747 -2.84627c2.24221,0.25852 3.10451,1.20728 2.58747,2.84627z"/>
  <path fill="#540000" d="M209.145 147.032c-1.6492,-1.80879 -2.97921,-3.77717 -4.94731,-5.42608 2.12939,-0.113953 4.09862,0.412725 4.94731,5.42608z"/>
  <path fill="#540000" d="M203.719 115.114c2.36721,-3.53792 4.86766,-6.67673 7.66035,-8.93708 -3.19181,-0.479055 -8.77748,6.96813 -7.66035,8.93708z"/>
  <path fill="#540000" d="M203.08 136.818c-0.532347,-2.81962 -1.27729,-5.21348 -2.23427,-7.18158 -0.212882,2.39386 0.850961,4.62813 2.23427,7.18158z"/>
  <path fill="#540000" stroke="black" stroke-width="0.216" d="M164.779 207.676c-0.212882,-6.17103 -1.70249,-9.14996 -2.55345,-13.7248 -1.27729,5.00032 -0.425764,9.57487 2.55345,13.7248z"/>
  <path fill="#540000" d="M169.566 218.688c1.59619,-6.30482 -0.318898,-10.5602 -3.83018,-13.8844 0.850961,3.83018 4.57484,7.18158 2.55345,11.4905l1.27673 2.39386z"/>
  <path fill="#540000" d="M170.205 209.751c0.638363,-4.52183 1.27673,-6.17103 0.957544,-10.6926 2.23427,0.95726 1.91509,9.78804 -0.957544,10.6926z"/>
  <path fill="#540000" d="M167.332 201.133l-1.11713 2.71304c1.11713,1.27673 2.23427,2.07468 3.3514,3.83018 -0.106583,-2.50044 -1.48961,-4.36224 -2.23427,-6.54322z"/>
  <polygon fill="#540000" points="167.811,197.462 167.811,198.739 170.524,198.58 "/>
  <path fill="#540000" d="M152.969 211.666c1.07972,-0.842741 1.30819,-2.11096 0.684851,-3.80466l1.8686 -0.823465c-0.372189,2.02139 -0.106299,4.52155 -1.11713,6.06444l-1.43632 -1.43632z"/>
  <path fill="#540000" d="M155.682 201.931c0.159307,0.957827 -0.106583,2.12854 -0.797953,3.51099l1.59591 0.638363c0.585071,-1.8085 0.318898,-3.19125 -0.797953,-4.14936z"/>
  <path fill="#FFC8C8" d="M124.562 150.702c16.1187,31.1732 5.26649,48.3027 15.7995,63.8363 -1.43632,-8.72448 -4.46854,-13.6185 -4.30895,-26.1729l2.71304 8.4583c-4.41553,-32.7694 -6.59651,-31.0672 -14.2036,-46.1217z"/>
  <path fill="#FFC8C8" d="M139.723 225.231c-0.477638,-4.31036 -1.06243,-8.51386 -2.39386,-11.9693 -0.159874,4.46854 0.850678,8.35172 2.39386,11.9693z"/>
  <polygon fill="#540000" points="143.234,192.834 144.83,195.228 144.989,191.558 "/>
  <polygon fill="#540000" points="145.468,200.495 147.702,198.739 147.702,200.814 "/>
  <polygon fill="#540000" points="149.458,219.805 151.373,225.231 152.809,223.635 "/>
  <path fill="#540000" d="M158.874 224.274c-1.06441,-1.6492 -2.12825,-2.66032 -3.19181,-3.03222 0.850961,0.904252 1.27616,2.0211 1.27673,3.3514l1.91509 -0.319181z"/>
  <path fill="#540000" d="M153.926 242.786c4.15049,-2.07383 4.89459,-7.44718 5.26649,-16.2782l-1.43632 0.159591c-0.159024,6.11774 -1.11657,11.7031 -3.83018,16.1187z"/>
  <path fill="#540000" d="M163.661 217.411l2.23427 0.797953 0.319181 8.13912c-0.851245,-2.97921 -2.02167,-5.79855 -2.55345,-8.93708z"/>
  <path fill="#540000" d="M166.055 227.146c0.159591,5.42608 1.11713,9.41585 0,16.757l1.59591 0.159591c0.744378,-9.8949 0.212315,-15.5341 -1.59591,-16.9166z"/>
  <polygon fill="#540000" points="164.3,235.445 163.981,241.988 161.587,238.477 "/>
  <path fill="#540000" d="M161.587 240.871l-1.27673 -4.14936c-0.426047,2.0211 -0.000283465,3.40413 1.27673,4.14936z"/>
  <path fill="#540000" d="M168.928 249.968l-7.50076 -7.02199c1.01027,3.45799 3.0841,6.11717 7.50076,7.02199z"/>
  <path fill="#540000" d="M171.96 252.521c0.850961,-4.57484 1.70221,-8.19213 2.55345,-12.2885l-1.91509 -0.159591c-0.638646,4.36224 -1.48989,8.99037 -0.638363,12.4481z"/>
  <path fill="#540000" d="M159.033 255.873l-1.43632 -6.54322c2.18325,1.76825 2.6572,3.924 1.43632,6.54322z"/>
  <path fill="#FFC8C8" d="M140.521 239.754l-0.478772 -7.18158c-0.479055,2.81934 -0.319181,5.21292 0.478772,7.18158z"/>
  <path fill="#FFC8C8" d="M144.032 251.564l-3.3514 -8.77748c-0.159591,3.564 0.95726,6.48964 3.3514,8.77748z"/>
  <path fill="#540000" d="M175.471 266.725c-1.55594,-4.90762 -2.5937,-9.29651 -2.87263,-12.9268 2.2612,4.30895 3.59093,8.61733 2.87263,12.9268z"/>
  <path fill="#540000" d="M164.779 274.225c0.425764,-4.68142 3.56429,-11.2779 1.27673,-14.044 -0.159591,6.06444 -2.23427,9.89462 -3.3514,14.8419l2.07468 -0.797953z"/>
  <path fill="#540000" d="M167.97 270.076l3.51099 -7.34117c0.106583,3.93619 -1.06356,6.38306 -3.51099,7.34117z"/>
  <path fill="#540000" d="M162.225 265.288l-2.87263 -3.51099c0.106299,1.80822 1.06384,2.97865 2.87263,3.51099z"/>
  <path fill="#540000" d="M172.12 273.747c0.425764,-3.56429 1.48961,-5.21348 2.23427,-7.81994l-1.59591 0.159591c-1.06356,1.91509 -1.27616,4.46854 -0.638363,7.66035z"/>
  <polygon fill="#540000" points="178.184,261.937 179.94,260.66 182.174,262.735 181.376,263.852 "/>
  <polygon fill="#540000" points="155.522,272.63 156.799,271.512 159.193,275.981 "/>
  <path fill="#540000" d="M181.216 268.321l-3.3514 -4.14936c-0.485292,3.25162 1.27276,3.88715 3.3514,4.14936z"/>
  <path fill="#540000" d="M182.653 257.309l-3.19181 -4.14936c-0.0532914,1.54261 1.48932,3.72359 3.19181,4.14936z"/>
  <path fill="#540000" d="M185.206 272.151c-1.27701,2.02139 -1.48989,4.25594 -0.638363,6.70281 -2.9795,-0.957544 -3.72388,-6.38363 0.638363,-6.70281z"/>
  <path fill="#540000" d="M183.132 266.884c-0.0532914,-1.6492 0.69137,-2.34085 -0.159591,-4.94731 2.60646,0.372189 1.54261,5.2132 0.159591,4.94731z"/>
  <path fill="#540000" d="M183.132 271.672c-0.0532914,-1.6492 0.69137,-2.34085 -0.159591,-4.94731 2.60646,0.372189 1.54261,5.2132 0.159591,4.94731z"/>
  <path fill="#540000" d="M179.78 272.789l-2.07468 -2.87263c1.54261,0.319181 2.23399,1.27673 2.07468,2.87263z"/>
  <polygon fill="#540000" points="160.15,267.203 159.033,266.725 158.874,269.119 160.295,268.918 "/>
  <path fill="#540000" d="M162.544 282.843c0.212599,-1.86208 0.106299,-4.04306 -0.478772,-5.58567 2.29465,2.0245 1.76003,5.05786 0.478772,5.58567z"/>
  <path fill="#540000" d="M168.449 282.205l-1.7555 -1.7555c0.904252,-0.372473 2.12769,0.850961 1.7555,1.7555z"/>
  <path fill="#540000" d="M168.768 286.035l-2.87263 -1.91509c1.17043,-1.27673 2.12769,-0.638363 2.87263,1.91509z"/>
  <path fill="#540000" d="M162.225 297.526c2.81962,-2.18126 1.01084,-6.59651 2.23427,-10.3734 -3.93647,4.57484 0.106583,6.59622 -2.23427,10.3734z"/>
  <path fill="#540000" d="M162.864 302.154l-1.43632 -3.3514c1.11713,0.319181 1.59591,1.91509 1.43632,3.3514z"/>
  <path fill="#FFC8C8" d="M142.915 258.905c0.551622,6.91541 4.66101,14.8947 8.4583,25.6941 -1.5429,-7.60734 -3.72388,-14.8952 -4.62813,-22.8215l-0.957544 3.98977c-1.27673,-2.44715 -1.59591,-5.21348 -2.87263,-6.8624z"/>
  <path fill="#FFC8C8" d="M148.82 284.12c-3.78822,0.166961 -3.15553,-11.0032 -6.54322,-20.4276 1.4811,3.81515 3.00189,9.60634 4.6287,13.7577 2.23002,5.68942 4.83959,7.64589 5.90429,12.5748l-3.98977 -5.90485z"/>
  <path fill="#FFC8C8" d="M162.225 311.889c-4.68142,-8.2457 -9.52243,-13.4589 -14.044,-24.7365 0.671244,8.58416 6.72237,16.4174 14.044,24.7365z"/>
  <path fill="#FFC8C8" d="M156.799 310.772l-4.62813 -12.2885c0.69137,6.64952 2.23399,10.7453 4.62813,12.2885z"/>
  <path fill="#540000" d="M175.152 282.843c-4.52183,4.25594 -1.06413,13.7781 -6.38363,20.4276 7.55377,-3.93647 3.77688,-15.6929 6.38363,-20.4276z"/>
  <path fill="#540000" d="M175.79 296.409c1.43632,-1.01084 1.59591,-7.44775 2.39386,-11.1713 -3.83018,3.72359 -1.27673,8.08583 -2.39386,11.1713z"/>
  <path fill="#540000" d="M177.386 298.802c0.478772,-2.23427 2.55345,-3.03222 1.43632,-6.70281 3.51099,2.50016 0.478772,6.75581 0,8.4583l-1.43632 -1.7555z"/>
  <polygon fill="#540000" points="181.536,284.439 187.6,291.78 186.802,289.227 187.44,288.429 "/>
  <polygon fill="#540000" points="184.727,281.247 186.643,282.205 186.643,280.609 "/>
  <path fill="#540000" d="M187.76 313.804c6.41112,-9.072 7.63399,-17.6386 1.27673,-24.577 3.71622,7.72583 4.91584,15.7317 -2.87263,24.7365l1.59591 -0.159591z"/>
  <polygon fill="#540000" points="183.61,299.441 185.685,301.356 185.845,299.122 "/>
  <polygon fill="#540000" points="182.812,304.388 183.929,306.942 185.685,304.707 184.408,303.909 "/>
  <path fill="#540000" d="M167.492 318.272c0.850961,-2.18126 0.26589,-4.20265 -0.319181,-6.06444 2.34879,0.953008 1.70702,4.83789 0.319181,6.06444z"/>
  <polygon fill="#540000" points="174.833,313.964 182.014,321.464 183.291,320.666 176.588,313.325 "/>
  <path fill="#540000" d="M183.77 317.953c-5.05474,-3.40498 -7.18271,-6.80967 -7.97953,-10.2138l-2.07468 2.71304c3.03222,2.81934 5.58567,5.79827 10.0542,7.50076z"/>
  <path fill="#FFC8C8" d="M157.597 314.123c0.850961,3.564 1.96753,6.8624 3.67058,9.57544 -0.532063,-2.81962 -1.5429,-5.79855 -1.59591,-8.4583l-2.07468 -1.11713z"/>
  <path fill="#540000" d="M176.907 328.486c0,-6.6498 -0.638363,-6.59651 -0.957544,-9.89462 -2.23427,3.4577 0.319181,7.39418 0.957544,9.89462z"/>
  <polygon fill="#540000" points="160.31,316.357 162.066,319.23 161.427,316.198 "/>
  <polygon fill="#540000" points="190.154,315.24 192.867,319.23 192.867,317.794 191.43,315.4 "/>
  <path fill="#540000" d="M192.867 315.4l0.478772 -6.54322c0.797953,-1.96838 5.26649,2.60646 1.11713,3.03222l-0.478772 3.98977 -1.11713 -0.478772z"/>
  <polygon fill="#540000" points="198.293,311.57 200.846,314.602 201.006,312.208 "/>
  <polygon fill="#540000" points="200.048,317.155 200.048,320.826 201.804,318.432 "/>
  <polygon fill="#540000" points="184.249,322.741 186.643,325.773 186.643,324.337 185.525,322.901 "/>
  <path fill="#540000" d="M175.95 339.019l-1.59591 -11.1713c-0.425764,4.20236 -1.01084,8.24542 1.59591,11.1713z"/>
  <path fill="#540000" d="M185.525 347.797c5.88473,-3.44098 6.67786,-8.44498 6.46696,-13.1134 -0.238961,-5.29087 -0.513922,-7.80322 -2.31761,-12.7403 2.77654,1.46948 3.97162,8.06684 3.61134,14.2234 -0.490394,8.38177 -3.27515,10.5596 -8.55865,13.3858l-2.23427 -2.55345 3.03222 0.797953z"/>
  <path fill="#FFC8C8" d="M172.599 336.625l-7.34117 -11.8097c0.770741,4.12271 2.73884,8.11191 7.34117,11.8097z"/>
  <path fill="#FFC8C8" d="M173.875 347.637l-5.74526 -13.7248c0.638363,5.63868 2.55345,10.2132 5.74526,13.7248z"/>
  <polygon fill="#540000" points="167.651,339.977 169.726,342.849 169.566,341.413 168.609,339.977 "/>
  <path fill="#540000" d="M175.79 347.318l-0.319181 -5.74526c0.585071,1.91509 3.40441,4.78772 0.319181,5.74526z"/>
  <polygon fill="#540000" points="192.228,321.145 196.537,328.646 198.612,321.145 197.176,319.07 195.58,320.188 194.303,319.23 "/>
  <polygon fill="#540000" points="199.729,324.975 202.761,330.082 200.208,332.476 199.729,329.125 198.133,325.773 "/>
  <path fill="#540000" d="M203.24 339.498c-3.48492,-1.3028 -6.35726,-7.04778 -5.90485,-10.8522 0.926079,1.79717 1.3731,3.59405 2.77767,5.39093l2.64841 -1.24158 1.11713 1.11713 -2.55345 2.23427 0.957544 0.957544 1.43632 -0.957544 -0.478772 3.3514z"/>
  <polygon fill="#FFC8C8" points="179.78,349.393 191.749,364.075 189.515,357.851 182.812,349.552 "/>
  <path fill="#540000" d="M202.282 362.319c-7.02199,-6.33062 0,-6.59651 -10.533,-15.6399l2.23427 -1.43632c6.75581,7.44747 5.53238,11.7031 8.29871,17.0762z"/>
  <path fill="#540000" d="M214.252 364.075c-8.19978,-6.56986 -11.2187,-14.2305 -11.3309,-22.5023l1.27673 0c-0.319181,11.1713 7.66035,16.4378 10.0542,22.5023z"/>
  <polygon fill="#540000" points="205.474,341.573 206.911,344.765 207.708,344.605 206.911,341.732 "/>
  <path fill="#540000" d="M219.199 368.863c-5.79855,-9.84161 -7.76693,-15.2144 -11.6501,-22.8215 0.970583,7.20822 5.73137,16.5705 11.6501,22.8215z"/>
  <path fill="#540000" d="M203.719 348.276c-1.96838,3.83018 -3.61758,2.55345 -5.42608,3.83018 0.765355,3.37238 6.51459,-0.0462047 5.42608,-3.83018z"/>
  <path fill="#540000" d="M205.155 351.308c-1.96838,3.83018 -4.41553,0.957544 -6.22403,2.23427 1.80652,3.14844 7.23204,0.905953 6.22403,-2.23427z"/>
  <path fill="#540000" d="M182.334 370.618l-0.159591 -11.1713 1.27673 0c-0.372473,3.72388 -0.425764,7.76693 -1.11713,11.1713z"/>
  <path fill="#540000" d="M186.004 365.511c3.3514,3.24482 7.18158,3.29811 10.0542,2.55345 3.19181,6.46356 5.3195,11.198 8.4583,12.1289 -4.84101,-5.26649 -6.17103,-12.7673 -8.29871,-13.8844 -0.585355,-2.39386 -0.691654,-4.14936 -1.7555,-7.18158l-0.478772 8.13912c-2.46699,-0.00708662 -5.08734,-0.472536 -7.97953,-1.7555z"/>
  <path fill="#540000" d="M200.686 362.479c0.500315,2.37997 1.33994,4.53203 0.478772,7.81994l-1.43632 -4.78772c-2.55345,-0.691654 -1.11713,-2.81962 0.957544,-3.03222z"/>
  <polygon fill="#540000" points="203.719,361.362 205.155,362.958 206.751,363.437 204.202,360.833 "/>
  <polygon fill="#540000" points="204.836,364.873 207.07,366.948 205.155,366.948 "/>
  <path fill="#540000" d="M205.953 380.194c1.06413,-3.2984 4.84101,1.70221 3.19181,-16.5974l2.07468 1.7555c0.479055,9.94763 -0.319181,14.5758 -5.26649,14.8419z"/>
  <polygon fill="#540000" points="212.177,369.98 215.209,374.608 216.805,374.448 213.613,370.139 "/>
  <path fill="#540000" d="M227.976 386.098l-5.90485 -7.81994c0.372189,2.60646 2.97893,6.64952 5.90485,7.81994z"/>
  <path fill="#540000" d="M221.274 377.161l-7.02199 -9.89462c0.372189,2.60646 4.09607,8.72419 7.02199,9.89462z"/>
  <path fill="#540000" d="M223.189 383.864l-6.70281 -8.29871c0.372189,2.23427 3.72359,7.28759 6.70281,8.29871z"/>
  <path fill="#540000" d="M239.148 402.536c-4.8943,-5.53266 -10.1075,-10.4267 -14.6823,-16.5974 -0.361701,1.6954 1.84195,4.56038 4.75399,7.82618 -0.630709,3.05547 1.30677,4.26898 4.62841,4.78517 2.01345,1.89525 3.94073,3.42964 5.29994,3.98608z"/>
  <path fill="#540000" d="M189.036 393.599c3.61729,-6.33005 4.09607,-11.6495 5.74526,-16.9166l0.797953 3.83018c-2.18126,4.36224 -3.72388,9.04366 -6.54322,13.0864z"/>
  <path fill="#FFC8C8" d="M199.25 377.64l2.23427 4.94731 2.39386 16.9166 -1.91509 2.71304c-1.58287,-8.19241 -2.40747,-16.3851 -2.71304,-24.577z"/>
  <path fill="#540000" d="M237.712 425.358c-7.8463,4.1366 -15.1872,0.439087 -22.1831,-8.61789 -2.50016,0.797953 -5.21292,-0.106016 -8.13912,-2.71304 2.23427,-0.319181 5.58567,0.638363 6.70281,-0.957544 -1.91509,-3.77688 -6.54322,-2.60646 -7.66035,-4.14936 1.70249,-1.8085 5.47937,-0.904252 6.54322,-2.55345 -0.904252,-3.13852 -5.3195,-2.28728 -7.02199,-4.14936 2.12797,-0.478772 5.69225,0.159591 6.38363,-1.43632 -0.425481,-3.67058 -5.3195,-1.91509 -7.97953,-2.87263 1.38331,-2.28728 6.91569,-0.26589 7.50076,-2.07468 -0.106299,-2.28728 -6.59622,-2.81934 -7.50076,-3.98977 2.07468,-0.797953 5.42608,0 7.18158,-0.957544 -2.81934,-4.94731 -7.075,-3.03222 -8.4583,-5.26649 1.06413,-0.478772 5.79855,0.159591 7.50076,-0.478772l0.159591 -3.03222 1.59591 0.159591c1.17043,3.45799 3.2984,6.7561 6.8624,9.89462l-1.27673 0.797953c0.797953,3.03222 3.51099,3.19181 6.22403,7.66035l-1.27673 1.43632c-0.744662,-1.64891 -2.76605,-3.4577 -3.67058,-3.51099l4.78772 6.70281 -1.59591 1.59591 -4.30895 -6.70281 0.319181 2.87263 -2.87263 -1.7555c-0.318898,2.34114 0.426047,4.6817 2.23427,7.02199l2.55345 1.43632c-1.43603,0.372473 -2.44687,0.957827 -3.03222,1.7555l2.23427 2.39386 0 2.07468c0.715181,1.21635 3.64819,0.961796 2.5081,-0.599811 -0.899434,-1.23194 0.165543,-1.86491 1.32208,-2.11323 0.957544,2.02195 -0.319181,4.52211 -3.3514,6.06444l1.91509 1.43632c2.18126,-1.01055 2.28756,-4.25566 4.14936,-4.94731l-0.638363 7.02199c4.57512,4.04306 8.19241,1.70249 12.2885,2.55345z"/>
  <polygon fill="#540000" points="222.87,396.472 227.976,402.696 227.976,400.94 224.146,396.631 "/>
  <path fill="#FFC8C8" d="M205.315 413.388c1.64891,0 -0.372473,-7.18158 -1.91509,-10.2138 -0.851245,4.46854 0.69137,10.2138 1.91509,10.2138z"/>
  <polygon fill="#FFC8C8" points="203.719,414.506 200.527,419.134 200.527,417.219 202.282,414.506 "/>
  <path fill="#540000" d="M221.433 413.548l-0.159591 -6.70281c-1.11742,2.39386 -1.06384,4.46854 0.159591,6.70281z"/>
  <path fill="#540000" d="M224.146 412.91l-0.159591 -6.06444c-1.11742,2.16595 -1.06384,4.04306 0.159591,6.06444z"/>
  <path fill="#540000" d="M229.253 419.134l-0.159591 -5.42608c-1.11742,1.93776 -1.06384,3.61729 0.159591,5.42608z"/>
  <path fill="#540000" d="M232.126 421.528l-0.159591 -5.42608c-1.11742,1.93776 -1.06384,3.61729 0.159591,5.42608z"/>
  <path fill="#540000" d="M234.52 422.166l-0.159591 -5.42608c-1.11742,1.93776 -1.06384,3.61729 0.159591,5.42608z"/>
  <path fill="#540000" d="M231.168 408.76c17.0374,22.0082 38.7896,29.0889 48.6751,41.1744 1.476,7.96507 -8.51585,7.49481 -19.0593,0.708095 -7.6938,-4.9527 -9.93657,-11.1016 -19.7212,-20.1782l0.319181 4.62813 7.97953 9.25626c-0.851245,3.03222 0.850961,4.62813 1.27673,6.8624 -0.638363,12.1286 -1.91509,13.1922 -3.83018,3.19181l-1.59591 -0.319181c2.87972,15.8247 7.40552,8.76558 6.70281,-2.87263 2.79014,-4.02321 8.60627,2.63169 14.6149,4.77241 8.23465,2.93414 16.2125,2.73288 15.2286,-5.88955l7.97953 -0.797953c-10.9602,-3.05688 -11.8293,-5.80422 -23.078,-13.4016 -10.5664,-7.13679 -21.4299,-12.0954 -33.4171,-27.294l-2.07468 0.159591z"/>
  <path fill="#FFC8C8" d="M276.652 451.052c-7.28816,-1.11742 -14.3634,-4.14964 -21.2256,-9.09667 1.64636,4.03314 11.1141,9.85919 21.2256,9.09667z"/>
  <path fill="#FFC8C8" d="M248.723 459.829c-0.793134,-3.2777 -0.229606,-8.32819 -1.33937,-11.1835 -1.52079,-3.91266 -4.24602,-6.22233 -7.43811,-8.7653 8.40615,2.02054 13.0343,14.0956 8.77748,19.9488z"/>
  <path fill="#540000" d="M254.947 415.304c6.80911,5.63868 14.2566,10.0009 21.3851,15.0015l0.797953 -1.7555c-7.92624,-3.48435 -8.99037,-5.77248 -10.9321,-7.22183 -3.46677,-2.58775 -6.99534,-3.49739 -8.85714,-6.02419l-2.39386 0z"/>
  <path fill="#540000" d="M284.95 441.636c-3.03251,-0.744945 -5.85185,-2.55402 -8.4583,-5.42608l4.46854 0.957544c1.32973,1.48932 2.02139,2.97893 3.98977,4.46854z"/>
  <path fill="#540000" d="M283.035 425.677l3.51099 0.159591 10.0542 4.78772 -0.638363 1.43632c-4.78772,-2.92592 -9.41585,-3.2984 -12.9268,-6.38363z"/>
  <path fill="#FFC8C8" d="M295.324 434.774c4.55811,0.0949607 7.98747,-1.26057 5.84929,-4.10939 -2.42334,-3.22866 -11.5016,-8.46851 -19.4145,-11.6901 5.30362,0.0581103 19.3887,7.91065 21.6972,12.1133 2.07468,3.77688 -3.38514,8.06826 -8.13204,3.68618z"/>
  <path fill="#FFC8C8" d="M291.174 437.487c-10.5863,-7.97982 -16.4911,-10.1081 -23.4598,-15.4803l1.91509 0.319181c6.8624,5.53238 11.0118,4.84073 21.5447,15.1611z"/>
  <path fill="#FFC8C8" d="M293.409 441.955c-8.20602,2.27339 -14.0848,0.33137 -18.0337,-4.62813l2.39386 0.638363c5.77219,4.78857 10.6126,6.65037 13.4056,2.07468l2.23427 1.91509z"/>
  <path fill="#FFC8C8" d="M287.663 447.7l1.27673 0.957544c1.38302,-0.585355 3.88318,0.106583 4.14936,-1.7555l-5.42608 0.797953z"/>
  <polygon fill="#540000" points="244.574,449.775 235.956,441.476 235.956,444.987 237.552,444.668 237.552,446.424 235.158,449.616 236.275,449.775 238.509,448.179 238.829,449.616 240.425,449.296 240.744,448.02 244.255,451.211 "/>
  <polygon fill="#540000" points="237.073,437.167 238.35,438.604 235.637,440.838 "/>
  <path fill="#FFC8C8" d="M236.594 446.903c-2.12797,1.1177 -4.68142,1.59591 -7.66035,1.43632 3.61729,1.4366 6.17074,0.957544 7.66035,-1.43632z"/>
  <path fill="#FFC8C8" d="M218.082 425.996l0.159591 2.23427c11.5435,3.61729 6.9687,15.5333 15.4803,16.1187 -2.87291,-2.87291 -2.66032,-7.60763 1.27673,-13.8844l-0.478772 -0.638363c-2.34114,1.7555 -4.04334,4.57455 -5.1069,8.4583 -2.39443,-10.5443 -7.30602,-8.48013 -11.3309,-12.2885z"/>
  <path fill="#540000" d="M230.69 450.733c-5.95758,-2.62006 -10.9049,-1.95506 -15.1611,0.957544 -1.22343,-1.54261 -2.28728,-4.04277 -3.67058,-4.62813 -0.69137,-3.564 -0.106016,-6.27704 1.7555,-8.13912 -0.319181,-2.97893 -1.27673,-3.72359 -1.91509,-5.58567l1.7555 -4.30895c2.40208,3.08041 6.24104,5.36315 8.64312,8.44356 2.11918,2.71786 2.80262,6.23396 4.92208,8.95182l-1.27673 0.478772 4.94731 3.83018z"/>
  <polygon fill="#540000" points="214.89,453.765 213.454,458.553 216.486,454.084 "/>
  <path fill="#FFC8C8" d="M208.985 451.052l-5.74526 -2.87263c3.40469,-0.106016 5.3195,0.850961 5.74526,2.87263z"/>
  <path fill="#FFC8C8" d="M196.378 451.69c-0.0932599,-7.44067 3.34687,-5.89635 5.93887,-10.1273 2.28671,-3.73323 2.03584,-9.51251 5.87084,-12.8537 -1.7555,3.13852 -1.87569,9.98788 -3.75024,14.7419 -1.87484,4.75427 -7.26152,2.46728 -3.43134,11.7502 -1.70221,-1.59591 -2.12769,-3.51099 -3.19181,-5.26649l-1.43632 1.7555z"/>
  <path fill="#FFC8C8" d="M206.432 462.383l-2.39386 -9.09667c-1.33002,4.09607 -0.532063,7.128 2.39386,9.09667z"/>
  <path fill="#540000" d="M208.187 461.266c-0.745229,-1.86208 -0.851245,-3.93676 -0.319181,-6.22403 -2.28756,2.23427 -2.34085,4.30895 0.319181,6.22403z"/>
  <path fill="#540000" d="M208.506 427.273c-8.19241,6.13446 -5.21292,10.3518 -8.29871,10.6926 -0.585071,-0.691654 -1.01055,-2.81962 -1.7555,-2.07468 -1.11713,1.9681 0.638363,3.77688 -3.3514,5.90485l-2.71304 -0.638363 0 6.22403 -3.3514 -3.3514c2.55345,8.77748 0.319181,6.8624 0.478772,10.533l-6.38363 1.59591c4.0697,0.371906 9.0173,0.159024 14.3632,-0.319181 -3.47103,-10.4414 0.62589,-8.91411 4.69984,-14.5678 2.78731,-3.86816 0.671528,-7.4177 6.31191,-13.9989z"/>
  <path fill="#FFC8C8" d="M185.525 440.2c5.31978,-5.79855 10.48,-7.60734 15.9591,-17.3954 -0.478488,8.7772 -7.87267,14.5758 -15.9591,17.3954z"/>
  <path fill="#FFC8C8" d="M189.994 428.869l7.18158 -7.50076c-1.75521,3.7766 -4.14907,6.27648 -7.18158,7.50076z"/>
  <path fill="#FFC8C8" d="M177.546 464.936c-4.94759,-1.80907 -6.7561,-11.1186 -2.07468,-13.0864l0.478772 1.43632c-2.82076,4.36195 -1.54347,8.13884 1.59591,11.6501z"/>
  <path fill="#540000" d="M195.739 429.986c-4.18706,1.45191 -9.65424,6.6994 -12.6133,5.33679 -0.167244,0.605764 0.0371339,1.28523 0.741544,2.05625 -1.09247,0.615402 -2.27055,0.989008 -3.60851,1.38444l4.94731 0.319181c3.29811,-1.75521 6.80911,-4.78744 10.533,-9.09667z"/>
  <path fill="#FFC8C8" d="M177.546 446.583c2.71304,-2.12797 2.07468,-5.53266 6.22403,-7.34117 -4.57484,-0.0535748 -9.52186,3.82961 -6.22403,7.34117z"/>
  <path fill="#FFC8C8" d="M187.121 429.507l-11.1713 2.07468c4.70438,1.07405 8.59437,0.681733 11.1713,-2.07468z"/>
  <path fill="#FFC8C8" d="M168.29 463.34c-1.01055,-2.97921 -0.26589,-5.31978 0.797953,-7.97953 -2.97893,1.64891 -2.92536,7.02142 -0.797953,7.97953z"/>
  <path fill="#540000" d="M170.205 455.042l1.43632 1.27673 -0.159591 3.3514c-1.22372,-1.5429 -2.28756,-3.2451 -1.27673,-4.62813z"/>
  <path fill="#FFC8C8" d="M159.991 461.266c-4.78772,-4.57484 -4.46854,-10.0012 0.957544,-16.2782l1.27673 2.55345c-3.93676,2.87235 -4.68114,7.4469 -2.23427,13.7248z"/>
  <path fill="#540000" d="M157.597 445.307c-2.87263,5.10718 -3.83018,9.36312 -2.87263,12.7673 1.40939,-4.2823 2.63282,-9.70782 5.26649,-12.7673l-2.39386 0z"/>
  <path fill="#FFC8C8" d="M164.938 429.188c-2.55345,4.94731 -3.98977,9.25626 0,10.533 -2.23427,-4.73443 1.11713,-6.27704 2.39386,-8.93708l-2.39386 -1.59591z"/>
  <path fill="#FFC8C8" d="M173.396 432.38c0.0535748,-1.67613 -1.48932,-2.95285 -6.54322,-3.3514l1.27673 1.59591c1.7555,0.585071 3.03222,0.212599 5.26649,1.7555z"/>
  <path fill="#540000" d="M175.79 439.561l-0.319181 -3.19181c2.1892,0.903685 3.68362,1.86038 0.319181,3.19181z"/>
  <polygon fill="#540000" points="266.597,403.494 267.395,406.047 299.792,329.603 296.122,334.71 "/>
  <polygon fill="#540000" points="302.186,320.347 310.644,299.6 311.283,299.6 302.027,322.581 "/>
  <polygon fill="#540000" points="316.23,285.556 325.486,264.65 325.646,265.767 316.23,287.631 "/>
  <polygon fill="#540000" points="330.114,251.564 339.371,230.657 339.53,231.774 330.114,253.638 "/>
  <polygon fill="#540000" points="345.116,215.337 354.372,194.43 354.532,195.547 345.116,217.411 "/>
  <polygon fill="#540000" points="359.16,182.142 383.737,123.572 383.897,124.689 359.16,184.216 "/>
  <path fill="#540000" d="M121.697 161.134c-3.95972,-14.5786 -17.9739,-27.1619 -32.6339,-28.3819 14.9664,5.29682 24.967,13.269 32.6339,28.3819z"/>
  <path fill="#540000" d="M69.1849 126.799c0.735024,-15.7059 5.53607,-20.4715 17.3268,-9.24804 13.2163,-0.248032 27.0352,7.01547 28.5945,17.752 -12.49,-17.3444 -19.4831,-14.2294 -26.0966,-15.573 -8.76388,-1.78044 -15.5197,-19.7717 -19.8247,7.06904z"/>
  <path fill="#FFC8C8" d="M111.173 135.303c-2.82898,-0.87789 -6.28016,-1.96895 -8.66637,-3.48492 -3.38372,-2.14923 -6.71415,-1.71638 -8.97931,-2.99934 7.58268,-1.13386 14.7402,4.11024 17.6457,6.48426z"/>
  <polygon fill="#FFC8C8" points="112.342,126.481 113.193,128.819 115.85,133.39 115.744,129.244 "/>
  <path fill="#FFC8C8" d="M81.0905 97.1419l-6.05906 0c2.0194,-0.956977 4.03909,-0.744095 6.05906,0z"/>
  <path fill="#FFC8C8" d="M89.5944 98.4175l-6.05906 -1.48819c1.70079,-0.354614 3.79077,0.141449 6.05906,1.48819z"/>
  <path fill="#FFC8C8" d="M326.352 132.372l-11.1813 0.958394c2.12967,-1.91679 6.81506,-2.23625 11.1813,-0.958394z"/>
  <path fill="#FFC8C8" d="M284.962 129.143l-11.0282 2.0778c2.56592,1.27502 7.16514,0.325134 11.0282,-2.0778z"/>
  <path fill="#FFC8C8" d="M245.527 175.373l11.1813 -0.958394c-2.12967,1.91679 -6.81506,2.23625 -11.1813,0.958394z"/>
  <polygon fill="#FFC8C8" points="284.502,285.715 294.725,319.898 296.003,317.981 "/>
  <polygon fill="#FFC8C8" points="209.428,219.266 219.97,252.171 211.345,222.781 "/>
  <polygon fill="#FFC8C8" points="233.068,298.494 249.042,349.928 248.722,346.094 235.305,302.327 "/>
 </g>
</svg>
