<?xml version="1.0" encoding="UTF-8"?>
<!DOCTYPE svg PUBLIC "-//W3C//DTD SVG 1.1//EN" "http://www.w3.org/Graphics/SVG/1.1/DTD/svg11.dtd">
<!-- Creator: CorelDRAW -->
<svg xmlns="http://www.w3.org/2000/svg" xml:space="preserve" width="500px" height="656px" shape-rendering="geometricPrecision" text-rendering="geometricPrecision" image-rendering="optimizeQuality" fill-rule="evenodd" clip-rule="evenodd"
viewBox="0 0 500 656"
 xmlns:xlink="http://www.w3.org/1999/xlink"
 xmlns:svg="http://www.w3.org/2000/svg"
 version="1.0">
 <g id="Layer_x0020_1">
  <metadata id="CorelCorpID_0Corel-Layer"/>
  <path fill="#4F2900" d="M267.802 146.67l-25.9177 0 -3.48293 40.212c-12.8761,3.48293 -21.003,0.63326 -31.663,-1.26652 -4.0269,-10.8289 -5.15877,-18.5278 -9.4989,-29.4466 2.21641,-2.11068 4.43282,-4.53827 6.64923,-6.64923l-12.3486 2.84967 -3.48293 5.69934c4.32737,6.3326 6.75496,19.6311 11.0821,29.4466l-0.94989 5.69934c-15.01,0.721134 -15.5721,7.86444 -19.6773,6.69685 -2.07723,-0.59074 -8.2817,0.687118 -10.0973,-1.84762 -4.30044,-6.00265 -9.85635,-12.1842 -10.0171,-12.6505 -1.49499,-4.33729 -12.1527,-12.9232 -10.2359,-24.1784l-7.28249 8.23238c4.31433,11.255 10.5979,23.3204 17.2089,27.7974 3.83159,2.59484 4.06602,12.35 16.4064,11.9727 19.7697,-0.604347 37.5115,-17.8631 62.9569,-11.2734l-3.79956 39.5788c-47.1637,-1.93578 -65.6618,37.2926 -78.2076,40.212 -13.2985,-1.79405 -20.2643,-14.0372 -16.1481,-19.6311l-10.7654 -0.63326c-2.09084,10.0792 1.42271,6.88167 2.23342,9.98476 0.652252,2.49647 9.23811,11.0055 12.6482,17.2454 -5.91024,0.94989 -16.2536,6.64923 -35.4626,-3.79956l0 10.1322c10.2098,6.37399 16.5039,2.65238 25.5558,2.03159 7.9869,-0.547937 8.09462,5.60495 25.016,-3.24057 24.2357,-12.6686 39.5079,-47.9016 75.1303,-38.0532 0.596977,15.3743 0.314362,56.0461 0.183969,102.898 -0.146268,52.5322 -1.45049,113.396 -0.183969,159.271 -11.9772,9.1304 -30.1235,-0.518173 -44.8467,1.2121 -30.8143,3.62098 -53.4192,12.617 -65.6912,5.50092 -5.96665,-3.45969 -15.448,-9.00766 -19.9137,-17.1618 10.5545,27.1247 17.3092,21.6366 22.1641,26.5969 -7.49339,4.644 -29.2354,20.0534 -22.4807,31.9796 5.11881,-8.70067 24.9508,-25.5915 32.4474,-25.3814 3.73351,0.104598 7.68444,-1.78554 10.6143,-1.53213 -6.64923,2.9554 -18.9978,21.4254 -16.1481,27.8634 5.4618,-1.87427 2.63764,-0.966898 6.11632,-5.76652 2.85307,-3.93647 17.206,-19.6991 25.5164,-24.6192 7.85141,-4.64882 25.5161,-1.41364 33.2598,-3.53367 9.46545,-2.59115 18.3419,1.5772 31.0465,0.989859 0.844441,4.644 -10.3431,8.65474 -15.5149,12.9818 7.8103,-0.31663 14.6707,4.11619 23.4306,-0.94989l5.06608 19.3144c-23.6135,-4.32879 -41.48,0.153921 -53.0289,5.61515 -10.4238,4.92917 -22.1247,-2.1257 -30.8781,-15.4307 0.600095,7.7573 2.58917,12.2426 5.94567,15.0174 4.28797,3.54501 6.83859,7.72073 9.5692,9.67975 0.198142,3.44325 -4.80047,6.24246 -6.39185,9.77982 -1.7331,3.85144 -8.10681,10.2603 -4.37358,18.0836 10.4122,-13.4895 26.2999,-24.52 33.4242,-27.7651 7.67594,-3.49597 22.9363,-6.71415 46.05,-3.89792 1.17751,16.2074 2.60051,25.1779 -0.158173,30.4844 -8.35569,16.073 -24.1994,5.41361 -35.621,11.3108 9.18227,10.3433 21.5308,10.2379 40.5287,-1.58315 6.86041,9.18227 1.05562,14.8816 9.4989,23.114 13.1927,-12.6652 6.39213,-16.1481 13.2525,-25.3304 12.6652,7.07159 27.8634,7.17704 38.3122,3.1663 -11.4216,-5.8972 -31.0655,-1.57096 -38.4707,-15.427 -2.81849,-5.27414 -0.702426,-4.46145 0.475087,-20.6688 7.28221,-5.66589 28.5585,-3.71424 36.2344,-0.218268 7.12432,3.2451 29.0279,15.5421 39.4401,29.0316 2.88822,-19.9565 -6.68296,-17.8552 -8.86564,-28.4967 2.73062,-1.95902 10.9817,-7.71931 15.2685,-11.2629 3.35509,-2.7737 2.17928,-0.294236 3.096,-7.41827 -10.6532,3.48945 -20.7723,17.1924 -38.1606,9.73134 -11.7386,-5.0366 -24.9826,-5.19449 -44.1632,-5.29852 -0.738992,-6.75468 -0.211181,-11.6096 -0.31663,-17.4147 6.86013,0.63326 13.7205,3.1663 22.7974,1.89978 -1.37225,-7.17676 -16.6759,-12.1374 -15.8315,-16.7814 23.6452,5.26224 54.5332,-3.95518 70.3222,5.39348 8.31033,4.9201 20.4472,16.8837 23.2999,20.8196 3.47811,4.79934 4.13745,7.05855 9.59925,8.93282 2.21641,-5.48816 -13.2985,-19.5253 -17.098,-29.13 2.92989,-0.253417 7.05487,0.719717 10.6143,1.84876 4.32964,1.37367 20.9959,8.44838 30.5476,16.8324 4.53827,-3.3772 -14.3541,-17.2035 -21.8475,-21.8475 4.8549,-4.96035 14.7759,-7.07131 19.3144,-24.0639 -3.02315,0.853796 -4.57796,6.10328 -9.47367,7.83808 -5.29597,1.87625 -9.80419,5.27018 -12.973,7.10731 -12.2712,7.11525 -23.7198,0.250583 -42.2606,-5.18429 -14.495,-4.24885 -51.8672,4.11874 -63.5278,-4.06177 1.26652,-45.8756 -1.30479,-107.373 -1.45049,-159.905 -0.13011,-46.8516 -0.413008,-86.2575 0.183969,-101.632 28.9732,-6.36548 58.1774,20.6351 82.4128,33.3037 16.9214,8.84523 14.1795,4.90933 22.1664,5.45698 9.0516,0.620788 12.1796,0.542835 22.3895,-5.83115l-1.58315 -10.1322c-12.8764,15.1982 -24.4862,3.1663 -30.3965,2.21641 2.77682,-6.23991 10.0967,-14.7495 10.7484,-17.2454 0.810142,-3.10252 8.75708,-0.538866 8.24939,-10.618l-13.9317 9.81553c1.74076,-0.58167 -3.11414,8.60117 -12.9818,15.1982 -7.51975,-2.80035 -15.6141,-5.67581 -25.3627,-12.2641 -6.66992,-4.50794 -11.2456,-10.6872 -19.9982,-14.8363 -14.741,-6.98797 -36.1179,-9.1389 -42.029,-13.1117 0,-14.4593 -3.1663,-21.6363 -2.84967,-33.8794 23.2291,1.32605 30.4742,-8.56715 56.6243,3.04101 10.1738,4.51588 22.7075,-5.57859 26.5385,-8.17314 6.61068,-4.47647 18.2772,-12.7429 22.2749,-25.2644l-9.4989 -23.114c-0.616252,10.622 -1.45899,16.0418 1.16277,20.6955 -0.797953,4.88948 -14.7127,20.0058 -15.9534,20.5566 -5.8612,2.60192 -9.75856,4.84583 -13.3433,5.97345 -10.7538,3.38315 -9.4167,-3.75931 -24.4267,-4.48044l-0.31663 -2.84967c12.8761,-19.3144 3.90501,-16.1481 10.1322,-30.7131l-3.48293 -5.69934 -12.0319 -2.84967c2.21641,2.11096 4.11619,4.53855 6.3326,6.64923 -1.81673,4.77666 -2.83096,6.85928 -2.7703,11.2428 0.0303307,2.18863 -3.276,6.13559 -3.42964,9.88441 -0.161858,3.95462 -3.52205,5.59049 -4.88211,8.63604 -9.07682,3.1663 -18.4703,5.69934 -31.9796,-2.84967l-1.58315 -36.4125z"/>
  <path id="path1937" fill="#0581ED" stroke="black" stroke-width="0.992126" d="M0.426898 0.764221l499.412 -0.000283465 -0.000850394 408.408c-22.9725,327.925 -474.503,331.853 -499.412,-7.57559l0 -400.832z"/>
  <g id="_56752256">
   <polygon id="_57081176" fill="#9E8261" points="127.781,289.669 132.214,296.002 142.979,291.569 149.312,296.635 106.883,329.565 93.9014,323.232 107.516,302.335 99.2841,305.501 52.4228,281.437 54.9559,275.104 41.0241,262.123 58.7554,247.241 42.2907,235.209 57.4889,219.378 75.2202,195.314 85.3524,186.448 77.7532,187.081 71.4206,178.849 61.9217,177.582 57.4889,157.951 71.4206,128.188 79.0198,126.922 86.6189,133.254 107.516,114.256 159.444,69.9282 195.54,33.1991 207.572,32.5658 229.736,27.4998 238.601,33.1991 276.597,26.2332 286.729,24.9667 339.923,56.6297 336.123,64.2289 417.181,135.787 425.413,126.922 437.445,139.587 457.709,148.452 453.91,170.617 435.545,156.052 408.315,190.881 423.513,206.712 426.046,212.412 436.178,218.111 450.743,231.41 438.712,248.508 453.91,265.606 425.413,294.736 399.449,307.401 402.616,311.834 393.75,322.599 355.121,297.269 360.187,290.303 367.153,293.469 394.383,285.237 390.584,271.305 390.584,251.041 384.884,249.774 363.354,259.906 354.488,251.041 355.754,225.077 381.718,204.179 393.75,195.314 388.684,186.448 360.821,166.817 357.654,144.653 341.189,158.585 332.957,151.619 324.725,139.587 317.759,145.286 316.492,154.785 293.695,140.22 286.096,140.22 272.164,151.619 262.032,145.286 236.702,144.653 224.67,154.152 207.572,144.02 182.241,154.785 169.576,150.985 159.444,156.685 142.346,145.919 142.979,161.118 129.047,176.949 118.915,168.084 98.6508,187.715 104.35,199.113 110.05,200.38 134.747,225.71 142.346,258.64 121.448,255.473 117.015,259.906 107.516,254.84 105.617,256.74 108.783,264.339 103.084,273.205 106.883,287.77 "/>
   <polygon id="_56996736" fill="#9E8261" points="131.381,296.869 135.814,303.202 146.579,298.769 152.912,303.835 110.483,336.765 98.4513,329.799 111.116,309.535 102.884,312.701 48.7403,286.737 58.5559,282.304 48.4237,265.84 62.3554,254.441 45.8907,242.409 61.0889,226.578 78.8202,202.514 88.9524,193.648 81.3532,194.281 75.0206,186.049 65.5217,184.782 61.0889,165.151 75.0206,135.388 82.6198,134.122 90.2189,140.454 111.116,121.456 163.044,77.1282 199.14,40.3991 211.172,39.7658 233.336,34.6998 242.201,40.3991 280.197,33.4332 290.329,32.1667 343.523,63.8297 339.723,71.4289 420.781,142.987 429.013,134.122 441.045,146.787 461.309,155.652 457.51,177.817 439.145,163.252 411.915,198.081 427.113,213.912 429.646,219.612 439.778,225.311 454.343,238.61 442.312,255.708 457.51,272.806 429.013,301.936 403.049,314.601 406.216,319.034 397.35,329.799 358.721,304.469 363.787,297.503 370.753,300.669 397.983,292.437 394.184,278.505 394.184,258.241 388.484,256.974 366.954,267.106 358.088,258.241 359.354,232.277 385.318,211.379 397.35,202.514 392.284,193.648 364.421,174.017 361.254,151.853 344.789,165.785 336.557,158.819 328.325,146.787 321.359,152.486 320.092,161.985 297.295,147.737 289.696,147.42 275.764,158.819 265.632,152.486 240.302,151.853 228.27,161.352 211.172,151.22 185.841,161.985 173.176,158.185 163.044,163.885 145.946,153.119 146.579,168.318 132.647,184.149 122.515,175.284 103.834,192.065 108.267,202.197 116.183,201.247 138.347,226.894 145.946,265.84 125.048,262.673 120.615,267.106 111.116,262.04 109.217,263.94 112.383,271.539 106.684,280.405 110.483,294.97 "/>
   <polygon id="_56951304" fill="#9E8261" points="129.798,221.828 126.631,226.261 137.397,239.559 125.998,250.641 129.164,254.124 140.563,245.575 140.246,257.607 145.629,257.607 144.679,248.108 158.928,256.341 167.477,241.776 154.495,234.493 162.094,224.678 154.273,214.238 145.076,224.216 145.078,210.754 135.828,209.647 136.541,229.59 "/>
   <polygon id="_56947304" fill="#9E8261" points="101.301,148.253 95.285,154.269 110.483,172.317 95.9182,186.249 100.351,190.048 113.65,178.333 113.333,190.365 118.716,190.365 119.349,174.533 133.281,185.615 137.08,182.766 124.098,168.201 132.331,158.702 128.214,156.169 118.399,166.934 118.716,149.203 112.383,149.519 113.016,165.351 "/>
   <polygon id="_56445088" fill="#9E8261" points="115.549,301.936 111.75,304.785 122.515,316.184 107.634,329.482 108.267,336.765 122.832,323.783 121.882,340.881 132.331,339.298 133.597,321.567 147.846,334.548 152.912,327.583 139.297,315.234 150.379,302.885 147.212,298.453 133.597,312.384 133.281,298.136 126.948,298.453 126.631,313.018 "/>
   <polygon id="_56403248" fill="#9E8261" points="62.3554,283.254 59.5058,289.587 69.0047,295.286 56.0228,310.801 64.5718,317.45 78.5036,301.619 78.1869,320.933 88.9524,319.034 87.6858,303.835 99.4012,311.751 101.934,307.635 91.1688,299.086 99.0845,288.954 94.3351,284.838 87.6858,292.753 84.5195,278.505 78.8202,280.088 79.7701,292.437 "/>
   <polygon id="_56387960" fill="#9E8261" points="130.431,131.155 127.265,135.588 138.03,148.886 126.631,159.968 129.798,163.451 139.613,154.585 138.663,167.251 146.262,166.934 146.579,154.902 162.727,168.201 166.527,162.501 153.545,147.936 163.994,136.538 160.511,132.105 146.896,143.82 146.896,125.772 140.246,126.089 141.196,145.087 "/>
   <polygon id="_55298240" fill="#9E8261" points="101.184,95.8919 94.218,104.441 102.767,110.14 86.6189,114.89 87.2521,125.022 106.567,121.222 109.733,136.421 116.699,134.204 116.699,118.373 130.947,125.655 134.747,122.805 122.398,113.307 134.43,100.958 128.097,97.1584 117.015,109.824 116.382,89.2426 110.05,89.5593 111.316,109.824 "/>
   <polygon id="_55305288" fill="#9E8261" points="47.99,127.871 40.3909,138.004 55.5891,148.769 40.0743,164.917 50.523,173.783 60.3386,163.967 59.3887,172.516 65.4047,171.883 66.0379,153.835 79.653,161.118 83.1359,157.318 69.8375,147.503 83.4526,132.938 79.0198,129.138 68.8876,140.853 67.6211,128.188 59.3887,126.288 61.9217,141.803 "/>
   <polygon id="_56814192" fill="#9E8261" points="131.264,72.1446 121.448,81.3269 134.747,91.1424 128.414,96.2085 132.214,103.808 142.029,93.0422 141.713,107.924 149.945,107.291 148.995,88.2927 164.51,98.7415 167.043,90.5091 156.277,82.2768 165.46,71.5113 161.977,68.0284 148.678,79.7437 147.095,66.7619 140.763,67.0785 141.396,82.91 "/>
   <polygon id="_56810984" fill="#9E8261" points="171.792,27.4998 164.827,34.7823 177.808,47.7641 169.259,57.263 173.059,59.796 185.724,48.714 185.091,64.2289 191.107,63.279 191.423,52.5135 197.756,58.2129 204.722,54.7299 194.906,43.9645 202.189,33.8324 199.339,30.0328 190.79,36.682 191.107,19.9006 185.091,20.2173 185.407,40.4816 "/>
   <polygon id="_56814352" fill="#9E8261" points="203.772,22.1171 199.972,27.8164 212.321,38.2652 199.656,47.4475 202.822,52.8302 214.537,45.8643 214.221,57.8962 220.237,58.8461 220.237,43.0146 236.068,49.6639 238.601,43.6479 227.519,36.0488 232.585,28.4497 228.153,24.0168 219.287,32.8825 219.604,20.8505 213.588,21.1672 214.537,32.8825 "/>
   <polygon id="_55303656" fill="#9E8261" points="238.918,22.7503 235.118,28.4497 247.467,38.8984 234.802,48.0807 237.968,53.4634 249.683,46.4976 249.367,58.5295 255.383,59.4794 255.383,43.6479 271.214,50.2971 273.747,44.2812 262.665,36.682 267.731,29.0829 263.298,24.6501 259.182,28.133 259.499,19.9006 247.467,21.1672 247.15,32.8825 "/>
   <polygon id="_55549952" fill="#9E8261" points="301.294,28.133 297.178,33.8324 309.843,44.2812 298.444,51.247 301.611,55.3632 314.593,46.8142 307.943,61.0626 318.392,62.0124 318.075,49.6639 330.424,58.8461 334.224,52.1969 328.524,48.3973 339.606,36.0488 332.324,31.9326 321.558,42.698 319.025,22.4337 311.743,22.7503 314.276,43.0146 "/>
   <polygon id="_56864232" fill="#9E8261" points="272.797,21.1672 268.998,26.8665 281.346,37.3153 268.681,46.4976 271.847,51.8803 283.563,44.9144 283.246,56.9464 289.262,57.8962 289.262,42.0647 305.094,48.714 307.627,42.698 296.545,35.0989 301.611,27.4998 297.178,23.0669 288.312,31.9326 288.629,19.9006 282.613,20.2173 283.563,31.9326 "/>
   <polygon id="_56159776" fill="#9E8261" points="338.973,67.7118 335.49,72.4612 349.422,86.0763 337.39,96.2085 341.189,101.275 353.855,92.0923 354.488,105.391 362.087,104.441 360.187,91.459 369.053,103.808 373.486,96.5251 371.269,94.6253 383.935,82.2768 373.486,70.5615 364.937,84.1765 367.47,65.1787 352.272,68.0284 356.071,82.5934 "/>
   <polygon id="_56813072" fill="#9E8261" points="379.302,105.942 375.186,112.907 388.168,122.723 376.452,131.272 381.202,136.338 391.651,127.156 391.334,143.304 397.667,142.037 396.717,127.789 403.999,138.238 411.282,128.106 401.783,125.573 417.864,124.293 417.416,118.863 404.379,120.063 416.031,108.158 407.482,100.875 396.4,117.024 396.717,96.7593 384.368,96.7593 387.851,114.807 "/>
   <polygon id="_55603592" fill="#9E8261" points="196.607,128.305 191.224,136.538 204.522,145.403 193.124,156.485 196.29,159.968 205.472,151.736 202.623,166.301 212.438,171.05 213.071,151.419 226.686,163.135 231.753,158.385 216.871,145.087 229.219,130.522 225.103,127.039 211.172,137.804 212.755,122.289 206.422,122.606 207.055,138.437 "/>
   <polygon id="_56689968" fill="#9E8261" points="278.614,121.339 273.231,129.255 288.429,139.704 277.981,150.153 282.097,154.902 289.379,146.353 287.796,166.934 300.145,165.984 297.928,146.353 309.96,158.068 315.659,153.319 302.044,139.387 312.493,127.989 306.794,122.922 297.928,131.788 295.712,117.856 289.379,118.49 291.912,134.005 "/>
   <polygon id="_57149664" fill="#9E8261" points="420.03,134.204 416.547,138.954 430.479,152.569 418.447,160.484 420.664,168.084 434.912,158.585 436.812,180.115 448.844,182.332 445.994,163.967 458.659,175.366 464.832,169.383 465.942,151.302 452.327,147.503 461.192,138.954 451.377,133.254 440.928,146.553 440.928,131.038 435.545,131.354 435.229,146.236 "/>
   <polygon id="_55916760" fill="#9E8261" points="338.023,213.045 331.691,226.027 346.889,236.159 334.857,248.824 342.456,257.057 352.905,245.025 351.955,262.756 362.087,264.656 358.287,238.375 369.686,247.558 374.119,243.758 363.354,232.993 375.069,221.911 370.319,216.211 359.237,224.127 361.454,210.829 353.538,211.145 352.272,227.293 "/>
   <polygon id="_56382288" fill="#9E8261" points="317.876,121.023 314.076,126.722 326.425,137.804 315.343,149.836 321.359,153.636 328.641,144.77 328.325,156.802 335.607,157.752 334.341,141.92 346.689,152.052 350.489,146.036 336.24,134.638 346.689,127.355 341.94,123.239 333.391,131.788 333.707,119.756 327.691,119.44 328.641,131.788 "/>
   <polygon id="_56382440" fill="#9E8261" points="360.304,296.553 354.605,302.885 366.954,309.851 349.222,329.799 357.455,338.981 371.07,318.717 372.02,337.715 383.735,337.081 383.102,324.416 395.45,334.232 398.3,324.416 384.685,313.651 392.917,306.052 388.168,301.936 379.619,310.485 379.935,298.453 373.919,298.136 375.503,310.168 "/>
   <polygon id="_56200136" fill="#9E8261" points="407.799,278.822 403.049,284.521 416.664,296.869 401.466,311.434 405.266,314.284 420.781,301.302 420.464,322.833 427.43,320.3 426.48,302.569 443.895,315.234 447.378,307.318 430.913,299.086 442.945,286.421 434.712,280.405 426.48,288.637 425.847,276.289 419.831,275.972 420.781,288.32 "/>
  </g>
  <path id="path1937_0" fill="black" d="M499.721 392.691l0 14.2642c-2.25723,32.224 -8.65333,64.4854 -18.3759,90.4337l-1.47232 1.89893 -458.164 -1.99871 -1.50435 -1.92869c-10.4349,-27.4102 -17.3656,-61.5076 -19.8953,-95.9809l0 -6.68835c13.5987,12.2865 10.4936,19.2651 10.6792,28.91 0.126709,6.59821 6.43862,8.72901 8.50451,25.09l16.4645 -54.0003 15.1985 54.0003c14.0845,-18.7104 -0.103748,-20.2706 9.34158,-32.127 6.22007,-7.80832 3.47471,-19.4547 5.85666,-21.8733 5.59616,2.74621 12.7236,18.0216 10.1356,24.5251 -5.35833,13.464 8.191,14.3535 11.0784,29.4752l14.2489 -54.0003 19.3142 54.0003c14.7263,-10.73 5.17436,-21.545 11.4778,-29.7955 8.80101,-11.5183 -0.148252,-13.551 7.20312,-24.2048 8.60854,6.56249 10.6883,20.7148 8.32139,26.6148 -3.44977,8.59862 7.16741,13.9893 10.9933,27.3855l16.1481 -54.0003 16.4648 54.0003c14.7132,-13.6913 1.5446,-19.5205 7.61755,-27.152 10.6484,-13.381 3.08183,-16.0192 8.84693,-26.8484 1.96526,8.61846 13.5471,10.1517 9.18766,23.9933 -2.25411,7.15777 1.68038,17.8155 11.3936,30.007l38.6286 0c12.6218,-10.9179 4.22051,-22.0431 10.872,-32.0278 7.68926,-11.5418 0.318614,-12.5853 4.64259,-21.9725 6.57978,2.10444 11.1067,17.0615 9.06945,23.4125 -2.58463,8.05635 8.57282,21.0251 12.778,30.5878l16.1484 -54.0003 16.4642 54.0003c15.4159,-9.61286 4.09266,-17.8733 10.8578,-28.0403 8.24656,-12.3931 0.462047,-15.1294 4.34098,-25.96 3.98069,12.0954 17.1763,19.0766 14.2237,29.0645 -3.83273,12.966 4.44728,16.9438 8.25676,24.9358l16.7814 -54.0003 17.0983 54.0003c12.1054,-9.4663 3.83499,-14.1868 10.3728,-25.2885 7.07698,-12.0161 1.05591,-21.1181 2.92564,-28.7119 4.44898,12.3834 16.8321,19.1872 14.2971,30.479 -3.92088,17.462 5.13893,16.0044 8.18334,23.5213l15.5152 -54.0003 19.3144 54.0003c5.19733,-3.27799 1.43915,-17.9807 8.53456,-25.475 9.47991,-10.0131 1.6217,-17.0983 11.63,-28.5253z"/>
  <path id="path1937_1" fill="#CCCCCC" stroke="black" stroke-width="0.510236" d="M499.721 393.324l0 14.2645c-2.25723,32.224 -8.65333,63.8524 -18.3759,89.8008l-461.14 -2.02847c-10.4349,-27.4102 -17.3656,-60.8746 -19.8953,-95.3479l0 -6.68835c13.5987,12.2865 10.4927,19.2648 10.6792,28.91 0.127276,6.59906 6.43862,8.72901 8.50451,25.0897l16.4645 -54.0003 15.1985 54.0003c14.0845,-18.7101 -0.104032,-20.2694 9.34158,-32.127 6.22092,-7.8086 3.47471,-19.4545 5.85666,-21.8733 5.59616,2.74649 12.7242,18.021 10.1356,24.5254 -5.35918,13.4646 8.191,14.3535 11.0784,29.4749l14.2489 -54.0003 19.3142 54.0003c14.7263,-10.7297 5.17351,-21.5445 11.4778,-29.7953 8.80158,-11.5192 -0.148252,-13.551 7.20312,-24.2051 8.60854,6.56277 10.6889,20.7142 8.32139,26.6151 -3.45033,8.5989 7.16741,13.9893 10.9933,27.3852l16.1481 -54.0003 16.4648 54.0003c14.7132,-13.6911 1.54432,-19.5194 7.61755,-27.1517 10.6492,-13.3812 3.08183,-16.0192 8.84693,-26.8486 1.96526,8.61874 13.5479,10.1517 9.18766,23.9936 -2.25439,7.15833 1.68038,17.8155 11.3936,30.0067l38.6286 0c12.6218,-10.9176 4.21966,-22.0425 10.872,-32.0275 7.68955,-11.5427 0.318614,-12.5855 4.64259,-21.9728 6.57978,2.10473 11.107,17.0609 9.06945,23.4128 -2.58548,8.05663 8.57282,21.0251 12.778,30.5875l16.1484 -54.0003 16.4642 54.0003c15.4159,-9.61257 4.09181,-17.8724 10.8578,-28.04 8.24684,-12.3939 0.462047,-15.1294 4.34098,-25.9603 3.98069,12.0957 17.1765,19.076 14.2237,29.0648 -3.83358,12.9662 4.44728,16.9438 8.25676,24.9355l16.7814 -54.0003 17.0983 54.0003c12.1054,-9.46602 3.83414,-14.1863 10.3728,-25.2882 7.07726,-12.0169 1.05591,-21.1181 2.92564,-28.7121 4.44898,12.3834 16.8327,19.1872 14.2971,30.479 -3.92117,17.4631 5.13893,16.0047 8.18334,23.5213l15.5152 -54.0003 19.3144 54.0003c5.19733,-3.2777 1.43858,-17.9796 8.53456,-25.4747 9.48048,-10.0134 1.6217,-17.0986 11.63,-28.5256z"/>
  <path fill="#967C5B" d="M263.686 147.936l-25.9177 0 -2.53304 40.8453c-12.8761,3.48293 -21.9529,0.94989 -32.6129,-0.94989 -4.83676,-10.8292 -5.34586,-19.478 -9.4989,-30.3965l-9.18227 1.89978c4.32737,6.3326 3.90529,21.2142 8.23238,31.0297l-0.94989 2.53304c-10.8938,0.721134 -10.1897,9.1304 -20.6272,4.79707 -1.99389,-0.827717 0.583937,1.95364 -1.23165,-0.581103 -9.65764,-13.4804 -20.3601,-19.9449 -22.786,-36.8289l-11.7153 12.3486c3.60057,9.39317 17.5402,42.6779 36.4649,42.3031 19.7745,-0.391748 33.0786,-20.0795 60.7405,-11.59l-2.21641 32.6129c-47.1637,-1.93578 -66.9283,39.509 -79.4742,42.4284 -13.2985,-1.79405 -19.3144,-13.4039 -15.1982,-18.9978l-11.7153 0c-2.79978,13.4972 9.90851,15.7587 15.8315,26.5969 -5.91024,0.94989 -16.2536,6.64923 -35.4626,-3.79956l0 10.1322c10.2098,6.37399 16.5039,2.65238 25.5558,2.03159 7.9869,-0.547937 7.77799,6.23792 24.6994,-2.60731 24.2354,-12.6686 39.8245,-45.3685 75.447,-35.5201 0.596977,15.3743 0.314362,52.8801 0.183969,99.732 -0.145984,52.5322 -1.45049,113.396 -0.183969,159.271 -11.9772,9.1304 -30.1235,0.748347 -44.8467,2.47862 -30.8143,3.62098 -53.4189,11.6671 -65.6912,4.55103 -5.96665,-3.45997 -16.3979,-20.0897 -20.5469,-17.7951 10.5545,27.1247 13.5096,21.6366 18.3645,26.5969 -7.49339,4.644 -26.7024,21.3199 -17.4147,37.9956 5.11881,-8.70067 24.3176,-31.2905 31.8141,-31.0808 3.73323,0.104598 7.68444,-1.78554 10.6143,-1.53213 -6.64923,2.9554 -18.9978,21.4254 -16.1481,27.8634 5.4618,-1.87427 2.63792,-0.966898 6.11632,-5.76652 2.85307,-3.93619 20.689,-15.8995 28.9993,-20.8196 26.1065,-8.56404 42.8001,-2.63792 57.9736,-3.4937 0.844441,4.644 -19.2087,8.65474 -24.3805,12.9818 5.59389,6.64923 28.2858,6.01597 37.0457,0.94989l1.26652 12.3486c-23.6135,-4.32879 -42.8505,1.57493 -55.2453,4.66526 -17.5309,4.37074 -19.6807,-16.5906 -27.0785,-12.2644 -4.39852,8.84438 7.86189,22.089 15.8315,24.6971 0.198142,3.44325 -6.067,6.55909 -7.65837,10.0964 -1.7331,3.85144 -6.84029,8.99377 -3.10706,16.8171 10.4122,-13.4895 25.9829,-22.6202 33.1075,-25.8653 7.67594,-3.49625 24.5194,-3.54784 45.4167,-3.89792 -0.0890079,16.2074 2.60022,23.595 -0.158173,28.9012 -8.35541,16.0727 -27.9989,1.61405 -34.6711,11.9441 16.1481,7.17704 23.4306,8.33811 42.4284,-3.48293 6.86041,9.18227 -6.5435,12.3486 7.59912,25.0138 13.1927,-12.6652 5.12561,-9.81553 11.986,-18.9978 12.6652,7.07159 28.8133,3.06085 39.2621,-0.94989 -11.4216,-5.8972 -30.7491,-3.78737 -38.1541,-17.6434 -2.81849,-5.27386 -0.385795,0.60463 0.791717,-15.6027 7.28221,-5.66589 30.4583,-6.88054 38.1342,-3.38457 7.12432,3.2451 29.9778,16.1753 40.39,29.6649 2.88822,-19.9565 -8.58274,-17.5385 -10.7654,-28.1801 2.73062,-1.95902 12.8821,-8.98611 17.1683,-12.5294 3.3548,-2.77314 9.7784,-9.47651 1.19622,-9.63468 -12.8696,0.00651969 -21.7225,15.9253 -39.1105,8.46482 -11.738,-5.03632 -23.3994,-7.4109 -42.5801,-7.51493 -0.738992,-6.75468 0.422079,-4.32709 0.31663,-10.1322 6.86013,0.63326 21.003,4.11619 30.0799,2.84967 0.210898,-9.07654 -22.0587,-11.1875 -21.2142,-15.8315 23.6452,5.26224 45.351,-4.58844 61.1399,4.76022 8.31033,4.9201 22.0303,13.0842 24.8831,17.0201 8.22756,7.33238 10.7867,17.824 14.3487,19.6982 5.06608,-8.33783 -3.1663,-20.7919 -6.96586,-30.3965 12.6459,-1.09361 26.5025,10.461 35.1459,18.0479 5.48816,-12.8761 -14.3541,-27.3356 -21.8475,-31.9796 4.8549,-4.96035 22.375,-7.70457 16.1481,-26.5969 -3.04725,0.860599 -22.5003,14.5724 -27.5128,17.4784 -12.2712,7.11525 -18.337,-1.96554 -49.2265,-4.86766 -15.0389,-1.41279 -42.3683,4.43537 -54.0289,-3.74514 1.26652,-45.8756 -1.30479,-107.373 -1.45049,-159.905 -0.13011,-46.8516 -0.413008,-86.2575 0.183969,-101.632 26.4402,-4.4657 57.8608,22.2185 82.0962,34.8869 16.9211,8.84523 14.4964,3.32617 22.483,3.87383 9.0516,0.620504 12.1796,0.542835 22.3895,-5.83115l-1.58315 -10.1322c-15.5784,11.1458 -17.1547,1.81559 -22.1641,2.21641l3.70233 -3.25134 -1.49471 -1.74217 4.27295 -2.4789 2.47153 -6.07578 11.9455 -8.93254 -24.0639 4.43282c1.74076,-0.58167 -3.11414,8.60117 -12.9818,15.1982 -7.51975,-2.80035 -15.6141,-5.67581 -25.3627,-12.2641 -6.66992,-4.50794 -11.2456,-10.6872 -19.9982,-14.8363 -14.741,-6.98797 -36.1179,-9.1389 -42.029,-13.1117 0,-14.4593 -3.1663,-21.6363 -2.84967,-33.8794 32.0947,3.22583 31.1074,-4.76759 50.2917,2.72438 10.1738,4.51588 29.0401,-5.26196 32.8711,-7.85651 6.61068,-4.47647 18.2772,-12.7429 22.2749,-25.2644l-9.4989 -23.114c-0.616252,10.622 -3.99203,16.3585 -1.37027,21.0121 -0.797953,4.88948 -13.7631,15.8899 -15.0035,16.4404 -5.86092,2.60164 -8.17541,8.64539 -11.7601,9.77301 -6.63761,-1.3663 -8.78344,-6.60898 -16.8276,-8.28 -2.68469,0.141732 5.25855,-15.1707 6.3326,-34.196l-7.59912 -1.26652 -12.0319 -2.84967c2.21641,2.11096 4.11619,4.53855 6.3326,6.64923 -1.81673,4.77666 -2.83096,6.85928 -2.7703,11.2428 0.0303307,2.18863 -3.276,6.13559 -3.42964,9.88441 -0.161858,3.95462 -3.52205,5.59049 -4.88211,8.63604 -9.07682,3.1663 -18.4703,5.69934 -31.9796,-2.84967l-1.58315 -36.4125z"/>
  <path fill="#644D36" d="M267.802 147.785l-25.9177 -0.371622 -3.48293 39.4688c-12.8761,3.48293 -21.003,0.63326 -31.663,-1.26652 -4.0269,-10.8289 -5.15877,-18.5278 -9.4989,-29.4466 2.21641,-2.11068 4.43282,-4.53827 6.64923,-6.64923l-12.3486 2.84967 -3.48293 5.69934c4.32737,6.3326 6.75496,19.6311 11.0821,29.4466l-0.94989 5.69934c-15.01,0.721134 -15.5721,7.86444 -19.6773,6.69685 -2.07723,-0.59074 -8.2817,0.687118 -10.0973,-1.84762 -4.30044,-6.00265 -9.85635,-12.1842 -10.0171,-12.6505 -1.49499,-4.33729 -12.1527,-12.9232 -10.2359,-24.1784l-7.28249 8.23238c4.31433,11.255 10.5979,23.3204 17.2089,27.7974 3.83159,2.59484 4.06602,12.35 16.4064,11.9727 19.7697,-0.604347 37.5115,-17.8631 62.9569,-11.2734l-3.79956 39.5788c-47.1637,-1.93578 -65.6618,37.2926 -78.2076,40.212 -13.2985,-1.79405 -20.2643,-14.0372 -16.1481,-19.6311l-10.7654 -0.63326c-2.09084,10.0792 1.42271,6.88167 2.23342,9.98476 0.652252,2.49647 9.23811,11.0055 12.6482,17.2454 -5.91024,0.94989 -16.2536,6.64923 -35.4626,-3.79956l0 10.1322c10.2098,6.37399 16.5039,2.65238 25.5558,2.03159 7.9869,-0.547937 8.09462,5.60495 25.016,-3.24057 24.2357,-12.6686 39.5079,-47.9016 75.1303,-38.0532 0.596977,15.3743 0.314362,56.0461 0.183969,102.898 -0.146268,52.5322 -1.45049,113.396 -0.183969,159.271 -11.9772,9.1304 -30.1235,-0.518173 -44.8467,1.2121 -30.8143,3.62098 -53.4192,12.617 -65.6912,5.50092 -5.96665,-3.45969 -15.448,-9.00766 -19.9137,-17.1618 10.5545,27.1247 17.3092,21.6366 22.1641,26.5969 -7.49339,4.644 -29.2354,20.0534 -22.4807,31.9796 5.11881,-8.70067 24.9508,-25.5915 32.4474,-25.3814 3.73351,0.104598 7.68444,-1.78554 10.6143,-1.53213 -6.64923,2.9554 -18.9978,21.4254 -16.1481,27.8634 5.4618,-1.87427 2.63764,-0.966898 6.11632,-5.76652 2.85307,-3.93647 17.206,-19.6991 25.5164,-24.6192 7.85141,-4.64882 25.5161,-1.41364 33.2598,-3.53367 9.46545,-2.59115 18.3419,1.5772 31.0465,0.989859 0.844441,4.644 -10.3431,8.65474 -15.5149,12.9818 7.8103,-0.31663 14.6707,4.11619 23.4306,-0.94989l5.06608 19.3144c-23.6135,-4.32879 -41.48,0.153921 -53.0289,5.61515 -10.4238,4.92917 -22.1247,-2.1257 -30.8781,-15.4307 0.600095,7.7573 2.58917,12.2426 5.94567,15.0174 4.28797,3.54501 6.83859,7.72073 9.5692,9.67975 0.198142,3.44325 -4.80047,6.24246 -6.39185,9.77982 -1.7331,3.85144 -8.10681,10.2603 -4.37358,18.0836 10.4122,-13.4895 26.2999,-24.52 33.4242,-27.7651 7.67594,-3.49597 22.9363,-6.71415 46.05,-3.89792 1.17751,16.2074 2.60022,25.1779 -0.158173,30.4844 -8.35569,16.0727 -24.1994,6.30482 -35.621,12.202 9.18227,9.7492 21.5308,9.34668 40.5287,-2.47436 5.37364,8.29134 -2.41172,14.8819 6.52819,23.114 13.1927,-12.6652 7.87748,-13.7716 14.7379,-22.9538 12.6652,7.07159 29.3488,4.80047 39.7976,0.789733 -11.4216,-5.8972 -31.0655,-1.57096 -38.4707,-15.427 -2.81849,-5.27414 -0.702426,-4.46145 0.475087,-20.6688 7.28221,-5.66589 28.5585,-3.71424 36.2344,-0.218268 7.12432,3.2451 29.0279,15.5421 39.4401,29.0316 2.88822,-19.9565 -6.68296,-17.8552 -8.86564,-28.4967 2.73062,-1.95902 10.9817,-7.71931 15.2685,-11.2629 3.35509,-2.7737 2.17928,-0.294236 3.096,-7.41827 -10.6532,3.48945 -20.7723,17.1924 -38.1606,9.73134 -11.7386,-5.0366 -24.9826,-5.19449 -44.1632,-5.29852 -0.738992,-6.75468 -0.211181,-11.6096 -0.31663,-17.4147 6.86013,0.63326 13.7205,3.1663 22.7974,1.89978 -1.37225,-7.17676 -16.6759,-12.1374 -15.8315,-16.7814 23.6452,5.26224 54.5332,-3.95518 70.3222,5.39348 8.31033,4.9201 20.4472,16.8837 23.2999,20.8196 3.47811,4.79934 4.13745,7.05855 9.59925,8.93282 2.21641,-5.48816 -13.2985,-19.5253 -17.098,-29.13 2.92989,-0.253417 7.05487,0.719717 10.6143,1.84876 4.32964,1.37367 20.9959,8.44838 30.5476,16.8324 4.53827,-3.3772 -14.3541,-17.2035 -21.8475,-21.8475 4.8549,-4.96035 14.7759,-7.07131 19.3144,-24.0639 -3.02315,0.853796 -4.57796,6.10328 -9.47367,7.83808 -5.29597,1.87625 -9.80419,5.27018 -12.973,7.10731 -12.2712,7.11525 -23.7198,0.250583 -42.2606,-5.18429 -14.495,-4.24885 -51.8672,4.11874 -63.5278,-4.06177 1.26652,-45.8756 -1.30479,-107.373 -1.45049,-159.905 -0.13011,-46.8516 -0.413008,-86.2575 0.183969,-101.632 28.9732,-6.36548 58.1774,20.6351 82.4128,33.3037 16.9214,8.84523 14.1795,4.90933 22.1664,5.45698 9.0516,0.620788 12.1796,0.542835 22.3895,-5.83115l-1.58315 -10.1322c-12.8764,15.1982 -24.4862,3.1663 -30.3965,2.21641 2.77682,-6.23991 10.0967,-14.7495 10.7484,-17.2454 0.810142,-3.10252 8.75708,-0.538866 8.24939,-10.618l-13.9317 9.81553c1.74076,-0.58167 -3.11414,8.60117 -12.9818,15.1982 -7.51975,-2.80035 -15.6141,-5.67581 -25.3627,-12.2641 -6.66992,-4.50794 -11.2456,-10.6872 -19.9982,-14.8363 -14.741,-6.98797 -36.1179,-9.1389 -42.029,-13.1117 0,-14.4593 -3.1663,-21.6363 -2.84967,-33.8794 23.2291,1.32605 30.4742,-8.56715 56.6243,3.04101 10.1738,4.51588 22.7075,-5.57859 26.5385,-8.17314 6.61068,-4.47647 18.2772,-12.7429 22.2749,-25.2644l-9.4989 -23.114c-0.616252,10.622 -1.45899,16.0418 1.16277,20.6955 -0.797953,4.88948 -14.7127,20.0058 -15.9534,20.5566 -5.8612,2.60192 -9.75856,4.84583 -13.3433,5.97345 -10.7538,3.38315 -9.4167,-3.75931 -24.4267,-4.48044l-0.31663 -2.84967c12.8761,-19.3144 3.90501,-16.1481 10.1322,-30.7131l-3.48293 -5.69934 -12.0319 -2.84967c2.21641,2.11096 4.11619,4.53855 6.3326,6.64923 -1.81673,4.77666 -2.83096,6.85928 -2.7703,11.2428 0.0303307,2.18863 -3.276,6.13559 -3.42964,9.88441 -0.161858,3.95462 -3.52205,5.59049 -4.88211,8.63604 -9.07682,3.1663 -18.4703,5.69934 -31.9796,-2.84967l-1.58315 -35.2976z"/>
  <polygon fill="#C4A177" points="131.381,293.269 135.814,299.602 146.579,295.169 152.912,300.235 110.483,333.165 101.618,321.133 111.116,305.935 102.884,309.101 56.0228,285.037 58.5559,278.704 48.4237,262.24 62.3554,250.841 45.8907,238.809 61.0889,222.978 78.8202,198.914 88.9524,190.048 81.3532,190.681 75.0206,182.449 65.5217,181.182 61.0889,161.551 75.0206,131.788 82.6198,130.522 90.2189,136.854 111.116,117.856 163.044,73.5282 199.14,36.7991 211.172,36.1658 233.336,31.0998 242.201,36.7991 280.197,29.8332 290.329,28.5667 343.523,60.2297 339.723,67.8289 420.781,139.387 429.013,130.522 441.045,143.187 461.309,152.052 457.51,174.217 439.145,159.652 411.915,194.481 427.113,210.312 429.646,216.012 439.778,221.711 454.343,235.01 442.312,252.108 457.51,269.206 429.013,298.336 403.049,311.001 406.216,315.434 397.35,326.199 358.721,300.869 363.787,293.903 370.753,297.069 397.983,288.837 394.184,274.905 394.184,254.641 388.484,253.374 366.954,263.506 358.088,254.641 359.354,228.677 385.318,207.779 397.35,198.914 392.284,190.048 364.421,170.417 361.254,148.253 344.789,162.185 336.557,155.219 328.325,143.187 321.359,148.886 320.092,158.385 297.295,143.82 289.696,143.82 275.764,155.219 265.632,148.886 240.302,148.253 228.27,157.752 211.172,147.62 185.841,158.385 173.176,154.585 163.044,160.285 145.946,149.519 146.579,164.718 132.647,180.549 122.515,171.684 102.251,191.315 107.95,202.713 113.65,203.98 138.347,229.31 145.946,262.24 125.048,259.073 120.615,263.506 111.116,258.44 109.217,260.34 112.383,267.939 106.684,276.805 110.483,291.37 "/>
  <path fill="#C4A177" d="M266.536 147.303l-25.9177 0 -2.53304 40.8453c-12.8761,3.48293 -21.9529,0.94989 -32.6129,-0.94989 -4.83676,-10.8292 -5.34586,-19.478 -9.4989,-30.3965 2.21641,-2.11068 4.43282,-4.53827 6.64923,-6.64923l-12.3486 2.84967 -3.48293 5.69934c4.32737,6.3326 6.75496,19.6311 11.0821,29.4466l-0.94989 5.69934c-15.01,0.721134 -15.5721,7.86444 -19.6773,6.69685 -2.07723,-0.59074 -8.2817,0.687118 -10.0973,-1.84762 -4.30044,-6.00265 -9.85635,-12.1842 -10.0171,-12.6505 -1.49499,-4.33729 -12.1527,-12.9232 -10.2359,-24.1784l-7.28249 8.23238c4.31433,11.255 10.5979,23.3204 17.2089,27.7974 3.83159,2.59484 4.06602,12.35 16.4064,11.9727 19.7697,-0.604347 37.5115,-17.8631 62.9569,-11.2734l-3.79956 39.5788c-47.1637,-1.93578 -65.6618,37.2926 -78.2076,40.212 -13.2985,-1.79405 -20.2643,-14.0372 -16.1481,-19.6311l-10.7654 -0.63326c-2.09084,10.0792 1.42271,6.88167 2.23342,9.98476 0.652252,2.49647 9.23811,11.0055 12.6482,17.2454 -5.91024,0.94989 -16.2536,6.64923 -35.4626,-3.79956l0 10.1322c10.2098,6.37399 16.5039,2.65266 25.5558,2.03159 7.98719,-0.547937 6.51118,4.97169 23.4329,-3.87383 24.2357,-12.6689 41.091,-47.2683 76.7135,-37.4199 0.596977,15.3743 0.314362,56.0461 0.183969,102.898 -0.146268,52.5322 -1.45049,113.396 -0.183969,159.271 -11.9772,9.1304 -30.1235,0.748347 -44.8467,2.47862 -30.8143,3.62098 -53.4189,11.6674 -65.6912,4.55103 -5.96693,-3.45997 -15.448,-9.32429 -19.9137,-17.4784 10.5545,27.1247 17.3092,21.6366 22.1641,26.5969 -7.49339,4.644 -29.2354,20.0534 -22.4807,31.9796 5.11881,-8.70067 24.9508,-25.5915 32.4474,-25.3814 3.73351,0.104598 7.68444,-1.78554 10.6143,-1.53213 -6.64923,2.9554 -18.9978,21.4254 -16.1481,27.8634 5.4618,-1.87427 2.63764,-0.966898 6.11632,-5.76652 2.85307,-3.93647 17.206,-19.6991 25.5164,-24.6192 7.85141,-4.64882 25.5161,-1.41364 33.2598,-3.53367 9.46545,-2.59115 18.3419,1.5772 31.0465,0.989859 0.844441,4.644 -10.3431,8.65474 -15.5149,12.9818 7.8103,-0.31663 14.6707,4.11619 23.4306,-0.94989l5.06608 19.3144c-23.6135,-4.32879 -41.48,0.153921 -53.0289,5.61515 -10.4238,4.92917 -22.1247,-2.1257 -30.8781,-15.4307 0.600095,7.7573 2.58917,12.2426 5.94567,15.0174 4.28797,3.54501 6.83859,7.72073 9.5692,9.67975 0.198142,3.44325 -4.80019,6.24246 -6.39185,9.77982 -1.7331,3.85172 -8.10681,9.3104 -4.37358,17.1337 10.4122,-13.4895 23.133,-25.153 30.2579,-28.3983 7.67622,-3.49654 26.1026,-5.13099 49.2163,-2.31477 1.17751,16.2074 2.60051,25.1779 -0.158173,30.4844 -8.35569,16.073 -24.1994,5.41361 -35.621,11.3108 16.1481,7.17704 22.7974,7.70485 41.7952,-4.11619 6.86041,9.18227 -0.210898,17.4147 8.23238,25.647 13.1927,-12.6652 6.39213,-16.1481 13.2525,-25.3304 12.6652,7.07159 26.9136,5.91052 37.3623,1.89978 -11.4216,-5.8972 -30.1156,-0.304158 -37.5208,-14.1605 -2.81877,-5.27414 -0.702426,-4.46145 0.475087,-20.6688 7.28221,-5.66589 28.5585,-3.71424 36.2344,-0.218268 7.12432,3.2451 29.0279,15.5421 39.4401,29.0316 2.88822,-19.9565 -6.68296,-17.8552 -8.86564,-28.4967 2.73062,-1.95902 10.9817,-7.71931 15.2685,-11.2629 3.35509,-2.7737 2.17928,-0.294236 3.096,-7.41827 -10.6532,3.48945 -20.7723,17.1924 -38.1606,9.73134 -11.7386,-5.0366 -24.9826,-5.19449 -44.1632,-5.29852 -0.738992,-6.75468 -0.211181,-11.6096 -0.31663,-17.4147 6.86013,0.63326 13.7205,3.1663 22.7974,1.89978 -1.37225,-7.17676 -16.6759,-12.1374 -15.8315,-16.7814 23.6452,5.26224 54.5332,-3.95518 70.3222,5.39348 8.31033,4.9201 20.4472,16.8837 23.2999,20.8196 3.47811,4.79934 4.13745,7.05855 9.59925,8.93282 2.21641,-5.48816 -13.2985,-19.5253 -17.098,-29.13 2.92989,-0.253417 7.05487,0.719717 10.6143,1.84876 4.32964,1.37367 20.9959,8.44838 30.5476,16.8324 4.53827,-3.3772 -14.3541,-17.2035 -21.8475,-21.8475 4.8549,-4.96035 14.7759,-7.07131 19.3144,-24.0639 -3.02315,0.853796 -4.57796,6.10328 -9.47367,7.83808 -5.29597,1.87625 -9.48756,6.22007 -12.6564,8.0572 -12.2712,7.11525 -28.4689,-3.54841 -59.3586,-6.45081 -15.0392,-1.41307 -35.0858,4.43537 -46.7464,-3.74514 1.26652,-45.8756 -1.30479,-107.373 -1.45049,-159.905 -0.13011,-46.8516 -0.413008,-86.2575 0.183969,-101.632 28.9732,-6.36548 58.1774,20.6351 82.4128,33.3037 16.9214,8.84523 14.1795,4.90933 22.1664,5.45698 9.0516,0.620788 12.1796,0.542835 22.3895,-5.83115l-1.58315 -10.1322c-12.8764,15.1982 -24.4862,3.1663 -30.3965,2.21641 2.77682,-6.23991 10.0967,-14.7495 10.7484,-17.2454 0.810142,-3.10252 8.75708,-0.538866 8.24939,-10.618l-13.9317 9.81553c1.74076,-0.58167 -3.11414,8.60117 -12.9818,15.1982 -7.51975,-2.80035 -15.6141,-5.67581 -25.3627,-12.2641 -6.66992,-4.50794 -11.2456,-10.6872 -19.9982,-14.8363 -14.741,-6.98797 -36.1179,-9.1389 -42.029,-13.1117 0,-14.4593 -3.1663,-21.6363 -2.84967,-33.8794 23.2291,1.32605 30.4742,-8.56715 56.6243,3.04101 10.1738,4.51588 22.7075,-5.57859 26.5385,-8.17314 6.61068,-4.47647 18.2772,-12.7429 22.2749,-25.2644l-9.4989 -23.114c-0.616252,10.622 -1.45899,16.0418 1.16277,20.6955 -0.797953,4.88948 -14.7127,20.0058 -15.9534,20.5566 -5.8612,2.60192 -9.75856,4.84583 -13.3433,5.97345 -10.7538,3.38315 -9.4167,-3.75931 -24.4267,-4.48044l-0.31663 -2.84967c12.8761,-19.3144 3.90501,-16.1481 10.1322,-30.7131l-3.48293 -5.69934 -12.0319 -2.84967c2.21641,2.11096 4.11619,4.53855 6.3326,6.64923 -1.81673,4.77666 -2.83096,6.85928 -2.7703,11.2428 0.0303307,2.18863 -3.276,6.13559 -3.42964,9.88441 -0.161858,3.95462 -3.52205,5.59049 -4.88211,8.63604 -9.07682,3.1663 -18.4703,5.69934 -31.9796,-2.84967l-1.58315 -36.4125z"/>
  <polygon fill="#997E5D" points="239.985,307.834 246.634,316.383 252.017,309.101 258.349,315.434 265.315,307.201 269.432,308.468 265.315,304.352 258.349,312.267 252.65,306.568 246.318,312.901 "/>
  <polygon fill="#997E5D" points="232.702,345.83 240.935,353.746 246.318,346.463 253.6,356.595 260.566,348.363 264.682,349.63 260.566,345.513 253.6,353.429 246.951,343.93 240.618,350.263 "/>
  <polygon fill="#997E5D" points="266.898,399.024 260.249,407.573 254.866,400.29 248.217,408.523 241.568,398.391 233.652,405.357 241.568,395.541 248.534,404.723 254.233,397.757 260.566,404.09 "/>
  <polygon fill="#997E5D" points="232.702,449.368 239.352,457.917 247.901,447.785 253.6,455.701 260.882,447.152 264.971,452.365 270.698,446.202 265.315,451.585 261.516,444.619 253.917,452.851 247.267,444.619 239.035,454.434 "/>
  <polygon fill="#997E5D" points="267.531,488.63 270.295,494.052 267.56,490.28 260.566,498.762 254.866,492.113 247.584,501.929 240.935,491.797 233.019,498.762 240.935,488.947 247.9,498.129 255.183,489.58 260.566,495.913 "/>
  <polygon fill="#997E5D" points="264.682,152.686 264.085,171.46 263.223,173.36 263.96,174.329 263.883,177.79 262.392,178.9 263.784,181.272 263.732,183.082 258.983,183.715 259.132,181.743 261.272,180.484 259.554,179.776 259.384,178.428 261.11,176.517 259.525,175.58 260.566,162.818 258.058,162.327 256.485,162.807 250.275,162.343 250.908,158.86 260.882,159.968 261.516,150.469 "/>
  <path fill="#997E5D" d="M264.999 236.909l-3.79956 -3.1663 -0.515055 -30.7965 2.30825 -2.06192 -1.95619 -0.10885 -0.621071 -1.78895 1.12365 -0.622205 -1.368 -1.31698 1.30762 -1.38501 -1.50321 -0.788599 -0.0425197 -1.34306 4.74945 -1.89978 0 2.29408 -1.42356 1.73991 1.42356 0.715465c12.0861,-0.380693 20.6929,-0.422929 27.7073,-0.0184252 0.448725,0.0257953 0.472252,0.994678 0.907654,1.02331 0.737859,0.0484725 0.411307,-0.837071 1.1143,-0.783496 0.79852,0.0609449 0.213449,0.963497 1.1761,0.92863 0.706394,0.0651969 0.557859,-1.01565 1.22995,-0.943087 0.995528,-0.0535748 -0.291118,1.02019 1.23846,1.04825 0.477638,0.00850394 0.386929,-0.661323 1.05534,-0.720851 0.551339,-0.0493229 0.987024,0.514772 1.59279,0.587339 1.01027,0.121039 2.12343,-0.192473 2.31449,-0.167811 0.403087,0.0527244 0.801355,0.107433 1.19537,0.162709 8.01156,1.12932 14.3535,2.92819 24.4276,4.8994l-2.53304 3.48293c-27.4402,-10.7674 -44.1187,-3.16545 -61.4262,-2.84967 1.05562,16.0427 0.211181,22.5865 0.31663,33.8794z"/>
  <polygon fill="#997E5D" points="263.099,239.759 263.099,253.374 265.315,253.374 265.632,251.474 270.065,253.374 276.714,253.374 266.265,245.458 266.265,240.709 "/>
  <polygon fill="#C4A177" stroke="#644D36" stroke-width="0.708662" points="422.144,139.291 418.661,144.04 432.593,157.655 420.561,165.571 422.777,173.17 437.025,163.671 438.292,180.136 443.991,177.919 442.725,163.988 456.34,174.12 456.657,168.104 446.208,155.755 457.606,142.457 453.49,138.341 443.041,151.639 443.041,136.124 437.659,136.441 437.342,151.323 "/>
  <polygon fill="#997E5D" points="264.049,262.556 260.249,257.807 261.199,256.224 265.632,260.657 "/>
  <polygon fill="#997E5D" points="258.983,251.791 255.5,256.224 256.133,258.124 260.249,252.741 "/>
  <polygon fill="#C4A177" stroke="#644D36" stroke-width="0.708662" points="115.549,298.336 111.75,301.185 122.515,312.584 107.634,325.882 111.433,332.532 126.948,318.917 126.315,336.015 132.331,335.698 133.597,317.967 147.846,330.948 152.912,323.983 139.297,311.634 150.379,299.285 147.212,294.853 133.597,308.784 133.281,294.536 126.948,294.853 126.631,309.418 "/>
  <polygon fill="#C4A177" stroke="#644D36" stroke-width="0.708662" points="129.798,218.228 126.631,222.661 137.397,235.959 125.998,247.041 129.164,250.896 140.563,242.347 140.246,254.007 145.629,254.007 145.946,241.975 160.194,249.258 163.994,246.408 149.745,235.643 162.094,221.078 157.978,217.595 145.313,230.577 145.629,212.845 139.297,213.162 139.93,228.994 "/>
  <polygon fill="#C4A177" stroke="#644D36" stroke-width="0.708662" points="62.3554,279.654 59.5058,285.987 73.4375,294.536 61.7222,309.734 64.8885,313.217 80.0867,296.752 82.6198,317.017 88.9524,315.434 87.6858,300.235 99.4012,308.151 101.934,304.035 91.1688,295.486 99.0845,285.354 94.3351,281.238 87.6858,289.153 84.5195,274.905 78.8202,276.488 79.7701,288.837 "/>
  <polygon fill="#C4A177" stroke="#644D36" stroke-width="0.708662" points="58.2392,227.094 54.1231,231.843 65.8384,244.825 56.9727,255.59 63.3053,260.973 69.3213,253.374 69.6379,263.506 75.3373,263.823 74.3874,250.841 85.7861,257.49 89.9023,253.374 79.4535,246.408 91.4854,230.893 87.6858,227.094 75.0206,240.709 75.0206,221.078 67.7381,222.028 66.7883,237.226 "/>
  <polygon fill="#C4A177" stroke="#644D36" stroke-width="0.708662" points="84.8362,195.431 81.6699,199.864 92.4353,213.162 81.0366,224.244 84.2029,227.727 95.6016,219.178 95.285,231.21 100.668,231.21 100.984,219.178 115.233,226.461 119.032,223.611 104.784,212.845 117.132,198.28 113.016,194.798 100.351,207.779 100.668,190.048 94.3351,190.365 94.9683,206.196 "/>
  <polygon fill="#C4A177" stroke="#644D36" stroke-width="0.708662" points="91.802,238.492 88.6357,242.925 97.818,249.575 89.9023,259.073 93.7018,262.556 100.984,255.59 100.668,267.622 106.05,267.622 106.367,255.59 118.716,263.19 120.932,260.34 110.167,249.258 116.704,242.264 123.782,234.693 118.716,231.21 107.634,244.825 106.05,233.11 100.034,233.426 100.351,242.609 "/>
  <polygon fill="#C4A177" stroke="#644D36" stroke-width="0.708662" points="101.934,99.1752 96.8681,103.925 106.367,113.74 92.7519,114.373 93.3852,119.756 114.283,122.289 113.333,140.021 120.299,137.804 120.299,121.973 134.547,129.255 138.347,126.405 125.998,116.907 138.03,104.558 131.697,100.758 120.615,113.424 119.982,92.8426 113.65,93.1593 114.916,113.424 "/>
  <polygon fill="#C4A177" stroke="#644D36" stroke-width="0.708662" points="53.4898,133.688 49.6902,137.171 61.7222,149.836 49.057,162.818 54.1231,168.517 64.2552,160.601 62.9887,176.116 69.0047,175.483 69.6379,157.435 83.253,164.718 86.7359,160.918 73.4375,151.103 87.0526,136.538 82.6198,132.738 72.4876,144.453 71.2211,131.788 65.5217,129.888 65.5217,145.403 "/>
  <polygon fill="#C4A177" stroke="#644D36" stroke-width="0.708662" points="101.618,144.453 95.6016,150.469 110.8,168.517 96.2349,182.449 100.668,186.249 113.966,174.533 113.65,186.565 119.032,186.565 119.665,170.734 133.597,181.816 137.397,178.966 124.415,164.401 132.647,154.902 128.531,152.369 118.716,163.135 119.032,145.403 112.7,145.72 113.333,161.551 "/>
  <polygon fill="#C4A177" stroke="#644D36" stroke-width="0.708662" points="134.864,75.7446 129.798,80.1774 141.513,90.9428 132.014,99.8085 135.814,107.408 145.629,96.6422 145.313,111.524 153.545,110.891 152.595,91.8927 168.11,102.342 170.643,94.1091 159.877,85.8768 169.06,75.1113 165.577,71.6284 152.278,83.3437 150.695,70.3619 144.363,70.6785 144.996,86.51 "/>
  <polygon fill="#C4A177" stroke="#644D36" stroke-width="0.708662" points="130.748,127.355 127.581,131.788 138.347,145.087 126.948,156.169 130.114,159.652 139.93,150.786 138.98,163.451 146.579,163.135 146.896,151.103 163.044,164.401 166.843,158.702 153.862,144.137 164.31,132.738 160.827,128.305 147.212,140.021 147.212,121.973 140.563,122.289 141.513,141.287 "/>
  <polygon fill="#C4A177" stroke="#644D36" stroke-width="0.708662" points="196.923,124.506 191.541,132.738 204.839,141.604 193.44,152.686 196.607,156.169 208.005,147.62 206.739,163.768 212.755,167.251 213.388,147.62 227.003,159.335 232.069,154.585 217.188,141.287 229.536,126.722 225.42,123.239 211.488,134.005 212.781,128.535 213.071,118.49 206.739,118.806 207.372,134.638 "/>
  <polygon fill="#C4A177" stroke="#644D36" stroke-width="0.708662" points="175.392,31.0998 170.96,34.8993 184.575,48.5144 172.859,60.863 176.659,63.396 189.324,52.314 188.691,67.8289 194.707,66.879 195.023,56.1135 201.356,61.8129 208.322,58.33 198.506,47.5645 205.789,37.4324 202.939,33.6328 194.39,40.282 194.707,23.5006 188.691,23.8173 189.007,44.0816 "/>
  <polygon fill="#C4A177" stroke="#644D36" stroke-width="0.708662" points="207.372,25.7171 203.572,31.4164 215.921,41.8652 203.256,51.0475 206.422,56.4302 218.137,49.4643 217.821,61.4963 223.837,62.4461 223.837,46.6146 239.668,53.2639 242.201,47.2479 231.119,39.6488 236.185,32.0497 231.753,27.6168 222.887,36.4825 223.204,24.4505 217.188,24.7672 218.137,36.4825 "/>
  <polygon fill="#C4A177" stroke="#644D36" stroke-width="0.708662" points="173.493,66.2457 168.11,74.4781 181.408,83.3437 170.01,94.4258 173.176,97.9087 184.575,89.3597 183.308,105.508 189.324,108.991 189.728,96.4772 189.957,89.3597 203.572,101.075 208.639,96.3256 193.757,83.0271 206.105,68.4621 201.989,64.9792 188.058,75.7446 189.641,60.2297 183.308,60.5464 183.941,76.3779 "/>
  <polygon fill="#C4A177" stroke="#644D36" stroke-width="0.708662" points="243.151,122.289 239.035,128.622 250.117,138.754 247.584,142.87 250.434,147.936 256.133,143.187 253.6,159.968 260.882,162.818 261.516,143.187 272.598,151.419 276.397,146.353 265.315,136.854 277.664,122.289 273.548,118.806 261.516,130.522 259.616,109.941 253.6,109.307 254.55,131.788 "/>
  <polygon fill="#C4A177" stroke="#644D36" stroke-width="0.708662" points="278.93,117.54 273.919,125.456 289.118,135.904 278.297,146.353 282.413,151.103 292.862,141.287 293.495,164.084 299.195,164.084 298.245,142.554 310.277,154.269 315.976,149.519 302.361,135.588 312.81,124.189 307.11,119.123 298.245,127.989 296.028,114.057 289.696,114.69 292.229,130.205 "/>
  <polygon fill="#C4A177" stroke="#644D36" stroke-width="0.708662" points="242.518,26.3503 238.718,32.0497 251.067,42.4984 238.402,51.6807 241.568,57.0634 253.283,50.0976 252.967,62.1295 258.983,63.0794 258.983,47.2479 274.814,53.8971 277.347,47.8812 266.265,40.282 271.331,32.6829 266.898,28.2501 258.033,37.1157 258.349,25.0838 252.333,25.4004 253.283,37.1157 "/>
  <polygon fill="#C4A177" stroke="#644D36" stroke-width="0.708662" points="304.894,31.733 300.778,37.4324 313.443,47.8812 302.044,54.847 305.211,58.9632 318.193,50.4142 311.543,64.6626 321.992,65.6124 321.675,53.2639 334.024,62.4461 337.824,55.7969 325.158,48.831 338.457,36.4825 333.074,34.8993 322.942,42.8151 322.309,23.5006 317.243,23.8173 317.876,46.6146 "/>
  <polygon fill="#C4A177" stroke="#644D36" stroke-width="0.708662" points="276.397,24.7672 272.598,30.4665 284.946,40.9153 272.281,50.0976 275.447,55.4803 287.163,48.5144 286.846,60.5464 292.862,61.4963 292.862,45.6647 308.694,52.314 311.227,46.298 300.145,38.6989 305.211,31.0998 300.778,26.6669 291.912,35.5326 292.229,23.5006 286.213,23.8173 287.163,35.5326 "/>
  <polygon fill="#C4A177" stroke="#644D36" stroke-width="0.708662" points="318.193,117.223 314.393,122.922 326.742,134.005 315.659,146.036 321.675,149.836 328.958,140.97 328.641,153.002 335.924,153.952 334.657,138.121 347.006,148.253 350.805,142.237 336.557,130.838 347.006,123.556 342.256,119.44 333.707,127.989 334.024,115.957 328.008,115.64 328.958,127.989 "/>
  <polygon fill="#C4A177" stroke="#644D36" stroke-width="0.708662" points="342.573,71.3118 339.09,76.0612 353.022,89.6763 340.99,99.8085 344.789,104.875 357.455,95.6923 358.088,108.991 365.687,108.041 363.787,95.059 372.653,107.408 377.086,100.125 368.537,91.2595 381.519,78.9109 377.402,73.8448 364.737,83.977 365.37,68.4621 358.088,68.4621 359.671,86.1934 "/>
  <polygon fill="#C4A177" stroke="#644D36" stroke-width="0.708662" points="379.302,102.342 375.186,109.307 388.168,119.123 376.452,127.672 381.202,132.738 391.651,123.556 391.334,139.704 397.667,138.437 396.717,124.189 403.999,134.638 410.015,129.255 401.783,121.973 417.864,120.693 417.416,115.263 404.379,116.463 414.131,106.458 408.749,102.975 397.667,115.323 396.717,98.542 390.068,98.8586 391.334,115.323 "/>
  <polygon fill="#C4A177" stroke="#644D36" stroke-width="0.708662" points="377.719,150.786 374.236,155.535 388.168,169.15 376.136,179.283 379.935,184.349 392.601,175.166 387.851,189.731 394.5,190.998 396.717,179.283 404.949,191.631 410.332,179.283 401.15,171.05 415.715,155.852 410.649,150.786 399.883,163.451 400.516,147.936 393.234,147.936 394.817,165.668 "/>
  <polygon fill="#C4A177" stroke="#644D36" stroke-width="0.708662" points="273.231,70.0453 269.432,75.7446 281.78,86.8267 270.698,98.8586 276.714,102.658 283.996,93.7925 283.68,105.824 290.962,106.774 289.696,90.9428 302.044,101.075 305.844,95.059 291.596,83.6604 302.044,76.3779 297.295,72.2617 288.746,80.8107 289.063,68.7787 283.047,68.4621 283.996,80.8107 "/>
  <polygon fill="#C4A177" stroke="#644D36" stroke-width="0.708662" points="211.172,76.6945 207.372,82.3938 219.721,93.4759 208.639,105.508 214.655,109.307 221.937,100.442 221.62,112.474 228.903,113.424 227.636,97.5921 239.985,107.724 243.784,101.708 229.536,90.3096 239.985,83.0271 235.235,78.9109 226.686,87.4599 227.003,75.428 220.987,75.1113 221.937,87.4599 "/>
  <polygon fill="#C4A177" stroke="#644D36" stroke-width="0.708662" points="164.31,110.574 160.511,116.273 172.859,127.355 161.777,139.387 167.793,143.187 175.076,134.321 174.759,146.353 182.042,147.303 180.775,131.471 193.124,141.604 196.923,135.588 182.675,124.189 193.124,116.907 188.374,112.79 179.825,121.339 180.142,109.307 174.126,108.991 175.076,121.339 "/>
  <polygon fill="#C4A177" stroke="#644D36" stroke-width="0.708662" points="239.668,67.5122 235.869,73.2116 248.217,84.2936 237.135,96.3256 243.151,100.125 250.434,91.2595 250.117,103.291 257.4,104.241 256.133,88.4098 268.482,98.542 272.281,92.526 258.033,81.1273 268.482,73.8448 263.732,69.7286 255.183,78.2776 255.5,66.2457 249.484,65.9291 250.434,78.2776 "/>
  <polygon fill="#C4A177" stroke="#644D36" stroke-width="0.708662" points="307.11,73.8448 303.311,79.5442 315.659,90.6262 304.577,102.658 310.593,106.458 317.876,97.5921 317.559,109.624 324.842,110.574 323.575,94.7424 335.924,104.875 339.723,98.8586 325.475,87.4599 335.924,80.1774 331.174,76.0612 322.625,84.6102 322.942,72.5783 316.926,72.2617 317.876,84.6102 "/>
  <polygon fill="#C4A177" stroke="#644D36" stroke-width="0.708662" points="344.473,112.79 340.673,118.49 353.022,129.572 341.94,141.604 347.956,145.403 355.238,136.538 354.922,148.57 362.204,149.519 360.938,133.688 373.286,143.82 377.086,137.804 362.837,126.405 373.286,119.123 368.537,115.007 359.988,123.556 360.304,111.524 354.288,111.207 355.238,123.556 "/>
  <polygon fill="#C4A177" stroke="#644D36" stroke-width="0.708662" points="341.623,216.645 336.874,221.711 353.655,235.326 340.04,247.991 344.156,252.741 355.238,241.342 355.872,260.023 361.254,260.023 361.887,241.975 373.286,251.158 377.719,247.358 366.954,236.593 378.669,225.511 373.919,219.811 362.837,227.727 365.054,214.429 357.138,214.745 355.872,230.893 "/>
  <polygon fill="#C4A177" stroke="#644D36" stroke-width="0.708662" points="364.104,296.119 360.304,301.818 371.07,309.418 357.455,323.983 360.304,327.466 374.869,313.534 377.086,334.748 383.735,336.015 382.785,314.167 396.717,324.932 398.3,320.816 384.685,310.051 392.917,302.452 388.168,298.336 379.619,306.885 379.935,294.853 373.919,294.536 375.503,306.568 "/>
  <polygon fill="#C4A177" stroke="#644D36" stroke-width="0.708662" points="407.799,275.222 403.049,280.921 416.664,293.269 401.466,307.834 405.266,310.684 420.781,297.702 420.464,319.233 427.43,316.7 426.48,298.969 443.895,311.634 447.378,303.718 430.913,295.486 435.205,290.968 442.945,282.821 434.712,276.805 426.48,285.037 425.847,272.689 419.831,272.372 420.781,284.72 "/>
  <polygon fill="#C4A177" stroke="#644D36" stroke-width="0.708662" points="425.53,231.527 420.781,237.859 434.712,247.041 422.364,257.49 426.797,263.19 435.029,252.424 433.129,271.105 441.362,273.322 440.728,259.707 454.66,272.372 458.46,267.306 442.312,251.474 456.56,235.643 450.227,232.476 439.778,242.292 439.462,225.511 432.496,226.144 435.029,240.709 "/>
  <polygon fill="#C4A177" stroke="#644D36" stroke-width="0.708662" points="389.751,204.93 385.951,210.629 398.3,221.711 387.218,233.743 393.234,237.543 400.516,228.677 400.2,240.709 407.482,241.659 406.216,225.827 418.564,235.959 422.364,229.943 408.115,218.545 418.564,211.262 413.815,207.146 405.266,215.695 405.582,203.663 399.566,203.347 400.516,215.695 "/>
  <polygon fill="#C4A177" stroke="#644D36" stroke-width="0.708662" points="384.368,240.392 381.202,244.192 389.434,251.791 385.635,258.757 387.535,261.29 394.817,255.59 394.184,272.689 401.466,273.638 400.2,257.807 412.548,267.939 416.348,261.923 403.999,254.007 415.081,245.458 410.332,241.026 399.883,249.258 399.566,239.126 392.917,240.076 393.867,249.891 "/>
  <polygon fill="#C4A177" points="113.32,299.079 109.52,301.928 120.285,313.327 105.404,326.626 109.203,333.275 124.718,319.66 124.085,336.758 130.101,336.441 131.367,318.71 145.616,331.692 150.682,324.726 137.067,312.377 148.149,300.029 144.983,295.596 131.367,309.528 131.051,295.279 124.718,295.596 124.402,310.161 "/>
  <polygon fill="#C4A177" points="128.311,216.742 125.145,221.174 135.91,234.473 124.512,245.555 127.678,249.038 139.077,240.489 138.76,252.521 144.143,252.521 144.459,240.489 158.708,247.771 162.507,244.922 148.259,234.156 160.607,219.591 156.491,216.108 143.826,229.09 144.143,211.359 137.81,211.676 138.443,227.507 "/>
  <polygon fill="#C4A177" points="60.8689,278.168 58.0193,284.5 71.951,293.05 60.2357,308.248 63.402,311.731 78.6002,295.266 81.1333,315.53 87.4659,313.947 86.1994,298.749 97.9147,306.665 100.448,302.548 89.6823,293.999 97.598,283.867 92.8486,279.751 86.1994,287.667 83.033,273.418 77.3337,275.002 78.2836,287.35 "/>
  <polygon fill="#C4A177" points="59.3541,227.094 55.2379,231.843 66.9532,244.825 58.0876,255.59 64.4202,260.973 70.4362,253.374 70.7528,263.506 76.4521,263.823 75.5022,250.841 86.9009,257.49 91.0171,253.374 80.5683,246.408 92.6003,230.893 88.8007,227.094 76.1355,240.709 76.1355,221.078 68.853,222.028 67.9031,237.226 "/>
  <polygon fill="#C4A177" points="83.3497,193.944 80.1834,198.377 90.9488,211.676 79.5501,222.758 82.7164,226.241 94.1151,217.692 93.7985,229.723 99.1812,229.723 99.4978,217.692 113.746,224.974 117.546,222.124 103.297,211.359 115.646,196.794 111.53,193.311 98.8646,206.293 99.1812,188.562 92.8486,188.878 93.4818,204.71 "/>
  <polygon fill="#C4A177" points="90.3155,237.006 87.1492,241.439 96.3315,248.088 88.4158,257.587 92.2153,261.07 99.4978,254.104 99.1812,266.136 104.564,266.136 104.881,254.104 117.229,261.703 119.446,258.853 108.68,247.771 122.295,233.206 117.229,229.723 106.147,243.339 104.564,231.623 98.5479,231.94 98.8646,241.122 "/>
  <polygon fill="#C4A177" points="100.448,97.6887 95.3816,102.438 104.881,112.254 91.2654,112.887 91.8987,118.27 112.796,120.803 111.846,138.534 118.812,136.318 118.812,120.486 133.061,127.769 136.86,124.919 124.512,115.42 136.544,103.071 130.211,99.2719 119.129,111.937 118.496,91.3561 112.163,91.6728 113.43,111.937 "/>
  <polygon fill="#C4A177" points="52.0033,132.201 48.2037,135.684 60.2357,148.35 47.5705,161.331 52.6366,167.031 62.7687,159.115 61.5022,174.63 67.5182,173.997 68.1514,155.949 81.7665,163.231 85.2495,159.432 71.951,149.616 85.5661,135.051 81.1333,131.252 71.0011,142.967 69.7346,130.302 64.0352,128.402 64.0352,143.917 "/>
  <polygon fill="#C4A177" points="102.361,142.967 96.3448,148.983 111.543,167.031 96.9781,180.962 101.411,184.762 114.709,173.047 114.393,185.079 119.775,185.079 120.409,169.247 134.34,180.329 138.14,177.48 125.158,162.915 133.391,153.416 129.274,150.883 119.459,161.648 119.775,143.917 113.443,144.233 114.076,160.065 "/>
  <polygon fill="#C4A177" points="133.377,74.2581 128.311,78.6909 140.026,89.4564 130.528,98.322 134.327,105.921 144.143,95.1557 143.826,110.037 152.058,109.404 151.109,90.4063 166.623,100.855 169.156,92.6227 158.391,84.3903 167.573,73.6249 164.09,70.1419 150.792,81.8572 149.209,68.8754 142.876,69.192 143.509,85.0235 "/>
  <polygon fill="#C4A177" points="129.261,125.869 126.095,130.302 136.86,143.6 125.461,154.682 128.628,158.165 138.443,149.299 137.493,161.965 145.093,161.648 145.409,149.616 161.557,162.915 165.357,157.215 152.375,142.65 162.824,131.252 159.341,126.819 145.726,138.534 145.726,120.486 139.077,120.803 140.026,139.801 "/>
  <polygon fill="#C4A177" points="195.437,123.019 190.054,131.252 203.352,140.117 191.954,151.199 195.12,154.682 206.519,146.133 205.252,162.281 211.268,165.764 211.901,146.133 225.517,157.848 230.583,153.099 215.701,139.801 228.05,125.236 223.933,121.753 210.002,132.518 211.585,117.003 205.252,117.32 205.886,133.151 "/>
  <polygon fill="#C4A177" points="173.906,29.6133 169.473,33.4128 183.088,47.0279 171.373,59.3765 175.172,61.9095 187.838,50.8275 187.204,66.3424 193.22,65.3925 193.537,54.6271 199.87,60.3264 206.835,56.8435 197.02,46.078 204.302,35.9459 201.453,32.1463 192.904,38.7955 193.22,22.0142 187.204,22.3308 187.521,42.5951 "/>
  <polygon fill="#C4A177" points="205.886,24.2306 202.086,29.9299 214.435,40.3787 201.769,49.561 204.936,54.9437 216.651,47.9778 216.334,60.0098 222.35,60.9597 222.35,45.1281 238.182,51.7774 240.715,45.7614 229.633,38.1623 234.699,30.5632 230.266,26.1303 221.4,34.996 221.717,22.964 215.701,23.2807 216.651,34.996 "/>
  <polygon fill="#C4A177" points="172.006,64.7592 166.623,72.9916 179.922,81.8572 168.523,92.9393 171.689,96.4222 183.088,87.8732 181.822,104.021 187.838,107.504 188.471,87.8732 202.086,99.5885 207.152,94.8391 192.27,81.5406 204.619,66.9756 200.503,63.4927 186.571,74.2581 188.154,58.7432 181.822,59.0599 182.455,74.8914 "/>
  <polygon fill="#C4A177" points="243.46,120.803 239.343,127.135 250.425,137.268 247.892,141.384 250.742,146.45 256.441,141.7 253.908,158.482 261.191,161.331 261.824,141.7 272.906,149.933 276.706,144.867 265.624,135.368 277.972,120.803 273.856,117.32 261.824,129.035 259.924,108.454 253.908,107.821 254.858,130.302 "/>
  <polygon fill="#C4A177" points="280.045,117.168 274.663,125.084 289.861,135.533 279.412,145.981 283.528,150.731 293.977,140.915 294.61,163.713 300.31,163.713 299.36,142.182 311.392,153.897 317.091,149.148 303.476,135.216 313.925,123.817 308.225,118.751 299.36,127.617 297.143,113.685 290.811,114.318 293.344,129.833 "/>
  <polygon fill="#C4A177" points="241.031,24.8638 237.232,30.5632 249.58,41.012 236.915,50.1942 240.082,55.5769 251.797,48.6111 251.48,60.643 257.496,61.5929 257.496,45.7614 273.328,52.4106 275.861,46.3947 264.779,38.7955 269.845,31.1964 265.412,26.7636 256.546,35.6292 256.863,23.5973 250.847,23.9139 251.797,35.6292 "/>
  <polygon fill="#C4A177" points="303.408,30.2465 299.291,35.9459 311.957,46.3947 300.558,53.3605 303.724,57.4767 316.706,48.9277 310.057,63.1761 320.506,64.126 320.189,51.7774 332.538,60.9597 336.337,54.3104 323.672,47.3446 336.97,34.996 331.588,33.4128 321.456,41.3286 320.822,22.0142 315.756,22.3308 316.389,45.1281 "/>
  <polygon fill="#C4A177" points="277.884,25.1388 274.084,30.8381 286.433,41.2869 273.768,50.4692 276.934,55.8519 288.649,48.886 288.333,60.918 294.349,61.8679 294.349,46.0364 310.18,52.6856 312.713,46.6696 301.631,39.0705 306.697,31.4714 302.264,27.0386 293.399,35.9042 293.715,23.8723 287.699,24.1889 288.649,35.9042 "/>
  <polygon fill="#C4A177" points="316.706,115.737 312.906,121.436 325.255,132.518 314.173,144.55 320.189,148.35 327.471,139.484 327.155,151.516 334.437,152.466 333.171,136.634 345.519,146.766 349.319,140.75 335.071,129.352 345.519,122.069 340.77,117.953 332.221,126.502 332.538,114.47 326.522,114.154 327.471,126.502 "/>
  <polygon fill="#C4A177" points="341.087,69.8253 337.604,74.5747 351.535,88.1898 339.503,98.322 343.303,103.388 355.968,94.2058 356.601,107.504 364.201,106.554 362.301,93.5726 371.166,105.921 375.599,98.6386 367.05,89.773 380.032,77.4244 375.916,72.3583 363.251,82.4905 363.884,66.9756 356.601,66.9756 358.185,84.7069 "/>
  <polygon fill="#C4A177" points="377.816,100.855 373.699,107.821 386.681,117.636 374.966,126.185 379.715,131.252 390.164,122.069 389.848,138.217 396.18,136.951 395.23,122.703 402.513,133.151 408.529,127.769 400.296,120.486 416.378,119.206 415.929,113.776 402.893,114.977 412.645,104.971 407.262,101.488 396.18,113.837 395.23,97.0555 388.581,97.3721 389.848,113.837 "/>
  <polygon fill="#C4A177" points="422.144,136.318 418.661,141.067 432.593,154.682 420.561,162.598 422.777,170.197 437.025,160.698 438.292,177.163 443.991,174.946 442.725,161.015 456.34,171.147 456.657,165.131 446.208,152.782 457.606,139.484 453.49,135.368 443.041,148.666 443.041,133.151 437.659,133.468 437.342,148.35 "/>
  <polygon fill="#C4A177" points="376.233,149.299 372.75,154.049 386.681,167.664 374.649,177.796 378.449,182.862 391.114,173.68 386.365,188.245 393.014,189.511 395.23,177.796 403.463,190.145 408.845,177.796 399.663,169.564 414.228,154.366 409.162,149.299 398.397,161.965 399.03,146.45 391.747,146.45 393.331,164.181 "/>
  <polygon fill="#C4A177" points="273.974,70.4169 270.175,76.1162 282.523,87.1983 271.441,99.2302 277.457,103.03 284.74,94.1641 284.423,106.196 291.706,107.146 290.439,91.3145 302.788,101.447 306.587,95.4307 292.339,84.032 302.788,76.7495 298.038,72.6333 289.489,81.1823 289.806,69.1504 283.79,68.8337 284.74,81.1823 "/>
  <polygon fill="#C4A177" points="209.685,75.208 205.886,80.9073 218.234,91.9894 207.152,104.021 213.168,107.821 220.451,98.9553 220.134,110.987 227.416,111.937 226.15,96.1056 238.498,106.238 242.298,100.222 228.05,88.8231 238.498,81.5406 233.749,77.4244 225.2,85.9734 225.517,73.9415 219.501,73.6249 220.451,85.9734 "/>
  <polygon fill="#C4A177" points="162.824,109.087 159.024,114.787 171.373,125.869 160.291,137.901 166.307,141.7 173.589,132.835 173.273,144.867 180.555,145.817 179.289,129.985 191.637,140.117 195.437,134.101 181.188,122.703 191.637,115.42 186.888,111.304 178.339,119.853 178.655,107.821 172.639,107.504 173.589,119.853 "/>
  <polygon fill="#C4A177" points="238.182,66.0257 234.382,71.7251 246.731,82.8071 235.649,94.8391 241.665,98.6386 248.947,89.773 248.631,101.805 255.913,102.755 254.647,86.9233 266.995,97.0555 270.795,91.0395 256.546,79.6408 266.995,72.3583 262.246,68.2421 253.697,76.7912 254.013,64.7592 247.997,64.4426 248.947,76.7912 "/>
  <polygon fill="#C4A177" points="305.624,72.3583 301.824,78.0577 314.173,89.1397 303.091,101.172 309.107,104.971 316.389,96.1056 316.073,108.138 323.355,109.087 322.089,93.2559 334.437,103.388 338.237,97.3721 323.989,85.9734 334.437,78.6909 329.688,74.5747 321.139,83.1238 321.456,71.0918 315.44,70.7752 316.389,83.1238 "/>
  <polygon fill="#C4A177" points="342.986,111.304 339.187,117.003 351.535,128.085 340.453,140.117 346.469,143.917 353.752,135.051 353.435,147.083 360.718,148.033 359.451,132.201 371.8,142.334 375.599,136.318 361.351,124.919 371.8,117.636 367.05,113.52 358.501,122.069 358.818,110.037 352.802,109.721 353.752,122.069 "/>
  <polygon fill="#C4A177" points="340.137,215.159 335.387,220.225 352.169,233.84 338.554,246.505 342.67,251.254 353.752,239.856 354.385,258.537 359.768,258.537 360.401,240.489 371.8,249.671 376.233,245.872 365.467,235.106 377.182,224.024 372.433,218.325 361.351,226.241 363.567,212.942 355.652,213.259 354.385,229.407 "/>
  <polygon fill="#C4A177" points="362.617,294.633 358.818,300.332 369.583,307.931 355.968,322.496 358.818,325.979 373.383,312.047 375.599,333.262 382.248,334.528 381.299,312.681 395.23,323.446 396.813,319.33 383.198,308.564 391.431,300.965 386.681,296.849 378.132,305.398 378.449,293.366 372.433,293.05 374.016,305.081 "/>
  <polygon fill="#C4A177" points="406.312,273.735 401.563,279.434 415.178,291.783 399.98,306.348 403.779,309.198 419.294,296.216 418.978,317.747 425.943,315.214 424.994,297.482 442.408,310.148 445.891,302.232 429.426,293.999 441.458,281.334 433.226,275.318 424.994,283.551 424.36,271.202 418.344,270.885 419.294,283.234 "/>
  <polygon fill="#C4A177" points="424.044,230.04 419.294,236.373 433.226,245.555 420.877,256.004 425.31,261.703 433.543,250.938 431.643,269.619 439.875,271.835 439.242,258.22 453.174,270.885 456.973,265.819 440.825,249.988 455.073,234.156 448.741,230.99 438.292,240.806 437.975,224.024 431.01,224.657 433.543,239.222 "/>
  <polygon fill="#C4A177" points="388.264,203.443 384.465,209.143 396.813,220.225 385.731,232.257 391.747,236.056 399.03,227.19 398.713,239.222 405.996,240.172 404.729,224.341 417.078,234.473 420.877,228.457 406.629,217.058 417.078,209.776 412.328,205.66 403.779,214.209 404.096,202.177 398.08,201.86 399.03,214.209 "/>
  <polygon fill="#C4A177" points="382.882,238.906 379.715,242.705 387.948,250.304 384.148,257.27 386.048,259.803 393.331,254.104 392.697,271.202 399.98,272.152 398.713,256.32 411.062,266.453 414.861,260.437 402.513,252.521 413.595,243.972 408.845,239.539 398.397,247.771 398.08,237.639 391.431,238.589 392.381,248.405 "/>
  <polygon fill="#C4A177" points="60.8689,281.141 58.0193,287.473 71.951,296.022 60.2357,311.221 63.402,314.704 78.6002,298.239 81.1333,318.503 87.4659,316.92 86.1994,301.722 97.9147,309.638 100.448,305.521 89.6823,296.972 97.598,286.84 92.8486,282.724 86.1994,290.64 83.033,276.391 77.3337,277.975 78.2836,290.323 "/>
  <polygon fill="#C4A177" points="83.3497,196.917 80.1834,201.35 90.9488,214.649 79.5501,225.731 82.7164,229.214 94.1151,220.665 93.7985,232.696 99.1812,232.696 99.4978,220.665 113.746,227.947 117.546,225.097 103.297,214.332 115.646,199.767 111.53,196.284 98.8646,209.266 99.1812,191.535 92.8486,191.851 93.4818,207.683 "/>
  <polygon fill="#C4A177" points="100.448,100.662 95.3816,105.411 104.881,115.227 91.2654,115.86 91.8987,121.243 112.796,123.776 111.846,141.507 118.812,139.291 118.812,123.459 133.061,130.742 136.86,127.892 124.512,118.393 136.544,106.044 130.211,102.245 119.129,114.91 118.496,94.3291 112.163,94.6457 113.43,114.91 "/>
  <polygon fill="#C4A177" points="52.0033,135.174 48.2037,138.657 60.2357,151.323 47.5705,164.304 52.6366,170.004 62.7687,162.088 61.5022,177.603 67.5182,176.97 68.1514,158.922 81.7665,166.204 85.2495,162.405 71.951,152.589 85.5661,138.024 81.1333,134.225 71.0011,145.94 69.7346,133.275 64.0352,131.375 64.0352,146.89 "/>
  <polygon fill="#C4A177" points="133.377,77.2311 128.311,81.6639 140.026,92.4293 130.528,101.295 134.327,108.894 144.143,98.1287 143.826,113.01 152.058,112.377 151.109,93.3792 166.623,103.828 169.156,95.5956 158.391,87.3633 167.573,76.5978 164.09,73.1149 150.792,84.8302 149.209,71.8484 142.876,72.165 143.509,87.9965 "/>
  <polygon fill="#C4A177" points="130.004,127.355 126.838,131.788 137.603,145.087 126.205,156.169 129.371,159.652 139.187,150.786 138.237,163.451 145.836,163.135 146.152,151.103 162.301,164.401 166.1,158.702 153.118,144.137 163.567,132.738 160.084,128.305 146.469,140.021 146.469,121.973 139.82,122.289 140.77,141.287 "/>
  <polygon fill="#C4A177" points="195.437,125.992 190.054,134.225 203.352,143.09 191.954,154.172 195.12,157.655 206.519,149.106 205.252,165.254 211.268,168.737 211.901,149.106 225.517,160.821 230.583,156.072 215.701,142.774 228.05,128.209 223.933,124.726 210.002,135.491 211.585,119.976 205.252,120.293 205.886,136.124 "/>
  <polygon fill="#C4A177" points="173.906,32.5863 169.473,36.3858 183.088,50.0009 171.373,62.3495 175.172,64.8825 187.838,53.8005 187.204,69.3153 193.22,68.3655 193.537,57.6 199.87,63.2994 206.835,59.8164 197.02,49.051 204.302,38.9189 201.453,35.1193 192.904,41.7685 193.22,24.9871 187.204,25.3038 187.521,45.5681 "/>
  <polygon fill="#C4A177" points="172.006,70.7052 166.623,78.9376 179.922,87.8032 168.523,98.8852 171.689,102.368 183.088,93.8192 181.822,109.967 187.838,113.45 188.471,93.8192 202.086,105.534 207.152,100.785 192.27,87.4866 204.619,72.9216 200.503,69.4386 186.571,80.2041 188.154,64.6892 181.822,65.0058 182.455,80.8373 "/>
  <polygon fill="#C4A177" points="241.031,27.8368 237.232,33.5361 249.58,43.9849 236.915,53.1672 240.082,58.5499 251.797,51.5841 251.48,63.616 257.496,64.5659 257.496,48.7344 273.328,55.3836 275.861,49.3676 264.779,41.7685 269.845,34.1694 265.412,29.7366 256.546,38.6022 256.863,26.5703 250.847,26.8869 251.797,38.6022 "/>
  <polygon fill="#C4A177" points="303.408,33.2195 299.291,38.9189 311.957,49.3676 300.558,56.3335 303.724,60.4497 316.706,51.9007 310.057,66.149 320.506,67.0989 320.189,54.7504 332.538,63.9326 336.337,56.9118 323.672,50.3175 336.97,37.969 331.588,36.3858 321.456,44.3016 320.822,24.9871 315.756,25.3038 316.389,48.1011 "/>
  <polygon fill="#C4A177" points="316.706,118.71 312.906,124.409 325.255,135.491 314.173,147.523 320.189,151.323 327.471,142.457 327.155,154.489 334.437,155.439 333.171,139.607 345.519,149.739 349.319,143.723 335.071,132.325 345.519,125.042 340.77,120.926 332.221,129.475 332.538,117.443 326.522,117.126 327.471,129.475 "/>
  <polygon fill="#C4A177" points="341.087,72.7983 337.604,77.5477 351.535,91.1628 339.503,101.295 343.303,106.361 355.968,97.1788 356.601,110.477 364.201,109.527 362.301,96.5455 371.166,108.894 375.599,101.612 367.05,92.746 380.032,80.3974 375.916,75.3313 363.251,85.4635 363.884,69.9486 356.601,69.9486 358.185,87.6799 "/>
  <polygon fill="#C4A177" points="377.816,103.828 373.699,110.794 386.681,120.609 374.966,129.158 379.715,134.225 390.164,125.042 389.848,141.19 396.18,139.924 395.23,125.675 402.513,136.124 408.529,130.742 400.296,123.459 416.378,122.179 415.929,116.749 402.893,117.95 412.645,107.944 407.262,104.461 396.18,116.81 395.23,100.028 388.581,100.345 389.848,116.81 "/>
  <polygon fill="#C4A177" points="376.233,152.272 372.75,157.022 386.681,170.637 374.649,180.769 378.449,185.835 391.114,176.653 386.365,191.218 393.014,192.484 395.23,180.769 403.463,193.118 408.845,180.769 399.663,172.537 414.228,157.339 409.162,152.272 398.397,164.938 399.03,149.423 391.747,149.423 393.331,167.154 "/>
  <polygon fill="#C4A177" points="162.824,112.06 159.024,117.76 171.373,128.842 160.291,140.874 166.307,144.673 173.589,135.808 173.273,147.84 180.555,148.789 179.289,132.958 191.637,143.09 195.437,137.074 181.188,125.675 191.637,118.393 186.888,114.277 178.339,122.826 178.655,110.794 172.639,110.477 173.589,122.826 "/>
  <polygon fill="#C4A177" points="239.297,68.6271 235.497,74.3264 247.846,85.4085 236.764,97.4404 242.78,101.24 250.062,92.3743 249.745,104.406 257.028,105.356 255.761,89.5247 268.11,99.6568 271.91,93.6409 257.661,82.2422 268.11,74.9597 263.361,70.8435 254.812,79.3925 255.128,67.3606 249.112,67.0439 250.062,79.3925 "/>
  <polygon fill="#C4A177" points="306.367,73.8448 302.568,79.5442 314.916,90.6262 303.834,102.658 309.85,106.458 317.133,97.5921 316.816,109.624 324.099,110.574 322.832,94.7424 335.181,104.875 338.98,98.8586 324.732,87.4599 335.181,80.1774 330.431,76.0612 321.882,84.6102 322.199,72.5783 316.183,72.2617 317.133,84.6102 "/>
  <polygon fill="#C4A177" points="340.757,116.507 336.957,122.206 349.306,133.288 338.224,145.32 344.24,149.119 351.522,140.254 351.205,152.286 358.488,153.236 357.221,137.404 369.57,147.536 373.37,141.52 359.121,130.122 369.57,122.839 364.82,118.723 356.271,127.272 356.588,115.24 350.572,114.923 351.522,127.272 "/>
  <polygon fill="#C4A177" points="340.137,218.131 335.387,223.198 352.169,236.813 338.554,249.478 342.67,254.227 353.752,242.829 354.385,261.51 359.768,261.51 360.401,243.462 371.8,252.644 376.233,248.845 365.467,238.079 377.182,226.997 372.433,221.298 361.351,229.214 363.567,215.915 355.652,216.232 354.385,232.38 "/>
  <polygon fill="#C4A177" points="362.617,297.606 358.818,303.305 369.583,310.904 355.968,325.469 358.818,328.952 373.383,315.02 375.599,336.235 382.248,337.501 381.299,315.654 395.23,326.419 396.813,322.303 383.198,311.537 391.431,303.938 386.681,299.822 378.132,308.371 378.449,296.339 372.433,296.022 374.016,308.054 "/>
  <polygon fill="#C4A177" points="386.778,201.957 382.978,207.656 395.327,218.738 384.245,230.77 390.261,234.57 397.543,225.704 397.227,237.736 404.509,238.686 403.243,222.854 415.591,232.986 419.391,226.97 405.143,215.572 415.591,208.289 410.842,204.173 402.293,212.722 402.609,200.69 396.593,200.374 397.543,212.722 "/>
  <polygon fill="#C4A177" points="382.882,241.879 379.715,245.678 387.948,253.277 384.148,260.243 386.048,262.776 393.331,257.077 392.697,274.175 399.98,275.125 398.713,259.293 411.062,269.426 414.861,263.41 402.513,255.494 413.595,246.945 408.845,242.512 398.397,250.744 398.08,240.612 391.431,241.562 392.381,251.378 "/>
  <rect fill="#C4A177" x="260.034" y="229.892" width="3.71622" height="1.48649"/>
  <rect fill="#C4A177" x="263.007" y="226.919" width="3.71622" height="1.48649"/>
  <rect fill="#C4A177" x="260.034" y="222.088" width="3.71622" height="1.48649"/>
  <rect fill="#C4A177" x="260.777" y="232.865" width="3.71622" height="1.48649"/>
  <rect fill="#C4A177" x="261.52" y="242.899" width="3.71622" height="1.48649"/>
  <rect fill="#C4A177" x="262.635" y="247.358" width="3.71622" height="1.48649"/>
  <rect fill="#C4A177" x="271.182" y="249.947" width="3.71622" height="1.49907"/>
 </g>
</svg>
