<?xml version="1.0" encoding="UTF-8"?>
<!DOCTYPE svg PUBLIC "-//W3C//DTD SVG 1.1//EN" "http://www.w3.org/Graphics/SVG/1.1/DTD/svg11.dtd">
<!-- Creator: CorelDRAW -->
<svg xmlns="http://www.w3.org/2000/svg" xml:space="preserve" width="500px" height="537px" shape-rendering="geometricPrecision" text-rendering="geometricPrecision" image-rendering="optimizeQuality" fill-rule="evenodd" clip-rule="evenodd"
viewBox="0 0 500 537"
 xmlns:xlink="http://www.w3.org/1999/xlink"
 xmlns:svg="http://www.w3.org/2000/svg"
 version="1.0">
 <g id="Layer_x0020_1">
  <metadata id="CorelCorpID_0Corel-Layer"/>
  <path id="path1937" fill="#0581ED" stroke="black" stroke-width="0.992126" d="M0.378142 1.01225l499.276 -0.117638 -25.1201 328.435c-25.0464,270.895 -411.342,278.803 -446.961,0.505134l-27.1948 -328.822z"/>
  <path fill="black" d="M254.111 509.684c54.8827,-0.488693 42.774,-132.838 41.7589,-249.681 26.3429,-17.0847 8.27632,-51.3876 36.1545,-80.2605 22.057,-22.8441 85.8575,-18.5411 117.322,-60.5855 22.9822,-26.6777 27.4249,-91.6827 12.7242,-96.5739 -7.82136,-2.32101 -26.3461,25.9691 -63.6282,37.5183 -39.0901,12.1096 -71.8339,19.5327 -144.011,18.9544 -54.3892,-0.435685 -103.163,-3.84265 -141.855,-17.172 -36.1157,-12.4421 -54.7742,-42.6419 -62.9326,-41.1613 -17.4918,7.06196 -23.5928,59.6625 4.35118,95.3334 43.8693,57.176 101.777,39.5643 123.525,68.3382 24.2002,32.0199 10.7419,62.8657 30.5725,74.6785 0.890363,116.842 -5.34926,250.122 46.0182,250.611z"/>
  <path fill="#CCCCCC" d="M253.103 507.667c51.3675,-0.489544 40.8685,-132.838 41.7589,-249.681 26.3429,-17.0847 8.27632,-51.3873 36.1545,-80.2605 22.057,-22.8441 85.8578,-18.5417 117.322,-60.5855 22.9822,-26.6777 25.5643,-91.9928 10.8635,-96.884 -7.82136,-2.32101 -24.4854,26.2789 -61.7675,37.8284 -39.0904,12.1096 -71.8336,19.533 -144.011,18.9544 -54.3895,-0.435969 -108.668,-5.41644 -147.981,-16.7837 -29.2195,-8.44895 -50.8451,-42.01 -58.6664,-39.689 -17.4918,7.06196 -21.7321,57.8019 6.21185,93.4728 43.869,55.9987 101.777,38.0506 123.525,68.3382 23.4096,32.6027 10.7419,62.8657 30.5725,74.6785 0.890363,116.842 -5.34926,250.122 46.0182,250.611z"/>
  <path fill="white" d="M463.899 24.7297c-1.29147,-2.30627 -2.85903,-3.86221 -4.69644,-4.47336 -7.82136,-2.32101 -24.4854,26.2789 -61.7675,37.8284 -39.0904,12.1096 -71.8336,19.533 -144.011,18.9544 -50.1401,-0.401669 -100.187,-4.66583 -138.5,-14.2353 36.4391,15.2442 80.0487,16.7411 122.35,18.1528 74.4268,2.48372 126.424,-5.18032 169.574,-21.2074 53.1054,-19.7249 45.2316,-44.4067 57.0512,-35.0195zm-410.073 -1.17354c-2.96731,-2.28813 -5.33877,-3.49739 -7.04948,-2.9897 -17.4918,7.06196 -21.7321,57.8019 6.21185,93.4728 16.1133,20.5688 34.1209,31.1613 51.5353,37.8318 -72.1647,-30.9725 -78.6935,-125.525 -50.6977,-128.315zm116.952 152.548c2.11635,1.83543 4.03625,3.90784 5.73506,6.27364 23.4094,32.6027 10.7419,62.8657 30.5725,74.6785 0.744095,97.6729 -3.49342,206.832 25.1019,240.307l5.71918 -0.651402 -0.31011 -2.79099c-32.7719,-26.5034 -22.2942,-151.83 -26.6695,-258.632l-2.79099 0.31011 0 16.4359c-13.693,-1.12139 -6.29859,-65.1952 -37.3581,-75.9303z"/>
  <path fill="white" d="M239.766 488.958c-24.6555,-21.8616 -22.9258,-99.0369 -25.1189,-253.36l3.1011 0.31011c1.75748,92.4129 -1.44709,219.558 22.0178,253.05z"/>
  <path fill="white" d="M202.553 201.796l3.72132 20.1572 91.4826 -2.48088 1.24044 -3.41121 -85.5905 0.930331 -5.58199 -1.55055c-0.72,-6.10555 -2.89219,-10.031 -5.27188,-13.6449z"/>
  <polygon fill="white" points="206.274,223.814 207.515,231.877 210.926,231.877 209.376,223.814 "/>
  <polygon fill="white" points="213.407,226.605 216.198,226.295 216.198,231.257 213.407,231.257 "/>
  <path fill="white" d="M55.2507 44.8804c-18.4779,10.1815 1.11033,63.3135 37.8335,90.5522l4.96177 0.31011 -1.24044 -3.41121c-28.5041,-21.7857 -59.355,-64.2901 -41.5548,-87.4511z"/>
  <path fill="#4C4C4C" d="M196.661 188.772c-13.3347,-36.593 -56.4401,-40.3144 -95.8241,-49.3076 33.918,11.3961 78.8579,16.0994 95.8241,49.3076z"/>
  <path fill="#4C4C4C" d="M152.625 88.2959c-52.1759,-8.55355 -66.4926,-23.0771 -94.2736,-42.7952l-3.41121 2.79099c39.1516,28.5052 69.0772,39.8237 97.6848,40.0042z"/>
  <path fill="#4C4C4C" d="M71.3764 57.905c12.301,36.328 24.6013,68.9519 36.9031,83.7298l3.41121 0c-13.0802,-16.4835 -24.1396,-46.3377 -34.7324,-79.3883l-5.58199 -4.34155z"/>
  <path fill="#4C4C4C" d="M110.45 78.6824c11.9942,34.7737 19.6452,54.0604 29.1504,70.0849l2.48088 0c-10.0052,-18.2931 -16.8783,-37.6033 -26.9796,-67.6041l-4.65166 -2.48088z"/>
  <path fill="#4C4C4C" d="M144.252 85.815c10.4437,33.5223 27.0876,65.757 36.593,81.2489l5.27188 3.1011c-10.1738,-18.9133 -30.5623,-51.2484 -37.2132,-81.8691l-4.65166 -2.48088z"/>
  <polygon fill="#4C4C4C" points="49.6687,74.651 74.4775,60.3859 74.7876,64.1072 54.6305,74.3409 "/>
  <polygon fill="#4C4C4C" points="64.2439,104.732 67.6551,100.08 107.349,77.442 111.381,79.6128 "/>
  <path fill="#4C4C4C" d="M86.2617 127.37l3.41121 -3.72132c16.3324,-9.40649 37.0063,-27.4964 56.7502,-38.7638l0 2.17077c-19.6404,12.3012 -37.1101,27.3932 -54.2693,37.8335l-5.8921 2.48088z"/>
  <path fill="#4C4C4C" d="M111.381 142.565c17.9864,-7.38992 34.8358,-17.6239 51.1682,-29.1504 -14.5814,13.1613 -33.5223,28.2337 -51.1682,29.1504z"/>
  <path fill="#4C4C4C" d="M157.277 153.729c9.22649,-5.42551 21.4759,-11.2133 27.9099,-18.2965l2.17077 2.17077c-8.16633,6.30567 -18.1933,11.3709 -27.2897,17.0561l-2.79099 -0.930331z"/>
  <path fill="#4C4C4C" d="M186.117 172.336l21.7077 -11.164 0.31011 1.24044c-6.85191,4.57625 -13.8589,8.22246 -20.7096,10.3167l-1.30819 -0.393166z"/>
  <path fill="#4C4C4C" d="M148.284 89.5363c10.4428,26.1706 41.9301,42.9021 59.7957,68.9613 12.577,18.3453 18.8762,38.2601 18.6622,58.184l-2.17077 -0.31011c0.322583,-49.8827 -36.1931,-75.7126 -71.9456,-111.33l-4.34155 -15.5055z"/>
  <path fill="#4C4C4C" d="M99.5965 110.314c4.65534,-9.19928 7.75928,-17.8815 9.30331,-27.5998 -4.34155,9.19956 -7.44265,18.3994 -9.30331,27.5998z"/>
  <path fill="#4C4C4C" d="M116.653 101.941c-9.40791,-2.79014 -20.5733,-6.61408 -24.4987,-9.30331 7.95912,0.826867 16.7454,4.54762 24.4987,9.30331z"/>
  <path fill="#4C4C4C" d="M134.329 126.129c4.65534,-8.57906 9.30983,-23.4635 10.2336,-31.9414 -4.34155,7.64901 -9.30331,23.3612 -10.2336,31.9414z"/>
  <path fill="#4C4C4C" d="M152.315 116.206c-10.1988,-2.64019 -19.5231,-7.09172 -25.4291,-10.5438 8.57934,1.44709 17.6757,5.78807 25.4291,10.5438z"/>
  <path fill="#4C4C4C" d="M112.311 141.015c1.86435,-9.8195 5.89862,-21.2927 5.58199,-28.22 -4.72961,9.1063 -6.62117,20.1793 -5.58199,28.22z"/>
  <path fill="#4C4C4C" d="M90.6033 118.687c-8.88945,-1.75266 -16.541,-7.54243 -22.9482,-12.4044 7.95912,1.7572 15.1948,7.64873 22.9482,12.4044z"/>
  <path fill="#4C4C4C" d="M148.904 151.868c4.75852,-9.14769 7.34599,-20.7247 6.20221,-26.6695 -3.72076,8.26867 -4.34098,17.4682 -6.20221,26.6695z"/>
  <path fill="#4C4C4C" d="M165.34 145.046c-9.0978,-0.61937 -16.852,-4.1332 -22.9482,-8.68309 7.95912,2.68753 13.9544,4.54762 22.9482,8.68309z"/>
  <path fill="#4C4C4C" d="M82.5404 99.7699c-3.51411,4.44473 -4.54706,11.3698 -6.82243,17.0561l2.17077 2.17077c2.06759,-6.71925 4.54847,-15.2992 4.65166,-19.2268z"/>
  <path fill="#4C4C4C" d="M59.2821 96.6688c0.630426,-1.97036 2.11068,1.61178 2.12627,-0.309543 0.112252,-13.9363 11.6209,-20.7301 11.8287,-29.7712 -4.29506,7.74199 -13.2939,16.3086 -13.955,30.0807z"/>
  <path fill="#4C4C4C" d="M78.8191 88.2959c-8.78769,-1.5497 -20.8834,-8.47474 -24.8088,-11.7842 1.68576,-0.0581103 7.23289,2.87575 13.1341,5.80791 4.58986,2.28076 9.6395,4.43849 11.6748,5.97629z"/>
  <polygon fill="#4C4C4C" points="90.6033,70.9297 86.2617,81.1633 89.3628,80.233 92.774,70.9297 "/>
  <polygon fill="#4C4C4C" points="127.506,83.9543 124.715,94.8082 126.886,92.9475 130.297,83.6442 "/>
  <path fill="#4C4C4C" d="M126.266 130.471c-6.30681,-0.30926 -17.1621,-3.51298 -23.2583,-8.06287 7.95912,2.68753 18.6061,5.78807 23.2583,8.06287z"/>
  <path fill="#4C4C4C" d="M56.4911 48.9118l-4.03144 21.3976 2.79099 -2.48088c0.930048,-6.71953 2.37685,-12.9223 4.96177,-17.9864l-3.72132 -0.930331z"/>
  <polygon fill="#4C4C4C" points="48.1181,56.0444 67.0349,57.2848 66.7248,59.1455 50.2889,58.5253 "/>
  <path fill="#4C4C4C" d="M187.668 167.064c4.75852,-9.14769 6.41566,-19.4842 5.27188,-25.4291 -3.72076,8.26867 -3.41065,16.2278 -5.27188,25.4291z"/>
  <path fill="#4C4C4C" d="M202.863 158.691c-9.0978,-0.61937 -16.852,-4.1332 -22.9482,-8.68309 7.95912,2.68753 13.9544,4.54762 22.9482,8.68309z"/>
  <path fill="#4C4C4C" d="M216.198 183.81c-6.61692,0.931182 -16.5419,-2.89276 -22.6381,-7.44265 7.95912,2.68753 13.6443,3.30718 22.6381,7.44265z"/>
  <polygon fill="#4C4C4C" points="174.333,126.75 171.542,137.603 174.023,138.844 176.504,126.439 "/>
  <path fill="#4C4C4C" d="M164.72 124.889c4.03144,3.72132 12.4044,4.65166 16.746,7.44265l-2.48088 -2.48088 -14.2651 -4.96177z"/>
  <path fill="#4C4C4C" d="M206.274 167.684l2.79099 1.55055c-2.06759,7.75276 -3.5144,19.2268 -6.20221,23.2583 0.206929,-6.71925 2.27424,-16.5393 3.41121,-24.8088z"/>
  <polygon fill="#4C4C4C" points="203.483,200.246 220.85,209.549 220.229,212.65 205.034,203.657 "/>
  <polygon fill="#4C4C4C" points="220.229,192.493 218.059,194.664 208.445,213.891 211.546,213.58 219.919,196.524 "/>
  <path fill="#4C4C4C" d="M158.517 89.5363c11.8874,43.9322 72.1523,46.6197 77.5276,128.076l1.86066 -0.31011c16.7168,-37.897 -4.70041,-84.2854 -26.3594,-111.95 22.3279,38.2468 34.4223,67.8107 26.9796,106.368 -2.196,-68.7045 -69.6362,-86.709 -80.0085,-122.183z"/>
  <ellipse fill="none" stroke="#4C4C4C" stroke-width="1.98425" cx="212.477" cy="130.781" rx="8.06287" ry="8.68309"/>
  <ellipse fill="none" stroke="#4C4C4C" stroke-width="1.98425" transform="matrix(0.63839 0.698906 -0.698906 0.63839 189.452 105.105)" rx="8.52804" ry="11.319"/>
  <ellipse fill="none" stroke="#4C4C4C" stroke-width="1.98425" transform="matrix(0.596118 0.652627 -0.652627 0.596118 188.816 105.726)" rx="8.52804" ry="11.319"/>
  <ellipse fill="none" stroke="#4C4C4C" stroke-width="1.41732" cx="230.463" cy="163.653" rx="4.96177" ry="4.34155"/>
  <path fill="#4C4C4C" d="M214.348 136.363c4.77836,-5.04992 4.19188,-9.12416 -2.49194,-7.83298l1.02869 -1.92217c9.75515,-0.650552 5.85326,8.94218 1.46324,9.75515z"/>
  <ellipse fill="white" cx="191.079" cy="105.352" rx="2.79099" ry="2.48088"/>
  <ellipse fill="white" cx="213.93" cy="132.176" rx="2.26768" ry="2.01572"/>
  <g id="_46733912">
   <ellipse id="_48699872" fill="none" stroke="#4C4C4C" stroke-width="0.992126" cx="222.245" cy="101.476" rx="5.73704" ry="5.11682"/>
   <path id="_48693992" fill="#4C4C4C" d="M222.245 96.3587c3.168,0 5.73704,2.29125 5.73704,5.11682 0,2.82558 -2.56904,5.11682 -5.73704,5.11682 -1.584,0 -3.01805,-0.572882 -4.05638,-1.49896 -1.03833,-0.926079 4.83194,0.275528 5.14177,-3.30775 0.243496,-2.81452 -4.25339,-5.42693 -1.08539,-5.42693z"/>
  </g>
  <g id="_47955776">
   <ellipse id="_48306400" fill="none" stroke="#4C4C4C" stroke-width="0.992126" cx="242.712" cy="101.786" rx="5.73704" ry="5.11682"/>
   <path id="_46770176" fill="#4C4C4C" d="M242.712 96.6688c3.168,0 5.73704,2.29125 5.73704,5.11682 0,2.82558 -2.56904,5.11682 -5.73704,5.11682 -1.584,0 -3.01805,-0.572882 -4.05638,-1.49896 -1.03833,-0.926079 4.83194,0.275528 5.14177,-3.30775 0.243496,-2.81452 -4.25339,-5.42693 -1.08539,-5.42693z"/>
  </g>
  <g id="_87229536">
   <ellipse id="_48306032" fill="none" stroke="#4C4C4C" stroke-width="0.992126" cx="260.079" cy="100.855" rx="5.73704" ry="5.11682"/>
   <path id="_46490536" fill="#4C4C4C" d="M260.079 95.7385c3.168,0 5.73704,2.29125 5.73704,5.11682 0,2.82558 -2.56904,5.11682 -5.73704,5.11682 -1.584,0 -3.01805,-0.572882 -4.05638,-1.49896 -1.03833,-0.926079 4.83194,0.275528 5.14177,-3.30775 0.243496,-2.81452 -4.25339,-5.42693 -1.08539,-5.42693z"/>
  </g>
  <g id="_46686720">
   <ellipse id="_86448944" fill="none" stroke="#4C4C4C" stroke-width="0.992126" cx="278.065" cy="99.6149" rx="5.73704" ry="5.11682"/>
   <path id="_87361576" fill="#4C4C4C" d="M278.065 94.4981c3.168,0 5.73704,2.29125 5.73704,5.11682 0,2.82558 -2.56904,5.11682 -5.73704,5.11682 -1.584,0 -3.01805,-0.572882 -4.05638,-1.49896 -1.03833,-0.926079 4.83194,0.275528 5.14177,-3.30775 0.243496,-2.81452 -4.25339,-5.42693 -1.08539,-5.42693z"/>
  </g>
  <path fill="white" d="M132.468 83.3341c67.9924,11.6666 142.778,13.4524 228.551,-1.86066l-0.31011 1.86066c-98.3095,17.335 -175.776,12.0566 -228.241,0z"/>
  <polygon fill="white" points="365.671,79.9229 365.981,82.7139 375.595,80.8532 373.734,78.9925 "/>
  <path fill="white" d="M376.835 80.5431c5.99556,-0.723969 11.5775,-1.86123 16.746,-3.41121l-2.48088 -2.17077c-4.75455,1.24016 -9.50967,2.06674 -14.2651,2.48088l0 3.1011z"/>
  <path fill="white" d="M398.853 72.7903l0 2.48088c9.71632,-3.66888 19.4329,-8.11361 29.1504,-14.2651l0 -3.41121c-11.0353,7.72753 -20.5971,12.4313 -29.1504,15.1954z"/>
  <ellipse fill="none" stroke="#4C4C4C" stroke-width="1.98425" cx="290.624" cy="128.61" rx="8.06287" ry="8.68309"/>
  <path fill="#4C4C4C" d="M292.496 134.192c4.77836,-5.04992 4.19188,-9.12416 -2.49194,-7.83298l1.02869 -1.92217c9.75515,-0.650552 5.85326,8.94218 1.46324,9.75515z"/>
  <ellipse fill="white" cx="272.231" cy="163.498" rx="2.26768" ry="2.01572"/>
  <ellipse fill="none" stroke="#4C4C4C" stroke-width="1.98425" cx="314.038" cy="104.732" rx="8.83815" ry="8.68309"/>
  <path fill="#4C4C4C" d="M315.134 110.314c4.77836,-5.04992 4.19188,-9.12416 -2.49194,-7.83298l1.02869 -1.92217c9.75515,-0.650552 5.85326,8.94218 1.46324,9.75515z"/>
  <ellipse fill="white" cx="314.716" cy="106.127" rx="2.26768" ry="2.01572"/>
  <path fill="none" stroke="#4C4C4C" stroke-width="1.41732" d="M271.553 156.52c3.33921,0 6.04715,2.78617 6.04715,6.22148 0,3.43531 -2.70794,6.22177 -6.04715,6.22177 -1.66961,0 -3.18132,-0.696756 -4.27578,-1.82268"/>
  <ellipse fill="white" cx="292.078" cy="130.006" rx="2.26768" ry="2.01572"/>
  <path fill="#4C4C4C" d="M295.803 252.654c-1.99814,-119.706 85.8941,-94.8147 132.893,-133.989 26.816,-22.3512 32.9219,-79.7925 22.7829,-77.5066 7.17704,-4.86681 9.43682,9.44249 5.94114,26.447 -4.19698,20.4151 -15.5628,45.885 -28.4857,54.6588 -42.5308,28.876 -69.6178,22.5598 -104.605,50.0684 -21.6408,17.0153 -27.6951,55.5299 -28.5256,80.3211z"/>
  <path fill="#4C4C4C" d="M432.872 56.3545c-10.1619,32.4887 -22.4668,60.1886 -33.1818,80.0085l-3.41121 0c10.9925,-17.6899 21.1776,-44.6874 32.8717,-76.2872l3.72132 -3.72132z"/>
  <path fill="#4C4C4C" d="M391.938 79.3027c-12.4333,34.7735 -20.6527,53.4396 -29.7706,69.4647l-2.48088 0c10.7033,-20.7235 18.8691,-39.3103 29.1504,-68.2243l3.1011 -1.24044z"/>
  <path fill="#4C4C4C" d="M361.237 83.3341c-7.03248,20.1875 -28.0179,55.2133 -42.175,90.5522l-5.8921 7.44265c17.4356,-48.0133 35.2919,-65.8766 43.1053,-96.4443l4.96177 -1.55055z"/>
  <polygon fill="#4C4C4C" points="455.51,71.2398 430.391,59.1455 430.391,61.6264 450.548,70.9297 "/>
  <path fill="#4C4C4C" d="M443.416 102.251l-2.79099 -3.1011 -47.757 -25.4291 -2.17077 0.31011c16.6428,10.3371 35.456,19.7439 52.7188,28.22z"/>
  <path fill="#4C4C4C" d="M423.259 124.269l-3.41121 -3.72132c-16.3324,-9.40649 -43.8287,-24.3953 -63.5726,-35.6627l0 2.17077c19.6404,12.3012 43.9325,24.2921 61.0917,34.7324l5.8921 2.48088z"/>
  <path fill="#4C4C4C" d="M388.526 141.325c-19.4913,-7.38964 -33.6688,-20.4146 -48.0671,-29.7706 5.60693,6.84964 28.0831,25.4313 42.2085,30.2292 3.25956,1.10693 3.43247,0.0124724 5.85865,-0.458646z"/>
  <path fill="#4C4C4C" d="M344.491 153.729c-9.22649,-5.42551 -21.4759,-11.2133 -27.9099,-18.2965l-2.17077 2.17077c8.16633,6.30567 18.1933,11.3709 27.2897,17.0561l2.79099 -0.930331z"/>
  <path fill="#4C4C4C" d="M317.201 173.576l-22.0178 -13.3347 -0.31011 1.24044c6.85191,4.57625 14.169,10.3932 21.0198,12.4875l1.30819 -0.393166z"/>
  <path fill="#4C4C4C" d="M353.484 89.5363c-10.4428,26.1706 -40.07,42.9024 -57.9351,68.9613 -12.5768,18.3447 -22.5975,38.2601 -22.3835,58.184l2.17077 -0.31011c4.74888,-49.3195 40.5306,-75.4376 73.8063,-111.33l4.34155 -15.5055z"/>
  <path fill="#4C4C4C" d="M404.032 110.004c-4.65534,-9.19928 -7.75928,-17.8815 -9.30331,-27.5998 4.34155,9.19956 7.44265,18.3994 9.30331,27.5998z"/>
  <path fill="#4C4C4C" d="M387.596 100.39c9.40791,-2.79014 20.5733,-6.61408 24.4987,-9.30331 -7.95912,0.826867 -16.7454,4.54762 -24.4987,9.30331z"/>
  <path fill="#4C4C4C" d="M367.439 126.129c-3.25956,-8.57934 -7.29411,-22.2233 -9.30331,-30.7009 5.11654,8.03622 9.25144,22.5598 9.30331,30.7009z"/>
  <path fill="#4C4C4C" d="M350.073 113.725c10.1988,-1.08964 25.4152,-5.54117 26.0493,-8.06287 -7.49339,2.17049 -16.8999,4.23751 -26.0493,8.06287z"/>
  <path fill="#4C4C4C" d="M391.007 138.534c-1.86435,-9.8195 -7.44917,-18.8119 -7.13254,-25.7392 4.72961,9.1063 8.79194,16.458 7.13254,25.7392z"/>
  <path fill="#4C4C4C" d="M413.645 112.795c8.88945,-1.75266 17.7815,-3.8211 22.9482,-8.68309 -7.49367,2.22236 -14.8326,4.28882 -22.9482,8.68309z"/>
  <path fill="#4C4C4C" d="M352.864 151.868c-2.29125,-9.76508 -6.38051,-20.6561 -6.20221,-26.3594 3.14221,7.47667 6.32551,13.8498 6.20221,26.3594z"/>
  <path fill="#4C4C4C" d="M337.978 143.806c9.0978,-1.55027 18.0927,-3.92712 24.1886,-7.75276 -7.95912,1.13698 -15.8151,3.30718 -24.1886,7.75276z"/>
  <path fill="#4C4C4C" d="M421.088 98.8396c3.51411,4.44473 6.40772,10.1293 8.37298,16.1257l-2.17077 1.24044c-1.13726,-7.33947 -6.09903,-13.4385 -6.20221,-17.3662z"/>
  <path fill="#4C4C4C" d="M443.416 94.4981c-0.630426,-1.97036 -2.11068,1.61178 -2.12627,-0.309543 -1.43603,-13.2749 -7.41062,-16.7885 -11.2085,-26.0498 5.84561,6.19144 12.6737,12.5873 13.3347,26.3594z"/>
  <path fill="#4C4C4C" d="M422.949 88.2959c8.78769,-1.5497 23.3643,-9.71519 26.6695,-13.3347 -1.68576,-0.0581103 -9.09383,4.4263 -14.9947,7.35846 -4.58986,2.28047 -9.6395,4.43849 -11.6748,5.97629z"/>
  <polygon fill="#4C4C4C" points="414.266,70.3095 418.607,80.5431 415.506,79.6128 412.095,70.3095 "/>
  <polygon fill="#4C4C4C" points="375.192,83.6442 378.293,92.0172 376.122,90.1565 373.951,84.5745 "/>
  <path fill="#4C4C4C" d="M375.502 128.92c6.30681,-0.30926 19.643,-4.75342 25.7392,-9.30331 -7.95912,2.68753 -21.0869,7.02851 -25.7392,9.30331z"/>
  <path fill="#4C4C4C" d="M444.346 50.4624c2.58406,3.92797 5.47852,7.23572 7.75276,11.7842l-3.1011 1.86066c-0.930048,-6.71953 -2.99707,-8.58076 -5.58199,-13.6449l0.930331 0z"/>
  <polygon fill="black" stroke="black" stroke-width="0.992126" points="45.9474,213.891 99.294,225.545 114.482,181.019 129.677,225.675 176.299,219.518 143.193,252.66 176.347,293.263 129.057,280.564 111.738,330.173 96.1852,280.874 41.4981,295.411 80.9502,252.314 "/>
  <path fill="#4C4C4C" d="M455.2 53.2534c-7.33918,0.826583 -13.8515,2.89389 -19.537,6.20221l17.3662 -3.72132 2.17077 -2.48088z"/>
  <path fill="#4C4C4C" d="M315.961 164.273c-4.75852,-9.14769 -6.72577,-16.073 -5.58199,-22.0178 3.72076,8.26867 3.72076,12.8166 5.58199,22.0178z"/>
  <path fill="#4C4C4C" d="M300.145 157.14c9.0978,-0.61937 16.2318,-3.20287 22.3279,-7.75276 -7.95912,2.68753 -13.3342,3.61729 -22.3279,7.75276z"/>
  <path fill="#4C4C4C" d="M286.19 184.74c6.61692,0.931182 15.9216,-3.82309 22.0178,-8.37298 -7.95912,2.68753 -13.0241,4.23751 -22.0178,8.37298z"/>
  <polygon fill="#4C4C4C" points="327.435,126.75 330.226,137.603 328.365,138.844 325.884,126.439 "/>
  <path fill="#4C4C4C" d="M336.428 123.338c-4.03144,3.72132 -9.30331,3.72132 -13.6449,6.51232l1.86066 -3.41121 11.7842 -3.1011z"/>
  <path fill="#4C4C4C" d="M295.493 167.684c-3.87553,3.06255 2.28841,20.914 4.34155,24.8088 -0.206929,-6.71925 -3.20457,-16.5393 -4.34155,-24.8088z"/>
  <polygon fill="#4C4C4C" points="294.253,200.556 278.127,213.58 281.538,212.65 295.803,201.796 "/>
  <path fill="#4C4C4C" d="M283.399 199.625c2.37714,5.06466 5.995,8.88945 10.8539,11.4741l-3.1011 1.55055 -10.5438 -11.7842 2.79099 -1.24044z"/>
  <path fill="#4C4C4C" d="M346.351 88.2959c-4.60092,33.5801 -59.1662,35.8237 -83.1096,129.006l-1.24044 -0.31011c-12.9932,-61.1493 17.5232,-112.6 38.1436,-124.974 -22.3279,20.5662 -44.3455,67.3937 -36.9031,119.703 16.1504,-78.3392 74.2887,-95.317 83.1096,-123.424z"/>
  <polygon fill="#4C4C4C" points="410.544,122.098 413.645,130.471 411.475,128.61 409.304,123.028 "/>
  <polygon fill="#4C4C4C" points="333.327,155.9 336.118,163.032 334.257,162.412 332.086,156.83 "/>
  <line fill="none" stroke="#4C4C4C" stroke-width="1.98425" x1="214.647" y1="225.985" x2="253.721" y2= "224.124" />
  <line fill="none" stroke="#4C4C4C" stroke-width="1.98425" x1="297.447" y1="222.884" x2="262.404" y2= "223.814" />
  <path fill="#4C4C4C" d="M206.274 234.048l89.3118 -1.55055 0.31011 3.1011 -2.48088 -3.1011c-3.8897,145.187 6.68892,260.932 -34.4223,266.075 34.3585,-1.72091 31.6528,-133.168 29.1504,-263.904 -27.2897,-0.206929 -55.1996,0.826867 -81.8691,-0.620221z"/>
  <path fill="none" stroke="#4C4C4C" stroke-width="0.708662" d="M283.492 235.288c-0.493796,162.802 10.5148,220.36 -22.3279,256.771"/>
  <path fill="white" d="M251.413 460.261c0.622205,0.0898583 1.25972,0.137197 1.90885,0.137197 6.92079,0 12.5342,-5.33225 12.5342,-11.9078 0,-6.57553 -5.61345,-11.9078 -12.5342,-11.9078l-0.671244 -1.86151c8.10227,0 14.6727,6.24189 14.6727,13.9391 0,7.69692 -6.57043,13.9388 -14.6727,13.9388 -0.759402,0 -1.50548,-0.0549922 -2.2337,-0.160724l0.996095 -2.17729z"/>
  <ellipse fill="#0581ED" cx="251.706" cy="448.024" rx="12.5595" ry="11.7842"/>
  <path fill="black" d="M252.989 459.747c-0.422079,0.0399685 -0.850394,0.0609449 -1.28381,0.0609449 -6.93525,0 -12.5595,-5.27698 -12.5595,-11.7842 0,-6.50722 5.62422,-11.7842 12.5595,-11.7842 3.90104,0 7.38737,1.66961 9.69109,4.28854l-1.16306 2.01288c-1.84082,-2.0931 -4.62671,-3.42709 -7.74426,-3.42709 -5.54174,0 -10.0364,4.21682 -10.0364,9.4167 0,5.19988 4.49462,9.4167 10.0364,9.4167 0.346394,0 0.689103,-0.0167244 1.02586,-0.0490394l-0.525827 1.84876z"/>
  <path fill="#4C4C4C" d="M253.101 466.01c-10.6169,0 -19.2268,-7.98492 -19.2268,-17.8313 0,-9.84643 8.60996,-17.8313 19.2268,-17.8313 3.31767,0 6.43947,0.779811 9.16385,2.15235l-1.728 1.90885c-2.39273,-1.20529 -5.13496,-1.89043 -8.04841,-1.89043 -9.32429,0 -16.8863,7.01263 -16.8863,15.6606 0,8.64794 7.56199,15.6606 16.8863,15.6606l0.612567 2.17077z"/>
  <polygon fill="#CCCCCC" stroke="black" stroke-width="0.992126" points="43.1564,213.27 96.503,224.925 112.931,181.019 126.886,225.055 174.438,219.208 140.402,252.04 173.556,292.642 126.266,279.944 110.188,329.242 93.3943,280.254 41.188,293.55 78.1592,251.694 "/>
  <path fill="white" d="M57.3534 216.372l39.1496 8.55298 16.4282 -43.9058 1.77704 5.60835 -15.1118 42.4588 -42.243 -12.7142zm113.581 6.21525l3.50362 -3.37918 -44.4597 5.46633 0.00878741 2.55118 40.9473 -4.63833zm-64.7878 94.8671l-12.7525 -37.1999 4.03144 -0.620221 8.72108 37.8201zm-57.7982 -25.7278l-7.1606 1.82381 36.9712 -41.8558 -35.0028 -38.4239 9.036 1.97405 31.5885 36.4796 -35.4322 40.0023z"/>
  <polygon fill="#4C4C4C" points="200.072,196.834 220.229,186.911 220.54,188.462 "/>
  <polygon fill="#4C4C4C" points="281.321,188.151 304.579,198.385 303.959,200.246 280.972,189.154 "/>
  <path fill="white" d="M109.073 266.132c0.622205,0.0898583 1.25972,0.137197 1.90885,0.137197 6.92079,0 12.5342,-5.33225 12.5342,-11.9078 0,-4.10967 -2.19288,-7.73377 -5.52699,-9.87393l1.65402 -0.71178c3.26126,2.55685 6.89074,7.04608 6.89074,11.3757 0,7.69692 -8.12098,13.3186 -16.2233,13.3186 -0.759402,0 -1.50548,-0.0549922 -2.2337,-0.160724l0.996095 -2.17729z"/>
  <ellipse fill="#0581ED" cx="109.365" cy="254.205" rx="12.5595" ry="11.7842"/>
  <path fill="black" d="M110.649 265.928c-0.422079,0.0399685 -0.850394,0.0609449 -1.28381,0.0609449 -6.93525,0 -12.5595,-5.27698 -12.5595,-11.7842 0,-6.50722 5.62422,-11.7842 12.5595,-11.7842 3.90104,0 7.38737,1.66961 9.69109,4.28854l-1.16306 2.01288c-1.84082,-2.0931 -4.62671,-3.42709 -7.74426,-3.42709 -5.54174,0 -10.0364,4.21682 -10.0364,9.4167 0,5.19988 4.49462,9.4167 10.0364,9.4167 0.346394,0 0.689103,-0.0167244 1.02586,-0.0490394l-0.525827 1.84876z"/>
  <polygon fill="black" stroke="black" stroke-width="0.992126" points="332.055,217.169 382.348,224.575 397.975,179.057 413.041,223.651 462.118,213.584 427.907,247.48 462.466,291.979 413.574,279.473 397.695,329.461 380.704,279.917 330.418,295.295 365.353,251.419 "/>
  <polygon fill="#CCCCCC" stroke="black" stroke-width="0.992126" points="329.262,216.56 379.554,223.966 396.424,179.064 410.248,223.042 460.257,213.281 425.113,246.871 459.672,291.371 410.781,278.864 396.143,328.538 377.911,279.308 330.1,293.436 362.56,250.81 "/>
  <path fill="white" d="M343.471 219.604l36.0828 4.36252 16.8701 -44.9025 1.79972 5.60098 -15.5594 43.45 -39.1932 -8.51103zm113.295 -2.92904l3.49002 -3.39364 -46.9179 9.36823 0.0189921 2.55118 43.4089 -8.52577zm-64.7122 100.091l-14.1438 -37.4582 4.02888 -0.636378 10.1149 38.0945zm-54.8011 -25.183l-7.15295 1.85301 32.4593 -42.626 -33.2977 -34.2499 9.04394 1.9372 29.8755 32.3198 -30.928 40.7659z"/>
  <path fill="white" d="M393.532 265.122c0.622489,0.0875906 1.26028,0.132095 1.90942,0.129543 6.92079,-0.028063 12.5124,-5.38328 12.4858,-11.9585 -0.0167244,-4.10967 -2.22435,-7.7247 -5.56725,-9.85125l1.65147 -0.718867c3.27118,2.54353 6.91909,7.0183 6.93666,11.3477 0.0314646,7.6972 -8.06684,13.3515 -16.1688,13.3846 -0.759685,0.00283465 -1.50576,-0.0490394 -2.23455,-0.151654l0.987308 -2.18154z"/>
  <ellipse fill="#0581ED" transform="matrix(0.999992 -0.00405987 0.00405987 0.999992 393.775 253.194)" rx="12.5595" ry="11.7842"/>
  <path fill="black" d="M395.107 264.912c-0.421795,0.0416693 -0.850111,0.0643465 -1.28353,0.0660473 -6.93525,0.028063 -12.5807,-5.22596 -12.6074,-11.7332 -0.0263622,-6.50693 5.57632,-11.8069 12.5116,-11.8349 3.90104,-0.015874 7.39418,1.63956 9.70838,4.24914l-1.15484 2.01742c-1.84932,-2.08545 -4.6406,-3.4081 -7.75815,-3.39534 -5.54145,0.0223937 -10.0191,4.25736 -9.9978,9.45723 0.0209764,5.19988 4.5326,9.39827 10.0743,9.37588 0.346394,-0.00141732 0.689103,-0.0195591 1.02558,-0.0532914l-0.518173 1.85102z"/>
  <path fill="white" d="M436.686 53.2534l0.620221 3.41121c4.34155,-3.82451 9.30331,-7.33918 13.0246,-11.4741l-0.31011 -3.72132c-4.0578,4.31603 -8.45093,8.29588 -13.3347,11.7842z"/>
 </g>
</svg>
