<?xml version="1.0" encoding="UTF-8"?>
<!DOCTYPE svg PUBLIC "-//W3C//DTD SVG 1.1//EN" "http://www.w3.org/Graphics/SVG/1.1/DTD/svg11.dtd">
<!-- Creator: CorelDRAW -->
<svg xmlns="http://www.w3.org/2000/svg" xml:space="preserve" width="500px" height="580px" shape-rendering="geometricPrecision" text-rendering="geometricPrecision" image-rendering="optimizeQuality" fill-rule="evenodd" clip-rule="evenodd"
viewBox="0 0 500 580"
 xmlns:xlink="http://www.w3.org/1999/xlink"
 xmlns:svg="http://www.w3.org/2000/svg"
 version="1.0">
 <g id="Layer_x0020_1">
  <metadata id="CorelCorpID_0Corel-Layer"/>
  <path id="path1937" fill="#F00000" stroke="#F00000" stroke-width="0.368504" d="M0.161858 0.821481l499.554 -0.121606 -0.106299 317.562c-2.77058,347.952 -498.934,346.129 -499.507,-0.148819l0.0598111 -317.292z"/>
  <path id="path1937_0" fill="#4F2900" d="M484.947 412.216c-76.2384,212.695 -387.042,218.128 -464.311,8.0589 3.07332,-7.32983 6.79181,-9.53547 1.82835,-25.6317 -5.33821,-17.3109 17.0875,-30.5518 8.70407,-49.4051 26.6499,12.5498 0.955843,28.4737 15.0148,48.3211 16.0963,22.7239 -17.7327,46.0106 21.2956,57.75l18.7399 -106.179 24.5977 106.18c8.83701,-3.9977 5.46265,-12.9379 9.19134,-19.5446 5.44876,-9.65566 10.4338,-19.9582 6.6926,-32.8808 -7.72555,-26.6851 19.1316,-24.6702 8.41862,-53.8504 29.8922,15.0951 3.13087,32.0465 17.4702,54.7033 12.9892,20.5231 -10.4349,41.6858 20.5963,51.5722l20.4979 -106.391 25.4761 106.391c4.02775,2.20592 4.63125,-9.01361 8.22558,-12.9864 5.99131,-6.62032 12.1592,-14.2577 7.5498,-32.9412 -6.85474,-27.7844 22.1284,-28.4723 5.89295,-60.5554 35.8512,22.29 7.78876,43.7531 24.8324,64.4616 17.1414,20.8284 -3.09147,32.0567 20.8466,42.0217l21.0827 -106.614 25.7684 106.614c5.24268,-1.47798 4.31433,-11.4185 7.63881,-18.347 4.06347,-8.46737 9.57289,-17.4835 5.78183,-29.9778 -9.00596,-29.6785 20.0548,-29.4378 7.36952,-58.3801 29.3482,9.00482 7.62463,35.4881 22.4561,53.4396 18.4357,22.3138 -9.31011,41.8553 20.8806,53.2653l19.3266 -106.828 27.2333 107.414c3.31427,-1.76173 0.950457,-7.92397 6.08769,-17.8115 5.82095,-11.2028 12.496,-21.5759 7.1932,-36.4088 -6.86183,-19.1931 14.18,-32.6894 3.70092,-53.28 20.4613,13.8886 13.6712,25.3568 15.7604,40.3727 1.71156,12.301 7.88485,4.60262 8.1601,27.4482z"/>
  <path fill="#BF9F4F" d="M90.9817 276.666l296.919 -230.156 4.09947 2.34255 7.02766 -3.51383 31.6245 45.0941 -293.99 239.526c-30.1609,-6.14948 -43.6306,-25.2805 -45.6798,-53.2931z"/>
  <path id="path1937_1" fill="white" d="M480.639 416.553c-76.2384,212.695 -387.229,211.076 -464.497,1.0063 3.07332,-7.32983 6.04772,-7.86785 1.08425,-23.9638 -5.33764,-17.3109 17.0875,-30.5518 8.70407,-49.4051 26.6499,12.5498 0.955843,28.4737 15.0148,48.3211 16.0963,22.7239 -17.7327,46.0106 21.2956,57.75l18.7399 -106.179 24.5977 106.18c8.83701,-3.9977 5.46265,-12.9379 9.19134,-19.5446 5.44876,-9.65566 10.4338,-19.9582 6.6926,-32.8808 -7.72555,-26.6851 19.1316,-24.6702 8.41862,-53.8504 29.8922,15.0951 3.13087,32.0465 17.4702,54.7033 12.9892,20.5231 -10.4349,41.6858 20.5963,51.5722l20.4979 -106.391 25.4761 106.391c4.02775,2.20592 4.63125,-9.01361 8.22558,-12.9864 5.99131,-6.62032 12.1592,-14.2577 7.5498,-32.9412 -6.85474,-27.7844 22.1284,-28.4723 5.89295,-60.5554 35.8512,22.29 7.78876,43.7531 24.8324,64.4616 17.1414,20.8284 -3.09147,32.0567 20.8466,42.0217l21.0827 -106.614 25.7684 106.614c5.24268,-1.47798 4.31433,-11.4185 7.63881,-18.347 4.06347,-8.46737 9.57289,-17.4835 5.78183,-29.9778 -9.00596,-29.6785 20.0548,-29.4378 7.36952,-58.3801 29.3482,9.00482 7.62463,35.4881 22.4561,53.4396 18.4357,22.3138 -9.31011,41.8553 20.8806,53.2653l19.3266 -106.828 27.2333 107.414c3.31427,-1.76173 0.950457,-7.92397 6.08769,-17.8115 5.82095,-11.2028 12.496,-21.5759 7.1932,-36.4088 -6.86183,-19.1931 14.18,-32.6894 3.70092,-53.28 20.4613,13.8886 13.6709,25.3568 15.7604,40.3727 1.71156,12.3015 8.81604,9.98703 9.091,32.8329z"/>
  <path id="path1937_2" fill="#BF9F4F" d="M482.734 418.649c-76.2384,212.695 -387.973,212.744 -465.242,2.67421 3.07332,-7.32983 6.79181,-9.53547 1.82835,-25.6317 -5.33821,-17.3109 17.0875,-30.5518 8.70407,-49.4051 26.6499,12.5498 0.955843,28.4737 15.0148,48.3211 16.0963,22.7239 -17.7327,46.0106 21.2956,57.75l18.7399 -106.179 24.5977 106.18c8.83701,-3.9977 5.46265,-12.9379 9.19134,-19.5446 5.44876,-9.65566 10.4338,-19.9582 6.6926,-32.8808 -7.72555,-26.6851 19.1316,-24.6702 8.41862,-53.8504 29.8922,15.0951 3.13087,32.0465 17.4702,54.7033 12.9892,20.5231 -10.4349,41.6858 20.5963,51.5722l20.4979 -106.391 25.4761 106.391c4.02775,2.20592 4.63125,-9.01361 8.22558,-12.9864 5.99131,-6.62032 12.1592,-14.2577 7.5498,-32.9412 -6.85474,-27.7844 22.1284,-28.4723 5.89295,-60.5554 35.8512,22.29 7.78876,43.7531 24.8324,64.4616 17.1414,20.8284 -3.09147,32.0567 20.8466,42.0217l21.0827 -106.614 25.7684 106.614c5.24268,-1.47798 4.31433,-11.4185 7.63881,-18.347 4.06347,-8.46737 9.57289,-17.4835 5.78183,-29.9778 -9.00596,-29.6785 20.0548,-29.4378 7.36952,-58.3801 29.3482,9.00482 7.62463,35.4881 22.4561,53.4396 18.4357,22.3138 -9.31011,41.8553 20.8806,53.2653l19.3266 -106.828 27.2333 107.414c3.31427,-1.76173 0.950457,-7.92397 6.08769,-17.8115 5.82095,-11.2028 12.496,-21.5759 7.1932,-36.4088 -6.86183,-19.1931 14.18,-32.6894 3.70092,-53.28 20.4613,13.8886 13.6709,25.3568 15.7604,40.3727 1.71156,12.3015 8.81604,9.98703 9.091,32.8329z"/>
  <path fill="white" d="M392 48.8526l-4.09947 -2.34255 -296.919 230.156c2.04917,28.0125 15.5188,47.1436 45.6798,53.2931 -21.3273,-10.3949 -35.6757,-26.5003 -39.8234,-50.9505l295.162 -230.156z"/>
  <path fill="#4F2900" d="M131.201 328.655c1.75606,0.484725 3.57591,0.920126 5.46095,1.30422l294.283 -239.233 -31.9173 -45.387 -7.02766 3.51383 31.0388 41.5803 -288.246 235.289c-5.56866,-0.982205 -17.5536,-12.0348 -23.7076,-14.7736l20.1155 17.7061z"/>
  <path fill="#BF9F4F" d="M71.3628 91.3114c-1.66507,1.45502 0.866552,4.27663 2.32526,4.95128 119.044,111.24 200.258,176.786 276.146,237.796 20.0458,-1.95222 50.8159,-33.2844 47.4367,-52.7074l-291.648 -233.67 -34.2598 43.63z"/>
  <path fill="white" d="M396.795 290.137c0.750615,-3.08721 0.950741,-6.05452 0.475654,-8.78571l-291.648 -233.67 -34.2598 43.63c-1.66507,1.45502 0.866552,4.27663 2.32526,4.95128l32.5202 -40.968c95.6909,84.7225 196.945,153.633 290.586,234.842z"/>
  <path fill="#4F2900" d="M73.6881 96.2626c119.044,111.24 200.258,176.786 276.146,237.796 20.0458,-1.95222 50.8159,-33.2844 47.4367,-52.7074 -8.49175,21.9611 -23.6211,38.0662 -45.387,48.3151 -95.7428,-74.8755 -186.75,-155.162 -277.007,-236.305l-1.18857 2.90154z"/>
  <path fill="#8C0000" d="M239.97 238.323c-16.0931,-13.6321 -32.0913,-27.3733 -48.015,-41.199l-3.07134 3.27572c16.8253,14.6639 32.8485,28.3802 48.2437,41.3686l2.84258 -3.44523z"/>
  <path fill="#BF9F4F" d="M46.1804 155.579c-1.07405,2.92791 -0.585638,4.15418 1.4641,6.30199l56.8069 44.2157 135.868 -170.714 -31.0388 -25.1824c-16.9475,10.688 -35.6635,15.611 -56.5141,10.6815l-106.586 134.697z"/>
  <path fill="white" d="M236.027 40.794l4.29194 -5.41106 -31.0388 -25.1824c-16.9475,10.688 -35.6635,14.2997 -56.5141,9.37021l-30.6896 38.7836c-11.3854,16.1189 -22.5343,32.3765 -37.1095,46.8964l-38.787 49.0167c-1.07405,2.92791 -0.585638,5.46548 1.4641,7.6133l108.05 -136.454c29.702,5.32573 38.7868,-2.46926 50.6577,-8.49175l29.6751 23.8587z"/>
  <path fill="#4F2900" d="M47.6445 161.881l56.8069 44.8013 135.868 -171.299 -3.58526 -2.90835c-19.654,25.7046 -39.5717,51.2343 -59.7311,76.6015l1.31641 0.765355 -35.8713 44.0011 -1.04513 -0.440788c-12.7168,15.6708 -25.5246,31.2832 -38.4157,46.8383l-52.7074 -42.4588 -2.63537 4.09947z"/>
  <path fill="#8C0000" d="M180.072 111.342l-1.76684 -1.53695c-11.8361,14.8964 -23.8536,29.1844 -35.8532,43.9725l2.52369 1.81304 35.0963 -44.2486z"/>
  <polygon fill="#8C0000" points="243.833,157.781 293.027,197.019 293.905,195.848 245.59,156.024 "/>
  <path fill="#BF9F4F" d="M260.231 37.1398c13.9657,18.9808 31.7719,43.7219 49.6715,68.6033 14.2872,14.9233 27.0865,30.8639 35.4348,47.3709l6.23736 -4.46173 3.0909 4.50709 -6.88337 5.09528c21.5816,29.725 38.3854,52.2828 41.2892,53.991l70.8622 -50.0721 -110.393 -144.067c-16.5935,9.5658 -36.0173,7.90668 -58.8566,-4.39229 -10.1512,7.8086 -25.5731,17.9598 -30.4532,23.4255z"/>
  <path fill="white" d="M351.396 148.924l-82.9662 -111.784 25.7681 -16.3979c19.4409,12.0677 38.8823,12.7142 58.3231,1.35524l-3.27317 -4.28344c-16.5935,9.5658 -35.7245,8.1995 -58.5638,-4.09947 -10.1512,7.8086 -25.5731,17.9598 -30.4532,23.4255 14.0916,19.152 32.093,44.1683 50.1551,69.2759 12.9064,13.1494 30.3868,34.7766 35.924,46.7008l5.08592 -4.19301zm3.10592 4.18479l40.6724 54.7994 -6.103 4.33786c-2.89134,-1.70079 -19.567,-24.0772 -41.0185,-53.6179l6.44911 -5.51934z"/>
  <path fill="#4F2900" d="M394.898 208.104l65.0356 -46.2235 -47.7122 -62.5221 -3.91125 2.268c-10.0613,-15.3417 -20.1223,-29.219 -28.4264,-44.5604l-30.6357 -39.2525c-1.55537,0.896599 -2.55288,1.69767 -4.16381,2.40236l106.65 142.25 -59.1494 42.1659 2.31279 3.47188z"/>
  <path fill="#8C0000" d="M407.47 103.427l0.839906 -1.8c-10.0613,-15.3417 -20.1223,-29.219 -28.4264,-44.5604l-3.9257 4.32964 31.5122 42.0307z"/>
 </g>
</svg>
