<?xml version="1.0" encoding="UTF-8"?>
<!DOCTYPE svg PUBLIC "-//W3C//DTD SVG 1.1//EN" "http://www.w3.org/Graphics/SVG/1.1/DTD/svg11.dtd">
<!-- Creator: CorelDRAW -->
<svg xmlns="http://www.w3.org/2000/svg" xml:space="preserve" width="500px" height="577px" shape-rendering="geometricPrecision" text-rendering="geometricPrecision" image-rendering="optimizeQuality" fill-rule="evenodd" clip-rule="evenodd"
viewBox="0 0 500 577"
 xmlns:xlink="http://www.w3.org/1999/xlink"
 xmlns:svg="http://www.w3.org/2000/svg"
 version="1.0">
 <g id="Layer_x0020_1">
  <metadata id="CorelCorpID_0Corel-Layer"/>
  <path id="path1937" fill="#0581ED" stroke="black" stroke-width="0.216" d="M-0.569197 0.731339l500.601 -0.767622 0 350.022c-9.00085,131.749 -111.469,223.649 -247.585,224.782 -120.008,-2.08035 -233.015,-74.0047 -253.016,-224.59l0 -349.446z"/>
  <path id="path1937_0" fill="#003333" d="M488.031 409.99c-33.9018,101.198 -119.934,164.416 -235.584,165.378 -95.9823,-1.66365 -184.947,-48.8415 -230.445,-143.376l1.43065 -38.6351 16.0013 15.001 12.0008 -1.00006 0.99978 -11.0007 -27.002 -27.0017 1.00063 -11.001 11.0004 -0.999497 16.001 16.0007 0.000283465 -30.0019 9.00029 -5.00003 8.00079 5.00003 0 30.0019 17.0008 -16.0007 10.0006 1.00006 1.00006 12.0005 -27.0014 26.0017 1.00006 11.0007 12.0637 -0.896315 16.001 -16.0007 0.000283465 30.0019 9.00029 5.00003 8.00079 -5.00003 0 -30.0019 17.9379 15.897 12.0008 -2.00013 1.00006 -10.0006 -27.0017 -27.0017 3.00019 -11.0007 10.0006 0 16.001 15.001 0 -31.002 9.93742 -5.10378 8.00079 5.00003 0 30.0019 16.0639 -12.8971 11.0007 -1.00006 1.00006 12.0008 -27.0017 26.0017 1.00006 11.0007 11.0007 -1.00006 17.0011 -15.001 0 30.0019 9.00057 5.00032 8.00051 -5.00032 0 -30.0019 19.0012 17.0011 12.0008 1.00006 0 -11.0007 -27.0017 -26.0017 1.00006 -11.0007 12.0008 0 15.0012 16.0007 0.000283465 -30.0019 9.00029 -5.00003 8.00079 5.00003 0 30.0019 17.0008 -16.0007 10.0006 1.00006 1.00006 12.0005 -26.0019 24.0018 0 11.0007 11.0007 2.00013 17.0646 -16.8973 0.000283465 30.0019 9.00029 5.00003 8.00079 -5.00003 0 -30.0019 17.9374 15.8973 13.0008 1.00006 1.00006 -12.0008 -27.0652 -27.4728 1.06356 -12.5297 10.9375 0.529229 16.001 16.0007 0.000283465 -30.0019 9.00029 -5.00003 8.00079 5.00003 0 30.0019 17.0008 -16.0007 10.0006 1.00006 1.00006 12.0005 -28.9386 26.4728 1.00006 13.0008 13.0008 -2.00013 20.0013 -17.0011 0 29.0018 9.00057 6.00038 8.00051 -6.00038 0 -29.0018 17.0011 16.001 13.0008 1.00006 2.00013 -13.0008 -27.0017 -27.0017 1.45644 -11.7502 11.0004 -0.999497 16.001 16.0007 0.000283465 -30.0019 9.00029 -5.00003 8.00079 5.00003 0 30.0019 17.0008 -16.0007 10.0006 1.00006 1.00006 12.0005 -27.0014 26.0017 1.54375 12.75 12.0008 -2.00013 11.522 -10.1667 0.0479055 14.7997z"/>
  <polygon fill="#003333" points="98.4371,128.339 135.439,108.338 158.835,124.43 236.659,69.8174 227.445,47.3341 253.447,18.3322 280.449,49.3342 270.339,69.2535 346.21,126.157 369.454,109.338 408.457,123.339 387.455,162.341 358.454,163.341 328.452,253.347 355.453,270.348 351.453,309.351 309.45,302.35 302.45,272.348 209.5,272.348 201.444,298.35 160.441,306.351 158.441,268.348 180.442,249.347 148.591,160.164 124.439,163.341 "/>
  <path id="path1937_1" fill="white" d="M488.362 403.966c-30.039,100.773 -120.265,167.24 -235.915,168.202 -95.9823,-1.66365 -187.486,-48.0067 -230.51,-143.538l1.49556 -42.4738 16.0013 15.001 12.0008 -1.00006 0.99978 -11.0007 -27.002 -27.0017 1.00063 -11.001 11.0004 -0.999497 16.001 16.0007 0.000283465 -30.0019 9.00029 -5.00003 8.00079 5.00003 0 30.0019 17.0008 -16.0007 10.0006 1.00006 1.00006 12.0005 -27.0014 26.0017 1.00006 11.0007 12.0637 -0.896315 16.001 -16.0007 0.000283465 30.0019 9.00029 5.00003 8.00079 -5.00003 0 -30.0019 17.9379 15.897 12.0008 -2.00013 1.00006 -10.0006 -27.0017 -27.0017 3.00019 -11.0007 10.0006 0 16.001 15.001 0 -31.002 9.93742 -5.10378 8.00079 5.00003 0 30.0019 16.0639 -12.8971 11.0007 -1.00006 1.00006 12.0008 -27.0017 26.0017 1.00006 11.0007 11.0007 -1.00006 17.0011 -15.001 0 30.0019 9.00057 5.00032 8.00051 -5.00032 0 -30.0019 19.0012 17.0011 12.0008 1.00006 0 -11.0007 -27.0017 -26.0017 1.00006 -11.0007 12.0008 0 15.0012 16.0007 0.000283465 -30.0019 9.00029 -5.00003 8.00079 5.00003 0 30.0019 17.0008 -16.0007 10.0006 1.00006 1.00006 12.0005 -26.0019 24.0018 0 11.0007 11.0007 2.00013 17.0646 -16.8973 0.000283465 30.0019 9.00029 5.00003 8.00079 -5.00003 0 -30.0019 17.9374 15.8973 13.0008 1.00006 1.00006 -12.0008 -27.0652 -27.4728 1.06356 -12.5297 10.9375 0.529229 16.001 16.0007 0.000283465 -30.0019 9.00029 -5.00003 8.00079 5.00003 0 30.0019 17.0008 -16.0007 10.0006 1.00006 1.00006 12.0005 -28.9386 26.4728 1.00006 13.0008 13.0008 -2.00013 20.0013 -17.0011 0 29.0018 9.00057 6.00038 8.00051 -6.00038 0 -29.0018 17.0011 16.001 13.0008 1.00006 2.00013 -13.0008 -27.0017 -27.0017 1.45644 -11.7502 11.0004 -0.999497 16.001 16.0007 0.000283465 -30.0019 9.00029 -5.00003 8.00079 5.00003 0 30.0019 17.0008 -16.0007 10.0006 1.00006 1.00006 12.0005 -27.0014 26.0017 1.54375 12.75 12.0008 -2.00013 11.522 -10.1667 0.378425 15.9758z"/>
  <polygon fill="white" points="98.4371,121.139 135.439,101.138 158.835,117.23 236.659,62.6174 227.445,40.1341 253.447,11.1322 280.449,42.1342 270.339,62.0535 346.21,118.957 369.454,102.138 408.457,116.139 387.455,155.141 358.454,156.141 328.452,246.147 355.453,263.148 351.453,302.151 309.45,295.15 302.45,265.148 209.5,265.148 201.444,291.15 160.441,299.151 158.441,261.148 180.442,242.147 148.591,152.964 124.439,156.141 "/>
  <path id="path1937_2" fill="#CC9933" d="M489.031 409.99c-32.002,99.0063 -120.935,164.816 -236.584,165.778 -95.9823,-1.66365 -187.486,-48.0067 -230.51,-143.538l1.49556 -42.4738 16.0013 15.001 12.0008 -1.00006 0.99978 -11.0007 -27.002 -27.0017 1.00063 -11.001 11.0004 -0.999497 16.001 16.0007 0.000283465 -30.0019 9.00029 -5.00003 8.00079 5.00003 0 30.0019 17.0008 -16.0007 10.0006 1.00006 1.00006 12.0005 -27.0014 26.0017 1.00006 11.0007 12.0637 -0.896315 16.001 -16.0007 0.000283465 30.0019 9.00029 5.00003 8.00079 -5.00003 0 -30.0019 17.9379 15.897 12.0008 -2.00013 1.00006 -10.0006 -27.0017 -27.0017 3.00019 -11.0007 10.0006 0 16.001 15.001 0 -31.002 9.93742 -5.10378 8.00079 5.00003 0 30.0019 16.0639 -12.8971 11.0007 -1.00006 1.00006 12.0008 -27.0017 26.0017 1.00006 11.0007 11.0007 -1.00006 17.0011 -15.001 0 30.0019 9.00057 5.00032 8.00051 -5.00032 0 -30.0019 19.0012 17.0011 12.0008 1.00006 0 -11.0007 -27.0017 -26.0017 1.00006 -11.0007 12.0008 0 15.0012 16.0007 0.000283465 -30.0019 9.00029 -5.00003 8.00079 5.00003 0 30.0019 17.0008 -16.0007 10.0006 1.00006 1.00006 12.0005 -26.0019 24.0018 0 11.0007 11.0007 2.00013 17.0646 -16.8973 0.000283465 30.0019 9.00029 5.00003 8.00079 -5.00003 0 -30.0019 17.9374 15.8973 13.0008 1.00006 1.00006 -12.0008 -27.0652 -27.4728 1.06356 -12.5297 10.9375 0.529229 16.001 16.0007 0.000283465 -30.0019 9.00029 -5.00003 8.00079 5.00003 0 30.0019 17.0008 -16.0007 10.0006 1.00006 1.00006 12.0005 -28.9386 26.4728 1.00006 13.0008 13.0008 -2.00013 20.0013 -17.0011 0 29.0018 9.00057 6.00038 8.00051 -6.00038 0 -29.0018 17.0011 16.001 13.0008 1.00006 2.00013 -13.0008 -27.0017 -27.0017 1.45644 -11.7502 11.0004 -0.999497 16.001 16.0007 0.000283465 -30.0019 9.00029 -5.00003 8.00079 5.00003 0 30.0019 17.0008 -16.0007 10.0006 1.00006 1.00006 12.0005 -27.0014 26.0017 1.54375 12.75 12.0008 -2.00013 11.5699 -10.7683 1.00006 19.0012z"/>
  <polygon fill="#CC9933" points="98.4371,124.739 135.439,104.738 158.835,120.83 236.659,66.2174 227.445,43.7341 253.447,14.7322 280.449,45.7342 270.339,65.6535 346.21,122.557 369.454,105.738 408.457,119.739 387.455,158.741 358.454,159.741 328.452,249.747 355.453,266.748 351.453,305.751 309.45,298.75 302.45,268.748 209.5,268.748 201.444,294.75 160.441,302.751 158.441,264.748 180.442,245.747 148.591,156.564 124.439,159.741 "/>
  <polygon fill="#0582ED" points="182.442,146.741 258.447,93.7372 330.452,151.741 299.45,237.746 213.444,237.746 "/>
  <polyline fill="none" stroke="black" stroke-width="2.83465" points="213.444,237.746 182.442,146.741 258.447,93.7372 330.452,151.741 "/>
  <polyline fill="none" stroke="white" stroke-width="2.83465" points="330.452,151.741 299.45,237.746 213.444,237.746 "/>
 </g>
</svg>
