<?xml version="1.0" encoding="UTF-8" standalone="no"?>
<!-- Created with Inkscape (http://www.inkscape.org/) -->
<svg
   xmlns:dc="http://purl.org/dc/elements/1.1/"
   xmlns:cc="http://creativecommons.org/ns#"
   xmlns:rdf="http://www.w3.org/1999/02/22-rdf-syntax-ns#"
   xmlns:svg="http://www.w3.org/2000/svg"
   xmlns="http://www.w3.org/2000/svg"
   xmlns:sodipodi="http://sodipodi.sourceforge.net/DTD/sodipodi-0.dtd"
   xmlns:inkscape="http://www.inkscape.org/namespaces/inkscape"
   width="500"
   height="558"
   id="svg2"
   sodipodi:version="0.32"
   inkscape:version="0.46"
   version="1.0"
   sodipodi:docbase=""
   sodipodi:docname="Kaskinen.vaakuna.svg"
   inkscape:output_extension="org.inkscape.output.svg.inkscape">
  <defs
     id="defs4">
    <inkscape:perspective
       sodipodi:type="inkscape:persp3d"
       inkscape:vp_x="0 : 279 : 1"
       inkscape:vp_y="0 : 1000 : 0"
       inkscape:vp_z="500 : 279 : 1"
       inkscape:persp3d-origin="250 : 186 : 1"
       id="perspective13" />
  </defs>
  <sodipodi:namedview
     id="base"
     pagecolor="#ffffff"
     bordercolor="#666666"
     borderopacity="1.0"
     inkscape:pageopacity="0.0"
     inkscape:pageshadow="2"
     inkscape:zoom="0.35355339"
     inkscape:cx="368.54409"
     inkscape:cy="330.55556"
     inkscape:document-units="px"
     inkscape:current-layer="layer1"
     inkscape:window-width="1012"
     inkscape:window-height="736"
     inkscape:window-x="0"
     inkscape:window-y="0"
     showgrid="false" />
  <metadata
     id="metadata7">
    <rdf:RDF>
      <cc:Work
         rdf:about="">
        <dc:format>image/svg+xml</dc:format>
        <dc:type
           rdf:resource="http://purl.org/dc/dcmitype/StillImage" />
      </cc:Work>
    </rdf:RDF>
  </metadata>
  <g
     inkscape:label="Layer 1"
     inkscape:groupmode="layer"
     id="layer1">
    <path
       style="fill:#cccccc;fill-opacity:1;fill-rule:evenodd;stroke:rgb(0, 0, 0);stroke-width:0.50000000000000000;stroke-linecap:butt;stroke-linejoin:miter;stroke-opacity:1;stroke-miterlimit:4;stroke-dasharray:none"
       d="M 0.5,0.5 L 499.5,0.5 L 490,355 C 485,450 360,557.5 250,557.5 C 140,557.5 15,450 10,355 L 0.5,0.5 z "
       id="path1368"
       sodipodi:nodetypes="cccccc" />
    <path
       sodipodi:nodetypes="ccccc"
       id="path1310"
       d="M 0.5,0.5 L 250,0.5 L 250,557.5 C 140,557.5 15,450 10,355 L 0.5,0.5 z "
       style="fill:rgb(0, 139, 208);fill-opacity:1;fill-rule:evenodd;stroke:rgb(0, 0, 0);stroke-width:0.5;stroke-linecap:butt;stroke-linejoin:miter;stroke-opacity:1;stroke-miterlimit:4;stroke-dasharray:none" />
    <rect
       style="fill:#cccccc;fill-opacity:1;stroke:rgb(0, 0, 0);stroke-width:0.50000000000000000;stroke-miterlimit:4;stroke-dasharray:none;stroke-opacity:1"
       id="rect1380"
       width="88.999992"
       height="27.000008"
       x="95.499992"
       y="44.499996" />
    <path
       style="fill:rgb(0, 166, 80);fill-opacity:1;fill-rule:evenodd;stroke:rgb(0, 0, 0);stroke-width:0.5;stroke-linecap:butt;stroke-linejoin:miter;stroke-opacity:1;stroke-miterlimit:4;stroke-dasharray:none"
       d="M 270.85132,478.7525 L 300.17553,505.49452 C 322.61566,480.59295 348.42101,459.89818 374.22638,438.78274 C 384.46748,430.98883 395.54988,424.87765 407.89426,420.86986 C 414.46803,425.49735 418.93852,426.33871 426.77426,425.91803 C 438.55262,425.65409 441.83853,416.39722 442.33853,403.67151 C 441.17546,394.80601 434.64714,390.35409 420.7057,389.16423 C 408.51492,391.39961 408.94384,395.73838 405.1662,408.49076 C 395.34334,413.67089 385.52048,418.00966 375.27698,420.66572 C 380.1664,405.78211 384.63518,392.16053 386.15936,374.75284 C 390.90858,369.68511 393.97518,366.72076 400.40701,363.33574 C 417.76523,366.72525 432.59952,366.32862 447.85446,361.7252 C 462.27635,354.52624 470.3884,346.4859 481.86569,321.61836 C 467.54003,319.19051 459.52422,318.02471 444.35725,324.01047 C 433.82918,326.71464 425.82503,333.20493 419.08286,337.17115 C 432.8559,323.12098 437.79516,314.119 445.25836,300.48952 C 449.46491,284.204 453.25082,268.75983 449.88557,252.89499 C 427.98811,261.1278 420.39295,268.51924 409.43254,282.64158 C 395.55914,306.28281 394.72609,320.24841 395.57565,347.25508 C 392.65924,350.12354 388.48087,353.83336 385.56446,356.70181 C 386.35766,332.29552 387.57152,317.98555 384.99946,293.15857 C 388.61283,278.07459 392.22621,270.56285 397.52221,261.78907 C 403.9159,262.98307 411.41287,261.57365 416.28262,256.53676 C 421.1436,250.50518 422.4574,238.87965 415.07131,232.16732 C 407.13947,226.86276 395.46958,230.39248 390.32364,235.68426 C 385.7686,241.95801 386.68209,248.65245 389.2782,254.50554 C 385.54453,264.10075 382.65218,271.17188 378.07721,278.243 C 377.00357,267.93086 372.81111,255.23898 370.47551,244.92683 C 377.71052,232.51128 384.35061,225.45012 395.155,216.60416 C 407.05295,220.22187 423.08528,222.3311 434.98324,222.58337 C 454.90939,218.97805 469.78766,212.84865 486.76922,195.78155 C 470.11209,187.9811 457.24086,187.75289 438.90111,187.94536 C 428.86586,189.03899 419.67192,191.81534 409.21602,197.53645 C 422.84471,186.03443 432.26684,175.37378 442.53029,162.18905 C 449.81339,146.9133 454.15192,128.27211 454.28389,108.36888 C 429.38204,122.59912 414.99659,130.93983 403.13508,152.74232 C 397.04176,168.2346 392.35475,179.1592 390.468,201.80304 C 383.37322,214.44097 375.61136,217.4878 366.73189,227.15106 C 365.12144,215.66899 363.51098,205.02825 364.42446,192.70482 C 369.5122,186.59122 371.65534,178.79489 376.74308,172.68129 C 384.7161,175.167 390.37176,170.44591 393.82087,165.54211 C 397.86885,159.34767 396.63094,151.41527 390.10712,145.87948 C 381.82668,141.69672 376.49082,143.4035 371.15497,149.31708 C 366.08304,155.54273 365.63832,160.50633 368.97951,168.4147 C 368.97951,168.4147 363.3802,181.47736 363.03053,179.12346 C 360.92726,164.96469 361.27573,138.45158 361.27573,138.45158 C 364.65609,136.36399 367.19514,135.11777 370.15484,133.45086 C 389.90573,125.29848 399.14022,120.09086 413.00192,107.73166 C 426.79902,94.1627 435.96889,76.8076 437.98762,50.61822 C 415.88602,51.7957 400.93558,62.22815 386.82644,75.60536 C 375.55705,86.40245 367.35952,102.33699 364.0826,117.3409 L 362.11705,118.51261 C 361.76444,106.96248 363.09445,95.83303 364.84512,83.86221 C 372.52484,80.50915 373.89472,81.3629 376.94721,72.96169 C 379.08693,62.31271 376.17878,54.18782 363.59554,50.26971 C 348.39212,49.56033 344.12577,54.31979 341.54205,65.81012 C 342.63562,73.39404 344.99115,79.29524 351.55324,80.98964 C 351.83368,92.94877 351.2728,103.22518 349.87061,115.605 L 347.64008,114.64106 C 345.59729,102.34581 339.47522,91.13408 327.33668,70.8459 C 319.29681,57.98561 309.57432,45.546 288.07345,41.09932 C 284.88828,63.38227 289.27492,86.50659 299.9714,104.16208 C 310.88369,121.85399 328.52648,126.92551 343.64533,139.98995 C 344.03781,172.93769 345.27159,190.32025 351.9739,237.15044 C 351.9739,237.15044 342.21898,237.26423 341.99725,232.4204 C 341.65308,224.90187 338.86829,198.60053 334.47545,179.12346 C 328.11821,161.05898 314.6098,148.46334 295.21222,136.28838 C 289.32303,158.69164 290.16434,173.10198 295.21222,193.40182 C 299.97845,207.10348 310.4273,217.86036 317.61419,226.93453 C 309.30968,220.86492 297.63992,213.95395 288.07345,211.24978 C 273.62751,208.65352 265.07075,209.84338 253.5694,214.81936 C 263.76067,232.0906 276.21391,244.9964 292.71501,249.75064 C 309.34784,254.98862 323.2023,256.06796 341.04923,251.41642 C 344.22201,251.41642 350.33939,256.46458 353.51218,256.46458 C 362.12944,277.44976 364.0162,289.17998 365.48231,305.53769 C 356.16807,300.26131 352.74303,296.66767 346.37341,290.97062 C 346.19332,283.33858 342.64799,277.80995 334.47545,273.12266 C 323.87374,268.34521 317.16122,271.61591 311.02805,278.43477 C 306.00568,286.79352 307.95186,299.07294 316.62853,305.24898 C 324.58455,310.2915 333.46123,309.02381 340.49661,304.75612 C 350.55591,308.08512 358.51193,314.77955 366.88862,322.31536 C 368.1987,337.30654 367.82616,352.2977 367.03295,367.28887 C 365.56272,378.49498 363.67183,389.70109 360.09832,400.9072 C 354.56174,398.09064 351.96977,396.11542 348.53647,392.4575 C 347.91168,374.4652 346.44558,362.36242 341.61422,346.89419 C 327.20472,322.26724 309.00931,305.63321 284.50406,295.73007 C 281.53541,295.28462 280.24939,320.50066 285.69386,338.56515 C 293.22923,352.63936 299.92328,362.08609 315.03047,376.16029 C 307.12255,372.47042 291.64284,367.51849 283.31427,365.93201 C 270.85133,363.66019 265.11886,365.1745 253.49722,370.47492 C 264.06104,384.15252 278.8314,399.93351 294.02243,405.1975 C 308.32403,409.4043 326.41153,409.82498 339.87181,406.03885 C 345.19187,408.46258 350.09127,412.14833 353.30804,417.09613 L 348.65093,427.00583 C 338.96587,438.30198 330.54279,444.12929 319.59577,452.06 C 303.90849,462.49999 287.3799,470.4159 270.85132,478.7525 z "
       id="path1372"
       sodipodi:nodetypes="ccccccccccccccccccccccccccccccccccccccccccccscccccccccccccccccccsccccccccccccccccccccccccccccccc" />
    <path
       style="fill:#cccccc;fill-opacity:1;fill-rule:evenodd;stroke:rgb(0, 0, 0);stroke-width:0.50000000000000000;stroke-linecap:butt;stroke-linejoin:miter;stroke-opacity:1;stroke-miterlimit:4;stroke-dasharray:none"
       d="M 140,490 L 104,468 L 94,311 L 124,256 L 134,345 L 146,345 L 156,256 L 186,311 L 176,468 L 140,490 z "
       id="path1374"
       sodipodi:nodetypes="cccccccccc" />
    <path
       style="fill:#cccccc;fill-opacity:1;fill-rule:evenodd;stroke:rgb(0, 0, 0);stroke-width:0.50000000000000000;stroke-linecap:butt;stroke-linejoin:miter;stroke-opacity:1;stroke-miterlimit:4;stroke-dasharray:none"
       d="M 140,338 L 129,227 L 129,79 L 151,79 L 151,227 L 140,338 z "
       id="path1376"
       sodipodi:nodetypes="cccccc" />
  </g>
</svg>
