<?xml version="1.0" encoding="UTF-8"?>
<!DOCTYPE svg PUBLIC "-//W3C//DTD SVG 1.1//EN" "http://www.w3.org/Graphics/SVG/1.1/DTD/svg11.dtd">
<!-- Creator: CorelDRAW -->
<svg xmlns="http://www.w3.org/2000/svg" xml:space="preserve" width="500px" height="588px" shape-rendering="geometricPrecision" text-rendering="geometricPrecision" image-rendering="optimizeQuality" fill-rule="evenodd" clip-rule="evenodd"
viewBox="0 0 500 588"
 xmlns:xlink="http://www.w3.org/1999/xlink"
 xmlns:svg="http://www.w3.org/2000/svg"
 version="1.0">
 <g id="Layer_x0020_1">
  <metadata id="CorelCorpID_0Corel-Layer"/>
  <path id="path1937" fill="#CCCCCC" stroke="black" stroke-width="2.83465" d="M1.49783 1.56926l497.057 0.0286299 -0.0153071 275.809c-9.62703,148.92 -118.889,272.12 -247.895,309.123 -135.46,-37.9863 -240.969,-165.177 -249.11,-308.944l-0.036 -276.017z"/>
  <path id="path1937_0" fill="#003399" d="M1.49783 1.56926l497.057 0.0286299 -0.0153071 275.809c-6.9395,2.62262 -14.9063,15.5395 -35.5334,14.4105 -20.6272,-1.12904 -44.9595,-28.7816 -68.9687,-28.7731 -24.0095,0.00878741 -44.2888,28.8167 -68.08,28.8252 -23.7912,0.00878741 -50.5282,-28.7824 -74.3191,-28.7737 -23.7906,0.00850394 -44.2001,28.8165 -68.4278,28.825 -24.2274,0.00878741 -51.73,-28.781 -75.9575,-28.7725 -24.2274,0.00850394 -47.5821,28.8165 -70.7188,28.8247 -12.1031,0.00453544 -25.5161,-11.7723 -35.0002,-14.387l-0.036 -276.017z"/>
  <path id="path1937_1" fill="#0057F0" d="M1.64778 1.56926l496.907 0.0286299 -0.0153071 272.403c-6.9395,2.62262 -14.9063,15.5398 -35.5334,14.4105 -20.6272,-1.12904 -44.9595,-28.7816 -68.9687,-28.7731 -24.0095,0.00878741 -44.2888,28.8167 -68.08,28.8252 -23.7912,0.00878741 -50.5282,-28.7824 -74.3191,-28.7737 -23.7906,0.00850394 -44.2001,28.8165 -68.4278,28.825 -24.2274,0.00878741 -51.73,-28.781 -75.9575,-28.7725 -24.2274,0.00850394 -47.5821,28.8165 -70.7188,28.8247 -12.1031,0.00453544 -25.5161,-11.7723 -35.0002,-14.387l0.113953 -272.611z"/>
  <path fill="#003399" d="M286.201 138.399l-149.646 74.6595c-12.2774,5.23843 -20.467,15.6331 -12.5901,30.5399 6.43862,12.1844 19.1441,13.82 30.2757,7.272l145.532 -87.2941 7.05544 3.17566 0.327402 -7.39928c8.94898,-0.54567 15.2787,-2.72835 20.9537,-11.4591l5.89323 1.96441 -0.0651969 -6.61323 16.6649 -10.1169 1.39181 1.99701 3.94583 -1.39181 1.8326 3.71622 3.38882 -1.24441c4.78829,1.44907 3.75903,5.22114 3.86362,7.84205l-3.68362 2.29181 3.17622 5.09103 -3.65103 1.88221 3.52063 5.61544c-6.00237,4.85632 -5.58425,11.3448 -2.09565,17.6134 4.8617,8.73638 16.6459,8.45178 24.8196,4.99153 15.6215,-8.39282 39.1918,-18.2633 54.8141,-27.4411 18.4436,-9.82205 10.5959,-33.8372 -9.02126,-32.4128l-3.32362 -5.20583 -3.1252 1.3748 -2.81622 -4.07622 -2.4874 1.50661c-4.0989,-0.572599 -10.715,-1.15597 -9.68882,-4.65392l1.48961 -1.26 -2.73402 -4.73103 2.37402 -1.16221 -1.63701 -4.17402 3.27402 -1.34221c1.6937,-1.64551 -8.29134,-20.3406 -9.93686,-18.4493l-3.7491 1.46381 -2.82076 -3.06907 -2.57017 0.991276 -2.91827 -5.1069 -1.76315 0.624473c-4.58051,0.519874 -5.29852,-3.66265 -4.37896,-6.20759l2.09084 -2.01147 -1.84224 -4.66498 4.19273 -2.80999 0.488977 -9.05585c10.838,-15.4908 -6.71018,-32.9528 -24.8134,-22.5167l-51.3006 25.1898c-6.49673,5.65569 -12.1867,17.449 -8.26725,27.0542 2.78986,6.83632 7.52712,8.00674 14.4502,7.30659l3.09543 5.70076 5.29569 -1.42271 2.50781 4.0646 1.80142 0.549638c3.93619,-1.17553 8.21622,2.00608 5.4241,6.13814l-1.67443 0.645166 3.35679 6.41084 -2.38536 1.18658 0.858048 3.19068 -16.2261 7.38142 -7.37292 -4.46117 0.477071 5.32942c-9.68712,0.112252 -18.3444,5.11257 -23.4153,12.2633l-6.45052 -3.11811 -0.181134 7.84772z"/>
  <path fill="#003399" d="M221.535 142.847l156.283 75.9572c12.2774,5.23843 18.4156,14.7331 10.5384,29.6402 -6.4389,12.1847 -23.7464,14.2316 -34.8781,7.68359l-146.021 -88.3985 -6.87544 2.81565 -1.63701 -6.08967c-9.93119,-0.54567 -16.261,-3.71055 -21.2811,-12.7687l-5.23843 2.29181 0.327402 -8.51245 -16.0427 -8.83985 -2.29181 2.29181 -2.61921 -0.654803 -3.60142 3.27402 -2.94662 -0.654803c-3.60907,1.74387 0.23726,2.46416 0.132661,5.08507l2.94662 2.29181 -2.29181 5.23843 2.61921 2.61921 -1.30961 4.58362c6.00237,4.85632 5.28973,12.966 1.80085,19.2348 -4.86199,8.73667 -14.1565,10.7666 -23.2146,9.07512l-51.7295 -28.8114c-18.4436,-9.82205 -12.6595,-33.395 6.22063,-32.4128l2.29181 -4.91103 6.22063 1.96441 1.63701 -3.92882 4.25622 0.327402c2.18268,-1.30961 3.71055,-2.83748 3.27402,-5.89323l-1.63701 -2.29181 2.29181 -4.58362 -1.63701 -1.30961 1.63701 -4.91103 -3.27402 -1.63701c-1.52787,-0.982205 8.07591,-18.9893 9.49465,-18.0071l4.78092 1.90602 1.64154 -3.36388 2.12797 0.843874 2.91827 -3.78029 1.91055 0.919276c3.6961,-1.24895 3.6771,-4.84186 2.75754,-7.38681l-2.53304 -2.45367 2.13704 -5.10718 -4.63493 -3.25219 2.6229 -4.21881c-10.838,-15.4908 10.9576,-34.6779 29.0608,-24.2419l50.2087 27.9468c5.90712,5.80309 8.63348,11.2853 4.41836,21.3327 -2.85647,6.80939 -14.2804,11.6481 -20.1716,9.47396l-2.21102 4.52155 -4.26388 -0.833103 -1.91821 4.0646 -4.15984 -0.629575c-2.16737,1.4777 -3.64677,2.74309 -3.21307,6.72775l2.11663 1.82438 -2.17758 4.78942 1.94315 0.89178 -0.0742678 2.83068 15.9979 8.26583 5.73591 -4.13377 2.46954 7.29383c9.35972,-0.542551 15.0704,3.14816 21.7783,10.2988l6.45052 -2.46331 0.835937 8.17512z"/>
  <path fill="#CCCCCC" d="M285.066 133.857l-149.646 74.6595c-12.2774,5.23843 -20.467,15.6331 -12.5901,30.5399 6.43862,12.1844 19.1441,13.82 30.2757,7.272l145.532 -87.2941 7.05544 3.17566 0.327402 -7.39928c8.94898,-0.54567 15.2787,-2.72835 20.9537,-11.4591l5.89323 1.96441 -0.0651969 -6.61323 16.6649 -10.1169 1.39181 1.99701 3.94583 -1.39181 1.8326 3.71622 3.38882 -1.24441c4.78829,1.44907 3.75903,5.22114 3.86362,7.84205l-3.68362 2.29181 3.17622 5.09103 -3.65103 1.88221 3.52063 5.61544c-6.00237,4.85632 -5.58425,11.3448 -2.09565,17.6134 4.8617,8.73638 16.6459,8.45178 24.8196,4.99153 15.6215,-8.39282 31.2429,-17.1278 46.8652,-26.3055 18.4436,-9.82205 10.5959,-33.8372 -9.02126,-32.4128l-3.32362 -5.20583 -3.1252 1.3748 -2.81622 -4.07622 -2.4874 1.50661c-4.0989,-0.572599 -5.03717,-3.42709 -4.01103,-6.92504l1.48961 -1.26 -2.73402 -4.73103 2.37402 -1.16221 -1.63701 -4.17402 3.27402 -1.34221c1.6937,-1.64551 -8.29134,-20.3406 -9.93686,-18.4493l-3.7491 1.46381 -2.82076 -3.06907 -2.57017 0.991276 -2.91827 -5.1069 -1.76315 0.624473c-4.58051,0.519874 -5.29852,-3.66265 -4.37896,-6.20759l2.09084 -2.01147 -1.84224 -4.66498 4.19273 -2.80999 -2.9177 -4.51361c10.838,-15.4908 -6.71018,-32.9528 -24.8134,-22.5167l-49.0295 26.3254c-6.49673,5.65569 -8.78032,12.9067 -4.86057,22.5119 2.78986,6.8366 7.52712,8.00674 14.4502,7.30659l3.09543 5.70076 5.29569 -1.42271 2.50781 4.0646 1.80142 0.549638c3.93619,-1.17553 8.21622,2.00608 5.4241,6.13814l-1.67443 0.645166 3.35679 6.41084 -2.38536 1.18658 0.858048 3.19068 -16.2261 7.38142 -7.37292 -4.46117 0.477071 5.32942c-9.68712,0.112252 -18.3444,5.11257 -23.4153,12.2633l-6.45052 -3.11811 -0.181134 7.84772z"/>
  <path fill="#666666" d="M218.922 166.845l32.0604 19.3306 -99.2027 58.9323c-10.1988,4.45266 -19.2674,4.19074 -25.1445,-3.73238l0.589323 -1.57153 0.785764 0.785764c5.43459,6.25437 14.2092,5.46832 22.1978,1.96441l89.1842 -53.0391 -0.196441 -2.55373 -89.3807 51.4676c-8.93764,4.46854 -15.5512,4.10854 -19.0548,1.37509 6.22063,1.22769 10.4771,1.52192 18.6619,-2.94662l88.7914 -52.0569 0 -1.37509 -3.3395 -5.10747 -9.78634 -6.33487 -6.16592 -5.13808z"/>
  <path fill="#CCCCCC" d="M220.206 134.511l150.605 75.9572c12.2774,5.23843 20.6873,15.8684 12.8095,30.7758 -6.43918,12.1853 -20.3397,13.0961 -31.4714,6.54803l-146.021 -88.3985 -6.87544 2.81565 -1.63701 -6.08967c-9.93119,-0.54567 -16.261,-3.71055 -21.2811,-12.7687l-5.23843 2.29181 0.327402 -8.51245 -16.0427 -8.83985 -2.29181 2.29181 -2.61921 -0.654803 -3.60142 3.27402 -2.94662 -0.654803c-3.60907,1.74387 -3.16942,3.59972 -3.27402,6.22063l2.94662 2.29181 -2.29181 5.23843 2.61921 2.61921 -1.30961 4.58362c6.00237,4.85632 5.28973,12.9657 1.80085,19.2348 -4.86227,8.73667 -10.7498,9.631 -19.8079,7.93956l-51.7295 -28.8114c-18.4436,-9.82205 -12.6595,-33.395 6.22063,-32.4128l2.29181 -4.91103 6.22063 1.96441 1.63701 -3.92882 4.25622 0.327402c2.18268,-1.30961 3.71055,-2.83748 3.27402,-5.89323l-1.63701 -2.29181 2.29181 -4.58362 -1.63701 -1.30961 1.63701 -4.91103 -3.27402 -1.63701c-1.52787,-0.982205 8.07591,-18.9893 9.49465,-18.0071l4.78092 1.90602 1.64154 -3.36388 2.12797 0.843874 2.91827 -3.78029 1.91055 0.919276c3.6961,-1.24895 3.6771,-4.84186 2.75754,-7.38681l-2.53304 -2.45367 2.13704 -5.10718 -4.63493 -3.25219 2.6229 -4.21881c-10.838,-15.4908 6.41537,-33.5424 24.5186,-23.1063l50.2087 27.9468c5.90712,5.80309 8.63377,11.285 4.41836,21.3327 -2.85676,6.80967 -9.73815,10.5126 -15.6294,8.3384l-2.21102 4.52155 -4.26388 -0.833103 -1.91821 4.0646 -4.15984 -0.629575c-2.16737,1.4777 -3.64677,2.74309 -3.21307,6.72775l2.11663 1.82438 -2.17758 4.78942 1.94315 0.89178 -0.0742678 2.83068 15.9979 8.26583 5.73591 -4.13377 2.46954 7.29383c9.35972,-0.542551 15.0704,3.14816 21.7783,10.2988l6.45052 -2.46331 0.835937 8.17512z"/>
  <polygon fill="#666666" points="165.53,107.337 155.708,127.636 172.406,136.148 173.388,133.857 159.965,126.326 160.619,124.689 174.043,132.22 174.698,130.91 160.619,123.052 161.602,119.778 167.495,109.629 "/>
  <path fill="#666666" d="M188.776 113.23l-16.0427 30.7758 3.92882 -1.63701c5.56668,8.07591 12.8781,12.223 21.9359,12.4413l4.91103 -10.1495 -1.15058 0.0187087c-8.18561,0.10885 -14.4556,-3.51128 -19.1483,-9.51336l-0.982205 0.982205c3.71055,6.06133 10.0891,9.09837 18.1661,10.6265l-0.159024 1.81474c-9.63185,-0.763937 -15.2331,-5.16076 -20.1305,-12.909l9.65367 -16.5572c-1.20076,-0.654803 -1.52787,-2.61921 -0.982205,-5.89323z"/>
  <path fill="#CCCCCC" d="M180.46 139.703c5.10747,6.11774 11.2813,9.37304 18.1848,10.1027l-0.84189 1.68378c-11.9208,-2.00438 -15.7629,-6.63563 -17.3429,-11.7865z"/>
  <path fill="#666666" d="M218.345 128.59l-17.1746 32.1602 5.3881 -2.52567 2.02054 0.673512 145.31 86.7147c21.5107,11.6977 35.3129,-8.29049 29.2978,-22.5627l-1.5154 2.02054c-0.363969,18.1882 -14.6764,23.5752 -26.267,17.1746l-146.994 -86.5463 1.17865 -2.02054 149.856 86.7147c8.71342,6.62259 25.2984,-6.00577 18.1848,-16.501l-0.336756 2.18891c3.25531,11.0313 -11.9548,16.9798 -17.5113,12.1232l-150.025 -85.8728 10.1027 -17.1746 -0.84189 -0.505134 -1.01027 0.336756 -4.20945 7.74539 -1.68378 1.17865 5.55648 -10.4394 0.84189 -2.86243 -0.168378 -2.02054z"/>
  <path fill="#666666" d="M66.5241 144.53l-0.785764 0.982205c19.6194,11.8437 39.0507,23.1225 58.1465,33.395 17.551,7.46759 30.2545,-18.0692 14.7331,-25.9302l0.982205 2.94662 -11.9829 -6.87544 -1.37509 0 10.8043 6.679 -0.196441 1.76797 -11.59 -6.87544 -1.37509 0.392882 13.1615 7.85764 -0.196441 0.982205 -1.17865 0.196441 -15.126 -8.44696 -0.785764 0.785764 16.1082 9.82205 -0.196441 1.57153 -0.982205 -0.196441 -14.3402 -8.05408 -1.37509 0.785764 15.126 8.44696 0.196441 1.17865 -1.57153 -0.196441 -16.3046 -8.83985 -1.17865 0.785764 16.3046 9.62561 -0.196441 0.982205 -1.96441 0.392882 -15.126 -8.64341 -1.76797 0.392882 16.3046 9.42917 0.392882 1.57153 -1.57153 0 -17.0904 -9.62561 -0.196441 1.17865 16.8939 9.62561 -0.392882 0.392882 -1.76797 -0.196441 -16.1082 -8.44696 -1.37509 0 0.785764 1.37509 15.5188 8.05408 -0.196441 0.982205 -5.50035 -1.96441c-11.8845,-6.61748 -38.1765,-21.183 -40.1797,-21.7752 -3.13994,-0.92778 -8.24315,-4.48668 -11.4843,-6.51232z"/>
  <path fill="#666666" d="M116.617 173.8c11.1991,-3.82961 15.1929,-12.3426 15.9117,-22.9836 2.55543,11.2964 -5.82605,23.4099 -15.9117,22.9836z"/>
  <polygon fill="#CCCCCC" points="139.207,156.906 138.814,158.281 142.35,160.049 141.761,158.281 "/>
  <polygon fill="#CCCCCC" points="138.225,163.781 137.832,165.156 140.189,165.942 140.975,165.156 "/>
  <polygon fill="#CCCCCC" points="137.046,166.531 136.654,167.906 138.618,168.496 139.207,167.71 "/>
  <polygon fill="#CCCCCC" points="135.278,169.281 134.886,170.657 136.85,171.246 137.439,170.46 "/>
  <polygon fill="#CCCCCC" points="131.818,172.032 131.546,172.983 132.906,173.392 133.314,172.848 "/>
  <polygon fill="#CCCCCC" points="129.461,174.389 129.189,175.341 130.549,175.749 130.957,175.205 "/>
  <polygon fill="#CCCCCC" points="138.814,159.852 138.421,161.227 141.957,162.995 141.368,161.227 "/>
  <path fill="#666666" d="M127.617 145.512l3.08693 2.06391 9.87818 5.20441 1.76797 0 1.37509 -3.92882 -3.92882 -1.96441 2.94662 -5.30391c-11.5245,-6.35159 -23.7688,-12.7029 -36.3416,-19.0548l-0.392882 0.982205c11.6393,5.97515 21.8869,11.3774 32.4128,17.4833l-0.196441 1.17865 -13.7509 -7.26832 -0.589323 0.196441 13.5544 8.83985 0 1.37509 -1.57153 -0.196441 -35.7523 -19.8405 2.94662 2.94662 33.395 18.4655 0.392882 1.17865 -15.5188 -8.25052 0.392882 0.982205 11.3936 6.28611 0 0.785764 -5.50035 -2.16085z"/>
  <polygon fill="#666666" points="119.675,123.707 119.675,124.717 131.462,132.294 130.452,132.463 130.62,133.136 140.218,138.524 139.544,135.662 "/>
  <polygon fill="#666666" points="140.554,132.8 140.049,134.988 117.15,120.845 118.497,120.845 134.529,129.534 134.752,128.72 116.898,118.127 97.4495,107.543 96.9444,104.849 143.753,131.284 141.059,132.463 "/>
  <polygon fill="#666666" points="125.905,119.161 145.1,131.116 147.795,130.947 149.815,128.085 97.7863,98.282 98.4598,100.471 144.259,127.075 142.575,127.243 128.768,118.824 "/>
  <polygon fill="#666666" points="135.166,117.646 149.31,125.391 153.014,129.432 165.306,104.344 164.127,104.344 163.959,101.481 165.306,99.4607 162.949,97.4401 162.949,92.8939 167.326,89.358 120.517,62.7543 122.369,65.2799 155.708,85.3169 155.372,86.3272 142.238,78.7502 139.544,78.9186 154.53,87.5058 154.53,88.5161 152.172,87.3375 150.994,87.5058 158.571,92.7256 159.413,94.0726 161.433,95.588 159.581,96.0931 142.575,85.6537 140.723,85.9904 141.396,87.1691 153.519,93.7358 153.351,94.5777 152.004,94.5777 148.805,92.7256 146.111,92.3888 161.938,102.323 160.423,103.165 148.468,96.0931 146.953,96.7666 155.877,101.986 155.877,103.502 154.53,103.67 146.784,99.6291 145.1,99.9658 154.193,105.186 154.193,106.364 152.846,106.364 144.764,102.155 144.764,103.333 152.846,108.048 152.846,109.395 151.499,109.563 143.248,105.017 143.417,106.364 151.33,110.91 150.994,112.426 149.647,112.426 142.238,108.721 140.723,109.058 149.478,114.11 149.478,115.457 147.963,115.793 139.376,111.079 139.376,112.426 147.626,117.477 147.795,118.993 146.448,118.824 139.039,114.615 138.029,114.783 145.942,120.171 146.111,121.518 145.1,121.687 135.335,116.467 "/>
  <polygon fill="#CCCCCC" points="156.887,104.512 158.402,105.522 159.581,105.186 159.413,104.175 157.729,103.502 "/>
  <polygon fill="#CCCCCC" points="155.372,107.206 156.887,108.216 158.066,107.88 157.897,106.869 156.213,106.196 "/>
  <polygon fill="#CCCCCC" points="153.856,110.574 155.372,111.584 156.55,111.247 156.382,110.237 154.698,109.563 "/>
  <polygon fill="#CCCCCC" points="152.172,113.268 153.688,114.278 154.866,113.941 154.698,112.931 153.014,112.257 "/>
  <polygon fill="#CCCCCC" points="150.825,116.804 152.341,117.814 153.519,117.477 153.351,116.467 151.667,115.793 "/>
  <polygon fill="#CCCCCC" points="149.142,120.171 150.657,121.181 151.836,120.845 151.667,119.834 149.983,119.161 "/>
  <polygon fill="#CCCCCC" points="147.458,122.865 148.973,123.875 150.152,123.539 149.983,122.528 148.3,121.855 "/>
  <polygon fill="#666666" points="119.507,56.5243 122.706,58.8816 164.969,82.7913 165.979,84.3067 163.959,83.8015 157.055,79.7604 155.203,80.0972 164.127,85.3169 164.464,86.6639 166.99,86.8323 168.842,89.358 172.041,89.1896 173.051,85.6537 119.339,55.0089 "/>
  <polygon fill="#666666" points="155.203,73.8672 174.23,84.1383 174.23,85.6537 177.597,86.6639 178.439,83.9699 155.877,73.0253 "/>
  <path fill="#666666" d="M149.815 68.1424l29.8029 15.8275 0 -2.18891c15.3216,3.60652 25.215,-18.3654 9.59755,-28.6243l-0.505134 1.01027 2.86243 2.02054 0 1.01027 -1.34702 0 -13.9754 -7.91377 -1.34702 0.168378 18.3532 10.4394 0.168378 2.18891 -17.8481 -9.9343 -1.68378 0.505134 19.8686 11.113 0 0.673512 -1.34702 0.168378 -17.1746 -9.42917 -1.85216 0 0.336756 0.84189 18.69 10.6078 0.336756 1.17865 -1.5154 -0.168378 -19.1951 -10.6078 -1.5154 0 1.34702 1.5154 19.5319 10.7762 0.168378 1.17865 -1.5154 0 -18.69 -11.113 -1.68378 0 0.336756 0.84189 19.8686 11.4497 -0.168378 0.84189 -1.68378 0.168378 -19.8686 -11.113 -1.34702 0.168378 0.505134 1.17865 20.8789 11.6181 -2.69405 0.336756 -18.1848 -9.59755 -1.85216 0.505134 19.8686 11.113 -3.0308 0 -21.2156 -11.113 -2.02054 0.168378 15.8275 9.26079 -0.168378 1.01027 -2.35729 -0.336756 -26.0986 -14.8173 -4.04107 -0.84189 -22.3943 -12.7967 -0.84189 0.336756 0.336756 1.17865 49.5031 27.7824 -17.3429 -8.75566 -1.68378 0.168378z"/>
  <path fill="#666666" d="M167.663 76.0561c9.4853,0.673512 22.5627,-15.5469 16.8378,-23.7413 0.392882,16.052 -10.6639,19.139 -16.8378,23.7413z"/>
  <path fill="#666666" d="M174.23 78.4134c10.9882,0.804189 20.3341,-14.6546 14.3121,-23.7413 1.40315,15.5469 -8.13827,19.139 -14.3121,23.7413z"/>
  <polygon fill="#666666" points="137.692,53.9986 136.176,54.5037 134.156,53.4935 134.493,52.4832 "/>
  <polygon fill="#666666" points="146.279,58.3764 144.427,58.7132 141.733,57.1978 142.07,56.1875 "/>
  <polygon fill="#666666" points="156.719,63.5962 154.025,63.2594 150.489,61.0705 150.825,60.0602 "/>
  <polygon fill="#666666" points="295.771,155.531 279.859,164.567 283.199,166.531 297.932,157.888 "/>
  <polygon fill="#666666" points="293.413,152.977 294.985,153.173 295.181,154.548 278.288,163.781 275.93,162.799 "/>
  <path fill="white" d="M97.4308 100.134l-2.29181 4.58362 2.31052 0.130961 34.1807 19.3635 1.85216 0 -31.9918 -19.1951 1.5154 -0.168378 5.3881 2.69405 1.85216 0 -12.8154 -7.40863zm-0.654803 6.87544c0.436536,3.05575 -1.09134,4.58362 -3.27402,5.89323l-4.25622 -0.327402 -1.63701 3.92882 -6.22063 -1.96441 -2.29181 4.91103c-15.4332,-0.802772 -22.1153,14.8017 -13.9672,25.8911l1.84394 -1.59789 4.20945 3.87269 2.18891 0.673512 -4.71459 -3.53594 1.85216 -0.336756 7.24026 4.88296 1.85216 0.168378 -0.84189 -1.17865 -8.92404 -6.06161 -0.168378 -1.17865 1.85216 0.505134 7.57701 4.37783 1.68378 0.505134 -0.336756 -1.34702 -9.42917 -5.55648 0 -1.01027 2.18891 0 8.08215 4.71459 3.19918 1.34702 -2.18891 -2.52567 -10.6078 -5.72485 1.5154 -1.01027 12.7967 6.9035 -0.84189 -1.85216 -10.6078 -6.06161 -0.168378 -1.17865 1.68378 0 7.74539 4.71459 2.86243 1.34702 -2.18891 -2.52567 -8.92404 -5.55648 -0.168378 -0.673512 2.69405 0.336756 9.42917 5.55648 -2.86243 -3.0308 -7.24026 -4.37783 -0.505134 -1.17865 2.02054 0 10.1027 5.72485 -0.336756 -1.85216 -9.9343 -6.06161 0.336756 -1.34702 1.68378 0.336756 35.0226 17.0062 3.36756 0 -38.7269 -20.3737 0 -1.5154 1.5154 0.168378 6.9035 3.70432 2.02054 -0.336756 -8.58728 -4.88296 0.168378 -1.17865 1.68378 0.168378 37.8851 19.5319 -1.34702 -2.35729 -32.1602 -16.6694 2.35729 -0.673512 5.05134 2.69405 2.18891 0.336756 -6.06161 -3.70432 0.168378 -0.673512 1.34702 -0.336756 28.7926 15.154 1.85216 -0.505134 -26.7721 -15.3224 0.505134 -0.84189 1.5154 -0.168378 12.1232 7.40863 -0.336756 -2.02054 -11.6181 -6.73512 0 -1.5154 1.5154 0 7.40863 3.53594 -1.5154 -1.34702 -10.2711 -6.08967zm20.6042 -58.6338l-2.6229 4.21881 2.37997 1.67017 2.94973 0.687969 25.6683 14.6676 1.96441 0 -27.5017 -15.7153 -0.392882 -1.17865 9.82205 5.36939 2.22633 0.130961 -10.6078 -5.89323 0 -0.916725 7.59572 3.92882 2.22633 0.130961 -13.7075 -7.10079zm1.67131 8.28482l-1.79632 4.29336 2.53304 2.45367 0.560693 -1.1211 18.4655 10.084 -2.61921 -2.88114 -14.6676 -7.85764 -0.523843 -1.17865 2.35729 0.392882 14.4057 8.25052 -1.04769 -1.83345 -17.6675 -10.6024zm1.2138 8.79931c0.219969,2.14243 -0.462614,4.39795 -3.23462,5.33452l-1.91055 -0.919276 -2.91827 3.78029 -2.12797 -0.843874 -1.64154 3.36388 -4.78092 -1.90602c-1.41874,-0.982205 -11.0225,16.8565 -9.49465,17.8387l1.61972 -1.06016 0.456662 -2.56394 2.92451 -1.17808 -0.558425 -1.45531 2.04208 -2.87603 3.33865 0.578551 -6.54917 10.3604 -1.08964 3.26948 14.747 8.17087 -0.505134 -1.85216 -7.40863 -4.37783 2.35729 -0.336756 11.9548 6.73512 -2.02054 -2.69405 -10.9446 -6.39837 -0.168378 -1.68378 1.68378 0.336756 9.9343 6.56674 0.168378 -2.18891 -9.09241 -6.06161 0.168378 -1.17865 1.68378 0.336756 9.9343 6.22999 -0.168378 -1.68378 -9.59755 -6.22999 0 -1.5154 1.68378 0.168378 11.7865 7.07188 -0.673512 -2.35729 -11.2813 -6.39837 -0.336756 -1.34702 1.17865 -0.168378 11.7865 6.73512 -0.673512 -2.02054 -10.2711 -5.89323 -0.168378 -1.5154 1.85216 0.505134 6.22999 3.19918 1.68378 0.336756 -0.84189 -1.68378 -6.9035 -3.70432 0.168378 -1.17865 2.02054 0.505134 7.40863 3.87269 -2.02054 -2.35729 -5.55648 -3.36756 2.69405 -0.505134 14.3651 7.97131 6.85049 2.13137 -24.4148 -12.9651 0.336756 -1.17865 2.69405 1.34702 1.85216 0 -4.20945 -2.52567 0.168378 -1.01027 1.85216 -0.336756 31.8234 17.0062 3.87269 1.5154 -30.8132 -18.69 -0.336756 -1.5154 1.5154 0 13.807 7.91377 1.85216 0.168378 -15.8275 -9.42917 -0.505134 -1.34702 9.09241 3.70432 -10.2008 -6.35018 -2.42759 -1.05846m51.243 72.5242l-0.183969 4.7778 2.14838 0.133228 15.7575 -29.4364 -0.473386 -1.39833 -5.73591 4.13377 -11.0296 -5.69877 -1.53071 0.183402 0.392882 2.75017 11.5245 5.76227 0 1.04769 -1.70249 0.130961 -8.90533 -4.84555 -1.96441 0.523843 2.35729 1.70249 8.11956 4.19074 0 1.83345 -8.77437 14.2092zm199.388 73.338l-150.605 -75.9572 0.589323 2.81565 15.6682 8.74092 131.663 66.6924c5.06381,3.29556 10.6948,6.39496 13.227,11.2626l0.261921 -2.75017c-3.79814,-3.92939 -7.11581,-6.41736 -10.2149,-8.25052l-0.589323 -2.55373zm-179.67 -91.9679c9.35972,-0.542551 15.0704,3.14816 21.7783,10.2988l6.45052 -2.46331 -20.1178 35.8733 -1.63701 -6.08967 15.3224 -24.948 -3.14306 -3.79786 -1.17865 -0.261921 -0.130961 3.53594 -1.04769 -0.130961c-5.60977,-4.06035 -10.9792,-6.19966 -16.2391,-7.46476l-0.130961 -1.17865c2.92479,0.218268 7.59572,1.83345 14.0128,4.84555l1.17865 0 -0.392882 -1.44057c-6.26485,-3.58044 -10.3683,-4.75881 -13.489,-4.84555l-1.17865 -0.916725 -0.0569764 -1.01565zm-8.53881 -70.5745l-40.7041 -22.6568c-17.113,-9.86514 -33.467,5.72655 -26.0493,20.5472l1.09446 -0.0311811 0.916725 1.96441 1.30961 -0.785764 1.04769 0.130961 2.88114 2.09537 3.53594 1.83345 -4.84555 -3.92882 -0.130961 -0.785764 1.57153 0.130961 7.59572 5.89323 1.57153 -0.261921 -8.38148 -6.80996 -1.17865 -0.130961 -0.130961 -1.44057 1.70249 -0.261921 9.56013 5.76227 3.14306 0.261921 -12.7032 -7.46476 0.130961 -1.04769 2.22633 -0.130961 7.72668 4.97651 1.57153 -0.130961 -0.523843 -1.04769 -9.69109 -6.15515 3.14306 -0.130961 8.77437 6.02419 1.04769 -0.261921 -0.523843 -1.44057 -10.084 -6.41707 -0.261921 -1.17865 1.96441 0 8.77437 5.63131 2.35729 0.130961 -10.8697 -7.20284 -0.654803 -1.17865 2.61921 -0.130961 5.36939 3.27402 4.84555 1.30961 -10.4769 -6.15515 -0.392882 -1.44057 1.44057 -0.261921 7.9886 4.97651 1.96441 0.392882 -1.04769 -1.70249 -9.56013 -5.36939 0 -1.57153 2.09537 -0.392882 3.6669 2.22633 1.44057 0.130961 0 -0.785764 1.44057 0.261921 47.4078 26.4541 -1.57153 -1.70249 -5.76227 -3.40498 1.61915 -0.609449z"/>
  <polygon fill="#CCCCCC" points="101.659,80.6023 101.491,81.9494 104.69,82.2861 104.185,80.7707 "/>
  <polygon fill="#CCCCCC" points="104.016,77.0664 103.174,79.0869 105.532,79.4237 106.037,77.4032 "/>
  <polygon fill="#666666" points="101.098,87.431 97.4308,93.1933 95.2045,92.0146 96.645,91.4908 96.9069,89.1335 98.6094,88.6097 100.05,87.0381 "/>
  <path fill="white" d="M190.544 125.017l0.130961 0.916725c5.67496,1.69115 11.3496,4.4195 17.0249,7.85764l1.57153 0.130961 -0.261921 -1.83345c-6.34649,-3.31257 -12.4688,-5.50602 -18.4655,-7.07188z"/>
  <path fill="white" d="M222.367 140.601l-2.35729 -0.261921 4.45266 3.40498 143.795 73.7309c4.09266,2.2371 8.04274,5.18344 11.7865,9.16725l0.654803 -0.916725c-3.64706,-4.85235 -8.61846,-8.11503 -14.0128,-10.8697l-144.319 -74.2547z"/>
  <path fill="white" d="M222.891 173.014l-0.196441 -2.35729c-27.6897,15.7317 -56.7139,29.9736 -84.8625,43.6099 -16.1736,6.67871 -14.2747,17.0246 -11.3936,22.1978 -1.57153,-8.44725 -0.785764,-12.7035 11.9829,-19.6441 28.1565,-14.1837 56.3134,-28.5732 84.4696,-43.8064z"/>
  <path fill="#666666" d="M289.288 129.404l-1.76797 0.196441c4.6046,9.33478 9.48501,18.807 15.3496,28.7722l-4.0578 0.0564095 5.40567 1.81616 0.196441 -5.69679c9.98618,-2.29153 17.7783,-5.69679 22.0014,-12.9651l-1.57153 -2.94662c-4.48498,7.20341 -12.2119,10.8045 -21.4121,12.7687l-0.785764 -1.76797c10.3459,-1.89921 17.2213,-6.41736 20.037,-13.5544l-2.16085 0.392882c-1.93068,4.45266 -8.8064,8.51216 -18.4655,11.59l-4.3217 -9.42917 -1.17865 0.392882 4.3217 9.23273 -0.392882 1.57153 -1.96441 -3.73238 -0.392882 -2.35729 -4.71459 -10.2149 -1.17865 0.392882 1.76797 5.50035 -4.71459 -10.0185z"/>
  <path fill="#666666" d="M316.201 136.869l2.35729 0.392882c-4.3217,3.6669 -8.64341,6.28611 -12.9651,7.85764l-3.14306 -0.589323c5.63131,-1.50633 10.2149,-4.06007 13.7509,-7.6612z"/>
  <polygon fill="#666666" points="317.576,115.849 330.737,141.19 327.987,141.387 328.576,142.565 332.898,144.137 332.112,137.851 348.613,127.439 346.845,125.279 331.916,133.333 330.934,133.333 330.737,132.154 345.667,123.707 344.095,122.725 329.952,130.19 327.005,124.493 326.416,125.082 327.005,127.636 323.469,120.368 321.701,119.778 325.433,127.636 319.344,116.046 "/>
  <path fill="#666666" d="M376.704 177.728l2.35729 0.392882 53.0391 -29.0733c18.7271,-9.55985 7.20255,-30.7755 -6.87544,-27.6982l-5.30391 4.12526 1.37509 0.196441 3.53594 -1.76797 0.589323 0.589323 -9.03629 5.30391 2.56592 -0.363118 10.3992 -6.11944 1.37509 0.196441 -0.196441 0.982205 -17.6797 9.62561 2.55373 0.392882 16.6975 -9.42917 1.17865 0.196441 -0.392882 1.37509 -12.5722 6.679 -6.08967 4.3217 2.35729 -0.589323 16.6975 -9.23273 2.55373 -0.196441 -0.982205 1.37509 -19.2512 10.8043 -1.17865 1.76797 1.76797 -0.196441 18.269 -10.4114 1.96441 0 -0.196441 1.76797 -15.7153 8.64341 -5.30391 4.3217 3.14306 -0.785764 17.0904 -9.82205 1.76797 -0.196441 -0.392882 1.57153 -14.1438 7.6612 -9.03629 5.30391 3.53594 0 10.6078 -6.679 1.96441 0.196441 -0.392882 1.17865 -17.8761 10.2149 0.196441 1.17865 15.7153 -8.25052 0 1.17865 -21.4121 12.1793 -29.2697 17.0904z"/>
  <path fill="#666666" d="M430.529 142.958c-1.30961,-6.80996 -3.9943,-12.8341 -8.44696,-16.501 6.09024,2.48769 9.69166,7.72555 8.44696,16.501z"/>
  <path fill="#666666" d="M434.458 141.976c-1.30961,-6.80996 -4.58362,-15.7808 -9.03629,-19.4477 7.00668,3.17509 11.4593,11.5557 9.03629,19.4477z"/>
  <polygon fill="#666666" points="407.153,156.316 401.26,160.245 403.224,160.245 409.117,156.906 "/>
  <polygon fill="#666666" points="396.938,163.192 392.616,165.942 394.581,165.942 398.509,163.388 "/>
  <polygon fill="#666666" points="388.687,167.71 385.544,169.674 387.509,169.674 389.866,167.906 "/>
  <polygon fill="#666666" points="398.902,126.064 418.35,115.653 420.904,115.849 422.672,119.189 416.189,122.136 415.403,121.743 400.867,129.207 400.867,128.029 415.01,120.368 412.653,120.564 400.081,126.654 "/>
  <polygon fill="#666666" points="393.598,122.528 412.26,112.903 413.832,112.903 415.6,115.653 400.081,123.118 398.313,122.921 408.331,117.617 406.76,117.421 394.973,123.314 "/>
  <polygon fill="#CCCCCC" points="411.671,115.849 411.475,115.064 409.903,116.046 410.099,116.832 "/>
  <polygon fill="#CCCCCC" points="418.35,118.403 418.154,117.617 416.582,118.6 416.778,119.385 "/>
  <polygon fill="#666666" points="359.811,131.368 358.043,131.368 405.581,105.831 405.778,110.153 409.707,113.099 407.349,113.885 403.813,114.082 403.224,115.653 400.867,116.046 392.223,120.761 389.866,120.564 400.081,115.064 398.902,114.867 389.08,119.778 387.509,119.385 399.688,113.099 398.902,112.117 "/>
  <polygon fill="#CCCCCC" points="403.224,112.903 403.028,112.117 401.456,113.099 401.652,113.885 "/>
  <polygon fill="#666666" points="353.917,128.815 351.167,128.815 403.617,99.152 405.974,99.3484 405.581,101.313 406.76,101.706 406.956,103.867 401.26,105.831 400.474,107.01 398.902,107.403 384.562,114.867 383.187,114.474 397.724,106.813 395.956,106.617 "/>
  <path fill="#666666" d="M402.045 75.9719c2.48797,3.63402 4.97594,8.08611 7.46476,14.3402l-1.17865 0.785764 -0.785764 1.76797 -4.91103 -9.23273 1.17865 0 1.37509 1.17865 0 -1.96441 -2.94662 -5.69679 -0.196441 -1.17865z"/>
  <path fill="#666666" d="M406.367 96.7947l-17.9745 8.64341 -0.245197 -1.42441 12.5229 -7.02255 -0.392882 -1.37509 -1.17865 0 -9.23273 5.50035 -2.16085 -0.196441 11.9829 -7.26832 0 -1.76797 -2.16085 0 -9.03629 5.89323 -2.16085 -0.196441 12.1793 -7.85764 -0.196441 -1.37509 -1.37509 0 -10.4114 5.69679 -1.57153 -0.392882 11.9829 -6.679 0 -1.57153 -2.35729 0.196441 -10.6078 5.50035 -1.37509 -0.589323 13.1615 -6.679 0 -1.37509 -2.35729 0 -10.2149 5.50035 -2.16085 -0.196441 13.4067 -7.21928 -1.32605 -0.864851 -1.27644 0.275528 -11.3936 5.45131 -1.57153 0 12.2777 -6.48255 -1.66989 -0.589323 -10.0675 4.81295 -2.70114 0.29452 16.1082 -9.23273c4.75767,0.190772 15.1353,20.0908 13.5544,22.5907z"/>
  <path fill="#666666" d="M386.641 78.6702c5.0607,5.34926 8.79421,12.1904 10.3181,21.0784l2.06362 -1.03181c-2.06391,-8.79534 -5.70019,-15.6251 -10.9077,-20.4888l-1.47402 0.442205z"/>
  <polygon fill="#666666" points="386.494,70.4158 366.742,81.3235 369.248,81.4709 380.45,75.4274 381.777,75.28 381.63,76.1644 371.164,81.6183 375.291,81.0287 382.514,76.754 382.956,77.491 384.136,77.3436 384.43,75.5748 386.052,74.9852 388.852,75.1326 390.621,73.5112 387.968,70.5632 386.936,69.0891 "/>
  <polygon fill="#CCCCCC" points="385.228,73.7343 384.951,72.6268 382.736,74.0109 383.013,75.1184 "/>
  <path fill="#666666" d="M378.682 64.0775l-44.8101 25.7953 3.83244 -1.03181 37.1452 -20.3414 2.65323 -0.294803 -0.442205 1.03181 -11.9395 6.63307 2.21102 -0.147402 10.0233 -5.60126 1.17921 0 -0.294803 1.03181 -8.5493 4.71685 1.91622 0 3.83244 -2.06362 2.80063 -0.294803 0.589607 -1.76882 4.71685 -0.88441 -0.147402 -1.76882c-1.72006,0.196441 -2.6538,-1.57238 -2.80063,-5.30646l-1.91622 0.294803z"/>
  <polygon fill="#666666" points="374.702,68.2047 376.913,72.7742 375.439,72.6268 373.08,68.9417 "/>
  <polygon fill="#666666" points="379.566,56.8548 326.354,86.0403 329.449,85.7455 373.228,62.0139 375.144,61.8665 375.144,62.7509 362.173,69.5313 365.563,69.2365 375.439,63.7827 377.06,63.6353 377.208,62.1613 380.598,62.4561 383.546,60.245 381.482,56.56 "/>
  <path fill="#666666" d="M318.689 81.6183l4.12725 -0.589607 47.3159 -25.6479 1.91622 -0.147402 -8.6967 5.45386 1.91622 -0.147402 8.5493 -5.30646 1.17921 0.147402 0 0.737008 -10.6129 5.74866 2.65323 -0.147402 9.1389 -4.86425 1.32661 0.589607 0.737008 -1.17921 2.06362 -1.17921 1.76882 -0.147402 3.68504 -2.35843 -2.50583 -3.24284 -0.294803 -3.09543c8.00873,-7.86133 -2.11295,-23.6823 -14.0032,-21.8154l-1.03181 1.47402 1.32661 0.442205 -1.62142 1.03181 -5.45386 0.589607 1.62142 1.17921 -2.21102 0.737008 -0.294803 1.17921 1.62142 0 7.95969 -4.42205 2.94803 -0.294803 -1.03181 1.17921 -10.0233 5.45386 -0.589607 1.47402 1.76882 -0.737008 10.9077 -5.89607 1.62142 -0.147402 -0.442205 0.88441 -16.3616 9.43371 2.50583 0.147402 14.4454 -7.95969 1.62142 -0.442205 -0.147402 1.47402 -17.0986 9.58111 -0.737008 1.03181 2.06362 0 15.772 -8.6967 2.06362 -0.442205 -0.442205 1.17921 -19.0148 10.6129 -0.737008 1.32661 2.50583 -0.589607 16.0668 -9.1389 2.35843 -0.147402 -0.294803 1.17921 -20.194 11.7921 2.65323 -0.294803 16.509 -9.2863 1.03181 0.147402 0 1.32661 -24.4687 13.8558 -0.147402 0.737008 2.06362 -0.442205 15.1824 -8.40189 0.294803 1.32661 -13.7084 7.22268 -10.6129 6.63307 -0.147402 1.03181 2.65323 -0.88441 10.0233 -6.04347 10.7603 -5.74866 1.03181 0 0.294803 1.17921 -20.3414 11.0551 -34.7868 19.3096z"/>
  <polygon fill="#CCCCCC" points="379.774,53.2454 379.497,52.1379 377.282,53.5221 377.559,54.6296 "/>
  <path fill="#666666" d="M363.647 27.3745c9.2863,-1.37594 15.3298,5.06041 15.4772,15.3298l-2.65323 1.03181c1.01934,-8.72136 -2.44488,-14.7161 -12.8239,-16.3616z"/>
  <path fill="#666666" d="M362.32 30.1751c9.04649,0.303591 12.255,8.8903 12.9713,15.1824l-2.65323 1.03181c1.16674,-6.21553 -1.11827,-12.6524 -10.3181,-16.2142z"/>
  <polygon fill="#666666" points="346.106,63.7827 338.736,68.0573 340.799,67.9099 347.432,63.9301 "/>
  <polygon fill="#666666" points="335.141,69.9684 328.27,73.9534 330.341,73.8159 336.377,70.1059 "/>
  <path fill="white" d="M356.636 132.907l-1.8326 -3.71622 1.79717 -1.55367 6.83944 -3.53764 1.88674 -0.235843 -6.60359 4.00932 2.35843 0.235843 12.2638 -6.60359 3.06595 -0.471685 -17.2165 8.96202 -2.55884 2.91147zm7.27796 4.47024c0.0167244,-1.81531 -0.190488,-3.73578 -2.19515,-4.97509l13.5133 -7.12347 2.35843 -0.471685 -10.8488 6.13191 1.41506 0.471685 12.9713 -7.07528 1.6509 -0.235843 -0.707528 1.41506 -13.2072 6.83944 -0.235843 1.17921 2.59427 -0.707528 25.471 -13.443 4.48101 -0.943371 -34.433 18.3957 -2.82784 0.542268zm8.48807 0.16526l-4.24517 2.59427 0.235843 0.943371 35.1406 -19.1033 1.88674 0 -41.7441 23.5843 1.41506 1.6509 8.01865 -4.24517 2.35843 -0.235843 -9.66955 5.18854 0 1.17921 1.6509 0.235843 9.19786 -5.66022 3.06595 -0.707528 44.1054 -24.6952c3.67795,-0.267024 6.94262,0.360567 9.69761,1.62085 -6.29944,-0.325701 -9.84671,0.212599 -11.1155,1.14095l-54.9513 30.8954 1.6509 0.707528 8.49033 -4.00932 0.235843 1.41506 -10.8488 5.66022 2.35843 -0.235843 7.54696 -3.3018 1.88674 0.471685 -10.1412 4.71685 -0.943371 1.6509 2.12258 -0.235843 8.72618 -4.24517 -0.235843 1.6509 -8.49033 4.48101 -0.471685 1.41506 1.88674 -0.235843 7.31112 -3.53764 0.471685 1.17921 -9.66955 4.9527 1.6509 0.943371 8.01865 -3.77348 2.12258 0.943371 -9.19786 4.71685 0.235843 1.41506 4.9527 -2.12258 2.12258 -0.235843 -3.06595 2.35843 -4.00932 2.12258 3.3018 0 6.36775 -3.53764 3.3018 0 -10.3771 5.89607 0.707528 1.41506 6.60359 -3.06595 2.12258 0 -8.72618 4.9527 0.343276 2.77824c-5.87481,0.160158 -11.6178,-1.77619 -14.6563,-7.23629 -3.4886,-6.26854 -3.90671,-12.757 2.09565,-17.6134l-3.52063 -5.61544 3.65103 -1.88221 -3.17622 -5.09103 3.68362 -2.29181 3.32504 -0.78293 3.3018 -1.41506 1.88674 0.235843zm28.4828 -63.7152l-3.7491 1.46381 3.80325 5.64917 3.3018 2.35843 -0.471685 -2.59427 -2.83011 -4.71685 1.17921 -0.707528 -1.23335 -1.45276zm-22.1885 -49.0601c-5.24325,-2.65691 -12.2304,-2.8372 -19.3017,1.23931l-49.0295 26.3254c-6.49673,5.65569 -8.78032,12.9067 -4.86057,22.5119 2.44091,5.98196 6.37342,7.62548 11.956,7.47411l2.82019 -1.61348 9.19786 -4.9527 -3.3018 0 -5.66022 2.59427 -2.12258 0 1.17921 -1.17921 11.0846 -5.18854 -2.59427 0 -10.1412 4.71685 -2.35843 -0.235843 8.25449 -4.9527 0.235843 -1.6509 -7.54696 4.00932 -1.41506 0 0.707528 -1.41506 11.3204 -6.13191 -3.77348 0.471685 -7.31112 4.24517 -1.88674 -0.471685 2.12258 -1.88674 6.83944 -3.77348 -2.59427 -0.235843 -6.13191 3.06595 -1.6509 -0.707528 8.72618 -4.71685 -0.235843 -0.943371 -1.88674 0 -7.07528 3.53764 -1.17921 -0.707528 10.1412 -5.89607 -2.35843 0 -8.01865 4.24517 -0.471685 -1.41506 8.01865 -4.00932 -4.00932 0.235843 -3.53764 1.6509 -0.943371 -1.41506 7.54696 -2.83011 17.4524 -10.1412 -6.83944 1.88674 -10.8488 6.13191 -3.06595 1.17921 51.6495 -29.0086c3.6703,-1.90091 8.20517,-0.500032 12.8979,-0.0425197zm-58.7415 57.3832l3.09543 5.70076 31.1919 -17.5238 -2.59427 0 -24.7635 13.443 -0.943371 -0.235843 18.3957 -10.6129 -2.35843 0.235843 -15.3298 8.49033 -2.12258 0 16.2731 -9.43371 -2.12258 0 -15.8015 8.96202 -2.92025 0.974268zm8.39112 4.27805l2.50781 4.0646 1.80142 0.549638 0.125291 -1.61206 31.3671 -17.6882 -3.3018 0.707528 -25.7068 14.6222 -1.88674 0.235843 8.01865 -4.9527 -2.59427 0.471685 -6.13191 3.53764 -1.17921 -0.235843 4.9527 -4.00932 -7.97216 4.30895zm15.2833 -0.771307l1.88674 -0.235843 -5.89607 4.48101 2.35843 0.235843 10.6129 -5.89607 2.12258 -0.235843 -11.7921 7.54696 1.41506 0 39.8574 -21.9334 2.83011 0 -45.7535 25.9427 -0.471685 1.6509 1.17921 0 12.9713 -6.83944 0 0.943371 -13.6789 7.78281 2.59427 0.235843 27.3577 -14.6222 2.83011 -0.471685 -30.8954 18.6316 0.943371 0.471685 6.13191 -2.83011 2.83011 0 -9.66955 4.9527 -0.235843 1.41506 1.41506 0.235843 8.01865 -4.00932 1.17921 0.707528 -9.43371 5.66022 1.17921 0.235843 7.78281 -4.00932 3.06595 0.471685 -9.43371 4.48101 -0.707528 1.17921 1.6509 0.235843 9.19786 -4.24517 1.88674 0.707528 -11.7921 5.89607 -0.707528 1.6509 1.41506 0 10.3771 -5.18854 0.235843 1.88674 -8.49033 4.24517 -0.707528 1.17921 1.41506 0.471685 8.96202 -4.48101 0 1.88674 -9.19786 4.48101 -0.235843 1.41506 1.6509 0 9.66955 -4.9527 0.707528 1.17921 -10.1412 5.66022 0.235843 1.6509 10.3771 -5.66022 0.943371 0.943371 -11.5563 7.31112 -2.6538 0.476788c-3.83301,-5.07175 -6.80003,-9.71235 -9.37418,-14.1557l-1.41506 0.235843 -13.443 5.89607 -0.235843 -1.6509 14.1506 -5.66022 -0.471685 -1.41506 -2.12258 0.707528 -11.7921 4.9527 -1.6509 -0.235843 -1.10268 -1.26454 16.2261 -7.38142 -0.858048 -3.19068 2.38536 -1.18658 -3.35679 -6.41084 1.67443 -0.645166c2.09395,-3.09884 0.209764,-5.66334 -2.5234,-6.25578l8.07336 -5.26791zm-27.0726 27.04l-1.92132 -1.16277 0.477071 5.32942c-9.08164,0.105165 -17.2582,4.50681 -22.4232,10.9485l0.705544 3.83414c3.9892,-7.05515 10.7892,-11.8114 21.6975,-13.2072l0 1.6509c-8.64794,0.943371 -15.0945,4.71685 -19.3391,11.3204l2.59427 -0.471685c3.93052,-4.79509 9.7475,-8.01808 17.4524,-9.66955l-0.235843 1.17921c-5.97515,2.12258 -11.0064,5.18854 -15.0939,9.19786l2.59427 -0.943371c4.16665,-2.90863 8.64737,-5.5029 13.443,-7.78281l0.707528 0.235843 5.42438 10.1412 3.53764 2.35843 -0.471685 -4.24517c-4.93172,-6.23707 -6.70224,-12.475 -9.14854,-18.7135zm-29.7899 14.0468l-1.52022 -0.735024 -0.181134 7.84772 -33.1263 16.5268 2.06986 0.602079 31.8388 -15.0939 1.88674 0.235843 -29.4803 15.3298 0.235843 1.41506 2.35843 -0.471685 25.471 -14.1506 1.41506 0.471685 6.83944 12.2638 1.6509 -0.235843 4.00932 3.3018c-8.05663,-12.6703 -12.3299,-21.5561 -13.4674,-27.3076zm-150.915 85.7965l85.1392 -42.9234 -2.556 -2.5183 -83.016 41.4173c-12.2774,5.23843 -20.467,15.6331 -12.5901,30.5399 0.905386,1.71326 1.93493,3.21817 3.06652,4.52098l-0.892347 -7.45229c-4.23184,-8.90079 -3.48577,-16.3347 10.8488,-23.5843"/>
  <path fill="#F00000" d="M237.231 530.34l33.7224 0c-2.83748,18.4436 -2.3709,40.5978 -17.0249,40.5978 -14.654,0 -14.1874,-26.7378 -16.6975,-40.5978z"/>
  <path fill="#DC0000" d="M237.231 530.34l33.7224 0c-2.83748,18.4436 -2.3709,40.5978 -17.0249,40.5978 -5.20895,0 -8.50734,-3.37862 -10.7082,-8.35654 16.7774,16.3069 24.7153,-5.36457 21.8492,-26.7083 -2.80233,-0.672095 -6.36237,-0.502016 -9.06067,1.5857 -2.87235,2.22236 -1.26907,15.1923 -1.4125,24.753 -0.486142,-0.422646 -3.55125,-24.5591 -3.43588,-24.0489 -0.435402,-2.99169 -8.72845,-1.39947 -13.0924,-2.09906 -2.04605,-0.327969 -0.523559,-3.99147 -0.837071,-5.72372z"/>
  <path fill="black" d="M254.288 532.519c-21.2414,-0.614551 -27.5607,-1.86378 -26.5777,-9.46234l-14.3419 -4.89033c-21.6278,13.3503 -37.8581,14.1602 -50.1194,2.90636 15.2864,-1.82041 22.2378,-7.76892 23.7115,-20.2263 -19.5815,13.8787 -37.6503,7.43471 -42.304,-5.51877 17.0637,3.83499 24.9205,-1.85386 26.4283,-17.0668 -11.5347,11.4267 -31.6412,9.5196 -41.747,-10.0077 13.2188,3.8897 26.9328,2.04321 29.3548,-17.4062l-3.17651 -68.8369c-2.30542,-15.3641 -34.9798,-38.1901 -19.2351,-62.0805 5.20583,-7.89959 21.2942,-11.0169 42.4474,2.2578l14.9763 -1.34391c14.0556,-9.90114 51.8122,-25.9512 60.4823,-26.0079 6.76517,0.0566929 42.8596,15.1543 56.9152,25.0554l16.405 0.867685c21.1533,-13.2747 35.5572,-12.0458 41.1973,-0.0949607 13.0759,27.707 -17.5844,45.9822 -19.8899,61.3463l-2.5217 68.6186c2.42192,19.4494 15.0446,20.8593 28.2634,16.9696 -7.26832,18.2177 -29.2995,20.6606 -40.8342,9.23386 1.50775,15.213 12.6981,22.3305 29.7618,18.4955 -4.65364,12.9535 -23.675,19.8737 -43.2564,5.995 1.47373,12.4574 8.42514,16.9773 23.7115,18.7977 -12.2613,11.2538 -28.9678,9.96775 -46.7859,-1.95392l-18.1517 5.36655c0.983056,7.59856 -3.47216,8.37156 -24.7136,8.98611z"/>
  <path fill="white" d="M293.021 419.351l19.4477 -9.62561c4.25622,14.3402 -12.3103,21.6085 -19.4477,9.62561z"/>
  <path fill="black" d="M299.7 417.976l-2.35729 1.57153c8.57793,9.75657 15.1914,-0.720284 11.0007,-6.679l-4.51814 2.55373c1.70249,3.3395 -0.916725,6.48255 -4.12526,2.55373z"/>
  <path fill="white" d="M212.519 420.137l-18.8583 -7.26832c-2.76208,14.0411 12.0606,20.2045 18.8583,7.26832z"/>
  <path fill="black" d="M198.85 416.695l-2.02025 0.00311811c-0.0609449,12.1697 10.4658,8.45887 11.2859,2.50384l-4.68142 -0.89263c-0.943654,3.6275 -5.18542,4.04334 -4.58419,-1.61433z"/>
  <path fill="#CCCCCC" d="M204.426 428.584c4.91159,-1.57124 8.51358,-3.79786 9.23273,-7.46476l1.76797 0.785764c-1.57153,3.99402 -5.43487,7.00611 -11.0007,6.679z"/>
  <path fill="#CCCCCC" d="M308.898 426.03c-6.68041,1.67017 -15.1937,0.0980788 -16.3046,-4.91103l-2.35729 0c1.57238,5.959 10.0848,8.90618 18.6619,4.91103z"/>
  <polygon fill="#CCCCCC" points="185.885,324.046 188.011,323.719 186.375,325.518 181.796,328.299 179.67,327.808 "/>
  <path fill="#CCCCCC" d="M197.334 321.429l-9.64999 8.83219c-2.33036,-2.79298 8.24089,-9.16895 9.64999,-8.83219z"/>
  <path fill="#CCCCCC" d="M204.694 319.467l-9.48643 9.32287c-0.721701,-4.69418 7.96139,-9.47396 9.48643,-9.32287z"/>
  <path fill="#CCCCCC" d="M215.816 313.251l-13.9025 13.739 2.41824 -3.93506c-2.39896,-2.23965 8.35257,-8.46171 11.4843,-9.80391z"/>
  <path fill="#CCCCCC" d="M191.119 330.752l0.981355 0.654237c-2.8304,1.77902 -4.53402,3.87298 -7.85084,3.10762l6.86948 -3.76186z"/>
  <path fill="#CCCCCC" d="M201.096 327.972c-0.399969,4.40164 -8.60826,7.26435 -12.2669,8.83219l12.2669 -8.83219z"/>
  <path fill="#CCCCCC" d="M210.255 326.336c-4.27635,3.89622 -6.61918,6.47603 -12.1034,8.17796 6.22602,-4.91783 11.7207,-9.10432 12.1034,-8.17796z"/>
  <path fill="#CCCCCC" d="M229.228 306.546c-4.23071,1.75408 -8.42344,3.24822 -13.2483,9.15931l0 1.30847 -2.94406 3.76186 7.95374 -6.2932c1.68803,-3.49087 5.25714,-5.5012 8.23862,-7.93644z"/>
  <path fill="#CCCCCC" d="M207.311 331.079c5.28775,-3.71084 9.83764,-7.05714 14.3932,-11.6127 -3.81827,-0.381827 -11.4112,8.85997 -14.3932,11.6127z"/>
  <path fill="#CCCCCC" d="M214.181 328.299l-3.76186 3.76186c0.973701,-0.0802205 6.42501,-1.81417 3.76186,-3.76186z"/>
  <path fill="#CCCCCC" d="M217.942 325.191c4.25225,-1.08822 9.37758,-7.41487 14.0661,-11.122 -4.39739,1.66989 -9.08589,5.37704 -14.0661,11.122z"/>
  <path fill="#CCCCCC" d="M243.185 300.166l-16.7377 12.4311 -3.27118 1.79915c9.11367,-8.84693 17.1431,-13.0133 20.0089,-14.2302z"/>
  <path fill="#CCCCCC" d="M214.835 333.86l11.2856 -7.1966c-3.08863,-0.561544 -11.2856,3.90274 -11.2856,7.1966z"/>
  <path fill="#CCCCCC" d="M241.004 311.125c-4.90677,3.87071 -10.2501,5.99556 -14.7203,11.6127 1.73991,-3.70177 7.68983,-9.09071 14.7203,-11.6127z"/>
  <path fill="#CCCCCC" d="M222.031 333.206l0.327118 0.981355c2.91969,-1.04258 5.21773,-3.17707 8.34152,-3.5983l-0.490677 -1.14491c-2.39839,0.270992 -5.19676,1.74331 -8.17796,3.76186z"/>
  <path fill="#CCCCCC" d="M230.536 334.351l8.0144 -2.12627c-2.44205,-1.99786 -6.24218,-0.615118 -8.0144,2.12627z"/>
  <path fill="#CCCCCC" d="M242.313 333.86c-2.23143,2.67789 -3.89792,2.22095 -7.36016,2.61695 2.33405,-1.69739 4.54592,-1.95506 7.36016,-2.61695z"/>
  <path fill="#CCCCCC" d="M236.261 340.893l12.5941 -2.45339c-4.02066,-0.873922 -9.80504,-1.38161 -12.5941,2.45339z"/>
  <path fill="#CCCCCC" d="M253.108 346.127l-7.52372 0.163559c1.50406,-0.845859 4.97991,-2.76491 7.52372,-0.163559z"/>
  <path fill="#CCCCCC" d="M250.654 343.183l-8.39622 -0.163559c2.10898,-1.62907 7.83893,-2.41909 8.39622,0.163559z"/>
  <path fill="#CCCCCC" d="M251.145 349.889l2.94406 2.28983 1.47203 0c-1.08737,-2.17474 -1.7263,-2.33518 -3.92542,-3.43474l-0.490677 1.14491z"/>
  <path fill="#CCCCCC" d="M250.491 298.04l-19.7907 14.0661c1.70504,-3.49427 12.3542,-11.6167 19.7907,-14.0661z"/>
  <path fill="#CCCCCC" d="M249.673 300.33l-9.32287 7.52372c0.113953,-3.33695 5.51991,-5.34983 8.0144,-7.52372l1.30847 0z"/>
  <polygon fill="#CCCCCC" points="245.42,313.088 242.64,315.378 242.476,316.85 244.112,316.686 246.892,313.088 "/>
  <path fill="#CCCCCC" d="M253.271 300.657l-7.03304 6.05169 -1.30847 0c0.595843,-1.36176 4.50425,-5.69396 8.34152,-6.05169z"/>
  <polygon fill="#CCCCCC" points="262.758,303.438 265.538,304.583 265.375,303.765 255.725,298.368 251.145,297.877 253.435,300.003 257.033,300.33 255.234,301.148 254.907,302.62 257.851,302.784 259.814,302.129 "/>
  <path fill="#E5E5E5" d="M256.542 307.854l9.97711 5.88813c-2.58435,-4.36592 -10.5239,-6.71868 -9.97711,-5.88813z"/>
  <path fill="#CCCCCC" d="M266.356 309.98l5.72457 3.10762c-1.92473,-3.7423 -7.79131,-4.65052 -5.72457,-3.10762z"/>
  <path fill="#CCCCCC" d="M264.939 301.912l7.52372 4.90677c-1.90857,-2.44658 -4.37046,-4.90677 -7.52372,-4.90677z"/>
  <path fill="#CCCCCC" d="M279.931 310.307l-5.88813 -4.90677c0.0450709,-0.563528 8.97846,3.49795 5.88813,4.90677z"/>
  <path fill="#CCCCCC" d="M278.623 314.887c1.74359,2.9452 6.97947,4.14454 8.50508,4.25254 -2.28529,-1.33285 -4.33247,-4.48441 -8.50508,-4.25254z"/>
  <path fill="#CCCCCC" d="M257.36 348.58l-0.163559 1.30847 -1.30847 -0.163559 -0.163559 -1.30847c4.71572,-4.71572 5.46577,-7.0835 12.1034,-6.86948l-1.79915 1.14491c-4.09436,0.481607 -5.69339,3.07786 -8.66863,5.88813z"/>
  <polygon fill="#CCCCCC" points="268.973,337.295 262.103,337.949 262.103,339.421 268.319,338.276 "/>
  <path fill="#CCCCCC" d="M275.842 333.696l-9.48643 0.327118c1.4349,-2.30173 8.3829,-2.53332 9.48643,-0.327118z"/>
  <path fill="#CCCCCC" d="M272.735 328.953l8.83219 0.981355c-5.21433,-2.78958 -6.11518,-1.95619 -8.83219,-0.981355z"/>
  <path fill="#CCCCCC" d="M280.258 324.701c0.956977,2.87121 6.63279,2.14214 9.48643,2.45339 -2.79099,-1.95647 -5.94114,-1.74643 -9.48643,-2.45339z"/>
  <path fill="#CCCCCC" d="M283.203 308.999l8.34152 5.88813c-1.86491,-1.74047 -6.32495,-7.9047 -8.34152,-5.88813z"/>
  <path fill="#CCCCCC" d="M288.273 317.668l5.56101 3.10762c-1.2977,2.34425 -5.76596,-1.74302 -5.56101,-3.10762z"/>
  <path fill="#CCCCCC" d="M290.236 325.846c4.1624,0 8.99519,2.16 11.4491,4.08898l-2.94406 -0.327118c-1.91792,-2.30202 -6.19852,-1.45843 -8.50508,-3.76186z"/>
  <path fill="#CCCCCC" d="M293.507 314.396l5.88813 4.25254c-1.86406,-2.0075 -3.07588,-4.81493 -5.88813,-4.25254z"/>
  <path fill="#CCCCCC" d="M298.577 324.864l6.54237 2.94406c-0.0895748,-1.53298 -3.14646,-4.31377 -6.54237,-2.94406z"/>
  <path fill="#CCCCCC" d="M301.194 318.322l8.0144 6.21525c-1.92076,-4.23723 -8.56687,-7.60394 -8.0144,-6.21525z"/>
  <polygon fill="#CCCCCC" points="302.339,328.299 302.83,330.262 305.774,331.407 307.736,331.57 "/>
  <path fill="#CCCCCC" d="M308.881 322.084c3.1612,1.92756 5.68035,3.89679 9.32287,4.57966 -3.86759,-2.4429 -5.97374,-4.59355 -9.32287,-4.57966z"/>
  <path fill="#CCCCCC" d="M316.078 323.229l6.86948 2.78051c-0.310394,-2.08857 -3.90983,-2.87405 -6.86948,-2.78051z"/>
  <polygon fill="#CCCCCC" points="323.438,323.392 325.237,324.537 328.999,324.373 325.074,322.901 "/>
  <polygon fill="#CCCCCC" points="273.389,314.233 273.88,316.032 275.352,316.196 274.697,314.069 "/>
  <path fill="#CCCCCC" d="M346.991 366.735c-1.30847,-1.6903 -1.79915,-8.61421 -2.94406,-13.4118 2.41143,2.79241 3.14703,6.68863 2.94406,13.4118z"/>
  <path fill="#CCCCCC" d="M344.21 364.282c-0.681733,-4.52551 -2.37203,-6.48822 -3.10762,-15.3746 2.71871,6.28243 3.38627,11.9248 3.10762,15.3746z"/>
  <path fill="#CCCCCC" d="M340.285 355.45c-1.30847,-4.14369 -3.27118,-10.0862 -2.94406,-11.9398 2.12627,2.99849 3.10762,8.45037 2.94406,11.9398z"/>
  <path fill="#CCCCCC" d="M337.013 350.707c-1.30847,-4.14369 -3.5983,-9.59556 -3.27118,-11.4491 2.12627,2.99849 3.43474,7.95969 3.27118,11.4491z"/>
  <path fill="#CCCCCC" d="M333.906 346.127l-0.327118 2.94406c-1.88901,-5.4 -4.45975,-9.27695 -4.69077,-12.7777 -0.394866,-5.97912 5.08451,-10.7918 9.59755,-12.4104l0.163559 -2.28983c7.24054,-4.392 11.3406,-1.45531 15.8652,0.490677 -3.10791,-0.109134 -8.28766,-1.74444 -9.15931,0l5.23389 1.47203 -6.05169 0c-3.65301,0.436252 -5.34303,2.34454 -8.17796,3.76186 -2.0211,-0.00396851 -2.89162,1.52447 -3.5983,3.27118 1.19934,-1.41732 2.18069,-1.96214 2.94406,-1.63559 -9.92268,8.34152 -1.52674,12.5941 -1.79915,17.1737z"/>
  <path fill="#CCCCCC" d="M328.345 334.023l-1.79915 0.981355c0.722552,3.32447 0.843308,6.65037 3.27118,8.99575 0.10885,-0.654237 0.217984,-1.30847 0.327118,-1.96271 -1.33654,-2.42646 -1.7725,-5.15225 -1.79915,-8.0144z"/>
  <path fill="#CCCCCC" d="M328.999 332.061l-1.63559 0.163559c-0.334772,-1.14151 2.01232,-3.43247 4.74321,-5.88813l1.14491 0.163559c-1.85386,1.63587 -3.27175,3.48973 -4.25254,5.56101z"/>
  <path fill="#CCCCCC" d="M349.935 317.177l0.327118 1.79915c1.6217,0.422362 3.81458,0.715465 4.77326,2.45452 0.673796,1.22173 2.75046,-0.573449 5.3674,5.55988l0.817796 -0.163559 0.654237 5.88813 1.63559 2.45339c-0.380977,-4.0921 -0.817229,-7.91122 -1.63559,-9.81355l-1.47203 -0.654237 -1.14491 -3.43474 -9.32287 -4.08898z"/>
  <polygon fill="#CCCCCC" points="326.546,376.385 326.709,378.839 325.237,379.82 325.401,377.203 "/>
  <path fill="#CCCCCC" d="M323.929 387.017c0.326835,-1.7725 1.47203,-4.66186 3.43474,-7.52372 0.736725,3.32561 -1.66195,4.90621 -3.43474,7.52372z"/>
  <path fill="#CCCCCC" d="M321.312 392.087c1.96243,-2.75386 5.39745,-4.4983 6.70592,-8.83219 0.736725,3.32561 -3.29754,7.52315 -6.70592,8.83219z"/>
  <path fill="#CCCCCC" d="M318.858 396.503c1.96243,-2.75386 6.86948,-5.15254 9.81355,-8.83219 0.736725,3.32561 -6.40517,7.52315 -9.81355,8.83219z"/>
  <path fill="#CCCCCC" d="M311.171 400.428c1.96243,-2.75386 4.90677,-4.17118 8.34152,-7.52372 -1.47232,4.30696 -6.65122,6.97805 -8.34152,7.52372z"/>
  <path fill="#CCCCCC" d="M301.358 403.536c1.96243,-2.75386 10.7949,-5.80677 14.2296,-9.15931 -0.966048,2.82643 -8.74489,7.14926 -12.877,10.1517l-1.35269 -0.99241z"/>
  <path fill="#CCCCCC" d="M294.652 407.298c2.28954,-2.42674 6.37881,-5.3161 11.7763,-7.85084 -5.38214,2.82643 -6.45506,5.18655 -10.5871,8.18901l-1.18913 -0.338173z"/>
  <path fill="#CCCCCC" d="M286.801 411.06c2.28954,-2.42674 7.03304,-5.80677 11.7763,-7.85084 -3.58299,2.33575 -6.78218,5.67723 -11.0778,9.17037l-0.698457 -1.31953z"/>
  <path fill="#CCCCCC" d="M280.749 413.677c2.28954,-2.42674 6.70592,-5.80677 11.4491,-7.85084 -3.58299,2.33575 -6.61862,5.18655 -10.7507,9.17037l-0.698457 -1.31953z"/>
  <path fill="#CCCCCC" d="M333.088 395.205c-2.28954,2.42674 -8.66863,8.75084 -11.9398,8.50508 3.58299,-2.33575 7.10929,-5.84079 11.2414,-9.8246l0.698457 1.31953z"/>
  <path fill="#CCCCCC" d="M324.583 399.131c-2.12599,2.91742 -11.2856,8.42372 -14.5568,7.68728 4.40079,-2.17219 9.72624,-5.02299 13.8583,-9.00681l0.698457 1.31953z"/>
  <path fill="#CCCCCC" d="M298.25 413.907c1.59364,-3.18444 11.2714,-9.73956 14.8839,-8.83219 -4.40079,2.17219 -8.25421,4.36876 -12.3863,8.35257l-2.49761 0.479622z"/>
  <path fill="#CCCCCC" d="M290.726 417.505c1.59364,-3.18444 8.4909,-8.10397 12.1034,-7.1966 -4.07367,1.35439 -7.76353,3.87808 -9.27865,6.71698l-2.82473 0.479622z"/>
  <path fill="#CCCCCC" d="M283.856 419.959c1.59364,-3.18444 8.4909,-8.10397 12.1034,-7.1966 -4.07367,1.35439 -7.92709,4.69588 -9.44221,7.53478l-2.66117 -0.338173z"/>
  <polygon fill="#CCCCCC" points="276.497,410.733 279.114,413.186 281.076,413.186 277.641,410.242 "/>
  <polygon fill="#CCCCCC" points="180.809,324.514 178.845,326.478 177.099,326.478 178.626,324.514 "/>
  <polygon fill="#CCCCCC" points="175.352,323.422 175.352,325.387 176.88,324.077 177.317,324.077 "/>
  <path fill="#CCCCCC" d="M152.871 320.803c-5.8201,3.492 -7.42054,7.56596 -9.38552,13.5326l-1.74614 -0.436536c1.89184,-3.71055 2.4738,-10.6951 11.1317,-13.0961z"/>
  <path fill="#CCCCCC" d="M146.759 329.752c7.54895,-6.45761 14.7155,-7.29411 23.5729,-0.873071l2.40095 -0.218268c-11.9319,-8.27547 -20.444,-7.51181 -25.9739,1.09134z"/>
  <path fill="#CCCCCC" d="M172.297 332.371c-4.90366,-4.62926 -11.0194,-6.87941 -16.3701,-5.89323l0.218268 1.96441c3.20088,-1.52787 9.4578,0.436536 16.1518,3.92882z"/>
  <path fill="#CCCCCC" d="M171.86 349.396l5.89323 -10.9134 1.74614 0 -0.436536 -1.96441c-1.74529,-2.18381 -4.0011,-3.85654 -6.32977,-5.4567l0.218268 2.61921 3.05575 2.40095 -0.436536 1.96441 -2.40095 5.23843 0 1.09134 -1.30961 5.02016z"/>
  <path fill="#CCCCCC" d="M172.951 330.407c2.40095,1.89156 4.80189,4.07452 7.20284,6.54803l-0.218268 -2.61921c-2.32781,-2.54636 -4.65591,-3.20117 -6.98457,-3.92882z"/>
  <path fill="#CCCCCC" d="M162.693 330.843c5.6024,-0.800221 12.2958,3.63799 11.5682,7.63937 -2.76435,-3.63742 -7.05685,-6.3292 -11.5682,-7.63937z"/>
  <polygon fill="#CCCCCC" points="173.17,339.356 172.297,339.465 172.951,341.32 "/>
  <path fill="#CCCCCC" d="M165.312 359c1.67102,-0.713764 3.48888,-2.5954 6.32977,-12.6595l-0.436536 -5.4567 -2.40095 0.654803c0.872788,5.82095 -0.291685,11.6413 -3.49229,17.4614z"/>
  <path fill="#CCCCCC" d="M165.094 345.904l2.61921 2.18268c0.654803,3.6377 -2.83748,9.23982 -5.23843,16.1518l-1.30961 0c3.16517,-5.80252 4.25622,-11.9503 3.92882,-18.3345z"/>
  <path fill="#CCCCCC" d="M162.475 352.888c0.291118,4.29336 -1.01877,7.78564 -3.05575,10.9134 0.145417,-3.20117 0.290835,-7.05714 3.05575,-10.9134z"/>
  <polygon fill="#CCCCCC" points="171.424,336.3 169.677,336.518 170.987,340.229 "/>
  <path fill="#CCCCCC" d="M177.972 387.811l-1.74614 -11.7865c-1.45332,2.98262 -0.287717,8.22104 1.74614,11.7865z"/>
  <path fill="#CCCCCC" d="M185.174 397.633c-3.41943,-5.09273 -9.67635,-7.12999 -10.2586,-15.2787l-1.74614 0.436536c1.31074,7.56681 5.45925,12.5147 12.0047,14.8422z"/>
  <path fill="#CCCCCC" d="M198.271 403.308c-5.16614,-3.456 -9.96832,-7.09399 -13.9691,-11.1317l-1.96441 0c2.63594,4.27323 8.0555,8.0195 15.9336,11.1317z"/>
  <path fill="#CCCCCC" d="M207.438 405.491c-5.16614,-3.456 -9.96832,-6.22092 -13.9691,-10.2586l-2.62148 -1.54432 -1.30734 1.76258c2.63594,4.27323 10.0199,6.92816 17.898,10.0403z"/>
  <path fill="#CCCCCC" d="M201.108 400.034c2.61893,2.68271 8.36646,4.8104 9.16725,7.63937l1.74614 0 -1.09134 -1.74614 6.32977 4.14709 1.30961 -0.218268c-5.82066,-3.27402 -10.1132,-9.60378 -17.4614,-9.82205z"/>
  <path fill="#CCCCCC" d="M211.803 402.435l-0.436536 0.873071 15.0605 9.82205 0.654803 -1.30961 1.09134 1.09134 1.96441 -0.436536 -6.32977 -5.23843c-3.41972,0.145417 -5.74781,-4.07452 -12.0047,-4.80189z"/>
  <path fill="#CCCCCC" d="M244.762 407.237l-1.96441 2.18268c-2.2955,-0.323433 -6.8967,2.31336 -11.5682,4.36536l-3.27402 -0.218268 2.61921 -1.30961 -1.09134 -1.96441 -3.27402 -2.83748 3.71055 1.52787 1.96441 0.218268 0.218268 0.654803 8.29418 -2.61921 -4.14709 0.436536 1.52787 -1.52787 -1.30961 -0.654803 2.40095 -0.218268 1.09134 -1.30961 1.30961 0 0 1.30961c5.07629,-1.88958 9.01021,-0.505418 13.7509,-0.873071l-8.45008 1.35326 8.92375 0.728504 -10.7323 0.755717z"/>
  <polygon fill="#CCCCCC" points="229.046,406.364 235.813,405.709 234.285,406.8 234.285,408.547 231.884,408.328 "/>
  <path fill="#CCCCCC" d="M264.406 407.019c-7.13027,-2.98318 -13.8237,-7.93049 -20.0806,-3.71055 10.8405,-0.945922 11.2042,2.03698 20.0806,3.71055z"/>
  <path fill="#CCCCCC" d="M270.299 410.075c-3.52148,-3.43673 -9.63695,-4.95525 -11.7865,-7.85764 8.94898,2.61921 8.07591,4.58362 11.7865,7.85764z"/>
  <path fill="#CCCCCC" d="M278.375 415.313c-2.67732,-3.82536 -9.01531,-6.24331 -11.3499,-10.2586 9.82205,5.4567 10.2586,8.07591 11.3499,10.2586z"/>
  <path fill="#CCCCCC" d="M205.692 414.222c-12.9507,-7.42111 -19.3533,-8.73071 -29.0296,-13.0961l0.687685 2.15632c9.59273,3.64649 17.8759,7.94778 28.3419,10.9398z"/>
  <path fill="#CCCCCC" d="M196.306 406.8l0 1.96441c7.78479,4.58362 10.986,3.92882 23.3547,13.7509l0.873071 -0.654803c-5.29512,-4.13575 -8.75311,-9.60634 -12.7548,-10.1435 -3.57931,-0.480756 -6.20731,-3.02088 -11.473,-4.91698z"/>
  <path fill="#CCCCCC" d="M214.204 414.876l2.18268 0.218268 5.02016 4.80189 -2.18268 -4.80189c4.01669,-0.281197 7.24592,10.7966 3.27402,11.5682l-0.436536 8.94898 -1.52787 2.18268c-0.873071,-6.03893 0,-11.2045 0,-16.8066l-6.32977 -6.1115z"/>
  <path fill="#CCCCCC" d="M225.991 422.952c-0.947906,-1.96498 -1.38359,-3.9291 -1.74614,-5.89323l1.52787 0.218268c1.16787,1.89156 0.802489,3.78284 0.218268,5.67496z"/>
  <path fill="#CCCCCC" d="M227.476 427.985c-0.153071,-2.17616 0.169228,-5.6897 0.559559,-7.64844l1.77477 -0.104598c0.384662,2.18948 -1.09106,6.21185 -2.33433,7.75304z"/>
  <path fill="#CCCCCC" d="M223.59 451.327c-2.29153,-8.44016 -1.27304,-16.7343 1.30961,-24.0095l1.09134 -0.218268c-2.54636,9.16725 -0.945638,17.4614 -2.40095,24.2277z"/>
  <path fill="#CCCCCC" d="M223.808 469.225c-0.981355,-10.5143 0.109984,-16.844 2.18268,-23.3547l1.09134 -0.218268c-2.54636,9.16725 -1.81871,16.8066 -3.27402,23.5729z"/>
  <path fill="#CCCCCC" d="M225.336 479.92c-0.981355,-10.5143 1.85613,-13.7883 2.40095,-23.3547l1.74614 -0.436536c-1.23676,11.1317 -2.69178,17.0249 -4.14709,23.7912z"/>
  <path fill="#CCCCCC" d="M227.082 495.199c-0.981355,-10.5143 -0.981355,-15.7527 1.74614,-24.2277l2.18268 -0.218268c-1.96668,6.38334 -2.6932,15.4851 -3.92882,24.446z"/>
  <path fill="#CCCCCC" d="M228.828 503.493c-0.326551,-4.18451 -0.326551,-9.42293 1.52787,-17.2432l1.30961 -1.52787c-1.23676,11.1317 -1.38217,12.0047 -2.83748,18.771z"/>
  <path fill="#CCCCCC" d="M225.991 443.469c0.291118,-5.02016 1.89184,-11.7865 4.80189,-16.3701l1.52787 0c-4.58362,6.32977 -3.92882,10.9134 -6.32977,16.3701z"/>
  <path fill="#CCCCCC" d="M227.737 456.566c0.291118,-5.02016 1.89184,-11.7865 4.80189,-16.3701l1.52787 0c-4.58362,6.32977 -3.92882,10.9134 -6.32977,16.3701z"/>
  <path fill="#CCCCCC" d="M230.138 470.098c0.455244,-4.36592 0.637796,-9.53178 4.14709,-14.1874l1.52787 0c-3.31002,4.62019 -4.18281,10.5854 -5.67496,14.1874z"/>
  <path fill="#CCCCCC" d="M230.138 460.713c0.843024,-5.1171 1.50888,-8.8818 3.92882,-13.3143l1.74614 0c-2.87348,3.96539 -3.96454,10.1489 -5.67496,13.3143z"/>
  <path fill="#CCCCCC" d="M228.173 446.089c0.713197,-4.32992 0.621922,-7.5155 2.66967,-11.266l1.47742 0c-2.43128,3.35537 -2.69972,8.58756 -4.14709,11.266z"/>
  <path fill="#CCCCCC" d="M231.884 479.702c-0.0170079,-3.23433 -0.470835,-6.63988 1.36006,-9.95641l1.47742 0c-1.55821,2.91884 -2.26318,7.49622 -2.83748,9.95641z"/>
  <path fill="#CCCCCC" d="M233.193 486.687c-0.0170079,-3.23433 -0.470835,-6.63988 1.36006,-9.95641l1.47742 0c-1.55821,2.91884 -2.26318,7.49622 -2.83748,9.95641z"/>
  <path fill="#CCCCCC" d="M232.32 497.163c-0.0170079,-3.23433 0.183969,-8.16775 2.01487,-11.4843l1.47742 0c-1.55821,2.91884 -2.91799,9.0241 -3.49229,11.4843z"/>
  <path fill="#CCCCCC" d="M233.848 505.239c-0.0170079,-3.23433 -0.0342992,-8.16775 1.7966,-11.4843l1.91395 -2.18268c-1.55821,2.91884 -3.13625,11.2068 -3.71055,13.667z"/>
  <polygon fill="#CCCCCC" points="232.539,499.346 229.919,500.874 230.356,520.3 231.884,519.863 "/>
  <path fill="#CCCCCC" d="M232.757 525.975c0.954709,-2.67364 1.92728,-10.2181 2.25496,-10.6121 0.742961,-0.893197 0.909922,-9.48246 2.98347,-14.9253 -1.21805,2.92564 -2.08035,4.11307 -2.59965,6.47065 -1.91112,8.67572 -3.32816,-2.30202 -2.63877,19.0667z"/>
  <path fill="#CCCCCC" d="M232.102 527.284l-1.74614 -6.1115c-0.58252,2.61893 -0.000283465,4.65591 1.74614,6.1115z"/>
  <path fill="#CCCCCC" d="M239.741 509.823c-2.49421,2.03925 -1.64381,5.4326 -2.68073,6.33685 -1.97632,1.72403 -1.92331,8.39509 -2.77597,11.3428l2.40095 0.436536c0.581953,-6.91172 3.12832,-12.5138 3.05575,-18.1162z"/>
  <path fill="#CCCCCC" d="M241.051 520.518c-1.01877,2.83748 -0.945922,6.1115 -0.436536,9.16725l-1.74614 -0.436536c-0.364536,-1.67244 -0.655937,-3.41773 -0.436536,-5.67496l2.61921 -3.05575z"/>
  <path fill="#CCCCCC" stroke="white" stroke-width="0.216" d="M243.452 524.229l-1.74614 1.09134c-0.0737008,2.1121 0.363402,3.20258 0.873071,4.14709l1.52787 0.218268c-1.14973,-1.81928 -0.74693,-3.63827 -0.654803,-5.4567z"/>
  <polygon fill="#CCCCCC" points="245.635,525.975 246.944,527.503 246.508,530.777 245.069,528.538 "/>
  <polygon fill="#CCCCCC" points="248.472,526.193 249.782,527.721 249.345,530.995 247.906,528.756 "/>
  <polygon fill="#CCCCCC" points="250.873,526.193 251.964,527.939 251.746,530.995 250.307,528.756 "/>
  <polygon fill="#CCCCCC" points="253.711,527.066 254.802,528.812 254.584,530.34 253.145,529.221 "/>
  <polygon fill="#CCCCCC" points="257.421,527.939 258.512,528.87 258.294,529.685 256.855,529.088 "/>
  <polygon fill="#CCCCCC" points="262.223,527.939 263.314,528.87 263.096,529.685 261.657,529.088 "/>
  <polygon fill="#CCCCCC" points="266.023,524.665 264.931,526.411 265.149,529.467 266.588,527.228 "/>
  <polygon fill="#CCCCCC" points="270.824,523.137 270.17,524.883 270.17,527.939 271.39,525.7 "/>
  <polygon fill="#CCCCCC" points="268.86,524.447 268.205,526.193 268.205,529.249 269.426,527.01 "/>
  <path fill="#CCCCCC" d="M271.97 519.863c1.01877,2.83748 0.727654,3.92882 0.218268,6.98457l1.09134 0.436536c0.364536,-1.67244 0.655937,-2.9812 0.436536,-5.23843l-1.74614 -2.18268z"/>
  <path fill="#CCCCCC" d="M275.101 526.848l-0.873071 -8.94898c2.18239,2.40066 2.03669,6.47462 0.873071,8.94898z"/>
  <path fill="#CCCCCC" d="M286.451 412.912l-4.80189 4.58362c2.4738,8.80328 1.67358,14.9876 2.83748,21.8268 1.60073,-5.38441 1.16419,-12.5144 -1.30961,-21.3902l5.02016 -4.58362 -1.74614 -0.436536z"/>
  <path fill="#CCCCCC" d="M283.333 443.469c0.0170079,-3.23433 0.689103,-10.5687 -1.1418,-13.8852l-1.25915 -1.96441c0.903402,2.91827 1.31698,13.3892 2.40095,15.8496z"/>
  <path fill="#CCCCCC" d="M282.46 458.312c0.599244,-2.36126 1.48932,-12.7517 -0.923528,-16.941l-1.25915 -1.96441c1.2308,3.50022 1.35298,17.0266 2.18268,18.9054z"/>
  <path fill="#CCCCCC" d="M281.151 465.951c0.599244,-2.36126 1.27106,-10.1324 -1.1418,-14.3218l-1.25915 -1.96441c1.2308,3.50022 1.57124,14.4074 2.40095,16.2862z"/>
  <path fill="#CCCCCC" d="M280.496 479.047c0.599244,-2.36126 1.27106,-11.6603 -1.1418,-15.8496l-1.25915 -1.96441c1.2308,3.50022 1.57124,15.9353 2.40095,17.8141z"/>
  <path fill="#CCCCCC" d="M280.059 490.397c0.599244,-2.36126 1.70759,-8.60457 -0.70526,-12.7939l-1.25915 -1.96441c1.2308,3.50022 1.13471,12.8795 1.96441,14.7583z"/>
  <path fill="#CCCCCC" d="M278.968 499.564c0.344126,-3.12548 1.37962,-6.96813 -0.70526,-10.1747l-1.25915 -1.96441c1.2308,3.50022 1.13471,10.2603 1.96441,12.1391z"/>
  <path fill="#CCCCCC" d="M278.313 509.168c0.344126,-3.12548 1.37962,-6.96813 -0.70526,-10.1747l-1.25915 -1.96441c1.2308,3.50022 1.13471,10.2603 1.96441,12.1391z"/>
  <path fill="#CCCCCC" d="M277.003 525.102c-0.144,0.138898 2.60051,-6.031 1.04088,-16.2862l-2.56876 -0.436536c1.2308,3.50022 0.698174,14.8439 1.52787,16.7227z"/>
  <path fill="#CCCCCC" d="M192.377 524.01c5.43884,-3.83811 11.8049,-10.4958 12.223,-16.5884l1.74614 -0.218268c-0.260504,8.65049 -6.13588,13.3968 -13.9691,16.8066z"/>
  <path fill="#CCCCCC" d="M187.139 521.173c5.43884,-3.83811 11.8049,-10.4958 12.223,-16.5884l1.74614 -0.218268c-0.260504,8.65049 -6.13588,13.3968 -13.9691,16.8066z"/>
  <path fill="#CCCCCC" d="M169.896 523.137c10.7067,-0.617953 22.2565,-13.4966 20.7354,-23.5729l1.74614 0c1.59506,12.1433 -13.1562,25.5475 -22.4816,23.5729z"/>
  <path fill="#CCCCCC" d="M187.139 518.117c5.51311,-5.95531 8.89597,-10.3552 9.60378,-16.3701l1.30961 -0.654803c-1.18828,8.65021 -3.89849,13.6148 -10.9134,17.0249z"/>
  <path fill="#CCCCCC" d="M173.388 495.635c4.3475,-3.61984 8.3126,-8.31317 6.7663,-19.6441l1.74614 -0.218268c1.26737,8.86876 -1.77052,16.4526 -8.51245,19.8624z"/>
  <path fill="#CCCCCC" d="M154.835 500.874c17.007,-6.67559 20.5356,-16.6073 18.9893,-27.9383l1.74614 -0.218268c3.23178,6.68608 -0.024378,25.6198 -20.7354,28.1565z"/>
  <path fill="#CCCCCC" d="M177.535 497.6c4.45777,-5.34529 6.60331,-8.06372 6.54803,-13.0961l1.96441 -2.61921c-0.194457,8.86819 -2.64699,12.3052 -8.51245,15.7153z"/>
  <path fill="#CCCCCC" d="M340.858 521.391c-10.707,-1.89184 -22.4751,-5.96693 -20.9537,-14.4057l-1.74614 0c-1.21238,9.97909 13.5743,15.0381 22.6999,14.4057z"/>
  <path fill="#CCCCCC" d="M339.112 523.137c-6.40999,-1.60554 -16.9506,-1.74274 -20.5172,-9.16725l-1.96441 0.436536c5.34785,7.64504 14.7456,8.99547 22.4816,8.73071z"/>
  <path fill="#CCCCCC" d="M335.62 524.447c-6.40999,-1.27814 -19.5701,-0.178583 -23.1364,-7.85764l-1.96441 0.436536c5.34785,7.64504 17.8013,8.1224 25.1008,7.42111z"/>
  <path fill="#CCCCCC" d="M362.467 497.818c-6.41112,1.83345 -25.2448,-1.39493 -28.8114,-13.5326l-1.96441 0.436536c4.47477,10.8462 17.1462,16.562 30.7758,13.0961z"/>
  <path fill="#CCCCCC" d="M359.193 499.128c-2.83295,1.20217 -16.6836,3.80863 -26.6287,-7.20284l-1.96441 0.436536c9.66445,10.4998 21.7879,9.99497 28.5931,6.7663z"/>
  <path fill="#CCCCCC" d="M357.228 500.874c-0.795969,-0.072 -12.5371,6.09846 -25.1008,-3.27402l-1.96441 0.436536c13.0649,9.26193 23.2603,4.97339 27.0652,2.83748z"/>
  <path fill="#CCCCCC" d="M369.015 473.809c-0.795969,-0.072 -14.065,6.535 -26.6287,-2.83748l-1.96441 0.436536c13.0649,9.26193 24.7881,4.53685 28.5931,2.40095z"/>
  <path fill="#CCCCCC" d="M368.578 472.499c-0.795969,-0.072 -12.3188,4.35232 -24.8825,-5.02016l-1.96441 0.436536c12.3542,9.02495 22.0037,6.37342 26.8469,4.58362z"/>
  <path fill="#CCCCCC" d="M370.543 470.753c-6.99364,1.83317 -23.2078,-1.17695 -26.1921,-13.3143l-1.96441 0.436536c4.47477,10.8462 14.527,16.3437 28.1565,12.8778z"/>
  <path fill="#CCCCCC" d="M152.216 368.167l1.74614 0.436536c4.82259,5.18315 6.45874,10.8218 7.20284,16.5884l2.40095 63.9525c-2.0092,25.2405 -15.5523,26.4504 -29.9027,24.2277l0.436536 -1.52787c17.9708,3.92882 28.302,-7.42111 27.72,-22.9181l-2.18268 -63.5159c-0.000566929,-5.43884 -2.7652,-11.2232 -7.42111,-17.2432z"/>
  <path fill="#CCCCCC" d="M157.673 471.626c2.91033,-3.27402 9.74949,-6.7663 10.0403,-20.0806l-1.96441 1.74614c-0.509103,11.0188 -5.38328,13.2693 -8.07591,18.3345z"/>
  <path fill="#CCCCCC" d="M160.074 474.245c2.91345,-3.06255 11.7181,-8.59692 10.9134,-17.4614l-1.96441 1.74614c0.469701,6.93581 -5.73166,9.23074 -8.94898,15.7153z"/>
  <path fill="#CCCCCC" d="M165.53 451.109c-0.50967,-4.29307 0.654803,-7.71279 3.05575,-10.2586 -0.508536,6.91767 -1.38132,10.3346 -3.05575,10.2586z"/>
  <path fill="#CCCCCC" d="M164.876 444.343c0.145701,-4.62076 1.16476,-10.5868 3.05575,-12.8778 -0.217417,4.88041 -1.08992,10.9165 -3.05575,12.8778z"/>
  <path fill="#CCCCCC" d="M164.221 434.521c-0.145134,-5.49411 0.43767,-14.7345 2.61921,-16.1518 0.0734174,4.58901 -0.362268,13.8991 -2.61921,16.1518z"/>
  <path fill="#CCCCCC" d="M163.566 421.206c0.47367,-7.04041 1.63871,-13.9164 3.27402,-13.9691 -0.508819,4.00677 -1.59902,11.1339 -3.27402,13.9691z"/>
  <path fill="#CCCCCC" d="M162.693 411.602c0.47367,-7.04041 1.63871,-10.4241 3.27402,-10.4769 -0.508819,4.00677 -1.59902,7.64164 -3.27402,10.4769z"/>
  <path fill="#CCCCCC" d="M169.241 447.398c0.145701,-4.62076 0.509953,-8.8407 2.40095,-11.1317 -0.217417,4.88041 -0.435118,9.17037 -2.40095,11.1317z"/>
  <path fill="#CCCCCC" d="M169.677 455.038c0.114236,-3.6241 0.399969,-6.93383 1.88306,-8.73071 -0.170362,3.82791 -0.341292,7.19235 -1.88306,8.73071z"/>
  <path fill="#CCCCCC" d="M168.586 422.079c2.53049,-2.02422 2.15547,-2.1977 1.96441,-5.4567 -1.23704,1.52816 -1.89156,3.34658 -1.96441,5.4567z"/>
  <polygon fill="#CCCCCC" points="170.114,427.536 170.114,432.12 171.205,429.937 170.987,426.445 "/>
  <path fill="#CCCCCC" d="M161.82 401.999c1.17269,0.189921 2.85421,-3.54161 2.61921,-15.7153l-1.30961 2.40095c-0.072567,4.72904 -0.145417,8.36674 -1.30961,13.3143z"/>
  <path fill="#CCCCCC" d="M162.256 387.593c0,-4.51106 -0.873071,-8.73128 -2.61921,-12.6595 4.14766,2.58208 4.07452,9.78492 2.61921,12.6595z"/>
  <path fill="#CCCCCC" d="M154.835 366.639l3.27402 5.02016 1.52787 -0.654803c-1.91849,-3.0464 -3.46451,-4.22844 -4.80189,-4.36536z"/>
  <path fill="#CCCCCC" d="M161.602 374.279l2.83748 5.23843 1.74614 0c-1.91849,-3.0464 -3.24624,-5.10151 -4.58362,-5.23843z"/>
  <path fill="#CCCCCC" d="M158.982 367.294l2.00976 3.71055 1.23704 0c-1.35893,-2.15773 -2.29947,-3.61361 -3.2468,-3.71055z"/>
  <path fill="#CCCCCC" d="M166.403 400.034c0.77726,-13.5054 -1.36687,-14.8839 -1.74614,-17.898 0.363685,6.18407 -0.363969,13.2415 1.74614,17.898z"/>
  <path id="path1937_2" fill="none" stroke="black" stroke-width="2.83465" d="M1.49783 1.56926l497.057 0.0286299 -0.0153071 275.809c-9.62703,148.92 -118.889,272.12 -247.895,309.123 -135.46,-37.9863 -240.969,-165.177 -249.11,-308.944l-0.036 -276.017z"/>
 </g>
</svg>
