<?xml version="1.0" encoding="UTF-8" standalone="no"?>
<!-- Creator: CorelDRAW -->

<svg
   xmlns:dc="http://purl.org/dc/elements/1.1/"
   xmlns:cc="http://creativecommons.org/ns#"
   xmlns:rdf="http://www.w3.org/1999/02/22-rdf-syntax-ns#"
   xmlns:svg="http://www.w3.org/2000/svg"
   xmlns="http://www.w3.org/2000/svg"
   xmlns:sodipodi="http://sodipodi.sourceforge.net/DTD/sodipodi-0.dtd"
   xmlns:inkscape="http://www.inkscape.org/namespaces/inkscape"
   xml:space="preserve"
   width="500"
   height="589"
   style="fill-rule:evenodd"
   viewBox="0 0 500 607.848"
   version="1.0"
   id="svg2"
   inkscape:version="0.48.0 r9654"
   sodipodi:docname="Kauhava.vaakuna.svg"><metadata
   id="metadata147"><rdf:RDF><cc:Work
       rdf:about=""><dc:format>image/svg+xml</dc:format><dc:type
         rdf:resource="http://purl.org/dc/dcmitype/StillImage" /></cc:Work></rdf:RDF></metadata><sodipodi:namedview
   pagecolor="#ffffff"
   bordercolor="#666666"
   borderopacity="1"
   objecttolerance="10"
   gridtolerance="10"
   guidetolerance="10"
   inkscape:pageopacity="0"
   inkscape:pageshadow="2"
   inkscape:window-width="640"
   inkscape:window-height="480"
   id="namedview145"
   showgrid="false"
   fit-margin-top="0"
   fit-margin-left="0"
   fit-margin-right="0"
   fit-margin-bottom="0"
   inkscape:zoom="0.44237288"
   inkscape:cx="249.82581"
   inkscape:cy="294.0908"
   inkscape:window-x="381"
   inkscape:window-y="309"
   inkscape:window-maximized="0"
   inkscape:current-layer="svg2" />
 <defs
   id="defs4">
  <style
   type="text/css"
   id="style6">
   
    .str1 {stroke:white;stroke-width:0.222912}
    .str0 {stroke:#004A8D;stroke-width:0.548504}
    .fil6 {fill:#72706F}
    .fil3 {fill:#C0A062}
    .fil2 {fill:white}
    .fil4 {fill:#752B19}
    .fil0 {fill:#004A8D}
    .fil5 {fill:#D0CFCF}
    .fil1 {fill:#0033AB}
   
  </style>
 
  
  
  
  
  
  
  
  
  
  
  
  
  
  
  
  
  
  
  
  
  
  
  
  
  
  
  
  
  
  
  
  
  
  
  
  
  
  
  
  
  
  
  
  
  
  
  
  
  
  
  
  
  
  
  
  
  
  
  
 </defs>
 <path
   style="fill:#0057f0;stroke:#0057f0;stroke-width:0.54850399000000005;fill-opacity:1;stroke-opacity:1"
   inkscape:connector-curvature="0"
   d="M -7.981748,0.48375826 507.29626,0.35884526 507.24857,359.00984 c -26.8896,330.739 -479.459001,332.211 -515.1940013,-0.34022 L -7.9808281,0.48362626 -7.9814132,0.48304119 z"
   class="fil0 str0"
   id="path1937" /><path
   style="fill:#0033ab"
   inkscape:connector-curvature="0"
   id="path11"
   d="m 310.48024,556.45629 c -1.47292,-19.1403 13.6079,-22.7613 34.0687,-1.5519 -6.54197,25.2095 -23.4821,34.9492 -30.3342,16.8003 -39.0515,14.2245 -67.5646,13.0799 -86.0063,-6.46621 -14.3793,-15.2408 -21.265,-45.0821 -23.5011,-90.5962 l 1.71455,-1.3992 c -8.98962,-154.381 -19.8436,-178.251 4.66565,-198.165 -10.1881,-0.78838 -11.3755,-16.1646 2.33531,-16.3323 l -6.06485,-81.6613 c -12.0504,2.21215 -19.135,-18.5441 3.88721,-15.7115 0.80213,-45.2874 3.81086,-82.006797 7.9321,-116.502997 8.78455,-18.5061 66.4922,-16.9796 72.7931,-0.620761 6.11107,29.2641 7.61675,73.324298 7.62172,117.591998 21.7301,-1.90324 18.3192,14.1956 4.66565,15.7065 l -0.13076,7.39384 c 14.8386,-15.376 35.5744,4.32104 17.5126,30.2257 l 5.46252,15.7396 c 4.5539,6.62739 7.86657,16.9794 7.1443,22.6756 2.45203,5.51108 -0.27996,8.58767 -4.46146,10.7829 l 13.2884,50.9729 c 3.22286,14.4062 -0.38205,21.7942 -9.32077,22.436 -4.8438,0.34782 -16.3053,-1.26902 -16.2384,-17.5349 l 0.78692,-34.6637 c -0.50521,-5.64389 -3.7193,-13.0506 -6.85879,-16.5075 l 1.24415,-2.75305 c 11.0099,8.4496 10.5357,12.864 10.6825,23.4859 l -0.95542,29.9747 c -0.9721,16.6962 18.2308,13.8384 15.7071,1.66892 l -14.8263,-56.928 c -7.13875,-1.56419 -11.4841,-16.1643 -10.2425,-20.5222 -1.52148,-0.3253 -3.04296,-4.99622 -4.56414,-7.49447 -2.93589,2.79371 -4.62996,8.89835 -5.08339,18.3127 l -4.50593,0.94138 -0.23754,3.77049 c 10.2428,1.77072 10.4494,11.1974 -0.31038,14.9331 29.0739,13.655 11.2805,81.0057 4.3503,202.052 l 3.57683,1.86228 c -2.94437,49.6173 -15.8212,77.818 4.20257,78.0845 z m -8.96768,-351.927 -2.48304,31.6588 1.24152,0 c 0.5172,-2.89727 1.86199,-5.79425 4.03494,-8.69065 -2.48304,-9.8289 1.86228,-19.3471 12.1048,-17.3813 14.4325,-24.224 -7.75395,-30.4784 -11.7944,-6.51799 l -3.1038,0.93114 z m 11.4841,22.037 c 0.41364,3.00024 1.24094,5.17261 2.48304,6.51799 1.55161,-1.96584 3.51745,-2.79371 5.89722,-3.1038 l -3.72456,-9.00103 c -1.55219,2.76768 -3.1041,4.47492 -4.6557,5.58684 z m 5.58684,17.6917 c 0.41364,3.00024 2.17208,7.34528 3.41418,8.69065 0.66932,-2.62755 2.73082,-5.40138 7.75951,-3.72456 l -3.1038,-8.69065 c -1.55219,2.76768 -6.51828,2.61264 -8.06989,3.72456 z"
   class="fil1" /><g
   id="_79168640"
   transform="translate(-8.435763,-0.09370674)">
   <path
   style="fill:#ffffff"
   inkscape:connector-curvature="0"
   d="m 361.059,445.98 -4.34532,-4.96608 c 7.79052,-13.5634 -6.25295,-43.8063 -6.55163,-60.4864 -0.29868,-16.6801 12.0835,-31.5242 26.0915,-31.7898 24.2989,-0.46074 28.2557,15.8774 28.0164,25.9081 -0.23929,10.0308 -9.62969,14.9003 -13.9481,14.9228 -11.0578,0.0579 -17.9567,-10.2946 -11.5712,-20.5629 -5.58187,-2.87504 -9.73266,5.85217 -9.46265,15.3496 0.27001,9.49746 9.93158,20.0791 23.2814,20.29 13.2276,0.20916 16.365,-8.84598 19.3919,-8.94691 3.02687,0.10093 6.41267,9.46616 19.6403,9.25729 13.3496,-0.21092 23.0114,-10.7925 23.2814,-20.29 0.27001,-9.49746 -3.88078,-18.2247 -9.46265,-15.3496 6.38547,10.2683 -0.5134,20.6208 -11.5712,20.5629 -4.31841,-0.0225 -13.7088,-4.89207 -13.9481,-14.9228 -0.23929,-10.0308 2.07378,-25.5474 28.507,-25.4175 12.8616,0.0632 25.8996,14.6192 25.601,31.2993 -0.29868,16.6801 -14.3421,46.923 -6.55163,60.4864 l -4.34532,4.96608 c -31.6585,-10.4497 -70.8079,-10.6565 -102.053,-0.31038 z"
   class="fil2"
   id="_79168712" />
   <path
   style="fill:#c0a062"
   inkscape:connector-curvature="0"
   d="m 361.667,446.915 -4.34532,-4.96608 c 7.79052,-13.5634 -6.25295,-43.8063 -6.55163,-60.4864 -0.29868,-16.6801 12.0835,-31.5242 26.0915,-31.7898 24.2989,-0.46074 28.2557,15.8774 28.0164,25.9081 -0.23929,10.0308 -9.62969,14.9003 -13.9481,14.9228 -11.0578,0.0579 -17.9567,-10.2946 -11.5712,-20.5629 -5.58187,-2.87504 -9.73266,5.85217 -9.46265,15.3496 0.27001,9.49746 9.93158,20.0791 23.2814,20.29 13.2276,0.20916 16.365,-8.84598 19.3919,-8.94691 3.02687,0.10093 6.41267,9.46616 19.6403,9.25729 13.3496,-0.21092 23.0114,-10.7925 23.2814,-20.29 0.27001,-9.49746 -3.88078,-18.2247 -9.46265,-15.3496 6.38547,10.2683 -0.5134,20.6208 -11.5712,20.5629 -4.31841,-0.0225 -13.7088,-4.89207 -13.9481,-14.9228 -0.23929,-10.0308 2.07378,-25.5474 28.507,-25.4175 12.8616,0.0632 25.8996,14.6192 25.601,31.2993 -0.29868,16.6801 -14.3421,46.923 -6.55163,60.4864 l -4.34532,4.96608 c -31.6585,-10.4497 -70.8079,-10.6565 -102.053,-0.31038 z"
   class="fil3"
   id="_79820448" />
   <path
   style="fill:#752b19"
   inkscape:connector-curvature="0"
   d="m 381.531,367.458 c -11.2772,-1.03441 -20.0715,18.7264 -3.1038,34.1418 -17.5056,-8.93959 -11.2319,-38.6793 3.1038,-34.1418 z"
   class="fil4"
   id="_79818960" />
   <path
   style="fill:#752b19"
   inkscape:connector-curvature="0"
   d="m 392.395,355.043 c 12.7774,8.53531 11.2205,25.0337 5.12113,30.883 -6.09937,5.84925 -16.657,2.48304 -19.709,-9.46674 0.1097,11.872 14.6136,16.9671 21.1222,9.62471 8.29368,-9.35587 3.40716,-27.5492 -6.53437,-31.041 z"
   class="fil4"
   id="_79483824" />
   <path
   style="fill:#752b19"
   inkscape:connector-curvature="0"
   d="m 422.502,377.39 c 9.29122,22.7002 36.1998,6.01131 19.2769,-10.079 8.79391,-4.96608 15.3821,2.94028 15.4857,13.8036 -2.79342,-11.4838 -7.2426,-15.9327 -13.3464,-13.3464 15.3663,19.3521 -15.0518,32.3869 -21.4162,9.62179 z"
   class="fil4"
   id="_79250808" />
   <path
   style="fill:#752b19"
   inkscape:connector-curvature="0"
   d="m 361.537,445.674 c 30.909,-10.5278 65.0075,-10.4052 101.641,0.32705 l 2.88382,-3.38083 c -8.54262,-31.6453 24.6142,-63.7812 -6.00429,-87.5773 28.7021,24.4361 -3.85913,57.3811 4.83591,87.0533 l -2.18934,2.67992 c -37.5352,-11.4589 -70.9759,-9.94767 -101.968,-0.4739 l 0.80096,1.3717 z"
   class="fil4"
   id="_79819776" />
  </g><g
   id="_79168568"
   transform="translate(-8.435763,-0.09370674)">
   <path
   style="fill:#ffffff"
   inkscape:connector-curvature="0"
   d="m 56.4123,445.98 -4.34532,-4.96608 c 7.79052,-13.5634 -6.25295,-43.8063 -6.55163,-60.4864 -0.298679,-16.6801 12.0835,-31.5242 26.0915,-31.7898 24.2989,-0.46074 28.2557,15.8774 28.0164,25.9081 -0.239294,10.0308 -9.62969,14.9003 -13.9481,14.9228 -11.0578,0.0579 -17.9567,-10.2946 -11.5712,-20.5629 -5.58187,-2.87504 -9.73266,5.85217 -9.46265,15.3496 0.27001,9.49746 9.93158,20.0791 23.2814,20.29 13.2276,0.20916 16.365,-8.84598 19.3919,-8.94691 3.02687,0.10093 6.41267,9.46616 19.6403,9.25729 13.3496,-0.21092 23.0114,-10.7925 23.2814,-20.29 0.27001,-9.49746 -3.88078,-18.2247 -9.46265,-15.3496 6.38547,10.2683 -0.5134,20.6208 -11.5712,20.5629 -4.31841,-0.0225 -13.7088,-4.89207 -13.9481,-14.9228 -0.23929,-10.0308 2.07378,-25.5474 28.507,-25.4175 12.8616,0.0632 25.8996,14.6192 25.601,31.2993 -0.29868,16.6801 -14.3421,46.923 -6.55163,60.4864 l -4.34532,4.96608 c -31.6585,-10.4497 -70.8079,-10.6565 -102.053,-0.31038 z"
   class="fil2"
   id="_79818552" />
   <path
   style="fill:#c0a062"
   inkscape:connector-curvature="0"
   d="m 57.0205,446.915 -4.34532,-4.96608 c 7.79052,-13.5634 -6.25295,-43.8063 -6.55163,-60.4864 -0.298679,-16.6801 12.0835,-31.5242 26.0915,-31.7898 24.2989,-0.46074 28.2557,15.8774 28.0164,25.9081 -0.239294,10.0308 -9.62969,14.9003 -13.9481,14.9228 -11.0578,0.0579 -17.9567,-10.2946 -11.5712,-20.5629 -5.58187,-2.87504 -9.73266,5.85217 -9.46265,15.3496 0.27001,9.49746 9.93158,20.0791 23.2814,20.29 13.2276,0.20916 16.365,-8.84598 19.3919,-8.94691 3.02687,0.10093 6.41267,9.46616 19.6403,9.25729 13.3496,-0.21092 23.0114,-10.7925 23.2814,-20.29 0.27001,-9.49746 -3.88078,-18.2247 -9.46265,-15.3496 6.38547,10.2683 -0.5134,20.6208 -11.5712,20.5629 -4.31841,-0.0225 -13.7088,-4.89207 -13.9481,-14.9228 -0.23929,-10.0308 2.07378,-25.5474 28.507,-25.4175 12.8616,0.0632 25.8996,14.6192 25.601,31.2993 -0.29868,16.6801 -14.3421,46.923 -6.55163,60.4864 l -4.34532,4.96608 c -31.6585,-10.4497 -70.8079,-10.6565 -102.053,-0.31038 z"
   class="fil3"
   id="_79819368" />
   <path
   style="fill:#752b19"
   inkscape:connector-curvature="0"
   d="M 76.8848,367.458 C 65.6076,366.42359 56.8133,386.1844 73.781,401.5998 56.2754,392.66021 62.5491,362.9205 76.8848,367.458 z"
   class="fil4"
   id="_79250376" />
   <path
   style="fill:#752b19"
   inkscape:connector-curvature="0"
   d="m 87.7481,355.043 c 12.7774,8.53531 11.2205,25.0337 5.12113,30.883 -6.09937,5.84925 -16.657,2.48304 -19.709,-9.46674 0.109701,11.872 14.6136,16.9671 21.1222,9.62471 8.29368,-9.35587 3.40716,-27.5492 -6.53437,-31.041 z"
   class="fil4"
   id="_79819656" />
   <path
   style="fill:#752b19"
   inkscape:connector-curvature="0"
   d="m 117.855,377.39 c 9.29122,22.7002 36.1998,6.01131 19.2769,-10.079 8.79391,-4.96608 15.3821,2.94028 15.4857,13.8036 -2.79342,-11.4838 -7.2426,-15.9327 -13.3464,-13.3464 15.3663,19.3521 -15.0518,32.3869 -21.4162,9.62179 z"
   class="fil4"
   id="_79819392" />
   <path
   style="fill:#752b19"
   inkscape:connector-curvature="0"
   d="m 56.8903,445.674 c 30.909,-10.5278 65.0075,-10.4052 101.641,0.32705 l 2.88382,-3.38083 c -8.54262,-31.6453 24.6142,-63.7812 -6.00429,-87.5773 28.7021,24.4361 -3.85913,57.3811 4.83591,87.0533 l -2.18934,2.67992 c -37.5352,-11.4589 -70.9759,-9.94767 -101.968,-0.4739 l 0.800962,1.3717 z"
   class="fil4"
   id="_79250736" />
  </g><g
   id="_79250304"
   transform="translate(-8.435763,-0.09370674)">
   <path
   style="fill:#ffffff"
   inkscape:connector-curvature="0"
   d="m 361.059,200.777 -4.34532,-4.96608 c 7.79052,-13.5634 -6.25295,-43.8063 -6.55163,-60.4864 -0.29868,-16.6801 12.0835,-31.5242 26.0915,-31.7898 24.2989,-0.46074 28.2557,15.8774 28.0164,25.9081 -0.23929,10.0308 -9.62969,14.9003 -13.9481,14.9228 -11.0578,0.0579 -17.9567,-10.2946 -11.5712,-20.5629 -5.58187,-2.87504 -9.73266,5.85217 -9.46265,15.3496 0.27001,9.49746 9.93158,20.0791 23.2814,20.29 13.2276,0.20916 16.365,-8.84598 19.3919,-8.94691 3.02687,0.10092 6.41267,9.46616 19.6403,9.25729 13.3496,-0.21092 23.0114,-10.7925 23.2814,-20.29 0.27001,-9.49746 -3.88078,-18.2247 -9.46265,-15.3496 6.38547,10.2683 -0.5134,20.6208 -11.5712,20.5629 -4.31841,-0.0225 -13.7088,-4.89207 -13.9481,-14.9228 -0.23929,-10.0308 2.07378,-25.5474 28.507,-25.4175 12.8616,0.0632 25.8996,14.6192 25.601,31.2993 -0.29868,16.6801 -14.3421,46.923 -6.55163,60.4864 l -4.34532,4.96608 c -31.6585,-10.4497 -70.8079,-10.6565 -102.053,-0.31038 z"
   class="fil2"
   id="_79168856" />
   <path
   style="fill:#c0a062"
   inkscape:connector-curvature="0"
   d="m 361.667,201.712 -4.34532,-4.96608 c 7.79052,-13.5634 -6.25295,-43.8063 -6.55163,-60.4864 -0.29868,-16.6801 12.0835,-31.5242 26.0915,-31.7898 24.2989,-0.46074 28.2557,15.8774 28.0164,25.9081 -0.23929,10.0308 -9.62969,14.9003 -13.9481,14.9228 -11.0578,0.0579 -17.9567,-10.2946 -11.5712,-20.5629 -5.58187,-2.87504 -9.73266,5.85217 -9.46265,15.3496 0.27001,9.49746 9.93158,20.0791 23.2814,20.29 13.2276,0.20916 16.365,-8.84598 19.3919,-8.94691 3.02687,0.10092 6.41267,9.46616 19.6403,9.25729 13.3496,-0.21092 23.0114,-10.7925 23.2814,-20.29 0.27001,-9.49746 -3.88078,-18.2247 -9.46265,-15.3496 6.38547,10.2683 -0.5134,20.6208 -11.5712,20.5629 -4.31841,-0.0225 -13.7088,-4.89207 -13.9481,-14.9228 -0.23929,-10.0308 2.07378,-25.5474 28.507,-25.4175 12.8616,0.0632 25.8996,14.6192 25.601,31.2993 -0.29868,16.6801 -14.3421,46.923 -6.55163,60.4864 l -4.34532,4.96608 c -31.6585,-10.4497 -70.8079,-10.6565 -102.053,-0.31038 z"
   class="fil3"
   id="_79819752" />
   <path
   style="fill:#752b19"
   inkscape:connector-curvature="0"
   d="m 381.531,122.254 c -11.2772,-1.03441 -20.0715,18.7264 -3.1038,34.1418 -17.5056,-8.93959 -11.2319,-38.6793 3.1038,-34.1418 z"
   class="fil4"
   id="_79250232" />
   <path
   style="fill:#752b19"
   inkscape:connector-curvature="0"
   d="m 392.395,109.839 c 12.7774,8.53531 11.2205,25.0337 5.12113,30.883 -6.09937,5.84925 -16.657,2.48304 -19.709,-9.46674 0.1097,11.872 14.6136,16.9671 21.1222,9.62471 8.29368,-9.35587 3.40716,-27.5492 -6.53437,-31.041 z"
   class="fil4"
   id="_79168424" />
   <path
   style="fill:#752b19"
   inkscape:connector-curvature="0"
   d="m 422.502,132.187 c 9.29122,22.7002 36.1998,6.01131 19.2769,-10.079 8.79391,-4.96608 15.3821,2.94028 15.4857,13.8036 -2.79342,-11.4838 -7.2426,-15.9327 -13.3464,-13.3464 15.3663,19.3521 -15.0518,32.3869 -21.4162,9.62179 z"
   class="fil4"
   id="_79818768" />
   <path
   style="fill:#752b19"
   inkscape:connector-curvature="0"
   d="m 361.537,200.47 c 30.909,-10.5278 65.0075,-10.4052 101.641,0.32705 l 2.88382,-3.38083 c -8.54262,-31.6453 24.6142,-63.7812 -6.00429,-87.57729 28.7021,24.43609 -3.85913,57.3811 4.83591,87.05329 l -2.18934,2.67992 c -37.5352,-11.4589 -70.9759,-9.94766 -101.968,-0.4739 l 0.80096,1.3717 z"
   class="fil4"
   id="_79817976" />
  </g><g
   id="_79169072"
   transform="translate(-8.435763,-0.09370674)">
   <path
   style="fill:#ffffff"
   inkscape:connector-curvature="0"
   d="m 56.4123,200.777 -4.34532,-4.96608 c 7.79052,-13.5634 -6.25295,-43.8063 -6.55163,-60.4864 -0.298679,-16.6801 12.0835,-31.5242 26.0915,-31.7898 24.2989,-0.46074 28.2557,15.8774 28.0164,25.9081 -0.239294,10.0308 -9.62969,14.9003 -13.9481,14.9228 -11.0578,0.0579 -17.9567,-10.2946 -11.5712,-20.5629 -5.58187,-2.87504 -9.73266,5.85217 -9.46265,15.3496 0.27001,9.49746 9.93158,20.0791 23.2814,20.29 13.2276,0.20916 16.365,-8.84598 19.3919,-8.94691 3.02687,0.10092 6.41267,9.46616 19.6403,9.25729 13.3496,-0.21092 23.0114,-10.7925 23.2814,-20.29 0.27001,-9.49746 -3.88078,-18.2247 -9.46265,-15.3496 6.38547,10.2683 -0.5134,20.6208 -11.5712,20.5629 -4.31841,-0.0225 -13.7088,-4.89207 -13.9481,-14.9228 -0.23929,-10.0308 2.07378,-25.5474 28.507,-25.4175 12.8616,0.0632 25.8996,14.6192 25.601,31.2993 -0.29868,16.6801 -14.3421,46.923 -6.55163,60.4864 l -4.34532,4.96608 c -31.6585,-10.4497 -70.8079,-10.6565 -102.053,-0.31038 z"
   class="fil2"
   id="_79818240" />
   <path
   style="fill:#c0a062"
   inkscape:connector-curvature="0"
   d="m 57.0205,201.712 -4.34532,-4.96608 c 7.79052,-13.5634 -6.25295,-43.8063 -6.55163,-60.4864 -0.298679,-16.6801 12.0835,-31.5242 26.0915,-31.7898 24.2989,-0.46074 28.2557,15.8774 28.0164,25.9081 -0.239294,10.0308 -9.62969,14.9003 -13.9481,14.9228 -11.0578,0.0579 -17.9567,-10.2946 -11.5712,-20.5629 -5.58187,-2.87504 -9.73266,5.85217 -9.46265,15.3496 0.27001,9.49746 9.93158,20.0791 23.2814,20.29 13.2276,0.20916 16.365,-8.84598 19.3919,-8.94691 3.02687,0.10092 6.41267,9.46616 19.6403,9.25729 13.3496,-0.21092 23.0114,-10.7925 23.2814,-20.29 0.27001,-9.49746 -3.88078,-18.2247 -9.46265,-15.3496 6.38547,10.2683 -0.5134,20.6208 -11.5712,20.5629 -4.31841,-0.0225 -13.7088,-4.89207 -13.9481,-14.9228 -0.23929,-10.0308 2.07378,-25.5474 28.507,-25.4175 12.8616,0.0632 25.8996,14.6192 25.601,31.2993 -0.29868,16.6801 -14.3421,46.923 -6.55163,60.4864 l -4.34532,4.96608 c -31.6585,-10.4497 -70.8079,-10.6565 -102.053,-0.31038 z"
   class="fil3"
   id="_80977456" />
   <path
   style="fill:#752b19"
   inkscape:connector-curvature="0"
   d="M 76.8848,122.254 C 65.6076,121.21959 56.8133,140.9804 73.781,156.3958 56.2754,147.45621 62.5491,117.7165 76.8848,122.254 z"
   class="fil4"
   id="_79818336" />
   <path
   style="fill:#752b19"
   inkscape:connector-curvature="0"
   d="m 87.7481,109.839 c 12.7774,8.53531 11.2205,25.0337 5.12113,30.883 -6.09937,5.84925 -16.657,2.48304 -19.709,-9.46674 0.109701,11.872 14.6136,16.9671 21.1222,9.62471 8.29368,-9.35587 3.40716,-27.5492 -6.53437,-31.041 z"
   class="fil4"
   id="_79484136" />
   <path
   style="fill:#752b19"
   inkscape:connector-curvature="0"
   d="m 117.855,132.187 c 9.29122,22.7002 36.1998,6.01131 19.2769,-10.079 8.79391,-4.96608 15.3821,2.94028 15.4857,13.8036 -2.79342,-11.4838 -7.2426,-15.9327 -13.3464,-13.3464 15.3663,19.3521 -15.0518,32.3869 -21.4162,9.62179 z"
   class="fil4"
   id="_80978680" />
   <path
   style="fill:#752b19"
   inkscape:connector-curvature="0"
   d="m 56.8903,200.47 c 30.909,-10.5278 65.0075,-10.4052 101.641,0.32705 l 2.88382,-3.38083 c -8.54262,-31.6453 24.6142,-63.7812 -6.00429,-87.57729 28.7021,24.43609 -3.85913,57.3811 4.83591,87.05329 l -2.18934,2.67992 c -37.5352,-11.4589 -70.9759,-9.94766 -101.968,-0.4739 l 0.800962,1.3717 z"
   class="fil4"
   id="_79169000" />
  </g><path
   style="fill:#d0cfcf"
   inkscape:connector-curvature="0"
   id="path41"
   d="m 304.77824,550.75529 c -1.47292,-19.1403 13.6079,-22.7613 34.0687,-1.5519 -6.54197,25.2095 -23.4821,34.9492 -30.3342,16.8003 -39.0515,14.2245 -67.5646,13.0799 -86.0063,-6.46621 -14.3793,-15.2408 -21.265,-45.0821 -23.5011,-90.5962 l 1.71455,-1.3992 c -8.98962,-154.381 -19.8436,-178.251 4.66565,-198.165 -10.1881,-0.78838 -11.3755,-16.1646 2.33531,-16.3323 l -6.06485,-81.6613 c -12.0504,2.21215 -19.135,-18.5441 3.88721,-15.7115 0.80213,-45.2874 3.81086,-82.006797 7.9321,-116.502997 8.78455,-18.5061 66.4922,-16.9796 72.7931,-0.620761 6.11107,29.2641 7.61675,73.324298 7.62172,117.591998 21.7301,-1.90324 18.3192,14.1956 4.66565,15.7065 l -0.13076,7.39384 c 14.8386,-15.376 35.5744,4.32104 17.5126,30.2257 l 5.46252,15.7396 c 4.5539,6.62739 7.86657,16.9794 7.1443,22.6756 2.45203,5.51108 -0.27996,8.58767 -4.46146,10.7829 l 13.2884,50.9729 c 3.22286,14.4062 -0.38205,21.7942 -9.32077,22.436 -4.8438,0.34782 -16.3053,-1.26902 -16.2384,-17.5349 l 0.78692,-34.6637 c -0.50521,-5.64389 -3.7193,-13.0506 -6.85879,-16.5075 l 1.24415,-2.75305 c 11.0099,8.4496 10.5357,12.864 10.6825,23.4859 l -0.95542,29.9747 c -0.9721,16.6962 18.2308,13.8384 15.7071,1.66892 l -14.8263,-56.928 c -7.13875,-1.56419 -11.4841,-16.1643 -10.2425,-20.5222 -1.52148,-0.3253 -3.04296,-4.99622 -4.56414,-7.49447 -2.93589,2.79371 -4.62996,8.89835 -5.08339,18.3127 l -4.50593,0.94138 -0.23754,3.77049 c 10.2428,1.77072 10.4494,11.1974 -0.31038,14.9331 29.0739,13.655 11.2805,81.0057 4.3503,202.052 l 3.57683,1.86228 c -2.94437,49.6173 -15.8212,77.818 4.20257,78.0845 z m -8.96768,-351.927 -2.48304,31.6588 1.24152,0 c 0.5172,-2.89727 1.86199,-5.79425 4.03494,-8.69065 -2.48304,-9.8289 1.86228,-19.3471 12.1048,-17.3813 14.4325,-24.224 -7.75395,-30.4784 -11.7944,-6.51799 l -3.1038,0.93114 z m 11.4841,22.037 c 0.41364,3.00024 1.24094,5.17261 2.48304,6.51799 1.55161,-1.96584 3.51745,-2.79371 5.89722,-3.1038 l -3.72456,-9.00103 c -1.55219,2.76768 -3.1041,4.47492 -4.6557,5.58684 z m 5.58684,17.6917 c 0.41364,3.00024 2.17208,7.34528 3.41418,8.69065 0.66932,-2.62755 2.73082,-5.40138 7.75951,-3.72456 l -3.1038,-8.69065 c -1.55219,2.76768 -6.51828,2.61264 -8.06989,3.72456 z"
   class="fil5" /><path
   style="fill:#c0a062"
   inkscape:connector-curvature="0"
   id="path43"
   d="m 207.72124,253.04429 c -13.7109,0.16762 -12.5234,15.5439 -2.33531,16.3323 -24.5092,19.9135 -13.6553,43.7838 -4.66565,198.165 19.7339,1.92254 35.0853,7.79022 47.731,27.6171 l 1.70431,8.8e-4 c 10.1969,-13.4069 21.5245,-24.8971 38.2999,-24.5472 2.84813,2.30313 5.69596,0.57805 8.54379,0.1957 6.93017,-121.046 24.7236,-188.397 -4.3503,-202.052 10.7598,-3.73568 10.5532,-13.1623 0.31038,-14.9331 -28.4125,0.16763 -56.825,-0.1176 -85.2381,-0.77843 z m 1.28511,-169.430997 c -1.76516,21.928797 -2.99293,45.522897 -3.46274,72.058197 -23.0223,-2.83262 -15.9376,17.9237 -3.88721,15.7115 l 96.8998,0.46308 c 13.6535,-1.51095 17.0645,-17.6098 -4.66565,-15.7065 -0.003,-25.5922 -0.50726,-50.7848 -2.11298,-73.419093 -27.2652,1.84005 -54.9072,0.879654 -82.7712,0.892819 z"
   class="fil3" /><path
   style="fill:#752b19"
   inkscape:connector-curvature="0"
   id="path45"
   d="m 250.80624,315.84129 c 6.64729,-13.9677 5.21211,-28.0384 0.1685,-36.3145 -6.28513,7.96574 -6.81579,22.0364 -0.1685,36.3145 z m -0.0737,-3.1038 c 3.79272,-11.8187 2.97421,-23.7246 0.0965,-30.7276 -3.58736,6.74031 -3.89014,18.6459 -0.0965,30.7276 z"
   class="fil4" /><path
   style="fill:#752b19"
   inkscape:connector-curvature="0"
   id="path47"
   d="m 250.80624,314.20429 c 6.64729,13.9677 5.21211,28.0384 0.1685,36.3145 -6.28513,-7.96574 -6.81579,-22.0364 -0.1685,-36.3145 z m -0.0737,3.1038 c 3.79272,11.8187 2.97421,23.7246 0.0965,30.7276 -3.58736,-6.74031 -3.89014,-18.6459 -0.0965,-30.7276 z"
   class="fil4" /><path
   style="fill:#752b19"
   inkscape:connector-curvature="0"
   id="path49"
   d="m 251.41324,315.34629 c -7.95814,-13.2647 -18.6108,-20.1636 -28.2955,-20.5407 3.1588,9.64256 12.7238,18.179 28.2955,20.5407 z m -2.62638,-1.65575 c -7.74722,-9.69785 -16.2553,-15.9128 -23.681,-17.3901 3.63007,6.71749 11.518,13.8665 23.681,17.3901 z"
   class="fil4" /><path
   style="fill:#752b19"
   inkscape:connector-curvature="0"
   id="path51"
   d="m 250.05024,314.44129 c 15.3131,2.18992 25.3093,10.2385 29.4133,19.0186 -10.1127,0.82875 -21.1968,-5.58246 -29.4133,-19.0186 z m 2.54477,1.77832 c 11.9436,3.37908 20.4778,9.71628 24.7195,15.9879 -7.59949,-0.7407 -16.7538,-6.14383 -24.7195,-15.9879 z"
   class="fil4" /><path
   style="fill:#752b19"
   inkscape:connector-curvature="0"
   id="path53"
   d="m 249.83424,315.57829 c 15.2399,-2.65125 22.477,-12.2672 26.3142,-21.1673 -10.1334,-0.52305 -18.507,7.48891 -26.3142,21.1673 z m 2.49006,-1.85468 c 11.836,-3.73802 17.6633,-11.5993 21.7137,-17.9959 -7.57375,0.96976 -14.049,7.91601 -21.7137,17.9959 z"
   class="fil4" /><path
   style="fill:#752b19"
   inkscape:connector-curvature="0"
   id="path55"
   d="m 251.16924,314.63229 c -7.55415,13.4988 -18.9335,18.911 -28.6024,19.5803 2.86626,-9.73354 13.1091,-16.7497 28.6024,-19.5803 z m -2.57519,1.73415 c -7.45088,9.92749 -16.7076,14.5914 -24.0853,16.2919 3.42588,-6.82398 12.034,-12.4023 24.0853,-16.2919 z"
   class="fil4" /><path
   style="fill:#752b19"
   inkscape:connector-curvature="0"
   id="path57"
   d="m 237.92524,289.25529 c 1.39832,0 2.5316,1.13328 2.5316,2.53131 0,1.39832 -1.13328,2.5316 -2.5316,2.5316 -1.39803,0 -2.53131,-1.13328 -2.53131,-2.5316 0,-1.39803 1.13328,-2.53131 2.53131,-2.53131 z m 0,-1.96906 c 2.48538,0 4.50066,2.01528 4.50066,4.50037 0,2.48538 -2.01528,4.50066 -4.50066,4.50066 -2.48509,0 -4.50037,-2.01528 -4.50037,-4.50066 0,-2.48509 2.01528,-4.50037 4.50037,-4.50037 z"
   class="fil4" /><path
   style="fill:#752b19"
   inkscape:connector-curvature="0"
   id="path59"
   d="m 262.06924,289.25529 c 1.39803,0 2.53131,1.13328 2.53131,2.53131 0,1.39832 -1.13328,2.5316 -2.53131,2.5316 -1.39832,0 -2.5316,-1.13328 -2.5316,-2.5316 0,-1.39803 1.13328,-2.53131 2.5316,-2.53131 z m 0,-1.96906 c 2.48509,0 4.50037,2.01528 4.50037,4.50037 0,2.48538 -2.01528,4.50066 -4.50037,4.50066 -2.48538,0 -4.50066,-2.01528 -4.50066,-4.50066 0,-2.48509 2.01528,-4.50037 4.50066,-4.50037 z"
   class="fil4" /><path
   style="fill:#752b19"
   inkscape:connector-curvature="0"
   id="path61"
   d="m 237.92524,334.45829 c 1.39832,0 2.5316,1.13328 2.5316,2.5316 0,1.39803 -1.13328,2.53131 -2.5316,2.53131 -1.39803,0 -2.53131,-1.13328 -2.53131,-2.53131 0,-1.39832 1.13328,-2.5316 2.53131,-2.5316 z m 0,-1.96906 c 2.48538,0 4.50066,2.01528 4.50066,4.50066 0,2.48509 -2.01528,4.50037 -4.50066,4.50037 -2.48509,0 -4.50037,-2.01528 -4.50037,-4.50037 0,-2.48538 2.01528,-4.50066 4.50037,-4.50066 z"
   class="fil4" /><path
   style="fill:#752b19"
   inkscape:connector-curvature="0"
   id="path63"
   d="m 262.06924,334.45829 c 1.39803,0 2.53131,1.13328 2.53131,2.5316 0,1.39803 -1.13328,2.53131 -2.53131,2.53131 -1.39832,0 -2.5316,-1.13328 -2.5316,-2.53131 0,-1.39832 1.13328,-2.5316 2.5316,-2.5316 z m 0,-1.96906 c 2.48509,0 4.50037,2.01528 4.50037,4.50066 0,2.48509 -2.01528,4.50037 -4.50037,4.50037 -2.48538,0 -4.50066,-2.01528 -4.50066,-4.50037 0,-2.48538 2.01528,-4.50066 4.50066,-4.50066 z"
   class="fil4" /><path
   style="fill:#752b19"
   inkscape:connector-curvature="0"
   id="path65"
   d="m 226.77924,311.54629 c 1.39832,0 2.5316,1.13328 2.5316,2.5316 0,1.39803 -1.13328,2.53131 -2.5316,2.53131 -1.39803,0 -2.53131,-1.13328 -2.53131,-2.53131 0,-1.39832 1.13328,-2.5316 2.53131,-2.5316 z m 0,-1.96906 c 2.48538,0 4.50066,2.01528 4.50066,4.50066 0,2.48509 -2.01528,4.50037 -4.50066,4.50037 -2.48509,0 -4.50037,-2.01528 -4.50037,-4.50037 0,-2.48538 2.01528,-4.50066 4.50037,-4.50066 z"
   class="fil4" /><path
   style="fill:#752b19"
   inkscape:connector-curvature="0"
   id="path67"
   d="m 273.21524,311.54629 c 1.39803,0 2.53131,1.13328 2.53131,2.5316 0,1.39803 -1.13328,2.53131 -2.53131,2.53131 -1.39832,0 -2.5316,-1.13328 -2.5316,-2.53131 0,-1.39832 1.13328,-2.5316 2.5316,-2.5316 z m 0,-1.96906 c 2.48509,0 4.50037,2.01528 4.50037,4.50066 0,2.48509 -2.01528,4.50037 -4.50037,4.50037 -2.48538,0 -4.50066,-2.01528 -4.50066,-4.50037 0,-2.48538 2.01528,-4.50066 4.50066,-4.50066 z"
   class="fil4" /><path
   style="fill:#752b19"
   inkscape:connector-curvature="0"
   id="path69"
   d="m 238.54524,354.01729 c 1.62855,0 2.94876,1.18155 2.94876,2.63809 0,1.45683 -1.32021,2.63838 -2.94876,2.63838 -1.62825,0 -2.94847,-1.18155 -2.94847,-2.63838 0,-1.45653 1.32021,-2.63809 2.94847,-2.63809 z m 7.29408,51.2127 c -1.96584,-17.4849 -17.8988,-15.4157 -21.7266,-36.6249 -0.68424,23.7533 14.2494,20.4202 21.7266,36.6249 z m -12.2289,62.1571 c -1.62825,0 -2.94876,-1.18155 -2.94876,-2.63809 0,-1.45653 1.32051,-2.63838 2.94876,-2.63838 1.62825,0 2.94847,1.18184 2.94847,2.63838 0,1.45653 -1.32021,2.63809 -2.94847,2.63809 z m -6.0432,-53.7051 c -7.80222,17.553 7.34264,24.1465 12.8441,33.9461 5.57807,9.93626 5.0319,18.0714 -4.47316,21.0005 3.24802,-2.93647 2.36925,-8.11377 -1.87077,-8.3399 -2.74223,-0.14627 -5.53068,1.99158 -5.52044,4.65395 0.0146,3.83777 6.89506,9.24529 12.878,3.80852 8.26589,-7.51144 6.88892,-18.2361 3.07894,-25.9564 -5.85393,-11.8611 -13.2808,-12.3149 -14.4536,-27.2506 -0.51369,-6.54168 7.83586,-6.66952 17.3409,-1.31319 2.86451,-22.6964 -11.8038,-25.806 -18.4309,-37.3603 -6.43578,-11.2205 -2.8686,-22.097 6.94684,-24.095 -3.24802,2.93647 -2.05945,8.11289 2.18115,8.3399 2.74311,0.14685 5.53126,-1.9907 5.52044,-4.65395 -0.0155,-3.83836 -7.69807,-8.41128 -14.1195,-3.49814 -9.81866,7.51231 -9.05339,22.2605 -5.24224,29.982 5.8551,11.8623 17.5963,13.0395 21.282,27.5609 -9.04081,-4.5305 -15.6281,-2.07437 -17.9617,3.17547 z m 1.24152,2.79342 c -7.65595,15.6226 14.1742,22.2441 16.7605,40.0391 1.305,-18.1665 -18.2844,-22.9032 -16.7605,-40.0391 z"
   class="fil4" /><path
   style="fill:#752b19"
   inkscape:connector-curvature="0"
   id="path71"
   d="m 263.33224,354.01729 c -1.62825,0 -2.94876,1.18155 -2.94876,2.63809 0,1.45653 1.32051,2.63838 2.94876,2.63838 1.62825,0 2.94847,-1.18184 2.94847,-2.63838 0,-1.45653 -1.32021,-2.63809 -2.94847,-2.63809 z m -6.36294,51.2127 c 1.96584,-17.4849 15.7261,-16.6573 19.554,-37.8664 0.68395,22.5115 -12.077,20.4199 -19.554,37.8664 z m 12.2289,62.1571 c 1.62825,0 2.94876,-1.18155 2.94876,-2.63809 0,-1.45653 -1.32051,-2.63838 -2.94876,-2.63838 -1.62825,0 -2.94847,1.18184 -2.94847,2.63838 0,1.45653 1.32021,2.63809 2.94847,2.63809 z m 6.0432,-53.7051 c 7.80163,17.5527 -8.27437,24.7675 -12.5337,35.1876 -4.31139,10.5471 -3.79038,16.8299 4.16278,19.759 -3.24802,-2.93647 -2.36925,-8.11377 1.87077,-8.3399 2.74223,-0.14627 5.53068,1.99158 5.52044,4.65395 -0.0146,3.83777 -6.89536,9.245 -12.878,3.80852 -8.26559,-7.51114 -5.04507,-17.9672 -1.83742,-25.9564 4.91928,-12.2511 11.4191,-12.3152 12.5913,-27.2506 0.5134,-6.5411 -7.2151,-6.66952 -16.7202,-1.31319 -2.86451,-22.6964 9.94182,-27.0478 16.5686,-38.6018 6.43549,-11.2202 3.79974,-20.8554 -6.0157,-22.8535 3.24802,2.93647 2.05916,8.11289 -2.18115,8.3399 -2.74311,0.14656 -5.53097,-1.9907 -5.52044,-4.65395 0.0155,-3.83807 7.69837,-8.41069 14.1195,-3.49814 9.81808,7.51202 7.81158,21.9507 4.00072,29.6716 -5.85451,11.862 -15.4236,13.3499 -19.1093,27.8713 9.04081,-4.5305 15.6284,-2.07378 17.9617,3.17547 z m -1.5519,0.93114 c 7.03519,19.0368 -12.6223,21.313 -15.2086,43.7636 -1.305,-18.1665 16.7325,-26.6278 15.2086,-43.7636 z"
   class="fil4" /><path
   style="fill:#752b19"
   inkscape:connector-curvature="0"
   id="path73"
   d="m 229.54424,398.39629 c 1.39832,0 2.5316,1.13328 2.5316,2.5316 0,1.39803 -1.13328,2.53131 -2.5316,2.53131 -1.39803,0 -2.53131,-1.13328 -2.53131,-2.53131 0,-1.39832 1.13328,-2.5316 2.53131,-2.5316 z m 0,-1.96906 c 2.48538,0 4.50066,2.01528 4.50066,4.50066 0,2.48509 -2.01528,4.50037 -4.50066,4.50037 -2.48509,0 -4.50037,-2.01528 -4.50037,-4.50037 0,-2.48538 2.01528,-4.50066 4.50037,-4.50066 z"
   class="fil4" /><path
   style="fill:#752b19"
   inkscape:connector-curvature="0"
   id="path75"
   d="m 271.65324,398.39629 c 1.39803,0 2.53131,1.13328 2.53131,2.5316 0,1.39803 -1.13328,2.53131 -2.53131,2.53131 -1.39832,0 -2.5316,-1.13328 -2.5316,-2.53131 0,-1.39832 1.13328,-2.5316 2.5316,-2.5316 z m 0,-1.96906 c 2.48509,0 4.50037,2.01528 4.50037,4.50066 0,2.48509 -2.01528,4.50037 -4.50037,4.50037 -2.48538,0 -4.50066,-2.01528 -4.50066,-4.50037 0,-2.48538 2.01528,-4.50066 4.50066,-4.50066 z"
   class="fil4" /><path
   style="fill:#752b19"
   inkscape:connector-curvature="0"
   id="path77"
   d="m 271.03324,449.78829 c 1.39803,0 2.53131,1.13328 2.53131,2.5316 0,1.39803 -1.13328,2.53131 -2.53131,2.53131 -1.39832,0 -2.5316,-1.13328 -2.5316,-2.53131 0,-1.39832 1.13328,-2.5316 2.5316,-2.5316 z m 0,-1.96906 c 2.48509,0 4.50037,2.01528 4.50037,4.50066 0,2.48509 -2.01528,4.50037 -4.50037,4.50037 -2.48538,0 -4.50066,-2.01528 -4.50066,-4.50037 0,-2.48538 2.01528,-4.50066 4.50066,-4.50066 z"
   class="fil4" /><path
   style="fill:#752b19"
   inkscape:connector-curvature="0"
   id="path79"
   d="m 233.26024,449.78829 c 1.39832,0 2.5316,1.13328 2.5316,2.5316 0,1.39803 -1.13328,2.53131 -2.5316,2.53131 -1.39803,0 -2.53131,-1.13328 -2.53131,-2.53131 0,-1.39832 1.13328,-2.5316 2.53131,-2.5316 z m 0,-1.96906 c 2.48538,0 4.50066,2.01528 4.50066,4.50066 0,2.48509 -2.01528,4.50037 -4.50066,4.50037 -2.48509,0 -4.50037,-2.01528 -4.50037,-4.50037 0,-2.48538 2.01528,-4.50066 4.50037,-4.50066 z"
   class="fil4" /><path
   style="fill:#752b19"
   inkscape:connector-curvature="0"
   id="path81"
   d="m 249.87424,387.84929 c -3.39458,-4.57145 -9.94679,-10.715 -10.5752,-14.9258 -0.80769,-5.41454 5.02722,-9.90438 10.5752,-4.31783 5.54794,-5.58655 11.2576,-1.09672 10.45,4.31783 -0.62837,4.21076 -7.05537,10.3543 -10.45,14.9258 z m -0.26123,-2.84052 c -2.68665,-3.37352 -7.87213,-8.52741 -8.36944,-11.6347 -0.63919,-4.61621 3.04764,-7.30842 8.36944,-2.25516 5.01143,-5.05326 9.52993,-2.67143 8.26998,2.56554 -0.49702,3.10702 -5.58363,7.95082 -8.26998,11.3243 z"
   class="fil4" /><path
   style="fill:#752b19"
   inkscape:connector-curvature="0"
   id="path83"
   d="m 250.03624,439.06229 c -3.0921,-4.16395 -9.06041,-9.75986 -9.63261,-13.5953 -0.73573,-4.93186 4.57906,-9.0215 9.63261,-3.93285 5.05326,-5.08866 10.254,-0.99901 9.51852,3.93285 -0.57249,3.83543 -6.42671,9.43135 -9.51852,13.5953 z m -0.23812,-2.58718 c -2.44706,-3.07309 -7.17034,-7.7674 -7.62348,-10.5977 -0.58215,-4.20491 2.77616,-6.65694 7.62348,-2.05418 4.56473,-4.60275 8.68041,-2.43331 7.53279,2.33677 -0.45256,2.82999 -5.08573,7.24201 -7.53279,10.3151 z"
   class="fil4" /><path
   style="fill:#752b19"
   inkscape:connector-curvature="0"
   id="path85"
   d="m 250.32324,486.90829 c -2.85778,-3.8486 -8.37412,-9.02092 -8.90303,-12.5659 -0.68015,-4.55858 4.2324,-8.33843 8.90303,-3.63505 4.67092,-4.70339 9.47786,-0.92353 8.79772,3.63505 -0.5289,3.54495 -5.93964,8.71727 -8.79772,12.5659 z m -0.21999,-2.39148 c -2.26159,-2.83994 -6.62739,-7.17912 -7.04601,-9.79497 -0.53826,-3.88634 2.56583,-6.1529 7.04601,-1.89885 4.21924,-4.25405 8.02337,-2.24901 6.96264,2.16008 -0.41861,2.61585 -4.70075,6.6938 -6.96264,9.53373 z"
   class="fil4" /><path
   style="fill:#ffffff;stroke:#ffffff;stroke-width:0.222912"
   inkscape:connector-curvature="0"
   id="path87"
   d="m 227.01424,563.78229 c -1.5639,-1.30383 -3.06636,-2.71853 -4.5071,-4.24557 -14.3793,-15.2408 -21.265,-45.0821 -23.5011,-90.5962 l 1.71455,-1.3992 c -8.98962,-154.381 -19.8436,-178.251 4.66565,-198.165 l -0.20595,-1.02417 17.6917,3.41418 -0.93114,0.62076 -13.3464,-0.31038 -0.93114,2.48304 9.00103,1.86228 -1.5519,1.86228 -7.75951,-0.62076 -3.1038,1.24152 0.31038,2.17266 7.13875,0.93114 -3.1038,3.1038 -4.96608,-0.31038 -4.03494,1.24152 1.86228,2.17266 5.58684,0.93114 -0.93114,2.79342 -5.58684,0 -2.79342,1.24152 1.24152,2.48304 4.96608,0.31038 0,4.03494 -4.03494,-0.31038 -3.41418,1.5519 0.62076,2.17266 5.89722,1.5519 -0.31038,2.48304 -5.27646,0.31038 -1.86228,1.5519 1.5519,1.86228 4.96608,0 0,4.03494 -2.48304,0 -3.1038,1.24152 0,2.17266 5.58684,1.24152 0.62076,3.72456 -6.20761,0 0.62076,2.17266 2.48304,1.86228 3.41418,0.62076 0,4.03494 -5.58684,1.24152 1.5519,2.79342 4.03494,0.31038 0,3.41418 -2.79342,0.31038 -2.17266,1.24152 0.93115,2.79342 4.6557,0.62076 0.31038,3.41418 -2.48304,0 -2.17266,0.93114 0.93114,3.1038 3.72456,0.31038 0.31038,4.03494 -4.96608,0.62077 0.62076,2.48304 4.96608,2.17266 0,2.79342 -4.6557,0 0,3.1038 4.96608,1.24152 -0.31038,3.72456 -3.1038,0.31038 -1.5519,1.86228 2.17266,2.48304 3.1038,0.93114 0.62076,3.41418 -4.6557,0 -0.93114,1.5519 1.5519,1.86228 4.03494,0.93114 0.31038,4.34532 -4.34532,0.31038 0.31038,2.48304 4.34532,2.17266 0,3.41418 -4.34532,0 0,2.79342 5.27646,2.17266 0,4.03494 -3.72456,0 -1.24152,0.93114 0.93114,2.48304 4.34532,0 0,4.6557 -3.72456,0.93114 0,1.86228 1.5519,1.5519 2.79342,0.31038 -0.31038,3.72456 -2.17266,0 -2.17266,1.24152 0.93114,2.48304 4.03494,0 0,4.03494 -4.03494,0.62076 0.31038,2.17266 4.03494,2.48304 0,2.79342 -4.03494,0.62076 0,2.17266 4.34532,1.5519 0,3.72456 -4.03494,0.31038 0,2.48304 2.17266,2.17266 2.79342,0.31038 0,2.79342 -4.6557,0.62076 -0.62076,1.24152 1.5519,2.17266 3.41418,0.62076 0.62076,3.1038 -4.6557,0 -0.62076,0.93115 0.62076,2.17266 c 18.055,3.41301 33.2639,10.9654 42.2117,27.6238 l 1.5519,0 c 9.20814,-15.8291 22.1408,-24.6233 38.7975,-26.3823 l 0,1.86228 c -16.2433,1.21549 -28.5547,10.7858 -38.1768,26.0719 l -3.1038,0.31038 c -8.11991,-16.2966 -23.6389,-23.4347 -42.5221,-27.0031 4.209,45.427 4.04577,72.0834 22.1444,93.9931 z m 49.8931,-533.323997 c -18.3645,-8.06316 -56.4313,-6.03735 -63.4314,8.70966 -4.12124,34.4967 -7.12997,71.215997 -7.9321,116.502997 -23.0223,-2.83262 -15.9376,17.9237 -3.88721,15.7115 l -0.20097,-1.42114 -3.41418,-0.31038 -4.03494,-1.86228 2.48304,-1.86228 9.31141,0.62076 -0.31038,-1.24152 -9.93217,-0.62076 -2.48304,-1.86228 2.17266,-1.24152 12.1048,0.93114 0.62076,-1.86228 -9.31141,-0.31038 -1.86228,-0.62076 0.62076,-1.24152 7.13875,-0.31038 c 27.1061,0.64709 54.2127,0.80242 81.3196,0.62076 l -2.79342,-2.48304 c -22.3474,0.27206 -44.695,0.24632 -67.0421,-0.31038 l -1.5519,-1.5519 -4.6557,0.31038 -1.5519,-1.5519 0.93114,-1.24152 5.89722,-0.31038 0,-2.17266 -5.58684,-0.31038 -1.24152,-0.93114 0.62076,-1.86228 6.20761,0 0,-1.86228 -4.96608,0 -0.93114,-1.86228 1.24152,-1.5519 4.6557,-0.31038 -0.31038,-1.86228 -3.72456,0 -2.17266,-1.86228 1.24152,-1.24152 5.27646,-0.31038 0,-2.17266 -4.34532,-0.31038 -2.17266,-0.62076 0.93114,-2.17266 5.27646,-0.31038 -0.31038,-1.86228 -3.72456,-0.31038 -2.17266,-2.17266 1.86228,-1.24152 4.6557,-0.62076 0,-3.1038 -3.1038,-0.62076 -3.1038,-0.93114 1.5519,-1.5519 4.34532,0 -0.31038,-2.79342 -3.1038,0.31038 -2.48304,-1.86228 0.62076,-1.24152 5.89722,-0.62077 0,-2.79342 -4.6557,0 -1.5519,-1.24152 1.24152,-1.5519 4.34532,0 0,-2.48304 -3.41418,0 -1.5519,-0.93114 0.93114,-1.5519 4.6557,0 0,-2.793413 -4.96608,0 0,-2.17266 5.89722,-0.620761 0,-1.86228 -4.6557,-0.31038 -1.5519,-1.24152 1.5519,-1.24152 4.96608,0 0,-2.48304 -4.96608,-0.31038 -1.24152,-1.86228 1.5519,-0.931141 5.89722,0.31038 0,-1.86228 -3.72456,-0.31038 -1.5519,-0.931141 0.93114,-1.24152 5.58684,-0.31038 0,-2.17266 -4.6557,0 -1.24152,-1.24152 1.5519,-1.5519 4.34532,0 0,-2.48304 -4.34532,-0.31038 -1.5519,-1.24152 1.86228,-1.24152 4.34532,-0.31038 0,-2.48304 -3.1038,-0.31038 -1.86228,-1.24152 1.86228,-1.86228 3.41418,0 0,-1.86228 -3.41418,-0.31038 -0.62076,-1.24152 1.24152,-0.620761 3.1038,-0.931141 0,-2.17266 -4.34532,0 -1.5519,-1.5519 2.79342,-1.24152 3.72456,-0.31038 0,-1.5519 -3.1038,-0.620761 -1.5519,-1.5519 2.48304,-1.5519 3.41418,0 0,-2.17266 -3.41418,0 -1.24152,-1.5519 1.86228,-1.24152 63.0072,0.931141 c -0.19687,-3.87551 -2.04921,-8.57861 -5.55759,-14.1099 z m 40.0709,182.004997 -1.03996,-2.99732 c -0.9917,2.26218 -2.48012,4.02587 -3.86878,5.88903 l 0,0.55933 2.79664,-3.35597 2.11211,-0.0951 z m 17.0449,102.312 -16.5002,-62.0854 c -0.69975,-2.0969 0.093,-5.12698 2.37714,-9.08908 l 1.81782,0.27966 -0.18839,-0.86239 c -3.22637,-0.13749 -4.68935,2.09397 -5.23317,4.2286 -0.43032,0.64943 -0.67401,1.48491 -0.73105,2.50674 l -1.39832,1.81782 c -2.88996,-1.67798 -2.98328,-6.15261 -4.47462,-9.22891 l -2.46929,-0.67137 c 0.61345,5.99669 4.56999,15.8733 10.3701,17.144 l 14.8263,56.928 c 1.89271,9.12711 -8.43585,13.0164 -13.3083,7.34703 l 0.5093,1.75317 0.4195,1.11866 c -4.20929,-2.79313 -7.35639,-6.8936 -6.71194,-15.6612 l 0.92675,-29.9299 c 0.25685,-8.81556 -4.601,-11.7716 -7.76975,-18.6509 l -0.74391,1.64668 c 3.13949,3.45689 6.35358,10.8636 6.85879,16.5075 l -0.78693,34.6637 c -0.0187,4.57467 0.8741,7.9909 2.27534,10.5304 l 1.33718,1.17336 -0.69916,-1.81782 0.13984,-1.67798 1.67798,1.25849 0,1.11866 c 8.59206,4.39447 9.65016,2.59859 13.7199,0.32325 1.99509,-1.11544 4.67238,-5.72843 3.75908,-10.6708 z m -0.77932,229.109 c -17.5393,-15.0755 -29.7994,-10.476 -28.4649,6.86991 -0.62573,-0.008 -1.21929,-0.0442 -1.78242,-0.10677 l 1.50539,4.80636 3.72456,3.72456 -3.1038,-12.1048 0.93115,-1.5519 2.48304,0.93114 3.41418,7.44913 -0.31038,-3.72456 -2.79342,-8.69065 1.24152,-1.86228 3.1038,1.86228 1.86228,6.82837 1.5519,1.86228 0.93114,0 -1.86228,-9.00103 0.62076,-1.86228 2.48304,0.62076 1.24152,4.96608 2.79342,4.96608 0,-3.72456 -1.24152,-4.34532 0,-1.86228 2.17266,-0.62076 1.5519,4.6557 1.24152,4.34532 0.93114,-0.62076 0,-4.03494 1.24152,-2.17266 1.5519,1.5519 1.86228,5.27646 1.11807,-4.43074 z m -131.275,-368.305 5.753,77.4643 c -11.14,0.13603 -12.4448,10.3125 -7.0779,14.5469 l -0.11906,-2.34262 4.03494,1.24152 0.93114,-0.93114 -3.1038,-0.93114 -0.31038,-1.24152 3.1038,0 0.31038,-0.93114 -2.17266,-0.31038 -0.93114,-1.86228 6.20761,-0.31038 2.17266,-1.5519 -6.51799,-0.31038 0,-1.5519 2.17266,-1.24152 c 26.2785,1.00896 52.5572,1.26785 78.8366,0.62076 l 0,-2.17266 c -20.6796,0.29838 -41.3985,0.22115 -62.0761,-0.31038 l 0.31038,0 -0.31038,-3.72456 -9.00103,0 -0.93114,-1.24152 1.86228,-1.5519 7.44913,-0.31038 0,-2.79342 -7.13875,0 -2.17266,-2.17266 2.48304,-1.24152 6.51799,0 0,-2.48304 -7.75951,-0.31038 -1.5519,-1.86228 1.5519,-1.5519 8.06989,0 -0.31038,-2.79342 -7.13875,0.31038 -3.41418,-1.5519 1.5519,-1.5519 8.69065,-0.62076 0,-2.79342 -8.38027,-0.31038 -1.86228,-1.24152 1.86228,-0.93114 8.06989,-0.31038 0,-2.48304 -8.69065,-0.62077 -1.86228,-1.24152 0.93114,-1.86228 9.31141,-0.31038 -0.31038,-2.48304 -8.38027,-0.31038 -1.86228,-1.86228 2.17266,-1.5519 8.06989,0 -0.62076,-2.79342 -7.75951,-0.31038 -2.17266,-1.24152 1.24152,-1.5519 8.38027,0 0,-3.1038 -6.51799,-0.62076 -3.41418,-1.24152 1.86228,-2.17266 8.06989,0 0,-3.1038 -8.69065,0 -1.5519,-1.5519 2.79342,-1.5519 6.82837,0 0,-2.17266 -10.2425,-1.24152 -0.93114,-2.48304 11.1737,0.31038 -0.31038,-2.48304 -10.2425,-1.24152 -1.24152,-1.5519 1.5519,-0.93114 9.00103,0 -0.31038,-3.41418 -15.9373,0.34168 z m 70.5643,-135.977997 -41.9013,0 c -6.62154,-11.4841 43.8669,-12.4152 41.9013,0 z m 51.5231,203.919997 -3.10379,-8.69065 c 0.49877,-3.01399 -0.60672,-5.62341 -2.67496,-6.76167 -2.46256,-1.35532 -6.01073,-1.91933 -8.30509,0.28932 l 1.81782,2.65681 -1.39832,-0.4195 -1.39832,-2.23731 0.78517,-0.97677 c 1.55161,-1.96584 3.51745,-2.79371 5.89722,-3.1038 l -2.46549,-5.95778 1.65604,0.94927 2.37714,5.03395 2.65681,0.55933 -0.55933,3.21614 c 2.51698,0.27967 4.5972,7.16683 5.49265,10.7279 0.42008,1.67067 0.59005,3.37206 1.21929,4.65366 l -1.25849,1.95765 -0.69916,-1.11866 -0.0392,-0.77785 z m -21.3381,-67.7053 c 5.72521,-3.33286 11.6824,-2.27885 15.6398,1.72157 l -0.27527,1.73971 c 4.99885,7.31807 0.0345,19.9498 -11.7459,36.2165 -0.23344,1.63176 0.0927,3.26323 0.97882,4.89412 l -0.27966,1.25849 c -1.39949,-3.12984 -2.33151,-5.74335 -2.23731,-9.22891 l 2.93647,-3.77546 -0.27967,-2.09748 c -2.69162,0.0816 -6.08035,0.76498 -6.48844,6.26172 -0.5248,7.0662 3.33374,21.2591 10.6834,20.7259 l 0.97883,-1.39832 c 1.77101,0.0468 4.38131,-1.305 5.31362,0.13983 -4.54483,2.58777 -5.98967,5.4318 -12.445,-0.55933 l -0.55933,1.11866 0.13018,2.52663 c -0.76059,-1.5206 -1.52119,-3.31297 -2.28178,-4.56209 l -0.22555,-2.29933 -2.37714,-6.01278 -1.57911,-0.69067 c -2.48304,-9.8289 1.86228,-19.3471 12.1048,-17.3813 4.05893,-6.81286 5.22118,-12.2043 4.70573,-15.9022 l 1.96789,-1.54313 c -1.04845,-8.15794 -6.92139,-10.2551 -12.1654,-8.52975 l -2.50001,-2.62229 z"
   class="fil2 str1" /><path
   style="fill:#72706f"
   inkscape:connector-curvature="0"
   id="path89"
   d="m 222.03824,556.64129 c 17.1862,16.3074 35.4228,21.0462 86.159,4.252 l 0,-3.35685 1.11895,-0.22379 3.13306,8.95159 0.44758,-0.67137 -1.11895,-8.7278 1.11895,0 4.252,12.0846 0.89516,0 -1.56653,-12.3084 1.56653,0.89516 3.13306,8.7278 1.34274,1.79032 -1.79032,-11.8609 1.11895,0 4.02821,8.95159 0.67137,-0.22379 -1.11895,-10.0705 0.67137,0 2.90927,5.14716 0.89515,0 -1.34274,-6.93748 1.34274,0 2.01411,3.35685 0.44758,-1.34274 0,-5.14716 1.11895,0 0.44758,1.79032 2.90927,-3.35685 1.34274,0.89516 c -5.44789,10.7238 -7.72879,18.741 -12.0317,22.3146 -6.28922,5.22264 -13.6556,2.19548 -17.5085,-6.87312 -42.8094,15.8004 -71.2494,12.546 -86.6066,-8.05643 z"
   class="fil6" /><path
   style="fill:#72706f"
   inkscape:connector-curvature="0"
   id="path91"
   d="m 293.87424,472.94329 4.69958,-0.89516 -6.26611,61.766 c -0.67137,12.2335 3.13276,17.4553 11.4133,19.0221 l 0.22379,1.11895 c -10.5927,-1.26843 -15.5161,-8.20592 -14.7701,-20.8124 l 3.58064,-40.2821 -2.01411,-0.44758 -2.90927,44.0866 c -0.0369,6.37845 2.05155,10.7794 4.252,13.4274 -4.62499,-2.83467 -6.5645,-8.6532 -5.81853,-17.4556 l 2.68548,-40.0584 c -16.0011,4.58754 -27.0411,19.805 -34.6874,42.2963 l -6.04232,-0.67137 c -12.2139,-26.6105 -25.828,-35.4825 -39.8346,-39.387 l 0.67137,-2.46169 c 18.1273,6.396 31.2568,17.4732 40.9535,40.0584 l 3.13306,0.22379 c 7.81421,-22.9945 19.2649,-38.4734 36.0301,-42.9676 l 0.44758,-7.38506 c -18.8267,1.22075 -29.6028,16.7401 -35.3588,33.1209 -0.82056,1.64112 -5.44555,1.26814 -5.81853,0.22379 -11.6368,-19.8991 -25.8847,-30.0068 -42.2963,-32.0019 l -0.22379,-2.90927 c 15.2742,2.72731 30.2309,10.6881 44.3104,33.1209 l 2.01411,0.22379 c 7.86043,-19.6338 19.3676,-32.9591 37.3729,-34.6874 l 0.67137,-6.26611 2.2379,-0.44758 -0.67137,6.26611 1.79032,0 0.22379,-5.81853 z m -0.22379,8.50401 -0.67137,7.60885 -1.79032,0 0.44758,-6.93748 2.01411,-0.67137 z"
   class="fil6" /><path
   style="fill:#752b19"
   inkscape:connector-curvature="0"
   id="path93"
   d="m 249.56424,277.79929 c -8.09826,0 -18.8247,3.78483 -26.9065,14.2775 -13.9089,18.0576 -6.07977,47.9562 3.18483,180.196 11.0184,5.12786 19.7081,12.5068 23.2741,22.6028 l -0.44758,0.22379 c -6.01453,-12.6697 -14.9781,-19.9334 -25.9596,-23.4979 -9.98336,-140.963 -16.2302,-163.042 -1.73064,-181.166 7.70861,-9.63495 15.3458,-14.6505 28.8092,-14.6505 13.4634,0 20.3924,5.23814 27.9889,14.9609 12.9473,16.571 10.115,38.9608 0.7524,179.924 l -2.82268,0.67137 c 8.33346,-132.55 13.679,-161.828 0.7018,-179.265 -7.90694,-10.624 -18.746,-14.2775 -26.8442,-14.2775 z"
   class="fil4" /><path
   style="fill:#752b19"
   inkscape:connector-curvature="0"
   id="path95"
   d="m 249.19124,270.36829 c -9.59985,0 -21.1579,5.39172 -31.275,15.519 -17.4184,17.4366 -10.9318,45.7836 -1.501,183.3 l -2.7826,-0.0506 c -9.35148,-145.619 -15.2045,-166.767 1.9831,-184.89 9.13764,-9.63466 17.8809,-15.892 33.8405,-15.892 15.9599,0 23.8636,5.85949 32.8684,15.5816 15.3473,16.5707 13.5423,42.0646 3.37469,184.89 l -2.72526,0.36099 c 9.87863,-132.55 13.1109,-166.484 -2.27183,-183.92 -9.37255,-10.6234 -21.9112,-14.8983 -31.5111,-14.8983 z"
   class="fil4" /><path
   style="fill:#752b19"
   inkscape:connector-curvature="0"
   id="path97"
   d="m 288.98224,469.96029 5.58684,-0.17055 11.4841,-145.258 c 3.10585,-29.3331 -4.34415,-45.5759 -16.1398,-55.8684 11.6909,-3.20707 10.9666,-10.7598 4.6557,-13.3464 2.37948,4.55215 1.86199,7.03548 -1.5519,7.44913 1.96555,-3.20678 1.03441,-5.58597 -2.79342,-7.13875 0.82729,3.1041 0.41335,5.38061 -1.24152,6.82837 0.93143,-3.10351 0.20682,-5.37944 -2.17266,-6.82837 0.31038,1.86228 -0.20653,3.72456 -1.5519,5.58684 l -2.79342,0 1.24152,-4.34532 -1.24152,0.31038 -1.86228,3.41418 -3.41418,0.62076 1.24152,-3.72456 -1.24152,0.31038 -2.17266,3.41418 -3.1038,0 1.24152,-3.72456 -4.03494,4.03494 -4.34532,-0.62076 0.93114,-2.48304 -4.34532,2.48304 -55.2477,1.5519 1.24152,1.86228 67.6629,0 1.86228,0.62076 -66.4214,1.86228 c -3.20648,0.1059 -6.41414,-0.51574 -9.62179,-1.24152 3.55167,1.80026 6.00107,4.26312 13.9671,3.41418 l 64.8695,-0.62076 2.79342,1.86228 -16.54,1.12246 6.1529,1.55775 14.1116,-0.19717 2.48304,2.48304 -14.9881,0.29868 1.96379,1.15171 14.2658,0.41189 1.96964,2.48304 -12.5226,0.29868 1.37814,0.84718 12.4875,0.60321 1.22982,3.10965 -10.1293,-0.20302 3.1038,2.17266 8.38027,0.31038 1.24152,2.48304 -10.0278,0.5134 1.34888,1.5519 9.61009,-0.20302 0.31038,3.41418 -8.57744,0.92529 0.76908,1.66511 8.7395,0.20302 0.31038,2.79342 -8.37442,0.61491 0.65001,1.45624 8.34516,-0.20887 0,3.1038 -8.04648,0.41774 0.51925,1.96379 7.52723,0.10151 0.31038,2.99059 -7.24026,0.20887 0.41774,1.65341 6.51213,0 0,2.90663 -6.82837,0 0.22643,1.86813 6.71106,0.75475 -0.10912,2.65359 -6.61364,0.71642 0.31623,1.87398 6.29741,0.20302 0.0307,3.41418 -6.23832,0 -0.017,1.75317 6.22457,0.10911 -0.31038,3.72456 -5.89722,0.31038 -0.12608,1.78388 5.85276,1.14937 0.13983,2.03283 -6.48727,0.31038 0.37181,1.66102 5.58684,0.20127 0,3.27435 -5.8513,0.24134 0.0117,1.85643 5.56344,0.006 -0.29868,3.41418 -5.514,0.40019 -0.0591,1.56858 5.59006,0.48648 -0.27674,3.37908 -5.46193,0.64446 -0.12725,1.38018 5.3967,0.3253 -0.28698,3.50662 -5.36744,0.53037 -0.19073,1.21724 5.36393,0.62515 -0.21794,2.66178 -5.15331,0.47683 0.0649,2.03546 4.85989,0.27703 -0.2975,3.63417 -4.80373,0.5684 -0.17991,1.39832 4.79992,0.27849 -0.28727,3.50662 -4.70046,0.4979 -0.0667,1.40563 4.57409,0.45781 -0.27557,3.36767 -4.61563,0.20478 -0.24017,1.74351 4.68525,0.13544 -0.28786,3.51774 -4.51821,0.81179 -0.0649,1.22104 4.36697,0.60643 -0.22818,2.78933 -4.41758,0.55991 0.12521,1.63966 4.06215,0.61257 -0.23959,2.92828 -4.04401,0.51632 -0.32062,1.12509 4.15898,0.8703 -0.25275,3.09005 -4.25698,0.65645 -0.16938,1.25322 4.27863,-0.24398 -0.27469,3.35655 -4.07122,0.86386 -0.26972,1.29944 4.12387,0.48707 -0.24163,2.9511 -4.02266,0.23169 -0.31623,1.30003 4.13441,0.96858 -0.26416,3.22872 -4.14172,0.48327 -0.0129,1.39276 3.95947,0.50814 -0.24047,2.93969 -3.94367,0.0371 0.0205,1.29301 3.74124,0.89223 -0.22906,2.80074 -3.75586,0.21092 -0.0913,1.30734 3.68712,0.43763 -0.24134,2.9511 -3.95099,0.40985 0.0904,1.07302 3.66752,0.87848 -0.26328,3.2176 -3.69765,0.34636 -0.1252,1.67272 3.52564,1.61509 -0.13837,1.68939 -3.81554,0.0181 0.14188,1.84853 3.46918,0.43061 -0.19512,2.68869 -3.66108,0.51018 -0.34051,1.99802 3.79623,-0.0983 -0.25275,3.09005 -3.53968,0.16792 -0.28932,1.46356 2.70859,0.19219 0.9171,0.66523 -0.12872,1.57326 -3.7193,0.58858 -0.081,1.5639 3.63007,-0.0687 -0.18254,2.2338 -3.80647,0.51515 0.3212,1.04552 3.37177,-0.17172 -0.13544,1.66189 z"
   class="fil4" /><polygon
   style="fill:#752b19"
   id="polygon99"
   points="307.334,258.219 288.047,259.234 307.841,260.452 "
   class="fil4"
   transform="translate(-8.435763,-0.09370674)" /><polygon
   style="fill:#72706f"
   id="polygon101"
   points="295.031,181.948 294.726,187.229 278.424,186.853 278.715,187.832 294.592,189.547 294.493,191.247 277.704,191.02 278.204,192.215 294.376,193.274 294.071,198.539 276.332,198.636 276.185,199.544 293.925,201.068 293.836,202.603 277.434,202.499 277.472,203.437 293.713,204.722 293.595,206.752 277.588,206.646 277.595,207.639 293.478,208.787 293.348,211.018 276.833,210.811 276.87,211.807 293.231,213.042 293.131,214.779 276.424,214.979 276.772,216.154 293.002,217.005 292.895,218.844 275.485,218.631 276.491,219.714 292.785,220.861 292.66,223.004 277.173,222.684 277.4,223.846 292.514,225.545 292.408,227.372 277.387,226.954 277.906,228.327 292.25,230.097 291.962,235.084 277.669,234.978 277.782,236.068 291.839,237.209 291.746,238.827 277.243,238.428 277.891,239.364 291.611,241.166 291.294,246.647 277.328,246.249 277.501,247.197 291.17,248.783 291.071,250.509 276.478,250.307 276.871,251.677 290.936,252.836 290.869,254 297.846,253.744 302.963,172.811 295.366,172.811 295.366,176.842 277.846,176.532 278.466,177.617 295.211,178.858 295.138,180.103 277.951,179.54 278.088,180.743 "
   class="fil6"
   transform="translate(-8.435763,-0.09370674)" /><polygon
   style="fill:#72706f"
   id="polygon103"
   points="286.22,172.545 282.667,253.651 286.118,253.549 289.57,172.646 "
   class="fil6"
   transform="translate(-8.435763,-0.09370674)" /><polygon
   style="fill:#72706f"
   id="polygon105"
   points="229.983,243.804 230.186,241.673 299.822,242.282 299.315,244.413 "
   class="fil6"
   transform="translate(-8.435763,-0.09370674)" /><polygon
   style="fill:#72706f"
   id="polygon107"
   points="230.998,233.268 231.201,231.136 301.852,231.847 301.548,233.877 "
   class="fil6"
   transform="translate(-8.435763,-0.09370674)" /><polygon
   style="fill:#72706f"
   id="polygon109"
   points="228.765,196.522 228.968,194.39 303.172,194.695 302.867,196.725 "
   class="fil6"
   transform="translate(-8.435763,-0.09370674)" /><polygon
   style="fill:#72706f"
   id="polygon111"
   points="227.953,184.97 227.75,182.737 304.288,183.549 303.273,186.087 "
   class="fil6"
   transform="translate(-8.435763,-0.09370674)" /><path
   style="fill:#72706f"
   inkscape:connector-curvature="0"
   id="path113"
   d="m 205.30624,171.59929 92.6785,0.50755 -0.60906,3.24832 -93.7951,-0.91359 c -1.2304,-0.94781 -0.83256,-1.89563 1.72567,-2.84228 z"
   class="fil6" /><polygon
   style="fill:#72706f"
   id="polygon115"
   points="307.435,182.797 305.405,182.695 303.984,197.617 306.623,197.617 306.826,195.892 306.217,195.993 "
   class="fil6"
   transform="translate(-8.435763,-0.09370674)" /><polygon
   style="fill:#ffffff"
   id="polygon117"
   points="307.334,179.853 306.623,179.549 306.42,182.492 307.435,182.492 "
   class="fil2"
   transform="translate(-8.435763,-0.09370674)" /><polygon
   style="fill:#72706f"
   id="polygon119"
   points="303.166,235.165 301.488,235.165 300.649,249.008 304.145,249.288 304.145,247.89 302.467,247.89 "
   class="fil6"
   transform="translate(-8.435763,-0.09370674)" /><polygon
   style="fill:#ffffff"
   id="polygon121"
   points="302.047,234.046 303.306,230.551 303.306,234.186 "
   class="fil2"
   transform="translate(-8.435763,-0.09370674)" /><path
   style="fill:#752b19"
   inkscape:connector-curvature="0"
   id="path123"
   d="m 299.68824,157.17829 c 3.59058,3.22901 5.71468,4.93976 2.30108,7.11798 0.75445,-3.7582 -1.60778,-4.92396 -5.4356,-6.47674 1.9281,2.99381 3.93694,5.04946 0.74041,6.82807 -0.93992,-3.9855 -2.43536,-5.15857 -4.81484,-6.6075 0.31038,1.86228 2.43565,4.49627 1.09028,6.35855 l -2.02288,0.22057 c 0.51428,-1.60192 0.29429,-3.20414 -0.66055,-4.80694 l -1.42202,4.40676 -1.68179,0.24924 c 0.77054,-0.95571 0.77054,-2.24258 0.32998,-3.8603 l -1.38194,3.62305 -3.98287,0.0573 0.58069,-2.51142 -0.80097,-0.13076 -1.40212,2.5319 -5.08544,0.22057 2.01235,-3.72427 -3.59468,3.59351 -4.01505,0.15124 0.0503,-2.37276 -1.70314,2.26247 -63.1742,1.00047 0.251,0.98029 43.6969,0.54002 -1.8693,1.83244 -38.3938,0.33115 c -3.20648,0.1059 -11.4782,-0.84689 -14.6859,-1.57267 2.0106,2.13083 8.86354,3.49141 17.8204,3.30419 l 78.9609,0.59209 c 15.0752,1.44542 23.5079,-10.3169 8.2928,-14.1385 z m -48.8025,9.62676 -0.88083,1.43372 6.1649,0 0.88082,-1.32343 -6.16489,-0.11029 z m 13.6512,0 -1.43138,1.43372 -5.39436,0.11029 0.88083,-1.21315 5.94491,-0.33086 z m 6.16489,0.11029 -1.65136,1.32343 -4.62382,0 1.32109,-1.32343 4.95409,0 z m 5.61464,-0.22058 -1.65136,1.76457 -3.41272,0 1.2108,-1.43372 3.85328,-0.33085 z m 2.20162,0.44115 2.86246,0.11028 -0.55055,0.88229 -3.30243,0 0.99052,-0.99257 z m 7.59627,-0.11029 -0.77054,1.21315 -1.87164,0 0.55055,-0.99257 2.09163,-0.22057 z"
   class="fil4" /><polygon
   style="fill:#752b19"
   id="polygon125"
   points="314.035,160.503 298.623,161.936 314.035,162.267 "
   class="fil4"
   transform="translate(-8.435763,-0.09370674)" /><polygon
   style="fill:#752b19"
   id="polygon127"
   points="291.398,146.497 276.95,145.953 275.632,144.292 291.351,143.851 291.293,140.652 276.595,140.072 276.525,138.778 291.248,138.115 291.194,135.138 276.192,134.041 276.418,133.266 291.14,132.162 291.079,128.742 276.846,127.995 276.301,127.203 291.029,125.985 290.98,123.227 276.192,121.923 276.096,121.242 290.934,120.695 290.874,117.382 276.625,116.643 276.433,115.841 290.833,115.069 290.777,111.982 276.287,110.999 276.45,110.218 290.737,109.775 290.684,106.797 276.833,106.072 276.793,105.143 290.636,104.151 290.579,100.954 276.391,100.783 276.353,99.6315 290.539,98.7495 290.481,95.5506 277.493,95.1633 275.933,93.7846 290.435,93.0114 290.38,89.9269 276.179,89.1385 275.83,88.2729 290.342,87.828 290.256,83.0901 297.522,82.6489 298.733,156.643 291.577,156.533 291.566,155.873 276.073,155.558 275.921,154.44 291.536,154.215 291.497,152.009 275.274,151.106 274.964,150.024 291.444,149.034 "
   class="fil4"
   transform="translate(-8.435763,-0.09370674)" /><path
   style="fill:#752b19"
   inkscape:connector-curvature="0"
   id="path129"
   d="m 275.32524,155.66729 2.64218,0 c 0.17845,-24.04 0.52042,-48.0791 -0.22028,-72.119097 l -3.52271,0.220572 c 1.68091,23.966895 1.24796,47.932795 1.10081,71.898495 z"
   class="fil4" /><path
   style="fill:#752b19"
   inkscape:connector-curvature="0"
   id="path131"
   d="m 291.83824,84.870893 0,-1.98485 c -23.7398,1.03265 -47.9211,1.14498 -73.4296,0.110286 l 0.10999,2.09514 c 25.2072,0.694772 49.296,0.269425 73.3197,-0.220572 z"
   class="fil4" /><path
   style="fill:#72706f"
   inkscape:connector-curvature="0"
   id="path133"
   d="m 282.37124,83.106593 6.71545,-0.220572 c -1.04055,-14.5142 -2.02493,-29.1585 -3.96327,-41.5734 -0.47742,-2.27885 -1.83537,-4.26341 -4.07327,-5.95485 l -0.77054,0.882287 c 1.89036,2.25223 3.06402,5.10094 3.19244,8.822 l -3.85299,1.21285 0.05,0.666396 -12.383,-0.233151 0.36743,0.949278 12.1967,1.7046 0.0822,1.09672 -12.6958,-0.217646 0.18547,0.753864 4.93537,1.41851 7.7244,0.04359 0.11497,1.53552 -12.8385,0.005 0.39316,0.991111 4.40003,0.958639 8.24336,0.693309 0.10707,1.43372 -12.8306,0.0044 0.0825,1.09028 12.9541,1.66336 0.0491,0.657913 -12.2719,-0.327055 -0.98613,0.938747 13.3987,1.26873 0.31301,4.19203 -13.3648,-0.107068 -0.34841,1.16224 13.8688,1.02826 0.0989,1.32402 -12.8148,-0.114966 -0.0351,1.08033 12.9903,0.915344 0.3294,4.41085 -13.4827,0.0041 -0.0486,1.33923 13.6874,0.748599 0.0913,1.2228 -13.3484,0.22262 0.0758,0.928215 13.4613,1.37931 z"
   class="fil6" /><polygon
   style="fill:#72706f"
   id="polygon135"
   points="283.431,47.2509 280.238,46.8098 282.77,83.4209 285.963,83.4209 "
   class="fil6"
   transform="translate(-8.435763,-0.09370674)" /><polygon
   style="fill:#72706f"
   id="polygon137"
   points="227.615,65.8872 228.716,63.6818 297.412,64.1229 297.412,66.2181 "
   class="fil6"
   transform="translate(-8.435763,-0.09370674)" /><polygon
   style="fill:#72706f"
   id="polygon139"
   points="228.055,75.0819 228.056,73.3176 298.072,74.0893 298.072,76.1847 "
   class="fil6"
   transform="translate(-8.435763,-0.09370674)" /><path
   style="fill:#72706f"
   inkscape:connector-curvature="0"
   id="path141"
   d="m 263.32524,39.327793 -31.8159,-0.992573 c -1.34888,-1.53464 0.70589,-3.29951 2.44004,-4.29413 5.20245,-2.98445 17.1002,-2.68109 31.908,0.434708 l 0.44027,0.992281 c -14.0066,-1.79295 -24.9708,-2.1791 -27.5223,1.32343 l 24.7702,1.654 -0.22028,0.882287 z"
   class="fil6" /><polygon
   style="fill:#ffffff"
   id="polygon143"
   points="291.211,156.71 291.211,156.089 307.35,156.089 307.35,156.71 "
   class="fil2"
   transform="translate(-8.435763,-0.09370674)" />
</svg>