<?xml version="1.0" encoding="UTF-8" standalone="no"?>
<!-- Created with Inkscape (http://www.inkscape.org/) -->
<svg
   xmlns:dc="http://purl.org/dc/elements/1.1/"
   xmlns:cc="http://web.resource.org/cc/"
   xmlns:rdf="http://www.w3.org/1999/02/22-rdf-syntax-ns#"
   xmlns:svg="http://www.w3.org/2000/svg"
   xmlns="http://www.w3.org/2000/svg"
   xmlns:sodipodi="http://inkscape.sourceforge.net/DTD/sodipodi-0.dtd"
   xmlns:inkscape="http://www.inkscape.org/namespaces/inkscape"
   id="svg1337"
   sodipodi:version="0.32"
   inkscape:version="0.43"
   width="500"
   height="580"
   sodipodi:docbase="I:\Wikipedia\Suomi\Vaakunat"
   sodipodi:docname="kauniainen.vaakuna.svg"
   version="1.0">
  <metadata
     id="metadata1342">
    <rdf:RDF>
      <cc:Work
         rdf:about="">
        <dc:format>image/svg+xml</dc:format>
        <dc:type
           rdf:resource="http://purl.org/dc/dcmitype/StillImage" />
      </cc:Work>
    </rdf:RDF>
  </metadata>
  <defs
     id="defs1340" />
  <sodipodi:namedview
     inkscape:window-height="938"
     inkscape:window-width="1280"
     inkscape:pageshadow="2"
     inkscape:pageopacity="0.0"
     borderopacity="1.0"
     bordercolor="#666666"
     pagecolor="#ffffff"
     id="base"
     inkscape:zoom="2.8355256"
     inkscape:cx="304.41997"
     inkscape:cy="427.74195"
     inkscape:window-x="-4"
     inkscape:window-y="-4"
     inkscape:current-layer="layer1"
     showgrid="false"
     inkscape:grid-points="false"
     inkscape:grid-bbox="false"
     gridtolerance="0.5px" />
  <g
     inkscape:groupmode="layer"
     id="layer1"
     inkscape:label="Layer 1">
    <path
       style="fill:#0072c6;fill-opacity:1;fill-rule:evenodd;stroke:#000000;stroke-width:1.00608087;stroke-linecap:butt;stroke-linejoin:miter;stroke-miterlimit:4;stroke-dasharray:none;stroke-opacity:1"
       d="M 0.77849313,2.9265049 L 499.77569,2.9265049 L 480.13922,363.42567 C 480.13922,363.42567 450.10699,571.40595 251.43218,571.40595 C 51.60229,571.40595 23.880223,363.42567 23.880223,363.42567 L 0.77849313,2.9265049 z "
       id="path1364"
       sodipodi:nodetypes="ccczcc" />
    <path
       style="fill:#18111e;fill-opacity:1;fill-rule:evenodd;stroke:#18111e;stroke-width:1.00608087px;stroke-linecap:butt;stroke-linejoin:miter;stroke-opacity:1"
       d="M 80.532581,287.56041 C 64.706924,287.75151 51.052928,322.05786 50.174811,342.00365 C 49.163303,364.97931 75.012987,379.38633 75.012987,379.38633 C 74.214657,384.88592 79.41787,392.22957 80.694769,392.1513 C 84.787726,391.90042 88.561083,388.41838 88.561083,388.41838 C 88.561083,388.41838 83.304987,378.79845 85.801285,377.12831 C 86.864552,376.41693 106.89016,366.01839 104.11631,343.75988 C 101.54467,323.12414 98.346247,287.34185 80.532581,287.56041 z "
       id="path5068"
       sodipodi:nodetypes="cscscsss" />
    <path
       style="fill:#c25554;fill-opacity:1;fill-rule:evenodd;stroke:#18111e;stroke-width:1.00608087px;stroke-linecap:butt;stroke-linejoin:miter;stroke-opacity:1"
       d="M 67.862603,303.36651 C 67.737158,308.76065 55.945296,308.88611 55.945296,308.88611 C 55.945296,308.88611 55.06718,297.59604 66.984486,297.2197 L 67.862603,303.36651 z "
       id="path3252" />
    <path
       style="fill:#c25554;fill-opacity:1;fill-rule:evenodd;stroke:#18111e;stroke-width:1.00608087px;stroke-linecap:butt;stroke-linejoin:miter;stroke-opacity:1"
       d="M 59.896825,321.43063 C 51.241097,324.06498 52.60684,332.25666 50.300257,331.84258 C 49.001969,331.60952 42.3972,315.5347 55.882574,312.02223 L 59.896825,321.43063 z "
       id="path4177" />
    <path
       style="fill:#c25554;fill-opacity:1;fill-rule:evenodd;stroke:#18111e;stroke-width:1.00608087px;stroke-linecap:butt;stroke-linejoin:miter;stroke-opacity:1"
       d="M 51.680156,336.23316 C 51.680156,336.23316 44.372965,343.4149 46.725065,348.08774 C 49.077165,352.76058 58.238019,356.22937 60.335884,354.98723 C 61.586142,354.24696 55.945296,345.39066 58.830539,342.50543 L 51.680156,336.23316 z "
       id="path4175" />
    <path
       style="fill:#c25554;fill-opacity:1;fill-rule:evenodd;stroke:#18111e;stroke-width:1.00608087px;stroke-linecap:butt;stroke-linejoin:miter;stroke-opacity:1"
       d="M 66.670873,351.0357 C 66.670873,351.0357 62.405731,356.68074 64.851915,362.1376 C 67.298099,367.59447 72.385399,374.46795 73.19403,371.67144 C 73.570366,370.36995 72.754971,361.88671 75.138432,356.68074 L 66.670873,351.0357 z "
       id="path4173" />
    <path
       style="fill:#c25554;fill-opacity:1;fill-rule:evenodd;stroke:#18111e;stroke-width:1.00608087px;stroke-linecap:butt;stroke-linejoin:miter;stroke-opacity:1"
       d="M 124.38649,505.68815 C 120.39484,523.34009 134.85041,525.65546 134.85041,525.65546 C 134.85041,525.65546 131.21619,515.61768 133.34507,508.34402 L 124.38649,505.68815 z "
       id="path4171" />
    <path
       style="fill:#bb8f51;fill-opacity:1;fill-rule:evenodd;stroke:#18111e;stroke-width:1.5091213;stroke-linecap:butt;stroke-linejoin:miter;stroke-miterlimit:4;stroke-dasharray:none;stroke-opacity:1"
       d="M 73.256644,273.82288 C 72.238004,271.27988 73.493125,238.57627 85.333243,216.07439 C 97.17336,193.57251 114.1498,191.47273 119.739,183.56449 C 125.24337,175.77627 120.42317,151.47054 128.15242,154.63103 C 135.52979,157.64763 119.38777,176.04775 181.50624,215.24846 C 222.85736,241.34364 247.33932,269.11628 267.77655,311.31866 C 288.57251,354.26182 278.95742,419.27541 267.64003,442.84286 C 306.28788,402.69738 303.43707,365.552 290.55591,324.21113 C 277.09482,281.0091 228.06562,243.50488 230.08767,200.1227 C 232.10973,156.99141 283.3542,152.35188 296.53424,130.22766 C 301.62699,121.67891 302.19722,144.78202 291.65295,152.22605 C 307.58768,139.96467 314.27867,145.20051 331.2715,144.87891 C 348.0212,144.56192 348.744,140.68696 357.27182,135.52833 C 363.4533,131.78905 357.01357,150.37943 345.58452,153.6453 C 355.73206,151.1407 368.94778,150.3124 384.31388,161.76358 C 399.51874,173.09459 412.37411,166.02993 417.08456,166.95969 C 423.02296,168.13183 409.74972,176.80591 398.80646,178.48219 C 413.20316,178.40225 416.18465,183.18201 425.49677,195.24141 C 434.46363,206.85369 443.96828,205.8086 451.48358,206.11453 C 458.51944,206.40096 444.81257,218.37619 434.99739,214.67308 C 449.51861,222.63637 454.6941,251.54469 451.23639,261.30052 C 400.86212,234.67722 362.83906,221.82689 358.44388,238.14115 C 356.56636,245.11024 360.24687,255.81776 365.62471,261.58714 C 365.62471,261.58714 371.54713,248.1007 379.72502,249.14461 C 384.91984,249.80773 374.93548,262.8183 382.27928,274.29305 C 388.43853,283.91692 387.52363,296.29805 387.52363,296.29805 C 387.52363,296.29805 395.12124,284.54465 404.62713,285.80161 C 411.34021,286.68928 393.30516,296.65883 399.85105,314.36018 C 406.43524,332.16509 400.9547,338.41746 400.9547,338.41746 C 400.9547,338.41746 413.77854,327.20503 421.11238,331.6156 C 426.05374,334.58734 409.95112,336.59987 411.22238,359.07046 C 412.29174,377.97209 407.80002,386.23709 407.80002,386.23709 C 407.80002,386.23709 418.43503,377.7327 428.84935,382.88594 C 434.48134,385.67278 417.11308,384.97129 412.82728,409.4844 C 408.62659,433.51077 395.02194,438.91426 395.02194,438.91426 C 395.02194,438.91426 415.44411,437.83933 414.46202,450.60571 C 414.12114,455.03695 408.88077,444.48325 391.75694,455.01348 C 375.81446,464.81725 363.02397,479.60022 343.16537,486.18288 C 316.4305,495.04486 272.55634,487.74183 272.55634,487.74183 C 272.55634,487.74183 301.06562,506.8072 300.9667,516.9549 C 300.86777,527.1026 300.17161,529.94398 272.16062,528.33264 C 244.19565,526.72395 200.7572,520.45878 188.92272,520.92148 C 178.81825,521.31654 175.20909,526.53434 175.20909,526.53434 L 162.47554,523.36505 C 162.47554,523.36505 167.57833,511.14547 193.1268,508.06546 C 162.09943,511.38316 151.26685,518.57174 151.26685,518.57174 L 141.95409,517.04792 C 141.95409,517.04792 146.5014,500.62913 177.76638,502.54636 C 149.44483,499.1949 134.04193,508.65987 134.04193,508.65987 L 124.73093,505.30268 C 124.73093,505.30268 127.48621,499.09621 135.31819,495.32705 C 141.51691,492.3439 146.8889,493.17808 164.8957,493.32342 C 182.9025,493.46877 207.34539,495.90844 207.34539,495.90844 C 207.34539,495.90844 163.50907,473.98881 150.39926,465.33045 C 137.55263,456.8459 111.24487,436.82601 113.30746,391.72092 C 115.37005,345.86317 162.52059,349.66138 162.52059,349.66138 C 162.52059,349.66138 143.18294,342.71789 119.91366,342.04047 C 93.875099,341.28243 75.193837,357.01965 75.193837,357.01965 L 66.967136,351.00312 C 66.967136,351.00312 79.524076,339.10505 88.939953,336.25388 C 73.266764,335.53529 58.968543,342.60916 58.968543,342.60916 L 51.585418,336.20852 C 51.545958,336.26998 62.456703,327.61749 81.06065,325.77033 C 70.561281,320.4107 59.825346,321.342 59.766074,321.29316 L 55.964909,311.93062 C 56.06199,312.05906 68.163698,310.47085 85.287223,313.91254 C 84.457686,309.03598 67.952041,303.68221 67.952041,303.68221 L 67.045584,297.17214 C 67.045584,297.17214 74.527712,297.19747 78.840079,298.21576 C 83.271355,299.26213 97.554647,306.67646 115.90728,308.27023 C 134.13446,309.864 152.37604,306.09619 152.37604,306.09619 C 152.37604,306.09619 138.25418,286.96146 124.33654,281.40294 C 124.34332,281.36401 106.55881,284.56539 96.705442,283.86211 C 83.602569,282.92689 73.860478,275.33034 73.256644,273.82288 z "
       id="path2373"
       sodipodi:nodetypes="czzzszczzscsscsscssccscsscszcsscszcsszcsssccccccccssczzczccccccccccczzccsz" />
    <path
       style="fill:#18111e;fill-opacity:1;fill-rule:evenodd;stroke:#3e2d1b;stroke-width:2.01216173;stroke-linecap:butt;stroke-linejoin:miter;stroke-miterlimit:4;stroke-dasharray:none;stroke-opacity:1"
       d="M 99.876537,235.07481 C 99.876537,235.07481 97.698227,225.98927 101.24636,220.48967 C 104.79448,214.99008 114.06906,213.07643 114.06906,213.07643 C 114.06906,213.07643 116.37534,225.67228 112.82721,231.17188 C 109.27908,236.67147 99.876537,235.07481 99.876537,235.07481 z "
       id="path2375"
       sodipodi:nodetypes="cscsc" />
    <path
       style="fill:#ffffff;fill-opacity:1;fill-rule:evenodd;stroke:none;stroke-width:1px;stroke-linecap:butt;stroke-linejoin:miter;stroke-opacity:1"
       d="M 104.4891,219.46305 C 103.55772,220.7049 101.90561,225.35464 103.95688,224.25303 C 108.74685,221.68064 110.65398,226.73672 111.58536,225.49487 C 112.51675,224.25303 110.52093,221.14842 108.74685,219.64046 C 106.97279,218.13251 105.42049,218.2212 104.4891,219.46305 z "
       id="path2377"
       sodipodi:nodetypes="cssss" />
    <path
       style="fill:#3e2d1b;fill-opacity:1;fill-rule:evenodd;stroke:#3e2d1b;stroke-width:1.00608087px;stroke-linecap:butt;stroke-linejoin:miter;stroke-opacity:1"
       d="M 148.13109,370.25845 C 148.13109,370.25845 138.01893,384.98317 136.77708,399.53049 C 135.57729,413.58514 141.74446,426.31885 141.74446,426.31885 C 141.74446,426.31885 131.8097,418.51297 133.05155,398.64346 C 134.26102,379.29192 148.13109,370.25845 148.13109,370.25845 z "
       id="path4129"
       sodipodi:nodetypes="csczc" />
    <path
       style="fill:#3e2d1b;fill-opacity:1;fill-rule:evenodd;stroke:#3e2d1b;stroke-width:1.00608087px;stroke-linecap:butt;stroke-linejoin:miter;stroke-opacity:1"
       d="M 165.30453,385.33799 C 165.30453,385.33799 157.67606,399.88531 156.43421,414.43263 C 155.23442,428.48727 159.80493,441.22099 159.80493,441.22099 C 159.80493,441.22099 151.46683,433.4151 152.70867,413.5456 C 153.91814,394.19405 165.30453,385.33799 165.30453,385.33799 z "
       id="path4131"
       sodipodi:nodetypes="csczc" />
    <path
       style="fill:#3e2d1b;fill-opacity:1;fill-rule:evenodd;stroke:#3e2d1b;stroke-width:1.00608087px;stroke-linecap:butt;stroke-linejoin:miter;stroke-opacity:1"
       d="M 180.92565,401.21585 C 180.92565,401.21585 175.24865,410.61839 174.0068,425.16571 C 172.80701,439.22035 174.71642,449.82519 174.71642,449.82519 C 174.71642,449.82519 169.03942,444.14818 170.28126,424.27867 C 171.49073,404.92713 180.92565,401.21585 180.92565,401.21585 z "
       id="path4133"
       sodipodi:nodetypes="csczc" />
    <path
       style="fill:#3e2d1b;fill-opacity:1;fill-rule:evenodd;stroke:#3e2d1b;stroke-width:1.00608087px;stroke-linecap:butt;stroke-linejoin:miter;stroke-opacity:1"
       d="M 195.58745,419.4 C 195.58745,419.4 193.10375,428.09292 191.86191,442.64024 C 190.66212,456.69488 195.58744,464.1064 195.58744,464.1064 C 195.58744,464.1064 186.89452,461.62271 188.13637,441.75321 C 189.34584,422.40166 195.58745,419.4 195.58745,419.4 z "
       id="path4135"
       sodipodi:nodetypes="csczc" />
    <path
       style="fill:#3e2d1b;fill-opacity:1;fill-rule:evenodd;stroke:#3e2d1b;stroke-width:1.00608087px;stroke-linecap:butt;stroke-linejoin:miter;stroke-opacity:1"
       d="M 210.88609,435.00132 C 210.88609,435.00132 208.54441,444.6934 208.28957,452.34563 C 207.99579,461.16677 212.26598,470.80111 212.26598,470.80111 C 212.26598,470.80111 204.60901,462.15443 205.3167,451.33315 C 206.02438,440.38644 210.88609,435.00132 210.88609,435.00132 z "
       id="path4137"
       sodipodi:nodetypes="csczc" />
    <path
       style="fill:#3e2d1b;fill-opacity:1;fill-rule:evenodd;stroke:#3e2d1b;stroke-width:1.00608087px;stroke-linecap:butt;stroke-linejoin:miter;stroke-opacity:1"
       d="M 378.14588,445.0623 C 378.14588,445.0623 355.61526,458.19036 339.29387,463.15774 C 325.79925,467.26479 299.3774,469.18956 299.3774,469.18956 C 299.3774,469.18956 322.55326,472.54322 345.14828,465.64143 C 367.69316,458.75496 378.14588,445.0623 378.14588,445.0623 z "
       id="path4139"
       sodipodi:nodetypes="csczc" />
    <path
       style="fill:#3e2d1b;fill-opacity:1;fill-rule:evenodd;stroke:#3e2d1b;stroke-width:1.00608087px;stroke-linecap:butt;stroke-linejoin:miter;stroke-opacity:1"
       d="M 385.0922,417.12199 C 385.0922,417.12199 371.26813,429.92858 354.7557,438.58816 C 338.78106,446.96571 311.2911,450.6518 311.2911,450.6518 C 311.2911,450.6518 337.41809,452.89965 356.52977,442.66851 C 375.77949,432.36347 385.0922,417.12199 385.0922,417.12199 z "
       id="path4141"
       sodipodi:nodetypes="csczc" />
    <path
       style="fill:#3e2d1b;fill-opacity:1;fill-rule:evenodd;stroke:#3e2d1b;stroke-width:1.00608087px;stroke-linecap:butt;stroke-linejoin:miter;stroke-opacity:1"
       d="M 388.2435,391.83147 C 388.2435,391.83147 375.97108,406.13186 360.55465,416.6191 C 345.64032,426.7648 321.58905,432.49925 321.58905,432.49925 C 321.58905,432.49925 344.96338,432.81551 362.78275,420.47036 C 380.73082,408.03606 388.2435,391.83147 388.2435,391.83147 z "
       id="path4143"
       sodipodi:nodetypes="csczc" />
    <path
       style="fill:#3e2d1b;fill-opacity:1;fill-rule:evenodd;stroke:#3e2d1b;stroke-width:1.00608087px;stroke-linecap:butt;stroke-linejoin:miter;stroke-opacity:1"
       d="M 387.01633,364.28327 C 387.01633,364.28327 371.49361,384.32139 357.79723,396.97278 C 344.54695,409.21217 327.10752,414.35938 327.10752,414.35938 C 327.10752,414.35938 344.77209,415.29646 360.57028,400.45227 C 376.48259,385.50089 387.01633,364.28327 387.01633,364.28327 z "
       id="path4145"
       sodipodi:nodetypes="csczc" />
    <path
       style="fill:#3e2d1b;fill-opacity:1;fill-rule:evenodd;stroke:#3e2d1b;stroke-width:1.00608087px;stroke-linecap:butt;stroke-linejoin:miter;stroke-opacity:1"
       d="M 382.95013,341.05087 C 382.95013,341.05087 376.41472,354.40856 364.40311,368.66935 C 352.78272,382.46568 331.17361,394.48207 331.17361,394.48207 C 331.17361,394.48207 353.76492,388.47439 367.58845,371.77582 C 381.51183,354.95665 382.95013,341.05087 382.95013,341.05087 z "
       id="path4147"
       sodipodi:nodetypes="csczc" />
    <path
       style="fill:#3e2d1b;fill-opacity:1;fill-rule:evenodd;stroke:#3e2d1b;stroke-width:1.00608087px;stroke-linecap:butt;stroke-linejoin:miter;stroke-opacity:1"
       d="M 375.93951,316.26927 C 375.93951,316.26927 370.03177,330.26684 359.66805,345.76659 C 349.64188,360.76151 330.91078,373.13872 330.91078,373.13872 C 330.91078,373.13872 351.28146,366.62506 363.17689,348.50239 C 375.15824,330.24884 375.93951,316.26927 375.93951,316.26927 z "
       id="path4149"
       sodipodi:nodetypes="csczc" />
    <path
       style="fill:#3e2d1b;fill-opacity:1;fill-rule:evenodd;stroke:#3e2d1b;stroke-width:1.00608087px;stroke-linecap:butt;stroke-linejoin:miter;stroke-opacity:1"
       d="M 364.87289,301.44811 C 364.87289,301.44811 359.40161,313.16373 352.7171,323.61903 C 345.70519,334.58642 329.02673,349.99492 329.02673,349.99492 C 329.02673,349.99492 348.3724,339.69954 356.39923,326.11675 C 364.48581,312.43283 364.87289,301.44811 364.87289,301.44811 z "
       id="path4151"
       sodipodi:nodetypes="csczc" />
    <path
       style="fill:#3e2d1b;fill-opacity:1;fill-rule:evenodd;stroke:#3e2d1b;stroke-width:1.00608087px;stroke-linecap:butt;stroke-linejoin:miter;stroke-opacity:1"
       d="M 355.62652,280.71358 C 355.62652,280.71358 351.70328,293.62521 345.02813,303.98428 C 337.97715,314.92659 327.80611,324.95861 327.80611,324.95861 C 327.80611,324.95861 340.75431,316.21093 347.34392,306.45793 C 353.85098,296.82707 355.62652,280.71358 355.62652,280.71358 z "
       id="path4153"
       sodipodi:nodetypes="csczc" />
    <path
       style="fill:#3e2d1b;fill-opacity:1;fill-rule:evenodd;stroke:#3e2d1b;stroke-width:1.00608087px;stroke-linecap:butt;stroke-linejoin:miter;stroke-opacity:1"
       d="M 345.60304,267.31941 C 345.60304,267.31941 343.09906,273.66701 337.84316,284.02607 C 331.95328,295.63468 323.99186,304.29078 323.99186,304.29078 C 323.99186,304.29078 334.1808,298.08863 339.09451,288.27378 C 344.00491,278.46552 345.60304,267.31941 345.60304,267.31941 z "
       id="path4155"
       sodipodi:nodetypes="csczc" />
    <path
       style="fill:#3e2d1b;fill-opacity:1;fill-rule:evenodd;stroke:#3e2d1b;stroke-width:1.00608087px;stroke-linecap:butt;stroke-linejoin:miter;stroke-opacity:1"
       d="M 337.69417,244.32017 C 337.69417,244.32017 336.69552,252.17311 331.43962,262.53218 C 325.54974,274.14079 319.97179,279.91165 319.97179,279.91165 C 319.97179,279.91165 327.15004,275.34029 332.06375,265.52544 C 336.97415,255.71717 337.69417,244.32017 337.69417,244.32017 z M 318.12604,254.94466 C 322.64207,250.05229 324.3983,241.14568 324.3983,241.14568 C 324.3983,241.14568 324.21014,246.4771 322.64207,249.92685 C 321.07402,253.37658 318.12604,254.94466 318.12604,254.94466 z "
       id="path4169"
       sodipodi:nodetypes="csczcccsc" />
    <path
       style="fill:#c25554;fill-opacity:1;fill-rule:evenodd;stroke:#18111e;stroke-width:1.00608087px;stroke-linecap:butt;stroke-linejoin:miter;stroke-opacity:1"
       d="M 141.73969,516.65848 C 137.74804,534.31042 156.81618,534.94044 156.81618,534.94044 C 156.81618,534.94044 150.96438,525.70099 151.40789,518.42733 L 141.73969,516.65848 z "
       id="path4191"
       sodipodi:nodetypes="cccc" />
    <path
       style="fill:#c25554;fill-opacity:1;fill-rule:evenodd;stroke:#18111e;stroke-width:1.00608087px;stroke-linecap:butt;stroke-linejoin:miter;stroke-opacity:1"
       d="M 162.40754,523.66603 C 158.41589,541.31796 180.32253,543.18982 180.32253,543.18982 C 180.32253,543.18982 172.69666,533.95037 174.82554,526.67671 L 162.40754,523.66603 z "
       id="path4193"
       sodipodi:nodetypes="cccc" />
    <path
       style="fill:#b6aeb1;fill-opacity:1;fill-rule:evenodd;stroke:#483827;stroke-width:1.00608051px;stroke-linecap:butt;stroke-linejoin:miter;stroke-opacity:1"
       d="M 101.83818,97.921062 L 88.135679,98.017005 L 88.088823,121.48887 C 88.088823,121.48887 92.056489,131.06656 95.624345,131.21941 C 99.192203,131.37224 102.41645,122.05889 102.41645,122.05889 L 101.83818,97.921062 z "
       id="path6002"
       sodipodi:nodetypes="cccscc" />
    <path
       style="fill:#b6aeb1;fill-opacity:1;fill-rule:evenodd;stroke:#483827;stroke-width:1.00608051px;stroke-linecap:butt;stroke-linejoin:miter;stroke-opacity:1"
       d="M 79.829575,62.813215 L 89.232117,56.692699 L 75.394414,35.403948 C 75.394414,35.403948 67.544179,30.990968 64.483919,32.831558 C 61.423658,34.672147 63.064667,43.38723 63.064667,43.38723 L 79.829575,62.813215 z "
       id="path5993"
       sodipodi:nodetypes="cccscc" />
    <path
       style="fill:#b6aeb1;fill-opacity:1;fill-rule:evenodd;stroke:#483827;stroke-width:1.00608051px;stroke-linecap:butt;stroke-linejoin:miter;stroke-opacity:1"
       d="M 113.18402,61.884578 L 103.78148,55.764062 L 117.61919,34.475311 C 117.61919,34.475311 125.82424,30.505846 128.8845,32.346436 C 131.94476,34.187026 128.8845,44.498765 128.8845,44.498765 L 113.18402,61.884578 z "
       id="path5995"
       sodipodi:nodetypes="cccscc" />
    <path
       style="fill:#b6aeb1;fill-opacity:1;fill-rule:evenodd;stroke:#483827;stroke-width:1.00608051px;stroke-linecap:butt;stroke-linejoin:miter;stroke-opacity:1"
       d="M 118.87423,77.898649 L 113.46536,87.727808 L 135.70239,99.983753 C 135.70239,99.983753 144.80987,99.618315 146.64167,96.552794 C 148.47347,93.48727 140.91501,85.83437 140.91501,85.83437 L 118.87423,77.898649 z "
       id="path5997"
       sodipodi:nodetypes="cccscc" />
    <path
       style="fill:#b6aeb1;fill-opacity:1;fill-rule:evenodd;stroke:#483827;stroke-width:1.00608051px;stroke-linecap:butt;stroke-linejoin:miter;stroke-opacity:1"
       d="M 76.031055,86.356742 L 72.643438,75.661308 L 49.408434,82.691121 C 49.408434,82.691121 42.416434,90.159246 43.373049,93.599857 C 44.329666,97.040468 55.084151,96.844771 55.084151,96.844771 L 76.031055,86.356742 z "
       id="path5999"
       sodipodi:nodetypes="cccscc" />
    <path
       id="path5073"
       style="fill:#bb8f51;fill-opacity:1;fill-rule:evenodd;stroke:#3e2d1b;stroke-width:1.00608051px;stroke-linecap:butt;stroke-linejoin:miter;stroke-opacity:1"
       d="M 74.679518,83.511659 C 76.906893,91.721062 56.836889,85.779755 53.318973,98.160595 C 51.236741,105.48865 62.913119,108.90549 68.600286,113.05925 C 75.099907,117.80643 81.094849,127.29627 87.441993,123.0832 C 98.165555,115.96518 86.701537,98.649611 95.190954,98.877055 C 103.7124,99.105355 91.461748,115.89626 101.86001,123.48159 C 108.01461,127.97125 114.42339,118.75583 121.12661,114.30075 C 126.99192,110.40259 138.80799,107.50551 137.0519,100.09253 C 134.08499,87.56822 114.74987,92.477852 117.70816,84.41498 C 120.67066,76.340601 132.10312,93.092592 142.43795,85.42106 C 148.55501,80.880374 141.66282,72.020678 139.40314,64.295755 C 137.42592,57.536447 138.17444,45.393466 130.57461,44.86521 C 117.73466,43.972713 116.56383,64.543083 109.65951,59.316078 C 102.72931,54.069485 122.16961,47.19002 117.70816,35.11706 C 115.06748,27.971223 104.6291,32.098819 96.580456,32.09882 C 89.537889,32.09882 78.093439,27.971223 75.452755,35.11706 C 70.991295,47.19002 90.417097,54.392998 83.501403,59.074523 C 76.482546,63.825883 76.35479,43.03725 63.484492,43.1657 C 55.866709,43.241727 55.892828,55.407728 53.517709,62.037695 C 50.803281,69.614799 43.397142,78.049582 49.233772,82.945504 C 59.094802,91.217208 72.453251,75.306339 74.679518,83.511659 z "
       sodipodi:nodetypes="cssssssssssssssssssss" />
    <path
       style="fill:#b6aeb1;fill-opacity:1;fill-rule:evenodd;stroke:#3e2d1b;stroke-width:1.00608051px;stroke-linecap:butt;stroke-linejoin:miter;stroke-opacity:1"
       d="M 70.789623,69.294113 C 70.789623,69.294113 78.49437,74.157959 80.239671,81.229282 C 81.984972,88.300605 77.770828,97.579404 77.770828,97.579404 C 77.770828,97.579404 86.570737,92.691108 94.997935,92.655744 C 103.42514,92.62038 111.47962,97.437948 111.47962,97.437948 C 111.47962,97.437948 107.7774,88.951781 109.82801,82.112886 C 111.8786,75.273992 119.682,70.082369 119.682,70.082369 C 119.682,70.082369 110.40085,70.082436 104.41102,65.446674 C 98.421187,60.81091 95.722656,51.539317 95.722656,51.539317 C 95.722656,51.539317 92.300859,61.023407 86.067602,65.462106 C 79.834343,69.900805 70.789623,69.294113 70.789623,69.294113 z "
       id="path5108"
       sodipodi:nodetypes="czczczcscsc" />
    <path
       sodipodi:type="arc"
       style="color:#000000;fill:#bb8f51;fill-opacity:1;fill-rule:evenodd;stroke:#3e2d1b;stroke-width:1;stroke-linecap:round;stroke-linejoin:round;marker:none;marker-start:none;marker-mid:none;marker-end:none;stroke-miterlimit:4;stroke-dasharray:none;stroke-dashoffset:0;stroke-opacity:1;visibility:visible;display:inline;overflow:visible"
       id="path5102"
       sodipodi:cx="97.5"
       sodipodi:cy="78.862183"
       sodipodi:rx="15.5"
       sodipodi:ry="15.5"
       d="M 113,78.862183 A 15.5,15.5 0 1 1 112.97194,77.929875"
       sodipodi:start="0"
       sodipodi:end="6.2230001"
       sodipodi:open="true"
       transform="matrix(1.006081,0,0,1.00608,-2.814978,-2.057948)" />
    <path
       style="fill:none;fill-opacity:0.75;fill-rule:evenodd;stroke:#3e2d1b;stroke-width:1.00608051px;stroke-linecap:butt;stroke-linejoin:miter;stroke-opacity:1"
       d="M 55.7023,82.416606 C 56.855442,75.054247 61.021191,75.50318 63.992749,67.054207 C 66.964307,58.605234 63.074696,52.288202 67.588532,48.620714"
       id="path5983"
       sodipodi:nodetypes="csc" />
    <path
       style="fill:none;fill-opacity:0.75;fill-rule:evenodd;stroke:#3e2d1b;stroke-width:1.00608051px;stroke-linecap:butt;stroke-linejoin:miter;stroke-opacity:1"
       d="M 78.593675,38.905821 C 85.931598,37.606177 86.859466,41.692011 95.815518,41.759488 C 104.77156,41.826962 109.48358,36.097132 114.41789,39.175733"
       id="path5985"
       sodipodi:nodetypes="csc" />
    <path
       style="fill:none;fill-opacity:0.75;fill-rule:evenodd;stroke:#3e2d1b;stroke-width:1.00608051px;stroke-linecap:butt;stroke-linejoin:miter;stroke-opacity:1"
       d="M 126.81717,50.16751 C 129.73493,57.024682 125.96273,58.84829 127.91261,67.589759 C 129.86248,76.331227 136.50579,79.632812 134.61667,85.133396"
       id="path5987"
       sodipodi:nodetypes="csc" />
    <path
       style="fill:none;fill-opacity:0.75;fill-rule:evenodd;stroke:#3e2d1b;stroke-width:1.00608051px;stroke-linecap:butt;stroke-linejoin:miter;stroke-opacity:1"
       d="M 131.9096,97.707756 C 126.5282,102.86281 123.48795,99.979759 116.00169,104.89617 C 108.51541,109.81259 107.7777,117.19431 101.96452,117.37342"
       id="path5989"
       sodipodi:nodetypes="csc" />
    <path
       style="fill:none;fill-opacity:0.75;fill-rule:evenodd;stroke:#3e2d1b;stroke-width:1.00608051px;stroke-linecap:butt;stroke-linejoin:miter;stroke-opacity:1"
       d="M 87.581893,118.08927 C 81.105898,114.40205 83.00188,110.66569 76.15417,104.89299 C 69.306448,99.120275 62.021,100.51898 60.191024,94.99844"
       id="path5991"
       sodipodi:nodetypes="csc" />
    <path
       style="fill:#b4acae;fill-opacity:1;fill-rule:evenodd;stroke:#483827;stroke-width:1.00608051px;stroke-linecap:butt;stroke-linejoin:miter;stroke-opacity:1"
       d="M 255.09841,94.924126 L 241.3959,95.020069 L 241.34904,118.49194 C 241.34904,118.49194 245.31671,128.06963 248.88457,128.22247 C 252.45242,128.37531 255.67667,119.06195 255.67667,119.06195 L 255.09841,94.924126 z "
       id="path6075"
       sodipodi:nodetypes="cccscc" />
    <path
       style="fill:#b4acae;fill-opacity:1;fill-rule:evenodd;stroke:#483827;stroke-width:1.00608051px;stroke-linecap:butt;stroke-linejoin:miter;stroke-opacity:1"
       d="M 233.0898,59.816279 L 242.49234,53.695763 L 228.65463,32.407012 C 228.65463,32.407012 220.8044,27.994032 217.74414,29.834622 C 214.68388,31.675211 216.32489,40.390294 216.32489,40.390294 L 233.0898,59.816279 z "
       id="path6077"
       sodipodi:nodetypes="cccscc" />
    <path
       style="fill:#b4acae;fill-opacity:1;fill-rule:evenodd;stroke:#483827;stroke-width:1.00608051px;stroke-linecap:butt;stroke-linejoin:miter;stroke-opacity:1"
       d="M 266.44424,58.887642 L 257.0417,52.767126 L 270.87941,31.478375 C 270.87941,31.478375 279.08446,27.50891 282.14472,29.3495 C 285.20498,31.19009 282.14472,41.501829 282.14472,41.501829 L 266.44424,58.887642 z "
       id="path6079"
       sodipodi:nodetypes="cccscc" />
    <path
       style="fill:#b4acae;fill-opacity:1;fill-rule:evenodd;stroke:#483827;stroke-width:1.00608051px;stroke-linecap:butt;stroke-linejoin:miter;stroke-opacity:1"
       d="M 272.13446,74.901713 L 266.72558,84.730872 L 288.96261,96.986817 C 288.96261,96.986817 298.07009,96.621379 299.90189,93.555858 C 301.73369,90.490334 294.17523,82.837434 294.17523,82.837434 L 272.13446,74.901713 z "
       id="path6081"
       sodipodi:nodetypes="cccscc" />
    <path
       style="fill:#b4acae;fill-opacity:1;fill-rule:evenodd;stroke:#483827;stroke-width:1.00608051px;stroke-linecap:butt;stroke-linejoin:miter;stroke-opacity:1"
       d="M 229.29128,83.359806 L 225.90366,72.664372 L 202.66865,79.694185 C 202.66865,79.694185 195.67665,87.16231 196.63327,90.602921 C 197.58989,94.043532 208.34437,93.847835 208.34437,93.847835 L 229.29128,83.359806 z "
       id="path6083"
       sodipodi:nodetypes="cccscc" />
    <path
       id="path6085"
       style="fill:#bb8f51;fill-opacity:1;fill-rule:evenodd;stroke:#3e2d1b;stroke-width:1.00608051px;stroke-linecap:butt;stroke-linejoin:miter;stroke-opacity:1"
       d="M 227.93974,80.514723 C 230.16711,88.724126 210.09711,82.782819 206.57919,95.163659 C 204.49696,102.49171 216.17334,105.90855 221.86051,110.06232 C 228.36013,114.80949 234.35507,124.29933 240.70221,120.08626 C 251.42577,112.96825 239.96176,95.652675 248.45117,95.880119 C 256.97262,96.108419 244.72197,112.89932 255.12023,120.48465 C 261.27483,124.97431 267.68361,115.75889 274.38683,111.30382 C 280.25214,107.40565 292.06821,104.50857 290.31212,97.095595 C 287.34521,84.571284 268.01009,89.480916 270.96838,81.418044 C 273.93088,73.343665 285.36334,90.095656 295.69817,82.424124 C 301.81523,77.883438 294.92304,69.023742 292.66336,61.298819 C 290.68614,54.539511 291.43466,42.39653 283.83484,41.868274 C 270.99488,40.975777 269.82405,61.546147 262.91973,56.319142 C 255.98953,51.072549 275.42983,44.193084 270.96838,32.120124 C 268.3277,24.974287 257.88932,29.101883 249.84068,29.101884 C 242.79811,29.101884 231.35366,24.974287 228.71298,32.120124 C 224.25151,44.193084 243.67732,51.396062 236.76162,56.077587 C 229.74277,60.828947 229.61501,40.040314 216.74471,40.168764 C 209.12693,40.244791 209.15305,52.410792 206.77793,59.040759 C 204.0635,66.617863 196.65736,75.052646 202.49399,79.948568 C 212.35502,88.220272 225.71347,72.309403 227.93974,80.514723 z "
       sodipodi:nodetypes="cssssssssssssssssssss" />
    <path
       style="fill:#b4acae;fill-opacity:1;fill-rule:evenodd;stroke:#3e2d1b;stroke-width:1.00608051px;stroke-linecap:butt;stroke-linejoin:miter;stroke-opacity:1"
       d="M 224.04984,66.297177 C 224.04984,66.297177 231.75459,71.161023 233.49989,78.232346 C 235.24519,85.303669 231.03105,94.582468 231.03105,94.582468 C 231.03105,94.582468 239.83096,89.694172 248.25815,89.658808 C 256.68536,89.623444 264.73984,94.441012 264.73984,94.441012 C 264.73984,94.441012 261.03762,85.954845 263.08823,79.11595 C 265.13882,72.277056 272.94222,67.085433 272.94222,67.085433 C 272.94222,67.085433 263.66107,67.0855 257.67124,62.449738 C 251.68141,57.813974 248.98288,48.542381 248.98288,48.542381 C 248.98288,48.542381 245.56108,58.026471 239.32782,62.46517 C 233.09456,66.903869 224.04984,66.297177 224.04984,66.297177 z "
       id="path6087"
       sodipodi:nodetypes="czczczcscsc" />
    <path
       sodipodi:type="arc"
       style="color:#000000;fill:#bb8f51;fill-opacity:1;fill-rule:evenodd;stroke:#3e2d1b;stroke-width:1;stroke-linecap:round;stroke-linejoin:round;marker:none;marker-start:none;marker-mid:none;marker-end:none;stroke-miterlimit:4;stroke-dasharray:none;stroke-dashoffset:0;stroke-opacity:1;visibility:visible;display:inline;overflow:visible"
       id="path6089"
       sodipodi:cx="97.5"
       sodipodi:cy="78.862183"
       sodipodi:rx="15.5"
       sodipodi:ry="15.5"
       d="M 113,78.862183 A 15.5,15.5 0 1 1 112.97194,77.929875"
       sodipodi:start="0"
       sodipodi:end="6.2230001"
       sodipodi:open="true"
       transform="matrix(1.006081,0,0,1.00608,150.4452,-5.054884)" />
    <path
       style="fill:none;fill-opacity:0.75;fill-rule:evenodd;stroke:#3e2d1b;stroke-width:1.00608051px;stroke-linecap:butt;stroke-linejoin:miter;stroke-opacity:1"
       d="M 208.96252,79.41967 C 210.11566,72.057311 214.28141,72.506244 217.25297,64.057271 C 220.22453,55.608298 216.33492,49.291266 220.84875,45.623778"
       id="path6091"
       sodipodi:nodetypes="csc" />
    <path
       style="fill:none;fill-opacity:0.75;fill-rule:evenodd;stroke:#3e2d1b;stroke-width:1.00608051px;stroke-linecap:butt;stroke-linejoin:miter;stroke-opacity:1"
       d="M 231.8539,35.908885 C 239.19182,34.609241 240.11969,38.695075 249.07574,38.762552 C 258.03179,38.830026 262.7438,33.100196 267.67811,36.178797"
       id="path6093"
       sodipodi:nodetypes="csc" />
    <path
       style="fill:none;fill-opacity:0.75;fill-rule:evenodd;stroke:#3e2d1b;stroke-width:1.00608051px;stroke-linecap:butt;stroke-linejoin:miter;stroke-opacity:1"
       d="M 280.07739,47.170574 C 282.99515,54.027746 279.22295,55.851354 281.17283,64.592823 C 283.1227,73.334291 289.76601,76.635876 287.87689,82.13646"
       id="path6095"
       sodipodi:nodetypes="csc" />
    <path
       style="fill:none;fill-opacity:0.75;fill-rule:evenodd;stroke:#3e2d1b;stroke-width:1.00608051px;stroke-linecap:butt;stroke-linejoin:miter;stroke-opacity:1"
       d="M 285.16982,94.71082 C 279.78842,99.865876 276.74817,96.982823 269.26191,101.89923 C 261.77563,106.81566 261.03792,114.19737 255.22474,114.37649"
       id="path6097"
       sodipodi:nodetypes="csc" />
    <path
       style="fill:none;fill-opacity:0.75;fill-rule:evenodd;stroke:#3e2d1b;stroke-width:1.00608051px;stroke-linecap:butt;stroke-linejoin:miter;stroke-opacity:1"
       d="M 240.84211,115.09233 C 234.36612,111.40511 236.2621,107.66875 229.41439,101.89605 C 222.56667,96.123339 215.28122,97.522042 213.45124,92.001504"
       id="path6099"
       sodipodi:nodetypes="csc" />
    <path
       style="fill:#b4acae;fill-opacity:1;fill-rule:evenodd;stroke:#483827;stroke-width:1.00608051px;stroke-linecap:butt;stroke-linejoin:miter;stroke-opacity:1"
       d="M 407.66801,96.698189 L 393.9655,96.794132 L 393.91864,120.266 C 393.91864,120.266 397.88631,129.84369 401.45417,129.99654 C 405.02202,130.14937 408.24627,120.83602 408.24627,120.83602 L 407.66801,96.698189 z "
       id="path6103"
       sodipodi:nodetypes="cccscc" />
    <path
       style="fill:#b4acae;fill-opacity:1;fill-rule:evenodd;stroke:#483827;stroke-width:1.00608051px;stroke-linecap:butt;stroke-linejoin:miter;stroke-opacity:1"
       d="M 385.6594,61.590342 L 395.06194,55.469826 L 381.22423,34.181075 C 381.22423,34.181075 373.374,29.768095 370.31374,31.608685 C 367.25348,33.449274 368.89449,42.164357 368.89449,42.164357 L 385.6594,61.590342 z "
       id="path6105"
       sodipodi:nodetypes="cccscc" />
    <path
       style="fill:#b4acae;fill-opacity:1;fill-rule:evenodd;stroke:#483827;stroke-width:1.00608051px;stroke-linecap:butt;stroke-linejoin:miter;stroke-opacity:1"
       d="M 419.01384,60.661705 L 409.6113,54.541189 L 423.44901,33.252438 C 423.44901,33.252438 431.65406,29.282973 434.71432,31.123563 C 437.77458,32.964153 434.71432,43.275892 434.71432,43.275892 L 419.01384,60.661705 z "
       id="path6107"
       sodipodi:nodetypes="cccscc" />
    <path
       style="fill:#b4acae;fill-opacity:1;fill-rule:evenodd;stroke:#483827;stroke-width:1.00608051px;stroke-linecap:butt;stroke-linejoin:miter;stroke-opacity:1"
       d="M 424.70406,76.675776 L 419.29518,86.504935 L 441.53221,98.76088 C 441.53221,98.76088 450.63969,98.395442 452.47149,95.329921 C 454.30329,92.264397 446.74483,84.611497 446.74483,84.611497 L 424.70406,76.675776 z "
       id="path6109"
       sodipodi:nodetypes="cccscc" />
    <path
       style="fill:#b4acae;fill-opacity:1;fill-rule:evenodd;stroke:#483827;stroke-width:1.00608051px;stroke-linecap:butt;stroke-linejoin:miter;stroke-opacity:1"
       d="M 381.86088,85.133869 L 378.47326,74.438435 L 355.23825,81.468248 C 355.23825,81.468248 348.24625,88.936373 349.20287,92.376984 C 350.15949,95.817595 360.91397,95.621898 360.91397,95.621898 L 381.86088,85.133869 z "
       id="path6111"
       sodipodi:nodetypes="cccscc" />
    <path
       id="path6113"
       style="fill:#bb8f51;fill-opacity:1;fill-rule:evenodd;stroke:#3e2d1b;stroke-width:1.00608051px;stroke-linecap:butt;stroke-linejoin:miter;stroke-opacity:1"
       d="M 380.50934,82.288786 C 382.73671,90.498189 362.66671,84.556882 359.14879,96.937722 C 357.06656,104.26578 368.74294,107.68262 374.43011,111.83638 C 380.92973,116.58356 386.92467,126.0734 393.27181,121.86033 C 403.99537,114.74231 392.53136,97.426738 401.02077,97.654182 C 409.54222,97.882482 397.29157,114.67338 407.68983,122.25871 C 413.84443,126.74838 420.25321,117.53295 426.95643,113.07788 C 432.82174,109.17971 444.63781,106.28264 442.88172,98.869658 C 439.91481,86.345347 420.57969,91.254979 423.53798,83.192107 C 426.50048,75.117728 437.93294,91.869719 448.26777,84.198187 C 454.38483,79.657501 447.49264,70.797805 445.23296,63.072882 C 443.25574,56.313574 444.00426,44.170593 436.40444,43.642337 C 423.56448,42.74984 422.39365,63.32021 415.48933,58.093205 C 408.55913,52.846612 427.99943,45.967147 423.53798,33.894187 C 420.8973,26.74835 410.45892,30.875946 402.41028,30.875947 C 395.36771,30.875947 383.92326,26.74835 381.28258,33.894187 C 376.82111,45.967147 396.24692,53.170125 389.33122,57.85165 C 382.31237,62.60301 382.18461,41.814377 369.31431,41.942827 C 361.69653,42.018854 361.72265,54.184855 359.34753,60.814822 C 356.6331,68.391926 349.22696,76.826709 355.06359,81.722631 C 364.92462,89.994335 378.28307,74.083466 380.50934,82.288786 z "
       sodipodi:nodetypes="cssssssssssssssssssss" />
    <path
       style="fill:#b4acae;fill-opacity:1;fill-rule:evenodd;stroke:#3e2d1b;stroke-width:1.00608051px;stroke-linecap:butt;stroke-linejoin:miter;stroke-opacity:1"
       d="M 376.61944,68.07124 C 376.61944,68.07124 384.32419,72.935086 386.06949,80.006409 C 387.81479,87.077732 383.60065,96.356531 383.60065,96.356531 C 383.60065,96.356531 392.40056,91.468235 400.82775,91.432871 C 409.25496,91.397507 417.30944,96.215075 417.30944,96.215075 C 417.30944,96.215075 413.60722,87.728908 415.65783,80.890013 C 417.70842,74.051119 425.51182,68.859496 425.51182,68.859496 C 425.51182,68.859496 416.23067,68.859563 410.24084,64.223801 C 404.25101,59.588037 401.55248,50.316444 401.55248,50.316444 C 401.55248,50.316444 398.13068,59.800534 391.89742,64.239233 C 385.66416,68.677932 376.61944,68.07124 376.61944,68.07124 z "
       id="path6115"
       sodipodi:nodetypes="czczczcscsc" />
    <path
       sodipodi:type="arc"
       style="color:#000000;fill:#bb8f51;fill-opacity:1;fill-rule:evenodd;stroke:#3e2d1b;stroke-width:1;stroke-linecap:round;stroke-linejoin:round;marker:none;marker-start:none;marker-mid:none;marker-end:none;stroke-miterlimit:4;stroke-dasharray:none;stroke-dashoffset:0;stroke-opacity:1;visibility:visible;display:inline;overflow:visible"
       id="path6117"
       sodipodi:cx="97.5"
       sodipodi:cy="78.862183"
       sodipodi:rx="15.5"
       sodipodi:ry="15.5"
       d="M 113,78.862183 A 15.5,15.5 0 1 1 112.97194,77.929875"
       sodipodi:start="0"
       sodipodi:end="6.2230001"
       sodipodi:open="true"
       transform="matrix(1.006081,0,0,1.00608,303.0148,-3.280821)" />
    <path
       style="fill:none;fill-opacity:0.75;fill-rule:evenodd;stroke:#3e2d1b;stroke-width:1.00608051px;stroke-linecap:butt;stroke-linejoin:miter;stroke-opacity:1"
       d="M 361.53212,81.193733 C 362.68526,73.831374 366.85101,74.280307 369.82257,65.831334 C 372.79413,57.382361 368.90452,51.065329 373.41835,47.397841"
       id="path6119"
       sodipodi:nodetypes="csc" />
    <path
       style="fill:none;fill-opacity:0.75;fill-rule:evenodd;stroke:#3e2d1b;stroke-width:1.00608051px;stroke-linecap:butt;stroke-linejoin:miter;stroke-opacity:1"
       d="M 384.4235,37.682948 C 391.76142,36.383304 392.68929,40.469138 401.64534,40.536615 C 410.60139,40.604089 415.3134,34.874259 420.24771,37.95286"
       id="path6121"
       sodipodi:nodetypes="csc" />
    <path
       style="fill:none;fill-opacity:0.75;fill-rule:evenodd;stroke:#3e2d1b;stroke-width:1.00608051px;stroke-linecap:butt;stroke-linejoin:miter;stroke-opacity:1"
       d="M 432.64699,48.944637 C 435.56475,55.801809 431.79255,57.625417 433.74243,66.366886 C 435.6923,75.108354 442.33561,78.409939 440.44649,83.910523"
       id="path6123"
       sodipodi:nodetypes="csc" />
    <path
       style="fill:none;fill-opacity:0.75;fill-rule:evenodd;stroke:#3e2d1b;stroke-width:1.00608051px;stroke-linecap:butt;stroke-linejoin:miter;stroke-opacity:1"
       d="M 437.73942,96.484883 C 432.35802,101.63994 429.31777,98.756886 421.83151,103.6733 C 414.34523,108.58972 413.60752,115.97144 407.79434,116.15055"
       id="path6125"
       sodipodi:nodetypes="csc" />
    <path
       style="fill:none;fill-opacity:0.75;fill-rule:evenodd;stroke:#3e2d1b;stroke-width:1.00608051px;stroke-linecap:butt;stroke-linejoin:miter;stroke-opacity:1"
       d="M 393.41171,116.8664 C 386.93572,113.17917 388.8317,109.44281 381.98399,103.67012 C 375.13627,97.897402 367.85082,99.296105 366.02084,93.775567"
       id="path6127"
       sodipodi:nodetypes="csc" />
    <path
       sodipodi:nodetypes="cccccc"
       id="path6145"
       d="M 162.2101,349.60384 C 162.2101,349.60384 182.07291,362.22708 192.95529,357.83649 C 179.62672,355.82937 172.75859,345.91919 172.75859,345.91919 C 172.75859,345.91919 195.49555,354.01041 216.28811,350.43522 C 202.58321,347.11092 195.71508,339.64693 195.71508,339.64693 C 195.71508,339.64693 204.11992,341.65405 216.03723,341.40317"
       style="fill:none;fill-opacity:1;fill-rule:evenodd;stroke:#18111e;stroke-width:1.5091213;stroke-linecap:butt;stroke-linejoin:miter;stroke-miterlimit:4;stroke-dasharray:none;stroke-opacity:1" />
  </g>
</svg>
