<?xml version="1.0" encoding="UTF-8"?>
<!DOCTYPE svg PUBLIC "-//W3C//DTD SVG 1.1//EN" "http://www.w3.org/Graphics/SVG/1.1/DTD/svg11.dtd">
<!-- Creator: CorelDRAW -->
<svg xmlns="http://www.w3.org/2000/svg" xml:space="preserve" width="500px" height="584px" shape-rendering="geometricPrecision" text-rendering="geometricPrecision" image-rendering="optimizeQuality" fill-rule="evenodd" clip-rule="evenodd"
viewBox="0 0 500 584"
 xmlns:xlink="http://www.w3.org/1999/xlink"
 xmlns:svg="http://www.w3.org/2000/svg"
 version="1.0">
 <g id="Layer_x0020_1">
  <metadata id="CorelCorpID_0Corel-Layer"/>
  <path id="path1937" fill="#0581ED" stroke="black" stroke-width="2.83465" d="M1.61858 2.0948l497.172 0.000283465 -7.75701 356.438c-26.7027,302.835 -454.535,294.247 -479.486,0.162709l-9.92863 -356.601z"/>
  <path fill="#BF9F4F" stroke="black" stroke-width="1.98425" d="M335.143 441.307l-5.63528 -32.1551c-4.40362,-0.345827 -10.4618,-0.174331 -15.0727,4.54536l0.0677481 -21.6683c4.82655,3.80608 9.75544,6.47575 15.4086,6.14551 1.22769,-5.98677 -0.233291,-11.6632 -5.62224,-17.6491l21.5348 0c-5.38895,5.98592 -6.84992,11.6623 -5.62224,17.6491 5.65314,0.330236 10.582,-2.33943 15.4086,-6.14551l0.0677481 21.6683c-4.61084,-4.71969 -10.669,-4.89118 -15.0727,-4.54536l-5.46236 32.1551z"/>
  <path fill="#BF9F4F" stroke="black" stroke-width="1.98425" d="M428.743 434.107l-5.63528 -32.1551c-4.40362,-0.345827 -10.4618,-0.174331 -15.0727,4.54536l0.0677481 -21.6683c4.82655,3.80608 9.75544,6.47575 15.4086,6.14551 1.22769,-5.98677 -0.233291,-11.6632 -5.62224,-17.6491l21.5348 0c-5.38895,5.98592 -6.84992,11.6623 -5.62224,17.6491 5.65314,0.330236 10.582,-2.33943 15.4086,-6.14551l0.0677481 21.6683c-4.61084,-4.71969 -10.669,-4.89118 -15.0727,-4.54536l-5.46236 32.1551z"/>
  <path fill="#BF9F4F" stroke="black" stroke-width="1.98425" d="M378.343 512.479l-5.63528 -29.8126c-4.40362,-0.320599 -10.4618,-0.161575 -15.0727,4.21427l0.0677481 -20.0897c4.82655,3.52885 9.75544,6.00407 15.4086,5.69792 1.22769,-5.55052 -0.233291,-10.8133 -5.62224,-16.3633l21.5348 0c-5.38895,5.54996 -6.84992,10.8128 -5.62224,16.3633 5.65314,0.306142 10.582,-2.16907 15.4086,-5.69792l0.0677481 20.0897c-4.61084,-4.37584 -10.669,-4.53487 -15.0727,-4.21427l-5.46236 29.8126z"/>
  <path fill="#BF9F4F" stroke="black" stroke-width="1.98425" d="M284.743 530.091l-5.63528 -29.607c-4.40362,-0.318331 -10.4618,-0.160441 -15.0727,4.18536l0.0677481 -19.9514c4.82655,3.50447 9.75544,5.96268 15.4086,5.65852 1.22769,-5.51225 -0.233291,-10.7388 -5.62224,-16.2505l21.5348 0c-5.38895,5.51169 -6.84992,10.7382 -5.62224,16.2505 5.65314,0.304158 10.582,-2.15405 15.4086,-5.65852l0.0677481 19.9514c-4.61084,-4.3458 -10.669,-4.50369 -15.0727,-4.18536l-5.46236 29.607z"/>
  <path fill="#BF9F4F" stroke="black" stroke-width="1.98425" d="M212.743 568.837l-5.63528 -27.2506c-4.40362,-0.293103 -10.4618,-0.147685 -15.0727,3.85229l0.0677481 -18.3634c4.82655,3.22554 9.75544,5.48816 15.4086,5.2081 1.22769,-5.07345 -0.233291,-9.88413 -5.62224,-14.957l21.5348 0c-5.38895,5.07288 -6.84992,9.88356 -5.62224,14.957 5.65314,0.280063 10.582,-1.98255 15.4086,-5.2081l0.0677481 18.3634c-4.61084,-3.99997 -10.669,-4.14539 -15.0727,-3.85229l-5.46236 27.2506z"/>
  <path fill="#BF9F4F" stroke="black" stroke-width="1.98425" d="M387.891 351.307l-5.63528 -32.1551c-4.40362,-0.345827 -10.4618,-0.174331 -15.0727,4.54536l0.0677481 -21.6683c4.82655,3.80608 9.75544,6.47575 15.4086,6.14551 1.22769,-5.98677 -0.233291,-11.6632 -5.62224,-17.6491l21.5348 0c-5.38895,5.98592 -6.84992,11.6623 -5.62224,17.6491 5.65314,0.330236 10.582,-2.33943 15.4086,-6.14551l0.0677481 21.6683c-4.61084,-4.71969 -10.669,-4.89118 -15.0727,-4.54536l-5.46236 32.1551z"/>
  <path fill="#BF9F4F" stroke="black" stroke-width="1.98425" d="M395.091 232.507l-5.63528 -30.7746c-4.40362,-0.330803 -10.4618,-0.166677 -15.0727,4.35033l0.0677481 -20.738c4.82655,3.64252 9.75544,6.19767 15.4086,5.88161 1.22769,-5.72967 -0.233291,-11.1626 -5.62224,-16.8914l21.5348 0c-5.38895,5.72882 -6.84992,11.1617 -5.62224,16.8914 5.65314,0.316063 10.582,-2.23909 15.4086,-5.88161l0.0677481 20.738c-4.61084,-4.51701 -10.669,-4.68114 -15.0727,-4.35033l-5.46236 30.7746z"/>
  <path fill="#BF9F4F" stroke="black" stroke-width="1.98425" d="M458.64 280.482l-5.63528 -32.1551c-4.40362,-0.345827 -10.4618,-0.174331 -15.0727,4.54536l0.0677481 -21.6683c4.82655,3.80608 9.75544,6.47575 15.4086,6.14551 1.22769,-5.98677 -0.233291,-11.6632 -5.62224,-17.6491l21.5348 0c-5.38895,5.98592 -6.84992,11.6623 -5.62224,17.6491 5.65314,0.330236 10.582,-2.33943 15.4086,-6.14551l0.0677481 21.6683c-4.61084,-4.71969 -10.669,-4.89118 -15.0727,-4.54536l-5.46236 32.1551z"/>
  <path fill="#BF9F4F" stroke="black" stroke-width="1.98425" d="M462.24 172.481l-5.63528 -32.1551c-4.40362,-0.345827 -10.4618,-0.174331 -15.0727,4.54536l0.0677481 -21.6683c4.82655,3.80608 9.75544,6.47575 15.4086,6.14551 1.22769,-5.98677 -0.233291,-11.6632 -5.62224,-17.6491l21.5348 0c-5.38895,5.98592 -6.84992,11.6623 -5.62224,17.6491 5.65314,0.330236 10.582,-2.33943 15.4086,-6.14551l0.0677481 21.6683c-4.61084,-4.71969 -10.669,-4.89118 -15.0727,-4.54536l-5.46236 32.1551z"/>
  <path fill="#BF9F4F" stroke="black" stroke-width="1.41732" d="M427.073 50.2583l29.4605 21.0875c3.1011,3.1011 -0.620221,5.27188 -2.79099,3.72132l-29.7706 -20.1572c-24.6223,3.10082 -1.62567,-28.0131 3.1011,-4.65166z"/>
  <path fill="#BF9F4F" stroke="black" stroke-width="1.41732" d="M410.327 71.6559l29.4605 21.0875c5.01647,3.52885 0.33789,6.5469 -2.79099,3.72132l-29.7706 -20.1572c-24.6223,3.10082 -1.62567,-28.0131 3.1011,-4.65166z"/>
  <path fill="#BF9F4F" stroke="black" stroke-width="1.41732" d="M444.598 86.4771l-29.1966 -21.4515c-3.38173,-3.45912 1.10891,-5.15906 3.79219,-3.0498l28.563 19.8885c24.6589,-2.79496 1.27786,28.031 -3.15865,4.61282z"/>
  <path fill="#BF9F4F" stroke="black" stroke-width="1.41732" d="M429.06 109.099l-29.1966 -21.4515c-5.50262,-4.30611 -1.11798,-8.34067 2.8372,-3.68646l29.518 20.5251c24.6589,-2.79496 1.27786,28.031 -3.15865,4.61282z"/>
  <path fill="#BF9F4F" stroke="black" stroke-width="1.98425" d="M295.388 168.881l-5.63528 -32.1551c-4.40362,-0.345827 -10.4618,-0.174331 -15.0727,4.54536l0.0677481 -21.6683c4.82655,3.80608 9.75544,6.47575 15.4086,6.14551 1.22769,-5.98677 -0.233291,-11.6632 -5.62224,-17.6491l21.5348 0c-5.38895,5.98592 -6.84992,11.6623 -5.62224,17.6491 5.65314,0.330236 10.582,-2.33943 15.4086,-6.14551l0.0677481 21.6683c-4.61084,-4.71969 -10.669,-4.89118 -15.0727,-4.54536l-5.46236 32.1551z"/>
  <path fill="#BF9F4F" stroke="black" stroke-width="1.98425" d="M206.562 194.081l-5.63528 -32.1551c-4.40362,-0.345827 -10.4618,-0.174331 -15.0727,4.54536l0.0677481 -21.6683c4.82655,3.80608 9.75544,6.47575 15.4086,6.14551 1.22769,-5.98677 -0.233291,-11.6632 -5.62224,-17.6491l21.5348 0c-5.38895,5.98592 -6.84992,11.6623 -5.62224,17.6491 5.65314,0.330236 10.582,-2.33943 15.4086,-6.14551l0.0677481 21.6683c-4.61084,-4.71969 -10.669,-4.89118 -15.0727,-4.54536l-5.46236 32.1551z"/>
  <path fill="#BF9F4F" stroke="black" stroke-width="1.98425" d="M54.1877 363.282l-5.63528 -32.1551c-4.40362,-0.345827 -10.4618,-0.174331 -15.0727,4.54536l0.0677481 -21.6683c4.82655,3.80608 9.75544,6.47575 15.4086,6.14551 1.22769,-5.98677 -0.233291,-11.6632 -5.62224,-17.6491l21.5348 0c-5.38895,5.98592 -6.84992,11.6623 -5.62224,17.6491 5.65314,0.330236 10.582,-2.33943 15.4086,-6.14551l0.0677481 21.6683c-4.61084,-4.71969 -10.669,-4.89118 -15.0727,-4.54536l-5.46236 32.1551z"/>
  <path fill="#BF9F4F" stroke="black" stroke-width="1.98425" d="M64.9877 222.881l-5.63528 -32.1551c-4.40362,-0.345827 -10.4618,-0.174331 -15.0727,4.54536l0.0677481 -21.6683c4.82655,3.80608 9.75544,6.47575 15.4086,6.14551 1.22769,-5.98677 -0.233291,-11.6632 -5.62224,-17.6491l21.5348 0c-5.38895,5.98592 -6.84992,11.6623 -5.62224,17.6491 5.65314,0.330236 10.582,-2.33943 15.4086,-6.14551l0.0677481 21.6683c-4.61084,-4.71969 -10.669,-4.89118 -15.0727,-4.54536l-5.46236 32.1551z"/>
  <path fill="#BF9F4F" stroke="black" stroke-width="1.98425" d="M118.988 284.702l-5.63528 -30.5788c-4.40362,-0.328819 -10.4618,-0.165827 -15.0727,4.32255l0.0677481 -20.6062c4.82655,3.61956 9.75544,6.15855 15.4086,5.84448 1.22769,-5.69339 -0.233291,-11.0914 -5.62224,-16.7839l21.5348 0c-5.38895,5.69254 -6.84992,11.0906 -5.62224,16.7839 5.65314,0.314079 10.582,-2.22491 15.4086,-5.84448l0.0677481 20.6062c-4.61084,-4.48838 -10.669,-4.65137 -15.0727,-4.32255l-5.46236 30.5788z"/>
  <path fill="#BF9F4F" stroke="black" stroke-width="1.98425" d="M133.388 148.533l-5.63528 -32.1551c-4.40362,-0.345827 -10.4618,-0.174331 -15.0727,4.54536l0.0677481 -21.6683c4.82655,3.80608 9.75544,6.47575 15.4086,6.14551 1.22769,-5.98677 -0.233291,-11.6632 -5.62224,-17.6491l21.5348 0c-5.38895,5.98592 -6.84992,11.6623 -5.62224,17.6491 5.65314,0.330236 10.582,-2.33943 15.4086,-6.14551l0.0677481 21.6683c-4.61084,-4.71969 -10.669,-4.89118 -15.0727,-4.54536l-5.46236 32.1551z"/>
  <path fill="#BF9F4F" stroke="black" stroke-width="1.98425" d="M205.388 84.9073l-5.63528 -32.1551c-4.40362,-0.345827 -10.4618,-0.174331 -15.0727,4.54536l0.0677481 -21.6683c4.82655,3.80608 9.75544,6.47575 15.4086,6.14551 1.22769,-5.98677 -0.233291,-11.6632 -5.62224,-17.6491l21.5348 0c-5.38895,5.98592 -6.84992,11.6623 -5.62224,17.6491 5.65314,0.330236 10.582,-2.33943 15.4086,-6.14551l0.0677481 21.6683c-4.61084,-4.71969 -10.669,-4.89118 -15.0727,-4.54536l-5.46236 32.1551z"/>
  <path fill="#BF9F4F" stroke="black" stroke-width="1.98425" d="M61.3877 86.0814l-5.63528 -32.1551c-4.40362,-0.345827 -10.4618,-0.174331 -15.0727,4.54536l0.0677481 -21.6683c4.82655,3.80608 9.75544,6.47575 15.4086,6.14551 1.22769,-5.98677 -0.233291,-11.6632 -5.62224,-17.6491l21.5348 0c-5.38895,5.98592 -6.84992,11.6623 -5.62224,17.6491 5.65314,0.330236 10.582,-2.33943 15.4086,-6.14551l0.0677481 21.6683c-4.61084,-4.71969 -10.669,-4.89118 -15.0727,-4.54536l-5.46236 32.1551z"/>
  <path fill="#BF9F4F" stroke="black" stroke-width="1.98425" d="M333.736 84.9073l-5.63528 -32.1551c-4.40362,-0.345827 -10.4618,-0.174331 -15.0727,4.54536l0.0677481 -21.6683c4.82655,3.80608 9.75544,6.47575 15.4086,6.14551 1.22769,-5.98677 -0.233291,-11.6632 -5.62224,-17.6491l21.5348 0c-5.38895,5.98592 -6.84992,11.6623 -5.62224,17.6491 5.65314,0.330236 10.582,-2.33943 15.4086,-6.14551l0.0677481 21.6683c-4.61084,-4.71969 -10.669,-4.89118 -15.0727,-4.54536l-5.46236 32.1551z"/>
  <path fill="#BF9F4F" stroke="black" stroke-width="1.98425" d="M103.809 511.861l-4.20151 0.383811 -13.2412 -10.3003 0.54737 -3.25616c-21.4214,-20.0146 -30.8798,-42.2175 -29.3723,-67.1752 2.96221,-49.0417 60.7278,-69.6033 56.4974,-91.9222l5.29172 -4.39172c22.6423,20.3613 65.6292,-36.9406 44.6502,-53.1715l1.59336 -5.19648c26.8101,4.78488 31.3883,-68.4114 84.9175,-75.6987 14.6747,-1.99786 30.598,0.494362 52.4044,12.3489l90.4805 -110.35c-2.45622,-2.02847 -4.60205,-5.91761 -1.16589,-9.49635l45.6812 -54.9122 -4.22958 -3.02457 10.2543 -12.5263 4.21257 3.19975 4.35572 -4.81522 4.36734 2.90891c7.08492,-10.5593 23.0723,3.14447 17.3412,11.2955l3.87921 3.53395 -3.61814 5.39093 4.12356 3.31342 -8.74347 12.67 -4.26784 -3.3721 -41.1585 59.686c-2.64104,4.19953 -6.76489,3.15184 -9.32741,1.25943l-84.2525 117.9c16.7777,18.2906 20.2575,27.8668 21.8687,42.5883 5.87849,53.7018 -57.5232,71.5108 -46.3944,96.3669l-4.65676 2.80318c-20.092,-16.9793 -67.5049,41.1072 -45.4414,60.5288l-1.12082 5.57688c-33.2229,0.364252 -33.8559,72.1789 -79.5549,83.8795 -23.3187,5.97033 -45.6698,3.80835 -71.7197,-16.0254z"/>
  <path fill="none" stroke="#644D36" stroke-width="1.98425" d="M327.735 241.832c15.8669,17.2976 16.9951,24.5013 18.519,38.4236 4.62926,43.6544 -57.1913,67.6293 -46.6665,91.1362 -18.2268,-16.1501 -74.8979,44.3665 -49.86,66.4061 -30.3772,5.98366 -39.1839,72.0845 -74.1255,82.4296 -21.8268,6.46214 -45.0516,5.46236 -69.6872,-13.2948m-13.4975 -13.0779c-20.2587,-18.9281 -31.0638,-38.996 -29.6382,-62.5981 2.80063,-46.3794 61.7726,-66.4455 57.7718,-87.5529 24.8066,15.594 68.813,-45.3305 50.5982,-62.1437 24.1143,4.21512 29.7097,-67.6197 80.3081,-74.6904 15.7385,-2.19884 27.3867,-0.152787 48.3191,11.9886"/>
  <path fill="#644D36" d="M134.329 368.742c9.82347,1.95421 19.957,-4.87814 29.7811,-16.1558l4.68482 0.0969449 0.300473 -5.64463c4.95043,-7.75418 9.90086,-11.787 15.7816,-17.6805 11.2672,6.09903 11.7836,-8.99263 3.41121,-5.27188 -8.73667,0.569197 -14.6821,12.9226 -22.178,19.3836l-5.30419 0.624473 -0.519591 6.65575c-7.5155,8.71144 -15.3414,14.347 -22.8563,13.9606 -5.37534,-7.6493 -8.57991,3.61786 -3.1011,4.03144z"/>
  <path fill="#644D36" d="M219.302 432.936c-3.96709,-9.19673 0.592725,-20.5359 9.5641,-32.5029l-1.07547 -4.56095 5.4567 -1.47543c6.54605,-6.46385 9.45355,-12.1487 13.9853,-19.1327 -8.32224,-9.74098 6.32693,-13.405 4.44104,-4.43934 1.27219,8.6624 -9.56297,17.0617 -14.3116,25.7443l0.499465 5.31723 -6.3995 1.90148c-6.94517,9.17235 -10.8179,18.0045 -8.86706,25.2723 8.60514,3.65499 -1.74161,9.14712 -3.29301,3.8761z"/>
  <path fill="#BF9F4F" stroke="#644D36" stroke-width="1.41732" d="M140.221 418.049l28.5302 24.4987c-33.6288,19.2512 -54.0924,43.8013 -67.9142,71.3254 -6.09931,-4.23808 -11.5943,-7.6167 -15.2119,-12.6816 27.8388,-24.5313 47.4307,-52.8231 54.5959,-83.1425z"/>
  <polygon fill="none" stroke="#644D36" stroke-width="1.98425" points="181.466,362.85 215.268,390.139 213.097,392.93 179.295,365.641 "/>
  <polyline fill="none" stroke="#644D36" stroke-width="1.98425" points="330.319,237.002 254.962,337.731 223.02,313.232 302.376,213.98 "/>
  <line fill="none" stroke="#644D36" stroke-width="1.41732" x1="438.547" y1="38.1722" x2="447.859" y2= "27.0082" />
  <line fill="none" stroke="#644D36" stroke-width="1.41732" x1="440.106" y1="47.4673" x2="455.913" y2= "25.4495" />
  <line fill="none" stroke="#644D36" stroke-width="1.41732" x1="456.86" y1="58.3376" x2="473.59" y2= "35.373" />
  <line fill="none" stroke="#644D36" stroke-width="1.41732" x1="465.82" y1="56.4605" x2="473.573" y2= "45.2883" />
  <polyline fill="none" stroke="#644D36" stroke-width="1.41732" points="405.675,96.1546 184.257,368.121 144.873,421.771 "/>
  <polyline fill="none" stroke="#644D36" stroke-width="1.41732" points="151.695,427.042 192.009,373.703 410.172,99.7209 "/>
  <polyline fill="none" stroke="#644D36" stroke-width="1.41732" points="414.899,103.204 202.221,381.5 157.545,433.002 "/>
  <polyline fill="none" stroke="#644D36" stroke-width="1.41732" points="164.37,438.587 210.288,388.326 418.622,105.531 "/>
  <polygon fill="#0581ED" points="403.505,94.6041 421.181,107.629 456.223,58.9414 439.477,47.7774 "/>
  <polyline fill="none" stroke="black" stroke-width="1.98425" points="421.181,107.629 456.223,58.9414 439.477,47.7774 "/>
  <polygon fill="#BF9F4F" points="447.725,70.9923 430.477,59.4148 433.769,54.9613 450.554,67.0652 "/>
  <path fill="none" stroke="black" stroke-width="1.41732" d="M433.769 54.9613l16.7848 12.1039m-2.82898 3.92712l-17.2474 -11.5775"/>
  <polygon fill="#BF9F4F" points="439.083,82.7238 422.289,70.3849 425.26,66.4705 442.281,78.3054 "/>
  <polygon fill="#BF9F4F" points="431.798,92.945 414.006,80.7928 417.362,76.6917 434.438,88.9141 "/>
  <path fill="none" stroke="black" stroke-width="1.41732" d="M417.362 76.6917l17.0753 12.2224m-2.63962 4.03087l-17.7925 -12.1521"/>
  <path fill="none" stroke="black" stroke-width="1.41732" d="M425.26 66.4705l17.0209 11.8349m-3.19833 4.41836l-16.7939 -12.3389"/>
  <polygon fill="#BF9F4F" points="423.192,104.788 405.631,91.6974 408.63,88.0098 426.076,100.215 "/>
  <line fill="none" stroke="black" stroke-width="1.41732" x1="414.669" y1="103.132" x2="428.313" y2= "84.3704" />
  <line fill="none" stroke="black" stroke-width="1.41732" x1="405.52" y1="96.4647" x2="435.756" y2= "56.1504" />
  <line fill="none" stroke="black" stroke-width="1.41732" x1="423.662" y1="98.3254" x2="418.39" y2= "105.458" />
  <line fill="none" stroke="black" stroke-width="1.41732" x1="410.017" y1="99.876" x2="431.725" y2= "70.4155" />
  <path fill="none" stroke="black" stroke-width="1.41732" d="M423.192 104.788l-17.5618 -13.0904m2.99962 -3.68759l17.4456 12.2049"/>
 </g>
</svg>
