<?xml version="1.0" encoding="UTF-8" standalone="no"?>
<!-- Creator: CorelDRAW -->
<svg
   xmlns:dc="http://purl.org/dc/elements/1.1/"
   xmlns:cc="http://creativecommons.org/ns#"
   xmlns:rdf="http://www.w3.org/1999/02/22-rdf-syntax-ns#"
   xmlns:svg="http://www.w3.org/2000/svg"
   xmlns="http://www.w3.org/2000/svg"
   xmlns:sodipodi="http://sodipodi.sourceforge.net/DTD/sodipodi-0.dtd"
   xmlns:inkscape="http://www.inkscape.org/namespaces/inkscape"
   xml:space="preserve"
   width="500px"
   height="569px"
   shape-rendering="geometricPrecision"
   text-rendering="geometricPrecision"
   image-rendering="optimizeQuality"
   fill-rule="evenodd"
   clip-rule="evenodd"
   viewBox="0 0 500 569"
   version="1.0"
   id="svg2"
   sodipodi:version="0.32"
   inkscape:version="0.46"
   sodipodi:docname="Keitele.vaakuna.svg"
   inkscape:output_extension="org.inkscape.output.svg.inkscape"><metadata
   id="metadata16"><rdf:RDF><cc:Work
       rdf:about=""><dc:format>image/svg+xml</dc:format><dc:type
         rdf:resource="http://purl.org/dc/dcmitype/StillImage" /></cc:Work></rdf:RDF></metadata><defs
   id="defs14"><inkscape:perspective
     sodipodi:type="inkscape:persp3d"
     inkscape:vp_x="0 : 284.5 : 1"
     inkscape:vp_y="0 : 1000 : 0"
     inkscape:vp_z="500 : 284.5 : 1"
     inkscape:persp3d-origin="250 : 189.66667 : 1"
     id="perspective18" /></defs><sodipodi:namedview
   inkscape:window-height="669"
   inkscape:window-width="640"
   inkscape:pageshadow="2"
   inkscape:pageopacity="0.0"
   guidetolerance="10.0"
   gridtolerance="10.0"
   objecttolerance="10.0"
   borderopacity="1.0"
   bordercolor="#666666"
   pagecolor="#ffffff"
   id="base"
   showgrid="false"
   inkscape:zoom="0.81195079"
   inkscape:cx="250"
   inkscape:cy="284.5"
   inkscape:window-x="115"
   inkscape:window-y="63"
   inkscape:current-layer="svg2" />
 <g
   id="Layer_x0020_1">
  <metadata
   id="CorelCorpID_0Corel-Layer" />
  <path
   id="path1937"
   fill="black"
   d="M0.342709 0.782363l499.554 -0.121606 -0.345827 365.808c-25.8032,114.437 -118.724,201.209 -249.039,201.29 -130.315,0.0810709 -213.858,-77.7802 -249.214,-202.258l-0.954426 -364.719z" />
  <path
   fill="#CC9933"
   d="M229.548 213.565l-18.6389 -19.5267 6.35074 -6.4321c6.31673,5.51849 14.2129,10.6381 20.5299,16.1566 3.67115,-2.49477 8.07336,-3.94781 12.8052,-3.94781 5.63301,0 9.60832,1.16646 13.6293,4.59099l21.2582 -15.1308 5.96835 6.88961 -20.1804 17.5153c1.62397,3.25134 2.54041,6.04262 2.54041,9.94593 0,4.62218 -1.45077,9.21204 -3.53424,12.5243l15.2856 15.732 -4.92945 4.824 -20.4018 -12.6009 0.276378 18.7835c31.1978,-0.355181 64.1815,-0.412725 95.677,-1.95817l4.21229 -28.6795 1.86832 0.45978 3.38514 27.9641c29.2153,-4.27493 70.2746,-2.7343 95.474,-17.4467l3.03874 -10.6495 17.0626 -1.10721c-12.2922,35.5476 -15.6144,74.0852 -66.7763,85.7129l-295.012 0c-55.8131,-4.98331 -115.613,-65.7797 -83.7196,-122.589l22.9218 14.1477 -11.0115 10.9613c36.2979,21.2281 60.6359,29.4996 108.894,36.7744l5.80649 -24.9398 2.49789 1.42639 -2.53673 25.1184c27.9729,5.32432 51.7788,4.1006 77.6682,5.25827l-0.108567 -19.8142 -21.3885 12.5912 -5.1823 -4.80813c4.98416,-4.74123 11.8511,-12.3976 16.8353,-17.1386 -1.73282,-3.05972 -2.7343,-6.59169 -2.7343,-10.5463 0,-3.59518 0.77726,-7.00498 2.16879,-10.061z"
   id="path7"
   style="fill:#bf9f4f;fill-opacity:1" />
  <path
   fill="#CC9933"
   d="M229.548 62.3645l-18.6389 -19.5267 6.35074 -6.4321c6.31673,5.51849 14.2129,10.6381 20.5299,16.1566 3.67115,-2.49477 8.07336,-3.94781 12.8052,-3.94781 5.63301,0 9.60832,1.16646 13.6293,4.59099l21.2582 -15.1308 5.96835 6.88961 -20.1804 17.5153c1.62397,3.25134 2.54041,6.04262 2.54041,9.94593 0,4.62218 -1.45077,9.21204 -3.53424,12.5243l15.2856 15.732 -4.92945 4.824 -20.4018 -12.6009 0.276378 18.7835c31.1978,-0.355181 64.1815,-0.412725 95.677,-1.95817l4.21229 -28.6795 1.86832 0.45978 3.38514 27.9641c29.2153,-4.27493 70.2746,-2.7343 95.474,-17.4467l3.03874 -10.6495 17.0626 -1.10721c-12.2922,35.5476 -15.6144,74.0852 -66.7763,85.7129l-295.012 0c-55.8131,-4.98331 -115.613,-65.7797 -83.7196,-122.589l22.9218 14.1477 -11.0115 10.9613c36.2979,21.2281 60.6359,29.4996 108.894,36.7744l5.80649 -26.0045 2.49789 1.42639 -2.53673 26.1831c27.9729,5.32432 51.7788,4.1006 77.6682,5.25827l-0.108567 -19.8142 -21.3885 12.5912 -5.1823 -4.80813c4.98416,-4.74123 11.8511,-12.3976 16.8353,-17.1386 -1.73282,-3.05972 -2.7343,-6.59169 -2.7343,-10.5463 0,-3.59518 0.77726,-7.00498 2.16879,-10.061z"
   id="path9"
   style="fill:#bf9f4f;fill-opacity:1" />
  <path
   fill="#CC9933"
   d="M230.922 364.765l-17.2834 -19.5267 5.88898 -6.4321c5.85723,5.51849 13.1791,10.6381 19.0369,16.1566 3.40413,-2.49477 7.4863,-3.94781 11.8741,-3.94781 5.2234,0 8.90958,1.16646 12.6383,4.59099l19.7121 -15.1308 5.53436 6.88961 -18.7129 17.5153c1.50605,3.25134 2.35559,6.04262 2.35559,9.94593 0,4.62218 -1.34504,9.21204 -3.27714,12.5243l14.1741 15.732 -4.57115 4.824 -18.9182 -12.6009 0.256252 18.7835c28.9293,-0.355181 59.5145,-0.412725 88.7196,-1.95817l3.90586 -28.6795 1.73254 0.45978 3.13909 27.9641c27.0907,-4.27493 65.1643,-2.7343 88.5314,-17.4467l2.81764 -10.6495 15.8219 -1.10721c-11.3984,35.5476 -14.4788,74.0852 -61.9206,85.7129l-273.559 0c-51.7544,-4.98331 -107.206,-65.7797 -77.6316,-122.589l21.255 14.1477 -10.2107 10.9613c33.6583,21.2281 56.2264,29.4996 100.976,36.7744l4.47421 -23.8751 2.31619 1.42639 -1.44227 24.0537c25.9387,5.32432 48.0135,4.1006 72.0204,5.25827l-0.10063 -19.8142 -19.8335 12.5912 -4.80529 -4.80813c4.62161,-4.74123 10.9894,-12.3976 15.611,-17.1386 -1.60668,-3.05972 -2.53531,-6.59169 -2.53531,-10.5463 0,-3.59518 0.720567,-7.00498 2.0109,-10.061z"
   id="path11"
   style="fill:#bf9f4f;fill-opacity:1" />
 </g>
</svg>