<?xml version="1.0" encoding="UTF-8"?>
<!DOCTYPE svg PUBLIC "-//W3C//DTD SVG 1.1//EN" "http://www.w3.org/Graphics/SVG/1.1/DTD/svg11.dtd">
<!-- Creator: CorelDRAW -->
<svg xmlns="http://www.w3.org/2000/svg" xml:space="preserve" width="500px" height="575px" shape-rendering="geometricPrecision" text-rendering="geometricPrecision" image-rendering="optimizeQuality" fill-rule="evenodd" clip-rule="evenodd"
viewBox="0 0 500 575"
 xmlns:xlink="http://www.w3.org/1999/xlink"
 xmlns:svg="http://www.w3.org/2000/svg"
 version="1.0">
 <g id="Layer_x0020_1">
  <metadata id="CorelCorpID_0Corel-Layer"/>
  <path id="path1937" fill="black" stroke="black" stroke-width="2.83465" d="M1.71043 1.89723l496.852 -0.0405355 -0.132378 318.919c-11.8718,335.394 -481.212,338.131 -496.696,0.212315l-0.023811 -319.091z"/>
  <path fill="#CCCCCC" stroke="black" stroke-width="0.216" d="M254.528 567.583c-9.75487,-4.69106 -3.37351,-6.24926 -13.7239,-12.1788 -3.21279,-1.84054 -6.31729,-22.669 -8.59295,-37.6299 -38.3689,1.80595 -25.4293,18.0147 -56.9444,24.3981 -23.1083,4.68057 -41.1098,-15.1467 -30.0592,-29.573 6.78728,2.79808 4.23808,12.4668 20.7119,10.2623 17.0104,-2.27622 13.9666,-13.5275 26.79,-22.7696 13.3279,-9.60577 23.7495,-8.7755 31.0924,-15.3079 -1.88731,-12.6142 -3.18047,-25.2275 -4.20463,-37.8417l-1.9406 0.323433c-31.6213,52.903 -70.4671,31.0343 -80.8521,32.9406 -9.85323,1.8085 -16.9441,12.3764 -27.9457,15.8202 -10.0165,3.13512 -26.5833,-0.0751181 -32.2192,-12.5362l2.58747 -3.23433c6.9137,1.16277 11.5053,-2.87547 16.4225,-2.32158 3.08381,0.347244 3.06709,-2.35928 5.97799,-3.83131 7.73972,-3.91351 9.43257,-19.5673 25.5325,-21.9064 17.477,-2.53956 18.9604,4.068 27.383,-0.461764 5.26309,-2.83068 10.3524,-1.96526 14.4128,-6.22545 6.33402,-6.64611 9.52158,-19.1387 8.2715,-23.4714 -51.2102,19.554 -70.9353,-12.524 -93.9924,-0.232725 -22.8467,12.1788 -6.27194,38.1149 -12.0937,41.3087 -17.9235,0.430866 -28.9741,-46.0355 2.26403,-67.5975 -5.06211,-5.6554 -3.08268,-15.2674 -11.5421,-21.4761 -8.55185,-6.27704 -19.2654,-1.41109 -32.0224,-14.9596 -10.4752,-11.1254 -10.8184,-35.9669 1.51824,-42.1586l4.52807 0.323433c2.00041,0.476788 -5.29399,12.92 8.75934,22.4864 10.698,7.28192 19.5514,1.40995 29.7026,5.86233 14.6713,6.43493 14.0066,26.6944 33.7884,36.2463 13.5244,6.53046 42.7161,3.38485 54.6492,-7.22863 8.16435,-7.2618 6.56618,-18.4983 8.94246,-23.7294l1.61717 -310.819 1.70873 0.810426 38.0736 101.394 37.5183 -133.578 1.29373 0.323433 39.7823 130.667 0.9703 -0.646866 35.2542 -94.7659 1.61717 -0.646866 2.97071 314.694c2.37628,5.23106 5.62536,14.3677 7.48829,16.297 11.092,11.4888 43.064,14.4051 56.5881,7.87493 19.7816,-9.55163 6.67644,-21.0867 30.7185,-35.6 9.48926,-5.72825 20.9435,0.288567 31.6415,-6.99336 11.4681,-6.98117 8.37468,-23.3022 10.3751,-23.779l3.23547 0.484441c12.3367,6.19172 11.0239,33.2952 0.548788,44.4206 -12.757,13.5485 -23.4706,7.38992 -32.0224,13.667 -5.71266,4.59298 -4.05638,10.3272 -9.11849,15.9826 31.2381,21.562 21.4801,71.7446 3.55663,71.3138 -7.59912,-5.45585 11.3992,-27.9989 -11.4474,-40.1777 -20.3017,-10.2328 -35.4946,1.85499 -59.3263,5.97317 -10.0621,1.73877 -23.6565,-2.72268 -36.6049,-3.15525 5.54202,28.5903 6.46214,17.6341 12.7956,24.2793 9.63468,10.1092 24.461,2.59002 35.979,4.26359 19.8162,2.33915 23.4482,21.0631 31.1876,24.9764 7.16315,3.62211 10.455,2.63679 18.6843,3.40611l-0.320882 3.88063c-5.63585,12.4611 -19.6175,9.85465 -29.634,6.71953 -11.0015,-3.44381 -13.7188,-10.3649 -23.5831,-12.1039 -4.78488,-0.843591 -13.8311,2.36211 -24.5795,2.9469 -10.097,0.549071 -21.6782,-1.34759 -33.2141,-7.08237 -9.35377,-4.65024 -18.7427,-8.12098 -26.1284,-24.9273l-2.91005 -1.29288c-1.02416,12.6142 -3.44835,21.996 -5.33566,34.6102 9.60492,14.1265 19.8281,4.69219 33.3544,14.0153 6.84454,4.7177 6.5486,20.6552 23.5585,22.9312 16.4736,2.20394 18.7719,-6.01002 25.5592,-7.67707 5.88019,6.18605 -5.52274,30.7639 -34.0985,26.6647 -24.2518,-3.47896 -22.5933,-13.2338 -30.7531,-17.8254 -2.86016,-1.60951 -7.70145,-1.74501 -13.4609,-2.56507 -4.77213,-0.679748 -10.3779,-2.38734 -14.1846,-0.776126 -1.43291,9.42123 -7.04552,43.9427 -16.5558,48.5161z"/>
  <polygon fill="#CCCCCC" points="91.1943,97.3112 72.4352,128.684 37.1809,128.684 54.9698,160.057 36.2106,191.107 73.082,190.783 92.1646,224.42 112.217,190.46 147.795,190.46 128.713,161.028 149.089,129.008 109.953,129.008 "/>
  <path fill="white" d="M56.9109 160.093l-17.4702 -30.0858 33.8023 -0.125008 18.9695 -30.8506 -1.01821 -1.72063 -18.7591 31.373 -35.2542 0 17.7888 31.373 -18.7591 31.0496 2.26687 -0.020126 18.4334 -30.9935zm19.0828 32.631l-2.91175 -1.94088 19.0826 33.6371 0.899434 -1.52362 -17.0702 -30.1726zm35.121 -62.587l37.2651 -0.0161575 0.708945 -1.11345 -39.1354 0 1.16135 1.12961z"/>
  <polygon fill="#CCCCCC" points="409.102,97.3112 390.343,128.684 355.088,128.684 372.877,160.057 354.118,191.107 390.989,190.783 410.072,224.42 430.125,190.46 465.702,190.46 446.62,161.028 466.996,129.008 427.861,129.008 "/>
  <path fill="white" d="M374.818 160.093l-17.4702 -30.0858 33.8023 -0.125008 18.9695 -30.8506 -1.01821 -1.72063 -18.7591 31.373 -35.2542 0 17.7888 31.373 -18.7591 31.0496 2.26687 -0.020126 18.4334 -30.9935zm19.0828 32.631l-2.91175 -1.94088 19.0826 33.6371 0.899434 -1.52362 -17.0702 -30.1726zm35.2826 -62.587l37.1245 -0.0487559 0.687969 -1.08085 -39.1354 0 1.32293 1.12961z"/>
  <path fill="white" d="M213.129 142.268l37.5183 -133.578 1.29373 0.323433 0.532914 1.75039 -9.58904 62.2894 -16.1717 82.7989 -2.58747 2.58747 20.3763 -105.763 -0.323433 -2.58747 -22.6403 94.1191 -4.52807 13.5842 -0.646866 -6.14523 6.46866 -21.9935 12.9373 -52.3962 -16.8185 58.218 -5.17493 14.8779 -1.61717 -0.323433 0 -3.23433 0.9703 -4.52807zm116.482 -93.7962l-0.0456378 -4.85093 -1.61717 0.646866 -35.2542 94.7659 -0.9703 0.646866 0.646866 3.55777 1.61717 -1.9406 21.0232 -55.3071 0 1.29373 -15.5248 49.1619 -4.20463 14.2311 2.9109 -0.323433 9.37956 -33.3136 9.37956 -29.4324 -0.9703 6.7921 -7.7624 33.6371 -3.55777 8.7327 -1.29373 7.7624 2.26403 0.323433 1.61717 -9.37956 4.20463 -10.6733 8.08583 -36.2245 2.58747 -5.8218 0.323433 -5.49836 1.29373 -4.52807 1.29373 -13.9076 4.5737 -10.3504zm144.617 269.132c-0.51874,-0.378142 -1.06696,-0.714615 -1.64523,-1.0046l-3.23547 -0.484441c-2.00041,0.476788 1.09304,16.7978 -10.3751,23.779 -10.698,7.28192 -22.1522,1.2651 -31.6415,6.99336 -24.0421,14.5134 -10.9369,26.0484 -30.7185,35.6 -13.5241,6.53018 -45.4961,3.61389 -56.5881,-7.87493 -1.86293,-1.92926 -5.112,-11.0659 -7.48829,-16.297 -0.318898,27.1752 24.5903,31.0629 54.836,32.6061 5.74951,10.5959 13.4396,-4.03597 28.8921,-2.17247l1.25717 -3.05688c-12.9512,-1.40882 -24.285,10.1197 -27.2095,5.47654 8.42202,-2.86328 14.2217,-8.17852 18.8969,-14.1426l1.21153 1.2515 0.974268 -0.549638 1.32435 -6.85134c6.71415,-8.6247 6.21893,-23.2812 30.6822,-23.1982 -30.2355,5.39235 -19.5877,17.3404 -28.6254,26.2914l0.751465 3.05377c5.99018,-5.71607 5.41701,-15.7527 12.3576,-21.348 5.78466,-4.66328 21.8585,-4.31575 19.5908,-9.13834 8.54901,0.355465 16.2737,-3.5212 21.4855,-12.767 2.36891,-4.20208 3.70602,-10.0276 5.26706,-16.1663zm-38.6807 144.379c-6.64923,-4.77383 7.06507,-22.6304 -4.70778,-35.1785 -5.08366,-6.44429 -6.27761,-9.75827 -16.2113,-10.9117 5.17578,-0.00623622 10.2438,-0.765922 14.5545,3.55777l-1.61717 0.9703 4.20463 0.646866c6.79181,6.57638 8.40898,17.8963 4.8515,33.9605 1.80624,0.694489 0.582237,3.66208 -1.07433,6.95481zm-8.89115 21.4855l0.159024 -1.91991c-8.22926,-0.769323 -11.5211,0.216 -18.6843,-3.40611 -7.73944,-3.91323 -11.3715,-22.6372 -31.1876,-24.9764 -11.518,-1.67358 -26.3444,5.84561 -35.979,-4.26359 -6.33345,-6.64526 -6.93015,5.60466 -12.7956,-24.2793l-8.95323 -9.3773 -2.26403 0.323433c8.62498,10.5653 6.9001,12.0747 9.37956,21.9935 -5.28265,-4.42035 -11.2122,-2.37203 -16.8185,-3.55777 0.754867,-9.59528 -6.57638,-12.7219 -10.3499,-21.0232 -0.323433,2.04832 4.04306,7.92426 6.5092,13.3818 2.46614,5.45783 1.73849,10.4984 4.1641,10.8757 5.39065,0.646866 9.811,-1.9406 16.1717,1.9406l1.9406 7.11553c1.61717,3.66548 4.20463,6.03723 5.8218,9.703 -4.00224,0.808441 -7.52004,2.38451 -9.68571,0.680599 -3.60992,-2.84032 -1.31102,-8.90136 -11.6609,-11.6773l-0.323433 1.9406c13.7945,7.50161 4.15332,15.4114 20.3981,12.9759 17.2483,-2.58605 21.6816,20.4222 33.9387,6.10668l-0.646866 -2.26403c-5.06722,4.52778 -10.1347,4.74321 -15.2014,0.646866l0 -3.23433c-4.09692,-0.215717 -17.25,-5.60637 -19.0826,-14.2311 8.57452,5.61317 14.6183,13.0666 33.3136,11.3202l9.37956 -1.61717c24.9245,-1.08539 21.0637,32.4366 52.4571,26.8231zm-145.547 0.830835c9.60492,14.1265 19.8281,4.69219 33.3544,14.0153 6.84454,4.7177 6.5486,20.6552 23.5585,22.9312 11.3255,1.51512 15.9511,-1.89383 19.9415,-4.71402l3.29783 1.88929c-17.0348,12.1825 -32.7748,7.97783 -47.2213,-12.6139 -7.8463,-1.68435 -9.29934,-4.90961 -13.0618,-5.14375 -3.26466,-0.203244 -3.96907,5.66901 -21.5456,-3.91238l1.61717 -1.29373c2.01799,0.63326 9.35774,7.68274 17.3747,3.19351 3.36586,-1.88504 5.24183,1.41024 8.13827,1.95704 3.21307,0.606614 5.84504,2.87462 8.44753,3.58214 -4.42007,-10.1344 -36.9791,-5.71408 -39.4589,-24.5809l3.23433 -0.323433 2.32328 5.01364zm-31.3849 80.2353c-2.80573,-2.69518 -1.15739,-4.6834 -8.91978,-9.1304 -3.21279,-1.84025 -6.31729,-22.669 -8.59295,-37.6299l3.23433 0c3.22073,13.392 3.0498,29.7034 9.62164,35.714 3.90047,3.5674 5.00712,4.03824 7.19689,10.2135l-2.54013 0.832819zm-72.4964 -142.497c1.25008,4.33276 -1.93748,16.8253 -8.2715,23.4714 -4.06035,4.26019 -9.14967,3.39477 -14.4128,6.22545 -8.42259,4.52977 -9.90596,-2.0778 -27.383,0.461764 -16.0999,2.33915 -17.7928,17.9929 -25.5325,21.9064 -2.9109,1.47203 -2.89417,4.17855 -5.97799,3.83131 -4.91726,-0.55389 -9.50882,3.48435 -16.4225,2.32158 -0.193323,11.7292 7.98577,10.9534 13.9076,10.3499 -2.9109,-2.37203 -9.37956,-4.09692 -8.7327,-7.11553 6.09846,-3.01918 8.47191,-0.497197 17.9323,-4.55499 6.4766,-2.77795 11.723,-18.32 22.0691,-22.434 10.1608,-4.03994 18.2665,1.66365 28.8457,-0.457796 3.37663,-0.677197 9.3756,-1.25802 13.5116,-3.26098 5.31751,-2.57499 8.61364,-6.86863 10.4667,-10.0449 0,2.9109 -3.8812,7.11553 -5.8218,10.6733 4.08104,-4.24545 10.3887,-5.8201 9.37956,-16.1717l-2.26403 -0.323433 4.20463 -5.17493c-0.917292,-10.1344 2.20904,-20.8077 14.2311,-32.6668l-1.61717 -0.9703c-3.20032,2.60022 -6.34082,5.45329 -7.884,8.84297 -2.124,4.66583 -4.92973,4.40703 -6.175,6.42898 -2.27225,3.69043 -0.519307,6.624 -4.05326,8.66211zm-115.364 -47.9977c8.45944,6.20873 6.48,15.8207 11.5421,21.4761 -26.845,18.5298 -22.4589,55.4522 -9.31919,65.1966l4.79112 -0.833386c-22.4246,-16.7108 -5.7138,-56.7088 8.40926,-60.8054l0.9703 -4.20463 -2.9109 -2.26403 1.9406 0c-5.14092,-5.2183 -6.40092,-20.4628 -15.4233,-18.5652zm-25.9761 -56.7947l-4.52807 -0.323433c-12.3367,6.19172 -11.9934,31.0334 -1.51824,42.1586 2.39159,2.54013 4.71203,4.43339 6.95963,5.87367l11.0537 2.09991c-28.6081,-12.8421 -22.4612,-33.4338 -18.4357,-43.0166 -4.63578,17.5731 -0.646583,28.2461 11.967,32.0199 -10.9446,-7.76183 -11.8063,-19.0823 -8.08583,-32.0199l-2.9109 -1.29373 5.49836 -5.49836zm154.944 -119.522c-0.0643465,-9.11963 3.75251,-4.33162 3.04129,-11.8341l2.18325 0.269575c-1.80879,4.66044 0.587055,8.35059 -5.42636,13.9813l0.675213 39.1876 3.17225 2.93188 2.86696 -3.6241 1.89128 1.70079 -11.0004 18.3937 1.3388 40.1292c4.38605,3.75647 9.74212,18.5097 2.48428,28.7348 5.1001,-19.6226 -3.384,-10.1361 -7.01689,-27.8178l0.0144567 -41.0749 6.95537 -12.587c-2.07326,-2.05002 -3.9291,-5.29002 -4.27068,-16.8636l-0.607181 -29.4327 -4.08303 -5.80054c2.38904,-16.8718 -2.01402,-24.3641 0.37474,-33.1501 0.943087,-4.07566 -1.07093,-10.7776 -3.54699,-12.2851l-2.33263 5.42126 0.159874 77.1537c0.841607,4.73981 5.56555,1.71751 6.40659,6.45733 0.204378,1.15143 -2.23399,2.4154 -2.55033,4.6097 -0.696473,4.82769 3.41717,1.65203 0.632693,14.2129l-3.85144 -8.44328c-0.460063,-3.8435 4.57824,-12.8616 -0.733323,-9.58933l-0.15789 56.3794c4.12668,5.58596 2.19203,9.65679 -0.608882,13.5113 8.07052,12.507 1.19991,16.0835 0.480756,27.0595 -2.01742,-8.10426 2.43354,-15.8848 -0.231024,-18.4904 -0.400252,11.2275 -0.800504,22.4549 -1.20076,33.6824l-1.6852 3.23688c3.55606,0.748347 1.36091,7.24819 0.316914,12.5972l-1.55452 -2.73997c-0.521859,7.84233 -5.59049,12.6564 -11.308,17.0359 -4.96318,15.2756 -52.1379,12.2477 -64.6073,0.263622 -9.20807,-8.85005 -14.6736,-22.8835 -26.2585,-31.5309 -8.58019,-6.4046 -31.3977,1.93125 -31.6573,-14.7901 1.30961,1.73877 3.0943,3.46819 5.5097,5.11229 10.698,7.28192 19.5514,1.40995 29.7026,5.86233 14.6713,6.43493 14.0066,26.6944 33.7884,36.2463 13.5244,6.53046 42.7161,3.38485 54.6492,-7.22863 8.16435,-7.2618 6.56618,-18.4983 8.94246,-23.7294l1.61717 -310.819 1.70873 0.810426 9.01078 23.9961 0.277228 6.56646 -7.11553 -18.4357 0.784347 83.6779c1.88192,13.0779 10.8811,10.8952 9.85068,20.4752 -3.97616,11.3176 0.780378,24.2524 -1.5789,36.2169l4.54706 4.3526zm28.7666 249.219l5.17493 -0.323433c1.40145,12.0747 1.8326,25.7667 4.20463,36.2245 1.29373,4.8515 -18.4357,8.08583 -28.1387,14.5545 8.7327,-3.34233 15.8482,-5.39065 26.1981,-10.0264 -5.01307,3.50391 -10.8352,6.73796 -18.4357,9.37956 10.781,-0.754867 12.5059,-4.74378 18.7591,-7.11553l0.323433 3.55777c-15.5137,7.49027 -22.3673,3.09657 -32.7087,9.5607 -9.84048,6.1509 -13.3359,26.4405 -33.984,23.3932 -7.80974,-1.15257 -9.22876,-2.74536 -15.1359,-6.10895 3.34233,12.2905 7.33125,10.3499 10.9967,15.5248 -4.75767,0.0462047 -8.22161,-2.49506 -12.3327,-4.71288 -3.49455,-5.63783 -3.80013,-12.3902 0.689103,-18.2509 6.78728,2.79808 4.23808,12.4668 20.7119,10.2623 17.0104,-2.27622 13.9666,-13.5275 26.79,-22.7696 13.3279,-9.60577 23.7495,-8.7755 31.0924,-15.3079 -1.88731,-12.6142 -3.18047,-25.2275 -4.20463,-37.8417z"/>
  <path fill="#CCCCCC" d="M464.436 336.975l4.52807 -9.05613c-0.646583,5.60665 -2.15575,8.62526 -4.52807,9.05613z"/>
  <path fill="white" d="M244.83 304.507c-2.65691,-9.47906 -1.8669,-26.2828 -2.15433,-38.778l2.80063 -4.95496c0.767622,10.2555 -1.48139,10.3859 -1.36006,18.9179 0.116504,8.19978 0.834804,16.6153 0.713764,24.8151z"/>
  <path fill="white" d="M232.119 191.62l-2.15433 4.95496c-0.259087,9.57827 -0.0170079,17.1303 -0.247181,23.4284 -1.10211,30.1728 4.64457,26.5068 6.92561,29.5682l-0.861733 5.1704c1.22145,-0.568063 2.37062,-1.71269 3.01606,-6.89386 -8.90476,-3.8778 -4.66781,-9.47906 -6.03213,-12.926l-1.07717 -3.01606c-0.28715,-16.4449 2.22633,-27.5037 0.430866,-40.286z"/>
  <polygon fill="white" points="234.489,175.248 234.058,175.248 232.55,185.588 235.351,177.617 237.505,172.662 235.135,173.309 "/>
  <polygon fill="white" points="223.286,169.215 224.794,176.756 225.225,170.723 "/>
  <polygon fill="white" points="208.421,177.402 208.206,183.649 209.714,189.682 210.145,178.264 "/>
  <polygon fill="white" points="208.421,192.913 207.775,200.238 209.283,199.161 209.714,193.99 "/>
  <path fill="white" d="M206.913 204.546l1.9389 0 0 3.2315c0.242079,3.83726 4.14255,5.77843 5.00173,8.20829 0.973985,2.75386 -1.37537,1.5514 -1.12394,7.08747l4.09323 1.07717 -1.50803 4.30866 -0.861733 -2.5852 -1.72347 -1.07717 -1.72347 9.04819c-0.933733,-3.59065 -0.143717,-5.02696 -0.215433,-7.54016l0.6463 -10.5562c-3.44693,-1.3646 -4.95496,-6.60671 -4.5241,-11.2025z"/>
  <polygon fill="white" points="213.161,232.553 207.129,241.386 207.129,243.324 213.161,234.276 "/>
  <path fill="white" d="M213.592 290.289c1.57975,-1.50803 2.65691,-2.36976 3.66236,-5.60126 -0.551906,-2.4772 -5.4207,-5.8286 -5.98337,-8.63235 -2.43921,-12.1507 0.875622,-23.1531 -2.63395,-32.5154l-0.861733 3.66236c1.67613,10.8612 -0.740126,19.7839 0.289701,27.4142 0.908788,6.73172 6.55711,4.41638 5.52699,15.6725z"/>
  <path fill="white" d="M218.978 295.459l0 0.215433c3.9498,10.9871 1.00545,23.6976 1.50803,35.5465 2.5852,10.9871 4.09323,11.2025 7.10929,4.09323l-3.66236 0.215433c-2.5132,-13.716 1.22088,-32.1715 -3.01606,-39.8551 3.2315,-3.94951 5.60126,-8.47389 7.10929,-13.5723l-1.50803 0.215433c-2.51291,5.52926 -5.0264,9.90936 -7.54016,13.1414z"/>
  <polygon fill="white" points="232.981,344.793 229.749,353.842 229.534,360.951 232.334,355.35 233.412,349.533 234.704,347.809 234.489,344.793 "/>
  <path fill="white" d="M207.775 310.54l1.50803 2.15433 -6.463 7.54016c1.3646,20.6096 -1.36432,27.8626 -2.36976,36.6236 8.04303,7.89903 0.143717,12.3514 0.215433,18.5273l-2.36976 0c1.43632,-3.08806 5.67326,-10.9154 0.430866,-18.3118 0.287433,-8.25846 3.37521,-15.4395 1.50803,-37.7008l7.54016 -8.83276z"/>
  <polygon fill="white" points="246.769,359.227 245.045,361.597 244.83,364.829 247.415,361.166 "/>
  <path fill="white" d="M239.444 373.661c0.933449,-0.502583 3.37493,-1.65175 4.09323,0.430866 0.737008,9.99723 -5.34019,10.2932 -7.31792,16.4758 -2.10529,6.58177 2.73317,10.1707 -5.60807,15.1929 4.30413,-7.88117 0.625323,-9.73418 1.92558,-14.3804 1.0097,-3.60794 8.69811,-7.64788 6.90718,-17.7191z"/>
  <path fill="white" d="M225.225 373.231c-23.9131,16.6601 -11.2025,19.9633 -21.7588,32.7458 0.28715,1.50803 1.14917,2.15433 2.5852,1.9389 8.97648,-12.0643 0.502866,-22.1896 20.897,-32.5304 1.14888,-0.072 -0.287433,-2.51348 -1.72347,-2.15433z"/>
  <path fill="white" d="M201.743 385.726c-0.6463,2.94406 -2.80063,6.53471 -3.8778,8.83276 3.15978,-1.3646 5.88841,-4.23695 6.89386,-7.97103l-3.01606 -0.861733z"/>
  <path fill="white" d="M205.621 375.17c-0.6463,2.94406 -1.07717,7.18101 -2.15433,9.47906 3.15978,-1.3646 4.16495,-4.88325 5.1704,-8.61733l-3.01606 -0.861733z"/>
  <path fill="white" d="M179.769 352.764l0.430866 2.5852c6.58403,-7.8823 -2.18239,-13.388 4.95496,-29.9452l-3.44693 -9.90993c1.00998,17.0685 -1.3697,15.7839 -1.73679,22.6553 -0.357449,6.69232 2.69263,10.5755 -0.20211,14.6146z"/>
  <path fill="white" d="M192.479 346.948l-8.61733 11.6334c1.42724,5.95106 -0.737292,7.51323 -1.45899,11.8607 -1.20331,7.24649 -3.09203,14.6197 -8.8818,18.2999l0.215433 1.9389c10.6917,-7.70741 9.1338,-12.4756 10.9208,-17.585 0.867119,-2.47918 3.34375,-6.43975 2.4361,-13.8682l6.67843 -7.10929 0.430866 -4.95496 -1.72347 -0.215433z"/>
  <path fill="white" d="M177.614 362.459l-1.9389 2.15433c0,5.0984 -5.60126,13.1409 -10.3408,19.6044l1.2926 -0.215433c7.68501,-6.93015 12.4965,-14.0394 10.9871,-21.5433z"/>
  <path fill="white" d="M182.462 257.435l1.45417 0 0 7.91717c-1.45417,-1.50803 -1.13102,-4.63181 -1.45417,-7.91717z"/>
  <path fill="white" d="M170.828 387.341c-1.7725,0.200976 -4.0544,-2.07128 -5.95276,-1.37622 -2.77427,1.01565 -5.42041,5.06722 -6.84397,5.16529 -4.28542,0.29537 -3.29188,3.60255 -11.6501,3.50986 -0.918709,-0.0102047 -10.927,-1.73679 -13.4569,-1.49839 -4.96545,0.468 -9.90426,0.207213 -13.3155,0.0161575 4.83959,5.92753 13.5369,2.80205 17.7806,3.0138 2.63707,0.131528 10.3952,1.09332 16.325,0.254551 5.19676,-0.735307 5.995,-4.58051 8.64171,-4.84498 1.16476,-0.116221 0.363685,-2.84173 2.38621,-4.06205 1.05959,-0.639213 3.11329,0.68967 6.0857,-0.178016z"/>
  <path fill="white" d="M176.968 398.329c-7.17591,0.260221 -7.13594,-3.41065 -10.7453,-2.22576 -4.64003,1.52334 -4.53402,7.53052 -12.6091,8.86224 -8.69273,1.43348 -12.081,-2.42504 -13.5082,-2.44205 -3.49852,-0.0419528 -6.00208,3.44665 -15.6492,2.26857l-1.13102 1.13102 1.45417 1.13102c13.2429,0.983339 12.3545,-2.93754 15.493,-2.75131 0.727937,0.0430866 7.22552,3.22554 13.1375,2.87773 10.9548,-0.644599 8.88492,-6.25947 12.7247,-8.45292 2.98658,-1.70617 6.12426,1.87257 10.8335,-0.398551z"/>
  <path fill="white" d="M116.539 396.067c-2.90835,-4.84725 -7.43244,0.161575 -15.0265,-7.75559l-1.77732 0.32315 0.484725 1.61575c5.76284,5.33197 10.8794,3.8778 16.3191,5.8167z"/>
  <path fill="white" d="M118.801 403.014c-4.79651,-2.18126 -6.75411,-0.842174 -9.58706,-2.07836 -3.64224,-1.5891 -6.37881,-4.13235 -8.83248,-4.22306l0.6463 1.61575c5.92441,1.56189 7.16315,5.70898 17.7732,4.68567z"/>
  <path fill="white" d="M93.1108 386.049c-0.106016,-1.8428 -2.84882,-2.92621 -4.21229,-5.08507 -1.54488,-2.44687 -2.81792,-5.90882 -3.70488,-6.70989 0.376441,5.43997 2.36863,9.80221 7.91717,11.795z"/>
  <path fill="white" d="M82.77 393.481c-4.09323,-5.5474 -6.24756,-13.1953 -7.91717,-13.7339 1.69597,6.27506 4.06573,11.3375 7.91717,13.7339z"/>
  <path fill="white" d="M62.7347 445.993c-5.49355,-11.6872 -2.15433,-26.8214 10.0176,-41.5247l3.39307 -0.161575c3.07332,-1.296 4.69644,-3.83471 10.6639,-1.61575l-3.06992 1.77732 -1.77732 -1.2926c-4.15503,1.296 -8.93311,7.4486 -10.0295,7.7006 -2.15121,0.494079 -4.07877,4.09521 -6.3737,9.33279 -1.54999,3.53764 -1.30791,8.56404 -2.66712,13.0133 -1.25178,4.09777 0.645733,7.91745 -0.157039,12.7707z"/>
  <path fill="white" d="M75.8223 413.355l1.61575 1.45417c1.56132,-1.83572 3.1235,-2.15688 4.68567,-2.26205l-0.32315 -1.13102c-1.99276,0 -3.98551,0.6463 -5.97827,1.9389z"/>
  <rect fill="white" x="248.869" y="347.756" width="1.2926" height="2.74677"/>
  <path fill="white" d="M185.208 444.377c14.811,-8.02489 3.93166,-19.6044 13.8954,-26.0136l-1.45417 -2.26205c-10.9332,6.03213 -2.47748,14.9726 -12.4413,28.2756z"/>
  <path fill="white" d="M203.466 439.045c-31.7225,11.9027 -18.3657,24.4517 -39.4243,23.2668l-3.2315 1.9389 1.2926 1.45417 2.10047 -1.77732 3.06992 1.2926c24.1824,-5.33197 5.87055,-9.53292 36.1928,-26.1751z"/>
  <polygon fill="white" points="148.208,468.937 162.103,468.291 162.103,466.836 149.985,466.998 148.369,467.483 "/>
  <path fill="white" d="M149.5 460.05l-0.161575 1.9389c3.82394,-1.66961 7.32473,-1.23874 11.4718,-5.00882l0.484725 0.969449 2.74677 -0.32315 0.161575 -2.90835 -4.68567 0.484725 -0.807874 1.2926 -3.55465 0.807874c-1.88504,0.915591 -2.80063,1.99276 -5.65512,2.74677z"/>
  <path fill="white" d="M145.461 466.675c2.5852,-0.8623 5.1704,-1.67046 7.75559,-2.10047l-0.807874 -1.2926c-3.12747,0.320032 -5.11881,1.77562 -6.94772,3.39307z"/>
  <path fill="white" d="M129.465 469.422l3.71622 0c0.969449,-2.63906 3.8778,-3.55465 8.72504,-2.74677l0.161575 -1.13102c-5.41333,-1.37395 -10.476,0.188221 -12.6028,3.8778z"/>
  <path fill="white" d="M139.644 461.828c-10.0919,-4.31518 -18.7228,-0.74693 -23.9131,6.62457 0,0.915591 2.5852,1.34646 4.84725,0.32315 1.0491,-5.49411 9.72057,-7.97131 15.5112,-6.30142l3.55465 -0.6463z"/>
  <path fill="white" d="M95.696 483.479c3.33921,0.754016 6.67843,0.430866 10.0176,-0.969449l0.161575 0.807874c4.61849,-1.17128 8.36108,-4.26813 10.8255,-10.1792l-1.61575 0c-3.25814,4.84753 -9.82971,7.48659 -18.258,8.88662l-1.13102 1.45417z"/>
  <path fill="white" d="M231.419 440.338l-1.9389 1.45417c0,6.84 0.6463,13.3569 0.969449,20.0353l0.807874 -0.484725 0.161575 -21.0047z"/>
  <polygon fill="white" points="232.065,466.998 230.773,469.098 232.065,485.256 234.65,484.933 233.519,481.863 233.358,468.937 "/>
  <path fill="white" d="M239.982 442.6l2.74677 0c-1.56189,3.71622 -1.50803,6.463 -2.26205,9.69449l-2.26205 3.2315c-0.210047,-3.03988 0.53915,-4.62359 0.703276,-7.15975 0.163843,-2.53588 0.228756,-5.37846 1.07405,-5.76624z"/>
  <path fill="white" d="M238.69 483.479l-0.6463 2.10047 1.9389 -0.161575c3.60851,-3.55465 4.20095,-11.6334 1.77732,-24.2362l0 8.07874 -1.2926 -3.55465c0.700158,8.50961 0.107717,14.434 -1.77732,17.7732z"/>
  <path fill="white" d="M217.847 501.737c3.90784,0.407339 6.77311,-3.50788 9.17717,-4.90422 2.76463,-1.60583 5.93008,-0.746079 8.91922,-2.36665l-1.77732 -2.10047c-1.32435,3.17906 -4.65562,1.94684 -8.07109,3.67795 -3.01351,1.52731 -3.75931,3.74457 -8.24797,5.69339z"/>
  <path fill="white" d="M190.702 509.977c2.05994,-3.94328 6.25068,-3.46791 9.1338,-5.50007 3.95802,-2.78929 6.23963,-2.33632 14.4561,-2.25553l-0.161575 0.969449c-3.78255,1.09559 -9.83452,-0.71915 -12.964,1.67131 -3.21874,2.45877 -6.43777,3.94866 -10.4644,5.11484z"/>
  <path fill="white" d="M155.64 527.427l1.9389 0.161575 0.969449 1.13102 0.32315 -1.45417 2.26205 0.32315 0.6463 0.484725c19.1197,4.09323 28.0602,-14.1109 33.6076,-16.3191l4.5241 0 -0.32315 2.10047c-12.549,1.07717 -15.565,22.1896 -42.4942,16.3191l-1.45417 -2.74677z"/>
  <path fill="white" d="M181.008 105.07l0.969449 0c0,5.1704 0.484725,9.04819 0,15.5112l-0.969449 0c-0.161575,-5.49355 -0.807874,-10.1792 0,-15.5112z"/>
  <polygon fill="white" points="180.038,127.367 179.877,133.669 180.846,133.669 181.815,128.014 181.815,124.944 181.169,125.59 "/>
  <path fill="white" d="M238.69 517.894l2.5852 0.32315c2.80063,11.1487 0.915591,19.389 7.91717,34.4155l-1.61575 0c-7.64788,-13.1953 -5.92441,-23.1591 -8.88662,-34.7386z"/>
  <path fill="white" d="M248.223 536.96l1.13102 0.32315c-0.107717,4.68567 1.07717,6.13985 1.61575,9.20977l0 2.74677c-1.77817,-1.64239 -2.6932,-5.03603 -2.74677,-12.2797z"/>
  <path fill="white" d="M270.358 488.972l1.2926 0c0.32315,1.72347 0,5.38583 10.6639,11.9565l-2.5852 -0.161575c-7.01547,-3.47386 -9.68089,-7.45966 -9.37134,-11.795z"/>
  <path fill="white" d="M282.153 502.221l0.161575 1.45417c1.45417,0.971434 2.74649,1.02444 4.20095,1.13102l-0.484725 -1.13102c-1.2926,-0.484725 -2.5852,-0.969449 -3.8778,-1.45417z"/>
  <path fill="white" d="M291.848 504.483l0 1.61575c3.82394,1.1245 7.64759,1.2994 11.4718,1.13102l-0.484725 -1.61575c-3.66236,-0.377008 -7.16315,-0.107717 -10.9871,-1.13102z"/>
  <path fill="white" d="M306.713 508.038l3.06992 0c3.97106,4.04844 4.83194,8.91893 9.34271,12.3021 3.73777,2.80347 9.25881,3.9498 11.0157,4.34013l0.161575 2.10047c-2.20309,0.0184252 -4.78659,-2.35729 -8.27122,-2.5132 -3.24029,-0.145134 -12.9053,-10.9987 -15.3187,-16.2295z"/>
  <path fill="white" d="M333.373 526.781c3.98551,1.07717 6.73229,1.23874 9.85607,0.161575 1.61575,-0.538583 2.42362,1.50803 1.45417,2.26205 -3.47386,1.42781 -7.24394,0.780945 -11.1487,-0.807874l-0.161575 -1.61575z"/>
  <path fill="white" d="M368.758 468.452l1.77732 2.26205c4.36252,-2.90835 8.88662,0.484725 11.1487,0.969449l-0.161575 -1.77732c-4.25481,-0.484725 -6.08599,-5.65512 -12.7644,-1.45417z"/>
  <path fill="white" d="M365.688 461.343l1.9389 2.90835c14.4879,-4.9011 15.7266,6.03213 18.258,7.10929l2.90835 -0.32315c5.07487,8.18986 11.4574,11.1509 18.258,12.4413l-0.484725 -2.10047c-13.6261,-3.06992 -15.6189,-14.8649 -21.0047,-13.5723 -7.91632,-7.89166 -8.56319,-8.48353 -19.8737,-6.463z"/>
  <polygon fill="white" points="365.203,458.273 366.334,459.889 373.766,458.596 372.151,457.303 "/>
  <path fill="white" d="M333.857 374.577l-1.2926 2.10047c8.71229,13.307 9.37163,7.90356 12.2771,12.2346 3.06964,4.57597 11.8911,0.684284 19.4448,5.2234 6.91087,4.15276 11.7006,2.82019 15.1347,3.06199l-2.10047 -2.26205c-4.80671,-0.26504 -6.5092,1.09049 -12.2329,-3.70063 -3.47131,-2.90608 -15.1115,0.62589 -18.4399,-3.86022 -2.12343,-2.86158 -2.55118,-2.6572 -4.18139,-2.93188 -1.39748,-0.235559 -2.88737,-3.61984 -8.60939,-9.86571z"/>
  <path fill="white" d="M357.609 398.813l-3.39307 -0.161575c1.56217,2.7601 7.21673,4.24092 15.6728,4.84725 -3.44693,-1.72347 -8.67119,-2.31591 -12.2797,-4.68567z"/>
  <path fill="white" d="M390.409 400.429c-2.26205,1.61575 -7.10929,1.9389 -10.1792,3.8778 6.35528,0.430866 10.7717,-0.861733 13.2491,-3.8778l-3.06992 0z"/>
  <path fill="white" d="M435.65 421.434l2.5852 0.161575c7.89591,4.70495 4.24262,26.8875 0.807874,29.0835l-0.32315 -2.42362c1.07717,-5.38583 5.38583,-14.9726 -3.06992,-26.8214z"/>
  <path fill="white" d="M419.492 380.878l-0.161575 1.45417 2.26205 0c2.80658,-5.02356 5.43317,-3.92939 7.93673,-7.40013 2.00976,-2.78674 -1.03153,-6.47689 7.41289,-13.7662l0 -2.42362 -1.2926 0c-3.14561,3.30718 -7.50983,7.25953 -7.49821,9.92183 0.028063,6.4732 -5.34218,7.49651 -8.65928,12.2139z"/>
  <path fill="white" d="M474.589 326.912c-2.66599,5.03575 -4.44303,9.775 -5.8167,14.3802l-0.161575 2.26205c3.93166,-2.04662 4.95496,-8.94048 7.43244,-13.4107l-1.45417 -3.2315z"/>
  <polygon fill="white" points="308.329,406.569 313.984,412.709 314.953,411.255 310.267,405.599 308.329,405.276 "/>
  <path fill="white" d="M306.874 402.206l-1.45417 -0.161575c-3.82394,-3.82366 -6.0857,-9.20948 -6.463,-16.4806l1.61575 0.32315c0.956126,6.81307 3.19153,12.0915 6.30142,16.3191z"/>
  <polygon fill="white" points="303.804,441.954 302.189,440.015 302.189,441.954 304.128,444.216 "/>
  <path fill="#666666" d="M203.951 143.687l-2.74677 1.61575c1.23874,26.2828 1.02331,22.9975 -6.94772,38.6164l2.90835 3.06992 0 2.10047 1.45417 -0.161575 1.9389 3.55465 2.26205 1.2926 -0.969449 1.77732 0.807874 2.26205 0.6463 4.84725 1.77732 3.55465 0.6463 -14.3802c-3.9223,-1.86605 -3.87184,-9.75771 -5.15821,-11.0378 -1.296,-1.28976 0.24463,-3.67966 1.66621,-4.90252 4.52835,-3.89537 1.25376,-11.0101 1.71468,-32.209z"/>
  <path fill="#666666" d="M226.41 238.208l3.06992 0.32315 -1.13102 -8.40189 1.13102 -0.32315 0 -13.7339 -0.807874 0 0 -3.06992 0.807874 0 0 -5.97827 -1.13102 -2.5852 -1.45417 0.161575 0 2.26205 0.484725 1.2926c-0.131244,4.06942 -5.59503,9.27043 -5.72599,13.3401 -0.191622,5.94737 4.78659,5.75603 4.75654,16.7128z"/>
  <path fill="#666666" d="M204.921 225.605c-10.0715,18.4195 -0.430866,10.5024 0.32315,25.2057l0.969449 4.36252 1.13102 0 -0.807874 -13.2491c-5.1704,-7.80945 -4.20095,-3.98551 2.90835,-14.2186 -0.861733,-2.15433 -3.17764,-2.36976 -4.5241,-2.10047z"/>
  <path fill="#666666" d="M232.227 248.064l-2.5852 2.5852 0 11.6334 1.45417 3.06992 0.161575 2.90835 -5.65512 7.91717c-1.13102,3.71622 -3.2315,3.39307 -3.39307,11.1487l1.45417 -0.32315c1.61717,-2.24334 2.09395,-7.59317 4.38917,-9.41301 3.00331,-2.38139 4.70977,-5.707 6.59792,-8.84495l-0.807874 -7.10929 -0.161575 -10.0176 0.807874 -1.2926 0 -1.2926 -2.26205 -0.969449z"/>
  <rect fill="#666666" x="205.405" y="261.798" width="0.807874" height="6.94772"/>
  <polygon fill="#666666" points="197.327,329.821 198.942,331.113 199.589,335.314 199.589,339.031 197.973,339.192 198.134,336.93 196.905,334.518 "/>
  <path fill="#666666" d="M201.366 316.41l-2.26205 4.03937 0 -10.8255c2.15433,-3.77008 5.43969,-6.89386 6.463,-11.3102l-1.9389 -0.6463c-0.484725,-2.90835 0.32315,-6.463 2.42362,-10.6639l1.77732 1.2926 0.32315 11.1487c-1.9389,6.94772 -7.27087,4.68567 -6.78615,16.9654z"/>
  <path fill="#666666" d="M219.462 286.68l-1.61575 -0.32315c0,2.80063 0.32315,5.43969 0.969449,7.43244l1.45417 -1.77732 -0.807874 -5.33197z"/>
  <polygon fill="#666666" points="235.781,289.104 235.781,287.165 231.257,281.995 232.711,280.702 236.266,283.934 236.589,281.51 239.013,281.672 239.013,290.073 237.074,290.235 "/>
  <path fill="#666666" d="M219.624 332.083c-0.0538583,-1.34646 -0.421795,-2.71729 -0.161575,-4.03937 0.409323,-2.07921 0.0935434,-2.61723 0.322866,-5.12277 0.132945,-1.45276 -1.46948,-2.6983 -0.888378,-4.01641 1.69654,-3.8469 -1.45417,-5.75603 -1.85811,-8.63405l-3.39307 -0.807874c0.215433,4.92803 4.09521,5.34218 2.79213,9.48076 -0.52441,1.66507 0.443339,1.95336 0.905953,3.70914 0.771307,2.92706 -0.35915,7.5121 2.28019,9.43059z"/>
  <path fill="#666666" d="M216.554 352.118l1.61575 2.90835c4.73953,-5.1704 1.72347,-11.9565 2.5852,-17.9348l-1.2926 1.13102c-0.969449,4.63181 0.484725,8.29418 -2.90835,13.8954z"/>
  <path fill="#666666" d="M245.637 343.07l-2.42362 0 -0.807874 -2.5852c1.03351,-9.91219 -1.74047,-21.8758 0.838205,-28.1214 2.25865,-5.47087 -3.41348,-4.03455 -2.1308,-18.089l1.61575 -0.161575c0.193606,3.26268 -0.381827,8.18618 1.89468,11.9826 5.53125,9.22309 0.65537,7.00215 2.69575,10.5392 1.89411,3.28366 0.985323,10.7841 0.252,14.5826 -1.0749,5.56555 -2.31251,5.47824 -1.93408,11.8528z"/>
  <path fill="#666666" d="M198.296 376.516c0.215433,7.21701 -4.73953,11.6872 -1.77732,19.7121 -9.97371,7.5824 -6.95169,8.50394 -10.8947,13.1573 -3.47981,4.10627 -6.48964,5.40737 -10.9179,11.0789l-2.5852 -3.39307c2.14583,-0.706678 5.49411,-3.69326 7.73207,-6.51827 2.53616,-3.20117 3.96879,-6.37937 6.48652,-9.15449l-3.55465 -0.969449c8.07874,-8.7789 9.37134,-15.9421 15.5112,-23.9131z"/>
  <path fill="#666666" d="M163.396 413.193c7.64788,-2.5852 11.7411,-7.10929 17.6117,-10.6639l1.13102 2.90835 -4.84725 4.36252 0.484725 2.26205 -0.6463 1.77732 -3.06992 0c-3.81118,3.00217 -9.0275,8.29928 -12.2737,7.15522 -1.60554,-0.565796 -5.89096,9.87733 -30.382,0.761953l-0.161575 -2.26205 -2.42362 0.32315c-0.484725,-1.99276 -8.07874,-4.95496 -12.1181,-7.43244l0.32315 -2.10047 3.39307 0.807874c5.76284,3.95858 11.526,6.16649 17.2885,5.8167l0.161575 1.13102 -3.55465 1.2926c3.82394,3.01606 8.61733,1.50803 12.926,2.26205l1.13102 -1.45417 -5.33197 0 0.484725 -2.10047c11.9027,1.33313 21.005,0.390047 26.0136,-3.8778l-6.13985 1.9389 0 -2.90835z"/>
  <path fill="#666666" d="M107.491 414.971l0 2.10047c7.16315,1.34646 15.9421,7.86331 21.9742,5.00882l-0.484725 -2.5852 -2.26205 0c-2.20819,2.20819 -11.041,-5.27811 -19.2274,-4.5241z"/>
  <path fill="#666666" d="M66.1278 450.679l3.2315 0.969449c-3.01465,-12.9932 2.11606,-23.7852 13.0513,-32.1018 8.17682,-6.21865 19.5622,-2.30457 26.5346,-5.86829l-2.74677 -1.2926c-14.2724,-1.31953 -24.3709,1.80425 -31.0224,8.15953 -6.6515,6.35528 -10.1792,19.9814 -9.04819,30.1337z"/>
  <path fill="#666666" d="M98.4428 489.618l-1.77732 2.90835c10.7467,2.56592 20.5501,1.92274 26.983,-10.1792 1.9389,0.380977 3.8778,0.43767 5.8167,-1.77732l0.484725 -3.55465 -0.969449 0.161575 -1.9389 2.90835 -4.03937 -0.807874 0.161575 1.9389c-6.35528,8.34804 -16.0498,11.6334 -24.721,8.40189z"/>
  <path fill="#666666" d="M130.758 475.238l1.2926 1.9389 3.2315 0.807874c5.23134,-2.43298 7.28391,-0.00935434 10.9244,-0.0649134 5.3212,-0.0810709 10.6081,-1.02529 15.753,0.0113386 10.0114,2.01713 24.063,-1.80397 36.1752,-14.165l-2.26205 -0.161575c-7.67963,8.91497 -20.1932,9.63156 -22.8059,12.7678 -1.58088,1.89751 -12.2241,-0.940252 -18.2801,-0.253134 -9.74353,1.1058 -10.5415,-3.52687 -24.0287,-0.881292z"/>
  <path fill="#666666" d="M175.514 469.583l9.20977 -1.13102c2.53956,-1.59874 7.66489,-3.68277 11.0123,-7.05855 2.9537,-2.97921 2.51462,-6.92788 7.89194,-12.0073l1.2926 -3.06992 -1.45417 0.161575c-4.07622,3.36926 -5.89096,9.80901 -9.96719,13.1786 -5.24098,4.33191 -12.7443,5.59446 -17.9853,9.92665z"/>
  <path fill="#666666" d="M197.327 461.989l4.5241 0c6.05906,-3.81827 8.50111,-6.3326 8.61988,-10.9565 0.102898,-4.00479 5.00684,-5.11569 7.37604,-9.56353l-0.32315 -4.5241c-3.4149,7.98945 -7.82221,6.63449 -11.1144,14.3308 -1.96441,4.59213 -6.38136,8.01213 -9.08249,10.7133z"/>
  <path fill="#666666" d="M206.375 441.954l3.8778 0.161575c3.15071,-4.4229 3.7491,-8.07336 5.73846,-11.1538 1.54715,-2.39613 3.35027,-2.8664 5.89493,-4.68057l-0.32315 -3.39307c-2.55969,3.78681 -5.76652,1.91906 -8.16463,4.89799 -2.71758,3.3755 -3.49739,9.33761 -7.02341,14.1678z"/>
  <polygon fill="#666666" points="222.209,429.674 219.947,432.098 219.947,434.037 222.694,433.713 223.986,430.805 223.825,429.836 "/>
  <path fill="#666666" d="M170.667 538.252c2.42362,-0.30274 8.95465,0.609733 12.6091,-2.42674 3.54189,-2.94265 11.706,-8.2732 14.866,-11.8871 1.90885,-2.18268 4.48526,-2.82614 6.59254,-6.07947 3.07106,-4.74151 6.59084,-3.45799 8.74545,-5.55307 1.75748,-1.70873 5.60551,0.706394 7.90555,0.0839056 5.18485,-1.40287 10.5761,0.00595276 14.396,-1.60526l-0.161575 2.90835c-11.5319,-1.0131 -14.0547,2.26715 -17.9966,0.621638 -3.13229,-1.30762 -3.77235,1.34901 -6.18775,1.68265 -4.2806,0.591024 -6.67248,6.55144 -8.30552,6.91087 -3.89084,0.85663 -6.07663,7.86813 -17.9878,14.4811 -7.20255,3.99884 -11.4279,1.00658 -16.7375,3.1252l2.26205 -2.26205z"/>
  <path fill="#666666" d="M261.795 543.261l-2.74677 6.62457c0.969449,-27.7909 2.26205,-24.0747 2.90835,-33.446l1.9389 -0.161575c-0.700158,8.99434 -2.53134,16.0498 -2.10047,26.983z"/>
  <path fill="#666666" d="M276.66 512.239l3.2315 2.90835c7.22325,0.168378 20.8644,1.17553 26.4816,7.73519 12.1972,14.243 17.8109,12.0912 25.4353,12.7213 15.7382,1.3011 13.2191,-2.57414 17.3988,-4.29903l-0.161575 -1.45417 -1.61575 0c-6.78274,7.43896 -27.256,5.25147 -34.9243,-3.55068 -8.68508,-9.96917 -14.9287,-10.0443 -17.653,-11.649 -5.8337,-3.43616 -11.4633,-1.83175 -18.1925,-2.412z"/>
  <path fill="#666666" d="M271.005 444.539l-2.74677 5.49355c0.0337323,13.3248 -2.51773,11.9469 -2.484,15.4151 0.0337323,3.4801 2.08658,5.18088 1.8377,10.2753l2.42362 -0.161575c0.141165,-4.5241 -1.65572,-10.1792 -0.060378,-13.5723 2.47635,-5.26564 0.848126,-11.6334 1.02983,-17.4501z"/>
  <polygon fill="#666666" points="266.481,439.045 265.511,443.246 266.965,445.993 267.612,439.692 "/>
  <path fill="#666666" d="M276.498 474.592l0 3.39307 -1.9389 0c-2.84088,-6.81534 -1.6081,-12.1037 0.0096378,-19.0332 1.64268,-7.03616 -0.149102,-8.18107 -0.131811,-11.355 0.0150236,-2.80063 1.17326,-4.89373 1.2532,-7.58183l-2.10047 0.161575 0 -2.90835 5.1704 0.161575c-2.83238,6.16507 2.44573,6.40148 0.931182,19.4134 -1.1418,9.80986 -6.31701,11.3448 -3.19323,17.7489z"/>
  <polygon fill="#666666" points="278.76,434.683 278.76,436.783 283.123,439.369 283.608,442.115 286.354,442.115 286.031,440.015 280.215,434.845 "/>
  <path fill="#666666" d="M280.699 432.906l1.77732 -2.26205 1.45417 0.6463c3.74882,4.52636 10.4389,13.5193 13.5936,22.6103 1.37537,3.96369 11.7462,12.3596 18.7214,10.0278l3.8778 -3.06992 1.9389 0.32315c7.54016,8.83276 19.4428,8.61733 24.5594,10.5024l4.36252 3.8778c2.36976,-0.377008 3.60851,-2.53134 7.10929,-3.55465l3.71622 -0.161575 0 1.13102 1.77732 0 2.90835 -1.77732 9.85607 0.32315c2.36976,1.99276 4.73953,5.60126 12.4413,6.463 3.28536,3.8778 10.2869,9.04819 16.1575,8.72504l0 1.61575 -1.45417 1.45417 -5.65512 -0.484725c-4.80841,-3.77292 -10.0074,-4.43594 -11.6317,-6.70734 -1.82523,-2.55317 -5.90032,-3.77773 -10.8403,-7.68189 -7.38114,-5.83342 -10.4003,2.16199 -20.9917,0.65537 -1.77732,3.69014 -7.00186,3.79786 -11.9565,-0.484725 -11.2286,4.97707 -19.6537,1.18006 -25.3593,-4.15843 -4.60347,-4.30725 -21.6045,-6.98882 -30.5456,-30.9033 -2.42362,-1.07717 -3.8778,-4.73953 -5.8167,-7.10929z"/>
  <path fill="#CCCCCC" d="M320.77 462.959l-3.2315 2.5852c7.80945,7.64788 15.6189,10.3408 23.4284,8.07874 -7.63456,-2.97581 -15.5787,-4.07991 -20.1969,-10.6639z"/>
  <path fill="#666666" d="M425.47 393.32l-2.10047 1.45417c4.22221,1.55339 6.01172,6.81563 10.764,6.39298 15.1583,13.4892 14.9545,38.7941 7.81711,51.6124l-0.161575 1.9389 1.77732 -0.161575c11.4449,-22.9975 7.51323,-47.6113 -18.0964,-61.2369z"/>
  <polygon fill="#666666" points="428.379,392.189 429.994,392.35 434.842,396.228 433.549,397.359 429.671,394.451 428.056,393.804 "/>
  <path fill="#666666" d="M472.489 346.301l2.10047 0.161575c0.242929,1.49046 -1.6115,2.85903 -1.51767,4.42545 0.226205,3.7749 -10.7042,16.2332 -28.514,15.838 -5.44281,-0.120756 -6.06529,3.89764 -8.30778,6.73087 -3.27855,4.14284 -4.56435,5.86007 -6.41679,9.19843l-1.77732 0.6463 6.78615 -11.3102c-3.35225,4.31632 -6.16536,8.63263 -7.79415,12.9495l4.2395 5.47002 -2.10047 0.32315 -3.06992 -3.71622 -3.39307 7.10929 -2.42362 0.161575 0.484725 -5.00882c6.81676,-5.66646 10.3941,-18.148 13.9643,-19.6529 1.8601,-0.784063 3.09515,-2.94718 5.15537,-4.51106 3.42057,-2.5971 9.68599,-1.18488 12.7947,-2.73515 7.0183,-3.50051 15.7904,-5.99868 19.7895,-16.0798z"/>
  <path fill="#666666" d="M414.806 404.63l-1.9389 -0.161575 -3.55465 2.10047 -5.49355 -0.484725 -2.74677 1.13102 -3.55465 -0.484725c-6.51685,3.8778 -12.7106,8.24032 -19.5506,11.6334 5.97827,-0.296221 9.20977,-1.31953 15.0265,-4.5241 10.3008,0.767056 17.9753,-1.79093 21.8126,-9.20977z"/>
  <path fill="#CCCCCC" d="M398.326 409.154l-3.2315 2.5852c6.35528,-0.269291 10.7717,-1.18488 13.2491,-2.74677l-10.0176 0.161575z"/>
  <path fill="#666666" d="M360.679 419.172l0.484725 1.77732c6.22063,1.02387 11.5526,0.269291 16.4806,-1.2926l-5.1704 -0.807874 2.90835 -2.10047 0.161575 -2.74677c-3.55493,2.82813 -6.51742,3.58214 -9.20977,3.39307l-0.161575 1.2926 -5.49355 0.484725z"/>
  <path fill="#666666" d="M327.556 402.691l-0.807874 0.807874c7.76637,15.6254 17.1459,4.29364 26.7778,10.1186 4.04107,2.44375 10.1699,-0.100913 14.1007,0.222236l0.161575 -2.10047c-16.2255,3.34602 -11.3017,-3.07616 -17.3571,-3.11103 -9.44589,-0.0541418 -16.8642,3.51496 -22.875,-5.93717z"/>
  <path fill="#666666" d="M318.346 402.368l2.26205 1.2926c1.44397,1.6628 5.38214,7.91462 10.0947,8.56829 5.68744,0.788599 3.77547,5.90627 24.3207,5.6503l-0.161575 4.20095c-5.95276,-0.641197 -11.7411,-0.431433 -17.4699,-1.45417 -3.17991,-0.56778 -8.62328,-1.98284 -10.1767,-5.25714 -0.840473,-1.77222 -6.23226,-6.35414 -8.86933,-13.0008z"/>
  <path fill="#CCCCCC" d="M337.897 418.202c-2.93556,-2.12854 -5.79033,-3.42057 -8.72504,-3.39307 1.61575,1.77732 4.5241,2.90835 8.72504,3.39307z"/>
  <path fill="#666666" d="M309.298 384.11l-1.9389 0.32315c-0.754016,5.00882 3.50079,23.1052 16.6422,28.114 -5.06268,-6.73229 -15.2958,-17.1808 -14.7033,-28.4372z"/>
  <path fill="#666666" d="M303.966 374.739l-1.77732 0c-3.33411,20.6513 3.56258,21.6638 7.25188,28.5106 1.68973,3.13625 4.54677,4.99351 6.05055,7.40495 1.75947,2.82217 5.28208,5.20413 6.4097,6.2555l3.39307 -0.969449 -1.61575 -1.45417c-4.20577,-1.74189 -7.93021,-8.55298 -12.3517,-13.8518 -5.01052,-6.0052 -7.52514,-7.50161 -7.36044,-25.8956z"/>
  <path fill="#666666" d="M280.861 381.04l1.61575 0.484725c1.50803,6.30142 0.430866,12.4413 2.10047,18.4195 -2.10047,-1.34646 -3.33921,-7.64788 -3.71622,-18.9043z"/>
  <path fill="#666666" d="M284.415 366.175l-2.5852 0.32315c1.4675,7.58268 3.21676,14.1273 5.97827,16.9654 0,-3.17764 -0.6463,-6.35528 0,-9.53292l-1.13102 0.807874c-1.40032,-1.99276 -2.15433,-4.84725 -2.26205,-8.56347z"/>
  <path fill="#666666" d="M265.188 336.445c-0.260221,4.66555 -4.0011,9.58224 -4.18989,13.7469 -0.381543,8.407 4.76788,15.4556 2.98602,20.7074 -1.78611,5.26451 -0.781796,7.66687 -1.04769,13.5354 -0.36737,8.11191 3.97871,3.7389 2.73628,15.5092l4.68567 1.13102 5.97827 0.32315 -1.61575 -2.42362 -7.43244 0c0.406205,-3.64904 0.507118,-5.68375 -0.672945,-8.03963 -4.19273,-8.371 2.74536,-23.4267 -0.191906,-28.8128 -6.90123,-12.6547 3.09515,-16.0535 3.19351,-20.6966 0.119622,-5.6452 5.34586,-5.54996 5.75008,-9.18142l5.00882 2.26205 -0.161575 3.55465c6.49985,3.10989 8.95947,18.7934 9.85607,32.4766l1.9389 0.161575 0.32315 -11.9565c1.45417,-1.18488 2.20819,-3.66236 3.2315,-7.43244 3.2315,1.77732 5.97827,6.78615 10.6639,9.20977l0 5.00882 0.969449 2.90835 2.74677 0 -0.161575 3.2315 3.2315 0.969449c1.82608,3.20854 6.30482,4.91584 6.74929,9.48615 0.367087,3.77575 1.81417,7.77487 3.5915,11.357 -0.670678,-5.61033 0.893197,-9.3464 -0.585071,-13.0056 -1.67499,-4.14681 -5.2767,-3.14107 -9.271,-10.2611l-0.161575 -3.71622 -3.2315 -2.90835 -0.32315 -2.10047 2.26205 0.161575 0.484725 2.42362 2.74677 0.484725 6.78615 -34.7386 -2.42362 0.161575c-2.20819,-8.18646 -2.26205,-14.8649 -0.161575,-20.0353l0.969449 16.8038 1.61575 0.484725c-0.377008,-16.9115 2.96221,-29.9452 -0.6463,-41.5247 -0.215433,-6.57071 1.66762,-12.6992 -0.868536,-15.5112 -2.22917,-2.47125 -4.36933,-9.02098 -5.75603,-11.795 3.44693,-22.6205 0.592441,-38.2932 -4.68567,-44.5947 2.63906,-13.4107 4.47024,-27.4677 7.91717,-40.2321l-2.42362 -1.61575c-5.43969,11.6334 -3.60851,24.0747 -11.9565,29.5682 -8.34804,-5.43969 -7.64788,-10.5562 -11.4718,-15.8343l0.32315 -20.52 -2.10047 0.6463 -0.807874 19.5506 2.90835 5.00882c0.992126,3.28706 -2.34482,6.98004 -3.96681,12.9524l1.28665 2.70028 -1.41421 1.69767 -1.52249 -2.31761c-1.10239,2.78844 -1.78583,6.16621 -2.30032,9.04196 0.107717,7.75559 -0.430866,15.5112 0.32315,23.2668 -3.71651,6.22092 -7.43301,11.4993 -11.1487,14.7033 -4.20095,-4.20095 -3.2315,-9.69449 -7.75559,-11.6334l-0.807874 -2.74677 -0.161575 -9.69449 -1.45417 -1.77732 -1.77732 1.61575 0.161575 4.68567 0.807874 1.45417 0 4.03937 -0.969449 -0.32315 -3.2315 -8.07874 0.32315 -1.13102 1.61575 0c-0.454677,-7.52457 -0.854646,-12.6354 1.1761,-21.723 1.01764,-4.55329 0.775559,-36.2044 -5.70019,-41.1296l1.13102 -13.0876 -2.26205 0.32315c0.161575,6.08599 -1.13102,8.94048 -1.77732,13.2491 2.18126,1.9338 4.68879,2.76662 4.02265,9.17632 -0.735591,7.07868 1.18488,7.59629 0.740977,12.6267 -0.594709,6.74136 1.21861,13.7115 0.256819,20.5126 -1.10693,7.82533 -0.550205,11.3511 -0.0116221,17.6287 -1.58315,1.82835 -2.74365,2.92734 -3.54869,4.46372 -1.34164,2.56082 -1.58939,5.15367 -3.96199,6.87629 -3.04044,2.20762 -1.7297,5.58624 -4.57002,8.3744 -3.0977,3.04101 -2.24136,9.41811 -1.49159,13.57l2.5852 -2.90835 0 -4.03937 -0.807874 -0.6463 0.161575 -3.06992 1.61575 -1.61575 1.45417 2.42362 3.06992 -1.77732c-0.161575,-4.09323 1.77732,-7.54016 2.42362,-11.3102 2.33773,3.19606 4.3526,2.83777 6.04403,4.57966 1.91679,1.97405 2.86469,4.59496 4.78148,6.56901 -1.07717,7.54016 1.23874,9.90993 1.2926,15.9959l1.9389 0.161575c1.02331,-5.60126 -1.66961,-7.80945 0.6463,-13.4107l2.42362 2.74677c1.27758,8.37695 -4.23128,11.7876 -4.24602,18.1321 -0.0133228,5.7464 2.98743,9.71405 2.70765,18.8722 -0.206929,6.77509 -2.78873,8.36476 -2.91657,11.0744 -0.268725,5.69481 -2.15376,5.2937 -2.83153,7.61188 -0.938268,3.20939 -2.65096,5.25203 -3.21591,8.77777l-1.2926 1.13102 -2.74677 0.161575 -3.8778 4.03937 -0.161575 2.26205 2.26205 -0.484725 3.06992 -3.06992 2.74677 0c-0.167811,2.84315 3.21903,5.03972 -0.503717,8.52889 1.35298,2.0041 3.35197,3.03903 4.05836,6.01285z"/>
  <path fill="#666666" d="M286.354 201.046l1.9389 -0.484725c0.0538583,-4.14709 2.69291,-7.64788 1.13102,-11.4718l-2.10047 0.161575c-0.32315,3.93166 -1.45417,6.73229 -0.969449,11.795z"/>
  <path fill="#CCCCCC" d="M295.079 200.561c-1.11742,7.70174 -3.89084,10.9871 -7.59402,11.795 -1.13102,12.8183 2.90835,22.2435 0.969449,36.0312l-1.13102 0.161575 -0.484725 -5.8167c-4.75285,4.68539 -8.98045,14.0567 -8.07874,18.4195l-2.5852 0.807874 -1.13102 -2.26205c-3.79361,4.41298 -3.61191,11.0171 -2.89191,18.1023 2.57584,3.58214 3.36813,30.1833 -4.05581,32.7937l-0.161575 1.61575 1.9389 0 1.61575 3.55465 -1.77732 0.484725 -0.161575 2.10047 3.39307 0.484725c0.433701,2.50866 1.88022,6.27336 3.06312,6.65518 1.47118,0.47452 1.64438,2.12882 1.76684,3.91295 0.126709,1.84791 2.95852,1.69172 4.10003,4.16551 1.91197,4.1434 6.30114,7.30233 9.00482,9.50259l0.32315 -3.55465 3.06992 -0.161575 0.32315 -4.84725 3.06992 -0.32315c2.36976,-9.53292 -1.72347,-20.1969 -1.13102,-48.4725l1.61575 -1.61575 0.484725 -5.49355 1.9389 -0.161575 2.26205 3.06992 0.161575 -7.59402c7.43103,-5.17153 6.859,-20.9599 6.81874,-36.0431 -0.0161575,-6.13248 2.80233,-9.24067 0.788315,-17.2874l-3.72586 -0.320315 -1.00347 -4.73273c-2.5903,-1.404 -3.98495,-5.47569 -5.75802,-8.47106 -1.66536,-2.81339 -3.11443,-4.34523 -3.45373,-6.99931l-1.58315 0.498898z"/>
  <path fill="#666666" d="M288.455 251.78l-1.2926 0.161575c-3.17764,15.8882 8.99434,8.18646 7.43244,24.8825l2.74677 1.13102c1.07717,-19.012 -11.2564,-10.2331 -8.88662,-26.1751z"/>
  <rect fill="#CCCCCC" x="266.157" y="320.611" width="1.13102" height="3.71622"/>
  <path fill="#CCCCCC" d="M318.346 275.209l0 4.68567 -1.2926 -1.77732 -1.61575 0.969449c0.215433,18.3657 -1.18488,36.7314 0.6463,55.097l2.42362 -0.807874c-1.02983,3.1303 -0.832252,5.96438 -3.11669,7.92851 -2.35134,2.02167 -4.61877,11.4942 -5.12362,17.1156l-5.97827 -2.5852 0.969449 -6.463 -2.26205 1.2926 -0.484725 4.03937 -2.74677 -2.90835c0.107717,-4.47024 -0.6463,-8.07874 -2.26205,-10.8255 1.62567,-3.98863 3.32759,-3.59887 4.32992,-5.68035 0.779244,-1.61887 -1.12195,-1.97433 1.64835,-4.98359l5.1704 3.39307 3.06992 0.161575c-1.99276,-2.26205 -4.95496,-2.26205 -7.43244,-6.78615l0.785764 -10.0582 -2.26885 -3.14731 2.58151 1.89383c0.655654,-6.283 1.03465,-12.28 -0.624756,-16.9464 -2.17304,-6.11037 0.00538583,-13.6641 2.2731,-17.9524l-0.6463 -1.2926 0 -3.39307c2.20847,-2.98914 4.41666,-6.86693 6.62457,-11.1487 1.45417,6.463 4.03937,8.56347 5.33197,10.1792z"/>
  <polygon fill="#666666" points="293.464,341.777 294.756,344.201 294.595,347.432 295.887,347.594 296.372,344.524 "/>
 </g>
</svg>
