<?xml version="1.0" encoding="UTF-8" standalone="no"?>
<!-- Created with Inkscape (http://www.inkscape.org/) -->

<svg
   xmlns:dc="http://purl.org/dc/elements/1.1/"
   xmlns:cc="http://creativecommons.org/ns#"
   xmlns:rdf="http://www.w3.org/1999/02/22-rdf-syntax-ns#"
   xmlns:svg="http://www.w3.org/2000/svg"
   xmlns="http://www.w3.org/2000/svg"
   xmlns:sodipodi="http://sodipodi.sourceforge.net/DTD/sodipodi-0.dtd"
   xmlns:inkscape="http://www.inkscape.org/namespaces/inkscape"
   version="1.1"
   width="500.38486"
   height="686.82483"
   id="svg1901"
   style="enable-background:new"
   inkscape:version="0.48.2 r9819"
   sodipodi:docname="Kemi.svg">
  <sodipodi:namedview
     pagecolor="#ffffff"
     bordercolor="#666666"
     borderopacity="1"
     objecttolerance="10"
     gridtolerance="10"
     guidetolerance="10"
     inkscape:pageopacity="0"
     inkscape:pageshadow="2"
     inkscape:window-width="1600"
     inkscape:window-height="848"
     id="namedview59"
     showgrid="false"
     inkscape:zoom="0.34859675"
     inkscape:cx="225.59813"
     inkscape:cy="631.76746"
     inkscape:window-x="-8"
     inkscape:window-y="-8"
     inkscape:window-maximized="1"
     inkscape:current-layer="svg1901"
     fit-margin-top="0"
     fit-margin-left="0"
     fit-margin-right="0"
     fit-margin-bottom="0" />
  <defs
     id="defs1903">
    <style
       id="style3607"
       type="text/css">
   
    .fil1 {fill:#00923F}
    .fil0 {fill:#4D4948}
    .fil6 {fill:#DA251D}
    .fil7 {fill:#FACF00}
    .fil5 {fill:#FFF500}
    .fil4 {fill:#DA251D;fill-rule:nonzero}
    .fil3 {fill:#FACF00;fill-rule:nonzero}
    .fil2 {fill:white;fill-rule:nonzero}
   
  </style>
    <style
       id="style3840"
       type="text/css">
   
    .fil1 {fill:#00923F}
    .fil0 {fill:#4D4948}
    .fil6 {fill:#DA251D}
    .fil7 {fill:#FACF00}
    .fil5 {fill:#FFF500}
    .fil4 {fill:#DA251D;fill-rule:nonzero}
    .fil3 {fill:#FACF00;fill-rule:nonzero}
    .fil2 {fill:white;fill-rule:nonzero}
   
  </style>
  </defs>
  <metadata
     id="metadata1906">
    <rdf:RDF>
      <cc:Work
         rdf:about="">
        <dc:format>image/svg+xml</dc:format>
        <dc:type
           rdf:resource="http://purl.org/dc/dcmitype/StillImage" />
        <dc:title />
      </cc:Work>
    </rdf:RDF>
  </metadata>
  <g
     id="layer4"
     style="display:inline"
     transform="matrix(1.0218665,0,0,1.0218665,-5.6306451,-3.2544211)">
    <path
       d="M 110.35715,152.71428 106.42857,139.5 c 0,0 158.73647,-69.60168 289.04615,3.63438 l -3.68901,12.0799 z"
       id="path4060"
       style="fill:#df0000;fill-opacity:1;stroke:#000000;stroke-width:1.50000000000000000;stroke-linecap:butt;stroke-linejoin:miter;stroke-miterlimit:4;stroke-opacity:1;stroke-dasharray:none"
       inkscape:connector-curvature="0" />
  </g>
  <g
     id="layer3"
     style="display:inline"
     transform="matrix(1.0218665,0,0,1.0218665,-5.6306451,-3.2544211)">
    <path
       d="m 30.052038,386.58114 433.607982,0 c 0,0 7.82868,53.28555 18.43528,85.86297 10.6066,32.57742 12.12183,98.48987 -21.97082,135.1079 -34.09264,36.61803 -97.22718,34.85027 -97.22718,34.85027 0,0 -84.85281,-8.33377 -112.37947,29.04188 0,0 -19.44544,-33.58757 -105.56094,-26.01143 C 61.200366,652.80133 39.143411,614.118 39.143411,614.118 c 0,0 -32.5774194,-32.57742 -32.0723432,-87.37819 C 7.5761441,471.93903 21.718279,416.1281 30.052038,386.58114 z"
       id="path3767"
       style="fill:#003399;fill-opacity:1;stroke:none"
       inkscape:connector-curvature="0" />
    <path
       d="m 29.7995,386.45487 433.48171,0.12627 c 0,0 -16.4955,-109.224 29.93308,-163.15257 L 455,168.07143 c 0,0 -184.78419,-77.970059 -406.007602,-2.71369 l -39.3495408,56.9994 c 0,0 43.8847138,45.69546 20.1566428,164.09773 z"
       id="path3769"
       style="fill:#df0000;fill-opacity:1;stroke:none"
       inkscape:connector-curvature="0" />
    <path
       d="m 395.72726,139.85138 6.56599,-27.77919 c 0,0 -125.76399,-69.953065 -302.540686,-1.2627 L 107.5,139.32143 c 0,0 149.58382,-65.382507 288.22726,0.52995 z M 98.489873,107.02143 83.337585,79.999845 62.124381,53.104534 c 0,0 -10.101525,4.04061 -10.606601,-5.177032 -0.639324,-11.667675 18.687822,-8.081221 22.728432,3.282995 0,0 13.005714,-13.763328 12.879445,7.323606 0,0 12.753176,-13.131983 14.394673,-0.505076 0,0 15.23228,-20.013749 22.22336,3.156727 6.62912,21.970817 -9.45555,14.30128 -11.36422,13.384521 -2.50471,-1.203045 -5.44029,0.830607 -3.40926,4.04061 2.14174,3.384978 5.82192,11.992851 -18.435288,5.303301 0,0 50.000788,17.728674 76.607938,-24.414187 -7.44988,4.293148 -19.1682,21.233168 -20.67074,7.241594 0,0 -12.39576,14.455706 -16.28871,-3.661803 -3.89902,-18.145763 8.98414,-13.323245 13.00571,-10.85914 0,0 -3.9743,-10.745336 10.64785,-10.445978 -9.24357,-6.070659 -6.09691,-10.063228 1.72652,-12.029916 0,0 -15.87241,-13.358043 4.20386,-17.252906 18.72844,-3.6333761 10.48033,16.162441 10.48033,16.162441 0,0 12.52018,-6.118579 8.77018,8.613564 4.3901,-3.512339 15.97384,-10.42984 10.44643,3.482143 0,0 13.75,-8.214285 13.39285,8.035715 -0.35714,16.25 -9.64285,5.535714 -12.67857,8.571429 -3.03571,3.035714 5.09767,8.459916 -4.08547,8.044688 -8.097,-0.366117 -18.77167,-5.806201 -18.77167,-5.806201 0,0 50.61898,37.829347 84.96417,-9.395284 0,0 -2.24856,0.455402 -2.8799,1.339286 -0.63135,0.883883 -18.71211,18.737495 -19.9748,2.953862 0,0 -16.41498,12.879445 -18.43529,-5.303301 -2.0203,-18.182746 15.78364,-10.101525 15.78364,-10.101525 0,0 -0.88389,-9.848988 11.23794,-7.197337 0,0 -8.20749,-12.500638 5.17704,-11.490486 0,0 -14.58851,-15.175652 6.32877,-16.4060048 21.72912,-1.2781053 8.98042,17.0933698 8.98042,17.0933698 0,0 12.83587,0.286789 7.21087,11.715361 0,0 16.51785,-8.035715 12.05357,7.321428 0,0 14.375,-9.910714 13.83928,7.142857 -0.53571,17.053572 -16.42857,2.946429 -17.5,4.910715 -1.07142,1.964285 3.66072,12.767857 -5.17857,8.303571 -8.83928,-4.464286 -16.51785,-11.785714 -16.51785,-11.785714 l 1.39011,2.51407 c 0,0 33.69917,47.039502 80.84203,6.86093 -15.29586,6.836928 -23.30357,11.696429 -19.46429,-0.714285 0,0 -17.5112,8.101256 -14.27938,-9.808448 3.03045,-16.793786 15.5311,-3.661803 15.5311,-3.661803 0,0 -0.72435,-9.911352 10.01858,-4.785534 0,0 -6.47145,-14.13579 5.63878,-13.523481 0,0 -12.35551,-17.5064492 9.60878,-14.381449 21.96429,3.125 5.89286,18.928571 5.89286,18.928571 0,0 10.80357,0.357143 1.33929,11.339286 0,0 17.76785,-4.553571 12.41071,7.5 0,0 18.21428,-4.017857 11.42857,11.875 -6.78572,15.892857 -12.76786,2.678572 -15.44643,3.928572 -2.67857,1.25 -0.95414,17.121193 -21.22199,-4.575236 l -0.56373,1.628807 c 0,0 30.35715,42.857143 80.53572,15.178572 0,0 -18.07133,9.944645 -24.25851,5.14642 0,0 -2.33598,-1.830901 2.14657,-4.545687 4.50656,-2.729329 -1.94633,-2.568709 -8.00725,-2.316171 -6.06091,0.252538 -5.9167,-6.896213 -3.39132,-12.325783 2.52538,-5.42957 6.84763,-14.722719 10.00436,-9.798226 3.15673,4.924494 7.20259,4.363399 7.83394,2.721901 0.63134,-1.641498 1.95005,-6.22154 12.19579,3.794417 -0.80357,-11.875 6.62247,-21.233328 10.78518,-7.835027 0,0 5.9434,-5.243008 12.5641,-6.789589 5.04729,-1.179032 11.57267,-0.321984 9.77,7.304887 -1.38624,5.865012 -11.78572,3.482143 -11.78572,3.482143 l -16.33928,23.303572 -16.69643,31.160714 c 0,0 -112.49431,-63.133674 -302.402987,-3.28214 z"
       id="path3775"
       style="fill:#eab92f;fill-opacity:1;stroke:#000000;stroke-width:1.50000000000000000;stroke-linecap:butt;stroke-linejoin:miter;stroke-miterlimit:4;stroke-opacity:1;stroke-dasharray:none"
       inkscape:connector-curvature="0" />
    <path
       d="M 87.835479,76.559915 105.53571,67.17857 88.832941,79.142856 z m 72.364761,-24.812454 -15.91453,5.431109 17.14286,-3.75 z m 10.69262,-0.283177 18.57143,-3.75 -21.315,2.19516 L 164.28571,39.67857 161.60714,25.571427 162.5,41.285713 z M 251.78571,45.92857 228.57143,45.214284 250,43.533175 l 1.42857,-25.997462 2.14286,25.966824 22.14285,1.711747 z m 84.28572,9.285714 -23.57143,-5.714285 21.85968,2.669597 5.99746,-26.955312 -2.20784,27.216824 21.13642,4.033176 z m 78.75,18.928572 -19.10714,-7.857143 18.21428,10.535714 z"
       id="path3892"
       style="fill:#000000;fill-opacity:1;stroke:none"
       inkscape:connector-curvature="0" />
    <path
       d="m 186.87822,102.60201 a 7.449875,3.9143413 0 1 1 -14.89975,0 7.449875,3.9143413 0 1 1 14.89975,0 z"
       transform="matrix(0.58818988,-1.34673,0.65909626,0.29150738,212.58424,273.64545)"
       id="path3779-9-5-6"
       style="fill:#109148;fill-opacity:1;fill-rule:evenodd;stroke:#000000;stroke-width:1.45755707999999990;stroke-linecap:butt;stroke-linejoin:miter;stroke-miterlimit:4;stroke-opacity:1;stroke-dasharray:none;display:inline"
       inkscape:connector-curvature="0" />
  </g>
  <g
     id="layer5"
     style="display:inline"
     transform="matrix(1.0218665,0,0,1.0218665,-5.6306451,-3.2544211)">
    <path
       d="m 249.375,139.84375 c -12.34933,0 -22.34375,9.99442 -22.34375,22.34375 0,12.34933 9.99442,22.375 22.34375,22.375 12.34933,0 22.375,-10.02567 22.375,-22.375 0,-12.34933 -10.02567,-22.34375 -22.375,-22.34375 z m 0.0625,7.09375 c 8.47298,0 15.34375,6.83952 15.34375,15.3125 0,8.47298 -6.87077,15.34375 -15.34375,15.34375 -8.47298,0 -15.34375,-6.87077 -15.34375,-15.34375 0,-8.47298 6.87077,-15.3125 15.34375,-15.3125 z"
       id="path4067"
       style="fill:#cfcfcf;fill-opacity:1;fill-rule:evenodd;stroke:#000000;stroke-width:1.29999995;stroke-linecap:butt;stroke-linejoin:miter;stroke-miterlimit:4;stroke-opacity:1;stroke-dasharray:none"
       inkscape:connector-curvature="0" />
    <path
       d="m 327.05951,478.17372 c 0,0 13.43858,-9.71463 16.02915,-6.1526 2.59057,3.56203 -11.98138,8.90509 -11.98138,8.90509 z"
       id="path3916"
       style="fill:#c1a97f;fill-opacity:1;stroke:#000000;stroke-width:1.29999995;stroke-linecap:butt;stroke-linejoin:miter;stroke-miterlimit:4;stroke-opacity:1;stroke-dasharray:none"
       inkscape:connector-curvature="0" />
    <path
       d="m 195.74997,456.63961 c 0,0 12.62903,-11.33375 29.46774,-26.06762 0,0 14.41005,11.17184 29.30583,20.40075 0,0 -7.93362,4.37158 -11.65757,9.71463 -3.72394,5.34306 -47.116,-4.04776 -47.116,-4.04776 z m 27.68672,84.03162 c 0,0 7.93363,17.97209 24.77233,31.08685 0,0 9.71464,-14.24814 18.61973,-23.63896 0,0 -5.82879,-7.12406 -11.17184,-11.33374 -5.34305,-4.20968 -32.22022,3.88585 -32.22022,3.88585 z m 86.78411,-9.87655 c 0,0 12.79094,14.73387 29.46774,29.79156 0,0 5.01923,-16.19106 12.62903,-26.55334 0,0 -13.11476,-10.6861 -17.32444,-15.38151 -4.20968,-4.69541 -24.77233,12.14329 -24.77233,12.14329 z m 85.89429,-43.32329 c 0,0 43.1485,-24.19345 44.60569,-11.56441 1.4572,12.62903 -8.58126,14.41004 -5.50496,31.08684 3.0763,16.6768 4.42564,33.31716 -11.17184,26.06762 -11.49565,-5.34306 -17.0399,-8.69407 -35.98344,-12.25611 -18.94355,-3.56203 8.05455,-33.33394 8.05455,-33.33394 z"
       id="path3918"
       style="fill:#c1a97f;fill-opacity:1;stroke:#000000;stroke-width:1.29999995;stroke-linecap:butt;stroke-linejoin:miter;stroke-miterlimit:4;stroke-opacity:1;stroke-dasharray:none"
       inkscape:connector-curvature="0" />
    <path
       d="m 198.86586,456.61037 c 0,0 17.86015,-16.71526 27.36266,-25.07289 m -23.1266,24.95841 c 0,0 13.05165,-13.5096 24.38597,-24.157 m -19.69196,23.47007 c 0,0 14.31102,-15.79936 21.63826,-21.98172 m -18.66157,22.43967 c 0,0 12.93716,-15.11243 20.2644,-21.40928 m -16.3718,21.52377 c 0,0 9.84598,-12.25023 18.43259,-20.03542 m -15.22692,20.03542 c 0,0 11.44881,-13.62409 17.74566,-18.08912 m -14.19653,17.74565 c 0,0 9.50251,-11.5633 15.79936,-16.60077 m -12.82267,17.2877 c 0,0 8.58661,-10.87637 14.76897,-16.02833 m -11.44882,15.91384 c 0.45796,-0.22897 7.21276,-10.41841 13.39511,-14.4255 m -10.07495,14.31102 c 0,0 4.69401,-6.29685 11.90676,-12.82267 m -10.76187,14.65447 c 0,0 8.24314,-10.76188 12.4792,-13.62408 m -7.67071,11.5633 c 0,0 5.03748,-7.44173 9.38803,-10.41842 m -7.09827,11.33433 c 0,0 4.35055,-6.06788 9.38803,-9.61701 m -7.04102,10.07496 c 0,0 3.26291,-5.3237 8.64385,-9.10181 m -7.44173,9.55976 c 0,0 6.64032,-6.58307 9.90323,-8.24314 m -27.51481,91.13948 c 0,0 12.00818,19.07907 24.10505,28.72525 m 1.37624,-1.76138 c 0,0 -15.25413,-14.44695 -23.85643,-27.85438 m 4.04201,1.94292 c 0,0 13.43284,15.66367 21.20455,23.59729 m -18.6868,-23.72566 c 0,0 11.56848,11.94785 20.55452,21.25771 M 237.03719,541.6427 c 0,0 9.55273,10.92897 18.37686,19.10545 m -15.79042,-19.53106 c 0,0 7.55621,9.15905 17.05873,18.08913 m -14.08204,-17.4022 c 0,0 9.15905,9.38803 15.79936,15.34141 m -11.90677,-15.11244 c 0,0 5.49543,7.09827 13.6241,13.6241 m -11.10536,-14.19653 c 0,0 5.15197,5.95338 12.82267,12.25023 m -8.5866,-11.90677 c 0,0 1.60283,2.40425 9.96047,9.84598 m -6.98378,-10.53291 c 0,0 4.23605,4.23607 8.93006,8.12866 m 47.74155,-19.00503 c 0,0 19.23401,20.60786 27.47715,28.04959 m -24.50045,-28.62203 c 0,0 15.3414,16.02834 25.30187,25.41636 m -23.81353,-27.01919 c 0,0 11.14464,12.47345 24.76872,24.60919 m -5.99267,-30.10462 c 0,0 8.93008,8.12865 14.99795,12.93716 m -17.05873,-12.02126 c 0,0 8.35763,7.7852 15.91384,13.73858 m -19.00502,-13.16614 c 0,0 11.67778,10.76189 17.40219,15.57039 m -1.37386,2.8622 c 0,0 -15.79936,-14.76897 -20.14991,-18.77605 m 18.89054,21.40928 c 0,0 -13.28062,-12.70818 -22.43967,-21.52377 m -3.77811,3.66362 c 0,0 15.57039,15.4559 23.92802,22.78314 M 321.13917,525.7612 c 0,0 18.89054,17.40219 23.47006,22.32518"
       id="path3920"
       style="fill:none;stroke:#000000;stroke-width:0.60000002;stroke-linecap:butt;stroke-linejoin:miter;stroke-miterlimit:4;stroke-opacity:1;stroke-dasharray:none"
       inkscape:connector-curvature="0" />
    <path
       d="m 438.43225,472.7532 -45.73801,17.05873 46.59667,-16.20007 z m 2.36949,2.99186 -44.84925,15.46247 44.60638,-16.35297 z m 0.16191,1.86198 -40.07289,13.11476 40.15385,-11.73852 z m -0.62022,4.11664 c 0.48573,-0.0809 0.56988,-1.13884 0.56988,-1.13884 l -40.8321,12.72753 z m -0.46573,2.61822 -38.4242,10.11059 38.05702,-8.98703 z m -2.31417,5.24652 -35.37748,6.15261 36.10607,-7.44789 z m -1.21433,2.50962 -34.40602,5.34305 34.00124,-4.12872 z m -1.37624,3.64299 -33.11073,3.23821 32.7869,-2.02388 z m -0.64765,3.31917 -31.24875,2.50961 31.41066,-1.45719 z m 0.24287,3.88585 -31.49162,0.16191 31.65353,0.97147 z m 0.081,3.23822 -33.59645,-0.97147 34.08219,2.10484 z m 1.05237,3.48108 -34.9727,-2.99535 35.29653,4.12872 z m 0.24287,3.88585 -35.45843,-5.50496 35.94416,6.80024 z m 0.7286,4.04777 -35.21557,-8.09554 35.53939,9.30987 z m 0.24286,3.72394 -37.96804,-10.36228 38.21091,11.49566 z m 0.081,2.75248 -37.88709,-11.00992 38.049,12.38616 z m -0.081,3.23822 -37.56327,-12.95286 37.64423,14.24814 z m -0.56668,3.0763 -38.45378,-14.00527 37.88709,15.05769 z m -2.26675,3.0763 -36.59181,-14.89578 35.53939,15.86724 z m -1.83256,-60.71301 -31.88494,13.5096 28.73651,-13.16614 z"
       id="path3942"
       style="fill:#000000;fill-opacity:1;stroke:none"
       inkscape:connector-curvature="0" />
  </g>
  <g
     id="layer6"
     style="display:inline"
     transform="matrix(1.0218665,0,0,1.0218665,-5.6306451,-3.2544211)">
    <path
       d="m 255.26786,196.375 c 0,0 -0.98215,-3.57143 0.625,-5.80357 1.60714,-2.23214 6.60714,-4.19643 5,-15.80357 -1.60715,-11.60715 -18.03572,-16.69643 -22.5,-2.23215 0,0 1.96428,2.58929 4.28571,3.30357 0,0 1.51786,-6.78571 6.69643,-6.25 5.17857,0.53572 6.42857,5.71429 6.42857,10 0,4.28572 -1.78571,7.94643 -6.16071,8.39286 -4.375,0.44643 -6.5625,-4.19643 -6.5625,-4.19643 0,0 -2.90179,-0.75893 -5.75894,-2.72321 0,0 1.59525,6.85054 6.42858,9.68749 4.10714,2.41073 -3.48214,17.05358 -3.48214,17.05358 z"
       id="path4079"
       style="fill:#cfcfcf;fill-opacity:1;stroke:#000000;stroke-width:1.29999995;stroke-linecap:butt;stroke-linejoin:miter;stroke-miterlimit:4;stroke-opacity:1;stroke-dasharray:none"
       inkscape:connector-curvature="0" />
    <path
       d="m 242.94169,212.07729 1.26269,116.67262 c 0,0 2.02295,19.70803 -19.36884,20.12908 -21.35885,0.4204 -40.04075,-24.23283 -41.55598,-27.01075 0,0 8.20749,4.23002 18.1196,1.32583 0,0 -28.78934,-14.2684 -31.18846,-40.91118 0,0 -25.2107,25.25282 1.21787,58.46711 0,0 -0.70006,-7.20785 2.14286,-13.03572 30.48002,39.01072 51.94425,26.49021 76.18879,55.44862 22.08418,-30.36555 47.66135,-21.72368 76.13264,-56.52004 0,0 3.03571,5.17857 2.32143,14.10714 0,0 20.79341,-17.80847 5.64113,-56.95188 0,0 -7.44988,24.11739 -34.59773,35.60788 0,0 5.55584,3.28299 17.67767,0.50507 -12.94437,16.35581 -56.18133,46.74755 -58.87202,10.14704 -0.29217,-13.4976 1.04079,-115.45544 1.04079,-115.45544 z"
       id="path4085"
       style="fill:#cfcfcf;fill-opacity:1;stroke:#000000;stroke-width:1.29999995;stroke-linecap:butt;stroke-linejoin:miter;stroke-miterlimit:4;stroke-opacity:1;stroke-dasharray:none"
       inkscape:connector-curvature="0" />
    <path
       d="m 174.01786,328.33928 c 0,0 -14.03495,-16.76196 -4.31223,-45.17251 m 155.72133,44.09947 c 0,0 10.82757,-12.02713 8.42846,-41.57408"
       id="path3844"
       style="fill:none;stroke:#000000;stroke-width:1.29999995;stroke-linecap:butt;stroke-linejoin:miter;stroke-miterlimit:4;stroke-opacity:1;stroke-dasharray:none"
       inkscape:connector-curvature="0" />
    <path
       d="m 60.878404,507.64146 c 0,0 -4.85732,-10.36228 14.895779,-20.72456 19.753099,-10.36228 72.535967,-34.9727 149.929257,-31.08684 77.39329,3.88585 134.22393,41.77294 173.73013,29.79156 4.08639,1.37596 7.63146,25.8634 -3.77527,36.72743 -18.67534,-4.03378 -47.23833,-4.72137 -86.40896,9.57901 -61.20223,22.34366 -182.31139,2.26675 -193.32132,-0.64764 0,0 -28.658181,-3.23822 -42.906318,-11.98139 -14.248137,-8.74318 -9.876549,-10.6861 -9.876549,-10.6861 0,0 -1.848083,0.0786 -2.266749,-0.97147 z"
       id="path3846"
       style="fill:#cfcfcf;fill-opacity:1;stroke:#000000;stroke-width:1.29999995;stroke-linecap:butt;stroke-linejoin:miter;stroke-miterlimit:4;stroke-opacity:1;stroke-dasharray:none"
       inkscape:connector-curvature="0" />
    <path
       d="m 140.59141,519.23537 c 0,0 33.43053,-8.35763 38.01005,-5.26645 4.57953,3.09118 7.21275,4.69401 5.60992,6.06787 -1.60283,1.37386 -10.18944,12.47921 -21.1803,12.02125 -10.99086,-0.45795 -21.06581,-2.51873 -21.63826,-3.89259 -0.57244,-1.37386 -0.80141,-8.93008 -0.80141,-8.93008 z"
       id="path3912"
       style="fill:#c1a97f;fill-opacity:1;stroke:#000000;stroke-width:1.29999995;stroke-linecap:butt;stroke-linejoin:miter;stroke-miterlimit:4;stroke-opacity:1;stroke-dasharray:none"
       inkscape:connector-curvature="0" />
    <path
       d="m 140.18663,521.65927 39.78869,-6.88893 -39.64067,7.64292 0.12021,2.43203 43.87673,-6.10715 c -18.31206,3.40692 -29.4131,4.56848 -44.04439,6.78019 l 1.10559,1.38775 42.10385,-6.34427 -42.7376,7.24628 2.23659,1.15877 38.35352,-5.95338 -37.15547,6.54547 4.0684,0.78177 31.14077,-5.60992 -28.75854,6.06787 4.37257,0.45796 21.06581,-3.77811 -19.39016,4.26959 c 0,0 -7.6822,0.19545 -11.34582,-1.75085 -3.66362,-1.9463 -4.93114,0.0196 -5.16011,-8.33799 z"
       id="path3914"
       style="fill:#000000;fill-opacity:1;stroke:none"
       inkscape:connector-curvature="0" />
  </g>
  <g
     id="layer2"
     style="display:inline"
     transform="matrix(1.0218665,0,0,1.0218665,-5.6306451,-3.2544211)">
    <path
       d="m 10,222.71429 39.285714,-57.14286 c 0,0 194.285716,-75.714288 405.714286,2.85714 l 38.57143,55 c 0,0 -62.11879,64.5152 -17.14286,226.42857 46.42857,167.14286 -55.0377,196.5452 -127.14285,192.85715 -80.4051,-4.11258 -98.92857,29.99999 -98.92857,29.99999 0,0 -20.18824,-36.44733 -109.64286,-26.42856 C 44.295141,657.08451 -24.686319,585.51295 21.428571,422.71429 62.459704,277.86273 10,222.71429 10,222.71429 z"
       id="path2994"
       style="fill:none;stroke:#000000;stroke-width:2.5;stroke-linecap:butt;stroke-linejoin:miter;stroke-miterlimit:4;stroke-opacity:1;stroke-dasharray:none"
       inkscape:connector-curvature="0" />
    <path
       d="M 29.651567,387.09655 464.35767,386.56084"
       id="path3764"
       style="fill:none;stroke:#000000;stroke-width:2;stroke-linecap:butt;stroke-linejoin:miter;stroke-miterlimit:4;stroke-opacity:1;stroke-dasharray:none"
       inkscape:connector-curvature="0" />
    <path
       d="M 106.42857,143.78571 103.57143,137 c 0,0 149.32385,-69.39247 295.29089,2.83344 l -2.79089,6.80942 c 0,0 -128.30891,-69.319685 -289.64286,-2.85715 z m -7.499998,-28.92857 -3.571429,-8.21428 c 0,0 156.170837,-69.32196 312.239407,2.90394 l -3.03046,6.81854 c 0,0 -131.95766,-70.696618 -305.637518,-1.5082 z"
       id="path3771"
       style="fill:#eab92f;fill-opacity:1;stroke:#000000;stroke-width:1.50000000000000000;stroke-linecap:butt;stroke-linejoin:miter;stroke-miterlimit:4;stroke-opacity:1;stroke-dasharray:none"
       inkscape:connector-curvature="0" />
    <path
       d="m 95.459416,127.98209 6.313454,-8.33376 16.92005,0.75762 -12.87944,11.61675 z m 143.189124,-31.041885 16.2491,-7.576144 16.92006,7.379623 -17.00672,7.267586 z M 383.21429,122.17857 400,120.47951 l 6.33666,8.97716 -9.72952,4.68619 z"
       id="path3777"
       style="fill:#109148;fill-opacity:1;stroke:#000000;stroke-width:1.50000000000000000;stroke-linecap:butt;stroke-linejoin:miter;stroke-miterlimit:4;stroke-opacity:1;stroke-dasharray:none"
       inkscape:connector-curvature="0" />
    <path
       d="m 186.87822,102.60201 a 7.449875,3.9143413 0 1 1 -14.89975,0 7.449875,3.9143413 0 1 1 14.89975,0 z"
       transform="matrix(1.0572115,-0.23629984,0.23629984,1.0572115,-37.315436,38.139737)"
       id="path3779"
       style="fill:#df0000;fill-opacity:1;fill-rule:evenodd;stroke:#000000;stroke-width:1.38466095999999990;stroke-linecap:butt;stroke-linejoin:miter;stroke-miterlimit:4;stroke-opacity:1;stroke-dasharray:none"
       inkscape:connector-curvature="0" />
    <path
       d="m 186.87822,102.60201 a 7.449875,3.9143413 0 1 1 -14.89975,0 7.449875,3.9143413 0 1 1 14.89975,0 z"
       transform="matrix(1.0630027,0.2087076,-0.2087076,1.0630027,159.48564,-42.196811)"
       id="path3779-1"
       style="fill:#df0000;fill-opacity:1;fill-rule:evenodd;stroke:#000000;stroke-width:1.38466108000000010;stroke-linecap:butt;stroke-linejoin:miter;stroke-miterlimit:4;stroke-opacity:1;stroke-dasharray:none;display:inline"
       inkscape:connector-curvature="0" />
    <path
       d="m 145.7145,113.58742 a 4.0406103,4.0406103 0 1 1 -8.08122,0 4.0406103,4.0406103 0 1 1 8.08122,0 z"
       transform="translate(0,-1.219362)"
       id="path3799"
       style="fill:#109148;fill-opacity:1;fill-rule:evenodd;stroke:#000000;stroke-width:1.50000000000000000;stroke-linecap:butt;stroke-linejoin:miter;stroke-miterlimit:4;stroke-opacity:1;stroke-dasharray:none"
       inkscape:connector-curvature="0" />
    <path
       d="m 145.7145,113.58742 a 4.0406103,4.0406103 0 1 1 -8.08122,0 4.0406103,4.0406103 0 1 1 8.08122,0 z"
       transform="translate(70.458146,-14.573245)"
       id="path3799-7"
       style="fill:#109148;fill-opacity:1;fill-rule:evenodd;stroke:#000000;stroke-width:1.50000000000000000;stroke-linecap:butt;stroke-linejoin:miter;stroke-miterlimit:4;stroke-opacity:1;stroke-dasharray:none;display:inline"
       inkscape:connector-curvature="0" />
    <path
       d="m 145.7145,113.58742 a 4.0406103,4.0406103 0 1 1 -8.08122,0 4.0406103,4.0406103 0 1 1 8.08122,0 z"
       transform="translate(154.15287,-14.320707)"
       id="path3799-4"
       style="fill:#00923f;fill-opacity:1;fill-rule:evenodd;stroke:#000000;stroke-width:1.50000000000000000;stroke-linecap:butt;stroke-linejoin:miter;stroke-miterlimit:4;stroke-opacity:1;stroke-dasharray:none;display:inline"
       inkscape:connector-curvature="0" />
    <path
       d="m 145.7145,113.58742 a 4.0406103,4.0406103 0 1 1 -8.08122,0 4.0406103,4.0406103 0 1 1 8.08122,0 z"
       transform="translate(219.20311,-0.75761481)"
       id="path3799-0"
       style="fill:#00923f;fill-opacity:1;fill-rule:evenodd;stroke:#000000;stroke-width:1.50000000000000000;stroke-linecap:butt;stroke-linejoin:miter;stroke-miterlimit:4;stroke-opacity:1;stroke-dasharray:none;display:inline"
       inkscape:connector-curvature="0" />
    <path
       d="m 186.87822,102.60201 a 7.449875,3.9143413 0 1 1 -14.89975,0 7.449875,3.9143413 0 1 1 14.89975,0 z"
       transform="matrix(-0.81870204,-1.3247371,1.3247371,-0.81870204,96.342077,402.26922)"
       id="path3779-9"
       style="fill:#109148;fill-opacity:1;fill-rule:evenodd;stroke:#000000;stroke-width:0.96320194000000003;stroke-linecap:butt;stroke-linejoin:miter;stroke-miterlimit:4;stroke-opacity:1;stroke-dasharray:none;display:inline"
       inkscape:connector-curvature="0" />
    <path
       d="m 186.87822,102.60201 a 7.449875,3.9143413 0 1 1 -14.89975,0 7.449875,3.9143413 0 1 1 14.89975,0 z"
       transform="matrix(-0.30897523,-1.5263472,1.5263472,-0.30897523,63.992568,356.52939)"
       id="path3779-9-4"
       style="fill:#109148;fill-opacity:1;fill-rule:evenodd;stroke:#000000;stroke-width:0.96320194000000003;stroke-linecap:butt;stroke-linejoin:miter;stroke-miterlimit:4;stroke-opacity:1;stroke-dasharray:none;display:inline"
       inkscape:connector-curvature="0" />
    <path
       d="m 186.87822,102.60201 a 7.449875,3.9143413 0 1 1 -14.89975,0 7.449875,3.9143413 0 1 1 14.89975,0 z"
       transform="matrix(-0.02660931,-1.5570785,1.5570785,-0.02660931,97.300682,324.73839)"
       id="path3779-9-8"
       style="fill:#109148;fill-opacity:1;fill-rule:evenodd;stroke:#000000;stroke-width:0.96320194000000003;stroke-linecap:butt;stroke-linejoin:miter;stroke-miterlimit:4;stroke-opacity:1;stroke-dasharray:none;display:inline"
       inkscape:connector-curvature="0" />
    <path
       d="m 186.87822,102.60201 a 7.449875,3.9143413 0 1 1 -14.89975,0 7.449875,3.9143413 0 1 1 14.89975,0 z"
       transform="matrix(0.26421718,-1.5347283,1.5347283,0.26421718,131.50655,301.2428)"
       id="path3779-9-82"
       style="fill:#109148;fill-opacity:1;fill-rule:evenodd;stroke:#000000;stroke-width:0.96320187999999995;stroke-linecap:butt;stroke-linejoin:miter;stroke-miterlimit:4;stroke-opacity:1;stroke-dasharray:none;display:inline"
       inkscape:connector-curvature="0" />
    <path
       d="m 186.87822,102.60201 a 7.449875,3.9143413 0 1 1 -14.89975,0 7.449875,3.9143413 0 1 1 14.89975,0 z"
       transform="matrix(0.70975979,-1.3861611,1.3861611,0.70975979,149.38684,253.11573)"
       id="path3779-9-45"
       style="fill:#109148;fill-opacity:1;fill-rule:evenodd;stroke:#000000;stroke-width:0.96320194000000003;stroke-linecap:butt;stroke-linejoin:miter;stroke-miterlimit:4;stroke-opacity:1;stroke-dasharray:none;display:inline"
       inkscape:connector-curvature="0" />
    <path
       d="m 186.87822,102.60201 a 7.449875,3.9143413 0 1 1 -14.89975,0 7.449875,3.9143413 0 1 1 14.89975,0 z"
       transform="matrix(-0.49693502,-1.5132612,0.74609603,-0.26961333,133.65391,361.56001)"
       id="path3779-9-5"
       style="fill:#109148;fill-opacity:1;fill-rule:evenodd;stroke:#000000;stroke-width:1.33470844999999990;stroke-linecap:butt;stroke-linejoin:miter;stroke-miterlimit:4;stroke-opacity:1;stroke-dasharray:none;display:inline"
       inkscape:connector-curvature="0" />
    <path
       d="m 186.87822,102.60201 a 7.449875,3.9143413 0 1 1 -14.89975,0 7.449875,3.9143413 0 1 1 14.89975,0 z"
       transform="matrix(-0.28218278,-1.2932094,0.66251796,-0.16221778,115.11586,310.44447)"
       id="path3779-9-5-1"
       style="fill:#109148;fill-opacity:1;fill-rule:evenodd;stroke:#000000;stroke-width:1.57890402999999990;stroke-linecap:butt;stroke-linejoin:miter;stroke-miterlimit:4;stroke-opacity:1;stroke-dasharray:none;display:inline"
       inkscape:connector-curvature="0" />
    <path
       d="m 186.87822,102.60201 a 7.449875,3.9143413 0 1 1 -14.89975,0 7.449875,3.9143413 0 1 1 14.89975,0 z"
       transform="matrix(-0.08079469,-1.2060698,0.62923618,-0.05674423,150.56098,270.57689)"
       id="path3779-9-5-1-7"
       style="fill:#109148;fill-opacity:1;fill-rule:evenodd;stroke:#000000;stroke-width:1.71668386000000010;stroke-linecap:butt;stroke-linejoin:miter;stroke-miterlimit:4;stroke-opacity:1;stroke-dasharray:none;display:inline"
       inkscape:connector-curvature="0" />
    <path
       d="m 186.87822,102.60201 a 7.449875,3.9143413 0 1 1 -14.89975,0 7.449875,3.9143413 0 1 1 14.89975,0 z"
       transform="matrix(1.2911568,-0.29143037,0.16695492,0.66134009,-89.157184,-0.17109711)"
       id="path3779-9-5-1-1"
       style="fill:#109148;fill-opacity:1;fill-rule:evenodd;stroke:#000000;stroke-width:1.57890402999999990;stroke-linecap:butt;stroke-linejoin:miter;stroke-miterlimit:4;stroke-opacity:1;stroke-dasharray:none;display:inline"
       inkscape:connector-curvature="0" />
    <path
       d="m 186.87822,102.60201 a 7.449875,3.9143413 0 1 1 -14.89975,0 7.449875,3.9143413 0 1 1 14.89975,0 z"
       transform="matrix(-1.3199317,0.09898443,-0.06819162,-0.67867117,493.11548,58.693842)"
       id="path3779-9-5-1-15"
       style="fill:#109148;fill-opacity:1;fill-rule:evenodd;stroke:#000000;stroke-width:1.57890402999999990;stroke-linecap:butt;stroke-linejoin:miter;stroke-miterlimit:4;stroke-opacity:1;stroke-dasharray:none;display:inline"
       inkscape:connector-curvature="0" />
    <path
       d="m 186.87822,102.60201 a 7.449875,3.9143413 0 1 1 -14.89975,0 7.449875,3.9143413 0 1 1 14.89975,0 z"
       transform="matrix(-0.10661345,-1.253001,0.70926689,-0.06621264,160.10947,280.19992)"
       id="path3779-9-5-1-2"
       style="fill:#109148;fill-opacity:1;fill-rule:evenodd;stroke:#000000;stroke-width:1.58486652000000010;stroke-linecap:butt;stroke-linejoin:miter;stroke-miterlimit:4;stroke-opacity:1;stroke-dasharray:none;display:inline"
       inkscape:connector-curvature="0" />
    <path
       d="m 186.87822,102.60201 a 7.449875,3.9143413 0 1 1 -14.89975,0 7.449875,3.9143413 0 1 1 14.89975,0 z"
       transform="matrix(0.01038902,-1.1527227,0.70027308,1.3205746e-4,215.14284,253.50523)"
       id="path3779-9-5-1-2-7"
       style="fill:#109148;fill-opacity:1;fill-rule:evenodd;stroke:#000000;stroke-width:1.66953206000000010;stroke-linecap:butt;stroke-linejoin:miter;stroke-miterlimit:4;stroke-opacity:1;stroke-dasharray:none;display:inline"
       inkscape:connector-curvature="0" />
    <path
       d="m 186.87822,102.60201 a 7.449875,3.9143413 0 1 1 -14.89975,0 7.449875,3.9143413 0 1 1 14.89975,0 z"
       transform="matrix(-1.3079564,-0.20314467,0.08760582,-0.67643911,567.12448,119.99678)"
       id="path3779-9-5-1-15-1"
       style="fill:#109148;fill-opacity:1;fill-rule:evenodd;stroke:#000000;stroke-width:1.57890402999999990;stroke-linecap:butt;stroke-linejoin:miter;stroke-miterlimit:4;stroke-opacity:1;stroke-dasharray:none;display:inline"
       inkscape:connector-curvature="0" />
    <path
       d="m 186.87822,102.60201 a 7.449875,3.9143413 0 1 1 -14.89975,0 7.449875,3.9143413 0 1 1 14.89975,0 z"
       transform="matrix(0.4341287,-1.0678997,0.65101895,0.25798591,225.6663,225.35589)"
       id="path3779-9-5-1-2-7-4"
       style="fill:#109148;fill-opacity:1;fill-rule:evenodd;stroke:#000000;stroke-width:1.66953206000000010;stroke-linecap:butt;stroke-linejoin:miter;stroke-miterlimit:4;stroke-opacity:1;stroke-dasharray:none;display:inline"
       inkscape:connector-curvature="0" />
    <path
       d="m 186.87822,102.60201 a 7.449875,3.9143413 0 1 1 -14.89975,0 7.449875,3.9143413 0 1 1 14.89975,0 z"
       transform="matrix(0.22398872,-1.1307991,0.68810058,0.12999996,192.95957,237.45201)"
       id="path3779-9-5-1-2-7-2"
       style="fill:#109148;fill-opacity:1;fill-rule:evenodd;stroke:#000000;stroke-width:1.66953206000000010;stroke-linecap:butt;stroke-linejoin:miter;stroke-miterlimit:4;stroke-opacity:1;stroke-dasharray:none;display:inline"
       inkscape:connector-curvature="0" />
    <path
       d="m 183.16276,197.96283 c 0,0 70.52911,-6.04041 132.33864,-0.0545 l -0.13109,11.87531 c 0,0 -66.22528,10.81656 -132.28311,0.7429 z"
       id="path4062"
       style="fill:#cfcfcf;fill-opacity:1;stroke:#000000;stroke-width:1.29999995;stroke-linecap:butt;stroke-linejoin:miter;stroke-miterlimit:4;stroke-opacity:1;stroke-dasharray:none"
       inkscape:connector-curvature="0" />
    <path
       d="m 186.5573,210.75425 0.14077,-12.7524 m 2.75976,13.10011 0.21153,-13.44614 m 14.31262,15.31886 0.23664,-16.4102 m -3.09621,15.99214 0.23731,-15.78197 m 39.64317,17.8638 0.21463,-19.44426 m -3.33774,19.44359 0.12392,-19.31581 m 25.48205,18.807 0.21045,-19.06547 m -3.37776,19.19375 0.25485,-19.04647 m 37.91747,16.5265 0.16795,-15.2145 m -2.88465,15.37393 0.16934,-15.34076 m 15.03216,13.62207 0.13995,-12.67843 m -2.95111,13.01856 0.14355,-13.00491"
       id="path4064"
       style="fill:none;stroke:#000000;stroke-width:1.29999995;stroke-linecap:butt;stroke-linejoin:miter;stroke-miterlimit:4;stroke-opacity:1;stroke-dasharray:none"
       inkscape:connector-curvature="0" />
    <path
       d="m 91.018054,497.94058 a 4.5795245,4.5795245 0 1 1 -9.159049,0 4.5795245,4.5795245 0 1 1 9.159049,0 z"
       id="path3848"
       style="fill:none;stroke:#000000;stroke-width:1.29999995;stroke-linecap:butt;stroke-linejoin:miter;stroke-miterlimit:4;stroke-opacity:1;stroke-dasharray:none"
       inkscape:connector-curvature="0" />
    <path
       d="m 61.28318,507.47955 c 0,0 7.366935,-1.37624 12.386165,2.83344 5.01923,4.20967 12.062343,8.98604 26.31048,6.63833 14.248135,-2.3477 17.081575,-15.78628 17.081575,-18.2959 0,-2.50961 0.67875,-4.63319 1.29528,-3.40013 0.16192,0.32383 -1.13337,3.48109 0.40478,4.12873 1.53815,0.64764 0.97146,1.4572 -0.40478,2.50962 -4.07637,7.14618 -5.19215,13.28099 -17.32443,16.35296 0,0 4.20967,5.01924 11.25278,4.61446 7.04312,-0.40477 2.02389,1.70006 -1.94292,1.37624 -3.96681,-0.32382 -7.77172,-2.3477 -10.848017,-4.45254 -3.076302,-2.10483 -10.030324,1.05649 -18.854455,-3.23414 -8.82413,-4.29064 -10.532327,-6.96623 -12.151433,-5.7519 -1.619107,1.21433 -4.533499,1.13337 -5.262097,0.80955 -0.728598,-0.32382 -1.457196,-1.13337 -0.809553,-2.02388 0.647642,-0.89051 0.485732,-0.97146 0.485732,-0.97146 0,0 -1.861973,0.32381 -1.619107,-1.13338 z m 33.434549,15.2196 c 0,0 5.585921,4.04777 16.676801,4.12872 -12.38616,2.18579 -16.676801,-4.12872 -16.676801,-4.12872 z m 20.724561,8.41936 c 0,0 28.98201,-20.07692 11.33375,-48.89702 0,0 -0.14275,-0.25973 -0.35759,-0.2902 -0.35103,-0.0498 -0.79316,0.20838 -0.36703,0.95411 0.68693,1.20212 18.22247,22.77385 -12.77289,48.00413 z"
       id="path3854"
       style="fill:#000000;fill-opacity:1;stroke:none"
       inkscape:connector-curvature="0" />
    <path
       d="m 82.452998,496.14581 c 0,0 3.8049,-0.32382 8.621742,3.35964 0,0 -5.707351,-1.65958 -8.905086,-1.09289 l 0.242866,-2.67153 -0.242866,2.67153 c 0,0 -0.607164,-1.05242 0.283344,-2.26675 z"
       id="path3850"
       style="fill:#000000;fill-opacity:1;stroke:none"
       inkscape:connector-curvature="0" />
    <path
       d="m 86.295419,501.57557 c 0,0 6.668933,-2.43286 1.14488,-7.04101 2.347007,4.57952 -1.14488,7.04101 -1.14488,7.04101 z"
       id="path3852"
       style="fill:#000000;fill-opacity:1;stroke:none"
       inkscape:connector-curvature="0" />
    <path
       d="m 90.589008,525.93737 c 0,0 -0.404777,0.16191 -2.104839,-2.02389 -1.700062,-2.18579 -6.719292,-1.29528 -7.44789,-1.13337 -0.728598,0.16191 8.338399,3.23821 9.552729,3.15726 z m 0.404776,-3.23822 c 0,0 1.295285,0.64765 1.700062,0 0.404777,-0.64764 -1.619106,-0.40477 -1.700062,0 z m 6.800247,-0.89051 c 0,-0.72859 0.809554,-1.53815 -0.242866,-1.70006 -1.052419,-0.16191 0.242866,1.70006 0.242866,1.70006 z m 15.219599,-1.70006 c 0,0 1.13338,0.7286 1.86197,-0.48573 0.7286,-1.21433 0.7286,-0.40478 1.61911,-1.29529 0.89051,-0.8905 0.97147,-1.13337 0,-1.45719 -0.97146,-0.32382 -0.081,1.21433 -1.37624,1.29528 -1.29528,0.081 -2.83344,1.13338 -2.10484,1.94293 z m 2.75248,-4.45254 c 0,0 1.37624,0.97146 1.4572,-0.16191 0.081,-1.13338 -2.42866,-1.86197 -1.4572,0.16191 z m 2.59057,-0.7286 c 0,0 2.02389,-1.21433 0.56669,-1.86197 -1.45719,-0.64764 -0.97146,-0.40478 -1.53815,-1.4572 -0.56669,-1.05242 -2.02388,-0.64764 -1.61911,0.40478 0.40478,1.05242 2.1858,0.40478 2.10484,1.21433 -0.0809,0.80955 -0.48573,1.94293 0.48573,1.70006 z m 3.31917,6.23356 c 0,0 0.89051,-0.48573 0.56669,-1.86197 -0.32382,-1.37624 -1.13338,-2.42866 -2.18579,-1.53815 -1.05242,0.89051 0,3.88585 1.6191,3.40012 z m 1.37624,-5.58592 c 0,0 1.53815,0.32383 0.7286,-1.21433 -0.80955,-1.53815 -2.75248,0.7286 -0.7286,1.21433 z m 3.31917,-2.83343 c 0,-0.32382 1.86197,-2.42866 -0.16191,-2.34771 -2.02388,0.081 0.16191,2.34771 0.16191,2.34771 z m 0.32382,-3.0763 c 0,0 1.05242,-3.15726 -0.32382,-2.75249 -1.37624,0.40478 -0.48573,2.50962 0.32382,2.75249 z m -5.16594,-1.59257 c 0,0 1.08763,-1.88905 -0.22898,-1.71732 -1.31661,0.17173 0.22898,1.71732 0.22898,1.71732 z m 5.89454,-7.55539 c 0,0 1.4572,-3.31916 0,-2.50961 -1.4572,0.80955 0,2.50961 0,2.50961 z m -2.67153,-5.66687 c 0,0 1.05242,-2.26675 -0.40477,-1.78102 -1.4572,0.48574 0.40477,1.78102 0.40477,1.78102 z m 2.02389,-3.8049 c 0,-0.32382 1.78101,-1.53815 -0.24287,-1.78102 -2.02388,-0.24286 -1.53815,-1.13337 -2.83343,-0.16191 -1.29529,0.97147 -0.16192,1.86198 0.56668,1.29529 0.7286,-0.56669 2.50962,0.64764 2.50962,0.64764 z m -7.36694,0.89051 c 0,0 1.61911,-1.53815 0.32382,-1.37624 -1.29528,0.16191 -0.97146,1.05242 -0.32382,1.37624 z m -54.725796,10.03846 c 0,0 -1.21433,-0.40478 0.566687,-0.7286 1.781017,-0.32382 2.914392,0.97147 3.400124,-0.56669 0.485732,-1.53815 2.59057,-2.18579 1.052419,-2.10483 -1.538151,0.0809 -1.781017,0.80955 -3.562034,0.8905 -1.781017,0.081 -2.752481,2.02389 -1.457196,2.50962 z m 9.147951,-1.78102 c 0,0 2.590571,0.48573 1.619107,-0.32382 -0.971464,-0.80955 -1.538151,-0.80955 -2.023883,-1.13337 -0.485732,-0.32382 -2.509615,0.64764 0.404776,1.45719 z m -4.857319,-8.66222 c 0,0 2.509615,-0.48573 2.509615,1.53815 0,2.02389 1.295285,4.04777 1.781017,2.10485 0.485732,-1.94293 -1.295285,-1.37625 5e-6,-4.04777 1.295285,-2.67153 1.21433,-1.78102 2.590571,-2.1858 1.37624,-0.40477 -0.647643,-2.10484 -0.647643,-2.10484 0,0 -6.071649,4.12873 -6.233565,4.69541 z m 8.338398,0.56669 c 0,0 -0.242866,-0.40478 1.21433,-0.89051 1.457196,-0.48573 3.64299,-0.24286 1.295285,-0.7286 -2.347704,-0.48573 -3.481078,0.24287 -2.509615,1.61911 z m 5.909734,-3.8049 c -0.08095,-2.83344 0.404777,-4.61445 -0.971464,-4.37159 -1.37624,0.24287 -2.104838,1.05242 -2.104838,1.05242 0,0 1.942927,1.29529 1.538151,2.59057 0.631043,5.57649 1.606885,2.5293 1.538151,0.72864 z m -4.695404,6.63834 c 0,0 0.971464,-1.94293 0,-1.94293 -0.971464,0 0,1.94293 0,1.94293 z m -1.861972,-0.48574 c 0,0 0.566687,-2.10483 -0.404777,-1.45719 -0.971464,0.64764 0.404777,1.45719 0.404777,1.45719 z m 11.171835,-4.61445 c 0,0 1.133374,-2.02388 0,-2.26675 -1.133375,-0.24286 -0.566688,-1.6191 -1.861973,-1.37624 -1.295285,0.24287 -1.861972,2.26675 -0.890508,2.26675 0.971463,0 2.266749,-0.32382 2.752481,1.37624 z m -0.08096,-3.96681 c 0,0 0.566687,-2.26675 -0.08096,-1.94293 -0.647643,0.32382 0.08096,1.94293 0.08096,1.94293 z m 3.238217,-5.82878 c 0,0 -0.404776,1.37624 0.404777,1.6191 0.809553,0.24287 1.942928,1.21433 0.485732,1.29529 -1.457196,0.081 -3.400124,0.24286 -2.833437,1.70006 0.566688,1.4572 3.562035,0.40478 1.781018,1.61911 -1.781018,1.21433 -1.376241,2.99534 -0.08096,2.18579 1.295285,-0.80955 1.942928,-2.3477 2.914392,-1.21433 0.971464,1.13338 0.809553,0.16191 2.185794,-0.081 1.37624,-0.24287 2.347704,-1.4572 2.914391,0.24286 0.566688,1.70006 0.242866,3.23821 1.942929,2.67153 1.70006,-0.56669 -0.32382,-0.64765 0.16191,-1.86198 0.48574,-1.21433 3.40013,-2.50961 0.89051,-2.67152 -2.509617,-0.16191 -5.666874,1.29528 -5.666874,-0.48573 0,-1.78102 0.242866,-2.67153 -0.971464,-2.26675 -1.21433,0.40477 0.890508,0.64764 -0.161911,1.37624 -1.052419,0.7286 -2.671526,0.80955 -1.781017,-0.081 0.890508,-0.89051 1.781017,-1.45719 0.485732,-2.50961 -1.295285,-1.05242 -0.404777,-2.67153 -0.404777,-2.67153 z m 6.638337,1.94292 c 0,0 0.323821,0.081 0.728598,-0.64764 0.404776,-0.7286 -0.08096,-2.10484 1.700061,-1.6191 1.78102,0.48573 2.3477,0.97146 3.31917,0 0.97146,-0.97147 0.80955,-1.86198 1.61911,-0.80956 0.80955,1.05242 2.26674,2.02389 2.10483,0.80956 -0.16191,-1.21433 0.40478,-0.80956 0,-1.94293 -0.40477,-1.13338 0.40478,-1.05242 -1.78101,-1.53815 -2.1858,-0.48574 -3.56204,-1.05242 -3.56204,-1.05242 0,0 1.21433,0.16191 0.32387,1.6191 -0.8905,1.4572 -1.21433,0.081 -3.157254,1.37624 -1.942928,1.29529 -1.133375,0.7286 -2.104838,2.02389 -0.971464,1.29528 0.809553,1.78101 0.809553,1.78101 z m 9.876549,-8.58126 c 0,0 2.3477,1.29529 2.3477,-0.89051 0,-2.18579 -2.3477,0.89051 -2.3477,0.89051 z m -4.93827,7.85267 c 0,0 0.48573,0.72859 -0.48574,0.97146 -0.97146,0.24287 -0.56668,1.78102 0.7286,2.02388 1.29529,0.24287 1.86197,-1.6191 1.4572,1.29529 -0.40478,2.91439 0.32382,4.12872 0.89051,3.0763 0.56668,-1.05242 -0.7286,-1.86197 1.53815,-2.83344 2.26675,-0.97146 3.64299,-1.13337 2.99534,1.13338 -0.64764,2.26675 0.16191,3.88585 1.21433,2.83344 1.05242,-1.05242 1.78102,-3.96682 1.94293,-1.78102 0.16191,2.18579 0.16191,4.45254 1.21433,3.56203 1.05242,-0.89051 1.13338,-1.94293 0.40478,-3.0763 -0.7286,-1.13337 -1.53815,-1.05242 -0.24287,-2.10484 1.29529,-1.05242 0.32382,-3.31917 1.37624,-2.42866 1.05242,0.89051 1.70006,1.13338 2.02389,2.83344 0.32382,1.70006 0.56668,1.86197 1.6191,1.21433 1.05242,-0.64764 0.89051,-0.97147 2.26675,-2.1858 1.37624,-1.21433 2.10484,-1.21433 1.05242,-1.45719 -1.05242,-0.24287 -1.13337,-1.05242 -3.0763,-0.64764 -1.94293,0.40477 -3.40013,0.0809 -2.91439,-1.21433 0.48573,-1.29529 0.80955,-1.29529 2.42866,-1.13338 1.6191,0.16191 2.75248,0.64764 3.96681,-0.40477 1.21433,-1.05242 2.91439,-0.89051 1.45719,-1.70007 -1.45719,-0.80955 -2.83343,1.29529 -1.45719,-0.80955 1.37624,-2.10484 0.97146,-2.02388 2.67152,-2.10484 1.70006,-0.081 4.69541,-0.56669 2.34771,-0.97146 -2.34771,-0.40478 -4.86883,-0.0196 -3.89736,-1.07206 0.97146,-1.05242 4.22118,-0.78991 2.92589,-2.00424 -1.29528,-1.21433 -3.42551,-0.97147 -2.04927,-1.78102 1.37624,-0.80955 2.04927,-0.24287 3.34456,-0.97147 1.29528,-0.72859 4.29063,-1.29528 1.61911,-1.37624 -2.67153,-0.081 -2.9144,-1.05242 -4.61446,0.24287 -1.70006,1.29529 -3.88585,-0.16191 -4.20968,1.37624 -0.32382,1.53815 0.94939,2.04352 -0.58871,2.93403 -1.53815,0.89051 -3.45905,0.38514 -1.9209,1.76138 1.53815,1.37624 3.96681,0.081 3.23821,2.42866 -0.7286,2.3477 -1.53815,4.77636 -2.42866,2.50961 -0.89051,-2.26674 0.40478,-4.29063 -1.37624,-2.99534 -1.78101,1.29528 -0.16191,3.48108 -2.02388,2.75248 -1.86197,-0.7286 -1.78102,-3.0763 -2.42866,-0.89051 -0.64764,2.18579 1.13337,4.29063 -0.32382,3.96681 -1.4572,-0.32382 -4.04777,-0.97146 -2.99535,-2.26675 1.05242,-1.29528 3.40012,-0.97146 2.59057,-2.02388 -0.80955,-1.05242 -3.15726,-0.80955 -0.7286,-1.86197 2.42866,-1.05242 2.34771,-1.37624 3.48108,-2.9144 1.13338,-1.53815 2.34771,-1.86197 1.13338,-1.70006 -1.21433,0.16191 -1.53815,0.64764 -3.96681,2.10484 -2.42866,1.4572 -3.31917,1.53815 -3.31917,3.23821 0,1.70007 0.081,2.50962 -0.89051,3.07631 -0.97146,0.56668 0.89051,2.75248 -0.40478,3.40012 -1.29528,0.64764 -2.10484,1.94293 -2.91439,0.24287 -0.80955,-1.70007 -1.61911,-3.23822 -2.67152,-2.26675 z m 25.66283,-2.26675 c 0,0 1.29529,-1.13338 -0.24286,-0.97147 -1.53815,0.16191 -1.86198,0.89051 0.24286,0.97147 z m 7.85267,4.45254 c 0,0 1.61911,-2.26675 0.081,-2.02388 -1.53815,0.24286 -1.37624,1.78101 -0.081,2.02388 z m 8.3384,-0.24287 c 0,0 2.91439,-0.97146 1.29528,-1.94292 -1.6191,-0.97147 -2.18579,0.48573 -1.29528,1.94292 z m 8.82413,4.69541 c 0,0 3.23821,0.24287 1.78102,-1.05242 -1.4572,-1.29528 -1.78102,0.081 -1.78102,1.05242 z m 1.45719,-3.88585 c 0,0 1.4572,-1.61911 0.56669,-1.53815 -0.89051,0.0809 -1.21433,1.45719 -0.56669,1.53815 z m 0.081,-3.48108 c 0,0 0.48573,-1.53815 -0.56669,-2.1858 -1.05242,-0.64764 -0.80955,-2.75248 -1.70006,-1.13337 -0.89051,1.61911 0.7286,1.29529 0.56669,2.18579 -0.16191,0.89051 1.70006,1.13338 1.70006,1.13338 z m -3.96685,-3.64299 c 0,0 -0.16191,-0.56669 0.24286,-1.86197 0.40478,-1.29529 3.15726,-1.94293 0.80956,-1.94293 -2.34771,0 -2.02389,0.80955 -2.83344,1.45719 -0.80955,0.64765 1.78102,2.34771 1.78102,2.34771 z m -21.69603,2.10484 c 0,0 1.29529,0.24286 2.34771,-0.40478 1.05242,-0.64764 1.29528,0.7286 2.42866,-0.80955 1.13337,-1.53815 2.50961,-4.04777 -0.081,-3.96681 -2.59057,0.081 -1.86197,-0.80956 -2.10484,0.97146 -0.24286,1.78102 -0.081,1.05242 -0.89051,2.02388 -0.80955,0.97147 -1.37624,2.10484 -1.05242,-0.56668 0.32383,-2.67153 -1.05241,-2.1858 0.40478,-3.31917 1.4572,-1.13338 4.93828,-1.78102 5.58592,-0.56669 0.64764,1.21433 0.56669,2.18579 2.91439,2.3477 2.3477,0.16191 -0.32382,-1.13337 1.21433,-0.56668 1.53815,0.56669 1.70006,1.37624 3.23821,1.53815 1.53815,0.16191 3.15726,-1.70006 3.88586,-0.32382 0.7286,1.37624 0.64764,2.3477 -1.4572,2.26675 -2.10484,-0.081 -3.0763,2.42866 -4.61445,2.67152 -1.53815,0.24287 -2.42866,1.53815 -3.40012,-0.081 -0.97147,-1.61911 -1.37625,-2.59057 -2.50962,-1.4572 -1.13337,1.13338 -0.89051,3.0763 -2.18579,2.34771 -1.29529,-0.7286 -4.85732,-1.61911 -3.72395,-2.10484 z m 2.07964,-8.9778 c 0,0 3.32016,0.34347 3.77811,-0.34346 0.45795,-0.68693 -0.57244,-0.34346 0.68693,-1.37386 1.25937,-1.03039 1.14488,-2.74771 -0.68693,-2.28976 -1.83181,0.45795 -4.46504,-0.34346 -4.46504,-0.34346 0,0 -0.68693,1.25937 0.57244,1.48834 1.25937,0.22898 4.35055,-1.03039 3.09118,0.11449 -1.25937,1.14488 -4.23606,2.51874 -2.97669,2.74771 z m 10.99086,2.28977 c 0,0 -1.71732,-1.60284 -0.34346,-2.74772 1.37385,-1.14488 5.03747,-2.28976 3.66362,-0.68693 -1.37386,1.60284 -2.17528,3.32016 -0.45796,2.97669 1.71733,-0.34346 3.54914,-4.35054 1.0304,-5.49543 -2.51874,-1.14488 -4.69402,-1.48834 -6.52583,-1.48834 -1.83181,0 -3.09117,1.37386 -1.94629,3.20567 1.14488,1.83181 3.89259,5.26645 4.57952,4.23606 z m 17.51668,8.47212 c 0,0 -0.22897,-2.17528 0.80142,-1.83181 1.03039,0.34346 -0.11449,1.37385 1.48835,0.9159 1.60283,-0.45795 1.37385,-0.80141 0.11448,-1.60283 -1.25937,-0.80142 -5.15196,0.68693 -2.40425,2.51874 z m 4.35055,6.41133 c 0,0 2.8622,0.34347 1.48835,-0.9159 -1.37386,-1.25937 -2.40425,0 -1.48835,0.9159 z m 5.8389,0 c 0.57244,0 3.20566,-1.14488 1.60283,-1.9463 -1.60283,-0.80141 -3.32016,1.60284 -1.60283,1.9463 z m -23.77601,-22.28165 c 0,0 -0.48573,-1.05242 0.56669,-1.13337 1.05242,-0.081 1.53815,0.64764 1.6191,-0.7286 0.081,-1.37624 0.97147,-0.80955 1.37624,-0.081 0.40478,0.7286 2.1858,1.4572 2.02389,0.16191 -0.16191,-1.29528 -0.48573,-2.3477 -0.081,-2.42866 0.40478,-0.0809 0.16191,2.34771 1.21433,2.26675 1.05242,-0.0809 2.02388,-1.6191 2.26675,-2.26675 0.24287,-0.64764 4.77636,-1.78101 3.88586,-0.8905 -0.89051,0.8905 -2.59057,1.05241 -2.67153,2.18579 -0.081,1.13337 -0.89051,2.02388 0.89051,2.10484 1.78102,0.081 3.0763,-1.78102 1.86197,0 -1.21433,1.78101 -1.78102,2.42866 -3.15726,1.29528 -1.37624,-1.13337 -3.96681,-2.26675 -3.48107,-0.32382 0.48573,1.94293 1.94292,2.26675 0.72859,2.75248 -1.21433,0.48573 -0.72859,2.59057 -1.53815,1.21433 -0.80955,-1.37624 0.31783,-3.58875 -0.80955,-3.0763 -0.44525,0.20239 -0.12143,1.86197 -1.49767,0.24286 -1.37624,-1.6191 -2.63105,-1.86197 -3.19774,-1.29528 z m 8.3384,5.9907 c 0,0 0.7286,-2.1858 -0.32382,-1.4572 -1.05242,0.7286 -1.78102,1.78102 -2.59057,1.13337 -0.80956,-0.64764 -2.26675,-1.05242 -1.61911,-0.0809 0.64764,0.97146 2.59057,1.86197 3.40012,1.21433 0.80956,-0.64764 1.13338,-0.80955 1.13338,-0.80955 z m -0.32382,-3.15726 c 0,0 2.10484,0.80955 2.42866,0.24286 0.32382,-0.56668 -1.78102,-1.37624 -2.42866,-0.24286 z m 6.47642,8.50031 c 0,0 1.61911,-1.21433 0,-2.26675 -1.6191,-1.05242 -1.53815,-0.40478 -1.70006,-2.99535 -0.16191,-2.59057 -0.40478,-4.04777 -1.21433,-2.26675 -0.80955,1.78102 0.7286,1.86197 -0.89051,3.31917 -1.6191,1.4572 -1.13337,5.50496 -0.32382,3.96681 0.80955,-1.53815 0.7286,-2.42866 1.94293,-2.10484 1.21433,0.32382 1.45719,2.50962 2.18579,2.34771 z m 3.15726,-17.08158 c 0,0 1.21433,-0.89051 1.21433,0.64765 0,1.53815 0.24287,2.3477 1.37624,1.78101 1.13338,-0.56668 0.48573,0.7286 0,-0.97146 -0.48573,-1.70006 -0.97146,-2.10484 -0.97146,-2.10484 z m -2.83344,0 c 0,0 -0.64764,2.02389 0.48574,2.26675 1.13337,0.24287 3.6097,1.20503 3.66694,2.23542 0.0573,1.0304 0.68693,2.51874 1.48835,2.80496 0.80142,0.28622 -0.57244,0.57244 0.34346,2.11803 0.91591,1.54559 3.32016,3.8926 1.9463,3.8926 -1.37385,0 -0.85866,-1.60283 -2.69047,-1.83181 -1.83181,-0.22898 -1.71732,-0.74417 -2.28976,-1.71732 -0.57244,-0.97315 -0.62968,0.40071 -1.71732,-0.74418 -1.08764,-1.14488 -1.66008,-3.7781 -0.85866,-3.09117 0.80141,0.68692 2.40425,2.80495 2.57598,1.31661 0.17173,-1.48835 -0.17173,-2.74772 -1.48835,-2.34701 -1.31661,0.40071 -1.08763,-1.03039 -2.17527,-1.31661 -1.08764,-0.28622 -1.9463,-0.28622 -1.20213,-1.20213 0.74418,-0.9159 0.11449,-1.94629 0.11449,-1.94629 z m 2.26363,16.92413 c 0,0 -0.0572,0.62969 1.25937,-0.11448 1.31661,-0.74418 1.37386,0.4007 1.14488,-1.37386 -0.22897,-1.77457 -1.48834,-2.06079 -1.66008,-1.25937 -0.17173,0.80142 -1.77456,2.51874 -0.74417,2.74771 z m 7.78519,-17.97463 c 0,0 -1.48834,2.11803 -0.62968,3.32016 0.85866,1.20212 2.23252,2.28976 0.11449,3.43464 -2.11803,1.14488 -3.32016,1.37386 -2.28977,0.34346 1.0304,-1.03039 2.40425,-1.66007 1.20213,-2.00354 -1.20213,-0.34346 -1.83181,-4.35055 -0.40071,-4.92299 1.4311,-0.57244 2.00354,-0.17173 2.00354,-0.17173 z m 1.48835,5.95338 c 0,0 0.5152,0.17173 0.45795,0.80142 -0.0572,0.62968 -0.57244,3.54913 0.17173,3.94984 0.74418,0.40071 2.06079,0.17173 0.74418,1.20212 -1.31662,1.0304 -2.28977,1.60284 -1.60284,2.06079 0.68693,0.45795 1.60284,1.20213 0.28622,1.77457 -1.31661,0.57244 -1.03039,2.97669 0.45796,3.43464 1.48834,0.45795 2.97669,1.37386 2.11803,2.46149 -0.85867,1.08764 -1.43111,-0.22897 -2.34701,0.91591 -0.91591,1.14488 -2.00354,2.34701 -2.28976,1.14488 -0.28622,-1.20213 -0.57244,-3.54913 -1.48835,-1.83181 -0.9159,1.71732 -2.28976,3.60638 -2.34701,1.83181 -0.0572,-1.77457 0.57245,-1.77457 0.0573,-2.57598 -0.5152,-0.80142 -0.80142,-2.11803 0.34346,-2.23252 1.14488,-0.11449 1.9463,0.22898 2.51874,-0.91591 0.57244,-1.14488 0.85866,-1.03039 1.4311,-2.347 0.57244,-1.31662 -0.57244,-3.03394 0.40071,-3.72087 0.97315,-0.68692 1.08764,-0.11449 0.57244,-1.37386 -0.5152,-1.25937 -0.22897,-4.12157 0.5152,-4.57952 z m 5.89614,-6.69755 c 0,0 -2.00355,1.20212 -0.57244,1.83181 1.4311,0.62968 3.89259,-0.0572 3.32015,0.74417 -0.57244,0.80142 -1.83181,-0.40071 -2.74771,1.4311 -0.91591,1.83181 -0.91591,2.57598 0.22897,2.28976 1.14488,-0.28622 2.23252,0.28622 2.34701,-0.85866 0.11449,-1.14488 -0.74417,-1.37385 0.5152,-1.54559 1.25937,-0.17173 1.88905,0.22898 1.71732,-0.85866 -0.17173,-1.08763 1.4311,-1.9463 2.74771,-0.97315 1.31662,0.97315 2.00354,2.80496 0.5152,2.57599 -1.48835,-0.22898 -3.20567,-1.60284 -3.3774,0.34346 -0.17173,1.9463 -2.06079,1.48835 -2.40425,2.46149 -0.34347,0.97315 -1.14488,0.97315 -0.91591,3.43465 0.22898,2.46149 0,1.20212 -1.60283,1.71732 -1.60283,0.5152 -2.23252,0.45795 -1.9463,-1.31661 0.28622,-1.77457 1.71732,-1.54559 1.37386,-2.74772 -0.34346,-1.20212 -1.08764,-2.8622 -2.23252,-2.80496 -1.14488,0.0572 -2.28976,-1.94629 -1.25937,-2.51874 1.0304,-0.57244 1.83181,0.57245 1.88906,-0.85866 0.0572,-1.4311 -0.22898,-2.40425 -0.22898,-2.40425 z m 7.55621,29.3662 c 0,0 1.25937,1.20212 1.37386,0.34346 0.11449,-0.85866 -0.5152,-0.28622 -1.48835,-1.08763 -0.97314,-0.80142 -0.57244,0.22897 0.11449,0.74417 z m -5.89614,-4.00708 c 0,0 0.85867,1.08763 1.43111,0.17173 0.57244,-0.91591 -1.43111,-0.17173 -1.43111,-0.17173 z m 4.57953,-1.71733 c 0,0 0.74417,0.80142 1.08764,-0.17173 0.34346,-0.97315 -0.45796,-2.11803 -0.91591,-1.88905 -0.45795,0.22897 -0.17173,2.06078 -0.17173,2.06078 z m 3.77811,2.74772 c 0,0 0.80141,0.9159 1.08763,0.0572 0.28622,-0.85866 0.5152,-1.60283 -0.22897,-1.66008 -0.74418,-0.0572 -1.25937,0.80142 -0.85866,1.60284 z m 8.58661,3.14842 c 0,0 1.03039,-1.88905 -0.22898,-1.77456 -1.25937,0.11448 -0.40071,1.77456 0.22898,1.77456 z m -3.03394,-2.347 c 0,0 0.62969,0.74417 1.20213,-0.0573 0.57244,-0.80142 0.17173,-2.17527 -0.74418,-2.11803 -0.9159,0.0572 -1.54559,1.48835 -0.45795,2.17528 z m -12.53645,-11.04811 c 0,0 1.71732,1.03039 2.23252,0.28622 0.5152,-0.74417 -0.40071,-2.11803 -1.08764,-1.83181 -0.68693,0.28622 -1.60283,1.54559 -1.14488,1.54559 z m 0.97315,-5.3237 c 0,0 1.66008,0.74418 2.23252,-0.17173 0.57244,-0.9159 0.34346,-1.9463 -0.91591,-1.83181 -1.25937,0.11449 -2.00354,1.83181 -1.31661,2.00354 z m 3.54913,-2.74771 c 0,0 1.9463,-0.28622 0.85866,-1.03039 -1.08763,-0.74418 -1.88905,0.34346 -0.85866,1.03039 z m 1.54559,-3.03394 c 0,0 -0.85866,0.74418 -0.22897,1.08764 0.62968,0.34347 2.00354,-1.37386 1.25936,0.68693 -0.74417,2.06079 -1.14488,4.8085 -1.48834,5.72441 -0.34346,0.9159 -1.83181,2.11803 -0.80142,2.80495 1.0304,0.68693 2.4615,1.0304 0.97315,1.9463 -1.48834,0.91591 -3.20567,0.45796 -2.28976,1.48835 0.9159,1.03039 0.40071,0.17173 1.9463,0 1.54559,-0.17173 5.32369,0.34346 5.20921,-0.34347 -0.11449,-0.68692 -1.08764,0.45796 -1.9463,-1.20212 -0.85866,-1.66008 0,-0.57244 -0.68693,-2.74772 -0.68693,-2.17527 -1.4311,-2.80495 -0.11449,-4.8085 1.31662,-2.00354 1.31662,-5.60991 2.00354,-4.06433 0.68693,1.54559 -0.97315,2.9767 0.80142,1.88906 1.77457,-1.08764 1.48835,-3.54913 2.51874,-2.28976 1.03039,1.25937 2.74771,0.80141 2.17527,2.17527 -0.57244,1.37386 -1.08763,2.28976 -0.22897,3.26291 0.85866,0.97315 0.9159,3.09118 -0.11449,2.80496 -1.03039,-0.28622 -1.88905,0.34347 -1.71732,-1.4311 0.17173,-1.77457 0.17173,-4.12157 -0.91591,-3.03394 -1.08763,1.08764 0.45795,2.00355 0,3.43465 -0.45795,1.4311 -0.74417,2.74771 0.80142,3.03393 1.54559,0.28622 4.22455,-1.60114 5.02597,-0.97146 0.80141,0.62969 -0.10298,2.68878 2.07229,2.34532 2.17528,-0.34346 2.91945,-0.80142 2.40425,-2.06079 -0.51519,-1.25936 -3.73714,-2.1082 -2.87848,-3.36757 0.85866,-1.25937 3.50817,-1.55541 3.39368,-0.01 -0.11449,1.54559 -0.11449,2.63323 1.54559,2.17528 1.66008,-0.45795 1.03039,1.14488 0.28622,-1.20213 -0.74417,-2.347 1.77457,-3.49188 -0.85866,-3.83535 -2.63323,-0.34346 -2.40425,0.97315 -3.32016,-0.34346 -0.9159,-1.31662 -0.40071,0.68693 -1.77456,0.97315 -1.37386,0.28622 -2.06079,0.51519 -1.54559,-1.25937 0.51519,-1.77457 0.11449,-3.66362 -0.34347,-4.46504 -0.45795,-0.80142 -0.85866,-2.80496 0.5152,-1.4311 1.37386,1.37386 1.83181,4.12157 3.09118,3.3774 1.25937,-0.74417 0.5152,-2.51874 1.37386,-2.34701 0.85866,0.17173 2.74771,0.40071 1.25937,1.66008 -1.48835,1.25937 -1.20213,2.28976 -0.11449,2.06079 1.08763,-0.22898 2.57598,0.34346 2.97669,-1.08764 0.40071,-1.4311 1.20212,-3.54913 0,-2.28976 -1.20213,1.25937 -2.34701,0.51519 -1.54559,-0.80142 0.80142,-1.31661 2.74771,-1.77457 3.49189,0 0.74417,1.77457 0.97315,3.8926 1.77456,2.91945 0.80142,-0.97315 1.37386,-0.34347 2.28976,-2.74772 0.91591,-2.40425 2.00355,-4.2933 0.40071,-3.14842 -1.60283,1.14488 -1.60283,2.40425 -3.03393,1.71732 -1.4311,-0.68693 -4.98024,-1.71732 -6.58307,-0.68693 -1.60283,1.03039 -2.17527,2.34701 -3.32015,0.85866 -1.14489,-1.48834 -3.83536,-0.45795 -3.32016,-1.54559 0.5152,-1.08763 1.66008,-2.00354 0.11449,-1.66007 -1.54559,0.34346 -0.74417,2.11803 -2.40425,3.83535 -1.66008,1.71732 -3.94984,3.3774 -3.77811,1.03039 0.17173,-2.34701 2.57598,-4.46504 1.31661,-4.46504 -1.25937,0 -3.89259,-0.11448 -3.94984,0.34347 -0.0572,0.45795 -0.34346,2.23252 0.62969,3.54913 0.97315,1.31661 1.88905,2.17527 0.45795,2.34701 -1.4311,0.17173 -2.28976,-1.0304 -2.80496,0.11448 z m -10.10118,12.46254 c 0,0 1.37625,0.32382 1.37625,-0.40478 0,-0.7286 -1.37625,0.40478 -1.37625,0.40478 z m 1.05242,17.97208 c 0,0 2.26675,-4.12872 0.64765,-3.31917 -1.61911,0.80955 -3.0763,4.12872 -4.85732,3.31917 -1.78102,-0.80955 -1.86198,-3.0763 -2.26675,-1.29529 -0.40478,1.78102 0.081,2.91439 -0.7286,3.40013 -0.80955,0.48573 1.29529,0.72859 1.94293,2.02388 0.64764,1.29528 2.50961,-0.32383 3.23821,-1.5382 0.72859,-1.21433 2.02388,-2.18579 2.02388,-2.59056 z m 21.2103,-4.20968 c 0,0 0.32382,0.89051 -0.56669,0.80955 -0.89051,-0.081 -1.6191,3.15726 0.16191,3.40013 1.78102,0.24286 1.86197,1.70006 3.8049,1.29528 1.94293,-0.40477 4.20968,-1.86197 3.8049,-3.72394 -0.40477,-1.86197 -0.40477,-0.97147 -2.42866,-1.70006 -2.02388,-0.7286 -4.77636,-0.081 -4.77636,-0.081 z m 32.30117,7.6098 c 0,0 -0.32382,-0.80955 -2.42866,-0.32382 -2.10483,0.48573 -3.48108,0.64764 -2.91439,2.3477 0.56669,1.70007 4.77637,2.26675 6.55738,1.86198 1.78102,-0.40478 4.20968,-2.10484 2.75248,-2.99535 -1.45719,-0.89051 -1.94292,-2.18579 -3.96681,-0.89051 z m 31.41067,4.93828 c 0,0 0.24286,0.32382 -1.05242,-0.081 -1.29529,-0.40478 -1.21433,0.40478 -2.10484,1.53815 -0.89051,1.13338 -0.40478,2.02389 1.05242,2.42866 1.4572,0.40478 6.47643,0.89051 5.74783,-0.24286 -0.7286,-1.13338 -1.4572,-1.21433 -1.4572,-2.26675 0,-1.05242 -2.18579,-1.37624 -2.18579,-1.37624 z m -9.39082,-13.35763 c 0,0 1.29529,0.24286 0.80955,-0.56669 -0.48573,-0.80955 -2.75248,-0.24287 -0.80955,0.56669 z m -1.37624,-2.1858 c 0,0 1.53815,-0.97146 0.40478,-1.94292 -1.13338,-0.97147 -0.40478,1.94292 -0.40478,1.94292 z m -7.93362,-0.80955 c 0,0 1.29528,-2.50961 0,-2.26675 -1.29529,0.24287 0,2.26675 0,2.26675 z m -0.97146,6.96216 c 0,0 1.37624,-0.64764 0.32382,-1.94293 -1.05242,-1.29528 -1.70007,1.05242 -0.32382,1.94293 z m -5.9907,-0.97147 c 0,0 -1.53815,-0.32382 -0.97146,0.80956 0.56668,1.13337 1.94293,0.48573 0.97146,-0.80956 z m -3.48108,1.13338 c 0,0 2.1858,0.32382 1.21433,-1.05242 -0.97146,-1.37624 -2.3477,0.32382 -1.21433,1.05242 z m -6.8812,-2.02388 c 0,0 1.70006,-2.50962 -0.48573,-2.83344 -2.1858,-0.32382 0.48573,2.83344 0.48573,2.83344 z m -2.50962,-7.6098 c 0,0 2.42866,0.32382 1.21433,-0.7286 -1.21433,-1.05242 -2.3477,0 -1.21433,0.7286 z m -21.61507,-1.86198 c 0,0 -0.56668,0.40478 -1.13337,-1.29528 -0.56669,-1.70006 0.56669,-4.29063 -0.89051,-3.23821 -1.4572,1.05241 -0.7286,5.50496 2.02388,4.53349 z m -4.93827,-4.53349 c 0,0 1.86197,-2.26675 0.081,-1.94293 -1.78101,0.32382 -0.081,1.94293 -0.081,1.94293 z m 7.20502,3.88585 c 0,0 1.21433,0.40478 1.37624,-0.24287 0.16191,-0.64764 -2.18579,-0.72859 -1.37624,0.24287 z m 1.94293,2.26675 c 0,0 -1.13337,1.70006 0,2.10484 1.13337,0.40477 0.97146,-1.29529 0,-2.10484 z m -0.97146,-6.39547 c 0,0 1.29528,0.97146 1.53815,0.24287 0.24286,-0.7286 0.24286,-2.59058 -0.80956,-2.10484 -1.05242,0.48573 -0.72859,1.86197 -0.72859,1.86197 z m 4.20967,7.04311 c 0,0 1.29529,0.80956 1.21433,-1.86197 -0.081,-2.67153 0.081,0.32382 -0.081,-2.83344 -0.16191,-3.15725 -0.24287,0.32382 -0.97147,1.29529 -0.72859,0.97146 -1.13337,2.91439 -0.16191,3.40012 z m 1.13338,-8.09553 c 0,0 -0.081,-2.50962 -0.80956,-1.86197 -0.72859,0.64764 0.80956,1.86197 0.80956,1.86197 z m 1.78101,-1.78102 c 0,0 1.29529,1.21433 1.37625,0.081 0.081,-1.13338 -1.37625,-0.081 -1.37625,-0.081 z m -3.72394,-2.75248 c 0.64764,-0.32382 1.78102,-0.24286 1.78102,-1.6191 0,-1.37625 -1.13338,-1.53816 0.32382,-2.10484 1.45719,-0.56669 2.99535,-2.1858 1.45719,-2.34771 -1.53815,-0.16191 -0.72859,0.56669 -2.3477,0.80956 -1.61911,0.24286 -1.61911,1.13337 -1.13337,1.29528 0.48573,0.16191 1.37624,1.94293 0.48573,2.02388 -0.89051,0.081 -1.61911,1.53816 -0.56669,1.94293 z m 8.98604,16.27202 c 0,0 -0.89051,-0.081 0.081,-1.37624 0.97146,-1.29528 1.86197,-2.18579 0.24286,-1.94293 -1.6191,0.24287 -4.29063,2.67153 -2.75248,2.50962 1.53815,-0.16191 1.4572,-0.40478 1.37624,0.56669 -0.081,0.97146 0.89051,1.37624 1.05242,0.24286 z m 0,-20.15787 c 0,0 0.64764,-0.89051 0.081,-2.26675 -0.56669,-1.37624 1.86197,-2.59057 0.32382,-2.91439 -1.53815,-0.32383 -2.42866,0.32382 -2.59057,2.02388 -0.16191,1.70006 -2.59057,0.97146 -2.34771,0.48573 0.24287,-0.48573 1.53815,-0.97146 1.4572,-2.10484 -0.081,-1.13337 0.16191,-2.99534 1.70006,-2.91439 1.53815,0.081 3.56203,-0.40478 3.48108,-0.97146 -0.081,-0.56669 0.16191,0.97146 1.70006,1.37624 1.53815,0.40477 2.42866,-0.64765 3.56204,-0.16191 1.13337,0.48573 -1.05242,0.081 -1.29529,1.86197 -0.24287,1.78102 1.61911,2.02388 0.32382,2.26675 -1.29528,0.24286 -0.40478,-1.53815 -2.59057,-0.97147 -2.18579,0.56669 -3.15726,-0.72859 -2.42866,1.29529 0.7286,2.02388 1.05242,3.0763 0.081,4.37159 -0.97147,1.29528 1.37624,2.3477 -0.40478,3.15725 -1.78102,0.80956 -2.50962,0.64765 -2.50962,-0.64764 0,-1.29528 -0.40477,-1.21433 -1.70006,-1.45719 -1.29528,-0.24287 -0.081,-2.10484 0.56669,-2.26675 0.64764,-0.16191 2.59057,-0.16191 2.59057,-0.16191 z m 5.74783,3.72394 c 0,0 -0.7286,-0.97146 0.081,-1.29528 0.80956,-0.32383 1.70007,-0.24287 1.13338,-1.37624 -0.56669,-1.13338 0.081,-2.26675 -1.05242,-2.10484 -1.13338,0.16191 -0.32382,0.56668 -1.05242,1.70006 -0.7286,1.13337 -1.70006,0.80955 -0.89051,2.02388 0.80955,1.21433 1.78102,1.05242 1.78102,1.05242 z m 0,6.15261 c 0,0 0.64764,0.32382 0.64764,1.45719 0,1.13338 0.97147,0.89051 1.05242,-0.48573 0.081,-1.37624 -1.70006,-2.18579 -0.64764,-3.31917 1.05242,-1.13337 2.99534,-1.53815 0.24286,-1.61911 -2.75248,-0.081 -2.10483,0.56669 -4.6954,0.89051 -2.59058,0.32382 -4.04777,2.26675 -2.50962,3.72395 1.53815,1.45719 3.15726,1.53815 4.04777,0.97146 0.8905,-0.56668 1.86197,-1.6191 1.86197,-1.6191 z m 11.09088,7.85266 c 0,0 0.7286,-2.83343 -0.16191,-2.59057 -0.89051,0.24287 -0.7286,1.78102 0.16191,2.59057 z m -1.4572,-7.04311 c 0,0 1.70006,-2.50962 0.24287,-2.91439 -1.4572,-0.40478 -0.24287,2.91439 -0.24287,2.91439 z m -4.5335,0.89051 c 0,0 1.78102,0.97146 2.10484,0.24286 0.32382,-0.72859 -1.45719,-0.80955 -2.10484,-0.24286 z m 7.6098,-3.48108 c 0,0 -0.48573,1.45719 0.56669,1.29528 1.05242,-0.16191 2.34771,-1.53815 2.50962,-0.32382 0.16191,1.21433 1.37624,2.10484 1.53815,0.48573 0.16191,-1.6191 -1.13338,-0.56668 0.16191,-1.86197 1.29528,-1.29528 0.48573,-3.72394 -0.56669,-2.02388 -1.05242,1.70006 0,2.59057 -1.6191,1.86197 -1.61911,-0.7286 -2.83344,-0.64764 -2.59058,0.56669 z m -9.9575,-4.37159 c 0.24287,-0.56669 1.4572,-2.02388 0.24287,-1.86197 -1.21433,0.16191 -0.24287,1.86197 -0.24287,1.86197 z m 0.89051,-10.03846 c 0,0 -0.97147,0.40478 -0.97147,1.86197 0,1.4572 -1.21433,0.48574 -1.21433,1.78102 0,1.29529 0.80956,2.42866 2.02389,2.75248 1.21433,0.32382 1.86197,-0.97146 1.53815,1.13338 -0.32382,2.10483 0,5.50496 0.64764,4.53349 0.64764,-0.97146 -0.48573,-2.10483 0.40478,-2.83343 0.89051,-0.7286 1.6191,-1.29529 1.70006,0.16191 0.081,1.45719 -0.24287,2.75248 0.56669,2.10484 0.80955,-0.64765 -0.48573,-1.37624 0.80955,-2.02389 1.29529,-0.64764 0.56669,0.24287 1.86197,-0.48573 1.29529,-0.7286 0.80956,-1.05242 1.53815,-1.86197 0.7286,-0.80955 1.05242,-2.26675 -0.8905,-1.05242 -1.94293,1.21433 -0.32383,2.02388 -2.50962,1.53815 -2.18579,-0.48573 -2.91439,-0.40478 -3.0763,-2.59057 -0.16191,-2.18579 -1.4572,-5.74783 -2.42866,-5.01923 z m 5.82878,-3.56203 c 0,0 1.70006,2.67152 -0.16191,2.3477 -1.86197,-0.32382 -4.37159,-0.081 -3.0763,1.37624 1.29528,1.4572 2.99535,0.24287 2.91439,1.94293 -0.081,1.70006 1.86197,1.37624 3.15726,1.29528 1.29528,-0.0809 2.91439,-0.40477 1.29528,-1.13337 -1.6191,-0.7286 -2.83343,-0.16191 -2.75248,-1.53815 0.081,-1.37624 1.05242,-4.20968 -0.081,-4.37159 -1.13338,-0.16191 -1.29529,0.081 -1.29529,0.081 z m 4.37159,0.40477 c 0,0 -0.64764,2.75248 0.16191,3.96681 0.80955,1.21433 2.91439,2.67153 2.10484,3.8049 -0.80955,1.13338 -2.91439,0.56669 -2.26675,2.02389 0.64764,1.45719 1.78102,-0.32382 1.61911,1.86197 -0.16191,2.18579 0.16191,3.0763 1.29528,2.18579 1.13338,-0.8905 1.61911,-2.18579 2.67153,-1.37624 1.05242,0.80956 1.53815,0.56669 1.6191,-0.56668 0.081,-1.13338 -0.97146,-2.99535 0.89051,-2.1858 1.86197,0.80956 2.67153,2.59057 3.0763,0.32382 0.40478,-2.26675 -2.75248,-1.6191 -1.37624,-3.96681 1.37624,-2.3477 2.67153,-1.45719 2.42866,-2.91439 -0.24286,-1.45719 -0.40477,-1.53815 -0.80955,-1.70006 -0.40478,-0.16191 -1.70006,-0.64764 -1.78102,-0.32382 -0.081,0.32382 1.37624,0.24286 -0.24286,2.3477 -1.61911,2.10484 -2.42866,2.83344 -2.10484,4.20968 0.32382,1.37624 -1.78102,1.70006 -1.61911,2.59057 0.16191,0.89051 -2.67152,1.94293 -2.83343,0.40478 -0.16192,-1.53816 -0.64765,-3.23822 0.48573,-3.23822 1.13337,0 2.3477,0.16191 2.67152,-1.70006 0.32382,-1.86197 1.86198,-4.69541 0.64765,-4.93827 -1.21433,-0.24287 -0.89051,-0.32383 -2.59057,2.02388 -1.70006,2.3477 -3.31917,0.56669 -3.31917,-1.05242 0,-1.61911 0,-1.61911 0,-1.61911 z m 20.15787,12.54808 c 0,0 -0.24286,-0.24287 -1.21432,1.45719 -0.97147,1.70007 -1.29529,3.48108 -2.02389,1.29529 -0.7286,-2.18579 1.29529,-3.23821 -0.97146,-2.42866 -2.26675,0.80955 -2.10484,1.29529 -2.99535,0.32382 -0.89051,-0.97146 -1.94293,-1.13337 -1.37624,0.32382 0.56669,1.4572 2.18579,1.70006 0,1.78102 -2.18579,0.081 -3.48108,-1.21433 -2.67153,0 0.80956,1.21433 3.80491,0.40478 4.37159,1.78102 0.56669,1.37624 -0.56668,1.78101 1.37624,2.50961 1.94293,0.7286 0,0.081 2.34771,-0.48573 2.3477,-0.56669 3.23821,0.40478 3.31917,-1.53815 0.0809,-1.94293 0,-5.42401 -0.16192,-5.01923 z m 2.34771,-3.8049 c 0,0 0.97146,-1.13338 -0.89051,-1.21433 -1.86197,-0.081 -2.91439,-0.56669 -1.86197,-2.10484 1.05242,-1.53815 1.86197,-2.18579 0.0809,-2.50961 -1.78101,-0.32383 -5.10018,-1.61911 -4.53349,0.40477 0.56668,2.02388 4.20967,2.9144 2.75247,4.77637 -1.45719,1.86197 -1.6191,0.72859 -2.42865,0.48573 -0.80956,-0.24287 -2.02389,-0.40478 -1.86198,1.37624 0.16191,1.78102 1.13338,2.42866 1.94293,1.53815 0.80956,-0.89051 2.50962,-2.18579 3.56204,-1.86197 1.05242,0.32382 2.91439,0.081 3.23821,-0.89051 z m 4.5335,23.80086 c 0,0 1.21433,-1.13337 0,-1.94292 -1.21433,-0.80956 -0.89051,-0.32383 -1.29529,-1.86198 -0.40477,-1.53815 -0.7286,-2.50961 -2.50961,-0.72859 -1.78102,1.78101 -3.8049,2.50961 -2.50962,3.15725 1.29529,0.64765 4.29063,-0.80955 6.31452,1.37624 z m -3.56204,-9.2289 c 0,0 2.42866,-1.29529 0.32382,-2.02389 -2.10483,-0.72859 -0.32382,2.02389 -0.32382,2.02389 z m 12.79094,6.07165 c 0,0 1.53816,-2.83344 0.32383,-2.83344 -1.21433,0 -0.32383,2.83344 -0.32383,2.83344 z m 5.90974,-0.24287 c 0,0 2.02389,-0.16191 0.97147,-0.89051 -1.05242,-0.7286 -0.97147,0.89051 -0.97147,0.89051 z m 2.1858,-1.94293 c 0,0 2.10484,-0.97146 0.40477,-1.70006 -1.70006,-0.7286 -0.40477,1.70006 -0.40477,1.70006 z m -10.20037,-3.72394 c 0,0 -0.97147,1.29528 0.40477,1.94293 1.37624,0.64764 2.26675,0.48573 2.75248,-0.48574 0.48574,-0.97146 1.37624,0.64765 1.21433,-1.94292 -0.16191,-2.59057 0.64765,-5.01923 -0.16191,-3.64299 -0.80955,1.37624 -1.05242,-0.24287 -1.37624,2.26674 -0.32382,2.50962 -0.32382,3.88586 -1.21433,3.40013 -0.89051,-0.48573 -1.6191,-1.53815 -1.6191,-1.53815 z m -8.98605,-20.07692 c 0,0 1.94293,2.18579 0.97147,3.64299 -0.97147,1.45719 0.40478,2.26675 -1.05242,3.31916 -1.4572,1.05242 -2.67153,2.34771 -1.29529,2.59058 1.37624,0.24286 2.34771,0.8905 2.67153,-0.64765 0.32382,-1.53815 1.31492,-6.68337 2.85308,-6.52146 1.53815,0.16191 0.87086,2.79752 -0.34347,4.74045 -1.21433,1.94293 0.89051,4.20967 2.02389,2.50961 1.13337,-1.70006 0.30998,-4.78212 1.84809,-4.70116 1.53815,0.0809 1.14726,2.11059 2.03776,3.81065 0.89051,1.70006 1.29529,2.1858 1.4572,0.56669 0.16191,-1.61911 -0.97146,-3.0763 -0.16191,-3.8049 0.80955,-0.7286 3.72394,-2.34771 2.18579,-2.67153 -1.53815,-0.32382 -13.19572,-2.83343 -13.19572,-2.83343 z m 1.53816,11.90043 c -1.61911,0.48573 -0.97147,0.24287 -0.56669,1.86197 0.40478,1.61911 0.64764,2.42866 1.53815,2.26675 0.89051,-0.16191 2.50962,0.40478 2.67153,1.29529 0.16191,0.8905 0.32382,-2.1858 2.10483,-1.29529 1.78102,0.89051 2.59057,1.4572 2.67153,-0.0809 0.081,-1.53816 1.61911,-2.75249 -0.56669,-3.40013 -2.18579,-0.64764 -1.45719,-2.3477 -1.86197,-0.48573 -0.40477,1.86197 -1.86197,4.04777 -2.59057,2.75248 -0.77569,-4.67504 -2.90143,-3.61913 -3.40012,-2.91444 z m 14.57195,8.50031 c 0,0 0.80956,-0.89051 0.89051,-1.86197 0.081,-0.97147 -0.24286,-0.80956 0.64765,-1.05242 0.8905,-0.24287 2.18579,-2.10484 0.0809,-1.21433 -2.10484,0.89051 -0.89051,1.6191 -1.86197,1.78101 -0.97147,0.16191 0.24286,2.34771 0.24286,2.34771 z m 3.07631,-0.40478 c 0,0 1.05242,0.7286 1.6191,-0.40477 0.56669,-1.13338 -0.081,-3.07631 -0.40477,-1.94293 -0.32382,1.13337 -1.29529,2.02388 -1.21433,2.3477 z m -4.37159,-16.43393 c 0,0 -1.05242,1.70006 -0.24287,2.83344 0.80956,1.13337 2.1858,2.59057 0.56669,3.31917 -1.61911,0.72859 -0.48573,1.70006 -1.53815,2.50961 -1.05242,0.80955 -1.94293,2.42866 -0.64764,2.10484 1.29528,-0.32382 -0.081,-1.70006 2.3477,-1.29529 2.42866,0.40478 2.02388,1.78102 2.83344,0.64765 0.80955,-1.13338 -0.24287,-1.78102 1.29528,-2.1858 1.53815,-0.40477 3.48108,-1.21433 1.29529,-1.37624 -2.1858,-0.16191 -4.65374,-1.59132 -3.03464,-2.88661 1.61911,-1.29528 3.43128,-2.83343 4.15988,-0.48573 0.7286,2.34771 -0.15378,2.96757 0.251,3.37234 0.40478,0.40478 -0.7286,1.4572 -0.48573,3.72395 0.24286,2.26675 0.97146,3.72394 1.13337,1.45719 0.16191,-2.26675 -0.64764,-4.45254 1.13338,-3.8049 1.78101,0.64765 2.42865,0.16191 1.78101,-1.21433 -0.64764,-1.37624 1.8992,-5.82915 1.6445,-1.78101 -0.14959,2.37764 2.24136,-0.48574 1.59372,1.37624 -0.64765,1.86197 -0.80956,1.70006 -2.02389,2.10483 -1.21433,0.40478 -1.78101,2.34771 -0.89051,3.15726 0.89051,0.80956 0,-1.70006 1.4572,-2.02388 1.4572,-0.32382 2.59057,-0.89051 2.59057,1.21433 0,2.10484 1.13337,3.0763 1.78102,2.10484 0.64764,-0.97147 0.48573,-2.1858 0.16191,-2.34771 -0.32382,-0.16191 -2.76062,-5.07815 -0.73673,-5.32102 2.02388,-0.24286 0.33195,2.56854 1.70819,4.02574 1.37624,1.45719 2.10484,-0.89051 2.1858,1.21433 0.081,2.10484 -0.32383,2.83343 1.29528,3.23821 1.61911,0.40478 1.61911,-0.16191 2.34771,-1.21433 0.72859,-1.05242 0.40477,-1.21433 -1.05242,-2.42866 -1.4572,-1.21433 -2.06317,-4.6202 -0.68693,-3.7297 1.37624,0.89051 2.22508,2.59633 3.19654,3.81066 0.97146,1.21433 1.61911,2.67152 2.02388,1.13337 0.40478,-1.53815 1.49649,-3.89736 1.98222,-2.9259 0.48573,0.97147 -2.71081,3.24972 -1.98222,4.22119 0.7286,0.97146 2.67153,2.18579 2.75249,0.40477 0.081,-1.78101 -1.20283,-2.75823 1.14488,-2.75823 2.3477,0 2.09333,1.46295 2.4981,2.67728 0.40478,1.21433 1.41553,-1.94055 3.60133,-2.18342 2.18579,-0.24286 2.06555,0.32145 2.22746,2.58819 0.16191,2.26675 0.081,2.83344 2.42866,2.26675 2.3477,-0.56668 2.67728,-3.37809 3.97256,-1.83994 1.29529,1.53815 0.72285,0.62561 0.72285,3.13523 0,2.50961 -0.3643,2.75249 -2.18579,1.86197 -2.85964,-1.39806 -0.48574,1.70006 -0.16192,1.78102 1.72963,0.43239 0.16191,1.6191 2.1858,0.7286 2.02388,-0.89051 1.86197,-1.53816 2.50961,-2.75248 0.64764,-1.21433 0.64764,-5.01923 1.70006,-4.69541 1.05242,0.32382 1.94293,1.13337 1.53815,2.59057 -0.40477,1.45719 0.40478,1.78101 1.70007,1.78101 1.29528,0 2.75248,0.56669 1.6191,2.1858 -1.13337,1.6191 0.16191,1.37624 -2.10484,1.6191 -2.26675,0.24287 -3.23821,1.13338 -1.05242,1.61911 2.1858,0.48573 1.13338,0.89051 2.9144,0.40478 1.78101,-0.48573 0.72859,-0.24287 2.10483,-1.61911 1.37625,-1.37624 1.4572,-1.05242 0.40478,-3.15726 -1.05242,-2.10484 -0.32382,-0.56668 -1.53815,-2.3477 -1.21433,-1.78102 -0.89051,-1.94293 -1.37624,-1.94293 -0.48573,0 -5.66687,-1.94293 -5.66687,-1.94293 0,0 -44.20161,-12.70998 -49.38275,-12.95285 z m 4.95273,70.77957 c 0,0 2.8622,-1.71732 1.03039,-2.28976 -1.83181,-0.57244 -1.9463,2.06079 -1.03039,2.28976 z m 4.69401,-0.34346 c 0,0 2.17528,-2.51874 0.11449,-2.40425 -2.06079,0.11449 -2.63323,1.9463 -0.11449,2.40425 z m 11.10535,-5.03748 c 0.80142,0.57244 2.51874,1.14488 2.17527,-0.57244 -0.34346,-1.71732 -3.54913,0.11449 -2.17527,0.57244 z m 8.58661,-12.93715 c 0,0 2.51874,-0.22898 1.60283,-1.60284 -0.9159,-1.37386 -3.54913,-0.22897 -1.60283,1.60284 z m 56.7861,-1.48835 c 0,0 2.9767,2.28976 3.54914,-0.57244 0.57244,-2.8622 -3.54914,0.57244 -3.54914,0.57244 z m -7.21275,3.09118 c 0.45796,-0.11449 3.77811,-1.25937 1.14488,-1.9463 -2.63322,-0.68693 -3.09117,1.71732 -1.14488,1.9463 z m 20.60786,1.83181 c 0,0 2.86221,-2.06079 0.22898,-2.63323 -2.63323,-0.57244 -3.20567,4.23606 -0.22898,2.63323 z m 16.25732,-2.74772 c 0,0 1.9463,1.25937 1.37385,-1.03039 -0.57244,-2.28976 -2.97669,0.11449 -1.37385,1.03039 z m -2.06079,-2.97669 c 0,0 2.97669,-0.34346 0.91591,-1.71732 -2.06079,-1.37386 -1.9463,1.25937 -0.91591,1.71732 z m -10.64739,-8.01417 c 0,0 2.51873,-1.60283 0.22897,-2.28976 -2.28976,-0.68693 -1.25937,1.48835 -0.22897,2.28976 z M 291.07487,479.7524 c -1.86197,-1.21433 -4.08825,-3.44061 -3.52156,-1.65959 0.56669,1.78102 2.10484,2.50961 0.24287,3.0763 -1.86198,0.56669 -2.59057,1.94293 -1.05242,2.75248 1.53815,0.80956 1.37624,-0.081 1.21433,1.29529 -0.16191,1.37624 3.23821,1.53815 3.40012,0.24286 0.16191,-1.29528 -0.48573,-1.94292 1.13338,-1.53815 1.6191,0.40478 2.26674,-0.97146 1.78101,-2.18579 -1.95,-2.71701 -1.89945,-1.14961 -3.19773,-1.9834 z m 5.38353,3.3596 c 0,0 -2.10484,1.45719 -0.7286,1.86197 1.37624,0.40478 1.45719,-1.53815 0.7286,-1.86197 z m 1.70006,-3.23821 c 0,0 1.53815,-0.081 1.70006,1.05242 0.16191,1.13337 1.37624,0.72859 1.86197,0.32382 0.48573,-0.40478 -0.97146,-0.24287 -1.21433,-1.29529 -0.24286,-1.05242 -2.42866,-1.05242 -2.3477,-0.081 z m 4.85732,-1.4572 c 0,0 1.37624,-1.05242 2.50961,0.40478 1.13338,1.45719 0.97147,2.50961 2.59057,2.18579 1.61911,-0.32382 0.7286,-2.99535 1.4572,-2.3477 0.7286,0.64764 -1.37624,3.0763 0.64764,3.31916 2.02388,0.24287 4.12872,1.05242 3.88586,-0.48573 -0.24287,-1.53815 -0.80956,-4.45254 0.48573,-3.15726 1.29528,1.29529 -0.16191,1.29529 1.21433,2.10484 1.37624,0.80956 2.75248,0.24287 1.37624,1.86198 -1.37624,1.6191 -4.3267,1.69432 -7.85267,1.13337 -3.56203,-0.56669 -5.58591,-5.42401 -6.31451,-5.01923 z m 6.23356,15.38151 c 0,0 -0.56669,-4.04776 1.45719,-2.42866 2.02389,1.61911 4.45255,2.34771 6.07165,1.61911 1.61911,-0.7286 0.97147,0.32382 0,-2.34771 -0.97146,-2.67152 0.48573,-5.10018 -2.83343,-3.31916 -3.31917,1.78101 -2.59057,1.78101 -4.77637,2.83343 -2.18579,1.05242 -2.18579,2.83344 0.081,3.64299 z m 22.74844,0.97147 c 0,0 0.56669,0.72859 1.13338,1.13337 0.56669,0.40478 -0.32382,-0.24287 2.26675,-0.64764 2.59057,-0.40478 4.77636,1.05242 4.04776,-1.53815 -0.72859,-2.59057 -1.21433,-4.37159 -3.64299,-2.83344 -2.42866,1.53815 -5.34305,3.0763 -3.8049,3.88586 z m 6.15261,-14.89578 c 0,0 1.53815,0.8905 0.40477,1.53815 -1.13337,0.64764 -1.53815,2.3477 -0.56668,2.3477 0.97146,0 2.91439,-2.75248 1.94293,-3.31917 -0.97147,-0.56668 -1.78102,-0.56668 -1.78102,-0.56668 z m 3.64299,4.29063 c -0.32382,-0.16191 -2.34771,-1.4572 -1.94293,0.16191 0.40478,1.61911 0.80955,2.3477 -0.32382,2.83344 -1.13338,0.48573 -0.80955,1.86197 0.40478,1.21433 1.21433,-0.64765 0,-1.37625 1.6191,-0.89051 1.61911,0.48573 2.50962,0.80955 2.75248,0.081 0.24287,-0.7286 -1.94292,-0.16191 -2.26675,-1.53815 -0.32382,-1.37624 -0.24286,-1.86197 -0.24286,-1.86197 z m 1.05242,-2.75248 c 0,0 -0.64765,1.70006 0.24286,2.3477 0.89051,0.64764 0.97147,-1.45719 1.29529,1.21433 0.32382,2.67153 2.26675,2.75248 2.10484,4.20968 -0.16191,1.45719 1.13337,2.10484 1.37624,0.97146 0.24286,-1.13337 -1.13338,-4.69541 0.081,-3.48108 1.21433,1.21433 1.86198,0.16191 2.26675,1.53815 0.40478,1.37624 -1.13337,1.53816 0.40478,1.37624 1.53815,-0.16191 2.3477,-1.37624 0.97146,-2.02388 -1.37624,-0.64764 -2.99534,-0.40477 -2.83343,-1.86197 0.16191,-1.4572 1.53815,-2.50962 0.32382,-2.83344 -1.21433,-0.32382 0.40477,1.94293 -1.70006,1.13338 -2.10484,-0.80956 -2.26675,-0.89051 -2.34771,-1.61911 -0.0809,-0.7286 -2.18579,-0.97146 -2.18579,-0.97146 z m 12.70998,12.70998 c 0,0 1.21433,-2.18579 0.081,-1.86197 -1.13338,0.32382 -0.081,1.86197 -0.081,1.86197 z m -0.72859,-9.87655 c 0,0 -2.1858,1.86198 -0.24287,2.59057 1.94293,0.7286 1.37624,-1.13337 2.75248,-1.70006 1.37624,-0.56669 2.67153,-0.7286 2.67153,0.97147 0,1.70006 0.24286,1.21433 0.72859,2.50961 0.48574,1.29529 0,0.081 -0.8905,1.53815 -0.89051,1.4572 -2.75249,2.75248 -2.83344,1.29529 -0.081,-1.4572 1.05242,-1.4572 -1.4572,-2.59057 -2.50961,-1.13338 -5.34305,-4.93828 -4.29063,-5.2621 1.05242,-0.32382 3.56204,0.64764 3.56204,0.64764 z m 3.56203,11.81948 c 0,0 -0.56669,-1.45719 1.94293,-0.40478 2.50961,1.05242 1.86197,1.94293 3.48108,1.86198 1.6191,-0.081 2.91439,-0.40478 2.02388,-1.86198 -0.89051,-1.45719 -1.4572,-1.05241 -3.23821,-2.26674 -1.78102,-1.21433 -5.9907,0 -4.20968,2.67152 z m 4.93827,-9.79559 c 0,0 -0.97146,2.67152 1.94293,3.48108 2.91439,0.80955 1.94293,0.40477 3.31917,0.081 1.37624,-0.32382 0.7286,0.7286 2.50962,0.16191 1.78101,-0.56669 0.80955,-2.42866 1.53815,-2.42866 0.72859,0 7.12406,0.80956 8.98604,0.7286 1.86197,-0.081 7.20502,-0.32382 8.58126,-0.56669 1.37624,-0.24286 4.85732,-0.56668 5.34305,-0.80955 0.48574,-0.24287 0.89051,2.02388 -0.56668,2.91439 -1.4572,0.89051 -0.97147,-2.59057 -2.02389,-2.3477 -1.05242,0.24286 -3.64299,-1.13338 -3.8049,0.32382 -0.16191,1.45719 1.37624,3.15726 -0.48573,3.31917 -1.86197,0.16191 -1.70006,-1.4572 -3.15726,-0.081 -1.45719,1.37624 -2.59057,0.97146 -2.26675,-0.0809 0.32383,-1.05242 -0.97146,-1.86198 -0.97146,-1.86198 l -0.97146,-0.97146 c 0,0 -1.61911,-0.24287 -1.37624,1.61911 0.24286,1.86197 2.99534,2.26674 1.37624,2.67152 -1.61911,0.40478 -2.59057,0.40478 -2.67153,-0.56669 -0.0809,-0.97146 -2.83344,-2.18579 -2.75248,-0.80955 0.081,1.37624 2.83344,0.97146 1.53815,2.26675 -1.29528,1.29529 -2.3477,2.59057 -2.59057,0.081 -0.24287,-2.50962 -0.64764,-4.29064 -1.4572,-3.07631 -0.80955,1.21433 -2.02388,2.42866 -3.15725,1.86198 -1.13338,-0.56669 -0.56669,0 -2.50962,-0.16192 -1.94293,-0.16191 -1.45719,0.32383 -3.40012,-1.37624 -1.94293,-1.70006 -2.42866,-4.29063 -2.10484,-4.85732 0.32382,-0.56668 1.13337,0.48574 1.13337,0.48574 z m 6.55739,11.49565 c 0,0 -1.37625,1.21433 1.21433,0.081 2.59057,-1.13338 3.72394,-2.26675 1.6191,-2.10484 -2.10484,0.16191 -2.75248,1.86197 -2.83343,2.02388 z m -2.59057,-2.02388 c 0.32382,0 2.42865,1.21433 1.78101,-0.56669 -0.64764,-1.78101 -2.50961,-1.05242 -1.78101,0.56669 z m 8.5003,2.02388 c 0,0 0.80956,-2.42866 -0.24286,-2.18579 -1.05242,0.24286 0.24286,2.18579 0.24286,2.18579 z m 3.23822,-0.97146 c 0,0 3.31917,1.05242 1.45719,-0.7286 -1.86197,-1.78102 -2.50961,-0.24287 -1.45719,0.7286 z m 5.99069,-0.7286 c 0,0 2.34771,-2.10484 0.56669,-2.18579 -1.78102,-0.081 -1.78102,1.86197 -0.56669,2.18579 z m 3.88586,-2.3477 c 0,0 2.67152,-0.24287 1.05242,-1.05242 -1.61911,-0.80956 -2.1858,-0.48573 -1.05242,1.05242 z m 4.20967,4.37158 c 0,0 2.10484,0.48574 1.21433,-0.80955 -0.89051,-1.29528 -1.21433,0.80955 -1.21433,0.80955 z"
       id="path3902"
       style="fill:#000000;fill-opacity:1;stroke:none"
       inkscape:connector-curvature="0" />
  </g>
</svg>
