<?xml version="1.0" encoding="UTF-8" standalone="no"?>
<!-- Created with Inkscape (http://www.inkscape.org/) -->
<svg
   xmlns:svg="http://www.w3.org/2000/svg"
   xmlns="http://www.w3.org/2000/svg"
   version="1.0"
   width="500"
   height="562"
   viewBox="0 0 500 562"
   id="svg2"
   xml:space="preserve"><defs
   id="defs95" />
 <g
   id="Layer_x0020_1">
  
  <path
   d="M 0.309827,0.579402 L 499.72183,0.57911854 L 499.72098,329.78612 C 479.28208,639.79012 16.351977,641.18412 0.30897661,322.21081 L 0.30897661,0.57880854 L 0.309827,0.579402 z "
   style="fill:#f00000;stroke:#000000;stroke-width:0.51023602"
   id="path1937" />
  <polygon
   points="2.49817,2.76775 497.534,2.76747 497.533,180.716 2.49817,180.716 2.49817,2.76775 "
   style="fill:#cccccc"
   id="path1937_0" />
  <path
   d="M 20.7933,22.8314 C 26.90508,20.16428 33.0174,21.56034 39.1301,27.01959 L 42.17394,52.47129 C 50.38903,59.74046 63.76684,67.95159 75.75264,73.52389 C 83.31208,75.8809 85.23453,69.46184 87.46114,67.1876 C 89.68776,64.91336 91.9773,66.11412 91.83132,69.08908 C 91.685336,72.06404 89.75919,73.21037 90.09453,77.86118 L 94.43381,79.13791 C 97.76962,75.79416 96.55583,73.36572 98.65148,70.32556 C 100.74713,67.2854 103.76972,68.19334 104.07671,72.15873 C 104.3837,76.12412 100.09715,80.46368 107.09703,84.61643 C 110.71801,85.66213 115.33111,86.66248 119.10003,87.61775 C 125.95081,87.938065 124.80447,81.34014 127.15865,77.91362 C 129.51282,74.4871 132.70407,76.83107 133.33988,80.02657 C 133.97569,83.22207 131.62095,84.78424 132.59012,89.29643 L 137.03768,90.272682 C 139.10272,87.227142 138.23248,85.016112 139.57667,82.050792 C 140.92086,79.085472 144.89702,79.601942 144.99028,83.099612 C 145.08354,86.597282 142.9859,88.905252 147.62112,93.788812 C 151.254,94.454671 155.21741,95.210392 158.94722,95.687462 C 163.38826,93.431082 161.61037,89.066862 163.12917,85.566962 C 164.64797,82.067022 169.89519,83.396192 169.84558,86.923062 C 169.79597,90.449932 167.95685,90.440572 168.9932,95.856172 L 174.85865,97.032832 C 176.93673,94.005432 175.90549,90.577772 177.43676,87.645902 C 178.96804,84.714022 182.80501,84.655062 183.59673,88.37554 C 184.38845,92.09601 181.57988,95.3808 185.59969,98.73134 C 189.72694,99.122805 197.60729,99.80567 201.90859,100.1651 C 204.85152,96.74368 203.74091,93.87105 205.55763,91.12031 C 207.37436,88.36957 211.04692,88.54673 211.30063,91.751019 C 211.55433,94.955309 210.55738,97.192409 212.7857,100.36806 L 218.46095,101.11017 C 221.54533,97.82481 219.57667,94.71265 221.61988,92.16828 C 223.66309,89.6239 226.39938,89.59442 227.62423,93.28145 C 228.84908,96.96848 225.85824,99.79632 229.85085,102.29194 C 233.10531,102.48555 237.91202,102.66866 241.21605,102.83959 C 245.06352,100.2303 243.13,95.771684 244.53145,93.183364 C 245.9329,90.595044 249.51844,90.607524 250.30052,93.09549 C 251.0826,95.58346 250.71778,99.98397 251.53614,103.27609 L 258.84074,103.03741 C 260.05737,99.610043 259.26112,95.487613 260.66257,93.060023 C 262.06402,90.632433 265.35646,90.276683 266.55382,93.312307 C 267.75117,96.347927 266.49542,99.593887 267.68541,103.95381 C 272.33338,104.09469 278.22061,103.9059 282.89841,103.99349 C 286.05139,100.75235 284.26273,97.163972 285.9587,94.270082 C 287.65467,91.376192 290.9576,91.753482 292.34318,94.439594 C 293.72876,97.125704 292.06708,99.914994 293.60516,103.71937 L 300.42645,103.63717 C 300.98743,101.2144 300.47152,99.186769 301.80182,95.440219 C 303.13212,91.693669 306.85515,92.819869 308.27927,95.547369 C 309.7034,98.274869 307.54991,102.71279 309.77568,104.46715 C 315.17086,104.66671 323.02738,105.08113 328.44238,105.10324 C 330.32742,100.5593 329.54477,98.069914 330.74553,94.519844 C 331.94629,90.969734 335.32292,91.426394 336.54465,93.746836 C 337.76638,96.067276 337.66065,100.97065 338.06629,103.97344 L 345.18097,104.03863 C 347.27577,100.98883 345.75895,96.592013 347.19952,94.280363 C 348.64009,91.968713 351.62412,90.957593 353.03974,93.50452 C 354.45536,96.05145 353.22371,100.12427 354.99168,104.19592 C 360.99886,103.9014 368.16828,103.19557 374.02548,102.69242 C 377.66772,100.03494 374.58277,95.26139 376.11547,91.97772 C 377.64816,88.69406 380.19368,89.45205 382.10678,92.144397 C 384.01988,94.836747 382.84124,100.4091 385.58773,101.67278 L 393.81501,101.06191 C 394.41028,96.761751 393.67696,93.231201 394.68723,90.599811 C 395.6975,87.968411 397.94537,90.176882 399.57445,89.9657 L 402.93918,99.87506 C 426.14078,96.16139 447.01568,90.05698 461.46618,83.04666 L 462.03056,78.00326 L 414.67266,77.880236 L 414.97483,71.017836 C 436.29303,67.977106 456.79863,64.936386 480.14873,64.943466 C 475.23884,81.777266 475.50218,100.14187 477.78832,114.04697 C 478.14265,117.83378 486.51818,120.21261 492.61752,119.12439 C 493.12549,131.01889 492.10984,140.57669 487.74193,150.84579 C 466.18333,143.18374 455.18823,134.09959 454.75793,119.93709 C 435.46333,138.21119 412.10583,148.96839 384.68573,150.38149 L 121.98573,145.35963 C 76.68523,143.50549 39.85753,102.87993 22.90463,67.359526 C 20.25395,52.859726 20.20264,37.330426 20.7931,22.831426 L 20.7933,22.8314 z "
   style="fill:#000000"
   id="path8" />
  <rect
   width="30.6369"
   height="358.88901"
   rx="11.4888"
   ry="11.4888"
   x="0"
   y="0"
   transform="matrix(0.734823,0.758713,-0.881309,0.853559,412.224,183.687)"
   style="fill:#cccccc"
   id="rect10" />
  <path
   d="M 402.099,193.493 L 106.057,480.213 C 123.7701,466.3655 181.5918,411.6616 248.865,347.684 C 300.7342,298.3563 359.458,244.504 402.098,193.493 L 402.099,193.493 z "
   style="fill:#ffffff"
   id="path12" />
  <path
   d="M 400.534,231.323 C 379.9621,255.3696 372.0685,254.0061 272.245,354.127 C 343.5083,278.1627 397.078,250.501 397.792,228.276 C 396.5731,225.22875 395.96365,220.96261 396.87783,217.3059 C 404.19094,211.92262 409.87893,211.82114 413.94243,217.00118 C 413.73918,228.58068 405.91783,230.71378 400.53453,231.32328 L 400.534,231.323 z "
   style="fill:#7f7f7f"
   id="path14" />
  <path
   d="M 402.362,460.171 C 415.9227,460.18829 419.8294,450.58876 425.6824,432.7795 C 427.38347,401.2554 428.00057,304.8685 416.98882,273.9845 C 404.29182,263.2681 393.52472,265.09703 384.07852,275.50812 C 373.44572,341.88762 372.19542,398.62712 377.82926,432.76712 C 386.01657,453.97542 388.80136,460.15352 402.36196,460.17082 L 402.362,460.171 z "
   style="fill:#cccccc"
   id="path16" />
  <circle
   cx="399.02301"
   cy="287.47501"
   r="10.5129"
   style="fill:#7f7f7f"
   id="circle18" />
  <path
   d="M 402.362,460.171 C 363.0165,463.70666 380.1154,292.86 391.4373,270.632 C 388.07002,270.83553 385.51544,273.07036 383.77383,277.33594 C 373.14103,343.71544 372.19543,398.62594 377.82929,432.76694 C 386.0166,453.97524 388.80139,460.15334 402.36199,460.17064 L 402.362,460.171 z "
   style="fill:#ffffff"
   id="path20" />
  <path
   d="M 414.367,300.701 C 413.87491,359.1058 413.28728,348.4866 412.08227,362.1561 C 413.90863,342.8556 413.8681,324.5245 414.367,300.701 z "
   style="fill:#7f7f7f;stroke:#7f7f7f;stroke-width:0.99212599"
   id="path22" />
  <path
   d="M 418.328,290.645 C 417.8359,349.0498 421.51443,463.063 401.7212,452.05 C 413.9082,454.08017 423.3141,431.7877 418.328,290.645 z "
   style="fill:#7f7f7f;stroke:#7f7f7f;stroke-width:0.99212599"
   id="path24" />
  <path
   d="M 421.68,317.156 C 421.18791,375.5608 427.60895,416.7448 420.61417,425.539 C 421.83108,413.5518 426.66614,458.2987 421.68,317.156 z "
   style="fill:#7f7f7f;stroke:#7f7f7f;stroke-width:0.99212599"
   id="path26" />
  <path
   d="M 325.267,296.534 L 157.748,465.036 C 147.1218,475.7246 138.1175,482.5235 131.4618,485.7678 C 138.22328,482.04166 147.0118,476.36102 155.8347,467.4605 L 325.2667,296.5335 L 325.267,296.534 z "
   style="fill:none;stroke:#7f7f7f;stroke-width:0.99212599"
   id="path28" />
  <path
   d="M 245.124,385.209 C 186.0264,438.9454 128.052,507.523 113.788,495.824 C 131.0853,508.8345 193.89,430.9046 245.124,385.209 z "
   style="fill:none;stroke:#7f7f7f;stroke-width:0.99212599"
   id="path30" />
  <rect
   width="30.6369"
   height="358.88901"
   rx="11.4888"
   ry="11.4888"
   x="0"
   y="0"
   transform="matrix(-0.734823,0.758713,0.881309,0.853559,85.6195,184.781)"
   style="fill:#cccccc"
   id="rect32" />
  <path
   d="M 271.562,364.869 L 391.786,481.308 C 376.1487,469.0833 326.6401,422.6416 268.965,367.907 L 271.56125,364.86939 L 271.562,364.869 z M 248.4953,342.5286 L 95.7443,194.5876 C 86.5008,184.282 70.0196,192.97865 68.8483,206.962 C 83.671,176.2659 102.2424,202.24345 103.1016,203.23671 C 144.9801,251.65331 196.6795,299.18381 245.6256,345.73171 L 248.49483,342.52856 L 248.4953,342.5286 z "
   style="fill:#ffffff"
   id="path34" />
  <path
   d="M 98.5352,232.724 C 119.1071,256.7706 127.9149,254.493 227.7382,354.614 C 156.4749,278.6497 101.9912,251.903 101.2772,229.677 C 102.4961,226.62975 103.10555,222.36361 102.19137,218.7069 C 94.878264,213.32362 89.190274,213.22214 85.126774,218.40217 C 85.330018,229.98167 93.151374,232.11477 98.534674,232.72427 L 98.5352,232.724 z "
   style="fill:#7f7f7f"
   id="path36" />
  <path
   d="M 98.9451,461.265 C 112.5058,461.28229 116.4125,451.68276 122.2655,433.8735 C 123.96657,402.3494 125.19312,307.4865 114.18137,276.6015 C 98.66227,263.9672 89.86827,269.6586 80.96637,275.99205 C 70.33357,342.37155 68.77857,399.72005 74.41238,433.86105 C 82.59969,455.06935 85.38448,461.24745 98.94508,461.26475 L 98.9451,461.265 z "
   style="fill:#cccccc"
   id="path38" />
  <circle
   cx="98.533997"
   cy="290.772"
   r="10.5129"
   style="fill:#7f7f7f"
   id="circle40" />
  <path
   d="M 98.9451,461.265 C 59.5996,464.80066 76.6985,293.954 88.0204,271.726 C 83.5357,273.85936 81.0826,275.99243 80.66166,278.12522 C 70.02886,344.50472 68.77856,399.72022 74.4124,433.86122 C 82.59971,455.06952 85.3845,461.24762 98.9451,461.26492 L 98.9451,461.265 z "
   style="fill:#ffffff"
   id="path42" />
  <path
   d="M 110.95,301.795 C 112.62301,360.9223 110.44912,349.774 108.66527,363.2501 C 110.49163,343.9496 110.4511,325.6185 110.95,301.795 z "
   style="fill:#7f7f7f;stroke:#7f7f7f;stroke-width:0.99212599"
   id="path44" />
  <path
   d="M 111.254,279.855 C 116.1106,290.5473 117.82188,452.451 98.3039,453.144 C 114.4523,453.95528 121.1157,300.022 111.254,279.855 z "
   style="fill:#7f7f7f;stroke:#7f7f7f;stroke-width:0.99212599"
   id="path46" />
  <path
   d="M 118.263,318.25 C 118.23409,372.8943 118.28029,397.2836 118.59607,412.1037 C 119.81298,399.8118 121.4208,372.8506 118.263,318.25 z "
   style="fill:#7f7f7f;stroke:#7f7f7f;stroke-width:0.99212599"
   id="path48" />
  <path
   d="M 160.628,291.401 L 340.095,466.131 C 350.8947,476.6456 359.7255,483.6185 366.3812,486.8628 C 359.61972,483.13666 350.9176,477.36957 342.0083,468.5555 L 160.6283,291.4015 L 160.628,291.401 z "
   style="fill:none;stroke:#7f7f7f;stroke-width:0.99212599"
   id="path50" />
  <path
   d="M 125.795,262.662 C 184.8926,316.3984 369.791,508.618 384.055,496.919 C 366.7577,509.9295 177.029,308.358 125.795,262.662 L 125.795,262.662 z "
   style="fill:none;stroke:#7f7f7f;stroke-width:0.99212599"
   id="path52" />
  <path
   d="M 148.242,261.963 L 108.8517,223.6669 C 120.5228,236.4319 133.6529,249.1971 148.242,261.963 z "
   style="fill:#ffffff"
   id="path54" />
  <path
   d="M 143.865,271.81 L 104.4747,233.5139 C 116.1458,246.2789 129.2759,259.0441 143.865,271.81 z "
   style="fill:#7f7f7f"
   id="path56" />
  <path
   d="M 225.013,364.792 L 248.4768,387.6463 C 230.434,396.37021 246.8293,390.0189 225.013,364.792 z "
   style="fill:#7f7f7f"
   id="path58" />
  <path
   d="M 397.084,222.473 C 400.04592,217.97895 407.5022,218.59123 409.341,221.55372 C 408.42172,226.25215 408.1153,231.56342 406.58317,235.64932 C 403.31425,237.69197 398.00269,243.41172 393.40687,249.13202 C 390.95547,239.63283 399.8418,231.97222 397.08397,222.47302 L 397.084,222.473 z "
   style="fill:#cccccc"
   id="path60" />
  <path
   d="M 397.084,222.473 C 398.00951,221.06872 399.37383,220.16276 400.86882,219.67152 C 404.27096,230.86382 396.39461,235.90162 396.9451,244.89932 C 395.74973,246.27214 394.55578,247.70194 393.40689,249.13202 C 390.95549,239.63283 399.84182,231.97222 397.08399,222.47302 L 397.084,222.473 z "
   style="fill:#ffffff"
   id="path62" />
  <path
   d="M 409.341,221.553 C 408.42172,226.25143 408.1153,231.5627 406.58317,235.6486 C 404.33586,237.05288 401.12279,240.19509 397.84083,243.8807 C 404.74376,233.6363 406.56446,232.8845 409.34103,221.553 L 409.341,221.553 z "
   style="fill:#7f7f7f"
   id="path64" />
  <path
   d="M 394.02,271.501 C 398.71814,268.84494 402.59934,264.55555 405.6642,258.6311 C 410.72093,249.23368 412.45743,241.3687 406.8899,236.8749 C 397.85191,240.27336 382.1015,264.208 394.02,271.501 L 394.02,271.501 z "
   style="fill:#cccccc"
   id="path66" />
  <path
   d="M 406.89,236.875 C 398.9819,239.84854 385.9343,258.5453 390.7804,268.0587 C 392.73744,265.27479 392.84487,257.448 395.86179,252.5024 C 399.74129,246.14287 406.42989,244.18214 406.88999,236.875 L 406.89,236.875 z "
   style="fill:#ffffff"
   id="path68" />
  <path
   d="M 407.196,240.552 L 398.30966,257.7118 L 402.73483,254.56619 L 400.14821,260.77605 C 406.89099,253.93208 410.26171,247.39505 407.19599,240.55195 L 407.196,240.552 z "
   style="fill:#7f7f7f"
   id="path70" />
  <path
   d="M 398.616,294.483 C 407.12363,295.25034 410.8671,273.1208 405.66378,258.9377 C 402.19049,264.55569 397.49206,269.7649 391.56818,274.5654 C 389.98361,284.06572 391.2096,291.5223 398.61596,294.483 L 398.616,294.483 z "
   style="fill:#cccccc"
   id="path72" />
  <path
   d="M 407.204,264.568 C 406.82501,262.60699 406.31449,260.70976 405.66422,258.93697 C 402.19093,264.55496 397.4925,269.76417 391.56862,274.56467 C 391.07369,277.5334 390.85287,280.30285 391.00934,282.7979 C 393.41992,284.61633 392.94625,280.00379 395.63095,276.48372 C 400.75713,269.76334 404.39001,268.28932 407.20395,264.56802 L 407.204,264.568 z "
   style="fill:#ffffff"
   id="path74" />
  <path
   d="M 404.038,291.247 C 407.3364,286.32322 408.79681,276.5941 407.67457,267.5499 C 406.3814,264.53497 405.72008,265.57982 404.74468,262.92064 C 405.56134,272.54739 399.33391,276.19984 397.99935,281.76594 L 401.93724,279.48915 C 400.52275,282.30537 399.92577,284.7134 400.14603,286.71211 L 404.18937,282.43888 L 404.038,291.24698 L 404.038,291.247 z "
   style="fill:#7f7f7f"
   id="path76" />
  <path
   d="M 100.07,219.305 C 97.10808,215.43117 87.5856,216.73199 88.364,220.72771 C 89.283276,225.42614 86.83442,230.32412 88.366551,234.41001 C 91.635471,236.03937 97.405391,240.07505 98.694851,248.68841 C 103.86099,245.00082 100.35057,242.87625 100.62354,240.16548 C 100.96115,236.81634 101.82713,234.02762 101.38635,230.29807 C 100.85853,225.83492 99.078945,222.71879 100.06994,219.30507 L 100.07,219.305 z "
   style="fill:#cccccc"
   id="path78" />
  <path
   d="M 101.619,271.777 C 96.92086,269.12094 92.35084,262.07627 89.286,256.1519 C 85.12587,246.90415 83.80323,239.1083 88.0603,234.3957 C 90.88446,235.45756 94.04849,237.69863 96.52654,241.72128 C 99.00005,244.34815 98.40138,251.29955 99.33397,254.96358 C 99.569246,255.62405 100.22036,254.46298 100.45366,255.06988 C 102.35344,260.01095 103.56724,265.24198 101.61898,271.77698 L 101.619,271.777 z "
   style="fill:#cccccc"
   id="path80" />
  <path
   d="M 98.9516,294.622 C 91.23767,295.9523 94.79261,285.23875 90.41223,279.2644 C 85.0505,271.95214 85.03462,263.4868 88.62839,255.4021 C 92.10168,261.02009 96.35592,267.8374 102.27979,272.6379 C 103.86436,282.13822 106.358,291.6612 98.95163,294.622 L 98.9516,294.622 z "
   style="fill:#cccccc"
   id="path82" />
  <path
   d="M 92.9492,234.023 C 89.87247,230.67075 85.55587,221.3946 83.71902,223.9662 C 85.50995,228.97162 88.58668,232.32387 92.9492,234.023 z "
   style="fill:#ffffff"
   id="path84" />
  <path
   d="M 94.7311,261.307 C 90.43434,258.87799 92.96908,259.24791 88.80499,255.67484 C 85.14603,247.83109 83.70121,239.22174 88.060612,234.39574 C 88.766439,234.66106 89.494092,235.00037 90.226562,235.42273 C 90.333712,236.85026 90.991633,238.46176 92.200042,240.25609 L 89.570902,239.55792 C 91.459342,242.7554 94.817262,245.95288 97.880672,249.15037 L 96.024542,251.39201 C 93.908762,248.17497 91.333772,245.18838 87.747652,242.7058 C 88.163211,250.81941 91.008062,256.5029 94.731092,261.307 L 94.7311,261.307 z "
   style="fill:#ffffff"
   id="path86" />
  <path
   d="M 92.4237,236.949 C 91.31252,235.4302 95.28783,239.7108 96.52685,241.72198 C 98.22735,243.52793 98.45101,247.38447 98.74468,250.80476 C 97.37271,245.45181 95.26572,240.83332 92.4237,236.94896 L 92.4237,236.949 z "
   style="fill:#7f7f7f"
   id="path88" />
  <path
   d="M 86.1344,263.752 C 86.458117,261.32101 87.19909,258.84721 88.3219,256.32097 C 89.46143,258.16434 94.25595,262.73804 92.1019,261.89304 L 88.76495,260.584 C 88.501895,262.65556 91.1316,265.27818 92.10813,268.03827 C 90.30104,265.32381 88.3097,263.89543 86.13439,263.752 L 86.1344,263.752 z "
   style="fill:#ffffff"
   id="path90" />
  <path
   d="M 97.1173,267.858 C 98.71066,269.53016 100.42873,271.13769 102.27976,272.63778 C 102.4283,273.52843 102.58477,274.41936 102.74039,275.30518 C 98.22111,279.58295 101.55437,273.00742 97.1173,267.858 L 97.1173,267.858 z "
   style="fill:#7f7f7f"
   id="path92" />
 </g>
</svg>