<?xml version="1.0" encoding="UTF-8"?>
<!DOCTYPE svg PUBLIC "-//W3C//DTD SVG 1.1//EN" "http://www.w3.org/Graphics/SVG/1.1/DTD/svg11.dtd">
<!-- Creator: CorelDRAW -->
<svg xmlns="http://www.w3.org/2000/svg" xml:space="preserve" width="500px" height="570px" shape-rendering="geometricPrecision" text-rendering="geometricPrecision" image-rendering="optimizeQuality" fill-rule="evenodd" clip-rule="evenodd"
viewBox="0 0 500 570"
 xmlns:xlink="http://www.w3.org/1999/xlink"
 xmlns:svg="http://www.w3.org/2000/svg"
 version="1.0">
 <g id="Layer_x0020_1">
  <metadata id="CorelCorpID_0Corel-Layer"/>
  <path id="path1937" fill="#008BD0" stroke="black" stroke-width="0.368504" d="M0.306425 -0.673796l499.478 0.000283465 -2.68413 359.422c-20.4233,118.189 -111.298,202.269 -241.368,209.032 -145.556,-7.81796 -222.985,-83.725 -252.897,-210.131l-2.52907 -358.323z"/>
  <path id="path1937_0" fill="#BF9F4F" d="M96.6612 -0.673512l175.085 0 226.381 221.916 -1.02671 137.506c-1.61887,12.2834 -5.8921,27.7574 -9.67465,38.9934l-16.238 2.70822 10.1475 -48.1272 -48.733 10.1418 9.49352 -47.7797 -48.8619 9.02297 8.72278 -47.001 -46.9897 9.32911 7.92794 -45.5902 -46.1996 7.9132 9.19191 -44.9824 -44.3342 10.4057 6.41452 -46.874 -44.5156 9.34555 7.17392 -44.835 -44.1862 8.39793 5.16048 -45.9318 -42.963 8.71682 6.41027 -43.1351 -42.7975 7.31367 4.36791 -45.4527 -43.1017 7.32104 3.14532 -29.3224z"/>
  <path id="path1937_1" fill="#BF9F4F" d="M0.92693 87.1631l416.973 416.06c-32.7526,29.2553 -72.2673,50.4332 -125.533,60.3661l3.19238 -26.1159 -48.8625 6.89755 8.72334 -45.9386 -46.9902 9.32967 10.0536 -45.5908 -48.3248 7.9132 9.19134 -44.9819 -46.4593 8.28029 7.47723 -46.874 -44.5156 9.34555 7.17392 -45.8978 -46.3113 8.39764 7.28561 -44.8688 -45.0882 6.59112 7.4727 -45.2605 -24.1064 3.83159 -1.35099 -191.484z"/>
 </g>
</svg>
