<?xml version="1.0" encoding="UTF-8"?>
<!DOCTYPE svg PUBLIC "-//W3C//DTD SVG 1.1//EN" "http://www.w3.org/Graphics/SVG/1.1/DTD/svg11.dtd">
<!-- Creator: CorelDRAW -->
<svg xmlns="http://www.w3.org/2000/svg" xml:space="preserve" width="500px" height="539px" shape-rendering="geometricPrecision" text-rendering="geometricPrecision" image-rendering="optimizeQuality" fill-rule="evenodd" clip-rule="evenodd"
viewBox="0 0 500 539"
 xmlns:xlink="http://www.w3.org/1999/xlink"
 xmlns:svg="http://www.w3.org/2000/svg"
 version="1.0">
 <g id="Layer_x0020_1">
  <metadata id="CorelCorpID_0Corel-Layer"/>
  <path id="path1937" fill="#BF9F4F" stroke="black" stroke-width="0.510236" d="M-0.0615118 0.432284l500.031 0.000283465 -10.0006 317.02c-36.2668,293.483 -451.829,292.887 -473.03,0l-17.0011 -317.02z"/>
  <path fill="#F00000" stroke="#F00000" stroke-width="1.98425" d="M143.009 86.0965c6.00038,-8.00051 4.00025,10.0009 19.0012,16.001 9.23811,3.69525 20.9146,2.26091 31.002,1.00006 8.00051,-0.99978 24.2184,1.80397 30.0019,8.00051l-12.0008 2.00013c-12.0008,-4.00025 -33.0021,1.00006 -43.0027,1.00006 -14.0009,0 -25.0016,-9.00057 -25.0016,-28.0018z"/>
  <path id="path1937_0" fill="black" stroke="black" stroke-width="0.216" d="M212.013 44.0941c17.7197,0 55.0035,1.00006 59.0035,-3.00019 3.9994,-3.99997 31.2752,-4.01584 46.0029,-3.00047 -2.00013,-22.0014 11.001,-28.0018 23.0015,-23.0012 0,5.00003 -10.0006,6.00038 -9.00057,14.0006l9.00057 -2.00013 0 9.00057c5.66051,-0.85663 11.1285,-1.45332 16.4081,-1.8051 1.3646,-0.0907087 11.594,11.806 16.5937,25.8069 -0.999497,-11.001 -8.10567,-26.1825 -5.94199,-26.1921 6.41424,-0.0294803 12.5252,0.321166 18.3424,1.01679 2.23427,0.267024 9.60123,11.1745 14.6021,28.1753 -0.000566929,-10.0004 -4.10429,-25.4764 -2.00041,-25.0016 8.00022,-0.99978 19.0012,0 21.001,7.00044 2.0503,0.640063 6.00095,9.00085 6.00095,32.002 2.00041,-17.0014 1.73565,-28.0772 2.99991,-27.0014 15.001,-2.00013 29.0016,6.00038 28.0015,23.0012 0.869386,1.05931 -3.00047,15.001 -9.00057,24.0018 8.00051,-4.00025 12.7542,-17.8863 14.0009,-16.0013 9.00057,1.00006 13.0011,12.001 12.4021,21.2015 0.612567,1.5823 -4.40136,13.801 -13.4022,22.8016 7.00073,-2.99991 15.2714,-11.7031 16.0013,-9.00057 5.00032,1.00006 6.00038,10.0004 5.00003,18.0009 0.17348,1.40598 -7.00016,12.001 -12.0005,15.001 7.00016,-2.99991 11.9163,-7.39106 12.0005,-6.0001 1.99984,4.00025 2.00041,8.00022 1.10665,13.4816 -0.0677481,1.38529 -7.10703,9.51988 -16.1073,14.5199 9.00029,0 15.5908,-7.68189 15.4352,-6.34394 -0.515906,4.44047 -1.27021,8.73497 -2.24844,12.8299 -0.577985,2.41909 -7.1864,7.51493 -12.1867,11.5152 6.00038,0 9.65991,-2.66173 9.00029,-1.00006 -1.98737,5.004 -4.42687,9.6429 -7.25755,13.7075 -0.881008,1.2651 -3.74315,1.29373 -4.74293,1.29373 0,2.00013 0.0385512,4.56293 -0.987591,5.58029 -6.70422,6.6464 -14.8762,10.3745 -24.014,9.42067 0,0 -4.00054,-2.00041 -4.58901,-2.60051 1.58882,-2.39981 3.08835,-4.52296 4.58901,-5.40029 53.0025,-31.0014 0,-144.009 -69.0047,-130.008 8.32848,4.48441 23.002,12.0008 29.0018,22.0011 -2.00013,4.00025 -5.90769,3.1388 -12.0005,5.0006 8.99972,8.00022 12.0005,43.8432 12.0005,50.0029 0,11.001 -2.99934,30.5195 -2.99991,41.0026 -0.000283465,11.001 6.30681,17.9226 7.00044,29.0018 -5.00032,-3.00019 -9.00085,-8.00022 -14.0012,-10.0006 0,31.0023 11.0007,36.0023 20.0013,50.0032l-33.0018 1.00035c-14.0009,27.0014 -12.0005,46.0026 20.0013,73.0044l-8.00051 2.00041c7.10816,8.63235 56.0036,69.0041 65.1827,82.2853 -24.7785,40.0607 -59.4071,69.3287 -98.4382,87.8157 -33.749,-14.0913 -71.7512,-25.0917 -98.7532,-52.0937 -6.00038,9.00029 -13.0005,16.001 -24.0015,18.0011 1.00035,-10.0006 4.00054,-17.0008 1.00035,-30.0019 -8.74517,-3.45629 -18.0017,14.0009 -26.0019,13.0011 -5.00032,-9.00057 -5.52218,-23.5548 -9.00029,-37.0023 -7.00044,0.99978 -7.00073,-2.00013 -10.0006,17.0008 -12.0008,-9.00029 -15.001,-21.001 -20.0013,-36.0023 -2.00013,2.00013 -5.00032,7.00016 -6.00038,10.0006 -4.52608,-10.9562 -8.00079,-23.0015 -9.00057,-35.0022 -2.99991,1.00006 -2.99991,2.00013 -6.00038,3.00047 -2.8749,-10.063 -4.76674,-24.9868 -6.00066,-36.0026 -7.38482,-2.20847 54.4887,47.4684 63.004,46.0029 -2.84485,0.897733 -66.2341,-49.3297 -64.0041,-55.0032 -3.00019,-4.00025 -5.00032,-11.001 -5.00032,-18.0011 -15.001,2.99991 -33.0018,-19.0015 -32.0017,-44.0031 0.201827,6.34139 -2.6606,13.5425 -10.0006,22.0017 -0.748063,13.8456 -2.15178,23.5159 -5.00032,24.0015 0.0572599,25.4733 -1.25235,46.3422 -5.00032,59.0037 5.00032,0.99978 9.00085,-7.00073 14.0009,-7.00073 4.00082,0 18.0009,15.001 32.0017,-7.00073 6.00038,21.0016 -9.00057,27.002 -14.0009,27.002 -8.00022,0 -11.0007,-4.00054 -15.001,-4.00025 -13.0005,0 -7.00016,24.0018 -22.0011,24.0012 -7.00044,0.000566929 -11.0007,1.00035 -11.0007,-2.99991l0 -66.0042c1.00006,-49.0031 -8.97676,-59.554 -8.97676,-76.5553 0,-1.82495 4.75852,0.243213 4.97651,-1.44964 -1.00006,-1.00006 -4.34551,-5.83625 -4.14199,-6.80287 1.63077,-7.73207 5.53862,-13.8688 10.7096,-18.0848 0.417544,-0.340441 10.4332,2.88652 13.4337,5.88643 -1.00006,-6.0001 -11.3128,-7.50246 -10.8819,-7.79953 1.88816,-1.29969 2.71786,-1.85443 4.61934,-2.74337 0.555307,-0.259087 23.309,7.9149 27.2636,14.5432 -0.99978,-10.0004 -23.5386,-16.1909 -23.0655,-16.3621 3.03166,-1.09587 5.84419,-1.63871 8.06457,-1.63871 9.33988,0 24.0114,11.2351 43.003,24.0012 30.6193,20.5824 75.0048,51.0032 81.0051,59.0037 0.99978,-8.00022 -31.072,-28.7382 -46.0029,-39.0025 -4.97679,-3.42142 -7.2601,-6.85644 -8.00079,-7.00016 2.20932,-6.6464 8.50054,-11.5637 15.001,-14.0009 -2.99991,-9.00057 -12.8027,-1.59874 -10.4074,-4.83421 6.56504,-8.86791 15.4077,-14.167 25.4084,-16.1674 3.00047,-14.0006 -11.7737,-4.08841 -9.00057,-7.00044 18.5321,-19.4562 47.5149,-34.9138 75.0048,-42.0027 15.001,-5.00032 54.0034,-34.0019 44.0028,-56.0036 -10.0006,26.0019 -17.0008,26.0019 -28.0018,36.0026 4.2738,-8.2766 6.92363,-17.07 6.00066,-27.0017 -16.0883,20.2862 -23.0017,32.0017 -36.0026,31.002 14.4045,-14.531 24.8224,-26.5198 21.0016,-34.0024 -7.00073,1.99984 -16.0328,18.6426 -24.4704,23.8748 -7.03134,4.36025 -15.1107,3.9824 -22.5329,6.12737 -7.42224,2.14498 -14.1885,6.81279 -22.0011,9.00029 9.00057,-13.0005 11.0004,-15.0007 18.0011,-20.0013 4.53629,-3.24057 27.0017,-6.00038 27.0017,-30.0019 -4.50029,0 -11.2949,4.89855 -17.0014,6.00038 -4.43821,0.85663 -7.939,-2.02365 -11.0007,-1.99984 -3.76101,0.0291969 -8.64908,2.47351 -12.0005,2.00013 -2.60816,-0.367937 -4.01414,-3.3806 -5.00032,-5.0006 0,-5.03036 6.75808,-9.75034 16.0007,-13.0005 12.8058,-4.50312 28.0021,-3.00047 28.0018,-13.0011 0,-4.00025 -9.31862,-10.5421 -21.0013,-14.0009 -15.0216,-4.44756 -31.002,-1.00006 -33.0018,-12.0005 -1.08964,-1.90715 -0.175181,-5.00259 1.91452,-8.55695 1.14888,-1.81247 3.0858,-2.44375 7.08605,-5.44394 2.99991,-5.00032 8.00136,13.0003 16.1787,3.2828 1.88617,-2.24079 0.682016,-7.82816 6.823,-10.2835 4.99947,-1.99928 28.9709,-2.06249 36.002,-2.99991 -2.03868,-0.824315 -20.0016,-2.00013 -34.0024,-2.00013 -8.00051,0 -12.0002,12.0002 -14.0006,13.0005 -3.00047,0 -3.3772,-2.37714 -5.00032,-4.00025 -3.00047,-2.99991 -6.09846,-0.889512 -6.00038,-0.99978 6.4647,-7.24706 13.0005,-13.0011 20.0013,-14.0009z"/>
  <path fill="black" stroke="black" stroke-width="0.216" d="M86.0055 416.117c3.00019,-3.00019 5.33367,-8.66722 7.00044,-13.0008 2.00013,-1.00006 5.00032,-1.00006 8.00051,0 6.00038,0 20.0013,23.0015 20.0013,35.0022 -1.00006,6.00038 -6.00038,9.00057 -7.00044,24.0015l-9.00057 -13.0008c-2.16595,-4.26784 -2.63027,-6.97153 -6.00038,-13.0008 -4.23298,-7.57219 -12.0008,-10.0006 -13.0008,-20.0013z"/>
  <path fill="black" stroke="black" stroke-width="0.216" d="M70.0044 418.118c4.00025,1.00006 10.0006,0 13.0008,-1.00006 1.00006,10.0006 17.0011,19.0012 19.0012,33.0021 0,7.00044 0.125008,10.3757 -1.00006,16.001 -6.97011,-4.64684 -9.47169,-10.4037 -10.0006,-14.0009 -0.406205,-2.76208 -10.0012,-16.0019 -13.0008,-20.0013 -2.16284,-2.88397 -7.64136,-10.4071 -8.00051,-14.0009z"/>
  <path fill="black" stroke="black" stroke-width="0.216" d="M54.0034 151.101c-34.564,-19.8604 13.7033,-39.9339 13.0008,-49.0031 -5.00032,-22.0014 -2.00013,-29.0018 9.00057,-34.0022 10.0006,-3.00019 10.0006,18.0011 18.0011,31.002 2.28189,4.56407 18.6676,27.703 39.0025,51.0032 24.2221,27.7546 44.0028,38.0024 53.0034,70.0044 -7.00044,6.00038 -9.00567,7.89761 -12.0008,14.0009 -1.00205,1.38359 10.0006,-4.00025 13.0008,0 -6.00038,2.00013 -15.001,5.00032 -22.0014,12.0008 -2.76435,3.98721 -4.74066,7.22268 -6.12936,10.4134 -1.87115,2.58747 9.12955,-1.41279 10.1296,0.587339 -3.00019,2.00013 -12.0008,8.00051 -13.0008,13.0008 -8.00051,-5.00032 -14.0009,-22.0014 -18.0011,-35.0022l14.0009 3.00019 0 -4.00025c-24.0015,-5.00032 -28.0018,-23.0015 -26.0017,-36.0023 3.00019,1.00006 6.79408,2.75783 9.79427,0.757701 -27.7954,-13.7585 -28.7955,-60.7615 -55.7972,-86.7632 -3.00019,33.0021 -39.0025,18.0011 -26.0017,39.0025z"/>
  <path fill="black" stroke="black" stroke-width="0.216" d="M18.0011 50.0942c2.42646,-1.11628 7.00044,-1.00006 11.0007,0 13.0008,11.0007 22.0014,22.0014 33.0021,28.0018 -1.00006,8.00051 -1.00006,15.001 0,24.0015 -15.001,-8.00051 -45.0029,-17.0011 -44.0028,-52.0033z"/>
  <path fill="black" stroke="black" stroke-width="0.216" d="M29.0018 37.0933c12.0008,11.0007 29.0018,22.0014 44.0028,30.0019 -2.00013,1.00006 -5.33367,3.33354 -7.00044,5.00032 -4.00025,1.00006 -6.00038,-1.00006 -9.00057,-3.00019 -9.00057,-5.00032 -32.002,-15.001 -28.0018,-32.002z"/>
  <path fill="black" stroke="black" stroke-width="0.216" d="M377.024 83.0963c57.0036,-5.00032 106.787,80.6111 68.0043,120.008 22.0014,-53.0034 -14.0009,-103.007 -68.0043,-120.008z"/>
  <path fill="black" stroke="black" stroke-width="0.216" d="M413.026 107.098c10.0006,3.00019 32.002,30.0019 34.0022,51.0032 -4.00025,11.0007 -12.0008,33.0021 -27.0017,38.0024 12.0008,-16.001 19.0012,-62.0039 -7.00044,-89.0057z"/>
  <path fill="none" stroke="#BF9F4F" stroke-width="2.83465" d="M317.02 61.0949c34.4069,-1.87002 72.2107,30.9101 83.0053,42.0027m0 0c-5.62961,-7.50615 -37.0023,-3.00019 -61.0039,-20.0013 -0.932032,-0.660189 3.71651,7.67396 2.62403,7.39758 -12.2094,-3.08891 -22.813,-8.11645 -27.6256,-17.3982"/>
  <path fill="none" stroke="#BF9F4F" stroke-width="1.98425" d="M319.02 95.097c25.4719,18.3073 53.2208,17.4983 82.0052,8.00051"/>
  <polyline fill="none" stroke="#BF9F4F" stroke-width="2.83465" points="342.022,35.0932 342.022,49.0941 356.023,56.0945 344.022,64.0951 "/>
  <path fill="#BF9F4F" stroke="#BF9F4F" stroke-width="0.216" d="M259.016 58.0947c4.21881,-1.40627 7.00044,-5.00032 10.0006,-5.00032 6.00038,0 19.0012,0 21.0013,8.00051 -9.00057,-5.00032 -13.0008,2.00013 -19.0012,2.00013 -5.00032,0 -5.00032,-4.00025 -12.0008,-5.00032z"/>
  <path fill="none" stroke="#BF9F4F" stroke-width="0.708662" d="M298.019 74.0957c-11.374,0.121606 -20.3746,2.12173 -27.0017,6.00038"/>
  <line fill="none" stroke="#BF9F4F" stroke-width="1.41732" x1="268.017" y1="135.1" x2="275.017" y2= "125.099" />
  <line fill="none" stroke="#BF9F4F" stroke-width="0.992126" x1="286.018" y1="135.1" x2="290.018" y2= "128.099" />
  <path fill="none" stroke="#BF9F4F" stroke-width="1.98425" d="M302.019 127.099c4.58221,-10.8252 12.9155,-17.1584 25.0016,-19.0012"/>
  <path fill="#B2B2B2" stroke="black" stroke-width="1.41732" d="M223.014 292.11c-4.00025,-8.00051 -20.0342,-52.4203 1.00006,-93.0059 8.00051,-5.00032 16.001,-8.00051 25.0016,-10.0006 -9.00057,15.001 -11.0007,28.0018 -12.0008,43.0027 47.5163,10.1687 94.519,28.1699 132.008,48.003 2.00013,-6.00038 5.00032,-15.001 9.00057,-21.0013 3.35084,1.92898 8.81065,4.55726 12.0008,9.00057 -22.0014,54.0034 -44.0028,110.007 -71.0045,161.01 -27.0017,-4.00025 -107.007,-32.002 -114.007,-42.0027 4.00025,-33.0021 20.0013,-87.0055 18.0011,-95.006z"/>
  <line fill="none" stroke="black" stroke-width="0.992126" x1="218.014" y1="357.114" x2="237.015" y2= "403.117" />
  <line fill="none" stroke="black" stroke-width="0.992126" x1="221.014" y1="316.111" x2="265.017" y2= "412.117" />
  <path fill="none" stroke="black" stroke-width="0.992126" d="M299.019 422.118c-20.509,-54.6908 -58.1854,-109.382 -72.9794,-169.661 -0.354898,-1.4468 -5.02555,-34.352 -1.02529,-48.3528"/>
  <line fill="none" stroke="black" stroke-width="0.992126" x1="324.021" y1="416.117" x2="287.829" y2= "339.622" />
  <line fill="none" stroke="black" stroke-width="0.992126" x1="339.022" y1="384.115" x2="309.02" y2= "331.112" />
  <line fill="none" stroke="black" stroke-width="0.992126" x1="350.022" y1="357.114" x2="330.021" y2= "322.111" />
  <line fill="none" stroke="black" stroke-width="0.992126" x1="361.023" y1="329.112" x2="351.022" y2= "307.11" />
  <line fill="none" stroke="black" stroke-width="0.992126" x1="209.013" y1="367.114" x2="272.017" y2= "335.112" />
  <line fill="none" stroke="black" stroke-width="0.992126" x1="214.014" y1="392.116" x2="369.023" y2= "316.111" />
  <line fill="none" stroke="black" stroke-width="0.992126" x1="238.015" y1="402.117" x2="352.022" y2= "353.113" />
  <line fill="none" stroke="black" stroke-width="0.992126" x1="275.017" y1="415.117" x2="340.022" y2= "383.115" />
  <line fill="none" stroke="black" stroke-width="0.992126" x1="317.02" y1="411.117" x2="328.021" y2= "405.117" />
  <path fill="none" stroke="black" stroke-width="2.83465" d="M238.015 234.106c10.0006,49.0031 34.0022,101.006 46.0029,106.007 9.00057,1.00006 66.0042,-34.0022 97.0062,-54.0034"/>
  <line fill="none" stroke="black" stroke-width="0.992126" x1="257.016" y1="240.106" x2="299.019" y2= "333.112" />
  <line fill="none" stroke="black" stroke-width="0.992126" x1="282.018" y1="248.107" x2="320.02" y2= "322.111" />
  <line fill="none" stroke="black" stroke-width="0.992126" x1="311.02" y1="257.107" x2="341.022" y2= "309.111" />
  <line fill="none" stroke="black" stroke-width="0.992126" x1="343.022" y1="271.108" x2="359.023" y2= "299.11" />
  <line fill="none" stroke="black" stroke-width="0.992126" x1="271.017" y1="323.112" x2="364.023" y2= "279.109" />
  <line fill="none" stroke="black" stroke-width="0.992126" x1="259.016" y1="299.11" x2="329.021" y2= "266.108" />
  <line fill="none" stroke="black" stroke-width="0.992126" x1="251.016" y1="276.109" x2="301.019" y2= "253.107" />
  <line fill="none" stroke="black" stroke-width="0.992126" x1="243.015" y1="253.107" x2="264.017" y2= "242.106" />
  <line fill="none" stroke="black" stroke-width="0.992126" x1="380.024" y1="286.109" x2="372.024" y2= "276.109" />
  <line fill="none" stroke="black" stroke-width="0.992126" x1="216.014" y1="335.112" x2="262.017" y2= "308.111" />
  <line fill="none" stroke="black" stroke-width="0.992126" x1="225.014" y1="301.11" x2="252.016" y2= "286.109" />
  <line fill="none" stroke="black" stroke-width="0.992126" x1="219.014" y1="274.108" x2="242.015" y2= "254.107" />
  <line fill="none" stroke="black" stroke-width="0.992126" x1="215.014" y1="233.106" x2="233.015" y2= "227.105" />
  <line fill="none" stroke="black" stroke-width="0.992126" x1="222.014" y1="208.104" x2="240.015" y2= "207.104" />
  <line fill="none" stroke="black" stroke-width="0.992126" x1="222.014" y1="254.107" x2="238.015" y2= "241.106" />
 </g>
</svg>
