<?xml version="1.0" encoding="UTF-8" standalone="no"?>
<!-- Created with Inkscape (http://www.inkscape.org/) -->
<svg
   xmlns:dc="http://purl.org/dc/elements/1.1/"
   xmlns:cc="http://web.resource.org/cc/"
   xmlns:rdf="http://www.w3.org/1999/02/22-rdf-syntax-ns#"
   xmlns:svg="http://www.w3.org/2000/svg"
   xmlns="http://www.w3.org/2000/svg"
   xmlns:sodipodi="http://sodipodi.sourceforge.net/DTD/sodipodi-0.dtd"
   xmlns:inkscape="http://www.inkscape.org/namespaces/inkscape"
   width="500.0007"
   height="574.50909"
   id="svg1901"
   sodipodi:version="0.32"
   inkscape:version="0.45.1"
   sodipodi:docname="Kitee.vaakuna.svg"
   sodipodi:docbase="D:\Eigene Datein\AR\wp\Kuwat\SVG muokkaus\Valmiit"
   inkscape:output_extension="org.inkscape.output.svg.inkscape"
   version="1.0">
  <defs
     id="defs1903" />
  <sodipodi:namedview
     id="base"
     pagecolor="#ffffff"
     bordercolor="#666666"
     borderopacity="1.0"
     inkscape:pageopacity="0.0"
     inkscape:pageshadow="2"
     inkscape:zoom="1.2863156"
     inkscape:cx="250.00035"
     inkscape:cy="287.25455"
     inkscape:document-units="px"
     inkscape:current-layer="layer1"
     gridtolerance="10000"
     inkscape:window-width="1680"
     inkscape:window-height="950"
     inkscape:window-x="-4"
     inkscape:window-y="-4"
     showgrid="false" />
  <metadata
     id="metadata1906">
    <rdf:RDF>
      <cc:Work
         rdf:about="">
        <dc:format>image/svg+xml</dc:format>
        <dc:type
           rdf:resource="http://purl.org/dc/dcmitype/StillImage" />
      </cc:Work>
    </rdf:RDF>
  </metadata>
  <g
     inkscape:label="Taso 1"
     inkscape:groupmode="layer"
     id="layer1"
     style="opacity:1"
     transform="translate(-156.18713,-125.15171)">
    <g
       id="g2173"
       transform="translate(0,3.4442767e-6)">
      <path
         sodipodi:nodetypes="cscscscc"
         id="path4135"
         d="M 158.95532,399.85354 C 160.13504,503.72899 162.10358,514.81201 172.378,540.76065 C 198.93173,607.82377 257.12392,666.20499 319.46825,688.28589 C 347.45834,697.87896 376.06673,699.14792 406.18749,699.16075 C 436.1307,699.17359 464.8106,697.91768 492.90673,688.28589 C 555.25106,666.20499 613.44327,607.82377 639.99697,540.76065 C 650.27139,514.81201 652.23994,503.72899 653.41966,399.85354 L 158.95532,399.85354 z "
         style="fill:#000000;stroke:#000000;stroke-width:1;stroke-opacity:1" />
      <path
         id="path4128"
         d="M 158.95532,399.85354 L 653.41966,399.85354 C 653.6898,376.06667 653.91877,352.74055 654.19643,317.2046 L 655.68784,125.65171 L 156.68713,125.65171 L 158.17854,317.2046 C 158.4562,352.74055 158.68516,376.06667 158.95532,399.85354 z "
         style="fill:#cf0000;fill-opacity:1;stroke:#000000;stroke-width:1;stroke-opacity:1" />
      <g
         transform="matrix(0.9942729,0,0,0.9942729,2.326264,2.3618752)"
         style="fill:#cfcfcf;fill-opacity:1;stroke:#000000;stroke-width:1.00576007;stroke-miterlimit:4;stroke-dasharray:none;stroke-opacity:1"
         id="g6180">
        <g
           style="fill:#cfcfcf;fill-opacity:1;stroke:#000000;stroke-width:1.00576007;stroke-miterlimit:4;stroke-dasharray:none;stroke-opacity:1"
           id="g6156"
           transform="translate(0,0.3237175)">
          <path
             sodipodi:nodetypes="cssccccccsssccsscsssccccssscsscccc"
             id="path6109"
             d="M 406.10938,163.9375 C 398.16685,164.03099 391.73438,171.11965 391.73438,179.84375 C 391.73438,186.0881 393.43174,188.24808 395.73438,194.4375 C 398.03703,200.62691 393.99331,208.30469 388.95313,211.90625 C 389.00224,218.27567 388.95313,221 388.95313,221 L 406.10938,221 L 406.26563,221 L 423.42188,221 C 423.42188,221 423.37278,218.27567 423.42188,211.90625 C 418.3817,208.30469 414.33799,200.62691 416.64063,194.4375 C 418.94327,188.24808 420.64064,186.0881 420.64063,179.84375 C 420.64063,171.11965 414.20817,164.03099 406.26563,163.9375 C 406.21268,163.93688 406.16246,163.9375 406.10938,163.9375 z M 397.42188,231.625 C 397.42188,231.625 399.8017,242.09632 397.42188,250.0625 C 395.04206,258.02868 394.01564,263.99655 394.01563,273.53125 C 394.01564,283.06594 394.10084,289.79202 397.42188,297 C 398.53136,299.06777 399.06627,300.65101 397.42188,302.71875 C 395.74234,304.8307 391.76562,310.20498 391.76563,316.125 C 391.76564,322.04502 393.36679,325.32177 397.42188,330.1875 C 401.47697,335.05323 397.42188,344.75 397.42188,344.75 L 406.10938,344.75 L 406.26563,344.75 L 414.95313,344.75 C 414.95313,344.75 410.89805,335.05323 414.95313,330.1875 C 419.00822,325.32177 420.60938,322.04502 420.60938,316.125 C 420.60939,310.20498 416.63268,304.8307 414.95313,302.71875 C 413.30874,300.65101 413.84366,299.06777 414.95313,297 C 418.27417,289.79202 418.35938,283.06594 418.35938,273.53125 C 418.35937,263.99655 417.33296,258.02868 414.95313,250.0625 C 412.57331,242.09632 414.95314,231.625 414.95313,231.625 L 406.26563,231.625 L 406.10938,231.625 L 397.42188,231.625 z "
             style="fill:#cfcfcf;fill-opacity:1;stroke:#000000;stroke-width:1.00576007;stroke-miterlimit:4;stroke-dasharray:none;stroke-opacity:1" />
          <path
             style="fill:#cfcfcf;fill-opacity:1;stroke:#000000;stroke-width:1.00576007;stroke-miterlimit:4;stroke-dasharray:none;stroke-opacity:1"
             d="M 406.10938,626.89258 C 398.16685,626.79909 391.73438,619.71043 391.73438,610.98633 C 391.73438,604.74198 393.43174,602.582 395.73438,596.39258 C 398.03703,590.20317 393.99331,582.52539 388.95313,578.92383 C 389.00224,572.55441 388.95313,569.83008 388.95313,569.83008 L 406.10938,569.83008 L 406.26563,569.83008 L 423.42188,569.83008 C 423.42188,569.83008 423.37278,572.55441 423.42188,578.92383 C 418.3817,582.52539 414.33799,590.20317 416.64063,596.39258 C 418.94327,602.582 420.64064,604.74198 420.64063,610.98633 C 420.64063,619.71043 414.20817,626.79909 406.26563,626.89258 C 406.21268,626.8932 406.16246,626.89258 406.10938,626.89258 z M 397.42188,559.20508 C 397.42188,559.20508 399.8017,548.73376 397.42188,540.76758 C 395.04206,532.8014 394.01564,526.83353 394.01563,517.29883 C 394.01564,507.76414 394.10084,501.03806 397.42188,493.83008 C 398.53136,491.76231 399.06627,490.17907 397.42188,488.11133 C 395.74234,485.99938 391.76562,480.6251 391.76563,474.70508 C 391.76564,468.78506 393.36679,465.50831 397.42188,460.64258 C 401.47697,455.77685 397.42188,446.08008 397.42188,446.08008 L 406.10938,446.08008 L 406.26563,446.08008 L 414.95313,446.08008 C 414.95313,446.08008 410.89805,455.77685 414.95313,460.64258 C 419.00822,465.50831 420.60938,468.78506 420.60938,474.70508 C 420.60939,480.6251 416.63268,485.99938 414.95313,488.11133 C 413.30874,490.17907 413.84366,491.76231 414.95313,493.83008 C 418.27417,501.03806 418.35938,507.76414 418.35938,517.29883 C 418.35937,526.83353 417.33296,532.8014 414.95313,540.76758 C 412.57331,548.73376 414.95314,559.20508 414.95313,559.20508 L 406.26563,559.20508 L 406.10938,559.20508 L 397.42188,559.20508 z "
             id="path6154"
             sodipodi:nodetypes="cssccccccsssccsscsssccccssscsscccc" />
        </g>
        <g
           style="fill:#cfcfcf;fill-opacity:1;stroke:#000000;stroke-width:1.00576007;stroke-miterlimit:4;stroke-dasharray:none;stroke-opacity:1"
           transform="matrix(-0.7071068,0.7071068,-0.7071068,-0.7071068,973.00611,388.12148)"
           id="g6160">
          <path
             style="fill:#cfcfcf;fill-opacity:1;stroke:#000000;stroke-width:1.00576007;stroke-miterlimit:4;stroke-dasharray:none;stroke-opacity:1"
             d="M 406.10938,163.9375 C 398.16685,164.03099 391.73438,171.11965 391.73438,179.84375 C 391.73438,186.0881 393.43174,188.24808 395.73438,194.4375 C 398.03703,200.62691 393.99331,208.30469 388.95313,211.90625 C 389.00224,218.27567 388.95313,221 388.95313,221 L 406.10938,221 L 406.26563,221 L 423.42188,221 C 423.42188,221 423.37278,218.27567 423.42188,211.90625 C 418.3817,208.30469 414.33799,200.62691 416.64063,194.4375 C 418.94327,188.24808 420.64064,186.0881 420.64063,179.84375 C 420.64063,171.11965 414.20817,164.03099 406.26563,163.9375 C 406.21268,163.93688 406.16246,163.9375 406.10938,163.9375 z M 397.42188,231.625 C 397.42188,231.625 399.8017,242.09632 397.42188,250.0625 C 395.04206,258.02868 394.01564,263.99655 394.01563,273.53125 C 394.01564,283.06594 394.10084,289.79202 397.42188,297 C 398.53136,299.06777 399.06627,300.65101 397.42188,302.71875 C 395.74234,304.8307 391.76562,310.20498 391.76563,316.125 C 391.76564,322.04502 393.36679,325.32177 397.42188,330.1875 C 401.47697,335.05323 397.42188,344.75 397.42188,344.75 L 406.10938,344.75 L 406.26563,344.75 L 414.95313,344.75 C 414.95313,344.75 410.89805,335.05323 414.95313,330.1875 C 419.00822,325.32177 420.60938,322.04502 420.60938,316.125 C 420.60939,310.20498 416.63268,304.8307 414.95313,302.71875 C 413.30874,300.65101 413.84366,299.06777 414.95313,297 C 418.27417,289.79202 418.35938,283.06594 418.35938,273.53125 C 418.35937,263.99655 417.33296,258.02868 414.95313,250.0625 C 412.57331,242.09632 414.95314,231.625 414.95313,231.625 L 406.26563,231.625 L 406.10938,231.625 L 397.42188,231.625 z "
             id="path6162"
             sodipodi:nodetypes="cssccccccsssccsscsssccccssscsscccc" />
          <path
             sodipodi:nodetypes="cssccccccsssccsscsssccccssscsscccc"
             id="path6164"
             d="M 406.10938,626.89258 C 398.16685,626.79909 391.73438,619.71043 391.73438,610.98633 C 391.73438,604.74198 393.43174,602.582 395.73438,596.39258 C 398.03703,590.20317 393.99331,582.52539 388.95313,578.92383 C 389.00224,572.55441 388.95313,569.83008 388.95313,569.83008 L 406.10938,569.83008 L 406.26563,569.83008 L 423.42188,569.83008 C 423.42188,569.83008 423.37278,572.55441 423.42188,578.92383 C 418.3817,582.52539 414.33799,590.20317 416.64063,596.39258 C 418.94327,602.582 420.64064,604.74198 420.64063,610.98633 C 420.64063,619.71043 414.20817,626.79909 406.26563,626.89258 C 406.21268,626.8932 406.16246,626.89258 406.10938,626.89258 z M 397.42188,559.20508 C 397.42188,559.20508 399.8017,548.73376 397.42188,540.76758 C 395.04206,532.8014 394.01564,526.83353 394.01563,517.29883 C 394.01564,507.76414 394.10084,501.03806 397.42188,493.83008 C 398.53136,491.76231 399.06627,490.17907 397.42188,488.11133 C 395.74234,485.99938 391.76562,480.6251 391.76563,474.70508 C 391.76564,468.78506 393.36679,465.50831 397.42188,460.64258 C 401.47697,455.77685 397.42188,446.08008 397.42188,446.08008 L 406.10938,446.08008 L 406.26563,446.08008 L 414.95313,446.08008 C 414.95313,446.08008 410.89805,455.77685 414.95313,460.64258 C 419.00822,465.50831 420.60938,468.78506 420.60938,474.70508 C 420.60939,480.6251 416.63268,485.99938 414.95313,488.11133 C 413.30874,490.17907 413.84366,491.76231 414.95313,493.83008 C 418.27417,501.03806 418.35938,507.76414 418.35938,517.29883 C 418.35937,526.83353 417.33296,532.8014 414.95313,540.76758 C 412.57331,548.73376 414.95314,559.20508 414.95313,559.20508 L 406.26563,559.20508 L 406.10938,559.20508 L 397.42188,559.20508 z "
             style="fill:#cfcfcf;fill-opacity:1;stroke:#000000;stroke-width:1.00576007;stroke-miterlimit:4;stroke-dasharray:none;stroke-opacity:1" />
        </g>
        <g
           style="fill:#cfcfcf;fill-opacity:1;stroke:#000000;stroke-width:1.00576007;stroke-miterlimit:4;stroke-dasharray:none;stroke-opacity:1"
           id="g6166"
           transform="matrix(0,1,-1,0,801.60255,-10.448753)">
          <path
             sodipodi:nodetypes="cssccccccsssccsscsssccccssscsscccc"
             id="path6168"
             d="M 406.10938,163.9375 C 398.16685,164.03099 391.73438,171.11965 391.73438,179.84375 C 391.73438,186.0881 393.43174,188.24808 395.73438,194.4375 C 398.03703,200.62691 393.99331,208.30469 388.95313,211.90625 C 389.00224,218.27567 388.95313,221 388.95313,221 L 406.10938,221 L 406.26563,221 L 423.42188,221 C 423.42188,221 423.37278,218.27567 423.42188,211.90625 C 418.3817,208.30469 414.33799,200.62691 416.64063,194.4375 C 418.94327,188.24808 420.64064,186.0881 420.64063,179.84375 C 420.64063,171.11965 414.20817,164.03099 406.26563,163.9375 C 406.21268,163.93688 406.16246,163.9375 406.10938,163.9375 z M 397.42188,231.625 C 397.42188,231.625 399.8017,242.09632 397.42188,250.0625 C 395.04206,258.02868 394.01564,263.99655 394.01563,273.53125 C 394.01564,283.06594 394.10084,289.79202 397.42188,297 C 398.53136,299.06777 399.06627,300.65101 397.42188,302.71875 C 395.74234,304.8307 391.76562,310.20498 391.76563,316.125 C 391.76564,322.04502 393.36679,325.32177 397.42188,330.1875 C 401.47697,335.05323 397.42188,344.75 397.42188,344.75 L 406.10938,344.75 L 406.26563,344.75 L 414.95313,344.75 C 414.95313,344.75 410.89805,335.05323 414.95313,330.1875 C 419.00822,325.32177 420.60938,322.04502 420.60938,316.125 C 420.60939,310.20498 416.63268,304.8307 414.95313,302.71875 C 413.30874,300.65101 413.84366,299.06777 414.95313,297 C 418.27417,289.79202 418.35938,283.06594 418.35938,273.53125 C 418.35937,263.99655 417.33296,258.02868 414.95313,250.0625 C 412.57331,242.09632 414.95314,231.625 414.95313,231.625 L 406.26563,231.625 L 406.10938,231.625 L 397.42188,231.625 z "
             style="fill:#cfcfcf;fill-opacity:1;stroke:#000000;stroke-width:1.00576007;stroke-miterlimit:4;stroke-dasharray:none;stroke-opacity:1" />
          <path
             style="fill:#cfcfcf;fill-opacity:1;stroke:#000000;stroke-width:1.00576007;stroke-miterlimit:4;stroke-dasharray:none;stroke-opacity:1"
             d="M 406.10938,626.89258 C 398.16685,626.79909 391.73438,619.71043 391.73438,610.98633 C 391.73438,604.74198 393.43174,602.582 395.73438,596.39258 C 398.03703,590.20317 393.99331,582.52539 388.95313,578.92383 C 389.00224,572.55441 388.95313,569.83008 388.95313,569.83008 L 406.10938,569.83008 L 406.26563,569.83008 L 423.42188,569.83008 C 423.42188,569.83008 423.37278,572.55441 423.42188,578.92383 C 418.3817,582.52539 414.33799,590.20317 416.64063,596.39258 C 418.94327,602.582 420.64064,604.74198 420.64063,610.98633 C 420.64063,619.71043 414.20817,626.79909 406.26563,626.89258 C 406.21268,626.8932 406.16246,626.89258 406.10938,626.89258 z M 397.42188,559.20508 C 397.42188,559.20508 399.8017,548.73376 397.42188,540.76758 C 395.04206,532.8014 394.01564,526.83353 394.01563,517.29883 C 394.01564,507.76414 394.10084,501.03806 397.42188,493.83008 C 398.53136,491.76231 399.06627,490.17907 397.42188,488.11133 C 395.74234,485.99938 391.76562,480.6251 391.76563,474.70508 C 391.76564,468.78506 393.36679,465.50831 397.42188,460.64258 C 401.47697,455.77685 397.42188,446.08008 397.42188,446.08008 L 406.10938,446.08008 L 406.26563,446.08008 L 414.95313,446.08008 C 414.95313,446.08008 410.89805,455.77685 414.95313,460.64258 C 419.00822,465.50831 420.60938,468.78506 420.60938,474.70508 C 420.60939,480.6251 416.63268,485.99938 414.95313,488.11133 C 413.30874,490.17907 413.84366,491.76231 414.95313,493.83008 C 418.27417,501.03806 418.35938,507.76414 418.35938,517.29883 C 418.35937,526.83353 417.33296,532.8014 414.95313,540.76758 C 412.57331,548.73376 414.95314,559.20508 414.95313,559.20508 L 406.26563,559.20508 L 406.10938,559.20508 L 397.42188,559.20508 z "
             id="path6170"
             sodipodi:nodetypes="cssccccccsssccsscsssccccssscsscccc" />
        </g>
        <g
           style="fill:#cfcfcf;fill-opacity:1;stroke:#000000;stroke-width:1.00576007;stroke-miterlimit:4;stroke-dasharray:none;stroke-opacity:1"
           transform="matrix(0.7071068,0.7071068,-0.7071068,0.7071068,398.57023,-171.07984)"
           id="g6172">
          <path
             style="fill:#cfcfcf;fill-opacity:1;stroke:#000000;stroke-width:1.00576007;stroke-miterlimit:4;stroke-dasharray:none;stroke-opacity:1"
             d="M 406.10938,163.9375 C 398.16685,164.03099 391.73438,171.11965 391.73438,179.84375 C 391.73438,186.0881 393.43174,188.24808 395.73438,194.4375 C 398.03703,200.62691 393.99331,208.30469 388.95313,211.90625 C 389.00224,218.27567 388.95313,221 388.95313,221 L 406.10938,221 L 406.26563,221 L 423.42188,221 C 423.42188,221 423.37278,218.27567 423.42188,211.90625 C 418.3817,208.30469 414.33799,200.62691 416.64063,194.4375 C 418.94327,188.24808 420.64064,186.0881 420.64063,179.84375 C 420.64063,171.11965 414.20817,164.03099 406.26563,163.9375 C 406.21268,163.93688 406.16246,163.9375 406.10938,163.9375 z M 397.42188,231.625 C 397.42188,231.625 399.8017,242.09632 397.42188,250.0625 C 395.04206,258.02868 394.01564,263.99655 394.01563,273.53125 C 394.01564,283.06594 394.10084,289.79202 397.42188,297 C 398.53136,299.06777 399.06627,300.65101 397.42188,302.71875 C 395.74234,304.8307 391.76562,310.20498 391.76563,316.125 C 391.76564,322.04502 393.36679,325.32177 397.42188,330.1875 C 401.47697,335.05323 397.42188,344.75 397.42188,344.75 L 406.10938,344.75 L 406.26563,344.75 L 414.95313,344.75 C 414.95313,344.75 410.89805,335.05323 414.95313,330.1875 C 419.00822,325.32177 420.60938,322.04502 420.60938,316.125 C 420.60939,310.20498 416.63268,304.8307 414.95313,302.71875 C 413.30874,300.65101 413.84366,299.06777 414.95313,297 C 418.27417,289.79202 418.35938,283.06594 418.35938,273.53125 C 418.35937,263.99655 417.33296,258.02868 414.95313,250.0625 C 412.57331,242.09632 414.95314,231.625 414.95313,231.625 L 406.26563,231.625 L 406.10938,231.625 L 397.42188,231.625 z "
             id="path6174"
             sodipodi:nodetypes="cssccccccsssccsscsssccccssscsscccc" />
          <path
             sodipodi:nodetypes="cssccccccsssccsscsssccccssscsscccc"
             id="path6176"
             d="M 406.10938,626.89258 C 398.16685,626.79909 391.73438,619.71043 391.73438,610.98633 C 391.73438,604.74198 393.43174,602.582 395.73438,596.39258 C 398.03703,590.20317 393.99331,582.52539 388.95313,578.92383 C 389.00224,572.55441 388.95313,569.83008 388.95313,569.83008 L 406.10938,569.83008 L 406.26563,569.83008 L 423.42188,569.83008 C 423.42188,569.83008 423.37278,572.55441 423.42188,578.92383 C 418.3817,582.52539 414.33799,590.20317 416.64063,596.39258 C 418.94327,602.582 420.64064,604.74198 420.64063,610.98633 C 420.64063,619.71043 414.20817,626.79909 406.26563,626.89258 C 406.21268,626.8932 406.16246,626.89258 406.10938,626.89258 z M 397.42188,559.20508 C 397.42188,559.20508 399.8017,548.73376 397.42188,540.76758 C 395.04206,532.8014 394.01564,526.83353 394.01563,517.29883 C 394.01564,507.76414 394.10084,501.03806 397.42188,493.83008 C 398.53136,491.76231 399.06627,490.17907 397.42188,488.11133 C 395.74234,485.99938 391.76562,480.6251 391.76563,474.70508 C 391.76564,468.78506 393.36679,465.50831 397.42188,460.64258 C 401.47697,455.77685 397.42188,446.08008 397.42188,446.08008 L 406.10938,446.08008 L 406.26563,446.08008 L 414.95313,446.08008 C 414.95313,446.08008 410.89805,455.77685 414.95313,460.64258 C 419.00822,465.50831 420.60938,468.78506 420.60938,474.70508 C 420.60939,480.6251 416.63268,485.99938 414.95313,488.11133 C 413.30874,490.17907 413.84366,491.76231 414.95313,493.83008 C 418.27417,501.03806 418.35938,507.76414 418.35938,517.29883 C 418.35937,526.83353 417.33296,532.8014 414.95313,540.76758 C 412.57331,548.73376 414.95314,559.20508 414.95313,559.20508 L 406.26563,559.20508 L 406.10938,559.20508 L 397.42188,559.20508 z "
             style="fill:#cfcfcf;fill-opacity:1;stroke:#000000;stroke-width:1.00576007;stroke-miterlimit:4;stroke-dasharray:none;stroke-opacity:1" />
        </g>
      </g>
      <path
         d="M 406.18749,218.55409 C 308.33399,218.55409 228.92728,297.99186 228.92727,395.84538 C 228.92727,493.69887 308.33399,573.10558 406.18749,573.10559 C 504.04098,573.10559 583.4477,493.69886 583.4477,395.84538 C 583.4477,297.99188 504.04099,218.5541 406.18749,218.55409 z M 406.18749,249.19012 C 487.13146,249.19012 552.81167,314.90141 552.81167,395.84538 C 552.81164,476.78933 487.13145,542.46956 406.18749,542.46956 C 325.24352,542.46958 259.56331,476.78934 259.56331,395.84538 C 259.56331,314.90139 325.24352,249.19012 406.18749,249.19012 z M 406.18749,340.60109 C 375.6949,340.60109 350.94319,365.35277 350.9432,395.84538 C 350.9432,426.33797 375.6949,451.08966 406.18749,451.08966 C 436.68008,451.08966 461.4318,426.33796 461.43178,395.84538 C 461.43178,365.35279 436.68009,340.6011 406.18749,340.60109 z M 406.18749,375.99099 C 417.13711,375.991 426.0108,384.89577 426.0108,395.84538 C 426.01081,406.79497 417.1371,415.66869 406.18749,415.66869 C 395.23788,415.66869 386.36417,406.79498 386.36417,395.84538 C 386.36416,384.89576 395.23788,375.99099 406.18749,375.99099 z "
         style="fill:#cfcfcf;fill-opacity:1;stroke:#000000;stroke-width:1.00000012;stroke-miterlimit:4;stroke-opacity:1"
         id="path6089" />
    </g>
  </g>
</svg>
