<?xml version="1.0" encoding="UTF-8"?>
<!DOCTYPE svg PUBLIC "-//W3C//DTD SVG 1.1//EN" "http://www.w3.org/Graphics/SVG/1.1/DTD/svg11.dtd">
<!-- Creator: CorelDRAW -->
<svg xmlns="http://www.w3.org/2000/svg" xml:space="preserve" width="500px" height="554px" shape-rendering="geometricPrecision" text-rendering="geometricPrecision" image-rendering="optimizeQuality" fill-rule="evenodd" clip-rule="evenodd"
viewBox="0 0 500 554"
 xmlns:xlink="http://www.w3.org/1999/xlink"
 xmlns:svg="http://www.w3.org/2000/svg"
 version="1.0">
 <g id="Layer_x0020_1">
  <metadata id="CorelCorpID_0Corel-Layer"/>
  <path id="path1937" fill="black" stroke="black" stroke-width="0.510236" d="M0.278929 0.123591l499.433 -0.371339 0.126709 352.659c-53.8277,264.727 -434.692,264.691 -499.439,-5.5457l-0.121039 -346.742z"/>
  <path id="path1937_0" fill="#CCCCCC" d="M499.786 204.989l0.0532914 147.422c-53.8277,264.727 -434.692,264.691 -499.439,-5.5457l-0.0493229 -141.876c77.4394,-50.7121 153.138,-86.2101 249.562,-86.2101 96.4239,0 170.977,32.4544 249.873,86.2098z"/>
  <path fill="black" stroke="black" stroke-width="0.992126" d="M211.271 290.73c5.99074,9.27808 37.5786,8.74035 54.9128,4.45266 13.5709,-9.33931 27.7418,-14.1772 55.4176,-14.8136 36.2308,0.190205 60.7581,42.0948 81.9839,35.6831 5.84476,-19.9038 -49.5315,-41.6081 -52.6899,-72.0153 10.4777,-54.4592 107.985,-32.6928 129.267,14.8822 -12.1193,-5.59673 -29.9404,-19.2963 -36.3578,-16.4903 -3.15213,6.08202 41.1117,33.171 34.3585,62.661 -7.86388,-5.33481 -12.7267,-16.9716 -23.5914,-16.0039 -0.13663,10.0335 17.1329,35.3727 17.5969,64.313 -5.17181,-5.2115 -7.94268,-15.5245 -13.4144,-14.7336 -3.40129,1.78895 1.60073,29.6867 -2.70057,43.78 -4.00507,-7.21049 -3.80863,-24.3241 -12.0149,-21.6309 -6.85985,7.11638 -4.11619,19.9347 -9.77556,22.2497 -1.90063,-3.38684 -0.500032,-9.17434 -5.70189,-10.1599 -2.46104,1.66479 -1.02076,7.53137 -4.68227,7.69607 0.712347,1.4845 1.1245,-11.1356 -8.66665,-11.7519 -5.42381,-1.77307 -4.54536,3.05632 -4.86709,3.98438 -5.08309,-4.02095 -16.4682,-11.3428 -23.3515,-10.2614 -1.73622,21.0541 22.9363,22.0014 25.4016,27.15 1.23676,5.16218 -12.2309,0.117354 -9.79342,5.87991 -4.64967,4.26274 31.8226,5.35351 28.6467,18.9003 -0.981922,9.91956 -0.622205,13.4615 1.69767,23.6489 -2.74961,10.6878 -11.7147,12.0923 -17.6375,18.0862 -4.51588,4.50936 -0.0717166,20.1818 -4.76986,20.8565 -1.60639,0.724536 -18.9927,0.711496 -26.3855,4.38435 -10.7787,1.09956 -15.7337,6.42983 -40.6055,7.51011 -12.2678,0.120756 -24.8355,-1.25887 -27.8,-14.0423 2.39613,-16.4466 14.6962,-13.6865 31.4977,-14.2277 31.0949,2.83323 36.0814,-7.83808 40.1678,-18.5091 1.32151,-5.7172 -13.513,-17.4458 -27.6029,-27.5159 -8.38092,-3.50617 -17.3656,-8.73128 -26.0493,-12.7366 -18.8238,-8.06854 -27.7441,-37.7442 -34.8639,-34.1082 -10.5494,4.21937 15.821,21.6527 17.2758,29.4738 -2.28473,2.73997 -8.46709,-0.214866 -9.22082,10.0366 -4.02888,-1.13783 -12.2837,-8.02063 -14.5063,-6.16819 -4.31093,2.46076 -1.72488,6.11859 -2.13449,9.47991 -8.95182,-2.19203 -10.4012,-9.48615 -15.1515,-8.37695 -4.08643,1.83969 -2.17106,6.68098 -3.25616,10.0219 -9.45525,-4.02095 -15.3091,-14.0437 -21.1632,-12.0623 -5.42778,-0.54652 -2.45282,8.51018 -3.67937,12.7655 -8.40983,-5.73931 -14.8232,-6.8607 -26.7134,-12.1575 -5.26025,-4.24007 -6.25351,-1.83487 -9.41358,-25.2757 -4.11704,0.386079 -0.422646,24.7502 -6.94942,26.3673 -7.55292,4.40816 -20.2864,-1.16079 -35.2307,-4.77865 -3.35395,0.246331 -6.41254,-2.83295 -7.65723,-3.19295 -5.76766,-1.67017 -5.50177,-0.323433 -11.389,-3.46621 -6.38844,-4.95213 0.428315,-10.5041 -35.6698,-13.9553 1.44794,-2.4463 4.09607,-4.29194 3.74343,-7.33777 -9.12303,-7.46703 -18.2463,-9.23188 -28.2697,-25.1017 -0.666142,-2.58066 8.27093,-8.46227 -1.39833,-8.3418 -7.43783,-3.01351 -7.67282,17.9807 -52.6232,27.5715 -2.87405,-2.8131 -6.34819,-6.22687 -6.82129,-12.0407 -1.87852,-10.3635 43.0591,-40.5338 56.4863,-40.0932 14.3212,-1.67528 58.3526,30.5606 81.677,40.8892 7.07896,-9.77812 -21.5541,-11.4537 -26.479,-32.6356 -2.24646,-3.59943 -0.591307,-7.79868 -4.03795,-9.89689 -0.550205,-2.79326 -6.50211,-0.78463 -8.85232,-2.97723 2.61326,-5.24381 0.734174,-5.97629 -2.96306,-6.72747 -5.80507,-1.40627 -5.60041,2.2714 -9.30104,2.9571 -4.31405,-0.333921 -0.525544,-13.2721 -16.5433,-18.4076 -9.76791,-2.59143 -23.4374,1.41902 -29.304,-9.27525 0.680882,-10.7198 36.474,-1.93266 38.6555,-17.1539 6.06756,-8.97421 -49.1103,-20.3669 -49.0193,-29.3057 0.182835,-1.9868 -0.849544,-7.01462 1.07348,-8.0093 4.55556,-2.35644 15.6541,-1.81134 28.959,-1.87512 12.4047,0.847276 14.2143,-2.0914 21.5314,-1.74132 -6.12114,3.89651 -6.29207,7.16684 4.87814,6.18974 8.67119,-2.50044 4.22873,-6.01711 -1.62312,-7.16911 1.55282,-1.60044 8.30608,-1.72233 13.7594,-2.78816 10.6121,1.37934 5.93235,3.0172 12.3418,4.09068 2.93613,-0.684284 3.45685,-3.49058 12.4047,-4.2531 9.40678,0.598394 16.6972,2.67421 18.286,8.09235 -1.68265,5.68347 -10.5871,14.0964 -9.26873,18.2795 4.53373,1.26028 1.28495,-7.38851 16.0571,-8.5235 9.40252,2.052 14.3036,5.00429 19.2047,8.85714 -0.318898,3.66463 -2.13817,7.32955 -0.956693,10.9945 1.84677,3.2264 13.2968,5.85241 14.5437,9.67919 -0.703843,2.16879 -9.51024,1.63673 -8.41295,6.20646 18.0009,5.44422 5.99216,9.38778 20.6924,14.8317 -10.5316,2.06164 -12.96,4.72337 -11.1872,9.18624z"/>
  <path fill="black" stroke="black" stroke-width="0.992126" d="M144.349 396.966c17.0538,1.95534 42.2561,10.4338 41.1191,12.901 -3.59858,12.208 -9.60237,12.1156 -16.2017,17.7214 -3.22271,0.6463 -7.64561,0.092693 -9.66785,1.93975 0.320315,4.05383 -6.26174,2.70624 -8.04218,7.66063 -0.852662,1.3045 -5.00599,-5.19392 -9.15931,-0.588189 -1.72942,3.44296 -4.65931,4.18536 -5.48844,8.82908 -0.824599,11.253 24.7595,36.0114 22.1343,43.3636 -2.79751,4.60262 -3.79418,7.40495 -10.1925,7.80633 -17.5059,-9.60322 -43.4146,-43.8149 -42.6144,-48.9164 1.98624,-7.94665 10.6552,-15.9874 21.132,-27.4725 6.53585,-6.09477 6.71358,-11.7675 16.981,-23.2447z"/>
  <path fill="black" stroke="black" stroke-width="0.992126" d="M212.172 486.697c1.2325,-13.0859 33.8635,-11.6538 57.2426,-5.57122 9.19333,0.627024 11.124,-2.19685 17.0119,-5.35833 7.63994,-8.66665 3.57619,-51.8451 6.715,-53.9093 2.42532,-3.49342 6.65093,-6.98599 10.8771,-7.77856 1.38643,-0.621638 2.47266,3.85824 7.76041,2.63651 2.10954,-5.28265 3.31909,-8.16463 9.03005,-10.4465 13.7217,-1.21436 19.641,11.3746 28.5613,23.6648 -1.22315,6.50948 -5.76681,3.6601 -6.38589,5.03717 -1.29288,2.75017 4.91301,4.28599 1.51795,8.55667 -7.89563,-6.04999 -8.05295,8.72788 -15.0826,9.97966 -2.53417,3.33326 -20.6269,3.39166 -16.0058,21.4705 -1.63644,9.50797 1.22882,18.4159 -0.707811,24.0228 -3.90132,1.7005 -30.6102,3.10082 -54.0182,3.30123 -19.4068,-0.100347 -45.4156,-1.70079 -46.516,-15.6053z"/>
  <path fill="#F00000" stroke="#F00000" stroke-width="0.992126" d="M42.014 248.416c3.18132,-2.39896 5.83597,3.34035 9.54397,4.50709 9.72029,3.05858 16.5305,-0.195591 22.0555,0.523843 6.44854,0.839906 7.50133,5.05077 13.3526,5.32573 -5.0675,4.26926 -5.70359,0.964063 -11.6408,-0.753449 -9.29679,-2.68895 -15.3992,2.29975 -24.9086,-1.20019 -3.41688,-1.25802 -5.60183,-5.60211 -8.40274,-8.40303z"/>
  <path fill="red" stroke="red" stroke-width="0.216" d="M46.2243 360.624c-0.90567,-0.10063 -2.11323,0.10063 -2.71701,0.60378 1.30819,3.92457 5.0315,6.64158 7.54725,9.96237 -1.91197,-3.52205 -3.52205,-7.34599 -4.83024,-10.5661z"/>
  <path fill="red" stroke="red" stroke-width="0.216" d="M54.0734 357.907c-0.90567,-0.10063 -2.11323,0.10063 -2.71701,0.60378 1.30819,3.92457 5.0315,6.64158 7.54725,9.96237 -1.91197,-3.52205 -3.52205,-7.34599 -4.83024,-10.5661z"/>
  <path fill="red" stroke="red" stroke-width="0.216" d="M61.7225 354.209c-0.910489,0.0411024 -2.07213,0.426898 -2.59058,1.01764 1.90035,3.67427 5.99981,5.78155 8.99972,8.6726 -2.43468,-3.18331 -4.61792,-6.71159 -6.40914,-9.69024z"/>
  <path fill="red" stroke="red" stroke-width="0.216" d="M71.081 348.775c-0.910489,0.0411024 -2.07213,0.426898 -2.59058,1.01764 1.90035,3.67427 5.99981,5.78155 8.99972,8.6726 -2.43468,-3.18331 -4.61792,-6.71159 -6.40914,-9.69024z"/>
  <path fill="red" stroke="red" stroke-width="0.216" d="M77.4207 342.899c-0.884977,0.217134 -1.94967,0.821764 -2.3434,1.5018 2.57896,3.2349 7.0098,4.50482 10.5146,6.75723 -3.00728,-2.64926 -5.83484,-5.68545 -8.17115,-8.25903z"/>
  <path fill="red" stroke="red" stroke-width="0.216" d="M158.511 482.82c-0.197575,0.889512 -0.127559,2.11181 0.307559,2.76633 4.04249,-0.877607 7.14501,-4.28655 10.7178,-6.42955 -3.70772,1.52107 -7.68303,2.70964 -11.0254,3.66321z"/>
  <path fill="red" stroke="red" stroke-width="0.216" d="M153.335 474.12c-0.197575,0.889796 -0.127559,2.11181 0.307559,2.76633 4.04277,-0.877607 7.14501,-4.28627 10.7178,-6.42955 -3.70772,1.52136 -7.68303,2.70992 -11.0254,3.66321z"/>
  <path fill="red" stroke="red" stroke-width="0.216" d="M147.465 465.211c-0.0575433,0.909355 0.200976,2.10614 0.732189,2.68526 3.85795,-1.49358 6.39468,-5.34189 9.59216,-8.0127 -3.42709,2.07723 -7.17024,3.86759 -10.3244,5.32744z"/>
  <path fill="red" stroke="red" stroke-width="0.216" d="M142.769 458.642c-0.0572599,0.909638 0.20126,2.10614 0.732473,2.68526 3.85795,-1.49329 6.39468,-5.34189 9.59188,-8.0127 -3.42709,2.07751 -7.16996,3.86759 -10.3244,5.32744z"/>
  <path fill="red" stroke="red" stroke-width="0.216" d="M138.431 451.638c-0.0654803,0.909071 0.182268,2.10784 0.708378,2.69178 3.87128,-1.45871 6.4423,-5.28435 9.66331,-7.92652 -3.44551,2.04662 -7.20426,3.80325 -10.3717,5.23474z"/>
  <path fill="red" stroke="red" stroke-width="0.216" d="M226.444 499.042c-0.689103,-0.596126 -1.7983,-1.11458 -2.58066,-1.0423 -1.14661,3.97474 0.380977,8.32337 0.571748,12.4852 0.420945,-3.98523 1.2617,-8.04841 2.00891,-11.4429z"/>
  <path fill="red" stroke="red" stroke-width="0.216" d="M236.268 500.953c-0.688252,-0.59726 -1.7966,-1.11713 -2.57925,-1.0457 -1.15143,3.97332 0.370772,8.32394 0.556158,12.4861 0.425764,-3.98495 1.27162,-8.047 2.02309,-11.4404z"/>
  <path fill="red" stroke="red" stroke-width="0.216" d="M246.169 501.938c-0.773292,-0.482173 -1.9491,-0.822615 -2.71106,-0.630142 -0.516756,4.10457 1.66649,8.16407 2.49959,12.246 -0.201827,-4.00252 -0.000850394,-8.14649 0.211465,-11.6158z"/>
  <path fill="red" stroke="red" stroke-width="0.216" d="M256.355 502.161c-0.773008,-0.482457 -1.9491,-0.822898 -2.71106,-0.630142 -0.516756,4.10457 1.66649,8.16407 2.49959,12.246 -0.201543,-4.00252 -0.000566929,-8.14678 0.211465,-11.6158z"/>
  <path fill="red" stroke="red" stroke-width="0.216" d="M268.531 501.517c-0.852095,-0.322583 -2.07184,-0.428032 -2.78192,-0.0907087 0.291402,4.1264 3.22214,7.68416 4.83307,11.526 -0.975969,-3.88687 -1.58485,-7.99087 -2.05115,-11.4352z"/>
  <path fill="red" stroke="red" stroke-width="0.216" d="M332.436 488.426c-0.744662,-0.52526 -1.8995,-0.932032 -2.67109,-0.782646 -0.74863,4.06857 1.20076,8.24514 1.80113,12.3678 0.0255118,-4.00734 0.461197,-8.13345 0.869953,-11.5852z"/>
  <path fill="red" stroke="red" stroke-width="0.216" d="M341.194 489.055c-0.743811,-0.526111 -1.89808,-0.9343 -2.66995,-0.786048 -0.753733,4.06772 1.19027,8.24684 1.78554,12.3704 0.0306142,-4.00762 0.471402,-8.13317 0.88441,-11.5844z"/>
  <path fill="red" stroke="red" stroke-width="0.216" d="M349.935 488.153c-0.817229,-0.40337 -2.02082,-0.626174 -2.7601,-0.359433 -0.109134,4.13547 2.46388,7.95969 3.69581,11.9395 -0.595843,-3.96284 -0.804756,-8.10681 -0.935717,-11.5801z"/>
  <path fill="red" stroke="red" stroke-width="0.216" d="M357.981 487.371c-0.816945,-0.40337 -2.02082,-0.626174 -2.75981,-0.359433 -0.109417,4.13547 2.46359,7.95969 3.69553,11.9395 -0.595559,-3.96284 -0.804473,-8.10681 -0.935717,-11.5801z"/>
  <path fill="red" stroke="red" stroke-width="0.216" d="M367.015 485.83c-0.879874,-0.236976 -2.10388,-0.221386 -2.7771,0.184252 0.69704,4.07764 3.96454,7.3287 5.94652,10.993 -1.35468,-3.77178 -2.36551,-7.79585 -3.16942,-11.1773z"/>
  <path fill="red" stroke="red" stroke-width="0.216" d="M73.6963 238.056c-0.70441,-0.90567 -2.0126,-1.20756 -3.0189,-0.90567 -0.50315,1.71071 1.10693,4.93087 1.50945,7.24536 0.50315,-2.11323 0.70441,-4.83024 1.50945,-6.33969z"/>
  <path fill="red" stroke="red" stroke-width="0.216" d="M79.7341 240.773c-0.70441,-0.90567 -2.0126,-1.20756 -3.0189,-0.90567 -0.50315,1.71071 1.10693,4.93087 1.50945,7.24536 0.50315,-2.11323 0.70441,-4.83024 1.50945,-6.33969z"/>
  <path fill="red" stroke="red" stroke-width="0.216" d="M84.5643 242.886c-0.70441,-0.90567 -2.0126,-1.20756 -3.0189,-0.90567 -0.50315,1.71071 1.10693,4.93087 1.50945,7.24536 0.50315,-2.11323 0.70441,-4.83024 1.50945,-6.33969z"/>
  <path fill="red" stroke="red" stroke-width="0.216" d="M91.5078 245.603c-0.70441,-0.90567 -2.0126,-1.20756 -3.0189,-0.90567 -0.50315,1.71071 1.10693,4.93087 1.50945,7.24536 0.50315,-2.11323 0.70441,-4.83024 1.50945,-6.33969z"/>
  <path fill="red" stroke="red" stroke-width="0.216" d="M96.6399 247.717c-0.70441,-0.90567 -2.0126,-1.20756 -3.0189,-0.90567 -0.50315,1.71071 1.10693,4.93087 1.50945,7.24536 0.50315,-2.11323 0.70441,-4.83024 1.50945,-6.33969z"/>
  <path fill="red" stroke="red" stroke-width="0.216" d="M102.074 249.83c-0.70441,-0.90567 -2.0126,-1.20756 -3.0189,-0.90567 -0.50315,1.71071 1.10693,4.93087 1.50945,7.24536 0.50315,-2.11323 0.70441,-4.83024 1.50945,-6.33969z"/>
  <path fill="red" stroke="red" stroke-width="0.216" d="M77.1877 268.649c-0.652819,0.714615 -1.86576,0.952725 -2.79865,0.714615 -0.466299,-1.34958 1.02614,-3.89027 1.39947,-5.71635 0.466299,1.66734 0.653103,3.8109 1.39918,5.00173z"/>
  <path fill="red" stroke="red" stroke-width="0.216" d="M82.2694 268.015c-0.652819,0.714615 -1.86576,0.952725 -2.79865,0.714615 -0.466299,-1.34958 1.02614,-3.89027 1.39947,-5.71635 0.466299,1.66734 0.652819,3.8109 1.39918,5.00173z"/>
  <path fill="red" stroke="red" stroke-width="0.216" d="M87.329 267.253c-0.652819,0.714331 -1.86576,0.952725 -2.79865,0.714331 -0.466299,-1.34958 1.02643,-3.89027 1.39947,-5.71607 0.466299,1.66706 0.653103,3.81062 1.39918,5.00173z"/>
  <path fill="red" stroke="red" stroke-width="0.216" d="M93.8322 266.619c-0.653103,0.714615 -1.86576,0.952725 -2.79865,0.714615 -0.466583,-1.34958 1.02614,-3.89027 1.39918,-5.71635 0.466583,1.66734 0.653103,3.8109 1.39947,5.00173z"/>
  <path fill="red" stroke="red" stroke-width="0.216" d="M98.8697 265.556c-0.653103,0.714331 -1.86576,0.952725 -2.79865,0.714331 -0.466299,-1.34958 1.02614,-3.88999 1.39947,-5.71607 0.466299,1.66706 0.652819,3.8109 1.39918,5.00173z"/>
  <path fill="red" stroke="red" stroke-width="0.216" d="M103.885 263.888c-0.653103,0.714615 -1.86576,0.952725 -2.79865,0.714615 -0.466583,-1.34986 1.02614,-3.89027 1.39918,-5.71635 0.466583,1.66734 0.653103,3.8109 1.39947,5.00173z"/>
 </g>
</svg>
