<?xml version="1.0" encoding="UTF-8" standalone="no"?>
<!-- Created with Inkscape (http://www.inkscape.org/) -->

<svg
   xmlns:dc="http://purl.org/dc/elements/1.1/"
   xmlns:cc="http://creativecommons.org/ns#"
   xmlns:rdf="http://www.w3.org/1999/02/22-rdf-syntax-ns#"
   xmlns:svg="http://www.w3.org/2000/svg"
   xmlns="http://www.w3.org/2000/svg"
   xmlns:sodipodi="http://sodipodi.sourceforge.net/DTD/sodipodi-0.dtd"
   xmlns:inkscape="http://www.inkscape.org/namespaces/inkscape"
   width="500"
   height="580"
   id="svg2"
   version="1.1"
   inkscape:version="0.47 r22583"
   sodipodi:docname="New document 1">
  <defs
     id="defs4"><inkscape:perspective
   sodipodi:type="inkscape:persp3d"
   inkscape:vp_x="0 : 526.18109 : 1"
   inkscape:vp_y="0 : 1000 : 0"
   inkscape:vp_z="744.09448 : 526.18109 : 1"
   inkscape:persp3d-origin="372.04724 : 350.78739 : 1"
   id="perspective10" />
<marker
   orient="auto"
   markerHeight="3"
   markerWidth="4"
   markerUnits="strokeWidth"
   refY="5"
   refX="10"
   viewBox="0 0 10 10"
   id="ArrowStart">
  <path
     id="path2824"
     d="M 10,0 0,5 10,10 z" />
</marker>
<marker
   orient="auto"
   markerHeight="3"
   markerWidth="4"
   markerUnits="strokeWidth"
   refY="5"
   refX="0"
   viewBox="0 0 10 10"
   id="ArrowEnd">
  <path
     id="path2821"
     d="M 0,0 10,5 0,10 z" />
</marker>
<inkscape:perspective
   id="perspective3234"
   inkscape:persp3d-origin="253.3625 : 195.67466 : 1"
   inkscape:vp_z="506.72501 : 293.51199 : 1"
   inkscape:vp_y="0 : 1000 : 0"
   inkscape:vp_x="0 : 293.51199 : 1"
   sodipodi:type="inkscape:persp3d" />

 <style
   id="style3449"
   type="text/css">
   
    .str0 {stroke:#1F1A17;stroke-width:0.72}
    .fil0 {fill:#1F1A17}
    .fil2 {fill:#C0A062}
    .fil3 {fill:#C2C1C1}
    .fil1 {fill:white}
   
  </style>

  <inkscape:perspective
   id="perspective3845"
   inkscape:persp3d-origin="254 : 193.33333 : 1"
   inkscape:vp_z="508 : 290 : 1"
   inkscape:vp_y="0 : 1000 : 0"
   inkscape:vp_x="0 : 290 : 1"
   sodipodi:type="inkscape:persp3d" />

 <style
   id="style4456"
   type="text/css">
   
    .str0 {stroke:#1F1A17;stroke-width:0.72}
    .fil0 {fill:#1F1A17}
    .fil2 {fill:#C0A062}
    .fil3 {fill:#C2C1C1}
    .fil1 {fill:white}
   
  </style>

  <inkscape:perspective
   id="perspective4852"
   inkscape:persp3d-origin="254 : 193.33333 : 1"
   inkscape:vp_z="508 : 290 : 1"
   inkscape:vp_y="0 : 1000 : 0"
   inkscape:vp_x="0 : 290 : 1"
   sodipodi:type="inkscape:persp3d" />
</defs>
  <sodipodi:namedview
     id="base"
     pagecolor="#ffffff"
     bordercolor="#666666"
     borderopacity="1.0"
     inkscape:pageopacity="0.0"
     inkscape:pageshadow="2"
     inkscape:zoom="0.46656941"
     inkscape:cx="177.11407"
     inkscape:cy="227.72546"
     inkscape:document-units="px"
     inkscape:current-layer="layer1"
     showgrid="false"
     inkscape:window-width="1280"
     inkscape:window-height="738"
     inkscape:window-x="-8"
     inkscape:window-y="-8"
     inkscape:window-maximized="1" />
  <metadata
     id="metadata7">
    <rdf:RDF>
      <cc:Work
         rdf:about="">
        <dc:format>image/svg+xml</dc:format>
        <dc:type
           rdf:resource="http://purl.org/dc/dcmitype/StillImage" />
        <dc:title></dc:title>
      </cc:Work>
    </rdf:RDF>
  </metadata>
  <g
     inkscape:label="Layer 1"
     inkscape:groupmode="layer"
     id="layer1"
     transform="translate(-72.885935,-173.90649)">
    <g
       id="Layer_x0020_1"
       transform="matrix(0.98425197,0,0,0.98425197,72.898053,173.39124)">
  <metadata
   id="CorelCorpID_0Corel-Layer" />

  <path
   d="M 0.348192,0.770976 507.56919,0.648288 507.52254,350.03729 c -26.4692,318.615 -471.963004,319.913 -507.140004,-0.33523 L 0.347688,0.771056 z"
   class="fil0 str0"
   id="path1937"
   style="fill:#1f1a17;stroke:#1f1a17;stroke-width:0.72000003" />

  <path
   id="path4461"
   d="m 335.639,344.973 c 4.62989,17.0237 -10.4374,19.6456 -15.3798,11.8492 2.20925,12.1098 -7.14269,19.5114 -15.1937,12.7639 1.47859,14.2384 -12.2305,17.4024 -18.2725,6.9241 -0.99389,14.9112 -16.1361,15.8898 -19.9815,3.18211 -3.91594,14.0141 -19.673,13.583 -21.8762,-1.00541 -2.11219,10.5362 -20.7242,11.0532 -19.5037,-2.65738 -11.7225,11.3993 -21.7627,1.46966 -19.2453,-7.28928 -11.5661,8.7169 -22.4116,1.05523 -18.76,-11.4085 -9.80064,6.65943 -22.9746,1.05322 -16.1908,-13.1636 9.32084,-14.7246 41.6863,-50.652 50.6106,-64.3349 -2.28989,-7.29965 -4.33872,-15.8674 -7.99431,-28.5509 -4.06599,7.92231 -2.59114,21.8183 -15.3711,26.7518 -0.29722,-6.2761 4.72032,-18.3341 2.84343,-27.7837 -5.93539,8.9617 -3.61239,25.8797 -24.4653,32.6661 2.60899,-6.63812 10.8573,-24.1958 10.2882,-35.2999 -7.67549,12.5168 -9.25892,34.6061 -32.5627,37.6575 3.59539,-7.08624 14.4009,-28.2384 14.1425,-40.7324 -9.62784,16.24 -16.734,42.0883 -39.0594,39.6637 2.83133,-8.35114 15.1462,-23.4153 19.8691,-46.125 -12.8062,15.0273 -19.2367,39.6717 -47.9555,37.3041 9.40234,-9.67162 27.0095,-32.4856 32.2563,-47.5557 -16.1473,16.1804 -35.261,45.5127 -59.7111,34.1312 5.41411,-4.84877 32.9112,-26.0191 43.0402,-43.5569 -17.8261,12.8543 -39.4609,41.3194 -63.7074,24.7651 11.84,-7.43127 34.2634,-21.2737 52.4077,-40.0882 -25.541,16.7138 -62.5994,39.2803 -75.1317,15.1664 8.3808,-3.96951 45.1668,-14.1022 64.5668,-32.6342 -24.817,9.72116 -59.5622,28.0826 -76.1213,5.83747 13.9504,-5.81501 52.7092,-14.934 71.9246,-27.7284 -26.5432,6.75648 -69.8959,23.991 -79.4178,-4.05101 10.2908,-2.14301 57.5375,-5.67187 77.6221,-18.2569 -30.5974,6.74784 -71.9568,15.946 -79.4857,-10.4973 8.74858,-0.0602 54.3194,-4.36522 79.3607,-15.4979 -38.3452,6.43364 -72.756,12.0675 -78.4599,-17.301 70.9759,8.31168 123.306,-26.2262 146.606,-17.3774 21.6559,8.22413 11.3599,73.3248 48.7394,72.5685 2.27549,-19.4489 17.532,-48.132 19.2188,-55.5794 -0.84787,-9.95473 -7.68039,-16.8019 -6.01546,-34.34 -6.13988,-4.39978 -10.9477,-10.3982 -12.8249,-19.9143 6.31728,3.66048 11.8022,8.856 18.4389,11.2378 -3.5617,-7.00935 -9.63504,-13.0003 -18.7358,-18.3891 4.29581,-4.54867 12.7475,-2.40423 24.3959,3.48999 14.2906,-16.7109 47.1289,12.0404 57.9445,13.0185 -25.8224,34.895 9.01239,67.6939 13.7203,100.327 49.2077,-5.957 25.0243,-61.958 51.1554,-72.4194 23.1385,-9.26324 78.188,26.0087 149.164,17.697 -9.22032,27.1308 -35.3195,24.374 -73.6647,17.9404 25.0413,12.4114 60.0627,16.7164 73.6065,15.8175 -7.5289,26.4433 -46.9702,15.6468 -74.0512,7.30052 20.0846,12.585 47.1914,21.8681 70.5891,22.7324 -9.52186,28.042 -54.7926,7.29101 -73.0242,-1.06387 15.0595,14.7125 49.9821,26.3889 63.2932,30.2858 -16.5591,22.2451 -45.5501,4.84272 -67.49,-7.75556 19.4,18.5319 45.3168,34.4189 53.6976,38.3884 -17.6472,18.9991 -42.8775,-5.48554 -63.3036,-22.8387 12.0704,18.8145 34.8135,38.4112 46.6534,45.8424 -27.7629,12.7181 -46.8403,-16.0667 -59.8712,-30.8391 8.85024,21.0543 29.3144,46.0607 34.7285,50.9095 -24.4501,11.3815 -39.4079,-21.1476 -49.801,-38.9264 1.7303,15.0702 14.5423,44.2777 23.9446,53.9493 -28.3991,4.60541 -34.1902,-23.8752 -42.5209,-43.378 0.56707,24.3081 6.80804,41.2903 10.5984,48.6824 -22.3255,2.42467 -25.9151,-24.063 -31.3871,-40.303 -0.25834,12.494 2.55514,34.2856 6.15053,41.3718 -23.6235,-4.96944 -21.6904,-26.4194 -24.5707,-39.8952 -1.84781,11.1041 -1.91117,26.7437 0.69782,33.3818 -18.2955,-7.10612 -12.7757,-24.9831 -16.793,-32.6661 -1.8769,9.44957 -1.65456,22.7863 0.92535,29.3821 -12.78,-2.376 -13.8626,-12.4358 -16.0105,-25.473 -3.65559,12.6835 -7.30282,21.2512 -7.03527,28.5509 l 47.7452,65.1399 z"
   class="fil1"
   style="fill:#ffffff" />

  <path
   id="path4463"
   d="m 334.358,345.742 c 3.82579,9.68688 -5.93943,19.6733 -13.8666,8.58125 -5.99415,-7.865 -16.6476,-24.8155 -19.9682,-30.0537 0.33206,1.82102 14.4884,25.6104 17.6639,32.5866 5.11229,10.5636 -10.209,18.288 -12.9658,8.11008 -7.14672,-7.6081 -14.0818,-29.7766 -18.6103,-33.5719 0.24883,2.39847 11.929,27.2016 15.3328,35.5116 5.38992,13.5861 -10.0521,19.8556 -13.7189,7.55021 -5.30035,-9.47895 -9.49968,-32.8781 -12.7094,-38.4446 -0.24739,3.7129 6.78644,27.8882 8.8056,39.0871 3.56285,13.7079 -15.6453,16.4794 -16.204,2.44167 -1.84464,-11.3098 -3.36327,-31.8522 -5.40605,-38.603 -0.5495,1.96704 2.00045,29.2559 2.65997,38.0218 -0.16992,13.5282 -18.5429,16.2334 -18.652,-0.81389 0.16186,-9.68314 2.72419,-28.8478 1.80547,-37.7007 -1.20931,2.34058 -2.57731,25.2677 -4.93171,37.6105 -4.97059,14.6379 -18.1077,9.17568 -16.2786,-0.98784 0.72691,-9.71194 9.44064,-31.9084 10.1653,-40.049 -2.07475,2.01744 -8.50378,28.006 -12.8339,37.5454 -8.16106,14.987 -21.6354,3.7872 -16.219,-5.89651 5.22288,-12.7823 14.938,-31.0378 16.4719,-36.375 -2.69367,2.03011 -13.5553,26.2791 -19.0967,34.4693 -9.76205,13.0026 -21.9574,2.85898 -16.0563,-8.50176 4.95274,-11.086 20.1782,-29.1039 21.7757,-34.5566 -3.21581,2.18506 -18.167,25.9914 -24.5111,32.286 -8.37677,10.7773 -21.1006,1.01232 -13.9795,-8.53949 9.32084,-14.7246 42.1989,-51.9336 51.1232,-65.6165 -2.00362,-6.38698 -5.36112,-17.0775 -8.23306,-27.3139 -0.41011,-1.46218 -1.61136,0.34848 -2.06813,-1.23696 -3.87533,7.55079 -2.71699,20.5289 -13.6656,26.0007 -0.53856,0.26899 -1.1065,0.52013 -1.70554,0.75111 4.3632,-7.34602 5.33261,-17.7834 5.31562,-26.2708 -0.003,-1.57219 -2.17901,-0.0366 -2.47219,-1.51286 -5.74963,8.68148 -3.74976,24.8299 -22.5772,32.0006 4.3321,-9.24308 8.86868,-18.0331 10.4331,-32.5057 0.26986,-2.4961 -1.96934,-0.88244 -2.03299,-2.12861 -7.43559,12.1254 -9.15408,33.2346 -30.4408,37.3165 8.51789,-12.8874 10.7548,-24.5753 13.9447,-36.8537 0.73613,-2.83335 -1.89446,-2.09059 -1.92413,-3.53779 -9.40436,15.863 -16.403,40.8937 -37.5299,39.7872 6.39562,-8.45914 18.8908,-32.7911 20.1278,-43.9376 l -1.78819,-2.31091 c -12.4059,14.5575 -18.8286,38.1407 -45.3275,37.4481 11.9163,-13.0821 24.0659,-31.767 30.6732,-44.805 0.68342,-1.3487 -1.35965,-1.99037 -1.04486,-2.89469 -15.6424,15.6747 -34.0696,43.6922 -57.4344,35.0807 9.9625,-7.91828 32.2281,-29.5793 42.0031,-41.4743 1.2001,-1.46074 -1.74442,-2.1577 -1.23955,-3.03207 -17.4082,12.5528 -38.4489,39.9934 -62.0067,25.8558 18.6371,-10.1946 44.6176,-31.8344 50.3735,-37.3009 1.764,-1.67501 -1.36742,-2.11421 0.3335,-3.87792 -24.742696,16.1914 -60.294296,37.8752 -73.885896,17.2921 23.2937,-8.30391 47.0391,-18.0084 63.8568,-31.4871 1.52093,-1.2191 -1.89994,-1.96992 -0.535968,-3.27283 -14.5411,5.69578 -32.4907,14.3588 -48.1937,16.0805 -11.0964,1.2168 -19.5333,-3.85171 -25.6208,-9.21773 14.142,-3.56631 49.3681,-14.5544 69.6477,-25.8218 1.71821,-0.95444 -1.53101,-1.93248 -0.02995,-2.93184 -15.7599,4.01155 -37.4464,11.717 -54.4579,11.4463 -11.6398,-0.18519 -17.2469,-3.33648 -22.6529,-13.9594 9.96913,-2.07591 55.1339,-5.45271 76.1743,-17.1032 0.678528,-0.37556 -1.48666,-2.29853 -0.859104,-2.69165 -14.3424,3.16282 -31.0499,6.86506 -45.5288,7.18128 -16.4094,0.35827 -25.3437,-2.60554 -31.6501,-16.397 8.40672,-0.0576 51.5849,-3.77914 77.1048,-13.968 1.03709,-0.41386 -1.02902,-2.37687 -0.05098,-2.81146 -21.5689,3.61872 -41.8939,6.98458 -56.5638,4.0104 -11.4106,-2.31322 -14.2744,-6.156 -19.3329,-18.4919 74.5644,4.97952 119.955998,-26.493104 141.992998,-18.402604 23.7819,8.7313 8.79668,71.530604 52.3279,72.568504 2.27549,-19.4489 17.7883,-50.9515 19.4751,-58.398904 -0.59788,-9.70589 -5.9305,-14.2828 -6.01546,-33.571 -5.11459,-4.39978 -10.4351,-7.3224 -12.8249,-16.8385 6.31728,3.66048 10.777,7.83072 19.2079,10.7251 -3.5617,-7.00935 -9.1224,-15.5635 -18.2232,-20.9523 4.29581,-1.72915 10.4406,-0.609984 21.3201,5.79687 14.2906,-16.7109 42.5152,10.7588 55.6376,11.4805 -25.8224,34.895 12.8572,70.000704 13.9766,102.634004 53.8215,-5.18803 28.2479,-63.127604 56.0255,-74.213604 15.338,-6.12144 105.404,30.486504 145.668,18.530504 -9.77444,25.1404 -35.5421,22.3644 -72.9885,16.0816 l -2.05459,2.42871 c 23.0052,9.64858 47.7562,15.6822 74.863,15.7602 -9.18375,23.3994 -47.0186,13.0144 -73.2531,4.92912 l -0.8182,2.62656 c 25.4823,13.9165 49.5539,22.5084 70.935,21.3849 -10.4579,26.117 -54.6054,5.88125 -72.5518,-2.34288 l -0.81735,3.5833 c 15.5696,10.3876 46.9938,25.1148 63.3252,27.7166 -16.6781,20.6879 -45.1077,3.63168 -66.7046,-8.7696 l 0.25632,2.78813 c 14.8997,13.7644 32.0798,26.2259 51.7649,37.2557 -17.543,15.8201 -41.8395,-7.68327 -61.6271,-24.4941 l -1.05696,3.49488 c 14.256,20.0771 32.8795,35.1006 43.6093,41.8349 -13.1622,7.85376 -30.3509,-1.01779 -52.3973,-30.0761 l -3.37277,-0.25028 c 5.25283,21.8794 27.8761,46.0892 34.7285,50.9095 -3.0073,1.39997 -5.87175,2.13581 -8.60112,2.3161 -16.4189,1.08432 -29.2551,-25.0989 -37.9394,-40.4306 -1.60819,-2.83911 -1.83658,1.62432 -3.26045,-0.81187 1.7303,15.0702 14.5423,44.2777 23.9446,53.9493 -21.0007,2.25216 -29.567,-14.7243 -38.7726,-41.7004 l -3.74832,-1.6776 c 0.56707,24.3081 6.80804,41.2903 10.5984,48.6824 -13.1198,1.16698 -22.1809,-13.9 -28.4648,-40.0746 l -2.92234,-0.22838 c -0.23385,11.3224 2.05459,30.2815 5.16183,39.0108 -11.804,-0.75917 -18.8234,-13.1377 -21.0577,-37.1365 l -2.52432,-0.39773 c -1.73232,10.4101 -1.89619,24.8066 0.23962,32.0351 -8.40269,-2.20263 -12.7256,-10.8775 -13.0962,-31.024 l -3.23856,-0.29549 c -1.70093,8.5634 -1.67789,20.3199 0.2615,27.3583 -8.10634,1.13011 -11.7481,-9.1034 -12.3348,-27.1126 l -3.01191,3.66336 c -3.65559,12.6835 -7.30282,21.2512 -7.03527,28.5509 l -0.64224,1.74154 c 16.5246,21.388 31.9487,42.7775 47.1059,64.1673 z"
   class="fil2"
   style="fill:#c0a062" />

  <g
   id="_80378144">
   <path
   d="m 112.712,327.804 c 38.4431,45.0968 60.4037,55.9138 60.0446,80.2671 -1.47542,18.6754 -13.6734,32.4058 -30.4105,33.0241 -11.3982,-0.85392 -24.2205,-8.14983 -22.9441,-22.8666 10.8818,3.84711 19.8835,2.7 21.0851,-8.19101 0.24682,-9.4994 -4.32749,-16.5712 -19.3116,-11.2162 6.99063,-10.4613 5.57021,-21.7521 -8.18525,-25.3515 -15.5054,3.65501 -17.2325,14.4014 -10.0526,25.7178 -13.7462,-5.84151 -19.8081,3.30682 -19.0483,11.27 1.04198,12.299 11.6781,11.6862 21.1683,7.80509 0.67766,13.7892 -6.63927,22.4113 -21.6228,22.5991 -12.744,-1.82477 -29.0751,-13.8347 -29.5569,-32.9737 0.437184,-24.8864 20.7726,-33.3789 58.8341,-80.0842 z"
   class="fil3"
   id="_80378240"
   style="fill:#c2c1c1" />

   <path
   d="m 111.26,328.434 c 38.4431,45.0968 60.4037,55.9138 60.0446,80.2671 -1.47542,18.6754 -13.6734,32.4058 -30.4105,33.0241 -11.3982,-0.85392 -24.2205,-8.14983 -22.9441,-22.8666 10.8818,3.84711 19.8835,2.7 21.0851,-8.19101 0.24682,-9.4994 -4.32749,-16.5712 -19.3116,-11.2162 6.99063,-10.4613 5.57021,-21.7521 -8.18525,-25.3515 -15.5054,3.65501 -17.2325,14.4014 -10.0526,25.7178 -13.7462,-5.84151 -19.8081,3.30682 -19.0483,11.27 1.04198,12.299 11.6781,11.6862 21.1683,7.80509 0.67766,13.7892 -6.63927,22.4113 -21.6228,22.5991 -12.744,-1.82477 -29.0751,-13.8347 -29.5569,-32.9737 0.437184,-24.8864 20.7726,-33.3789 58.8341,-80.0842 z"
   class="fil3"
   id="_80378168"
   style="fill:#c2c1c1" />

  </g>

  <g
   id="_80377976">
   <path
   d="m 253.815,424.745 c 38.4431,45.0968 60.4037,55.9138 60.0446,80.2671 -1.47542,18.6754 -13.6734,32.4058 -30.4105,33.0241 -11.3982,-0.85392 -24.2205,-8.14983 -22.9441,-22.8666 10.8818,3.84711 19.8835,2.7 21.0851,-8.19101 0.24682,-9.4994 -4.32749,-16.5712 -19.3116,-11.2162 6.99063,-10.4613 5.57021,-21.7521 -8.18525,-25.3515 -15.5054,3.65501 -17.2325,14.4014 -10.0526,25.7178 -13.7462,-5.84151 -19.8081,3.30682 -19.0483,11.27 1.04198,12.299 11.6781,11.6862 21.1683,7.80509 0.67766,13.7892 -6.63927,22.4113 -21.6228,22.5991 -12.744,-1.82477 -29.0751,-13.8347 -29.5569,-32.9737 0.43718,-24.8864 20.7726,-33.3789 58.8341,-80.0842 z"
   class="fil3"
   id="_80378072"
   style="fill:#c2c1c1" />

   <path
   d="m 252.362,425.375 c 38.4431,45.0968 60.4037,55.9138 60.0446,80.2671 -1.47542,18.6754 -13.6734,32.4058 -30.4105,33.0241 -11.3982,-0.85392 -24.2205,-8.14983 -22.9441,-22.8666 10.8818,3.84711 19.8835,2.7 21.0851,-8.19101 0.24682,-9.4994 -4.32749,-16.5712 -19.3116,-11.2162 6.99063,-10.4613 5.57021,-21.7521 -8.18525,-25.3515 -15.5054,3.65501 -17.2325,14.4014 -10.0526,25.7178 -13.7462,-5.84151 -19.8081,3.30682 -19.0483,11.27 1.04198,12.299 11.6781,11.6862 21.1683,7.80509 0.67766,13.7892 -6.63927,22.4113 -21.6228,22.5991 -12.744,-1.82477 -29.0751,-13.8347 -29.5569,-32.9737 0.43718,-24.8864 20.7726,-33.3789 58.8341,-80.0842 z"
   class="fil3"
   id="_80378000"
   style="fill:#c2c1c1" />

  </g>

  <g
   id="_80377808">
   <path
   d="m 399.226,328.881 c 38.4431,45.0968 60.4037,55.9138 60.0446,80.2671 -1.47542,18.6754 -13.6734,32.4058 -30.4105,33.0241 -11.3982,-0.85392 -24.2205,-8.14983 -22.9441,-22.8666 10.8818,3.84711 19.8835,2.7 21.0851,-8.19101 0.24682,-9.4994 -4.32749,-16.5712 -19.3116,-11.2162 6.99063,-10.4613 5.57021,-21.7521 -8.18525,-25.3515 -15.5054,3.65501 -17.2325,14.4014 -10.0526,25.7178 -13.7462,-5.84151 -19.8081,3.30682 -19.0483,11.27 1.04198,12.299 11.6781,11.6862 21.1683,7.80509 0.67766,13.7892 -6.63927,22.4113 -21.6228,22.5991 -12.744,-1.82477 -29.0751,-13.8347 -29.5569,-32.9737 0.43718,-24.8864 20.7726,-33.3789 58.8341,-80.0842 z"
   class="fil3"
   id="_80377904"
   style="fill:#c2c1c1" />

   <path
   d="m 397.774,329.511 c 38.4431,45.0968 60.4037,55.9138 60.0446,80.2671 -1.47542,18.6754 -13.6734,32.4058 -30.4105,33.0241 -11.3982,-0.85392 -24.2205,-8.14983 -22.9441,-22.8666 10.8818,3.84711 19.8835,2.7 21.0851,-8.19101 0.24682,-9.4994 -4.32749,-16.5712 -19.3116,-11.2162 6.99063,-10.4613 5.57021,-21.7521 -8.18525,-25.3515 -15.5054,3.65501 -17.2325,14.4014 -10.0526,25.7178 -13.7462,-5.84151 -19.8081,3.30682 -19.0483,11.27 1.04198,12.299 11.6781,11.6862 21.1683,7.80509 0.67766,13.7892 -6.63927,22.4113 -21.6228,22.5991 -12.744,-1.82477 -29.0751,-13.8347 -29.5569,-32.9737 0.43718,-24.8864 20.7726,-33.3789 58.8341,-80.0842 z"
   class="fil3"
   id="_80377832"
   style="fill:#c2c1c1" />

  </g>

  <path
   id="path4474"
   d="m 238.336,166.584 c -7.93988,10.6586 -14.7597,6.82157 -15.6643,-3.51648 -3.83616,13.9594 12.2544,16.7299 15.6643,3.51648 z"
   class="fil1"
   style="fill:#ffffff" />

  <path
   id="path4476"
   d="m 260.281,166.584 c -7.93988,10.6586 -14.7597,6.82157 -15.6643,-3.51648 -3.83616,13.9594 12.2544,16.7299 15.6643,3.51648 z"
   class="fil1"
   style="fill:#ffffff" />

  <path
   id="path4478"
   d="m 247.249,180.576 c -7.93988,10.6586 -15.7188,6.50189 -16.6234,-3.83616 -3.83616,13.9594 13.2134,17.0496 16.6234,3.83616 z"
   class="fil1"
   style="fill:#ffffff" />

  <path
   id="path4480"
   d="m 247.926,153.797 c -6.96125,9.68573 -13.0749,8.64576 -14.7053,-0.95904 -3.83616,13.9594 13.5331,12.8938 14.7053,0.95904 z"
   class="fil1"
   style="fill:#ffffff" />

  <path
   id="path4482"
   d="m 269.345,177.773 c -6.00221,9.68573 -13.3946,9.6048 -14.7053,-0.95904 -3.83616,13.9594 13.5331,12.8938 14.7053,0.95904 z"
   class="fil1"
   style="fill:#ffffff" />

  <path
   id="path4484"
   d="m 258.476,189.921 c -5.364,10.6459 -13.61,9.18 -14.7053,-0.95904 -3.51504,13.9591 14.0677,12.8935 14.7053,0.95904 z"
   class="fil1"
   style="fill:#ffffff" />

  <path
   id="path4486"
   d="m 235.459,192.798 c -5.364,10.6459 -13.61,8.22096 -14.7053,-1.91808 -3.51504,13.9591 14.0677,13.8525 14.7053,1.91808 z"
   class="fil1"
   style="fill:#ffffff" />

  <path
   id="path4488"
   d="m 269.345,154.117 c -5.364,10.6459 -13.61,8.86032 -14.7053,-1.27872 -3.51504,13.9591 14.0677,13.2132 14.7053,1.27872 z"
   class="fil1"
   style="fill:#ffffff" />

  <path
   id="path4490"
   d="m 226.827,152.199 c -5.68512,10.0043 -12.2273,9.38852 -13.1069,-0.31968 -2.87568,13 12.4693,12.2541 13.1069,0.31968 z"
   class="fil1"
   style="fill:#ffffff" />

  <path
   id="path4492"
   d="m 258.156,140.69 c -5.68512,10.0043 -12.2273,9.38852 -13.1069,-0.31968 -2.87568,13 12.4693,12.2541 13.1069,0.31968 z"
   class="fil1"
   style="fill:#ffffff" />

  <path
   id="path4494"
   d="m 237.377,139.092 c -5.04663,9.25344 -10.9492,7.78695 -11.8282,-1.27872 -2.87568,12.1473 11.1902,12.3604 11.8282,1.27872 z"
   class="fil1"
   style="fill:#ffffff" />

  <path
   id="path4496"
   d="m 245.049,205.905 c -5.04663,9.25344 -10.9492,7.78695 -11.8282,-1.27872 -2.87568,12.1473 11.1902,12.3604 11.8282,1.27872 z"
   class="fil1"
   style="fill:#ffffff" />

  <path
   id="path4498"
   d="m 265.828,205.266 c -5.04663,9.25344 -11.2689,6.82791 -12.1478,-2.23776 -2.87568,12.1473 11.5099,13.3194 12.1478,2.23776 z"
   class="fil1"
   style="fill:#ffffff" />

  <path
   id="path4500"
   d="m 254.639,214.536 c -3.76301,9.25344 -8.9234,10.6635 -10.2298,1.5984 -1.27123,12.1467 10.5543,9.48298 10.2298,-1.5984 z"
   class="fil1"
   style="fill:#ffffff" />

  <path
   id="path4502"
   d="m 234.18,217.414 c -3.44333,8.07898 -10.8418,9.06365 -12.1478,0.31968 -1.27123,10.8677 12.4721,9.4824 12.1478,-0.31968 z"
   class="fil1"
   style="fill:#ffffff" />

  <path
   id="path4504"
   d="m 225.229,179.052 c -2.84573,8.07898 -9.29146,11.3011 -10.8691,2.55744 -1.27123,10.8677 11.8328,8.20368 10.8691,-2.55744 z"
   class="fil1"
   style="fill:#ffffff" />

  <path
   id="path4506"
   d="m 280.214,167.863 c -3.44333,8.07898 -10.8418,7.14557 -12.1478,-1.5984 -1.27123,10.8677 12.4721,11.4005 12.1478,1.5984 z"
   class="fil1"
   style="fill:#ffffff" />

  <path
   id="path4508"
   d="m 278.296,193.118 c -3.44333,6.37373 -10.8421,5.44003 -12.1478,-1.5984 -1.69747,9.58868 12.0459,10.1215 12.1478,1.5984 z"
   class="fil1"
   style="fill:#ffffff" />

  <path
   id="path4510"
   d="m 218.8,166.195 c -1.57939,4.41475 -6.12231,6.68535 -7.65994,1.8023 -0.89597,6.80631 8.33904,4.92883 7.65994,-1.8023 z"
   class="fil1"
   style="fill:#ffffff" />

  <path
   id="path4512"
   d="m 225.833,205.515 c 0.66442,3.87994 -4.83984,8.60199 -7.34026,4.04007 -0.89597,6.80631 10.2571,3.01075 7.34026,-4.04007 z"
   class="fil1"
   style="fill:#ffffff" />

  <path
   id="path4514"
   d="m 261.317,129.112 c 0.66442,3.87994 -6.11856,7.32327 -8.61898,2.76135 -0.89597,6.80631 11.5358,4.28947 8.61898,-2.76135 z"
   class="fil1"
   style="fill:#ffffff" />

  <path
   id="path4516"
   d="m 253.369,125 c 0.47146,2.75415 -4.34333,5.19869 -6.11828,1.96013 -0.6359,4.83149 8.18871,3.04503 6.11828,-1.96013 z"
   class="fil1"
   style="fill:#ffffff" />

  <path
   id="path4518"
   d="m 242.819,120.844 c 0.47146,2.75415 -4.34333,5.19869 -6.11828,1.96013 -0.6359,4.83149 8.18871,3.04503 6.11828,-1.96013 z"
   class="fil1"
   style="fill:#ffffff" />

  <path
   id="path4520"
   d="m 246.612,131.989 c 0.66442,3.87994 -7.07789,7.64324 -8.61898,-0.75514 -1.53533,10.0034 11.5358,7.80596 8.61898,0.75514 z"
   class="fil1"
   style="fill:#ffffff" />

  <path
   id="path4522"
   d="m 220.8,141.63 c 0.42768,2.49754 -4.55674,4.92048 -5.5489,-0.48614 -0.98842,6.43968 7.42637,5.02531 5.5489,0.48614 z"
   class="fil1"
   style="fill:#ffffff" />

  <path
   id="path4524"
   d="m 232.309,129.802 c 0.42768,2.49754 -4.55674,4.92048 -5.5489,-0.48614 -0.98842,6.43968 7.42637,5.02531 5.5489,0.48614 z"
   class="fil1"
   style="fill:#ffffff" />

  <path
   id="path4526"
   d="m 270.351,142.589 c 0.42768,2.49783 -4.55674,3.32208 -5.5489,-2.08455 -0.98842,6.43968 7.42637,6.62372 5.5489,2.08455 z"
   class="fil1"
   style="fill:#ffffff" />

  <path
   id="path4528"
   d="m 272.269,216.115 c 0.42768,2.49754 -4.55674,4.92048 -5.5489,-0.48614 -0.98842,6.43968 7.42637,5.02531 5.5489,0.48614 z"
   class="fil1"
   style="fill:#ffffff" />

  <path
   id="path4530"
   d="m 262.678,224.427 c 0.42768,2.49783 -4.55674,6.83885 -5.5489,1.43222 -0.98842,6.43968 7.42637,3.10695 5.5489,-1.43222 z"
   class="fil1"
   style="fill:#ffffff" />

  <path
   id="path4532"
   d="m 281.308,181.572 c 0.28858,1.68595 -3.07555,3.32122 -3.74515,-0.32803 -0.6673,4.34679 5.01235,3.39178 3.74515,0.32803 z"
   class="fil1"
   style="fill:#ffffff" />

  <path
   id="path4534"
   d="m 280.029,157.596 c 0.28858,1.68595 -3.07555,3.32122 -3.74515,-0.32803 -0.6673,4.34679 5.01235,3.39178 3.74515,0.32803 z"
   class="fil1"
   style="fill:#ffffff" />

  <path
   id="path4536"
   d="m 239.43,226.327 c 0.28858,1.68595 -3.07555,3.32122 -3.74515,-0.32803 -0.6673,4.34679 5.01235,3.39178 3.74515,0.32803 z"
   class="fil1"
   style="fill:#ffffff" />

  <path
   id="path4538"
   d="m 231.758,122.111 c 0.28858,1.68595 -3.07555,3.32122 -3.74515,-0.32803 -0.6673,4.34679 5.01235,3.39178 3.74515,0.32803 z"
   class="fil1"
   style="fill:#ffffff" />

  <path
   id="path4540"
   d="m 261.867,120.075 c 0.19613,1.1448 -2.088,2.25504 -2.54275,-0.22262 -0.45302,2.95114 3.4033,2.30285 2.54275,0.22262 z"
   class="fil1"
   style="fill:#ffffff" />

  <path
   id="path4542"
   d="m 222.226,132.543 c 0.19613,1.1448 -2.088,2.25504 -2.54275,-0.22262 -0.45302,2.95114 3.4033,2.30285 2.54275,0.22262 z"
   class="fil1"
   style="fill:#ffffff" />

  <path
   id="path4544"
   d="m 236.612,117.518 c 0.19613,1.1448 -2.088,2.25504 -2.54275,-0.22262 -0.45302,2.95114 3.4033,2.30285 2.54275,0.22262 z"
   class="fil1"
   style="fill:#ffffff" />

  <path
   id="path4546"
   d="m 269.859,128.387 c 0.19613,1.1448 -2.088,2.25504 -2.54275,-0.22262 -0.45302,2.95114 3.4033,2.30285 2.54275,0.22262 z"
   class="fil1"
   style="fill:#ffffff" />

  <path
   id="path4548"
   d="m 246.522,111.763 c 0.19613,1.1448 -2.088,2.25504 -2.54275,-0.22262 -0.45302,2.95114 3.4033,2.30285 2.54275,0.22262 z"
   class="fil1"
   style="fill:#ffffff" />

  <path
   id="path4550"
   d="m 247.766,51.8193 c 3.79527,0 7.83216,2.79648 7.83216,7.03296 0,4.23648 -3.07786,7.992 -6.87312,7.992 -3.79527,0 -7.51248,-2.4768 -7.51248,-6.71328 0,-4.23648 2.75818,-8.31168 6.55344,-8.31168 z"
   class="fil1"
   style="fill:#ffffff" />

  <path
   id="path4552"
   d="m 247.661,53.8085 c 2.80829,0 5.79543,1.7496 5.79543,4.88419 0,3.13488 -1.63814,5.91379 -4.44643,5.91379 -2.80829,0 -5.23901,-1.83283 -5.23901,-4.96771 0,-3.13488 1.08173,-5.83027 3.89002,-5.83027 z"
   class="fil2"
   style="fill:#c0a062" />

  <path
   id="path4554"
   d="m 248.246,55.3358 c 1.23581,0 1.91808,1.88986 1.91808,3.03696 0,1.1471 -1.32163,1.43856 -2.55744,1.43856 -1.23581,0 -1.91808,-0.930816 -1.91808,-2.07792 0,-1.1471 1.32163,-2.3976 2.55744,-2.3976 z"
   class="fil1"
   style="fill:#ffffff" />

  <path
   id="path4556"
   d="m 99.2454,121.772 c -11.0886,-6.95492 -9.23962,-15.791 1.03104,-17.7555 -14.1535,-1.44 -14.4153,16.0572 -1.03104,17.7555 z"
   class="fil1"
   style="fill:#ffffff" />

  <path
   id="path4558"
   d="m 112.352,127.846 c -11.0886,-3.43843 -11.1577,-14.832 -0.88704,-16.7965 -14.1535,-1.44 -12.4972,19.2537 0.88704,16.7965 z"
   class="fil1"
   style="fill:#ffffff" />

  <path
   id="path4560"
   d="m 102.762,144.15 c -12.3676,-4.55674 -10.4121,-13.3934 1.35043,-16.4768 -15.1934,-0.0527 -16.255,16.8054 -1.35043,16.4768 z"
   class="fil1"
   style="fill:#ffffff" />

  <path
   id="path4562"
   d="M 105.639,167.486 C 92.952,164.84734 94.5876,154.0926 106.35007,151.0092 91.156672,150.9565 89.775372,168.4539 105.639,167.486 z"
   class="fil1"
   style="fill:#ffffff" />

  <path
   id="path4564"
   d="m 115.55,151.822 c -12.6873,-2.63895 -12.0105,-14.0331 -0.24826,-17.1164 -14.686,-0.0524 -15.2683,18.0841 0.24826,17.1164 z"
   class="fil1"
   style="fill:#ffffff" />

  <path
   id="path4566"
   d="m 118.107,173.241 c -10.982,-1.78646 -11.9039,-12.8609 -1.84666,-16.7967 -12.6585,0.45446 -12.2823,18.1109 1.84666,16.7967 z"
   class="fil1"
   style="fill:#ffffff" />

  <path
   id="path4568"
   d="m 112.992,188.585 c -13.646,-0.40118 -14.5679,-14.0328 -2.8057,-17.1161 -14.686,-0.0527 -13.0303,20.6413 2.8057,17.1161 z"
   class="fil1"
   style="fill:#ffffff" />

  <path
   id="path4570"
   d="m 123.222,191.462 c -9.2232,-1.62691 -10.7845,-11.7426 -1.84694,-14.5587 -11.1661,0.0815 -10.3634,15.393 1.84694,14.5587 z"
   class="fil1"
   style="fill:#ffffff" />

  <path
   id="path4572"
   d="m 118.747,203.93 c -9.22263,0.6385 -12.3823,-8.95882 -3.44535,-12.9603 -10.8458,1.49933 -8.22932,16.7622 3.44535,12.9603 z"
   class="fil1"
   style="fill:#ffffff" />

  <path
   id="path4574"
   d="m 131.885,214.327 c -7.00733,5.50224 -15.7902,0.22234 -10.686,-8.49687 -8.64029,6.76973 2.65997,18.347 10.686,8.49687 z"
   class="fil1"
   style="fill:#ffffff" />

  <path
   id="path4576"
   d="m 146.079,219.446 c -3.63456,6.69428 -13.0136,5.05095 -11.8164,-3.17607 -4.48848,8.89719 9.30701,14.1921 11.8164,3.17607 z"
   class="fil1"
   style="fill:#ffffff" />

  <path
   id="path4578"
   d="m 156.817,228.684 c -2.49927,4.60311 -7.98941,3.1536 -7.16602,-2.50359 -3.0865,6.11799 5.44061,10.0786 7.16602,2.50359 z"
   class="fil1"
   style="fill:#ffffff" />

  <path
   id="path4580"
   d="m 134.347,191.64 c -4.932,1.764 -7.09805,-5.85418 -2.71239,-9.52128 -6.37949,2.50157 -3.62448,14.0161 2.71239,9.52128 z"
   class="fil1"
   style="fill:#ffffff" />

  <path
   id="path4582"
   d="m 134.347,164.787 c -4.932,1.764 -7.09805,-4.89514 -2.71239,-8.56224 -6.37949,1.54253 -3.62419,12.3109 2.71239,8.56224 z"
   class="fil1"
   style="fill:#ffffff" />

  <path
   id="path4584"
   d="m 126.674,176.935 c -4.932,1.764 -7.09805,-7.1329 -2.71239,-10.8 -6.37949,1.54253 -3.62419,14.5486 2.71239,10.8 z"
   class="fil1"
   style="fill:#ffffff" />

  <path
   id="path4586"
   d="m 122.838,158.074 c -4.932,1.764 -7.09805,-8.7313 -2.71239,-12.3984 -6.91431,1.54224 -3.94474,16.1464 2.71239,12.3984 z"
   class="fil1"
   style="fill:#ffffff" />

  <path
   id="path4588"
   d="m 129.232,142.09 c -4.932,1.764 -7.09805,-4.89514 -2.71239,-8.56224 -6.37949,1.54253 -3.62419,12.3109 2.71239,8.56224 z"
   class="fil1"
   style="fill:#ffffff" />

  <path
   id="path4590"
   d="m 127.633,119.392 c -4.93171,1.764 -7.09805,-4.25578 -2.71239,-7.92288 -6.37949,1.54253 -3.62391,11.6715 2.71239,7.92288 z"
   class="fil1"
   style="fill:#ffffff" />

  <path
   id="path4592"
   d="m 120.6,133.139 c -4.932,1.764 -7.73741,-7.77226 -3.35175,-11.4394 -6.37949,1.54253 -2.98483,15.188 3.35175,11.4394 z"
   class="fil1"
   style="fill:#ffffff" />

  <path
   id="path4594"
   d="m 117.404,111.4 c -4.93171,1.764 -7.09805,-7.1329 -2.71239,-10.8 -6.37949,1.54253 -3.62391,14.5486 2.71239,10.8 z"
   class="fil1"
   style="fill:#ffffff" />

  <path
   id="path4596"
   d="m 133.572,203.228 c -3.132,4.45219 -11.374,-1.26 -9.74794,-6.86016 -4.93517,5.18026 6.32708,13.7393 9.74794,6.86016 z"
   class="fil1"
   style="fill:#ffffff" />

  <path
   id="path4598"
   d="m 140.482,213.54 c -2.00189,2.04653 -7.2697,-1.7113 -6.2306,-4.3848 -3.15418,3.31114 4.0441,8.7817 6.2306,4.3848 z"
   class="fil1"
   style="fill:#ffffff" />

  <path
   id="path4600"
   d="m 172.485,235.096 c -0.51178,2.16259 -6.85786,1.26461 -7.53581,-1.12147 -1.33258,4.37472 7.5554,6.03188 7.53581,1.12147 z"
   class="fil1"
   style="fill:#ffffff" />

  <path
   id="path4602"
   d="m 109.153,104.209 c -2.00189,2.04653 -5.6713,-1.39162 -4.63219,-4.06512 -3.15418,3.31114 2.4457,8.46202 4.63219,4.06512 z"
   class="fil1"
   style="fill:#ffffff" />

  <path
   id="path4604"
   d="m 414.21,123.31 c 13.6371,-4.91587 9.72375,-14.2243 -1.54339,-16.9865 14.7001,-0.52877 16.5681,18.0213 1.54339,16.9865 z"
   class="fil1"
   style="fill:#ffffff" />

  <path
   id="path4606"
   d="m 404.435,131.947 c 8.99424,-1.94285 10.2591,-11.6283 2.68099,-15.5151 11.2478,0.37555 8.13975,19.5739 -2.68099,15.5151 z"
   class="fil1"
   style="fill:#ffffff" />

  <path
   id="path4608"
   d="m 415.307,144.663 c 14.1422,-0.66154 10.887,-12.6662 -1.35072,-16.9897 15.376,0.43459 16.8016,21.3425 1.35072,16.9897 z"
   class="fil1"
   style="fill:#ffffff" />

  <path
   id="path4610"
   d="m 410.636,163.898 c 14.6632,1.8072 12.3981,-10.7476 2.87741,-16.4771 13.9968,2.25533 11.4477,24.3674 -2.87741,16.4771 z"
   class="fil1"
   style="fill:#ffffff" />

  <path
   id="path4612"
   d="m 404.314,149.259 c 8.24429,0.0953 9.87408,-8.99194 2.55514,-14.8093 9.30154,1.48522 9.02967,18.2543 -2.55514,14.8093 z"
   class="fil1"
   style="fill:#ffffff" />

  <path
   id="path4614"
   d="m 399.193,168.114 c 11.2383,0.77674 12.6726,-12.8609 2.61562,-16.7965 12.6585,0.45446 11.5134,21.1864 -2.61562,16.7965 z"
   class="fil1"
   style="fill:#ffffff" />

  <path
   id="path4616"
   d="m 406.614,183.458 c 13.9021,4.46861 12.5176,-11.9817 0.75542,-15.065 15.4544,-0.50659 12.7731,25.253 -0.75542,15.065 z"
   class="fil1"
   style="fill:#ffffff" />

  <path
   id="path4618"
   d="m 392.54,183.773 c 12.17,4.01155 15.5252,-6.10359 6.2041,-13.5334 10.8878,0.0818 10.4697,22.8263 -6.2041,13.5334 z"
   class="fil1"
   style="fill:#ffffff" />

  <path
   id="path4620"
   d="m 395.99,199.573 c 7.68413,3.33043 16.3118,-6.0961 8.57175,-12.1913 11.361,2.78583 3.19133,18.6503 -8.57175,12.1913 z"
   class="fil1"
   style="fill:#ffffff" />

  <path
   id="path4622"
   d="m 385.671,212.533 c 6.65482,4.09248 14.9466,-3.15274 10.1733,-10.5474 7.87133,4.84675 -2.74551,18.9017 -10.1733,10.5474 z"
   class="fil1"
   style="fill:#ffffff" />

  <path
   id="path4624"
   d="m 373.528,223.035 c 5.0017,6.01056 13.3554,-1.2721 10.7908,-8.81511 5.91984,7.10842 -6.97824,18.2022 -10.7908,8.81511 z"
   class="fil1"
   style="fill:#ffffff" />

  <path
   id="path4626"
   d="m 357.92,229.453 c 2.49927,4.60311 13.3721,0.84643 12.5487,-4.81047 3.0865,6.11799 -10.8233,12.3854 -12.5487,4.81047 z"
   class="fil1"
   style="fill:#ffffff" />

  <path
   id="path4628"
   d="m 389.362,155.047 c 2.87367,0.99245 3.66682,-4.89975 2.71239,-7.28036 3.68727,0.77328 1.53014,10.4308 -2.71239,7.28036 z"
   class="fil1"
   style="fill:#ffffff" />

  <path
   id="path4630"
   d="m 393.445,170.783 c 5.27328,-0.97027 4.10746,-9.09821 -0.61978,-12.0816 6.97738,0.64541 7.72503,14.6762 0.61978,12.0816 z"
   class="fil1"
   style="fill:#ffffff" />

  <path
   id="path4632"
   d="m 396.513,151.409 c 3.64493,1.764 6.49095,-7.1928 4.25002,-10.8602 5.54717,1.8841 1.03968,14.9504 -4.25002,10.8602 z"
   class="fil1"
   style="fill:#ffffff" />

  <path
   id="path4634"
   d="m 392.682,138.245 c 3.22301,-0.62842 3.3385,-6.00567 0.66211,-7.28064 4.67021,-0.16589 3.96547,9.32055 -0.66211,7.28064 z"
   class="fil1"
   style="fill:#ffffff" />

  <path
   id="path4636"
   d="m 394.28,121.186 c 2.88173,-0.28714 1.71533,-7.58794 -0.61949,-9.2042 5.01235,-0.16618 5.58893,11.2438 0.61949,9.2042 z"
   class="fil1"
   style="fill:#ffffff" />

  <path
   id="path4638"
   d="m 400.032,133.651 c 2.78727,-0.80928 4.65639,-6.75332 1.5575,-8.87616 5.18256,0.94406 3.24,11.8552 -1.5575,8.87616 z"
   class="fil1"
   style="fill:#ffffff" />

  <path
   id="path4640"
   d="m 403.998,113.451 c 0.61718,-3.98909 -1.78387,-8.21031 -4.20826,-9.26208 4.57805,-0.77328 7.54244,7.77802 4.20826,9.26208 z"
   class="fil1"
   style="fill:#ffffff" />

  <path
   id="path4642"
   d="m 387.06,198.358 c 3.132,4.45219 8.55447,-2.79792 6.92871,-8.39808 4.93459,5.5224 -3.50813,15.6191 -6.92871,8.39808 z"
   class="fil1"
   style="fill:#ffffff" />

  <path
   id="path4644"
   d="m 376.818,210.977 c 2.00189,2.04624 7.26999,-3.76186 6.23088,-6.43536 3.15418,3.31114 -4.04439,10.8323 -6.23088,6.43536 z"
   class="fil1"
   style="fill:#ffffff" />

  <path
   id="path4646"
   d="m 344.046,236.891 c 0.51178,2.16259 7.62711,-1.81152 8.30506,-4.1976 1.33229,4.37472 -8.32464,9.108 -8.30506,4.1976 z"
   class="fil1"
   style="fill:#ffffff" />

  <path
   id="path4648"
   d="m 408.147,110.361 c 5.33405,-4.10544 0.0325,-8.56858 -1.00656,-11.2421 8.5369,4.33642 3.44967,13.3321 1.00656,11.2421 z"
   class="fil1"
   style="fill:#ffffff" />

  <path
   id="path4650"
   d="m 365.756,219.765 c 0.26755,1.13069 3.98765,-0.94694 4.34218,-2.19456 0.69667,2.2873 -4.35255,4.76208 -4.34218,2.19456 z"
   class="fil1"
   style="fill:#ffffff" />

  <rect
   id="rect4652"
   height="2.05056"
   width="2.05056"
   y="89.0289"
   x="351.65799"
   class="fil1"
   style="fill:#ffffff" />

  <rect
   id="rect4654"
   height="2.05056"
   width="2.05056"
   y="84.789497"
   x="356.923"
   class="fil1"
   style="fill:#ffffff" />

  <rect
   id="rect4656"
   height="2.05056"
   width="2.05056"
   y="81.851898"
   x="363.70499"
   class="fil1"
   style="fill:#ffffff" />

  <rect
   id="rect4658"
   height="2.05056"
   width="2.05056"
   y="81.595596"
   x="357.81"
   class="fil1"
   style="fill:#ffffff" />

  <rect
   id="rect4660"
   height="2.05056"
   width="2.05056"
   y="82.620903"
   x="353.70901"
   class="fil1"
   style="fill:#ffffff" />

  <rect
   id="rect4662"
   height="2.05056"
   width="2.05056"
   y="96.462196"
   x="343.19901"
   class="fil1"
   style="fill:#ffffff" />

  <rect
   id="rect4664"
   height="2.05056"
   width="2.05056"
   y="99.794403"
   x="342.42999"
   class="fil1"
   style="fill:#ffffff" />

  <rect
   id="rect4666"
   height="2.05056"
   width="2.05056"
   y="105.433"
   x="341.66101"
   class="fil1"
   style="fill:#ffffff" />

  <rect
   id="rect4668"
   height="2.05056"
   width="2.05056"
   y="109.278"
   x="340.89301"
   class="fil1"
   style="fill:#ffffff" />

  <rect
   id="rect4670"
   height="2.05056"
   width="2.05056"
   y="115.43"
   x="338.586"
   class="fil1"
   style="fill:#ffffff" />

  <rect
   id="rect4672"
   height="2.05056"
   width="2.05056"
   y="89.541496"
   x="345.50601"
   class="fil1"
   style="fill:#ffffff" />

  <rect
   id="rect4674"
   height="2.05056"
   width="2.05056"
   y="84.671501"
   x="350.633"
   class="fil1"
   style="fill:#ffffff" />

  <rect
   id="rect4676"
   height="2.05056"
   width="2.05056"
   y="85.953102"
   x="354.73401"
   class="fil1"
   style="fill:#ffffff" />

  <rect
   id="rect4678"
   height="2.05056"
   width="2.05056"
   y="92.104797"
   x="346.01901"
   class="fil1"
   style="fill:#ffffff" />

  <rect
   id="rect4680"
   height="2.05056"
   width="2.05056"
   y="84.671501"
   x="371.138"
   class="fil1"
   style="fill:#ffffff" />

  <rect
   id="rect4682"
   height="2.05056"
   width="2.05056"
   y="81.595596"
   x="360.88501"
   class="fil1"
   style="fill:#ffffff" />

  <rect
   id="rect4684"
   height="2.05056"
   width="2.05056"
   y="83.646202"
   x="379.08401"
   class="fil1"
   style="fill:#ffffff" />

  <rect
   id="rect4686"
   height="2.05056"
   width="2.05056"
   y="87.234703"
   x="390.362"
   class="fil1"
   style="fill:#ffffff" />

  <rect
   id="rect4688"
   height="2.05056"
   width="2.05056"
   y="84.158798"
   x="375.75201"
   class="fil1"
   style="fill:#ffffff" />

  <rect
   id="rect4690"
   height="2.05056"
   width="2.05056"
   y="81.595596"
   x="372.42001"
   class="fil1"
   style="fill:#ffffff" />

  <rect
   id="rect4692"
   height="2.05056"
   width="2.05056"
   y="81.595596"
   x="367.806"
   class="fil1"
   style="fill:#ffffff" />

  <rect
   id="rect4694"
   height="2.05056"
   width="2.05056"
   y="88.259903"
   x="395.48901"
   class="fil1"
   style="fill:#ffffff" />

  <rect
   id="rect4696"
   height="2.05056"
   width="2.05056"
   y="89.541496"
   x="406.767"
   class="fil1"
   style="fill:#ffffff" />

  <rect
   id="rect4698"
   height="2.05056"
   width="2.05056"
   y="85.953102"
   x="387.03"
   class="fil1"
   style="fill:#ffffff" />

  <rect
   id="rect4700"
   height="2.05056"
   width="2.05056"
   y="96.718498"
   x="346.78799"
   class="fil1"
   style="fill:#ffffff" />

  <rect
   id="rect4702"
   height="2.05056"
   width="2.05056"
   y="121.838"
   x="336.27899"
   class="fil1"
   style="fill:#ffffff" />

  <rect
   id="rect4704"
   height="2.05056"
   width="2.05056"
   y="128.502"
   x="334.741"
   class="fil1"
   style="fill:#ffffff" />

  <rect
   id="rect4706"
   height="2.05056"
   width="2.05056"
   y="86.978302"
   x="348.32599"
   class="fil1"
   style="fill:#ffffff" />

  <rect
   id="rect4708"
   height="2.05056"
   width="2.05056"
   y="74.675003"
   x="276.04401"
   class="fil1"
   style="fill:#ffffff" />

  <rect
   id="rect4710"
   height="2.05056"
   width="2.05056"
   y="64.934799"
   x="278.09399"
   class="fil1"
   style="fill:#ffffff" />

  <rect
   id="rect4712"
   height="2.05056"
   width="2.05056"
   y="60.5774"
   x="279.37601"
   class="fil1"
   style="fill:#ffffff" />

  <rect
   id="rect4714"
   height="2.05056"
   width="2.05056"
   y="57.7579"
   x="278.86301"
   class="fil1"
   style="fill:#ffffff" />

  <rect
   id="rect4716"
   height="2.05056"
   width="2.05056"
   y="53.1441"
   x="282.70801"
   class="fil1"
   style="fill:#ffffff" />

  <rect
   id="rect4718"
   height="2.05056"
   width="2.05056"
   y="54.938301"
   x="272.711"
   class="fil1"
   style="fill:#ffffff" />

  <rect
   id="rect4720"
   height="2.05056"
   width="2.05056"
   y="52.6315"
   x="276.04401"
   class="fil1"
   style="fill:#ffffff" />

  <rect
   id="rect4722"
   height="2.05056"
   width="2.05056"
   y="51.606201"
   x="279.888"
   class="fil1"
   style="fill:#ffffff" />

  <rect
   id="rect4724"
   height="2.05056"
   width="2.05056"
   y="49.811901"
   x="273.48001"
   class="fil1"
   style="fill:#ffffff" />

  <rect
   id="rect4726"
   height="2.05056"
   width="2.05056"
   y="45.7108"
   x="267.58499"
   class="fil1"
   style="fill:#ffffff" />

  <rect
   id="rect4728"
   height="2.05056"
   width="2.05056"
   y="46.736099"
   x="264.76501"
   class="fil1"
   style="fill:#ffffff" />

  <rect
   id="rect4730"
   height="2.05056"
   width="2.05056"
   y="48.0177"
   x="270.66101"
   class="fil1"
   style="fill:#ffffff" />

  <rect
   id="rect4732"
   height="2.05056"
   width="2.05056"
   y="61.602699"
   x="275.53101"
   class="fil1"
   style="fill:#ffffff" />

  <rect
   id="rect4734"
   height="2.05056"
   width="2.05056"
   y="56.476299"
   x="281.939"
   class="fil1"
   style="fill:#ffffff" />

  <rect
   id="rect4736"
   height="2.05056"
   width="2.05056"
   y="42.8913"
   x="262.45901"
   class="fil1"
   style="fill:#ffffff" />

  <rect
   id="rect4738"
   height="2.05056"
   width="2.05056"
   y="49.299301"
   x="276.81201"
   class="fil1"
   style="fill:#ffffff" />

  <rect
   id="rect4740"
   height="2.05056"
   width="2.05056"
   y="54.938301"
   x="279.63199"
   class="fil1"
   style="fill:#ffffff" />

  <rect
   id="rect4742"
   height="2.05056"
   width="2.05056"
   y="82.877197"
   x="223.498"
   class="fil1"
   style="fill:#ffffff" />

  <rect
   id="rect4744"
   height="2.05056"
   width="2.05056"
   y="86.209396"
   x="225.29201"
   class="fil1"
   style="fill:#ffffff" />

  <rect
   id="rect4746"
   height="2.05056"
   width="2.05056"
   y="93.129997"
   x="228.112"
   class="fil1"
   style="fill:#ffffff" />

  <rect
   id="rect4748"
   height="2.05056"
   width="2.05056"
   y="98.512802"
   x="226.061"
   class="fil1"
   style="fill:#ffffff" />

  <rect
   id="rect4750"
   height="2.05056"
   width="2.05056"
   y="89.541496"
   x="226.83"
   class="fil1"
   style="fill:#ffffff" />

  <rect
   id="rect4752"
   height="2.05056"
   width="2.05056"
   y="100.307"
   x="228.112"
   class="fil1"
   style="fill:#ffffff" />

  <rect
   id="rect4754"
   height="2.05056"
   width="2.05056"
   y="101.845"
   x="225.548"
   class="fil1"
   style="fill:#ffffff" />

  <rect
   id="rect4756"
   height="2.05056"
   width="2.05056"
   y="104.921"
   x="226.061"
   class="fil1"
   style="fill:#ffffff" />

  <rect
   id="rect4758"
   height="2.05056"
   width="2.05056"
   y="108.766"
   x="222.985"
   class="fil1"
   style="fill:#ffffff" />

  <rect
   id="rect4760"
   height="2.05056"
   width="2.05056"
   y="112.354"
   x="220.935"
   class="fil1"
   style="fill:#ffffff" />

  <rect
   id="rect4762"
   height="2.05056"
   width="2.05056"
   y="121.838"
   x="218.11501"
   class="fil1"
   style="fill:#ffffff" />

  <rect
   id="rect4764"
   height="2.05056"
   width="2.05056"
   y="117.737"
   x="220.166"
   class="fil1"
   style="fill:#ffffff" />

  <rect
   id="rect4766"
   height="2.05056"
   width="2.05056"
   y="96.205902"
   x="229.39301"
   class="fil1"
   style="fill:#ffffff" />

  <rect
   id="rect4768"
   height="2.05056"
   width="2.05056"
   y="104.408"
   x="223.242"
   class="fil1"
   style="fill:#ffffff" />

  <rect
   id="rect4770"
   height="2.05056"
   width="2.05056"
   y="124.914"
   x="215.039"
   class="fil1"
   style="fill:#ffffff" />

  <rect
   id="rect4772"
   height="2.05056"
   width="2.05056"
   y="128.502"
   x="214.01401"
   class="fil1"
   style="fill:#ffffff" />

  <rect
   id="rect4774"
   height="2.05056"
   width="2.05056"
   y="135.16701"
   x="333.45901"
   class="fil1"
   style="fill:#ffffff" />

  <rect
   id="rect4776"
   height="2.05056"
   width="2.05056"
   y="86.722"
   x="381.647"
   class="fil1"
   style="fill:#ffffff" />

  <rect
   id="rect4778"
   height="2.05056"
   width="2.05056"
   y="141.31799"
   x="329.871"
   class="fil1"
   style="fill:#ffffff" />

  <rect
   id="rect4780"
   height="2.05056"
   width="2.05056"
   y="89.0289"
   x="156.43401"
   class="fil1"
   style="fill:#ffffff" />

  <rect
   id="rect4782"
   height="2.05056"
   width="2.05056"
   y="84.789497"
   x="151.17"
   class="fil1"
   style="fill:#ffffff" />

  <rect
   id="rect4784"
   height="2.05056"
   width="2.05056"
   y="81.851898"
   x="144.38699"
   class="fil1"
   style="fill:#ffffff" />

  <rect
   id="rect4786"
   height="2.05056"
   width="2.05056"
   y="81.595596"
   x="150.283"
   class="fil1"
   style="fill:#ffffff" />

  <rect
   id="rect4788"
   height="2.05056"
   width="2.05056"
   y="82.620903"
   x="154.384"
   class="fil1"
   style="fill:#ffffff" />

  <rect
   id="rect4790"
   height="2.05056"
   width="2.05056"
   y="96.462196"
   x="164.89301"
   class="fil1"
   style="fill:#ffffff" />

  <rect
   id="rect4792"
   height="2.05056"
   width="2.05056"
   y="99.794403"
   x="165.662"
   class="fil1"
   style="fill:#ffffff" />

  <rect
   id="rect4794"
   height="2.05056"
   width="2.05056"
   y="105.433"
   x="166.431"
   class="fil1"
   style="fill:#ffffff" />

  <rect
   id="rect4796"
   height="2.05056"
   width="2.05056"
   y="108.766"
   x="169.507"
   class="fil1"
   style="fill:#ffffff" />

  <rect
   id="rect4798"
   height="2.05056"
   width="2.05056"
   y="114.917"
   x="170.78799"
   class="fil1"
   style="fill:#ffffff" />

  <rect
   id="rect4800"
   height="2.05056"
   width="2.05056"
   y="89.541496"
   x="162.586"
   class="fil1"
   style="fill:#ffffff" />

  <rect
   id="rect4802"
   height="2.05056"
   width="2.05056"
   y="84.671501"
   x="157.459"
   class="fil1"
   style="fill:#ffffff" />

  <rect
   id="rect4804"
   height="2.05056"
   width="2.05056"
   y="85.953102"
   x="153.358"
   class="fil1"
   style="fill:#ffffff" />

  <rect
   id="rect4806"
   height="2.05056"
   width="2.05056"
   y="92.104797"
   x="162.073"
   class="fil1"
   style="fill:#ffffff" />

  <rect
   id="rect4808"
   height="2.05056"
   width="2.05056"
   y="84.671501"
   x="136.95399"
   class="fil1"
   style="fill:#ffffff" />

  <rect
   id="rect4810"
   height="2.05056"
   width="2.05056"
   y="81.595596"
   x="147.207"
   class="fil1"
   style="fill:#ffffff" />

  <rect
   id="rect4812"
   height="2.05056"
   width="2.05056"
   y="83.646202"
   x="129.008"
   class="fil1"
   style="fill:#ffffff" />

  <rect
   id="rect4814"
   height="2.05056"
   width="2.05056"
   y="87.234703"
   x="117.73"
   class="fil1"
   style="fill:#ffffff" />

  <rect
   id="rect4816"
   height="2.05056"
   width="2.05056"
   y="84.158798"
   x="132.34"
   class="fil1"
   style="fill:#ffffff" />

  <rect
   id="rect4818"
   height="2.05056"
   width="2.05056"
   y="81.595596"
   x="135.672"
   class="fil1"
   style="fill:#ffffff" />

  <rect
   id="rect4820"
   height="2.05056"
   width="2.05056"
   y="82.620903"
   x="141.56799"
   class="fil1"
   style="fill:#ffffff" />

  <rect
   id="rect4822"
   height="2.05056"
   width="2.05056"
   y="85.953102"
   x="121.062"
   class="fil1"
   style="fill:#ffffff" />

  <rect
   id="rect4824"
   height="2.05056"
   width="2.05056"
   y="96.718498"
   x="161.304"
   class="fil1"
   style="fill:#ffffff" />

  <rect
   id="rect4826"
   height="2.05056"
   width="2.05056"
   y="88.259903"
   x="111.322"
   class="fil1"
   style="fill:#ffffff" />

  <rect
   id="rect4828"
   height="2.05056"
   width="2.05056"
   y="89.285202"
   x="105.426"
   class="fil1"
   style="fill:#ffffff" />

  <rect
   id="rect4830"
   height="2.05056"
   width="2.05056"
   y="86.978302"
   x="159.76601"
   class="fil1"
   style="fill:#ffffff" />

  <rect
   id="rect4832"
   height="2.05056"
   width="2.05056"
   y="84.4151"
   x="124.138"
   class="fil1"
   style="fill:#ffffff" />

  <rect
   id="rect4834"
   height="2.05056"
   width="2.05056"
   y="86.722"
   x="126.445"
   class="fil1"
   style="fill:#ffffff" />

  <rect
   id="rect4836"
   height="2.05056"
   width="2.05056"
   y="93.386398"
   x="91.072601"
   class="fil1"
   style="fill:#ffffff" />

  <rect
   id="rect4838"
   height="2.05056"
   width="2.05056"
   y="92.361099"
   x="96.198997"
   class="fil1"
   style="fill:#ffffff" />

  <rect
   id="rect4840"
   height="2.05056"
   width="2.05056"
   y="95.180603"
   x="83.126602"
   class="fil1"
   style="fill:#ffffff" />

  <rect
   id="rect4842"
   height="2.05056"
   width="2.05056"
   y="96.718498"
   x="76.462303"
   class="fil1"
   style="fill:#ffffff" />

  <rect
   id="rect4844"
   height="2.05056"
   width="2.05056"
   y="96.462196"
   x="72.361198"
   class="fil1"
   style="fill:#ffffff" />

  <rect
   id="rect4846"
   height="2.05056"
   width="2.05056"
   y="91.079498"
   x="102.094"
   class="fil1"
   style="fill:#ffffff" />

 </g>
  </g>
</svg>
