<?xml version="1.0" encoding="UTF-8"?>
<!DOCTYPE svg PUBLIC "-//W3C//DTD SVG 1.1//EN" "http://www.w3.org/Graphics/SVG/1.1/DTD/svg11.dtd">
<!-- Creator: CorelDRAW -->
<svg xmlns="http://www.w3.org/2000/svg" xml:space="preserve" width="500px" height="532px" shape-rendering="geometricPrecision" text-rendering="geometricPrecision" image-rendering="optimizeQuality" fill-rule="evenodd" clip-rule="evenodd"
viewBox="0 0 500 532"
 xmlns:xlink="http://www.w3.org/1999/xlink"
 xmlns:svg="http://www.w3.org/2000/svg"
 version="1.0">
 <g id="Layer_x0020_1">
  <metadata id="CorelCorpID_0Corel-Layer"/>
  <path id="path1937" fill="#CCCCCC" stroke="black" stroke-width="1.98425" d="M1.06101 1.51257l497.778 -0.124158 -22.6233 327.43c-30.1289,269.824 -421.257,267.248 -451.729,1.03606l-23.4258 -328.342z"/>
  <path fill="white" d="M47.9809 170.062l0.704126 2.41909c-5.12334,6.36152 -2.23654,8.87953 2.29068,8.96741 29.2825,0.568063 45.6242,-31.1621 41.4054,-69.4851 -4.44955,-6.63676 -12.253,-14.9505 -10.9806,-18.7265l5.71635 -0.716599 1.38274 -10.6413 -8.17144 -10.2212c-7.25981,-1.0457 -11.5702,-24.5622 -2.33632,-16.2751 32.8082,-10.603 48.3537,-8.57934 72.3833,18.4998 22.6571,4.11647 36.5423,-7.13226 36.8138,-16.0203 0.250866,-8.21396 -1.1245,-9.75147 -11.0673,-9.13437 -1.72913,-0.684851 -2.66882,-1.76428 -2.81906,-3.2383 12.7879,-14.2469 4.01698,-23.0604 -8.87925,-22.7041 -10.0304,0.276945 -21.7315,4.79396 -30.4169,17.1536 -4.22079,0.793985 -5.67922,-0.384945 -4.37528,-3.53736 7.32615,-5.25062 12.3755,-7.81909 14.1713,-11.6002 3.95093,-8.31941 -4.43339,-14.5579 -14.8615,-11.9458 -7.94495,1.98992 -16.7349,9.84983 -25.3089,18.6474 4.30611,-19.6016 -7.07244,-21.151 -27.9207,10.4443 -5.89011,-0.107433 -10.6946,1.95534 -15.0052,5.00485 -15.3187,0.189921 -23.1398,5.11455 -23.4635,14.7739 15.1461,-0.154772 26.5921,3.39052 29.8984,15.0752 11.7301,-3.11783 12.6439,7.95232 12.403,9.88243 -0.490961,3.93336 -9.98079,4.41808 -11.272,-1.95534 -15.3524,-13.2171 -29.7675,-13.3141 -43.541,-4.43509 -1.29657,4.07792 -0.620221,6.18293 2.02932,6.31503 13.0473,-5.13043 23.3323,-4.34268 30.856,2.36353 -6.84567,2.44687 -10.5344,7.26152 -11.0659,14.4428 11.6847,-6.93496 20.9021,-8.1961 24.6937,3.024 -4.99635,22.2622 -30.2176,29.1688 -34.971,40.051 -7.9801,18.2687 -2.66514,36.7778 11.7077,23.5724z"/>
  <path fill="#F00000" d="M46.9871 169.068l0.704126 2.41909c-5.12334,6.36152 -2.23654,8.87953 2.29068,8.96741 29.2825,0.568063 45.6242,-31.1621 41.4054,-69.4851 -4.44955,-6.63676 -12.253,-14.9505 -10.9806,-18.7265l5.71635 -0.716599 1.38274 -10.6413 -8.17144 -10.2212c-7.25981,-1.0457 -11.5702,-24.5622 -2.33632,-16.2751 32.8082,-10.603 48.3537,-8.57934 72.3833,18.4998 22.6571,4.11647 36.5423,-7.13226 36.8138,-16.0203 0.250866,-8.21396 -1.1245,-9.75147 -11.0673,-9.13437 -1.72913,-0.684851 -2.66882,-1.76428 -2.81906,-3.2383 12.7879,-14.2469 4.01698,-23.0604 -8.87925,-22.7041 -10.0304,0.276945 -21.7315,4.79396 -30.4169,17.1536 -4.22079,0.793985 -5.67922,-0.384945 -4.37528,-3.53736 7.32615,-5.25062 12.3755,-7.81909 14.1713,-11.6002 3.95093,-8.31941 -4.43339,-14.5579 -14.8615,-11.9458 -7.94495,1.98992 -16.7349,9.84983 -25.3089,18.6474 4.30611,-19.6016 -7.07244,-21.151 -27.9207,10.4443 -5.89011,-0.107433 -10.6946,1.95534 -15.0052,5.00485 -15.3187,0.189921 -23.1398,5.11455 -23.4635,14.7739 15.1461,-0.154772 26.5921,3.39052 29.8984,15.0752 11.7301,-3.11783 12.6439,7.95232 12.403,9.88243 -0.490961,3.93336 -9.98079,4.41808 -11.272,-1.95534 -15.3524,-13.2171 -29.7675,-13.3141 -43.541,-4.43509 -1.29657,4.07792 -0.620221,6.18293 2.02932,6.31503 13.0473,-5.13043 23.3323,-4.34268 30.856,2.36353 -6.84567,2.44687 -10.5344,7.26152 -11.0659,14.4428 11.6847,-6.93496 20.9021,-8.1961 24.6937,3.024 -4.99635,22.2622 -30.2176,29.1688 -34.971,40.051 -7.9801,18.2687 -2.66514,36.7778 11.7077,23.5724z"/>
  <path fill="#FFC8C8" d="M74.5093 110.768c-3.46847,20.9342 -24.5523,32.2115 -34.6246,42.0231 2.92706,-5.87339 10.2492,-13.1318 18.2787,-21.5252 6.05311,-6.3275 9.62731,-3.54189 16.346,-20.4979z"/>
  <path fill="#8C0000" d="M97.8625 381.841l315.599 0 0 56.8471c0,2.64217 -5.68574,9.47452 -11.3298,9.47452 -17.4971,0 -29.0514,-17.1726 -44.7103,-17.1726 -15.6589,0 -32.2387,18.3569 -49.2463,18.3569 -17.0076,0 -35.1698,-20.1334 -52.7993,-20.1334 -17.6295,0 -35.0949,21.3177 -52.3874,21.3177 -17.2925,0 -32.7079,-20.7255 -47.8162,-20.7255 -15.1084,0 -31.4929,18.949 -41.6503,18.949 -10.1574,0 -9.14599,-0.922678 -15.6597,-4.73726l0 -62.1766z"/>
  <path fill="#FFC8C8" d="M43.1399 75.5516c-5.12958,1.87427 -10.6537,3.74854 -16.5725,5.62281 3.94583,-4.63635 9.46999,-6.51062 16.5725,-5.62281z"/>
  <ellipse fill="#FFC8C8" cx="70.958" cy="92.124" rx="1.77562" ry="1.18375"/>
  <path fill="#FFC8C8" d="M53.4977 49.2132c-1.98822,1.15597 -3.97673,1.72035 -5.96523,2.87632 -2.25298,1.30989 -4.50681,3.21222 -6.76007,4.52211 2.26885,-4.78403 6.51033,-7.34882 12.7253,-7.39843z"/>
  <path fill="#FFC8C8" d="M73.9174 45.07c-3.55125,-0.0986457 -7.10249,0.591874 -10.6537,2.07156 1.97291,-4.24177 5.52416,-4.93229 10.6537,-2.07156z"/>
  <path fill="#FFC8C8" d="M99.9599 21.3951c0.355181,2.052 -3.4988,1.99928 -6.51062,2.3675 2.17021,-2.57216 4.34041,-4.54904 6.51062,-2.3675z"/>
  <path fill="#FFC8C8" d="M136.952 16.3641c-1.38104,1.0851 -7.20114,-0.789166 -15.6847,1.47969 8.38489,-6.41197 13.6131,-6.9052 15.6847,-1.47969z"/>
  <path fill="#FFC8C8" d="M153.82 26.1301c-3.99515,3.6995 -8.53285,6.85616 -13.3172,9.76593 2.71247,-5.6727 6.65774,-9.61852 13.3172,-9.76593z"/>
  <path fill="white" d="M91.2634 112.087c-4.44955,-6.63676 -13.413,-16.6904 -12.1405,-20.4664l6.35103 -0.523559 1.61802 -9.96435 -8.17144 -9.93119c-7.25981,-1.0457 -12.1501,-23.1123 -2.91628,-14.8252 32.8082,-10.603 48.3537,-8.57934 72.3833,18.4998 25.7088,24.7482 47.1725,56.2388 91.3618,54.0156 -5.17266,9.61626 -17.117,11.418 -30.9572,11.0316 7.50926,6.40489 17.3914,8.46 28.8972,7.53874 0.076252,3.64252 -2.52142,5.86432 -5.78665,8.1686 14.8623,18.2407 37.3014,9.97994 37.1892,-2.74677 -0.252567,-28.605 -47.7338,-26.8149 -52.49,-69.6841 -1.56983,-14.1517 39.3721,-52.6332 102.939,-51.0863 61.9674,1.50803 122.613,36.5258 162.965,-4.34495 8.99093,41.0003 -31.2599,63.7892 -121.503,40.2696l-0.360567 2.12343c76.7784,15.6447 82.9537,48.6139 119.436,49.3209 -3.14788,10.9621 -14.497,15.804 -30.7999,16.0248 11.7553,62.9615 -12.4175,101.165 -43.3134,114.263 -0.336756,-1.07887 -0.340725,-2.4908 -0.0110551,-4.23525 24.3893,-27.3631 8.64851,-115.296 -51.6243,-130.006l-0.233858 2.31449c67.5426,19.3646 80.3461,139.18 7.50898,154.601 -1.21011,-2.72863 -2.16907,-5.54145 -1.37225,-8.93821 30.9762,-29.8724 23.7892,-87.537 -21.403,-109.248l-0.0637796 2.12315c33.2133,24.8567 38.5815,61.3673 14.6069,96.5472 -6.48511,-4.81522 -11.7215,-10.1299 -17.2074,-15.944 -0.144567,-7.21531 -1.95421,-15.1795 -7.92511,-21.8945l0.249449 13.9348c-32.8581,-17.2279 -60.4403,-25.873 -90.98,-33.4009 63.5451,19.5959 106.552,40.9272 119.527,73.4525 8.44328,21.1657 10.3425,62.6865 -7.78054,64.7348 -0.622772,-20.6204 -10.7147,-36.8688 -28.6506,-49.4958 2.23427,22.1352 -6.98032,35.1119 -21.3985,43.9254 -0.986741,-1.75493 -1.72233,-3.76073 -0.702709,-7.52089 12.6377,-13.7157 3.98098,-27.5015 -13.1264,-39.062l-9.36284 1.53071c-2.33603,21.5805 -27.7722,31.809 -40.8422,20.5112 11.2944,-2.61751 10.3521,-5.73421 9.16016,-10.8488 -69.0509,18.5947 -133.996,-26.9623 -137.614,-69.0546 -24.9364,-15.4942 -13.6613,-77.9375 -9.62845,-107.167l-5.8269 -4.54224z"/>
  <path fill="black" d="M91.3873 110.969c-4.44955,-6.63676 -12.253,-14.9505 -10.9806,-18.7265l6.06104 -0.523559 1.03805 -10.8343 -8.17144 -10.2212c-7.25981,-1.0457 -11.5702,-24.5622 -2.33632,-16.2751 32.8082,-10.603 48.3537,-8.57934 72.3833,18.4998 25.7088,24.7482 47.1725,56.2388 91.3618,54.0156 -5.17266,9.61626 -17.117,11.418 -30.9572,11.0316 7.50926,6.40489 17.3914,8.46 28.8972,7.53874 0.076252,3.64252 -2.52142,5.86432 -5.78665,8.1686 14.8623,18.2407 37.3014,9.97994 37.1892,-2.74677 -0.252567,-28.605 -47.7338,-26.8149 -52.49,-69.6841 -1.56983,-14.1517 39.3721,-52.6332 102.939,-51.0863 61.9674,1.50803 122.613,36.5258 162.965,-4.34495 8.99093,41.0003 -31.2599,63.7892 -121.503,40.2696l-0.360567 2.12343c76.7784,15.6447 82.9537,48.6139 119.436,49.3209 -3.14788,10.9621 -14.497,15.804 -30.7999,16.0248 11.7553,62.9615 -12.4175,101.165 -43.3134,114.263 -0.336756,-1.07887 -0.340725,-2.4908 -0.0110551,-4.23525 24.3893,-27.3631 8.64851,-115.296 -51.6243,-130.006l-0.233858 2.31449c67.5426,19.3646 80.3461,139.18 7.50898,154.601 -1.21011,-2.72863 -2.16907,-5.54145 -1.37225,-8.93821 30.9762,-29.8724 23.7892,-87.537 -21.403,-109.248l-0.0637796 2.12315c33.2133,24.8567 38.5815,61.3673 14.6069,96.5472 -6.48511,-4.81522 -11.7215,-10.1299 -17.2074,-15.944 -0.144567,-7.21531 -1.95421,-15.1795 -7.92511,-21.8945l0.249449 13.9348c-32.8581,-17.2279 -60.4403,-25.873 -90.98,-33.4009 63.5451,19.5959 106.552,40.9272 119.527,73.4525 8.44328,21.1657 10.3425,62.6865 -7.78054,64.7348 -0.622772,-20.6204 -10.7147,-36.8688 -28.6506,-49.4958 2.23427,22.1352 -6.98032,35.1119 -21.3985,43.9254 -0.986741,-1.75493 -1.72233,-3.76073 -0.702709,-7.52089 12.6377,-13.7157 3.98098,-27.5015 -13.1264,-39.062l-9.36284 1.53071c-2.33603,21.5805 -27.7722,31.809 -40.8422,20.5112 11.2944,-2.61751 10.3521,-5.73421 9.16016,-10.8488 -69.0509,18.5947 -133.996,-26.9623 -137.614,-69.0546 -24.9364,-15.4942 -13.6613,-77.9375 -9.62845,-107.167l-6.69685 -3.67229z"/>
  <path fill="white" d="M262.998 303.237c7.88145,-3.66066 13.1618,-10.3952 14.6412,-21.6221l6.69855 -1.01906 9.56835 14.9037 0.159874 3.81572c-12.6164,9.52725 -21.7403,20.2184 -27.3716,32.0743 16.3993,-2.52114 27.597,1.81474 31.1922,16.1736l-2.42504 1.94712c-12.5867,-11.2969 -45.2676,-3.94129 -50.6509,14.8107 10.0417,-4.43509 15.4267,-5.08649 16.1558,-1.95449 8.42485,-11.3324 29.1722,-5.82917 17.661,17.9856l-3.18416 0.0754016c-0.072567,-13.3274 -11.1314,-15.5591 -12.003,-0.146268l-53.0456 -0.0544252c0.0765355,-5.59701 -7.34117,-4.93654 -7.84574,0.0175748l-12.6913 -0.0552756c-3.27543,-4.38407 -6.98712,-7.67679 -9.82574,-6.82243 -8.21282,2.15802 -9.22224,-0.122457 -6.95736,-7.27682 -9.85975,-2.86469 -12.2615,5.00287 -4.14936,14.2172l-7.96961 0.0450709c-9.77216,-10.118 -6.21496,-26.1323 0.466583,-29.4574 24.7913,-12.337 25.8602,13.7642 53.7526,13.6517 15.4355,-0.0623622 31.7367,-41.8915 47.8233,-61.3094z"/>
  <path fill="#F00000" d="M94.2625 379.235l318.581 0 0 56.8471c0,2.64217 -8.66722,9.47452 -14.3113,9.47452 -17.4971,0 -29.0514,-17.1726 -44.7103,-17.1726 -15.6589,0 -32.2387,18.3569 -49.2463,18.3569 -17.0076,0 -35.1698,-20.1334 -52.7993,-20.1334 -17.6295,0 -35.0949,21.3177 -52.3874,21.3177 -17.2925,0 -32.7079,-20.7255 -47.8162,-20.7255 -15.1084,0 -31.4929,18.949 -41.6503,18.949 -10.1574,0 -9.14599,-0.922678 -15.6597,-4.73726l0 -62.1766z"/>
  <rect fill="white" x="98.4076" y="381.603" width="310.883" height="2.96079"/>
  <path fill="#F00000" d="M262.004 302.243c7.88145,-3.66066 13.1618,-10.3952 14.6412,-21.6221l6.69855 -1.01906 9.56835 14.9037 0.159874 3.81572c-12.6164,9.52725 -21.7403,20.2184 -27.3716,32.0743 16.3993,-2.52114 27.597,1.81474 31.1922,16.1736l-2.42504 1.94712c-12.5867,-11.2969 -45.2676,-3.94129 -50.6509,14.8107 10.0417,-4.43509 15.4267,-5.08649 16.1558,-1.95449 8.42485,-11.3324 29.1722,-5.82917 17.661,17.9856l-3.18416 0.0754016c-0.072567,-13.3274 -11.1314,-15.5591 -12.003,-0.146268l-53.0456 -0.0544252c0.0765355,-5.59701 -7.34117,-4.93654 -7.84574,0.0175748l-12.6913 -0.0552756c-3.27543,-4.38407 -6.98712,-7.67679 -9.82574,-6.82243 -8.21282,2.15802 -9.22224,-0.122457 -6.95736,-7.27682 -9.85975,-2.86469 -12.2615,5.00287 -4.14936,14.2172l-7.96961 0.0450709c-9.77216,-10.118 -6.21496,-26.1323 0.466583,-29.4574 24.7913,-12.337 25.8602,13.7642 53.7526,13.6517 15.4355,-0.0623622 31.7367,-41.8915 47.8233,-61.3094z"/>
  <path fill="#FFC8C8" d="M262.223 311.405c2.69178,1.96441 -19.0622,31.4306 -29.9027,42.5622 10.1857,-13.7509 27.356,-43.8718 29.9027,-42.5622z"/>
  <path fill="#FFC8C8" d="M166.185 352.003c1.52787,2.32838 -6.1115,6.18435 -7.85764,12.8778 -1.52787,-4.72904 5.67496,-14.0417 7.85764,-12.8778z"/>
  <path fill="#8C0000" d="M292.912 294.505l0.159874 3.81572c-12.6164,9.52725 -21.7403,20.2184 -27.3716,32.0743 -3.58895,-9.34413 17.2681,-26.5459 27.2118,-35.89zm3.98041 52.0637l-2.42504 1.94712c-12.5867,-11.2969 -45.2676,-3.94129 -50.6509,14.8107 -1.17071,-19.8102 33.5826,-29.6161 53.0759,-16.7579z"/>
  <path fill="#8C0000" d="M175.128 47.7335c9.94281,-0.617103 11.3182,0.92041 11.0673,9.13437 -0.271559,8.88804 -14.1568,20.1368 -36.8138,16.0203 -0.562961,-0.634394 -1.12195,-1.25547 -1.67613,-1.86265 37.8468,4.07367 46.3958,-21.1507 27.4227,-23.292zm-2.81906 -3.2383c12.7879,-14.2469 4.01698,-23.0604 -8.87925,-22.7041 -10.0304,0.276945 -21.7315,4.79396 -30.4169,17.1536l1.57181 1.39039c11.7434,-23.326 61.3661,-23.9607 35.2301,0.466866l2.49421 3.69326zm-43.6714 -9.08788c7.32615,-5.25062 12.3755,-7.81909 14.1713,-11.6002 3.95093,-8.31941 -4.43339,-14.5579 -14.8615,-11.9458 -7.94495,1.98992 -16.7349,9.84983 -25.3089,18.6474l-0.902835 2.72381c37.7807,-39.4333 54.8465,-11.8619 24.5628,-0.887811l2.33915 3.06255zm-25.9498 -16.8177c-2.89276,-5.93178 -12.9855,-0.345543 -27.97,22.3634 -5.89011,-0.107433 -10.6946,1.95534 -15.0052,5.00485 -15.3187,0.189921 -23.1398,5.11455 -23.4635,14.7739 6.62627,-0.0674646 12.5444,0.573166 17.3826,2.29351 -2.60958,-1.64466 -7.29043,-4.47307 -14.9307,-4.93399 -0.493229,-4.73499 6.9052,-8.68082 22.1953,-11.8375 4.43906,-2.86073 9.66728,-4.14312 15.6847,-3.84718 4.55896,-7.34712 14.1491,-23.8683 26.1068,-23.817zm-49.7943 66.678c-7.07613,-4.09748 -16.1181,-3.9824 -27.1267,0.346394 -1.65572,-0.0824882 -2.54126,-0.935717 -2.6555,-2.55969 15.0568,-4.78602 24.984,-4.04816 29.7822,2.21329zm10.9585 12.4608c-4.65307,-1.76003 -10.9922,0.357732 -18.2951,4.69191 0.0827717,-1.12195 0.243213,-2.18636 0.480189,-3.19266 10.9885,-6.18151 13.5598,-2.89332 17.8149,-1.49924zm-28.5724 47.7669c4.75342,-10.8822 29.9747,-17.7888 34.971,-40.051 4.77666,9.69875 -11.3219,24.0361 -34.971,40.051zm11.7077 23.5724c-4.4915,4.12668 -8.09859,5.15651 -10.6917,4.06403 3.21846,-1.00942 6.68353,-2.26488 10.6917,-4.06403zm44.4002 -58.0986c4.21881,38.323 -12.1229,70.0532 -41.4054,69.4851 -4.52721,-0.0878741 -7.41402,-2.60589 -2.29068,-8.96741 -3.3001,9.89774 13.1426,9.33563 25.3361,-1.78895 12.2536,-11.1793 18.5559,-32.47 18.36,-58.7288z"/>
  <path fill="white" d="M127.482 62.2344c0.246331,24.3165 -16.1291,37.4369 -19.5319,41.7271 14.7969,-5.22822 21.3075,-19.1373 19.5319,-41.7271z"/>
  <path fill="white" d="M148.789 144.801c3.816,18.3084 28.3575,40.4447 62.4427,22.4912l-8.87811 -7.39843c12.0348,2.66343 22.8858,0.986457 32.5531,-5.03093l-1.77562 -1.47969c-11.1954,5.8218 -25.1042,6.61096 -44.9824,-1.77562 4.83364,5.72145 10.5551,10.2592 18.94,14.205 -27.2024,10.5934 -45.3039,0.752882 -58.2996,-21.0115z"/>
  <path fill="white" d="M177.199 176.762c-26.195,-1.82636 -40.21,15.2751 -24.3519,43.3588 25.4489,45.0681 122.844,27.7433 169.065,66.138l-0.295937 -4.14312c-49.483,-36.4927 -139.183,-24.6096 -162.54,-59.7946 -17.8447,-26.8815 -5.84618,-44.7316 18.123,-43.1915l0 -2.3675z"/>
  <g id="_48029064">
   <path id="_48284072" fill="white" d="M97.691 53.6522c4.15247,-0.788599 7.59544,3.4424 6.80655,6.80655 -0.788882,3.36416 -3.04838,6.01711 -6.80655,6.80655 -3.75818,0.789449 -7.20114,-3.4424 -6.80655,-6.80655 0.394583,-3.36416 2.65408,-6.01796 6.80655,-6.80655z"/>
   <circle id="_47958520" fill="black" cx="97.543" cy="60.6067" r="3.99515"/>
  </g>
 </g>
</svg>
