<?xml version="1.0" encoding="UTF-8"?>
<!DOCTYPE svg PUBLIC "-//W3C//DTD SVG 1.1//EN" "http://www.w3.org/Graphics/SVG/1.1/DTD/svg11.dtd">
<!-- Creator: CorelDRAW -->
<svg xmlns="http://www.w3.org/2000/svg" xml:space="preserve" width="500px" height="585px" shape-rendering="geometricPrecision" text-rendering="geometricPrecision" image-rendering="optimizeQuality" fill-rule="evenodd" clip-rule="evenodd"
viewBox="0 0 500 585"
 xmlns:xlink="http://www.w3.org/1999/xlink"
 xmlns:svg="http://www.w3.org/2000/svg"
 version="1.0">
 <g id="Layer_x0020_1">
  <metadata id="CorelCorpID_0Corel-Layer"/>
  <path id="path1937" fill="#0057F0" stroke="#0057F0" stroke-width="0.992126" d="M0.586205 1.13046l498.86 -0.000566929 -11.8488 360.982c-25.7783,297.218 -453.997,293.614 -477.654,0.0428032l-9.3566 -361.024z"/>
  <path fill="black" d="M152.385 366.592l199.337 -1.55622c3.78284,-39.2278 20.0174,-77.0259 43.7233,-116.31 1.44198,-8.74545 -2.51036,-13.1326 -8.1224,-17.8313 1.63219,-8.24996 -3.01351,-14.2163 -10.5126,-19.1449 0.43115,-8.41862 -3.28706,-14.7617 -11.1549,-19.0298 -1.08595,-11.4681 -6.73626,-17.9558 -16.9515,-19.4633 -1.51739,-12.1782 -6.97663,-18.4416 -15.1333,-20.6595 0.0496063,-9.03657 -5.03688,-13.5065 -12.4583,-15.9004 0.47537,-13.1978 -7.60989,-17.263 -19.5868,-17.1771 -0.80589,-9.44646 -5.24381,-15.7796 -17.672,-15.2637 -0.752882,-7.63427 -2.96334,-13.8104 -15.3805,-9.7784l-5.21292 -4.28003c-1.28721,-3.68362 -2.99055,-7.15833 -7.61018,-9.1749l0.0977953 -8.32848c4.65931,0.551906 10.4613,4.01074 16.782,7.88457l-0.0306142 -26.9907c-5.59389,3.5674 -10.7728,5.4754 -15.5367,5.72344 0.599244,-5.53351 3.4818,-11.0665 7.40183,-16.5991l-30.4316 0.296788c3.92003,5.53266 5.29739,11.3913 5.89663,16.9248 -4.76391,-0.248032 -10.2541,-1.84479 -15.8479,-5.41219l0.903119 26.3682c6.3207,-3.87383 11.1889,-7.64391 15.8482,-8.19582l0.0977953 11.1297c-4.61962,2.01657 -4.14425,3.93506 -5.43147,7.61868l-7.39163 3.03506c-9.00567,2.22973 -8.22473,6.13191 -10.6705,11.9571 -12.013,-0.100913 -15.8281,4.67575 -17.0496,13.7075 -11.6138,1.00375 -17.1048,4.44643 -17.0969,16.2434 -7.88826,0.992693 -14.1157,7.95232 -13.7033,18.0791 -8.1567,2.21783 -12.0597,7.23629 -13.5771,19.4145 -12.8611,3.53055 -14.2574,9.29197 -15.3953,21.3307 -9.7869,3.59292 -13.6089,7.03049 -12.7111,18.7186 -7.49878,3.47556 -12.767,8.09292 -11.1351,18.2112 -5.61203,4.69871 -8.63065,10.9534 -7.18867,19.6988 20.9826,40.8402 36.0363,77.2895 42.9052,114.754z"/>
  <path fill="black" d="M54.6361 90.2271l45.4624 11.2099 17.4376 54.1812c-34.2958,141.547 -65.0353,164.8 52.1674,268.706l6.99591 -60.0769 46.0851 0 -15.5693 90.3019 -45.4624 19.3059c-60.02,-42.3227 -101.486,-91.7816 -118.327,-150.711 1.83799,-51.2989 8.53115,-104.806 28.6475,-164.412l-17.4376 -68.5049z"/>
  <path fill="black" d="M449.621 84.6247l-53.2435 20.236 -14.0139 60.0948c21.9413,70.426 34.2357,111.381 36.3464,140.728 3.01266,41.889 -24.1665,61.3208 -83.99,120.529l-9.34101 -61.966 -48.8863 0.311244 18.3705 90.3019 47.3298 19.3059c61.5762,-62.5536 123.585,-111.079 119.26,-161.916 -1.83799,-51.2989 -17.5572,-95.1571 -33.6274,-158.187l21.795 -69.4386z"/>
  <path fill="#BF9F4F" stroke="black" stroke-width="0.992126" d="M149.085 364.391l199.337 -1.55622c3.78284,-39.2278 20.0174,-75.9257 43.7233,-115.21 1.44198,-8.74545 -2.51036,-13.1326 -8.1224,-17.8313 1.63219,-8.24996 -3.01351,-14.2163 -10.5126,-19.1449 0.43115,-8.41862 -3.28706,-14.7617 -11.1549,-19.0298 -1.08595,-11.4681 -6.73626,-17.9558 -16.9515,-19.4633 -1.51739,-12.1782 -6.97663,-18.4416 -15.1333,-20.6595 0.0496063,-9.03657 -5.03688,-13.5065 -12.4583,-15.9004 0.47537,-13.1978 -7.60989,-17.263 -19.5868,-17.1771 -0.80589,-9.44646 -5.24381,-15.7796 -17.672,-15.2637 -0.752882,-7.63427 -2.96334,-13.8104 -15.3805,-9.7784l-5.21292 -4.28003c-1.28721,-3.68362 -2.99055,-7.15833 -7.61018,-9.1749l0.0977953 -8.32848c4.65931,0.551906 10.4613,4.01074 16.782,7.88457l-0.0306142 -26.9907c-5.59389,3.5674 -10.7728,5.4754 -15.5367,5.72344 0.599244,-5.53351 3.4818,-11.0665 7.40183,-16.5991l-30.4316 0.296788c3.92003,5.53266 5.29739,11.3913 5.89663,16.9248 -4.76391,-0.248032 -10.2541,-1.84479 -15.8479,-5.41219l0.903119 26.3682c6.3207,-3.87383 11.1889,-7.64391 15.8482,-8.19582l0.0977953 11.1297c-4.61962,2.01657 -4.14425,3.93506 -5.43147,7.61868l-7.39163 3.03506c-9.00567,2.22973 -8.22473,6.13191 -10.6705,11.9571 -12.013,-0.100913 -15.8281,4.67575 -17.0496,13.7075 -11.6138,1.00375 -17.1048,4.44643 -17.0969,16.2434 -7.88826,0.992693 -14.1157,7.95232 -13.7033,18.0791 -8.1567,2.21783 -12.0597,7.23629 -13.5771,19.4145 -12.8611,3.53055 -14.2574,9.29197 -15.3953,21.3307 -9.7869,3.59292 -13.6089,7.03049 -12.7111,18.7186 -7.49878,3.47556 -12.767,8.09292 -11.1351,18.2112 -5.61203,4.69871 -8.63065,10.9534 -7.18867,19.6988 20.9826,40.8402 36.0363,76.1894 42.9052,113.654z"/>
  <path fill="#CCCCCC" d="M283.63 157.632l-0.622772 160.052 74.1099 0c2.69858,-10.7952 7.0577,-21.5898 13.0782,-32.3841 -25.2227,-51.6393 -54.7005,-92.6385 -86.5653,-127.668z"/>
  <path fill="#CCCCCC" d="M130.428 287.791c18.5791,-49.3546 48.0566,-93.2596 86.5653,-132.65l0.622772 162.543 -70.996 0.622772 -16.1921 -30.5158z"/>
  <path fill="none" stroke="white" stroke-width="0.992126" d="M292.018 248.262c1.55622,-3.11244 5.80989,-3.73493 8.09235,0"/>
  <path fill="none" stroke="white" stroke-width="0.992126" d="M212.806 260.867c7.28816,-9.07144 1.76287,-15.9888 -3.68816,-15.838 -4.40221,0.12189 -4.50085,10.7493 1.66507,6.81194"/>
  <path fill="white" d="M160.362 260.089c-6.95112,-7.57361 -10.7924,-3.23235 -10.8544,-0.27241 -0.142583,6.78218 3.02145,4.11109 4.47392,4.00734l0.311244 2.02309c-10.4494,0.663307 -4.69389,-19.0721 6.06926,-5.75802z"/>
  <path fill="none" stroke="white" stroke-width="0.708662" d="M174.679 284.833c-5.49865,-5.34303 0.829985,-11.931 6.38051,-7.15862"/>
  <path fill="none" stroke="#4F2900" stroke-width="1.98425" d="M128.615 288.413c21.5796,-54.1565 50.6291,-99.1832 87.1484,-135.08"/>
  <path fill="none" stroke="black" stroke-width="1.41732" d="M198.022 301.174c-5.77729,11.4772 9.72681,11.1044 10.3686,2.37345 0.307276,-4.1811 -5.56214,-8.8903 -10.0358,-8.90674 -4.71572,-0.0172913 -8.24117,1.32888 -16.2791,1.14123 -13.8634,-0.323433 -26.053,-12.8869 -26.0039,-26.1525 0.0935434,-25.2116 17.3557,-25.6703 22.0983,-25.6368 13.6627,0.0960945 21.7245,14.8003 21.8421,18.8966 0.349229,12.1496 -10.2249,16.7749 -14.6897,16.674 -9.44816,-0.214016 -9.60832,-7.35024 -9.62901,-10.2237 -0.0685985,-9.43541 9.73503,-12.1825 14.5474,-3.64734"/>
  <path fill="none" stroke="black" stroke-width="1.41732" d="M146.667 292.459c3.82564,-2.34284 7.35648,3.01805 7.93389,6.67815 0.348378,2.20762 -3.46195,5.06155 -5.436,5.00145 -5.56016,-0.169512 -9.00426,-1.35014 -8.39566,-10.6515 0.28148,-4.30441 4.57569,-10.8309 19.6245,-10.177"/>
  <path fill="none" stroke="black" stroke-width="1.41732" d="M173.745 304.286c2.88028,-3.09345 7.6184,-0.318614 7.78366,1.78243 0.201827,2.56819 -0.540851,5.72174 -4.81436,5.76085 -1.47742,0.0136063 -5.43969,-2.42022 -5.74583,-7.55178 -0.244914,-4.10287 3.13342,-8.32904 6.98032,-8.95437"/>
  <path fill="none" stroke="black" stroke-width="1.41732" d="M150.713 262.579c-3.87383,1.71581 -5.05616,1.34787 -5.39603,-4.50085 -0.189638,-3.26381 2.86611,-6.04602 6.31758,-5.56951 2.97184,0.410457 5.54429,2.64501 5.40596,7.91519"/>
  <path fill="none" stroke="black" stroke-width="1.41732" d="M175.613 279.698c-3.05632,3.47499 -7.1589,3.75137 -7.30148,-2.3366 -0.0504567,-2.15575 3.59603,-6.34507 8.00844,-3.39222"/>
  <path fill="none" stroke="white" stroke-width="0.510236" d="M180.904 212.002c-1.97121,20.3346 15.0435,15.9253 14.6285,4.51304"/>
  <path fill="none" stroke="black" stroke-width="1.41732" d="M207.048 249.507c-1.70674,1.16249 -4.63833,2.00466 -5.72542,-3.15638 -0.293669,-1.39436 2.93811,-3.90643 3.97843,-3.92882 3.62041,-0.0788032 7.34599,4.44416 6.98797,8.07591 -0.591024,5.995 -5.97005,9.53944 -12.8455,9.9516"/>
  <path fill="none" stroke="black" stroke-width="1.41732" d="M191.797 214.025c0.873922,7.78734 -1.74189,10.4842 -5.55903,10.5962 -6.36605,0.18652 -10.0998,-3.80381 -9.73985,-11.4917 0.292536,-6.24671 5.13808,-11.7454 11.2873,-12.0793 7.9115,-0.429733 14.743,10.9877 15.0469,16.2734 0.474236,8.24911 -5.17295,24.753 -24.6623,26.6684"/>
  <path fill="none" stroke="black" stroke-width="1.41732" d="M205.492 181.033c-6.91739,1.2926 -3.36388,6.97748 1.23335,6.94715 2.83521,-0.0187087 6.92589,-2.7618 6.89641,-6.47462 -0.0532914,-6.65235 -3.8778,-8.14394 -6.5177,-7.89733 -6.23991,0.582803 -13.1794,8.85941 -13.2837,14.739 -0.135213,7.62832 3.52743,16.4959 8.24797,25.3664"/>
  <path fill="none" stroke="white" stroke-width="0.708662" d="M209.538 300.24c3.63232,4.46627 3.42539,9.34526 -1.24498,12.1385"/>
  <path fill="white" d="M169.076 249.818c-14.836,11.101 -6.95112,27.182 -5.29115,35.1706 -7.31679,-5.13553 -7.21333,-28.2716 5.29115,-35.1706z"/>
  <path fill="none" stroke="white" stroke-width="0.510236" d="M181.526 266.159c-1.14123,1.19254 -1.65997,2.5937 -1.55622,4.2018"/>
  <path fill="white" d="M207.36 218.849c-1.81559,13.6429 -6.12114,20.4384 -18.9859,25.9889l1.86747 1.4006c11.9112,-5.27811 17.2415,-14.6412 17.1184,-27.3895z"/>
  <path fill="none" stroke="white" stroke-width="0.708662" d="M201.913 206.244c-5.44706,-12.8648 -3.63118,-22.6171 5.44677,-29.257"/>
  <path fill="white" d="M196.31 280.943c6.69175,-8.09235 7.46986,-10.4267 5.6024,-19.2971l2.33433 0c1.77704,7.43726 -0.58337,13.9343 -7.93673,19.2971z"/>
  <polygon fill="#0057F0" stroke="black" stroke-width="0.992126" points="247.821,118.784 238.484,137.77 249.378,156.756 259.96,136.837 "/>
  <polygon fill="black" points="247.821,118.784 258.092,137.148 249.378,156.756 259.96,136.837 "/>
  <path fill="white" d="M247.821 118.784l-9.33733 18.9859 3.95405 6.58885 0.40337 -4.72139 4.3835 -0.19389 2.06277 9.01815 0.74126 -10.372 -2.61723 -10.3938 -0.0697323 8.88265 -3.87808 -0.364819c-0.181701,-4.87588 1.63417,-10.8935 4.35742,-17.4297z"/>
  <polygon fill="black" points="249.066,150.998 253.579,137.926 247.354,127.188 250,137.926 252.179,136.681 253.424,137.926 252.49,141.038 249.689,140.26 "/>
  <polygon fill="#0057F0" stroke="black" stroke-width="0.992126" points="247.821,172.784 238.484,191.77 249.378,210.756 259.96,190.837 "/>
  <polygon fill="black" points="247.821,172.784 258.092,191.148 249.378,210.756 259.96,190.837 "/>
  <path fill="white" d="M247.821 172.784l-9.33733 18.9859 3.95405 6.58885 0.40337 -4.72139 4.3835 -0.19389 2.06277 9.01815 0.74126 -10.372 -2.61723 -10.3938 -0.0697323 8.88265 -3.87808 -0.364819c-0.181701,-4.87588 1.63417,-10.8935 4.35742,-17.4297z"/>
  <polygon fill="black" points="249.066,204.998 253.579,191.926 247.354,181.188 250,191.926 252.179,190.681 253.424,191.926 252.49,195.038 249.689,194.26 "/>
  <polygon fill="#0057F0" stroke="black" stroke-width="0.992126" points="247.821,226.785 238.484,245.77 249.378,264.756 259.96,244.837 "/>
  <path fill="white" d="M315.673 281.876c-8.71484,-6.63988 -10.3748,-14.1097 -4.97991,-22.4096 -7.05487,4.97991 -5.3949,20.2309 4.97991,22.4096z"/>
  <polygon fill="black" points="247.821,226.785 258.092,245.148 249.378,264.756 259.96,244.837 "/>
  <path fill="white" d="M344.929 261.646c3.6275,10.5846 2.58718,19.7161 -1.24498,26.1445l7.46986 -4.04618 -3.11244 -0.311244c1.86747,-9.75232 0.829985,-17.0147 -3.11244,-21.7871z"/>
  <path fill="white" d="M247.821 226.785l-9.33733 18.9859 3.95405 6.58885 0.40337 -4.72139 4.3835 -0.19389 2.06277 9.01815 0.74126 -10.372 -2.61723 -10.3938 -0.0697323 8.88265 -3.87808 -0.364819c-0.181701,-4.87588 1.63417,-10.8935 4.35742,-17.4297z"/>
  <polygon fill="black" points="249.066,258.998 253.579,245.926 247.354,235.188 250,245.926 252.179,244.681 253.424,245.926 252.49,249.038 249.689,248.26 "/>
  <path fill="none" stroke="white" stroke-width="0.992126" d="M348.042 307.087c-5.47285,-8.64936 1.68548,-14.9522 7.62548,-9.80419"/>
  <polygon fill="#0057F0" stroke="black" stroke-width="0.992126" points="247.821,277.185 238.484,296.17 249.378,315.156 259.96,295.237 "/>
  <path fill="white" d="M304.779 190.059c-6.63988,27.2857 -6.22489,42.9517 4.97991,48.8653 -9.75232,-12.0348 -10.7898,-22.8246 -3.11244,-32.3694l-2.17871 0 0.311244 -16.4959z"/>
  <polygon fill="black" points="247.821,277.185 258.092,295.548 249.378,315.156 259.96,295.237 "/>
  <path fill="white" d="M247.821 277.185l-9.33733 18.9859 3.95405 6.58885 0.40337 -4.72139 4.3835 -0.19389 2.06277 9.01815 0.74126 -10.372 -2.61723 -10.3938 -0.0697323 8.88265 -3.87808 -0.364819c-0.181701,-4.87588 1.63417,-10.8935 4.35742,-17.4297z"/>
  <path fill="none" stroke="white" stroke-width="0.992126" d="M289.217 190.993c5.7223,6.96841 15.3808,-0.905103 7.78111,-4.35742"/>
  <polygon fill="black" points="249.066,309.398 253.579,296.326 247.354,285.588 250,296.326 252.179,295.081 253.424,296.326 252.49,299.439 249.689,298.66 "/>
  <path fill="none" stroke="black" stroke-width="1.41732" d="M294.984 303.975c0.569764,7.83185 -9.73871,1.44652 -7.25613,-5.09641 1.48706,-3.91862 6.80826,-6.71244 13.4595,-6.41679 4.71033,0.209197 3.26069,1.50917 11.2992,1.45247 14.3053,-0.100913 33.2941,-8.4875 31.9176,-22.4175 -0.183402,-16.4971 -16.0702,-23.4904 -21.4759,-23.4581 -13.6621,0.0819213 -19.5457,7.01915 -19.6634,11.1155 -0.660473,14.017 5.55619,19.8873 10.021,19.7864 9.44816,-0.214016 8.98583,-7.66148 9.00652,-10.535 0.0595276,-8.28 -9.68004,-8.51585 -13.3024,-2.09112"/>
  <path fill="none" stroke="black" stroke-width="1.41732" d="M350.074 293.081c-5.07062,-3.27657 -8.29049,1.15087 -8.55638,6.05566 -0.121039,2.23143 5.01846,5.68375 6.99222,5.62394 5.55988,-0.169228 10.5596,-2.28416 9.95188,-11.5852 -0.281197,-4.30356 -1.77449,-12.3871 -16.8233,-11.7332"/>
  <path fill="none" stroke="white" stroke-width="0.708662" d="M300.11 259.467c-5.8218,-1.76145 -7.26945,-4.25225 -8.09235,-6.84737"/>
  <path fill="none" stroke="black" stroke-width="1.41732" d="M317.393 302.73c-2.88028,-3.09345 -5.7515,-0.940819 -5.91619,1.15994 -0.201543,2.56762 0.852378,4.78857 5.12561,4.82712 1.47685,0.0133228 5.44025,-1.17581 5.74583,-6.30681 0.244347,-4.1023 -2.19969,-8.32904 -6.04659,-8.95437"/>
  <path fill="none" stroke="black" stroke-width="1.41732" d="M346.961 259.467c6.07238,-0.426331 6.88763,-8.9263 -0.6103,-7.89166 -2.97128,0.40989 -4.29931,4.51247 -4.16098,9.78265"/>
  <path fill="none" stroke="black" stroke-width="1.41732" d="M295.729 245.106c0.293386,-1.39408 -2.62687,-2.97269 -3.66718,-2.99509 -3.62041,-0.0788032 -4.54451,2.88851 -4.18677,6.51969 0.590457,5.99471 9.08249,7.67197 15.9579,8.08413"/>
  <path fill="none" stroke="black" stroke-width="1.41732" d="M309.923 213.403c-7.41005,8.09859 1.43093,12.9747 5.24778,13.0861 6.36548,0.186236 7.60933,-5.67185 7.24989,-13.3591 -0.291969,-6.24614 -6.38363,-11.4347 -12.5323,-11.768 -7.91093,-0.429166 -14.144,10.046 -14.1131,15.3397 0.0595276,10.1163 11.4387,27.2435 27.1522,31.337"/>
  <path fill="none" stroke="black" stroke-width="1.41732" d="M291.871 182.278c6.91739,1.2926 3.05235,8.22189 -1.5446,8.19213 -2.83465,-0.0184252 -5.99216,-1.82806 -5.96268,-5.54088 0.0532914,-6.65235 6.36832,-9.07739 9.00766,-8.83106 6.23963,0.582237 7.57758,6.05849 7.68133,11.9378 0.134929,7.62775 -3.21619,14.006 -4.51304,25.0552"/>
  <path fill="none" stroke="white" stroke-width="0.708662" d="M321.275 206.555c5.34388,6.53613 7.83411,13.072 4.04618,19.6084"/>
  <path fill="none" d="M312.249 219.628c-0.311244,-0.207496 2.8012,-2.90495 3.42369,-1.55622"/>
  <line fill="none" stroke="white" stroke-width="0.992126" x1="324.076" y1="280.32" x2="325.321" y2= "278.453" />
  <path fill="white" d="M292.329 296.816l2.48995 2.17871c-2.02309,1.6081 -3.42369,3.21619 -4.66866,5.29115 0.25937,-2.5937 1.08935,-4.87644 2.17871,-7.46986z"/>
  <path fill="none" stroke="white" stroke-width="0.992126" d="M292.329 309.266c1.08907,1.97093 3.21591,2.07525 6.38051,0.311244"/>
  <path fill="none" stroke="white" stroke-width="0.992126" d="M316.918 310.355c2.85251,2.28246 5.08309,2.28246 6.69175,0"/>
  <path fill="white" d="M316.451 303.041l-0.778111 3.73493c1.91906,-0.311244 3.21591,-1.03748 3.89055,-2.17871l-3.11244 -1.55622z"/>
  <line fill="none" stroke="#4F2900" stroke-width="1.98425" x1="278.025" y1="152.027" x2="280.516" y2= "317.684" />
  <polygon fill="white" points="283.007,315.816 279.893,155.141 283.614,157.69 "/>
  <path fill="none" stroke="white" stroke-width="0.992126" d="M318.474 200.019c11.0486,13.1885 21.4223,28.1016 30.8132,45.4417"/>
  <circle fill="#0057F0" cx="188.685" cy="340.39" r="7.15862"/>
  <path fill="white" d="M189.93 340.39c0,3.75421 -4.22674,0.883843 -4.65676,6.29433 -2.23143,-1.21238 -3.74684,-3.57676 -3.74684,-6.29433 0,-3.45855 2.45452,-6.34536 5.71635,-7.0132 -2.24419,3.53651 2.68725,4.02492 2.68725,7.0132z"/>
  <path fill="black" stroke="black" stroke-width="0.992126" d="M187.129 344.437c4.25367,-2.48995 4.35742,-5.3949 0.311244,-8.71484 1.10353,0.105732 4.27521,1.4023 4.21881,4.67093 -0.0464882,2.7051 -3.84718,4.14879 -4.53005,4.04391z"/>
  <path fill="black" d="M193.746 335.329c1.29572,1.29572 2.09707,3.0858 2.09707,5.06183 0,3.95263 -3.2057,7.15862 -7.15862,7.15862 9.18454,-5.91364 5.69821,-7.84885 5.06155,-12.2204z"/>
  <circle fill="#0057F0" cx="307.485" cy="340.39" r="7.15862"/>
  <path fill="white" d="M308.73 340.39c0,3.75421 -4.22674,0.883843 -4.65676,6.29433 -2.23143,-1.21238 -3.74684,-3.57676 -3.74684,-6.29433 0,-3.45855 2.45452,-6.34536 5.71635,-7.0132 -2.24419,3.53651 2.68725,4.02492 2.68725,7.0132z"/>
  <path fill="black" stroke="black" stroke-width="0.992126" d="M305.929 344.437c4.25367,-2.48995 4.35742,-5.3949 0.311244,-8.71484 1.10353,0.105732 4.27521,1.4023 4.21881,4.67093 -0.0464882,2.7051 -3.84718,4.14879 -4.53005,4.04391z"/>
  <path fill="black" d="M312.546 335.329c1.29572,1.29572 2.09707,3.0858 2.09707,5.06183 0,3.95263 -3.2057,7.15862 -7.15862,7.15862 9.18454,-5.91364 5.69821,-7.84885 5.06155,-12.2204z"/>
  <line fill="none" stroke="#4F2900" stroke-width="1.41732" x1="148.846" y1="326.384" x2="351.466" y2= "325.139" />
  <polygon fill="#0057F0" points="227.279,341.324 248.133,350.973 267.118,341.013 247.51,331.053 "/>
  <polygon fill="black" points="228.524,343.814 246.888,351.284 266.807,341.013 261.516,341.013 249.378,349.416 "/>
  <polygon fill="black" points="250,334.165 258.715,339.768 247.821,345.682 263.384,340.079 "/>
  <path fill="white" d="M245.954 333.854c0.742961,4.57229 -4.34693,6.22885 -10.2711,7.46986 5.29115,0.207496 9.33733,2.07496 12.1385,5.6024l2.17871 -4.04618 0 -10.2711 -3.11244 -1.24498 -0.933733 2.48995z"/>
  <path fill="white" d="M237.432 71.5933l0.0977953 11.1297c-4.61962,2.01657 -4.14425,3.93506 -5.43147,7.61868l-7.39163 3.03506c-9.00567,2.22973 -8.22473,6.13191 -10.6705,11.9571 -12.013,-0.100913 -15.8281,4.67575 -17.0496,13.7075 -11.6138,1.00375 -17.1048,4.44643 -17.0969,16.2434 -7.88826,0.992693 -14.1157,7.95232 -13.7033,18.0791 -8.1567,2.21783 -12.0597,7.23629 -13.5771,19.4145 -12.8611,3.53055 -14.2574,9.29197 -15.3953,21.3307 -9.7869,3.59292 -13.6089,7.03049 -12.7111,18.7186 -7.49878,3.47556 -12.767,8.09292 -11.1351,18.2112 -5.61203,4.69871 -8.63065,10.9534 -7.18867,19.6988 20.9826,40.8402 36.0363,76.1894 42.9052,113.654l3.80721 -0.0297638 -1.24526 -5.91903 172.118 -1.86747 -172.429 -0.311244 -6.53613 -26.4558 -0.933733 -9.33733 72.8312 -2.17871 -70.3412 0 -15.8735 -30.8132 -1.24498 1.55622 -16.4959 -34.8594c32.542,-73.1605 77.1157,-123.866 132.901,-164.337 -54.6628,35.7265 -98.0555,84.2026 -134.146,159.668 -4.04618,-2.07496 -3.11244,-7.05487 2.8012,-14.9397 0.414992,-9.64857 4.14992,-16.8072 11.2048,-21.4759 0.933733,-7.88485 5.1874,-14.1097 12.761,-18.6747 1.65997,-11.4123 7.05487,-19.0896 16.1847,-23.0321 2.17871,-9.95982 6.43238,-15.7697 12.761,-17.4297 1.76372,-9.02608 6.43238,-15.1472 14.006,-18.3634 0.726237,-7.46986 6.01739,-12.4498 15.8735,-14.9397 3.26721,-8.30098 8.35115,-14.0077 17.4297,-14.006 3.73493,-6.95112 9.95982,-11.8273 18.6747,-14.6285l6.84737 -8.71484 0 -8.71484 -2.60788 -2.99452zm79.204 55.7388c-2.6348,-6.70706 -9.42832,-8.97761 -18.411,-8.91326l9.04366 5.34558c3.12208,-0.056126 6.24444,1.13301 9.36737,3.56769zm-20.3638 -16.7434c-2.40718,-4.90564 -7.17506,-7.78819 -15.7193,-7.43358l3.37238 3.17962 12.3469 4.25395zm-16.6941 -12.7494c-1.52136,-4.76816 -5.09301,-7.48659 -14.4057,-4.46258l5.68063 2.68696c2.49336,-0.653103 5.4017,-0.0612284 8.72504,1.77562zm-10.3774 -43.1711l-0.00226772 -2.18098c-5.59389,3.5674 -10.7728,5.4754 -15.5367,5.72344 4.86822,1.62028 9.73673,1.06186 15.539,-3.54246zm-9.55616 -10.982c0.454961,-0.691654 0.929197,-1.38331 1.41902,-2.07468l-30.4316 0.296788c3.92003,5.53266 5.29739,11.3913 5.89663,16.9248 -4.76391,-0.248032 -10.2541,-1.84479 -15.8479,-5.41219l0.903119 26.3682c1.18488,-0.726237 2.31902,-1.44907 3.41065,-2.14781 -2.03953,-5.37534 -1.90063,-11.3732 -1.45049,-17.9932 15.4585,8.19582 22.5131,-0.72652 10.8935,-12.761 -0.93515,-3.86816 16.8046,-2.13392 25.2071,-3.20088z"/>
  <path fill="none" stroke="#4F2900" stroke-width="1.41732" d="M251.1 89.4776c58.5584,40.7001 101.987,96.5722 135.316,162.819"/>
  <line fill="none" stroke="#4F2900" stroke-width="0.992126" x1="379.166" y1="247.328" x2="383.213" y2= "254.798" />
  <line fill="none" stroke="#4F2900" stroke-width="0.992126" x1="376.365" y1="251.063" x2="380.411" y2= "258.533" />
  <line fill="none" stroke="#4F2900" stroke-width="0.992126" x1="374.498" y1="256.666" x2="378.544" y2= "264.136" />
  <line fill="none" stroke="#4F2900" stroke-width="0.992126" x1="370.452" y1="260.089" x2="374.498" y2= "267.559" />
  <line fill="none" stroke="#4F2900" stroke-width="0.992126" x1="363.915" y1="266.625" x2="367.339" y2= "273.162" />
  <line fill="none" stroke="#4F2900" stroke-width="0.992126" x1="366.717" y1="263.824" x2="369.829" y2= "267.87" />
  <path fill="none" stroke="#4F2900" stroke-width="1.41732" d="M272.721 97.3086c3.11244,0.933733 5.3949,3.52743 6.84737,7.78111"/>
  <path fill="none" stroke="#4F2900" stroke-width="1.41732" d="M288.906 110.692c3.11244,0.933733 5.08366,4.77241 6.53613,9.02608"/>
  <path fill="none" stroke="#4F2900" stroke-width="1.41732" d="M309.136 126.877c5.91364,0.311244 3.21619,10.6861 7.46986,13.6947"/>
  <path fill="none" stroke="#4F2900" stroke-width="1.41732" d="M336.215 160.802c5.91364,0.311244 3.21619,10.6861 7.46986,13.6947"/>
  <path fill="none" stroke="#4F2900" stroke-width="1.41732" d="M322.831 143.684c3.11244,0.933733 5.08366,4.77241 5.91364,10.2711"/>
  <path fill="none" stroke="#4F2900" stroke-width="1.41732" d="M352.711 180.411c5.91364,0.311244 3.21619,10.6861 7.46986,13.6947"/>
  <path fill="none" stroke="#4F2900" stroke-width="1.41732" d="M365.16 200.019c5.91364,0.311244 2.28246,11.931 7.46986,14.9397"/>
  <path fill="none" stroke="#4F2900" stroke-width="1.41732" d="M376.365 220.561c5.91364,0.311244 3.21619,10.6861 7.46986,13.6947"/>
  <path fill="none" stroke="#4F2900" stroke-width="1.41732" d="M386.325 238.614c1.14123,1.55622 1.86747,3.94243 2.17871,7.15862"/>
  <line fill="none" stroke="#4F2900" stroke-width="0.992126" x1="341.506" y1="329.808" x2="343.996" y2= "329.808" />
  <line fill="none" stroke="#4F2900" stroke-width="0.992126" x1="339.638" y1="333.543" x2="342.128" y2= "333.543" />
  <line fill="none" stroke="#4F2900" stroke-width="0.992126" x1="337.46" y1="338.523" x2="339.95" y2= "338.523" />
  <line fill="none" stroke="#4F2900" stroke-width="0.992126" x1="338.082" y1="343.192" x2="340.572" y2= "343.192" />
  <line fill="none" stroke="#4F2900" stroke-width="0.992126" x1="335.903" y1="350.973" x2="338.393" y2= "350.973" />
  <line fill="none" stroke="#4F2900" stroke-width="0.992126" x1="335.281" y1="356.886" x2="337.771" y2= "356.886" />
  <path fill="none" stroke="#4F2900" stroke-width="0.992126" d="M225.1 76.144c3.21619,-3.83868 7.26237,-6.01739 12.1385,-6.53613"/>
  <path fill="black" stroke="#4F2900" stroke-width="0.216" d="M267.43 75.5215c-7.15862,-4.66866 -10.8935,-4.97991 -15.8735,-7.15862l-0.311244 6.84737 -0.311244 -8.40359c6.74363,1.45247 11.6198,4.46117 16.4959,8.71484z"/>
  <path fill="#4F2900" d="M249.066 58.4031c1.55622,-5.08366 3.52743,-9.75232 5.91364,-14.006 -5.29115,2.5937 -7.26237,7.26237 -5.91364,14.006z"/>
  <path fill="#BF9F4F" d="M51.3357 89.127l45.4624 11.2099 17.4376 54.1812c-34.2958,141.547 -66.1354,167.001 51.0673,270.906l8.09604 -62.2772 46.0851 0 -15.5693 90.3019 -45.4624 19.3059c-60.02,-42.3227 -101.486,-91.7816 -118.327,-150.711 1.83799,-51.2989 8.53115,-104.806 28.6475,-164.412l-17.4376 -68.5049z"/>
  <path fill="white" d="M162.994 470.826l-4.54139 1.92869c-60.02,-42.3227 -101.486,-91.7816 -118.327,-150.711 1.83799,-51.2989 8.53115,-104.806 28.6475,-164.412l-17.4376 -68.5049 45.4624 11.2099 1.11713 3.47103c-11.8644,-3.38854 -14.3306,-0.963213 -20.9506,-2.70539 -7.50274,-1.97433 -10.0763,-5.3504 -22.426,-7.84007 7.21021,11.6453 13.4348,34.6255 18.9859,65.3613 -21.5938,67.5148 -28.8298,116.951 -28.012,156.245 1.87824,20.0288 15.3264,52.6388 40.0915,84.6842 18.6588,24.1441 44.2803,47.1606 73.2014,68.7592l6.49758 -42.8879 7.6133 -58.5641 3.94129 3.09884 -9.02608 52.6003 -1.86747 0.311244c-0.990142,15.9851 -5.09273,32.904 -2.97014,47.9557z"/>
  <line fill="none" stroke="#4F2900" stroke-width="0.992126" x1="58.2735" y1="96.6861" x2="62.9422" y2= "107.268" />
  <line fill="none" stroke="#4F2900" stroke-width="0.992126" x1="74.7695" y1="147.108" x2="76.3257" y2= "156.756" />
  <line fill="none" stroke="#4F2900" stroke-width="0.992126" x1="80.102" y1="146.796" x2="81.6582" y2= "156.445" />
  <line fill="none" stroke="#4F2900" stroke-width="0.992126" x1="86.0157" y1="146.796" x2="87.5719" y2= "156.445" />
  <line fill="none" stroke="#4F2900" stroke-width="0.992126" x1="90.9956" y1="147.419" x2="92.5518" y2= "157.068" />
  <line fill="none" stroke="#4F2900" stroke-width="0.992126" x1="97.2205" y1="149.598" x2="98.7767" y2= "159.246" />
  <line fill="none" stroke="#4F2900" stroke-width="0.992126" x1="103.134" y1="149.909" x2="104.69" y2= "159.557" />
  <line fill="none" stroke="#4F2900" stroke-width="0.992126" x1="108.425" y1="151.154" x2="109.359" y2= "158.001" />
  <line fill="none" stroke="#4F2900" stroke-width="0.992126" x1="64.8511" y1="97.3086" x2="65.7848" y2= "104.156" />
  <line fill="none" stroke="#4F2900" stroke-width="0.992126" x1="71.0759" y1="99.4873" x2="73.5659" y2= "111.626" />
  <line fill="none" stroke="#4F2900" stroke-width="0.992126" x1="77.3008" y1="101.666" x2="79.7908" y2= "113.805" />
  <line fill="none" stroke="#4F2900" stroke-width="0.992126" x1="82.9032" y1="104.467" x2="84.1482" y2= "112.871" />
  <line fill="none" stroke="#4F2900" stroke-width="0.992126" x1="89.7506" y1="104.778" x2="90.9956" y2= "113.182" />
  <line fill="none" stroke="#4F2900" stroke-width="0.992126" x1="94.7305" y1="104.467" x2="95.9755" y2= "112.871" />
  <path fill="none" stroke="#4F2900" stroke-width="0.992126" d="M84.1068 261.023c-6.18605,27.1429 -5.84873,51.9129 3.73493,76.5661"/>
  <path fill="none" stroke="#4F2900" stroke-width="0.992126" d="M76.3257 292.459c-1.03748,8.09235 -0.414992,16.1847 1.86747,24.2771"/>
  <polygon fill="#4F2900" points="173.434,366.224 179.972,366.268 174.834,395.999 176.073,395.441 182.15,366.283 186.819,366.315 180.594,396.047 181.71,396.332 189.308,366.332 192.731,366.355 186.819,395.308 188.039,394.499 194.6,366.368 198.023,366.391 192.109,395.034 193.186,394.034 200.046,366.405 203.624,366.43 197.712,393.98 198.952,394.079 205.493,366.442 208.45,366.463 203.158,393.861 204.071,393.523 210.628,366.478 213.896,366.5 210.784,383.469 211.305,383.981 215.919,366.514 218.876,366.535 218.876,362.8 173.123,362.8 "/>
  <path fill="#BF9F4F" d="M446.321 83.5246l-53.2435 20.236 -14.0139 60.0948c21.9413,70.426 34.2357,111.381 36.3464,140.728 3.01266,41.889 -24.1665,61.3208 -83.99,120.529l-9.34101 -61.966 -48.8863 0.311244 18.3705 90.3019 47.3298 19.3059c61.5762,-62.5536 123.585,-111.079 119.26,-161.916 -1.83799,-51.2989 -17.5572,-95.1571 -33.6274,-158.187l21.795 -69.4386z"/>
  <polygon fill="#4F2900" points="319.364,366.224 318.429,366.268 321.388,388.529 320.149,387.971 316.25,366.283 313.183,366.293 315.664,384.882 315.206,384.192 311.159,366.299 306.291,366.315 309.248,385.932 308.909,386.684 304.424,366.332 301.623,366.044 305.669,390.64 304.448,389.83 299.755,366.057 296.331,366.08 300.378,390.366 299.301,389.365 294.308,366.094 290.73,366.118 294.776,389.311 293.535,389.41 288.862,366.131 285.904,366.152 289.329,389.192 288.416,388.854 283.727,366.167 280.459,366.189 283.57,387.827 283.049,388.338 278.125,366.203 273.923,366.535 273.923,362.8 319.676,362.8 "/>
  <path fill="white" d="M445.034 87.6238l1.28665 -4.09918 -53.2435 20.236 -14.0139 60.0948c21.9413,70.426 34.2357,111.381 36.3464,140.728 3.01266,41.889 -24.1665,61.3208 -83.99,120.529 -3.30775,9.65282 87.9356,-70.2358 88.0765,-105.564 0.148819,-37.3743 -15.2376,-90.4286 -36.5947,-155.945l12.761 -57.5802 49.3716 -18.3997zm-148.561 368.139l-4.91046 -2.00296 -18.3705 -90.3019 4.50482 -0.0289134 18.7761 92.3338z"/>
  <polygon fill="#4F2900" points="330.301,426.916 337.771,471.424 339.327,467.067 381.345,425.671 338.082,465.822 338.082,462.087 377.299,421.936 337.148,459.908 336.837,452.75 370.452,420.38 336.215,450.26 336.215,444.657 365.783,416.023 335.592,442.478 335.281,438.121 362.048,412.288 334.036,436.876 334.347,431.896 359.558,407.619 333.413,430.029 "/>
  <line fill="none" stroke="#4F2900" stroke-width="0.992126" x1="387.57" y1="153.333" x2="384.769" y2= "164.849" />
  <line fill="none" stroke="#4F2900" stroke-width="0.992126" x1="393.484" y1="151.465" x2="390.682" y2= "162.981" />
  <line fill="none" stroke="#4F2900" stroke-width="0.992126" x1="398.152" y1="152.399" x2="396.285" y2= "160.491" />
  <line fill="none" stroke="#4F2900" stroke-width="0.992126" x1="412.158" y1="146.174" x2="409.357" y2= "157.69" />
  <line fill="none" stroke="#4F2900" stroke-width="0.992126" x1="416.827" y1="144.618" x2="414.026" y2= "156.134" />
  <line fill="none" stroke="#4F2900" stroke-width="0.992126" x1="423.052" y1="143.995" x2="420.562" y2= "153.333" />
  <line fill="none" stroke="#4F2900" stroke-width="0.992126" x1="405.311" y1="150.843" x2="403.443" y2= "158.935" />
  <line fill="none" stroke="#4F2900" stroke-width="0.992126" x1="399.708" y1="105.067" x2="396.285" y2= "115.983" />
  <line fill="none" stroke="#4F2900" stroke-width="0.992126" x1="405.933" y1="102.584" x2="402.51" y2= "113.182" />
  <line fill="none" stroke="#4F2900" stroke-width="0.992126" x1="411.847" y1="100.406" x2="408.423" y2= "111.003" />
  <line fill="none" stroke="#4F2900" stroke-width="0.992126" x1="419.006" y1="97.6199" x2="415.582" y2= "107.58" />
  <line fill="none" stroke="#4F2900" stroke-width="0.992126" x1="426.468" y1="94.5151" x2="423.363" y2= "104.778" />
  <line fill="none" stroke="#4F2900" stroke-width="0.992126" x1="432.389" y1="92.64" x2="428.965" y2= "102.6" />
  <line fill="none" stroke="#4F2900" stroke-width="0.992126" x1="439.237" y1="90.15" x2="435.813" y2= "100.11" />
  <path fill="none" stroke="#4F2900" stroke-width="0.992126" d="M452.423 267.698c9.57005,60.0234 6.81392,70.5048 -22.0025,110.013"/>
 </g>
</svg>
