<?xml version="1.0" encoding="UTF-8"?>
<!DOCTYPE svg PUBLIC "-//W3C//DTD SVG 1.1//EN" "http://www.w3.org/Graphics/SVG/1.1/DTD/svg11.dtd">
<!-- Creator: CorelDRAW -->
<svg xmlns="http://www.w3.org/2000/svg" xml:space="preserve" width="500px" height="788px" shape-rendering="geometricPrecision" text-rendering="geometricPrecision" image-rendering="optimizeQuality" fill-rule="evenodd" clip-rule="evenodd"
viewBox="0 0 500 788"
 xmlns:xlink="http://www.w3.org/1999/xlink"
 xmlns:svg="http://www.w3.org/2000/svg"
 version="1.0">
 <g id="Layer_x0020_1">
  <metadata id="CorelCorpID_0Corel-Layer"/>
  <polygon id="path133" fill="#FFCB05" points="38.363,133.215 460.236,133.215 459.895,163.078 38.363,162.624 "/>
  <polygon id="path131" fill="#FFD90F" points="35.5606,129.008 459.759,129.008 459.759,139.799 35.5606,139.799 "/>
  <polygon id="path143" fill="#ED1A24" points="284.104,147.73 249.243,133.823 249.243,147.73 "/>
  <polygon id="path145" fill="#ED1A24" points="214.381,147.73 249.243,161.637 249.243,147.73 "/>
  <polygon id="path147" fill="#F3A29A" points="214.381,147.73 249.243,133.823 249.243,147.73 "/>
  <polygon id="path149" fill="#F3A29A" points="284.104,147.73 249.243,161.637 249.243,147.73 "/>
  <polygon id="path151" fill="white" points="249.243,133.494 249.243,147.73 241.116,136.785 "/>
  <polygon id="path153" fill="white" points="249.243,161.966 249.243,147.73 257.37,158.674 "/>
  <polygon id="path155" fill="none" stroke="#ED1A24" stroke-width="1.15228" points="249.243,161.637 214.229,147.73 249.243,133.823 284.104,147.73 "/>
  <path id="path159" fill="#F00000" d="M354.704 133.972c15.4386,0 19.023,5.68744 19.023,12.6388 0,6.95169 -4.48781,12.6391 -19.023,12.6391 -14.5349,0 -18.9525,-5.68744 -18.9525,-12.6391 0,-6.95141 3.51383,-12.6388 18.9525,-12.6388z"/>
  <path id="path161" fill="white" d="M368.829 141.065c2.34227,1.728 3.76186,3.86759 3.76186,6.17159 0,5.59559 -8.16293,10.2039 -18.2424,10.2039 -10.0086,0 -18.1715,-4.60829 -18.1715,-10.2039 0,-0.16441 0,-0.329103 0,-0.493512 0.496914,5.3487 8.16293,9.54539 17.6037,9.54539 9.65339,0 17.6034,-4.5258 17.6034,-10.0395 0,-1.89241 -0.922678,-3.7029 -2.55515,-5.184z"/>
  <polygon id="path175" fill="none" points="433.118,147.648 462.545,133.823 462.545,147.73 "/>
  <polygon id="path177" fill="none" stroke="#ED1A24" stroke-width="1.15228" points="459.565,161.637 432.969,147.73 459.565,133.823 470.069,147.648 "/>
  <polygon id="path179" fill="#F3A29A" points="432.969,147.73 459.565,133.823 459.565,147.73 "/>
  <polygon id="path181" fill="#F3A29A" points="470.069,147.648 459.565,147.73 459.565,161.637 "/>
  <polygon id="path183" fill="#ED241A" points="470.069,147.648 459.565,133.576 459.565,147.73 "/>
  <polygon id="path185" fill="#ED241A" points="433.043,147.73 459.565,161.637 459.565,147.648 "/>
  <polygon id="path187" fill="white" points="459.565,154.971 459.565,147.73 467.313,147.73 "/>
  <polygon id="path189" fill="white" points="459.565,142.134 459.565,147.73 450.253,147.73 "/>
  <polygon id="path193" fill="none" points="66.7231,147.648 34.5671,133.823 34.5671,147.73 "/>
  <polygon id="path195" fill="none" stroke="#ED1A24" stroke-width="1.15228" points="37.7045,161.637 66.8838,147.73 37.785,133.823 26.8231,147.648 "/>
  <polygon id="path197" fill="#F3A29A" points="37.624,133.741 37.7045,147.73 66.8838,147.812 "/>
  <polygon id="path199" fill="#F3A29A" points="27.1738,147.648 37.785,147.73 38.0551,161.637 "/>
  <polygon id="path201" fill="#ED241A" points="66.7231,147.73 37.7045,161.637 37.7045,147.73 "/>
  <polygon id="path203" fill="#ED241A" points="26.8231,147.648 37.624,133.823 37.7045,147.73 "/>
  <polygon id="path205" fill="white" points="37.7045,154.971 37.7045,147.73 34.5671,147.73 "/>
  <polygon id="path207" fill="white" points="37.624,142.052 37.7045,147.73 48.1405,147.73 "/>
  <path id="path213" fill="#F00000" d="M178.973 137.197c3.07191,0 5.66391,2.2218 5.66391,4.85518 0,2.6331 -2.592,4.8549 -5.66391,4.8549 -3.07162,0 -5.56753,-2.2218 -5.56753,-4.8549 0,-2.63339 2.49591,-4.85518 5.56753,-4.85518z"/>
  <path id="path215" fill="white" d="M176.574 139.337c1.34419,-0.822898 2.9761,-0.74041 3.744,0.16441 0.671811,0.823182 0.191906,2.22208 -1.152,3.04469 -1.44,0.740693 -3.07191,0.658205 -3.74372,-0.16441 -0.767906,-0.905386 -0.192189,-2.30428 1.15172,-3.04469z"/>
  <path id="path219" fill="#F00000" d="M178.973 148.553c3.07191,0 5.66391,2.2218 5.66391,4.85518 0,2.6331 -2.592,4.7727 -5.66391,4.7727 -3.07162,0 -5.56753,-2.13959 -5.56753,-4.7727 0,-2.63339 2.49591,-4.85518 5.56753,-4.85518z"/>
  <path id="path221" fill="white" d="M176.574 150.692c1.34419,-0.822898 2.9761,-0.740693 3.744,0.16441 0.671811,0.823182 0.191906,2.22208 -1.152,3.04469 -1.44,0.740693 -3.07191,0.658205 -3.74372,-0.16441 -0.767906,-0.905386 -0.192189,-2.304 1.15172,-3.04469z"/>
  <path id="path227" fill="#F00000" d="M314.709 137.197c3.07191,0 5.66391,2.2218 5.66391,4.85518 0,2.6331 -2.592,4.8549 -5.66391,4.8549 -3.07162,0 -5.56753,-2.2218 -5.56753,-4.8549 0,-2.63339 2.49591,-4.85518 5.56753,-4.85518z"/>
  <path id="path229" fill="white" d="M312.309 139.337c1.34419,-0.822898 2.9761,-0.74041 3.744,0.16441 0.671811,0.823182 0.191906,2.22208 -1.152,3.04469 -1.44,0.740693 -3.07191,0.658205 -3.74372,-0.16441 -0.767906,-0.905386 -0.191906,-2.30428 1.15172,-3.04469z"/>
  <path id="path233" fill="#F00000" d="M314.709 148.553c3.07191,0 5.66391,2.2218 5.66391,4.85518 0,2.6331 -2.592,4.7727 -5.66391,4.7727 -3.07162,0 -5.56753,-2.13959 -5.56753,-4.7727 0,-2.63339 2.49591,-4.85518 5.56753,-4.85518z"/>
  <path id="path235" fill="white" d="M312.309 150.692c1.34419,-0.822898 2.9761,-0.740693 3.744,0.16441 0.671811,0.823182 0.191906,2.22208 -1.152,3.04469 -1.44,0.740693 -3.07191,0.658205 -3.74372,-0.16441 -0.767906,-0.905386 -0.191906,-2.304 1.15172,-3.04469z"/>
  <path id="path241" fill="#F00000" d="M96.8026 137.197c3.07191,0 5.56753,2.2218 5.56753,4.85518 0,2.6331 -2.49562,4.8549 -5.56753,4.8549 -3.168,0 -5.66334,-2.2218 -5.66334,-4.8549 0,-2.63339 2.49534,-4.85518 5.66334,-4.85518z"/>
  <path id="path243" fill="white" d="M94.307 139.337c1.34362,-0.822898 3.07162,-0.74041 3.74343,0.16441 0.767906,0.823182 0.192189,2.22208 -1.15172,3.04469 -1.34391,0.740693 -3.07191,0.658205 -3.74372,-0.16441 -0.672095,-0.905386 -0.192189,-2.30428 1.152,-3.04469z"/>
  <path id="path247" fill="#F00000" d="M96.8026 148.553c3.07191,0 5.56753,2.2218 5.56753,4.85518 0,2.6331 -2.49562,4.7727 -5.56753,4.7727 -3.168,0 -5.66334,-2.13959 -5.66334,-4.7727 0,-2.63339 2.49534,-4.85518 5.66334,-4.85518z"/>
  <path id="path249" fill="white" d="M94.307 150.692c1.34362,-0.822898 3.07162,-0.740693 3.74343,0.16441 0.767906,0.823182 0.192189,2.22208 -1.15172,3.04469 -1.34391,0.740693 -3.07191,0.658205 -3.74372,-0.16441 -0.672095,-0.905386 -0.192189,-2.304 1.152,-3.04469z"/>
  <path id="path255" fill="#F00000" d="M396.592 137.197c3.07219,0 5.56781,2.2218 5.56781,4.85518 0,2.6331 -2.49562,4.8549 -5.56781,4.8549 -3.16772,0 -5.66334,-2.2218 -5.66334,-4.8549 0,-2.63339 2.49562,-4.85518 5.66334,-4.85518z"/>
  <path id="path257" fill="white" d="M394.096 139.337c1.34391,-0.822898 3.07191,-0.74041 3.74372,0.16441 0.767906,0.823182 0.192189,2.22208 -1.152,3.04469 -1.34362,0.740693 -3.07162,0.658205 -3.74343,-0.16441 -0.672378,-0.905386 -0.192189,-2.30428 1.15172,-3.04469z"/>
  <path id="path261" fill="#F00000" d="M396.592 148.553c3.07219,0 5.56781,2.2218 5.56781,4.85518 0,2.6331 -2.49562,4.7727 -5.56781,4.7727 -3.16772,0 -5.66334,-2.13959 -5.66334,-4.7727 0,-2.63339 2.49562,-4.85518 5.66334,-4.85518z"/>
  <path id="path263" fill="white" d="M394.096 150.692c1.34391,-0.822898 3.07191,-0.740693 3.74372,0.16441 0.767906,0.823182 0.192189,2.22208 -1.152,3.04469 -1.34362,0.740693 -3.07162,0.658205 -3.74343,-0.16441 -0.672378,-0.905386 -0.192189,-2.304 1.15172,-3.04469z"/>
  <ellipse fill="white" stroke="black" stroke-width="3.40158" cx="40.0219" cy="31.0548" rx="28.4612" ry="28.6659"/>
  <ellipse fill="white" stroke="black" stroke-width="3.40158" cx="253.074" cy="37.2925" rx="28.4612" ry="28.6659"/>
  <ellipse fill="#E5E5E5" cx="253.074" cy="37.2925" rx="21.5194" ry="21.6742"/>
  <ellipse fill="white" stroke="black" stroke-width="3.40158" cx="465.588" cy="31.0548" rx="28.4612" ry="28.6659"/>
  <ellipse fill="#E5E5E5" cx="465.588" cy="31.0549" rx="21.5194" ry="21.6742"/>
  <ellipse fill="#E5E5E5" cx="40.022" cy="31.0549" rx="21.5194" ry="21.6742"/>
  <ellipse fill="white" stroke="black" stroke-width="3.40158" cx="51.2617" cy="86.8675" rx="28.4612" ry="28.6659"/>
  <ellipse fill="#E5E5E5" cx="51.2617" cy="86.8675" rx="21.5194" ry="21.6742"/>
  <ellipse fill="white" stroke="black" stroke-width="3.40158" cx="108.064" cy="86.8675" rx="28.4612" ry="28.6659"/>
  <ellipse fill="#E5E5E5" cx="108.064" cy="86.8675" rx="21.5194" ry="21.6742"/>
  <ellipse fill="white" stroke="black" stroke-width="3.40158" cx="164.867" cy="86.8675" rx="28.4612" ry="28.6659"/>
  <ellipse fill="#E5E5E5" cx="164.867" cy="86.8675" rx="21.5194" ry="21.6742"/>
  <ellipse fill="white" stroke="black" stroke-width="3.40158" cx="221.669" cy="86.8675" rx="28.4612" ry="28.6659"/>
  <ellipse fill="#E5E5E5" cx="221.669" cy="86.8675" rx="21.5194" ry="21.6742"/>
  <ellipse fill="white" stroke="black" stroke-width="3.40158" cx="278.471" cy="86.8675" rx="28.4612" ry="28.6659"/>
  <ellipse fill="#E5E5E5" cx="278.471" cy="86.8675" rx="21.5194" ry="21.6742"/>
  <ellipse fill="white" stroke="black" stroke-width="3.40158" cx="335.274" cy="86.8675" rx="28.4612" ry="28.6659"/>
  <ellipse fill="#E5E5E5" cx="335.274" cy="86.8675" rx="21.5194" ry="21.6742"/>
  <ellipse fill="white" stroke="black" stroke-width="3.40158" cx="392.076" cy="86.8675" rx="28.4612" ry="28.6659"/>
  <ellipse fill="#E5E5E5" cx="392.076" cy="86.8675" rx="21.5194" ry="21.6742"/>
  <ellipse fill="white" stroke="black" stroke-width="3.40158" cx="448.879" cy="86.8675" rx="28.4612" ry="28.6659"/>
  <ellipse fill="#E5E5E5" cx="448.879" cy="86.8675" rx="21.5194" ry="21.6742"/>
  <ellipse fill="white" transform="matrix(-0.218429 1.0423 -1.24321 -0.100503 343.862 144.349)" rx="5.3195" ry="4.11052"/>
  <path id="path159_0" fill="#F00000" d="M139.493 133.972c15.4386,0 19.023,5.68744 19.023,12.6388 0,6.95169 -4.4881,12.6391 -19.023,12.6391 -14.5352,0 -18.9525,-5.68744 -18.9525,-12.6391 0,-6.95141 3.51383,-12.6388 18.9525,-12.6388z"/>
  <path id="path161_1" fill="white" d="M153.618 141.065c2.34255,1.728 3.76214,3.86759 3.76214,6.17159 0,5.59559 -8.16293,10.2039 -18.2424,10.2039 -10.0086,0 -18.1715,-4.60829 -18.1715,-10.2039 0,-0.16441 0,-0.329103 0,-0.493512 0.496914,5.3487 8.16293,9.54539 17.6037,9.54539 9.65339,0 17.6034,-4.5258 17.6034,-10.0395 0,-1.89241 -0.922678,-3.7029 -2.55543,-5.184z"/>
  <ellipse fill="white" transform="matrix(-0.218429 1.0423 -1.24321 -0.100503 128.651 144.349)" rx="5.3195" ry="4.11052"/>
  <path fill="#FFD90F" stroke="black" stroke-width="2.83465" d="M1.44 185.001l496.976 -0.429733 0.430016 469.308c0.0394016,43.0767 -48.6655,98.2931 -89.8699,98.6449l-128.285 1.48394c-6.99222,0.080504 -26.1431,12.3783 -31.6797,32.1384 -4.80841,-19.3221 -27.9471,-32.0859 -36.6951,-32.1384l-116.033 -0.695622c-49.7475,-2.51802 -98.4807,-52.4325 -95.0341,-99.5168l0.190488 -468.795z"/>
  <path fill="#999999" d="M242.987 84.4402c-5.02611,9.7013 -12.8574,17.5326 -23.4933,23.4933 13.9672,-0.379559 22.6165,-7.21701 23.4933,-23.4933z"/>
  <path fill="#999999" d="M299.792 84.4402c-5.02611,9.7013 -12.8574,17.5326 -23.4933,23.4933 13.9672,-0.379559 22.6165,-7.21701 23.4933,-23.4933z"/>
  <path fill="#999999" d="M357.392 84.4402c-5.02611,9.7013 -12.8574,17.5326 -23.4933,23.4933 13.9672,-0.379559 22.6165,-7.21701 23.4933,-23.4933z"/>
  <path fill="#999999" d="M185.995 84.4402c-5.02611,9.7013 -12.8574,17.5326 -23.4933,23.4933 13.9672,-0.379559 22.6165,-7.21701 23.4933,-23.4933z"/>
  <path fill="#999999" d="M129.096 84.4402c-5.02611,9.7013 -12.8574,17.5326 -23.4933,23.4933 13.9672,-0.379559 22.6165,-7.21701 23.4933,-23.4933z"/>
  <path fill="#999999" d="M72.2909 84.4402c-5.02611,9.7013 -12.8574,17.5326 -23.4933,23.4933 13.9672,-0.379559 22.6165,-7.21701 23.4933,-23.4933z"/>
  <path fill="#999999" d="M61.748 28.6869c-5.02611,9.7013 -12.8574,17.5326 -23.4933,23.4933 13.9672,-0.379559 22.6165,-7.21701 23.4933,-23.4933z"/>
  <path fill="#999999" d="M413.59 84.4402c-5.02611,9.7013 -12.8574,17.5326 -23.4933,23.4933 13.9672,-0.379559 22.6165,-7.21701 23.4933,-23.4933z"/>
  <path fill="#999999" d="M470.044 84.4402c-5.02611,9.7013 -12.8574,17.5326 -23.4933,23.4933 13.9672,-0.379559 22.6165,-7.21701 23.4933,-23.4933z"/>
  <path fill="#999999" d="M487.577 29.0381c-5.02611,9.7013 -12.8574,17.5326 -23.4933,23.4933 13.9672,-0.379559 22.6165,-7.21701 23.4933,-23.4933z"/>
  <path fill="#999999" d="M274.534 35.2018c-5.02611,9.7013 -12.8574,17.5326 -23.4933,23.4933 13.9672,-0.379559 22.6165,-7.21701 23.4933,-23.4933z"/>
  <path fill="black" stroke="black" stroke-width="0.216" d="M114.987 468.452l0 149.849c61.8186,16.3202 206.722,17.8039 270.025,0l0 -151.333c-63.3031,-13.8473 -214.141,-11.8687 -270.025,1.48365z"/>
  <path fill="none" stroke="#CCCCCC" stroke-width="1.98425" d="M114.987 478.838c80.7347,-16.9384 189.783,-21.6363 270.025,0"/>
  <path fill="none" stroke="#CCCCCC" stroke-width="1.98425" d="M114.987 501.921c76.6551,-12.3639 187.435,-13.8473 270.025,0"/>
  <path fill="none" stroke="#CCCCCC" stroke-width="1.98425" d="M114.987 530.721c91.9863,-9.89093 181.994,-9.89093 270.025,0"/>
  <path fill="none" stroke="#CCCCCC" stroke-width="1.98425" d="M114.987 559.521c90.008,7.91292 180.016,7.91263 270.025,0"/>
  <path fill="none" stroke="#CCCCCC" stroke-width="1.98425" d="M114.987 588.321c93.9646,17.8039 183.973,17.8039 270.025,0"/>
  <path fill="none" stroke="#CCCCCC" stroke-width="1.98425" d="M114.987 609.921c91.9863,17.8039 181.994,17.8039 270.025,0"/>
  <rect fill="black" stroke="#CCCCCC" stroke-width="1.41732" x="151.118" y="457.972" width="9.11679" height="171.466" rx="4.03257" ry="4.03257"/>
  <rect fill="black" stroke="#CCCCCC" stroke-width="1.41732" x="142.422" y="459.374" width="9.11679" height="168.661" rx="4.03257" ry="4.03257"/>
  <rect fill="black" stroke="#CCCCCC" stroke-width="1.41732" x="133.118" y="461.478" width="9.11679" height="164.804" rx="4.03257" ry="4.03257"/>
  <rect fill="black" stroke="#CCCCCC" stroke-width="1.41732" x="341.918" y="457.972" width="9.11679" height="171.466" rx="4.03257" ry="4.03257"/>
  <rect fill="black" stroke="#CCCCCC" stroke-width="1.41732" x="350.614" y="459.374" width="9.11679" height="168.661" rx="4.03257" ry="4.03257"/>
  <rect fill="black" stroke="#CCCCCC" stroke-width="1.41732" x="359.918" y="461.478" width="9.11679" height="164.804" rx="4.03257" ry="4.03257"/>
  <path fill="#F00000" d="M257.931 463.462c34.8401,-60.336 58.8804,-21.5201 95.1339,-40.7347 28.9522,-17.3659 25.1975,-19.9247 39.5793,-33.2657 15.3102,-14.2016 30.5569,-11.8417 26.924,-35.79 -14.7833,24.4656 -49.5533,25.4378 -60.1285,39.7344 15.2541,-25.1257 11.5379,-31.3172 20.9512,-45.2223 11.0092,-16.2624 26.1457,-29.0186 23.5585,-45.2807 -13.6415,25.8242 -36.7503,9.92155 -64.0667,64.4984 0.109984,-38.9996 10.4185,-41.8672 13.5414,-67.79 -7.43726,19.4213 -21.6944,27.8677 -29.4197,44.7103 -7.6167,16.6056 7.40665,26.5555 -25.7715,39.2378 13.919,-62.6032 -5.26422,-59.9168 0.107433,-111.382 -19.6716,15.6492 -12.0971,52.4957 -18.0471,58.5374 -31.0292,-43.5915 0.707528,-75.9623 -43.6462,-98.1644 31.0436,39.67 -12.9912,35.8195 -2.07751,106.904 -14.5607,-13.6746 -15.8559,-36.4368 -17.21,-57.9436 -14.4391,21.2386 -5.87736,30.5158 -8.95748,45.3339 -4.78205,23.0066 -2.35446,43.0271 1.80879,58.0091 -31.0297,-8.67005 -15.4236,-54.1579 -60.4792,-82.4644 22.3793,37.0004 9.69393,51.9098 23.6574,70.6763 -22.771,-18.3076 -8.77097,-25.3083 -30.7607,-41.2864 -12.3123,-8.94615 -29.3086,-14.7827 -38.4582,-23.8059 8.69982,34.1507 16.9299,22.2698 25.6167,38.6286 8.1601,15.3672 5.02923,27.9927 25.4478,51.3352l-68.6798 -40.5715c20.3848,34.9163 25.3916,30.0317 38.4228,41.1931 8.0847,6.92476 10.4655,13.9728 20.7697,20.3346 45.8487,28.3068 71.667,-23.0108 99.9902,44.5677l12.1935 0z"/>
  <path fill="#FFD90F" d="M266.48 341.908c1.51937,-6.66227 5.41219,-19.2855 1.67216,-25.5971 -7.71421,-17.0649 -6.5812,-10.9871 -8.33443,-46.6359 -18.8181,33.5449 5.84391,43.2462 6.66227,72.233z"/>
  <path fill="#FFD90F" d="M359.402 381.18c13.909,-12.8571 9.23386,-28.1687 18.5842,-40.6749 -18.4672,5.14262 -14.4933,26.4152 -18.5842,40.6749z"/>
  <path fill="#F00000" d="M384.999 555.802l0.350646 -24.5452c29.4486,-10.8207 11.4758,-38.4007 21.7279,-53.4918 28.6569,-42.1841 5.12958,-74.5954 43.8429,-89.5717 -5.25969,26.5323 -9.81808,27.1168 -8.76615,82.7524 13.6607,-19.1957 4.5686,-55.8145 41.7269,-59.2591 -0.0609449,8.78939 -18.1653,24.2805 -18.1947,42.52 -0.0300473,18.4485 -14.9502,28.5721 -6.35046,50.0505 7.01292,-12.6233 15.0778,-10.87 24.1946,-33.662 5.41814,38.4574 -11.1994,39.6261 -21.3925,57.9785 -11.5523,20.7992 -17.0941,40.3067 -42.0704,41.2546 -11.1268,0.422362 -22.7605,-5.61742 -35.0686,-14.0261z"/>
  <path fill="#FFD90F" d="M165.144 369.258c-10.9871,-9 -14.2597,-22.9091 -18.5842,-28.753 -6.57156,24.7003 11.0214,23.0136 18.5842,28.753z"/>
  <path fill="#FFD90F" d="M425.323 505.659c-0.116787,-18.1168 9.49805,-18.7926 12.1861,-36.9091 -9.46914,7.10844 -21.9674,14.3875 -12.1861,36.9091z"/>
  <path fill="#FFD90F" d="M439.349 532.659c-0.116787,-18.1168 19.7532,-15.8961 12.9739,-41.3762 -5.84391,16.0126 -17.9997,23.6101 -12.9739,41.3762z"/>
  <path fill="#F00000" d="M115.187 555.451l-0.350646 -24.5452c-29.4486,-10.8207 -11.4758,-38.4007 -21.7279,-53.4918 -28.6569,-42.1841 -5.12958,-74.5954 -43.8429,-89.5717 5.25969,26.5323 9.81808,27.1168 8.76615,82.7524 -13.6607,-19.1957 -4.5686,-55.8145 -41.7269,-59.2591 0.0609449,8.78939 15.7107,23.2288 15.7402,41.4681 0.0297638,18.4485 17.4047,29.624 8.80498,51.1025 -7.01292,-12.6233 -15.0778,-10.87 -24.1946,-33.662 -5.41814,38.4574 11.1994,39.6261 21.3925,57.9785 11.5523,20.7992 17.0941,40.3067 42.0704,41.2546 11.1268,0.422362 22.7605,-5.61742 35.0686,-14.0261z"/>
  <path fill="#FFD90F" d="M89.0057 502.854c-1.2858,-23.7271 -19.7532,-23.6103 -17.8829,-45.584 4.29818,6.92107 30.0192,26.1714 17.8829,45.584z"/>
  <path fill="#FFD90F" d="M63.7592 532.659c-2.33773,-16.7142 -22.5584,-15.5455 -15.7791,-41.0256 5.84391,16.0126 20.8049,23.2594 15.7791,41.0256z"/>
  <path fill="#FFD90F" d="M57.0969 488.478c-2.33773,-16.7142 -22.5584,-15.5455 -15.7791,-41.0256 5.84391,16.0126 20.8049,23.2594 15.7791,41.0256z"/>
  <path fill="#FFCB05" stroke="black" stroke-width="2.83465" d="M27.3986 115.533l441.765 0c4.01074,0.14315 -5.72996,14.4675 -8.59465,14.6109l-424.576 0c-3.29471,-0.573166 -12.1759,-14.4678 -8.59465,-14.6109z"/>
  <path fill="#FFCB05" stroke="black" stroke-width="2.83465" d="M37.7121 163.663l421.997 0c3.58101,-0.195591 15.3269,20.8228 9.45412,20.6272l-440.046 0c-7.01887,0.195591 1.86236,-20.8228 8.59465,-20.6272z"/>
 </g>
</svg>
