<?xml version="1.0" encoding="UTF-8"?>
<!DOCTYPE svg PUBLIC "-//W3C//DTD SVG 1.1//EN" "http://www.w3.org/Graphics/SVG/1.1/DTD/svg11.dtd">
<!-- Creator: CorelDRAW -->
<svg xmlns="http://www.w3.org/2000/svg" xml:space="preserve" width="500px" height="578px" shape-rendering="geometricPrecision" text-rendering="geometricPrecision" image-rendering="optimizeQuality" fill-rule="evenodd" clip-rule="evenodd"
viewBox="0 0 500 578"
 xmlns:xlink="http://www.w3.org/1999/xlink"
 xmlns:svg="http://www.w3.org/2000/svg"
 version="1.0">
 <g id="Layer_x0020_1">
  <metadata id="CorelCorpID_0Corel-Layer"/>
  <path id="path1937" fill="#CCCCCC" stroke="black" stroke-width="1.98425" d="M0.991843 1.47373l497.937 0 0.0470551 335.594c0.213165,98.6982 -72.2501,156.656 -147.614,193.82 -39.9473,19.6988 -71.1859,36.0335 -98.4714,46.0545 -26.9014,-9.90142 -60.2215,-28.5109 -97.0898,-45.9213 -81.2605,-38.3743 -153.997,-91.4588 -154.69,-194.682l-0.119622 -334.866z"/>
  <path fill="white" d="M39.4365 424.012c21.7571,-27.0527 -19.0899,-58.9887 6.81307,-96.876 20.8446,-30.4892 -19.5177,-67.0193 6.74476,-113.611 17.854,-31.6743 -16.5042,-61.2865 3.35395,-92.0132 21.1258,-32.688 -11.6666,-52.1079 20.5535,-77.0758 -10.1421,41.7467 25.7508,41.5443 9.05982,88.0733 -12.058,33.6147 27.6174,46.2767 10.0247,91.0928 -15.5378,39.5807 22.0289,70.0172 8.81037,106.716 -6.56929,18.2384 -0.464882,25.6961 6.20363,35.161l-71.5638 58.5323z"/>
  <path fill="white" d="M134.174 344.515c0.193039,-9.51052 1.6217,-19.3351 5.50092,-29.3672 17.4186,-45.0462 -16.8231,-37.0418 4.06857,-88.9906 14.6991,-36.5511 -19.5018,-63.106 2.92592,-97.2584 21.1261,-32.6886 -14.0216,-57.46 17.3421,-83.2842 -9.82092,39.8197 23.5792,27.5823 10.0233,81.9712 -11.4197,45.8173 28.6872,51.2022 8.52605,101.156 -11.4381,28.3402 10.8904,43.6289 10.6756,67.3668l-59.0624 48.407z"/>
  <path fill="white" d="M225.196 270.434c-4.32624,-17.7574 -5.77786,-36.4745 2.59257,-54.9808 19.0165,-42.0438 -12.1158,-59.3595 7.74284,-90.0865 21.1261,-32.6886 -13.3793,-54.0349 17.1281,-81.5718 -10.1421,33.1832 22.6449,28.6682 10.0233,76.8334 -10.3672,39.5615 24.7266,51.3085 7.13452,96.1243 -7.28306,18.553 -1.28891,36.4153 4.86369,53.9362l-49.485 -0.254835z"/>
  <path fill="white" d="M309.146 300.468c20.4112,-39.3089 -12.8962,-49.4413 12.2428,-93.3648 18.4958,-32.3155 -14.0426,-55.9341 5.49496,-87.3034 21.1261,-32.6886 -11.9877,-44.1868 20.2323,-75.149 -11.8548,38.3213 24.3573,20.9619 5.74158,74.2644 -13.4841,38.6099 27.0235,50.9176 10.2387,99.8711 -13.4907,39.346 17.4019,50.0701 3.99345,86.6988 -7.89931,21.5796 -2.92536,31.4666 2.64586,47.3363l-60.5897 -52.3534z"/>
  <path fill="white" d="M455.956 426.582l-56.3922 -48.7075c-3.87383,-13.6738 -6.44684,-29.9132 2.40463,-51.594 16.2108,-39.7058 -15.0749,-55.6277 6.53046,-98.5176 22.777,-45.2157 -15.0061,-65.5674 6.88649,-106.892 21.1261,-32.6886 -15.1991,-46.4346 22.2662,-71.8305 -10.1421,41.7467 15.2586,23.4235 4.35005,72.4445 -8.8835,39.9206 28.1523,41.8887 9.70356,87.5608 -15.9259,39.4257 18.6029,65.7357 1.95959,110.142 -14.5142,38.7247 18.5176,42.4528 2.29125,107.395z"/>
  <path fill="#7F7F7F" d="M46.0916 426.231c21.7571,-27.0527 -19.0899,-58.9887 6.81307,-96.876 20.8446,-30.4892 -19.5177,-67.0193 6.74476,-113.611 17.854,-31.6743 -16.5042,-61.2865 3.35395,-92.0132 21.1258,-32.688 -11.6666,-52.1079 20.5535,-77.0758 -10.1421,41.7467 25.7508,41.5443 9.05982,88.0733 -12.058,33.6147 27.6174,46.2767 10.0247,91.0928 -15.5378,39.5807 22.0289,70.0172 8.81037,106.716 -6.56929,18.2384 -0.464882,25.6961 6.20363,35.161l-71.5638 58.5323z"/>
  <path fill="#7F7F7F" d="M140.829 346.733c0.193039,-9.51052 1.6217,-19.3351 5.50092,-29.3672 17.4186,-45.0462 -16.8231,-37.0418 4.06857,-88.9906 14.6991,-36.5511 -19.5018,-63.106 2.92592,-97.2584 21.1261,-32.6886 -14.0216,-57.46 17.3421,-83.2842 -9.82092,39.8197 23.5792,27.5823 10.0233,81.9712 -11.4197,45.8173 28.6872,51.2022 8.52605,101.156 -11.4381,28.3402 10.8904,43.6289 10.6756,67.3668l-59.0624 48.407z"/>
  <path fill="#7F7F7F" d="M231.851 272.652c-4.32624,-17.7574 -5.77786,-36.4745 2.59257,-54.9808 19.0165,-42.0438 -12.1158,-59.3595 7.74284,-90.0865 21.1261,-32.6886 -13.3793,-54.0349 17.1281,-81.5718 -10.1421,33.1832 22.6449,28.6682 10.0233,76.8334 -10.3672,39.5615 24.7266,51.3085 7.13452,96.1243 -7.28306,18.553 -1.28891,36.4153 4.86369,53.9362l-49.485 -0.254835z"/>
  <path fill="#7F7F7F" d="M315.801 302.686c20.4112,-39.3089 -12.8962,-49.4413 12.2428,-93.3648 18.4958,-32.3155 -14.0426,-55.9341 5.49496,-87.3034 21.1261,-32.6886 -11.9877,-44.1868 20.2323,-75.149 -11.8548,38.3213 24.3573,20.9619 5.74158,74.2644 -13.4841,38.6099 27.0235,50.9176 10.2387,99.8711 -13.4907,39.346 17.4019,50.0701 3.99345,86.6988 -7.89931,21.5796 -2.92536,31.4666 2.64586,47.3363l-60.5897 -52.3534z"/>
  <path fill="#7F7F7F" d="M462.611 428.8l-56.3922 -48.7075c-3.87383,-13.6738 -6.44684,-29.9132 2.40463,-51.594 16.2108,-39.7058 -15.0749,-55.6277 6.53046,-98.5176 22.777,-45.2157 -15.0061,-65.5674 6.88649,-106.892 21.1261,-32.6886 -15.1991,-46.4346 22.2662,-71.8305 -10.1421,41.7467 15.2586,23.4235 4.35005,72.4445 -8.8835,39.9206 28.1523,41.8887 9.70356,87.5608 -15.9259,39.4257 18.6029,65.7357 1.95959,110.142 -14.5142,38.7247 18.5176,42.4528 2.29125,107.395z"/>
  <path fill="#F00000" d="M42.7641 426.231c21.7571,-27.0527 -19.0899,-58.9887 6.81307,-96.876 20.8446,-30.4892 -19.5177,-67.0193 6.74476,-113.611 17.854,-31.6743 -16.5042,-61.2865 3.35395,-92.0132 21.1258,-32.688 -11.6666,-52.1079 20.5535,-77.0758 -10.1421,41.7467 25.7508,41.5443 9.05982,88.0733 -12.058,33.6147 27.6174,46.2767 10.0247,91.0928 -15.5378,39.5807 22.0289,70.0172 8.81037,106.716 -6.56929,18.2384 -0.464882,25.6961 6.20363,35.161l-71.5638 58.5323z"/>
  <path fill="#F00000" d="M137.502 346.733c0.193039,-9.51052 1.6217,-19.3351 5.50092,-29.3672 17.4186,-45.0462 -16.8231,-37.0418 4.06857,-88.9906 14.6991,-36.5511 -19.5018,-63.106 2.92592,-97.2584 21.1261,-32.6886 -14.0216,-57.46 17.3421,-83.2842 -9.82092,39.8197 23.5792,27.5823 10.0233,81.9712 -11.4197,45.8173 28.6872,51.2022 8.52605,101.156 -11.4381,28.3402 10.8904,43.6289 10.6756,67.3668l-59.0624 48.407z"/>
  <path fill="#F00000" d="M228.524 272.652c-4.32624,-17.7574 -5.77786,-36.4745 2.59257,-54.9808 19.0165,-42.0438 -12.1158,-59.3595 7.74284,-90.0865 21.1261,-32.6886 -13.3793,-54.0349 17.1281,-81.5718 -10.1421,33.1832 22.6449,28.6682 10.0233,76.8334 -10.3672,39.5615 24.7266,51.3085 7.13452,96.1243 -7.28306,18.553 -1.28891,36.4153 4.86369,53.9362l-49.485 -0.254835z"/>
  <path fill="#F00000" d="M312.473 302.686c20.4112,-39.3089 -12.8962,-49.4413 12.2428,-93.3648 18.4958,-32.3155 -14.0426,-55.9341 5.49496,-87.3034 21.1261,-32.6886 -11.9877,-44.1868 20.2323,-75.149 -11.8548,38.3213 24.3573,20.9619 5.74158,74.2644 -13.4841,38.6099 27.0235,50.9176 10.2387,99.8711 -13.4907,39.346 17.4019,50.0701 3.99345,86.6988 -7.89931,21.5796 -2.92536,31.4666 2.64586,47.3363l-60.5897 -52.3534z"/>
  <path fill="#F00000" d="M459.283 428.8l-56.3922 -48.7075c-3.87383,-13.6738 -6.44684,-29.9132 2.40463,-51.594 16.2108,-39.7058 -15.0749,-55.6277 6.53046,-98.5176 22.777,-45.2157 -15.0061,-65.5674 6.88649,-106.892 21.1261,-32.6886 -15.1991,-46.4346 22.2662,-71.8305 -10.1421,41.7467 15.2586,23.4235 4.35005,72.4445 -8.8835,39.9206 28.1523,41.8887 9.70356,87.5608 -15.9259,39.4257 18.6029,65.7357 1.95959,110.142 -14.5142,38.7247 18.5176,42.4528 2.29125,107.395z"/>
  <path id="path1937_0" fill="black" d="M251.285 248.129l218.831 187.14c-27.9811,42.6036 -72.8295,72.9723 -118.754,95.6186 -39.947,19.6988 -71.1859,36.0335 -98.4714,46.0545 -26.9014,-9.90142 -60.2215,-28.5106 -97.0898,-45.9213 -49.5179,-23.3844 -95.7493,-52.2315 -124.469,-94.5576l219.952 -188.335z"/>
  <path fill="white" d="M153.329 219.309c2.14158,-7.38709 2.56961,-16.0586 1.28466,-26.0144 3.85455,9.52782 3.42595,19.0553 -1.28466,26.0144z"/>
  <path fill="white" d="M238.438 206.462c2.14158,-7.38709 4.17544,-17.6644 2.89049,-27.6202 3.85455,9.52782 1.82013,20.6612 -2.89049,27.6202z"/>
  <path fill="white" d="M147.869 311.483c2.14158,-7.38709 2.56961,-16.0586 1.28466,-26.0144 3.85455,9.52782 3.42595,19.0553 -1.28466,26.0144z"/>
  <path fill="white" d="M331.897 201.645c1.59562,-7.11383 2.65266,-12.8889 2.56932,-23.4451 3.31682,8.45292 1.81871,15.8409 -2.56932,23.4451z"/>
  <path fill="white" d="M337.357 199.718c1.59562,-7.11383 1.68917,-10.3195 1.60583,-20.8758 3.31682,8.45292 2.78221,13.2715 -1.60583,20.8758z"/>
  <path fill="white" d="M158.789 216.74c1.59562,-7.11383 1.68917,-10.3195 1.60583,-20.8758 2.77937,10.0644 2.45962,14.2384 -1.60583,20.8758z"/>
  <path fill="white" d="M244.219 203.572c1.59562,-7.11383 2.3315,-9.99837 2.24816,-20.5546 2.77909,8.99008 1.81729,13.2724 -2.24816,20.5546z"/>
  <path fill="white" d="M157.825 308.914c2.02365,-6.73937 1.4743,-6.62655 0.963497,-17.6641 2.77937,10.0644 3.10195,11.0268 -0.963497,17.6641z"/>
  <path fill="white" d="M153.008 310.52c1.59562,-7.11383 2.01033,-8.71371 1.92699,-19.2699 2.77937,10.0644 2.13846,12.6326 -1.92699,19.2699z"/>
  <path fill="white" d="M162.322 216.419c0.953292,-3.58101 2.97383,-8.39254 2.24816,-15.7371 2.45821,5.88926 1.17496,11.0268 -2.24816,15.7371z"/>
  <path fill="white" d="M341.853 199.076c0.953292,-2.92337 2.97383,-6.85106 2.24816,-12.8466 2.45821,4.80756 1.17496,9.00142 -2.24816,12.8466z"/>
  <path fill="white" d="M326.759 286.433c1.59562,-7.11383 1.68917,-10.3195 1.60583,-20.8758 3.31682,8.45292 2.78221,13.2715 -1.60583,20.8758z"/>
  <path fill="white" d="M321.941 287.396c2.24051,-10.2762 2.76321,-15.0469 1.60583,-28.2626 3.85399,11.4432 3.10451,17.9671 -1.60583,28.2626z"/>
  <path fill="white" d="M331.255 283.542c0.953292,-3.43474 2.97383,-8.05011 2.24816,-15.0948 2.45821,5.64888 1.17496,10.5766 -2.24816,15.0948z"/>
  <path fill="white" d="M422.787 200.681c0.953292,-2.92309 1.68917,-7.49311 0.963497,-13.4887 2.45821,4.80756 2.45962,9.64347 -0.963497,13.4887z"/>
  <path fill="white" d="M427.283 201.324c0.953292,-3.96737 1.68917,-10.1693 0.963497,-18.3064 2.45821,6.52479 2.45962,13.0881 -0.963497,18.3064z"/>
  <path fill="white" d="M430.139 205.205c1.52136,-3.78624 3.15298,-9.81497 3.62041,-17.9708 1.90913,6.81307 0.954426,13.3061 -3.62041,17.9708z"/>
  <path fill="white" d="M409.94 321.761c1.59732,-2.92309 3.01862,-6.85078 3.61389,-12.8463 1.39918,4.80756 0.656221,9.00114 -3.61389,12.8463z"/>
  <path fill="white" d="M413.543 331.438c1.88674,-3.61786 5.70983,-11.3837 6.97862,-19.4539 0.803056,6.92589 -2.39244,15.2209 -6.97862,19.4539z"/>
  <path fill="white" d="M408.725 329.511c2.74309,-3.19011 8.49345,-16.4163 8.90561,-24.914 1.71326,8.74517 -3.51666,22.2863 -8.90561,24.914z"/>
  <path fill="white" d="M339.988 117.181c1.36205,-2.75669 3.92429,-6.35471 4.0646,-12.3922 1.74444,5.11002 -0.126142,9.07682 -4.0646,12.3922z"/>
  <path fill="white" d="M424.455 118.466c1.36205,-2.75669 3.92429,-6.35471 4.0646,-12.3922 1.74444,5.11002 -0.126142,9.07682 -4.0646,12.3922z"/>
  <path fill="white" d="M337.419 115.897c1.36205,-2.75669 3.92429,-6.35471 4.0646,-12.3922 1.74444,5.11002 -0.126142,9.07682 -4.0646,12.3922z"/>
  <path fill="white" d="M428.63 114.612c1.36205,-2.35814 3.92429,-5.43629 4.0646,-10.6013 1.74444,4.37159 -0.126142,7.76495 -4.0646,10.6013z"/>
  <path fill="white" d="M245.244 126.174c1.36205,-2.75669 3.92429,-6.35471 4.0646,-12.3922 1.74444,5.11002 -0.126142,9.07682 -4.0646,12.3922z"/>
  <path fill="white" d="M156.281 127.78c1.36205,-2.75669 4.88778,-10.851 5.02838,-16.8885 1.74444,5.11002 -1.08992,13.5731 -5.02838,16.8885z"/>
  <path fill="white" d="M161.099 124.568c1.36205,-2.75641 3.924,-6.355 4.0646,-12.3922 2.17276,5.1103 0.30189,9.07682 -4.0646,12.3922z"/>
  <path fill="white" d="M242.354 126.816c1.36205,-2.00098 3.92429,-4.61282 4.0646,-8.99547 1.74444,3.70942 -0.126142,6.58885 -4.0646,8.99547z"/>
  <path fill="#8C0000" d="M166.176 160.215c-1.28466,-9.84926 -0.214016,-19.6988 1.92699,-29.5472 -4.25537,9.84898 -5.37931,19.6977 -1.92699,29.5472z"/>
  <path fill="#8C0000" d="M170.993 161.499c-1.28466,-10.5987 -0.214016,-21.1975 1.92699,-31.7954 -4.25537,10.5985 -5.37931,21.1964 -1.92699,31.7954z"/>
  <path fill="#8C0000" d="M161.679 155.718c-0.534898,-6.69118 0.750048,-13.1151 1.92699,-18.9488 -3.29159,5.83427 -4.62955,12.2573 -1.92699,18.9488z"/>
  <path fill="#8C0000" d="M262.525 158.609c-3.21166,-12.5257 0.428315,-30.8325 1.60583,-41.4304 -3.29188,11.8831 -8.91213,28.262 -1.60583,41.4304z"/>
  <path fill="#8C0000" d="M258.029 155.718c-3.21166,-12.5257 2.03414,-28.5843 2.89049,-39.1822 -2.64954,12.8466 -10.1968,26.0138 -2.89049,39.1822z"/>
  <path fill="#8C0000" d="M253.212 148.974c-3.21166,-12.5257 4.2823,-24.088 5.13865,-34.6859 -2.64954,12.8466 -12.445,21.5175 -5.13865,34.6859z"/>
  <path fill="#8C0000" d="M267.664 253.031c-3.21166,-12.5257 0.10715,-29.869 2.89049,-40.4669 -4.20832,10.6682 -10.7192,26.5142 -2.89049,40.4669z"/>
  <path fill="#8C0000" d="M262.204 250.141c-2.56932,-16.0586 3.96114,-27.6208 4.81748,-38.5399 -3.56599,15.8068 -11.3615,26.5142 -4.81748,38.5399z"/>
  <path fill="#8C0000" d="M258.671 247.572c-2.24702,-15.4137 5.14035,-24.6195 4.81748,-38.5399 -2.92366,18.6973 -11.3615,26.5142 -4.81748,38.5399z"/>
  <path fill="#8C0000" d="M254.175 241.148c-2.56932,-16.0586 4.92463,-19.9128 5.78098,-30.8319 -3.88715,12.274 -12.325,18.8062 -5.78098,30.8319z"/>
  <path fill="#8C0000" d="M182.876 278.725c-8.99263,-26.3359 -1.49868,-52.0294 1.28466,-62.6273 -4.20832,10.6682 -13.6097,35.828 -1.28466,62.6273z"/>
  <path fill="#8C0000" d="M176.774 268.126c-8.56375,-15.7141 4.06829,-42.8735 3.21166,-51.0653 -3.08381,12.0387 -13.9839,36.1576 -3.21166,51.0653z"/>
  <path fill="#8C0000" d="M170.351 263.63c-1.28466,-10.5987 -0.214016,-21.1975 1.92699,-31.7954 -4.25537,10.5985 -5.37931,21.1964 -1.92699,31.7954z"/>
  <path fill="#8C0000" d="M164.891 259.455c-0.534898,-7.48517 1.39238,-17.2406 3.53282,-24.0874 -4.57625,5.88416 -6.23537,16.602 -3.53282,24.0874z"/>
  <path fill="#8C0000" d="M350.525 158.609c-1.28466,-10.5987 -0.535181,-25.3726 1.60583,-35.9705 -4.25537,10.5985 -5.05814,25.3715 -1.60583,35.9705z"/>
  <path fill="#8C0000" d="M346.671 155.076c-0.856347,-8.61166 -0.106583,-20.6158 1.60583,-29.2261 -4.25537,8.61137 -5.05814,20.6144 -1.60583,29.2261z"/>
  <path fill="#8C0000" d="M342.175 149.616c-0.802489,-7.28703 0.161008,-14.5534 1.92699,-21.8393 -4.25537,7.28646 -5.37931,14.5525 -1.92699,21.8393z"/>
  <path fill="#8C0000" d="M355.342 255.601c-3.21052,-25.1694 8.03084,-34.884 8.02914,-52.9923 -1.96044,16.9665 -14.5729,31.0343 -8.02914,52.9923z"/>
  <path fill="#8C0000" d="M358.233 265.557c-3.21052,-30.5085 8.03084,-42.2836 8.02914,-64.2331 -1.96044,20.5654 -14.5729,37.6175 -8.02914,64.2331z"/>
  <path fill="#8C0000" d="M350.846 254.958c-3.21052,-22.5763 8.03084,-31.29 8.02914,-47.5325 -1.96044,15.2184 -14.5729,27.8368 -8.02914,47.5325z"/>
  <path fill="#8C0000" d="M346.671 252.71c-3.21052,-21.966 8.03084,-30.4441 8.02914,-46.2478 -1.96044,14.8071 -14.5729,27.0845 -8.02914,46.2478z"/>
  <path fill="#8C0000" d="M364.014 340.71c-1.28466,-10.5987 -0.214016,-21.1975 1.92699,-31.7954 -4.25537,10.5985 -5.37931,21.1964 -1.92699,31.7954z"/>
  <path fill="#8C0000" d="M359.578 338.097c-0.464882,-11.0597 3.02428,-24.5001 6.93808,-34.6428 -5.70104,8.68989 -9.5641,23.4099 -6.93808,34.6428z"/>
  <path fill="#8C0000" d="M355.342 334.607c-0.856063,-9.52838 2.14158,-17.4507 3.85399,-24.4086 -3.45232,7.03928 -6.3961,14.7997 -3.85399,24.4086z"/>
  <path fill="#8C0000" d="M352.773 332.359c-0.856063,-8.65078 0.535748,-15.8434 2.24816,-22.1604 -3.45232,6.39071 -4.79027,13.4365 -2.24816,22.1604z"/>
  <path fill="#8C0000" d="M431.137 361.906c-0.856063,-8.65078 -1.39124,-19.6974 0.321166,-26.0144 -3.45232,6.39071 -2.86328,17.2908 -0.321166,26.0144z"/>
  <path fill="#8C0000" d="M435.955 361.585c-0.856063,-8.65078 -0.748914,-30.9382 0.963497,-37.2552 -3.45232,6.39071 -4.79027,25.962 -0.963497,37.2552z"/>
  <path fill="#8C0000" d="M439.166 361.264c-2.14073,-8.65078 -0.106299,-34.7922 2.89049,-41.1092 -4.57654,5.26649 -8.16237,28.3703 -2.89049,41.1092z"/>
  <path fill="#8C0000" d="M443.663 362.549c-4.38888,-23.4244 8.244,-41.8578 3.21166,-50.4227 1.52561,12.011 -11.0529,28.37 -3.21166,50.4227z"/>
  <path fill="#8C0000" d="M449.444 369.935c3.99827,-9.19503 -4.17912,-18.381 -0.183402,-35.1873 3.74825,-15.7643 7.34627,-30.062 4.35855,-35.1474 1.00091,7.88202 -3.29443,17.8146 -7.12517,35.4439 -3.19975,14.7243 5.07232,26.3469 2.95002,34.8908z"/>
  <path fill="#8C0000" d="M431.78 251.426c-0.856063,-8.65078 3.42624,-30.6167 8.99263,-40.788 -9.2333,11.8505 -11.5347,32.0641 -8.99263,40.788z"/>
  <path fill="#8C0000" d="M436.918 257.527c-0.441355,-4.46032 -0.935717,-20.3675 1.29742,-23.6004 3.0308,-4.38718 2.10869,-17.0782 7.05289,-23.2895 -6.78558,5.96296 -3.71169,13.2602 -8.388,20.4381 -2.9948,4.59666 -3.03761,19.1602 0.0377008,26.4518z"/>
  <path fill="#8C0000" d="M440.451 263.951c-0.856063,-8.65078 0.535748,-15.8434 2.24816,-22.1604 -3.45232,6.39071 -4.79027,13.4365 -2.24816,22.1604z"/>
  <path fill="#8C0000" d="M438.589 251.672c-0.150236,-8.69159 2.14271,-15.4261 4.36281,-21.583 -3.96029,6.08882 -6.18747,12.6816 -4.36281,21.583z"/>
  <path fill="#8C0000" d="M450.086 275.834c0.321166,-17.4501 -15.0948,-33.2943 0.963497,-66.8024 -12.5255,37.3621 2.56932,47.7465 -0.963497,66.8024z"/>
  <path fill="#8C0000" d="M435.313 147.047c-0.856347,-8.61166 -0.106583,-20.6158 1.60583,-29.2261 -4.25537,8.61137 -5.05814,20.6144 -1.60583,29.2261z"/>
  <path fill="#8C0000" d="M437.26 150.491c0.272977,-9.0516 3.22271,-27.0116 6.04177,-34.8701 -5.76936,6.69855 -8.77125,24.5971 -6.04177,34.8701z"/>
  <path fill="#8C0000" d="M446.518 159.047c-4.25651,-6.51147 -5.29399,-23.4017 -4.17629,-33.0387 -3.96114,10.1296 -2.77824,27.4076 4.17629,33.0387z"/>
  <path fill="#8C0000" d="M89.4172 358.052c-0.534898,-7.48517 -0.534614,-15.9557 0.642331,-22.4816 -3.29159,6.52649 -3.34488,14.9964 -0.642331,22.4816z"/>
  <path fill="#8C0000" d="M94.2347 361.585c-3.42539,-11.6603 0.428882,-27.8391 1.60583,-34.365 -3.29159,6.52649 -7.8412,20.7774 -1.60583,34.365z"/>
  <path fill="#8C0000" d="M98.0887 360.622c-3.42539,-11.6603 0.428882,-27.8391 1.60583,-34.365 -3.29159,6.52649 -7.8412,20.7774 -1.60583,34.365z"/>
  <path fill="#8C0000" d="M102.906 363.833c-6.63704,-20.653 5.8887,-34.9044 0.642331,-45.6055 1.33597,14.8615 -10.2677,30.0215 -0.642331,45.6055z"/>
  <path fill="white" d="M56.9795 318.549c2.14158,-7.38709 2.56961,-16.0586 1.28466,-26.0144 3.85455,9.52782 3.42595,19.0553 -1.28466,26.0144z"/>
  <path fill="white" d="M65.651 320.476c2.14158,-7.38709 2.89077,-11.2411 1.60583,-21.1969 3.85455,9.52782 3.10479,14.2379 -1.60583,21.1969z"/>
  <path fill="white" d="M63.0817 309.557c0.856914,-4.11732 1.28495,-9.83963 0,-17.9853 2.56989,4.58391 4.71062,12.2913 0,17.9853z"/>
  <path fill="#8C0000" d="M81.7093 258.812c-6.63704,-20.653 9.74268,-36.5103 4.49632,-47.2113 1.33597,14.8615 -14.1216,31.6273 -4.49632,47.2113z"/>
  <path fill="#8C0000" d="M91.3442 267.484c-8.24287,-28.6821 9.10035,-39.7216 5.45981,-50.423 -1.55452,12.2924 -16.0486,25.5251 -5.45981,50.423z"/>
  <path fill="#8C0000" d="M86.8479 261.382c-7.39985,-12.5436 2.1549,-41.5151 7.06564,-47.2116 -7.57361,6.09903 -17.583,33.196 -7.06564,47.2116z"/>
  <path fill="#8C0000" d="M86.9743 244.877c0.666142,-7.42422 3.13824,-15.0528 6.12482,-21.1703 -4.62331,5.66136 -7.147,13.2778 -6.12482,21.1703z"/>
  <path fill="white" d="M62.4393 205.499c2.14158,-7.38709 3.5331,-12.8469 2.24816,-22.8028 3.85455,9.52782 2.46246,15.8437 -2.24816,22.8028z"/>
  <path fill="white" d="M67.307 203.382c1.27389,-4.00791 2.28558,-9.65623 1.8411,-17.8906 2.08715,4.82259 3.42766,12.7089 -1.8411,17.8906z"/>
  <path fill="white" d="M71.1613 204.024c1.27389,-3.48265 2.92762,-6.78529 2.48315,-13.9411 2.08743,5.04709 2.78561,10.2943 -2.48315,13.9411z"/>
  <path fill="#8C0000" d="M79.7823 163.747c-0.96293,-7.11978 0.322299,-25.4262 1.92699,-30.8319 -5.53975,5.83427 -6.55654,21.5711 -1.92699,30.8319z"/>
  <path fill="#8C0000" d="M86.8479 173.061c0.503717,-16.2301 -6.61266,-20.5742 -0.321166,-42.7153 -9.7149,19.3229 -3.66605,27.9947 0.321166,42.7153z"/>
  <path fill="white" d="M72.4459 113.134c1.27389,-3.48265 2.92762,-6.78529 2.48315,-13.9411 2.08743,5.04709 2.78561,10.2943 -2.48315,13.9411z"/>
  <path fill="white" d="M68.5919 113.455c1.27389,-3.48265 3.56995,-8.71229 3.12577,-15.8681 2.08715,5.04737 2.14299,12.2213 -3.12577,15.8681z"/>
 </g>
</svg>
