<?xml version="1.0" encoding="UTF-8" standalone="no"?>
<!-- Created with Inkscape (http://www.inkscape.org/) -->

<svg
   xmlns:dc="http://purl.org/dc/elements/1.1/"
   xmlns:cc="http://creativecommons.org/ns#"
   xmlns:rdf="http://www.w3.org/1999/02/22-rdf-syntax-ns#"
   xmlns:svg="http://www.w3.org/2000/svg"
   xmlns="http://www.w3.org/2000/svg"
   xmlns:sodipodi="http://sodipodi.sourceforge.net/DTD/sodipodi-0.dtd"
   xmlns:inkscape="http://www.inkscape.org/namespaces/inkscape"
   version="1.1"
   width="500"
   height="542.59338"
   id="svg1901"
   inkscape:version="0.48.2 r9819"
   sodipodi:docname="konnevesi.svg">
  <sodipodi:namedview
     pagecolor="#ffffff"
     bordercolor="#666666"
     borderopacity="1"
     objecttolerance="10"
     gridtolerance="10"
     guidetolerance="10"
     inkscape:pageopacity="0"
     inkscape:pageshadow="2"
     inkscape:window-width="1600"
     inkscape:window-height="848"
     id="namedview35"
     showgrid="false"
     inkscape:zoom="0.6151096"
     inkscape:cx="159.08317"
     inkscape:cy="287.12855"
     inkscape:window-x="-8"
     inkscape:window-y="-8"
     inkscape:window-maximized="1"
     inkscape:current-layer="svg1901" />
  <defs
     id="defs1903" />
  <metadata
     id="metadata1906">
    <rdf:RDF>
      <cc:Work
         rdf:about="">
        <dc:format>image/svg+xml</dc:format>
        <dc:type
           rdf:resource="http://purl.org/dc/dcmitype/StillImage" />
        <dc:title />
      </cc:Work>
    </rdf:RDF>
  </metadata>
  <g
     transform="translate(-580.87261,-636.60298)"
     id="layer2"
     style="display:inline">
    <g
       transform="matrix(0.30418912,0,0,0.30418912,741.04991,746.71832)"
       id="layer1-8">
      <g
         transform="translate(-448.71375,-295.23557)"
         id="layer2-8"
         style="display:inline">
        <path
           d="m -77.857677,-66.760728 1643.714277,0 -50.1895,1045.918488 c -27.6936,500.69014 -416.1568,737.81844 -769.57634,737.81844 -353.4195,0 -738.2075952,-239.1829 -773.758664,-737.81844 z"
           id="path4044"
           style="fill:#df0000;fill-opacity:1;stroke:none" />
      </g>
      <g
         transform="translate(-432.55131,-279.3274)"
         id="layer9"
         style="display:inline" />
    </g>
  </g>
  <g
     transform="translate(-571.85714,-620.57178)"
     id="layer8"
     style="display:inline">
    <path
       d="m 838.39394,1006.8728 c 32.30119,32.888 36.11173,105.363 -13.9765,105.4178 -49.91433,0.055 -50.2072,-68.6345 -16.71397,-103.6642 0,0 -58.66285,-46.76526 -129.40107,-37.68962 l -10.14015,-19.05121 c 0,0 78.30302,-17.89025 155.73693,41.41428 0,0 70.72655,-54.31993 153.99872,-38.34149 l -7.60512,19.05122 c 0,0 -62.45413,-13.53566 -131.89884,32.86322 z m -17.5588,11.6987 c -26.41681,21.8295 -30.6684,76.5165 5.2677,75.2762 31.44854,-1.0854 21.68911,-53.0867 -5.2677,-75.2762 z"
       id="path4424-6"
       style="fill:#717171;fill-opacity:1;stroke:none;display:inline" />
    <path
       d="m 836.22153,1003.7654 c 34.4305,35.4736 33.96067,106.4059 -16.12754,106.4607 -49.91435,0.055 -48.92528,-72.0674 -15.43204,-107.0971 0,0 -56.05551,-46.33072 -131.13929,-34.86504 L 663.3825,949.21275 c 0,0 76.81046,-16.28906 157.0406,40.21924 0,0 70.03746,-53.73944 153.30963,-37.761 l -8.60377,19.35848 c 0,0 -59.46271,-13.66293 -128.90743,32.73593 z m -16.22052,11.0773 c -26.41682,21.8295 -34.61401,77.5725 1.32209,76.3322 31.44853,-1.0854 25.63473,-54.1427 -1.32209,-76.3322 z"
       id="path4424-6-1"
       style="fill:#ffffff;fill-opacity:1;stroke:none;display:inline" />
    <path
       d="m 835.92367,1005.1707 c 32.56192,35.9516 36.45279,106.0098 -13.63544,106.0646 -49.91434,0.055 -49.79438,-70.9811 -16.30114,-106.0107 0,0 -53.34274,-44.3444 -130.27019,-35.95149 L 665.57675,950.2219 c 0,0 76.15208,-15.09402 155.73693,41.41428 0,0 70.72654,-54.31993 153.99871,-38.34149 l -7.98923,18.74392 c 0,0 -61.9548,-13.26678 -131.39949,33.13209 z m -14.75873,10.9536 c -26.41682,21.8294 -33.5837,77.3001 2.3524,76.0598 31.44855,-1.0855 24.6044,-53.8704 -2.3524,-76.0598 z"
       id="path4424"
       style="fill:#cfcfcf;fill-opacity:1;stroke:none;display:inline" />
  </g>
  <g
     transform="translate(-580.87261,-636.60298)"
     id="layer3"
     style="display:inline">
    <path
       d="m 980.69253,682.95961 c 29.48537,0.0902 48.21397,1.48292 48.21397,1.48292 1.1114,256.53601 -214.51681,167.08284 -269.16936,334.93127 -9.5565,28.3595 -10.51424,35.3597 -79.27932,32.5768 -64.22373,-2.5992 -72.31175,-90.64836 -24.2781,-90.64839 34.41508,0 41.48206,36.25322 22.73814,51.61709 17.82223,4.6616 36.93047,-0.3137 36.93047,-0.3137 61.45637,-226.91933 248.59722,-128.1572 262.3236,-290.94205 -45.1938,-16.07857 -112.22151,-33.9479 -112.22151,-33.9479 43.02104,-5.21466 85.25673,-4.84623 114.74211,-4.75604 z m -323.4006,298.14342 c -6.77998,0 -12.27215,5.49217 -12.27215,12.27212 0,6.77995 5.49217,12.28165 12.27215,12.28165 6.77995,0 12.28163,-5.5017 12.28163,-12.28165 0,-6.77995 -5.50168,-12.27212 -12.28163,-12.27212 z"
       id="path4247-2"
       style="fill:#717171;fill-opacity:1;stroke:none;display:inline" />
    <path
       d="m 977.97664,678.1534 c 29.48536,0.0902 48.92016,1.53724 48.92016,1.53724 1.1113,256.53601 -215.223,167.02852 -269.87556,334.87696 -9.55649,28.3595 -10.51423,35.3597 -79.27932,32.5767 -64.22372,-2.5991 -72.31174,-90.64828 -24.27809,-90.64831 34.41508,0 41.48206,36.25323 22.73814,51.61711 17.82223,4.6616 36.93047,-0.3137 36.93047,-0.3137 61.45637,-226.91934 248.59722,-128.15721 262.32357,-290.94206 -45.1938,-16.07857 -109.30235,-29.14669 -109.30235,-29.14669 43.02103,-5.21466 82.3376,-9.64744 111.82298,-9.55725 z m -323.4006,298.14341 c -6.77998,0 -12.27215,5.49217 -12.27215,12.27212 0,6.77995 5.49217,12.28167 12.27215,12.28167 6.77995,0 12.28163,-5.50172 12.28163,-12.28167 0,-6.77995 -5.50168,-12.27212 -12.28163,-12.27212 z"
       id="path4247-2-4"
       style="fill:#ffffff;fill-opacity:1;stroke:none;display:inline" />
    <path
       d="m 978.66888,681.3705 c 29.48542,0.0902 48.21402,1.48292 48.21402,1.48292 1.1113,256.53597 -214.51688,167.08283 -269.16941,334.93118 -9.5565,28.3596 -10.51424,35.3598 -79.27929,32.5768 -64.22372,-2.5991 -72.31175,-90.64831 -24.2781,-90.64834 34.41508,0 41.48206,36.25323 22.73814,51.61714 17.82223,4.6616 36.93048,-0.3138 36.93048,-0.3138 61.45633,-226.91924 248.7508,-130.10169 262.47718,-292.88655 -45.19381,-16.07856 -110.38264,-30.41891 -110.38264,-30.41891 43.02105,-5.21467 83.26424,-6.43063 112.74962,-6.34044 z M 655.26831,979.51389 c -6.77998,0 -12.27214,5.49216 -12.27214,12.27211 0,6.77995 5.49216,12.2816 12.27214,12.2816 6.77995,0 12.28164,-5.50165 12.28164,-12.2816 0,-6.77995 -5.50169,-12.27211 -12.28164,-12.27211 z"
       id="path4247"
       style="fill:#cfcfcf;fill-opacity:1;stroke:none;display:inline" />
    <path
       d="m 681.47009,682.95961 c -29.48539,0.0902 -48.21398,1.48292 -48.21398,1.48292 -1.11137,256.53601 214.51681,167.08284 269.16935,334.93127 9.5565,28.3595 10.51424,35.3597 79.27935,32.5768 64.22369,-2.5992 72.31179,-90.64836 24.27809,-90.64839 -34.41507,0 -41.48205,36.25322 -22.73813,51.61709 -17.82223,4.6616 -36.93047,-0.3137 -36.93047,-0.3137 C 884.8579,785.68627 697.71707,884.4484 683.9907,721.66355 c 45.19381,-16.07857 112.22149,-33.9479 112.22149,-33.9479 -43.02104,-5.21466 -85.25672,-4.84623 -114.7421,-4.75604 z m 323.40061,298.14342 c 6.78,0 12.2721,5.49217 12.2721,12.27212 0,6.77995 -5.4921,12.28165 -12.2721,12.28165 -6.77995,0 -12.28163,-5.5017 -12.28163,-12.28165 0,-6.77995 5.50168,-12.27212 12.28163,-12.27212 z"
       id="path4247-2-5"
       style="fill:#717171;fill-opacity:1;stroke:none;display:inline" />
    <path
       d="m 684.18599,678.1534 c -29.48538,0.0902 -48.92012,1.53724 -48.92012,1.53724 -1.11137,256.53601 215.22294,167.02852 269.87549,334.87696 9.55649,28.3595 10.51423,35.3597 79.27935,32.5767 64.22369,-2.5991 72.31179,-90.64828 24.27809,-90.64831 -34.41508,0 -41.48206,36.25323 -22.73814,51.61711 -17.82222,4.6616 -36.93047,-0.3137 -36.93047,-0.3137 C 887.57379,780.88006 700.43298,879.64219 686.7066,716.85734 c 45.19382,-16.07857 109.30235,-29.14669 109.30235,-29.14669 -43.02103,-5.21466 -82.33757,-9.64744 -111.82296,-9.55725 z m 323.40061,298.14341 c 6.78,0 12.2721,5.49217 12.2721,12.27212 0,6.77995 -5.4921,12.28167 -12.2721,12.28167 -6.78,0 -12.28164,-5.50172 -12.28164,-12.28167 0,-6.77995 5.50164,-12.27212 12.28164,-12.27212 z"
       id="path4247-2-4-5"
       style="fill:#ffffff;fill-opacity:1;stroke:none;display:inline" />
    <path
       d="m 683.49375,681.3705 c -29.48539,0.0902 -48.21398,1.48293 -48.21398,1.48293 -1.11137,256.53596 214.51681,167.08282 269.16934,334.93117 9.5565,28.3596 10.51424,35.3598 79.27932,32.5768 64.22377,-2.5991 72.31177,-90.64831 24.27807,-90.64834 -34.41505,0 -41.48203,36.25323 -22.73811,51.61714 -17.82223,4.6616 -36.93048,-0.3138 -36.93048,-0.3138 C 886.88155,784.09716 699.5871,880.91471 685.86072,718.12985 c 45.19381,-16.07856 110.38263,-30.4189 110.38263,-30.4189 -43.02104,-5.21467 -83.26422,-6.43064 -112.7496,-6.34045 z m 323.40055,298.14339 c 6.78,0 12.2722,5.49216 12.2722,12.27211 0,6.77995 -5.4922,12.2816 -12.2722,12.2816 -6.7799,0 -12.28162,-5.50165 -12.28162,-12.2816 0,-6.77995 5.50172,-12.27211 12.28162,-12.27211 z"
       id="path4247-1"
       style="fill:#cfcfcf;fill-opacity:1;stroke:none;display:inline" />
    <path
       d="m 888.93423,836.21387 a 72.73098,72.73098 0 1 1 -145.46196,0 72.73098,72.73098 0 1 1 145.46196,0 z"
       transform="matrix(0.30418912,0,0,0.30418912,584.55994,636.91027)"
       id="path4329"
       style="fill:#818181;fill-opacity:1;fill-rule:evenodd;stroke:none;display:inline" />
    <path
       d="m 888.93423,836.21387 a 72.73098,72.73098 0 1 1 -145.46196,0 72.73098,72.73098 0 1 1 145.46196,0 z"
       transform="matrix(0.30418912,0,0,0.30418912,581.17989,634.45205)"
       id="path4329-2"
       style="fill:#ffffff;fill-opacity:1;fill-rule:evenodd;stroke:none;display:inline" />
    <path
       d="m 888.93423,836.21387 a 72.73098,72.73098 0 1 1 -145.46196,0 72.73098,72.73098 0 1 1 145.46196,0 z"
       transform="matrix(0.30418912,0,0,0.30418912,582.71628,635.68116)"
       id="path4329-7"
       style="fill:#cfcfcf;fill-opacity:1;fill-rule:evenodd;stroke:none;display:inline" />
    <path
       d="m 829.33522,835.9613 a 5.3033009,5.3033009 0 1 1 -10.6066,0 5.3033009,5.3033009 0 1 1 10.6066,0 z"
       transform="matrix(0.30418912,0,0,0.30418912,580.4117,635.91162)"
       id="path4368"
       style="fill:none;stroke:#818181;stroke-width:1.5;stroke-linecap:butt;stroke-linejoin:miter;stroke-miterlimit:4;stroke-opacity:1;stroke-dasharray:none" />
    <path
       d="m 829.19117,890.00031 c 0,0 0.3222,-1.64175 1.86287,-1.65162 1.49798,-0.01 1.86287,1.54599 1.86287,1.54599 0,0 -0.30699,-1.86752 -1.89168,-1.86287 -1.58485,0.005 -1.83406,1.9685 -1.83406,1.9685 z"
       id="path4370"
       style="fill:#ffffff;fill-opacity:1;stroke:none" />
    <path
       d="m 828.39389,887.38374 -6.61579,-15.46479 c 0,0 -6.52964,3.14959 -8.91104,9.37197 z"
       id="path4403"
       style="fill:#ffffff;fill-opacity:1;stroke:none" />
    <path
       d="m 679.94921,965.31772 c -11.16265,1.54811 -30.70737,6.46639 -28.24916,16.76018 2.45822,10.29379 11.36927,12.29109 14.44204,10.44743 3.07278,-1.84366 -0.57343,-4.68664 31.67315,-8.48739 11.02402,-1.29937 -17.86603,-18.72022 -17.86603,-18.72022 z"
       id="path4498"
       style="fill:#cfcfcf;fill-opacity:1;stroke:none" />
    <path
       d="m 676.69218,965.82942 -0.97774,-0.97775 c -41.82601,7.17016 -19.98958,34.3299 -9.34296,27.37699 -12.60212,3.91099 -25.74743,-20.20683 10.3207,-26.39924 z"
       id="path4504"
       style="fill:#ffffff;fill-opacity:1;stroke:none" />
    <path
       d="m 687.9972,986.8791 c 0,0 -11.98382,0.92184 -21.08691,4.87803 0,0 -1.35625,-0.12572 0.16222,-0.84257 3.27338,-1.54528 12.19878,-6.04585 29.84505,-6.47658 z"
       id="path4506"
       style="fill:#717171;fill-opacity:1;stroke:none" />
    <path
       d="m 979.62726,968.44484 c 11.16265,1.54811 30.70734,6.46639 28.24914,16.76018 -2.4582,10.29379 -11.36926,12.2911 -14.44202,10.44744 -3.0728,-1.84366 -17.07575,-8.56311 -25.47609,-8.83311 -11.09459,-0.35657 11.66897,-18.37451 11.66897,-18.37451 z"
       id="path4498-4"
       style="fill:#cfcfcf;fill-opacity:1;stroke:none;display:inline" />
    <path
       d="m 982.88428,968.95655 0.97775,-0.97776 c 41.82597,7.17017 19.98957,34.32991 9.34296,27.37699 12.60211,3.91099 25.74741,-20.20682 -10.32071,-26.39923 z"
       id="path4504-2"
       style="fill:#ffffff;fill-opacity:1;stroke:none;display:inline" />
    <path
       d="m 973.59833,989.17855 c 0,0 12.27965,1.12371 19.51598,6.00445 0,0 0.59311,-0.12611 -0.74955,-1.13453 -2.31315,-1.73732 -8.64506,-6.1539 -25.48987,-7.18519 z"
       id="path4506-3"
       style="fill:#717171;fill-opacity:1;stroke:none;display:inline" />
    <path
       d="m 831.95667,1033.6621 c 0,0 -8.10246,-7.6795 -26.41342,-19.2474 l 6.16939,6.5068 c 0,0 8.80133,5.8466 17.94058,13.6317 z"
       id="path4532"
       style="fill:#717171;fill-opacity:1;stroke:none" />
    <path
       d="m 846.00055,1020.5958 c 0,0 -14.65036,-15.7566 -25.76632,-21.19479 l -3.86406,-1.01538 c 0,0 17.73684,9.89147 33.79322,29.06187 z"
       id="path4534"
       style="fill:#ffffff;fill-opacity:1;stroke:none" />
  </g>
</svg>
