<?xml version="1.0" encoding="UTF-8"?>
<!DOCTYPE svg PUBLIC "-//W3C//DTD SVG 1.1//EN" "http://www.w3.org/Graphics/SVG/1.1/DTD/svg11.dtd">
<!-- Creator: CorelDRAW -->
<svg xmlns="http://www.w3.org/2000/svg" xml:space="preserve" width="500px" height="583px" shape-rendering="geometricPrecision" text-rendering="geometricPrecision" image-rendering="optimizeQuality" fill-rule="evenodd" clip-rule="evenodd"
viewBox="0 0 500 583"
 xmlns:xlink="http://www.w3.org/1999/xlink"
 xmlns:svg="http://www.w3.org/2000/svg"
 version="1.0">
 <g id="Layer_x0020_1">
  <metadata id="CorelCorpID_0Corel-Layer"/>
  <path id="path1937" fill="#CCCCCC" stroke="black" stroke-width="0.992126" d="M0.604914 1.13839l498.82 0.000283465 0 335.462c1.66167,324.817 -497.159,328.494 -498.821,2.00013l0.000283465 -337.463z"/>
  <path fill="#F00000" stroke="#F00000" stroke-width="0.216" d="M209.153 74.5736c2.28643,-6.02816 3.6377,-11.9271 7.95062,-14.3821 4.3132,-2.45509 13.1485,0.0909922 20.736,1.28608 -11.2252,-6.84029 -19.8196,-9.33931 -25.7834,-7.49793 -4.63805,1.43235 -6.43748,6.11433 -9.13947,12.1751 2.60107,1.76315 4.47052,4.98671 6.23622,8.4189z"/>
  <path fill="white" stroke="white" stroke-width="0.216" d="M172.047 132.213l-78.2646 -0.311811c6.32438,8.27802 17.3259,17.8033 18.661,24.2104 0.535748,2.21953 13.2318,23.4595 21.2508,28.4857l62.674 -32.4284 -24.3213 -19.9559z"/>
  <path fill="white" stroke="white" stroke-width="0.216" d="M83.4171 94.398c10.8139,-1.4658 21.7437,-4.02038 30.8361,-2.84173 13.1862,1.70958 26.5694,3.77206 36.5457,18.7512 -14.5579,-1.24781 -22.2528,7.27852 -17.4694,18.7172 -2.75783,3.50476 -60.7473,2.95625 -62.3906,0.623906 -1.14265,-10.7121 3.95206,-29.2184 12.4781,-35.2505z"/>
  <path fill="white" stroke="white" stroke-width="0.216" d="M31.4204 211.413c8.05493,-4.00252 14.9148,-4.83421 22.1386,0.311811 2.39046,-0.935434 4.15729,-4.67717 2.49449,-7.79528 -11.1507,-5.57207 -22.9998,-1.72573 -24.6331,7.48347z"/>
  <path fill="white" stroke="white" stroke-width="0.216" d="M35.4739 238.852c8.67856,-2.75528 13.3557,-6.70507 20.2677,-2.49449 3.01408,-1.87087 1.97462,-7.48347 0.935434,-8.73071 -10.0077,-2.19402 -18.739,2.7961 -21.2032,11.2252z"/>
  <path fill="white" stroke="white" stroke-width="0.216" d="M212.894 90.1183l5.30079 0 0 -9.97796c-3.7423,1.55934 -5.50885,5.19704 -5.30079,9.97796z"/>
  <path fill="white" stroke="white" stroke-width="0.216" d="M40.1511 251.325c8.67856,-2.75528 12.1085,-5.76964 19.0205,-1.55906 4.57314,-1.55906 1.6628,-8.73071 0.623622,-9.97796 -10.0077,-2.19402 -17.1799,3.10791 -19.6441,11.537z"/>
  <path fill="white" stroke="white" stroke-width="0.216" d="M46.3873 263.173c8.67856,-2.75528 9.9258,-6.70507 16.8378,-2.49449 4.57314,-1.55906 2.59824,-7.79528 1.55906,-9.04252 -9.64432,-2.19402 -15.4653,3.10819 -18.3969,11.537z"/>
  <path fill="white" stroke="white" stroke-width="0.216" d="M34.2267 225.132c8.67856,-2.75528 13.3557,-5.76964 20.2677,-1.55906 3.01408,-1.87087 2.28643,-6.23622 1.24724,-7.48347 -10.3192,-5.57207 -19.0505,-0.166394 -21.515,9.04252z"/>
  <path fill="white" stroke="white" stroke-width="0.216" d="M275.639 334.24l14.7804 24.6997c-1.19254,18.7486 -1.34674,33.3916 -11.0645,42.9925 -38.1118,-20.005 -78.0166,12.4912 -48.4645,46.4304 -1.6645,9.7441 -9.97682,20.1181 -18.5803,26.1034 -16.513,11.488 -37.1566,16.7814 -43.3106,29.0702 -6.88734,-11.5194 16.7828,-15.5554 9.27213,-29.2575 -8.56148,17.0955 -33.5452,15.2745 -36.5973,29.4602 -7.85622,-10.4581 7.98548,-15.9273 7.3012,-22.9553 -9.34441,4.05014 -16.1433,11.3698 -26.4742,11.2156 -17.4348,-0.260504 -24.0857,-12.8993 -26.8433,-26.2259 -3.54558,-17.1337 2.62573,-36.4368 20.8596,-35.7134 16.619,-0.81241 30.6023,14.7886 46.135,1.56473 7.80152,-6.64186 7.16996,-22.5391 4.39229,-44.426 -11.5574,14.5423 -25.1147,18.2492 -38.31,10.3337 15.9024,-0.461481 25.257,-4.87219 26.193,-14.4794 -17.2862,9.17292 -31.0904,7.43273 -35.1757,-3.3497 12.5549,6.41849 23.0312,1.19565 31.4291,-15.6677 -18.6276,9.3773 -30.4988,6.20419 -34.9903,-9.36284 31.163,22.8776 31.9363,-36.2092 87.8151,-35.8223 19.6169,0.13578 42.3505,19.51 71.6327,15.3896z"/>
  <path fill="white" stroke="white" stroke-width="0.216" d="M88.7936 489.548c8.14224,-0.30841 10.7107,-2.89786 19.3323,-1.87087 3.32589,-3.42992 -1.45531,-6.85985 -3.11811,-7.48347 -12.7967,-0.858898 -14.4184,5.01392 -16.2142,9.35434z"/>
  <path fill="white" stroke="white" stroke-width="0.216" d="M79.4393 478.011c8.14224,-0.30841 11.6461,-0.0915591 20.2677,0.935434 3.32589,-3.42992 -0.208063,-8.73071 -1.87087,-9.35434 -9.57062,0.700725 -13.1689,3.14334 -18.3969,8.4189z"/>
  <path fill="white" stroke="white" stroke-width="0.216" d="M73.5149 464.292c8.14224,-0.30841 12.5816,0.220252 21.2032,1.24724 3.32589,-3.42992 0.103748,-9.66615 -1.55906,-10.2898 -9.57062,0.700725 -14.4162,3.76696 -19.6441,9.04252z"/>
  <path fill="white" stroke="white" stroke-width="0.216" d="M72.2676 451.507c8.14224,-0.30841 13.8288,0.532063 22.4504,1.55906 4.57314,-2.18268 1.6628,-9.35434 -2.8063,-10.6016 -9.57062,0.700725 -14.4162,3.76696 -19.6441,9.04252z"/>
  <path fill="white" stroke="white" stroke-width="0.216" d="M72.5794 438.411c6.99166,-2.36551 12.8197,-2.50951 17.3064,-1.26964 3.48945,0.964347 5.23219,4.6372 7.95033,5.01137 4.57314,-2.18268 4.15729,-9.04252 -5.92441,-12.4724 -9.57062,0.700725 -14.1044,3.45515 -19.3323,8.73071z"/>
  <path fill="black" stroke="black" stroke-width="0.216" d="M172.047 134.441l-78.2646 -0.311811c6.32438,8.27802 17.3259,17.8033 18.661,24.2104 0.535748,2.21953 13.2318,23.4595 21.2508,28.4857l62.674 -32.4284 -24.3213 -19.9559z"/>
  <path fill="#F00000" stroke="#F00000" stroke-width="0.216" d="M212.894 92.3468l5.30079 0 0 -9.97796c-3.7423,1.55934 -5.50885,5.19704 -5.30079,9.97796z"/>
  <path fill="white" stroke="white" stroke-width="1.98425" d="M31.7322 111.188l192.636 1.02558 164.209 -3.25417 1.1143 18.218 -237.739 4.44189 -121.334 -1.09899c-8.96627,-3.36841 -9.70923,-18.7268 1.1143,-19.3323z"/>
  <path fill="white" stroke="white" stroke-width="0.216" d="M388.444 105.397l32.4105 -0.00396851c2.29238,-12.9909 -2.06702,-26.8132 -13.0782,-41.4669 18.7288,3.06284 33.9976,11.9537 36.9094,41.658 27.5077,4.6647 47.9452,16.3463 46.3442,37.8539 -18.913,-17.2055 -55.4998,-18.14 -100.403,-11.8488 -1.65685,-7.56142 -8.57906,-7.59118 -8.59465,-13.4958 -0.0124724,-4.80728 5.17125,-6.64215 6.41197,-12.6964z"/>
  <path fill="#F00000" stroke="red" stroke-width="1.98425" d="M31.7322 113.417l192.636 1.02558 164.209 -3.25417 1.1143 18.218 -237.739 4.44189 -121.334 -1.09899c-9.55078,-1.77732 -9.97484,-17.7727 1.1143,-19.3323z"/>
  <path fill="black" d="M83.4171 96.6266c10.8139,-1.4658 21.7437,-4.02038 30.8361,-2.84173 13.1862,1.70958 26.5694,3.77206 36.5457,18.7512 -14.5579,-1.24781 -22.2528,7.27852 -17.4694,18.7172 -2.75783,3.50476 -60.7473,2.95625 -62.3906,0.623906 -1.14265,-10.7121 3.95206,-29.2184 12.4781,-35.2505z"/>
  <path fill="#F00000" stroke="red" stroke-width="0.216" d="M72.2676 131.323c1.14293,-2.49704 9.76961,-2.60277 10.9134,1.24724 -0.415843,7.17166 -3.9498,12.7843 -5.6126,19.3323 -2.80658,-4.98898 -4.15814,-10.6016 -5.30079,-20.5795z"/>
  <path fill="#F00000" stroke="red" stroke-width="0.216" d="M84.9385 131.635c1.55906,-2.70255 8.00278,-2.70255 9.04252,0.311811 -0.415843,7.17166 -1.76712,13.7197 -4.67717,19.6441 -2.80658,-2.8063 -5.09358,-5.6126 -4.36536,-19.9559z"/>
  <path fill="#F00000" stroke="red" stroke-width="0.216" d="M97.1558 131.635c1.45644,-2.49676 7.48489,-2.9143 8.10709,0.935434 -0.0626457,8.10681 -0.922111,11.8485 -3.42992,18.085 -5.71663,-6.02844 -5.19733,-8.52322 -4.67717,-19.0205z"/>
  <path fill="black" stroke="black" stroke-width="0.216" d="M388.444 107.626l32.4105 -0.00396851c2.29238,-12.9909 -2.06702,-26.8132 -13.0782,-41.4669 18.7288,3.06284 33.9976,11.9537 36.9094,41.658 27.5077,4.6647 47.9452,16.3463 46.3442,37.8539 -18.913,-17.2055 -55.4998,-18.14 -100.403,-11.8488 -1.65685,-7.56142 -8.57906,-7.59118 -8.59465,-13.4958 -0.0124724,-4.80728 5.17125,-6.64215 6.41197,-12.6964z"/>
  <path fill="#F00000" stroke="red" stroke-width="0.216" d="M109.827 131.635c1.76684,-2.8063 7.58722,-2.18268 9.04252,0 -0.415843,7.17166 -2.70255,14.0315 -5.30079,20.5795 -4.05383,-4.05355 -4.15814,-7.48347 -3.74173,-20.5795z"/>
  <path fill="#F00000" stroke="red" stroke-width="0.216" d="M121.874 131.947c1.14321,-1.87087 6.96359,-2.49449 8.4189,-0.311811 0.519591,7.48347 -0.208063,14.6551 -3.74173,20.2677 -3.43021,-4.67717 -4.15814,-9.35434 -4.67717,-19.9559z"/>
  <path fill="none" stroke="white" stroke-width="1.41732" d="M396.551 126.646c40.614,-5.01591 67.1695,-5.27556 85.7481,4.36536"/>
  <path fill="none" stroke="white" stroke-width="1.41732" d="M419.002 74.8854c6.75581,10.9131 9.56155,17.9807 9.66615,25.5685"/>
  <path fill="white" stroke="white" stroke-width="0.216" d="M187.503 37.6112c5.87622,-1.9457 13.2395,-6.1784 20.4293,-7.29581 7.73008,-1.20132 16.0435,0.988725 17.8041,-1.10381 6.36662,-7.56652 12.9209,-11.2901 21.678,-12.7749 10.4471,-1.77137 20.1033,2.94945 32.6101,3.1955 22.7588,-23.5627 41.0786,-2.61553 22.8748,5.48986 2.64161,1.35666 5.2835,2.40151 7.92539,4.69389 14.6169,-6.86296 33.5702,-6.86552 34.4492,2.27225 0.597544,6.21156 -0.84841,12.9855 -13.866,20.9115 18.0156,9.06322 10.463,29.9753 29.7261,20.6419 -2.24051,9.21005 -10.7175,12.1844 -25.4299,8.9229 11.507,9.35887 21.4552,33.6847 30.7797,14.0454 3.72246,8.37185 -4.09181,17.4716 -15.0236,19.8156 10.3122,9.81893 5.65739,47.3891 25.3242,26.6508 -0.996945,8.02063 -4.80019,26.0195 -29.4948,3.17112 15.359,21.6961 2.65493,36.5324 27.0567,34.8426 -9.57204,12.8713 -21.6125,11.425 -35.3415,0.182835 5.54939,14.6849 3.91805,28.4352 -0.522142,43.1212 6.38646,7.49537 16.7607,27.203 23.6231,51.4077 2.2354,7.8857 5.42722,49.3688 27.1698,50.3144 14.6951,0.639213 17.4957,-10.2674 15.6283,-21.2287 -2.11663,-12.422 -9.45582,-25.1059 2.20536,-30.581 -4.4144,19.6022 14.2452,13.9476 13.8844,45.7104 11.2215,-5.55506 -2.50158,-21.7114 18.6982,-26.9544 -14.821,15.8406 3.41008,19.8323 -9.85182,40.0385 10.5656,-2.32384 13.1074,-22.1871 25.4537,-17.1873 -13.2593,4.75512 -11.5359,31.4022 -39.2627,38.5824 -10.061,2.60532 -22.2148,1.98992 -38.1773,-5.6435 -2.05313,8.99348 2.00126,18.3725 1.1914,25.8812 -1.90347,17.6471 -12.0308,33.2442 -10.4477,42.0602 1.83062,10.1945 10.9979,16.6045 19.7005,14.6174 9.26476,-2.11521 16.2167,-12.3766 19.5001,-12.8285 3.34347,0.991276 6.70394,6.95594 7.33408,13.4011 2.60504,26.6443 -10.7464,60.1997 5.52019,69.698 -6.91484,0.072567 -13.5176,-0.7903 -17.9376,-16.9319 1.55679,20.9764 -6.55257,26.9858 -2.18948,38.6082 -17.0351,-1.72743 -3.82451,-15.6155 -9.6344,-26.697 -1.77676,23.324 -18.5786,40.7824 -47.7939,51.6351 -29.3253,-2.3298 -44.9309,-16.7162 -50.5579,-37.5463 19.6146,-16.9897 33.2606,-5.1361 48.3183,-10.1435 12.2057,-4.05865 15.247,-16.9642 1.37906,-31.9278 -16.1714,8.43591 -39.2026,1.59307 -39.1598,-21.4639 -9.26901,6.93043 -4.81833,23.5273 -23.1299,23.5982 15.4845,-7.86388 2.59427,-23.523 16.5198,-33.8811 -16.4965,5.22539 -14.9077,29.4713 -31.7157,25.0308 14.1925,-6.32183 4.37556,-17.009 13.5794,-30.1907 -8.59068,1.62284 -6.89159,18.8362 -26.7072,21.7063 14.1216,-8.57254 8.99887,-26.7696 14.1211,-39.1394 2.4137,-5.82974 8.62867,-7.31651 15.6308,-10.9131 6.58772,-3.38372 10.1991,-17.9572 11.986,-44.8254 -9.5607,-16.7009 -19.2603,-33.3318 -29.8576,-42.2059 -16.5317,-13.8436 -32.9735,-20.4236 -35.6363,-41.1568 -6.07692,2.41824 -3.73465,26.3517 -19.1656,25.964 12.0039,-12.2579 6.54633,-19.5265 6.38958,-37.0848 -11.2734,12.1853 -4.14964,29.4117 -20.0996,28.9168 10.923,-10.4431 3.76129,-20.2623 5.64208,-30.3934 -6.02419,6.29292 -7.78734,24.4347 -19.3198,19.8142 15.7382,-9.28092 -2.19884,-27.2925 15.0987,-52.164 -9.42208,4.89827 -19.1557,16.3446 -20.4704,27.7909 -5.292,-4.91188 -1.38728,-9.19531 -0.314362,-16.8557 -6.103,7.03474 -21.2485,10.0162 -19.8678,19.8576 -8.16463,-7.92256 3.93846,-13.3506 0.762804,-20.9614 -5.87679,13.1808 -20.4843,11.0829 -23.243,25.5113 -7.29752,-8.21396 2.97014,-16.2204 4.61197,-21.2122 -6.35046,1.53326 -6.64328,6.63903 -12.1085,10.2841 -8.51358,5.67808 -19.1486,6.91541 -19.6285,20.9957 -8.23295,-11.7369 6.60841,-17.1335 6.17131,-23.673 -8.65049,8.08526 -26.9671,3.69836 -30.6284,21.4501 -5.66334,-10.3765 2.39329,-17.011 10.1381,-21.7746 -6.47745,-2.36806 -18.8269,11.3213 -23.3286,7.39446 -10.6013,-11.6161 -14.9273,-29.5855 -13.0547,-53.6735 7.35222,-0.0589607 10.3394,-4.48356 18.627,-4.85433 11.7774,-0.526961 25.9631,0.530646 37.6971,-0.606898 9.16243,-6.49871 21.1314,-17.9861 31.2296,-17.6247 13.4924,-9.13862 29.2723,-17.7055 46.0922,-26.0116 17.9368,-17.246 28.7816,-32.2793 54.2123,-26.8424 3.58668,-14.3011 -3.22753,-24.3417 -17.3404,-24.5299 -7.90668,-0.105732 -15.1793,2.42816 -19.5097,-0.379276 -6.74192,-4.37103 -9.89349,-10.5616 -5.03433,-14.4332 34.8945,1.91622 46.2198,0.462898 47.0574,-12.744 0.651969,-10.2827 -11.5081,-24.8701 -34.6334,-25.9469 -4.16296,-0.193606 -9.22763,7.30602 -10.9769,13.5831 -13.8546,-0.072567 -17.2111,-8.95352 -15.37,-27.4227z"/>
  <path fill="black" stroke="black" stroke-width="0.216" d="M187.503 39.8398c5.87622,-1.9457 13.2395,-6.1784 20.4293,-7.29581 7.73008,-1.20132 16.0435,0.988725 17.8041,-1.10381 6.36662,-7.56652 12.9209,-11.2901 21.678,-12.7749 10.4471,-1.77137 20.1033,2.94945 32.6101,3.1955 22.7588,-23.5627 41.0786,-2.61553 22.8748,5.48986 2.64161,1.35666 5.2835,2.40151 7.92539,4.69389 14.6169,-6.86296 33.5702,-6.86552 34.4492,2.27225 0.597544,6.21156 -0.84841,12.9855 -13.866,20.9115 18.0156,9.06322 10.463,29.9753 29.7261,20.6419 -2.24051,9.21005 -10.7175,12.1844 -25.4299,8.9229 11.507,9.35887 21.4552,33.6847 30.7797,14.0454 3.72246,8.37185 -4.09181,17.4716 -15.0236,19.8156 10.3122,9.81893 5.65739,47.3891 25.3242,26.6508 -0.996945,8.02063 -4.80019,26.0195 -29.4948,3.17112 15.359,21.6961 2.65493,36.5324 27.0567,34.8426 -9.57204,12.8713 -21.6125,11.425 -35.3415,0.182835 5.54939,14.6849 3.91805,28.4352 -0.522142,43.1212 6.38646,7.49537 16.7607,27.203 23.6231,51.4077 2.2354,7.8857 5.42722,49.3688 27.1698,50.3144 14.6951,0.639213 17.4957,-10.2674 15.6283,-21.2287 -2.11663,-12.422 -9.45582,-25.1059 2.20536,-30.581 -4.4144,19.6022 14.2452,13.9476 13.8844,45.7104 11.2215,-5.55506 -2.50158,-21.7114 18.6982,-26.9544 -14.821,15.8406 3.41008,19.8323 -9.85182,40.0385 10.5656,-2.32384 13.1074,-22.1871 25.4537,-17.1873 -13.2593,4.75512 -11.5359,31.4022 -39.2627,38.5824 -10.061,2.60532 -22.2148,1.98992 -38.1773,-5.6435 -2.05313,8.99348 2.00126,18.3725 1.1914,25.8812 -1.90347,17.6471 -12.0308,33.2442 -10.4477,42.0602 1.83062,10.1945 10.9979,16.6045 19.7005,14.6174 9.26476,-2.11521 16.2167,-12.3766 19.5001,-12.8285 3.34347,0.991276 6.70394,6.95594 7.33408,13.4011 2.60504,26.6443 -10.7464,60.1997 5.52019,69.698 -6.91484,0.072567 -13.5176,-0.7903 -17.9376,-16.9319 1.55679,20.9764 -6.55257,26.9858 -2.18948,38.6082 -17.0351,-1.72743 -3.82451,-15.6155 -9.6344,-26.697 -1.77676,23.324 -18.5786,40.7824 -47.7939,51.6351 -29.3253,-2.3298 -44.9309,-16.7162 -50.5579,-37.5463 19.6146,-16.9897 33.2606,-5.1361 48.3183,-10.1435 12.2057,-4.05865 15.247,-16.9642 1.37906,-31.9278 -16.1714,8.43591 -39.2026,1.59307 -39.1598,-21.4639 -9.26901,6.93043 -4.81833,23.5273 -23.1299,23.5982 15.4845,-7.86388 2.59427,-23.523 16.5198,-33.8811 -16.4965,5.22539 -14.9077,29.4713 -31.7157,25.0308 14.1925,-6.32183 4.37556,-17.009 13.5794,-30.1907 -8.59068,1.62284 -6.89159,18.8362 -26.7072,21.7063 14.1216,-8.57254 8.99887,-26.7696 14.1211,-39.1394 2.4137,-5.82974 8.62867,-7.31651 15.6308,-10.9131 6.58772,-3.38372 10.1991,-17.9572 11.986,-44.8254 -9.5607,-16.7009 -19.2603,-33.3318 -29.8576,-42.2059 -16.5317,-13.8436 -32.9735,-20.4236 -35.6363,-41.1568 -6.07692,2.41824 -3.73465,26.3517 -19.1656,25.964 12.0039,-12.2579 6.54633,-19.5265 6.38958,-37.0848 -11.2734,12.1853 -4.14964,29.4117 -20.0996,28.9168 10.923,-10.4431 3.76129,-20.2623 5.64208,-30.3934 -6.02419,6.29292 -7.78734,24.4347 -19.3198,19.8142 15.7382,-9.28092 -2.19884,-27.2925 15.0987,-52.164 -9.42208,4.89827 -19.1557,16.3446 -20.4704,27.7909 -5.292,-4.91188 -1.38728,-9.19531 -0.314362,-16.8557 -6.103,7.03474 -21.2485,10.0162 -19.8678,19.8576 -8.16463,-7.92256 3.93846,-13.3506 0.762804,-20.9614 -5.87679,13.1808 -20.4843,11.0829 -23.243,25.5113 -7.29752,-8.21396 2.97014,-16.2204 4.61197,-21.2122 -6.35046,1.53326 -6.64328,6.63903 -12.1085,10.2841 -8.51358,5.67808 -19.1486,6.91541 -19.6285,20.9957 -8.23295,-11.7369 6.60841,-17.1335 6.17131,-23.673 -8.65049,8.08526 -26.9671,3.69836 -30.6284,21.4501 -5.66334,-10.3765 2.39329,-17.011 10.1381,-21.7746 -6.47745,-2.36806 -18.8269,11.3213 -23.3286,7.39446 -10.6013,-11.6161 -14.9273,-29.5855 -13.0547,-53.6735 7.35222,-0.0589607 10.3394,-4.48356 18.627,-4.85433 11.7774,-0.526961 25.9631,0.530646 37.6971,-0.606898 9.16243,-6.49871 21.1314,-17.9861 31.2296,-17.6247 13.4924,-9.13862 29.2723,-17.7055 46.0922,-26.0116 17.9368,-17.246 28.7816,-32.2793 54.2123,-26.8424 3.58668,-14.3011 -3.22753,-24.3417 -17.3404,-24.5299 -7.90668,-0.105732 -15.1793,2.42816 -19.5097,-0.379276 -6.74192,-4.37103 -9.89349,-10.5616 -5.03433,-14.4332 34.8945,1.91622 46.2198,0.462898 47.0574,-12.744 0.651969,-10.2827 -11.5081,-24.8701 -34.6334,-25.9469 -4.16296,-0.193606 -9.22763,7.30602 -10.9769,13.5831 -5.05985,-0.0263622 -8.71994,-1.22797 -11.2377,-3.6428 -0.208913,-1.4091 -0.80589,-3.38117 -2.74932,-4.04788 -1.96668,-4.52381 -2.24589,-11.0747 -1.38302,-19.732z"/>
  <path fill="#F00000" stroke="red" stroke-width="0.216" d="M31.4204 213.641c8.05493,-4.00252 14.9148,-4.83421 22.1386,0.311811 2.39046,-0.935434 4.15729,-4.67717 2.49449,-7.79528 -11.1507,-5.57207 -22.9998,-1.72573 -24.6331,7.48347z"/>
  <path fill="#F00000" stroke="red" stroke-width="0.216" d="M35.4739 241.081c8.67856,-2.75528 13.3557,-6.70507 20.2677,-2.49449 3.01408,-1.87087 1.97462,-7.48347 0.935434,-8.73071 -10.0077,-2.19402 -18.739,2.7961 -21.2032,11.2252z"/>
  <path fill="#F00000" stroke="red" stroke-width="0.216" d="M40.1511 253.553c8.67856,-2.75528 12.1085,-5.76964 19.0205,-1.55906 4.57314,-1.55906 1.6628,-8.73071 0.623622,-9.97796 -10.0077,-2.19402 -17.1799,3.10791 -19.6441,11.537z"/>
  <path fill="#F00000" stroke="red" stroke-width="0.216" d="M46.3873 265.402c8.67856,-2.75528 9.9258,-6.70507 16.8378,-2.49449 4.57314,-1.55906 2.59824,-7.79528 1.55906,-9.04252 -9.64432,-2.19402 -15.4653,3.10819 -18.3969,11.537z"/>
  <path fill="#F00000" stroke="red" stroke-width="0.216" d="M34.2267 227.361c8.67856,-2.75528 13.3557,-5.76964 20.2677,-1.55906 3.01408,-1.87087 2.28643,-6.23622 1.24724,-7.48347 -10.3192,-5.57207 -19.0505,-0.166394 -21.515,9.04252z"/>
  <path fill="white" stroke="white" stroke-width="0.216" d="M277.751 525.095c8.36533,-3.06822 10.3394,-7.53846 17.7732,-2.8063 3.01408,-1.87087 1.03918,-6.85985 0,-8.10709 -9.90397,-3.90898 -14.8941,3.36756 -17.7732,10.9134z"/>
  <path fill="white" stroke="white" stroke-width="0.216" d="M284.923 538.815c8.14366,-2.18183 8.42627,-8.93056 16.526,-6.85985 3.32589,-3.42992 -1.45531,-8.4189 -3.11811,-9.04252 -12.2369,2.50668 -12.5246,11.5846 -13.4079,15.9024z"/>
  <path fill="white" stroke="white" stroke-width="0.216" d="M293.654 549.416c5.96098,-2.80545 10.609,-8.30693 19.3323,-7.79528 3.01408,-4.67717 -3.32617,-7.48347 -4.98898,-8.10709 -11.6864,2.50696 -13.7954,10.6495 -14.3433,15.9024z"/>
  <path fill="white" stroke="white" stroke-width="0.216" d="M308.932 556.9c5.96098,-2.80545 8.11446,-9.24237 15.9024,-9.35434 3.01408,-5.6126 -2.39074,-5.30079 -4.05355,-5.92441 -10.1214,3.02882 -10.3621,10.3391 -11.8488,15.2787z"/>
  <path fill="white" stroke="white" stroke-width="0.216" d="M324.211 556.276c6.49134,-2.27509 7.40977,-5.26933 14.3433,-7.17166 2.73458,-2.8715 -5.95701,-4.71657 -8.10709,-4.36536 -5.75603,2.09339 -5.37307,7.22098 -6.23622,11.537z"/>
  <path fill="#F00000" stroke="red" stroke-width="0.216" d="M277.751 527.323c8.36533,-3.06822 10.3394,-7.53846 17.7732,-2.8063 3.01408,-1.87087 1.03918,-6.85985 0,-8.10709 -9.90397,-3.90898 -14.8941,3.36756 -17.7732,10.9134z"/>
  <path fill="#F00000" stroke="red" stroke-width="0.216" d="M284.923 541.043c8.14366,-2.18183 8.42627,-8.93056 16.526,-6.85985 3.32589,-3.42992 -1.45531,-8.4189 -3.11811,-9.04252 -12.2369,2.50668 -12.5246,11.5846 -13.4079,15.9024z"/>
  <path fill="#F00000" stroke="red" stroke-width="0.216" d="M293.654 551.645c5.96098,-2.80545 10.609,-8.30693 19.3323,-7.79528 3.01408,-4.67717 -3.32617,-7.48347 -4.98898,-8.10709 -11.6864,2.50696 -13.7954,10.6495 -14.3433,15.9024z"/>
  <path fill="#F00000" stroke="red" stroke-width="0.216" d="M308.932 559.128c5.96098,-2.80545 8.11446,-9.24237 15.9024,-9.35434 3.01408,-5.6126 -2.39074,-5.30079 -4.05355,-5.92441 -10.1214,3.02882 -10.3621,10.3391 -11.8488,15.2787z"/>
  <path fill="#F00000" stroke="red" stroke-width="0.216" d="M324.211 558.505c6.49134,-2.27509 7.40977,-5.26933 14.3433,-7.17166 2.73458,-2.8715 -5.95701,-4.71657 -8.10709,-4.36536 -5.75603,2.09339 -5.37307,7.22098 -6.23622,11.537z"/>
  <path fill="none" stroke="#CCCCCC" stroke-width="1.41732" d="M363.659 353.33c-1.02558,5.70444 -2.88255,10.1616 -5.5715,13.3716"/>
  <path fill="black" stroke="black" stroke-width="0.216" d="M275.639 336.468l15.7159 25.3233c-1.81616,19.0605 -2.28217,32.768 -11.9999,42.3689 -38.1118,-20.005 -78.0166,12.4912 -48.4645,46.4304 -1.6645,9.7441 -9.97682,20.1181 -18.5803,26.1034 -16.513,11.488 -37.1566,16.7814 -43.3106,29.0702 -6.88734,-11.5194 16.7828,-15.5554 9.27213,-29.2575 -8.56148,17.0955 -33.5452,15.2745 -36.5973,29.4602 -7.85622,-10.4581 7.98548,-15.9273 7.3012,-22.9553 -9.34441,4.05014 -16.1433,11.3698 -26.4742,11.2156 -17.4348,-0.260504 -24.0857,-12.8993 -26.8433,-26.2259 -3.54558,-17.1337 2.62573,-36.4368 20.8596,-35.7134 16.619,-0.81241 30.6023,14.7886 46.135,1.56473 7.80152,-6.64186 7.16996,-22.5391 4.39229,-44.426 -11.5574,14.5423 -25.1147,18.2492 -38.31,10.3337 15.9024,-0.461481 25.257,-4.87219 26.193,-14.4794 -17.2862,9.17292 -31.0904,7.43273 -35.1757,-3.3497 12.5549,6.41849 23.0312,1.19565 31.4291,-15.6677 -18.6276,9.3773 -30.4988,6.20419 -34.9903,-9.36284 31.163,22.8776 31.9363,-36.2092 87.8151,-35.8223 19.6169,0.13578 42.3505,19.51 71.6327,15.3896z"/>
  <path fill="none" stroke="#CCCCCC" stroke-width="1.41732" d="M358.822 378.278c2.90977,-5.30051 5.8201,-11.1206 8.73071,-18.085"/>
  <path fill="none" stroke="#CCCCCC" stroke-width="1.41732" d="M370.359 366.117c-2.1189,9.12841 -5.13922,15.5537 -8.10709,22.1386"/>
  <line fill="none" stroke="#CCCCCC" stroke-width="1.41732" x1="239.71" y1="376.407" x2="242.205" y2= "389.503" />
  <line fill="none" stroke="#CCCCCC" stroke-width="1.41732" x1="227.55" y1="383.89" x2="230.668" y2= "395.739" />
  <line fill="none" stroke="#CCCCCC" stroke-width="1.41732" x1="232.85" y1="380.772" x2="236.28" y2= "388.879" />
  <line fill="none" stroke="#CCCCCC" stroke-width="1.41732" x1="361.94" y1="523.582" x2="367.241" y2= "525.141" />
  <line fill="none" stroke="#CCCCCC" stroke-width="1.41732" x1="349.468" y1="532.624" x2="355.704" y2= "537.613" />
  <line fill="none" stroke="#CCCCCC" stroke-width="1.41732" x1="355.392" y1="529.506" x2="364.747" y2= "532.312" />
  <line fill="none" stroke="#CCCCCC" stroke-width="1.41732" x1="132.135" y1="475.563" x2="136.189" y2= "480.552" />
  <line fill="none" stroke="#CCCCCC" stroke-width="1.41732" x1="115.609" y1="478.057" x2="122.469" y2= "485.541" />
  <line fill="none" stroke="#CCCCCC" stroke-width="1.41732" x1="121.534" y1="476.186" x2="130.265" y2= "483.046" />
  <path fill="none" stroke="#CCCCCC" stroke-width="1.41732" d="M248.753 241.449c-2.65068,8.57481 -3.58583,17.7214 -3.74173,27.1276"/>
  <path fill="none" stroke="#CCCCCC" stroke-width="1.41732" d="M240.022 235.525c-3.68986,4.72933 -5.66448,10.0301 -6.85985,15.5906"/>
  <path fill="none" stroke="#CCCCCC" stroke-width="1.41732" d="M243.764 237.084c-2.96221,7.53534 -4.20945,15.6424 -4.67717,24.0095"/>
  <path fill="none" stroke="#CCCCCC" stroke-width="1.41732" d="M297.395 77.1248c-0.468,12.0047 -5.14488,22.3985 -11.2252,29.6221"/>
  <path fill="none" stroke="#CCCCCC" stroke-width="1.41732" d="M290.535 71.5122c-0.468,12.0047 -2.6504,19.5922 -9.66615,26.8158"/>
  <path fill="#CCCCCC" stroke="#CCCCCC" stroke-width="0.216" d="M223.808 50.5642c30.4931,-1.332 42.1212,34.3987 28.9984,45.8362 6.9378,-22.2432 -1.74104,-38.1453 -28.9984,-45.8362z"/>
  <path fill="#CCCCCC" stroke="#CCCCCC" stroke-width="0.216" d="M192.939 42.7689l2.8063 0c1.14321,3.84548 -1.76712,6.13219 -2.18268,9.66615l-2.49449 0c0,-0.727654 1.87087,-4.26161 1.87087,-9.66615z"/>
  <path fill="#CCCCCC" stroke="#CCCCCC" stroke-width="0.216" d="M256.236 142.01c13.6553,11.1404 9.69279,32.8397 0.623622,43.3418 2.85109,-8.80215 12.547,-21.5649 -0.623622,-43.3418z"/>
  <path fill="none" stroke="#CCCCCC" stroke-width="1.41732" d="M313.609 37.213c13.3296,-3.97559 22.0448,-2.75443 22.2163,0.272977 0.272693,4.80643 -2.80602,6.24926 -16.6037,6.27506"/>
  <path fill="none" stroke="#CCCCCC" stroke-width="1.41732" d="M283.987 25.3641c6.39185,-1.09134 11.3811,1.50718 15.5906,2.49449"/>
  <path fill="#F00000" stroke="#F00000" stroke-width="0.216" d="M253.118 32.9468c-0.209197,2.48372 -4.43594,10.9559 -8.88662,11.0693 -4.45068,0.113386 -8.91978,-2.31817 -9.82205,-5.14488 -1.89326,-5.9298 18.9179,-8.40813 18.7087,-5.92441z"/>
  <path fill="#CCCCCC" stroke="#CCCCCC" stroke-width="0.216" d="M229.42 32.4791c28.9276,-0.780095 18.4193,-6.3944 34.2992,-1.24724 -12.4875,-3.10025 -28.6192,8.09887 -34.2992,1.24724z"/>
  <path fill="black" stroke="black" stroke-width="0.216" d="M242.846 34.6677c1.11657,0.0779528 1.944,1.25547 1.84847,2.6297 -0.023811,0.342992 -1.03947,0.0430866 -1.16221,0.333354 -0.123024,0.290268 0.645166,1.17241 0.447024,1.38444 -0.397134,0.42463 -0.922394,0.66841 -1.48025,0.629575 -1.11657,-0.0776693 -1.94428,-1.25547 -1.84847,-2.6297 0.0960945,-1.37395 1.07915,-2.42504 2.19543,-2.34737z"/>
  <path fill="white" stroke="white" stroke-width="0.216" d="M167.058 53.2004c-7.29156,19.3813 3.62806,26.6854 15.5427,26.3393 10.1713,-0.29537 27.7954,-5.45981 40.8141,-5.25629 10.1262,0.158457 16.7437,2.54126 25.1104,5.72797l-1.01991 3.12293c-6.19229,-2.8063 -15.6671,-5.68035 -23.4765,-5.31553 -18.4961,0.864284 -35.7772,10.5168 -49.5128,11.1127 -11.7301,0.508819 -24.8114,-10.3266 -25.2009,-19.9006 -0.210614,-5.17408 6.71585,-11.2757 17.7429,-15.8304z"/>
  <path fill="#F00000" stroke="#F00000" stroke-width="0.216" d="M166.746 55.8649c-7.29156,19.3813 3.62806,26.6854 15.5427,26.3393 10.1713,-0.29537 27.7954,-5.45981 40.8141,-5.25629 10.1262,0.158457 16.7437,2.54126 25.1104,5.72797l-1.01991 3.12293c-6.19229,-2.8063 -15.6671,-5.68035 -23.4765,-5.31553 -18.4961,0.864284 -35.7772,10.5168 -49.5128,11.1127 -11.7301,0.508819 -24.8114,-10.3266 -25.2009,-19.9006 -0.210614,-5.17408 6.71585,-11.2757 17.7429,-15.8304z"/>
  <path fill="#CCCCCC" stroke="#CCCCCC" stroke-width="0.216" d="M241.893 200.942c-1.29572,9.6772 -36.0159,17.1357 -47.0835,33.9874 22.1531,-20.3156 43.7536,-19.3394 47.0835,-33.9874z"/>
  <path fill="#CCCCCC" stroke="#CCCCCC" stroke-width="0.216" d="M189.509 156.353c-5.66107,4.37641 -37.5749,14.0176 -51.137,28.3748 3.06029,-0.585355 14.0267,-7.36867 25.6278,-13.7237 10.2365,-5.60722 21.1062,-10.6055 25.5093,-14.6512z"/>
  <polygon fill="#CCCCCC" points="261.537,344.29 280.869,344.29 282.814,348.797 270.038,348.638 286.17,365.182 285.858,370.794 "/>
  <path fill="#F00000" stroke="#F00000" stroke-width="0.216" d="M88.7936 491.777c8.14224,-0.30841 10.7107,-2.89786 19.3323,-1.87087 3.32589,-3.42992 -1.45531,-6.85985 -3.11811,-7.48347 -12.7967,-0.858898 -14.4184,5.01392 -16.2142,9.35434z"/>
  <path fill="#F00000" stroke="#F00000" stroke-width="0.216" d="M79.4393 480.24c8.14224,-0.30841 11.6461,-0.0915591 20.2677,0.935434 3.32589,-3.42992 -0.208063,-8.73071 -1.87087,-9.35434 -9.57062,0.700725 -13.1689,3.14334 -18.3969,8.4189z"/>
  <path fill="#F00000" stroke="#F00000" stroke-width="0.216" d="M73.5149 466.52c8.14224,-0.30841 12.5816,0.220252 21.2032,1.24724 3.32589,-3.42992 0.103748,-9.66615 -1.55906,-10.2898 -9.57062,0.700725 -14.4162,3.76696 -19.6441,9.04252z"/>
  <path fill="#F00000" stroke="#F00000" stroke-width="0.216" d="M72.2676 453.736c8.14224,-0.30841 13.8288,0.532063 22.4504,1.55906 4.57314,-2.18268 1.6628,-9.35434 -2.8063,-10.6016 -9.57062,0.700725 -14.4162,3.76696 -19.6441,9.04252z"/>
  <path fill="#F00000" stroke="#F00000" stroke-width="0.216" d="M72.5794 440.64c6.99166,-2.36551 12.8197,-2.50951 17.3064,-1.26964 3.48945,0.964347 5.23219,4.6372 7.95033,5.01137 4.57314,-2.18268 4.15729,-9.04252 -5.92441,-12.4724 -9.57062,0.700725 -14.1044,3.45515 -19.3323,8.73071z"/>
  <path fill="#CCCCCC" stroke="#CCCCCC" stroke-width="0.216" d="M291.159 311.479c7.10221,11.7275 3.66605,40.2018 2.02677,50.0457l-1.29884 -2.88114c1.39238,-9.00596 4.62218,-27.953 -0.727937,-47.1646z"/>
 </g>
</svg>
