<?xml version="1.0" encoding="UTF-8"?>
<!DOCTYPE svg PUBLIC "-//W3C//DTD SVG 1.1//EN" "http://www.w3.org/Graphics/SVG/1.1/DTD/svg11.dtd">
<!-- Creator: CorelDRAW -->
<svg xmlns="http://www.w3.org/2000/svg" xml:space="preserve" width="500px" height="535px" shape-rendering="geometricPrecision" text-rendering="geometricPrecision" image-rendering="optimizeQuality" fill-rule="evenodd" clip-rule="evenodd"
viewBox="0 0 500 535"
 xmlns:xlink="http://www.w3.org/1999/xlink"
 xmlns:svg="http://www.w3.org/2000/svg"
 version="1.0">
 <g id="Layer_x0020_1">
  <metadata id="CorelCorpID_0Corel-Layer"/>
  <path id="path1937" fill="#0057F0" d="M0.0663307 0.154772l499.999 0 -18.8291 316.489c-28.1614,291.338 -433.085,291.722 -461.313,0l-19.8576 -316.489z"/>
  <path fill="#003399" d="M224.011 32.9596l58.7804 -0.268725c-8.22104,15.3462 -12.8704,32.965 -13.2078,53.3279 18.6724,-0.572032 36.2702,-4.36847 52.7933,-11.3882l-0.588473 55.6203c-19.2396,-8.20715 -36.8555,-13.1672 -52.5116,-14.207 1.2308,22.777 6.0446,40.8966 14.4425,54.3592l-61.6329 0.845859c7.6184,-14.8351 14.1384,-31.3957 16.7355,-54.1211 -20.3392,-0.889512 -38.2136,5.12022 -54.9681,14.2662l0.607748 -61.623c13.9504,8.02885 29.9398,14.802 53.2179,17.0926 0.638929,-12.3259 -4.27578,-30.115 -13.6687,-53.9042z"/>
  <path fill="#003399" d="M30.3412 48.5983l146.926 73.829 -70.761 -9.16016c50.1305,48.2193 99.0939,97.8466 144.772,141.629 0.631843,0.605764 1.28098,1.23279 1.94542,1.87994l-1.7195 1.93493 38.4262 38.8641 1.7589 -2.76378c16.9296,15.8131 38.3063,33.9608 60.0874,48.168 -7.77232,29.3777 26.6633,68.3178 15.1489,77.3181 -11.5064,8.99405 -44.3685,-22.3991 -74.717,-21.9305 -25.4818,-45.8158 -101.001,-134.439 -145.877,-188.938l-2.8372 70.6111c-17.8461,-58.5321 -32.4712,-104.606 -64.0814,-148.929 -0.232441,30.6944 2.98091,62.8104 4.08671,94.4779 -19.9811,-60.6323 -36.5103,-106.967 -53.1581,-176.991z"/>
  <path fill="#003399" d="M377.628 494.162c23.4079,-14.0136 43.4577,-35.1751 61.2108,-59.6957 -28.4842,-28.6861 -55.1503,-57.3724 -83.9376,-83.6346 -0.651118,11.7102 -13.7526,10.1398 -9.24548,20.8585 7.07811,16.8341 32.258,44.4286 23.6157,51.8723 -14.7416,12.6972 -49.8824,-22.7302 -65.5813,-17.8835 12.7749,18.6999 47.924,59.9879 73.9378,88.4829z"/>
  <path fill="#003399" d="M251.818 347.957c-16.9438,13.4819 -24.1912,36.0547 -36.2872,54.0819 -36.7214,-1.89751 -65.6728,28.6878 -76.2509,18.6463 -9.95301,-9.44816 17.9056,-37.2714 15.9517,-75.386 21.0291,-11.5217 40.3827,-26.0836 56.865,-44.0691l39.7213 46.7269zm42.59 -54.4241c12.4807,-21.3188 44.3549,-52.3341 65.9254,-79.1068 -0.17178,21.8262 1.5755,45.6976 4.63436,69.9492 17.087,-54.6387 31.4113,-105.746 58.22,-142.767 -0.619937,25.9342 -0.140598,51.8689 1.66337,77.8051 15.5753,-40.1573 33.8777,-109.708 49.7551,-165.925 -47.3111,24.2308 -117.653,56.0373 -142.844,70.8747l69.4525 -6.87969c-44.5655,44.3693 -98.5247,98.4354 -144.909,139.775l38.1025 36.2738z"/>
  <path fill="#003399" d="M129.414 499.249c-24.09,-14.3167 -44.998,-33.3567 -61.8169,-57.8775 28.4842,-28.6861 49.9989,-59.7966 83.3315,-85.4527 1.67443,30.102 -28.6744,56.6476 -13.7642,67.8824 14.4383,10.8791 34.7312,-15.4576 70.4296,-17.2775 -2.4721,8.7001 -52.1663,64.2303 -78.1801,92.7253z"/>
  <g id="layer1">
  </g>
  <path fill="#CCCCCC" d="M250.789 345.9c-16.9438,13.4819 -24.1912,36.0547 -36.2872,54.0819 -36.7214,-1.89751 -65.6728,28.6878 -76.2509,18.6463 -9.95301,-9.44816 17.9056,-37.2714 15.9517,-75.386 21.0291,-11.5217 40.3827,-26.0836 56.865,-44.0691l39.7213 46.7269zm41.984 -53.212c12.481,-21.3188 44.9609,-53.5462 66.5314,-80.3189 -0.17178,21.8262 1.5755,45.6976 4.63436,69.9492 17.087,-54.6387 31.4113,-105.746 58.22,-142.767 -0.619937,25.9342 -0.140598,51.8689 1.66337,77.8051 15.5753,-40.1573 33.8777,-109.708 49.7551,-165.925 -47.3111,24.2308 -117.653,56.0373 -142.844,70.8747l69.4525 -6.87969c-44.5655,44.3693 -99.131,99.0414 -145.515,140.381l38.1025 36.8799z"/>
  <path fill="white" d="M205.52 354.054c-1.58088,-3.49654 -5.20611,-5.91619 -9.39232,-5.85865 -5.58199,0.0768189 -10.0514,4.52892 -9.98051,9.94167 4.51701,-2.94038 7.82193,1.39181 11.7329,1.17893 3.61843,-2.71049 -0.338457,-8.14819 -3.68958,-4.49518l-1.46183 -0.959245c1.33455,-2.96617 5.29512,-3.20542 12.7913,0.192473z"/>
  <ellipse fill="none" stroke="#0057F0" stroke-width="2.26772" transform="matrix(-1.26569 0.0174383 0.0170108 1.29749 196.256 357.998)" rx="7.98662" ry="7.5549"/>
  <path fill="#CCCCCC" d="M26.2276 45.5131l148.983 75.8858 -73.8462 -10.1886c50.1305,48.2193 101.151,99.9026 146.828,143.686 19.9159,19.0899 56.2442,59.2175 100.498,88.0833 -7.77232,29.3777 26.6633,68.3178 15.1489,77.3181 -11.5064,8.99405 -44.3685,-22.3991 -74.717,-21.9305 -25.4818,-45.8158 -101.001,-134.439 -145.877,-188.938l-2.8372 70.6111c-17.8461,-58.5321 -32.4712,-104.606 -64.0814,-148.929 -0.232441,30.6944 2.98091,62.8104 4.08671,94.4779 -19.9811,-60.6323 -37.5387,-110.052 -54.1865,-180.077z"/>
  <path fill="white" d="M242.547 293.894c1.57068,-3.61503 5.2475,-6.1526 9.53178,-6.1526 4.28429,0 7.96139,2.53758 9.53207,6.1526 -5.48618,-0.263339 -8.14479,-6.63676 -14.0349,-1.54573 1.6166,1.1109 3.23263,3.43389 4.84838,6.96955 -9.29254,-0.909071 -4.94929,-3.93931 -6.06048,-5.45443l-3.81685 0.0306142z"/>
  <ellipse fill="none" stroke="#0057F0" stroke-width="2.26772" cx="252.079" cy="297.814" rx="10.3451" ry="10.0732"/>
  <path fill="white" d="M303.531 350.521c-2.3658,1.23279 -4.18139,3.35736 -4.9887,5.91959l3.88092 -0.155055c0.757418,1.56558 1.94485,4.77241 5.03802,4.35572 1.92728,-0.25937 3.24482,-0.82063 1.93153,-5.26479 -2.66854,-1.58032 -4.51191,-2.01232 -5.86177,-4.85547z"/>
  <ellipse fill="none" stroke="#0057F0" stroke-width="2.26772" cx="308.283" cy="359.436" rx="10.1997" ry="10.0732"/>
  <path fill="#BF9F4F" d="M222.193 30.5354l58.7804 -0.268725c-8.22104,15.3462 -12.8704,32.965 -13.2078,53.3279 18.6724,-0.572032 36.2702,-4.36847 52.7933,-11.3882l-0.588473 55.6203c-19.2396,-8.20715 -36.8555,-13.1672 -52.5116,-14.207 1.2308,22.777 6.0446,40.8966 14.4425,54.3592l-61.6329 0.845859c7.6184,-14.8351 14.1384,-31.3957 16.7355,-54.1211 -20.3392,-0.889512 -38.2136,5.12022 -54.9681,14.2662l0.607748 -61.623c13.9504,8.02885 29.9398,14.802 53.2179,17.0926 0.638929,-12.3259 -4.27578,-30.115 -13.6687,-53.9042z"/>
  <path fill="white" d="M279.474 33.1705c0.485575,-0.976819 0.98589,-1.94485 1.49953,-2.90381l-58.7804 0.268725c9.39289,23.7892 14.3076,41.5783 13.6687,53.9042 -23.2781,-2.29068 -39.2675,-9.06378 -53.2179,-17.0926l-0.607748 61.623c0.785197,-0.428599 1.57323,-0.850678 2.36381,-1.26539l0.300473 -56.7451c14.1191,9.07966 33.0863,14.387 54.5511,15.0486 -2.19969,-19.1968 -5.4944,-34.7431 -13.705,-53.2075l53.9275 0.369921zm41.0528 42.0869l0.032315 -3.05093c-16.5232,7.01972 -34.1209,10.8162 -52.7933,11.3882l-1.10438 2.14469c22.5621,-0.580536 31.9632,-2.48655 53.8654,-10.482zm-83.5226 39.4464c-2.5971,22.7254 -9.11708,39.2859 -16.7355,54.1211l2.86299 -0.0394016c5.05361,-12.0365 9.14769,-12.2482 16.6572,-54.5613l-2.78476 0.479622z"/>
  <path fill="white" d="M213.735 302.31l-2.66655 -3.13682c-16.4823,17.9856 -35.8359,32.5474 -56.865,44.0691 1.22088,23.8215 -9.20325,43.623 -14.7631,57.4311 9.22904,-17.0181 16.1839,-35.0467 18.1378,-55.2966l1.2121 -2.12117c13.1437,-6.0429 28.0117,-14.622 54.9448,-40.9456zm151.402 -23.8278c-0.397418,1.27673 -0.796819,2.55572 -1.19707,3.83613 -3.05887,-24.2515 -4.80614,-48.123 -4.63436,-69.9492l2.51093 -3.05008c-1.01395,21.5391 1.30479,46.1084 3.32051,69.1631zm57.0229 -138.931c-0.619937,25.9342 -0.140598,51.8689 1.66337,77.8051 0.851528,-2.19572 1.71156,-4.47988 2.57925,-6.84511 -1.83175,-17.8724 -1.23987,-50.2889 -1.86038,-75.4334l-2.38224 4.47336zm50.0054 -83.1042c0.472819,-1.68293 0.944504,-3.35537 1.41307,-5.01562 -47.3111,24.2308 -117.653,56.0373 -142.844,70.8747l5.35805 -0.530646 136.073 -65.3284zm-68.5316 58.6313l-3.44665 0.348095c-44.5655,44.3693 -99.131,99.0414 -145.515,140.381l2.49137 2.41143c54.5817,-49.229 98.2537,-95.7306 146.471,-143.141"/>
  <path fill="#BF9F4F" d="M376.058 495.677c23.4079,-14.0136 43.4577,-34.2661 61.2108,-58.7866 -28.4842,-28.6861 -56.6654,-59.7966 -85.4527,-86.0588 -1.67443,30.102 28.516,60.5466 14.3702,72.7308 -14.7419,12.6975 -49.8824,-22.7302 -65.5813,-17.8835 12.7749,18.6999 49.4391,61.5031 75.4529,89.9981z"/>
  <path fill="white" d="M303.767 405.22c-1.12365,0.0096378 -2.18069,0.155622 -3.16177,0.458362 12.7749,18.6999 49.4391,61.5031 75.4529,89.9981 0.822615,-0.492378 1.64183,-0.992693 2.45622,-1.50066 -8.5252,-7.07698 -14.6237,-17.4688 -24.037,-27.974 -18.0235,-20.1147 -39.1127,-42.9704 -50.7104,-60.9818zm80.9136 84.913c-0.705544,0.485575 -1.41449,0.965481 -2.12684,1.43943 -8.5646,-10.5324 -13.4932,-13.4898 -19.9364,-20.6884 -3.76753,-4.20973 -6.90492,-8.76048 -10.6325,-13.0295 -2.74195,-3.14051 -5.55251,-5.32715 -8.26243,-8.51471 -4.86681,-5.72514 -10.0667,-11.1912 -14.9701,-16.9007 -7.16712,-8.3452 -13.4408,-16.5645 -21.1776,-24.6396l3.93931 0.909071c8.388,9.33449 17.157,19.7666 25.5223,29.2626 5.01874,5.69736 9.69903,10.4769 14.6067,16.1087 4.00592,4.59723 7.13963,8.88378 11.2476,13.4555 6.85871,7.63314 14.3246,13.752 21.7899,22.5975z"/>
  <path fill="#BF9F4F" d="M128.385 497.192c-24.09,-14.3167 -44.998,-33.3567 -61.8169,-57.8775 28.4842,-28.6861 49.9989,-59.7966 83.3315,-85.4527 1.67443,30.102 -28.6744,56.6476 -13.7642,67.8824 14.4383,10.8791 34.7312,-15.4576 70.4296,-17.2775 -2.4721,8.7001 -52.1663,64.2303 -78.1801,92.7253z"/>
  <path fill="white" d="M68.1571 441.597c-0.533764,-0.755717 -1.06328,-1.51682 -1.58882,-2.28302 28.4842,-28.6861 49.9989,-59.7966 83.3315,-85.4527 0.0569764,1.02869 0.0771024,2.05257 0.0637796,3.07162 -22.1754,16.632 -30.8645,30.3287 -44.8509,45.527 -12.6924,13.7923 -17.7528,18.0028 -36.9556,39.1371zm81.6682 -81.6242c-0.0935434,1.20954 -0.231591,2.41058 -0.408473,3.60284 -4.81266,5.23871 -10.8383,9.5692 -15.6507,14.8079 -9.44958,10.2864 -18.6517,21.9725 -27.8294,32.4635 -11.0767,12.6612 -22.1202,24.1367 -33.5254,36.5519 -0.773859,-1.01679 -1.54006,-2.0435 -2.29833,-3.08041 4.3611,-3.20939 12.8404,-12.9365 20.9716,-21.5581 6.32438,-6.70536 12.5589,-12.384 15.7102,-16.1201 9.16611,-10.8672 16.865,-21.4577 26.5527,-31.7086 5.1891,-5.49099 10.0763,-7.04353 16.4778,-14.959z"/>
  <path fill="white" d="M292.69 398.454c-1.19169,-0.0745512 -2.38082,-0.104882 -3.56627,-0.0867402 -25.4818,-45.8158 -101.001,-134.439 -145.877,-188.938l0.392599 -3.14022c28.9743,33.5988 54.222,65.5614 72.813,87.8287 33.4432,40.0558 67.2874,83.4384 76.2378,104.336zm-151.985 -125.787l-0.295937 7.37292c-17.8461,-58.5321 -32.4712,-104.606 -64.0814,-148.929l0.645733 -3.60907c26.9887,34.2457 47.2476,85.0581 63.7317,145.165zm-109.588 -224.664l-4.8892 -2.4908c16.6479,70.0249 34.2054,119.444 54.1865,180.077l-0.389197 -8.99887c-17.212,-54.9842 -39.2721,-113.907 -48.9082,-168.587z"/>
 </g>
</svg>
