<?xml version="1.0" encoding="UTF-8"?>
<!DOCTYPE svg PUBLIC "-//W3C//DTD SVG 1.1//EN" "http://www.w3.org/Graphics/SVG/1.1/DTD/svg11.dtd">
<!-- Creator: CorelDRAW -->
<svg xmlns="http://www.w3.org/2000/svg" xml:space="preserve" width="500px" height="579px" shape-rendering="geometricPrecision" text-rendering="geometricPrecision" image-rendering="optimizeQuality" fill-rule="evenodd" clip-rule="evenodd"
viewBox="0 0 500 579"
 xmlns:xlink="http://www.w3.org/1999/xlink"
 xmlns:svg="http://www.w3.org/2000/svg"
 version="1.0">
 <g id="Layer_x0020_1">
  <metadata id="CorelCorpID_0Corel-Layer"/>
  <path id="path1937" fill="#0057F0" stroke="#0057F0" stroke-width="0.992126" d="M0.482173 1.01991l498.966 -0.296504 0.0776693 333.108c-19.8802,324.747 -480.301,326.344 -499.054,0.0788032l0.0107717 -332.89z"/>
  <path fill="black" d="M218.88 145.116c-5.2475,-3.49852 -7.76863,-7.47553 -12.3602,-11.6297 5.35663,-1.63984 9.07371,-1.96781 12.7908,-5.2475 -12.6819,-2.51462 -21.3185,-6.01257 -30.5011,-13.7747 7.21531,-1.53071 7.54328,-0.109417 15.4145,-4.59156 -16.2349,-4.01783 -22.7942,-13.0368 -33.7808,-24.9256 6.1217,1.53043 8.41777,-1.09332 12.4628,-3.27969 -13.2282,-5.02866 -17.9291,-12.6814 -30.1731,-19.6781 2.29521,0.43767 6.01257,-0.327969 9.18312,-1.96781 -13.3126,-3.16035 -19.9094,-11.9375 -31.157,-17.3823 5.63018,-2.84173 2.0228,-2.51377 3.27969,-8.85515 -12.5702,5.63358 -27.2852,0.332221 -42.1878,-0.79937 -15.8641,-1.20444 -27.572,-4.18139 -25.3738,12.2783 -30.6652,-4.48214 -17.655,30.0643 -14.7586,37.0605 9.6429,-34.8956 27.7027,-8.57084 44.9317,0.327969 -10.0576,1.09332 -26.3466,-8.30835 -33.4528,4.26359 28.3706,-2.55912 43.5424,22.5899 53.7132,56.3434 4.91414,16.3083 10.0698,34.9523 20.7553,55.3017 9.26306,17.6414 19.2722,35.5694 32.2577,47.7457 -5.79402,20.3341 -9.10063,45.5896 -11.6152,63.6279 8.6366,2.8423 9.40167,-9.07399 20.3341,-5.57547 -6.01399,7.15975 -9.29311,14.7033 -11.8069,26.2375 -2.29096,4.05326 -6.11915,5.03348 -10.167,5.57547 -11.0415,2.18636 -33.8899,-9.72993 -31.157,11.4789 -9.26504,3.08806 -14.1296,12.6536 -6.88734,20.3341 1.28041,-3.02599 3.21647,-12.2834 13.3518,-9.73361 12.0572,9.36652 12.3075,-8.81632 26.9884,-7.32076 -4.26359,9.94819 -19.3502,19.8967 -7.87125,23.6137 -1.18432,5.96665 1.78583,14.2291 8.25364,18.5565 0.309827,-3.8897 -0.0362835,-12.043 3.55323,-16.5886 19.4596,2.18636 7.76183,-12.6816 12.4628,-24.9256 8.52719,3.38882 2.95172,23.5043 16.7264,22.3019 1.78781,4.44246 -0.687969,11.5087 2.412,16.9353 10.4562,-6.192 11.1824,-15.2263 9.0669,-24.1506 7.76183,-10.167 -7.10618,-12.7908 -11.4789,-17.7103 -12.2443,-11.4789 -1.85868,-17.7103 -4.91953,-28.8612 -1.18233,-1.70759 0.0847559,-1.39295 4.59156,-2.62375 3.92429,6.62485 4.01046,6.42728 6.2314,8.19922 4.91925,0.983623 6.66822,-9.29311 5.57547,-17.7103 4.15361,2.18636 8.52662,6.55937 14.4306,5.90344 4.37273,-6.45024 -4.04504,-15.8519 -3.27969,-22.3019 7.32444,1.42101 8.41777,8.0898 14.4306,7.54328 3.06085,-0.765355 1.03691,-22.2259 -2.78929,-28.5664 3.01862,-0.0513071 4.64627,1.18715 7.70882,1.01707 0.982205,-6.06955 -4.09833,-7.22098 -3.60766,-22.3019 7.21304,2.20762 8.03679,49.9604 14.4303,76.2531 8.14111,-1.91452 6.12397,-4.64599 11.8072,-7.05175 2.62318,-1.64041 3.93506,-2.73373 5.2475,-5.2475l1.96781 1.63984 -6.55937 6.88734c2.91628,6.03553 4.29704,13.9745 3.27969,26.5655 -11.7505,8.68848 -35.6267,2.6314 -31.157,17.0544 -9.2024,2.95625 -7.83638,18.1993 0.65537,24.5974 0.765922,-5.19251 3.17254,-11.5328 6.88763,-15.9058 17.2386,2.57414 8.10936,-6.78841 25.9098,-8.03566 1.368,8.4172 -3.65443,24.0418 9.01843,21.9733 4.00451,6.7337 10.0457,9.87648 13.6114,9.18369 0.273827,-2.24929 -5.34728,-9.82347 -1.75606,-14.1832 4.94051,-5.9984 2.14469,-6.90152 -4.14766,-13.3662 -2.45736,-4.91783 -2.40208,-7.43244 0.820063,-7.54385 3.61049,0.549638 10.0063,6.17868 15.5829,9.35008 3.49625,3.22101 6.55597,2.9469 9.17887,-0.822331 0.875056,1.96668 2.18665,3.05972 3.93562,3.27969 -0.0544252,4.04419 0.874489,6.44996 1.31187,9.67493 1.58428,-3.11556 2.1858,-5.41162 2.78731,-8.36306 3.00246,-6.22999 2.78476,-12.6805 -2.13137,-15.0866 1.07688,-5.53266 -1.5205,-6.8726 -7.21531,-8.52719 -8.85515,-2.02394 -23.9363,0.868536 -26.0739,-10.1665 -0.92863,-7.37944 -3.00501,-12.9546 -3.11471,-20.4979 5.36655,-2.06702 2.28076,-0.16526 2.29521,-5.57632 4.07084,2.37714 2.61666,3.42057 10.167,6.39553 5.02753,2.97638 8.19638,3.1388 6.23112,-3.93591 -1.69512,-7.0492 -6.83122,-4.9201 -8.19893,-10.4947 4.26274,0.110835 5.90315,-0.109417 9.18284,1.96781 5.30022,3.44041 8.14224,3.22073 6.23197,-3.60794 -3.77121,-13.4402 -7.21248,-13.2798 -6.88763,-16.0702 3.20173,2.07213 3.7817,-0.280063 6.98372,3.1028 3.46451,3.5538 5.18117,-0.651118 5.15112,-5.39859l0.983906 -0.983906c7.16741,3.35112 44.6134,43.5685 78.7233,63.9596 19.5225,14.9522 34.9699,8.25194 21.6349,-7.71279 29.5376,11.3043 32.832,4.36366 23.2861,-10.823 14.2594,6.09846 12.3171,-17.4362 8.52719,-23.1219 16.6893,0.155906 5.1687,-20.3448 0.984189,-23.6135 14.364,-3.64252 13.788,-16.2978 3.34942,-21.0867 -21.8931,-10.3572 -110.408,-22.4187 -119.679,-37.0752 2.80715,-2.20365 3.97588,-4.73528 1.54006,-5.46435l-38.0444 -17.3823 2.29578 -4.59156c34.2683,9.415 60.5067,9.20835 70.7449,-4.53402 2.2714,-2.42277 1.26595,-3.37125 -1.05024,-3.33666 -19.5936,0.914457 -33.5914,-2.17332 -50.673,-7.70769l0.000566929 -6.39553c42.9424,8.10114 69.806,3.02202 87.5036,-16.1969 1.65969,-1.48791 1.18942,-4.28684 -1.41052,-3.48123 -35.5711,3.68958 -58.9201,3.95632 -71.3345,-0.655937l0.655937 -8.52719c31.4731,4.62728 85.1772,-3.99373 91.4579,-29.761 0.998079,-3.46961 0.19389,-4.48158 -1.42951,-3.52743 -21.0101,6.61862 -48.2519,9.28404 -77.5656,8.03481l-1.96781 -11.1509c40.4686,-3.1714 92.0478,-18.7121 94.0457,-45.4255 0.576567,-2.24334 0.168095,-3.82961 -1.88646,-3.44183 -16.871,8.93622 -54.0936,15.4415 -91.5033,21.318l-2.78788 -6.067c51.901,-10.7008 92.6309,-31.3302 89.8631,-50.8357 -0.201543,-2.8389 -1.06158,-1.24866 -2.5784,-0.805607 -35.6125,14.8564 -66.3398,25.2026 -90.5823,29.5628l-0.199843 -8.10766c27.7747,-6.83207 61.3939,-12.8857 61.712,-29.9965 0.874489,-4.91953 0.109134,-3.93562 -3.27969,-2.95172 -26.2375,10.9324 -42.3323,10.2022 -56.763,13.591 -0.356032,-2.04321 0.449292,-0.692221 -0.233291,-3.19436 -0.235559,-0.86315 -1.12195,-4.05638 -3.18444,-2.19855 -10.7138,10.6044 -16.3454,11.3709 -31.3226,16.0716 4.15418,-7.54328 8.41748,-13.993 5.2475,-20.662 -20.0614,9.68826 -36.1902,11.5863 -48.9813,15.736 -18.4079,5.97232 -33.6209,4.4949 -45.7297,26.2032 -3.64309,6.53159 -9.71604,16.4971 -6.552,28.4375 2.30032,8.68111 16.9526,10.2056 23.4661,18.2523 7.38936,7.24734 4.46173,26.3166 -4.29789,37.4618z"/>
  <path fill="#C4A177" d="M294.276 35.3242c7.43386,-6.88734 9.07342,-10.3853 7.87125,-20.99 -20.0614,9.68826 -36.1902,11.5861 -48.9813,15.736 -18.4082,5.97232 -33.9486,9.41386 -46.0576,31.1227 -3.64366,6.53188 -8.7327,17.4804 -5.5681,29.4214 2.30088,8.68167 15.3128,9.22167 20.8423,14.6446 7.38936,7.24734 7.08548,24.6767 -1.67414,35.822 5.93774,1.58967 10.8916,4.49121 17.485,4.76873 8.8356,-13.2333 7.49311,-26.6332 2.61751,-34.6646 -3.85852,-6.3567 -8.90249,-5.47484 -12.1175,-13.2684 -4.08671,-9.90681 0.815528,-20.0163 5.34218,-27.0629 5.88955,-9.1681 8.39141,-19.5466 60.2405,-35.5295zm-194.045 12.229c13.1709,0.392032 22.3268,-2.02337 29.598,-4.25452 11.0101,4.64996 20.4718,10.0743 34.2431,13.3435 -4.15446,2.29578 -9.18369,3.71736 -15.0866,4.26359 12.244,6.99676 23.5043,15.9613 36.7325,20.99 -5.35692,2.8423 -11.5886,3.49824 -18.6942,1.96781 10.9865,11.8888 24.1053,20.5798 40.3401,24.5977 -7.87125,4.48214 -14.4306,3.06085 -21.6459,4.59156 9.18256,7.76211 20.4429,10.9321 33.1248,13.4467 -3.71707,4.59156 -10.3859,4.26359 -15.7425,5.90344 4.59156,4.15418 10.495,6.99648 15.7425,10.495 6.23169,2.62403 12.0257,4.37358 17.3823,5.2475l-0.655937 2.62375c-4.20888,7.21588 -8.69046,13.4481 -13.7747,18.0383l0.327969 1.96781 2.62375 -0.655937c10.3776,-11.2093 24.6739,-36.2135 22.3509,-47.7289 -4.38888,-21.7551 -11.065,-15.912 -15.4755,-25.1062 -3.25984,-6.79522 0.225638,-14.7739 4.70523,-23.8346 10.9712,-20.8185 27.0876,-24.4191 60.5724,-34.8457 14.9771,-4.7007 20.6087,-9.07484 31.3226,-19.6793 2.06249,-1.85783 2.94888,1.3354 3.18444,2.19855 7.28221,26.6899 -5.49128,25.4154 -6.62967,35.8469l5.39348 -5.18769c24.2425,-4.36025 54.9698,-14.7064 90.5823,-29.5628 1.51682,-0.443055 2.37685,-2.03329 2.5784,0.805607 2.76775,19.5055 -30.4189,41.4468 -82.3199,52.1476 -7.26974,-7.48404 -13.6647,-10.1628 -19.186,-8.03566 8.57594,6.16848 15.0415,9.54624 15.3992,13.5581 0.566929,6.35698 -9.86259,11.7777 -16.3831,14.6472l0 1.96781c9.33109,-1.40258 16.4642,-5.16161 19.6781,-13.1187 37.4097,-5.87651 68.4009,-12.7097 85.2719,-21.6459 2.05455,-0.38778 1.80709,1.52646 1.23052,3.7698 -1.99786,26.7134 -48.0016,40.2863 -88.4702,43.4577 -4.48384,-6.11944 -10.4964,-9.39941 -18.0383,-9.83906 3.37153,4.35232 14.8462,5.3178 15.0296,14.6959 0.161008,8.23408 -21.056,12.8305 -22.2449,15.1492 10.5747,-0.465733 18.828,-2.70737 21.9739,-8.85515 29.3137,1.24923 56.2275,0.223654 77.2376,-6.39496 1.6234,-0.954142 2.42759,0.0578268 1.42951,3.52743 -4.31292,22.4875 -54.7373,33.0764 -86.2104,28.4491 0.753449,-6.44117 -5.08054,-12.8483 -14.4306,-12.4628 1.74614,2.84372 12.7908,4.88126 10.4814,13.1187 -2.50554,8.93679 -19.2818,8.96429 -20.6484,12.7908 9.28971,-0.00170079 15.9588,-1.96951 20.0061,-5.90344 12.4143,4.61225 34.7794,5.65739 70.3506,1.96781 2.59994,-0.805607 3.07021,1.99332 1.41052,3.48123 -17.6976,19.2189 -47.5129,21.3463 -82.2561,16.5249 0.159591,-8.25052 -5.03235,-13.7713 -13.1187,-15.0866l0.327969 3.93562c1.41165,1.76343 10.4528,5.63301 7.83922,11.6807 -2.6915,6.22772 -18.2313,3.57789 -20.63,6.02958l0 1.31187c11.1472,0.764221 18.7994,-0.164976 21.6454,-2.45962 17.0816,5.53436 28.7836,9.93402 48.3772,9.01956 2.31619,-0.0345827 3.32164,0.91389 1.05024,3.33666 -10.2382,13.7424 -34.1807,14.277 -68.4491,4.86199 1.96299,-7.75815 -2.4103,-12.8954 -13.1187,-11.4789 2.01969,2.0228 12.0039,5.2475 9.00794,10.656 -2.43326,4.39285 -13.1647,5.02866 -17.5351,3.44665l-0.983906 2.29578c7.46136,1.31074 14.5125,0.982205 20.662,-2.95172l43.2919 13.7747c2.43581,0.729071 1.26709,2.93273 -1.54006,5.13638 -7.47638,6.04403 -24.783,4.7143 -53.2313,-3.66038 -0.549638,-6.24218 -3.23008,-8.34804 -14.7583,-10.495 7.63342,4.31462 11.38,6.95311 10.4281,9.76536 -1.71865,5.07714 -16.869,3.12208 -17.8073,4.50114 6.53244,1.74841 12.545,2.0761 18.2024,0.327969 5.85156,6.28498 17.9291,9.62051 26.8934,14.4306 -8.03849,4.28797 -22.6871,2.2663 -40.3401,-2.62375 -0.276378,-6.55626 -3.72104,-9.94564 -12.1354,-9.83934l0.464315 1.83685c1.72885,0.79937 10.9162,3.29669 7.97188,7.4778 -3.31739,4.71062 -16.3678,0.124158 -17.2604,1.25121l-1.67017 1.56926c7.2978,2.26715 14.4584,2.75868 21.318,-0.655937 19.7235,7.36753 36.4626,9.2384 47.8834,1.31187 -10.3856,-5.13808 -23.065,-10.6038 -31.157,-15.4145l0 -1.63984c20.4846,7.99342 38.0509,10.2552 51.9823,8.19922 49.3742,20.4579 92.0308,20.9271 118.303,33.3564 10.4386,4.78885 16.918,15.8043 2.55402,19.4468 -14.1029,-1.97008 -22.6352,-10.8215 -42.3085,-13.1193l0.000283465 1.9681c14.5395,4.59213 28.0962,12.2973 42.6359,15.7425 6.44372,3.33695 12.3959,21.4197 -2.29578,19.3502 -14.7572,-3.4458 -27.3844,-12.9538 -39.0286,-17.3826l0.163843 2.46019c12.5719,6.66851 24.8165,13.1735 37.061,20.3338 13.5975,7.48829 14.9068,25.4625 -4.75569,21.3182 -10.0063,-7.3253 -25.5833,-14.6503 -41.3241,-23.4499l-0.983906 1.31187 39.0283 25.5816c11.0804,7.42989 -0.940819,22.7242 -20.9903,8.36334 -11.8621,-8.964 -25.0348,-16.4534 -37.3881,-24.7618l-1.31187 2.29578 35.585 24.9256c7.04155,8.63178 -1.20813,18.9026 -23.4394,4.59723 -34.1099,-20.391 -73.1957,-59.2966 -80.3631,-62.6477 -2.95172,-3.82649 -5.24807,-7.6527 -8.03594,-11.3151l11.6436 3.44381c-0.536882,-6.6977 -5.48306,-14.9511 -13.4467,-24.2697l-2.29578 1.31187c4.83676,5.07033 9.15506,11.4387 13.1187,18.6942 -5.02923,-0.329386 -10.2764,-1.96923 -15.7425,-4.91953 2.18835,6.06813 8.30892,10.6617 13.4467,20.662 0.0300473,4.74747 -1.68662,5.34473 -5.15112,1.79093 -3.20202,-3.38287 -4.43792,-1.68662 -7.63966,-3.75874 -0.324851,2.79043 5.74016,4.5978 9.51137,18.038 1.91027,6.82866 -0.931749,7.04835 -6.23197,3.60794 -3.27969,-2.07723 -5.904,-6.12057 -10.1667,-6.2314 1.36772,5.57462 6.17585,7.05317 7.87096,14.1024 1.96526,7.07471 -1.20359,6.91229 -6.23112,3.93591 -7.55037,-2.97496 -14.6234,-9.59386 -18.6942,-11.971l0 3.11584c2.62403,1.31159 4.37358,2.24192 6.55994,4.42829 0.109701,7.54328 1.20217,15.4142 2.1308,22.7937 2.13761,11.035 17.2188,9.4544 26.0739,11.4783 5.69481,1.65458 6.32438,4.3064 5.2475,9.83906 4.91613,2.40605 7.10164,6.23282 4.09918,12.4628 -0.601512,2.95143 -1.20302,5.2475 -2.78731,8.36306 -0.437386,-3.22498 -1.3663,-5.63074 -1.31187,-9.67493 -1.74898,-0.219969 -3.06057,-1.31301 -3.93562,-3.27969 -2.6229,3.76923 -5.68262,4.04334 -9.17887,0.822331 -5.5766,-3.1714 -11.9724,-8.80045 -15.5829,-9.35008 -3.22214,0.111402 -3.27742,2.62602 -0.820063,7.54385 6.29235,6.4647 7.77685,9.00737 2.83578,15.0061 -3.5915,4.36025 0.390047,10.294 0.116221,12.5433 -3.5657,0.692788 -6.65518,-2.44999 -10.6597,-9.18369 -12.6729,2.06844 -7.9784,-15.5239 -9.3464,-23.9411 -15.8326,5.83881 -7.68728,15.8573 -27.8776,12.9552 -3.71509,4.37301 -3.49795,9.40139 -4.26388,14.5939 -8.49175,-6.39808 -8.87386,-23.6089 0.328536,-26.5652 -4.46967,-14.423 18.0947,-8.03793 29.8451,-16.7264 1.01735,-12.5909 0.620504,-22.8257 -2.29578,-28.8612l6.55937 -6.88734 -1.96781 -1.63984c-1.31244,2.51377 -3.28025,4.59099 -5.90344,6.2314 -5.68318,2.40576 -3.66605,7.76098 -11.8072,9.6755 -6.39355,-26.2928 -6.56136,-77.6532 -13.7744,-79.8608 -0.490677,15.0809 3.93392,19.512 2.95172,25.5816 -9.80079,0.544536 -21.6978,-6.6172 -31.5695,-8.29815 -7.18555,-1.22343 -8.95097,-4.51106 -22.5221,-10.2781 -16.2145,-6.89046 -32.2226,-35.9921 -43.6235,-57.7046 -10.6855,-20.3494 -14.5602,-38.2093 -20.0993,-54.3178 -11.156,-32.4428 -25.9985,-55.2949 -53.7132,-54.0476 7.10618,-12.5719 27.9868,-0.218551 38.0444,-1.31187 -17.229,-8.89881 -40.8643,-35.2236 -49.1953,-2.95172 -2.89644,-6.99619 -18.5304,-39.2468 14.7586,-35.4206 -2.19827,-16.4597 10.493,-18.7308 26.3577,-17.5258 14.9032,1.13216 31.9133,6.10498 44.4835,0.471402 -1.25688,6.34139 -5.52076,10.277 -11.1509,13.1187 -20.5965,6.35556 -37.5452,1.60129 -48.9178,-2.15547l-1.67868 2.39528c2.06447,-0.22252 5.54996,0.595276 7.17478,2.12684 -1.44227,15.5733 16.6107,17.5473 17.297,3.30293zm-1.96611 -0.541418l-3.92655 -0.387496c-0.599528,4.07962 -4.64003,4.22788 -4.25736,-0.868252l-5.05644 -1.09616c-2.92592,11.5444 14.8113,15.0058 13.2404,2.35191z"/>
  <path fill="#C4A177" d="M169.976 246.536c-5.79402,20.3341 -8.96429,44.9317 -11.4789,62.97 8.6366,2.8423 12.3534,-6.45024 20.99,-9.18312 -6.01399,7.15975 -9.62108,17.3271 -12.1348,28.8612 -2.29096,4.05326 -6.11915,5.03348 -10.167,5.57547 -11.0415,2.18636 -33.8899,-9.72993 -31.157,11.4789 -9.26504,3.08806 -14.1296,12.6536 -6.88734,20.3341 1.28041,-3.02599 3.54444,-11.6274 13.6797,-9.07767 12.0572,9.36652 17.555,-9.80023 29.2842,-9.28857 -4.91953,6.99648 -20.662,21.8645 -9.18312,25.5816 -1.18432,5.96665 0.473953,13.5731 6.94177,17.9005 0.309827,-3.8897 0.291685,-9.09128 3.8812,-13.6369 19.4596,2.18636 4.15418,-14.9774 12.1348,-27.8773 7.21531,2.73288 3.93562,23.5043 17.7103,22.3019 1.78781,4.44246 -0.0320315,11.5087 1.4281,16.9353 7.50444,-7.17591 9.54256,-14.5704 7.42706,-23.4947 12.0254,-11.1509 -7.43415,-14.1027 -11.8069,-19.0222 -12.2443,-11.4789 0.765071,-20.3341 -2.29578,-31.485 -1.9681,-2.8423 -3.4988,-6.12227 -4.59156,-9.83906l1.96781 0.655937c3.22413,7.32473 5.84759,14.7583 13.7747,19.3502 4.91925,0.983623 4.04447,-12.2448 2.95172,-20.662 4.15361,2.18636 9.51052,9.18312 15.4145,8.52719 4.37273,-6.45024 -3.3891,-17.8197 -2.62375,-24.2697 5.02866,1.74898 7.76183,9.72964 13.7747,9.18312 3.06085,-0.765355 -0.109417,-20.8809 -3.93562,-27.2214 -7.96337,-3.52035 -18.0573,-7.31963 -21.8554,-7.33352 -2.36296,-0.00850394 -5.82718,-1.38331 -8.11304,-2.95682 -6.00888,-4.1366 -17.3687,-7.44747 -25.1303,-14.3073z"/>
  <path fill="#C4A177" d="M336.912 27.453c14.4306,-3.38882 22.9578,-4.15418 49.1953,-15.0866 3.38882,-0.983906 4.15418,-1.96781 3.27969,2.95172 -0.318047,17.1108 -31.2596,21.7012 -55.7547,31.485 -0.218551,-6.45024 6.12227,-7.98067 3.27969,-19.3502z"/>
  <path fill="#CCCCCC" stroke="#002461" stroke-width="2.26772" d="M289.766 421.377l-0.66104 0.99156 6.94092 16.1952 44.6196 -38.0092c4.29676,10.1358 10.7963,16.7462 19.5004,19.8309 0.881292,-2.42362 -0.220536,-6.83065 -3.3052,-10.2458l1.98312 -0.33052c6.27959,9.91588 19.3896,16.5257 28.4244,12.89 -3.1955,-3.85597 -11.0177,-3.63543 -12.5598,-14.2121 10.6866,4.73726 8.15273,16.0852 32.0601,14.2121 -0.220536,-3.52545 -15.6444,-19.6104 -23.4666,-31.0686l-6.6104 -0.99156c-1.32265,-1.21153 -3.0858,-1.10098 -5.28832,0.33052 -5.72911,4.51729 -12.4498,3.636 -18.8393,-1.3218l11.5682 -9.9156c14.3773,4.79225 22.6395,-12.2298 12.6006,-24.6232 -6.33572,-7.82193 -27.474,-6.94092 -26.1519,12.3939l-9.91531 9.58508c-1.87965,-1.33228 -0.958394,-5.04822 -1.35071,-8.23692 -0.392599,-3.18869 -1.76995,-3.86929 0.343559,-8.71285 3.07191,-7.03956 3.43077,-13.2681 -0.314929,-17.4237 -9.25512,-8.20659 -17.2976,-19.4445 -24.7887,-32.0601 -4.95808,8.1533 -4.62756,17.6278 0.99156,28.4244 -4.84781,-0.440504 -7.3817,-9.47481 -11.5682,-13.2208 -3.74769,11.6793 -2.53616,21.1544 9.58508,25.7803 -1.5429,4.95808 -0.441071,8.15301 3.3052,9.58508 -1.87313,22.1448 -1.10211,19.8312 10.2458,26.7718l-35.6956 33.0514 -1.6526 0.33052z"/>
  <path fill="#CCCCCC" stroke="#002461" stroke-width="2.26772" d="M296.377 448.809l-18.8393 -8.59352c0.110268,-9.69478 -13.6613,-29.3054 -4.62728,-49.9079 2.75443,4.40703 7.27172,7.05118 13.551,7.93248 0.282614,-6.6172 -2.81112,-8.46 -2.22633,-12.4758 0.857764,-5.89181 4.52636,-6.37711 2.55685,-11.9823 13.2208,-3.3052 26.1108,8.92404 17.8478,14.8734 -17.3313,-3.36699 -21.0594,13.7889 -17.9875,29.308 2.38932,12.0702 8.61619,21.7845 9.72482,30.8458z"/>
  <path fill="#CCCCCC" stroke="#002461" stroke-width="2.26772" d="M298.69 447.157l-2.31364 -7.27144 8.59323 -7.27115c13.0011,4.29846 23.2472,2.53729 27.4329,-12.5598 0.440504,-6.38986 9.14429,-5.83909 11.2377,1.6526 1.72063,22.8614 -6.12907,32.9964 -44.9501,25.4497z"/>
  <path fill="#CCCCCC" stroke="#002461" stroke-width="2.26772" d="M274.893 438.563l-23.4666 -10.5764c2.53417,-3.08495 9.0343,-4.40674 19.5004,-3.96624 -1.6526,4.18677 3.63572,7.71222 3.96624,14.5426z"/>
  <path fill="#CCCCCC" stroke="#002461" stroke-width="2.26772" d="M256.384 472.937l-5.61884 4.9578c0.881575,2.31336 1.10183,6.27959 1.32208,11.2374 12.1184,-0.110268 23.9068,-3.30605 30.7378,-9.58508l-15.747 -9.34725c-2.24306,2.23455 -5.80791,3.14703 -10.694,2.73714z"/>
  <polygon fill="#CCCCCC" stroke="#002461" stroke-width="2.26772" points="259.689,467.649 250.105,476.573 248.783,461.699 "/>
  <path fill="#CCCCCC" stroke="#002461" stroke-width="2.26772" d="M230.604 452.115l17.1867 8.92375c-0.158173,6.53273 1.31613,15.9908 2.21074,26.3432 1.53836,17.8004 -7.05175,35.7577 -41.2115,32.1582l-0.99156 -7.93248 5.61884 -4.62728c12.4166,2.98828 22.2268,-5.16983 21.8228,-16.7959 -0.430299,-12.3764 -6.92901,-19.0548 -4.63607,-38.0696z"/>
  <path fill="#CCCCCC" stroke="#002461" stroke-width="2.26772" d="M230.274 471.284l-25.4497 21.4835c-0.109984,5.3983 0.771307,12.1187 2.64416,17.1867l26.4413 -21.814c-0.881575,-7.27144 -2.42391,-11.2374 -3.63572,-16.8562z"/>
  <path fill="#CCCCCC" stroke="#002461" stroke-width="2.26772" d="M228.952 459.716l0.66104 9.9156 -4.52948 3.8931c-5.71238,-1.03436 -12.1972,0.220252 -17.7063,7.68303 -9.41613,12.7551 0.510803,30.0801 -0.678331,46.3507 -0.924945,12.6547 -9.47452,25.8401 -24.3496,21.3968 -2.42362,-0.881575 -2.86441,-3.7457 -0.33052,-3.63543 24.1756,-7.22665 -1.56643,-37.0633 10.8204,-68.0179 6.97153,-17.4215 24.4831,-21.5518 36.1128,-17.5859z"/>
  <path fill="#CCCCCC" stroke="#002461" stroke-width="2.26772" d="M187.307 497.065l0 9.25427 -6.94092 4.62728c-12.0127,-1.32066 -14.1032,-0.991276 -20.8225,5.61884 -5.94907,2.75386 -7.93191,0.660189 -5.94936,-6.27988 5.45329,-11.431 15.9199,-16.774 33.7127,-13.2205z"/>
  <path fill="#CCCCCC" stroke="#002461" stroke-width="2.26772" d="M187.968 507.972l2.31364 15.8647c-9.08901,7.43641 -18.7841,14.2671 -28.7549,20.8228 -6.27931,-0.220536 -9.36426,-5.61912 -7.27144,-10.2461 10.7969,-9.69563 22.0346,-18.5094 33.7127,-26.4413z"/>
  <path fill="#CCCCCC" stroke="#002461" stroke-width="2.26772" d="M204.493 408.156c48.2553,26.3308 97.1717,45.3906 146.749,67.7557 13.6613,2.75414 17.0768,-10.3564 10.2461,-24.4582l-2.64416 0c-2.09339,5.83881 -4.18706,9.03345 -6.27988,9.58479 -2.64416,-5.94907 -2.31364,-27.7631 -1.98312,-40.6534 13.5513,4.9578 33.7127,11.2377 38.6705,21.814 -4.18677,0.66104 -8.37326,0 -12.5598,0.99156l-0.33052 2.31364c13.6216,11.0101 13.8379,27.7007 13.9947,42.543 0.250299,23.7603 4.87758,18.0346 4.18366,25.8738l-1.30082 2.39669c-5.55903,5.57065 -11.9509,-1.29713 -31.1032,12.7653 -11.1637,8.19638 -21.8288,11.0364 -39.602,10.0151l-0.56863 1.74076c2.92309,2.85251 6.78161,5.96523 8.96627,9.59755 -11.6745,4.92888 -38.4789,-8.57226 -50.491,-18.2455 7.86955,-9.25597 35.7687,-20.8877 44.646,-21.638 0.922678,1.95761 -2.16142,6.93695 -5.28888,12.2939 2.63509,5.28435 38.5509,-8.09632 13.1885,-21.5447 -29.4766,-14.1982 -58.4252,-29.3842 -86.2552,-43.5218 -18.4323,-9.36369 -37.8417,-19.5902 -53.9504,-26.121 -8.65503,16.9265 -17.3098,30.9609 -25.9657,42.5999 -6.16961,-0.771307 -16.3055,-5.50885 -19.5007,-8.263 4.4623,-17.7653 9.97115,-34.1263 16.1955,-49.2469l-21.814 -11.2374c-26.3974,14.7464 -46.4199,-9.87194 -37.9826,-32.0831 1.78356,-4.69559 5.0074,-8.208 8.9555,-10.5667 0.510803,2.7652 3.996,6.96246 8.14252,10.2779 0.565796,-5.18825 0.801071,-8.39339 3.01918,-12.2598 2.04605,0.394016 4.09181,-0.0929764 6.13786,-1.46183 5.54117,0.666142 10.8026,2.93017 14.5559,6.73966 -1.35156,3.67257 2.03839,7.38085 5.1497,9.74665 0.435118,2.17077 0.551339,4.54933 0.284599,7.13226 2.31392,7.38199 6.83178,11.6787 13.5513,12.89l-0.33052 -7.93219 8.59323 5.61855c5.50885,0.551055 9.69534,-13.4408 14.5429,-20.1614l3.63572 0.66104 0.66104 14.2124 2.31336 2.31336c8.2097,-0.604063 15.3706,-10.7388 11.8987,-23.7969l2.64416 -3.63572c3.3052,0.440788 6.27988,1.54261 9.91531,3.3052 -1.98567,12.7811 -7.38624,27.4354 -12.89,41.6449z"/>
  <ellipse fill="#0057F0" stroke="#002461" stroke-width="2.26772" cx="127.153" cy="384.629" rx="9.25444" ry="9.31453"/>
 </g>
</svg>
