<?xml version="1.0" encoding="UTF-8"?>
<!DOCTYPE svg PUBLIC "-//W3C//DTD SVG 1.1//EN" "http://www.w3.org/Graphics/SVG/1.1/DTD/svg11.dtd">
<!-- Creator: CorelDRAW -->
<svg xmlns="http://www.w3.org/2000/svg" xml:space="preserve" width="500px" height="551px" shape-rendering="geometricPrecision" text-rendering="geometricPrecision" image-rendering="optimizeQuality" fill-rule="evenodd" clip-rule="evenodd"
viewBox="0 0 500 551"
 xmlns:xlink="http://www.w3.org/1999/xlink"
 xmlns:svg="http://www.w3.org/2000/svg"
 version="1.0">
 <g id="Layer_x0020_1">
  <metadata id="CorelCorpID_0Corel-Layer"/>
  <path id="path1937" fill="black" stroke="black" stroke-width="0.368504" d="M0.148819 0.716599l499.554 -0.121606 -17.8855 334.518c-41.0624,287.751 -426.19,282.729 -465.048,-0.148252l-16.6201 -334.249z"/>
  <path id="path1937_0" fill="#CCCCCC" d="M0.383528 1.1486l124.03 -0.0297638 126.738 135.365 125.502 -135.426 122.682 -0.0303307 -6.70196 125.344 -122.724 134.14 104.203 110.634c-18.307,68.6041 -57.8146,116.891 -106.74,145.728l-117.46 -124.863 -116.524 125.882c-49.1664,-28.3439 -89.0371,-75.4781 -107.797,-142.336l105.253 -112.022 -123.988 -132.201 -6.47348 -130.184z"/>
  <path fill="none" stroke="white" stroke-width="2.83465" d="M188.288 303.868c-2.43383,-2.39102 -2.6623,-6.48596 -0.617953,-8.96032"/>
  <polygon fill="white" stroke="white" stroke-width="0.992126" points="300.683,92.3091 334.175,56.0812 362.531,82.9285 344.077,102.215 350.777,109.147 395.515,61.5331 388.521,55.3082 370.374,74.5404 341.645,48.0011 372.182,14.9709 383.767,25.6615 363.022,47.283 369.336,53.8059 390.349,31.7353 415.911,55.3241 343.8,132.817 319.361,109.857 340.576,85.7994 333.482,79.0453 311.68,102.641 "/>
  <polygon fill="#F00000" points="304.283,92.3091 337.775,56.0812 366.131,82.9285 347.677,102.215 354.377,109.147 399.115,61.5331 392.121,55.3082 373.974,74.5404 345.245,48.0011 375.782,14.9709 387.367,25.6615 366.622,47.283 372.936,53.8059 393.949,31.7353 419.511,55.3241 347.4,132.817 322.961,109.857 344.176,85.7994 337.082,79.0453 315.28,102.641 "/>
  <polygon fill="white" stroke="white" stroke-width="0.992126" points="416.916,199.989 449.208,165.41 420.362,138.239 401.11,159.292 393.875,152.304 437.474,105.372 444.684,112.274 428.74,130.177 457.309,156.652 485.998,123.966 475.493,114.163 454.538,137.035 447.523,130.18 468.249,107.005 444.367,84.2837 374.326,161.365 397.908,183.019 418.193,159.917 426.376,167.094 405.724,190.305 "/>
  <polygon fill="#F00000" stroke="#F00000" stroke-width="0.992126" points="448.799,23.8504 198.297,292.986 225.267,321.831 473.534,48.5856 "/>
  <line fill="none" stroke="white" stroke-width="2.83465" x1="201.918" y1="292.914" x2="450.079" y2= "27.1015" />
  <path fill="none" stroke="white" stroke-width="1.41732" d="M204.262 354.634c4.44444,1.18176 6.33685,-2.33376 7.27115,-8.29616 13.2591,10.8848 15.8633,-2.83862 7.75248,-13.5638 5.55052,1.25291 14.6529,0.35178 7.22268,-11.8185"/>
  <polygon fill="#F00000" points="416.916,196.389 449.208,161.81 420.362,134.639 401.11,155.692 393.875,148.704 437.474,101.772 444.684,108.674 428.74,126.577 457.309,153.052 485.998,120.366 475.493,110.563 454.538,133.435 447.523,126.58 468.249,103.405 444.367,80.6837 374.326,157.765 397.908,179.419 418.193,156.317 426.376,163.494 405.724,186.705 "/>
  <path fill="white" stroke="white" stroke-width="0.992126" d="M85.3977 319.779c1.91849,-1.94854 7.07811,-1.63587 8.4858,-1.05024 29.6277,12.3296 55.0126,12.5787 79.0186,-1.06214l27.4915 30.1411c-6.29235,26.9158 -5.33906,55.2751 4.93115,78.48 1.8995,3.3497 1.84054,6.00577 -0.512788,9.01418 -2.35332,3.00841 -5.18627,2.70482 -8.16747,2.7635 -33.8205,-11.5393 -66.8977,-10.9352 -98.6474,12.0359 -6.88763,3.88488 -16.5677,6.61125 -21.6981,1.56132 -5.13043,-5.04992 -2.06504,-13.3124 2.20791,-20.7448 12.6675,-28.0681 17.9368,-60.8383 6.10356,-102.969 -0.341575,-3.06851 -1.13131,-6.22177 0.787181,-8.1703z"/>
  <path fill="#F00000" stroke="#F00000" stroke-width="0.992126" d="M83.0336 322.761c1.91849,-1.94854 7.07811,-1.63587 8.4858,-1.05024 29.6277,12.3296 55.0126,12.5787 79.0186,-1.06214l27.4915 30.1411c-6.29235,26.9158 -5.33906,55.2751 4.93115,78.48 1.8995,3.3497 1.84054,6.00577 -0.512788,9.01418 -2.35332,3.00841 -5.18627,2.70482 -8.16747,2.7635 -33.8205,-11.5393 -66.8977,-10.9352 -98.6474,12.0359 -6.88763,3.88488 -16.5677,6.61125 -21.6981,1.56132 -5.13043,-5.04992 -2.06504,-13.3124 2.20791,-20.7448 12.6675,-28.0681 17.9368,-60.8383 6.10356,-102.969 -0.341575,-3.06851 -1.13131,-6.22177 0.787181,-8.1703z"/>
  <path fill="none" stroke="white" stroke-width="1.98425" d="M168.111 316.321c0.823465,6.27903 12.3718,15.3612 18.5386,22.8643"/>
  <rect fill="#F00000" stroke="black" stroke-width="0.708662" transform="matrix(0.946195 -0.965452 0.965452 0.946195 298.72 172.724)" width="14.5366" height="40.4949" rx="7.26832" ry="7.26832"/>
  <rect fill="#F00000" stroke="black" stroke-width="0.708662" transform="matrix(0.6722 -0.677339 0.87135 0.860281 290.647 182.92)" width="14.5366" height="40.4949" rx="7.26832" ry="7.26832"/>
  <path fill="none" stroke="white" stroke-width="2.83465" d="M175.218 312.613c-1.0783,-2.33206 -2.64558,-6.91711 -1.85386,-10.1962"/>
  <rect fill="#F00000" stroke="black" stroke-width="0.708662" transform="matrix(0.823985 -0.747982 1.15222 1.24851 168.741 304.613)" width="14.5366" height="40.4949" rx="7.26832" ry="7.26832"/>
  <rect fill="#F00000" stroke="black" stroke-width="0.708662" transform="matrix(0.468059 -0.4123 0.929693 1.02062 166.384 315.761)" width="14.5366" height="40.4949" rx="7.26832" ry="7.26832"/>
  <path fill="#F00000" stroke="black" stroke-width="0.708662" d="M78.0418 349.68c-5.38526,-5.37194 5.92158,-19.4851 9.76252,-23.1355 3.27317,-3.11074 18.4062,-14.0848 23.0037,-9.49947l0 0c6.04829,6.0327 -3.80353,18.576 -8.32536,22.6324 -4.06744,3.64876 -18.7203,15.7079 -24.4409,10.0026l0 0z"/>
  <path fill="#F00000" stroke="black" stroke-width="0.708662" d="M177.138 446.445c-5.90967,-4.78857 3.88347,-19.9911 7.32813,-24.0177 2.93556,-3.43134 16.8579,-15.9055 21.9033,-11.8179l0 0c6.63733,5.37761 -1.87058,18.8688 -5.95049,23.3694 -3.67002,4.04816 -17.0031,17.5521 -23.281,12.4662l0 0z"/>
  <path fill="#F00000" stroke="black" stroke-width="0.708662" d="M75.5431 415.602c-6.73342,5.76369 5.1514,23.1642 9.29027,27.7464 3.52715,3.90473 20.1359,17.9975 25.8846,13.0779l0 0c7.56227,-6.47263 -2.77115,-21.9203 -7.66517,-27.0343 -4.40192,-4.60035 -20.3567,-19.9114 -27.5097,-13.79l0 0z"/>
  <ellipse fill="white" stroke="white" stroke-width="0.992126" transform="matrix(1.02041 0.837868 -0.837868 1.02041 207.262 336.642)" rx="4.32567" ry="2.00835"/>
  <ellipse fill="white" stroke="white" stroke-width="0.992126" transform="matrix(0.577213 0.473953 -0.473953 0.577213 198.103 344.939)" rx="4.32567" ry="2.00835"/>
  <line fill="none" stroke="white" stroke-width="2.83465" x1="346.357" y1="130.205" x2="418.002" y2= "54.4071" />
  <rect fill="#F00000" stroke="black" stroke-width="0.708662" transform="matrix(0.672369 -0.617212 0.938248 1.01276 183.862 296.797)" width="14.5366" height="40.4949" rx="7.26832" ry="7.26832"/>
  <path fill="white" stroke="white" stroke-width="0.992126" d="M188.813 295.619c4.14567,-2.16284 7.86615,0.308977 4.32567,7.41544l10.8142 13.9039c-5.64747,-7.41544 -18.5227,-16.9937 -15.1399,-21.3194z"/>
  <ellipse fill="white" stroke="white" stroke-width="0.992126" transform="matrix(0.690801 0.567221 -0.567221 0.690801 215.894 325.628)" rx="4.32567" ry="2.00835"/>
  <path fill="white" stroke="white" stroke-width="0.992126" d="M173.762 303.802c5.67723,-2.592 10.2438,0.370205 7.03503,8.88634l12.9594 16.6621c-7.40523,-8.88662 -23.6971,-20.3647 -19.9945,-25.5484z"/>
  <path fill="white" stroke="white" stroke-width="0.992126" d="M170.583 316.012c3.81062,-0.617953 5.76737,1.85386 4.63465,8.03339l14.8309 14.8309c-6.17953,-7.41544 -22.5553,-18.5386 -19.4655,-22.8643z"/>
  <path fill="black" stroke="black" stroke-width="0.992126" d="M227.913 330.707c-5.0366,3.03676 -10.6515,0.53915 -7.60366,-1.26935 3.83471,-2.27594 3.75477,-2.46189 2.96901,-6.14608l-22.5553 -25.954c6.17953,7.41544 30.2797,29.0438 27.1899,33.3695z"/>
  <path fill="black" stroke="black" stroke-width="0.992126" d="M222.042 344.92c-5.0366,3.03676 -11.2499,0.879874 -8.22161,-0.960378 3.14561,-1.91169 4.38321,-2.66202 3.58696,-7.69096l-26.572 -29.3528c6.17953,7.41544 34.2964,33.6784 31.2066,38.0041z"/>
  <path fill="black" stroke="black" stroke-width="0.992126" d="M205.975 349.554c-5.0366,3.03676 -7.25273,0.848126 -4.20492,-0.960378 5.68857,-1.65799 1.90091,-1.53496 1.11515,-5.21915l-25.3361 -27.8079c6.17953,7.41544 31.5156,29.6617 28.4258,33.9874z"/>
  <line fill="none" stroke="#F00000" stroke-width="1.41732" x1="197.773" y1="351.853" x2="187.577" y2= "341.348" />
  <path fill="none" stroke="white" stroke-width="2.83465" d="M82.5248 341.039c4.32567,-6.79748 9.88725,-12.3591 16.6847,-16.6847"/>
  <path fill="none" stroke="black" stroke-width="0.992126" d="M84.0697 346.601c10.1959,-4.11931 18.3319,-10.7107 24.4091,-19.7745"/>
  <path fill="none" stroke="white" stroke-width="1.98425" d="M180.47 439.293c2.8321,-9.88668 10.5562,-17.8172 21.6284,-24.4091"/>
  <path fill="white" stroke="white" stroke-width="0.992126" d="M77.3615 419.668c3.33893,-2.46699 2.5268,-1.24158 5.60268,-1.06413 -11.4066,3.74117 2.23824,16.6657 5.73988,21.6692 -7.40523,-8.88662 -17.5365,-16.0282 -11.3426,-20.605z"/>
  <path fill="black" stroke="black" stroke-width="0.992126" d="M106.558 450.491c-3.33893,2.46699 -2.5268,1.24158 -5.60268,1.06413 11.4066,-3.74117 -2.23824,-16.6657 -5.73988,-21.6692 7.40523,8.88662 17.5365,16.0282 11.3426,20.605z"/>
  <path fill="none" stroke="#E5E5E5" stroke-width="0.992126" d="M84.8333 443.348c-4.13887,-4.58221 -16.0237,-21.9827 -9.29027,-27.7464l0 0c3.12945,-2.67789 7.94353,-1.25376 12.7375,1.5806"/>
  <path fill="none" stroke="black" stroke-width="1.98425" d="M90.5837 418.647c5.33764,3.62155 10.3028,8.48041 12.469,10.7444 2.90551,3.03591 7.72923,9.71604 9.58536,15.9968"/>
  <path fill="none" stroke="white" stroke-width="1.41732" d="M177.138 446.445c-5.90967,-4.78857 3.88347,-19.9911 7.32813,-24.0177 2.93556,-3.43134 16.8579,-15.9055 21.9033,-11.8179l0 0"/>
  <path fill="white" stroke="white" stroke-width="0.992126" d="M77.5812 438.058c-1.75068,0.205795 -4.11959,3.19266 -5.2526,7.10646 0.256819,4.0218 1.01424,6.45166 2.16284,7.72441 -0.61767,-5.76766 -0.205795,-11.0203 3.08977,-14.8309z"/>
  <path fill="black" stroke="black" stroke-width="0.992126" d="M78.3117 454.011c3.60822,4.80558 13.9697,-0.461481 16.3074,-1.75833 -2.61921,-0.735874 -4.35572,-2.72126 -5.29569,-3.16687 -3.25191,2.00948 -7.45597,4.17714 -11.0118,4.9252z"/>
  <path fill="none" stroke="white" stroke-width="1.98425" d="M78.0418 349.68c-5.38526,-5.37194 5.92158,-19.4851 9.76252,-23.1355 3.27317,-3.11074 18.4062,-14.0848 23.0037,-9.49947l0 0c1.91707,1.91225 2.36608,4.4691 1.76315,7.32785"/>
  <path fill="none" stroke="white" stroke-width="2.83465" d="M293.247 187.014c3.56939,6.27364 11.5631,12.6354 18.3841,19.7745"/>
  <line fill="none" stroke="white" stroke-width="1.98425" x1="328.779" y1="198.446" x2="333.414" y2= "202.308" />
  <path fill="black" stroke="black" stroke-width="0.992126" d="M344.088 201.4c-5.0366,3.03676 -10.6515,0.53915 -7.60366,-1.26935 5.09868,-1.65799 4.94249,-1.84394 3.74145,-6.14608l-23.4822 -25.3361c7.58438,9.28829 36.7628,28.04 27.3444,32.7515z"/>
  <path fill="black" stroke="black" stroke-width="0.992126" d="M330.856 210.566c-4.80047,3.39789 -10.5832,1.31896 -7.67622,-0.708378 4.93087,-1.25405 4.42914,-1.7966 2.2011,-6.19257l-20.9991 -20.5223c6.02419,6.08911 29.6138,23.3521 26.4742,27.4232z"/>
  <path fill="white" stroke="white" stroke-width="0.992126" d="M295.244 182.783c-0.82715,-5.57008 3.74032,-4.15588 1.49641,-1.45474 -0.769323,5.73194 8.21736,11.9846 11.846,16.5183 -3.9138,-2.79525 -14.4454,-11.8559 -13.3424,-15.0636z"/>
  <path fill="white" stroke="white" stroke-width="0.992126" d="M303.895 172.278c1.03408,-7.89648 6.84199,-8.03254 1.49641,-1.45474 1.07235,7.53109 13.0105,16.6666 18.489,23.0068 -5.46435,-4.3098 -19.995,-17.2763 -19.9854,-21.5521z"/>
  <path fill="none" stroke="white" stroke-width="0.992126" d="M297.263 176.509c0.720851,-0.463465 2.67761,-1.23591 4.01669,-0.92693"/>
  <path fill="none" stroke="white" stroke-width="0.992126" d="M310.241 163.068c1.15909,-0.184819 4.17799,-0.307843 6.33402,0.463465"/>
  <path fill="#CCCCCC" d="M123.133 379.043c-9.01219,0 -16.321,-7.30885 -16.321,-16.321 0,-9.01219 7.30885,-16.321 16.321,-16.321 9.01219,0 16.321,7.30885 16.321,16.321l5.17522 -0.189354c0,-9.07824 7.36243,-16.4407 16.441,-16.4407 9.07824,0 16.4407,7.36243 16.4407,16.4407 0,9.07852 -7.36243,16.441 -16.4407,16.441l0 5.24466c9.07824,0 16.4407,7.36243 16.4407,16.441 0,9.07824 -7.36243,16.4407 -16.4407,16.4407 -9.07852,0 -16.441,-7.36243 -16.441,-16.4407l-5.01307 0.0385512c0,9.05698 -7.34514,16.4021 -16.4021,16.4021 -9.05698,0 -16.4021,-7.34514 -16.4021,-16.4021 0,-9.05698 7.34514,-16.4021 16.4021,-16.4021l-0.0810709 -5.2526z"/>
  <path fill="none" stroke="white" stroke-width="0.992126" d="M168.197 347.714c5.51027,2.6555 9.3138,8.29418 9.3138,14.819m-1.2155 6.21411c-2.4514,5.99868 -8.34577,10.2268 -15.2252,10.2268l0 5.24466c1.84394,0 3.61701,0.303874 5.27216,0.864m9.19843 7.76835c1.2566,2.32328 1.97008,4.98274 1.97008,7.8086 0,9.07824 -7.36243,16.4407 -16.4407,16.4407 -9.07852,0 -16.441,-7.36243 -16.441,-16.4407l-5.01307 0.0385512c0,9.05698 -7.34514,16.4021 -16.4021,16.4021 -2.90098,0 -5.62649,-0.753733 -7.99087,-2.07581m-6.61068 -6.84907c-1.15087,-2.24249 -1.80057,-4.78432 -1.80057,-7.47723 0,-6.50948 3.79474,-12.1348 9.29197,-14.7844m7.11015 -1.61773l-0.0810709 -5.2526c-9.01219,0 -16.321,-7.30885 -16.321,-16.321 0,-9.01219 7.30885,-16.321 16.321,-16.321m8.12325 2.16284c4.89827,2.81707 8.1978,8.10341 8.1978,14.1582m5.17522 -0.189354c0,-9.07824 7.36243,-16.4407 16.441,-16.4407"/>
  <polygon fill="white" stroke="white" stroke-width="0.992126" points="192.259,92.3091 158.766,56.0812 130.411,82.9285 148.864,102.215 142.165,109.147 97.4263,61.5331 104.421,55.3082 122.568,74.5404 151.296,48.0011 120.759,14.9709 109.174,25.6615 129.919,47.283 123.605,53.8059 102.592,31.7353 77.0307,55.3241 149.142,132.817 173.581,109.857 152.365,85.7994 159.459,79.0453 181.261,102.641 "/>
  <polyline fill="none" stroke="white" stroke-width="0.708662" points="449.589,23.1021 474.616,47.5112 345.464,190.567 "/>
  <path fill="none" stroke="white" stroke-width="0.708662" d="M226.199 321.264l97.3276 -105.67c3.19238,-1.69852 10.0928,2.31761 9.57827,-9.2693 4.42829,1.64806 8.03282,1.23647 10.8142,-1.23591"/>
  <path fill="none" stroke="white" stroke-width="2.83465" d="M311.853 303.868c2.43383,-2.39102 2.6623,-6.48596 0.617953,-8.96032"/>
  <polygon fill="white" stroke="white" stroke-width="0.992126" points="79.625,196.389 47.3338,161.81 76.1797,134.639 95.4315,155.692 102.666,148.704 59.0678,101.772 51.857,108.674 67.8014,126.577 39.2324,153.052 10.5438,120.366 21.0481,110.563 42.0038,133.435 49.0187,126.58 28.2929,103.405 52.1745,80.6837 122.216,157.765 98.6338,179.419 78.3485,156.317 70.1655,163.494 90.8173,186.705 "/>
  <polygon fill="#F00000" stroke="#F00000" stroke-width="0.992126" points="51.3425,23.8504 301.844,292.986 274.874,321.831 26.6074,48.5856 "/>
  <line fill="none" stroke="white" stroke-width="2.83465" x1="280.224" y1="314.514" x2="32.0624" y2= "48.7015" />
  <path fill="none" stroke="white" stroke-width="1.41732" d="M295.88 354.634c-4.44444,1.18176 -6.33685,-2.33376 -7.27115,-8.29616 -13.2591,10.8848 -15.8633,-2.83862 -7.75248,-13.5638 -5.55052,1.25291 -14.6529,0.35178 -7.22268,-11.8185"/>
  <polygon fill="#F00000" points="195.859,92.3091 162.366,56.0812 134.011,82.9285 152.464,102.215 145.765,109.147 101.026,61.5331 108.021,55.3082 126.168,74.5404 154.896,48.0011 124.359,14.9709 112.774,25.6615 133.519,47.283 127.205,53.8059 106.192,31.7353 80.6307,55.3241 152.742,132.817 177.181,109.857 155.965,85.7994 163.059,79.0453 184.861,102.641 "/>
  <polygon fill="#F00000" points="83.225,196.389 50.9338,161.81 79.7797,134.639 99.0315,155.692 106.266,148.704 62.6678,101.772 55.457,108.674 71.4014,126.577 42.8324,153.052 14.1438,120.366 24.6481,110.563 45.6038,133.435 52.6187,126.58 31.8929,103.405 55.7745,80.6837 125.816,157.765 102.234,179.419 81.9485,156.317 73.7655,163.494 94.4173,186.705 "/>
  <path fill="white" stroke="white" stroke-width="0.992126" d="M418.892 325.453c-1.91849,-1.94854 -7.07811,-1.63587 -8.4858,-1.05024 -29.6277,12.3296 -55.0126,12.5787 -79.0186,-1.06214l-27.4915 30.1411c6.29235,26.9158 5.33906,55.2751 -4.93115,78.48 -1.8995,3.3497 -1.84054,6.00577 0.512788,9.01418 2.35332,3.00841 5.18627,2.70482 8.16747,2.7635 33.8205,-11.5393 66.8977,-10.9352 98.6474,12.0359 6.88763,3.88488 16.5677,6.61125 21.6981,1.56132 5.13043,-5.04992 2.06504,-13.3124 -2.20791,-20.7448 -12.6675,-28.0681 -17.9368,-60.8383 -6.10356,-102.969 0.341575,-3.06851 1.13131,-6.22177 -0.787181,-8.1703z"/>
  <path fill="#F00000" stroke="#F00000" stroke-width="0.992126" d="M417.108 322.761c-1.91849,-1.94854 -7.07811,-1.63587 -8.4858,-1.05024 -29.6277,12.3296 -55.0126,12.5787 -79.0186,-1.06214l-27.4915 30.1411c6.29235,26.9158 5.33906,55.2751 -4.93115,78.48 -1.8995,3.3497 -1.84054,6.00577 0.512788,9.01418 2.35332,3.00841 5.18627,2.70482 8.16747,2.7635 33.8205,-11.5393 66.8977,-10.9352 98.6474,12.0359 6.88763,3.88488 16.5677,6.61125 21.6981,1.56132 5.13043,-5.04992 2.06504,-13.3124 -2.20791,-20.7448 -12.6675,-28.0681 -17.9368,-60.8383 -6.10356,-102.969 0.341575,-3.06851 1.13131,-6.22177 -0.787181,-8.1703z"/>
  <path fill="none" stroke="white" stroke-width="1.98425" d="M332.03 316.321c-0.823465,6.27903 -12.3718,15.3612 -18.5386,22.8643"/>
  <rect fill="#F00000" stroke="black" stroke-width="0.708662" transform="matrix(-0.946195 -0.965452 -0.965452 0.946195 201.421 172.724)" width="14.5366" height="40.4949" rx="7.26832" ry="7.26832"/>
  <rect fill="#F00000" stroke="black" stroke-width="0.708662" transform="matrix(-0.6722 -0.677339 -0.87135 0.860281 209.495 182.92)" width="14.5366" height="40.4949" rx="7.26832" ry="7.26832"/>
  <path fill="none" stroke="white" stroke-width="2.83465" d="M324.924 312.613c1.0783,-2.33206 2.64558,-6.91711 1.85386,-10.1962"/>
  <rect fill="#F00000" stroke="black" stroke-width="0.708662" transform="matrix(-0.823985 -0.747982 -1.15222 1.24851 331.4 304.613)" width="14.5366" height="40.4949" rx="7.26832" ry="7.26832"/>
  <rect fill="#F00000" stroke="black" stroke-width="0.708662" transform="matrix(-0.468059 -0.4123 -0.929693 1.02062 333.757 315.761)" width="14.5366" height="40.4949" rx="7.26832" ry="7.26832"/>
  <path fill="#F00000" stroke="black" stroke-width="0.708662" d="M422.1 349.68c5.38526,-5.37194 -5.92158,-19.4851 -9.76252,-23.1355 -3.27317,-3.11074 -18.4062,-14.0848 -23.0037,-9.49947l0 0c-6.04829,6.0327 3.80353,18.576 8.32536,22.6324 4.06744,3.64876 18.7203,15.7079 24.4409,10.0026l0 0z"/>
  <path fill="#F00000" stroke="black" stroke-width="0.708662" d="M323.004 446.445c5.90967,-4.78857 -3.88347,-19.9911 -7.32813,-24.0177 -2.93556,-3.43134 -16.8579,-15.9055 -21.9033,-11.8179l0 0c-6.63733,5.37761 1.87058,18.8688 5.95049,23.3694 3.67002,4.04816 17.0031,17.5521 23.281,12.4662l0 0z"/>
  <path fill="#F00000" stroke="black" stroke-width="0.708662" d="M424.598 415.602c6.73342,5.76369 -5.1514,23.1642 -9.29027,27.7464 -3.52715,3.90473 -20.1359,17.9975 -25.8846,13.0779l0 0c-7.56227,-6.47263 2.77115,-21.9203 7.66517,-27.0343 4.40192,-4.60035 20.3567,-19.9114 27.5097,-13.79l0 0z"/>
  <ellipse fill="white" stroke="white" stroke-width="0.992126" transform="matrix(-0.577213 0.473953 0.473953 0.577213 297.095 347.411)" rx="4.32567" ry="2.00835"/>
  <line fill="none" stroke="white" stroke-width="2.83465" x1="125.898" y1="157.335" x2="54.2529" y2= "81.5369" />
  <rect fill="#F00000" stroke="black" stroke-width="0.708662" transform="matrix(-0.672369 -0.617212 -0.938248 1.01276 316.279 296.797)" width="14.5366" height="40.4949" rx="7.26832" ry="7.26832"/>
  <path fill="white" stroke="white" stroke-width="0.992126" d="M272.509 331.375c4.14567,2.16284 7.86615,-0.308977 4.32567,-7.41544l11.2312 -13.4861c-5.56951,7.49481 -18.9048,16.6124 -15.5568,20.9016z"/>
  <path fill="white" stroke="white" stroke-width="0.992126" d="M278.411 345.532c5.67723,2.592 10.2438,-0.370205 7.03503,-8.88634l12.9594 -16.6621c-7.40523,8.88662 -23.6971,20.3647 -19.9945,25.5484z"/>
  <path fill="black" stroke="black" stroke-width="0.992126" d="M311.609 296.288c-5.0366,-3.03676 -10.6515,-0.53915 -7.60366,1.26935 3.83471,2.27594 3.75477,2.46189 2.96901,6.14608l-22.5553 25.954c6.17953,-7.41544 30.2797,-29.0438 27.1899,-33.3695z"/>
  <path fill="black" stroke="black" stroke-width="0.992126" d="M326.691 304.415c-5.0366,-3.03676 -11.2499,-0.879874 -8.22161,0.960378 3.14561,1.91169 4.38321,2.66202 3.58696,7.69096l-26.572 29.3528c6.17953,-7.41544 34.2964,-33.6784 31.2066,-38.0041z"/>
  <path fill="black" stroke="black" stroke-width="0.992126" d="M329.68 317.074c-5.0366,-3.03676 -7.25273,-0.848126 -4.20492,0.960378 5.68857,1.65799 1.90091,1.53496 1.11515,5.21915l-25.3361 27.8079c6.17953,-7.41544 31.5156,-29.6617 28.4258,-33.9874z"/>
  <line fill="none" stroke="#F00000" stroke-width="1.41732" x1="302.368" y1="351.853" x2="312.565" y2= "341.348" />
  <path fill="none" stroke="white" stroke-width="2.83465" d="M394.714 328.39c4.32567,6.79748 9.88725,12.3591 16.6847,16.6847"/>
  <path fill="none" stroke="black" stroke-width="0.992126" d="M396.259 322.828c10.1959,4.11931 18.3319,10.7107 24.4091,19.7745"/>
  <path fill="none" stroke="white" stroke-width="1.98425" d="M295.88 417.047c2.8321,9.88668 10.5562,17.8172 21.6284,24.4091"/>
  <path fill="black" stroke="black" stroke-width="0.992126" d="M422.846 420.027c-3.33893,-2.46699 -2.5268,-1.24158 -5.60268,-1.06413 10.8147,4.52381 -2.07865,16.4996 -5.73988,21.6692 7.40523,-8.88662 17.5365,-16.0282 11.3426,-20.605z"/>
  <path fill="none" stroke="#E5E5E5" stroke-width="0.992126" d="M409.155 422.226c-5.42296,4.11988 -20.6918,20.2808 -15.7791,25.5835"/>
  <path fill="none" stroke="white" stroke-width="1.98425" d="M416.046 415.866c-8.08243,3.06142 -16.382,10.3198 -18.9576,13.5252 -2.90551,3.03591 -7.72923,9.71604 -9.58536,15.9968"/>
  <path fill="none" stroke="white" stroke-width="1.41732" d="M292.877 421.804c2.03046,5.49468 5.81755,11.4438 7.91462,13.5607 1.48677,1.50123 4.96857,4.73301 8.80668,7.5515"/>
  <path fill="black" stroke="black" stroke-width="0.992126" d="M414.836 447.636c2.73657,-4.28372 6.27506,-8.0847 8.95238,-11.9753 2.35531,3.90132 5.47569,13.1737 1.8618,17.2279 0.770457,-10.5506 -1.77619,-12.3956 -10.8142,-5.2526z"/>
  <line fill="none" stroke="black" stroke-width="0.992126" x1="63.106" y1="34.5212" x2="303.484" y2= "292.928" />
  <path fill="none" stroke="white" stroke-width="1.98425" d="M388.763 327.284c2.86866,5.31581 7.59402,10.4939 9.43881,12.7242 3.21846,3.89112 18.7177,14.2827 23.0037,9.49947"/>
  <path fill="none" stroke="white" stroke-width="1.98425" d="M153.199 193.615c5.90174,-8.47078 13.7444,-14.3898 20.0985,-20.9682"/>
  <line fill="none" stroke="white" stroke-width="1.98425" x1="171.362" y1="198.446" x2="166.728" y2= "202.308" />
  <path fill="black" stroke="black" stroke-width="0.992126" d="M194.406 167.529c-5.0366,-3.03676 -10.6515,-0.53915 -7.60366,1.26935 5.09868,1.65799 4.94249,1.84394 3.74145,6.14608l-23.4822 25.3361c7.58438,-9.28829 36.7628,-28.04 27.3444,-32.7515z"/>
  <path fill="black" stroke="black" stroke-width="0.992126" d="M204.712 180.758c-4.80047,-3.39789 -10.5832,-1.31896 -7.67622,0.708378 4.93087,1.25405 4.42914,1.7966 2.2011,6.19257l-20.9991 20.5223c6.02419,-6.08911 29.6138,-23.3521 26.4742,-27.4232z"/>
  <path fill="white" stroke="white" stroke-width="0.992126" d="M169.1 208.541c-0.82715,5.57008 3.74032,4.15588 1.49641,1.45474 -0.769323,-5.73194 8.21736,-11.9846 11.846,-16.5183 -3.9138,2.79525 -14.4454,11.8559 -13.3424,15.0636z"/>
  <path fill="white" stroke="white" stroke-width="0.992126" d="M154.214 196.651c1.03408,7.89648 6.84199,8.03254 1.49641,1.45474 1.07235,-7.53109 13.0105,-16.6666 18.489,-23.0068 -5.46435,4.3098 -19.995,17.2763 -19.9854,21.5521z"/>
  <path fill="none" stroke="white" stroke-width="0.992126" d="M202.878 176.509c-0.720851,-0.463465 -2.67761,-1.23591 -4.01669,-0.92693"/>
  <path fill="none" stroke="white" stroke-width="0.992126" d="M189.901 163.068c-1.15909,-0.184819 -4.17799,-0.307843 -6.33402,0.463465"/>
  <path fill="#CCCCCC" d="M377.009 379.043c9.01219,0 16.321,-7.30885 16.321,-16.321 0,-9.01219 -7.30885,-16.321 -16.321,-16.321 -9.01219,0 -16.321,7.30885 -16.321,16.321l-5.17522 -0.189354c0,-9.07824 -7.36243,-16.4407 -16.441,-16.4407 -9.07824,0 -16.4407,7.36243 -16.4407,16.4407 0,9.07852 7.36243,16.441 16.4407,16.441l0 5.24466c-9.07824,0 -16.4407,7.36243 -16.4407,16.441 0,9.07824 7.36243,16.4407 16.4407,16.4407 9.07852,0 16.441,-7.36243 16.441,-16.4407l5.01307 0.0385512c0,9.05698 7.34514,16.4021 16.4021,16.4021 9.05698,0 16.4021,-7.34514 16.4021,-16.4021 0,-9.05698 -7.34514,-16.4021 -16.4021,-16.4021l0.0810709 -5.2526z"/>
  <path fill="none" stroke="white" stroke-width="0.992126" d="M331.945 347.714c-5.51027,2.6555 -9.3138,8.29418 -9.3138,14.819m1.2155 6.21411c2.4514,5.99868 8.34577,10.2268 15.2252,10.2268l0 5.24466c-1.84394,0 -3.61701,0.303874 -5.27216,0.864m-9.19843 7.76835c-1.2566,2.32328 -1.97008,4.98274 -1.97008,7.8086 0,9.07824 7.36243,16.4407 16.4407,16.4407 9.07852,0 16.441,-7.36243 16.441,-16.4407l5.01307 0.0385512c0,9.05698 7.34514,16.4021 16.4021,16.4021 2.90098,0 5.62649,-0.753733 7.99087,-2.07581m6.61068 -6.84907c1.15087,-2.24249 1.80057,-4.78432 1.80057,-7.47723 0,-6.50948 -3.79474,-12.1348 -9.29197,-14.7844m-7.11015 -1.61773l0.0810709 -5.2526c9.01219,0 16.321,-7.30885 16.321,-16.321 0,-9.01219 -7.30885,-16.321 -16.321,-16.321m-8.12325 2.16284c-4.89827,2.81707 -8.1978,8.10341 -8.1978,14.1582m-5.17522 -0.189354c0,-9.07824 -7.36243,-16.4407 -16.441,-16.4407"/>
  <polyline fill="none" stroke="white" stroke-width="0.708662" points="50.5525,23.1021 25.5254,47.5112 154.678,190.567 "/>
  <path fill="none" stroke="white" stroke-width="0.708662" d="M273.943 321.264l-97.3276 -105.67c-3.19238,-1.69852 -10.0928,2.31761 -9.57827,-9.2693 -4.42829,1.64806 -8.03282,1.23647 -10.8142,-1.23591"/>
  <line fill="none" stroke="black" stroke-width="1.98425" x1="153.417" y1="132.277" x2="81.7722" y2= "54.0601" />
  <line fill="none" stroke="black" stroke-width="1.98425" x1="375.157" y1="159.005" x2="445.566" y2= "82.5891" />
  <path fill="none" stroke="white" stroke-width="1.98425" d="M271.107 326.201c1.42271,-3.31795 12.9353,-15.2918 19.6399,-21.5192"/>
 </g>
</svg>
