<?xml version="1.0" encoding="UTF-8"?>
<!DOCTYPE svg PUBLIC "-//W3C//DTD SVG 1.1//EN" "http://www.w3.org/Graphics/SVG/1.1/DTD/svg11.dtd">
<!-- Creator: CorelDRAW -->
<svg xmlns="http://www.w3.org/2000/svg" xml:space="preserve" width="500px" height="710px" shape-rendering="geometricPrecision" text-rendering="geometricPrecision" image-rendering="optimizeQuality" fill-rule="evenodd" clip-rule="evenodd"
viewBox="0 0 500 710"
 xmlns:xlink="http://www.w3.org/1999/xlink"
 xmlns:svg="http://www.w3.org/2000/svg"
 version="1.0">
 <g id="Layer_x0020_1">
  <metadata id="CorelCorpID_0Corel-Layer"/>
  <path id="path1937" fill="#DFDFDF" stroke="black" stroke-width="0.708662" d="M10.0052 171.543l475.141 0.0776693 0 326.57c-14.8672,118.451 -107.857,206.536 -236.105,210.87 -122.54,-3.29273 -229.164,-91.406 -238.992,-217.534l-0.0433701 -319.983z"/>
  <path id="path1937_0" fill="#0057F0" d="M267.879 236.724c-0.886394,-26.0629 -33.2592,-36.9924 -33.1251,-50.967 0.134079,-13.9748 3.51326,-7.65837 5.11059,-14.029l245.282 -0.107717 0.000566929 326.57c-14.1698,112.899 -100.559,198.393 -219.66,209.925 -5.84419,0.432284 -1.1503,-3.04044 -1.42243,-11.5739 0.448441,-23.6855 -35.7072,-31.1525 -35.439,-53.0382 0.268158,-21.8855 39.2173,-32.8377 39.4379,-61.6173 0.220252,-28.7796 -37.3278,-33.4318 -36.8705,-60.3468 0.457229,-26.915 36.5063,-23.2571 36.633,-53.6043 0.126709,-30.3472 -35.0966,-34.2434 -35.6474,-60.8298 -0.550488,-26.5867 37.8683,-30.6831 38.162,-55.1566 0.293669,-24.4735 -39.7539,-31.5428 -39.9461,-59.2348 -0.192189,-27.6922 38.5523,-24.6166 37.4848,-55.9891z"/>
  <polygon fill="#008F00" stroke="#008F00" stroke-width="1.98425" points="65.9756,189.213 87.9551,278.705 72.7053,278.705 72.6687,295.581 62.5164,295.581 62.5584,278.729 46.8715,278.387 "/>
  <polygon fill="#008F00" stroke="#008F00" stroke-width="1.98425" points="122.97,189.532 144.949,279.024 129.699,279.024 129.663,295.899 119.51,295.899 119.552,279.048 103.865,278.705 "/>
  <polygon fill="#008F00" stroke="#008F00" stroke-width="1.98425" points="178.69,189.532 200.669,279.024 185.42,279.024 185.383,295.899 175.231,295.899 175.273,279.048 159.586,278.705 "/>
  <polygon fill="#008F00" stroke="#008F00" stroke-width="1.98425" points="65.9756,302.204 87.9551,391.696 72.7053,391.696 72.6687,408.572 62.5164,408.572 62.5584,391.72 46.8715,391.378 "/>
  <polygon fill="#008F00" stroke="#008F00" stroke-width="1.98425" points="122.97,302.523 144.949,392.015 129.699,392.015 129.663,408.89 119.51,408.89 119.552,392.039 103.865,391.696 "/>
  <polygon fill="#008F00" stroke="#008F00" stroke-width="1.98425" points="178.69,302.523 200.669,392.015 185.42,392.015 185.383,408.89 175.231,408.89 175.273,392.039 159.586,391.696 "/>
  <polygon fill="#008F00" stroke="#008F00" stroke-width="1.98425" points="65.9756,415.195 87.9551,504.687 72.7053,504.687 72.6687,521.563 62.5164,521.563 62.5584,504.711 46.8715,504.369 "/>
  <polygon fill="#008F00" stroke="#008F00" stroke-width="1.98425" points="122.97,415.514 144.949,505.006 129.699,505.006 129.663,521.881 119.51,521.881 119.552,505.03 103.865,504.687 "/>
  <polygon fill="#008F00" stroke="#008F00" stroke-width="1.98425" points="178.69,415.514 200.669,505.006 185.42,505.006 185.383,521.881 175.231,521.881 175.273,505.03 159.586,504.687 "/>
  <polygon fill="#008F00" stroke="#008F00" stroke-width="1.98425" points="101.489,531.61 123.468,621.102 108.219,621.102 108.182,637.978 98.0298,637.978 98.0717,621.126 82.3848,620.784 "/>
  <polygon fill="#008F00" stroke="#008F00" stroke-width="1.98425" points="153.785,531.929 175.765,621.421 160.515,621.421 160.478,638.296 150.326,638.296 150.368,621.445 134.681,621.102 "/>
  <path id="path3476" fill="#FFCB05" fill-rule="nonzero" stroke="black" stroke-width="1.41732" d="M29.7099 170.657c-9.58734,0 -9.58734,-14.7076 0,-14.7076l4.79396 0 0 -25.7377 -4.79396 0c-9.58734,0 -9.58734,-11.0307 0,-11.0307l4.79396 0 421.626 0 4.79396 0c9.58734,0 9.58734,11.0307 0,11.0307l-4.79396 0c-0.30274,9.98561 2.15121,15.5058 0,26.0887l4.79396 0c9.58734,0 9.58734,14.3566 0,14.3566l-431.214 0z"/>
  <polygon id="path129" fill="#FFE400" points="26.7798,158.047 461.798,158.047 461.798,166.465 26.7798,166.465 "/>
  <polygon id="path131" fill="#FFE400" points="26.303,125.808 463.074,125.808 463.074,134.14 26.303,134.14 "/>
  <polygon id="path133" fill="#FFCB05" points="29.1886,131.836 463.565,131.836 463.215,154.896 29.1886,154.546 "/>
  <path id="path135" fill="none" stroke="black" stroke-width="1.41732" d="M34.5039 119.181l426.535 0m2.21273 10.9613l-437.379 -0.674646"/>
  <polygon id="path137" fill="#FFCB05" stroke="black" stroke-width="1.41732" points="28.8377,155.717 456.903,156.219 "/>
  <polygon id="path143" fill="#ED1A24" points="282.213,143.045 246.318,132.306 246.318,143.045 "/>
  <polygon id="path145" fill="#ED1A24" points="210.423,143.045 246.318,153.783 246.318,143.045 "/>
  <polygon id="path147" fill="#F3A29A" points="210.423,143.045 246.318,132.306 246.318,143.045 "/>
  <polygon id="path149" fill="#F3A29A" points="282.213,143.045 246.318,153.783 246.318,143.045 "/>
  <polygon id="path151" fill="white" points="246.318,132.052 246.318,143.045 237.951,134.593 "/>
  <polygon id="path153" fill="white" points="246.318,154.037 246.318,143.045 254.686,151.495 "/>
  <polygon id="path155" fill="none" stroke="#ED1A24" stroke-width="1.15228" points="246.318,153.783 210.267,143.045 246.318,132.306 282.213,143.045 "/>
  <path id="path159" fill="#0057F0" d="M354.905 132.421c15.8961,0 19.5871,4.39172 19.5871,9.75941 0,5.36797 -4.62133,9.75969 -19.5871,9.75969 -14.9658,0 -19.514,-4.39172 -19.514,-9.75969 0,-5.36769 3.61786,-9.75941 19.514,-9.75941z"/>
  <path id="path161" fill="white" d="M369.449 137.898c2.41172,1.33427 3.87326,2.98658 3.87326,4.76561 0,4.32085 -8.40473,7.87919 -18.7829,7.87919 -10.3051,0 -18.7101,-3.55833 -18.7101,-7.87919 0,-0.126992 0,-0.253984 0,-0.38126 0.511654,4.13008 8.40501,7.37093 18.1253,7.37093 9.93969,0 18.1253,-3.49484 18.1253,-7.75219 0,-1.46154 -0.94989,-2.85931 -2.63084,-4.00309z"/>
  <polygon id="path175" fill="none" points="435.643,142.981 465.942,132.306 465.942,143.045 "/>
  <polygon id="path177" fill="none" stroke="#ED1A24" stroke-width="1.15228" points="462.874,153.783 435.49,143.045 462.874,132.306 473.689,142.981 "/>
  <polygon id="path179" fill="#F3A29A" points="435.49,143.045 462.874,132.306 462.874,143.045 "/>
  <polygon id="path181" fill="#F3A29A" points="473.689,142.981 462.874,143.045 462.874,153.783 "/>
  <polygon id="path183" fill="#ED241A" points="473.689,142.981 462.874,132.115 462.874,143.045 "/>
  <polygon id="path185" fill="#ED241A" points="435.567,143.045 462.874,153.783 462.874,142.981 "/>
  <polygon id="path187" fill="white" points="462.874,148.636 462.874,143.045 470.851,143.045 "/>
  <polygon id="path189" fill="white" points="462.874,138.724 462.874,143.045 453.286,143.045 "/>
  <polygon id="path193" fill="none" points="58.3892,142.981 25.2802,132.306 25.2802,143.045 "/>
  <polygon id="path195" fill="none" stroke="#ED1A24" stroke-width="1.15228" points="28.5106,153.783 58.5547,143.045 28.5934,132.306 17.3064,142.981 "/>
  <polyline id="path197" fill="none" points="28.4275,132.243 28.5106,143.045 58.5547,143.108 28.4275,132.243 "/>
  <polygon id="path199" fill="#F3A29A" points="17.3064,142.981 28.5934,143.045 28.5106,153.783 "/>
  <polygon id="path201" fill="#ED241A" points="58.3892,143.045 28.5106,153.783 28.5106,143.045 "/>
  <polygon id="path203" fill="#ED241A" points="17.3064,142.981 28.4275,132.306 28.5106,143.045 "/>
  <polygon id="path205" fill="white" points="28.5106,148.636 28.5106,143.045 25.2802,143.045 "/>
  <polygon id="path207" fill="white" points="28.4275,138.66 28.5106,143.045 39.2559,143.045 "/>
  <path id="path213" fill="#0057F0" d="M173.967 134.911c3.16262,0 5.83144,1.71553 5.83144,3.74882 0,2.03329 -2.66882,3.7491 -5.83144,3.7491 -3.1629,0 -5.73279,-1.71581 -5.73279,-3.7491 0,-2.03329 2.56989,-3.74882 5.73279,-3.74882z"/>
  <path id="path215" fill="white" d="M171.496 136.563c1.38387,-0.635528 3.06397,-0.572032 3.85484,0.126992 0.691654,0.635528 0.197291,1.71581 -1.18602,2.35106 -1.4828,0.571748 -3.16318,0.508252 -3.85512,-0.126992 -0.790583,-0.699307 -0.197575,-1.77931 1.1863,-2.35106z"/>
  <path id="path219" fill="#0057F0" d="M173.967 143.68c3.16262,0 5.83144,1.71553 5.83144,3.74882 0,2.03329 -2.66882,3.68532 -5.83144,3.68532 -3.1629,0 -5.73279,-1.65203 -5.73279,-3.68532 0,-2.03329 2.56989,-3.74882 5.73279,-3.74882z"/>
  <path id="path221" fill="white" d="M171.496 145.332c1.38387,-0.635528 3.06397,-0.571748 3.85484,0.126992 0.691654,0.635528 0.197291,1.71581 -1.18602,2.35106 -1.4828,0.572032 -3.16318,0.508252 -3.85512,-0.126992 -0.790583,-0.699024 -0.197575,-1.77931 1.1863,-2.35106z"/>
  <path id="path227" fill="#0057F0" d="M313.725 134.911c3.16262,0 5.83144,1.71553 5.83144,3.74882 0,2.03329 -2.66882,3.7491 -5.83144,3.7491 -3.1629,0 -5.73279,-1.71581 -5.73279,-3.7491 0,-2.03329 2.56989,-3.74882 5.73279,-3.74882z"/>
  <path id="path229" fill="white" d="M311.254 136.563c1.38387,-0.635528 3.06425,-0.572032 3.85484,0.126992 0.691654,0.635528 0.197575,1.71581 -1.18602,2.35106 -1.4828,0.571748 -3.16318,0.508252 -3.85484,-0.126992 -0.790867,-0.699307 -0.197575,-1.77931 1.18602,-2.35106z"/>
  <path id="path233" fill="#0057F0" d="M313.725 143.68c3.16262,0 5.83144,1.71553 5.83144,3.74882 0,2.03329 -2.66882,3.68532 -5.83144,3.68532 -3.1629,0 -5.73279,-1.65203 -5.73279,-3.68532 0,-2.03329 2.56989,-3.74882 5.73279,-3.74882z"/>
  <path id="path235" fill="white" d="M311.254 145.332c1.38387,-0.635528 3.06425,-0.571748 3.85484,0.126992 0.691654,0.635528 0.197575,1.71581 -1.18602,2.35106 -1.4828,0.572032 -3.16318,0.508252 -3.85484,-0.126992 -0.790867,-0.699024 -0.197575,-1.77931 1.18602,-2.35106z"/>
  <path id="path241" fill="#0057F0" d="M89.36 134.911c3.16318,0 5.73279,1.71553 5.73279,3.74882 0,2.03329 -2.56961,3.7491 -5.73279,3.7491 -3.26154,0 -5.83115,-1.71581 -5.83115,-3.7491 0,-2.03329 2.56961,-3.74882 5.83115,-3.74882z"/>
  <path id="path243" fill="white" d="M86.7907 136.563c1.38331,-0.635528 3.16262,-0.572032 3.85427,0.126992 0.790867,0.635528 0.197858,1.71581 -1.18602,2.35106 -1.38331,0.571748 -3.16262,0.508252 -3.85455,-0.126992 -0.691937,-0.699307 -0.197575,-1.77931 1.1863,-2.35106z"/>
  <path id="path247" fill="#0057F0" d="M89.36 143.68c3.16318,0 5.73279,1.71553 5.73279,3.74882 0,2.03329 -2.56961,3.68532 -5.73279,3.68532 -3.26154,0 -5.83115,-1.65203 -5.83115,-3.68532 0,-2.03329 2.56961,-3.74882 5.83115,-3.74882z"/>
  <path id="path249" fill="white" d="M86.7907 145.332c1.38331,-0.635528 3.16262,-0.571748 3.85427,0.126992 0.790867,0.635528 0.197858,1.71581 -1.18602,2.35106 -1.38331,0.572032 -3.16262,0.508252 -3.85455,-0.126992 -0.691937,-0.699024 -0.197575,-1.77931 1.1863,-2.35106z"/>
  <path id="path255" fill="#0057F0" d="M398.034 134.911c3.16318,0 5.73279,1.71553 5.73279,3.74882 0,2.03329 -2.56961,3.7491 -5.73279,3.7491 -3.26154,0 -5.83115,-1.71581 -5.83115,-3.7491 0,-2.03329 2.56961,-3.74882 5.83115,-3.74882z"/>
  <path id="path257" fill="white" d="M395.465 136.563c1.38359,-0.635528 3.1629,-0.572032 3.85455,0.126992 0.790867,0.635528 0.197858,1.71581 -1.18602,2.35106 -1.38359,0.571748 -3.16262,0.508252 -3.85455,-0.126992 -0.691937,-0.699307 -0.197858,-1.77931 1.18602,-2.35106z"/>
  <path id="path261" fill="#0057F0" d="M398.034 143.68c3.16318,0 5.73279,1.71553 5.73279,3.74882 0,2.03329 -2.56961,3.68532 -5.73279,3.68532 -3.26154,0 -5.83115,-1.65203 -5.83115,-3.68532 0,-2.03329 2.56961,-3.74882 5.83115,-3.74882z"/>
  <path id="path263" fill="white" d="M395.465 145.332c1.38359,-0.635528 3.1629,-0.571748 3.85455,0.126992 0.790867,0.635528 0.197858,1.71581 -1.18602,2.35106 -1.38359,0.572032 -3.16262,0.508252 -3.85455,-0.126992 -0.691937,-0.699024 -0.197858,-1.77931 1.18602,-2.35106z"/>
  <circle fill="white" stroke="black" stroke-width="1.41732" cx="30.8966" cy="30.4707" r="29.3048"/>
  <circle fill="white" stroke="black" stroke-width="1.41732" cx="250.263" cy="36.8474" r="29.3048"/>
  <circle fill="#E5E5E5" cx="250.263" cy="36.8474" r="24.9998"/>
  <circle fill="white" stroke="black" stroke-width="1.41732" cx="469.076" cy="30.4707" r="29.3048"/>
  <circle fill="#E5E5E5" cx="469.076" cy="30.4707" r="24.9998"/>
  <circle fill="#E5E5E5" cx="30.8966" cy="30.4707" r="24.9998"/>
  <circle fill="white" stroke="black" stroke-width="1.41732" cx="42.4694" cy="87.5271" r="29.3048"/>
  <circle fill="#E5E5E5" cx="42.4695" cy="87.5272" r="22.1573"/>
  <circle fill="#E5E5E5" cx="42.4694" cy="87.5271" r="24.9997"/>
  <circle fill="white" stroke="black" stroke-width="1.41732" cx="100.955" cy="87.5271" r="29.3048"/>
  <circle fill="#E5E5E5" cx="100.955" cy="87.5271" r="24.9997"/>
  <circle fill="white" stroke="black" stroke-width="1.41732" cx="159.441" cy="87.5271" r="29.3048"/>
  <circle fill="#E5E5E5" cx="159.441" cy="87.5272" r="22.1573"/>
  <circle fill="#E5E5E5" cx="159.441" cy="87.5271" r="24.9997"/>
  <circle fill="white" stroke="black" stroke-width="1.41732" cx="217.927" cy="87.5271" r="29.3048"/>
  <circle fill="#E5E5E5" cx="217.928" cy="87.5271" r="24.9997"/>
  <circle fill="white" stroke="black" stroke-width="1.41732" cx="276.413" cy="87.5271" r="29.3048"/>
  <circle fill="#E5E5E5" cx="276.413" cy="87.5271" r="24.9997"/>
  <circle fill="white" stroke="black" stroke-width="1.41732" cx="334.899" cy="87.5271" r="29.3048"/>
  <circle fill="#E5E5E5" cx="334.899" cy="87.5271" r="24.9997"/>
  <circle fill="white" stroke="black" stroke-width="1.41732" cx="393.385" cy="87.5271" r="29.3048"/>
  <circle fill="#E5E5E5" cx="393.385" cy="87.5272" r="22.1573"/>
  <circle fill="#E5E5E5" cx="393.385" cy="87.5271" r="24.9997"/>
  <circle fill="white" stroke="black" stroke-width="1.41732" cx="451.871" cy="87.5271" r="29.3048"/>
  <circle fill="#E5E5E5" cx="451.871" cy="87.5271" r="24.9997"/>
  <ellipse fill="white" transform="matrix(-0.224903 0.804838 -1.28006 -0.0776064 343.742 140.434)" rx="5.3195" ry="4.11052"/>
  <path fill="black" d="M360.485 147.304c2.79043,-2.79071 6.51118,-8.37185 0,-12.5578 12.2477,2.79071 12.2474,9.30189 0,12.5578z"/>
  <path id="path159_1" fill="#0057F0" d="M133.316 132.421c15.8961,0 19.5871,4.39172 19.5871,9.75941 0,5.36797 -4.62133,9.75969 -19.5871,9.75969 -14.9658,0 -19.514,-4.39172 -19.514,-9.75969 0,-5.36769 3.61786,-9.75941 19.514,-9.75941z"/>
  <path id="path161_2" fill="white" d="M147.86 137.898c2.41172,1.33427 3.87326,2.98658 3.87326,4.76561 0,4.32085 -8.40473,7.87919 -18.7829,7.87919 -10.3051,0 -18.7101,-3.55833 -18.7101,-7.87919 0,-0.126992 0,-0.253984 0,-0.38126 0.511654,4.13008 8.40501,7.37093 18.1253,7.37093 9.93969,0 18.1253,-3.49484 18.1253,-7.75219 0,-1.46154 -0.94989,-2.85931 -2.63084,-4.00309z"/>
  <ellipse fill="white" transform="matrix(-0.224903 0.804838 -1.28006 -0.0776064 122.153 140.434)" rx="5.3195" ry="4.11052"/>
  <path fill="black" d="M138.896 147.304c2.79043,-2.79071 6.51118,-8.37185 0,-12.5578 12.2477,2.79071 12.2474,9.30189 0,12.5578z"/>
  <path id="path1937_3" fill="none" stroke="black" stroke-width="1.41732" d="M10.0052 171.543l475.141 0.0776693 0 326.57c-14.8672,118.451 -107.857,206.536 -236.105,210.87 -122.54,-3.29273 -229.164,-91.406 -238.992,-217.534l-0.0433701 -319.983z"/>
 </g>
</svg>
