<?xml version="1.0" encoding="UTF-8"?>
<!DOCTYPE svg PUBLIC "-//W3C//DTD SVG 1.1//EN" "http://www.w3.org/Graphics/SVG/1.1/DTD/svg11.dtd">
<!-- Creator: CorelDRAW -->
<svg xmlns="http://www.w3.org/2000/svg" xml:space="preserve" width="500px" height="563px" shape-rendering="geometricPrecision" text-rendering="geometricPrecision" image-rendering="optimizeQuality" fill-rule="evenodd" clip-rule="evenodd"
viewBox="0 0 500 563"
 xmlns:xlink="http://www.w3.org/1999/xlink"
 xmlns:svg="http://www.w3.org/2000/svg"
 version="1.0">
 <g id="Layer_x0020_1">
  <metadata id="CorelCorpID_0Corel-Layer"/>
  <path id="path1937" fill="#F00000" d="M0.309827 0.722552l499.412 -0.000283465 -28.8017 358.007c-43.8494,196.95 -193.699,170.85 -219.09,202.988 -19.8354,-31.7549 -172.637,-1.26567 -222.722,-203.363l-28.7992 -357.632z"/>
  <path fill="white" d="M219.671 379.106l55.2218 -0.569481 -0.0348662 -58.3946 48.2979 0c-20.0308,54.328 65.962,56.6399 44.4753,-3.92145 61.1487,23.8782 58.0289,-73.9146 -0.329386,-47.395 23.8856,-58.527 -62.5947,-63.8144 -44.7154,-3.90529l-47.7284 0.594142 0.0348662 -39.3866c57.7593,20.0293 54.3127,-64.609 -1.44964,-43.4872l0.152504 -24.3088 -53.5913 -0.451276 -0.0960945 24.4307c-59.819,-21.4863 -53.6695,63.2784 -0.23726,43.2471l0.26589 39.9561 -46.7578 0.677481c17.8795,-59.9091 -68.6007,-54.6214 -44.7154,3.90529 -57.843,-23.8615 -59.3864,71.6106 -0.329103,47.3953 -21.4869,60.5611 64.5061,58.2492 44.475,3.92117l47.0614 -1.18091 0 58.8734z"/>
  <path fill="white" d="M373.721 157.402l32.2937 -127.815c-47.8029,20.4426 -2.50101,45.3342 -52.8458,76.5811 62.1992,-90.2702 -50.3158,-77.7983 -20.4202,-36.9383 9.9343,-14.7498 22.7659,-1.84139 20.8409,9.92183 -2.27197,13.883 -20.4375,16.8256 -31.0008,16.8302 -17.8722,0.00765355 -26.9017,-1.74359 -29.6138,-16.2213 -2.78391,-14.8606 10.2733,-25.0211 20.725,-10.4108 21.1731,-56.7114 -77.6571,-31.8957 -32.7498,30.5856 -21.977,-14.5505 -23.1387,-35.7197 -9.20665,-55.2473l-23.4856 -22.504 -24.1982 22.504c13.932,19.5276 12.7704,40.6967 -9.20665,55.2473 44.9073,-62.4813 -53.9229,-87.2969 -32.7498,-30.5856 10.4516,-14.6103 23.5089,-4.44983 20.725,10.4108 -2.71219,14.4777 -11.7417,16.2289 -29.6138,16.2213 -10.5633,-0.00453544 -28.7289,-2.94718 -31.0008,-16.8302 -1.92501,-11.7632 10.9066,-24.6716 20.8409,-9.92183 31.8269,-45.366 -85.6092,-45.9652 -20.4202,36.9383 -50.3447,-31.2469 -5.04284,-56.1385 -52.8458,-76.5811l35.1536 128.451 248.779 -0.635528z"/>
  <path fill="#BF9F4F" stroke="#BF9F4F" stroke-width="0.992126" d="M275.171 157.975l0.0297638 23.4371c55.7623,-21.1218 59.209,63.5165 1.44964,43.4872l-0.0348662 39.3866 47.7284 -0.594142c-17.8793,-59.9091 68.601,-54.6217 44.7154,3.90529 58.3583,-26.5195 61.4781,71.2732 0.329386,47.395 21.4866,60.5614 -64.5061,58.2494 -44.4753,3.92145l-48.2979 0 0.0348662 58.3946 -55.2218 0.569481 0 -58.8734 -47.0614 1.18091c20.031,54.328 -65.962,56.6399 -44.475,-3.92117 -59.0573,24.2153 -57.5139,-71.2568 0.329103,-47.3953 -23.8853,-58.5267 62.595,-63.8144 44.7154,-3.90529l46.7578 -0.677481 -0.26589 -39.9561c-53.4322,20.0313 -59.5817,-64.7334 0.23726,-43.2471l0.0890079 -22.9711 -94.4847 0.243213 -35.1536 -128.451c47.8029,20.4426 2.50101,45.3342 52.8458,76.5811 -64.8712,-83.2213 52.2471,-82.3043 20.4202,-36.9383 -9.9343,-14.7498 -22.7659,-1.84139 -20.8409,9.92183 2.27197,13.883 20.4375,16.8256 31.0008,16.8302 17.8722,0.00765355 26.9017,-1.74359 29.6138,-16.2213 2.78391,-14.8606 -10.2733,-25.0211 -20.725,-10.4108 -21.1731,-56.7114 77.6571,-31.8957 32.7498,30.5856 21.977,-14.5505 23.1387,-35.7197 9.20665,-55.2473l24.1982 -22.504 23.4856 22.504c-13.932,19.5276 -12.7704,40.6967 9.20665,55.2473 -44.9073,-62.4813 53.9229,-87.2969 32.7498,-30.5856 -10.4516,-14.6103 -23.5089,-4.44983 -20.725,10.4108 2.71219,14.4777 11.7417,16.2289 29.6138,16.2213 10.5633,-0.00453544 28.7289,-2.94718 31.0008,-16.8302 1.92501,-11.7632 -10.9066,-24.6716 -20.8409,-9.92183 -29.8956,-44.6732 85.7971,-44.4345 20.4202,36.9383 50.3447,-31.2469 5.04284,-56.1385 52.8458,-76.5811l-32.2937 127.815 -100.878 0.255685z"/>
  <path fill="#BF9F4F" stroke="#F00000" stroke-width="0.992126" d="M251.904 520.033c41.832,-27.8549 69.0305,-70.8886 74.8324,-126.782 -31.5414,-8.66977 -59.3717,-24.7615 -76.0692,-38.3794 -19.4808,18.1553 -51.0222,32.8034 -75.4512,37.7612 0.666992,55.7657 35.8152,116.58 76.688,127.401z"/>
  <path fill="white" d="M252.543 519.637c-52.7131,-15.8545 -76.7546,-96.8103 -74.6907,-127.059l-2.24334 0.870237c0.685701,57.3313 34.9141,115.065 76.934,126.189z"/>
  <path fill="none" stroke="#F00000" stroke-width="0.992126" d="M280.519 384.843c-0.211748,33.2739 -7.20567,57.2227 -20.9818,71.8467"/>
  <path fill="none" stroke="#F00000" stroke-width="0.992126" d="M223.537 384.843c0.211748,33.2739 7.20567,57.2227 20.9818,71.8467"/>
  <line fill="none" stroke="#F00000" stroke-width="0.992126" x1="118.128" y1="125.189" x2="384.414" y2= "125.189" />
 </g>
</svg>
