<?xml version="1.0" encoding="UTF-8" standalone="no"?>
<!-- Created with Inkscape (http://www.inkscape.org/) -->
<svg
   xmlns:dc="http://purl.org/dc/elements/1.1/"
   xmlns:cc="http://web.resource.org/cc/"
   xmlns:rdf="http://www.w3.org/1999/02/22-rdf-syntax-ns#"
   xmlns:svg="http://www.w3.org/2000/svg"
   xmlns="http://www.w3.org/2000/svg"
   xmlns:sodipodi="http://inkscape.sourceforge.net/DTD/sodipodi-0.dtd"
   xmlns:inkscape="http://www.inkscape.org/namespaces/inkscape"
   id="svg1418"
   sodipodi:version="0.32"
   inkscape:version="0.43"
   width="500"
   height="566"
   sodipodi:docbase="I:\Wikipedia\Suomi\Vaakunat"
   sodipodi:docname="kuhmo.vaakuna.svg"
   version="1.0">
  <metadata
     id="metadata1423">
    <rdf:RDF>
      <cc:Work
         rdf:about="">
        <dc:format>image/svg+xml</dc:format>
        <dc:type
           rdf:resource="http://purl.org/dc/dcmitype/StillImage" />
      </cc:Work>
    </rdf:RDF>
  </metadata>
  <defs
     id="defs1421" />
  <sodipodi:namedview
     inkscape:window-height="938"
     inkscape:window-width="1280"
     inkscape:pageshadow="2"
     inkscape:pageopacity="0.0"
     borderopacity="1.0"
     bordercolor="#666666"
     pagecolor="#ffffff"
     id="base"
     showgrid="true"
     inkscape:grid-points="true"
     gridspacingx="2px"
     gridspacingy="2px"
     gridtolerance="1px"
     inkscape:zoom="1.0025097"
     inkscape:cx="359.49869"
     inkscape:cy="349.90737"
     inkscape:window-x="-4"
     inkscape:window-y="-4"
     inkscape:current-layer="layer1" />
  <g
     inkscape:groupmode="layer"
     id="layer1"
     inkscape:label="Layer 1">
    <path
       style="fill:#000000;fill-opacity:1;fill-rule:evenodd;stroke:#000000;stroke-width:1px;stroke-linecap:butt;stroke-linejoin:miter;stroke-opacity:1"
       d="M 0.49999396,0.86218262 L 499.5,0.86218262 L 499.5,360.36218 C 499.5,473.36218 370,564.86218 250,564.86218 C 130,564.86218 0.49999396,473.36218 0.49999396,360.36218 L 0.49999396,0.86218262 z "
       id="path6670"
       sodipodi:nodetypes="cccccc" />
    <path
       style="fill:#ebb811;fill-opacity:1;fill-rule:evenodd;stroke:#ebb811;stroke-width:1px;stroke-linecap:butt;stroke-linejoin:miter;stroke-opacity:1"
       d="M 128,26.362183 C 126,38.362183 110,42.362183 110,42.362183 C 110,42.362183 118,44.362183 120,46.362183 C 123.02076,49.382945 112,58.362183 104,58.362183 C 96.566966,58.362183 92,56.362183 92,56.362183 C 92,56.362183 90,60.362183 96,64.362182 C 99.354102,66.59825 94,70.362183 94,70.362183 C 96.380511,72.390025 105.67981,71.216011 110,72.362183 L 110,76.362183 C 114,74.362183 120,74.362183 120,74.362183 C 120,88.36218 100,102.36218 90,102.36218 C 70,102.36218 64,96.36218 64,96.36218 C 62,106.36218 74,108.36218 74,114.36218 C 74,114.36218 83.149561,111.51174 86,114.36218 C 88,116.36218 83,123.36218 88,122.36218 C 93,121.36218 98.299123,110.36218 104,110.36218 C 108,110.36218 102,118.36218 108,116.36218 C 112.37321,114.90444 118,102.36218 120,106.36218 C 126.81176,119.98569 92,148.36219 70,148.36218 C 47.05986,148.36218 32,132.36218 32,132.36218 C 32,132.36218 30.649651,138.3993 34,148.36218 L 28,148.36218 C 28,148.36218 31.740138,154.21833 38,158.36218 C 38,158.36218 33,160.36218 36,162.36218 C 39,164.36218 48,162.36218 50,166.36218 L 48,170.36218 C 48,170.36218 56,174.36218 66,168.36218 C 66,168.36218 66,174.36218 72,172.36218 C 76.052777,171.01126 77.757359,165.19061 82,162.36218 C 88,158.36218 85.5,167.86218 88,168.36218 C 90.5,168.86218 91,163.36218 94,162.36218 C 97,161.36218 100,164.36218 100,164.36218 C 102,160.36218 106,156.36218 106,156.36218 L 118,150.36218 C 124,174.36218 86,200.36218 64,200.36218 C 41.611387,200.36218 41.09902,188.36218 36,188.36218 C 32,188.36218 44,200.36218 44,204.36218 C 44,209.36218 38,208.36218 38,208.36218 C 39.763341,213.1232 51.5,211.36218 54,214.36218 C 56.5,217.36218 48,220.36218 48,220.36218 C 48,220.36218 55.535961,222.30186 64,220.36218 L 70,222.36218 C 70,222.36218 80.5,214.36218 84,214.36218 C 86,214.36218 84,224.36218 84,224.36218 C 90.259862,221.18817 91.5,215.36218 96,214.36218 C 100.5,213.36218 94,226.36218 102,220.36218 C 106.83322,216.73727 110,216.36218 118,204.36218 C 118,204.36218 124.5,226.36218 118,236.36218 C 111.5,246.36218 107.00833,246.36218 92,246.36218 C 82,246.36218 69.020752,240.50207 56,242.36218 C 42,244.36218 40,254.36218 40,254.36218 C 40,254.36218 52,248.36218 62,250.36218 C 72,252.36218 64,262.36218 64,262.36218 C 64,262.36218 74.463014,256.36218 88,256.36218 C 100,256.36218 110.5973,254.66083 118,258.36218 C 122,260.36218 122,268.36218 118,270.36218 C 111.55019,273.58708 103.54594,271.1802 94,274.36218 C 88,276.36218 76.940359,285.83236 82,288.36218 C 86,290.36218 91.256021,285.04818 94,284.36218 C 102,282.36218 120.83772,279.1999 124,282.36218 C 128,286.36219 126,302.36218 130,304.36218 C 132.82843,305.77639 132,292.36218 134,284.36218 C 140,282.36218 148.48685,282.36218 158,282.36218 C 168,282.36218 172,286.36218 172,286.36218 C 172,286.36218 169.61577,276.36218 162,276.36218 C 156,276.36219 146,276.36218 144,274.36218 C 139.24343,269.6056 135.2918,261.71628 142,258.36218 C 146,256.36218 152.95839,256.36218 168,256.36218 C 188,256.36218 196,276.36218 196,276.36218 C 196,276.36218 198,262.36218 188,256.36218 C 188,256.36218 200.04176,246.16728 216,260.36218 C 216,260.36218 218,246.36218 208,244.36218 C 194.91742,241.74567 180,248.36218 164,248.36218 C 160,248.36218 146,248.36218 142,240.36218 C 137.18336,230.72891 136,204.36218 140,204.36218 C 144,204.36218 143.67981,213.83318 148,214.36218 C 148,214.36218 150,208.36218 152,210.36218 C 156.47214,214.83432 159,224.86218 162,226.36218 C 165,227.86218 160,217.86218 164,218.36218 C 168,218.86218 170,228.36218 178,230.36218 C 178,230.36218 173.87689,224.36218 178,224.36218 C 182,224.36218 187.9768,228.42251 196,230.36218 C 196,230.36218 190.95862,225.40356 194,222.36218 C 196,220.36218 209,224.36218 212,222.36218 C 215,220.36218 206,220.36218 208,216.36218 C 209.41421,213.53376 220,214.36218 222,210.36218 C 223.20416,207.95386 216,211.86218 214,208.36218 C 212,204.86218 224,202.36218 218,196.36218 C 216,194.36218 212,200.36218 196,200.36218 C 190,200.36218 153.54989,198.41324 142,150.36218 L 166,168.36218 C 166,168.36218 162.31218,158.51827 166,160.36218 C 170,162.36218 176.88783,172.92327 182,172.36218 C 182,172.36218 180.5,167.86218 184,168.36218 C 187.5,168.86218 192,178.36218 198,178.36218 C 198,178.36218 196,174.36218 198,174.36218 C 208,176.36218 216,174.36218 216,174.36218 C 216,174.36218 211.14956,173.21262 214,170.36218 C 216,168.36218 234.4314,167.91076 232,162.36218 C 232,162.36218 226,162.36218 224,160.36218 C 222,158.36218 232,150.36218 232,150.36218 C 232,150.36218 226,150.36219 224,148.36218 C 222,146.36218 224,142.36218 224,142.36218 C 224,142.36218 214,148.36218 200,148.36218 C 180,148.36218 158,148.36218 142,108.36218 C 144,104.36218 156,119.36218 160,120.36218 C 164,121.36218 151.86428,110.82825 158,112.36218 C 166,114.36218 174,130.36218 182,128.36218 C 184.74398,127.67619 174,122.36218 174,116.36218 C 174,111.89005 202,126.36218 198,114.36218 C 198,114.36218 192,114.36218 190,112.36218 C 188,110.36218 198,104.36218 196,102.36218 C 194,100.36218 194,104.36218 180,104.36218 C 168,104.36218 146.05569,98.37611 142,78.362183 C 142,78.362183 162.79814,81.619725 168,72.362183 C 168,72.362183 164,72.362183 164,70.362183 C 164,64.362183 170,64.362183 168,62.362183 C 166,60.362183 152,66.362183 138,52.362183 C 130.92893,45.291115 154,42.362183 148,40.362183 C 144.20527,39.097272 138,38.362183 128,26.362183 z "
       id="path2480"
       sodipodi:nodetypes="ccsscsccccsccssssssccccscccsssscccssscscccscsscssscscsssssssscscsssscccsssscssscscsssssssccscscccscscscscsssscsssccssssc" />
    <path
       style="fill:#ebb811;fill-opacity:1;fill-rule:evenodd;stroke:#ebb811;stroke-width:1px;stroke-linecap:butt;stroke-linejoin:miter;stroke-opacity:1"
       d="M 365.27946,28.362186 C 363.27946,40.362186 347.27946,44.362186 347.27946,44.362186 C 347.27946,44.362186 355.27946,46.362186 357.27946,48.362186 C 360.30022,51.382948 349.27946,60.362186 341.27946,60.362186 C 333.84643,60.362186 329.27946,58.362186 329.27946,58.362186 C 329.27946,58.362186 327.27946,62.362186 333.27946,66.362185 C 336.63356,68.598253 331.27946,72.362186 331.27946,72.362186 C 333.65997,74.390028 342.95927,73.216014 347.27946,74.362186 L 347.27946,78.362186 C 351.27946,76.362186 357.27946,76.362186 357.27946,76.362186 C 357.27946,90.36218 337.27946,104.36218 327.27946,104.36218 C 307.27946,104.36218 301.27946,98.36218 301.27946,98.36218 C 299.27946,108.36218 311.27946,110.36218 311.27946,116.36218 C 311.27946,116.36218 320.42902,113.51174 323.27946,116.36218 C 325.27946,118.36218 320.27946,125.36218 325.27946,124.36218 C 330.27946,123.36218 335.57858,112.36218 341.27946,112.36218 C 345.27946,112.36218 339.27946,120.36218 345.27946,118.36218 C 349.65267,116.90444 355.27946,104.36218 357.27946,108.36218 C 364.09122,121.98569 329.27946,150.36219 307.27946,150.36218 C 284.33932,150.36218 269.27946,134.36218 269.27946,134.36218 C 269.27946,134.36218 267.92911,140.3993 271.27946,150.36218 L 265.27946,150.36218 C 265.27946,150.36218 269.0196,156.21833 275.27946,160.36218 C 275.27946,160.36218 270.27946,162.36218 273.27946,164.36218 C 276.27946,166.36218 285.27946,164.36218 287.27946,168.36218 L 285.27946,172.36218 C 285.27946,172.36218 293.27946,176.36218 303.27946,170.36218 C 303.27946,170.36218 303.27946,176.36218 309.27946,174.36218 C 313.33224,173.01126 315.03682,167.19061 319.27946,164.36218 C 325.27946,160.36218 322.77946,169.86218 325.27946,170.36218 C 327.77946,170.86218 328.27946,165.36218 331.27946,164.36218 C 334.27946,163.36218 337.27946,166.36218 337.27946,166.36218 C 339.27946,162.36218 343.27946,158.36218 343.27946,158.36218 L 355.27946,152.36218 C 361.27946,176.36218 323.27946,202.36218 301.27946,202.36218 C 278.89085,202.36218 278.37848,190.36218 273.27946,190.36218 C 269.27946,190.36218 281.27946,202.36218 281.27946,206.36218 C 281.27946,211.36218 275.27946,210.36218 275.27946,210.36218 C 277.0428,215.1232 288.77946,213.36218 291.27946,216.36218 C 293.77946,219.36218 285.27946,222.36218 285.27946,222.36218 C 285.27946,222.36218 292.81542,224.30186 301.27946,222.36218 L 307.27946,224.36218 C 307.27946,224.36218 317.77946,216.36218 321.27946,216.36218 C 323.27946,216.36218 321.27946,226.36218 321.27946,226.36218 C 327.53932,223.18817 328.77946,217.36218 333.27946,216.36218 C 337.77946,215.36218 331.27946,228.36218 339.27946,222.36218 C 344.11268,218.73727 347.27946,218.36218 355.27946,206.36218 C 355.27946,206.36218 361.77946,228.36218 355.27946,238.36218 C 348.77946,248.36218 344.28779,248.36218 329.27946,248.36218 C 319.27946,248.36218 306.30021,242.50207 293.27946,244.36218 C 279.27946,246.36218 277.27946,256.36218 277.27946,256.36218 C 277.27946,256.36218 289.27946,250.36218 299.27946,252.36218 C 309.27946,254.36218 301.27946,264.36218 301.27946,264.36218 C 301.27946,264.36218 311.74247,258.36218 325.27946,258.36218 C 337.27946,258.36218 347.87676,256.66083 355.27946,260.36218 C 359.27946,262.36218 359.27946,270.36218 355.27946,272.36218 C 348.82965,275.58708 340.8254,273.1802 331.27946,276.36218 C 325.27946,278.36218 314.21982,287.83236 319.27946,290.36218 C 323.27946,292.36218 328.53548,287.04818 331.27946,286.36218 C 339.27946,284.36218 358.11718,281.1999 361.27946,284.36218 C 365.27946,288.36219 363.27946,304.36218 367.27946,306.36218 C 370.10789,307.77639 369.27946,294.36218 371.27946,286.36218 C 377.27946,284.36218 385.76631,284.36218 395.27946,284.36218 C 405.27946,284.36218 409.27946,288.36218 409.27946,288.36218 C 409.27946,288.36218 406.89523,278.36218 399.27946,278.36218 C 393.27946,278.36219 383.27946,278.36218 381.27946,276.36218 C 376.52289,271.6056 372.57126,263.71628 379.27946,260.36218 C 383.27946,258.36218 390.23785,258.36218 405.27946,258.36218 C 425.27946,258.36218 433.27946,278.36218 433.27946,278.36218 C 433.27946,278.36218 435.27946,264.36218 425.27946,258.36218 C 425.27946,258.36218 437.32122,248.16728 453.27946,262.36218 C 453.27946,262.36218 455.27946,248.36218 445.27946,246.36218 C 432.19688,243.74567 417.27946,250.36218 401.27946,250.36218 C 397.27946,250.36218 383.27946,250.36218 379.27946,242.36218 C 374.46282,232.72891 373.27946,206.36218 377.27946,206.36218 C 381.27946,206.36218 380.95927,215.83318 385.27946,216.36218 C 385.27946,216.36218 387.27946,210.36218 389.27946,212.36218 C 393.7516,216.83432 396.27946,226.86218 399.27946,228.36218 C 402.27946,229.86218 397.27946,219.86218 401.27946,220.36218 C 405.27946,220.86218 407.27946,230.36218 415.27946,232.36218 C 415.27946,232.36218 411.15635,226.36218 415.27946,226.36218 C 419.27946,226.36218 425.25626,230.42251 433.27946,232.36218 C 433.27946,232.36218 428.23808,227.40356 431.27946,224.36218 C 433.27946,222.36218 446.27946,226.36218 449.27946,224.36218 C 452.27946,222.36218 443.27946,222.36218 445.27946,218.36218 C 446.69367,215.53376 457.27946,216.36218 459.27946,212.36218 C 460.48362,209.95386 453.27946,213.86218 451.27946,210.36218 C 449.27946,206.86218 461.27946,204.36218 455.27946,198.36218 C 453.27946,196.36218 449.27946,202.36218 433.27946,202.36218 C 427.27946,202.36218 390.82935,200.41324 379.27946,152.36218 L 403.27946,170.36218 C 403.27946,170.36218 399.59164,160.51827 403.27946,162.36218 C 407.27946,164.36218 414.16729,174.92327 419.27946,174.36218 C 419.27946,174.36218 417.77946,169.86218 421.27946,170.36218 C 424.77946,170.86218 429.27946,180.36218 435.27946,180.36218 C 435.27946,180.36218 433.27946,176.36218 435.27946,176.36218 C 445.27946,178.36218 453.27946,176.36218 453.27946,176.36218 C 453.27946,176.36218 448.42902,175.21262 451.27946,172.36218 C 453.27946,170.36218 471.71086,169.91076 469.27946,164.36218 C 469.27946,164.36218 463.27946,164.36218 461.27946,162.36218 C 459.27946,160.36218 469.27946,152.36218 469.27946,152.36218 C 469.27946,152.36218 463.27946,152.36219 461.27946,150.36218 C 459.27946,148.36218 461.27946,144.36218 461.27946,144.36218 C 461.27946,144.36218 451.27946,150.36218 437.27946,150.36218 C 417.27946,150.36218 395.27946,150.36218 379.27946,110.36218 C 381.27946,106.36218 393.27946,121.36218 397.27946,122.36218 C 401.27946,123.36218 389.14374,112.82825 395.27946,114.36218 C 403.27946,116.36218 411.27946,132.36218 419.27946,130.36218 C 422.02344,129.67619 411.27946,124.36218 411.27946,118.36218 C 411.27946,113.89005 439.27946,128.36218 435.27946,116.36218 C 435.27946,116.36218 429.27946,116.36218 427.27946,114.36218 C 425.27946,112.36218 435.27946,106.36218 433.27946,104.36218 C 431.27946,102.36218 431.27946,106.36218 417.27946,106.36218 C 405.27946,106.36218 383.33515,100.37611 379.27946,80.362186 C 379.27946,80.362186 400.0776,83.619728 405.27946,74.362186 C 405.27946,74.362186 401.27946,74.362186 401.27946,72.362186 C 401.27946,66.362186 407.27946,66.362186 405.27946,64.362186 C 403.27946,62.362186 389.27946,68.362186 375.27946,54.362186 C 368.20839,47.291118 391.27946,44.362186 385.27946,42.362186 C 381.48473,41.097275 375.27946,40.362186 365.27946,28.362186 z "
       id="path3359"
       sodipodi:nodetypes="ccsscsccccsccssssssccccscccsssscccssscscccscsscssscscsssssssscscsssscccsssscssscscsssssssccscscccscscscscsssscsssccssssc" />
    <path
       style="fill:#ebb811;fill-opacity:1;fill-rule:evenodd;stroke:#ebb811;stroke-width:1px;stroke-linecap:butt;stroke-linejoin:miter;stroke-opacity:1"
       d="M 246.5,265.75872 C 244.5,277.75872 228.5,281.75872 228.5,281.75872 C 228.5,281.75872 236.5,283.75872 238.5,285.75872 C 241.52076,288.77949 230.5,297.75872 222.5,297.75872 C 215.06697,297.75872 210.5,295.75872 210.5,295.75872 C 210.5,295.75872 208.5,299.75872 214.5,303.75872 C 217.8541,305.99479 212.5,309.75872 212.5,309.75872 C 214.88051,311.78656 224.17981,310.61255 228.5,311.75872 L 228.5,315.75872 C 232.5,313.75872 238.5,313.75872 238.5,313.75872 C 238.5,327.75872 218.5,341.75872 208.5,341.75872 C 188.5,341.75872 182.5,335.75872 182.5,335.75872 C 180.5,345.75872 192.5,347.75872 192.5,353.75872 C 192.5,353.75872 201.64956,350.90828 204.5,353.75872 C 206.5,355.75872 201.5,362.75872 206.5,361.75872 C 211.5,360.75872 216.79912,349.75872 222.5,349.75872 C 226.5,349.75872 220.5,357.75872 226.5,355.75872 C 230.87321,354.30098 236.5,341.75872 238.5,345.75872 C 245.31176,359.38223 210.5,387.75873 188.5,387.75872 C 165.55986,387.75872 150.5,371.75872 150.5,371.75872 C 150.5,371.75872 149.14965,377.79584 152.5,387.75872 L 146.5,387.75872 C 146.5,387.75872 150.24014,393.61487 156.5,397.75872 C 156.5,397.75872 151.5,399.75872 154.5,401.75872 C 157.5,403.75872 166.5,401.75872 168.5,405.75872 L 166.5,409.75872 C 166.5,409.75872 174.5,413.75872 184.5,407.75872 C 184.5,407.75872 184.5,413.75872 190.5,411.75872 C 194.55278,410.4078 196.25736,404.58715 200.5,401.75872 C 206.5,397.75872 204,407.25872 206.5,407.75872 C 209,408.25872 209.5,402.75872 212.5,401.75872 C 215.5,400.75872 218.5,403.75872 218.5,403.75872 C 220.5,399.75872 224.5,395.75872 224.5,395.75872 L 236.5,389.75872 C 242.5,413.75872 204.5,439.75872 182.5,439.75872 C 160.11139,439.75872 159.59902,427.75872 154.5,427.75872 C 150.5,427.75872 162.5,439.75872 162.5,443.75872 C 162.5,448.75872 156.5,447.75872 156.5,447.75872 C 158.26334,452.51974 170,450.75872 172.5,453.75872 C 175,456.75872 166.5,459.75872 166.5,459.75872 C 166.5,459.75872 174.03596,461.6984 182.5,459.75872 L 188.5,461.75872 C 188.5,461.75872 199,453.75872 202.5,453.75872 C 204.5,453.75872 202.5,463.75872 202.5,463.75872 C 208.75986,460.58471 210,454.75872 214.5,453.75872 C 219,452.75872 212.5,465.75872 220.5,459.75872 C 225.33322,456.13381 228.5,455.75872 236.5,443.75872 C 236.5,443.75872 243,465.75872 236.5,475.75872 C 230,485.75872 225.50833,485.75872 210.5,485.75872 C 200.5,485.75872 187.52075,479.89861 174.5,481.75872 C 160.5,483.75872 158.5,493.75872 158.5,493.75872 C 158.5,493.75872 170.5,487.75872 180.5,489.75872 C 190.5,491.75872 182.5,501.75872 182.5,501.75872 C 182.5,501.75872 192.96301,495.75872 206.5,495.75872 C 218.5,495.75872 229.0973,494.05737 236.5,497.75872 C 240.5,499.75872 240.5,507.75872 236.5,509.75872 C 230.05019,512.98362 222.04594,510.57674 212.5,513.75872 C 206.5,515.75872 195.44036,525.2289 200.5,527.75872 C 204.5,529.75872 209.75602,524.44472 212.5,523.75872 C 220.5,521.75872 239.33772,518.59644 242.5,521.75872 C 246.5,525.75873 244.5,541.75872 248.5,543.75872 C 251.32843,545.17293 250.5,531.75872 252.5,523.75872 C 258.5,521.75872 266.98685,521.75872 276.5,521.75872 C 286.5,521.75872 290.5,525.75872 290.5,525.75872 C 290.5,525.75872 288.11577,515.75872 280.5,515.75872 C 274.5,515.75873 264.5,515.75872 262.5,513.75872 C 257.74343,509.00214 253.7918,501.11282 260.5,497.75872 C 264.5,495.75872 271.45839,495.75872 286.5,495.75872 C 306.5,495.75872 314.5,515.75872 314.5,515.75872 C 314.5,515.75872 316.5,501.75872 306.5,495.75872 C 306.5,495.75872 318.54176,485.56382 334.5,499.75872 C 334.5,499.75872 336.5,485.75872 326.5,483.75872 C 313.41742,481.14221 298.5,487.75872 282.5,487.75872 C 278.5,487.75872 264.5,487.75872 260.5,479.75872 C 255.68336,470.12545 254.5,443.75872 258.5,443.75872 C 262.5,443.75872 262.17981,453.22972 266.5,453.75872 C 266.5,453.75872 268.5,447.75872 270.5,449.75872 C 274.97214,454.23086 277.5,464.25872 280.5,465.75872 C 283.5,467.25872 278.5,457.25872 282.5,457.75872 C 286.5,458.25872 288.5,467.75872 296.5,469.75872 C 296.5,469.75872 292.37689,463.75872 296.5,463.75872 C 300.5,463.75872 306.4768,467.81905 314.5,469.75872 C 314.5,469.75872 309.45862,464.8001 312.5,461.75872 C 314.5,459.75872 327.5,463.75872 330.5,461.75872 C 333.5,459.75872 324.5,459.75872 326.5,455.75872 C 327.91421,452.9303 338.5,453.75872 340.5,449.75872 C 341.70416,447.3504 334.5,451.25872 332.5,447.75872 C 330.5,444.25872 342.5,441.75872 336.5,435.75872 C 334.5,433.75872 330.5,439.75872 314.5,439.75872 C 308.5,439.75872 272.04989,437.80978 260.5,389.75872 L 284.5,407.75872 C 284.5,407.75872 280.81218,397.91481 284.5,399.75872 C 288.5,401.75872 295.38783,412.31981 300.5,411.75872 C 300.5,411.75872 299,407.25872 302.5,407.75872 C 306,408.25872 310.5,417.75872 316.5,417.75872 C 316.5,417.75872 314.5,413.75872 316.5,413.75872 C 326.5,415.75872 334.5,413.75872 334.5,413.75872 C 334.5,413.75872 329.64956,412.60916 332.5,409.75872 C 334.5,407.75872 352.9314,407.3073 350.5,401.75872 C 350.5,401.75872 344.5,401.75872 342.5,399.75872 C 340.5,397.75872 350.5,389.75872 350.5,389.75872 C 350.5,389.75872 344.5,389.75873 342.5,387.75872 C 340.5,385.75872 342.5,381.75872 342.5,381.75872 C 342.5,381.75872 332.5,387.75872 318.5,387.75872 C 298.5,387.75872 276.5,387.75872 260.5,347.75872 C 262.5,343.75872 274.5,358.75872 278.5,359.75872 C 282.5,360.75872 270.36428,350.22479 276.5,351.75872 C 284.5,353.75872 292.5,369.75872 300.5,367.75872 C 303.24398,367.07273 292.5,361.75872 292.5,355.75872 C 292.5,351.28659 320.5,365.75872 316.5,353.75872 C 316.5,353.75872 310.5,353.75872 308.5,351.75872 C 306.5,349.75872 316.5,343.75872 314.5,341.75872 C 312.5,339.75872 312.5,343.75872 298.5,343.75872 C 286.5,343.75872 264.55569,337.77265 260.5,317.75872 C 260.5,317.75872 281.29814,321.01627 286.5,311.75872 C 286.5,311.75872 282.5,311.75872 282.5,309.75872 C 282.5,303.75872 288.5,303.75872 286.5,301.75872 C 284.5,299.75872 270.5,305.75872 256.5,291.75872 C 249.42893,284.68765 272.5,281.75872 266.5,279.75872 C 262.70527,278.49381 256.5,277.75872 246.5,265.75872 z "
       id="path3361"
       sodipodi:nodetypes="ccsscsccccsccssssssccccscccsssscccssscscccscsscssscscsssssssscscsssscccsssscssscscsssssssccscscccscscscscsssscsssccssssc" />
  </g>
</svg>
