<?xml version="1.0" encoding="UTF-8"?>
<!DOCTYPE svg PUBLIC "-//W3C//DTD SVG 1.1//EN" "http://www.w3.org/Graphics/SVG/1.1/DTD/svg11.dtd">
<!-- Creator: CorelDRAW -->
<svg xmlns="http://www.w3.org/2000/svg" xml:space="preserve" width="500px" height="546px" shape-rendering="geometricPrecision" text-rendering="geometricPrecision" image-rendering="optimizeQuality" fill-rule="evenodd" clip-rule="evenodd"
viewBox="0 0 500 546"
 xmlns:xlink="http://www.w3.org/1999/xlink"
 xmlns:svg="http://www.w3.org/2000/svg"
 version="1.0">
 <g id="Layer_x0020_1">
  <metadata id="CorelCorpID_0Corel-Layer"/>
  <path id="path1937" fill="#CCCCCC" stroke="#0057F0" stroke-width="2.83465" d="M1.65402 1.67641l496.612 -0.0170079 0.12841 303.196c-10.4652,319.521 -479.193,319.792 -496.758,0l0.0172913 -303.179z"/>
  <path fill="#0057F0" d="M138.009 312.474c6.24558,-2.05058 3.32362,-16.5424 4.98529,-23.8314 1.55254,6.8658 -0.496347,17.6604 3.6754,22.5615 5.36514,-4.68879 1.23562,-18.8722 5.29087,-24.8706 1.23137,8.30155 -2.26828,17.8801 3.54643,24.8718 3.4509,-4.36819 1.15597,-15.2518 5.58879,-23.8762 0.779244,7.64278 -2.19033,16.2349 2.19033,22.8952 5.87707,-3.38429 2.7343,-13.9388 6.97437,-19.9426 0.634394,7.51607 -1.02302,18.961 3.86759,21.5657 6.08145,-8.43109 2.1274,-22.9244 7.53988,-32.0309 11.0347,-18.5664 3.25474,-42.2858 14.8312,-48.1805 -1.49556,5.10747 3.60057,11.2564 3.38514,21.0183 -0.547937,24.8034 5.64322,24.9962 4.90706,38.9157 -0.509103,9.62391 6.27846,22.2491 4.04561,33.791 -4.48781,23.1976 3.93081,36.1488 -5.02526,47.6068 -7.06819,9.04309 -5.94794,14.5035 -12.0101,20.3885 -12.4129,12.0501 -23.6239,22.4839 -36.8034,16.3029 -8.73156,-4.09493 0.689953,-2.17502 -2.28926,-27.9669 -3.05915,-26.4833 -63.9122,-86.1531 -63.4558,-109.095 -4.15049,3.09487 -6.55484,7.93559 -7.21304,14.5219 -3.28422,1.78526 -4.82315,5.7532 -4.61566,11.9038 -2.88,2.07014 -3.46025,6.44032 -3.71169,11.1393 -1.85102,4.08444 -2.39273,9.04139 -1.62539,14.8711 -7.40183,15.5384 21.2105,36.3149 29.8511,52.5079 -5.6384,-3.50164 -20.444,-25.6652 -38.5237,-20.327 -5.0434,-2.78221 -9.3206,-1.73112 -13.4884,-0.131528 -4.03314,-2.44517 -7.30063,-1.05647 -10.4579,0.879591 -4.14992,-1.19339 -6.76687,-0.854363 -9.16441,-0.295654 -6.42473,0.806741 -9.01588,2.37997 -11.0585,4.06262 4.74492,7.26463 27.9346,11.5036 55.8899,44.3549 40.652,47.7717 56.6912,32.3912 86.0162,44.1978 24.9137,10.0307 63.7257,8.96911 78.986,-10.0508 8.04756,-10.0298 30.6717,-24.0236 35.1012,-33.7059 3.99147,-8.72533 11.6351,-29.1356 23.4629,-46.3456 16.7536,-24.3768 10.7637,-44.9788 15.7113,-65.8469 4.01556,-16.9359 -0.108284,-23.4417 3.53821,-41.7563 5.28038,-26.519 -3.99912,-45.6296 -5.68233,-64.4653 -2.02195,-22.6279 -18.8223,-38.4483 -23.1364,-55.7603 -4.2327,-16.9855 -19.1041,-28.2645 -27.9371,-33.8043 -14.1772,-8.89087 -26.6686,-8.90448 -33.5452,-14.7918 -3.89821,-3.33723 -5.81811,-5.55562 -10.4272,-6.94347 -7.28986,-2.19515 -17.0651,-11.5824 -27.0723,-17.3316 -19.9746,-11.4758 -48.5005,-9.00794 -63.1007,8.42996 -6.25266,7.46788 -21.204,12.8084 -33.77,21.8319 -3.50164,1.97943 3.47358,8.86961 7.17478,10.8488 -0.693355,2.72977 1.66904,4.58618 7.08718,5.56895 1.77165,2.60702 4.85207,4.34041 9.24237,5.20044 0.357449,-3.63685 -1.57691,-7.2737 0.0901418,-7.96422 11.8052,-3.36926 18.8076,-2.80999 21.0084,1.67754 -29.2377,2.01912 -36.428,27.4947 -49.7489,26.5212 -10.3232,-0.7543 -8.73071,-8.9606 -10.688,-19.139 -11.1798,10.1273 -13.3081,32.3377 10.4281,32.1503 28.0984,-0.221953 21.2791,-35.4535 53.5649,-30.1966 -1.47005,4.44784 -5.12306,7.58552 -10.9593,9.41358 -3.62977,-1.77222 -4.95922,-4.31235 -5.95956,-6.96161 -2.54806,1.11061 -3.78709,3.96737 -3.71651,8.57027l-4.8104 0.643748c-0.30841,2.21953 -2.25383,5.74866 -0.925229,6.6583 16.8421,9.51421 53.0008,-11.0925 51.5084,23.6316 -10.3567,0.915308 -16.9724,-2.0228 -29.3913,-2.59257 -8.96457,-0.411307 -19.7668,-5.50885 -33.8871,-1.12309 -13.8946,4.31575 -50.4927,2.53077 -51.3771,13.8507 6.33912,2.57329 16.2797,-2.38394 23.9281,-3.08495 -6.88592,2.87575 -19.0106,4.11449 -18.6939,9.60917 6.45903,1.94655 15.2099,-3.31002 23.3056,-3.98296 -7.5498,2.64444 -15.427,3.97899 -19.7031,11.8616 6.75638,3.57251 18.4238,-4.31405 27.1443,-4.99805 -9.02438,4.67575 -17.7214,5.7498 -23.1443,14.0267 9.44448,3.26693 26.0918,-9.18171 28.3331,-4.93285 -2.5818,3.80183 -15.6407,6.62145 -19.5324,15.334 7.74567,1.73537 20.075,-5.04199 30.1125,-7.56312 15.1353,2.08545 24.9792,0.462047 39.3534,-0.728504 10.2566,-0.849544 20.194,3.08977 29.5206,3.4594 -17.1125,11.5656 -20.6065,18.3305 -20.8446,31.6366 -0.38863,21.7154 -25.1847,60.1495 -13.6911,85.3368z"/>
  <path id="path1937_0" fill="white" d="M496.481 3.14051l-0.180567 299.62c-3.88205,118.527 -70.8239,193.778 -154.404,224.403 -0.0266457,-18.3019 25.1498,-34.418 25.1204,-54.5777 -0.0297638,-20.1597 -25.2663,-44.8654 -25.2981,-67.0352 -0.0320315,-22.1701 25.1342,-44.1655 25.1025,-65.986 -0.0320315,-21.8208 -25.2621,-42.5948 -25.2947,-64.9386 -0.0328819,-22.3441 25.1325,-45.5604 25.0982,-69.1266 -0.0342992,-23.5661 -25.2714,-48.8784 -25.3057,-72.2705 -0.0340158,-23.3921 25.1425,-44.7755 25.0999,-68.0828 -0.0411024,-22.5782 -23.0372,-40.0839 -25.1266,-61.9427l155.188 -0.0626457z"/>
  <path id="path1937_1" fill="#0057F0" d="M343.218 1.7623l155.359 -0.102898 -0.181984 303.196c-3.88205,118.527 -70.8239,193.123 -154.404,223.748 -0.0266457,-17.9742 25.1498,-33.7632 25.1204,-53.9229 -0.0297638,-20.1597 -25.2663,-44.8654 -25.2981,-67.0352 -0.0320315,-22.1701 25.1342,-44.1655 25.1025,-65.986 -0.0320315,-21.8208 -25.2621,-42.5948 -25.2947,-64.9386 -0.0328819,-22.3441 25.1325,-45.5604 25.0982,-69.1266 -0.0342992,-23.5661 -25.2714,-48.8784 -25.3057,-72.2705 -0.0340158,-23.3921 25.1428,-44.7752 25.0999,-68.0828 -0.0428032,-23.3073 -24.1957,-41.5571 -25.2955,-65.4784z"/>
  <path fill="white" d="M152.709 381.692c-3.05915,-26.4833 -63.9122,-86.1531 -63.4558,-109.095 -4.15049,3.09487 -6.55484,7.93559 -7.21304,14.5219 -3.28422,1.78526 -4.82315,5.7532 -4.61566,11.9038 -2.88,2.07014 -3.46025,6.44032 -3.71169,11.1393 -1.85102,4.08444 -2.39273,9.04139 -1.62539,14.8711l2.09792 1.58032c-1.52787,-6.22035 -0.873071,-11.1314 1.96441,-14.7331 -0.873071,-3.8194 0,-7.63909 2.61921,-11.4591 0.109134,-7.63937 3.16488,-11.0225 4.25622,-11.1317 2.61921,-3.71055 1.63701,-6.7663 3.92882,-11.1317 13.4235,35.2503 50.0925,66.2443 63.8433,102.804l1.91169 0.729355zm17.5516 -91.4106c0.634394,7.51607 -1.02302,18.961 3.86759,21.5657 -1.88391,-10.6838 -2.45792,-20.7128 -1.72233,-27.1406l-1.30961 0.327402 -0.835654 5.2475zm-9.1647 -2.95257c0.779244,7.64278 -2.04293,16.2675 2.33773,22.9278l-0.195024 -24.8953 -0.982205 -1.63701 -1.1605 3.60454zm-9.13522 -0.995528c1.23137,8.30155 -2.12088,17.9127 3.69383,24.9044 -1.81021,-8.94048 -1.656,-17.2264 -2.484,-25.8398l-1.20983 0.935434zm-8.96627 2.3091c1.55254,6.8658 -0.496347,17.6604 3.6754,22.5615l-1.7657 -25.1878 -1.9097 2.6263zm27.5247 -123.084c2.56422,5.23503 2.21414,17.9198 7.45257,26.8209l9.82205 -5.56583 -1.63701 0 0.327402 -2.61921 12.4413 -0.654803c-17.6488,13.7398 -34.5096,15.0075 -42.2708,30.9359 -5.33424,10.9474 1.18035,15.2453 -10.8258,46.3873 -6.00123,15.5659 -12.2063,31.6885 -7.81966,51.6113 -11.4936,-25.1873 13.3024,-63.6214 13.6911,-85.3368 0.23811,-13.3061 3.7321,-20.071 20.8446,-31.6366l3.13512 -1.48422c-3.71055,-6.49333 -5.14573,-11.9319 -5.37648,-18.0561 -0.20126,-5.33962 -3.12577,-11.6456 -2.80857,-15.6662 -50.4448,-2.94321 -46.4429,-10.8675 -63.3504,-5.61629 -10.0789,3.13002 -37.2765,1.01735 -52.2236,11.8225 0.88441,-11.3199 37.4825,-9.5349 51.3771,-13.8507 14.1202,-4.38577 24.9225,0.71178 33.8871,1.12309 12.4189,0.569764 19.0347,3.50788 29.3913,2.59257 0.18652,-4.34041 -0.21515,-7.81654 -1.09389,-10.5948l1.68491 0.117921c1.71865,4.05836 2.81169,18.5681 3.35169,19.6702m-77.4284 19.4403c-2.5818,3.80183 -15.6407,6.62145 -19.5324,15.334 0.968032,0.216851 2.00806,0.30104 3.10621,0.276945 3.10224,-7.76353 14.0624,-9.63383 21.0937,-14.451l-4.66753 -1.15994zm-5.18882 -9.09383c-9.02438,4.67575 -17.7214,5.7498 -23.1443,14.0267l3.20712 -1.4811c5.4567,-6.65717 14.1874,-7.42111 20.2989,-10.1495l2.94662 -1.96441 -3.30832 -0.431717zm-7.44123 -6.86353c-7.5498,2.64444 -15.427,3.97899 -19.7031,11.8616l2.95087 -0.964914c5.4567,-7.0937 15.497,-6.98457 23.2455,-10.4769l-6.49333 -0.419811zm-4.61169 -5.62621c-6.88592,2.87575 -19.0106,4.11449 -18.6939,9.60917 9.0601,-7.84489 16.81,-5.86772 25.2153,-8.80158l-0.654803 -1.30961 -5.86659 0.502016zm54.6307 -39.5924c5.83625,-1.82806 9.48926,-4.96573 10.9593,-9.41358l0.845859 -3.55295 0.654803 -1.96441 1.63701 1.63701c0.436536,12.2233 -10.4769,18.1165 -26.8469,16.6975l-0.654803 4.58362 -2.00693 0.923528c-1.3286,-0.909638 0.616819,-4.43877 0.925229,-6.6583l4.8104 -0.643748c-0.0705827,-4.6029 1.16844,-7.45966 3.71651,-8.57027 -0.626457,3.01862 -2.23512,7.01944 -1.87937,9.05556 2.61298,-0.261354 5.22596,-0.958961 7.83893,-2.09395zm-52.7043 -9.48303c-0.0983623,-0.619654 -0.207213,-1.2481 -0.329386,-1.88419 -8.73411,7.91178 -11.9438,23.199 -1.61178,29.4191 -5.08309,-9.99695 -5.19959,-19.2841 1.94117,-27.5349zm60.1076 -9.26646c-29.2377,2.01912 -36.428,27.4941 -49.7489,26.5212 -2.41909,-0.176599 -4.18422,-0.763087 -5.49355,-1.68775l0.0572599 1.90318c23.4638,6.1115 24.3369,-23.4638 56.6405,-24.8825l-1.45531 -1.85414zm-30.3409 1.08624c1.77165,2.60702 4.85207,4.34041 9.24237,5.20044 0.0892914,-0.909071 0.0354331,-1.81871 -0.0694489,-2.68158 -2.93613,0.180284 -5.43544,-0.94904 -7.49764,-3.38797l-1.67528 0.869103zm153.653 -7.61273c-14.1772,-8.89087 -26.6686,-8.90448 -33.5452,-14.7918 -3.89821,-3.33723 -5.81811,-5.55562 -10.4272,-6.94347 -7.28986,-2.19515 -17.0651,-11.5824 -27.0723,-17.3316 -19.9746,-11.4758 -48.5005,-9.00794 -63.1007,8.42996 -6.25266,7.46788 -21.204,12.8084 -33.77,21.8319 -1.09417,0.61852 -1.16532,1.71695 -0.632977,2.9948l2.16454 -0.214866c2.31222,-4.26331 28.1974,-14.4193 40.0042,-27.8496 8.87188,-10.0922 41.5687,-13.4028 56.9668,-1.71213 25.4985,19.3598 28.6778,16.6085 37.1206,24.3165 5.70643,5.2098 15.8698,5.80451 32.8833,12.4481l-0.591024 -1.1778zm-159.257 278.995c-5.6384,-3.50164 -20.444,-25.6652 -38.5237,-20.327 -5.0434,-2.78221 -9.3206,-1.73112 -13.4884,-0.131528 -4.03314,-2.44517 -7.30063,-1.05647 -10.4579,0.879591 -4.14992,-1.19339 -6.76687,-0.854363 -9.16441,-0.295654 -6.42473,0.806741 -9.01588,2.37997 -11.0585,4.06262 0.296504,0.453827 0.665008,0.896315 1.10268,1.33455 6.81449,-4.61991 10.027,-1.60073 13.5666,-2.72778 2.51036,-1.30961 6.76659,0 8.83985,0 0.654803,-2.83748 3.81969,-2.07354 8.51245,-0.654803 4.58362,-1.30961 9.82205,-0.327402 14.7331,0 12.223,-6.87544 23.7912,15.0605 43.5444,25.5373l-7.60621 -7.67736zm94.7081 -145.873c-1.49556,5.10747 3.45345,11.2238 3.23773,20.9857 -0.547937,24.8037 5.64322,24.9962 4.90706,38.9157 -0.509103,9.62391 6.27846,22.2491 4.04561,33.791 -4.48781,23.1976 3.93081,36.1488 -5.02526,47.6068 -7.06819,9.04309 -5.94794,14.5038 -12.0101,20.3885 -11.2487,10.9202 -21.5116,20.5132 -33.1458,17.6156 2.79808,3.83669 14.332,2.47748 29.2964,-10.569 11.3117,-9.86145 12.2735,-17.718 17.6043,-25.4625 8.17059,-11.8695 1.3201,-34.1938 5.6452,-49.4881 3.59093,-12.6984 -3.91295,-27.8215 -3.97531,-37.4749 -0.0498898,-7.68898 -4.87729,-23.6908 -4.52551,-32.5154 0.786331,-19.7235 -3.38995,-17.1726 -4.43027,-25.1039l-1.62397 1.31046z"/>
  <path fill="#003399" d="M130.332 123.79c-3.62977,-1.77222 -4.95922,-4.31235 -5.95956,-6.96161l-0.897166 3.81714c0.764221,1.74614 1.96469,3.05575 3.60142,3.92882l3.25531 -0.784347zm10.9593 -9.41358c-32.2858,-5.25685 -25.4665,29.975 -53.5649,30.1966 -5.19194,0.0408189 -9.14712,-0.989575 -12.0399,-2.73118 -1.75266,-2.91685 -3.28621,-5.94284 -3.28592,-9.7373 4.05156,15.6538 27.4292,13.6225 35.693,-2.08262 7.01207,-13.326 17.5714,-19.444 31.0969,-19.5259 0.824882,-2.25468 0.339874,-4.0731 -1.45531,-5.45556 -2.20082,-4.48753 -9.20325,-5.04681 -21.0084,-1.67754 -1.04173,0.431433 -0.67663,2.01402 -0.343843,4.02832l-2.40236 -2.78844c-1.20019,-0.545386 -2.40066,-0.217984 -3.60142,0.982205l-2.43921 -0.932599c4.34665,-4.23638 10.0454,-2.91345 12.9084,-4.15588 6.20873,-2.69405 12.761,-0.710929 17.1828,0.156473 4.54592,0.892063 5.30873,5.92951 3.26013,13.7234zm-58.6661 15.5891c-3.8863,-2.61666 -3.88687,-8.10256 -4.85717,-14.7365l-2.09339 2.14243c2.31761,16.0722 4.63408,12.3545 6.95055,12.5941zm24.7691 -23.8388c-5.41814,-0.982772 -7.78054,-2.83918 -7.08718,-5.56895 -2.54438,-1.36063 -6.63676,-5.04255 -7.80775,-7.85396l1.99162 0.394583 1.17921 -1.32661c0.12274,4.93909 8.18079,7.88712 10.9077,5.45386 2.55487,-1.08085 4.91358,-1.37565 7.07528,-0.88441 -1.5721,0.982772 -6.09251,0.196725 -4.71685,2.94803l-2.06362 0.294803c0.0498898,1.59761 -2.06306,1.84309 -5.15906,1.47402 0.51789,1.88617 2.41143,3.57591 5.68063,5.06863zm153.653 -7.61273c8.83304,5.53975 23.7047,16.8188 27.9371,33.8043 4.31405,17.3118 21.1144,33.1328 23.1364,55.7603 1.68293,18.8357 10.9624,37.9463 5.68233,64.4653 -3.64649,18.3144 0.477355,24.8205 -3.53821,41.7563 -4.94759,20.8681 1.04202,41.47 -15.7113,65.8469 -11.8278,17.2097 -19.4715,37.6206 -23.4629,46.3456 -4.42914,9.6823 -27.0536,23.6761 -35.1012,33.7059 -15.2603,19.0199 -54.0723,20.0812 -78.986,10.0508 -29.3247,-11.8066 -45.3643,3.57364 -86.0162,-44.1978 -26.2077,-30.7979 -48.2278,-36.4485 -54.7872,-43.0203l2.10756 -0.76337c54.6605,24.2192 58.0822,60.2028 98.6758,75.809 16.3355,6.28016 28.2371,4.64457 45.6985,11.7082 17.9609,7.26577 57.176,7.08066 71.9079,-10.9256 6.94262,-8.4858 12.4367,-11.5206 21.9022,-19.3901 17.5159,-14.5627 17.0646,-27.2154 23.7736,-38.8588 11.5815,-20.0993 25.3284,-35.68 25.4512,-58.5134 0.166961,-31.0887 6.61238,-38.687 4.5377,-53.2953 -1.31669,-9.27071 7.25188,-24.9667 1.63106,-52.2717 -4.01074,-19.4839 -3.31994,-38.3876 -14.5457,-54.5423 -17.5519,-25.2584 -10.4139,-31.8036 -24.1883,-46.8108 -13.9808,-15.232 -15.4712,-11.2734 -27.627,-19.3816 4.60035,1.35581 8.95493,2.83493 12.7687,4.58362l-1.24583 -1.8652zm-189.108 226.487c-7.40183,15.5384 21.2105,36.3149 29.8511,52.5079l6.95141 6.36775c-8.01128,-17.9881 -36.9763,-37.2858 -36.8025,-58.8756zm86.5684 85.938c-1.20387,-0.299622 -2.42221,-0.733607 -3.65755,-1.31273 -8.73128,-4.09493 0.689953,-2.17502 -2.28926,-27.9669l-1.58428 0.580252c3.71055,5.15991 -5.34728,21.1246 -0.654803,27.5939 3.29216,4.53912 21.9728,8.45263 36.0539,-7.15181 -10.0392,9.31238 -25.1986,11.6915 -27.868,8.25733zm11.6048 -120.69c-4.24007,6.00378 -0.94989,16.5909 -6.82696,19.9752l0.132378 -5.90599c1.30961,-6.32977 1.96441,-13.3143 2.94662,-19.9715 1.41902,-0.873071 2.83777,-0.873071 4.25622,0l-0.508252 5.9023zm-14.6061 20.9563c3.4509,-4.36819 1.00857,-15.2844 5.44139,-23.9088l1.1605 -4.58674 -3.92882 0.982205c-0.982205,7.63937 -2.61921,14.9513 -2.94662,22.9181l0.273543 4.59525zm-3.69383 -24.9044c-4.05525,5.9984 0.0742678,20.1818 -5.29087,24.8706l-0.128693 -6.52592c2.40095,-5.23843 -0.109134,-17.0249 5.23843,-20.6263l0.181134 2.28161zm-13.9516 26.1405c6.24558,-2.05058 3.32362,-16.5424 4.98529,-23.8314l1.5823 -2.9537 -3.60142 0.654803c-0.873071,7.96678 0.218268,19.8624 -2.61921,23.9003l-0.346961 2.23002zm34.5356 -116.973c-9.32656,-0.369638 -19.264,-4.30866 -29.5206,-3.4594 -14.3739,1.19055 -24.2181,2.81395 -39.3534,0.728504 -8.78259,2.20592 -19.3201,7.67112 -27.0062,7.84007l1.44964 -2.66457c7.42309,0.0365669 17.4651,-5.16529 26.1975,-7.74794 11.9996,-0.175748 17.6769,2.71928 35.9986,-0.527811 12.6887,-2.24901 23.5797,2.46161 35.3696,3.69213l-3.13512 2.13902zm-79.454 -10.5018c-2.24136,-4.24885 -18.8887,8.19978 -28.3331,4.93285l3.86192 -1.4811c8.18504,-1.41874 17.0249,-5.12929 25.5373,-7.20284l2.61921 3.60142 -3.68532 0.149669zm-32.3331 -4.09578c6.75638,3.57251 18.4238,-4.31405 27.1443,-4.99805l2.98091 -1.53269c-6.54803,-1.09134 -19.9715,5.34756 -26.5195,5.56583l-3.60567 0.964914zm19.7031 -11.8616c-8.09575,0.672945 -16.8466,5.92951 -23.3056,3.98296 8.07818,-1.43235 16.1558,-3.54813 24.2331,-5.85496l6.54803 1.30961 -2.29181 0.654803 -5.18372 -0.0924095zm-28.5398 -2.54126c6.33912,2.57329 16.2797,-2.38394 23.9281,-3.08495l7.17619 -1.48422 -5.23843 -0.654803c-8.62186,1.74132 -17.8985,4.79225 -25.8659,5.22397zm113.562 -20.7298c-6.15147,-19.4482 -35.6777,-4.71203 -50.4145,-13.0368l2.66173 -0.923528c8.83985,5.34558 51.7298,-2.29266 53.6939,-8.51245l-7.85764 -0.327402 8.18504 -1.63701 -2.29181 -0.654803 14.7331 -0.982205c-4.14709,3.38315 -11.5682,6.1115 -12.4413,10.1495l6.22063 -2.29181 -6.22063 4.25622 7.53024 -2.29181 -5.23843 3.60142 4.58362 -0.982205 -7.85764 4.25622 -0.982205 -1.63701 -1.30961 0.982205 2.29181 4.91103 -4.58362 -4.91103 -2.29181 0.654803c1.40315,3.12577 1.93295,6.25153 1.5891,9.37673zm31.1641 85.898c-11.5764,5.89465 -3.79616,29.6141 -14.8312,48.1805 -5.41248,9.10687 -1.60583,23.5673 -7.68728,31.9983l-0.0853229 -3.89509c4.81153,-9.54879 -0.612,-19.1463 6.57723,-31.921 7.37547,-13.1057 4.53458,-34.526 10.3652,-43.831 4.42432,-7.06054 17.0901,-9.8606 23.9043,-15.6274l-0.297071 -1.62936 14.0837 -5.72117 -6.50892 0.834804c4.69786,-1.33484 8.79619,-3.54331 12.6207,-6.62542l-7.11723 1.67528c4.9714,-1.73197 9.9995,-3.40895 14.0797,-6.03241l-7.88826 1.86605c6.35216,-2.70907 12.0495,-7.38255 18.0743,-11.0738l-4.57484 0.0983623 7.42309 -3.4509 1.76343 -3.62948 -1.96441 -0.982205 -0.654803 -3.27402c4.69304,1.09134 9.3858,1.30961 14.0783,0.654803l0.982205 3.27402 -7.85764 0.327402c-5.34728,8.73071 -14.1871,17.4614 -26.5195,26.1921 -6.65717,5.4567 -11.7865,11.3499 -18.3345,15.7153 3.39392,-3.55238 6.9001,-7.15975 8.51245,-9.82205l-10.1495 6.22063 -13.7509 10.8043 0 -0.327402 9.82205 -8.51245 -15.7153 8.83985"/>
  <path fill="#003399" d="M253.538 179.181c-6.34451,4.35458 -13.064,7.83128 -20.194,10.6129 8.97279,0.147402 15.5444,-4.07736 20.194,-10.6129z"/>
  <path fill="#003399" d="M246.02 188.762c-6.34451,4.35458 -13.801,6.94687 -20.931,9.72851 8.97279,0.147402 15.8392,-3.19295 20.931,-9.72851z"/>
  <path fill="#003399" d="M235.555 197.459c-6.34451,4.35458 -15.2751,6.94687 -22.2576,10.4655 10.4153,-1.20161 18.5494,-4.95865 22.2576,-10.4655z"/>
  <path fill="#003399" d="M224.942 205.861c-9.09015,5.55251 -15.9696,6.33912 -23.1421,9.2863 10.2436,-0.513355 18.0332,-2.74706 23.1421,-9.2863z"/>
  <path fill="#003399" d="M209.759 214.705c-6.36152,4.84838 -11.8891,3.55862 -19.3096,6.78048 10.4153,-1.20161 15.6013,-1.27361 19.3096,-6.78048z"/>
  <path fill="#003399" d="M196.641 222.517c-5.06126,3.24312 -9.53235,6.87941 -13.4136,10.9077 1.7195,-5.60098 6.1903,-9.2367 13.4136,-10.9077z"/>
  <path fill="white" d="M183.669 200.259c-5.72485,3.2434 -14.3232,7.17449 -17.6882,11.2025 0.595276,-5.41333 9.22989,-9.32514 17.6882,-11.2025z"/>
  <path fill="white" d="M195.756 193.037c-9.09015,5.55251 -15.3799,4.5703 -22.5525,7.51748 10.2436,-0.513355 17.4436,-0.978237 22.5525,-7.51748z"/>
  <path fill="white" d="M208.285 186.404c-9.09015,5.55251 -14.6429,5.45471 -22.5525,7.51748 10.243,-0.0708662 17.4433,-0.633827 22.5525,-7.51748z"/>
  <path fill="white" d="M206.222 187.435c-3.2074,1.05506 -9.26221,1.44 -11.9395,2.94803 5.04255,-0.237827 7.95119,0.904536 11.9395,-2.94803z"/>
  <path fill="white" d="M215.213 182.129c-3.06,1.79206 -7.64079,2.17701 -10.6129,2.94803 4.30555,0.793985 8.54079,0.167528 10.6129,-2.94803z"/>
  <path fill="white" d="M207.106 182.719l-14.5928 -6.19087c-0.147402,4.42205 9.87591,8.10709 14.5928,6.19087z"/>
  <polygon fill="white" points="202.389,177.707 206.959,179.328 206.517,179.77 202.389,179.033 "/>
  <polygon fill="white" points="204.748,175.348 210.202,177.854 209.317,178.149 204.748,176.675 "/>
  <path fill="white" d="M181.753 184.045c-1.17921,-10.22 0.147402,-11.8905 0.442205,-17.3934 -2.78419,3.64252 -3.68447,12.5969 -0.442205,17.3934z"/>
  <path fill="white" d="M184.848 186.551l0.88441 -12.9713c-2.26006,3.53736 -2.55487,7.86076 -0.88441,12.9713z"/>
  <path fill="white" d="M178.952 177.412c-1.62142,-8.15641 -0.147402,-14.6911 0.147402,-20.194 -2.95597,3.64224 -3.61021,15.3972 -0.147402,20.194z"/>
  <path fill="white" d="M176.594 164.588c-1.17921,-10.22 0.294803,-12.3327 0.589607,-17.8356 -2.78419,3.64252 -3.83188,13.0391 -0.589607,17.8356z"/>
  <path fill="white" d="M174.383 153.828c-1.57238,-5.11002 -1.67074,-11.9889 -4.27465,-15.772 4.22674,0.392882 4.66923,12.1354 4.27465,15.772z"/>
  <polygon fill="white" points="167.602,165.915 163.623,163.261 162.443,163.409 166.128,166.21 "/>
  <polygon fill="white" points="164.065,165.852 159.222,162.672 157.874,162.84 161.791,165.894 "/>
  <path fill="white" d="M152.715 161.64c2.35843,1.52334 3.68504,3.0464 7.07528,4.56945 -3.3412,0.688252 -8.05777,-3.19323 -7.07528,-4.56945z"/>
  <path fill="white" d="M144.313 160.608c2.35843,1.52334 6.04347,4.07821 10.9077,5.01166 -4.96262,1.13046 -11.8902,-3.63543 -10.9077,-5.01166z"/>
  <path fill="white" d="M136.353 159.429c2.35843,1.52334 6.78048,4.52041 11.6447,5.45386 -4.96262,1.13046 -12.6272,-4.07764 -11.6447,-5.45386z"/>
  <path fill="white" d="M127.067 157.955c2.35843,1.52334 8.40189,4.96262 13.2661,5.89607 -4.37301,2.01487 -14.2486,-4.51984 -13.2661,-5.89607z"/>
  <path fill="white" d="M116.602 156.334c5.60126,0.344126 8.6967,5.11002 14.0032,5.74866 -4.96262,1.13046 -9.67919,-4.07764 -14.0032,-5.74866z"/>
  <path fill="white" d="M122.203 161.198c-7.32104,-3.39024 -9.77783,-1.32661 -13.561,-1.32661 2.94775,-2.50583 10.8581,-2.35843 13.561,1.32661z"/>
  <path fill="white" d="M114.096 161.345c-5.11002,1.8669 -10.3674,-2.16199 -15.3298,-3.24284 6.58375,-0.245764 11.5464,3.48832 15.3298,3.24284z"/>
  <path fill="white" d="M104.809 161.64c-5.11002,-0.0983623 -8.74602,-0.933733 -15.3298,-0.294803 6.28895,-3.29216 13.1678,-0.245764 15.3298,0.294803z"/>
  <path fill="#003399" d="M145.654 72.3147l8.07563 -0.314929c-4.00904,0.537449 -11.7726,2.39925 -12.8503,0.898867 -1.05931,-0.479622 -1.52221,-1.31386 -0.693355,-2.35276 1.32633,-1.66252 3.45742,-4.67717 5.60126,-3.24284 3.33326,2.2303 2.1858,4.15304 -0.133228,5.01166z"/>
  <path fill="#003399" d="M132.373 73.0517c0.29452,-1.17978 2.4069,-1.81814 3.09543,0.147402 0.34441,5.74838 8.08668,4.42148 12.6765,3.83244 3.11358,-0.727937 0.0620788,-0.146268 4.3132,-0.831402 -0.760819,0.494362 -4.86,2.08885 -4.5258,2.19118 1.11742,0.342709 4.42573,-0.0150236 5.96126,0.261638 -13.0544,1.28863 -21.5807,2.73572 -21.5206,-5.60126z"/>
  <path fill="#003399" d="M130.015 94.5723c-1.73367,0.433418 -7.71166,-1.14775 -14.4454,-1.32661 9.18794,-1.96554 9.67919,0.933449 14.4454,1.32661z"/>
  <path fill="#003399" d="M135.616 96.0463c-5.50318,0.786048 -5.69962,-4.17657 -12.0869,-5.15906 8.89314,-0.196725 5.10973,2.70227 12.0869,5.15906z"/>
  <path fill="#003399" d="M141.365 98.5522c-5.74866,-1.37594 -3.09543,-4.81522 -7.95969,-7.66489 6.43635,1.76882 2.11266,5.01166 7.95969,7.66489z"/>
  <path fill="#003399" d="M185.291 73.0517c-1.63049,-1.54772 -1.7881,-1.91679 -2.97581,-4.34863 -0.767056,-1.57039 -4.45295,-1.96526 -5.86829,-4.05326 1.97745,0.300756 3.40044,0.450992 4.58901,1.16702 -0.0929764,-3.50164 2.81792,2.92309 4.25509,7.23487z"/>
  <path fill="#003399" d="M196.346 79.8322c-8.8441,-1.76882 -4.86425,-9.58111 -11.0551,-12.8239 6.78048,-0.147402 3.24284,8.5493 11.0551,12.8239z"/>
  <path fill="#003399" d="M201.21 84.4016c-8.8441,-3.68504 -1.47402,-5.45386 -7.81229,-10.6129 7.32728,2.04406 0.314079,5.3949 7.81229,10.6129z"/>
  <path fill="#003399" d="M207.254 88.3815c-4.9629,-0.58989 -8.54986,-1.96583 -10.7603,-4.12725 2.03839,3.58696 5.9692,4.47109 10.7603,4.12725z"/>
  <path fill="#003399" d="M202.537 77.9159c2.60419,3.93081 5.06098,6.535 7.81229,11.7921 -2.60391,-2.75131 -8.89314,-9.04054 -7.81229,-11.7921z"/>
  <path fill="#003399" d="M214.476 85.8756l1.47402 0.589607c-0.83537,1.62142 -1.22825,2.94803 -2.50583,4.86425l0.294803 -2.50583 0.737008 -2.94803z"/>
  <polygon fill="#003399" points="214.329,94.5723 215.508,94.4249 217.277,88.6763 215.95,88.6763 "/>
  <polygon fill="#003399" points="219.488,91.6243 219.193,96.4886 218.309,96.3412 218.161,92.3613 "/>
  <polygon fill="#003399" points="221.404,92.3613 220.52,95.0145 219.93,99.1418 221.994,95.3093 222.152,91.6807 "/>
  <polygon fill="#003399" points="223.468,92.8035 224.942,94.5723 224.352,100.468 223.763,100.321 "/>
  <polygon fill="#003399" points="225.531,93.3931 226.858,94.4249 226.858,103.416 226.121,103.564 225.974,95.7515 "/>
  <polygon fill="#003399" points="230.396,106.364 230.838,103.122 229.069,94.2775 228.627,97.0782 "/>
  <path fill="#003399" d="M231.722 94.8671l-0.442205 1.32661c0.196441,3.6601 0.933166,7.05033 1.91622,10.3181l1.03181 -0.589607c-1.62142,-3.58696 -1.76882,-7.32104 -2.50583,-11.0551z"/>
  <polygon fill="#003399" points="236.292,101.353 240.271,112.261 239.534,112.261 235.407,102.974 "/>
  <path fill="#003399" d="M241.598 102.974l2.21102 0.294803c6.19087,6.92788 6.04347,10.7603 8.9915,16.2142l-1.47402 0c-3.24284,-5.50318 -3.83244,-10.7113 -9.72851,-16.509z"/>
  <polygon fill="#003399" points="240.271,106.512 241.598,106.512 243.367,112.703 242.188,112.261 "/>
  <path fill="#003399" d="M253.685 123.758c0.356032,-7.67736 -1.53581,-12.9594 -4.56945,-17.3934 7.32048,6.63279 6.23963,13.5607 6.04347,19.8992l-1.47402 -2.50583z"/>
  <path fill="#003399" d="M255.896 107.838l-0.589607 0.88441c5.10973,6.43635 4.91329,15.5262 4.71685,21.5206l1.17921 0.147402c1.5721,-11.1169 -0.589607,-18.1185 -5.30646,-22.5525z"/>
  <path fill="#003399" d="M271.963 123.758l-0.589607 0.88441c5.77077,5.79544 2.0897,17.6219 1.76882,24.1739l0.737008 -1.76882c2.49279,-8.99745 2.95087,-18.6877 -1.91622,-23.2895z"/>
  <path fill="#003399" d="M263.119 111.966l-0.589607 0.88441c5.89096,5.91534 5.46974,18.3487 4.86425,24.6161l0.737008 -1.76882c1.57181,-11.3012 -0.295087,-19.5066 -5.01166,-23.7317z"/>
  <path fill="#003399" d="M279.333 132.897l-0.589607 0.88441c3.35991,1.64041 1.75805,12.9192 -1.03181,19.457l0.88441 1.91622c2.49279,-8.99745 5.6041,-17.6559 0.737008,-22.2576z"/>
  <path fill="#003399" d="M282.576 142.92l-0.589607 0.88441c3.35991,1.64041 3.23206,14.2458 0.442205,20.7836l0.88441 1.91622c2.49279,-8.99745 4.13008,-18.9825 -0.737008,-23.5843z"/>
  <path fill="#003399" d="M286.998 153.828l-0.589607 0.88441c3.35962,1.23506 2.64217,14.0122 -0.147402,20.931l-0.589607 6.92788c2.77739,-9.28177 6.70026,-24.6487 1.32661,-28.7433z"/>
  <path fill="#003399" d="M290.83 157.071l-0.589607 0.88441c5.8527,1.5908 3.73465,25.0546 -2.06362,31.544l1.62142 0.737008c5.41814,-10.4825 8.09802,-29.8406 1.03181,-33.1654z"/>
  <path fill="#003399" d="M297.758 172.253l-1.47402 0.147402c1.80709,9.28205 -2.23654,28.9698 -6.04347,31.544l2.50583 -1.91622c2.28047,-3.6275 6.08684,-13.4717 5.01166,-29.7751z"/>
  <path fill="#003399" d="M299.38 190.383l-1.17921 -2.06362c1.33909,7.87975 -0.492945,21.2298 -3.97984,24.7635l2.50583 -1.91622c2.13251,-6.14353 3.48066,-8.67402 2.65323,-20.7836z"/>
  <path fill="#003399" d="M304.686 202.47l-1.03181 -2.80063c1.78073,7.35733 -6.38958,29.8585 -9.72851,31.8388l2.80063 -1.91622c0.627591,-0.554174 7.98237,-12.2975 7.95969,-27.1219z"/>
  <path fill="#003399" d="M306.307 212.936l-1.03181 -2.80063c2.51773,10.4528 -2.99934,29.5637 -6.92788,34.492l0 2.21102c0.627591,-0.554174 10.783,-17.0144 7.95969,-33.9024z"/>
  <path fill="#003399" d="M308.666 226.939l-1.17921 -0.88441c1.44425,14.7441 -7.54781,29.4783 -11.2025,33.3128l-0.737008 2.35843c0.347244,0.612284 14.8983,-13.8538 13.1187,-34.7868z"/>
  <path fill="#003399" d="M308.518 244.332l-1.32661 -0.589607c1.44425,15.0389 -9.61144,26.0881 -13.2661,29.9225l1.76882 0.147402c0.125575,-1.1469 13.5094,-10.2592 12.8239,-29.4803z"/>
  <path fill="#003399" d="M306.013 262.463l-1.17921 -1.03181c1.44425,15.0389 -8.43222,26.6777 -12.0869,30.5121l1.91622 -0.147402c0.125575,-1.1469 12.0353,-10.1118 11.3499,-29.3329z"/>
  <path fill="#003399" d="M302.77 286.818l-1.17921 -0.623055c-0.945638,8.67572 -7.17336,14.5984 -12.0869,18.4252l1.91622 -0.0890079c3.39874,-2.81537 9.82942,-7.20992 11.3499,-17.7131z"/>
  <path fill="#003399" d="M303.212 296.251l-1.76882 -0.328252c-0.945638,8.67572 -9.23698,19.0205 -14.1506,22.8473l1.91622 -0.0890079c3.39874,-2.81537 12.4827,-11.9268 14.0032,-22.43z"/>
  <path fill="#003399" d="M303.359 304.506l-1.76882 -0.328252c-0.945638,8.67572 -10.711,21.5263 -15.6246,25.3531l1.91622 0.205795c3.39874,-2.81537 13.9567,-14.7274 15.4772,-25.2306z"/>
  <path fill="#003399" d="M300.559 319.633l-1.76882 -0.27326c-0.945638,7.22467 -10.711,17.926 -15.6246,21.1127l1.91622 0.171496c3.39874,-2.34454 13.9567,-12.2644 15.4772,-21.011z"/>
  <path fill="#003399" d="M297.316 333.931l-1.76882 -0.27326c-2.07581,9.73049 -14.0522,20.2845 -19.7518,22.8816l1.91622 0.171496c3.00756,-0.503717 17.6896,-11.761 19.6044,-22.7798z"/>
  <path fill="#003399" d="M296.874 344.691l-1.76882 -0.27326c-2.68441,8.51443 -15.5081,18.5525 -20.6362,22.2922l2.35843 -0.123591c1.93039,-1.11912 16.4509,-11.8372 20.0466,-21.8954z"/>
  <path fill="#003399" d="M292.157 356.189l-1.76882 -0.27326c-2.68441,8.51443 -13.297,15.8993 -18.4252,19.639l2.35843 -0.123591c1.93039,-1.11912 14.2398,-9.18397 17.8356,-19.2422z"/>
  <path fill="#003399" d="M282.576 371.961l-1.76882 -0.27326c-2.68441,8.51443 -11.6756,14.5726 -16.8038,18.3121l2.65323 -0.860315c1.93039,-1.1194 12.3236,-7.12035 15.9194,-17.1785z"/>
  <path fill="#003399" d="M277.712 381.837l-1.76882 -0.27326c-3.21336,8.51415 -13.1219,16.0464 -17.983,19.7864l2.65323 -0.860599c1.5548,-0.993827 12.6754,-8.31884 17.0986,-18.6525z"/>
  <path fill="#003399" d="M270.047 395.84l-3.97984 2.67477c-7.23118,9.85323 -13.3149,10.3621 -16.2142,13.4481l3.53764 -0.713197c-0.925229,0.25937 9.58649,-3.97049 16.6564,-15.4097z"/>
  <path fill="#003399" d="M260.613 407.927l-3.97984 2.67477c-5.75207,8.61988 -13.3115,6.9687 -17.0986,10.7949l3.53764 -0.713197c-0.925229,0.25937 10.4709,-1.31726 17.5408,-12.7565z"/>
  <path fill="#003399" d="M250 418.982l-4.12725 2.08517c-8.72108,9.18908 -13.8484,5.82832 -17.0986,9.61569l3.53764 -0.713197c-1.19792,0.168095 9.54511,0.0932599 17.6882,-10.9877z"/>
  <path fill="#003399" d="M241.303 428.71l-5.01166 2.08517c-6.65745,7.12545 -12.3744,5.53351 -22.2576,7.40467 13.1964,1.4383 20.8361,-1.77761 27.2693,-9.48983z"/>
  <path fill="#003399" d="M202.537 441.408c8.55071,0.393449 15.5296,0.246047 18.5726,-1.32661l2.06362 0.147402 -0.147402 1.03181c-5.72372,2.70284 -12.7987,2.16199 -20.4888,0.147402z"/>
  <path fill="#003399" d="M188.239 441.851c7.8137,1.72006 19.9517,4.22589 22.9947,2.65323l2.06362 0.147402 -0.147402 1.03181c-5.72372,2.70284 -20.1688,-1.22825 -24.9109,-3.83244z"/>
  <path fill="#003399" d="M178.658 441.114c6.81506,5.30788 17.9376,8.31374 21.668,6.33827l2.06362 0.147402 -0.147402 1.03181c-7.49254,3.43984 -20.0214,-2.40747 -23.5843,-7.51748z"/>
  <path fill="#003399" d="M168.192 438.903c5.33339,5.30788 13.8906,9.34555 17.2525,7.51748l1.3201 0.147402 -0.11537 1.03181c-5.86375,3.43984 -15.6688,-3.58668 -18.4572,-8.6967z"/>
  <path fill="#003399" d="M158.169 434.333c4.80898,4.78403 9.96038,9.98391 14.8941,9.72851l1.3201 0.147402 -0.11537 1.03181c-6.15685,2.2663 -13.4252,-6.25692 -16.0988,-10.9077z"/>
  <path fill="#003399" d="M148.293 430.501c3.75988,4.78403 7.34514,9.0995 11.2022,8.8441l1.0321 0.147402 -0.0901418 1.03181c-4.8138,2.2663 -10.0539,-5.37251 -12.1442,-10.0233z"/>
  <path fill="#003399" d="M140.775 429.469c3.21619,3.5144 6.28328,6.68438 9.58281,6.49701l0.882709 0.108284 -0.0771024 0.757985c-4.11761,1.66479 -8.60032,-3.94668 -10.3884,-7.36328z"/>
  <path fill="#003399" d="M128.983 428.142c3.7355,3.95802 7.38255,7.42422 12.0121,6.49701l1.10665 0.108284 -0.0966615 0.757985c-5.35805,3.04016 -10.9772,-2.57131 -13.0221,-7.36328z"/>
  <path fill="#003399" d="M117.781 425.489c4.11336,4.35827 8.1292,8.17484 13.2267,7.1538l1.2189 0.119339 -0.106583 0.83452c-5.90003,3.348 -12.0872,-2.83125 -14.3391,-8.10766z"/>
  <path fill="#003399" d="M109.231 420.33c2.08658,3.62126 3.47414,10.1398 10.8686,9.95443l1.21861 0.119339 -0.106583 0.83452c-8.29531,2.42674 -12.4433,-6.67616 -11.9806,-10.9083z"/>
  <path fill="#003399" d="M98.1763 412.812c1.74841,3.29981 3.92712,9.19078 10.279,11.8707l0.77641 1.29855 -0.401103 1.27673c-8.29418,-4.74095 -11.1164,-12.2202 -10.6543,-14.4459z"/>
  <path fill="#003399" d="M91.5432 408.833c1.74813,3.29953 2.89531,6.39014 9.24719,9.07002l0.77641 1.29855 -0.401103 1.27673c-8.29418,-4.74095 -10.0845,-9.41953 -9.62249,-11.6453z"/>
  <path fill="#003399" d="M84.1731 287.226c4.8875,14.6412 13.1414,27.8085 28.0063,45.6945l-0.88441 3.09543c-14.3966,-17.2038 -23.6342,-32.4717 -28.5959,-46.1367l1.47402 -2.65323z"/>
  <path fill="#003399" d="M79.7511 298.871c4.8875,14.6412 13.731,28.6929 28.5959,46.5789l-0.88441 3.09543c-14.3966,-17.2038 -24.2238,-33.3561 -29.1855,-47.0211l1.47402 -2.65323z"/>
  <path fill="#003399" d="M76.8031 310.368c4.41581,14.523 15.3814,29.5841 30.2173,47.0211l-0.589607 2.06362c-14.7566,-15.73 -26.2772,-32.7668 -30.9543,-46.4315l1.32661 -2.65323z"/>
  <path fill="#003399" d="M73.5602 322.013c6.47944,15.5548 16.5606,27.6679 31.3966,45.1049l-0.589607 1.62142c-14.0335,-16.3341 -24.188,-27.2874 -30.3647,-42.4517l0.177165 -0.501449 -0.61937 -3.7732z"/>
  <path fill="#003399" d="M95.8179 386.133l2.21102 -0.294803c-12.1873,-13.0501 -23.1942,-23.8615 -30.6595,-26.6797l-2.50583 0.737008c9.1389,5.40511 19.457,14.1511 30.9543,26.2375z"/>
  <path fill="#003399" d="M86.3842 388.196l2.21102 -0.294803c-12.1873,-13.5057 -26.879,-26.5504 -34.3446,-29.0381l-2.94803 0.737008c9.1389,5.40511 23.5843,16.5096 35.0816,28.5959z"/>
  <path fill="#003399" d="M79.0141 388.933l2.21102 -0.294803c-12.9166,-13.0187 -30.4268,-26.8379 -37.44,-29.6277l-1.91622 1.32661c8.96117,5.40482 25.4333,16.5098 37.1452,28.5959z"/>
  <path fill="#003399" d="M71.9388 390.702l2.21102 -0.294803c-12.9164,-12.7942 -32.9324,-27.5531 -39.9458,-30.5121l-2.35843 0.88441c7.67141,5.40482 26.9198,17.8367 40.0932,29.9225z"/>
  <path fill="#003399" d="M178.215 416.94c-6.28725,1.13244 -12.0858,1.5738 -18.5726,1.91622 7.05118,0.909638 13.4873,0.712914 18.5726,-1.91622z"/>
  <path fill="white" d="M193.103 412.37c-5.20725,2.85846 -13.4133,3.87666 -21.8154,3.39024 7.44407,2.48173 17.5649,2.13761 21.8154,-3.39024z"/>
  <path fill="white" d="M205.485 405c-5.8337,3.6944 -13.5241,7.5617 -21.3732,6.33827 7.44407,2.48173 17.1227,-0.810426 21.3732,-6.33827z"/>
  <path fill="white" d="M210.791 401.02c-4.59553,2.26432 -7.75446,4.5635 -17.5408,5.89607 8.66552,1.05052 14.4255,-1.68803 17.5408,-5.89607z"/>
  <path fill="white" d="M213.297 395.272c-3.85569,2.51093 -5.09981,5.74356 -15.3298,6.92788 9.27468,0.701292 15.4415,-3.78454 15.3298,-6.92788z"/>
  <polygon fill="white" points="211.97,391.587 206.517,397.188 205.632,396.304 210.202,392.176 "/>
  <path fill="white" d="M216.54 386.28l-0.897166 -0.464315 -10.158 6.50778 1.32661 1.03181c1.81786,-0.393166 6.24019,-3.7834 9.72851,-7.07528z"/>
  <path fill="white" d="M220.372 373.161l-0.897166 -0.464315c-4.17147,5.96381 -8.34293,10.8111 -12.5164,14.0253l3.09543 0c4.49603,-1.73225 7.88656,-9.91304 10.3181,-13.561z"/>
  <path fill="white" d="M223.91 361.812l-0.897166 -0.464315c-6.67729,8.76445 -12.028,13.0221 -12.369,18.1525l1.32661 0.442205c2.28501,-5.41729 9.80278,-12.8611 11.9395,-18.1304z"/>
  <path fill="white" d="M225.679 350.019l-1.19197 -0.464315c-6.67729,5.96381 -8.04813,9.18964 -9.56835,18.5947l1.32661 0.442205c1.42583,-7.99767 6.192,-16.6215 9.43371,-18.5726z"/>
  <path fill="white" d="M225.089 337.932l-0.897166 -1.34873c-5.76766,6.64583 -5.32063,8.65531 -7.50473,17.5629l1.32661 0.442205c1.63502,-8.20687 4.0184,-14.8898 7.07528,-16.6564z"/>
  <path fill="white" d="M225.826 323.782l-0.897166 -1.34873c-5.97657,6.01937 -6.83122,12.8191 -8.83134,22.2798l1.32661 0.442205c2.05285,-10.2954 5.71408,-21.4495 8.40189,-21.3732z"/>
  <path fill="white" d="M224.647 309.337l-0.897166 -1.34873c-5.95928,7.3664 -5.73506,15.0704 -5.88331,20.9531l1.32661 0.442205c-0.62504,-5.74271 1.45843,-17.8997 5.45386,-20.0466z"/>
  <path fill="white" d="M223.91 294.449l-0.897166 -1.34873c-6.24388,7.3664 -5.3572,18.6075 -4.9989,24.4908l1.32661 0.442205c-0.62504,-5.74271 0.574016,-21.4373 4.56945,-23.5843z"/>
  <path fill="white" d="M221.551 283.836l-0.749764 -1.20132c-6.02221,7.58722 -3.56343,15.2416 -3.37748,20.9531l1.32661 0.442205c-0.62504,-5.74271 -1.1948,-15.3938 2.80063,-20.194z"/>
  <path fill="white" d="M221.257 273.665l-0.749764 -1.20132c-6.02221,7.58722 -5.33225,14.5046 -5.1463,20.2161l1.32661 0.442205c-0.62504,-5.74271 0.574016,-14.6568 4.56945,-19.457z"/>
  <path fill="white" d="M219.046 265.558l-0.454961 -1.79093c-6.02192,8.47503 -3.41575,12.5938 -3.23008,16.8259l1.32661 0.442205c-0.62504,-5.74271 -1.34221,-9.93997 2.35843,-15.4772z"/>
  <path fill="white" d="M217.277 249.934l-0.454961 -1.79093c-7.93815,9.21204 -4.44756,18.932 -4.26189,23.1642l2.35843 1.32661c-2.19685,-5.46066 -2.91373,-16.6595 2.35843,-22.6999z"/>
  <path fill="white" d="M212.413 232.688l-1.48677 2.48372c-1.47798,6.5367 -0.432851,17.2956 0.602363,20.3635l1.62142 1.17921c1.02813,3.13824 -3.33695,-10.8615 -0.737008,-24.0265z"/>
  <path fill="white" d="M207.254 228.413l-1.33937 1.1571c-1.71014,8.96117 3.38797,12.9135 4.58221,14.4675l0 -2.21102c2.39613,3.02882 -3.6601,-0.13578 -3.24284,-13.4136z"/>
  <polygon fill="white" points="206.959,225.023 205.485,226.202 205.632,226.939 207.401,225.907 "/>
  <path fill="#003399" d="M178.952 110.492c-3.34148,1.60951 -7.61641,2.51858 -12.5291,2.94803 4.86425,1.25376 9.23698,0.909922 12.5291,-2.94803z"/>
  <path fill="#003399" d="M173.351 114.324c-4.40306,1.60951 -10.3306,2.96079 -16.8038,3.39024 6.40942,1.25376 12.4656,0.467717 16.8038,-3.39024z"/>
  <path fill="#003399" d="M163.032 118.746c-4.40277,1.60951 -9.00369,2.07638 -14.2974,2.06362 5.37733,1.10636 9.95953,1.79433 14.2974,-2.06362z"/>
  <path fill="#003399" d="M157.136 121.989c-4.6304,1.83657 -9.46517,1.94769 -14.5922,1.76882 4.34551,1.54857 10.2543,2.08913 14.5922,-1.76882z"/>
  <path fill="#003399" d="M148.588 125.232c-3.83556,1.83657 -7.84007,1.94769 -12.0869,1.76882 3.3035,1.10438 7.99994,1.34873 12.0869,-1.76882z"/>
  <path fill="#003399" d="M173.499 109.46c1.47373,-0.342142 2.99594,-0.831685 4.86425,-2.35843l2.94803 -3.09543c-1.96554,1.67131 -4.47137,2.26063 -7.22268,2.35843l3.09543 0.294803 -3.68504 2.80063z"/>
  <path fill="#003399" d="M143.281 101.648l-1.47402 -7.81229c-0.982772,1.8669 0.392882,6.68211 1.47402,7.81229z"/>
  <path fill="#003399" d="M135.911 82.0432c-3.14476,-1.08113 -5.89663,-2.35899 -8.25449,-3.83244 0.982205,2.06334 3.7338,3.34063 8.25449,3.83244z"/>
  <path fill="#003399" d="M128.836 82.3275c-1.68463,-0.579118 -3.15893,-1.26369 -4.42205,-2.05313 0.526111,1.10523 2.00013,1.78951 4.42205,2.05313z"/>
  <path fill="#003399" d="M112.769 187.288c-3.73436,-1.03181 -5.99443,-2.50583 -11.0551,-2.94803 4.59383,-0.344126 5.92044,-0.737859 11.0551,2.94803z"/>
  <path fill="#003399" d="M126.92 187.141c-12.7259,1.62142 -12.1853,-3.24284 -18.2778,-4.86425 4.61849,1.8669 7.61556,9.63015 18.2778,4.86425z"/>
  <path fill="#003399" d="M141.218 186.551c-11.8463,1.03465 -12.7256,-3.32532 -22.6999,-3.97984 7.452,0.671244 11.7439,7.57219 22.6999,3.97984z"/>
  <path fill="#003399" d="M152.862 185.961c-10.8638,1.03436 -11.7431,-3.32561 -22.6999,-3.97984 8.49572,0.670961 12.6646,7.57191 22.6999,3.97984z"/>
  <path fill="#003399" d="M163.475 185.814c-10.8638,1.03436 -12.0379,-4.21002 -22.9947,-4.86425 8.49572,0.670961 12.9594,8.45632 22.9947,4.86425z"/>
  <path fill="#003399" d="M144.018 182.424l-15.1824 -3.24284c5.60098,0.490961 10.7589,1.57153 15.1824,3.24284z"/>
  <polygon fill="#003399" points="154.484,179.918 156.253,179.77 165.981,185.372 165.981,187.141 164.507,186.993 "/>
  <path fill="#003399" d="M158.758 183.456l-15.1824 -3.24284c5.60098,0.490961 10.7589,1.57153 15.1824,3.24284z"/>
  <polygon fill="#003399" points="161.412,180.36 163.18,180.213 171.435,185.224 171.435,186.993 169.961,186.846 "/>
  <polygon fill="#003399" points="83.7309,158.25 85.7946,160.313 86.0894,162.819 89.627,163.556 88.0056,159.724 86.0894,159.282 86.0894,158.25 "/>
  <polygon fill="#003399" points="90.2166,166.357 92.7224,170.189 93.4594,169.6 93.1646,167.684 92.1328,166.357 "/>
  <polygon fill="#003399" points="93.9017,174.464 96.4075,178.296 97.8815,178.296 98.1763,175.348 96.4075,174.022 "/>
  <polygon fill="#003399" points="98.1763,179.918 99.9451,183.308 100.387,182.129 99.6503,180.213 "/>
  <path fill="#003399" d="M141.66 281.478l0 1.32661c1.91622,-0.787465 3.83244,-1.52447 5.74866,-1.91622 -0.343843,-0.392599 -2.26035,-0.196158 -5.74866,0.589607z"/>
  <path fill="#003399" d="M151.093 280.593c1.91622,-0.787465 4.27465,-0.197858 6.19087,-0.589607 -0.595559,-0.76337 -5.60155,-1.67273 -6.19087,0.589607z"/>
  <path fill="#003399" d="M159.938 279.561c1.91622,-0.787465 4.27465,-0.492662 6.63307,0.147402 -0.506551,-1.65855 -5.52728,-2.1308 -6.63307,-0.147402z"/>
  <path fill="#003399" d="M168.339 280.298c2.35843,-0.197858 5.01166,0.244347 6.78048,0.442205 -0.153354,-0.76337 -4.71714,-2.26233 -6.78048,-0.442205z"/>
  <path fill="#003399" d="M238.65 182.424c4.72309,-1.60951 7.51181,-3.64876 8.6967,-6.04347l2.21102 0 0.294803 1.91622c-4.12696,2.75131 -7.86076,4.12668 -11.2025,4.12725z"/>
  <polygon fill="#003399" points="261.792,186.698 262.382,188.025 265.33,188.172 267.541,186.404 "/>
  <path fill="#003399" d="M143.871 396.893c0.835654,-3.29188 0.884693,-6.38759 0.147402,-9.2863 2.94832,2.01458 2.01487,6.73115 -0.147402,9.2863z"/>
  <path fill="#003399" d="M143.723 411.191c0.835654,-3.29188 0.147685,-10.6622 -0.589607,-13.561 2.28473,2.01458 2.23569,11.0055 0.589607,13.561z"/>
  <path fill="#003399" d="M146.766 397.925c-0.835654,-3.29188 -0.295087,-7.56681 0.442205,-10.4655 -2.50554,2.2354 -2.26006,8.08215 -0.442205,10.4655z"/>
  <path fill="#003399" d="M146.531 412.665c-0.835654,-3.29188 -1.1795,-11.8415 -0.442205,-14.7402 -2.28473,2.01458 -1.79348,11.5951 0.442205,14.7402z"/>
 </g>
</svg>
