<?xml version="1.0" encoding="UTF-8"?>
<!DOCTYPE svg PUBLIC "-//W3C//DTD SVG 1.1//EN" "http://www.w3.org/Graphics/SVG/1.1/DTD/svg11.dtd">
<!-- Creator: CorelDRAW -->
<svg xmlns="http://www.w3.org/2000/svg" xml:space="preserve" width="500px" height="579px" shape-rendering="geometricPrecision" text-rendering="geometricPrecision" image-rendering="optimizeQuality" fill-rule="evenodd" clip-rule="evenodd"
viewBox="0 0 500 579"
 xmlns:xlink="http://www.w3.org/1999/xlink"
 xmlns:svg="http://www.w3.org/2000/svg"
 version="1.0">
 <g id="Layer_x0020_1">
  <metadata id="CorelCorpID_0Corel-Layer"/>
  <path id="path1937" fill="#CCCCCC" stroke="#0057F0" stroke-width="1.98425" d="M1.12706 1.23562l497.698 0 -0.108284 340.325c-27.5108,314.086 -464.16,315.615 -497.709,0l0.119906 -340.325z"/>
  <path fill="white" d="M108.706 258.671l0.922961 1.96781 21.3789 -1.96781c16.9209,-20.1084 2.73685,-36.0309 19.6747,-58.0224 21.1082,-27.4062 2.66854,-49.1548 13.6196,-65.0886 7.71251,-11.2218 2.66485,-17.0136 2.12627,-27.7546 -1.67783,2.76038 -0.551622,11.1478 -5.74016,16.5008 -6.64271,6.85333 -11.8896,15.2538 -12.6601,23.9219 -1.20076,13.5099 -7.7777,17.7355 -13.7407,22.5473 10.9508,-29.9373 -20.5053,-37.2441 -9.99468,-68.834 4.01811,-12.077 5.37959,-19.7348 -1.37197,-31.4912 -11.4301,-19.9029 3.9549,-23.6171 0.215717,-39.3894 -0.794835,4.5601 -2.26658,9.11254 -7.92227,14.4371 -5.99585,5.64492 -8.40048,17.1794 -7.52854,24.247 4.02888,32.6543 -22.3367,34.3565 -14.6174,62.4603 5.19931,18.9295 10.5165,34.1394 5.14262,42.1778 -6.17131,-19.5038 -21.74,-14.2909 -25.1884,-34.9163 -4.96318,-29.6841 -22.6318,-18.8972 -30.5663,-38.2207 2.73515,6.49985 -3.32079,8.76643 7.44322,19.5599 16.3157,16.3607 2.04265,38.6819 18.4927,55.7059 16.9897,17.5827 -0.623339,28.4567 22.0816,47.0608 11.8021,9.67012 8.48211,24.05 18.2322,35.0983z"/>
  <path fill="white" d="M236.339 258.015l1.86095 1.15342 22.0808 -0.825449c9.63497,-7.79953 6.41707,-22.3965 17.3571,-31.1491 13.6355,-10.9089 3.26438,-30.8846 14.1245,-44.9116 20.4523,-26.7503 3.32504,-39.3166 10.6679,-51.6419 6.96841,-11.6975 4.63266,-19.3093 0.814394,-27.0987 -0.693922,3.41632 0.420095,11.5308 -6.06813,16.8287 -8.5235,6.95991 -10.5783,12.6306 -11.3482,21.2981 -1.20019,13.5094 -14.665,21.3432 -16.3644,32.3864 1.11175,-21.0821 -13.4841,-21.2681 -6.715,-45.5482 6.768,-24.2765 -13.2208,-29.6323 -7.60337,-51.8253 5.39717,-21.3231 -9.16385,-20.6654 -3.39194,-39.3894 -9.32202,7.51181 -3.44551,17.7358 -8.90618,25.2601 -5.37336,7.40438 -5.77673,21.443 -4.90479,28.5106 4.02888,30.0305 -15.6563,29.41 -9.36993,57.8688 4.54337,20.5693 6.25295,11.8375 2.84684,23.4836 -9.77897,-26.0632 -24.1044,-23.33 -27.8121,-44.0995 -3.38372,-18.9544 -7.87323,-8.40218 -15.8077,-27.7257 0.767339,7.15578 1.38699,12.2786 5.14744,16.9362 9.71405,12.0314 -8.12382,19.004 8.98158,40.2914 15.3147,19.0585 -2.10983,30.3007 17.818,54.9321 14.5894,18.0329 5.20243,32.5772 16.5923,45.2653z"/>
  <path fill="white" d="M362.011 258.671l24.5977 0c10.5018,-12.2947 3.20315,-24.681 20.0591,-38.3029 15.7788,-12.7514 8.96599,-22.2069 16.342,-31.8543 15.5327,-23.7986 -1.42753,-32.7005 8.7001,-56.8894 5.64633,-13.4861 3.32079,-25.2128 5.07799,-38.5776 -3.64564,4.40022 -4.15984,23.2829 -15.2513,30.2754 -8.07336,5.08961 -14.5137,15.5823 -15.2839,24.2498 -1.20019,13.5096 -0.234425,21.0152 -7.83723,27.1389 -4.00054,-13.3143 3.11925,-30.3886 -7.54073,-50.9763 -11.8091,-22.8064 10.3309,-24.9684 -1.85811,-51.3168 -5.41985,-11.7164 -3.57421,-14.6974 -2.37997,-20.1804 2.20309,-10.1126 -6.36605,-12.4112 -4.94759,-24.4565 -0.794835,4.5601 -2.86271,5.87452 -2.01884,13.7812 0.913323,8.55808 -9.24152,9.80986 -6.21666,26.2148 5.48703,29.7601 -21.1504,30.5561 -9.36993,57.2128 9.13805,20.6773 -1.94627,30.8597 0.879024,54.3127 -5.8252,-4.3852 -6.56136,-10.4088 -5.7994,-14.8808 1.59024,-9.33393 -8.98073,-11.742 -10.8618,-25.939 -5.38611,-31.9805 -20.2921,-13.3214 -24.0069,-42.1563 0.111402,12.0753 -4.58561,11.2141 4.16353,24.4794 17.121,25.9586 -11.6056,48.6805 12.2613,78.0078 19.874,24.4211 5.66788,40.5349 21.2916,59.8573z"/>
  <path fill="#F00000" d="M110.941 258.671l22.3019 0c16.9209,-20.1084 2.73685,-36.0309 19.6747,-58.0224 21.1082,-27.4062 2.66854,-49.1548 13.6196,-65.0886 7.71251,-11.2218 2.66485,-17.0136 2.12627,-27.7546 -1.67783,2.76038 -0.551622,11.1478 -5.74016,16.5008 -6.64271,6.85333 -11.8896,15.2538 -12.6601,23.9219 -1.20076,13.5099 -7.7777,17.7355 -13.7407,22.5473 10.9508,-29.9373 -20.5053,-37.2441 -9.99468,-68.834 4.01811,-12.077 5.37959,-19.7348 -1.37197,-31.4912 -11.4301,-19.9029 3.9549,-23.6171 0.215717,-39.3894 -0.794835,4.5601 -2.26658,9.11254 -7.92227,14.4371 -5.99585,5.64492 -8.40048,17.1794 -7.52854,24.247 4.02888,32.6543 -22.3367,34.3565 -14.6174,62.4603 5.19931,18.9295 10.5165,34.1394 5.14262,42.1778 -6.17131,-19.5038 -21.74,-14.2909 -25.1884,-34.9163 -4.96318,-29.6841 -22.6318,-18.8972 -30.5663,-38.2207 2.73515,6.49985 -3.32079,8.76643 7.44322,19.5599 16.3157,16.3607 2.04265,38.6819 18.4927,55.7059 16.9897,17.5827 -0.623339,28.4567 22.0816,47.0608 11.8021,9.67012 8.48211,24.05 18.2322,35.0983z"/>
  <path fill="#F00000" d="M238.574 258.015l19.9553 2.49279 3.98636 -2.16482c9.63497,-7.79953 6.41707,-22.3965 17.3571,-31.1491 13.6355,-10.9089 3.26438,-30.8846 14.1245,-44.9116 20.4523,-26.7503 3.32504,-39.3166 10.6679,-51.6419 6.96841,-11.6975 4.63266,-19.3093 0.814394,-27.0987 -0.693922,3.41632 0.420095,11.5308 -6.06813,16.8287 -8.5235,6.95991 -10.5783,12.6306 -11.3482,21.2981 -1.20019,13.5094 -14.665,21.3432 -16.3644,32.3864 1.11175,-21.0821 -13.4841,-21.2681 -6.715,-45.5482 6.768,-24.2765 -13.2208,-29.6323 -7.60337,-51.8253 5.39717,-21.3231 -9.16385,-20.6654 -3.39194,-39.3894 -9.32202,7.51181 -3.44551,17.7358 -8.90618,25.2601 -5.37336,7.40438 -5.77673,21.443 -4.90479,28.5106 4.02888,30.0305 -15.6563,29.41 -9.36993,57.8688 4.54337,20.5693 6.25295,11.8375 2.84684,23.4836 -9.77897,-26.0632 -24.1044,-23.33 -27.8121,-44.0995 -3.38372,-18.9544 -7.87323,-8.40218 -15.8077,-27.7257 0.767339,7.15578 1.38699,12.2786 5.14744,16.9362 9.71405,12.0314 -8.12382,19.004 8.98158,40.2914 15.3147,19.0585 -2.10983,30.3007 17.818,54.9321 14.5894,18.0329 5.20243,32.5772 16.5923,45.2653z"/>
  <path fill="#F00000" d="M364.246 258.671l20.8775 4.26359 3.72019 -4.26359c10.5018,-12.2947 3.20315,-24.681 20.0591,-38.3029 15.7788,-12.7514 8.96599,-22.2069 16.342,-31.8543 15.5327,-23.7986 -1.42753,-32.7005 8.7001,-56.8894 5.64633,-13.4861 3.32079,-25.2128 5.07799,-38.5776 -3.64564,4.40022 -4.15984,23.2829 -15.2513,30.2754 -8.07336,5.08961 -14.5137,15.5823 -15.2839,24.2498 -1.20019,13.5096 -0.234425,21.0152 -7.83723,27.1389 -4.00054,-13.3143 3.11925,-30.3886 -7.54073,-50.9763 -11.8091,-22.8064 10.3309,-24.9684 -1.85811,-51.3168 -5.41985,-11.7164 -3.57421,-14.6974 -2.37997,-20.1804 2.20309,-10.1126 -6.36605,-12.4112 -4.94759,-24.4565 -0.794835,4.5601 -2.86271,5.87452 -2.01884,13.7812 0.913323,8.55808 -9.24152,9.80986 -6.21666,26.2148 5.48703,29.7601 -21.1504,30.5561 -9.36993,57.2128 9.13805,20.6773 -1.94627,30.8597 0.879024,54.3127 -5.8252,-4.3852 -6.56136,-10.4088 -5.7994,-14.8808 1.59024,-9.33393 -8.98073,-11.742 -10.8618,-25.939 -5.38611,-31.9805 -20.2921,-13.3214 -24.0069,-42.1563 0.111402,12.0753 -4.58561,11.2141 4.16353,24.4794 17.121,25.9586 -11.6056,48.6805 12.2613,78.0078 19.874,24.4211 5.66788,40.5349 21.2916,59.8573z"/>
  <path fill="#8C0000" d="M100.446 174.383c-6.17131,-19.5038 -21.74,-14.2909 -25.1884,-34.9163 -4.96318,-29.6841 -22.6318,-18.8972 -30.5663,-38.2207 0.854646,2.03102 0.850961,3.64904 0.770457,5.24296 6.967,12.9348 25.0112,9.96152 27.5735,33.6113 2.38054,21.9731 23.1007,14.0148 30.0345,52.977l2.29578 0 -4.91953 -18.6942zm67.0318 -61.5549c0.321449,-2.16113 0.556725,-3.98778 1.18573,-5.02271 0.538583,10.741 5.58624,16.5328 -2.12627,27.7546 -10.9511,15.9338 7.48857,37.6824 -13.6196,65.0886 -16.9379,21.9915 -2.75386,37.914 -19.6747,58.0224l-2.29578 0c17.1669,-19.9899 3.74797,-39.0518 20.3871,-59.5817 19.4743,-24.0282 3.59235,-47.8196 13.2205,-64.4378 5.49468,-9.48388 3.74088,-13.9572 2.92309,-21.8234zm-30.9552 57.9473c10.9508,-29.9373 -20.5053,-37.2441 -9.99468,-68.834 4.01811,-12.077 5.37959,-19.7348 -1.37197,-31.4912 -11.4301,-19.9029 3.9549,-23.6171 0.215717,-39.3894 -0.297921,1.70986 -0.69137,3.41887 -1.36488,5.16813 0.605764,10.9604 -11.6308,16.7922 -2.26885,32.5392 16.5498,27.8362 -13.7237,36.5987 8.56262,71.1159 13.4972,20.9041 -1.20869,25.2953 2.28643,51.5534l1.96781 0.327969c0.327969,-6.66851 -1.31187,-13.6653 1.96781,-20.99z"/>
  <path fill="#8C0000" d="M79.1283 159.296c-14.1027,-15.6334 -8.19922,-27.0028 -14.7586,-35.0926 7.87125,4.48214 3.27969,18.4754 14.7586,35.0926z"/>
  <path fill="#8C0000" d="M106.678 202.916c-14.1027,-15.6334 -8.85515,-26.3469 -19.3502,-39.6842 12.7879,10.7107 6.77339,21.9694 19.3502,39.6842z"/>
  <path fill="#8C0000" d="M106.022 208.82c-12.9002,-19.241 -12.0257,-29.2986 -17.0544,-34.1087 5.6846,11.3695 1.85839,16.1796 17.0544,34.1087z"/>
  <path fill="#8C0000" d="M121.108 130.107c-1.65515,-15.1121 -3.01805,-20.8913 1.92161,-34.5138 5.26281,-14.5137 -7.51267,-27.0607 -6.84114,-36.6554 -1.4417,11.742 9.44108,21.6252 5.09556,34.8137 -4.09096,12.4158 -5.08167,20.5549 -0.176032,36.3555z"/>
  <path fill="#8C0000" d="M115.533 122.564l-1.63984 -15.7425c-0.327969,8.74574 0.218268,13.9932 1.63984,15.7425z"/>
  <path fill="#8C0000" d="M129.963 188.158c-3.71707,-19.1316 8.30835,-26.4563 -1.31187,-45.5876 12.244,14.5398 0.218551,26.456 1.31187,45.5876z"/>
  <path fill="#8C0000" d="M127.34 181.27c-3.71707,-19.1316 6.01257,-21.2088 -3.60766,-40.3401 11.6949,15.0883 2.18466,21.5376 3.60766,40.3401z"/>
  <polygon fill="#8C0000" points="130.291,193.405 128.652,193.077 129.308,205.212 "/>
  <path fill="#8C0000" d="M152.265 191.765c13.8841,-29.408 -0.765071,-36.186 12.1348,-58.7064 -13.7792,14.3909 -1.59676,30.1292 -12.1348,58.7064z"/>
  <path fill="#8C0000" d="M150.625 186.19c1.53099,-6.34082 3.0617,-13.8841 4.59156,-21.9739 0.218835,9.07371 -1.31131,16.3981 -4.59156,21.9739z"/>
  <path fill="#8C0000" d="M130.947 257.687c13.5561,-22.1927 3.49852,-36.5139 16.7264,-58.7064 -15.5616,15.4219 -4.29733,37.0905 -19.3938,58.6562l2.6674 0.0501733z"/>
  <path fill="#8C0000" d="M130.291 242.6c6.12227,-7.54328 1.74926,-23.2858 7.21531,-33.1248 -7.76183,8.19922 -2.40491,20.3341 -7.21531,33.1248z"/>
  <path fill="#8C0000" d="M237.689 208.456c-3.62211,-3.74882 -5.1395,-9.09893 -7.85481,-13.741 1.75351,8.6264 4.69984,13.0969 7.85481,13.741z"/>
  <path fill="#8C0000" d="M235.897 197.013c-9.56013,-9.8521 -4.08898,-22.7942 -18.0383,-41.652 18.2353,19.6807 9.90539,31.8903 18.0383,41.652z"/>
  <path fill="#8C0000" d="M254.264 102.23c-9.29254,-26.6749 4.37273,-27.7682 -5.57547,-48.8673 12.3508,16.4001 -1.42299,24.4894 5.57547,48.8673z"/>
  <path fill="#8C0000" d="M258.943 183.524c6.37512,-28.472 -7.77119,-23.3116 -5.75093,-52.0642 -6.31673,24.6268 10.6866,25.471 5.75093,52.0642z"/>
  <path fill="#8C0000" d="M213.012 151.82c-4.75512,-3.99827 -8.19865,-8.87046 -10.3283,-14.6171 1.44028,11.3051 8.16293,13.9915 10.3283,14.6171z"/>
  <path fill="#8C0000" d="M263.447 187.83c1.78668,-13.0385 0.357166,-22.9292 -3.82309,-32.8842 -11.5265,-27.4476 7.14019,-20.9319 -0.768473,-49.436 10.8791,22.9575 -6.71018,24.7587 0.924662,44.6692 6.44514,16.8089 8.52634,27.3473 3.6669,37.6509z"/>
  <path fill="#8C0000" d="M295.916 167.168c7.43415,-12.7908 -2.18636,-25.9095 4.26359,-36.4045 -8.74574,12.1348 0.546803,17.0544 -4.26359,36.4045z"/>
  <path fill="#8C0000" d="M277.877 204.556c0.601512,-13.0915 3.33468,-22.9856 9.18312,-28.2053 -7.16032,4.48214 -10.7683,13.2276 -9.18312,28.2053z"/>
  <path fill="#8C0000" d="M254.592 252.112c1.20274,-5.7943 5.24807,-9.94876 9.18312,-23.2858 -1.74898,8.41777 -1.85839,13.8838 -9.18312,23.2858z"/>
  <path fill="#8C0000" d="M254.264 256.703l2.95172 0.983906c9.27837,-11.5863 4.8892,-22.0572 17.013,-33.8026 16.9829,-16.4526 1.00261,-27.1616 20.3754,-53.765 -22.6083,24.7008 -6.76489,37.7708 -19.8065,50.0409 -15.8735,14.9346 -8.551,22.0663 -20.5336,36.5429z"/>
  <path fill="#8C0000" d="M305.071 107.892c0.150803,-1.75606 0.191339,-3.28252 0.408189,-4.35005 3.81827,7.78933 6.15402,15.4012 -0.814394,27.0987 -7.34287,12.3253 9.78435,24.8916 -10.6679,51.6419 -10.8601,14.027 -0.488977,34.0027 -14.1245,44.9116 -10.94,8.75254 -7.72215,23.3496 -17.3571,31.1491l-2.67591 1.28891 -0.664725 -1.33455c15.9109,-15.7263 1.30507,-13.9674 18.8283,-34.5033 13.7642,-16.1306 1.62595,-25.9824 15.2249,-45.2923 17.8416,-25.3344 -0.595276,-32.368 10.0108,-50.3059 5.23333,-8.85062 4.71997,-11.3496 1.83232,-20.304zm-54.4408 -66.9005c0.815811,-1.2858 1.90148,-2.52567 3.35792,-3.69921 -5.77191,18.724 8.78911,18.0663 3.39194,39.3894 -5.61742,22.193 14.3714,27.5488 7.60337,51.8253 -6.76914,24.2802 7.82674,24.4661 6.715,45.5482 -0.454961,7.54328 -3.53339,15.0866 -5.29994,22.6298 0.858615,-11.2391 5.75575,-25.1513 -2.99991,-43.5563 -8.50394,-17.8759 8.02177,-28.836 -3.51269,-49.7183 -12.8792,-23.3167 1.49613,-30.5309 -4.57144,-42.9888 -5.5715,-11.4395 -3.79871,-10.6849 -4.68425,-19.4301zm-16.9761 131.424c-9.77897,-26.0632 -24.1044,-23.33 -27.8121,-44.0995 -3.38372,-18.9544 -7.87323,-8.40218 -15.8077,-27.7257 0.287717,2.68328 0.55474,5.08082 0.974552,7.27541 4.94334,6.9806 12.839,10.7552 12.8625,22.7792 0.0314646,16.1844 17.4334,18.8617 25.7576,37.9616 3.55238,8.15131 2.00013,15.3561 8.89229,29.0625 -3.91805,-13.3373 -3.24454,-18.8033 -4.86709,-25.2536z"/>
  <path fill="#8C0000" d="M370.531 202.26c2.51433,-13.9935 -11.3698,-15.5239 -15.0866,-38.3723 -0.546803,21.2085 13.3373,20.7712 15.0866,38.3723z"/>
  <path fill="#8C0000" d="M395.191 194.061c6.2297,-18.0312 -3.07984,-23.8025 -1.09644,-39.7715 3.85654,-31.0479 -17.3072,-20.9319 -5.13496,-60.2589 -16.4546,33.7805 5.7189,31.6148 3.01096,56.1481 -2.36891,21.4631 6.23226,23.0837 3.22044,43.8823z"/>
  <path fill="#8C0000" d="M353.072 155.689c-14.1027,-15.6334 -6.55937,-23.7232 -15.4145,-35.0926 10.495,8.41777 3.93562,18.4754 15.4145,35.0926z"/>
  <path fill="#8C0000" d="M389.474 192.38c5.7189,-22.8969 -3.50759,-18.3923 -0.831685,-42.2255 -5.11144,24.4125 4.7846,18.5862 0.831685,42.2255z"/>
  <path fill="#8C0000" d="M379.548 257.031l2.95172 0.983906c16.1657,-19.4576 3.53112,-24.7255 19.6367,-39.3781 21.1527,-19.2444 6.28214,-17.5859 19.5242,-36.0474 13.0748,-18.2282 -5.45471,-28.8193 7.41062,-53.7942 -15.8196,18.4076 2.65181,37.3034 -7.79273,50.5625 -14.415,18.2988 -2.74394,23.1568 -19.2291,36.5389 -18.9502,15.3831 -3.95944,25.018 -22.5014,41.1344z"/>
  <path fill="#8C0000" d="M410.487 196.444c0.962079,-26.3665 13.9881,-11.1526 9.85125,-44.4081 7.38879,32.3147 -6.33118,19.2816 -9.85125,44.4081z"/>
  <path fill="#8C0000" d="M380.203 252.366c12.9385,-13.0598 2.052,-20.7145 18.0658,-39.3537 -18.1661,16.9889 -6.83462,20.3726 -18.0658,39.3537z"/>
  <path fill="#8C0000" d="M363.805 198.981c0.327969,-7.10618 -7.54328,-11.5883 -10.823,-22.3019 -0.327969,11.0415 8.85515,12.8999 10.823,22.3019z"/>
  <path fill="#8C0000" d="M385.123 258.671l0.327969 4.59156 3.39222 -4.59156c10.5018,-12.2947 3.20315,-24.681 20.0591,-38.3029 15.7788,-12.7514 8.96599,-22.2069 16.342,-31.8543 15.5327,-23.7986 -1.42753,-32.7005 8.7001,-56.8894 5.64633,-13.4861 3.32079,-25.2128 5.07799,-38.5776 -1.13924,1.3748 -1.97291,4.16438 -2.91884,7.56341 -1.89439,14.3694 1.92926,15.7751 -5.28407,30.4784 -9.71377,19.8003 7.03559,34.3812 -7.30205,54.1778 -6.03383,8.33103 -3.05405,21.5388 -15.9741,31.1491 -17.0238,12.6627 -10.6835,26.2026 -22.4204,42.2555zm-3.28422 -222.89c0.389764,-3.2641 1.53865,-4.8651 2.08488,-7.99994 -1.41846,12.0453 7.15068,14.3439 4.94759,24.4565 -1.19424,5.48306 -3.03988,8.46397 2.37997,20.1804 12.189,26.3483 -9.95103,28.5103 1.85811,51.3168 10.66,20.5878 3.54019,37.662 7.54073,50.9763 1.34674,10.6475 0.285732,17.3225 -5.03207,31.813 1.07093,-11.1161 5.09216,-20.9208 2.556,-32.0363 -3.67285,-16.0977 2.27084,-28.0709 -5.79487,-46.3672 -14.1812,-32.1684 9.7183,-28.7909 -4.25566,-57.7307 -6.78473,-14.0513 4.80699,-20.5245 -6.2847,-34.6088zm-14.6415 143.522c-5.8252,-4.3852 -6.56136,-10.4088 -5.7994,-14.8808 1.59024,-9.33393 -8.98073,-11.742 -10.8618,-25.939 -5.38611,-31.9805 -20.2921,-13.3214 -24.0069,-42.1563 0.0345827,3.77348 -0.399685,6.28385 -0.74693,8.35654 5.77758,14.821 20.1022,12.0183 21.9251,32.328 1.45304,16.189 10.6481,13.4002 11.5481,28.6849 1.09474,18.591 8.41267,10.4579 12.7488,28.6931 0.146551,-4.59128 -1.78413,-11.5878 -4.80699,-15.0866z"/>
  <path fill="#8C0000" d="M381.187 113.709c0.327969,-9.07399 4.59156,-14.54 3.93562,-19.3502 -0.327969,6.12199 -5.2475,7.65241 -3.93562,19.3502z"/>
  <path fill="#8C0000" d="M388.098 85.6486c0.8623,-9.03884 -5.60098,-17.3118 -4.32114,-21.9946 -0.475937,6.11207 7.15238,10.569 4.32114,21.9946z"/>
  <path id="path1937_0" fill="white" d="M498.743 254.335l-0.0263622 87.2255c-27.5108,314.086 -464.16,315.615 -497.709,0l0.0297638 -87.2255c20.3576,0 38.8134,34.1742 59.495,34.1742 20.6813,0 42.0316,-32.4006 63.0131,-32.4006 20.9818,0 41.9185,32.4006 62.8773,32.4006 20.9588,0 42.0704,-32.4006 62.877,-32.4006 20.8069,0 41.4729,32.4006 61.9665,32.4006 20.4936,0 40.6653,-32.4006 60.9976,-32.4006 20.3324,0 40.1814,32.4006 60.9979,32.4006 20.8168,0 38.9333,-34.8302 65.4815,-34.1742z"/>
  <path id="path1937_1" fill="#0057F0" d="M498.743 257.687l-0.0263622 83.8735c-27.5108,314.086 -464.16,315.615 -497.709,0l0.0297638 -83.8735c20.3576,0 40.3923,32.4006 61.0739,32.4006 20.6813,0 42.0316,-32.4006 63.0131,-32.4006 20.9818,0 41.9185,32.4006 62.8773,32.4006 20.9588,0 42.0704,-32.4006 62.8773,-32.4006 20.8069,0 41.4726,32.4006 61.9662,32.4006 20.4936,0 40.6653,-32.4006 60.9976,-32.4006 20.3324,0 40.1814,32.4006 60.9979,32.4006 20.8168,0 37.3544,-33.0565 63.9026,-32.4006z"/>
  <path fill="#CCCCCC" d="M135.932 364.841c4.54224,-14.6517 11.545,-29.3032 23.961,-43.9538l1.97065 2.41625c-0.987024,2.6538 -1.53695,5.30788 -1.64863,7.96252l5.16303 -0.181701c7.39559,-10.6758 14.0811,-19.438 22.3523,-23.9893l1.92019 2.35134c-4.48129,4.2721 -5.90145,8.10709 -4.25991,11.505l3.2726 0.500032c6.56731,-7.43981 13.4629,-15.5353 20.6864,-20.3513l3.27458 0.538299c-3.83131,4.82344 -5.47597,8.7721 -4.93342,11.8454l3.93676 2.21471c5.13922,-5.60977 10.2787,-9.90738 15.4185,-12.894l4.2687 1.19225c-5.14177,4.70098 -7.87833,8.63519 -6.89783,12.4614l5.25118 0.295087 12.4696 -7.24082 3.60057 0.697323c-1.20302,3.83074 -6.66936,6.34961 -4.26444,11.4922l15.4035 -0.926079 0.0195591 3.35282c-6.69515,2.28274 -6.47518,5.33452 -5.26734,8.49657 3.92797,-0.272126 7.52797,-1.85613 11.7839,-0.816378l-0.260221 2.94747c-6.79408,2.69773 -8.77777,6.26967 -5.95049,10.7167l9.54794 -0.0754016 -0.243496 2.77087c-7.62804,6.28101 -16.6218,12.5626 -18.7812,19.8284l8.66353 0.484158c15.5285,-17.4929 37.6736,-26.9274 60.0322,-24.4485 26.5451,2.94321 52.7477,23.7852 53.1655,28.4729 -12.2647,6.54775 -19.3819,11.1436 -18.9754,12.8857 18.8564,2.8372 32.4414,2.53588 44.3305,-0.135496 18.349,-4.12271 41.9831,-27.5837 58.1335,-28.1577 3.78284,16.9869 -9.63837,30.5337 -9.78775,45.0627 -0.154205,14.9907 11.1603,22.6089 8.87613,43.4979 -18.6287,-1.46013 -37.4213,-16.3553 -57.3608,-24.0412 4.41383,-2.99112 4.99011,-5.59786 5.01818,-8.14961 -1.42413,2.5081 -2.62999,3.70573 -3.61644,3.59292l0.759118 -0.887245 -1.7314 -0.678048c-0.133512,1.8737 -1.14066,3.52885 -3.02145,4.96602 -10.262,0.968032 -24.7876,-2.32753 -40.625,6.83972 7.39106,5.71777 11.3083,8.46596 12.5824,13.2506 2.43269,9.13437 -4.76618,18.5196 -15.8083,21.9118 -32.4128,9.95698 -55.0086,-0.575717 -74.0863,-9.3155 25.0603,-6.11972 49.1329,-13.7866 72.4456,-22.5278l-0.0810709 -2.23625c-24.3771,8.92942 -48.5224,16.9291 -72.0238,22.3591 -71.0663,9.55446 -110.319,-1.55282 -144.981,-4.13292l-0.982489 1.3011 24.2637 4.39087c15.1427,10.3337 32.8417,15.4179 34.4809,30.3029 1.37452,12.4815 -16.5949,16.789 -25.6615,8.23068 -26.7557,11.1756 -22.354,-21.5966 -45.8297,-46.1696l-16.2743 -4.66044c17.8058,-9.88271 30.3647,-22.3889 37.6764,-37.5185l-2.04576 -0.42378c-11.1665,18.3439 -24.3009,30.2377 -40.7143,36.3382l-10.044 -3.16743c23.1182,-12.9351 28.7175,-25.8698 21.2253,-38.8041 5.26422,17.1337 -6.51827,28.7017 -25.7137,37.1214 -22.1264,-7.43159 -43.2686,-15.5191 -37.1894,-25.2465 10.7779,7.05345 24.8355,5.90797 32.334,11.3219l4.50709 0.312662 1.09049 -9.42889 -2.48428 3.66123 -0.287717 4.3183c-12.7429,-5.99585 -24.9066,-12.6901 -31.875,-15.2436 -7.89733,-2.89361 -10.6659,-3.04243 -10.7155,-8.61789 23.1812,-12.3891 54.6168,-22.6463 100.538,-29.7876z"/>
  <path fill="white" d="M72.8847 418.265c-7.83128,-3.90926 -20.2927,-3.56769 -30.06,-9.95982 -1.70958,2.73572 -1.26624,5.34218 0.746646,7.84007l2.93613 -0.159024 -1.47458 -1.47458 0.327685 -1.96611c8.40926,3.24425 17.365,5.53295 27.5241,5.71947zm74.4112 73.8576c-11.7856,-5.02243 -13.4181,-28.6427 -31.3914,-47.4562l4.00451 1.30309c15.5188,19.4803 16.7834,33.0625 27.3869,46.1532zm14.4383 -1.28665c2.6915,2.54069 6.16791,3.94781 9.68967,4.34325 -14.4955,-8.9212 -28.3357,-31.6052 -42.5035,-47.4075l-2.12995 -0.327685 0.65537 1.47458c11.4293,13.9723 23.5142,29.7471 34.2885,41.9173zm202.906 -46.8593c-0.0141732,-1.13754 -0.168095,-2.28331 -0.471969,-3.42482 -1.27389,-4.7846 -5.19137,-7.53279 -12.5824,-13.2506l-2.2972 0.645449 0.163843 1.63843c6.15459,2.17531 11.2173,6.97238 15.1878,14.3915zm-116.915 -75.9796l8.66353 0.484158c15.5285,-17.4929 37.6736,-26.9274 60.0322,-24.4485 26.5451,2.94321 52.7477,23.7852 53.1655,28.4729 -0.383244,0.204378 -0.761386,0.407339 -1.13471,0.608032 -2.33263,-2.78334 -5.30703,-5.24523 -8.51358,-7.5909 -8.72476,4.50539 -16.562,9.36596 -23.1018,14.7458l-1.80227 0c6.43011,-5.40681 14.1582,-10.8139 22.7741,-16.2204 -3.0583,-2.62177 -6.33544,-4.80671 -9.83056,-6.5537l-26.051 18.5142 -2.12995 -0.327685 26.3787 -19.1696c-3.90501,-2.23994 -7.50983,-3.87808 -10.9775,-5.24296 -9.33903,6.44429 -19.4973,14.1996 -29.0001,22.7741l-1.80227 0.163843c9.12048,-8.30155 18.8963,-15.9474 28.3448,-23.921 -3.80977,-2.0211 -7.87833,-3.00444 -12.1244,-3.27685l-25.3956 22.938 -0.163843 -1.80227 23.4295 -21.1357c-2.39584,-1.26 -7.47808,-1.36772 -12.9436,-1.31074l-22.938 22.1188 -1.96611 0 22.938 -22.1188c-5.40681,0.491528 -8.8475,1.63843 -13.2713,2.45764 -7.4007,5.93235 -13.6814,12.1445 -19.3334,18.5142l-1.80227 0.327685c4.31462,-4.97027 9.06577,-10.1588 14.2543,-15.565 -8.41096,3.57619 -16.8219,9.8572 -25.2318,17.3673 31.2568,4.21966 63.2373,11.0605 92.4191,16.5918 18.8564,2.8372 32.4414,2.53588 44.3305,-0.135496 18.349,-4.12271 41.9831,-27.5837 58.1335,-28.1577 0.147685,0.663307 0.269291,1.3218 0.366236,1.9749 -20.2995,5.04425 -37.1583,20.247 -55.4916,27.5854l1.63843 4.75144 -2.2938 -3.44069 -2.2938 -0.163843c2.73799,3.77121 2.78986,6.39185 2.45764,8.8475 -0.600945,-3.16772 -2.67619,-6.49928 -3.76838,-8.51982 -6.00803,1.0097 -12.0155,1.50151 -18.0227,1.63843 0.709512,2.2938 1.63814,3.60454 1.47458,4.58759l-3.11301 -4.75144 -3.27685 0.163843c1.14633,3.11244 1.52901,4.9697 0.491528,5.89833 -0.873922,-2.02082 -1.25632,-4.36933 -2.62148,-6.06218 -8.23408,-0.791717 -16.1807,-1.77421 -23.1018,-3.44069 1.69739,4.31887 1.4777,6.72066 0.983056,8.8475 -0.676914,-3.70517 -2.15433,-7.6269 -3.44069,-8.68366l-4.58759 -0.983056c0.98589,3.99203 1.14917,6.06558 0.819213,7.86444 -1.1469,-2.89474 -1.1469,-5.7892 -3.44069,-8.68366l-30.147 -5.57065c0.65537,2.18438 0.983056,4.2052 0.983056,7.04523 -0.725386,-1.4658 -0.943654,-5.72599 -4.25991,-6.88139l-5.57065 -1.96611c1.52873,3.82252 1.74728,6.55342 0.65537,8.19213 -1.31074,-4.58759 -2.62148,-7.20907 -3.93222,-7.86444 -7.15465,-2.67619 -22.8288,-3.71395 -34.2431,-6.06218 1.85669,4.31433 2.18466,7.75531 0.983056,10.3221 -1.31074,-3.38627 0.163843,-6.28073 -3.93222,-10.1582l-6.22602 -1.31074c2.34794,3.93222 2.94888,7.20907 1.80227,9.83056 -1.42016,-3.38627 -0.218551,-5.29767 -4.25991,-10.1582 -11.5784,-1.80227 -22.8288,-1.63843 -34.4069,-2.62148 1.52901,2.56649 2.23909,5.13326 1.1469,7.7006 -1.1469,-2.78532 -1.1469,-4.58759 -3.44069,-8.02829l-6.71755 -0.327685c2.02054,3.16743 2.56677,5.02441 2.12995,9.01134 -1.584,-3.00388 -2.18466,-6.66312 -4.75144,-9.01134l-36.5369 0.163843c2.45707,1.63786 2.73033,4.80586 0.819213,9.50287 -1.1469,-3.11301 0.327685,-7.86444 -3.44069,-9.33903l-6.88139 -0.163843c2.6195,2.84173 3.16488,6.33884 2.2938,9.17519 -1.52929,-3.00388 0.218268,-5.18854 -4.58759,-8.8475 -18.3504,0.272977 -22.7741,2.02054 -31.4578,2.12995 1.85669,4.15021 1.69313,6.99024 0.491528,8.51982 -0.600945,-2.7309 -0.873922,-5.95304 -3.27685,-7.7006l-5.24296 0.491528c2.34794,3.44013 2.6212,5.95276 1.47458,7.20907 -0.764788,-1.584 -0.873922,-5.13383 -3.44069,-6.38986l-10.9775 1.80227c12.2474,3.63458 23.8527,14.6543 35.2262,28.3448l-2.2938 0.327685c-13.4901,-14.8555 -24.1946,-23.6483 -34.5708,-26.8702l-3.76838 0.163843 1.63843 1.96611 -2.12995 0.327685 -0.491528 -1.63843 -2.78532 0.327685 2.78532 1.96611 -1.80227 0 -1.80227 -1.63843 -1.31074 -0.163843 -0.163843 0.983056c7.975,5.19931 15.1852,11.4514 19.6611,21.4634l-3.60454 -2.78532c-4.54366,-8.22331 -11.5685,-14.6061 -19.825,-18.0227l-1.80227 0.983056 1.80227 1.47458 -1.80227 0.327685 -2.78532 -1.31074 -1.63843 0.65537 1.1469 0.819213 0.491528 0.983056 -2.78532 0.163843 -0.491528 -1.1469 -2.94917 0 0 0.65537 2.12995 0.491528 0.163843 0.983056 -2.12995 0.163843 -1.47458 -1.31074 -3.44069 0.327685 1.31074 0.983056 -0.491528 1.1469 -2.12995 -0.819213 -3.44069 1.1469 1.31074 0.983056 -0.65537 1.1469 -1.80227 -0.983056 -3.11301 0 -0.491528 1.31074 1.1469 0.491528 1.31074 1.31074 -1.96611 0.163843 -0.983056 -1.1469 -4.09607 0.163843 0.491528 0.983056 1.63843 1.63843 -2.62148 -0.491528 -1.47458 -0.819213 -1.47458 0.327685 0.491528 2.62148 -3.44069 -1.1469 -2.12995 0.65537 1.31074 0.819213 0 1.31074 -4.75144 -0.983056 -1.47458 1.63843 1.80227 1.31074 -1.48989 0.0918426 -3.7715 -1.31159 0 3.93562 2.95172 1.31187 -0.957827 1.4383c-4.11222,-1.52391 -5.67922,-2.65323 -5.71635,-6.83462 23.1812,-12.3891 54.6168,-22.6463 100.538,-29.7876 4.54224,-14.6517 11.545,-29.3032 23.961,-43.9538l1.97065 2.41625c-11.9925,13.5811 -18.8773,27.7631 -23.44,42.219 44.1434,-2.63764 78.0418,-0.76989 109.302,2.47436zm-58.0754 -58.5505l-1.92019 -2.35134c-8.27122,4.55131 -14.9567,13.3135 -22.3523,23.9893 -5.72882,9.03487 -9.53915,17.8107 -15.1577,30.6697l1.63843 -0.983056c13.5207,-26.604 27.0763,-46.8131 37.7918,-51.3247zm22.9737 -7.80804l-3.27458 -0.538299c-7.22353,4.81607 -14.1191,12.9115 -20.6864,20.3513 -10.9922,14.0655 -18.4952,27.3835 -23.3694,40.1389l1.96611 -1.1469c11.8709,-22.8524 26.0634,-43.3829 45.3643,-58.805zm18.6905 2.35843l-4.2687 -1.19225c-5.13978,2.98658 -10.2793,7.28419 -15.4185,12.894 -19.609,20.6277 -27.25,33.6405 -32.4071,45.0726l2.45764 -2.12995c12.119,-20.7972 27.025,-39.9685 49.6367,-54.6443zm14.4235 6.21298l-3.60057 -0.697323 -12.4696 7.24082c-19.1339,16.8109 -29.8233,30.5518 -39.3064,43.854l1.96611 -0.163843c13.3622,-18.3895 28.2047,-36.231 53.4104,-50.2336zm11.1586 13.919l-0.0195591 -3.35282 -3.75137 0.225354c-14.2458,2.2629 -38.4497,25.198 -49.1653,39.606l2.12995 0c16.7769,-18.9539 33.5886,-36.4306 50.8062,-36.4785zm6.25635 10.6277l0.260221 -2.94747c-1.32973,-0.324851 -2.59597,-0.393449 -3.82791,-0.326268 -17.4458,5.71181 -31.085,18.5474 -41.3705,31.4184l1.96611 0.163843c11.7082,-14.1449 24.6986,-25.9815 42.9721,-28.3085zm3.35395 13.4121l0.243496 -2.77087 -3.6411 0.0286299c-11.3202,1.90545 -20.9599,8.85005 -29.6572,18.6216l2.45764 0c8.95493,-8.8475 18.5797,-15.7816 30.5972,-15.8794z"/>
  <path fill="white" d="M56.9934 403.534c5.46123,3.00359 14.5273,5.67978 21.7911,8.51982l1.31074 -2.12995c-5.07912,-0.491528 -15.2374,-5.07912 -23.1018,-6.38986z"/>
  <polygon fill="#0057F0" points="121.547,445.478 121.547,446.625 124.169,447.772 126.299,447.772 126.135,445.806 "/>
  <path fill="#0057F0" d="M126.299 433.518c16.7664,-6.88139 25.8324,34.0793 63.5709,-10.8136l0 -1.63843 -3.44069 0.819213c-17.0093,22.6982 -30.6454,21.0631 -40.214,16.1059 -8.71144,-4.51276 -13.8002,-11.8647 -19.9162,-4.47307z"/>
  <path fill="white" d="M135.31 419.755l3.27685 2.45764c8.947,0.959812 11.1572,-1.0012 23.4315,-0.972 5.18259,0.012189 13.5646,1.60356 22.6083,1.62737l2.78532 -2.12995c-10.2719,0.30104 -17.0651,-0.927497 -23.6356,-0.977953 -13.9414,-0.106866 -22.453,0.663024 -28.4664,-0.00510236z"/>
  <path fill="white" d="M141.7 425.817c9.33903,2.78532 24.4125,1.80227 36.8646,3.93222l2.62148 -2.45764c-1.70646,0.409607 -8.23267,-0.336756 -12.6354,-0.317764 -10.0091,0.0433701 -20.3927,-0.81893 -26.8506,-1.15682z"/>
  <path fill="white" d="M146.615 431.388c5.07912,3.71367 16.2204,2.51206 25.0679,4.25991l3.76838 -2.2938c-7.64618,0.819213 -22.1735,-0.983056 -28.8363,-1.96611z"/>
  <path fill="white" d="M165.621 439.416l-17.0396 -3.11301c4.15049,3.00331 9.82999,4.04107 17.0396,3.11301z"/>
  <path fill="white" d="M134.819 465.795c6.06218,8.4104 12.6159,18.4595 18.1865,25.2318l0 -2.45764 -17.8588 -23.921 -0.327685 1.1469z"/>
  <polygon fill="white" points="143.011,459.896 143.011,461.535 174.141,492.665 175.943,491.846 "/>
  <polygon fill="white" points="143.175,454.162 180.039,487.913 182.169,487.75 148.745,458.094 "/>
  <path fill="white" d="M291.288 449.41l2.2938 0.65537c4.94164,5.16076 12.6425,9.25682 19.9888,13.1074l-4.25991 0.163843c-7.53676,-4.26019 -13.4351,-9.06662 -18.0227,-13.9266z"/>
  <path fill="white" d="M303.413 446.625l2.2938 0.65537c4.94164,5.16076 18.5409,11.5506 25.8871,15.4012l-4.25991 0.163843c-7.53676,-4.26019 -19.3334,-11.3604 -23.921,-16.2204z"/>
  <path fill="white" d="M315.701 442.037l2.2938 0.65537c4.94164,5.16076 21.49,12.8614 28.8363,16.7119l-4.25991 0.163843c-7.53676,-4.26019 -22.2826,-12.6712 -26.8702,-17.5312z"/>
  <path fill="white" d="M327.989 437.286l2.2938 0.65537c4.94164,5.16076 20.507,10.7314 27.8532,14.582l0.584504 0.964914 -3.53367 0.181984c-8.17144,-4.04873 -23.2863,-11.2992 -27.1979,-16.3843z"/>
  <path fill="white" d="M340.769 433.026l1.63843 -0.163843c4.64202,3.85002 10.6489,7.56397 19.6611,10.9775l0 2.2938c-8.84778,-3.49569 -15.948,-7.86501 -21.2995,-13.1074z"/>
  <path fill="white" d="M399.588 420.738l0.163843 -1.31074c19.0692,7.81796 37.3706,14.923 50.2997,17.0396l-0.65537 1.96611c-10.8462,-1.94428 -28.9443,-9.17377 -49.8082,-17.695z"/>
  <path fill="white" d="M401.063 415.167c4.34041,4.61481 28.3708,10.1852 47.1867,13.1074l-0.163843 -2.45764c-10.1251,-0.0895748 -26.4135,-4.00791 -47.0228,-10.6498z"/>
  <path fill="white" d="M402.701 410.58c7.10448,2.8474 25.9333,5.4 41.9437,6.71755l-1.1469 -2.12995c-13.1896,-0.177732 -30.7208,-3.75506 -40.7968,-4.58759z"/>
  <polygon fill="white" points="403.848,405.501 441.04,405.337 441.204,407.794 420.069,407.794 419.741,407.794 403.848,406.811 "/>
  <polygon fill="white" points="403.357,401.732 408.6,401.896 442.024,395.998 441.86,393.868 "/>
  <polygon fill="white" points="402.701,396.325 404.34,397.145 445.792,385.02 445.792,383.546 443.99,382.89 "/>
  <polygon fill="white" stroke="white" stroke-width="0.216" points="449.724,370.274 449.56,372.404 400.571,391.246 401.391,389.28 "/>
  <ellipse fill="#0057F0" cx="73.8692" cy="392.721" rx="7.53671" ry="8.02824"/>
  <ellipse fill="white" cx="72.5448" cy="391.82" rx="7.19542" ry="6.96331"/>
  <ellipse fill="#0057F0" cx="72.0669" cy="391.574" rx="4.91525" ry="4.75132"/>
  <ellipse fill="white" cx="69.8862" cy="391.181" rx="1.4238" ry="1.37632"/>
  <path fill="#0057F0" d="M129.248 381.579c0.300189,-1.88419 2.07468,-4.04192 1.71978,-6.79975 -0.248315,-1.93181 -1.52901,-2.67619 -2.86668,-4.83307 6.00718,0.163559 7.70004,8.46454 1.1469,11.6328z"/>
  <path fill="#0057F0" d="M138.096 380.433c0.300189,-1.88419 2.07468,-4.04192 1.71978,-6.79975 -0.248315,-1.93181 -1.52901,-2.67619 -2.86668,-4.83307 6.00718,0.163559 7.70004,8.46454 1.1469,11.6328z"/>
  <path fill="#0057F0" d="M135.31 390.919c0.300189,-1.88419 1.58258,-3.5504 1.22825,-6.30822 -0.248315,-1.93125 -1.85669,-2.51235 -3.19436,-4.66923 6.00718,0.163559 8.51925,7.80917 1.96611,10.9775z"/>
  <path fill="#0057F0" d="M144.485 391.574c0.300189,-1.88419 1.58258,-3.5504 1.22825,-6.30822 -0.248315,-1.93125 -1.85669,-2.51235 -3.19436,-4.66923 6.00718,0.163559 8.51925,7.80917 1.96611,10.9775z"/>
  <path fill="#0057F0" d="M141.641 397.797c0.18085,-1.13471 0.953292,-2.82954 0.739843,-4.49036 -0.149102,-1.16306 -1.51313,-1.908 -2.31874,-3.20712 3.61814,-0.131811 5.52586,5.49298 1.5789,7.69748z"/>
  <path fill="#0057F0" d="M148.254 381.252c0.300189,-1.88419 1.58202,-4.20633 1.55594,-6.96359 -0.0184252,-1.94655 -2.83975,-3.33156 -4.17742,-5.81613 6.0069,-0.218835 9.17405,9.11963 2.62148,12.7797z"/>
  <path fill="#0057F0" d="M174.469 379.613c0.300189,-1.88419 1.2549,-3.87808 1.22825,-6.63591 -0.0187087,-1.94712 -2.02054,-3.16772 -3.35821,-5.3246 6.00718,0.163559 8.68309,8.79222 2.12995,11.9605z"/>
  <path fill="#0057F0" d="M184.299 379.941c0.300189,-1.88419 1.2549,-3.87808 1.22825,-6.63591 -0.0187087,-1.94712 -2.02054,-3.16772 -3.35821,-5.3246 6.00718,0.163559 8.68309,8.79222 2.12995,11.9605z"/>
  <path fill="#0057F0" d="M180.039 390.591c0.300189,-1.88419 1.2549,-3.87808 1.22825,-6.63591 -0.0187087,-1.94712 -2.02054,-3.16772 -3.35821,-5.3246 6.00718,0.163559 8.68309,8.79222 2.12995,11.9605z"/>
  <path fill="#0057F0" d="M194.621 379.777c0.300189,-1.88419 1.41846,-4.20577 1.3921,-6.96359 -0.0187087,-1.94684 -2.02054,-3.16772 -3.35821,-5.3246 6.00718,0.163559 8.51925,9.11991 1.96611,12.2882z"/>
  <path fill="#0057F0" d="M189.87 391.738c0.300189,-1.88419 1.90999,-4.53345 1.88362,-7.29128 -0.0187087,-1.94684 -2.02054,-3.16772 -3.35821,-5.3246 6.00718,0.163559 8.02772,9.4476 1.47458,12.6159z"/>
  <path fill="#0057F0" d="M185.118 402.06c0.300189,-1.88419 2.72891,-3.5504 2.37515,-6.63591 -0.221953,-1.93408 -1.85669,-3.00388 -3.19436,-5.16076 6.00718,0.163559 7.37235,8.62838 0.819213,11.7967z"/>
  <path fill="#0057F0" d="M221 380.269c0.300189,-1.73339 1.74586,-3.54189 1.71978,-6.0789 -0.0184252,-1.79093 -1.03748,-3.07814 -2.37515,-5.0624 5.652,0.123307 6.68863,8.25364 0.65537,11.1413z"/>
  <path fill="#0057F0" d="M231.322 381.907c0.300189,-1.73339 1.58173,-4.0337 1.55594,-6.57043 -0.0181417,-1.79065 -1.03748,-3.73351 -2.37515,-5.71777 5.652,0.123307 6.85248,9.40054 0.819213,12.2882z"/>
  <path fill="#0057F0" d="M240.825 383.218c0.300189,-1.73367 1.58145,-3.87043 1.55594,-6.40687 -0.0178583,-1.79036 -1.36517,-4.38888 -2.70284,-6.37314 5.652,0.123307 7.18016,9.89207 1.1469,12.78z"/>
  <path fill="#0057F0" d="M236.729 393.54c0.300189,-1.73367 1.58145,-3.87043 1.55594,-6.40687 -0.0178583,-1.79036 -1.36517,-4.38888 -2.70284,-6.37314 5.652,0.123307 7.18016,9.89207 1.1469,12.78z"/>
  <path fill="#0057F0" d="M225.915 393.376c0.300189,-1.73367 2.07269,-4.03484 2.04747,-6.571 -0.0175748,-1.79008 -1.85669,-4.22476 -3.19436,-6.20901 5.65172,0.314362 7.17988,10.1378 1.1469,12.78z"/>
  <path fill="#0057F0" d="M229.52 404.845c0.136347,-2.2252 2.82756,-3.83329 3.68589,-6.24303 0.637512,-1.7898 -0.38211,-4.71657 -1.3921,-6.70111 5.48816,1.43405 3.73947,11.2034 -2.2938,12.9441z"/>
  <path fill="#0057F0" d="M275.396 386.659c0.300189,-1.73339 1.58145,-3.7063 1.55594,-6.24303 -0.0181417,-1.79036 -1.03748,-3.73351 -2.37515,-5.71777 5.652,0.123307 6.85248,9.07314 0.819213,11.9608z"/>
  <path fill="#0057F0" d="M270.153 397.964c0.300189,-1.73339 2.07298,-4.19755 2.04747,-6.73427 -0.0181417,-1.79036 -1.03748,-3.73351 -2.37515,-5.71777 5.652,0.123307 6.36095,9.56438 0.327685,12.452z"/>
  <path fill="#0057F0" d="M285.062 388.461c0.300189,-1.73339 1.58145,-3.7063 1.55594,-6.24303 -0.0181417,-1.79036 -1.03748,-3.73351 -2.37515,-5.71777 5.652,0.123307 6.85248,9.07314 0.819213,11.9608z"/>
  <path fill="#0057F0" d="M279.983 398.947c0.300189,-1.73339 1.90913,-3.70687 2.53899,-6.07947 0.461764,-1.73877 -0.873638,-3.89707 -2.21131,-5.88133 5.652,0.123307 5.70558,9.07314 -0.327685,11.9608z"/>
  <path fill="#0057F0" d="M274.249 410.252c0.300189,-1.73339 1.90913,-3.70687 2.53899,-6.07947 0.461764,-1.73877 -0.873638,-3.89707 -2.21131,-5.88133 5.652,0.123307 5.70558,9.07314 -0.327685,11.9608z"/>
  <path fill="#0057F0" d="M267.655 383.765c0.140882,-1.75351 0.0513071,-2.41115 0.462047,-4.83081 0.30104,-1.77336 -1.15058,-2.98517 -2.66343,-4.83931 4.66951,-0.49578 6.69912,6.11093 2.20139,9.67012z"/>
  <path fill="#0057F0" d="M310.593 392.204c0.714615,-1.60753 0.84926,-3.07701 2.03839,-5.2234 0.871654,-1.57266 -0.0955276,-3.52545 -0.907937,-5.77644 4.56973,1.08085 3.96567,8.3143 -1.13046,10.9998z"/>
  <path fill="#0057F0" d="M314.034 402.035c0.714615,-1.60753 0.84926,-3.07701 2.03839,-5.2234 0.871654,-1.57266 -0.0955276,-3.52545 -0.907937,-5.77644 4.56973,1.08085 3.96567,8.3143 -1.13046,10.9998z"/>
  <path fill="#0057F0" d="M319.768 392.532c0.223087,-1.26907 1.64523,-2.96419 1.71071,-5.14744 0.0521575,-1.72942 -1.24243,-3.3069 -2.05484,-5.31355 5.22482,1.12762 5.44025,8.06712 0.344126,10.461z"/>
  <path fill="#0057F0" d="M327.633 394.662c0.386929,-1.77137 2.0469,-3.18388 2.52964,-5.38725 0.552756,-2.52057 -1.24214,-2.87008 -2.05455,-5.12107 4.78205,0.657071 4.81862,7.42422 -0.475087,10.5083z"/>
  <path fill="#0057F0" d="M318.56 408.777c0.183118,-1.11317 1.35184,-2.59994 1.4057,-4.51474 0.0428032,-1.51682 -1.02104,-2.90041 -1.6886,-4.66044 4.29364,0.989008 4.47052,7.07556 0.282898,9.17519z"/>
  <path fill="#0057F0" d="M323.475 401.404c0.183118,-1.11317 1.35184,-2.59994 1.4057,-4.51474 0.0428032,-1.51682 -1.02104,-2.90041 -1.6886,-4.66044 4.29364,0.989008 4.47052,7.07556 0.282898,9.17519z"/>
  <path fill="#0057F0" d="M351.464 395.577c0.135496,-0.823465 1.16362,-1.59619 1.20359,-3.01266 0.031748,-1.12167 -0.755433,-2.14583 -1.24923,-3.44778 3.5589,-0.442772 3.47159,6.62712 0.0456378,6.46044z"/>
  <path fill="#0057F0" d="M357.526 397.145c0.135496,-0.918709 1.16362,-1.78044 1.20359,-3.36047 0.031748,-1.2515 -0.755433,-2.39386 -1.24923,-3.84633 3.5589,-0.493796 3.47159,7.39276 0.0456378,7.20681z"/>
  <path fill="#0057F0" d="M354.905 404.26c0.135496,-0.823465 1.16362,-1.59619 1.20359,-3.01266 0.031748,-1.12167 -0.755433,-2.14583 -1.24923,-3.44778 3.5589,-0.442772 3.47159,6.62712 0.0456378,6.46044z"/>
  <path fill="#0057F0" d="M364.572 397.051c0.135496,-0.823465 1.16362,-1.59619 1.20359,-3.01266 0.031748,-1.12167 -0.755433,-2.14583 -1.24923,-3.44778 3.5589,-0.442772 3.47159,6.62712 0.0456378,6.46044z"/>
  <path fill="#0057F0" d="M360.847 404.21c0.25115,-0.795969 1.37849,-1.41477 1.61915,-2.81112 0.191055,-1.1058 -0.442772,-2.23115 -0.746646,-3.59036 3.58555,0.0674646 2.49506,7.05317 -0.872504,6.40148z"/>
  <path fill="#0057F0" d="M358.162 408.984c0.0768189,-0.466299 0.658489,-0.903402 0.681166,-1.70504 0.0181417,-0.634961 -0.427465,-1.21436 -0.706961,-1.95109 2.01402,-0.250583 1.96469,3.75024 0.0257953,3.65613z"/>
  <path fill="#0057F0" d="M384.704 401.896c0.0768189,-0.585638 0.658489,-1.13499 0.681166,-2.14186 0.0181417,-0.79767 -0.427465,-1.52561 -0.706961,-2.4514 2.01402,-0.314929 1.96469,4.71175 0.0257953,4.59326z"/>
  <path fill="#0057F0" d="M382.301 396.622c-0.118488,-0.704126 0.523559,-1.87257 0.193606,-3.04498 0.557859,-1.25632 -1.52532,-2.10388 -2.17616,-3.07531 2.71021,-1.62284 5.08791,4.80529 1.98255,6.12029z"/>
  <path fill="#0057F0" d="M387.872 396.95c-0.118488,-0.704126 0.523559,-1.87257 0.193606,-3.04498 0.557859,-1.25632 -1.52532,-2.10388 -2.17616,-3.07531 2.71021,-1.62284 5.08791,4.80529 1.98255,6.12029z"/>
  <path fill="#0057F0" d="M393.118 395.578c-0.0992126,-0.58904 0.437953,-1.56614 0.161858,-2.54636 0.466583,-1.0508 -1.27559,-1.75975 -1.81984,-2.57216 2.26658,-1.35695 4.25481,4.01868 1.65799,5.11852z"/>
  <path fill="#0057F0" d="M390.603 400.749c0.0768189,-0.418961 0.658489,-0.812126 0.681166,-1.53269 0.0181417,-0.570614 -0.427465,-1.09162 -0.706961,-1.7538 2.01402,-0.225354 1.96469,3.37125 0.0257953,3.28649z"/>
  <path fill="#0057F0" d="M387.981 405.173c0.0768189,-0.377292 0.658489,-0.731339 0.681166,-1.38019 0.0181417,-0.514205 -0.427465,-0.983056 -0.706961,-1.57975 2.01402,-0.202677 1.96469,3.03619 0.0257953,2.95994z"/>
  <path fill="#0057F0" d="M400.338 399.235c-0.0788032,-0.830835 0.7183,-1.83997 0.395717,-3.21988 -0.255118,-1.09276 -1.27758,-1.88221 -2.08715,-3.01521 3.32844,-1.33569 5.04681,5.52274 1.69143,6.23509z"/>
  <path fill="#0057F0" d="M397.553 406.32c-0.0790867,-1.0698 1.70136,-2.04151 2.03414,-4.80076 0.072567,-1.40712 -1.11373,-2.42306 -1.92331,-3.88177 3.32816,-1.7195 5.04681,7.2737 -0.110835,8.68252z"/>
  <path fill="#0057F0" d="M394.661 414.969c0.24378,-0.883843 1.74161,-1.2189 2.88284,-3.36303 0.48926,-1.11798 -0.012189,-3.38514 -0.185669,-3.62041 2.77058,0.371339 2.22803,7.56596 -2.69717,6.98344z"/>
  <path fill="#0057F0" d="M398.111 410.883c0.0802205,-0.913323 1.49273,-1.51399 2.22747,-3.82904 0.278929,-1.18772 -0.623906,-3.32703 -0.837071,-3.52715 2.79184,-0.13578 3.55918,7.03871 -1.39039,7.35619z"/>
  <path id="path1937_2" fill="none" stroke="#0057F0" stroke-width="1.98425" d="M1.12706 1.23562l497.698 0 -0.108284 340.325c-27.5108,314.086 -464.16,315.615 -497.709,0l0.119906 -340.325z"/>
 </g>
</svg>
