<?xml version="1.0" encoding="UTF-8"?>
<!DOCTYPE svg PUBLIC "-//W3C//DTD SVG 1.1//EN" "http://www.w3.org/Graphics/SVG/1.1/DTD/svg11.dtd">
<!-- Creator: CorelDRAW X6 -->
<svg xmlns="http://www.w3.org/2000/svg" xml:space="preserve" width="500px" height="562px" version="1.1" style="shape-rendering:geometricPrecision; text-rendering:geometricPrecision; image-rendering:optimizeQuality; fill-rule:evenodd; clip-rule:evenodd"
viewBox="0 0 500 562"
 xmlns:xlink="http://www.w3.org/1999/xlink"
 xmlns:svg="http://www.w3.org/2000/svg">
 <defs>
  <style type="text/css">
   <![CDATA[
    .str1 {stroke:#898989;stroke-width:0.216}
    .str2 {stroke:#E4E4E4;stroke-width:0.216}
    .str0 {stroke:#2B2A29;stroke-width:1.41732}
    .fil8 {fill:#727271}
    .fil0 {fill:#B2B3B3}
    .fil7 {fill:#FEFEFE}
    .fil2 {fill:#00376A}
    .fil5 {fill:#0A427B}
    .fil1 {fill:#2351A7}
    .fil6 {fill:#7091BC}
    .fil4 {fill:#8C0000}
    .fil9 {fill:#E4E4E4}
    .fil3 {fill:#F00000}
   ]]>
  </style>
 </defs>
 <g id="Layer_x0020_1">
  <metadata id="CorelCorpID_0Corel-Layer"/>
  <path id="path1937" class="fil0 str0" d="M1 1l498 0 0 302c1,339 -499,344 -498,7l0 -309z"/>
  <path id="path1937_0" class="fil1 str0" d="M499 284l0 19c1,339 -499,344 -498,7l0 -26 498 0z"/>
  <path class="fil2" d="M73 299l33 18c2,-2 0,0 3,0l14 -31 10 31c3,0 -1,0 2,2l25 -28 -5 32c2,1 4,5 6,7l30 -13 -16 24c16,44 55,59 176,138 8,5 39,9 26,31 -13,20 -44,-8 -54,-14 -77,-48 -146,-96 -181,-89l-20 26 -5 -37c-2,0 -1,3 -3,2l-26 21 4 -27c-1,-1 -6,-5 -8,-7l-26 8 19 -24c-1,-3 -3,-6 -2,-9l-27 -16 34 -4c1,-2 5,-6 8,-9l-17 -32z"/>
  <path class="fil2" d="M438 303l-25 16c-2,-2 -6,-6 -8,-7l-7 -24 -10 24c-3,0 -9,-1 -11,0l-19 -19 1 34c-3,1 -1,-1 -4,2l-26 -17 9 36c-11,27 -42,42 -82,66 -39,23 -91,52 -103,59 -11,7 -37,14 -26,32 12,19 37,-6 52,-15 81,-47 162,-93 195,-87l16 27 4 -33c2,-1 6,-3 9,-5l23 21 -9 -28c5,-1 25,3 30,2l-17 -18c1,-3 1,-7 1,-10l28 -13 -28 -5c-1,-2 -3,-9 -4,-11l11 -27z"/>
  <path class="fil1" d="M252 97c6,-2 11,-4 11,-8 1,-7 1,-19 6,-21 7,-3 6,15 16,13 4,-1 9,-10 10,-19 0,-14 -12,-31 -4,-34 3,-1 9,3 13,10 6,11 12,28 21,27 3,0 9,-9 11,-17 2,-9 -5,-33 3,-35 8,-1 8,7 11,15 2,5 6,21 8,24 2,3 5,6 9,6 2,0 11,-9 13,-18 1,-10 1,-28 7,-29 5,0 8,4 8,11 2,10 0,25 7,25 3,0 10,-4 14,-10 4,-6 7,-12 10,-17 3,-3 5,-6 8,-6 5,0 3,4 3,11 -1,3 -2,10 -4,14 -4,10 -11,17 -6,20 3,3 9,-6 12,-3 4,4 -8,18 -10,19 -15,9 -42,10 -43,17 0,7 12,3 13,9 1,5 -15,7 -30,9 -6,1 -14,0 -21,-1 -29,-1 -63,-3 -70,10 10,15 36,1 63,1 5,0 15,3 23,6 6,2 9,2 10,5 0,4 -14,17 -19,20 -7,4 -28,-2 -24,1l-2 3 3 2c2,1 8,0 11,1 2,2 0,5 2,6 3,2 9,0 12,2 3,2 1,8 4,10 2,2 8,0 10,1 3,3 1,9 4,11l5 1 4 2 1 11 6 4 -1 9 -7 5c3,6 9,12 15,18 -12,6 -25,3 -38,-8l-2 1c5,10 4,15 6,23 -13,1 -17,-11 -26,-17 0,9 2,22 0,28 -11,-7 -18,-15 -18,-22 -4,0 -3,16 -6,26 -6,-7 -15,-14 -19,-22 -3,2 -1,18 -2,27 -11,-6 -18,-13 -21,-21 -2,8 -6,15 -12,21 -6,-13 -13,-26 -22,-37l-5 -1c2,10 1,18 -1,25 -13,5 -23,12 -39,15 -3,-19 -8,-23 -12,-34 -2,0 -5,-1 -19,-1 -7,11 -15,16 -27,5 -7,1 -7,-2 -5,-5 10,-10 33,-12 36,-17 1,-1 -1,-7 -3,-13 -1,-2 -1,-5 -3,-6 -5,-2 -12,-3 -17,0 -10,7 -20,31 -28,30 -11,-1 -21,-14 -16,-24 1,-5 1,-20 6,-28 4,-6 10,-10 15,-16 4,-4 7,-6 12,-8 16,-9 49,-17 49,-22 1,-2 5,-7 13,-8 9,-1 22,-7 23,-9 -2,-2 -13,-8 -21,-9 -9,0 -42,3 -60,2 -20,0 -29,-7 -28,-9 1,-3 5,-4 9,-4 2,0 8,-3 7,-5 -2,-6 -8,-5 -20,-9 -6,-3 -21,-6 -24,-10 -1,-1 -15,-14 -12,-18 2,-3 11,1 12,-1 0,-6 -4,-9 -6,-17 -1,-4 -4,-25 2,-25 8,-1 10,19 14,25 4,6 14,9 16,8 4,-2 8,-37 15,-34 9,2 2,23 5,31 2,6 12,12 14,12 8,1 11,-9 14,-20 4,-11 9,-22 14,-21 7,2 1,23 3,38 2,6 10,13 13,14 8,1 10,-10 16,-21 6,-12 12,-24 18,-21 5,3 -3,18 -5,32 0,1 4,20 9,23 5,3 10,-13 16,-12 7,2 -3,24 14,28z"/>
  <path class="fil0" d="M72 300l29 16c2,-1 4,-3 7,-3l10 -26 9 26c2,1 4,1 7,2l22 -25 -7 33c2,1 4,3 6,5l33 -13 -20 26c13,36 59,56 180,134 7,5 34,13 25,29 -9,16 -32,-5 -42,-11 -77,-48 -160,-103 -195,-96l-18 29 -2 -34c-2,0 -4,0 -6,-1l-23 22 6 -31c-2,-1 -4,-3 -5,-5l-32 9 23 -24c-1,-3 -2,-5 -2,-8l-28 -15 33 -2c1,-3 2,-6 5,-10l-15 -27z"/>
  <path class="fil0" d="M434 302l-29 16c-1,-2 -3,-3 -5,-3l-7 -28 -11 26c-3,0 -6,1 -8,2l-20 -24 4 32c-3,2 -5,4 -8,7l-26 -17 13 31c-10,27 -42,43 -82,66 -39,23 -91,52 -102,59 -12,7 -36,12 -26,30 10,17 27,-1 43,-10 80,-47 165,-100 198,-94l16 29 3 -32c2,0 5,-1 7,-2l26 22 -11 -33c1,-1 3,-2 4,-4l33 8 -23 -22c1,-2 1,-5 1,-7l31 -11 -33 -7c0,-2 -1,-4 -3,-6l15 -28z"/>
  <path class="fil3" d="M88 258c28,13 31,-9 40,-15 9,-10 33,-15 36,-17 -47,-11 -49,26 -71,22 -8,2 -9,5 -5,10z"/>
  <path class="fil4" d="M88 258c28,13 31,-9 40,-15 9,-10 33,-15 36,-17 -23,-6 -35,0 -44,7 -1,3 -6,6 -6,8 1,-1 4,-3 6,-2 0,3 -15,13 -19,12 -4,1 -7,2 -5,3 14,2 27,-14 29,-14 -10,16 -22,19 -34,16 -3,-1 -4,0 -3,2z"/>
  <path class="fil3" d="M134 215c9,-3 18,-6 28,-7 -1,-4 -5,-5 -9,-5 -10,0 -16,7 -19,12z"/>
  <path class="fil4" d="M134 215c9,-3 19,-6 28,-7 0,-1 0,-1 0,-2 -1,0 -2,-1 -3,-1 0,0 0,1 0,1 -1,0 -2,0 -2,0 -1,0 -1,-2 -1,-3 0,0 -1,0 -1,0 0,1 -1,3 -1,3 0,0 -1,1 -2,1 0,0 0,-3 0,-4 -1,0 -1,0 -2,0 -1,2 -2,5 -2,5 -1,1 -3,1 -4,2l0 -5c-1,0 -1,1 -2,2 -1,1 -1,2 -2,4l-4 2c-1,0 -2,1 -2,2z"/>
  <path class="fil5" d="M113 104c17,8 38,5 56,3 22,-3 38,-7 48,11 -29,-20 -66,5 -107,-12l3 -2z"/>
  <path class="fil6" d="M126 95c1,-2 2,-2 3,-1 -4,14 -18,8 -19,12 0,-8 12,0 16,-11z"/>
  <path class="fil2" d="M79 72l4 0c13,11 37,5 46,21l-3 0c-8,-9 -38,-9 -47,-21z"/>
  <path class="fil6" d="M74 18c2,-2 4,-1 4,0 0,36 13,36 5,42 -5,4 -5,2 -11,1 2,5 8,8 8,11l-1 1c-4,-6 -10,-11 -9,-13 1,-3 10,1 11,-2 2,-3 -7,-11 -7,-40z"/>
  <path class="fil2" d="M101 53c-23,-9 -16,-23 -23,-34l0 -2c10,11 4,25 23,32l0 4z"/>
  <path class="fil6" d="M122 15c-10,0 -8,39 -20,36l0 1c14,2 14,-33 19,-34l1 -3z"/>
  <path class="fil2" d="M122 17l2 2c2,11 -7,25 10,38l-3 1c-16,-10 -9,-21 -9,-41z"/>
  <path class="fil6" d="M133 59c25,9 21,-26 34,-40l-3 0c-10,12 -11,48 -30,38l-1 2z"/>
  <path class="fil2" d="M167 20l1 -2c6,17 -7,34 12,51l-1 0c-25,-15 -8,-33 -12,-49z"/>
  <path class="fil6" d="M180 71c23,7 24,-34 36,-41l0 -2c-7,-1 -13,17 -19,30 -3,8 -7,13 -16,11l-1 2z"/>
  <path class="fil2" d="M215 32l4 -1c-10,19 -11,37 3,52l-1 2c-19,-15 -15,-31 -6,-53z"/>
  <path class="fil6" d="M223 87c6,-2 8,-5 14,-14l-3 0c-6,9 -10,12 -12,11 0,1 -1,2 1,3z"/>
  <path class="fil2" d="M236 70l1 0c6,5 -4,20 14,28l-4 0c-18,-9 -7,-18 -11,-28z"/>
  <path class="fil6" d="M218 120l8 1c1,-8 -4,-14 -1,-18 4,-4 9,0 18,0 7,0 18,-3 21,-6 11,-12 3,-20 6,-25l-2 -1c-4,6 3,16 -8,24 -15,10 -33,-4 -42,5 -6,6 2,14 0,20z"/>
  <path class="fil2" d="M269 69c6,3 6,16 17,15l0 1c-12,6 -14,-11 -16,-13l-1 -3z"/>
  <path class="fil6" d="M286 84l1 2c25,-22 6,-42 6,-55l-3 -1c-1,12 19,33 -4,54z"/>
  <path class="fil2" d="M293 29c15,9 17,41 35,36l-4 6c-15,-1 -19,-26 -31,-39l0 -3z"/>
  <path class="fil6" d="M326 68l5 -1c20,-23 3,-37 9,-49l-2 -2c-6,15 10,29 -12,52z"/>
  <path class="fil2" d="M338 15c16,1 9,40 29,45l-2 2c-22,-3 -13,-39 -27,-46l0 -1z"/>
  <path class="fil6" d="M389 13l-2 0c-7,9 3,37 -23,50l4 1c26,-15 16,-40 21,-51z"/>
  <path class="fil2" d="M388 15l1 -1c8,4 0,27 13,35l-3 2c-12,-6 -6,-23 -11,-36z"/>
  <path class="fil2" d="M421 61l3 0c-1,-10 12,-23 12,-45l-2 0c-1,23 -17,35 -13,45z"/>
  <path class="fil6" d="M433 15c-11,10 -11,28 -31,34l-3 2c28,-3 23,-25 36,-32l-2 -4z"/>
  <path class="fil6" d="M437 57c-4,1 -7,5 -13,4l-4 1c9,7 13,-2 18,-3l-1 -2z"/>
  <path class="fil2" d="M379 93l7 2c-10,-6 8,-10 26,-15 16,-4 25,-12 27,-21l-2 1c-7,5 -5,9 -12,12 -18,8 -45,11 -46,21z"/>
  <path class="fil6" d="M392 99c-8,1 -11,-2 -13,-6 5,2 10,4 15,5l-2 1z"/>
  <path class="fil2" d="M223 122c10,-1 17,9 27,7 10,-3 15,1 21,-2 7,-3 5,-11 14,-15 24,-11 63,-3 87,-4 15,0 24,-4 26,-8l-3 -1c-5,7 -37,6 -61,4 -13,-2 -51,-5 -62,16l-2 0c3,-6 7,-13 22,-16 12,-3 35,-2 37,-3 -15,-1 -53,-6 -64,20l-3 0c4,-8 11,-15 24,-21 -8,1 -16,6 -25,15 -1,2 -2,4 -3,7l-1 0c1,-4 3,-9 9,-14l-7 2c-3,3 -5,7 -7,13l-3 0 2 -7 1 -4 -2 2 -6 10 -3 0c0,-2 0,-3 1,-5l-1 0c-2,1 -3,3 -3,4l-9 -2 -6 2z"/>
  <path class="fil6" d="M226 108c1,-1 2,-2 3,-2l1 12 -2 2c-1,-4 -1,-8 -2,-12z"/>
  <path class="fil6" d="M231 109c0,-1 1,-1 2,-1l1 8 -3 2c0,-4 0,-4 0,-9z"/>
  <path class="fil6" d="M191 136c16,5 36,-10 36,-12l-4 -2c-12,3 -18,11 -31,12l-1 2z"/>
  <path class="fil6" d="M206 136c3,1 6,1 9,1l1 2c-4,0 -7,-1 -12,-2l2 -1z"/>
  <path class="fil6" d="M214 133c3,0 5,1 8,2l1 1c-4,1 -6,1 -11,-2l2 -1z"/>
  <path class="fil6" d="M220 129c0,0 4,4 7,3l-1 2c-3,0 -5,-1 -8,-3l2 -2z"/>
  <path class="fil6" d="M224 127c3,1 5,3 6,3l0 2c-1,3 -4,-2 -7,-3l1 -2z"/>
  <path class="fil6" d="M227 123c4,1 4,3 6,3l-2 2c-2,0 -2,-2 -4,-2l0 -3z"/>
  <path class="fil6" d="M188 136c1,-1 4,3 7,3l1 3c-5,2 -7,-2 -10,-4l2 -2z"/>
  <path class="fil2" d="M189 146c10,-5 19,-2 30,9 -5,-9 -12,-13 -21,-13l1 -1c14,0 22,13 25,15l-2 1c-2,3 -4,5 -6,6 -5,4 -11,5 -19,2l0 -1c10,1 18,0 21,-6 -8,-11 -18,-15 -28,-12l-1 0z"/>
  <path class="fil0" d="M187 150c6,-2 7,-5 15,-4 8,2 11,9 14,12 -4,0 -9,7 -19,3 -6,-3 -7,-9 -10,-11z"/>
  <path class="fil2" d="M194 147c2,-1 4,-2 8,-1 4,1 7,4 9,6 1,7 -1,6 -4,10 -3,0 -6,0 -10,-1 -2,-1 -4,-2 -5,-4 -2,-5 0,-8 2,-10z"/>
  <path class="fil6" d="M200 160c-3,0 -6,-4 -6,-7 0,-4 3,-6 6,-6 2,0 3,0 4,1 1,0 1,2 0,2 -4,-1 -8,0 -8,2 0,4 2,5 5,6 1,0 0,1 -1,2z"/>
  <path class="fil7" d="M194 147c0,1 2,3 5,4 -3,0 -6,0 -8,2 0,-3 2,-5 3,-6z"/>
  <path class="fil6" d="M109 231l2 -2c-2,-1 -6,-3 -7,-7 -2,-9 2,-23 6,-27 6,-6 14,-13 22,-20 6,-5 12,-10 18,-13 7,-4 15,-9 22,-12 6,-3 11,-5 14,-8l-2 -1c-17,9 -40,13 -59,26 -1,1 -8,8 -14,13 -5,4 -7,8 -8,12 -1,10 -4,23 -3,31 1,4 6,5 9,8z"/>
  <path class="fil2" d="M122 212c4,-5 1,-7 7,-16 5,-9 29,-35 44,-44 -18,6 -49,36 -52,43 -1,3 -1,5 -1,7l2 10z"/>
  <path class="fil2" d="M105 218c1,7 8,9 11,4 3,-7 -4,-16 1,-27l-1 -2c-9,9 -2,31 -10,23l-1 2z"/>
  <path class="fil6" d="M181 150l2 -1c2,2 7,7 7,8 0,4 2,5 5,6l-1 2c-5,-1 -7,-3 -8,-6 -1,-3 -2,-7 -5,-9z"/>
  <path class="fil6" d="M159 184l1 2c9,-4 16,-7 24,-10 8,9 7,22 8,32 1,13 6,21 17,19 -4,-1 -9,-5 -10,-11 -2,-13 -4,-31 -1,-36 7,-9 26,-6 31,-20l-2 0c-20,15 -32,5 -35,7 -10,6 -22,11 -33,17z"/>
  <path class="fil6" d="M181 180l1 -1c4,1 7,6 8,16l-2 -3c-2,-5 -4,-9 -7,-12z"/>
  <path class="fil6" d="M179 183l1 -1c4,1 5,9 5,15l-1 -3c-2,-5 -2,-9 -5,-11z"/>
  <path class="fil2" d="M109 232c18,9 25,-43 52,-28l-5 -5c-25,-6 -30,33 -45,31l-2 2z"/>
  <path class="fil6" d="M149 196l0 -1c9,0 16,6 19,14 1,4 3,8 3,13l-4 5c2,-5 0,-10 -2,-16 -3,-7 -7,-12 -16,-15z"/>
  <path class="fil6" d="M160 197l0 -2c3,1 6,3 8,5 5,5 10,12 11,23 -2,1 -3,2 -4,3l-3 1c3,-5 0,-11 -1,-15 -2,-7 -5,-13 -11,-15z"/>
  <path class="fil6" d="M228 147c3,1 7,6 8,6l0 3c0,2 -9,-6 -8,-8l0 -1z"/>
  <path class="fil6" d="M233 144c3,1 7,5 8,6l0 3c0,2 -9,-6 -9,-8l1 -1z"/>
  <path class="fil6" d="M240 142c3,0 6,4 7,5l0 3c1,1 -10,-8 -8,-8l1 0z"/>
  <path class="fil6" d="M246 140c3,1 6,3 6,4l1 3c1,2 -11,-7 -9,-7l2 0z"/>
  <path class="fil6" d="M252 138c3,1 5,4 6,4l-2 1c-1,0 -8,-5 -6,-5l2 0z"/>
  <path class="fil6" d="M257 135c3,2 4,3 5,3l-1 1c-2,1 -8,-4 -6,-4l2 0z"/>
  <path class="fil6" d="M263 132c1,1 2,2 3,3l0 1c0,1 -6,-4 -4,-4l1 0z"/>
  <path class="fil6" d="M268 130c1,0 2,2 3,3l-1 0c-1,1 -6,-2 -4,-2l2 -1z"/>
  <path class="fil6" d="M277 130c2,0 2,1 4,2l-1 1c-1,1 -6,-3 -4,-3l1 0z"/>
  <path class="fil6" d="M278 127c2,1 8,3 9,4 0,0 -1,1 -2,1 -2,0 -9,-4 -8,-4l1 -1z"/>
  <path class="fil6" d="M280 124c4,3 11,4 13,4 0,1 -2,2 -3,2 -2,0 -12,-3 -11,-5l1 -1z"/>
  <path class="fil6" d="M292 128c31,-1 40,-8 48,-7 9,1 19,9 28,9l-2 2c-10,-1 -16,-8 -27,-9 -11,0 -22,9 -47,6l0 -1z"/>
  <path class="fil2" d="M297 132c7,-1 16,-3 24,-5 9,-2 12,-4 17,-3 13,0 23,11 30,6l4 1c-3,2 -5,3 -8,2 -6,0 -12,-4 -19,-6 0,2 6,3 8,4l-1 1c-2,-1 -6,-1 -10,-2l0 1c4,0 4,2 9,2l-1 1c-2,0 -8,-1 -15,0l3 1c1,0 3,0 5,0l0 1c-12,0 -21,1 -27,4l1 1c5,-2 11,-3 18,-3l0 1c-17,-1 -12,10 -24,6l-1 1 -13 -2c-7,-1 -6,-10 0,-12z"/>
  <path class="fil6" d="M362 135c4,0 7,0 10,-1 1,-1 0,-2 -2,-1 -2,1 -5,2 -8,2z"/>
  <path class="fil6" d="M356 138c5,1 11,2 13,0 1,-1 1,-3 -1,-2 -2,1 -7,1 -12,2z"/>
  <path class="fil6" d="M346 143c5,1 15,1 18,0 1,-1 1,-2 -1,-1 -3,0 -12,1 -17,1z"/>
  <path class="fil6" d="M344 146c4,1 11,2 14,1 2,0 2,-1 0,-1 -3,1 -9,0 -14,0z"/>
  <path class="fil6" d="M336 147c5,1 10,4 13,4 3,1 4,0 1,-1 -2,0 -8,-2 -14,-3z"/>
  <path class="fil6" d="M324 147c5,2 10,4 13,5 3,0 4,-1 1,-2 -2,0 -8,-2 -14,-3z"/>
  <path class="fil2" d="M130 242c3,-1 6,-2 9,-4 1,0 0,2 -1,3 12,11 17,-7 26,-5 12,-1 25,-2 37,-4 -4,-3 -6,-5 -7,-9 0,-1 1,-1 2,-1 3,5 11,7 22,7l26 -2c32,-3 26,-45 32,-68 4,-13 11,-15 21,-14 1,0 2,0 4,1 16,1 18,3 24,5l-1 4 3 -4 4 1 -3 4c1,1 0,2 -2,4 1,0 1,1 1,1l5 -4c1,1 1,1 1,2l-4 3c1,0 1,1 1,1l4 -3c1,-1 4,-1 2,2l-3 3c0,0 1,0 1,1 2,-1 2,-2 3,-3l2 0c-1,2 -2,3 -3,4 0,0 0,0 1,1 2,-2 4,-5 4,-7l3 0c0,2 0,4 -1,7 2,-1 3,-2 3,-3l2 2c-2,2 -4,4 -6,5 0,0 1,1 1,1l6 -4 2 -1c-1,4 -4,5 -6,7 1,0 1,1 2,1 2,-1 3,-3 5,-5 1,1 0,2 0,3 -1,2 -2,3 -4,3 1,1 1,1 2,2 2,-2 4,-2 4,-10l2 -1c4,7 2,11 -3,13 0,1 0,1 1,1 2,-1 4,-2 5,-5l2 0c1,3 -4,5 -6,7 1,0 1,1 2,1 2,-2 4,-3 6,-5 1,-1 3,0 2,1 -2,2 -4,4 -7,5 1,1 1,1 1,1l8 -5 1 0 0 2 -7 5c1,1 2,2 3,2l5 -4 0 -4c0,-2 3,-3 4,-2 2,8 0,10 -6,14 0,0 0,0 0,0l8 -5 2 0 0 2 -7 5c0,1 0,1 1,2l7 -6c2,-1 2,1 2,1l-8 6c1,1 1,2 2,2l6 -2 0 -2 1 -3 2 0c1,7 0,9 -2,9l-4 2c0,0 0,0 0,1l8 -4 1 1 -8 5c1,0 1,0 1,1 4,-2 6,-3 8,-3l0 1c-3,1 -5,2 -7,4 1,1 1,1 1,2l5 -2 2 -6 1 1 -1 5 -6 4c0,0 0,0 0,0l6 -3 1 -6 1 1 0 7 -7 5c3,8 11,12 15,18 -10,6 -24,4 -38,-8l-2 1c3,7 4,15 6,23l-4 -1c-2,-9 -6,-22 -5,-26l3 0 1 -2c16,12 27,17 33,12 -3,0 -9,-4 -13,-8l-5 0 -1 -1 5 -1c0,-1 -1,-1 -1,-1l-6 0 -3 0 6 -2 3 0c-1,-1 -1,-1 -1,-2l-7 1 -4 0 4 -2 7 -1c0,0 0,0 0,-1 -3,0 -8,1 -14,2l0 0c1,-2 6,-3 13,-4 0,0 -1,-1 -1,-2l-9 1c2,-1 5,-2 8,-2 0,-1 -1,-1 -1,-2l-6 1 -8 1 4 -2c3,-1 8,-1 8,-2 0,-1 -1,-2 -1,-2 -1,-1 -9,1 -13,1l3 -3 8 -1c-1,-1 -1,-1 -1,-1 -7,0 -12,1 -16,2 2,-2 6,-4 14,-4 -1,-1 -1,-2 -2,-3 -6,0 -12,1 -17,3 1,-3 7,-4 15,-5 -1,-1 -1,-1 -2,-2 -5,0 -10,1 -14,2l-1 -1c3,-1 8,-3 13,-4 -1,0 -1,-1 -2,-1 -5,1 -11,2 -16,3l0 -1c4,-2 9,-3 13,-5 0,0 -1,-1 -1,-1l-9 2c-3,1 -4,1 -5,0l12 -5c-1,0 -2,-1 -3,-2 -4,1 -9,2 -13,2 3,-2 9,-4 10,-5 -1,-1 -1,-1 -1,-1 -1,0 -6,2 -9,3 -2,1 -5,1 -7,1 2,-3 9,-4 13,-7 -1,0 -1,-1 -2,-1 -7,3 -14,6 -22,8l10 -6 2 -2 7 -3c-1,0 -1,0 -1,-1 -4,2 -8,4 -13,6l2 -2 -14 4c7,-3 15,-6 21,-10 0,0 0,0 0,0 -3,-2 -6,3 -18,6 -1,-1 -8,2 -12,3 4,-2 11,-6 12,-5 2,0 3,-1 4,-2l9 -4 -7 3c-1,1 2,-3 0,-3 -5,4 -14,7 -23,11 11,-6 20,-12 23,-15 0,0 -1,-1 -1,-1l-10 3 0 -1 4 -2 -7 3 1 -2 6 -3c0,0 0,0 -1,0l-6 2 2 -3c-9,2 -16,6 -23,11l0 -1 4 -4 -3 2c0,0 -1,1 -1,2 0,1 0,2 0,5 3,-3 6,-6 9,-8 2,-2 6,-4 11,-5l-2 1 1 2 2 -1 -1 2c-6,2 -11,6 -17,10l3 -4c-2,1 -5,3 -6,5 -1,3 -1,6 -1,9 4,-4 8,-8 13,-10 -4,4 -8,7 -11,12 2,-2 5,-3 7,-4l-9 13c4,-4 9,-9 15,-12 -5,5 -13,13 -12,17 0,2 -6,9 -4,7 6,-6 6,-9 10,-13 2,-3 4,-5 6,-6l1 1c-3,4 -7,7 -8,13l0 1c-2,5 -6,8 -12,11 2,-2 3,-3 4,-5 -7,5 -8,16 -14,16 -4,6 -9,16 -17,17 5,-6 10,-12 11,-13 -3,1 -11,9 -14,10 -4,0 -3,-1 -1,-4 -4,1 -8,2 -12,2 -1,7 -1,18 -3,21l-6 4c-2,-1 -1,-1 -1,-2l4 -3c0,-7 0,-14 -2,-21 -1,0 -4,0 -6,0 -2,0 1,15 0,26 -1,2 -3,3 -5,5l-3 0 1 -2 5 -3 -4 -26 -5 0c-1,1 0,8 0,15 1,7 1,14 0,17l-6 4 0 -2 4 -3c0,-9 -1,-19 -5,-30l-4 0c-3,0 0,10 2,19 1,6 1,12 1,16l-5 2 0 -1c2,-1 3,-3 3,-4 0,-12 -3,-23 -11,-30 -7,0 -14,2 -22,1 -5,0 -8,4 -12,7 -4,3 -10,4 -16,-2 -2,-1 -9,0 -7,-3z"/>
  <path class="fil6" d="M317 147c4,3 8,5 11,5 3,0 4,-1 1,-1 -2,-1 -6,-2 -12,-4z"/>
  <path class="fil6" d="M307 147c4,3 8,4 11,5 3,0 4,-1 1,-2 -2,0 -6,-2 -12,-3z"/>
  <path class="fil6" d="M287 145c8,1 16,4 19,4 2,1 3,0 0,-1 -2,0 -16,-6 -19,-3z"/>
  <path class="fil6" d="M280 146c7,1 10,2 13,2 2,1 4,0 1,-1 -2,0 -8,-2 -14,-1z"/>
  <path class="fil6" d="M183 243c-1,-1 1,-2 2,-1 5,9 8,18 11,29 0,1 -2,3 -2,2 -2,-9 -6,-18 -11,-30z"/>
  <path class="fil6" d="M196 240c0,-2 2,-2 2,-1 3,12 5,17 5,29 0,1 -3,2 -3,1 1,-10 -2,-18 -4,-29z"/>
  <path class="fil6" d="M207 238c0,-2 2,-2 3,-2 2,10 1,16 2,28 0,1 -3,3 -4,2 1,-9 1,-15 -1,-28z"/>
  <path class="fil6" d="M219 237c-1,-2 1,-2 2,-1 2,10 2,15 1,23 1,1 -2,4 -2,2 0,-9 0,-12 -1,-24z"/>
  <path class="fil2" d="M271 249c-1,0 -2,0 -2,1 -2,10 -5,15 -10,23l1 1c7,-8 12,-17 11,-25z"/>
  <path class="fil2" d="M291 245c0,-2 5,-1 4,2 -3,7 -2,16 -2,27l-2 -1c-1,-8 -3,-19 0,-28z"/>
  <path class="fil2" d="M335 236c1,-2 4,1 3,2 0,7 2,18 0,26l-2 0c0,-4 0,-7 -1,-11l-6 2 -1 -1 7 -4c0,-1 0,-2 0,-3l-6 3 -4 1 10 -7c0,-2 0,-5 0,-8z"/>
  <path class="fil6" d="M251 251l4 -3 2 -3 -7 4c0,1 1,1 1,2z"/>
  <path class="fil6" d="M255 253l4 -2 0 -3 -6 4c0,1 1,2 2,1z"/>
  <path class="fil6" d="M255 257c2,-2 5,-2 7,-4 0,-1 2,-4 4,-6 -4,3 -7,6 -11,9 -1,1 -1,0 0,1z"/>
  <path class="fil6" d="M258 260c2,-2 3,-2 5,-4 0,-1 2,-3 4,-6 -3,3 -6,6 -10,8 0,1 0,1 1,2z"/>
  <path class="fil6" d="M259 263l3 -1c0,-1 1,-2 3,-3l-1 -1 -7 4c0,1 0,2 2,1z"/>
  <path class="fil6" d="M260 266c3,-2 1,0 3,-2l0 -1c-1,1 -3,1 -4,2 -1,0 0,1 1,1z"/>
  <path class="fil6" d="M249 247c0,0 1,0 2,0l0 -1c-1,-1 -1,-1 -2,-1 -1,0 -1,1 0,2z"/>
  <path class="fil2" d="M254 245c3,-1 8,-6 10,-8 2,-1 2,-5 4,-8 -4,3 -11,12 -16,15 0,1 0,2 2,1z"/>
  <path class="fil2" d="M259 246c2,-1 6,-4 8,-6 2,-1 3,-3 4,-6 -3,4 -9,8 -14,11 0,1 0,1 2,1z"/>
  <path class="fil2" d="M274 222c3,-2 15,-11 16,-13 3,-2 4,-11 9,-15l0 -2c-1,2 -5,5 -10,13 -2,4 -15,13 -17,16 -1,1 -1,3 2,1z"/>
  <path class="fil2" d="M272 228c5,-1 14,-6 20,-13 5,-4 10,-9 8,-15 1,-1 1,-1 2,-1l0 -2c-5,5 -7,9 -9,12 0,1 -2,2 -4,4 1,-4 -9,8 -21,15l8 -3 -4 3z"/>
  <path class="fil2" d="M305 202l-1 0c-4,5 -5,8 -5,9 3,-3 5,-7 6,-9z"/>
  <path class="fil2" d="M274 233c3,-2 15,-10 16,-12 3,-2 4,-11 9,-15l0 -2c-1,1 -5,4 -10,12 -2,4 -15,14 -17,16 -1,2 -1,3 2,1z"/>
  <path class="fil2" d="M285 228c3,-2 12,-7 13,-9 3,-3 10,-9 12,-12l-1 0 -5 4c1,-1 0,-2 2,-3l-1 -2c-2,2 -6,7 -8,9 -3,3 -16,14 -18,15 -2,2 3,0 6,-2z"/>
  <path class="fil2" d="M290 232c2,-2 11,-8 13,-10 5,-4 9,-7 12,-11l-1 0c-3,2 -6,4 -4,1l-1 0c-1,1 -5,5 -7,7 -3,3 -16,14 -18,16 -2,1 3,-1 6,-3z"/>
  <path class="fil2" d="M287 239c2,-1 14,-7 15,-9 4,-3 9,-8 12,-12 1,-1 2,-3 3,-4l-2 0c-2,5 -20,17 -34,26l6 -1z"/>
  <path class="fil2" d="M291 242c2,-1 14,-7 16,-9 4,-3 9,-7 11,-11 1,-1 2,-2 2,-4l-1 0c-3,5 -60,30 -34,25l6 -1z"/>
  <path class="fil2" d="M301 243c2,0 9,-4 14,-7 4,-3 5,-5 8,-9 0,0 -1,0 -1,-1 0,-1 3,-2 3,-3 1,-1 -1,-2 -1,-2l-6 6 -1 3c-1,3 -8,7 -22,15l6 -2z"/>
  <path class="fil2" d="M314 245c1,-2 2,-3 2,-5 1,-2 3,2 2,4 -2,6 0,13 -4,25l-2 -2c0,-4 0,-8 1,-14 -2,1 -4,2 -5,2l-1 0c1,-1 4,-3 7,-4 0,-1 0,-2 0,-3 -5,3 -6,3 -12,5l0 -2c7,-3 9,-4 12,-6zm7 0l-2 -3c6,-3 8,-6 11,-7l1 1c-4,3 -7,6 -11,8l-1 -2"/>
  <path class="fil2" d="M297 249c11,-2 21,-8 31,-17l0 -1c-10,6 -17,12 -30,16l-1 2z"/>
  <polygon class="fil2" points="324,247 330,243 333,241 333,239 321,246 321,248 "/>
  <path class="fil6" d="M299 185c1,-2 2,-3 4,-4l-1 0c-1,0 -2,1 -3,3l0 1z"/>
  <path class="fil6" d="M300 188c1,-2 7,-5 9,-6l-3 1c-2,0 -5,2 -6,3l0 2z"/>
  <path class="fil6" d="M304 191c0,-1 1,-1 2,-2l3 0c1,-1 4,-3 4,-4l-4 1c-1,0 -4,2 -5,4l0 1z"/>
  <path class="fil6" d="M306 196c2,-3 8,-4 13,-9l2 -1c-4,0 -12,6 -15,9l0 1z"/>
  <path class="fil6" d="M311 199c0,-1 7,-5 11,-8 1,-1 3,0 2,-1l-3 0c-1,1 -8,5 -9,6 -1,1 -1,2 -1,3z"/>
  <path class="fil6" d="M316 203c0,-1 3,-4 4,-4l3 -1c4,-2 3,-3 6,-5l-4 0c-1,1 -9,7 -10,8 -1,1 0,2 1,2z"/>
  <path class="fil6" d="M318 208c0,-1 4,-2 6,-4 1,-2 3,-3 6,-5 1,0 4,-2 3,-3l-3 1c-1,0 -8,5 -10,6 -1,1 -2,4 -2,5z"/>
  <path class="fil6" d="M324 210c0,0 3,0 4,-2 2,0 6,-3 8,-5 2,-3 5,-2 4,-3l-3 0c-1,1 -8,5 -9,6 -1,1 -4,3 -4,4z"/>
  <path class="fil6" d="M327 215c0,0 3,-1 4,-3 2,-3 2,-4 6,-4 3,-2 5,-3 5,-4l-3 0c-1,1 -9,5 -10,7 -1,1 -2,3 -2,4z"/>
  <path class="fil6" d="M327 221c1,0 5,-2 6,-3 4,0 7,-4 9,-6 3,-2 5,-2 5,-3l-1 0c-2,0 -8,3 -13,7 -1,1 -6,4 -6,5z"/>
  <path class="fil6" d="M332 224c1,1 2,1 4,-2 4,-2 6,-3 8,-4 2,-2 8,-3 7,-4l-1 0c-2,1 -11,4 -14,6 -1,1 -4,3 -4,4z"/>
  <path class="fil6" d="M336 227l1 1c1,-2 2,-3 4,-3 2,-3 3,-2 6,-3 3,-2 5,-4 4,-5l-2 0c-1,1 -8,6 -10,6 -1,1 -3,3 -3,4z"/>
  <path class="fil6" d="M338 231l1 1c2,-1 1,-2 3,-2 2,0 2,-1 4,-2 4,-4 9,-5 8,-6l-1 0c-2,0 -10,4 -11,6 -2,1 -4,2 -4,3z"/>
  <path class="fil6" d="M343 235c1,-1 9,-6 13,-9l0 -1c-5,3 -10,5 -13,8l0 2z"/>
  <path class="fil6" d="M348 237c5,-2 2,-3 6,-4l-1 -2c-4,3 -6,4 -8,6l3 0z"/>
  <path class="fil6" d="M354 237l-2 0 -3 3c-1,1 0,2 1,2 1,-2 3,-3 4,-5z"/>
  <path class="fil6" d="M357 242l-2 -1 -2 3c-1,1 2,2 3,2 2,-2 2,-4 1,-4z"/>
  <path class="fil6" d="M359 245l-2 0 -3 3c0,0 4,1 4,0 0,-1 0,-1 1,-3z"/>
  <polygon class="fil2" points="357,141 363,141 358,142 "/>
  <path class="fil2" d="M353 145c3,0 5,-1 7,-1l0 2c-2,0 -4,0 -7,0l0 -1z"/>
  <path class="fil2" d="M346 148c4,0 8,0 11,0l0 2c-2,0 -7,0 -10,-1l-1 -1z"/>
  <path class="fil2" d="M335 148c4,0 7,2 9,2l0 1c-2,0 -5,-1 -9,-2l0 -1z"/>
  <polygon class="fil2" points="325,148 333,151 325,149 "/>
  <path class="fil2" d="M307 163c-12,4 -20,9 -26,16l0 2c6,-5 13,-10 21,-14l-5 5c5,-3 11,-5 16,-8l-8 1 2 -2z"/>
  <path class="fil8 str1" d="M388 221c4,-2 8,-2 6,-13l-2 -2 0 9 -7 5c1,7 10,12 14,18 -6,6 -19,7 -39,-6l-2 0 8 25 3 1 1 -2 -6 -19c6,4 22,15 40,3 3,-2 -19,-17 -16,-19z"/>
  <path class="fil8" d="M342 239l-3 -1c1,9 2,18 2,27l3 2c-1,-9 0,-18 -2,-28z"/>
  <path class="fil8" d="M321 245l-3 -1c1,9 -1,16 -1,25l1 3c2,-8 2,-13 3,-27z"/>
  <path class="fil8" d="M298 249l-3 -1c0,9 1,16 0,25l2 2c2,-8 0,-12 1,-26z"/>
  <path class="fil8" d="M273 261l-1 -6c-1,7 -5,13 -9,18l-2 8c5,-6 9,-12 12,-20z"/>
  <path class="fil8" d="M238 241l5 1 -4 -4 -5 -1c2,11 1,18 -2,24l-38 16c-1,1 0,2 0,3l39 -15c3,-3 7,-13 5,-24z"/>
  <path class="fil8" d="M165 245l17 1 -1 -4 -18 -1c-9,13 -19,15 -30,6 -3,0 -5,0 -5,-1l-2 0c-10,24 -41,18 -40,11l-1 0c1,9 26,18 43,-7 2,1 3,1 5,1 11,8 22,6 32,-6z"/>
  <path class="fil8" d="M108 108c31,18 85,-5 106,11l0 3 -2 1c-8,-18 -86,8 -106,-14l2 -1z"/>
  <path class="fil8" d="M73 71c11,17 48,16 50,25l-3 3c0,-10 -21,-5 -43,-20l-4 -8z"/>
  <path class="fil8" d="M103 47c-17,-5 -15,-22 -23,-33 16,9 3,22 25,32l-2 1z"/>
  <path class="fil8" d="M138 56l2 -1c-9,-7 -10,-12 -10,-18 0,-10 2,-20 -5,-25 4,10 1,20 2,28 1,6 3,10 11,16z"/>
  <path class="fil8" d="M185 67l1 -1c-7,-6 -11,-10 -11,-18 1,-10 4,-32 -5,-33 5,9 2,27 3,36 0,6 3,10 12,16z"/>
  <path class="fil8" d="M223 36l0 -6 -2 0 -6 27c-1,4 1,11 3,18 2,4 5,4 7,6l0 -2 -1 -1c-4,-8 -6,-16 -6,-19 0,-4 3,-16 5,-23z"/>
  <path class="fil8" d="M253 95c-13,-8 -4,-23 -12,-25 3,9 -3,18 10,27l3 0 -1 -2z"/>
  <path class="fil8" d="M286 78c-7,1 -6,-11 -15,-11 6,3 6,15 15,14l0 -3z"/>
  <path class="fil8" d="M326 64c-13,4 -17,-30 -32,-37 16,0 21,37 31,35l1 2z"/>
  <path class="fil8" d="M361 49c-6,-28 -11,-37 -19,-36 7,4 12,17 16,37 2,3 5,5 8,7l1 -2 -6 -6z"/>
  <path class="fil8" d="M400 42c2,-20 -2,-31 -9,-31 11,10 1,31 11,35l2 -3 -4 -1z"/>
  <path class="fil8" d="M430 55c9,-14 13,-30 9,-41l-1 1c1,14 -4,27 -11,39l0 3 4 1 -1 -3z"/>
  <path class="fil8" d="M442 58c2,3 -4,18 -16,24 -11,5 -39,8 -34,13l-4 0c-5,-7 10,-8 25,-12 13,-4 27,-10 28,-26l1 1z"/>
  <path class="fil8" d="M402 100c1,14 -29,16 -61,14 -27,-2 -53,1 -59,8 -3,-1 -4,-2 -3,-4 14,-8 19,-8 35,-7 6,0 20,-2 27,-1 29,4 58,-1 59,-10l2 0z"/>
  <path class="fil8" d="M374 131c1,5 -7,13 -15,19 -6,5 -14,3 -26,2l-2 3c8,2 16,2 24,0 8,-1 23,-17 23,-24 -2,-2 -3,-1 -4,0z"/>
  <path class="fil8" d="M138 381l-1 1c11,-1 25,2 41,7 -21,-8 -34,-8 -40,-8z"/>
  <path class="fil8" d="M183 393c-18,-5 -25,-9 -32,-9 -4,-1 -14,0 -19,2 23,-3 25,0 50,8l1 -1z"/>
  <path class="fil8" d="M136 393c-4,-5 -7,-5 -10,-6l0 2 1 0 -3 12 4 -12c1,0 2,0 2,1l-8 22 10 -21c1,1 1,1 1,2l-14 29 16 -26 2 1c48,-6 117,50 198,96 20,20 31,16 35,11 4,-4 5,-13 -8,-19 9,7 9,13 6,16 -5,3 -9,5 -30,-11 -78,-47 -164,-106 -202,-97z"/>
  <path class="fil8" d="M135 391l0 -2c31,-3 52,8 114,43 29,17 66,41 110,67 11,1 9,-6 2,-14 13,10 6,20 -4,16 -35,-23 -74,-47 -110,-68 -45,-27 -86,-48 -112,-42z"/>
  <path class="fil8" d="M106 381l-8 11 8 -13c2,2 4,4 5,7l8 2 -2 3 -8 -1 -20 19 20 -24 -1 -2 -15 19 14 -20 -1 -1z"/>
  <polygon class="fil8" points="118,385 110,383 111,385 120,387 "/>
  <path class="fil8" d="M119 381c-3,1 -6,1 -11,-1 5,3 9,3 12,2l8 2 -1 -2 -8 -1z"/>
  <path class="fil8" d="M117 375l-1 4c3,-4 8,-6 12,-11 0,-1 -1,-3 -2,-5l-1 1 1 2c-1,4 -5,6 -9,9z"/>
  <path class="fil8" d="M116 374c4,-3 7,-6 8,-10l1 2c-2,3 -5,7 -9,10l0 -2z"/>
  <path class="fil8" d="M122 364c0,0 1,0 1,1l-7 8 6 -9z"/>
  <path class="fil8" d="M119 378c3,0 6,0 9,0l0 1c-3,0 -7,0 -10,0l1 -1z"/>
  <path class="fil8" d="M130 374c-3,1 -6,1 -8,2l8 0c0,-1 0,-1 0,-2z"/>
  <polygon class="fil8" points="129,373 124,374 128,372 "/>
  <path class="fil8" d="M87 362c5,4 6,9 1,13l-29 10 31 -15 0 -1 -25 12 24 -14c0,-1 0,-1 -1,-2l-12 8 11 -9 0 -2z"/>
  <path class="fil8" d="M95 378c-1,0 -3,-1 -4,-4l-2 1c1,2 2,4 5,5l1 -2z"/>
  <path class="fil8" d="M96 377c-2,-1 -4,-3 -4,-4l1 0c1,2 2,3 4,4l-1 0z"/>
  <polygon class="fil8" points="93,370 93,371 98,375 98,374 "/>
  <path class="fil8" d="M94 362c-1,0 -1,0 -2,-1 1,8 9,10 15,14 -5,-4 -12,-7 -13,-13z"/>
  <polygon class="fil8" points="103,368 97,365 103,369 "/>
  <path class="fil8" d="M83 340l1 -2c4,7 3,12 -3,14l-1 1 1 8 -1 0c0,-3 -1,-5 -1,-7l-25 -13 26 11 2 -2 -22 -7 23 6 1 -2 -14 -4 15 3c0,-2 0,-3 -2,-6z"/>
  <path class="fil8" d="M81 353c0,3 1,5 1,8l2 -1c-1,-3 -1,-5 -1,-8l-2 1z"/>
  <polygon class="fil8" points="85,358 84,358 84,352 85,352 "/>
  <path class="fil9" d="M98 336l15 2c-3,-7 -13,-5 -19,-2 4,15 8,12 12,14l1 -2c-6,2 -9,-3 -11,-9 3,3 4,6 7,9l0 -1c-4,-5 -6,-9 -5,-11z"/>
  <path class="fil8" d="M113 346l-1 1 -1 -1 1 -2 -4 -1 -6 -6 -7 -2 1 2 13 9 1 4c5,-1 7,-5 4,-12l-10 -1 9 3 1 2 -9 -3 2 2 6 2 0 2 -1 1 1 0z"/>
  <polygon class="fil8" points="107,348 99,340 110,348 108,350 107,349 "/>
  <polygon class="fil8" points="111,354 114,355 112,352 110,353 "/>
  <polygon class="fil8" points="118,353 113,350 113,352 118,355 "/>
  <polygon class="fil8" points="118,349 114,349 119,351 119,350 "/>
  <polygon class="fil8" points="119,347 116,346 119,349 "/>
  <polygon class="fil8" points="120,351 121,353 124,353 123,351 "/>
  <path class="fil8" d="M138 372l0 -1c2,0 5,1 8,3 -3,-1 -6,-2 -8,-2z"/>
  <path class="fil8" d="M138 368l-2 0c9,4 17,7 26,10l-24 -10z"/>
  <path class="fil8" d="M151 371l-2 0c4,2 5,2 10,3l-8 -3z"/>
  <path class="fil9" d="M153 367l-10 -13c-9,-1 -10,5 -9,12l3 -1 -1 -3 17 5z"/>
  <polygon class="fil8" points="143,354 141,355 153,366 140,357 139,358 153,367 136,362 136,363 149,366 137,365 135,367 161,372 "/>
  <path class="fil9" d="M128 346l1 2 -2 1c-3,-5 -4,-11 1,-13 4,-2 6,-3 13,-4l0 1 -13 13z"/>
  <path class="fil8" d="M130 347l5 -7 -6 7 -1 -1 9 -10 -10 8 -1 -1c5,-4 10,-7 16,-11l-4 17c-3,1 -7,1 -10,0l4 -1 5 -8 -7 8 0 -1z"/>
  <polygon class="fil8" points="143,351 139,348 141,348 145,351 "/>
  <polygon class="fil8" points="146,348 140,344 142,344 147,348 "/>
  <polygon class="fil8" points="145,344 151,348 144,341 141,340 "/>
  <path class="fil8" d="M153 339c-3,-3 -6,-5 -10,-7l3 -1c2,2 5,5 7,8z"/>
  <path class="fil8" d="M156 356c3,3 7,6 10,8l-9 -8 -1 0z"/>
  <polygon class="fil8" points="159,349 155,342 155,344 "/>
  <path class="fil8" d="M170 363l-1 0c-3,-3 -5,-6 -8,-11l1 0c2,4 5,7 8,11z"/>
  <path class="fil8" d="M160 342l-2 0 6 7c-2,-2 -3,-5 -4,-7z"/>
  <path class="fil8" d="M163 342c3,7 6,13 11,20l0 2 -1 0c-4,-8 -8,-15 -11,-22l1 0z"/>
  <path class="fil8" d="M139 326c3,1 6,3 9,6l-6 -6 -3 0z"/>
  <polygon class="fil8" points="145,325 145,326 152,330 151,329 "/>
  <polygon class="fil8" points="149,326 149,325 153,328 153,328 "/>
  <path class="fil8" d="M78 304l22 13c0,2 0,4 -1,6 -2,-2 -7,-6 -10,-8l6 7 0 1 -1 -1c-2,-2 -8,-9 -12,-14l16 12 0 -2 -20 -14z"/>
  <path class="fil8" d="M119 316c-2,2 -5,1 -9,-1 2,4 9,5 15,-2l-6 -22 3 24c-1,0 -1,1 -2,1l-2 -23 1 23z"/>
  <polygon class="fil8" points="127,317 123,316 124,318 128,317 "/>
  <polygon class="fil8" points="129,314 125,314 125,315 130,315 "/>
  <path class="fil8" d="M137 321l-1 1c3,4 7,3 12,0l7 -28 -10 28c-1,1 -1,1 -2,1l8 -23 -9 23c-1,0 -2,0 -2,0l7 -15 -9 14 -1 -1z"/>
  <path class="fil8" d="M159 338c-1,-1 -2,-2 -2,-4l-2 -1c0,5 3,9 10,8 11,27 15,27 32,39 -12,-9 -21,-17 -24,-26 -2,-6 -5,-9 -7,-13l20 -25 -21 24c-1,0 -2,0 -2,0l18 -20 -20 20c0,0 -1,-1 -1,-1l14 -14 -15 13z"/>
  <path class="fil8" d="M359 486c1,2 5,6 4,9 -1,1 -2,2 -6,1 8,4 10,-3 2,-10z"/>
  <path class="fil9" d="M352 492l-9 -6c4,1 7,3 9,6z"/>
  <path class="fil9" d="M353 490l-9 -6c4,1 8,3 9,6z"/>
  <path class="fil9" d="M204 392c27,20 47,30 72,46 16,10 32,21 48,31 11,7 22,14 33,21l1 -2c-11,-7 -22,-13 -33,-20 -18,-11 -38,-25 -56,-36 -25,-16 -46,-27 -64,-41 -5,-5 -10,-7 -14,-11 3,4 8,7 10,10l-16 -12 -2 -1 21 15z"/>
  <path class="fil9" d="M352 480c10,7 13,3 21,13 -8,-12 -16,-11 -31,-21 -23,-15 -70,-44 -108,-69 -11,-7 -22,-14 -31,-21 -13,-11 -23,-18 -27,-22 5,8 16,16 34,31 -9,-7 -18,-13 -26,-21 10,12 21,20 33,28 15,10 31,19 47,29 31,20 65,40 96,61l-8 -8z"/>
  <path class="fil9" d="M178 376l18 15c-6,-6 -11,-11 -18,-15z"/>
  <path class="fil9" d="M174 365l0 0c4,4 9,9 14,14l0 -2c-5,-4 -10,-8 -14,-12z"/>
  <path class="fil9" d="M172 365c2,3 6,6 10,10 -3,-2 -7,-4 -11,-10l1 0z"/>
  <path class="fil9" d="M168 368c2,2 4,4 6,5l-6 -6 0 1z"/>
  <path class="fil9" d="M119 361c1,0 3,1 4,2 -1,-6 -13,-3 -13,3 1,4 0,7 2,15l4 -3 0 -3 1 -3 -2 2 -1 4c-1,-10 0,-15 2,-17 0,3 -1,5 -2,8l1 0 4 -8z"/>
  <polygon class="fil9" points="120,362 119,362 115,373 116,372 "/>
  <polygon class="fil9" points="181,318 158,334 159,335 185,317 "/>
  <path class="fil9" d="M156 334l-1 0c1,-2 0,-4 -1,-6l1 -1 1 1 23 -9 -23 11 1 1 19 -10 -19 11 -1 2z"/>
  <polygon class="fil9" points="151,332 151,331 153,333 153,335 "/>
  <path class="fil9" d="M152 331l0 -2 2 3c1,1 0,1 0,1 -1,-1 -1,-2 -2,-2z"/>
  <polygon class="fil9" points="151,299 138,319 139,320 "/>
  <polygon class="fil9" points="155,293 136,316 136,319 137,319 138,316 "/>
  <polygon class="fil9" points="135,316 136,320 134,319 134,315 156,290 "/>
  <path class="fil9" d="M128 316c2,0 4,0 6,1l-2 -2 -4 1z"/>
  <path class="fil9" d="M108 313c-4,2 -6,3 -7,5l1 0c2,-1 5,-3 9,-3l4 -15 -2 15 1 -1 3 -22 -2 23 3 -16 0 -13 -10 27z"/>
  <path class="fil9" d="M108 318c-2,1 -3,1 -4,2l0 -2c2,-1 4,-2 6,-3l1 1 -3 2z"/>
  <path class="fil9" d="M138 328c-2,-1 -3,-2 -5,-2l-4 -1c3,0 6,1 9,3z"/>
  <path class="fil9" d="M134 324c2,-1 -13,-2 -18,-2 5,0 17,0 18,2z"/>
  <path class="fil9" d="M132 327c-1,0 -6,-1 -8,-1 3,0 5,-1 8,1z"/>
  <path class="fil9" d="M125 332c0,0 -5,0 -7,0 2,0 5,-1 7,0z"/>
  <path class="fil9" d="M132 330c0,0 -5,0 -7,0 2,0 5,-1 7,0z"/>
  <path class="fil9" d="M126 329c0,-1 -11,1 -13,1 2,-1 10,-3 13,-1z"/>
  <path class="fil9" d="M121 325c-2,-1 -14,4 -15,4 1,-1 11,-6 15,-4z"/>
  <path class="fil9" d="M127 325c-1,-1 -8,-1 -10,-2 3,0 7,0 10,2z"/>
  <path class="fil9" d="M121 327c-4,0 -5,1 -8,1 3,-1 4,-2 8,-1z"/>
  <path class="fil9" d="M109 331c-2,1 -2,1 -3,1 2,-1 2,-1 3,-1z"/>
  <path class="fil9" d="M132 321c-1,-1 -8,-1 -10,-1 3,0 8,-1 10,1z"/>
  <path class="fil9" d="M123 319c-1,-1 -3,-1 -5,-1 2,0 4,0 5,1z"/>
  <path class="fil9" d="M117 320c-3,0 -5,1 -7,1 2,-1 3,-2 7,-1z"/>
  <path class="fil9" d="M116 323c-2,0 -3,1 -5,1 2,0 3,-1 5,-1z"/>
  <path class="fil9" d="M114 321c-1,1 -8,4 -10,5 0,0 6,-4 10,-5z"/>
  <path class="fil9" d="M104 327c-1,0 -4,5 -7,6 0,0 4,-5 7,-6z"/>
  <polygon class="fil9" points="100,325 104,320 112,318 111,319 105,322 101,325 "/>
  <polygon class="fil9" points="100,326 100,327 98,330 97,328 "/>
  <path class="fil9" d="M87 327c-3,3 -4,6 -5,9l2 -1c0,-1 2,-3 4,-7l0 -2c3,1 6,1 7,0l-1 -1c-4,2 -4,0 -6,0l-10 -16 11 16 1 0 -5 -9 7 9 0 -1 -11 -14 10 10 1 0 -15 -17 -6 -4 16 28z"/>
  <polygon class="fil9" points="89,329 85,336 89,333 91,328 "/>
  <path class="fil9" d="M93 328l1 2c-2,2 -5,5 -7,8l1 -2c2,-3 3,-5 5,-8z"/>
  <path class="fil9" d="M85 340l0 0c1,1 1,2 1,3l2 -1c3,-5 6,-9 9,-12l-1 0c-3,2 -5,5 -7,8l1 -2 -2 1 -1 4 -1 1 -1 -2z"/>
  <polygon class="fil9" points="51,340 49,339 80,337 83,338 83,340 79,339 60,340 82,340 83,341 66,341 84,343 85,344 56,340 64,342 71,343 74,345 "/>
  <path class="fil9" d="M91 345c1,-2 1,-4 2,-6 -2,2 -3,4 -4,7l2 1 0 -2z"/>
  <path class="fil9" d="M99 351c0,6 0,8 1,9l-1 -9 0 0z"/>
  <path class="fil9" d="M92 353c0,-3 1,-7 2,-11l1 2c0,0 -1,2 -1,4 -1,0 -1,3 -2,5z"/>
  <path class="fil9" d="M96 355c-1,-3 -1,-6 0,-9l1 3c0,2 0,4 -1,6z"/>
  <path class="fil9" d="M95 355l-1 -2c0,3 1,6 1,7l0 -5z"/>
  <path class="fil9" d="M91 352l1 1c0,3 0,5 1,8 -1,-2 -2,-5 -2,-9z"/>
  <path class="fil9" d="M89 349l2 0c0,2 -1,5 -1,8 0,-1 0,-4 -1,-8z"/>
  <path class="fil9" d="M89 348c1,-3 2,-7 2,-8 -1,2 -2,5 -2,8z"/>
  <polygon class="fil9" points="90,360 90,357 89,359 "/>
  <path class="fil9" d="M88 345l1 -2c-2,1 -3,4 -3,7l1 -1c0,-1 1,-2 1,-4z"/>
  <path class="fil9" d="M88 355l-1 2c0,-2 -1,-4 -1,-6l2 -1c-1,2 0,4 0,5z"/>
  <path class="fil9" d="M56 386l23 -25c3,-1 6,0 8,3l-25 19 23 -20 -16 13 13 -13 -26 23z"/>
  <path class="fil9" d="M95 381c2,-2 5,-2 8,-1l2 -2c-5,-2 -10,0 -12,3l-6 30 3 -4 12 -26 -1 -1 -8 19 7 -20 -1 1 -9 23 7 -23 -1 1 -3 7 2 -7z"/>
  <path class="fil9" d="M116 392c1,-3 4,-5 9,-4l0 3c-2,-1 -4,-1 -6,1l0 21 1 -22 1 0 -2 25 3 -25 1 -1 -1 14 2 -13 2 0 -7 34 -1 2 -2 -35z"/>
  <path class="fil8" d="M168 480c-12,6 -21,19 -31,18 -3,0 -5,-1 -6,-4l-2 0c2,5 6,6 10,6 8,-1 18,-12 31,-20 23,-14 44,-26 66,-37l0 2 -62 35c-9,5 -26,21 -35,22 -7,0 -10,-6 -11,-8l-2 2c4,6 8,9 14,9 10,-1 25,-17 39,-24l69 -38 -24 -15 -5 3c7,2 12,4 15,7 -9,6 -21,13 -32,19l33 -17c0,0 1,1 1,1 -19,10 -58,32 -68,39z"/>
  <path class="fil9" d="M135 494c5,-12 6,-4 25,-19l2 0c-4,4 -9,7 -14,9 -2,2 -8,3 -11,10l-2 0z"/>
  <path class="fil9" d="M227 434c1,0 1,0 2,0 -22,14 -47,27 -74,44 -7,4 -21,7 -22,14l-2 2c-1,-10 14,-13 22,-17 22,-14 50,-28 74,-43z"/>
  <path class="fil9" d="M219 432c2,0 3,0 5,1l-67 39c-10,7 -25,8 -27,18l-1 2c-1,-4 0,-7 4,-10 -4,3 -6,7 -5,12 0,1 -1,1 -2,1 -3,-13 6,-15 26,-25l67 -38z"/>
  <path class="fil9" d="M337 344c-3,8 -10,18 -20,27 -12,10 -43,29 -65,41l4 3c24,-17 51,-30 69,-46 7,-8 11,-15 17,-22 2,-3 5,-5 7,-7l-2 0c-2,2 -6,3 -8,1l-5 -11 7 12 1 0 -6 -10 7 9 1 0 -11 -16 12 15 2 0 -23 -27 13 31z"/>
  <path class="fil9" d="M258 415l1 0c22,-11 49,-27 62,-38 15,-13 23,-28 28,-35l-7 4c-3,8 -8,15 -16,24 -10,11 -38,28 -68,45z"/>
  <polygon class="fil9" points="339,328 348,338 345,334 339,328 "/>
  <path class="fil9" d="M348 346c-12,16 -3,15 -38,41l6 -3c9,-6 16,-13 22,-20 6,-6 5,-9 12,-19l0 -1 -2 2z"/>
  <polygon class="fil9" points="327,378 319,384 337,368 338,368 "/>
  <path class="fil8" d="M329 318l-1 -3 22 15c1,1 2,2 2,4l-1 0c1,-2 -14,-10 -22,-16z"/>
  <polygon class="fil8" points="340,328 340,327 350,334 347,333 346,333 "/>
  <path class="fil9" d="M360 342c-8,8 -15,16 -21,25 7,-8 14,-16 23,-24l0 -1 -2 0z"/>
  <path class="fil9" d="M362 348c-7,5 -14,12 -21,19l20 -20c0,-1 2,-1 1,1z"/>
  <polygon class="fil9" points="366,350 365,349 361,352 361,353 363,352 "/>
  <path class="fil9" d="M355 340c-3,6 -6,12 -10,17 3,-6 7,-12 10,-17z"/>
  <path class="fil9" d="M358 342c-2,1 -5,4 -7,6 4,-6 8,-9 8,-9l-1 3z"/>
  <path class="fil8" d="M352 335l-1 -1c0,2 -1,4 -2,6 1,-1 2,-2 3,-5z"/>
  <polygon class="fil9" points="361,337 358,337 360,338 362,337 "/>
  <polygon class="fil9" points="351,343 350,343 352,339 352,341 "/>
  <path class="fil9" d="M361 357c-2,2 -9,6 -12,11 1,-4 4,-8 6,-11 2,-5 9,-4 12,4l-2 0c0,-2 -1,-3 -4,-4z"/>
  <path class="fil9" d="M364 359c0,0 -1,0 -3,-1l-6 5 9 -4z"/>
  <path class="fil8" d="M356 364l11 -3c1,1 1,1 1,2 -3,-1 -8,2 -13,2l1 -1z"/>
  <path class="fil8" d="M362 365c3,-1 4,-2 6,-1 -1,2 -2,4 -5,6 -5,0 -12,1 -13,-1 2,-3 7,-3 11,-4l0 1 -7 2c4,0 8,-1 11,-2l0 -1 -3 1 0 -1z"/>
  <path class="fil8" d="M359 372c4,0 8,1 12,1 -5,-1 -9,-1 -12,-2l0 1z"/>
  <polygon class="fil8" points="371,363 369,363 373,361 373,362 "/>
  <polygon class="fil8" points="373,364 372,364 368,366 369,366 "/>
  <path class="fil8" d="M373 367l-2 -1 -5 2 1 1c2,-2 4,-2 6,-2z"/>
  <polygon class="fil8" points="370,370 370,370 363,370 364,371 "/>
  <polygon class="fil8" points="351,331 352,330 354,328 354,329 "/>
  <polygon class="fil8" points="353,333 353,332 354,330 355,330 "/>
  <polygon class="fil9" points="353,336 352,336 354,332 354,334 "/>
  <path class="fil9" d="M361 334c-2,0 -4,2 -5,4 2,-2 4,-3 6,-4l-1 0z"/>
  <path class="fil9" d="M353 338l-1 1c2,-3 4,-6 8,-8l0 1c-3,2 -5,4 -7,6z"/>
  <path class="fil9" d="M367 336l1 -2 5 14c-4,2 -8,0 -11,-4 0,-5 2,-10 2,-15 0,0 2,0 2,2l3 15 -1 0 -2 -11 1 10 -1 -1 -1 -7 0 7c2,3 4,2 6,2l-4 -10z"/>
  <polygon class="fil9" points="370,340 371,339 374,345 374,347 "/>
  <path class="fil8" d="M374 344l1 2c2,0 3,-3 3,-9l-11 -8 -1 0 10 8 0 1 -7 -5 -3 0c4,2 7,4 10,7l0 1 -5 -4 0 1 5 4 -2 2z"/>
  <polygon class="fil9" points="367,352 366,352 364,353 366,353 "/>
  <polygon class="fil9" points="359,330 356,332 362,326 364,326 "/>
  <polygon class="fil9" points="359,325 361,325 359,327 356,329 "/>
  <path class="fil9" d="M358 323l-4 3 2 2 3 -4c3,2 7,2 11,1l-3 -1 0 -1c-2,2 -6,1 -6,0l-2 -11 4 11 1 1 -5 -16 6 16 1 -2 -8 -22 -3 -5 3 28z"/>
  <path class="fil8" d="M356 298l0 -2 18 19 4 -1 1 2c-2,1 -4,1 -7,1l-16 -19z"/>
  <path class="fil8" d="M373 319c-5,-6 -9,-11 -13,-15l2 5c4,3 7,7 9,13l-1 3 2 -2 1 -3 4 -2 -3 0 -1 1z"/>
  <polygon class="fil8" points="364,313 363,313 368,323 368,324 369,322 370,322 368,321 "/>
  <polygon class="fil9" points="364,329 361,330 364,328 "/>
  <path class="fil9" d="M368 328l0 1c2,-1 5,-2 8,-3l-1 -1c-2,1 -5,2 -7,3z"/>
  <polygon class="fil9" points="371,326 370,325 372,324 374,324 "/>
  <polygon class="fil9" points="374,321 374,323 377,322 376,321 "/>
  <polygon class="fil9" points="375,327 375,328 378,328 "/>
  <polygon class="fil9" points="383,317 379,317 379,318 385,318 "/>
  <polygon class="fil9" points="375,325 375,324 384,323 380,325 "/>
  <polygon class="fil9" points="374,330 374,329 380,329 376,330 "/>
  <path class="fil9" d="M389 328l-6 -2c-2,-1 4,0 6,2z"/>
  <path class="fil9" d="M387 330l-9 -3c1,-1 7,1 9,3z"/>
  <path class="fil9" d="M386 333l-4 -2c-3,-2 5,1 4,2z"/>
  <path class="fil9" d="M392 327c-2,-2 -4,-3 -6,-3 -2,-1 4,-1 6,3z"/>
  <path class="fil9" d="M391 332l-2 -2c-2,-1 1,0 2,2z"/>
  <path class="fil9" d="M389 322l-2 0c-2,-1 1,-1 2,0z"/>
  <path class="fil9" d="M384 318c0,1 -2,2 -6,2l0 1c5,0 7,0 7,-1l-1 -2z"/>
  <polygon class="fil8" points="381,339 379,339 382,337 383,338 "/>
  <polygon class="fil8" points="379,345 378,344 381,343 382,344 "/>
  <polygon class="fil8" points="379,341 379,340 382,340 383,341 "/>
  <path class="fil9" d="M379 332l-3 0c-2,-1 2,-2 3,0z"/>
  <path class="fil9" d="M398 328c-1,-2 -3,-4 -7,-5 -1,0 7,4 7,5z"/>
  <path class="fil9" d="M389 318l1 0 3 -31 -11 26c0,3 2,5 6,7l-1 -3c1,-1 -2,0 -3,-3l5 -12 -4 14 3 1 3 -22 -2 23z"/>
  <path class="fil8" d="M388 320l0 -2c2,1 3,1 4,1l0 -22 1 -1 2 24c-2,1 -5,1 -7,0z"/>
  <polygon class="fil8" points="398,315 393,290 393,293 396,320 400,315 399,314 "/>
  <path class="fil9" d="M403 332l-3 -3c-1,-2 2,0 3,3z"/>
  <path class="fil9" d="M401 326l-5 -4c-2,-2 3,1 5,4z"/>
  <polygon class="fil9" points="405,327 400,321 400,322 398,321 "/>
  <polygon class="fil8" points="402,319 404,318 399,317 399,318 "/>
  <polygon class="fil8" points="402,320 402,320 398,320 398,319 "/>
  <path class="fil9" d="M412 326l-2 -1 14 -15c-5,5 -11,10 -16,16l0 -3 14 -12c-5,4 -10,7 -15,10 -1,1 1,3 1,5l-2 0c-2,-2 -2,-5 -1,-8l28 -16c-7,8 -13,14 -21,24z"/>
  <path class="fil8" d="M408 327l-3 -1c3,5 6,7 13,4l13 -24 -1 0 -15 23c-1,0 0,1 -1,0l13 -20 -1 1 -14 19c0,1 -1,0 -1,0l11 -15 0 0 -12 14 -1 -1 1 -2 -2 2z"/>
  <path class="fil9" d="M387 343l-2 1c1,-4 0,-7 5,-10l15 -1c0,1 0,2 0,3 -3,0 -6,5 -7,2l-10 5 1 -2 7 -4 -8 3 -1 -1 9 -4 -7 2c-2,1 -3,2 -2,6z"/>
  <path class="fil8" d="M404 337l1 -1 -8 12c-5,3 -9,2 -11,-4l1 -1 1 2 10 -7 -1 1 -7 7c0,1 1,2 1,1l8 -8 3 -1 -9 9c0,1 3,0 3,0l8 -10z"/>
  <polygon class="fil8" points="392,354 394,354 396,350 395,350 "/>
  <path class="fil8" d="M398 349l1 -1c0,2 -1,4 -2,6l-2 0c2,-1 3,-3 3,-5z"/>
  <path class="fil8" d="M402 346l1 0c0,2 -3,8 -4,10l-2 -1c2,-1 4,-6 5,-9z"/>
  <path class="fil8" d="M404 348l1 0c0,1 -2,7 -4,9l-1 0c2,-2 4,-7 4,-9z"/>
  <path class="fil8" d="M409 353l2 -10c0,4 0,7 -2,10z"/>
  <path class="fil8" d="M414 349l1 -9c0,-4 1,6 -1,9z"/>
  <path class="fil8" d="M413 354l0 -6c0,4 1,3 0,6z"/>
  <path class="fil8" d="M415 358l1 -6c2,2 0,3 -1,6z"/>
  <path class="fil8" d="M415 336l-2 -5c1,1 2,3 2,5z"/>
  <path class="fil8" d="M412 336l-1 -4c1,1 1,2 1,4z"/>
  <path class="fil8" d="M410 338l-2 -3c2,1 2,0 2,3z"/>
  <polygon class="fil8" points="417,331 418,331 421,337 420,337 "/>
  <polygon class="fil8" points="416,332 416,331 420,338 418,338 "/>
  <path class="fil9" d="M418 345l-1 -1c0,-3 0,-5 6,-8l32 7 -26 2 18 -3 -26 2 0 -1 16 -1 -19 0 1 -1 20 0c-6,-1 -12,-2 -19,-2 -1,2 -2,4 -2,6z"/>
  <path class="fil8" d="M419 344l-2 1c0,3 -1,6 4,8l-1 1 0 6 1 -1 0 0 1 -1 1 -4 25 -10 -3 -1 -21 7c-2,0 -5,0 -5,0l17 -5 -5 0 -12 3c-1,-1 -1,-2 -1,-3l8 0 -7 -1z"/>
  <polygon class="fil8" points="419,353 418,352 417,358 418,356 "/>
  <path class="fil9" d="M442 380l-25 -16c1,-2 3,-3 6,-3l22 22 -23 -20 -1 0 22 18 -23 -18 -1 1 23 16z"/>
  <polygon class="fil9" points="418,368 417,366 442,381 442,381 "/>
  <path class="fil8" d="M414 370c-1,0 -1,1 0,2l22 7 3 2 -26 -7c-3,-5 -2,-9 3,-11l2 0c-4,2 -6,4 -5,5l18 7 3 2 -20 -7z"/>
  <polygon class="fil8" points="415,367 415,366 420,369 419,369 "/>
  <path class="fil8" d="M406 384c-1,-4 -1,-7 5,-11l2 2c-1,2 -3,3 -4,4l9 27 -4 -4 -8 -18z"/>
  <path class="fil9" d="M401 382c-3,-1 -6,-3 -7,8l27 22 -3 -6 -5 -5c-7,-5 -10,-10 -15,-16l-1 -1 8 12 -9 -9c0,-3 0,-5 5,-5z"/>
  <polygon class="fil9" points="401,384 398,383 409,397 413,400 408,392 "/>
  <polygon class="fil8" points="403,380 402,380 410,395 410,394 "/>
  <path class="fil8" d="M397 380c3,-1 5,-1 8,-1l0 -1c-3,0 -6,1 -8,2z"/>
  <path class="fil8" d="M401 377c4,-3 7,-6 9,-8l1 3c-4,3 -7,4 -10,5z"/>
  <path class="fil8" d="M407 363l0 -2c-3,6 -7,10 -12,13l-1 1c5,-1 9,-5 13,-12z"/>
  <path class="fil8" d="M401 367l0 -2c-2,3 -4,4 -6,5l0 2c2,-1 4,-3 6,-5z"/>
  <path class="fil8" d="M390 361c2,4 2,6 2,11l1 9 2 -13c0,-3 -2,-6 -4,-8l-1 1z"/>
  <path class="fil8" d="M386 361l-1 -1 4 0c1,6 2,11 2,17l-1 -2c0,-5 -1,-9 -2,-14l-2 0z"/>
  <path class="fil8" d="M385 363c-2,-1 -4,1 -6,0 2,-1 4,-2 6,-3 2,5 3,9 4,14l-1 -1 -3 -10z"/>
  <path class="fil9" d="M383 365l0 -2 10 18c1,1 0,1 -2,1 -6,-4 -11,-7 -13,-10 0,-2 0,-4 0,-5l1 0 0 0 1 1c0,2 2,5 5,7 -4,-6 -6,-8 -4,-8 1,3 3,5 5,7l-4 -7 0 -1 10 14 -9 -15z"/>
  <path class="fil8" d="M393 384l0 -1c-2,2 -9,4 -12,4l0 1c2,0 8,-2 12,-4z"/>
  <path class="fil8" d="M394 385l-1 -1c-2,2 -6,4 -9,4l-1 2c3,-1 6,-2 11,-5z"/>
  <path class="fil8" d="M393 388l0 -1c-2,2 -5,2 -8,3l0 1c2,-1 3,-1 8,-3z"/>
  <path class="fil8" d="M393 389l0 -1c-2,1 -1,2 -4,2l-1 1c1,0 4,-1 5,-2z"/>
  <path class="fil8" d="M381 391c-2,-1 -4,-1 -6,-1 4,-3 9,-1 12,3l-3 29 -2 -6 2 -23 -2 -1 0 16 -2 -7 1 -10z"/>
  <polygon class="fil9" points="376,392 377,393 384,424 368,395 370,392 375,403 371,392 372,392 378,410 373,390 374,391 382,418 "/>
  <path class="fil8" d="M368 384c-4,-2 -20,0 -25,3 -4,2 -23,6 -41,14 14,-7 28,-11 40,-15 6,-2 19,-6 26,-2z"/>
  <path class="fil8" d="M371 385l0 2c-28,0 -66,15 -103,37l-2 -1c14,-8 27,-15 41,-22 5,-2 19,-7 28,-10 11,-4 24,-7 36,-6z"/>
  <path class="fil8 str2" d="M375 388c-23,1 -50,8 -72,20 -11,5 -23,11 -34,17l5 3c35,-19 68,-35 94,-34l7 -6z"/>
 </g>
</svg>
