<?xml version="1.0" encoding="UTF-8"?>
<!DOCTYPE svg PUBLIC "-//W3C//DTD SVG 1.1//EN" "http://www.w3.org/Graphics/SVG/1.1/DTD/svg11.dtd">
<!-- Creator: CorelDRAW -->
<svg xmlns="http://www.w3.org/2000/svg" xml:space="preserve" width="500px" height="561px" shape-rendering="geometricPrecision" text-rendering="geometricPrecision" image-rendering="optimizeQuality" fill-rule="evenodd" clip-rule="evenodd"
viewBox="0 0 500 561"
 xmlns:xlink="http://www.w3.org/1999/xlink"
 xmlns:svg="http://www.w3.org/2000/svg"
 version="1.0">
 <defs>
   <linearGradient id="id0" gradientUnits="userSpaceOnUse" x1="208.552" y1="184.791" x2="196.641" y2="184.791">
    <stop offset="0" stop-color="#666666"/>
    <stop offset="1" stop-color="white"/>
   </linearGradient>
   <linearGradient id="id1" gradientUnits="userSpaceOnUse" x1="419.701" y1="481.873" x2="418.218" y2="461.116">
    <stop offset="0" stop-color="#191919"/>
    <stop offset="1" stop-color="#999999"/>
   </linearGradient>
   <linearGradient id="id2" gradientUnits="userSpaceOnUse" x1="287.75" y1="368.417" x2="316.978" y2="368.417">
    <stop offset="0" stop-color="#333333"/>
    <stop offset="1" stop-color="#999999"/>
   </linearGradient>
   <linearGradient id="id3" gradientUnits="userSpaceOnUse" x1="300.44" y1="497.241" x2="299.611" y2="485.625">
    <stop offset="0" stop-color="#191919"/>
    <stop offset="1" stop-color="#999999"/>
   </linearGradient>
   <linearGradient id="id4" gradientUnits="userSpaceOnUse" x1="241.195" y1="379.657" x2="212.847" y2="411.407">
    <stop offset="0" stop-color="#4C4C4C"/>
    <stop offset="1" stop-color="#CCCCCC"/>
   </linearGradient>
   <linearGradient id="id5" gradientUnits="userSpaceOnUse" x1="252.331" y1="392.757" x2="276.562" y2="367.628">
    <stop offset="0" stop-color="#333333"/>
    <stop offset="1" stop-color="#CCCCCC"/>
   </linearGradient>
   <linearGradient id="id6" gradientUnits="userSpaceOnUse" x1="255.519" y1="428.268" x2="275.754" y2="435.495">
    <stop offset="0" stop-color="#4C4C4C"/>
    <stop offset="1" stop-color="#CCCCCC"/>
   </linearGradient>
   <linearGradient id="id7" gradientUnits="userSpaceOnUse" x1="87.2544" y1="469.47" x2="84.4543" y2="449.87">
    <stop offset="0" stop-color="black"/>
    <stop offset="1" stop-color="white"/>
   </linearGradient>
 </defs>
 <g id="Layer_x0020_1">
  <metadata id="CorelCorpID_0Corel-Layer"/>
  <path id="path1937" fill="#F00000" stroke="black" stroke-width="0.992126" d="M0.723969 1.07773l499.249 0 -15.7261 371.645c-15.2385,160.006 -100.28,151.633 -222.452,187.85 -68.7992,-19.6971 -216.744,-17.678 -235.159,-189.121l-25.9112 -370.374z"/>
  <path fill="#999999" stroke="black" stroke-width="0.992126" d="M244.544 147.133c30.7103,4.65931 125.111,30.331 149.728,35.4603 -14.0142,5.42325 -55.6977,-10.1755 -59.715,-0.648284 -0.926363,2.19855 -6.44627,15.0347 -2.23852,19.2742 12.5289,2.71162 29.9517,3.56429 52.0118,-2.6195 -9.16186,7.88826 -18.1568,13.7188 -34.9467,15.8848 -19.6262,1.48139 -31.7696,-10.59 -47.6544,-15.8848 5.08309,-13.9785 -9.53093,-27.9573 -57.1853,-51.4667z"/>
  <path fill="#4F2900" d="M11.1898 106.546l21.5045 35.5686c2.65833,-15.1846 -2.92649,-52.3075 -6.91711,-88.274 9.65282,24.4046 20.113,48.8098 36.4235,73.2158 2.3281,-17.6275 8.31714,-24.9713 7.52259,-36.0856 -0.38211,-5.34756 -5.63244,-9.23783 -6.35585,-14.5301 -0.888378,-6.49701 0.914741,-7.90271 1.07461,-14.0556 0.305575,-11.7476 -8.8886,-19.7209 0.170079,-28.336 -3.11783,13.1766 4.48271,16.2357 6.75525,24.2839 1.55452,5.5063 2.27764,11.9968 4.15049,16.9605 2.09565,5.55421 6.61975,10.7345 8.59607,15.4522 4.32879,10.3306 4.62756,17.4767 13.6205,21.8582 7.67793,-4.17288 1.8978,-50.5539 2.84684,-75.8305 15.2093,32.2668 22.1604,61.17 30.0294,69.2742 17.1865,-35.2525 7.8429,-30.6417 6.55994,-45.4536 -0.424347,-4.90025 2.23965,-11.4545 2.35729,-16.5356 0.195591,-8.46851 -6.98627,-14.0397 -1.35411,-24.9795 0.990142,4.97424 3.34658,9.84048 4.82797,15.6399 1.152,4.51077 1.59902,11.4812 3.26948,15.6387 2.61241,6.50381 8.18221,10.0692 10.2694,16.9495 3.51553,11.5895 0.364536,25.1558 11.4678,31.9323 5.0349,-1.51399 5.78778,-55.6356 8.68167,-83.4531 8.39481,24.6711 18.3186,65.2471 25.1844,74.0132 1.72318,-3.41603 9.00737,-12.2769 10.0922,-22.013 0.471685,-4.23751 -3.09175,-9.18737 -2.9931,-14.0066 0.197008,-9.59471 4.22873,-10.6469 5.66646,-18.7557 1.27729,-7.20454 -3.97559,-15.9829 3.49455,-22.7183 -2.96532,8.56914 2.2921,12.9529 4.28542,25.9968 0.631276,4.13292 -0.837355,8.82539 -0.117071,13.2117 0.795402,4.83988 3.93761,8.99944 5.07714,13.4036 2.91232,11.2567 2.75329,18.5984 8.18079,22.3022 9.19815,-0.599528 15.3377,-54.4181 22.7004,-80.0978 4.82145,25.5246 8.11333,62.3665 14.4641,76.5746 6.20986,0.771307 3.04129,-3.78794 6.51062,-8.0521 2.5835,-3.17566 6.06785,-5.82605 8.60599,-12.7259 1.91906,-5.21688 0.352347,-14.2322 2.0948,-20.7074 1.45559,-5.40766 3.32504,-6.21751 4.70835,-10.8901 1.77874,-6.00888 -0.925229,-11.0234 8.25251,-19.4213 -3.19408,6.06785 -2.14044,12.3517 -2.86498,17.894 -0.639496,4.88948 -1.30621,7.47355 -1.53439,12.6136 -0.24548,5.53436 2.03556,10.6316 2.93896,15.9387 1.71354,10.0636 0.181417,17.9612 5.72627,31.6225 10.1333,-4.59411 22.4076,-52.9263 32.8468,-76.1783 -3.01266,33.4349 1.31471,68.0933 2.89021,79.2003 19.6311,-16.725 14.7764,-22.1074 19.9585,-33.7108 2.11068,-4.72564 5.94369,-6.44485 7.44747,-11.3567 2.68016,-8.75622 0.843024,-19.7246 11.4945,-25.026 -4.3767,9.00596 -1.2121,20.6745 -2.48117,29.6742 -0.787181,5.58199 -2.12797,6.42133 -2.51717,12.0526 -0.338457,4.90281 1.75295,10.5483 1.38756,14.8618 -1.06724,12.5938 -3.09147,20.5416 -0.884693,24.836 12.623,-3.88658 26.4697,-46.9239 39.7043,-70.3857l-3.61644 74.6878c5.69282,-9.88952 14.9601,-14.0885 19.7167,-21.3894 3.27005,-5.01903 0.595276,-11.8962 3.23972,-16.9336 2.72721,-5.19449 7.79641,-8.82822 11.4832,-13.633 4.17855,-5.44536 -0.933449,-12.661 13.3625,-18.0896 -7.36696,4.8515 -4.39058,8.5235 -6.01767,16.1413 -1.31216,6.1441 -6.26939,8.13005 -6.97295,15.2748 -0.475937,4.83733 1.62199,9.16753 2.35644,15.285 1.07376,8.94189 -6.06076,15.0764 -1.5171,27.0397 12.2511,3.49909 27.561,-35.21 41.3419,-52.8149 -3.24482,22.5553 -12.9124,56.4276 -9.73418,67.6667l14.6047 -15.6753 -3.03052 72.6441c-140.21,-74.5532 -319.651,-82.7411 -476.381,0.601512l-4.65534 -78.1957z"/>
  <path fill="white" d="M8.81292 105.196l19.1282 31.9689c2.65833,-15.1846 -2.92649,-52.3075 -6.91711,-88.274 9.65282,24.4046 20.113,48.8098 36.4235,73.2158 2.3281,-17.6275 8.31714,-24.9713 7.52259,-36.0856 -0.38211,-5.34756 -5.63244,-9.23783 -6.35585,-14.5301 -0.888378,-6.49701 0.914741,-7.90271 1.07461,-14.0556 0.305575,-11.7476 -8.8886,-19.7209 0.170079,-28.336 -3.11783,13.1766 4.48271,16.2357 6.75525,24.2839 1.55452,5.5063 2.27764,11.9968 4.15049,16.9605 2.09565,5.55421 6.61975,10.7345 8.59607,15.4522 4.32879,10.3306 4.62756,17.4767 13.6205,21.8582 7.67793,-4.17288 1.8978,-50.5539 2.84684,-75.8305 15.2093,32.2668 22.1604,61.17 30.0294,69.2742 17.1865,-35.2525 7.8429,-30.6417 6.55994,-45.4536 -0.424347,-4.90025 2.23965,-11.4545 2.35729,-16.5356 0.195591,-8.46851 -6.98627,-14.0397 -1.35411,-24.9795 0.990142,4.97424 3.34658,9.84048 4.82797,15.6399 1.152,4.51077 1.59902,11.4812 3.26948,15.6387 2.61241,6.50381 8.18221,10.0692 10.2694,16.9495 3.51553,11.5895 0.364536,25.1558 11.4678,31.9323 5.0349,-1.51399 5.78778,-55.6356 8.68167,-83.4531 8.39481,24.6711 18.3186,65.2471 25.1844,74.0132 1.72318,-3.41603 9.00737,-12.2769 10.0922,-22.013 0.471685,-4.23751 -3.09175,-9.18737 -2.9931,-14.0066 0.197008,-9.59471 4.22873,-10.6469 5.66646,-18.7557 1.27729,-7.20454 -3.97559,-15.9829 3.49455,-22.7183 -2.96532,8.56914 2.2921,12.9529 4.28542,25.9968 0.631276,4.13292 -0.837355,8.82539 -0.117071,13.2117 0.795402,4.83988 3.93761,8.99944 5.07714,13.4036 2.91232,11.2567 2.75329,18.5984 8.18079,22.3022 9.19815,-0.599528 15.3377,-54.4181 22.7004,-80.0978 4.82145,25.5246 8.11333,62.3665 14.4641,76.5746 6.20986,0.771307 3.04129,-3.78794 6.51062,-8.0521 2.5835,-3.17566 6.06785,-5.82605 8.60599,-12.7259 1.91906,-5.21688 0.352347,-14.2322 2.0948,-20.7074 1.45559,-5.40766 3.32504,-6.21751 4.70835,-10.8901 1.77874,-6.00888 -0.925229,-11.0234 8.25251,-19.4213 -3.19408,6.06785 -2.14044,12.3517 -2.86498,17.894 -0.639496,4.88948 -1.30621,7.47355 -1.53439,12.6136 -0.24548,5.53436 2.03556,10.6316 2.93896,15.9387 1.71354,10.0636 0.181417,17.9612 5.72627,31.6225 10.1333,-4.59411 22.4076,-52.9263 32.8468,-76.1783 -3.01266,33.4349 1.31471,68.0933 2.89021,79.2003 19.6311,-16.725 14.7764,-22.1074 19.9585,-33.7108 2.11068,-4.72564 5.94369,-6.44485 7.44747,-11.3567 2.68016,-8.75622 0.843024,-19.7246 11.4945,-25.026 -4.3767,9.00596 -1.2121,20.6745 -2.48117,29.6742 -0.787181,5.58199 -2.12797,6.42133 -2.51717,12.0526 -0.338457,4.90281 1.75295,10.5483 1.38756,14.8618 -1.06724,12.5938 -3.09147,20.5416 -0.884693,24.836 12.623,-3.88658 26.4697,-46.9239 39.7043,-70.3857l-3.61644 74.6878c5.69282,-9.88952 14.9601,-14.0885 19.7167,-21.3894 3.27005,-5.01903 0.595276,-11.8962 3.23972,-16.9336 2.72721,-5.19449 7.79641,-8.82822 11.4832,-13.633 4.17855,-5.44536 -0.933449,-12.661 13.3625,-18.0896 -7.36696,4.8515 -4.39058,8.5235 -6.01767,16.1413 -1.31216,6.1441 -6.26939,8.13005 -6.97295,15.2748 -0.475937,4.83733 1.62199,9.16753 2.35644,15.285 1.07376,8.94189 -6.06076,15.0764 -1.5171,27.0397 12.2511,3.49909 27.561,-35.21 41.3419,-52.8149 -3.24482,22.5553 -12.9124,56.4276 -9.73418,67.6667l17.2491 -15.5424 -3.17707 70.5286c-140.21,-74.5529 -319.994,-81.7583 -476.724,1.584l-4.43367 -73.5959z"/>
  <path fill="url(#id0)" stroke="black" stroke-width="0.992126" d="M203.243 161.111c1.75408,15.9792 1.04202,29.4012 7.18895,47.0665l-15.6719 0.294236c5.26989,-20.7802 6.15317,-28.5106 8.48296,-47.3607z"/>
  <path fill="#999999" stroke="black" stroke-width="0.992126" d="M377.341 360.625c4.02407,25.8389 15.0375,22.4504 30.4988,23.5094 -3.85512,67.8289 34.2938,76.0145 8.26441,74.8585 -1.06044,3.85172 6.13928,12.7862 8.25591,18.5443 -7.38539,7.31254 -9.68741,12.7185 -25.9682,18.125 -1.71978,-30.1561 1.00148,-52.9492 -11.52,-88.0181l-35.894 -16.4531 26.3631 -30.566z"/>
  <path fill="#B2B2B2" stroke="black" stroke-width="0.992126" d="M102.851 197.646c16.7338,-1.43858 25.5249,23.1747 54.9666,14.7473 11.5277,-12.6788 -37.6248,-21.545 -35.9456,-49.7909 7.85566,6.93525 12.217,18.0006 24.2031,22.394l-0.653103 -24.4284c6.97635,13.2951 4.45692,24.9276 17.6241,32.1395 -0.76337,-16.0773 -0.76252,-29.4225 1.50491,-42.2275 3.67881,40.7798 8.94586,50.743 36.7696,55.9406 20.1353,-2.53361 14.2194,-20.634 17.5167,-43.818 5.28095,25.7134 1.66621,50.156 49.8368,53.3132 8.36986,1.63531 39.2959,-13.885 40.9947,-36.394 -5.7104,-12.4007 -37.2351,-36.1004 -45.4247,-43.2766 39.0416,18.1579 67.2815,41.0814 130.468,36.3651 -4.47081,21.0852 -52.1482,-2.62488 -63.9258,23.5437 -1.00205,22.3121 23.0939,22.0683 53.2262,28.8136 2.24476,10.489 -73.3462,-9.52101 -77.1373,0.967749 1.31017,17.2264 39.1555,31.5933 36.0187,38.0177 -22.3767,5.02101 -39.3526,-32.529 -57.9164,-24.3309 1.8309,14.1035 13.7594,19.1067 23.2838,30.2377 -15.2561,-1.89439 -36.4383,-29.3287 -59.931,-30.0138 -12.96,-0.377858 -33.3655,-6.70309 -41.739,-10.5061 -14.514,12.8415 -27.7574,4.07991 -25.1158,16.6037 3.37521,6.55909 9.60945,28.6855 37.7652,35.8804 102.955,10.1911 142.371,-1.85613 151.607,5.79374 5.93178,9.55673 18.2174,14.6656 16.8426,29.6229 -6.20306,-6.61295 -9.54681,-4.96573 -14.1613,-7.44804 4.96885,-1.01424 3.58441,34.8242 3.47074,50.6478 -4.38378,7.596 -10.0381,14.5562 -15.692,21.5167 -0.105732,3.3018 -0.211181,6.60359 -0.316914,9.90567 3.29074,2.99254 5.62848,6.93837 8.91922,10.8845 -1.81701,8.22104 -3.9515,5.95786 -1.3201,23.7098 -16.1615,14.3592 -28.1804,20.6269 -39.5535,34.1904 -3.04838,7.72867 -7.04977,13.2335 -6.92079,23.504 -3.81345,-1.42753 -6.67361,-3.4903 -11.4398,-3.96425 -4.56775,4.32539 -7.2292,7.69777 -9.89065,17.7421 -13.015,-4.58759 -24.4412,-14.2583 -25.7009,-17.257 8.90561,-8.41805 22.2591,-8.89342 31.4824,-16.6759l1.56161 -8.02205c2.92989,-0.870237 6.17755,-1.74047 9.10772,-2.61043 8.10256,-7.13736 11.7575,-14.5925 20.4956,-23.3184 -0.390331,-7.16514 -2.05087,-14.6475 -2.12315,-21.4946 -4.96205,-9.3926 -14.0888,-16.8423 -18.9507,-24.1087 -11.3559,-12.4362 -43.6796,5.30929 -75.0498,-0.137197 -12.5104,11.0772 -20.2553,21.5198 -27.9998,33.2328 -0.588756,5.18344 2.63452,7.19037 5.85837,9.83254 6.52848,0.967465 12.7398,2.25269 19.5863,0.0430866l5.7858 -2.99566c-1.71808,3.55465 -2.48287,5.20356 -2.29436,9.07626 4.37188,0.276378 6.83802,4.36536 13.4342,2.73572 -0.623055,-6.53783 -0.610866,-14.3461 -0.280914,-21.2012 9.48388,5.61203 16.4262,12.1776 22.7339,18.7433 -3.38372,5.88756 -6.76744,10.8227 -13.0105,15.7578 -24.3122,-3.96425 -64.827,-10.1529 -67.2177,-14.1171 -3.46309,-5.43288 -5.65569,-36.5984 -7.52996,-54.1032 -26.8382,-0.435402 -61.9368,-15.8023 -68.1245,-18.1437 3.36444,-4.86482 12.4481,-4.01103 12.9538,-8.24004 6.336,-7.00158 -22.8042,-3.38514 -22.8311,-12.2888 5.62394,-2.52879 10.6126,0.97852 13.3773,-6.31559 3.85795,-7.86983 -13.5697,-10.656 -15.7479,-17.5723 7.28533,-1.7229 16.1598,2.90863 18.9978,-7.07386 2.60561,-7.36668 -11.8372,-2.20054 -13.72,-22.2245 7.3097,0.316347 14.6197,12.0705 19.0707,-1.59137 0.709512,-5.42268 1.73707,-11.4806 -0.729922,-19.4448 -7.46249,-10.0454 -21.3608,-20.5458 -31.1128,-29.9809 -6.07607,-3.00558 -10.7683,-5.77503 -11.4216,-8.79308 -0.6103,-3.00189 1.17439,-5.09216 1.75465,-7.71563 2.07326,-9.36851 3.7063,-19.7946 9.71178,-24.279z"/>
  <path fill="#E5E5E5" stroke="#E5E5E5" stroke-width="0.992126" d="M403.075 469.594l-13.3433 -60.0446c2.39102,10.3649 5.8955,18.3189 8.57793,30.1813 0.953008,4.21399 1.27077,9.64432 1.27077,14.9318 0,5.93405 3.49455,11.0772 3.49455,14.9315z"/>
  <path fill="#4C4C4C" stroke="#4C4C4C" stroke-width="0.992126" d="M360.503 382.863l6.42558 -3.7304 4.97934 -6.20079 2.57358 -6.90662c-2.04747,3.51128 -4.80643,5.57263 -6.98911,8.26016 -2.21584,2.72863 -5.87197,5.22227 -6.98939,8.57764z"/>
  <path fill="none" stroke="#7F7F7F" stroke-width="3.96851" d="M401.804 400.337c-0.664725,-2.88199 -1.08964,-4.93824 -2.85931,-6.35386 -0.278079,-0.222236 -0.670961,-0.724252 -0.953008,-0.953008 -0.107717,-0.0878741 -0.793418,-0.227622 -0.953008,-0.317764 -1.11147,-0.628158 -2.09112,-1.54488 -3.17707,-1.9063"/>
  <path fill="none" stroke="#666666" stroke-width="3.96851" d="M381.789 390.806c-1.88901,-3.50873 -3.2794,-5.82066 -5.40085,-7.9424 -1.46126,-1.46126 -2.85931,-4.96517 -2.85931,-7.62463"/>
  <path fill="url(#id1)" d="M418.936 483.232l-5.47625 -13.3469 1.3578 -10.1271c1.87399,4.33219 1.62539,5.4567 4.13008,9.21317l0.635528 0.953008c4.87729,7.31509 3.69213,7.27512 3.74145,7.67197 0.0609449,0.490677 -5.29314,5.33481 -4.3886,5.63585z"/>
  <path fill="#BF9F4F" d="M8.8132 105.197l21.5045 35.5686c2.65833,-15.1846 -2.92649,-52.3075 -6.91711,-88.274 9.65282,24.4046 20.113,48.8098 36.4235,73.2158 2.3281,-17.6275 8.31714,-24.9713 7.52259,-36.0856 -0.38211,-5.34756 -5.63244,-9.23783 -6.35585,-14.5301 -0.888378,-6.49701 0.914741,-7.90271 1.07461,-14.0556 0.305575,-11.7476 -8.8886,-19.7209 0.170079,-28.336 -3.11783,13.1766 4.48271,16.2357 6.75525,24.2839 1.55452,5.5063 2.27764,11.9968 4.15049,16.9605 2.09565,5.55421 6.61975,10.7345 8.59607,15.4522 4.32879,10.3306 4.62756,17.4767 13.6205,21.8582 7.67793,-4.17288 1.8978,-50.5539 2.84684,-75.8305 15.2093,32.2668 22.1604,61.17 30.0294,69.2742 17.1865,-35.2525 7.8429,-30.6417 6.55994,-45.4536 -0.424347,-4.90025 2.23965,-11.4545 2.35729,-16.5356 0.195591,-8.46851 -6.98627,-14.0397 -1.35411,-24.9795 0.990142,4.97424 3.34658,9.84048 4.82797,15.6399 1.152,4.51077 1.59902,11.4812 3.26948,15.6387 2.61241,6.50381 8.18221,10.0692 10.2694,16.9495 3.51553,11.5895 0.364536,25.1558 11.4678,31.9323 5.0349,-1.51399 5.78778,-55.6356 8.68167,-83.4531 8.39481,24.6711 18.3186,65.2471 25.1844,74.0132 1.72318,-3.41603 9.00737,-12.2769 10.0922,-22.013 0.471685,-4.23751 -3.09175,-9.18737 -2.9931,-14.0066 0.197008,-9.59471 4.22873,-10.6469 5.66646,-18.7557 1.27729,-7.20454 -3.97559,-15.9829 3.49455,-22.7183 -2.96532,8.56914 2.2921,12.9529 4.28542,25.9968 0.631276,4.13292 -0.837355,8.82539 -0.117071,13.2117 0.795402,4.83988 3.93761,8.99944 5.07714,13.4036 2.91232,11.2567 2.75329,18.5984 8.18079,22.3022 9.19815,-0.599528 15.3377,-54.4181 22.7004,-80.0978 4.82145,25.5246 8.11333,62.3665 14.4641,76.5746 6.20986,0.771307 3.04129,-3.78794 6.51062,-8.0521 2.5835,-3.17566 6.06785,-5.82605 8.60599,-12.7259 1.91906,-5.21688 0.352347,-14.2322 2.0948,-20.7074 1.45559,-5.40766 3.32504,-6.21751 4.70835,-10.8901 1.77874,-6.00888 -0.925229,-11.0234 8.25251,-19.4213 -3.19408,6.06785 -2.14044,12.3517 -2.86498,17.894 -0.639496,4.88948 -1.30621,7.47355 -1.53439,12.6136 -0.24548,5.53436 2.03556,10.6316 2.93896,15.9387 1.71354,10.0636 0.181417,17.9612 5.72627,31.6225 10.1333,-4.59411 22.4076,-52.9263 32.8468,-76.1783 -3.01266,33.4349 1.31471,68.0933 2.89021,79.2003 19.6311,-16.725 14.7764,-22.1074 19.9585,-33.7108 2.11068,-4.72564 5.94369,-6.44485 7.44747,-11.3567 2.68016,-8.75622 0.843024,-19.7246 11.4945,-25.026 -4.3767,9.00596 -1.2121,20.6745 -2.48117,29.6742 -0.787181,5.58199 -2.12797,6.42133 -2.51717,12.0526 -0.338457,4.90281 1.75295,10.5483 1.38756,14.8618 -1.06724,12.5938 -3.09147,20.5416 -0.884693,24.836 12.623,-3.88658 26.4697,-46.9239 39.7043,-70.3857l-3.61644 74.6878c5.69282,-9.88952 14.9601,-14.0885 19.7167,-21.3894 3.27005,-5.01903 0.595276,-11.8962 3.23972,-16.9336 2.72721,-5.19449 7.79641,-8.82822 11.4832,-13.633 4.17855,-5.44536 -0.933449,-12.661 13.3625,-18.0896 -7.36696,4.8515 -4.39058,8.5235 -6.01767,16.1413 -1.31216,6.1441 -6.26939,8.13005 -6.97295,15.2748 -0.475937,4.83733 1.62199,9.16753 2.35644,15.285 1.07376,8.94189 -6.06076,15.0764 -1.5171,27.0397 12.2511,3.49909 27.561,-35.21 41.3419,-52.8149 -3.24482,22.5553 -12.9124,56.4276 -9.73418,67.6667l17.2491 -15.5424 -3.17707 70.5286c-140.21,-74.5529 -322.039,-79.8478 -478.769,3.49484l-4.76533 -79.1065z"/>
  <path fill="#999999" stroke="black" stroke-width="0.992126" d="M130.809 401.29c18.0026,-6.1424 30.2868,-14.1908 45.7481,-21.6034l17.9391 0.280914 -1.41874 28.3116c-14.2115,5.20668 -28.423,9.14315 -44.5408,10.5378 -12.9138,1.1897 -19.4737,15.0871 -29.2105,21.9957l-9.7492 21.4509 -5.59729 -8.87556c-4.79112,4.96375 -9.58196,9.92778 -14.3725,14.8918 -11.4701,-0.0912756 -15.9511,-8.44271 -24.8791,-11.7108 23.7212,-11.8607 57.6088,-32.6172 66.081,-55.279z"/>
  <path fill="#666666" stroke="#666666" stroke-width="0.992126" d="M182.911 260.55c-13.5391,3.81487 -28.0313,5.08791 -38.7111,1.59562 -8.38205,-2.86158 -15.4933,-5.40567 -22.9221,-8.26725 5.82662,5.30448 12.9382,10.9145 19.3793,11.7547 11.7981,1.53921 22.5822,3.3755 33.3581,-0.635528 3.22923,-1.20161 8.76756,-4.83194 8.89569,-4.44756z"/>
  <path fill="#999999" stroke="#999999" stroke-width="0.992126" d="M207.691 378.098c-6.59537,-9.60832 -15.1897,-13.4036 -26.1306,-18.991 -8.08668,-4.12923 -14.3325,-6.10129 -20.2779,-15.3516 -15.1418,-23.8502 -14.3963,-42.6158 -13.9708,-61.3829 5.36259,-10.69 6.80769,-13.4385 19.4774,-15.5509l-9.29396 1.0355c-24.7833,-0.319748 -15.5534,62.1377 -6.77707,76.0343 6.80315,10.7719 14.5709,14.938 24.7799,20.9685 9.29764,5.49185 21.7718,6.9429 32.1931,13.2381z"/>
  <path fill="url(#id2)" d="M287.75 349.131c2.77937,5.1738 15.9684,14.6203 15.3794,16.0143 -11.4219,24.126 -1.0783,6.88309 13.8487,17.9793 -3.0651,-5.51055 -0.147118,-14.7404 -6.67163,-18.4263 -3.34063,-1.88702 -10.5086,-6.44315 -13.9788,-8.57793 -2.42901,-1.49386 -5.65852,-8.55865 -8.57764,-6.98939z"/>
  <path fill="#999999" stroke="#999999" stroke-width="0.992126" d="M292.834 297.721c-12.4974,-0.521575 -26.5833,0.227622 -37.8099,-2.8355 -13.3418,-2.33773 -27.3195,-6.89925 -41.9318,-6.37767 -0.212032,1.93011 3.95518,4.87219 7.32133,5.52898 5.90003,1.1503 13.8036,2.86611 21.589,5.59049 7.07726,2.47578 16.9934,5.93292 29.6184,6.09648 5.78013,0.0751181 15.0415,-6.45619 21.2131,-8.00278z"/>
  <path fill="#999999" stroke="#999999" stroke-width="0.992126" d="M374.482 309.475c-3.35821,0.15137 -3.80608,0.846426 -6.00832,-0.789166 -6.81251,-5.05871 -18.6307,-8.97903 -35.6964,-5.03547 -3.78369,-1.55339 -11.0616,-1.51795 -11.3505,-4.65931 26.5022,-4.47336 54.5267,-2.9024 53.0552,10.4839z"/>
  <path fill="#666666" stroke="#666666" stroke-width="0.992126" d="M289.339 298.991c-8.46454,-0.175748 -17.8815,2.50781 -26.0277,0.426047 -14.5162,-3.63685 -30.3029,-5.68488 -45.4541,-8.36845 10.2728,-3.32249 22.7704,6.17868 31.4521,7.30687 4.87389,0.633544 14.377,3.8126 20.9679,3.8126 7.17222,0 12.1343,-3.17707 19.0619,-3.17707z"/>
  <path fill="none" stroke="#999999" stroke-width="3.96851" d="M354.149 326.949c1.9355,2.79581 2.37345,5.95928 3.81232,8.26016 0.294803,0.472252 0.888662,2.99962 0.953008,3.49455 0.189354,1.45758 0.635528,2.15518 0.635528,3.81232"/>
  <path fill="#4C4C4C" stroke="#666666" stroke-width="0.992126" d="M373.211 309.158l-4.11336 -2.11578c-2.65266,-2.31279 -17.7423,-11.185 -7.64136,-6.77963 1.59165,0.694205 2.49789,-0.186236 3.81232,0.635528 0.823748,0.514488 1.51852,1.19452 2.54154,1.90602 1.14151,0.793985 2.77058,1.33228 3.49484,2.22378 0.711213,0.876189 1.656,3.3789 1.90602,4.13008z"/>
  <path fill="#E5E5E5" stroke="#E5E5E5" stroke-width="0.992126" d="M340.488 423.529c-1.47969,9.12643 -10.266,16.6638 -17.7812,26.1074l-7.71818 6.20022c-3.23377,-0.795402 -6.24955,2.13052 -6.51062,5.58766l-16.2799 14.207c5.52104,-2.54863 13.3143,-6.08429 16.8378,-10.1662 10.7433,-12.4452 31.4521,-25.0583 31.4521,-41.9361z"/>
  <path fill="url(#id3)" d="M300.423 496.845c2.58406,0.756284 -2.47947,0.420095 -4.10797,-1.9783 -0.740126,-1.08964 0.479339,-4.43622 1.24895,-5.31666 0.758552,-0.867969 1.63361,-3.21732 1.90602,-4.13008 0.0464882,-0.155906 3.4183,1.98227 3.49484,1.90602 0.076252,-0.076252 0.478772,-0.270709 0.635244,-0.31748 0.782363,-0.234142 -0.146268,-0.402236 0.635528,-0.635528 0.240378,-0.0717166 -3.15014,8.79024 -3.8126,10.472z"/>
  <path fill="#7F7F7F" stroke="#7F7F7F" stroke-width="0.992126" d="M364.633 399.066c-4.11477,12.9294 5.74951,22.6814 -14.5675,35.6103l-21.6499 25.0699c5.04851,-6.56249 3.15695,-5.9641 10.1662,-11.4372l23.1919 -18.1086c6.86438,-5.36003 4.44784,-8.767 4.44784,-15.2496 0,-3.25219 2.27395,-14.1747 -1.58854,-15.8848z"/>
  <path fill="#E5E5E5" stroke="#E5E5E5" stroke-width="0.992126" d="M335.405 404.784l-13.661 -17.1556c3.7749,3.14589 4.47024,1.97717 7.30687,5.71833 1.78299,2.35134 2.68044,3.61503 4.13008,5.40085 0.815245,1.00375 1.47855,5.78807 2.22406,6.03638z"/>
  <path fill="#7F7F7F" stroke="#7F7F7F" stroke-width="0.992126" d="M249.309 351.411l-9.21771 -8.76841 -14.8073 -7.5121 -6.79153 -6.91144c-2.51717,-5.45329 -7.51352,-1.7949 -1.9063,3.81232 4.08359,4.08359 11.0061,5.52785 15.8851,8.57793 3.74769,2.34284 5.73704,2.78306 8.89541,6.67163 1.66564,2.05087 5.13326,3.19436 7.9424,4.13008z"/>
  <path fill="url(#id4)" d="M242.638 382.546c-13.0255,11.3312 -20.9679,19.8031 -30.4988,34.3111 -1.17581,-2.51518 1.97206,-8.16237 3.68788,-11.4914 2.5081,-4.86709 5.63159,-8.31232 9.33761,-12.0183 3.71027,-3.71027 12.2159,-15.662 16.1337,-18.0539 1.78044,-1.08737 -0.530362,7.87465 1.33965,7.25244z"/>
  <path fill="url(#id5)" d="M240.414 375.239l49.5607 1.27077c-3.37323,0 -4.62047,2.54806 -8.22359,3.9841 -4.63436,1.84649 -11.7215,2.76208 -16.8747,3.00529 -6.7218,0.316914 -17.6902,1.6475 -23.1917,0 -2.76605,-0.828 0.483874,-8.26016 -1.27077,-8.26016z"/>
  <path fill="#E5E5E5" stroke="#E5E5E5" stroke-width="0.992126" d="M197.933 405.787l0.86315 -27.0542c-5.88529,13.9759 -4.60715,30.6624 -2.39896,42.7913 0.797386,4.37811 0.701575,5.69906 2.17673,7.18555 3.26296,-5.56328 -1.35071,-19.677 -0.640914,-22.9227z"/>
  <path fill="#666666" stroke="#666666" stroke-width="0.992126" d="M218.811 439.731c-4.93966,0.466866 -6.15657,-0.851528 -9.38382,-1.85046 -4.62784,-1.43178 -7.16457,-3.43021 -7.13651,-3.23263 0.139465,0.967182 5.52841,-0.317764 6.67163,-0.317764 1.6081,0 9.5916,4.62841 9.8487,5.40085z"/>
  <path fill="none" stroke="#7F7F7F" stroke-width="2.83465" d="M233.742 435.919l1.27077 -0.635528c0.148819,-0.0742678 0.556725,-0.238961 0.635244,-0.317764 0.0221102,-0.0218268 0.286866,-0.635244 0.317764,-0.635244l0.317764 0 0 -0.317764 0.31748 0c0.0442205,0 0.594709,-1.16476 0.635528,-1.27077 0.206646,-0.538866 0.140315,-0.351496 0.317764,-0.635528 0.129543,-0.208347 0.317764,-0.482457 0.317764,-0.635244l0 -0.635528 0.31748 0 0 -0.31748c0,-0.546236 0.461764,-0.431717 0.635528,-0.953292"/>
  <path fill="url(#id6)" d="M256.005 432.858c2.4361,8.0487 6.42473,7.69663 8.86026,15.7448 2.7,-1.23987 11.5529,-10.6526 12.0841,-14.5905 -0.81326,-2.08063 -15.1571,-14.6801 -20.1538,-17.623 -2.47153,-1.2291 -0.15052,16.6816 -0.790583,16.4687z"/>
  <path fill="#666666" stroke="#666666" stroke-width="0.992126" d="M145.105 417.81l45.1128 -17.7911c0.124158,-2.16879 2.85647,3.66662 1.05562,6.60898 -2.14073,3.49739 -15.4466,4.90167 -18.8467,6.41679 -7.95459,3.54444 -19.5157,2.16595 -27.3217,4.76533z"/>
  <path fill="#191919" stroke="#191919" stroke-width="0.992126" d="M193.395 380.322l-0.317764 5.71862c-3.24964,-3.14306 -16.4222,-6.25607 -15.567,-5.40085 1.46041,1.46041 10.9964,-0.953008 15.8848,-0.317764z"/>
  <path fill="#E5E5E5" stroke="#E5E5E5" stroke-width="0.992126" d="M77.4358 451.486l31.3793 -18.8501c5.86375,-5.15707 16.437,-18.265 29.3842,-28.58 12.458,-9.92523 26.5125,-14.7359 31.686,-19.2861 -23.1191,12.1788 -29.7561,14.218 -36.7107,17.9102 -2.54863,1.35269 -5.27358,7.09455 -7.44917,10.0471 -13.1204,17.8078 -42.3448,35 -48.2896,38.759z"/>
  <path fill="none" stroke="#666666" stroke-width="2.83465" d="M131.762 415.268l1.27077 -1.27077c0.165543,-0.165543 0.38863,-0.24378 0.635244,-0.317764 0.608599,-0.181701 1.46069,-1.3595 2.22406,-1.58854 0.449008,-0.134079 0.534898,-0.399118 0.953008,-0.635244 0.594142,-0.335339 1.15824,-0.809859 1.58854,-0.953008"/>
  <path fill="none" stroke="#7F7F7F" stroke-width="1.98425" d="M158.766 398.113c0.538299,-0.413858 1.02898,-0.886678 1.58825,-1.27077 0.214299,-0.147402 0.597544,-0.498898 0.953292,-0.635528 0.469418,-0.179717 0.424347,-0.0532914 0.953008,-0.31748 0.228473,-0.114236 0.379843,-0.317764 0.635528,-0.317764l0.635244 0 0.317764 -0.317764 0.317764 0 0.31748 0c0.415559,0 0.142016,-0.317764 0.953292,-0.317764"/>
  <path fill="#666666" stroke="#666666" stroke-width="0.992126" d="M134.621 423.529l-20.6504 21.2856c1.77562,-2.1308 3.06454,-4.53373 4.76561,-6.03638 2.71758,-2.39981 3.36076,-5.26706 6.0361,-7.9424 1.43547,-1.43547 9.27525,-5.58454 9.8487,-7.30687z"/>
  <path fill="url(#id7)" d="M104.122 451.168l-36.5352 5.71862c6.16904,2.53389 9.54681,7.79585 15.7521,9.43172 1.87115,0.493229 3.64025,1.85273 6.16876,1.05222 1.12791,-0.356882 3.45572,-4.03625 5.45159,-5.9366 4.86822,-4.63436 6.22092,-7.45059 9.16271,-10.266z"/>
  <path fill="#7F7F7F" stroke="#7F7F7F" stroke-width="0.992126" d="M167.979 367.932c4.28655,2.54013 9.28035,5.74158 14.614,7.30715 4.30129,1.26227 6.85304,2.62517 9.53093,3.17707 4.6287,0.953292 3.51326,-2.55912 -6.38448,-7.41317 -14.3079,-4.97339 -34.8622,-13.2041 -17.7605,-3.07106z"/>
  <path fill="#7F7F7F" stroke="#7F7F7F" stroke-width="0.992126" d="M131.973 311.699c-2.95767,-3.88233 0.157323,-3.5657 -3.26523,-5.40057 -2.34737,-1.25858 -6.79295,-4.76391 -7.85027,-4.76391 -0.456945,0 5.29937,0.72 5.71578,0.953292 0.439937,0.247181 4.96885,1.62624 5.2937,2.01062 1.16986,1.38331 3.48123,3.39052 0.106016,7.20057z"/>
  <path fill="#7F7F7F" stroke="#7F7F7F" stroke-width="0.992126" d="M130.884 326.289c0.668126,1.03606 0.488126,-2.76747 -4.23128,-1.8034l-5.71663 1.16844c2.67591,0.982772 3.93647,3.3806 5.29144,4.23326 3.79361,2.38876 3.76611,-0.923811 4.65647,-3.5983z"/>
  <path fill="#7F7F7F" stroke="#7F7F7F" stroke-width="0.992126" d="M116.915 345.973c1.7949,0.598394 4.47477,-1.43348 5.92668,-1.05846 1.74699,0.451559 6.85474,0.0249449 7.83128,0.635244 0.860315,0.536882 3.70006,0.689386 5.07997,0.846426 2.93188,0.334488 3.28224,3.64932 1.21124,4.22221 -0.940819,0.260221 -2.72098,-1.68066 -4.39314,-1.68945 -4.72451,-0.0260788 -12.3191,-2.07099 -15.656,-2.95597z"/>
  <path fill="#666666" stroke="#666666" stroke-width="0.992126" d="M145.913 370.526l-16.933 -6.56164c1.62057,0 8.44838,1.81899 8.88974,1.48167 1.06583,-0.814961 3.64564,0.0663307 5.07997,0 3.7406,-0.173764 7.33607,4.86822 2.96334,5.07997z"/>
  <path fill="#7F7F7F" stroke="#7F7F7F" stroke-width="0.992126" d="M192.901 369.256l-22.392 -10.1996 -8.84552 -8.08271c-7.39985,-8.47389 -13.1973,-12.5382 -15.3292,-25.702 -1.72942,-8.47985 -4.51474,-31.9964 -1.69257,-38.6773 0.423213,3.51043 2.23569,24.935 2.49137,27.8802 1.10976,12.7718 4.18507,21.7344 12.1136,31.4989 4.57796,5.63726 11.5608,11.209 17.9912,15.0279 3.45799,2.05342 13.6165,5.52444 15.6631,8.25478z"/>
  <path fill="#E5E5E5" stroke="#E5E5E5" stroke-width="0.992126" d="M386.872 314.876c-5.81301,-8.70548 -13.2148,-19.6348 -18.392,-22.3036 -25.1022,-5.74923 -62.4643,0.267024 -88.4277,-0.125291 -20.1198,-1.73962 -35.4736,-4.74973 -60.3584,-5.53607 -10.7838,-4.10854 -18.7081,-8.85232 -27.9034,-15.8196 -1.37169,-3.40838 -9.73248,-18.5709 -10.4681,-21.9787 8.15415,15.0375 13.4487,29.7576 44.4776,34.9467 39.4994,4.30101 71.9048,4.13008 118.501,2.54154 6.24785,-0.106016 13.1312,-1.16504 23.8272,0.635528 3.84917,5.73449 16.7675,15.0537 18.7441,27.6395z"/>
  <path fill="#E5E5E5" stroke="#E5E5E5" stroke-width="0.992126" d="M96.8151 231.322l2.54154 -26.3699c-1.19084,1.54913 -2.47805,5.27698 -2.54154,6.355 -0.107717,1.82608 -3.31852,16.7273 -4.2874,17.7917 0.0892914,0.521575 4.23355,2.20507 4.2874,2.22321z"/>
  <path fill="#999999" stroke="#999999" stroke-width="0.992126" d="M97.6108 222.268c0.694205,-3.66236 5.03859,-3.03817 6.52309,-1.78639 4.23695,2.124 2.91799,1.55112 6.20306,3.51638 3.16999,3.87043 3.15836,4.5652 6.17528,9.86542 -4.39058,0.464032 -3.29641,-0.953292 -7.9424,-0.953292 -2.12825,0 -7.12545,-4.86085 -8.57764,-5.71833 -0.814394,-0.48104 -2.25581,-4.88211 -2.38139,-4.92378z"/>
  <path fill="#7F7F7F" stroke="#7F7F7F" stroke-width="0.992126" d="M105.23 221.472c-3.16347,0.590174 0.85493,6.2538 2.2252,7.30715 1.41874,1.08992 0.722268,0.497481 2.06816,1.58995 7.64363,6.20476 -2.69348,-6.79068 -4.29336,-8.89711z"/>
  <path fill="#999999" stroke="#999999" stroke-width="0.992126" d="M154.636 230.369c0.570898,2.95427 -2.90863,9.34016 -2.40123,13.2503 0.428882,3.30548 -10.6055,-3.69836 -13.9045,-5.06353 -1.07461,-0.444473 -2.18183,-12.6731 -3.29811,-13.8016 -9.12445,-9.22423 -21.8832,-11.0798 -23.7164,-10.823l-8.46284 -3.50192 -0.954709 -4.84044c-1.18998,-2.36863 1.58003,-6.57496 4.54847,-5.93178 1.0817,0.234425 5.5046,1.71553 4.98218,5.45528 0.662174,0.990709 6.51685,4.62331 6.98967,4.60658 0.737008,-0.0260788 15.9758,9.83396 28.4712,12.2221 18.7356,3.58073 7.60961,8.58416 7.74624,8.42797z"/>
  <path fill="#7F7F7F" stroke="#7F7F7F" stroke-width="0.992126" d="M121.595 213.213l-9.73645 -3.60114 -6.14835 -3.07049c2.98375,0 5.13213,1.05335 7.62492,2.22378 5.65937,2.65748 6.93496,4.04958 8.25988,4.44784z"/>
  <path fill="#4C4C4C" stroke="#666666" stroke-width="0.992126" d="M150.349 229.415c1.58712,0 3.19153,-0.239528 4.60545,-1.90545 0.267591,-0.315213 0.670961,0.413575 0.635244,-0.635528 -0.190205,-5.63556 -13.7489,2.54098 -5.2407,2.54098z"/>
  <path fill="#191919" stroke="#191919" stroke-width="0.992126" d="M150.828 224.176l-5.04142 0.486709c-0.0195591,1.37707 3.17736,2.71106 4.40164,2.21159 3.87893,-1.58202 1.45276,-2.38082 0.63978,-2.6983z"/>
  <path fill="#333333" stroke="#333333" stroke-width="0.992126" d="M135.889 220.997c1.40825,0.108 2.97099,1.8034 4.29166,1.74784 0.718016,-0.0303307 2.12599,-1.41959 0.000283465,-1.43036 -5.84419,-0.0291969 -2.73402,-0.123591 -4.29194,-0.31748z"/>
  <path fill="#7F7F7F" stroke="#7F7F7F" stroke-width="0.992126" d="M271.866 245.301c-5.82548,-4.65449 -13.2392,-7.72101 -21.2882,-10.152l-38.1345 -10.3173 -27.2925 5.55846c-5.30504,2.10869 -8.38602,3.26466 -11.1495,10.139l0.0141732 11.4435c1.79405,-5.52643 6.03865,-11.1022 8.57793,-13.9785 1.63219,-1.84847 5.4995,-1.06441 13.6463,-3.90558 9.42322,-5.56186 9.47056,-8.02262 16.2522,-4.42488 6.26089,3.32136 26.3594,8.62725 41.7923,8.68508 9.23046,3.82139 15.7572,7.23289 17.5819,6.95226z"/>
  <path fill="#7F7F7F" stroke="#7F7F7F" stroke-width="0.992126" d="M192.759 221.156l-14.1667 3.28961 -14.1083 6.24133c-1.31584,0.121039 3.68447,-4.96318 5.40085,-6.0361 2.50469,-1.56529 7.46703,-1.48989 10.1665,-3.17707 1.9525,-1.2206 10.3212,-1.9063 12.7077,-0.317764z"/>
  <path fill="#E5E5E5" stroke="#E5E5E5" stroke-width="0.992126" d="M193.383 225.25l10.9636 3.07531c-6.94602,-1.77676 -11.0276,-4.47052 -20.4664,0.174331l-14.6302 7.90526c2.0897,-5.05389 16.5745,-11.1668 24.1331,-11.1549z"/>
  <path fill="#7F7F7F" stroke="#7F7F7F" stroke-width="0.992126" d="M236.601 209.401c-2.91487,-4.52353 -8.37185,-6.18747 -10.0159,-11.0285 -4.07481,-6.91427 -6.45477,-15.5225 -7.13963,-25.8242 0,5.96608 1.40372,20.2717 4.13008,25.098 1.06526,1.88532 4.62331,7.48233 6.35386,9.21317 1.28721,1.28693 4.86425,0.734174 6.67163,2.54154z"/>
  <path fill="#E5E5E5" stroke="#E5E5E5" stroke-width="0.992126" d="M277.267 216.073l15.7961 -5.69481 15.819 -15.6872c3.02003,-6.64044 4.13377,-9.15081 4.61225,-14.2024 -0.533197,-4.76476 -4.24262,-7.30545 -8.58785,-10.1639 20.3565,11.8724 -16.9007,45.7484 -27.6395,45.7484z"/>
  <path fill="#666666" stroke="#666666" stroke-width="0.992126" d="M303.635 173.184l-9.82687 -7.64958 -8.59947 -8.55298c3.73777,1.72517 7.72781,4.89317 10.1665,7.9424 1.95137,2.44006 7.45399,5.83937 8.25988,8.26016z"/>
  <path fill="#B2B2B2" stroke="#B2B2B2" stroke-width="0.992126" d="M341.465 204.859c2.86554,4.27238 10.7907,1.03833 15.8797,3.08665 9.8915,-2.07213 8.74177,-1.82665 17.4546,-5.21603 -5.39745,0.449008 -7.58296,1.6954 -11.7547,1.58854l-12.3902 -0.317764c-1.97206,-0.0504567 -8.92063,0.0513071 -9.18936,0.858615z"/>
  <path fill="#666666" stroke="#666666" stroke-width="0.992126" d="M341.124 210.942l21.2856 -0.90567c-2.80942,0.936284 -7.21134,2.85903 -10.1662,2.85903 -1.84252,0 -4.01755,-0.0235276 -5.71862,-0.0235276 -1.83402,0 -3.87836,-1.92983 -5.40085,-1.92983z"/>
  <path fill="#E5E5E5" stroke="#E5E5E5" stroke-width="0.992126" d="M131.762 213.213l-16.2026 -10.4839c1.65487,1.27077 7.42394,4.32539 9.53093,6.0361 0.764504,0.620788 2.33518,1.65458 3.17679,1.9063 0.880158,0.262772 2.64699,2.53871 3.49484,2.54154z"/>
  <path fill="#E5E5E5" stroke="#E5E5E5" stroke-width="0.992126" d="M163.777 204.857c-1.09956,-2.60107 -18.1517,-14.315 -8.50536,-4.66866 1.32888,1.3286 4.97197,3.78227 5.2424,5.87679 0.206646,1.60243 0.159024,4.61906 0.159024,5.71862 0,4.18337 2.38819,-4.00451 3.10394,-6.92674z"/>
  <path fill="#7F7F7F" stroke="#7F7F7F" stroke-width="0.992126" d="M168.718 185.23l-2.6504 -10.9295 -1.4743 -12.8673c-0.149953,3.16318 0.992977,12.5929 1.26907,15.5472 0.124441,1.3303 2.00778,7.96763 2.85562,8.24967z"/>
  <path fill="#7F7F7F" stroke="#7F7F7F" stroke-width="0.992126" d="M166.973 196.018l-7.97103 -2.33036c-0.420095,0.0459213 -12.5569,-13.0306 -0.595843,-2.42901 1.96243,1.73934 5.58964,4.75937 8.56687,4.75937z"/>
  <path fill="#E5E5E5" stroke="#E5E5E5" stroke-width="0.992126" d="M136.989 186.816l-11.105 -13.0088c1.28863,2.79184 2.21159,4.29024 4.12469,6.50438 1.15484,1.33597 2.73487,2.73487 3.8075,3.8075 0.454961,0.455244 2.46529,2.46161 3.17282,2.69688z"/>
  <path fill="#4C4C4C" stroke="#4C4C4C" stroke-width="0.992126" d="M107.493 230.288c0.750615,0.172913 -5.8218,-5.98025 -5.39405,-5.55251 0.322299,0.322299 3.10677,0.204378 3.65131,0.475654 0.617103,0.307559 2.07836,2.06107 1.74274,5.07685z"/>
  <path fill="#666666" stroke="#666666" stroke-width="0.992126" d="M109.226 202.998l-6.34564 0.158457c0.879591,-1.9851 2.77484,-2.26176 3.97701,-2.20252 1.20274,0.0589607 1.23931,2.04406 2.36863,2.04406z"/>
  <path fill="#999999" stroke="#999999" stroke-width="0.992126" d="M306.495 244.029c3.79899,3.16545 7.68104,4.8807 10.167,7.94268 1.64013,2.01912 3.89395,3.65301 6.66879,5.24155 17.193,9.84416 -13.4116,-11.336 -16.8358,-13.1842z"/>
  <path fill="#999999" stroke="#999999" stroke-width="0.992126" d="M354.808 224.891c4.16835,0.317197 9.22706,1.35808 13.8019,1.58655 3.34658,0.166961 8.61733,0.795685 11.3661,-0.0189921 -8.51868,-1.10013 -16.3086,-0.985323 -25.168,-1.56756z"/>
  <path fill="#191919" stroke="#191919" stroke-width="0.992126" d="M195.863 228.81l-14.4955 6.75666 -4.46769 -0.639496c2.45169,-1.6971 6.57411,-3.3874 8.86989,-4.89373 6.18548,-2.66343 9.38523,-2.1943 10.0933,-1.22343z"/>
  <path fill="#333333" stroke="#333333" stroke-width="0.992126" d="M82.6566 454.574l-11.0132 4.89459 1.53043 0.917292c5.52416,-1.03039 7.20369,-3.97644 9.48274,-5.81188z"/>
  <path fill="#7F7F7F" stroke="#7F7F7F" stroke-width="0.992126" d="M250.672 218.741c4.41156,1.1435 8.28539,0.984189 13.9263,2.36665 1.67924,0.411591 3.82054,-0.461197 4.95298,-0.515339 11.1878,-0.535181 -16.1323,-1.93096 -18.8793,-1.85131z"/>
  <path fill="#7F7F7F" stroke="#7F7F7F" stroke-width="0.992126" d="M290.077 479.049l-11.0132 4.89459 1.53043 0.917292c5.52416,-1.03039 7.20369,-3.97644 9.48274,-5.81188z"/>
  <path fill="#666666" stroke="#666666" stroke-width="0.992126" d="M403.171 480.928l-0.670678 12.0331 1.51455 -0.943087c1.60413,-5.38583 -0.250866,-8.22445 -0.843874,-11.09z"/>
 </g>
</svg>
