<?xml version="1.0" encoding="UTF-8" standalone="no"?>
<!-- Creator: CorelDRAW -->
<svg
   xmlns:dc="http://purl.org/dc/elements/1.1/"
   xmlns:cc="http://creativecommons.org/ns#"
   xmlns:rdf="http://www.w3.org/1999/02/22-rdf-syntax-ns#"
   xmlns:svg="http://www.w3.org/2000/svg"
   xmlns="http://www.w3.org/2000/svg"
   xmlns:sodipodi="http://sodipodi.sourceforge.net/DTD/sodipodi-0.dtd"
   xmlns:inkscape="http://www.inkscape.org/namespaces/inkscape"
   xml:space="preserve"
   width="500px"
   height="549px"
   shape-rendering="geometricPrecision"
   text-rendering="geometricPrecision"
   image-rendering="optimizeQuality"
   fill-rule="evenodd"
   clip-rule="evenodd"
   viewBox="0 0 500 549"
   version="1.0"
   id="svg2"
   sodipodi:version="0.32"
   inkscape:version="0.46"
   sodipodi:docname="Kyyjärvi.vaakuna.svg"
   inkscape:output_extension="org.inkscape.output.svg.inkscape"><metadata
   id="metadata17"><rdf:RDF><cc:Work
       rdf:about=""><dc:format>image/svg+xml</dc:format><dc:type
         rdf:resource="http://purl.org/dc/dcmitype/StillImage" /></cc:Work></rdf:RDF></metadata><defs
   id="defs15"><inkscape:perspective
     sodipodi:type="inkscape:persp3d"
     inkscape:vp_x="0 : 274.5 : 1"
     inkscape:vp_y="0 : 1000 : 0"
     inkscape:vp_z="500 : 274.5 : 1"
     inkscape:persp3d-origin="250 : 183 : 1"
     id="perspective19" /></defs><sodipodi:namedview
   inkscape:window-height="669"
   inkscape:window-width="640"
   inkscape:pageshadow="2"
   inkscape:pageopacity="0.0"
   guidetolerance="10.0"
   gridtolerance="10.0"
   objecttolerance="10.0"
   borderopacity="1.0"
   bordercolor="#666666"
   pagecolor="#ffffff"
   id="base"
   showgrid="false"
   inkscape:zoom="0.84153005"
   inkscape:cx="250"
   inkscape:cy="274.5"
   inkscape:window-x="115"
   inkscape:window-y="115"
   inkscape:current-layer="svg2" />
 <g
   id="Layer_x0020_1">
  <metadata
   id="CorelCorpID_0Corel-Layer" />
  <path
   id="path1937"
   fill="#0581ED"
   stroke="black"
   stroke-width="0.216"
   d="M0 -0.0345827l500.032 0 -0.000283465 343.022c-21.2978,91.0684 -76.5749,157.947 -153.948,187.404 -27.9856,10.6546 -58.8626,16.4242 -92.0676,16.6898 -120.008,-2.00041 -225.014,-79.0861 -254.016,-211.094l0 -336.022z" />
  <path
   id="path1937_0"
   fill="#B2B2B2"
   d="M368.023 70.0509c-0.570048,-27.375 -29.1456,-40.4768 -29.0594,-55.1551 0.0861733,-14.6787 2.25978,-8.04416 3.28734,-14.7356l157.781 -0.19474 0 343.022c-26.0019,112.007 -98.0062,167.011 -154.881,187.45 -3.12945,-16.3576 18.8717,-28.3587 19.8717,-57.3599 1.04117,-30.1927 -27.2957,-35.7333 -27.0017,-64.0041 0.294236,-28.2708 27.9204,-35.1284 28.0021,-67.0043 0.0813544,-31.8759 -30.6479,-37.0783 -31.0023,-65.0041 -0.354047,-27.9258 33.8134,-43.2981 34.0022,-69.0047 0.189071,-25.7063 -31.877,-38.9169 -32.0006,-68.004 -0.123591,-29.0872 31.6868,-37.052 31.0006,-70.0047z"
   style="fill:#cccccc" />
  <path
   fill="#B2B2B2"
   d="M104.006 71.0513c34.0022,0 31.2999,-4.51134 44.0028,-4.00025 11.2088,0.450709 16.001,6.00038 29.0018,6.00038 9.00057,0 114.007,-26.0017 115.007,47.003 1.4108,102.997 -195.012,27.8022 -195.012,68.0043 0,47.003 208.996,-59.9993 210.013,57.0036 1.00006,115.007 -221.208,8.96372 -219.014,66.0042 2.00013,52.0033 222.318,-49.9896 224.014,56.0036 2.00013,125.008 -186.474,0.0187087 -189.012,66.0042 -1.00006,26.0017 18.0011,14.0009 8.00051,50.0032 -6.00038,-17.0011 -9.00085,-17.0016 -17.0011,-22.0014 -11.1345,-6.95906 -22.4076,-18.491 -21.8908,-35.4056 2.88964,-94.6027 171.9,3.40356 171.9,-53.6001 0,-67.0043 -217.757,59.9871 -220.014,-63.004 -2.00013,-109.007 220.897,-9.00794 220.014,-62.0039 -1.00006,-60.0038 -213.955,50.0026 -215.014,-59.0037 -1.00006,-103.007 209.636,-8.98271 207.013,-68.0043 -0.796819,-17.9303 -38.003,-35.0017 -72.0046,-20.0013 -8.91978,3.93506 -30.0019,20.001 -47.003,16.001 -11.8423,-2.78646 -12.0957,5.59219 -21.0013,5.00032 -2.21839,-0.147402 -5.73477,-7.26605 -2.00013,-11.0007 4.00025,-4.00025 0,-9.00057 7.00044,0 6.85588,-2.85534 18.0011,-3.00019 19.0012,-11.0007 -0.0666142,-0.131528 -11.1504,-5.16274 -20.1209,-1.87795 -11.956,4.37811 -22.4634,3.86589 -29.8823,2.87802 -19.3212,-2.57273 -28.5701,-18.9485 -27.0017,-19.0012 0.20863,-0.00680315 1.6835,5.19307 10.0006,10.0006 4.54224,0.9703 7.08322,-11.3471 7.00044,-12.0008 -0.146268,-1.15313 -0.409323,13.7098 -4.00025,14.0009 6.00038,4.00025 7.91065,4.29733 13.0008,5.00032 9.57827,1.32321 23.1361,0.186236 29.0018,-4.00025 5.45981,-3.89679 23.0171,1.23619 23.0015,1.00006 0,-17.0011 -21.0016,-13.0014 -30.0019,-14.0009 -2.87575,-0.319181 -4.00025,10.6608 -4.00025,8.00051 -2.00013,-6.00038 -8.00051,-13.0008 -3.00019,-18.0011z"
   id="path8"
   style="fill:#cccccc" />
  <ellipse
   fill="#0582ED"
   transform="matrix(0.943486, -0.156725, 0.124765, 0.823035, 149.451, 78.5518)"
   rx="10.0006"
   ry="3.00019"
   id="ellipse10" />
  <circle
   fill="#B2B2B2"
   cx="148.509"
   cy="78.5518"
   r="2.50016"
   id="circle12" />
 </g>
</svg>