<?xml version="1.0" encoding="UTF-8"?>
<!DOCTYPE svg PUBLIC "-//W3C//DTD SVG 1.1//EN" "http://www.w3.org/Graphics/SVG/1.1/DTD/svg11.dtd">
<!-- Creator: CorelDRAW -->
<svg xmlns="http://www.w3.org/2000/svg" xml:space="preserve" width="500px" height="580px" shape-rendering="geometricPrecision" text-rendering="geometricPrecision" image-rendering="optimizeQuality" fill-rule="evenodd" clip-rule="evenodd"
viewBox="0 0 500 580"
 xmlns:xlink="http://www.w3.org/1999/xlink"
 xmlns:svg="http://www.w3.org/2000/svg"
 version="1.0">
 <g id="Layer_x0020_1">
  <metadata id="CorelCorpID_0Corel-Layer"/>
  <path id="path1937" fill="#F00000" stroke="#F00000" stroke-width="0.510236" d="M0.100913 0.511087l499.992 -0.000566929 -0.000850394 340.513c-13.3756,316.877 -481.135,318.71 -499.999,-0.0507402l0.00793701 -340.462z"/>
  <path fill="#CCCCCC" d="M98.8402 347.674c12.1195,11.9874 -21.5666,9.55474 -29.6172,24.105 -4.36082,8.97506 1.94258,21.8376 9.35178,23.0298l173.542 -0.454677c17.392,-15.1492 14.9301,-26.9209 34.7882,-29.001 -0.0538583,-3.90756 2.80177,-8.33613 5.65852,-13.2823l9.60067 -1.24073 0.405921 -4.89515c6.29802,-0.607748 12.5958,-0.697323 18.8943,-0.269008l1.47345 3.2281c55.3062,-8.94671 85.2514,7.34911 119.182,-1.20898 13.525,18.0224 21.8412,40.8835 20.8735,72.3705l-7.59997 3.00699c-5.03235,-0.347244 -12.619,-12.5215 -21.6193,-13.4691 -27.4076,-2.88539 -56.6272,6.26684 -111.932,2.60447l-0.020126 3.48747c-6.41452,0.38863 -12.4665,0.647433 -18.8802,0.000850394l-0.703559 -5.82888 -10.5925 -0.044504c-2.2731,-1.68718 -2.00976,-4.15106 -4.64457,-7.77997 -4.50397,9.01871 -6.16451,61.1303 -17.0391,67.1689 -8.24826,4.57994 -154.369,16.1651 -210.433,-6.82186 2.11805,-15.4845 3.89424,-23.0627 2.55799,-40.4595 -1.50378,-19.5806 -24.071,-37.4811 -10.9015,-58.146 9.26731,-14.5417 39.9719,-20.4639 47.6544,-16.1005z"/>
  <line fill="none" stroke="white" stroke-width="0.992126" x1="383.98" y1="359.043" x2="391.557" y2= "359.356" />
  <line fill="none" stroke="white" stroke-width="0.992126" x1="401.175" y1="359.356" x2="405.837" y2= "359.356" />
  <line fill="none" stroke="white" stroke-width="0.992126" x1="418.369" y1="359.043" x2="421.283" y2= "359.043" />
  <line fill="none" stroke="white" stroke-width="0.992126" x1="353.089" y1="355.295" x2="358.043" y2= "355.295" />
  <line fill="none" stroke="white" stroke-width="0.992126" x1="409.043" y1="354.045" x2="413.414" y2= "354.045" />
  <line fill="none" stroke="white" stroke-width="0.992126" x1="328.318" y1="356.544" x2="332.398" y2= "356.544" />
  <line fill="none" stroke="white" stroke-width="0.992126" x1="362.123" y1="359.043" x2="364.455" y2= "359.043" />
  <line fill="none" stroke="white" stroke-width="0.992126" x1="424.489" y1="353.733" x2="427.403" y2= "353.733" />
  <path fill="#644D36" d="M98.8402 347.674c12.1195,11.9874 -21.5666,9.55474 -29.6172,24.105 -4.36082,8.97506 1.94258,21.8376 9.35178,23.0298 -14.7002,-4.46882 -18.104,-21.4438 -8.17682,-29.954 7.72101,-6.6189 29.2006,-8.07421 28.4423,-17.1808zm343.28 0.0110551c13.525,18.0224 21.8412,40.8835 20.8735,72.3705l-7.59997 3.00699c-5.03235,-0.347244 -12.619,-12.5215 -21.6193,-13.4691 -27.4076,-2.88539 -56.6272,6.26684 -111.932,2.60447l-0.020126 3.48747c-6.41452,0.38863 -12.4665,0.647433 -18.8802,0.000850394l-0.466583 -3.86476 17.5476 0.12926 -0.920977 -66.4212c0.787465,0.0371339 1.57493,0.0830552 2.36211,0.136347l1.47345 3.2281 0.413292 45.5454 9.37843 0.648567 0.15137 1.13499 -8.77352 1.13499 0.302457 4.70211 13.3115 0.162142 0.302457 0.972851 4.53799 0.162142 0 1.13499 -17.0932 0 0.15137 1.9457 1.51257 0.648567c55.7867,2.2714 74.5711,-1.86548 92.361,-2.38451 13.4036,-0.390898 23.6999,3.13795 32.434,14.2209l6.50466 -2.10784 0 -1.13499 -6.50466 0.324284 0 -1.13499 6.65575 -0.162142 -0.151087 -1.29713 -6.65575 0 -0.15137 -2.10784 3.32788 -0.324284 0.302457 0.810709 2.87405 0.324284c-1.50973,-4.65421 -6.83802,-24.5801 -11.3718,-41.1778 -3.25673,-11.9217 -6.46526,-19.7002 -4.63777,-23.2501zm-139.881 62.1723l-10.5925 -0.044504c-2.2731,-1.68718 -2.00976,-4.15106 -4.64457,-7.77997 -4.50397,9.01871 -6.16451,61.1303 -17.0391,67.1689 -8.24826,4.57994 -154.369,16.1651 -210.433,-6.82186 0.132378,-0.967749 0.263339,-1.41846 0.392315,-2.32866 28.0111,12.8463 72.3243,14.2739 120.357,13.5335 27.555,-0.424914 86.6739,-2.95739 89.3674,-5.86063 1.93408,-1.94542 6.75383,-17.6204 8.33301,-29.5143l-5.79685 6.14948 6.52139 -10.4213 0 -1.55339 -1.44907 0.388347 -7.90555 11.2819 6.35329 -11.8364 -1.66394 0.324284 -7.71478 10.7014 5.29427 -9.89065 -2.11776 0.162142 -8.77323 10.5392 6.50438 -10.3771 -1.96639 0.162142 -7.86586 9.72851 5.29427 -9.56637 -1.81531 0 -7.86586 9.72851 5.29455 -9.24208 -2.72296 0.162142 -7.26067 9.07994 4.99181 -8.59352 -1.96668 0 -7.56312 9.56637 4.99153 -9.56637 -2.72268 0 -7.86586 10.8635 5.7481 -10.8635 -2.42022 0 -8.62215 9.72851 5.59673 -9.56637 -1.3612 -0.162142 -7.56341 9.40423 5.1429 -9.07994 -2.26885 -0.162142 -8.01723 9.40423 5.14318 -9.24208 -2.11776 0 -7.71449 8.75566 5.59673 -8.9178 -2.26885 0 -6.95849 8.26923 4.53799 -8.26923 -2.57131 0 -8.31969 9.89065 0 -0.324284 6.20192 -9.56637 -2.72296 0 -7.41204 9.56637 5.14318 -9.24208 -2.42022 -0.162142 -8.62243 10.0528 6.20192 -10.0528 -2.11748 0 -8.47106 9.89065 6.20192 -9.89065 -2.26914 0 -8.9246 11.1878 6.20192 -10.8635 -2.26885 0 -8.31969 11.3499 6.20192 -11.6742 -2.87405 0.162142 -8.31969 11.0256 6.20192 -11.0256 -2.11776 0 -8.16832 10.5392 5.7481 -10.5392 -2.42051 0.162142 -8.16832 11.1878 6.05084 -11.3499 -1.81531 0.162142 -8.31969 10.8635 5.89947 -10.8635 -2.11776 0 -9.37843 11.3499 6.05055 -11.5121 -2.11776 0 -8.47106 10.7014 5.89947 -10.8635 -1.96639 0 -8.77352 10.8635 5.89947 -10.7014 -2.11776 0.162142 -8.16832 9.56637 5.29427 -9.40423 -2.72268 -0.162142 -6.95849 7.94495 4.84073 -8.43137 -2.72296 -0.162142 -8.31969 10.0528 5.59701 -9.72851 -1.81531 0 -8.16832 9.72851 5.59673 -9.89065 -1.51257 0.162142 -8.9246 9.07994 6.05055 -9.07994 -2.87405 -0.162142 -8.16832 9.56637 5.7481 -9.56637 -1.51285 0 -10.4372 11.0256 6.95821 -10.8635 -2.42022 0 -8.47106 9.72851 5.89947 -9.72851 -3.02542 0 -8.16832 10.0528 5.29427 -10.0528 -1.81531 0 -10.1347 10.7014 7.26067 -10.3771 -2.26885 -0.162142 -8.16832 9.40423 5.1429 -9.56637 -1.51257 0 -6.50438 7.94495 4.23525 -7.94495 -1.3612 -0.162142 -8.47106 9.72851 6.20192 -9.72851 -2.57159 0 -7.56312 9.89065 5.59673 -9.89065 -2.57159 0 -6.95821 9.24208 5.29427 -9.56637 -1.96639 0 -6.50438 9.07994 4.53799 -9.56637 -1.66394 -0.324284 -6.35329 8.9178 4.23553 -8.9178 -2.11776 0.162142 -6.95821 8.9178 4.99181 -9.72851 -1.51285 -0.486425 -7.71449 9.56637 5.14318 -9.56637 -1.21039 -0.324284 -6.05055 7.45852 4.38662 -8.26923 -1.66394 -0.486425 -2.72268 3.8914 1.36148 -5.83711c12.9183,4.88041 83.873,4.68596 139.024,3.66378 32.8023,-0.608032 63.8799,-0.451843 74.1107,-3.3395 2.01685,-12.7553 3.12633,-26.3211 6.05084,-38.2655l1.36148 2.26999c0.553607,4.6474 2.21811,8.70152 4.38662,12.4849l0.302457 -13.7821 8.01723 -0.324284 -0.605197 0.648567 -6.20192 0.324284 -0.151087 2.10784 8.01695 0 -0.151087 1.13499 -7.71478 0.162142 -0.151087 2.43213 7.41204 0 -0.453827 0.972851 -6.95821 0.324284 0 2.10784 9.07597 0 0 1.62142 -8.92489 0.648567 0 1.13499 9.83254 0.162142 0.0649134 3.90586z"/>
  <path fill="#B2B2B2" d="M460.096 411.14l-17.3957 -59.506c9.69081,13.1162 16.465,36.2798 17.3957,59.506z"/>
  <path fill="white" d="M78.5747 394.809l173.542 -0.454677c17.392,-15.1492 14.9301,-26.9209 34.7882,-29.001 -0.0538583,-3.90756 2.80177,-8.33613 5.65852,-13.2823l9.60067 -1.24073 0.405921 -4.89515c5.51055,-0.53178 11.0217,-0.666709 16.5322,-0.405355l0.16441 11.9415 -1.05874 0.162142 0.15137 3.24284 -0.605197 0 -0.15137 3.8914 -1.21011 0.162142 0 -7.29638 -1.21011 -0.162142 0 7.29638 -0.907654 0 -0.151087 -3.8914 -0.756284 0 -0.15137 -3.40498 -1.21011 0 0 7.94495 -1.05902 0 -0.302457 -7.78281 -1.81502 -0.162142 0 8.10709 -1.36148 0 0 -7.78281 -2.87405 0 0 51.5611 -1.36148 0 -0.453827 -41.184 -10.7399 -0.162142 0 -0.972851 10.7399 0 0 -1.13499 -10.2861 -0.162142 0.15137 -1.29713 9.37843 0 0.15137 -1.62142 -10.2864 -0.162142 0 -1.13499 9.68117 -0.486425 0 -1.29713 -9.83226 0 0 5.51282 -0.605197 0.324284 -0.151087 32.2662 -0.756567 0.162142 -0.151087 -29.5098 -2.57159 0.162142 0 14.1063 -0.756284 0 -1.36148 -13.9442c-18.2129,1.40315 -23.4298,26.1434 -34.035,28.6991l-161.553 0.486425 -11.2204 -3.19777zm244.363 -45.9148c55.3062,-8.94671 85.2514,7.34911 119.182,-1.20898l0.429166 10.7589 -7.86586 -0.810709 0.302457 2.10784 8.62215 0.810709 0.15137 2.91855 -8.01723 -0.972851 0.605197 1.78356 8.62215 1.62142 0.907654 2.26999 -9.22734 -2.26999 1.05902 2.91855 7.86586 1.13499 0.453827 1.9457 -7.86586 -1.29713 0.756284 1.9457 8.47078 1.9457 0.453827 2.10784 -8.62215 -2.26999 0.907654 3.08069 8.01695 0.972851 0 1.62142 -7.56312 -0.972851 0.907371 2.26999 7.56341 0.972851 0.15137 1.78356 -6.80712 -0.648567 0.605197 2.26999 7.41204 0.972851 0 1.45928 -6.95821 -0.810709 0.604914 2.10784 7.26095 1.13499 0.453827 1.45928 -7.41204 -0.486425 0.756284 2.59427 7.71449 0.324284 0.15137 1.78356 -7.26095 -0.486425 0.30274 2.10784 7.41204 0.324284 0.151087 1.62142 -6.95821 -0.486425 0.453827 1.9457 5.7481 0.486425 0.15137 0.972851 -5.29427 0 4.38662 14.1063 1.66394 0.486425 -0.15137 0.648567 -2.26885 0 -5.73392 -15.4735 -3.24255 -4.18791 2.052 -0.296504 -2.90806 -7.93049 -8.16832 -4.86425 8.01723 2.91855 -1.36148 -3.56712 -9.37843 -4.05355 1.66394 -0.324284 7.41204 2.59427 -1.36148 -3.40498 -9.98363 -4.21569 9.37871 1.9457 -1.21011 -3.24284 -8.77352 -2.26999 8.01695 0.486425 -1.66394 -4.05355 -4.84044 -1.29713 4.53799 -0.162142 -0.756284 -2.43213 -6.05055 -1.13499 5.59673 0 -0.907654 -2.59427 -8.77352 -1.45928 0 2.10784 2.57159 2.59427 -7.56341 -0.324284 0.605197 -0.486425 2.87405 0 -0.302457 -1.78356 -19.8159 -0.972851 -0.30274 1.62142 -9.5298 -0.162142 1.21011 -0.972851 7.86586 -0.648567 0.15137 -1.62142 10.4375 0 -1.66394 0.648567 11.95 -0.648567 0.15137 -0.972851 9.5298 1.62142 -1.81531 -2.59427 -7.71449 -0.648567 -0.605197 0.972851 -20.4211 -0.486425 -7.10929 -1.45928 -3.63062 -0.162142 -0.151087 0.648567 0.907371 1.45928 5.89947 0.324284 -0.604914 0.972851 -8.47106 -0.162142 -0.453827 -2.10784 -19.5134 -1.13499 -0.151087 2.26999 7.41204 0.162142 0 0.810709 6.95821 0.324284 0 0.972851 1.96639 0.162142 0.15137 -0.810709 8.16832 0.324284 -0.302457 1.13499 -7.41204 -0.324284 -0.302457 0.648567 -13.009 0.162142 0.302457 -2.10784 -21.4798 0 -0.15137 2.10784 19.8162 0.324284 -0.15137 0.810709 6.35329 0.486425 -0.15137 0.810709 -9.5298 -0.324284 -0.302457 -0.486425 -23.4465 -0.486425 -0.756284 0.972851 5.14318 0.486425 -0.15137 1.13499 -7.86586 0 1.81531 -3.08069 -2.72296 -0.162142 -0.453827 0.972851 -13.614 0.162142 -0.151087 -1.13499 0.907371 0 0.15137 -2.59427 -1.21011 0.324284 -0.261921 -9.71207zm-224.098 -1.22003c-7.68246,-4.36337 -38.3871,1.55877 -47.6544,16.1005 -13.1695,20.6649 9.39799,38.5654 10.9015,58.146 1.25263,16.3091 -0.230173,23.9891 -2.16567,37.6444 15.5279,-53.7296 -12.337,-56.5189 -9.73021,-85.794 1.34532,-15.1107 17.6692,-25.7131 48.6488,-26.0969z"/>
  <rect fill="#B2B2B2" x="323.956" y="354.715" width="10.5887" height="1.29713"/>
  <rect fill="#B2B2B2" x="337.873" y="353.418" width="8.31967" height="2.26999"/>
  <polygon fill="#B2B2B2" points="326.225,358.12 326.225,359.417 339.385,359.255 339.385,358.282 348.159,358.282 348.007,356.823 331.973,356.985 331.973,358.12 "/>
  <polygon fill="#B2B2B2" points="350.881,354.553 350.881,356.336 357.235,356.336 357.083,356.985 365.554,356.985 365.403,354.553 358.293,354.715 358.293,355.526 353.151,355.526 353.302,354.553 "/>
  <rect fill="white" x="349.218" y="363.146" width="9.076" height="0.972851"/>
  <rect fill="white" x="330.914" y="363.146" width="5.29433" height="1.13499"/>
  <rect fill="white" x="379.017" y="362.66" width="5.29433" height="1.13499"/>
  <polygon fill="white" points="386.732,362.66 399.136,362.66 398.984,364.606 393.992,364.606 393.992,363.957 386.732,363.957 "/>
  <rect fill="white" x="402.463" y="362.336" width="6.65573" height="1.45928"/>
  <polygon fill="white" points="418.649,365.092 427.876,364.768 427.876,366.065 418.8,366.065 "/>
  <rect fill="white" x="407.153" y="363.633" width="4.0842" height="1.13499"/>
  <polygon fill="white" points="436.196,390.386 442.247,395.413 442.095,393.305 "/>
  <rect fill="#644D36" x="286.442" y="383.738" width="1.3614" height="9.40423"/>
  <rect fill="#644D36" x="288.862" y="391.197" width="1.05887" height="5.35068"/>
  <rect fill="white" x="289.013" y="398.007" width="0.9076" height="4.86425"/>
  <polygon fill="#644D36" points="306.56,389.413 308.073,389.413 308.083,398.011 308.351,399.472 308.527,405.79 306.56,405.79 "/>
  <polygon fill="#644D36" points="310.04,388.44 311.098,388.44 311.215,398.657 311.632,398.835 311.703,405.628 310.191,405.628 "/>
  <polygon fill="#644D36" points="313.216,389.738 314.275,389.575 314.449,400.274 315.334,401.088 315.334,405.952 313.216,405.952 "/>
  <polygon fill="#644D36" points="317.754,388.44 316.544,388.278 316.544,405.952 318.51,406.114 318.561,397.192 317.784,396.546 "/>
  <rect fill="#644D36" x="331.822" y="389.738" width="5.4456" height="1.29713"/>
  <polygon fill="#644D36" points="329.553,398.655 353.302,398.655 353.302,399.79 329.402,400.763 "/>
  <polygon fill="#644D36" points="341.2,394.115 357.991,393.629 357.991,394.602 341.2,396.061 "/>
  <polygon fill="#644D36" points="348.613,402.223 365.252,402.223 365.252,404.168 356.327,404.168 354.219,404.839 346.729,404.969 346.831,403.534 348.31,403.52 "/>
  <polygon fill="#644D36" points="357.386,398.331 358.91,397.536 368.126,397.52 368.277,398.331 373.118,398.331 373.118,399.628 357.386,399.628 "/>
  <rect fill="#644D36" x="355.722" y="388.927" width="7.56333" height="1.29713"/>
  <rect fill="#644D36" x="366.008" y="393.467" width="13.3115" height="1.29713"/>
  <rect fill="#644D36" x="376.597" y="388.927" width="9.83233" height="1.13499"/>
  <polygon fill="#644D36" points="372.059,402.06 385.673,402.06 386.452,402.909 389.454,402.871 389.454,404.168 369.639,404.168 369.816,403.231 371.945,403.282 "/>
  <polygon fill="#644D36" points="380.681,399.466 391.572,399.466 391.572,398.169 397.32,398.169 397.472,397.358 382.801,397.401 383.101,398.169 380.681,398.331 "/>
  <polygon fill="#644D36" points="386.278,394.44 398.53,394.44 398.53,393.467 394.144,393.467 394.144,392.656 386.278,392.818 "/>
  <polygon fill="#644D36" points="396.262,388.927 405.186,388.927 405.186,389.738 402.162,389.792 402.11,391.26 399.588,391.12 399.588,389.839 396.262,389.9 "/>
  <rect fill="#644D36" x="403.976" y="393.467" width="10.8912" height="0.972851"/>
  <rect fill="#644D36" x="414.565" y="390.062" width="6.05067" height="0.972851"/>
  <polygon fill="#644D36" points="415.926,400.277 428.027,400.277 428.596,401.697 431.809,401.574 431.658,402.709 417.136,402.709 "/>
  <polygon fill="#644D36" points="393.841,403.682 413.808,402.709 413.657,401.898 411.227,401.726 408.058,401.124 397.623,400.763 397.32,401.898 393.841,401.898 "/>
  <polygon fill="#644D36" points="402.766,397.196 416.985,397.196 416.077,398.818 406.396,399.142 406.094,398.331 402.766,398.331 "/>
  <polygon fill="#644D36" points="420.615,397.845 420.767,396.71 425.153,396.872 425.002,398.169 431.658,398.007 431.507,399.142 421.826,399.304 421.826,397.845 "/>
  <polygon fill="#644D36" points="421.977,394.44 427.876,394.115 427.876,395.575 421.977,395.575 "/>
  <path fill="#644D36" d="M446.179 410.492c-4.72309,-5.04482 -10.1605,-5.14885 -12.5552,-7.62067 8.21878,0.648567 9.78208,4.86425 12.5552,7.62067z"/>
  <path fill="#644D36" d="M445.121 406.276l-4.68936 -3.24284c2.57528,0.26674 3.73323,1.67301 4.68936,3.24284z"/>
  <path fill="#644D36" d="M436.196 398.41l-3.63033 -2.51065c1.99361,0.206646 2.89021,1.29515 3.63033,2.51065z"/>
  <path fill="#644D36" d="M435.742 399.629l3.63062 2.51065c-1.99389,-0.206646 -2.89049,-1.29515 -3.63062,-2.51065z"/>
  <polygon fill="#644D36" points="450.566,407.897 452.214,408.574 453.894,408.708 453.894,409.519 450.717,409.519 "/>
  <path fill="#CCCCCC" d="M85.555 52.4741c12.9909,11.9874 -23.1171,9.55474 -31.7466,24.105 -4.67433,8.97506 2.08233,21.8376 10.0242,23.0298l186.019 -0.454677c18.6423,-15.1492 16.0033,-26.9209 37.2892,-29.001 -0.0578268,-3.90756 3.00303,-8.33613 6.06529,-13.2823l10.2909 -1.24073 0.435118 -4.89515c6.75071,-0.607748 13.5014,-0.697323 20.2527,-0.269008l1.57947 3.2281c59.2824,-8.94671 91.3805,7.34911 127.75,-1.20898 14.4972,18.0224 23.4116,40.8835 22.3742,72.3705l-8.14621 3.00699c-5.39433,-0.347244 -13.5264,-12.5215 -23.1738,-13.4691 -29.378,-2.88539 -60.698,6.26684 -119.979,2.60447l-0.0215433 3.48747c-6.87572,0.38863 -13.3628,0.647433 -20.2377,0.000850394l-0.754016 -5.82888 -11.3542 -0.044504c-2.43638,-1.68718 -2.15405,-4.15106 -4.97849,-7.77997 -4.82769,9.01871 -6.60756,61.1303 -18.2639,67.1689 -8.84126,4.57994 -165.467,16.1651 -225.562,-6.82186 2.27027,-15.4845 4.17402,-23.0627 2.74195,-40.4595 -1.61206,-19.5806 -25.8015,-37.4811 -11.6853,-58.146 9.93345,-14.5417 42.8454,-20.4639 51.0803,-16.1005z"/>
  <line fill="none" stroke="white" stroke-width="0.992126" x1="391.195" y1="63.8433" x2="399.317" y2= "64.1557" />
  <line fill="none" stroke="white" stroke-width="0.992126" x1="409.625" y1="64.1557" x2="414.623" y2= "64.1557" />
  <line fill="none" stroke="white" stroke-width="0.992126" x1="428.056" y1="63.8433" x2="431.179" y2= "63.8433" />
  <line fill="none" stroke="white" stroke-width="0.992126" x1="358.083" y1="60.0948" x2="363.393" y2= "60.0948" />
  <line fill="none" stroke="white" stroke-width="0.992126" x1="418.059" y1="58.8453" x2="422.745" y2= "58.8453" />
  <line fill="none" stroke="white" stroke-width="0.992126" x1="331.531" y1="61.3443" x2="335.904" y2= "61.3443" />
  <line fill="none" stroke="white" stroke-width="0.992126" x1="367.767" y1="63.8433" x2="370.266" y2= "63.8433" />
  <line fill="none" stroke="white" stroke-width="0.992126" x1="434.615" y1="58.5329" x2="437.739" y2= "58.5329" />
  <path fill="#644D36" d="M85.555 52.4741c12.9909,11.9874 -23.1171,9.55474 -31.7466,24.105 -4.67433,8.97506 2.08233,21.8376 10.0242,23.0298 -15.757,-4.46882 -19.4054,-21.4438 -8.76473,-29.954 8.27604,-6.6189 31.2999,-8.07421 30.4872,-17.1808zm367.959 0.0110551c14.4972,18.0224 23.4116,40.8835 22.3742,72.3705l-8.14621 3.00699c-5.39433,-0.347244 -13.5264,-12.5215 -23.1738,-13.4691 -29.378,-2.88539 -60.698,6.26684 -119.979,2.60447l-0.0215433 3.48747c-6.87572,0.38863 -13.3628,0.647433 -20.2377,0.000850394l-0.500032 -3.86476 18.809 0.12926 -0.987024 -66.4212c0.844158,0.0371339 1.68803,0.0830552 2.53191,0.136347l1.57947 3.2281 0.442772 45.5454 10.0528 0.648567 0.162142 1.13499 -9.40423 1.13499 0.324284 4.70211 14.2685 0.162142 0.324284 0.972851 4.86425 0.162142 0 1.13499 -18.322 0 0.162142 1.9457 1.62142 0.648567c59.7972,2.2714 79.9322,-1.86548 99.0012,-2.38451 14.3671,-0.390898 25.4035,3.13795 34.7658,14.2209l6.9721 -2.10784 0 -1.13499 -6.9721 0.324284 0 -1.13499 7.13424 -0.162142 -0.162142 -1.29713 -7.13424 0 -0.162142 -2.10784 3.56712 -0.324284 0.324284 0.810709 3.08069 0.324284c-1.6183,-4.65421 -7.32983,-24.5801 -12.1895,-41.1778 -3.49087,-11.9217 -6.92986,-19.7002 -4.97112,-23.2501zm-149.938 62.1723l-11.3542 -0.044504c-2.43638,-1.68718 -2.15405,-4.15106 -4.97849,-7.77997 -4.82769,9.01871 -6.60756,61.1303 -18.2639,67.1689 -8.84126,4.57994 -165.467,16.1651 -225.562,-6.82186 0.141732,-0.967749 0.282331,-1.41846 0.420378,-2.32866 30.0251,12.8463 77.5242,14.2739 129.01,13.5335 29.5359,-0.424914 92.905,-2.95739 95.7924,-5.86063 2.07298,-1.94542 7.23912,-17.6204 8.93197,-29.5143l-6.21355 6.14948 6.99024 -10.4213 0 -1.55339 -1.55339 0.388347 -8.47389 11.2819 6.80996 -11.8364 -1.78356 0.324284 -8.26923 10.7014 5.67496 -9.89065 -2.26999 0.162142 -9.40423 10.5392 6.9721 -10.3771 -2.10784 0.162142 -8.43137 9.72851 5.67496 -9.56637 -1.9457 0 -8.43137 9.72851 5.67496 -9.24208 -2.91855 0.162142 -7.78281 9.07994 5.35068 -8.59352 -2.10784 0 -8.10709 9.56637 5.35068 -9.56637 -2.91855 0 -8.43137 10.8635 6.16139 -10.8635 -2.59427 0 -9.24208 9.72851 5.99925 -9.56637 -1.45928 -0.162142 -8.10709 9.40423 5.51282 -9.07994 -2.43213 -0.162142 -8.59352 9.40423 5.51282 -9.24208 -2.26999 0 -8.26923 8.75566 5.99925 -8.9178 -2.43213 0 -7.45852 8.26923 4.86425 -8.26923 -2.75641 0 -8.9178 9.89065 0 -0.324284 6.64781 -9.56637 -2.91855 0 -7.94495 9.56637 5.51282 -9.24208 -2.59427 -0.162142 -9.24208 10.0528 6.64781 -10.0528 -2.26999 0 -9.07994 9.89065 6.64781 -9.89065 -2.43213 0 -9.56637 11.1878 6.64781 -10.8635 -2.43213 0 -8.9178 11.3499 6.64781 -11.6742 -3.08069 0.162142 -8.9178 11.0256 6.64781 -11.0256 -2.26999 0 -8.75566 10.5392 6.16139 -10.5392 -2.59427 0.162142 -8.75566 11.1878 6.48567 -11.3499 -1.9457 0.162142 -8.9178 10.8635 6.32353 -10.8635 -2.26999 0 -10.0528 11.3499 6.48567 -11.5121 -2.26999 0 -9.07994 10.7014 6.32353 -10.8635 -2.10784 0 -9.40423 10.8635 6.32353 -10.7014 -2.26999 0.162142 -8.75566 9.56637 5.67496 -9.40423 -2.91855 -0.162142 -7.45852 7.94495 5.18854 -8.43137 -2.91855 -0.162142 -8.9178 10.0528 5.99925 -9.72851 -1.9457 0 -8.75566 9.72851 5.99925 -9.89065 -1.62142 0.162142 -9.56637 9.07994 6.48567 -9.07994 -3.08069 -0.162142 -8.75566 9.56637 6.16139 -9.56637 -1.62142 0 -11.1878 11.0256 7.45852 -10.8635 -2.59427 0 -9.07994 9.72851 6.32353 -9.72851 -3.24284 0 -8.75566 10.0528 5.67496 -10.0528 -1.9457 0 -10.8635 10.7014 7.78281 -10.3771 -2.43213 -0.162142 -8.75566 9.40423 5.51282 -9.56637 -1.62142 0 -6.9721 7.94495 4.53997 -7.94495 -1.45928 -0.162142 -9.07994 9.72851 6.64781 -9.72851 -2.75641 0 -8.10709 9.89065 5.99925 -9.89065 -2.75641 0 -7.45852 9.24208 5.67496 -9.56637 -2.10784 0 -6.9721 9.07994 4.86425 -9.56637 -1.78356 -0.324284 -6.80996 8.9178 4.53997 -8.9178 -2.26999 0.162142 -7.45852 8.9178 5.35068 -9.72851 -1.62142 -0.486425 -8.26923 9.56637 5.51282 -9.56637 -1.29713 -0.324284 -6.48567 7.45852 4.70211 -8.26923 -1.78356 -0.486425 -2.91855 3.8914 1.45928 -5.83711c13.8473,4.88041 89.9028,4.68596 149.019,3.66378 35.1607,-0.608032 68.4726,-0.451843 79.439,-3.3395 2.1617,-12.7553 3.35084,-26.3211 6.48567,-38.2655l1.45928 2.26999c0.593575,4.6474 2.3777,8.70152 4.70211,12.4849l0.324284 -13.7821 8.59352 -0.324284 -0.648567 0.648567 -6.64781 0.324284 -0.162142 2.10784 8.59352 0 -0.162142 1.13499 -8.26923 0.162142 -0.162142 2.43213 7.94495 0 -0.486425 0.972851 -7.45852 0.324284 0 2.10784 9.72851 0 0 1.62142 -9.56637 0.648567 0 1.13499 10.5392 0.162142 0.0697323 3.90586z"/>
  <path fill="#B2B2B2" d="M472.783 115.94l-18.6463 -59.506c10.3876,13.1162 17.6488,36.2798 18.6463,59.506z"/>
  <path fill="white" d="M63.8326 99.6089l186.019 -0.454677c18.6423,-15.1492 16.0033,-26.9209 37.2892,-29.001 -0.0578268,-3.90756 3.00303,-8.33613 6.06529,-13.2823l10.2909 -1.24073 0.435118 -4.89515c5.90684,-0.53178 11.814,-0.666709 17.7208,-0.405355l0.176315 11.9415 -1.13499 0.162142 0.162142 3.24284 -0.648567 0 -0.162142 3.8914 -1.29713 0.162142 0 -7.29638 -1.29713 -0.162142 0 7.29638 -0.972851 0 -0.162142 -3.8914 -0.810709 0 -0.162142 -3.40498 -1.29713 0 0 7.94495 -1.13499 0 -0.324284 -7.78281 -1.9457 -0.162142 0 8.10709 -1.45928 0 0 -7.78281 -3.08069 0 0 51.5611 -1.45928 0 -0.486425 -41.184 -11.5121 -0.162142 0 -0.972851 11.5121 0 0 -1.13499 -11.0256 -0.162142 0.162142 -1.29713 10.0528 0 0.162142 -1.62142 -11.0256 -0.162142 0 -1.13499 10.3771 -0.486425 0 -1.29713 -10.5392 0 0 5.51282 -0.648567 0.324284 -0.162142 32.2662 -0.810709 0.162142 -0.162142 -29.5098 -2.75641 0.162142 0 14.1063 -0.810709 0 -1.45928 -13.9442c-19.5222,1.40315 -25.1144,26.1434 -36.4819,28.6991l-173.167 0.486425 -12.0271 -3.19777zm261.931 -45.9148c59.2824,-8.94671 91.3805,7.34911 127.75,-1.20898l0.460063 10.7589 -8.43137 -0.810709 0.324284 2.10784 9.24208 0.810709 0.162142 2.91855 -8.59352 -0.972851 0.648567 1.78356 9.24208 1.62142 0.972851 2.26999 -9.89065 -2.26999 1.13499 2.91855 8.43137 1.13499 0.486425 1.9457 -8.43137 -1.29713 0.810709 1.9457 9.07994 1.9457 0.486425 2.10784 -9.24208 -2.26999 0.972851 3.08069 8.59352 0.972851 0 1.62142 -8.10709 -0.972851 0.972851 2.26999 8.10709 0.972851 0.162142 1.78356 -7.29638 -0.648567 0.648567 2.26999 7.94495 0.972851 0 1.45928 -7.45852 -0.810709 0.648567 2.10784 7.78281 1.13499 0.486425 1.45928 -7.94495 -0.486425 0.810709 2.59427 8.26923 0.324284 0.162142 1.78356 -7.78281 -0.486425 0.324284 2.10784 7.94495 0.324284 0.162142 1.62142 -7.45852 -0.486425 0.486425 1.9457 6.16139 0.486425 0.162142 0.972851 -5.67496 0 4.70211 14.1063 1.78356 0.486425 -0.162142 0.648567 -2.43213 0 -6.14608 -15.4735 -3.47556 -4.18791 2.1994 -0.296504 -3.11698 -7.93049 -8.75566 -4.86425 8.59352 2.91855 -1.45928 -3.56712 -10.0528 -4.05355 1.78356 -0.324284 7.94495 2.59427 -1.45928 -3.40498 -10.7014 -4.21569 10.0528 1.9457 -1.29713 -3.24284 -9.40423 -2.26999 8.59352 0.486425 -1.78356 -4.05355 -5.18854 -1.29713 4.86425 -0.162142 -0.810709 -2.43213 -6.48567 -1.13499 5.99925 0 -0.972851 -2.59427 -9.40423 -1.45928 0 2.10784 2.75641 2.59427 -8.10709 -0.324284 0.648567 -0.486425 3.08069 0 -0.324284 -1.78356 -21.2406 -0.972851 -0.324284 1.62142 -10.2149 -0.162142 1.29713 -0.972851 8.43137 -0.648567 0.162142 -1.62142 11.1878 0 -1.78356 0.648567 12.8092 -0.648567 0.162142 -0.972851 10.2149 1.62142 -1.9457 -2.59427 -8.26923 -0.648567 -0.648567 0.972851 -21.8891 -0.486425 -7.62067 -1.45928 -3.8914 -0.162142 -0.162142 0.648567 0.972851 1.45928 6.32353 0.324284 -0.648567 0.972851 -9.07994 -0.162142 -0.486425 -2.10784 -20.9163 -1.13499 -0.162142 2.26999 7.94495 0.162142 0 0.810709 7.45852 0.324284 0 0.972851 2.10784 0.162142 0.162142 -0.810709 8.75566 0.324284 -0.324284 1.13499 -7.94495 -0.324284 -0.324284 0.648567 -13.9442 0.162142 0.324284 -2.10784 -23.0241 0 -0.162142 2.10784 21.2406 0.324284 -0.162142 0.810709 6.80996 0.486425 -0.162142 0.810709 -10.2149 -0.324284 -0.324284 -0.486425 -25.132 -0.486425 -0.810709 0.972851 5.51282 0.486425 -0.162142 1.13499 -8.43137 0 1.9457 -3.08069 -2.91855 -0.162142 -0.486425 0.972851 -14.5928 0.162142 -0.162142 -1.13499 0.972851 0 0.162142 -2.59427 -1.29713 0.324284 -0.28063 -9.71207zm-240.209 -1.22003c-8.23493,-4.36337 -41.1469,1.55877 -51.0803,16.1005 -14.1163,20.6649 10.0735,38.5654 11.6853,58.146 1.34249,16.3091 -0.246898,23.9891 -2.32158,37.6444 16.6442,-53.7296 -13.2239,-56.5189 -10.4298,-85.794 1.44227,-15.1107 18.9397,-25.7131 52.1465,-26.0969z"/>
  <rect fill="#B2B2B2" x="326.855" y="59.5148" width="11.3499" height="1.29713"/>
  <rect fill="#B2B2B2" x="341.772" y="58.2177" width="8.9178" height="2.26999"/>
  <polygon fill="#B2B2B2" points="329.287,62.9198 329.287,64.2169 343.394,64.0548 343.394,63.082 352.798,63.082 352.636,61.6227 335.449,61.7848 335.449,62.9198 "/>
  <polygon fill="#B2B2B2" points="355.716,59.3527 355.716,61.1363 362.526,61.1363 362.364,61.7848 371.444,61.7848 371.282,59.3527 363.661,59.5148 363.661,60.3255 358.149,60.3255 358.311,59.3527 "/>
  <rect fill="white" x="353.933" y="67.9462" width="9.72851" height="0.972851"/>
  <rect fill="white" x="334.314" y="67.9462" width="5.67496" height="1.13499"/>
  <rect fill="white" x="385.875" y="67.4598" width="5.67496" height="1.13499"/>
  <polygon fill="white" points="394.144,67.4598 407.44,67.4598 407.278,69.4055 401.927,69.4055 401.927,68.7569 394.144,68.7569 "/>
  <rect fill="white" x="411.007" y="67.1355" width="7.13424" height="1.45928"/>
  <polygon fill="white" points="428.356,69.8919 438.247,69.5676 438.247,70.8648 428.518,70.8648 "/>
  <rect fill="white" x="416.033" y="68.4326" width="4.37783" height="1.13499"/>
  <polygon fill="white" points="447.164,95.186 453.65,100.212 453.488,98.1046 "/>
  <rect fill="#644D36" x="286.644" y="88.5382" width="1.45928" height="9.40423"/>
  <rect fill="#644D36" x="289.238" y="95.9967" width="1.13499" height="5.35068"/>
  <rect fill="white" x="289.4" y="102.807" width="0.972851" height="4.86425"/>
  <polygon fill="#644D36" points="308.209,94.2132 309.83,94.2132 309.841,102.811 310.129,104.271 310.317,110.59 308.209,110.59 "/>
  <polygon fill="#644D36" points="311.938,93.2403 313.073,93.2403 313.198,103.456 313.645,103.635 313.722,110.427 312.1,110.427 "/>
  <polygon fill="#644D36" points="315.343,94.5375 316.478,94.3753 316.665,105.074 317.613,105.887 317.613,110.752 315.343,110.752 "/>
  <polygon fill="#644D36" points="320.207,93.2403 318.91,93.0782 318.91,110.752 321.018,110.914 321.073,101.991 320.24,101.346 "/>
  <rect fill="#644D36" x="335.287" y="94.5375" width="5.83711" height="1.29713"/>
  <polygon fill="#644D36" points="332.854,103.455 358.311,103.455 358.311,104.59 332.692,105.563 "/>
  <polygon fill="#644D36" points="345.339,98.9153 363.337,98.4289 363.337,99.4017 345.339,100.861 "/>
  <polygon fill="#644D36" points="353.284,107.022 371.12,107.022 371.12,108.968 361.554,108.968 359.294,109.639 351.265,109.769 351.374,108.334 352.96,108.32 "/>
  <polygon fill="#644D36" points="362.689,103.131 364.322,102.336 374.201,102.32 374.363,103.131 379.551,103.131 379.551,104.428 362.689,104.428 "/>
  <rect fill="#644D36" x="360.905" y="93.7268" width="8.10709" height="1.29713"/>
  <rect fill="#644D36" x="371.931" y="98.2667" width="14.2685" height="1.29713"/>
  <rect fill="#644D36" x="383.281" y="93.7268" width="10.5392" height="1.13499"/>
  <polygon fill="#644D36" points="378.416,106.86 393.009,106.86 393.845,107.708 397.063,107.671 397.063,108.968 375.822,108.968 376.012,108.031 378.294,108.082 "/>
  <polygon fill="#644D36" points="387.658,104.266 399.333,104.266 399.333,102.969 405.494,102.969 405.656,102.158 389.93,102.201 390.253,102.969 387.658,103.131 "/>
  <polygon fill="#644D36" points="393.658,99.2396 406.791,99.2396 406.791,98.2667 402.089,98.2667 402.089,97.4563 393.658,97.6182 "/>
  <polygon fill="#644D36" points="404.359,93.7268 413.925,93.7268 413.925,94.5375 410.683,94.5922 410.628,96.0594 407.925,95.9194 407.925,94.6389 404.359,94.6996 "/>
  <rect fill="#644D36" x="412.628" y="98.2667" width="11.6742" height="0.972851"/>
  <rect fill="#644D36" x="423.978" y="94.8617" width="6.48567" height="0.972851"/>
  <polygon fill="#644D36" points="425.437,105.077 438.409,105.077 439.018,106.497 442.462,106.374 442.3,107.509 426.735,107.509 "/>
  <polygon fill="#644D36" points="401.765,108.482 423.167,107.509 423.005,106.698 420.401,106.526 417.004,105.924 405.818,105.563 405.494,106.698 401.765,106.698 "/>
  <polygon fill="#644D36" points="411.331,101.996 426.572,101.996 425.6,103.617 415.223,103.942 414.898,103.131 411.331,103.131 "/>
  <polygon fill="#644D36" points="430.464,102.645 430.626,101.51 435.328,101.672 435.166,102.969 442.3,102.807 442.138,103.942 431.761,104.104 431.761,102.645 "/>
  <polygon fill="#644D36" points="431.923,99.2396 438.247,98.9153 438.247,100.375 431.923,100.375 "/>
  <path fill="#644D36" d="M457.866 115.292c-5.06268,-5.04482 -10.891,-5.14885 -13.4578,-7.62067 8.80952,0.648567 10.4851,4.86425 13.4578,7.62067z"/>
  <path fill="#644D36" d="M456.731 111.076l-5.0264 -3.24284c2.76038,0.26674 4.00167,1.67301 5.0264,3.24284z"/>
  <path fill="#644D36" d="M447.164 103.21l-3.8914 -2.51065c2.13704,0.206646 3.09799,1.29515 3.8914,2.51065z"/>
  <path fill="#644D36" d="M446.678 104.428l3.8914 2.51065c-2.13704,-0.206646 -3.09799,-1.29515 -3.8914,-2.51065z"/>
  <polygon fill="#644D36" points="462.568,112.697 464.334,113.374 466.135,113.508 466.135,114.319 462.73,114.319 "/>
  <path fill="#CCCCCC" d="M85.555 200.074c12.9909,11.9874 -23.1171,9.55474 -31.7466,24.105 -4.67433,8.97506 2.08233,21.8376 10.0242,23.0298l186.019 -0.454677c18.6423,-15.1492 16.0033,-26.9209 37.2892,-29.001 -0.0578268,-3.90756 3.00303,-8.33613 6.06529,-13.2823l10.2909 -1.24073 0.435118 -4.89515c6.75071,-0.607748 13.5014,-0.697323 20.2527,-0.269008l1.57947 3.2281c59.2824,-8.94671 91.3805,7.34911 127.75,-1.20898 14.4972,18.0224 23.4116,40.8835 22.3742,72.3705l-8.14621 3.00699c-5.39433,-0.347244 -13.5264,-12.5215 -23.1738,-13.4691 -29.378,-2.88539 -60.698,6.26684 -119.979,2.60447l-0.0215433 3.48747c-6.87572,0.38863 -13.3628,0.647433 -20.2377,0.000850394l-0.754016 -5.82888 -11.3542 -0.044504c-2.43638,-1.68718 -2.15405,-4.15106 -4.97849,-7.77997 -4.82769,9.01871 -6.60756,61.1303 -18.2639,67.1689 -8.84126,4.57994 -165.467,16.1651 -225.562,-6.82186 2.27027,-15.4845 4.17402,-23.0627 2.74195,-40.4595 -1.61206,-19.5806 -25.8015,-37.4811 -11.6853,-58.146 9.93345,-14.5417 42.8454,-20.4639 51.0803,-16.1005z"/>
  <line fill="none" stroke="white" stroke-width="0.992126" x1="391.195" y1="211.443" x2="399.317" y2= "211.756" />
  <line fill="none" stroke="white" stroke-width="0.992126" x1="409.625" y1="211.756" x2="414.623" y2= "211.756" />
  <line fill="none" stroke="white" stroke-width="0.992126" x1="428.056" y1="211.443" x2="431.179" y2= "211.443" />
  <line fill="none" stroke="white" stroke-width="0.992126" x1="358.083" y1="207.695" x2="363.393" y2= "207.695" />
  <line fill="none" stroke="white" stroke-width="0.992126" x1="418.059" y1="206.445" x2="422.745" y2= "206.445" />
  <line fill="none" stroke="white" stroke-width="0.992126" x1="331.531" y1="208.944" x2="335.904" y2= "208.944" />
  <line fill="none" stroke="white" stroke-width="0.992126" x1="367.767" y1="211.443" x2="370.266" y2= "211.443" />
  <line fill="none" stroke="white" stroke-width="0.992126" x1="434.615" y1="206.133" x2="437.739" y2= "206.133" />
  <path fill="#644D36" d="M85.555 200.074c12.9909,11.9874 -23.1171,9.55474 -31.7466,24.105 -4.67433,8.97506 2.08233,21.8376 10.0242,23.0298 -15.757,-4.46882 -19.4054,-21.4438 -8.76473,-29.954 8.27604,-6.6189 31.2999,-8.07421 30.4872,-17.1808zm367.959 0.0110551c14.4972,18.0224 23.4116,40.8835 22.3742,72.3705l-8.14621 3.00699c-5.39433,-0.347244 -13.5264,-12.5215 -23.1738,-13.4691 -29.378,-2.88539 -60.698,6.26684 -119.979,2.60447l-0.0215433 3.48747c-6.87572,0.38863 -13.3628,0.647433 -20.2377,0.000850394l-0.500032 -3.86476 18.809 0.12926 -0.987024 -66.4212c0.844158,0.0371339 1.68803,0.0830552 2.53191,0.136347l1.57947 3.2281 0.442772 45.5454 10.0528 0.648567 0.162142 1.13499 -9.40423 1.13499 0.324284 4.70211 14.2685 0.162142 0.324284 0.972851 4.86425 0.162142 0 1.13499 -18.322 0 0.162142 1.9457 1.62142 0.648567c59.7972,2.2714 79.9322,-1.86548 99.0012,-2.38451 14.3671,-0.390898 25.4035,3.13795 34.7658,14.2209l6.9721 -2.10784 0 -1.13499 -6.9721 0.324284 0 -1.13499 7.13424 -0.162142 -0.162142 -1.29713 -7.13424 0 -0.162142 -2.10784 3.56712 -0.324284 0.324284 0.810709 3.08069 0.324284c-1.6183,-4.65421 -7.32983,-24.5801 -12.1895,-41.1778 -3.49087,-11.9217 -6.92986,-19.7002 -4.97112,-23.2501zm-149.938 62.1723l-11.3542 -0.044504c-2.43638,-1.68718 -2.15405,-4.15106 -4.97849,-7.77997 -4.82769,9.01871 -6.60756,61.1303 -18.2639,67.1689 -8.84126,4.57994 -165.467,16.1651 -225.562,-6.82186 0.141732,-0.967749 0.282331,-1.41846 0.420378,-2.32866 30.0251,12.8463 77.5242,14.2739 129.01,13.5335 29.5359,-0.424914 92.905,-2.95739 95.7924,-5.86063 2.07298,-1.94542 7.23912,-17.6204 8.93197,-29.5143l-6.21355 6.14948 6.99024 -10.4213 0 -1.55339 -1.55339 0.388347 -8.47389 11.2819 6.80996 -11.8364 -1.78356 0.324284 -8.26923 10.7014 5.67496 -9.89065 -2.26999 0.162142 -9.40423 10.5392 6.9721 -10.3771 -2.10784 0.162142 -8.43137 9.72851 5.67496 -9.56637 -1.9457 0 -8.43137 9.72851 5.67496 -9.24208 -2.91855 0.162142 -7.78281 9.07994 5.35068 -8.59352 -2.10784 0 -8.10709 9.56637 5.35068 -9.56637 -2.91855 0 -8.43137 10.8635 6.16139 -10.8635 -2.59427 0 -9.24208 9.72851 5.99925 -9.56637 -1.45928 -0.162142 -8.10709 9.40423 5.51282 -9.07994 -2.43213 -0.162142 -8.59352 9.40423 5.51282 -9.24208 -2.26999 0 -8.26923 8.75566 5.99925 -8.9178 -2.43213 0 -7.45852 8.26923 4.86425 -8.26923 -2.75641 0 -8.9178 9.89065 0 -0.324284 6.64781 -9.56637 -2.91855 0 -7.94495 9.56637 5.51282 -9.24208 -2.59427 -0.162142 -9.24208 10.0528 6.64781 -10.0528 -2.26999 0 -9.07994 9.89065 6.64781 -9.89065 -2.43213 0 -9.56637 11.1878 6.64781 -10.8635 -2.43213 0 -8.9178 11.3499 6.64781 -11.6742 -3.08069 0.162142 -8.9178 11.0256 6.64781 -11.0256 -2.26999 0 -8.75566 10.5392 6.16139 -10.5392 -2.59427 0.162142 -8.75566 11.1878 6.48567 -11.3499 -1.9457 0.162142 -8.9178 10.8635 6.32353 -10.8635 -2.26999 0 -10.0528 11.3499 6.48567 -11.5121 -2.26999 0 -9.07994 10.7014 6.32353 -10.8635 -2.10784 0 -9.40423 10.8635 6.32353 -10.7014 -2.26999 0.162142 -8.75566 9.56637 5.67496 -9.40423 -2.91855 -0.162142 -7.45852 7.94495 5.18854 -8.43137 -2.91855 -0.162142 -8.9178 10.0528 5.99925 -9.72851 -1.9457 0 -8.75566 9.72851 5.99925 -9.89065 -1.62142 0.162142 -9.56637 9.07994 6.48567 -9.07994 -3.08069 -0.162142 -8.75566 9.56637 6.16139 -9.56637 -1.62142 0 -11.1878 11.0256 7.45852 -10.8635 -2.59427 0 -9.07994 9.72851 6.32353 -9.72851 -3.24284 0 -8.75566 10.0528 5.67496 -10.0528 -1.9457 0 -10.8635 10.7014 7.78281 -10.3771 -2.43213 -0.162142 -8.75566 9.40423 5.51282 -9.56637 -1.62142 0 -6.9721 7.94495 4.53997 -7.94495 -1.45928 -0.162142 -9.07994 9.72851 6.64781 -9.72851 -2.75641 0 -8.10709 9.89065 5.99925 -9.89065 -2.75641 0 -7.45852 9.24208 5.67496 -9.56637 -2.10784 0 -6.9721 9.07994 4.86425 -9.56637 -1.78356 -0.324284 -6.80996 8.9178 4.53997 -8.9178 -2.26999 0.162142 -7.45852 8.9178 5.35068 -9.72851 -1.62142 -0.486425 -8.26923 9.56637 5.51282 -9.56637 -1.29713 -0.324284 -6.48567 7.45852 4.70211 -8.26923 -1.78356 -0.486425 -2.91855 3.8914 1.45928 -5.83711c13.8473,4.88041 89.9028,4.68596 149.019,3.66378 35.1607,-0.608032 68.4726,-0.451843 79.439,-3.3395 2.1617,-12.7553 3.35084,-26.3211 6.48567,-38.2655l1.45928 2.26999c0.593575,4.6474 2.3777,8.70152 4.70211,12.4849l0.324284 -13.7821 8.59352 -0.324284 -0.648567 0.648567 -6.64781 0.324284 -0.162142 2.10784 8.59352 0 -0.162142 1.13499 -8.26923 0.162142 -0.162142 2.43213 7.94495 0 -0.486425 0.972851 -7.45852 0.324284 0 2.10784 9.72851 0 0 1.62142 -9.56637 0.648567 0 1.13499 10.5392 0.162142 0.0697323 3.90586z"/>
  <path fill="#B2B2B2" d="M472.783 263.54l-18.6463 -59.506c10.3876,13.1162 17.6488,36.2798 18.6463,59.506z"/>
  <path fill="white" d="M63.8326 247.209l186.019 -0.454677c18.6423,-15.1492 16.0033,-26.9209 37.2892,-29.001 -0.0578268,-3.90756 3.00303,-8.33613 6.06529,-13.2823l10.2909 -1.24073 0.435118 -4.89515c5.90684,-0.53178 11.814,-0.666709 17.7208,-0.405355l0.176315 11.9415 -1.13499 0.162142 0.162142 3.24284 -0.648567 0 -0.162142 3.8914 -1.29713 0.162142 0 -7.29638 -1.29713 -0.162142 0 7.29638 -0.972851 0 -0.162142 -3.8914 -0.810709 0 -0.162142 -3.40498 -1.29713 0 0 7.94495 -1.13499 0 -0.324284 -7.78281 -1.9457 -0.162142 0 8.10709 -1.45928 0 0 -7.78281 -3.08069 0 0 51.5611 -1.45928 0 -0.486425 -41.184 -11.5121 -0.162142 0 -0.972851 11.5121 0 0 -1.13499 -11.0256 -0.162142 0.162142 -1.29713 10.0528 0 0.162142 -1.62142 -11.0256 -0.162142 0 -1.13499 10.3771 -0.486425 0 -1.29713 -10.5392 0 0 5.51282 -0.648567 0.324284 -0.162142 32.2662 -0.810709 0.162142 -0.162142 -29.5098 -2.75641 0.162142 0 14.1063 -0.810709 0 -1.45928 -13.9442c-19.5222,1.40315 -25.1144,26.1434 -36.4819,28.6991l-173.167 0.486425 -12.0271 -3.19777zm261.931 -45.9148c59.2824,-8.94671 91.3805,7.34911 127.75,-1.20898l0.460063 10.7589 -8.43137 -0.810709 0.324284 2.10784 9.24208 0.810709 0.162142 2.91855 -8.59352 -0.972851 0.648567 1.78356 9.24208 1.62142 0.972851 2.26999 -9.89065 -2.26999 1.13499 2.91855 8.43137 1.13499 0.486425 1.9457 -8.43137 -1.29713 0.810709 1.9457 9.07994 1.9457 0.486425 2.10784 -9.24208 -2.26999 0.972851 3.08069 8.59352 0.972851 0 1.62142 -8.10709 -0.972851 0.972851 2.26999 8.10709 0.972851 0.162142 1.78356 -7.29638 -0.648567 0.648567 2.26999 7.94495 0.972851 0 1.45928 -7.45852 -0.810709 0.648567 2.10784 7.78281 1.13499 0.486425 1.45928 -7.94495 -0.486425 0.810709 2.59427 8.26923 0.324284 0.162142 1.78356 -7.78281 -0.486425 0.324284 2.10784 7.94495 0.324284 0.162142 1.62142 -7.45852 -0.486425 0.486425 1.9457 6.16139 0.486425 0.162142 0.972851 -5.67496 0 4.70211 14.1063 1.78356 0.486425 -0.162142 0.648567 -2.43213 0 -6.14608 -15.4735 -3.47556 -4.18791 2.1994 -0.296504 -3.11698 -7.93049 -8.75566 -4.86425 8.59352 2.91855 -1.45928 -3.56712 -10.0528 -4.05355 1.78356 -0.324284 7.94495 2.59427 -1.45928 -3.40498 -10.7014 -4.21569 10.0528 1.9457 -1.29713 -3.24284 -9.40423 -2.26999 8.59352 0.486425 -1.78356 -4.05355 -5.18854 -1.29713 4.86425 -0.162142 -0.810709 -2.43213 -6.48567 -1.13499 5.99925 0 -0.972851 -2.59427 -9.40423 -1.45928 0 2.10784 2.75641 2.59427 -8.10709 -0.324284 0.648567 -0.486425 3.08069 0 -0.324284 -1.78356 -21.2406 -0.972851 -0.324284 1.62142 -10.2149 -0.162142 1.29713 -0.972851 8.43137 -0.648567 0.162142 -1.62142 11.1878 0 -1.78356 0.648567 12.8092 -0.648567 0.162142 -0.972851 10.2149 1.62142 -1.9457 -2.59427 -8.26923 -0.648567 -0.648567 0.972851 -21.8891 -0.486425 -7.62067 -1.45928 -3.8914 -0.162142 -0.162142 0.648567 0.972851 1.45928 6.32353 0.324284 -0.648567 0.972851 -9.07994 -0.162142 -0.486425 -2.10784 -20.9163 -1.13499 -0.162142 2.26999 7.94495 0.162142 0 0.810709 7.45852 0.324284 0 0.972851 2.10784 0.162142 0.162142 -0.810709 8.75566 0.324284 -0.324284 1.13499 -7.94495 -0.324284 -0.324284 0.648567 -13.9442 0.162142 0.324284 -2.10784 -23.0241 0 -0.162142 2.10784 21.2406 0.324284 -0.162142 0.810709 6.80996 0.486425 -0.162142 0.810709 -10.2149 -0.324284 -0.324284 -0.486425 -25.132 -0.486425 -0.810709 0.972851 5.51282 0.486425 -0.162142 1.13499 -8.43137 0 1.9457 -3.08069 -2.91855 -0.162142 -0.486425 0.972851 -14.5928 0.162142 -0.162142 -1.13499 0.972851 0 0.162142 -2.59427 -1.29713 0.324284 -0.28063 -9.71207zm-240.209 -1.22003c-8.23493,-4.36337 -41.1469,1.55877 -51.0803,16.1005 -14.1163,20.6649 10.0735,38.5654 11.6853,58.146 1.34249,16.3091 -0.246898,23.9891 -2.32158,37.6444 16.6442,-53.7296 -13.2239,-56.5189 -10.4298,-85.794 1.44227,-15.1107 18.9397,-25.7131 52.1465,-26.0969z"/>
  <rect fill="#B2B2B2" x="326.855" y="207.115" width="11.3499" height="1.29713"/>
  <rect fill="#B2B2B2" x="341.772" y="205.818" width="8.9178" height="2.26999"/>
  <polygon fill="#B2B2B2" points="329.287,210.52 329.287,211.817 343.394,211.655 343.394,210.682 352.798,210.682 352.636,209.223 335.449,209.385 335.449,210.52 "/>
  <polygon fill="#B2B2B2" points="355.716,206.953 355.716,208.736 362.526,208.736 362.364,209.385 371.444,209.385 371.282,206.953 363.661,207.115 363.661,207.926 358.149,207.926 358.311,206.953 "/>
  <rect fill="white" x="353.933" y="215.546" width="9.72851" height="0.972851"/>
  <rect fill="white" x="334.314" y="215.546" width="5.67496" height="1.13499"/>
  <rect fill="white" x="385.875" y="215.06" width="5.67496" height="1.13499"/>
  <polygon fill="white" points="394.144,215.06 407.44,215.06 407.278,217.006 401.927,217.006 401.927,216.357 394.144,216.357 "/>
  <rect fill="white" x="411.007" y="214.736" width="7.13424" height="1.45928"/>
  <polygon fill="white" points="428.356,217.492 438.247,217.168 438.247,218.465 428.518,218.465 "/>
  <rect fill="white" x="416.033" y="216.033" width="4.37783" height="1.13499"/>
  <polygon fill="white" points="447.164,242.786 453.65,247.813 453.488,245.705 "/>
  <rect fill="#644D36" x="286.644" y="236.138" width="1.45928" height="9.40423"/>
  <rect fill="#644D36" x="289.238" y="243.597" width="1.13499" height="5.35068"/>
  <rect fill="white" x="289.4" y="250.407" width="0.972851" height="4.86425"/>
  <polygon fill="#644D36" points="308.209,241.813 309.83,241.813 309.841,250.411 310.129,251.871 310.317,258.19 308.209,258.19 "/>
  <polygon fill="#644D36" points="311.938,240.84 313.073,240.84 313.198,251.056 313.645,251.235 313.722,258.027 312.1,258.027 "/>
  <polygon fill="#644D36" points="315.343,242.138 316.478,241.975 316.665,252.674 317.613,253.487 317.613,258.352 315.343,258.352 "/>
  <polygon fill="#644D36" points="320.207,240.84 318.91,240.678 318.91,258.352 321.018,258.514 321.073,249.592 320.24,248.946 "/>
  <rect fill="#644D36" x="335.287" y="242.138" width="5.83711" height="1.29713"/>
  <polygon fill="#644D36" points="332.854,251.055 358.311,251.055 358.311,252.19 332.692,253.163 "/>
  <polygon fill="#644D36" points="345.339,246.515 363.337,246.029 363.337,247.002 345.339,248.461 "/>
  <polygon fill="#644D36" points="353.284,254.622 371.12,254.622 371.12,256.568 361.554,256.568 359.294,257.239 351.265,257.369 351.374,255.934 352.96,255.92 "/>
  <polygon fill="#644D36" points="362.689,250.731 364.322,249.936 374.201,249.92 374.363,250.731 379.551,250.731 379.551,252.028 362.689,252.028 "/>
  <rect fill="#644D36" x="360.905" y="241.327" width="8.10709" height="1.29713"/>
  <rect fill="#644D36" x="371.931" y="245.867" width="14.2685" height="1.29713"/>
  <rect fill="#644D36" x="383.281" y="241.327" width="10.5392" height="1.13499"/>
  <polygon fill="#644D36" points="378.416,254.46 393.009,254.46 393.845,255.308 397.063,255.271 397.063,256.568 375.822,256.568 376.012,255.631 378.294,255.682 "/>
  <polygon fill="#644D36" points="387.658,251.866 399.333,251.866 399.333,250.569 405.494,250.569 405.656,249.758 389.93,249.801 390.253,250.569 387.658,250.731 "/>
  <polygon fill="#644D36" points="393.658,246.84 406.791,246.84 406.791,245.867 402.089,245.867 402.089,245.056 393.658,245.218 "/>
  <polygon fill="#644D36" points="404.359,241.327 413.925,241.327 413.925,242.138 410.683,242.192 410.628,243.659 407.925,243.519 407.925,242.239 404.359,242.3 "/>
  <rect fill="#644D36" x="412.628" y="245.867" width="11.6742" height="0.972851"/>
  <rect fill="#644D36" x="423.978" y="242.462" width="6.48567" height="0.972851"/>
  <polygon fill="#644D36" points="425.437,252.677 438.409,252.677 439.018,254.097 442.462,253.974 442.3,255.109 426.735,255.109 "/>
  <polygon fill="#644D36" points="401.765,256.082 423.167,255.109 423.005,254.298 420.401,254.126 417.004,253.524 405.818,253.163 405.494,254.298 401.765,254.298 "/>
  <polygon fill="#644D36" points="411.331,249.596 426.572,249.596 425.6,251.217 415.223,251.542 414.898,250.731 411.331,250.731 "/>
  <polygon fill="#644D36" points="430.464,250.245 430.626,249.11 435.328,249.272 435.166,250.569 442.3,250.407 442.138,251.542 431.761,251.704 431.761,250.245 "/>
  <polygon fill="#644D36" points="431.923,246.84 438.247,246.515 438.247,247.975 431.923,247.975 "/>
  <path fill="#644D36" d="M457.866 262.892c-5.06268,-5.04482 -10.891,-5.14885 -13.4578,-7.62067 8.80952,0.648567 10.4851,4.86425 13.4578,7.62067z"/>
  <path fill="#644D36" d="M456.731 258.676l-5.0264 -3.24284c2.76038,0.26674 4.00167,1.67301 5.0264,3.24284z"/>
  <path fill="#644D36" d="M447.164 250.81l-3.8914 -2.51065c2.13704,0.206646 3.09799,1.29515 3.8914,2.51065z"/>
  <path fill="#644D36" d="M446.678 252.028l3.8914 2.51065c-2.13704,-0.206646 -3.09799,-1.29515 -3.8914,-2.51065z"/>
  <polygon fill="#644D36" points="462.568,260.297 464.334,260.974 466.135,261.108 466.135,261.919 462.73,261.919 "/>
 </g>
</svg>
