<?xml version="1.0" encoding="UTF-8"?>
<!DOCTYPE svg PUBLIC "-//W3C//DTD SVG 1.1//EN" "http://www.w3.org/Graphics/SVG/1.1/DTD/svg11.dtd">
<!-- Creator: CorelDRAW -->
<svg xmlns="http://www.w3.org/2000/svg" xml:space="preserve" width="500px" height="592px" shape-rendering="geometricPrecision" text-rendering="geometricPrecision" image-rendering="optimizeQuality" fill-rule="evenodd" clip-rule="evenodd"
viewBox="0 0 500 592"
 xmlns:xlink="http://www.w3.org/1999/xlink"
 xmlns:svg="http://www.w3.org/2000/svg"
 version="1.0">
 <g id="Layer_x0020_1">
  <metadata id="CorelCorpID_0Corel-Layer"/>
  <path id="path1937" fill="#0057F0" stroke="black" stroke-width="1.41732" d="M0.901418 1.02784l498.229 -0.000566929 -0.000850394 353.798c-22.4697,315.868 -479.957,315.237 -498.228,0.0428032l0 -353.84z"/>
  <ellipse fill="#BF9F4F" stroke="#4F2900" stroke-width="1.41732" transform="matrix(-0.724942 0.321209 0.255578 0.576818 381.21 213.29)" rx="7.31424" ry="6.38051"/>
  <ellipse fill="#BF9F4F" stroke="#4F2900" stroke-width="1.98425" cx="244.733" cy="47.4308" rx="6.47328" ry="5.64691"/>
  <ellipse fill="#BF9F4F" stroke="#4F2900" stroke-width="1.41732" cx="253.252" cy="43.0513" rx="6.02986" ry="5.26009"/>
  <ellipse fill="#BF9F4F" stroke="#4F2900" stroke-width="1.41732" cx="378.328" cy="204.655" rx="6.19078" ry="5.40047"/>
  <ellipse fill="#BF9F4F" stroke="#4F2900" stroke-width="1.41732" cx="375.225" cy="194.607" rx="6.0424" ry="5.27103"/>
  <ellipse fill="#BF9F4F" stroke="#4F2900" stroke-width="1.41732" cx="370.846" cy="183.941" rx="6.82326" ry="5.95221"/>
  <ellipse fill="#BF9F4F" stroke="#4F2900" stroke-width="1.41732" cx="362.513" cy="163.385" rx="5.81392" ry="5.07171"/>
  <ellipse fill="#BF9F4F" stroke="#4F2900" stroke-width="1.41732" cx="366.859" cy="173.07" rx="6.36657" ry="5.55382"/>
  <ellipse fill="#BF9F4F" stroke="#4F2900" stroke-width="1.41732" cx="357.581" cy="154.664" rx="5.76302" ry="5.02732"/>
  <ellipse fill="#BF9F4F" stroke="#4F2900" stroke-width="1.41732" cx="352.724" cy="144.7" rx="6.71102" ry="5.85429"/>
  <ellipse fill="#BF9F4F" stroke="#4F2900" stroke-width="1.41732" cx="345.719" cy="134.408" rx="6.73364" ry="5.87403"/>
  <ellipse fill="#BF9F4F" stroke="#4F2900" stroke-width="1.41732" cx="338.345" cy="124.468" rx="6.73364" ry="5.87403"/>
  <ellipse fill="#BF9F4F" stroke="#4F2900" stroke-width="1.41732" cx="330.969" cy="114.248" rx="6.41299" ry="5.59431"/>
  <ellipse fill="#BF9F4F" stroke="#4F2900" stroke-width="1.41732" cx="323.274" cy="104.669" rx="6.09234" ry="5.3146"/>
  <ellipse fill="#BF9F4F" stroke="#4F2900" stroke-width="1.41732" cx="315.739" cy="96.1516" rx="6.25267" ry="5.45445"/>
  <ellipse fill="#BF9F4F" stroke="#4F2900" stroke-width="1.41732" cx="307.562" cy="86.9926" rx="6.41299" ry="5.59431"/>
  <ellipse fill="#BF9F4F" stroke="#4F2900" stroke-width="1.41732" cx="299.682" cy="78.2073" rx="6.25267" ry="5.45445"/>
  <ellipse fill="#BF9F4F" stroke="#4F2900" stroke-width="1.41732" cx="290.684" cy="70.8903" rx="5.95157" ry="5.1918"/>
  <ellipse fill="#BF9F4F" stroke="#4F2900" stroke-width="1.41732" cx="281.886" cy="63.993" rx="6.09234" ry="5.3146"/>
  <ellipse fill="#BF9F4F" stroke="#4F2900" stroke-width="1.41732" cx="271.387" cy="56.649" rx="6.49574" ry="5.6665"/>
  <ellipse fill="#BF9F4F" stroke="#4F2900" stroke-width="1.41732" cx="262.604" cy="48.7641" rx="6.02986" ry="5.26009"/>
  <ellipse fill="#BF9F4F" stroke="#4F2900" stroke-width="1.41732" cx="127.065" cy="194.526" rx="6.82326" ry="7.21969"/>
  <ellipse fill="#BF9F4F" stroke="#4F2900" stroke-width="1.41732" cx="122.394" cy="206.728" rx="6.91228" ry="6.85033"/>
  <ellipse fill="#BF9F4F" stroke="#4F2900" stroke-width="1.41732" cx="130.262" cy="182.139" rx="6.82326" ry="5.95221"/>
  <ellipse fill="#BF9F4F" stroke="#4F2900" stroke-width="1.41732" cx="137.415" cy="162.42" rx="6.98194" ry="6.09063"/>
  <ellipse fill="#BF9F4F" stroke="#4F2900" stroke-width="1.41732" cx="133.626" cy="172.513" rx="6.36657" ry="5.55382"/>
  <ellipse fill="#BF9F4F" stroke="#4F2900" stroke-width="1.41732" cx="143.128" cy="151.433" rx="6.98193" ry="6.09062"/>
  <ellipse fill="#BF9F4F" stroke="#4F2900" stroke-width="1.41732" cx="148.801" cy="141.99" rx="6.94278" ry="6.05647"/>
  <ellipse fill="#BF9F4F" stroke="#4F2900" stroke-width="1.41732" cx="156.633" cy="130.457" rx="6.89474" ry="6.01456"/>
  <ellipse fill="#BF9F4F" stroke="#4F2900" stroke-width="1.41732" cx="164.184" cy="120.279" rx="6.89474" ry="6.01456"/>
  <ellipse fill="#BF9F4F" stroke="#4F2900" stroke-width="1.41732" cx="171.079" cy="109.158" rx="6.56642" ry="5.72815"/>
  <ellipse fill="#BF9F4F" stroke="#4F2900" stroke-width="1.41732" cx="179.615" cy="100.007" rx="6.2381" ry="5.44175"/>
  <ellipse fill="#BF9F4F" stroke="#4F2900" stroke-width="1.98425" cx="185.813" cy="91.3948" rx="6.18854" ry="5.39852"/>
  <ellipse fill="#BF9F4F" stroke="#4F2900" stroke-width="1.98425" cx="194.372" cy="85.2316" rx="6.81398" ry="5.94411"/>
  <ellipse fill="#BF9F4F" stroke="#4F2900" stroke-width="1.98425" cx="204.082" cy="76.5655" rx="6.64363" ry="5.79551"/>
  <ellipse fill="#BF9F4F" stroke="#4F2900" stroke-width="1.98425" cx="213.642" cy="68.7911" rx="6.32371" ry="5.51643"/>
  <ellipse fill="#BF9F4F" stroke="#4F2900" stroke-width="1.98425" cx="222.991" cy="61.4624" rx="6.47328" ry="5.64691"/>
  <ellipse fill="#BF9F4F" stroke="#4F2900" stroke-width="1.98425" cx="233.893" cy="53.967" rx="6.47328" ry="5.64691"/>
  <path id="path1937_0" fill="#4F2900" d="M496.179 376.399c-42.3244,284.54 -456.507,283.194 -492.958,-2.3777 30.1275,-13.8566 42.3088,-23.8828 72.8326,-23.6925 30.5235,0.189921 58.7452,22.985 89.9538,24.4996 31.2083,1.51484 67.2755,-18.3954 96.6748,-16.9693 29.399,1.42611 49.4873,18.1902 79.4135,18.6786 29.9262,0.48841 56.4633,-15.7782 92.6743,-16.3724 36.2109,-0.594425 43.7406,10.9284 61.4092,16.2337z"/>
  <path id="path1937_1" fill="#BF9F4F" d="M496.179 378.889c-42.3244,284.54 -456.507,283.194 -492.958,-2.3777 36.9749,-16.346 42.3088,-23.8828 72.8326,-23.6925 30.5235,0.189921 58.7452,22.985 89.9538,24.4996 31.2083,1.51484 67.2755,-18.3954 96.6748,-16.9693 29.399,1.42611 49.4873,18.1902 79.4135,18.6786 29.9262,0.48841 56.4633,-15.7782 92.6743,-16.3724 36.2109,-0.594425 43.7406,10.9284 61.4092,16.2337z"/>
  <path fill="#4F2900" stroke="#4F2900" stroke-width="0.992126" d="M228.524 415.92c7.78111,1.14123 118.895,-0.829985 178.343,-1.24498 20.6459,0 25.107,21.4759 16.1847,28.9457 -9.37021,6.32183 -18.631,5.94596 -24.5591,2.39613 -6.27392,-3.75704 -6.55824,-11.3346 -11.2368,-11.8253 -109.453,-0.695622 -137.361,6.07862 -156.553,1.64806l-2.17871 -19.9196z"/>
  <path fill="#0057F0" stroke="#4F2900" stroke-width="0.992126" d="M226.345 415.298c7.78111,1.14123 118.895,-0.829985 178.343,-1.24498 20.6459,0 25.107,21.4759 16.1847,28.9457 -9.37021,6.32183 -18.631,5.94596 -24.5591,2.39613 -6.27392,-3.75704 -6.55824,-11.3346 -11.2368,-11.8253 -109.453,-0.695622 -137.361,6.07862 -156.553,1.64806l-2.17871 -19.9196z"/>
  <path fill="#4F2900" stroke="#4F2900" stroke-width="0.992126" d="M133.595 414.675c32.1619,1.24498 58.4102,1.86747 89.3271,-0.311244 6.01739,-1.14123 6.74363,24.7958 5.29115,25.2108 -16.7148,3.32306 -49.091,-0.300756 -54.2894,1.46636 -1.23421,24.3771 3.23377,47.1943 14.4502,70.7423 -19.9196,10.2711 -42.9517,9.33733 -67.8512,-2.8012 13.4487,-30.596 22.9062,-61.2165 13.0723,-94.307z"/>
  <path fill="#0057F0" stroke="#4F2900" stroke-width="0.992126" d="M132.661 414.053c32.1619,1.24498 59.3439,1.55622 90.2608,-0.622489 6.01739,-1.14123 6.12114,23.8621 4.66866,24.2771 -16.7148,3.32306 -50.5477,-0.20126 -55.7462,1.56586 -1.23421,24.3771 3.75676,48.3398 14.9732,71.8878 -19.9196,10.2711 -42.3292,9.33733 -67.2288,-2.8012 13.4487,-30.596 22.9062,-61.2165 13.0723,-94.307z"/>
  <path fill="#4F2900" d="M123.324 374.836c-10.8417,-8.14479 -23.3952,-13.4359 -36.7268,-17.4297l-2.48995 4.35742c12.6828,2.41172 25.7029,6.50948 39.2168,13.0723z"/>
  <path fill="#4F2900" d="M314.124 382.036c-10.8417,-8.14479 -23.3952,-13.4359 -36.7268,-17.4297l-2.48995 4.35742c12.6828,2.41172 25.7029,6.50948 39.2168,13.0723z"/>
  <path fill="#4F2900" d="M481.01 383.457c-10.8417,-8.14479 -17.4816,-11.2572 -30.8132,-15.251l-2.48995 4.35742c12.6828,2.41172 19.7892,4.33077 33.3031,10.8935z"/>
  <g id="_46730744">
   <path id="_46767640" fill="#BF9F4F" stroke="#4F2900" stroke-width="1.41732" d="M53.2936 301.382c8.22955,6.93468 19.1829,8.0847 34.8829,-0.750048l0.288567 -7.8823c7.45541,-8.64681 38.6615,-7.52315 53.1998,0.404788l0.155339 6.14495c5.85695,6.43493 26.4334,4.23751 39.0835,-1.96356l2.17871 18.6747c-17.1139,13.2035 -52.4875,10.1682 -49.1607,-3.50504 -18.5922,-5.38328 -29.2065,-7.45796 -35.8206,-3.04328 1.76655,2.38649 2.15887,6.47065 0.916441,8.43478 -4.43906,7.0166 -25.1538,10.2059 -46.969,7.13963l1.24498 -23.6546z"/>
   <path id="_46789728" fill="none" stroke="#4F2900" stroke-width="1.41732" d="M88.153 300.137c-0.208913,5.7087 -0.312662,11.2079 0.311244,15.251 6.53613,0.103748 6.53613,1.45247 10.5823,2.17871"/>
   <path id="_46639912" fill="none" stroke="#4F2900" stroke-width="1.41732" d="M141.687 299.204c-0.25937,4.20151 0.0513071,10.1149 0.622489,16.8072 -2.90495,0.414992 -5.3949,1.24498 -7.46986,2.48995"/>
   <path id="_46186904" fill="#644D36" stroke="#4F2900" stroke-width="1.41732" d="M98.424 309.786c-3.11131,0.821764 -5.91279,3.10706 -9.02608,5.6024 2.69518,-0.107717 4.66611,0.407339 9.02608,2.8012 1.45247,-3.21619 1.86747,-6.01739 0,-8.40359z"/>
   <path id="_47629960" fill="#644D36" stroke="#4F2900" stroke-width="1.41732" d="M133.283 311.965c2.8012,0.620221 5.60211,2.59228 8.40359,4.04618 -2.90636,0.31011 -4.46372,1.34617 -6.53613,2.48995 -0.83452,-1.24328 -1.86973,-4.46032 -1.86747,-6.53613z"/>
  </g>
  <path fill="#BF9F4F" stroke="#4F2900" stroke-width="1.41732" d="M456.752 299.057c-9.19078,5.292 -19.4865,7.42082 -35.8591,0.708945l-0.309543 -7.6595c-7.99654,-9.76848 -43.0248,-10.3666 -58.6188,-1.41024l-0.166394 6.94177c-5.86687,8.51471 -24.8244,3.85342 -38.8089,-4.39654l-4.51559 18.2954c9.77755,18.3773 59.2946,18.932 49.9289,-0.224504 19.942,-6.08145 35.3733,-3.13399 42.4675,1.85329 0.709796,2.69547 2.36013,4.19698 2.12939,6.41594 6.63648,10.114 22.0125,9.88385 42.2867,2.77455l1.4658 -23.2991z"/>
  <path fill="#BF9F4F" stroke="#4F2900" stroke-width="1.98425" d="M123.385 215.469c21.9441,-72.451 59.7833,-132.354 129.044,-167.449 56.1084,35.356 101.478,88.0138 127.706,171.513 -34.1487,25.7179 -44.5941,59.1534 -43.0475,96.4934 -62.811,-16.3403 -119.975,-15.3031 -171.996,1.55622 -4.77241,-51.8825 -18.6747,-85.9204 -41.7067,-102.114z"/>
  <path fill="none" stroke="#4F2900" stroke-width="1.98425" d="M164.036 307.614c53.1153,-17.4053 116.781,-20.2272 172.906,0.754583"/>
  <path fill="none" stroke="#4F2900" stroke-width="1.98425" d="M160.05 283.641c49.5312,-23.6302 126.4,-25.4475 179.564,-1.87257"/>
  <path fill="#F00000" stroke="#4F2900" stroke-width="1.98425" d="M262.332 256.784l3.4801 -162.701c14.0757,16.3264 59.4513,47.6637 93.3619,145.631 -8.30892,10.4516 -13.9592,21.7695 -17.4838,33.7788 -25.8452,-10.273 -53.2741,-15.4026 -79.3582,-16.7097zm-33.2691 0.372189c-29.0089,2.13137 -54.286,8.86791 -70.8767,17.9719 -4.04249,-16.0387 -9.48161,-29.348 -16.3174,-39.9277 23.785,-76.1171 70.9138,-132.225 90.7053,-141.074l-3.51128 163.029z"/>
  <path fill="none" stroke="#4F2900" stroke-width="1.98425" d="M341.69 273.494c-67.9697,-27.0173 -146.89,-18.4572 -183.504,1.63446"/>
  <path fill="none" stroke="#4F2900" stroke-width="1.41732" d="M420.607 298.584c-0.139181,3.90643 -0.132095,10.3261 -0.333921,18.1627 -6.48907,1.15852 -3.2743,2.57669 -7.92709,2.77257"/>
  <path fill="none" stroke="#4F2900" stroke-width="1.41732" d="M361.941 297.529c-0.0856063,2.20394 -0.522425,8.15811 -0.667843,18.9873 3.11584,0.468851 5.78665,1.40655 8.01241,2.81282"/>
  <path fill="#644D36" stroke="#4F2900" stroke-width="1.41732" d="M411.458 313.22c2.03669,0.573166 3.06652,0.773008 8.43648,3.21591 -2.00551,-0.121323 1.07461,0.148252 -6.25777,2.85336 -1.55792,-3.63345 -2.00296,-2.75103 -2.17871,-6.06926z"/>
  <path fill="#644D36" stroke="#4F2900" stroke-width="1.41732" d="M369.399 311.946c-3.78227,-0.596693 -5.33452,0.904536 -7.45767,4.57087 3.11726,0.350362 4.78772,1.52079 7.01065,2.81282 0.895182,-1.40457 0.449292,-5.03887 0.447024,-7.38369z"/>
 </g>
</svg>
