<?xml version="1.0" encoding="UTF-8" standalone="no"?>
<!-- Created with Inkscape (http://www.inkscape.org/) -->
<svg
   xmlns:svg="http://www.w3.org/2000/svg"
   xmlns="http://www.w3.org/2000/svg"
   version="1.0"
   width="500.00003"
   height="534.9483"
   id="svg2">
  <defs
     id="defs4" />
  <g
     transform="translate(-116.59375,-262.95799)"
     style="display:inline"
     id="layer2">
    <path
       d="M 117.85542,264.21966 L 132.30155,571.68876 L 132.42772,571.68876 C 135.73782,696.41305 241.04091,796.64462 370.28415,796.64461 C 499.47258,796.64461 604.71394,696.4971 608.10904,571.84647 L 615.3321,264.21966 L 117.85542,264.21966 z "
       style="fill:#df0000;fill-opacity:1;fill-rule:evenodd;stroke:#000000;stroke-width:1;stroke-linecap:butt;stroke-miterlimit:4;stroke-dasharray:none;stroke-opacity:1"
       id="path2281" />
    <path
       d="M 507.5539,390.38671 C 502.38033,390.38671 498.186,398.44789 498.186,408.39706 C 498.186,418.34623 502.38033,426.43894 507.5539,426.43894 C 512.72747,426.43894 516.92179,418.34623 516.9218,408.39706 C 516.9218,398.44789 512.72748,390.38671 507.5539,390.38671 z M 510.0457,414.98928 C 509.39139,416.10827 509.10563,417.52339 507.30607,415.55704 C 505.94213,412.24528 504.02952,410.99059 507.79722,404.43181 C 510.39895,409.06261 510.63738,412.2256 510.0457,414.98928 z "
       style="fill:#cfcfcf;fill-opacity:1;stroke:#000000;stroke-width:1.00933635;stroke-miterlimit:4;stroke-dasharray:none;stroke-opacity:1"
       id="path2588" />
    <path
       d="M 483.58217,388.61286 C 478.12574,388.61286 473.70208,397.14487 473.70208,407.67518 C 473.70208,418.20547 478.12574,426.77088 483.58217,426.77088 C 489.03859,426.77088 493.46225,418.20547 493.46225,407.67518 C 493.46225,397.14487 489.03861,388.61286 483.58217,388.61286 z M 486.21021,414.65245 C 485.52011,415.8368 485.7299,417.7359 483.83194,415.65469 C 481.94426,412.49018 480.31713,409.77675 483.64871,404.48859 C 485.9525,407.86784 486.42636,410.6112 486.21021,414.65245 z "
       style="fill:#cfcfcf;fill-opacity:1;stroke:#000000;stroke-width:1.06640458;stroke-miterlimit:4;stroke-dasharray:none;stroke-opacity:1"
       id="path2599" />
    <path
       d="M 465.19783,401.16369 C 460.89949,401.16369 457.41471,409.48335 457.41471,419.75159 C 457.41471,430.0198 460.89949,438.37204 465.19783,438.37204 C 469.49616,438.37204 472.98092,430.0198 472.98092,419.75159 C 472.98092,409.48335 469.49617,401.16369 465.19783,401.16369 z M 467.26808,426.5552 C 466.72445,427.71008 467.29948,431.99554 465.80435,429.96613 C 463.32342,423.01381 462.90458,418.74944 465.06999,416.32339 C 471.27064,422.07738 468.26529,420.31034 467.26808,426.5552 z "
       style="fill:#cfcfcf;fill-opacity:1;stroke:#000000;stroke-width:0.93464208;stroke-miterlimit:4;stroke-dasharray:none;stroke-opacity:1"
       id="path2601" />
    <path
       d="M 451.31945,418.0722 C 447.69915,418.0722 444.76409,426.56824 444.76409,437.05414 C 444.76409,447.54004 447.69915,456.06934 451.31945,456.06934 C 454.93974,456.06934 457.87479,447.54004 457.87479,437.05414 C 457.87479,426.56824 454.93974,418.0722 451.31945,418.0722 z M 452.01466,430.47447 C 454.25897,436.05332 454.25667,437.72967 453.06313,444.00199 C 452.60525,445.18135 452.3874,448.6794 451.12812,446.60696 C 451.18045,438.81881 447.99687,439.89878 452.01466,430.47447 z "
       style="fill:#cfcfcf;fill-opacity:1;stroke:#000000;stroke-width:0.86680651;stroke-miterlimit:4;stroke-dasharray:none;stroke-opacity:1"
       id="path2603" />
    <path
       d="M 516.20536,445.90021 C 511.03179,445.90021 506.83745,453.96139 506.83745,463.91056 C 506.83745,473.85973 511.03179,481.95245 516.20536,481.95245 C 521.37892,481.95245 525.57325,473.85973 525.57326,463.91056 C 525.57326,453.96139 521.37893,445.90021 516.20536,445.90021 z M 517.25525,469.96207 C 516.60094,471.08107 518.47805,474.11833 516.67848,472.15197 C 513.69239,465.41568 510.51812,463.80051 515.72773,457.78244 C 519.27777,462.67684 518.48615,463.75677 517.25525,469.96207 z "
       style="fill:#cfcfcf;fill-opacity:1;stroke:#000000;stroke-width:1.00933635;stroke-miterlimit:4;stroke-dasharray:none;stroke-opacity:1"
       id="path2607" />
    <path
       d="M 495.08139,443.85272 C 490.48914,443.85272 486.7661,451.92679 486.7661,461.89186 C 486.7661,471.85693 490.48914,479.96259 495.08139,479.96259 C 499.67363,479.96259 503.39667,471.85693 503.39668,461.89186 C 503.39668,451.92679 499.67364,443.85272 495.08139,443.85272 z M 497.2932,468.49463 C 496.71241,469.61541 495.97881,474.82386 494.38144,472.85435 C 491.73089,466.10729 492.13529,464.47686 495.13739,458.0887 C 498.33163,463.02999 498.36941,462.37262 497.2932,468.49463 z "
       style="fill:#cfcfcf;fill-opacity:1;stroke:#000000;stroke-width:0.95170045;stroke-miterlimit:4;stroke-dasharray:none;stroke-opacity:1"
       id="path2609" />
    <path
       d="M 474.1737,453.24926 C 469.19662,453.24926 465.1616,461.47374 465.1616,471.62446 C 465.1616,481.77517 469.19662,490.03182 474.1737,490.03182 C 479.15078,490.03182 483.1858,481.77517 483.18581,471.62446 C 483.18581,461.47374 479.15079,453.24926 474.1737,453.24926 z M 476.57087,478.35023 C 475.9414,479.49189 476.94871,484.43689 475.21749,482.43069 C 472.34482,475.55794 471.92621,474.65058 474.41463,468.15012 C 477.85308,473.1642 477.74595,472.06778 476.57087,478.35023 z "
       style="fill:#cfcfcf;fill-opacity:1;stroke:#000000;stroke-width:0.99996084;stroke-miterlimit:4;stroke-dasharray:none;stroke-opacity:1"
       id="path2611" />
    <path
       d="M 455.60912,479.20855 C 451.4908,479.20855 448.15201,486.65705 448.15201,495.85005 C 448.15201,505.04303 451.4908,512.52067 455.60912,512.52067 C 459.72743,512.52067 463.06624,505.04303 463.06625,495.85005 C 463.06625,486.65705 459.72744,479.20855 455.60912,479.20855 z M 457.59267,501.94124 C 457.07182,502.97519 456.41393,507.78008 454.98142,505.96318 C 452.60441,499.73886 451.87281,496.86657 456.01982,491.30592 C 458.89303,495.87164 458.55479,496.31129 457.59267,501.94124 z "
       style="fill:#cfcfcf;fill-opacity:1;stroke:#000000;stroke-width:0.86563641;stroke-miterlimit:4;stroke-dasharray:none;stroke-opacity:1"
       id="path2613" />
    <path
       d="M 500.77692,493.38647 C 495.9879,493.38647 492.10535,501.26523 492.10535,510.98926 C 492.10535,520.71326 495.9879,528.62285 500.77692,528.62285 C 505.56594,528.62285 509.44851,520.71326 509.44852,510.98926 C 509.44852,501.26523 505.56595,493.38647 500.77692,493.38647 z M 503.08351,517.43231 C 502.47784,518.52597 501.71281,523.60842 500.047,521.68656 C 497.28286,515.1027 495.80335,510.72995 500.62573,504.84808 C 503.96686,509.67754 504.20232,511.47713 503.08351,517.43231 z "
       style="fill:#cfcfcf;fill-opacity:1;stroke:#000000;stroke-width:0.96004963;stroke-miterlimit:4;stroke-dasharray:none;stroke-opacity:1"
       id="path2615" />
    <path
       d="M 484.55544,498.08568 C 480.80882,498.08568 477.77136,505.82966 477.77136,515.38735 C 477.77136,524.94501 480.80882,532.71929 484.55544,532.71929 C 488.30207,532.71929 491.33955,524.94501 491.33956,515.38735 C 491.33956,505.82966 488.30208,498.08568 484.55544,498.08568 z M 486.35998,521.72017 C 485.88613,522.79513 485.28762,527.79063 483.9844,525.90166 C 481.82192,519.43042 480.8284,514.65315 484.60114,508.8719 C 487.26392,513.66133 487.22017,515.96777 486.35998,521.72017 z "
       style="fill:#cfcfcf;fill-opacity:1;stroke:#000000;stroke-width:0.84186745;stroke-miterlimit:4;stroke-dasharray:none;stroke-opacity:1"
       id="path2617" />
    <path
       d="M 491.40452,333.86387 C 486.23095,333.86387 482.03661,341.92505 482.03661,351.87422 C 482.9378,375.15491 498.81146,375.26447 500.77242,351.87422 C 500.77242,341.92505 496.57809,333.86387 491.40452,333.86387 z M 493.89632,358.46645 C 493.24201,359.58544 493.31674,359.91912 491.51717,357.95276 C 489.07179,354.10029 486.25799,350.5025 491.4676,344.48443 C 495.35764,350.35496 495.01299,354.06056 493.89632,358.46645 z "
       style="fill:#cfcfcf;fill-opacity:1;stroke:#000000;stroke-width:1.00933635;stroke-miterlimit:4;stroke-dasharray:none;stroke-opacity:1"
       id="path2621" />
    <path
       d="M 179.83499,556.04405 C 169.19917,556.36152 157.21445,562.44367 146.33764,577.4609 C 182.20698,558.52471 210.63603,574.93523 188.88747,610.64284 L 192.70403,621.58783 L 181.31745,627.20226 L 232.13123,726.33802 L 261.68586,709.74705 L 211.21904,612.44072 L 203.17589,616.41498 L 200.43176,609.19192 C 222.7085,586.94069 205.02509,555.29214 179.83499,556.04405 z "
       style="fill:#cfcfcf;fill-opacity:1;fill-rule:evenodd;stroke:#000000;stroke-width:1.00933635px;stroke-linecap:butt;stroke-linejoin:miter;stroke-opacity:1"
       id="path2304" />
    <path
       d="M 330.78594,718.53018 L 328.49188,727.96134 C 324.25835,724.99763 323.34246,721.7776 312.17854,721.33403 C 322.62147,717.43149 325.36311,718.66766 330.78594,718.53018 z "
       style="fill:#aa8c28;fill-opacity:1;fill-rule:evenodd;stroke:#000000;stroke-width:1.00933635px;stroke-linecap:butt;stroke-linejoin:miter;stroke-opacity:1"
       id="path2371" />
    <path
       d="M 309.37469,741.47081 L 309.62958,749.37258 C 305.83701,748.2033 300.36029,748.51829 294.59072,750.39217 C 296.13588,745.92183 304.80605,742.52628 309.37469,741.47081 z "
       style="fill:#aa8c28;fill-opacity:1;fill-rule:evenodd;stroke:#000000;stroke-width:1.00933635px;stroke-linecap:butt;stroke-linejoin:miter;stroke-opacity:1"
       id="path2373" />
    <path
       d="M 329.25657,776.39156 C 323.00187,777.17261 320.83719,779.99868 318.55094,782.76395 C 318.56836,778.4682 319.73139,774.40155 323.13907,770.78385 L 329.25657,776.39156 z "
       style="fill:#aa8c28;fill-opacity:1;fill-rule:evenodd;stroke:#000000;stroke-width:1.00933635px;stroke-linecap:butt;stroke-linejoin:miter;stroke-opacity:1"
       id="path2375" />
    <path
       d="M 432.99922,754.21561 C 432.23452,755.23519 428.15619,762.88208 428.15619,762.88208 C 436.8668,761.10268 439.72053,763.50677 443.95974,764.92124 C 441.50537,760.45335 438.16484,756.65007 432.99922,754.21561 z "
       style="fill:#aa8c28;fill-opacity:1;fill-rule:evenodd;stroke:#000000;stroke-width:1.00933635px;stroke-linecap:butt;stroke-linejoin:miter;stroke-opacity:1"
       id="path2377" />
    <path
       d="M 334.01112,718.61029 C 324.49505,718.48087 324.78504,731.37763 330.97861,736.3683 C 331.72906,736.97302 332.71719,737.71448 337.20585,739.59006 C 352.85358,742.63246 368.8643,747.27629 376.5925,749.52122 C 377.14325,749.44772 377.70503,749.34085 378.3273,749.2058 C 378.42081,748.82764 378.47056,748.3794 378.54809,747.88105 C 369.56299,741.62272 352.8068,723.35929 338.58468,719.43038 C 336.78829,718.93414 335.24439,718.62707 334.01112,718.61029 z "
       style="fill:#aa8c28;fill-opacity:1;fill-rule:evenodd;stroke:#000000;stroke-width:1.00933635px;stroke-linecap:butt;stroke-linejoin:miter;stroke-opacity:1"
       id="path3624" />
    <path
       d="M 400.11764,661.68839 C 400.11764,661.68839 401.64702,674.43318 399.86274,678.51151 C 398.07848,682.58985 396.03931,683.09965 395.78441,688.19756 C 396.09705,694.46292 393.3013,701.03571 399.35295,704.256 C 402.99236,706.07342 435.47519,705.06897 434.52859,703.49132 C 423.98283,717.8106 410.8296,713.43376 397.82357,716.23612 L 395.52951,744.27467 C 395.48694,747.37598 396.67717,749.24451 399.35295,749.62748 C 399.35295,749.62748 428.86097,749.95076 431.46984,752.17644 C 434.45765,754.7254 432.42453,762.88207 427.90129,765.17614 C 425.16388,766.56448 392.70525,762.84303 385.84346,763.64676 C 375.90859,764.81043 352.14686,777.87853 345.06012,780.215 C 333.98235,783.86728 322.19324,775.54719 323.13907,771.80343 C 325.71107,761.62296 368.51053,759.82332 377.6868,750.64706 C 381.3112,747.02267 377.51409,683.69997 375.64763,678.51151 C 373.44788,672.39655 369.53013,667.80589 369.53013,667.80589 C 371.37102,659.15256 392.78408,655.55958 400.11764,661.68839 z "
       style="fill:#aa8c28;fill-opacity:1;fill-rule:evenodd;stroke:#000000;stroke-width:1.00933635px;stroke-linecap:butt;stroke-linejoin:miter;stroke-opacity:1"
       id="path2379" />
    <path
       d="M 317.0732,736.7468 C 315.20964,736.72649 313.63311,736.82611 312.43656,737.1253 C 303.20387,739.43398 302.11303,751.73728 309.37701,754.97794 C 311.68408,756.00721 338.35185,757.97713 355.20719,759.14145 C 364.92297,756.82079 374.02186,754.33132 377.69646,750.65672 C 377.83576,750.51742 377.95707,750.24023 378.07497,749.93126 C 368.46949,747.11606 332.60281,736.91613 317.0732,736.7468 z "
       style="fill:#aa8c28;fill-opacity:1;fill-rule:evenodd;stroke:#000000;stroke-width:1.00933635px;stroke-linecap:butt;stroke-linejoin:miter;stroke-opacity:1"
       id="path3619" />
    <path
       d="M 225.72825,370.45232 C 221.75399,373.72514 211.64507,380.93816 196.80446,384.23607 C 177.33868,388.56179 167.84167,383.97449 164.91573,389.28275 C 156.60233,404.36503 175.73244,437.47692 184.62934,435.33372 C 203.71084,430.73712 216.34736,411.57681 221.50166,398.0829 C 224.87691,389.24651 223.01594,390.07319 229.07168,371.46165 C 228.10466,371.05326 226.79217,370.92306 225.72825,370.45232 z "
       style="fill:#aa8c28;fill-opacity:1;fill-rule:evenodd;stroke:#000000;stroke-width:1.00933635px;stroke-linecap:butt;stroke-linejoin:miter;stroke-opacity:1"
       id="path3645" />
    <path
       d="M 469.19912,335.88254 C 464.02555,335.88254 459.83121,343.94372 459.83121,353.89289 C 460.7324,377.17359 476.60606,377.28314 478.56702,353.89289 C 478.56702,343.94372 474.37269,335.88254 469.19912,335.88254 z M 471.69092,360.48512 C 471.0366,361.60411 471.47181,362.47852 469.67224,360.51216 C 467.58735,356.26574 464.23283,353.24213 469.44244,347.22406 C 472.99249,352.11846 472.92183,354.27981 471.69092,360.48512 z "
       style="fill:#cfcfcf;fill-opacity:1;stroke:#000000;stroke-width:1.00933635;stroke-miterlimit:4;stroke-dasharray:none;stroke-opacity:1"
       id="path2623" />
    <path
       d="M 448.25539,343.92344 C 443.75993,343.92344 440.11536,351.99973 440.11536,361.96755 C 440.84946,385.17721 454.69846,385.3057 456.39541,361.96755 C 456.39541,351.99973 452.75085,343.92344 448.25539,343.92344 z M 450.42058,368.57214 C 449.85203,369.69322 450.39556,371.47857 448.83187,369.50853 C 446.23718,362.75961 444.86486,361.12655 448.3102,356.17862 C 451.44431,361.12738 451.47158,362.4632 450.42058,368.57214 z "
       style="fill:#cfcfcf;fill-opacity:1;stroke:#000000;stroke-width:0.94174731;stroke-miterlimit:4;stroke-dasharray:none;stroke-opacity:1"
       id="path2625" />
    <path
       d="M 297.64947,513.33895 C 302.28759,523.75472 301.26172,528.50649 299.17884,532.20126 C 287.18971,544.48023 266.98082,551.97174 277.76759,577.57273 C 308.29018,628.46735 368.74065,630.91829 422.16613,628.04213"
       style="fill:none;fill-rule:evenodd;stroke:#000000;stroke-width:1.00933635px;stroke-linecap:butt;stroke-linejoin:miter;stroke-opacity:1"
       id="path2301" />
    <path
       d="M 310.53124,365.46162 C 311.92698,373.64132 311.77191,387.44556 302.60075,376.02105"
       style="fill:none;fill-rule:evenodd;stroke:#000000;stroke-width:1.00933635px;stroke-linecap:butt;stroke-linejoin:miter;stroke-opacity:1"
       id="path2314" />
    <path
       d="M 309.02237,400.54374 C 310.41811,412.96973 307.20428,421.84077 298.03312,408.80911"
       style="fill:none;fill-rule:evenodd;stroke:#000000;stroke-width:1.00933635px;stroke-linecap:butt;stroke-linejoin:miter;stroke-opacity:1"
       id="path2316" />
    <path
       d="M 309.02237,446.97322 C 310.41811,461.58439 304.91022,465.95867 295.73906,452.68962"
       style="fill:none;fill-rule:evenodd;stroke:#000000;stroke-width:1.00933635px;stroke-linecap:butt;stroke-linejoin:miter;stroke-opacity:1"
       id="path2318" />
    <path
       d="M 283.28942,430.31404 C 284.06822,443.07442 279.20178,446.31431 270.77079,435.26576"
       style="fill:none;fill-rule:evenodd;stroke:#000000;stroke-width:1.00933635px;stroke-linecap:butt;stroke-linejoin:miter;stroke-opacity:1"
       id="path2320" />
    <path
       d="M 278.21199,382.16178 C 278.63353,394.47558 274.05777,392.9809 267.73253,384.56454"
       style="fill:none;fill-rule:evenodd;stroke:#000000;stroke-width:1.00933635px;stroke-linecap:butt;stroke-linejoin:miter;stroke-opacity:1"
       id="path2322" />
    <path
       d="M 257.58543,276.17399 C 252.24343,275.86827 236.75668,297.44823 232.6359,305.63399 C 218.74399,301.82627 204.34519,298.13223 181.41208,312.47856 C 215.02042,313.8518 233.48205,326.74066 241.56222,348.15229 C 233.09994,341.65927 225.46927,337.32857 216.32881,334.90475 C 220.73764,341.3739 224.88991,347.21398 234.68611,353.00972 C 219.78523,354.0277 201.73322,349.38948 185.48096,328.78565 C 187.95569,357.06718 205.87246,360.38603 225.50746,370.35769 C 226.60252,370.91381 228.04321,371.02184 229.07553,371.45781 C 222.01045,394.35902 180.29785,396.95911 176.82951,405.91427 C 172.2674,417.69351 185.40129,440.07209 198.88621,441.70516 C 216.19788,443.80165 232.65799,403.98218 236.73633,397.60977 C 240.71021,391.4006 250.07172,374.20025 251.7298,370.70772 C 253.68721,366.58466 253.01377,348.11037 253.04342,347.14295 C 253.034,346.04541 253.83783,345.82783 255.37751,346.60674 C 258.56417,349.46042 262.96838,351.24337 267.83651,351.24338 C 277.54497,351.24337 285.40526,344.22033 285.40527,335.56713 C 285.40526,326.9139 277.54498,319.89087 267.83651,319.89087 C 263.21825,319.89086 258.9978,321.48966 255.85064,324.08592 C 254.6743,324.94887 253.84837,324.72763 253.80042,323.32892 C 253.56011,318.3273 253.00996,313.01296 256.10297,311.72155 C 266.61308,307.33334 277.00475,307.39857 287.45548,310.71222 C 297.90621,314.02586 322.4679,340.03005 331.0462,346.13362 C 336.62878,350.10569 350.64741,358.04211 360.85316,350.95951 C 372.6692,342.75937 400.82715,317.22241 395.26523,314.0241 C 390.22075,311.12335 372.92416,317.63755 363.66038,314.27644 C 356.46252,311.6649 377.6734,292.45762 375.14158,290.3047 C 368.00998,284.24037 336.13312,302.80927 331.8032,301.28123 C 327.46993,299.75198 337.25437,284.487 333.34875,282.92392 C 322.58189,278.61493 308.86151,294.81286 299.69369,296.92847 C 294.49387,298.1284 300.29177,279.33551 297.1388,278.57116 C 288.72721,276.53202 268.077,295.6668 262.97907,295.6668 C 257.88117,295.6668 263.506,278.59421 258.15318,276.30015 C 257.98591,276.22846 257.78102,276.18518 257.58543,276.17399 z M 267.96267,327.77631 C 272.6762,327.77629 276.51049,331.2757 276.51049,335.56713 C 276.51049,339.85856 272.67621,343.3264 267.96267,343.3264 C 263.24912,343.32639 259.41486,339.85855 259.41486,335.56713 C 259.41483,331.2757 263.24913,327.77631 267.96267,327.77631 z "
       style="fill:#aa8c28;fill-opacity:1;fill-rule:evenodd;stroke:#000000;stroke-width:1.00933635px;stroke-linecap:butt;stroke-linejoin:miter;stroke-opacity:1"
       id="path3632" />
    <path
       d="M 253.73302,429.12154 C 251.6056,439.39618 244.99068,438.15638 243.50846,428.97535"
       style="fill:none;fill-rule:evenodd;stroke:#000000;stroke-width:1.00933635px;stroke-linecap:butt;stroke-linejoin:miter;stroke-opacity:1"
       id="path2324" />
    <path
       d="M 231.78251,475.592 C 226.59634,484.08237 223.29508,480.54851 223.59712,472.64195"
       style="fill:none;fill-rule:evenodd;stroke:#000000;stroke-width:1.00933635px;stroke-linecap:butt;stroke-linejoin:miter;stroke-opacity:1"
       id="path2326" />
    <path
       d="M 258.78994,487.68354 C 256.40763,495.91902 249.53782,494.67922 249.83987,486.77266"
       style="fill:none;fill-rule:evenodd;stroke:#000000;stroke-width:1.00933635px;stroke-linecap:butt;stroke-linejoin:miter;stroke-opacity:1"
       id="path2328" />
    <path
       d="M 289.07004,479.60885 C 290.00137,489.6286 286.19031,496.80037 279.35527,484.56058"
       style="fill:none;fill-rule:evenodd;stroke:#000000;stroke-width:1.00933635px;stroke-linecap:butt;stroke-linejoin:miter;stroke-opacity:1"
       id="path2330" />
    <path
       d="M 292.53062,506.71674 C 293.46195,516.73649 288.20898,521.02444 281.37395,508.78465"
       style="fill:none;fill-rule:evenodd;stroke:#000000;stroke-width:1.00933635px;stroke-linecap:butt;stroke-linejoin:miter;stroke-opacity:1"
       id="path2332" />
    <path
       d="M 248.69658,544.20638 C 246.31426,552.44186 239.44446,551.20206 239.7465,543.2955"
       style="fill:none;fill-rule:evenodd;stroke:#000000;stroke-width:1.00933635px;stroke-linecap:butt;stroke-linejoin:miter;stroke-opacity:1"
       id="path2334" />
    <path
       d="M 227.21214,511.83552 C 220.50409,520.07099 217.23906,514.86595 217.5411,506.95939"
       style="fill:none;fill-rule:evenodd;stroke:#000000;stroke-width:1.00933635px;stroke-linecap:butt;stroke-linejoin:miter;stroke-opacity:1"
       id="path2336" />
    <path
       d="M 302.09608,339.00258 C 304.25327,346.65119 301.98172,347.44382 296.1482,344.33509"
       style="fill:none;fill-rule:evenodd;stroke:#000000;stroke-width:1.00933635px;stroke-linecap:butt;stroke-linejoin:miter;stroke-opacity:1"
       id="path2338" />
    <path
       d="M 343.02094,582.16086 C 364.53091,594.68156 383.11082,610.12615 397.82358,628.42447"
       style="fill:none;fill-rule:evenodd;stroke:#000000;stroke-width:1.00933635px;stroke-linecap:butt;stroke-linejoin:miter;stroke-opacity:1"
       id="path2343" />
    <path
       d="M 327.72719,596.43503 C 343.90124,604.88478 357.55655,615.43349 369.65757,627.27744"
       style="fill:none;fill-rule:evenodd;stroke:#000000;stroke-width:1.00933635px;stroke-linecap:butt;stroke-linejoin:miter;stroke-opacity:1"
       id="path2345" />
    <path
       d="M 332.35293,548.26733 L 344.24868,548.26733"
       style="fill:none;fill-rule:evenodd;stroke:#000000;stroke-width:1.00933635px;stroke-linecap:butt;stroke-linejoin:miter;stroke-opacity:1"
       id="path2347" />
    <path
       d="M 430.98853,361.70741 C 426.97774,361.70741 423.72609,369.87486 423.72609,379.95519 C 424.35819,403.34614 436.74208,403.47698 438.25097,379.95519 C 438.25097,369.87486 434.99933,361.70741 430.98853,361.70741 z M 432.92028,386.63433 C 432.41302,387.76806 432.13279,387.44935 430.73769,385.45707 C 429.32393,381.51579 427.8999,379.41431 430.49672,373.13668 C 433.86925,376.91117 433.84643,380.53243 432.92028,386.63433 z "
       style="fill:#cfcfcf;fill-opacity:1;stroke:#000000;stroke-width:0.89454025;stroke-miterlimit:4;stroke-dasharray:none;stroke-opacity:1"
       id="path2627" />
    <path
       d="M 207.81937,668.83458 C 202.76276,666.12955 195.10954,664.96809 192.33046,670.93764 C 189.96061,676.02815 194.47753,678.52639 199.81821,679.81499 C 208.23416,678.77751 219.56814,674.33348 207.81937,668.83458 z "
       style="fill:#aa8c28;fill-opacity:1;fill-rule:evenodd;stroke:#000000;stroke-width:1.00933635px;stroke-linecap:butt;stroke-linejoin:miter;stroke-opacity:1"
       id="path2319" />
    <path
       d="M 193.62957,640.01759 C 188.35814,638.80315 182.69174,634.89302 179.98594,641.18355 C 177.59388,646.74467 182.88255,650.6346 188.30249,651.41829 C 198.09364,652.09933 207.30385,642.61454 193.62957,640.01759 z "
       style="fill:#aa8c28;fill-opacity:1;fill-rule:evenodd;stroke:#000000;stroke-width:1.00933635px;stroke-linecap:butt;stroke-linejoin:miter;stroke-opacity:1"
       id="path2309" />
    <path
       d="M 341.18462,661.81768 C 341.18462,661.81768 346.23131,678.57987 335.41699,682.54512 C 324.60267,686.51036 301.35188,684.88822 301.35188,684.88822 L 297.67694,701.5546 L 299.18902,711.11294 C 290.59212,702.14045 287.28355,695.54363 284.90316,687.7322 C 285.17684,683.72261 281.98825,683.6699 278.99863,683.38981 C 272.30584,683.30917 266.34219,682.74779 256.4196,683.19175 C 254.3382,683.28659 246.72104,687.37409 244.57671,688.31276 C 234.08317,692.90623 222.77361,694.63458 206.18588,697.8654 C 200.7856,697.08342 192.33968,683.36963 199.85481,681.19689 C 209.33272,678.78721 219.0743,685.16869 232.50072,680.20201 C 245.17201,674.21446 240.0005,669.69879 238.35847,665.06198 L 230.15761,648.75037 C 236.52604,648.63022 236.94661,647.39858 240.43123,650.64288 C 242.78449,653.78735 252.73526,664.91729 254.12935,666.1434 C 257.23245,668.12953 294.2625,666.38371 314.32906,666.50387 C 321.42732,665.28744 320.08277,659.06417 320.45718,656.95123 C 321.66609,650.86635 338.32326,653.19607 341.18462,661.81768 z "
       style="fill:#aa8c28;fill-opacity:1;fill-rule:evenodd;stroke:#000000;stroke-width:1.00933635px;stroke-linecap:butt;stroke-linejoin:miter;stroke-opacity:1"
       id="path2357" />
    <path
       d="M 333.06487,606.66857 L 293.06992,619.88457 C 299.45302,640.62973 306.83662,651.27335 318.30333,657.35619 C 320.53364,658.53932 322.59186,659.45393 324.54859,660.1634 L 323.66543,655.30597 L 332.97025,662.21362 L 334.76813,657.82931 L 337.76459,662.68674 C 339.8542,662.79734 341.8561,662.82893 343.78907,662.97062 C 352.19154,663.58654 365.71059,660.92041 365.71059,660.92041 L 333.06487,606.66857 z "
       style="fill:#cfcfcf;fill-opacity:1;fill-rule:evenodd;stroke:#000000;stroke-width:1.00933635px;stroke-linecap:butt;stroke-linejoin:miter;stroke-opacity:1"
       id="path2310" />
    <path
       d="M 470.42473,508.13922 C 466.6561,508.13922 463.60083,514.45018 463.60083,522.23921 C 463.60083,530.02823 466.6561,536.36389 470.42473,536.36389 C 474.19335,536.36389 477.24866,530.02823 477.24867,522.23921 C 477.24867,514.45018 474.19335,508.13922 470.42473,508.13922 z M 472.23986,527.40015 C 471.76324,528.27619 471.1612,532.34728 469.85034,530.80785 C 467.67515,525.53412 466.47419,522.70805 470.26908,517.99662 C 472.88811,521.85703 473.12391,522.61043 472.23986,527.40015 z "
       style="fill:#cfcfcf;fill-opacity:1;stroke:#000000;stroke-width:0.76221985;stroke-miterlimit:4;stroke-dasharray:none;stroke-opacity:1"
       id="path2619" />
    <path
       d="M 492.09844,298.44247 C 486.7075,298.45487 481.03161,298.80925 475.03434,299.51489 C 380.9975,310.57933 367.88739,400.41313 390.28163,487.37763 C 389.64449,494.79152 380.30815,501.18598 371.64045,502.48613 C 360.13591,504.21182 351.80691,502.70772 342.46432,498.89037 C 346.87447,498.18282 356.10429,493.3082 354.35556,490.24793 C 323.59604,484.20791 321.55375,448.09038 322.24605,439.05565 L 330.92003,441.92595 C 329.40103,427.44095 325.05455,348.31825 314.70756,336.29259 C 313.49365,334.88172 311.93108,331.59934 310.38634,327.77631 C 301.72644,319.95165 292.77314,312.3983 287.45548,310.71222 C 277.00475,307.39857 266.61308,307.33334 256.10297,311.72155 C 253.00996,313.01296 253.56011,318.3273 253.80042,323.32892 C 253.84837,324.72763 254.6743,324.94887 255.85064,324.08592 C 258.9978,321.48966 263.21825,319.89086 267.83651,319.89087 C 277.54498,319.89087 285.40526,326.9139 285.40527,335.56713 C 285.40526,344.22033 277.54497,351.24337 267.83651,351.24338 C 262.96838,351.24337 258.56417,349.46042 255.37751,346.60674 C 253.83783,345.82783 253.034,346.04541 253.04342,347.14295 C 253.01377,348.11037 253.67608,366.58158 251.71867,370.70465 C 250.36218,373.56192 243.886,385.51154 239.38584,393.19393 C 237.78176,399.31423 234.33148,403.85333 232.88823,407.19847 C 228.18959,418.08891 214.03227,440.32524 210.39896,449.14901 C 213.19245,448.73981 216.52718,449.07558 218.09515,449.84293 C 203.04206,467.6969 197.93632,485.00398 189.23443,500.30975 C 196.29467,497.00888 200.60717,496.79922 202.22964,499.61583 C 202.72662,517.65464 197.97483,541.41938 205.09994,552.22749 C 208.08911,548.90638 211.06464,545.57981 217.36969,543.58505 C 217.41764,566.72273 222.58883,585.20294 237.55641,594.77733 L 240.58442,586.0718 C 261.81212,609.35879 292.42666,638.50505 323.69697,616.79348 C 330.35,635.70164 349.93483,664.03678 369.49561,667.67034 C 371.3143,668.00818 373.21679,668.10103 375.14158,668.08039 L 375.89858,661.36199 L 383.53169,667.19722 L 389.01996,660.10032 L 392.6788,664.80004 C 395.5797,663.86019 397.87636,662.98718 398.95561,662.59212 C 406.19956,659.94046 417.73355,646.35656 422.86427,629.75714 C 447.12209,618.51668 478.95717,589.74853 489.79589,566.51591 C 497.46367,565.12168 508.95578,564.33751 518.90894,569.16542 C 534.87744,576.91115 538.7359,609.72018 540.83046,627.80156 C 547.62184,619.12213 556.01716,543.60582 507.68007,539.13766 C 488.81539,537.39385 475.85944,544.91354 471.97479,547.49623 L 469.89304,545.8876 C 477.60059,540.43383 494.08469,530.33747 510.48728,530.43213 C 554.58427,530.68664 559.94477,608.15107 559.94477,608.15104 C 568.77828,578.59918 566.83527,504.96092 506.16606,504.47326 C 480.59214,504.26771 460.07424,522.78141 454.34295,529.61205 L 452.10348,527.84571 C 457.41611,517.44653 474.97811,489.48229 510.23495,488.86009 C 550.48126,488.14986 571.39446,558.44125 571.39443,558.44122 C 572.58744,552.47614 564.80867,450.30436 501.30863,455.04732 C 471.32589,457.28681 443.48323,501.56615 439.9599,516.08063 L 436.14335,528.88659 C 436.04514,524.41251 436.92852,518.48349 437.65735,514.62971 C 442.20773,489.43105 457.28402,438.69926 505.12518,435.08139 C 554.50492,431.34715 575.03209,522.66291 575.49486,522.73594 C 579.33929,461.39588 552.72281,400.27002 496.48274,399.75461 C 442.33704,399.25839 430.34157,475.37875 429.51958,498.85883 L 426.74391,521.9474 L 427.37474,496.27241 C 427.855,484.20147 429.63556,465.32191 430.37121,459.90475 C 433.59772,436.14519 438.7605,383.08636 492.63465,377.48613 C 548.25357,371.70452 554.51865,428.7544 577.00886,461.60801 C 582.79995,470.0676 588.99472,469.24111 588.99473,469.24112 C 588.99473,469.24112 587.14637,464.05047 581.61396,452.68169 C 574.33357,437.72097 562.77437,343.71668 491.8461,345.12428 C 409.38563,346.76075 417.05527,417.00917 410.90994,475.48638 L 410.43681,514.15659 L 407.69268,468.64182 C 398.11824,376.06769 429.47672,336.2112 475.44439,329.88961 C 531.17632,322.2252 580.62091,366.36624 586.18751,447.06726 C 587.9958,449.78454 589.92109,451.47862 592.40124,447.4773 C 587.51334,373.51018 572.96243,298.25651 492.09844,298.44247 z "
       style="fill:#cfcfcf;fill-opacity:1;fill-rule:evenodd;stroke:#000000;stroke-width:1.00933635px;stroke-linecap:butt;stroke-linejoin:miter;stroke-opacity:1"
       id="path2637" />
    <path
       d="M 299.6306,513.39958 L 297.20189,513.55729 C 299.50372,518.72649 300.3582,522.43272 300.41915,525.29083 C 300.47941,528.11731 299.27041,529.5962 298.27431,531.37839 C 292.3458,537.43885 284.81278,542.87898 279.5385,549.57798 C 274.25513,556.28855 271.85503,564.85567 277.29903,577.77632 L 277.33058,577.80786 L 277.33058,577.8394 C 292.66561,603.40969 315.57063,616.81077 341.26573,623.44879 C 366.96083,630.08681 395.47126,629.9976 422.20189,628.55856 L 420.87714,625.65672 C 394.18229,627.09383 367.03522,627.67522 341.51806,621.08316 C 316.02158,614.49644 293.43253,602.65059 278.24529,577.36628 C 278.2412,577.35659 278.24937,577.34443 278.24529,577.33474 C 278.23759,577.32191 278.22145,577.31603 278.21375,577.30319 C 272.90833,564.66276 276.22398,557.20689 281.33638,550.71349 C 289.13728,542.40298 294.20597,538.87385 300.63994,532.95548 C 301.70942,531.05835 302.50275,528.84091 302.43782,525.7955 C 302.37289,522.75009 301.96688,518.64614 299.6306,513.39958 z "
       style="fill:#000000;fill-opacity:1;fill-rule:evenodd;stroke:none;stroke-width:1px;stroke-linecap:butt;stroke-linejoin:miter;stroke-opacity:1"
       id="path2410" />
    <path
       d="M 311.01718,365.37409 L 310.03938,365.5318 C 310.72882,369.57219 310.72829,373.80934 309.78449,376.65323 C 309.54853,377.36421 309.23901,377.89044 308.90132,378.19878 C 308.56362,378.50712 308.24442,378.65072 307.73427,378.57728 C 306.71397,378.4304 305.26687,378.53669 303.00557,375.71979 L 302.21703,376.35063 C 304.54131,379.24599 306.2869,380.6072 307.83146,380.82956 C 308.60373,380.94073 309.3231,380.71149 309.85013,380.23026 C 310.37717,379.74903 310.74778,379.05489 311.01718,378.24313 C 312.09477,374.99611 311.72349,369.51339 311.01718,365.37409 z "
       style="fill:#000000;fill-opacity:1;fill-rule:evenodd;stroke:none;stroke-width:1px;stroke-linecap:butt;stroke-linejoin:miter;stroke-opacity:1"
       id="path2414" />
    <path
       d="M 309.53472,400.48007 L 308.52538,400.60624 C 308.87117,403.68477 308.92613,405.52565 308.68309,407.8506 C 308.44005,410.17556 307.8761,411.9366 307.106,412.86574 C 306.72095,413.33032 306.29295,413.60583 305.81279,413.68583 C 305.33263,413.76583 304.76305,413.67575 304.04645,413.30733 C 302.61325,412.57048 300.70132,411.74776 298.43202,408.52322 L 297.61193,409.09097 C 299.92822,412.38227 301.86816,414.33341 303.57332,415.21008 C 304.42591,415.64841 305.25903,415.807 306.00204,415.6832 C 306.74505,415.55941 307.3919,415.15415 307.89454,414.5477 C 308.89983,413.3348 309.43883,411.39075 309.69242,408.96481 C 309.94602,406.53887 309.88679,403.61454 309.53472,400.48007 z "
       style="fill:#000000;fill-opacity:1;fill-rule:evenodd;stroke:none;stroke-width:1px;stroke-linecap:butt;stroke-linejoin:miter;stroke-opacity:1"
       id="path2416" />
    <path
       d="M 309.53472,446.90955 L 308.52538,447.03571 C 308.8711,450.65486 308.7841,453.36705 308.33613,455.54943 C 307.88815,457.7318 307.0657,459.06641 306.09666,459.58677 C 305.12763,460.10714 303.85441,459.93662 302.15394,458.76669 C 300.45347,457.59675 298.43299,455.68497 296.16101,452.39781 L 295.30938,452.96557 C 297.62298,456.31293 300.48284,460.37227 302.35087,461.65749 C 304.21891,462.94271 305.95461,463.25009 307.33447,462.50911 C 308.71434,461.76814 309.59981,460.11039 310.07861,457.77785 C 310.55741,455.44531 309.88686,450.59599 309.53472,446.90955 z "
       style="fill:#000000;fill-opacity:1;fill-rule:evenodd;stroke:none;stroke-width:1px;stroke-linecap:butt;stroke-linejoin:miter;stroke-opacity:1"
       id="path2418" />
    <path
       d="M 283.79664,430.28704 L 282.7873,430.35012 C 282.97997,433.50702 282.54995,434.89377 282.09082,436.74157 C 281.63169,438.58938 280.894,439.69958 280.00906,440.11654 C 279.12413,440.53351 277.96281,440.38999 276.4133,439.39108 C 274.86379,438.39217 273.26626,437.68929 271.17993,434.95522 L 270.35985,435.58605 C 272.48901,438.37626 274.42216,440.25594 276.13199,441.3582 C 277.84182,442.46045 279.41735,442.78526 280.70554,442.17828 C 281.99374,441.57131 282.82576,440.1442 283.32351,438.14094 C 283.82127,436.13768 283.99337,433.51032 283.79664,430.28704 z "
       style="fill:#000000;fill-opacity:1;fill-rule:evenodd;stroke:none;stroke-width:1px;stroke-linecap:butt;stroke-linejoin:miter;stroke-opacity:1"
       id="path2421" />
    <path
       d="M 278.71841,382.15431 L 277.70908,382.18585 C 277.8134,385.23345 277.09943,385.98487 276.66307,387.34461 C 276.23394,388.23366 275.83824,388.77488 274.95982,389.23712 C 274.25377,389.2797 273.19889,388.78422 271.93181,387.69157 C 270.66473,386.59892 269.68845,386.35407 268.12038,384.26761 L 267.33184,384.8669 C 268.9264,386.98862 270.42256,388.6806 271.77923,389.8505 C 273.1359,391.0204 274.35685,391.71931 275.5327,391.64838 C 276.12062,391.61292 276.6752,391.33447 277.10978,390.89138 C 277.54436,390.44829 277.86876,389.84209 278.11912,389.06196 C 278.61982,387.50169 278.82486,385.26361 278.71841,382.15431 z "
       style="fill:#000000;fill-opacity:1;fill-rule:evenodd;stroke:none;stroke-width:1px;stroke-linecap:butt;stroke-linejoin:miter;stroke-opacity:1"
       id="path2423" />
    <path
       d="M 243.99093,428.8992 L 243.01314,429.05691 C 243.39282,431.40871 244.11265,433.27855 245.03181,434.60826 C 245.95097,435.93797 247.09831,436.74523 248.3437,436.84773 C 249.58909,436.95022 250.83113,436.3246 251.84483,435.04985 C 252.85854,433.77509 253.69922,431.8361 254.24201,429.21462 L 253.23267,429.02537 C 252.71175,431.54121 251.92754,432.33208 251.05629,433.4277 C 250.18504,434.52332 249.26632,434.91782 248.40678,434.84708 C 247.54724,434.77634 246.65639,434.21303 245.8519,433.0492 C 245.04741,431.88536 244.35236,431.13792 243.99093,428.8992 z "
       style="fill:#000000;fill-opacity:1;fill-rule:evenodd;stroke:none;stroke-width:1px;stroke-linecap:butt;stroke-linejoin:miter;stroke-opacity:1"
       id="path2425" />
    <path
       d="M 223.07874,472.61608 C 223.00184,474.6292 223.15365,476.37674 223.52033,477.75739 C 223.88701,479.13804 224.47483,480.1791 225.38129,480.69078 C 226.28776,481.20245 227.44033,481.0545 228.56701,480.24919 C 229.69369,479.44388 230.90878,478.02109 232.22586,475.86489 L 231.34269,475.32868 C 230.06667,477.41765 228.99932,477.58462 228.05784,478.25756 C 227.11636,478.93049 226.50545,478.96641 225.97609,478.6676 C 225.44672,478.36879 224.91766,477.57385 224.58825,476.33351 C 224.25883,475.09317 224.01397,474.58779 224.08808,472.64763 L 223.07874,472.61608 z "
       style="fill:#000000;fill-opacity:1;fill-rule:evenodd;stroke:none;stroke-width:1px;stroke-linecap:butt;stroke-linejoin:miter;stroke-opacity:1"
       id="path2428" />
    <path
       d="M 249.32149,486.74679 C 249.24318,488.79686 249.6307,490.46233 250.33083,491.66731 C 251.03095,492.87228 252.07315,493.62298 253.23267,493.78061 C 254.39219,493.93823 255.64263,493.48613 256.70226,492.48739 C 257.7619,491.48866 258.67418,489.94352 259.28869,487.81921 L 258.31089,487.53534 C 257.73425,489.52877 256.89739,490.03185 256.00834,490.8698 C 255.1193,491.70775 254.20834,491.99034 253.39038,491.87914 C 252.57241,491.76794 251.79145,491.26435 251.214,490.27051 C 250.63655,489.27667 250.25812,488.68155 250.33083,486.77834 L 249.32149,486.74679 z "
       style="fill:#000000;fill-opacity:1;fill-rule:evenodd;stroke:none;stroke-width:1px;stroke-linecap:butt;stroke-linejoin:miter;stroke-opacity:1"
       id="path2430" />
    <path
       d="M 289.56878,479.55527 L 288.55944,479.6499 C 288.78884,482.11773 288.72447,483.4196 288.40173,485.25082 C 288.079,487.08203 287.03781,488.44415 286.34251,489.06737 C 285.99486,489.37897 285.65096,489.50994 285.23855,489.50895 C 284.82613,489.50796 284.318,489.34733 283.72454,488.9412 C 282.53762,488.12896 281.47963,487.34228 279.79083,484.31808 L 278.90766,484.7912 C 280.63639,487.8869 282.18648,489.81177 283.60739,490.78414 C 284.31784,491.27033 285.02021,491.508 285.68914,491.5096 C 286.35808,491.5112 286.95777,491.2618 287.45548,490.81568 C 288.45091,489.92346 289.06757,488.38042 289.41107,486.43138 C 289.75457,484.48233 289.80507,482.09732 289.56878,479.55527 z "
       style="fill:#000000;fill-opacity:1;fill-rule:evenodd;stroke:none;stroke-width:1px;stroke-linecap:butt;stroke-linejoin:miter;stroke-opacity:1"
       id="path2432" />
    <path
       d="M 293.03837,506.68119 L 292.02904,506.77581 C 292.25752,509.23392 291.55326,509.88768 291.10982,511.42147 C 290.66639,512.95525 289.9698,513.88125 289.15424,514.19714 C 288.33867,514.51303 287.26461,514.2859 285.90543,513.1878 C 284.54626,512.08971 283.49873,511.56712 281.80951,508.54215 L 280.92634,509.01528 C 282.65462,512.11021 284.2963,514.19102 285.81531,515.41826 C 287.33432,516.64549 288.80627,517.03236 290.04191,516.55376 C 291.27755,516.07516 292.13518,514.82148 292.62833,513.11571 C 293.12148,511.40994 293.27556,509.23296 293.03837,506.68119 z "
       style="fill:#000000;fill-opacity:1;fill-rule:evenodd;stroke:none;stroke-width:1px;stroke-linecap:butt;stroke-linejoin:miter;stroke-opacity:1"
       id="path2434" />
    <path
       d="M 239.22813,543.26963 C 239.14981,545.3197 239.53733,546.98517 240.23746,548.19015 C 240.9376,549.39512 241.97979,550.14581 243.13931,550.30345 C 244.29882,550.46108 245.54927,550.00896 246.6089,549.01023 C 247.66853,548.0115 248.58081,546.46636 249.19532,544.34205 L 248.21753,544.05818 C 247.64088,546.0516 246.80402,546.55469 245.91498,547.39264 C 245.02594,548.23059 244.11498,548.51318 243.29701,548.40198 C 242.47905,548.29078 241.69808,547.78719 241.12063,546.79335 C 240.54318,545.7995 240.16476,545.20439 240.23746,543.30117 L 239.22813,543.26963 z "
       style="fill:#000000;fill-opacity:1;fill-rule:evenodd;stroke:none;stroke-width:1px;stroke-linecap:butt;stroke-linejoin:miter;stroke-opacity:1"
       id="path2436" />
    <path
       d="M 217.02273,506.93352 C 216.94581,508.94693 217.11146,510.79228 217.49585,512.32716 C 217.88025,513.86205 218.50507,515.12232 219.45144,515.85984 C 220.39782,516.59736 221.68281,516.71134 223.0472,516.11217 C 224.41159,515.51301 225.88311,514.26406 227.58922,512.16945 L 226.83221,511.50708 C 225.1843,513.53023 223.88962,513.81129 222.76461,514.30533 C 221.6396,514.79937 220.84882,514.67025 220.17818,514.14762 C 219.50755,513.625 218.95357,512.62166 218.6011,511.21424 C 218.24863,509.80682 217.95796,508.90494 218.03206,506.96506 L 217.02273,506.93352 z "
       style="fill:#000000;fill-opacity:1;fill-rule:evenodd;stroke:none;stroke-width:1px;stroke-linecap:butt;stroke-linejoin:miter;stroke-opacity:1"
       id="path2438" />
    <path
       d="M 302.59553,338.87901 L 301.61773,339.13135 C 302.15014,341.01904 301.96091,341.6986 301.96021,342.71943 C 301.95951,343.74025 301.6983,344.29743 301.36092,344.54885 C 301.02354,344.80026 300.42777,344.86934 299.49995,344.64347 C 298.57214,344.4176 297.82033,344.66075 296.3818,343.89415 L 295.90867,344.77732 C 297.38691,345.56508 298.65386,346.12513 299.72523,346.38595 C 300.7966,346.64677 301.71622,346.6163 302.40628,346.10207 C 303.09633,345.58785 303.41481,344.69747 303.41561,343.51565 C 303.41642,342.33383 303.14173,340.81562 302.59553,338.87901 z "
       style="fill:#000000;fill-opacity:1;fill-rule:evenodd;stroke:none;stroke-width:1px;stroke-linecap:butt;stroke-linejoin:miter;stroke-opacity:1"
       id="path2440" />
    <path
       d="M 344.99667,581.26844 L 342.77973,582.60221 C 364.24296,595.0957 382.77196,610.50311 397.44161,628.74781 L 398.23015,628.11697 C 383.47427,609.76503 366.55338,593.81634 344.99667,581.26844 z "
       style="fill:#000000;fill-opacity:1;fill-rule:evenodd;stroke:none;stroke-width:1px;stroke-linecap:butt;stroke-linejoin:miter;stroke-opacity:1"
       id="path2444" />
    <path
       d="M 329.21678,595.43521 L 327.48198,596.89063 C 343.60656,605.31451 357.23392,615.82788 369.30636,627.64385 L 370.00027,626.91839 C 357.87067,615.04646 345.44027,603.91078 329.21678,595.43521 z "
       style="fill:#000000;fill-opacity:1;fill-rule:evenodd;stroke:none;stroke-width:1px;stroke-linecap:butt;stroke-linejoin:miter;stroke-opacity:1"
       id="path2446" />
    <path
       d="M 355.82901,563.23107 L 353.81935,564.62341 C 377.32229,579.95819 400.92244,598.32783 419.96243,624.14271 L 420.78251,623.54342 C 401.64183,597.59202 379.38199,578.5985 355.82901,563.23107 z "
       style="fill:#000000;fill-opacity:1;fill-rule:evenodd;stroke:none;stroke-width:1px;stroke-linecap:butt;stroke-linejoin:miter;stroke-opacity:1"
       id="path2442" />
    <path
       d="M 326.01557,562.46238 C 329.91658,563.0127 333.8736,561.79271 337.77715,562.23041 C 340.44707,560.23634 336.67555,559.91045 333.40338,559.95116 C 330.48956,560.10741 327.54553,560.68711 324.63971,560.1314 C 320.74803,560.29481 323.8553,561.52879 326.01557,562.46238 z "
       style="fill:#000000;fill-opacity:1;fill-rule:evenodd;stroke:none;stroke-width:1px;stroke-linecap:butt;stroke-linejoin:miter;stroke-opacity:1"
       id="path2448" />
    <path
       d="M 324.24541,577.74539 C 320.49371,578.7295 317.75345,577.80423 314.06307,579.12276 C 314.80003,580.5798 315.68897,579.83888 317.499,580.30416 C 321.0472,580.93766 323.85728,579.7848 326.3333,580.5912 C 328.05313,579.83651 328.45966,578.20565 324.24541,577.74539 z "
       style="fill:#000000;fill-opacity:1;fill-rule:evenodd;stroke:none;stroke-width:1px;stroke-linecap:butt;stroke-linejoin:miter;stroke-opacity:1"
       id="path2450" />
    <path
       d="M 298.37849,595.99879 C 294.49071,598.25232 300.51484,597.44211 302.40043,597.48537 C 307.99754,596.97325 316.58301,599.26742 309.21521,595.73413 C 305.5548,595.62199 301.92435,594.97364 298.37849,595.99879 z "
       style="fill:#000000;fill-opacity:1;fill-rule:evenodd;stroke:none;stroke-width:1px;stroke-linecap:butt;stroke-linejoin:miter;stroke-opacity:1"
       id="path2453" />
    <path
       d="M 303.19482,624.41307 L 299.98658,624.66541 C 311.40792,640.87389 328.89447,649.79396 346.55573,653.92264 L 344.35682,651.01629 C 327.36512,646.42149 315.09274,640.52881 303.19482,624.41307 z "
       style="fill:#000000;fill-opacity:1;fill-rule:evenodd;stroke:none;stroke-width:1px;stroke-linecap:butt;stroke-linejoin:miter;stroke-opacity:1"
       id="path2582" />
    <path
       d="M 407.76452,524.55438 C 477.43668,537.08324 508.78549,567.2186 508.19352,640.27713 C 503.22067,615.29445 493.08738,595.74155 474.03746,573.4944 C 491.60209,594.79193 494.27688,617.03915 493.91934,652.00234 C 486.21719,626.2036 479.86251,610.41852 463.07693,586.49409 C 477.75011,610.999 479.1318,624.39796 475.56683,669.84506 C 469.52531,632.68035 461.9638,621.595 445.48911,595.67034 C 462.35689,624.42356 462.2608,638.93961 456.19474,680.0409 C 449.34308,640.04614 445.29561,632.16761 430.19535,600.51337 C 445.02257,638.02663 437.88035,649.26635 436.82264,685.13882 C 420.67028,593.42662 389.37197,566.94177 341.49158,539.59324"
       style="fill:#cfcfcf;fill-opacity:1;fill-rule:evenodd;stroke:#000000;stroke-width:1.00933635px;stroke-linecap:butt;stroke-linejoin:miter;stroke-opacity:1"
       id="path2408" />
    <path
       d="M 342.49586,537.6552 L 341.23419,540.02083 C 365.15458,553.68378 384.88968,567.10907 400.65887,588.53206 C 416.42805,609.95505 428.26464,639.42968 436.3326,685.23911 L 437.3104,685.04985 C 429.226,639.14709 418.09257,608.50804 402.20441,586.92343 C 386.31626,565.33882 366.45586,551.34078 342.49586,537.6552 z "
       style="fill:#000000;fill-opacity:1;fill-rule:evenodd;stroke:none;stroke-width:1px;stroke-linecap:butt;stroke-linejoin:miter;stroke-opacity:1"
       id="path2657" />
    <path
       d="M 199.54804,654.32425 C 194.20757,653.46278 188.29387,649.93777 186.01203,656.39419 C 183.99476,662.10197 189.53022,665.6319 194.99024,666.05373 C 204.9476,666.23894 213.91396,656.64605 199.54804,654.32425 z "
       style="fill:#aa8c28;fill-opacity:1;fill-rule:evenodd;stroke:#000000;stroke-width:1.00933635px;stroke-linecap:butt;stroke-linejoin:miter;stroke-opacity:1"
       id="path2981" />
  </g>
</svg>
