<?xml version="1.0" encoding="UTF-8"?>
<!DOCTYPE svg PUBLIC "-//W3C//DTD SVG 1.1//EN" "http://www.w3.org/Graphics/SVG/1.1/DTD/svg11.dtd">
<!-- Creator: CorelDRAW -->
<svg xmlns="http://www.w3.org/2000/svg" xml:space="preserve" width="500px" height="605px" shape-rendering="geometricPrecision" text-rendering="geometricPrecision" image-rendering="optimizeQuality" fill-rule="evenodd" clip-rule="evenodd"
viewBox="0 0 500 605"
 xmlns:xlink="http://www.w3.org/1999/xlink"
 xmlns:svg="http://www.w3.org/2000/svg"
 version="1.0">
 <g id="Layer_x0020_1">
  <metadata id="CorelCorpID_0Corel-Layer"/>
  <path id="path1937" fill="black" stroke="black" stroke-width="0.992126" d="M0.69789 1.37197l498.622 -0.0433701 -0.0263622 458.068c-4.58306,140.972 -218.126,69.1356 -246.605,146 -29.6839,-80.46 -229.435,1.98595 -252.082,-140.814l0.0907087 -463.211z"/>
  <path fill="#BF9F4F" stroke="black" stroke-width="0.992126" d="M146.773 138.736l12.1419 11.6101 0.779528 -13.3396 27.3359 -36.4051 22.5131 -1.95477 39.2128 -8.31629 82.319 13.4433 62.2755 -17.7557 19.1203 -0.0847559 5.46123 17.3384 -76.1468 42.7272 -54.8533 -1.17468 20.1127 78.2343 44.6273 43.4736 18.2381 43.5535 -10.5035 2.9401 27.9026 58.4521 55.1274 83.6201 2.73288 32.3813c-14.0624,3.46337 -27.2038,9.68996 -42.1869,10.3907l0.945922 -11.2708 -12.5342 -9.67975 -0.445323 -8.75821 -16.5739 -18.3062 -19.7969 -24.6679 -21.4997 -20.2331 -38.8213 -63.0377 -27.8649 48.3699 -46.232 107.773 -8.34407 1.30649 0.0768189 14.294 -47.9384 -9.47991 9.47424 -13.4946 -0.821197 -12.9379 31.5981 -114.022 18.0091 -35.2916 -5.83767 -3.13314 15.3088 -33.0024 2.16851 -25.8217 -46.33 -44.4013 0.315213 41.6208c3.65811,8.67941 3.22299,18.178 -1.30422,24.8125l-2.00778 38.2093 -6.07238 13.9476 -31.5 0.289134 -0.48926 -57.6468 -2.96306 -10.3966 -7.89478 -99.1815 11.1648 -34.9934z"/>
  <path fill="none" stroke="black" stroke-width="1.41732" d="M242.555 108.037c-1.89411,29.1045 13.6582,41.1727 44.3775,36.7875"/>
  <path fill="none" stroke="black" stroke-width="1.41732" d="M232.731 106.809c-1.89411,29.1045 23.4814,42.4004 54.2013,38.0155"/>
  <path fill="none" stroke="black" stroke-width="1.41732" d="M246.853 195.53c0.891497,-0.00425197 8.61109,-48.93 19.2892,-48.3818 12.9884,0.666709 -16.0968,54.6438 -1.01991,54.9632 10.5129,0.222803 0.361418,-40.0901 12.9932,-39.3438 11.0313,0.651969 -15.3539,54.1806 3.07984,54.5369 5.91081,0.114236 8.32961,-15.6348 6.79465,-26.9935"/>
  <line fill="none" stroke="black" stroke-width="1.41732" x1="350.309" y1="98.5204" x2="347.546" y2= "129.834" />
  <line fill="none" stroke="black" stroke-width="1.41732" x1="330.969" y1="103.739" x2="327.285" y2= "130.141" />
  <line fill="none" stroke="black" stroke-width="1.41732" x1="323.294" y1="102.818" x2="323.601" y2= "114.484" />
  <line fill="none" stroke="black" stroke-width="1.41732" x1="161.361" y1="134.788" x2="170.412" y2= "166.98" />
  <line fill="none" stroke="black" stroke-width="1.41732" x1="143.396" y1="263.068" x2="173.789" y2= "262.761" />
  <line fill="none" stroke="black" stroke-width="1.41732" x1="146.773" y1="286.4" x2="173.482" y2= "279.953" />
  <line fill="none" stroke="black" stroke-width="1.41732" x1="182.077" y1="222.545" x2="186.068" y2= "256.928" />
  <path fill="none" stroke="black" stroke-width="1.41732" d="M237.95 424.853c-5.41673,-1.95676 -11.7405,-0.190205 -11.3766,-5.30022 0.357166,-5.01336 30.3543,-12.5887 30.3018,-17.0427 -0.0779528,-6.62627 -31.9207,8.40104 -30.8225,-2.04605 1.21266,-11.5381 34.3709,-1.96413 34.5084,-11.0937 0.0586772,-3.90955 -19.8281,0.721701 -20.0308,-5.28945 -0.255685,-7.57304 22.123,-2.08545 23.514,-4.35572"/>
  <path fill="none" stroke="black" stroke-width="1.41732" d="M251.151 422.09c-3.17906,14.8436 -22.375,35.0396 -23.6744,43.7494 -6.09591,40.8643 -30.7528,34.9895 -20.5325,6.59736"/>
  <line fill="none" stroke="black" stroke-width="0.992126" x1="211.549" y1="504.057" x2="183.919" y2= "492.085" />
  <line fill="none" stroke="black" stroke-width="0.992126" x1="211.242" y1="508.355" x2="186.682" y2= "500.987" />
  <path fill="none" stroke="black" stroke-width="0.992126" d="M443.328 472.744c-16.5005,7.3423 -30.5708,9.33733 -42.9789,7.67481"/>
  <path fill="none" stroke="black" stroke-width="1.41732" d="M413.549 416.871c7.31821,16.5696 33.5495,45.6123 21.3406,50.6299 -9.03459,3.7131 -14.8725,-22.7018 -20.1592,-17.8999 -4.03569,3.66577 4.22646,11.2329 6.49333,18.5377"/>
  <path fill="none" stroke="black" stroke-width="1.41732" d="M357.984 323.239c11.6127,14.0698 19.7187,35.2023 19.5973,47.0557 -0.10148,9.91106 -10.3904,26.0158 0.732756,30.2916 6.00265,2.3074 23.0961,-10.2852 5.76425,-24.2377"/>
  <path fill="none" stroke="black" stroke-width="1.41732" d="M401.577 397.838c-9.12019,-7.58353 -13.919,2.6229 -14.7098,11.1529 -0.842174,9.07994 9.91815,13.1905 10.7189,-1.94315"/>
  <polyline fill="none" stroke="black" stroke-width="1.41732" points="218.916,326.616 262.816,326.616 269.877,319.862 290.446,319.862 290.446,323.239 315.926,323.239 320.224,318.634 323.294,283.944 "/>
  <line fill="none" stroke="black" stroke-width="1.41732" x1="338.643" y1="320.169" x2="359.212" y2= "312.801" />
  <line fill="none" stroke="white" stroke-width="1.41732" x1="263.43" y1="299.293" x2="261.895" y2= "321.09" />
  <line fill="none" stroke="white" stroke-width="1.41732" x1="334.345" y1="321.704" x2="326.364" y2= "288.856" />
  <polyline fill="none" stroke="white" stroke-width="2.83465" points="190.059,99.7484 211.856,97.9064 249.616,89.9246 330.662,103.739 392.981,85.6268 409.252,85.9337 "/>
  <polyline fill="none" stroke="white" stroke-width="2.83465" points="172.868,476.121 204.206,363.725 222.215,328.434 216.377,325.301 231.686,292.298 233.855,266.477 157.825,193.074 "/>
  <polyline fill="none" stroke="white" stroke-width="2.83465" points="178.946,111.368 159.695,137.007 158.915,150.347 146.773,138.736 135.608,173.73 143.503,272.911 146.466,283.308 147.08,338.588 "/>
  <path fill="#BF9F4F" stroke="black" stroke-width="0.992126" d="M81.9017 442.483l18.2982 -19.1721 -0.729355 -13.1845 8.49685 -5.4703 6.63903 3.56003 92.5988 -97.0215 0.700725 -18.5349 6.75298 -3.0875 9.55503 4.48101 90.4233 -88.7987 10.3241 -30.5935 9.88923 -9.41386 2.54296 15.0449 127.5 -136.955c3.78085,-3.01181 6.34252,-2.17219 10.4216,-2.58888l-0.729071 10.5571 -42.4812 52.1958 -54.5023 54.6733 6.85163 -0.759969 0.124158 10.7467 -19.4783 6.99449 -39.0002 42.4284 5.96013 2.69688 -0.979938 8.27263 -21.1833 10.4151 -30.3693 26.4892 7.08662 4.49008 -4.19981 9.80504 -20.9625 5.08621 -121.596 130.447 2.67676 11.7213 -6.21496 6.15317 -12.1082 -0.620788 -27.5488 30.3786 -16.9875 -11.3828 2.22888 -9.05216z"/>
  <path fill="#F00000" stroke="black" stroke-width="0.992126" d="M108.706 511.425c1.05506,-0.949607 20.3267,-1.55565 25.7922,-3.92429 13.8722,-6.01229 23.8232,-5.51311 29.4664,-2.52255l46.9698 8.59578c1.12564,9.72142 0.716315,18.5219 -2.14895,21.4895 -11.3681,4.28485 -39.3497,-3.87468 -44.2573,-4.42545 -9.06463,-1.01707 -51.6396,-0.774426 -55.2082,-3.86334 -1.84195,-5.3212 -3.37692,-11.5634 -0.613985,-15.3496z"/>
  <line fill="none" stroke="black" stroke-width="0.992126" x1="116.995" y1="528.003" x2="139.712" y2= "509.89" />
  <line fill="none" stroke="black" stroke-width="0.992126" x1="155.676" y1="506.513" x2="127.126" y2= "529.231" />
  <line fill="none" stroke="black" stroke-width="0.992126" x1="194.357" y1="514.802" x2="172.254" y2= "531.073" />
  <line fill="none" stroke="black" stroke-width="0.992126" x1="141.247" y1="529.231" x2="165.807" y2= "508.969" />
  <line fill="none" stroke="black" stroke-width="0.992126" x1="204.488" y1="516.03" x2="182.384" y2= "533.221" />
  <line fill="none" stroke="black" stroke-width="0.992126" x1="175.016" y1="509.89" x2="151.685" y2= "529.231" />
  <line fill="none" stroke="black" stroke-width="0.992126" x1="185.761" y1="512.346" x2="163.965" y2= "529.231" />
  <line fill="none" stroke="black" stroke-width="0.992126" x1="208.479" y1="522.477" x2="192.822" y2= "535.063" />
  <line fill="none" stroke="black" stroke-width="0.992126" x1="191.287" y1="512.346" x2="206.637" y2= "533.528" />
  <line fill="none" stroke="black" stroke-width="0.992126" x1="171.947" y1="510.197" x2="186.068" y2= "534.449" />
  <line fill="none" stroke="black" stroke-width="0.992126" x1="180.849" y1="510.811" x2="195.892" y2= "534.449" />
  <line fill="none" stroke="black" stroke-width="0.992126" x1="162.123" y1="509.276" x2="173.175" y2= "530.766" />
  <line fill="none" stroke="black" stroke-width="0.992126" x1="148.001" y1="507.434" x2="159.36" y2= "528.617" />
  <line fill="none" stroke="black" stroke-width="0.992126" x1="136.949" y1="509.583" x2="146.773" y2= "528.924" />
  <line fill="none" stroke="black" stroke-width="0.992126" x1="127.74" y1="513.881" x2="135.414" y2= "528.31" />
  <line fill="none" stroke="black" stroke-width="0.992126" x1="119.144" y1="516.644" x2="124.67" y2= "528.003" />
  <line fill="none" stroke="black" stroke-width="0.992126" x1="111.944" y1="516.644" x2="117.47" y2= "528.003" />
  <line fill="none" stroke="black" stroke-width="0.992126" x1="106.195" y1="528.003" x2="125.535" y2= "512.346" />
  <line fill="none" stroke="black" stroke-width="0.992126" x1="202.087" y1="512.346" x2="210.683" y2= "524.626" />
  <path fill="#F00000" stroke="black" stroke-width="0.992126" d="M366.273 515.723c2.11351,-6.67503 8.15386,-4.80643 15.4349,-8.39821 6.29603,-3.10592 9.7149,-7.93956 20.2706,-9.54908 16.1941,0.608315 30.5218,-5.3195 45.0335,-10.603 3.68391,6.85616 6.44684,13.7123 10.1307,20.5685 4.56633,9.65906 -27.4388,7.62889 -35.5572,9.31777 -24.1543,5.02441 -48.4316,11.1898 -51.0146,9.40876 -2.6606,-2.96759 -5.62819,-6.24218 -4.29789,-10.7447z"/>
  <line fill="none" stroke="black" stroke-width="0.992126" x1="398.507" y1="500.987" x2="382.85" y2= "524.012" />
  <line fill="none" stroke="black" stroke-width="0.992126" x1="446.091" y1="492.085" x2="433.504" y2= "515.109" />
  <line fill="none" stroke="black" stroke-width="0.992126" x1="422.145" y1="498.224" x2="409.866" y2= "518.486" />
  <line fill="none" stroke="black" stroke-width="0.992126" x1="408.024" y1="501.908" x2="396.665" y2= "520.635" />
  <line fill="none" stroke="black" stroke-width="0.992126" x1="380.087" y1="512.039" x2="371.492" y2= "524.626" />
  <line fill="none" stroke="black" stroke-width="0.992126" x1="450.696" y1="501.294" x2="444.249" y2= "514.802" />
  <line fill="none" stroke="black" stroke-width="0.992126" x1="455.3" y1="506.206" x2="452.538" y2= "512.039" />
  <line fill="none" stroke="black" stroke-width="0.992126" x1="403.726" y1="500.066" x2="421.224" y2= "516.03" />
  <line fill="none" stroke="black" stroke-width="0.992126" x1="432.89" y1="494.233" x2="453.458" y2= "511.732" />
  <line fill="none" stroke="black" stroke-width="0.992126" x1="387.148" y1="506.82" x2="400.963" y2= "518.793" />
  <line fill="none" stroke="black" stroke-width="0.992126" x1="423.066" y1="496.382" x2="442.407" y2= "513.881" />
  <line fill="none" stroke="black" stroke-width="0.992126" x1="377.631" y1="512.346" x2="390.218" y2= "523.091" />
  <line fill="none" stroke="black" stroke-width="0.992126" x1="394.823" y1="501.601" x2="412.936" y2= "517.565" />
  <line fill="none" stroke="black" stroke-width="0.992126" x1="437.495" y1="492.085" x2="423.373" y2= "515.416" />
  <line fill="none" stroke="black" stroke-width="0.992126" x1="373.641" y1="518.179" x2="381.008" y2= "524.012" />
  <line fill="none" stroke="black" stroke-width="0.992126" x1="441.179" y1="491.778" x2="452.538" y2= "500.066" />
  <line fill="none" stroke="black" stroke-width="0.992126" x1="413.549" y1="499.759" x2="430.127" y2= "515.109" />
  <polyline fill="none" stroke="white" stroke-width="2.83465" points="394.516,479.498 391.394,476.92 390.949,468.162 374.375,449.855 353.702,423.677 332.202,403.444 287.683,331.528 "/>
  <line fill="none" stroke="black" stroke-width="0.992126" x1="349.075" y1="421.788" x2="339.257" y2= "427.923" />
  <path fill="#F00000" stroke="black" stroke-width="0.992126" d="M79.6729 451.535l16.9875 11.3828c-8.26441,16.7831 -16.3344,22.9003 -26.0212,36.8416 -6.6515,2.6606 -38.4764,6.24218 -39.909,-2.45594 12.0164,-19.2473 28.9446,-31.4334 48.9427,-45.7685z"/>
  <line fill="none" stroke="black" stroke-width="0.992126" x1="56.8245" y1="479.763" x2="83.2731" y2= "453.947" />
  <line fill="none" stroke="black" stroke-width="1.41732" x1="60.2014" y1="485.945" x2="88.1666" y2= "457.226" />
  <line fill="none" stroke="black" stroke-width="1.98425" x1="59.5874" y1="497.303" x2="93.6947" y2= "460.725" />
  <line fill="none" stroke="black" stroke-width="2.83465" x1="63.8853" y1="498.642" x2="96.6603" y2= "462.918" />
  <polyline fill="none" stroke="white" stroke-width="2.83465" points="85.3096,438.912 100.2,423.311 101.354,408.913 107.967,404.656 "/>
  <polyline fill="none" stroke="white" stroke-width="2.83465" points="182.158,337.438 207.205,311.194 207.906,292.659 214.659,289.572 "/>
  <polyline fill="none" stroke="white" stroke-width="2.83465" points="224.214,294.053 314.637,205.254 324.961,174.661 334.851,165.247 "/>
  <line fill="none" stroke="white" stroke-width="1.41732" x1="343.917" y1="173.17" x2="391.745" y2= "121.91" />
  <path fill="none" stroke="white" stroke-width="2.83465" d="M442.986 66.8682l21.907 -23.5315c3.80211,-2.01147 6.35528,-1.88532 10.4216,-2.58888"/>
  <path fill="none" stroke="white" stroke-width="1.98425" d="M79.6729 451.535l2.22888 -9.05216 18.2982 -19.1721 -0.729355 -13.1845 8.49685 -5.4703 6.63903 3.56003 92.5988 -97.0215 0.700725 -18.5349 6.75298 -3.0875 9.55503 4.48101 90.4233 -88.7987 10.3241 -30.5935 9.88923 -9.41386 2.54296 15.0449 127.5 -136.955c3.78085,-3.01181 6.34252,-2.17219 10.4216,-2.58888"/>
  <polyline fill="none" stroke="#996633" stroke-width="3.96851" points="475.315,40.7478 474.586,51.3048 432.105,103.501 377.602,158.174 384.454,157.414 384.578,168.161 365.1,175.155 326.1,217.584 332.06,220.28 331.08,228.553 309.896,238.968 279.527,265.457 286.614,269.947 282.414,279.752 261.451,284.839 139.856,415.285 142.532,427.007 136.317,433.16 124.209,432.539 96.6603,462.918 "/>
  <path fill="#FFCCCC" stroke="black" stroke-width="0.992126" d="M416.086 95.798c0.767339,-1.22769 2.85647,-1.22939 3.98495,-2.14243 0.859465,-0.695622 1.152,-2.19487 2.35899,-2.77115 0.724536,-0.345827 1.908,-0.286866 2.55232,-0.832252 0.579402,-0.490677 0.716599,-1.70079 1.30961,-2.30712 0.989008,-1.01084 3.63997,-1.16107 4.54649,-1.77052 0.850678,-0.572032 -0.242362,-2.78107 2.89616,-3.83868 1.99814,0.541701 16.4183,12.2783 16.2697,16.1935 -0.757418,2.90211 -3.50107,2.68243 -5.61997,4.0544 -1.36205,0.881859 -1.95449,3.0155 -3.2675,4.08898 -1.31301,1.07348 -3.348,1.08765 -4.52863,2.02337 -0.776693,0.615685 -0.925229,2.12428 -1.66564,2.66514 -0.987875,0.721418 -3.89169,0.0342992 -4.8447,0.623339 -2.77399,1.71496 -4.06658,3.29358 -6.7201,3.26381 -2.1172,-1.96951 -7.60819,-15.1339 -7.27172,-19.2504z"/>
  <line fill="none" stroke="black" stroke-width="0.708662" x1="430.267" y1="111.112" x2="420.299" y2= "93.7829" />
  <line fill="none" stroke="black" stroke-width="0.708662" x1="436.708" y1="107.891" x2="425.36" y2= "90.2557" />
  <line fill="none" stroke="black" stroke-width="0.708662" x1="443.609" y1="102.371" x2="430.881" y2= "85.9618" />
  <path fill="#FFCCCC" stroke="black" stroke-width="0.992126" d="M412.632 85.8085c2.16794,-0.703276 5.40936,-0.333354 6.19711,-2.4171 1.0525,-8.90674 17.5938,-15.5132 20.4866,-13.5318 2.8114,2.14696 7.15635,3.98721 5.21405,6.28753 -2.73402,2.46699 -9.91531,-0.740126 -12.3423,0.346677l-16.1816 18.3626 -3.3738 -9.04791z"/>
  <path fill="#FFCCCC" stroke="black" stroke-width="0.992126" d="M161.815 373.125c1.38926,-2.61014 3.61701,-1.67216 4.90791,-2.8012 1.13924,-0.996095 0.460914,-4.28599 2.67874,-5.2234 2.2028,-0.931182 3.10309,2.23569 4.26132,1.56161 1.1588,-0.674079 1.09559,-2.87377 3.12548,-3.25417 1.79547,-0.336473 2.58747,1.08539 3.60057,0.788315 1.39124,-0.407622 0.8263,-2.70142 5.01449,-1.71326 1.60101,0.854646 0.751181,3.25361 1.19707,4.80756 0.339591,1.18261 2.07638,3.6771 1.71921,5.06807 -2.05115,2.2989 -3.34658,1.38047 -4.26614,2.07184 -1.69569,1.27474 -0.646866,3.76073 -2.67704,5.74951 -0.996095,0.975969 -3.3721,0.532063 -4.38492,1.44028 -1.30224,1.16787 -1.2566,3.98013 -2.66343,5.08961 -1.31102,1.03436 -3.0532,0.278079 -4.28429,1.02784 -2.27934,1.38869 -2.736,4.07254 -6.28441,2.68243 -2.19827,-1.54035 -4.19358,-14.0678 -1.94457,-17.295z"/>
  <path fill="none" stroke="black" stroke-width="0.708662" d="M167.265 369.411c-1.32917,10.9783 1.04372,18.6199 5.41871,17.7891"/>
  <path fill="none" stroke="black" stroke-width="0.708662" d="M173.706 366.549c-1.09758,9.08079 1.47373,13.4464 4.44643,14.6205"/>
  <path fill="none" stroke="black" stroke-width="0.708662" d="M180.606 364.046c-0.828851,3.7766 -1.03918,8.86082 3.52602,10.3266"/>
  <path fill="#FFCCCC" stroke="black" stroke-width="0.992126" d="M148.086 341.773l18.4227 0 11.7703 -0.204945 -29.3596 30.4608c-3.08183,3.47584 -3.9121,9.31011 -5.86829,10.633 -1.56274,0.587622 -3.02287,1.07235 -4.99522,0.532347 -3.54784,-18.3183 20.6402,-30.6899 10.0301,-41.4213z"/>
  <polygon fill="#BF9F4F" stroke="#BF9F4F" stroke-width="0.992126" points="385.606,249.185 423.396,264.122 432.89,235.063 441.581,266.376 475.888,255.806 451.524,281.184 480.569,308.358 443.617,299.497 433.645,334.319 421.01,299.325 388.675,311.121 417.182,282.107 "/>
  <polygon fill="#BF9F4F" stroke="#BF9F4F" stroke-width="0.992126" points="22.1267,258.088 61.7593,266.578 70.0251,235.063 80.8651,266.376 113.33,258.876 91.1149,282.719 116.169,310.507 80.7517,299.19 69.245,334.626 59.3728,301.781 25.5036,310.507 50.94,284.256 "/>
  <line fill="none" stroke="black" stroke-width="0.992126" x1="404.32" y1="489.029" x2="444.055" y2= "485.102" />
  <line fill="none" stroke="black" stroke-width="0.992126" x1="428.285" y1="479.805" x2="443.635" y2= "478.577" />
  <line fill="none" stroke="black" stroke-width="1.98425" x1="57.4385" y1="494.01" x2="91.2388" y2= "458.66" />
  <line fill="none" stroke="black" stroke-width="1.41732" x1="57.8294" y1="484.103" x2="85.7946" y2= "455.384" />
  <circle fill="white" stroke="white" stroke-width="0.992126" cx="135.261" cy="517.411" r="0.460347"/>
  <circle fill="white" stroke="white" stroke-width="0.992126" cx="147.819" cy="517.411" r="0.460347"/>
  <circle fill="white" stroke="white" stroke-width="0.992126" cx="139.866" cy="525.086" r="0.460347"/>
  <circle fill="white" stroke="white" stroke-width="0.992126" cx="127.279" cy="524.165" r="0.460347"/>
  <circle fill="white" stroke="white" stroke-width="0.992126" cx="124.516" cy="517.411" r="0.460347"/>
  <circle fill="white" stroke="white" stroke-width="0.992126" cx="118.376" cy="522.63" r="0.460347"/>
  <circle fill="white" stroke="white" stroke-width="0.992126" cx="160.741" cy="517.718" r="0.460347"/>
  <circle fill="white" stroke="white" stroke-width="0.992126" cx="151.531" cy="525.393" r="0.460347"/>
  <circle fill="white" stroke="white" stroke-width="0.992126" cx="171.793" cy="517.718" r="0.460347"/>
  <circle fill="white" stroke="white" stroke-width="0.992126" cx="163.197" cy="525.086" r="0.460347"/>
  <circle fill="white" stroke="white" stroke-width="0.992126" cx="175.784" cy="524.472" r="0.460347"/>
  <circle fill="white" stroke="white" stroke-width="0.992126" cx="182.231" cy="520.174" r="0.460347"/>
  <circle fill="white" stroke="white" stroke-width="0.992126" cx="185.608" cy="525.086" r="0.460347"/>
  <circle fill="white" stroke="white" stroke-width="0.992126" cx="191.747" cy="521.709" r="0.460347"/>
  <circle fill="white" stroke="white" stroke-width="0.992126" cx="196.659" cy="526.928" r="0.460347"/>
  <circle fill="white" stroke="white" stroke-width="0.992126" cx="178.547" cy="531.226" r="0.460347"/>
  <circle fill="white" stroke="white" stroke-width="0.992126" cx="188.985" cy="532.147" r="0.460347"/>
  <circle fill="white" stroke="white" stroke-width="0.992126" cx="200.957" cy="532.761" r="0.460347"/>
  <circle fill="white" stroke="white" stroke-width="0.992126" cx="203.413" cy="522.323" r="0.460347"/>
  <circle fill="white" stroke="white" stroke-width="0.992126" cx="156.443" cy="511.578" r="0.460347"/>
  <circle fill="white" stroke="white" stroke-width="0.992126" cx="379.95" cy="519.56" r="0.460347"/>
  <circle fill="white" stroke="white" stroke-width="0.992126" cx="384.248" cy="512.192" r="0.460347"/>
  <circle fill="white" stroke="white" stroke-width="0.992126" cx="393.151" cy="516.797" r="0.460347"/>
  <circle fill="white" stroke="white" stroke-width="0.992126" cx="404.817" cy="516.49" r="0.460347"/>
  <circle fill="white" stroke="white" stroke-width="0.992126" cx="408.194" cy="508.508" r="0.460347"/>
  <circle fill="white" stroke="white" stroke-width="0.992126" cx="413.106" cy="502.676" r="0.460347"/>
  <circle fill="white" stroke="white" stroke-width="0.992126" cx="397.142" cy="510.657" r="0.460347"/>
  <circle fill="white" stroke="white" stroke-width="0.992126" cx="421.394" cy="510.964" r="0.460347"/>
  <circle fill="white" stroke="white" stroke-width="0.992126" cx="423.85" cy="504.211" r="0.460347"/>
  <circle fill="white" stroke="white" stroke-width="0.992126" cx="431.832" cy="510.043" r="0.460347"/>
  <circle fill="white" stroke="white" stroke-width="0.992126" cx="435.209" cy="502.676" r="0.460347"/>
  <circle fill="white" stroke="white" stroke-width="0.992126" cx="442.884" cy="508.201" r="0.460347"/>
  <circle fill="white" stroke="white" stroke-width="0.992126" cx="445.647" cy="500.22" r="0.460347"/>
  <circle fill="white" stroke="white" stroke-width="0.992126" cx="440.428" cy="495.308" r="0.460347"/>
  <path fill="none" stroke="black" stroke-width="1.41732" d="M271.493 347.12c-33.3618,-7.14189 -13,-23.0842 15.6507,-4.23411"/>
  <line fill="none" stroke="black" stroke-width="1.41732" x1="291.981" y1="345.342" x2="270.798" y2= "319.555" />
  <path fill="#FFCCCC" stroke="#FFCCCC" stroke-width="0.992126" d="M90.146 57.1028l26.9694 -20.2071 62.1896 70.9696 -21.7273 28.0074 -0.26504 10.2798 -10.8031 -10.5372c-24.2365,-9.04337 -33.9922,-14.2906 -47.7678,-13.4082 -3.34885,-0.272693 -7.92567,-3.2057 -7.795,-5.52473 0.167811,-7.99342 -1.50605,-15.7819 -0.723969,-22.7517 -4.2823,-1.0698 -9.67919,-1.43405 -10.7192,-4.92718 1.39351,-2.81792 9.30558,-9.34271 10.9049,-12.4478 0.731055,-5.66589 -0.993827,-12.5595 -0.262488,-19.453z"/>
  <path fill="none" stroke="black" stroke-width="1.98425" d="M102.989 123.269c11.4177,-0.356315 32.0633,-7.08974 34.7789,-18.3022"/>
  <line fill="none" stroke="black" stroke-width="0.992126" x1="99.7011" y1="81.6359" x2="102.771" y2= "89.8223" />
  <line fill="none" stroke="black" stroke-width="0.992126" x1="104.408" y1="94.3249" x2="105.636" y2= "97.1901" />
  <path fill="none" stroke="black" stroke-width="0.992126" d="M89.8773 93.9155c2.41002,0.203528 4.90196,-2.04576 6.13985,-4.91188"/>
  <path fill="none" stroke="black" stroke-width="0.992126" d="M98.0638 65.4676c5.5474,-0.138898 11.1101,1.09077 13.5077,5.3212"/>
  <path fill="none" stroke="black" stroke-width="0.992126" d="M98.6778 75.9053c2.47635,-2.45679 6.06133,-2.86413 7.57248,0"/>
  <line fill="none" stroke="black" stroke-width="1.98425" x1="99.2917" y1="75.7007" x2="99.2917" y2= "77.9519" />
  <path fill="none" stroke="black" stroke-width="0.992126" d="M146.847 102.146c6.64668,7.03163 8.66155,12.672 10.364,17.9666"/>
  <line fill="none" stroke="black" stroke-width="1.41732" x1="98.0638" y1="102.102" x2="88.0354" y2= "100.26" />
  <path fill="#BF9F4F" stroke="black" stroke-width="0.216" d="M55.0848 64.8536c-0.843874,6.96161 5.82095,8.58955 7.54867,7.71676 0.507685,-0.540851 4.28967,-2.30967 6.02504,-3.05518 -1.18488,3.21562 -1.75578,6.22687 -0.0756851,8.62413 1.60753,1.52731 6.08003,1.41732 8.50621,0.284032 9.51563,-7.66148 17.8033,-24.9421 22.612,-26.8727 3.49909,-1.35156 7.20312,-0.860882 9.88385,0.857764 1.9749,1.79688 2.38791,17.9714 5.24892,23.2744 1.7932,3.32391 -1.29147,20.6243 5.22766,25.5461 2.49846,1.87285 7.24819,1.28976 9.54227,-0.930615 1.69087,-1.10268 1.74444,-9.36851 2.61666,-13.5408 5.74101,4.20151 4.72819,13.1105 7.1949,15.675 2.56195,2.78674 9.01248,-1.58967 13.621,-2.69121 6.93723,4.80047 11.2141,10.0103 13.2398,19.1089 3.30633,-5.20385 6.61295,-10.4077 9.91956,-15.6113l2.62942 6.46923 9.3036 -11.6362c0.767906,-1.6801 1.19112,-7.18328 0.0470551,-8.89399 -14.6699,-21.9305 -11.7524,-45.3546 -34.0132,-61.975 -3.62296,-2.1172 -29.554,-4.43906 -41.1585,1.42554 -13.917,5.11654 -29.8806,15.5543 -39.295,24.5594 -5.86687,6.41254 -11.9384,7.50416 -18.6242,11.6657z"/>
  <path fill="none" stroke="black" stroke-width="1.41732" d="M62.7537 71.7611c7.73632,-0.803906 36.7274,-31.5672 39.5343,-29.588"/>
  <path fill="none" stroke="black" stroke-width="1.41732" d="M79.5819 73.1279c9.019,-4.3971 22.0609,-32.815 23.0514,-31.8841"/>
  <path fill="none" stroke="black" stroke-width="0.992126" d="M126.512 94.9389c9.84473,-10.986 -4.92208,-33.4965 -3.68391,-46.2535"/>
  <path fill="none" stroke="black" stroke-width="1.41732" d="M122.2 64.6489c-1.62057,-5.72797 -1.89354,-11.2638 -2.86526,-14.9403"/>
  <path fill="none" stroke="black" stroke-width="1.41732" d="M123.015 95.5613c2.47266,-3.88602 4.2463,-6.96586 3.88857,-11.6657"/>
  <path fill="none" stroke="black" stroke-width="1.41732" d="M161.927 97.312c-1.00488,-3.44353 -0.831685,-3.28876 -3.79899,-8.92857 -3.7474,-7.12177 -0.917575,-17.6173 -3.99912,-25.9637 -3.3052,-8.95153 -8.93622,-14.9893 -10.1985,-20.2159"/>
  <path fill="none" stroke="black" stroke-width="0.992126" d="M185.864 93.0969c-8.01468,-13.5439 -16.0461,-48.7942 -29.8664,-60.7505"/>
  <path fill="none" stroke="black" stroke-width="0.992126" d="M184.065 98.1698c-6.51827,-11.2448 -11.3706,-33.8797 -21.841,-45.5834"/>
  <path fill="none" stroke="black" stroke-width="0.992126" d="M182.356 104.137c-11.1095,-11.9761 -5.57887,-26.8957 -18.0471,-39.2145"/>
  <path fill="none" stroke="black" stroke-width="0.992126" d="M158.828 99.1256c-2.5132,-10.0593 -6.10838,-6.88876 -7.02596,-22.2197"/>
  <path fill="none" stroke="black" stroke-width="1.41732" d="M186.682 92.6876c-9.96945,1.81673 -38.4234,8.78174 -45.9587,9.86344"/>
  <path fill="none" stroke="black" stroke-width="1.98425" d="M176.026 102.511c-5.87055,6.34196 -4.90649,7.54526 -9.81808,14.2781 -1.96554,-6.88904 -3.93081,-12.5668 -11.5472,-17.034"/>
  <path fill="none" stroke="black" stroke-width="1.98425" d="M188.101 92.1343c-0.652252,8.12268 -1.88164,9.33223 -6.54633,13.0178"/>
  <path fill="none" stroke="#FFFF99" stroke-width="1.41732" d="M56.9761 66.454c9.01333,-4.14907 16.8803,-10.5985 24.3505,-16.6893 7.1589,-5.83739 15.2283,-10.7039 22.9022,-14.9528 13.7424,-7.60848 27.2977,-8.92404 47.0004,-6.50325"/>
  <path fill="none" stroke="#FFFF99" stroke-width="1.41732" d="M68.2784 71.7015c6.39128,-6.52536 14.8677,-13.2528 21.1918,-18.3662"/>
  <path fill="none" stroke="black" stroke-width="0.992126" d="M155.228 99.1256c-1.96328,-7.85878 -4.58731,-7.64278 -6.0789,-14.4825"/>
  <path fill="none" stroke="black" stroke-width="0.992126" d="M156.299 38.2357c-1.26652,-2.03499 -3.48945,-4.14595 -5.30221,-5.07685"/>
  <path fill="none" stroke="black" stroke-width="0.992126" d="M130.441 54.1426c1.41279,1.00913 1.61461,2.82558 2.42192,4.23836"/>
  <path fill="none" stroke="black" stroke-width="0.992126" d="M134.074 63.83c1.80652,2.45821 3.22044,10.8156 4.6423,12.7658"/>
  <path fill="none" stroke="#FFFF99" stroke-width="1.98425" d="M108.669 38.6467c4.05468,-12.0487 22.8575,-12.7587 42.5602,-10.338"/>
  <path fill="none" stroke="black" stroke-width="0.992126" d="M148.526 95.9026c1.41279,1.00913 1.61461,2.82558 2.42192,4.23836"/>
  <circle fill="white" stroke="white" stroke-width="0.992126" cx="429.44" cy="496.648" r="0.460347"/>
  <circle fill="white" stroke="white" stroke-width="0.992126" cx="402.477" cy="503.553" r="0.460347"/>
  <circle fill="white" stroke="white" stroke-width="0.992126" cx="143.544" cy="511.164" r="0.460347"/>
  <circle fill="white" stroke="white" stroke-width="0.992126" cx="178.399" cy="513.137" r="0.460347"/>
  <circle fill="white" stroke="white" stroke-width="0.992126" cx="199.115" cy="516.425" r="0.460347"/>
  <circle fill="white" stroke="white" stroke-width="0.992126" cx="188.592" cy="514.123" r="0.460347"/>
 </g>
</svg>
