<?xml version="1.0" encoding="UTF-8"?>
<!DOCTYPE svg PUBLIC "-//W3C//DTD SVG 1.1//EN" "http://www.w3.org/Graphics/SVG/1.1/DTD/svg11.dtd">
<!-- Creator: CorelDRAW -->
<svg xmlns="http://www.w3.org/2000/svg" xml:space="preserve" width="500px" height="588px" shape-rendering="geometricPrecision" text-rendering="geometricPrecision" image-rendering="optimizeQuality" fill-rule="evenodd" clip-rule="evenodd"
viewBox="0 0 500 588"
 xmlns:xlink="http://www.w3.org/1999/xlink"
 xmlns:svg="http://www.w3.org/2000/svg"
 version="1.0">
 <g id="Layer_x0020_1">
  <metadata id="CorelCorpID_0Corel-Layer"/>
  <path id="path1937" fill="#BF9F4F" stroke="black" stroke-width="0.992126" d="M0.688819 0.7183l498.87 0 -0.182268 350.652c-34.3179,316.218 -464.275,313.187 -498.722,0l0.0342992 -350.652z"/>
  <path fill="#F00000" stroke="black" stroke-width="0.992126" d="M31.5054 328.639c-23.4958,2.2646 -27.3155,-20.3837 -18.3855,-24.7805 4.35232,36.9488 33.4846,-12.9674 53.0249,22.9153 -19.5404,10.2144 -19.8955,-9.68117 -34.6394,1.8652z"/>
  <path fill="black" d="M14.8306 269.808c12.5578,-2.29635 26.0034,-4.14851 40.3376,-5.55619 3.09005,-0.0992126 6.40233,-6.63506 11.2683,-7.17789l38.1858 0.111969c8.74687,-2.6674 35.2503,-21.7593 46.2169,-4.67263 2.03131,10.3244 -4.72252,17.4861 -17.4878,22.4841l-0.312095 1.19537c10.3691,-2.36778 21.4773,-9.73078 20.2292,-23.4207 19.0219,-5.1069 32.0514,-14.8748 39.0881,-13.9887l0.361418 1.73707c-5.26762,0.631276 -5.85553,3.3429 -5.77474,6.35216l3.34233 0.852662 5.12533 -1.3235 2.8681 -1.97121 4.00054 1.83628 -6.65802 5.33594c-0.289701,2.38507 -1.17156,4.47449 -2.64444,6.26854l11.0486 -3.11074 -0.261638 2.02139 33.2989 -22.7616c-3.12577,-8.18788 -2.58775,-12.0461 -0.384378,-17.5697l-3.60029 -9.79286c-7.13311,-1.13499 -15.9316,3.05887 -21.3993,-3.40555l-60.2932 -21.9515 0.708095 -6.3652c-6.94602,-1.37679 -25.5549,7.74284 -26.8024,-4.13093 -1.86888,-2.42476 -2.33802,-4.84923 -1.4074,-7.27455 -4.8566,-2.78419 -6.11433,-5.96807 -3.77263,-9.55276 -0.627307,-2.1291 -2.4908,-4.75115 2.27736,-6.10753 -1.66507,-5.45585 3.87269,-5.6829 6.49701,-7.78479 3.10507,-2.48684 5.29059,-2.06419 8.45178,-0.0283465 3.61956,2.33093 9.487,2.70482 11.9699,6.63903 2.63395,4.17288 7.01802,7.3664 10.0409,7.97131l0.844158 -2.47181c20.4809,1.53354 51.9086,11.4644 56.9447,11.3482l6.24416 -4.71657c-14.7317,-8.47503 -34.5098,-18.811 -41.7677,-28.9908 -6.60813,-9.26788 -1.22287,-17.4563 -3.73947,-25.2133 -1.35241,-4.16807 -1.3045,-7.69748 0.594709,-10.8836 0.766772,-1.28693 -0.58167,-16.7516 -0.411024,-26.765 0.0833386,-4.89005 3.04753,-5.53748 6.06133,-6.45648l0.198709 -7.87748c-3.62438,-0.879591 -5.44904,-3.75818 -5.4737,-8.6366l-28.5673 0.869103c-11.2504,-1.7521 -8.38092,-9.87506 1.03011,-10.9148 3.67795,-0.406488 5.79288,-2.93471 15.4647,-3.20712l11.3049 -0.45241c-0.388914,-5.30618 1.00942,-8.17569 5.01959,-7.48432 1.59449,-2.60504 3.53991,-3.76073 6.7354,-3.16687 1.28438,-0.859182 1.58485,-2.10019 5.00315,-0.828284 2.96873,-1.87399 5.73761,-1.74869 8.30693,0.375307 1.83572,-0.174331 7.27059,-3.34772 12.7055,7.12432 17.0804,-1.77846 40.4901,-5.55591 53.5734,-8.33358 5.74668,-1.21975 8.59692,-8.09292 15.626,-5.78155 1.9749,0.649418 8.78712,0.418394 11.5055,2.28019 2.70397,1.85187 2.67591,3.15184 5.59758,2.84769 9.05641,-4.73018 22.5145,-11.4367 37.5517,-5.65909 7.63682,2.93443 15.3164,-6.40574 27.0669,5.08025 3.08466,3.01493 10.8456,5.7617 11.4854,11.5087 0.684851,6.15459 -3.6275,8.49912 -4.66781,10.5755 -3.29329,6.57241 -15.7351,3.43389 -14.4374,4.92577 -12.1201,16.7695 -29.9512,-7.13112 -41.5531,-1.25858 -3.2264,1.63304 -2.35729,2.86696 -9.76054,-1.34306 -6.61125,-3.75959 -28.076,-0.903969 -29.8758,0.0555591 -10.4783,5.58539 -15.2958,0.181417 -20.1121,-0.560693l-44.7937 0.711496c-2.56507,3.64082 -0.631276,9.83084 -7.69465,10.9222l0.339307 9.11623c3.06369,-0.224504 5.01392,3.46224 5.55024,9.3824 1.10693,12.2179 7.88004,31.3186 11.8726,43.4186 14.7036,6.29377 29.7403,11.9214 44.1111,18.881 3.61077,-2.28076 7.58211,-4.20038 12.0815,-5.59304l-0.549922 -6.6206 -1.17638 -1.12677c-2.9452,-2.39358 -13.231,1.16476 -16.0699,-1.16391 -3.43389,-2.81707 -2.03868,-6.80117 -1.78271,-10.1789 0.347528,-4.58306 -2.79156,-8.69216 -0.232441,-9.71178 -11.5569,-0.674363 -9.41273,-7.57276 -4.18252,-13.8935 3.29017,-3.97616 -1.03068,-11.016 0.900567,-13.4609 1.93975,-2.45509 4.22759,-7.29411 4.39484,-9.11708 -4.47846,-16.5957 16.4347,-13.4133 28.9772,-13.9473 11.5577,-0.492095 21.8948,2.74904 25.8137,4.84696 11.7354,6.28271 3.61106,26.7778 15.518,46.2444 13.4393,-0.182551 6.36123,5.42041 3.98523,9.33336 -2.28926,-0.678615 -3.89367,-1.35751 -4.81323,-2.03669 -1.54148,1.76513 -2.39811,3.53027 -2.56989,5.29484l-9.05641 1.4692 -1.34022 1.07008 1.1846 13.0652c17.0875,12.4367 0.201827,49.8535 -8.69018,70.2837 -1.30535,6.61238 1.7195,19.8859 -3.9155,19.8366 1.63786,3.87978 4.3577,7.48205 0.666709,14.4703 3.20825,17.0623 16.6309,27.796 40.2684,31.536 8.16945,3.27685 10.7881,7.99682 9.18794,14.8272l21.782 -0.501166 0.289134 5.25912c7.54328,1.83912 14.6429,3.45629 22.6304,6.18322l-0.254551 5.43629c7.10759,1.70277 18.6542,9.84218 22.4325,13.5428l-1.17128 2.24249c4.06347,3.69865 12.1221,8.50706 12.1904,11.0959l-1.54602 3.0824c5.43969,7.98605 22.6429,45.4918 48.9464,27.9533 8.21339,6.5829 2.04435,20.8882 -7.68756,22.9983 -4.34211,7.79273 -10.8746,11.7612 -15.414,12.7449 -6.22092,1.34787 -10.065,-1.93408 -11.8749,0.244347l0.358866 3.11017c10.4528,5.83285 10.9176,19.2121 31.5802,16.8327 -4.10003,18.2001 -22.627,12.4296 -26.949,10.6543 4.83307,5.25799 -0.0997796,14.0672 19.1605,16.4401 -7.61216,7.83978 -15.224,9.76139 -22.8354,5.76454 4.62614,17.5343 7.92057,13.0952 11.2153,15.315l1.77732 2.76803c-6.5537,1.4675 -6.00492,11.1472 -19.6608,4.40277 -0.700441,10.6016 2.26262,14.6908 6.89074,15.8207l-3.52687 5.31638c-5.23843,0.492662 -9.8847,-0.494079 -13.9388,-2.96022 0.310677,3.45742 2.85392,5.72344 7.6184,5.91733l0.602363 3.46961c-2.94832,1.60243 -7.11723,1.5772 -11.8406,0.81241 2.17446,17.4152 -12.8872,20.5041 -21.9994,17.3787 -16.3352,-5.60353 -24.5835,-2.30627 -30.4044,-3.93421 -19.3663,-8.85175 -26.5564,-21.8744 -26.9799,-37.2359 9.88356,-6.85956 17.6445,14.5905 42.3598,5.62252 12.5348,-4.54819 5.05021,-26.8209 -0.529512,-31.9966 -2.45764,5.256 -6.62882,11.359 -17.0184,11.274 -5.05361,3.15666 -10.5126,4.98218 -17.337,2.32044 3.67399,-5.68177 10.8992,-7.36838 11.0222,-17.045 -5.65937,-28.4037 -33.3893,-17.9263 -39.9657,-45.9105 -2.32725,-9.90256 -11.9217,-25.3106 -20.0801,-28.9531l-1.18885 0.313229c11.3913,8.11928 16.5526,20.7921 19.8859,31.1553 8.92829,27.7583 33.4092,16.4333 38.6969,43.5297l-2.69887 0.413008 -0.483874 2.6229c-6.33855,-0.955276 -6.01852,-4.79566 -13.0229,-4.86284 0.759969,8.99689 4.84951,10.0035 6.94148,13.0079l-3.25021 3.29556c-7.81087,-0.325417 -12.6624,-1.83458 -14.5539,-4.5275 -4.80473,2.41342 -2.04491,10.08 7.72611,15.8973 -1.65657,3.48066 -6.02504,2.26403 -7.75843,2.81679 -7.82646,2.49534 -7.71449,-5.70076 -12.9237,-5.91336 -0.261921,14.3374 7.46646,18.9088 7.8704,25.0339 -18.7058,-0.0768189 -12.553,-2.37317 -18.1636,-3.55975 0.410173,4.94391 -0.284882,10.0817 -1.19792,11.6031 -2.91628,4.86057 -5.0726,5.10463 0.255402,7.89393 -1.55991,7.90782 -11.1472,0.648851 -11.2263,-9.3464 -4.88155,2.17247 -6.32608,6.21298 -9.01021,7.72441 -12.9334,7.28221 -19.8919,-9.38126 -41.5707,-2.08262 -14.521,-9.55304 -21.2168,-23.0182 -25.0812,-37.8987 1.42781,-3.03761 17.0538,-2.22378 23.9284,0.631559 4.86057,2.01884 14.0292,6.56873 20.3959,-2.76406 -9.41613,-6.33147 -13.2857,-13.3838 -11.4423,-18.4941 8.95919,5.70416 18.1406,5.75122 20.5554,0.640347 -14.0752,-3.42794 -19.6569,-8.31119 -18.2007,-14.4003 0.758552,-0.543402 6.50296,3.1371 10.741,0.746363 7.14331,-4.02917 16.2576,-22.9334 26.6159,-23.7237 3.17651,-0.242079 7.31481,-3.62693 6.75043,-5.47711 7.60337,1.40797 15.0267,3.71651 22.1873,7.34315l0.676347 -2.06788c-10.7048,-4.37613 -20.4035,-6.74136 -28.889,-6.67985 9.67777,-3.84917 18.127,-6.04687 23.8096,-3.67937 -0.346394,-1.11317 -0.914457,-2.22633 -1.70362,-3.33893 -10.0508,1.30989 -18.2991,3.03619 -22.5797,5.67808 -27.9955,8.84155 -26.8719,25.3372 -54.5344,26.5249 -1.37282,-0.926646 -2.52369,-2.07525 -3.4526,-3.44466 13.2642,-1.36573 21.4396,-5.61572 20.9489,-14.0803 -13.6063,0.828851 -15.232,-3.6669 -17.856,-5.50007 7.32558,-0.0493229 9.99213,-7.91915 21.4778,-2.14469 3.16233,-5.30759 -2.52312,-10.3096 -12.2307,-15.1722 1.54885,-1.69342 12.083,-4.71799 18.6239,-12.5677 -7.42281,-1.86066 -12.3494,2.10246 -22.2679,-5.5817 5.46038,-2.64841 12.4535,-0.684 15.9608,-9.19049 -3.58243,-3.15836 -16.8157,1.50406 -25.7224,-4.98189l-2.53673 1.05392c11.8502,7.48914 19.8731,3.07984 25.5674,4.90961 -2.68158,4.10882 -9.02467,5.77814 -17.0311,6.33742 8.767,8.28596 11.7241,9.6806 22.7662,8.59352 -2.4772,4.14085 -11.2768,7.50558 -19.7433,10.7595 6.90322,4.21994 17.7905,7.74596 15.0987,13.9368 -9.82404,-6.03355 -13.3248,2.40945 -22.9822,3.53112 11.0432,12.4739 13.1015,5.14715 19.4859,7.80407 -2.4463,7.98548 -10.5072,10.6373 -21.8273,10.1925 2.95314,7.17478 8.12495,12.685 18.18,14.5341 -5.54797,8.58926 -17.5068,9.78549 -23.561,7.83411 -4.15361,-1.3388 -6.09166,-4.57314 -9.02325,-4.95355 -2.66627,4.47251 6.1509,12.1895 12.973,13.1681 -19.6013,12.8846 -26.5564,0.643748 -33.3451,-1.28069 0.552756,11.4897 8.26045,13.8277 10.6438,18.4955 -10.3187,6.39071 -15.6453,0.468567 -20.9719,0.203811 3.16772,9.0669 6.33544,6.81903 9.50344,10.2288 -9.5315,6.0412 -15.2359,-0.563528 -18.6106,-1.34447 0.0206929,4.35572 6.60218,7.66007 8.98045,12.7125 2.18069,4.63266 1.09134,8.51528 -4.88608,11.1912 -1.66479,-2.13137 3.65925,-7.42394 -6.99052,-7.89109 -3.03732,10.8108 -14.5142,11.6833 -26.2386,8.29333 -15.1773,-4.3886 -22.9581,3.27203 -32.9335,1.00233 -10.1718,-25.7477 -33.4888,-22.0436 -31.0147,-41.8008 7.21985,-9.95386 24.1172,8.4223 42.965,1.31159 16.5495,-6.24359 24.9956,-23.2401 23.1032,-31.0377 -2.07865,-8.56432 -15.6847,-8.07109 -18.2018,-7.21134 -16.5691,5.66107 -5.45755,12.0158 -4.82684,14.0482 -6.46781,1.62284 -11.4934,-2.70284 -14.4105,-15.7221 -10.6914,10.137 -12.5379,14.4564 -11.6198,17.2403 0.550772,1.67074 2.67676,1.93748 2.56422,4.96233 -14.6052,-2.51178 -9.29849,-11.3474 -13.1978,-17.0206 -7.85793,7.47156 -8.08696,14.6378 -4.84838,21.6663 -15.6504,-3.34403 -10.1687,-18.3356 -8.51386,-21.0138 -28.7708,6.6138 -24.429,-19.0525 -41.3856,-25.0844 -11.0908,-8.53767 -13.2262,-35.4986 -8.61563,-47.2595 13.417,0.96463 23.3274,21.5496 34.7604,21.8633 16.8724,0.462898 38.8931,-13.72 47.607,-16.8364 9.91049,7.77941 14.9536,18.2628 12.8843,32.6991 2.99254,-1.17666 5.84618,-3.87865 8.39537,-9.93686 5.16161,6.70876 11.734,13.9306 21.7789,22.4155l1.96866 -1.02387c-8.27263,-6.98684 -16.0461,-14.1401 -23.8193,-23.9553 -2.10302,4.65421 -4.20633,7.99115 -6.30794,9.09638 1.34334,-26.4234 -14.9508,-28.2206 -28.4162,-40.3342 8.37808,1.79745 19.3198,6.16763 24.4188,3.25276 2.15943,-1.23449 17.3177,0.207496 24.5617,-8.32394l0.305858 -1.90035c-7.63937,8.99915 -21.4359,7.76495 -23.8754,8.34095 -8.22416,1.94173 -18.4819,-1.19906 -24.9565,-2.76577 -22.2908,-10.7799 -79.8872,-0.576284 -70.8693,-17.3514 3.88602,1.5412 7.66148,0.0844725 8.32819,-4.0371 11.9925,9.28148 22.8138,8.06627 29.5509,0.446457 7.51777,-8.50337 5.22369,-17.869 -4.87984,-22.4019 -10.2472,-4.59751 -27.8127,-4.25821 -36.4349,-4.57427 -2.27367,-7.69181 -6.87855,-6.39043 -10.8173,-5.08904 -2.41625,-4.28372 -2.28274,-8.06854 -2.94577,-12.3523 0.942237,-0.992126 7.70826,-2.81622 8.3177,-3.47556 -3.55238,0.0473386 -5.94,0.926646 -8.66041,1.14066 -2.42873,-3.61673 -2.1926,-5.9006 0.708378,-6.85191z"/>
  <path fill="#F00000" stroke="black" stroke-width="0.992126" d="M16.5495 355.066c1.44142,-5.29796 13.0632,-6.41877 17.305,-0.831969 2.94548,3.87921 -1.36602,6.03298 -2.82869,4.65903 -3.48832,-3.27685 -8.81887,-3.60539 -14.4763,-3.82706z"/>
  <path fill="#F00000" stroke="black" stroke-width="0.992126" d="M16.234 368.069c0.438803,-5.47285 11.6538,-8.71994 16.854,-4.01244 3.61106,3.26892 -0.228756,6.18151 -1.91991,5.10123 -4.03342,-2.57641 -9.33279,-1.91537 -14.9341,-1.08879z"/>
  <path fill="#F00000" stroke="black" stroke-width="0.992126" d="M18.7302 379.051c0.38126,-5.47285 9.13607,-10.2172 14.3232,-5.6761 3.36955,2.94973 0.465733,6.18095 -1.836,5.26706 -3.93364,-1.56076 -7.6167,-0.417544 -12.4872,0.40904z"/>
  <path fill="#F00000" stroke="black" stroke-width="0.992126" d="M20.8843 392.313c-0.636378,-7.59062 8.72703,-13.1043 14.7671,-9.78378 3.92315,2.15717 0.450709,5.60353 -1.99361,5.20526 -6.67304,-1.51172 -8.19383,2.72523 -12.7735,4.57852z"/>
  <path fill="#F00000" stroke="black" stroke-width="0.992126" d="M28.1157 405.283c-2.80177,-7.08322 4.07112,-16.0651 10.8122,-14.6307 4.3784,0.931749 2.5492,5.56725 0.0938268,5.8921 -6.82498,0.480189 -7.05685,5.64151 -10.906,8.73865z"/>
  <path fill="#F00000" stroke="black" stroke-width="0.992126" d="M81.3617 472.839c-3.80013,-8.08158 4.40419,-16.0651 11.1447,-14.6307 4.37783,0.931465 2.71559,5.90003 0.260504,6.22517 -6.82526,0.480189 -7.55604,5.30844 -11.4052,8.40558z"/>
  <path fill="#F00000" stroke="black" stroke-width="0.992126" d="M88.8242 482.571c-4.77865,-7.54441 2.19997,-17.6536 9.06605,-17.0717 4.45947,0.378425 3.92967,6.84652 1.53411,7.47525 -6.71188,1.32775 -7.16741,6.04347 -10.6002,9.59641z"/>
  <path fill="#F00000" stroke="black" stroke-width="0.992126" d="M95.3136 489.892c-3.78,-7.37802 2.86583,-16.8216 9.73191,-16.2394 4.45947,0.378142 3.26381,6.01427 0.868252,6.643 -6.71188,1.32775 -7.16741,6.04347 -10.6002,9.59641z"/>
  <path fill="#F00000" stroke="black" stroke-width="0.992126" d="M112.785 510.026c-6.4423,-6.21326 -0.794835,-18.652 6.07125,-18.07 4.45947,0.378425 3.0977,7.51181 0.702142,8.14054 -7.87663,3.32447 -3.34063,6.37654 -6.77339,9.92949z"/>
  <path fill="#F00000" stroke="black" stroke-width="0.992126" d="M103.3 500.209c-3.78,-7.37802 1.86747,-18.1528 8.73355,-17.5706 4.45947,0.378142 3.92939,7.51181 1.53383,8.14054 -6.71188,1.32775 -6.83462,5.87707 -10.2674,9.43002z"/>
  <path fill="#F00000" stroke="black" stroke-width="0.992126" d="M214.285 478.245c-3.78,-7.37802 2.8664,-16.6547 9.73219,-16.0727 4.4589,0.378142 3.46536,7.28533 1.03436,7.80747 -6.67843,1.4349 -7.3338,4.71232 -10.7666,8.26526z"/>
  <path fill="#F00000" stroke="black" stroke-width="0.992126" d="M215.45 486.065c-3.78029,-7.37774 3.01691,-15.9919 11.895,-15.5736 4.44728,0.20948 4.82032,6.07408 1.36743,6.47632 -6.88621,0.801922 -9.66331,3.21449 -13.2625,9.09723z"/>
  <path fill="#F00000" stroke="black" stroke-width="0.992126" d="M223.603 496.049c-2.94832,-9.70753 2.36721,-16.6547 9.23301,-16.0727 4.4589,0.378142 3.79814,6.78586 1.36715,7.30829 -6.67843,1.4349 -7.16741,5.2115 -10.6002,8.76445z"/>
  <path fill="#F00000" stroke="black" stroke-width="0.992126" d="M232.256 506.033c-2.94832,-9.70753 -1.00687,-15.3873 6.07181,-17.0714 4.19499,-0.998079 6.42501,5.34841 2.19912,6.47632 -6.71188,1.32803 -4.33899,6.87544 -8.27093,10.5951z"/>
  <path fill="#F00000" stroke="black" stroke-width="0.992126" d="M244.069 512.355c-3.78,-6.21298 -4.16693,-15.5531 1.41279,-17.7367 3.97191,-1.55395 6.71216,3.85654 2.86441,5.81074 -4.71147,2.39244 -1.01112,7.04183 -4.2772,11.9259z"/>
  <path fill="none" stroke="black" stroke-width="0.992126" d="M338.141 483.794c-3.11414,-6.48992 2.42221,-14.8791 9.288,-14.2971 4.4589,0.378425 4.79679,7.28504 1.47855,7.58552 -6.89046,0.623906 -7.3338,3.15865 -10.7666,6.71159z"/>
  <path fill="#F00000" stroke="black" stroke-width="0.992126" d="M338.141 490.896c-2.22633,-6.0463 3.31002,-14.4354 8.40019,-13.6313 3.11726,-0.477071 2.42929,2.84287 3.98835,4.87588 1.49102,1.94457 1.36885,4.11279 -0.290268,4.26303 -6.89046,0.623906 -8.66552,0.939402 -12.0983,4.49235z"/>
  <path fill="#F00000" stroke="black" stroke-width="0.992126" d="M338.141 483.794c-3.11414,-6.48992 2.42221,-14.8791 9.288,-14.2971 4.4589,0.378425 4.79679,7.28504 1.47855,7.58552 -6.89046,0.623906 -7.3338,3.15865 -10.7666,6.71159z"/>
  <path fill="#F00000" stroke="black" stroke-width="0.992126" d="M344.8 502.216c-5.11172,-7.15607 4.64173,-15.7669 9.73163,-14.9627 2.71758,-0.415843 3.98325,5.9658 0.812693,6.25323 -6.89046,0.623906 -7.11185,5.15679 -10.5443,8.70945z"/>
  <path fill="#F00000" stroke="black" stroke-width="0.992126" d="M352.569 510.65c-5.11172,-7.15607 3.75364,-15.3233 9.95358,-14.741 2.71758,-0.415843 3.53934,5.9658 0.368788,6.25351 -6.89046,0.623622 -6.88989,4.93455 -10.3224,8.4875z"/>
  <path fill="#F00000" stroke="black" stroke-width="0.992126" d="M364.332 516.643c-5.11172,-7.15607 0.42463,-15.9891 5.51452,-15.1849 2.71758,-0.415843 5.16104,4.04391 2.36636,5.3657 -6.20051,2.93301 -5.55818,7.15408 -7.88089,9.81922z"/>
  <path fill="white" d="M77.336 265.489l0 -1.8652 -13.5893 -0.266457c-6.0137,4.11619 4.44047,4.22221 8.52662,8.26016l-8.79308 7.19433 0.266457 2.39811 13.0564 -10.3918 -9.05953 -5.06268 9.59245 -0.266457z"/>
  <path fill="white" stroke="black" stroke-width="0.216" d="M138.621 267.621c11.3244,-4.48243 10.2059,-13.1488 3.03761,-16.2227 -6.80741,-2.91912 -19.3082,-1.83799 -31.5485,7.69607l4.26331 1.06583c18.2965,-15.899 42.6325,-6.21751 24.2476,7.46079z"/>
  <path fill="white" d="M141.019 282.809l3.19748 -0.266457 0 1.8652 -8.52662 7.72725 -1.59874 -0.266457 0.266457 -1.33228c2.4874,-1.92926 4.8875,-3.56967 6.66142,-7.72725z"/>
  <path fill="white" d="M150.878 306.79l2.13165 -1.33228 0 1.8652c-3.55295,3.46366 -7.10533,6.21666 -10.6583,8.26016l-2.66457 0.79937c3.04781,-4.19074 7.42649,-5.93887 11.1912,-9.59245z"/>
  <polygon fill="white" points="147.681,291.602 149.812,290.27 149.812,292.135 140.486,301.194 137.822,301.994 139.953,299.063 "/>
  <path fill="white" d="M151.411 316.382l2.13165 -1.33228 0 1.8652c-3.55295,3.46366 -7.10533,6.21666 -10.6583,8.26016l-2.66457 0.79937c3.84718,-3.65783 7.42649,-5.93887 11.1912,-9.59245z"/>
  <path fill="white" d="M153.276 329.705l2.13165 -1.33228 0 1.8652c-6.04007,5.95021 -18.1188,8.43676 -19.1849,7.9937l-2.66457 0.79937c8.20857,-2.59257 15.1588,-6.20589 19.7178,-9.32599z"/>
  <polygon fill="white" stroke="white" stroke-width="0.216" points="164.201,370.74 165,371.539 164.734,408.843 162.069,410.175 "/>
  <path fill="white" d="M83.4645 416.304c-8.37128,2.59739 -13.1233,1.22088 -14.3887,-3.99685l-2.13165 0.266457c1.19962,8.08215 10.9684,9.6806 18.1191,4.79622l-1.59874 -1.06583z"/>
  <path fill="white" d="M158.605 492.777l-0.266457 -1.33228c8.26016,0.088441 13.5893,-0.443906 15.9874,-6.66142l2.13165 -0.266457c-4.53005,9.85947 -7.10618,9.415 -17.8526,8.26016z"/>
  <path fill="white" d="M275.047 497.307l-0.266457 -1.8652c8.49969,1.11458 11.1317,1.11997 15.188,-2.66457l2.13165 -0.266457c-3.9206,5.86262 -8.97874,6.21723 -17.0532,4.79622z"/>
  <path fill="white" d="M405.078 504.767l-0.266457 -1.8652c7.70032,1.6475 11.3981,2.98517 12.257,-6.39496l1.33228 -2.13165c0.0331654,7.95062 1.54743,13.8115 -13.3228,10.3918z"/>
  <path fill="white" d="M76.5366 305.724l2.39811 0c3.59518,11.067 -2.13874,19.633 -6.39496,21.8495 5.86205,-8.70463 7.19433,-16.8761 3.99685,-21.8495z"/>
  <path fill="#F00000" stroke="black" stroke-width="0.992126" d="M29.1073 313.451c-4.54734,-2.69887 -11.6819,-14.108 -11.1912,-22.1159 0.248032,-4.05156 11.2921,0.333354 10.3918,5.86205 -0.847843,5.2081 0.0887245,9.68145 0.79937,16.2539z"/>
  <path fill="white" d="M21.1136 292.135c0.0890079,-0.621922 -3.01975,0.0887245 -2.93103,0.532914 1.41619,7.09966 3.02457,11.2853 5.86205,14.1222 -2.39811,-4.44104 -2.66457,-9.50372 -2.93103,-14.6551z"/>
  <path fill="#F00000" stroke="black" stroke-width="0.992126" d="M29.0166 310.431c-1.42413,4.95695 -0.0215433,11.7071 3.51355,16.8613 1.78866,2.60731 11.444,-3.02599 5.12788,-5.94794 -4.3217,-1.99928 -6.4834,-6.23736 -8.64142,-10.9134z"/>
  <path fill="white" d="M30.4396 319.313c-0.444189,1.95392 0.532347,4.61849 2.93103,7.9937l2.13165 -0.266457c-2.39868,-2.57641 -4.08671,-5.15254 -5.06268,-7.72725z"/>
  <path fill="#0057F0" d="M172.728 394.587c0.111118,1.77619 1.22145,2.55345 2.3315,3.33071 2.4429,0.665575 5.21859,0.887811 7.66063,0.666142l1.99843 0.666142 4.99607 0 0 1.66536 -14.6551 -0.666142 0 3.33071c1.44142,2.13789 9.54369,3.3874 24.3071,3.74939l-5.00088 -4.32312 9.00482 4.23751c-6.77226,0.776977 -13.5445,1.11005 -20.3173,0.999213l11.3244 4.66299 -13.989 -3.99685 -12.6567 10.9913c11.2694,2.3315 23.26,3.21931 36.3047,1.99843l-1.33228 1.66536c-9.74353,1.31981 -56.6354,2.41767 -63.6166,-18.652l1.66536 -0.333071c0.222803,7.327 9.10432,11.9906 24.6473,13.989l12.3236 -9.32599 0 -2.66457 -2.99764 -0.999213c-8.65985,6.21723 -32.3079,10.103 -33.9732,-7.32756l-1.33228 0.999213c-17.3197,35.7494 38.3032,37.1928 58.9536,36.3047 7.77204,-2.66514 10.2147,-7.5498 7.32756,-14.6551l-0.999213 -3.66378 -0.333071 -3.99685 -6.66142 -0.666142 7.66063 -1.33228 0 -9.65906 -0.999213 -0.999213 1.66536 -9.99213 -6.66142 2.66457 -0.666142 -0.666142 7.9937 -3.99685 1.33228 -2.3315 0 -1.66536 -1.33228 0.333071 -5.99528 5.32914 -1.33228 0.333071 4.66299 -5.66221 0.333071 -3.33071 0.666142 2.99764 3.66378 -2.3315c0.999213,-12.3236 3.99685,-26.3126 2.99764,-36.9709 -4.1624,7.99314 -8.93679,14.7657 -13.989,20.9835l-0.333071 -1.99843c7.16202,-9.60407 12.3803,-18.3753 13.3228,-25.3134l-2.66457 -7.32756 -1.33228 0.999213c-2.91402,8.82596 -7.41062,18.7073 -12.9898,29.3103l-1.66536 -1.33228c5.10917,-9.02155 9.43966,-17.8481 10.9913,-25.9795l-11.3244 10.3252 9.32599 -10.9913 15.3213 -10.9913c19.3796,-6.11433 10.9406,-19.7875 6.19626,-18.1063 -24.7164,8.75934 -10.5202,-11.882 -24.0268,-10.1058 -6.73455,5.51027 -10.4085,4.92236 -16.761,-0.0586772 -6.34763,-4.97679 -15.3284,-6.58602 -17.43,6.86863 -3.24057,-8.57084 6.55455,-17.3222 17.3906,-10.0587 4.10202,2.74961 7.54753,8.2817 14.525,2.39273 12.049,-10.1693 31.453,-28.3751 38.9772,-39.2287 -6.10753,12.2159 -18.3441,22.1102 -34.0248,36.6687 9.65708,4.65676 0.998646,20.3241 22.3101,10.9726 4.62983,-2.03159 9.02892,9.37248 5.49978,14.874 -2.74536,4.27918 -8.94813,5.08025 -12.3233,9.7784 5.22425,2.81821 12.0555,12.3925 17.9612,13.4002 5.21036,0.889229 10.1021,-5.7994 13.873,-9.47651 12.9753,-12.6519 21.3834,6.48766 36.0437,-1.26907 14.7427,-7.80067 -1.41222,-23.0414 15.3329,-13.0975 17.3611,10.3102 36.8841,5.84476 27.002,-11.0081 -2.67279,-4.55868 0.126425,-6.44655 5.60637,-5.55562 5.02498,0.816662 9.9876,-14.4094 9.74863,-17.625 -3.44211,-3.44211 -2.8868,-11.3244 1.66536,-15.6543 -31.7529,-8.32678 -30.1986,-15.9874 -45.2977,-23.9811l0.999213 -2.3315 5.32914 4.32992 2.66457 0.333071 0 -2.3315 2.66457 2.99764 -5.99528 -13.3228c-2.772,0.889796 -7.10306,1.00035 -11.6575,0.999213 0.328819,3.88545 0.99241,7.7709 3.99685,11.6575l-1.66536 1.66536c-2.10983,-3.10904 -3.7749,-7.55008 -4.99607,-13.3228l-7.32756 0 1.99843 13.3228 -1.66536 0 -2.66457 -12.9898 -6.66142 0 0.333071 4.66299 -1.33228 6.32835 -0.666142 7.66063 -1.66536 0 0.999213 -18.652 -30.3095 -0.666142c-31.1976,30.6425 -85.377,48.2953 -79.604,71.9433l3.66378 -0.333071 -1.74444 3.0155c5.4,-1.82268 10.7997,-6.30992 16.1992,-13.4617l2.1172 0.0949607c-4.9663,5.89578 -10.1551,11.5679 -16.905,15.6804 -10.103,6.99449 -0.888095,34.3063 0.666142,39.9685l14.3221 20.9835 -1.66536 -0.333071 -11.9906 -17.6528 3.66378 34.6394 3.66378 3.33071 3.66378 1.33228 0.666142 0.999213 4.66299 0.666142 0.666142 0.999213 21.3165 0.666142 -0.666142 0.999213 -11.6575 0c0.768473,2.11125 4.65789,3.44268 8.99292,4.66299 -3.55266,0.888095 -7.54952,-0.444189 -11.9906,-3.99685l-5.66221 -0.333071 -2.3315 -1.66536 -3.66378 0 -1.99843 -1.33228 -2.66457 0.666142z"/>
  <path fill="black" d="M283.307 259.028l1.99843 0.666142c11.9299,16.8225 26.8084,33.0313 42.9662,37.304l-0.666142 1.66536c-14.4335,-3.66378 -29.5328,-18.2084 -44.2984,-39.6355z"/>
  <path fill="black" d="M276.979 266.355c5.43997,20.0951 7.54952,32.8629 11.3244,49.2945l2.99764 6.99449c-3.61106,-18.4836 -7.61188,-37.1622 -13.0011,-56.5345l-1.32095 0.24548z"/>
  <path fill="black" d="M255.329 325.975l1.66536 -1.99843c0.0552756,-18.5686 2.27537,-43.2709 7.66063,-61.9512l-1.66536 -0.666142c-4.98303,22.0249 -7.12007,43.4801 -7.66063,64.6158z"/>
  <path fill="black" d="M230.016 306.99l0.333071 5.32914c7.32728,-18.7628 15.8757,-36.9706 24.9803,-53.9575l-1.66536 0.333071c-7.88287,15.0429 -15.7657,31.4748 -23.648,48.2953z"/>
  <path fill="black" d="M337.265 283.675l0.999213 2.66457c-19.6654,-8.60372 -33.0713,-19.4839 -42.9662,-31.6417l2.3315 0.333071 6.66142 6.99449 -1.33228 -7.32756 2.3315 1.66536 0.999213 6.99449 1.33228 0.666142 0 -5.66221 0.999213 0.333071 0.666142 6.66142 3.33071 2.99764 -0.999213 -4.99607 1.33228 0.666142 1.66536 6.99449 1.33228 -3.33071 0.999213 0 0.333071 5.32914 3.66378 0.999213 0.999213 1.66536c5.10747,3.55266 10.2147,6.21751 15.3213,7.9937z"/>
  <polygon fill="black" points="182.054,296.331 183.053,297.331 170.729,308.988 170.729,307.656 "/>
  <polygon fill="black" points="184.385,296.998 185.384,297.997 173.061,309.654 173.061,308.322 "/>
  <polygon fill="black" points="190.047,297.997 191.046,298.996 178.723,310.654 178.723,309.321 "/>
  <polygon fill="black" points="197.708,295.665 198.707,296.665 183.719,311.653 183.719,310.32 "/>
  <polygon fill="black" points="203.037,296.331 204.036,297.331 189.048,312.319 189.048,310.987 "/>
  <polygon fill="black" points="205.035,300.328 206.035,301.328 195.043,314.317 195.043,312.985 "/>
  <polygon fill="black" points="205.702,303.659 206.701,304.658 197.375,317.315 197.375,315.983 "/>
  <polygon fill="black" points="209.698,305.324 210.698,306.324 202.704,317.981 202.704,316.649 "/>
  <polygon fill="black" points="212.03,307.656 213.029,308.655 205.035,320.313 205.035,318.98 "/>
  <polygon fill="black" points="217.692,305.991 218.691,306.99 210.698,318.647 210.698,317.315 "/>
  <polygon fill="black" points="220.024,308.322 221.023,309.321 212.696,323.31 212.696,321.978 "/>
  <polygon fill="black" points="224.687,305.324 225.686,306.324 217.026,321.978 217.026,320.646 "/>
  <path fill="black" d="M182.72 288.005c3.21931,2.04293 6.44003,4.79622 9.65906,3.99685l-0.666142 2.3315c-4.11166,-0.994678 -6.66369,-3.54955 -8.99292,-6.32835z"/>
  <path fill="black" d="M190.38 281.343c3.21931,2.04293 6.44003,4.79622 9.65906,3.99685l-0.666142 2.3315c-4.11166,-0.994678 -6.66369,-3.54955 -8.99292,-6.32835z"/>
  <path fill="black" d="M188.382 286.087c2.33121,1.47912 4.66356,3.47301 6.99449,2.89417l-0.482457 1.68832c-2.97723,-0.720284 -4.82542,-2.57046 -6.51203,-4.58249z"/>
  <path fill="black" d="M196.376 277.76c2.33121,1.47912 4.66356,3.47301 6.99449,2.89417l-0.482457 1.68832c-2.97723,-0.720284 -4.82542,-2.57046 -6.51203,-4.58249z"/>
  <path fill="black" d="M201.705 274.751c1.99814,1.26794 3.99714,2.97695 5.99528,2.48088l-0.413575 1.44709c-2.55203,-0.617386 -4.13603,-2.20309 -5.5817,-3.92797z"/>
  <path fill="black" d="M206.035 270.421c1.99814,1.26794 3.99714,2.97695 5.99528,2.48088l-0.413575 1.44709c-2.55203,-0.617386 -4.13603,-2.20309 -5.5817,-3.92797z"/>
  <path fill="black" d="M210.031 266.424c1.99814,1.26794 3.99714,2.97695 5.99528,2.48088l-0.413575 1.44709c-2.55203,-0.617386 -4.13603,-2.20309 -5.5817,-3.92797z"/>
  <path fill="black" d="M206.609 290.338c1.75947,3.38258 4.82967,8.04643 8.01525,8.97024l-1.74614 1.68236c-3.05745,-2.92337 -5.6486,-7.0801 -6.26911,-10.6526z"/>
  <path fill="black" d="M209.606 287.341c1.75947,3.38258 4.82967,8.04643 8.01525,8.97024l-1.74614 1.68236c-3.05745,-2.92337 -5.6486,-7.0801 -6.26911,-10.6526z"/>
  <path fill="black" d="M213.272 284.674c1.53978,2.96022 4.22646,7.04155 7.01433,7.84999l-1.52787 1.47232c-2.67591,-2.55827 -4.94334,-6.19597 -5.48646,-9.3223z"/>
  <path fill="black" d="M216.936 278.679c1.09587,4.73641 4.44898,7.15267 7.68076,6.18435l-1.19509 1.80567c-3.79021,0.227906 -6.61125,-3.19181 -6.48567,-7.99002z"/>
  <path fill="black" d="M221.932 275.015c1.54006,2.95994 3.22725,6.37512 6.01512,7.18356l-1.52787 1.47232c-2.67591,-2.55827 -3.94413,-5.52983 -4.48725,-8.65588z"/>
  <path fill="black" d="M225.929 272.018c1.53978,2.95994 4.22646,2.37827 7.01433,3.18671l-1.19509 2.13846c-3.00898,-0.892914 -5.27613,-2.19912 -5.81925,-5.32517z"/>
  <polygon fill="black" points="231.015,267.354 231.015,270.019 235.012,273.016 234.679,268.687 "/>
  <polygon fill="black" points="238.343,260.693 235.012,262.358 234.346,264.024 238.343,265.023 "/>
  <polygon fill="black" points="248.002,245.039 244.671,252.033 245.67,253.365 250,245.039 "/>
  <polygon fill="black" points="240.341,258.361 243.006,257.695 243.006,254.365 240.341,255.364 "/>
  <path fill="black" d="M256.328 266.688c-10.1889,29.6328 -16.4611,52.0866 -21.3165,71.9433 4.40873,-24.3661 10.6875,-48.4651 21.3165,-71.9433z"/>
  <polygon fill="black" points="221.356,323.976 220.024,324.642 235.345,337.299 235.012,334.302 "/>
  <polygon fill="black" points="226.019,320.979 224.687,321.645 235.012,330.638 234.679,327.64 "/>
  <polygon fill="black" points="228.683,317.981 227.351,318.647 237.01,327.307 236.677,324.309 "/>
  <polygon fill="black" points="233.68,312.985 232.347,313.651 238.343,319.646 238.009,316.649 "/>
  <polygon fill="black" points="235.012,304.991 233.68,305.657 239.675,311.653 239.342,308.655 "/>
  <path fill="black" d="M237.01 298.33l-1.33228 1.99843c1.99843,4.22731 3.99657,4.00195 5.99528,4.66299l-0.333071 -2.3315c-2.3315,-0.333354 -3.77518,-2.22066 -4.32992,-4.32992z"/>
  <path fill="black" d="M240.141 293.667l-1.13244 1.6988c1.6988,3.5932 3.39704,3.40158 5.09613,3.9634l-0.283181 -1.9817c-1.9817,-0.283465 -3.2091,-1.88759 -3.68051,-3.68051z"/>
  <path fill="black" d="M242.806 286.672l-1.13244 1.6988c1.6988,3.5932 3.39704,3.40158 5.09613,3.9634l-0.283181 -1.9817c-1.9817,-0.283465 -3.2091,-1.88759 -3.68051,-3.68051z"/>
  <path fill="black" d="M245.411 280.011l-0.740126 1.11033c1.11033,2.34822 2.22038,2.22321 3.33071,2.5903l-0.185102 -1.29515c-1.29515,-0.185102 -2.09736,-1.23364 -2.40548,-2.40548z"/>
  <polygon fill="black" points="256.994,262.358 257.661,253.698 255.329,255.697 261.991,244.705 264.655,245.705 259.659,251.367 258.716,258.961 "/>
  <path fill="black" d="M258.993 320.313l-0.666142 1.99843c4.32964,2.66854 8.65956,3.77688 12.9898,4.66299l0 -1.66536c-4.44246,-0.996662 -8.7738,-2.21641 -12.3236,-4.99607z"/>
  <path fill="black" d="M258.993 313.984l-0.666142 1.99843c4.32964,2.66854 8.65956,3.77688 12.9898,4.66299l0 -1.66536c-4.44246,-0.996662 -8.7738,-2.21641 -12.3236,-4.99607z"/>
  <path fill="black" d="M260.838 307.989l-0.512504 1.99843c3.33014,4.00082 6.66085,5.10917 9.99213,4.66299l0 -1.66536c-3.41717,0.117354 -6.74929,-1.548 -9.47963,-4.99607z"/>
  <path fill="black" d="M261.401 300.661l-0.40989 1.99843c2.66428,4.00082 5.66192,4.10995 8.32678,3.66378l0 -1.66536c-2.73402,0.117354 -5.73251,-0.548788 -7.91689,-3.99685z"/>
  <path fill="black" d="M263.268 294.333l-0.611717 2.35814c1.81162,2.72069 3.18388,2.46161 4.99607,2.1583l0 -1.13244c-1.85896,0.079937 -2.89899,-1.03918 -4.38435,-3.384z"/>
  <polygon fill="black" points="264.322,266.022 265.987,265.356 266.32,273.016 264.655,272.017 "/>
  <polygon fill="black" points="263.656,276.347 263.323,279.345 265.321,280.344 "/>
  <polygon fill="black" points="262.657,288.005 262.99,286.672 266.654,289.337 "/>
  <polygon fill="black" points="290.635,312.985 291.967,311.32 302.958,312.652 304.624,314.317 "/>
  <path fill="black" d="M288.636 305.991l1.33228 -1.66536c3.35821,1.72063 7.07755,2.71956 11.3244,2.66457l1.66536 1.66536c-4.77411,0.443622 -9.54851,-0.444473 -14.3221,-2.66457z"/>
  <path fill="black" d="M289.503 293.833l0.693922 -1.16561c1.74926,1.20444 3.68674,1.90347 5.8989,1.8652l0.867402 1.16561c-2.48684,0.310394 -4.97367,-0.311244 -7.46022,-1.8652z"/>
  <polygon fill="black" points="281.642,266.094 283.307,265.689 283.64,270.352 281.975,269.744 "/>
  <polygon fill="black" points="285.306,275.681 284.972,278.679 286.971,279.678 "/>
  <polygon fill="black" points="288.303,287.339 288.636,286.006 292.3,288.671 "/>
  <path fill="black" d="M289.302 300.661l0.960378 -1.66536c2.42107,1.72063 5.10265,2.71956 8.16435,2.66457l1.20047 1.66536c-3.44183,0.443622 -6.88394,-0.444473 -10.3252,-2.66457z"/>
  <polygon fill="black" points="293.965,262.764 295.631,262.358 295.964,267.021 294.298,266.413 "/>
  <path fill="black" d="M309.154 282.176l0.693922 -1.16561c1.74926,1.20444 3.68674,1.90347 5.8989,1.8652l0.867402 1.16561c-2.48684,0.310394 -4.97367,-0.311244 -7.46022,-1.8652z"/>
  <path fill="black" d="M304.491 276.847l0.693922 -1.16561c1.74926,1.20444 3.68674,1.90347 5.8989,1.8652l0.867402 1.16561c-2.48684,0.310394 -4.97367,-0.311244 -7.46022,-1.8652z"/>
  <polygon fill="black" points="300.627,267.687 300.294,270.685 302.292,271.684 "/>
  <path fill="black" d="M315.13 289.267l0.555307 -1.23789c1.87597,0.995245 3.88092,1.46693 6.07408,1.17439l0.995812 1.05817c-2.43468,0.594425 -4.97651,0.263055 -7.6252,-0.994678z"/>
  <path fill="black" d="M323.752 295.424l0.0266457 -1.3561c2.11578,0.181417 4.14567,-0.168945 6.04914,-1.29657l1.33058 0.584221c-2.00778,1.49981 -4.47676,2.18948 -7.40637,2.06844z"/>
  <polygon fill="black" points="291.301,256.363 290.968,259.361 292.966,260.36 "/>
  <polygon fill="black" points="284.972,251.866 286.638,251.45 286.638,249.368 284.972,249.993 "/>
  <path fill="#0057F0" d="M353.252 278.346l-10.6583 0.666142c0.221953,-3.66378 0.888378,-6.88309 1.99843,-9.65906l0.333071 8.99292 0.999213 -0.666142 0 -7.92737 1.66536 -0.666142 0.999213 7.92737 1.2155 -0.333071 -0.915591 -7.14444c2.21499,-0.343559 3.93137,2.09055 4.36309,8.8098z"/>
  <path fill="#0057F0" d="M249.001 220.058l53.2914 -0.333071c1.88731,3.55238 1.99814,7.10504 0.333071,10.6583l-54.9567 0.999213c3.78794,-3.7749 6.46129,-7.55037 1.33228,-11.3244z"/>
  <path fill="#0057F0" d="M238.343 219.059l0.999213 11.3244 4.66299 0c2.99764,-2.55373 7.32756,-6.43947 0,-9.65906l-5.66221 -1.66536z"/>
  <ellipse fill="black" cx="242.506" cy="226.22" rx="1.83175" ry="2.16482"/>
  <path fill="#0057F0" d="M235.678 205.07l5.32914 11.6575 4.99607 -0.666142 -1.99843 -9.32599 4.16608 9.43994 4.82684 0.552189 -2.99764 -10.9913 1.33228 0.333071 3.66378 10.9913 9.99213 0 4.32992 -10.3252 -0.333071 9.65906 18.3189 0 2.3315 -2.3315 -0.333071 -8.32678 4.99607 -7.32756 -1.99843 7.66063 -0.666142 6.66142 1.66536 3.33071 12.3236 -0.333071 0.333071 -9.32599 -3.66378 4.32992 -2.3315 -1.99843c8.04388,-16.2507 32.8451,-56.1889 18.4697,-73.7334 -12.8605,-15.6957 -38.5149,-5.3572 -44.1162,-3.53906l-0.333071 1.99843 15.3213 -3.33071 -0.666142 2.66457c-33.8624,7.77175 -43.7434,18.5411 -63.6166,27.3118 10.4363,6.66142 6.21751,17.3197 -10.6583,5.99528 -18.0408,-5.66192 -35.0275,-9.21459 -51.2929,-11.3244 -4.60744,6.93922 -7.38312,15.7102 -9.32599,25.3134 18.097,6.32835 34.1955,13.6559 54.2906,18.985l-2.3315 -5.32914 2.3315 -0.999213 4.32992 6.99449c4.59071,5.68375 8.96656,5.94766 13.7857,4.0201 2.268,-0.907371 7.74993,1.3028 11.1946,-3.68703l-7.9937 -2.99764 0.333071 -2.66457 14.3221 2.99764c33.196,-13.4337 42.0778,-15.2101 59.6197,-44.2984l4.32992 -0.333071c1.88731,7.66063 -2.8868,13.3228 -4.32992,19.9843l-2.99764 -0.666142c1.44312,-4.88495 4.88495,-10.7691 4.32992,-15.3213l-10.9913 14.9882 -1.66536 6.99449 -0.666142 -3.33071 -9.32599 6.99449 -0.666142 6.66142 -1.33228 -5.66221 -7.29922 4.36847 -2.03386 2.89049 -1.27247 -0.134646c-11.342,4.84186 -23.3501,8.68451 -34.026,14.5253z"/>
  <path fill="#0057F0" d="M224.02 163.769l-3.99685 2.3315c2.66457,2.10954 12.3236,4.55216 3.99685,-2.3315z"/>
  <path fill="#0057F0" d="M225.02 155.775c9.43682,-1.44312 11.2133,-7.21644 41.3008,-19.3181l-30.6425 -13.989 -2.66457 0.333071 -4.99607 3.33071 -3.66378 0.333071 -0.333071 -2.66457 4.32992 -2.3315 -0.333071 -1.66536 -1.99843 -0.333071c-4.99607,-0.221953 -9.65906,8.88208 -16.9866,0.333071 -9.99213,-3.55266 -1.99843,-6.43918 -2.99764,-9.65906l3.33071 0.333071 -0.333071 2.3315 -0.999213 2.3315 11.3244 -0.999213 0 -2.3315c-6.82781,-15.793 -10.4916,-31.0584 -11.9906,-45.9638 -9.93657,0 -15.0435,-2.3315 -26.3126,0l0 19.9843 1.99843 0c1.99843,-4.66299 4.99607,-8.32678 5.99528,-13.989l2.3315 -0.333071c0.333638,6.68948 -4.88438,14.961 -10.3252,24.3142 -0.124724,23.3357 0.541418,31.8019 7.76693,36.7603 5.35295,3.67342 11.8429,3.15978 16.2142,5.53975l0 2.3315 -5.32914 0.333071 25.3134 14.9882z"/>
  <polygon fill="#0057F0" points="214.028,119.804 221.356,119.138 221.356,116.473 "/>
  <path fill="#FFC8C8" d="M158.589 156.142c-2.55628,4.75796 -5.39405,10.7439 -6.1784,17.2865 -5.97203,-3.76583 -3.81373,3.2984 -22.9819,1.18233 -2.38224,-0.507685 -2.66769,-1.57295 -2.36523,-2.71701 0.264756,-1.00261 2.39301,-1.16901 5.36287,-0.796819l0.20041 -1.44907 -6.86183 -0.216284c-2.3315,-2.55345 -1.77591,-4.55216 0.333071,-5.32914l3.99685 0.333071 0.399402 -1.78214c-3.87156,-0.513922 -9.88612,-0.00425197 -9.99185,-4.70665 -0.0875906,-3.90303 3.84832,-1.22173 8.59323,-0.655654 0.688819,-0.77726 0.577985,-1.404 -0.333071,-2.18154 -4.86255,-0.210614 -7.14416,-1.72602 -7.73519,-3.13852 -0.591024,-1.41279 0.507685,-2.72325 3.73833,-2.52369l12.8398 -0.632977 0.149953 -1.69852c-1.60923,-2.02932 -4.91811,-1.16787 -5.41474,-2.25808 -0.502299,-1.10268 -1.79632,-0.114236 -2.46217,1.47515 -1.21947,1.13528 -3.72529,-0.188504 -3.33071,-2.46416 6.02164,-7.76892 10.1954,-1.35638 14.5225,-0.365386 11.556,2.64699 6.34054,10.1296 17.5187,12.6386z"/>
  <path fill="#FFC8C8" stroke="black" stroke-width="0.216" d="M180.872 44.3285c-0.375307,3.12378 1.02331,5.92214 5.84816,8.24741l-0.299906 1.49953 0 6.44797 6.44797 0.299906 -0.299906 -11.0965 0.899717 0.299906 0.749764 6.74788 0 4.34863 1.94939 -0.149953 -0.149953 -9.89689 0.749764 0.149953 0.749764 10.1968 6.89783 0.449858 -0.449858 -9.14712 -2.8491 0c1.87427,-1.42129 7.7298,-1.15285 8.94643,-7.09937 1.52816,-7.46901 6.91257,-10.1605 4.60885,-15.2589 -1.09021,-2.41228 -1.36573,-7.21474 -4.70807,-9.28177 -1.2498,0.699874 -1.8995,1.84961 -3.74882,2.09934 1.02643,-1.04967 3.07899,-1.94882 2.39925,-2.99906 -1.64976,-0.449858 -3.49909,-0.499465 -5.54825,-0.149953 -0.570614,2.83153 1.55821,2.06419 2.33745,3.09629 0.120473,3.01663 0.240945,4.83364 3.06085,5.90088 1.41647,3.70658 -2.08006,6.49389 -1.79065,9.0326 0.468851,4.11194 -12.3849,6.65603 -25.8007,6.26259z"/>
  <path fill="#FFC8C8" d="M184.471 31.1326c-0.899434,0.499465 -1.99871,0.599244 -3.29896,0.299906 1.04995,0.699874 2.29947,0.999497 3.74882,0.899717 0.92778,2.41795 2.15008,4.90536 2.11833,5.89266 -1.5806,0.124158 -2.32923,0.528378 -2.56819,0.70526 -1.64948,-1.5497 -5.24835,-6.54775 -4.94844,-13.9456 0.9,-1.54942 2.29975,-1.49924 3.59887,0.149953l1.34958 5.99811z"/>
  <path fill="#FFC8C8" d="M187.62 39.2301c-1.04967,-0.499181 -1.89978,-0.398835 -2.5492,0.299906 0.999497,3.34914 3.34885,1.59959 2.5492,-0.299906z"/>
  <path fill="#FFC8C8" d="M192.118 38.4803c-1.04995,-1.55395 -2.64983,-0.951874 -3.29896,0.299906 0.999497,3.34914 4.09862,1.59959 3.29896,-0.299906z"/>
  <path fill="#FFC8C8" d="M197.517 37.8805c-1.04995,-1.09899 -2.64983,-0.998646 -3.29896,0.299906 0.999213,4.10173 4.09833,2.05087 3.29896,-0.299906z"/>
  <path fill="#FFC8C8" d="M204.114 36.6809c-1.24951,-1.09899 -3.29953,-0.998646 -3.74882,0.299906 1.19934,2.94917 4.74803,1.19934 3.74882,-0.299906z"/>
  <path fill="#FFC8C8" d="M190.019 29.1833c-0.499465,0.899434 -1.89893,1.54885 -3.59887,1.64948 1.44964,0.399402 2.89956,0.199559 4.34863,-0.599811 0.92778,2.41795 1.40032,5.65512 1.36857,6.64243 -1.83175,-0.377858 -3.67937,0.377008 -3.76781,0.855213 -0.974552,-1.77477 -3.97332,-7.17307 -3.89877,-14.3955 0.600095,-1.99928 3.34942,-3.29868 4.64854,-1.64948l0.899717 7.49764z"/>
  <path fill="#FFC8C8" d="M195.867 27.2339c-0.499465,0.899434 -1.59902,1.84876 -3.29896,1.94939 1.44964,0.399402 2.1498,0.349512 3.59887,-0.449858 0.92778,2.41795 0.800504,6.55484 0.768756,7.54215 -1.90063,-0.515906 -2.88567,0.164976 -3.01805,0.555307 -0.0745512,-0.875056 -3.12321,-7.22325 -3.74882,-15.1452 0.600095,-1.99928 2.74961,-3.14873 4.04873,-1.49953 1.14973,2.1994 1.09956,4.69871 1.64948,7.04778z"/>
  <path fill="#FFC8C8" d="M202.165 25.8843c-0.499465,0.899434 -1.44907,1.84876 -3.14901,1.94939 1.44964,0.399402 2.1498,0.499465 3.59887,-0.299906 0.92778,2.41795 1.40032,6.85474 1.36857,7.84205 -1.58117,-0.515906 -3.67881,0.0150236 -3.91777,0.405355 -0.0745512,-0.875056 -2.37345,-6.92334 -3.59887,-14.9953 0.600095,-1.99928 2.89956,-3.44863 4.19868,-1.79943 1.37452,1.74983 1.12422,4.19925 1.49953,6.89783z"/>
  <path fill="white" d="M247.669 26.5439c10.9913,-3.77462 26.9788,-4.21881 32.974,-11.3244l1.33228 0.666142 0.333071 1.66536c-5.54996,4.49717 -18.4292,7.16145 -34.6394,8.99292z"/>
  <path fill="white" d="M306.955 19.8825c5.99528,-4.10769 15.3213,-6.5503 20.9835,-7.32756l-0.999213 1.66536c-6.77254,1.77647 -8.88208,3.55295 -13.3228,5.32914l-6.66142 0.333071z"/>
  <path fill="white" d="M345.258 17.8841l5.66221 -3.33071 8.32678 0 0 1.66536c-5.66221,-0.111118 -9.99213,2.7754 -13.989,1.66536z"/>
  <path fill="#FFC8C8" d="M263.697 64.9174l10.7864 0.171213c1.3697,2.68214 0.513638,7.0767 3.08183,9.07427 0.998363,-1.56926 2.42476,-2.99651 4.79396,-4.1091l-0.171213 15.5804 4.45153 0.171213c0.113953,6.56306 -3.53849,12.2701 1.3697,19.6895l1.3697 -2.22576c2.77512,6.71896 7.83978,13.9955 14.3819,20.3743l3.76668 -4.1091c1.59761,0.0566929 2.73884,0.341858 3.42425,0.856063 0.513355,-1.5412 2.28217,-2.79695 4.62274,-3.42425l-0.513638 9.4167c-12.4427,-3.28337 -23.0009,-2.484 -32.7016,0.171213l-1.3697 -8.56063 8.38942 -3.25304 0 -1.88334 -3.25304 0c-8.86026,3.86107 -27.3257,6.24785 -23.7541,-0.6823 1.30734,-2.53644 1.26085,-3.17566 1.15398,-5.31014l3.08183 1.54091 1.88334 0c0.0850394,-2.79638 -2.02706,-5.13666 -6.50608,-7.01972 -0.342142,-1.88362 0.457229,-3.02542 2.39698,-3.08183l-0.513638 -3.25304 -9.93034 -1.19849c-0.602646,-4.06715 4.83166,-6.35131 6.18832,-10.4854 1.83628,-5.59559 -4.36734,-7.2584 1.74104,-14.0516 1.38586,-1.5412 1.22003,-2.58973 1.82976,-4.39795z"/>
  <path fill="black" d="M270.374 110.118c0.342425,-3.25304 -1.02728,-4.79396 -1.54091,-7.19093 3.09175,1.25093 2.57386,4.10627 1.54091,7.19093z"/>
  <path fill="black" d="M267.806 69.8826c-3.93789,2.62517 -11.8137,9.01701 0,10.9576 -2.35417,2.30032 -4.19811,5.94567 -2.63027,10.0097 1.46126,3.78681 1.95336,9.29651 7.25301,12.5904 0.199559,-4.45153 -4.92775,-11.4846 -4.53742,-15.9228 0.541985,-6.16366 9.81638,-7.01972 5.73591,-10.7864l-6.84851 0c-1.19849,-2.45424 0.856063,-4.39455 1.02728,-6.84851z"/>
  <path fill="#C4A177" d="M278.764 67.3144c2.05455,-1.76939 0.856063,-4.22334 4.62274,-6.16366 2.62517,6.27761 2.51093,14.7813 1.3697,20.3743 1.14123,-0.570614 2.05399,-1.59817 2.7394,-3.08183l2.56819 0c-0.456662,6.79125 -2.28302,12.0419 -1.3697,20.3743l4.28032 -2.56819c-2.56819,7.70457 1.71213,15.4091 10.7864,23.1137 2.22576,-2.16879 4.28032,-6.0497 8.73185,-2.39698 1.66677,-5.50517 4.90167,-7.99541 12.6697,-7.19093 1.7691,-6.33487 10.501,-2.22576 10.7864,-8.21821l-5.30759 -0.513638 -1.02728 1.19849c-8.911,-8.45263 -6.2555,-35.3875 -11.8655,-40.57 -1.87087,-1.72828 -2.19147,-5.81556 -4.96942,-6.91399 -17.0856,-6.75525 -25.1725,-2.33717 -29.4185,-3.18189 -14.6993,-2.92479 -19.9775,1.62794 -20.177,9.74608 5.19336,1.99729 12.7837,-3.88092 15.5804,5.99244z"/>
  <polygon fill="black" points="291.776,63.7189 290.577,65.7735 292.632,81.3538 294.344,81.525 "/>
  <polygon fill="black" points="297.94,66.2871 296.741,68.3416 298.111,80.4977 299.309,79.6417 "/>
  <path fill="black" d="M301.877 96.5917l-0.856063 1.54091c1.28381,5.05077 3.50958,9.1596 6.16366,12.841l1.19849 -0.856063c-2.39783,-3.85399 -4.56718,-8.30495 -6.50608,-13.5258z"/>
  <path fill="black" d="M307.87 93.3387l-1.02728 1.54091c1.28381,5.05077 4.02321,7.96111 6.67729,11.6425l1.71213 -0.513638c-2.39811,-3.08381 -5.42353,-6.85021 -7.36215,-12.6697z"/>
  <path fill="black" d="M314.89 90.9417l-1.02728 1.54091c0.588473,4.8189 3.00643,10.6469 6.33487,14.5531l1.88334 -0.513638c-3.39732,-3.61219 -6.08032,-10.1466 -7.19093,-15.5804z"/>
  <path fill="black" d="M320.112 93.1675l-0.770457 0.995812c0.441355,3.11443 2.25496,6.88082 4.75115,9.40536l1.4125 -0.331937c-2.54806,-2.33462 -4.5601,-6.55767 -5.3932,-10.0692z"/>
  <path fill="black" d="M296.064 99.3311l-1.37707 1.18205c0.494646,4.76759 4.40986,10.705 7.20681,14.5698l1.58287 -0.508252c-2.85506,-3.57392 -6.47915,-9.86769 -7.4126,-15.2436z"/>
  <path fill="black" d="M297.947 98.6463l-1.548 0.326268c0.494646,4.76759 5.09471,11.9033 7.89166,15.768l1.58287 -0.508252c-2.85506,-3.57392 -6.99307,-10.2101 -7.92652,-15.586z"/>
  <path fill="white" d="M102.078 345.75c8.37808,1.79745 19.3198,6.16763 24.4188,3.25276 2.15943,-1.23449 17.3177,0.207496 24.5617,-8.32394l0.305858 -1.90035c-7.63937,8.99915 -21.4359,7.76495 -23.8754,8.34095 -8.22416,1.94173 -18.4819,-1.19906 -24.9565,-2.76577l-0.454394 1.39635zm51.19 -92.9787c1.2481,13.6899 -9.86004,21.0529 -20.2292,23.4207l0.312095 -1.19537c12.7653,-4.99805 19.5191,-12.1598 17.4878,-22.4841l2.42929 0.258803zm212.451 186.072c-5.65937,-28.4037 -33.3893,-17.9263 -39.9657,-45.9105 -2.32725,-9.90256 -11.9217,-25.3106 -20.0801,-28.9531l-1.18885 0.313229c11.3913,8.11928 16.5526,20.7921 19.8859,31.1553 8.92829,27.7583 33.4092,16.4333 38.6969,43.5297l2.65181 -0.134646zm-67.9553 -43.3335c4.2806,-2.64189 12.5289,-4.36819 22.5797,-5.67808 0.789166,1.1126 1.35723,2.22576 1.70362,3.33893 -5.68262,-2.3675 -14.1318,-0.169795 -23.8096,3.67937 8.48552,-0.0615118 18.1843,2.30372 28.889,6.67985l-0.676347 2.06788c-7.1606,-3.62665 -14.584,-5.93518 -22.1873,-7.34315l-5.90088 -1.27219 -0.598111 -1.4726zm-57.987 23.0803c13.2642,-1.36573 21.4396,-5.61572 20.9489,-14.0803 -13.6063,0.828851 -15.232,-3.6669 -17.856,-5.50007 7.32558,-0.0493229 9.99213,-7.91915 21.4778,-2.14469 3.16233,-5.30759 -2.52312,-10.3096 -12.2307,-15.1722 1.54885,-1.69342 12.083,-4.71799 18.6239,-12.5677 -7.42281,-1.86066 -12.3494,2.10246 -22.2679,-5.5817 5.46038,-2.64841 12.4535,-0.684 15.9608,-9.19049 -3.58243,-3.15836 -16.8157,1.50406 -25.7224,-4.98189l-2.53673 1.05392c11.8502,7.48914 19.8731,3.07984 25.5674,4.90961 -2.68158,4.10882 -9.02467,5.77814 -17.0311,6.33742 8.767,8.28596 11.7241,9.6806 22.7662,8.59352 -2.4772,4.14085 -11.2768,7.50558 -19.7433,10.7595 6.90322,4.21994 17.7905,7.74596 15.0987,13.9368 -9.82404,-6.03355 -13.3248,2.40945 -22.9822,3.53112 11.0432,12.4739 13.1015,5.14715 19.4859,7.80407 -2.4463,7.98548 -10.5072,10.6373 -21.8273,10.1925l2.268 2.10047zm-124.183 -61.801c9.91049,7.77941 14.9536,18.2628 12.8843,32.6991 2.99254,-1.17666 5.84618,-3.87865 8.39537,-9.93686 5.16161,6.70876 11.734,13.9306 21.7789,22.4155l1.96866 -1.02387c-8.27263,-6.98684 -16.0461,-14.1401 -23.8193,-23.9553 -2.10302,4.65421 -4.20633,7.99115 -6.30794,9.09638 0.881292,-17.3404 -5.83257,-24.0752 -14.3586,-30.0799l-0.541418 0.784914z"/>
 </g>
</svg>
