<?xml version="1.0" encoding="UTF-8" standalone="no"?>
<!-- Created with Inkscape (http://www.inkscape.org/) -->

<svg
   xmlns:dc="http://purl.org/dc/elements/1.1/"
   xmlns:cc="http://creativecommons.org/ns#"
   xmlns:rdf="http://www.w3.org/1999/02/22-rdf-syntax-ns#"
   xmlns:svg="http://www.w3.org/2000/svg"
   xmlns="http://www.w3.org/2000/svg"
   xmlns:sodipodi="http://sodipodi.sourceforge.net/DTD/sodipodi-0.dtd"
   xmlns:inkscape="http://www.inkscape.org/namespaces/inkscape"
   width="500"
   height="575"
   id="svg1901"
   sodipodi:version="0.32"
   inkscape:version="0.48.3.1 r9886"
   sodipodi:docname="Lemland.vaakuna.svg"
   version="1.0"
   inkscape:output_extension="org.inkscape.output.svg.inkscape">
  <defs
     id="defs1903" />
  <sodipodi:namedview
     id="base"
     pagecolor="#ffffff"
     bordercolor="#666666"
     borderopacity="1.0"
     inkscape:pageopacity="0.0"
     inkscape:pageshadow="2"
     inkscape:zoom="1"
     inkscape:cx="238.92508"
     inkscape:cy="226.28133"
     inkscape:document-units="px"
     inkscape:current-layer="layer1"
     gridtolerance="10000"
     inkscape:window-width="1280"
     inkscape:window-height="962"
     inkscape:window-x="-8"
     inkscape:window-y="-8"
     width="500px"
     height="575px"
     showgrid="false"
     inkscape:window-maximized="1" />
  <metadata
     id="metadata1906">
    <rdf:RDF>
      <cc:Work
         rdf:about="">
        <dc:format>image/svg+xml</dc:format>
        <dc:type
           rdf:resource="http://purl.org/dc/dcmitype/StillImage" />
        <dc:title>Lemlandin vaakuna, Lemlands vapen, Coat of arms of Lemland</dc:title>
        <dc:date>2007-07-23</dc:date>
        <dc:creator>
          <cc:Agent>
            <dc:title>Hippophaë, Wikipedia</dc:title>
          </cc:Agent>
        </dc:creator>
        <dc:subject>
          <rdf:Bag>
            <rdf:li>Lemland</rdf:li>
            <rdf:li>vaakuna</rdf:li>
            <rdf:li>vapen</rdf:li>
            <rdf:li>coat of arms</rdf:li>
          </rdf:Bag>
        </dc:subject>
        <cc:license
           rdf:resource="http://web.resource.org/cc/PublicDomain" />
        <dc:identifier>http://commons.wikimedia.org/wiki/Image:Lemland.vaakuna.svg</dc:identifier>
      </cc:Work>
      <cc:License
         rdf:about="http://web.resource.org/cc/PublicDomain">
        <cc:permits
           rdf:resource="http://web.resource.org/cc/Reproduction" />
        <cc:permits
           rdf:resource="http://web.resource.org/cc/Distribution" />
        <cc:permits
           rdf:resource="http://web.resource.org/cc/DerivativeWorks" />
      </cc:License>
    </rdf:RDF>
  </metadata>
  <g
     inkscape:label="Taso 1"
     inkscape:groupmode="layer"
     id="layer1"
     style="opacity:1">
    <path
       style="fill:#000000;fill-rule:evenodd;stroke:#000000;stroke-width:1px;stroke-linecap:butt;stroke-linejoin:miter;stroke-opacity:1;fill-opacity:1"
       d="M 0.5,0.5 L 499.5,0.5 L 499.5,450 C 499.5,535 460,550 350,550 C 310,550 255,550 250,574.5 C 245,550 190,550 150,550 C 40,550 0.5,535 0.5,450 L 0.5,0.5 z "
       id="path4317"
       sodipodi:nodetypes="cccscccc" />
    <path
       style="fill:#bf9f4f;fill-rule:evenodd;stroke:#000000;stroke-width:1px;stroke-linecap:butt;stroke-linejoin:miter;stroke-opacity:1;fill-opacity:1"
       d="M 20,440 L 480,440 L 480,450 L 20,450 L 20,440 z "
       id="path7226" />
    <path
       style="fill:#bf9f4f;fill-rule:evenodd;stroke:#000000;stroke-width:1px;stroke-linecap:butt;stroke-linejoin:miter;stroke-opacity:1;fill-opacity:1"
       d="M 130,95 L 370,95 L 480,285 C 490,300 490,305 480,305 L 20,305 C 10,305 10,300 20,285 L 130,95 z "
       id="path7228"
       sodipodi:nodetypes="ccccccc" />
    <path
       style="fill:none;fill-rule:evenodd;stroke:#000000;stroke-width:1px;stroke-linecap:butt;stroke-linejoin:miter;stroke-opacity:1"
       d="M 227.5,269.5 C 215.5,269.5 215.5,269.5 215.5,239.5 C 215.5,209.5 215.5,209.5 227.5,209.5 C 239.5,209.5 239.5,209.5 239.5,239.5 C 239.5,269.5 239.5,269.5 227.5,269.5 z "
       id="path14025"
       sodipodi:nodetypes="cssss" />
    <path
       sodipodi:nodetypes="cssss"
       id="path14996"
       d="M 272.5,269.5 C 260.5,269.5 260.5,269.5 260.5,239.5 C 260.5,209.5 260.5,209.5 272.5,209.5 C 284.5,209.5 284.5,209.5 284.5,239.5 C 284.5,269.5 284.5,269.5 272.5,269.5 z "
       style="fill:none;fill-rule:evenodd;stroke:#000000;stroke-width:1px;stroke-linecap:butt;stroke-linejoin:miter;stroke-opacity:1" />
    <path
       style="fill:none;fill-rule:evenodd;stroke:#000000;stroke-width:1px;stroke-linecap:butt;stroke-linejoin:miter;stroke-opacity:1"
       d="M 317.5,269.5 C 305.5,269.5 305.5,269.5 305.5,239.5 C 305.5,209.5 305.5,209.5 317.5,209.5 C 329.5,209.5 329.5,209.5 329.5,239.5 C 329.5,269.5 329.5,269.5 317.5,269.5 z "
       id="path14998"
       sodipodi:nodetypes="cssss" />
    <path
       sodipodi:nodetypes="cssss"
       id="path15000"
       d="M 362.5,269.5 C 350.5,269.5 350.5,269.5 350.5,239.5 C 350.5,209.5 350.5,209.5 362.5,209.5 C 374.5,209.5 374.5,209.5 374.5,239.5 C 374.5,269.5 374.5,269.5 362.5,269.5 z "
       style="fill:none;fill-rule:evenodd;stroke:#000000;stroke-width:1px;stroke-linecap:butt;stroke-linejoin:miter;stroke-opacity:1" />
    <path
       sodipodi:nodetypes="cssss"
       id="path15002"
       d="M 182.5,269.5 C 170.5,269.5 170.5,269.5 170.5,239.5 C 170.5,209.5 170.5,209.5 182.5,209.5 C 194.5,209.5 194.5,209.5 194.5,239.5 C 194.5,269.5 194.5,269.5 182.5,269.5 z "
       style="fill:none;fill-rule:evenodd;stroke:#000000;stroke-width:1px;stroke-linecap:butt;stroke-linejoin:miter;stroke-opacity:1" />
    <path
       style="fill:none;fill-rule:evenodd;stroke:#000000;stroke-width:1px;stroke-linecap:butt;stroke-linejoin:miter;stroke-opacity:1"
       d="M 137.5,269.5 C 125.5,269.5 125.5,269.5 125.5,239.5 C 125.5,209.5 125.5,209.5 137.5,209.5 C 149.5,209.5 149.5,209.5 149.5,239.5 C 149.5,269.5 149.5,269.5 137.5,269.5 z "
       id="path15004"
       sodipodi:nodetypes="cssss" />
    <path
       style="fill:none;fill-rule:evenodd;stroke:#000000;stroke-width:1px;stroke-linecap:butt;stroke-linejoin:miter;stroke-opacity:1"
       d="M 407.5,269.5 C 395.5,269.5 395.5,269.5 395.5,239.5 C 395.5,209.5 395.5,209.5 407.5,209.5 C 419.5,209.5 419.5,209.5 419.5,239.5 C 419.5,269.5 419.5,269.5 407.5,269.5 z "
       id="path15008"
       sodipodi:nodetypes="cssss" />
    <path
       sodipodi:nodetypes="cssss"
       id="path15010"
       d="M 92.5,269.5 C 80.5,269.5 80.5,269.5 80.5,239.5 C 80.5,209.5 80.5,209.5 92.5,209.5 C 104.5,209.5 104.5,209.5 104.5,239.5 C 104.5,269.5 104.5,269.5 92.5,269.5 z "
       style="fill:none;fill-rule:evenodd;stroke:#000000;stroke-width:1px;stroke-linecap:butt;stroke-linejoin:miter;stroke-opacity:1" />
    <path
       sodipodi:nodetypes="cssss"
       id="path15012"
       d="M 250,224.5 C 238,224.5 238,224.5 238,194.5 C 238,164.5 238,164.5 250,164.5 C 262,164.5 262,164.5 262,194.5 C 262,224.5 262,224.5 250,224.5 z "
       style="fill:none;fill-rule:evenodd;stroke:#000000;stroke-width:1px;stroke-linecap:butt;stroke-linejoin:miter;stroke-opacity:1" />
    <path
       style="fill:none;fill-rule:evenodd;stroke:#000000;stroke-width:1px;stroke-linecap:butt;stroke-linejoin:miter;stroke-opacity:1"
       d="M 295,224.5 C 283,224.5 283,224.5 283,194.5 C 283,164.5 283,164.5 295,164.5 C 307,164.5 307,164.5 307,194.5 C 307,224.5 307,224.5 295,224.5 z "
       id="path15014"
       sodipodi:nodetypes="cssss" />
    <path
       sodipodi:nodetypes="cssss"
       id="path15016"
       d="M 340,224.5 C 328,224.5 328,224.5 328,194.5 C 328,164.5 328,164.5 340,164.5 C 352,164.5 352,164.5 352,194.5 C 352,224.5 352,224.5 340,224.5 z "
       style="fill:none;fill-rule:evenodd;stroke:#000000;stroke-width:1px;stroke-linecap:butt;stroke-linejoin:miter;stroke-opacity:1" />
    <path
       style="fill:none;fill-rule:evenodd;stroke:#000000;stroke-width:1px;stroke-linecap:butt;stroke-linejoin:miter;stroke-opacity:1"
       d="M 385,224.5 C 373,224.5 373,224.5 373,194.5 C 373,164.5 373,164.5 385,164.5 C 397,164.5 397,164.5 397,194.5 C 397,224.5 397,224.5 385,224.5 z "
       id="path15018"
       sodipodi:nodetypes="cssss" />
    <path
       style="fill:#bf9f4f;fill-rule:evenodd;stroke:#000000;stroke-width:1px;stroke-linecap:butt;stroke-linejoin:miter;stroke-opacity:1;fill-opacity:1"
       d="M 205,224.5 C 193,224.5 193,224.5 193,194.5 C 193,164.5 193,164.5 205,164.5 C 217,164.5 217,164.5 217,194.5 C 217,224.5 217,224.5 205,224.5 z "
       id="path15020"
       sodipodi:nodetypes="cssss" />
    <path
       sodipodi:nodetypes="cssss"
       id="path15022"
       d="M 160,224.5 C 148,224.5 148,224.5 148,194.5 C 148,164.5 148,164.5 160,164.5 C 172,164.5 172,164.5 172,194.5 C 172,224.5 172,224.5 160,224.5 z "
       style="fill:none;fill-rule:evenodd;stroke:#000000;stroke-width:1px;stroke-linecap:butt;stroke-linejoin:miter;stroke-opacity:1" />
    <path
       style="fill:none;fill-rule:evenodd;stroke:#000000;stroke-width:1px;stroke-linecap:butt;stroke-linejoin:miter;stroke-opacity:1"
       d="M 115,224.5 C 103,224.5 103,224.5 103,194.5 C 103,164.5 103,164.5 115,164.5 C 127,164.5 127,164.5 127,194.5 C 127,224.5 127,224.5 115,224.5 z "
       id="path15024"
       sodipodi:nodetypes="cssss" />
    <path
       sodipodi:nodetypes="cssss"
       id="path15026"
       d="M 227.5,179.5 C 215.5,179.5 215.5,179.5 215.5,149.5 C 215.5,119.5 215.5,119.5 227.5,119.5 C 239.5,119.5 239.5,119.5 239.5,149.5 C 239.5,179.5 239.5,179.5 227.5,179.5 z "
       style="fill:none;fill-rule:evenodd;stroke:#000000;stroke-width:1px;stroke-linecap:butt;stroke-linejoin:miter;stroke-opacity:1" />
    <path
       style="fill:none;fill-rule:evenodd;stroke:#000000;stroke-width:1px;stroke-linecap:butt;stroke-linejoin:miter;stroke-opacity:1"
       d="M 272.5,179.5 C 260.5,179.5 260.5,179.5 260.5,149.5 C 260.5,119.5 260.5,119.5 272.5,119.5 C 284.5,119.5 284.5,119.5 284.5,149.5 C 284.5,179.5 284.5,179.5 272.5,179.5 z "
       id="path15028"
       sodipodi:nodetypes="cssss" />
    <path
       sodipodi:nodetypes="cssss"
       id="path15030"
       d="M 317.5,179.5 C 305.5,179.5 305.5,179.5 305.5,149.5 C 305.5,119.5 305.5,119.5 317.5,119.5 C 329.5,119.5 329.5,119.5 329.5,149.5 C 329.5,179.5 329.5,179.5 317.5,179.5 z "
       style="fill:none;fill-rule:evenodd;stroke:#000000;stroke-width:1px;stroke-linecap:butt;stroke-linejoin:miter;stroke-opacity:1" />
    <path
       style="fill:none;fill-rule:evenodd;stroke:#000000;stroke-width:1px;stroke-linecap:butt;stroke-linejoin:miter;stroke-opacity:1"
       d="M 362.5,179.5 C 350.5,179.5 350.5,179.5 350.5,149.5 C 350.5,119.5 350.5,119.5 362.5,119.5 C 374.5,119.5 374.5,119.5 374.5,149.5 C 374.5,179.5 374.5,179.5 362.5,179.5 z "
       id="path15032"
       sodipodi:nodetypes="cssss" />
    <path
       style="fill:none;fill-rule:evenodd;stroke:#000000;stroke-width:1px;stroke-linecap:butt;stroke-linejoin:miter;stroke-opacity:1"
       d="M 182.5,179.5 C 170.5,179.5 170.5,179.5 170.5,149.5 C 170.5,119.5 170.5,119.5 182.5,119.5 C 194.5,119.5 194.5,119.5 194.5,149.5 C 194.5,179.5 194.5,179.5 182.5,179.5 z "
       id="path15034"
       sodipodi:nodetypes="cssss" />
    <path
       sodipodi:nodetypes="cssss"
       id="path15036"
       d="M 137.5,179.5 C 125.5,179.5 125.5,179.5 125.5,149.5 C 125.5,119.5 125.5,119.5 137.5,119.5 C 149.5,119.5 149.5,119.5 149.5,149.5 C 149.5,179.5 149.5,179.5 137.5,179.5 z "
       style="fill:none;fill-rule:evenodd;stroke:#000000;stroke-width:1px;stroke-linecap:butt;stroke-linejoin:miter;stroke-opacity:1" />
    <path
       style="fill:none;fill-rule:evenodd;stroke:#000000;stroke-width:1px;stroke-linecap:butt;stroke-linejoin:miter;stroke-opacity:1"
       d="M 250,314.5 C 238,314.5 238,314.5 238,284.5 C 238,254.5 238,254.5 250,254.5 C 262,254.5 262,254.5 262,284.5 C 262,314.5 262,314.5 250,314.5 z "
       id="path15038"
       sodipodi:nodetypes="cssss" />
    <path
       sodipodi:nodetypes="cssss"
       id="path15040"
       d="M 295,314.5 C 283,314.5 283,314.5 283,284.5 C 283,254.5 283,254.5 295,254.5 C 307,254.5 307,254.5 307,284.5 C 307,314.5 307,314.5 295,314.5 z "
       style="fill:none;fill-rule:evenodd;stroke:#000000;stroke-width:1px;stroke-linecap:butt;stroke-linejoin:miter;stroke-opacity:1" />
    <path
       style="fill:none;fill-rule:evenodd;stroke:#000000;stroke-width:1px;stroke-linecap:butt;stroke-linejoin:miter;stroke-opacity:1"
       d="M 340,314.5 C 328,314.5 328,314.5 328,284.5 C 328,254.5 328,254.5 340,254.5 C 352,254.5 352,254.5 352,284.5 C 352,314.5 352,314.5 340,314.5 z "
       id="path15042"
       sodipodi:nodetypes="cssss" />
    <path
       sodipodi:nodetypes="cssss"
       id="path15044"
       d="M 385,314.5 C 373,314.5 373,314.5 373,284.5 C 373,254.5 373,254.5 385,254.5 C 397,254.5 397,254.5 397,284.5 C 397,314.5 397,314.5 385,314.5 z "
       style="fill:none;fill-rule:evenodd;stroke:#000000;stroke-width:1px;stroke-linecap:butt;stroke-linejoin:miter;stroke-opacity:1" />
    <path
       sodipodi:nodetypes="cssss"
       id="path15046"
       d="M 205,314.5 C 193,314.5 193,314.5 193,284.5 C 193,254.5 193,254.5 205,254.5 C 217,254.5 217,254.5 217,284.5 C 217,314.5 217,314.5 205,314.5 z "
       style="fill:none;fill-rule:evenodd;stroke:#000000;stroke-width:1px;stroke-linecap:butt;stroke-linejoin:miter;stroke-opacity:1" />
    <path
       style="fill:none;fill-rule:evenodd;stroke:#000000;stroke-width:1px;stroke-linecap:butt;stroke-linejoin:miter;stroke-opacity:1"
       d="M 160,314.5 C 148,314.5 148,314.5 148,284.5 C 148,254.5 148,254.5 160,254.5 C 172,254.5 172,254.5 172,284.5 C 172,314.5 172,314.5 160,314.5 z "
       id="path15048"
       sodipodi:nodetypes="cssss" />
    <path
       sodipodi:nodetypes="cssss"
       id="path15050"
       d="M 115,314.5 C 103,314.5 103,314.5 103,284.5 C 103,254.5 103,254.5 115,254.5 C 127,254.5 127,254.5 127,284.5 C 127,314.5 127,314.5 115,314.5 z "
       style="fill:none;fill-rule:evenodd;stroke:#000000;stroke-width:1px;stroke-linecap:butt;stroke-linejoin:miter;stroke-opacity:1" />
    <path
       style="fill:none;fill-rule:evenodd;stroke:#000000;stroke-width:1px;stroke-linecap:butt;stroke-linejoin:miter;stroke-opacity:1"
       d="M 70,314.5 C 58,314.5 58,314.5 58,284.5 C 58,254.5 58,254.5 70,254.5 C 82,254.5 82,254.5 82,284.5 C 82,314.5 82,314.5 70,314.5 z "
       id="path15052"
       sodipodi:nodetypes="cssss" />
    <path
       style="fill:none;fill-rule:evenodd;stroke:#000000;stroke-width:1px;stroke-linecap:butt;stroke-linejoin:miter;stroke-opacity:1"
       d="M 430,314.5 C 418,314.5 418,314.5 418,284.5 C 418,254.5 418,254.5 430,254.5 C 442,254.5 442,254.5 442,284.5 C 442,314.5 442,314.5 430,314.5 z "
       id="path15054"
       sodipodi:nodetypes="cssss" />
    <path
       style="fill:none;fill-rule:evenodd;stroke:#000000;stroke-width:1px;stroke-linecap:butt;stroke-linejoin:miter;stroke-opacity:1"
       d="M 250,134.5 C 238,134.5 238,134.5 238,104.5 C 238,74.5 238,74.5 250,74.5 C 262,74.5 262,74.5 262,104.5 C 262,134.5 262,134.5 250,134.5 z "
       id="path15056"
       sodipodi:nodetypes="cssss" />
    <path
       sodipodi:nodetypes="cssss"
       id="path15058"
       d="M 295,134.5 C 283,134.5 283,134.5 283,104.5 C 283,74.5 283,74.5 295,74.5 C 307,74.5 307,74.5 307,104.5 C 307,134.5 307,134.5 295,134.5 z "
       style="fill:none;fill-rule:evenodd;stroke:#000000;stroke-width:1px;stroke-linecap:butt;stroke-linejoin:miter;stroke-opacity:1" />
    <path
       style="fill:none;fill-rule:evenodd;stroke:#000000;stroke-width:1px;stroke-linecap:butt;stroke-linejoin:miter;stroke-opacity:1"
       d="M 340,134.5 C 328,134.5 328,134.5 328,104.5 C 328,74.5 328,74.5 340,74.5 C 352,74.5 352,74.5 352,104.5 C 352,134.5 352,134.5 340,134.5 z "
       id="path15060"
       sodipodi:nodetypes="cssss" />
    <path
       sodipodi:nodetypes="cssss"
       id="path15062"
       d="M 385,134.5 C 373,134.5 373,134.5 373,104.5 C 373,74.5 373,74.5 385,74.5 C 397,74.5 397,74.5 397,104.5 C 397,134.5 397,134.5 385,134.5 z "
       style="fill:none;fill-rule:evenodd;stroke:#000000;stroke-width:1px;stroke-linecap:butt;stroke-linejoin:miter;stroke-opacity:1" />
    <path
       sodipodi:nodetypes="cssss"
       id="path15064"
       d="M 205,134.5 C 193,134.5 193,134.5 193,104.5 C 193,74.5 193,74.5 205,74.5 C 217,74.5 217,74.5 217,104.5 C 217,134.5 217,134.5 205,134.5 z "
       style="fill:none;fill-rule:evenodd;stroke:#000000;stroke-width:1px;stroke-linecap:butt;stroke-linejoin:miter;stroke-opacity:1" />
    <path
       style="fill:none;fill-rule:evenodd;stroke:#000000;stroke-width:1px;stroke-linecap:butt;stroke-linejoin:miter;stroke-opacity:1"
       d="M 160,134.5 C 148,134.5 148,134.5 148,104.5 C 148,74.5 148,74.5 160,74.5 C 172,74.5 172,74.5 172,104.5 C 172,134.5 172,134.5 160,134.5 z "
       id="path15066"
       sodipodi:nodetypes="cssss" />
    <path
       sodipodi:nodetypes="cssss"
       id="path15068"
       d="M 115,134.5 C 103,134.5 103,134.5 103,104.5 C 103,74.5 103,74.5 115,74.5 C 127,74.5 127,74.5 127,104.5 C 127,134.5 127,134.5 115,134.5 z "
       style="fill:none;fill-rule:evenodd;stroke:#000000;stroke-width:1px;stroke-linecap:butt;stroke-linejoin:miter;stroke-opacity:1" />
    <path
       sodipodi:nodetypes="cssss"
       id="path15070"
       d="M 407.5,179.5 C 395.5,179.5 395.5,179.5 395.5,149.5 C 395.5,119.5 395.5,119.5 407.5,119.5 C 419.5,119.5 419.5,119.5 419.5,149.5 C 419.5,179.5 419.5,179.5 407.5,179.5 z "
       style="fill:none;fill-rule:evenodd;stroke:#000000;stroke-width:1px;stroke-linecap:butt;stroke-linejoin:miter;stroke-opacity:1" />
    <path
       style="fill:none;fill-rule:evenodd;stroke:#000000;stroke-width:1px;stroke-linecap:butt;stroke-linejoin:miter;stroke-opacity:1"
       d="M 92.5,179.5 C 80.5,179.5 80.5,179.5 80.5,149.5 C 80.5,119.5 80.5,119.5 92.5,119.5 C 104.5,119.5 104.5,119.5 104.5,149.5 C 104.5,179.5 104.5,179.5 92.5,179.5 z "
       id="path15072"
       sodipodi:nodetypes="cssss" />
    <path
       sodipodi:nodetypes="cssss"
       id="path15074"
       d="M 70,224.5 C 58,224.5 58,224.5 58,194.5 C 58,164.5 58,164.5 70,164.5 C 82,164.5 82,164.5 82,194.5 C 82,224.5 82,224.5 70,224.5 z "
       style="fill:none;fill-rule:evenodd;stroke:#000000;stroke-width:1px;stroke-linecap:butt;stroke-linejoin:miter;stroke-opacity:1" />
    <path
       sodipodi:nodetypes="cssss"
       id="path15076"
       d="M 430,224.5 C 418,224.5 418,224.5 418,194.5 C 418,164.5 418,164.5 430,164.5 C 442,164.5 442,164.5 442,194.5 C 442,224.5 442,224.5 430,224.5 z "
       style="fill:none;fill-rule:evenodd;stroke:#000000;stroke-width:1px;stroke-linecap:butt;stroke-linejoin:miter;stroke-opacity:1" />
    <path
       sodipodi:nodetypes="cssss"
       id="path15078"
       d="M 452.5,269.5 C 440.5,269.5 440.5,269.5 440.5,239.5 C 440.5,209.5 440.5,209.5 452.5,209.5 C 464.5,209.5 464.5,209.5 464.5,239.5 C 464.5,269.5 464.5,269.5 452.5,269.5 z "
       style="fill:none;fill-rule:evenodd;stroke:#000000;stroke-width:1px;stroke-linecap:butt;stroke-linejoin:miter;stroke-opacity:1" />
    <path
       style="fill:none;fill-rule:evenodd;stroke:#000000;stroke-width:1px;stroke-linecap:butt;stroke-linejoin:miter;stroke-opacity:1"
       d="M 47.5,269.5 C 35.5,269.5 35.5,269.5 35.5,239.5 C 35.5,209.5 35.5,209.5 47.5,209.5 C 59.5,209.5 59.5,209.5 59.5,239.5 C 59.5,269.5 59.5,269.5 47.5,269.5 z "
       id="path15080"
       sodipodi:nodetypes="cssss" />
    <path
       sodipodi:nodetypes="cssss"
       id="path15082"
       d="M 25,314.5 C 13,314.5 13,314.5 13,284.5 C 13,254.5 13,254.5 25,254.5 C 37,254.5 37,254.5 37,284.5 C 37,314.5 37,314.5 25,314.5 z "
       style="fill:none;fill-rule:evenodd;stroke:#000000;stroke-width:1px;stroke-linecap:butt;stroke-linejoin:miter;stroke-opacity:1" />
    <path
       sodipodi:nodetypes="cssss"
       id="path15084"
       d="M 475,314.5 C 463,314.5 463,314.5 463,284.5 C 463,254.5 463,254.5 475,254.5 C 487,254.5 487,254.5 487,284.5 C 487,314.5 487,314.5 475,314.5 z "
       style="fill:none;fill-rule:evenodd;stroke:#000000;stroke-width:1px;stroke-linecap:butt;stroke-linejoin:miter;stroke-opacity:1" />
    <path
       style="fill:#bf9f4f;fill-rule:evenodd;stroke:#000000;stroke-width:1px;stroke-linecap:butt;stroke-linejoin:miter;stroke-opacity:1;fill-opacity:1"
       d="M 30,305 L 470,305 L 470,440 L 30,440 L 30,305 z "
       id="path8199" />
    <path
       style="fill:#e20909;fill-rule:evenodd;stroke:#000000;stroke-width:1px;stroke-linecap:butt;stroke-linejoin:miter;stroke-opacity:1;fill-opacity:1"
       d="M 115,330 C 125,330 140,335 140,355 L 140,415 L 90,415 L 90,355 C 90,335 105,330 115,330 z "
       id="path9176"
       sodipodi:nodetypes="cccccs" />
    <path
       sodipodi:nodetypes="cccccs"
       id="path9178"
       d="M 385,330 C 395,330 410,335 410,355 L 410,415 L 360,415 L 360,355 C 360,335 375,330 385,330 z "
       style="fill:#e20909;fill-rule:evenodd;stroke:#000000;stroke-width:1px;stroke-linecap:butt;stroke-linejoin:miter;stroke-opacity:1;fill-opacity:1" />
    <path
       style="fill:#bf9f4f;fill-rule:evenodd;stroke:#000000;stroke-width:1px;stroke-linecap:butt;stroke-linejoin:miter;stroke-opacity:1;fill-opacity:1"
       d="M 130,95 L 130,75 L 110,75 L 110,65 L 130,65 L 130,45 L 140,45 L 140,65 L 160,65 L 160,75 L 140,75 L 140,95 L 130,95 z "
       id="path9172" />
    <path
       style="fill:#e20909;stroke:#000000;stroke-width:0.2;stroke-linecap:butt;stroke-linejoin:miter;stroke-miterlimit:4;stroke-opacity:1;stroke-dasharray:none"
       d="m 130.3689,45.421214 9.25825,-10e-7 -4.27557,-11.048543 z"
       id="path5230"
       inkscape:connector-curvature="0"
       sodipodi:nodetypes="cccc" />
    <path
       style="fill:#e20909;stroke:#000000;stroke-width:0.2;stroke-linecap:butt;stroke-linejoin:miter;stroke-miterlimit:4;stroke-opacity:1;stroke-dasharray:none"
       d="m 159.41637,65.444098 -1e-5,9.25825 11.31372,-4.098793 z"
       id="path5230-6"
       inkscape:connector-curvature="0"
       sodipodi:nodetypes="cccc" />
    <path
       style="fill:#e20909;stroke:#000000;stroke-width:0.2;stroke-linecap:butt;stroke-linejoin:miter;stroke-miterlimit:4;stroke-opacity:1;stroke-dasharray:none"
       d="m 110.38477,65.444748 0,9.25825 -11.048555,-4.27557 z"
       id="path5230-6-1"
       inkscape:connector-curvature="0"
       sodipodi:nodetypes="cccc" />
    <path
       inkscape:connector-curvature="0"
       style="fill:#bf9f4f;fill-opacity:1;fill-rule:evenodd;stroke:#000000;stroke-width:1px;stroke-linecap:butt;stroke-linejoin:miter;stroke-opacity:1"
       d="m 359.96685,95.11366 0,-20 -20,0 0,-9.999995 20,0 0,-20 10,0 0,20 20,0 0,9.999995 -20,0 0,20 -10,0 z"
       id="path9172-3" />
    <path
       style="fill:#e20909;stroke:#000000;stroke-width:0.2;stroke-linecap:butt;stroke-linejoin:miter;stroke-miterlimit:4;stroke-opacity:1;stroke-dasharray:none"
       d="m 360.33575,45.534879 9.25825,-10e-7 -4.27557,-11.048543 z"
       id="path5230-7"
       inkscape:connector-curvature="0"
       sodipodi:nodetypes="cccc" />
    <path
       style="fill:#e20909;stroke:#000000;stroke-width:0.2;stroke-linecap:butt;stroke-linejoin:miter;stroke-miterlimit:4;stroke-opacity:1;stroke-dasharray:none"
       d="m 389.38322,65.557763 -10e-6,9.258247 11.31372,-4.09879 z"
       id="path5230-6-8"
       inkscape:connector-curvature="0"
       sodipodi:nodetypes="cccc" />
    <path
       style="fill:#e20909;stroke:#000000;stroke-width:0.2;stroke-linecap:butt;stroke-linejoin:miter;stroke-miterlimit:4;stroke-opacity:1;stroke-dasharray:none"
       d="m 340.35162,65.558413 0,9.258247 -11.04855,-4.27557 z"
       id="path5230-6-1-8"
       inkscape:connector-curvature="0"
       sodipodi:nodetypes="cccc" />
  </g>
</svg>
