<?xml version="1.0" encoding="UTF-8"?>
<!DOCTYPE svg PUBLIC "-//W3C//DTD SVG 1.1//EN" "http://www.w3.org/Graphics/SVG/1.1/DTD/svg11.dtd">
<!-- Creator: CorelDRAW -->
<svg xmlns="http://www.w3.org/2000/svg" xml:space="preserve" width="500px" height="544px" shape-rendering="geometricPrecision" text-rendering="geometricPrecision" image-rendering="optimizeQuality" fill-rule="evenodd" clip-rule="evenodd"
viewBox="0 0 500 544"
 xmlns:xlink="http://www.w3.org/1999/xlink"
 xmlns:svg="http://www.w3.org/2000/svg"
 version="1.0">
 <g id="Layer_x0020_1">
  <metadata id="CorelCorpID_0Corel-Layer"/>
  <path id="path1937" fill="#F00000" stroke="black" stroke-width="0.510236" d="M0.284032 0.740977l499.35 0.0408189 -11.6643 316.963c-37.5772,301.629 -439.024,298.897 -472.296,0.440788l-15.3901 -317.445z"/>
  <path id="path1937_0" fill="#8C0000" d="M168.457 0.75515l167.299 0.0138898c-6.72407,14.1661 -15.7371,16.255 -15.9072,41.2957 -0.170079,25.0404 28.9001,50.2447 28.679,76.4504 -0.220819,26.2057 -28.6104,45.0471 -28.8148,77.7756 -0.204662,32.7286 30.2086,50.0474 29.9906,75.871 -0.217701,25.8239 -29.8783,48.5076 -29.4937,77.8695 0.384662,29.3618 29.5957,40.521 29.9843,72.4252 0.38863,31.9045 -30.5144,50.2333 -30.0611,75.676 0.453544,25.4427 5.22596,23.6373 11.1702,30.0396 -54.1783,20.2045 -114.704,19.131 -168.406,-1.86208 -7.09682,-8.93367 -13.9643,-12.0053 -14.0797,-29.81 -0.115654,-17.8047 32.887,-45.9584 33.1767,-73.4361 0.289701,-27.4774 -31.875,-49.7299 -31.5868,-77.0213 0.288,-27.2914 29.2694,-44.3594 29.5631,-72.2075 0.293953,-27.8481 -28.2478,-52.2604 -27.9482,-80.6565 0.299906,-28.3964 28.1021,-46.5891 28.3981,-74.6141 0.295654,-28.0253 -30.9654,-54.8632 -30.3698,-79.441 0.595559,-24.5778 12.2706,-25.5787 18.4062,-38.3684z"/>
  <path id="path1937_1" fill="white" d="M174.174 0.75515l167.299 0.0138898c-6.72407,14.1661 -15.7371,16.255 -15.9072,41.2957 -0.170079,25.0404 28.9001,50.2447 28.679,76.4504 -0.220819,26.2057 -28.6104,45.0471 -28.8148,77.7756 -0.204662,32.7286 30.2086,50.0474 29.9906,75.871 -0.217701,25.8239 -29.8783,48.5076 -29.4937,77.8695 0.384662,29.3618 29.5957,40.521 29.9843,72.4252 0.38863,31.9045 -30.5144,50.2333 -30.0611,75.676 0.453544,25.4427 5.22596,22.1332 11.1702,28.5358 -54.1783,20.2042 -114.704,21.236 -168.406,0.243213 -7.09682,-8.93367 -13.9643,-12.6068 -14.0797,-30.4115 -0.115654,-17.8047 32.887,-45.9584 33.1767,-73.4361 0.289701,-27.4774 -31.875,-49.7299 -31.5868,-77.0213 0.288,-27.2914 29.2694,-44.3594 29.5631,-72.2075 0.293953,-27.8481 -28.2478,-52.2604 -27.9482,-80.6565 0.299906,-28.3964 28.1021,-46.5891 28.3981,-74.6141 0.295654,-28.0253 -30.9654,-54.8632 -30.3698,-79.441 0.595559,-24.5778 12.2706,-25.5787 18.4062,-38.3684z"/>
  <path id="path1937_2" fill="#BF9F4F" d="M170.563 0.75515l167.299 0.0138898c-6.72407,14.1661 -15.7371,16.255 -15.9072,41.2957 -0.170079,25.0404 28.9001,50.2447 28.679,76.4504 -0.220819,26.2057 -28.6104,45.0471 -28.8148,77.7756 -0.204662,32.7286 30.2086,50.0474 29.9906,75.871 -0.217701,25.8239 -29.8783,48.5076 -29.4937,77.8695 0.384662,29.3618 29.5957,40.521 29.9843,72.4252 0.38863,31.9045 -30.5144,50.2333 -30.0611,75.676 0.453544,25.4427 5.22596,23.6373 11.1702,30.0396 -54.1783,20.2045 -114.704,19.7323 -168.406,-1.26057 -7.09682,-8.93367 -13.9643,-12.6068 -14.0797,-30.4115 -0.115654,-17.8047 32.887,-45.9584 33.1767,-73.4361 0.289701,-27.4774 -31.875,-49.7299 -31.5868,-77.0213 0.288,-27.2914 29.2694,-44.3594 29.5631,-72.2075 0.293953,-27.8481 -28.2478,-52.2604 -27.9482,-80.6565 0.299906,-28.3964 28.1021,-46.5891 28.3981,-74.6141 0.295654,-28.0253 -30.9654,-54.8632 -30.3698,-79.441 0.595559,-24.5778 12.2706,-25.5787 18.4062,-38.3684z"/>
  <path fill="white" d="M263.717 32.9216c11.6634,0.721985 23.5009,2.38961 35.9686,5.0023 4.81635,1.60413 8.82993,5.616 7.22155,12.0359 -6.41877,7.62237 -9.02637,20.0594 -13.8413,37.3113l6.01796 6.61975 -1.20359 54.1616 -16.8503 34.3023c-2.85846,31.6692 1.25405,48.369 14.4431,55.967 2.00608,74.2213 -27.883,143.628 -28.2844,285.853 0.044504,9.62873 -28.7972,9.62873 -28.7524,0 0.20041,-122.365 -29.6887,-214.641 -30.0898,-284.048 13.189,-7.59799 19.1069,-26.1031 16.2485,-57.7724l-16.8503 -34.3023 -1.20359 -54.1616 6.01796 -6.61975c-4.81493,-17.2519 -10.4315,-29.689 -16.8503,-37.3113 -1.60838,-6.41991 0.599811,-10.4318 5.41616,-12.0359 13.46,-2.82076 26.1856,-3.93846 38.7505,-4.55528l-5.44564 13.8773c-5.35408,0.684 -10.6342,1.60895 -15.8528,2.71389 -2.01742,0.443906 -2.81991,1.6475 -2.40718,3.61077 5.01506,9.62901 7.28136,19.7187 7.48148,30.9515 0.118772,1.68662 0.92126,3.48718 2.74904,3.35084 17.748,-2.00863 36.1335,-2.39839 52.2757,0.40904 1.44992,-0.224504 2.55628,-0.7543 3.08948,-3.41802 2.20649,-10.0295 5.21518,-20.0594 9.02693,-30.0898 0.776126,-2.39159 0.0711496,-3.75789 -1.08964,-4.44047 -6.70479,-1.71581 -13.2647,-2.88142 -19.6974,-3.58073l-6.28838 -13.8314z"/>
  <path fill="white" d="M263.342 87.6632l-21.2902 0c1.60469,-8.22133 2.40633,-16.5419 2.40605,-25.5643 -3.50844,2.20536 -9.72397,13.9351 -16.8423,16.2408 1.85584,-12.2063 14.7884,-42.0307 24.662,-63.7603 9.87364,21.7296 24.8479,50.9525 27.6061,63.4595 -7.11837,-2.3057 -14.2362,-14.0355 -17.7446,-16.2408 -0.000283465,9.0224 -0.401669,17.6437 1.20302,25.865z"/>
  <path fill="black" d="M262.643 32.9216c11.6634,0.721985 23.5009,2.38961 35.9686,5.0023 4.81635,1.60413 8.82993,5.616 7.22155,12.0359 -6.41877,7.62237 -9.02637,20.0594 -13.8413,37.3113l6.01796 6.61975 -1.20359 54.1616 -16.8503 34.3023c-2.85846,31.6692 1.25405,48.369 14.4431,55.967 2.00608,74.2213 -27.883,143.628 -28.2844,285.853 0.044504,9.62873 -28.7972,9.62873 -28.7524,0 0.20041,-122.365 -29.6887,-214.641 -30.0898,-284.048 13.189,-7.59799 19.1069,-26.1031 16.2485,-57.7724l-16.8503 -34.3023 -1.20359 -54.1616 6.01796 -6.61975c-4.81493,-17.2519 -10.4315,-29.689 -16.8503,-37.3113 -1.60838,-6.41991 0.599811,-10.4318 5.41616,-12.0359 13.46,-2.82076 26.1856,-3.93846 38.7505,-4.55528l-5.44564 13.8773c-5.35408,0.684 -10.6342,1.60895 -15.8528,2.71389 -2.01742,0.443906 -2.81991,1.6475 -2.40718,3.61077 5.01506,9.62901 7.28136,19.7187 7.48148,30.9515 0.118772,1.68662 0.92126,3.48718 2.74904,3.35084 17.748,-2.00863 36.1335,-2.39839 52.2757,0.40904 1.44992,-0.224504 2.55628,-0.7543 3.08948,-3.41802 2.20649,-10.0295 5.21518,-20.0594 9.02693,-30.0898 0.776126,-2.39159 0.0711496,-3.75789 -1.08964,-4.44047 -6.70479,-1.71581 -13.2647,-2.88142 -19.6974,-3.58073l-6.28838 -13.8314z"/>
  <polygon fill="#BF9F4F" stroke="black" stroke-width="0.216" points="209.68,282.855 234.353,291.28 234.955,312.343 240.371,311.741 240.371,297.298 263.24,296.094 263.24,313.546 269.859,312.944 269.859,291.882 293.329,281.651 295.135,264.199 259.027,279.244 245.186,279.244 208.476,265.403 "/>
  <path fill="#8C0000" d="M88.494 267.215c-25.564,23.4587 -43.7097,58.7472 -50.8278,102.257l26.4665 15.9401 0.300756 30.3764c5.71437,3.70942 11.429,4.11052 17.1431,3.00756l0 -8.72193 16.2408 0 1.50378 9.32344c5.51367,-0.601796 11.9296,-0.802489 16.5416,-3.90983l-0.300756 -32.4817 26.4665 -16.8423c-12.7695,-44.8759 -29.537,-78.1345 -53.5346,-98.9487z"/>
  <path fill="black" d="M205.467 145.044c-74.422,6.42529 -101.053,62.3911 -138.421,74.2499 -51.9047,16.4719 -61.3369,-31.9363 -50.5423,-35.735 55.1645,54.563 68.2033,-84.6525 187.158,-88.464l95.0916 0c118.955,3.81147 133.198,142.425 187.158,88.464 10.7946,3.79871 1.36233,52.2068 -50.5423,35.735 -37.368,-11.8587 -63.9995,-67.8246 -138.421,-74.2499l-91.4809 0z"/>
  <path fill="black" d="M262.268 87.6632l-21.2902 0c1.60469,-8.22133 2.40633,-16.5419 2.40605,-25.5643 -3.50844,2.20536 -9.72397,13.9351 -16.8423,16.2408 1.85584,-12.2063 14.7884,-42.0307 24.662,-63.7603 9.87364,21.7296 24.8479,50.9525 27.6061,63.4595 -7.11837,-2.3057 -14.2362,-14.0355 -17.7446,-16.2408 -0.000283465,9.0224 -0.401669,17.6437 1.20302,25.865z"/>
  <path fill="#BF9F4F" d="M204.564 119.166c-99.497,0.401386 -122.866,125.976 -182.043,80.6406 67.2004,33.9012 72.4159,-77.2302 181.742,-84.2514l0.300473 3.61077z"/>
  <path fill="#BF9F4F" d="M297.927 120.37c99.497,0.401386 121.964,125.976 181.14,80.6406 -67.2004,33.9012 -72.4159,-77.2302 -181.742,-84.2514l0.601796 3.61077z"/>
  <path fill="black" stroke="black" stroke-width="0.216" d="M260.756 291.28c46.9401,-19.2575 95.0837,-34.9041 142.626,-52.3562 10.9627,0.0408189 19.332,-1.43547 32.4808,-11.0662 15.556,-3.01096 34.2241,-15.4885 36.7257,-35.2721 -5.21603,-9.42775 -12.8387,-9.42804 -21.6646,0.601796 1.83685,5.47881 -3.77121,18.1947 -27.021,23.8153 -11.6022,0.457796 -18.2016,4.46315 -21.7245,8.07988l-143.227 56.5688 -13.7648 0 -157.67 -58.976c-2.48485,-3.2108 -0.216,-3.32929 -13.8963,-9.92297 -8.36845,-5.75688 -21.0405,-12.4362 -22.8132,-17.1578 -11.1396,-12.9589 -20.3803,-6.77963 -20.461,-2.40718 3.70687,21.1629 20.5563,29.5886 64.9939,46.9401 48.7454,17.051 89.6675,29.2876 146.236,51.1526l19.1809 0z"/>
  <path fill="#BF9F4F" d="M84.8849 266.914c-25.564,23.4587 -41.9052,56.9427 -49.0232,100.453l26.4665 15.9401 0.300756 30.3764c5.71437,3.70942 11.429,4.11052 17.1431,3.00756l0 -26.1658 2.7068 -4.51134 0.300756 22.2559 13.2333 -0.300756 1.50378 9.32344c5.51367,-0.601796 11.9296,-0.802489 16.5416,-3.90983l-0.300756 -32.4817 26.4665 -16.8423c-12.7695,-44.8759 -31.3416,-76.33 -55.3391,-97.1442z"/>
  <path fill="white" d="M87.6722 269.402c-0.920977,-0.845575 -1.85017,-1.67499 -2.78731,-2.48797 -25.564,23.4587 -41.9052,56.9427 -49.0232,100.453l5.30192 3.19295c7.64589,-48.1933 23.6251,-81.0355 46.5086,-101.157zm-25.344 113.905l0.300756 30.3764c1.42838,0.927213 2.85732,1.64778 4.28599,2.18976 0.676914,-9.15109 0.15052,-18.7036 -1.57918,-28.6563 4.41099,1.50378 9.22337,2.60617 14.4363,3.30832l2.7068 -4.51134c-5.81443,0.200126 -10.8267,-1.20359 -15.0378,-4.21058l-6.61663 -0.601512 1.50378 2.10529zm33.6847 24.662l1.50378 9.32344c2.06759,-0.225638 4.26189,-0.39515 6.4406,-0.6823l-1.92926 -2.62602 -0.300756 -20.7522 -0.601512 -3.90983 -3.60907 0.300756 -1.50378 18.3461zm17.7446 -27.068l3.79474 -2.41512 -3.79474 -2.39698c-0.902552,-23.5593 -6.21581,-41.1038 -15.9401,-52.6323 3.11811,21.6578 9.54086,25.2689 10.2257,55.0384 -2.80517,3.41235 -6.31474,5.41588 -9.92495,7.21815l0 2.10529c5.56356,-0.20041 10.8768,-1.90488 15.6393,-6.91739z"/>
  <path fill="#644D36" d="M77.6668 322.253c-9.52385,11.9296 -15.1376,30.3755 -15.0378,58.3467l3.60907 0.300756c-2.58066,-16.5671 1.98057,-36.4677 11.4287,-58.6474z"/>
  <path fill="#644D36" d="M79.4713 389.923c-2.10586,1.20274 -6.6172,0.400536 -13.534,-2.40605 3.00728,4.51134 7.61868,6.21525 13.8348,5.11285l-0.300756 -2.7068z"/>
  <path fill="#644D36" d="M113.457 381.803c-1.97773,1.95846 -7.80662,5.86574 -15.6393,7.5189 6.61607,-0.300189 11.3275,-2.30485 15.9401,-6.01512l-0.300756 -1.50378z"/>
  <path fill="#8C0000" d="M416.094 267.215c-25.564,23.4587 -43.7097,58.7472 -50.8278,102.257l26.4665 15.9401 0.300756 30.3764c5.71437,3.70942 11.429,4.11052 17.1431,3.00756l0 -8.72193 16.2408 0 1.50378 9.32344c5.51367,-0.601796 11.9296,-0.802489 16.5416,-3.90983l-0.300756 -32.4817 26.4665 -16.8423c-12.7695,-44.8759 -29.537,-78.1345 -53.5346,-98.9487z"/>
  <path fill="#BF9F4F" d="M412.485 266.914c-25.564,23.4587 -41.9052,56.9427 -49.0232,100.453l26.4665 15.9401 0.300756 30.3764c5.71437,3.70942 11.429,4.11052 17.1431,3.00756l0 -26.1658 2.7068 -4.51134 0.300756 22.2559 13.2333 -0.300756 1.50378 9.32344c5.51367,-0.601796 11.9296,-0.802489 16.5416,-3.90983l-0.300756 -32.4817 26.4665 -16.8423c-12.7695,-44.8759 -31.3416,-76.33 -55.3391,-97.1442z"/>
  <path fill="white" d="M415.272 269.402c-0.920977,-0.845575 -1.85017,-1.67499 -2.78731,-2.48797 -25.564,23.4587 -41.9052,56.9427 -49.0232,100.453l5.30192 3.19295c7.64589,-48.1933 23.6251,-81.0355 46.5086,-101.157zm-25.344 113.905l0.300756 30.3764c1.42838,0.927213 2.85732,1.64778 4.28599,2.18976 0.676914,-9.15109 0.15052,-18.7036 -1.57918,-28.6563 4.41099,1.50378 9.22337,2.60617 14.4363,3.30832l2.7068 -4.51134c-5.81443,0.200126 -10.8267,-1.20359 -15.0378,-4.21058l-6.61663 -0.601512 1.50378 2.10529zm33.6847 24.662l1.50378 9.32344c2.06759,-0.225638 4.26189,-0.39515 6.4406,-0.6823l-1.92926 -2.62602 -0.300756 -20.7522 -0.601512 -3.90983 -3.60907 0.300756 -1.50378 18.3461zm17.7446 -27.068l3.79474 -2.41512 -3.79474 -2.39698c-0.902552,-23.5593 -6.21581,-41.1038 -15.9401,-52.6323 3.11811,21.6578 9.54086,25.2689 10.2257,55.0384 -2.80517,3.41235 -6.31474,5.41588 -9.92495,7.21815l0 2.10529c5.56356,-0.20041 10.8768,-1.90488 15.6393,-6.91739z"/>
  <path fill="#644D36" d="M405.267 322.253c-9.52385,11.9296 -15.1376,30.3755 -15.0378,58.3467l3.60907 0.300756c-2.58066,-16.5671 1.98057,-36.4677 11.4287,-58.6474z"/>
  <path fill="#644D36" d="M407.071 389.923c-2.10586,1.20274 -6.6172,0.400536 -13.534,-2.40605 3.00728,4.51134 7.61868,6.21525 13.8348,5.11285l-0.300756 -2.7068z"/>
  <path fill="#644D36" d="M441.057 381.803c-1.97773,1.95846 -7.80662,5.86574 -15.6393,7.5189 6.61607,-0.300189 11.3275,-2.30485 15.9401,-6.01512l-0.300756 -1.50378z"/>
  <path fill="#BF9F4F" d="M50.8995 220.297l2.40605 -0.300756 -0.601512 -2.10529c-11.8295,-6.91711 -18.0448,-15.4386 -18.6469,-25.5643l-2.7068 1.80454c0.877607,9.47424 6.64215,18.2965 19.5491,26.1658z"/>
  <path fill="#BF9F4F" d="M80.0728 231.124l0.300756 -5.41361c-8.12041,-16.3409 -20.1507,-19.148 -28.5718,-29.1733l-2.10529 -1.20302c-1.23676,9.4527 22.9612,11.7927 30.3764,35.79z"/>
  <polygon fill="#BF9F4F" points="93.6069,226.011 101.727,235.635 101.126,238.041 93.3061,228.718 "/>
  <polygon fill="#BF9F4F" points="113.758,235.034 121.878,244.658 121.276,247.064 113.457,237.74 "/>
  <path fill="#BF9F4F" d="M131.803 241.35c3.90983,2.60646 6.61663,5.51367 9.62419,9.62419l-2.10529 0.902268c-2.20365,-3.61361 -4.51049,-5.81755 -8.12041,-7.5189l0.601512 -3.00756z"/>
  <path fill="#BF9F4F" d="M149.247 247.966c3.90983,2.60646 5.71437,5.21292 8.72193,9.32344l-1.80454 0.601512c-2.20365,-3.61361 -4.20973,-5.81755 -7.21815,-7.81966l0.300756 -2.10529z"/>
  <path fill="#BF9F4F" d="M165.788 253.981c3.90983,2.60646 5.71437,5.21292 8.72193,9.32344l-1.80454 0.601512c-2.20365,-3.61361 -4.20973,-5.81755 -7.21815,-7.81966l0.300756 -2.10529z"/>
  <path fill="#BF9F4F" d="M184.736 261.199c3.90983,2.60646 5.71437,5.21292 8.72193,9.32344l-1.80454 0.601512c-2.20365,-3.61361 -4.20973,-5.81755 -7.21815,-7.81966l0.300756 -2.10529z"/>
  <path fill="#BF9F4F" d="M202.18 267.515c3.60907,2.90721 6.31588,5.81443 9.32344,8.42117l-1.80454 0.601512c-1.00063,-2.10983 -5.112,-4.31377 -7.81966,-6.91739l0.300756 -2.10529z"/>
  <path fill="#BF9F4F" d="M235.564 279.546c6.91796,4.36082 11.4287,9.97456 10.5265,10.8272l-1.80454 0.300756c0.809292,-2.41058 -5.40964,-6.41934 -9.02268,-9.02268l0.300756 -2.10529z"/>
  <path fill="#BF9F4F" d="M217.218 272.929c6.91796,4.36082 11.4287,9.97456 10.5265,10.8272l-1.80454 0.300756c0.809292,-2.41058 -5.40964,-6.41934 -9.02268,-9.02268l0.300756 -2.10529z"/>
  <path fill="#BF9F4F" d="M260.886 291.876c-5.56385,-3.45799 -9.47311,-6.86637 -9.62419,-8.42117l1.80454 -0.300756c0.795119,2.81169 6.11178,4.4144 8.12041,6.61663l-0.300756 2.10529z"/>
  <path fill="#BF9F4F" d="M269.909 287.666c-7.83468,-2.37714 -8.54108,-4.09266 -8.72193,-5.71437l1.80454 -0.300756c0.096378,3.01465 3.9121,2.91458 6.01512,4.51134l0.902268 1.50378z"/>
  <path fill="#BF9F4F" d="M304.195 271.726c-6.09137,1.98057 -11.5265,0.0226772 -12.0302,-2.40605l1.80454 -0.300756c0.951591,3.4424 9.78719,0.889512 9.32344,1.20302l0.902268 1.50378z"/>
  <path fill="#BF9F4F" d="M286.451 278.643c-6.09137,1.98057 -11.5265,0.0226772 -12.0302,-2.40605l1.80454 -0.300756c0.951591,3.4424 9.78719,0.889512 9.32344,1.20302l0.902268 1.50378z"/>
  <path fill="#BF9F4F" d="M319.534 266.613c-5.69027,1.17893 -10.8244,1.02558 -11.7295,-0.601512l1.20302 -0.902268c6.95367,1.93351 12.4909,-1.21861 9.62419,0l0.902268 1.50378z"/>
  <path fill="#BF9F4F" d="M337.579 259.094c-5.69027,1.17893 -14.1327,1.02558 -15.0378,-0.601512l1.20302 -0.902268c6.95367,1.93351 15.7992,-1.21861 12.9325,0l0.902268 1.50378z"/>
  <path fill="#BF9F4F" d="M358.031 252.176c-5.99103,0.577418 -12.6289,-0.778961 -17.1431,-1.20302l1.20302 -0.902268c7.25443,0.128976 12.7916,1.18743 15.0378,0.601512l0.902268 1.50378z"/>
  <path fill="#BF9F4F" d="M378.482 245.861c-10.5024,1.78044 -10.5236,-1.38047 -21.9552,0.300756l1.20302 -2.40605c8.1567,-0.17178 13.9947,2.0897 19.5491,0.601512l1.20302 1.50378z"/>
  <path fill="#BF9F4F" d="M398.633 238.642c-10.5024,1.78044 -10.5236,-1.38047 -21.9552,0.300756l1.20302 -2.40605c8.1567,-0.17178 13.9947,2.0897 19.5491,0.601512l1.20302 1.50378z"/>
  <path fill="#BF9F4F" d="M424.197 227.514c-12.4274,6.27194 -12.0674,1.01906 -22.8575,2.40605l1.20302 -2.40605c8.1567,-0.17178 12.7916,1.78895 20.4514,-1.50378l1.20302 1.50378z"/>
  <path fill="#BF9F4F" d="M448.499 221.199c5.6863,-4.13547 11.0052,-7.88202 14.1514,-12.1422 3.6703,-4.96999 5.14432,-9.16158 9.00681,-13.1213 -3.70914,13.2333 -11.4284,21.6544 -23.1582,25.2635z"/>
  <path fill="#BF9F4F" d="M436.168 216.988c13.8373,-8.47134 21.657,-16.6924 16.2408,-24.3612 -0.593859,9.1613 -4.99692,15.1146 -14.7138,19.9656l-1.52702 4.39569z"/>
  <path fill="#BF9F4F" d="M209.078 89.9796c4.1811,22.468 1.6526,50.046 3.83755,71.3092 0.921544,-23.0287 3.0892,-50.6024 -1.43036,-74.0177l-2.40718 2.70851z"/>
  <path fill="#BF9F4F" d="M294.447 90.5811c-3.78936,13.7069 -0.518173,50.3762 -3.83755,71.9853 0.414709,-22.6293 -3.03931,-53.0969 1.12961,-75.2953l2.70794 3.31002z"/>
  <path fill="#BF9F4F" d="M206.069 145.044c-2.64699,-17.2519 -1.34958,-33.2997 -2.40718,-49.949l3.61077 0c-0.401386,16.6496 0.401103,33.901 -1.20359,49.949z"/>
  <path fill="#BF9F4F" d="M298.476 145.044c-2.00665,-16.3494 -1.00347,-33.2994 -1.80567,-49.949l3.00926 0c-0.401386,16.6496 0.401103,33.901 -1.20359,49.949z"/>
  <polyline fill="none" stroke="black" stroke-width="1.41732" points="237.362,308.732 237.362,294.289 266.85,293.687 266.85,309.334 "/>
  <line fill="none" stroke="white" stroke-width="0.992126" x1="264.443" y1="308.13" x2="264.443" y2= "297.9" />
  <line fill="none" stroke="white" stroke-width="0.992126" x1="239.18" y1="307.829" x2="239.18" y2= "297.599" />
  <line fill="none" stroke="white" stroke-width="0.992126" x1="235.571" y1="310.837" x2="235.571" y2= "294.283" />
  <path fill="#BF9F4F" d="M241.278 86.1594l21.3537 0 0.281197 104.663 13.3546 20.3505 6.33629 58.447 -19.5231 -14.4284c-1.25263,8.61903 -1.60271,18.1406 -3.75732,25.8577l-12.9325 0c-2.48485,-6.01597 -2.56337,-16.2422 -3.84492,-24.3632l-22.705 15.872 7.24394 -63.9885 14.9556 -18.3501 -0.76252 -104.06z"/>
  <line fill="none" stroke="#644D36" stroke-width="1.41732" x1="255.113" y1="87.9639" x2="252.707" y2= "280.749" />
  <polygon fill="#644D36" points="258.722,89.1669 256.015,279.846 258.12,269.32 261.128,89.1669 "/>
  <line fill="none" stroke="#644D36" stroke-width="1.41732" x1="229.849" y1="231.124" x2="240.376" y2= "220.297" />
  <line fill="none" stroke="#644D36" stroke-width="1.41732" x1="231.052" y1="215.785" x2="241.579" y2= "204.958" />
  <line fill="none" stroke="#644D36" stroke-width="1.41732" x1="227.744" y1="244.959" x2="240.075" y2= "234.432" />
  <line fill="none" stroke="#644D36" stroke-width="1.41732" x1="225.037" y1="260.297" x2="241.278" y2= "244.959" />
  <line fill="none" stroke="#644D36" stroke-width="1.41732" x1="276.467" y1="253.981" x2="263.835" y2= "245.861" />
  <line fill="none" stroke="#644D36" stroke-width="0.992126" x1="274.963" y1="231.124" x2="263.835" y2= "221.5" />
  <line fill="none" stroke="#644D36" stroke-width="1.41732" x1="276.467" y1="253.981" x2="263.835" y2= "245.861" />
  <line fill="none" stroke="#644D36" stroke-width="1.41732" x1="275.865" y1="242.553" x2="262.933" y2= "233.831" />
  <line fill="none" stroke="#644D36" stroke-width="0.992126" x1="274.662" y1="220.597" x2="263.534" y2= "210.672" />
  <polygon fill="white" points="277.369,252.778 277.369,249.47 262.03,238.643 262.03,243.756 "/>
  <polygon fill="white" points="277.068,241.049 277.068,237.74 263.835,228.417 262.453,223.809 261.729,232.327 "/>
  <polygon fill="white" points="274.963,228.417 274.963,225.109 264.436,215.184 263.054,210.576 262.331,219.094 "/>
  <polygon fill="white" points="274.06,213.379 262.331,202.552 262.331,209.77 263.835,207.665 273.76,216.387 "/>
  <path fill="white" d="M279.963 267.668l-7.98322 -5.90003c7.15295,0.437386 5.95559,-0.851528 7.98322,5.90003zm-35.0754 -181.509l-3.60907 0 0.76252 104.06c-0.609166,22.1548 -0.490677,44.3106 0.505418,66.4665 1.28154,8.12098 1.36006,18.3473 3.84492,24.3632l3.00756 0c-5.42835,-34.8792 -3.35962,-120.012 -4.51134,-194.89z"/>
  <path fill="white" stroke="white" stroke-width="0.216" d="M222.732 270.537l-2.89077 2.02082 7.24394 -63.9885 14.9556 -18.3501 0.440504 6.61805 -10.8272 11.4287 0 2.40605c4.61169,-3.30832 7.41884,-7.81966 11.128,-11.7295l-0.601512 4.8121 -11.7295 10.8272 -0.601512 9.02268c4.41128,-1.40372 9.42378,-7.31849 13.2333,-11.4287l0 5.41361 -14.1355 12.6318 0 7.5189c5.6143,-1.20302 8.52152,-6.91739 13.2333,-9.92495l0 4.21058 -15.0378 12.0302 -1.20302 9.62419c5.6143,-5.2132 12.1306,-9.22337 16.8423,-15.6393l0.300756 5.41361 -18.6469 16.5416 -1.70391 10.5409z"/>
  <path id="path1937_3" fill="none" stroke="black" stroke-width="0.510236" d="M0.284032 0.740977l499.35 0.0408189 -11.6643 316.963c-37.5772,301.629 -439.024,298.897 -472.296,0.440788l-15.3901 -317.445z"/>
 </g>
</svg>
