<?xml version="1.0" encoding="UTF-8" standalone="no"?>
<!-- Created with Inkscape (http://www.inkscape.org/) -->
<svg
   xmlns:dc="http://purl.org/dc/elements/1.1/"
   xmlns:cc="http://web.resource.org/cc/"
   xmlns:rdf="http://www.w3.org/1999/02/22-rdf-syntax-ns#"
   xmlns:svg="http://www.w3.org/2000/svg"
   xmlns="http://www.w3.org/2000/svg"
   xmlns:sodipodi="http://sodipodi.sourceforge.net/DTD/sodipodi-0.dtd"
   xmlns:inkscape="http://www.inkscape.org/namespaces/inkscape"
   width="603"
   height="654.81158"
   id="svg1901"
   sodipodi:version="0.32"
   inkscape:version="0.45.1"
   sodipodi:docname="Lemun vaakuna.svg"
   sodipodi:docbase="C:\Dokumente und Einstellungen\AR\Desktop\Neuer Ordner\Neuer Ordner"
   inkscape:output_extension="org.inkscape.output.svg.inkscape"
   version="1.0"
   inkscape:export-filename="D:\Eigene Datein\AR\tx\Kuwat\SVG muokkaus\Valmiit\Lemun vaakuna.png"
   inkscape:export-xdpi="436.89001"
   inkscape:export-ydpi="436.89001">
  <defs
     id="defs1903" />
  <sodipodi:namedview
     id="base"
     pagecolor="#ffffff"
     bordercolor="#666666"
     borderopacity="1.0"
     inkscape:pageopacity="0.0"
     inkscape:pageshadow="2"
     inkscape:zoom="0.70710679"
     inkscape:cx="180.52863"
     inkscape:cy="143.94268"
     inkscape:document-units="px"
     inkscape:current-layer="layer1"
     gridtolerance="10000"
     inkscape:window-width="1680"
     inkscape:window-height="950"
     inkscape:window-x="0"
     inkscape:window-y="60" />
  <metadata
     id="metadata1906">
    <rdf:RDF>
      <cc:Work
         rdf:about="">
        <dc:format>image/svg+xml</dc:format>
        <dc:type
           rdf:resource="http://purl.org/dc/dcmitype/StillImage" />
      </cc:Work>
    </rdf:RDF>
  </metadata>
  <g
     inkscape:label="Taso 1"
     inkscape:groupmode="layer"
     id="layer1"
     style="opacity:1"
     transform="translate(-47.07144,-39.667143)">
    <path
       style="fill:#ee1d26;fill-opacity:1"
       d="M 281.2462,685.94147 C 227.00237,671.37867 191.47097,651.76407 151.35303,614.23569 C 107.7138,573.41335 75.372923,518.04607 65.371495,467.03607 C 59.605058,437.62566 47.164759,173.56792 47.098956,79.184133 L 47.07144,39.667143 L 348.57144,39.667143 L 650.07144,39.667143 L 649.88246,90.892871 C 649.77855,119.06702 646.06202,214.56641 641.62347,303.11374 C 634.61087,443.0132 631.83625,468.7116 620.44868,499.2351 C 584.80553,594.77355 517.8905,656.78975 421.86872,683.27709 C 371.07277,697.28899 326.64905,698.13073 281.2462,685.94147 z "
       id="path2167" />
    <path
       style="fill:#b2b0b1;fill-opacity:1;stroke:#666666;stroke-width:2.33321142;stroke-miterlimit:4;stroke-opacity:1"
       d="M 345.8272,49.363441 C 322.55619,49.382876 303.54335,65.601151 303.56598,85.587349 C 303.56619,85.772865 303.56252,85.951342 303.56598,86.136196 L 303.38303,86.136196 L 303.38303,102.23571 L 283.07569,102.23571 L 283.07569,102.41866 C 264.2291,102.55703 249.02881,120.29972 249.04717,142.30155 C 249.06552,164.30338 264.22891,182.27175 283.07569,182.36739 C 283.13771,182.3677 283.19653,182.36746 283.25864,182.36739 L 312.34753,182.36739 L 312.34753,248.96083 L 241.91216,248.96083 C 246.98174,242.3889 249.97085,234.28494 249.96191,225.54336 C 249.92566,203.70381 231.23121,186.00513 208.24953,186.02637 C 185.25901,186.04761 166.5148,203.87833 166.53716,225.72631 C 166.5453,233.68609 169.03943,241.1096 173.30627,247.31429 C 167.27924,243.31513 159.98798,241.08636 152.26713,241.09402 C 131.06681,241.11506 114.01017,258.61634 114.03078,280.24512 C 114.0514,301.87389 131.24977,319.41724 152.45008,319.39621 C 161.34096,319.38739 169.36107,316.16741 175.86756,310.98055 C 170.34255,317.70425 167.07661,326.12698 167.086,335.31277 C 167.10836,357.16075 185.80785,374.85101 208.79838,374.82976 C 231.78891,374.80852 250.53312,357.16075 250.51076,335.31277 C 250.49545,326.08878 247.13543,317.70419 241.54626,310.98055 L 312.34753,310.98055 L 312.34753,347.93626 C 236.39803,363.72627 179.2652,430.54756 179.34359,510.57794 C 179.43339,602.26473 254.54512,676.60188 346.9249,676.51271 C 439.3048,676.42355 514.23018,601.8989 514.14031,510.21205 C 514.05909,430.04845 456.5824,363.0593 380.40457,347.57036 L 380.40457,310.98055 L 452.12059,310.98055 C 447.3448,317.40925 444.45078,325.20461 444.43673,333.66623 C 444.41437,355.5142 463.15858,373.34493 486.14911,373.36617 C 509.13965,373.38741 527.83913,355.69716 527.86149,333.84918 C 527.87077,324.78859 524.65229,316.3785 519.26288,309.69991 C 525.73605,314.78936 533.69928,317.92389 542.49741,317.93262 C 563.69771,317.95366 580.89609,300.4103 580.91671,278.78152 C 580.9373,257.15276 563.69773,239.46852 542.49741,239.44748 C 534.55035,239.4396 527.22508,241.99961 521.09237,246.2166 C 525.59113,239.90346 528.219,232.27275 528.22739,224.07976 C 528.24973,202.23179 509.68849,184.58402 486.69796,184.56277 C 463.71629,184.54153 445.02183,202.24022 444.98558,224.07976 C 444.97589,233.54508 448.48368,242.14245 454.31598,248.96083 L 380.40457,248.96083 L 380.40457,182.36739 L 407.11513,182.36739 C 407.35007,182.37266 407.61086,182.36765 407.84693,182.36739 C 426.77916,182.34592 442.07679,164.37579 442.05839,142.30155 C 442.02854,120.23583 426.58893,102.3972 407.66398,102.41866 C 407.47766,102.41887 407.30074,102.41499 407.11513,102.41866 L 407.11513,102.23571 L 388.27138,102.23571 L 388.27138,86.136196 L 387.90548,86.136196 C 387.91052,85.899882 387.90575,85.641793 387.90548,85.4044 C 387.86878,65.425919 369.08926,49.344014 345.8272,49.363441 z M 380.40457,410.13893 C 411.72769,420.47262 436.71244,445.1213 447.54686,476.54942 L 380.40457,476.54942 L 380.40457,410.13893 z M 311.98163,411.23662 L 311.98163,476.54942 L 248.13242,476.54942 C 258.6335,446.27176 282.13601,422.10935 311.98163,411.23662 z M 247.58358,545.70416 L 311.98163,545.70416 L 311.98163,612.2976 C 281.70288,601.25028 257.84368,576.64333 247.58358,545.70416 z M 380.40457,545.70416 L 447.91276,545.70416 C 437.28974,577.67432 412.09511,602.90672 380.40457,613.3953 L 380.40457,545.70416 z "
       id="rect13844" />
    <g
       id="g13829" />
    <g
       id="g13834"
       transform="matrix(-1,0,0,1,696.76533,-0.265165)" />
    <g
       id="g2180" />
    <g
       id="g2196" />
  </g>
</svg>
