<?xml version="1.0" encoding="UTF-8"?>
<!DOCTYPE svg PUBLIC "-//W3C//DTD SVG 1.1//EN" "http://www.w3.org/Graphics/SVG/1.1/DTD/svg11.dtd">
<!-- Creator: CorelDRAW -->
<svg xmlns="http://www.w3.org/2000/svg" xml:space="preserve" width="500px" height="586px" shape-rendering="geometricPrecision" text-rendering="geometricPrecision" image-rendering="optimizeQuality" fill-rule="evenodd" clip-rule="evenodd"
viewBox="0 0 500 586"
 xmlns:xlink="http://www.w3.org/1999/xlink"
 xmlns:svg="http://www.w3.org/2000/svg"
 version="1.0">
 <g id="Layer_x0020_1">
  <metadata id="CorelCorpID_0Corel-Layer"/>
  <path id="path1937" fill="black" stroke="black" stroke-width="0.368504" d="M0.488693 0.591874l499.554 -0.12189 0.0096378 384.972c0.141165,34.4084 -20.3848,80.9728 -53.8742,97.0042l-195.758 103.538 -196.888 -103.719c-22.2078,-20.378 -50.5738,-56.1867 -52.9861,-95.4701l-0.0575433 -386.203z"/>
  <path fill="#BF9F4F" d="M253.776 109.173c26.5351,-24.4375 4.30016,-48.875 15.4176,-57.2655 -2.51717,-8.49544 -0.419528,-14.0542 6.29292,-16.6762 0.104882,-7.65638 3.56599,-11.9565 10.3833,-12.9005 2.09764,-7.34174 7.5515,-10.4882 16.3616,-9.43937 4.61481,-5.34898 10.4882,-6.50268 17.6202,-3.4611 5.2441,-3.35622 10.4882,-3.35622 15.7323,0 7.70911,-0.682583 13.5828,2.04378 15.4176,12.2712 7.25018,3.66123 13.028,6.90633 11.0126,17.3055 6.50268,4.30016 7.13197,10.698 1.88787,19.1934 3.35622,8.28567 1.25858,13.6347 -6.29292,16.0469 -0.419528,10.2784 -4.61481,14.6835 -12.5858,13.2151 -0.193606,8.20148 -6.28328,9.03204 -13.2151,8.81008 -6.40262,6.55881 -11.3301,6.03298 -16.0469,2.51717 -9.07314,13.3469 -49.5573,-18.6951 -48.1408,26.1156 20.0339,-4.03966 30.418,-2.67704 38.0721,13.2151 4.72933,4.7126 8.93084,10.6861 6.92221,20.452 3.05348,6.40432 1.37055,9.96747 -0.629292,13.8444 4.24857,6.81818 3.30463,11.3278 0,14.7884 3.26353,6.82781 2.10501,9.96974 0.314646,12.5858 1.89525,5.14063 3.15865,10.1761 0,14.4737 2.83181,8.39056 1.46835,12.5858 -4.0904,12.5858 -6.50268,16.6762 -11.9565,16.2567 -17.6202,-0.629292 -3.98551,-1.04882 -5.03433,-5.87339 -3.14646,-14.4737 -1.57323,-3.77575 -1.46835,-7.97103 0.314646,-12.5858 -1.46891,-3.61786 -1.88844,-8.02262 0,-14.1591 -1.67811,-4.30016 -1.67811,-8.60032 0,-12.9005 -1.47487,-5.56243 -2.42306,-11.7527 0.314646,-14.7884 -2.51858,-8.12835 -2.9384,-13.8971 5.34898,-19.8227 -3.56599,-8.7052 -20.7666,-5.87339 -27.0595,5.66362l0 21.3959c0.314646,6.3978 2.3074,9.01985 5.97827,7.86615l7.5515 -2.51717c3.9858,1.99219 4.51021,7.44633 3.4611,14.4737 -5.76851,3.25134 -9.8589,7.34174 -12.2712,12.2712l0.943937 43.7358c0.419528,4.61481 2.51717,7.13197 6.29292,7.5515 28.5537,-2.20195 49.2682,-18.0391 58.5241,-53.8044 -12.5076,-28.082 -13.0844,-47.6425 3.77575,-54.7484 0.734174,16.0469 15.6274,27.3742 9.75402,50.0287 37.0233,-36.8136 1.99276,-59.7827 17.6202,-74.5711 -2.20252,-5.97827 -0.209764,-11.1175 5.97827,-15.4176 0.103748,-6.13588 2.8304,-10.9604 11.3272,-12.9005 2.25411,-7.867 6.34451,-12.587 14.4737,-10.3833 4.48299,-5.27386 9.14967,-8.89399 14.4737,-6.60756 6.50268,-4.19528 12.5858,-3.77575 18.2495,1.25858 7.86558,-1.10098 13.0051,1.20614 14.1591,8.49544 6.39808,-0.210331 11.2232,2.20167 12.5858,10.3833 7.5515,3.88063 9.64914,9.8589 6.29292,17.9348 6.66142,4.92945 5.82208,11.0123 1.57323,17.6202 5.03433,6.92221 3.35622,12.5858 -5.03433,16.9909 0.209764,8.81008 -3.35622,12.5858 -10.698,11.3272 -1.54715,9.36171 -6.319,11.1969 -12.9005,8.81008 -2.62205,6.71244 -7.34174,8.81008 -14.1591,6.29292 -10.275,10.9534 -10.4703,-2.60958 -40.4082,2.20507 -8.0657,1.29713 -13.983,11.0004 -20.6331,28.0009 19.3142,4.37613 54.0048,6.56249 55.3323,6.29518 13.8662,-2.79213 23.3402,-6.10413 31.8246,0.94167 6.92221,-2.09764 11.3272,0 13.2151,6.29292 7.44662,-0.104882 11.537,3.14646 12.2712,9.75402 8.18079,3.04158 10.9077,8.18079 8.18079,15.4176 6.60756,4.50992 7.76126,9.8589 3.4611,16.0469 5.2441,5.87339 4.19528,10.9077 -3.14646,15.103 1.78384,8.49685 -2.20195,12.3769 -8.81008,14.1591 -1.20558,9.70356 -6.44967,11.9055 -13.5298,10.698 -3.67087,8.81008 -9.8589,10.9077 -18.5641,6.29292 -6.0857,2.52992 -11.9608,4.00621 -16.3616,-1.88787 -8.1292,1.41732 -14.4221,-0.575433 -16.6762,-10.0687 -6.71244,1.99276 -10.4882,-1.88787 -11.3272,-11.6419 -4.04703,-1.45077 -7.09484,-4.37584 -4.40504,-17.6202 -9.00681,-9.46007 6.94347,-28.8921 -0.447874,-39.2755 -9.4887,-13.3294 -42.7445,-9.468 -44.8611,0.25937 9.54426,1.99276 15.3128,8.60032 17.3055,19.8227 4.62444,4.71629 8.407,9.74807 6.29292,16.9909 3.35622,7.44662 3.35622,13.2151 0,17.3055 3.77575,3.88063 3.77575,8.60032 0,14.1591 2.93669,7.34174 2.93669,12.1663 0,14.4737 3.46195,7.55263 2.30797,11.6427 -0.943937,14.1591 4.45833,9.65084 2.57046,13.5306 -2.20252,14.7884 -4.82457,15.8372 -10.4882,15.7323 -16.9909,-0.314646 -3.88063,-1.46835 -4.82457,-6.71244 -2.83181,-15.7323 -1.88844,-4.19471 -1.46863,-9.54369 0,-15.4176 -1.57947,-3.98296 -0.947623,-8.70378 0,-13.5298 -1.04882,-4.61481 -1.25858,-9.22961 -0.629292,-13.8444 -0.419528,-4.30016 -0.419528,-9.01985 0,-14.1591 -0.943937,-3.98551 -1.04882,-7.97103 -0.314646,-11.9565 1.1537,-3.35622 3.14646,-5.87339 5.97827,-7.5515 -0.104882,-7.5515 -7.97103,-10.698 -15.103,-6.60756l-16.9909 18.2495c-12.1663,7.44662 -15.9421,13.2151 -11.3272,17.3055 8.36391,-7.52485 17.7511,-10.6192 28.6328,-7.23685 -2.01062,3.59178 -5.62082,6.90237 -7.69125,9.84275 -11.1804,15.878 -18.6338,21.6062 -36.256,1.45928 -0.756,-2.25496 -3.51751,-2.87377 -5.13751,-3.75052 -11.6419,5.03433 -16.1518,9.64914 -16.0469,13.8444l0.314646 25.4863c0.917292,15.2572 55.423,39.7233 64.3984,40.2506 15.2232,0.894048 39.3109,-9.20495 56.6674,-9.4269 21.0385,-0.269008 19.0681,8.00306 77.7904,6.30454 3.98551,2.72693 4.19528,5.45386 0.629292,8.18079 -9.8589,4.0904 -26.0107,3.77575 -38.0721,3.77575 3.66492,7.1555 11.8777,12.4909 19.8227,17.9348 2.32129,7.15011 -0.515906,7.66715 -4.0904,7.23685 -18.4207,-7.46788 -30.2587,-23.4346 -52.6176,-25.4704 -24.5585,-2.23597 -39.8549,14.1406 -79.219,5.64775 2.07099,9.49153 6.63336,17.987 12.9005,25.801 -0.830552,2.4171 -2.39811,4.41298 -9.12473,3.4611 -11.0126,-11.537 -18.2495,-21.8154 -21.7106,-30.8353 -8.60032,-9.96378 -28.1084,-17.3055 -36.8136,-12.5858l-4.71969 20.452 -20.893 0.629292 -4.0904 -19.508c-8.07591,-9.12473 -26.0107,1.04882 -34.611,11.0126 -3.4611,9.01985 -16.3616,19.2983 -27.3742,30.8353 -6.72662,0.951874 -8.92347,-2.93188 -8.18079,-6.60756 6.26712,-7.81399 16.4931,-13.7923 18.5641,-23.2838 -41.3408,10.4698 -70.5467,-5.24381 -76.0726,-5.01846 -14.2866,0.58252 -21.077,8.2681 -30.9813,14.3388 -7.22778,4.43027 -10.1682,3.49257 -23.8388,11.1317 -3.57449,0.430299 -7.67027,-0.0867402 -5.34898,-7.23685 11.7207,-2.92677 16.4724,-9.20608 20.1373,-16.3616 -12.0614,0 -33.8769,-0.314646 -43.7358,-4.40504 -3.56599,-2.72693 -3.98551,-6.08315 0,-8.81008 58.7223,1.69852 65.2479,-3.74117 86.2858,-3.47273 17.356,0.221386 29.2751,7.77912 44.0816,6.28044 22.3367,-2.2612 35.8614,-10.9052 51.245,-20.2876 9.12785,-5.56725 19.1415,-8.58104 18.817,-17.1312l0 -30.206c0.104882,-4.19528 -0.314646,-4.40504 -11.9565,-9.43937 -2.45906,0.0379843 -6.7938,-0.28715 -6.71074,2.80658 -5.96778,16.2627 -25.6978,18.1919 -35.6267,0.743244 -1.77817,-3.12491 -9.45638,-8.13884 -11.467,-11.7306 10.8816,-3.3823 19.3249,-0.917292 27.6888,6.60756 12.481,-5.03433 5.80366,-9.48926 -6.29292,-17.6202 -6.9035,-4.64003 -12.3761,-11.1175 -18.5641,-16.6762 -8.07591,-5.03433 -17.3055,1.15398 -16.6762,9.43937 8.11418,5.62394 8.46426,12.6513 5.34898,17.9348 2.51717,4.30016 3.14646,8.39056 0.629292,13.5298 1.57663,5.87849 1.99928,10.7065 -0.629292,13.2151 2.20649,4.40674 4.0972,11.6447 1.25858,16.0469 1.46863,5.87396 1.25915,9.96435 -0.629292,14.1591 3.57251,11.1257 0.738142,13.6398 -4.0904,13.8444 -4.82457,14.3688 -10.4882,14.4737 -16.9909,0.314646 -6.02759,-3.77348 -6.3394,-10.9032 -3.4611,-16.0469 -3.25191,-2.51632 -2.51802,-7.23572 0.943937,-14.7884 -2.93669,-2.3074 -3.88063,-6.50268 -0.943937,-13.8444 -3.77575,-5.55874 -3.77575,-10.9077 0,-14.7884 -3.35622,-4.0904 -3.67087,-6.3978 -0.314646,-13.8444 -2.84825,-10.9145 2.61241,-16.6808 8.18079,-16.6762 1.99276,-11.2224 9.33449,-18.4592 18.8787,-20.452 -2.11663,-9.72737 -32.982,-15.2504 -42.344,-1.8326 -8.87386,12.7176 5.68602,28.641 -2.6504,36.7583 3.74287,12.7179 1.84734,14.2804 -2.83181,16.0469 0.741544,7.40098 -0.205512,11.9256 -7.86615,11.6419 -2.25411,9.49323 -4.77128,10.8567 -12.9005,9.43937 -2.98403,8.72674 -9.17405,8.82341 -16.3616,4.0904 -4.50992,5.45386 -7.86615,9.64914 -15.7323,0 -7.07953,3.3137 -18.3022,-0.0453544 -19.508,-11.0126 -5.76879,0.315496 -11.6422,-1.99134 -10.698,-12.5858 -6.39695,-2.77852 -9.22876,-10.9593 -4.71969,-17.9348 -3.80126,-5.68885 -4.06347,-11.5101 2.20252,-16.3616 -2.04406,-7.23685 -0.575433,-11.4318 6.60756,-14.4737 -0.943937,-5.76851 0.943937,-11.2224 10.0687,-11.9565 1.88787,-6.29292 11.3272,-9.33449 18.2495,-7.23685 8.48438,-7.0458 25.344,-4.70296 39.0614,-1.25632 11.0809,2.78391 29.096,-5.69481 46.8369,-7.23912 -6.65008,-17.0005 -16.3721,-25.5957 -21.5771,-26.4277 -23.0995,-3.69184 -18.1766,5.91648 -29.7102,-0.631843 -4.92888,4.87786 -13.5289,4.77298 -17.6202,-3.77575 -8.34633,1.21011 -14.6727,0.6463 -15.4176,-8.18079 -7.34174,1.25858 -12.1663,-3.4611 -11.9565,-12.2712 -6.55484,-1.4675 -9.91049,-5.0332 -7.23685,-15.7323 -3.88177,-5.5063 -6.50381,-10.3303 -0.314646,-16.6762 -3.35622,-8.07591 -1.57323,-13.7395 5.97827,-17.6202 -1.26935,-8.70775 4.92322,-16.5728 12.9005,-16.0469 0.315213,-9.38665 11.7479,-12.0084 20.452,-8.81008 6.50296,-4.61481 10.3836,-3.14646 15.4176,0.629292 5.32403,-2.28643 10.9347,-0.868819 15.4176,4.40504 8.1292,-2.20365 10.961,2.20167 13.2151,10.0687 8.49685,1.94003 9.96492,7.07925 10.0687,13.2151 8.28567,3.4611 9.33449,9.22961 5.03433,16.0469 5.12759,4.85235 5.13525,12.2173 0.576,16.9812 8.71881,12.3928 -20.2397,28.4556 17.6735,60.107 -5.87339,-22.6545 6.18803,-30.8353 4.0904,-52.8605 16.8602,7.10589 21.3177,34.8472 8.81008,53.4898 2.33376,32.6189 31.229,52.2318 58.2095,53.8044 2.52085,-0.624189 4.72649,-1.66961 4.71969,-5.66362l1.25858 -49.714c-2.41228,-4.92945 -4.30016,-6.18803 -10.0687,-9.43937 -1.0491,-7.02737 -0.839339,-12.7962 3.14646,-14.7884 4.61481,0.734174 7.86615,0.943937 9.12473,2.51717 3.67087,1.1537 2.51717,-3.67087 2.83181,-4.0904l0 -22.0252c-6.60756,-16.886 -24.7521,-14.6835 -28.3181,-5.97827 8.28737,5.92555 7.86756,11.6943 5.34898,19.8227 2.7377,3.03562 1.78951,9.22593 0.314646,14.7884 1.67811,4.30016 1.67811,8.60032 0,12.9005 1.88844,6.13644 1.46891,10.5412 0,14.1591 1.78299,4.61481 1.88787,8.81008 0.314646,12.5858 1.88787,8.60032 1.1537,12.481 -2.83181,13.5298 -4.82457,13.1102 -9.96378,13.8444 -17.3055,0.943937 -3.97899,-2.10529 -5.9743,-8.60485 -4.0904,-15.7323 -3.15865,-4.29761 -2.52454,-6.81591 -0.629292,-11.9565 -1.79036,-2.6161 -2.94888,-7.0166 0.314646,-13.8444 -3.30463,-3.46054 -4.24857,-6.71159 0,-13.5298 -1.99984,-3.87695 -3.68277,-7.4401 -0.629292,-13.8444 -2.95654,-11.977 0.928347,-20.6827 7.23685,-21.7106 7.65411,-15.8922 28.1069,-16.6255 43.1065,-8.49544 2.67506,-52.0475 -40.9555,-14.3419 -50.0287,-27.6888 -6.61181,4.14766 -11.2295,5.40936 -14.4737,-2.20252 -6.93156,2.3281 -14.9091,3.17225 -15.103,-6.29292 -7.97103,1.46835 -12.1663,-3.88063 -12.5858,-14.1591 -7.5515,-2.41228 -10.2784,-8.39056 -6.92221,-16.6762 -5.2441,-8.49544 -3.98551,-14.2639 2.51717,-18.5641 -2.01543,-10.3992 0.930615,-13.015 8.18079,-16.6762 -1.10183,-10.6469 3.82819,-14.0026 14.4737,-12.9005 3.82791,-6.18832 11.5895,-7.76155 17.9348,-2.20252 7.13197,-3.04158 12.6907,-2.51717 17.3055,2.83181 8.81008,-1.04882 11.4321,1.78299 13.5298,9.12473 6.81733,0.943937 13.1102,5.87339 13.2151,13.5298 6.71244,2.62205 7.5515,6.60756 5.03433,15.103 11.1175,8.39056 -14.2639,29.9962 19.1934,56.6362l2.32895 0.314646z"/>
  <path id="path1937_0" fill="white" d="M500.681 382.295c-0.587906,34.045 -19.6353,78.0724 -50.5111,94.9043 -1.10608,0.743811 -2.22747,1.4451 -3.36303,2.09991 -32.4638,-1.14151 -33.8409,-17.3985 -54.599,-17.2684 -20.7581,0.130394 -47.0554,21.6848 -69.9531,21.8285 -22.8977,0.143433 -46.107,-17.329 -68.694,-17.187 -22.587,0.142016 -46.2836,19.1585 -68.7186,19.2997 -22.4351,0.141165 -43.3698,-19.8442 -64.6339,-19.7102 -21.2641,0.134362 -27.9145,15.9843 -61.0645,15.4803l-4.98246 -2.62432c-22.2078,-20.378 -50.5738,-56.1867 -52.9861,-95.4701 5.03235,0.621071 19.1812,14.6846 36.8172,14.6846 18.0417,0 47.8117,-25.801 71.432,-25.801 23.6203,0 48.5725,23.2838 72.8065,23.2838 24.234,0 47.9379,-23.9128 70.7117,-23.9128 22.7736,0 44.5538,23.9128 67.1916,23.9128 22.6381,0 46.9072,-23.9131 70.526,-24.5424 23.6191,-0.629008 49.0765,25.1722 78.7397,25.801 12.8412,0.271843 23.7288,-10.6353 31.2812,-14.7787z"/>
  <path fill="#F00000" d="M305.692 138.121c4.72933,4.7126 8.93084,10.6861 6.92221,20.452 3.05348,6.40432 1.37055,9.96747 -0.629292,13.8444 4.24857,6.81818 3.30463,11.3278 0,14.7884 3.26353,6.82781 2.10501,9.96974 0.314646,12.5858 1.89525,5.14063 3.15865,10.1761 0,14.4737 2.83181,8.39056 1.46835,12.5858 -4.0904,12.5858 -6.50268,16.6762 -11.9565,16.2567 -17.6202,-0.629292 -3.98551,-1.04882 -5.03433,-5.87339 -3.14646,-14.4737 -1.57323,-3.77575 -1.46835,-7.97103 0.314646,-12.5858 -1.46891,-3.61786 -1.88844,-8.02262 0,-14.1591 -1.67811,-4.30016 -1.67811,-8.60032 0,-12.9005 -1.47487,-5.56243 -2.42306,-11.7527 0.314646,-14.7884 -2.51858,-8.12835 -2.9384,-13.8971 5.34898,-19.8227l3.14646 0c2.20847,-0.834804 2.20592,-3.14362 1.88787,-5.66362 2.41228,2.09764 6.08315,9.54426 7.23685,6.29292zm44.6797 51.2873c5.87339,-22.6545 -9.01985,-33.9817 -9.75402,-50.0287 -11.5912,4.88523 -14.9409,15.6575 -11.8383,31.0383 5.55506,0.844725 10.0576,2.11039 7.1898,6.32381 5.29909,1.39039 9.94224,6.24189 14.4026,12.6666zm-59.1534 78.6615c1.62,0.876756 4.38151,1.49556 5.13751,3.75052 17.6222,20.147 25.0756,14.4187 36.256,-1.45928 2.07043,-2.94038 5.68063,-6.25096 7.69125,-9.84275 -10.8816,-3.3823 -20.2689,-0.288 -28.6328,7.23685 -6.29122,-2.00069 -13.3192,-1.05335 -20.452,0.314646zm-100.15 -0.924945c-0.988158,0.61937 -2.24929,1.23959 -3.8092,1.86888 -8.36391,-7.52485 -16.8072,-9.98986 -27.6888,-6.60756 2.01062,3.59178 9.68882,8.60571 11.467,11.7306 9.92892,17.4487 29.6589,15.5194 35.6267,-0.743244l-15.188 -2.17729 -0.407622 -4.0714zm-45.3424 -22.9881c8.11418,5.62394 8.46426,12.6513 5.34898,17.9348 2.51717,4.30016 3.14646,8.39056 0.629292,13.5298 1.57663,5.87849 1.99928,10.7065 -0.629292,13.2151 2.20649,4.40674 4.0972,11.6447 1.25858,16.0469 1.46863,5.87396 1.25915,9.96435 -0.629292,14.1591 3.57251,11.1257 0.738142,13.6398 -4.0904,13.8444 -4.82457,14.3688 -10.4882,14.4737 -16.9909,0.314646 -6.02759,-3.77348 -6.3394,-10.9032 -3.4611,-16.0469 -3.25191,-2.51632 -2.51802,-7.23572 0.943937,-14.7884 -2.93669,-2.3074 -3.88063,-6.50268 -0.943937,-13.8444 -3.77575,-5.55874 -3.77575,-10.9077 0,-14.7884 -3.35622,-4.0904 -3.67087,-6.3978 -0.314646,-13.8444 -2.84825,-10.9145 2.61241,-16.6808 8.18079,-16.6762l10.698 0.943937zm28.5457 -74.6312c-0.310677,-12.545 -5.94936,-24.0389 -15.9599,-28.258 1.83543,19.2719 -7.16939,27.9445 -5.51481,44.9884 13.1366,-4.00337 17.4631,-3.91663 21.4747,-16.7304zm21.7976 -32.0338c-6.30851,1.02784 -10.1934,9.73361 -7.23685,21.7106 -3.05348,6.40432 -1.37055,9.96747 0.629292,13.8444 -4.24857,6.81818 -3.30463,10.0692 0,13.5298 -3.26353,6.82781 -2.10501,11.2283 -0.314646,13.8444 -1.89525,5.14063 -2.52936,7.65893 0.629292,11.9565 -1.88391,7.12744 0.111402,13.627 4.0904,15.7323 7.34174,12.9005 12.481,12.1663 17.3055,-0.943937 3.98551,-1.04882 4.71969,-4.92945 2.83181,-13.5298 1.57323,-3.77575 1.46835,-7.97103 -0.314646,-12.5858 1.46891,-3.61786 1.88844,-8.02262 0,-14.1591 1.67811,-4.30016 1.67811,-8.60032 0,-12.9005 1.47487,-5.56243 2.42306,-11.7527 -0.314646,-14.7884 2.51858,-8.12835 2.9384,-13.8971 -5.34898,-19.8227l-11.9565 -1.88787zm166.889 101.945l3.77575 0c4.62444,4.71629 8.407,9.74807 6.29292,16.9909 3.35622,7.44662 3.35622,13.2151 0,17.3055 3.77575,3.88063 3.77575,8.60032 0,14.1591 2.93669,7.34174 2.93669,12.1663 0,14.4737 3.46195,7.55263 2.30797,11.6427 -0.943937,14.1591 4.45833,9.65084 2.57046,13.5306 -2.20252,14.7884 -4.82457,15.8372 -10.4882,15.7323 -16.9909,-0.314646 -3.88063,-1.46835 -4.82457,-6.71244 -2.83181,-15.7323 -1.88844,-4.19471 -1.46863,-9.54369 0,-15.4176 -1.57947,-3.98296 -0.947623,-8.70378 0,-13.5298 -1.04882,-4.61481 -1.25858,-9.22961 -0.629292,-13.8444 -0.419528,-4.30016 -0.419528,-9.01985 0,-14.1591 -0.943937,-3.98551 -1.04882,-7.97103 -0.314646,-11.9565 1.1537,-3.35622 3.14646,-5.87339 5.97827,-7.5515l4.0904 0.314646 2.20252 -4.0904 0 0.314646"/>
  <path id="path1937_1" fill="#BF9F4F" d="M500.052 385.442c-0.587906,34.045 -19.6353,78.0724 -50.5111,94.9043 -1.10608,0.743811 -2.22747,1.4451 -3.36303,2.09991 -32.4638,-1.14151 -33.8409,-17.3985 -54.599,-17.2684 -20.7581,0.130394 -47.0554,21.6848 -69.9531,21.8285 -22.8977,0.143433 -46.107,-17.329 -68.694,-17.187 -22.587,0.142016 -46.2836,19.1585 -68.7186,19.2997 -22.4351,0.141165 -43.3698,-19.8442 -64.6339,-19.7102 -21.2641,0.134362 -27.9145,15.9843 -61.0645,15.4803l-4.98246 -2.62432c-22.2078,-20.378 -50.5738,-56.1867 -52.9861,-95.4701 5.03235,0.621071 19.1812,14.6846 36.8172,14.6846 18.0417,0 47.8117,-25.801 71.432,-25.801 23.6203,0 48.5725,23.2838 72.8065,23.2838 24.234,0 47.9379,-23.9128 70.7117,-23.9128 22.7736,0 44.5538,23.9128 67.1916,23.9128 22.6381,0 46.9072,-23.9131 70.526,-24.5424 23.6191,-0.629008 49.0765,25.1722 78.7397,25.801 12.8412,0.271843 23.7288,-10.6353 31.2812,-14.7787z"/>
  <path fill="#8C0000" d="M29.1186 454.654c6.29292,7.97103 13.2151,17.2006 27.0595,23.9131 29.6223,0.96378 39.168,-15.6852 60.5495,-15.988 21.3815,-0.30274 49.4929,18.9981 63.3348,19.8332 13.8419,0.835087 -7.88882,0.524693 4.8257,0.0538583 12.7145,-0.470835 42.7612,-18.3135 65.5192,-18.6355 22.758,-0.322016 45.7957,17.386 69.3511,17.2128 23.5554,-0.173197 47.8117,-20.789 69.1027,-21.0901 18.9811,-0.268158 30.0813,16.4126 49.4147,16.2641 19.3334,-0.148536 17.6468,-2.9435 21.5929,-2.99934l-9.75402 6.60756c-19.9279,6.06388 -41.1976,-19.6433 -62.9297,-16.4194 -21.7321,3.22384 -39.7466,21.6099 -62.4016,21.7279 -22.6551,0.117921 -53.5091,-17.9393 -74.7834,-17.873 -21.2743,0.0663307 -43.3157,20.052 -66.0762,20.1609 -22.7605,0.10885 -42.1659,-20.7661 -67.3393,-20.7658 -19.0868,5.64832 -41.9491,16.9603 -57.2599,16.9452 -11.537,-5.45386 -22.0252,-15.103 -30.206,-28.9474z"/>
  <path fill="#8C0000" d="M293.233 232.929c4.74917,9.89263 9.48955,7.99257 14.976,-6.07777 5.55874,0 6.92221,-4.19528 4.0904,-12.5858 3.15865,-4.29761 1.89525,-9.33308 0,-14.4737 1.79036,-2.6161 2.94888,-5.75802 -0.314646,-12.5858 3.30463,-3.46054 4.24857,-7.97018 0,-14.7884 1.99984,-3.87695 3.68277,-7.4401 0.629292,-13.8444 2.00863,-9.76593 -2.19288,-15.7394 -6.92221,-20.452 -1.1537,3.25134 -4.82457,-4.19528 -7.23685,-6.29292 0.318047,2.52 0.320599,4.82882 -1.88787,5.66362l-3.14646 0 0.943937 3.14646 11.6419 0.629292c4.73584,4.92945 3.57562,9.85919 1.57323,14.7884 3.14646,5.03433 2.93669,8.81008 -0.629292,11.3272 3.4611,4.0904 3.14646,10.2784 -0.943937,18.5641 4.0904,3.88063 3.56599,7.76126 -1.57323,11.6419 2.51717,5.13922 2.09764,10.2784 -1.25858,15.4176 2.83181,3.14646 2.72693,6.71244 -0.314646,10.698 1.40513,13.144 -1.80425,16.2187 -9.62703,9.22423zm55.8474 -68.0939c2.45509,6.91881 3.86079,14.6619 1.29118,24.5733 -4.46032,-6.42473 -9.10347,-11.2762 -14.4026,-12.6666 6.04857,-1.45134 10.419,-5.42013 13.1114,-11.9067zm-157.605 106.381l15.188 2.17729c-5.96778,16.2627 -25.6978,18.1919 -35.6267,0.743244 -1.77817,-3.12491 -9.45638,-8.13884 -11.467,-11.7306l15.2294 6.92221c-2.09764,1.36347 -5.13922,-0.419528 -7.23685,-1.57323 6.29292,6.92278 13.1105,11.9574 21.0813,13.8444l0.943937 -2.20252c-4.30016,-1.46835 -8.18079,-3.77575 -11.6419,-6.92221 4.94277,1.92983 10.1112,4.5309 14.1591,3.77575l-2.51717 -3.14646 1.88787 -1.88787zm-60.8531 61.9852c6.50268,14.1591 12.1663,14.0542 16.9909,-0.314646 4.82854,-0.204662 7.6629,-2.71871 4.0904,-13.8444 1.88844,-4.19471 2.09792,-8.28511 0.629292,-14.1591 2.83862,-4.40221 0.947906,-11.6402 -1.25858,-16.0469 2.62857,-2.50866 2.20592,-7.33663 0.629292,-13.2151 2.51717,-5.13922 1.88787,-9.22961 -0.629292,-13.5298 3.11528,-5.2835 2.7652,-12.3109 -5.34898,-17.9348l-10.698 -0.943937c13.9918,3.98551 16.2366,10.0687 6.73399,18.2495 4.19528,4.30016 4.19528,8.60032 0,12.9005 4.82457,3.67087 5.45386,7.76126 1.88787,12.2712 3.88063,6.29292 3.56599,12.1663 -0.943937,17.6202 5.87339,3.67087 6.29292,8.18079 1.25858,13.5298 2.67534,3.14646 2.46529,7.4469 0.943937,12.2712 -0.985607,12.3761 -5.74753,13.4249 -14.2855,3.14646zm80.5493 -106.036c3.98551,-1.04882 4.71969,-4.92945 2.83181,-13.5298 1.57323,-3.77575 1.46835,-7.97103 -0.314646,-12.5858 1.46891,-3.61786 1.88844,-8.02262 0,-14.1591 1.67811,-4.30016 1.67811,-8.60032 0,-12.9005 1.47487,-5.56243 2.42306,-11.7527 -0.314646,-14.7884 2.51858,-8.12835 2.9384,-13.8971 -5.34898,-19.8227l-11.9565 -1.88787 9.5658 4.71969c0.133228,1.92869 1.12025,3.51581 -0.460347,6.33629 -0.917292,1.63729 -0.0663307,3.72926 -0.135496,5.56044 -0.0892914,2.35417 1.37282,4.99011 1.32832,7.28192 -0.044504,2.29181 -1.59534,4.24233 -1.41874,6.48482 0.212032,2.6898 2.34794,6.34507 2.62006,9.07257 0.271843,2.72721 -1.31868,4.52835 -1.00772,7.28646 0.279496,2.4772 1.50775,4.33871 1.8034,6.8366 0.177165,1.49868 -0.584504,3.63005 -0.397134,5.13298 0.358583,2.87206 1.48564,5.92214 1.46551,8.98583 -0.012189,1.83799 -1.24299,3.68221 -1.04598,5.49553 0.297921,2.74025 1.44652,5.82945 1.66479,8.74857 0.217984,2.91912 -0.493229,5.66929 1.12054,7.73235zm150.212 8.18079l0 -0.314646 -2.20252 4.0904 -4.0904 -0.314646 1.88787 2.83181c8.09462,1.88164 14.6092,4.29024 10.0687,10.3833l0.629292 8.18079c5.26451,2.3057 3.15865,6.60643 0,9.75402 2.83181,4.50992 3.14646,9.01985 0.943937,13.5298 1.57323,4.30044 2.09792,8.6006 0.314646,12.9005 0.944221,7.02737 0.839339,13.5303 -1.57323,18.8787 4.61566,2.04463 4.61537,8.12778 2.51717,16.0469 4.77298,-1.25773 6.66085,-5.13751 2.20252,-14.7884 3.25191,-2.51632 4.40589,-6.60643 0.943937,-14.1591 2.93669,-2.3074 2.93669,-7.13197 0,-14.4737 3.77575,-5.55874 3.77575,-10.2784 0,-14.1591 3.35622,-4.0904 3.35622,-9.8589 0,-17.3055 2.11408,-7.24281 -1.66847,-12.2746 -6.29292,-16.9909l-3.77575 0"/>
  <path fill="white" d="M275.616 279.51c-0.321166,0.816095 -0.463748,1.61745 -0.444189,2.40406l0.314646 25.4863c0.917292,15.2572 55.423,39.7233 64.3984,40.2506 15.2232,0.894048 39.3109,-9.20495 56.6674,-9.4269 21.0385,-0.269008 19.0681,8.00306 77.7904,6.30454 2.98914,2.0452 3.85427,4.0904 2.59569,6.13559 -70.6346,0.0306142 -65.8313,-7.59033 -81.6815,-6.95339 -21.5082,0.864567 -39.9617,10.338 -57.591,8.29616 -14.5851,-1.68917 -64.4355,-23.4009 -65.5798,-42.8959l0.253984 -28.7703 3.276 -0.830835zm161.284 76.9751c3.66492,7.1555 11.8777,12.4909 19.8227,17.9348 1.01537,3.12803 1.04343,4.98671 0.454677,6.05169 -0.757134,1.36913 -2.53446,1.42696 -4.54507,1.18517 1.78299,-2.51717 2.3074,-4.19528 1.57323,-5.03433 -10.5931,-4.30016 -18.2495,-10.698 -22.9691,-19.1934l5.66362 -0.943937zm-116.104 5.34898c2.07099,9.49153 6.63336,17.987 12.9005,25.801 -0.363118,1.05732 -0.867685,2.03443 -1.88362,2.71899 -8.28794,-9.61144 -13.9536,-19.2234 -13.8487,-28.8346l2.83181 0.314646zm-54.7484 -14.1591l-4.71969 20.452 -2.84825 0.0858898c2.8372,-4.95808 3.15723,-19.6702 7.56794,-20.5379zm-22.648 20.992l-2.96476 0.0892914 -4.0904 -19.508c-8.07591,-9.12473 -26.0107,1.04882 -34.611,11.0126 -3.4611,9.01985 -16.3616,19.2983 -27.3742,30.8353 -1.41874,0.200693 -2.63594,0.185953 -3.66662,0.00396851 25.4889,-19.9097 25.723,-32.3036 39.4308,-41.2685 12.1612,-7.95345 21.9901,-9.00256 29.4939,0.0459213l3.78227 18.7895zm-58.6571 -7.46221c-2.07099,9.49153 -12.297,15.4698 -18.5641,23.2838 -0.185669,0.918709 -0.187087,1.85074 0.0192756,2.71673 9.65934,-9.20268 20.0137,-18.5108 18.5448,-26.0005zm-76.0726 -5.01846c-14.2866,0.58252 -21.077,8.2681 -30.9813,14.3388 -7.22778,4.43027 -10.1682,3.49257 -23.8388,11.1317 -1.34022,0.161291 -2.75443,0.189354 -3.87525,-0.215433 24.8621,-11.3678 45.6863,-28.491 58.6953,-25.255zm-52.1938 15.2379c6.19285,-3.32901 9.47084,-8.11134 12.1621,-13.3659l1.69965 0.314646c-1.46154,3.40328 -3.97588,7.12177 -13.8617,13.0513zm168.856 -91.3981l0 30.206c0.324567,8.55015 -9.68911,11.5639 -18.817,17.1312 -15.3836,9.3824 -28.9083,18.0264 -51.245,20.2876 -14.8065,1.49868 -26.7256,-6.05906 -44.0816,-6.28044 -21.0379,-0.268441 -27.5635,5.17125 -86.2858,3.47273 -1.99276,1.36347 -2.88425,2.88425 -2.83181,4.40504 70.5714,-2.35474 60.5075,-5.42863 90.4493,-4.87956 14.4845,0.265606 23.6217,7.0166 46.7314,6.29207 27.0468,-0.847843 65.304,-28.8842 69.3533,-35.0796l-0.314646 -33.6671 -2.95824 -1.88787zm-11.9565 -9.43937c-2.45906,0.0379843 -6.7938,-0.28715 -6.71074,2.80658 -4.84866,13.2131 -18.7829,16.9645 -29.1631,8.54788 26.4317,10.6889 21.0841,-19.2115 35.8739,-11.3545zm-23.0205 -3.02088c3.7304,-2.07865 4.33191,-4.12838 2.81424,-6.46101l2.08318 0.0425197c0.570898,4.34296 -0.432284,7.11213 -4.89742,6.41849zm-39.5547 -33.1237c-3.23802,1.95336 -5.38838,5.57178 -5.07373,9.71434 8.11418,5.62394 8.46426,12.6513 5.34898,17.9348 2.51717,4.30016 3.14646,8.39056 0.629292,13.5298 1.57663,5.87849 1.99928,10.7065 -0.629292,13.2151 2.20649,4.40674 4.0972,11.6447 1.25858,16.0469 1.46863,5.87396 1.25915,9.96435 -0.629292,14.1591 3.57251,11.1257 0.738142,13.6398 -4.0904,13.8444 -2.71361,8.08243 -5.69339,11.6515 -8.93764,10.7079 4.18281,-3.24936 7.73377,-6.91994 6.86155,-13.5397 5.9967,0.96463 5.36032,-5.44139 3.77575,-12.9005 2.83181,-5.2441 2.72693,-9.64914 -0.314646,-13.2151 2.41228,-6.3978 2.3074,-11.537 -0.314646,-15.4176 1.79065,-4.82599 2.94945,-9.54596 -0.314646,-13.5298 3.46082,-4.40476 3.56627,-8.81037 0.314646,-13.2151 2.93669,-6.50268 1.25858,-12.5858 -5.03433,-18.2495 0.488126,-4.29166 1.6081,-8.1618 7.14983,-9.08504zm-20.1767 98.7591c-1.5069,-0.943371 -2.65663,-2.0965 -3.48832,-3.37578l3.61474 -0.0853229 -0.126425 3.4611zm23.2838 -110.441c-9.54426,1.99276 -16.886,9.22961 -18.8787,20.452l2.64359 -0.314646c0.208347,-11.6427 7.34089,-16.3624 17.6202,-17.9348l-1.38501 -2.20252zm-18.455 -9.59556c-9.15137,-0.919276 -19.2081,1.05421 -23.889,7.76296 -8.87386,12.7176 5.68602,28.641 -2.6504,36.7583 3.74287,12.7179 1.84734,14.2804 -2.83181,16.0469 0.741544,7.40098 -0.205512,11.9256 -7.86615,11.6419 -2.25411,9.49323 -4.77128,10.8567 -12.9005,9.43937 -2.98403,8.72674 -9.17405,8.82341 -16.3616,4.0904 -4.50992,5.45386 -7.86615,9.64914 -15.7323,0 -7.07953,3.3137 -18.3022,-0.0453544 -19.508,-11.0126 -5.76879,0.315496 -11.6422,-1.99134 -10.698,-12.5858 -6.39695,-2.77852 -9.22876,-10.9593 -4.71969,-17.9348 -3.80126,-5.68885 -4.06347,-11.5101 2.20252,-16.3616 -2.04406,-7.23685 -0.575433,-11.4318 6.60756,-14.4737 -0.943937,-5.76851 0.943937,-11.2224 10.0687,-11.9565 1.88787,-6.29292 11.3272,-9.33449 18.2495,-7.23685 8.48438,-7.0458 25.344,-4.70296 39.0614,-1.25632 11.0809,2.78391 29.096,-5.69481 46.8369,-7.23912l0.441071 3.14646c-23.5443,1.79915 -27.4743,7.68785 -42.3593,8.21311 -10.3408,0.364819 -27.6415,-11.2742 -43.2244,-0.976252 -8.39056,-1.78299 -14.2639,0.209764 -17.6202,5.97827 -7.34174,0.419528 -10.9077,4.61481 -10.698,12.5858 -5.55874,2.09764 -7.76126,6.71244 -6.60756,13.8444 -4.40561,4.66725 -4.19556,9.91163 -1.88787,15.4176 -2.51717,7.44662 -0.419528,12.7956 6.29292,16.0469 -1.78299,8.49544 1.88787,13.2151 11.0126,14.1591 -1.04882,9.22961 4.61481,12.5858 16.9909,10.0687 5.03433,7.44662 9.22961,7.76126 12.5858,0.943937 8.09972,3.41065 15.0585,3.41093 17.3055,-4.0904 9.22989,1.1537 12.5861,-3.46082 11.9565,-9.12473 6.71244,-1.1537 9.64914,-5.2441 8.81008,-12.2712 4.0904,-1.88787 4.82457,-7.13197 2.20252,-15.7323 6.84511,-10.819 -16.5657,-47.2088 28.9301,-43.892zm-86.4358 -54.9564c-2.61978,-2.03131 -4.09465,-5.69282 -3.97673,-10.6484 -6.55484,-1.4675 -9.91049,-5.0332 -7.23685,-15.7323 -3.88177,-5.5063 -6.50381,-10.3303 -0.314646,-16.6762 -3.35622,-8.07591 -1.57323,-13.7395 5.97827,-17.6202 -1.26935,-8.70775 4.92322,-16.5728 12.9005,-16.0469 0.315213,-9.38665 11.7479,-12.0084 20.452,-8.81008 6.50296,-4.61481 10.3836,-3.14646 15.4176,0.629292 5.32403,-2.28643 10.9347,-0.868819 15.4176,4.40504 8.1292,-2.20365 10.961,2.20167 13.2151,10.0687 8.49685,1.94003 9.96492,7.07925 10.0687,13.2151 8.28567,3.4611 9.33449,9.22961 5.03433,16.0469 5.12759,4.85235 5.13525,12.2173 0.576,16.9812 8.71881,12.3928 -20.2397,28.4556 17.6735,60.107l-0.817512 2.20252c-38.5923,-38.8018 -10.0661,-41.006 -18.8787,-62.9292 4.30016,-3.67087 4.40504,-9.01985 0.314646,-16.0469 3.14646,-6.71244 1.25858,-12.1663 -5.66362,-16.3616 1.46835,-6.60756 -1.67811,-10.2784 -9.43937,-11.0126 -0.314646,-7.02709 -4.82457,-10.2784 -13.5298,-9.75402 -3.77575,-5.55874 -8.81008,-6.92221 -15.103,-4.0904 -3.77575,-4.71969 -8.81008,-5.2441 -15.103,-1.57323 -10.3833,-3.4611 -16.5713,-0.629292 -18.5641,8.49544 -8.7052,0.629292 -12.7956,5.87339 -12.2712,15.7323 -7.13197,4.82457 -8.81008,10.0687 -5.03433,15.7323 -4.71969,6.18803 -4.40504,11.537 0.943937,16.0469 -3.56599,9.54426 -1.67811,14.8932 5.66362,16.0469 -0.293669,4.39058 0.886678,8.04444 2.27707,11.5923zm182.294 34.9753l-1.25858 49.714c0.00680315,3.99402 -2.19884,5.03944 -4.71969,5.66362 -26.9805,-1.57266 -55.8757,-21.1856 -58.2095,-53.8044 4.88551,-7.28221 7.183,-15.9531 7.16344,-24.2394 -1.548,13.0592 -8.07846,16.073 -8.91865,29.1725 -1.09162,17.0215 23.1704,53.0252 62.2936,53.591l5.03433 -8.81008 2.20252 -50.0287 -3.58753 -1.25858zm5.03433 -41.5332l0 15.7323c-0.314646,0.419528 0.839056,5.2441 -2.83181,4.0904 -1.25858,-1.57323 -4.50992,-1.78299 -9.12473,-2.51717 -3.9858,1.99219 -4.19556,7.76098 -3.14646,14.7884 1.61547,-3.4611 2.28699,-8.18079 4.84611,-10.3833 1.88787,3.35622 4.19528,3.77575 6.92221,1.25858 -0.52441,1.99304 2.8321,4.09068 3.4611,1.57323l1.25858 3.77575 2.51717 -0.629292 -0.314646 -32.4085 -3.58753 4.71969zm-28.3181 -12.2712c8.28737,5.92555 7.86756,11.6943 5.34898,19.8227 2.7377,3.03562 1.78951,9.22593 0.314646,14.7884 1.67811,4.30016 1.67811,8.60032 0,12.9005 1.88844,6.13644 1.46891,10.5412 0,14.1591 1.78299,4.61481 1.88787,8.81008 0.314646,12.5858 1.88787,8.60032 1.1537,12.481 -2.83181,13.5298 -2.71361,7.37433 -5.52728,10.8329 -8.77607,10.152 4.33871,-3.6961 8.04558,-7.60252 7.32926,-12.9838 3.98551,-0.734174 4.19528,-4.82457 0.629292,-12.2712 3.25134,-4.40504 3.14646,-9.22961 -0.314646,-14.4737 1.68662,-5.45755 2.63707,-10.599 -1.57323,-13.5298 3.14646,-2.93669 3.35622,-7.5515 0.629292,-13.8444 2.3074,-1.46835 2.51717,-6.29292 0.629292,-14.4737 3.2108,-4.03739 1.80482,-9.80589 -1.69965,-16.3616zm14.8431 -38.9486c9.78435,0.203244 17.477,5.79459 16.3069,28.5653 -14.9995,-8.13005 -35.4524,-7.39673 -43.1065,8.49544l6.1047 0c4.61481,-13.1102 19.6129,-15.103 36.4989,-4.0904 4.62728,-1.14491 8.20092,-3.02712 4.40504,-10.0687 0.395433,-15.6044 -6.34026,-23.2384 -20.209,-22.9017zm-74.3848 -13.6437c-0.868536,-2.19175 -1.36857,-4.92236 -1.49953,-8.1343 -7.5515,-2.41228 -10.2784,-8.39056 -6.92221,-16.6762 -5.2441,-8.49544 -3.98551,-14.2639 2.51717,-18.5641 -2.01543,-10.3992 0.930615,-13.015 8.18079,-16.6762 -1.10183,-10.6469 3.82819,-14.0026 14.4737,-12.9005 3.82791,-6.18832 11.5895,-7.76155 17.9348,-2.20252 7.13197,-3.04158 12.6907,-2.51717 17.3055,2.83181 8.81008,-1.04882 11.4321,1.78299 13.5298,9.12473 -2.88709,-5.25544 -6.40545,-9.5624 -14.3473,-7.23685 -3.4611,-5.45386 -9.01985,-6.29292 -16.6762,-2.51717 -6.60756,-3.77575 -12.3761,-2.51717 -17.3055,3.77575 -10.3,-3.17254 -12.494,3.23575 -13.5298,11.0126 -6.3978,3.35622 -9.01985,8.81008 -7.86615,16.3616 -6.66114,6.24133 -5.82151,11.905 -1.57323,17.3055 -4.30158,10.3847 -0.525544,14.9993 6.92221,16.9909l-1.14406 7.50501zm85.0068 -6.35471c0.795402,8.38233 4.88693,18.0204 17.9561,28.4264l2.32895 0.314646c26.5351,-24.4375 4.30016,-48.875 15.4176,-57.2655 -2.51717,-8.49544 -0.419528,-14.0542 6.29292,-16.6762 0.104882,-7.65638 3.56599,-11.9565 10.3833,-12.9005 2.09764,-7.34174 7.5515,-10.4882 16.3616,-9.43937 4.61481,-5.34898 10.4882,-6.50268 17.6202,-3.4611 5.2441,-3.35622 10.4882,-3.35622 15.7323,0 7.70911,-0.682583 13.5828,2.04378 15.4176,12.2712 7.25018,3.66123 13.028,6.90633 11.0126,17.3055 6.50268,4.30016 7.13197,10.698 1.88787,19.1934 3.35622,8.28567 1.25858,13.6347 -6.29292,16.0469 5.25884,-4.19273 9.25399,-8.59578 4.40504,-14.4737 4.73953,-7.24281 7.79358,-13.9592 -0.943937,-16.9909 1.88787,-9.22961 -1.67811,-14.6835 -10.698,-16.3616 -0.418677,-8.60145 -3.98466,-14.0553 -14.4737,-12.5858 -5.45386,-5.55874 -10.0687,-5.66362 -13.8444,-0.314646 -7.13197,-3.56599 -13.0054,-2.51717 -17.6202,3.14646 -10.0698,-2.46558 -14.37,1.41534 -16.0469,8.18079 -5.97827,0.839056 -9.43937,5.03433 -10.3833,12.5858 -6.60756,2.62205 -8.60032,7.76126 -5.97827,15.4176 -10.4882,7.44662 9.54426,23.7033 -10.698,56.3216l-10.3833 1.57323c-8.93849,-3.41802 -14.3887,-14.3093 -17.4532,-30.3143zm72.2016 57.6885c-7.65411,-15.8922 -18.0383,-17.2548 -38.0721,-13.2151l1.57323 5.03433c14.1327,-6.71244 26.5609,-5.2441 36.4989,8.18079zm7.35279 13.7993c0.185102,2.00693 0.0714331,4.21115 -0.430583,6.65263 3.05348,6.40432 1.37055,9.96747 -0.629292,13.8444 4.24857,6.81818 3.30463,11.3278 0,14.7884 3.26353,6.82781 2.10501,9.96974 0.314646,12.5858 1.89525,5.14063 3.15865,10.1761 0,14.4737 2.83181,8.39056 1.46835,12.5858 -4.0904,12.5858 3.93336,-3.19805 3.82847,-9.28148 1.88787,-16.6762 1.78299,-2.83181 1.88787,-6.50268 0.314646,-11.0126 3.67143,-7.70967 2.7275,-11.38 -0.314646,-13.2151 2.09764,-5.45386 1.67811,-11.3272 -1.25858,-17.6202 3.56599,-0.314646 3.77575,-4.82457 0.629292,-13.5298l3.57704 -2.87688zm-29.6926 32.4536c1.0491,-7.02737 0.524693,-12.4815 -3.4611,-14.4737l-7.5515 2.51717c-3.67087,1.1537 -5.66362,-1.46835 -5.97827,-7.86615l0 -21.3959 -1.57323 0.314646 0.314646 27.3742c1.04882,7.97103 15.3128,0.52441 15.4176,5.03433l2.83181 8.49544zm-12.2712 12.2712l0.943937 43.7358c0.419528,4.61481 2.51717,7.13197 6.29292,7.5515 28.5537,-2.20195 49.2682,-18.0391 58.5241,-53.8044 -3.51751,-7.89789 -6.09194,-15.122 -7.59969,-21.5844 6.50041,9.46942 9.35689,7.0818 9.17292,30.0799 -15.3383,33.1041 -28.0814,47.7621 -63.2438,49.0847 -2.72693,-1.99276 -5.03433,-6.50268 -6.92221,-13.5298l2.83181 -41.5332zm80.4238 -13.3228c2.07184,-18.7339 -10.2217,-29.4004 -10.887,-43.9427 -2.97865,15.5917 9.14571,27.0927 10.887,43.9427zm99.8683 -29.7836c7.34174,1.25858 10.9077,-2.51717 10.698,-11.3272 8.39056,-4.40504 10.0687,-10.0687 5.03433,-16.9909 4.24885,-6.60785 5.08819,-12.6907 -1.57323,-17.6202 3.35622,-8.07591 1.25858,-14.0542 -6.29292,-17.9348 -1.36261,-8.18164 -6.18775,-10.5936 -12.5858,-10.3833 -1.15398,-7.2893 -6.29348,-9.59641 -14.1591,-8.49544 -5.66362,-5.03433 -11.7468,-5.45386 -18.2495,-1.25858 -5.32403,-2.28643 -9.99071,1.3337 -14.4737,6.60756 -8.1292,-2.20365 -12.2196,2.51632 -14.4737,10.3833 -8.49685,1.94003 -11.2235,6.7646 -11.3272,12.9005 -6.18803,4.30016 -8.18079,9.43937 -5.97827,15.4176 -15.6274,14.7884 19.4032,37.7575 -17.6202,74.5711l-3.14646 3.77575 5.03433 0.314646c38.2819,-43.0016 3.56599,-59.2583 18.5641,-76.1443 -0.943937,-7.13197 1.04882,-12.1663 5.97827,-15.103 0,-7.97103 3.77575,-12.1663 11.3272,-12.5858 1.36318,-8.18051 6.08344,-11.7471 14.1591,-10.698 4.19386,-4.62728 8.49317,-8.20092 13.5298,-4.40504 6.18803,-6.3978 11.537,-6.08315 16.0469,0.943937 8.28567,-2.3074 13.2151,0 14.7884,6.92221 9.54426,2.41228 13.6347,6.92221 12.2712,13.5298 8.70662,0.628441 9.33534,7.02624 6.29292,16.0469 6.29263,3.56599 4.61452,8.6006 0.629292,14.1591 4.24885,7.0801 0.997229,12.4291 -5.66362,16.9909 0.581953,7.50756 -3.51043,9.60208 -8.81008,10.3833zm21.2837 137.287c1.47175,-1.74501 2.49222,-4.32879 2.94406,-7.96763 6.60813,-1.78214 10.5939,-5.66221 8.81008,-14.1591 7.34174,-4.19528 8.39056,-9.22961 3.14646,-15.103 4.30016,-6.18803 3.14646,-11.537 -3.4611,-16.0469 2.72693,-7.23685 0,-12.3761 -8.18079,-15.4176 -0.734174,-6.60756 -4.82457,-9.8589 -12.2712,-9.75402 -1.88787,-6.29292 -6.29292,-8.39056 -13.2151,-6.29292 -8.48438,-7.0458 -17.9583,-3.7338 -31.8246,-0.94167 -1.32747,0.267307 -36.0182,-1.91906 -55.3323,-6.29518l-3.4611 3.4611c79.6318,17.4572 72.1528,-6.67134 89.0448,7.86615 7.13169,-2.62205 11.7462,-0.209764 13.8444,7.23685 7.03928,-2.32583 9.65623,1.98199 11.6419,7.23685 8.93963,6.40205 9.0343,11.3298 7.86615,16.0469 6.71358,4.56236 6.50353,9.70158 3.14646,15.103 5.26848,5.56299 1.69257,9.65169 -3.14646,13.5298 2.09877,7.23799 -1.57266,11.0135 -7.86615,13.2151l-1.68548 8.28227zm-58.0641 4.79821c-1.8652,-1.66621 -3.27827,-4.17175 -4.12356,-7.7315 -6.71244,1.99276 -10.4882,-1.88787 -11.3272,-11.6419 -4.04703,-1.45077 -7.09484,-4.37584 -4.40504,-17.6202 -7.03644,-7.39049 1.15965,-21.1822 1.55736,-31.676 3.17112,10.1835 -5.2526,25.996 0.33052,31.3614 -2.3074,8.39056 -0.839056,14.2639 4.40504,17.6202 1.25858,9.01985 5.03433,13.0054 11.3272,11.9565 -0.308126,2.57754 0.858331,5.15481 2.23569,7.7315zm-65.1649 -76.0096c9.54426,1.99276 15.3128,8.60032 17.3055,19.8227l-4.0904 -0.314646c-3.67087,-18.3543 -14.8932,-14.0542 -15.7323,-20.1373l2.51717 0.629292zm23.7555 29.4985c0.598961,2.19402 0.635528,4.59921 -0.157039,7.31509 3.35622,7.44662 3.35622,13.2151 0,17.3055 3.77575,3.88063 3.77575,8.60032 0,14.1591 2.93669,7.34174 2.93669,12.1663 0,14.4737 3.46195,7.55263 2.30797,11.6427 -0.943937,14.1591 4.45833,9.65084 2.57046,13.5306 -2.20252,14.7884 -2.71361,8.90816 -5.69339,12.7726 -8.93793,11.5929 5.28662,-4.17884 8.05578,-8.77692 8.30863,-13.7954 4.0904,-4.82457 4.40504,-9.64914 0.943937,-14.4737 1.46835,-4.30016 1.67811,-8.60032 0.629292,-12.9005 3.99544,-8.39027 2.628,-13.8441 -0.943937,-16.3616 3.40923,-2.88369 4.45833,-7.0784 0.314646,-14.1591 3.14646,-2.41228 3.35622,-7.34174 0.629292,-14.7884l2.35956 -7.31509zm-20.2944 81.8862c-1.45502,-0.550488 -2.49789,-1.63219 -3.1269,-3.24454l3.1269 3.24454zm-12.9005 -98.7988c7.13197,-4.0904 14.9981,-0.943937 15.103,6.60756l2.20252 0c-2.56167,-10.2648 -8.03226,-13.123 -17.3055,-6.60756zm-28.9474 28.1608c-1.88787,2.88425 -1.67811,5.34898 0.629292,7.39418 -6.92221,-2.46444 -7.13197,-4.92917 -0.629292,-7.39418zm29.2621 0.157323c-2.01062,3.59178 -5.62082,6.90237 -7.69125,9.84275 -8.73468,12.4044 -15.1948,18.6146 -26.0059,11.1311 18.7838,4.33616 22.4646,-13.9825 33.6972,-20.9738z"/>
  <polygon fill="white" points="230.807,276.88 230.492,315.266 233.324,311.491 233.324,277.194 "/>
  <polygon fill="white" points="236.785,279.397 237.1,312.749 234.897,314.637 234.897,277.823 "/>
  <polygon fill="white" points="238.673,285.06 239.302,312.12 241.505,305.198 240.899,287.259 "/>
  <path fill="white" d="M237.729 193.813l-1.88787 48.7701 -5.66362 11.0126 0.629292 3.14646c2.83181,-1.04882 5.2441,-5.03433 7.23685,-11.9565l2.20252 -50.9726 -2.51717 0z"/>
  <polygon fill="white" points="242.134,193.498 240.875,227.48 244.022,225.278 244.336,193.498 "/>
  <path fill="white" d="M236.156 257.371c5.03433,-3.25134 4.71969,-6.18803 6.60756,-9.43937l-3.4611 -0.629292c0.530362,3.88262 -1.1503,7.02851 -3.14646,10.0687z"/>
  <polygon fill="white" points="241.505,230.312 239.931,241.954 242.763,244.156 242.882,230.673 "/>
  <polygon fill="white" points="241.819,160.146 241.19,172.102 244.651,172.417 244.336,160.461 "/>
  <polygon fill="white" points="242.449,148.819 242.134,154.168 245.28,154.168 244.966,148.819 "/>
  <polygon fill="white" points="241.505,176.508 241.505,179.339 244.651,177.137 "/>
  <path fill="#420000" d="M293.421 137.491c-8.28737,5.92555 -7.86756,11.6943 -5.34898,19.8227 -2.7377,3.03562 -1.78951,9.22593 -0.314646,14.7884 -1.67811,4.30016 -1.67811,8.60032 0,12.9005 -1.88844,6.13644 -1.46891,10.5412 0,14.1591 -1.78299,4.61481 -1.88787,8.81008 -0.314646,12.5858 -1.88787,8.60032 -0.839056,13.4249 3.14646,14.4737 0.884693,2.63821 1.76457,4.87503 2.64416,6.70706l0.502299 -7.0217c-5.34898,-1.04882 -6.50268,-5.87339 -3.4611,-14.4737 -4.21399,-4.19528 -1.79433,-8.39056 1.57323,-12.5858 -5.14063,-1.88731 -4.51106,-7.236 -1.25858,-14.1591 -3.4611,-3.67087 -3.56599,-7.34174 -0.314646,-11.0126 -2.57074,-3.51269 -2.25638,-8.75679 -0.629292,-14.7884 -2.20337,-6.66 -1.78441,-13.0575 4.40504,-18.8787l-0.629292 -2.51717zm47.4917 4.84555c-0.147969,-0.970016 -0.249165,-1.95477 -0.294803,-2.95767 -11.5912,4.88523 -14.9409,15.6575 -11.8383,31.0383 0.694205,0.105449 1.37225,0.217984 2.02139,0.341575 -2.50328,-14.0888 0.867402,-23.5624 10.1118,-28.4222zm-2.36835 120.821c0.65367,-0.861449 1.25632,-1.74217 1.7589,-2.63991 -10.8816,-3.3823 -20.2689,-0.288 -28.6328,7.23685l5.66362 1.25858c4.1332,-6.98599 11.2031,-8.93764 21.2102,-5.85553zm-151.285 5.85553c-8.36391,-7.52485 -16.8072,-9.98986 -27.6888,-6.60756 0.376725,0.673229 0.953292,1.39691 1.6526,2.14866 6.79068,-3.23405 15.8893,-0.698741 26.0362,4.4589zm-52.2312 -25.801c-5.56838,-0.00453544 -11.029,5.7617 -8.18079,16.6762 -3.35622,7.44662 -3.04158,9.75402 0.314646,13.8444 -3.77575,3.88063 -3.77575,9.22961 0,14.7884 -2.93669,7.34174 -1.99276,11.537 0.943937,13.8444 -3.46195,7.55263 -4.19584,12.272 -0.943937,14.7884 -2.8783,5.14375 -2.56649,12.2735 3.4611,16.0469 1.01594,2.21216 2.01175,4.07622 2.98687,5.59248l-0.0286299 -8.10964c-10.2781,-2.51717 -4.40476,-9.9635 -4.0904,-13.8444 -2.93698,-3.82791 -2.41257,-8.23267 -0.314646,-12.9005 -2.21131,-3.45629 -3.68504,-7.33295 0,-14.1591 -3.98551,-8.91497 -0.419528,-9.64914 -0.629292,-14.4737 -2.3074,-6.60756 -2.09764,-11.1175 0.629292,-13.5298 -5.6007,-10.2784 3.27203,-13.0054 5.85185,-18.5641zm25.2981 -97.2256c2.49222,12.9291 -4.45493,24.9143 -5.73874,39.731 -0.577985,0.171496 -1.17468,0.350079 -1.79036,0.537733 -1.65458,-17.0439 7.35024,-25.7165 5.51481,-44.9884 10.0106,4.21909 15.6492,15.713 15.9599,28.258 -3.38967,-14.9777 -8.03821,-22.8237 -13.9456,-23.5383m35.7432 -8.49544c-6.30851,1.02784 -10.1934,9.73361 -7.23685,21.7106 -3.05348,6.40432 -1.37055,9.96747 0.629292,13.8444 -4.24857,6.81818 -3.30463,10.0692 0,13.5298 -3.26353,6.82781 -2.10501,11.2283 -0.314646,13.8444 -1.89525,5.14063 -2.52936,7.65893 0.629292,11.9565 -1.88391,7.12744 0.111402,13.627 4.0904,15.7323 1.49102,2.62035 2.89162,4.6783 4.2171,6.18435l-0.944221 -6.81364c-4.82457,-1.25858 -6.29292,-5.87339 -4.40504,-13.8444 -4.24885,-4.29988 -3.30435,-8.60004 0,-12.9005 -2.88482,-1.10041 -2.88454,-6.23963 -1.57323,-13.2151 -2.83181,-6.08315 -2.3074,-11.3272 1.57323,-15.7323 -4.09096,-2.93584 -3.56627,-8.17994 -0.943937,-14.4737 -4.71033,-4.71912 -1.92019,-11.7462 4.27862,-19.8227zm159.023 101.316c-2.83181,1.67811 -4.82457,4.19528 -5.97827,7.5515 -0.734174,3.98551 -0.629292,7.97103 0.314646,11.9565 -0.419528,5.13922 -0.419528,9.8589 0,14.1591 -0.629292,4.61481 -0.419528,9.22961 0.629292,13.8444 -0.947623,4.82599 -1.57947,9.54681 0,13.5298 -1.46863,5.87396 -1.88844,11.2229 0,15.4176 -1.99276,9.01985 -1.04882,14.2639 2.83181,15.7323 2.89559,7.14586 5.62479,11.1308 8.18788,11.9537 -2.62743,-3.77206 -5.04369,-7.75446 -5.98536,-13.2123 -4.87786,0.0538583 -6.87118,-3.3018 -2.51717,-14.1591 -2.73827,-3.03392 -4.52892,-6.69997 0.314646,-14.7884 -2.30797,-2.56904 -3.04271,-6.97352 -0.314646,-15.4176 -3.14646,-2.72693 -2.93669,-7.13197 0.629292,-13.2151 -3.04271,-2.67392 -2.6229,-8.23267 -0.629292,-15.103 -3.56599,-2.09764 -1.67811,-11.3272 3.77575,-16.3616l-1.25858 -1.88787z"/>
  <path fill="#8C0000" d="M282.409 327.538c-5.24665,-4.40277 -10.2824,-9.0156 -13.8444,-15.103 -0.209764,-12.2712 -0.419528,-24.5424 -0.629292,-36.8136 5.34898,-5.50659 11.8517,-9.28205 18.8787,-12.2712 6.81733,-2.3074 12.3761,0.104882 16.6762,5.34898l-0.314646 -8.81008c-0.296788,-3.51496 8.10936,-6.35811 15.4553,-13.7376 8.86593,-8.90646 11.0455,-14.8314 23.8754,-22.7614l8.81008 1.57323c-17.4104,-1.04882 -27.2693,24.3326 -44.6797,32.7232 -2.13789,13.6145 4.70126,17.0209 14.5517,12.9634 3.85484,-1.58797 7.3715,-5.38526 12.1932,-8.55837l4.0904 0.629292c-12.7137,13.8779 -26.5431,19.0633 -42.7187,5.93972 3.6635,-2.79014 2.27565,-4.03399 -4.16353,-3.7372 -8.7052,3.04158 -17.4104,8.28567 -19.508,13.5298l0.629292 31.7792c1.21238,8.12296 6.06218,12.6074 10.698,17.3055z"/>
  <path fill="#8C0000" d="M289.645 156.999c2.09764,-3.4611 5.87339,-3.14646 11.3272,0.943937 5.13922,-5.34898 7.76126,-6.08315 7.86615,-2.20252 -5.35947,-1.38019 -7.03361,3.13625 -8.18079,8.49544 -1.77591,-4.93994 -4.18337,-9.03657 -11.0126,-7.23685z"/>
  <path fill="#8C0000" d="M290.275 173.426c2.09764,-3.4611 5.87339,-3.14646 11.3272,0.943937 5.13922,-5.34898 7.76126,-6.08315 7.86615,-2.20252 -5.35947,-1.38019 -7.03361,3.13625 -8.18079,8.49544 -1.77591,-4.93994 -4.18337,-9.03657 -11.0126,-7.23685z"/>
  <path fill="#8C0000" d="M289.645 185.799c2.09764,-3.4611 5.87339,-3.14646 11.3272,0.943937 5.13922,-5.34898 7.76126,-6.08315 7.86615,-2.20252 -5.35947,-1.38019 -7.03361,3.13625 -8.18079,8.49544 -1.77591,-4.93994 -4.18337,-9.03657 -11.0126,-7.23685z"/>
  <path fill="#8C0000" d="M289.645 200.2c2.09764,-3.4611 5.87339,-3.14646 11.3272,0.943937 5.13922,-5.34898 7.76126,-6.08315 7.86615,-2.20252 -5.35947,-1.38019 -7.03361,3.13625 -8.18079,8.49544 -1.77591,-4.93994 -4.18337,-9.03657 -11.0126,-7.23685z"/>
  <path fill="#8C0000" d="M289.645 212.573c2.09764,-3.4611 5.87339,-3.14646 11.3272,0.943937 5.13922,-5.34898 7.76126,-6.08315 7.86615,-2.20252 -5.35947,-1.38019 -7.03361,3.13625 -8.18079,8.49544 -1.77591,-4.93994 -4.18337,-9.03657 -11.0126,-7.23685z"/>
  <path fill="#8C0000" d="M289.645 225.4c2.09764,-3.4611 5.87339,-3.14646 11.3272,0.943937 5.13922,-5.34898 7.76126,-6.08315 7.86615,-2.20252 -5.35947,-1.38019 -7.03361,3.13625 -8.18079,8.49544 -1.77591,-4.93994 -4.18337,-9.03657 -11.0126,-7.23685z"/>
  <path fill="#8C0000" d="M352.26 258.63c2.09764,-3.4611 5.87339,-3.14646 11.3272,0.943937 5.13922,-5.34898 7.76126,-6.08315 7.86615,-2.20252 -5.35947,-1.38019 -7.03361,3.13625 -8.18079,8.49544 -1.77591,-4.93994 -4.18337,-9.03657 -11.0126,-7.23685z"/>
  <path fill="#8C0000" d="M352.575 271.845c2.09764,-3.4611 5.87339,-3.14646 11.3272,0.943937 5.13922,-5.34898 7.76126,-6.08315 7.86615,-2.20252 -5.35947,-1.38019 -7.03361,3.13625 -8.18079,8.49544 -1.77591,-4.93994 -4.18337,-9.03657 -11.0126,-7.23685z"/>
  <path fill="#8C0000" d="M351.945 286.319c2.09764,-3.4611 5.87339,-3.14646 11.3272,0.943937 5.13922,-5.34898 7.76126,-6.08315 7.86615,-2.20252 -5.35947,-1.38019 -7.03361,3.13625 -8.18079,8.49544 -1.77591,-4.93994 -4.18337,-9.03657 -11.0126,-7.23685z"/>
  <path fill="#8C0000" d="M351.945 299.849c2.09764,-3.4611 5.87339,-3.14646 11.3272,0.943937 5.13922,-5.34898 7.76126,-6.08315 7.86615,-2.20252 -5.35947,-1.38019 -7.03361,3.13625 -8.18079,8.49544 -1.77591,-4.93994 -4.18337,-9.03657 -11.0126,-7.23685z"/>
  <path fill="#8C0000" d="M351.631 315.896c2.09764,-3.4611 5.87339,-3.14646 11.3272,0.943937 5.13922,-5.34898 7.76126,-6.08315 7.86615,-2.20252 -5.35947,-1.38019 -7.03361,3.13625 -8.18079,8.49544 -1.77591,-4.93994 -4.18337,-9.03657 -11.0126,-7.23685z"/>
  <path fill="#8C0000" d="M351.945 328.796c2.09764,-3.4611 5.87339,-3.14646 11.3272,0.943937 5.13922,-5.34898 7.76126,-6.08315 7.86615,-2.20252 -5.35947,-1.38019 -7.03361,3.13625 -8.18079,8.49544 -1.77591,-4.93994 -4.18337,-9.03657 -11.0126,-7.23685z"/>
  <path fill="#8C0000" d="M190.532 156.056c2.09764,-3.4611 5.87339,-3.14646 11.3272,0.943937 5.13922,-5.34898 7.76126,-6.08315 7.86615,-2.20252 -5.35947,-1.38019 -7.03361,3.13625 -8.18079,8.49544 -1.77591,-4.93994 -4.18337,-9.03657 -11.0126,-7.23685z"/>
  <path fill="#8C0000" d="M191.161 170.529c2.09764,-3.4611 5.87339,-3.14646 11.3272,0.943937 5.13922,-5.34898 7.76126,-6.08315 7.86615,-2.20252 -5.35947,-1.38019 -7.03361,3.13625 -8.18079,8.49544 -1.77591,-4.93994 -4.18337,-9.03657 -11.0126,-7.23685z"/>
  <path fill="#8C0000" d="M190.217 185.947c2.09764,-3.4611 5.87339,-3.14646 11.3272,0.943937 5.13922,-5.34898 7.76126,-6.08315 7.86615,-2.20252 -5.35947,-1.38019 -7.03361,3.13625 -8.18079,8.49544 -1.77591,-4.93994 -4.18337,-9.03657 -11.0126,-7.23685z"/>
  <path fill="#8C0000" d="M191.476 200.106c2.09764,-3.4611 5.87339,-3.14646 11.3272,0.943937 5.13922,-5.34898 7.76126,-6.08315 7.86615,-2.20252 -5.35947,-1.38019 -7.03361,3.13625 -8.18079,8.49544 -1.77591,-4.93994 -4.18337,-9.03657 -11.0126,-7.23685z"/>
  <path fill="#8C0000" d="M192.105 212.692c2.09764,-3.4611 5.87339,-3.14646 11.3272,0.943937 5.13922,-5.34898 7.76126,-6.08315 7.86615,-2.20252 -5.35947,-1.38019 -7.03361,3.13625 -8.18079,8.49544 -1.77591,-4.93994 -4.18337,-9.03657 -11.0126,-7.23685z"/>
  <path fill="#8C0000" d="M193.678 225.592c2.09764,-3.4611 5.87339,-3.14646 11.3272,0.943937 5.13922,-5.34898 7.76126,-6.08315 7.86615,-2.20252 -5.35947,-1.38019 -7.03361,3.13625 -8.18079,8.49544 -1.77591,-4.93994 -4.18337,-9.03657 -11.0126,-7.23685z"/>
  <path fill="#8C0000" d="M128.547 261.462c2.09764,-3.4611 5.87339,-3.14646 11.3272,0.943937 5.13922,-5.34898 7.76126,-6.08315 7.86615,-2.20252 -5.35947,-1.38019 -7.03361,3.13625 -8.18079,8.49544 -1.77591,-4.93994 -4.18337,-9.03657 -11.0126,-7.23685z"/>
  <path fill="#8C0000" d="M129.176 274.362c2.09764,-3.4611 5.87339,-3.14646 11.3272,0.943937 5.13922,-5.34898 7.76126,-6.08315 7.86615,-2.20252 -5.35947,-1.38019 -7.03361,3.13625 -8.18079,8.49544 -1.77591,-4.93994 -4.18337,-9.03657 -11.0126,-7.23685z"/>
  <path fill="#8C0000" d="M128.861 287.892c2.09764,-3.4611 5.87339,-3.14646 11.3272,0.943937 5.13922,-5.34898 7.76126,-6.08315 7.86615,-2.20252 -5.35947,-1.38019 -7.03361,3.13625 -8.18079,8.49544 -1.77591,-4.93994 -4.18337,-9.03657 -11.0126,-7.23685z"/>
  <path fill="#8C0000" d="M129.491 302.366c2.09764,-3.4611 5.87339,-3.14646 11.3272,0.943937 5.13922,-5.34898 7.76126,-6.08315 7.86615,-2.20252 -5.35947,-1.38019 -7.03361,3.13625 -8.18079,8.49544 -1.77591,-4.93994 -4.18337,-9.03657 -11.0126,-7.23685z"/>
  <path fill="#8C0000" d="M129.491 317.469c2.09764,-3.4611 5.87339,-3.14646 11.3272,0.943937 5.13922,-5.34898 7.76126,-6.08315 7.86615,-2.20252 -5.35947,-1.38019 -7.03361,3.13625 -8.18079,8.49544 -1.77591,-4.93994 -4.18337,-9.03657 -11.0126,-7.23685z"/>
  <path fill="#8C0000" d="M129.176 329.111c2.09764,-3.4611 5.87339,-3.14646 11.3272,0.943937 5.13922,-5.34898 7.76126,-6.08315 7.86615,-2.20252 -5.35947,-1.38019 -7.03361,3.13625 -8.18079,8.49544 -1.77591,-4.93994 -4.18337,-9.03657 -11.0126,-7.23685z"/>
  <path fill="#8C0000" d="M291.533 260.203c-13.2749,4.81833 -27.0284,6.79607 -28.9474,15.4176l0.314646 33.6671c1.57124,6.9361 3.8795,8.71342 6.29292,9.75402 -1.37792,-2.68498 -2.97808,-4.69871 -3.4611,-10.0687l-0.314646 -33.3525c0.209764,-5.76851 16.1518,-11.2224 26.1156,-15.4176z"/>
  <path fill="#8C0000" d="M345.338 213.636c12.3922,-6.98485 30.4138,-10.5888 42.4202,-2.69093 9.54652,6.27959 22.8682,22.9269 43.6023,40.7634 10.861,9.343 18.7211,11.461 39.2066,27.6885l1.88787 5.97827 0.943937 -5.03433 4.40504 -1.88787 -7.23685 -0.314646c-18.5153,-14.5695 -34.6428,-26.57 -46.5129,-36.9077 -26.1139,-22.7424 -24.9287,-32.5551 -47.6187,-35.5351 -12.9923,-1.70646 -23.5055,2.12712 -31.0975,7.94041z"/>
  <path fill="#8C0000" d="M404.176 224.963c0.0847559,6.56589 -2.34737,12.2233 -3.14646,17.9348 2.4154,-4.82457 4.61821,-9.65027 5.34898,-14.4737l-2.20252 -3.4611z"/>
  <path fill="#8C0000" d="M410.784 231.571c0.0847559,6.56589 -4.23525,22.9212 -5.03433,28.6328 2.4154,-4.82457 6.50608,-20.3482 7.23685,-25.1717l-2.20252 -3.4611z"/>
  <path fill="#8C0000" d="M419.279 239.437c0.0847559,6.56589 -1.71808,22.9212 -2.51717,28.6328 2.4154,-4.82457 3.98892,-20.3482 4.71969,-25.1717l-2.20252 -3.4611z"/>
  <path fill="#8C0000" d="M427.775 247.617c0.0847559,6.56589 2.05767,26.3823 1.25858,32.0939 2.4154,-4.82457 1.47175,-23.8093 0.943937,-28.6328l-2.20252 -3.4611z"/>
  <path fill="#8C0000" d="M438.158 254.854c1.02841,5.14942 6.25266,18.6727 4.71969,25.4863 1.95931,-6.0103 -0.53915,-19.9993 -1.57323,-21.7106l-3.14646 -3.77575z"/>
  <path fill="#8C0000" d="M452.003 263.979c1.02841,5.14942 6.25266,18.6727 4.71969,25.4863 1.95931,-6.0103 -0.53915,-19.9993 -1.57323,-21.7106l-3.14646 -3.77575z"/>
  <path fill="#8C0000" d="M431.865 211.433c-8.3384,2.2028 -16.9387,3.35679 -26.1156,2.20252 6.03043,3.2777 15.05,2.07128 26.1156,-2.20252z"/>
  <path fill="#8C0000" d="M446.339 219.929c-8.3384,2.2028 -26.0634,4.30073 -35.2403,3.14646 6.47603,4.16892 24.5679,1.91367 35.2403,-3.14646z"/>
  <path fill="#8C0000" d="M458.61 228.109c-8.3384,2.2028 -31.0978,4.93002 -40.2747,3.77575 6.47603,4.16892 29.6022,1.28438 40.2747,-3.77575z"/>
  <path fill="#8C0000" d="M469.937 239.751c-8.3384,2.2028 -31.0978,4.93002 -40.2747,3.77575 6.47603,4.16892 29.6022,1.28438 40.2747,-3.77575z"/>
  <path fill="#8C0000" d="M483.467 253.281c-3.3874,-1.62255 -6.37569,-1.63106 -12.7069,-1.65969 -9.25371,-0.0416693 -18.3433,4.86199 -28.1971,1.34504 9.91333,4.62359 18.0088,1.36347 28.4672,0.613985 5.47852,-0.392315 5.30703,-1.39181 12.4367,-0.299339z"/>
  <path fill="#8C0000" d="M482.209 266.496c-10.4865,-3.87666 -13.5292,1.47005 -24.5424,-2.51717 7.5515,2.09764 12.5858,-3.98551 24.5424,2.51717z"/>
  <path fill="#8C0000" d="M471.196 285.375c-3.8795,3.36699 -7.86388,5.78665 -12.5858,1.57323 1.04882,12.9005 -10.698,15.4176 -15.4176,1.88787 2.32413,3.98721 -1.24838,7.23799 -5.66362,10.3833l6.92221 -3.14646c8.18079,5.97827 13.4249,4.40504 15.7323,-4.71969 6.19852,-0.413575 11.5537,-1.35354 11.0126,-5.97827z"/>
  <path fill="#8C0000" d="M444.136 81.1698c-22.9893,51.2266 -72.8745,73.6841 -88.7301,118.936 21.081,-44.7605 68.5925,-67.0468 88.7301,-118.936z"/>
  <path fill="#8C0000" d="M378.69 165.81c6.17811,-2.21244 13.1984,-3.58186 26.1156,0.943937 -10.4888,-2.15036 -19.9284,-2.46529 -27.0595,1.25858l0.943937 -2.20252z"/>
  <path fill="#8C0000" d="M422.741 158.258c-12.8744,-2.28076 -26.2468,-1.0749 -39.96,2.51717l2.83181 -3.14646c15.5225,-2.54325 28.3181,-2.70028 37.1282,0.629292z"/>
  <path fill="#8C0000" d="M439.731 150.392c-27.3354,-0.484725 -43.6714,-0.142866 -47.5115,1.88787l2.20252 -2.83181c14.3167,-1.65147 29.3142,-1.59902 45.309,0.943937z"/>
  <path fill="#8C0000" d="M445.08 142.526c-27.3354,-0.484725 -43.6714,-0.142866 -47.5115,1.88787l2.20252 -2.83181c14.3167,-1.65147 29.3142,-1.59902 45.309,0.943937z"/>
  <path fill="#8C0000" d="M462.386 125.22c-27.5559,3.74315 -45.6701,5.53777 -49.714,5.03433l2.20252 -2.83181c13.0184,0.944504 30.297,-2.30655 47.5115,-2.20252z"/>
  <path fill="#8C0000" d="M461.127 110.432c-28.0279,4.10995 -34.0804,7.89733 -37.7575,6.92221l1.25858 -2.51717c11.0256,-0.838489 18.8646,-4.08926 36.4989,-4.40504z"/>
  <polygon fill="#8C0000" points="452.003,96.9021 433.439,102.251 432.18,103.824 "/>
  <path fill="#8C0000" d="M395.996 106.971c3.30463,9.38693 5.29739,19.0361 4.40504,29.2621l1.88787 -1.57323c0,-10.9077 -2.09764,-20.1373 -6.29292,-27.6888z"/>
  <path fill="#8C0000" d="M407.008 94.0703c3.30463,9.38693 5.29739,19.0361 4.40504,29.2621l1.88787 -1.57323c0,-10.9077 -2.09764,-20.1373 -6.29292,-27.6888z"/>
  <path fill="#8C0000" d="M418.021 86.8335c3.30463,9.38693 3.72416,12.4285 2.83181,22.6545l1.88787 -1.57323c0,-10.9077 -0.52441,-13.5298 -4.71969,-21.0813z"/>
  <path fill="#8C0000" d="M382.781 107.285c4.06545,9.00681 10.6203,23.6118 8.81008,34.2964l1.88787 -1.57323c0,-10.9077 -6.50268,-25.1717 -10.698,-32.7232z"/>
  <path fill="#8C0000" d="M374.285 115.781c4.06545,9.00681 10.9349,22.3532 9.12473,33.0378l1.88787 -1.57323c0,-10.9077 -6.81733,-23.9131 -11.0126,-31.4646z"/>
  <path fill="#8C0000" d="M337.786 31.7704c-26.5555,39.7378 -86.7374,65.3276 -74.2564,93.1352 -7.58268,-25.6748 51.5109,-52.397 74.2564,-93.1352z"/>
  <path fill="#8C0000" d="M273.598 97.8461c5.70558,-2.68441 22.8997,-4.26331 36.1843,0.629292 -10.4888,-2.15036 -29.9971,-2.15065 -37.1282,1.57323l0.943937 -2.20252z"/>
  <path fill="#8C0000" d="M317.649 95.9582c-12.3392,-1.74586 -19.7215,-9.33676 -34.611,-6.92221l2.83181 -3.14646c17.623,-0.441638 24.2368,8.00703 31.7792,10.0687z"/>
  <path fill="#8C0000" d="M328.976 90.2946c-16.3712,-4.55698 -32.8462,-11.6813 -37.4429,-8.18079l3.14646 -4.0904c9.3087,-0.314646 22.5754,7.44577 34.2964,12.2712z"/>
  <path fill="#8C0000" d="M339.989 80.8552c-17.3455,-5.3623 -33.4196,-8.90051 -38.3868,-7.86615l2.20252 -2.83181c14.9876,0.362835 22.9303,5.67978 36.1843,10.698z"/>
  <path fill="#8C0000" d="M345.023 67.9547c-15.6407,-3.17934 -23.6923,-5.78977 -32.4085,-4.71969l2.20252 -2.83181c7.98407,-0.314079 17.3965,2.09849 30.206,7.5515z"/>
  <path fill="#8C0000" d="M356.98 55.0542c-18.9031,-3.44155 -27.4728,-4.68851 -33.9817,-3.4611l1.25858 -2.51717c11.0256,-0.838489 18.2353,1.25972 32.7232,5.97827z"/>
  <polygon fill="#8C0000" points="350.372,38.3777 333.066,39.0073 332.123,40.8949 "/>
  <path fill="#8C0000" d="M293.421 46.2441c3.87581,9.9584 4.63266,13.3373 3.4611,23.2838l1.88787 -1.57323c-0.805323,-10.9074 -1.33965,-14.1588 -5.34898,-21.7106z"/>
  <path fill="#8C0000" d="M306.636 28.3093c2.4069,9.95868 0.227622,17.1133 0.943937,27.0595l1.88787 -1.57323c-0.804756,-10.9072 1.17751,-17.9345 -2.83181,-25.4863z"/>
  <path fill="#8C0000" d="M320.795 23.5896c0.409323,8.70265 0.430866,13.1321 -0.314646,20.1373l1.88787 -1.57323c-1.33172,-7.54016 0.231874,-10.0613 -1.57323,-18.5641z"/>
  <path fill="#8C0000" d="M282.409 50.9638c3.81997,9.78152 1.69342,16.7539 2.51717,26.4302l1.88787 -1.57323c-1.71695,-9.08363 -0.564378,-16.9673 -4.40504,-24.857z"/>
  <path fill="#8C0000" d="M272.34 60.4032c3.41206,9.82319 3.36473,15.0783 4.40504,24.857l1.88787 -1.57323c-2.81821,-8.89285 -2.95427,-15.0605 -6.29292,-23.2838z"/>
  <path fill="#8C0000" d="M332.437 21.0725c0.40989,8.70237 -1.45701,7.78309 -2.20252,14.7884l1.88787 -1.57323c-1.33172,-7.54044 2.12003,-4.71232 0.314646,-13.2151z"/>
  <path fill="#8C0000" d="M192.417 96.2728c12.3392,-1.74586 17.519,-9.33676 32.4085,-6.92221l-2.83181 -3.14646c-17.623,-0.441638 -22.0343,8.00703 -29.5767,10.0687z"/>
  <path fill="#8C0000" d="M173.224 95.6435c16.3712,-4.55698 38.8245,-16.7156 43.4211,-13.2151l-3.14646 -4.0904c-9.3087,-0.314646 -28.5537,12.4801 -40.2747,17.3055z"/>
  <path fill="#8C0000" d="M160.638 88.7213c11.0526,-1.9012 34.9929,-16.7667 44.9944,-14.4737l-2.20252 -2.83181c-14.9876,0.362835 -31.1111,12.9166 -42.7918,17.3055z"/>
  <path fill="#8C0000" d="M145.849 73.933c11.865,7.20397 32.5023,-9.88016 47.1969,-8.18079l-2.20252 -2.83181c-13.9623,-1.25802 -27.7798,13.4257 -44.9944,11.0126z"/>
  <path fill="#8C0000" d="M146.164 61.6618c18.9031,-3.44155 28.4168,-5.94709 34.9257,-4.71969l-1.25858 -2.51717c-11.0256,-0.838489 -19.1792,2.5183 -33.6671,7.23685z"/>
  <polygon fill="#8C0000" points="146.793,44.6706 167.56,43.4123 168.504,45.2999 "/>
  <path fill="#8C0000" d="M210.666 23.9043c-1.74359,9.01418 -6.42643,31.2724 -6.92221,41.2186l-1.88787 -1.57323c0.176032,-10.2781 5.43005,-31.7789 8.81008,-39.6454z"/>
  <path fill="#8C0000" d="M195.878 18.87c-1.46296,9.01474 -4.00337,27.4966 -4.71969,37.4429l-1.88787 -1.57323c0.804756,-10.9072 3.54218,-28.0032 6.60756,-35.8696z"/>
  <path fill="#8C0000" d="M180.775 17.2967c-0.409323,8.70265 -1.68945,21.6275 -0.943937,28.6328l-1.88787 -1.57323c1.33172,-7.54016 1.02671,-18.5567 2.83181,-27.0595z"/>
  <path fill="#8C0000" d="M221.994 36.1755c-2.92847,9.7818 -6.57071,25.2499 -8.18079,34.9257l-2.20252 -1.88787c1.71695,-9.08363 6.54265,-25.1481 10.3833,-33.0378z"/>
  <path fill="#8C0000" d="M226.399 54.4249c-3.41206,9.82319 -3.36473,15.0783 -4.40504,24.857l-1.88787 -1.57323c2.81821,-8.89285 2.95427,-15.0605 6.29292,-23.2838z"/>
  <path fill="#8C0000" d="M165.672 20.4432c0.534048,2.40945 0.827717,7.46844 1.57323,14.4737l-1.88787 -1.57323c1.33172,-7.54044 -0.232158,-7.22948 0.314646,-12.9005z"/>
  <path fill="#8C0000" d="M240.875 106.027c-18.669,-32.3036 -59.0485,-46.3578 -86.213,-75.2004 22.1301,28.6328 62.5096,47.8262 86.213,75.2004z"/>
  <path fill="#8C0000" d="M229.863 46.8734l-1.07717 5.94482c8.14536,2.93726 -7.07159,32.1985 11.4605,50.0621 -19.8244,-13.2134 -5.55988,-44.2585 -13.2151,-49.3994l2.83181 -6.60756z"/>
  <path fill="#8C0000" d="M210.984 98.1607c-10.3833,1.78299 -15.7323,-0.839056 -23.5984,-1.25858 5.29597,4.09096 12.4274,5.55959 23.5984,1.25858z"/>
  <path fill="#8C0000" d="M221.053 30.1972c0.943937,2.41228 1.04882,5.2441 0.314646,8.49544 3.14646,0 5.87339,1.67811 8.18079,5.03433 -1.67301,-2.89673 -3.23915,-5.95503 -6.62344,-6.28328 0.428599,-6.10101 -0.616536,-7.0424 -1.872,-7.24649z"/>
  <path fill="#8C0000" d="M160.011 91.8678c5.34898,4.0904 10.2784,5.2441 14.7884,3.4611 0.839056,2.3074 3.35622,3.77575 7.5515,4.40504 -2.72693,1.46835 -5.45386,0.839056 -8.18079,-1.88787 -6.81733,0.52441 -11.537,-1.15398 -14.1591,-5.97827z"/>
  <path fill="#8C0000" d="M237.1 140.323c-12.1663,-17.4104 -29.1572,-15.9421 -34.9257,-1.57323l3.4611 0.314646c7.97131,-13.7917 18.4592,-11.7989 31.4646,1.25858z"/>
  <path fill="#8C0000" d="M262.271 129.311l-2.83181 -10.3833c-1.1537,5.13922 -0.209764,8.60032 2.83181,10.3833z"/>
  <path fill="#8C0000" d="M291.533 130.255c-5.97827,-1.78299 -11.9565,-1.88787 -17.9348,-0.314646 5.03377,-3.672 11.2218,-2.72778 17.9348,0.314646z"/>
  <path fill="#8C0000" d="M266.362 133.716c-2.41455,2.40747 -4.61849,5.23559 -5.34898,11.0126l0.629292 26.7449c1.46835,2.20252 2.93669,3.14646 4.40504,2.83181l-2.83181 -5.03433 -0.314646 -25.1717c0.734174,-4.71969 1.88787,-8.18079 3.4611,-10.3833z"/>
  <polygon fill="#8C0000" points="236.47,184.688 236.785,190.352 224.514,182.171 224.199,176.508 226.783,177.172 227.916,181.58 229.661,178.876 230.622,183.092 232.38,179.654 233.324,184.059 235.212,179.969 "/>
  <path fill="#8C0000" d="M271.396 248.247c-2.4429,-2.00806 -4.56945,-4.64797 -4.48583,-11.7111l-0.268441 -37.7371c0.850678,-8.16435 6.7354,-12.2386 14.5083,-17.8861l0 -1.25858 -0.943937 -0.943937c-7.52542,5.19166 -15.8633,11.0656 -15.7323,18.2495l0.629292 41.8479c1.25858,6.50268 3.35622,9.64914 6.29292,9.43937z"/>
  <path fill="#8C0000" d="M267.306 250.449c-3.61871,-2.09707 -6.45052,-5.76737 -7.5515,-12.9005l0.943937 -44.9944c0.364536,-3.35509 5.39972,-8.38942 18.8787,-17.6202l0.943937 2.51717c-7.34174,3.88063 -17.5153,11.2224 -18.2495,14.7884l-0.943937 45.6236c0.413575,6.30114 3.03817,9.65424 5.97827,12.5858z"/>
  <line fill="none" stroke="#8C0000" stroke-width="0.510236" x1="256.922" y1="235.976" x2="256.922" y2= "191.611" />
  <path fill="#8C0000" d="M195.881 267.755c10.0687,7.5515 5.03433,-7.23685 31.1499,7.5515l0 -3.77575c-28.9474,-14.4737 -19.8227,-2.20252 -31.1499,-3.77575z"/>
  <polygon fill="#8C0000" points="232.38,268.069 230.807,273.104 235.526,274.362 "/>
  <path fill="#8C0000" d="M204.062 261.777l21.7106 6.92221 2.83181 -0.629292c-6.08315,-4.92945 -17.2006,-5.45386 -19.1934,-9.12473 -0.943937,1.78299 -2.72693,2.72693 -5.34898,2.83181z"/>
  <path fill="#8C0000" d="M229.863 265.867c-2.19855,0.742111 -4.92718,-1.14917 -8.81008,-3.77575 4.50992,0.104882 6.81733,1.1537 8.81008,3.77575z"/>
  <path fill="#8C0000" d="M194.308 254.854c-22.9691,-7.02709 -37.4429,-37.9673 -51.9166,-18.2495 2.3074,-8.28567 7.13197,-11.1175 14.4737,-8.49544l1.88787 -2.20252 3.14646 0 -0.943937 3.4611c9.12501,0.250583 11.9568,15.8057 23.5984,14.7884 1.91424,4.01216 5.3229,7.52542 9.75402,10.698z"/>
  <line fill="none" stroke="#8C0000" stroke-width="0.708662" x1="173.226" y1="237.549" x2="178.261" y2= "241.954" />
  <path fill="#8C0000" d="M162.214 205.77c-1.88136,-4.86 -5.32744,-8.59975 -0.943937,-17.9348l-3.14646 -0.314646c5.29654,-3.14589 10.3306,-7.34089 14.7884,-13.8444 -4.30611,7.33692 -8.08668,15.0951 -8.18079,25.801l-2.51717 -5.34898c-0.176032,1.42384 -1.68038,4.27521 3.4611,10.0687l-3.4611 1.57323z"/>
  <path fill="#8C0000" d="M159.382 223.39l-3.19862 -0.548788c-12.3537,-19.582 -29.9577,-16.1935 -49.0326,-6.37342 -5.76851,14.0542 3.25134,28.1084 -1.25858,42.1625 -1.82863,-7.22353 -0.518457,-8.60741 -0.932882,-12.2462 -0.911623,-8.00589 -1.97773,-14.4332 -2.84287,-22.3648 -22.8643,10.0687 -41.6381,43.7358 -61.9852,59.4681l-1.88787 5.03433 -0.629292 -4.0904 -6.29292 -1.57323 8.49544 -1.25858c12.3956,-8.48807 28.3606,-37.0783 49.4983,-54.4816 16.8483,-13.8716 33.7136,-25.9135 56.4098,-20.4721 0.496914,3.71622 10.965,7.16741 13.6573,16.7443z"/>
  <path fill="#8C0000" d="M58.6953 209.231c13.2151,3.14646 22.3399,9.12473 34.9257,11.3272l1.88787 -2.83181c-12.2712,-1.25858 -25.1717,-9.75402 -36.8136,-8.49544z"/>
  <path fill="#8C0000" d="M40.4459 216.153c13.0337,3.69156 28.1203,12.2375 41.5332,11.9565l1.88787 -2.83181c-12.5858,0.629292 -31.7792,-10.3833 -43.4211,-9.12473z"/>
  <path fill="#8C0000" d="M30.6919 225.278c15.5509,2.43298 28.1203,12.2375 41.5332,11.9565l1.88787 -2.83181c-12.5853,2.08658 -26.43,-10.9191 -43.4211,-9.12473z"/>
  <path fill="#8C0000" d="M23.1404 239.437c24.0463,2.93443 29.0648,10.7461 42.4772,7.5515l1.88787 -2.83181c-12.5853,2.08658 -27.3739,-6.51402 -44.3651,-4.71969z"/>
  <path fill="#8C0000" d="M20.3085 253.91c24.1733,4.13178 25.687,6.82158 38.7014,2.83181l1.88787 -2.83181c-13.9249,5.12022 -27.7824,-2.67024 -40.5893,0z"/>
  <path fill="#8C0000" d="M26.2868 269.328c8.44215,-0.595559 12.6842,-0.113102 25.1717,-0.943937l1.88787 -2.83181c-13.3359,2.7669 -13.9847,0.036 -27.0595,3.77575z"/>
  <path fill="#8C0000" d="M105.892 255.169c-4.7727,-9.8589 -8.23408,-19.7184 -8.81008,-29.5767 -1.59931,8.99348 1.17921,18.0655 8.81008,29.5767z"/>
  <path fill="#8C0000" d="M101.173 270.901c-9.54652,-26.8543 -11.014,-37.552 -8.81008,-40.904l-3.77575 1.88787c1.96668,17.017 6.42359,29.5501 12.5858,39.0161z"/>
  <path fill="#8C0000" d="M89.8453 270.587c-6.03156,-16.1535 -8.75906,-29.9991 -4.71969,-35.2403l-4.40504 4.0904c0.52441,12.481 3.56599,22.8643 9.12473,31.1499z"/>
  <path fill="#8C0000" d="M82.2938 290.409c0.00623622,-14.7118 -9.17008,-30.5079 -6.60756,-44.9944l-3.4611 3.14646c0.393732,14.0465 5.79374,27.3628 10.0687,41.8479z"/>
  <path fill="#8C0000" d="M68.1347 293.556c0.58252,-15.0265 -4.92236,-17.2933 -3.4611,-34.9257l-3.4611 3.14646c0.393732,14.0465 3.27657,17.6088 6.92221,31.7792z"/>
  <path fill="#8C0000" d="M51.1438 294.185c-0.827433,-6.40432 4.62586,-20.9826 -1.25858,-19.8227l6.29292 -7.23685c-0.261921,13.2684 -2.25496,21.3438 -5.03433,27.0595z"/>
  <path fill="#8C0000" d="M106.522 258.315c0.26589,5.17351 -0.100347,9.82063 -4.88807,10.7816 1.02671,7.44208 -1.72205,11.5277 -8.24599,12.2567 -2.54977,8.66296 -6.35755,10.6124 -11.4236,5.84986 -1.31839,8.22813 -5.67808,10.0565 -13.7112,4.8566 -5.85128,8.695 -11.2827,8.58019 -16.2941,-0.34441 -4.57172,2.60589 -8.72391,2.27509 -12.4566,-0.991843 1.67811,4.82457 5.87339,5.87339 12.5858,3.14646 4.61481,8.28567 10.0687,8.60032 16.3616,0.943937 5.13922,4.61481 10.2784,3.77575 15.4176,-2.51717 6.08315,1.57323 10.0687,-1.46835 11.9565,-9.12473 4.98246,-1.20529 8.12863,-4.77099 7.23685,-13.5298 4.50992,-0.419528 5.66362,-4.19528 3.4611,-11.3272z"/>
  <line fill="none" stroke="#8C0000" stroke-width="0.708662" x1="103.375" y1="213.95" x2="106.522" y2= "212.377" />
  <path fill="none" stroke="#8C0000" stroke-width="0.708662" d="M158.753 217.097c-2.72693,-3.04158 -5.87339,-5.66362 -9.43937,-7.86615"/>
  <path fill="#8C0000" d="M132.322 134.66c6.81733,5.34898 -3.98551,22.6545 0.629292,36.8136 -7.44662,-12.9005 2.09764,-24.2277 -0.629292,-36.8136z"/>
  <path fill="#8C0000" d="M131.379 103.824c11.3272,7.02709 -17.9348,32.9329 -15.4176,44.9944 -6.60756,-13.6347 22.0252,-31.3597 15.4176,-44.9944z"/>
  <path fill="#8C0000" d="M133.266 117.983c11.3272,7.02709 -12.5858,31.6743 -11.3272,40.904 -5.34898,-10.1735 17.9348,-27.2693 11.3272,-40.904z"/>
  <path fill="#8C0000" d="M124.771 91.8678c11.7198,6.24076 -16.8599,34.8735 -14.7884,47.8262 -7.00073,-14.0278 20.9497,-34.6368 14.7884,-47.8262z"/>
  <path fill="#8C0000" d="M114.073 81.4845c11.3272,7.02709 -13.5298,34.5062 -10.698,47.5115 -6.92221,-14.8932 17.3055,-33.8769 10.698,-47.5115z"/>
  <path fill="#8C0000" d="M102.746 77.7087c4.30016,20.1373 -6.81733,27.6888 -7.86615,41.5332 -4.92945,-9.12473 8.7052,-19.508 7.86615,-41.5332z"/>
  <path fill="#8C0000" d="M88.9013 78.0234c5.06948,6.60756 -3.15893,22.6548 -2.20252,32.7232 -6.14551,-8.84211 1.91991,-8.22076 2.20252,-32.7232z"/>
  <path fill="#8C0000" d="M74.7423 75.5062c4.30384,4.98104 -0.414425,16.7803 2.20252,27.0595 -4.56236,-8.96741 -0.943937,-19.6654 -2.20252,-27.0595z"/>
  <path fill="#8C0000" d="M58.2234 82.4284c-1.87682,7.89109 14.1231,20.1433 29.5614,39.2344 11.2657,13.9309 21.2142,31.5522 29.2935,42.0897 12.9308,16.8659 23.6384,19.0579 28.6166,39.5l2.51717 -0.157323c-3.64167,-17.5635 -19.7376,-29.247 -30.799,-43.9538 -7.20085,-9.57374 -20.8179,-32.0145 -33.2586,-46.0471 -11.1019,-12.5221 -20.5427,-18.8422 -25.9311,-30.6658z"/>
  <path fill="#8C0000" d="M87.1708 169.428c12.1017,-0.995245 28.2804,-1.19112 37.4429,2.0452l-5.03433 -4.71969c-9.07257,0.145984 -23.1792,0.0997796 -32.4085,2.67449z"/>
  <path fill="#8C0000" d="M79.1473 170.372c11.3729,-4.58816 22.9757,-8.25903 34.7684,-11.1699l2.20252 2.83181c-10.8524,1.30876 -23.9788,4.89033 -36.9709,8.33811z"/>
  <path fill="#8C0000" d="M69.3933 165.338c7.63144,-5.08649 25.45,-10.9599 39.8027,-13.5298l2.20252 2.83181c-10.8524,1.30876 -28.6985,7.56482 -42.0052,10.698z"/>
  <path fill="#8C0000" d="M61.6845 155.898c7.63144,-5.08649 26.8659,-14.421 41.2186,-13.5298l2.35984 3.30378c-18.4039,-0.893764 -30.2718,7.09285 -43.5784,10.226z"/>
  <path fill="#8C0000" d="M48.4693 143.47c11.7516,-5.08592 40.1443,-11.7462 47.6688,-10.8553l2.35984 3.30378c-17.0277,0.253701 -35.5816,5.36939 -50.0287,7.5515z"/>
  <path fill="#8C0000" d="M43.907 128.839c13.1465,-1.22797 37.1313,-8.6624 44.5224,-7.23685l2.35984 3.30378c-15.1399,-0.532914 -33.2218,6.47065 -46.8822,3.93307z"/>
  <path fill="#8C0000" d="M42.8057 114.365c13.1465,-1.22797 30.2091,-3.62806 37.6002,-2.20252l2.35984 3.30378c-15.4188,-1.64381 -26.4458,0.85493 -39.96,-1.10126z"/>
  <path fill="#8C0000" d="M47.8401 99.4193c11.416,0.817229 17.9379,-0.166961 24.5424,3.77575l2.35984 3.30378c-8.96854,-4.3183 -18.1077,-3.70743 -26.9022,-7.07953z"/>
  <line fill="none" stroke="#8C0000" stroke-width="0.992126" x1="143.964" y1="187.677" x2="145.538" y2= "189.723" />
  <path fill="#8C0000" d="M171.181 388.264l-1.41591 -1.73055c17.9793,-8.62413 21.1896,-25.5943 33.1665,-37.264 11.4735,-11.179 24.9628,-16.3718 33.6957,-10.5622l-0.157323 2.35984c1.57323,-0.157039 2.72693,0.524693 3.4611,2.0452l-0.471969 2.0452c-10.5307,-6.08372 -23.0256,-1.51654 -32.4227,6.82129 -12.8772,11.4262 -22.4249,29.7975 -35.8555,36.2852z"/>
  <path fill="none" stroke="#8C0000" stroke-width="0.992126" d="M203.747 345.787c3.32334,-2.68753 6.7972,-5.07317 10.5406,-6.92221"/>
  <path fill="#8C0000" d="M50.6719 377.252l1.25858 2.83181c14.3189,-5.77248 41.243,-25.0226 52.0815,-25.6561 15.5883,-0.911339 36.3807,6.79238 56.6567,7.73859 11.1575,0.520725 19.7518,-3.35084 29.0767,-4.8943 0.826583,-2.68923 -0.816095,-4.69162 -5.03433,-6.13559 -5.48589,4.42375 -14.7127,7.9217 -24.1214,7.84432 -20.6445,-0.169795 -45.1007,-11.4004 -63.6676,-7.37972 -8.54845,1.85102 -14.1874,8.11786 -21.653,12.8818 -7.46504,4.76391 -12.2754,4.42262 -24.5971,12.7692z"/>
  <ellipse fill="#8C0000" cx="191.476" cy="350.585" rx="2.0452" ry="1.96639"/>
  <path fill="none" stroke="#8C0000" stroke-width="0.992126" d="M80.2486 359.474c29.3145,-25.5388 72.3161,8.86252 101.631,-6.76489"/>
  <path fill="#8C0000" d="M50.3572 374.577l-2.0452 2.20252 0.157323 2.35984c3.51326,-3.46139 8.18051,-6.92221 13.3724,-10.3833l-11.4846 5.82095z"/>
  <path fill="#8C0000" d="M77.7314 355.226c4.16381,-4.97594 -17.7438,-6.45704 -54.2764,-5.97827 1.85528,3.41915 6.94914,1.66082 14.1761,2.82699 3.16715,0.510803 6.93893,2.17843 10.4054,2.42362 11.3794,0.805607 18.9445,-1.55339 25.2899,2.30088l2.0452 0.157323c1.3218,-2.54438 -9.1698,-4.43197 -22.9691,-6.13559 12.2981,0.300756 21.8424,1.16561 25.329,4.40504z"/>
  <line fill="none" stroke="#8C0000" stroke-width="0.992126" x1="226.244" y1="333.201" x2="229.548" y2= "333.201" />
  <line fill="none" stroke="#8C0000" stroke-width="0.992126" x1="237.1" y1="336.82" x2="238.673" y2= "338.235" />
  <path fill="#8C0000" d="M304.591 357.272c-5.12022,-11.8613 -24.6937,-17.475 -33.4891,-18.2381 -8.90051,-0.772158 -14.1582,10.8697 -15.4383,26.2616l3.4611 0.471969c3.5263,-17.1955 2.77342,-21.0096 11.6544,-21.9495 9.3155,-0.98589 23.6251,2.99736 33.812,13.4541z"/>
  <line fill="none" stroke="#8C0000" stroke-width="0.992126" x1="247.168" y1="366.082" x2="256.608" y2= "365.61" />
  <path fill="none" stroke="#8C0000" stroke-width="0.992126" d="M268.407 336.19c7.9183,1.20586 15.4174,3.46082 22.4972,6.76489"/>
  <path fill="none" stroke="#8C0000" stroke-width="0.992126" d="M259.125 337.134c0.419528,-1.20586 1.25858,-1.99247 2.51717,-2.35984"/>
  <line fill="none" stroke="#8C0000" stroke-width="0.992126" x1="263.844" y1="334.302" x2="264.946" y2= "334.145" />
  <line fill="none" stroke="#8C0000" stroke-width="0.992126" x1="270.137" y1="333.83" x2="272.654" y2= "334.145" />
  <line fill="none" stroke="#8C0000" stroke-width="0.992126" x1="280.049" y1="260.361" x2="274.385" y2= "262.406" />
  <line fill="none" stroke="#8C0000" stroke-width="0.992126" x1="269.98" y1="263.507" x2="267.463" y2= "264.608" />
  <path fill="#8C0000" d="M259.282 279.711l2.67449 -9.5967c-2.1498,2.56932 -3.04129,5.76822 -2.67449,9.5967z"/>
  <polygon fill="#8C0000" points="259.754,284.116 259.282,304.568 260.855,304.411 "/>
  <line fill="none" stroke="#8C0000" stroke-width="0.992126" x1="255.349" y1="270.429" x2="255.506" y2= "272.474" />
  <polygon fill="#8C0000" points="254.562,279.082 254.405,281.442 255.821,282.858 255.821,279.082 "/>
  <line fill="none" stroke="#8C0000" stroke-width="0.992126" x1="255.034" y1="288.836" x2="254.877" y2= "291.353" />
  <line fill="none" stroke="#8C0000" stroke-width="0.992126" x1="255.349" y1="298.747" x2="255.506" y2= "302.209" />
  <line fill="none" stroke="#8C0000" stroke-width="0.992126" x1="255.821" y1="306.614" x2="255.664" y2= "308.344" />
  <line fill="none" stroke="#8C0000" stroke-width="0.992126" x1="255.506" y1="314.952" x2="256.136" y2= "318.413" />
  <line fill="none" stroke="#8C0000" stroke-width="0.992126" x1="271.553" y1="324.234" x2="273.756" y2= "326.436" />
  <line fill="none" stroke="#8C0000" stroke-width="0.992126" x1="306.951" y1="359.474" x2="308.839" y2= "362.149" />
  <path fill="#8C0000" d="M453.89 376.937l-0.47367 1.5857c-15.7246,-2.4361 -39.4583,-26.3412 -55.0409,-26.1876 -19.2268,0.189638 -28.5781,6.22999 -43.225,8.43421 -12.3165,1.85329 -35.6091,-4.08218 -37.3227,-1.0389 0.0909922,8.92177 4.08246,18.3019 11.3051,28.0619 -7.60366,-7.44633 -12.4807,-16.9379 -13.3724,-29.4194 1.68747,-4.80983 22.8572,3.34205 41.8864,-1.12025 10.3221,-2.42022 28.0704,-8.48948 39.9079,-8.02772 15.548,0.606331 37.1597,20.175 56.3352,27.7121z"/>
  <line fill="none" stroke="#8C0000" stroke-width="0.992126" x1="441.619" y1="353.024" x2="454.992" y2= "352.08" />
  <polygon fill="#8C0000" points="459.082,350.979 473.713,350.664 462.229,352.709 "/>
  <path fill="#8C0000" d="M48.312 144.663c-2.93669,-0.629292 -5.45386,-1.67811 -7.5515,-3.14646 2.51717,2.72693 5.03433,3.77575 7.5515,3.14646z"/>
  <path fill="#8C0000" d="M47.9974 152.844c4.19953,3.68136 8.083,6.51912 9.75402,3.4611l0.314646 3.14646c-3.77575,0.314646 -7.13197,-1.88787 -10.0687,-6.60756z"/>
  <path fill="#8C0000" d="M88.5867 169.205c-6.31588,1.34362 -11.7921,0.170079 -16.429,-3.52063 -4.69984,-0.71178 -9.18908,-1.63474 -12.2037,-4.03087 -1.67811,2.83181 2.09764,4.40504 11.3272,4.71969 3.67087,7.34174 8.60032,8.07591 17.3055,2.83181z"/>
 </g>
</svg>
