<?xml version="1.0" encoding="UTF-8" standalone="no"?>
<!-- Created with Inkscape (http://www.inkscape.org/) -->
<svg
   xmlns:dc="http://purl.org/dc/elements/1.1/"
   xmlns:cc="http://creativecommons.org/ns#"
   xmlns:rdf="http://www.w3.org/1999/02/22-rdf-syntax-ns#"
   xmlns:svg="http://www.w3.org/2000/svg"
   xmlns="http://www.w3.org/2000/svg"
   xmlns:sodipodi="http://sodipodi.sourceforge.net/DTD/sodipodi-0.dtd"
   xmlns:inkscape="http://www.inkscape.org/namespaces/inkscape"
   width="500"
   height="505"
   id="svg6738"
   sodipodi:version="0.32"
   inkscape:version="0.46"
   sodipodi:docbase=""
   sodipodi:docname="Lestijärvi.vaakuna.svg"
   version="1.0"
   inkscape:output_extension="org.inkscape.output.svg.inkscape">
  <defs
     id="defs6740">
    <inkscape:perspective
       sodipodi:type="inkscape:persp3d"
       inkscape:vp_x="0 : 252.5 : 1"
       inkscape:vp_y="0 : 1000 : 0"
       inkscape:vp_z="500 : 252.5 : 1"
       inkscape:persp3d-origin="250 : 168.33333 : 1"
       id="perspective9" />
  </defs>
  <sodipodi:namedview
     id="base"
     pagecolor="#ffffff"
     bordercolor="#666666"
     borderopacity="1.0"
     inkscape:pageopacity="0.0"
     inkscape:pageshadow="2"
     inkscape:zoom="1"
     inkscape:cx="365.09626"
     inkscape:cy="243.79459"
     inkscape:document-units="px"
     inkscape:current-layer="layer1"
     inkscape:window-width="1012"
     inkscape:window-height="736"
     inkscape:window-x="0"
     inkscape:window-y="0"
     showgrid="false" />
  <metadata
     id="metadata6743">
    <rdf:RDF>
      <cc:Work
         rdf:about="">
        <dc:format>image/svg+xml</dc:format>
        <dc:type
           rdf:resource="http://purl.org/dc/dcmitype/StillImage" />
      </cc:Work>
    </rdf:RDF>
  </metadata>
  <g
     inkscape:label="Layer 1"
     inkscape:groupmode="layer"
     id="layer1">
    <path
       style="fill:#cccccc;fill-opacity:1;fill-rule:evenodd;stroke:rgb(0, 0, 0);stroke-width:0.50000000000000000;stroke-linecap:butt;stroke-linejoin:miter;stroke-opacity:1;stroke-miterlimit:4;stroke-dasharray:none"
       d="M 0.5,0.5 L 499.5,0.5 L 470,328 C 465,375 400,504.5 250,504.5 C 100,504.5 35,375 30,328 L 0.5,0.5 z "
       id="path6809"
       sodipodi:nodetypes="cccccc" />
    <path
       style="fill:rgb(0, 139, 208);fill-opacity:1;fill-rule:evenodd;stroke:rgb(0, 0, 0);stroke-width:0.5;stroke-linecap:butt;stroke-linejoin:miter;stroke-opacity:1;stroke-miterlimit:4;stroke-dasharray:none"
       d="M 250,45 C 284,45 310,54 336,71 C 310,94 289.33333,115 279,169 C 301,114 340,76 372,76 C 413,77 459,114 459,161 C 459,213 422,240 402,240 C 378,240 347,223 354,195 C 371,204 382,196 382,185 C 381.5,177 373,171 364,171 C 309,171 285,357 376,440 C 341,448 310,442 286,417 C 285,441 270,470 250,483 C 230,470 215,441 214,417 C 190,442 159,448 124,440 C 215,357 191,171 136,171 C 127,171 118.5,177 118,185 C 118,196 129,204 146,195 C 153,223 122,240 98,240 C 78,240 41,213 41,161 C 41,114 87,77 128,76 C 160,76 199,114 221,169 C 210.66667,115 190,94 164,71 C 190,54 216,45 250,45 z "
       id="path7721"
       sodipodi:nodetypes="ccccssccscccccccccccccc" />
  </g>
</svg>
