<?xml version="1.0" encoding="UTF-8" standalone="no"?>
<!-- Creator: CorelDRAW -->

<svg
   xmlns:dc="http://purl.org/dc/elements/1.1/"
   xmlns:cc="http://creativecommons.org/ns#"
   xmlns:rdf="http://www.w3.org/1999/02/22-rdf-syntax-ns#"
   xmlns:svg="http://www.w3.org/2000/svg"
   xmlns="http://www.w3.org/2000/svg"
   xmlns:sodipodi="http://sodipodi.sourceforge.net/DTD/sodipodi-0.dtd"
   xmlns:inkscape="http://www.inkscape.org/namespaces/inkscape"
   xml:space="preserve"
   width="500"
   height="533.12305"
   style="fill-rule:evenodd"
   viewBox="0 0 500 570.44165"
   version="1.0"
   id="svg2"
   inkscape:version="0.47 r22583"
   sodipodi:docname="Lieksa.vaakuna.svg"><metadata
   id="metadata116"><rdf:RDF><cc:Work
       rdf:about=""><dc:format>image/svg+xml</dc:format><dc:type
         rdf:resource="http://purl.org/dc/dcmitype/StillImage" /></cc:Work></rdf:RDF></metadata><sodipodi:namedview
   pagecolor="#ffffff"
   bordercolor="#666666"
   borderopacity="1"
   objecttolerance="10"
   gridtolerance="10"
   guidetolerance="10"
   inkscape:pageopacity="0"
   inkscape:pageshadow="2"
   inkscape:window-width="1280"
   inkscape:window-height="738"
   id="namedview114"
   showgrid="false"
   inkscape:zoom="0.63572267"
   inkscape:cx="-105.72033"
   inkscape:cy="288.86047"
   inkscape:window-x="-8"
   inkscape:window-y="-8"
   inkscape:window-maximized="1"
   inkscape:current-layer="svg2" />
 <defs
   id="defs4"><inkscape:perspective
   sodipodi:type="inkscape:persp3d"
   inkscape:vp_x="0 : 1050 : 1"
   inkscape:vp_y="0 : 1000 : 0"
   inkscape:vp_z="2100 : 1050 : 1"
   inkscape:persp3d-origin="1050 : 700 : 1"
   id="perspective118" />
  <style
   type="text/css"
   id="style6">
   
    .str1 {stroke:#1F1A17;stroke-width:0.9072}
    .str0 {stroke:#F00000;stroke-width:0.9072}
    .str2 {stroke:#1F1A17;stroke-width:4.16693}
    .fil1 {fill:#1F1A17}
    .fil3 {fill:#C2C1C1}
    .fil0 {fill:#F00000}
    .fil2 {fill:white}
    .fil4 {fill:url(#id0)}
   
  </style>
  <linearGradient
   id="id0"
   gradientUnits="userSpaceOnUse"
   x1="944.68402"
   y1="1728.9399"
   x2="919.69598"
   y2="1754.92">
   <stop
   offset="0"
   style="stop-color:#C2C1C1"
   id="stop9" />
   <stop
   offset="1"
   style="stop-color:#72706F"
   id="stop11" />
  </linearGradient>
 </defs>
 <g
   id="Layer_x0020_1"
   transform="matrix(0.2550282,0,0,0.2550282,-17.665774,-0.31090259)">
  <metadata
   id="CorelCorpID_0Corel-Layer" />
  <path
   id="path1937"
   class="fil0 str0"
   d="M 1.10364,1.67868 2098.0036,2.391821 2027.055,1387.8218 c -135.632,1134.39 -1842.49996,1131.97 -1969.50996,-1.3191 L 1.10454,1.672691 z"
   style="fill:#f00000;stroke:#f00000;stroke-width:0.90719998" />
  <polygon
   class="fil1"
   points="325.633,904.361 308.911,927.883 205.502,927.907 288.443,1009.54 87.8949,907.08 269.206,836.026 203.936,904.768 "
   id="polygon16"
   style="fill:#1f1a17" />
  <polygon
   class="fil2"
   points="333.402,890.466 315.456,913.988 203.471,914.012 254.925,983.841 85.8638,893.185 286.855,826.067 201.904,890.873 "
   id="polygon18"
   style="fill:#ffffff" />
  <polygon
   class="fil3"
   points="337.077,899.042 320.356,922.563 216.947,922.587 268.4,992.417 87.5317,893.889 280.651,830.706 215.38,899.449 "
   id="polygon20"
   style="fill:#c2c1c1" />
  <path
   class="fil1"
   d="M 434.478,741.483 C 261.81,597.604 391.0633,422.177 542.95,319.65 661.084,239.9068 797.752,215.633 771.101,70.14 l 61.1956,-29.4019 c 20.3572,162.209 -153.603,251.145 -279.942,346.684 -121.572,91.9356 -188.71,198.07 -43.0444,330.453 l -15.1045,457.075 c -287.496,321.592 436.923,469.223 254.785,729.561 l -49.8972,-34.3022 c 118.228,-112.324 -233.641,-264.214 -328.684,-452.466 -42.1467,-83.4815 -59.7038,-158.24 60.0919,-282.243 l 3.97525,-394.018 z"
   id="path22"
   style="fill:#1f1a17" />
  <path
   class="fil2"
   d="M 389.118,741.483 C 216.45,597.604 345.7045,422.177 497.59,319.65 615.724,239.908 756.328,215.633 729.677,70.14 l 84.8113,-29.4019 c 20.3572,162.209 -181.156,251.145 -307.493,346.684 -121.572,91.9344 -188.71,198.07 -43.0444,330.453 l -15.1045,457.075 c -287.496,321.592 464.475,465.287 282.337,725.625 l -74.9988,-32.8164 c 118.228,-112.324 -236.092,-261.764 -331.134,-450.015 -42.1467,-83.4803 -59.7038,-158.24 60.0919,-282.243 l 3.97525,-394.018 z"
   id="path24"
   style="fill:#ffffff" />
  <path
   class="fil3"
   d="M 419.358,741.483 C 246.69,597.604 375.9433,422.177 527.83,319.65 645.964,239.9068 782.632,215.633 755.981,70.14 l 61.1956,-29.4019 c 20.3572,162.209 -153.603,251.145 -279.942,346.684 -121.572,91.9356 -188.71,198.07 -43.0444,330.453 l -15.1045,457.075 c -287.496,321.592 436.923,469.223 254.785,729.561 l -49.8972,-34.3022 c 118.228,-112.324 -233.641,-264.214 -328.684,-452.466 -42.1467,-83.4815 -59.7038,-158.24 60.0919,-282.243 l 3.97525,-394.018 z"
   id="path26"
   style="fill:#c2c1c1" />
  <path
   class="fil2"
   d="m 673.395,1792.55 c -9.83753,-2.0287 -23.3503,-16.307 -22.1633,-41.611 L 1313.8037,975.28 703.7247,171.99 c 2.96209,-21.0335 4.69673,-28.5899 27.2601,-36.1463 l 622.491,838.162 -680.08,818.545 z"
   id="path28"
   style="fill:#ffffff" />
  <path
   class="fil1"
   d="m 699.96,1791.33 c -9.83753,-2.0287 -19.6751,-15.0819 -18.4881,-40.3859 l 662.572,-775.659 -606.404,-799.615 c 2.96209,-21.0335 -0.20358,-31.0401 22.3598,-38.5965 l 623.716,836.936 -683.755,817.32 z"
   id="path30"
   style="fill:#1f1a17" />
  <path
   class="fil3"
   d="m 687.29,1790.1 c -9.83753,-2.0287 -22.1252,-15.0819 -20.9382,-40.3859 l 662.572,-774.434 -610.079,-804.515 c 2.96209,-21.0335 4.69673,-26.1398 27.2601,-33.6962 l 622.491,836.936 -681.305,816.095 z"
   id="path32"
   style="fill:#c2c1c1" />
  <path
   id="path1937_0"
   class="fil3 str1"
   d="m 1610.43,637.895 c -4.6622,25.6838 -0.5096,57.9977 2.1704,99.7004 81.7266,-6.02895 194.335,25.6754 222.567,146.019 35.4046,50.0984 90.2545,81.2433 105.954,144.122 88.8366,44.3088 39.4096,215.001 26.9065,273.477 -19.2977,90.2438 -194.3,10.4542 -241.432,-25.61 -22.3538,114.968 -5.592,238.797 -73.9118,303.02 7.9945,14.9914 2.793,37.5964 8.9232,57.2894 45.3588,54.894 51.7378,265.872 36.2285,375.305 -194.784,160.303 -450.318,235.411 -701.83303,225.452 54.90113,-249.403 57.93583,-463.04 128.08003,-533.02 -41.7598,-310.14 16.6463,-391.099 15.776,-601.797 -60.9408,60.1407 -313.65903,73.8011 -438.44603,-23.9253 -9.15891,-72.9427 -3.70143,-146.201 19.8132,-206.075 119.093,11.7734 184.716,5.86466 204.669,34.0403 8.09694,-36.7166 94.39053,-34.5855 176.07303,-69.2496 52.3628,-22.2216 101.39,-61.6158 131.463,-79.2753 0.5036,-41.455 67.6948,-91.6213 66.6257,-101.167 103.458,-6.10158 111.359,-26.9065 310.373,-18.3071 z"
   style="fill:#c2c1c1;stroke:#1f1a17;stroke-width:0.90719998" />
  <path
   id="path1937_1"
   class="fil2"
   d="m 996,2236.67 c 54.9011,-249.403 57.9358,-463.04 128.08,-533.02 -41.7598,-310.14 16.6463,-391.099 15.776,-601.797 -9.3125,8.9577 14.7236,92.9452 24.523,224.446 13.8902,-73.288 18.9762,-99.6909 38.7763,-175.586 -1.8192,230.441 -36.3511,222.678 -45.4124,345.731 -7.9934,108.576 7.2957,194.439 4.1324,230.905 -11.6948,134.747 -7.9505,81.0837 -34.8713,161.794 -16.0296,27.3184 24.9147,-89.0128 4.0836,-138.416 -15.6522,3.8395 -36.5833,128.636 -66.4756,245.576 -26.9815,105.561 -39.187,218.744 -68.6115,240.365 z"
   style="fill:#ffffff" />
  <path
   id="path1937_2"
   class="fil3"
   d="m 1672.19,2031.56 c -23.311,17.8309 -47.4113,34.5046 -72.1963,50.0187 -155.84,-170.763 -310.02,-343.617 -492.522,-481.051 -64.9553,-1.4298 -76.9942,103.641 -82.8815,223.578 -76.1727,6.0813 -186.649,-123.819 -184.419,-147.137 83.0005,-53.0569 152.653,-120.056 196.689,-234.068 2.0335,-5.2658 13.6175,-12.9282 18.0071,-10.1066 96.755,62.1909 459.337,469.348 617.323,598.765 z"
   style="fill:#c2c1c1" />
  <path
   id="path1937_3"
   class="fil1 str1"
   d="m 1243.85,1222.73 c -14.0378,-60.5086 -17.6642,-102.842 -103.994,-120.871 -60.9408,60.1407 -313.659,73.8011 -438.446,-23.9253 147.65,64.266 411.6,71.8617 435.115,11.9877 35.6118,16.5844 142.329,-36.4999 203.106,24.8182 -119.624,-36.1594 -98.1038,25.1599 -95.7811,107.99 z"
   style="fill:#1f1a17;stroke:#1f1a17;stroke-width:0.90719998" />
  <path
   id="path1937_4"
   class="fil2"
   d="m 1672.19,2031.56 c -39.7811,25.885 -417.915,-416.399 -622.361,-573.508 -66.1959,142.297 -175.017,221.22 -209.657,218.917 83.0005,-53.0569 152.653,-120.056 196.689,-234.068 2.0335,-5.2658 13.6175,-12.9282 18.0071,-10.1066 96.755,62.1909 459.337,469.348 617.323,598.765 z"
   style="fill:#ffffff" />
  <path
   class="fil3 str1"
   d="m 1209.76,647.07 c 39.387,13.8652 221.514,8.82318 348.815,-11.3436 -8.3458,-32.9426 -9.5232,-63.8374 -0.2191,-91.7403 l 31.7984,4.71578 25.2373,-17.5083 c 11.94,-13.9961 0.2489,-67.6948 -6.7159,-83.5815 l -409.314,-90.7486 c -14.8248,4.40147 0.9477,39.3882 -42.6087,50.9759 -0.056,9.74824 24.8968,11.6531 40.9978,9.00771 -8.8148,30.3055 -27.9625,67.1555 -40.8383,83.7136 0.9108,31.9163 25.4528,17.513 34.8701,31.4687 0.1191,6.83496 -2.9001,14.6057 -3.1573,22.7884 -0.4548,14.4057 21.0859,23.4324 18.806,37.3857 -3.1966,19.5667 -27.5077,32.433 2.3287,54.8666 z"
   id="path39"
   style="fill:#c2c1c1;stroke:#1f1a17;stroke-width:0.90719998" />
  <path
   id="path1937_5"
   class="fil1"
   d="m 1599.99,2081.58 c -155.84,-170.763 -310.02,-343.617 -492.522,-481.051 75.931,33.3747 463.023,392.053 492.522,481.051 z"
   style="fill:#1f1a17" />
  <path
   class="fil3"
   d="m 1114.93,1614.76 c 98.8718,111.261 359.354,-0.084 542.709,-40.4276 l 2.4502,61.2539 c -78.9372,-8.6327 -297.309,163.248 -536.584,73.5047 l -8.5756,-94.331 z"
   id="path42"
   style="fill:#c2c1c1" />
  <path
   id="path1937_6"
   class="fil4"
   d="m 1026.44,1790.84 c -0.6977,10.9102 -1.3048,22.0216 -1.8561,33.2664 -76.17267,6.0813 -186.64897,-123.819 -184.41897,-147.137 11.671,-7.4612 23.08,-15.1974 34.1903,-23.3039 39.2251,62.9302 90.6165,107.609 152.08497,137.174 z"
   style="fill:url(#id0)" />
  <path
   class="fil1"
   d="m 1660.09,1635.58 c -78.9372,-8.6327 -297.309,163.248 -536.584,73.5047 18.7667,14.2557 47.0125,26.2517 71.4474,32.0235 4.0824,0.9643 -28.5209,93.7048 -14.5128,154.491 0.5322,-76.4227 35.4284,-150.494 39.7501,-149.935 9.3399,1.2108 18.9143,1.9608 28.6732,2.2954 3.4502,63.7374 12.0889,34.4034 13.3068,67.8567 1.6799,46.1577 -12.6103,46.2267 -5.1896,98.9206 -7.2802,-45.3112 12.0127,-51.464 12.977,-97.5848 0.7488,-35.8713 -19.2929,-11.4091 -9.7006,-67.7662 101.415,-0.4536 228.699,-45.1064 316.661,-79.8813 2.9013,-1.1465 5.7527,50.3996 17.1308,78.6859 -6.9981,-32.9676 -7.9196,-83.0696 -5.2147,-84.1518 9.8792,-3.9538 19.1095,-7.6862 27.716,-11.1638 9.4542,-6.3659 30.7139,87.127 27.0291,90.5986 4.8896,-5.1087 -13.1258,-100.247 -14.845,-95.5192 6.604,-2.6597 9.1173,-2.6895 14.9033,-4.9706 2.2502,-0.8869 31.6711,16.001 50.0187,91.6677 -6.7433,-61.4087 -23.9491,-91.5772 -33.5664,-99.0718 z"
   id="path45"
   style="fill:#1f1a17" />
  <path
   id="path1937_7"
   class="fil1"
   d="m 1110.14,1477.77 c 47.9185,43.3944 113.266,109.253 183.908,181.519 65.9185,-8.9375 64.1267,-9.1137 103.295,-15.2795 -66.6185,-0.4738 -75.9191,-5.8028 -89.8879,-10.509 -37.8715,-12.7615 -116.71,-110.263 -197.315,-155.73 z"
   style="fill:#1f1a17" />
  <path
   class="fil2"
   d="m 1162.39,1644.03 c 12.4591,44.2719 152.617,29.3626 284.395,-13.3473 76.6108,-24.8301 164.897,-37.1964 183.724,-47.1839 8.6696,-9.6637 -135.025,27.928 -177.686,38.3393 -42.661,10.4102 -248.688,70.0306 -290.433,22.1919 z"
   id="path48"
   style="fill:#ffffff" />
  <path
   class="fil2"
   d="m 1114.93,1614.76 c 9.7852,-6.6671 49.8353,30.927 55.6773,37.706 3.505,4.0681 -38.1024,-22.405 -37.7857,-11.6734 0.3024,10.2518 44.3052,23.2396 44.1314,26.0314 -0.1941,3.1073 -37.7941,-2.1966 -37.9012,5.0491 -0.1393,9.3173 41.8277,9.3959 41.7967,11.2995 -0.1857,11.4174 -41.9134,3.3217 -42.2479,10.3054 -0.2679,5.6123 33.2771,8.7565 30.7615,13.2223 -4.4729,7.9434 -12.7163,-2.7132 -45.8565,2.3907 l -8.5755,-94.331 z"
   id="path50"
   style="fill:#ffffff" />
  <path
   class="fil1"
   d="m 1657.64,1574.33 2.4502,61.2539 c -20.7727,-13.9021 -32.4294,-3.599 -35.0725,-8.7387 -2.6419,-5.1396 21.3514,-12.8008 21.3514,-14.4462 0,-9.3613 -25.4826,3.3479 -25.5814,-1.1453 -0.2001,-8.9862 25.9016,-15.5355 24.5373,-19.0595 -1.9585,-5.0562 -22.5395,8.8577 -22.9598,5.4801 -1.4454,-11.5853 14.8081,-20.0572 35.2749,-23.3443 z"
   id="path52"
   style="fill:#1f1a17" />
  <path
   id="path1937_8"
   class="fil2"
   d="m 1610.43,637.895 c -40.2954,13.1699 -191.26,-2.20728 -299.946,38.1727 -25.979,8.60055 -48.6721,50.5092 -59.3931,69.8247 21.3645,4.77292 36.1023,5.88252 48.459,7.46595 -20.6585,11.921 -32.1044,-9.36607 -59.5359,17.2261 -75.1107,41.705 -111.596,99.0432 -298.798,142.077 -25.2778,9.47322 -12.4246,29.8221 11.1888,47.6864 -57.4667,0.19406 -27.8589,-52.8736 -55.2892,-54.8321 -64.6267,-9.58751 -134.212,-10.9924 -177.421,-21.4764 l 1.53105,-12.1853 c 119.093,11.7734 184.716,5.86466 204.669,34.0403 8.09694,-36.7166 94.39045,-34.5855 176.07295,-69.2496 52.3629,-22.2216 101.3901,-61.6158 131.463,-79.2753 0.5037,-41.455 67.6948,-91.6213 66.6257,-101.167 103.4581,-6.10158 111.359,-26.9065 310.373,-18.3071 z"
   style="fill:#ffffff" />
  <path
   id="path1937_9"
   class="fil2"
   d="m 1612.6,737.596 c 81.7266,-6.02895 194.335,25.6754 222.567,146.019 35.4046,50.0984 90.2545,81.2433 105.954,144.122 29.1483,14.5378 43.4111,42.686 48.9781,76.0096 -9.6387,-10.4054 -15.2807,-31.6246 -37.1809,-40.3585 -9.9375,6.6992 -3.3764,35.488 -13.2116,32.7259 -37.4905,-58.3489 -9.5173,-100.519 -81.8683,-152.316 -13.4723,-9.64466 -23.486,-36.3678 -37.2988,-48.0292 -27.3184,-23.0598 -20.5573,-66.8578 -63.3897,-99.1194 -47.2149,-35.5618 -76.0429,-42.7372 -144.55,-59.0537 z"
   style="fill:#ffffff" />
  <path
   id="path1937_10"
   class="fil1"
   d="m 1657.64,1574.33 c 68.3198,-64.2231 46.6006,-183.757 68.9544,-298.725 47.1316,36.0642 222.134,115.854 241.432,25.61 7.2278,-33.8045 26.7957,-105.117 24.8563,-167.833 -12.7639,274.594 -131.09,205.442 -240.716,143.121 -9.2161,-5.2384 -8.2862,-33.5521 -2.6906,-35.338 12.4615,-3.9776 25.2921,19.1274 44.5219,32.0866 -14.7355,-22.0966 -41.4764,-106.379 -41.9539,-291.734 -8.7673,191.035 -23.4527,153.363 -33.3783,239.531 -16.7725,145.609 0.7786,315.661 -103.524,358.36 -3.3324,-26.3707 15.4736,-62.2385 11.8722,-101.859 -17.2594,67.9424 -23.5682,88.5985 -46.0053,102.353 -43.848,26.8791 26.9053,-67.8638 -41.5514,22.1788 38.2381,-11.1209 80.9397,-19.556 118.184,-27.7506 z"
   style="fill:#1f1a17" />
  <path
   id="path1937_11"
   class="fil1"
   d="m 1610.43,637.895 c -4.6622,25.6838 -0.5096,57.9977 2.1704,99.7004 -64.1076,-7.18022 -178.335,4.80507 -261.019,10.9876 80.1741,-13.4139 188.525,-21.9288 249.099,-26.7648 -0.1226,-4.57886 -0.027,-8.06837 0.1881,-11.165 0.1083,-1.5501 -21.8026,-5.45868 -35.1213,-8.12433 11.184,-0.22263 35.8642,0.79291 36.0463,-0.72505 0.7334,-6.07181 1.5763,-13.433 1.7584,-27.7494 -0.7012,-6.32064 -50.4139,-4.10502 -51.1306,-10.5019 48.3304,-2.42992 51.3306,-6.08253 58.0084,-25.6576 z"
   style="fill:#1f1a17" />
  <path
   class="fil3 str1"
   d="m 594.271,833.156 c 7.75883,-4.90031 111.074,-2.45016 128.633,26.9517 2.08585,5.0527 -12.3567,34.6546 -16.4963,82.9731 -5.67179,66.2173 13.1711,137.088 -15.3557,168.168 -13.0699,8.0636 -113.119,-1.9418 -120.058,-12.2508 -15.8665,-28.8244 0.65004,-244.458 23.2765,-265.842 z"
   id="path58"
   style="fill:#c2c1c1;stroke:#1f1a17;stroke-width:0.90719998" />
  <path
   class="fil1 str2"
   d="m 722.904,860.108 c 2.08585,5.0527 -12.3567,34.6546 -16.4963,82.9731 -5.67179,66.2173 13.1711,137.088 -15.3557,168.168 6.99806,-65.9982 -16.4689,-204.915 31.852,-251.141 z"
   id="path60"
   style="fill:#1f1a17;stroke:#1f1a17;stroke-width:4.1669302" />
  <path
   class="fil2"
   d="m 594.271,833.156 c 7.75883,-4.90031 111.074,-2.45016 128.633,26.9517 -29.5388,-21.2109 -109.42,-28.9745 -123.832,-14.1461 -39.5311,107.095 -2.4442,265.468 -28.078,253.036 -15.8665,-28.8244 0.65004,-244.458 23.2765,-265.842 z"
   id="path62"
   style="fill:#ffffff" />
  <path
   class="fil3 str2"
   d="m 367.632,819.681 -31.3151,-24.6956 c 10.5578,-6.93854 45.735,-6.9683 83.7303,-5.72774 l 0.21668,44.0385 c 23.7277,6.1242 47.4554,7.34928 71.1831,3.67642 l 1.12507,-45.1933 c 37.9834,5.62536 68.6163,25.9516 94.3488,46.2779 -18.0702,77.8942 -26.8505,154.46 -22.0514,229.09002 -56.9179,41.2407 -259.156,30.6222 -215.614,-35.5273 -22.2764,-19.9679 -23.4432,-42.27532 -13.2651,-59.59192 -20.393,-16.7701 -19.7989,-52.0581 -0.47384,-66.8352 -12.1722,-40.2787 5.82537,-67.9436 32.1151,-85.5114 z"
   id="path64"
   style="fill:#c2c1c1;stroke:#1f1a17;stroke-width:4.1669302" />
  <path
   class="fil2"
   d="m 367.632,819.681 c -21.6204,21.6121 -30.4103,55.4976 -21.3811,87.1996 -17.0713,20.7132 -11.6519,44.779 8.00527,74.4095 -23.3932,19.0095 0.96673,30.3531 14.7486,48.3424 -5.9218,7.6922 -14.4783,24.2492 -6.86472,44.704 -17.9345,-9.8994 -25.1302,-24.1134 -12.8842,-42.717 -22.2764,-19.9679 -23.4432,-42.2753 -13.2651,-59.5919 -20.393,-16.7701 -19.7989,-52.0581 -0.47384,-66.8352 -12.1722,-40.2787 5.82537,-67.9436 32.1151,-85.5114 z"
   id="path66"
   style="fill:#ffffff" />
  <path
   class="fil1"
   d="m 586.921,838.057 c -15.62,43.5921 -26.8505,154.46 -22.0514,229.09 -39.1311,28.353 -146.949,32.1937 -196.365,10.3304 113.598,7.5422 153.894,4.3848 170.51,-14.1235 19.2798,-21.4776 15.4665,-124.251 30.2257,-185.886 0.37145,-12.2365 -11.8722,-30.871 -20.793,-48.5531 15.5843,16.6094 25.1004,33.3497 26.104,30.6389 3.34664,-9.03748 7.39571,-16.4225 12.3698,-21.4966 z"
   id="path68"
   style="fill:#1f1a17" />
  <path
   class="fil2"
   d="m 583.642,852.646 c 1.05483,-4.85745 2.15014,-9.72086 3.27878,-14.589 -25.7326,-20.3263 -56.3655,-40.6526 -94.3488,-46.2779 40.1573,19.0631 70.514,35.6773 91.0701,60.867 z M 420.047,789.2575 c -37.9953,-1.24055 -73.1725,-1.21079 -83.7303,5.72774 l 16.8892,13.3187 c 0.22859,-16.1498 28.634,-13.9235 66.8411,-19.0464 z m 71.3998,47.7149 c -23.7277,3.67285 -47.4554,2.44777 -71.1831,-3.67642 31.9163,21.5585 34.2867,15.8331 71.1831,3.67642 z"
   id="path70"
   style="fill:#ffffff" />
  <path
   class="fil1"
   d="m 365.182,909.111 c 4.08359,-5.30867 -7.75883,-14.2926 -14.7009,-19.6012 l 82.0802,15.926 -67.3793,3.67523 z"
   id="path72"
   style="fill:#1f1a17" />
  <path
   class="fil1"
   d="m 381.108,1036.52 c 4.08359,-5.3087 -7.75883,-14.2926 -14.7009,-19.6012 l 68.6044,14.7009 -53.9034,4.9003 z"
   id="path74"
   style="fill:#1f1a17" />
  <path
   class="fil1"
   d="m 372.532,982.584 c 4.08359,-5.30867 -7.75883,-14.2926 -14.7009,-19.6012 l 72.2796,11.0257 -57.5787,8.57554 z"
   id="path76"
   style="fill:#1f1a17" />
  <path
   class="fil1"
   d="m 420.31,822.131 -53.9034,1.22508 c 15.926,-9.80062 37.9774,-9.80062 53.9034,-1.22508 z"
   id="path78"
   style="fill:#1f1a17" />
  <path
   class="fil1 str2"
   d="m 491.365,797.629 0,37.9774 c 27.4851,-10.6685 25.1861,-23.3884 0,-37.9774 z"
   id="path80"
   style="fill:#1f1a17;stroke:#1f1a17;stroke-width:4.1669302" />
  <path
   class="fil3 str1"
   d="m 1156.58,193.666 c 122.486,40.7216 371.637,61.3979 467.98,26.9517 50.8258,-11.4603 90.4724,-34.0986 121.699,-65.1613 15.57,43.2777 -22.9669,84.6125 -92.3344,124.622 41.0859,-1.33104 85.8483,-19.406 126.938,-46.872 2.0978,47.3113 -60.7027,75.5107 -133.832,99.9278 47.2863,6.36826 105.598,-25.2397 149.211,-44.5969 1.8918,46.6661 -61.6575,78.5288 -174.105,102.328 57.1608,10.8364 111.871,-3.44546 169.035,-22.0133 -57.8572,132.714 -353.507,89.6986 -643.166,-26.9517 -15.7974,-12.2663 -18.6798,-137.835 8.5755,-148.234 z"
   id="path82"
   style="fill:#c2c1c1;stroke:#1f1a17;stroke-width:0.90719998" />
  <path
   class="fil1"
   d="m 1746.26,155.456 c 15.57,43.2777 -22.9669,84.6125 -92.3344,124.622 52.9153,-35.3927 98.4515,-72.8308 92.3344,-124.622 z m -99.2289,177.678 c 73.1296,-24.417 135.93,-52.6164 133.832,-99.9278 -21.0918,62.0563 -81.3825,76.2001 -133.832,99.9278 z m 149.211,-44.5969 c 1.8918,46.6661 -61.6575,78.5288 -174.105,102.328 72.1189,-22.1943 164.849,-49.8329 174.105,-102.328 z M 1148.0061,341.9 c 289.659,116.65 585.309,159.666 643.166,26.9517 -84.5304,152.726 -432.452,7.75883 -643.166,-26.9517 z"
   id="path84"
   style="fill:#1f1a17" />
  <path
   class="fil2"
   d="m 1746.26,155.456 c -31.227,31.0627 -70.8735,53.701 -121.699,65.1613 -96.343,34.4462 -345.493,13.7699 -467.98,-26.9517 -27.2553,10.3995 -24.373,135.968 -8.5755,148.234 1.3929,-9.29583 2.4954,-19.1774 3.4954,-29.2626 0.1667,-1.68701 22.1181,15.0748 41.9384,16.3868 -14.7343,-4.05145 -40.905,-27.1362 -40.6419,-29.9781 0.9263,-9.94706 1.8394,-19.9239 2.9157,-29.5709 0.1405,-1.26556 28.7637,18.8488 44.9136,17.5654 -17.5083,-4.95389 -43.8147,-26.4124 -43.529,-28.5756 0.7357,-5.56226 1.5441,-11.4186 1.9953,-14.4962 0.5346,-3.64785 42.7682,13.6175 51.9771,7.71478 -13.9878,-3.88239 -49.9567,-17.4273 -49.0876,-20.999 1.4477,-5.95276 3.1359,-11.4281 5.1373,-16.2725 310.273,44.6826 536.814,43.4099 579.14,-58.9561 z m 34.6034,77.7502 c -41.0895,27.466 -85.8519,45.541 -126.938,46.872 43.7909,8.06242 86.4091,-2.66207 126.938,-46.872 z m 15.3784,55.3309 c -43.6123,19.3572 -101.924,50.9651 -149.211,44.5969 43.2016,12.9008 92.9369,-1.9656 149.211,-44.5969 z m -5.0706,80.3146 c -57.1632,18.5678 -111.874,32.8497 -169.035,22.0133 56.3417,18.7941 112.686,11.4555 169.035,-22.0133 z"
   id="path86"
   style="fill:#ffffff" />
  <path
   class="fil3 str1"
   d="m 1207.91,207.929 c 131.061,30.7662 332.356,42.8289 416.655,12.6889 -82.1338,-1.19055 -107.522,-43.7194 -159.789,-56.7917 54.6642,-75.4238 -2.7966,-115.925 -49.7329,-113.964 -35.032,1.46438 -83.4291,36.3737 -39.5787,109.707 -70.7057,-15.0081 -114.38,46.5375 -167.555,48.3602 z"
   id="path88"
   style="fill:#c2c1c1;stroke:#1f1a17;stroke-width:0.90719998" />
  <path
   class="fil2"
   d="m 1326.93,160.538 c -44.604,11.0626 -79.1407,46.0244 -119.022,47.3911 20.4775,4.80626 42.6706,9.15891 65.8637,12.9627 1.2965,-11.4769 5.5908,-15.3724 18.2214,-20.737 28.0661,-5.64083 53.9189,-13.689 92.4535,-14.0902 -27.1624,-9.63752 -75.5036,1.62153 -73.407,-0.32264 6.9933,-6.48255 13.0115,-11.3852 15.8903,-25.204 z M 1450.3,56.236 c -11.1328,-4.69911 -23.5253,-6.86353 -35.2582,-6.37421 -35.032,1.46319 -83.4291,36.3737 -39.5787,109.707 12.3663,-1.65963 -17.1856,-53.1498 11.8269,-80.1348 19.5453,-18.1797 54.1903,-17.6892 63.01,-23.1979 z"
   id="path90"
   style="fill:#ffffff" />
  <path
   class="fil1"
   d="m 1517.58,237.2 c -55.5726,2.46206 -120.542,-0.65242 -182.935,-7.84574 62.2373,-2.42873 123.215,0.18811 182.935,7.84574 z M 1472.4176,71.041 c 18.375,18.9845 23.105,50.3603 -7.6433,92.7857 l -45.4112,1.1215 c -15.1105,-30.171 30.515,-8.8839 39.5097,-18.3762 14.9914,-15.8212 18.2452,-40.999 13.5449,-75.531 z"
   id="path92"
   style="fill:#1f1a17" />
  <path
   class="fil2"
   d="m 1199.36,356.863 c -14.8248,4.40147 0.9477,39.3882 -42.6087,50.9759 5.3146,2.33943 42.011,-9.15296 55.2273,3.53713 13.377,12.8449 59.118,15.9939 58.9764,13.4128 -0.1714,-3.10853 -40.7693,-11.896 -46.6982,-18.1166 -10.6519,-11.1793 -21.2097,-7.19927 -23.2824,-10.1114 -6.779,-9.5268 13.783,-32.6283 -1.6144,-39.6978 z m -7.5791,175.166 c 2.5669,4.38718 4.4432,16.4415 -3.1573,22.7884 l 3.1573,-22.7884 z m -34.8701,-31.4687 c 9.6566,-12.4186 22.8419,-36.2511 32.5497,-60.1764 6.8362,5.69084 -12.596,34.2903 -23.561,54.7475 -5.7444,10.715 -4.2836,20.974 -6.0182,20.7156 m 47.5483,76.356 c -3.1966,19.5667 -27.5077,32.433 2.3287,54.8666 -11.1793,-12.2174 -10.7316,-31.221 -2.3287,-54.8666 z"
   id="path94"
   style="fill:#ffffff" />
  <path
   class="fil1"
   d="m 1202.37,424.048 c 31.8211,-4.48838 52.6272,15.5022 77.1049,21.418 -13.3223,-1.93822 -30.7448,-3.48117 -43.4266,-2.74541 -8.6755,0.5036 -15.7474,4.93127 -17.1559,3.35736 -4.9658,-2.99305 -2.3561,-18.6595 -16.5225,-22.03 z"
   id="path96"
   style="fill:#1f1a17" />
  <path
   class="fil1"
   d="m 1235.42,499.317 c 4.4348,31.8234 -21.1644,36.5142 -67.3138,22.6419 41.5598,5.45749 66.5471,-0.35359 67.3138,-22.6419 z"
   id="path98"
   style="fill:#1f1a17" />
  <path
   class="fil1"
   d="m 1251.94,579.482 c -19.7691,-3.65738 -39.4204,-8.94581 -54.0868,-10.1495 l -6.4956,-5.14914 c 27.7421,-0.20597 48.7494,3.6669 60.5824,15.2986 z"
   id="path100"
   style="fill:#1f1a17" />
  <path
   class="fil1"
   d="m 1210.94,626.602 c 6.7326,-3.46927 10.2018,-11.0174 10.403,-22.6419 -2.4478,7.95527 -6.1194,17.1344 -10.403,22.6419 z"
   id="path102"
   style="fill:#1f1a17" />
  <path
   class="fil1"
   d="m 1430.63,537.258 c 29.9579,89.1068 -78.9907,119.191 -205.613,111.986 134.31,2.88233 210.012,-26.7446 205.613,-111.986 z"
   id="path104"
   style="fill:#1f1a17" />
  <path
   class="fil1"
   d="m 1575.66,545.213 c -6.2075,-14.8771 -9.7351,-29.7555 -11.0436,-44.635 l -16.126,25.3266 c -10.3685,-10.4245 -18.8893,-20.6501 -25.9064,-25.9171 -2.5502,7.53262 -4.4884,17.513 -9.4851,23.2086 -4.4444,1.55962 -12.5591,1.89536 -17.0023,-0.82862 -21.0085,50.8711 -43.8504,53.7915 -64.8553,19.7858 27.5089,38.7941 45.7327,35.7058 65.478,-9.17915 l 14.7378,10.2209 14.6593,-16.6951 c 11.9543,2.1418 19.8274,10.8102 23.6229,26.0064 l 12.5901,-18.4059 13.3306,11.1126 z"
   id="path106"
   style="fill:#1f1a17" />
  <path
   class="fil1"
   d="m 1598.91,510.944 c 5.4277,-0.0107 5.0991,11.4222 6.1194,19.5822 -3.468,1.62987 -6.9349,1.62987 -10.403,0 -1.2238,-9.38393 3.4026,-19.581 4.2837,-19.5822 z"
   id="path108"
   style="fill:#1f1a17" />
  <path
   class="fil1"
   d="m 1451.46,464.876 c 2.8835,10.8364 3.3205,21.0597 8.6529,30.0614 8.3244,-5.88371 11.1436,-19.7203 18.2452,-24.3789 14.0759,3.89429 8.3613,19.1762 -3.674,47.1197 -12.4913,4.61815 -2.9657,-11.971 -33.4116,-16.1558 -7.6564,-19.2762 -13.1104,-27.1517 10.1876,-36.6464 z"
   id="path110"
   style="fill:#1f1a17" />
  <path
   class="fil2"
   d="m 1537.66,198.716 c -34.0784,-7.83383 -68.1555,-12.5341 -102.231,-14.1009 36.6214,-7.2457 64.8208,-0.98102 102.231,14.1009 z"
   id="path112"
   style="fill:#ffffff" />
 </g>
</svg>