<?xml version="1.0" encoding="UTF-8"?>
<!DOCTYPE svg PUBLIC "-//W3C//DTD SVG 1.1//EN" "http://www.w3.org/Graphics/SVG/1.1/DTD/svg11.dtd">
<!-- Creator: CorelDRAW -->
<svg xmlns="http://www.w3.org/2000/svg" xml:space="preserve" width="500px" height="578px" shape-rendering="geometricPrecision" text-rendering="geometricPrecision" image-rendering="optimizeQuality" fill-rule="evenodd" clip-rule="evenodd"
viewBox="0 0 500 578"
 xmlns:xlink="http://www.w3.org/1999/xlink"
 xmlns:svg="http://www.w3.org/2000/svg"
 version="1.0">
 <g id="Layer_x0020_1">
  <metadata id="CorelCorpID_0Corel-Layer"/>
  <path id="path1937" fill="#0057F0" stroke="black" stroke-width="0.992126" d="M0.688819 0.714615l498.87 0 -0.182268 339.851c-34.3179,316.218 -464.275,313.187 -498.722,0l0.0342992 -339.851z"/>
  <path fill="#000066" d="M171.712 205.714c-3.71197,-6.05707 -3.49824,-7.27229 -0.177732,-10.3547 5.17096,-4.80047 16.8208,-11.2034 24.2541,-14.0462 1.49244,-5.02668 8.17399,-5.25827 9.43144,0.0136063 5.08734,-3.7474 7.9733,-2.77739 8.65956,2.91062 13.0076,5.84561 14.9553,38.5124 30.5331,44.1873 20.6376,7.51833 35.375,1.80425 56.6453,-4.62671 43.8523,-13.2585 92.361,-5.63244 103.793,-1.70334 62.8382,21.5983 47.3032,-5.20073 68.6214,-1.06498 2.92677,24.9585 -37.8272,29.9934 -76.3453,11.1901 17.2494,13.0388 19.4845,34.145 31.8799,43.6626 9.42492,7.23685 17.4884,-0.215717 19.9429,11.0917 4.3767,20.1609 12.9302,22.5975 8.34038,29.4007 -0.869103,1.28863 -2.53106,3.12208 -8.21622,1.90602 -6.94744,-1.48592 -19.8482,0.319181 -24.1835,-0.0918426l-1.6509 1.92359c-1.24923,-3.10677 1.15965,-6.07663 4.03342,-6.87544 -0.21515,-4.71232 3.38684,-6.33742 12.8262,-5.38016 -9.80136,-29.3352 -27.8532,2.6195 -62.2375,-43.5532 -25.3809,-0.303591 -38.967,1.78554 -45.9363,6.6464l1.72432 -7.02567c-38.6504,-7.09257 -37.9446,23.5497 -82.7859,19.4054 -0.0541418,-2.35502 -0.918426,-4.98047 -2.15093,-7.72838 -0.483307,4.45862 1.74161,5.82718 -2.98006,8.88974 -17.7134,11.4883 -22.4238,30.0118 -26.0935,33.0061 -3.93364,3.2091 -23.4879,-0.905103 -27.6656,0.576567l-0.898583 1.49783c-2.63877,-3.98835 2.30882,-6.61352 5.00967,-7.93815 0.367087,-3.9651 2.16,-6.16111 11.8655,-5.26054 3.32901,-5.6058 4.8892,-19.0236 8.21849,-28.3142 -0.804473,-0.216284 -3.0943,2.60816 -6.91739,2.24447 -8.60174,-0.818079 -23.1474,-2.65465 -32.6197,-2.78362 -0.200976,5.49014 0.43115,9.22678 1.53099,11.8939l1.44709 0.889512c-5.07317,1.08312 -7.70004,-1.09191 -7.56993,-4.23355 -2.25128,0.551906 -4.42573,-2.43865 -6.66681,-6.10044 -2.15575,-3.52233 -2.3434,-11.6833 0.745229,-13.5859 9.21884,-5.67893 32.2895,-2.74932 36.4913,-8.5612 -3.45515,-3.80892 -3.66747,-36.8031 -7.27002,-40.6117 2.808,-0.971434 4.98699,-2.57159 6.53755,-4.80047l-1.21153 -0.164693c-5.09074,4.47903 -17.2987,1.39521 -24.249,-0.618237 -2.55827,-0.740977 -4.11818,-3.08495 -3.80183,-4.39966 4.32114,0.255685 10.7651,0.0396851 12.964,0.767339 -1.16306,-4.37641 -7.67226,-5.60863 -13.8662,-2.28047z"/>
  <path fill="#000066" d="M371.72 266.283l-22.1102 1.17921c-12.7358,2.23795 -26.733,19.1398 -13.6548,28.3813 2.13336,1.50747 4.93399,3.75704 0.603496,6.18463 -2.68271,1.50406 -5.85355,4.43452 -6.55314,6.11688 -7.39503,-1.52419 -13.5366,-1.13131 -15.3298,4.27465 -2.60476,3.09515 -3.98013,5.94482 -2.65323,8.25449l1.15228 -1.69795c4.62586,-1.48677 14.4034,-0.873071 20.9767,-0.00283465 7.17789,0.950174 13.5507,-8.88775 32.0565,-16.7576 3.76923,-1.60299 3.61928,-4.18989 2.27027,-7.20426 -3.48888,-7.79613 -1.38302,-16.6198 2.74479,-22.538 3.04838,-4.37046 3.57449,-5.89607 0.497197,-6.19059z"/>
  <path fill="#000066" d="M171.712 54.5137c-3.71197,-6.05707 -3.49824,-7.27229 -0.177732,-10.3547 5.17096,-4.80047 16.8208,-11.2034 24.2541,-14.0462 1.49244,-5.02668 8.17399,-5.25827 9.43144,0.0136063 5.08734,-3.7474 7.9733,-2.77739 8.65956,2.91062 13.0076,5.84561 14.9553,38.5124 30.5331,44.1873 20.6376,7.51833 35.375,1.80425 56.6453,-4.62671 43.8523,-13.2585 92.361,-5.63244 103.793,-1.70334 62.8382,21.5983 47.3032,-5.20073 68.6214,-1.06498 2.92677,24.9585 -37.8272,29.9934 -76.3453,11.1901 17.2494,13.0388 19.4845,34.145 31.8799,43.6626 9.42492,7.23685 17.4884,-0.215717 19.9429,11.0917 4.3767,20.1609 12.9302,22.5975 8.34038,29.4007 -0.869103,1.28863 -2.53106,3.12208 -8.21622,1.90602 -6.94744,-1.48592 -19.8482,0.319181 -24.1835,-0.0918426l-1.6509 1.92359c-1.24923,-3.10677 1.15965,-6.07663 4.03342,-6.87544 -0.21515,-4.71232 3.38684,-6.33742 12.8262,-5.38016 -9.80136,-29.3352 -27.8532,2.6195 -62.2375,-43.5532 -25.3809,-0.303591 -38.967,1.78554 -45.9363,6.6464l1.72432 -7.02567c-38.6504,-7.09257 -37.9446,23.5497 -82.7859,19.4054 -0.0541418,-2.35502 -0.918426,-4.98047 -2.15093,-7.72838 -0.483307,4.45862 1.74161,5.82718 -2.98006,8.88974 -17.7134,11.4883 -22.4238,30.0118 -26.0935,33.0061 -3.93364,3.2091 -23.4879,-0.905103 -27.6656,0.576567l-0.898583 1.49783c-2.63877,-3.98835 2.30882,-6.61352 5.00967,-7.93815 0.367087,-3.9651 2.16,-6.16111 11.8655,-5.26054 3.32901,-5.6058 4.8892,-19.0236 8.21849,-28.3142 -0.804473,-0.216284 -3.0943,2.60816 -6.91739,2.24447 -8.60174,-0.818079 -23.1474,-2.65465 -32.6197,-2.78362 -0.200976,5.49014 0.43115,9.22678 1.53099,11.8939l1.44709 0.889512c-5.07317,1.08312 -7.70004,-1.09191 -7.56993,-4.23355 -2.25128,0.551906 -4.42573,-2.43865 -6.66681,-6.10044 -2.15575,-3.52233 -2.3434,-11.6833 0.745229,-13.5859 9.21884,-5.67893 32.2895,-2.74932 36.4913,-8.5612 -3.45515,-3.80892 -3.66747,-36.8031 -7.27002,-40.6117 2.808,-0.971434 4.98699,-2.57159 6.53755,-4.80047l-1.21153 -0.164693c-5.09074,4.47903 -17.2987,1.39521 -24.249,-0.618237 -2.55827,-0.740977 -4.11818,-3.08495 -3.80183,-4.39966 4.32114,0.255685 10.7651,0.0396851 12.964,0.767339 -1.16306,-4.37641 -7.67226,-5.60863 -13.8662,-2.28047z"/>
  <path fill="#000066" d="M371.72 115.083l-22.1102 1.17921c-12.7358,2.23795 -26.733,19.1398 -13.6548,28.3813 2.13336,1.50747 4.93399,3.75704 0.603496,6.18463 -2.68271,1.50406 -5.85355,4.43452 -6.55314,6.11688 -7.39503,-1.52419 -13.5366,-1.13131 -15.3298,4.27465 -2.60476,3.09515 -3.98013,5.94482 -2.65323,8.25449l1.15228 -1.69795c4.62586,-1.48677 14.4034,-0.873071 20.9767,-0.00283465 7.17789,0.950174 13.5507,-8.88775 32.0565,-16.7576 3.76923,-1.60299 3.61928,-4.18989 2.27027,-7.20426 -3.48888,-7.79613 -1.38302,-16.6198 2.74479,-22.538 3.04838,-4.37046 3.57449,-5.89607 0.497197,-6.19059z"/>
  <path fill="#000066" d="M171.53 356.914c-3.62665,-6.05707 -3.41773,-7.27229 -0.17348,-10.3547 5.05219,-4.80047 16.4347,-11.2034 23.6974,-14.0462 1.45843,-5.02668 7.98662,-5.25827 9.21515,0.0136063 4.97055,-3.7474 7.79018,-2.77739 8.46085,2.91062 12.7091,5.84561 14.612,38.5124 29.8324,44.1873 20.1643,7.51833 34.5634,1.80425 55.3456,-4.62671 42.846,-13.2585 90.2416,-5.63244 101.411,-1.70334 61.3962,21.5983 49.8175,-5.20073 70.6468,-1.06498 2.85959,24.9585 -40.5593,29.9934 -78.1935,11.1901 16.8537,13.0388 19.0375,34.145 31.1482,43.6626 9.20892,7.23685 17.0873,-0.215717 19.4854,11.0917 4.27635,20.1609 12.6335,22.5975 8.14904,29.4007 -0.84926,1.28863 -2.47295,3.12208 -8.02772,1.90602 -6.78813,-1.48592 -19.3927,0.319181 -23.6285,-0.0918426l-1.6132 1.92359c-1.2206,-3.10677 1.13301,-6.07663 3.94101,-6.87544 -0.210331,-4.71232 3.30917,-6.33742 12.532,-5.38016 -9.57657,-29.3352 -27.2143,2.6195 -60.8094,-43.5532 -24.7986,-0.303591 -38.073,1.78554 -44.8824,6.6464l1.68491 -7.02567c-37.7637,-7.09257 -37.0741,23.5497 -80.8864,19.4054 -0.0530079,-2.35502 -0.897449,-4.98047 -2.10161,-7.72838 -0.472252,4.45862 1.70164,5.82718 -2.91175,8.88974 -17.3069,11.4883 -21.909,30.0118 -25.4945,33.0061 -3.8435,3.2091 -22.949,-0.905103 -27.0309,0.576567l-0.87789 1.49783c-2.57811,-3.98835 2.25581,-6.61352 4.89459,-7.93815 0.358866,-3.9651 2.11068,-6.16111 11.5934,-5.26054 3.25247,-5.6058 4.77695,-19.0236 8.02999,-28.3142 -0.786048,-0.216284 -3.02343,2.60816 -6.75865,2.24447 -8.40445,-0.818079 -22.6165,-2.65465 -31.8714,-2.78362 -0.196441,5.49014 0.421229,9.22678 1.49584,11.8939l1.41392 0.889512c-4.95666,1.08312 -7.52344,-1.09191 -7.39616,-4.23355 -2.19969,0.551906 -4.32425,-2.43865 -6.51374,-6.10044 -2.10643,-3.52233 -2.28983,-11.6833 0.727937,-13.5859 9.00737,-5.67893 31.5485,-2.74932 35.6539,-8.5612 -3.37578,-3.80892 -3.58328,-36.8031 -7.10306,-40.6117 2.74337,-0.971434 4.87247,-2.57159 6.38759,-4.80047l-1.18375 -0.164693c-4.97396,4.47903 -16.9019,1.39521 -23.6925,-0.618237 -2.49959,-0.740977 -4.02378,-3.08495 -3.71481,-4.39966 4.22221,0.255685 10.5182,0.0396851 12.6666,0.767339 -1.13641,-4.37641 -7.49622,-5.60863 -13.5482,-2.28047z"/>
  <path fill="#000066" d="M366.948 417.483l-21.6028 1.17921c-12.4435,2.23795 -26.1196,19.1398 -13.3416,28.3813 2.08432,1.50747 4.82088,3.75704 0.589607,6.18463 -2.6212,1.50406 -5.71918,4.43452 -6.40262,6.11688 -7.22552,-1.52419 -13.2262,-1.13131 -14.978,4.27465 -2.54523,3.09515 -3.88885,5.94482 -2.59257,8.25449l1.12592 -1.69795c4.51984,-1.48677 14.0729,-0.873071 20.4953,-0.00283465 7.0132,0.950174 13.2398,-8.88775 31.3209,-16.7576 3.68277,-1.60299 3.53622,-4.18989 2.21811,-7.20426 -3.40866,-7.79613 -1.35128,-16.6198 2.68186,-22.538 2.97836,-4.37046 3.49257,-5.89607 0.485859,-6.19059z"/>
  <path id="path1937_0" fill="#000066" d="M6.58177 1.04202l147.817 0c0.0153071,34.0818 -38.4554,59.4505 -38.4409,86.5171 0.0141732,27.0666 38.5138,51.6161 38.5274,76.8671 0.0136063,25.2513 -38.4602,49.7597 -38.4469,74.6391 0.0130394,24.8791 38.5132,49.5737 38.5263,74.6388 0.0130394,25.0648 -38.4608,48.8308 -38.4466,75.7537 0.0141732,26.9226 38.6365,52.8871 38.5325,80.8113 -0.104315,27.9241 -34.064,47.2255 -34.7471,70.0229 -60.5849,-37.7935 -102.973,-104.016 -113.356,-198.417l0.0340158 -340.833z"/>
  <path id="path1937_1" fill="white" d="M0.688819 0.714615l151.091 0c0.0153071,34.0818 -38.4554,58.4683 -38.4409,85.5349 0.0141732,27.0666 38.5138,51.6161 38.5274,76.8671 0.0136063,25.2513 -38.4602,49.7597 -38.4469,74.6391 0.0130394,24.8791 38.5132,49.5737 38.5263,74.6388 0.0130394,25.0648 -38.4608,48.8308 -38.4466,75.7537 0.0141732,26.9226 38.6365,52.8871 38.5325,80.8113 -0.104315,27.9241 -32.7541,47.2252 -34.092,70.0229 -60.5852,-37.7935 -106.902,-104.016 -117.285,-198.417l0.0342992 -339.851z"/>
  <path fill="#CCCCCC" d="M169.093 204.404c-3.71197,-6.05707 -3.49824,-7.27229 -0.177732,-10.3547 5.17096,-4.80047 16.8208,-11.2034 24.2541,-14.0462 1.49244,-5.02668 8.17399,-5.25827 9.43144,0.0136063 5.08734,-3.7474 7.9733,-2.77739 8.65956,2.91062 13.0076,5.84561 14.9553,38.5124 30.5331,44.1873 20.6376,7.51833 35.375,1.80425 56.6453,-4.62671 43.8523,-13.2585 92.361,-5.63244 103.793,-1.70334 62.8382,21.5983 47.3032,-5.20073 68.6214,-1.06498 2.92677,24.9585 -37.8272,29.9934 -76.3453,11.1901 17.2494,13.0388 19.4845,34.145 31.8799,43.6626 9.42492,7.23685 17.4884,-0.215717 19.9429,11.0917 4.3767,20.1609 12.9302,22.5975 8.34038,29.4007 -0.869103,1.28863 -2.53106,3.12208 -8.21622,1.90602 -6.94744,-1.48592 -19.8482,0.319181 -24.1835,-0.0918426l-1.6509 1.92359c-1.24923,-3.10677 1.15965,-6.07663 4.03342,-6.87544 -0.21515,-4.71232 3.38684,-6.33742 12.8262,-5.38016 -9.80136,-29.3352 -27.8532,2.6195 -62.2375,-43.5532 -25.3809,-0.303591 -38.967,1.78554 -45.9363,6.6464l1.72432 -7.02567c-38.6504,-7.09257 -37.9446,23.5497 -82.7859,19.4054 -0.0541418,-2.35502 -0.918426,-4.98047 -2.15093,-7.72838 -0.483307,4.45862 1.74161,5.82718 -2.98006,8.88974 -17.7134,11.4883 -22.4238,30.0118 -26.0935,33.0061 -3.93364,3.2091 -23.4879,-0.905103 -27.6656,0.576567l-0.898583 1.49783c-2.63877,-3.98835 2.30882,-6.61352 5.00967,-7.93815 0.367087,-3.9651 2.16,-6.16111 11.8655,-5.26054 3.32901,-5.6058 4.8892,-19.0236 8.21849,-28.3142 -0.804473,-0.216284 -3.0943,2.60816 -6.91739,2.24447 -8.60174,-0.818079 -23.1474,-2.65465 -32.6197,-2.78362 -0.200976,5.49014 0.43115,9.22678 1.53099,11.8939l1.44709 0.889512c-5.07317,1.08312 -7.70004,-1.09191 -7.56993,-4.23355 -2.25128,0.551906 -4.42573,-2.43865 -6.66681,-6.10044 -2.15575,-3.52233 -2.3434,-11.6833 0.745229,-13.5859 9.21884,-5.67893 32.2895,-2.74932 36.4913,-8.5612 -3.45515,-3.80892 -3.66747,-36.8031 -7.27002,-40.6117 2.808,-0.971434 4.98699,-2.57159 6.53755,-4.80047l-1.21153 -0.164693c-5.09074,4.47903 -17.2987,1.39521 -24.249,-0.618237 -2.55827,-0.740977 -4.11818,-3.08495 -3.80183,-4.39966 4.32114,0.255685 10.7651,0.0396851 12.964,0.767339 -1.16306,-4.37641 -7.67226,-5.60863 -13.8662,-2.28047z"/>
  <path fill="black" d="M447.532 241.816c15.0296,-1.88589 24.8071,-9.42265 23.3209,-22.0966 -14.3232,-2.77852 -12.0101,8.40728 -28.0089,9.49607l4.68794 12.6006z"/>
  <path fill="#CCCCCC" d="M369.101 264.974l-22.1102 1.17921c-12.7358,2.23795 -26.733,19.1398 -13.6548,28.3813 2.13336,1.50747 4.93399,3.75704 0.603496,6.18463 -2.68271,1.50406 -5.85355,4.43452 -6.55314,6.11688 -7.39503,-1.52419 -13.5366,-1.13131 -15.3298,4.27465 -2.60476,3.09515 -3.98013,5.94482 -2.65323,8.25449l1.15228 -1.69795c4.62586,-1.48677 14.4034,-0.873071 20.9767,-0.00283465 7.17789,0.950174 13.5507,-8.88775 32.0565,-16.7576 3.76923,-1.60299 3.61928,-4.18989 2.27027,-7.20426 -3.48888,-7.79613 -1.38302,-16.6198 2.74479,-22.538 3.04838,-4.37046 3.57449,-5.89607 0.497197,-6.19059z"/>
  <path fill="white" d="M314.12 311.7c2.97071,-5.91563 9.43371,-1.57238 14.1506,-2.35843 1.75493,-4.04873 11.2779,-6.5744 11.617,-10.9063 0.311244,-3.97814 -6.89018,-6.1543 -7.73604,-11.067 -1.28069,-7.43755 4.83959,-16.0124 14.8391,-21.2153 -12.7358,2.23795 -26.733,19.1398 -13.6548,28.3813 2.13336,1.50747 4.93399,3.75704 0.603496,6.18463 -2.68271,1.50406 -5.85355,4.43452 -6.55314,6.11688 -7.39503,-1.52419 -13.5366,-1.13131 -15.3298,4.27465 -2.60476,3.09515 -3.98013,5.94482 -2.65323,8.25449l1.26142 -2.02536c0.169795,-2.68016 2.52199,-3.72331 3.45543,-5.63953z"/>
  <path fill="white" d="M312.752 318.357c0.873071,-4.25622 3.71055,-5.02016 2.83748,-6.1115 -0.731339,-0.403937 -4.11818,1.88334 -2.83748,6.1115z"/>
  <path fill="white" d="M315.447 318.248c0.771591,-3.76044 3.27855,-4.43566 2.50725,-5.39972 -0.6463,-0.356882 -3.63855,1.66394 -2.50725,5.39972z"/>
  <path fill="white" d="M318.227 318.248c0.597544,-3.47103 2.53956,-4.09408 1.94202,-4.98416 -0.500315,-0.329386 -2.81849,1.53581 -1.94202,4.98416z"/>
  <path fill="white" d="M175.543 288.104l1.44709 0.889512c-5.07317,1.08312 -7.70004,-1.09191 -7.56993,-4.23355 -2.25128,0.551906 -4.42573,-2.43865 -6.66681,-6.10044 -2.15575,-3.52233 -2.3434,-11.6833 0.745229,-13.5859 9.21884,-5.67893 32.2895,-2.74932 36.4913,-8.5612 -3.45515,-3.80892 -3.66747,-36.8031 -7.27002,-40.6117 0.701859,-0.242646 1.3646,-0.52526 1.98794,-0.846709l2.90778 2.24561 -0.109134 0.654803 -1.30961 -0.218268 -0.109134 0.54567 2.07354 1.63701 1.96441 3.71055 0 1.96441 -0.654803 -0.109134 -0.763937 -1.74614 -0.436536 1.41874 1.63701 1.74614 0.873071 2.94662 -0.873071 0 -1.20047 -1.74614 -0.327402 1.52787 2.94662 4.03795 -1.85528 -0.982205 0 1.09134 2.18268 2.51008 0.654803 2.29181 -0.436536 0.763937 -1.41874 -2.18268 -0.436536 0.873071 0.218268 0.873071 1.96441 2.51008 0 1.30961 -1.41874 -0.763937 0 1.74614 3.05575 1.96441 -0.109134 1.30961 -1.20047 0 -1.74614 -0.982205 0.218268 1.74614 2.18268 1.09134 0.763937 1.20047 -0.109134 1.30961 -0.982205 0 -0.982205 -2.18268 -0.763937 0 0 1.30961 3.92882 3.71055 0 1.20047 -2.72835 -1.52787 0 1.09134 2.83748 2.29181 1.63701 2.61921 -1.41874 0 -1.52787 -2.29181 -0.654803 0.218268 0.982205 2.29181 1.74614 0.982205 2.18268 2.18268 -2.40095 0 2.07354 2.18268 1.85528 0.982205 1.41874 1.30961 -2.61921 -0.54567 0.763937 1.52787 2.18268 0.982205 0 1.74614 2.07354 1.09134 0.109134 0.654803 1.30961 0c-0.145701,-4.32907 2.21896,-2.11011 -0.654803,-9.38552 4.7727,2.41427 2.92791,9.08363 0.772158,18.3688 -2.22435,9.58026 -6.28385,24.6776 -7.86586,26.0487 -4.08586,-0.285165 -10.472,-2.92479 -11.5682,2.94662 -4.4297,1.50123 -6.48794,3.41632 -5.96977,5.50035l-1.11685 1.60696c-2.63877,-3.98835 2.30882,-6.61352 5.00967,-7.93815 0.367087,-3.9651 2.16,-6.16111 11.8655,-5.26054 3.32901,-5.6058 4.8892,-19.0236 8.21849,-28.3142l0.654803 -1.82693c-5.74781,-2.9829 -11.0954,-9.53122 -13.7509,-16.3701 -3.32334,7.38 -27.8017,3.43474 -35.6278,8.59493 -4.04079,2.66457 0.0195591,16.0098 6.48907,14.978 -1.21011,3.88432 0.199559,5.87707 4.22873,5.97884zm-0.83367 -82.0372c-1.64976,-0.032315 -3.29669,-0.0654803 -4.7143,-0.149102 -0.177732,0.739276 0.237827,1.80454 1.09077,2.72693l3.06595 -0.0756851 0.557575 -2.50214zm36.2996 -24.6144c-0.995812,-4.3526 -3.79814,-4.83109 -8.40841,-1.43518 -1.25745,-5.27188 -7.939,-5.04029 -9.43144,-0.0136063 -7.4333,2.84287 -19.0831,9.24577 -24.2541,14.0462 -3.32051,3.0824 -3.53424,4.29761 0.177732,10.3547 0.386929,-0.20778 0.775276,-0.398551 1.16362,-0.571181l-0.688252 -0.721134 0.873071 -2.29181 -1.30961 0.109134 1.20047 -1.85528 -1.09134 -1.41874 -1.30961 0 1.96441 -1.52787 4.47449 -1.41874 -0.109134 -0.982205 1.85528 -0.54567 0.54567 -0.54567 2.83748 -0.218268 0.0980788 -0.294803 -2.60816 -0.250866 0.763937 -0.54567 3.16488 -0.654803 1.41874 -1.20047 -1.52787 -0.654803 7.31197 -0.54567 1.19764 -0.195307 -5.78126 -0.350362 5.4567 -0.763937 0.327402 -0.327402 6.65717 -0.54567 0.428032 -0.52526 -7.19433 0.0887245 0.654803 -0.54567 7.85764 -0.763937 0.961229 -0.295937 -6.09052 -0.468 0.974552 -0.825166 7.53478 -0.133228 0.439654 -0.569481 -3.05575 -0.436536 0.873071 -0.54567c1.49131,-0.218268 3.52857,-0.654803 5.12929,0.654803 4.31858,-5.54684 3.76271,0.0382677 6.51799,-0.269575zm30.7843 45.6628c20.6376,7.51833 35.375,1.80425 56.6453,-4.62671 43.8523,-13.2585 92.361,-5.63244 103.793,-1.70334 62.8382,21.5983 47.3032,-5.20073 68.6214,-1.06498 -3.29896,1.48139 -6.19172,1.3612 -8.08838,2.49307 -5.68999,3.39619 -6.39752,8.77493 -22.0275,9.60435 -14.9856,0.795402 -36.2622,-9.24038 -50.1724,-11.4622l-1.96441 -0.109134 -0.218268 -0.436536 -1.41874 0 0.327402 1.09134 -4.80189 -1.74614 -2.94662 -0.218268 5.34756 2.72835 -9.60378 -2.61921 -3.60142 -0.109134 7.31197 2.83748 -10.0403 -2.72835 -2.29181 0 7.42111 3.27402 -12.0047 -3.49229 -3.81969 -0.654803 5.23843 2.83748 -10.586 -2.51008 -3.27402 -0.327402 7.53024 3.49229 -13.9691 -3.71055 -3.81969 0 7.31197 3.16488 -10.6951 -2.29181 -3.81969 0.109134 8.07591 2.94662 -12.223 -2.07354 -3.71055 0.218268 7.53024 2.29181 -10.3677 -0.982205 -4.14709 0 6.32977 2.18268 -10.9134 -0.54567 -4.03795 0 8.73071 2.61921 -12.5504 -1.09134 -3.05575 0.109134 1.63701 0.873071 5.7841 1.63701 -15.497 0 -1.09134 0.982205 7.63937 0.218268 -7.0937 1.52787 -6.98457 -0.218268 -1.30961 0.763937 4.80189 0.436536 -1.74614 1.20047 -7.74851 -0.54567 -3.05575 0.218268 3.92882 1.20047 4.47449 0.327402 -7.42111 0.873071 -5.23843 -0.873071 -4.03795 0 6.4389 2.18268 -8.18504 0 -5.12929 -1.63701 -0.763937 1.41874 5.02016 1.09134 -5.67496 0 -2.61921 -1.63701 -1.96441 0.327402 2.94662 1.63701 -4.14709 -0.327402c-4.11789,-3.16715 -11.7281,-5.57037 -13.0085,-9.17377zm201.229 52.7162c-3.79021,-2.44403 -9.86117,-0.0575433 -16.6351,-5.25855 -0.774426,-0.594709 -1.50973,-1.23477 -2.21131,-1.91565l-1.74444 0.40989c8.36674,9.85834 13.8963,6.18407 20.8446,9.27638l-0.253701 -2.51206zm-20.7516 37.048l-1.6509 1.92359c-1.24923,-3.10677 1.15965,-6.07663 4.03342,-6.87544 -0.21515,-4.71232 3.38684,-6.33742 12.8262,-5.38016 -2.8474,-8.52265 -6.39128,-11.8724 -10.8301,-13.4674l3.85795 -0.805323c6.36605,4.80189 12.2956,15.6061 9.27638,17.0249l-2.40095 -1.85528 -1.74614 1.52787c-6.30284,-0.573449 -8.35852,-0.264189 -9.05811,3.49229 -3.32759,1.47147 -4.76391,2.94293 -4.30781,4.41496zm-8.60967 -26.0955c-9.77245,-1.66961 -22.3016,-6.14637 -38.4191,-27.7897 -7.58863,-15.1588 3.37578,-23.5514 -10.9789,-33.6898 13.3467,4.01131 9.71972,9.43711 11.2535,19.7008 1.68463,11.2737 13.0102,32.8028 38.1444,41.7787zm-81.4218 -22.8371c-1.08794,0.521575 -2.06249,1.08624 -2.93358,1.6937l1.72432 -7.02567 0.274677 -0.897733 2.29181 1.30961 -1.35723 4.9201z"/>
  <path fill="#CCCCCC" d="M201.981 179.975l-6.7663 -0.218268c1.76372,-2.38365 4.45578,-1.98312 6.7663,0.218268z"/>
  <path fill="white" d="M443.686 297.107c-1.71354,-2.40435 -0.184536,-8.4943 -1.89808,-10.8987 -1.33257,-1.86973 -4.58164,-0.497481 -7.24082,-1.92529 0.206646,2.81764 3.70432,2.12995 4.7571,3.47386 1.7314,2.20989 -0.0204095,5.87055 4.3818,9.35008z"/>
  <path fill="white" d="M424.352 318.357c0.873071,-4.25622 3.71055,-5.02016 2.83748,-6.1115 -0.731339,-0.403937 -4.11818,1.88334 -2.83748,6.1115z"/>
  <path fill="white" d="M427.02 318.248c0.688536,-3.35707 2.92649,-3.95944 2.23795,-4.82032 -0.576851,-0.318614 -3.24822,1.48536 -2.23795,4.82032z"/>
  <path fill="white" d="M429.361 318.543c0.522425,-3.03421 2.2201,-3.57903 1.69767,-4.35685 -0.437386,-0.288 -2.46388,1.34249 -1.69767,4.35685z"/>
  <path fill="white" d="M191.384 318.357c0.873071,-4.25622 3.71055,-5.02016 2.83748,-6.1115 -0.731339,-0.403937 -4.11818,1.88334 -2.83748,6.1115z"/>
  <path fill="white" d="M194.079 318.248c0.771591,-3.76044 3.27855,-4.43566 2.50725,-5.39972 -0.6463,-0.356882 -3.63855,1.66394 -2.50725,5.39972z"/>
  <path fill="white" d="M196.859 318.248c0.597544,-3.47103 2.53956,-4.09408 1.94202,-4.98416 -0.500315,-0.329386 -2.81849,1.53581 -1.94202,4.98416z"/>
  <path fill="white" d="M176.704 286.653c-3.52006,0.126142 -4.5275,-1.64693 -5.27641,-0.879874 -0.219685,0.557575 2.08091,2.44432 5.27641,0.879874z"/>
  <path fill="white" d="M176.299 285.032c-3.05433,0.126142 -3.92854,-1.64693 -4.57824,-0.879874 -0.190772,0.557575 1.80539,2.44432 4.57824,0.879874z"/>
  <path fill="white" d="M175.857 283.41c-2.95625,0.126142 -3.8024,-1.64693 -4.43112,-0.879874 -0.184819,0.557575 1.74728,2.44432 4.43112,0.879874z"/>
  <circle fill="black" cx="185.512" cy="192.378" r="2.87433"/>
  <circle fill="#CCCCCC" cx="185.07" cy="191.347" r="0.810709"/>
  <path fill="#CCCCCC" d="M169.093 53.2041c-3.71197,-6.05707 -3.49824,-7.27229 -0.177732,-10.3547 5.17096,-4.80047 16.8208,-11.2034 24.2541,-14.0462 1.49244,-5.02668 8.17399,-5.25827 9.43144,0.0136063 5.08734,-3.7474 7.9733,-2.77739 8.65956,2.91062 13.0076,5.84561 14.9553,38.5124 30.5331,44.1873 20.6376,7.51833 35.375,1.80425 56.6453,-4.62671 43.8523,-13.2585 92.361,-5.63244 103.793,-1.70334 62.8382,21.5983 47.3032,-5.20073 68.6214,-1.06498 2.92677,24.9585 -37.8272,29.9934 -76.3453,11.1901 17.2494,13.0388 19.4845,34.145 31.8799,43.6626 9.42492,7.23685 17.4884,-0.215717 19.9429,11.0917 4.3767,20.1609 12.9302,22.5975 8.34038,29.4007 -0.869103,1.28863 -2.53106,3.12208 -8.21622,1.90602 -6.94744,-1.48592 -19.8482,0.319181 -24.1835,-0.0918426l-1.6509 1.92359c-1.24923,-3.10677 1.15965,-6.07663 4.03342,-6.87544 -0.21515,-4.71232 3.38684,-6.33742 12.8262,-5.38016 -9.80136,-29.3352 -27.8532,2.6195 -62.2375,-43.5532 -25.3809,-0.303591 -38.967,1.78554 -45.9363,6.6464l1.72432 -7.02567c-38.6504,-7.09257 -37.9446,23.5497 -82.7859,19.4054 -0.0541418,-2.35502 -0.918426,-4.98047 -2.15093,-7.72838 -0.483307,4.45862 1.74161,5.82718 -2.98006,8.88974 -17.7134,11.4883 -22.4238,30.0118 -26.0935,33.0061 -3.93364,3.2091 -23.4879,-0.905103 -27.6656,0.576567l-0.898583 1.49783c-2.63877,-3.98835 2.30882,-6.61352 5.00967,-7.93815 0.367087,-3.9651 2.16,-6.16111 11.8655,-5.26054 3.32901,-5.6058 4.8892,-19.0236 8.21849,-28.3142 -0.804473,-0.216284 -3.0943,2.60816 -6.91739,2.24447 -8.60174,-0.818079 -23.1474,-2.65465 -32.6197,-2.78362 -0.200976,5.49014 0.43115,9.22678 1.53099,11.8939l1.44709 0.889512c-5.07317,1.08312 -7.70004,-1.09191 -7.56993,-4.23355 -2.25128,0.551906 -4.42573,-2.43865 -6.66681,-6.10044 -2.15575,-3.52233 -2.3434,-11.6833 0.745229,-13.5859 9.21884,-5.67893 32.2895,-2.74932 36.4913,-8.5612 -3.45515,-3.80892 -3.66747,-36.8031 -7.27002,-40.6117 2.808,-0.971434 4.98699,-2.57159 6.53755,-4.80047l-1.21153 -0.164693c-5.09074,4.47903 -17.2987,1.39521 -24.249,-0.618237 -2.55827,-0.740977 -4.11818,-3.08495 -3.80183,-4.39966 4.32114,0.255685 10.7651,0.0396851 12.964,0.767339 -1.16306,-4.37641 -7.67226,-5.60863 -13.8662,-2.28047z"/>
  <path fill="black" d="M447.532 90.6163c15.0296,-1.88589 24.8071,-9.42265 23.3209,-22.0966 -14.3232,-2.77852 -12.0101,8.40728 -28.0089,9.49607l4.68794 12.6006z"/>
  <path fill="#CCCCCC" d="M369.101 113.774l-22.1102 1.17921c-12.7358,2.23795 -26.733,19.1398 -13.6548,28.3813 2.13336,1.50747 4.93399,3.75704 0.603496,6.18463 -2.68271,1.50406 -5.85355,4.43452 -6.55314,6.11688 -7.39503,-1.52419 -13.5366,-1.13131 -15.3298,4.27465 -2.60476,3.09515 -3.98013,5.94482 -2.65323,8.25449l1.15228 -1.69795c4.62586,-1.48677 14.4034,-0.873071 20.9767,-0.00283465 7.17789,0.950174 13.5507,-8.88775 32.0565,-16.7576 3.76923,-1.60299 3.61928,-4.18989 2.27027,-7.20426 -3.48888,-7.79613 -1.38302,-16.6198 2.74479,-22.538 3.04838,-4.37046 3.57449,-5.89607 0.497197,-6.19059z"/>
  <path fill="white" d="M314.12 160.5c2.97071,-5.91563 9.43371,-1.57238 14.1506,-2.35843 1.75493,-4.04873 11.2779,-6.5744 11.617,-10.9063 0.311244,-3.97814 -6.89018,-6.1543 -7.73604,-11.067 -1.28069,-7.43755 4.83959,-16.0124 14.8391,-21.2153 -12.7358,2.23795 -26.733,19.1398 -13.6548,28.3813 2.13336,1.50747 4.93399,3.75704 0.603496,6.18463 -2.68271,1.50406 -5.85355,4.43452 -6.55314,6.11688 -7.39503,-1.52419 -13.5366,-1.13131 -15.3298,4.27465 -2.60476,3.09515 -3.98013,5.94482 -2.65323,8.25449l1.26142 -2.02536c0.169795,-2.68016 2.52199,-3.72331 3.45543,-5.63953z"/>
  <path fill="white" d="M312.752 167.157c0.873071,-4.25622 3.71055,-5.02016 2.83748,-6.1115 -0.731339,-0.403937 -4.11818,1.88334 -2.83748,6.1115z"/>
  <path fill="white" d="M315.447 167.048c0.771591,-3.76044 3.27855,-4.43566 2.50725,-5.39972 -0.6463,-0.356882 -3.63855,1.66394 -2.50725,5.39972z"/>
  <path fill="white" d="M318.227 167.048c0.597544,-3.47103 2.53956,-4.09408 1.94202,-4.98416 -0.500315,-0.329386 -2.81849,1.53581 -1.94202,4.98416z"/>
  <path fill="white" d="M175.543 136.904l1.44709 0.889512c-5.07317,1.08312 -7.70004,-1.09191 -7.56993,-4.23355 -2.25128,0.551906 -4.42573,-2.43865 -6.66681,-6.10044 -2.15575,-3.52233 -2.3434,-11.6833 0.745229,-13.5859 9.21884,-5.67893 32.2895,-2.74932 36.4913,-8.5612 -3.45515,-3.80892 -3.66747,-36.8031 -7.27002,-40.6117 0.701859,-0.242646 1.3646,-0.52526 1.98794,-0.846709l2.90778 2.24561 -0.109134 0.654803 -1.30961 -0.218268 -0.109134 0.54567 2.07354 1.63701 1.96441 3.71055 0 1.96441 -0.654803 -0.109134 -0.763937 -1.74614 -0.436536 1.41874 1.63701 1.74614 0.873071 2.94662 -0.873071 0 -1.20047 -1.74614 -0.327402 1.52787 2.94662 4.03795 -1.85528 -0.982205 0 1.09134 2.18268 2.51008 0.654803 2.29181 -0.436536 0.763937 -1.41874 -2.18268 -0.436536 0.873071 0.218268 0.873071 1.96441 2.51008 0 1.30961 -1.41874 -0.763937 0 1.74614 3.05575 1.96441 -0.109134 1.30961 -1.20047 0 -1.74614 -0.982205 0.218268 1.74614 2.18268 1.09134 0.763937 1.20047 -0.109134 1.30961 -0.982205 0 -0.982205 -2.18268 -0.763937 0 0 1.30961 3.92882 3.71055 0 1.20047 -2.72835 -1.52787 0 1.09134 2.83748 2.29181 1.63701 2.61921 -1.41874 0 -1.52787 -2.29181 -0.654803 0.218268 0.982205 2.29181 1.74614 0.982205 2.18268 2.18268 -2.40095 0 2.07354 2.18268 1.85528 0.982205 1.41874 1.30961 -2.61921 -0.54567 0.763937 1.52787 2.18268 0.982205 0 1.74614 2.07354 1.09134 0.109134 0.654803 1.30961 0c-0.145701,-4.32907 2.21896,-2.11011 -0.654803,-9.38552 4.7727,2.41427 2.92791,9.08363 0.772158,18.3688 -2.22435,9.58026 -6.28385,24.6776 -7.86586,26.0487 -4.08586,-0.285165 -10.472,-2.92479 -11.5682,2.94662 -4.4297,1.50123 -6.48794,3.41632 -5.96977,5.50035l-1.11685 1.60696c-2.63877,-3.98835 2.30882,-6.61352 5.00967,-7.93815 0.367087,-3.9651 2.16,-6.16111 11.8655,-5.26054 3.32901,-5.6058 4.8892,-19.0236 8.21849,-28.3142l0.654803 -1.82693c-5.74781,-2.9829 -11.0954,-9.53122 -13.7509,-16.3701 -3.32334,7.38 -27.8017,3.43474 -35.6278,8.59493 -4.04079,2.66457 0.0195591,16.0098 6.48907,14.978 -1.21011,3.88432 0.199559,5.87707 4.22873,5.97884zm-0.83367 -82.0372c-1.64976,-0.032315 -3.29669,-0.0654803 -4.7143,-0.149102 -0.177732,0.739276 0.237827,1.80454 1.09077,2.72693l3.06595 -0.0756851 0.557575 -2.50214zm36.2996 -24.6144c-0.995812,-4.3526 -3.79814,-4.83109 -8.40841,-1.43518 -1.25745,-5.27188 -7.939,-5.04029 -9.43144,-0.0136063 -7.4333,2.84287 -19.0831,9.24577 -24.2541,14.0462 -3.32051,3.0824 -3.53424,4.29761 0.177732,10.3547 0.386929,-0.20778 0.775276,-0.398551 1.16362,-0.571181l-0.688252 -0.721134 0.873071 -2.29181 -1.30961 0.109134 1.20047 -1.85528 -1.09134 -1.41874 -1.30961 0 1.96441 -1.52787 4.47449 -1.41874 -0.109134 -0.982205 1.85528 -0.54567 0.54567 -0.54567 2.83748 -0.218268 0.0980788 -0.294803 -2.60816 -0.250866 0.763937 -0.54567 3.16488 -0.654803 1.41874 -1.20047 -1.52787 -0.654803 7.31197 -0.54567 1.19764 -0.195307 -5.78126 -0.350362 5.4567 -0.763937 0.327402 -0.327402 6.65717 -0.54567 0.428032 -0.52526 -7.19433 0.0887245 0.654803 -0.54567 7.85764 -0.763937 0.961229 -0.295937 -6.09052 -0.468 0.974552 -0.825166 7.53478 -0.133228 0.439654 -0.569481 -3.05575 -0.436536 0.873071 -0.54567c1.49131,-0.218268 3.52857,-0.654803 5.12929,0.654803 4.31858,-5.54684 3.76271,0.0382677 6.51799,-0.269575zm30.7843 45.6628c20.6376,7.51833 35.375,1.80425 56.6453,-4.62671 43.8523,-13.2585 92.361,-5.63244 103.793,-1.70334 62.8382,21.5983 47.3032,-5.20073 68.6214,-1.06498 -3.29896,1.48139 -6.19172,1.3612 -8.08838,2.49307 -5.68999,3.39619 -6.39752,8.77493 -22.0275,9.60435 -14.9856,0.795402 -36.2622,-9.24038 -50.1724,-11.4622l-1.96441 -0.109134 -0.218268 -0.436536 -1.41874 0 0.327402 1.09134 -4.80189 -1.74614 -2.94662 -0.218268 5.34756 2.72835 -9.60378 -2.61921 -3.60142 -0.109134 7.31197 2.83748 -10.0403 -2.72835 -2.29181 0 7.42111 3.27402 -12.0047 -3.49229 -3.81969 -0.654803 5.23843 2.83748 -10.586 -2.51008 -3.27402 -0.327402 7.53024 3.49229 -13.9691 -3.71055 -3.81969 0 7.31197 3.16488 -10.6951 -2.29181 -3.81969 0.109134 8.07591 2.94662 -12.223 -2.07354 -3.71055 0.218268 7.53024 2.29181 -10.3677 -0.982205 -4.14709 0 6.32977 2.18268 -10.9134 -0.54567 -4.03795 0 8.73071 2.61921 -12.5504 -1.09134 -3.05575 0.109134 1.63701 0.873071 5.7841 1.63701 -15.497 0 -1.09134 0.982205 7.63937 0.218268 -7.0937 1.52787 -6.98457 -0.218268 -1.30961 0.763937 4.80189 0.436536 -1.74614 1.20047 -7.74851 -0.54567 -3.05575 0.218268 3.92882 1.20047 4.47449 0.327402 -7.42111 0.873071 -5.23843 -0.873071 -4.03795 0 6.4389 2.18268 -8.18504 0 -5.12929 -1.63701 -0.763937 1.41874 5.02016 1.09134 -5.67496 0 -2.61921 -1.63701 -1.96441 0.327402 2.94662 1.63701 -4.14709 -0.327402c-4.11789,-3.16715 -11.7281,-5.57037 -13.0085,-9.17377zm201.229 52.7162c-3.79021,-2.44403 -9.86117,-0.0575433 -16.6351,-5.25855 -0.774426,-0.594709 -1.50973,-1.23477 -2.21131,-1.91565l-1.74444 0.40989c8.36674,9.85834 13.8963,6.18407 20.8446,9.27638l-0.253701 -2.51206zm-20.7516 37.048l-1.6509 1.92359c-1.24923,-3.10677 1.15965,-6.07663 4.03342,-6.87544 -0.21515,-4.71232 3.38684,-6.33742 12.8262,-5.38016 -2.8474,-8.52265 -6.39128,-11.8724 -10.8301,-13.4674l3.85795 -0.805323c6.36605,4.80189 12.2956,15.6061 9.27638,17.0249l-2.40095 -1.85528 -1.74614 1.52787c-6.30284,-0.573449 -8.35852,-0.264189 -9.05811,3.49229 -3.32759,1.47147 -4.76391,2.94293 -4.30781,4.41496zm-8.60967 -26.0955c-9.77245,-1.66961 -22.3016,-6.14637 -38.4191,-27.7897 -7.58863,-15.1588 3.37578,-23.5514 -10.9789,-33.6898 13.3467,4.01131 9.71972,9.43711 11.2535,19.7008 1.68463,11.2737 13.0102,32.8028 38.1444,41.7787zm-81.4218 -22.8371c-1.08794,0.521575 -2.06249,1.08624 -2.93358,1.6937l1.72432 -7.02567 0.274677 -0.897733 2.29181 1.30961 -1.35723 4.9201z"/>
  <path fill="#CCCCCC" d="M201.981 28.7754l-6.7663 -0.218268c1.76372,-2.38365 4.45578,-1.98312 6.7663,0.218268z"/>
  <path fill="white" d="M443.686 145.907c-1.71354,-2.40435 -0.184536,-8.4943 -1.89808,-10.8987 -1.33257,-1.86973 -4.58164,-0.497481 -7.24082,-1.92529 0.206646,2.81764 3.70432,2.12995 4.7571,3.47386 1.7314,2.20989 -0.0204095,5.87055 4.3818,9.35008z"/>
  <path fill="white" d="M424.352 167.157c0.873071,-4.25622 3.71055,-5.02016 2.83748,-6.1115 -0.731339,-0.403937 -4.11818,1.88334 -2.83748,6.1115z"/>
  <path fill="white" d="M427.02 167.048c0.688536,-3.35707 2.92649,-3.95944 2.23795,-4.82032 -0.576851,-0.318614 -3.24822,1.48536 -2.23795,4.82032z"/>
  <path fill="white" d="M429.361 167.343c0.522425,-3.03421 2.2201,-3.57903 1.69767,-4.35685 -0.437386,-0.288 -2.46388,1.34249 -1.69767,4.35685z"/>
  <path fill="white" d="M191.384 167.157c0.873071,-4.25622 3.71055,-5.02016 2.83748,-6.1115 -0.731339,-0.403937 -4.11818,1.88334 -2.83748,6.1115z"/>
  <path fill="white" d="M194.079 167.048c0.771591,-3.76044 3.27855,-4.43566 2.50725,-5.39972 -0.6463,-0.356882 -3.63855,1.66394 -2.50725,5.39972z"/>
  <path fill="white" d="M196.859 167.048c0.597544,-3.47103 2.53956,-4.09408 1.94202,-4.98416 -0.500315,-0.329386 -2.81849,1.53581 -1.94202,4.98416z"/>
  <path fill="white" d="M176.704 135.453c-3.52006,0.126142 -4.5275,-1.64693 -5.27641,-0.879874 -0.219685,0.557575 2.08091,2.44432 5.27641,0.879874z"/>
  <path fill="white" d="M176.299 133.832c-3.05433,0.126142 -3.92854,-1.64693 -4.57824,-0.879874 -0.190772,0.557575 1.80539,2.44432 4.57824,0.879874z"/>
  <path fill="white" d="M175.857 132.21c-2.95625,0.126142 -3.8024,-1.64693 -4.43112,-0.879874 -0.184819,0.557575 1.74728,2.44432 4.43112,0.879874z"/>
  <circle fill="black" cx="185.512" cy="41.1784" r="2.87433"/>
  <circle fill="#CCCCCC" cx="185.07" cy="40.1465" r="0.810709"/>
  <path fill="#CCCCCC" d="M168.911 355.604c-3.62665,-6.05707 -3.41773,-7.27229 -0.17348,-10.3547 5.05219,-4.80047 16.4347,-11.2034 23.6974,-14.0462 1.45843,-5.02668 7.98662,-5.25827 9.21515,0.0136063 4.97055,-3.7474 7.79018,-2.77739 8.46085,2.91062 12.7091,5.84561 14.612,38.5124 29.8324,44.1873 20.1643,7.51833 34.5634,1.80425 55.3456,-4.62671 42.846,-13.2585 90.2416,-5.63244 101.411,-1.70334 61.3962,21.5983 49.8175,-5.20073 70.6468,-1.06498 2.85959,24.9585 -40.5593,29.9934 -78.1935,11.1901 16.8537,13.0388 19.0375,34.145 31.1482,43.6626 9.20892,7.23685 17.0873,-0.215717 19.4854,11.0917 4.27635,20.1609 12.6335,22.5975 8.14904,29.4007 -0.84926,1.28863 -2.47295,3.12208 -8.02772,1.90602 -6.78813,-1.48592 -19.3927,0.319181 -23.6285,-0.0918426l-1.6132 1.92359c-1.2206,-3.10677 1.13301,-6.07663 3.94101,-6.87544 -0.210331,-4.71232 3.30917,-6.33742 12.532,-5.38016 -9.57657,-29.3352 -27.2143,2.6195 -60.8094,-43.5532 -24.7986,-0.303591 -38.073,1.78554 -44.8824,6.6464l1.68491 -7.02567c-37.7637,-7.09257 -37.0741,23.5497 -80.8864,19.4054 -0.0530079,-2.35502 -0.897449,-4.98047 -2.10161,-7.72838 -0.472252,4.45862 1.70164,5.82718 -2.91175,8.88974 -17.3069,11.4883 -21.909,30.0118 -25.4945,33.0061 -3.8435,3.2091 -22.949,-0.905103 -27.0309,0.576567l-0.87789 1.49783c-2.57811,-3.98835 2.25581,-6.61352 4.89459,-7.93815 0.358866,-3.9651 2.11068,-6.16111 11.5934,-5.26054 3.25247,-5.6058 4.77695,-19.0236 8.02999,-28.3142 -0.786048,-0.216284 -3.02343,2.60816 -6.75865,2.24447 -8.40445,-0.818079 -22.6165,-2.65465 -31.8714,-2.78362 -0.196441,5.49014 0.421229,9.22678 1.49584,11.8939l1.41392 0.889512c-4.95666,1.08312 -7.52344,-1.09191 -7.39616,-4.23355 -2.19969,0.551906 -4.32425,-2.43865 -6.51374,-6.10044 -2.10643,-3.52233 -2.28983,-11.6833 0.727937,-13.5859 9.00737,-5.67893 31.5485,-2.74932 35.6539,-8.5612 -3.37578,-3.80892 -3.58328,-36.8031 -7.10306,-40.6117 2.74337,-0.971434 4.87247,-2.57159 6.38759,-4.80047l-1.18375 -0.164693c-4.97396,4.47903 -16.9019,1.39521 -23.6925,-0.618237 -2.49959,-0.740977 -4.02378,-3.08495 -3.71481,-4.39966 4.22221,0.255685 10.5182,0.0396851 12.6666,0.767339 -1.13641,-4.37641 -7.49622,-5.60863 -13.5482,-2.28047z"/>
  <path fill="black" d="M444.561 393.016c14.6846,-1.88589 24.2377,-9.42265 22.7857,-22.0966 -13.9947,-2.77852 -11.7346,8.40728 -27.3663,9.49607l4.58051 12.6006z"/>
  <path fill="#CCCCCC" d="M364.329 416.174l-21.6028 1.17921c-12.4435,2.23795 -26.1196,19.1398 -13.3416,28.3813 2.08432,1.50747 4.82088,3.75704 0.589607,6.18463 -2.6212,1.50406 -5.71918,4.43452 -6.40262,6.11688 -7.22552,-1.52419 -13.2262,-1.13131 -14.978,4.27465 -2.54523,3.09515 -3.88885,5.94482 -2.59257,8.25449l1.12592 -1.69795c4.51984,-1.48677 14.0729,-0.873071 20.4953,-0.00283465 7.0132,0.950174 13.2398,-8.88775 31.3209,-16.7576 3.68277,-1.60299 3.53622,-4.18989 2.21811,-7.20426 -3.40866,-7.79613 -1.35128,-16.6198 2.68186,-22.538 2.97836,-4.37046 3.49257,-5.89607 0.485859,-6.19059z"/>
  <path fill="white" d="M310.61 462.9c2.90268,-5.91563 9.21742,-1.57238 13.826,-2.35843 1.71468,-4.04873 11.0191,-6.5744 11.3505,-10.9063 0.303874,-3.97814 -6.73229,-6.1543 -7.55859,-11.067 -1.25121,-7.43755 4.72847,-16.0124 14.4987,-21.2153 -12.4435,2.23795 -26.1196,19.1398 -13.3416,28.3813 2.08432,1.50747 4.82088,3.75704 0.589607,6.18463 -2.6212,1.50406 -5.71918,4.43452 -6.40262,6.11688 -7.22552,-1.52419 -13.2262,-1.13131 -14.978,4.27465 -2.54523,3.09515 -3.88885,5.94482 -2.59257,8.25449l1.2325 -2.02536c0.165827,-2.68016 2.46416,-3.72331 3.37606,-5.63953z"/>
  <path fill="white" d="M309.273 469.557c0.853229,-4.25622 3.62551,-5.02016 2.77257,-6.1115 -0.714615,-0.403937 -4.02378,1.88334 -2.77257,6.1115z"/>
  <path fill="white" d="M311.906 469.448c0.753733,-3.76044 3.20343,-4.43566 2.4497,-5.39972 -0.631276,-0.356882 -3.55521,1.66394 -2.4497,5.39972z"/>
  <path fill="white" d="M314.623 469.448c0.583937,-3.47103 2.48145,-4.09408 1.89751,-4.98416 -0.488977,-0.329386 -2.75386,1.53581 -1.89751,4.98416z"/>
  <path fill="white" d="M175.213 439.304l1.41392 0.889512c-4.95666,1.08312 -7.52344,-1.09191 -7.39616,-4.23355 -2.19969,0.551906 -4.32425,-2.43865 -6.51374,-6.10044 -2.10643,-3.52233 -2.28983,-11.6833 0.727937,-13.5859 9.00737,-5.67893 31.5485,-2.74932 35.6539,-8.5612 -3.37578,-3.80892 -3.58328,-36.8031 -7.10306,-40.6117 0.685701,-0.242646 1.33313,-0.52526 1.9423,-0.846709l2.84088 2.24561 -0.106583 0.654803 -1.27956 -0.218268 -0.106583 0.54567 2.02592 1.63701 1.91934 3.71055 0 1.96441 -0.63978 -0.109134 -0.746363 -1.74614 -0.426614 1.41874 1.59959 1.74614 0.852945 2.94662 -0.852945 0 -1.17298 -1.74614 -0.319748 1.52787 2.87887 4.03795 -1.81276 -0.982205 0 1.09134 2.13279 2.51008 0.63978 2.29181 -0.426614 0.763937 -1.38614 -2.18268 -0.426614 0.873071 0.213165 0.873071 1.91934 2.51008 0 1.30961 -1.38614 -0.763937 0 1.74614 2.98573 1.96441 -0.106583 1.30961 -1.17298 0 -1.70617 -0.982205 0.213449 1.74614 2.13251 1.09134 0.746363 1.20047 -0.106583 1.30961 -0.959812 0 -0.959528 -2.18268 -0.746363 0 0 1.30961 3.83868 3.71055 0 1.20047 -2.6657 -1.52787 0 1.09134 2.77228 2.29181 1.59931 2.61921 -1.38614 0 -1.49273 -2.29181 -0.63978 0.218268 0.959528 2.29181 1.70617 0.982205 2.13251 2.18268 -2.34567 0 2.02592 2.18268 1.81276 0.982205 1.38614 1.30961 -2.55912 -0.54567 0.746363 1.52787 2.13251 0.982205 0 1.74614 2.02592 1.09134 0.106866 0.654803 1.27956 0c-0.142583,-4.32907 2.16794,-2.11011 -0.63978,-9.38552 4.66299,2.41427 2.86073,9.08363 0.7543,18.3688 -2.17332,9.58026 -6.13956,24.6776 -7.6853,26.0487 -3.99203,-0.285165 -10.2317,-2.92479 -11.3029,2.94662 -4.32794,1.50123 -6.33912,3.41632 -5.83257,5.50035l-1.09134 1.60696c-2.57811,-3.98835 2.25581,-6.61352 4.89459,-7.93815 0.358866,-3.9651 2.11068,-6.16111 11.5934,-5.26054 3.25247,-5.6058 4.77695,-19.0236 8.02999,-28.3142l0.63978 -1.82693c-5.616,-2.9829 -10.8408,-9.53122 -13.4354,-16.3701 -3.24709,7.38 -27.1639,3.43474 -34.8103,8.59493 -3.9481,2.66457 0.0189921,16.0098 6.34026,14.978 -1.18261,3.88432 0.19474,5.87707 4.1315,5.97884zm-0.814394 -82.0372c-1.61206,-0.032315 -3.22101,-0.0654803 -4.6063,-0.149102 -0.17348,0.739276 0.232441,1.80454 1.06583,2.72693l2.99566 -0.0756851 0.544819 -2.50214zm35.4665 -24.6144c-0.972851,-4.3526 -3.71084,-4.83109 -8.21537,-1.43518 -1.22854,-5.27188 -7.75673,-5.04029 -9.21515,-0.0136063 -7.26265,2.84287 -18.6452,9.24577 -23.6974,14.0462 -3.24425,3.0824 -3.45317,4.29761 0.17348,10.3547 0.378142,-0.20778 0.757701,-0.398551 1.13698,-0.571181l-0.672378 -0.721134 0.852945 -2.29181 -1.27956 0.109134 1.17298 -1.85528 -1.06639 -1.41874 -1.27956 0 1.91934 -1.52787 4.37188 -1.41874 -0.106583 -0.982205 1.81276 -0.54567 0.533197 -0.54567 2.77228 -0.218268 0.0958111 -0.294803 -2.54835 -0.250866 0.746363 -0.54567 3.09232 -0.654803 1.38614 -1.20047 -1.49273 -0.654803 7.14416 -0.54567 1.17014 -0.195307 -5.6486 -0.350362 5.3314 -0.763937 0.320032 -0.327402 6.50438 -0.54567 0.41811 -0.52526 -7.02907 0.0887245 0.63978 -0.54567 7.67736 -0.763937 0.939119 -0.295937 -5.95077 -0.468 0.952158 -0.825166 7.36186 -0.133228 0.429449 -0.569481 -2.98545 -0.436536 0.852945 -0.54567c1.45701,-0.218268 3.4475,-0.654803 5.01166,0.654803 4.21937,-5.54684 3.67625,0.0382677 6.36832,-0.269575zm30.0779 45.6628c20.1643,7.51833 34.5634,1.80425 55.3456,-4.62671 42.846,-13.2585 90.2416,-5.63244 101.411,-1.70334 61.3962,21.5983 49.8175,-5.20073 70.6468,-1.06498 -3.22328,1.48139 -6.0497,1.3612 -7.90271,2.49307 -5.55959,3.39619 -6.25125,8.77493 -21.5221,9.60435 -14.6418,0.795119 -39.0303,-9.24038 -52.6213,-11.4622l-1.91934 -0.109134 -0.213165 -0.436536 -1.38614 0 0.319748 1.09134 -4.69162 -1.74614 -2.87887 -0.218268 5.22482 2.72835 -9.38353 -2.61921 -3.51865 -0.109134 7.14416 2.83748 -9.80986 -2.72835 -2.23937 0 7.25074 3.27402 -11.7292 -3.49229 -3.7321 -0.654803 5.11824 2.83748 -10.3431 -2.51008 -3.1989 -0.327402 7.35761 3.49229 -13.6488 -3.71055 -3.73181 0 7.14416 3.16488 -10.4499 -2.29181 -3.73181 0.109134 7.89052 2.94662 -11.9427 -2.07354 -3.62523 0.218268 7.35733 2.29181 -10.1299 -0.982205 -4.05184 0 6.18463 2.18268 -10.6631 -0.54567 -3.94526 0 8.5303 2.61921 -12.2624 -1.09134 -2.98545 0.109134 1.59931 0.873071 5.65144 1.63701 -15.1416 0 -1.06611 0.982205 7.46391 0.218268 -6.93071 1.52787 -6.82441 -0.218268 -1.27956 0.763937 4.69162 0.436536 -1.70589 1.20047 -7.57078 -0.54567 -2.98573 0.218268 3.83868 1.20047 4.37188 0.327402 -7.25074 0.873071 -5.11824 -0.873071 -3.94526 0 6.29093 2.18268 -7.99711 0 -5.01166 -1.63701 -0.746363 1.41874 4.90507 1.09134 -5.54485 0 -2.55912 -1.63701 -1.91934 0.327402 2.87915 1.63701 -4.05213 -0.327402c-4.02321,-3.16715 -11.4588,-5.57037 -12.71,-9.17377zm196.612 52.7162c-3.70318,-2.44403 -9.63497,-0.0575433 -16.2536,-5.25855 -0.756567,-0.594709 -1.47487,-1.23477 -2.16057,-1.91565l-1.70419 0.40989c8.17456,9.85834 13.5774,6.18407 20.3661,9.27638l-0.247748 -2.51206zm-20.2754 37.048l-1.6132 1.92359c-1.2206,-3.10677 1.13301,-6.07663 3.94101,-6.87544 -0.210331,-4.71232 3.30917,-6.33742 12.532,-5.38016 -2.78221,-8.52265 -6.24473,-11.8724 -10.5817,-13.4674l3.76951 -0.805323c6.22007,4.80189 12.0135,15.6061 9.0635,17.0249l-2.34595 -1.85528 -1.70589 1.52787c-6.15827,-0.573449 -8.1669,-0.264189 -8.85034,3.49229 -3.25134,1.47147 -4.65449,2.94293 -4.20888,4.41496zm-8.4121 -26.0955c-9.54823,-1.66961 -21.7899,-6.14637 -37.5375,-27.7897 -7.41459,-15.1588 3.29811,-23.5514 -10.7272,-33.6898 13.0405,4.01131 9.49692,9.43711 10.9953,19.7008 1.64608,11.2737 12.7117,32.8028 37.2694,41.7787zm-79.5535 -22.8371c-1.06299,0.521575 -2.01515,1.08624 -2.8664,1.6937l1.68491 -7.02567 0.268158 -0.897733 2.23937 1.30961 -1.32605 4.9201z"/>
  <path fill="#CCCCCC" d="M201.044 331.176l-6.61096 -0.218268c1.72318,-2.38365 4.35345,-1.98312 6.61096,0.218268z"/>
  <path fill="white" d="M437.203 448.307c-1.67414,-2.40435 -0.180284,-8.4943 -1.85443,-10.8987 -1.30195,-1.86973 -4.47647,-0.497481 -7.07471,-1.92529 0.201827,2.81764 3.61928,2.12995 4.64797,3.47386 1.69172,2.20989 -0.0198425,5.87055 4.28117,9.35008z"/>
  <path fill="white" d="M418.313 469.557c0.853229,-4.25622 3.62551,-5.02016 2.77257,-6.1115 -0.714615,-0.403937 -4.02378,1.88334 -2.77257,6.1115z"/>
  <path fill="white" d="M420.919 469.448c0.672662,-3.35707 2.85931,-3.95944 2.18665,-4.82032 -0.563528,-0.318614 -3.17367,1.48536 -2.18665,4.82032z"/>
  <path fill="white" d="M423.206 469.743c0.51052,-3.03421 2.16907,-3.57903 1.65884,-4.35685 -0.427748,-0.288 -2.40747,1.34249 -1.65884,4.35685z"/>
  <path fill="white" d="M190.69 469.557c0.852945,-4.25622 3.62551,-5.02016 2.77228,-6.1115 -0.714615,-0.403937 -4.0235,1.88334 -2.77228,6.1115z"/>
  <path fill="white" d="M193.323 469.448c0.753733,-3.76044 3.20315,-4.43566 2.44942,-5.39972 -0.631276,-0.356882 -3.55493,1.66394 -2.44942,5.39972z"/>
  <path fill="white" d="M196.04 469.448c0.583937,-3.47103 2.48117,-4.09408 1.89751,-4.98416 -0.488977,-0.329386 -2.75386,1.53581 -1.89751,4.98416z"/>
  <path fill="white" d="M176.347 437.853c-3.43899,0.126142 -4.42375,-1.64693 -5.15509,-0.879874 -0.214866,0.557575 2.03301,2.44432 5.15509,0.879874z"/>
  <path fill="white" d="M175.952 436.232c-2.98403,0.126142 -3.8384,-1.64693 -4.47307,-0.879874 -0.18652,0.557575 1.764,2.44432 4.47307,0.879874z"/>
  <path fill="white" d="M175.52 434.61c-2.88822,0.126142 -3.71509,-1.64693 -4.32964,-0.879874 -0.180284,0.557575 1.70731,2.44432 4.32964,0.879874z"/>
  <ellipse fill="black" cx="184.953" cy="343.579" rx="2.80838" ry="2.87433"/>
  <ellipse fill="#CCCCCC" cx="184.521" cy="342.547" rx="0.792106" ry="0.810709"/>
  <path id="path1937_2" fill="#CCCCCC" d="M3.96255 3.00756l147.817 0c0.0153071,32.4448 -38.4554,56.1753 -38.4409,83.242 0.0141732,27.0666 38.5138,51.6161 38.5274,76.8671 0.0136063,25.2513 -38.4602,49.7597 -38.4469,74.6391 0.0130394,24.8791 38.5132,49.5737 38.5263,74.6388 0.0130394,25.0648 -38.4608,48.8308 -38.4466,75.7537 0.0141732,26.9226 38.6365,52.8871 38.5325,80.8113 -0.104315,27.9241 -32.7541,46.5707 -34.092,66.7491 -60.5852,-37.7938 -103.628,-100.742 -114.011,-195.143l0.0340158 -337.558z"/>
  <path id="path1937_3" fill="none" stroke="black" stroke-width="0.992126" d="M0.688819 0.714615l498.87 0 -0.182268 339.851c-34.3179,316.218 -464.275,313.187 -498.722,0l0.0342992 -339.851z"/>
 </g>
</svg>
