<?xml version="1.0" encoding="UTF-8" standalone="no"?>
<!-- Created with Inkscape (http://www.inkscape.org/) -->
<svg
   xmlns:dc="http://purl.org/dc/elements/1.1/"
   xmlns:cc="http://creativecommons.org/ns#"
   xmlns:rdf="http://www.w3.org/1999/02/22-rdf-syntax-ns#"
   xmlns:svg="http://www.w3.org/2000/svg"
   xmlns="http://www.w3.org/2000/svg"
   xmlns:sodipodi="http://sodipodi.sourceforge.net/DTD/sodipodi-0.dtd"
   xmlns:inkscape="http://www.inkscape.org/namespaces/inkscape"
   width="500"
   height="560"
   id="svg1441"
   sodipodi:version="0.32"
   inkscape:version="0.46"
   version="1.0"
   sodipodi:docbase=""
   sodipodi:docname="Liperi.vaakuna.svg"
   inkscape:output_extension="org.inkscape.output.svg.inkscape">
  <defs
     id="defs1443">
    <inkscape:perspective
       sodipodi:type="inkscape:persp3d"
       inkscape:vp_x="0 : 280 : 1"
       inkscape:vp_y="0 : 1000 : 0"
       inkscape:vp_z="500 : 280 : 1"
       inkscape:persp3d-origin="250 : 186.66667 : 1"
       id="perspective9" />
  </defs>
  <sodipodi:namedview
     id="base"
     pagecolor="#ffffff"
     bordercolor="#666666"
     borderopacity="1.0"
     inkscape:pageopacity="0.0"
     inkscape:pageshadow="2"
     inkscape:zoom="0.25"
     inkscape:cx="416.75"
     inkscape:cy="135.54348"
     inkscape:document-units="px"
     inkscape:current-layer="layer1"
     inkscape:window-width="1008"
     inkscape:window-height="732"
     inkscape:window-x="0"
     inkscape:window-y="0"
     showgrid="false" />
  <metadata
     id="metadata1446">
    <rdf:RDF>
      <cc:Work
         rdf:about="">
        <dc:format>image/svg+xml</dc:format>
        <dc:type
           rdf:resource="http://purl.org/dc/dcmitype/StillImage" />
      </cc:Work>
    </rdf:RDF>
  </metadata>
  <g
     inkscape:label="Layer 1"
     inkscape:groupmode="layer"
     id="layer1">
    <path
       style="fill:rgb(178, 176, 177);fill-opacity:1;fill-rule:evenodd;stroke:rgb(0, 0, 0);stroke-width:0.5;stroke-linecap:butt;stroke-linejoin:miter;stroke-opacity:1;stroke-miterlimit:4;stroke-dasharray:none"
       d="M 0.5,0.5 L 499.5,0.5 L 499.5,330 C 499.5,440 380,559.5 250,559.5 C 120,559.5 0.5,440 0.5,330 L 0.5,0.5 z "
       id="path1510"
       sodipodi:nodetypes="cccccc" />
    <path
       style="fill:rgb(236, 29, 37);fill-opacity:1;fill-rule:evenodd;stroke:rgb(0, 0, 0);stroke-width:0.5;stroke-linecap:butt;stroke-linejoin:miter;stroke-opacity:1;stroke-miterlimit:4;stroke-dasharray:none"
       d="M 250.5,49.5 L 280.5,49.5 L 280.5,109.5 L 340.5,109.5 L 340.5,169.5 L 280.5,169.5 L 280.5,239.5 L 350.5,239.5 L 350.5,179.5 L 410.5,179.5 L 410.5,239.5 L 470.5,239.5 L 470.5,299.5 L 410.5,299.5 L 410.5,359.5 L 350.5,359.5 L 350.5,299.5 L 280.5,299.5 L 280.5,369.5 L 340.5,369.5 L 340.5,429.5 L 280.5,429.5 L 280.5,489.5 L 220.5,489.5 L 220.5,429.5 L 160.5,429.5 L 160.5,369.5 L 220.5,369.5 L 220.5,299.5 L 150.5,299.5 L 150.5,359.5 L 90.5,359.5 L 90.5,299.5 L 30.5,299.5 L 30.5,239.5 L 90.5,239.5 L 90.5,179.5 L 150.5,179.5 L 150.5,239.5 L 220.5,239.5 L 220.5,169.5 L 160.5,169.5 L 160.5,109.5 L 220.5,109.5 L 220.5,49.5 L 250.5,49.5 z "
       id="path2387" />
    <path
       style="fill:#cccccc;fill-opacity:1;stroke:none;stroke-width:0.5;stroke-linejoin:miter;stroke-miterlimit:4;stroke-dasharray:none;stroke-opacity:1"
       d="M 231.98624,558.04547 C 226.67118,557.56828 217.03234,556.21644 210.56661,555.04137 C 106.39163,536.10876 13.23193,442.88132 2.19277,346.516 C 1.53087,340.73795 1.1635,277.81276 1.1582,169.30652 L 1.15,1.05652 L 250.15,1.05652 L 499.15,1.05652 L 499.13419,165.30652 C 499.1247,263.61943 498.72524,334.30104 498.13912,341.37516 C 490.40012,434.77983 404.81154,527.08686 302.74825,552.10356 C 280.48637,557.56013 252.63261,559.89904 231.98624,558.04545 L 231.98624,558.04547 z M 281.15,460.05652 L 281.15,430.05652 L 311.15,430.05652 L 341.15,430.05652 L 341.15,399.55652 L 341.15,369.05652 L 311.15,369.05652 L 281.15,369.05652 L 281.15,334.55652 L 281.15,300.05652 L 315.65,300.05652 L 350.15,300.05652 L 350.15,330.05652 L 350.15,360.05652 L 380.65,360.05652 L 411.15,360.05652 L 411.15,330.05652 L 411.15,300.05652 L 441.15,300.05652 L 471.15,300.05652 L 471.15,269.55652 L 471.15,239.05652 L 441.15,239.05652 L 411.15,239.05652 L 411.15,209.05652 L 411.15,179.05652 L 380.65,179.05652 L 350.15,179.05652 L 350.15,209.05652 L 350.15,239.05652 L 315.65,239.05652 L 281.15,239.05652 L 281.15,204.55652 L 281.15,170.05652 L 311.15,170.05652 L 341.15,170.05652 L 341.15,139.55652 L 341.15,109.05652 L 311.15,109.05652 L 281.15,109.05652 L 281.15,79.05652 L 281.15,49.05652 L 250.65,49.05652 L 220.15,49.05652 L 220.15,79.05652 L 220.15,109.05652 L 190.15,109.05652 L 160.15,109.05652 L 160.15,139.55652 L 160.15,170.05652 L 190.15,170.05652 L 220.15,170.05652 L 220.15,204.55652 L 220.15,239.05652 L 185.65,239.05652 L 151.15,239.05652 L 151.15,209.05652 L 151.15,179.05652 L 120.65,179.05652 L 90.15,179.05652 L 90.15,209.05652 L 90.15,239.05652 L 60.15,239.05652 L 30.15,239.05652 L 30.15,269.55652 L 30.15,300.05652 L 60.15,300.05652 L 90.15,300.05652 L 90.15,330.05652 L 90.15,360.05652 L 120.65,360.05652 L 151.15,360.05652 L 151.15,330.05652 L 151.15,300.05652 L 185.65,300.05652 L 220.15,300.05652 L 220.15,334.55652 L 220.15,369.05652 L 190.15,369.05652 L 160.15,369.05652 L 160.15,399.55652 L 160.15,430.05652 L 190.15,430.05652 L 220.15,430.05652 L 220.15,460.05652 L 220.15,490.05652 L 250.65,490.05652 L 281.15,490.05652 L 281.15,460.05652 z"
       id="path3152" />
  </g>
</svg>
