<?xml version="1.0" encoding="UTF-8"?>
<!DOCTYPE svg PUBLIC "-//W3C//DTD SVG 1.1//EN" "http://www.w3.org/Graphics/SVG/1.1/DTD/svg11.dtd">
<!-- Creator: CorelDRAW -->
<svg xmlns="http://www.w3.org/2000/svg" xml:space="preserve" width="500px" height="552px" shape-rendering="geometricPrecision" text-rendering="geometricPrecision" image-rendering="optimizeQuality" fill-rule="evenodd" clip-rule="evenodd"
viewBox="0 0 500 552"
 xmlns:xlink="http://www.w3.org/1999/xlink"
 xmlns:svg="http://www.w3.org/2000/svg"
 version="1.0">
 <g id="Layer_x0020_1">
  <metadata id="CorelCorpID_0Corel-Layer"/>
  <path id="path1937" fill="#0057F0" stroke="black" stroke-width="0.992126" d="M0.482173 0.987875l498.966 -0.631843 0.0776693 315.108c-31.9351,314.804 -466.904,314.824 -499.054,0.0788032l0.0107717 -314.555z"/>
  <path fill="black" d="M441.714 344.901c-4.76844,1.87597 -12.4546,-11.4551 -35.6241,-0.540284 0.587622,-4.00762 4.2531,-3.35339 3.76583,-11.6592 -3.78142,1.36375 -7.86926,2.43326 -11.6527,6.25493 1.20473,-10.5894 0.393732,-12.7089 -3.96,-14.3785 0.837355,21.7006 -25.0829,31.4949 -21.8945,59.9239 -0.785481,6.55739 -5.70048,8.3744 -9.85097,11.2623 -8.4824,-9.1063 -0.479055,-14.4238 -1.62992,-27.4561 -0.540284,-6.12 -2.47606,-12.7321 -6.55909,-17.6587 -3.94923,-4.3424 -5.30674,-19.211 -7.75389,-25.9305 -2.76577,2.23143 -3.94555,8.97364 -5.10605,13.2123 -2.26602,-1.66932 -3.1303,-5.1738 -5.65229,-9.28886 -1.40372,4.19131 -3.17055,9.54908 -2.43411,14.8116 -3.81147,-3.46706 -10.9769,-6.44712 -16.1376,-6.65462 -9.68174,-0.389764 -12.9798,5.77389 -18.6863,4.46599 0.161858,4.13292 -0.602079,3.23206 -1.69739,8.1978 -1.40825,6.38533 0.547087,15.2538 3.91606,19.5894 -2.75925,-0.989859 -5.04,0.714331 -8.86961,1.86576 2.7411,3.98353 5.544,6.05622 8.28908,7.33352 -7.66829,-0.6103 -8.76303,-0.532914 -12.1504,4.20917 9.37985,-1.21436 28.618,21.2386 43.9237,17.4682 8.86876,-2.18466 16.9135,-6.98599 25.251,5.39122 -35.4478,35.9581 -23.8782,81.2101 -53.898,102.126l5.8663 15.1342c40.879,-32.171 15.9815,-67.2923 52.8154,-108.697 4.2378,5.99046 -4.30101,8.0178 -3.8761,22.1692 0.216284,11.302 9.6086,25.9708 6.91966,44.4595 6.57241,-3.51808 4.27663,-8.86933 7.4846,-12.6933 2.15802,5.62819 3.70006,8.60599 5.85666,10.1421 0.645166,-3.17962 1.44198,-8.55043 1.47543,-13.3605 23.7983,13.5502 22.822,3.54955 33.1625,4.55981 1.54091,-12.094 9.40139,-12.4143 0.641764,-26.9524 6.48397,0.499465 5.01647,1.05024 11.4999,-1.71326l-10.5747 -7.63682c8.36589,-0.0878741 14.6429,0.792284 14.8499,-2.55827 -20.2303,-2.33802 -23.8451,-16.4415 -38.6323,-19.7691 -7.776,-1.74954 -14.0428,-4.06914 -21.3514,-3.47698 7.82618,-19.5052 27.2393,-4.65307 33.965,-5.14318 10.9534,1.53383 25.7199,-9.01956 44.1485,-8.25279 1.52787,-1.77846 -3.85257,-4.8807 -13.4033,-9.29963 3.78936,0.567496 7.5977,0.0496063 10.3113,-0.715465 -1.48649,-3.72614 -5.25912,-2.68384 -12.0991,-5.33849 15.3944,-8.59692 7.60394,-23.4666 9.35122,-33.4032z"/>
  <path fill="black" d="M64.2433 341.078c4.81238,2.41767 18.4655,-9.27355 32.8717,1.75266 -0.587622,-4.00762 -1.04173,-7.63484 -0.554457,-15.9406l8.28851 9.00539c-2.12145,-8.90873 0.829418,-14.8476 5.18315,-16.5172 -0.225638,25.3709 27.072,37.6101 23.8836,66.0391 2.00891,5.0281 1.72432,7.76268 5.87481,10.6506 8.4824,-9.1063 2.46529,-17.6298 3.61701,-30.6627 0.540851,-6.12085 3.69383,-12.2562 7.93474,-17.0476 3.03166,-3.42482 1.33228,-13.557 5.00287,-21.4999 2.76577,2.23143 3.33383,10.8088 4.49433,15.0474 2.26602,-1.66932 3.43616,-5.78551 5.95814,-9.90057 1.40372,4.19131 4.08813,6.79635 3.35169,12.0589 5.0349,-3.1612 10.1857,-8.5595 15.2201,-9.7132 5.70586,-1.30734 11.2986,2.10501 17.005,0.797103 -0.161858,4.13292 2.58888,9.04139 3.68447,14.0077 1.40882,6.38561 -2.07638,13.1128 -5.44536,17.4484 2.75925,-0.989859 8.40501,0.715181 12.2346,1.86662 -2.7411,3.98353 -3.86192,4.37471 -6.607,5.652 8.69159,1.94854 9.83367,2.07269 12.6074,5.27981 -12.4356,-1.51994 -23.7498,12.2488 -36.8864,15.6342 -13.9844,3.60369 -28.9897,-1.62 -33.2878,4.84668l0.846142 3.75647c33.7672,35.1941 16.3865,81.6656 50.9942,102.582l-8.15953 14.5239c-46.3904,-30.1853 -16.2876,-68.0539 -48.2278,-110.682l-2.05058 0.952158c-0.216567,11.3023 5.6829,12.2063 5.4669,23.5083 -0.216,11.3017 -11.7502,27.1931 -9.21402,44.0011 -6.57241,-3.51808 -2.74564,-7.64788 -5.95361,-11.4718 -2.15802,5.62819 -4.00536,11.0537 -6.16196,12.5898 -3.70375,-3.48548 -4.65477,-8.09263 -3.46479,-13.2086 -17.3753,8.9623 -23.4337,3.54955 -33.7743,4.55981 -1.54091,-12.094 -8.33188,-19.141 1.03947,-33.9849 -6.48397,0.499465 -10.8272,2.42617 -17.3106,-0.337323l6.9035 -4.2721c-8.36589,-0.0878741 -11.7357,-1.19565 -12.5544,-6.38136 25.7358,-2.64388 33.1716,-15.3695 47.9602,-18.6987 7.7777,-1.75096 15.1143,0.212882 17.2233,-2.25354 -9.3515,-11.5549 -16.9982,-2.81821 -23.724,-3.30832 -14.6183,-1.06583 -26.6358,-6.41877 -48.1201,-3.66577 0.00708662,-0.857481 1.97688,-4.41666 8.96854,-10.3711 -3.78936,0.567496 -7.13821,1.27417 -9.85182,0.509103 1.48649,-3.72614 4.34013,-9.86996 11.1801,-12.5246 -15.3944,-23.584 -4.69871,-24.6903 -6.44599,-34.6269z"/>
  <polygon fill="black" points="254.588,538.143 195.535,478.045 231.151,436.173 229.937,276.452 152.624,276.382 153.196,312.039 112.771,313.09 112.574,241.134 133.891,241.213 133.357,86.6861 114.048,86.7042 97.0705,139.61 70.4608,139.61 70.767,49.3815 435.044,48.464 435.656,138.386 405.376,138.386 383.811,84.5632 370.925,84.5451 370.085,235.708 392.014,235.629 391.817,312.173 353.111,312.198 353.218,276.688 271.898,276.146 271.907,430.974 310.887,473.763 "/>
  <polygon fill="#CCCCCC" points="250.612,535.085 194.006,477.127 231.763,431.586 230.549,271.864 146.782,271.794 146.277,308.527 113.383,308.502 113.186,236.546 134.503,236.626 133.968,82.0982 114.66,82.1163 97.6822,135.022 71.0725,135.022 71.3787,44.7937 429.845,45.4054 430.151,133.187 403.541,133.187 383.199,81.1987 366.031,81.1806 365.497,235.708 386.814,235.629 386.617,307.585 353.722,307.61 353.83,272.1 267.31,272.17 267.014,432.503 305.382,476.515 "/>
  <rect fill="black" x="166.195" y="81.4967" width="33.6444" height="154.459"/>
  <rect fill="#0057F0" x="171.7" y="85.4728" width="33.3386" height="157.517"/>
  <polygon fill="white" points="199.839,236.261 199.839,85.4728 205.039,85.4728 205.039,242.99 171.7,242.99 171.7,236.261 "/>
  <rect fill="black" x="232.524" y="81.4967" width="33.6444" height="154.459"/>
  <rect fill="#0057F0" x="238.03" y="85.4728" width="33.3386" height="157.517"/>
  <polygon fill="white" points="266.169,236.261 266.169,85.4728 271.368,85.4728 271.368,242.99 238.03,242.99 238.03,236.261 "/>
  <rect fill="black" x="300.924" y="81.4967" width="33.6444" height="154.459"/>
  <rect fill="#0057F0" x="306.43" y="85.4728" width="33.3386" height="157.517"/>
  <polygon fill="white" points="334.569,236.261 334.569,85.4728 339.768,85.4728 339.768,242.99 306.43,242.99 306.43,236.261 "/>
  <polygon fill="#0057F0" points="249.388,455.256 230.425,475.748 252.141,498.993 271.104,478.501 "/>
  <polygon fill="black" points="249.388,455.256 230.425,475.748 248.295,494.876 252.141,489.818 238.377,476.054 252.94,459.057 "/>
  <polygon fill="white" points="250.918,461.679 265.599,476.36 248.142,494.713 252.141,498.993 271.104,478.501 252.787,458.894 "/>
  <path fill="white" d="M230.58 276.026l1.18233 155.559 -37.7566 45.5414 56.6056 57.9578 2.21925 -2.37373 -53.2976 -54.5159 36.3972 -41.9026 -0.917575 -160.27 -4.43254 0.00340158zm128.305 31.5797l-5.16303 0.00396851 0.092693 -30.6692 5.07062 -0.000283465 -0.000283465 30.6655zm27.9125 -66.1468l0.0161575 -5.83002 -18.449 0.068315 0.308126 6.06926 18.1247 -0.307559zm21.331 -108.272l-4.58788 0 -18.8351 -48.1366 4.15389 -0.494929 19.2691 48.6315zm-330.633 -81.6642l-0.917859 83.4993 -5.50545 0 0.306142 -90.2282 358.466 0.611717 0.0232441 6.72974 -352.372 -0.612567zm61.4775 33.9503l0 157.517 -20.7984 0.305858 0 65.2099 -4.79225 -0.00340158 -0.197008 -71.9558 21.3171 0.0790867 -0.522992 -151.154 4.99351 0.000850394z"/>
  <path fill="#BF9F4F" stroke="black" stroke-width="0.216" d="M66.0785 342.302c4.81238,2.41767 18.4655,-9.27355 32.8717,1.75266 -0.587622,-4.00762 -1.04173,-7.63484 -0.554457,-15.9406l8.28851 9.00539c-2.12145,-8.90873 -0.394016,-14.8476 3.95972,-16.5172 -3.59008,22.0065 24.931,36.3867 21.7426,64.8156 2.00891,5.0281 5.08876,8.98611 9.23925,11.8741 8.4824,-9.1063 2.15915,-22.2174 3.31115,-35.2505 0.541134,-6.12114 3.3874,-11.3383 7.62889,-16.13 3.03194,-3.42539 1.02643,-11.7218 4.69701,-19.6648 2.76577,2.23143 2.72211,9.2795 3.88262,13.5181 2.26602,-1.66932 4.04788,-4.56208 6.56986,-8.67714 1.40372,4.19131 1.94712,7.71393 1.21068,12.9764 5.0349,-3.1612 9.2676,-6.72407 14.3025,-7.87805 5.70614,-1.30791 12.2162,1.79915 17.9226,0.491244 -0.161858,4.13292 4.42375,8.73525 5.51962,13.7018 1.4091,6.38589 -0.852945,13.1128 -4.22192,17.4484 2.75925,-0.989859 5.65229,-0.508252 9.48189,0.643181 -2.7411,3.98353 -5.69707,5.59814 -8.44215,6.87544 7.66829,-0.6103 13.1961,1.45531 16.5835,6.19739 -12.4356,-1.51994 -23.1378,11.3312 -36.2747,14.7166 -13.9844,3.60397 -28.9897,-1.62 -33.2878,4.84668l-1.29487 4.36819c33.7672,35.1941 14.5514,79.2187 53.1352,101.97l-8.15953 14.5239c-46.3904,-30.1853 -18.1227,-70.8066 -50.063,-113.435l-2.6623 3.39903c-0.216567,11.3023 5.37761,12.5118 5.16104,23.8142 -0.216284,11.3023 -8.99745,27.1931 -6.46129,44.0011 -6.57241,-3.51808 -6.11008,-6.7303 -9.31805,-10.5542 -2.15802,5.62819 -3.08778,11.3596 -5.24438,12.8957 -3.70375,-3.48548 -4.96063,-7.78678 -3.77065,-12.9027 -17.3753,8.9623 -20.681,2.02025 -31.0215,3.03052 -1.54091,-12.094 -8.33188,-19.141 1.03947,-33.9849 -6.48397,0.499465 -12.9682,-0.0206929 -19.4516,-2.78419l10.8797 -3.66038c-8.36589,-0.0878741 -14.1826,-1.19565 -14.3895,-4.54621 25.7358,-2.64388 33.1716,-15.3695 47.9602,-18.6987 7.7777,-1.75096 15.1143,0.212882 17.2233,-2.25354 -11.7984,-15.2252 -21.5861,-4.3475 -28.3119,-4.83761 -14.6183,-1.06583 -23.2713,-7.33635 -44.7557,-4.58334 0.00708662,-0.857481 3.20032,-4.72252 10.192,-10.677 -3.78936,0.567496 -7.44407,1.27417 -10.1577,0.509103 1.48649,-3.72614 4.64599,-7.11723 11.486,-9.77188 -15.3944,-23.584 -4.69871,-24.6903 -6.44599,-34.6269z"/>
  <path fill="#BF9F4F" d="M440.645 343.831c-4.63295,2.41795 -11.8718,-9.2744 -35.3186,0.529229 0.587622,-4.00762 4.10032,-3.96454 3.61304,-12.2703 -3.78142,1.36375 -7.56369,4.87786 -11.3471,8.69953 2.12145,-8.90873 0.0881575,-15.1535 -4.26558,-16.8231 0.837355,21.7006 -24.0134,33.6339 -20.825,62.0629 -0.785481,6.55739 -5.70048,8.3744 -9.85097,11.2623 -8.4824,-9.1063 -2.15943,-17.0181 -3.31115,-30.0509 -0.540851,-6.12085 -3.54586,-14.8737 -7.62889,-19.8003 -4.86681,-5.87169 -3.16743,-14.1687 -5.61459,-20.8882 -2.76577,2.23143 -3.33383,8.66778 -4.49433,12.9064 -2.26602,-1.66932 -3.1303,-5.1738 -5.65229,-9.28886 -1.40372,4.19131 -3.17055,9.54908 -2.43411,14.8116 -5.0349,-3.1612 -11.8945,-6.14126 -17.0552,-6.34876 -9.68174,-0.389764 -10.9928,3.94016 -16.6992,2.63225 0.161858,4.13292 -1.05959,4.14766 -2.15518,9.11396 -1.40882,6.38561 1.46466,15.5597 4.83364,19.8953 -2.75925,-0.989859 -5.95814,0.103465 -9.78775,1.2549 2.7411,3.98353 5.39122,5.29229 8.13629,6.56958 -7.66829,-0.6103 -10.7493,-0.685701 -14.1367,4.05638 12.4356,-1.51994 23.1387,14.0848 40.8626,17.1635 10.0828,1.75153 25.0206,-7.29185 29.0761,4.47364 -35.4478,35.9581 -24.3377,83.3483 -54.3575,104.265l7.54781 12.9946c34.4619,-29.5736 15.9817,-68.9715 52.8157,-110.376 5.76567,8.74063 -3.99544,13.3654 -3.57052,27.5168 0.216284,11.302 10.8309,21.3871 5.69736,41.4037 6.57241,-3.51808 5.49893,-6.57752 8.7069,-10.4015 2.15802,5.62819 4.31121,7.68926 6.46781,9.22536 0.645166,-3.17962 0.0668977,-7.48092 0.100347,-12.291 23.7983,13.5502 22.822,3.54955 33.1625,4.55981 1.54091,-12.094 8.33188,-14.8589 -0.427748,-29.397 6.48397,0.499465 5.62762,1.5086 12.111,-1.2549l-11.4914 -7.9424c8.36589,-0.0878741 16.3236,0.639496 16.5305,-2.71106 -20.2303,-2.33802 -24.6079,-16.2876 -39.3962,-19.6163 -7.77714,-1.75068 -18.1729,-0.704693 -20.2819,-3.17112 7.52032,-17.3642 21.5861,-4.65336 28.3119,-5.14347 16.7593,1.38104 27.5533,-10.0891 49.0377,-7.33607 1.52787,-1.77846 -3.69978,-3.81118 -13.2506,-8.23011 3.78936,0.567496 8.36164,-1.17269 11.0752,-1.93776 -1.48649,-3.72614 -6.787,-4.36451 -13.627,-7.01915 15.3944,-8.59692 7.14558,-23.1611 8.89285,-33.0976z"/>
  <path fill="#644D36" d="M158.547 341.375c-8.71739,16.9985 -13.7205,33.4624 -6.42133,47.2034l-4.28202 4.58788c12.4194,2.48627 26.1916,1.40627 41.5967,-3.97616l-0.611717 -1.22343c6.84567,-2.06249 3.94753,-4.35458 24.7745,-7.03474 -4.12951,-0.432 -8.48013,-0.313512 -13.1519,0.611717l0.917575 -3.05858c-2.43213,3.00558 -7.25528,5.34926 -11.3139,5.91251 -1.11628,-1.17383 7.91178,-4.40022 8.86706,-6.21837 -2.70624,0.281197 -5.97742,2.4052 -9.78747,4.28202l6.72889 -7.03474c-3.77377,0.920977 -12.2287,9.57629 -15.9007,9.98873l6.72492 -6.62429c-8.24627,5.76085 -16.0861,9.89802 -23.2452,11.3168 10.6152,-6.8984 19.1098,-13.4572 22.9394,-19.2691 -8.49289,7.38624 -16.2791,13.4388 -22.3277,16.2105 0.109701,-3.77377 11.9225,-8.66665 13.1519,-13.4578l-15.5988 11.9285 -2.75273 -0.917575 3.05858 -3.36444 0.611717 -3.36444c-2.14101,1.93691 -2.95909,4.07764 -6.42303,5.81131 2.85449,-4.58788 3.0634,-10.0916 8.56404,-13.7636 1.48677,-1.656 3.13512,-2.82898 4.89373,-3.6703 -1.224,0.255402 -2.82132,1.07093 -4.58788,2.14101 -0.151937,-1.63219 0.629292,-3.63714 1.83515,-5.81131 -2.15575,1.09247 -3.50532,3.63572 -4.30328,7.17137l-4.87247 4.7571c1.46268,-4.1811 3.77405,-8.8716 7.95232,-14.6812 -4.25594,2.45877 -7.92227,9.62646 -11.6226,16.5164 -0.79852,-7.92539 1.01055,-14.8076 4.28202,-21.1042 -2.53077,2.19657 -4.84158,7.29326 -6.83065,14.3753 0.235843,-4.89288 0.812693,-9.9224 3.77206,-15.9046 -1.83515,3.36444 -3.26325,7.33975 -4.99663,10.3992 2.53219,-7.63767 5.28492,-15.3689 8.35937,-22.7347z"/>
  <polygon fill="#644D36" points="184.852,340.253 181.182,342.7 180.876,344.229 182.405,343.923 186.076,341.17 "/>
  <polygon fill="#644D36" points="184.301,343.244 180.176,347.522 180.482,350.119 179.259,352.258 181.398,350.73 180.787,352.869 185.676,351.953 189.038,350.883 189.191,347.827 190.26,346.758 190.26,344.008 185.982,343.702 "/>
  <polygon fill="#644D36" points="200.038,355.772 199.58,357.911 197.441,359.286 194.691,358.522 189.955,362.801 189.038,357.911 191.024,353.022 192.857,353.022 194.844,355.008 198.205,353.786 "/>
  <polygon fill="#644D36" points="203.705,350.119 204.011,356.842 205.233,359.592 201.261,364.787 202.33,367.231 200.344,367.231 199.58,365.703 195.455,370.134 195.455,367.843 198.816,363.412 201.261,359.134 201.414,353.939 "/>
  <polygon fill="#644D36" points="178.495,340.799 178.801,343.397 172.384,344.466 172.842,342.021 "/>
  <path fill="#644D36" d="M201.108 376.246l8.25052 -6.1115c-2.29125,3.18303 -5.14347,4.96545 -8.25052,6.1115z"/>
  <path fill="white" d="M188.427 365.703l11.3063 -3.51411c-3.36104,2.59739 -7.12942,3.76838 -11.3063,3.51411z"/>
  <path fill="white" d="M176.662 357.606l11.0007 -2.13902c-3.36076,1.9097 -6.82356,1.85811 -11.0007,2.13902z"/>
  <path fill="white" d="M170.245 348.133l5.95871 -1.52787c-3.36076,1.9097 -1.78158,1.24696 -5.95871,1.52787z"/>
  <path fill="white" d="M197.136 371.968l11.0007 -2.13902c-3.36076,1.9097 -6.82356,1.85811 -11.0007,2.13902z"/>
  <path fill="white" d="M201.108 343.091l-8.40331 -3.36132c4.22703,0.10148 7.02794,1.22173 8.40331,3.36132z"/>
  <path fill="white" d="M191.024 343.702l9.16725 -1.06951c-3.36076,1.9097 -4.99011,0.788599 -9.16725,1.06951z"/>
  <path fill="#644D36" d="M125.937 373.19l1.83345 -2.90296c-3.60907,-6.66511 -8.00193,-12.0254 -12.8341,-16.6538l-0.916725 1.2223c2.08828,1.88447 4.17629,4.07452 5.80592,6.56986l0.458362 3.20854c1.78271,1.73169 4.17629,5.75518 5.65314,8.5561z"/>
  <path fill="#644D36" d="M108.06 355.161c9.08278,8.77692 12.0138,17.3152 16.1955,25.5155 0.414709,-8.50479 -6.81931,-17.0099 -16.1955,-25.5155z"/>
  <path fill="#644D36" d="M114.172 365.856l-4.43084 -5.19477c2.24079,1.42583 3.56485,3.00473 4.43084,5.19477z"/>
  <path fill="#644D36" d="M122.422 380.677c-3.85767,-7.18044 -8.92489,-13.3937 -14.8204,-18.9456l6.41707 8.25052 -0.305575 1.98624 8.70889 8.70889z"/>
  <path fill="#644D36" d="M123.645 383.732c-8.09774,-6.59481 -15.9406,-13.5717 -23.2237,-21.3902l6.26429 8.09774 0 1.68066c3.20882,3.87099 8.86196,7.7417 16.9594,11.6118z"/>
  <path fill="#644D36" d="M118.603 385.26l-1.2223 2.13902c-6.00974,-3.61588 -11.8154,-7.84262 -17.4178,-12.6814l-0.152787 -1.52787c-2.03698,-1.98624 -2.24079,-3.6669 -3.36132,-5.50035 4.80076,5.6727 11.6507,11.4919 22.1542,17.5706z"/>
  <path fill="#644D36" d="M132.048 403.136l2.90296 -3.20854 -0.152787 -2.13902c-3.89566,-4.93966 -10.2107,-6.97692 -18.1817,-7.02822 -7.43556,-5.95871 -11.6626,-7.48659 -22.307,-17.8761l0.305575 3.6669c3.75619,2.70567 7.14303,5.59616 10.084,8.70889 -1.98595,-0.254551 -4.176,-1.32378 -6.56986,-3.20854 0.0510236,3.41235 5.29682,5.44961 7.48659,8.40331 -6.41707,-0.101764 -11.7646,-8.91241 -18.7929,-12.6814l0.61115 2.90296c-1.62964,-1.42583 -3.41206,-2.39358 -4.8892,-4.27805l0.763937 3.20854c-9.60067,0.916441 -13.3183,2.39386 -14.362,4.12526 4.94022,-0.305575 9.57487,0.305575 14.362,0.458362l-0.305575 2.4446c-4.22703,-0.203528 -7.84262,1.22287 -10.8479,4.27805 8.047,-0.305575 22.5108,6.26429 32.3909,6.41707l-2.75017 2.75017c6.06076,-3.71792 12.3764,-0.814678 15.2787,-5.50035 7.85622,1.32463 13.2296,3.97276 14.9732,8.5561z"/>
  <polygon fill="#644D36" points="84.3784,345.23 90.4899,351.953 90.3371,355.161 87.8925,354.856 81.781,348.133 "/>
  <polygon fill="#644D36" points="83.4616,364.634 78.5724,357.759 77.8085,359.898 73.6832,353.022 72.7665,354.397 69.7108,353.328 69.8636,358.828 73.0721,363.259 74.7528,363.412 75.0583,361.425 76.4334,361.884 77.8085,364.176 "/>
  <path fill="#644D36" d="M68.0301 358.981c-0.763937,7.79216 3.6669,10.3895 5.50035,15.5843l2.75017 0.152787 0 -2.29181c-3.81969,-2.9537 -5.50035,-8.96344 -8.25052,-13.4453z"/>
  <path fill="white" d="M82.8505 367.995l-9.62561 -0.458362c2.74989,1.29884 6.06019,1.19679 9.62561,0.458362z"/>
  <path fill="#644D36" d="M91.2538 427.888c7.13055,-6.01002 14.8717,-10.7975 23.2237,-14.362l-1.2223 -1.2223c-7.97046,3.33553 -15.6603,8.22445 -23.2237,13.5981l1.2223 1.98624z"/>
  <path fill="#644D36" d="M98.1292 431.249l0.458362 5.04199c6.00293,-7.94183 13.4002,-14.7215 21.8486,-20.6263l-3.20854 0c-6.77367,3.76866 -13.14,8.96372 -19.0984,15.5843z"/>
  <path fill="#644D36" d="M127.464 416.276l-2.13902 -1.37509c-8.56857,5.56356 -15.9786,11.9551 -21.6958,19.5568l-1.37509 4.43084 1.98624 -1.06951c5.48107,-8.31147 13.6681,-15.2697 23.2237,-21.543z"/>
  <path fill="#644D36" d="M130.367 417.804c-5.55109,5.80592 -11.408,11.4591 -16.6538,17.4178l-0.458362 -0.763937 -6.26429 6.26429 0.305575 -2.29181c4.99125,-6.1115 13.9547,-14.0564 20.9319,-21.0847l2.13902 0.458362z"/>
  <path fill="#644D36" d="M132.201 419.026c-2.04973,8.18646 -5.58907,15.5458 -11.3063,21.6958l-3.6669 1.37509 0.61115 -2.4446c4.99153,-4.68539 8.96457,-10.135 10.6951,-17.265l3.6669 -3.36132z"/>
  <path fill="#644D36" d="M136.632 422.999c-0.203244,14.0562 -5.29625,24.6492 -15.2787,31.7798 -0.0507402,-0.865985 -0.101764,-1.73169 -0.152787,-2.59739 5.91392,-7.43188 11.3168,-15.2212 13.1397,-25.5155l1.2223 -3.97247 1.06951 0.305575z"/>
  <path fill="#644D36" d="M124.103 447.903l9.01446 -21.8486c-0.935434,7.48914 -4.00366,14.7657 -9.01446,21.8486z"/>
  <path fill="#644D36" d="M137.243 415.512c7.63937,22.1542 -18.4873,44.3084 -11.4591,60.5038 0.789733,-10.2878 2.31789,-11.103 3.81969,-16.6538l0.152787 1.83345 2.59739 -2.13902 0.152787 6.41707 1.83345 0.458362 2.29181 7.79216c-0.356599,-10.2878 1.12025,-18.8949 4.43084,-28.5713 2.54239,-2.41115 1.1126,-6.0446 1.66904,-9.06662 0.640347,0.0643465 1.28098,1.91849 1.92189,4.0286 0.891213,-4.20378 -0.458646,-7.00611 -2.82699,-9.17122l-1.52787 -15.7371 -3.05575 0.305575z"/>
  <polygon fill="#644D36" points="92.7817,438.583 90.6427,445.611 90.6427,449.889 93.5456,445.306 93.6984,438.736 "/>
  <polygon fill="#644D36" points="99.1988,448.362 92.4761,453.709 92.9345,457.834 93.5456,462.265 94.6151,461.96 94.9207,456.001 95.9902,457.987 96.2958,462.265 98.7404,461.196 99.3515,457.223 101.949,450.653 "/>
  <polygon fill="#644D36" points="110.811,457.223 108.824,456.765 103.171,461.043 99.8099,461.348 99.9627,462.265 101.338,463.182 100.421,465.321 103.171,465.015 103.63,462.724 105.31,464.099 106.38,466.39 108.824,466.543 108.366,459.821 "/>
  <polygon fill="#644D36" points="117.686,464.557 119.367,465.168 119.061,467.46 114.325,469.293 112.186,472.349 111.88,470.821 107.449,472.96 110.352,470.363 100.421,472.96 97.2125,471.127 103.171,470.516 103.477,469.141 109.741,468.988 109.436,467.307 114.783,467.154 "/>
  <polygon fill="#644D36" points="101.032,468.071 105.463,467.918 106.227,465.321 105.31,465.321 104.546,467.002 "/>
  <path fill="white" d="M114.478 414.137c6.21355,-2.29181 16.5521,-1.2223 19.0984,-4.12526 -5.34756,1.83345 -15.4315,0.61115 -19.2512,2.75017l0.152787 1.37509z"/>
  <path fill="white" d="M94.7679 451.57l1.52787 -8.09774c-1.52759,2.49534 -2.03669,5.19449 -1.52787,8.09774z"/>
  <path fill="white" d="M114.783 463.64l0.305575 -5.50035c-0.865701,1.98624 -1.12025,3.81969 -0.305575,5.50035z"/>
  <path fill="#644D36" d="M189.206 394.336c-1.76258,0.784063 -3.56173,1.44765 -5.40907,1.92359 -13.9844,3.60397 -28.9897,-1.62 -33.2878,4.84668l-1.34929 -0.873071c3.57024,-6.54945 27.9196,-1.02869 40.0462,-5.8972zm-72.0482 -50.4318c3.61843,5.99074 7.95572,12.0521 11.1166,18.8266l-9.6721 -12.0008 0.763937 -0.916725 -2.20847 -5.90911zm-32.4692 -4.66356c4.44558,-0.0824882 9.30898,1.02331 14.2611,4.81351l-2.196 1.63389c-1.72488,-2.34709 -5.95474,-3.26211 -10.5423,-3.97247l-1.52277 -2.47493zm49.3827 67.0485c-11.7984,-15.2252 -21.5861,-4.3475 -28.3119,-4.83761 -14.6183,-1.06583 -23.2713,-7.33635 -44.7557,-4.58334 9.85352,-2.97099 22.4439,-2.91487 34.2502,1.54942 19.095,7.22041 28.8607,-11.4653 38.8174,7.87153zm-50.794 25.4985c-8.36589,-0.0878741 -14.1826,-1.19565 -14.3895,-4.54621 3.19153,2.2028 8.34463,3.56542 14.3895,4.54621zm47.5691 37.406c-2.15802,5.62819 -3.08778,11.3596 -5.24438,12.8957l1.5565 -6.99024 3.68788 -5.90542zm10.6183 -57.261c-0.216567,11.3023 5.37761,12.5118 5.16104,23.8142 -0.216284,11.3023 -8.99745,27.1931 -6.46129,44.0011l-2.00523 -7.09342c0.542268,-9.96208 2.07439,-18.6361 5.2937,-28.3589 5.43969,-16.4293 -4.38095,-22.2375 -1.98822,-32.3629zm7.74964 -6.45818c25.0614,26.1204 20.9378,57.1057 32.9199,80.6471l-2.26403 2.57556c-2.2731,-4.66951 -5.3127,-15.7955 -6.92844,-16.9577 -2.36495,-1.70107 -0.0110551,-3.26013 -0.932315,-6.9001 -2.35417,-9.30218 -6.62684,-24.9885 -8.20574,-25.8902 -4.10429,-2.34397 -0.987591,-7.74454 -2.83408,-8.75424 -4.40022,-2.40605 1.35921,-8.70237 -13.3376,-22.1695l1.5823 -2.5509z"/>
  <path fill="white" d="M110.389 326.12c-0.125008,-1.79206 -0.0535748,-3.62721 0.254835,-5.51821 -4.35373,1.66961 -6.08117,7.60848 -3.95972,16.5172l-8.28851 -9.00539c-0.487276,8.3058 -0.0331654,11.933 0.554457,15.9406l1.31811 0.411591c-0.611433,-3.79474 -0.662457,-7.30885 -0.458362,-10.6951l7.63937 7.48659 1.37509 -0.763937c-0.458362,-5.75518 0.10148,-10.2881 1.68066,-13.5981m48.6499 2.6212c-0.437953,-1.40513 -1.02784,-2.57301 -1.89213,-3.27033 -3.67058,7.94296 -1.66507,16.2394 -4.69701,19.6648 -4.24148,4.79169 -7.08775,10.0089 -7.62889,16.13 -1.152,13.0331 5.17125,26.1442 -3.31115,35.2505 -2.72353,-1.89496 -4.98671,-4.25112 -6.78813,-7.06819 -0.828567,2.59767 -0.12926,5.32347 3.93307,8.32933l6.41707 0.458362c8.83418,-7.9475 0.275811,-22.9677 2.85789,-35.8166 2.07269,-10.3153 11.0222,-18.015 11.1093,-33.6779zm9.7543 6.13077c-0.262205,-1.51058 -0.667559,-2.98857 -1.19395,-4.5601 -2.20649,3.60057 -3.8469,6.26542 -5.74044,7.9937l1.08907 3.09317c2.15206,-1.56473 4.10032,-3.74032 5.84533,-6.52677zm48.2777 45.7912c0.952441,-0.0450709 1.91367,-0.0138898 2.8851,0.104598 -3.3874,-4.74208 -8.91525,-6.80769 -16.5835,-6.19739l2.81424 4.5669c3.62806,-1.63106 7.25585,-1.73424 10.8842,1.52589zm-33.2416 107.969c4.08331,6.84624 9.81015,12.9699 18.4045,18.0377l-1.02699 1.82778c-8.81122,-3.23462 -15.0715,-13.3895 -18.3966,-19.2002l1.01906 -0.665292zm11.1484 30.9529l-0.903402 1.60866c-43.1286,-28.0627 -21.729,-65.1459 -44.1717,-104.476 21.5949,20.9965 6.8264,79.2732 45.0751,102.867zm-62.6568 -48.9042c1.31556,2.20167 2.07525,4.24602 4.70211,6.3394l-0.354614 -3.30718 -1.83345 -3.51411 -2.51405 0.48189zm-10.6053 -2.26914c-0.966615,4.15673 -0.318331,7.77572 1.94513,10.8558l2.00693 -1.27644c-1.85953,-2.39386 -2.31789,-6.4681 -2.13902,-11.3063l-1.81304 1.72687zm-31.6843 -28.0157c-1.09219,2.0812 -1.85216,4.00592 -2.35191,5.81755l2.54154 -2.75244 -0.189638 -3.0651zm43.9243 -34.8817c-2.10898,2.46643 -9.44561,0.502866 -17.2233,2.25354 -14.7884,3.32929 -22.2245,16.0549 -47.9602,18.6987 15.4593,3.62608 28.696,-8.86082 44.5901,-16.0784 4.30243,-1.95392 18.7126,-2.53588 21.9648,-3.78142l-1.3714 -1.09247zm-57.3364 27.6993l-4.33729 1.45956c3.03903,1.29515 6.07833,2.09792 9.11764,2.53332l5.00173 -2.75981 -9.78208 -1.23307zm-10.0803 -43.7378c-3.84803,3.6394 -5.64577,5.97459 -5.65087,6.61748 1.46069,-0.187087 2.86214,-0.333071 4.2103,-0.441071l6.02419 -5.36117 -4.58362 -0.815245zm7.18101 -10.7966l-1.31159 -2.52567c-6.84,2.65465 -9.9995,6.04574 -11.486,9.77188 1.01735,0.286866 2.16737,0.36652 3.40725,0.324567 2.16085,-3.25049 5.59673,-5.54485 9.39034,-7.57078m9.65112 -40.1627c-7.93985,0.520441 -14.4011,4.52098 -17.4087,3.01011 0.436819,2.484 0.0955276,4.41638 -0.420662,6.28583l1.76117 -4.73273c2.50158,-0.00141732 10.9324,-2.29493 16.0682,-4.56321z"/>
  <path fill="#644D36" d="M365.049 428.805l-1.83345 -0.305575c-0.64715,9.70186 0.224788,17.4943 2.4446,21.0847 0.560126,2.80091 0.203528,5.7549 3.05575,7.48659 0.883276,2.51802 1.6886,5.01024 3.81969,7.94495l-1.06951 -3.6669 1.83345 -0.458362 -0.61115 -1.83345 -1.98624 -0.916725c-1.14576,-4.88948 -2.67421,-9.26986 -5.04199,-12.5286 -1.19849,-5.6024 -1.86095,-11.2048 -0.61115,-16.8066z"/>
  <path fill="#644D36" d="M367.494 428.346c-0.407055,10.6441 1.42583,18.2322 5.50035,22.7653l1.37509 8.70889 1.37509 -2.90296 -1.2223 -8.70889c-3.64167,-4.67292 -5.62848,-9.84246 -5.19477,-15.7371l-1.83345 -4.12526z"/>
  <path fill="#644D36" d="M369.174 426.207l0 5.50035c3.52658,8.82341 7.93163,16.1824 13.9037,20.9319l-2.75017 -4.8892 0.152787 -1.52787c-4.63465,-4.94051 -8.30183,-11.8159 -11.3063,-20.0152z"/>
  <path fill="#644D36" d="M386.286 440.417c-6.6977,-4.94022 -10.9755,-10.8482 -13.5981,-17.4178l0.763937 -0.916725c3.28451,5.9967 7.56255,11.8281 13.2925,17.4178l-0.458362 0.916725z"/>
  <polygon fill="#644D36" points="373.605,422.388 378.189,428.041 379.564,426.36 374.369,420.707 "/>
  <path fill="#644D36" d="M381.092 428.194c1.42554,3.3103 3.4628,6.21298 6.1115,8.70889l0.458362 3.6669 1.68066 0.305575 0.458362 4.27805 -3.51411 -0.305575 -0.916725 -3.36132 1.2223 -1.37509 -0.61115 -1.83345c-2.82728,-2.26658 -4.81323,-5.37336 -6.41707,-8.86167l1.52787 -1.2223z"/>
  <polygon fill="#644D36" points="391.634,437.055 394.537,443.014 395.606,441.486 393.009,437.055 "/>
  <polygon fill="#644D36" points="388.273,431.402 390.259,434.763 392.704,434.458 389.801,431.402 "/>
  <polygon fill="#644D36" points="385.828,426.36 388.578,430.18 389.801,429.263 386.592,425.291 "/>
  <path fill="#644D36" d="M375.439 417.498c2.39358,1.12025 3.87043,3.15751 5.80592,4.73641l1.2223 -0.763937 12.3758 13.4453 0.916725 -5.19477c-3.6669,-1.06951 -9.16725,-7.3338 -13.7509,-11.0007l-0.458362 0.916725 -4.12526 -3.51411 -1.98624 1.37509z"/>
  <path fill="#644D36" d="M382.161 414.443c6.39156,3.34772 12.3503,7.34542 17.1122,13.1397l0.916725 -1.68066c-4.07424,-4.78744 -8.96372,-8.75991 -14.6676,-11.9174l-3.36132 0.458362z"/>
  <polygon fill="#644D36" points="382.62,416.429 373.758,411.234 378.647,412.304 386.439,416.735 "/>
  <polygon fill="#644D36" points="390.259,413.526 395.759,418.415 396.982,418.415 404.01,424.832 406.149,423.916 396.829,415.971 395.759,416.123 392.704,413.22 "/>
  <path fill="#644D36" d="M382.161 462.724c1.27304,2.63537 3.51383,4.54507 6.41707,5.95871l-1.98624 1.37509c-2.19005,-1.83345 -6.06076,-4.27805 -6.56986,-5.50035l2.13902 -1.83345z"/>
  <path fill="#644D36" d="M394.537 464.863l-2.75017 -10.6951c-0.10148,3.76838 0.814678,7.33323 2.75017,10.6951z"/>
  <polygon fill="#644D36" points="399.121,445.459 398.662,448.667 401.26,452.334 402.021,456.189 405.598,463.417 404.927,453.862 403.093,450.042 406.302,453.709 407.982,452.792 405.996,447.598 403.246,447.903 402.482,446.681 "/>
  <polygon fill="#644D36" points="409.816,449.278 408.288,451.876 409.968,454.626 410.274,458.488 412.559,458.62 412.413,455.695 411.191,451.264 "/>
  <path fill="#644D36" d="M336.631 394.275c-5.29682,0.763654 -9.93175,1.83317 -18.0289,-0.458362 6.36577,3.00529 12.4773,3.97304 18.0289,0.458362z"/>
  <path fill="#644D36" d="M335.561 391.525c-6.67191,-2.19005 -11.9684,-0.407622 -20.0152,-6.56986 3.75562,5.05446 16.0041,8.18646 20.0152,6.56986z"/>
  <path fill="#644D36" d="M337.547 389.538c-6.01002,-1.37537 -12.1725,-3.76895 -16.9594,-7.18101 2.41512,3.71934 7.20029,6.72463 16.9594,7.18101z"/>
  <polygon fill="#644D36" points="323.185,375.329 337.242,388.927 338.464,387.858 324.866,375.176 "/>
  <path fill="#644D36" d="M336.936 395.039l15.4315 -2.13902c0.509103,-6.26429 4.68539,-9.47282 2.4446,-22.4598l-6.26429 -6.41707c-0.904536,-5.09273 -3.62892,-11.5095 -9.01446,-19.8624l-0.305575 1.52787c2.14044,3.46252 4.12781,6.97692 5.04199,10.8479l-7.94495 -11.4591 -0.458362 1.37509 5.65314 9.47282 0.458362 3.36132 1.83345 4.27805 -8.70889 -11.1535 -1.2223 0.305575 5.80592 7.63937 -0.61115 1.68066 -5.80592 -9.62561 -0.305575 2.75017 6.26429 9.7784 0 1.37509 5.65314 7.02822 0.916725 3.97247 1.2223 1.37509 0.152787 3.6669 -1.83345 -2.90296 -0.458362 -2.75017 -1.98624 -1.98624 -1.68066 0.305575c-2.49591,-3.97219 -5.19477,-7.74057 -8.09774,-11.3063l-0.916725 1.52787c1.52816,1.27332 2.85251,2.95427 3.97247,5.04199l0 1.83345 4.27805 4.12526 -0.152787 2.29181 2.75017 1.98624 -1.06951 3.97247 -10.084 -10.2368 -0.61115 1.06951 3.20854 3.20854 0.458362 1.98624 6.87544 5.04199 -1.98624 0.61115 -1.2223 -2.29181 -0.916725 0.916725 2.4446 2.90296 -0.916725 1.52787 0 3.81969 -2.13902 0.763937 -0.152787 1.2223z"/>
  <polygon fill="#644D36" points="330.672,371.357 335.255,377.01 334.95,375.176 330.81,370.153 "/>
  <polygon fill="#644D36" points="347.173,358.675 350.534,362.037 350.381,360.662 347.02,357.147 "/>
  <polygon fill="#644D36" points="352.673,364.023 348.548,357.3 348.548,355.467 353.284,361.731 "/>
  <polygon fill="#644D36" points="345.339,350.119 349.77,356.842 353.132,357.759 "/>
  <polygon fill="#644D36" points="342.742,344.16 347.937,349.355 349.617,349.508 343.659,343.091 "/>
  <polygon fill="#644D36" points="301.337,356.842 306.073,366.467 305.462,369.829 299.809,361.731 299.656,358.981 302.101,362.495 299.503,356.689 "/>
  <path fill="#644D36" d="M305.462 364.634l-1.52787 -12.6814c-1.65543,4.65988 -0.891213,8.83588 1.52787,12.6814z"/>
  <polygon fill="#644D36" points="308.518,359.286 312.49,362.648 312.49,360.05 308.518,357.147 "/>
  <polygon fill="#644D36" points="313.101,353.939 315.699,360.356 315.087,362.648 310.809,353.48 "/>
  <polygon fill="#644D36" points="306.837,354.244 309.129,353.939 311.115,357.759 310.045,358.981 "/>
  <polygon fill="#644D36" points="310.657,356.078 313.254,360.967 314.171,359.439 311.726,355.925 "/>
  <polygon fill="#644D36" points="313.56,346.299 318.143,350.425 318.449,346.452 317.074,344.924 316.615,345.994 314.171,345.077 "/>
  <polygon fill="#644D36" points="320.893,344.16 322.727,345.23 324.866,350.578 319.06,351.036 320.282,348.439 318.907,345.077 319.977,344.466 321.199,346.147 "/>
  <polygon fill="#644D36" points="327.616,348.897 331.741,350.272 331.589,349.05 327.769,347.369 "/>
  <path fill="white" d="M326.699 393.358c-3.92173,-0.764221 -8.65815,-2.54665 -14.2092,-5.34756 4.12498,3.71764 8.86139,6.00945 14.2092,6.87544l0 -1.52787z"/>
  <path fill="white" d="M311.421 370.593c-2.11408,-0.432567 -3.38769,-3.94696 -4.27805,-8.86167 -0.727937,5.85893 0.774993,9.16838 2.90296,11.7646l1.37509 -2.90296z"/>
  <path fill="white" d="M307.754 359.745l6.41707 4.12526c-2.34284,0.458362 -4.48158,-0.916441 -6.41707,-4.12526z"/>
  <path fill="white" d="M318.449 362.342l-2.4446 -10.5423c-0.89178,3.81969 0.0246614,8.40303 2.4446,10.5423z"/>
  <path fill="white" d="M326.394 356.842l-10.2368 -3.20854c3.23405,0.177732 6.59481,0.99241 10.2368,3.20854z"/>
  <polygon fill="white" points="325.019,345.23 327.463,355.467 326.699,345.383 "/>
  <polygon fill="white" stroke="white" stroke-width="0.216" points="327.922,346.605 330.366,348.133 332.2,348.286 331.283,346.299 "/>
  <path fill="white" stroke="white" stroke-width="0.216" d="M364.438 449.889c-2.33008,-8.08555 -2.96674,-16.0053 -1.2223,-23.6821 -2.62347,7.24422 -1.85925,15.2147 1.2223,23.6821z"/>
  <path fill="#644D36" d="M381.092 366.162l4.8892 -5.80592c-3.00473,1.62964 -4.32879,3.25928 -4.8892,5.80592z"/>
  <path fill="#644D36" d="M399.885 367.843c-6.34734,5.11881 -11.3769,9.65169 -14.0564,13.1397 4.68539,-3.46309 12.2737,-10.1347 14.0564,-10.3895l0 -2.75017z"/>
  <path fill="#644D36" d="M403.246 372.732c-6.1115,4.07424 -17.7233,9.52356 -17.8761,14.5148 3.97247,-6.1115 12.223,-8.86167 18.3345,-13.2925l-0.458362 -1.2223z"/>
  <polygon fill="#644D36" points="431.97,349.966 426.317,354.703 428.303,354.856 433.956,350.73 "/>
  <path fill="#644D36" d="M428.609 356.383c3.61616,-1.27332 6.01002,-3.36161 7.18101,-6.26429 -0.012189,4.90167 -2.68611,6.65859 -7.18101,6.26429z"/>
  <polygon fill="#644D36" points="429.984,355.467 423.872,362.189 422.955,364.328 423.414,366.009 430.442,365.703 435.026,360.814 433.192,361.12 429.984,362.953 435.178,357.606 434.262,356.536 431.359,359.592 432.123,355.925 "/>
  <polygon fill="#644D36" points="437.776,355.772 434.414,361.731 435.484,363.564 438.387,358.37 "/>
  <path fill="#644D36" d="M427.386 374.565c5.17068,-4.92718 9.80589,-9.94423 12.5286,-15.2787 0.713481,4.93966 -5.9074,12.0189 -12.5286,15.2787z"/>
  <path fill="#644D36" d="M439.762 362.648c-3.6669,4.22731 -4.27805,6.00974 -11.0007,12.6814l1.98624 0.61115c2.85194,-4.48158 8.91241,-8.04671 9.01446,-13.2925z"/>
  <polygon fill="#644D36" points="379.258,385.108 385.522,381.899 387.05,382.51 380.939,386.024 "/>
  <polygon fill="#644D36" points="389.037,387.094 389.801,389.997 "/>
  <polygon fill="white" points="414.858,347.522 419.289,346.605 418.983,348.591 "/>
  <path fill="white" d="M421.733 365.551l3.51411 -9.01446c1.73169,1.93521 -2.34255,6.00945 -3.51411,9.01446z"/>
  <path fill="white" d="M365.233 460.679c1.12507,5.30079 1.41449,11.4106 -0.51052,18.9167 0.615969,-0.329669 1.16504,-0.655654 1.65685,-0.97852 2.67364,-7.31651 2.69943,-13.4742 -1.14633,-17.9382zm8.19638 8.51528c2.15802,5.62819 4.31121,7.68926 6.46781,9.22536 0.161291,-0.794835 0.246331,-1.65969 0.283181,-2.58548l-5.35323 -6.99874 -1.39776 0.358866zm40.7316 -45.078c-8.50224,-5.08224 -13.7393,-12.1133 -23.6747,-14.3496 -1.82268,-0.410173 -3.78936,-0.666992 -5.75944,-0.851245l5.83739 3.54132c5.12703,-0.437386 14.2702,7.71251 22.6125,12.0702l0.984189 -0.41074zm31.9 -30.1708c0.491811,0.0490394 0.989575,0.106299 1.49301,0.170646 1.38444,-1.6115 -2.77909,-3.43219 -10.6804,-7.04863l-2.30655 1.09616c5.436,1.92728 9.72624,3.85427 11.4939,5.78183zm-0.6823 -9.99723c-1.25405,-3.14391 -5.22369,-4.08983 -10.5421,-5.90315l-7.2978 2.78476 5.80592 -0.916725 2.4446 1.83345c3.40044,-0.488693 6.59679,0.245197 9.58933,2.20167zm-4.97169 -35.68c-0.0558425,-1.55084 -0.00793701,-3.03959 0.237543,-4.43679 -4.08983,2.13449 -10.2112,-6.72775 -27.7211,-2.08913l1.32293 1.5018c8.16633,-1.83345 16.7723,-0.884977 26.1607,5.02413zm-31.4218 -14.7155c-0.000850394,-0.456945 -0.015874,-0.943371 -0.0462047,-1.46239 -3.1904,1.15058 -6.38164,3.83244 -9.57345,6.93752l0.51874 1.61887c3.18643,-1.75351 6.06728,-4.72933 9.10092,-7.09399zm-13.7948 -8.47559c-0.560126,-0.477071 -1.18403,-0.849544 -1.86406,-1.11033 0.837355,21.7006 -24.0134,33.6339 -20.825,62.0629 -0.785481,6.55739 -5.70048,8.3744 -9.85097,11.2623l5.45414 0.802772c10.2229,-5.48022 4.95298,-16.778 9.25541,-30.1337 4.16977,-12.9444 18.6851,-27.0323 17.8305,-42.884zm-48.5068 3.40356c-0.16526,-0.65452 -0.358583,-1.29827 -0.587906,-1.92813 -2.76577,2.23143 -3.33383,8.66778 -4.49433,12.9064 -1.38076,-1.01707 -2.24079,-2.71616 -3.27317,-4.81918 0.486992,2.64444 -0.112819,4.9612 4.71912,8.90986 -0.0102047,-5.43033 1.20189,-10.4536 3.63629,-15.069zm-9.47056 3.93166c-0.376441,-0.720567 -0.79115,-1.4709 -1.26397,-2.24221 -1.40372,4.19131 -3.17055,9.54908 -2.43411,14.8116l1.12904 2.23484c0.0924095,-5.508 0.847276,-10.5194 2.56904,-14.8042zm-34.774 37.8621c-2.75925,-0.989859 -5.95814,0.103465 -9.78775,1.2549 0.342425,0.497764 0.684,0.953859 1.02416,1.37339l10.8695 -0.0178583 0 -1.2223 -2.10586 -1.38813zm-1.65147 7.82448c-7.66829,-0.6103 -10.7493,-0.685701 -14.1367,4.05638 5.20101,-1.46126 10.4017,-1.90318 15.6022,-0.103181l-1.46551 -3.9532zm11.3298 140.857c-0.751181,0.703843 -1.52986,1.40258 -2.33745,2.09565l-7.54781 -12.9946c30.0198,-20.9163 18.9096,-68.3065 54.3575,-104.265l0.20863 3.01125c-31.525,34.1223 -22.8671,77.4122 -51.031,102.368 1.70958,4.48384 3.82649,7.74539 6.35018,9.78463z"/>
  <path fill="#644D36" d="M312.118 518.956c31.2886,-29.3258 14.5077,-67.8464 50.4783,-108.281l-1.06101 -0.357449 -7.63937 9.01446c-3.25928,0.915874 -4.83818,4.07367 -5.65314,8.25052 -5.60211,10.6441 -12.2737,30.4554 -16.3483,51.6422 -4.45493,8.0881 -10.1035,16.8265 -9.7784,22.307l-11.6118 15.7371 1.61376 1.6869zm101.043 -48.2675c1.54091,-12.094 8.33188,-14.8589 -0.427748,-29.397 6.48397,0.499465 5.62762,1.5086 12.111,-1.2549 -5.56951,1.40003 -8.69443,0.355465 -13.0416,0.533197 9.00908,15.387 0.90567,20.0789 1.35836,30.1187zm-30.2032 -61.9217c-4.24545,-0.321166 -8.30977,-0.41641 -10.764,-1.1126l3.85654 1.59421 6.90747 -0.481607zm-10.2804 -6.98882c9.06463,-9.98079 19.7691,0.116504 25.8398,-0.325701 16.7593,1.38104 27.5533,-10.0891 49.0377,-7.33607 -12.1371,-3.33921 -33.2059,4.68057 -43.1595,6.35159 -10.3499,1.73764 -23.6123,-10.8638 -31.718,1.31017zm72.7022 -17.8296c-2.71361,0.765071 -7.28589,2.50526 -11.0752,1.93776l-0.19474 -1.08369c3.06936,0.40252 6.9789,-0.0348662 11.27,-0.854079zm-36.4397 -51.8579c0.487276,8.3058 -3.02542,8.26271 -3.61304,12.2703 1.46523,-0.612567 2.86753,-1.14151 4.20973,-1.59506l-4.45663 2.7703 -0.916725 -1.52787c2.8148,-3.97276 4.40703,-7.94552 4.77666,-11.9177zm-46.2887 65.2017c-8.4824,-9.1063 -2.15943,-17.0181 -3.31115,-30.0509 -0.540851,-6.12085 -3.54586,-14.8737 -7.62889,-19.8003 -4.86681,-5.87169 -3.16743,-14.1687 -5.61459,-20.8882 -1.76825,15.5721 7.24933,24.6841 10.2319,38.9704 2.67874,12.8307 -4.65137,23.9754 6.32268,31.769zm-69.9991 -25.7627c2.7411,3.98353 5.39122,5.29229 8.13629,6.56958l1.6183 -0.172063c-3.91351,-1.57238 -6.70649,-3.85795 -9.75459,-6.39752zm-6.00038 10.626c12.4356,-1.51994 23.1387,14.0848 40.8626,17.1635 10.0828,1.75153 25.0206,-7.29185 29.0761,4.47364 0.248599,-10.766 -18.6764,-5.30731 -21.2358,-5.22454 -18.8586,0.610866 -40.5179,-21.037 -48.7029,-16.4126z"/>
  <path fill="#644D36" d="M379.419 385.411l-2.14668 -6.41452c0.331087,-10.6829 2.04888,-20.0211 7.93078,-23.3694 -5.40936,5.71153 -7.28533,15.4264 -5.3263,22.6622 1.53496,-5.66731 4.11251,-11.5954 8.983,-18.0961 -2.76095,5.35266 -5.87452,10.7941 -6.28044,16.7241 5.03717,-6.61266 8.82397,-11.9744 16.988,-15.1475 -4.90677,5.17493 -10.1262,9.41188 -14.7203,15.5248l-2.92366 4.37188 2.52822 3.70829 4.27493 0.517323 4.21966 -3.65556 -3.18614 4.13348 21.261 -11.8811 1.25065 1.87597 -8.1292 3.43928 3.12662 0.312662 7.50388 -3.75194 -1.25065 2.50129 3.43928 -1.25065 0.625323 0.937985 -10.3178 5.31525 8.1292 -2.81395 2.50129 1.25065 -1.56331 2.18863 -14.0698 4.0646 6.87855 0.625323 14.6951 -6.25323 5.00259 0.312662c-8.54618,3.43928 -14.2784,6.87855 -25.6382,10.6305 7.71194,0.339591 15.4244,-2.32044 23.137,-7.81654l0.625323 2.81395 -16.5711 6.87855 21.5736 -5.00259c-17.5986,7.06876 -34.378,11.6793 -46.19,1.38869l-3.52375 1.25745 -3.28791 -1.86435 4.91216 -1.39436c-1.00488,-1.21805 -3.55096,-3.22044 -4.46088,-4.72366z"/>
  <polygon fill="#644D36" points="416.023,355.103 420.401,354.791 426.654,351.664 426.341,348.225 424.152,349.475 424.152,346.661 420.088,347.287 416.961,350.101 417.274,353.227 "/>
  <path fill="#644D36" d="M404.142 470.163c-5.1069,1.87654 -9.79711,2.0846 -14.0698,0.625323l5.00259 -3.75194c1.97547,2.61184 5.41644,3.02655 9.06719,3.12662z"/>
  <polygon fill="#644D36" points="392.261,454.53 390.072,456.718 393.824,467.036 395.075,462.972 399.14,465.786 399.14,461.096 402.579,464.848 401.016,465.16 402.579,467.974 405.08,464.535 396.638,456.718 395.388,457.656 "/>
  <polygon fill="#644D36" points="406.956,457.969 414.147,458.282 412.271,460.47 "/>
 </g>
</svg>
