<?xml version="1.0" encoding="UTF-8" standalone="no"?>
<!-- Creator: CorelDRAW -->

<svg
   xmlns:dc="http://purl.org/dc/elements/1.1/"
   xmlns:cc="http://creativecommons.org/ns#"
   xmlns:rdf="http://www.w3.org/1999/02/22-rdf-syntax-ns#"
   xmlns:svg="http://www.w3.org/2000/svg"
   xmlns="http://www.w3.org/2000/svg"
   xmlns:sodipodi="http://sodipodi.sourceforge.net/DTD/sodipodi-0.dtd"
   xmlns:inkscape="http://www.inkscape.org/namespaces/inkscape"
   xml:space="preserve"
   width="500"
   height="575"
   style="fill-rule:evenodd"
   viewBox="0 0 500 578.45"
   version="1.0"
   id="svg2"
   inkscape:version="0.48.0 r9654"
   sodipodi:docname="Loimaa.vaakuna.svg"><metadata
   id="metadata533"><rdf:RDF><cc:Work
       rdf:about=""><dc:format>image/svg+xml</dc:format><dc:type
         rdf:resource="http://purl.org/dc/dcmitype/StillImage" /></cc:Work></rdf:RDF></metadata><sodipodi:namedview
   pagecolor="#ffffff"
   bordercolor="#666666"
   borderopacity="1"
   objecttolerance="10"
   gridtolerance="10"
   guidetolerance="10"
   inkscape:pageopacity="0"
   inkscape:pageshadow="2"
   inkscape:window-width="640"
   inkscape:window-height="480"
   id="namedview531"
   showgrid="false"
   fit-margin-top="0"
   fit-margin-left="0"
   fit-margin-right="0"
   fit-margin-bottom="0"
   inkscape:zoom="0.45391304"
   inkscape:cx="249.82636"
   inkscape:cy="287.19986"
   inkscape:window-x="0"
   inkscape:window-y="0"
   inkscape:window-maximized="0"
   inkscape:current-layer="svg2" />
 <defs
   id="defs4">
  <style
   type="text/css"
   id="style6">
   
    .str1 {stroke:#1F1A17;stroke-width:0.217296}
    .str0 {stroke:#004A8D;stroke-width:0.534685}
    .fil2 {fill:#C0A062}
    .fil4 {fill:#4F251A}
    .fil3 {fill:#EEEED4}
    .fil0 {fill:#004A8D}
    .fil1 {fill:#0033AB}
   
  </style>
 
  
  
  
  
  
  
  
  
  
  
  
  
  
  
  
  
  
  
  
  
  
  
  
  
  
  
  
  
  
  
  
  
  
  
  
  
  
  
  
  
  
  
  
  
  
  
  
  
  
  
  
  
  
  
  
  
  
  
  
  
  
  
  
  
  
  
  
  
  
  
  
  
  
  
  
  
  
  
  
  
  
  
  
  
  
  
  
  
  
  
  
  
  
  
  
  
  
  
  
  
  
  
  
  
  
  
  
  
  
  
  
  
  
  
  
  
  
  
  
  
  
  
  
  
  
  
  
  
  
  
  
  
  
  
  
  
  
  
  
  
  
  
  
  
  
  
  
  
  
  
  
  
  
  
  
  
  
  
  
  
  
  
  
  
  
  
  
  
  
  
  
  
  
  
  
  
  
  
  
  
  
  
  
  
  
  
  
  
  
  
  
  
  
  
  
  
  
  
  
  
  
  
  
  
  
  
  
  
  
  
  
  
  
  
  
  
  
  
  
  
  
  
  
  
  
  
  
  
  
  
  
  
  
  
  
  
  
  
  
  
  
  
  
  
  
  
  
  
  
  
  
  
  
  
  
  
  
  
  
  
  
  
 </defs>
 <path
   style="fill:#0057f0;stroke:#0057f0;stroke-width:0.53468501999999996;fill-opacity:1;stroke-opacity:1"
   inkscape:connector-curvature="0"
   d="M -1.2411002,0.8736881 501.0549,0.7519221 501.00841,335.88092 c -26.2121,322.406 -467.378992,323.842 -502.2149922,-0.33165 L -1.2410872,0.8742751 -1.2416575,0.87370477 z"
   class="fil0 str0"
   id="path1937" /><path
   style="fill:#0033ab"
   inkscape:connector-curvature="0"
   id="path11"
   d="m 93.232523,151.82693 0,24.8593 c -26.3265,-7.52352 -27.8014,37.0085 1.55073,27.1075 -7.46734,23.8826 29.861697,23.9824 26.810397,0.27832 26.1232,8.81789 27.1064,-32.8411 -0.24125,-27.6759 l -0.0177,-24.6155 22.0039,0 c -0.12832,22.7214 29.4633,22.9324 27.5535,-0.65902 21.921,1.45548 22.1163,-28.2724 -0.61368,-27.70239 4.74544,-22.0724 -28.1738,-23.426604 -27.2299,0.24124 l -21.1088,0 -0.28488,-24.925494 c 28.7227,3.306484 28.6794,-34.9487 -0.0773,-30.0439 5.65569,-24.7447 -36.398793,-23.4822 -28.132393,-0.02966 -26.8249,-6.48153 -28.7698,31.0636 -0.212733,28.8915 l 0.135168,26.410004 -28.2186,-0.30256 c 6.87448,-24.113905 -30.7967,-24.851305 -26.3379,0.20475 -22.5004,-6.3321 -21.1561,33.8101 1.17032,26.8104 -4.47453,23.926 30.2997,23.7891 27.6074,1.10502 l 25.6435,0.0462 z"
   class="fil1" /><path
   style="fill:#0033ab"
   inkscape:connector-curvature="0"
   id="path13"
   d="m 93.232523,383.60893 0,24.8593 c -26.3265,-7.52352 -27.8014,37.0085 1.55073,27.1075 -7.46734,23.8826 29.861697,23.9824 26.810397,0.27832 26.1232,8.81789 27.1064,-32.8411 -0.24125,-27.6759 l -0.0177,-24.6155 22.0039,0 c -0.12832,22.7214 29.4633,22.9324 27.5535,-0.65901 21.921,1.45548 22.1163,-28.2724 -0.61368,-27.7024 4.74544,-22.07241 -28.1738,-23.4266 -27.2299,0.24124 l -21.1088,0 -0.28488,-24.9255 c 28.7227,3.30649 28.6794,-34.9487 -0.0773,-30.0439 5.65569,-24.7447 -36.398793,-23.48219 -28.132393,-0.0297 -26.8249,-6.48153 -28.7698,31.0636 -0.212733,28.8915 l 0.135168,26.41 -28.2186,-0.30256 c 6.87448,-24.1139 -30.7967,-24.8513 -26.3379,0.20475 -22.5004,-6.3321 -21.1561,33.8101 1.17032,26.8104 -4.47453,23.926 30.2997,23.7891 27.6074,1.10502 l 25.6435,0.0462 z"
   class="fil1" /><path
   style="fill:#0033ab"
   inkscape:connector-curvature="0"
   id="path15"
   d="m 390.20432,151.82693 0,24.8593 c -26.3265,-7.52352 -27.8014,37.0085 1.55073,27.1075 -7.46734,23.8826 29.8617,23.9824 26.8104,0.27832 26.1232,8.81789 27.1064,-32.8411 -0.24125,-27.6759 l -0.0177,-24.6155 22.0039,0 c -0.12832,22.7214 29.4633,22.9324 27.5535,-0.65902 21.921,1.45548 22.1163,-28.2724 -0.61368,-27.70239 4.74544,-22.0724 -28.1738,-23.426604 -27.2299,0.24124 l -21.1088,0 -0.28488,-24.925494 c 28.7227,3.306484 28.6794,-34.9487 -0.0773,-30.0439 5.65569,-24.7447 -36.3988,-23.4822 -28.1324,-0.02966 -26.8249,-6.48153 -28.7698,31.0636 -0.21273,28.8915 l 0.13517,26.410004 -28.2186,-0.30256 c 6.87448,-24.113905 -30.7967,-24.851305 -26.3379,0.20475 -22.5004,-6.3321 -21.1561,33.8101 1.17032,26.8104 -4.47453,23.926 30.2997,23.7891 27.6074,1.10502 l 25.6435,0.0462 z"
   class="fil1" /><path
   style="fill:#0033ab"
   inkscape:connector-curvature="0"
   id="path17"
   d="m 390.20432,383.60893 0,24.8593 c -26.3265,-7.52352 -27.8014,37.0085 1.55073,27.1075 -7.46734,23.8826 29.8617,23.9824 26.8104,0.27832 26.1232,8.81789 27.1064,-32.8411 -0.24125,-27.6759 l -0.0177,-24.6155 22.0039,0 c -0.12832,22.7214 29.4633,22.9324 27.5535,-0.65901 21.921,1.45548 22.1163,-28.2724 -0.61368,-27.7024 4.74544,-22.07241 -28.1738,-23.4266 -27.2299,0.24124 l -21.1088,0 -0.28488,-24.9255 c 28.7227,3.30649 28.6794,-34.9487 -0.0773,-30.0439 5.65569,-24.7447 -36.3988,-23.48219 -28.1324,-0.0297 -26.8249,-6.48153 -28.7698,31.0636 -0.21273,28.8915 l 0.13517,26.41 -28.2186,-0.30256 c 6.87448,-24.1139 -30.7967,-24.8513 -26.3379,0.20475 -22.5004,-6.3321 -21.1561,33.8101 1.17032,26.8104 -4.47453,23.926 30.2997,23.7891 27.6074,1.10502 l 25.6435,0.0462 z"
   class="fil1" /><path
   style="fill:#0033ab"
   inkscape:connector-curvature="0"
   id="path19"
   d="m 262.51432,514.92593 c 2.54025,-52.1034 15.1466,-44.3042 23.0759,-68.7848 5.42527,-16.7492 2.43702,-41.7856 7.48274,-59.8035 -3.02618,1.41185 -5.64799,3.22722 -7.86658,5.44609 17.3466,-29.4493 1.71441,-43.1655 11.1947,-67.471 l -9.07682,5.74865 c 12.9092,-21.6834 0.40322,-52.4436 9.68194,-65.9582 -3.42912,2.6221 -7.3624,4.43775 -9.9845,7.86658 13.6092,-25.8859 -0.30826,-47.1205 7.56401,-68.8378 -3.42912,2.6221 -8.27008,6.85823 -11.4973,9.9845 15.9348,-25.9193 -1.10958,-65.9037 12.7075,-80.9311 -4.03424,1.41185 -8.57265,9.58128 -12.7075,10.8922 17.5425,-30.7269 -2.72875,-45.305099 7.56401,-69.140399 -3.42912,2.6221 -4.63936,4.13518 -7.86658,6.35377 14.4222,-19.8153 -10.7912,-41.1437 0.60512,-57.6311 -5.6477,2.92494 -10.4887,8.67359 -14.5229,17.246 -4.33651,-7.16051 -8.67331,-8.57236 -13.0101,-21.4818 -4.3368,12.9094 -5.23592,13.1111 -9.57244,20.2716 -4.03424,-8.57236 -14.0187,-14.0185 -19.6664,-16.9434 10.4887,17.0925 -10.7915,39.3286 1.5128,59.1439 -3.22722,-2.21859 -5.95026,-4.3368 -9.37938,-6.95889 10.2928,23.8353 -8.16315,36.598099 9.37938,67.324999 -4.1349,-1.31091 -7.76563,-9.48033 -13.0101,-10.8922 13.8171,15.0274 -5.95026,54.4067 10.5896,81.5362 -3.22722,-3.12627 -7.16051,-6.45472 -12.1024,-6.95889 13.3184,25.0455 -4.83498,37.5058 8.77426,63.3917 -2.6221,-3.42883 -8.37075,-5.54704 -10.5896,-6.35377 9.27871,13.5146 -0.80673,49.4183 12.405,65.6556 l -11.4973,-6.65633 c 13.7162,25.8183 -5.24419,37.4166 14.5229,72.0094 -2.21859,-2.21887 -9.37881,-6.45472 -12.405,-7.86658 16.2405,23.464 3.87369,39.1213 12.3237,62.8291 8.63937,24.2382 25.6792,21.2197 22.7733,73.0206 -24.6243,-44.2557 -53.1645,-60.1622 -78.2774,-32.1729 -35.9303,40.0455 -43.2459,-4.26665 -67.6664,7.36297 7.35813,1.8165 13.453,-1.3668 24.9044,10.0806 13.7025,13.6976 33.3344,11.777 47.2938,1.62345 31.8199,-23.1443 54.3525,-10.0162 73.636,24.3007 l -0.60512,21.1792 c 1.61375,8.77426 11.3964,8.4717 13.9178,-2.72305 l 0.90768,-18.1536 c 5.20769,-27.3297 29.9036,-43.9295 53.2048,-39.7027 17.9825,3.26201 24.4529,13.5953 37.3199,20.3682 15.9459,8.39356 24.2433,2.92694 33.8417,-4.73517 9.78089,-7.80783 20.9819,-4.64934 21.7704,-7.09406 -8.20193,-3.44794 -16.0349,-0.36644 -22.6196,3.78158 -10.526,6.63095 -22.2495,-0.20019 -28.7105,-5.75692 -7.29225,-6.27222 -13.1721,-17.1695 -23.8752,-21.4824 -19.0781,-7.68806 -46.2376,-1.70443 -72.4443,37.0729 z"
   class="fil1" /><path
   style="fill:#c0a062"
   inkscape:connector-curvature="0"
   id="path21"
   d="m 89.610923,148.20493 0,24.8593 c -26.3265,-7.52352 -27.8014,37.0085 1.55073,27.1075 -7.46734,23.8826 29.861697,23.9824 26.810397,0.27832 26.1232,8.81789 27.1064,-32.8411 -0.24125,-27.6759 l -0.0177,-24.6155 22.0039,0 c -0.12832,22.7214 29.4633,22.9324 27.5535,-0.65902 21.921,1.45548 22.1163,-28.2724 -0.61368,-27.7024 4.74544,-22.072394 -28.1738,-23.426594 -27.2299,0.24125 l -21.1088,0 -0.28488,-24.925494 c 28.7227,3.30649 28.6794,-34.9487 -0.0773,-30.0439 5.65569,-24.7447 -36.398793,-23.4822 -28.132393,-0.02966 -26.8249,-6.48153 -28.7698,31.0636 -0.212733,28.8915 l 0.135168,26.410004 -28.2186,-0.30256 c 6.87448,-24.113905 -30.7967,-24.851305 -26.3379,0.20475 -22.5004,-6.3321 -21.1561,33.8101 1.17032,26.8104 -4.47453,23.926 30.2997,23.7891 27.6074,1.10502 l 25.6435,0.0462 z"
   class="fil2" /><path
   style="fill:#eeeed4"
   inkscape:connector-curvature="0"
   id="path23"
   d="m 64.683423,121.80293 27.2638,0.23583 0.461113,-31.021697 2.32125,1.11158 -0.153989,32.830197 -30.7719,-0.56149 -0.282314,-0.005 1.16205,-2.58902 z m 32.078,90.8512 c -3.41885,-1.784 -5.68734,-4.31883 -4.88488,-9.99933 l 1.96393,-0.70835 c -0.564913,4.45571 0.617954,6.48295 2.67,8.45316 l 0.250946,2.25452 z m -53.3895,-55.3036 c -1.8319,-2.14302 -2.86791,-5.6169 -2.30784,-10.516 l -2.33009,-0.21558 c -0.635634,3.39889 -0.456835,6.22117 0.287447,8.4851 l 4.35048,2.24653 z m 31.9251,31.1626 c 0.575179,-6.60928 7.47904,-13.4886 19.4474,-10.0683 l 1.02688,-3.96722 -0.426893,-29.2058 -3.22807,0.93363 0.584019,28.7356 c -10.4724,-2.99281 -16.8998,3.01791 -18.5814,9.97309 l 1.17802,3.59907 z m 57.236697,-5.12556 c -0.85949,-2.61782 -2.49064,-5.03374 -4.89971,-6.76298 l -6.17041,-0.20817 c 2.96144,2.87846 5.87498,5.19629 8.7349,6.04836 l 2.33522,0.9228 z m 14.4918,-24.4544 c -2.90669,-2.17809 -5.09705,-5.91091 -5.49115,-11.1859 l 3.08578,0.30741 c 0.49334,3.59879 0.87204,5.54847 2.52885,7.57799 l -0.12348,3.30051 z M 110.18582,53.521171 c -6.66717,-6.27393 -19.914497,-0.787342 -15.539797,15.6063 -14.5409,-2.49349 -21.431,5.2459 -19.7614,11.8492 l -2.33608,0.262352 c -1.66993,-7.81582 5.22052,-16.9411 19.7611,-14.4476 -5.27357,-15.9185 10.396597,-21.7116 18.439897,-15.3747 l -0.56377,2.10452 z m 18.548,18.2626 c -2.10823,-1.4649 -4.96388,-2.48807 -8.55439,-2.75156 l 5.77203,-1.35283 c 1.3782,0.456265 2.60955,1.00663 3.69689,1.63257 m -11.5267,55.436199 25.1302,0.519 c -0.61681,-15.4674 12.259,-20.2373 17.9477,-14.2452 l 0.0907,-1.55444 c -7.99946,-8.30003 -19.6995,-2.15785 -19.7905,12.2958 l -21.627,-0.0573 -1.7512,3.04215 z m 61.6123,5.04943 0.0622,0.75797 c -0.83269,-2.20091 -2.46611,-4.21304 -4.91283,-5.64941 l -1.94654,0.47993 c 3.6504,1.6032 4.94277,3.41913 5.64884,6.2936 m -153.051001,6.40254 c -1.99103,-6.8434 2.37942,-15.4657 13.8873,-13.2129 -2.78721,-16.5661 8.52901,-21.9783 14.6016,-16.2861 l 0.704644,-2.48664 c -7.68321,-4.81559 -20.0106,0.33137 -17.3503,16.1446 -12.3069,-2.40908 -16.6622,9.20457 -13.7604,17.457 l 1.91717,-1.61603 z"
   class="fil3" /><path
   style="fill:#4f251a;stroke:#1f1a17;stroke-width:0.217296"
   inkscape:connector-curvature="0"
   id="path25"
   d="m 118.66432,66.319731 c -1.25644,-0.08783 -2.58531,-0.118344 -3.98661,-0.08526 1.53391,-7.235219 -0.50731,-12.122999 -3.92758,-14.8175 l -0.56377,2.10452 c 2.65118,2.4952 3.40317,6.8511 2.45014,13.1207 l 5.19315,1.283821 0.83468,-1.606341 z m 43.4119,44.702499 c 2.22629,2.34463 2.47609,6.33752 1.26271,11.9818 3.39062,-0.0847 6.22003,0.45398 8.49337,1.40786 l 1.42668,-1.22536 c -2.30556,-1.10017 -4.63622,-2.02296 -8.168,-1.93456 1.41556,-6.58504 -0.76111,-8.83756 -4.29573,-11.2703 l 1.28096,1.04057 z m -20.6043,34.8492 -26.4311,-0.87603 -1.15207,29.3897 c 1.55387,-0.29343 3.59508,0.45085 4.95475,0.45969 l 2.07515,1.45777 c -2.35661,-0.45085 -5.67394,-1.04428 -8.78196,-0.45741 l 1.15178,-32.6018 24.105,0.2327 4.07844,2.39539 z m -9.9172,38.3841 c 4.26807,7.39634 -2.57476,15.2005 -16.8627,12.9576 -0.0867,14.8166 -12.168,19.4049 -18.481897,13.7689 l 0.624798,1.55415 c 7.355269,4.14916 19.301999,-0.012 18.733099,-14.155 16.677,3.90049 21.9073,-8.1891 16.6206,-16.5176 l -0.63393,2.39197 z m -37.101697,-39.2182 -10.1975,-2.17695 -24.5071,0.38298 c 2.12135,14.1793 -9.80456,20.7877 -16.0152,15.9168 l -3.562,-1.60634 c 5.78772,9.10106 23.2418,3.84717 21.3292,-12.2664 l 30.6165,0.91794 2.33608,-1.16804 z m -70.9443,-5.66196 c 1.03601,4.59601 5.4729,8.42122 13.7162,7.64985 l -0.182221,-1.31205 c -3.99945,0.26977 -7.03161,-1.09561 -9.04317,-3.24746 l -4.49079,-3.09034 z m 34.9696,-29.4473 c 1.73381,2.86164 2.53598,6.81574 1.67991,11.8355 l 4.8153,0.0419 -0.855211,1.73808 -6.88019,-0.31996 c 1.22307,-7.17106 -0.453698,-12.0531 -3.21382,-14.6401 l 4.454,1.34456 z m 33.9307,-18.910999 c -13.1219,0.857207 -21.6749,-4.52501 -19.8598,-9.77775 l 0.876028,-0.262352 c 1.21737,4.81473 8.44689,9.02492 19.1198,8.22446 l -0.136024,1.81565 z m 38.349297,-20.8005 c 9.9115,7.5854 4.46883,23.253 -14.5335,22.4593 l -0.016,30.238699 3.08064,-0.0336 -4.8327,1.78571 -0.27604,-34.619099 c 18.9558,2.9161 24.5796,-11.2355 15.9892,-18.4348 l 0.5883,-1.39617 z m 48.976,60.178499 c 2.68683,6.75414 -2.23171,15.3918 -14.3772,14.5854 1.2476,15.4175 -11.6972,19.805 -19.0348,13.3828 l 3.46476,0.28631 c 6.33296,3.47132 15.1948,-0.55465 14.4017,-15.4212 11.2113,0.74428 15.8803,-4.63622 14.3974,-11.5483 l 1.14808,-1.28496 z m -88.835597,68.3174 c -12.5099,1.28809 -16.7883,-3.54603 -17.1998,-9.27615 l 2.37343,3.81808 c 1.70729,2.31041 5.49828,5.22224 15.9944,4.29003 l -0.226992,4.96388 -0.941046,-3.79584 z"
   class="fil4 str1" /><path
   style="fill:#c0a062"
   inkscape:connector-curvature="0"
   id="path27"
   d="m 89.610923,379.98793 0,24.8593 c -26.3265,-7.52352 -27.8014,37.0085 1.55073,27.1075 -7.46734,23.8826 29.861697,23.9824 26.810397,0.27832 26.1232,8.81789 27.1064,-32.8411 -0.24125,-27.6759 l -0.0177,-24.6155 22.0039,0 c -0.12832,22.7214 29.4633,22.9324 27.5535,-0.65902 21.921,1.45549 22.1163,-28.2724 -0.61368,-27.7024 4.74544,-22.0724 -28.1738,-23.4266 -27.2299,0.24125 l -21.1088,0 -0.28488,-24.9255 c 28.7227,3.30649 28.6794,-34.9487 -0.0773,-30.0439 5.65569,-24.7447 -36.398793,-23.4822 -28.132393,-0.0296 -26.8249,-6.48153 -28.7698,31.0636 -0.212733,28.8915 l 0.135168,26.41 -28.2186,-0.30256 c 6.87448,-24.1139 -30.7967,-24.8513 -26.3379,0.20475 -22.5004,-6.3321 -21.1561,33.8101 1.17032,26.8104 -4.47453,23.926 30.2997,23.7891 27.6074,1.10502 l 25.6435,0.0462 z"
   class="fil2" /><path
   style="fill:#eeeed4"
   inkscape:connector-curvature="0"
   id="path29"
   d="m 64.683423,353.58593 27.2638,0.23583 0.461113,-31.0217 2.32125,1.11158 -0.153989,32.8302 -30.7719,-0.56149 -0.282314,-0.005 1.16205,-2.58902 z m 32.078,90.8512 c -3.41885,-1.784 -5.68734,-4.31883 -4.88488,-9.99933 l 1.96393,-0.70835 c -0.564913,4.45571 0.617954,6.48295 2.67,8.45316 l 0.250946,2.25452 z m -53.3895,-55.3036 c -1.8319,-2.14302 -2.86791,-5.6169 -2.30784,-10.516 l -2.33009,-0.21559 c -0.635634,3.39889 -0.456835,6.22117 0.287447,8.4851 l 4.35048,2.24653 z m 31.9251,31.1626 c 0.575179,-6.60928 7.47904,-13.4886 19.4474,-10.0683 l 1.02688,-3.96722 -0.426893,-29.2058 -3.22807,0.93363 0.584019,28.7356 c -10.4724,-2.99281 -16.8998,3.01791 -18.5814,9.97309 l 1.17802,3.59907 z m 57.236697,-5.12556 c -0.85949,-2.61782 -2.49064,-5.03374 -4.89971,-6.76298 l -6.17041,-0.20817 c 2.96144,2.87846 5.87498,5.19629 8.7349,6.04836 l 2.33522,0.92279 z m 14.4918,-24.4544 c -2.90669,-2.17809 -5.09705,-5.91091 -5.49115,-11.1859 l 3.08578,0.30741 c 0.49334,3.59879 0.87204,5.54847 2.52885,7.57799 l -0.12348,3.30051 z m -36.8397,-105.412 c -6.66717,-6.27393 -19.914497,-0.78734 -15.539797,15.6063 -14.5409,-2.49349 -21.431,5.2459 -19.7614,11.8492 l -2.33608,0.26235 c -1.66993,-7.81582 5.22052,-16.9411 19.7611,-14.4476 -5.27357,-15.9185 10.396597,-21.7116 18.439897,-15.3747 l -0.56377,2.10452 z m 18.548,18.2626 c -2.10823,-1.4649 -4.96388,-2.48807 -8.55439,-2.75156 l 5.77203,-1.35283 c 1.3782,0.45626 2.60955,1.00663 3.69689,1.63257 m -11.5267,55.4362 25.1302,0.519 c -0.61681,-15.4674 12.259,-20.2373 17.9477,-14.2452 l 0.0907,-1.55444 c -7.99946,-8.30003 -19.6995,-2.15785 -19.7905,12.2958 l -21.627,-0.0573 -1.7512,3.04215 z m 61.6123,5.04943 0.0622,0.75797 c -0.83269,-2.20091 -2.46611,-4.21304 -4.91283,-5.64941 l -1.94654,0.47993 c 3.6504,1.6032 4.94277,3.41913 5.64884,6.2936 m -153.051001,6.40254 c -1.99103,-6.8434 2.37942,-15.4657 13.8873,-13.2129 -2.78721,-16.5661 8.52901,-21.9783 14.6016,-16.2861 l 0.704644,-2.48664 c -7.68321,-4.81559 -20.0106,0.33137 -17.3503,16.1446 -12.3069,-2.40908 -16.6622,9.20457 -13.7604,17.457 l 1.91717,-1.61603 z"
   class="fil3" /><path
   style="fill:#4f251a;stroke:#1f1a17;stroke-width:0.217296"
   inkscape:connector-curvature="0"
   id="path31"
   d="m 118.66432,298.10193 c -1.25644,-0.0878 -2.58531,-0.11834 -3.98661,-0.0853 1.53391,-7.23522 -0.50731,-12.123 -3.92758,-14.8175 l -0.56377,2.10452 c 2.65118,2.4952 3.40317,6.8511 2.45014,13.1207 l 5.19315,1.28382 0.83468,-1.60634 z m 43.4119,44.7025 c 2.22629,2.34463 2.47609,6.33752 1.26271,11.9818 3.39062,-0.0847 6.22003,0.45398 8.49337,1.40786 l 1.42668,-1.22536 c -2.30556,-1.10017 -4.63622,-2.02296 -8.168,-1.93456 1.41556,-6.58504 -0.76111,-8.83756 -4.29573,-11.2703 l 1.28096,1.04057 z m -20.6043,34.8492 -26.4311,-0.87603 -1.15207,29.3897 c 1.55387,-0.29343 3.59508,0.45085 4.95475,0.45969 l 2.07515,1.45777 c -2.35661,-0.45085 -5.67394,-1.04428 -8.78196,-0.45741 l 1.15178,-32.6018 24.105,0.2327 4.07844,2.39539 z m -9.9172,38.3841 c 4.26807,7.39634 -2.57476,15.2005 -16.8627,12.9576 -0.0867,14.8166 -12.168,19.4049 -18.481897,13.7689 l 0.624798,1.55415 c 7.355269,4.14916 19.301999,-0.012 18.733099,-14.155 16.677,3.90049 21.9073,-8.1891 16.6206,-16.5176 l -0.63393,2.39197 z m -37.101697,-39.2182 -10.1975,-2.17695 -24.5071,0.38298 c 2.12135,14.1793 -9.80456,20.7877 -16.0152,15.9168 l -3.562,-1.60634 c 5.78772,9.10106 23.2418,3.84717 21.3292,-12.2664 l 30.6165,0.91795 2.33608,-1.16804 z m -70.9443,-5.66196 c 1.03601,4.59601 5.4729,8.42122 13.7162,7.64985 l -0.182221,-1.31205 c -3.99945,0.26977 -7.03161,-1.09561 -9.04317,-3.24746 l -4.49079,-3.09034 z m 34.9696,-29.4473 c 1.73381,2.86164 2.53598,6.81574 1.67991,11.8355 l 4.8153,0.0419 -0.855211,1.73808 -6.88019,-0.31996 c 1.22307,-7.17106 -0.453698,-12.0531 -3.21382,-14.6401 l 4.454,1.34456 z m 33.9307,-18.911 c -13.1219,0.85721 -21.6749,-4.52501 -19.8598,-9.77775 l 0.876028,-0.26235 c 1.21737,4.81473 8.44689,9.02492 19.1198,8.22446 l -0.136024,1.81565 z m 38.349297,-20.8005 c 9.9115,7.5854 4.46883,23.253 -14.5335,22.4593 l -0.016,30.2387 3.08064,-0.0336 -4.8327,1.78571 -0.27604,-34.6191 c 18.9558,2.9161 24.5796,-11.2355 15.9892,-18.4348 l 0.5883,-1.39617 z m 48.976,60.1785 c 2.68683,6.75414 -2.23171,15.3918 -14.3772,14.5854 1.2476,15.4175 -11.6972,19.805 -19.0348,13.3828 l 3.46476,0.28631 c 6.33296,3.47132 15.1948,-0.55465 14.4017,-15.4212 11.2113,0.74428 15.8803,-4.63622 14.3974,-11.5483 l 1.14808,-1.28496 z m -88.835597,68.3174 c -12.5099,1.28809 -16.7883,-3.54603 -17.1998,-9.27615 l 2.37343,3.81808 c 1.70729,2.31041 5.49828,5.22224 15.9944,4.29003 l -0.226992,4.96388 -0.941046,-3.79584 z"
   class="fil4 str1" /><path
   style="fill:#c0a062"
   inkscape:connector-curvature="0"
   id="path33"
   d="m 386.58232,148.20493 0,24.8593 c -26.3265,-7.52352 -27.8014,37.0085 1.55073,27.1075 -7.46734,23.8826 29.8617,23.9824 26.8104,0.27832 26.1232,8.81789 27.1064,-32.8411 -0.24125,-27.6759 l -0.0177,-24.6155 22.0039,0 c -0.12832,22.7214 29.4633,22.9324 27.5535,-0.65902 21.921,1.45548 22.1163,-28.2724 -0.61368,-27.7024 4.74544,-22.072394 -28.1738,-23.426594 -27.2299,0.24125 l -21.1088,0 -0.28488,-24.925494 c 28.7227,3.30649 28.6794,-34.9487 -0.0773,-30.0439 5.65569,-24.7447 -36.3988,-23.4822 -28.1324,-0.02966 -26.8249,-6.48153 -28.7698,31.0636 -0.21273,28.8915 l 0.13517,26.410004 -28.2186,-0.30256 c 6.87448,-24.113905 -30.7967,-24.851305 -26.3379,0.20475 -22.5004,-6.3321 -21.1561,33.8101 1.17032,26.8104 -4.47453,23.926 30.2997,23.7891 27.6074,1.10502 l 25.6435,0.0462 z"
   class="fil2" /><path
   style="fill:#eeeed4"
   inkscape:connector-curvature="0"
   id="path35"
   d="m 361.65432,121.80293 27.2638,0.23583 0.46111,-31.021697 2.32125,1.11158 -0.15399,32.830197 -30.7719,-0.56149 -0.28231,-0.005 1.16205,-2.58902 z m 32.078,90.8512 c -3.41885,-1.784 -5.68734,-4.31883 -4.88488,-9.99933 l 1.96393,-0.70835 c -0.56491,4.45571 0.61795,6.48295 2.67,8.45316 l 0.25095,2.25452 z m -53.3895,-55.3036 c -1.8319,-2.14302 -2.86791,-5.6169 -2.30784,-10.516 l -2.33009,-0.21558 c -0.63563,3.39889 -0.45683,6.22117 0.28745,8.4851 l 4.35048,2.24653 z m 31.9251,31.1626 c 0.57518,-6.60928 7.47904,-13.4886 19.4474,-10.0683 l 1.02688,-3.96722 -0.42689,-29.2058 -3.22807,0.93363 0.58402,28.7356 c -10.4724,-2.99281 -16.8998,3.01791 -18.5814,9.97309 l 1.17802,3.59907 z m 57.2367,-5.12556 c -0.85949,-2.61782 -2.49064,-5.03374 -4.89971,-6.76298 l -6.17041,-0.20817 c 2.96144,2.87846 5.87498,5.19629 8.7349,6.04836 l 2.33522,0.9228 z m 14.4918,-24.4544 c -2.90669,-2.17809 -5.09705,-5.91091 -5.49115,-11.1859 l 3.08578,0.30741 c 0.49334,3.59879 0.87204,5.54847 2.52885,7.57799 l -0.12348,3.30051 z M 407.15672,53.521171 c -6.66717,-6.27393 -19.9145,-0.787342 -15.5398,15.6063 -14.5409,-2.49349 -21.431,5.2459 -19.7614,11.8492 l -2.33608,0.262352 c -1.66993,-7.81582 5.22052,-16.9411 19.7611,-14.4476 -5.27357,-15.9185 10.3966,-21.7116 18.4399,-15.3747 l -0.56377,2.10452 z m 18.548,18.2626 c -2.10823,-1.4649 -4.96388,-2.48807 -8.55439,-2.75156 l 5.77203,-1.35283 c 1.3782,0.456265 2.60955,1.00663 3.69689,1.63257 m -11.5267,55.436199 25.1302,0.519 c -0.61681,-15.4674 12.259,-20.2373 17.9477,-14.2452 l 0.0907,-1.55444 c -7.99946,-8.30003 -19.6995,-2.15785 -19.7905,12.2958 l -21.627,-0.0573 -1.7512,3.04215 z m 61.6123,5.04943 0.0622,0.75797 c -0.83269,-2.20091 -2.46611,-4.21304 -4.91283,-5.64941 l -1.94654,0.47993 c 3.6504,1.6032 4.94277,3.41913 5.64884,6.2936 m -153.051,6.40254 c -1.99103,-6.8434 2.37942,-15.4657 13.8873,-13.2129 -2.78721,-16.5661 8.52901,-21.9783 14.6016,-16.2861 l 0.70464,-2.48664 c -7.68321,-4.81559 -20.0106,0.33137 -17.3503,16.1446 -12.3069,-2.40908 -16.6622,9.20457 -13.7604,17.457 l 1.91717,-1.61603 z"
   class="fil3" /><path
   style="fill:#4f251a;stroke:#1f1a17;stroke-width:0.217296"
   inkscape:connector-curvature="0"
   id="path37"
   d="m 415.63532,66.319731 c -1.25644,-0.08783 -2.58531,-0.118344 -3.98661,-0.08526 1.53391,-7.235219 -0.50731,-12.122999 -3.92758,-14.8175 l -0.56377,2.10452 c 2.65118,2.4952 3.40317,6.8511 2.45014,13.1207 l 5.19315,1.283821 0.83468,-1.606341 z m 43.4119,44.702499 c 2.22629,2.34463 2.47609,6.33752 1.26271,11.9818 3.39062,-0.0847 6.22003,0.45398 8.49337,1.40786 l 1.42668,-1.22536 c -2.30556,-1.10017 -4.63622,-2.02296 -8.168,-1.93456 1.41556,-6.58504 -0.76111,-8.83756 -4.29573,-11.2703 l 1.28096,1.04057 z m -20.6043,34.8492 -26.4311,-0.87603 -1.15207,29.3897 c 1.55387,-0.29343 3.59508,0.45085 4.95475,0.45969 l 2.07515,1.45777 c -2.35661,-0.45085 -5.67394,-1.04428 -8.78196,-0.45741 l 1.15178,-32.6018 24.105,0.2327 4.07844,2.39539 z m -9.9172,38.3841 c 4.26807,7.39634 -2.57476,15.2005 -16.8627,12.9576 -0.0867,14.8166 -12.168,19.4049 -18.4819,13.7689 l 0.6248,1.55415 c 7.35527,4.14916 19.302,-0.012 18.7331,-14.155 16.677,3.90049 21.9073,-8.1891 16.6206,-16.5176 l -0.63392,2.39197 z m -37.1017,-39.2182 -10.1975,-2.17695 -24.5071,0.38298 c 2.12135,14.1793 -9.80456,20.7877 -16.0152,15.9168 l -3.562,-1.60634 c 5.78772,9.10106 23.2418,3.84717 21.3292,-12.2664 l 30.6165,0.91794 2.33608,-1.16804 z m -70.9443,-5.66196 c 1.03601,4.59601 5.4729,8.42122 13.7162,7.64985 l -0.18222,-1.31205 c -3.99945,0.26977 -7.03161,-1.09561 -9.04317,-3.24746 l -4.49079,-3.09034 z m 34.9696,-29.4473 c 1.73381,2.86164 2.53598,6.81574 1.67991,11.8355 l 4.8153,0.0419 -0.85521,1.73808 -6.88019,-0.31996 c 1.22307,-7.17106 -0.4537,-12.0531 -3.21382,-14.6401 l 4.454,1.34456 z m 33.9307,-18.910999 c -13.1219,0.857207 -21.6749,-4.52501 -19.8598,-9.77775 l 0.87603,-0.262352 c 1.21737,4.81473 8.44689,9.02492 19.1198,8.22446 l -0.13603,1.81565 z m 38.3493,-20.8005 c 9.9115,7.5854 4.46883,23.253 -14.5335,22.4593 l -0.016,30.238699 3.08064,-0.0336 -4.8327,1.78571 -0.27604,-34.619099 c 18.9558,2.9161 24.5796,-11.2355 15.9892,-18.4348 l 0.5883,-1.39617 z m 48.976,60.178499 c 2.68683,6.75414 -2.23171,15.3918 -14.3772,14.5854 1.2476,15.4175 -11.6972,19.805 -19.0348,13.3828 l 3.46476,0.28631 c 6.33296,3.47132 15.1948,-0.55465 14.4017,-15.4212 11.2113,0.74428 15.8803,-4.63622 14.3974,-11.5483 l 1.14808,-1.28496 z m -88.8356,68.3174 c -12.5099,1.28809 -16.7883,-3.54603 -17.1998,-9.27615 l 2.37343,3.81808 c 1.70729,2.31041 5.49828,5.22224 15.9944,4.29003 l -0.22699,4.96388 -0.94105,-3.79584 z"
   class="fil4 str1" /><path
   style="fill:#c0a062"
   inkscape:connector-curvature="0"
   id="path39"
   d="m 386.58232,379.98793 0,24.8593 c -26.3265,-7.52352 -27.8014,37.0085 1.55073,27.1075 -7.46734,23.8826 29.8617,23.9824 26.8104,0.27832 26.1232,8.81789 27.1064,-32.8411 -0.24125,-27.6759 l -0.0177,-24.6155 22.0039,0 c -0.12832,22.7214 29.4633,22.9324 27.5535,-0.65902 21.921,1.45549 22.1163,-28.2724 -0.61368,-27.7024 4.74544,-22.0724 -28.1738,-23.4266 -27.2299,0.24125 l -21.1088,0 -0.28488,-24.9255 c 28.7227,3.30649 28.6794,-34.9487 -0.0773,-30.0439 5.65569,-24.7447 -36.3988,-23.4822 -28.1324,-0.0296 -26.8249,-6.48153 -28.7698,31.0636 -0.21273,28.8915 l 0.13517,26.41 -28.2186,-0.30256 c 6.87448,-24.1139 -30.7967,-24.8513 -26.3379,0.20475 -22.5004,-6.3321 -21.1561,33.8101 1.17032,26.8104 -4.47453,23.926 30.2997,23.7891 27.6074,1.10502 l 25.6435,0.0462 z"
   class="fil2" /><path
   style="fill:#eeeed4"
   inkscape:connector-curvature="0"
   id="path41"
   d="m 361.65432,353.58593 27.2638,0.23583 0.46111,-31.0217 2.32125,1.11158 -0.15399,32.8302 -30.7719,-0.56149 -0.28231,-0.005 1.16205,-2.58902 z m 32.078,90.8512 c -3.41885,-1.784 -5.68734,-4.31883 -4.88488,-9.99933 l 1.96393,-0.70835 c -0.56491,4.45571 0.61795,6.48295 2.67,8.45316 l 0.25095,2.25452 z m -53.3895,-55.3036 c -1.8319,-2.14302 -2.86791,-5.6169 -2.30784,-10.516 l -2.33009,-0.21559 c -0.63563,3.39889 -0.45683,6.22117 0.28745,8.4851 l 4.35048,2.24653 z m 31.9251,31.1626 c 0.57518,-6.60928 7.47904,-13.4886 19.4474,-10.0683 l 1.02688,-3.96722 -0.42689,-29.2058 -3.22807,0.93363 0.58402,28.7356 c -10.4724,-2.99281 -16.8998,3.01791 -18.5814,9.97309 l 1.17802,3.59907 z m 57.2367,-5.12556 c -0.85949,-2.61782 -2.49064,-5.03374 -4.89971,-6.76298 l -6.17041,-0.20817 c 2.96144,2.87846 5.87498,5.19629 8.7349,6.04836 l 2.33522,0.92279 z m 14.4918,-24.4544 c -2.90669,-2.17809 -5.09705,-5.91091 -5.49115,-11.1859 l 3.08578,0.30741 c 0.49334,3.59879 0.87204,5.54847 2.52885,7.57799 l -0.12348,3.30051 z m -36.8397,-105.412 c -6.66717,-6.27393 -19.9145,-0.78734 -15.5398,15.6063 -14.5409,-2.49349 -21.431,5.2459 -19.7614,11.8492 l -2.33608,0.26235 c -1.66993,-7.81582 5.22052,-16.9411 19.7611,-14.4476 -5.27357,-15.9185 10.3966,-21.7116 18.4399,-15.3747 l -0.56377,2.10452 z m 18.548,18.2626 c -2.10823,-1.4649 -4.96388,-2.48807 -8.55439,-2.75156 l 5.77203,-1.35283 c 1.3782,0.45626 2.60955,1.00663 3.69689,1.63257 m -11.5267,55.4362 25.1302,0.519 c -0.61681,-15.4674 12.259,-20.2373 17.9477,-14.2452 l 0.0907,-1.55444 c -7.99946,-8.30003 -19.6995,-2.15785 -19.7905,12.2958 l -21.627,-0.0573 -1.7512,3.04215 z m 61.6123,5.04943 0.0622,0.75797 c -0.83269,-2.20091 -2.46611,-4.21304 -4.91283,-5.64941 l -1.94654,0.47993 c 3.6504,1.6032 4.94277,3.41913 5.64884,6.2936 m -153.051,6.40254 c -1.99103,-6.8434 2.37942,-15.4657 13.8873,-13.2129 -2.78721,-16.5661 8.52901,-21.9783 14.6016,-16.2861 l 0.70464,-2.48664 c -7.68321,-4.81559 -20.0106,0.33137 -17.3503,16.1446 -12.3069,-2.40908 -16.6622,9.20457 -13.7604,17.457 l 1.91717,-1.61603 z"
   class="fil3" /><path
   style="fill:#4f251a;stroke:#1f1a17;stroke-width:0.217296"
   inkscape:connector-curvature="0"
   id="path43"
   d="m 415.63532,298.10193 c -1.25644,-0.0878 -2.58531,-0.11834 -3.98661,-0.0853 1.53391,-7.23522 -0.50731,-12.123 -3.92758,-14.8175 l -0.56377,2.10452 c 2.65118,2.4952 3.40317,6.8511 2.45014,13.1207 l 5.19315,1.28382 0.83468,-1.60634 z m 43.4119,44.7025 c 2.22629,2.34463 2.47609,6.33752 1.26271,11.9818 3.39062,-0.0847 6.22003,0.45398 8.49337,1.40786 l 1.42668,-1.22536 c -2.30556,-1.10017 -4.63622,-2.02296 -8.168,-1.93456 1.41556,-6.58504 -0.76111,-8.83756 -4.29573,-11.2703 l 1.28096,1.04057 z m -20.6043,34.8492 -26.4311,-0.87603 -1.15207,29.3897 c 1.55387,-0.29343 3.59508,0.45085 4.95475,0.45969 l 2.07515,1.45777 c -2.35661,-0.45085 -5.67394,-1.04428 -8.78196,-0.45741 l 1.15178,-32.6018 24.105,0.2327 4.07844,2.39539 z m -9.9172,38.3841 c 4.26807,7.39634 -2.57476,15.2005 -16.8627,12.9576 -0.0867,14.8166 -12.168,19.4049 -18.4819,13.7689 l 0.6248,1.55415 c 7.35527,4.14916 19.302,-0.012 18.7331,-14.155 16.677,3.90049 21.9073,-8.1891 16.6206,-16.5176 l -0.63392,2.39197 z m -37.1017,-39.2182 -10.1975,-2.17695 -24.5071,0.38298 c 2.12135,14.1793 -9.80456,20.7877 -16.0152,15.9168 l -3.562,-1.60634 c 5.78772,9.10106 23.2418,3.84717 21.3292,-12.2664 l 30.6165,0.91795 2.33608,-1.16804 z m -70.9443,-5.66196 c 1.03601,4.59601 5.4729,8.42122 13.7162,7.64985 l -0.18222,-1.31205 c -3.99945,0.26977 -7.03161,-1.09561 -9.04317,-3.24746 l -4.49079,-3.09034 z m 34.9696,-29.4473 c 1.73381,2.86164 2.53598,6.81574 1.67991,11.8355 l 4.8153,0.0419 -0.85521,1.73808 -6.88019,-0.31996 c 1.22307,-7.17106 -0.4537,-12.0531 -3.21382,-14.6401 l 4.454,1.34456 z m 33.9307,-18.911 c -13.1219,0.85721 -21.6749,-4.52501 -19.8598,-9.77775 l 0.87603,-0.26235 c 1.21737,4.81473 8.44689,9.02492 19.1198,8.22446 l -0.13603,1.81565 z m 38.3493,-20.8005 c 9.9115,7.5854 4.46883,23.253 -14.5335,22.4593 l -0.016,30.2387 3.08064,-0.0336 -4.8327,1.78571 -0.27604,-34.6191 c 18.9558,2.9161 24.5796,-11.2355 15.9892,-18.4348 l 0.5883,-1.39617 z m 48.976,60.1785 c 2.68683,6.75414 -2.23171,15.3918 -14.3772,14.5854 1.2476,15.4175 -11.6972,19.805 -19.0348,13.3828 l 3.46476,0.28631 c 6.33296,3.47132 15.1948,-0.55465 14.4017,-15.4212 11.2113,0.74428 15.8803,-4.63622 14.3974,-11.5483 l 1.14808,-1.28496 z m -88.8356,68.3174 c -12.5099,1.28809 -16.7883,-3.54603 -17.1998,-9.27615 l 2.37343,3.81808 c 1.70729,2.31041 5.49828,5.22224 15.9944,4.29003 l -0.22699,4.96388 -0.94105,-3.79584 z"
   class="fil4 str1" /><path
   style="fill:#c0a062"
   inkscape:connector-curvature="0"
   id="path45"
   d="m 258.89332,511.30393 c 2.54025,-52.1034 15.1466,-44.3042 23.0759,-68.7848 5.42527,-16.7492 2.43702,-41.7856 7.48274,-59.8035 -3.02618,1.41185 -5.64799,3.22722 -7.86658,5.44609 17.3466,-29.4493 1.71441,-43.1655 11.1947,-67.471 l -9.07682,5.74865 c 12.9092,-21.6834 0.40322,-52.4436 9.68194,-65.9582 -3.42912,2.6221 -7.3624,4.43775 -9.9845,7.86658 13.6092,-25.8859 -0.30826,-47.1205 7.56401,-68.8378 -3.42912,2.6221 -8.27008,6.85823 -11.4973,9.9845 15.9348,-25.9193 -1.10958,-65.9037 12.7075,-80.9311 -4.03424,1.41185 -8.57265,9.58128 -12.7075,10.8922 17.5425,-30.7269 -2.72875,-45.305099 7.56401,-69.140399 -3.42912,2.6221 -4.63936,4.13518 -7.86658,6.35377 14.4222,-19.8153 -10.7912,-41.1437 0.60512,-57.6311 -5.6477,2.92494 -10.4887,8.67359 -14.5229,17.246 -4.33651,-7.16051 -8.67331,-8.57236 -13.0101,-21.4818 -4.3368,12.9094 -5.23592,13.1111 -9.57244,20.2716 -4.03424,-8.57236 -14.0187,-14.0185 -19.6664,-16.9434 10.4887,17.0925 -10.7915,39.3286 1.5128,59.1439 -3.22722,-2.21859 -5.95026,-4.3368 -9.37938,-6.95889 10.2928,23.8353 -8.16315,36.598099 9.37938,67.324999 -4.1349,-1.31091 -7.76563,-9.48033 -13.0101,-10.8922 13.8171,15.0274 -5.95026,54.4067 10.5896,81.5362 -3.22722,-3.12627 -7.16051,-6.45472 -12.1024,-6.95889 13.3184,25.0455 -4.83498,37.5058 8.77426,63.3917 -2.6221,-3.42883 -8.37075,-5.54704 -10.5896,-6.35377 9.27871,13.5146 -0.80673,49.4183 12.405,65.6556 l -11.4973,-6.65633 c 13.7162,25.8183 -5.24419,37.4166 14.5229,72.0094 -2.21859,-2.21887 -9.37881,-6.45472 -12.405,-7.86658 16.2405,23.464 3.87369,39.1213 12.3237,62.8291 8.63937,24.2382 25.6792,21.2197 22.7733,73.0206 -24.6243,-44.2557 -53.1645,-60.1622 -78.2774,-32.1729 -35.9303,40.0455 -43.2459,-4.26665 -67.6664,7.36297 7.35813,1.8165 13.453,-1.3668 24.9044,10.0806 13.7025,13.6976 33.3344,11.777 47.2938,1.62345 31.8199,-23.1443 54.3525,-10.0162 73.636,24.3007 l -0.60512,21.1792 c 1.61375,8.77426 11.3964,8.4717 13.9178,-2.72305 l 0.90768,-18.1536 c 5.20769,-27.3297 29.9036,-43.9295 53.2048,-39.7027 17.9825,3.26201 24.4529,13.5953 37.3199,20.3682 15.9459,8.39356 24.2433,2.92694 33.8417,-4.73517 9.78089,-7.80783 20.9819,-4.64934 21.7704,-7.09406 -8.20193,-3.44794 -16.0349,-0.36644 -22.6196,3.78158 -10.526,6.63095 -22.2495,-0.20019 -28.7105,-5.75692 -7.29225,-6.27222 -13.1721,-17.1695 -23.8752,-21.4824 -19.0781,-7.68806 -46.2376,-1.70443 -72.4443,37.0729 z"
   class="fil2" /><path
   style="fill:#eeeed4"
   inkscape:connector-curvature="0"
   id="path47"
   d="m 277.46732,23.797331 c 0.48763,-1.62573 1.23477,-3.21382 2.303,-4.75941 -5.6477,2.92494 -10.4887,8.67359 -14.5229,17.246 l 0.60512,2.11792 2.42048,-1.21024 9.19431,-13.3942 z m -41.8709,53.6348 c -6.47041,-11.6482 -6.6358,-25.0621 7.0684,-42.3585 4.33651,-7.16051 5.23564,-7.36212 9.57244,-20.2716 0.67755,2.01698 1.35511,3.75363 2.03266,5.27471 -6.4262,16.7988 -24.6523,31.1771 -19.2786,50.3964 m -7.56401,6.35377 0,0.302561 c -10.8922,-19.969 4.53841,-29.9535 0.90768,-50.8302 l 3.02561,4.53841 0,-4.84097 -3.32817,-3.32817 -0.14572,-1.8627 c -1.79312,-1.05568 -3.47645,-1.94454 -4.88831,-2.67571 10.1607,16.5581 -9.4923,37.9441 0.4557,57.2792 l 3.97321,1.41756 z m -3.32817,57.789099 -1.8242,-1.18144 c -13.6392,-27.742 2.66715,-40.401399 -7.14311,-63.119399 3.42912,2.6221 6.15216,4.74031 9.37938,6.95889 l 2.00842,2.57847 0.60512,2.11792 -5.74865,-4.23585 c 2.11792,20.7757 -6.95889,32.777199 2.72305,56.881399 z m -0.60512,70.7992 -5.39248,-5.73781 c -8.88148,-26.2706 5.8131,-59.4285 -6.60044,-72.9294 5.24448,1.41185 8.87521,9.58128 13.0101,10.8922 l -1.62231,3.02703 -4.23585,-4.23585 c 1.61375,22.9946 -6.45444,42.9636 4.84097,68.9838 z m -3.02561,53.5532 0,3.02561 -4.34393,-3.11059 c -8.32626,-22.0761 6.14161,-34.4694 -6.13619,-57.5581 4.94192,0.50417 8.87521,3.83262 12.1024,6.95889 l -1.31975,3.48472 -4.84097,-3.93329 c 5.14353,23.7004 -3.32817,44.9806 4.53841,51.1327 z m -6.35377,7.26145 2.11792,2.11792 -0.60512,-3.32817 3.32817,4.23585 -0.19306,-4.53841 c -2.6221,-3.42883 -8.37075,-5.54704 -10.5896,-6.35377 7.82865,11.4029 1.8724,38.7449 7.75565,56.7642 l 6.05264,7.0761 0.30256,-3.32817 c -11.0068,-10.4542 -3.54575,-32.4344 -8.16914,-52.6455 m 6.05121,62.3275 0,-2.42048 -3.76076,-4.53385 -7.32448,-4.24041 c 12.2159,22.9943 -1.48714,34.7092 9.33347,61.4349 l 5.07994,4.22073 -1.81536,-4.53841 c -7.38151,-19.1149 -0.99523,-31.1857 -5.14353,-52.343 m 2.07914,59.5699 c -2.70308,-1.71955 -5.71358,-3.40744 -7.41573,-4.20134 10.9113,15.7648 8.90943,28.0055 8.98357,41.5318 l 2.10167,-1.29123 c 2.29672,-9.53907 0.3807,-16.9018 -0.30256,-27.533 l 7.26145,8.77426 1.21024,-2.42048 c -2.21716,-3.32931 -4.53584,-6.55767 -7.56401,-9.07682 l -4.27463,-5.78316 z m -98.9841,108.043 c -5.68591,-3.01021 -11.647,-4.83869 -19.2783,-1.20454 4.59858,1.13524 8.70439,0.31739 13.9323,2.33921 l 3.61618,-0.22129 6.35377,4.53841 -0.90768,-2.72305 -3.71628,-2.72875 z m 252.287,10.2779 c 3.94355,0.52242 8.05906,-0.071 12.0063,-2.55736 6.58476,-4.14802 14.4177,-7.22952 22.6196,-3.78158 -0.78848,2.44472 -11.9895,-0.71348 -21.7704,7.09406 l -4.85494,1.37763 -4.84097,0.30256 -0.90768,-1.21024 -2.25195,-1.22507 z"
   class="fil3" /><path
   style="fill:#eeeed4"
   inkscape:connector-curvature="0"
   id="path49"
   d="m 250.72432,68.052731 3.32817,0.907682 c -7.46307,20.5741 -28.8439,28.1381 -22.3895,61.722397 l -4.53841,-5.14353 c 0.90768,-37.013297 14.8255,-32.575897 23.5997,-57.486497 z"
   class="fil3" /><path
   style="fill:#eeeed4"
   inkscape:connector-curvature="0"
   id="path51"
   d="m 249.51332,135.05693 3.32817,0.90768 c -7.81696,19.7383 -30.1055,30.7799 -22.692,68.6813 l -3.93329,-5.74865 c -3.94184,-35.0768 11.3909,-35.8108 23.2972,-63.8403 z"
   class="fil3" /><path
   style="fill:#eeeed4"
   inkscape:connector-curvature="0"
   id="path53"
   d="m 249.51332,200.07093 3.32817,0.90768 c -13.263,32.1433 -28.5927,28.3594 -21.1792,66.2608 l -3.32817,-6.35377 c -7.27001,-32.6563 9.87813,-30.0621 21.1792,-60.8147 z"
   class="fil3" /><path
   style="fill:#eeeed4"
   inkscape:connector-curvature="0"
   id="path55"
   d="m 249.51332,258.01693 2.42048,1.21024 c -13.2633,32.7364 -27.6847,26.8087 -22.3895,61.1172 l -2.42048,-0.60512 c -7.27001,-32.6563 11.0884,-30.9698 22.3895,-61.7224 z"
   class="fil3" /><path
   style="fill:#eeeed4"
   inkscape:connector-curvature="0"
   id="path57"
   d="m 250.11932,316.86993 1.81536,1.81536 c -17.7518,41.505 -28.9164,37.8255 -16.3383,66.8659 l -2.72305,-1.81536 c -17.2545,-27.5128 5.94485,-36.1134 17.246,-66.8659 z"
   class="fil3" /><path
   style="fill:#eeeed4"
   inkscape:connector-curvature="0"
   id="path59"
   d="m 251.32932,376.63093 1.81536,1.81536 c -18.1231,42.4323 -27.0097,41.6809 -13.6152,68.6813 l -2.72305,-1.81536 c -17.2545,-27.5128 3.2218,-37.9287 14.5229,-68.6813 z"
   class="fil3" /><path
   style="fill:#eeeed4"
   inkscape:connector-curvature="0"
   id="path61"
   d="m 245.27832,401.47493 c -10.1881,17.5998 -10.3889,29.0969 -6.05121,37.8201 l 3.02561,2.72305 c -5.19543,-13.7666 -3.98547,-26.0713 4.53841,-39.0303 l -1.5128,-1.5128 z"
   class="fil3" /><path
   style="fill:#eeeed4"
   inkscape:connector-curvature="0"
   id="path63"
   d="m 242.26132,343.83093 c -10.1881,17.5998 -10.994,28.7943 -6.65633,37.5175 l 3.02561,2.72305 c -5.19543,-13.7666 -3.38035,-25.7687 5.14353,-38.7278 l -1.5128,-1.5128 z"
   class="fil3" /><path
   style="fill:#eeeed4"
   inkscape:connector-curvature="0"
   id="path65"
   d="m 243.47132,280.45793 c -11.2002,15.0681 -15.5344,28.4855 -10.5896,38.7278 l 3.63073,6.95889 c -6.25453,-14.8258 -1.41385,-32.577 8.4717,-44.1738 l -1.5128,-1.5128 z"
   class="fil3" /><path
   style="fill:#eeeed4"
   inkscape:connector-curvature="0"
   id="path67"
   d="m 244.68232,221.58593 c -11.4029,15.7771 -16.3468,27.2695 -9.9845,39.0303 l 3.02561,2.72305 c -7.45879,-13.7669 -1.08078,-27.2818 8.4717,-40.2406 l -1.5128,-1.5128 z"
   class="fil3" /><path
   style="fill:#eeeed4"
   inkscape:connector-curvature="0"
   id="path69"
   d="m 242.26132,161.82493 c -11.4029,15.7771 -12.7161,29.0849 -6.35377,40.8457 l 3.02561,2.72305 c -7.45879,-13.7669 -4.7115,-29.0971 4.84097,-42.0559 l -1.5128,-1.5128 z"
   class="fil3" /><path
   style="fill:#eeeed4"
   inkscape:connector-curvature="0"
   id="path71"
   d="m 243.77432,88.788231 c -11.4029,15.777099 -15.1366,32.110499 -8.77426,43.871299 l 3.02561,2.72305 c -7.45879,-13.7669 -2.29102,-32.1228 7.26145,-45.081499 l -1.5128,-1.5128 z"
   class="fil3" /><path
   style="fill:#eeeed4"
   inkscape:connector-curvature="0"
   id="path73"
   d="m 248.30332,35.073631 c -10.9928,13.2117 -13.9175,26.0199 -8.77426,38.4252 l 3.93329,-0.302561 c -4.28775,-10.1861 -3.78386,-21.885 7.26145,-36.9124 l -2.42048,-1.21024 z"
   class="fil3" /><path
   style="fill:#eeeed4"
   inkscape:connector-curvature="0"
   id="path75"
   d="m 250.11932,45.965731 -4.53841,3.32817 c -2.4202,5.34514 -3.22665,10.69 -2.42048,16.0357 l 1.81536,3.32817 1.21024,-3.63073 c -1.18144,-5.22281 1.04941,-12.194 3.93329,-19.0613 z"
   class="fil3" /><path
   style="fill:#eeeed4"
   inkscape:connector-curvature="0"
   id="path77"
   d="m 244.06732,97.401031 c -7.76563,11.522399 -7.86658,24.481699 -2.72305,38.425199 l 1.81536,-0.60512 c -4.67158,-12.7589 -6.33894,-25.1647 2.72305,-36.3073 l -1.81536,-1.5128 z"
   class="fil3" /><path
   style="fill:#eeeed4"
   inkscape:connector-curvature="0"
   id="path79"
   d="m 244.37032,167.41293 c -7.76563,11.5224 -8.77426,20.851 -3.63073,34.7945 l 1.81536,-0.60512 c -4.67158,-12.7589 -5.43126,-21.534 3.63073,-32.6765 l -1.81536,-1.5128 z"
   class="fil3" /><path
   style="fill:#eeeed4"
   inkscape:connector-curvature="0"
   id="path81"
   d="m 245.58032,231.10693 c -6.70624,9.75694 -10.7402,14.0424 -6.95889,30.2561 l 1.81536,-0.60512 c -3.46105,-13.9691 -0.89257,-18.2058 6.95889,-28.1381 l -1.81536,-1.5128 z"
   class="fil3" /><path
   style="fill:#eeeed4"
   inkscape:connector-curvature="0"
   id="path83"
   d="m 247.39632,347.74893 c -8.56666,11.959 -12.8849,21.5508 -5.14353,32.374 l 1.81536,-0.60512 c -4.98498,-9.87443 -3.62046,-17.9118 5.14353,-30.2561 l -1.81536,-1.5128 z"
   class="fil3" /><path
   style="fill:#eeeed4"
   inkscape:connector-curvature="0"
   id="path85"
   d="m 246.48832,287.98793 c -7.92104,10.6678 -13.0671,19.7965 -7.26145,34.4919 l 1.81536,-0.60512 c -4.42007,-11.5712 -1.24589,-20.8008 7.26145,-32.374 l -1.81536,-1.5128 z"
   class="fil3" /><path
   style="fill:#eeeed4"
   inkscape:connector-curvature="0"
   id="path87"
   d="m 248.90832,404.48493 c -7.05357,11.9587 -11.4728,22.1556 -5.44609,32.9791 l 1.81536,-0.60512 c -4.53071,-10.3284 -1.75405,-15.5421 4.53841,-30.2561 l -0.90768,-2.11792 z"
   class="fil3" /><path
   style="fill:#eeeed4"
   inkscape:connector-curvature="0"
   id="path89"
   d="m 222.88832,398.44893 c 9.17748,15.5313 -2.21887,21.3809 7.56401,43.8713 l -3.32817,-0.60512 c -6.95889,-20.4735 0,-24.0032 -4.53841,-38.7278 l 0.30256,-4.53841 z"
   class="fil3" /><path
   style="fill:#eeeed4"
   inkscape:connector-curvature="0"
   id="path91"
   d="m 219.26732,333.25993 c 9.17748,15.5313 -4.03424,19.5655 5.74865,42.0559 l -3.02561,-1.81536 c -7.26887,-20.7831 0.58174,-21.909 -3.02561,-35.7022 l 0.30256,-4.53841 z"
   class="fil3" /><path
   style="fill:#eeeed4"
   inkscape:connector-curvature="0"
   id="path93"
   d="m 216.85532,270.79393 c 6.50348,16.8156 -1.40701,26.0775 4.84097,41.4508 l -1.81536,0 c -5.74865,-15.3299 -0.60512,-20.0699 -3.32817,-36.9124 l 0.30256,-4.53841 z"
   class="fil3" /><path
   style="fill:#eeeed4"
   inkscape:connector-curvature="0"
   id="path95"
   d="m 218.96432,215.26893 c 6.63723,17.1735 -0.33849,29.6692 5.44609,45.3841 l -1.81536,0 c -5.74865,-15.3299 -1.21024,-24.0032 -3.93329,-40.8457 l 0.30256,-4.53841 z"
   class="fil3" /><path
   style="fill:#eeeed4"
   inkscape:connector-curvature="0"
   id="path97"
   d="m 220.47732,142.23193 c 6.64036,17.5263 -3.68348,30.7471 2.11792,45.0815 l -1.81536,0 c -5.74865,-15.3299 2.11792,-23.7007 -0.60512,-40.5431 l 0.30256,-4.53841 z"
   class="fil3" /><path
   style="fill:#eeeed4"
   inkscape:connector-curvature="0"
   id="path99"
   d="m 223.50232,89.837031 c 6.27164,11.121199 -4.12264,22.549699 2.11792,39.384799 l -1.81536,0 c -5.96367,-15.7594 1.47231,-27.8062 -0.60512,-35.419799 l 0.30256,-3.96494 z"
   class="fil3" /><path
   style="fill:#eeeed4"
   inkscape:connector-curvature="0"
   id="path101"
   d="m 227.13332,35.981231 c 5.68192,10.7949 -4.0753,23.464 2.11792,39.3848 l -1.81536,0 c -5.96367,-15.7594 1.47231,-27.8062 -0.60512,-35.4198 l 0.30256,-3.96494 z"
   class="fil3" /><path
   style="fill:#4f251a"
   inkscape:connector-curvature="0"
   id="path103"
   d="m 265.24732,38.401731 c 11.3964,18.5571 11.497,34.29 0.30256,47.1995 l 1.81536,1.5128 c 9.5328,-14.2195 12.559,-22.8928 0.30256,-48.4097 l -2.42048,-0.302561 z"
   class="fil4" /><path
   style="fill:#4f251a"
   inkscape:connector-curvature="0"
   id="path105"
   d="m 253.74932,68.355231 c 2.18209,18.6578 39.4729,31.869199 9.37938,78.665799 l 1.5128,0.90768 c 30.758,-48.443597 -8.71523,-63.961797 -9.07682,-79.573397 l -1.81536,0 z"
   class="fil4" /><path
   style="fill:#4f251a"
   inkscape:connector-curvature="0"
   id="path107"
   d="m 252.84232,133.84693 c 2.18209,18.6578 43.7087,35.8025 13.6152,82.599 l 1.5128,0.90768 c 30.758,-48.4436 -12.9511,-67.8951 -13.3127,-83.5067 l -1.81536,0 z"
   class="fil4" /><path
   style="fill:#4f251a"
   inkscape:connector-curvature="0"
   id="path109"
   d="m 254.05232,199.50193 c 2.87361,19.3488 45.5444,35.5202 13.6152,80.4811 l 1.5128,0.90768 c 33.248,-46.5761 -12.0505,-65.1019 -13.3127,-81.3888 l -1.81536,0 z"
   class="fil4" /><path
   style="fill:#4f251a"
   inkscape:connector-curvature="0"
   id="path111"
   d="m 252.53932,258.35593 c 2.87361,19.3488 44.9392,30.6792 13.0101,75.6401 l 1.5128,0.90768 c 33.248,-46.5761 -11.4454,-60.2609 -12.7075,-76.5478 l -1.81536,0 z"
   class="fil4" /><path
   style="fill:#4f251a"
   inkscape:connector-curvature="0"
   id="path113"
   d="m 253.14432,317.20893 c 2.87361,22.3384 44.3338,34.0502 12.405,74.7325 l 1.5128,0.90768 c 33.248,-42.4908 -10.8406,-56.1756 -12.1024,-75.6401 l -1.81536,0 z"
   class="fil4" /><path
   style="fill:#4f251a"
   inkscape:connector-curvature="0"
   id="path115"
   d="m 255.25332,378.77593 c 2.87361,18.8081 38.5846,38.689 6.65633,82.2965 l 1.5128,0.90768 c 33.2474,-44.9187 -5.0922,-66.9623 -6.35377,-83.2042 l -1.81536,0 z"
   class="fil4" /><path
   style="fill:#4f251a"
   inkscape:connector-curvature="0"
   id="path117"
   d="m 224.09832,389.06993 c 5.74837,5.8496 9.48004,11.2954 11.1947,16.3383 l -2.42048,-0.90768 c -1.80196,-4.2963 -4.81359,-9.50799 -9.03433,-13.8117 l 0.26007,-1.61888 z"
   class="fil4" /><path
   style="fill:#4f251a"
   inkscape:connector-curvature="0"
   id="path119"
   d="m 220.47732,323.88093 c 5.74837,5.8496 9.48004,11.2954 11.1947,16.3383 l -2.42048,-0.90768 c -1.80196,-4.2963 -4.81359,-9.50799 -9.03433,-13.8117 l 0.26007,-1.61888 z"
   class="fil4" /><path
   style="fill:#4f251a"
   inkscape:connector-curvature="0"
   id="path121"
   d="m 220.17432,264.42193 c 5.74837,5.8496 9.48004,11.2954 11.1947,16.3383 l -2.42048,-0.90768 c -1.80196,-4.2963 -4.81359,-9.50799 -9.03433,-13.8117 l 0.26007,-1.61888 z"
   class="fil4" /><path
   style="fill:#4f251a"
   inkscape:connector-curvature="0"
   id="path123"
   d="m 221.68732,208.89693 c 5.74837,5.8496 9.48004,11.2954 11.1947,16.3383 l -2.42048,-0.90768 c -1.80196,-4.2963 -4.81359,-9.50799 -9.03433,-13.8117 l 0.26007,-1.61888 z"
   class="fil4" /><path
   style="fill:#4f251a"
   inkscape:connector-curvature="0"
   id="path125"
   d="m 224.70332,136.46493 c 5.74837,5.8496 9.48004,11.2954 11.1947,16.3383 l -2.42048,-0.90768 c -1.80196,-4.2963 -4.81359,-9.50799 -9.03433,-13.8117 l 0.26007,-1.61888 z"
   class="fil4" /><path
   style="fill:#4f251a"
   inkscape:connector-curvature="0"
   id="path127"
   d="m 224.70332,74.897831 c 5.74837,5.8496 9.48004,11.2954 11.1947,16.3383 l -2.42048,-0.907682 c -1.80196,-4.2963 -4.81359,-9.50799 -9.03433,-13.8117 l 0.26007,-1.61888 z"
   class="fil4" /><path
   style="fill:#4f251a"
   inkscape:connector-curvature="0"
   id="path129"
   d="m 231.36032,71.683431 c 1.10929,4.84097 3.42854,9.68194 6.95889,14.5229 l 1.5128,-1.5128 c -3.78358,-3.73538 -6.30472,-8.43862 -8.4717,-13.0101 z"
   class="fil4" /><path
   style="fill:#4f251a"
   inkscape:connector-curvature="0"
   id="path131"
   d="m 228.64632,128.72093 c 1.10929,4.84097 6.15159,15.4306 9.68194,20.2716 l 1.5128,-1.5128 c -3.78358,-3.73538 -9.02777,-14.1873 -11.1947,-18.7588 z"
   class="fil4" /><path
   style="fill:#4f251a"
   inkscape:connector-curvature="0"
   id="path133"
   d="m 230.45232,207.20493 c 1.10929,4.84097 2.82342,5.74865 6.35377,10.5896 l 1.5128,-1.5128 c -3.78358,-3.73538 -5.6996,-4.50533 -7.86658,-9.07682 z"
   class="fil4" /><path
   style="fill:#4f251a"
   inkscape:connector-curvature="0"
   id="path135"
   d="m 230.45232,268.77193 c 1.10929,4.84097 2.82342,5.74865 6.35377,10.5896 l 1.5128,-1.5128 c -3.78358,-3.73538 -5.6996,-4.50533 -7.86658,-9.07682 z"
   class="fil4" /><path
   style="fill:#4f251a"
   inkscape:connector-curvature="0"
   id="path137"
   d="m 227.73832,320.38193 c 1.10929,4.84097 3.73111,9.68194 7.26145,14.5229 l 1.5128,-1.5128 c -3.78358,-3.73538 -6.60728,-8.43862 -8.77426,-13.0101 z"
   class="fil4" /><path
   style="fill:#4f251a"
   inkscape:connector-curvature="0"
   id="path139"
   d="m 228.94832,381.49893 c 1.10929,4.84097 3.73111,9.68194 7.26145,14.5229 l 1.5128,-1.5128 c -3.78358,-3.73538 -6.60728,-8.43862 -8.77426,-13.0101 z"
   class="fil4" /><path
   style="fill:#4f251a"
   inkscape:connector-curvature="0"
   id="path141"
   d="m 237.72332,448.36493 c 1.10929,4.84097 3.73111,9.68194 7.26145,14.5229 l 0,-2.72305 c -3.78358,-3.73538 -5.09448,-7.22838 -7.26145,-11.7999 z"
   class="fil4" /><rect
   style="fill:#4f251a"
   y="214.42007"
   x="448.59311"
   id="rect143"
   height="10.287096"
   width="1.2102395"
   transform="matrix(0.86703331,0.49825018,-0.49825018,0.86703331,0,0)"
   class="fil4" /><rect
   style="fill:#4f251a"
   y="219.81696"
   x="451.34616"
   id="rect145"
   height="10.287096"
   width="1.2102395"
   transform="matrix(0.86703331,0.49825018,-0.49825018,0.86703331,0,0)"
   class="fil4" /><rect
   style="fill:#4f251a"
   y="213.37634"
   x="446.15839"
   id="rect147"
   height="8.0853148"
   width="0.951208"
   transform="matrix(0.86703324,0.4982503,-0.4982503,0.86703324,0,0)"
   class="fil4" /><rect
   style="fill:#4f251a"
   y="209.29071"
   x="443.55209"
   id="rect149"
   height="10.287096"
   width="1.2102395"
   transform="matrix(0.86703331,0.49825018,-0.49825018,0.86703331,0,0)"
   class="fil4" /><rect
   style="fill:#4f251a"
   y="330.47501"
   x="386.51224"
   id="rect151"
   height="10.287098"
   width="1.2102398"
   transform="matrix(0.96097419,0.27663805,-0.27663805,0.96097419,0,0)"
   class="fil4" /><rect
   style="fill:#4f251a"
   y="206.71284"
   x="438.93011"
   id="rect153"
   height="10.287096"
   width="1.2102395"
   transform="matrix(0.86703331,0.49825018,-0.49825018,0.86703331,0,0)"
   class="fil4" /><rect
   style="fill:#4f251a"
   y="208.11491"
   x="440.74139"
   id="rect155"
   height="7.6637831"
   width="0.90161633"
   transform="matrix(0.86703349,0.49824986,-0.49824986,0.86703349,0,0)"
   class="fil4" /><rect
   style="fill:#4f251a"
   y="202.18068"
   x="435.27841"
   id="rect157"
   height="10.287096"
   width="1.2102395"
   transform="matrix(0.86703331,0.49825018,-0.49825018,0.86703331,0,0)"
   class="fil4" /><rect
   style="fill:#4f251a"
   y="157.42487"
   x="421.89371"
   id="rect159"
   height="17.548603"
   width="1.2102395"
   transform="matrix(0.8660253,0.50000017,-0.49999928,0.86602582,0,0)"
   class="fil4" /><rect
   style="fill:#4f251a"
   y="154.7347"
   x="419.29324"
   id="rect161"
   height="17.548603"
   width="1.2102395"
   transform="matrix(0.8660253,0.50000017,-0.49999928,0.86602582,0,0)"
   class="fil4" /><rect
   style="fill:#4f251a"
   y="151.93324"
   x="416.2775"
   id="rect163"
   height="17.548603"
   width="1.2102395"
   transform="matrix(0.8660253,0.50000017,-0.49999928,0.86602582,0,0)"
   class="fil4" /><rect
   style="fill:#4f251a"
   y="163.97548"
   x="425.67572"
   id="rect165"
   height="17.548603"
   width="1.2102395"
   transform="matrix(0.8660253,0.50000017,-0.49999928,0.86602582,0,0)"
   class="fil4" /><rect
   style="fill:#4f251a"
   y="172.37144"
   x="428.07745"
   id="rect167"
   height="17.548603"
   width="1.2102395"
   transform="matrix(0.8660253,0.50000017,-0.49999928,0.86602582,0,0)"
   class="fil4" /><rect
   style="fill:#4f251a"
   y="138.51114"
   x="405.03528"
   id="rect169"
   height="17.548603"
   width="1.2102395"
   transform="matrix(0.8660253,0.50000017,-0.49999928,0.86602582,0,0)"
   class="fil4" /><rect
   style="fill:#4f251a"
   y="114.79615"
   x="395.88486"
   id="rect171"
   height="17.548603"
   width="1.2102395"
   transform="matrix(0.8660253,0.50000017,-0.49999928,0.86602582,0,0)"
   class="fil4" /><rect
   style="fill:#4f251a"
   y="107.11658"
   x="392.84827"
   id="rect173"
   height="17.548603"
   width="1.2102395"
   transform="matrix(0.8660253,0.50000017,-0.49999928,0.86602582,0,0)"
   class="fil4" /><rect
   style="fill:#4f251a"
   y="103.6392"
   x="389.79327"
   id="rect175"
   height="17.548603"
   width="1.2102395"
   transform="matrix(0.8660253,0.50000017,-0.49999928,0.86602582,0,0)"
   class="fil4" /><rect
   style="fill:#4f251a"
   y="100.16318"
   x="386.73795"
   id="rect177"
   height="17.548603"
   width="1.2102395"
   transform="matrix(0.8660253,0.50000017,-0.49999928,0.86602582,0,0)"
   class="fil4" /><rect
   style="fill:#4f251a"
   y="120.97432"
   x="399.10196"
   id="rect179"
   height="17.548603"
   width="1.2102395"
   transform="matrix(0.8660253,0.50000017,-0.49999928,0.86602582,0,0)"
   class="fil4" /><rect
   style="fill:#4f251a"
   y="45.562675"
   x="352.41882"
   id="rect181"
   height="17.548603"
   width="1.2102395"
   transform="matrix(0.8660253,0.50000017,-0.49999928,0.86602582,0,0)"
   class="fil4" /><rect
   style="fill:#4f251a"
   y="40.786098"
   x="346.16812"
   id="rect183"
   height="17.548603"
   width="1.2102395"
   transform="matrix(0.8660253,0.50000017,-0.49999928,0.86602582,0,0)"
   class="fil4" /><rect
   style="fill:#4f251a"
   y="25.688519"
   x="340.24591"
   id="rect185"
   height="17.548603"
   width="1.2102395"
   transform="matrix(0.8660253,0.50000017,-0.49999928,0.86602582,0,0)"
   class="fil4" /><rect
   style="fill:#4f251a"
   y="-41.762417"
   x="300.95441"
   id="rect187"
   height="17.548603"
   width="1.2102395"
   transform="matrix(0.8660253,0.50000017,-0.49999928,0.86602582,0,0)"
   class="fil4" /><rect
   style="fill:#4f251a"
   y="-73.626907"
   x="276.26898"
   id="rect189"
   height="17.548603"
   width="1.2102395"
   transform="matrix(0.8660253,0.50000017,-0.49999928,0.86602582,0,0)"
   class="fil4" /><rect
   style="fill:#4f251a"
   y="52.450916"
   x="355.16745"
   id="rect191"
   height="10.287096"
   width="1.2102395"
   transform="matrix(0.86703331,0.49825018,-0.49825018,0.86703331,0,0)"
   class="fil4" /><rect
   style="fill:#4f251a"
   y="54.884491"
   x="357.612"
   id="rect193"
   height="10.287096"
   width="1.2102395"
   transform="matrix(0.86703331,0.49825018,-0.49825018,0.86703331,0,0)"
   class="fil4" /><rect
   style="fill:#4f251a"
   y="49.125015"
   x="349.41666"
   id="rect195"
   height="10.287096"
   width="1.2102395"
   transform="matrix(0.86703331,0.49825018,-0.49825018,0.86703331,0,0)"
   class="fil4" /><rect
   style="fill:#4f251a"
   y="57.953861"
   x="360.77258"
   id="rect197"
   height="10.287096"
   width="1.2102395"
   transform="matrix(0.86703331,0.49825018,-0.49825018,0.86703331,0,0)"
   class="fil4" /><rect
   style="fill:#4f251a"
   y="76.428131"
   x="371.73734"
   id="rect199"
   height="10.287096"
   width="1.2102395"
   transform="matrix(0.86703331,0.49825018,-0.49825018,0.86703331,0,0)"
   class="fil4" /><rect
   style="fill:#4f251a"
   y="16.846004"
   x="335.75278"
   id="rect201"
   height="10.287096"
   width="1.2102395"
   transform="matrix(0.86703331,0.49825018,-0.49825018,0.86703331,0,0)"
   class="fil4" /><rect
   style="fill:#4f251a"
   y="13.212849"
   x="332.96716"
   id="rect203"
   height="10.287096"
   width="1.2102395"
   transform="matrix(0.86703331,0.49825018,-0.49825018,0.86703331,0,0)"
   class="fil4" /><rect
   style="fill:#4f251a"
   y="5.1196737"
   x="327.61856"
   id="rect205"
   height="10.287096"
   width="1.2102395"
   transform="matrix(0.86703331,0.49825018,-0.49825018,0.86703331,0,0)"
   class="fil4" /><rect
   style="fill:#4f251a"
   y="8.4513884"
   x="330.92871"
   id="rect207"
   height="10.287096"
   width="1.2102395"
   transform="matrix(0.86703331,0.49825018,-0.49825018,0.86703331,0,0)"
   class="fil4" /><rect
   style="fill:#4f251a"
   y="-0.94742483"
   x="322.38699"
   id="rect209"
   height="10.287096"
   width="1.2102395"
   transform="matrix(0.86703331,0.49825018,-0.49825018,0.86703331,0,0)"
   class="fil4" /><rect
   style="fill:#4f251a"
   y="-6.7461271"
   x="314.86801"
   id="rect211"
   height="10.287096"
   width="1.2102395"
   transform="matrix(0.86703331,0.49825018,-0.49825018,0.86703331,0,0)"
   class="fil4" /><rect
   style="fill:#4f251a"
   y="-45.471138"
   x="297.84821"
   id="rect213"
   height="10.287096"
   width="1.2102395"
   transform="matrix(0.86703331,0.49825018,-0.49825018,0.86703331,0,0)"
   class="fil4" /><rect
   style="fill:#4f251a"
   y="-48.842449"
   x="295.21307"
   id="rect215"
   height="10.287096"
   width="1.2102395"
   transform="matrix(0.86703331,0.49825018,-0.49825018,0.86703331,0,0)"
   class="fil4" /><rect
   style="fill:#4f251a"
   y="-55.177055"
   x="292.2706"
   id="rect217"
   height="10.287096"
   width="1.2102395"
   transform="matrix(0.86703331,0.49825018,-0.49825018,0.86703331,0,0)"
   class="fil4" /><rect
   style="fill:#4f251a"
   y="-58.207764"
   x="288.43561"
   id="rect219"
   height="10.287096"
   width="1.2102395"
   transform="matrix(0.86703331,0.49825018,-0.49825018,0.86703331,0,0)"
   class="fil4" /><rect
   style="fill:#4f251a"
   y="-60.489956"
   x="285.72742"
   id="rect221"
   height="10.287096"
   width="1.2102395"
   transform="matrix(0.86703331,0.49825018,-0.49825018,0.86703331,0,0)"
   class="fil4" /><rect
   style="fill:#4f251a"
   y="-61.421921"
   x="283.09851"
   id="rect223"
   height="10.287096"
   width="1.2102395"
   transform="matrix(0.86703331,0.49825018,-0.49825018,0.86703331,0,0)"
   class="fil4" /><rect
   style="fill:#4f251a"
   y="-7.736527"
   x="320.14999"
   id="rect225"
   height="16.165962"
   width="1.1148903"
   transform="matrix(0.86602548,0.49999987,-0.50000092,0.86602487,0,0)"
   class="fil4" /><rect
   style="fill:#4f251a"
   y="-8.8416872"
   x="317.22217"
   id="rect227"
   height="15.830025"
   width="1.091719"
   transform="matrix(0.86602546,0.49999991,-0.4999997,0.86602558,0,0)"
   class="fil4" /><rect
   style="fill:#4f251a"
   y="63.557484"
   x="363.61194"
   id="rect229"
   height="8.4121828"
   width="0.98966283"
   transform="matrix(0.86703372,0.49824946,-0.49824946,0.86703372,0,0)"
   class="fil4" /><rect
   style="fill:#4f251a"
   y="65.951836"
   x="366.73288"
   id="rect231"
   height="8.4121828"
   width="0.98966283"
   transform="matrix(0.86703372,0.49824946,-0.49824946,0.86703372,0,0)"
   class="fil4" /><rect
   style="fill:#4f251a"
   y="70.936409"
   x="369.59732"
   id="rect233"
   height="8.4121828"
   width="0.98966283"
   transform="matrix(0.86703372,0.49824946,-0.49824946,0.86703372,0,0)"
   class="fil4" /><rect
   style="fill:#4f251a"
   y="104.05743"
   x="383.77643"
   id="rect235"
   height="10.287096"
   width="1.2102395"
   transform="matrix(0.86703331,0.49825018,-0.49825018,0.86703331,0,0)"
   class="fil4" /><rect
   style="fill:#4f251a"
   y="155.14891"
   x="412.08948"
   id="rect237"
   height="10.287096"
   width="1.2102395"
   transform="matrix(0.86703331,0.49825018,-0.49825018,0.86703331,0,0)"
   class="fil4" /><rect
   style="fill:#4f251a"
   y="147.34967"
   x="436.07184"
   id="rect239"
   height="24.685682"
   width="1.6236327"
   transform="matrix(0.81883356,0.574031,-0.50483949,0.86321323,0,0)"
   class="fil4" /><rect
   style="fill:#4f251a"
   y="176.94418"
   x="430.51337"
   id="rect241"
   height="31.565746"
   width="1.3016729"
   transform="matrix(0.86602526,0.50000025,-0.50000023,0.86602527,0,0)"
   class="fil4" /><rect
   style="fill:#4f251a"
   y="88.014275"
   x="412.68301"
   id="rect243"
   height="31.565775"
   width="1.3016735"
   transform="matrix(0.81502125,0.57943106,-0.57942994,0.81502205,0,0)"
   class="fil4" /><rect
   style="fill:#4f251a"
   y="80.25766"
   x="374.69135"
   id="rect245"
   height="31.565746"
   width="1.3016729"
   transform="matrix(0.86602526,0.50000025,-0.50000023,0.86602527,0,0)"
   class="fil4" /><rect
   style="fill:#4f251a"
   y="93.402222"
   x="379.69025"
   id="rect247"
   height="17.548603"
   width="1.2102395"
   transform="matrix(0.8660253,0.50000017,-0.49999928,0.86602582,0,0)"
   class="fil4" /><rect
   style="fill:#4f251a"
   y="91.124229"
   x="376.97787"
   id="rect249"
   height="17.548603"
   width="1.2102395"
   transform="matrix(0.8660253,0.50000017,-0.49999928,0.86602582,0,0)"
   class="fil4" /><rect
   style="fill:#4f251a"
   y="78.557365"
   x="426.56738"
   id="rect251"
   height="17.548546"
   width="1.2102396"
   transform="matrix(0.77776822,0.62855118,-0.62854994,0.77776922,0,0)"
   class="fil4" /><rect
   style="fill:#4f251a"
   y="38.700562"
   x="342.51837"
   id="rect253"
   height="17.548603"
   width="1.2102395"
   transform="matrix(0.8660253,0.50000017,-0.49999928,0.86602582,0,0)"
   class="fil4" /><rect
   style="fill:#4f251a"
   y="3.0989137"
   x="325.06174"
   id="rect255"
   height="10.287096"
   width="1.2102395"
   transform="matrix(0.86703331,0.49825018,-0.49825018,0.86703331,0,0)"
   class="fil4" /><rect
   style="fill:#4f251a"
   y="-16.982882"
   x="308.32913"
   id="rect257"
   height="15.830025"
   width="1.091719"
   transform="matrix(0.86602546,0.49999991,-0.4999997,0.86602558,0,0)"
   class="fil4" /><rect
   style="fill:#4f251a"
   y="-56.697853"
   x="306.91135"
   id="rect259"
   height="15.829989"
   width="1.091719"
   transform="matrix(0.79551304,0.60593646,-0.60593725,0.79551245,0,0)"
   class="fil4" /><rect
   style="fill:#4f251a"
   y="-15.365669"
   x="304.80988"
   id="rect261"
   height="12.334551"
   width="1.4511153"
   transform="matrix(0.8670335,0.49824986,-0.49824986,0.8670335,0,0)"
   class="fil4" /><rect
   style="fill:#4f251a"
   y="-70.650017"
   x="298.22437"
   id="rect263"
   height="20.244074"
   width="1.3961354"
   transform="matrix(0.8030056,0.59597149,-0.59597273,0.80300467,0,0)"
   class="fil4" /><rect
   style="fill:#4f251a"
   y="22.807047"
   x="338.13226"
   id="rect265"
   height="10.287096"
   width="1.2102395"
   transform="matrix(0.86703331,0.49825018,-0.49825018,0.86703331,0,0)"
   class="fil4" /><rect
   style="fill:#4f251a"
   y="-80.689407"
   x="274.1196"
   id="rect267"
   height="10.287096"
   width="1.2102395"
   transform="matrix(0.86703331,0.49825018,-0.49825018,0.86703331,0,0)"
   class="fil4" /><rect
   style="fill:#4f251a"
   y="-84.361984"
   x="272.00909"
   id="rect269"
   height="10.287096"
   width="1.2102395"
   transform="matrix(0.86703331,0.49825018,-0.49825018,0.86703331,0,0)"
   class="fil4" /><rect
   style="fill:#4f251a"
   y="-67.163902"
   x="275.23401"
   id="rect271"
   height="10.287103"
   width="1.2102404"
   transform="matrix(0.90796275,0.41905088,-0.41905088,0.90796275,0,0)"
   class="fil4" /><rect
   style="fill:#4f251a"
   y="-70.677086"
   x="272.01562"
   id="rect273"
   height="6.8696413"
   width="0.80818838"
   transform="matrix(0.90796258,0.41905125,-0.41905125,0.90796258,0,0)"
   class="fil4" /><rect
   style="fill:#4f251a"
   y="-74.96669"
   x="269.0358"
   id="rect275"
   height="6.8696413"
   width="0.80818838"
   transform="matrix(0.90796258,0.41905125,-0.41905125,0.90796258,0,0)"
   class="fil4" /><rect
   style="fill:#4f251a"
   y="-76.551613"
   x="265.97162"
   id="rect277"
   height="6.8696413"
   width="0.80818838"
   transform="matrix(0.90796258,0.41905125,-0.41905125,0.90796258,0,0)"
   class="fil4" /><rect
   style="fill:#4f251a"
   y="-81.221725"
   x="263.81622"
   id="rect279"
   height="6.8696413"
   width="0.80818838"
   transform="matrix(0.90796258,0.41905125,-0.41905125,0.90796258,0,0)"
   class="fil4" /><rect
   style="fill:#4f251a"
   y="-83.356049"
   x="260.49847"
   id="rect281"
   height="6.8696413"
   width="0.80818838"
   transform="matrix(0.90796258,0.41905125,-0.41905125,0.90796258,0,0)"
   class="fil4" /><path
   style="fill:#4f251a"
   inkscape:connector-curvature="0"
   id="path283"
   d="m 278.75832,77.788231 0.63934,0.457405 c -2.75384,3.85715 -6.73475,8.10155 -11.0214,13.6557 l -0.63934,-0.457405 c 3.30849,-4.91768 6.90671,-9.54563 11.0214,-13.6557 z"
   class="fil4" /><rect
   style="fill:#4f251a"
   y="240.36884"
   x="457.48322"
   id="rect285"
   height="8.0853148"
   width="0.951208"
   transform="matrix(0.86703324,0.4982503,-0.4982503,0.86703324,0,0)"
   class="fil4" /><rect
   style="fill:#4f251a"
   y="145.4315"
   x="501.07065"
   id="rect287"
   height="8.0853233"
   width="0.95120901"
   transform="matrix(0.74520025,0.66684075,-0.66684075,0.74520025,0,0)"
   class="fil4" /><rect
   style="fill:#4f251a"
   y="150.45288"
   x="502.26437"
   id="rect289"
   height="8.5275106"
   width="1.0032307"
   transform="matrix(0.74520011,0.66684091,-0.66684091,0.74520011,0,0)"
   class="fil4" /><path
   style="fill:#4f251a"
   inkscape:connector-curvature="0"
   id="path291"
   d="m 264.03632,390.58193 c 5.34742,-5.69789 8.67445,-14.1696 7.56401,-28.7433 3.65696,13.5522 0.0761,22.4522 -7.56401,28.7433 z"
   class="fil4" /><path
   style="fill:#4f251a"
   inkscape:connector-curvature="0"
   id="path293"
   d="m 262.87332,388.73693 c 5.87184,-9.18604 6.22374,-14.8406 5.70217,-23.8723 3.06382,9.69363 -0.59657,19.5598 -5.70217,23.8723 z"
   class="fil4" /><path
   style="fill:#4f251a"
   inkscape:connector-curvature="0"
   id="path295"
   d="m 260.55532,386.82893 c 4.23613,-5.77831 5.95112,-9.93345 5.42955,-18.9652 2.51858,6.69483 -0.32395,14.6527 -5.42955,18.9652 z"
   class="fil4" /><path
   style="fill:#4f251a"
   inkscape:connector-curvature="0"
   id="path297"
   d="m 258.81232,381.98693 c 2.50603,-3.41828 3.52037,-5.87641 3.21182,-11.2193 1.48999,3.96038 -0.19163,8.66818 -3.21182,11.2193 z"
   class="fil4" /><path
   style="fill:#4f251a"
   inkscape:connector-curvature="0"
   id="path299"
   d="m 259.90332,384.43993 c 2.50603,-3.41828 3.52037,-5.87641 3.21182,-11.2193 1.48999,3.96038 -0.19163,8.66818 -3.21182,11.2193 z"
   class="fil4" /><path
   style="fill:#4f251a"
   inkscape:connector-curvature="0"
   id="path301"
   d="m 264.03632,329.01493 c 5.34742,-5.69789 8.67445,-14.1696 7.56401,-28.7433 3.65696,13.5522 0.0761,22.4522 -7.56401,28.7433 z"
   class="fil4" /><path
   style="fill:#4f251a"
   inkscape:connector-curvature="0"
   id="path303"
   d="m 262.87332,327.16993 c 5.87184,-9.18604 6.22374,-14.8406 5.70217,-23.8723 3.06382,9.69363 -0.59657,19.5598 -5.70217,23.8723 z"
   class="fil4" /><path
   style="fill:#4f251a"
   inkscape:connector-curvature="0"
   id="path305"
   d="m 260.55532,325.26093 c 4.23613,-5.77831 5.95112,-9.93345 5.42955,-18.9652 2.51858,6.69483 -0.32395,14.6527 -5.42955,18.9652 z"
   class="fil4" /><path
   style="fill:#4f251a"
   inkscape:connector-curvature="0"
   id="path307"
   d="m 258.81232,320.41893 c 2.50603,-3.41828 3.52037,-5.87641 3.21182,-11.2193 1.48999,3.96038 -0.19163,8.66818 -3.21182,11.2193 z"
   class="fil4" /><path
   style="fill:#4f251a"
   inkscape:connector-curvature="0"
   id="path309"
   d="m 259.90332,322.87293 c 2.50603,-3.41828 3.52037,-5.87641 3.21182,-11.2193 1.48999,3.96038 -0.19163,8.66818 -3.21182,11.2193 z"
   class="fil4" /><path
   style="fill:#4f251a"
   inkscape:connector-curvature="0"
   id="path311"
   d="m 263.19532,273.86093 c 6.63352,-5.59751 11.1109,-14.2141 10.8543,-29.4721 3.29509,14.3555 -1.50853,23.4027 -10.8543,29.4721 z"
   class="fil4" /><path
   style="fill:#4f251a"
   inkscape:connector-curvature="0"
   id="path313"
   d="m 261.97132,271.86393 c 7.49215,-9.19915 8.3043,-15.0696 8.33938,-24.5148 2.87875,10.297 -2.08627,20.3457 -8.33938,24.5148 z"
   class="fil4" /><path
   style="fill:#4f251a"
   inkscape:connector-curvature="0"
   id="path315"
   d="m 259.40832,269.72793 c 5.34457,-5.75207 7.63759,-9.97309 7.67266,-19.4183 2.45699,7.13712 -1.41955,15.2492 -7.67266,19.4183 z"
   class="fil4" /><path
   style="fill:#4f251a"
   inkscape:connector-curvature="0"
   id="path317"
   d="m 257.69032,264.51293 c 2.50775,-3.90962 3.39946,-6.60785 2.42847,-12.1104 2.17952,3.89707 0.77422,9.02691 -2.42847,12.1104 z"
   class="fil4" /><path
   style="fill:#4f251a"
   inkscape:connector-curvature="0"
   id="path319"
   d="m 258.81832,267.19693 c 3.54575,-3.8158 5.06682,-6.61584 5.08992,-12.8818 1.63001,4.7346 -0.94162,10.116 -5.08992,12.8818 z"
   class="fil4" /><path
   style="fill:#4f251a"
   inkscape:connector-curvature="0"
   id="path321"
   d="m 263.66832,211.98593 c 6.55681,-5.68677 10.9167,-14.3635 10.453,-29.617 3.48986,14.3099 -1.19057,23.4212 -10.453,29.617 z"
   class="fil4" /><path
   style="fill:#4f251a"
   inkscape:connector-curvature="0"
   id="path323"
   d="m 262.41732,210.00593 c 7.3664,-9.3001 8.0987,-15.1808 8.00574,-24.6258 3.01819,10.2568 -1.80995,20.3719 -8.00574,24.6258 z"
   class="fil4" /><path
   style="fill:#4f251a"
   inkscape:connector-curvature="0"
   id="path325"
   d="m 259.82532,207.90493 c 5.26615,-5.82422 7.50156,-10.0758 7.40831,-19.5207 2.55366,7.1029 -1.21252,15.2669 -7.40831,19.5207 z"
   class="fil4" /><path
   style="fill:#4f251a"
   inkscape:connector-curvature="0"
   id="path327"
   d="m 258.06932,202.77093 c 3.11543,-3.44537 4.43775,-5.96053 4.38271,-11.5478 1.51052,4.20191 -0.71719,9.03148 -4.38271,11.5478 z"
   class="fil4" /><path
   style="fill:#4f251a"
   inkscape:connector-curvature="0"
   id="path329"
   d="m 259.20132,205.38193 c 3.11515,-3.44537 4.43746,-5.96053 4.38242,-11.5478 1.51081,4.20191 -0.71719,9.03148 -4.38242,11.5478 z"
   class="fil4" /><path
   style="fill:#4f251a"
   inkscape:connector-curvature="0"
   id="path331"
   d="m 260.12432,142.96193 c 6.55681,-5.68677 10.9167,-14.3635 10.453,-29.617 3.48986,14.3099 -1.19057,23.4212 -10.453,29.617 z"
   class="fil4" /><path
   style="fill:#4f251a"
   inkscape:connector-curvature="0"
   id="path333"
   d="m 258.87332,140.98193 c 7.3664,-9.3001 8.0987,-15.1808 8.00574,-24.6258 3.01819,10.2568 -1.80995,20.3719 -8.00574,24.6258 z"
   class="fil4" /><path
   style="fill:#4f251a"
   inkscape:connector-curvature="0"
   id="path335"
   d="m 256.28132,138.87993 c 5.26615,-5.82422 7.50156,-10.0758 7.40831,-19.5207 2.55366,7.1029 -1.21252,15.2669 -7.40831,19.5207 z"
   class="fil4" /><path
   style="fill:#4f251a"
   inkscape:connector-curvature="0"
   id="path337"
   d="m 254.52532,133.74693 c 1.17089,-1.77059 1.87582,-3.38919 3.29224,-6.36803 0.14287,4.42976 -1.81052,5.35142 -3.29224,6.36803 z"
   class="fil4" /><path
   style="fill:#4f251a"
   inkscape:connector-curvature="0"
   id="path339"
   d="m 255.65632,136.35793 c 3.11515,-3.44537 4.43746,-5.96053 4.38242,-11.5478 1.51081,4.20191 -0.71719,9.03148 -4.38242,11.5478 z"
   class="fil4" /><path
   style="fill:#4f251a"
   inkscape:connector-curvature="0"
   id="path341"
   d="m 263.52332,82.171831 c 5.26159,-5.31577 8.44033,-13.0569 7.0433,-26.1329 3.93528,12.0673 0.51016,20.2025 -7.0433,26.1329 z"
   class="fil4" /><path
   style="fill:#4f251a"
   inkscape:connector-curvature="0"
   id="path343"
   d="m 262.31932,80.552031 c 5.72099,-8.47341 5.96538,-13.5744 5.26701,-21.684 3.26486,8.61571 -0.22157,17.6235 -5.26701,21.684 z"
   class="fil4" /><path
   style="fill:#4f251a"
   inkscape:connector-curvature="0"
   id="path345"
   d="m 259.95432,78.916331 c 4.14374,-5.34913 5.78629,-9.14896 5.08792,-17.2585 2.65917,5.93629 -0.0425,13.1977 -5.08792,17.2585 z"
   class="fil4" /><path
   style="fill:#4f251a"
   inkscape:connector-curvature="0"
   id="path347"
   d="m 258.10932,74.620031 c 0.89029,-1.59807 1.3899,-3.03502 2.41193,-5.68734 0.41263,3.79698 -1.20511,4.71664 -2.41193,5.68734 z"
   class="fil4" /><path
   style="fill:#4f251a"
   inkscape:connector-curvature="0"
   id="path349"
   d="m 259.25232,76.789631 c 2.45128,-3.1642 3.42284,-5.41216 3.00992,-10.2095 1.57297,3.51181 -0.0254,7.80755 -3.00992,10.2095 z"
   class="fil4" /><path
   style="fill:#4f251a"
   inkscape:connector-curvature="0"
   id="path351"
   d="m 253.90532,34.083731 -1.90833,-5.72498 c -0.45455,2.18095 0.31796,4.08927 1.90833,5.72498 z"
   class="fil4" /><path
   style="fill:#4f251a"
   inkscape:connector-curvature="0"
   id="path353"
   d="m 255.89132,33.674831 -1.90833,-7.63331 c -0.45455,2.90783 0.31796,5.45236 1.90833,7.63331 z"
   class="fil4" /><path
   style="fill:#4f251a"
   inkscape:connector-curvature="0"
   id="path355"
   d="m 257.85832,32.448031 -1.90833,-5.72498 c -0.45455,2.18095 0.31796,4.08927 1.90833,5.72498 z"
   class="fil4" /><path
   style="fill:#4f251a"
   inkscape:connector-curvature="0"
   id="path357"
   d="m 253.90532,88.212731 -1.90833,-5.72498 c -0.45455,2.18095 0.31796,4.08927 1.90833,5.72498 z"
   class="fil4" /><path
   style="fill:#4f251a"
   inkscape:connector-curvature="0"
   id="path359"
   d="m 255.89132,87.803831 -1.90833,-7.63331 c -0.45455,2.90783 0.31796,5.45236 1.90833,7.63331 z"
   class="fil4" /><path
   style="fill:#4f251a"
   inkscape:connector-curvature="0"
   id="path361"
   d="m 257.85832,86.577031 -1.90833,-5.72498 c -0.45455,2.18095 0.31796,4.08927 1.90833,5.72498 z"
   class="fil4" /><path
   style="fill:#4f251a"
   inkscape:connector-curvature="0"
   id="path363"
   d="m 251.45232,154.76493 -1.90833,-5.72498 c -0.45455,2.18095 0.31796,4.08927 1.90833,5.72498 z"
   class="fil4" /><path
   style="fill:#4f251a"
   inkscape:connector-curvature="0"
   id="path365"
   d="m 253.43832,154.35593 -1.90833,-7.63331 c -0.45455,2.90783 0.31796,5.45236 1.90833,7.63331 z"
   class="fil4" /><path
   style="fill:#4f251a"
   inkscape:connector-curvature="0"
   id="path367"
   d="m 255.40532,153.12893 -1.90833,-5.72498 c -0.45455,2.18095 0.31796,4.08927 1.90833,5.72498 z"
   class="fil4" /><path
   style="fill:#4f251a"
   inkscape:connector-curvature="0"
   id="path369"
   d="m 253.63332,218.02593 -1.90833,-5.72498 c -0.45455,2.18095 0.31796,4.08927 1.90833,5.72498 z"
   class="fil4" /><path
   style="fill:#4f251a"
   inkscape:connector-curvature="0"
   id="path371"
   d="m 255.61932,217.61793 -1.90833,-7.63331 c -0.45455,2.90783 0.31796,5.45236 1.90833,7.63331 z"
   class="fil4" /><path
   style="fill:#4f251a"
   inkscape:connector-curvature="0"
   id="path373"
   d="m 257.58632,216.39093 -1.90833,-5.72498 c -0.45455,2.18095 0.31796,4.08927 1.90833,5.72498 z"
   class="fil4" /><path
   style="fill:#4f251a"
   inkscape:connector-curvature="0"
   id="path375"
   d="m 253.63332,275.97193 -1.90833,-5.72498 c -0.45455,2.18095 0.31796,4.08927 1.90833,5.72498 z"
   class="fil4" /><path
   style="fill:#4f251a"
   inkscape:connector-curvature="0"
   id="path377"
   d="m 257.89832,275.38293 -4.01941,-6.76413 c 0.39952,2.9161 1.86983,5.13155 4.01941,6.76413 z"
   class="fil4" /><path
   style="fill:#4f251a"
   inkscape:connector-curvature="0"
   id="path379"
   d="m 251.17932,278.28893 -1.90833,-5.72498 c -0.45455,2.18095 0.31796,4.08927 1.90833,5.72498 z"
   class="fil4" /><path
   style="fill:#4f251a"
   inkscape:connector-curvature="0"
   id="path381"
   d="m 251.86132,338.43493 -1.90833,-5.72498 c -0.45455,2.18095 0.31796,4.08927 1.90833,5.72498 z"
   class="fil4" /><path
   style="fill:#4f251a"
   inkscape:connector-curvature="0"
   id="path383"
   d="m 254.60432,337.14493 -2.56963,-7.43683 c 1.96878,2.18779 2.71107,4.74116 2.56963,7.43683 z"
   class="fil4" /><path
   style="fill:#4f251a"
   inkscape:connector-curvature="0"
   id="path385"
   d="m 255.96132,336.22893 -1.35111,-5.88154 c 1.52364,1.62544 1.85728,3.65696 1.35111,5.88154 z"
   class="fil4" /><path
   style="fill:#4f251a"
   inkscape:connector-curvature="0"
   id="path387"
   d="m 249.27132,339.24593 -1.26984,-3.80981 c -0.30256,1.45121 0.21159,2.72133 1.26984,3.80981 z"
   class="fil4" /><path
   style="fill:#4f251a"
   inkscape:connector-curvature="0"
   id="path389"
   d="m 251.58832,396.78893 -1.90833,-5.72498 c -0.45455,2.18095 0.31796,4.08927 1.90833,5.72498 z"
   class="fil4" /><path
   style="fill:#4f251a"
   inkscape:connector-curvature="0"
   id="path391"
   d="m 254.60432,395.09093 -2.56963,-7.43683 c 1.96878,2.18779 2.71107,4.74116 2.56963,7.43683 z"
   class="fil4" /><path
   style="fill:#4f251a"
   inkscape:connector-curvature="0"
   id="path393"
   d="m 255.96132,394.17493 -1.35111,-5.88154 c 1.52364,1.62544 1.85728,3.65696 1.35111,5.88154 z"
   class="fil4" /><path
   style="fill:#4f251a"
   inkscape:connector-curvature="0"
   id="path395"
   d="m 252.67832,395.82793 -1.26984,-3.80981 c -0.30256,1.45121 0.21159,2.72133 1.26984,3.80981 z"
   class="fil4" /><path
   style="fill:#4f251a"
   inkscape:connector-curvature="0"
   id="path397"
   d="m 261.85532,457.23293 c 5.34742,-5.69789 8.67445,-14.1696 7.56401,-28.7433 3.65696,13.5522 0.0761,22.4522 -7.56401,28.7433 z"
   class="fil4" /><path
   style="fill:#4f251a"
   inkscape:connector-curvature="0"
   id="path399"
   d="m 260.28332,455.65993 c 5.87184,-9.18604 6.63266,-15.1132 6.1111,-24.145 3.06382,9.69363 -1.00549,19.8324 -6.1111,24.145 z"
   class="fil4" /><path
   style="fill:#4f251a"
   inkscape:connector-curvature="0"
   id="path401"
   d="m 256.60232,462.06693 c 3.05327,-5.92602 5.99475,-18.7374 7.20157,-27.5527 0.9285,6.69455 -3.41343,23.2398 -7.20157,27.5527 z"
   class="fil4" /><path
   style="fill:#4f251a"
   inkscape:connector-curvature="0"
   id="path403"
   d="m 254.04232,462.50293 c 2.50603,-7.43512 4.74715,-13.7364 4.98384,-25.0854 2.03266,8.61456 -1.7512,19.5358 -4.98384,25.0854 z"
   class="fil4" /><path
   style="fill:#4f251a"
   inkscape:connector-curvature="0"
   id="path405"
   d="m 252.67832,461.00393 c 2.50603,-4.77738 3.52037,-8.21277 3.21182,-15.6801 1.48999,5.53506 -0.19163,12.1144 -3.21182,15.6801 z"
   class="fil4" /><path
   style="fill:#4f251a"
   inkscape:connector-curvature="0"
   id="path407"
   d="m 259.46532,459.47693 c 5.24106,-9.43841 7.88169,-12.1874 8.56466,-20.7372 1.02403,8.92882 -4.38613,16.0768 -8.56466,20.7372 z"
   class="fil4" /><path
   style="fill:#4f251a"
   inkscape:connector-curvature="0"
   id="path409"
   d="m 251.99732,456.36893 1.90833,-9.95056 c -1.72611,3.13482 -2.36231,6.4513 -1.90833,9.95056 z"
   class="fil4" /><path
   style="fill:#4f251a"
   inkscape:connector-curvature="0"
   id="path411"
   d="m 249.84732,458.75493 0.75569,-10.1037 c -1.35539,3.31191 -1.60748,6.67943 -0.75569,10.1037 z"
   class="fil4" /><path
   style="fill:#4f251a"
   inkscape:connector-curvature="0"
   id="path413"
   d="m 271.55332,440.54793 3.39832,-9.54506 c -2.18237,2.83626 -3.31533,6.01728 -3.39832,9.54506 z"
   class="fil4" /><path
   style="fill:#eeeed4"
   inkscape:connector-curvature="0"
   id="path415"
   d="m 221.32732,425.83593 c 0.93135,10.3934 3.92987,20.0483 9.95056,28.6249 -4.58945,-9.67823 -7.54291,-19.5381 -8.86009,-29.5791 l -1.09047,0.95416 z"
   class="fil3" /><path
   style="fill:#eeeed4"
   inkscape:connector-curvature="0"
   id="path417"
   d="m 230.46032,445.87393 c 1.74921,7.39463 4.74772,11.0519 10.7684,19.6285 -4.58945,-8.17883 -6.99768,-11.2233 -9.67795,-20.5827 l -1.09047,0.95416 z"
   class="fil3" /><path
   style="fill:#4f251a"
   inkscape:connector-curvature="0"
   id="path419"
   d="m 250.81232,465.19093 0.18507,-8.13092 c -1.15749,2.80061 -1.21937,5.51054 -0.18507,8.13092 z"
   class="fil4" /><rect
   style="fill:#4f251a"
   id="rect421"
   height="0.817855"
   width="7.4970002"
   y="469.31894"
   x="251.86133"
   class="fil4" /><rect
   style="fill:#4f251a"
   id="rect423"
   height="0.817855"
   width="7.4970002"
   y="472.12296"
   x="252.40633"
   class="fil4" /><rect
   style="fill:#4f251a"
   id="rect425"
   height="0.817855"
   width="7.4970002"
   y="475.52994"
   x="252.67833"
   class="fil4" /><rect
   style="fill:#4f251a"
   id="rect427"
   height="0.817855"
   width="5.9976001"
   y="483.29993"
   x="253.22433"
   class="fil4" /><rect
   style="fill:#4f251a"
   id="rect429"
   height="0.817855"
   width="5.9976001"
   y="479.34695"
   x="253.08733"
   class="fil4" /><rect
   style="fill:#4f251a"
   id="rect431"
   height="0.817855"
   width="5.4523602"
   y="486.70795"
   x="253.36034"
   class="fil4" /><rect
   style="fill:#4f251a"
   id="rect433"
   height="0.817855"
   width="5.4523602"
   y="491.34195"
   x="254.04233"
   class="fil4" /><rect
   style="fill:#4f251a"
   id="rect435"
   height="1.30435"
   width="3.1351099"
   y="494.80893"
   x="254.72334"
   class="fil4" /><rect
   style="fill:#4f251a"
   id="rect437"
   height="1.30435"
   width="3.1351099"
   y="498.62494"
   x="254.58733"
   class="fil4" /><rect
   style="fill:#4f251a"
   id="rect439"
   height="1.30435"
   width="3.1351099"
   y="501.35095"
   x="253.49632"
   class="fil4" /><rect
   style="fill:#4f251a"
   id="rect441"
   height="1.30435"
   width="3.1351099"
   y="503.53195"
   x="254.72334"
   class="fil4" /><rect
   style="fill:#4f251a"
   id="rect443"
   height="1.30435"
   width="3.1351099"
   y="505.71295"
   x="254.45134"
   class="fil4" /><rect
   style="fill:#4f251a"
   id="rect445"
   height="1.30435"
   width="3.1351099"
   y="510.75693"
   x="254.31433"
   class="fil4" /><path
   style="fill:#4f251a"
   inkscape:connector-curvature="0"
   id="path447"
   d="m 257.44932,533.51993 c 2.81145,-11.1719 7.32105,-21.9518 14.8577,-32.0326 -8.40554,9.40504 -13.3577,20.0822 -14.8577,32.0326 z"
   class="fil4" /><path
   style="fill:#4f251a"
   inkscape:connector-curvature="0"
   id="path449"
   d="m 289.89132,489.49293 c -6.27079,3.68035 -11.4046,7.36041 -16.2208,11.041 3.81694,-3.99859 8.08815,-7.7699 13.3583,-11.041 l 2.86249,0 z"
   class="fil4" /><polygon
   style="fill:#4f251a"
   id="polygon451"
   points="257.77,540.852 247.411,520.542 249.046,520.269 257.907,538.807 "
   class="fil4"
   transform="translate(-1.6836772,0.3019311)" /><path
   style="fill:#4f251a"
   inkscape:connector-curvature="0"
   id="path453"
   d="m 241.09232,512.39293 c -10.8371,-15.2877 -20.8331,-26.789 -28.6249,-30.8059 8.33082,2.2876 19.0665,14.4319 28.6249,30.8059 z"
   class="fil4" /><path
   style="fill:#4f251a"
   inkscape:connector-curvature="0"
   id="path455"
   d="m 241.09232,512.39293 c -10.8371,-13.1906 -20.1515,-22.7054 -27.9434,-25.2172 7.06241,0.57233 18.9721,11.596 27.9434,25.2172 z"
   class="fil4" /><path
   style="fill:#4f251a"
   inkscape:connector-curvature="0"
   id="path457"
   d="m 241.09232,512.39293 c -10.4479,-12.8119 -19.9536,-21.538 -27.5966,-21.9458 8.30003,2.73531 18.4342,12.0163 27.5966,21.9458 z"
   class="fil4" /><rect
   style="fill:#4f251a"
   id="rect459"
   height="0.817855"
   width="2.9988"
   y="541.23096"
   x="252.95132"
   class="fil4" /><rect
   style="fill:#4f251a"
   id="rect461"
   height="0.817855"
   width="2.9988"
   y="543.00293"
   x="252.95132"
   class="fil4" /><rect
   style="fill:#4f251a"
   id="rect463"
   height="0.817855"
   width="2.9988"
   y="546.54694"
   x="252.95132"
   class="fil4" /><rect
   style="fill:#4f251a"
   id="rect465"
   height="0.817855"
   width="2.9988"
   y="548.47394"
   x="252.95132"
   class="fil4" /><rect
   style="fill:#4f251a"
   id="rect467"
   height="0.817855"
   width="2.9988"
   y="551.00592"
   x="252.13333"
   class="fil4" /><polygon
   style="fill:#eeeed4"
   id="polygon469"
   points="250.41,538.398 248.774,537.717 248.91,549.167 250.41,552.711 251.773,552.438 251.091,540.715 "
   class="fil3"
   transform="translate(-1.6836772,0.3019311)" /><path
   style="fill:#eeeed4"
   inkscape:connector-curvature="0"
   id="path471"
   d="m 249.13432,520.84393 2.45356,-0.27262 c -1.09047,-11.7226 0.68155,-22.7636 -0.81785,-33.941 -0.79505,-1.59008 -0.77109,-2.78635 -2.11251,-3.95268 -1.56755,-1.36309 -2.31754,-4.90741 -3.33986,-6.95205 l -1.63571,0.54524 c 0.9456,2.68341 3.26087,4.80846 3.51866,7.64187 0.18992,2.08713 0.78933,4.58347 1.52478,6.67059 l 0.40892,30.2606 z"
   class="fil3" /><path
   style="fill:#4f251a"
   inkscape:connector-curvature="0"
   id="path473"
   d="m 235.32032,31.140331 1.90833,8.79536 c 0.45455,-3.35069 -0.31796,-6.28248 -1.90833,-8.79536 z"
   class="fil4" /><path
   style="fill:#4f251a"
   inkscape:connector-curvature="0"
   id="path475"
   d="m 233.33432,30.837731 1.90833,11.4152 c 0.45455,-4.34877 -0.31796,-8.15374 -1.90833,-11.4152 z"
   class="fil4" /><path
   style="fill:#4f251a"
   inkscape:connector-curvature="0"
   id="path477"
   d="m 231.36732,35.846431 1.90833,5.72498 c 0.45455,-2.18095 -0.31796,-4.08927 -1.90833,-5.72498 z"
   class="fil4" /><path
   style="fill:#eeeed4"
   inkscape:connector-curvature="0"
   id="path479"
   d="m 251.52932,53.952431 -1.8684,0.778502 c -0.7785,1.9722 -1.4532,4.15201 -1.4013,6.53942 l 2.33551,1.0899 c -0.64333,-3.42598 -0.42205,-5.1384 0.9342,-8.40782 z"
   class="fil3" /><path
   style="fill:#eeeed4"
   inkscape:connector-curvature="0"
   id="path481"
   d="m 244.67832,126.19693 c -0.63563,-7.1625 -0.0385,-14.3247 1.4013,-21.4866 -3.37351,8.40782 -3.84061,15.57 -1.4013,21.4866 z"
   class="fil3" /><path
   style="fill:#eeeed4"
   inkscape:connector-curvature="0"
   id="path483"
   d="m 251.06232,112.65193 -1.8684,0.7785 c -0.7785,1.9722 -1.4532,4.15201 -1.4013,6.53942 l 1.4013,0.9342 c -0.64333,-3.42598 0.51216,-4.9827 1.8684,-8.25212 z"
   class="fil3" /><path
   style="fill:#eeeed4"
   inkscape:connector-curvature="0"
   id="path485"
   d="m 245.61232,198.28693 c -2.07715,-4.84981 -0.44201,-14.6592 1.4013,-23.1994 -4.95846,9.94258 -6.8665,18.4613 -1.4013,23.1994 z"
   class="fil3" /><path
   style="fill:#eeeed4"
   inkscape:connector-curvature="0"
   id="path487"
   d="m 251.06232,184.27393 -1.8684,0.7785 c -0.7785,1.9722 -1.4532,4.15201 -1.4013,6.53942 l 1.4013,0.9342 c -0.64333,-3.42598 0.51216,-4.9827 1.8684,-8.25212 z"
   class="fil3" /><path
   style="fill:#eeeed4"
   inkscape:connector-curvature="0"
   id="path489"
   d="m 244.36632,257.60893 c -1.76574,-6.25111 -0.59771,-7.34159 1.2456,-15.8817 -3.09005,5.89437 -4.9981,10.5209 -1.2456,15.8817 z"
   class="fil3" /><path
   style="fill:#eeeed4"
   inkscape:connector-curvature="0"
   id="path491"
   d="m 245.30132,321.13393 c -1.76574,-8.2122 -0.13061,-11.8244 1.7127,-23.0434 -4.41322,7.74253 -6.63266,16.0006 -1.7127,23.0434 z"
   class="fil3" /><path
   style="fill:#eeeed4"
   inkscape:connector-curvature="0"
   id="path493"
   d="m 247.01332,378.89893 c -1.76574,-8.2122 -0.13061,-11.8244 1.7127,-23.0434 -4.41322,7.74253 -6.63266,16.0006 -1.7127,23.0434 z"
   class="fil3" /><path
   style="fill:#eeeed4"
   inkscape:connector-curvature="0"
   id="path495"
   d="m 248.41532,429.18993 c 0.56976,-6.03239 0.33649,-9.79971 2.0241,-14.4796 -2.7336,6.83285 -4.37758,9.62348 -2.0241,14.4796 z"
   class="fil3" /><path
   style="fill:#eeeed4"
   inkscape:connector-curvature="0"
   id="path497"
   d="m 333.73832,479.48193 c -11.9564,-6.73789 -24.218,-4.32339 -36.5896,1.4013 l -1.4013,-0.7785 c 11.9367,-7.11203 27.1951,-9.75893 37.9909,-0.6228 z"
   class="fil3" /><path
   style="fill:#eeeed4"
   inkscape:connector-curvature="0"
   id="path499"
   d="m 329.69032,485.08693 c -11.9564,-6.73789 -24.218,-4.32339 -36.5896,1.4013 l -1.4013,-0.7785 c 11.9367,-7.11203 27.1951,-9.75893 37.9909,-0.6228 z"
   class="fil3" /><path
   style="fill:#eeeed4"
   inkscape:connector-curvature="0"
   id="path501"
   d="m 327.97832,479.01393 c -5.24305,-2.98768 -15.091,-1.01433 -23.0525,1.4013 l -0.76966,-0.7785 c 7.30794,-3.91333 18.8015,-5.89836 23.8222,-0.6228 z"
   class="fil3" /><path
   style="fill:#eeeed4"
   inkscape:connector-curvature="0"
   id="path503"
   d="m 323.77432,486.95493 c -6.23685,-2.98768 -17.9512,-1.01433 -27.4221,1.4013 l -0.91538,-0.7785 c 8.69299,-3.91333 22.3652,-5.89836 28.3375,-0.6228 z"
   class="fil3" /><polygon
   style="fill:#eeeed4"
   id="polygon505"
   points="297.432,480.581 293.695,480.892 285.598,487.432 "
   class="fil3"
   transform="translate(-1.6836772,0.3019311)" /><polygon
   style="fill:#eeeed4"
   id="polygon507"
   points="281.706,490.701 283.419,489.923 278.28,495.217 275.478,496.462 "
   class="fil3"
   transform="translate(-1.6836772,0.3019311)" /><path
   style="fill:#4f251a"
   inkscape:connector-curvature="0"
   id="path509"
   d="m 364.56732,509.06493 c -20.6043,-4.04821 -22.5247,-12.6117 -37.0567,-19.6182 l 0.1557,1.557 c 13.5459,6.02041 20.3967,18.2688 36.901,18.0612 z"
   class="fil4" /><path
   style="fill:#4f251a"
   inkscape:connector-curvature="0"
   id="path511"
   d="m 360.20832,505.48393 c -16.1024,-4.04821 -17.6033,-12.6117 -28.9603,-19.6182 l 0.12177,1.557 c 10.5862,6.02041 15.9402,18.2688 28.8385,18.0612 z"
   class="fil4" /><path
   style="fill:#4f251a"
   inkscape:connector-curvature="0"
   id="path513"
   d="m 361.14232,502.36993 c -15.7562,-4.04821 -17.2249,-12.6117 -28.3375,-19.6182 l 0.1192,1.557 c 10.3586,6.02041 15.5974,18.2688 28.2183,18.0612 z"
   class="fil4" /><path
   style="fill:#4f251a"
   inkscape:connector-curvature="0"
   id="path515"
   d="m 361.92032,502.52493 c -13.7279,-3.28767 -12.4991,-13.8371 -24.9121,-21.3309 l 0.1192,1.557 c 11.0981,6.20492 13.0931,20.2117 24.7929,19.7739 z"
   class="fil4" /><path
   style="fill:#eeeed4"
   inkscape:connector-curvature="0"
   id="path517"
   d="m 156.86332,498.63293 4.82671,-0.7785 c 10.1191,-10.7245 31.2459,-27.4726 42.8176,-19.1511 l 2.49121,-0.7785 c -15.8492,-8.62141 -30.1868,2.44615 -50.1355,20.7081 z"
   class="fil3" /><path
   style="fill:#eeeed4"
   inkscape:connector-curvature="0"
   id="path519"
   d="m 168.07332,501.12393 4.82671,-0.7785 c 9.21056,-8.68044 23.3308,-21.108 35.6554,-14.4801 l 2.49121,-0.7785 c -16.0086,-6.86764 -23.2821,0.60312 -42.9733,16.0371 z"
   class="fil3" /><path
   style="fill:#eeeed4"
   inkscape:connector-curvature="0"
   id="path521"
   d="m 160.60032,500.81293 4.82671,-0.7785 c 9.69648,-10.1964 25.66,-25.1219 38.6137,-18.5283 l 2.49121,-0.7785 c -15.8495,-6.82059 -25.9831,2.58388 -45.9316,20.0853 z"
   class="fil3" /><polygon
   style="fill:#eeeed4"
   id="polygon523"
   points="191.593,476.859 195.255,476.718 183.165,482.481 182.183,480.884 "
   class="fil3"
   transform="translate(-1.6836772,0.3019311)" /><polygon
   style="fill:#eeeed4"
   id="polygon525"
   points="197.354,486.824 199.771,487.616 188.148,492.135 187.166,490.538 "
   class="fil3"
   transform="translate(-1.6836772,0.3019311)" /><path
   style="fill:#4f251a"
   inkscape:connector-curvature="0"
   id="path527"
   d="m 137.71232,508.44193 -7.00652,-6.38371 c 0.58345,3.49014 2.6854,5.79941 7.00652,6.38371 z"
   class="fil4" /><path
   style="fill:#4f251a"
   inkscape:connector-curvature="0"
   id="path529"
   d="m 138.77532,506.38293 -8.19851,-4.75656 c 1.30862,3.28767 3.85173,5.0999 8.19851,4.75656 z"
   class="fil4" />
</svg>