<?xml version="1.0" encoding="UTF-8" standalone="no"?>
<!-- Created with Inkscape (http://www.inkscape.org/) -->
<svg
   xmlns:dc="http://purl.org/dc/elements/1.1/"
   xmlns:cc="http://web.resource.org/cc/"
   xmlns:rdf="http://www.w3.org/1999/02/22-rdf-syntax-ns#"
   xmlns:svg="http://www.w3.org/2000/svg"
   xmlns="http://www.w3.org/2000/svg"
   xmlns:sodipodi="http://sodipodi.sourceforge.net/DTD/sodipodi-0.dtd"
   xmlns:inkscape="http://www.inkscape.org/namespaces/inkscape"
   width="498.49759"
   height="576.31097"
   id="svg1901"
   sodipodi:version="0.32"
   inkscape:version="0.45.1"
   sodipodi:docname="Loppi.vaakuna.2.svg"
   sodipodi:docbase="D:\Eigene Datein\AR\wp\Kuwat\SVG muokkaus\Valmiit"
   inkscape:output_extension="org.inkscape.output.svg.inkscape"
   version="1.0">
  <defs
     id="defs1903" />
  <sodipodi:namedview
     id="base"
     pagecolor="#ffffff"
     bordercolor="#666666"
     borderopacity="1.0"
     inkscape:pageopacity="0.0"
     inkscape:pageshadow="2"
     inkscape:zoom="0.9899495"
     inkscape:cx="332.78199"
     inkscape:cy="231.50165"
     inkscape:document-units="px"
     inkscape:current-layer="layer1"
     gridtolerance="10000"
     inkscape:window-width="1680"
     inkscape:window-height="950"
     inkscape:window-x="-4"
     inkscape:window-y="-4"
     showgrid="false"
     width="768.49px"
     height="889.47101px" />
  <metadata
     id="metadata1906">
    <rdf:RDF>
      <cc:Work
         rdf:about="">
        <dc:format>image/svg+xml</dc:format>
        <dc:type
           rdf:resource="http://purl.org/dc/dcmitype/StillImage" />
      </cc:Work>
    </rdf:RDF>
  </metadata>
  <g
     inkscape:label="Taso 1"
     inkscape:groupmode="layer"
     id="layer1"
     style="opacity:1"
     transform="translate(-258.27798,-112.8204)">
    <path
       style="fill:#df0000;fill-opacity:1;stroke:none;stroke-width:0.99999994;stroke-opacity:1"
       d="M 756.70911,112.8204 L 756.70911,381.95073 L 756.70911,381.95073 C 755.95124,476.0513 752.62745,493.08573 740.75857,524.10099 C 713.15598,596.23104 648.84494,655.08807 569.14194,681.14051 C 552.73172,686.5045 532.08597,689.11202 510.33405,689.13139 L 504.65304,689.13139 C 482.90113,689.11202 462.25536,686.5045 445.84516,681.14051 C 366.14215,655.08807 301.83112,596.23104 274.22853,524.10099 C 262.35965,493.08573 259.03586,476.0513 258.27798,381.95073 L 258.27798,381.95073 L 258.27798,112.8204 L 756.70911,112.8204 z "
       id="path8055"
       sodipodi:nodetypes="cccssccsscccc" />
    <path
       style="fill:#cfcfcf;fill-opacity:1;stroke:none;stroke-width:0.99999994;stroke-opacity:1"
       d="M 378.70304,381.29523 C 350.85667,381.29523 342.21656,422.12363 314.37021,422.12363 C 291.02868,422.12363 278.25637,392.44197 258.3092,382.85595 C 258.32114,384.30243 258.35189,385.72215 258.40284,387.13232 L 258.34041,387.13232 C 259.18307,476.52777 262.58896,493.68496 274.22853,524.10099 C 301.83112,596.23104 366.14215,655.08807 445.84516,681.14051 C 462.25536,686.5045 482.90113,689.11202 504.65304,689.13139 L 510.33405,689.13139 C 532.08597,689.11202 552.73172,686.5045 569.14194,681.14051 C 648.84494,655.08807 713.15598,596.23104 740.75857,524.10099 C 752.27713,494.00117 755.72822,476.77435 756.61547,389.78554 C 756.73883,387.86364 756.79123,385.9463 756.77154,384.01088 C 754.88099,384.86655 753.09871,385.93757 751.37146,387.13232 L 750.71595,387.13232 C 750.67809,387.31954 750.63163,387.50734 750.5911,387.69417 C 735.25826,398.82053 725.20394,421.15569 702.70825,421.03113 C 685.19502,420.9347 671.30973,381.51371 643.46336,381.51373 C 615.61699,381.51374 605.13522,422.37334 577.28888,422.37335 C 549.44252,422.37334 540.20936,381.29523 512.36299,381.29523 C 484.51663,381.29523 475.22102,422.12363 447.37466,422.12363 C 419.52831,422.12363 406.5494,381.29523 378.70304,381.29523 z "
       id="path8087" />
    <path
       style="fill:#cfcfcf;fill-opacity:1;stroke:none;stroke-width:0.99999994;stroke-opacity:1"
       d="M 704.46905,131.34809 L 593.84806,167.7337 L 620.73229,188.10716 L 595.53027,217.23435 C 568.8713,204.41552 538.99436,197.20356 507.43222,197.20355 C 395.37722,197.20356 304.4453,287.92694 304.44532,399.72317 C 304.44532,511.51939 395.37724,602.27393 507.43222,602.27393 C 619.4872,602.27392 710.41904,511.51936 710.4191,399.72317 L 710.4191,396.42105 C 709.54897,343.11451 688.1211,294.94889 653.75349,259.32079 L 679.08012,229.81978 L 703.97062,248.57333 L 704.46905,131.34809 z M 510.92125,265.4889 C 583.84892,265.48891 643.22037,323.79599 644.40787,396.60797 L 644.40787,398.81976 C 644.40792,472.40419 584.61288,532.11947 510.92125,532.11947 C 437.22957,532.11949 377.43462,472.40421 377.43462,398.81976 C 377.43462,325.23529 437.22961,265.4889 510.92125,265.4889 z "
       id="path2383" />
    <g
       id="g3166"
       transform="matrix(1.8564243,0,0,1.8564243,-434.41748,-343.41121)"
       style="fill:#df0000;fill-opacity:1;stroke:none;stroke-width:0.53867;stroke-miterlimit:4;stroke-dasharray:none;stroke-opacity:1">
      <path
         style="opacity:1;fill:#df0000;fill-opacity:1;stroke:none;stroke-width:0.53867;stroke-miterlimit:4;stroke-dasharray:none;stroke-opacity:1"
         d="M 437.96875,390.375 C 422.99404,390.40614 418.33311,412.375 403.34375,412.375 C 401.64362,412.375 400.07838,412.0487 398.5625,411.53125 C 404.19385,466.49143 450.77704,509.40625 507.34375,509.40625 C 563.95289,509.40625 610.55088,466.4257 616.125,411.40625 C 614.98861,411.64742 613.80903,411.78832 612.53125,411.78125 C 603.09741,411.7293 595.625,390.49999 580.625,390.5 C 580.59311,390.5 580.56306,390.4998 580.53125,390.5 C 580.87647,393.16698 581.08012,395.87288 581.125,398.625 L 581.125,399.8125 C 581.12503,439.45022 548.91422,471.625 509.21875,471.625 C 469.52326,471.62501 437.3125,439.45023 437.3125,399.8125 C 437.3125,396.61312 437.56205,393.46415 437.96875,390.375 z "
         id="path3168" />
    </g>
  </g>
</svg>
