<?xml version="1.0" encoding="UTF-8" standalone="no"?>
<!-- Created with Inkscape (http://www.inkscape.org/) -->
<svg
   xmlns:dc="http://purl.org/dc/elements/1.1/"
   xmlns:cc="http://creativecommons.org/ns#"
   xmlns:rdf="http://www.w3.org/1999/02/22-rdf-syntax-ns#"
   xmlns:svg="http://www.w3.org/2000/svg"
   xmlns="http://www.w3.org/2000/svg"
   xmlns:xlink="http://www.w3.org/1999/xlink"
   xmlns:sodipodi="http://sodipodi.sourceforge.net/DTD/sodipodi-0.dtd"
   xmlns:inkscape="http://www.inkscape.org/namespaces/inkscape"
   version="1.0"
   width="500.00262"
   height="778.79004"
   id="svg1901"
   sodipodi:version="0.32"
   inkscape:version="0.46"
   sodipodi:docname="Loviisa.vaakuna.svg"
   inkscape:output_extension="org.inkscape.output.svg.inkscape"
   sodipodi:docbase="D:\Eigene Datein\AR\wp\Kuwat\SVG muokkaus\Valmiit"
   inkscape:export-filename="D:\Eigene Datein\AR\wp\Kuwat\SVG muokkaus\Valmiit\Loviisa.vaakuna2.png"
   inkscape:export-xdpi="89"
   inkscape:export-ydpi="89">
  <metadata
     id="metadata43">
    <rdf:RDF>
      <cc:Work
         rdf:about="">
        <dc:format>image/svg+xml</dc:format>
        <dc:type
           rdf:resource="http://purl.org/dc/dcmitype/StillImage" />
      </cc:Work>
    </rdf:RDF>
  </metadata>
  <sodipodi:namedview
     inkscape:window-height="828"
     inkscape:window-width="1136"
     inkscape:pageshadow="2"
     inkscape:pageopacity="0.0"
     guidetolerance="10.0"
     gridtolerance="10.0"
     objecttolerance="10.0"
     borderopacity="1.0"
     bordercolor="#666666"
     pagecolor="#ffffff"
     id="base"
     inkscape:zoom="0.9578962"
     inkscape:cx="261.63171"
     inkscape:cy="417.30119"
     inkscape:window-x="0"
     inkscape:window-y="0"
     inkscape:current-layer="layer1"
     showgrid="false" />
  <defs
     id="defs1903">
    <inkscape:perspective
       sodipodi:type="inkscape:persp3d"
       inkscape:vp_x="0 : 389.39502 : 1"
       inkscape:vp_y="0 : 1000 : 0"
       inkscape:vp_z="500.00262 : 389.39502 : 1"
       inkscape:persp3d-origin="250.00131 : 259.59668 : 1"
       id="perspective43" />
    <style
       type="text/css"
       id="style6" />
  </defs>
  <g
     transform="translate(-118.405, -72.5023)"
     style="opacity: 1;"
     id="layer1"
     inkscape:export-xdpi="89"
     inkscape:export-ydpi="89">
    <g
       transform="matrix(0.99295, 0, 0, 0.99295, 2.59728, 3.2564)"
       id="g18852">
      <path
         d="M 368.90041,71.987552 C 368.96457,72.019632 344.48163,87.440676 331.22562,90.038379 C 337.10861,101.04647 345.31843,122.31846 348.30666,136.30005 C 335.22442,133.77328 314.77404,124.60837 304.69501,119.01919 C 301.28217,129.03384 283.64811,156.30493 283.62603,156.26906 C 283.62604,156.26906 306.88449,184.10467 309.02541,194.7312 C 323.32522,187.36815 343.83032,181.92431 356.78254,178.09323 C 356.78254,178.09323 346.29667,199.7408 317.36916,212.46373 C 334.895,212.45792 401.43166,212.52823 416.65041,212.46373 C 390.53355,199.53926 382.70578,177.54953 382.70578,177.54953 C 395.95483,181.60279 416.75803,186.45049 430.74416,194.2063 C 434.91163,180.79224 452.99416,157.61255 452.99416,157.61255 C 452.99417,157.61255 434.45977,132.00775 430.74416,120.98755 C 419.76037,126.64316 403.30796,133.97809 389.18166,136.73755 C 391.4954,122.6635 400.7373,99.933062 406.8064,88.988586 C 393.02806,86.093628 368.89992,71.987899 368.90041,71.987552 z "
         style="fill:rgb(195, 161, 74);fill-opacity:1;stroke:rgb(0, 0, 0);stroke-width:0.50355003;stroke-miterlimit:4;stroke-opacity:1;stroke-dasharray:none"
         id="path18850" />
      <path
         d="M 141.43166,76.831302 C 134.77311,81.446129 127.2206,86.869216 120.68166,93.550052 C 126.59417,96.559166 133.24357,99.446747 136.33791,105.61255 L 139.24416,160.2063 L 140.59452,161.86229 L 146.46291,212.46373 C 146.46291,212.46373 180.24589,212.44753 190.43166,212.46373 C 171.94548,203.1082 159.36916,177.23755 159.36916,177.23755 C 170.08511,182.03564 194.36705,192.46516 211.21291,196.30005 C 216.87407,180.06827 231.83791,157.7063 231.83791,157.7063 C 231.83791,157.7063 217.54498,138.25849 211.21291,120.7688 C 200.09589,122.94972 185.65201,128.79346 174.02541,134.05005 L 183.71239,87.344784 C 175.95045,87.344784 160.6168,86.503426 141.43166,76.831302 z "
         style="fill:rgb(195, 161, 74);fill-opacity:1;stroke:rgb(0, 0, 0);stroke-width:0.50355003;stroke-miterlimit:4;stroke-opacity:1;stroke-dasharray:none"
         id="path18848" />
      <path
         d="M 596.51743,76.075557 C 603.17598,80.690384 610.72849,86.113471 617.26743,92.794307 C 611.35492,95.803421 604.70552,98.691002 601.61118,104.85681 L 598.70493,159.45056 L 597.35457,161.10655 L 591.46298,212.46373 C 591.46298,212.46373 559.94755,212.49102 547.44784,212.46373 C 564.63981,203.52824 578.57993,176.48181 578.57993,176.48181 C 567.86398,181.2799 543.58204,191.70942 526.73618,195.54431 C 521.07502,179.05008 506.11118,156.95056 506.11118,156.95056 C 506.11118,156.95056 520.66656,135.92806 526.73618,120.01306 C 537.8532,122.19398 552.29708,128.03772 563.92368,133.29431 L 556.86118,91.575557 C 556.86118,91.153875 577.33229,85.747681 596.51743,76.075557 z "
         style="fill:rgb(195, 161, 74);fill-opacity:1;stroke:rgb(0, 0, 0);stroke-width:0.50355003;stroke-miterlimit:4;stroke-opacity:1;stroke-dasharray:none"
         id="path18844" />
      <path
         d="M 474.34868,173.26502 L 485.16229,173.00257 C 485.16229,173.00257 498.29801,198.67189 519.80546,212.46373 C 502.47057,212.34581 455.46571,212.54265 440.49285,212.46373 C 459.90072,199.78729 474.34868,173.26502 474.34868,173.26502 z "
         style="fill:rgb(195, 161, 74);fill-opacity:1;stroke:rgb(0, 0, 0);stroke-width:0.50355003;stroke-miterlimit:4;stroke-opacity:1;stroke-dasharray:none"
         id="path18842" />
      <path
         d="M 253.49844,173.30571 L 264.31205,173.04326 C 264.31205,173.04326 277.44777,198.67189 298.95522,212.46373 C 281.62033,212.34581 234.61547,212.54265 219.64261,212.46373 C 239.05048,199.78729 253.49844,173.30571 253.49844,173.30571 z "
         style="fill:rgb(195, 161, 74);fill-opacity:1;stroke:rgb(0, 0, 0);stroke-width:0.50355003;stroke-miterlimit:4;stroke-opacity:1;stroke-dasharray:none"
         id="path11705" />
      <path
         d="M 368.05262,102.22964 L 368.05262,158.85464 L 370.08988,158.85464 L 369.30135,101.9668 L 368.05262,102.22964 z"
         style="fill:#000000;fill-opacity:1;fill-rule:evenodd;stroke:none;stroke-width:7.02637005;stroke-linecap:butt;stroke-linejoin:miter;stroke-miterlimit:4;stroke-dasharray:none;stroke-opacity:1"
         id="path7043"
         sodipodi:nodetypes="ccccc" />
      <path
         d="M 311.07895,154.96205 L 311.45066,156.41759 L 428.93027,156.41759 L 429.30198,154.96205 L 311.07895,154.96205 z"
         style="fill:#000000;fill-opacity:1;fill-rule:evenodd;stroke:none;stroke-width:7.02637005;stroke-linecap:butt;stroke-linejoin:miter;stroke-miterlimit:4;stroke-dasharray:none;stroke-opacity:1"
         id="path2178"
         sodipodi:nodetypes="ccccc" />
      <path
         d="M 369.42982,176.64473 A 16.607143,16.785715 0 1 1 369.48088,176.64365"
         transform="matrix(0.857009, 0, 0, 0.866052, 52.992, 17.1535)"
         style="fill:rgb(195, 161, 74);fill-opacity:1;stroke:rgb(0, 0, 0);stroke-width:0.58449116;stroke-miterlimit:4;stroke-dasharray:none;stroke-opacity:1"
         id="path2174" />
      <path
         d="M 369.42982,176.64473 A 16.607143,16.785715 0 1 1 369.48088,176.64365"
         transform="matrix(0.97823, 0, 0, 0.962531, 118.29, 3.27872)"
         style="fill:rgb(195, 161, 74);fill-opacity:1;stroke:rgb(0, 0, 0);stroke-width:0.51893716;stroke-miterlimit:4;stroke-dasharray:none;stroke-opacity:1"
         id="path17744" />
      <path
         d="M 369.42982,176.64473 A 16.607143,16.785715 0 1 1 369.48088,176.64365"
         transform="matrix(0.97823, 0, 0, 0.962531, -102.56, 3.31941)"
         style="opacity:1;fill:rgb(195, 161, 74);fill-opacity:1;stroke:rgb(0, 0, 0);stroke-width:0.51893716;stroke-miterlimit:4;stroke-dasharray:none;stroke-opacity:1"
         id="path18751" />
      <use
         x="0"
         y="0"
         xlink:href="#path7043"
         id="use3204"
         transform="matrix(0,1,1,0,36.07628,-211.52539)"
         width="500.00262"
         height="778.79004" />
      <path
         d="M 144.47971,174.56519 A 14.660738,16.696779 0 1 1 144.52479,174.56412"
         transform="matrix(0.817997, 0, 0, 1.00723, 22.1029, -1.77493)"
         style="fill:rgb(195, 161, 74);fill-opacity:1;stroke:rgb(0, 0, 0);stroke-width:0.55475655;stroke-miterlimit:4;stroke-dasharray:none;stroke-opacity:1"
         id="path7792" />
      <use
         x="0"
         y="0"
         xlink:href="#use3204"
         id="use3206"
         transform="translate(408.45592,-2.1027332)"
         width="500.00262"
         height="778.79004" />
      <path
         d="M 144.47971,174.56519 A 14.660738,16.696779 0 1 1 144.52479,174.56412"
         transform="matrix(-0.817997, 0, 0, 1.00723, 717.946, -2.26823)"
         style="opacity:1;fill:rgb(195, 161, 74);fill-opacity:1;stroke:rgb(0, 0, 0);stroke-width:0.55475655;stroke-miterlimit:4;stroke-dasharray:none;stroke-opacity:1"
         id="path11718" />
    </g>
    <g
       transform="matrix(0.99295, 0, 0, 0.99295, 2.65897, 2.72444)"
       style="opacity: 1;"
       id="g17699">
      <path
         d="M 120.03125,288.21875 C 121.87507,407.61005 122.48799,437.05144 125.5625,526.375 C 128.56306,613.55018 132.36638,669.98406 144.40625,701.03125 C 171.28609,770.34625 216.58179,815.57232 282.96875,839.40625 C 305.48108,847.48853 337.10762,851.2693 369.71875,851.125 L 369.71875,851.125 C 401.34982,851.04977 431.84139,847.22932 453.71875,839.375 C 520.10571,815.54107 565.40141,770.31501 592.28125,701 C 604.32112,669.95281 608.12444,613.51894 611.125,526.34375 C 614.19951,437.02019 614.81243,407.57881 616.65625,288.1875 L 120.03125,288.21875 z "
         style="opacity:1;fill:#0055f0;fill-opacity:1;stroke:rgb(0, 0, 0);stroke-width:1.00710006000000000;stroke-miterlimit:4;stroke-dasharray:none;stroke-opacity:1"
         id="path17701" />
      <path
         d="M 126.59375,554.1875 C 129.50114,625.69 133.70171,673.42748 144.40625,701.03125 C 171.28609,770.34625 216.58179,815.57232 282.96875,839.40625 C 305.48108,847.48853 337.10762,851.2693 369.71875,851.125 C 401.34982,851.04977 431.84139,847.22932 453.71875,839.375 C 520.10571,815.54107 565.40141,770.31501 592.28125,701 C 602.98418,673.40036 607.15516,625.67217 610.0625,554.1875 L 126.59375,554.1875 z "
         style="opacity:1;fill:#bf9f4e;fill-opacity:1;stroke:rgb(0, 0, 0);stroke-width:1.00710006000000000;stroke-miterlimit:4;stroke-dasharray:none;stroke-opacity:1"
         id="path17703" />
    </g>
    <path
       d="M 500.77192,387.7833 L 286.26969,492.14265 L 259.12519,433.23393 L 477.6131,337.52427 L 500.77192,387.7833 z M 283.22033,505.03883 L 280.31246,506.37873 C 276.20346,508.27213 271.01854,506.65095 269.12518,502.54194 L 240.39557,440.19323 C 238.50219,436.08423 240.63858,431.08949 244.74755,429.19612 L 247.65541,427.8562 C 251.76441,425.96283 256.59664,427.7465 258.49003,431.8555 L 287.21963,494.20422 C 289.11301,498.31321 287.3293,503.14545 283.22033,505.03883 z M 513.25208,390.35238 L 509.86398,391.91357 C 506.57886,393.42733 502.71552,392.00125 501.20176,388.71614 L 478.23253,338.86853 C 476.71878,335.5834 478.14484,331.72006 481.42996,330.2063 L 484.81805,328.64511 C 488.10317,327.13136 491.7443,328.65981 493.25805,331.94493 L 516.22728,381.79255 C 517.74102,385.07766 516.5372,388.83863 513.25208,390.35238 z M 562.54778,378.98645 L 561.88687,379.29099 C 557.58074,381.27521 552.87664,379.2401 550.89243,374.93397 L 520.78454,309.59412 C 518.80034,305.28801 520.30965,300.38982 524.61576,298.4056 L 525.27668,298.10108 C 529.5828,296.11684 534.64684,297.98611 536.63105,302.29222 L 566.73895,367.63207 C 568.72316,371.93818 566.85389,377.00223 562.54778,378.98645 z M 551.15992,375.51446 L 515.97139,381.23722 L 493.85499,333.24042 L 520.49081,308.95665 L 551.15992,375.51446 z M 244.64714,527.9342 L 268.40275,500.97415 L 240.27847,439.9391 L 205.71389,443.44165 L 244.64714,527.9342 z M 232.80108,545.60111 C 232.94899,545.53552 233.09585,545.45173 233.23898,545.36516 C 235.52925,543.97983 236.62292,540.25247 235.22053,537.20901 L 191.56216,442.46204 C 190.15978,439.41858 186.70028,437.78925 184.15917,438.63017 C 184.00036,438.68274 183.84126,438.73992 183.69529,438.80976 C 181.50592,439.85737 180.38022,442.95971 181.69496,445.81294 L 226.26233,542.53263 C 227.57707,545.38587 230.58224,546.58476 232.80108,545.60111 z M 240.08852,539.98821 C 240.68163,539.71286 241.24534,539.26445 241.78412,538.62607 L 242.93791,537.27446 C 245.09308,534.72099 245.6992,530.21735 244.30082,527.18261 L 205.08361,442.0738 C 203.68525,439.03906 199.95243,436.53474 196.6111,436.514 L 194.83399,436.51291 C 193.99864,436.50771 193.29153,436.64488 192.69687,436.91685 C 190.91286,437.73277 190.27963,439.67872 191.32843,441.95478 L 235.45427,537.71628 C 236.50305,539.99233 238.30917,540.81424 240.08852,539.98821 z M 226.45712,542.95535 L 181.59108,445.58749 L 179.81167,498.37308 C 175.14192,493.81236 168.45856,492.24728 162.87055,494.97309 L 162.84238,494.98609 C 155.48247,498.60808 152.79313,508.33237 156.83227,516.71729 C 160.87934,525.11864 170.16075,529.01955 177.54759,525.41625 C 183.18788,522.66494 186.06141,516.31915 185.32238,509.73916 L 226.45712,542.95535 z "
       style="opacity:1;fill:#bf9f4e;fill-opacity:1;stroke:rgb(0, 0, 0);stroke-width:0.50000000000000000;stroke-miterlimit:4;stroke-dasharray:none;stroke-opacity:1"
       id="path7144" />
    <path
       d="M 254.46798,339.05567 L 474.57888,430.99738 L 448.32688,490.30921 L 232.07061,389.65862 L 254.46798,339.05567 z M 486.27058,424.75928 L 489.19835,426.05514 C 493.33545,427.88627 495.547,432.84818 493.71586,436.9853 L 465.93086,499.76067 C 464.09974,503.89778 458.93989,505.59704 454.80278,503.76592 L 451.87502,502.47006 C 447.73791,500.63894 445.88146,495.83418 447.7126,491.69708 L 475.49759,428.92171 C 477.32872,424.7846 482.13348,422.92816 486.27058,424.75928 z M 248.14457,327.99361 L 251.55585,329.50348 C 254.86345,330.96745 256.34766,334.80884 254.88369,338.11645 L 232.66966,388.30516 C 231.20569,391.61277 227.36432,393.09698 224.05671,391.63301 L 220.64543,390.12314 C 217.33782,388.65916 216.07735,384.91682 217.54134,381.60921 L 239.75536,331.4205 C 241.21934,328.1129 244.83698,326.52964 248.14457,327.99361 z M 207.02644,298.52245 L 207.69188,298.81698 C 212.02746,300.73595 213.61055,305.6108 211.69158,309.94639 L 182.57361,375.73335 C 180.65464,380.06894 175.9818,382.17483 171.64621,380.25587 L 170.98077,379.96135 C 166.6452,378.04237 164.6997,373.00711 166.61867,368.67154 L 195.73664,302.88457 C 197.65561,298.54899 202.69086,296.60349 207.02644,298.52245 z M 211.95027,309.36192 L 239.50788,331.97963 L 218.11865,380.30486 L 182.28953,376.37519 L 211.95027,309.36192 z M 528.95009,438.56321 L 493.0172,438.56382 L 465.81761,500.01654 L 491.29694,523.63393 L 528.95009,438.56321 z M 550.03689,435.77103 C 549.88989,435.7034 549.72993,435.64862 549.57034,435.59846 C 547.01682,434.796 543.49721,436.4397 542.14093,439.50398 L 499.91801,534.89929 C 498.56172,537.96357 499.62642,541.63633 501.93734,542.98692 C 502.08177,543.07132 502.22988,543.15289 502.37876,543.21623 C 504.6122,544.16627 507.68404,542.95984 508.95556,540.08706 L 552.05759,442.70553 C 553.3291,439.83277 552.24183,436.78545 550.03689,435.77103 z M 541.00774,434.01424 C 540.40904,433.75128 539.69994,433.6248 538.86478,433.6426 L 537.08789,433.67054 C 533.74725,433.74172 529.96754,436.26443 528.61515,439.31993 L 490.68737,525.01114 C 489.33497,528.06663 489.92389,532.52294 492.11737,535.04357 L 493.29144,536.37762 C 493.83981,537.0078 494.41019,537.44764 495.0074,537.714 C 496.79902,538.51308 498.67765,537.70166 499.69195,535.41003 L 542.36699,438.99324 C 543.38129,436.70162 542.80387,434.80313 541.00774,434.01424 z M 552.24598,442.27991 L 508.85508,540.31407 L 549.6353,506.75131 C 549.30078,513.27012 552.54507,519.31921 558.28455,521.70967 L 558.31292,521.72222 C 565.89623,524.8496 574.97012,520.43839 578.59077,511.86444 C 582.21851,503.2737 579.00911,493.73108 571.42204,490.57113 C 565.62885,488.15831 558.96797,490.19771 554.51976,495.10239 L 552.24598,442.27991 z "
       style="opacity:1;fill:#bf9f4e;fill-opacity:1;stroke:rgb(0, 0, 0);stroke-width:0.50000000000000000;stroke-miterlimit:4;stroke-dasharray:none;stroke-opacity:1"
       id="path7142" />
    <path
       d="M 548.10125,250.02255 L 593.51896,233.36968 L 593.51896,250.12167 L 548.10125,250.02255 z "
       style="fill: none;"
       id="path175" />
    <path
       d="M 192.08179,250.02255 L 146.66408,233.36968 L 146.66408,250.12167 L 192.08179,250.02255 z "
       style="fill: none;"
       id="path193" />
    <path
       d="M 147.5067,214.22226 L 589.71177,214.22226 C 594.33321,214.22226 598.05372,218.45104 598.05372,223.07249 L 598.05372,224.32377 C 598.05372,228.94523 594.33321,232.66574 589.71177,232.66574 L 147.5067,232.66574 C 142.88526,232.66574 139.16474,228.94523 139.16474,224.32377 L 139.16474,223.07249 C 139.16474,218.45104 142.88526,214.22226 147.5067,214.22226 z "
       style="fill:rgb(163, 133, 53);fill-opacity:1;stroke:rgb(0, 0, 0);stroke-width:0.5;stroke-miterlimit:4;stroke-opacity:1;stroke-dasharray:none"
       id="path18846" />
    <path
       d="M 149.23778,232.67754 L 149.23778,269.16845 C 151.40277,267.77388 154.00052,266.96534 156.778,266.96534 L 580.48835,266.96534 C 583.28112,266.96534 585.8873,267.79074 588.05959,269.19948 L 588.05959,232.67754 L 149.23778,232.67754 z "
       style="fill:rgb(195, 161, 74);fill-opacity:1;stroke:rgb(0, 0, 0);stroke-width:0.5;stroke-miterlimit:4;stroke-opacity:1;stroke-dasharray:none"
       id="path2185" />
    <g
       transform="matrix(0.99295, 0, 0, 0.99295, 1.29565, 2.99581)"
       id="g7749">
      <path
         d="M 369.70488,265.48898 L 323.7654,248.61804 L 369.70488,231.7471 L 415.44507,248.61804 L 369.70488,265.48898 z "
         style="fill:rgb(237, 26, 36);fill-opacity:1;stroke:rgb(0, 0, 0);stroke-width:0.50355003;stroke-miterlimit:4;stroke-dasharray:none;stroke-opacity:1"
         id="path155" />
      <path
         d="M 481.21526,234.64211 C 495.96373,234.64211 507.92195,240.93128 507.92195,248.61804 C 507.92195,256.3048 495.96373,262.59396 481.21526,262.59396 C 466.56645,262.59396 454.60823,256.3048 454.60823,248.61804 C 454.60823,240.93128 466.56645,234.64211 481.21526,234.64211 z "
         style="fill:rgb(0, 174, 239);stroke:rgb(0, 0, 0);stroke-width:0.50355003;stroke-miterlimit:4;stroke-dasharray:none;stroke-opacity:1"
         id="path159" />
      <path
         d="M 258.1945,234.64211 C 272.84332,234.64211 284.80154,240.93128 284.80154,248.61804 C 284.80154,256.3048 272.84332,262.59396 258.1945,262.59396 C 243.44603,262.59396 231.48781,256.3048 231.48781,248.61804 C 231.48781,240.93128 243.44603,234.64211 258.1945,234.64211 z "
         style="fill:rgb(0, 174, 239);stroke:rgb(0, 0, 0);stroke-width:0.50355003;stroke-miterlimit:4;stroke-dasharray:none;stroke-opacity:1"
         id="path167" />
      <path
         d="M 591.13122,265.48898 L 549.1778,248.61804 L 591.13122,231.7471 L 598.80441,248.51821 L 591.13122,265.48898 z "
         style="fill:rgb(237, 26, 36);fill-opacity:1;stroke:rgb(0, 0, 0);stroke-width:0.50355003;stroke-miterlimit:4;stroke-dasharray:none;stroke-opacity:1"
         id="path177" />
      <path
         d="M 148.97611,265.48898 L 191.02918,248.61804 L 149.07576,231.7471 L 141.40257,248.51821 L 148.97611,265.48898 z "
         style="fill:rgb(237, 26, 36);fill-opacity:1;stroke:rgb(0, 0, 0);stroke-width:0.50355003;stroke-miterlimit:4;stroke-dasharray:none;stroke-opacity:1"
         id="path195" />
    </g>
    <path
       d="M 156.778,266.96534 C 149.09068,266.96534 142.90772,273.14827 142.90772,280.83561 L 142.90772,282.9146 C 142.90772,285.18173 143.4409,287.29646 144.39715,289.1826 L 592.90023,289.15156 C 593.84477,287.27452 594.35862,285.1669 594.35862,282.9146 L 594.35862,280.83561 C 594.35862,273.14828 588.17566,266.96534 580.48835,266.96534 L 156.778,266.96534 z "
       style="fill:rgb(163, 133, 53);fill-opacity:1;stroke:rgb(0, 0, 0);stroke-width:0.5;stroke-miterlimit:4;stroke-opacity:1;stroke-dasharray:none"
       id="rect9004" />
    <path
       d="M 369.23755,615.76246 C 349.94015,615.98564 333.98807,606.87433 333.59769,595.40612 C 333.2073,583.9379 348.52628,574.45062 367.82308,574.2098 C 387.11988,573.96898 403.09553,583.0657 403.51557,594.53355 C 403.93564,606.00139 388.64124,615.50266 369.34508,615.76112"
       style="opacity: 1; fill: none; fill-opacity: 1; stroke: rgb(0, 0, 0); stroke-width: 14.7017; stroke-linejoin: bevel; stroke-miterlimit: 4; stroke-dasharray: none; stroke-opacity: 1;"
       id="path11734" />
    <path
       d="M 361.08883,600.01385 L 361.08883,625.53119 L 376.82799,625.53119 L 376.82799,600.01385 L 361.08883,600.01385 z "
       style="opacity:1;fill:rgb(0, 0, 0);fill-opacity:1;stroke:rgb(84, 69, 31);stroke-width:0.5;stroke-linejoin:bevel;stroke-miterlimit:4;stroke-dasharray:none;stroke-opacity:1"
       id="rect12705" />
    <path
       style="opacity: 1; fill: rgb(0, 0, 0); fill-opacity: 1; stroke: none; stroke-width: 10; stroke-linejoin: bevel; stroke-miterlimit: 4; stroke-dasharray: none; stroke-opacity: 1;"
       d="M 271.71875,586.5625 C 265.26687,586.83456 257.79834,587 248.46875,587 C 240.64641,587.00001 234.18093,586.87993 228.5,586.6875 C 228.39523,596.18668 227.6268,663.42534 226.96875,700.4375 C 206.15563,700.89211 194.72976,692.81709 169.4375,662.34375 C 172.85545,660.09453 187.20954,660.8041 198.09375,661.40625 C 175.04136,646.51976 154.28339,628.42885 138.25,611.15625 C 130.17785,629.20919 127.53094,662.75549 130.875,694.96875 C 134.76942,687.19332 140.03886,681.74749 145.96875,676.0625 C 161.97027,711.71103 182.42972,732.85015 211.03125,745.375 C 221.77208,749.38103 230.4335,751.58427 241.36986,752.375 L 241.36986,758.12637 L 260.19815,758.12637 L 260.19815,752.25 C 270.77599,751.33701 278.96586,748.95325 289.3125,745.375 C 317.91405,732.85018 338.37349,711.71101 354.375,676.0625 C 360.3049,681.74751 365.57435,687.19335 369.46875,694.96875 C 372.81281,662.75546 370.16591,629.20921 362.09375,611.15625 C 346.06037,628.42883 325.30242,646.51975 302.25,661.40625 C 313.1342,660.80411 327.48831,660.09454 330.90625,662.34375 C 305.61398,692.81708 294.18814,700.89209 273.375,700.4375 C 272.71598,663.37061 271.83654,595.88962 271.71875,586.5625 z "
       transform="translate(118.405, 72.5023)"
       id="rect14652"
       sodipodi:nodetypes="cscccccccccccccccccccc" />
    <path
       d="M 276.89834,625.57828 L 276.89834,649.04424 C 319.05142,654.15597 320.72987,659.49504 366.8872,659.49504 C 413.04454,659.49504 415.01677,654.13993 461.52769,649.04424 L 461.52769,625.57828 L 276.89834,625.57828 z "
       style="opacity:1;fill:rgb(0, 0, 0);fill-opacity:1;stroke:rgb(84, 69, 31);stroke-width:0.5;stroke-linejoin:miter;stroke-miterlimit:4;stroke-dasharray:none;stroke-opacity:1"
       id="rect13676"
       sodipodi:nodetypes="ccsccc" />
  </g>
</svg>
