<?xml version="1.0" encoding="UTF-8"?>
<!DOCTYPE svg PUBLIC "-//W3C//DTD SVG 1.1//EN" "http://www.w3.org/Graphics/SVG/1.1/DTD/svg11.dtd">
<!-- Creator: CorelDRAW -->
<svg xmlns="http://www.w3.org/2000/svg" xml:space="preserve" width="500px" height="534px" shape-rendering="geometricPrecision" text-rendering="geometricPrecision" image-rendering="optimizeQuality" fill-rule="evenodd" clip-rule="evenodd"
viewBox="0 0 500 534"
 xmlns:xlink="http://www.w3.org/1999/xlink"
 xmlns:svg="http://www.w3.org/2000/svg"
 version="1.0">
 <g id="Layer_x0020_1">
  <metadata id="CorelCorpID_0Corel-Layer"/>
  <path id="path1937" fill="#006F00" stroke="#006F00" stroke-width="0.216" d="M0.227622 0.542835l499.563 0.169795 -19.3003 341.233c-35.7766,253.841 -412.634,255.964 -460.474,1.52107l-19.789 -342.923z"/>
  <path fill="#BF9F4F" d="M341.789 351.085c4.8841,-3.70375 9.37446,-7.6612 12.6343,-12.1776 2.09169,-5.52529 0.735591,-8.42797 -3.93109,-6.04885 -0.964063,6.08882 -8.95692,11.0721 -8.70322,18.2265z"/>
  <path fill="#BF9F4F" d="M377.253 340.573c-0.390614,3.82309 -3.68532,11.5444 -6.54208,15.9919 4.33191,-2.03358 8.02744,-6.43635 10.3408,-11.7108 -0.837355,-0.91389 -2.55572,-4.17997 -3.79871,-4.28117z"/>
  <path fill="#BF9F4F" d="M359.142 340.581c-2.13109,3.95773 -3.04441,8.32139 -2.73997,13.091 3.55181,-2.79071 6.79918,-6.64696 10.6554,-8.37213l-4.26218 7.45881c6.70422,-0.96293 8.37582,-3.90643 10.1988,-8.52435 1.116,0.608882 8.68167,-1.81843 6.95679,-4.01414 -4.76277,-3.65074 -19.8473,-5.21603 -20.8089,0.360851z"/>
  <path fill="#BF9F4F" d="M87.8851 294.154c-1.2685,3.61531 -5.47966,7.64873 -9.13323,12.3299 5.0624,-0.43852 13.3495,-4.76958 19.6288,-12.1244 -1.16986,-2.31562 -6.99761,-1.81106 -10.4956,-0.205512z"/>
  <path fill="#BF9F4F" d="M96.7139 296.809c-1.42129,3.61531 -5.42977,11.8437 -8.82879,16.5254 5.0624,-0.43852 9.09497,-5.43175 14.6132,-14.3087 -2.18126,-1.37424 -3.19635,-3.28762 -5.78438,-2.21669z"/>
  <path fill="#BF9F4F" d="M102.386 298.483c-1.87739,3.61531 -3.8452,12.9098 -6.43323,17.7432 5.16161,0.0549922 9.08901,-5.1789 14.2554,-15.8176 -2.18126,-1.37424 -5.23418,-2.99651 -7.82221,-1.92558z"/>
  <path fill="#BF9F4F" d="M110.4 298.279c-0.811843,3.61531 -4.24857,16.6144 -6.8366,21.4478 5.02129,0.195591 6.89386,-2.79269 12.3299,-13.6998 1.24186,-4.1794 -2.10302,-11.4749 -5.49326,-7.74794z"/>
  <path fill="#BF9F4F" d="M134.769 330.383c-0.608882,4.21144 -7.00215,6.90066 -10.5032,10.351 3.75477,-0.202961 6.90066,-1.92813 10.351,-2.89219l-0.152221 4.87106 7.91547 -5.63216c-3.60255,3.34885 -10.554,8.06769 -12.1776,10.0466 5.32772,-2.53701 10.5032,-4.76958 15.5265,-8.52435l-1.82665 7.45881 6.54548 -4.4144c-1.77591,2.33405 -4.76958,4.6681 -7.15437,7.00215 3.60255,-0.0507402 6.90066,-2.23257 10.351,-3.34885l0 2.89219 4.26218 -3.34885 -3.04441 3.65329c1.97887,0.608882 4.10995,-1.97887 6.39326,-2.89219 -3.89481,-8.65248 -11.6739,-16.3383 -26.4864,-15.2221z"/>
  <path fill="#CCCCCC" d="M45.2892 218.674c9.53632,-0.0215433 16.3636,-3.05348 24.9971,-3.6771 10.7357,-11.3187 36.8286,-13.0017 71.6545,-9.86656 3.98892,0.190772 19.1395,-3.22668 35.4016,-6.71471 14.7183,-3.15695 29.7267,-8.77919 39.223,-9.86429 0.602079,1.47232 -8.12807,7.76126 -9.9343,11.6422 10.3635,-7.82306 20.0251,-13.1375 31.3931,-12.93 -2.51858,2.08006 -4.2344,4.5618 -5.14687,7.44548 8.67204,-6.25862 20.6048,-9.90851 37.3051,-9.74467l-10.5571 10.5817c19.0131,-5.67837 34.8341,-13.3033 52.8863,-16.5322 2.57443,-0.460347 4.24205,0.633544 6.80542,0.275811 38.4506,-5.36599 76.163,-0.30104 100.516,29.1507 -3.72019,-0.0184252 -7.44038,-0.0368504 -10.2575,1.75124 14.1282,2.77682 22.5363,12.2273 27.0315,26.2437 -4.65024,-2.18268 -9.30048,-3.1612 -13.9501,-2.93556 9.61966,2.7754 15.2255,10.7688 16.8174,23.9808 -4.24658,-0.125858 -9.39572,-1.89043 -13.6415,-1.15937 21.1621,10.6058 37.6949,-2.74195 15.8494,-26.5853l0.887528 -1.40202c7.48517,-0.626457 14.1678,5.16955 20.0483,17.3883 0.794552,-5.20526 -5.03377,-10.1092 -3.03477,-14.7121 37.5925,17.6434 4.01386,84.5816 -44.5916,59.4771 5.90145,4.38038 8.4909,8.20885 7.16712,11.7879 -2.45934,0.36737 -5.72117,-0.068315 -9.78549,-1.30592 6.9738,10.5188 9.13125,20.6359 6.47235,30.3526 -2.9897,-3.44636 -4.47421,-11.1073 -8.06599,-15.7578 5.95956,15.2374 3.63884,24.4023 -2.44517,30.8075 -0.594709,-1.98765 -2.09169,-4.44303 -1.78243,-7.88797 -3.66662,13.2137 -12.0988,14.9882 -23.7923,8.93566 -3.15893,-5.35692 -5.04114,-6.98287 -15.4261,-9.127 -0.414709,1.03323 -3.1028,3.5297 -7.75843,1.70561 -3.80523,8.85147 -6.62145,12.2261 -8.4481,10.5766 -1.92019,-1.55594 3.55465,-13.7132 4.85915,-16.0379l-5.41814 -1.27049c-2.01033,6.86637 -6.32892,12.1278 -12.3525,15.7839 -1.50463,-5.94936 1.3561,-23.188 12.871,-27.7824 11.5155,-4.5944 28.9763,6.76574 30.4824,-6.10725l3.29358 -0.910489c-26.4552,-25.5118 -159.72,3.79077 -177.038,-8.36079 -9.36454,20.215 -27.3181,35.6902 -46.6163,39.75l-3.88262 -4.89657 -4.50425 -2.19288 0.242646 -3.81402 -2.38734 3.14079 -4.75314 -2.84825 -0.918709 -4.0989 -2.99594 3.01833 -6.39043 -3.94555c-5.01024,4.54309 -10.0205,7.48063 -15.0301,8.8132 -0.0856063,-4.75824 4.23099,-9.17802 10.474,-13.4493 0.713481,-11.0874 11.552,-3.83074 21.9447,-8.15585 5.44366,-2.26573 9.50854,-7.58693 13.8572,-12.848 -12.1431,6.04035 -17.5133,1.77024 -28.0006,3.63373 -10.4871,1.8635 -13.7497,6.54974 -26.7959,5.51594 2.56422,-2.36013 3.31087,-5.40709 4.26955,-10.1744 -7.43415,1.30932 -16.3208,-4.83619 -25.994,-9.76649 -5.7481,6.12397 -10.6931,9.43852 -14.8348,9.94394 0.123874,-5.24495 3.05745,-9.68712 8.8013,-13.326 15.8854,-17.2828 23.1628,-3.90416 41.4153,-5.976 9.87223,-1.12054 7.03106,-5.87821 22.8209,-9.18539 -23.3858,-9.78265 -34.3984,-4.23921 -39.2698,-5.76482 -6.04744,-1.89354 -12.4642,-5.56044 -20.3533,-7.48744 -8.92999,-2.18126 -23.8921,4.24914 -38.2272,-10.6792 -20.6215,1.67556 -28.4987,-3.87326 -24.2337,-19.0551 8.13941,2.54211 8.15074,11.4061 20.806,10.3357l-4.11789 -10.9596c-3.6034,-2.19118 -4.29562,-10.7538 2.13931,-12.7429z"/>
  <path fill="white" d="M86.9395 296.955c-4.32057,3.97049 -8.1309,6.15742 -11.4313,6.55994 0.123874,-5.24495 3.05745,-9.68712 8.8013,-13.326 15.8854,-17.2828 23.1628,-3.90416 41.4153,-5.976 9.87223,-1.12054 7.03106,-5.87821 22.8209,-9.18539 -1.6441,-0.687685 -3.22725,-1.30025 -4.75172,-1.84422 7.46448,-1.01112 14.713,2.50271 30.6431,13.8671l1.20444 -2.41257c2.26091,10.4851 -7.66545,33.1033 -14.2135,35.3577 -18.5414,6.38334 -26.0371,-2.04265 -26.7494,10.8394 -0.343276,6.20589 -9.39402,6.73115 -14.0905,7.98038 -0.0856063,-4.75824 4.23099,-9.17802 10.474,-13.4493 0.713481,-11.0874 11.552,-3.83074 21.9447,-8.15585 5.44366,-2.26573 9.50854,-7.58693 13.8572,-12.848l1.85329 0.631843 5.87027 -13.5709 -20.1699 -13.2693c-5.09301,2.37033 -22.3577,9.75884 -28.8635,10.3229 -5.17153,0.448441 -14.737,-4.21512 -25.2516,-3.55606 -5.68432,0.356315 -6.35726,3.50561 -9.08901,5.53068 -3.06199,2.27027 -5.66674,1.42441 -4.27408,6.50353zm-29.5041 -40.3115c-2.24504,-1.40372 -4.50029,-3.21506 -6.73994,-5.5474l3.92995 1.46636 2.80999 4.08104zm-26.0685 -21.7647c-1.34334,-1.17184 -2.87036,-2.20224 -4.90507,-2.83777 -2.93216,10.4375 -0.125291,16.3219 8.61619,18.4357 -7.85991,-10.0244 -1.42044,-10.097 -3.71112,-15.5979zm8.81887 6.82243c1.84479,0.631276 4.11619,0.926363 7.08208,0.675496l-4.11789 -10.9596c-3.6034,-2.19118 -4.29562,-10.7538 2.13931,-12.7429 9.53632,-0.0215433 16.3636,-3.05348 24.9971,-3.6771 10.7357,-11.3187 36.8286,-13.0017 71.6545,-9.86656 3.98892,0.190772 19.1395,-3.22668 35.4016,-6.71471 14.7183,-3.15695 29.7267,-8.77919 39.223,-9.86429 0.263339,0.644032 -1.25972,2.20989 -3.2074,4.09295 -23.146,4.40646 -44.5737,18.5842 -75.3446,19.2776l-0.30104 1.80624 -13.2457 -2.40832c14.9516,7.42564 15.052,17.661 0.30104,30.706l-3.61247 1.80624c-0.111402,1.56586 8.47871,2.26262 16.5572,3.0104 -4.51559,1.60554 -10.2353,1.40485 -15.353,2.10728 -0.200693,0.802772 0.200693,1.60554 1.20416,2.40832 2.70936,0.702426 5.56923,0.801638 8.12807,2.10728 -3.06057,1.1554 -6.42218,1.10438 -9.63326,1.20416 -0.602079,0.903119 -0.802772,1.80624 -0.602079,2.70936l6.92391 0.903119c-18.7109,9.69024 -31.8033,-1.53213 -42.6062,-1.99474 -5.11739,-0.219118 -10.031,0.650835 -14.3206,1.19452 -4.76277,0.60378 -3.20995,-1.57861 -5.24041,-1.56331 -5.28265,0.040252 -9.5213,-1.20699 -10.9854,-3.65726l1.5052 -0.903119 -1.80624 -2.70936c-10.7334,-1.10948 -15.6475,-3.42624 -14.7407,-6.94772zm194.35 -50.546c0.908504,-1.42441 2.07156,-2.72154 3.48803,-3.8914 -11.3681,-0.207496 -21.0297,5.1069 -31.3931,12.93l-2.088 2.09509c16.1688,-1.14803 20.8984,-8.62867 29.9931,-11.1336zm32.9304 -3.46847l2.71588 -2.72211c-15.6563,-0.153354 -27.123,3.04469 -35.6406,8.60202l-3.20627 5.71181 5.71975 -0.903119c4.11591,-6.88026 19.9729,-5.16558 30.4112,-10.6886zm132.501 3.44806c-22.7976,-13.9873 -51.5123,-15.9112 -80.6505,-11.8449 -2.56337,0.357732 -4.23128,-0.736158 -6.80542,-0.275811 -16.9237,3.02684 -31.8869,9.91758 -49.3574,15.446l-5.02611 5.11937 6.60274 -0.526677c17.2032,-8.02545 43.6981,-14.222 65.6422,-16.4659 17.617,-1.80113 32.603,-0.981638 37.3473,0.800221 10.0621,3.77972 12.5099,0.717166 29.0364,7.76438l0.15052 3.3103 3.06029 -3.32703zm48.3971 38.0594c-1.87484,-0.739843 -3.80665,-1.02643 -5.79487,-0.860032l-0.887528 1.40202c19.3323,21.1005 8.60797,33.9812 -8.78174,29.3148 6.81166,11.5021 20.5121,6.44712 23.8374,-3.38315 2.82388,-8.34832 -0.980221,-17.3993 -8.047,-22.9008l-0.326268 -3.57279zm14.1732 13.9907c0.162142,0.837922 0.210331,1.68378 0.0802205,2.53758l4.13575 7.40098c0.064063,-4.78488 -0.663874,-8.77777 -4.21597,-9.93856zm1.57181 -9.59018c-1.37594,-0.947623 -2.8834,-1.81332 -4.52636,-2.58435 -0.687118,1.58202 -0.449292,3.20032 0.126142,4.8532l4.9371 5.04596 1.20416 -1.50775c-1.58428,-2.13704 -2.16454,-4.0731 -1.74104,-5.80706zm-45.2639 97.7273c-2.0554,-2.3692 -3.39931,-6.73087 -5.20583,-10.7365 0.645166,-1.1761 0.487276,-2.75471 -0.472536,-4.73471 2.74592,1.52532 4.53799,7.10929 5.67837,15.4712zm-6.72435 9.67635c-0.979938,1.99843 -2.26602,3.77206 -3.78681,5.37336 -0.594709,-1.98765 -2.09169,-4.44303 -1.78243,-7.88797 3.46167,-2.57981 5.31808,-1.74161 5.56923,2.51462zm-52.9362 -0.395433c-3.60822,8.2406 -6.29433,11.5645 -8.05805,9.97172 -1.3201,-1.06951 0.854646,-7.1504 2.76718,-11.6016l5.29087 1.62992zm25.6774 -26.3529l-3.29358 0.910489c-1.50605,12.873 -18.9669,1.51285 -30.4824,6.10725 -11.5149,4.5944 -14.3756,21.833 -12.871,27.7824 5.08224,-3.08466 8.95097,-7.31254 11.2433,-12.6831l-5.6829 -1.96951c6.62089,-25.1116 46.5072,7.22637 41.0865,-20.1475z"/>
  <path fill="white" d="M191.297 275.742c-7.79528,-6.912 -21.6057,-14.6639 -41.8445,-19.5676 17.661,1.20416 31.4085,7.92737 41.8445,19.5676z"/>
  <path fill="white" d="M196.114 270.926l1.20416 4.21455c3.31143,1.00347 9.63326,5.01733 14.4499,7.52599 -5.21802,-4.11421 -11.6402,-9.13153 -15.6541,-11.7405z"/>
  <path fill="white" d="M267.159 288.988l4.21455 3.0104c-17.3599,1.00347 -33.5157,-7.3253 -46.6611,-12.3426l-1.80624 -4.81663c14.1489,8.32876 29.5019,14.2492 44.2528,14.1489z"/>
  <path fill="white" d="M267.46 280.559c3.31143,2.70936 6.22148,5.41871 8.73015,8.12807 3.31143,-1.10381 29.8029,2.30797 43.3497,2.10728l-3.0104 -2.40832c-18.4646,-0.149953 -35.4235,-2.05654 -49.0694,-7.82703z"/>
  <path fill="white" d="M314.422 279.656l2.10728 3.31143c17.0467,5.83399 32.3243,8.71852 46.9622,10.5364l-1.80624 -2.70936c-15.2904,-1.37934 -31.1706,-4.94192 -47.2632,-11.1385z"/>
  <path fill="white" d="M365.298 280.86c8.64,5.98819 17.7613,11.0143 27.6659,14.4731 9.01815,3.14901 17.4813,1.08595 29.2306,5.09443l-0.30104 1.80624 -55.9934 -18.6645 -0.602079 -2.70936z"/>
  <path fill="black" d="M49.8087 230.285c2.06107,-1.55452 3.76951,-3.15893 3.0104,-5.11767 -0.351213,-1.25688 -2.20762,-1.00545 -2.40832,-0.000566929 0.401386,1.60554 -0.100347,3.51269 -0.602079,5.11824z"/>
  <path fill="black" stroke="black" stroke-width="0.992126" d="M56.2762 232.767l2.2578 -8.44385c12.6125,2.41257 26.4648,-6.6617 41.4343,-9.39374 19.2464,-3.51298 35.5207,-0.953859 26.6023,16.179 8.52974,-0.552473 10.8374,-10.4037 2.85988,-16.8883 19.5177,3.17424 39.0354,0.39515 58.5539,-6.48369 -7.17506,8.89626 -15.5543,10.5551 -23.1806,14.9278 12.0665,1.38274 24.4094,-0.276095 36.8782,-3.31739 -3.80013,8.41975 -40.2018,10.7317 -42.7487,12.0631 11.0384,2.26176 20.8726,1.50803 32.3626,0.602929 -7.27541,3.7698 -19.518,4.37273 -28.2986,5.72996 9.23216,4.07084 21.4747,2.71417 32.2121,3.16658 -9.50145,4.97594 -43.2315,7.33777 -62.9187,4.82514 -2.81991,-0.803339 -7.35903,-3.93619 -13.2324,-6.19881 -5.51707,-2.1257 -8.82085,-0.929764 -17.7755,-5.41162 -9.03175,0.502583 -15.6549,-1.00545 -19.8692,-4.52381 -8.37922,1.05562 -19.7688,-2.26176 -25.1374,3.16658z"/>
  <path fill="white" d="M93.4555 221.76c3.24142,0 5.56951,2.68328 5.56951,5.80536 0,3.12208 -2.77965,5.20214 -6.02107,5.20214 -3.24142,0 -5.26819,-1.32605 -5.26819,-4.44813 0,-3.12208 2.47833,-6.55937 5.71975,-6.55937z"/>
  <path fill="black" d="M91.9503 227.64l0.15052 2.41257c2.35758,-0.150803 3.91266,-1.70873 4.6664,-4.67433 -1.45531,1.35695 -3.06085,1.80964 -4.81692,2.26176z"/>
  <path fill="black" d="M135.301 259.909l-8.12835 7.53959c3.93874,-1.53298 6.84851,-3.14079 8.12835,-7.53959z"/>
  <path fill="#CCCCCC" d="M86.5316 243.021c1.25376,-0.402803 2.55742,-0.70526 4.21455,-0.301606 2.81055,6.6858 0.652819,9.50004 -3.76299,10.5551l-0.752599 -2.56337c3.03647,-0.753449 2.484,-3.71906 0.30104,-7.69011z"/>
  <path fill="#BF9F4F" d="M82.0157 251.163c1.09077,-1.30507 -11.5098,-7.59572 -22.4411,-11.003 -3.42737,-1.06838 -2.9143,-6.20079 -4.65307,-6.63903 -2.30797,-1.60838 -4.21427,-1.80907 -5.72003,-0.603213 0.451843,2.36239 3.46224,4.57399 3.61276,7.99172 -2.92989,-0.191055 -4.12073,-7.2343 -6.47263,-9.19786 2.50441,5.95814 4.18082,12.3321 8.57991,17.3404 -1.68123,-6.787 1.88136,-3.62041 7.82731,4.07112l1.65572 -0.754016c-0.802772,-0.854646 -1.20416,-1.70844 -1.20416,-2.56337 2.75868,-0.906804 6.77311,0.702142 11.1387,3.01578 2.65918,-0.251717 7.1246,0.703559 7.67651,-1.65855z"/>
  <path fill="#666666" d="M85.6285 245.282c-3.66293,-9.14769 -24.3346,-2.61354 -29.0512,-10.2535 -2.18211,10.3042 8.15443,16.1841 17.6114,18.6976 -5.01733,-4.32255 -13.1958,-8.04189 -15.0525,-12.9677 7.77714,3.31739 15.5543,-0.452126 26.4923,4.52353z"/>
  <path fill="#4C4C4C" d="M189.038 262.321c3.86334,6.48369 5.46888,13.8722 7.52599,16.2848 1.32945,-3.05348 -0.677481,-9.21062 -4.96715,-17.4912 -1.02416,-0.0138898 -1.89043,0.394866 -2.55884,1.20643z"/>
  <path fill="#4C4C4C" d="M215.53 270.313l1.65572 -1.05534c4.44019,3.36756 8.55411,10.0018 12.1924,21.4115l-3.76299 0c-0.843591,-6.5554 -4.42517,-15.2099 -10.0851,-20.3562z"/>
  <path fill="#4C4C4C" d="M257.978 273.932l2.70936 0.301606c4.46315,6.44712 10.1835,11.5985 16.2564,16.4356 -1.15427,0.602929 -2.70964,0.803622 -4.66611,0.603213 -4.76674,-5.78013 -11.9415,-11.4095 -14.2997,-17.3404z"/>
  <path fill="#4C4C4C" d="M305.242 272.122l2.70936 0.301606c4.46315,6.44712 10.1835,13.1063 16.2564,17.9433 -1.15427,0.602929 -2.25808,0.20041 -4.21455,0 -5.36599,-3.68022 -10.37,-10.7385 -14.7512,-18.2449z"/>
  <path fill="#4C4C4C" d="M357.926 273.932l2.70936 0.301606c4.01159,7.05033 7.92567,15.2172 13.0955,20.0543 -1.15427,0.602929 -0.752882,-0.252 -2.70936,-0.45241 -7.0217,-3.98155 -8.71427,-12.397 -13.0955,-19.9035z"/>
  <path fill="#4C4C4C" d="M436.047 253.425c-3.07417,-3.49455 -4.80558,-11.0838 -13.2463,-14.6262 7.23742,0.992126 11.9787,7.14898 13.2463,14.6262z"/>
  <path fill="#4C4C4C" d="M428.973 230.807c-3.52573,-5.90712 -9.47169,-10.9332 -17.0093,-15.2294 7.23742,0.992126 15.7416,7.75219 17.0093,15.2294z"/>
  <path fill="#4C4C4C" d="M419.188 286.899c13.146,10.5803 44.2041,9.22281 51.6294,-17.3404 -8.8835,18.5692 -24.6818,26.5167 -51.6294,17.3404z"/>
  <path fill="#333333" d="M215.681 290.794c-3.4577,29.7026 -28.7603,56.5951 -53.8861,55.3913l-0.30104 -5.11767c-0.89093,4.61792 -6.01342,8.5303 -11.7405,12.3426l3.61247 0.903119 7.82703 -6.02079c20.8973,-0.213449 40.616,-16.2442 52.0798,-37.931 26.0901,10.4718 132.858,-16.4376 167.679,4.81663l4.21455 -0.903119c-32.6475,-23.5817 -122.734,2.69745 -171.291,-6.02079 4.21427,-6.62259 4.81692,-12.4433 1.80624,-17.4603z"/>
  <path fill="#4C4C4C" d="M154.872 280.559l1.80624 -0.602079c5.6194,3.21109 11.6402,7.22495 18.0624,12.0416l-2.40832 1.20416c-5.82066,-4.6664 -11.6405,-8.78089 -17.4603,-12.6437z"/>
  <path fill="#333333" d="M115.134 302.836l-1.80624 3.31143c1.22003,7.13424 -3.20145,10.7427 -8.42911,13.8478l7.52599 -3.61247c12.6763,2.30514 20.5302,-1.94485 30.1436,-3.59858 8.4824,-1.45899 15.3896,-1.73565 19.8289,-2.72325l5.71975 -6.32183c-6.58829,6.26202 -16.2451,4.82882 -27.6321,6.92788 -10.0471,1.85216 -18.7656,5.04766 -28.0602,4.21058 3.81317,-6.82356 5.31836,-10.8374 2.70936,-12.0416z"/>
  <path fill="#4C4C4C" d="M209.962 201.386c1.70589,-3.0104 6.22148,-6.82356 13.5468,-11.4395l-1.5052 3.61247c-4.51758,1.60186 -8.33018,4.61396 -12.0416,7.82703z"/>
  <path fill="#4C4C4C" d="M236.453 195.967c1.35184,-2.38224 1.84621,-4.33474 6.62287,-8.42911l3.0104 0.30104c-3.61247,2.30797 -6.82356,5.01733 -9.63326,8.12807z"/>
  <path fill="#4C4C4C" d="M262.042 198.977c4.66129,-5.53947 9.27071,-11.2827 14.7509,-13.5468l-0.602079 2.40832c-4.71657,3.01635 -9.43286,7.23062 -14.1489,11.1385z"/>
  <path fill="#4C4C4C" d="M411.959 210.417c3.81317,-0.428315 7.62633,-1.28438 11.4395,0l2.10728 3.61247c-4.51588,-2.10756 -9.03175,-3.11131 -13.5468,-3.61247z"/>
  <path fill="#4C4C4C" d="M421.593 233.296c5.92044,0.401386 12.2423,2.40832 18.9655,6.02079l-3.61247 3.0104c-1.50435,-3.46224 -7.42507,-6.37229 -15.353,-9.03119z"/>
  <path fill="#4C4C4C" d="M427.613 257.379l9.33223 0.30104 6.02079 2.40832c-3.91351,1.10381 -9.03119,0.200693 -15.353,-2.70936z"/>
  <path fill="#4C4C4C" d="M466.748 246.842c-4.51559,-6.92391 -10.2353,-12.6437 -15.6541,-16.8582 7.82703,3.0104 14.4499,9.33223 15.6541,16.8582z"/>
  <path fill="#333333" d="M473.07 236.607c17.9422,39.939 -14.3354,75.6607 -59.0037,52.983 3.61247,3.61134 7.22495,7.32303 10.8374,11.7405 -0.30104,-2.20762 -1.80624,-4.81663 -4.51559,-7.82703 35.2613,23.6968 79.8395,-21.3846 52.6819,-56.8965z"/>
  <path fill="#333333" d="M414.368 301.331c7.88174,8.73043 12.7823,17.8611 9.63326,27.3946 3.03052,-5.30391 3.14391,-14.828 -6.32183,-26.7925l-3.31143 -0.602079z"/>
  <path fill="#333333" d="M415.572 344.078c4.87191,-5.6194 5.95871,-15.2532 -1.80624,-28.8998 8.23011,8.98186 10.2373,24.2348 1.80624,28.8998z"/>
  <path fill="#333333" d="M381.855 341.67c-0.847559,5.51991 -2.67137,10.6364 -10.5364,15.353 4.26558,-2.13109 8.17994,-4.79027 10.8374,-9.33223 17.7129,14.6044 26.7435,7.88032 28.2977,-7.22495 -2.38337,14.8266 -29.5274,13.3716 -28.5988,1.20416z"/>
  <path fill="#BF9F4F" d="M40.1857 241.701c-4.05723,-1.38869 -6.04829,-4.40589 -8.81887,-6.82243 1.83912,4.89827 -2.94463,7.38822 3.71112,15.5979 3.97361,0.960945 9.17348,1.14293 15.6175,0.61937l2.12372 -0.339874 1.20416 -2.40832c-4.91358,-1.0114 -13.1386,-0.517607 -13.8376,-6.64668z"/>
  <path fill="#333333" d="M50.6954 251.096c9.66048,12.1473 26.9873,11.8403 37.2685,12.7729 7.36952,0.66841 15.442,6.77594 21.9986,7.7967 11.4874,1.78866 14.2991,-2.51036 35.8331,3.9977 0.848977,-0.216851 1.76343,-0.429166 2.75017,-0.635811 -23.3858,-9.78265 -34.3984,-4.23921 -39.2698,-5.76482 -6.04744,-1.89354 -12.4642,-5.56044 -20.3533,-7.48744 -8.92999,-2.18126 -23.8921,4.24914 -38.2272,-10.6792z"/>
  <path fill="white" d="M84.5363 305.114c-0.608882,2.4857 -0.405921,4.76958 0.608882,6.84992 6.34196,-5.52728 10.605,-10.6084 11.2643,-14.9176 -4.11109,-0.659622 -7.96876,8.32054 -11.8732,8.06769z"/>
  <path fill="black" d="M88.6462 292.023c-2.14413,5.84221 -5.01166,9.17859 -8.37213,10.9599 5.02299,-2.23257 7.8137,-5.88586 8.37213,-10.9599z"/>
  <path fill="black" d="M95.8006 299.177c-1.96639,4.70013 -4.78318,8.29021 -8.37213,10.9599 4.84526,-2.58747 7.58438,-6.34196 8.37213,-10.9599z"/>
  <path fill="white" stroke="white" stroke-width="0.992126" d="M100.976 301.004c0.608882,3.80523 -1.62369,8.42259 -6.6977,13.8521 -1.67414,0.10148 -2.53673,-0.608882 -2.58775,-2.13109 3.31143,-2.18268 6.38164,-6.29292 9.28545,-11.721z"/>
  <path fill="black" d="M91.9951 296.894c-2.37232,4.69984 -5.94992,6.76772 -9.13323,9.43767 5.02299,-2.23257 8.57481,-4.36366 9.13323,-9.43767z"/>
  <path fill="#BF9F4F" d="M274.203 323.228c-3.76129,8.14366 -5.62592,14.5369 -4.10995,17.8098 4.87106,-0.862867 8.11843,-3.14617 9.74212,-6.84992 -0.811843,3.04441 -1.0148,6.08882 -0.608882,9.13323 2.28274,-1.57295 3.95773,-3.34942 5.02328,-5.32772 0.557859,3.65329 3.34857,6.6977 8.37213,9.13323l0.608882 -7.15437c0.507402,3.45033 2.63849,5.88586 6.39326,7.30659 2.79043,-5.37846 4.74265,-12.4155 4.69219,-18.1999 -10.9551,-6.36662 -33.3389,-13.5573 -30.113,-5.851z"/>
  <path fill="black" d="M99.1494 301.309c-1.91565,4.92832 -4.52948,8.62016 -8.06769,11.1121 5.02299,-2.23257 7.50926,-6.03808 8.06769,-11.1121z"/>
  <path fill="white" d="M99.4539 320.488c4.46344,-5.36627 12.7225,-11.6325 9.58989,-17.0487 -2.73997,6.90066 -12.1776,12.7358 -9.58989,17.0487z"/>
  <path fill="black" d="M102.346 302.374c-1.96725,3.46961 -2.85619,6.07011 -4.56662,8.98101 3.70092,-3.60255 2.88907,-4.97197 4.56662,-8.98101z"/>
  <path fill="black" d="M115.894 306.332c-2.37232,4.69984 -4.73216,9.35547 -7.91547,12.0254 5.02299,-2.23257 7.35704,-6.95141 7.91547,-12.0254z"/>
  <path fill="black" d="M108.283 302.983c-2.37232,4.69984 -5.7977,9.50769 -8.98101,12.1776 4.61679,-2.23257 8.01638,-7.10363 8.98101,-12.1776z"/>
  <path fill="black" d="M110.414 304.201c-1.37055,3.75421 -2.38536,7.89846 -5.9366,10.351 4.8447,-2.63849 5.14942,-5.68205 5.9366,-10.351z"/>
  <path fill="white" d="M134.617 338.298l-0.304441 3.19663 -6.54548 4.26218c-1.94145,0.239811 -2.54948,-1.27984 -2.58775,-3.65329l9.43767 -3.80551z"/>
  <path fill="white" stroke="white" stroke-width="0.992126" d="M144.663 340.277c-2.63849,3.14589 -9.69137,5.98734 -11.5688,8.52435 8.11843,0.405921 11.9747,-2.43553 11.5688,-8.52435z"/>
  <polygon fill="white" points="153.34,345.3 145.424,350.476 147.251,351.694 153.188,347.888 "/>
  <path fill="black" d="M140.249 332.514c-4.5669,3.52743 -10.453,6.52082 -15.8309,8.82879 7.45852,-1.0148 13.2429,-4.1607 15.8309,-8.82879z"/>
  <path fill="black" d="M149.078 332.97c-3.04469,6.57185 -13.8019,12.153 -19.1798,14.461 7.45852,-1.0148 19.9406,-9.18397 19.1798,-14.461z"/>
  <path fill="black" d="M156.232 337.08c-0.757985,2.53049 -2.98999,5.91024 -5.84731,8.0966 -4.176,3.1955 -9.51563,4.88126 -12.1147,6.21213 6.84964,0.659622 19.4839,-7.96621 17.962,-14.3087z"/>
  <path fill="white" d="M366.905 354.89c2.68923,-3.77972 5.12362,-7.43273 7.00215,-10.8077 1.0148,-0.304441 2.02961,0 3.04441,0.913323 -2.9177,4.1607 -6.31758,7.35761 -10.0466,9.89434z"/>
  <path fill="black" d="M351.531 334.645l-8.51074 10.8111c3.70092,-2.75216 7.64334,-6.02873 8.51074,-10.8111z"/>
  <path fill="black" d="M355.489 334.036c-2.41115,7.49707 -6.16592,12.3936 -11.4165,14.6132 7.0526,-1.62369 10.8581,-6.49474 11.4165,-14.6132z"/>
  <path fill="black" d="M360.062 341.197l-4.11676 7.29978c2.38422,-1.82665 3.35509,-4.66129 4.11676,-7.29978z"/>
  <path fill="black" d="M363.709 343.017l-5.63216 8.82879c3.47613,-2.58747 5.80989,-5.42863 5.63216,-8.82879z"/>
  <path fill="black" d="M374.821 339.973c-1.91565,4.43991 -5.03632,8.39764 -8.98101,12.0254 5.02299,-1.3697 8.01667,-5.37818 8.98101,-12.0254z"/>
  <path fill="black" d="M376.952 344.083l-4.4144 8.67657c2.79071,-2.43525 3.95745,-5.47966 4.4144,-8.67657z"/>
  <path fill="#CCCCCC" d="M265.983 338.146c-1.59761,-6.74986 -1.99049,-12.9382 2.61043,-18.0765 -0.135213,-5.60523 2.74932,-9.19049 6.87118,-10.0726 12.3772,-2.64926 31.917,2.75301 41.2078,-3.20825l36.3807 0.608882c-1.67471,8.37241 -6.59651,14.9179 -14.7654,19.6365 0.0507402,-2.99367 0.710363,-5.6829 1.52221,-8.98101 -4.17345,11.0616 -9.83112,17.5056 -17.6576,17.2009 0,-2.43553 1.36998,-5.32772 2.28331,-8.21991 -4.5034,8.50593 -10.9729,12.0447 -21.1587,9.58989l-0.608882 -6.54548 -2.72296 -0.818079 -0.118488 -2.85194 -2.04576 2.20167 -1.96073 -2.03896 -1.75521 0.724536 -1.64041 -1.63474 -2.33887 0.439087 -1.20076 -1.20784 -2.37345 0.237827 -0.977386 -1.44907 -3.70999 0.120189 -7.92567 -2.24702c0.405921,7.30659 -2.63849,12.5328 -7.91547,16.592z"/>
  <path fill="white" d="M319.564 306.837l-2.89134 -0.0484725c-9.29084,5.96126 -28.8306,0.558992 -41.2078,3.20825 -4.12186,0.882142 -7.0064,4.4674 -6.87118,10.0726 -4.60092,5.13836 -4.20803,11.3267 -2.61043,18.0765 4.2874,-3.29811 7.10136,-7.3664 7.78791,-12.6953l-4.89572 -1.61348c8.06741,-21.8021 43.5345,-0.0691654 50.6886,-17.0002zm20.2462 11.2158c-0.811843,3.29811 -1.47147,5.98734 -1.52221,8.98101 1.02104,-0.589607 1.99134,-1.20841 2.9109,-1.85499l1.65572 -8.80045 -3.04441 1.67443zm-15.3743 8.98101c-0.913323,2.89219 -2.28331,5.78438 -2.28331,8.21991 4.0354,0.157039 7.49452,-1.47997 10.4703,-4.61906 -3.87128,-0.286583 -6.34677,-1.68973 -8.18703,-3.60085z"/>
  <path fill="#666666" d="M328.85 337.689c8.31005,-4.71969 13.155,-10.7581 12.9387,-18.7231 2.04265,12.1014 -0.21515,18.9513 -12.9387,18.7231z"/>
  <path fill="#666666" d="M328.394 328.252c-6.4817,12.2032 -15.133,13.3192 -25.2686,6.84992 -1.27729,3.85597 -1.81644,7.25556 -4.56662,11.5688 3.70403,-3.29811 3.75477,-5.98734 5.63216,-8.98101 10.5412,6.74844 18.9391,4.92151 24.2031,-9.43767z"/>
  <path fill="white" d="M279.531 325.664c-0.139181,3.70233 -1.99077,8.67487 -4.56662,14.0043 2.86725,-2.79043 5.35323,-6.34252 7.00215,-11.5688 -0.405921,-1.42073 -1.21776,-2.23257 -2.43553,-2.43553z"/>
  <path fill="white" d="M288.664 328.86l1.97887 0.152221 -5.78438 9.58989c0.304441,2.38451 1.42073,4.36337 3.34885,5.9366 0.913323,-5.37846 -0.456662,-11.3658 0.456662,-15.6787z"/>
  <path fill="white" stroke="white" stroke-width="0.992126" d="M295.971 332.362c-1.21776,2.94293 -0.913323,7.25585 -2.28331,9.74212 0.304441,1.26822 0.811843,2.1308 1.52221,2.58775 1.67471,-5.53096 1.92813,-9.64092 0.761103,-12.3299z"/>
  <path fill="black" d="M279.379 325.664c-1.87739,6.03837 -4.26161,10.5029 -7.76325,14.9176l3.34885 -1.21776c2.19515,-4.92832 3.84406,-9.58423 4.4144,-13.6998z"/>
  <path fill="black" d="M280.14 342.408c3.65358,-3.97049 6.34281,-9.62816 8.37213,-16.4398 0.0513071,6.01285 -1.92699,11.6444 -8.37213,16.4398z"/>
  <path fill="black" d="M291.708 343.93l1.52221 -8.67657c0.558425,3.24737 0.355748,6.24076 -1.52221,8.67657z"/>
  <path fill="#333333" d="M90.4491 40.6304l43.6507 0.602079c-5.6194,14.9516 -7.62633,28.2977 -6.02079,40.0383 13.4459,-0.902835 26.8926,-4.01358 40.3393,-8.12807l-0.903119 43.3497c-14.9352,-4.38208 -26.375,-8.19553 -41.8445,-6.62287 1.9338,14.1724 5.29654,27.4672 9.63326,40.0383l-11.1385 0.602079 -9.63326 19.5676 -10.8374 -17.4603 -13.5468 -1.20416c4.06403,-11.9163 7.17478,-26.2157 9.63326,-42.1455 -13.9479,0.301323 -27.7957,2.70936 -40.9414,7.82703l-0.903119 -42.4466 41.2424 7.22495c-1.63106,-13.3211 -4.69134,-27.1191 -8.73015,-41.2424z"/>
  <path fill="#999040" d="M88.3418 39.1252l43.6507 0.602079c-5.6194,14.9516 -7.62633,28.2977 -6.02079,40.0383 13.4459,-0.902835 26.8926,-4.01358 40.3393,-8.12807l0.30104 43.0487c-12.8444,-5.87027 -26.9935,-8.47956 -43.0487,-6.32183 1.32945,14.4746 4.28967,27.9712 9.63326,40.0383l-11.1385 0.602079 -9.63326 19.5676 -10.8374 -17.4603 -13.5468 -1.20416c4.06403,-11.9163 7.17478,-26.2157 9.63326,-42.1455 -14.8513,-0.602079 -28.4984,2.00693 -40.9414,7.82703l-0.903119 -42.4466 41.2424 7.22495c-1.63106,-13.3211 -4.69134,-27.1191 -8.73015,-41.2424z"/>
  <path fill="#BF9F4F" d="M85.3314 37.62l43.6507 0.602079c-5.6194,14.9516 -7.62633,28.2977 -6.02079,40.0383 13.4459,-0.902835 26.8926,-4.01358 40.3393,-8.12807l0.30104 43.0487c-12.8444,-5.87027 -26.9935,-8.47956 -43.0487,-6.32183 1.32945,14.4746 4.28967,27.9712 9.63326,40.0383l-11.1385 0.602079 -9.63326 19.5676 -10.8374 -17.4603 -13.5468 -1.20416c4.06403,-11.9163 13.1956,-25.6136 15.6541,-41.5435 -14.8513,-0.602079 -34.5192,1.40485 -46.9622,7.22495l-0.903119 -42.4466 41.2424 7.22495c-1.63106,-13.3211 -4.69134,-27.1191 -8.73015,-41.2424z"/>
  <path fill="white" d="M127.044 43.7536c0.589323,-1.81871 1.23562,-3.66265 1.93805,-5.53153l-43.6507 -0.602079c4.03881,14.1233 7.09909,27.9213 8.73015,41.2424l-41.2424 -7.22495 0.903119 42.4466c2.72183,-1.27304 5.5012,-2.39273 8.33868,-3.35849l-1.41477 -33.3683c14.2827,3.66605 28.834,8.05352 40.6403,5.11767 -0.702426,-13.8478 -4.41525,-26.4915 -6.62287,-39.7372l32.3805 1.01594zm36.2985 32.4012l-0.0419528 -6.02249c-12.3959,3.79304 -24.7924,6.73257 -37.188,7.87635l1.66536 4.76731c11.4279,-0.501449 23.3328,-2.90948 35.5646,-6.62117zm-51.7882 86.5653l-2.13988 4.34693 -9.77698 -15.7519 6.46555 -1.10636 5.45131 12.5113zm-17.5998 -52.0265c-2.34142,14.1534 -5.24155,26.9102 -8.92432,37.709l8.68819 0.772158c3.82706,-12.901 6.65065,-26.3041 7.2669,-40.8104l-5.41871 1.80624"/>
  <path fill="#333333" d="M378.449 40.6304l43.6507 0.602079c-5.6194,14.9516 -7.62633,28.2977 -6.02079,40.0383 13.4459,-0.902835 26.8926,-4.01358 40.3393,-8.12807l-0.903119 43.3497c-14.9352,-4.38208 -26.375,-8.19553 -41.8445,-6.62287 1.9338,14.1724 5.29654,27.4672 9.63326,40.0383l-11.1385 0.602079 -9.63326 19.5676 -10.8374 -17.4603 -13.5468 -1.20416c4.06403,-11.9163 7.17478,-26.2157 9.63326,-42.1455 -13.9479,0.301323 -27.7957,2.70936 -40.9414,7.82703l-0.903119 -42.4466 41.2424 7.22495c-1.63106,-13.3211 -4.69134,-27.1191 -8.73015,-41.2424z"/>
  <path fill="#999040" d="M376.342 39.1252l43.6507 0.602079c-5.6194,14.9516 -7.62633,28.2977 -6.02079,40.0383 13.4459,-0.902835 26.8926,-4.01358 40.3393,-8.12807l0.30104 43.0487c-12.8444,-5.87027 -26.9935,-8.47956 -43.0487,-6.32183 1.32945,14.4746 4.28967,27.9712 9.63326,40.0383l-11.1385 0.602079 -9.63326 19.5676 -10.8374 -17.4603 -13.5468 -1.20416c4.06403,-11.9163 7.17478,-26.2157 9.63326,-42.1455 -14.8513,-0.602079 -28.4984,2.00693 -40.9414,7.82703l-0.903119 -42.4466 41.2424 7.22495c-1.63106,-13.3211 -4.69134,-27.1191 -8.73015,-41.2424z"/>
  <path fill="#BF9F4F" d="M373.332 37.62l43.6507 0.602079c-5.6194,14.9516 -7.62633,28.2977 -6.02079,40.0383 13.4459,-0.902835 26.8926,-4.01358 40.3393,-8.12807l0.30104 43.0487c-12.8444,-5.87027 -26.9935,-8.47956 -43.0487,-6.32183 1.32945,14.4746 4.28967,27.9712 9.63326,40.0383l-11.1385 0.602079 -9.63326 19.5676 -10.8374 -17.4603 -13.5468 -1.20416c4.06403,-11.9163 13.1956,-25.6136 15.6541,-41.5435 -14.8513,-0.602079 -34.5192,1.40485 -46.9622,7.22495l-0.903119 -42.4466 41.2424 7.22495c-1.63106,-13.3211 -4.69134,-27.1191 -8.73015,-41.2424z"/>
  <path fill="white" d="M415.044 43.7536c0.589323,-1.81871 1.23562,-3.66265 1.93805,-5.53153l-43.6507 -0.602079c4.03881,14.1233 7.09909,27.9213 8.73015,41.2424l-41.2424 -7.22495 0.903119 42.4466c2.72183,-1.27304 5.5012,-2.39273 8.33868,-3.35849l-1.41477 -33.3683c14.2827,3.66605 28.834,8.05352 40.6403,5.11767 -0.702426,-13.8478 -4.41525,-26.4915 -6.62287,-39.7372l32.3805 1.01594zm36.2985 32.4012l-0.0419528 -6.02249c-12.3959,3.79304 -24.7924,6.73257 -37.188,7.87635l1.66536 4.76731c11.4279,-0.501449 23.3328,-2.90948 35.5646,-6.62117zm-51.7882 86.5653l-2.13988 4.34693 -9.77698 -15.7519 6.46555 -1.10636 5.45131 12.5113zm-17.5998 -52.0265c-2.34142,14.1534 -5.24155,26.9102 -8.92432,37.709l8.68819 0.772158c3.82706,-12.901 6.65065,-26.3041 7.2669,-40.8104l-5.41871 1.80624"/>
  <path fill="#333333" d="M236.751 368.499l46.3204 0.655654c-5.96296,16.2848 -8.09263,30.8211 -6.38901,43.6085 14.2682,-0.983339 28.5375,-4.37159 42.8066,-8.85289l-0.958394 47.215c-15.8485,-4.77298 -27.9882,-8.9263 -44.4036,-7.21333 2.052,15.4361 5.62025,29.9163 10.2223,43.6082l-11.8196 0.655654 -10.2226 21.3123 -11.5002 -19.0171 -14.3753 -1.31159c4.31263,-12.9787 7.61358,-28.5531 10.2226,-45.9034 -14.8011,0.328252 -29.4959,2.95087 -43.4455,8.52492l-0.958394 -46.2314 43.765 7.86926c-1.73084,-14.5089 -4.97821,-29.537 -9.26419,-44.9198z"/>
  <path fill="#999040" d="M234.514 366.859l46.3207 0.655937c-5.96325,16.2848 -8.09292,30.8208 -6.38901,43.6082 14.2682,-0.983339 28.5372,-4.37131 42.8063,-8.85289l0.319465 46.8873c-13.6298,-6.39383 -28.6444,-9.23585 -45.6815,-6.88564 1.4108,15.7652 4.55216,30.4654 10.2223,43.6082l-11.8196 0.655937 -10.2223 21.3123 -11.5004 -19.0171 -14.3751 -1.31159c4.31235,-12.9787 7.61358,-28.5531 10.2223,-45.9034 -15.7595,-0.655937 -30.2414,2.1858 -43.4455,8.52492l-0.958111 -46.2314 43.7647 7.86926c-1.73084,-14.5091 -4.97821,-29.5373 -9.26419,-44.9201z"/>
  <path fill="#BF9F4F" d="M231.32 365.22l46.3204 0.655654c-5.96296,16.285 -8.09263,30.8211 -6.38901,43.6085 14.2682,-0.983339 28.5375,-4.37159 42.8066,-8.85289l0.319465 46.887c-13.6301,-6.39355 -28.6444,-9.23556 -45.6818,-6.88536 1.4108,15.7652 4.55216,30.4651 10.2226,43.6082l-11.8196 0.655654 -10.2226 21.3123 -11.5002 -19.0171 -14.3753 -1.31159c4.31263,-12.9787 14.0026,-27.8975 16.6116,-45.2475 -15.7598,-0.655937 -36.6304,1.53014 -49.8345,7.86898l-0.958394 -46.2314 43.765 7.86926c-1.73084,-14.5089 -4.97849,-29.537 -9.26419,-44.9198z"/>
  <path fill="white" d="M275.584 371.901c0.625323,-1.98085 1.31131,-3.9892 2.05654,-6.02476l-46.3204 -0.655654c4.2857,15.3828 7.53336,30.4109 9.26419,44.9198l-43.765 -7.86926 0.958394 46.2314c2.88822,-1.38643 5.83767,-2.60589 8.84863,-3.65783l-1.50123 -36.3436c15.156,3.99288 30.5975,8.77153 43.1258,5.57377 -0.745229,-15.0826 -4.6851,-28.8536 -7.02794,-43.2802l34.361 1.10636zm38.5186 35.2902l-0.044504 -6.55937c-13.1542,4.13121 -26.3086,7.33295 -39.4625,8.57878l1.76712 5.19222c12.1269,-0.546236 24.7601,-3.16885 37.7399,-7.21163zm-54.9556 94.284l-2.27084 4.73443 -10.3748 -17.1561 6.86098 -1.20501 5.78466 13.6267zm-18.6761 -56.6654c-2.48485,15.4154 -5.56214,29.3097 -9.47027,41.0712l9.21969 0.84104c4.06092,-14.0513 7.05742,-28.6495 7.71137,-44.4493l-5.75037 1.96725"/>
 </g>
</svg>
