<?xml version="1.0" encoding="UTF-8" standalone="no"?>
<!-- Created with Inkscape (http://www.inkscape.org/) -->
<svg
   xmlns:ns="http://creativecommons.org/ns#"
   xmlns:dc="http://purl.org/dc/elements/1.1/"
   xmlns:cc="http://web.resource.org/cc/"
   xmlns:rdf="http://www.w3.org/1999/02/22-rdf-syntax-ns#"
   xmlns:svg="http://www.w3.org/2000/svg"
   xmlns="http://www.w3.org/2000/svg"
   xmlns:sodipodi="http://sodipodi.sourceforge.net/DTD/sodipodi-0.dtd"
   xmlns:inkscape="http://www.inkscape.org/namespaces/inkscape"
   version="1.0"
   width="500"
   height="535"
   id="svg2"
   sodipodi:version="0.32"
   inkscape:version="0.45.1"
   sodipodi:docname="Lumijoki.vaakuna.svg"
   inkscape:output_extension="org.inkscape.output.svg.inkscape"
   sodipodi:docbase="C:\Documents and Settings\kao\Desktop">
  <metadata
     id="metadata10">
    <rdf:RDF>
      <ns:Work
         rdf:about="">
        <dc:format>image/svg+xml</dc:format>
        <dc:type
           rdf:resource="http://purl.org/dc/dcmitype/StillImage" />
      </ns:Work>
      <cc:Work
         rdf:about="">
        <dc:format>image/svg+xml</dc:format>
        <dc:type
           rdf:resource="http://purl.org/dc/dcmitype/StillImage" />
      </cc:Work>
    </rdf:RDF>
  </metadata>
  <defs
     id="defs8">
    <inkscape:perspective
       sodipodi:type="inkscape:persp3d"
       inkscape:vp_x="0 : 267.5 : 1"
       inkscape:vp_y="0 : 1000 : 0"
       inkscape:vp_z="500 : 267.5 : 1"
       inkscape:persp3d-origin="250 : 178.33333 : 1"
       id="perspective12" />
  </defs>
  <sodipodi:namedview
     inkscape:window-height="669"
     inkscape:window-width="748"
     inkscape:pageshadow="2"
     inkscape:pageopacity="0.0"
     guidetolerance="10.0"
     gridtolerance="10.0"
     objecttolerance="10.0"
     borderopacity="1.0"
     bordercolor="#666666"
     pagecolor="#ffffff"
     id="base"
     showgrid="false"
     inkscape:zoom="0.4317757"
     inkscape:cx="250"
     inkscape:cy="267.5"
     inkscape:window-x="138"
     inkscape:window-y="63"
     inkscape:current-layer="svg2" />
  <path
     id="path1937"
     style="fill:#0057f0;fill-opacity:1;fill-rule:evenodd;stroke:none;stroke-width:1px;stroke-linecap:butt;stroke-linejoin:miter;stroke-opacity:1"
     d="M 0,0 L 500,0 L 500,310 C 500,420 375,535 250,535 C 125,535 6.4291834e-015,415 0,310 L 0,0 z " />
  <path
     id="path1939"
     style="fill:#cccccc;fill-opacity:1;fill-rule:evenodd;stroke:none;stroke-width:1.07992005px;stroke-linecap:butt;stroke-linejoin:miter;stroke-opacity:1"
     d="M 16.25,316.125 C 9.7069621,316.125 4.6142948,317.37637 0.34375,319.3125 C 2.1751038,345.99629 11.701191,373.39352 26.96875,399.3125 C 46.055263,404.47773 49.60091,422.87501 74.75,422.875 C 103.99939,422.875 104.0006,397.96874 133.25,397.96875 C 162.49938,397.96875 162.5006,422.87501 191.75,422.875 C 220.99939,422.875 221.00062,397.96874 250.25,397.96875 C 279.49939,397.96875 279.50062,422.87501 308.75,422.875 C 337.9994,422.875 338.00059,397.96874 367.25,397.96875 C 396.49939,397.96875 396.5006,422.87501 425.75,422.875 C 451.28891,422.875 454.52494,403.88269 474.40625,399.0625 C 488.96363,373.51345 498.00842,346.26286 499.6875,319.125 C 495.50811,317.30036 490.57102,316.125 484.25,316.125 C 455.00062,316.125 454.99939,341.06251 425.75,341.0625 C 396.50061,341.0625 396.49938,316.12499 367.25,316.125 C 338.0006,316.125 337.9994,341.06251 308.75,341.0625 C 279.50062,341.0625 279.4994,316.12499 250.25,316.125 C 221.00061,316.125 220.99939,341.06251 191.75,341.0625 C 162.5006,341.0625 162.49938,316.12499 133.25,316.125 C 104.0006,316.125 103.99938,341.06251 74.75,341.0625 C 45.500608,341.0625 45.499391,316.12499 16.25,316.125 z " />
  <path
     id="path2905"
     style="fill:#cccccc;fill-opacity:1;fill-rule:evenodd;stroke:none;stroke-width:0.80759001px;stroke-linecap:butt;stroke-linejoin:miter;stroke-opacity:1"
     d="M 250,51.40625 C 245.96205,51.40625 241.9375,54.411825 241.9375,60.46875 L 241.9375,81 L 225.625,64.6875 C 223.48355,62.546054 221.1727,61.65625 219.03125,61.65625 C 212.60691,61.65625 207.79441,69.66941 214.21875,76.09375 L 241.9375,103.8125 L 241.9375,122.03125 L 225.5,131.53125 L 209.90625,122.53125 L 199.75,84.46875 C 196.6147,72.767665 181.02095,76.923925 184.15625,88.625 L 190.15625,111.125 L 172.28125,100.78125 C 167.0358,97.752788 162.39398,99.721784 160.375,103.21875 C 158.35603,106.71572 158.9733,111.72154 164.21875,114.75 L 182,125 L 159.71875,130.96875 C 156.79349,131.75258 154.85197,133.33294 153.78125,135.1875 C 150.56907,140.75114 155.09919,148.91397 163.875,146.5625 L 201.75,136.40625 L 217.4375,145.46875 L 217.4375,164.53125 L 201.9375,173.5 L 163.875,163.28125 C 152.17392,160.14595 148.01767,175.73971 159.71875,178.875 L 182.1875,184.90625 L 164.28125,195.25 C 159.03579,198.27846 158.44977,203.25304 160.46875,206.75 C 162.48772,210.24698 167.0983,212.21597 172.34375,209.1875 L 190.125,198.9375 L 184.15625,221.21875 C 183.37241,224.14403 183.77303,226.58295 184.84375,228.4375 C 188.05592,234.00114 197.39853,234.18206 199.75,225.40625 L 209.875,187.53125 L 225.53125,178.5 L 242.09375,188.0625 L 242.09375,205.90625 L 214.21875,233.75 C 205.65296,242.31578 217.05922,253.72203 225.625,245.15625 L 242.09375,228.71875 L 242.09375,249.375 C 242.09375,255.43192 246.1183,258.4375 250.15625,258.4375 C 254.1942,258.43751 258.21875,255.43192 258.21875,249.375 L 258.21875,228.84375 L 274.53125,245.15625 C 276.6727,247.29769 278.98355,248.1875 281.125,248.1875 C 287.54934,248.1875 292.36184,240.17434 285.9375,233.75 L 258.21875,206.03125 L 258.21875,187.875 L 274.6875,178.375 L 290.25,187.34375 L 300.40625,225.40625 C 303.54154,237.10734 319.13529,232.91982 316,221.21875 L 310,198.75 L 327.875,209.0625 C 333.12046,212.09096 337.76228,210.12196 339.78125,206.625 C 341.80023,203.12803 341.18295,198.12221 335.9375,195.09375 L 318.15625,184.84375 L 340.4375,178.875 C 343.36276,178.09117 345.30427,176.5108 346.375,174.65625 C 349.58718,169.09262 345.05707,160.92978 336.28125,163.28125 L 298.40625,173.4375 L 282.5625,164.28125 L 282.5625,145.375 L 298.21875,136.34375 L 336.28125,146.5625 C 347.98235,149.6978 352.13858,134.10404 340.4375,130.96875 L 317.96875,124.9375 L 335.875,114.625 C 341.12044,111.59654 341.70647,106.59072 339.6875,103.09375 C 337.66851,99.596786 333.05795,97.62779 327.8125,100.65625 L 310.03125,110.90625 L 316,88.625 C 316.78383,85.699729 316.38322,83.260801 315.3125,81.40625 C 312.10032,75.842606 302.75772,75.692939 300.40625,84.46875 L 290.28125,122.3125 L 274.40625,131.46875 L 258.0625,122.03125 L 258.0625,103.9375 L 285.9375,76.09375 C 294.50329,67.527964 283.09703,56.121715 274.53125,64.6875 L 258.0625,81.125 L 258.0625,60.46875 C 258.0625,54.411825 254.03795,51.40625 250,51.40625 z " />
</svg>
