<?xml version="1.0" encoding="UTF-8" standalone="no"?>
<!-- Created with Inkscape (http://www.inkscape.org/) -->
<svg
   xmlns:dc="http://purl.org/dc/elements/1.1/"
   xmlns:cc="http://web.resource.org/cc/"
   xmlns:rdf="http://www.w3.org/1999/02/22-rdf-syntax-ns#"
   xmlns:svg="http://www.w3.org/2000/svg"
   xmlns="http://www.w3.org/2000/svg"
   xmlns:sodipodi="http://sodipodi.sourceforge.net/DTD/sodipodi-0.dtd"
   xmlns:inkscape="http://www.inkscape.org/namespaces/inkscape"
   width="500"
   height="600"
   id="svg1901"
   sodipodi:version="0.32"
   inkscape:version="0.45.1"
   sodipodi:docname="Lumparland.vaakuna.svg"
   sodipodi:docbase="/"
   version="1.0"
   inkscape:output_extension="org.inkscape.output.svg.inkscape">
  <defs
     id="defs1903" />
  <sodipodi:namedview
     id="base"
     pagecolor="#ffffff"
     bordercolor="#666666"
     borderopacity="1.0"
     inkscape:pageopacity="0.0"
     inkscape:pageshadow="2"
     inkscape:zoom="1"
     inkscape:cx="355.51393"
     inkscape:cy="337.56076"
     inkscape:document-units="px"
     inkscape:current-layer="layer1"
     gridtolerance="10000"
     inkscape:window-width="1272"
     inkscape:window-height="970"
     inkscape:window-x="0"
     inkscape:window-y="27"
     width="500px"
     height="600px" />
  <metadata
     id="metadata1906">
    <rdf:RDF>
      <cc:Work
         rdf:about="">
        <dc:format>image/svg+xml</dc:format>
        <dc:type
           rdf:resource="http://purl.org/dc/dcmitype/StillImage" />
        <dc:title>Lumparlandin vaakuna, Lumparlands vapen, Coat of arms of Lumparland</dc:title>
        <dc:date>2007-07-30</dc:date>
        <dc:creator>
          <cc:Agent>
            <dc:title>Hippophaë, Wikipedia</dc:title>
          </cc:Agent>
        </dc:creator>
        <dc:subject>
          <rdf:Bag>
            <rdf:li>Lumparland</rdf:li>
            <rdf:li>vaakuna</rdf:li>
            <rdf:li>vapen</rdf:li>
            <rdf:li>coat of arms</rdf:li>
          </rdf:Bag>
        </dc:subject>
        <cc:license
           rdf:resource="http://web.resource.org/cc/PublicDomain" />
        <dc:identifier>http://commons.wikimedia.org/wiki/Image:Lumparland.vaakuna.svg</dc:identifier>
      </cc:Work>
      <cc:License
         rdf:about="http://web.resource.org/cc/PublicDomain">
        <cc:permits
           rdf:resource="http://web.resource.org/cc/Reproduction" />
        <cc:permits
           rdf:resource="http://web.resource.org/cc/Distribution" />
        <cc:permits
           rdf:resource="http://web.resource.org/cc/DerivativeWorks" />
      </cc:License>
    </rdf:RDF>
  </metadata>
  <g
     inkscape:label="Taso 1"
     inkscape:groupmode="layer"
     id="layer1"
     style="opacity:1">
    <path
       style="fill:#0000bf;fill-rule:evenodd;stroke:#000000;stroke-width:1px;stroke-linecap:butt;stroke-linejoin:miter;stroke-opacity:1;fill-opacity:1"
       d="M 5,25 C 150,70 150,0.5 250,0.5 C 350,0.5 350,70 495,25 C 420,145 499.5,190 499.5,290 C 499.5,390 400,510 250,599.5 C 100,510 0.5,390 0.5,290 C 0.5,190 80,145 5,25 z "
       id="path2167"
       sodipodi:nodetypes="cscsccc" />
    <path
       sodipodi:nodetypes="cccccccc"
       id="path8074"
       d="M 414,193 L 414,366 C 427.64338,351.95431 442.66407,342.52605 460.5,340.25 C 455.56151,327.34058 460.77624,315.50131 471.5,304.75 C 466.13979,292.33164 467.4697,277.99482 474.75,262.25 C 467.61701,251.52483 466.22656,244.67839 471.75,231 C 463.89596,221.73332 464.94406,213.07135 468,203.625 C 445.37657,195.33845 432.80333,194.24334 414,193 z "
       style="fill:#ff0000;fill-rule:evenodd;stroke:#000000;stroke-width:1px;stroke-linecap:butt;stroke-linejoin:miter;stroke-opacity:1;fill-opacity:1" />
    <path
       sodipodi:nodetypes="cc"
       id="path8084"
       d="M 460.2,340.1 C 452.32723,330.63892 445.2021,322.35514 431.75,314.9"
       style="fill:none;fill-rule:evenodd;stroke:#000000;stroke-width:1px;stroke-linecap:butt;stroke-linejoin:miter;stroke-opacity:1" />
    <path
       style="fill:none;fill-rule:evenodd;stroke:#000000;stroke-width:1px;stroke-linecap:butt;stroke-linejoin:miter;stroke-opacity:1"
       d="M 471.3,304.9 C 460.71819,296.88331 449.34836,290.60027 437.1,286.25"
       id="path8086"
       sodipodi:nodetypes="cc" />
    <path
       sodipodi:nodetypes="cc"
       id="path8088"
       d="M 474.55,262.3 C 463.0777,259.4326 451.78905,258.21811 440.65,258.35"
       style="fill:none;fill-rule:evenodd;stroke:#000000;stroke-width:1px;stroke-linecap:butt;stroke-linejoin:miter;stroke-opacity:1" />
    <path
       style="fill:none;fill-rule:evenodd;stroke:#000000;stroke-width:1px;stroke-linecap:butt;stroke-linejoin:miter;stroke-opacity:1"
       d="M 471.5,231 C 460.4,228.93536 449.3,226.95433 438.2,227.175"
       id="path8090"
       sodipodi:nodetypes="cc" />
    <path
       style="fill:#ff0000;fill-rule:evenodd;stroke:#000000;stroke-width:1px;stroke-linecap:butt;stroke-linejoin:miter;stroke-opacity:1;fill-opacity:1"
       d="M 86,193 L 86,366 C 72.356623,351.95431 57.335931,342.52605 39.5,340.25 C 44.438488,327.34058 39.223755,315.50131 28.5,304.75 C 33.860214,292.33164 32.530298,277.99482 25.25,262.25 C 32.382987,251.52483 33.773441,244.67839 28.25,231 C 36.104044,221.73332 35.055936,213.07135 32,203.625 C 54.623433,195.33845 67.196668,194.24334 86,193 z "
       id="path5099"
       sodipodi:nodetypes="cccccccc" />
    <path
       style="fill:none;fill-rule:evenodd;stroke:#000000;stroke-width:1px;stroke-linecap:butt;stroke-linejoin:miter;stroke-opacity:1"
       d="M 39.8,340.1 C 47.672768,330.63892 54.797903,322.35514 68.25,314.9"
       id="path7047"
       sodipodi:nodetypes="cc" />
    <path
       sodipodi:nodetypes="cc"
       id="path7049"
       d="M 28.7,304.9 C 39.281807,296.88331 50.651638,290.60027 62.9,286.25"
       style="fill:none;fill-rule:evenodd;stroke:#000000;stroke-width:1px;stroke-linecap:butt;stroke-linejoin:miter;stroke-opacity:1" />
    <path
       style="fill:none;fill-rule:evenodd;stroke:#000000;stroke-width:1px;stroke-linecap:butt;stroke-linejoin:miter;stroke-opacity:1"
       d="M 25.45,262.3 C 36.922303,259.4326 48.21095,258.21811 59.35,258.35"
       id="path7051"
       sodipodi:nodetypes="cc" />
    <path
       sodipodi:nodetypes="cc"
       id="path7053"
       d="M 28.5,231 C 39.6,228.93536 50.7,226.95433 61.8,227.175"
       style="fill:none;fill-rule:evenodd;stroke:#000000;stroke-width:1px;stroke-linecap:butt;stroke-linejoin:miter;stroke-opacity:1" />
    <path
       style="fill:#ff0000;fill-rule:evenodd;stroke:#000000;stroke-width:1px;stroke-linecap:butt;stroke-linejoin:miter;stroke-opacity:1;fill-opacity:1"
       d="M 107,339.25 C 121.61829,346.38171 135.26715,360.198 135.25,370.25 C 135.20087,399.04877 107.25,364.75 107.25,364.75 L 107,339.25 z "
       id="path7041"
       sodipodi:nodetypes="cscc" />
    <path
       sodipodi:nodetypes="cscc"
       id="path7043"
       d="M 105.5,218 C 120.11829,225.13171 132.84015,237.20635 133.25,247.25 C 133.70087,258.04877 105.5,253.75 105.5,253.75 L 105.5,218 z "
       style="fill:#ff0000;fill-rule:evenodd;stroke:#000000;stroke-width:1px;stroke-linecap:butt;stroke-linejoin:miter;stroke-opacity:1;fill-opacity:1" />
    <path
       style="fill:#dfdfdf;fill-rule:evenodd;stroke:#000000;stroke-width:1px;stroke-linecap:butt;stroke-linejoin:miter;stroke-opacity:1;fill-opacity:1"
       d="M 117.54167,160.875 C 123.49081,160.92647 121.70208,180.26984 123.54167,180.83333 C 124.96805,181.27025 131.10792,173.25169 132.66667,175.625 C 134.71843,178.74896 118.43494,220.07782 118.50632,226.47022 C 118.77963,250.9455 108.32263,269.30976 108.05622,288.17025 C 107.40241,334.14954 117.69405,402.11103 138.33333,415.33333 C 138.33333,428.99999 135.26399,432.0096 115.91666,434.08333 C 104.61105,413.10459 53.521299,324.00938 53.333333,253.33333 C 53.166668,190.66667 110.73037,160.81845 117.54167,160.875 z "
       id="path3159"
       sodipodi:nodetypes="cssssccss" />
    <path
       style="fill:#ff0000;fill-rule:evenodd;stroke:#000000;stroke-width:1px;stroke-linecap:butt;stroke-linejoin:miter;stroke-opacity:1;fill-opacity:1"
       d="M 138,415.625 C 150.13614,414.73061 159.12514,415.66695 165.5,403.25 C 167.63951,427.33968 163.63934,430.38388 147.75,438 C 157.9077,458.10778 166.6679,472.29235 148.25,490.75 C 148.14737,455.68686 124.84906,461.06706 115.85,433.95 L 138,415.625 z "
       id="path6070"
       sodipodi:nodetypes="cccccc" />
    <path
       sodipodi:type="arc"
       style="opacity:1;fill:#000000;fill-opacity:1;stroke:#000000;stroke-width:2;stroke-linecap:square;stroke-linejoin:round;stroke-miterlimit:4;stroke-dasharray:none;stroke-opacity:1"
       id="path7045"
       sodipodi:cx="96.25"
       sodipodi:cy="198.25"
       sodipodi:rx="5.25"
       sodipodi:ry="5.25"
       d="M 101.5 198.25 A 5.25 5.25 0 1 1  91,198.25 A 5.25 5.25 0 1 1  101.5 198.25 z" />
    <path
       style="fill:none;fill-rule:evenodd;stroke:#000000;stroke-width:1px;stroke-linecap:round;stroke-linejoin:miter;stroke-opacity:1"
       d="M 63.25,211 C 66.35,221.43536 74.075,236.20433 87.675,241.55"
       id="path7057"
       sodipodi:nodetypes="cc" />
    <path
       sodipodi:nodetypes="cc"
       id="path8030"
       d="M 56.05,231 C 59.55,241.33536 69.875,252.00433 83.475,257.35"
       style="fill:none;fill-rule:evenodd;stroke:#000000;stroke-width:1px;stroke-linecap:round;stroke-linejoin:miter;stroke-opacity:1" />
    <path
       style="fill:none;fill-rule:evenodd;stroke:#000000;stroke-width:1px;stroke-linecap:round;stroke-linejoin:miter;stroke-opacity:1"
       d="M 53.55,250.4 C 60.85,263.83536 70.975,269.20433 85.075,274.55"
       id="path8032"
       sodipodi:nodetypes="cc" />
    <path
       sodipodi:nodetypes="cc"
       id="path8034"
       d="M 54.65,271.4 C 59.75,282.13536 71.875,288.90433 85.575,292.85"
       style="fill:none;fill-rule:evenodd;stroke:#000000;stroke-width:1px;stroke-linecap:round;stroke-linejoin:miter;stroke-opacity:1" />
    <path
       style="fill:none;fill-rule:evenodd;stroke:#000000;stroke-width:1px;stroke-linecap:round;stroke-linejoin:miter;stroke-opacity:1"
       d="M 59.15,297.2 C 66.35,308.63536 74.275,311.10433 84.175,311.75"
       id="path8036"
       sodipodi:nodetypes="cc" />
    <path
       sodipodi:nodetypes="cc"
       id="path8038"
       d="M 64.35,317.4 C 68.05,323.13536 75.575,325.50433 84.775,327.15"
       style="fill:none;fill-rule:evenodd;stroke:#000000;stroke-width:1px;stroke-linecap:round;stroke-linejoin:miter;stroke-opacity:1" />
    <path
       sodipodi:nodetypes="cc"
       id="path8040"
       d="M 93.75,232.3 C 104.65,234.13536 113.475,232.70433 118.375,225.85"
       style="fill:none;fill-rule:evenodd;stroke:#000000;stroke-width:1px;stroke-linecap:round;stroke-linejoin:miter;stroke-opacity:1" />
    <path
       style="fill:#bf9f4f;fill-rule:evenodd;stroke:#000000;stroke-width:1px;stroke-linecap:butt;stroke-linejoin:miter;stroke-opacity:1;fill-opacity:1"
       d="M 250,490 C 180,490 189,480 189,457 C 189,428 206.59229,408.59748 207.5,295.5 C 208.12016,218.22974 179.875,176.125 157,141 C 143.375,142.375 134.41203,132.40266 133,128 C 129.98493,118.59913 135.47135,111.61041 146.75,112.75 C 145.50573,102.47391 153.38853,97.492223 164,102.25 C 161.54594,90.421083 172.05742,86.347791 183.25,91.75 C 182.30173,79.572053 196.55799,76.408686 205.75,83.5 C 205.90911,72.835276 223.21613,68.290317 227.5,79 C 230.73556,68.1477 244.30514,67.326096 250,75 L 250,490 z "
       id="path8042"
       sodipodi:nodetypes="csscsccccccc" />
    <path
       style="fill:#bf9f4f;fill-rule:evenodd;stroke:#000000;stroke-width:1px;stroke-linecap:butt;stroke-linejoin:miter;stroke-opacity:1;fill-opacity:1"
       d="M 237.875,69.65 L 237.47049,65.125317 C 246.75393,63.827371 246.68086,48.692499 235.35,49.8 C 222.81917,51.024789 227.09612,66.492365 236.95791,65.139335 L 237.875,69.65 z "
       id="path8044"
       sodipodi:nodetypes="ccscc" />
    <path
       sodipodi:nodetypes="ccscc"
       id="path8046"
       d="M 212.34267,73.878968 L 211.03943,69.527193 C 219.8743,66.394794 216.76905,51.581722 205.89013,54.937932 C 193.85911,58.649574 201.14962,72.945961 210.54007,69.643669 L 212.34267,73.878968 z "
       style="fill:#bf9f4f;fill-rule:evenodd;stroke:#000000;stroke-width:0.99999994px;stroke-linecap:butt;stroke-linejoin:miter;stroke-opacity:1;fill-opacity:1" />
    <path
       style="fill:#bf9f4f;fill-rule:evenodd;stroke:#000000;stroke-width:1px;stroke-linecap:butt;stroke-linejoin:miter;stroke-opacity:1;fill-opacity:1"
       d="M 188.77359,80.726855 L 187.19303,76.467956 C 195.80804,72.773563 191.75606,58.190999 181.11565,62.240262 C 169.34839,66.718355 177.5437,80.516004 186.70219,76.616322 L 188.77359,80.726855 z "
       id="path8048"
       sodipodi:nodetypes="ccscc" />
    <path
       style="fill:#bf9f4f;fill-rule:evenodd;stroke:#000000;stroke-width:0.99999994px;stroke-linecap:butt;stroke-linejoin:miter;stroke-opacity:1;fill-opacity:1"
       d="M 212.34267,73.878968 L 211.03943,69.527193 C 219.8743,66.394794 216.76905,51.581722 205.89013,54.937932 C 193.85911,58.649574 201.14962,72.945961 210.54007,69.643669 L 212.34267,73.878968 z "
       id="path8050"
       sodipodi:nodetypes="ccscc" />
    <path
       sodipodi:nodetypes="ccscc"
       id="path8052"
       d="M 166.86212,91.142844 L 164.38099,87.337534 C 171.96879,81.833694 164.79974,68.504237 155.31472,74.801005 C 144.82521,81.76462 155.86237,93.414485 163.93497,87.590523 L 166.86212,91.142844 z "
       style="fill:#bf9f4f;fill-rule:evenodd;stroke:#000000;stroke-width:1px;stroke-linecap:butt;stroke-linejoin:miter;stroke-opacity:1;fill-opacity:1" />
    <path
       style="fill:#bf9f4f;fill-rule:evenodd;stroke:#000000;stroke-width:1px;stroke-linecap:butt;stroke-linejoin:miter;stroke-opacity:1;fill-opacity:1"
       d="M 148.05802,104.34113 L 144.66525,101.32029 C 150.54279,94.018137 140.12704,83.037156 132.62685,91.602324 C 124.33238,101.07457 138.03991,109.41975 144.30125,101.68146 L 148.05802,104.34113 z "
       id="path8054"
       sodipodi:nodetypes="ccscc" />
    <path
       sodipodi:nodetypes="ccscc"
       id="path8056"
       d="M 132.68085,118.6642 L 128.96607,116.04948 C 133.97358,108.12536 122.37481,98.402282 115.89907,107.76603 C 108.73755,118.12143 123.30644,124.8509 128.64558,116.44976 L 132.68085,118.6642 z "
       style="fill:#bf9f4f;fill-rule:evenodd;stroke:#000000;stroke-width:0.99999994px;stroke-linecap:butt;stroke-linejoin:miter;stroke-opacity:1;fill-opacity:1" />
    <path
       style="fill:none;fill-rule:evenodd;stroke:#000000;stroke-width:1px;stroke-linecap:butt;stroke-linejoin:miter;stroke-opacity:1"
       d="M 227.50834,78.633337 C 228.67489,90.059789 231.12586,92.913929 236.38678,96.655219 C 245.64646,187.3848 246.76026,382.39995 238.925,489.59167"
       id="path8058"
       sodipodi:nodetypes="ccc" />
    <path
       sodipodi:nodetypes="ccc"
       id="path8060"
       d="M 146.75834,112.93334 C 147.92489,124.35979 162.12586,127.66393 168.01178,129.15522 C 240.27146,224.8848 205.96026,377.39995 198.125,484.59167"
       style="fill:none;fill-rule:evenodd;stroke:#000000;stroke-width:1px;stroke-linecap:butt;stroke-linejoin:miter;stroke-opacity:1" />
    <path
       style="fill:none;fill-rule:evenodd;stroke:#000000;stroke-width:1px;stroke-linecap:butt;stroke-linejoin:miter;stroke-opacity:1"
       d="M 164.00834,102.23334 C 165.59989,113.50979 176.75086,116.91393 182.51178,119.28022 C 238.77146,209.5098 217.46026,380.29995 209.625,487.49167"
       id="path8062"
       sodipodi:nodetypes="ccc" />
    <path
       sodipodi:nodetypes="ccc"
       id="path8064"
       d="M 183.25834,91.908337 C 184.42489,103.33479 194.25086,109.91393 199.76178,110.90522 C 242.02146,201.6348 227.66026,381.69995 219.825,488.89167"
       style="fill:none;fill-rule:evenodd;stroke:#000000;stroke-width:1px;stroke-linecap:butt;stroke-linejoin:miter;stroke-opacity:1" />
    <path
       style="fill:none;fill-rule:evenodd;stroke:#000000;stroke-width:1px;stroke-linecap:butt;stroke-linejoin:miter;stroke-opacity:1"
       d="M 205.73334,83.358337 C 206.89989,94.784789 210.12586,95.788929 216.88678,99.90522 C 243.64646,183.1348 236.96026,382.04995 229.125,489.24167"
       id="path8066"
       sodipodi:nodetypes="ccc" />
    <path
       style="fill:#ff0000;fill-rule:evenodd;stroke:#000000;stroke-width:1px;stroke-linecap:butt;stroke-linejoin:miter;stroke-opacity:1;fill-opacity:1"
       d="M 394.5,218 C 379.88171,225.13171 367.15985,237.20635 366.75,247.25 C 366.29913,258.04877 394.5,253.75 394.5,253.75 L 394.5,218 z "
       id="path8080"
       sodipodi:nodetypes="cscc" />
    <path
       sodipodi:nodetypes="cscc"
       id="path8078"
       d="M 393,339.25 C 378.38171,346.38171 364.73285,360.198 364.75,370.25 C 364.79913,399.04877 392.75,364.75 392.75,364.75 L 393,339.25 z "
       style="fill:#ff0000;fill-rule:evenodd;stroke:#000000;stroke-width:1px;stroke-linecap:butt;stroke-linejoin:miter;stroke-opacity:1;fill-opacity:1" />
    <path
       sodipodi:nodetypes="cssssccss"
       id="path8072"
       d="M 382.45833,160.875 C 376.50919,160.92647 378.29792,180.26984 376.45833,180.83333 C 375.03195,181.27025 368.89208,173.25169 367.33333,175.625 C 365.28157,178.74896 381.56506,220.07782 381.49368,226.47022 C 381.22037,250.9455 391.67737,269.30976 391.94378,288.17025 C 392.59759,334.14954 382.30595,402.11103 361.66667,415.33333 C 361.66667,428.99999 364.73601,432.0096 384.08334,434.08333 C 395.38895,413.10459 446.4787,324.00938 446.66667,253.33333 C 446.83333,190.66667 389.26963,160.81845 382.45833,160.875 z "
       style="fill:#dfdfdf;fill-rule:evenodd;stroke:#000000;stroke-width:1px;stroke-linecap:butt;stroke-linejoin:miter;stroke-opacity:1;fill-opacity:1" />
    <path
       sodipodi:nodetypes="cccccc"
       id="path8076"
       d="M 362,415.625 C 349.86386,414.73061 340.87486,415.66695 334.5,403.25 C 332.36049,427.33968 336.36066,430.38388 352.25,438 C 342.0923,458.10778 333.3321,472.29235 351.75,490.75 C 351.85263,455.68686 375.15094,461.06706 384.15,433.95 L 362,415.625 z "
       style="fill:#ff0000;fill-rule:evenodd;stroke:#000000;stroke-width:1px;stroke-linecap:butt;stroke-linejoin:miter;stroke-opacity:1;fill-opacity:1" />
    <path
       d="M 101.5 198.25 A 5.25 5.25 0 1 1  91,198.25 A 5.25 5.25 0 1 1  101.5 198.25 z"
       sodipodi:ry="5.25"
       sodipodi:rx="5.25"
       sodipodi:cy="198.25"
       sodipodi:cx="96.25"
       id="path8082"
       style="opacity:1;fill:#000000;fill-opacity:1;stroke:#000000;stroke-width:2;stroke-linecap:square;stroke-linejoin:round;stroke-miterlimit:4;stroke-dasharray:none;stroke-opacity:1"
       sodipodi:type="arc"
       transform="matrix(-1,0,0,1,500,0)" />
    <path
       sodipodi:nodetypes="cc"
       id="path8092"
       d="M 436.75,211 C 433.65,221.43536 425.925,236.20433 412.325,241.55"
       style="fill:none;fill-rule:evenodd;stroke:#000000;stroke-width:1px;stroke-linecap:round;stroke-linejoin:miter;stroke-opacity:1" />
    <path
       style="fill:none;fill-rule:evenodd;stroke:#000000;stroke-width:1px;stroke-linecap:round;stroke-linejoin:miter;stroke-opacity:1"
       d="M 443.95,231 C 440.45,241.33536 430.125,252.00433 416.525,257.35"
       id="path8094"
       sodipodi:nodetypes="cc" />
    <path
       sodipodi:nodetypes="cc"
       id="path8096"
       d="M 446.45,250.4 C 439.15,263.83536 429.025,269.20433 414.925,274.55"
       style="fill:none;fill-rule:evenodd;stroke:#000000;stroke-width:1px;stroke-linecap:round;stroke-linejoin:miter;stroke-opacity:1" />
    <path
       style="fill:none;fill-rule:evenodd;stroke:#000000;stroke-width:1px;stroke-linecap:round;stroke-linejoin:miter;stroke-opacity:1"
       d="M 445.35,271.4 C 440.25,282.13536 428.125,288.90433 414.425,292.85"
       id="path8098"
       sodipodi:nodetypes="cc" />
    <path
       sodipodi:nodetypes="cc"
       id="path8100"
       d="M 440.85,297.2 C 433.65,308.63536 425.725,311.10433 415.825,311.75"
       style="fill:none;fill-rule:evenodd;stroke:#000000;stroke-width:1px;stroke-linecap:round;stroke-linejoin:miter;stroke-opacity:1" />
    <path
       style="fill:none;fill-rule:evenodd;stroke:#000000;stroke-width:1px;stroke-linecap:round;stroke-linejoin:miter;stroke-opacity:1"
       d="M 435.65,317.4 C 431.95,323.13536 424.425,325.50433 415.225,327.15"
       id="path8102"
       sodipodi:nodetypes="cc" />
    <path
       style="fill:none;fill-rule:evenodd;stroke:#000000;stroke-width:1px;stroke-linecap:round;stroke-linejoin:miter;stroke-opacity:1"
       d="M 406.25,232.3 C 395.35,234.13536 386.525,232.70433 381.625,225.85"
       id="path8104"
       sodipodi:nodetypes="cc" />
    <path
       sodipodi:nodetypes="csscsccccccc"
       id="path8106"
       d="M 250,490 C 320,490 311,480 311,457 C 311,428 293.40771,408.59748 292.5,295.5 C 291.87984,218.22974 320.125,176.125 343,141 C 356.625,142.375 365.58797,132.40266 367,128 C 370.01507,118.59913 364.52865,111.61041 353.25,112.75 C 354.49427,102.47391 346.61147,97.492223 336,102.25 C 338.45406,90.421083 327.94258,86.347791 316.75,91.75 C 317.69827,79.572053 303.44201,76.408686 294.25,83.5 C 294.09089,72.835276 276.78387,68.290317 272.5,79 C 269.26444,68.1477 255.69486,67.326096 250,75 L 250,490 z "
       style="fill:#bf9f4f;fill-rule:evenodd;stroke:#000000;stroke-width:1px;stroke-linecap:butt;stroke-linejoin:miter;stroke-opacity:1;fill-opacity:1" />
    <path
       sodipodi:nodetypes="ccscc"
       id="path8108"
       d="M 262.125,69.65 L 262.52951,65.125317 C 253.24607,63.827371 253.31914,48.692499 264.65,49.8 C 277.18083,51.024789 272.90388,66.492365 263.04209,65.139335 L 262.125,69.65 z "
       style="fill:#bf9f4f;fill-rule:evenodd;stroke:#000000;stroke-width:1px;stroke-linecap:butt;stroke-linejoin:miter;stroke-opacity:1;fill-opacity:1" />
    <path
       style="fill:#bf9f4f;fill-rule:evenodd;stroke:#000000;stroke-width:0.99999994px;stroke-linecap:butt;stroke-linejoin:miter;stroke-opacity:1;fill-opacity:1"
       d="M 287.65733,73.878968 L 288.96057,69.527193 C 280.1257,66.394794 283.23095,51.581722 294.10987,54.937932 C 306.14089,58.649574 298.85038,72.945961 289.45993,69.643669 L 287.65733,73.878968 z "
       id="path8110"
       sodipodi:nodetypes="ccscc" />
    <path
       sodipodi:nodetypes="ccscc"
       id="path8112"
       d="M 311.22641,80.726855 L 312.80697,76.467956 C 304.19196,72.773563 308.24394,58.190999 318.88435,62.240262 C 330.65161,66.718355 322.4563,80.516004 313.29781,76.616322 L 311.22641,80.726855 z "
       style="fill:#bf9f4f;fill-rule:evenodd;stroke:#000000;stroke-width:1px;stroke-linecap:butt;stroke-linejoin:miter;stroke-opacity:1;fill-opacity:1" />
    <path
       sodipodi:nodetypes="ccscc"
       id="path8114"
       d="M 287.65733,73.878968 L 288.96057,69.527193 C 280.1257,66.394794 283.23095,51.581722 294.10987,54.937932 C 306.14089,58.649574 298.85038,72.945961 289.45993,69.643669 L 287.65733,73.878968 z "
       style="fill:#bf9f4f;fill-rule:evenodd;stroke:#000000;stroke-width:0.99999994px;stroke-linecap:butt;stroke-linejoin:miter;stroke-opacity:1;fill-opacity:1" />
    <path
       style="fill:#bf9f4f;fill-rule:evenodd;stroke:#000000;stroke-width:1px;stroke-linecap:butt;stroke-linejoin:miter;stroke-opacity:1;fill-opacity:1"
       d="M 333.13788,91.142844 L 335.61901,87.337534 C 328.03121,81.833694 335.20026,68.504237 344.68528,74.801005 C 355.17479,81.76462 344.13763,93.414485 336.06503,87.590523 L 333.13788,91.142844 z "
       id="path8116"
       sodipodi:nodetypes="ccscc" />
    <path
       sodipodi:nodetypes="ccscc"
       id="path8118"
       d="M 351.94198,104.34113 L 355.33475,101.32029 C 349.45721,94.018137 359.87296,83.037156 367.37315,91.602324 C 375.66762,101.07457 361.96009,109.41975 355.69875,101.68146 L 351.94198,104.34113 z "
       style="fill:#bf9f4f;fill-rule:evenodd;stroke:#000000;stroke-width:1px;stroke-linecap:butt;stroke-linejoin:miter;stroke-opacity:1;fill-opacity:1" />
    <path
       style="fill:#bf9f4f;fill-rule:evenodd;stroke:#000000;stroke-width:0.99999994px;stroke-linecap:butt;stroke-linejoin:miter;stroke-opacity:1;fill-opacity:1"
       d="M 367.31915,118.6642 L 371.03393,116.04948 C 366.02642,108.12536 377.62519,98.402282 384.10093,107.76603 C 391.26245,118.12143 376.69356,124.8509 371.35442,116.44976 L 367.31915,118.6642 z "
       id="path8120"
       sodipodi:nodetypes="ccscc" />
    <path
       sodipodi:nodetypes="ccc"
       id="path8122"
       d="M 272.49166,78.633337 C 271.32511,90.059789 268.87414,92.913929 263.61322,96.655219 C 254.35354,187.3848 253.23974,382.39995 261.075,489.59167"
       style="fill:none;fill-rule:evenodd;stroke:#000000;stroke-width:1px;stroke-linecap:butt;stroke-linejoin:miter;stroke-opacity:1" />
    <path
       style="fill:none;fill-rule:evenodd;stroke:#000000;stroke-width:1px;stroke-linecap:butt;stroke-linejoin:miter;stroke-opacity:1"
       d="M 353.24166,112.93334 C 352.07511,124.35979 337.87414,127.66393 331.98822,129.15522 C 259.72854,224.8848 294.03974,377.39995 301.875,484.59167"
       id="path8124"
       sodipodi:nodetypes="ccc" />
    <path
       sodipodi:nodetypes="ccc"
       id="path8126"
       d="M 335.99166,102.23334 C 334.40011,113.50979 323.24914,116.91393 317.48822,119.28022 C 261.22854,209.5098 282.53974,380.29995 290.375,487.49167"
       style="fill:none;fill-rule:evenodd;stroke:#000000;stroke-width:1px;stroke-linecap:butt;stroke-linejoin:miter;stroke-opacity:1" />
    <path
       style="fill:none;fill-rule:evenodd;stroke:#000000;stroke-width:1px;stroke-linecap:butt;stroke-linejoin:miter;stroke-opacity:1"
       d="M 316.74166,91.908337 C 315.57511,103.33479 305.74914,109.91393 300.23822,110.90522 C 257.97854,201.6348 272.33974,381.69995 280.175,488.89167"
       id="path8128"
       sodipodi:nodetypes="ccc" />
    <path
       sodipodi:nodetypes="ccc"
       id="path8130"
       d="M 294.26666,83.358337 C 293.10011,94.784789 289.87414,95.788929 283.11322,99.90522 C 256.35354,183.1348 263.03974,382.04995 270.875,489.24167"
       style="fill:none;fill-rule:evenodd;stroke:#000000;stroke-width:1px;stroke-linecap:butt;stroke-linejoin:miter;stroke-opacity:1" />
    <path
       style="fill:#bf9f4f;fill-rule:evenodd;stroke:#000000;stroke-width:1px;stroke-linecap:butt;stroke-linejoin:miter;stroke-opacity:1;fill-opacity:1"
       d="M 205,266.5 C 204.9898,261.56171 211.69124,252.03882 219.93485,252.18339 C 226.15641,252.29074 227.97844,254.93894 231.2,259.4 C 236.3,253.66667 240.67295,252.12795 248.6,252 C 254.95378,251.89583 258.43406,255.78509 260.3,258.4 C 264.37134,255.20359 268.53956,251.81556 277.75,251.95 C 285.89445,252.07034 295.35625,262.81875 295.3,264.9 C 295.18009,269.33674 289.74972,274.43758 282.7,274.6 C 274.87137,274.78036 271.76409,272.50387 267,267.7 C 263.94479,271.04479 258.63986,275.01938 251.25,274.65 C 244.21341,274.29828 240.90056,270.87458 237.5,267.7 C 234.67575,269.44135 229.8238,274.87923 220.42208,274.74763 C 210.89625,274.61429 205.01082,271.83768 205,266.5 z "
       id="path10135"
       sodipodi:nodetypes="cscscssscscss" />
    <path
       style="fill:none;fill-rule:evenodd;stroke:#000000;stroke-width:1px;stroke-linecap:butt;stroke-linejoin:miter;stroke-opacity:1"
       d="M 231.05,259.2 C 232.9461,262.38851 235.13743,265.31131 237.7,267.9"
       id="path11106"
       sodipodi:nodetypes="cc" />
    <path
       sodipodi:nodetypes="cc"
       id="path11108"
       d="M 260.075,258.075 C 262.3211,260.98851 264.33743,265.21131 267.35,268.05"
       style="fill:none;fill-rule:evenodd;stroke:#000000;stroke-width:1px;stroke-linecap:butt;stroke-linejoin:miter;stroke-opacity:1" />
  </g>
</svg>
