<?xml version="1.0" encoding="UTF-8"?>
<!DOCTYPE svg PUBLIC "-//W3C//DTD SVG 1.1//EN" "http://www.w3.org/Graphics/SVG/1.1/DTD/svg11.dtd">
<!-- Creator: CorelDRAW -->
<svg xmlns="http://www.w3.org/2000/svg" xml:space="preserve" width="500px" height="539px" shape-rendering="geometricPrecision" text-rendering="geometricPrecision" image-rendering="optimizeQuality" fill-rule="evenodd" clip-rule="evenodd"
viewBox="0 0 500 539"
 xmlns:xlink="http://www.w3.org/1999/xlink"
 xmlns:svg="http://www.w3.org/2000/svg"
 version="1.0">
 <g id="Layer_x0020_1">
  <metadata id="CorelCorpID_0Corel-Layer"/>
  <path id="path1937" fill="#BF9F4F" stroke="black" stroke-width="1.41732" d="M1.12904 1.26l498.015 -0.040252 -29.2541 317.049c-13.8268,292.719 -423.743,293.866 -439.837,0.374457l-28.9242 -317.383z"/>
  <path fill="black" d="M267.7 135.305l-33.531 1.26652c-3.90501,24.6971 1.68888,57.9433 -11.7153,74.0914 -1.46438,6.59963 -36.5321,-6.9103 -70.7514,41.9069 -1.67726,2.39301 -7.45626,10.7289 -11.7111,13.0416 -5.47059,2.97326 -9.45723,-0.493512 -9.90114,-2.18183 -1.61065,-6.1217 2.36098,-5.20356 0.602646,-7.95119 -3.01011,-4.70268 -0.48841,-6.85588 1.52136,-9.66955 -3.06029,-0.947056 -6.5435,-1.37055 -10.4488,-0.63326 -9.4989,7.59912 -0.94989,11.0821 -3.79956,16.1481 -3.27147,1.7949 -10.1322,-2.21613 -12.9818,-10.1322 -6.7544,0.106016 -11.2927,1.79433 -12.9818,6.96586 4.58306,0.210331 8.80611,6.52933 11.7153,7.91575 16.6822,7.95033 1.6886,15.6206 24.0639,11.3987 6.87317,7.98095 14.6764,4.20407 21.9495,5.58397 1.82239,0.345543 6.43493,-3.64961 9.98221,-4.8875 7.80945,-2.72523 4.63266,-11.1719 6.69714,-12.7284 6.54378,-15.0925 39.0512,-36.8345 50.0276,-12.9818 1.58315,4.01074 0,36.5182 0,54.777 -2.74394,0.105732 -10.5542,-16.5702 -11.0821,-11.0821 -1.17468,9.87223 -2.57471,20.6445 -2.84967,26.9136 1.38501,4.35345 8.7327,6.53868 11.221,17.6015 5.18797,23.0644 -0.416126,76.517 -14.0706,87.8364 -7.96082,2.38479 -13.3509,3.39676 -19.1024,2.78731 -5.07515,-0.538016 -9.05982,-3.78 -15.5123,0.430583 -10.0341,6.54775 -20.8247,-7.84148 -35.6669,1.5565 -13.9915,8.85941 -34.2031,0.0890079 -36.7393,11.3737 -1.68803,5.06636 1.2668,7.8103 5.06608,5.38271 10.5389,-9.22479 24.0358,2.81339 30.8452,2.47635 7.1127,-0.352347 9.22876,-7.40041 21.0821,-5.95928 -12.3486,7.07159 -6.3326,15.7261 -23.7473,30.3965 -0.422079,2.42788 -0.422079,4.43282 0,6.01597 4.22221,0.106016 8.44385,-2.32186 12.6652,-7.28249 2.7754,4.57115 1.71638,10.7864 10.2739,16.5966 8.03878,5.45811 24.6198,8.58558 32.4712,15.6997 1.79462,-1.26652 2.74422,-2.53304 2.84967,-3.79956 -2.74394,-11.293 -21.6363,-13.4039 -23.4306,-18.6812 7.49367,-1.79405 9.92126,-4.8549 14.8816,-7.28249 -0.210614,-2.74394 -1.26624,-4.644 -3.1663,-5.69934 -16.3854,9.61739 -28.4837,-0.99326 -21.0742,-10.33 7.42961,-9.36227 18.8249,-0.435402 27.4068,-9.61767 1.42469,5.96325 7.55802,12.6573 9.65736,18.8396 4.02577,11.8551 -2.53304,10.9766 -1.10835,16.9396 8.16633,1.92614 11.4644,-11.6048 11.7533,-21.3148 0.139748,-4.69843 -6.25748,-12.7758 -1.67528,-18.6545 5.10463,-6.54917 19.6673,1.94882 31.4005,-8.47503l2.84967 14.8816c-6.64923,9.18227 -18.3645,4.11619 -22.1641,22.1641 4.13575,4.6372 7.77119,1.21947 11.7882,-2.73458 2.74876,-2.70539 5.17153,-5.83087 10.0593,-6.13106l1.58315 20.8976c-5.27698,5.48844 -16.5702,15.7261 -11.0821,24.0639 2.53304,-2.21641 3.72047,-5.4618 6.17443,-7.7573 2.45395,-2.2955 6.17414,-3.64139 8.70719,-5.8578 1.79405,5.55081 2.37884,10.6398 2.85988,17.1507 0.393449,5.32233 4.17345,10.6336 7.24054,14.1956 0.850678,-4.51191 6.87884,-8.8733 7.27229,-14.1956 0.48104,-6.5109 2.33235,-11.5999 4.1264,-17.1507 2.53304,2.21641 3.72019,4.8291 6.80741,6.17443 3.08013,1.34249 4.90791,4.59099 7.44095,6.80741 8.65446,-11.1875 -6.43833,-17.9422 -9.18227,-29.7632l0 -14.8816c7.02794,0.431433 11.4956,12.221 17.098,10.1322 -3.79956,-18.0479 -7.28249,-12.0319 -13.2985,-22.7974l-0.31663 -12.0319c12.3664,12.007 28.5131,1.92671 34.8835,9.10829 4.94533,5.57518 -4.34721,8.57452 -3.89169,14.5383 0.323433,4.23723 2.51291,6.21751 3.56343,10.9672 1.35099,6.10696 -0.0447874,13.8847 5.02356,14.1472 2.62177,-5.10208 4.78687,-7.3304 3.62325,-15.2147 -0.28715,-1.94513 -1.28126,-9.66019 6.35046,-11.857 5.29682,-1.52476 1.5806,-5.59361 3.64139,-11.5571 6.99874,1.58315 20.0288,1.10721 27.7234,10.2509 5.19194,6.16961 -1.83912,18.3643 -13.7917,9.38013 -11.399,-4.644 -14.0377,2.9554 -14.2484,5.69934 4.64372,0.211181 11.8208,3.58866 13.2985,8.54901 -0.953008,2.13052 -6.36633,5.09755 -13.1995,6.20476 -3.53395,0.572315 -10.9933,7.53931 -12.1309,13.4263 0.105449,1.26652 6.588,-2.52992 23.9222,-7.46731 13.4192,-3.82224 25.863,-15.825 28.6384,-20.3961 4.22136,4.96063 10.976,7.07188 15.1982,6.96586 0.422079,-1.58315 -6.22715,-10.2373 -6.64923,-12.6652 -10.7654,-8.33783 -1.58315,-8.75991 -14.8816,-23.4306 8.64511,-3.34092 10.993,1.17496 20.1322,1.52646 6.81194,0.261921 15.2402,-8.21821 25.7791,1.00658 3.79928,2.42759 8.02063,1.90006 6.3326,-3.1663 -10.1353,-17.6173 -24.7065,-4.3234 -38.6391,-13.2735 -16.1079,-10.3473 -17.6907,3.68249 -27.7512,-2.82303 -4.55188,-2.9435 -21.2032,-2.86781 -26.2777,-2.33036 -5.75093,0.608882 -13.9913,-2.3023 -19.1024,-8.17002 -13.6545,-11.3193 -10.709,-90.7526 -4.88835,-116.65 3.57874,-15.9219 11.1025,-26.8631 12.4875,-33.433 -0.274961,-2.15291 -5.15792,-2.47635 -8.23238,-4.11619 -2.42759,1.16107 -7.70485,12.1377 -9.4989,12.3486 -2.53304,-18.2588 -3.79956,-30.1853 4.43282,-38.3122 12.8761,-2.95512 26.3857,10.2379 39.8954,15.1982 15.3629,17.388 0.471969,19.1866 22.212,24.4437 6.08967,1.47232 6.84964,0.386362 10.1934,-2.12513 6.74192,-5.0641 18.0799,5.67695 21.7383,1.42866 12.1867,-1.81531 0.751748,-10.9973 27.5468,-23.7473 -1.68917,-5.17153 -5.91081,-6.54322 -12.6652,-6.64923 -4.32794,6.80797 -13.1941,13.0351 -14.565,12.6652 -7.96394,-6.41537 -2.7034,-8.96287 -0.94989,-16.7814 -3.90529,-0.737292 -8.3384,-0.313795 -11.3987,0.63326 -2.6881,5.08337 -2.75811,13.5576 0.857481,19.2039 -0.760536,-0.211465 -9.18057,1.35524 -15.6005,-0.351213 -3.57307,-11.8259 -35.4342,-43.3026 -45.8,-48.7775 -12.9475,-6.83887 -23.2934,-2.85562 -33.1795,-8.07081 -13.4042,-16.1481 -5.27726,-49.3943 -9.18227,-74.0914z"/>
  <path fill="black" d="M346.067 178.366c5.91024,-5.59389 9.81497,-10.9763 11.0821,-15.8315l11.3987 1.89978 1.58315 4.43282c4.74917,0.738992 7.38737,6.8607 14.2484,0.63326 3.69383,2.74422 12.7707,0.738992 12.6652,5.06608 -13.9317,16.7814 -38.9455,6.3326 -50.9774,3.79956z"/>
  <path fill="black" d="M151.845 180.266c-4.64372,-6.54378 -7.59856,-12.2428 -8.86564,-17.098l-14.8816 1.26652 3.79956 7.28249c-5.17153,-1.79405 -11.293,-0.422079 -17.7313,-4.11619 -3.69383,2.74422 -7.07131,6.43833 -6.96586,10.7654 13.9317,5.69934 32.6129,4.43282 44.6448,1.89978z"/>
  <path fill="black" d="M182.874 28.9168c3.17424,-2.33547 7.24933,-5.75603 14.0661,-7.63399l8.07364 10.0562 8.51074 -2.31279 -0.277228 -11.7853c5.49836,-1.7898 11.4191,-1.95988 17.574,-1.75153l0.190488 12.9169 9.86656 -0.502866 1.40287 -14.0981c5.65767,-0.35263 10.7671,-0.56041 16.4639,-0.605481l0.106583 15.2921 14.1287 -0.0541418 1.39153 -14.383c6.09194,-0.80504 12.0016,0.0867402 17.5553,1.42866l-0.284599 14.2552 5.37336 0.419528 9.69534 -11.8185c5.60041,0.0955276 11.0716,2.82019 14.8467,5.51112 -8.23267,14.3535 -19.8428,26.1743 -34.8293,35.4626 -12.6717,0.336189 -24.0772,-3.75988 -36.7492,-3.42369 -11.1807,0.296788 -23.6285,5.02668 -34.8092,5.32347 -16.4693,-8.02177 -23.8555,-19.8425 -32.2963,-32.2963z"/>
  <path fill="black" stroke="#BF9F4F" stroke-width="2.12599" d="M408.268 74.5115c-2.54069,-1.80765 -6.61522,-6.49446 -13.4328,-9.21714l-8.7069 11.3227 -6.29433 -3.57931 5.97657 -11.7853c-3.42227,-2.91572 -12.1819,-8.479 -17.574,-9.03402 -4.65477,3.77802 -7.56766,8.71739 -9.68939,14.1834l-5.43374 -2.40265 2.71332 -12.1983c-5.65767,-1.93578 -13.6168,-5.30986 -19.3136,-5.35493l-5.17266 11.8091 -5.89635 -1.32066 0.191622 -15.6495c-3.24227,-2.07156 -11.0517,-1.81304 -16.2887,-0.787748l-0.348662 14.2552 -6.00662 0.102898 -2.72948 -11.5019c-5.60041,0.0955276 -11.0716,2.50356 -14.8467,5.19449 11.1609,31.2577 12.1663,40.4306 45.4629,55.6949 31.4045,14.3966 53.5102,8.46085 59.4105,0.159591 4.7041,-1.3252 4.02548,-0.962079 8.72901,1.09049 3.5521,1.36233 6.52082,2.32384 9.58366,-3.82762 1.64806,-3.30945 3.13654,-6.36237 2.56054,-8.42514l-10.554 -6.3737 7.65978 -12.3548z"/>
  <path fill="black" stroke="#C4A177" stroke-width="1.98425" d="M239.235 76.7279c-6.22715,-4.32709 -12.5595,-9.18199 -19.3144,-13.2985 4.01103,-2.74365 9.18284,-4.5377 16.1481,-4.11619 4.32709,2.11096 8.65418,4.644 12.9818,7.59912 2.67165,-3.20032 6.20136,-5.95786 10.4488,-8.23238 8.54873,-0.422079 15.4091,-0.105449 20.581,2.84967 -8.28737,4.51134 -16.2011,9.2092 -22.7974,14.565l-18.0479 0.63326z"/>
  <path fill="black" stroke="#BF9F4F" stroke-width="2.12599" d="M95.4845 73.8783c2.11862,-3.07417 7.14331,-6.81109 14.3827,-8.26725l5.22397 9.42293 8.19411 -3.26268 -4.07679 -11.1521c4.23184,-2.10643 9.83594,-5.44281 15.0409,-6.18435l5.25657 11.967 9.86656 -3.03591 -3.66321 -12.1983c5.65767,-1.93578 11.717,-4.6766 17.4138,-4.72167l4.5394 10.8592 9.69591 -1.63729 -0.191622 -9.63355c3.24227,-2.07156 10.1018,-2.12967 15.3388,-1.10438l0.0320315 12.0387 4.42347 0.102898 3.67937 -10.552c5.60041,0.0955276 10.4383,0.28715 14.2135,2.97808 -4.51162,19.859 -11.8491,39.4804 -45.1463,54.745 -31.4048,14.3972 -47.8109,8.14422 -53.7112,-0.157039 -4.7041,-1.3252 -9.40819,-0.962079 -14.1117,1.09049 -3.5521,1.36233 -5.57037,0.424347 -8.63377,-5.7274 -1.64835,-3.31002 -3.45317,-7.62889 -2.87717,-9.69166l11.5038 -6.3737 -6.39326 -9.50514z"/>
  <path fill="black" stroke="#BF9F4F" stroke-width="2.12599" d="M177.955 89.6335c2.8046,-3.07446 9.08476,-5.60013 14.781,-6.47037l5.44451 11.749c4.73868,-0.843874 5.89663,-2.81906 10.5667,-3.23717l-3.70432 -12.3364c5.42098,-2.50044 12.2409,-4.85773 18.0791,-5.19818l3.51014 13.214 8.424 -0.16441 0.769607 -10.8003c5.65796,-1.65657 19.1356,-1.9097 24.8329,-0.519874l-0.316347 10.3037c4.10995,-0.370205 5.68715,-0.380977 9.23415,0.375874l0.454677 -9.8093c6.3034,-1.22797 18.0298,-0.433134 23.2668,1.85868l-0.742394 12.8027c4.11562,0.723685 9.74722,1.19509 12.9056,2.17502l2.85222 -8.49175c5.60041,0.0955276 13.5408,3.49484 17.316,6.18577l-3.68022 10.7226 14.1843 4.81493 5.28548 -10.1483 12.4736 7.59005c-0.463181,1.57776 -3.10677,7.18555 -3.93647,11.0446l11.2955 9.86967 -47.7706 25.7066c-46.2634,-23.3858 -49.9853,-12.674 -63.0973,-13.324 -19.7257,-0.97767 -24.3306,-8.24599 -59.1551,12.6921l-47.5546 -27.6582c3.2006,-2.95143 8.70407,-9.18851 10.6081,-9.99213 -1.84479,-3.52999 -3.68958,-7.05997 -5.53436,-10.5897 4.11761,-2.45509 8.36703,-4.77808 13.5388,-6.17811l5.76085 10.3011 12.8891 -6.65433 -2.98148 -9.83396z"/>
  <path fill="black" stroke="#BF9F4F" stroke-width="2.12599" d="M440.86 129.922c-2.11862,-3.07417 -12.8427,-7.76098 -20.0821,-9.21714l-4.90734 14.1724 -9.144 -1.67953 4.71005 -15.9015c-4.23184,-2.10643 -13.9521,-5.12618 -20.7403,-5.23446l-2.4069 13.5502 -13.0329 -0.502866 0.813544 -11.8817c-5.65767,-1.93578 -12.9835,-0.56041 -18.6803,-0.605481l0.210047 12.759 -13.1788 2.16227 -3.29131 -11.85c-5.45868,-1.12167 -10.7351,1.35326 -13.7557,3.64507l3.76753 11.7221 -11.0727 3.90246 -4.31263 -8.96882c-4.33389,0.0955276 -8.22189,1.23704 -11.6804,4.87786 1.26879,5.58511 2.5149,6.38249 3.63855,11.1175l-7.67878 3.85229 18.1519 31.417c23.6276,-17.8512 29.9174,-14.9119 44.7149,-12.2856 6.35273,1.12734 15.0177,2.22747 22.5125,5.18882 18.8005,7.42819 31.4963,5.10095 37.7827,-4.01641 3.75392,-3.70063 6.13644,-1.54318 13.7951,2.67364 3.5521,1.36233 5.2543,-0.20948 8.31714,-6.36066 1.64778,-3.30945 4.40306,-7.31226 3.82706,-9.37503l-14.0369 -7.95685 5.76 -15.2045z"/>
  <path fill="black" stroke="#BF9F4F" stroke-width="2.12599" d="M62.555 128.655c2.11862,-3.07417 12.2094,-5.54457 19.4488,-7.00073l4.27408 11.956 7.24422 -2.62942 -2.81027 -15.5849c4.23298,-2.29408 15.8505,-2.76775 21.0569,-2.70142l1.14038 12.9169 13.9827 -1.13613 -1.4468 -13.1482c5.65767,-1.93578 13.3002,-1.5103 18.997,-1.55537l0.423213 14.9754 10.3292 2.79553 2.97468 -12.1666c5.77531,-0.17178 9.7852,1.03663 14.7056,2.69518l-3.13427 12.0387 10.4394 4.21909 4.62926 -9.60208c4.65052,0.0955276 10.1217,1.8703 12.947,5.19449 -1.26879,5.58511 -2.19827,5.74923 -3.32192,10.4842l7.99541 4.48555 -13.7191 22.5513c-3.27487,5.38328 -19.7691,4.59525 -34.6062,-1.81332 -11.2544,-4.86142 -15.6232,-2.3641 -22.1406,-1.60668 -6.40829,0.744662 -15.6138,-0.0943937 -21.246,5.82208 -8.12013,8.52945 -20.7309,6.6841 -27.0173,-2.43326 -3.75392,-3.70063 -12.7857,-5.02611 -20.761,-2.07581 -3.5521,1.36233 -5.25373,-0.209197 -8.31714,-6.36066 -1.64806,-3.31002 -4.40306,-7.31226 -3.82706,-9.37503 4.88892,-3.92287 9.88356,-7.52769 15.62,-8.90674l-3.86022 -12.0382z"/>
  <path fill="black" d="M343.406 331.615l18.6766 -12.5328c-0.471969,-4.18791 -0.521575,-8.3761 -0.148819,-12.5634 3.74485,-3.87751 7.91207,-7.33323 12.5016,-10.3663 3.87156,2.87263 7.32076,6.16763 10.3484,9.88555 0.541701,4.71657 0.0252284,8.69188 -0.27978,12.5617l18.3348 15.6634c3.95235,-1.85754 7.90441,-3.13399 11.8573,-4.14624 4.20548,2.71588 8.72731,5.53692 12.9334,9.09723 -1.30876,3.90699 -2.88142,8.13033 -5.03377,12.0376 -4.0269,1.71213 -8.0538,2.68583 -12.0807,3.55408l-9.60577 22.1562c3.25021,3.8486 5.92044,7.38114 8.32678,11.2306 -0.940536,4.78233 -2.30287,9.56467 -4.08728,14.3476 -4.61452,0.160441 -8.91298,0.214866 -13.5269,-0.471969 -3.40696,-4.16948 -6.39213,-8.33896 -8.95465,-12.5079l-22.4793 0.0470551c-2.00353,3.82932 -4.42885,7.23657 -7.27626,10.2217 -4.54082,1.53666 -9.50372,2.33462 -14.8884,3.02769 -1.71439,-5.17663 -3.00671,-10.1418 -3.87638,-16.1623 3.25219,-4.01669 6.18747,-7.92709 9.44051,-11.0959l-8.39509 -22.4583c-4.74236,-1.58684 -8.85147,-3.49002 -13.2772,-5.70983 -1.70221,-4.21654 -2.98205,-8.43308 -3.83953,-12.649 4.52892,-4.07877 9.48019,-6.99648 14.8538,-9.3858 3.91408,2.07298 7.40637,4.14595 10.4766,6.2195z"/>
  <path fill="#BF9F4F" d="M371.903 334.465c-4.11619,0.738709 -17.4147,13.1927 -18.3645,14.8816 0.31663,3.79956 6.01597,19.6311 7.91575,22.7974 2.21641,1.16079 19.6311,0.422079 22.1641,0 2.00523,-2.74422 8.44328,-19.1035 8.86564,-22.4807 -1.79433,-2.53304 -18.1536,-14.565 -20.581,-15.1982z"/>
  <path fill="black" d="M95.6427 385.6c0.947906,5.59077 -5.0641,4.3801 -4.27465,7.28221 5.59474,4.90479 16.0929,4.59014 19.315,4.90819 0.051874,-2.26885 -2.42674,-4.06318 -1.90006,-5.69906 4.644,0.844158 10.5534,4.21937 13.932,2.53304 0.262772,-2.42702 -2.47975,-3.43049 -2.53332,-5.38271 11.7944,0.856914 26.0963,8.22558 37.1934,9.12643 6.38249,0.518173 12.261,-3.09458 12.5175,-3.11046 8.43789,-0.156473 4.8549,3.79956 7.28249,5.69934 8.4875,-2.79808 0.999497,-12.714 -3.95773,-11.2411 0.997796,-1.81276 4.30271,-3.24822 5.29484,-5.38895 1.21578,-2.62403 5.22681,-5.86885 5.62933,1.11458 6.72407,-3.0121 1.5874,-8.20177 -1.21748,-10.2957 -3.10734,-2.31988 -7.40041,-1.96129 -11.6067,-1.10296l0.113669 -1.90375c4.39087,-0.438236 6.78728,-2.91515 7.9013,-5.4377 1.63021,-3.69043 5.29314,-5.42722 5.60013,0.0592441 7.6578,-3.24 2.38422,-8.0898 -1.55707,-10.633 -3.36558,-2.17134 -7.903,-0.0425197 -11.99,0.277228l-0.542835 -1.67584c8.5989,-2.63792 8.65673,-13.8172 16.465,-5.69962 1.1554,-9.91446 -6.70479,-11.1294 -14.2486,-8.2321 0.498331,-3.11925 4.66781,-5.67808 5.19477,-9.59812 0.598111,-4.44926 2.20451,-18.8359 -0.28715,-21.1153 -1.30564,0.333071 -7.81229,8.17569 -7.8412,14.233 -0.0447874,9.33449 -1.78639,6.99818 -4.66555,12.0475 -0.788032,-2.34936 1.73254,-4.53997 2.4738,-8.00476 1.41506,-6.61578 1.58117,-15.6404 -6.27364,-24.6084 -1.65969,7.54781 -3.01748,16.0985 -6.08712,18.057 -5.11625,3.2641 -14.3436,5.17918 -23.1395,7.28504 -3.99742,0.956977 -9.19474,1.70844 -11.7771,3.62948 0.210331,1.74161 0.262772,4.2738 -1.74104,4.74973 -2.31222,1.88192 -12.0186,-1.83288 -20.8987,-2.22775 -7.86983,-0.350079 -15.3292,2.62233 -14.7461,9.85352l-1.08369 -0.185102 0.157323 -6.967c-0.106299,-1.79263 -4.11421,-1.68718 -4.2738,-0.94904l-0.29537 6.08485 -1.28778 -0.384945 -0.000850394 -4.27663c0.210331,-2.47805 -2.69008,-2.1617 -3.00699,-0.94904l-0.317764 5.70019 -1.08284 -0.286866c0.205512,-6.93837 -0.687969,-10.8335 -3.57477,-11.1668 -4.48299,-0.517607 -5.04596,3.99629 -4.04958,8.76246 2.06107,3.25616 4.01556,5.00514 5.73392,7.32955 3.04299,4.11619 1.2325,5.99386 7.24848,11.0353l27.2302 5.22454c4.01896,-0.348945 9.34215,0.557008 12.9764,2.36636 4.64287,2.31165 4.55244,5.58284 3.55777,7.488 -4.70183,9.00539 -18.985,7.36101 -25.5583,11.6759z"/>
  <path fill="#BF9F4F" d="M114.92 343.432c3.09458,-0.995812 5.50517,-1.09984 8.71512,-1.8377 2.61553,-0.601229 4.32255,-2.91969 5.23106,-4.40419 1.1554,-1.88816 4.17799,-1.10013 8.51443,-3.09033 -0.659055,3.17651 -3.05433,1.50378 -4.10684,2.82614 -0.867685,1.08992 -0.92041,1.68718 1.10154,2.76917 1.70901,0.914741 3.69071,3.31512 4.58703,4.52778 -4.82882,0.278646 -12.3463,6.09336 -14.4859,8.90306 -1.56643,-1.37849 2.87745,-4.33871 2.45792,-7.65468 -3.10819,-0.62674 -7.60111,-0.660756 -12.1725,-0.299339l0.158173 -1.73991z"/>
  <path fill="#F00000" d="M117.767 377.597l-21.037 8.85771c-14.341,5.37789 -33.6909,-1.15994 -33.8491,-14.2356 2.47295,-2.78958 7.00328,7.5498 17.5425,7.60734 13.477,0.0734174 23.7886,-4.01698 37.3436,-2.22945z"/>
  <path fill="black" d="M129.63 339.794c-1.84536,1.89808 -2.00353,3.79616 -0.47452,5.69424 1.58173,-0.0527244 2.21443,-1.84536 4.27068,-1.58173 0.685418,-0.896315 0.738142,-1.79263 0.158173,-2.68895 -1.10721,-0.685418 -2.42532,-1.15994 -3.95433,-1.42356z"/>
  <path fill="#F00000" d="M85.1834 371.903c-0.790867,6.9069 4.27068,15.7119 6.16876,19.7717 2.53077,-1.10721 4.21795,-3.26892 5.06155,-6.48511 -7.38142,-4.58703 -6.696,-10.7558 -11.2303,-13.2866z"/>
  <path fill="white" d="M85.1834 371.903c-0.138614,1.2138 -0.0966615,2.48684 0.0768189,3.78227 1.91509,3.86532 5.86063,12.3755 8.58303,14.2991 1.18658,-1.18658 2.04321,-2.78476 2.57046,-4.79481 -7.38142,-4.58703 -6.696,-10.7558 -11.2303,-13.2866z"/>
  <path fill="black" d="M85.1834 371.903c-0.0490394,0.428315 -0.044504,1.02898 0.00793701,1.75436 3.11329,1.72091 3.94413,7.55518 10.6588,13.2301 0.217417,-0.529229 0.405355,-1.09502 0.563528,-1.69795 -7.38142,-4.58703 -6.696,-10.7558 -11.2303,-13.2866z"/>
  <path fill="#F00000" d="M85.6579 350.866c-8.97761,0.0924095 -9.50514,19.319 5.84306,19.4318 12.2451,0.0901418 15.1155,-8.48353 13.4048,-14.2566 -1.41732,-4.78347 -6.23934,-7.9886 -9.2829,-5.80791 1.19112,1.51569 6.319,10.4261 -0.753449,11.2192 -6.12397,0.686835 1.3612,-8.9453 -9.21147,-10.5866z"/>
  <path fill="white" d="M94.8694 361.452c-5.64548,0.632693 0.274677,-7.50331 -7.04892,-10.0644 2.50639,3.67115 0.67663,7.98605 2.1532,10.5318 1.76485,3.04271 4.48923,3.19521 4.89572,-0.467433zm10.4842 -2.5441c-0.0252284,-0.994678 -0.18085,-1.96554 -0.447874,-2.86725 -1.41704,-4.78347 -6.23934,-7.9886 -9.2829,-5.80791 0.372189,0.473386 1.12876,1.66961 1.77732,3.11386 6.89443,2.70539 5.88019,8.41607 2.17701,13.3362 1.92501,-0.527528 3.8503,-1.74302 5.77644,-7.77487z"/>
  <path fill="black" d="M104.906 356.041c1.79518,13.1658 -16.5243,17.9442 -24.7479,7.21985 1.49273,3.79077 5.10832,6.99109 11.3431,7.03673 12.2451,0.0898583 15.1155,-8.48353 13.4048,-14.2566z"/>
  <path fill="white" d="M108.964 381.304c4.52296,-0.706678 6.82186,-2.15348 8.80356,-3.70658 -5.29484,-0.698174 -10.095,-0.499465 -14.7818,-0.00255118l-2.30088 1.26794c2.75981,0.813544 5.83597,-0.112535 8.27915,2.4412z"/>
  <path fill="black" d="M89.7333 388.123c-5.85553,0.6823 -11.8902,-0.253984 -16.7522,-2.50866 -1.64183,-1.60299 -3.1904,-3.42482 -3.93137,-6.27761 3.87808,1.64721 4.90961,4.40221 8.78769,6.04942 3.01606,1.28126 8.87982,1.45559 11.8959,2.73685z"/>
  <path fill="black" stroke="#BF9F4F" stroke-width="2.12599" d="M40.828 236.563c1.51937,-4.67688 2.43723,-8.32167 9.28715,-11.0801l8.60939 8.12013 5.05644 -5.81216 -9.73531 -10.3731c4.69134,-5.83852 8.74205,-8.66523 13.8725,-11.581l8.87131 9.00624 6.88848 -4.3132 -4.78205 -11.0772c5.20696,-2.93981 10.2651,-3.60595 15.857,-4.69418l2.52737 11.7947 12.2499 -0.0949607 -1.20558 -13.4555c5.64605,-1.2274 14.559,-0.774426 19.6999,-0.0459213l1.02501 14.6256 12.6193 2.23455 4.69077 -9.65481c8.43194,-1.39351 25.7151,12.1377 25.3174,20.2983l7.09909 6.11037c2.53162,2.04406 2.95285,4.51077 1.2634,7.40013l-7.13424 7.15125c-15.8658,-10.2688 -14.1863,13.0674 -32.7691,4.87701 -22.8932,-6.01002 -44.2435,3.8829 -54.8606,15.5789 -5.51821,6.42728 -11.6158,5.88785 -17.977,2.18183l-6.07096 5.62536c-3.24227,1.99049 -6.15374,2.6572 -10.292,-2.82869 -2.22662,-2.95143 -5.66873,-6.38136 -5.48051,-8.51471 4.08699,-4.75257 2.32044,-7.31226 7.70684,-9.71915l-12.3338 -11.7598z"/>
  <path fill="black" stroke="#BF9F4F" stroke-width="2.12599" d="M460.904 241.312c-0.991276,-4.57172 -4.12583,-12.3324 -9.60378,-15.5126l-10.5092 6.85361 -2.84003 -5.17918 8.78542 -8.78967c-3.10791,-6.47235 -7.47553,-12.1482 -13.5558,-15.6971l-9.82092 9.95613 -3.40555 -2.4137 0.982489 -16.143c-5.52359,-1.98992 -11.5311,-2.0228 -18.0734,-0.894615l-1.89411 11.7944 -10.0335 0.221953 -0.0609449 -12.5059c-5.64577,-1.2274 -14.2424,-0.457512 -19.7002,0.587622l-0.0751181 13.6758 -11.0361 2.23427 -4.69077 -9.65452c-8.43194,-1.3938 -24.7652,12.4543 -24.3675,20.615l-9.94848 6.74334c-2.53162,2.04435 -2.95285,6.09421 -1.2634,8.98356l5.23418 7.15125c3.96652,-2.56706 5.25317,-3.19295 9.42804,-5.3178 8.0915,6.607 14.3127,12.3792 29.3573,9.24492 22.8932,-6.01002 42.9767,2.61638 53.5938,14.3124 5.51821,6.42728 11.6158,5.88785 17.977,2.18183l6.07096 5.62536c3.24227,1.99049 4.54337,1.6954 9.97569,-2.51235 3.80948,-2.95115 5.66844,-5.43118 5.48022,-7.56454 -0.604063,-1.26964 -3.90303,-6.679 -8.02347,-10.6693l12.0172 -7.327z"/>
  <path fill="black" stroke="#BF9F4F" stroke-width="2.12599" d="M184.259 152.463c2.8046,-3.07446 17.7531,-6.38816 21.8733,-6.47037l2.6864 11.749c4.73868,-0.843874 9.44278,-2.42504 14.1129,-2.84315l-1.34022 -11.1543c5.815,-2.10643 13.4229,-2.49364 19.2611,-1.65203l1.14605 14.396 16.3043 -1.34646 0.769607 -11.9823c5.65767,-1.19679 12.0436,-0.136913 17.7406,0.662174l-0.316347 11.4857c4.10995,-0.370205 9.62731,1.19509 13.1743,1.95194l3.6068 -9.41528c6.3034,-1.22797 13.6956,1.14293 18.9326,3.43474l-2.71247 13.1967c5.29767,1.51172 12.8993,3.16517 17.6338,4.53912l3.24624 -9.27978c5.60041,0.0955276 11.1767,1.13074 14.9519,3.82167l-4.46825 12.6927 15.3663 6.78501 9.22564 -8.57226 14.4437 11.5302c-14.2194,11.2655 -28.9673,22.0031 -44.8753,31.58 -6.23311,4.1692 -12.8883,3.2726 -19.9653,-2.6898 -20.6048,-11.4545 -83.9121,-25.3001 -126.587,0.944221 -8.11871,5.50205 -18.2948,5.51651 -31.4799,-2.49024 -10.9925,-8.9263 -22.3016,-16.5858 -32.9777,-26.7783 3.1612,-5.01449 7.5892,-9.18482 13.2829,-12.5101l9.53037 9.39232c3.2006,-2.95143 7.91604,-4.46032 9.82007,-5.26394l-5.14035 -12.9538 14.3269 -6.57213 7.33692 10.6951 14.0712 -5.8663 -2.98148 -11.016z"/>
  <path fill="black" stroke="black" stroke-width="0.216" d="M146.779 299.002c4.22164,-1.89978 10.6597,7.28249 11.7153,8.54901 -0.738992,8.75991 -5.27726,17.2035 -8.86564,12.9818 -0.105732,-7.17733 -1.05562,-14.3544 -2.84967,-21.5308z"/>
  <path fill="#BF9F4F" d="M129.047 274.938c-2.05824,-4.41014 -3.92032,-2.3675 -6.72237,-3.36189 -2.17899,-0.773292 -4.79424,-2.60731 -5.62621,-2.65408 2.90154,8.17682 3.4818,2.58321 12.3486,6.01597z"/>
  <polygon fill="#BF9F4F" points="149.402,270.988 152.407,273.045 154.78,271.305 153.198,269.723 "/>
  <path fill="#BF9F4F" d="M160.316 261.023c-4.16523,4.11251 -1.21266,7.59232 -3.95433,9.96492 0.843591,-1.58173 -2.74167,-7.43415 3.95433,-9.96492z"/>
  <path fill="#BF9F4F" d="M360.563 272.412c-4.53742,-3.58838 -7.42479,-3.82621 -7.88627,0.268441 -0.431717,3.83216 -4.69843,0.0345827 -7.77289,-1.05931 1.73991,3.92797 5.77361,5.7994 8.6006,4.98246 2.82728,-0.816945 -1.08737,-5.43062 7.05855,-4.19159z"/>
  <polygon fill="#BF9F4F" points="349.333,441.815 351.864,438.81 353.92,439.285 "/>
  <polygon fill="#BF9F4F" points="171.388,436.438 167.117,438.336 167.75,439.443 169.95,437.986 173.444,437.07 "/>
  <path fill="#BF9F4F" d="M249.051 456.684c-2.56649,-10.5279 -0.015874,-25.9084 -0.47452,-32.2674 -2.51802,-5.03547 -5.28577,-8.568 -8.22501,-11.0721 -3.16885,2.2028 -6.07635,4.92633 -8.82227,7.97358 -2.5458,12.1975 -10.338,14.0468 -21.0903,13.4391 -6.6977,-0.378709 -8.20489,3.62041 -16.9067,4.21144l0 -1.73991c3.12633,-1.5086 6.06388,0.0212599 11.6972,-3.45685 3.79814,-2.3451 23.5023,5.27329 24.6827,-14.1004 -2.92677,-3.34885 -5.56243,-5.24636 -8.06684,-6.48511 -3.24284,0.948189 -6.77537,3.6377 -10.4394,7.1178 0.51874,-3.42737 5.91307,-7.32898 9.4904,-9.80675l1.10721 -20.5625c-1.58173,-1.68718 -2.74167,-3.58526 -3.47981,-5.69424l-0.158173 -1.10721c1.89808,1.47628 3.63799,3.58526 5.69424,4.42885 2.37232,-2.01685 4.7452,-4.78488 7.1178,-8.06684l-0.158173 -26.5731c-2.31988,-3.11074 -5.06155,-5.79969 -8.22501,-8.06684l-2.84712 3.47981 -0.94904 -1.10721 3.00529 -3.47981 -0.158173 -14.8683 -10.5976 -12.9702 1.58173 -0.94904c2.82019,3.95405 5.77304,7.64504 9.01588,10.7558 1.15994,-5.43062 0.421795,-8.96315 0.632693,-13.4447l-2.05625 -2.53077 0.632693 -1.73991 3.16347 1.89808c2.47805,-1.52901 4.7452,-3.47981 6.80145,-5.85241l0.158173 -22.777c-2.0761,-4.14 -4.46173,-7.039 -6.95963,-9.4904 -2.00353,0.158173 -2.74167,2.53077 -3.63799,5.21972 -1.37084,-4.11251 0.738142,-6.48511 3.95433,-9.4904l-0.158173 -26.8895c0.30841,-7.42394 -3.18501,-12.4574 -6.16876,-11.7981 -2.32044,0.512788 -4.56548,6.1234 -7.89704,5.37109 -5.38951,-1.21691 -9.19163,0.91304 -15.3544,1.0491 3.27714,-4.05808 15.6249,-3.15298 16.6136,-4.06999 2.41228,-2.2371 2.7601,-3.50901 4.39484,-4.34041 4.23326,-2.15291 6.66766,-0.0184252 9.99355,6.19597 1.92444,-2.63622 3.71736,-5.53607 5.21972,-9.01588 1.26539,-1.15994 1.26539,-7.53959 2.3726,-11.5467l0.47452 14.5519 8.22501 9.17405 6.95963 -5.53607c2.1617,-5.79969 0.685418,-15.0792 1.73991,-22.1443 1.52901,4.69247 1.50123,13.1811 1.76485,21.8279 2.42532,2.74167 5.64151,4.5343 8.22501,7.75049 3.90161,-4.11251 4.00706,-5.69424 6.01059,-8.54136 0.527244,-6.11603 -0.527244,-13.1811 1.58173,-18.3481 2.53077,11.1249 -0.47452,15.7646 1.58173,20.2462 1.42299,1.31499 2.84684,3.74145 4.27068,6.32693 5.37279,-9.47226 11.2499,-14.578 20.2408,-6.12624 2.61128,2.4548 10.6475,0.0119055 15.9809,8.97336 -6.16281,-0.136063 -2.69036,-5.94624 -13.2982,-5.63613 -2.93925,0.0858898 -6.31814,-4.40844 -8.68791,-4.58022 -4.72309,-0.342709 -12.6459,6.74674 -12.812,11.7981l0.158173 24.8332c2.99197,5.47002 5.12731,6.44542 3.95433,8.38319 -0.896315,-2.68895 -2.5835,-3.63799 -4.58703,-3.79616 -2.02337,3.55862 -3.93449,5.50857 -6.01059,9.64857l-0.316347 24.675c2.05625,2.3726 4.79792,5.90514 7.27597,7.43415 3.79616,-5.37789 4.7452,-14.7101 10.4394,-21.3534l-6.95963 19.2971 -1.42356 6.64328c-1.01934,7.80123 -0.711496,18.6154 -0.790867,27.6803l4.11251 4.27068 0 2.05625 -5.53607 -5.21972c-3.16347,2.26715 -4.00706,4.00706 -6.48511,6.32693l0.158173 29.4202c2.53134,2.96447 3.27005,3.14788 5.37789,5.69424 2.05625,-0.843591 3.00529,-5.79969 4.90337,-7.27597 0.0663307,2.7377 -1.09077,4.61169 -4.27068,9.17405 -0.000283465,8.14564 1.00148,14.7889 2.68895,20.4044 2.62828,4.69219 4.54281,4.32312 5.06155,7.75049 -2.39868,-0.31663 -3.71679,-2.0571 -5.06155,-2.21443 -2.50441,1.23874 -2.92564,2.18721 -3.16347,4.42885 1.69512,2.92309 5.51991,7.57276 8.86536,8.0898 4.9921,0.771591 8.25449,5.90259 15.0188,7.25301l0.790867 2.21443c-8.7018,-0.591024 -9.72454,-6.83348 -16.4322,-6.90038 -2.5268,-0.0252284 -10.4777,-7.25216 -13.0235,-9.80108 -2.74592,-3.04725 -8.02602,-6.24529 -11.1949,-8.4481 -4.04646,6.30029 -5.86517,5.08762 -8.38319,10.1231 -0.250583,3.47755 -0.92041,9.62079 -1.12677,16.56 -0.171213,5.7498 0.223087,12.1456 -0.796252,17.1309z"/>
  <path fill="black" d="M232.126 226.7c-2.10898,2.00353 -4.00706,4.85065 -5.69424,8.54136 0.105449,11.863 1.63446,22.777 0.316347,35.589 0.94904,3.00529 2.89984,5.69424 5.21972,6.95963 0.94904,-0.94904 5.37789,-6.32693 8.22501,-8.85771l0.158173 -32.2674c-1.31811,-2.84712 -6.43238,-5.06155 -8.22501,-9.96492z"/>
  <path fill="black" d="M251.107 230.812c-1.63446,2.1617 -6.85418,5.00882 -8.54136,8.69953 -0.163276,11.7284 1.51767,17.7355 0.790867,30.8438 0.94904,3.00529 4.63975,4.58703 6.95963,5.85241 2.3726,0.158173 2.53077,-3.95433 7.1178,-6.64328l1.10721 -30.6856c-1.31811,-2.84712 -5.64151,-4.7452 -7.43415,-8.06684z"/>
  <path fill="black" d="M268.823 233.027c-1.63446,2.1617 -6.696,6.11603 -8.54136,10.7558 -0.210898,11.7048 0.210898,15.8173 0.47452,26.5731 1.89808,2.53077 5.58879,6.64328 7.90867,8.22501 1.58173,-2.21443 3.47981,-4.11251 5.69424,-8.22501l-0.790867 -29.4202c-1.31839,-3.0583 -2.95285,-4.79821 -4.7452,-7.90867z"/>
  <path fill="black" d="M240.984 270.197c-1.63446,2.1617 -5.74696,5.16699 -7.43415,8.85771 0.105449,11.863 -0.263622,11.5467 -0.47452,24.5169 0.94904,3.00529 5.43062,6.01059 7.75049,7.27597 0.94904,-0.790867 5.69424,-6.32693 7.43415,-10.914l-0.316347 -21.8279c-1.31811,-2.84712 -5.16699,-4.58703 -6.95963,-7.90867z"/>
  <path fill="black" d="M257.909 270.988c-1.63446,2.1617 -6.696,2.95257 -7.59232,7.90867 -0.810426,11.4044 -0.274961,8.13997 -0.316347,21.1952 0.94904,3.00529 8.59408,12.1793 10.914,13.4447 2.68895,0.316347 3.47981,-3.63799 6.16876,-8.06684 1.84536,-4.3234 -0.263622,-12.7593 0.316347,-23.8842 -1.31811,-2.84712 -6.43238,-8.06684 -9.4904,-10.5976z"/>
  <path fill="black" d="M232.126 306.419c-1.63446,2.1617 -5.27244,3.26892 -7.43415,6.01059 -0.843591,11.5467 -0.579969,17.7154 0,30.6856 0.94904,3.00529 5.74696,7.27597 8.06684,8.54136 0.94904,-0.790867 5.06155,-4.58703 6.80145,-9.17405l-0.47452 -29.4202c-1.31811,-2.84712 -5.16699,-3.32164 -6.95963,-6.64328z"/>
  <path fill="black" d="M249.209 303.572c-1.63446,2.1617 -5.90514,5.64151 -7.59232,9.33223 0.105449,11.863 -0.105449,17.0827 -0.316347,30.0529 1.09502,2.71276 6.34309,7.34939 8.38319,9.17405 3.63799,-1.42356 4.11251,-4.7452 9.96492,-7.59232l-0.316347 -29.1039c-1.31811,-2.84712 -8.33046,-8.54136 -10.1231,-11.863z"/>
  <path fill="black" d="M268.664 307.368c-1.63446,2.1617 -6.06331,4.37613 -7.59232,9.17405 0.105449,11.863 1.47628,15.8173 0.47452,27.9967 0.94904,3.00529 4.9561,5.21972 7.27597,6.48511 0.94904,-0.790867 5.69424,-4.11251 7.43415,-8.69953l-0.316347 -24.675c-1.31811,-2.84712 -5.48334,-6.95963 -7.27597,-10.2813z"/>
  <path fill="black" d="M240.193 345.962c-1.63446,2.1617 -4.9561,5.00882 -6.64328,8.69953 0.105449,11.863 0.369071,12.6539 0.158173,25.6241 0.94904,3.00529 6.53783,6.64328 8.85771,7.90867 1.89808,-2.68895 4.90337,-2.3726 6.64328,-6.95963l-0.47452 -26.7313c-1.31811,-2.84712 -6.74873,-5.21972 -8.54136,-8.54136z"/>
  <path fill="black" d="M259.174 346.437c-1.63446,2.1617 -6.85418,3.11074 -9.17405,7.75049 0.105449,11.863 0.843591,13.2866 0.632693,26.2568 0.94904,3.00529 4.48158,3.63799 9.01588,9.80675 2.21443,-1.89808 5.21972,-5.53607 8.06684,-9.33223l-0.47452 -27.6803c-1.31811,-2.84712 -5.16699,-1.73991 -8.06684,-6.80145z"/>
  <path fill="black" d="M232.126 382.659c-1.97518,2.56564 -6.3995,5.73789 -8.38319,8.54136 0.105449,11.863 0.369071,6.16876 0.158173,19.139 0.94904,2.82047 5.27273,7.03815 7.59232,8.54136 2.17729,-1.01254 6.78955,-4.49972 8.38319,-9.96492l0.316347 -19.6135c-1.31811,-2.05625 -5.64151,-3.95433 -8.06684,-6.64328z"/>
  <path fill="black" d="M250.158 382.817c-1.97518,2.56564 -5.76681,4.47251 -7.75049,7.27597 0.105449,11.863 -1.05449,8.06684 -0.94904,21.3534 0.94904,2.82047 5.74725,6.56363 8.06684,8.06684 2.96816,-1.17071 4.73329,-5.76511 8.22501,-7.1178l-1.26539 -22.3024c-1.31811,-2.05625 -3.90161,-4.58703 -6.32693,-7.27597z"/>
  <path fill="black" d="M267.241 384.082c-1.97518,2.56564 -6.24133,7.4778 -8.22501,10.2813 0.105449,11.863 0.843591,0.790867 0.632693,13.7611 0.94904,2.82047 11.1251,10.2016 13.4447,11.7048 0.595559,-2.91062 3.30973,-4.49972 3.79616,-10.1231 -1.37084,-6.74873 -3.37436,-13.3393 -3.79616,-20.7207 -1.31811,-2.05625 -3.42709,-2.21443 -5.85241,-4.90337z"/>
 </g>
</svg>
