<?xml version="1.0" encoding="UTF-8" standalone="no"?>
<!-- Created with Inkscape (http://www.inkscape.org/) -->
<svg
   xmlns:dc="http://purl.org/dc/elements/1.1/"
   xmlns:cc="http://creativecommons.org/ns#"
   xmlns:rdf="http://www.w3.org/1999/02/22-rdf-syntax-ns#"
   xmlns:svg="http://www.w3.org/2000/svg"
   xmlns="http://www.w3.org/2000/svg"
   xmlns:sodipodi="http://sodipodi.sourceforge.net/DTD/sodipodi-0.dtd"
   xmlns:inkscape="http://www.inkscape.org/namespaces/inkscape"
   id="svg2"
   sodipodi:version="0.32"
   inkscape:version="0.46"
   width="500"
   height="565"
   sodipodi:docbase="I:\Wikipedia\Suomi\Vaakunat"
   sodipodi:docname="Maalahti.vaakuna.svg"
   version="1.0"
   inkscape:output_extension="org.inkscape.output.svg.inkscape">
  <metadata
     id="metadata7">
    <rdf:RDF>
      <cc:Work
         rdf:about="">
        <dc:format>image/svg+xml</dc:format>
        <dc:type
           rdf:resource="http://purl.org/dc/dcmitype/StillImage" />
      </cc:Work>
    </rdf:RDF>
  </metadata>
  <defs
     id="defs5">
    <inkscape:perspective
       sodipodi:type="inkscape:persp3d"
       inkscape:vp_x="0 : 282.5 : 1"
       inkscape:vp_y="0 : 1000 : 0"
       inkscape:vp_z="500 : 282.5 : 1"
       inkscape:persp3d-origin="250 : 188.33333 : 1"
       id="perspective11" />
  </defs>
  <sodipodi:namedview
     inkscape:window-height="732"
     inkscape:window-width="1008"
     inkscape:pageshadow="2"
     inkscape:pageopacity="0.0"
     borderopacity="1.0"
     bordercolor="#666666"
     pagecolor="#ffffff"
     id="base"
     showgrid="true"
     inkscape:grid-bbox="true"
     inkscape:grid-points="true"
     gridtolerance="1px"
     inkscape:zoom="0.58740802"
     inkscape:cx="254.38723"
     inkscape:cy="221.65404"
     inkscape:window-x="69"
     inkscape:window-y="69"
     inkscape:current-layer="svg2">
    <inkscape:grid
       id="GridFromPre046Settings"
       type="xygrid"
       originx="0px"
       originy="0px"
       spacingx="2px"
       spacingy="2px"
       color="#0000ff"
       empcolor="#0000ff"
       opacity="0.2"
       empopacity="0.4"
       empspacing="5" />
  </sodipodi:namedview>
  <path
     style="fill:#0581ed;fill-opacity:1;fill-rule:evenodd;stroke:rgb(0, 0, 0);stroke-width:0.50000000000000000;stroke-linecap:butt;stroke-linejoin:miter;stroke-opacity:1;stroke-miterlimit:4;stroke-dasharray:none"
     d="M 0.5,1.2200352 L 499.5,1.2200352 L 485,364.86219 C 481.8,439.86218 400,564.36218 250,564.36218 C 100,564.36218 18.2,439.86218 15,364.86219 L 0.5,1.2200352 z "
     id="path1383"
     sodipodi:nodetypes="cccccc" />
  <path
     style="opacity: 1; fill: rgb(204, 204, 204); fill-opacity: 1; stroke: none; stroke-width: 0.5; stroke-linejoin: miter; stroke-miterlimit: 4; stroke-dasharray: none; stroke-opacity: 1;"
     d="M 234.20738,563.22685 C 201.15958,560.91583 171.29365,552.99877 142.93644,539.03215 C 103.66776,519.69139 71.723991,491.05504 47.084259,453.10444 C 30.849294,428.09905 18.764474,395.99742 16.292408,371.31025 C 15.655416,364.94892 15.710249,364.73089 18.236948,363.57965 C 23.318115,361.26452 33.780308,362.81559 42.189284,367.13071 C 44.383777,368.25681 50.443569,372.60926 55.655488,376.80279 C 66.933514,385.87709 73.167478,389.12322 81.721081,390.37545 C 94.501796,392.24655 101.03011,389.88797 113.52905,378.88379 C 118.18204,374.78731 124.23338,370.18698 126.97649,368.66091 C 131.39762,366.20133 132.98342,365.88623 140.94145,365.88623 C 152.12259,365.88623 155.42009,367.36307 167.87385,377.94834 C 179.91913,388.1864 185.44719,390.71285 195.80376,390.71285 C 206.30825,390.71285 211.94923,388.11699 223.67044,377.88918 C 234.85265,368.13166 240.42327,365.41034 249.24151,365.39723 C 259.64467,365.38177 263.77505,367.34965 274.76917,377.55962 C 286.81908,388.75002 290.67516,390.60015 302.13048,390.68723 C 309.817,390.74568 311.36271,390.426 317.09293,387.59284 C 320.60765,385.85504 326.97695,381.52033 331.24695,377.96007 C 342.22979,368.80278 348.4276,365.96982 358.3957,365.55074 C 369.89276,365.06739 375.10388,367.27949 387.32162,377.82979 C 401.22811,389.83842 407.88919,392.39009 420.06171,390.37175 C 428.77347,388.92722 435.23988,385.44526 445.1779,376.84741 C 450.11551,372.57562 456.89297,367.79021 460.23892,366.21308 C 467.48493,362.79763 477.72142,361.55681 481.58653,363.62536 C 483.81682,364.81896 484.04497,365.48312 483.74609,369.91184 C 482.48449,388.60591 474.0032,415.29271 462.48867,436.79936 C 438.95452,480.75608 402.04149,516.75645 357.5862,539.10814 C 322.28453,556.85748 275.08058,566.08514 234.20738,563.22687 L 234.20738,563.22685 z"
     id="path3154" />
  <path
     style="opacity:1;fill:#cccccc;fill-opacity:1;stroke:#000000;stroke-width:0.1;stroke-linejoin:miter;stroke-miterlimit:4;stroke-dasharray:none;stroke-opacity:1"
     d="M 201.6993,340.71519 C 195.7653,339.38021 187.3889,334.00038 183.70898,329.16071 C 179.2098,323.24363 176.34166,314.98849 176.40682,308.14364 C 176.46154,302.39572 178.99723,293.91086 180.84131,293.30509 C 181.38993,293.1249 182.62867,294.8985 183.59407,297.24649 C 187.51848,306.79121 195.40885,312.85234 203.96817,312.89726 C 214.97118,312.95502 222.16771,305.05646 222.21551,292.86996 C 222.24339,285.76404 218.69795,280.10933 211.28363,275.43446 L 206.08844,272.15879 L 209.9916,270.16751 C 214.66813,267.78176 220.93985,261.09597 221.83062,257.5469 C 222.18336,256.14152 222.28065,252.42699 222.04685,249.29241 C 221.2655,238.81701 214.37065,232.12194 204.364,232.12194 C 201.54081,232.12194 197.7865,232.72664 196.02109,233.4657 C 191.73677,235.25927 186.13502,241.62004 183.76447,247.38298 C 182.70537,249.95775 181.57032,252.06608 181.24217,252.06813 C 180.91405,252.07019 179.79185,250.1754 178.74843,247.85749 C 176.0058,241.76477 176.15686,229.2608 179.04964,222.92779 C 182.11316,216.22088 189.4102,208.81964 195.59053,206.15064 C 205.07861,202.05315 219.79631,202.50375 230.82039,207.22922 C 233.27659,208.28206 237.62447,211.33419 240.48239,214.01173 C 247.8654,220.92879 249.84395,221.81977 252.68228,219.50563 C 253.92852,218.48957 257.57564,215.52069 260.78706,212.90812 C 269.64224,205.70429 275.36418,203.8182 288.57094,203.74997 C 298.79126,203.69718 299.94028,203.89424 305.33309,206.62474 C 316.7082,212.38422 323.36989,223.23185 323.44165,236.11193 C 323.47477,242.05385 322.98983,244.59571 321.08489,248.46569 L 318.68646,253.33823 L 316.86681,248.46569 C 314.50637,242.14523 309.85584,236.57908 304.76598,233.98242 C 299.28771,231.18763 289.91927,231.66836 285.26406,234.98316 C 280.74501,238.201 277.92517,244.22802 277.76945,251.00188 C 277.59459,258.60876 280.95885,264.32067 288.37117,269.00167 L 293.85571,272.46527 L 289.03163,275.22038 C 280.0254,280.36408 276.09344,288.48533 278.14529,297.70556 C 280.2621,307.21762 287.03455,312.94225 296.11772,312.89726 C 305.23211,312.85212 311.22442,308.15095 316.39628,296.98802 L 318.91806,291.54508 L 320.95798,296.15673 C 323.98959,303.01017 324.44153,308.57444 322.56665,315.96292 C 317.84891,334.55455 302.05827,344.15223 281.58846,340.86976 C 272.16198,339.35815 265.76157,336.2506 258.2259,329.52665 C 254.75249,326.42737 251.06561,323.89163 250.03281,323.89163 C 248.99999,323.89163 245.41962,326.40635 242.07637,329.47988 C 234.77469,336.19253 228.04534,339.45408 218.71523,340.80244 C 210.56186,341.98073 207.24926,341.96374 201.69931,340.71518 L 201.6993,340.71519 z M 262.94184,289.22862 C 259.99724,277.53733 259.2579,273.13526 260.05191,272.02181 C 265.9692,263.72386 267.1157,255.59929 263.18037,249.85179 C 259.86732,245.01309 255.65306,242.71075 250.10929,242.71075 C 235.82974,242.71074 229.02634,259.36039 238.90415,270.1325 L 241.28775,272.73193 L 237.7033,287.08995 C 235.7318,294.98685 233.88402,302.23348 233.59711,303.19357 C 233.11469,304.80794 234.34703,304.93919 249.98711,304.93919 L 266.89877,304.93919 L 262.94184,289.22862 z"
     id="path3156" />
  <path
     style="opacity:1;fill:#cccccc;fill-opacity:1;stroke:none;stroke-width:0.50000000000000000;stroke-linejoin:miter;stroke-miterlimit:4;stroke-dasharray:none;stroke-opacity:1"
     d="M 91.967915,167.45723 C 82.255809,164.10003 74.090003,155.08166 71.519724,144.87412 C 69.83958,138.2017 70.715901,127.49861 73.273004,123.45993 L 75.387397,120.12047 L 77.521332,124.94461 C 82.250583,135.63585 88.948622,140.75657 98.100334,140.67746 C 108.66276,140.58615 115.20889,134.05966 116.18498,122.64708 C 116.86531,114.69255 113.94295,109.30155 106.09411,104.03201 L 100.28278,100.13039 L 103.85447,98.298011 C 108.7606,95.781008 114.19213,89.967578 115.58728,85.740247 C 118.09288,78.148181 114.38151,66.476643 108.25838,62.69234 C 97.240422,55.88289 84.208968,61.089982 78.069775,74.755087 L 75.263628,81.001211 L 72.953625,76.013728 C 68.403534,66.189783 70.483554,52.470275 77.893118,43.433444 C 85.696414,33.916449 96.584948,30.068327 111.10363,31.696531 C 120.80654,32.78466 127.46108,35.822346 135.36931,42.773411 C 138.9826,45.94937 142.89228,48.555699 144.05747,48.565235 C 145.23899,48.574921 148.96915,46.090277 152.49126,42.947554 C 160.36593,35.921138 167.11706,32.778415 176.62771,31.711842 C 190.72274,30.131139 201.60723,33.630267 209.11036,42.154275 C 217.2192,51.366445 219.88714,66.444893 215.1424,76.246204 L 212.94032,80.795098 L 210.20896,75.065208 C 204.98078,64.097344 196.89336,58.65599 187.69418,59.916876 C 181.65702,60.744359 177.27251,63.545808 174.67741,68.233843 C 168.35194,79.660785 171.35318,90.056076 183.14002,97.54541 L 187.43371,100.27361 L 182.14254,103.81617 C 174.28551,109.07662 171.8451,113.26893 171.94476,121.3346 C 172.07267,131.68692 176.87478,138.35345 185.61053,140.30611 C 190.80503,141.46721 193.92944,141.0121 199.295,138.3128 C 204.00531,135.94313 206.57312,132.99757 210.12589,125.88856 L 213.11694,119.90358 L 215.23101,124.64366 C 220.13129,135.63102 217.0702,150.32531 207.93095,159.68628 C 200.42622,167.37309 193.97186,169.60042 180.84131,169.03465 C 168.02152,168.48226 161.36972,166.00122 153.62503,158.88328 C 143.99503,150.03255 143.75434,150.02533 134.8986,158.3198 C 129.11037,163.74117 125.05449,166.04688 117.99902,167.92696 C 110.90213,169.81807 98.130938,169.58763 91.967915,167.45724 L 91.967915,167.45723 z M 160.36858,132.12291 C 160.35534,131.43713 158.61313,124.04146 156.49699,115.6881 C 153.06894,102.15615 152.81691,100.36159 154.18538,99.229403 C 156.73387,97.120925 159.34995,90.251874 159.37323,85.60768 C 159.4315,73.982306 146.43716,66.837707 136.0578,72.788273 C 130.53453,75.954796 128.25905,80.587329 128.7238,87.719001 C 129.02015,92.266528 129.71422,94.20241 132.10923,97.161523 L 135.12188,100.88377 L 131.32262,115.8799 C 129.23302,124.12778 127.51253,131.43713 127.4993,132.12291 C 127.48102,133.071 131.41915,133.36978 143.93394,133.36978 C 156.44872,133.36978 160.38686,133.071 160.36857,132.12291 L 160.36858,132.12291 z"
     id="path3158" />
  <path
     style="opacity: 1; fill: rgb(204, 204, 204); fill-opacity: 1; stroke: none; stroke-width: 0.5; stroke-linejoin: miter; stroke-miterlimit: 4; stroke-dasharray: none; stroke-opacity: 1;"
     d="M 308.02212,168.34688 C 295.66904,164.57561 285.97937,152.73217 284.4107,139.48718 C 283.76944,134.07302 285.29054,126.30508 287.7283,122.54467 C 289.24877,120.19928 289.25042,120.20052 291.71383,125.53716 C 296.40428,135.69836 303.07695,140.67446 312.01211,140.67446 C 320.156,140.67447 324.71853,137.84356 328.45648,130.4713 C 330.67577,126.09419 330.79146,116.9001 328.67854,112.8198 C 326.89971,109.38464 321.03028,103.87514 317.37556,102.20994 C 314.17148,100.75006 314.35993,100.18459 318.90122,97.632232 C 323.76006,94.901435 328.75115,89.311893 329.5372,85.721025 C 329.86524,84.222376 330.30818,82.430803 330.52148,81.739767 C 330.73473,81.048711 330.47067,78.170575 329.9346,75.343879 C 328.8404,69.574159 325.28592,64.2705 321.04273,62.076257 C 310.25493,56.497667 298.8883,61.144266 292.60655,73.700733 L 289.15748,80.59506 L 287.13594,76.632595 C 283.83655,70.165196 283.47501,62.909346 286.0326,54.489038 C 287.94398,48.196321 289.04896,46.424099 294.38807,41.08832 C 302.0054,33.475745 307.45383,31.376833 319.34137,31.475485 C 333.28692,31.591215 343.79327,36.133425 352.83397,45.955365 C 356.25986,49.677284 359.73678,49.376868 363.93563,44.996103 C 372.73015,35.82057 383.12795,31.535255 396.66766,31.506029 C 406.30096,31.485221 411.4429,32.929795 418.14207,37.538948 C 428.90331,44.942886 434.45158,61.513529 430.2021,73.557831 C 427.57855,80.993709 426.62177,81.322704 424.46156,75.531737 C 415.94648,52.705215 385.7729,55.779928 385.84327,79.466951 C 385.86468,86.687041 388.82924,91.947828 395.32483,96.292773 C 398.05601,98.119658 400.40708,99.92804 400.54949,100.31142 C 400.6919,100.6948 399.34528,101.84463 397.557,102.86661 C 389.10052,107.69938 385.81738,112.8125 385.84876,121.10091 C 385.8944,133.15314 392.6538,140.63222 403.57228,140.71145 C 407.09151,140.73699 410.48907,140.10389 412.46341,139.05469 C 417.49608,136.38022 422.52456,130.56562 424.58772,125.03484 L 426.48221,119.95618 L 428.56963,123.38863 C 434.57453,133.26291 431.6037,149.86656 422.0843,159.63449 C 416.07166,165.8041 409.63575,168.54753 399.91941,169.08266 C 385.33173,169.8861 376.19843,166.69391 365.10957,156.91624 C 360.76673,153.0869 358.32849,151.59169 357.1296,152.02261 C 356.18009,152.36387 353.12591,154.76571 350.34254,157.35999 C 341.29463,165.79322 332.0018,169.29809 318.99459,169.18312 C 314.33129,169.14189 309.39368,168.76559 308.02212,168.34687 L 308.02212,168.34688 z M 374.46719,131.62416 C 374.18026,130.66407 372.35398,123.50281 370.40878,115.71026 L 366.87205,101.54198 L 369.36993,97.861117 C 375.20938,89.256243 375.07686,81.48772 368.98677,75.397624 C 364.88165,71.292536 360.14724,69.883313 354.20563,70.997966 C 349.27419,71.923104 343.32885,77.884772 342.40001,82.835946 C 341.50114,87.627271 343.45525,94.659163 346.64069,98.096317 L 349.09476,100.74429 L 345.14575,116.52065 C 342.97379,125.19765 341.43811,132.53838 341.73312,132.8334 C 342.02814,133.1284 349.63136,133.36978 358.62917,133.36978 C 373.74351,133.36978 374.94913,133.2369 374.46717,131.62416 L 374.46719,131.62416 z"
     id="path3160" />
</svg>
