<?xml version="1.0" encoding="UTF-8" standalone="no"?>
<!-- Creator: CorelDRAW -->

<svg
   xmlns:dc="http://purl.org/dc/elements/1.1/"
   xmlns:cc="http://creativecommons.org/ns#"
   xmlns:rdf="http://www.w3.org/1999/02/22-rdf-syntax-ns#"
   xmlns:svg="http://www.w3.org/2000/svg"
   xmlns="http://www.w3.org/2000/svg"
   xmlns:sodipodi="http://sodipodi.sourceforge.net/DTD/sodipodi-0.dtd"
   xmlns:inkscape="http://www.inkscape.org/namespaces/inkscape"
   xml:space="preserve"
   width="500"
   height="540"
   style="fill-rule:evenodd"
   viewBox="0 0 500 510.68301"
   sodipodi:version="0.32"
   inkscape:version="0.48.0 r9654"
   sodipodi:docname="Maarianhamina.vaakuna.svg"
   version="1.0"
   inkscape:output_extension="org.inkscape.output.svg.inkscape"
   id="svg2"><metadata
   id="metadata171"><rdf:RDF><cc:Work
       rdf:about=""><dc:format>image/svg+xml</dc:format><dc:type
         rdf:resource="http://purl.org/dc/dcmitype/StillImage" /></cc:Work></rdf:RDF></metadata><sodipodi:namedview
   pagecolor="#ffffff"
   bordercolor="#666666"
   borderopacity="1"
   objecttolerance="10"
   gridtolerance="10"
   guidetolerance="10"
   inkscape:pageopacity="0"
   inkscape:pageshadow="2"
   inkscape:window-width="640"
   inkscape:window-height="480"
   id="namedview169"
   showgrid="false"
   fit-margin-top="0"
   fit-margin-left="0"
   fit-margin-right="0"
   fit-margin-bottom="0"
   inkscape:zoom="0.45709282"
   inkscape:cx="250.03125"
   inkscape:cy="269.875"
   inkscape:window-x="198"
   inkscape:window-y="269"
   inkscape:window-maximized="0"
   inkscape:current-layer="svg2" />
 <defs
   id="defs4">
  <style
   type="text/css"
   id="style6">
   
    .str0 {stroke:#0033AB;stroke-width:0.750048}
    .fil5 {fill:#00923F}
    .fil4 {fill:#1F1A17}
    .fil1 {fill:#C0A062}
    .fil3 {fill:white}
    .fil2 {fill:#752B19}
    .fil0 {fill:#594FBF}
   
  </style>
 
  
  <sodipodi:namedview
   height="540px"
   width="500px"
   inkscape:window-y="27"
   inkscape:window-x="0"
   inkscape:window-height="970"
   inkscape:window-width="1272"
   gridtolerance="10000"
   inkscape:current-layer="layer1"
   inkscape:document-units="px"
   inkscape:cy="265.62167"
   inkscape:cx="487"
   inkscape:zoom="1"
   inkscape:pageshadow="2"
   inkscape:pageopacity="0.0"
   borderopacity="1.0"
   bordercolor="#666666"
   pagecolor="#ffffff"
   id="base" />
  
  
  
  
  
  
  
  
  
  
  
  
  
  
  
  
  
  
  
  
  
  
  
  
  
  
  
  
  
  
  
  
  
  
  
  
  
  
  
  
  
  
  
  
  
  
  
  
  
  
  
  
  
  
  
  
  
  
  
 </defs>
 <path
   style="fill:#0033ab;fill-opacity:1;stroke:#0033ab;stroke-width:0.75004798"
   inkscape:connector-curvature="0"
   sodipodi:nodetypes="ccsccc"
   d="m 250.03125,524.126 c -18,-29.5002 -120.849,-16.2292 -178.855,-108.242 -52.02,-82.5169 -21.1451,-286.259 -70.6448,-430.759 l 499.001,0 c -49.4997,144.5 -18.625,348.243 -70.6448,430.759 -58.006,92.0124 -160.855,78.7417 -178.855,108.242 z"
   class="fil0 str0"
   id="path2224" /><path
   style="fill:#c0a062;stroke:#0033ab;stroke-width:0.75004798"
   inkscape:connector-curvature="0"
   sodipodi:nodetypes="ccsccc"
   d="M 30.63125,159.329 C 26.04592,99.2297 18.70645,38.184 0.53095,-14.875 l 499.001,0 c -18.1755,53.0586 -25.5149,114.105 -30.1003,174.205 l -438.8,-5.7e-4 z"
   class="fil1 str0"
   id="path2224_0" /><path
   style="fill:#752b19"
   inkscape:connector-curvature="0"
   sodipodi:nodetypes="ccccccc"
   d="m 268.75925,238.391 9.77953,161.568 c -0.67578,20.0254 30.1819,28.7246 58.5746,6.77424 -11.1569,-16.6422 -17.2752,-29.9914 -11.437,-44.0079 5.98337,-14.366 53.3061,-60.4007 63.739,-62.3123 11.8851,13.2404 68.4448,130.977 -28.7873,120.216 -32.9233,57.998 -92.8908,48.6527 -111.15,63.4094 -18.347,-18.1593 -74.7445,-11.8556 -108.221,-62.6329 -78.5883,7.76523 -56.7414,-69.6334 -30.1964,-121.189 16.4993,5.69594 105.829,61.9027 50.6724,105.189 29.1736,32.4383 62.5751,13.1012 63.7492,-6.62854 l 6.1475,-160.911 c -10.4261,-6.33544 -16.2179,-16.6269 -16.2179,-29.7162 0,-19.946 17.0229,-36.6642 36.9689,-36.6642 19.9463,0 33.7468,16.7182 33.7468,36.6642 0,13.0893 -6.9429,23.9068 -17.3693,30.2423 z m -17.8124,-52.2675 c 11.5135,0 21.4379,9.33704 21.4379,20.8505 0,3.59773 -0.39061,16.0041 -4.34948,18.1083 -2.35673,-8.18391 -8.32451,-13.8237 -18.5828,-13.8915 -10.2586,-0.0677 -16.2445,5.75972 -18.0136,8.6573 -1.60526,-2.95427 -3.10451,-9.27638 -3.10451,-12.8741 0,-11.5135 11.0988,-20.8505 22.6125,-20.8505 z"
   class="fil2"
   id="path6119" /><path
   style="fill:#ffffff"
   inkscape:connector-curvature="0"
   sodipodi:nodetypes="ccccccc"
   d="m 265.47125,235.141 9.77953,161.568 c -0.67578,20.0251 30.1819,28.7243 58.5746,6.77396 -11.1569,-16.6419 -17.2752,-29.9914 -11.437,-44.0076 5.98337,-14.366 53.697,-60.7916 64.1296,-62.7032 11.8851,13.2404 68.0542,131.368 -29.1779,120.606 -32.9233,57.9983 -91.2807,50.2521 -109.54,65.0084 -18.347,-14.7541 -82.0296,-8.91468 -112.101,-64.232 -78.5883,7.76552 -54.4714,-69.2425 -27.9264,-120.798 16.4993,5.69594 105.829,61.5121 50.6724,104.798 29.1736,32.4383 62.5751,13.1012 63.7492,-6.62854 l 6.1475,-160.91 c -10.4261,-6.33572 -16.2179,-16.6272 -16.2179,-29.7165 0,-19.946 15.0004,-34.9467 34.9467,-34.9467 19.946,0 35.534,15.0007 35.534,34.9467 0,13.0893 -6.70791,23.9068 -17.1343,30.2426 z m -17.8124,-50.5058 c 11.5135,0 21.3806,8.64879 21.9668,20.147 0.26419,5.18457 0.66784,11.5064 -5.67213,15.9914 -2.35673,-8.18363 -6.73711,-12.7653 -16.9954,-12.833 -10.2586,-0.0675 -17.0382,5.75972 -18.8073,8.65758 -1.60526,-2.95455 -3.10451,-9.27667 -3.10451,-12.8744 0,-11.5135 11.0988,-19.0885 22.6125,-19.0885 z"
   class="fil3"
   id="path6119_1" /><path
   style="fill:#c0a062"
   inkscape:connector-curvature="0"
   sodipodi:nodetypes="ccccccc"
   d="m 267.55025,236.615 9.77953,161.568 c -0.67578,20.0251 32.5313,30.4863 60.9237,8.53597 -12.3313,-16.6419 -20.2113,-29.9917 -13.786,-45.7696 5.86914,-14.4125 53.3061,-60.4009 63.7387,-62.3126 11.8851,13.2406 68.4451,130.977 -28.7873,120.216 -32.923,57.9983 -92.8908,48.653 -111.15,63.4094 -18.347,-18.159 -74.7445,-11.8556 -108.221,-62.6329 -78.588,7.76552 -56.7414,-69.6334 -30.1961,-121.189 16.4991,5.69566 105.828,61.9027 50.6722,105.189 29.1739,32.438 62.5751,13.1009 63.7495,-6.62882 l 6.14722,-160.91 c -10.4261,-6.33572 -16.2179,-16.6272 -16.2179,-29.7165 0,-19.946 15.0007,-34.9467 34.9467,-34.9467 19.946,0 35.534,15.0007 35.534,34.9467 0,13.0893 -6.70791,23.9068 -17.134,30.2426 z m -17.8126,-52.2678 c 11.5135,0 20.6513,9.36397 21.4379,20.8505 0.26447,3.86192 0.40337,12.8293 -5.14318,15.7272 -2.35644,-8.18391 -7.79528,-10.9134 -18.0536,-10.9811 -10.2586,-0.0678 -15.98,5.23049 -17.7491,8.12835 -1.60526,-2.95455 -3.10451,-9.27667 -3.10451,-12.8744 0,-11.5135 11.0991,-20.8505 22.6125,-20.8505 z"
   class="fil1"
   id="path6119_2" /><path
   style="fill:#ffffff"
   inkscape:connector-curvature="0"
   id="path16"
   d="m 179.55025,417.318 c 28.5866,10.7719 50.5134,6.66227 52.8605,-25.2556 l 3.52403,-95.7365 -4.11137,0.58734 -2.93669,97.4985 c -0.58394,27.023 -20.5543,30.3497 -49.3365,22.9062 z"
   class="fil3" /><path
   style="fill:#752b19"
   inkscape:connector-curvature="0"
   sodipodi:nodetypes="cssss"
   d="m 250.65325,298.402 c -59.0624,0 -88.8103,-6.43295 -103.017,-11.9197 l 0.17206,-20.9254 c 10.9091,-6.96785 45.0814,-12.3299 102.845,-12.3299 57.7633,0 92.6558,6.5367 103.565,13.5045 l 0.17178,18.576 c -14.2064,5.48674 -44.6746,13.0944 -103.737,13.0944 z"
   class="fil2"
   id="path3200" /><path
   style="fill:#ffffff"
   inkscape:connector-curvature="0"
   sodipodi:nodetypes="cssss"
   d="m 246.77825,293.389 c -59.0624,0 -88.8103,-5.84533 -103.017,-11.3324 l 0.17206,-20.9254 c 10.9091,-6.96785 45.0814,-13.5045 102.845,-13.5045 57.7633,0 92.6558,7.71137 103.565,14.6792 l 0.17178,18.576 c -14.2064,5.48703 -44.6746,12.507 -103.737,12.507 z"
   class="fil3"
   id="path3200_3" /><path
   style="fill:#c0a062"
   inkscape:connector-curvature="0"
   sodipodi:nodetypes="cssss"
   d="m 249.44425,296.038 c -59.0624,0 -88.8103,-5.84533 -103.017,-11.3321 l 0.17178,-20.9256 c 10.9094,-6.96785 45.0817,-12.3299 102.845,-12.3299 57.7633,0 92.6561,6.5367 103.565,13.5045 l 0.17206,18.576 c -14.2067,5.48703 -44.6749,12.507 -103.737,12.507 z"
   class="fil1"
   id="path3200_4" /><rect
   style="fill:#752b19"
   id="rect21"
   ry="4.7143002"
   rx="4.7143002"
   height="54.881901"
   width="12.6981"
   y="246.862"
   x="310.48026"
   class="fil2" /><rect
   style="fill:#752b19"
   id="rect23"
   ry="4.7143002"
   rx="4.7143002"
   height="54.881901"
   width="12.6981"
   y="246.862"
   x="180.88025"
   class="fil2" /><path
   style="fill:#752b19"
   inkscape:connector-curvature="0"
   id="path25"
   d="m 347.99625,280.628 c -48.731,13.3166 -143.976,14.0978 -198.047,0 53.0238,17.8588 162.358,14.7954 198.047,0 z"
   class="fil2" /><rect
   style="fill:#ffffff"
   id="rect27"
   ry="4.7143002"
   rx="4.7143002"
   height="54.881901"
   width="12.6981"
   y="243.612"
   x="304.74225"
   class="fil3" /><rect
   style="fill:#ffffff"
   id="rect29"
   ry="4.7143002"
   rx="4.7143002"
   height="54.881901"
   width="12.6981"
   y="243.612"
   x="175.14125"
   class="fil3" /><g
   id="_96315328"
   transform="translate(0.03125,-15.375)">
   <path
   style="fill:#1f1a17"
   inkscape:connector-curvature="0"
   d="m 263.322,166.358 -12.3432,0.77584 c -3.53395,-6.60303 -5.65654,-17.2364 -5.23049,-31.1508 -4.37641,5.19959 -11.4506,10.6897 -18.4842,13.2313 l 1.25178,-5.74328 c -5.58425,1.908 -11.1685,2.15518 -16.7536,0.7407 l 5.99443,-6.48511 c -5.91648,0.56154 -11.8335,-2.19742 -17.7511,-8.27887 l 4.50114,-3.23773 c -4.41071,-2.91628 -7.99115,-6.08145 -9.74552,-10.9911 l 3.24425,0.21656 c -3.57647,-4.66129 -5.90769,-11.4812 -7.49254,-17.471897 l 7.23799,2.245317 c -4.11194,-6.501257 -5.0264,-13.002797 -4.48866,-19.504597 l 4.99351,1.75096 c -0.74268,-5.99726 -0.15732,-11.2479 1.75635,-17.2463 l 5.99159,3.75194 c 0.003,-5.74498 0.58819,-10.8261 3.24822,-15.2436 l 6.50665,2.73033 c 1.17383,-5.91506 3.67625,-11.4982 7.50643,-16.7502 l 3.99345,5.2475 c 2.67251,-5.91449 5.92668,-12.4937 9.26334,-17.7446 l 3.74429,3.75194 c 3.16545,-8.65531 9.8178,-14.3221 12.4849,-21.4832 2.66712,7.16117 6.7167,8.59352 7.39134,17.7472 l 4.4915,-1.26113 c 3.33666,5.2509 3.35282,8.5921 6.02533,14.5066 l 6.73314,-4.99833 c 3.83018,5.25203 2.34765,7.34797 3.52148,13.263 l 7.25358,-2.23228 c 2.66003,4.41751 1.75039,8.25336 1.7538,13.9983 l 8.23352,-1.26113 c 1.91339,5.9984 5.23871,13.9887 4.49603,19.9862 l 5.24268,-2.99651 c 0.53773,6.50183 1.61575,12.7545 -2.49619,19.2555 l 5.4944,-1.24895 c -1.58485,5.990737 -3.16885,15.301397 -6.74533,19.962697 l 5.73506,-0.96378 c -1.75436,4.90961 -5.58397,12.3089 -9.99468,15.2252 l 5.49751,3.73606 c -2.43071,1.09984 -4.6114,3.85881 -9.53178,3.29726 l 0.76394,7.97953 c -5.58511,1.41449 -12.913,1.91452 -18.4972,0.007 l 1.25178,5.74328 c -19.4871,-0.54907 -18.8402,-6.03922 -27.4507,-8.748 0.42604,13.9144 5.9692,20.7828 11.4018,25.8917 z"
   class="fil4"
   id="path4131" />
   <path
   style="fill:#ffffff"
   inkscape:connector-curvature="0"
   d="m 259.109,161.558 -12.3432,0.77584 c -3.53395,-6.60331 -5.65654,-17.2366 -5.23049,-31.1508 -4.37641,5.19931 -11.4506,10.6895 -18.4842,13.2313 l 1.25178,-5.74328 c -5.58425,1.90772 -11.1685,2.1549 -16.7536,0.7407 l 5.99443,-6.48539 c -5.91648,0.56182 -11.8335,-2.19742 -17.7511,-8.27859 l 4.50114,-3.23802 c -4.41071,-2.91628 -7.99115,-6.08117 -9.74552,-10.9908 l 3.24425,0.21656 c -3.57647,-4.66129 -5.90769,-11.481197 -7.49254,-17.472197 l 7.2377,2.24561 c -4.11166,-6.50126 -5.0264,-13.0028 -4.48838,-19.5046 l 4.99351,1.75096 c -0.74268,-5.99726 -0.15732,-11.2479 1.75635,-17.2466 l 5.99159,3.75222 c 0.003,-5.74498 0.58819,-10.8264 3.24822,-15.2439 l 6.50637,2.73033 c 1.17411,-5.91477 3.67654,-11.4979 7.50671,-16.7499 l 3.99345,5.2475 c 2.67251,-5.91477 5.92668,-12.4937 9.26306,-17.7446 l 3.74457,3.75194 c 3.16517,-8.65559 9.81752,-14.3221 12.4849,-21.4832 2.66712,7.16117 6.71641,8.59352 7.39106,17.7472 l 4.49178,-1.26113 c 3.33638,5.2509 3.35282,8.59182 6.02533,14.5066 l 6.73314,-4.99862 c 3.83018,5.25203 2.34737,7.34826 3.52148,13.2633 l 7.25358,-2.23228 c 2.66003,4.41751 1.75039,8.25336 1.7538,13.9983 l 8.23323,-1.26142 c 1.91367,5.99868 5.23899,13.989 4.49632,19.9862 l 5.2424,-2.99622 c 0.53802,6.50183 1.61575,12.7542 -2.49591,19.2555 l 5.4944,-1.24923 c -1.58485,5.99103 -3.16885,15.301397 -6.74533,19.962697 l 5.73506,-0.96378 c -1.75465,4.90961 -5.58397,12.3089 -9.99468,15.2252 l 5.49723,3.73606 c -2.43043,1.09984 -4.6114,3.85909 -9.5315,3.29726 l 0.76365,7.97982 c -5.58482,1.41421 -12.9127,1.91424 -18.4969,0.007 l 1.25178,5.74328 c -19.4873,-0.54907 -18.8402,-6.03922 -27.4507,-8.748 0.42605,13.9141 5.96892,20.7828 11.4018,25.8917 z"
   class="fil3"
   id="path4131_5" />
   <path
   style="fill:#00923f"
   inkscape:connector-curvature="0"
   d="m 261.56,164.596 -12.3432,0.77584 c -3.53395,-6.60303 -5.65654,-17.2364 -5.23049,-31.1508 -4.37641,5.19959 -11.4506,10.6897 -18.4842,13.2313 l 1.25178,-5.74328 c -5.58425,1.908 -11.1685,2.15518 -16.7536,0.7407 l 5.99443,-6.48511 c -5.91648,0.56154 -11.8335,-2.19742 -17.7511,-8.27887 l 4.50114,-3.23773 c -4.41071,-2.91657 -7.99115,-6.08145 -9.74552,-10.9911 l 3.24425,0.21656 c -3.57647,-4.66129 -5.90769,-11.4812 -7.49254,-17.471897 l 7.23799,2.24532 c -4.11194,-6.50126 -5.0264,-13.0028 -4.48866,-19.5046 l 4.99351,1.75096 c -0.74268,-5.99726 -0.15732,-11.2479 1.75635,-17.2463 l 5.99159,3.75194 c 0.003,-5.74498 0.58819,-10.8261 3.24822,-15.2436 l 6.50665,2.73033 c 1.17383,-5.91506 3.67625,-11.4982 7.50643,-16.7502 l 3.99345,5.2475 c 2.67251,-5.91449 5.92668,-12.4937 9.26334,-17.7446 l 3.74429,3.75194 c 3.16545,-8.65531 9.8178,-14.3221 12.4849,-21.4832 2.66712,7.16117 6.7167,8.59352 7.39134,17.7472 l 4.4915,-1.26113 c 3.33666,5.2509 3.35282,8.5921 6.02533,14.5066 l 6.73314,-4.99833 c 3.83018,5.25203 2.34765,7.34797 3.52148,13.263 l 7.25358,-2.23228 c 2.66003,4.41751 1.75039,8.25336 1.7538,13.9983 l 8.23352,-1.26113 c 1.91339,5.9984 5.23871,13.9887 4.49603,19.9862 l 5.24268,-2.99651 c 0.53773,6.50183 1.61575,12.7545 -2.49619,19.2555 l 5.4944,-1.24895 c -1.58485,5.99074 -3.16885,15.301397 -6.74533,19.962697 l 5.73506,-0.96378 c -1.75436,4.90961 -5.58397,12.3089 -9.99468,15.2252 l 5.49751,3.73606 c -2.43071,1.09984 -4.6114,3.85881 -9.53178,3.29726 l 0.76394,7.97953 c -5.58511,1.41449 -12.913,1.91452 -18.4972,0.007 l 1.25178,5.74328 c -19.4871,-0.54907 -18.8402,-6.03922 -27.4507,-8.748 0.42604,13.9144 5.9692,20.7828 11.4018,25.8917 z"
   class="fil5"
   id="path4131_6" />
   <path
   style="fill:#ffffff"
   inkscape:connector-curvature="0"
   d="m 248.755,18.1891 c 0.83027,50.8933 -8.05323,123.954 -1.24554,144.461 l -5.72854,-5.9777 c -0.66416,-40.9309 4.64967,-92.3228 6.97408,-138.484 z"
   class="fil3"
   id="_81300160" />
   <path
   style="fill:#1f1a17"
   inkscape:connector-curvature="0"
   d="m 260.71,165.141 2.24164,-4.2344 c -19.669,-11.3375 -5.81528,-75.2392 -12.4537,-138.982 2.09934,103.433 -9.36936,119.013 10.2121,143.216 z"
   class="fil4"
   id="_81301024" />
   <path
   style="fill:#1f1a17"
   inkscape:connector-curvature="0"
   d="m 259.216,32.8842 c 0.74721,10.3779 -3.98523,11.291 -7.47213,16.9367 l -0.24917,-3.73606 c 2.57386,-4.40051 6.64216,-1.32832 7.7213,-13.2007 z"
   class="fil4"
   id="_81301312" />
   <path
   style="fill:#1f1a17"
   inkscape:connector-curvature="0"
   d="m 270.175,40.8759 c 0.74721,11.8724 -14.9443,22.4994 -18.4312,28.1452 l -0.24916,-3.73606 c 2.57386,-4.40051 16.60509,-12.0387 18.68029,-24.4091 z"
   class="fil4"
   id="_80494784" />
   <path
   style="fill:#1f1a17"
   inkscape:connector-curvature="0"
   d="m 282.877,58.1511 c 0.74721,11.8724 -27.6469,29.2241 -31.1338,34.8701 l -0.24917,-3.73606 c 3.57024,-6.39326 29.3077,-18.7637 31.3829,-31.1341 z"
   class="fil4"
   id="_96327640" />
   <path
   style="fill:#1f1a17"
   inkscape:connector-curvature="0"
   d="m 290.848,81.0658 c 0.24917,18.0989 -36.6134,25.488 -40.1003,31.1338 l -0.24917,-3.73606 c 2.82303,-4.64967 35.53461,-8.55156 40.3495,-27.3977 z"
   class="fil4"
   id="_81301816" />
   <path
   style="fill:#1f1a17"
   inkscape:connector-curvature="0"
   d="m 300.81,100.991 c -5.23049,23.8278 -45.58,18.0159 -50.0633,22.6656 l -0.24917,-3.73606 c 4.81551,-3.65329 39.7687,3.90189 50.3124,-18.9295 z"
   class="fil4"
   id="_81298720" />
   <path
   style="fill:#1f1a17"
   inkscape:connector-curvature="0"
   d="m 288.108,133.371 c -15.4423,6.14353 -29.1413,-2.65691 -36.6134,-0.49805 l -0.24917,-3.73606 c 10.2716,0.0593 16.4656,8.24542 36.8626,4.23411 z"
   class="fil4"
   id="_80495672" />
   <path
   style="fill:#ffffff"
   inkscape:connector-curvature="0"
   d="m 239.866,32.3861 c -0.74721,10.3776 3.98523,11.291 7.47213,16.9367 l 0.24916,-3.73606 c -2.57385,-4.40051 -6.64214,-1.3286 -7.7213,-13.2007 z"
   class="fil3"
   id="_96328360" />
   <path
   style="fill:#ffffff"
   inkscape:connector-curvature="0"
   d="m 231.343,41.3742 c 0.004,11.372 12.7077,21.4158 14.9443,27.896 l 0.24916,-3.73606 c -1.76202,-6.02448 -12.598,-12.8293 -15.1934,-24.16 z"
   class="fil3"
   id="_96320920" />
   <path
   style="fill:#ffffff"
   inkscape:connector-curvature="0"
   d="m 220.882,51.586 c -1.86406,13.2406 16.4846,30.092 20.1748,35.119 l 0.24917,-3.73606 c -2.69604,-3.22186 -18.88641,-16.8769 -20.42391,-31.3829 z"
   class="fil3"
   id="_80338712" />
   <path
   style="fill:#ffffff"
   inkscape:connector-curvature="0"
   d="m 205.306,72.7787 c -0.24888,16.2077 32.1304,24.4667 35.6171,32.8774 l 0.24916,-3.73606 c -1.58712,-6.70933 -30.2876,-11.5673 -35.86619,-29.1413 z"
   class="fil3"
   id="_81301168" />
   <path
   style="fill:#ffffff"
   inkscape:connector-curvature="0"
   d="m 199.688,104.866 c 12.7026,10.461 22.4164,8.96656 39.6023,12.7026 l 0,2.24164 c -20.5489,-3.69496 -29.7644,-4.60829 -39.6023,-14.9443 z"
   class="fil3"
   id="_96327136" />
   <path
   style="fill:#ffffff"
   inkscape:connector-curvature="0"
   d="m 204.669,123.048 c 12.7029,9.96293 21.4203,7.22296 33.6249,7.22296 l 0,2.24164 c -14.5712,-0.20778 -23.7869,0.87137 -33.6249,-9.4646 z"
   class="fil3"
   id="_96321184" />
  </g><g
   id="_96319456"
   transform="translate(0.03125,-15.375)">
   <path
   style="fill:#1f1a17"
   inkscape:connector-curvature="0"
   d="m 114.521,166.358 -12.3432,0.77584 c -3.53395,-6.60303 -5.65654,-17.2364 -5.23049,-31.1508 -4.37641,5.19959 -11.4506,10.6897 -18.4842,13.2313 l 1.25178,-5.74328 c -5.58425,1.908 -11.1685,2.15518 -16.7536,0.7407 l 5.99443,-6.48511 c -5.91648,0.56154 -11.8332,-2.19742 -17.7508,-8.27887 l 4.50085,-3.23773 c -4.41071,-2.91628 -7.99087,-6.08145 -9.74552,-10.9911 l 3.24454,0.21656 c -3.57676,-4.66129 -5.90797,-11.4812 -7.49254,-17.471897 l 7.2377,2.245317 C 44.83829,93.707673 43.92355,87.206133 44.46129,80.704333 l 4.99351,1.75096 c -0.742678,-5.99726 -0.157039,-11.2479 1.75635,-17.2463 l 5.99188,3.75194 c 0.0034,-5.74498 0.587906,-10.8261 3.24794,-15.2436 l 6.50665,2.73033 c 1.17383,-5.91506 3.67625,-11.4982 7.50643,-16.7502 l 3.99345,5.2475 c 2.67251,-5.91449 5.92668,-12.4937 9.26334,-17.7446 l 3.74429,3.75194 c 3.16545,-8.65531 9.8178,-14.3221 12.4849,-21.4832 2.66712,7.16117 6.7167,8.59352 7.39134,17.7472 l 4.4915,-1.26113 c 3.33666,5.2509 3.35282,8.5921 6.02533,14.5066 l 6.73342,-4.99833 c 3.83018,5.25203 2.34737,7.34797 3.5212,13.263 l 7.25386,-2.23228 c 2.66003,4.41751 1.75011,8.25336 1.75351,13.9983 l 8.23352,-1.26113 c 1.91339,5.9984 5.23871,13.9887 4.49603,19.9862 l 5.24268,-2.99651 c 0.53773,6.50183 1.61575,12.7545 -2.49619,19.2555 l 5.4944,-1.24895 c -1.58485,5.990737 -3.16885,15.301397 -6.74533,19.962697 l 5.73506,-0.96378 c -1.75436,4.90961 -5.58397,12.3089 -9.99468,15.2252 l 5.49751,3.73606 c -2.43071,1.09984 -4.6114,3.85881 -9.53178,3.29726 l 0.76394,7.97953 c -5.58511,1.41449 -12.9127,1.91452 -18.4969,0.007 l 1.25178,5.74328 c -19.4873,-0.54907 -18.8405,-6.03922 -27.451,-8.748 0.42604,13.9144 5.9692,20.7828 11.4018,25.8917 z"
   class="fil4"
   id="path4131_7" />
   <path
   style="fill:#ffffff"
   inkscape:connector-curvature="0"
   d="m 110.309,161.558 -12.3432,0.77584 c -3.53395,-6.60331 -5.65654,-17.2366 -5.23049,-31.1508 -4.37641,5.19931 -11.4506,10.6895 -18.4842,13.2313 l 1.25178,-5.74328 c -5.58425,1.90772 -11.1685,2.1549 -16.7536,0.7407 l 5.99443,-6.48539 c -5.91648,0.56182 -11.8335,-2.19742 -17.7511,-8.27859 l 4.50114,-3.23802 c -4.41071,-2.91628 -7.99115,-6.08117 -9.74552,-10.9908 l 3.24425,0.21656 C 41.41602,105.97423 39.0848,99.154323 37.49995,93.163323 l 7.23799,2.24561 c -4.11194,-6.50126 -5.0264,-13.0028 -4.48866,-19.5046 l 4.99351,1.75096 c -0.742678,-5.99726 -0.157323,-11.2479 1.75635,-17.2466 l 5.99159,3.75222 c 0.0034,-5.74498 0.588189,-10.8264 3.24822,-15.2439 l 6.50637,2.73033 c 1.17411,-5.91477 3.67654,-11.4979 7.50671,-16.7499 l 3.99345,5.2475 c 2.67251,-5.91477 5.92668,-12.4937 9.26306,-17.7446 l 3.74457,3.75194 c 3.16517,-8.65559 9.81752,-14.3221 12.4849,-21.4832 2.66712,7.16117 6.71641,8.59352 7.39106,17.7472 l 4.49178,-1.26113 c 3.33638,5.2509 3.35282,8.59182 6.02533,14.5066 l 6.73314,-4.99862 c 3.83018,5.25203 2.34765,7.34826 3.52148,13.2633 l 7.25358,-2.23228 c 2.66003,4.41751 1.75039,8.25336 1.7538,13.9983 l 8.23323,-1.26142 c 1.91367,5.99868 5.23899,13.989 4.49632,19.9862 l 5.2424,-2.99622 c 0.53802,6.50183 1.61575,12.7542 -2.49591,19.2555 l 5.4944,-1.24923 c -1.58485,5.99103 -3.16885,15.301397 -6.74533,19.962697 l 5.73506,-0.96378 c -1.75465,4.90961 -5.58397,12.3089 -9.99468,15.2252 l 5.49723,3.73606 c -2.43043,1.09984 -4.6114,3.85909 -9.5315,3.29726 l 0.76394,7.97982 c -5.58511,1.41421 -12.913,1.91424 -18.4972,0.007 l 1.25178,5.74328 c -19.4873,-0.54907 -18.8402,-6.03922 -27.450703,-8.748 0.426047,13.9141 5.968923,20.7828 11.401803,25.8917 z"
   class="fil3"
   id="path4131_8" />
   <path
   style="fill:#00923f"
   inkscape:connector-curvature="0"
   d="m 112.759,164.596 -12.3432,0.77584 c -3.53395,-6.60303 -5.65654,-17.2364 -5.23049,-31.1508 -4.37641,5.19959 -11.4506,10.6897 -18.4842,13.2313 l 1.25178,-5.74328 c -5.58425,1.908 -11.1685,2.15518 -16.7536,0.7407 l 5.99443,-6.48511 c -5.91648,0.56154 -11.8332,-2.19742 -17.7508,-8.27887 l 4.50085,-3.23773 c -4.41071,-2.91657 -7.99087,-6.08145 -9.74552,-10.9911 l 3.24454,0.21656 c -3.57676,-4.66129 -5.90797,-11.4812 -7.49254,-17.471897 l 7.2377,2.24532 c -4.11166,-6.50126 -5.0264,-13.0028 -4.48866,-19.5046 l 4.99351,1.75096 c -0.742678,-5.99726 -0.157039,-11.2479 1.75635,-17.2463 l 5.99188,3.75194 c 0.0034,-5.74498 0.587906,-10.8261 3.24794,-15.2436 l 6.50665,2.73033 c 1.17383,-5.91506 3.67625,-11.4982 7.50643,-16.7502 l 3.99345,5.2475 c 2.67251,-5.91449 5.92668,-12.4937 9.26334,-17.7446 l 3.74429,3.75194 c 3.16545,-8.65531 9.8178,-14.3221 12.4849,-21.4832 2.66712,7.16117 6.7167,8.59352 7.39134,17.7472 l 4.4915,-1.26113 c 3.33666,5.2509 3.35282,8.5921 6.02533,14.5066 l 6.73342,-4.99833 c 3.83018,5.25203 2.34737,7.34797 3.5212,13.263 l 7.25386,-2.23228 c 2.66003,4.41751 1.75011,8.25336 1.75351,13.9983 l 8.23352,-1.26113 c 1.91339,5.9984 5.23871,13.9887 4.49603,19.9862 l 5.24268,-2.99651 c 0.53773,6.50183 1.61575,12.7545 -2.49619,19.2555 l 5.4944,-1.24895 c -1.58485,5.99074 -3.16885,15.301397 -6.74533,19.962697 l 5.73506,-0.96378 c -1.75436,4.90961 -5.58397,12.3089 -9.99468,15.2252 l 5.49751,3.73606 c -2.43071,1.09984 -4.6114,3.85881 -9.53178,3.29726 l 0.76394,7.97953 c -5.58511,1.41449 -12.9127,1.91452 -18.4969,0.007 l 1.25178,5.74328 c -19.4873,-0.54907 -18.8405,-6.03922 -27.451,-8.748 0.42604,13.9144 5.9692,20.7828 11.4018,25.8917 z"
   class="fil5"
   id="path4131_9" />
   <path
   style="fill:#ffffff"
   inkscape:connector-curvature="0"
   d="m 99.9545,18.1891 c 0.83027,50.8933 -8.05323,123.954 -1.24554,144.461 l -5.72854,-5.9777 C 92.316262,115.7415 97.63009,64.3496 99.9545,18.1884 z"
   class="fil3"
   id="_81301240" />
   <path
   style="fill:#1f1a17"
   inkscape:connector-curvature="0"
   d="m 111.91,165.141 2.24164,-4.2344 c -19.669,-11.3375 -5.81528,-75.2392 -12.4537,-138.982 2.09934,103.433 -9.36936,119.013 10.2121,143.216 z"
   class="fil4"
   id="_81300016" />
   <path
   style="fill:#1f1a17"
   inkscape:connector-curvature="0"
   d="m 110.415,32.8842 c 0.74721,10.3779 -3.98523,11.291 -7.47213,16.9367 l -0.24917,-3.73606 c 2.57386,-4.40051 6.64215,-1.32832 7.7213,-13.2007 z"
   class="fil4"
   id="_81300832" />
   <path
   style="fill:#1f1a17"
   inkscape:connector-curvature="0"
   d="m 121.374,40.8759 c 0.74721,11.8724 -14.9443,22.4994 -18.4312,28.1452 l -0.24917,-3.73606 c 2.57386,-4.40051 16.6051,-12.0387 18.6803,-24.4091 z"
   class="fil4"
   id="_96319168" />
   <path
   style="fill:#1f1a17"
   inkscape:connector-curvature="0"
   d="m 134.077,58.1511 c 0.74721,11.8724 -27.6469,29.2241 -31.1338,34.8701 l -0.24917,-3.73606 c 3.57024,-6.39326 29.3077,-18.7637 31.3829,-31.1341 z"
   class="fil4"
   id="_96328048" />
   <path
   style="fill:#1f1a17"
   inkscape:connector-curvature="0"
   d="m 142.048,81.0658 c 0.24888,18.0989 -36.6137,25.488 -40.1006,31.1338 l -0.24917,-3.73606 c 2.82304,-4.64967 35.5346,-8.55156 40.3498,-27.3977 z"
   class="fil4"
   id="_96327280" />
   <path
   style="fill:#1f1a17"
   inkscape:connector-curvature="0"
   d="m 152.01,100.991 c -5.23049,23.8278 -45.58,18.0159 -50.0633,22.6656 l -0.24917,-3.73606 c 4.8155,-3.65329 39.7687,3.90189 50.3124,-18.9295 z"
   class="fil4"
   id="_96327952" />
   <path
   style="fill:#1f1a17"
   inkscape:connector-curvature="0"
   d="m 139.308,133.371 c -15.4423,6.14353 -29.1413,-2.65691 -36.6134,-0.49805 l -0.24917,-3.73606 c 10.2716,0.0593 16.4656,8.24542 36.8626,4.23411 z"
   class="fil4"
   id="_81301072" />
   <path
   style="fill:#ffffff"
   inkscape:connector-curvature="0"
   d="m 91.0653,32.3861 c -0.747213,10.3776 3.98523,11.291 7.47213,16.9367 l 0.249165,-3.73606 c -2.57386,-4.40051 -6.64215,-1.3286 -7.7213,-13.2007 z"
   class="fil3"
   id="_81301456" />
   <path
   style="fill:#ffffff"
   inkscape:connector-curvature="0"
   d="m 82.5424,41.3742 c 0.004,11.372 12.7077,21.4158 14.9443,27.896 l 0.249165,-3.73606 c -1.76202,-6.02448 -12.598,-12.8293 -15.1934,-24.16 z"
   class="fil3"
   id="_96318832" />
   <path
   style="fill:#ffffff"
   inkscape:connector-curvature="0"
   d="M 72.0814,51.586 C 70.21734,64.8266 88.566,81.678 92.2562,86.705 l 0.249165,-3.73606 c -2.69603,-3.22186 -18.8864,-16.8769 -20.4239,-31.3829 z"
   class="fil3"
   id="_80494736" />
   <path
   style="fill:#ffffff"
   inkscape:connector-curvature="0"
   d="m 56.5053,72.7787 c -0.248599,16.2077 32.1304,24.4667 35.6171,32.8774 l 0.249165,-3.73606 c -1.58712,-6.70933 -30.2876,-11.5673 -35.8662,-29.1413 z"
   class="fil3"
   id="_80492720" />
   <path
   style="fill:#ffffff"
   inkscape:connector-curvature="0"
   d="m 50.8873,104.866 c 12.7026,10.461 22.4164,8.96656 39.6023,12.7026 l 0,2.24164 c -20.5489,-3.69496 -29.7644,-4.60829 -39.6023,-14.9443 z"
   class="fil3"
   id="_96324664" />
   <path
   style="fill:#ffffff"
   inkscape:connector-curvature="0"
   d="m 55.8689,123.048 c 12.7026,9.96293 21.42,7.22296 33.6246,7.22296 l 0,2.24164 c -14.5712,-0.20778 -23.7869,0.87137 -33.6246,-9.4646 z"
   class="fil3"
   id="_78727800" />
  </g><g
   id="_80335712"
   transform="translate(0.03125,-15.375)">
   <path
   style="fill:#1f1a17"
   inkscape:connector-curvature="0"
   d="m 412.122,166.358 -12.3432,0.77584 c -3.53395,-6.60303 -5.65654,-17.2364 -5.23049,-31.1508 -4.37641,5.19959 -11.4506,10.6897 -18.4842,13.2313 l 1.25178,-5.74328 c -5.58425,1.908 -11.1685,2.15518 -16.7536,0.7407 l 5.99443,-6.48511 c -5.91648,0.56154 -11.8335,-2.19742 -17.7511,-8.27887 l 4.50114,-3.23773 c -4.41071,-2.91628 -7.99115,-6.08145 -9.74552,-10.9911 l 3.24425,0.21656 c -3.57647,-4.66129 -5.90769,-11.4812 -7.49254,-17.471897 l 7.23799,2.245317 c -4.11194,-6.501257 -5.0264,-13.002797 -4.48866,-19.504597 l 4.99351,1.75096 c -0.74268,-5.99726 -0.15732,-11.2479 1.75635,-17.2463 l 5.99159,3.75194 c 0.003,-5.74498 0.58819,-10.8261 3.24822,-15.2436 l 6.50637,2.73033 c 1.17411,-5.91506 3.67654,-11.4982 7.50671,-16.7502 l 3.99345,5.2475 c 2.67251,-5.91449 5.92668,-12.4937 9.26334,-17.7446 l 3.74429,3.75194 c 3.16545,-8.65531 9.8178,-14.3221 12.4849,-21.4832 2.66712,7.16117 6.7167,8.59352 7.39134,17.7472 l 4.4915,-1.26113 c 3.33666,5.2509 3.35282,8.5921 6.02533,14.5066 l 6.73314,-4.99833 c 3.83018,5.25203 2.34765,7.34797 3.52148,13.263 l 7.25358,-2.23228 c 2.66003,4.41751 1.75039,8.25336 1.7538,13.9983 l 8.23323,-1.26113 c 1.91367,5.9984 5.23899,13.9887 4.49632,19.9862 l 5.2424,-2.99651 c 0.53802,6.50183 1.61575,12.7545 -2.49591,19.2555 l 5.4944,-1.24895 c -1.58485,5.990737 -3.16885,15.301397 -6.74533,19.962697 l 5.73506,-0.96378 c -1.75465,4.90961 -5.58397,12.3089 -9.99468,15.2252 l 5.49723,3.73606 c -2.43043,1.09984 -4.6114,3.85881 -9.5315,3.29726 l 0.76394,7.97953 c -5.58511,1.41449 -12.913,1.91452 -18.4972,0.007 l 1.25178,5.74328 c -19.4871,-0.54907 -18.8402,-6.03922 -27.4507,-8.748 0.42604,13.9144 5.9692,20.7828 11.4018,25.8917 z"
   class="fil4"
   id="path4131_10" />
   <path
   style="fill:#ffffff"
   inkscape:connector-curvature="0"
   d="m 407.909,161.558 -12.3432,0.77584 c -3.53395,-6.60331 -5.65654,-17.2366 -5.23049,-31.1508 -4.37641,5.19931 -11.4506,10.6895 -18.4845,13.2313 l 1.25178,-5.74328 c -5.58425,1.90772 -11.1685,2.1549 -16.7533,0.7407 l 5.99414,-6.48539 c -5.91648,0.56182 -11.8332,-2.19742 -17.7508,-8.27859 l 4.50114,-3.23802 c -4.41071,-2.91628 -7.99115,-6.08117 -9.74552,-10.9908 l 3.24425,0.21656 c -3.57647,-4.66129 -5.90769,-11.481197 -7.49254,-17.472197 l 7.2377,2.24561 c -4.11166,-6.50126 -5.0264,-13.0028 -4.48838,-19.5046 l 4.99351,1.75096 c -0.74268,-5.99726 -0.15732,-11.2479 1.75635,-17.2466 l 5.99159,3.75222 c 0.003,-5.74498 0.58819,-10.8264 3.24822,-15.2439 l 6.50637,2.73033 c 1.17383,-5.91477 3.67625,-11.4979 7.50643,-16.7499 l 3.99345,5.2475 c 2.67251,-5.91477 5.92668,-12.4937 9.26334,-17.7446 l 3.74457,3.75194 c 3.16517,-8.65559 9.81752,-14.3221 12.4849,-21.4832 2.66712,7.16117 6.71641,8.59352 7.39106,17.7472 l 4.49178,-1.26113 c 3.33638,5.2509 3.35282,8.59182 6.02533,14.5066 l 6.73314,-4.99862 c 3.83018,5.25203 2.34737,7.34826 3.52148,13.2633 l 7.25358,-2.23228 c 2.66003,4.41751 1.75039,8.25336 1.7538,13.9983 l 8.23323,-1.26142 c 1.91367,5.99868 5.23871,13.989 4.49603,19.9862 l 5.24268,-2.99622 c 0.53773,6.50183 1.61575,12.7542 -2.49591,19.2555 l 5.49411,-1.24923 c -1.58457,5.99103 -3.16857,15.301397 -6.74533,19.962697 l 5.73506,-0.96378 c -1.75436,4.90961 -5.58369,12.3089 -9.9944,15.2252 l 5.49723,3.73606 c -2.43071,1.09984 -4.6114,3.85909 -9.5315,3.29726 l 0.76365,7.97982 c -5.58482,1.41421 -12.9127,1.91424 -18.4969,0.007 l 1.25178,5.74328 c -19.4873,-0.54907 -18.8402,-6.03922 -27.4507,-8.748 0.42605,13.9141 5.96892,20.7828 11.4018,25.8917 z"
   class="fil3"
   id="path4131_11" />
   <path
   style="fill:#00923f"
   inkscape:connector-curvature="0"
   d="m 410.36,164.596 -12.3432,0.77584 c -3.53395,-6.60303 -5.65654,-17.2364 -5.23049,-31.1508 -4.37641,5.19959 -11.4506,10.6897 -18.4842,13.2313 l 1.25178,-5.74328 c -5.58425,1.908 -11.1685,2.15518 -16.7536,0.7407 l 5.99443,-6.48511 c -5.91648,0.56154 -11.8335,-2.19742 -17.7511,-8.27887 l 4.50114,-3.23773 c -4.41071,-2.91657 -7.99115,-6.08145 -9.74552,-10.9911 l 3.24425,0.21656 c -3.57647,-4.66129 -5.90769,-11.4812 -7.49254,-17.471897 l 7.23799,2.24532 c -4.11194,-6.50126 -5.0264,-13.0028 -4.48866,-19.5046 l 4.99351,1.75096 c -0.74268,-5.99726 -0.15732,-11.2479 1.75635,-17.2463 l 5.99159,3.75194 c 0.003,-5.74498 0.58819,-10.8261 3.24822,-15.2436 l 6.50637,2.73033 c 1.17411,-5.91506 3.67654,-11.4982 7.50671,-16.7502 l 3.99345,5.2475 c 2.67251,-5.91449 5.92668,-12.4937 9.26334,-17.7446 l 3.74429,3.75194 c 3.16545,-8.65531 9.8178,-14.3221 12.4849,-21.4832 2.66712,7.16117 6.7167,8.59352 7.39134,17.7472 l 4.4915,-1.26113 c 3.33666,5.2509 3.35282,8.5921 6.02533,14.5066 l 6.73314,-4.99833 c 3.83018,5.25203 2.34765,7.34797 3.52148,13.263 l 7.25358,-2.23228 c 2.66003,4.41751 1.75039,8.25336 1.7538,13.9983 l 8.23323,-1.26113 c 1.91367,5.9984 5.23899,13.9887 4.49632,19.9862 l 5.2424,-2.99651 c 0.53802,6.50183 1.61575,12.7545 -2.49591,19.2555 l 5.4944,-1.24895 c -1.58485,5.99074 -3.16885,15.301397 -6.74533,19.962697 l 5.73506,-0.96378 c -1.75465,4.90961 -5.58397,12.3089 -9.99468,15.2252 l 5.49723,3.73606 c -2.43043,1.09984 -4.6114,3.85881 -9.5315,3.29726 l 0.76394,7.97953 c -5.58511,1.41449 -12.913,1.91452 -18.4972,0.007 l 1.25178,5.74328 c -19.4871,-0.54907 -18.8402,-6.03922 -27.4507,-8.748 0.42604,13.9144 5.9692,20.7828 11.4018,25.8917 z"
   class="fil5"
   id="path4131_12" />
   <path
   style="fill:#ffffff"
   inkscape:connector-curvature="0"
   d="m 397.555,18.1891 c 0.83027,50.8933 -8.05323,123.954 -1.24554,144.461 l -5.72854,-5.9777 c -0.66416,-40.9309 4.64967,-92.3228 6.97408,-138.484 z"
   class="fil3"
   id="_96321904" />
   <path
   style="fill:#1f1a17"
   inkscape:connector-curvature="0"
   d="m 409.51,165.141 2.24164,-4.2344 c -19.669,-11.3375 -5.81528,-75.2392 -12.4537,-138.982 2.09934,103.433 -9.36936,119.013 10.2121,143.216 z"
   class="fil4"
   id="_96324400" />
   <path
   style="fill:#1f1a17"
   inkscape:connector-curvature="0"
   d="m 408.016,32.8842 c 0.74721,10.3779 -3.98523,11.291 -7.47213,16.9367 l -0.24916,-3.73606 c 2.57386,-4.40051 6.64215,-1.32832 7.72129,-13.2007 z"
   class="fil4"
   id="_96323272" />
   <path
   style="fill:#1f1a17"
   inkscape:connector-curvature="0"
   d="m 418.975,40.8759 c 0.74721,11.8724 -14.9443,22.4994 -18.4312,28.1452 l -0.24916,-3.73606 c 2.57386,-4.40051 16.6051,-12.0387 18.6803,-24.4091 z"
   class="fil4"
   id="_96325384" />
   <path
   style="fill:#1f1a17"
   inkscape:connector-curvature="0"
   d="m 431.678,58.1511 c 0.74721,11.8724 -27.6469,29.2241 -31.1338,34.8701 l -0.24917,-3.73606 c 3.57024,-6.39326 29.3077,-18.7637 31.3829,-31.1341 z"
   class="fil4"
   id="_96325696" />
   <path
   style="fill:#1f1a17"
   inkscape:connector-curvature="0"
   d="m 439.648,81.0658 c 0.24917,18.0989 -36.6134,25.488 -40.1003,31.1338 l -0.24916,-3.73606 c 2.82303,-4.64967 35.5346,-8.55156 40.34949,-27.3977 z"
   class="fil4"
   id="_96326848" />
   <path
   style="fill:#1f1a17"
   inkscape:connector-curvature="0"
   d="m 449.611,100.991 c -5.23049,23.8278 -45.58,18.0159 -50.0633,22.6656 l -0.24917,-3.73606 c 4.8155,-3.65329 39.7687,3.90189 50.3124,-18.9295 z"
   class="fil4"
   id="_96323920" />
   <path
   style="fill:#1f1a17"
   inkscape:connector-curvature="0"
   d="m 436.908,133.371 c -15.4423,6.14353 -29.1413,-2.65691 -36.6134,-0.49805 l -0.24917,-3.73606 c 10.2716,0.0593 16.4656,8.24542 36.8626,4.23411 z"
   class="fil4"
   id="_96320848" />
   <path
   style="fill:#ffffff"
   inkscape:connector-curvature="0"
   d="m 388.666,32.3861 c -0.74721,10.3776 3.98523,11.291 7.47213,16.9367 l 0.24916,-3.73606 c -2.57386,-4.40051 -6.64215,-1.3286 -7.7213,-13.2007 z"
   class="fil3"
   id="_96320344" />
   <path
   style="fill:#ffffff"
   inkscape:connector-curvature="0"
   d="m 380.143,41.3742 c 0.004,11.372 12.7077,21.4158 14.9443,27.896 l 0.24916,-3.73606 c -1.76202,-6.02448 -12.598,-12.8293 -15.1934,-24.16 z"
   class="fil3"
   id="_96326296" />
   <path
   style="fill:#ffffff"
   inkscape:connector-curvature="0"
   d="m 369.682,51.586 c -1.86406,13.2406 16.4846,30.092 20.1748,35.119 l 0.24917,-3.73606 c -2.69603,-3.22186 -18.8864,-16.8769 -20.4239,-31.3829 z"
   class="fil3"
   id="_96324544" />
   <path
   style="fill:#ffffff"
   inkscape:connector-curvature="0"
   d="m 354.106,72.7787 c -0.24888,16.2077 32.1304,24.4667 35.6171,32.8774 l 0.24916,-3.73606 c -1.58712,-6.70933 -30.2876,-11.5673 -35.8662,-29.1413 z"
   class="fil3"
   id="_96322576" />
   <path
   style="fill:#ffffff"
   inkscape:connector-curvature="0"
   d="m 348.488,104.866 c 12.7026,10.461 22.4164,8.96656 39.6023,12.7026 l 0,2.24164 c -20.5489,-3.69496 -29.7646,-4.60829 -39.6023,-14.9443 z"
   class="fil3"
   id="_96328576" />
   <path
   style="fill:#ffffff"
   inkscape:connector-curvature="0"
   d="m 353.469,123.048 c 12.7026,9.96293 21.4203,7.22296 33.6249,7.22296 l 0,2.24164 c -14.5715,-0.20778 -23.7869,0.87137 -33.6249,-9.4646 z"
   class="fil3"
   id="_81301528" />
  </g><path
   style="fill:#ffffff"
   inkscape:connector-curvature="0"
   id="path85"
   d="m 114.94325,344.488 c 0.87931,28.8783 8.04331,56.3817 23.0227,77.4275 l 3.49115,-0.42038 c -9.34867,-12.3832 -22.6228,-40.6817 -26.5139,-77.0072 z"
   class="fil3" /><path
   style="fill:#ffffff"
   inkscape:connector-curvature="0"
   id="path87"
   d="m 375.68225,328.913 c -0.87931,28.8785 -18.4989,60.5948 -39.939,79.8784 l -0.52923,-6.13786 c 12.4336,-11.5897 32.686,-34.7315 40.4683,-73.7405 z"
   class="fil3" /><path
   style="fill:#ffffff"
   inkscape:connector-curvature="0"
   id="path89"
   d="m 274.69925,395.587 -5.28605,-95.7365 c 0.48784,33.1866 1.66139,65.6861 5.28605,95.7365 z"
   class="fil3" /><polygon
   style="fill:#ffffff"
   id="polygon91"
   points="243.539,494.003 246.476,449.726 247.177,496.919 "
   class="fil3"
   transform="translate(0.03125,-15.375)" /><polygon
   style="fill:#ffffff"
   id="polygon93"
   points="234.142,265.301 235.317,235.934 237.666,233.585 237.079,265.301 "
   class="fil3"
   transform="translate(0.03125,-15.375)" /><polygon
   style="fill:#ffffff"
   id="polygon95"
   points="230.353,253.793 230.656,232.41 229.158,230.067 228.251,252.432 "
   class="fil3"
   transform="translate(0.03125,-15.375)" /><rect
   style="fill:#c0a062"
   id="rect97"
   ry="4.7143002"
   rx="4.7143002"
   height="54.881901"
   width="12.6981"
   y="245.086"
   x="307.99524"
   class="fil1" /><rect
   style="fill:#c0a062"
   id="rect99"
   ry="4.7143002"
   rx="4.7143002"
   height="54.881901"
   width="12.6981"
   y="245.086"
   x="178.39525"
   class="fil1" /><path
   style="fill:#752b19"
   inkscape:connector-curvature="0"
   id="path101"
   d="m 118.46725,334.503 c 10.3765,32.4995 25.8432,59.1256 44.0507,72.8303 l -2.59285,-7.73604 c 34.5382,-35.2072 2.12003,-58.0797 -23.2501,-80.9524 60.6915,55.4057 27.4091,65.5864 21.7315,79.8784 -13.3135,-12.528 -26.6264,-35.8265 -39.9393,-64.0202 z"
   class="fil2" /><path
   style="fill:#752b19"
   inkscape:connector-curvature="0"
   id="path103"
   d="m 165.45425,414.382 c -19.1441,-15.2147 -32.1619,-39.0045 -43.4631,-65.1946 10.5721,31.9119 25.0597,53.6437 43.4631,65.1946 z"
   class="fil2" /><path
   style="fill:#752b19"
   inkscape:connector-curvature="0"
   id="path105"
   d="m 260.60325,296.914 2.93669,97.4985 c 1.02189,14.6395 7.5824,23.1542 16.4455,29.9543 -9.78889,-12.3341 -14.8793,-19.3822 -14.6835,-29.9543 l -2.34369,-97.4603 -2.35502,-0.0383 z"
   class="fil2" /><path
   style="fill:#752b19"
   inkscape:connector-curvature="0"
   id="path107"
   d="m 265.40325,311.314 2.93669,78.2983 c 1.02217,14.6398 7.58268,23.1542 16.4455,29.9546 -9.78889,-12.3341 -14.8791,-19.3825 -14.6835,-29.9546 l -2.34369,-78.2601 -2.35502,-0.0383 z"
   class="fil2" /><path
   style="fill:#752b19"
   inkscape:connector-curvature="0"
   id="path109"
   d="m 372.78525,373.268 c -25.4512,95.1489 -94.3657,87.5135 -120.404,102.197 l 0,-4.69871 c 21.3401,-12.53 86.7306,-2.15348 120.404,-97.4983 z"
   class="fil2" /><path
   style="fill:#752b19"
   inkscape:connector-curvature="0"
   id="path111"
   d="m 380.42125,333.329 c -0.39175,35.6321 -8.19355,66.8486 -21.115,85.252 l 1.73254,2.26176 4.11137,-5.87339 c 45.6177,2.50583 65.7754,-27.3541 27.0179,-102.785 47.3786,105.134 -10.3765,97.4985 -25.2559,100.435 9.98675,-20.2615 16.0557,-44.93 13.5091,-79.291 z"
   class="fil2" /><path
   style="fill:#752b19"
   inkscape:connector-curvature="0"
   id="path113"
   d="m 203.45925,280.733 c 7.87919,-0.35291 16.1904,-0.50939 24.6974,-0.23499 -6.64753,2.21613 -28.1784,1.25065 -24.6974,0.23499 z"
   class="fil2" /><path
   style="fill:#752b19"
   inkscape:connector-curvature="0"
   id="path115"
   d="m 216.03725,255.752 c 18.9434,-1.59817 38.2116,-0.91162 57.1567,0 -19.2546,2.31874 -70.5365,-0.288 -57.1567,0 z"
   class="fil2" /><path
   style="fill:#752b19"
   inkscape:connector-curvature="0"
   id="path117"
   d="m 268.23925,180.62 c 17.7633,13.1958 13.945,41.444 -0.74466,50.2934 20.1756,-11.1648 17.3203,-42.0455 0.74466,-50.2934 z"
   class="fil2" /><path
   style="fill:#752b19"
   inkscape:connector-curvature="0"
   id="path119"
   d="m 225.49225,217.771 c -4.55273,-14.6143 -0.0763,-26.5935 13.1491,-36.0207 -15.3692,10.0675 -18.7679,22.2483 -13.1491,36.0207 z"
   class="fil2" /><path
   style="fill:#752b19"
   inkscape:connector-curvature="0"
   id="path121"
   d="m 315.75525,251.091 c 0.0428,-0.94139 0.15931,-2.58945 -0.82262,-3.64989 1.33398,0.58734 2.51178,1.33257 2.58633,3.17962 l 0,43.5759 c -0.47026,1.6115 -1.21493,2.12117 -1.99899,2.47323 0.48218,-0.8246 0.42407,-2.11975 0.23528,-2.9435 l 0,-42.6354 z"
   class="fil2" /><path
   style="fill:#752b19"
   inkscape:connector-curvature="0"
   id="path123"
   d="m 186.39025,250.856 c 0.0428,-0.94167 -0.076,-2.35446 -1.05789,-3.4149 1.33427,0.58734 2.51178,1.33257 2.58633,3.17962 l 0,43.5759 c -0.47027,1.6115 -1.21465,2.12117 -1.99899,2.47323 0.48217,-0.8246 0.65906,-1.64976 0.47055,-2.47323 l 0,-43.3406 z"
   class="fil2" /><polygon
   style="fill:#752b19"
   id="polygon125"
   points="251.863,495.25 249.514,452.663 248.113,497.827 "
   class="fil2"
   transform="translate(0.03125,-15.375)" /><path
   style="fill:#752b19"
   inkscape:connector-curvature="0"
   id="path127"
   d="m 216.03725,274.953 c 18.9434,-1.59846 38.2116,-0.91162 57.1567,0 -19.2546,2.31874 -70.5365,-0.288 -57.1567,0 z"
   class="fil2" /><path
   style="fill:#752b19"
   inkscape:connector-curvature="0"
   id="path129"
   d="m 218.38825,287.237 c 18.9434,-1.59846 38.2113,-0.91162 57.1567,0 -19.2549,2.31874 -70.5368,-0.288 -57.1567,0 z"
   class="fil2" /><path
   style="fill:#752b19"
   inkscape:connector-curvature="0"
   id="path131"
   d="m 262.46625,268.509 c 7.87919,-0.3532 16.1904,-0.50967 24.6971,-0.23528 -6.64725,2.21641 -28.1781,1.25065 -24.6971,0.23528 z"
   class="fil2" /><path
   style="fill:#752b19"
   inkscape:connector-curvature="0"
   id="path133"
   d="m 285.64625,272.27 c 5.88756,-0.35291 12.098,-0.50939 18.455,-0.23499 -4.96744,2.21613 -21.0563,1.25065 -18.455,0.23499 z"
   class="fil2" /><path
   style="fill:#752b19"
   inkscape:connector-curvature="0"
   id="path135"
   d="m 280.23925,255.109 c 5.88756,-0.3532 12.0983,-0.50967 18.455,-0.23528 -4.96715,2.21641 -21.056,1.25065 -18.455,0.23528 z"
   class="fil2" /><path
   style="fill:#752b19"
   inkscape:connector-curvature="0"
   id="path137"
   d="m 191.61125,257.695 c 5.88756,-0.35291 12.0983,-0.50939 18.455,-0.23499 -4.96715,2.21641 -21.056,1.25065 -18.455,0.23499 z"
   class="fil2" /><path
   style="fill:#752b19"
   inkscape:connector-curvature="0"
   id="path139"
   d="m 260.02125,260.986 c 5.88785,-0.35291 12.0983,-0.50939 18.455,-0.23499 -4.96715,2.21613 -21.056,1.25065 -18.455,0.23499 z"
   class="fil2" /><path
   style="fill:#752b19"
   inkscape:connector-curvature="0"
   id="path141"
   d="m 262.37225,281.204 c 5.88785,-0.3532 12.0983,-0.50967 18.4553,-0.23528 -4.96744,2.21641 -21.0563,1.25065 -18.4553,0.23528 z"
   class="fil2" /><path
   style="fill:#752b19"
   inkscape:connector-curvature="0"
   id="path143"
   d="m 321.84925,276.032 c 5.88785,-0.35291 12.0983,-0.50939 18.455,-0.23499 -4.96715,2.21641 -21.056,1.25065 -18.455,0.23499 z"
   class="fil2" /><path
   style="fill:#752b19"
   inkscape:connector-curvature="0"
   id="path145"
   d="m 193.99125,265.314 c 15.3009,-1.59846 30.8639,-0.91162 46.1665,0 -15.5526,2.31874 -56.9736,-0.288 -46.1665,0 z"
   class="fil2" /><path
   style="fill:#752b19"
   inkscape:connector-curvature="0"
   id="path147"
   d="m 239.98725,280.968 c 4.7795,-0.35291 9.82063,-0.50939 14.9808,0 -4.26728,1.51115 -17.0921,1.01565 -14.9808,0 z"
   class="fil2" /><path
   style="fill:#752b19"
   inkscape:connector-curvature="0"
   id="path149"
   d="m 159.35225,275.091 c 4.77922,-0.35291 9.82063,-0.50939 14.9805,0 -4.26728,1.51115 -17.0921,1.01565 -14.9805,0 z"
   class="fil2" /><path
   style="fill:#752b19"
   inkscape:connector-curvature="0"
   id="path151"
   d="m 164.89625,264.983 c 2.71049,-0.3532 5.5698,-0.50967 8.49629,0 -2.42022,1.51087 -9.69393,1.01537 -8.49629,0 z"
   class="fil2" /><path
   style="fill:#752b19"
   inkscape:connector-curvature="0"
   id="path153"
   d="m 284.79125,260.516 c 2.71077,-0.35291 5.5698,-0.50939 8.49657,0 -2.42051,1.51115 -9.69393,1.01565 -8.49657,0 z"
   class="fil2" /><path
   style="fill:#752b19"
   inkscape:connector-curvature="0"
   id="path155"
   d="m 285.96625,278.383 c 2.71049,-0.3532 5.5698,-0.50967 8.49629,0 -2.42022,1.51087 -9.69393,1.01537 -8.49629,0 z"
   class="fil2" /><path
   style="fill:#752b19"
   inkscape:connector-curvature="0"
   id="path157"
   d="m 328.75225,265.923 c 2.71049,-0.35291 5.5698,-0.50939 8.49629,0 -2.42022,1.51115 -9.69393,1.01565 -8.49629,0 z"
   class="fil2" /><path
   style="fill:#752b19"
   inkscape:connector-curvature="0"
   id="path159"
   d="m 321.93425,281.909 c 2.71049,-0.3532 5.5698,-0.50967 8.49629,0 -2.42022,1.51087 -9.69393,1.01537 -8.49629,0 z"
   class="fil2" /><path
   style="fill:#752b19"
   inkscape:connector-curvature="0"
   id="path161"
   d="m 334.62925,279.088 c 2.71049,-0.3532 5.5698,-0.50967 8.49629,0 -2.42022,1.51087 -9.69364,1.01537 -8.49629,0 z"
   class="fil2" /><path
   style="fill:#752b19"
   inkscape:connector-curvature="0"
   id="path163"
   d="m 256.27625,210.792 c 0.80957,11.8738 2.54438,18.3118 2.42873,35.6213 l 1.61915,0 c 0.29282,-15.7842 -1.26624,-26.6338 -4.04788,-35.6213 z"
   class="fil2" /><path
   style="fill:#752b19"
   inkscape:connector-curvature="0"
   id="path165"
   d="m 266.25925,226.059 c 0.25342,3.32986 0.67068,3.7766 1.27162,10.5245 l 0.90397,0 c -0.42265,-4.28173 -1.50123,-7.78876 -2.17559,-10.5245 z"
   class="fil2" /><path
   style="fill:#752b19"
   inkscape:connector-curvature="0"
   id="path167"
   d="m 261.36525,220.16 c 1.31414,11.5064 2.20734,9.52526 2.54438,27.6412 l 1.38784,0 c -0.6052,-15.6351 -1.52759,-19.887 -3.93222,-27.6412 z"
   class="fil2" />
</svg>