<?xml version="1.0" encoding="UTF-8" standalone="no"?>
<!-- Created with Inkscape (http://www.inkscape.org/) -->
<svg xmlns:svg="http://www.w3.org/2000/svg" xmlns="http://www.w3.org/2000/svg" version="1.0" width="222.69914" height="243.0408" id="svg5513">
  <defs id="defs5515"/>
  <g transform="translate(-152.244, -472.307)" id="layer1">
    <path d="M 356.69852,556.32477 C 357.32934,526.45522 361.60318,505.17277 367.5487,479.86093 L 159.47117,480.19999 C 164.74644,505.55915 167.62458,529.53049 170.68408,556.10398 L 356.69852,556.32477" id="path253" style="fill: rgb(255, 221, 0); fill-opacity: 1; fill-rule: evenodd; stroke: none;"/>
    <path d="M 356.69852,556.32477 C 357.32934,526.45522 361.60318,505.17277 367.5487,479.86093 L 159.47117,480.19999 C 164.74644,505.55915 167.62458,529.53049 170.68408,556.10398 L 356.69852,556.32477 z" id="path263" style="fill: none; stroke: rgb(0, 0, 0); stroke-width: 1.9319; stroke-linecap: butt; stroke-linejoin: miter; stroke-miterlimit: 2.613; stroke-dasharray: none; stroke-opacity: 1;"/>
    <path d="M 356.65909,553.74627 L 353.89135,605.56064 C 352.65336,667.90189 327.93291,680.0847 281.30708,698.52843 C 275.59811,699.82951 268.1465,704.35568 263.88055,707.07611 C 257.93502,701.58793 250.41244,699.15926 242.88985,696.35997 C 190.91778,676.28398 177.86759,654.07106 174.76867,606.23089 L 171.27547,554.11688 L 356.65909,553.74627" id="path265" style="fill: rgb(0, 102, 179); fill-opacity: 1; fill-rule: evenodd; stroke: none;"/>
    <path d="M 356.65909,553.74627 L 353.89135,605.56064 C 352.65336,667.90189 327.93291,680.0847 281.30708,698.52843 C 275.59811,699.82951 268.1465,704.35568 263.88055,707.07611 C 257.93502,701.58793 250.41244,699.15926 242.88985,696.35997 C 190.91778,676.28398 177.86759,654.07106 174.76867,606.23089 L 171.27547,554.11688 L 356.65909,553.74627 z" id="path275" style="fill: none; stroke: rgb(0, 0, 0); stroke-width: 1.96344; stroke-linecap: butt; stroke-linejoin: miter; stroke-miterlimit: 2.613; stroke-dasharray: none; stroke-opacity: 1;"/>
    <path d="M 252.94362,616.6395 C 248.47265,615.96136 244.71924,615.63806 240.95795,614.5972 C 237.44899,621.418 229.72927,617.55419 229.32712,612.38143 C 208.61241,612.56279 216.48195,593.023 229.54002,595.41225 C 231.58232,584.14414 242.19594,593.15705 242.37731,593.15705 C 247.36871,592.04522 273.79238,591.45382 283.98808,593.33052 C 287.88343,588.82801 294.2863,585.73697 297.40099,594.45812 C 310.61677,595.23877 314.88272,613.05957 297.5587,612.85455 C 296.88845,618.21656 288.51425,620.25886 284.71353,614.75491 C 280.79453,615.50401 277.58521,616.24523 273.11424,616.1033 C 275.75582,631.79506 273.96586,651.46102 283.16013,661.38074 C 287.63898,662.58719 292.80386,661.65673 296.13146,654.65457 C 289.63396,646.3198 285.62823,637.42517 303.39383,626.73269 L 323.80101,612.44451 L 334.22539,639.49901 C 338.26267,651.61084 330.34582,665.25243 312.98237,661.12053 C 299.42752,683.91696 280.30564,681.94563 263.78592,692.44886 C 246.74577,683.84599 226.52784,679.73774 212.65758,666.64024 C 197.31277,667.66533 188.44179,653.99221 191.57226,644.67966 L 203.61313,612.24738 L 229.14576,631.6689 C 237.39379,636.06101 237.4963,647.84955 231.33787,658.25816 C 239.06548,663.90404 246.4067,665.98576 250.19953,650.59364 L 252.94362,616.6395" id="path277" style="fill: rgb(255, 221, 0); fill-opacity: 1; fill-rule: evenodd; stroke: none;"/>
    <path d="M 252.94362,616.6395 C 248.47265,615.96136 244.71924,615.63806 240.95795,614.5972 C 237.44899,621.418 229.72927,617.55419 229.32712,612.38143 C 208.61241,612.56279 216.48195,593.023 229.54002,595.41225 C 231.58232,584.14414 242.19594,593.15705 242.37731,593.15705 C 247.36871,592.04522 273.79238,591.45382 283.98808,593.33052 C 287.88343,588.82801 294.2863,585.73697 297.40099,594.45812 C 310.61677,595.23877 314.88272,613.05957 297.5587,612.85455 C 296.88845,618.21656 288.51425,620.25886 284.71353,614.75491 C 280.79453,615.50401 277.58521,616.24523 273.11424,616.1033 C 275.75582,631.79506 273.96586,651.46102 283.16013,661.38074 C 287.63898,662.58719 292.80386,661.65673 296.13146,654.65457 C 289.63396,646.3198 285.62823,637.42517 303.39383,626.73269 L 323.80101,612.44451 L 334.22539,639.49901 C 338.26267,651.61084 330.34582,665.25243 312.98237,661.12053 C 299.42752,683.91696 280.30564,681.94563 263.78592,692.44886 C 246.74577,683.84599 226.52784,679.73774 212.65758,666.64024 C 197.31277,667.66533 188.44179,653.99221 191.57226,644.67966 L 203.61313,612.24738 L 229.14576,631.6689 C 237.39379,636.06101 237.4963,647.84955 231.33787,658.25816 C 239.06548,663.90404 246.4067,665.98576 250.19953,650.59364 L 252.94362,616.6395 z M 206.578,655.33271 C 208.39951,659.07035 210.21313,662.44526 212.38948,666.00153 M 295.37447,655.97931 C 299.26981,651.83952 301.19383,646.99794 303.29921,643.0474 M 220.32998,647.7707 C 223.39737,651.13773 228.08124,655.38002 230.77802,658.03737 M 228.92497,594.71834 L 229.08268,612.75204 M 240.96584,592.85741 L 241.16297,614.82588 M 252.48627,616.08753 C 262.67409,616.71047 265.53646,616.86029 273.5637,616.25312" id="path279" style="fill: none; stroke: rgb(0, 0, 0); stroke-width: 1.96344; stroke-linecap: butt; stroke-linejoin: miter; stroke-miterlimit: 2.613; stroke-dasharray: none; stroke-opacity: 1;"/>
    <path d="M 262.05904,556.99502 C 272.63324,556.9004 281.32285,564.08391 281.4017,572.98643 C 281.48056,581.88894 272.91711,589.22228 262.34291,589.3169 C 251.76082,589.41153 243.0791,582.22801 243.00025,573.32549 C 242.92139,564.42298 251.47695,557.08964 262.05904,556.99502" id="path281" style="fill: rgb(255, 221, 0); fill-opacity: 1; fill-rule: evenodd; stroke: none;"/>
    <path d="M 262.05904,556.99502 C 272.63324,556.9004 281.32285,564.08391 281.4017,572.98643 C 281.48056,581.88894 272.91711,589.22228 262.34291,589.3169 C 251.76082,589.41153 243.0791,582.22801 243.00025,573.32549 C 242.92139,564.42298 251.47695,557.08964 262.05904,556.99502 z" id="path283" style="fill: none; stroke: rgb(0, 0, 0); stroke-width: 1.96344; stroke-linecap: butt; stroke-linejoin: miter; stroke-miterlimit: 2.613; stroke-dasharray: none; stroke-opacity: 1;"/>
    <path d="M 262.55581,564.86456 C 267.61818,564.81725 271.78951,568.71259 271.83682,573.53051 C 271.87625,578.35632 267.77589,582.32263 262.71352,582.36206 C 257.64327,582.40937 253.47982,578.51403 253.4404,573.6961 C 253.39308,568.87818 257.49344,564.91187 262.55581,564.86456" id="path285" style="fill: rgb(19, 104, 179); fill-opacity: 1; fill-rule: evenodd; stroke: none;"/>
    <path d="M 262.55581,564.86456 C 267.61818,564.81725 271.78951,568.71259 271.83682,573.53051 C 271.87625,578.35632 267.77589,582.32263 262.71352,582.36206 C 257.64327,582.40937 253.47982,578.51403 253.4404,573.6961 C 253.39308,568.87818 257.49344,564.91187 262.55581,564.86456 z" id="path287" style="fill: none; stroke: rgb(0, 0, 0); stroke-width: 1.96344; stroke-linecap: butt; stroke-linejoin: miter; stroke-miterlimit: 2.613; stroke-dasharray: none; stroke-opacity: 1;"/>
    <path d="M 273.59525,592.26601 C 270.33861,587.64522 270.93001,573.71188 263.08413,575.39145 C 255.2067,572.95489 256.57875,587.23518 253.77158,592.07676 C 260.73431,591.65884 266.80599,591.785 273.59525,592.26601" id="path289" style="fill: rgb(255, 221, 0); fill-opacity: 1; fill-rule: evenodd; stroke: none;"/>
    <path d="M 273.59525,592.26601 C 270.33861,587.64522 270.93001,573.71188 263.08413,575.39145 C 255.2067,572.95489 256.57875,587.23518 253.77158,592.07676 C 260.73431,591.65884 266.80599,591.785 273.59525,592.26601 z" id="path291" style="fill: none; stroke: rgb(0, 0, 0); stroke-width: 1.96344; stroke-linecap: butt; stroke-linejoin: miter; stroke-miterlimit: 2.613; stroke-dasharray: none; stroke-opacity: 1;"/>
    <path d="M 203.01384,549.85881 L 196.5952,550.45021 L 196.34287,542.41508 L 187.98444,546.0581 L 187.42459,543.92118 L 182.25971,545.21437 L 182.77225,542.17852 L 174.3192,536.1778 L 176.08551,533.84375 L 173.37297,529.93264 L 175.502,527.77206 L 171.6934,521.2036 L 173.64107,519.57923 L 173.59376,513.86238 L 175.36795,512.95557 L 176.21168,506.69463 L 178.89268,507.20718 L 181.32924,500.22079 L 183.12709,501.09606 L 186.11563,495.71828 L 188.08695,496.59355 L 190.01097,492.28817 L 191.80882,493.16344 L 196.56366,486.16129 L 201.95721,490.3957 L 203.73141,488.77132 L 206.28625,494.64588 L 209.30632,493.36846 L 211.1436,498.70681 L 213.45399,497.43728 L 215.11779,503.85592 L 218.15364,503.83227 L 219.99091,510.24302 L 223.92568,510.2036 L 224.16224,516.99285 C 224.87981,517.3398 225.77873,518.23084 226.31493,518.22295 L 224.22533,523.95557 L 226.3859,526.43945 L 223.22389,532.71615 L 224.67479,534.66382 L 220.24324,538.63802 L 222.04109,540.40433 L 215.09414,542.24949 L 215.10991,544.03946 L 209.92926,543.55057 L 209.94503,545.86885 L 204.03893,544.13408 L 203.01384,549.85881 z" id="path293" style="fill: rgb(0, 166, 80); fill-opacity: 1; fill-rule: evenodd; stroke: none;"/>
    <path d="M 203.01384,549.85881 L 196.5952,550.45021 L 196.34287,542.41508 L 187.98444,546.0581 L 187.42459,543.92118 L 182.25971,545.21437 L 182.77225,542.17852 L 174.3192,536.1778 L 176.08551,533.84375 L 173.37297,529.93264 L 175.502,527.77206 L 171.6934,521.2036 L 173.64107,519.57923 L 173.59376,513.86238 L 175.36795,512.95557 L 176.21168,506.69463 L 178.89268,507.20718 L 181.32924,500.22079 L 183.12709,501.09606 L 186.11563,495.71828 L 188.08695,496.59355 L 190.01097,492.28817 L 191.80882,493.16344 L 196.56366,486.16129 L 201.95721,490.3957 L 203.73141,488.77132 L 206.28625,494.64588 L 209.30632,493.36846 L 211.1436,498.70681 L 213.45399,497.43728 L 215.11779,503.85592 L 218.15364,503.83227 L 219.99091,510.24302 L 223.92568,510.2036 L 224.16224,516.99285 C 224.87981,517.3398 225.77873,518.23084 226.31493,518.22295 L 224.22533,523.95557 L 226.3859,526.43945 L 223.22389,532.71615 L 224.67479,534.66382 L 220.24324,538.63802 L 222.04109,540.40433 L 215.09414,542.24949 L 215.10991,544.03946 L 209.92926,543.55057 L 209.94503,545.86885 L 204.03893,544.13408 L 203.01384,549.85881 z" id="path295" style="fill: none; stroke: rgb(0, 0, 0); stroke-width: 1.96344; stroke-linecap: butt; stroke-linejoin: miter; stroke-miterlimit: 2.613; stroke-dasharray: none; stroke-opacity: 1;"/>
    <path d="M 266.17517,549.68534 L 259.91423,549.20433 L 259.85904,542.41508 L 251.49272,546.0581 L 250.94075,543.92118 L 245.77588,545.21437 L 246.28053,542.17852 L 237.83537,536.1778 L 239.60168,533.84375 L 236.88913,529.93264 L 239.01028,527.77206 L 235.20168,521.2036 L 237.15723,519.57923 L 237.10204,513.86238 L 238.88411,512.95557 L 239.71996,506.69463 L 242.40885,507.20718 L 244.84541,500.22079 L 246.63537,501.09606 L 249.62391,495.71828 L 251.59523,496.59355 L 253.52713,492.28817 L 255.3171,493.16344 L 260.07983,486.16129 L 265.47338,490.3957 L 267.24757,488.77132 L 269.80241,494.64588 L 272.82249,493.36846 L 274.65976,498.70681 L 276.96227,497.43728 L 278.63396,503.85592 L 281.6698,503.83227 L 283.50708,510.24302 L 287.43396,510.2036 L 287.67841,516.99285 C 288.39597,517.3398 289.2949,518.23084 289.82321,518.22295 L 287.73361,523.95557 L 289.90207,526.43945 L 286.74006,532.71615 L 288.19095,534.66382 L 283.75941,538.63802 L 285.55726,540.40433 L 278.6103,542.24949 L 278.62607,544.03946 L 273.44543,543.55057 L 273.4612,545.86885 L 267.54721,544.13408 L 266.17517,549.68534 z" id="path297" style="fill: rgb(0, 166, 80); fill-opacity: 1; fill-rule: evenodd; stroke: none;"/>
    <path d="M 266.17517,549.68534 L 259.91423,549.20433 L 259.85904,542.41508 L 251.49272,546.0581 L 250.94075,543.92118 L 245.77588,545.21437 L 246.28053,542.17852 L 237.83537,536.1778 L 239.60168,533.84375 L 236.88913,529.93264 L 239.01028,527.77206 L 235.20168,521.2036 L 237.15723,519.57923 L 237.10204,513.86238 L 238.88411,512.95557 L 239.71996,506.69463 L 242.40885,507.20718 L 244.84541,500.22079 L 246.63537,501.09606 L 249.62391,495.71828 L 251.59523,496.59355 L 253.52713,492.28817 L 255.3171,493.16344 L 260.07983,486.16129 L 265.47338,490.3957 L 267.24757,488.77132 L 269.80241,494.64588 L 272.82249,493.36846 L 274.65976,498.70681 L 276.96227,497.43728 L 278.63396,503.85592 L 281.6698,503.83227 L 283.50708,510.24302 L 287.43396,510.2036 L 287.67841,516.99285 C 288.39597,517.3398 289.2949,518.23084 289.82321,518.22295 L 287.73361,523.95557 L 289.90207,526.43945 L 286.74006,532.71615 L 288.19095,534.66382 L 283.75941,538.63802 L 285.55726,540.40433 L 278.6103,542.24949 L 278.62607,544.03946 L 273.44543,543.55057 L 273.4612,545.86885 L 267.54721,544.13408 L 266.17517,549.68534 z" id="path299" style="fill: none; stroke: rgb(0, 0, 0); stroke-width: 1.96344; stroke-linecap: butt; stroke-linejoin: miter; stroke-miterlimit: 2.613; stroke-dasharray: none; stroke-opacity: 1;"/>
    <path d="M 328.66625,549.77208 L 322.06624,549.82727 L 321.99527,542.32834 L 313.63685,545.97136 L 313.07699,543.83444 L 307.91211,545.12763 L 308.42466,542.09179 L 299.97161,536.09107 L 301.73791,533.74913 L 299.02537,529.8459 L 301.1544,527.68533 L 297.3458,521.10898 L 299.29347,519.4846 L 299.24616,513.77564 L 301.02035,512.86094 L 301.86408,506.60789 L 304.54508,507.12044 L 306.98164,500.13406 L 308.7795,501.00932 L 311.76014,495.62366 L 313.73935,496.49893 L 315.66337,492.20143 L 317.45334,493.0767 L 322.21606,486.06666 L 327.60961,490.30896 L 329.38381,488.68459 L 331.93865,494.55126 L 334.95872,493.28172 L 336.78811,498.62008 L 339.10639,497.35054 L 340.76231,503.7613 L 343.80604,503.73764 L 345.64332,510.1484 L 349.57809,510.11686 L 349.81464,516.89822 C 350.52432,517.25306 351.43113,518.13622 351.96733,518.13622 L 349.86984,523.86884 L 352.0383,526.34482 L 348.87629,532.62941 L 350.32719,534.57709 L 345.89565,538.5434 L 347.6935,540.31759 L 340.74654,542.16275 L 340.76231,543.94483 L 335.58166,543.45594 L 335.59743,545.78211 L 329.69134,544.04734 L 328.66625,549.77208 z" id="path301" style="fill: rgb(0, 166, 80); fill-opacity: 1; fill-rule: evenodd; stroke: none;"/>
    <path d="M 328.66625,549.77208 L 322.06624,549.82727 L 321.99527,542.32834 L 313.63685,545.97136 L 313.07699,543.83444 L 307.91211,545.12763 L 308.42466,542.09179 L 299.97161,536.09107 L 301.73791,533.74913 L 299.02537,529.8459 L 301.1544,527.68533 L 297.3458,521.10898 L 299.29347,519.4846 L 299.24616,513.77564 L 301.02035,512.86094 L 301.86408,506.60789 L 304.54508,507.12044 L 306.98164,500.13406 L 308.7795,501.00932 L 311.76014,495.62366 L 313.73935,496.49893 L 315.66337,492.20143 L 317.45334,493.0767 L 322.21606,486.06666 L 327.60961,490.30896 L 329.38381,488.68459 L 331.93865,494.55126 L 334.95872,493.28172 L 336.78811,498.62008 L 339.10639,497.35054 L 340.76231,503.7613 L 343.80604,503.73764 L 345.64332,510.1484 L 349.57809,510.11686 L 349.81464,516.89822 C 350.52432,517.25306 351.43113,518.13622 351.96733,518.13622 L 349.86984,523.86884 L 352.0383,526.34482 L 348.87629,532.62941 L 350.32719,534.57709 L 345.89565,538.5434 L 347.6935,540.31759 L 340.74654,542.16275 L 340.76231,543.94483 L 335.58166,543.45594 L 335.59743,545.78211 L 329.69134,544.04734 L 328.66625,549.77208 z M 284.09848,593.24379 L 284.28773,615.21226 M 297.37734,594.80508 L 297.53504,612.84666" id="path303" style="fill: none; stroke: rgb(0, 0, 0); stroke-width: 1.96344; stroke-linecap: butt; stroke-linejoin: miter; stroke-miterlimit: 2.613; stroke-dasharray: none; stroke-opacity: 1;"/>
    <path d="M 313.16373,660.63164 L 317.50853,650.19149" id="path305" style="fill: none; stroke: rgb(0, 0, 0); stroke-width: 1.93979; stroke-linecap: butt; stroke-linejoin: miter; stroke-miterlimit: 2.613; stroke-dasharray: none; stroke-opacity: 1;"/>
    <path d="M 263.6361,692.72485 L 260.00097,690.58004 L 263.6361,661.91694 L 267.26334,690.36714 L 263.6361,692.72485 z" id="path307" style="fill: rgb(0, 0, 0); fill-opacity: 1; fill-rule: evenodd; stroke: none;"/>
  </g>
</svg>