<?xml version="1.0" encoding="UTF-8" standalone="no"?>
<!-- Created with Inkscape (http://www.inkscape.org/) -->
<svg
   xmlns:svg="http://www.w3.org/2000/svg"
   xmlns="http://www.w3.org/2000/svg"
   version="1.0"
   width="803.32703"
   height="958.245"
   viewBox="0 0 803.327 958.245"
   id="Layer_1"
   xml:space="preserve"><defs
   id="defs60" />
<g
   id="g3">
	<g
   id="g5">
		<g
   id="g7">
			<g
   id="g9">
				<g
   id="g11">
					<path
   d="M 801.553,1.664 L 801.553,547.124 C 806.701,768.076 631.67,951.342 410.947,956.47 C 190.244,961.639 7,786.586 1.851,565.884 C 1.601,559.297 1.601,552.752 1.851,547.124 L 1.851,1.664 L 801.553,1.664 z "
   style="fill:none;stroke:#000000;stroke-width:0.72640002;stroke-miterlimit:3"
   id="path13" />
					<path
   d="M 801.553,1.664 L 801.553,547.124 C 806.701,768.076 631.67,951.342 410.947,956.47 C 190.244,961.639 7,786.586 1.851,565.884 C 1.601,559.297 1.601,552.752 1.851,547.124 L 1.851,1.664 L 801.553,1.664 z "
   style="fill:#d21034;fill-rule:evenodd"
   id="path15" />
					<path
   d="M 801.553,1.664 L 801.553,547.124 C 806.701,768.076 631.67,951.342 410.947,956.47 C 190.244,961.639 7,786.586 1.851,565.884 C 1.601,559.297 1.601,552.752 1.851,547.124 L 1.851,1.664 L 801.553,1.664 z "
   style="fill:none;stroke:#d21034;stroke-width:3.32719994;stroke-miterlimit:3"
   id="path17" />
					<polygon
   points="662.603,324.796 659.789,329.924 656.266,336.511 652.535,342.806 647.845,349.393 643.155,354.52 639.403,357.813 632.837,363.692 628.167,366.485 620.184,371.404 617.85,372.363 611.763,374.697 602.862,373.53 600.048,380.534 597.213,384.745 592.086,389.205 586.687,394.834 580.83,396.71 571.45,399.753 570.741,408.174 568.865,415.678 566.989,420.598 564.884,425.767 560.673,430.937 557.4,434.646 553.648,435.855 545.436,437.231 549.417,439.566 550.834,446.611 550.834,450.822 551.063,456.45 550.605,463.496 549.188,470.291 548.021,476.836 546.624,479.171 540.516,486.925 548.021,490.427 552.231,494.179 554.815,500.266 557.15,507.311 558.088,512.438 558.797,519.692 558.797,523.945 555.524,531.907 563.007,534.7 566.072,535.659 573.096,542.663 577.078,548.75 580.35,555.337 582.706,561.882 584.332,570.804 596.525,569.636 601.674,570.554 607.073,572.888 612.222,574.556 619.246,579.225 624.187,586.729 625.583,593.315 630.273,589.563 636.818,587.646 641.508,586.479 646.198,586.479 652.285,586.938 655.099,629.377 662.603,629.835 670.106,629.377 672.9,586.938 679.008,586.479 683.677,586.479 688.366,587.646 694.933,589.563 699.623,593.315 701.02,586.729 705.938,579.225 713.214,574.556 718.362,572.888 723.511,570.554 728.68,569.636 740.874,570.804 742.5,561.882 744.835,555.337 748.357,548.75 752.109,542.663 759.384,535.659 762.178,534.7 769.682,531.907 766.409,523.945 766.409,519.692 767.097,512.438 768.034,507.311 770.39,500.266 772.954,494.179 777.186,490.427 784.919,486.925 778.812,479.171 777.415,476.836 776.019,470.291 774.601,463.496 774.371,456.45 774.371,450.822 774.371,446.611 776.019,439.566 779.749,437.231 771.787,435.855 768.034,434.646 764.762,430.937 760.552,425.767 758.196,420.598 756.32,415.678 754.444,408.174 753.756,399.753 744.376,396.71 738.748,394.834 733.12,389.205 727.972,384.745 725.157,380.534 722.344,373.53 713.442,374.697 707.356,372.363 705.001,371.404 697.038,366.485 692.348,363.692 685.803,357.813 682.051,354.52 677.36,349.393 672.671,342.806 669.169,336.511 665.417,329.924 662.603,324.796 "
   style="fill:#ffc726;fill-rule:evenodd"
   id="polygon19" />
					<polygon
   points="662.603,324.796 659.789,329.924 656.266,336.511 652.535,342.806 647.845,349.393 643.155,354.52 639.403,357.813 632.837,363.692 628.167,366.485 620.184,371.404 617.85,372.363 611.763,374.697 602.862,373.53 600.048,380.534 597.213,384.745 592.086,389.205 586.687,394.834 580.83,396.71 571.45,399.753 570.741,408.174 568.865,415.678 566.989,420.598 564.884,425.767 560.673,430.937 557.4,434.646 553.648,435.855 545.436,437.231 549.417,439.566 550.834,446.611 550.834,450.822 551.063,456.45 550.605,463.496 549.188,470.291 548.021,476.836 546.624,479.171 540.516,486.925 548.021,490.427 552.231,494.179 554.815,500.266 557.15,507.311 558.088,512.438 558.797,519.692 558.797,523.945 555.524,531.907 563.007,534.7 566.072,535.659 573.096,542.663 577.078,548.75 580.35,555.337 582.706,561.882 584.332,570.804 596.525,569.636 601.674,570.554 607.073,572.888 612.222,574.556 619.246,579.225 624.187,586.729 625.583,593.315 630.273,589.563 636.818,587.646 641.508,586.479 646.198,586.479 652.285,586.938 655.099,629.377 662.603,629.835 670.106,629.377 672.9,586.938 679.008,586.479 683.677,586.479 688.366,587.646 694.933,589.563 699.623,593.315 701.02,586.729 705.938,579.225 713.214,574.556 718.362,572.888 723.511,570.554 728.68,569.636 740.874,570.804 742.5,561.882 744.835,555.337 748.357,548.75 752.109,542.663 759.384,535.659 762.178,534.7 769.682,531.907 766.409,523.945 766.409,519.692 767.097,512.438 768.034,507.311 770.39,500.266 772.954,494.179 777.186,490.427 784.919,486.925 778.812,479.171 777.415,476.836 776.019,470.291 774.601,463.496 774.371,456.45 774.371,450.822 774.371,446.611 776.019,439.566 779.749,437.231 771.787,435.855 768.034,434.646 764.762,430.937 760.552,425.767 758.196,420.598 756.32,415.678 754.444,408.174 753.756,399.753 744.376,396.71 738.748,394.834 733.12,389.205 727.972,384.745 725.157,380.534 722.344,373.53 713.442,374.697 707.356,372.363 705.001,371.404 697.038,366.485 692.348,363.692 685.803,357.813 682.051,354.52 677.36,349.393 672.671,342.806 669.169,336.511 665.417,329.924 662.603,324.796 "
   style="fill:none;stroke:#ffc726;stroke-width:3.32719994;stroke-miterlimit:3"
   id="polygon21" />
					<polygon
   points="140.551,324.796 143.386,329.924 147.117,336.511 150.869,342.806 155.33,349.393 160.02,354.52 163.75,357.813 170.317,363.692 175.007,366.485 182.969,371.404 185.325,372.363 191.412,374.697 200.312,373.53 203.126,380.534 205.94,384.745 211.089,389.205 216.717,394.834 222.324,396.71 231.704,399.753 232.642,408.174 234.289,415.678 236.165,420.598 238.5,425.767 242.71,430.937 246.003,434.646 249.755,435.855 257.718,437.231 253.966,439.566 252.319,446.611 252.319,450.822 252.319,456.45 252.799,463.496 253.966,470.291 255.363,476.836 256.78,479.171 262.867,486.925 255.133,490.427 250.923,494.179 248.567,500.266 246.003,507.311 245.065,512.438 244.586,519.692 244.356,523.945 247.629,531.907 240.146,534.7 237.332,535.659 230.057,542.663 226.326,548.75 222.803,555.337 220.469,561.882 219.051,570.804 206.628,569.636 201.479,570.554 196.331,572.888 190.932,574.556 183.907,579.225 179.217,586.729 177.591,593.315 172.901,589.563 166.335,587.646 161.646,586.479 156.956,586.479 150.869,586.938 148.055,629.377 140.551,629.835 133.297,629.377 130.253,586.938 124.146,586.479 119.477,586.479 114.787,587.646 108.221,589.563 103.531,593.315 102.134,586.729 97.215,579.225 90.19,574.556 85.021,572.888 79.643,570.554 74.474,569.636 62.3,570.804 60.904,561.882 58.319,555.337 55.046,548.75 51.044,542.663 44.02,535.659 41.206,534.7 33.472,531.907 36.766,523.945 36.766,519.692 36.057,512.438 35.119,507.311 32.784,500.266 30.2,494.179 25.989,490.427 18.485,486.925 24.572,479.171 25.989,476.836 27.156,470.291 28.553,463.496 29.032,456.45 28.803,450.822 28.803,446.611 27.386,439.566 23.634,437.231 31.617,435.855 35.348,434.646 38.642,430.937 42.852,425.767 44.958,420.598 46.833,415.678 48.709,408.174 49.418,399.753 59.028,396.71 64.635,394.834 70.263,389.205 75.182,384.745 77.996,380.534 80.81,373.53 89.711,374.697 95.797,372.363 98.153,371.404 106.116,366.485 110.806,363.692 117.351,357.813 121.103,354.52 125.793,349.393 130.483,342.806 134.235,336.511 137.757,329.924 140.551,324.796 "
   style="fill:#ffc726;fill-rule:evenodd"
   id="polygon23" />
					<polygon
   points="140.551,324.796 143.386,329.924 147.117,336.511 150.869,342.806 155.33,349.393 160.02,354.52 163.75,357.813 170.317,363.692 175.007,366.485 182.969,371.404 185.325,372.363 191.412,374.697 200.312,373.53 203.126,380.534 205.94,384.745 211.089,389.205 216.717,394.834 222.324,396.71 231.704,399.753 232.642,408.174 234.289,415.678 236.165,420.598 238.5,425.767 242.71,430.937 246.003,434.646 249.755,435.855 257.718,437.231 253.966,439.566 252.319,446.611 252.319,450.822 252.319,456.45 252.799,463.496 253.966,470.291 255.363,476.836 256.78,479.171 262.867,486.925 255.133,490.427 250.923,494.179 248.567,500.266 246.003,507.311 245.065,512.438 244.586,519.692 244.356,523.945 247.629,531.907 240.146,534.7 237.332,535.659 230.057,542.663 226.326,548.75 222.803,555.337 220.469,561.882 219.051,570.804 206.628,569.636 201.479,570.554 196.331,572.888 190.932,574.556 183.907,579.225 179.217,586.729 177.591,593.315 172.901,589.563 166.335,587.646 161.646,586.479 156.956,586.479 150.869,586.938 148.055,629.377 140.551,629.835 133.297,629.377 130.253,586.938 124.146,586.479 119.477,586.479 114.787,587.646 108.221,589.563 103.531,593.315 102.134,586.729 97.215,579.225 90.19,574.556 85.021,572.888 79.643,570.554 74.474,569.636 62.3,570.804 60.904,561.882 58.319,555.337 55.046,548.75 51.044,542.663 44.02,535.659 41.206,534.7 33.472,531.907 36.766,523.945 36.766,519.692 36.057,512.438 35.119,507.311 32.784,500.266 30.2,494.179 25.989,490.427 18.485,486.925 24.572,479.171 25.989,476.836 27.156,470.291 28.553,463.496 29.032,456.45 28.803,450.822 28.803,446.611 27.386,439.566 23.634,437.231 31.617,435.855 35.348,434.646 38.642,430.937 42.852,425.767 44.958,420.598 46.833,415.678 48.709,408.174 49.418,399.753 59.028,396.71 64.635,394.834 70.263,389.205 75.182,384.745 77.996,380.534 80.81,373.53 89.711,374.697 95.797,372.363 98.153,371.404 106.116,366.485 110.806,363.692 117.351,357.813 121.103,354.52 125.793,349.393 130.483,342.806 134.235,336.511 137.757,329.924 140.551,324.796 "
   style="fill:none;stroke:#ffc726;stroke-width:3.32719994;stroke-miterlimit:3"
   id="polygon25" />
					<polygon
   points="401.587,638.507 398.773,643.926 395.25,650.472 391.499,656.558 386.809,663.354 382.139,668.522 378.387,671.774 371.821,677.652 367.131,680.446 359.168,685.156 356.834,686.324 350.727,688.658 341.826,687.241 339.012,694.537 336.219,698.747 331.299,702.958 325.442,708.794 319.814,710.671 310.434,713.505 309.725,722.177 307.87,729.681 305.994,734.35 303.868,739.728 299.657,744.897 296.385,748.649 292.633,749.566 284.649,751.234 288.422,753.568 289.819,760.572 289.819,764.824 290.048,770.411 289.589,777.456 288.172,784.002 287.005,790.797 285.587,793.173 279.5,800.636 287.005,804.388 291.465,808.14 293.8,814.227 296.135,821.271 297.073,826.441 297.781,833.445 297.781,837.655 294.509,845.868 302.221,848.453 305.056,849.37 312.081,856.416 316.062,862.502 319.334,869.048 321.69,875.635 323.316,884.556 335.51,883.597 340.659,884.556 346.057,886.641 351.206,888.517 358.23,893.228 363.15,900.731 364.567,907.276 369.236,903.524 375.803,901.439 380.493,900.481 385.183,900.481 391.269,900.939 394.313,943.338 401.587,943.588 409.07,943.338 411.884,900.939 417.971,900.481 422.661,900.481 427.351,901.439 433.917,903.524 438.586,907.276 440.254,900.731 444.923,893.228 451.969,888.517 457.346,886.641 462.495,884.556 467.665,883.597 480.067,884.556 481.484,875.635 483.819,869.048 487.342,862.502 491.094,856.416 498.348,849.37 501.162,848.453 508.666,845.868 505.372,837.655 505.623,833.445 506.081,826.441 507.019,821.271 509.604,814.227 511.938,808.14 516.149,804.388 523.882,800.636 517.796,793.173 516.399,790.797 514.981,784.002 513.814,777.456 513.356,770.411 513.356,764.824 513.356,760.572 514.981,753.568 518.733,751.234 510.771,749.566 507.019,748.649 503.747,744.897 499.515,739.728 497.18,734.35 495.304,729.681 493.658,722.177 492.72,713.505 483.36,710.671 477.732,708.794 472.104,702.958 466.956,698.747 464.142,694.537 461.328,687.241 452.427,688.658 446.34,686.324 443.985,685.156 436.022,680.446 431.333,677.652 424.767,671.774 421.014,668.522 416.345,663.354 411.655,656.558 408.132,650.472 404.38,643.926 401.587,638.507 "
   style="fill:#ffc726;fill-rule:evenodd"
   id="polygon27" />
					<polygon
   points="401.587,638.507 398.773,643.926 395.25,650.472 391.499,656.558 386.809,663.354 382.139,668.522 378.387,671.774 371.821,677.652 367.131,680.446 359.168,685.156 356.834,686.324 350.727,688.658 341.826,687.241 339.012,694.537 336.219,698.747 331.299,702.958 325.442,708.794 319.814,710.671 310.434,713.505 309.725,722.177 307.87,729.681 305.994,734.35 303.868,739.728 299.657,744.897 296.385,748.649 292.633,749.566 284.649,751.234 288.422,753.568 289.819,760.572 289.819,764.824 290.048,770.411 289.589,777.456 288.172,784.002 287.005,790.797 285.587,793.173 279.5,800.636 287.005,804.388 291.465,808.14 293.8,814.227 296.135,821.271 297.073,826.441 297.781,833.445 297.781,837.655 294.509,845.868 302.221,848.453 305.056,849.37 312.081,856.416 316.062,862.502 319.334,869.048 321.69,875.635 323.316,884.556 335.51,883.597 340.659,884.556 346.057,886.641 351.206,888.517 358.23,893.228 363.15,900.731 364.567,907.276 369.236,903.524 375.803,901.439 380.493,900.481 385.183,900.481 391.269,900.939 394.313,943.338 401.587,943.588 409.07,943.338 411.884,900.939 417.971,900.481 422.661,900.481 427.351,901.439 433.917,903.524 438.586,907.276 440.254,900.731 444.923,893.228 451.969,888.517 457.346,886.641 462.495,884.556 467.665,883.597 480.067,884.556 481.484,875.635 483.819,869.048 487.342,862.502 491.094,856.416 498.348,849.37 501.162,848.453 508.666,845.868 505.372,837.655 505.623,833.445 506.081,826.441 507.019,821.271 509.604,814.227 511.938,808.14 516.149,804.388 523.882,800.636 517.796,793.173 516.399,790.797 514.981,784.002 513.814,777.456 513.356,770.411 513.356,764.824 513.356,760.572 514.981,753.568 518.733,751.234 510.771,749.566 507.019,748.649 503.747,744.897 499.515,739.728 497.18,734.35 495.304,729.681 493.658,722.177 492.72,713.505 483.36,710.671 477.732,708.794 472.104,702.958 466.956,698.747 464.142,694.537 461.328,687.241 452.427,688.658 446.34,686.324 443.985,685.156 436.022,680.446 431.333,677.652 424.767,671.774 421.014,668.522 416.345,663.354 411.655,656.558 408.132,650.472 404.38,643.926 401.587,638.507 "
   style="fill:none;stroke:#ffc726;stroke-width:3.32719994;stroke-miterlimit:3"
   id="polygon29" />
					<polygon
   points="401.587,324.796 398.773,329.924 395.25,336.511 391.499,342.806 386.809,349.393 382.139,354.52 378.387,357.813 371.821,363.692 367.131,366.485 359.168,371.404 356.834,372.363 350.727,374.697 341.826,373.53 339.012,380.534 336.219,384.745 331.299,389.205 325.442,394.834 319.814,396.71 310.434,399.753 309.725,408.174 307.87,415.678 305.994,420.598 303.868,425.767 299.657,430.937 296.385,434.646 292.633,435.855 284.649,437.231 288.422,439.566 289.819,446.611 289.819,450.822 290.048,456.45 289.589,463.496 288.172,470.291 287.005,476.836 285.587,479.171 279.5,486.925 287.005,490.427 291.465,494.179 293.8,500.266 296.135,507.311 297.073,512.438 297.781,519.692 297.781,523.945 294.509,531.907 302.221,534.7 305.056,535.659 312.081,542.663 316.062,548.75 319.334,555.337 321.69,561.882 323.316,570.804 335.51,569.636 340.659,570.554 346.057,572.888 351.206,574.556 358.23,579.225 363.15,586.729 364.567,593.315 369.236,589.563 375.803,587.646 380.493,586.479 385.183,586.479 391.269,586.938 394.313,629.377 401.587,629.835 409.07,629.377 411.884,586.938 417.971,586.479 422.661,586.479 427.351,587.646 433.917,589.563 438.586,593.315 440.254,586.729 444.923,579.225 451.969,574.556 457.346,572.888 462.495,570.554 467.665,569.636 480.067,570.804 481.484,561.882 483.819,555.337 487.342,548.75 491.094,542.663 498.348,535.659 501.162,534.7 508.666,531.907 505.372,523.945 505.623,519.692 506.081,512.438 507.019,507.311 509.604,500.266 511.938,494.179 516.149,490.427 523.882,486.925 517.796,479.171 516.399,476.836 514.981,470.291 513.814,463.496 513.356,456.45 513.356,450.822 513.356,446.611 514.981,439.566 518.733,437.231 510.771,435.855 507.019,434.646 503.747,430.937 499.515,425.767 497.18,420.598 495.304,415.678 493.658,408.174 492.72,399.753 483.36,396.71 477.732,394.834 472.104,389.205 466.956,384.745 464.142,380.534 461.328,373.53 452.427,374.697 446.34,372.363 443.985,371.404 436.022,366.485 431.333,363.692 424.767,357.813 421.014,354.52 416.345,349.393 411.655,342.806 408.132,336.511 404.38,329.924 401.587,324.796 "
   style="fill:#ffc726;fill-rule:evenodd"
   id="polygon31" />
					<polygon
   points="401.587,324.796 398.773,329.924 395.25,336.511 391.499,342.806 386.809,349.393 382.139,354.52 378.387,357.813 371.821,363.692 367.131,366.485 359.168,371.404 356.834,372.363 350.727,374.697 341.826,373.53 339.012,380.534 336.219,384.745 331.299,389.205 325.442,394.834 319.814,396.71 310.434,399.753 309.725,408.174 307.87,415.678 305.994,420.598 303.868,425.767 299.657,430.937 296.385,434.646 292.633,435.855 284.649,437.231 288.422,439.566 289.819,446.611 289.819,450.822 290.048,456.45 289.589,463.496 288.172,470.291 287.005,476.836 285.587,479.171 279.5,486.925 287.005,490.427 291.465,494.179 293.8,500.266 296.135,507.311 297.073,512.438 297.781,519.692 297.781,523.945 294.509,531.907 302.221,534.7 305.056,535.659 312.081,542.663 316.062,548.75 319.334,555.337 321.69,561.882 323.316,570.804 335.51,569.636 340.659,570.554 346.057,572.888 351.206,574.556 358.23,579.225 363.15,586.729 364.567,593.315 369.236,589.563 375.803,587.646 380.493,586.479 385.183,586.479 391.269,586.938 394.313,629.377 401.587,629.835 409.07,629.377 411.884,586.938 417.971,586.479 422.661,586.479 427.351,587.646 433.917,589.563 438.586,593.315 440.254,586.729 444.923,579.225 451.969,574.556 457.346,572.888 462.495,570.554 467.665,569.636 480.067,570.804 481.484,561.882 483.819,555.337 487.342,548.75 491.094,542.663 498.348,535.659 501.162,534.7 508.666,531.907 505.372,523.945 505.623,519.692 506.081,512.438 507.019,507.311 509.604,500.266 511.938,494.179 516.149,490.427 523.882,486.925 517.796,479.171 516.399,476.836 514.981,470.291 513.814,463.496 513.356,456.45 513.356,450.822 513.356,446.611 514.981,439.566 518.733,437.231 510.771,435.855 507.019,434.646 503.747,430.937 499.515,425.767 497.18,420.598 495.304,415.678 493.658,408.174 492.72,399.753 483.36,396.71 477.732,394.834 472.104,389.205 466.956,384.745 464.142,380.534 461.328,373.53 452.427,374.697 446.34,372.363 443.985,371.404 436.022,366.485 431.333,363.692 424.767,357.813 421.014,354.52 416.345,349.393 411.655,342.806 408.132,336.511 404.38,329.924 401.587,324.796 "
   style="fill:none;stroke:#ffc726;stroke-width:3.32719994;stroke-miterlimit:3"
   id="polygon33" />
					<polygon
   points="401.587,10.793 398.773,15.963 395.25,22.758 391.499,28.845 386.809,35.64 382.139,40.81 378.387,44.062 371.821,49.689 367.131,52.732 359.168,57.443 356.834,58.361 350.727,60.945 341.826,59.528 339.012,66.573 336.219,71.034 331.299,75.245 325.442,80.873 319.814,82.957 310.434,85.792 309.725,94.463 307.87,101.967 305.994,106.637 303.868,111.806 299.657,117.184 296.385,120.936 292.633,121.853 284.649,123.521 288.422,125.605 289.819,132.859 289.819,137.111 290.048,142.698 289.589,149.743 288.172,156.289 287.005,163.084 285.587,165.46 279.5,172.922 287.005,176.674 291.465,180.426 293.8,186.513 296.135,193.559 297.073,198.728 297.781,205.731 297.781,209.942 294.509,218.155 302.221,220.74 305.056,221.657 312.081,228.703 316.062,234.789 319.334,241.334 321.69,247.921 323.316,256.801 335.51,255.884 340.659,256.592 346.057,258.927 351.206,260.803 358.23,265.472 363.15,272.976 364.567,279.521 369.236,275.811 375.803,273.685 380.493,272.768 385.183,272.768 391.269,273.227 394.313,315.416 401.587,315.875 409.07,315.416 411.884,273.227 417.971,272.768 422.661,272.768 427.351,273.685 433.917,275.811 438.586,279.521 440.254,272.976 444.923,265.472 451.969,260.803 457.346,258.927 462.495,256.592 467.665,255.884 480.067,256.801 481.484,247.921 483.819,241.334 487.342,234.789 491.094,228.703 498.348,221.657 501.162,220.74 508.666,218.155 505.372,209.942 505.623,205.731 506.081,198.728 507.019,193.559 509.604,186.513 511.938,180.426 516.149,176.674 523.882,172.922 517.796,165.46 516.399,163.084 514.981,156.289 513.814,149.743 513.356,142.698 513.356,137.111 513.356,132.859 514.981,125.605 518.733,123.521 510.771,121.853 507.019,120.936 503.747,117.184 499.515,111.806 497.18,106.637 495.304,101.967 493.658,94.463 492.72,85.792 483.36,82.957 477.732,80.873 472.104,75.245 466.956,71.034 464.142,66.573 461.328,59.528 452.427,60.945 446.34,58.361 443.985,57.443 436.022,52.732 431.333,49.689 424.767,44.062 421.014,40.81 416.345,35.64 411.655,28.845 408.132,22.758 404.38,15.963 401.587,10.793 "
   style="fill:#ffc726;fill-rule:evenodd"
   id="polygon35" />
					<polygon
   points="401.587,10.793 398.773,15.963 395.25,22.758 391.499,28.845 386.809,35.64 382.139,40.81 378.387,44.062 371.821,49.689 367.131,52.732 359.168,57.443 356.834,58.361 350.727,60.945 341.826,59.528 339.012,66.573 336.219,71.034 331.299,75.245 325.442,80.873 319.814,82.957 310.434,85.792 309.725,94.463 307.87,101.967 305.994,106.637 303.868,111.806 299.657,117.184 296.385,120.936 292.633,121.853 284.649,123.521 288.422,125.605 289.819,132.859 289.819,137.111 290.048,142.698 289.589,149.743 288.172,156.289 287.005,163.084 285.587,165.46 279.5,172.922 287.005,176.674 291.465,180.426 293.8,186.513 296.135,193.559 297.073,198.728 297.781,205.731 297.781,209.942 294.509,218.155 302.221,220.74 305.056,221.657 312.081,228.703 316.062,234.789 319.334,241.334 321.69,247.921 323.316,256.801 335.51,255.884 340.659,256.592 346.057,258.927 351.206,260.803 358.23,265.472 363.15,272.976 364.567,279.521 369.236,275.811 375.803,273.685 380.493,272.768 385.183,272.768 391.269,273.227 394.313,315.416 401.587,315.875 409.07,315.416 411.884,273.227 417.971,272.768 422.661,272.768 427.351,273.685 433.917,275.811 438.586,279.521 440.254,272.976 444.923,265.472 451.969,260.803 457.346,258.927 462.495,256.592 467.665,255.884 480.067,256.801 481.484,247.921 483.819,241.334 487.342,234.789 491.094,228.703 498.348,221.657 501.162,220.74 508.666,218.155 505.372,209.942 505.623,205.731 506.081,198.728 507.019,193.559 509.604,186.513 511.938,180.426 516.149,176.674 523.882,172.922 517.796,165.46 516.399,163.084 514.981,156.289 513.814,149.743 513.356,142.698 513.356,137.111 513.356,132.859 514.981,125.605 518.733,123.521 510.771,121.853 507.019,120.936 503.747,117.184 499.515,111.806 497.18,106.637 495.304,101.967 493.658,94.463 492.72,85.792 483.36,82.957 477.732,80.873 472.104,75.245 466.956,71.034 464.142,66.573 461.328,59.528 452.427,60.945 446.34,58.361 443.985,57.443 436.022,52.732 431.333,49.689 424.767,44.062 421.014,40.81 416.345,35.64 411.655,28.845 408.132,22.758 404.38,15.963 401.587,10.793 "
   style="fill:none;stroke:#ffc726;stroke-width:3.32719994;stroke-miterlimit:3"
   id="polygon37" />
					<polygon
   points="662.603,570.804 655.578,570.804 654.869,556.254 646.907,555.795 641.279,553.211 633.316,549.459 625.583,546.207 615.744,540.078 607.531,533.075 599.569,523.945 593.711,516.899 585.499,506.144 582.247,497.222 577.786,488.301 574.972,480.338 570.053,462.537 570.741,451.989 574.722,468.415 582.935,488.301 593.482,505.185 606.364,520.401 619.246,530.74 630.273,539.62 641.987,544.998 654.641,546.207 654.869,510.563 642.676,506.811 634.025,500.975 626.979,495.346 621.122,489.718 613.639,478.962 608.949,469.332 604.738,459.743 602.383,449.905 598.401,435.605 598.881,424.808 605.197,441.692 610.825,456.909 618.558,468.415 629.105,481.505 634.963,489.01 643.613,496.764 654.641,499.349 654.641,463.245 643.863,455.033 636.818,446.361 633.775,439.566 630.273,429.519 628.855,421.307 629.793,407.507 631.44,403.755 634.963,418.722 637.527,430.228 640.82,438.648 645.739,445.444 651.347,449.196 655.578,447.778 662.603,350.31 669.856,447.778 673.838,449.196 679.466,445.444 684.386,438.648 687.679,430.228 690.243,418.722 693.766,403.755 695.642,407.507 696.329,421.307 694.933,429.519 691.41,439.566 688.366,446.361 681.342,455.033 670.565,463.245 670.565,499.349 681.821,496.764 690.472,489.01 696.1,481.505 706.647,468.415 714.381,456.909 720.238,441.692 726.324,424.808 726.804,435.605 722.823,449.905 720.468,459.743 716.257,469.332 711.796,478.962 704.063,489.718 698.455,495.346 691.181,500.975 682.51,506.811 670.336,510.563 670.565,546.207 683.218,544.998 694.933,539.62 705.938,530.74 718.82,520.401 731.724,505.185 742.25,488.301 750.463,468.415 754.444,451.989 755.382,462.537 750.463,480.338 747.419,488.301 743.209,497.222 739.687,506.144 731.474,516.899 725.616,523.945 717.653,533.075 709.69,540.078 699.623,546.207 692.119,549.459 683.927,553.211 678.299,555.795 670.336,556.254 669.628,570.804 662.603,570.804 "
   style="fill:#d21034;fill-rule:evenodd"
   id="polygon39" />
					<polygon
   points="662.603,570.804 655.578,570.804 654.869,556.254 646.907,555.795 641.279,553.211 633.316,549.459 625.583,546.207 615.744,540.078 607.531,533.075 599.569,523.945 593.711,516.899 585.499,506.144 582.247,497.222 577.786,488.301 574.972,480.338 570.053,462.537 570.741,451.989 574.722,468.415 582.935,488.301 593.482,505.185 606.364,520.401 619.246,530.74 630.273,539.62 641.987,544.998 654.641,546.207 654.869,510.563 642.676,506.811 634.025,500.975 626.979,495.346 621.122,489.718 613.639,478.962 608.949,469.332 604.738,459.743 602.383,449.905 598.401,435.605 598.881,424.808 605.197,441.692 610.825,456.909 618.558,468.415 629.105,481.505 634.963,489.01 643.613,496.764 654.641,499.349 654.641,463.245 643.863,455.033 636.818,446.361 633.775,439.566 630.273,429.519 628.855,421.307 629.793,407.507 631.44,403.755 634.963,418.722 637.527,430.228 640.82,438.648 645.739,445.444 651.347,449.196 655.578,447.778 662.603,350.31 669.856,447.778 673.838,449.196 679.466,445.444 684.386,438.648 687.679,430.228 690.243,418.722 693.766,403.755 695.642,407.507 696.329,421.307 694.933,429.519 691.41,439.566 688.366,446.361 681.342,455.033 670.565,463.245 670.565,499.349 681.821,496.764 690.472,489.01 696.1,481.505 706.647,468.415 714.381,456.909 720.238,441.692 726.324,424.808 726.804,435.605 722.823,449.905 720.468,459.743 716.257,469.332 711.796,478.962 704.063,489.718 698.455,495.346 691.181,500.975 682.51,506.811 670.336,510.563 670.565,546.207 683.218,544.998 694.933,539.62 705.938,530.74 718.82,520.401 731.724,505.185 742.25,488.301 750.463,468.415 754.444,451.989 755.382,462.537 750.463,480.338 747.419,488.301 743.209,497.222 739.687,506.144 731.474,516.899 725.616,523.945 717.653,533.075 709.69,540.078 699.623,546.207 692.119,549.459 683.927,553.211 678.299,555.795 670.336,556.254 669.628,570.804 662.603,570.804 "
   style="fill:none;stroke:#d21034;stroke-width:3.32719994;stroke-miterlimit:3"
   id="polygon41" />
					<polygon
   points="140.551,570.804 147.596,570.804 148.305,556.254 156.268,555.795 162.125,553.211 170.087,549.459 177.591,546.207 187.66,540.078 195.622,533.075 203.584,523.945 209.671,516.899 217.655,506.144 221.157,497.222 225.388,488.301 228.432,480.338 233.351,462.537 232.413,451.989 228.432,468.415 220.219,488.301 209.671,505.185 196.79,520.401 183.907,530.74 172.901,539.62 161.187,544.998 148.513,546.207 148.305,510.563 160.708,506.811 169.149,500.975 176.403,495.346 182.031,489.718 189.765,478.962 194.226,469.332 198.436,459.743 200.771,449.905 204.752,435.605 204.522,424.808 198.207,441.692 192.579,456.909 184.616,468.415 174.069,481.505 168.441,489.01 159.77,496.764 148.513,499.349 148.513,463.245 159.311,455.033 166.335,446.361 169.379,439.566 172.901,429.519 174.298,421.307 173.61,407.507 171.734,403.755 168.211,418.722 165.627,430.228 162.354,438.648 157.664,445.444 151.807,449.196 147.826,447.778 140.551,350.31 133.526,447.778 129.315,449.196 123.688,445.444 118.998,438.648 115.475,430.228 112.911,418.722 109.617,403.755 107.762,407.507 106.824,421.307 108.221,429.519 111.744,439.566 114.787,446.361 121.812,455.033 132.588,463.245 132.588,499.349 121.582,496.764 112.911,489.01 107.054,481.505 96.506,468.415 88.773,456.909 83.145,441.692 76.829,424.808 76.35,435.605 80.331,449.905 82.686,459.743 86.897,469.332 91.587,478.962 99.091,489.718 104.948,495.346 111.973,500.975 120.644,506.811 132.817,510.563 132.588,546.207 119.936,544.998 108.221,539.62 97.215,530.74 84.562,520.401 71.68,505.185 60.904,488.301 52.691,468.415 48.709,451.989 48.001,462.537 52.92,480.338 55.734,488.301 60.195,497.222 63.468,506.144 71.68,516.899 77.767,523.945 85.729,533.075 93.692,540.078 103.531,546.207 111.035,549.459 119.227,553.211 124.855,555.795 132.817,556.254 133.526,570.804 140.551,570.804 "
   style="fill:#d21034;fill-rule:evenodd"
   id="polygon43" />
					<polygon
   points="140.551,570.804 147.596,570.804 148.305,556.254 156.268,555.795 162.125,553.211 170.087,549.459 177.591,546.207 187.66,540.078 195.622,533.075 203.584,523.945 209.671,516.899 217.655,506.144 221.157,497.222 225.388,488.301 228.432,480.338 233.351,462.537 232.413,451.989 228.432,468.415 220.219,488.301 209.671,505.185 196.79,520.401 183.907,530.74 172.901,539.62 161.187,544.998 148.513,546.207 148.305,510.563 160.708,506.811 169.149,500.975 176.403,495.346 182.031,489.718 189.765,478.962 194.226,469.332 198.436,459.743 200.771,449.905 204.752,435.605 204.522,424.808 198.207,441.692 192.579,456.909 184.616,468.415 174.069,481.505 168.441,489.01 159.77,496.764 148.513,499.349 148.513,463.245 159.311,455.033 166.335,446.361 169.379,439.566 172.901,429.519 174.298,421.307 173.61,407.507 171.734,403.755 168.211,418.722 165.627,430.228 162.354,438.648 157.664,445.444 151.807,449.196 147.826,447.778 140.551,350.31 133.526,447.778 129.315,449.196 123.688,445.444 118.998,438.648 115.475,430.228 112.911,418.722 109.617,403.755 107.762,407.507 106.824,421.307 108.221,429.519 111.744,439.566 114.787,446.361 121.812,455.033 132.588,463.245 132.588,499.349 121.582,496.764 112.911,489.01 107.054,481.505 96.506,468.415 88.773,456.909 83.145,441.692 76.829,424.808 76.35,435.605 80.331,449.905 82.686,459.743 86.897,469.332 91.587,478.962 99.091,489.718 104.948,495.346 111.973,500.975 120.644,506.811 132.817,510.563 132.588,546.207 119.936,544.998 108.221,539.62 97.215,530.74 84.562,520.401 71.68,505.185 60.904,488.301 52.691,468.415 48.709,451.989 48.001,462.537 52.92,480.338 55.734,488.301 60.195,497.222 63.468,506.144 71.68,516.899 77.767,523.945 85.729,533.075 93.692,540.078 103.531,546.207 111.035,549.459 119.227,553.211 124.855,555.795 132.817,556.254 133.526,570.804 140.551,570.804 "
   style="fill:none;stroke:#d21034;stroke-width:3.32719994;stroke-miterlimit:3"
   id="polygon45" />
					<polygon
   points="401.587,884.765 394.542,884.765 393.854,870.257 385.871,869.756 380.263,866.963 372.05,863.211 364.567,860.168 354.729,854.081 346.745,847.035 338.783,837.655 332.696,830.651 324.504,820.104 321.21,811.183 316.771,802.053 313.957,794.091 309.037,776.289 309.725,765.992 313.728,782.376 321.919,802.053 332.467,818.938 345.578,834.403 358.23,844.451 369.236,853.372 380.951,859 393.604,859.918 393.854,824.315 381.66,820.813 372.988,814.727 365.964,809.099 360.106,803.679 352.603,792.923 347.933,783.293 343.702,773.454 341.367,763.615 337.386,749.566 337.845,738.811 344.181,755.653 349.789,770.911 357.522,782.376 368.069,795.508 373.926,803.012 382.598,810.725 393.604,813.309 393.604,776.998 382.827,768.785 375.803,760.113 372.759,753.568 369.236,743.479 367.84,735.059 368.778,721.468 370.654,717.716 373.926,732.724 376.511,743.938 379.784,752.401 384.703,759.405 390.331,763.157 394.542,761.531 401.587,664.313 408.841,761.531 412.822,763.157 418.45,759.405 423.37,752.401 426.643,743.938 429.227,732.724 432.729,717.716 434.605,721.468 435.334,735.059 433.917,743.479 430.415,753.568 427.351,760.113 420.327,768.785 409.55,776.998 409.55,813.309 420.785,810.725 429.457,803.012 435.084,795.508 445.632,782.376 453.365,770.911 459.223,755.653 465.559,738.811 465.789,749.566 461.807,763.615 459.452,773.454 455.22,783.293 450.78,792.923 443.047,803.679 437.419,809.099 430.165,814.727 421.723,820.813 409.3,824.315 409.55,859.918 422.203,859 433.917,853.372 444.923,844.451 457.826,834.403 470.708,818.938 481.255,802.053 489.447,782.376 493.428,765.992 494.137,776.289 489.447,794.091 486.404,802.053 482.193,811.183 478.67,820.104 470.479,830.651 464.621,837.655 456.638,847.035 448.675,854.081 438.586,860.168 431.103,863.211 422.89,866.963 417.283,869.756 409.3,870.257 408.612,884.765 401.587,884.765 "
   style="fill:#d21034;fill-rule:evenodd"
   id="polygon47" />
					<polygon
   points="401.587,884.765 394.542,884.765 393.854,870.257 385.871,869.756 380.263,866.963 372.05,863.211 364.567,860.168 354.729,854.081 346.745,847.035 338.783,837.655 332.696,830.651 324.504,820.104 321.21,811.183 316.771,802.053 313.957,794.091 309.037,776.289 309.725,765.992 313.728,782.376 321.919,802.053 332.467,818.938 345.578,834.403 358.23,844.451 369.236,853.372 380.951,859 393.604,859.918 393.854,824.315 381.66,820.813 372.988,814.727 365.964,809.099 360.106,803.679 352.603,792.923 347.933,783.293 343.702,773.454 341.367,763.615 337.386,749.566 337.845,738.811 344.181,755.653 349.789,770.911 357.522,782.376 368.069,795.508 373.926,803.012 382.598,810.725 393.604,813.309 393.604,776.998 382.827,768.785 375.803,760.113 372.759,753.568 369.236,743.479 367.84,735.059 368.778,721.468 370.654,717.716 373.926,732.724 376.511,743.938 379.784,752.401 384.703,759.405 390.331,763.157 394.542,761.531 401.587,664.313 408.841,761.531 412.822,763.157 418.45,759.405 423.37,752.401 426.643,743.938 429.227,732.724 432.729,717.716 434.605,721.468 435.334,735.059 433.917,743.479 430.415,753.568 427.351,760.113 420.327,768.785 409.55,776.998 409.55,813.309 420.785,810.725 429.457,803.012 435.084,795.508 445.632,782.376 453.365,770.911 459.223,755.653 465.559,738.811 465.789,749.566 461.807,763.615 459.452,773.454 455.22,783.293 450.78,792.923 443.047,803.679 437.419,809.099 430.165,814.727 421.723,820.813 409.3,824.315 409.55,859.918 422.203,859 433.917,853.372 444.923,844.451 457.826,834.403 470.708,818.938 481.255,802.053 489.447,782.376 493.428,765.992 494.137,776.289 489.447,794.091 486.404,802.053 482.193,811.183 478.67,820.104 470.479,830.651 464.621,837.655 456.638,847.035 448.675,854.081 438.586,860.168 431.103,863.211 422.89,866.963 417.283,869.756 409.3,870.257 408.612,884.765 401.587,884.765 "
   style="fill:none;stroke:#d21034;stroke-width:3.32719994;stroke-miterlimit:3"
   id="polygon49" />
					<polygon
   points="401.587,570.804 394.542,570.804 393.854,556.254 385.871,555.795 380.263,553.211 372.05,549.459 364.567,546.207 354.729,540.078 346.745,533.075 338.783,523.945 332.696,516.899 324.504,506.144 321.21,497.222 316.771,488.301 313.957,480.338 309.037,462.537 309.725,451.989 313.728,468.415 321.919,488.301 332.467,505.185 345.578,520.401 358.23,530.74 369.236,539.62 380.951,544.998 393.604,546.207 393.854,510.563 381.66,506.811 372.988,500.975 365.964,495.346 360.106,489.718 352.603,478.962 347.933,469.332 343.702,459.743 341.367,449.905 337.386,435.605 337.845,424.808 344.181,441.692 349.789,456.909 357.522,468.415 368.069,481.505 373.926,489.01 382.598,496.764 393.604,499.349 393.604,463.245 382.827,455.033 375.803,446.361 372.759,439.566 369.236,429.519 367.84,421.307 368.778,407.507 370.654,403.755 373.926,418.722 376.511,430.228 379.784,438.648 384.703,445.444 390.331,449.196 394.542,447.778 401.587,350.31 408.841,447.778 412.822,449.196 418.45,445.444 423.37,438.648 426.643,430.228 429.227,418.722 432.729,403.755 434.605,407.507 435.334,421.307 433.917,429.519 430.415,439.566 427.351,446.361 420.327,455.033 409.55,463.245 409.55,499.349 420.785,496.764 429.457,489.01 435.084,481.505 445.632,468.415 453.365,456.909 459.223,441.692 465.559,424.808 465.789,435.605 461.807,449.905 459.452,459.743 455.22,469.332 450.78,478.962 443.047,489.718 437.419,495.346 430.165,500.975 421.723,506.811 409.3,510.563 409.55,546.207 422.203,544.998 433.917,539.62 444.923,530.74 457.826,520.401 470.708,505.185 481.255,488.301 489.447,468.415 493.428,451.989 494.137,462.537 489.447,480.338 486.404,488.301 482.193,497.222 478.67,506.144 470.479,516.899 464.621,523.945 456.638,533.075 448.675,540.078 438.586,546.207 431.103,549.459 422.89,553.211 417.283,555.795 409.3,556.254 408.612,570.804 401.587,570.804 "
   style="fill:#d21034;fill-rule:evenodd"
   id="polygon51" />
					<polygon
   points="401.587,570.804 394.542,570.804 393.854,556.254 385.871,555.795 380.263,553.211 372.05,549.459 364.567,546.207 354.729,540.078 346.745,533.075 338.783,523.945 332.696,516.899 324.504,506.144 321.21,497.222 316.771,488.301 313.957,480.338 309.037,462.537 309.725,451.989 313.728,468.415 321.919,488.301 332.467,505.185 345.578,520.401 358.23,530.74 369.236,539.62 380.951,544.998 393.604,546.207 393.854,510.563 381.66,506.811 372.988,500.975 365.964,495.346 360.106,489.718 352.603,478.962 347.933,469.332 343.702,459.743 341.367,449.905 337.386,435.605 337.845,424.808 344.181,441.692 349.789,456.909 357.522,468.415 368.069,481.505 373.926,489.01 382.598,496.764 393.604,499.349 393.604,463.245 382.827,455.033 375.803,446.361 372.759,439.566 369.236,429.519 367.84,421.307 368.778,407.507 370.654,403.755 373.926,418.722 376.511,430.228 379.784,438.648 384.703,445.444 390.331,449.196 394.542,447.778 401.587,350.31 408.841,447.778 412.822,449.196 418.45,445.444 423.37,438.648 426.643,430.228 429.227,418.722 432.729,403.755 434.605,407.507 435.334,421.307 433.917,429.519 430.415,439.566 427.351,446.361 420.327,455.033 409.55,463.245 409.55,499.349 420.785,496.764 429.457,489.01 435.084,481.505 445.632,468.415 453.365,456.909 459.223,441.692 465.559,424.808 465.789,435.605 461.807,449.905 459.452,459.743 455.22,469.332 450.78,478.962 443.047,489.718 437.419,495.346 430.165,500.975 421.723,506.811 409.3,510.563 409.55,546.207 422.203,544.998 433.917,539.62 444.923,530.74 457.826,520.401 470.708,505.185 481.255,488.301 489.447,468.415 493.428,451.989 494.137,462.537 489.447,480.338 486.404,488.301 482.193,497.222 478.67,506.144 470.479,516.899 464.621,523.945 456.638,533.075 448.675,540.078 438.586,546.207 431.103,549.459 422.89,553.211 417.283,555.795 409.3,556.254 408.612,570.804 401.587,570.804 "
   style="fill:none;stroke:#d21034;stroke-width:3.32719994;stroke-miterlimit:3"
   id="polygon53" />
					<polygon
   points="401.587,256.801 394.542,257.051 393.854,242.293 385.871,242.043 380.263,239.25 372.05,235.498 364.567,232.204 354.729,226.368 346.745,219.322 338.783,209.942 332.696,202.938 324.504,192.391 321.21,183.261 316.771,174.34 313.957,166.377 309.037,148.576 309.725,138.279 313.728,154.663 321.919,174.34 332.467,191.224 345.578,206.69 358.23,216.738 369.236,225.659 380.951,231.287 393.604,232.204 393.854,196.602 381.66,193.1 372.988,187.013 365.964,181.385 360.106,175.757 352.603,164.96 347.933,155.622 343.702,145.783 341.367,135.902 337.386,121.853 337.845,111.098 344.181,127.94 349.789,143.198 357.522,154.663 368.069,167.794 373.926,175.299 382.598,183.011 393.604,185.346 393.604,149.285 382.827,141.072 375.803,132.4 372.759,125.605 369.236,115.767 367.84,107.345 368.778,93.755 370.654,89.752 373.926,105.011 376.511,116.225 379.784,124.688 384.703,131.692 390.331,135.444 394.542,133.818 401.587,36.599 408.841,133.818 412.822,135.444 418.45,131.692 423.37,124.688 426.643,116.225 429.227,105.011 432.729,89.752 434.605,93.755 435.334,107.345 433.917,115.767 430.415,125.605 427.351,132.4 420.327,141.072 409.55,149.285 409.55,185.346 420.785,183.011 429.457,175.299 435.084,167.794 445.632,154.663 453.365,143.198 459.223,127.94 465.559,111.098 465.789,121.853 461.807,135.902 459.452,145.783 455.22,155.622 450.78,164.96 443.047,175.757 437.419,181.385 430.165,187.013 421.723,193.1 409.3,196.602 409.55,232.204 422.203,231.287 433.917,225.659 444.923,216.738 457.826,206.69 470.708,191.224 481.255,174.34 489.447,154.663 493.428,138.279 494.137,148.576 489.447,166.377 486.404,174.34 482.193,183.261 478.67,192.391 470.479,202.938 464.621,209.942 456.638,219.322 448.675,226.368 438.586,232.204 431.103,235.498 422.89,239.25 417.283,242.043 409.3,242.293 408.612,257.051 401.587,256.801 "
   style="fill:#d21034;fill-rule:evenodd"
   id="polygon55" />
					<polygon
   points="401.587,256.801 394.542,257.051 393.854,242.293 385.871,242.043 380.263,239.25 372.05,235.498 364.567,232.204 354.729,226.368 346.745,219.322 338.783,209.942 332.696,202.938 324.504,192.391 321.21,183.261 316.771,174.34 313.957,166.377 309.037,148.576 309.725,138.279 313.728,154.663 321.919,174.34 332.467,191.224 345.578,206.69 358.23,216.738 369.236,225.659 380.951,231.287 393.604,232.204 393.854,196.602 381.66,193.1 372.988,187.013 365.964,181.385 360.106,175.757 352.603,164.96 347.933,155.622 343.702,145.783 341.367,135.902 337.386,121.853 337.845,111.098 344.181,127.94 349.789,143.198 357.522,154.663 368.069,167.794 373.926,175.299 382.598,183.011 393.604,185.346 393.604,149.285 382.827,141.072 375.803,132.4 372.759,125.605 369.236,115.767 367.84,107.345 368.778,93.755 370.654,89.752 373.926,105.011 376.511,116.225 379.784,124.688 384.703,131.692 390.331,135.444 394.542,133.818 401.587,36.599 408.841,133.818 412.822,135.444 418.45,131.692 423.37,124.688 426.643,116.225 429.227,105.011 432.729,89.752 434.605,93.755 435.334,107.345 433.917,115.767 430.415,125.605 427.351,132.4 420.327,141.072 409.55,149.285 409.55,185.346 420.785,183.011 429.457,175.299 435.084,167.794 445.632,154.663 453.365,143.198 459.223,127.94 465.559,111.098 465.789,121.853 461.807,135.902 459.452,145.783 455.22,155.622 450.78,164.96 443.047,175.757 437.419,181.385 430.165,187.013 421.723,193.1 409.3,196.602 409.55,232.204 422.203,231.287 433.917,225.659 444.923,216.738 457.826,206.69 470.708,191.224 481.255,174.34 489.447,154.663 493.428,138.279 494.137,148.576 489.447,166.377 486.404,174.34 482.193,183.261 478.67,192.391 470.479,202.938 464.621,209.942 456.638,219.322 448.675,226.368 438.586,232.204 431.103,235.498 422.89,239.25 417.283,242.043 409.3,242.293 408.612,257.051 401.587,256.801 "
   style="fill:none;stroke:#d21034;stroke-width:3.32719994;stroke-miterlimit:3"
   id="polygon57" />
				</g>
			</g>
		</g>
	</g>
</g>
</svg>