<?xml version="1.0" encoding="UTF-8" standalone="no"?>
<!-- Created with Inkscape (http://www.inkscape.org/) -->

<svg
   xmlns:dc="http://purl.org/dc/elements/1.1/"
   xmlns:cc="http://creativecommons.org/ns#"
   xmlns:rdf="http://www.w3.org/1999/02/22-rdf-syntax-ns#"
   xmlns:svg="http://www.w3.org/2000/svg"
   xmlns="http://www.w3.org/2000/svg"
   version="1.1"
   width="499.99969"
   height="509.18701"
   id="svg1901">
  <defs
     id="defs1903" />
  <metadata
     id="metadata1906">
    <rdf:RDF>
      <cc:Work
         rdf:about="">
        <dc:format>image/svg+xml</dc:format>
        <dc:type
           rdf:resource="http://purl.org/dc/dcmitype/StillImage" />
        <dc:title></dc:title>
      </cc:Work>
    </rdf:RDF>
  </metadata>
  <g
     transform="translate(2.0073903,1.7016134)"
     id="layer2"
     style="display:inline">
    <path
       d="m -2.0073903,-1.7016134 499.9996803,0 L 474.25004,293.9854 C 458.06918,464.60498 326.1126,508.19838 255.14412,507.4147 182.46007,507.44367 51.035451,464.53922 29.890657,293.82486 z"
       id="path2994"
       style="fill:#006ed0;fill-opacity:1;stroke:none" />
  </g>
  <g
     id="layer7"
     style="display:inline">
    <path
       d="m 249.5,39.437502 c -73.86705,0 -133.75,59.882948 -133.75,133.749998 0,73.86705 59.88295,133.75 133.75,133.75 73.86705,0 133.75,-59.88295 133.75,-133.75 0,-73.86705 -59.88295,-133.749998 -133.75,-133.749998 z m 0,43.5 c 50.39598,0 91.25,40.854018 91.25,91.249998 0,50.39598 -40.85402,91.25 -91.25,91.25 -50.39598,0 -91.25,-40.85402 -91.25,-91.25 0,-50.39598 40.85402,-91.249998 91.25,-91.249998 z"
       id="path3835-9"
       style="fill:#ffffff;fill-opacity:1;fill-rule:evenodd;stroke:none" />
  </g>
  <g
     id="layer6"
     style="display:inline">
    <path
       d="m 252.25,40.1875 c -73.86705,0 -133.75,59.88295 -133.75,133.75 0,73.86705 59.88295,133.75 133.75,133.75 73.86705,0 133.75,-59.88295 133.75,-133.75 0,-73.86705 -59.88295,-133.75 -133.75,-133.75 z m 0,43.5 c 50.39598,0 91.25,40.85402 91.25,91.25 0,50.39598 -40.85402,91.25 -91.25,91.25 -50.39598,0 -91.25,-40.85402 -91.25,-91.25 0,-50.39598 40.85402,-91.25 91.25,-91.25 z"
       id="path3835"
       style="fill:#cfcfcf;fill-opacity:1;fill-rule:evenodd;stroke:none" />
  </g>
  <g
     id="layer5"
     style="display:inline">
    <path
       d="m 233.67367,336.31716 c 0,0 -0.70711,-24.39517 -3.53554,-61.87183 -2.82843,-37.47666 0.70711,-49.85103 21.56676,-51.26524 20.85965,-1.41422 26.35861,18.22847 24.39518,45.96194 -2.82842,39.95153 -1.76776,72.83198 -1.76776,72.83198 z"
       id="path3810-0"
       style="fill:#ffffff;fill-opacity:1;stroke:none;display:inline" />
  </g>
  <g
     id="layer4"
     style="display:inline" />
  <g
     transform="translate(2.0073903,1.7016134)"
     id="layer3"
     style="display:inline">
    <path
       d="m 278.31618,320.51512 c -0.35355,-27.22361 2.21936,-44.90958 2.15349,-64.1691"
       transform="translate(-2.0073903,-1.7016134)"
       id="path3859"
       style="fill:none;stroke:#006ed0;stroke-width:3;stroke-linecap:butt;stroke-linejoin:miter;stroke-miterlimit:4;stroke-opacity:1;stroke-dasharray:none" />
  </g>
  <g
     transform="translate(-801.55869,67.814186)"
     id="g3789"
     style="fill-rule:evenodd">
    <g
       id="Layer_x0020_1">
      <metadata
         id="CorelCorpID_0Corel-Layer" />
    </g>
  </g>
  <g
     id="layer8"
     style="display:inline">
    <path
       d="m 447.32091,392.0207 c -45.5972,89.70434 -136.98196,112.85953 -191.27514,112.25998 -55.4662,0.0221 -145.5667,-24.74179 -193.45169,-113.78861 96.9032,-75.75721 285.16212,-75.94866 384.72683,1.52863 z"
       id="path2994-1-7"
       style="fill:#ffffff;fill-opacity:1;stroke:none;display:inline" />
  </g>
  <g
     id="layer9">
    <path
       d="m 236.17367,338.06716 c 0,0 -0.70711,-24.39517 -3.53554,-61.87183 -2.82843,-37.47666 0.70711,-49.85103 21.56676,-51.26524 20.85965,-1.41422 26.35861,18.22847 24.39518,45.96194 -2.82842,39.95153 -1.76776,72.83198 -1.76776,72.83198 z"
       id="path3810"
       style="fill:#cfcfcf;fill-opacity:1;stroke:none;display:inline" />
  </g>
  <g
     id="layer1"
     style="display:inline">
    <path
       d="M 447.33605,392.0139 C 401.73885,481.71824 311.36899,507.36936 257.07581,506.76981 201.60961,506.79191 111.57027,481.54456 63.685268,392.49774 160.58848,316.74053 350.77134,317.03661 447.33605,392.0139 z"
       id="path2994-1"
       style="fill:#cfcfcf;fill-opacity:1;stroke:none;display:inline" />
  </g>
</svg>
