<?xml version="1.0" encoding="UTF-8"?>
<!DOCTYPE svg PUBLIC "-//W3C//DTD SVG 1.1//EN" "http://www.w3.org/Graphics/SVG/1.1/DTD/svg11.dtd">
<!-- Creator: CorelDRAW X6 -->
<svg xmlns="http://www.w3.org/2000/svg" xml:space="preserve" width="500px" height="574px" version="1.1" style="shape-rendering:geometricPrecision; text-rendering:geometricPrecision; image-rendering:optimizeQuality; fill-rule:evenodd; clip-rule:evenodd"
viewBox="0 0 500 574"
 xmlns:xlink="http://www.w3.org/1999/xlink"
 xmlns:svg="http://www.w3.org/2000/svg">
 <defs>
  <style type="text/css">
   <![CDATA[
    .str2 {stroke:#2B2A29;stroke-width:0.216}
    .str1 {stroke:#2B2A29;stroke-width:0.216}
    .str0 {stroke:#005DA4;stroke-width:2.83465}
    .fil5 {fill:#008DD2}
    .fil4 {fill:#00A0E3}
    .fil3 {fill:#2B2A29}
    .fil1 {fill:#D9DADA}
    .fil2 {fill:#FEFEFE}
    .fil0 {fill:#0067C4}
   ]]>
  </style>
 </defs>
 <g id="Layer_x0020_1">
  <metadata id="CorelCorpID_0Corel-Layer"/>
  <path id="path1937" class="fil0 str0" d="M2 2l497 0 -1 308c-11,347 -481,350 -496,0l0 -308z"/>
  <path id="path1937_0" class="fil1" d="M498 254l0 56c-11,347 -481,350 -496,0l0 -55c27,0 32,-15 51,-15 18,-1 28,14 44,14 16,0 33,-16 50,-16 18,0 38,18 56,18 17,0 22,-14 49,-14 26,0 26,13 52,13 25,0 29,-15 52,-15 23,0 29,14 55,14 14,0 30,-15 46,-15 16,0 28,15 41,15z"/>
  <path id="path1937_1" class="fil2" d="M498 254l0 3c-16,0 -26,-13 -40,-13 -15,0 -31,15 -47,15 -17,0 -37,-15 -55,-15 -18,0 -35,16 -52,16 -18,0 -37,-14 -53,-14 -17,0 -33,14 -51,14 -18,0 -36,-18 -53,-18 -18,0 -34,16 -49,16 -16,0 -30,-15 -46,-15 -16,0 -20,14 -50,15l0 -3c27,0 32,-15 51,-15 18,-1 28,14 44,14 16,0 33,-16 50,-16 18,0 38,18 56,18 17,0 22,-14 49,-14 26,0 26,13 52,13 25,0 29,-15 52,-15 23,0 29,14 55,14 14,0 30,-15 46,-15 16,0 28,15 41,15z"/>
  <polygon class="fil3 str1" points="163,264 123,324 149,308 96,445 145,420 134,485 117,469 132,532 169,475 145,488 196,362 144,387 159,312 175,325 "/>
  <polygon class="fil0" points="161,264 121,324 147,307 94,445 143,420 132,485 115,468 130,531 168,474 144,487 194,362 142,386 157,311 173,325 "/>
  <path class="fil4" d="M149 306l-2 1 -53 138 3 -2 52 -137zm16 171l3 -3 -22 12 0 3m16 -220l-1 -5 -40 60 8 -5 33 -50zm-18 119l1 -3 49 -23 -2 3 -48 23zm0 34l-11 67 -13 -14 12 53 -2 3 -15 -63 17 17 11 -61 1 -2z"/>
  <polygon class="fil3 str1" points="271,264 231,324 257,307 204,445 253,420 242,485 225,468 240,531 277,474 253,487 304,362 252,386 267,311 283,325 "/>
  <polygon class="fil0" points="269,264 229,324 255,307 202,445 251,420 240,485 223,468 238,531 276,474 252,487 302,362 250,386 265,311 281,325 "/>
  <path class="fil5" d="M257 306l-2 1 -53 138 3 -2 52 -137zm16 171l3 -3 -22 12 0 3m16 -220l-1 -5 -40 60 8 -5 33 -50zm-18 119l1 -3 49 -23 -2 3 -48 23zm0 34l-11 67 -13 -14 12 53 -2 3 -15 -63 17 17 11 -61 1 -2z"/>
  <polygon class="fil3 str1" points="379,265 339,325 365,308 312,446 361,421 350,486 333,469 348,532 385,475 361,488 412,363 360,387 375,312 391,326 "/>
  <polygon class="fil0" points="377,264 337,324 363,307 310,445 359,420 348,485 331,468 346,531 384,474 360,487 410,362 358,386 373,311 389,325 "/>
  <path class="fil4" d="M365 306l-2 1 -53 138 3 -2 52 -137zm16 171l3 -3 -22 12 0 3m16 -220l-1 -5 -40 60 8 -5 33 -50zm-18 119l1 -3 49 -23 -2 3 -48 23zm0 34l-11 67 -13 -14 12 53 -2 3 -15 -63 17 17 11 -61 1 -2z"/>
  <path class="fil1 str2" d="M20 131c8,-13 97,-41 179,-34 1,-10 32,-42 58,-69 11,15 27,27 53,34l-30 38c14,2 30,5 49,8 32,-33 71,-15 40,8 22,6 57,-1 112,-30 3,1 4,4 4,7 -8,40 -8,74 -1,102 -2,4 -2,5 -6,5 -34,-17 -64,-28 -84,-29 4,7 10,13 12,19 -37,6 -63,15 -87,25l-26 -25c-9,3 -19,5 -31,5 6,19 2,33 -11,40 -20,-6 -32,-20 -38,-38 -41,0 -79,6 -124,-13 -40,-1 -56,-2 -67,-17 0,-5 -1,-10 1,-14 15,11 25,-1 45,3 -8,-12 -42,-6 -48,-25z"/>
  <path class="fil2" d="M372 94l2 -3c-10,-4 -28,0 -45,17 -19,-3 -35,-6 -49,-8l-3 1 1 2c17,3 35,5 53,10 12,-13 25,-22 41,-19zm104 -5c-52,26 -85,33 -107,27l-6 1 0 2c50,5 51,3 116,-27l-3 -3zm-187 97l4 4 23 22 5 -2 -27 -26 -5 2zm-43 48l5 -4c-17,-6 -30,-18 -36,-38l-4 0 2 5c6,17 16,30 33,37zm-168 -77l-10 -1c-20,-4 -30,8 -45,-3 -2,4 -1,9 -1,14l3 -3 0 -5c3,-3 3,2 11,2 12,1 19,-6 42,-1l0 -3zm-50 -25c-3,-1 -6,-1 -7,1 -1,0 -1,-1 -1,-2 8,-13 97,-41 179,-34 1,-10 32,-42 58,-69 13,18 31,27 51,33l-2 2c-21,-5 -37,-16 -49,-30 -34,34 -49,53 -56,66 -93,-6 -133,13 -171,29 1,3 10,7 14,8l-2 0c-5,0 -9,-3 -14,-4z"/>
  <path class="fil3" d="M278 96c-1,2 0,3 2,4l30 -38c-1,-1 -2,-1 -3,-1l-29 35zm96 -5c9,4 10,14 -5,25l-6 1c-1,-5 20,-14 10,-24l1 -2m-57 121l2 3c24,-10 50,-19 87,-25 -2,-6 -8,-12 -12,-19 20,1 50,12 84,29 4,0 4,-1 6,-5 -7,-28 -7,-62 1,-102 0,-3 -1,-6 -4,-7 -2,1 -3,2 -5,3 7,5 -1,19 -3,38 -2,21 2,50 5,68 -30,-14 -62,-31 -93,-30 -2,4 7,14 14,21l-5 1 -16 -19c-3,-1 -3,0 -3,2l15 18 -5 0 -17 -19c-2,1 -3,1 -3,3l15 18 -6 1c-5,-8 -11,-13 -17,-18 -2,-2 -2,-1 -2,1 5,6 10,11 17,18l-8 1c-7,-8 -14,-15 -19,-20 -3,0 -3,2 -3,4 6,4 12,10 19,18 -4,0 -6,1 -7,2 -7,-9 -14,-15 -22,-21 -2,-1 -3,0 -2,2 7,7 14,14 19,20l-6 2c-6,-6 -14,-15 -22,-22 -2,0 -3,1 -3,2l22 21 -6 3c-7,-8 -15,-15 -24,-23 -2,-1 -4,0 -5,1 8,7 16,15 25,24l-6 2c-8,-10 -17,-19 -28,-28 -2,1 -2,3 -1,4 12,10 22,19 27,26l-5 2zm-28 -26l4 4c-9,3 -19,5 -31,5 6,19 2,33 -11,40 -2,0 -3,-1 -5,-1 3,-2 6,-5 8,-7 -20,-11 -31,-23 -36,-36l2 0c6,11 17,23 36,34l1 -4c-12,-7 -25,-20 -33,-34l1 0c12,12 23,25 33,31l1 -2 -29 -30 3 -1 27 27 0 -3c-6,-8 -13,-16 -22,-23l2 -1c5,3 12,10 18,17 1,-4 -5,-11 -14,-19l2 -2c5,4 9,7 12,10 11,0 22,-2 31,-5zm-78 6c-62,1 -101,-5 -121,-14 -37,-1 -60,-5 -65,-14l-3 3c11,15 27,16 67,17 45,19 83,13 124,13l-2 -5zm-136 -37c3,5 -6,8 -7,1 -8,-12 -39,-6 -47,-23l2 -1c10,15 36,5 52,23z"/>
  <path class="fil2" d="M49 137c9,1 17,4 18,4l-2 1c-7,-2 -12,-3 -17,-3l1 -2z"/>
  <path class="fil2" d="M74 144l-3 1c4,2 6,5 8,7l2 0c-2,-3 -4,-6 -7,-8z"/>
  <path class="fil3" d="M40 130c1,0 2,1 2,2 1,0 2,0 2,1 0,1 -1,2 -3,2 -2,0 -3,-1 -3,-2 -1,-1 1,-3 2,-3z"/>
  <path class="fil3" d="M66 123c2,0 4,2 4,4 0,3 -4,3 -6,3 -4,0 -2,-7 2,-7z"/>
  <path class="fil2" d="M65 133l-1 1c-11,-4 -6,-16 4,-14l1 4c-7,-4 -12,6 -4,9z"/>
  <path class="fil3" d="M69 123c8,2 3,16 -8,11l1 2c5,2 10,1 12,-2 4,-4 2,-12 -5,-13l0 2z"/>
  <path class="fil3" d="M94 117c1,0 3,1 3,2 0,2 -5,2 -4,0 0,-1 0,-2 1,-2z"/>
  <path class="fil3" d="M99 124c1,0 3,1 3,2 0,3 -5,3 -4,0 0,-1 0,-2 1,-2z"/>
  <path class="fil3" d="M87 126c2,0 3,0 3,1 0,2 -5,3 -4,1 0,-1 0,-2 1,-2z"/>
  <path class="fil3" d="M88 118c1,-1 2,0 2,2 1,1 -4,1 -4,0 1,-1 1,-1 2,-2z"/>
  <path class="fil3" d="M111 174l-1 1c11,4 21,7 36,5 7,-1 14,-3 16,-11 1,-2 -4,-1 -11,-2 -9,-1 -23,-3 -31,-3l1 2c13,1 21,3 31,4l0 2c-11,2 -25,-2 -37,-3l0 1c11,4 22,5 34,5 -3,4 -15,4 -38,-1z"/>
  <path class="fil2" d="M160 164c-27,-9 -32,-5 -46,-6l-1 4c11,-1 22,-2 42,4l5 0 0 -2z"/>
  <path class="fil3" d="M370 98c0,-1 -3,-1 -3,0 -2,4 -6,8 -11,12 -1,2 2,2 4,2 5,-4 9,-8 10,-14z"/>
  <path class="fil3" d="M471 102c2,1 2,1 2,2 -12,4 -29,11 -46,18l1 2 42 -11c2,1 2,2 0,3 -13,3 -27,7 -39,10l0 4c11,-3 23,-5 37,-6 1,-1 2,2 1,2 -15,2 -27,4 -37,7l1 3 36 -2c1,1 1,2 1,2 -13,1 -25,2 -37,3l0 4 37 1c0,1 0,2 0,3 -13,-1 -25,-1 -37,0l0 1 36 6 -1 3c-9,-3 -21,-4 -36,-6l0 3c13,3 25,6 37,8l1 3 -39 -8 -2 2c10,5 24,9 41,14 1,1 1,2 1,3 -15,-4 -30,-9 -44,-14l-3 2c16,8 32,14 48,18 1,1 1,2 0,3 -18,-5 -35,-12 -51,-19l-2 1c-3,1 -3,-1 0,-6 11,-8 9,-31 -5,-38 -8,1 -16,1 -24,1 -1,0 0,2 -2,3 -1,1 -2,0 -4,0 -3,1 -6,2 -7,1 -4,-2 2,-4 1,-4 -2,0 -4,0 -5,0 -1,-1 -2,-1 -2,-1 -1,0 2,5 -4,5 -5,0 -1,-5 -2,-5 -4,0 -8,0 -12,-1 0,4 -5,3 -6,0 -2,2 0,3 -1,5 -1,2 -5,2 -5,2 -4,-4 2,-5 2,-8 -5,1 -8,0 -9,-2 -7,-1 -6,2 -9,1 -2,-1 -4,0 -5,0 -2,-1 -1,-3 -3,-4 -3,0 -6,1 -10,1 1,6 -6,6 -8,6 -3,-1 -6,-6 -7,-9 -4,-1 -6,3 -10,2 0,0 1,3 0,5 -1,2 -3,3 -4,3 -3,-1 -5,1 -9,-1 -5,-3 5,-5 1,-7 -3,-1 2,-4 -1,-5 -7,-1 -8,4 -12,3 -2,-1 -2,-4 -3,-4 -1,0 -2,3 1,5 1,0 1,3 1,4 0,2 -1,3 -3,3 -6,0 -3,-6 -4,-6 -2,0 -3,0 -5,-1 -1,0 1,3 -2,2 -2,0 -3,-4 -4,-4 -1,0 -2,0 -3,0 0,1 1,5 0,6 -1,2 -5,2 -7,-2 -1,-3 4,-2 4,-4 -2,0 -4,0 -8,0 0,-3 -3,-6 -5,0 -3,1 -1,-1 -5,0 -2,3 -4,3 -5,0 -8,-3 -13,-1 -18,2 -2,0 -3,-2 -5,-2 -1,0 0,4 -1,5 -2,2 -5,2 -6,1 0,-1 -2,-5 3,-6 2,-1 -1,-4 -2,-4 -2,0 1,5 -1,6 -2,1 -6,-4 -9,-4 2,4 -1,5 -1,5 -1,-1 -5,-3 -5,-7 -4,2 -2,4 -3,7 -2,2 -4,2 -5,2 -5,-2 -2,-4 -1,-5 1,-1 5,0 1,-6 -2,0 -4,0 -6,1 0,2 -1,4 -2,5 -4,2 -7,0 -6,-5 -3,0 -6,0 -9,0 -1,2 -3,3 -5,1 -1,0 -2,0 -3,0 0,3 -5,5 -7,4 -1,-1 1,-2 0,-4 -6,1 -11,1 -16,2 -1,3 2,6 6,11 0,-1 4,-2 7,1 2,4 -4,3 -4,4 3,4 6,9 6,16 1,10 -9,28 -18,29 -4,1 -5,2 -9,4 -2,1 -3,0 -3,-1 14,-5 25,-21 23,-42 -1,-7 -12,-14 -13,-19 -1,-2 0,-4 3,-6 4,0 16,-4 25,-5 21,-2 46,-3 83,-4 2,-8 29,-38 49,-61 2,-1 3,0 3,2 -18,20 -35,39 -49,58l9 1c-2,0 19,-25 47,-54l3 1c-22,23 -40,42 -46,53l10 0c9,-12 23,-28 40,-47 2,0 3,1 2,2 -17,19 -32,34 -38,46l11 0c11,-16 23,-30 35,-43 2,0 3,1 3,2 -14,13 -25,27 -34,41 3,1 6,1 9,1 10,-13 20,-26 31,-39 1,0 2,1 2,2 -10,12 -20,24 -30,37 -1,2 23,3 45,8 26,5 56,12 77,12 15,0 32,-1 46,-6 13,-5 24,-9 38,-13z"/>
  <path class="fil3" d="M124 123c1,0 4,0 5,1 2,2 3,3 0,4 -2,1 -7,-1 -6,-3 0,-1 0,-2 1,-2z"/>
  <path class="fil3" d="M145 133c3,0 4,1 5,1 2,2 4,4 1,6 -2,1 -8,-2 -7,-4 0,-1 -2,-3 1,-3z"/>
  <path class="fil3" d="M132 113c3,0 2,0 3,1 3,2 4,5 1,6 -2,1 -5,-2 -6,-4 0,-1 -1,-3 2,-3z"/>
  <path class="fil3" d="M139 121c1,0 3,1 4,2 3,2 3,3 0,4 -2,1 -6,-2 -5,-4 0,-1 0,-2 1,-2z"/>
  <path class="fil3" d="M153 125c1,0 4,0 5,1 2,2 1,3 -2,4 -2,1 -5,-1 -4,-3 0,-1 0,-2 1,-2z"/>
  <path class="fil3" d="M178 124c1,0 3,2 4,2 3,2 2,5 0,6 -3,1 -9,-4 -8,-6 1,-1 3,-2 4,-2z"/>
  <path class="fil3" d="M165 118c3,-1 4,-2 4,-2 3,2 1,7 -2,8 -2,0 -4,-2 -3,-4 0,-1 -2,-2 1,-2z"/>
  <path class="fil3" d="M152 149c1,-2 3,-1 4,0 1,2 0,4 -1,4 -2,1 -5,-1 -4,-3 1,-1 1,-1 1,-1z"/>
  <path class="fil3" d="M165 144c1,0 2,1 3,2 2,1 2,3 1,3 -4,2 -6,-2 -6,-2 0,-1 0,-3 2,-3z"/>
  <path class="fil3" d="M175 129c2,1 -3,3 -1,7 1,1 0,2 -1,2 -2,1 -7,-3 -6,-5 1,-2 2,-1 4,-1 4,-1 3,-3 4,-3z"/>
  <path class="fil3" d="M189 137c1,0 2,0 3,0 2,2 1,5 0,6 -3,2 -6,-4 -6,-4 1,-1 2,-2 3,-2z"/>
  <path class="fil3" d="M211 134c2,-1 2,0 3,1 2,1 1,3 0,4 -4,3 -6,-2 -6,-3 -1,0 0,-2 3,-2z"/>
  <path class="fil3" d="M197 147c2,-2 3,0 4,0 1,2 0,4 -1,4 -2,1 -5,-1 -4,-3 1,-1 1,-1 1,-1z"/>
  <path class="fil3" d="M219 147c1,-2 3,-1 3,0 2,1 1,4 0,4 -2,1 -5,-1 -4,-3 1,-1 1,-1 1,-1z"/>
  <path class="fil3" d="M216 124c3,1 4,2 5,2 3,4 2,8 -2,8 -3,0 -7,-6 -6,-8 0,-2 1,-3 3,-2z"/>
  <path class="fil3" d="M197 125c2,0 3,1 4,1 2,2 1,5 -1,5 -6,3 -6,-4 -6,-4 0,-1 2,-2 3,-2z"/>
  <path class="fil3" d="M203 114c2,1 0,6 -1,7 -2,1 -3,1 -4,0 -1,-1 -2,-2 -2,-2 1,-2 4,-7 7,-5z"/>
  <path class="fil3" d="M220 115c1,0 2,0 3,1 2,1 1,5 0,5 -4,3 -6,-2 -6,-3 1,-1 1,-3 3,-3z"/>
  <path class="fil3" d="M235 128c1,0 2,1 3,1 2,2 1,6 0,7 -4,2 -7,-4 -7,-5 0,-1 2,-3 4,-3z"/>
  <path class="fil3" d="M242 142c2,-2 3,0 4,1 1,1 3,7 1,7 -1,1 -3,0 -5,-1 -2,-2 -2,-4 -2,-5 1,-1 2,-2 2,-2z"/>
  <path class="fil3" d="M262 113c2,-2 4,0 4,1 2,1 0,4 -1,4 -2,1 -5,-1 -4,-3 0,-1 1,-2 1,-2z"/>
  <path class="fil3" d="M255 126c3,0 3,2 4,3 1,2 1,4 0,5 -1,0 -4,0 -5,-1 -1,-1 -1,-4 0,-5 0,-1 -1,-1 1,-2z"/>
  <path class="fil3" d="M259 144c1,-2 3,-2 4,-1 1,1 2,5 1,6 -2,0 -7,-3 -6,-5 1,-1 1,0 1,0z"/>
  <path class="fil3" d="M275 145c1,-2 3,-1 3,0 2,1 3,5 1,6 -2,0 -2,-1 -4,-2 -1,-1 -1,-4 0,-4z"/>
  <path class="fil3" d="M276 131c1,-2 4,-1 5,0 1,1 1,6 0,6 -2,1 -7,-3 -6,-5 1,-1 1,0 1,-1z"/>
  <path class="fil3" d="M267 132c2,-2 2,0 3,0 1,2 1,3 0,3 -2,1 -5,0 -4,-2 1,-1 1,-1 1,-1z"/>
  <path class="fil3" d="M288 139c2,-1 3,-1 3,0 2,2 1,4 0,5 -2,1 -5,-1 -4,-3 1,-1 1,-1 1,-2z"/>
  <path class="fil3" d="M286 117c2,-1 5,0 5,1 1,2 -2,3 -3,3 -2,1 -4,0 -3,-2 1,-1 1,-1 1,-2z"/>
  <path class="fil3" d="M295 129c4,-3 5,1 6,2 1,2 1,5 -1,6 -1,0 -3,1 -5,-1 -1,-1 -1,-5 -1,-6 1,-1 -3,3 1,-1z"/>
  <path class="fil3" d="M322 128c3,-2 5,2 5,2 1,2 3,8 2,9 -2,0 -8,-1 -8,-4 0,-2 -1,-5 1,-7z"/>
  <path class="fil3" d="M317 120c1,1 1,5 0,5 -1,0 -4,1 -5,0 -2,0 -3,-3 -2,-3 0,-1 5,-4 7,-2z"/>
  <path class="fil3" d="M336 137c2,-2 5,0 6,0 1,2 2,10 1,9 -2,-1 -5,0 -6,-3 -1,-2 -3,-2 -1,-6z"/>
  <path class="fil3" d="M304 141c2,-2 2,-1 2,0 2,2 1,2 0,3 -2,0 -4,0 -3,-2 1,-1 1,-1 1,-1z"/>
  <path class="fil3" d="M315 143c1,2 1,3 0,3 -2,1 -5,0 -4,-2 1,-2 2,-3 4,-1z"/>
  <path class="fil3" d="M310 132c1,-2 2,-1 2,0 1,1 1,2 0,3 -2,1 -4,0 -3,-2 0,-1 0,-1 1,-1z"/>
  <path class="fil3" d="M335 122c2,2 2,5 1,5 -1,1 -4,1 -5,0 -2,0 -2,-2 -2,-3 1,-1 5,-4 6,-2z"/>
  <path class="fil3" d="M358 124c1,1 2,5 0,6 -1,0 -2,0 -4,-1 -5,-2 2,-8 4,-5z"/>
  <path class="fil3" d="M350 139c-2,-1 -1,-6 1,-7 3,-1 4,1 4,3 1,2 1,3 0,4 -1,1 -1,2 -5,0z"/>
  <path class="fil3" d="M370 138c0,1 1,2 0,3 -2,2 -4,1 -5,0 -4,-5 3,-11 5,-3z"/>
  <path class="fil3" d="M379 136c-2,-2 0,-6 2,-5 2,0 2,1 2,2 0,1 1,2 0,3 -1,1 -1,1 -4,0z"/>
  <path class="fil3" d="M393 130c-3,-1 -1,-5 2,-5 1,0 1,2 2,3 0,1 1,2 0,3 -2,1 -1,1 -4,-1z"/>
  <path class="fil3" d="M401 140c-2,-2 -1,-5 2,-5 1,0 1,1 1,3 1,1 0,1 0,2 -1,1 -1,2 -3,0z"/>
  <path class="fil3" d="M385 141c1,0 1,1 2,3 0,3 -2,2 -3,2 -2,-1 -2,-2 -1,-4 0,0 0,-1 2,-1z"/>
  <path class="fil3" d="M410 129c1,0 1,1 1,2 0,1 0,2 -1,2 0,0 -2,-1 -2,-2 0,-1 2,-2 2,-2z"/>
  <path class="fil3" d="M410 142c1,0 1,1 1,2 0,1 0,2 -1,2 0,0 -2,-1 -2,-2 0,-1 2,-2 2,-2z"/>
  <path class="fil3" d="M414 133c0,0 1,1 1,2 0,1 -1,1 -1,1 -1,0 -2,0 -2,-1 0,-1 1,-2 2,-2z"/>
 </g>
</svg>
