<?xml version="1.0" encoding="UTF-8" standalone="no"?>
<!-- Created with Inkscape (http://www.inkscape.org/) -->
<svg
   xmlns:dc="http://purl.org/dc/elements/1.1/"
   xmlns:cc="http://web.resource.org/cc/"
   xmlns:rdf="http://www.w3.org/1999/02/22-rdf-syntax-ns#"
   xmlns:svg="http://www.w3.org/2000/svg"
   xmlns="http://www.w3.org/2000/svg"
   xmlns:sodipodi="http://sodipodi.sourceforge.net/DTD/sodipodi-0.dtd"
   xmlns:inkscape="http://www.inkscape.org/namespaces/inkscape"
   width="440.78247"
   height="498.57806"
   id="svg1901"
   sodipodi:version="0.32"
   inkscape:version="0.45.1"
   sodipodi:docname="Multia vaakuna.svg"
   sodipodi:docbase="D:\Eigene Datein\AR\tx\Kuwat\SVG muokkaus\Valmiit"
   inkscape:output_extension="org.inkscape.output.svg.inkscape"
   version="1.0"
   inkscape:export-filename="D:\Eigene Datein\AR\tx\Kuwat\SVG muokkaus\Valmiit\Version history\Multia 1.9.png"
   inkscape:export-xdpi="20"
   inkscape:export-ydpi="20">
  <defs
     id="defs1903" />
  <sodipodi:namedview
     id="base"
     pagecolor="#ffffff"
     bordercolor="#666666"
     borderopacity="1.0"
     inkscape:pageopacity="0.0"
     inkscape:pageshadow="2"
     inkscape:zoom="1.4142136"
     inkscape:cx="314.0469"
     inkscape:cy="263.96806"
     inkscape:document-units="px"
     inkscape:current-layer="layer1"
     gridtolerance="10000"
     inkscape:window-width="1680"
     inkscape:window-height="950"
     inkscape:window-x="-4"
     inkscape:window-y="-4"
     showgrid="false"
     showguides="true"
     inkscape:guide-bbox="true" />
  <metadata
     id="metadata1906">
    <rdf:RDF>
      <cc:Work
         rdf:about="">
        <dc:format>image/svg+xml</dc:format>
        <dc:type
           rdf:resource="http://purl.org/dc/dcmitype/StillImage" />
      </cc:Work>
    </rdf:RDF>
  </metadata>
  <g
     inkscape:label="Taso 1"
     inkscape:groupmode="layer"
     id="layer1"
     style="opacity:1"
     transform="translate(-114.73377,-210.65625)">
    <path
       style="opacity:1;fill:#000000;fill-opacity:1"
       d="M 114.73966,210.66161 C 114.74004,234.87094 115.23303,190.3245 114.73575,360.2827 C 114.23847,531.4909 117.0933,537.80678 132.375,583.8125 C 155.85915,645.9215 247.23062,710.38357 334.59375,709.21875 C 334.94792,709.21959 335.30208,709.21875 335.65625,709.21875 C 423.01939,710.38357 514.39085,645.9215 537.875,583.8125 C 553.37637,535.32669 556.57384,536.09509 555.34505,360.41919 C 555.17692,219.64153 555.49814,210.65626 555.49816,210.65625 C 555.49816,210.65625 264.43674,210.45781 114.73966,210.66161 z "
       id="path2167"
       sodipodi:nodetypes="czccccccc" />
    <path
       style="fill:#ad8a2e;fill-opacity:1"
       d="M 120.21875,13.6875 L 154.75,32.96875 L 171.5625,80.65625 L 197.875,99.4375 C 195.99174,102.11202 194.20763,104.85491 192.46875,107.625 C 191.56054,108.90025 190.59095,110.53845 189.625,112.40625 C 189.301,113.03402 188.97085,113.55673 188.65625,114.21875 C 187.36267,116.9458 186.13969,119.8725 185.34375,122.46875 C 182.65188,131.24942 181.19299,132.63795 194.46875,132.59375 C 198.40141,132.61902 202.16293,132.64362 206,132.65625 L 205.96875,137.09375 L 190.03125,149.46875 L 192.03125,159.625 L 142.40625,159.875 L 142.28125,169.53125 L 107.125,101.5 L 96.0625,102.4375 C 87.477132,89.68724 63.13085,82.18604 52.25,68.90625 L 36.75,39.46875 L 22.96875,37.625 C 22.96875,37.625 38.82575,65.0119 43,73.8125 C 59.682558,84.98939 85.90296,98.81334 91.28125,105.6875 L 84.875,113.65625 C 100.21468,137.45233 124.89367,159.19295 142.28125,181.4375 L 142.40625,188.3125 C 156.59684,181.77819 171.95772,173.99911 193.25,165.78125 L 195.6875,178.28125 L 152.34375,200.84375 L 152.34375,209.6875 L 82.78125,181.09375 L 82.78125,185.8125 C 74.968182,198.63367 50.16842,238.25431 40.75,255.34375 C 29.034048,262.22697 15.98166,268.14093 14.21875,273.09375 C 14.00756,281.84675 14.1944,284.31938 14.125,290.875 C 20.04286,281.94368 33.14121,275.64081 48.71875,267.75 L 83.09375,198.0625 L 86.46875,205.53125 L 156.25,216.8125 L 162.0625,224.1875 C 173.42226,212.27042 185.39377,196.69492 197.03125,184.875 L 200.21875,201.09375 C 198.11144,202.80152 197.08059,203.42655 189.15625,209.28125 L 157.15625,251.71875 L 163.875,257.40625 L 89.40625,248.875 L 87.90625,264.84375 C 91.497802,284.052 96.22881,305.68678 100.84375,325.90625 C 111.12004,367.75624 109.84316,379.4787 102.65625,395.6875 C 95.562092,411.68711 89.44591,419.57907 96.84375,433.34375 L 104.875,444.53125 C 105.71008,430.85083 105.81824,431.94769 117.78125,409.40625 C 127.32449,387.50824 127.07251,386.59679 117.9375,347.90625 C 108.81552,309.2709 99.97355,273.0317 101.6875,271.34375 L 171.34375,264.28125 L 175.28125,266.84375 L 198.15625,212.1875 C 199.92372,210.60143 200.47179,210.13457 201.78125,208.96875 L 205.5,227.8125 C 200.49024,230.84236 197.27447,235.42968 197.28125,240.59375 C 197.28805,245.78969 200.55126,250.41149 205.625,253.4375 L 205.65625,255.34375 C 202.84967,259.17135 198.23099,261.11024 193.34375,265.46875 C 176.50817,280.48295 168.17568,303.39112 171.75,329.46875 C 174.88354,352.33045 193.02042,388.29669 208.9375,403.25 L 219.625,413.28125 L 233.65625,400.09375 C 273.96869,362.22485 280.32502,292.82588 246,265.0625 C 241.98257,261.79329 236.82129,259.80265 233.65625,255.59375 L 233.625,253.375 C 238.61839,250.3407 241.78801,245.71838 241.78125,240.5625 C 241.77019,235.36857 238.50769,230.7381 233.4375,227.71875 L 237.03125,209.53125 C 238.67696,211.00124 239.06316,211.32445 241,213.0625 L 263.875,267.71875 L 267.8125,265.15625 L 337.46875,272.21875 C 339.18269,273.9067 330.34074,310.1459 321.21875,348.78125 C 312.08373,387.47179 311.83177,388.38324 321.375,410.28125 C 333.338,432.82269 333.44618,431.72583 334.28125,445.40625 L 342.3125,434.21875 C 349.71033,420.45407 343.59417,412.56211 336.5,396.5625 C 329.31308,380.3537 328.03622,368.63124 338.3125,326.78125 C 342.92743,306.56178 347.65846,284.927 351.25,265.71875 L 349.75,249.75 L 275.28125,258.28125 L 282,252.59375 L 250,210.15625 C 241.62751,203.97045 240.98056,203.64751 238.59375,201.6875 L 241.8125,185.40625 C 253.55181,197.26455 265.62853,213.03478 277.09375,225.0625 L 282.90625,217.6875 L 352.6875,206.40625 L 356.0625,198.9375 L 390.4375,268.625 C 406.01503,276.51581 419.11337,282.81868 425.03125,291.75 C 424.96184,285.19438 425.14867,282.72175 424.9375,273.96875 C 423.17458,269.01593 410.12218,263.10197 398.40625,256.21875 C 388.98782,239.12931 364.18808,199.50867 356.375,186.6875 L 356.375,181.96875 L 286.8125,210.5625 L 286.8125,201.71875 L 243.15625,179 L 245.65625,165.96875 C 267.00564,174.20679 282.62335,181.76447 296.84375,188.3125 L 296.71875,181.4375 C 314.10632,159.19295 338.81657,137.70234 354.15625,113.90625 L 347.75,105.9375 C 353.12828,99.06334 379.34869,85.2394 396.03125,74.0625 C 400.20549,65.2619 416.0625,37.87501 416.0625,37.875 L 402.28125,39.71875 L 386.78125,69.15625 C 375.90039,82.43604 351.55412,89.93725 342.96875,102.6875 L 331.90625,101.75 L 296.71875,169.53125 L 296.84375,160.125 L 246.90625,159.875 L 248.84375,149.84375 L 233.09375,136.84375 L 233.125,132.65625 C 236.69638,132.64815 240.18781,132.63793 243.84375,132.625 C 257.1195,132.66919 255.66061,131.28067 252.96875,122.5 C 252.1728,119.90374 250.94982,116.97705 249.65625,114.25 C 249.34164,113.58797 249.01149,113.06527 248.6875,112.4375 C 247.72154,110.56969 246.75195,108.9315 245.84375,107.65625 L 240.375,99.40625 L 266.65625,80.65625 L 283.46875,32.96875 L 318,13.71875 L 308.59375,14.21875 L 277.84375,28.6875 L 259.78125,75.71875 L 233.6875,90.53125 C 232.98655,89.75936 232.91283,89.677296 232.59375,89.3125 C 230.90859,87.412494 229.35368,85.906953 228.125,85.3125 C 225.80684,84.19095 223.0062,83.62335 220.1875,83.53125 L 218.125,83.5 C 215.30629,83.5921 212.50565,84.15971 210.1875,85.28125 C 208.29157,86.321229 206.84525,87.962446 205.40625,89.53125 C 205.19916,89.764166 205.09201,89.913739 204.53125,90.53125 L 178.4375,75.6875 L 160.375,28.6875 L 129.59375,14.21875 L 120.21875,13.6875 z "
       transform="translate(114.73377,210.65625)"
       id="path2245"
       sodipodi:nodetypes="cccccssscccccccccccccccccccccccccccccccccccccccscccsccccccsccsscccccccccccccscccscccccccccccccccccccccccccccccccccccccccssscccccccccssccccccccc" />
    <path
       style="fill:#00ff00"
       d="M 348.375,466.25 C 348.9957,467.1463 349.84916,468.01368 350.84375,468.84375 C 350.84991,468.84889 350.86883,468.83861 350.875,468.84375 C 349.88162,468.01359 348.9957,467.1463 348.375,466.25 z "
       id="path2198" />
  </g>
</svg>
