<?xml version="1.0" encoding="UTF-8" standalone="no"?>
<!-- Creator: CorelDRAW -->

<svg
   xmlns:dc="http://purl.org/dc/elements/1.1/"
   xmlns:cc="http://creativecommons.org/ns#"
   xmlns:rdf="http://www.w3.org/1999/02/22-rdf-syntax-ns#"
   xmlns:svg="http://www.w3.org/2000/svg"
   xmlns="http://www.w3.org/2000/svg"
   xmlns:sodipodi="http://sodipodi.sourceforge.net/DTD/sodipodi-0.dtd"
   xmlns:inkscape="http://www.inkscape.org/namespaces/inkscape"
   xml:space="preserve"
   width="500.15894"
   height="548.58984"
   style="fill-rule:evenodd"
   viewBox="0 0 500.15894 527.45328"
   version="1.0"
   id="svg2"
   inkscape:version="0.48.0 r9654"
   sodipodi:docname="Mustasaari.vaakuna.svg"><metadata
   id="metadata28"><rdf:RDF><cc:Work
       rdf:about=""><dc:format>image/svg+xml</dc:format><dc:type
         rdf:resource="http://purl.org/dc/dcmitype/StillImage" /></cc:Work></rdf:RDF></metadata><sodipodi:namedview
   pagecolor="#ffffff"
   bordercolor="#666666"
   borderopacity="1"
   objecttolerance="10"
   gridtolerance="10"
   guidetolerance="10"
   inkscape:pageopacity="0"
   inkscape:pageshadow="2"
   inkscape:window-width="1280"
   inkscape:window-height="738"
   id="namedview26"
   showgrid="false"
   fit-margin-top="0"
   fit-margin-left="0"
   fit-margin-right="0"
   fit-margin-bottom="0"
   inkscape:zoom="1.8283713"
   inkscape:cx="282.96715"
   inkscape:cy="331.54248"
   inkscape:window-x="-8"
   inkscape:window-y="-8"
   inkscape:window-maximized="1"
   inkscape:current-layer="svg2" />
 <defs
   id="defs4">
  <style
   type="text/css"
   id="style6">
   
    .str0 {stroke:#F00000;stroke-width:1.98425}
    .fil3 {fill:none}
    .fil2 {fill:#C0A062}
    .fil1 {fill:white}
    .fil0 {fill:#F00000}
   
  </style>
 </defs>
 <g
   id="Layer_x0020_1"
   transform="translate(0.14441497,-11.311815)">
  <metadata
   id="CorelCorpID_0Corel-Layer" />
  <path
   id="path1937"
   class="fil0 str0"
   d="m 0.84841,1.30394 498.174,0.158173 -24.6671,352.538997 c -45.1925,258.832 -405.864,258.142 -448.239,0.34526 L 0.84771,1.304373 z"
   inkscape:connector-curvature="0"
   style="fill:#f00000;stroke:#f00000;stroke-width:1.98424995" />
  <path
   id="path1937_0"
   class="fil1"
   d="m 179.764,305.348 0.1131,231.032 c 11.3873,3.44183 23.0275,5.99329 34.7919,7.6527 l -0.074,-238.684 -34.831,-8.5e-4 z m 34.7868,-141.486 0.0303,97.282 -34.8389,0 -0.0369,-72.8317 c 6.08372,-9.51166 21.4458,-19.4553 34.8455,-24.4502 z m -0.0136,-44.8793 -0.0369,-117.772 -34.8852,-0.010488 0.0646,134.253998 c 10.0165,-6.57638 21.7057,-13.0314 34.8574,-16.4716 z"
   inkscape:connector-curvature="0"
   style="fill:#ffffff" />
  <path
   id="path1937_1"
   class="fil1"
   d="m 324.257,261.248 8.5e-4,-71.6624 c -11.0106,-13.9241 -23.0026,-21.9365 -35.8058,-26.4475 l 0.002,98.2781 35.803,-0.1681 z m -35.8022,44.29417 0.006,237.44913 c 12.1317,-2.11918 24.1107,-5.3623 35.7937,-9.39345 l 0.002,-228.05713 -35.8013,5.7e-4 z m 35.8039,-170.86787 0.002,-133.427 -35.8118,-0.011339 0.002,117.917999 c 10.868,2.70425 22.6982,7.43925 35.8075,15.5211 z"
   inkscape:connector-curvature="0"
   style="fill:#ffffff"
   sodipodi:nodetypes="ccccccccccccsccccs" />
  <path
   id="path1937_2"
   class="fil1"
   d="m 270.53,348.265 0.004,-99.4312 -35.7976,0 -0.002,100.272 c 11.7289,2.30287 23.6171,1.78441 35.7954,-0.84076 z m -35.7959,43.2556 -0.003,154.265 c 11.9259,0.84047 23.8966,0.56891 35.7922,-0.53461 l 0.005,-153.73 c -11.9324,1.6801 -23.8623,1.90432 -35.7942,-2.9e-4 z m 0.003,-186.03993 0.003,-204.26207 35.8033,0.011055 -0.007,204.251075 -35.799,0 z"
   inkscape:connector-curvature="0"
   style="fill:#ffffff"
   sodipodi:nodetypes="cccccccccccccccccc" />
  <path
   id="path1937_3"
   class="fil1"
   d="m 153.689,264.518 77.4049,0 0,36.0706 -65.4135,0.004 c -5.75688,-10.1208 -9.37134,-22.3688 -11.9914,-36.0749 z m -33.0027,36.0783 -98.4649,0.008 -2.58265,-36.0865 93.259,2.9e-4 c 0.98957,12.2386 3.21336,24.2875 7.78848,36.0785 z m 215.049,-0.0159 -60.9959,0.005 0,-36.0663 73.2668,2.8e-4 c -2.27509,14.8734 -6.85673,26.1218 -12.2709,36.0615 z m 55.2467,-36.0615 87.9659,0 -2.52255,36.0516 -92.784,0.006 c 4.10315,-11.1815 6.37257,-23.0865 7.3406,-36.0578 z"
   inkscape:connector-curvature="0"
   style="fill:#ffffff" />
  <path
   id="path1937_4"
   class="fil1"
   d="m 285.092,244.36 -65.1884,-0.006 -0.55956,-36.0916 65.4682,-0.07 0.27978,36.1675 z m 43.0861,-36.2135 154.368,-0.16639 -2.18835,36.396 -151.9,-0.0125 -0.2795,-36.2172 z m -151.081,36.2041 -158.623,-0.0136 -2.80148,-36.3526 161.424,-0.001 0,36.3674 z"
   inkscape:connector-curvature="0"
   style="fill:#ffffff" />
  <path
   class="fil1"
   d="m 285.634,385.334 c -10.6659,2.68611 -22.951,4.11307 -34.4495,4.11307 -11.1552,0 -20.5982,-1.34306 -30.9748,-3.87581 l -0.31521,-36.5409 c 10.059,3.33865 19.417,5.14659 30.5946,5.14659 11.9163,0 24.4735,-2.05455 35.0977,-5.8286 l 0.0471,36.9856 z m 66.2568,-136.538 c 0.0797,1.64976 0.12019,2.19005 0.12019,3.85909 0,25.1737 -7.49027,47.3721 -22.6698,65.1155 l -0.56665,47.7995 c 36.1443,-24.469 58.5065,-65.2955 58.5065,-112.22 0,-1.9338 -0.0405,-2.7394 -0.12047,-4.65421 l -35.2698,0.10006 z m 26.2437,-43.0657 c -17.3781,-44.102 -55.7275,-78.9109 -103.858,-86.5208 l 0.0629,34.632 c 28.7666,6.41112 51.8179,26.7126 65.6669,51.821 l 38.1286,0.0678 z m -229.036,43.3868 c -0.0873,1.72828 -0.13181,1.78866 -0.13181,3.53792 0,26.479 11.2635,51.4338 27.8768,69.5106 l 0.0499,45.3274 c -36.582,-24.3998 -61.8049,-66.8821 -61.8049,-114.143 0,-1.98369 0.0428,-2.27877 0.12671,-4.24233 l 33.8834,0.009 z m -25.5464,-43.2967 c 16.9526,-44.858 59.46057,-79.2601 108.03807,-87.1013 l -0.0414,34.3497 c -29.6887,6.30737 -57.11577,26.7163 -70.99477,52.7616 l -37.0015,-0.01 z"
   id="path16"
   inkscape:connector-curvature="0"
   style="fill:#ffffff"
   sodipodi:nodetypes="csccsccccsccsccccccccccsccsccccccccc" />
  <path
   id="path1937_5"
   class="fil2"
   d="m 181.323,305.23 0.1131,232.71 c 11.3873,3.44183 23.0275,5.99329 34.7919,7.6527 l -0.074,-240.362 -34.831,-5.7e-4 z m 34.7868,-142.885 0.0303,98.9604 -34.8389,0 -0.0369,-75.3716 c 6.13248,-8.41465 21.5861,-18.5939 34.8455,-23.5888 z m -0.0136,-42.6407 -0.0369,-118.331 -34.8852,-0.010772 0.0646,133.414002 c 9.64375,-6.52961 21.3336,-11.4919 34.8574,-15.0721 z"
   inkscape:connector-curvature="0"
   style="fill:#c0a062" />
  <path
   id="path1937_6"
   class="fil2"
   d="m 325.817,261.409 -0.27893,-71.3827 c -9.05216,-12.5255 -21.0441,-21.0974 -35.5261,-26.4475 l 0.002,97.9983 35.803,-0.1681 z m -35.8022,43.74694 0.006,239.39606 c 12.1317,-2.11918 24.1107,-5.3623 35.7937,-9.39345 l 0.002,-230.00306 -35.8013,2.8e-4 z M 325.8187,135.674 325.8207,1.407 290.0089,1.395661 l 0.002,118.476999 c 10.868,2.70425 22.6982,7.71931 35.8075,15.8012 z"
   inkscape:connector-curvature="0"
   style="fill:#c0a062"
   sodipodi:nodetypes="ccccccccccccsccccs" />
  <path
   id="path1937_7"
   class="fil2"
   d="m 272.09,348.986 0.004,-100.271 -35.7976,0 -0.002,101.111 c 11.7289,2.30258 23.6171,1.78441 35.7954,-0.84076 z m -35.7959,42.696 -0.003,155.664 c 11.9259,0.84047 23.8966,0.56891 35.7922,-0.53461 l 0.005,-155.129 c -11.9324,1.6801 -23.8623,1.90403 -35.7942,-2.9e-4 z M 235.75017,205.64207 236.3001,1.38 l 35.8033,0.011055 -0.55393,204.251075 -35.799,0 z"
   inkscape:connector-curvature="0"
   style="fill:#c0a062"
   sodipodi:nodetypes="cccccccccccccccccc" />
  <path
   id="path1937_8"
   class="fil2"
   d="m 154.13,266.078 77.1251,0 0,36.0706 -65.1337,0.004 c -5.75688,-10.1208 -9.65112,-22.089 -11.9914,-36.0749 z m -32.7229,36.0783 -99.0244,0.008 -2.58293,-36.0865 93.5391,2.9e-4 c 0.98957,12.2386 3.49314,24.2875 8.06826,36.0785 z m 214.489,-0.0159 -61.2757,0.005 0,-36.0663 73.5466,2.8e-4 c -2.27509,15.7124 -6.01739,26.1218 -12.2709,36.0615 z m 54.9669,-36.0615 89.6446,0 -2.52255,36.0516 -95.0225,0.006 c 4.10344,-11.1815 6.93241,-23.0865 7.90044,-36.0578 z"
   inkscape:connector-curvature="0"
   style="fill:#c0a062" />
  <path
   id="path1937_9"
   class="fil2"
   d="m 285.252,245.919 -66.0277,-0.006 0,-36.0902 66.0277,-0.0703 0,36.1664 z m 43.0861,-36.2123 156.047,-0.16639 -2.46813,36.3949 -153.579,-0.0125 5.7e-4,-36.216 z m -151.081,36.203 -158.903,-0.0136 -2.5217,-36.3515 161.424,-0.001 0,36.3663 z"
   inkscape:connector-curvature="0"
   style="fill:#c0a062" />
  <path
   class="fil2"
   d="m 285.795,386.893 c -10.6659,2.68611 -21.5521,4.11307 -33.0506,4.11307 -11.1552,0 -21.9971,-1.34306 -32.3737,-3.87581 l -0.31521,-36.5409 c 10.059,3.33865 20.8159,5.14659 31.9935,5.14659 11.9163,0 23.0746,-2.05455 33.6989,-5.8286 l 0.0471,36.9856 z m 67.6557,-138.216 c 0.0797,1.64976 0.12019,3.86873 0.12019,5.53777 0,25.1737 -9.16895,48.2114 -24.3485,65.9549 l -0.28687,47.5197 c 36.1443,-24.469 59.9054,-65.8551 59.9054,-112.78 0,-1.9338 -0.0405,-4.41808 -0.12047,-6.33289 l -35.2698,0.10006 z m 26.5235,-42.7859 c -17.3781,-44.102 -57.6859,-77.7918 -105.817,-85.4017 l 0.0629,34.632 c 28.7666,6.41112 53.4966,25.5935 67.3455,50.7019 l 38.4083,0.0678 z m -229.316,43.107 c -0.0873,1.72828 -0.13181,3.46734 -0.13181,5.2166 0,26.479 10.1444,50.5945 26.7577,68.6713 l 0.0499,45.3274 c -36.582,-24.3998 -60.6858,-66.0427 -60.6858,-113.304 0,-1.98369 0.0428,-3.95745 0.12671,-5.92101 l 33.8834,0.009 z m -24.9868,-43.0169 c 16.9526,-44.858 57.7693,-77.8612 106.346,-85.7024 l -0.0414,34.3497 c -29.6887,6.30737 -55.4244,25.3174 -69.3034,51.3627 l -37.0015,-0.01 z"
   id="path23"
   inkscape:connector-curvature="0"
   style="fill:#c0a062" />
  <path
   id="path1937_10"
   class="fil3 str0"
   d="m 0.84841,1.30394 498.174,0.158173 -24.6671,352.538997 c -45.1925,258.832 -405.864,258.142 -448.239,0.34526 L 0.84771,1.304373 z"
   inkscape:connector-curvature="0"
   style="fill:none;stroke:#f00000;stroke-width:1.98424995" />
 </g>
</svg>