<?xml version="1.0" encoding="UTF-8"?>
<!DOCTYPE svg PUBLIC "-//W3C//DTD SVG 1.1//EN" "http://www.w3.org/Graphics/SVG/1.1/DTD/svg11.dtd">
<!-- Creator: CorelDRAW -->
<svg xmlns="http://www.w3.org/2000/svg" xml:space="preserve" width="500px" height="580px" shape-rendering="geometricPrecision" text-rendering="geometricPrecision" image-rendering="optimizeQuality" fill-rule="evenodd" clip-rule="evenodd"
viewBox="0 0 500 580"
 xmlns:xlink="http://www.w3.org/1999/xlink"
 xmlns:svg="http://www.w3.org/2000/svg"
 version="1.0">
 <g id="Layer_x0020_1">
  <metadata id="CorelCorpID_0Corel-Layer"/>
  <path id="path1937" fill="#F00000" stroke="#F00000" stroke-width="1.98425" d="M1.224 1.37367l497.584 -0.000566929 0.0527244 348.576c-31.1842,304.985 -452.638,306.199 -497.708,0.365386l0.0711496 -348.941z"/>
  <path fill="#8C0000" d="M316.472 64.2175c10.66,1.54942 20.6014,4.0286 29.9991,7.26293 -8.78939,4.89459 -15.368,19.2626 -20.6836,17.5258l-9.3155 -24.7887z"/>
  <path fill="white" d="M315.998 65.4806c10.66,1.54942 20.6014,4.0286 29.9991,7.26293 -8.78939,4.89459 -15.368,19.2626 -20.6836,17.5258l-9.3155 -24.7887z"/>
  <g id="_47193616">
   <path id="_46175576" fill="#CCCCCC" d="M322.945 69.7437l4.57881 9.47339c1.57861,-1.39493 3.68334,-2.65833 6.94715,-3.63147l1.89468 -3.1578c-4.31575,0.368221 -9.10517,-3.05263 -13.4206,-2.68413z"/>
   <path id="_46756968" fill="#4F2900" d="M324.635 72.2563l1.16334 2.66939 6.22148 -2.31874 -1.5738 -1.3388c-2.42107,1.26312 -2.91657,0.988158 -5.81103,0.988158z"/>
   <path id="_46805944" fill="#7F7F7F" d="M337.993 70.1742l8.00391 2.56932c-8.78939,4.89459 -15.368,19.2626 -20.6836,17.5258l-1.52787 -4.06517c5.91988,-4.5411 12.3922,-11.6473 14.2075,-16.0299z"/>
   <path id="_47242016" fill="none" stroke="#4F2900" stroke-width="0.992126" d="M331.155 80.1644c2.57868,-1.89439 4.94703,-4.84129 7.10504,-8.84183"/>
  </g>
  <g id="_47242944">
   <path id="_46709400" fill="#8C0000" d="M284.578 171.583c5.98309,5.19704 15.4315,6.03638 24.4925,10.0831 0.680599,0.303874 1.35865,0.626174 2.03301,0.969166 -1.42101,-9.684 -3.1578,-18.2625 -5.84192,-26.5255l-20.6836 15.4732z"/>
   <path id="_46757944" fill="#7F7F7F" d="M289.324 174.624c6.21553,2.99509 14.2362,4.17147 21.7794,8.01043 -1.08794,-7.4143 -2.36126,-14.1803 -4.10287,-20.6532 -4.62926,4.21484 -10.5216,8.42911 -17.6766,12.6428z"/>
   <path id="_46726072" fill="#CCCCCC" d="M307.314 178.214c-0.912473,-6.21978 -1.86151,-11.0058 -4.08416,-13.0218 -2.94378,2.35417 -6.28271,4.70835 -10.0145,7.06196 1.49499,2.62914 8.30041,3.00898 14.0987,5.95985z"/>
   <path id="_231432" fill="white" stroke="white" stroke-width="0.216" d="M299.577 168.898l2.36835 0.15789c1.15767,1.73679 0.894615,3.78936 2.52624,6.63137 -2.57896,-2.73685 -4.21058,-3.26325 -5.36825,-4.89459l0.47367 -1.89468z"/>
   <path id="_46806952" fill="white" d="M309.07 181.666c0.680599,0.303874 1.35865,0.626174 2.03301,0.969166 -1.42101,-9.684 -3.1578,-18.2625 -5.84192,-26.5255 1.764,9.83793 3.94186,19.0945 3.80892,25.5563z"/>
  </g>
  <g id="_46485128">
   <path id="_46742504" fill="#CCCCCC" d="M213.843 170.793c0.736725,7.99966 -14.9471,4.94703 -22.5782,15.789 -3.73521,-8.78741 2.15802,-11.645 1.26312,-35.0515l21.3151 19.2626z"/>
   <path id="_46177672" fill="white" d="M194.423 153.267c0.421229,10.789 -2.6314,25.0518 -2.84202,32.2095 3.21109,-2.26347 3.42085,-9.78974 4.7367,-11.0523 -1.5789,-3.05263 0.789449,-10.842 0.947339,-18.631l-2.84202 -2.52624z"/>
   <path id="_47421000" fill="#7F7F7F" d="M191.423 176.951c4.7367,-2.99991 11.2102,-3.94725 15.6311,-6.63137l5.21036 1.5789c-4.10514,4.10514 -16.1048,5.99981 -20.8415,10.4207l0 -5.36825z"/>
   <polygon id="_46807896" fill="white" points="201.212,167.793 199.002,171.425 199.159,173.477 203.422,171.898 "/>
   <path id="_46485080" fill="#4F2900" d="M192.003 185.606c-0.253417,0.312662 -0.500032,0.637796 -0.738426,0.976536 -3.73521,-8.78741 2.15802,-11.8029 1.26312,-35.2094 1.5086,21.3996 -3.10252,26.5638 -0.524693,34.2329z"/>
  </g>
  <g id="_46728352">
   <path id="_46194664" fill="#8C0000" d="M179.423 69.1121c-9.92268,1.26312 -25.1958,3.31569 -30.4727,5.68403 7.82958,5.97288 15.8026,13.3934 24.09,23.9993l6.38277 -29.6833z"/>
   <path id="_46485400" fill="#CCCCCC" d="M178.634 69.7437c-9.10489,1.26312 -21.5255,2.84202 -26.3676,5.21036 7.18441,5.97288 14.5001,13.3934 22.1046,23.9993l4.26303 -29.2096z"/>
   <path id="_47421776" fill="white" d="M176.586 83.7735l-0.264756 4.29336c-3.64961,-2.68951 -6.71981,-5.00967 -10.7926,-6.00775 -1.57861,-0.737292 -0.736158,-1.47402 1.89468,-2.21046l9.16271 3.92485zm1.56387 -10.7158l0.483591 -3.31399c-9.10489,1.26312 -21.5255,2.84202 -26.3676,5.21036 1.12252,0.933166 2.24844,1.90176 3.37805,2.91232 5.29172,-3.65556 15.4777,-2.25865 22.506,-4.8087z"/>
   <polygon id="_47421952" fill="#4F2900" points="160.95,76.2171 168.213,78.5855 168.213,76.6908 163.429,75.4421 "/>
  </g>
  <g id="_46777872">
   <path id="_46195656" fill="#8C0000" d="M260.105 29.6396l-26.6834 0.31578c2.80063,-5.90372 9.77046,-13.8932 14.9995,-23.3677 2.92337,9.42123 8.08385,15.3683 11.6838,23.0519z"/>
   <path id="_46728992" fill="#CCCCCC" d="M261.21 29.9554l-26.6834 0.31578c2.80063,-5.90372 9.77046,-13.8932 14.9995,-23.3677 2.92337,9.42123 8.08385,15.3683 11.6838,23.0519z"/>
   <path id="_46809872" fill="white" d="M251.046 11.0852c-0.551339,-1.32236 -1.06299,-2.70964 -1.51965,-4.18167 -5.22907,9.47452 -12.1989,17.464 -14.9995,23.3677l5.84107 -0.0688819c2.38706,-6.372 5.60608,-13.5337 10.6781,-19.1171zm2.26885 18.9641l-5.2098 0.0615118 1.10551 -9.62873c2.18381,0.568347 1.48649,2.91345 2.17021,4.82344 0.683717,1.90999 2.27622,2.28104 1.93408,4.74378z"/>
   <rect id="_46196648" fill="#4F2900" x="246.211" y="18.2716" width="1.73679" height="2.52624"/>
  </g>
  <g id="_46100128">
   <ellipse id="_46745616" fill="white" cx="213.969" cy="61.9604" rx="30.6581" ry="29.868"/>
   <ellipse id="_46761816" fill="#BF9F4F" cx="212.863" cy="62.4528" rx="26.0752" ry="29.3756"/>
   <path id="_46099984" fill="white" d="M204.329 41.2583c2.53049,0 4.26699,2.61354 4.26699,5.05701 0,2.44347 -2.57925,3.79304 -4.26699,3.79276 -1.68775,-0.000283465 -3.10762,-1.34958 -3.95065,-3.79276 -0.843024,-2.44318 1.42016,-5.05701 3.95065,-5.05701z"/>
  </g>
  <g id="_47619144">
   <ellipse id="_45825768" fill="white" cx="284.293" cy="58.3379" rx="27.0234" ry="29.4061"/>
   <ellipse id="_47246672" fill="#BF9F4F" cx="285.083" cy="59.7602" rx="25.9172" ry="27.9838"/>
   <ellipse id="_46713968" fill="white" transform="matrix(0.897659 -0.440691 0.440691 0.897659 286.189 41.4162)" rx="3.95065" ry="4.58277"/>
   <path id="_47247344" fill="#F00000" d="M297.093 39.994c3.05972,4.10797 6.22347,9.26958 7.58552,16.7513l2.84457 0c-1.58003,-6.53273 -5.47824,-11.9055 -10.4301,-16.7513z"/>
  </g>
  <g id="_46113792">
   <ellipse id="_46811952" fill="white" cx="301.202" cy="122.328" rx="30.6581" ry="29.868"/>
   <ellipse id="_47393184" fill="#4F2900" cx="300.254" cy="121.405" rx="29.7099" ry="28.9442"/>
   <ellipse id="_46699528" fill="#BF9F4F" cx="299.622" cy="120.789" rx="29.0778" ry="28.3284"/>
   <path id="_47765736" fill="white" d="M310.052 135.129c11.2725,-1.05335 10.7456,-20.8596 12.6425,-23.3887 7.82249,0.817229 5.76794,29.5254 -12.3265,33.5027l-0.316063 -10.114z"/>
   <path id="_47405648" fill="#4F2900" d="M310.052 135.129c11.2725,-1.05335 10.7456,-20.8596 12.6425,-23.3887 1.65912,14.5395 -5.1154,26.0473 -12.5436,26.5558l-0.0989292 -3.16715z"/>
   <path id="_47744184" fill="#F00000" d="M322.695 111.74c7.82249,0.817229 5.76794,29.5254 -12.3265,33.5027l-0.12841 -4.10485c9.23755,-0.121323 17.8288,-13.8421 12.4549,-29.3978z"/>
  </g>
  <g id="_46766288">
   <ellipse id="_46763600" fill="white" cx="197.375" cy="123.131" rx="30.184" ry="29.4061"/>
   <ellipse id="_47804224" fill="#BF9F4F" cx="199.272" cy="121.899" rx="28.2877" ry="28.1744"/>
   <ellipse id="_46171224" fill="white" transform="matrix(0.875836 -0.482609 0.482609 0.875836 179.044 119.958)" rx="3.63458" ry="4.74095"/>
   <path id="_47405672" fill="#F00000" d="M178.886 132.917c2.31704,5.95276 5.68829,10.5885 11.3783,12.3265l0 -2.52851c-3.79276,0.104882 -7.58552,-5.40851 -11.3783,-9.79796z"/>
   <path id="_47797800" fill="white" d="M178.886 132.917c4.84555,4.37244 6.00435,6.16366 11.6943,7.90158l-0.316063 1.89638c-3.79276,0.104882 -7.58552,-5.40851 -11.3783,-9.79796z"/>
  </g>
  <g id="_46780416">
   <ellipse id="_46170856" fill="white" cx="251.106" cy="156.463" rx="32.0804" ry="29.868"/>
   <ellipse id="_47401272" fill="#4F2900" cx="250.316" cy="155.728" rx="31.2903" ry="29.1323"/>
   <ellipse id="_46119952" fill="#BF9F4F" cx="249.579" cy="155.041" rx="30.5528" ry="28.4458"/>
   <path id="_47835360" fill="white" d="M234.829 172.108l-3.79276 1.58032c10.2195,13.9068 33.6079,11.2725 37.9276,-2.21244l-6.32126 -3.47669c-3.00132,8.48296 -22.0708,9.8521 -27.8136,4.10882z"/>
   <path id="_47620216" fill="#4F2900" d="M234.829 172.108l-1.95222 0.81326c0.0595276,2.17531 23.9207,11.6118 32.1316,-3.62069l-2.3658 -1.30139c-3.00132,8.48296 -22.0708,9.8521 -27.8136,4.10882z"/>
   <path id="_47621360" fill="#F00000" d="M231.036 173.689c10.2195,13.9068 33.6079,11.2725 37.9276,-2.21244l-2.3417 -1.28778c-0.451843,9.64035 -22.3934,15.4261 -33.9602,2.75386l-1.62567 0.746363z"/>
  </g>
  <g id="_46762208">
   <ellipse id="_47699216" fill="#F00000" cx="221.08" cy="142.464" rx="30.8162" ry="33.5679"/>
   <path id="_46719752" fill="white" d="M220.259 108.896c16.5631,0 29.9954,14.3663 29.9954,32.0806 0,17.7143 -12.8069,30.2131 -29.3638,30.6593 -13.8524,0.373323 -30.6267,-11.9041 -30.6267,-30.6593 0,-17.7146 13.432,-32.0806 29.9951,-32.0806z"/>
   <ellipse id="_47799168" fill="#4F2900" cx="219.861" cy="142.447" rx="26.3466" ry="29.029"/>
   <path id="_75108232" fill="#BF9F4F" d="M219.386 112.732c14.2866,0 25.8727,12.7284 25.8727,28.4236 0,15.6954 -11.5861,28.4239 -25.8727,28.4239 -14.2866,0 -25.6567,-7.11978 -25.8724,-28.4239 -0.159024,-15.6943 11.5858,-28.4236 25.8724,-28.4236z"/>
   <ellipse id="_47745248" fill="white" cx="210.492" cy="132.126" rx="5.05701" ry="4.89884"/>
   <path id="_47394176" fill="#F0F0F0" d="M200.378 149.984c16.1456,15.514 31.5797,11.8794 37.2955,-11.0622l5.68914 6.95339c-6.32155,27.1817 -31.7123,27.919 -42.9846,4.10882z"/>
   <path id="_46701872" fill="#4F2900" d="M200.378 149.984c16.1456,15.514 31.5797,11.8794 37.2955,-11.0622l1.8445 2.25496c-2.24788,16.4599 -20.6033,33.6646 -39.14,8.80725z"/>
   <path id="_47189552" fill="#F00000" d="M200.378 149.984c24.2022,31.6038 40.299,3.81175 40.14,-7.58552l2.84457 3.47669c-6.32155,27.1817 -31.7123,27.919 -42.9846,4.10882z"/>
  </g>
  <g id="_47851944">
   <ellipse id="_46796296" fill="#F00000" cx="279.394" cy="141.625" rx="31.2903" ry="32.0967"/>
   <ellipse id="_46765672" fill="white" cx="279.078" cy="140.652" rx="29.0778" ry="31.1241"/>
   <path id="_46802176" fill="#4F2900" d="M279.692 115.217c14.9998,0 27.1639,12.007 27.1639,26.8126 0,14.8056 -14.0584,27.493 -28.7442,27.4451 -22.8966,-0.0745512 -25.2672,-17.064 -24.9511,-27.4451 0.316063,-10.381 11.5319,-26.8126 26.5314,-26.8126z"/>
   <ellipse id="_46662896" fill="#BF9F4F" cx="277.497" cy="138.96" rx="27.4975" ry="29.4326"/>
   <path id="_47779744" fill="white" d="M287.612 120.59c20.0137,23.4987 -7.76126,51.378 -29.0778,30.9742 9.42747,22.085 28.2354,16.4273 37.5123,5.44507 8.45093,-10.0043 7.38426,-28.7977 -8.43449,-36.4193z"/>
   <path id="_46074528" fill="#4F2900" d="M287.612 120.59c20.0137,23.4987 -7.76126,51.378 -29.0778,30.9742 21.1776,26.3367 54.2291,-7.43896 29.0778,-30.9742z"/>
   <path id="_47798112" fill="#F00000" d="M287.612 120.59c30.2854,27.1335 -9.50032,61.3335 -29.0778,30.9742 9.42747,22.085 28.2354,16.4273 37.5123,5.44507 8.45093,-10.0043 7.38426,-28.7977 -8.43449,-36.4193z"/>
  </g>
  <g id="_47119912">
   <path id="_46766456" fill="#F00000" d="M298.037 55.1651c14.9638,0 30.6533,16.6377 30.6533,30.801 0,18.5882 -10.3164,31.1171 -29.3891,30.801 -16.2258,-0.269008 -29.3891,-13.7931 -29.3891,-30.801 0,-17.0079 11.8967,-30.801 28.1248,-30.801z"/>
   <path id="_75170800" fill="white" d="M298.177 54.8688c13.1584,0 26.8753,12.8018 30.0991,25.5376 0.230173,0.909922 -5.80734,-8.90051 -7.12772,-10.1398 4.3971,7.6544 4.61792,14.9865 4.65818,15.8743 0.714048,15.6634 -9.8127,27.8308 -27.6296,28.4137 -16.3001,0.532914 -28.2651,-11.6385 -28.2651,-28.7311 0,-17.0926 11.956,-30.9546 28.2651,-30.9546z"/>
   <path id="_47192664" fill="#4F2900" d="M297.201 58.6418c12.7536,0 26.7528,9.18312 26.4422,28.1483 -0.269575,16.4537 -9.73758,23.3581 -25.3647,24.988 -13.7563,1.4349 -25.0486,-12.3883 -25.0486,-26.8841 0,-14.4961 10.1395,-26.2522 23.9712,-26.2522z"/>
   <path id="_46750696" fill="#BF9F4F" d="M296.599 58.6418c12.4339,0 26.0819,8.88775 25.7788,27.2432 -0.262488,15.9245 -9.49323,22.6069 -24.7283,24.1841 -13.4113,1.38869 -24.4205,-11.9897 -24.4205,-26.0195 0,-14.0298 9.88526,-25.4078 23.37,-25.4078z"/>
   <ellipse id="_48272168" fill="white" cx="292.985" cy="71.7582" rx="5.05701" ry="4.89884"/>
   <path id="_47955176" fill="white" d="M313.529 70.3361c2.92479,24.838 -9.13805,33.3187 -28.1296,29.7099l3.16063 6.0052c18.546,11.7507 43.8316,-12.9008 24.969,-35.7151z"/>
   <path id="_46701208" fill="#4F2900" d="M313.529 70.3361c2.92479,24.838 -9.13805,33.3187 -28.1296,29.7099l1.1177 2.12315c15.4046,5.77049 37.0242,-3.59688 27.0119,-31.8331z"/>
   <path id="_47585120" fill="#F00000" d="M313.529 70.3361c13.7035,29.6867 -7.65667,37.887 -24.969,35.7151 18.546,11.7507 43.8316,-12.9008 24.969,-35.7151z"/>
  </g>
  <g id="_47363576">
   <ellipse id="_48095784" fill="#F00000" cx="249.684" cy="54.0588" rx="31.6063" ry="27.9716"/>
   <ellipse id="_46803960" fill="white" cx="247.644" cy="53.909" rx="29.5375" ry="27.8054"/>
   <path id="_47240592" fill="#BF9F4F" d="M248.74 28.2997c17.0498,0 26.8705,7.58041 27.186,24.2059 0.273543,14.4099 -12.3486,27.3665 -27.186,27.3665 -14.8374,0 -26.8699,-11.689 -26.8699,-26.1023 0,-14.4133 12.0325,-25.4702 26.8699,-25.4702z"/>
   <path id="_47578512" fill="white" d="M262.643 37.4655c7.05884,5.58369 3.58186,19.9117 -3.79276,25.2851l3.16063 7.58552 6.63733 0c5.58539,-23.6557 1.89751,-31.9782 -6.0052,-32.8706z"/>
   <path id="_46768712" fill="#4F2900" d="M274.021 42.5225c0.0252284,7.54385 -0.975119,13.8379 -3.47669,16.1192l-0.316063 3.79276c8.68508,-6.16366 5.52841,-15.3272 3.79276,-19.912z"/>
   <path id="_47245496" fill="#F00000" d="M262.01 70.3361l6.63733 0c3.49087,-14.7847 3.35906,-23.58 0.840189,-28.3156 -0.221953,20.7774 -1.97773,20.6912 -7.47752,28.3156z"/>
   <path id="_75316464" fill="#4F2900" d="M262.643 37.4655c7.05884,5.58369 3.58186,19.9117 -3.79276,25.2851l2.00069 4.80076c9.41074,-11.6348 8.57027,-17.8523 8.99745,-24.7898 -1.35411,-3.65046 -3.99515,-4.9337 -7.20539,-5.29597z"/>
   <circle id="_47676400" fill="white" cx="242.184" cy="42.3496" r="5.60495"/>
  </g>
  <g id="_46217760">
   <path id="_48801416" fill="#F00000" d="M202.654 56.2476c17.2432,0 31.2265,14.3442 31.2265,32.0315 0,25.8809 -32.5766,33.9222 -36.7416,33.9222 -17.2432,0 -25.7117,-16.2349 -25.7117,-33.9222 0,-17.6873 13.9833,-32.0315 31.2268,-32.0315z"/>
   <path id="_48334936" fill="white" d="M202.591 56.1133c17.2783,0 31.2903,14.3734 31.2903,32.0967 0.31578,23.8811 -31.6956,31.1494 -35.8691,31.1494 -8.27859,0 -26.3957,-10.7419 -26.7114,-31.1494 0,-17.7233 14.0119,-32.0967 31.2903,-32.0967z"/>
   <path id="_48266464" fill="#4F2900" d="M201.212 59.3615c15.9551,0 28.8938,13.6352 28.8938,30.4481 0.507402,21.2794 -37.4179,29.5889 -41.3294,26.8149 -7.12262,-4.28372 -14.6747,-13.5187 -14.8793,-27.1304 0,-16.8131 11.3598,-30.1326 27.3149,-30.1326z"/>
   <path id="_47623616" fill="#BF9F4F" d="M201.212 59.3615c15.9551,0 28.8938,13.218 28.8938,29.5166 0.507402,20.6283 -35.839,28.052 -39.7505,25.363 -10.2804,-2.25808 -16.2536,-12.4736 -16.4582,-25.6689 0,-16.2989 11.3598,-29.2108 27.3149,-29.2108z"/>
   <path id="_46668696" fill="white" d="M177.686 93.7429c9.11963,12.5671 19.41,17.1187 34.1042,4.42092l4.10514 6.78926c-14.1052,13.7891 -30.3681,8.89427 -38.2093,-11.2102z"/>
   <path id="_47193200" fill="#F00000" d="M177.686 93.7429c16.3738,24.6586 27.2503,16.7383 36.8223,9.07427l1.38699 2.13591c-14.1052,13.7891 -30.3681,8.89427 -38.2093,-11.2102z"/>
   <path id="_47582512" fill="#4F2900" d="M177.686 93.7429c9.11963,12.5671 19.41,17.1187 34.1042,4.42092l1.56869 2.59455c-8.89541,5.54315 -19.9865,17.0212 -35.6729,-7.01547z"/>
   <ellipse id="_47613720" fill="white" cx="192.133" cy="74.4804" rx="4.8155" ry="5.21036"/>
  </g>
  <g id="_47774200">
   <path id="_48936368" fill="#F00000" d="M250.079 68.3224c19.8346,0 35.9201,20.2283 35.9201,36.7095 0,20.2706 -15.296,36.3938 -36.3938,36.3938 -21.0977,0 -34.8146,-16.1232 -34.8146,-39.0779 0,-20.2706 15.4536,-34.0254 35.2882,-34.0254z"/>
   <path id="_48390888" fill="white" d="M249.205 68.1812c19.1764,-0.15789 32.6373,16.3871 32.7949,35.1119 0.159874,18.9516 -13.0385,33.3961 -32.7643,33.3961 -19.7257,0 -34.454,-19.1798 -34.6031,-33.8528 -0.203811,-20.0565 15.3958,-34.4974 34.5725,-34.6553z"/>
   <path id="_48219952" fill="#4F2900" d="M249.921 71.9541c16.8701,0 30.3939,13.686 30.3939,31.341 0,17.655 -13.6817,31.9728 -30.5518,31.9728 -16.8701,0 -30.5515,-15.5809 -30.5515,-33.236 0,-17.655 13.8393,-30.0779 30.7094,-30.0779z"/>
   <path id="_48082928" fill="#BF9F4F" d="M249.285 71.9538c16.4339,0 29.4506,13.3325 29.4506,30.5314 0,17.1989 -13.3285,31.1465 -29.7624,31.1465 -16.4339,0 -29.7621,-14.3892 -29.7621,-31.5882 0,-17.1987 13.64,-30.0898 30.0739,-30.0898z"/>
   <ellipse id="_46797048" fill="white" cx="240.132" cy="88.2956" rx="6.07861" ry="6.23651"/>
   <path id="_47622504" fill="white" d="M233.895 93.7429c4.09181,6.0395 15.1699,1.80255 14.9995,-6.63137l3.1578 0.15789c-2.25043,13.8818 -13.3291,15.4868 -18.1573,6.47348z"/>
   <path id="_47110960" fill="white" d="M241.948 104.795c6.52989,-1.92784 11.6328,-5.44762 11.9996,-8.99972 0.789449,-1.00006 2.99991,-0.105449 1.89468,1.73679 -3.51241,5.10463 -8.43336,7.8412 -13.8943,7.26293z"/>
   <path id="_46797840" fill="white" d="M266.736 83.7959c-3.19975,0.641764 12.0705,15.5208 -4.95978,31.9176 -8.92857,8.59663 -22.0493,10.7677 -38.6178,-3.3395 20.8423,43.0081 74.1572,1.68066 43.5776,-28.5781z"/>
   <path id="_48395856" fill="#4F2900" d="M266.736 83.7959c-3.19975,0.641764 12.0705,15.5208 -4.95978,31.9176 -8.92857,8.59663 -22.0493,10.7677 -38.6178,-3.3395 24.0268,31.5031 63.3467,-1.49386 43.5776,-28.5781z"/>
   <path id="_46173136" fill="#F00000" d="M266.736 83.7959c2.32639,6.3258 14.7175,19.025 -0.854646,36.4964 -9.97569,11.1923 -27.2597,9.82035 -42.723,-7.9183 20.8423,43.0081 74.1572,1.68066 43.5776,-28.5781z"/>
  </g>
  <path fill="#CCCCCC" d="M345.767 288.104c-21.1762,7.69068 -21.8084,18.5423 -22.7565,3.16063 -19.385,-1.3697 -21.7029,11.1677 -19.2799,-5.05701 -18.6477,-8.42826 -20.228,-5.16218 -13.2747,-11.0622 -12.3265,-6.63733 -18.3317,-13.2747 -10.4301,-14.2228 -13.2747,-18.1208 -11.0622,-12.5371 -4.74095,-18.3317 -7.58523,-14.6438 -8.84948,-11.2725 10.4301,-20.228 -4.63521,-6.63733 -3.79219,-6.21553 13.9068,-7.26945 -0.210331,-8.42826 -3.47641,-4.6355 13.9068,-4.74095 -1.89638,-9.271 -4.42488,-16.6459 3.79276,-14.5389 -0.210614,-6.42643 -1.05335,-15.6977 6.0052,-13.5907 4.74095,-11.905 3.79276,-14.9601 9.48189,-11.0622 3.68759,-11.1674 5.16246,-13.4853 10.114,-8.84977 7.90158,-11.2728 6.95339,-14.6441 18.9638,-3.47669 2.42306,-3.79276 2.31761,-4.42488 11.0622,7.58552 5.47824,-11.905 6.84794,6.84822 10.7461,11.6943 7.69068,-9.06038 5.26762,8.7446 6.95339,14.5389 1.1588,-2.73912 22.4402,-21.1759 17.3835,-6.0052 22.019,-15.9083 13.0638,-2.73912 15.8032,-3.16063 26.9705,-12.7477 12.5371,1.05364 17.3835,0.632126 16.1717,-2.84457 15.4338,-5.89975 14.855,13.2747 13.0638,-1.58032 3.05518,5.05701 2.21244,16.1192 14.2228,-2.84457 0,7.26945 -1.89638,15.171 15.8032,5.26791 1.58032,-0.526677 -3.79276,13.9068 12.9586,1.89638 -1.58032,3.16063 -8.53371,11.3783 22.0054,-1.41874 23.3456,1.22287 13.9068,7.26945 5.05701,0.526961 24.3369,3.26608 13.2747,10.114 4.00337,1.05364 20.3332,6.2161 8.21764,10.7461 4.84611,0.843024 8.11219,2.00183 7.90158,5.37307l4.10882 4.10882c-4.74123,1.79093 -9.48218,4.84583 -14.2228,9.16583 2.00154,3.89792 4.00337,5.58369 -11.0622,10.7461 3.79276,7.164 0.316063,5.16218 -10.4301,7.26945 -2.52851,6.21553 5.68885,6.74278 -15.171,6.63733 0.633827,7.47581 -0.420662,5.37052 -14.855,3.79276 1.97915,20.137 2.73884,19.389 -4.42488,18.0156 -2.0948,16.4775 1.64665,16.7032 -5.05701,14.5389 -2.45339,19.6245 -1.85471,15.154 -18.6477,7.90158 -0.526961,10.6404 -4.74123,6.63676 -17.3835,-6.32126 -1.89638,16.0138 -5.05701,9.58706 -16.1192,-10.7461 -3.05547,8.21764 -6.74278,10.114 -8.21764,-18.0156 -4.00366,4.74095 -7.69096,9.48189 -2.52851,-17.0674 -6.0052,8.74432 -6.0052,0.737292 0.948189,-19.2799l-8.53371 -10.114z"/>
  <path fill="#7F7F7F" d="M390.075 188.849c-0.515622,-6.44514 -0.113669,-15.821 -4.47194,-12.6074 1.15484,5.25969 1.46665,10.9406 0.936567,17.0427l3.53537 -4.43537zm53.9881 65.1195c6.95339,-8.21764 21.4923,-9.48189 8.53371,-11.3783 5.37307,-14.4335 19.5959,-8.63887 3.79276,-13.9068 1.89638,-7.90158 16.1192,-18.0156 1.89638,-15.171 0.842741,-11.0622 10.8513,-17.6995 -2.21244,-16.1192 0.361701,-11.9838 0.785481,-15.2847 -2.89559,-15.3802l-1.84536 14.7481 3.79276 -1.26425c1.58032,5.47852 -1.26425,11.5892 -1.89638,17.3835l4.10882 -0.948189c-0.105449,5.79459 -4.00366,10.3249 -6.0052,15.4871l4.74095 -0.632126 -9.48189 12.6425 3.16063 0 -13.5907 15.171 7.90158 -0.632126zm-63.8448 109.358c12.6422,12.958 16.8565,16.9617 17.3835,6.32126 16.793,7.25244 16.1943,11.723 18.6477,-7.90158 6.70366,2.16425 2.96221,1.93862 5.05701,-14.5389 7.16372,1.37339 6.40403,2.12145 4.42488,-18.0156 14.4343,1.57776 15.4888,3.68306 14.855,-3.79276 20.8599,0.105449 12.6425,-0.421795 15.171,-6.63733 10.7461,-2.10728 14.2228,-0.105449 10.4301,-7.26945 15.0656,-5.16246 13.0638,-6.84822 11.0622,-10.7461 4.74066,-4.32 9.48161,-7.3749 14.2228,-9.16583l-4.10882 -4.10882 -13.9068 8.84977 1.26425 5.68914 -12.3265 4.10882 1.58032 5.05701 -12.6425 3.16063 0.632126 5.37307 -15.8032 1.26425 0.632126 5.37307 -14.855 -1.58032 1.26425 17.6995 -5.37307 0 -0.948189 13.9068 -4.74095 1.26425 -1.26425 12.9586 -16.4353 -4.74095 -1.89638 4.10882 -12.3265 -6.63733zm-92.725 -83.5986c1.85669,0.974552 6.91399,2.26517 16.2377,6.47915 -2.42306,16.2247 -0.105165,3.68731 19.2799,5.05701 0.740693,12.0166 1.28891,8.02205 11.5906,2.03244l5.47682 -9.30189 -15.4871 7.58552 -1.26425 -5.05701 -18.3317 1.58032 0 -7.58552c-4.25367,2.26517 -10.4037,-0.842741 -17.502,-0.790016z"/>
  <path fill="white" d="M366.996 158.574c-2.97298,-3.4611 -3.44381,-2.34765 -5.10945,0.259654 -12.0104,-11.1674 -11.0622,-7.79613 -18.9638,3.47669 -4.95156,-4.6355 -6.42643,-2.31761 -10.114,8.84977 -5.68914,-3.89792 -4.74095,-0.842741 -9.48189,11.0622 -7.05855,-2.10699 -6.21581,7.16429 -6.0052,13.5907 -8.21764,-2.10699 -5.68914,5.26791 -3.79276,14.5389 -17.3832,0.105449 -14.1171,-3.68731 -13.9068,4.74095 -17.699,1.05392 -18.542,0.632126 -13.9068,7.26945 -19.2796,8.9555 -18.0153,5.58425 -10.4301,20.228 -6.32126,5.79459 -8.53371,0.210898 4.74095,18.3317 -7.90158,0.948189 -1.89638,7.58552 10.4301,14.2228 -3.47669,2.95002 -4.81975,3.60879 -2.96306,4.58306l8.33613 -0.474236 1.26425 -5.05701 -4.42488 0c-4.52977,-3.87666 -7.79556,-5.92725 -9.79796,-8.84977l4.74095 -3.47669c-4.26643,-4.16098 -8.27008,-8.58586 -11.6943,-13.5907 1.58032,-1.47458 3.58243,-2.52794 6.0052,-3.16063l-7.26945 -12.9586 16.4353 -5.68914 -2.21244 -6.0052c4.42488,-1.52759 10.0089,-1.31669 16.1192,-0.316063l-1.26425 -6.32126c5.16048,-0.216567 11.0611,1.78753 17.0674,4.10882 -2.95002,-6.37399 -4.8464,-12.4841 -4.42488,-18.0156l6.32126 -0.316063 -0.632126 -12.6425c1.3697,-0.315496 3.16091,0.211465 5.37307,1.58032 0.421795,-4.63521 1.26482,-9.27071 2.52851,-13.9068l5.68914 1.89638c-0.105165,-3.89792 1.05392,-7.79585 3.47669,-11.6943l5.37307 2.21244c2.21216,-3.79247 4.84611,-7.16344 7.90158,-10.114 4.08274,1.52674 7.50643,4.37159 10.7461,7.58552l3.8452 -5.94879zm11.9183 7.4109c-1.51455,-3.8058 -3.2264,-5.51821 -5.96551,0.434268l2.21244 2.52851 3.75307 -2.96277zm7.21815 9.91446c-0.672945,0.368788 -1.47628,1.0817 -2.43751,2.21414l0.632126 2.52851 2.21244 0.316063 -0.407055 -5.05871zm67.0454 6.11377c-2.20847,-0.0572599 -5.89522,1.0389 -11.9594,2.10558 -4.8464,0.421512 9.58706,-13.3798 -17.3835,-0.632126 -2.7394,0.421512 6.21581,-12.7477 -15.8032,3.16063 5.05673,-15.1707 -16.2247,3.26608 -17.3835,6.0052l-0.948189 6.32126c3.79361,-5.7926 10.0103,-10.4275 18.0156,-14.5389l2.21244 6.0052c2.94917,-3.47641 6.95254,-6.42643 13.2747,-8.21764l0.316063 6.0052c4.47704,-3.10791 9.74438,-5.4258 16.7513,-6.0052l0.316063 5.68914c3.8452,-1.58032 7.95374,-2.63367 12.6425,-2.52851l-0.0510236 -3.36983zm34.1858 105.458c0.210614,-3.37125 -3.05547,-4.53005 -7.90158,-5.37307 12.1156,-4.53005 -4.21427,-9.69251 -8.21764,-10.7461 11.0622,-6.84794 -8.21764,-9.58706 -13.2747,-10.114 9.43881,-6.04659 8.09859,-8.68819 -13.9068,-7.26945l-4.42488 4.74095c7.05827,-0.737859 14.1174,-0.948189 21.1762,0 -1.58032,2.00183 -4.42488,4.00366 -4.74095,6.0052 6.16281,0.737292 12.0626,2.00183 17.3835,4.42488 -1.3697,1.79121 -3.37153,3.26608 -4.10882,5.37307 4.68822,1.63276 9.11282,3.5297 12.9586,6.0052 -2.02989,1.14463 -4.50936,2.06561 -4.74095,4.10882l6.95339 4.10882 2.84457 -1.26425zm-133.063 10.7461c-6.95339,20.0171 -6.95339,28.0242 -0.948189,19.2799 -5.16246,26.5493 -1.47515,21.8084 2.52851,17.0674 1.47487,28.1296 5.16218,26.2332 8.21764,18.0156 9.67919,17.7914 13.309,24.9355 15.3357,15.7159 -4.26955,-4.39569 -8.01213,-9.84501 -10.5948,-17.6122l-6.63733 0.948189c-1.5806,-5.4258 -2.63452,-11.1152 -2.52851,-17.3835l-5.68914 0.632126c0.104598,-4.84668 1.36885,-10.8519 3.16063,-17.3835l-4.42488 -0.632126c2.00154,-6.74306 4.4246,-13.4858 7.26945,-20.228l-2.21244 -2.21244 -3.47669 3.79276z"/>
  <polygon fill="white" points="277.814,234.057 287.295,241.01 288.876,240.378 288.56,230.58 286.031,229.316 286.031,236.901 280.658,233.741 "/>
  <polygon fill="white" points="288.876,241.326 298.358,248.28 300.57,247.331 300.254,236.901 297.409,228.684 297.726,244.171 291.72,241.01 "/>
  <polygon fill="white" points="300.886,249.86 311.948,258.078 314.477,257.129 313.529,241.958 310.368,235.637 311.632,254.285 304.363,248.912 "/>
  <polygon fill="white" points="313.529,258.71 324.591,266.927 327.119,265.979 325.855,249.544 322.378,243.855 324.275,263.135 317.005,257.762 "/>
  <polygon fill="white" points="327.435,267.56 327.752,270.72 335.653,276.093 335.653,272.3 "/>
  <polygon fill="white" points="334.705,266.295 334.705,260.922 336.682,262.843 336.682,266.317 "/>
  <path fill="white" d="M338.892 275.632l0.31578 3.47358c2.68413,1.68406 4.42092,4.31547 6.63137,6.47348 1.31698,0.319181 2.52794,0.321732 2.99991,-1.89468 -3.31597,-3.63827 -6.63166,-6.52026 -9.94706,-8.05238z"/>
  <path fill="white" d="M348.523 163.53c0.947056,1.368 2.10473,2.52567 3.47358,3.47358l1.5789 -0.15789 0 -6.63137 -1.5789 0 0.31578 4.42092c-1.10523,-0.210614 -2.52624,-0.737008 -3.78936,-1.10523z"/>
  <path fill="white" d="M340.945 169.214c3.89424,7.10476 8.2097,11.052 12.947,11.8417l0 -10.5786 -1.89468 -0.947339 -0.31578 7.10504c-2.46047,0.210331 -6.17131,-2.57925 -10.7365,-7.42082z"/>
  <path fill="white" d="M335.892 182.319c3.89452,7.32841 13.8935,14.8805 18.631,15.4732l0 -11.526 -2.21046 -1.10523 0 7.89449c-2.46047,0.210331 -11.8553,-5.89493 -16.4205,-10.7365z"/>
  <path fill="white" d="M335.103 200.161c3.89452,7.32841 14.525,13.7753 19.2626,14.368l0.15789 -10.7365 -2.36835 -1.5789 0 7.57871c-2.46047,0.210331 -12.4869,-4.7897 -17.0521,-9.63128z"/>
  <path fill="white" d="M332.103 215.16c3.26296,8.27575 17.5249,17.4067 22.2625,17.9994l0 -12.947 -2.21046 -1.73679 0 9.94706c-2.46047,0.210331 -15.6447,-7.78961 -20.052,-13.2627z"/>
  <path fill="white" d="M337.313 237.896c3.89424,7.10476 12.4727,11.3678 17.21,12.1575l0 -10.5786 -1.89468 -0.947339 -0.31578 7.10504c-2.46047,0.210331 -10.4343,-2.89503 -14.9995,-7.7366z"/>
  <path fill="white" d="M343.471 257.001c1.84167,5.84164 6.15714,9.94678 10.8944,10.7365l0.15789 -11.0523 -2.52624 -2.68413 0 9.3155c-2.46047,0.210331 -3.96085,-1.47402 -8.52605,-6.31559z"/>
  <path fill="white" d="M354.365 272.79l0 12.4733 -3.31569 0 0 -1.89468c-0.842174,-0.579118 -0.84189,-1.36857 0,-2.36835l0 -3.31569c-0.842174,-0.789449 -0.84189,-1.7898 0,-2.99991l0.47367 -1.42101c0,-1.42101 2.52624,-1.26312 2.84202,-0.47367z"/>
  <path fill="white" d="M447.836 188.319c0.305575,4.55698 -3.16091,6.39581 -5.99981,9.15761l-0.15789 1.89468 2.84202 -0.789449c2.10529,-2.36835 4.05241,-6.31559 6.63137,-6.78926l-3.31569 -3.47358z"/>
  <polygon fill="white" points="434.889,191.161 435.047,199.529 436.626,201.266 437.573,197.477 "/>
  <polygon fill="white" points="434.1,203.95 431.1,206.792 430.942,209.792 433.152,209.318 436.152,205.845 "/>
  <path fill="white" d="M418.942 218.318l0 2.84202 1.89468 -0.31578c2.31562,-2.21046 5.57859,-4.42092 6.47348,-7.10504 -3.05263,-7.10448 -4.63153,-13.7883 -4.7367,-20.052 -0.894898,4.68425 -0.947623,13.3682 2.21046,20.052l-5.84192 4.57881z"/>
  <path fill="white" d="M407.416 230.002l0 2.84202 1.89468 -0.31578c2.31562,-2.21046 5.57859,-4.42092 6.47348,-7.10504 1.36857,-2.35446 -5.26337,-14.6427 -5.21036,-25.5782 -0.902268,4.81266 -0.509386,15.8783 2.99991,23.9993l-6.1577 6.1577z"/>
  <path fill="white" d="M394.469 242.791l0 2.84202 1.89468 -0.31578c2.31562,-2.21046 6.21014,-5.21036 7.10504,-7.89449 1.52646,-2.51235 -4.63181,-10.3796 -4.89459,-27.6307 -1.84961,4.49688 -1.45673,18.7203 2.05257,26.8413l-6.1577 6.1577z"/>
  <path fill="white" d="M382.785 254.317l0 2.84202 1.89468 -0.31578c2.31562,-2.21046 6.21014,-5.21036 7.10504,-7.89449 1.52646,-2.51235 -4.7897,-11.1691 -5.05247,-28.4202 -1.84961,4.49688 -1.29884,19.5097 2.21046,27.6307l-6.1577 6.1577z"/>
  <path fill="white" d="M369.523 268.843l0 2.84202 1.89468 -0.31578c2.31562,-2.21046 6.99959,-6.1577 7.89449,-8.84183 1.94655,-2.09225 -4.87673,-6.04488 -5.99981,-24.1571 -1.84932,4.09408 -0.35178,14.3612 3.1578,23.3677l-6.94715 7.10504z"/>
  <path fill="white" d="M356.418 282.263l0.15789 3.31569 1.89468 -0.31578c2.31562,-2.21046 6.99959,-6.1577 7.89449,-8.84183 2.16085,-2.09254 -1.17666,1.53411 -2.99991,-16.5784 -1.07915,5.91052 -0.684,7.96791 0.47367,14.8416l-7.42082 7.57871z"/>
  <polygon fill="white" points="466.151,292.684 476.414,292.368 479.73,287.474 477.835,287.316 474.519,290.474 466.309,290.789 "/>
  <path fill="white" d="M451.941 289.842l-0.15789 2.84202 7.7366 0c2.87462,-4.51616 5.80819,-8.00901 11.2102,-10.4207l0 -2.05257c-4.94759,1.63162 -9.26334,4.94759 -12.947,9.94706l-5.84192 -0.31578z"/>
  <path fill="white" d="M432.679 289.368l-0.631559 2.52624 11.2102 0c2.87462,-4.51616 8.49232,-15.4298 13.8943,-17.8416l0 -2.05257c-4.94759,1.63162 -11.9475,12.3684 -15.6311,17.3679l-8.84183 0z"/>
  <path fill="white" d="M414.205 288.421l-0.631559 2.52624 12.1575 -0.15789c0.636662,-1.8309 7.46448,-18.2704 14.8416,-23.0519l0 -2.05257c-6.97437,2.55288 -15.5007,18.9216 -16.5784,22.7361l-9.78917 0z"/>
  <path fill="white" d="M396.68 287.632l-0.631559 2.52624 12.1575 -0.15789c0.636662,-1.8309 7.46448,-18.2704 14.8416,-23.0519l0 -2.05257c-6.97437,2.55288 -15.5007,18.9216 -16.5784,22.7361l-9.78917 0z"/>
  <path fill="white" d="M380.259 287.158l-0.631559 2.52624 9.63128 0c0.873071,0.30104 5.91166,-11.5597 13.1049,-17.9994l0 -2.05257c-5.71181,2.9744 -11.8698,14.133 -14.2101,17.5258l-7.89449 0z"/>
  <path fill="white" d="M361.944 287.158l-1.42101 2.52624 12.3154 0.15789c0.872788,0.695622 0.384945,-4.63833 7.57871,-11.526l0 -2.05257c-6.20363,3.7114 -7.60054,9.54454 -8.68394,11.0523l-9.78917 -0.15789z"/>
  <polygon fill="white" points="404.1,354.735 403.943,357.893 408.995,364.208 411.837,361.998 411.995,359.787 408.837,360.261 "/>
  <path fill="white" d="M395.417 341.156l-0.15789 2.68413 5.21036 6.94715c6.76262,-0.210614 12.4991,0.262488 16.7363,1.73679 -3.31597,-2.99991 -8.52634,-4.31603 -15.6311,-3.94725l-4.26303 -7.57871 -1.89468 0.15789z"/>
  <path fill="white" d="M378.68 317.157l-0.15789 2.68413 5.05247 6.1577c6.91994,-1.17128 15.8145,-1.35638 20.052,0.47367 -2.8423,-3.94725 -11.842,-4.31603 -18.9468,-2.68413l-4.10514 -6.78926 -1.89468 0.15789z"/>
  <path fill="white" d="M370.154 305.315l-0.15789 2.68413 5.05247 6.1577c6.91994,-1.17128 15.6566,-1.19849 19.8941,0.631559 -2.8423,-3.94725 -11.6841,-4.47392 -18.7889,-2.84202l-4.10514 -6.78926 -1.89468 0.15789z"/>
  <path fill="white" d="M360.207 292.526l-0.31578 2.68413 5.52614 6.31559c6.55115,-0.803056 10.6038,-1.19877 15.3153,0.15789 -3.23745,-3.11868 -7.55348,-3.14589 -14.2101,-2.36835l-4.10514 -6.78926 -2.21046 0z"/>
  <path fill="white" d="M387.214 330.116l-0.15789 2.68413 5.05247 6.1577c6.91994,-1.17128 17.0787,0.54 21.3163,2.37005 -3.15836,-4.89544 -13.1063,-6.21241 -20.211,-4.58051l-4.10514 -6.78926 -1.89468 0.15789z"/>
  <path fill="#CCCCCC" d="M147.917 300.322c6.87827,12.2397 14.2554,24.0664 6.59169,25.827 -1.3697,19.385 1.82495,22.1091 -5.86942,14.8116 -8.42826,18.6477 -3.13115,17.3846 -11.0622,13.2747 -6.63733,12.3265 -9.61881,16.3006 -12.1918,10.4301 -14.0587,15.3057 -12.9433,17.1553 -15.4882,8.39679 -15.8686,11.2538 -15.6158,15.099 -17.7908,-6.77424 -7.31651,6.67361 -7.43556,4.60914 -8.08186,-14.313 -5.90174,8.75112 -11.4837,5.91959 -7.17818,-16.7502 -12.1589,1.03011 -22.034,6.85219 -18.1947,-3.38655 -14.963,0.621638 -17.6034,3.09175 -12.7783,-6.0052 -11.2544,-3.22469 -15.0588,-1.12139 -10.656,-9.48189 -12.2496,-5.37789 -15.7864,-3.66321 -10.0684,-9.30161 -11.6804,-7.08548 -16.1357,-4.37528 -4.2891,-17.7452 -3.79276,-2.42306 -2.80006,-3.94243 9.21034,-12.687 -11.905,-5.47824 7.25443,-8.47276 12.1005,-12.371 -9.06038,-7.69068 6.71358,-7.70485 12.5079,-9.39062 -1.58372,-0.00368504 -18.5219,-15.7235 -6.81761,-14.1338 -15.9083,-22.019 -2.73912,-15.9072 -3.16063,-18.6466 -10.029,-27.65 2.68498,-12.9447 0.632126,-17.3835 -2.84457,-16.1717 -1.8377,-16.6524 17.3367,-16.0736 -1.05789,-11.3494 11.7241,-2.04321 17.8855,-2.34709 2.82331,-6.29575 3.12463,-2.78107 17.9688,3.38655 1.08397,-5.2407 5.19166,-2.48173 13.4093,4.47166 0.212599,-18.3348 5.56668,-15.1971 8.89427,-11.8758 0.93515,-3.01805 3.1337,-17.282 9.30161,-9.61881 1.74444,-2.62205 9.36086,-16.0756 12.371,-6.99903 8.4773,-13.3211 9.3824,-11.6436 17.0229,0.993827 2.81452,-3.08466 4.90621,-7.11723 11.1524,9.03119 7.164,-3.79276 5.97459,2.93358 8.08186,13.6797 6.21553,2.52851 6.74278,-6.90747 6.63733,13.9524 8.15528,-4.03172 6.59027,0.413008 4.60517,16.886 20.137,-1.97915 15.3269,-1.52022 13.9536,5.6435 16.4775,2.0948 13.8597,-1.24044 11.6955,5.46322 16.3746,5.16161 10.4601,4.06658 6.45761,18.1511 7.93219,-0.0147402 7.80945,1.4468 -2.44006,14.6305 8.43109,1.89666 4.0354,4.65109 -8.71512,15.713 -0.342425,2.23795 8.20007,8.50026 -14.3598,10.2487 3.65755,2.37884 8.39849,8.50337 -17.0674,4.96573 5.27783,6.0052 -1.63701,4.38038 -20.4985,-2.57301l-11.1078 7.90044z"/>
  <path fill="white" d="M68.0202 201.744c2.42788,4.77751 4.22022,12.9884 3.16573,15.6336l-2.71616 -0.706111 -6.50098 -6.45846 0.98589 -2.16765 5.24722 5.4326c1.88844,-1.59109 0.171496,-5.55619 -0.181701,-11.734z"/>
  <path fill="white" d="M75.9649 202.385c2.46869,3.03647 9.02693,20.0268 6.13503,27.7469l-1.97802 -0.249732 -6.48766 -6.00548 0.781512 -2.97638 4.47704 4.63493c3.17821,-3.25021 -1.49528,-18.2092 -2.92791,-23.1503z"/>
  <path fill="white" d="M87.8758 209.548c5.58596,2.8834 9.73276,28.0636 6.80202,31.8328l-1.57833 1.2668 -8.49374 -7.48375 0.558142 -2.79099 7.09569 6.62174c1.88873,-1.59109 -1.18857,-22.6372 -4.38378,-29.4466z"/>
  <path fill="white" d="M101.709 223.086c4.49235,6.5007 8.23238,26.7256 4.56435,31.7849l-1.64126 -0.138898 -8.30325 -8.06854 0.808725 -2.00154 7.1915 6.24388c2.98743,-3.55238 -0.859465,-22.6622 -2.62006,-27.8198z"/>
  <path fill="white" d="M115.68 237.953c2.27027,7.77742 6.63931,26.0153 3.84803,29.9237l-2.69008 -1.16561 -7.94778 -6.63052 1.1435 -2.00948 6.82611 4.64259c1.88873,-1.59109 -0.984189,-18.1091 -1.17978,-24.7606z"/>
  <path fill="white" stroke="white" stroke-width="0.216" d="M130.361 264.658c2.82841,5.43288 5.04766,11.3876 2.25638,15.2955l-3.89764 -0.571465 -6.71329 -6.81619 0.361984 -2.42136 7.06082 5.63981c1.88873,-1.59109 1.12706,-4.47421 0.931749,-11.1263z"/>
  <path fill="white" d="M57.6417 298.232l2.16737 1.22032 -2.51036 1.90602c-3.20032,0.0742678 -9.2812,0.344693 -11.812,-0.92041 -2.86441,-3.95263 -7.26378,-8.33188 -11.6189,-13.5811 2.58888,2.00183 4.85688,1.33342 14.6684,11.9526l9.10545 -0.577418z"/>
  <path fill="white" d="M75.6324 298.186l0.904252 1.6937 -2.19458 1.43206c-3.20032,0.0745512 -7.07074,0.818646 -9.60123,-0.446457 -2.13194,-1.44794 -11.1844,-12.3789 -19.2969,-19.5602 4.19868,2.44942 16.956,10.7096 19.7433,16.8806l10.4451 0.000283465z"/>
  <path fill="white" d="M92.7253 297.443l0.430583 2.16765 -1.56302 1.11657c-3.20032,0.0742678 -8.07534,0.706678 -10.6061,-0.558425 -1.11912,-0.22337 -9.59018,-11.8783 -29.971,-25.9991 3.69836,-0.812126 26.8982,16.7862 31.4223,23.4312l10.2872 -0.15789z"/>
  <path fill="white" d="M107.874 296.384l2.00976 2.00948 -1.56331 1.11657c-3.20032,0.0742678 -6.81222,1.33852 -9.343,0.0734174 -1.75068,-0.53915 -10.6688,-10.1792 -28.2076,-23.0372 4.17175,0.135213 21.1879,13.0348 28.3958,19.8377l8.70832 0z"/>
  <path fill="white" d="M127.366 295.067l0.904536 2.79921 -1.56302 1.59024c-3.2006,0.0742678 -8.19808,0.753166 -10.7289,-0.511937 -2.06617,0.0547087 -3.66832,-4.24914 -19.313,-15.9562 4.63436,1.00998 16.3531,7.68416 19.6588,13.2304l11.0415 -1.15172z"/>
  <path fill="white" d="M145.964 295.132l0.33789 2.14044 -2.03641 1.59024c-3.2006,0.0742678 -8.51415,0.752882 -11.0449,-0.512221 -2.376,-1.21493 0.0221102,1.51597 -11.4962,-12.5807 3.2057,1.20558 7.69663,3.88715 11.7386,9.56637l12.5011 -0.204095z"/>
  <path fill="white" d="M151.801 188.329l0 -10.5786 -5.52614 -5.84192c0.579118,3.26353 1.7898,5.89493 3.63147,7.89449l0 7.26293 1.89468 1.26312z"/>
  <path fill="white" stroke="white" stroke-width="0.216" d="M148.959 199.855l2.68413 4.57881 0 -11.2102c-4.09493,-2.45339 -9.95613,-8.70265 -12.7891,-14.5259 -0.798804,4.42092 7.62633,13.9212 9.94706,15.6311l0.15789 5.52614z"/>
  <path fill="white" stroke="white" stroke-width="0.216" d="M148.801 219.749l2.68413 1.42101 0.31578 -11.6838c-4.51616,-2.87462 -12.5878,-10.5449 -14.9995,-15.9469 -1.4108,4.26303 9.26788,16.1362 12.1575,17.3679l-0.15789 8.84183z"/>
  <path fill="white" d="M149.117 236.328l2.68413 2.05257 -0.15789 -13.2627c-3.56769,-0.636662 -12.2706,-12.0433 -17.8416,-19.8941 -0.219969,4.42092 11.6221,20.948 15.1574,21.9467l0.15789 9.15761z"/>
  <path fill="white" d="M149.59 254.485l2.84202 0.15789 -0.47367 -11.2102c-2.19912,-0.268158 -13.6916,-12.8324 -17.9994,-20.6836 0.792567,5.73903 11.9838,22.2942 15.9469,23.0519l-0.31578 8.68394z"/>
  <path fill="white" stroke="white" stroke-width="0.216" d="M149.906 270.906l2.52624 0.15789 0 -10.5786c-4.43566,-2.13619 -9.8229,-11.4378 -16.2627,-19.1047 1.29827,5.72088 12.115,19.7921 13.7364,21.1572l0 8.36816z"/>
  <path fill="white" d="M149.906 288.747l2.52624 1.42101 0.15789 -12.3154c-2.46217,-1.82013 -3.69099,-4.1743 -10.5786,-11.3681l-2.05257 0c3.7114,6.20363 8.5972,11.3899 10.1049,12.4733l-0.15789 9.78917z"/>
  <path fill="white" d="M206.433 249.591l2.68413 0.15789 6.94715 -5.21036c-1.15795,-2.18381 -0.369638,-7.12602 -0.791717,-8.83474 -1.73565,2.05172 -1.62964,5.36145 -1.89241,8.0453l-6.15685 3.94725 -0.7903 1.89468z"/>
  <path fill="white" d="M181.17 268.224l3.31625 -0.7903 7.10589 -6.31673c-1.17128,-6.91994 -1.9885,-18.343 -0.158457,-22.5805 -2.99906,3.79049 -4.6321,15.0027 -3.00019,22.1074l-6.78926 4.73726 -0.474236 2.84287z"/>
  <path fill="white" d="M166.799 280.542l2.68413 0.15789 9.31834 -8.84523c-1.17128,-6.91994 -3.09487,-19.4494 -1.26482,-23.6869 -3.60425,2.8423 -3.65726,15.1614 -2.52595,22.2656l-8.36958 8.21396 0.15789 1.89468z"/>
  <path fill="white" d="M155.275 289.541l2.68413 0.31578 6.94772 -6.7904c-0.803056,-6.55115 -2.14696,-14.3966 -0.7903,-19.1081 -3.11868,3.23745 -2.82983,11.0302 -2.05228,17.6868 -2.40888,2.80828 -4.43424,4.51729 -6.78926,5.68545l0 2.21046z"/>
  <path fill="white" d="M194.601 258.741l2.68413 0.15789 7.10504 -6.31559c-0.750331,-6.70933 0.0136063,-15.605 1.42271,-20.0531 -3.78567,2.20734 -3.57392,10.1004 -3.79106,18.79l-7.57871 5.52614 0.15789 1.89468z"/>
  <polygon fill="white" points="150.845,164.32 151.003,170.635 153.214,171.898 153.056,163.688 "/>
  <polygon fill="white" points="52.164,198.582 58.1638,204.266 60.5322,203.95 59.2691,198.424 57.6902,201.424 53.4271,196.845 "/>
  <path fill="white" d="M109.935 355.514l1.9063 0.23074c-0.105732,3.23093 -3.63118,7.67878 -4.37981,10.544 -1.89496,1.60044 -0.172347,-3.09572 -11.4599,-1.57011 3.94129,-1.71893 6.02533,-2.53673 10.4689,-1.59619l3.46451 -7.60848z"/>
  <path fill="white" d="M119.13 341.401l1.86491 0.416977c-1.58457,5.70813 -4.18139,7.08123 -6.04942,9.3413 -1.78781,3.30208 -0.670961,-0.958961 -20.1725,-0.308693 1.45559,-3.49569 10.3901,-1.51115 18.428,-1.4057l5.92895 -8.04388z"/>
  <path fill="white" d="M127.425 326.806l1.85159 -0.809292c0.224221,3.05462 -1.54063,8.41975 -4.33333,9.93204 -2.2354,2.54608 -17.6162,-2.6246 -28.1035,-0.0541418 4.69474,-4.44529 19.8646,-1.88419 26.6956,-1.61943l3.8897 -7.44917z"/>
  <path fill="white" d="M137.526 312.294l1.70674 0.0751181c0.31748,3.82281 -1.78583,6.21355 -4.58816,8.95097 -1.7674,2.42929 -5.49723,-0.671244 -24.3062,-0.121323 4.27862,-2.42476 16.782,-1.40825 22.7449,-1.40995l4.44274 -7.49481z"/>
  <path fill="white" d="M145.721 299.623l1.94712 0.950741c0.172913,3.31966 -2.70312,7.98917 -5.67298,9.59755 -2.35786,1.24951 -5.21887,-1.04343 -15.0046,-0.799087 2.82643,-1.93408 6.96728,-2.49619 13.9377,-2.54977l4.79282 -7.19944z"/>
  <path fill="#7F7F7F" d="M95.1206 381.762c2.02564,1.6166 5.85071,-2.36948 14.7767,-8.69953 2.54495,8.75849 1.42951,6.90889 15.4882,-8.39679 2.57301,5.87055 5.55449,1.89638 12.1918,-10.4301 7.93106,4.10995 2.63395,5.37307 11.0622,-13.2747 7.69437,7.29752 4.49972,4.57342 5.86942,-14.8116 7.66375,-1.7606 0.286583,-13.5873 -6.59169,-25.827 2.42249,6.35443 4.73868,12.9206 6.31559,20.9682l-3.79276 0 -0.316063 17.3835 -5.37307 -1.89638 -6.32126 15.171 -3.47669 -2.52851 -10.4301 13.2747 -3.47669 -3.47669c-4.2137,5.89947 -8.42797,10.535 -12.6425,13.9068l-3.47669 -3.47669c-5.48107,2.7737 -7.16967,6.81166 -9.80646,12.1139zm-80.8677 -83.8443c-1.74898,4.01981 2.86583,4.26104 10.8961,9.1321 -5.71805,5.6384 -2.18126,3.92372 10.0684,9.30161 -4.40277,8.36051 -0.598394,6.2572 10.656,9.48189 -4.82514,9.09695 -2.18466,6.62684 12.7783,6.0052 -3.35934,8.9589 3.78142,5.62111 13.7648,3.9566l-0.043937 -5.65484 -12.6425 2.21244 -0.632126 -6.32126 -11.0622 1.26425 -0.948189 -2.84457 -1.89638 0.316063 0.316063 -4.42488 -10.114 -0.948189 0.632126 -2.52851 -2.52851 -1.58032 0 -2.84457 -8.53371 -3.79276 -0.948189 -5.37307c-2.41087,-2.20734 -5.66448,-3.99317 -9.76196,-5.3572zm175.746 -77.7385c1.9851,-16.473 3.55011,-20.9177 -4.60517,-16.886 0.105449,-20.8599 -0.421795,-11.4239 -6.63733,-13.9524 -0.394866,-2.01487 -0.674363,-3.88829 -0.914457,-5.57774l-2.43326 0.672095 0 3.47669 2.52851 -0.316063 1.89638 2.52851 2.21244 -0.316063 0.316063 12.3265 2.84457 -0.632126c3.89792,2.7394 0.842741,11.7998 -0.632126,16.7513l5.42438 1.92529zm32.6685 13.4918c7.20397,2.89956 2.69008,4.32255 -0.561827,15.766 7.93219,-0.0147402 7.80945,1.4468 -2.44006,14.6305 8.43109,1.89666 4.0354,4.65109 -8.71512,15.713 -0.342425,2.23795 8.20007,8.50026 -14.3598,10.2487 3.65755,2.37884 8.39849,8.50337 -17.0674,4.96573 5.27783,6.0052 -1.63701,4.38038 -20.4985,-2.57301l-2.89588 -2.10558c7.79613,-0.421229 13.6959,2.95002 20.5441,4.42488l0.632126 -4.42488c5.10917,1.05421 10.7983,0.94904 16.7513,0.316063l0.316063 -5.37307 13.5907 -3.47669 -1.58032 -5.05701 12.3265 -12.3265 -5.37307 -3.47669c3.89821,-3.10734 7.26917,-7.00555 9.48189,-12.6425l-6.63733 -1.26425c3.21931,-3.39024 4.95836,-8.2613 6.48652,-13.3447z"/>
  <path fill="white" d="M95.1206 381.762c-1.5755,-1.25745 -2.06277,-5.90429 -3.01408,-15.4738l3.02258 -0.116787 2.52851 10.114 -2.53701 5.47654zm-6.42133 -12.6953c-3.97247,2.52794 -4.14964,-1.71751 -4.67462,-17.0915l3.51893 -0.0266457c-0.563244,6.17953 0.0331654,11.7805 1.15569,17.1182zm-7.89733 -13.4453c-4.4246,3.34517 -7.4537,-1.97745 -3.95547,-20.3964l0.267024 -2.24022 5.37307 -0.632126c-2.45764,6.80769 -2.59824,14.7747 -1.68463,23.2688zm71.362 -198.947c-2.52284,-1.27928 -4.89572,1.46806 -9.66416,8.96117 -3.01011,-9.07654 -10.6265,4.37698 -12.371,6.99903 -6.16791,-7.66318 -8.36646,6.60076 -9.30161,9.61881 -3.32759,-3.32136 -8.68167,-6.45903 -8.89427,11.8758 -8.21764,-6.95339 -12.3253,-9.71235 -13.4093,-4.47166 -14.8442,-6.16763 -15.1455,-9.6823 -17.9688,-3.38655 -6.16139,0.303874 -18.9434,-9.00227 -17.8855,2.34709 -19.1744,-0.578835 -20.1813,-0.0980788 -17.3367,16.0736 2.05285,4.43877 -10.6611,-10.2665 -0.632126,17.3835 0.421512,2.7394 -12.7477,-3.37238 3.16063,18.6466 -11.7043,-1.58967 5.23389,14.1301 6.81761,14.1338 -5.7943,1.68576 -21.5683,1.69994 -12.5079,9.39062 -4.84611,3.89821 -24.0055,6.89273 -12.1005,12.371 -12.0104,8.7446 -13.0031,10.264 -9.21034,12.687 -3.70205,4.17799 -5.81188,6.78615 -6.607,8.61308l4.07282 1.8805 9.16583 -10.4301 -4.10882 -3.16063 13.5907 -8.84977 -4.42488 -3.79276c3.89821,-2.52851 9.06095,-5.05701 15.4871,-7.58552l-3.16063 -5.05701c6.00548,-1.89666 12.0107,-2.63367 18.0156,-2.84457l-13.2747 -13.5907 4.10882 -0.948189c-3.89792,-5.05673 -6.95311,-10.535 -9.16583,-16.4353l5.37307 1.26425 -4.42488 -19.912 4.74095 -3.79276 0 -11.3783c5.16048,-0.74126 11.0611,-0.00226772 17.0674,0.948189l0 -5.37307c4.79396,-0.421512 10.1673,1.47487 15.8032,4.42488l0.948189 -4.10882c5.63018,0.497481 10.9131,3.13909 15.8032,7.90158l2.21244 -4.42488c4.37244,2.47606 9.00794,6.26854 14.2228,12.9586 -0.579402,-7.63824 -0.368504,-14.4862 1.58032,-19.5959l4.42488 1.89638c1.05364,-4.6355 2.7394,-8.63887 4.42488,-12.9586l5.05701 2.84457c1.26454,-4.31944 3.37181,-7.79585 6.32126,-10.4301l3.79276 2.84457c3.37011,-3.47783 6.84624,-6.84992 11.0622,-9.48189l-0.804756 -4.05553zm7.35874 9.955c1.7589,-1.92784 3.23575,-4.22561 5.62082,-1.73594m5.53153 10.7671c1.34306,-0.710929 2.39273,-1.0525 3.22526,-1.06668m4.8566 14.7464c0.776693,0.316063 1.46495,0.445323 2.07383,0.469984m4.5635 13.4824c0.50967,-0.251717 0.981638,-0.470835 1.41732,-0.655654m35.8563 31.0334c-1.6628,-0.66926 -3.94923,-1.41732 -7.01944,-2.38507 2.16425,-6.70366 4.78205,-3.36841 -11.6955,-5.46322 1.37339,-7.16372 6.1835,-7.62265 -13.9536,-5.6435l-1.94769 3.13172 16.4353 0.316063 -0.948189 5.05701 12.6425 0.948189 -3.79276 5.37307 8.84977 2.21244 1.42951 -3.54671z"/>
  <path fill="#CCCCCC" d="M239.728 191.546l-2.05427 155.346c-25.3582,-20.1804 -51.8678,-38.2884 -79.3319,-54.6789l-9.79796 7.90158c46.8445,35.6369 87.9772,68.9466 89.1298,85.9692l0.632126 67.0054c-4.00337,-0.316063 -7.69068,-0.948189 -11.0622,0.948189 -0.84841,1.89241 1.05335,5.16104 1.89638,7.90158l-5.37307 0.632126 -0.316063 3.79276c6.2178,7.50019 11.6972,17.7687 14.5389,37.9276l-0.316063 16.7513c-0.316063,12.9586 -21.8084,18.6477 -37.9276,0.948189 -15.8068,-3.52999 -12.5399,-46.62 2.84457,-57.5235 -2.42306,-3.68759 -5.68885,-5.26791 -9.79796,-4.74095 -0.631559,-6.69062 -3.58129,-12.801 -7.58552,-18.6477 -4.84611,3.16063 -8.8492,8.84977 -12.0104,17.0674 -7.48007,0 -11.7995,1.89638 -10.114,4.74095 2.9503,0.948189 4.63607,7.79585 5.05701,20.5441l0.632126 30.026c6.96558,32.4638 39.494,43.2885 83.1246,37.9276 1.57947,-3.3171 -1.57776,-5.84476 -0.945638,-8.05635 13.5507,18.1378 41.3294,12.7925 70.4795,-7.43074 -0.789733,-0.211465 -1.26369,-1.52787 -0.948189,-2.52851 15.8003,4.10457 15.6538,-6.63251 37.9276,-1.89638 1.67726,-2.46728 3.43417,-4.85547 5.11314,-7.32161l-1.26312 6.1577c0.709796,9.60463 17.9195,-13.0788 8.21027,-19.2626l-29.8412 0c-7.21049,0.525827 -11.6841,-5.26337 -13.4206,-17.3679l0.15789 -17.8416c1.47317,-7.17137 4.15729,-12.8293 8.99972,-15.789 2.28898,-2.94747 -0.921544,-4.89487 -7.89449,-6.1577 -2.98715,-8.11871 -5.01336,-13.6712 -7.57871,-15.4732 -4.84186,5.21036 -7.99994,10.2098 -9.47339,14.9995 -6.3686,1.26312 -8.63178,1.99956 -7.57871,5.21036 1.63134,2.05257 3.52602,5.68403 4.10514,11.0523l-0.31578 42.1566 2.05257 8.05238c-8.99972,4.2103 -39.7882,24.2096 -44.0513,0.789449l2.36835 -36.9462c-0.895465,-3.73692 -4.73783,-7.78961 -5.84192,-12.1575 2.05143,3.21279 4.62898,5.05644 6.47348,7.10504 13.4019,-67.7152 47.5342,-125.806 84.629,-182.521l-7.89449 -8.99972c-31.3691,32.6909 -58.5238,80.7259 -82.4185,131.364l-0.31578 -37.8936c2.89871,-23.5267 14.2107,-43.971 20.5257,-40.5777 1.10495,-3.42114 -1.57918,-5.10548 -8.05238,-4.7367 -5.00117,-5.36825 1.31499,-7.10533 1.5789,-8.05238 -0.841323,-1.86945 -6.31531,-1.71128 -13.8943,-0.631559l-5.05247 -134.522c-3.92372,-3.29329 -10.2954,-2.32299 -18.0088,-0.562677z"/>
  <path fill="white" d="M150.983 298.147l2.78362 -2.24504 34.2851 26.6525 -2.52851 0c-13.0935,-10.0324 -29.664,-19.1163 -34.5402,-24.4074zm197.35 -7.60621l-2.96731 -3.38287c-31.3691,32.6909 -58.5238,80.7259 -82.4185,131.364 -4.86907,14.4978 -8.81632,28.0743 -11.9988,40.8875 -1.68633,-1.89695 -3.79304,-3.37153 -6.32126,-4.42488 -0.526961,-23.9156 0.526677,-61.4217 -1.58032,-71.7463 -12.1218,-28.2127 6.73711,-51.1257 26.8654,-52.4665l-0.156189 -4.88381c-2.00495,0.108284 -4.36167,0.371055 -6.96671,0.742111l-18.4782 12.9915 2.22123 -149.389c-2.11436,0.289701 -4.39399,0.762804 -6.80429,1.31273l-2.05427 155.346c-25.5691,-19.9763 -52.0781,-38.0721 -79.3319,-54.6789l-0.967465 0.780095c29.1909,22.0952 66.4013,48.7009 79.0351,61.4843 -1.1041,8.79959 -0.727937,17.6003 -0.140315,26.4005 0.817796,1.87087 1.29657,3.61021 1.40457,5.20583l0.632126 67.0054c-4.00337,-0.316063 -7.69068,-0.948189 -11.0622,0.948189 -0.84841,1.89241 1.05335,5.16104 1.89638,7.90158l-5.37307 0.632126 -0.316063 3.79276c6.2178,7.50019 11.6972,17.7687 14.5389,37.9276l-0.316063 16.7513c-0.316063,12.9586 -21.8084,18.6477 -37.9276,0.948189l-1.26425 2.21244c21.5736,27.3373 68.9559,17.5629 31.6063,-58.4717l6.0052 0.316063 -3.16063 -8.21764c8.72334,-1.75606 19.4491,5.49553 31.5451,18.9111 -0.97115,-1.67046 -1.87172,-3.39307 -2.32016,-5.16728l-7.10051 -8.68678c27.0284,-87.4143 60.1243,-137.905 93.2758,-172.346zm-153.856 169.088c1.63332,0.0274961 3.11669,0.430583 4.45011,1.20841 -3.41178,3.85002 -7.56426,5.47852 -11.823,6.79068 -5.50885,5.23162 -6.4029,20.3528 -6.0052,38.2436l-1.89638 -1.89638c-0.421512,-15.4352 0.210898,-28.4998 3.16063,-36.3473l-5.37307 -4.10882 4.10882 -0.948189 2.84457 2.84457 10.5335 -5.78665zm-7.13622 -15.2317c-0.668126,-1.11685 -1.38246,-2.22236 -2.13307,-3.31852 -4.24035,2.76548 -7.83525,7.46703 -10.7853,14.1041l3.51581 3.59547c1.71213,-5.74243 5.16246,-10.3252 9.40252,-14.381zm-8.51471 89.7387c-4.84923,-5.55024 -8.28029,-12.4132 -10.0536,-20.6788l-0.632126 -30.026c-0.420945,-12.7483 -2.10671,-19.5959 -5.05701,-20.5441 -1.68548,-2.84457 2.63395,-4.74095 10.114,-4.74095l3.79276 3.47669 -4.10882 -0.948189 1.26425 2.84457 -4.10882 -0.632126c4.00366,1.68548 -0.526677,48.8843 9.16583,65.7411l-0.948189 7.58552m192.216 -25.1674l-4.57881 0c-2.59965,2.91062 -2.67024,4.5567 -0.212032,4.93937l-6.0052 9.48189 0 2.52851 9.79796 -11.6943 0.998079 -5.25544zm-8.52605 0l-21.3151 0c-2.25326,0.164126 -4.2395,-0.288 -5.95814,-1.35723 -0.0938268,4.52211 8.24032,6.09392 25.0033,4.71629l2.26999 -3.35906zm-38.9815 -70.2454c-0.66926,-1.07376 -1.34844,-1.87739 -2.06986,-2.38394 -4.08529,4.39597 -6.9721,8.64227 -8.65956,12.7389l4.45635 3.82961 6.27307 -14.1846zm-13.8654 13.0978c-4.58929,1.02019 -6.16961,1.944 -5.25657,4.72819 1.63134,2.05257 3.52602,5.68403 4.10514,11.0523l-0.31578 42.1566 2.05257 8.05238c-7.73405,3.61814 -31.5598,18.8966 -40.8135,8.25846l-1.48536 1.4298c10.6404,10.5616 27.2863,6.61068 48.0416,-7.26945l3.79276 6.95339 3.16063 -0.948189c-3.68816,-4.26699 -6.21638,-9.11339 -8.21764,-14.2228l0.316063 5.68914c-5.82435,-4.68255 2.01685,-54.7095 -5.68914,-62.2644l3.16063 0.316063 -2.85137 -3.93137zm-56.9469 -263.898c-0.728504,-0.0660473 -1.49074,-0.084189 -2.28388,-0.0612284l-1.13046 33.0557 2.21244 -0.632126c-0.547654,-11.1036 1.4332,-17.7823 1.20189,-32.3623z"/>
  <path fill="white" d="M311.632 455.301l8.21764 7.90158c-0.948189,8.11219 -1.05392,16.6456 -0.316063,25.6011 2.23852,-18.464 4.39795,-27.4717 12.6425,-33.8188l-2.21244 -0.948189 -8.53371 6.63733 -2.84457 -3.47669 -1.89638 0.948189 -5.05701 -2.84457z"/>
  <path fill="white" d="M245.891 515.037l0.316063 16.1192c2.1308,6.27279 5.66107,9.74778 9.48189,12.6425l-6.95339 -17.0674 -0.316063 -8.53371 -2.52851 -3.16063z"/>
  <path fill="#7F7F7F" d="M191.422 333.801c-12.8874,-10.6566 -27.5783,-22.0479 -42.8783,-33.6872l1.92132 -1.5497 40.957 35.2369zm2.52312 184.237c-8.7687,-11.6609 -4.45521,-44.2863 8.64539,-53.5711 -1.05987,-1.6132 -2.28132,-2.82331 -3.66406,-3.63005 -12.7947,9.8555 -18.8765,43.8163 -4.98133,57.2012zm-1.15257 -58.3121c-0.453827,-4.8087 -2.10529,-9.31805 -4.48526,-13.6451 -0.188787,5.17975 1.30621,9.72794 4.48526,13.6451zm-18.3708 -4.54366c-0.421512,0.948473 -0.829985,1.93635 -1.22513,2.96334l5.75292 4.58589 2.05257 -1.89468 -6.58035 -5.65455zm4.14142 78.6498c14.1324,16.4889 40.6103,21.5728 73.3332,17.5521 1.57947,-3.3171 -1.57776,-5.84476 -0.945638,-8.05635 13.5507,18.1378 41.3294,12.7925 70.4795,-7.43074 -0.789733,-0.211465 -1.26369,-1.52787 -0.948189,-2.52851 15.8003,4.10457 15.6538,-6.63251 37.9276,-1.89638 0.628725,-0.925229 1.26907,-1.8394 1.91197,-2.75074 -3.09232,-5.60268 -0.972284,-11.4948 3.51695,-17.5178 -5.76425,3.07843 -7.76381,8.76218 -8.05238,15.6311 -14.6838,-4.52636 -25.1045,4.52608 -38.3672,2.05257l0.631559 2.52624c-32.6177,20.473 -56.8542,25.2097 -68.84,6.94715l-3.47358 1.26312 3.1578 6.31559c-37.6835,5.76936 -58.735,-1.45417 -69.4715,-16.7363l-0.860032 4.62898zm191.907 -22.7863c9.70923,6.18378 -7.50048,28.8672 -8.21027,19.2626l1.26312 -6.1577c3.60539,-3.816 6.28923,-8.0263 6.94715,-13.1049zm-40.1536 -6.41481c-1.42073,-2.76293 -2.45707,-6.41396 -3.10819,-10.9531l0.15789 -17.8416c1.47317,-7.17137 4.15729,-12.8293 8.99972,-15.789 1.71666,-2.21046 0.339874,-3.85881 -3.39761,-5.07742 -13.5043,12.113 -11.2037,38.8109 -2.65181,49.661zm-2.66117 -52.956c-1.85074,-5.00514 -3.34857,-8.85771 -4.91641,-11.2224m-10.3133 10.247c-0.394583,0.912756 -0.730205,1.81843 -1.0063,2.71644l5.05247 4.7367 0.631559 -3.31569 -4.67773 -4.13745zm-43.0376 78.0013c-1.77676,-1.76513 -3.0909,-4.36451 -3.75676,-8.02375l2.36835 -36.9462c-0.671528,-2.80262 -3.00104,-5.78325 -4.58929,-8.94076 4.04504,20.3386 -8.01468,49.2032 5.9777,53.9107zm-3.91606 -53.1386c1.13159,1.11855 2.2371,2.09197 3.15921,3.11613 13.4019,-67.7152 47.5342,-125.806 84.629,-182.521l-3.85909 -4.39937c-34.3046,54.9584 -73.4366,113.186 -83.9291,183.804zm-2.52482 -57.0399l-0.31578 -37.8936c2.89871,-23.5267 14.2107,-43.971 20.5257,-40.5777 1.10495,-3.42114 -1.57918,-5.10548 -8.05238,-4.7367 -5.00117,-5.36825 1.31499,-7.10533 1.5789,-8.05238 -0.525827,-1.16816 -2.86129,-1.5446 -6.38929,-1.39918l-0.715748 7.87267 3.94725 -0.31578 0.947339 2.99991c-15.5523,18.898 -16.9433,47.3471 -14.368,78.4713l2.84202 3.63147zm-0.15789 -91.8919l-5.05247 -134.522c-0.980788,-0.823182 -2.11493,-1.37991 -3.38457,-1.7246l4.64769 134.194 3.78936 2.05257z"/>
  <path fill="white" d="M257.902 548.224l-6.32126 -5.68914c0.842457,2.31789 2.94945,4.21399 6.32126,5.68914z"/>
  <polygon fill="#7F7F7F" points="310.788,456.1 314.893,461.468 314.577,458.153 "/>
  <polygon fill="#F00000" points="318.998,462.889 318.682,467.152 314.103,460.837 314.893,458.784 "/>
  <polygon fill="#7F7F7F" points="173.266,460.995 177.055,466.047 178.318,464.468 "/>
  <polygon fill="#F00000" points="180.055,471.415 182.265,467.152 178.16,464.626 177.055,465.889 "/>
  <polygon fill="#7F7F7F" points="238.79,262.685 239.579,191.477 240.211,191.319 "/>
  <polygon fill="#7F7F7F" points="238.158,391.997 237.639,392.156 238.316,452.784 238.948,452.627 "/>
 </g>
</svg>
