<?xml version="1.0" encoding="UTF-8" standalone="no"?>
<!-- Created with Inkscape (http://www.inkscape.org/) -->

<svg
   xmlns:dc="http://purl.org/dc/elements/1.1/"
   xmlns:cc="http://creativecommons.org/ns#"
   xmlns:rdf="http://www.w3.org/1999/02/22-rdf-syntax-ns#"
   xmlns:svg="http://www.w3.org/2000/svg"
   xmlns="http://www.w3.org/2000/svg"
   xmlns:sodipodi="http://sodipodi.sourceforge.net/DTD/sodipodi-0.dtd"
   xmlns:inkscape="http://www.inkscape.org/namespaces/inkscape"
   width="499.99997"
   height="559.79645"
   id="svg1901"
   sodipodi:version="0.32"
   inkscape:version="0.48.2 r9819"
   sodipodi:docname="Uusi asiakirja 1"
   version="1.1">
  <defs
     id="defs1903" />
  <sodipodi:namedview
     id="base"
     pagecolor="#ffffff"
     bordercolor="#666666"
     borderopacity="1.0"
     inkscape:pageopacity="0.0"
     inkscape:pageshadow="2"
     inkscape:zoom="0.35"
     inkscape:cx="238.57143"
     inkscape:cy="357.14285"
     inkscape:document-units="px"
     inkscape:current-layer="layer1"
     inkscape:window-width="1600"
     inkscape:window-height="848"
     inkscape:window-x="-8"
     inkscape:window-y="-8"
     showgrid="false"
     fit-margin-top="0"
     fit-margin-left="0"
     fit-margin-right="0"
     fit-margin-bottom="0"
     inkscape:window-maximized="1" />
  <metadata
     id="metadata1906">
    <rdf:RDF>
      <cc:Work
         rdf:about="">
        <dc:format>image/svg+xml</dc:format>
        <dc:type
           rdf:resource="http://purl.org/dc/dcmitype/StillImage" />
        <dc:title></dc:title>
      </cc:Work>
    </rdf:RDF>
  </metadata>
  <g
     inkscape:label="Taso 1"
     inkscape:groupmode="layer"
     id="layer1"
     transform="translate(-111.42857,-329.70859)">
    <g
       transform="translate(-448.71375,-295.23557)"
       id="layer2"
       style="display:inline">
      <path
         inkscape:connector-curvature="0"
         d="m 560.14232,624.94416 499.99998,0 -15.2671,328.24429 c -8.4241,157.13335 -126.59038,231.55215 -234.09674,231.55215 -107.50636,0 -224.55471,-75.0636 -235.36896,-231.55215 z"
         id="path4044"
         style="fill:#d4232e;fill-opacity:1;stroke:none" />
    </g>
    <g
       transform="translate(-432.55131,-279.3274)"
       id="layer9"
       style="display:inline">
      <path
         inkscape:connector-curvature="0"
         d="m 777.1407,1074.2626 c -12.59478,-22.3557 -32.725,-6.5717 -22.33431,5.1571 -19.0496,-12.5947 1.65306,-38.0204 20.23036,-15.1924 l 16.26189,10.0376 c 45.83872,-53.8648 75.79922,-2.2086 34.98079,1.0974 33.44403,-12.0173 -2.04066,-41.6351 -35.50712,5.4911 z"
         id="path4280-8"
         style="fill:#ffffff;fill-opacity:1;stroke:none;display:inline" />
      <path
         inkscape:connector-curvature="0"
         d="m 778.59133,1077.9502 c -12.59478,-22.3558 -32.74701,-9.3707 -23.13558,2.1356 -16.93446,-11.1476 3.01094,-32.8838 21.58824,-12.8389 l 16.26189,9.2584 c 45.83872,-53.8648 74.46334,-1.2624 33.19963,-1.0734 36.3384,-13.0192 0.29711,-38.0171 -33.16934,9.1091 z"
         id="path4280-8-8"
         style="fill:#68280c;fill-opacity:1;stroke:none;display:inline" />
      <path
         inkscape:connector-curvature="0"
         d="m 776.98327,1073.7419 c -12.59478,-22.3558 -33.37617,-5.9826 -21.41113,6.4548 -19.0496,-12.5948 2.36152,-36.6823 20.93882,-13.8543 l 15.18686,10.1029 c 45.83872,-53.8648 75.06609,-4.2777 34.24764,-0.9717 36.514,-11.4662 -0.92743,-40.2992 -34.39389,6.827 z"
         id="path4280"
         style="fill:#fdbd00;fill-opacity:1;stroke:none;display:inline" />
      <path
         inkscape:connector-curvature="0"
         d="m 779.73283,1157.2386 c 0,0 6.12278,-22.1851 17.89123,-41.5872 l -3.49873,-44.8473 c 0,0 62.20921,-56.9245 53.30337,-187.3316 0,0 -22.88988,26.70119 -36.60919,35.02274 0,0 21.21179,-35.56724 35.38092,-54.45941 0,0 -3.47145,-81.00776 -19.66474,-136.33481 0,0 -10.99314,36.41503 -26.96152,49.45962 0,0 21.60703,-44.59079 25.65535,-63.25805 0,0 -14.63355,-63.12327 -35.9498,-89.39409 -13.20675,25.1005 -64.64105,189.56532 -14.55643,253.9907 0,0 -11.47299,0.0292 -27.69436,-31.45932 0,0 -8.46568,174.03542 34.71642,219.46662 0,0 -2.33058,64.9687 -2.01252,90.7321 z"
         id="path4233-9"
         style="fill:#68280c;fill-opacity:1;stroke:none;display:inline" />
      <path
         inkscape:connector-curvature="0"
         d="m 779.42603,1158.4779 c 0,0 2.18691,-26.0086 13.95536,-45.4106 l -3.49873,-44.8473 c 0,0 -2.76291,-110.72382 57.46414,-184.97017 0,0 -27.72537,22.76532 -41.44468,31.08687 0,0 21.88651,-33.99289 36.05566,-52.88506 0,0 -2.04345,-80.80642 -15.9877,-132.08515 0,0 -14.98826,33.27861 -30.95664,46.3232 0,0 22.56123,-44.90886 26.60955,-63.57612 0,0 -13.08318,-58.70231 -32.65007,-87.04056 -13.20675,25.1005 -69.8364,191.45454 -18.49229,250.842 0,0 -10.12355,-5.03112 -26.23247,-38.31898 0,0 -11.7814,182.29917 31.40069,227.73037 0,0 0.0116,45.6984 3.77718,93.1515 z"
         id="path4233-9-4"
         style="fill:#ffffff;fill-opacity:1;stroke:none;display:inline" />
      <path
         inkscape:connector-curvature="0"
         d="m 779.62215,1154.8375 c 0,0 3.18067,-22.2646 14.94911,-41.6667 l -3.49872,-44.8473 c 0,0 62.65903,-51.5267 53.75318,-181.93383 0,0 -20.4771,19.07696 -34.19641,27.39851 0,0 18.66726,-32.38657 32.83639,-51.27874 0,0 -2.75511,-79.02661 -16.69933,-130.30534 0,0 -11.41402,27.52296 -27.38239,40.56755 0,0 20.0167,-40.93303 24.06502,-59.60029 0,0 -12.59478,-56.22668 -32.16167,-84.56493 -13.20675,25.1005 -69.70145,182.9868 -19.61683,247.41218 0,0 -9.22392,-2.66965 -25.44529,-34.1582 0,0 -10.71475,176.73429 32.46735,222.16549 0,0 0.61153,65.0482 0.92959,90.8116 z"
         id="path4233"
         style="fill:#fdbd00;fill-opacity:1;stroke:none;display:inline" />
      <path
         inkscape:connector-curvature="0"
         d="m 778.69607,1064.1903 c 0,0 -10.10834,-252.6438 15.29014,-410.84413 0,0 -29.07196,145.94031 -18.07688,408.26193 z"
         id="path4273"
         style="fill:#ffffff;fill-opacity:1;stroke:none" />
      <path
         inkscape:connector-curvature="0"
         d="m 793.72336,1066.6011 -2.64847,1.7597 c 0,0 -17.7801,-277.3717 2.91132,-402.41985 0,0 -16.45162,97.33213 -0.26285,400.66015 z"
         id="path4275"
         style="fill:#68280c;fill-opacity:1;stroke:none" />
      <path
         inkscape:connector-curvature="0"
         d="m 790.18195,1025.4482 c 0,0 15.80789,-9.3511 36.73664,-42.97075 0,0 -12.91348,28.05345 -36.51399,45.86515 z m -1.33588,-34.28753 -0.22265,-3.11705 c 0,0 19.14759,-13.80407 38.74046,-43.86131 -17.14377,32.72901 -38.51781,46.97836 -38.51781,46.97836 z m -1.55852,-32.06108 c 0,0 17.14377,-12.24552 34.28753,-38.51781 0,0 -14.24936,18.92494 -34.73282,35.62341 l 0.66793,3.78501 -0.66793,-3.78501 z m -1.11323,-60.78244 c 0,0 18.47964,-14.9173 33.1743,-43.41603 -18.92494,28.72137 -33.1743,40.29898 -33.1743,40.29898 z m -1.11323,-44.30662 c 0,0 19.81552,-18.03435 36.29134,-44.7519 0,0 -14.69465,30.05725 -36.51399,47.64631 z m 0.44529,-38.29516 c 0,0 12.0229,-6.90204 33.1743,-41.41221 -20.92876,30.94784 -33.1743,37.62722 -33.1743,37.62722 z m 2.00381,-72.36005 c 0,0 8.90586,-9.35115 25.60433,-35.40077 -16.47583,23.37787 -25.9383,32.1724 -25.9383,32.1724 z m 1.66985,-31.50446 c 0,0 9.90776,-11.35496 17.03244,-29.8346 0,0 -9.01717,16.92112 -17.03244,26.60623 z m -2.12095,218.1531 -0.38008,-3.20273 c 0,0 9.11347,-5.4338 27.14398,-27.11233 0,0 -7.98577,14.18303 -26.7639,30.31506 z m -1.25948,-153.49886 -0.15744,3.621 c 0,0 8.65891,-10.32084 16.21578,-23.07305 -9.13121,11.8076 -16.05834,19.45205 -16.05834,19.45205 z"
         id="path4277"
         style="fill:#68280c;fill-opacity:1;stroke:none" />
      <path
         inkscape:connector-curvature="0"
         d="m 636.9469,1025.4542 c -11.22303,-19.9209 -29.16078,-5.856 -19.90179,4.5954 -16.97482,-11.223 1.47302,-33.87948 18.02699,-13.5377 l 14.49073,8.9443 c 40.84622,-47.99808 67.54359,-1.968 31.17088,0.9779 29.80148,-10.7084 -1.81841,-37.1004 -31.63989,4.893 z"
         id="path4280-8-2"
         style="fill:#ffffff;fill-opacity:1;stroke:none;display:inline" />
      <path
         inkscape:connector-curvature="0"
         d="m 638.23953,1028.7401 c -11.22302,-19.9209 -29.18038,-8.35 -20.61578,1.903 -15.09005,-9.9334 2.68301,-29.3023 19.23697,-11.4405 l 14.49073,8.25 c 40.84623,-47.99808 66.35321,-1.1249 29.58371,-0.9565 32.38064,-11.6012 0.26476,-33.87645 -29.55672,8.1171 z"
         id="path4280-8-8-4"
         style="fill:#68280c;fill-opacity:1;stroke:none;display:inline" />
      <path
         inkscape:connector-curvature="0"
         d="m 636.80661,1024.9902 c -11.22303,-19.9209 -29.74102,-5.331 -19.07914,5.7517 -16.97482,-11.223 2.10431,-32.68701 18.65827,-12.3453 l 13.5328,9.0025 c 40.84621,-47.99808 66.89029,-3.8118 30.51757,-0.8658 32.53709,-10.2174 -0.82642,-35.90999 -30.6479,6.0835 z"
         id="path4280-5"
         style="fill:#fdbd00;fill-opacity:1;stroke:none;display:inline" />
      <path
         inkscape:connector-curvature="0"
         d="m 639.25671,1099.3929 c 0,0 5.45591,-19.7688 15.94261,-37.0577 l -3.11767,-39.9628 c 0,0 55.43373,-50.7246 47.49786,-166.92852 0,0 -20.39683,23.79304 -32.62192,31.20826 0,0 18.90152,-31.69346 31.52743,-48.52799 0,0 -3.09336,-72.18483 -17.52297,-121.48597 0,0 -9.79582,32.4489 -24.02501,44.07275 0,0 19.25371,-39.73421 22.86111,-56.36833 0,0 -13.03974,-56.24823 -32.03434,-79.65778 -11.76835,22.36669 -57.60072,168.91891 -12.97103,226.32743 0,0 -10.22341,0.026 -24.67805,-28.03294 0,0 -7.54364,155.08049 30.9353,195.56349 0,0 -2.07675,57.8927 -1.79332,80.8501 z"
         id="path4233-9-5"
         style="fill:#68280c;fill-opacity:1;stroke:none;display:inline" />
      <path
         inkscape:connector-curvature="0"
         d="m 638.98332,1100.4972 c 0,0 1.94873,-23.1758 12.43542,-40.4647 l -3.11767,-39.9628 c 0,0 -2.46198,-98.66438 51.20547,-164.82424 0,0 -24.70568,20.28585 -36.93076,27.70107 0,0 19.50275,-30.29058 32.12868,-47.12511 0,0 -1.8209,-72.00543 -14.24641,-117.69917 0,0 -13.35583,29.65408 -27.58501,41.27793 0,0 20.10397,-40.01763 23.71138,-56.65175 0,0 -11.65823,-52.30878 -29.094,-77.56058 -11.76834,22.36669 -62.23021,170.60236 -16.47822,223.52167 0,0 -9.02095,-4.48316 -23.37537,-34.1455 0,0 -10.49824,162.44418 27.9807,202.92718 0,0 0.0104,40.7212 3.36579,83.006 z"
         id="path4233-9-4-1"
         style="fill:#ffffff;fill-opacity:1;stroke:none;display:inline" />
      <path
         inkscape:connector-curvature="0"
         d="m 639.15809,1097.2533 c 0,0 2.83424,-19.8397 13.32093,-37.1285 l -3.11767,-39.9629 c 0,0 55.83456,-45.91466 47.89868,-162.11857 0,0 -18.24683,16.9992 -30.47191,24.41442 0,0 16.63412,-28.85921 29.26002,-45.69375 0,0 -2.45503,-70.41946 -14.88053,-116.1132 0,0 -10.17086,24.52532 -24.40005,36.14916 0,0 17.83659,-36.47482 21.44399,-53.10895 0,0 -11.22302,-50.10278 -28.65879,-75.35458 -11.76835,22.36669 -62.10996,163.05688 -17.48028,220.4654 0,0 -8.2193,-2.37889 -22.67393,-30.43788 0,0 -9.54776,157.48541 28.93118,197.96845 0,0 0.54493,57.9636 0.82836,80.9209 z"
         id="path4233-7"
         style="fill:#fdbd00;fill-opacity:1;stroke:none;display:inline" />
      <path
         inkscape:connector-curvature="0"
         d="m 638.33287,1016.4789 c 0,0 -9.0074,-225.12723 13.62482,-366.09725 0,0 -25.9056,130.04529 -16.10805,363.79635 z"
         id="path4273-1"
         style="fill:#ffffff;fill-opacity:1;stroke:none" />
      <path
         inkscape:connector-curvature="0"
         d="m 651.72346,1018.6271 -2.36,1.5681 c 0,0 -15.8436,-247.16194 2.59423,-358.59052 0,0 -14.6598,86.73125 -0.23423,357.02242 z"
         id="path4275-1"
         style="fill:#68280c;fill-opacity:1;stroke:none" />
      <path
         inkscape:connector-curvature="0"
         d="m 648.56777,981.95637 c 0,0 14.08618,-8.33267 32.73548,-38.29061 0,0 -11.50701,24.99802 -32.53708,40.86977 z m -1.19039,-30.55313 -0.19839,-2.77753 c 0,0 17.06213,-12.30062 34.52106,-39.0842 -15.27657,29.16437 -34.32267,41.86173 -34.32267,41.86173 z m -1.38877,-28.56913 c 0,0 15.27656,-10.91182 30.55312,-34.32268 0,0 -12.6974,16.86374 -30.94991,31.74346 l 0.59519,3.3728 -0.59519,-3.3728 z m -0.99199,-54.16237 c 0,0 16.46695,-13.29259 29.56114,-38.68739 -16.86374,25.59319 -29.56114,35.90983 -29.56114,35.90983 z m -0.99198,-39.48099 c 0,0 17.65732,-16.07014 32.33869,-39.87777 0,0 -13.09419,26.78358 -32.53709,42.45693 z m 0.39679,-34.12426 c 0,0 10.71344,-6.1503 29.56114,-36.90183 -18.64931,27.57718 -29.56114,33.52908 -29.56114,33.52908 z m 1.78558,-64.479 c 0,0 7.93587,-8.33267 22.81564,-31.5451 -14.68137,20.83167 -23.11324,28.66835 -23.11324,28.66835 z m 1.48797,-28.07316 c 0,0 8.82866,-10.11824 15.17736,-26.58518 0,0 -8.03507,15.07816 -15.17736,23.70843 z m -1.88995,194.39305 -0.33869,-2.85389 c 0,0 8.12088,-4.84198 24.18761,-24.1594 0,0 -7.116,12.63828 -23.84892,27.01329 z m -1.12231,-136.78059 -0.14028,3.22662 c 0,0 7.71583,-9.19676 14.44964,-20.56007 -8.13669,10.52159 -14.30936,17.33345 -14.30936,17.33345 z"
         id="path4277-5"
         style="fill:#68280c;fill-opacity:1;stroke:none" />
    </g>
    <path
       inkscape:connector-curvature="0"
       d="m 488.67144,746.12679 c -11.22302,-19.9209 -29.16078,-5.856 -19.90179,4.5954 -16.9748,-11.223 1.47302,-33.87948 18.027,-13.5377 l 14.49073,8.9443 c 40.84622,-47.99808 67.54361,-1.968 31.17088,0.9779 29.80148,-10.7084 -1.81841,-37.1004 -31.63988,4.89301 z"
       id="path4280-8-2-2"
       style="fill:#ffffff;fill-opacity:1;stroke:none;display:inline" />
    <path
       inkscape:connector-curvature="0"
       d="m 489.96407,749.4127 c -11.22301,-19.9209 -29.18036,-8.35001 -20.61579,1.903 -15.09002,-9.9334 2.68304,-29.3023 19.23698,-11.44051 l 14.49073,8.25001 c 40.84622,-47.99808 66.3532,-1.1249 29.58372,-0.9565 32.38064,-11.6012 0.26474,-33.87645 -29.55673,8.1171 z"
       id="path4280-8-8-4-7"
       style="fill:#68280c;fill-opacity:1;stroke:none;display:inline" />
    <path
       inkscape:connector-curvature="0"
       d="m 488.53117,745.66279 c -11.22305,-19.92089 -29.74103,-5.331 -19.07917,5.75171 -16.9748,-11.223 2.10434,-32.68701 18.65828,-12.3453 l 13.53281,9.0025 c 40.84621,-47.99808 66.8903,-3.8118 30.51758,-0.8658 32.53707,-10.2174 -0.82643,-35.90999 -30.64791,6.0835 z"
       id="path4280-5-6"
       style="fill:#fdbd00;fill-opacity:1;stroke:none;display:inline" />
    <path
       inkscape:connector-curvature="0"
       d="m 490.98126,820.0655 c 0,0 5.4559,-19.7688 15.9426,-37.0577 l -3.11765,-39.9628 c 0,0 55.43371,-50.72461 47.49783,-166.92852 0,0 -20.39683,23.79304 -32.62189,31.20826 0,0 18.90152,-31.69346 31.52741,-48.52799 0,0 -3.09334,-72.18484 -17.52296,-121.48597 0,0 -9.79584,32.4489 -24.02501,44.07275 0,0 19.2537,-39.73421 22.86109,-56.36833 0,0 -13.03971,-56.24823 -32.03434,-79.65778 -11.76834,22.36669 -57.6007,168.91891 -12.97101,226.32743 0,0 -10.22341,0.026 -24.67805,-28.03295 0,0 -7.54365,155.0805 30.93529,195.56349 0,0 -2.07675,57.89271 -1.79331,80.8501 z"
       id="path4233-9-5-1"
       style="fill:#68280c;fill-opacity:1;stroke:none;display:inline" />
    <path
       inkscape:connector-curvature="0"
       d="m 490.70786,821.1698 c 0,0 1.94873,-23.1758 12.43542,-40.4647 l -3.11768,-39.9628 c 0,0 -2.46196,-98.66437 51.20549,-164.82424 0,0 -24.7057,20.28584 -36.93076,27.70106 0,0 19.50273,-30.29058 32.12868,-47.1251 0,0 -1.82089,-72.00544 -14.24642,-117.69917 0,0 -13.35582,29.65408 -27.58502,41.27793 0,0 20.104,-40.01763 23.7114,-56.65175 0,0 -11.65823,-52.30878 -29.094,-77.56058 -11.76834,22.36669 -62.2302,170.60236 -16.47822,223.52167 0,0 -9.02095,-4.48316 -23.37537,-34.1455 0,0 -10.49825,162.44418 27.98068,202.92718 0,0 0.0104,40.7212 3.3658,83.006 z"
       id="path4233-9-4-1-4"
       style="fill:#ffffff;fill-opacity:1;stroke:none;display:inline" />
    <path
       inkscape:connector-curvature="0"
       d="m 490.88264,817.9259 c 0,0 2.83424,-19.8397 13.32093,-37.1285 l -3.11768,-39.9629 c 0,0 55.83457,-45.91466 47.8987,-162.11857 0,0 -18.24684,16.9992 -30.47193,24.41442 0,0 16.63414,-28.85921 29.26003,-45.69375 0,0 -2.45504,-70.41946 -14.88054,-116.1132 0,0 -10.17085,24.52531 -24.40006,36.14916 0,0 17.8366,-36.47482 21.444,-53.10895 0,0 -11.22302,-50.10278 -28.65879,-75.35458 -11.76834,22.36669 -62.10995,163.05688 -17.48029,220.4654 0,0 -8.21929,-2.37889 -22.67391,-30.43788 0,0 -9.54778,157.48541 28.93119,197.96845 0,0 0.54491,57.9636 0.82835,80.9209 z"
       id="path4233-7-2"
       style="fill:#fdbd00;fill-opacity:1;stroke:none;display:inline" />
    <path
       inkscape:connector-curvature="0"
       d="m 490.0574,737.15149 c 0,0 -9.00737,-225.12722 13.62484,-366.09724 0,0 -25.9056,130.04529 -16.10806,363.79635 z"
       id="path4273-1-3"
       style="fill:#ffffff;fill-opacity:1;stroke:none;display:inline" />
    <path
       inkscape:connector-curvature="0"
       d="m 503.44801,739.2997 -2.36001,1.5681 c 0,0 -15.8436,-247.16194 2.59424,-358.59052 0,0 -14.65981,86.73124 -0.23423,357.02241 z"
       id="path4275-1-2"
       style="fill:#68280c;fill-opacity:1;stroke:none;display:inline" />
    <path
       inkscape:connector-curvature="0"
       d="m 500.2923,702.62897 c 0,0 14.08618,-8.33267 32.73549,-38.29061 0,0 -11.507,24.99802 -32.53709,40.86977 z m -1.19037,-30.55313 -0.1984,-2.77753 c 0,0 17.06215,-12.30066 34.52106,-39.08419 -15.27655,29.16431 -34.32266,41.86172 -34.32266,41.86172 z m -1.38879,-28.56913 c 0,0 15.27658,-10.91183 30.55313,-34.32268 0,0 -12.69739,16.86374 -30.9499,31.74346 l 0.59517,3.37279 -0.59517,-3.37279 z m -0.99197,-54.16237 c 0,0 16.46695,-13.29259 29.56114,-38.6874 -16.86374,25.5932 -29.56114,35.90984 -29.56114,35.90984 z m -0.99199,-39.48099 c 0,0 17.65734,-16.07015 32.33869,-39.87778 0,0 -13.09419,26.78358 -32.53709,42.45694 z m 0.3968,-34.12427 c 0,0 10.71343,-6.1503 29.56113,-36.90183 -18.6493,27.57718 -29.56113,33.52908 -29.56113,33.52908 z m 1.78556,-64.479 c 0,0 7.93587,-8.33267 22.81566,-31.54509 -14.68139,20.83166 -23.11325,28.66834 -23.11325,28.66834 z m 1.48798,-28.07315 c 0,0 8.82865,-10.11824 15.17736,-26.58518 0,0 -8.03505,15.07816 -15.17736,23.70843 z m -1.88995,194.39304 -0.33867,-2.85389 c 0,0 8.12086,-4.84198 24.18761,-24.1594 0,0 -7.11602,12.63828 -23.84894,27.01329 z m -1.12232,-136.78059 -0.14027,3.22662 c 0,0 7.71584,-9.19676 14.44964,-20.56007 -8.1367,10.52159 -14.30937,17.33345 -14.30937,17.33345 z"
       id="path4277-5-2"
       style="fill:#68280c;fill-opacity:1;stroke:none;display:inline" />
  </g>
</svg>
