<?xml version="1.0" encoding="UTF-8"?>
<!DOCTYPE svg PUBLIC "-//W3C//DTD SVG 1.1//EN" "http://www.w3.org/Graphics/SVG/1.1/DTD/svg11.dtd">
<!-- Creator: CorelDRAW -->
<svg xmlns="http://www.w3.org/2000/svg" xml:space="preserve" width="500px" height="543px" shape-rendering="geometricPrecision" text-rendering="geometricPrecision" image-rendering="optimizeQuality" fill-rule="evenodd" clip-rule="evenodd"
viewBox="0 0 500 543"
 xmlns:xlink="http://www.w3.org/1999/xlink"
 xmlns:svg="http://www.w3.org/2000/svg"
 version="1.0">
 <g id="Layer_x0020_1">
  <metadata id="CorelCorpID_0Corel-Layer"/>
  <path id="path1937" fill="#0581ED" stroke="black" stroke-width="0.368504" d="M0.161858 0.579969l499.554 -0.121606 -17.3324 310.409c-19.3717,305.885 -445.641,310.782 -466.169,-0.148819l-16.0523 -310.139z"/>
  <path fill="black" stroke="black" stroke-width="0.992126" d="M211.754 165.47l33.2164 45.2112 -0.615118 -23.9896 3.99827 -6.15118 4.30583 11.3797 6.7663 -7.07386c3.87128,39.8333 13.6202,48.115 27.3728,70.7386 15.9545,20.7853 32.4343,40.5204 49.2095,59.6665 14.692,13.0575 20.2263,20.3565 38.823,18.7033 11.649,-1.0355 19.7881,-8.41465 21.4586,-15.3201 4.1006,-7.94467 8.2012,-20.965 12.3024,-36.292l-2.46047 -5.22851 -4.92095 -2.15291 -0.307559 -11.6872 11.9948 -21.2216c1.5378,-1.64041 8.61166,-0.512788 12.6099,-0.307559l27.3728 -12.3024c1.33257,-2.05058 4.51077,-9.32939 4.92095,-18.4536 0.410173,-1.53808 2.87036,-3.69099 7.38142,-5.22851 -3.81005,8.24627 2.61354,15.7513 -0.425197,24.6895 -2.35956,6.94007 -11.6164,9.8589 -22.3342,15.2932l7.38142 5.53607c5.69055,1.32435 11.5444,2.70425 15.9514,7.78507 3.6635,4.22362 0.223087,23.1415 1.57947,35.2732 -2.04576,-0.154205 -6.81421,-2.52992 -7.27342,-13.6349 -0.255969,-6.19172 -4.91159,-12.3483 -8.08696,-17.5972 -2.67846,-4.428 -5.67581,-4.71572 -21.2392,-5.98252 -6.93298,-1.17298 -14.9122,15.4301 -3.57562,21.3942 8.52123,4.48299 1.15342,15.8783 2.03783,22.5868l23.6821 5.22851c15.2447,37.9466 10.9874,36.307 7.64306,47.1515 -2.03754,6.60728 -10.4803,19.8371 -16.2547,31.8912 -1.9029,-24.0279 3.56145,-10.5684 6.10356,-38.5552 0.909638,-10.0131 -2.82614,-11.8111 -5.18088,-21.1113 -29.6283,-0.717733 -23.7436,2.91402 -29.8718,14.7626 -2.93216,5.66873 -5.92555,15.0007 -14.2279,22.4958 -6.45704,5.82945 -5.61288,8.20942 -33.0976,11.0285l-0.307559 3.07559 15.0704 22.7594c26.7577,-16.6082 41.2129,-0.615118 47.0566,-2.76803 2.25525,-0.922678 7.58637,-6.15118 8.61166,-9.22678 6.04545,11.1297 -10.6438,20.4336 -31.1718,19.1143 -22.8915,-1.47118 -36.258,17.9011 9.0275,18.7155l6.15118 3.38315c7.29043,0.929197 13.5519,0.214583 12.6099,-4.61339 3.15213,20.1319 -30.1159,6.31729 -34.4466,14.1477 8.53456,5.48788 8.80895,10.1432 10.9709,14.8887 2.45055,5.37789 3.81714,6.56674 1.33143,15.5597l-2.46047 -0.307559c-4.2035,-11.0721 -13.3277,-5.53607 -20.914,-15.6855 -2.12995,10.4559 -14.0922,18.667 -13.225,40.9054 -10.1495,-18.9663 3.69071,-37.0097 0,-43.0583 -3.7423,-6.3567 -9.89349,-11.5852 -12.6099,-16.3006 -4.10088,5.84362 -8.43279,14.4556 -10.0344,19.9913 -2.21641,7.65978 -12.7763,11.6872 -14.5704,15.0704 0.520441,7.60848 0.81241,11.2791 -1.30621,16.2678 -1.39493,3.28507 -2.71588,15.181 -4.77581,17.5394 -2.75329,3.15213 -3.96851,7.0492 -4.68255,9.86627 -1.9406,-4.42262 3.26665,-10.6773 3.22441,-19.2478 -0.0325984,-6.58205 -0.673229,-11.8996 -4.96318,-16.7445l-0.49578 -9.50712c10.8051,-11.3933 17.5229,-26.1318 19.3071,-44.9059 -4.35827,-4.20917 -8.71626,-6.5727 -13.0742,-12.6269 -2.51915,33.5812 -10.065,35.2814 -18.2653,41.2855 -4.93229,3.61162 -6.13219,14.9519 -10.0443,19.3482 -7.65185,8.59805 -42.1623,3.07559 -38.5932,24.6011 2.68725,6.05282 5.24665,11.272 8.75481,12.8132 1.92586,3.68589 17.6261,2.09225 26.8642,3.17707 5.00882,0.587906 5.18967,1.31329 6.9361,5.58029 -3.46989,-0.0263622 -15.4794,-5.3521 -33.1858,2.45821 -18.923,-12.6303 -22.7772,-16.3409 -22.9765,-31.3424 -0.0776693,-5.8663 1.10239,-11.1963 4.2327,-14.9026 -1.58769,-1.12677 -2.8681,-2.71446 -3.84095,-4.76277 -2.68073,3.2006 -16.9997,5.06381 -36.8745,-5.24551 -7.95657,4.52523 -8.76955,8.32309 -10.429,9.87478 -1.59194,1.48819 -6.53358,3.0291 -11.2326,9.50542 3.42454,27.0774 24.1501,27.5808 28.8116,35.8033 0.409323,0.721985 3.41603,2.48967 3.84066,3.53197 0.892914,2.19175 4.80161,4.33871 3.4526,6.7561 -8.60372,-7.22098 -23.9675,-13.5201 -35.4903,-20.2802 -4.09663,3.02145 -8.19355,5.63329 -12.291,7.83553 11.4769,-18.1417 -5.11087,-20.0716 1.55424,-40.3628 3.34914,-10.1959 14.8331,-5.76284 21.4914,-28.6206 4.50681,-2.30457 9.93515,-5.83824 13.2129,-6.29915 1.84365,-0.256252 5.83824,6.09421 9.37191,8.60372 37.1926,3.91805 56.3825,-6.73909 58.3308,-14.1066 1.78413,-6.74646 7.17619,-3.78992 7.73348,-23.2274 -3.3463,-44.5436 -46.5282,-97.0614 -73.1639,-116.862 -14.8907,-11.0693 -22.7169,-7.19944 -28.7547,-10.9542 0.102614,-3.89594 3.89594,-7.48404 3.99827,-9.84189 0,-0.102614 -4.61339,-4.2035 -5.53607,-6.7663l0.307559 -1.84536c5.33112,-0.717733 14.0454,1.94769 16.9158,0.615118 -5.34076,-7.66318 -12.3613,-17.411 -18.4975,-26.7701 -9.04848,-13.8013 -18.237,-21.0141 -22.4079,-29.8208 -6.03978,-3.68419 -15.3717,-1.332 -19.6141,4.57597 -3.4458,4.79877 -6.97125,7.44718 -7.9784,12.9833 -1.6628,9.13748 -7.30999,16.5756 -1.82835,28.5163 5.00542,10.9029 8.91695,13.7784 18.3487,24.048 -0.627874,3.76753 -1.68293,7.55717 -0.399402,13.9402 0.756,3.76073 -2.91118,17.2069 -2.06107,27.5803l-8.61166 -7.38142c-2.97298,-11.2774 -2.56252,-22.1448 -0.615118,-32.6013 -13.3274,-7.12545 -19.8885,-13.174 -24.9123,-28.2954l-4.92095 0.615118c-4.10032,3.69071 -9.32882,6.25351 -15.0704,8.3041l-0.922678 8.61166 -11.0721 -8.91922 0.615118 -3.38315 12.9175 -6.7663 -3.38315 -2.46047 1.5378 -1.84536c-9.02183,-1.33257 -14.6605,-4.92095 -18.7611,-9.53434l10.457 -7.38142c8.19893,8.80952 23.1313,9.19163 25.9506,-5.45074 6.99591,-36.3342 34.4636,-35.7676 33.5418,-48.5915 -1.79462,-24.9611 -45.8739,-25.0424 -65.9512,-25.6156l7.07386 -17.2233c21.8367,2.15291 48.2868,5.53607 66.4328,11.0721 -11.482,-15.1727 -6.35613,-29.1155 -9.53434,-43.6734l20.2989 -20.6065c-2.39811,19.6693 3.18104,24.1384 3.3772,33.505 0.174331,8.32649 5.77134,20.7505 14.4612,31.0825l4.30583 -0.307559c4.92095,-7.07386 32.2937,-10.1495 48.9019,-17.5309 2.54495,-6.38136 7.46901,-7.26832 9.57034,-17.3126 3.03449,-14.504 -5.16218,-14.8544 2.42447,-34.6649l17.2233 -10.1495c-2.97354,9.22706 -9.32967,18.1463 -6.15118,37.8298l15.6855 -15.9931 -3.07559 -7.99654 11.6872 -14.7628 15.378 17.5309c-36.3181,16.437 -30.4846,36.5548 -34.2074,43.1881 -1.29458,2.30655 -0.487276,5.35323 -0.546803,8.17427 16.1082,-2.42192 18.6673,8.06797 25.8296,16.0112 5.57065,6.1784 13.4484,9.77245 39.373,5.82548 2.76803,-0.512504 3.99827,2.97326 1.84536,3.99827 -24.2498,11.3828 -46.6504,7.50104 -53.6108,-4.68709 -9.04451,-15.8372 -30.149,-8.76841 -68.7977,2.53417l0 8.61166z"/>
  <polygon fill="black" points="85.1483,184.768 85.1483,187.844 91.9146,199.839 86.0709,200.761 81.15,192.15 78.0744,192.15 78.0744,201.684 73.461,203.529 73.1535,193.995 66.3872,193.072 65.772,203.837 60.236,202.607 60.236,194.61 56.8528,196.763 56.5453,202.607 40.5522,197.071 39.3219,166.622 47.0109,154.32 50.0865,154.627 50.0865,151.552 37.7841,116.798 33.1708,114.03 44.2429,98.3441 50.3941,92.5005 52.8545,92.1929 47.0109,81.7359 46.7034,58.0539 30.7103,48.8271 38.7068,45.4439 51.6243,46.059 63.9267,38.6776 72.8459,35.602 76.5366,39.9079 102.987,24.2223 149.736,41.1381 187.565,27.6055 197.715,37.1398 203.866,34.6794 205.711,39.6003 196.177,43.291 196.485,49.4422 212.478,58.9765 211.248,62.0521 204.174,60.2068 205.096,72.5091 218.014,66.6655 218.321,70.3562 205.096,77.1225 206.019,90.04 209.095,92.808 199.868,94.6534 198.638,79.8906 190.026,82.6586 189.411,87.8871 195.254,93.1156 189.103,95.5761 184.49,90.6551 182.337,99.8819 178.031,99.5743 177.108,92.5005 174.34,92.1929 174.648,90.3476 171.572,90.3476 170.957,82.9662 168.497,81.7359 147.275,102.958 142.969,102.342 140.816,98.9592 134.665,98.0366 110.983,118.951 115.289,127.562 110.368,130.33 104.832,123.872 99.296,119.873 97.7582,121.719 99.296,123.564 101.141,128.792 90.6843,128.485 91.2994,134.636 83.918,153.397 86.0709,158.318 100.526,159.548 103.711,171.495 105.447,202.299 93.7599,197.993 87.6087,184.461 "/>
  <polygon fill="black" points="107.293,94.3458 103.294,98.6517 110.676,102.958 109.753,105.726 104.832,107.571 104.524,110.646 107.271,113.509 113.751,109.724 116.519,110.954 118.365,124.487 124.823,122.641 122.055,110.954 126.361,114.952 132.512,115.567 132.205,109.416 126.976,107.878 125.131,105.726 131.59,99.8819 127.591,95.5761 122.055,100.189 120.21,100.189 121.133,89.4249 115.904,89.7325 115.597,100.805 113.751,101.42 "/>
  <polygon fill="black" points="132.205,28.5282 131.897,33.4491 117.134,32.5264 125.746,41.4457 120.21,44.5213 116.827,42.6759 112.829,34.9869 110.323,38.361 110.061,49.1346 105.447,49.1346 102.987,46.9817 108.215,33.7567 98.6809,25.145 100.219,21.1468 111.291,26.6828 115.904,15.6107 120.825,16.8409 117.442,23.9148 118.365,28.5282 "/>
  <polygon fill="black" points="79.6122,40.2154 76.8442,39.2927 77.1517,35.9096 79.6122,30.066 67.6174,22.377 71.3081,17.1485 82.3802,24.8375 81.4576,9.76706 88.839,7.61415 88.5314,22.377 92.5297,20.8392 102.372,15.6107 106.677,22.377 100.219,22.9921 90.3768,28.2206 95.9128,38.3701 91.9146,42.0608 86.6861,29.4508 82.6878,31.6038 "/>
  <polygon fill="black" points="52.2394,41.1381 41.4749,32.834 46.3958,27.9131 56.2377,36.5247 58.6982,34.6794 58.0831,25.7601 65.1569,24.8375 63.3116,36.5247 71.0005,33.7567 70.693,37.1398 63.3116,39.6003 63.3116,41.1381 70.3854,45.7515 67.3098,48.5195 61.7738,43.9061 61.4662,47.2893 65.1569,50.6724 65.1569,54.3631 60.236,55.2858 59.3133,50.6724 59.0057,46.3666 56.8528,44.5213 47.9336,48.8271 44.5504,49.4422 42.7051,44.5213 51.0092,43.9061 "/>
  <polygon fill="black" points="27.9423,54.0556 18.4079,65.4353 16.255,61.7446 24.2515,51.5951 11.6416,48.8271 12.5643,42.6759 17.4852,43.291 24.8667,46.9817 25.4818,43.5986 22.0986,34.9869 28.2498,32.834 31.633,44.8288 39.3219,39.9079 42.7051,43.5986 34.7086,47.9044 32.5556,48.8271 42.3975,52.2102 43.0127,59.2841 "/>
  <polygon fill="black" points="42.7051,79.583 30.7103,85.1191 27.3271,79.8906 40.8597,76.1998 39.6295,74.6621 27.0196,71.5865 29.1725,64.5126 42.7051,68.5109 42.3975,60.2068 46.7034,58.3614 46.3958,71.2789 48.2412,72.2016 58.3906,70.3562 55.6226,75.2772 51.0092,76.5074 45.4731,76.5074 45.4731,79.2754 48.8563,83.2737 48.2412,86.0417 42.7051,90.6551 "/>
  <polygon fill="black" points="31.0178,104.188 29.48,113.722 34.401,112.799 35.0161,106.956 36.2463,105.418 39.3219,105.418 43.6278,108.801 47.626,111.569 50.3941,107.263 45.7807,103.573 42.09,102.65 41.1673,99.2668 51.0092,95.8836 48.8563,90.6551 40.8597,97.1139 38.7068,85.4266 33.1708,87.8871 35.0161,97.1139 33.4783,98.9592 22.7137,93.4232 20.8684,94.961 20.8684,99.5743 27.9423,103.573 "/>
  <polygon fill="#1E2019" points="35.9388,142.633 25.7893,150.322 21.7911,146.016 32.2481,138.019 21.1759,130.945 23.3289,126.024 29.7876,130.945 33.1708,132.176 35.3237,132.176 34.0934,119.258 39.0144,118.951 39.0144,127.255 40.5522,130.33 51.0092,128.792 51.3168,134.329 42.3975,135.251 38.7068,137.404 49.4714,144.17 47.9336,151.244 43.0127,149.399 "/>
  <polygon fill="black" points="37.7841,172.158 50.0865,177.694 49.779,172.158 39.9371,166.93 39.9371,164.777 42.7051,157.703 43.3202,153.397 39.3219,151.244 36.2463,163.547 21.7911,162.624 21.4835,168.468 30.7103,169.39 34.0934,170.621 31.0178,180.77 36.2463,183.846 "/>
  <polygon fill="black" points="38.3993,178.617 42.09,183.23 39.3219,192.457 41.7824,192.15 49.4714,188.459 53.1621,192.765 43.3202,195.84 43.0127,197.071 57.4679,199.224 55.0075,206.297 41.4749,199.839 34.401,214.294 30.4027,212.141 31.0178,208.45 34.401,201.992 30.0952,201.684 22.7137,206.297 22.4062,200.454 20.8684,196.456 29.7876,195.84 32.8632,195.84 33.1708,193.995 21.1759,188.459 22.7137,185.998 32.2481,190.612 35.3237,191.227 "/>
  <polygon fill="black" points="89.7617,191.842 99.6035,205.375 87.3012,209.988 90.0692,211.526 100.834,207.528 104.832,217.37 109.753,213.986 106.062,203.837 116.827,198.608 112.829,194.918 102.372,201.376 95.9128,190.612 "/>
  <polygon fill="black" points="89.7617,169.698 90.6843,176.772 100.834,176.157 97.7582,182 101.141,186.306 105.755,176.464 114.059,187.229 118.057,183.23 110.061,171.851 115.289,162.932 114.982,160.471 112.829,161.086 106.985,170.313 102.987,162.009 98.0658,161.701 98.0658,166.007 100.834,169.083 "/>
  <polygon fill="black" points="150.351,42.3683 150.658,50.98 144.507,51.5951 144.2,39.9079 131.897,38.3701 131.897,34.0642 143.892,36.5247 136.203,24.5299 142.354,21.7619 149.121,33.7567 155.272,18.0712 160.808,19.9165 155.272,29.4508 156.502,36.2172 163.576,36.8323 162.961,42.3683 "/>
  <polygon fill="black" points="184.797,41.7532 181.107,33.1416 178.339,32.834 166.344,38.6776 160.193,34.0642 175.263,28.8357 175.263,29.1433 174.648,26.3753 166.651,16.2258 173.418,12.8427 181.414,23.9148 184.49,22.9921 184.49,14.0729 190.641,11.3049 190.334,25.7601 199.56,27.2979 196.792,30.3735 189.718,28.2206 184.182,29.1433 183.875,31.2962 187.873,38.6776 187.873,41.4457 "/>
  <polygon fill="black" points="97.7582,269.962 103.909,270.27 108.215,265.656 110.368,267.502 104.832,271.5 105.447,286.263 115.597,292.414 115.597,295.797 107.293,301.333 113.444,309.945 108.523,314.866 103.602,306.254 104.832,299.488 110.061,296.105 110.368,293.644 103.909,289.031 101.756,292.722 104.217,299.18 102.987,305.331 85.4558,318.864 61.1586,317.326 68.5401,303.486 50.7016,290.261 50.0865,276.421 39.6295,266.887 45.1656,243.82 53.1621,232.132 46.0882,218.292 59.3133,208.45 67.0023,218.292 69.4627,218.292 69.7703,210.603 71.6157,210.911 71.9232,211.218 72.2308,215.832 74.3837,219.522 82.6878,221.675 86.0709,214.909 88.2239,215.832 85.1483,222.29 87.6087,226.289 92.5297,222.906 94.0675,225.981 88.2239,228.442 89.1465,230.902 83.6105,251.201 89.7617,263.196 "/>
  <polygon fill="black" points="94.9902,324.4 88.839,329.014 97.7582,339.163 89.7617,346.852 94.375,351.465 101.449,344.699 107.293,355.156 110.676,351.465 105.14,340.701 114.674,340.086 114.366,335.472 108.83,335.472 106.37,327.168 101.449,328.091 101.449,337.318 "/>
  <polygon fill="black" points="78.0744,313.328 77.7668,319.787 86.6861,320.402 86.3785,330.551 94.0675,330.551 94.375,322.247 107.293,323.477 106.37,316.404 94.6826,315.173 94.375,302.256 89.7617,302.563 88.2239,313.943 "/>
  <polygon fill="black" points="46.0882,317.326 46.3958,324.708 58.6982,322.555 52.547,333.012 58.3906,336.703 59.0057,333.934 63.9267,327.168 72.2308,334.242 75.3064,328.706 67.3098,322.862 79.3046,320.709 78.0744,315.481 66.0796,317.019 67.0023,308.099 62.6964,306.869 61.7738,315.481 "/>
  <polygon fill="black" points="40.8597,292.722 43.0127,299.795 56.5453,295.182 56.2377,297.027 45.7807,309.33 51.9319,311.79 59.9284,299.795 67.9249,305.639 70.693,300.718 60.5435,296.105 60.236,293.952 74.3837,292.414 74.6913,288.108 62.3889,288.416 62.6964,276.728 58.0831,276.728 56.5453,289.031 49.779,289.646 "/>
  <polygon fill="black" points="29.48,248.741 29.48,255.199 40.2446,252.739 40.5522,255.507 36.2463,268.732 36.8615,272.115 41.7824,271.192 40.8597,267.502 43.9353,257.352 52.8545,265.349 57.7755,259.198 48.2412,252.124 61.4662,248.741 59.6208,244.435 47.626,246.588 48.5487,236.746 43.3202,236.438 42.3975,246.895 "/>
  <polygon fill="black" points="27.9423,216.139 27.6347,220.138 37.4766,219.522 38.3993,221.983 29.7876,229.979 35.3237,236.131 42.7051,227.211 49.4714,233.978 53.7772,229.979 46.7034,222.906 56.8528,218.292 53.4697,212.449 47.626,214.909 45.1656,206.605 41.1673,208.758 40.8597,214.909 39.6295,215.832 "/>
  <polygon fill="black" points="250.308,75.8923 250.923,67.5882 248.155,66.358 246.924,69.4335 246.924,78.9679 241.696,77.4301 242.003,74.0469 240.158,69.7411 236.775,69.7411 238.313,78.3528 235.545,77.4301 235.852,81.7359 232.469,81.4284 229.394,69.4335 221.705,79.8906 218.629,78.3528 222.935,70.3562 222.935,67.2806 215.861,60.8219 232.162,46.059 232.162,32.834 227.241,31.2962 227.856,28.8357 233.699,29.1433 238.313,20.5316 243.234,19.9165 238.928,30.3735 239.543,34.9869 253.383,35.9096 257.689,30.6811 277.988,39.9079 283.216,50.3649 309.359,70.6638 324.737,64.5126 329.35,67.5882 333.041,62.9748 339.807,66.0504 343.498,66.0504 349.649,58.669 352.11,59.2841 347.189,66.9731 347.496,72.2016 356.723,74.0469 355.8,70.0487 360.106,63.8975 365.027,64.8202 361.644,70.9713 363.182,75.2772 376.099,68.8184 378.867,74.3545 364.72,79.8906 369.025,94.0383 362.567,98.3441 357.953,90.9627 353.647,90.3476 352.417,93.4232 355.8,99.8819 350.264,103.265 341.96,90.9627 306.591,106.648 304.746,105.418 299.825,106.956 297.057,104.188 302.9,102.65 298.287,96.8063 291.213,98.0366 290.905,94.3458 297.672,91.2703 303.515,85.1191 300.747,81.7359 285.984,64.8202 282.909,58.9765 271.222,72.8167 268.761,72.2016 269.069,67.5882 "/>
  <polygon fill="black" points="305.976,106.648 316.433,98.9592 319.201,96.1912 311.512,92.808 315.203,88.1947 324.429,94.0383 330.581,83.2737 333.041,83.2737 333.349,86.6569 327.505,94.0383 327.505,95.8836 338.885,92.1929 338.885,97.4214 332.118,96.1912 332.426,99.2668 339.5,102.342 333.964,108.801 326.275,103.265 326.275,112.184 319.816,112.184 320.431,106.341 321.661,100.805 308.129,110.031 "/>
  <polygon fill="black" points="200.791,19.9165 199.868,25.7601 211.555,30.066 211.248,33.1416 207.864,39.9079 211.555,42.0608 214.938,40.8305 217.091,33.1416 216.784,30.6811 228.778,33.1416 229.086,27.2979 221.705,26.6828 221.397,22.9921 232.162,18.3787 229.394,14.3804 218.629,19.9165 213.708,8.53682 207.864,10.0746 207.557,14.0729 211.863,19.3014 211.248,22.6845 "/>
  <polygon fill="black" points="317.663,55.2858 318.278,58.669 327.812,57.4387 328.735,66.9731 330.581,70.0487 334.579,66.9731 332.733,55.9009 346.266,52.2102 345.958,48.5195 336.424,51.9027 336.117,49.1346 341.345,42.0608 335.194,41.4457 329.965,51.5951 322.276,40.523 318.586,43.5986 325.044,52.5178 325.044,54.6707 "/>
  <polygon fill="black" points="315.818,70.9713 315.818,76.815 318.586,80.1981 313.972,81.7359 311.819,78.0452 311.512,74.3545 308.744,74.3545 305.053,82.0435 301.362,82.351 298.594,78.3528 306.898,71.5865 296.134,62.0521 299.209,57.1312 308.744,66.358 306.898,51.9027 313.972,52.2102 314.28,65.4353 318.586,64.8202 323.199,61.437 325.044,65.4353 320.431,69.7411 "/>
  <polygon fill="black" points="279.833,49.4422 293.058,45.1364 289.06,33.7567 294.596,30.9886 298.594,43.9061 309.359,40.523 309.974,45.1364 300.747,47.9044 303.515,61.1294 297.057,62.3597 295.211,53.1329 290.905,50.98 279.833,53.4405 "/>
  <polygon fill="black" points="253.998,47.2893 254.306,50.6724 256.151,50.98 265.686,43.9061 272.144,54.6707 275.835,52.5178 270.914,42.6759 284.754,34.0642 282.909,30.066 270.606,35.9096 269.684,22.6845 264.148,26.0677 265.07,36.5247 256.766,29.4508 252.768,33.7567 261.995,40.8305 257.074,46.3666 "/>
  <path fill="#CCCCCC" d="M208.48 164.162l33.2164 45.2112 -0.615118 -23.9896 3.99827 -6.15118 4.30583 11.3797 6.7663 -7.07386c3.87128,39.8333 13.6202,48.115 27.3728,70.7386 15.9545,20.7853 32.4343,40.5204 49.2095,59.6665 14.692,13.0575 20.2263,20.3565 38.823,18.7033 11.649,-1.0355 19.7881,-8.41465 21.4586,-15.3201 4.1006,-7.94467 8.2012,-20.965 12.3024,-36.292l-2.46047 -5.22851 -4.92095 -2.15291 -0.307559 -11.6872 11.9948 -21.2216c1.5378,-1.64041 8.61166,-0.512788 12.6099,-0.307559l27.3728 -12.3024c1.33257,-2.05058 4.51077,-9.32939 4.92095,-18.4536 0.410173,-1.53808 2.87036,-3.69099 7.38142,-5.22851 -3.81005,8.24627 2.61354,15.7513 -0.425197,24.6895 -2.35956,6.94007 -11.6164,9.8589 -22.3342,15.2932l7.38142 5.53607c5.69055,1.32435 11.5444,2.70425 15.9514,7.78507 3.6635,4.22362 0.223087,23.1415 1.57947,35.2732 -2.04576,-0.154205 -6.81421,-2.52992 -7.27342,-13.6349 -0.255969,-6.19172 -4.91159,-12.3483 -8.08696,-17.5972 -2.67846,-4.428 -5.67581,-4.71572 -21.2392,-5.98252 -6.93298,-1.17298 -14.9122,15.4301 -3.57562,21.3942 8.52123,4.48299 1.15342,15.8783 2.03783,22.5868l23.6821 5.22851c15.2447,37.9466 10.9874,36.307 7.64306,47.1515 -2.03754,6.60728 -10.4803,19.8371 -16.2547,31.8912 -1.9029,-24.0279 3.56145,-10.5684 6.10356,-38.5552 0.909638,-10.0131 -2.82614,-11.8111 -5.18088,-21.1113 -29.6283,-0.717733 -23.7436,2.91402 -29.8718,14.7626 -2.93216,5.66873 -5.92555,15.0007 -14.2279,22.4958 -6.45704,5.82945 -5.61288,8.20942 -33.0976,11.0285l-0.307559 3.07559 15.0704 22.7594c26.7577,-16.6082 41.2129,-0.615118 47.0566,-2.76803 2.25525,-0.922678 7.58637,-6.15118 8.61166,-9.22678 6.04545,11.1297 -10.6438,20.4336 -31.1718,19.1143 -22.8915,-1.47118 -36.258,17.9011 9.0275,18.7155l6.15118 3.38315c7.29043,0.929197 13.5519,0.214583 12.6099,-4.61339 3.15213,20.1319 -30.1159,6.31729 -34.4466,14.1477 8.53456,5.48788 8.80895,10.1432 10.9709,14.8887 2.45055,5.37789 3.81714,6.56674 1.33143,15.5597l-2.46047 -0.307559c-4.2035,-11.0721 -13.3277,-5.53607 -20.914,-15.6855 -2.12995,10.4559 -14.0922,18.667 -13.225,40.9054 -10.1495,-18.9663 3.69071,-37.0097 0,-43.0583 -3.7423,-6.3567 -9.89349,-11.5852 -12.6099,-16.3006 -4.10088,5.84362 -8.43279,14.4556 -10.0344,19.9913 -2.21641,7.65978 -12.7763,11.6872 -14.5704,15.0704 0.520441,7.60848 0.81241,11.2791 -1.30621,16.2678 -1.39493,3.28507 -2.71588,15.181 -4.77581,17.5394 -2.75329,3.15213 -3.96851,7.0492 -4.68255,9.86627 -1.9406,-4.42262 3.26665,-10.6773 3.22441,-19.2478 -0.0325984,-6.58205 -0.673229,-11.8996 -4.96318,-16.7445l-0.49578 -9.50712c10.8051,-11.3933 17.5229,-26.1318 19.3071,-44.9059 -4.35827,-4.20917 -8.71626,-6.5727 -13.0742,-12.6269 -2.51915,33.5812 -10.065,35.2814 -18.2653,41.2855 -4.93229,3.61162 -6.13219,14.9519 -10.0443,19.3482 -7.65185,8.59805 -42.1623,3.07559 -38.5932,24.6011 2.68725,6.05282 5.24665,11.272 8.75481,12.8132 1.92586,3.68589 17.6261,2.09225 26.8642,3.17707 5.00882,0.587906 5.18967,1.31329 6.9361,5.58029 -3.46989,-0.0263622 -15.4794,-5.3521 -33.1858,2.45821 -18.923,-12.6303 -22.7772,-16.3409 -22.9765,-31.3424 -0.0776693,-5.8663 1.10239,-11.1963 4.2327,-14.9026 -1.58769,-1.12677 -2.8681,-2.71446 -3.84095,-4.76277 -2.68073,3.2006 -16.9997,5.06381 -36.8745,-5.24551 -7.95657,4.52523 -8.76955,8.32309 -10.429,9.87478 -1.59194,1.48819 -6.53358,3.0291 -11.2326,9.50542 3.42454,27.0774 24.1501,27.5808 28.8116,35.8033 0.409323,0.721985 3.41603,2.48967 3.84066,3.53197 0.892914,2.19175 4.80161,4.33871 3.4526,6.7561 -8.60372,-7.22098 -23.9675,-13.5201 -35.4903,-20.2802 -4.09663,3.02145 -8.19355,5.63329 -12.291,7.83553 11.4769,-18.1417 -5.11087,-20.0716 1.55424,-40.3628 3.34914,-10.1959 14.8331,-5.76284 21.4914,-28.6206 4.50681,-2.30457 9.93515,-5.83824 13.2129,-6.29915 1.84365,-0.256252 5.83824,6.09421 9.37191,8.60372 37.1926,3.91805 56.3825,-6.73909 58.3308,-14.1066 1.78413,-6.74646 7.17619,-3.78992 7.73348,-23.2274 -3.3463,-44.5436 -46.5282,-97.0614 -73.1639,-116.862 -14.8907,-11.0693 -22.7169,-7.19944 -28.7547,-10.9542 0.102614,-3.89594 3.89594,-7.48404 3.99827,-9.84189 0,-0.102614 -4.61339,-4.2035 -5.53607,-6.7663l0.307559 -1.84536c5.33112,-0.717733 14.0454,1.94769 16.9158,0.615118 -5.34076,-7.66318 -12.3613,-17.411 -18.4975,-26.7701 -9.04848,-13.8013 -18.237,-21.0141 -22.4079,-29.8208 -6.03978,-3.68419 -15.3717,-1.332 -19.6141,4.57597 -3.4458,4.79877 -6.97125,7.44718 -7.9784,12.9833 -1.6628,9.13748 -7.30999,16.5756 -1.82835,28.5163 5.00542,10.9029 8.91695,13.7784 18.3487,24.048 -0.627874,3.76753 -1.68293,7.55717 -0.399402,13.9402 0.756,3.76073 -2.91118,17.2069 -2.06107,27.5803l-8.61166 -7.38142c-2.97298,-11.2774 -2.56252,-22.1448 -0.615118,-32.6013 -13.3274,-7.12545 -19.8885,-13.174 -24.9123,-28.2954l-4.92095 0.615118c-4.10032,3.69071 -9.32882,6.25351 -15.0704,8.3041l-0.922678 8.61166 -11.0721 -8.91922 0.615118 -3.38315 12.9175 -6.7663 -3.38315 -2.46047 1.5378 -1.84536c-9.02183,-1.33257 -14.6605,-4.92095 -18.7611,-9.53434l10.457 -7.38142c8.19893,8.80952 23.1313,9.19163 25.9506,-5.45074 6.99591,-36.3342 34.4636,-35.7676 33.5418,-48.5915 -1.79462,-24.9611 -45.8739,-25.0424 -65.9512,-25.6156l7.07386 -17.2233c21.8367,2.15291 48.2868,5.53607 66.4328,11.0721 -11.482,-15.1727 -6.35613,-29.1155 -9.53434,-43.6734l20.2989 -20.6065c-2.39811,19.6693 3.18104,24.1384 3.3772,33.505 0.174331,8.32649 5.77134,20.7505 14.4612,31.0825l4.30583 -0.307559c4.92095,-7.07386 32.2937,-10.1495 48.9019,-17.5309 2.54495,-6.38136 7.46901,-7.26832 9.57034,-17.3126 3.03449,-14.504 -5.16218,-14.8544 2.42447,-34.6649l17.2233 -10.1495c-2.97354,9.22706 -9.32967,18.1463 -6.15118,37.8298l15.6855 -15.9931 -3.07559 -7.99654 11.6872 -14.7628 15.378 17.5309c-36.3181,16.437 -30.4846,36.5548 -34.2074,43.1881 -1.29458,2.30655 -0.487276,5.35323 -0.546803,8.17427 16.1082,-2.42192 18.6673,8.06797 25.8296,16.0112 5.57065,6.1784 13.4484,9.77245 39.373,5.82548 2.76803,-0.512504 3.99827,2.97326 1.84536,3.99827 -24.2498,11.3828 -46.6504,7.50104 -53.6108,-4.68709 -9.04451,-15.8372 -30.149,-8.76841 -68.7977,2.53417l0 8.61166z"/>
  <polygon fill="#CCCCCC" points="95.2977,268.424 101.449,268.732 105.755,264.119 107.908,265.964 102.372,269.962 102.987,284.725 113.136,290.876 113.136,294.259 104.832,299.795 110.983,308.407 106.062,313.328 100.219,304.409 101.756,297.642 107.6,294.567 107.908,292.106 101.449,287.493 99.296,291.184 101.756,297.642 100.219,303.794 82.9953,317.326 58.6982,315.788 66.0796,301.948 48.2412,288.723 47.626,274.883 37.169,265.349 42.7051,242.282 50.7016,230.595 43.6278,216.754 56.8528,206.913 64.5418,216.754 67.0023,216.754 67.3098,209.065 69.1552,209.373 69.4627,209.681 69.7703,214.294 71.9232,217.985 80.2273,220.138 83.6105,213.371 85.7634,214.294 82.6878,220.753 85.1483,224.751 90.0692,221.368 91.607,224.443 85.7634,226.904 86.6861,229.364 81.15,249.663 87.3012,261.658 "/>
  <polygon fill="#CCCCCC" points="248.462,74.3545 249.077,66.0504 246.309,64.8202 245.079,67.8958 245.079,77.4301 239.851,75.8923 240.158,72.5091 238.313,68.2033 234.93,68.2033 236.467,76.815 233.699,75.8923 234.007,80.1981 230.624,79.8906 227.548,67.8958 219.859,78.3528 216.784,76.815 221.089,68.8184 221.089,65.7428 214.016,59.2841 230.316,44.5213 230.316,31.2962 225.395,29.7584 226.01,27.2979 231.854,27.6055 236.467,18.9938 241.388,18.3787 237.083,28.8357 237.698,33.4491 251.538,34.3718 255.844,29.1433 276.143,38.3701 281.371,48.8271 307.514,69.126 322.892,62.9748 327.505,66.0504 331.196,61.437 337.962,64.5126 341.653,64.5126 347.804,57.1312 350.264,57.7463 345.343,65.4353 345.651,70.6638 354.878,72.5091 353.955,68.5109 358.261,62.3597 363.182,63.2824 359.799,69.4335 361.336,73.7394 374.254,67.2806 377.022,72.8167 362.874,78.3528 367.18,92.5005 360.721,96.8063 356.108,89.4249 351.802,88.8098 350.572,91.8854 353.955,98.3441 348.419,101.727 340.115,89.4249 304.746,105.11 302.9,103.88 297.979,105.418 295.211,102.65 301.055,101.112 296.441,95.2685 289.368,96.4988 289.06,92.808 295.826,89.7325 301.67,83.5813 297.057,80.8132 282.909,64.5126 281.063,57.4387 269.376,71.2789 266.916,70.6638 267.223,66.0504 "/>
  <polygon fill="black" points="216.476,89.1173 216.168,93.7307 227.548,94.3458 226.01,110.646 231.239,110.646 232.777,96.1912 243.234,96.1912 242.926,92.5005 235.852,91.2703 235.237,80.8132 231.239,80.8132 230.931,90.9627 "/>
  <polygon fill="white" points="215.553,88.1947 215.246,92.808 226.626,93.4232 225.088,109.724 230.316,109.724 231.854,95.2685 242.311,95.2685 242.003,91.5778 234.93,90.3476 234.314,79.8906 230.316,79.8906 230.009,90.04 "/>
  <polygon fill="white" points="211.863,54.9783 213.093,60.8219 226.318,51.5951 228.471,51.5951 228.471,54.9783 233.084,65.1277 238.313,62.6672 237.083,58.669 233.699,52.5178 236.16,49.7498 243.234,47.2893 242.926,44.8288 239.235,44.8288 234.314,47.2893 231.854,44.8288 234.314,39.9079 233.392,37.7549 230.009,37.7549 227.856,44.8288 217.399,39.9079 216.168,42.0608 216.476,46.9817 221.705,51.5951 "/>
  <polygon fill="white" points="252.153,48.212 252.46,51.5951 254.306,51.9027 263.84,44.8288 270.299,55.5934 273.99,53.4405 269.069,43.5986 282.909,34.9869 281.063,30.9886 268.761,36.8323 267.838,23.6072 262.302,26.9904 263.225,37.4474 254.921,30.3735 250.923,34.6794 260.149,41.7532 255.229,47.2893 "/>
  <polygon fill="white" points="276.758,49.1346 289.983,44.8288 285.984,33.4491 291.52,30.6811 295.519,43.5986 306.283,40.2154 306.898,44.8288 297.672,47.5968 300.44,60.8219 293.981,62.0521 292.136,52.8253 289.983,53.0535 284.902,62.5831 281.74,59.7762 287.83,50.6724 276.758,53.1329 "/>
  <polygon fill="white" points="314.895,72.5091 314.895,78.3528 317.663,81.7359 313.05,83.2737 310.897,79.583 310.589,75.8923 307.821,75.8923 304.13,83.5813 300.44,83.8888 297.672,79.8906 305.976,73.1243 295.211,63.5899 298.287,58.669 307.821,67.8958 305.976,53.4405 313.05,53.748 313.357,66.9731 317.663,66.358 322.276,62.9748 324.122,66.9731 319.508,71.2789 "/>
  <polygon fill="white" points="315.51,54.9783 316.125,58.3614 325.66,57.1312 326.582,66.6655 328.428,69.7411 332.426,66.6655 330.581,55.5934 344.113,51.9027 343.806,48.212 334.271,51.5951 333.964,48.8271 339.192,41.7532 333.041,41.1381 327.812,51.2876 320.123,40.2154 316.433,43.291 322.892,52.2102 322.892,54.3631 "/>
  <polygon fill="white" points="199.868,18.3787 198.945,24.2223 210.632,28.5282 210.325,31.6038 206.942,38.3701 210.632,40.523 214.016,39.2927 216.168,31.6038 215.861,29.1433 227.856,31.6038 228.163,25.7601 220.782,25.145 220.474,21.4543 231.239,16.8409 228.471,12.8427 217.706,18.3787 212.785,6.99903 206.942,8.53682 206.634,12.5351 210.94,17.7636 210.325,21.1468 "/>
  <polygon fill="white" points="304.746,105.418 315.203,97.729 317.971,94.961 310.282,91.5778 313.972,86.9644 323.199,92.808 329.35,82.0435 331.811,82.0435 332.118,85.4266 326.275,92.808 326.275,94.6534 337.654,90.9627 337.654,96.1912 330.888,94.961 331.196,98.0366 338.269,101.112 332.733,107.571 325.044,102.035 325.044,110.954 318.586,110.954 319.201,105.11 320.431,99.5743 306.898,108.801 "/>
  <path fill="white" d="M251.23 64.205l0.922678 3.07559c6.47915,-3.30151 4.51758,2.14583 3.99827,5.84362l2.46047 0c2.46047,-8.30467 0,-11.2771 -7.38142,-8.91922z"/>
  <polygon fill="white" points="27.0196,215.217 26.712,219.215 36.5539,218.6 37.4766,221.06 28.8649,229.057 34.401,235.208 41.7824,226.289 48.5487,233.055 52.8545,229.057 45.7807,221.983 55.9301,217.37 52.547,211.526 46.7034,213.986 44.2429,205.682 40.2446,207.835 39.9371,213.986 38.7068,214.909 "/>
  <polygon fill="white" points="28.5574,247.818 28.5574,254.277 39.3219,251.816 39.6295,254.584 35.3237,267.809 35.9388,271.192 40.8597,270.27 39.9371,266.579 43.0127,256.43 51.9319,264.426 56.8528,258.275 47.3185,251.201 60.5435,247.818 58.6982,243.512 46.7034,245.665 47.626,235.823 42.3975,235.516 41.4749,245.973 "/>
  <polygon fill="white" points="39.9371,291.491 42.09,298.565 55.6226,293.952 55.315,295.797 44.858,308.099 51.0092,310.56 59.0057,298.565 67.0023,304.409 69.7703,299.488 59.6208,294.874 59.3133,292.722 73.461,291.184 73.7686,286.878 61.4662,287.185 61.7738,275.498 57.1604,275.498 55.6226,287.801 48.8563,288.416 "/>
  <polygon fill="white" points="45.1656,316.096 45.4731,323.477 57.7755,321.325 51.6243,331.782 57.4679,335.472 58.0831,332.704 63.004,325.938 71.3081,333.012 74.3837,327.476 66.3872,321.632 78.382,319.479 77.1517,314.251 65.1569,315.788 66.0796,306.869 61.7738,305.639 60.8511,314.251 "/>
  <polygon fill="white" points="77.4593,312.098 77.1517,318.557 86.0709,319.172 85.7634,329.321 93.4524,329.321 93.7599,321.017 106.677,322.247 105.755,315.173 94.0675,313.943 93.7599,301.026 89.1465,301.333 87.6087,312.713 "/>
  <polygon fill="white" points="94.6826,322.862 88.5314,327.476 97.4506,337.625 89.4541,345.314 94.0675,349.928 101.141,343.161 106.985,353.618 110.368,349.928 104.832,339.163 114.366,338.548 114.059,333.934 108.523,333.934 106.062,325.63 101.141,326.553 101.141,335.78 "/>
  <polygon fill="#CCCCCC" points="81.7651,182.923 81.7651,185.998 88.5314,197.993 82.6878,198.916 77.7668,190.304 74.6913,190.304 74.6913,199.839 70.0779,201.684 69.7703,192.15 63.004,191.227 62.3889,201.992 56.8528,200.761 56.8528,192.765 53.4697,194.918 53.1621,200.761 37.169,195.225 35.9388,164.777 43.6278,152.475 46.7034,152.782 46.7034,149.707 34.401,114.952 29.7876,112.184 40.8597,96.4988 47.0109,90.6551 49.4714,90.3476 43.6278,79.8906 43.3202,56.2085 27.3271,46.9817 35.3237,43.5986 48.2412,44.2137 60.5435,36.8323 69.4627,33.7567 73.1535,38.0625 99.6035,22.377 146.353,39.2927 184.182,25.7601 194.332,35.2945 200.483,32.834 202.328,37.7549 192.794,41.4457 193.102,47.5968 209.095,57.1312 207.864,60.2068 200.791,58.3614 201.713,70.6638 214.631,64.8202 214.938,68.5109 201.713,75.2772 202.636,88.1947 205.711,90.9627 196.485,92.808 195.254,78.0452 186.643,80.8132 186.028,86.0417 191.871,91.2703 185.72,93.7307 181.107,88.8098 178.954,98.0366 174.648,97.729 173.725,90.6551 170.957,90.3476 171.265,88.5022 168.189,88.5022 167.574,81.1208 165.114,79.8906 143.892,101.112 139.586,100.497 137.433,97.1139 131.282,96.1912 107.6,117.105 111.906,125.717 106.985,128.485 101.449,122.026 95.9128,118.028 94.375,119.873 95.9128,121.719 97.7582,126.947 87.3012,126.64 87.9163,132.791 80.5349,151.552 82.6878,156.473 97.1431,157.703 100.328,169.65 102.064,200.454 90.3768,196.148 84.2256,182.615 "/>
  <polygon fill="white" points="80.5349,67.2806 82.0727,75.5847 78.0744,79.2754 71.6157,78.9679 71.6157,84.5039 80.5349,84.5039 81.4576,87.272 82.3802,96.8063 88.5314,96.1912 86.3785,88.1947 88.839,86.0417 98.9884,86.6569 98.6809,81.4284 88.839,82.0435 95.9128,72.8167 90.3768,69.126 90.0692,75.8923 87.6087,76.815 84.8407,67.5882 "/>
  <polygon fill="white" points="183.875,40.523 180.184,31.9113 177.416,31.6038 165.421,37.4474 159.27,32.834 174.34,27.6055 174.34,27.9131 173.725,25.145 165.729,14.9956 172.495,11.6124 180.492,22.6845 183.567,21.7619 183.567,12.8427 189.718,10.0746 189.411,24.5299 198.638,26.0677 195.87,29.1433 188.796,26.9904 183.26,27.9131 182.952,30.066 186.95,37.4474 186.95,40.2154 "/>
  <line fill="none" stroke="black" stroke-width="0.992126" x1="174.033" y1="25.4526" x2="174.34" y2= "25.4526" />
  <polygon fill="white" points="148.505,41.7532 148.813,50.3649 142.662,50.98 142.354,39.2927 130.052,37.7549 130.052,33.4491 142.047,35.9096 134.358,23.9148 140.509,21.1468 147.275,33.1416 153.426,17.456 158.962,19.3014 153.426,28.8357 154.657,35.602 161.731,36.2172 161.115,41.7532 "/>
  <polygon fill="white" points="88.839,168.775 89.7617,175.849 99.9111,175.234 96.8355,181.078 100.219,185.383 104.832,175.541 113.136,186.306 117.134,182.308 109.138,170.928 114.366,162.009 114.059,159.548 111.906,160.164 106.062,169.39 102.064,161.086 97.1431,160.779 97.1431,165.084 99.9111,168.16 "/>
  <polygon fill="white" points="87.9163,191.535 97.7582,205.067 85.4558,209.681 88.2239,211.218 98.9884,207.22 102.987,217.062 107.908,213.679 104.217,203.529 114.982,198.301 110.983,194.61 100.526,201.069 94.0675,190.304 "/>
  <polygon fill="white" points="37.169,177.387 40.8597,182 38.0917,191.227 40.5522,190.919 48.2412,187.229 51.9319,191.535 42.09,194.61 41.7824,195.84 56.2377,197.993 53.7772,205.067 40.2446,198.608 33.1708,213.064 29.1725,210.911 29.7876,207.22 33.1708,200.761 28.8649,200.454 21.4835,205.067 21.1759,199.224 19.6382,195.225 28.5574,194.61 31.633,194.61 31.9405,192.765 19.9457,187.229 21.4835,184.768 31.0178,189.382 34.0934,189.997 "/>
  <polygon fill="white" points="37.7841,170.928 50.0865,176.464 49.779,170.928 39.9371,165.7 39.9371,163.547 42.7051,156.473 43.3202,152.167 39.3219,150.014 36.2463,162.316 21.7911,161.394 21.4835,167.237 30.7103,168.16 34.0934,169.39 31.0178,179.54 36.2463,182.615 "/>
  <polygon fill="white" points="34.7086,141.71 24.5591,149.399 20.5608,145.093 31.0178,137.097 19.9457,130.023 22.0986,125.102 28.5574,130.023 31.9405,131.253 34.0934,131.253 32.8632,118.335 37.7841,118.028 37.7841,126.332 39.3219,129.408 49.779,127.87 50.0865,133.406 41.1673,134.329 37.4766,136.481 48.2412,143.248 46.7034,150.322 41.7824,148.476 "/>
  <polygon fill="white" points="29.7876,103.88 28.2498,113.415 33.1708,112.492 33.7859,106.648 35.0161,105.11 38.0917,105.11 42.3975,108.494 46.3958,111.262 49.1638,106.956 44.5504,103.265 40.8597,102.342 39.9371,98.9592 49.779,95.5761 47.626,90.3476 39.6295,96.8063 37.4766,85.1191 31.9405,87.5795 33.7859,96.8063 32.2481,98.6517 21.4835,93.1156 19.6382,94.6534 19.6382,99.2668 26.712,103.265 "/>
  <polygon fill="white" points="41.7824,78.3528 29.7876,83.8888 26.4045,78.6603 39.9371,74.9696 38.7068,73.4318 26.0969,70.3562 28.2498,63.2824 41.7824,67.2806 41.4749,58.9765 45.7807,57.1312 45.4731,70.0487 47.3185,70.9713 57.4679,69.126 54.6999,74.0469 50.0865,75.2772 44.5504,75.2772 44.5504,78.0452 47.9336,82.0435 47.3185,84.8115 41.7824,89.4249 "/>
  <polygon fill="white" points="26.712,52.8253 17.1777,64.205 15.0248,60.5143 23.0213,50.3649 10.4114,47.5968 11.3341,41.4457 16.255,42.0608 23.6364,45.7515 24.2515,42.3683 20.8684,33.7567 27.0196,31.6038 30.4027,43.5986 38.0917,38.6776 41.4749,42.3683 33.4783,46.6742 31.3254,47.5968 41.1673,50.98 41.7824,58.0539 "/>
  <polygon fill="white" points="50.3941,40.2154 39.6295,31.9113 44.5504,26.9904 54.3923,35.602 56.8528,33.7567 56.2377,24.8375 63.3116,23.9148 61.4662,35.602 69.1552,32.834 68.8476,36.2172 61.4662,38.6776 61.4662,40.2154 68.5401,44.8288 65.4645,47.5968 59.9284,42.9835 59.6208,46.3666 63.3116,49.7498 63.3116,53.4405 58.3906,54.3631 57.4679,49.7498 57.1604,45.4439 55.0075,43.5986 46.0882,47.9044 42.7051,48.5195 40.8597,43.5986 49.1638,42.9835 "/>
  <polygon fill="white" points="78.0744,38.9852 75.3064,38.0625 75.6139,34.6794 78.0744,28.8357 66.0796,21.1468 69.7703,15.9182 80.8424,23.6072 79.9198,8.53682 87.3012,6.38391 86.9936,21.1468 90.9919,19.609 100.834,14.3804 105.14,21.1468 98.6809,21.7619 88.839,26.9904 94.375,37.1398 90.3768,40.8305 85.1483,28.2206 81.15,30.3735 "/>
  <polygon fill="white" points="130.667,27.9131 130.359,32.834 115.597,31.9113 124.208,40.8305 118.672,43.9061 115.289,42.0608 111.291,34.3718 108.785,37.7459 108.523,48.5195 103.909,48.5195 101.449,46.3666 106.677,33.1416 97.1431,24.5299 98.6809,20.5316 109.753,26.0677 114.366,14.9956 119.287,16.2258 115.904,23.2997 116.827,27.9131 "/>
  <polygon fill="white" points="105.755,94.0383 101.756,98.3441 109.138,102.65 108.215,105.418 103.294,107.263 102.987,110.339 105.733,113.201 112.213,109.416 114.982,110.646 116.827,124.179 123.286,122.334 120.518,110.646 124.823,114.645 130.975,115.26 130.667,109.109 125.439,107.571 123.593,105.418 130.052,99.5743 126.054,95.2685 120.518,99.8819 118.672,99.8819 119.595,89.1173 114.366,89.4249 114.059,100.497 112.213,101.112 "/>
  <polygon fill="black" points="114.366,71.894 120.21,73.1243 122.363,70.6638 120.179,69.3998 120.488,65.1439 124.222,67.0964 128.514,65.1277 125.131,61.7446 119.287,57.7463 118.672,53.1329 114.366,49.7498 110.061,50.0573 110.676,54.9783 114.366,58.669 113.444,64.5126 112.213,64.205 106.062,56.5161 103.909,63.5899 110.061,66.6655 109.445,68.8184 107.293,70.9713 108.215,76.815 110.368,76.815 "/>
  <polygon fill="#0581ED" points="114.366,71.894 120.21,73.1243 122.363,70.6638 115.874,66.6318 118.95,64.5288 124.222,67.0964 128.514,65.1277 125.131,61.7446 119.287,57.7463 112.231,53.2259 110.946,55.6081 114.366,58.669 113.444,64.5126 112.213,64.205 111.598,69.7411 107.293,70.9713 108.215,76.815 110.368,76.815 "/>
  <polygon fill="#0581ED" points="81.15,128.485 78.6895,126.64 77.4593,121.719 69.4627,122.026 64.8494,125.409 65.1569,131.253 67.9249,133.098 79.3046,132.791 "/>
  <polygon fill="black" points="81.15,128.485 78.6895,126.64 77.4593,121.719 69.4627,122.026 64.8494,125.409 65.0441,129.106 "/>
  <polygon fill="#0581ED" points="57.1604,175.541 55.9301,180.155 57.7755,184.153 67.0023,186.921 73.7686,183.846 73.7686,175.849 70.3854,168.775 67.6174,172.466 67.3098,176.464 "/>
  <polygon fill="black" points="57.1604,175.541 55.9301,180.155 57.7755,184.153 60.5435,179.847 68.5401,180.155 69.4225,177.247 73.7686,175.849 70.3854,168.775 67.6174,172.466 67.3098,176.464 "/>
  <polygon fill="white" points="144.815,99.8819 145.122,91.2703 146.353,90.9627 148.198,99.2668 147.583,107.571 "/>
  <polygon fill="white" points="153.426,86.0417 153.426,96.4988 158.347,95.2685 155.887,86.0417 "/>
  <path fill="white" d="M86.3785 144.478l0 2.46047 -5.84362 -0.307559 0 -5.22851 7.38142 0.615118 0 -3.69071c13.8402,1.84536 28.2954,4.30583 40.5978,7.38142 -15.2425,-1.60753 -31.1502,-3.88006 -42.1356,-1.23024z"/>
  <path fill="white" d="M148.813 185.383c-42.3408,19.9913 -21.9393,57.206 -43.981,56.2833 18.9661,-3.07559 9.94423,-37.8298 42.1356,-51.6699l1.84536 -4.61339z"/>
  <path fill="white" d="M151.581 108.801c0.912473,6.76602 1.72063,13.5329 4.30583,20.2989l-0.307559 3.99827c-3.38258,-3.17821 -4.71515,-11.2768 -3.99827,-24.2972z"/>
  <polygon fill="white" points="150.658,102.65 149.736,98.9592 149.736,94.0383 151.889,99.2668 "/>
  <polygon fill="white" points="162.038,87.8871 161.731,93.1156 163.576,93.4232 163.864,88.3707 "/>
  <path fill="white" d="M247.54 123.872c-9.07285,6.50041 -8.62413,12.4512 -52.9002,22.7594 35.1425,-17.7353 41.1029,-1.63956 52.9002,-22.7594z"/>
  <path fill="white" d="M165.114 200.761c11.8049,13.0813 21.1524,30.7066 32.2937,31.371 14.1282,16.7888 25.5617,33.0384 27.3728,47.3641l2.15291 -0.307559 -0.922678 -10.7646 10.7252 1.88419c7.0869,7.36838 20.9401,27.0391 31.4104,40.559l0.922678 15.0704 -6.45874 1.5378c6.81733,0.99893 18.5043,20.016 33.524,51.3624 0.307559,7.27881 0.615118,14.5576 0.922678,21.8367l2.46047 0c-0.922678,-13.8838 -1.84677,-25.5325 -2.76803,-24.6047 1.27587,-2.75811 5.37024,-2.54098 13.225,-1.23024 -4.30583,-5.06977 -10.5605,-2.70652 -14.1477,-4.92095 -7.89421,-13.1227 -15.4806,-28.0905 -23.6821,-39.3676l0.615118 -15.6855 9.53434 1.84536 2.76803 -0.615118 -3.99827 -2.76803 -8.61166 -1.84536c-12.405,-14.7628 -25.7326,-37.2147 -34.4466,-43.3658 -1.33285,-1.43547 -9.73956,-0.102614 -15.9931,-6.15118 -7.07386,-12.3027 -14.5582,-22.555 -22.4518,-30.7559 -5.14914,-26.6114 -15.2306,-34.4347 -24.6047,-43.0583l-1.5378 2.15291c12.998,10.4939 22.072,22.5136 20.2989,38.7525 -8.98895,-4.36762 -18.3818,-23.2756 -28.603,-28.2954z"/>
  <path fill="white" d="M290.598 322.247l-1.23024 2.46047c6.46838,5.5664 10.4,11.5583 12.6099,18.7611l2.46047 0 -1.23024 -5.84362c-2.97326,-2.76803 -8.40671,-10.1495 -12.6099,-15.378z"/>
  <path fill="white" d="M318.586 359.769l-1.5378 0.922678 38.1373 47.0566 4.30583 4.92095 0.307559 -3.07559 -2.76803 -3.07559 1.5378 -0.307559 -2.46047 -0.922678c-11.1747,-15.4806 -25.1175,-31.2687 -37.5222,-45.5188z"/>
  <polygon fill="white" points="209.71,447.424 209.71,450.192 206.327,456.958 204.481,456.958 204.789,454.805 208.172,448.654 "/>
  <path fill="white" d="M241.388 268.732c-0.204945,-1.43518 -1.64013,-2.5628 -3.38315,-2.46047l-1.23024 -11.3797 0 -5.53607c4.92095,9.22678 1.23024,11.9948 4.61339,19.3762z"/>
  <polygon fill="white" points="250.923,83.8888 251.23,88.5022 250,88.8098 249.077,85.7342 "/>
  <path fill="white" d="M145.584 108.018c0.763654,11.6932 -0.871087,23.2095 8.45802,35.5371 -18.146,-5.53607 -44.5961,-8.91922 -66.4328,-11.0721l0.617386 4.79566c24.6042,0.451559 48.6961,2.95399 71.659,9.96719l0.615118 -2.15291c-8.2012,-8.09887 -12.3018,-19.0684 -12.3024,-32.9088l-2.6144 -4.16608zm102.264 -33.9713c-7.58665,19.8105 0.610016,20.1609 -2.42447,34.6649 -2.10132,10.0443 -7.02539,10.9312 -9.57034,17.3126 -16.6082,7.38142 -43.981,10.457 -48.9019,17.5309l5.22851 0c29.9356,-14.9678 43.2632,-4.1006 54.7455,-27.3728 1.76315,-15.306 -1.11458,-21.8095 -1.5378,-27.3728 -0.423213,-5.56328 1.74274,-10.0468 2.46047,-14.7628zm26.7577 11.6872l-15.6855 15.9931 -0.615118 3.07559c10.1492,-11.3794 19.4786,-19.0684 27.9879,-23.0669l-1.23024 -1.84536c-3.89594,1.5378 -7.38199,3.48605 -10.457,5.84362zm5.50488 50.2526c-3.54869,-3.31257 -8.21537,-5.3297 -16.2695,-4.11874l-2.15291 0.307559 0.307559 1.84536c6.35868,0.406772 12.5107,1.12252 17.2233,3.99827l0.891497 -2.03244zm48.5107 22.739c0.754016,-0.325984 1.51002,-0.667276 2.26772,-1.02274 2.15291,-1.02501 0.922678,-4.51077 -1.84536,-3.99827 -14.5826,2.2201 -23.455,2.05427 -29.4188,0.384662 -0.343276,0.999497 0.543685,3.22923 2.66117,3.92117 7.89393,0.717733 16.1977,0.205512 24.9123,-1.5378l1.42299 2.25298zm-82.2677 23.8728l-1.27361 -3.36643 -3.99827 6.15118 0.615118 23.9896 2.76803 2.15291 -0.307559 -22.7594 -2.15291 -1.5378 1.5378 -3.07559 2.8114 -1.55452zm10.1784 4.58249c-0.132378,-1.18432 -0.259087,-2.39839 -0.379843,-3.64309l-6.7663 7.07386 0 2.15291 7.14615 -5.58369zm204.39 20.3326c0.19474,-1.01197 0.51137,-2.03102 0.987591,-3.0617 -4.51106,1.53751 -6.97125,3.69043 -7.38142,5.22851 -0.410173,9.12416 -3.58838,16.403 -4.92095,18.4536l-27.3728 12.3024c-3.99827,-0.205228 -11.0721,-1.33285 -12.6099,0.307559l-11.9948 21.2216 0.307559 11.6872 4.92095 2.15291 2.46047 5.22851c-4.10117,15.3269 -8.20177,28.3473 -12.3024,36.292 -1.67046,6.90548 -9.80986,14.2846 -21.4586,15.3201 -13.9473,1.23959 -20.5472,-2.556 -29.1742,-10.04l6.95934 10.0979c8.58898,4.89175 15.1532,4.65818 23.7396,2.80035 11.0401,-2.38904 22.1732,-0.00850394 34.0815,-53.2401 1.64013,-14.353 -9.32939,-2.56309 -6.15118,-22.7594l9.53434 -17.5309c9.98589,1.33965 16.8069,0.254835 32.0732,-7.32756 15.2158,-7.55745 13.7531,-13.7818 13.7531,-22.5057 0.695622,-2.77314 2.21159,-4.31547 4.54847,-4.62728zm-12.2199 54.2832c3.17537,5.24892 7.831,11.4055 8.08696,17.5972 0.459213,11.105 5.22766,13.4807 7.27342,13.6349 -0.126992,-1.13726 -0.212599,-2.33433 -0.26504,-3.57336 -7.80577,-6.29292 -1.77137,-19.0446 -8.65418,-26.2599m-27.0652 40.9054l13.809 -0.781796 -15.9619 -3.52403c-14.5579,1.02501 -23.5797,22.3492 -35.3693,33.524l12.3024 -8.3041c2.46047,-6.35641 9.84189,-10.5596 14.7628,-18.146m25.2329 20.6975c2.28019,6.71159 5.04085,9.18341 4.24517,17.9447 -2.54211,27.9868 -8.00646,14.5273 -6.10356,38.5552 -1.64041,-15.8907 11.7896,-23.7847 7.07386,-43.0583l-1.5378 -5.84362 0.922678 -3.69071c-0.713481,-2.94293 -2.24702,-4.24573 -4.60035,-3.90728zm-7.70202 58.9604c-1.02529,3.07559 -6.35641,8.3041 -8.61166,9.22678 -5.84362,2.15291 -20.2989,-13.8402 -47.0566,2.76803l5.22851 0c12.5073,-10.6622 29.628,2.97298 42.1356,-0.615118l7.68898 -6.45874 0.615118 -4.92095zm-3.38315 36.5995c0.941953,4.82797 -5.3195,5.54259 -12.6099,4.61339l-6.15118 -3.38315c-13.4439,-0.241512 -21.7191,-2.1189 -26.1102,-4.6012 2.61468,3.99544 1.90347,8.78854 25.8027,7.67679 4.50709,2.0537 9.32287,3.79843 16.3006,3.38315l2.76803 -7.68898zm-45.5188 28.603c7.58637,10.1495 16.7105,4.61339 20.914,15.6855l0.615118 -5.22851c-4.92322,-2.35616 -9.12586,-5.4326 -13.225,-8.61166l-8.3041 -1.84536zm-25.835 -18.4536c2.71644,4.71544 8.86763,9.94394 12.6099,16.3006 0.922678,1.512 0.749197,3.77377 0.129543,6.61238l1.71581 -8.15018c-4.40844,-6.3567 -8.407,-11.4826 -11.9948,-15.378l-2.46047 0.615118zm-37.2841 39.371l0.176032 3.37181c3.48548,3.93647 4.5618,8.18504 4.86057,13.1701 1.77222,-11.2669 -1.78923,-13.6429 -5.0366,-16.5419zm4.68284 -66.4362l1.23024 2.76803c4.35799,6.05424 8.71597,8.41777 13.0742,12.6269 -1.78413,18.7742 -8.50196,33.5126 -19.3071,44.9059l0.127843 2.4548c12.3253,-11.7179 19.819,-27.1517 21.4829,-47.0702m-40.8419 91.2983c-1.02246,-2.03159 -2.06334,-2.55005 -5.81981,-2.99084 -9.23811,-1.08482 -24.9384,0.508819 -26.8642,-3.17707 4.43594,6.05424 20.8667,2.8817 32.684,6.16791zm-50.8133 -41.1973c-3.1303,3.7063 -4.31036,9.03657 -4.2327,14.9026 0.0929764,7.03191 0.990142,11.5829 3.86504,15.7346 -2.54296,-13.2786 -2.52284,-23.9939 3.13824,-29.0682l12.9175 -6.45874c6.04857,-7.17676 17.223,-14.4558 20.6065,-19.0687 -7.07415,2.56252 -18.4541,14.3518 -24.9123,19.0687 -4.25566,0.706678 -7.9475,2.54154 -11.3822,4.88977zm-37.7949 -32.264c-3.2777,0.460914 -8.70605,3.99458 -13.2129,6.29915 -6.6583,22.8577 -18.1426,18.4246 -21.4914,28.6206 -4.58221,13.9499 1.82636,19.2217 2.54948,27.0493l2.28926 2.00466 0 -6.7663c-11.3992,-17.7157 0.232725,-25.2476 5.22851,-31.6786 4.608,-3.65046 9.52923,-3.8554 13.225,-17.5309l10.1495 -5.22851 1.26255 -2.76945zm-118.893 -204.781c7.26463,1.99219 14.9284,-0.972851 16.8664,-11.0392 6.99591,-36.3342 34.4636,-35.7676 33.5418,-48.5915 -0.336473,-4.68 -2.15943,-8.4858 -5.03207,-11.5838l4.99408 2.36608c9.23953,16.8562 -3.41462,18.4538 -15.8564,28.8323 -20.7547,17.3129 -9.73673,51.899 -34.5138,40.0161zm1.06526 15.6331l-12.9175 6.7663 1.5378 3.07559 13.6715 -9.97626 -2.29181 0.134362zm52.5926 69.8159l-8.61166 -7.38142c-2.97298,-11.2774 -2.56252,-22.1448 -0.615118,-32.6013 -12.4943,-6.67985 -19.0415,-12.4138 -23.9508,-25.5643l2.11408 -0.270709c6.09988,13.9433 17.3772,20.8125 20.2989,22.4518 2.92592,0.975686 2.82189,4.25537 3.07559,5.53607 -2.0503,17.3256 -0.102047,30.3457 7.68898,37.8298zm62.4345 -49.8246c-7.38114,-0.769323 -14.7626,-2.10161 -22.1443,-3.69071l4.92095 5.22851 -4.30583 7.07386 0.922678 2.76803c18.8082,1.78753 38.789,14.5369 60.4347,42.5928l6.5007 2.08828 -3.74117 1.55934c10.8901,14.675 22.2012,33.2201 33.9945,56.1768 13.1349,45.4031 -3.0892,69.6235 -54.7455,68.2781l-9.66445 -4.31518c37.1926,3.91805 56.3825,-6.73909 58.3308,-14.1066 1.78413,-6.74646 7.17619,-3.78992 7.73348,-23.2274 -3.3463,-44.5436 -46.5282,-97.0614 -73.1639,-116.862 -14.8907,-11.0693 -22.7169,-7.19944 -28.7547,-10.9542 0.102614,-3.89594 3.89594,-7.48404 3.99827,-9.84189 0,-0.102614 -4.61339,-4.2035 -5.53607,-6.7663l0.307559 -1.84536c5.33112,-0.717733 14.0454,1.94769 16.9158,0.615118 -5.34076,-7.66318 -12.3613,-17.411 -18.4975,-26.7701 -9.04848,-13.8013 -18.237,-21.0141 -22.4079,-29.8208 -1.50973,-0.920977 -3.22554,-1.46495 -5.01591,-1.67017l0.0949607 -1.71298c2.6657,0.408756 5.3314,0.920126 7.99654,2.15291 15.2759,20.247 30.551,41.1611 45.8263,63.0496"/>
  <path fill="white" d="M402.857 313.02c3.44665,-14.6381 9.43342,-35.2035 7.07386,-36.292l0 -3.07559c8.83645,1.16929 -1.70221,33.3329 -7.07386,39.3676z"/>
  <path fill="white" d="M413.621 247.203c-2.66542,5.02356 -4.10117,7.58665 -5.22879,11.38 -1.12734,3.79276 -4.71572,6.04857 -1.53751,11.3794 -6.03893,-3.55918 -0.758268,-9.64347 0.0498898,-14.4244 0.783213,-4.63323 4.21767,-7.66233 6.71641,-8.335z"/>
  <path fill="white" d="M439.764 246.895c-9.43994,-2.67591 -21.2267,-0.826583 -22.1443,-0.307559l0 2.15291c4.61339,-3.69071 14.4553,1.5378 22.1443,-1.84536z"/>
 </g>
</svg>
