<?xml version="1.0" encoding="UTF-8"?>
<!DOCTYPE svg PUBLIC "-//W3C//DTD SVG 1.1//EN" "http://www.w3.org/Graphics/SVG/1.1/DTD/svg11.dtd">
<!-- Creator: CorelDRAW -->
<svg xmlns="http://www.w3.org/2000/svg" xml:space="preserve" width="500px" height="544px" shape-rendering="geometricPrecision" text-rendering="geometricPrecision" image-rendering="optimizeQuality" fill-rule="evenodd" clip-rule="evenodd"
viewBox="0 0 500 544"
 xmlns:xlink="http://www.w3.org/1999/xlink"
 xmlns:svg="http://www.w3.org/2000/svg"
 version="1.0">
 <g id="Layer_x0020_1">
  <metadata id="CorelCorpID_0Corel-Layer"/>
  <path id="path1937" fill="#F00000" stroke="black" stroke-width="0.368504" d="M0.171213 2.06476l499.554 -0.121606c-9.50372,121.172 -11.198,305.358 -13.7548,313.397 -30.6644,303.753 -443.156,305.133 -467.056,-0.285732 -3.96964,-8.93197 -5.45528,-188.965 -18.7424,-312.99z"/>
  <path fill="#8C0000" d="M318.772 180.326l-125.481 2.66854c6.18151,17.7472 18.3439,28.9216 35.5975,32.0389l-9.56693 191.593c-4.54479,25.0937 -35.5031,17.8931 -67.8212,-21.7505 -2.20932,-3.90359 35.9056,-18.4813 36.3646,-33.0591 0.153354,-13.5383 -83.6042,-74.8137 -97.6834,-72.6373 -16.3046,12.9915 -38.8361,117.306 -16.0024,137.118 11.7337,4.02293 29.9906,-1.44227 46.7649,-15.8026 51.2062,82.9222 101.226,89.0499 134.642,123.939 33.416,-34.8888 88.0901,-42.499 139.296,-125.421 20.6289,11.6918 33.5486,20.122 45.2824,16.0991 14.235,-11.8057 -3.55238,-125.609 -21.043,-138.304 -17.6372,-5.73449 -95.1682,63.8431 -95.0148,77.3813 0.458929,14.5777 41.5389,24.7079 39.3296,28.6115 -33.5041,36.9751 -67.131,50.6988 -72.2688,23.8261l-9.56693 -191.593c17.2536,-3.11726 30.9903,-16.9603 37.1719,-34.7074z"/>
  <path fill="#8C0000" d="M122.751 232.554c37.1566,-15.9701 181.959,-14.8663 268.04,-2.07553l0.296504 30.8364c-93.4515,27.9675 -233.593,16.3069 -268.336,-0.889512l0 -27.8714z"/>
  <path fill="#8C0000" d="M408.196 181.486l-301.827 0c-4.06857,-5.18712 -6.34139,-10.3745 3.95603,-15.5614l-10.2013 -42.8644c-5.22964,-5.33877 -7.59685,-14.9703 -7.10192,-28.8947 -14.0865,-6.55314 -14.758,-45.8388 -35.2834,-60.4406 38.9344,-27.3881 81.7991,0.944788 53.4651,22.7588l1.1469 6.36577c8.4464,-2.75613 11.973,-20.2927 22.4178,-24.6022 14.3127,-5.9057 33.6096,4.07509 23.1591,29.1484l10.1633 12.128 -7.62407 5.48022c2.91997,23.7084 -9.29566,34.5016 -20.5005,33.2484 -15.1319,-1.69228 -14.2821,-11.7034 -20.2731,-25.1544 -5.68177,-1.76939 -7.35563,5.43544 -5.4618,10.9219 4.16693,12.0719 25.6037,30.2533 59.62,28.2045 38.8942,-2.34284 61.4277,-15.5775 52.7236,-40.9278 -1.53213,-5.004 -12.8971,-3.02627 -9.41471,1.63587 14.4729,36.0252 -42.9585,37.7082 -32.2418,-2.99991l-12.1796 -8.81802 9.98788 -10.7478c-15.7462,-31.1627 24.3581,-60.9381 34.1918,-11.791 6.34026,11.2473 16.6156,8.00646 10.9724,-3.81997 -29.2691,-17.6542 -13.6426,-51.0486 14.1472,-29.3516 1.28041,-5.45159 3.45884,-10.724 11.9225,-14.7385 8.46369,4.01443 14.5244,8.39736 15.8049,13.849 25.0101,-17.3928 39.4455,14.7294 11.4786,29.168 -5.64322,11.8264 4.6321,14.5307 10.9724,3.28337 11.63,-45.5556 49.4059,-14.5338 32.582,14.474l11.0611 8.60145 -11.643 9.89122c12.5952,42.721 -46.0882,39.3387 -33.315,5.6829 3.48236,-4.66214 -7.34599,-6.63988 -8.87811,-1.63587 -7.09427,22.6673 13.8297,36.9754 52.7236,39.318 34.016,2.0486 55.9905,-17.206 60.1566,-29.2777 1.00573,-2.91402 2.57811,-8.76983 1.03436,-11.1297 -1.36261,-2.08233 -5.61203,-0.917859 -8.27519,-0.0887245 -2.43298,13.1545 -4.43594,24.2958 -19.5673,25.9875 -11.2042,1.25263 -23.957,-8.46681 -18.3541,-32.7118l-8.69726 -8.69982 8.01695 -7.29865c-16.8897,-14.8779 9.91956,-44.7129 25.3055,-31.8314 10.4448,4.30951 10.2152,21.8461 18.6616,24.6022l6.51289 -3.14617c-2.38847,-10.4715 -16.183,-17.638 -6.17414,-28.4173 9.3515,-10.0712 32.984,-11.8103 56.4197,1.90233 -16.7692,12.992 -11.0015,45.8385 -31.5272,57.221 2.99962,15.177 -1.09531,30.1085 -9.54482,33.8369l-7.75843 41.1418c10.2974,5.18684 11.3088,10.9108 7.24026,16.098z"/>
  <path fill="#CCCCCC" d="M315.262 181.82l-124.295 0c6.18151,17.7472 18.3439,28.9216 35.5975,32.0389l-9.56693 191.593c-4.54479,25.0937 -35.5031,17.8931 -67.8212,-21.7505 -2.20932,-3.90359 35.9056,-18.4813 36.3646,-33.0591 0.153354,-13.5383 -83.6042,-74.8137 -97.6834,-72.6373 -16.3046,12.9915 -38.8361,117.306 -16.0024,137.118 11.7337,4.02293 29.9906,-1.44227 46.7649,-15.8026 51.2062,82.9222 101.226,89.0499 134.642,123.939 33.416,-34.8888 88.0901,-42.499 139.296,-125.421 20.6289,11.6918 33.5486,20.122 45.2824,16.0991 14.235,-11.8057 -3.55238,-125.609 -21.043,-138.304 -17.6372,-5.73449 -95.1682,63.8431 -95.0148,77.3813 0.458929,14.5777 41.5389,24.7079 39.3296,28.6115 -33.5041,36.9751 -67.131,50.6988 -72.2688,23.8261l-9.56693 -191.593c17.2536,-3.11726 29.8043,-14.2917 35.9858,-32.0389z"/>
  <path fill="white" d="M120.428 231.379c37.1566,-15.9701 181.959,-14.8663 268.04,-2.07553l0.0513071 5.33651c-10.7657,-2.74337 -22.0008,-4.07679 -33.5563,-4.44699 -5.40822,-6.21411 -28.0032,-4.32085 -40.4087,-2.17531 -44.2956,-3.39477 -81.3856,-2.67137 -116.904,-2.0228 -4.12413,-7.0767 -29.5926,-2.58293 -41.2248,2.86951 -10.321,0.528095 -23.4669,2.85421 -33.1702,4.94873 -1.67471,5.11597 -0.212882,24.353 -2.82671,25.4373l0 -27.8714z"/>
  <path fill="white" d="M420.886 280.362c-1.35468,-2.1291 -2.72296,-3.73833 -4.08926,-4.72989 -17.6372,-5.73449 -95.1682,63.8431 -95.0148,77.3813 0.100347,3.18869 2.14441,6.16507 5.25402,8.90958 -2.8681,-21.0339 74.1824,-82.7635 93.8501,-81.561zm-167.625 242.896c-33.416,-34.8888 -83.4356,-41.0165 -134.642,-123.939 -0.94989,0.805607 -1.90488,1.58003 -2.86299,2.32271 -9.71008,-22.3597 -15.961,-45.0162 -11.6368,-62.3362 3.40441,54.9204 34.4687,89.5394 69.8179,121.134 24.2456,21.6703 34.117,22.4708 75.4691,55.5826 -0.39515,-21.3483 -4.05213,-39.7315 -1.18602,-64.0449 3.75591,23.4638 3.36047,47.5206 5.04057,71.2806zm-160.902 -244.655c-1.87767,-0.551622 -3.40271,-0.768756 -4.50255,-0.598961 -16.3046,12.9915 -38.8361,117.306 -16.0024,137.118 1.09984,0.257953 2.25723,0.454394 3.46592,0.585638 -19.3751,-21.8565 0.537166,-114.455 17.0391,-137.105zm142.518 -96.7839l-5.33707 0 -2.97695 32.0389 -9.56693 191.593c-2.76945,15.2912 -15.3473,18.5907 -32.0641,9.86457 16.2306,15.6226 30.8798,14.4675 36.2378,-5.39263l13.7072 -228.104zm162.781 140.883c-10.4034,22.6063 -17.5453,35.7242 -36.5471,58.9232 -29.3159,32.3532 -58.7262,46.9043 -69.0628,32.0343 20.086,41.5939 98.0587,-41.1509 105.61,-90.9576z"/>
  <path fill="#CCCCCC" d="M120.428 231.379c37.1566,-15.9701 181.959,-14.8663 268.04,-2.07553l0.296504 30.8364c-93.4515,27.9675 -233.593,16.3069 -268.336,-0.889512l0 -27.8714z"/>
  <path fill="#333333" d="M107.382 322.406l1.77902 -1.18602c6.4664,16.8713 20.6065,34.4815 34.1779,54.1231 21.8809,31.6673 47.3823,59.4261 77.6041,48.1709l0.296504 2.66854c-20.9469,15.0435 -44.6859,-4.68 -67.6942,-33.4678 -18.7824,-23.5004 -38.4628,-51.9554 -46.1634,-70.3086z"/>
  <path fill="#333333" d="M252.965 453.164l1.77902 64.0449c17.4416,-15.1611 30.6099,-25.1462 51.2561,-39.2338 12.8058,-8.7378 29.4701,-19.0097 42.8043,-31.8682 14.6563,-14.1336 29.8131,-29.7182 41.0511,-49.8819 10.8924,-19.5435 18.0505,-43.4438 20.8497,-71.1508l-3.21024 6.02759c-5.32403,39.327 -17.9751,65.2751 -33.4253,85.1576 -18.9077,24.332 -42.5033,40.5584 -61.45,53.7979 -10.8408,7.57559 -34.799,24.6762 -50.7595,38.2564 -4.67972,-12.6683 -6.65405,-34.3537 -8.89512,-55.1498z"/>
  <path fill="#333333" d="M126.654 257.175c83.744,19.069 169.372,19.6742 257.069,0 0,0.988158 -1.77902,1.9766 -1.77902,2.96504 -80.3963,18.4638 -162.837,20.5761 -253.511,0.296504l-1.77902 -3.26154z"/>
  <path fill="#CCCCCC" d="M322.05 210.624c10.0542,-1.77902 12.7497,15.8624 12.7497,34.691 0,18.8286 -2.10246,33.2085 -10.6741,33.8015 -8.57169,0.593008 -8.00561,-12.8974 -8.00561,-31.7259 0,-18.8286 -4.12413,-34.9875 5.93008,-36.7665z"/>
  <path fill="#CCCCCC" d="M339.841 215.368c9.49635,-1.1863 13.3427,11.7113 13.3427,30.5399 0,18.8286 -0.619937,30.2434 -13.3427,31.7259 -12.7227,1.48252 -4.68142,-8.75056 -5.04057,-27.5749 -0.35915,-18.8283 -8.23663,-33.0321 5.04057,-34.691z"/>
  <path fill="#CCCCCC" d="M179.136 212.106c10.0542,-1.77902 15.7147,8.7463 15.7147,32.6154 0,23.8691 -0.619937,33.2085 -10.9707,34.3945 -10.3507,1.18602 -8.89512,-12.8974 -8.89512,-31.7259 0,-18.8286 -5.90315,-33.505 4.15106,-35.284z"/>
  <path fill="#CCCCCC" d="M164.014 215.071c9.48133,-1.30054 11.2672,11.7113 11.2672,30.5399 0,18.8286 4.12413,31.7259 -9.48813,30.2434 -13.6123,-1.48252 -7.35081,-12.6057 -7.70911,-26.9819 -0.469418,-18.8249 -6.16082,-32.1426 5.93008,-33.8015z"/>
  <path fill="white" d="M164.014 215.071c2.96277,-0.406205 5.17436,0.584788 6.81449,2.71446 -11.5129,2.01685 -8.59352,6.57893 -8.59352,19.5233 0,12.2085 0.628725,26.3551 -4.19046,23.6376 0.0272126,-3.36558 0.128976,-7.36838 0.0394016,-12.0739 -0.358583,-18.8277 -6.16082,-32.1426 5.93008,-33.8015z"/>
  <path fill="white" d="M179.136 212.106c3.14192,-0.555874 5.85468,0.0898583 8.09972,1.96866 -9.29282,4.43027 -7.80322,7.12092 -8.09972,23.2342 -0.283748,15.4134 0.831402,29.251 -4.18876,25.3202 -0.0901418,-4.47789 0.0377008,-9.64942 0.0377008,-15.2391 0,-18.8286 -5.90315,-33.505 4.15106,-35.284z"/>
  <path fill="white" d="M322.05 210.624c3.14192,-0.555874 5.56526,0.78463 7.41204,3.46507 -11.3545,1.74643 -8.30155,13.8339 -8.30155,26.7783 0,1.48961 1.77109,35.6652 -4.41411,28.5812 -0.750331,-5.57944 -0.626457,-13.2327 -0.626457,-22.0581 0,-18.8283 -4.12413,-34.9875 5.93008,-36.7665z"/>
  <path fill="#333333" d="M328.284 212.646c4.99975,5.09414 6.516,18.5477 6.516,32.669 0,18.8286 -2.10246,33.2085 -10.6741,33.8015 -2.14271,0.148252 -3.71452,-0.583937 -4.86681,-2.05937 17.4144,-7.01915 11.0625,-39.8594 9.02495,-64.4111z"/>
  <path fill="white" d="M339.841 215.368c4.40391,-0.549922 11.0554,6.22007 10.0638,6.38986 -16.4001,-6.36237 -12.289,4.00791 -11.8429,14.6619 0.328536,7.84829 0.570331,30.6964 -3.5212,24.66 0.184819,-3.22469 0.338173,-6.9035 0.259654,-11.0208 -0.35915,-18.8283 -8.23663,-33.0321 5.04057,-34.691z"/>
  <path fill="#333333" d="M170.828 217.786c3.60879,4.68539 2.97014,16.0671 2.97014,29.0115 0,18.8286 -3.88148,26.9819 -6.81959,27.5749 4.48356,-13.0782 5.37704,-45.5018 3.84945,-56.5864z"/>
  <path fill="#333333" d="M186.548 213.548c5.37789,3.75477 8.30211,14.0179 8.30211,31.1737 0,14.1721 -0.218551,23.2223 -2.5628,28.4845 -1.60384,3.60085 -5.09301,3.05632 -9.29736,3.53792 3.26495,-1.68548 7.30148,-2.1566 8.78372,-6.62003 1.14321,-9.41698 0.706111,-43.2063 -5.22567,-56.5762z"/>
  <path fill="#333333" d="M343.102 221.001c0.471685,-0.710646 7.12517,-0.607748 8.89909,9.24067 0.806174,4.47704 1.18205,9.78208 1.18205,15.6657 0,18.8283 -2.99197,30.8364 -12.7497,31.7259 -1.21947,0.111118 -2.21669,0.0575433 -3.02882,-0.157606 9.23103,-5.20611 12.6867,-13.1482 13.2129,-21.333 1.87087,-29.1025 -4.09578,-31.9768 -7.5155,-35.1417z"/>
  <path fill="#333333" d="M385.206 253.32c0.845008,-4.39285 0.55389,-9.13182 -1.77902,-15.1217 -0.00198425,4.74293 0.193323,9.58479 1.77902,15.1217z"/>
  <path fill="#333333" d="M274.313 283.86l2.96504 -2.37203c10.5752,61.2774 -9.38949,132.636 23.1273,150.624 -36.8048,-3.40498 -14.1897,-89.5011 -26.0924,-148.252z"/>
  <path fill="#333333" d="M269.866 182.456c2.47039,12.354 3.75534,24.7082 3.85455,37.063l2.96504 0 -4.15106 -37.063 -2.66854 0z"/>
  <path fill="#333333" d="M274.906 182.159l3.26154 31.4294c16.3086,-5.5338 29.1575,-15.8128 34.3945,-31.7259l-2.37203 0.296504c-5.46066,13.8861 -15.4925,22.7809 -30.2434,29.0574l-2.96504 -29.3539 -2.07553 0.296504z"/>
  <path fill="#333333" d="M211.751 203.508c3.65669,4.15106 8.89456,7.1161 15.7147,8.89512l-0.296504 -3.55805c-3.15581,1.19707 -9.08901,-1.77279 -15.4182,-5.33707z"/>
  <path fill="#333333" d="M223.315 276.151l-0.296504 2.37203c21.0268,1.58117 40.6454,1.87739 59.3008,0.296504l0.296504 -2.37203c-24.5617,1.61773 -44.2307,1.24668 -59.3008,-0.296504z"/>
  <path fill="#BF9F4F" d="M405.872 180.31l-301.827 0c-4.06857,-5.18712 -6.34139,-10.3745 3.95603,-15.5614l-10.2013 -42.8644c-5.22964,-5.33877 -7.59685,-14.9703 -7.10192,-28.8947 -14.0865,-6.55314 -14.758,-45.8388 -35.2834,-60.4406 38.9344,-27.3881 81.7991,0.944788 53.4651,22.7588l1.1469 6.36577c8.4464,-2.75613 11.973,-20.2927 22.4178,-24.6022 14.3127,-5.9057 33.6096,4.07509 23.1591,29.1484l10.1633 12.128 -7.62407 5.48022c2.91997,23.7084 -9.29566,34.5016 -20.5005,33.2484 -15.1319,-1.69228 -14.2821,-11.7034 -20.2731,-25.1544 -5.68177,-1.76939 -7.35563,5.43544 -5.4618,10.9219 4.16693,12.0719 25.6037,30.2533 59.62,28.2045 38.8942,-2.34284 61.4277,-15.5775 52.7236,-40.9278 -1.53213,-5.004 -12.8971,-3.02627 -9.41471,1.63587 14.4729,36.0252 -42.9585,37.7082 -32.2418,-2.99991l-12.1796 -8.81802 9.98788 -10.7478c-15.7462,-31.1627 24.3581,-60.9381 34.1918,-11.791 6.34026,11.2473 16.6156,8.00646 10.9724,-3.81997 -29.2691,-17.6542 -13.6426,-51.0486 14.1472,-29.3516 1.28041,-5.45159 3.45884,-10.724 11.9225,-14.7385 8.46369,4.01443 14.5244,8.39736 15.8049,13.849 25.0101,-17.3928 39.4455,14.7294 11.4786,29.168 -5.64322,11.8264 4.6321,14.5307 10.9724,3.28337 11.63,-45.5556 49.4059,-14.5338 32.582,14.474l11.0611 8.60145 -11.643 9.89122c12.5952,42.721 -46.0882,39.3387 -33.315,5.6829 3.48236,-4.66214 -7.34599,-6.63988 -8.87811,-1.63587 -7.09427,22.6673 13.8297,36.9754 52.7236,39.318 34.016,2.0486 55.9905,-17.206 60.1566,-29.2777 1.00573,-2.91402 2.57811,-8.76983 1.03436,-11.1297 -1.36261,-2.08233 -5.61203,-0.917859 -8.27519,-0.0887245 -2.43298,13.1545 -4.43594,24.2958 -19.5673,25.9875 -11.2042,1.25263 -23.957,-8.46681 -18.3541,-32.7118l-8.69726 -8.69982 8.01695 -7.29865c-16.8897,-14.8779 9.91956,-44.7129 25.3055,-31.8314 10.4448,4.30951 10.2152,21.8461 18.6616,24.6022l6.51289 -3.14617c-2.38847,-10.4715 -16.183,-17.638 -6.17414,-28.4173 9.3515,-10.0712 32.984,-11.8103 56.4197,1.90233 -16.7692,12.992 -11.0015,45.8385 -31.5272,57.221 2.99962,15.177 -1.09531,30.1085 -9.54482,33.8369l-7.75843 41.1418c10.2974,5.18684 11.3088,10.9108 7.24026,16.098z"/>
  <path fill="#644D36" d="M135.168 148.046c53.898,21.8923 109.246,-4.88438 115.494,-35.4949 2.26488,-11.0971 4.31462,-25.9608 -10.3204,-35.3361 9.12189,-7.69096 11.8049,-16.8131 8.04898,-27.3665l-2.68299 3.21959c1.96866,9.48076 -1.96668,16.9929 -8.58558,23.6103 -12.3415,-4.11506 -26.6511,-1.25263 -41.8547,3.21959 37.3521,-7.54583 59.029,0.541701 53.6689,27.2812 -6.03411,30.1034 -42.2104,56.9982 -113.768,40.8668z"/>
  <path fill="#644D36" d="M105.951 81.5639l3.99629 1.55339c8.3503,-7.50274 42.2172,3.69014 41.3181,-3.69978 -14.9063,3.38485 -31.112,-6.27648 -45.3144,2.14639z"/>
  <path fill="#644D36" d="M319.382 79.2723c-15.2206,13.837 -33.1098,-2.2731 -50.1092,3.26154 10.8519,-9.64545 32.6415,8.11786 50.1092,-3.26154z"/>
  <path fill="#644D36" d="M394.694 76.9003c-10.279,-2.17417 -21.7437,5.73251 -31.7259,2.37203 12.6507,0.691937 23.226,-7.21474 31.7259,-2.37203z"/>
  <path fill="#644D36" d="M276.092 140.352c41.7325,18.4836 84.3798,18.7798 129.276,-13.3427l-0.889512 5.33707c-48.6766,29.5523 -90.7801,29.0577 -128.386,8.00561z"/>
  <path fill="#644D36" d="M405.368 74.8248l0 3.55805c7.74993,6.48681 9.86797,14.7438 11.2672,22.8308 1.00687,-8.2012 0.426047,-16.6011 -11.2672,-26.3889z"/>
  <path fill="white" d="M272.534 136.498l-2.07553 0.296504c-22.5343,-17.691 -22.5343,-46.6495 -3.55805,-59.3008 -6.96841,-3.11244 -10.1307,-8.9436 -11.5637,-16.0112l3.85455 0.593008c7.67197,16.5671 8.8784,11.4489 19.2209,13.5763 11.7218,2.41115 22.1012,6.09506 36.5219,5.1035 -11.7473,7.25811 -29.7102,-4.02378 -41.6206,-1.23874 -15.8083,3.69666 -26.9368,33.1084 -0.779528,56.9815z"/>
  <path fill="white" d="M199.001 74.5283l0.889512 3.85455c9.19134,-3.36076 18.8768,-4.94192 29.6504,-3.55805l0 -1.18602c-5.28662,-4.15191 -16.5543,-2.86696 -30.5399,0.889512z"/>
  <path fill="white" d="M398.845 76.3073c-8.62356,-8.89484 -31.307,5.63301 -42.9931,-4.44756 8.99377,15.7147 26.5864,-1.18602 42.9931,4.44756z"/>
  <path fill="white" d="M118.036 39.6975c-0.699307,-16.4234 -32.8125,-28.1169 -62.6216,-7.14813 1.28268,0.912473 2.48825,1.92161 3.6241,3.01323 21.1241,-13.3974 43.4098,-14.9839 58.9975,4.1349zm39.9184 8.20319c-2.91827,-11.2796 -15.4466,-14.9811 -25.5101,-10.8289 -10.4448,4.30951 -13.9714,21.8461 -22.4178,24.6022l-1.1469 -6.36577 -2.09112 0.836788c1.6818,23.258 19.3076,-7.95402 24.2666,-12.8611 5.69906,-5.63925 21.7551,-1.84422 26.8994,4.61679zm-2.35106 18.3195l10.1633 12.128 -1.48365 1.06668 -8.67969 -13.1947zm-31.5255 42.6892c-1.97263,-3.57166 -3.19096,-8.11361 -5.18514,-13.2985 4.50624,5.78722 4.70353,6.40318 5.18514,13.2985zm100.898 -16.4472c6.55455,23.8255 -15.77,36.3172 -53.4487,38.5866 -34.0163,2.04888 -55.4531,-16.1325 -59.62,-28.2045 10.8933,55.4329 149.024,36.1834 113.069,-10.3822zm-69.5608 58.8606l-0.296504 -2.66854c-19.7025,-3.02032 -33.2181,-11.5435 -43.143,-19.7272 -10.5656,-8.71229 -17.2018,-12.1978 -16.9175,-25.0727 0.186803,-8.45745 2.86328,-19.3326 15.9829,-24.8831 9.97399,-4.21966 32.2983,3.57676 39.9266,-0.588473l-3.26154 -2.07553c-12.4316,4.74066 -21.5255,-4.67008 -32.2305,-3.04923 -11.3961,1.72517 -16.2984,13.8203 -18.4048,10.5798 -3.25332,1.28721 -4.86227,4.06715 -5.40397,6.10866 -13.3203,-13.5765 -18.042,-41.9783 -23.9496,-42.5089 9.42067,17.4923 12.4574,40.6571 22.9808,45.5525 -0.494929,13.9244 1.87228,23.5559 7.10192,28.8947l10.2013 42.8644c-5.14857,2.59342 -7.15493,5.18684 -7.36526,7.78082l305.885 -2.31222c-1.0114,-1.4023 -2.53616,-2.79553 -4.64429,-4.16126l-293.012 2.16709c2.22378,-8.54901 -4.89232,-23.4731 -6.22659,-40.3246 2.39868,2.34 4.8651,4.46429 7.39333,6.39156m333.891 -98.8886c1.05846,-1.23789 2.23115,-2.3743 3.54104,-3.3891 -23.4357,-13.7126 -47.0682,-11.9735 -56.4197,-1.90233 -10.0089,10.7793 3.78567,17.9459 6.17414,28.4173l-6.51289 3.14617c3.25729,5.42155 11.4069,-1.16561 9.47537,-4.63947 -2.78674,-6.0137 -7.43188,-11.0256 -7.92681,-16.217 -1.17241,-12.2978 10.527,-20.1507 51.6688,-5.41559zm-91.8718 77.4672c-5.33197,-15.9038 0.0742678,-18.4983 -0.645166,-27.3702l-7.1161 -7.70911 3.85455 -7.70911c-11.3573,-29.6362 15.2379,-40.2965 32.6415,-23.0854 -2.01742,-4.23893 -4.49887,-8.17285 -8.74205,-9.92353 -15.3859,-12.8815 -42.1951,16.9535 -25.3055,31.8314l-8.01695 7.29865 8.69726 8.69982c-3.19521,13.8271 -0.420378,22.93 4.63238,27.9675m3.13058 23.0839c28.2787,-6.50211 49.2429,-27.3251 38.4336,-44.2384 1.76287,2.35219 0.0303307,8.04416 -1.03436,11.1297 -4.16636,12.0713 -26.1405,31.3263 -60.1566,29.2777 -30.3857,-1.83005 -49.8036,-10.9636 -53.462,-25.6802 2.13619,29.2105 43.4495,37.0463 76.2194,29.5112m-66.6029 -41.5131c-3.39279,8.93963 -1.74387,15.7439 2.27169,20.1149 -1.12422,-5.5664 -1.13698,-12.1717 -2.27169,-20.1149zm43.185 -14.0675l1.77307 -1.50661 -11.0611 -8.60145 -1.31329 1.29884 10.6013 8.80923zm-31.3977 -37.4423c6.84114,-7.36895 19.9741,-7.89733 26.1927,15.1957 2.63339,-24.0795 -26.6706,-41.4848 -36.665,-2.33547 -4.35884,7.73235 -10.5778,8.87046 -12.2049,4.98416 0.483591,7.88344 9.17008,6.62769 13.4649,1.51795 3.88035,-4.61707 5.27726,-15.1237 9.21232,-19.3623m-32.2778 -13.4705c-2.96447,-8.49969 -7.9064,-13.8368 -14.8252,-16.0112 -5.33707,3.65698 -8.89512,9.09298 -13.3427,13.6392 -14.2356,-11.1458 -27.4312,-4.49745 -27.5423,4.11109 -0.160724,12.4529 15.037,19.1381 17.1646,24.0568 3.65755,10.1804 -7.41232,15.0233 -15.4182,4.74407 -12.604,-48.4384 -45.3181,-16.3154 -29.3539,7.70911l-8.89512 11.5637 9.19163 9.48813c-3.93818,11.1861 -1.16646,20.8443 8.31629,28.9758 -8.50876,-3.2692 -15.0574,-12.7596 -10.7875,-28.9792l-12.1796 -8.81802 9.98788 -10.7478c-15.7462,-31.1627 24.3581,-60.9381 34.1918,-11.791 6.34026,11.2473 16.6156,8.00646 10.9724,-3.81997 -29.2691,-17.6542 -13.6426,-51.0486 14.1472,-29.3516 1.28041,-5.45159 3.45884,-10.724 11.9225,-14.7385 8.46369,4.01443 14.5244,8.39736 15.8049,13.849 15.0664,-10.906 26.2417,-3.36359 26.4524,7.65071 -5.04312,-11.5322 -17.4013,-9.47226 -25.8069,-1.23364"/>
 </g>
</svg>
