<?xml version="1.0" encoding="UTF-8" standalone="no"?>
<!-- Creator: CorelDRAW -->

<svg
   xmlns:dc="http://purl.org/dc/elements/1.1/"
   xmlns:cc="http://creativecommons.org/ns#"
   xmlns:rdf="http://www.w3.org/1999/02/22-rdf-syntax-ns#"
   xmlns:svg="http://www.w3.org/2000/svg"
   xmlns="http://www.w3.org/2000/svg"
   xmlns:sodipodi="http://sodipodi.sourceforge.net/DTD/sodipodi-0.dtd"
   xmlns:inkscape="http://www.inkscape.org/namespaces/inkscape"
   xml:space="preserve"
   width="500"
   height="570"
   style="fill-rule:evenodd"
   viewBox="0 0 500 569.00175"
   version="1.0"
   id="svg2"
   inkscape:version="0.48.0 r9654"
   sodipodi:docname="Nokia.vaakuna.svg"><metadata
   id="metadata208"><rdf:RDF><cc:Work
       rdf:about=""><dc:format>image/svg+xml</dc:format><dc:type
         rdf:resource="http://purl.org/dc/dcmitype/StillImage" /></cc:Work></rdf:RDF></metadata><sodipodi:namedview
   pagecolor="#ffffff"
   bordercolor="#666666"
   borderopacity="1"
   objecttolerance="10"
   gridtolerance="10"
   guidetolerance="10"
   inkscape:pageopacity="0"
   inkscape:pageshadow="2"
   inkscape:window-width="1280"
   inkscape:window-height="738"
   id="namedview206"
   showgrid="false"
   fit-margin-top="0"
   fit-margin-left="0"
   fit-margin-right="0"
   fit-margin-bottom="0"
   inkscape:zoom="1"
   inkscape:cx="193.80755"
   inkscape:cy="372.24188"
   inkscape:window-x="-8"
   inkscape:window-y="-8"
   inkscape:window-maximized="1"
   inkscape:current-layer="Layer_x0020_1" />
 <defs
   id="defs4">
  <style
   type="text/css"
   id="style6">
   
    .str1 {stroke:#1F1A17;stroke-width:0.216}
    .str2 {stroke:white;stroke-width:0.216}
    .str0 {stroke:#1F1A17;stroke-width:1.98425}
    .fil6 {fill:none}
    .fil4 {fill:#1F1A17}
    .fil3 {fill:#540000}
    .fil0 {fill:#BF9F4F}
    .fil2 {fill:#F00000}
    .fil5 {fill:#004E90}
    .fil1 {fill:white}
   
  </style>
 </defs>
 <g
   id="Layer_x0020_1"
   transform="translate(-0.19215503,-0.17243409)">
  <metadata
   id="CorelCorpID_0Corel-Layer" />
  <path
   id="path1937"
   class="fil0 str0"
   d="m 1.18488,1.37452 497.773,0.040819 -15.3216,294.069001 c -9.24208,142.87 -116.272,224.787 -231.732,273.196 -119.834,-42.2107 -220.121,-123.25 -232.292,-269.259 L 1.18428,1.3753389 z"
   inkscape:connector-curvature="0"
   style="fill:#bf9f4f;stroke:#1f1a17;stroke-width:1.98424995" />
  <path
   class="fil1"
   d="m 233.375,155.833 c 26.8467,3.52715 61.6326,-14.6917 78.4696,8.51018 -0.17376,0.87902 -0.19757,3.28932 -0.19757,4.15021 4.26473,5.28832 1.81077,13.0207 3.50362,22.1403 l -0.80845,3.35452 -30.7786,-18.733 c -1.12791,1.55027 -0.17149,-1.66394 -3.384,4.65081 -8.22813,-1.23874 -15.8607,-2.4772 -24.685,-1.92926 1.36828,2.37118 3.92712,3.84888 4.9972,6.22035 -1.87994,2.2714 -15.9693,1.56501 -22.614,4.13462 2.27651,4.53912 6.63761,4.90961 9.50939,8.25789 -5.59418,4.26813 -16.5487,3.77206 -23.9298,11.9115 2.58605,2.27452 6.06558,3.06029 7.75786,5.93065 -0.98815,3.91266 -11.505,4.84725 -16.0668,10.8442 2.49988,2.05115 5.89295,2.0177 8.09519,4.36649 -7.06111,4.43877 -12.6335,9.77075 -17.9082,14.8051 3.69723,2.61156 6.20334,0.45893 9.30473,1.58202 -2.12117,10.6002 1.41506,23.8802 11.5019,28.2274 l 0.29566,3.28422 c -7.14955,0.9377 -18.2988,-4.43622 -24.3224,-13.7829 -4.99125,-7.74426 -7.44662,-20.1189 -12.7806,-21.8591 -1.20529,2.39329 -1.51739,5.08422 -3.61616,7.17988 1.73849,5.65852 2.8783,10.3201 -0.16696,8.00731 l -0.75912,2.39102 c 4.48214,6.05764 3.20712,8.54249 -2.93188,5.66788 3.7423,3.67767 3.91096,7.35563 0.50598,11.0333 5.38583,5.44762 8.38942,11.4911 12.5838,17.2364 l 3.48633,-0.63666 c -1.01764,-8.14734 9.0669,-5.07572 2.87065,4.61396 l 2.2663,2.25071 c 2.69291,0.34072 5.98139,-1.10551 8.07846,1.02217 0.73843,2.23682 -2.98942,2.98488 -3.14419,4.92435 1.41194,3.70914 5.80196,1.46268 8.70265,3.0875 -0.33052,1.38926 -1.85187,2.7788 -0.99099,4.16835 6.63903,2.6881 12.9804,-0.57912 18.4283,1.21578 0.39062,1.95591 -4.2806,3.9121 -3.29443,6.76177 8.62186,1.05987 10.097,-2.3468 16.0384,-1.28665 0.40195,2.62006 -3.06766,5.24013 -1.47515,10.5404 18.1446,-3.08041 33.7283,-12.1062 35.1933,-16.4421 2.00325,-5.92923 -0.57316,-14.9261 -3.27203,-23.0457 13.0314,-1.50123 7.00498,-12.2335 10.5075,-17.0099 2.25213,1.55565 0.9309,5.49355 1.39606,8.2406 6.81676,2.5594 10.3575,-12.1524 14.1962,-18.2285 -0.2503,4.97736 0.96577,9.77386 1.15654,15.3893 l 2.81764,-1.41959 c 0.41301,10.6271 1.97745,19.5285 6.07351,24.6325 2.36183,-2.68441 4.03342,-6.05934 5.70501,-8.74404 1.224,8.47871 2.62148,17.6488 6.6087,26.1289 3.0651,-2.96504 2.56365,-8.80611 5.7447,-11.31 1.56473,10.2937 5.08592,20.3582 14.7067,28.8108 2.4806,-1.88476 1.04712,-5.4944 2.60419,-6.68835 2.76435,4.23695 4.49292,8.12863 8.29276,12.7106 2.68129,-1.53723 3.98211,-4.45493 5.97317,-6.68211 10.9366,8.56942 12.3999,17.6794 11.9874,26.4694 -0.60293,12.8475 -7.56766,23.8368 -14.2481,21.7491 -5.95304,-1.85981 -12.0515,-2.232 -14.4961,1.56104 3.16205,1.62652 1.47345,4.98841 -0.9085,9.38778 4.82996,0.69959 7.81937,4.16041 8.96797,10.3825 4.75625,-1.56784 6.75156,0.0856 5.98564,4.96092 2.07156,-0.65452 3.22384,0.30047 3.45657,2.86498 2.13336,-4.56463 4.49688,-3.72047 8.47191,1.84054 6.93893,-3.08466 10.0809,-8.2406 25.304,-12.0155 3.42539,-5.90117 7.69437,3.2709 8.24174,7.42763 l 1.82891,3.39591 c 3.63345,-4.57144 3.1252,-10.5236 4.68822,-15.7853 2.27225,0.85351 4.54451,2.39726 6.81676,2.56054 0.629,-6.40375 -5.99046,-10.7365 -2.25468,-22.318 2.51915,1.04428 4.69276,2.77909 7.55717,3.13314 0.0686,-15.7354 -8.14621,-12.8313 -7.04183,-26.4954 2.62517,0.81864 5.25062,2.32753 7.87635,2.45565 1.88561,-5.21972 -2.8681,-17.4169 -4.65364,-26.8433 -1.35156,-7.13594 -9.98788,-7.1966 -16.0251,-10.9976 -5.3263,-3.35339 -6.90747,-9.65509 -10.0301,-11.3902 l 0.54907,-3.71339 8.85799,3.33383 c 0.44957,-4.30413 -0.48161,-7.91802 -0.72227,-11.8769 1.75578,-0.18567 3.51184,0.31918 5.26791,-0.55644 -0.44816,-6.56107 -2.27736,-14.1576 -0.99921,-20.0285 l 5.70926,3.86731 c 1.22797,-15.783 -6.51855,-22.9368 -5.63528,-31.8166 5.77162,7.16372 12.4639,13.4073 20.0772,18.7305 l 4.28457,-2.87972 c 2.43156,1.43348 4.51786,3.55748 7.29496,4.30101 2.15405,-0.26589 2.92706,-2.60277 4.39058,-3.90388 3.17367,-0.54596 5.88728,-2.01203 8.14111,-4.39824 l 10.7087,-5.52444 c -0.46772,-1.96554 -1.28098,-2.89531 -2.43921,-4.86057 2.40123,-3.32476 4.68737,-6.64923 6.16536,-9.97342 l -0.87534,-3.45855 c 4.02605,-5.28775 8.05267,-11.0353 12.0796,-17.2429 l -2.70567,-2.08687 c -0.97569,-5.7515 4.60658,-8.39622 4.32142,-12.0762 l -1.72828,-6.20334 c 2.60221,-5.23928 3.76583,-10.1906 1.76542,-14.5086 l -2.33405,1.38954 c -1.89128,-6.67559 3.12123,-11.2799 0.54,-21.0617 l -3.3154,-0.005 c -0.0167,-8.73808 5.48929,-17.1309 -0.0499,-26.214 -1.35128,1.14973 -1.66677,2.9897 -4.05326,3.44948 0.0536,-11.5007 -2.42334,-19.7793 -6.3961,-24.836 -1.6543,2.75584 -2.49874,5.51311 -3.22781,8.26952 -4.95326,-3.57931 1.13896,-13.0266 -11.7527,-27.305899 -1.69427,2.770869 -2.92819,5.542299 -3.70177,8.314299 -2.5441,-7.609039 -3.70772,-15.908299 -7.632,-22.826599 -1.88022,2.22662 -3.06964,5.48873 -5.63953,6.68013 -2.04066,-5.54429 -0.62901,-16.2661 -4.04986,-21.8103 -1.98113,2.15462 -3.50164,4.76901 -4.56151,7.84404 -0.71887,-4.92548 -0.28687,-10.6563 3.36728,-16.1572 l 5.18854,2.02592 3.48236,-3.37408 c 3.42114,2.06277 8.22303,7.23232 14.4057,10.3309 l 0.60945,-4.48073 c 3.23603,-0.123591 6.81733,3.20485 9.70838,3.77178 l 2.06844,-4.82117 c 4.6304,1.22513 8.57027,2.10501 12.8557,0.56863 0.324,-4.46996 -3.49399,-8.24939 -4.89544,-11.6838 -0.4527,-2.95994 2.20167,-5.05729 1.40428,-6.98145 -2.94038,-2.36523 -4.84555,-3.17594 -7.6133,-5.5406 l 0.66104,-6.16819 c -2.64217,-1.09559 -5.45641,-0.983906 -7.92596,-3.28621 -0.62107,-2.45395 0.48245,-3.87269 0.72368,-5.80904 -4.26529,-1.94995 -10.4272,-3.3823 -14.8646,-5.84929 -0.28885,-2.27452 0.97427,-3.85881 0.6857,-5.78835 -4.26019,-0.05358 -8.69273,-0.451843 -12.7803,-0.160441 l 0.34215,-4.2536698 c -3.65556,-0.495496 -9.30303,1.00545 -14.8334,2.3879098 -1.89723,-0.142299 -1.20813,-3.0432798 -2.07071,-3.5299898 -4.6029,0.920977 -10.0678,1.32491 -15.0157,2.59115 -0.45978,-1.67953 -1.14917,-2.89899 -2.06816,-3.65896 -6.156,1.21833 -11.4494,4.1609798 -17.0878,5.8966298 l -1.04315,-3.0205998 c -3.24907,1.8782398 -6.46923,6.1143298 -8.97024,7.7059898 -2.1257,0.856914 -1.14718,-4.14907 -2.75499,-3.63657 -4.19953,1.86803 -8.74347,13.9102 -11.0458,13.3639 -1.54913,-0.175465 -1.5463,-3.10989 -3.09515,-4.14737 -3.22073,5.62422 -2.13052,12.8001 -4.48866,16.8727 -3.98268,0.950457 -5.89578,-3.44466 -7.29128,-2.8389 -3.73578,3.46762 6.32381,11.7635 3.79531,18.6803 -1.31698,0.372473 -2.97865,-0.634111 -4.46797,-0.951024 -1.79178,6.47774 7.79755,15.3695 11.6966,23.0548 1.06072,1.50095 -2.18891,0.932315 -3.02485,1.91594 0.28403,3.29641 8.99065,9.59755 11.2793,13.2936 0.39713,1.09786 0.44957,3.40299 -0.18766,5.19109 2.7051,2.876324 7.13452,5.580004 9.66756,8.628954 -0.68938,1.20302 -1.37934,2.33717 -2.06816,3.7131 -0.2296,0.45893 -0.45921,0.9445 -0.68853,1.46835 8.1326,4.54479 22.301,15.643 29.0543,23.982 -1.10778,2.35899 -4.97424,-0.62759 -5.90939,2.93896 2.4188,3.09572 7.07953,6.19172 10.1886,9.28744 -1.05959,1.28551 -2.9812,1.01906 -3.35084,2.82189 3.3086,3.70488 8.14989,7.40948 12.6176,11.1141 1.06044,2.00778 -3.88772,1.77421 -3.79616,2.74734 3.45572,3.70375 11.6938,6.76432 15.4823,12.206 2.00296,2.29663 -3.50476,1.93436 -2.49732,4.00564 20.7763,9.78407 21.7069,40.3399 4.94759,42.4148 -18.2548,2.26035 -31.5371,-33.9457 -38.5331,-61.7845 -10.0891,-40.1454 -30.8449,-58.2991 -32.1713,-60.128 -11.9514,-16.478404 -10.6302,-9.485864 -19.1891,-17.235804 -19.2076,-17.3923 -23.6758,-13.3234 -30.9447,-18.8751 -6.89641,-5.26706 -14.8071,-7.92454 -25.9818,-8.68763 0.29452,-2.1994 2.14073,-3.8812 0.88299,-6.59764 -5.99386,0.187654 -13.712,3.47953 -17.6366,1.94343 -1.46665,-2.39839 1.03295,-3.93392 1.2909,-5.64208 -5.80791,0.04706 -15.2374,0.611433 -18.1134,1.34844 -2.86044,-2.25836 -1.23732,-3.48208 -1.85584,-5.22312 -3.57364,0.162992 -7.66432,2.05058 -10.7204,0.48926 -1.77647,-1.81134 0.41301,-3.79531 -1.19112,-5.95134 -3.95036,2.38422 -12.3843,3.90614 -19.7836,5.77304 l -3.23292,-3.7766 c -0.55247,1.70844 -4.0938,3.41688 -10.624,5.12533 l -0.0899,-2.99906 c -12.604,11.3423 -31.2137,1.99644 -40.7432,-1.76343 4.19188,-11.9222 -6.59112,-21.6666 -21.6584,-14.2566 l -2.01799,-1.68321 c -10.2835,-2.78674 -17.2545,0.681166 -28.0868,-0.02551 -11.0018,-0.717733 -22.9397,0.793134 -30.2171,7.00186 -9.82659,8.38319 -16.9807,13.335 -22.7308,12.712 2.81821,-1.58117 5.29144,-3.85257 8.10964,-5.08876 l -0.415843,-0.928063 c -4.14851,2.39613 -7.95147,4.10258 -11.9271,6.84369 l -1.97773,-0.488977 15.4848,-10.9312 0.437953,-1.63049 c -8.4498,5.57972 -22.4178,15.6433 -25.3491,16.74 -6.17301,2.78334 0.414992,4.70438 -0.412158,8.86734 -1.99559,4.73783 2.90665,4.99266 4.36025,7.48914 1.84904,-2.66599 4.15843,-4.41156 6.92731,-5.23729 l 1.71298,3.96907 c 25.7139,7.2017 53.421198,11.0908 47.2349,23.0125 -26.1459,-5.06807 -32.5083,14.963 -42.8678,7.1229 -9.20325,9.909354 13.6678,13.955794 27.2274,5.24126 10.385,3.259554 22.719698,5.579714 35.406698,7.002144 3.9464,7.79528 14.2163,13.1046 24.2566,13.4283 l 22.6228,20.1827 c -1.64636,1.02586 -0.73701,1.51795 -1.74217,3.40186 -10.5565,0.16753 -30.678,8.64993 -38.3465,3.36217 -12.7962,-8.82397 -3.7681,-11.7706 -9.96435,-16.3755 -1.6954,-0.12302 -3.07446,0.38552 -4.40816,0.98504 0.4388,4.14737 0.0692,5.59928 -3.5348,4.35657 0.16243,3.17509 -0.93203,4.73358 -3.28479,4.67547 -0.32003,2.76265 -1.596468,2.65125 -2.682708,3.11471 0.451276,1.54261 0.183969,2.90608 -0.801355,4.08983 2.00863,1.92473 0.8623,3.53395 -0.735307,5.09811 l 0.717449,2.44545 c 3.855971,1.78611 5.382711,3.49966 5.825201,9.01474 l 2.20536,1.77052 c 2.89729,0.46857 6.98457,4.47903 9.99468,7.19377 4.56662,4.11818 4.29676,-0.62617 6.33799,0.31182 2.56252,-4.34041 3.2383,1.96526 5.66618,3.15014 2.14838,0.10885 5.24013,-2.4772 6.44514,0.3274 3.72898,1.76939 8.26668,6.90832 11.5917,5.71351 0.22904,-1.65175 -1.1588,-2.36013 0.6874,-4.95496 2.83068,1.41194 3.63969,3.2281 8.49147,4.2361 0.6721,-0.9 0.94025,-2.87802 2.01685,-2.69943 3.86306,-0.2024 5.30051,3.23348 9.29878,3.97446 2.81509,-3.55521 0.15137,-4.23468 1.44539,-5.13298 l 7.89733,2.69263 c -4.93002,6.96983 -11.5169,12.9164 -16.8908,14.1713 -9.432,2.20252 -14.8669,-5.77588 -20.1923,1.02954 1.58343,1.42923 2.13194,3.72076 1.99106,6.18463 2.12627,2.75613 8.04643,0.85663 6.37909,8.26923 0.82091,1.5035 2.10217,2.77795 3.8435,3.82224 3.55975,-2.41767 7.57956,-2.65011 9.30019,1.37084 l 3.41093,0.6633 c 1.71326,-3.02769 7.76807,-3.89764 9.54,0.4921 5.38413,-1.11912 5.11229,-3.26693 6.60019,-5.67808 1.77392,-2.8749 7.04466,-1.78073 11.429,-6.58318 -0.15647,-3.36614 1.70022,-4.66186 6.60359,-5.26819 1.00602,-3.86759 2.67364,-4.4915 3.45203,-5.16359 1.20444,0.90142 3.6068,-0.66869 8.8064,-8.7412 1.01395,0.90425 2.25865,1.34929 3.73295,1.33427 1.13386,-2.304 1.23335,-6.33232 2.88454,-8.9813 l 4.04249,1.40457 c 0.97228,-2.57613 1.25518,-4.92208 0.84869,-7.03786 1.40145,1.5429 2.86129,2.05143 4.72281,2.21556 0.3104,-1.45219 0.77103,-2.53701 0.95159,-3.85937 0.10857,-0.79313 0.17915,-1.548 0.19219,-2.24589 l 4.06035,0.45099 c 2.19147,-4.47591 0.7903,-7.43698 0.7115,-11.7006 l 2.47493,0.95811 z"
   id="path11"
   inkscape:connector-curvature="0"
   style="fill:#ffffff" />
  <path
   class="fil2"
   d="M 92.8897,85.7532 C 69.9549,63.451 29.4307,89.6052 24.6025,65.9231 c -1.83969,-0.57515 -3.21874,-1.8394 -4.13887,-3.79474 -5.74725,3.29641 -3.80098,14.271 3.40186,20.973 5.78268,5.38073 15.0154,7.08832 25.9135,6.7904 l 43.1107,-4.13858 z"
   id="path13"
   inkscape:connector-curvature="0"
   style="fill:#f00000" />
  <path
   class="fil3"
   d="M 92.8897,85.7532 C 80.3966,77.53868 12.947,104.3343 20.4636,62.1284 c -5.74725,3.29641 -3.80098,14.271 3.40186,20.973 5.78268,5.38073 15.0154,7.08832 25.9135,6.7904 l 43.1107,-4.13858 z"
   id="path15"
   inkscape:connector-curvature="0"
   style="fill:#540000" />
  <path
   class="fil1"
   d="M 79.132,77.8544 C 56.5441,71.24117 28.563,85.34977 24.6025,65.9231 29.31567,91.5296 58.6891,71.8872 80.129,81.2696 l -0.996945,-3.41518 z m 6.75553,2.75159 c 2.46302,1.33115 4.81295,3.01833 7.00215,5.14715 -2.52879,-1.78186 -5.40312,-1.49443 -7.07018,-2.75896 l 0.06803,-2.38819 z"
   id="path17"
   inkscape:connector-curvature="0"
   style="fill:#ffffff" />
  <path
   class="fil3"
   d="m 51.5591,78.2626 c -3.82904,4.71317 -3.27175,11.3675 0.461764,15.2504 3.16091,2.01147 6.3224,1.95421 9.48416,-0.172347 1.83969,-0.11537 3.21874,-0.690237 4.13887,-1.72432 1.89638,-0.343559 3.79332,-0.802772 5.69055,-2.06929 1.58088,-0.345543 3.01777,-0.97767 4.13858,-2.24192 1.89695,-0.05726 3.79389,-0.574866 5.69055,-1.55197 l 3.44892,-0.172347 -7.08605,-5.44933 -2.74309,3.88035 -3.44665,-1.3578 -1.38189,2.92677 -2.68469,-1.51795 -2.31619,2.03528 -3.34233,-3.70545 -1.48592,7.49906 c -3.23377,-2.02649 -6.71301,-5.46463 -8.56659,-11.6291 z"
   id="path19"
   inkscape:connector-curvature="0"
   style="fill:#540000" />
  <path
   class="fil2"
   d="m 96.8559,142.832 c -4.8858,-7.24252 -9.42662,-4.13858 -14.1404,-6.20788 1.78214,-5.58964 9.02467,-6.53811 20.0035,-4.31121 0,-7.75985 -5.86318,-8.62215 -8.79478,-12.9334 5.37449,-1.56586 11.1223,1.16476 17.4169,10.1744 -4.45493,6.11037 -9.31437,10.3986 -14.4853,13.2781 z"
   id="path21"
   inkscape:connector-curvature="0"
   style="fill:#f00000" />
  <path
   class="fil2"
   d="m 146.692,211.119 c -4.4263,2.35673 -7.01263,6.32268 -7.76013,11.8984 -4.1383,-3.96624 -5.05758,-10.4615 -2.75896,-19.4859 -4.36847,1.14973 -5.97799,4.71345 -8.96712,7.07018 -2.44432,-7.24309 -0.71972,-13.0482 10.1741,-15.6923 6.28385,5.02923 10.8556,10.2603 9.3121,16.2096 z"
   id="path23"
   inkscape:connector-curvature="0"
   style="fill:#f00000" />
  <path
   class="fil3"
   d="m 138.724,223.447 c 1.4434,-7.92085 3.78114,-10.3337 7.87408,-12.2431 l -1.09021,-1.51739 c -5.75575,5.70841 -6.57213,6.19739 -6.78388,13.7605 z"
   id="path25"
   inkscape:connector-curvature="0"
   style="fill:#540000" />
  <path
   class="fil2"
   d="m 105.306,165.249 c -8.299,-0.0153 -15.7711,0.18085 -15.7533,8.73553 -2.00466,-6.45194 -1.83373,-11.6005 4.54451,-19.082 -2.98885,-2.06929 -7.7023,0.68967 -11.5537,1.03465 1.23619,-5.66164 6.29433,-9.68514 13.968,-12.5884 l 8.79449,21.9002 z"
   id="path27"
   inkscape:connector-curvature="0"
   style="fill:#f00000" />
  <path
   class="fil2"
   d="m 120.653,172.492 c 4.65591,9.48445 -1.82069,10.2288 -0.26872,16.0917 7.63823,-4.07282 8.68478,-3.25304 9.57571,-12.8531 -5.05871,-7.01292 -6.54832,-8.18164 -9.307,-3.23858 z"
   id="path29"
   inkscape:connector-curvature="0"
   style="fill:#f00000" />
  <path
   class="fil3"
   d="m 128.413,175.596 c 1.78611,6.86665 -3.37436,9.97115 -7.28334,11.4656 l -1.16646,0.0879 0.34498,1.37962 c 6.43918,-1.78186 10.5778,-5.28803 9.65679,-12.5884 L 128.413,175.596 z"
   id="path31"
   inkscape:connector-curvature="0"
   style="fill:#540000" />
  <path
   class="fil1"
   d="m 123.412,184.391 c 1.43348,-2.18466 1.43348,-4.36904 0,-6.55285 0.68173,2.99339 -0.14258,5.78523 0,6.55285 z"
   id="path33"
   inkscape:connector-curvature="0"
   style="fill:#ffffff" />
  <path
   class="fil1"
   d="m 126.169,203.158 c 2.85279,-5.9743 5.8972,-7.92142 11.4194,-8.26526 l 1.31868,-0.14655 c -4.59865,-2.52936 -12.5082,2.43411 -12.7381,8.41182 z"
   id="path35"
   inkscape:connector-curvature="0"
   style="fill:#ffffff" />
  <path
   class="fil2"
   d="m 364.143,414.43 c -2.42873,13.6375 1.6234,20.7938 9.3121,24.3145 0.57458,-6.95537 -4.88608,-9.94423 1.72432,-20.8656 -4.94731,-6.5041 -9.52441,-8.19468 -11.0364,-3.44892 z"
   id="path37"
   inkscape:connector-curvature="0"
   style="fill:#f00000" />
  <path
   class="fil3"
   d="m 127.206,210.682 c 3.4098,-1.41591 2.72721,-5.18882 9.09355,-7.22183 l 2.42192,-1.70334 c -4.96233,0.86768 -7.4897,3.19947 -11.6878,7.64674 l 0.17235,1.27843 z"
   id="path39"
   inkscape:connector-curvature="0"
   style="fill:#540000" />
  <path
   class="fil1"
   d="m 131.094,202.712 c 1.26454,-3.73606 3.77405,-4.81436 6.80372,-6.07777 1.6149,1.32123 1.61348,1.43065 0.92041,3.21279 -3.73153,-0.57373 -5.69084,1.65317 -7.72413,2.86498 z"
   id="path41"
   inkscape:connector-curvature="0"
   style="fill:#ffffff" />
  <path
   class="fil2"
   d="m 148.589,213.016 c -2.28473,10.5333 -0.64658,17.517 6.72548,19.3139 1.20699,-5.80592 -0.34498,-11.7839 3.62126,-17.4169 -2.06929,-4.08161 -5.51821,-4.71345 -10.3467,-1.89695 z"
   id="path43"
   inkscape:connector-curvature="0"
   style="fill:#f00000" />
  <path
   class="fil3"
   d="m 155.641,232.086 c 0.0808,-5.98706 0.0831,-12.725 3.35254,-17.1309 -4.46485,1.07518 -4.32397,16.8891 -3.35254,17.1309 z"
   id="path45"
   inkscape:connector-curvature="0"
   style="fill:#540000" />
  <path
   class="fil1"
   d="m 153.858,211.11 c -0.68287,1.45361 -4.69361,11.5688 -1.22712,15.8151 -0.97739,-3.62155 1.41987,-10.5676 3.2023,-15.1087 l -1.97518,-0.70639 z"
   id="path47"
   inkscape:connector-curvature="0"
   style="fill:#ffffff" />
  <path
   class="fil2"
   d="m 161.35,215.086 c 3.73663,-2.90353 7.47326,-3.65074 11.2088,0.34469 -1.43717,9.4269 1.43688,13.3356 1.89695,16.3823 -8.73695,-1.89723 -13.1051,-7.47326 -13.1057,-16.727 z"
   id="path49"
   inkscape:connector-curvature="0"
   style="fill:#f00000" />
  <path
   class="fil1"
   d="m 169.11,226.984 c -3.14022,-3.62126 -2.89276,-8.47106 -3.69751,-12.9546 0.21231,-1.22003 2.30117,-2.16851 3.3704,0.0757 -1.45928,3.08126 -1.224,7.78281 0.32712,12.8789 z"
   id="path51"
   inkscape:connector-curvature="0"
   style="fill:#ffffff" />
  <path
   class="fil3"
   d="m 172.351,215.624 c -0.34214,3.19635 -0.30501,10.2492 2.10728,15.8148 -4.10854,-4.28967 -3.44863,-16.0124 -3.42851,-16.3817 l 1.32123,0.56693 z"
   id="path53"
   inkscape:connector-curvature="0"
   style="fill:#540000" />
  <path
   class="fil2"
   d="m 182.388,277.338 c -3.96624,-2.06958 -6.12407,0.68967 -9.57302,1.03465 -1.51484,-5.904 3.09496,-7.5138 6.95093,-9.82517 -4.0235,-4.42573 -8.35654,-3.16545 -11.863,-4.14284 -0.68995,-3.27657 5.00344,-5.98167 10.3947,-6.81789 -0.82063,-2.61213 -8.07506,-2.57414 -11.4293,-3.87355 1.14945,-4.48356 6.05651,-6.1492 13.1839,-6.49418 l -7.32104,-5.74923 c 2.7017,-2.41427 7.93248,-2.06929 15.6923,1.03465 1.54432,14.6942 -0.68315,26.1184 -6.03553,34.8336 z"
   id="path55"
   inkscape:connector-curvature="0"
   style="fill:#f00000"
   sodipodi:nodetypes="ccccccccccc" />
  <path
   class="fil2"
   d="m 189.113,205.601 c 1.23959,2.96334 3.85881,3.78255 5.15112,6.43493 1.46495,3.00586 0.75685,7.60649 3.29868,9.94706 9.3121,-2.18495 6.20788,-19.5438 -1.03465,-24.1421 -5.46123,-0.63213 -7.93276,1.95477 -7.41515,7.76013 z"
   id="path57"
   inkscape:connector-curvature="0"
   style="fill:#f00000" />
  <path
   class="fil3"
   d="m 173.23863,278.54537 c 1.48717,-1.50086 3.77615,-3.00285 10.01173,-2.41601 l -1.03436,1.07461 c -0.069,1.08149 -0.85595,-2.90337 -8.97737,1.3414 z"
   id="path59"
   inkscape:connector-curvature="0"
   style="fill:#540000"
   sodipodi:nodetypes="cccc" />
  <path
   class="fil3"
   d="m 170.477,265.05148 c 3.52829,0.28687 8.30552,1.68359 9.37956,4.11969 1.81814,-1.22854 -5.41644,-6.62325 -9.37956,-4.11969 z"
   id="path61"
   inkscape:connector-curvature="0"
   style="fill:#540000"
   sodipodi:nodetypes="ccc" />
  <path
   class="fil3"
   d="m 168.408,254.476 -1.15058,-0.69024 c 4.79197,-0.64148 17.2423,4.61339 17.7951,5.98734 l -0.6514,0.5709 c -8.75112,-4.48214 -11.9883,-5.87254 -15.9931,-5.868 z"
   id="path63"
   inkscape:connector-curvature="0"
   style="fill:#540000" />
  <path
   class="fil3"
   d="m 185.667,250.87 c -6.70592,-4.15446 -10.1452,-7.26718 -10.1251,-7.09399 l -2.76151,-2.18608 c 0.66614,-0.7903 11.9616,5.63585 12.8866,9.28007 z"
   id="path65"
   inkscape:connector-curvature="0"
   style="fill:#540000" />
  <path
   class="fil2"
   d="m 395.355,405.463 c 0.51732,8.44952 -5.8989,11.4143 -7.2224,15.7042 9.29764,1.9766 14.2886,-0.0595 17.9138,-10.0137 -1.95392,-8.16378 -5.57547,-11.3831 -10.6914,-5.69055 z"
   id="path67"
   inkscape:connector-curvature="0"
   style="fill:#f00000" />
  <path
   class="fil2"
   d="m 181.87,295.617 c 5.54684,9.48756 13.6531,10.2969 22.8793,5.53011 -0.47112,-3.53906 2.73288,-7.70939 -2.20195,-11.6297 -1.33625,-1.06158 -3.48832,5.74696 -6.51402,6.87374 -3.27657,1.32208 -10.3694,-4.51021 -14.1633,-0.77414 z"
   id="path69"
   inkscape:connector-curvature="0"
   style="fill:#f00000" />
  <path
   class="fil3"
   d="m 181.87,295.617 c 5.25515,9.77953 13.2851,10.5931 22.9377,5.4 -0.54397,-1.70986 -0.0357,0.26419 -0.62929,-0.85096 -16.405,10.0449 -19.4573,-5.40822 -22.3084,-4.54904 z"
   id="path71"
   inkscape:connector-curvature="0"
   style="fill:#540000" />
  <path
   class="fil1"
   d="m 399.708,402.616 c 1.78753,1.29203 -1.2566,13.2168 -1.69512,14.3878 4.21654,-3.64819 5.74385,-12.5082 1.69512,-14.3878 z m -4.8206,7.15238 c -0.8246,2.88794 -2.54863,5.23021 -4.11647,7.34287 3.45969,-2.12967 3.72643,-4.0595 4.11647,-7.34287 z"
   id="path73"
   inkscape:connector-curvature="0"
   style="fill:#ffffff" />
  <path
   class="fil3"
   d="m 391.561,421.672 c 6.59311,1.28693 12.206,-2.50441 14.3331,-10.7249 -0.8623,-3.56343 -2.95172,-7.09399 -5.19364,-7.89903 8.51216,9.99213 -0.14854,18.0023 -9.13947,18.6239 z"
   id="path75"
   inkscape:connector-curvature="0"
   style="fill:#540000" />
  <path
   class="fil1"
   d="m 367.878,412.167 c -1.64211,2.21329 -1.2291,7.89506 0.19276,10.5114 0.91956,-0.91758 0.70554,-6.87572 2.22151,-9.06095 l -2.41427,-1.45049 z"
   id="path77"
   inkscape:connector-curvature="0"
   style="fill:#ffffff" />
  <path
   class="fil2"
   d="m 354.658,406.67 c -6.5812,9.6996 -6.06388,17.4884 -0.68967,23.9695 4.54082,-4.59836 2.1841,-12.301 10.0018,-15.3473 -0.77584,-8.04926 -4.39739,-9.77273 -9.3121,-8.62215 z"
   id="path79"
   inkscape:connector-curvature="0"
   style="fill:#f00000" />
  <path
   class="fil1"
   d="m 359.56,406.77 c -1.3972,-0.55899 -3.05858,-0.5315 -4.90167,-0.10006 -1.43943,2.12145 -2.53928,4.15247 -3.32306,6.09704 3.4132,-3.02258 4.6321,-9.51506 8.09604,-5.95021 -2.53644,3.91975 -6.12567,8.29985 -5.17351,14.595 2.53106,-4.70948 3.71084,-9.22224 7.01207,-9.87591 -0.0896,-1.63361 -0.69789,-3.13257 -1.70986,-4.76589 z"
   id="path81"
   inkscape:connector-curvature="0"
   style="fill:#ffffff" />
  <path
   class="fil2"
   d="m 328.683,403.476 c 5.52274,-2.07128 3.45175,-6.9035 16.5682,-6.21326 3.91181,-4.0269 6.50098,-8.08838 4.89033,-12.8058 -14.1902,-2.01317 -21.3429,4.95468 -21.4586,19.0191 z"
   id="path83"
   inkscape:connector-curvature="0"
   style="fill:#f00000" />
  <path
   class="fil2"
   d="m 345.001,396.496 c -9.36879,7.11298 -10.2886,16.1082 -3.96595,25.5215 5.34558,-4.48356 1.20699,-14.1404 13.9677,-15.0024 -0.80504,-5.57632 -4.13915,-9.08249 -10.0018,-10.5191 z"
   id="path85"
   inkscape:connector-curvature="0"
   style="fill:#f00000" />
  <path
   class="fil1"
   d="m 351.899,400.203 c -0.98958,-1.0406 -2.20195,-1.89921 -3.63799,-2.57556 -2.89474,2.72863 -5.37364,7.47298 -5.56214,12.2358 3.25162,-7.25726 5.86914,-7.70769 9.20013,-9.66019 z m -6.89726,-3.70687 c -4.24488,3.22299 -6.75581,6.83263 -7.64363,10.6923 1.42781,-4.11562 5.959,-7.16259 7.64363,-10.6923 z"
   id="path87"
   inkscape:connector-curvature="0"
   style="fill:#ffffff" />
  <path
   class="fil1"
   d="m 349.307,391.188 c 8.38602,-12.6247 -17.9181,-8.48268 -19.2436,3.05405 3.81543,-7.83808 10.2059,-9.91248 17.3378,-9.94904 4.9697,1.5086 -9.16073,6.51657 -11.1178,10.677 7.00413,-3.97729 11.0517,-4.48555 13.0235,-3.78199 z"
   id="path89"
   inkscape:connector-curvature="0"
   style="fill:#ffffff" />
  <path
   id="path1937_0"
   class="fil4"
   d="m 413.207,461.473 c -25.8806,28.0605 -56.6175,52.2678 -90.3442,71.9261 -17.151,-13.0587 -41.1718,-10.5837 -60.7054,-25.4563 -19.5333,-14.8725 -34.166,-51.3224 -56.0815,-68.0083 -21.9155,-16.6862 -52.9095,-18.7897 -74.0308,-34.871 C 110.9239,388.9823 107.1753,355.5649 87.6299,340.6833 68.0844,325.8017 37.6752,330.059 24.4343,306.1077 c -0.232725,-2.24986 -0.444756,-4.51559 -0.634677,-6.79663 l -8.67289,-140.272 c 39.8393,9.74863 31.1205,46.2121 56.0078,65.1433 24.8874,18.9315 66.738097,24.4752 89.176597,41.5432 22.4382,17.068 20.84,43.5841 39.9308,58.106 19.0908,14.5219 59.6449,19.2906 81.5185,35.9292 21.8738,16.6388 26.9864,50.7498 49.722,68.044 22.7356,17.2942 61.5717,13.4768 81.7246,33.6685 z"
   inkscape:connector-curvature="0"
   style="fill:#1f1a17" />
  <path
   id="path1937_1"
   class="fil1"
   d="m 413.207,461.474 c -25.8806,28.0605 -63.1239,46.8145 -96.8505,66.4728 -17.1507,-13.0584 -42.9662,-11.878 -62.4997,-26.7506 -19.5333,-14.8723 -34.166,-51.3224 -56.0815,-68.0083 -21.9155,-16.6862 -52.9095,-18.7897 -74.0308,-34.871 C 102.6233,382.2357 98.875,348.8183 79.3293,333.9367 59.7838,319.0554 32.8536,323.3725 19.6126,299.4212 c -0.232725,-2.24986 -0.233575,-4.57739 -0.42378,-6.85843 L 10.58,153.33277 c 39.8393,9.74835 27.3665,45.1718 52.2539,64.103 24.8874,18.9315 66.7381,24.4752 89.1766,41.5432 22.4382,17.068 20.84,43.5844 39.9308,58.106 19.0908,14.5219 59.6449,19.2909 81.5188,35.9294 21.8736,16.6385 26.9861,50.7495 49.7217,68.0437 22.7356,17.2942 69.8724,20.2244 90.0253,40.4161 z"
   inkscape:connector-curvature="0"
   style="fill:#ffffff" />
  <path
   id="path1937_2"
   class="fil5"
   d="m 411.228,463.639 c -25.8806,28.0602 -57.0314,51.5061 -90.7577,71.1644 -17.151,-13.0587 -42.9664,-11.878 -62.4997,-26.7506 C 238.437,493.1803 223.8046,456.7304 201.8891,440.0442 179.9733,423.3583 148.9793,421.2547 127.858,405.1735 106.737,389.0923 102.9885,355.6749 83.443,340.7933 63.8975,325.9117 33.4883,330.169 20.2474,306.2177 c -0.233008,-2.24986 -0.444756,-4.51559 -0.634961,-6.79663 l -8.67289,-140.272 c 39.8395,9.74835 31.1205,46.2118 56.0078,65.1433 24.8874,18.9312 66.738401,24.4749 89.176601,41.5429 22.4385,17.068 20.84,43.5844 39.9308,58.1063 19.0908,14.5219 59.6452,19.2906 81.5188,35.9292 21.8736,16.6385 26.9864,50.7498 49.722,68.044 22.7356,17.2942 63.7796,15.5327 83.9325,35.7245 z"
   inkscape:connector-curvature="0"
   style="fill:#004e90" />
  <path
   id="path1937_3"
   class="fil4"
   d="M 320.471,534.803 C 303.32,521.7449 277.5046,522.925 257.9713,508.0527 238.4377,493.1804 223.8053,456.7303 201.8895,440.0441 179.974,423.3582 148.98,421.2546 127.859,405.1731 106.7378,389.0921 102.9892,355.6745 83.4438,340.7932 63.8983,325.9116 33.4891,330.1687 20.2482,306.2173 l 0.515906,4.6647 c 12.784,22.5799 42.2201,17.3152 61.7655,32.1965 19.545504,14.8816 23.294004,48.299 44.415204,64.3802 21.121,16.0815 52.115,18.1851 74.0305,34.871 21.9158,16.6862 36.5482,53.136 56.0818,68.0083 19.5333,14.8725 44.009,12.7125 61.1601,25.7709 l 2.25383,-1.30592 z"
   inkscape:connector-curvature="0"
   style="fill:#1f1a17" />
  <path
   class="fil4 str1"
   d="m 59.8374,31.248 -0.437953,1.63049 -15.4845,10.9312 1.97745,0.48926 c 3.97559,-2.7411 7.77884,-4.44756 11.9273,-6.84397 l 0.415843,0.928347 c -2.81821,1.23619 -5.29144,3.50731 -8.10964,5.08876 5.75008,0.622772 12.9042,-4.32879 22.7308,-12.712 7.27739,-6.20873 19.2152,-7.71959 30.2171,-7.00186 10.832,0.706394 17.8033,-2.76151 28.0868,0.02523 l -11.6507,8.28482 2.76265,1.37821 c 24.2997,-23.6332996 43.5983,-2.43184 26.8566,14.976 l 0.28743,1.8445 7.06196,-9.98731 c 11.0934,6.0069 30.7664,8.70804 39.1017,1.20728 l 0.0899,2.99877 c 6.53018,-1.70844 10.0715,-3.41688 10.624,-5.12533 l 3.23292,3.7766 c 7.39928,-1.8669 15.8332,-3.38882 19.7836,-5.77304 1.60413,2.15603 -0.58535,4.14 1.19112,5.95163 3.05603,1.56104 7.14671,-0.326268 10.7204,-0.48926 0.61852,1.74076 -1.0046,2.96447 1.85584,5.22284 2.87603,-0.737008 12.3055,-1.30139 18.1134,-1.34844 -0.25795,1.70816 -2.75754,3.24397 -1.2909,5.64208 3.92457,1.53638 11.6427,-1.7555 17.6366,-1.94343 1.25773,2.71673 -0.58875,4.39852 -0.88299,6.59764 11.1747,0.763087 19.0851,3.42057 25.9818,8.68791 7.26889,5.55166 11.7369,1.48252 30.9447,18.8748 8.55893,7.74993 7.2377,0.757418 19.1891,17.236103 1.32633,1.82891 22.0822,19.9826 32.1713,60.1277 6.99591,27.8388 20.2782,64.0449 38.5331,61.7848 16.7593,-2.07525 15.8287,-32.631 -4.94759,-42.4148 -1.00743,-2.07128 4.5,-1.70901 2.49732,-4.00592 -3.78851,-5.44167 -12.0266,-8.50224 -15.4823,-12.2057 -0.0916,-0.97342 4.8566,-0.73985 3.79616,-2.74734 -4.46769,-3.70488 -9.30898,-7.40948 -12.6176,-11.1141 0.36964,-1.80284 2.29125,-1.53666 3.35084,-2.82189 -3.10904,-3.096 -7.76977,-6.192 -10.1886,-9.28772 0.93515,-3.56655 4.80161,-0.57969 5.90939,-2.93896 -6.75326,-8.33896 -20.9217,-19.4369 -29.0543,-23.9817 0.22932,-0.52413 0.45893,-1.0097 0.68853,-1.46835 0.68882,-1.37594 1.37877,-2.51036 2.06816,-3.71339 -2.53304,-3.04895 -6.96246,-5.75263 -9.66756,-8.628673 0.63723,-1.7881 0.58479,-4.09323 0.18766,-5.19137 -2.28869,-3.6961 -10.9953,-9.99695 -11.2793,-13.2934 0.83565,-0.983623 4.08558,-0.415276 3.02485,-1.91622 -3.89906,-7.68501 -13.4884,-16.577 -11.6966,-23.0548 1.48932,0.316914 3.15071,1.3235 4.46797,0.951024 2.52851,-6.91654 -7.53109,-15.2127 -3.79531,-18.68 1.3955,-0.605764 3.3086,3.78907 7.29128,2.83862 2.35814,-4.07225 1.26765,-11.2484 4.48866,-16.8724 1.54885,1.03748 1.54573,3.97191 3.09487,4.14737 2.3023,0.546236 6.84652,-11.4959 11.0458,-13.3639 1.6081,-0.512504 0.62957,4.49348 2.75528,3.63629 2.50101,-1.59165 5.72117,-5.82775 8.97024,-7.7059896 l 1.04315,3.0205996 c 5.6384,-1.73565 10.9318,-4.6782996 17.0878,-5.8963496 0.91899,0.759969 1.60838,1.97943 2.06816,3.6589596 4.94788,-1.2662396 10.4128,-1.6701696 15.0157,-2.5911496 0.86258,0.486709 0.1732,3.3876896 2.07071,3.5296996 5.5304,-1.38217 11.1779,-2.8831196 14.8334,-2.3879096 l -0.34214,4.2536696 c 4.08756,-0.291402 8.51982,0.106866 12.7803,0.160441 0.28856,1.92954 -0.97456,3.51411 -0.6857,5.78835 4.43736,2.46699 10.5993,3.89934 14.8646,5.84929 -0.24152,1.93635 -1.34476,3.35537 -0.72369,5.80933 2.46926,2.3023 5.28378,2.19062 7.92596,3.28592 l -0.66104,6.16848 c 2.76775,2.36438 4.67292,3.17537 7.6133,5.54032 0.79739,1.92416 -1.85698,4.02151 -1.40457,6.98174 1.40173,3.43417 5.21972,7.21361 4.89572,11.6838 -4.28542,1.53638 -8.2253,0.656221 -12.8557,-0.56863 l -2.06844,4.82117 c -2.89106,-0.566929 -6.47235,-3.89537 -9.70838,-3.77206 l -0.60945,4.48101 c -6.18265,-3.09855 -10.9845,-8.2681 -14.4057,-10.3309 l -3.48236,3.37408 -5.18882,-2.02592 c -3.65414,5.50063 -4.08586,11.2314 -3.36699,16.1569 1.05987,-3.07474 2.58038,-5.68942 4.56151,-7.84375 3.42085,5.544 2.0092,16.2658 4.04958,21.8103 2.57017,-1.1914 3.75959,-4.45351 5.63953,-6.68013 3.92457,6.91824 5.08791,15.2175 7.63229,22.826298 0.77358,-2.77172 2.0075,-5.54315 3.70177,-8.314298 12.8917,14.279298 6.79947,23.726598 11.7527,27.305898 0.72907,-2.75641 1.57351,-5.51339 3.22781,-8.26952 3.97276,5.05701 6.44967,13.3356 6.3961,24.836 2.38649,-0.4595 2.70199,-2.29947 4.05326,-3.4492 5.53918,9.08278 0.0332,17.4756 0.0499,26.2137 l 3.3154,0.006 c 2.58095,9.7818 -2.43128,14.3861 -0.54,21.0617 l 2.33405,-1.38954 c 2.00041,4.31773 0.83679,9.26901 -1.76542,14.5086 l 1.72828,6.20306 c 0.28517,3.68022 -5.29739,6.32466 -4.32142,12.0762 l 2.70567,2.08715 c -4.0269,6.20759 -8.05352,11.9548 -12.0796,17.2429 l 0.87534,3.45855 c -1.47798,3.32391 -3.76413,6.64838 -6.16536,9.97342 1.15824,1.96498 1.97121,2.89503 2.43921,4.86029 l -10.7087,5.52444 c -2.25383,2.38621 -4.96744,3.85229 -8.14111,4.39852 -1.46353,1.3011 -2.23682,3.6377 -4.39058,3.90359 -2.7771,-0.74353 -4.8634,-2.86725 -7.29496,-4.30073 l -4.28457,2.87943 c -7.6133,-5.32318 -14.3056,-11.5668 -20.0775,-18.7302 -0.88299,8.87953 6.86353,16.0333 5.63556,31.8166 l -5.70926,-3.86759 c -1.27814,5.87084 0.55077,13.4674 0.99921,20.0288 -1.75635,0.87562 -3.51213,0.37077 -5.26791,0.55644 0.24067,3.95858 1.17184,7.57248 0.72227,11.8766 l -8.85799,-3.33354 -0.54935,3.7131 c 3.12293,1.73537 4.7041,8.03679 10.0304,11.3905 6.03723,3.80069 14.6736,3.86164 16.0251,10.9976 1.78554,9.42634 6.53925,21.6235 4.65336,26.843 -2.62545,-0.12813 -5.2509,-1.63701 -7.87607,-2.45565 -1.10466,13.6641 7.11043,10.76 7.04155,26.4954 -2.86413,-0.35405 -5.03773,-2.08857 -7.55689,-3.13314 -3.73578,11.5815 2.88369,15.9143 2.25468,22.318 -2.27225,-0.16328 -4.54451,-1.70702 -6.81704,-2.56025 -1.56274,5.26139 -1.05449,11.2136 -4.68822,15.785 l -1.82863,-3.39562 c -0.54737,-4.15701 -4.81635,-13.3291 -8.24174,-7.42763 -15.2232,3.7749 -18.3651,8.93084 -25.304,12.0152 -3.97503,-5.56101 -6.33884,-6.40489 -8.47191,-1.84025 -0.23273,-2.56479 -1.38501,-3.51978 -3.45657,-2.86498 0.76592,-4.87531 -1.22939,-6.52904 -5.98564,-4.96092 -1.1486,-6.22233 -4.13802,-9.68315 -8.96797,-10.3827 2.38195,-4.39909 4.07055,-7.76126 0.9085,-9.38778 2.4446,-3.79276 8.54306,-3.42085 14.4961,-1.56076 6.68041,2.08743 13.6451,-8.90164 14.2481,-21.7494 0.41244,-8.78996 -1.0508,-17.8997 -11.9874,-26.4694 -1.99106,2.22718 -3.29188,5.14517 -5.97317,6.68211 -3.79984,-4.58192 -5.5287,-8.47361 -8.29276,-12.7106 -1.55707,1.19395 -0.12359,4.80359 -2.60419,6.68863 -9.62079,-8.45292 -13.142,-18.517 -14.7067,-28.8108 -3.18104,2.50384 -2.67959,8.34492 -5.7447,11.3097 -3.98721,-8.47985 -5.3847,-17.6499 -6.6087,-26.1286 -1.67159,2.68441 -3.34318,6.05934 -5.70501,8.74404 -4.09635,-5.10435 -5.66051,-14.0057 -6.07351,-24.6325 l -2.81764,1.41931 c -0.32145,-9.45808 0.3926,-17.1902 0.76139,-25.958 l -3.64592,0.89433 c -0.93997,-9.65849 0.881,-13.7942 1.32151,-20.6909 l -4.86397,-0.006 c 1.52419,-18.1814 37.5662,-37.0531 28.3904,-62.8283 l -1.78498,17.3041 c -3.70545,-6.66652 -2.69377,-18.3376 -12.8424,-26.7273 l -0.58593,3.3755 c -0.26305,-0.36227 -0.53092,-0.7149 -0.80277,-1.05761 -17.1193,-21.5799 -51.2396,-3.98098 -77.6668,-7.45257 l 0.11197,-3.09572 c 2.05087,0.0601 10.137,1.1554 7.18696,-5.50942 -6.18322,-12.9336 -12.3667,-28.2813 -18.5499,-38.8006 -1.65402,0.68768 -1.23902,2.75499 -0.82346,5.68432 l 16.2184,32.3079 c 0.99439,3.59547 -1.28721,4.60432 -5.80989,2.68214 -2.376,7.95147 1.52844,11.2462 -1.5205,17.4739 l -4.06035,-0.451 c -0.013,0.69761 -0.0836,1.45247 -0.19219,2.24561 -0.18057,1.32236 -0.6412,2.40747 -0.95159,3.85937 -1.8618,-0.16412 -3.32136,-0.67266 -4.72309,-2.21528 0.40677,2.11578 0.12387,4.46173 -0.84841,7.03786 l -4.04249,-1.40485 c -1.65118,2.64898 -1.75068,6.67729 -2.88454,8.9813 -1.4743,0.0153 -2.71899,-0.42973 -3.73295,-1.33398 -5.19959,8.07222 -7.60196,9.64262 -8.8064,8.7412 -0.77868,0.6721 -2.4463,1.29572 -3.45203,5.16359 -4.90337,0.60605 -6.76007,1.90205 -6.60359,5.26791 -4.38435,4.80246 -9.65509,3.70857 -11.429,6.58318 -1.48791,2.41143 -1.21606,4.55925 -6.60019,5.67808 -1.77194,-4.38945 -7.82674,-3.51978 -9.54,-0.49181 l -3.41093,-0.6633 c -1.72063,-4.02095 -5.74044,-3.78851 -9.30019,-1.37112 -1.74132,-1.04428 -3.02258,-2.31874 -3.8435,-3.82224 1.66734,-7.41232 -4.25282,-5.51311 -6.37909,-8.26923 0.14088,-2.46388 -0.40791,-4.7554 -1.99106,-6.18463 5.32545,-6.80542 10.7598,1.17326 20.1923,-1.02926 5.37392,-1.25518 12.3058,-8.58104 17.2358,-15.5509 4.51389,-21.6315 4.94731,-35.9771 0.95471,-51.0548 -0.98901,6.35018 0.0916,13.5627 -0.37985,20.0857 -4.73783,-2.74394 -11.3723,-5.31468 -14.2132,-8.23068 l -22.4501,-20.355 c -10.0403,-0.32344 -20.3102,-5.63301 -24.2566,-13.4283 -12.6873,-1.42243 -25.021698,-3.7423 -35.406698,-7.001863 -13.5595,8.714273 -36.4306,4.667813 -27.2274,-5.24126 10.3595,7.839783 16.7219,-12.191 42.8678,-7.1229 6.186328,-11.922 -21.5212,-15.8108 -47.2349,-23.0128 l -1.71298,-3.96907 c -2.76917,0.825733 -5.07827,2.57131 -6.92731,5.23729 -1.45361,-2.49647 -6.35585,-2.75103 -4.36025,-7.48885 0.82715,-4.16296 -5.76085,-6.084 0.412158,-8.86763 2.93131,-1.09644 16.8993,-11.16 25.3488,-16.74 z"
   id="path95"
   inkscape:connector-curvature="0"
   style="fill:#000000;stroke:#000000;stroke-width:0.21600000999999999;stroke-opacity:1;fill-opacity:1" />
  <path
   class="fil4 str1"
   d="m 106.496,130.44 c 1.33342,-0.59953 2.71276,-1.10835 4.40816,-0.98532 6.19626,4.60488 -2.83238,7.55122 9.96435,16.3755 8.18022,5.64095 31.0456,-4.38633 40.841,-3.27827 0.62079,1.01282 1.66904,3.204 4.41581,3.33184 2.64643,3.13314 6.13503,5.47569 9.82545,5.17408 -0.65169,9.80334 -2.04435,18.8768 -4.85122,26.8844 l -4.91896,-0.81723 c -1.29402,0.89858 1.3697,1.57805 -1.44539,5.13298 -3.99827,-0.74069 -5.43572,-4.17685 -9.29878,-3.97446 -1.0766,-0.1783 -1.34476,1.79943 -2.01685,2.69943 -4.85178,-1.00772 -5.66079,-2.82416 -8.49147,-4.23581 -1.84621,2.59484 -0.45836,3.30321 -0.6874,4.95468 -3.32504,1.1948 -7.86274,-3.94384 -11.5917,-5.71351 -1.20501,-2.80432 -4.29676,-0.21827 -6.44514,-0.3274 -2.42788,-1.18488 -3.10366,-7.49027 -5.66618,-3.14986 -2.04123,-0.93827 -1.77137,3.80636 -6.33799,-0.3121 -3.01011,-2.71446 -7.09739,-6.72492 -9.99468,-7.19348 l -2.20536,-1.7708 c -0.44249,-5.51481 -1.96923,-7.22863 -5.825202,-9.01474 l -0.717449,-2.44517 c 1.59761,-1.56416 2.74394,-3.17367 0.735307,-5.09811 0.985323,-1.18375 1.25263,-2.5475 0.801355,-4.08983 1.08624,-0.46346 2.36268,-0.35206 2.68271,-3.11499 2.352469,0.0584 3.447209,-1.50038 3.284789,-4.67518 3.60397,1.24271 3.97361,-0.20948 3.5348,-4.35657 z"
   id="path97"
   inkscape:connector-curvature="0"
   style="fill:#000000;stroke:#000000;stroke-width:0.21600000999999999;stroke-opacity:1;fill-opacity:1" />
  <path
   class="fil4 str1"
   d="m 317.577,201.509 -1.61717,-5.19846 -32.7986,-19.963 c -1.12819,1.55027 -0.17178,-1.66365 -3.384,4.65109 -8.22813,-1.23902 -15.861,-2.47748 -24.685,-1.92926 1.36828,2.37118 3.92712,3.84888 4.9972,6.22035 -1.87994,2.2714 -15.9693,1.56501 -22.614,4.13462 2.27651,4.53912 6.63761,4.90933 9.50939,8.25761 -5.59446,4.26841 -16.5487,3.77206 -23.9298,11.9115 2.58605,2.2748 6.06558,3.06029 7.75786,5.93093 -0.98816,3.91238 -11.505,4.84725 -16.0668,10.8442 2.49988,2.05087 5.89295,2.01742 8.0949,4.36621 -7.06082,4.43877 -12.6335,9.77075 -17.9079,14.8051 3.69723,2.61184 6.20334,0.45921 9.30473,1.5823 -2.12117,10.6002 1.41506,23.8799 11.5016,28.2271 l 0.29594,3.28422 c -7.14955,0.93799 -18.2988,-4.43622 -24.3224,-13.7829 -4.99125,-7.74426 -7.44662,-20.1186 -12.7806,-21.8588 -1.20529,2.39301 -1.51739,5.08422 -3.61616,7.17988 1.73849,5.65824 2.8783,10.3198 -0.16696,8.00703 l -0.75912,2.39102 c 4.48186,6.05792 3.20712,8.54249 -2.93188,5.66788 3.7423,3.67795 3.91096,7.35563 0.50598,11.0336 5.38583,5.44762 10.2711,12.2981 13.3906,18.9865 3.82847,0.31691 4.80756,-6.57865 7.03304,-5.56214 1.98482,0.9068 3.82195,4.3251 1.33937,9.94309 l 0.11622,0.90454 c 2.69291,0.34044 5.30929,-1.9131 7.40637,0.21429 0.73843,2.23682 -2.9897,2.98488 -3.14419,4.92435 1.41194,3.70942 5.80196,1.46296 8.70265,3.08778 -0.33052,1.38926 -1.85187,2.7788 -0.99099,4.16835 6.63903,2.68781 12.9801,-0.5794 18.4283,1.2155 0.39062,1.95619 -4.2806,3.91238 -3.29443,6.76205 8.62186,1.05959 10.097,-2.3468 16.0384,-1.28693 0.40167,2.62007 -3.06766,5.24014 -1.47515,10.5406 18.1446,-3.08041 33.7283,-12.1062 35.1933,-16.4421 2.00296,-5.92951 -0.57317,-14.9261 -3.27203,-23.0457 13.0314,-1.50123 7.00498,-12.2335 10.5075,-17.0102 2.25213,1.55594 0.9309,5.49383 1.39606,8.24089 6.81676,2.55912 10.3575,-12.1524 14.1962,-18.2285 l 0.26731,-6.16139 -4.64712,-3.24312 c -0.84388,-6.17046 0.0989,-11.7451 0.14797,-17.6176 -1.46013,0.29566 -2.91969,-0.20267 -4.38038,-1.49443 1.86463,-10.5798 5.83002,-15.876 9.69223,-20.7984 4.37698,-5.57859 8.79166,-10.2535 12.9614,-13.8597 z"
   id="path99"
   inkscape:connector-curvature="0"
   style="fill:#000000;stroke:#000000;stroke-width:0.21600000999999999;stroke-opacity:1;fill-opacity:1" />
  <path
   id="path1937_4"
   class="fil6 str0"
   d="m 1.18488,1.37452 497.773,0.040819 -15.3216,294.069001 c -9.24208,142.87 -116.272,224.787 -231.732,273.196 -119.834,-42.2107 -220.121,-123.25 -232.292,-269.259 L 1.18428,1.3753389 z"
   inkscape:connector-curvature="0"
   style="fill:none;stroke:#1f1a17;stroke-width:1.98424995" />
  <path
   class="fil4"
   d="m 311.245,169.585 c 4.9629,6.15402 2.73147,17.0657 6.61862,28.1738 1.48876,2.0846 2.97751,0.19814 4.46684,-5.65767 l -4.46684,-19.0579 c -1.45304,-2.64841 -2.72778,-5.07827 -4.51389,-6.36832 -2.82076,-2.93528 -2.10473,1.18857 -2.10473,2.91005 z"
   id="path102"
   inkscape:connector-curvature="0"
   style="fill:#1f1a17" />
  <path
   class="fil3"
   d="m 344.482,397.346 c -11.1005,-0.39146 -9.07285,2.55203 -15.6898,6.03553 l 0.0176,-1.61405 c 5.71918,-2.84542 4.78602,-6.93695 17.4373,-5.12759 l -1.76513,0.70611 z"
   id="path104"
   inkscape:connector-curvature="0"
   style="fill:#540000" />
  <path
   class="fil3"
   d="m 341.017,421.989 c 3.53821,-5.60183 0.72624,-13.7035 13.2049,-16.6725 l -0.005,1.58967 c -10.2759,0.88441 -7.46759,7.29978 -13.1998,15.0829 z"
   id="path106"
   inkscape:connector-curvature="0"
   style="fill:#540000" />
  <path
   class="fil3"
   d="m 354.123,430.556 c 2.34312,-6.58035 3.67966,-14.341 9.29396,-16.5974 l 0.4595,1.1435 c -6.77566,2.63707 -5.74158,10.266 -9.75345,15.4539 z"
   id="path108"
   inkscape:connector-curvature="0"
   style="fill:#540000" />
  <path
   class="fil3"
   d="m 373.32,438.505 c -2.36353,-8.06004 -5.71522,-7.3321 0.77357,-22.5026 l 1.10835,2.03159 c -6.42756,9.08504 -1.23109,15.7547 -1.88192,20.471 z"
   id="path110"
   inkscape:connector-curvature="0"
   style="fill:#540000" />
  <path
   class="fil1"
   d="m 194.834,301.349 c 5.31383,-1.86747 6.88989,-4.54281 7.16287,-6.09364 -0.4388,-1.18091 -0.97313,-1.11005 -1.82693,-1.2583 0.46573,3.26098 -3.46394,4.10542 -5.33594,7.35194 z"
   id="path112"
   inkscape:connector-curvature="0"
   style="fill:#ffffff" />
  <path
   class="fil1"
   d="m 184.229,294.171 c 3.94328,-0.54765 8.57878,3.0926 11.4194,2.35786 -0.0301,-0.12189 -0.0856,-0.2554 -0.16923,-0.39997 -2.77795,0.98306 -7.97046,-3.02258 -11.2501,-1.95789 z"
   id="path114"
   inkscape:connector-curvature="0"
   style="fill:#ffffff" />
  <path
   class="fil1"
   d="m 177.214,239.745 c 3.90841,0.9771 8.27887,2.05115 11.4979,3.71821 -0.39855,-2.93386 -8.08725,-4.02747 -11.4979,-3.71821 z"
   id="path116"
   inkscape:connector-curvature="0"
   style="fill:#ffffff" />
  <path
   class="fil1"
   d="m 181.432,247.736 c -7.97868,-1.84621 -10.734,0.8314 -12.8035,2.19969 2.98715,-1.44113 8.16237,-2.66967 12.5348,-1.34136 2.80375,1.17156 3.61928,0.78576 0.26872,-0.85833 z"
   id="path118"
   inkscape:connector-curvature="0"
   style="fill:#ffffff" />
  <path
   class="fil1"
   d="m 186.871,258.886 c -1.96186,-5.06892 -10.0522,-6.30085 -10.5086,-7.05374 3.02995,0.42066 7.13452,1.11061 10.1636,2.60788 0.6925,1.43717 0.57657,3.00926 0.34498,4.44586 z"
   id="path120"
   inkscape:connector-curvature="0"
   style="fill:#ffffff" />
  <path
   class="fil1"
   d="m 169.893,260.842 c 2.79865,-1.52787 6.65037,-2.89928 9.80901,-2.63367 l -0.78633,-0.8572 c -2.73458,0.46914 -6.68722,1.16192 -9.02268,3.49087 z"
   id="path122"
   inkscape:connector-curvature="0"
   style="fill:#ffffff" />
  <path
   class="fil1"
   d="m 186.354,264.232 c -1.80879,-0.72482 -6.38788,-2.56677 -7.82334,-1.95591 1.34277,1.31641 7.33635,3.18643 7.47837,5.40454 1.18998,-0.79058 1.30479,-1.9406 0.34498,-3.44863 z"
   id="path124"
   inkscape:connector-curvature="0"
   style="fill:#ffffff" />
  <path
   class="fil1"
   d="m 179.683,268.555 c -3.33128,1.98454 -6.51307,3.32849 -6.40451,5.10355 1.13386,-1.58088 7.21607,-4.87422 6.40451,-5.10355 z"
   id="path126"
   inkscape:connector-curvature="0"
   style="fill:#ffffff"
   sodipodi:nodetypes="ccc" />
  <path
   class="fil1"
   d="m 184.286,271.16 c 0.27014,1.3045 8.5e-4,2.33972 -0.34526,3.33666 -1.11203,-0.92041 -3.74117,-1.15058 -4.85377,-1.15058 0.53717,-0.53688 3.62665,-1.76428 5.19903,-2.18608 z"
   id="path128"
   inkscape:connector-curvature="0"
   style="fill:#ffffff" />
  <path
   class="fil3"
   d="m 196.528,197.841 c 8.35087,10.1537 6.77197,21.8444 0.32513,23.1874 0.28148,1.70532 0.18426,0.68287 0.71122,1.33767 5.3127,-0.34753 10.4811,-14.8102 -1.03635,-24.5251 z"
   id="path130"
   inkscape:connector-curvature="0"
   style="fill:#540000" />
  <path
   class="fil1"
   d="m 198.942,214.913 c -0.93373,-4.26784 -2.80205,-7.97528 -6.03553,-10.8638 -0.9771,-0.68995 -0.22989,-2.06929 0.68967,-1.55197 4.95836,3.16148 6.36662,7.41487 5.34586,12.4158 z"
   id="path132"
   inkscape:connector-curvature="0"
   style="fill:#ffffff" />
  <path
   class="fil1"
   d="m 145.237,206.265 c -2.81651,1.26425 -5.32687,6.11859 -7.51153,8.99263 0.17263,-3.33383 2.22378,-8.18816 5.61459,-11.0622 1.55254,-0.45978 2.18466,0.23017 1.89695,2.06958 z"
   id="path134"
   inkscape:connector-curvature="0"
   style="fill:#ffffff" />
  <path
   class="fil1"
   d="m 135.022,211.511 c 0.49606,-1.96186 1.05024,-5.62706 1.97036,-6.94914 0,-0.97739 2.67024,-2.84032 1.29061,-2.89786 -2.66003,1.16334 -3.64564,7.25981 -3.26098,9.847 z"
   id="path136"
   inkscape:connector-curvature="0"
   style="fill:#ffffff" />
  <path
   class="fil1 str2"
   d="m 125.675,35.68 c -4.37216,1.15058 -4.90054,3.52432 2.11805,2.25893 2.47862,-0.805323 12.8098,-12.6561 20.7102,-4.48725 0.32343,-6.98967 -7.60791,-5.44139 -13.3458,-3.08721 -4.46202,1.8309 -6.11008,5.16473 -9.48246,5.31553 z"
   id="path138"
   inkscape:connector-curvature="0"
   style="fill:#ffffff;stroke:#ffffff;stroke-width:0.21600001" />
  <path
   class="fil1"
   d="m 90.5145,73.8366 c 5.54939,1.35354 11.2422,8.94445 6.90322,12.7715 l 0.174614,2.5869 c 3.220726,-1.85046 3.577606,-4.71402 2.760946,-9.20353 -0.680878,-3.74343 -5.410206,-7.66177 -9.493796,-8.9161 l -0.344977,2.76123 z"
   id="path140"
   inkscape:connector-curvature="0"
   style="fill:#ffffff" />
  <path
   class="fil1"
   d="m 65.5736,59.3331 c 3.40951,-2.7224 12.3012,-8.72561 15.9885,-10.0843 0.40337,-0.45978 0.116787,-0.933166 -0.118488,-1.3371 -0.455811,0.111685 -1.94542,0.70441 -2.6212,-0.02353 -0.729638,-0.786048 -5.1738,-2.57102 -5.79827,-2.69972 -2.47153,-0.509386 -3.86391,-1.94882 -3.85994,-2.96022 3.53622,-2.97695 5.15254,-2.39925 6.7955,-3.52999 0.229323,-0.728504 2.90268,-2.71871 2.2714,-2.81594 -0.598394,0.140032 -2.02677,0.974835 -3.67229,1.24583 -1.9749,0.325134 -10.1937,5.8218 -12.5079,8.04218 l -0.05726,1.43773 3.72104,-2.31024 c 0.972,0.251433 -0.793418,2.92366 -0.314362,5.84107 0.242362,1.47543 1.67102,2.73855 2.592,4.02236 1.03465,-0.460347 2.26488,-0.587339 1.91991,-1.50718 -1.99616,-0.96463 -3.23717,-2.47862 -2.38932,-5.51311 l 1.3011,-0.284882 c -0.04706,1.69058 0.710646,3.73635 1.32548,3.35112 l 0.829985,0.02183 c -0.233575,-1.32973 -0.175465,-2.3006 0.366236,-2.76945 l 0.830552,0.183402 c 1.13783,2.61043 -1.08482,3.70318 -1.23931,4.53685 2.6932,-0.392599 3.33695,-1.88901 4.58164,-2.11663 0.666992,-0.122173 0.818079,-0.336189 1.31187,-0.986741 -3.02258,-1.3286 -6.0463,-2.95937 -9.07002,-4.63408 l 1.1075,-0.226205 c 3.02428,1.52702 6.56504,3.53877 9.07229,4.58107 -0.01701,1.13556 -2.01345,1.74359 -2.67647,2.3468 -2.41937,2.1994 -6.48454,4.64202 -9.19474,5.47427 l -2.24873,2.32951 c 0.584504,0.472819 1.16901,0.600945 1.75323,0.385229 z"
   id="path142"
   inkscape:connector-curvature="0"
   style="fill:#ffffff" />
  <path
   class="fil1"
   d="m 85.5686,150.112 c 3.0464,-2.27084 7.70514,-5.84164 10.7521,-5.81301 l 0.362835,-1.29487 c -5.23134,1.75266 -9.56382,4.03229 -11.1149,7.10788 z"
   id="path144"
   inkscape:connector-curvature="0"
   style="fill:#ffffff" />
  <path
   class="fil1"
   d="m 88.0994,169.582 c 0.61937,-7.61783 4.07991,-13.4776 9.06095,-14.2251 l -0.821764,-0.76082 c -4.41014,0.65962 -8.81887,6.59282 -8.23919,14.9859 z"
   id="path146"
   inkscape:connector-curvature="0"
   style="fill:#ffffff" />
  <path
   class="fil1"
   d="m 100.632,159.084 c -3.58725,1.05109 -6.38589,2.29635 -7.13339,4.36564 1.8394,-0.17263 6.0018,-1.82126 7.66857,-0.78662 0.4595,-2.24163 0.55701,-3.0617 -0.53518,-3.57902 z"
   id="path148"
   inkscape:connector-curvature="0"
   style="fill:#ffffff" />
  <path
   class="fil3"
   d="m 104.961,165.594 c -10.2314,-0.80561 -15.4032,2.53531 -15.5197,7.75985 -2.22491,-5.84759 3.43588,-7.63144 13.8382,-9.2486 l 1.68151,1.48876 z"
   id="path150"
   inkscape:connector-curvature="0"
   style="fill:#540000" />
  <path
   class="fil3"
   d="m 82.5432,155.765 c 3.90841,-0.22961 8.85204,-3.21874 11.7261,-0.68967 l 2.93159,-0.51732 C 93.92404,152.43117 88.96,153.12538 83.38509,154.21728 L 82.5432,155.765 z"
   id="path152"
   inkscape:connector-curvature="0"
   style="fill:#540000" />
  <path
   class="fil1"
   d="m 97.2035,147.988 c -2.83068,0.5366 -7.64419,1.87569 -7.78621,3.14589 1.81559,-0.216 3.3137,-0.62759 6.40403,-0.37021 l 1.7246,-1.37934 -0.342425,-1.39635 z"
   id="path154"
   inkscape:connector-curvature="0"
   style="fill:#ffffff" />
  <path
   class="fil1 str2"
   d="m 99.0978,132.485 c -5.5389,-2.14384 -10.5401,-1.67414 -15.0027,1.20728 3.79332,-3.48605 8.44867,-4.8206 15.0027,-1.20728 z"
   id="path156"
   inkscape:connector-curvature="0"
   style="fill:#ffffff;stroke:#ffffff;stroke-width:0.21600001" />
  <path
   class="fil1"
   d="m 94.2668,134.954 c 2.01373,0.80306 5.06381,2.52907 5.69311,4.25651 1.49386,-0.47764 2.29833,-1.1948 2.41427,-2.58662 -2.29947,-0.97739 -5.63585,-1.90006 -8.10737,-1.66989 z"
   id="path158"
   inkscape:connector-curvature="0"
   style="fill:#ffffff" />
  <path
   class="fil3"
   d="m 97.0286,142.315 c -6.84057,-6.49559 -9.54227,-3.67909 -14.313,-5.51821 l 0.459213,-1.03039 c 4.10882,-0.16072 9.47481,0.84671 15.8851,6.1492 l -2.03131,0.3994 z"
   id="path160"
   inkscape:connector-curvature="0"
   style="fill:#540000" />
  <path
   class="fil3"
   d="m 93.9243,119.552 c 2.87405,3.1612 7.1657,5.923 8.48778,9.48445 l 0.55304,3.44863 c 0.8915,-3.53509 -0.79512,-7.51947 -7.72186,-13.3537 l -1.31896,0.42066 z"
   id="path162"
   inkscape:connector-curvature="0"
   style="fill:#540000" />
  <path
   class="fil3"
   d="m 50.1239,63.853 c 1.03465,3.50617 0.68967,6.15033 5.17323,8.96712 -0.240378,-1.82466 -0.02098,-3.18954 0.658772,-4.09408 0.294803,2.05654 1.33767,3.93959 3.47981,4.6114 0.691937,-0.754016 0.521292,-1.85301 1.55849,-2.26205 0.170362,2.01827 1.26,3.34687 3.27005,3.98636 0.863434,-0.666992 0.347528,-2.71304 2.59058,-2.00013 -0.116504,0.896315 1.1469,1.44822 1.72035,2.17247 0.646866,-1.12195 1.3337,-2.00948 2.0795,-2.71644 l 0.672945,1.15143 c 0.519591,-1.60554 1.72885,-2.75074 3.62806,-3.43588 -1.13896,-0.674363 -2.33603,-1.23364 -3.93591,-0.983906 -1.67698,-1.1092 -3.35424,-1.52873 -5.03122,-1.25773 -1.7246,-1.17921 -3.4492,-1.58173 -5.17323,-1.37962 -1.49471,-1.72432 -3.21903,-2.06929 -5.17323,-1.03465 -1.49358,-1.95988 -3.10224,-3.45827 -5.51821,-1.72432 z"
   id="path164"
   inkscape:connector-curvature="0"
   style="fill:#540000" />
  <path
   class="fil2"
   d="m 54.0902,70.5782 c -1.26425,-1.89666 -2.06873,-4.02293 -2.41427,-6.38051 1.15002,0.172913 2.29975,0.805607 3.44892,1.89695 -0.922111,1.49499 -1.03578,2.98942 -1.03465,4.48356 z"
   id="path166"
   inkscape:connector-curvature="0"
   style="fill:#f00000" />
  <path
   class="fil2"
   d="m 59.0911,71.4405 c -1.26425,-1.89666 -1.72403,-2.29862 -2.06929,-4.65591 1.15002,0.17263 2.29947,0.288 3.44863,1.37934 -0.922111,1.49499 -1.38047,1.78243 -1.37934,3.27657 z"
   id="path168"
   inkscape:connector-curvature="0"
   style="fill:#f00000" />
  <path
   class="fil2"
   d="m 63.9193,72.6475 c -1.26425,-1.89666 -1.72375,-1.60866 -2.06929,-3.96624 0.632693,2.83e-4 2.29975,0.115654 2.93159,0.689953 -0.922111,1.49471 -0.863434,1.78243 -0.8623,3.27629 z"
   id="path170"
   inkscape:connector-curvature="0"
   style="fill:#f00000" />
  <path
   class="fil2"
   d="m 68.2305,73.3374 c -1.26425,-1.89666 -1.72403,-1.60895 -2.06929,-3.96624 0.632693,2.83e-4 2.29975,0.115654 2.93131,0.68967 -0.922111,1.49499 -0.86315,1.78243 -0.862016,3.27657 z"
   id="path172"
   inkscape:connector-curvature="0"
   style="fill:#f00000" />
  <path
   class="fil3"
   d="m 38.9152,63.6803 c 1.80992,7.21446 5.77559,12.8478 14.485,15.0027 -0.114803,-4.02378 -5.92073,-9.94423 -4.48328,-15.175 -0.01276,-2.6178 -1.46154,-3.39789 -3.96794,-4.33077 -2.70142,0.721701 -4.71288,2.40265 -6.03383,4.50312 z"
   id="path174"
   inkscape:connector-curvature="0"
   style="fill:#540000" />
  <path
   class="fil2"
   d="m 51.8378,77.2413 c -5.56328,-1.75238 -8.3401,-5.18627 -11.1983,-12.526 0.03033,-3.78624 2.74932,-4.56548 6.54293,-2.74252 0.112535,5.58369 3.27657,11.7051 4.65534,15.2685 z"
   id="path176"
   inkscape:connector-curvature="0"
   style="fill:#f00000" />
  <path
   class="fil1"
   d="m 49.3807,75.7228 c -2.54183,-2.64104 -4.85377,-7.12205 -7.03729,-12.6352 -0.377858,-1.40343 -0.878174,-1.99219 1.43575,-2.14073 l 5.60155,14.7759 z"
   id="path178"
   inkscape:connector-curvature="0"
   style="fill:#ffffff" />
  <path
   class="fil2"
   d="m 51.1586,79.3727 c -1.81162,5.20214 -1.75408,10.2603 2.41427,15.0027 2.87377,1.03465 5.51764,0.68967 7.93219,-1.03465 -3.10394,-3.79361 -9.48416,-6.03553 -10.3465,-13.968 z"
   id="path180"
   inkscape:connector-curvature="0"
   style="fill:#f00000" />
  <path
   class="fil1"
   d="m 51.2904,82.6779 c -0.470268,4.51956 3.00303,9.44703 5.73137,12.3871 l 1.72432,-0.344693 -0.479339,-2.37628 c -3.31512,-1.59307 -4.75115,-6.15629 -6.97635,-9.66615 z"
   id="path182"
   inkscape:connector-curvature="0"
   style="fill:#ffffff" />
  <path
   class="fil2"
   d="m 62.5397,86.2705 -1.20699,5.00088 c 3.42879,0.657638 6.14155,-1.45417 8.83248,-3.22214 l -2.45197,-2.46841 -1.7246,3.96624 -3.44892,-3.27657 z"
   id="path184"
   inkscape:connector-curvature="0"
   style="fill:#f00000" />
  <polygon
   class="fil2"
   points="72.1968,84.3736 70.4138,87.8012 74.9937,86.1146 "
   id="polygon186"
   style="fill:#f00000" />
  <path
   class="fil2"
   d="m 77.37,81.6146 4.94221,3.17934 c -2.36268,-0.110268 -4.72564,0.27411 -7.08775,0.883276 L 77.37,81.614596 z"
   id="path188"
   inkscape:connector-curvature="0"
   style="fill:#f00000" />
  <path
   class="fil1"
   d="m 24.8205,66.3639 c -1.39238,-1.53468 -3.72529,-2.39641 -4.17657,-4.60432 l -0.753166,0.595276 c 1.77817,2.05484 3.15156,3.39109 4.92973,4.00904 z"
   id="path190"
   inkscape:connector-curvature="0"
   style="fill:#ffffff" />
  
  
  <path
   class="fil1"
   d="m 60.6654,58.5774 c -0.242079,-1.19112 -6.21156,-3.47273 -12.1751,-4.62444 -5.49241,-1.06072 -11.9497,-0.217417 -12.4251,1.39635 2.68526,0.614835 0.453544,-1.57521 12.3404,0.09042 5.34473,0.748914 10.599,3.29783 12.2598,3.13767 z"
   id="path196"
   inkscape:connector-curvature="0"
   style="fill:#ffffff" />
  <path
   class="fil1"
   d="M 63.495,64.0403 C 63.064417,62.14732 54.8309,59.43315 48.9215,57.742 43.54417,56.20307 36.5137,54.90622 36.0383,56.51998 c 2.68526,0.614835 3.2074,-0.0079 12.5291,2.304 11.3278,2.80942 13.2667,5.37648 14.9275,5.21632 z"
   id="path198"
   inkscape:connector-curvature="0"
   style="fill:#ffffff" />
  <path
   class="fil1"
   d="m 101.952,123.152 c 1.16022,1.83118 4.3971,6.07777 3.89452,7.84602 1.49017,0.48898 1.6217,-0.42832 2.53162,-1.48791 -1.28976,-2.13959 -4.2891,-5.09528 -6.42614,-6.35811 z"
   id="path200"
   inkscape:connector-curvature="0"
   style="fill:#ffffff" />
  <path
   class="fil1"
   d="m 187.16,244.307 c -1.80879,-0.72482 -6.38788,-2.56677 -7.82334,-1.95591 1.34277,1.31641 7.33635,3.18643 7.47837,5.40454 1.18998,-0.79058 1.30479,-1.9406 0.34498,-3.44863 z"
   id="path202"
   inkscape:connector-curvature="0"
   style="fill:#ffffff" />
  <path
   class="fil1"
   d="m 363.702,425.011 c 0.11225,-3.90416 -0.0221,-7.53959 0.80674,-11.4432 -1.47827,3.18586 -1.47827,6.82073 -0.80674,11.4432 z"
   id="path204"
   inkscape:connector-curvature="0"
   style="fill:#ffffff" />
 </g>
</svg>