<?xml version="1.0" encoding="UTF-8" standalone="no"?>
<!-- Creator: CorelDRAW -->

<svg
   xmlns:dc="http://purl.org/dc/elements/1.1/"
   xmlns:cc="http://creativecommons.org/ns#"
   xmlns:rdf="http://www.w3.org/1999/02/22-rdf-syntax-ns#"
   xmlns:svg="http://www.w3.org/2000/svg"
   xmlns="http://www.w3.org/2000/svg"
   xmlns:sodipodi="http://sodipodi.sourceforge.net/DTD/sodipodi-0.dtd"
   xmlns:inkscape="http://www.inkscape.org/namespaces/inkscape"
   xml:space="preserve"
   width="500"
   height="575"
   style="fill-rule:evenodd"
   viewBox="0 0 500 578.45"
   version="1.0"
   id="svg2"
   inkscape:version="0.48.0 r9654"
   sodipodi:docname="Nousiainen.vaakuna.svg"><metadata
   id="metadata122"><rdf:RDF><cc:Work
       rdf:about=""><dc:format>image/svg+xml</dc:format><dc:type
         rdf:resource="http://purl.org/dc/dcmitype/StillImage" /></cc:Work></rdf:RDF></metadata><sodipodi:namedview
   pagecolor="#ffffff"
   bordercolor="#666666"
   borderopacity="1"
   objecttolerance="10"
   gridtolerance="10"
   guidetolerance="10"
   inkscape:pageopacity="0"
   inkscape:pageshadow="2"
   inkscape:window-width="640"
   inkscape:window-height="480"
   id="namedview120"
   showgrid="false"
   fit-margin-top="0"
   fit-margin-left="0"
   fit-margin-right="0"
   fit-margin-bottom="0"
   inkscape:zoom="0.45391304"
   inkscape:cx="249.82636"
   inkscape:cy="287.19986"
   inkscape:window-x="0"
   inkscape:window-y="0"
   inkscape:window-maximized="0"
   inkscape:current-layer="svg2" />
 <defs
   id="defs4">
  <style
   type="text/css"
   id="style6">
   
    .str1 {stroke:white;stroke-width:0.217296}
    .str0 {stroke:#F00000;stroke-width:0.534685}
    .fil1 {fill:#C0A062}
    .fil2 {fill:#EEEED4}
    .fil0 {fill:#F00000}
   
  </style>
 
  
  
 
   
   
   
   
   
   
   
   
   
   
   
   
   
   
   
   
   
   
   
   
   
   
   
   
   
   
   
   
   
   
   
   
   
   
   
   
   
   
   
   
   
   
   
   
   
   
   
   
   
   
   
   
   
   
   
   
   
   
   
   
   
   
   
   
   
   
   
   
   
   
   
   
   
   
   
   
   
   
   
   
   
   
   
   
   
   
   
   
   
   
   
   
   
   
   
   
   
   
   
   
   
   
   
   
   
   
   
   
   
  </defs>
 <path
   id="path1937"
   class="fil0 str0"
   d="M -1.2411002,0.8736881 501.0549,0.7519221 501.00841,335.88092 c -26.2121,322.406 -467.378992,323.842 -502.2149922,-0.33165 L -1.2410872,0.8742751 -1.2416575,0.87370477 z"
   inkscape:connector-curvature="0"
   style="fill:#f00000;stroke:#f00000;stroke-width:0.53468502" /><path
   id="_89019968"
   class="fil1"
   d="m 211.68232,390.34093 2.05918,0 c 18.7602,23.3231 44.384,32.6631 69.6662,9.79743 l 1.02945,-0.17196 13.0412,-20.2821 2.05918,0.34391 -13.2126,18.7351 3.26001,-2.40651 -2.57362,3.78158 c -23.953,22.5309 -38.0884,19.5455 -54.5855,10.2223 -7.65498,-4.32539 -13.8126,-9.86673 -20.7435,-20.0198 z m 3.94669,-27.3288 1.20112,-1.20311 3.43197,3.09376 1.02916,0.85949 c 16.7016,19.0211 32.66,28.131 61.6017,9.9691 l 5.49115,-1.89065 -5.14781,3.78101 c -31.9137,22.6977 -48.0564,10.9047 -67.6073,-14.6096 z m -44.1051,-4.52101 c 0.1902,15.1138 1.29551,32.4028 1.82934,48.3766 7.94043,8.14718 16.0976,12.7857 25.1824,17.2716 -3.3487,-12.0157 -7.21212,-21.1099 -9.87443,-35.3597 l 2.19207,0.49448 c 6.19551,22.5075 14.3778,44.0244 20.6831,49.6388 16.9574,10.1767 32.2297,15.5067 47.968,13.741 9.44297,-1.05939 19.0548,-4.78451 29.297,-11.2409 4.72975,-2.98169 10.5554,-6.16385 13.149,-12.5459 4.6194,-16.8832 11.641,-30.6724 13.8585,-50.6491 l 1.52535,-0.17196 c -0.0593,6.83028 -4.00059,23.1075 -10.0655,44.3207 6.50035,-4.1406 19.6932,-10.3435 19.501,-16.5464 l 0.68639,-45.2552 c -11.438,-15.8255 -23.5236,-24.0939 -33.8315,-25.8736 -10.9729,-1.89435 -20.024,3.16192 -27.2555,6.42963 -14.9435,6.75243 -17.5844,5.46634 -33.5588,0.87774 12.1626,8.57977 26.2056,15.2432 44.3204,18.319 -10.5873,1.6725 -27.369,-5.39162 -39.0038,-12.0049 -9.53508,-5.41986 -13.0711,-11.74 -21.8551,-14.6182 -6.3398,-2.07686 -13.3512,-0.33507 -19.963,2.51145 -11.0199,4.74458 -20.9323,13.7812 -24.7849,22.2848 z"
   inkscape:connector-curvature="0"
   style="fill:#c0a062" /><path
   id="_89016152"
   class="fil2"
   d="m 217.00232,373.66793 -5.14752,-5.32832 c 16.2436,32.7715 40.838,37.0681 74.8137,12.3753 l 0,-1.71898 c -28.7065,20.5795 -53.7158,21.5317 -69.6662,-5.32803 z"
   inkscape:connector-curvature="0"
   style="fill:#eeeed4" /><path
   id="_89016776"
   class="fil2"
   d="m 208.59432,395.15293 -7.03532,-7.73454 c 9.02492,15.7602 24.1829,34.8695 41.1822,37.6418 l 5.31919,-0.68753 -0.34305,-0.85949 c -12.3115,-0.44429 -27.8407,-11.4736 -39.123,-28.3603 z"
   inkscape:connector-curvature="0"
   style="fill:#eeeed4" /><path
   id="_89017160"
   class="fil2"
   d="m 265.39132,421.45093 c 15.9581,-5.41387 27.5113,-15.3254 34.3182,-32.6572 l 2.23056,-0.34391 c -4.02197,9.38394 -6.41851,14.9854 -12.6465,21.1912 -9.21427,9.18176 -14.0943,10.3207 -23.1677,11.9992 l -0.73459,-0.18935 z"
   inkscape:connector-curvature="0"
   style="fill:#eeeed4" /><path
   id="_89016008"
   class="fil2"
   d="m 190.85332,389.27393 c 6.19551,22.5075 14.3778,44.0244 20.6831,49.6388 1.4572,0.87432 2.90213,1.71327 4.33594,2.51487 l -0.24325,-1.75719 -1.3725,-0.68753 c -8.45316,-8.21704 -15.687,-31.0993 -23.1651,-51.0483 l -0.23811,1.33942 z m 131.746,-34.9396 c -9.94486,-11.7919 -20.1161,-18.114 -28.9742,-19.6431 -10.9729,-1.89407 -20.024,3.16192 -27.2555,6.42963 -14.9435,6.75243 -17.5844,5.46634 -33.5588,0.87774 1.33001,0.93819 2.68284,1.85415 4.06076,2.74443 22.0653,11.0713 40.2734,-10.1476 56.2962,-6.77411 20.6962,4.35704 21.9566,18.3644 31.7657,24.0118 l 0.17167,-2.23456 c -1.75092,-1.80396 -2.58588,-3.60791 -2.50575,-5.41187 z m -81.6566,-4.4674 c -0.96643,-0.51758 -1.90719,-1.038 -2.81544,-1.55415 -9.53508,-5.41929 -13.0711,-11.74 -21.8551,-14.6182 -6.3398,-2.07686 -13.3512,-0.33507 -19.963,2.51145 -11.0199,4.74458 -20.9323,13.7812 -24.7849,22.2848 0.1808,14.4051 0.98639,30.3727 1.52392,45.6681 1.55358,2.03979 2.87846,2.01669 3.97321,-0.0679 -0.97241,-15.2971 -1.25844,-30.9382 -2.91696,-45.892 4.05619,-7.77903 10.076,-13.3429 17.0974,-17.4727 6.2052,-3.65012 15.6348,-7.30309 23.6374,-4.74401 10.2976,3.29224 11.7893,9.89952 33.5643,19.6385 l 1.37279,-0.17195 -8.83357,-5.58211 z"
   inkscape:connector-curvature="0"
   style="fill:#eeeed4" /><path
   id="_89016824"
   class="fil1"
   d="m 186.12632,422.12093 0.76339,57.1224 c 1.33771,2.76297 3.88196,5.41044 7.97836,5.87213 l 1.05796,-19.2857 1.34199,-0.48649 c 0.49647,9.73042 -2.10794,26.7095 3.041,30.5717 3.37408,2.81715 9.84905,2.18237 14.7736,3.27399 l 1.18173,-21.8648 1.77287,1.18173 c -0.0471,8.22645 -2.22572,18.9618 1.79825,23.7212 2.37828,2.81287 6.60329,6.07574 12.9753,8.18967 3.18558,0 8.02598,2.51174 11.6256,2.01042 5.74152,-0.80018 20.8322,0.76424 30.1831,-2.01042 0.91281,-6.58533 7.84234,-13.0078 14.3307,-7.09121 3.47103,-0.92536 1.60092,-9.09878 4.72747,-26.5925 0.71377,3.24376 -0.12291,14.7716 0.59086,24.2285 1.50282,0.61738 7.48531,-1.18173 11.2278,-1.77259 2.33836,-0.67242 4.49478,-3.23321 4.90228,-6.7339 0.95331,-8.19395 0.67641,-15.1674 1.86869,-32.3412 0.27091,-0.96244 2.26478,-0.88943 2.36402,-0.29857 -0.0904,9.38166 -2.076,14.1037 -0.61539,28.4909 2.51174,1.7281 5.196,-3.44822 10.9814,-4.48166 -0.11463,-23.7529 0.80389,-47.5057 1.20625,-71.2583 -7.64899,6.98912 -12.1968,8.80021 -19.8458,11.6462 -0.25664,7.32305 -3.26999,11.8848 -9.03918,13.6854 -28.3982,22.8683 -53.2575,24.1159 -77.7874,8.37018 -6.45957,-4.14659 -11.0476,-3.06467 -19.6647,-18.4106 l -11.8945,-6.33524 -1.84559,0.59885 z"
   inkscape:connector-curvature="0"
   style="fill:#c0a062" /><path
   id="_89018648"
   class="fil2"
   d="m 187.97132,421.52193 -1.84559,0.59885 0.76339,57.1224 c 1.33771,2.76297 3.88196,5.41044 7.97836,5.87213 l 0.13887,-2.53084 -6.22488,-3.28054 c -0.79276,-11.5116 -0.91395,-26.9684 -1.16918,-39.8336 -0.14315,-7.21554 1.10273,-13.8551 0.35903,-17.9483 z m 9.29611,43.8211 c 0.49647,9.73042 -2.10794,26.7095 3.041,30.5717 1.26499,1.05654 2.96686,1.62744 4.85865,1.98589 1.02774,-0.67613 1.02203,-2.04236 -0.0171,-2.54596 -9.30524,-2.35575 -4.76825,-9.94999 -6.20292,-34.5176 l -1.03372,0.69039 -0.6459,3.81551 z m 20.7692,13.1627 c -0.0471,8.22645 -2.22572,18.9618 1.79825,23.7212 0.89171,1.05454 2.04321,2.17325 3.47046,3.26999 l 1.83105,-0.47708 c -7.40946,-3.56714 -6.14617,-13.9229 -5.51367,-33.6547 l -1.20596,0.34505 -0.38013,6.79549 z"
   inkscape:connector-curvature="0"
   style="fill:#eeeed4" /><path
   id="_89019728"
   class="fil2"
   d="m 292.33332,474.47093 c -2.87133,10.0102 -0.23013,24.6802 -4.47966,26.9239 2.87105,-8.97444 -1.14922,-18.6393 4.47966,-26.9239 z"
   inkscape:connector-curvature="0"
   style="fill:#eeeed4" /><path
   id="_89019872"
   class="fil2"
   d="m 305.25532,498.46093 0.68953,-3.45193 c 3.61818,-2.41564 1.20539,-16.5681 4.6519,-37.2788 l 1.37849,-0.51729 c -4.47995,27.0388 0.34448,38.0271 -6.71992,41.248 z"
   inkscape:connector-curvature="0"
   style="fill:#eeeed4" /><path
   id="_89018624"
   class="fil1"
   d="m 126.63232,344.63093 8.06391,-1.36651 c 3.4391,-0.91367 18.5147,12.3191 34.5027,14.1436 l 1.60206,51.9757 13.1533,9.34088 0.53155,54.0209 c -10.5326,-3.57911 -16.3303,-1.42839 -34.7334,-7.00652 -10.2027,-3.09233 -20.7193,-8.83671 -30.6496,-12.6154 3.98262,-7.30052 10.3173,-25.8292 13.7766,-43.437 5.6765,-28.8913 11.0573,-61.4945 -5.64371,-64.2498 l -0.60341,-0.80588 z"
   inkscape:connector-curvature="0"
   style="fill:#c0a062" /><path
   id="_89017376"
   class="fil2"
   d="m 163.26732,356.23893 c -13.6432,-3.74251 -25.562,-13.7732 -28.571,-12.9742 l -8.06391,1.36651 0.60341,0.80588 c 16.701,2.75527 11.3202,35.3585 5.64371,64.2498 -2.91867,14.8566 -7.88426,30.369 -11.7574,39.2388 l 0.36957,2.84823 2.28161,-2.05348 c 13.6506,-33.3755 24.8017,-93.7051 8.8983,-104.498 5.49457,-2.33893 2.9469,5.91291 35.1372,15.0587 l -0.91281,-1.82534 -3.62873,-2.21659 z"
   inkscape:connector-curvature="0"
   style="fill:#eeeed4" /><path
   id="_89019392"
   class="fil1"
   d="m 121.26432,439.90993 c -6.19722,-4.06789 -13.3466,-9.08794 -20.7626,-14.3743 5.70445,-12.1871 11.4089,-25.0777 17.1119,-39.7002 4.10695,4.18309 9.20201,8.36676 15.7434,12.549 -3.17532,13.8422 -7.09264,27.6839 -12.0927,41.5255 z"
   inkscape:connector-curvature="0"
   style="fill:#c0a062" /><path
   id="_89016416"
   class="fil2"
   d="m 100.50132,425.53493 c 5.34771,-11.4252 10.6957,-23.4688 16.0428,-36.9783 0.73687,-1.59179 2.38598,0.23897 2.21003,0.70065 -5.39989,12.1686 -10.5717,26.3906 -16.1994,36.5057 l -2.05348,-0.22813 z"
   inkscape:connector-curvature="0"
   style="fill:#eeeed4" /><path
   id="_89017712"
   class="fil1"
   d="m 133.58532,396.10293 c 0.91253,-13.8419 4.79135,-30.4217 1.36908,-43.579 -6.35948,-3.22351 -15.8732,-13.8704 -17.3361,-19.9858 -1.66366,-6.95462 -5.66196,-7.44111 -9.60409,-9.60409 -9.366257,-5.13897 -10.531397,-2.90584 -14.445597,-0.99694 -9.47947,4.6231 -24.1221,-6.94407 -24.3252,-2.72476 l 0,5.93201 c 16.7321,10.1912 19.7742,5.32375 22.8164,10.0393 l 1.36879,6.16043 c -6.27393,-2.54824 -13.8034,-2.62438 -21.9036,-0.91281 l 0.456265,4.56322 c 13.9457,3.02789 21.0056,3.67094 29.846802,15.3014 8.27151,10.8811 15.4303,26.2195 31.7572,35.8071 z m -30.8019,-71.643 c 3.27028,18.7853 9.96311,13.6138 11.1799,4.33509 l -1.14095,-0.45626 c -2.66173,9.12644 -5.55189,12.7771 -8.8983,-3.19442 l -1.14066,-0.6844 z m -3.582527,1.57497 c 1.146367,1.07935 1.585517,2.47638 0.981817,3.118 -0.603977,0.64134 -2.024952,0.0587 -3.171602,-1.02032 -1.14637,-1.07935 -1.81394,-2.24824 -1.20996,-2.88958 0.603981,-0.64162 2.25309,-0.28716 3.399735,0.7919 z"
   inkscape:connector-curvature="0"
   style="fill:#c0a062" /><path
   id="_89019224"
   class="fil2"
   d="m 69.242923,325.14393 c 0.784205,0.47765 1.53818,0.92251 2.26421,1.33686 l -0.210737,-5.67194 c 26.9992,11.4842 21.143,-3.49841 32.399094,2.28161 1.40387,7.70061 3.11201,12.0542 5.12442,13.0609 -0.9168,-4.02967 -2.74614,-8.05935 -2.75042,-12.0896 1.79455,2.33836 5.41444,2.16669 8.12151,3.59194 l 1.77886,0.75369 c -2.01156,-3.17218 -4.99981,-3.85173 -7.95612,-5.47375 -9.366257,-5.13897 -10.531394,-2.90584 -14.445594,-0.99694 -6.51717,3.17817 -15.4742,-1.29579 -20.5023,-3.03102 l -3.82293,2.58788 m 4.02568,23.7782 c -0.4229,-0.0901 -0.851789,-0.18336 -1.28781,-0.27775 l -0.456265,-4.56322 c 8.10013,-1.71156 15.6296,-1.63542 21.9036,0.91282 l -1.36879,-6.16043 1.59693,-0.45627 c -0.132887,2.45271 2.15785,7.18731 0.317674,8.38472 -4.24982,2.76582 -3.05555,-3.87854 -20.3959,-0.85549 l -0.309405,3.01563 z m 44.267994,36.9831 c -5.8861,-6.99967 -10.2263,-14.497 -14.7921,-20.7301 l 2.32011,-1.01576 c 3.93386,7.54862 8.535,14.9646 15.515,21.9036 l -3.043,-0.15769 z m 8.36191,-37.0498 c 3.00793,3.1776 6.32297,5.93344 9.05543,7.31849 -3.46733,-0.30997 -8.49422,-1.64598 -18.2532,-14.1462 l 1.59721,-0.45626 c 2.53398,3.57426 5.06739,5.54362 7.60052,7.28398 z"
   inkscape:connector-curvature="0"
   style="fill:#eeeed4" /><path
   id="_89019680"
   class="fil1"
   d="m 342.29532,358.32193 c 0.21159,-3.01135 11.0405,-4.74686 19.8287,-12.2521 2.14159,-1.44322 2.64947,1.40187 6.83342,2.00101 -1.12384,1.71641 -3.26857,3.02447 -5.20912,2.69909 -3.94213,3.84032 -4.07273,13.5873 -0.63506,29.317 2.73702,12.5236 3.43881,27.1543 9.30951,44.311 2.82456,8.25469 8.72521,23.764 8.89631,27.0816 -2.3221,3.94869 -30.7132,16.4053 -41.8825,18.5825 1.02118,-37.655 1.83789,-74.0849 2.85878,-111.74 z"
   inkscape:connector-curvature="0"
   style="fill:#c0a062" /><path
   id="_89016944"
   class="fil2"
   d="m 361.64832,349.52793 c -7.26773,3.95268 -13.7185,7.70089 -19.3528,8.7945 0.21159,-3.01135 11.0405,-4.74686 19.8287,-12.2521 2.14159,-1.44322 2.64947,1.40187 6.83342,2.00101 -1.12384,1.71641 -3.26857,3.02447 -5.20912,2.69909 l -2.10024,-1.24247 z"
   inkscape:connector-curvature="0"
   style="fill:#eeeed4" /><path
   id="_89019248"
   class="fil1"
   d="m 368.79532,396.49493 c 0.23783,-1.02232 11.8093,-10.6871 13.8858,-10.2104 4.21161,12.831 8.8561,25.0837 14.7028,35.7358 -6.73932,4.42406 -12.9334,8.03169 -18.5828,10.8229 -5.37737,-11.9119 -7.69177,-24.4364 -10.0059,-36.3483 z"
   inkscape:connector-curvature="0"
   style="fill:#c0a062" /><path
   id="_89017064"
   class="fil1"
   d="m 365.32332,351.77393 c -5.49828,4.2541 -0.73544,24.0375 3.06296,43.0874 34.1024,-23.9602 14.4987,-45.4696 60.0365,-48.6008 0.27233,-1.70187 -0.27233,-2.99509 -1.02089,-3.87996 -3.19956,-2.04207 -10.2788,-1.49712 -20.0121,0.817 0.27091,-1.21081 -0.95302,-3.52265 1.44151,-4.54982 2.10623,-0.90341 17.0304,-6.83485 19.9679,-9.66141 1.27412,-1.22593 0.0898,-3.66352 0.44058,-6.0053 -14.1465,3.32788 -19.7574,6.57734 -24.4698,2.83683 -2.63693,-2.09254 -4.92082,-2.87361 -13.0691,-0.85236 -8.9425,2.21802 -10.4085,2.45299 -11.4408,5.86129 -3.11144,10.2717 -7.59111,18.3638 -14.9367,20.9471 z m 18.9912,-20.0121 c 3.94783,13.818 8.91684,10.891 11.6396,-2.04207 0.34049,-1.36138 -2.17809,-1.4974 -2.45043,-1.02089 -0.17024,5.68392 -2.04236,9.86188 -3.57426,9.87813 -2.34777,0.0251 -2.72219,-4.90912 -5.61491,-6.81517 z m 17.3575,-3.47132 c 0.67641,0.40836 1.42953,1.25558 1.02089,2.75641 -0.40836,1.50111 -1.56955,1.73609 -2.24625,1.73609 -0.67641,0 -0.81671,-1.05198 -0.61253,-2.34862 0.20417,-1.29665 1.16148,-2.55223 1.83789,-2.14387 z"
   inkscape:connector-curvature="0"
   style="fill:#c0a062" /><path
   id="_89018240"
   class="fil2 str1"
   d="m 388.25032,373.60293 c -0.39781,-3.9119 4.81388,-12.5145 7.40176,-13.344 -2.46725,4.44801 -4.9345,8.89602 -7.40176,13.344 z m 19.14,-30.4052 c 9.73327,-2.31412 16.8125,-2.85907 20.0121,-0.817 l -1.22536,1.42953 c -3.34898,-1.99388 -10.3273,-0.18878 -18.7867,0.81671 l 0,-1.42925 z m 21.8123,-18.4622 c -0.0416,-0.57746 -0.0499,-1.16889 0.0376,-1.75434 -14.1465,3.32788 -19.7574,6.57734 -24.4698,2.83683 -2.63693,-2.09254 -4.92082,-2.87361 -13.0691,-0.85236 -8.9425,2.21802 -10.4085,2.45299 -11.4408,5.86129 -3.11144,10.2717 -7.59111,18.3638 -14.9367,20.9471 -0.85892,0.66444 -1.46746,1.70871 -1.86812,3.06924 6.23771,0.34049 16.7304,-13.3426 19.4298,-25.5317 7.6259,-2.03123 16.7224,-5.21311 19.4152,-2.20975 3.1334,3.49584 11.1477,2.30613 26.9019,-2.3663 z"
   inkscape:connector-curvature="0"
   style="fill:#eeeed4;stroke:#ffffff;stroke-width:0.217296" /><path
   id="_89019848"
   class="fil1"
   d="m 339.50132,472.37093 c 2.55166,0.11407 5.32461,-0.75027 9.87043,-2.47866 l 1.21652,-0.21815 c 1.40273,6.34237 2.2049,10.6581 10.39,14.7048 10.3515,5.11787 15.7451,17.7071 11.4209,19.6719 l -33.4151,-0.40323 c 0,-10.7904 0.51729,-20.4866 0.51729,-31.2767 z"
   inkscape:connector-curvature="0"
   style="fill:#c0a062" /><path
   id="_89018024"
   class="fil2"
   d="m 349.37232,469.89193 1.21652,-0.21815 c 1.40273,6.34237 2.2049,10.6581 10.39,14.7048 6.62867,4.18195 11.2044,9.83194 11.3946,18.6219 -0.6325,0.88258 -1.49484,0.26862 -2.06916,-1.1515 -1.76261,-15.7785 -16.6959,-15.6037 -20.0799,-24.372 -0.88031,-2.28075 -2.07429,-3.61276 -0.85208,-7.58512 z"
   inkscape:connector-curvature="0"
   style="fill:#eeeed4" /><path
   id="_89018504"
   class="fil1"
   d="m 324.48032,485.35193 0,18.3669 c -8.42293,-3.01705 -7.98549,-6.03382 -11.9784,-9.0503 l 0.70949,-4.52529 c 5.05627,0.52927 7.27657,-3.19442 11.2689,-4.79135 z"
   inkscape:connector-curvature="0"
   style="fill:#c0a062" /><path
   id="_89019776"
   class="fil1"
   d="m 127.14432,501.10593 54.7566,0.17737 c 1.96023,-0.2287 2.95717,-2.11137 4.48879,-4.03709 2.06061,-2.59073 5.18032,-3.68263 6.67515,-9.6078 -7.62076,-1.65282 -9.39307,-6.55567 -8.50592,-12.9362 -12.9961,-1.48343 -25.9914,-3.94897 -38.9853,-7.797 0.98182,13.6081 -5.80625,15.2421 -11.6199,18.7191 -5.45978,3.26629 -9.07054,13.4036 -6.80947,15.4816 z"
   inkscape:connector-curvature="0"
   style="fill:#c0a062" /><path
   id="_89018744"
   class="fil2"
   d="m 147.96432,467.59693 c -0.79818,-0.22585 -1.59522,-0.45655 -2.39083,-0.6921 0.98182,13.6081 -5.80625,15.2421 -11.6199,18.7191 -5.45978,3.26629 -9.07054,13.4036 -6.80947,15.4816 l 1.77202,-1.24047 c 0.85607,-17.8442 20.496,-10.1707 19.0482,-32.2682 z"
   inkscape:connector-curvature="0"
   style="fill:#eeeed4" /><path
   id="_89017424"
   class="fil1"
   d="m 169.49632,512.44693 c -4.77738,2.72333 -9.45808,6.25311 -13.2904,9.92347 -3.69175,-0.38412 -9.18974,-0.47166 -13.0244,0.44258 -5.81766,1.38676 -8.37474,8.99612 -11.7845,9.12644 -2.36117,0.0907 -2.64149,-3.84888 -1.81137,-8.70553 0.75369,-4.41037 3.75706,-11.2284 11.0459,-12.0331 10.337,-1.14152 11.3407,-10.1713 18.0421,-9.29525 6.73105,0.87973 0.59742,5.8265 10.8226,10.5414 z"
   inkscape:connector-curvature="0"
   style="fill:#c0a062" /><path
   id="_89016608"
   class="fil2"
   d="m 169.49632,512.44693 c -10.2252,-4.71493 -4.09155,-9.66169 -10.8226,-10.5414 -6.70139,-0.87603 -7.70517,8.15374 -18.0421,9.29525 -7.28883,0.80474 -10.2922,7.62333 -11.0459,12.0331 -0.25893,1.51737 -0.41035,2.94604 -0.42319,4.18908 0.0952,1.38733 1.07621,3.83776 1.8801,3.63044 l 2.12648,-2.48094 -1.77202,-0.70864 c 1.87924,-16.1518 5.51653,-12.908 12.973,-14.6971 7.26716,-1.74379 9.94172,-8.86722 13.7247,-9.34202 3.91789,-0.49219 1.63514,9.11503 11.4015,8.62226 z"
   inkscape:connector-curvature="0"
   style="fill:#eeeed4" /><path
   id="_89017016"
   class="fil1"
   d="m 220.53132,506.95393 c -4.01456,-6.53799 -7.63274,-5.40132 -11.9071,-6.24569 -6.24826,-1.23363 -12.0326,-2.08484 -13.6107,-8.99412 -7.09435,4.68185 -10.2491,10.0375 -16.095,16.3212 -9.33404,10.0333 -15.874,7.59909 -22.3587,20.3605 17.3552,7.16535 29.7211,1.11956 39.8641,-8.87749 5.53848,-5.45864 15.8361,-9.26075 24.1073,-12.5644 z"
   inkscape:connector-curvature="0"
   style="fill:#c0a062" /><path
   id="_89016800"
   class="fil2"
   d="m 169.38532,531.48193 c -3.95781,-0.21216 -8.2159,-1.18372 -12.8256,-3.08692 6.48466,-12.7614 13.0246,-10.3278 22.3587,-20.3605 5.29723,-5.69418 8.38586,-10.6264 14.1981,-14.986 l 0.65645,2.0318 c -8.82102,5.0058 -10.7832,12.2866 -15.9878,16.9856 -5.8918,5.31919 -13.1367,6.95005 -17.504,12.9622 -0.82698,4.31199 11.6365,4.01656 15.9485,3.36695 l 0,0.70892 c -2.28075,1.05426 -4.56208,1.79512 -6.84426,2.378 z"
   inkscape:connector-curvature="0"
   style="fill:#eeeed4" /><path
   id="_89018840"
   class="fil1"
   d="m 221.41732,509.07993 c -36.8,11.9909 -22.7417,27.7033 -56.1745,24.2773 2.65346,8.56238 9.64601,21.6535 18.26,21.3187 15.1352,-0.58887 36.8839,-17.6332 37.9145,-45.596 z"
   inkscape:connector-curvature="0"
   style="fill:#c0a062" /><path
   id="_89019704"
   class="fil2"
   d="m 168.24132,533.62293 c -0.9553,-0.0704 -1.95367,-0.15912 -2.99823,-0.26577 2.65346,8.56238 9.64601,21.6535 18.26,21.3187 0.94561,-0.0365 1.91774,-0.13802 2.90812,-0.30199 l 1.51423,-1.34684 c -7.89081,1.50567 -14.6301,-3.89907 -19.6841,-19.4041 z m 21.4376,-4.68527 c 0.64961,4.452 8.37845,-5.88924 15.4711,-9.58441 5.65141,-2.94433 10.4205,-7.21155 10.7425,-8.30487 -16.4726,6.42478 -20.5676,13.3497 -26.2136,17.8893 z"
   inkscape:connector-curvature="0"
   style="fill:#eeeed4" /><path
   id="_89016752"
   class="fil1"
   d="m 212.38032,541.86293 c 5.02062,0 9.68679,-1.59465 15.0624,-1.59465 5.21225,-7.33132 7.84091,-16.4723 8.32854,-27.1127 l -10.8095,-2.65803 c -2.43674,14.4724 -6.83798,24.4549 -12.5815,31.3654 z"
   inkscape:connector-curvature="0"
   style="fill:#c0a062" /><path
   id="_89017280"
   class="fil2"
   d="m 214.24832,541.79393 c 5.82336,-7.63445 9.37966,-16.7538 12.1324,-30.9479 l -1.4187,-0.34904 c -2.43674,14.4724 -6.83798,24.4549 -12.5815,31.3654 0.62736,0 1.2496,-0.0251 1.86783,-0.0684 z"
   inkscape:connector-curvature="0"
   style="fill:#eeeed4" /><path
   id="_89016272"
   class="fil1"
   d="m 237.89732,513.68693 3.2871,0.88601 c 0.30912,12.0713 -2.85878,19.8461 -7.89424,27.1124 l -3.54432,-0.88601 c 5.7304,-10.5437 7.73854,-18.6957 8.15146,-27.1124 z"
   inkscape:connector-curvature="0"
   style="fill:#c0a062" /><path
   id="_89019608"
   class="fil2"
   d="m 238.58832,513.87893 c -0.68383,11.9946 -3.69204,20.407 -7.75793,27.1914 l -1.0842,-0.27062 c 5.7304,-10.5437 7.73854,-18.6957 8.15146,-27.1124 l 0.69067,0.19163 z"
   inkscape:connector-curvature="0"
   style="fill:#eeeed4" /><path
   id="_89018312"
   class="fil1"
   d="m 243.52032,515.27793 c 21.767,0.81757 20.3106,-0.90882 30.4659,-1.36309 -0.81101,1.39902 -1.13296,2.05804 -1.45548,4.10154 -3.39917,3.90876 -6.21176,21.4396 5.89865,22.6496 l -2.92124,3.99659 c -3.45763,2.44273 -7.64158,4.158 -10.3729,7.3279 l -3.30678,-0.41406 c 3.10488,-3.41372 5.83791,-7.04045 7.24748,-11.424 l -1.27497,0.42889 c -2.65033,4.41978 -5.30009,8.17313 -7.94899,11.6236 l -2.90983,0.15513 -0.10551,0.77052 c 7.98435,1.8128 9.5077,0.008 13.8302,0.23041 3.22094,0.16625 2.78407,0.0579 6.93465,-0.74542 -0.0556,4.1252 0.1768,6.99283 1.33258,7.96752 l 1.49626,0.0687 c -1.67934,-2.24967 -1.27155,-5.04429 -1.95253,-7.65698 2.51573,-3.08036 4.85751,-4.88603 7.18731,-7.78673 3.13882,-3.90762 7.36297,-0.10095 11.588,0.25779 0.16397,1.66137 -3.93528,3.77816 -3.31819,5.43896 0.54495,1.46632 3.72198,3.38691 6.80719,3.94441 0.5401,1.84417 -0.009,3.56628 -1.6454,5.16805 0.018,4.09127 -3.04357,6.19864 -6.43219,6.03667 -4.35647,-0.20788 -9.60979,-3.39661 -13.3118,-2.78721 -11.0824,4.45172 -19.4346,5.3882 -28.1724,5.99817 -6.11281,0.42661 -9.8365,0.20247 -12.1047,-3.09034 -4.04735,-5.29011 -1.87183,-9.24934 2.73588,-14.7804 11.1223,-13.3509 12.0371,-9.33831 14.6535,-24.1849 l -1.33372,-0.23269 c -1.45691,3.20583 -1.59864,6.86593 -3.24832,10.0258 -1.64968,3.1602 -4.80732,5.8208 -6.85367,9.20828 -5.08079,-0.90056 -8.23301,-2.28389 -10.4108,-3.91019 3.91361,-5.78202 9.49744,-16.0725 8.90173,-27.0226 z"
   inkscape:connector-curvature="0"
   style="fill:#c0a062" /><path
   id="_89016920"
   class="fil2"
   d="m 276.89132,553.65893 c -4.21475,2.50204 -10.2999,2.73759 -19.1417,1.81736 l 0.16825,-2.11479 c 0.88144,0.1768 1.67763,0.30627 2.40366,0.39752 4.10125,1.26842 8.86836,0.87147 13.9389,-0.28203 l 2.63094,0.18194 z m 23.851,1.18971 c 0.0673,0.23041 0.11806,0.4594 0.15114,0.68582 m -59.2363,12.9009 c -1.02146,-0.50331 -1.87268,-1.23277 -2.58132,-2.26136 -4.04735,-5.29011 -1.87183,-9.24934 2.73588,-14.7804 9.73184,-11.6818 11.649,-10.0703 13.7287,-19.4306 0.85663,-1.06823 1.41185,-3.28739 1.93713,-5.83819 l 0.54409,-0.90882 -0.63506,7.99661 3.62873,-5.3614 -2.9e-4,1.99901 c -4.62453,7.75536 -9.12843,12.4155 -14.9823,19.3277 -4.41721,5.21625 -10.7716,8.82131 -4.79392,16.9303 l 0.36274,1.72639"
   inkscape:connector-curvature="0"
   style="fill:#eeeed4" /><path
   id="_89017568"
   class="fil2"
   d="m 282.42532,552.29593 -1.45149,-0.81785 c 0.66558,-1.21168 2.41906,-2.2414 3.62873,-3.36211 l -0.0907,-0.81785 c 1.26984,-1.2995 2.29957,-2.64833 4.65846,-2.81744 1.23534,-0.0887 3.29765,-0.0525 4.95789,0.90911 l 0.18136,0.9995 c -1.87496,-0.0604 -4.11266,-1.02945 -5.6246,-0.18193 l -6.25965,6.08857 z"
   inkscape:connector-curvature="0"
   style="fill:#eeeed4" /><path
   id="_108094096"
   class="fil2"
   d="m 294.58132,552.20493 -0.72603,1.18144 c 1.45121,1.05967 2.9027,1.99815 4.35448,2.81686 l 2.35889,0 c -1.99587,-1.09047 -3.99203,-2.42362 -5.98733,-3.99831 z"
   inkscape:connector-curvature="0"
   style="fill:#eeeed4" /><path
   id="_108093160"
   class="fil1"
   d="m 277.25432,514.76593 c -2.91439,-3.78244 -0.41321,-7.24149 2.71363,-10.8697 2.54938,-2.95802 5.50227,-1.25017 8.71694,2.32781 l 0.99779,0.18165 c 4.12036,-3.41201 9.41902,-3.8255 13.5513,-1.52022 4.13262,2.30471 7.10632,7.33189 6.55595,13.7073 -0.38554,4.47111 -3.08749,7.66753 -6.7453,10.6635 -3.6581,2.99566 -6.45928,5.42841 -12.4891,7.28056 -7.46905,2.29416 -9.69534,1.86641 -12.1592,0.89941 -9.9845,-3.91846 -8.29062,-15.2626 -1.14209,-22.6704 z m 3.99175,18.538 c 0.72546,-2.90755 -0.84637,-4.9673 -4.71749,-6.17954 -0.967,-0.0904 -0.21159,-1.27212 0.36302,-1.36281 5.07766,0.96956 8.44118,4.2407 6.35007,8.17855 -0.66529,0.87803 -2.14701,0.12091 -1.99559,-0.6362 z m 4.89857,-8.45116 c -0.84637,-0.061 -1.78343,-0.667 -1.17916,1.99901 3.68919,5.69504 5.0192,-2.42334 9.97908,-4.99781 -0.51444,2.24197 -0.30256,3.87682 0.63506,4.90684 l 1.72354,-0.54495 -0.36301,-1.63571 c 0.63592,0.11663 1.39161,0.0519 1.54246,3.08948 l 1.90519,-0.6362 c 0.0305,-3.12 -1.60292,-4.2407 -3.99175,-4.45257 l -0.091,-0.90883 c 1.2399,-1.21138 3.02418,-1.33229 3.7197,-3.63443 0.0605,-0.36358 -1.33058,-0.90882 -1.72354,0 -0.40864,0.81814 -1.31689,1.24218 -2.44957,2.3626 -8.37674,0.96928 -2.51003,4.21018 -6.89445,5.08878 l -0.18165,0.99951 -0.99779,-0.18165 -1.63314,-1.45406 z m 9.43499,-6.90614 c -2.82685,1.13667 -5.85131,0.4999 -9.16265,-2.72618 0.49476,-0.76367 0.76225,-1.49712 1.9953,-1.27241 l 1.08905,0.99979 c -0.51358,-0.96899 -0.45284,-2.02924 0,-3.72597 0.24239,-0.69666 1.84474,-0.30256 1.81422,0.091 -0.25693,1.06053 -0.014,2.69681 0.4537,4.72548 1.27013,0.42461 1.36109,1.57525 3.81038,1.90833 z m -12.1657,-11.2609 c -0.70664,-0.25494 -2.0358,0.7862 -2.63179,2.2568 -0.59571,1.4706 -0.68696,3.01677 0.02,3.27199 0.70693,0.25494 1.30948,-0.87859 2.54054,-2.076 1.23077,-1.19741 0.77822,-3.19813 0.0713,-3.45278 z"
   inkscape:connector-curvature="0"
   style="fill:#c0a062" /><path
   id="_108097000"
   class="fil2"
   d="m 273.33632,533.76093 c -3.63358,-4.85808 -1.86897,-12.267 2.92095,-17.8947 l 1.63229,0.0804 0,0.90882 c -6.83371,4.75571 -5.29153,16.3568 -0.54438,16.2661 0.60483,0.42404 -0.0605,1.39332 -0.63507,1.27241 -1.12412,0.27347 -2.24853,0.0625 -3.37378,-0.63307 z m 15.3487,-27.5373 c -3.21467,-3.57797 -6.16756,-5.28554 -8.71694,-2.32781 -2.8334,3.28796 -5.15294,6.43704 -3.39432,9.81369 0.83211,0.50503 1.66366,0.37157 2.49491,0.14714 l 0,-0.90825 c -2.38997,-1.65339 0.0453,-7.13741 2.25053,-8.59375 0.93106,-0.6151 4.12863,0.51872 5.642,3.77702 0.57461,0.21388 1.15007,0.27462 1.72383,-0.7266 l 0,-1.18144 z m 7.76905,-2.72248 c -2.35661,0.24153 -4.71122,1.19827 -6.77125,2.90413 -0.30228,0.54495 0.30256,1.81736 0.72603,1.72639 7.23836,-4.96815 13.0817,-1.334 18.1434,7.27001 l 0.99836,-0.27262 c -2.02239,-6.45871 -6.59987,-11.0465 -13.0965,-11.6279 z"
   inkscape:connector-curvature="0"
   style="fill:#eeeed4" /><path
   id="_108095872"
   class="fil2"
   d="m 292.94832,511.40393 -1.17944,1.27212 c 0.16597,2.22572 0.77052,4.07359 2.63094,5.08878 l 1.36081,-0.72689 -0.18137,-0.45455 c -1.90548,-0.81814 -1.90548,-3.18102 -2.63094,-5.17946 z"
   inkscape:connector-curvature="0"
   style="fill:#eeeed4" /><path
   id="_108095368"
   class="fil2"
   d="m 290.68032,523.67093 c 0.0605,0.4845 -0.24125,0.96842 -0.90711,1.45377 -0.81557,0.27347 -1.66052,0.48478 -2.72162,0.27262 -0.87689,-0.69666 -0.90683,-1.39332 -0.091,-2.08998 1.08933,1.03315 2.3894,0.78934 3.7197,0.36358 z"
   inkscape:connector-curvature="0"
   style="fill:#eeeed4" /><path
   id="_108094336"
   class="fil2"
   d="m 300.20632,520.85393 -0.9074,-0.45427 c -1.634,2.49862 -0.27262,3.16534 2.44929,2.9988 l -0.0904,-0.99979 c -1.8838,-0.51529 -1.98931,-1.0303 -1.45149,-1.54474 z"
   inkscape:connector-curvature="0"
   style="fill:#eeeed4" /><path
   id="_108095752"
   class="fil1"
   d="m 343.02532,532.43693 c -15.9564,1.94825 -25.5819,-0.45427 -31.1994,-6.24569 -1.85529,-1.9126 -0.17737,-3.05184 0.7959,-7.20499 1.04199,-4.44573 -2.79719,-13.0383 -9.99876,-16.5134 4.95304,-0.8746 8.3351,-2.69253 9.63346,-5.76405 7.56658,8.70354 15.9416,13.5425 26.3493,18.8129 3.61989,1.83333 11.1015,4.11665 13.1364,7.67922 0.92593,1.62145 1.35796,3.78072 -0.018,4.4001 -2.35917,1.06224 -5.82422,4.48508 -8.69897,4.83584 z"
   inkscape:connector-curvature="0"
   style="fill:#c0a062" /><path
   id="_108094576"
   class="fil2"
   d="m 345.28332,518.48193 c -2.43503,-1.14266 -4.9807,-2.10081 -6.67744,-2.96002 -10.0817,-5.10532 -18.2574,-9.80627 -25.6375,-18.0079 l -0.95702,1.28324 c 11.075,16.3545 33.6584,18.9846 38.1563,27.2416 0.43403,0.27461 2.1011,0.34305 1.30178,-1.02916 -0.80388,-2.17553 -3.18615,-4.35134 -6.1861,-6.52772 z m -32.5226,-0.37528 c -0.0271,0.30798 -0.0739,0.60256 -0.13888,0.87974 -0.60797,2.59558 -1.4917,4.01456 -1.61575,5.18003 5.00836,5.69105 13.6266,9.03746 22.7208,6.12678 l 0,-0.892 c -8.67388,1.42412 -16.1466,-1.37792 -20.9619,-6.58704 0.20447,-2.04948 0.54524,-3.55003 -0.004,-4.70751 z"
   inkscape:connector-curvature="0"
   style="fill:#eeeed4" /><path
   id="_108093832"
   class="fil1"
   d="m 300.22932,545.11493 c 5.22822,-1.69018 13.6777,-7.25661 21.6472,-10.6361 3.0373,1.55643 5.60521,1.77173 7.98235,1.97506 2.23285,0.19135 4.30628,0.42233 6.19779,0.28944 -1.13867,4.61569 -1.1977,9.1099 2.60328,13.1749 -3.43083,4.20277 -9.31065,7.43911 -18.7699,9.26332 2.18608,-4.18024 3.45278,-9.01836 3.08235,-15.0274 -3.49328,-1.53276 -9.11075,6.06148 -20.1398,9.60666 -0.59771,-1.66822 -5.92346,-1.48429 -6.384,-3.01505 -0.21558,-0.71719 0.83126,-1.52022 1.65567,-2.59244 0.72689,-0.94561 0.61168,-1.94255 2.12505,-3.03844 z"
   inkscape:connector-curvature="0"
   style="fill:#c0a062" /><path
   id="_108094408"
   class="fil2"
   d="m 322.99332,535.00193 c -0.3653,-0.15513 -0.73772,-0.32908 -1.11728,-0.52356 -7.96924,3.4083 -16.4181,9.2867 -21.6472,10.6361 -0.20532,0.75483 0.3191,1.14323 1.57582,1.16633 7.06241,-3.48929 14.1248,-7.23978 21.1887,-11.2789 z m 13.6994,16.9719 c 0.73002,-0.65588 1.38362,-1.34227 1.96679,-2.05604 -0.35646,-0.38098 -0.67898,-0.76595 -0.96985,-1.15464 -0.0759,1.45463 -0.54837,2.31469 -0.99694,3.21068 z m -14.2363,6.6569 c -0.8247,0.19562 -1.67991,0.37955 -2.56677,0.55037 0.13659,-0.26121 0.26948,-0.52528 0.39895,-0.79162 0.60769,0.1942 1.37592,0.2287 2.16783,0.24125 z"
   inkscape:connector-curvature="0"
   style="fill:#eeeed4" /><path
   id="_108096616"
   class="fil2"
   d="m 324.27432,544.22293 c -0.66215,3.93386 -0.22785,7.18218 -1.98646,11.8024 -0.14772,0.92964 0.95074,0.38469 1.23277,0 1.82677,-3.29395 1.18771,-7.27372 2.19235,-10.4989 l -1.43866,-1.30349 z"
   inkscape:connector-curvature="0"
   style="fill:#eeeed4" /><polygon
   id="_108096424"
   class="fil1"
   points="345.526,186.026 337.898,509.784 327.87,503.916 336.671,174.878 "
   style="fill:#c0a062"
   transform="translate(-1.6836772,0.3019311)" /><polygon
   id="_108096352"
   class="fil2"
   points="338.348,176.99 329.904,505.106 327.87,503.916 336.671,174.878 "
   style="fill:#eeeed4"
   transform="translate(-1.6836772,0.3019311)" /><path
   id="_108096952"
   class="fil1"
   d="m 344.71132,266.01193 -0.79846,18.3669 c 9.40476,0.6208 12.4215,4.79078 9.0503,12.5111 l -1.06452,-1.06481 c 1.5975,-4.70238 -1.06538,-7.63131 -7.98577,-8.78424 l -0.26635,17.3021 c 8.69584,-2.83968 13.4869,-6.74388 14.3743,-11.7123 l -1.33087,-23.4246 c -3.99289,0.26634 -7.98577,-1.33087 -11.9787,-3.19414 z"
   inkscape:connector-curvature="0"
   style="fill:#c0a062" /><path
   id="_108095536"
   class="fil2"
   d="m 346.38932,284.64693 c 7.43769,1.16576 9.62861,5.24676 6.57392,12.243 -1.16861,1.64683 -3.37779,1.77772 -4.49934,3.09348 l 2.17952,-0.223 c 2.73331,-1.2034 3.07294,-2.80717 4.60827,-4.4828 1.04371,-1.13952 0.81472,-3.21296 0.91453,-5.12072 0.18763,-3.56828 -2.28959,-6.74502 -7.34643,-6.83627 l -2.43047,1.3263 z"
   inkscape:connector-curvature="0"
   style="fill:#eeeed4" /><path
   id="_108094432"
   class="fil1"
   d="m 318.05932,280.78693 c 2.79034,1.18429 8.56095,2.15528 11.9901,2.27391 l -0.63849,20.4678 c -5.17946,-1.74692 -8.56181,-0.90654 -10.7134,1.70586 l 1.20625,1.42126 c 3.8312,-1.56385 6.45643,-0.1423 9.36541,-0.21302 l 0.21302,10.5891 c -6.69882,-3.71314 -10.1302,-5.47717 -12.1144,-9.7692 -0.46396,-1.00321 -1.0822,-1.63685 -1.31404,-2.73445 -1.62601,-7.68493 1.66394,-9.85703 0.7286,-23.1015 l 1.27697,-0.63962 z"
   inkscape:connector-curvature="0"
   style="fill:#c0a062" /><path
   id="_108093400"
   class="fil2"
   d="m 317.36732,307.26293 c -0.46396,-1.00321 -1.0822,-1.63685 -1.31404,-2.73445 -1.62601,-7.68493 1.66394,-9.85703 0.7286,-23.1015 l 1.27697,-0.63963 c 2.60156,3.48216 -0.18907,14.0715 -0.28374,21.1074 3.2871,-1.61176 6.10112,-2.51202 7.87542,-1.84787 l 1.20568,2.06118 c -4.83441,-0.64304 -7.30366,0.1346 -7.40831,2.33408 -0.26549,0.24211 -0.51558,0.50731 -0.75084,0.79276 l 1.20625,1.42126 c 2.95631,3.07979 4.77709,3.03216 7.16592,4.54839 l -0.0707,0.99495 c -3.11629,0.72289 -6.32697,-0.9228 -9.63118,-4.9365 z"
   inkscape:connector-curvature="0"
   style="fill:#eeeed4" /><path
   id="_108095512"
   class="fil1"
   d="m 314.89632,175.16493 5.5978,-0.19135 c 2.42818,5.66823 7.02363,9.16836 12.0668,8.77996 l -1.86527,72.8806 c -6.39712,4.90713 -18.1502,2.73702 -15.7485,11.852 4.49449,-7.96781 7.45907,-3.11971 15.7793,-8.40925 l -0.47708,19.8615 c -11.4956,-0.60512 -19.4825,-5.19543 -19.7526,-18.5537 l 4.39953,-86.2198 z"
   inkscape:connector-curvature="0"
   style="fill:#c0a062" /><path
   id="_108095560"
   class="fil2"
   d="m 314.94732,268.48593 c -2.02639,-7.69063 6.02412,-7.34757 12.4318,-10.0005 l -0.1557,-1.47488 c -5.85815,0.54124 -10.0826,2.38997 -13.3894,4.973 l 3.63158,-86.907 -2.56906,0.0881 -4.39953,86.2198 c 0.18136,8.97501 3.8466,13.9919 9.71844,16.5017 1.69816,-0.13688 3.14138,-0.5287 4.32995,-1.17431 -5.49514,0.57318 -8.69441,-2.16925 -9.5981,-8.22588 z"
   inkscape:connector-curvature="0"
   style="fill:#eeeed4" /><path
   id="_108096592"
   class="fil1"
   d="m 346.54232,188.15093 -1.91289,74.7889 c 12.4093,8.49565 22.6581,-3.45934 28.1176,-15.6847 2.00186,-20.4974 -1.92287,-46.4985 -7.07695,-73.6411 l -4.59088,-2.86905 c -1.57811,11.7038 -4.62396,16.713 -7.39463,19.9642 -3.24746,3.8101 -4.83127,-0.86491 -7.14226,-2.55822 z"
   inkscape:connector-curvature="0"
   style="fill:#c0a062" /><path
   id="_108094120"
   class="fil2"
   d="m 362.43732,171.59393 -1.35796,-0.84894 c -1.57811,11.7038 -4.62396,16.713 -7.39463,19.9642 -3.24746,3.8101 -4.83127,-0.8649 -7.14226,-2.55822 l -0.073,2.86734 c 2.01726,3.29965 4.42406,4.4463 6.45586,3.23264 3.67692,-2.19691 7.27828,-8.13235 9.68422,-20.4455 l -0.17224,-2.21146 z"
   inkscape:connector-curvature="0"
   style="fill:#eeeed4" /><path
   id="_108095152"
   class="fil1"
   d="m 351.13232,186.85393 c 3.6755,-4.527 5.86585,-8.13919 8.79878,-14.005 l -5.73839,-22.5706 c -3.85743,-3.18758 -6.66204,-7.07638 -8.98984,-11.2854 -6.10824,-1.41185 -8.76028,-3.22408 -13.3469,-2.378 -7.58398,1.39902 -9.91321,4.91939 -15.5358,11.1768 -0.82869,4.39925 1.40273,4.39925 2.10395,4.59059 2.74187,-2.80517 5.10104,-6.18438 8.22474,-8.41609 l 0,1.5302 c -3.69774,4.97329 -7.58711,7.26858 -11.0938,11.4765 -0.89257,1.8493 -0.63734,7.90621 2.48664,7.26858 2.35917,-5.22794 5.86585,-7.39577 8.7985,-11.0941 2.80574,-1.9126 1.78542,1.91289 0.95644,2.86905 -6.05692,4.65476 -6.75814,7.39634 -10.1376,11.0941 -1.5302,1.8493 0.95645,7.71487 3.44309,7.26858 1.21138,-5.03659 4.71835,-8.16115 7.07724,-12.2416 l 0.19107,1.9126 -5.54704,9.37253 c -0.38241,2.80603 2.2953,5.6112 8.03368,8.41609 2.08456,0.0716 1.68276,-8.84697 -0.63193,-6.67173 -0.74571,-2.81287 0.99523,-5.05199 2.92722,-6.71764 0.26178,0.96842 -0.20275,2.70308 3.36809,4.10524 2.43303,0.95559 10.6966,10.9578 14.6119,14.2993 z"
   inkscape:connector-curvature="0"
   style="fill:#c0a062" /><path
   id="_108094960"
   class="fil2"
   d="m 354.63932,152.03293 -0.44571,-1.75405 c -3.85743,-3.18758 -6.66204,-7.07638 -8.98984,-11.2854 -6.10824,-1.41185 -8.76028,-3.22408 -13.3469,-2.378 -7.58398,1.39902 -9.91321,4.91939 -15.5358,11.1768 -0.8287,4.39925 1.40273,4.39925 2.10395,4.59059 l 0,-4.2079 c 4.75228,-4.60143 6.35919,-7.99148 11.5147,-9.52282 3.64242,-1.08192 7.04473,-0.63022 14.4784,1.84188 3.5255,5.84931 6.91127,9.35257 10.2212,11.5389 z m -27.9896,-6.53599 c -3.69774,4.97329 -7.58711,7.26858 -11.0938,11.4765 -0.89257,1.8493 -0.63734,7.90621 2.48664,7.26858 -0.38269,-2.28817 -1.0072,-4.81844 -0.98667,-7.02619 3.89935,-3.83234 7.79871,-7.58455 11.3753,-11.4175 l -1.78143,-0.30142 z m -5.54675,28.8827 c -2.48664,0.44628 -4.97329,-5.41929 -3.44309,-7.26858 3.3795,-3.69774 4.08072,-6.43932 10.1376,-11.0941 l -0.57375,2.10424 c -4.83812,3.63843 -4.99952,7.03503 -8.22503,9.94629 -0.18536,2.02353 1.32231,4.61198 2.10424,6.31214 z m 9.75494,7.45964 c -5.73839,-2.80489 -8.41609,-5.61006 -8.03368,-8.41609 l 5.54704,-9.37253 2.10424,0.38269 c -3.19015,3.52151 -4.68128,6.66517 -5.92973,9.75494 -0.37956,1.85614 2.52115,4.5059 6.12079,5.92945 l 0.19135,1.72154 z m 10.3244,-5.16321 c -2.01583,-2.01441 -3.7485,-3.6427 -4.66103,-4.12093 l -1.07279,-1.6186 0,-1.33885 c 4.08072,3.18815 8.16144,8.15345 12.2419,9.56388 -1.84588,0.14144 -4.01513,-0.68696 -6.50805,-2.4855 z"
   inkscape:connector-curvature="0"
   style="fill:#eeeed4" /><path
   id="_108095800"
   class="fil1"
   d="m 335.40132,98.065231 c 2.94034,-1.94882 6.41195,-2.65717 11.0539,-0.63763 l 0.63763,-22.1075 c -15.3758,-14.0892 -19.0106,-24.8536 -8.0257,-40.7416 5.66995,-8.2005 19.736,-13.0583 30.4762,-5.27927 10.7274,7.76933 11.8823,20.8561 9.74553,26.2891 -3.33301,8.4754 -14.0726,10.743 -17.7413,4.42662 l 1.70073,-0.850078 c 11.1243,2.19663 11.4078,-13.8878 0.21245,-15.0927 4.18024,-12.2581 -16.1558,-14.4545 -15.0924,-0.212448 -14.0695,0.355316 -11.7309,21.1869 4.0388,16.3679 1.13211,10.4533 8.50135,13.5003 18.7063,13.1792 0.17594,5.56358 2.30157,7.61848 5.31434,8.07788 0.35389,-12.8958 16.2259,-11.7622 15.0924,-35.4994 2.9757,1.62972 5.66795,0.709207 8.07788,-2.76354 -13.534,-0.495903 -11.1249,-14.8086 -22.1075,-21.8947 1.71213,-1.14266 3.38092,-2.4547 5.10161,-5.31434 l -2.33836,-4.25125 c -13.3919,9.70732 -20.4067,-3.1174299 -35.0742,4.88916 -0.49619,-4.32225 -2.0549,-7.1565099 -5.95197,-9.1406899 -0.28317,17.5019999 -8.21904,16.5098999 -11.6915,25.7210999 -2.19634,-3.18815 -6.09313,-4.39297 -11.6915,-3.61362 9.61578,11.8318 0.80131,13.668 4.96188,31.8456 3.41856,14.9367 14.1331,17.8419 14.8075,25.9737 l -0.21274,10.6284 z"
   inkscape:connector-curvature="0"
   style="fill:#c0a062" /><path
   id="_108094048"
   class="fil2"
   d="m 369.54332,29.299231 c 10.7274,7.76933 11.8823,20.8561 9.74553,26.2891 -2.91639,7.41601 -11.5036,10.0792 -16.0628,6.39769 l -2.31611,0.154845 c 18.3518,15.6593 30.5392,-17.1473 11.0536,-34.0114 l -2.4202,1.16975 z m 2.07315,22.1217 c -0.55721,-3.44623 -3.25773,-6.82173 -8.15573,-7.34871 4.18024,-12.2581 -16.1558,-14.4545 -15.0924,-0.212448 -11.2113,0.283169 -12.0038,13.569 -3.88338,16.5162 l 1.11984,-1.42383 c -8.78652,-3.89707 -5.88125,-15.8717 5.52679,-12.3291 l 0.42518,-1.06281 c -6.5896,-11.7622 13.1795,-13.1082 10.2035,-1.48799 l 1.06281,1.06281 -2.12562,0.212733 1.06281,1.48799 c 3.54261,-0.991806 7.29796,-0.495903 8.71523,4.67643 l 1.14095,-0.09125 z m -15.4839,17.6552 c -1.9993,-2.05005 -3.30108,-4.92852 -3.7254,-8.8484 l 0.42518,-1.06281 1.27526,0.850078 c -0.071,4.25153 1.34627,5.95197 4.25153,8.29033 l 0.21245,0.850364 -2.43902,-0.07956 z m 20.2952,12.4087 c -3.01277,-0.459402 -5.1384,-2.5143 -5.31434,-8.07788 l 1.91318,-1.48799 c -1.35653,4.61198 0.77251,7.23123 3.40117,9.56588 z m 4.65162,-68.2216 -0.82555,-1.50168 c -13.3919,9.70732 -20.4067,-3.1174299 -35.0742,4.88916 l 2.12562,0.850078 c 15.8598,-5.63173 19.6299,6.21746 33.7741,-4.23756 z m -37.9729,-2.60727 c -0.91652,-1.2467399 -2.1741,-2.2781899 -3.87882,-3.1459499 -0.28317,17.5019999 -8.21904,16.5098999 -11.6915,25.7210999 -2.19634,-3.18815 -6.09313,-4.39297 -11.6915,-3.61362 9.61578,11.8318 0.80131,13.668 4.96188,31.8456 3.41856,14.9367 14.1331,17.8419 14.8075,25.9737 l -0.21273,10.6284 c 0.64304,-0.426037 1.31148,-0.793616 2.01241,-1.08505 l 0.32594,-10.181 c -0.22129,-7.08009 -11.0043,-14.7596 -13.7758,-22.0675 -6.33067,-16.6942 4.05021,-18.1485 -3.23007,-33.201 5.52708,0.283455 5.52708,3.5429 8.29033,5.31406 l 0,-1.70044 c -0.99181,-8.36105 10.5574,-6.94378 11.6915,-25.0834 l 1.48799,1.70073 0.90283,-1.10559 z"
   inkscape:connector-curvature="0"
   style="fill:#eeeed4" /><path
   id="_108094000"
   class="fil1"
   d="m 329.87432,100.82893 -0.63763,11.6915 c 1.02688,7.94642 9.62576,2.9931 15.9636,4.82814 2.75014,0.7959 4.15115,2.12049 5.29353,-1.85215 l 0.63763,-14.2423 c -0.60227,-1.700159 -3.00935,-1.808519 -4.14488,-4.463979 l -2.01954,2.12562 -6.37716,-0.212448 -0.42518,-1.27555 -3.82635,0.212733 -4.46398,3.188444 z"
   inkscape:connector-curvature="0"
   style="fill:#c0a062" /><path
   id="_108095392"
   class="fil2"
   d="m 344.86132,98.915631 -6.27107,-0.212448 -2.06831,0.124617 c -1.0611,0.106082 -0.53069,2.44016 0.63649,2.228 3.67806,-0.28288 7.49729,0.14144 11.4582,1.27326 l 0,-1.27326 c -1.21652,-0.71348 -2.43275,-0.79019 -3.75534,-2.14017 z m -15.0798,3.622169 -0.54438,9.9825 c 0.38469,2.97969 1.83475,4.14602 3.8312,4.53584 l 0.0585,-1.04085 c -1.90975,-0.84894 -2.68768,-2.54624 -2.33408,-5.09249 0.60113,-2.68797 0.0354,-5.6939 0.84865,-8.38158 0.91966,-0.99181 1.83875,-1.73324 2.75869,-2.44016 l 0.10608,-1.485429 c -1.71698,1.02431 -3.29167,2.331799 -4.72462,3.922169 z"
   inkscape:connector-curvature="0"
   style="fill:#eeeed4" /><path
   id="_108093592"
   class="fil1"
   d="m 345.64632,119.62293 -0.10608,17.824 c -3.35982,-2.51088 -8.52303,-0.67213 -10.7157,-3.71343 l 0.84865,-16.551 2.97085,0.21245 c 0.35332,1.36195 2.12135,2.28104 7.00224,2.228 z"
   inkscape:connector-curvature="0"
   style="fill:#c0a062" /><path
   id="_108095584"
   class="fil2"
   d="m 337.06832,117.28193 -0.50474,17.8103 c -0.68183,-0.29343 -1.27697,-0.71776 -1.73922,-1.35938 l 0.84865,-16.551 1.39531,0.10009 z m 0,0 1.57554,0.11235"
   inkscape:connector-curvature="0"
   style="fill:#eeeed4" /><path
   id="_108096040"
   class="fil1"
   d="m 170.24032,213.97593 c -1.49313,-2.62096 2.51773,-9.22767 5.26701,-18.0413 2.18437,-7.00167 4.7078,-15.6761 8.39755,-20.2008 5.02233,-6.15786 8.55012,-5.47432 17.4926,-8.19737 15.3781,50.6713 81.3175,59.3099 101.924,-0.095 l 9.25761,4.31684 -1.92772,64.9256 c -7.95184,17.0794 -20.6745,28.1299 -31.926,38.8564 -7.64415,7.28797 -16.6371,14.4063 -26.446,17.5032 l 4.76455,-2.72419 c -12.1395,4.91312 -25.7114,-1.15578 -40.2622,-14.7374 11.4443,14.6877 24.1954,22.1899 38.8572,19.1879 l -4.76939,-0.43003 c 15.9222,-3.51324 24.7817,-15.0644 37.4548,-24.893 7.72057,-5.98762 14.9395,-15.5951 21.7761,-26.0459 -2.92466,21.7296 -3.8389,31.8467 6.0053,36.6843 -2.59871,17.1048 -3.61219,30.6864 1.03572,31.6893 l -6.67316,28.8237 c -27.0842,-22.7131 -37.5754,2.60641 -61.3285,2.91781 -22.1619,0.2903 -29.463,-23.7534 -54.729,-8.3351 -3.52037,-2.98768 -6.23628,-12.4076 -8.14689,-24.642 4.50761,-8.63139 -1.23762,-54.0523 -1.85614,-81.0785 -0.55493,-4.33138 -5.72726,-4.74202 -7.68236,-6.35805 l -0.96472,1.21595 6.67173,4.51417 4.48537,77.8596 c -6.73675,7.15794 -14.4356,6.61755 -17.2092,9.17549 -1.66366,1.53448 -1.40187,6.79236 2.66316,9.92889 -1.88352,-4.03623 -4.7634,-8.87093 8.82673,-12.3115 l -0.4035,19.2726 c -7.19872,-2.27534 -11.9467,-2.28788 -14.5161,-10.1901 -1.65282,-5.08422 -0.52585,-14.8315 0.62109,-28.4886 3.86656,1.36109 12.188,-1.06082 14.9803,12.545 2.32609,-2.90099 1.54959,-6.74046 -2.5317,-10.6207 -4.89315,-4.65162 -16.7335,-3.56143 -16.5405,-10.8237 -0.25437,-20.6833 1.30035,-41.3661 1.95025,-62.0492 -2.43189,-2.92409 -5.76833,-6.14959 -5.48658,-8.77198 7.02277,-7.43626 6.80804,-1.00093 12.9257,4.83184 l 0.0294,36.7898 2.77808,-39.1954 -4.76426,-2.80859 z m 29.0949,19.7486 -8.11353,-7.14767 c 7.0741,13.8993 22.3459,29.4727 35.4914,37.3008 10.6489,6.34065 17.378,8.74118 32.5072,8.6753 -4.47539,-2.72875 -15.4705,-0.83354 -25.3067,-6.66489 -10.3293,-6.12393 -21.6036,-17.4581 -34.5783,-32.1635 z m 14.4884,56.2144 -6.18182,-7.34073 c 13.3951,23.8578 26.3191,36.2123 47.7053,33.0681 7.94956,-1.16861 23.087,-8.61485 23.7258,-11.2977 7.83407,-6.15615 15.0405,-14.234 20.7147,-22.9293 l -0.7728,-0.96586 -6.56793,8.30659 2.89757,-5.21596 c -7.14824,10.0572 -15.7466,21.5294 -26.6581,25.974 -25.1744,10.2548 -40.5959,-1.95367 -54.8627,-19.5991 z"
   inkscape:connector-curvature="0"
   style="fill:#c0a062;fill-opacity:1" /><path
   id="_108094648"
   class="fil2"
   d="m 302.82932,169.12193 c 0.16654,-0.45598 0.33051,-0.91567 0.49134,-1.37963 l 9.25761,4.01542 -0.0733,2.46069 -9.67567,-5.09648 z m -110.909,162.668 c -2.33836,-4.48252 -4.22444,-12.0759 -5.65711,-21.2514 1.19684,-2.29273 1.67107,-7.18132 1.70985,-13.6312 l 1.31661,-0.2076 c 0.80474,6.1821 0.54723,10.2383 -0.19306,13.3292 2.06004,7.79129 2.38227,14.4237 6.18153,23.3744 l -3.35782,-1.61347 z m -13.0862,0.37842 c -6.10939,-1.7589 -10.2277,-2.44073 -12.5558,-9.60125 -1.65253,-5.08422 -0.52585,-14.8315 0.62109,-28.4886 l 1.7204,2.23484 -1.5456,23.1814 c 0.54695,5.08707 3.50839,9.20772 11.7839,11.2042 l -0.0239,1.46947 z m -14.0763,-109.03801 c -0.64989,20.6831 -2.20461,41.3658 -1.95025,62.0492 -0.19306,7.26231 11.6473,6.17212 16.5405,10.8237 4.08129,3.88025 4.85779,7.71972 2.5317,10.6207 -0.13203,2.25509 -3.01106,3.82378 -5.33972,5.5305 11.4879,-3.98405 9.39877,-11.2375 4.13205,-16.9802 -7.81525,-8.52189 -17.0731,-2.97456 -16.109,-12.5761 l 1.35225,-56.0213 -1.15749,-3.44651 z m 5.41529,-6.12764 c -4.15315,-5.03688 -4.75713,-9.15068 -10.9019,-2.64434 -0.0704,0.6556 0.0855,1.34883 0.39666,2.06574 l 4.31569,-3.17646 4.44288,4.05676 1.74664,-0.3017 z m 31.2242,-49.4662 c -8.9425,2.72305 -12.4703,2.0395 -17.4926,8.19738 -3.68976,4.52472 -6.21319,13.19919 -8.39755,20.20079 -2.74928,8.81361 -6.76013,15.4203 -5.26701,18.0413 l 2.24311,-0.92165 10.6247,-31.1013 5.40902,-7.34073 11.977,-4.63651 0.9034,-2.43931 z"
   inkscape:connector-curvature="0"
   style="fill:#eeeed4" /><path
   id="_108095320"
   class="fil2"
   d="m 206.48332,294.96093 c 16.693,29.8942 47.6979,36.1082 64.7143,22.6016 l -0.7728,-0.96586 c -19.6123,12.0816 -46.0049,3.50098 -63.9415,-21.6358 z"
   inkscape:connector-curvature="0"
   style="fill:#eeeed4" /><path
   id="_108093448"
   class="fil2"
   d="m 210.34632,259.60993 -2.31811,-0.57946 c 15.5184,23.7603 37.1542,31.616 55.0555,17.1926 -20.3805,11.9607 -39.5054,3.17076 -52.7374,-16.6132 z"
   inkscape:connector-curvature="0"
   style="fill:#eeeed4" /><path
   id="_108093520"
   class="fil2"
   d="m 225.02732,248.40593 c 2.46811,9.90522 23.5649,17.8266 35.1735,15.3898 7.13741,-1.49826 12.7475,-6.62782 19.4959,-10.7536 -3.73738,0.40978 -18.138,11.6519 -27.0445,9.34174 -10.2372,-2.65546 -20.2949,-3.94983 -26.0792,-13.7849 l -1.5456,-0.19306 z"
   inkscape:connector-curvature="0"
   style="fill:#eeeed4" /><path
   id="_108094384"
   class="fil1"
   d="m 202.67532,163.27393 c 0.14772,-1.03629 4.65476,-2.20091 8.74374,-4.25724 2.97969,-1.49826 6.35776,-3.76162 7.06982,-3.34014 2.10481,3.67635 6.93123,25.8055 33.0935,25.9672 26.3433,0.16283 31.0234,-23.3933 32.0021,-26.1477 1.63514,-0.3288 5.33944,1.67905 8.9964,3.59337 3.89336,2.03779 7.73397,4.04422 8.96931,5.49314 -9.18518,31.4711 -31.6864,41.6923 -49.5455,40.883 -16.2867,-0.73801 -40.3618,-8.53957 -49.3294,-42.1917 z"
   inkscape:connector-curvature="0"
   style="fill:#c0a062" /><path
   id="_108095704"
   class="fil2"
   d="m 218.99132,156.73793 c -0.18593,-0.43887 -0.35104,-0.79818 -0.50218,-1.06167 -0.71205,-0.42147 -4.09013,1.84188 -7.06982,3.34014 -4.08899,2.05633 -8.59603,3.22094 -8.74374,4.25724 1.47117,5.5208 3.34927,10.3464 5.53221,14.5586 1.14009,1.65396 2.28047,2.87162 3.42142,3.6544 l 0.8709,-0.43602 c -3.79897,-5.47518 -6.30929,-11.1366 -7.51154,-16.9015 6.81203,-1.2995 9.98735,-4.08072 13.8254,-6.76099 m 82.7365,7.19416 c -1.23534,-1.44893 -5.07595,-3.45535 -8.96931,-5.49314 -3.65696,-1.91432 -7.36126,-3.92217 -8.9964,-3.59337 -0.97869,2.75441 -5.65882,26.3099 -32.0021,26.1477 -6.13106,-0.0376 -11.0912,-1.28267 -15.1192,-3.21382 4.59031,7.86971 41.5509,9.47348 48.5374,-20.8231 l 14.1519,7.19644 2.39767,-0.22072 z"
   inkscape:connector-curvature="0"
   style="fill:#eeeed4" /><path
   id="_108094984"
   class="fil1"
   d="m 230.35332,151.71893 -7.94699,3.81637 c -0.22243,12.5305 11.9792,23.326 29.009,23.5661 13.6272,0.19163 26.4314,-6.58818 29.4488,-21.6033 l -8.38215,-5.01606 c -3.92559,8.49365 -14.1553,11.1434 -20.9012,11.0673 -6.74616,-0.0759 -16.105,-3.31448 -19.5951,-11.1762 l -1.63229,-0.65417 z"
   inkscape:connector-curvature="0"
   style="fill:#c0a062" /><path
   id="_108095032"
   class="fil2"
   d="m 280.86432,157.49793 -8.38215,-5.01606 c -3.92559,8.49365 -14.1553,11.1434 -20.9012,11.0673 -6.74616,-0.0759 -16.105,-3.31448 -19.5951,-11.1762 l -1.63229,-0.65417 -7.94699,3.81637 c -0.007,0.39125 -0.001,0.78135 0.0157,1.16918 l 1.83475,2.21117 5.76975,-5.5613 c 10.2859,15.142 31.3691,16.1945 42.1286,1.74464 l 6.85823,3.1622 1.85072,-0.7631 z"
   inkscape:connector-curvature="0"
   style="fill:#eeeed4" /><path
   id="_108095344"
   class="fil1"
   d="m 231.98532,136.88893 0.54467,13.3035 c 4.70352,13.6486 29.1519,16.3745 36.0327,3.05327 l 1.95937,-16.0297 c -5.17062,5.62546 -8.90971,12.7272 -13.8955,14.986 -8.79707,3.98576 -18.0866,-1.44037 -24.6412,-15.3131 z"
   inkscape:connector-curvature="0"
   style="fill:#c0a062" /><path
   id="_108095248"
   class="fil2"
   d="m 233.89832,140.56693 -1.784,-0.521 0.41577,10.1465 c 0.22015,0.63963 0.4845,1.2553 0.78763,1.84645 l 1.17203,-0.21102 c -0.47024,-3.34471 -0.70351,-7.04416 -0.59144,-11.2609 z"
   inkscape:connector-curvature="0"
   style="fill:#eeeed4" /><path
   id="_108095728"
   class="fil1"
   d="m 121.53332,195.18993 c 2.59044,8.00089 5.18089,13.7056 7.77133,17.1156 -6.64265,8.96931 -13.2856,16.6739 -19.9274,23.9217 l 0.87346,1.87126 c 6.18438,-4.99981 15.4953,-14.5027 22.1009,-25.4108 5.33516,-8.81019 13.711,-23.0243 11.373,-30.3276 11.1993,4.06133 6.25596,20.8214 18.7474,40.595 l -1.29151,55.0213 c -43.9223,-20.4472 -35.328,-25.3974 -52.9914,-38.0964 -2.50261,-4.61056 1.49655,-18.8437 13.3443,-44.69 z"
   inkscape:connector-curvature="0"
   style="fill:#c0a062" /><path
   id="_108093184"
   class="fil2"
   d="m 110.25032,238.09793 c 6.18438,-4.99981 15.4953,-14.5027 22.1009,-25.4108 5.33516,-8.81019 13.711,-23.0243 11.373,-30.3276 0.34961,0.12661 0.68411,0.26663 1.0035,0.41777 4.02197,13.6443 -17.6101,43.9862 -33.1753,57.3425 11.5506,8.32227 10.8332,13.8465 24.3215,22.3844 l -9.38137,-4.94106 c -6.8377,-6.11167 -8.64422,-10.739 -18.3039,-17.6837 -2.38512,-4.3944 1.13581,-17.5308 11.7297,-41.1317 l 1.53476,0.69323 c -8.84612,19.6111 -13.2622,33.3935 -11.2027,38.657 z"
   inkscape:connector-curvature="0"
   style="fill:#eeeed4" /><path
   id="_108096160"
   class="fil1"
   d="m 131.13932,266.16393 c 0.86148,16.3075 -2.95488,26.3943 2.50518,32.9882 8.26524,9.98193 25.9714,6.78266 31.5017,11.3496 l 0.64561,-16.573 -5.81139,-6.457 0.4306,-6.67202 -9.03975,-4.51987 -0.2153,14.8508 c -6.62354,1.3015 -14.9047,0.33051 -15.712,5.81139 -2.29615,-3.80382 2.79662,-6.38828 13.1293,-7.31792 l 0.43032,-14.4205 c -5.95483,-2.58274 -12.7706,-8.17883 -17.8642,-9.03975 z"
   inkscape:connector-curvature="0"
   style="fill:#c0a062" /><path
   id="_108093472"
   class="fil2"
   d="m 131.13932,266.16393 c 0.86148,16.3075 -2.95488,26.3943 2.50518,32.9882 0.90397,1.09161 1.92059,2.0261 3.02247,2.8297 l 1.57497,-0.0893 0,-0.86091 c -7.10946,-1.20825 -6.38999,-14.9869 -4.95047,-32.285 l -2.15214,-2.58274 z"
   inkscape:connector-curvature="0"
   style="fill:#eeeed4" /><path
   id="_108094240"
   class="fil2"
   d="m 146.63532,287.47093 c -8.68072,0.14344 -13.3437,2.29587 -13.9902,6.457 l 1.93713,0.4306 c 1.21994,-3.44451 4.4483,-4.87918 10.9769,-5.59609 l 1.07621,-1.29151 z"
   inkscape:connector-curvature="0"
   style="fill:#eeeed4" /><path
   id="_108096208"
   class="fil1"
   d="m 129.20232,211.92493 12.0531,-18.0795 c 3.06211,-7.73597 -1.89749,-13.3015 4.02169,-21.2708 11.5079,-15.4933 0.69096,-25.7094 7.17049,-37.9185 2.65404,-5.23706 -12.5556,-8.53728 -10.116,13.3446 -6.95975,8.82473 -9.90152,15.6408 -8.82473,20.4469 l -1.29123,2.15243 c -1.32887,-6.24142 0.39182,-13.2 8.82445,-21.7385 -0.2153,-5.59609 0,-10.7616 2.58274,-16.1424 -0.57404,-10.1875 -1.36309,-30.061 -8.82445,-26.6889 -1.10331,2.31355 0.25294,6.73875 0.35617,10.1003 0.13289,4.32225 0.33022,8.66561 0.93506,13.1447 l -1.07593,4.51987 c -1.57868,-11.3353 0.93221,-29.343 -4.08956,-33.3609 -2.08057,-0.501605 -3.5871,-0.14315 -4.51987,1.07621 l -1.50653,19.1557 c 6.72449,2.0569 4.0291,10.6193 7.67209,14.9872 3.75192,4.4982 2.93692,11.4927 -4.22843,9.54934 -3.26343,3.76818 -6.13334,4.19935 -13.5596,-4.51987 l -1.93713,3.87426 -1.72211,0 3.65924,-7.53322 0.86092,0.43032 c 2.65488,5.3095 5.81195,7.96439 11.40719,7.31791 -1.96136,-3.36353 -4.63621,-6.95975 -5.57098,-10.8711 -1.12583,-4.71179 -6.06518,-8.7925 -9.71046,-3.97977 -0.40922,1.40187 -1.85072,2.07401 -2.04777,4.15857 -0.20162,2.13446 -2.67799,2.82685 -3.2007,5.51995 -0.85864,4.42263 1.6628,11.2538 1.92601,16.9748 0.294,6.38628 2.43588,12.4997 5.38221,15.0835 4.92766,4.32168 3.94783,6.00815 5.01464,11.3901 1.07507,5.42385 3.64584,7.02077 4.79734,12.2011 1.01633,4.57263 3.89964,12.7018 5.56214,16.6756 z"
   inkscape:connector-curvature="0"
   style="fill:#c0a062" /><path
   id="_108096232"
   class="fil2"
   d="m 114.78132,137.02393 0.86092,0.43032 c 1.32745,2.65488 2.78036,4.64619 4.60115,5.89266 l 1.85586,-0.0813 0,-1.72183 c -1.86527,-0.35218 -3.73025,-2.72248 -5.59609,-5.38079 l -1.72183,0.86092 z m 12.993,71.2623 c -1.56043,-4.1771 -3.37265,-9.60751 -4.13461,-13.0369 -1.1515,-5.18032 -3.72227,-6.77724 -4.79734,-12.2011 -1.0668,-5.38193 -0.087,-7.0684 -5.01464,-11.3901 -2.94633,-2.58388 -5.08821,-8.69726 -5.38221,-15.0835 -0.26321,-5.72099 -2.78464,-12.5521 -1.92601,-16.9748 0.52271,-2.6931 2.99909,-3.38548 3.2007,-5.51995 0.19705,-2.08456 1.63856,-2.75669 2.04777,-4.15857 1.82249,-2.40651 3.96893,-2.5893 5.80027,-1.58153 l 0.22614,1.58153 c -3.25345,0.0299 -4.89173,2.02753 -6.28733,5.22138 -1.58295,3.62217 -2.6489,8.61513 -1.97933,10.7111 0.9861,3.08549 0.41719,9.57329 2.13589,13.5114 1.3129,3.00679 -1.4783,6.38343 3.24148,10.5905 6.15929,5.49001 4.54839,11.4739 7.64814,18.8206 2.78236,6.59502 5.81795,15.9938 5.2211,19.5099 z m 24.6728,-73.63 c 2.65404,-5.23706 -12.5556,-8.53728 -10.116,13.3446 -6.95975,8.82473 -9.90152,15.6408 -8.82473,20.4469 l 0.64561,3.44394 1.93713,0 c -3.58738,-13.4159 4.87861,-14.7793 7.31792,-22.1691 -0.3767,-5.60493 -0.0448,-11.6268 1.88295,-14.4739 1.928,-2.84709 5.02205,-3.38092 7.15708,-0.59257 z m -11.73,-24.3489 c -1.26214,-3.53691 -3.12171,-5.54134 -5.91918,-4.27691 -1.10331,2.31355 0.25294,6.73875 0.35617,10.1003 0.0496,1.6206 0.10836,3.2449 0.19448,4.87776 l 1.38647,-0.12718 0,-12.0528 1.50653,0 1.07621,2.58274 1.39931,-1.10388 z m -7.94699,-7.04359 c -0.46111,-1.23191 -1.06196,-2.20205 -1.84645,-2.82941 -2.08057,-0.501605 -3.5871,-0.14315 -4.51987,1.07621 l -1.50653,19.1557 c 0.42005,0.12832 0.80331,0.28231 1.15435,0.4594 3.34613,-2.95089 1.52649,-11.9288 2.28931,-17.8933 0.71748,-0.35874 1.43467,-0.14344 2.15214,0.64562 l 2.27705,-0.61425 z"
   inkscape:connector-curvature="0"
   style="fill:#eeeed4" /><path
   id="_108093736"
   class="fil1"
   d="m 118.87032,126.69193 c 3.22864,2.22372 4.73517,4.73432 4.51987,7.53322 2.65461,7.46136 5.88296,10.0441 9.68565,7.74823 -1.39218,-3.03673 -3.29395,-6.12421 -3.42341,-7.6373 -0.29686,-3.47446 -1.63001,-4.83356 -1.84417,-6.9569 -0.48991,-4.85124 -7.48616,-7.17305 -8.93794,-0.68725 z"
   inkscape:connector-curvature="0"
   style="fill:#c0a062" /><path
   id="_108094816"
   class="fil2"
   d="m 127.80832,127.37993 c -0.48991,-4.85124 -7.48616,-7.17305 -8.93794,-0.68725 l 1.93713,0 c 3.08806,-2.95802 4.66474,0.13346 6.0264,4.08956 l 1.07621,0 -0.1018,-3.40231 z m -0.89913,13.524 c -1.26756,-1.42069 -2.44045,-3.64698 -3.51894,-6.67801 0.0265,-0.3499 0.0265,-0.69552 0,-1.03629 l 1.93713,0.17538 c 1.00435,2.29558 0.93249,4.37615 3.01334,6.88732 l -1.43153,0.6516 z"
   inkscape:connector-curvature="0"
   style="fill:#eeeed4" /><path
   id="_108096496"
   class="fil1"
   d="m 277.13132,94.000731 -0.19705,8.469989 c 4.70894,1.32516 5.44096,3.34414 3.40545,9.6403 -1.52022,4.70209 -1.03544,15.9607 -8.13292,15.5732 -1.47915,6.23058 0.92878,10.3943 4.85893,12.9505 8.46542,5.50626 20.4238,3.0681 22.1274,-8.22303 -5.64742,-0.85407 -9.71816,-3.54632 -12.2128,-8.07617 l -3.3487,-22.0618 c -0.18963,-4.735459 -3.14737,-6.702239 -6.50035,-8.272939 z"
   inkscape:connector-curvature="0"
   style="fill:#c0a062" /><path
   id="_108096016"
   class="fil2"
   d="m 278.51532,103.00693 c -0.46625,-0.1942 -0.99352,-0.37072 -1.58181,-0.53611 l 0.19705,-8.46999 c 0.62879,0.294291 1.24361,0.602555 1.82848,0.940761 l -0.44372,8.065339 z m 19.2561,29.1436 c -3.23378,-0.70436 -5.89808,-2.07315 -7.99148,-4.10695 l -0.0425,1.61033 c 5.69932,5.86757 6.05264,2.82599 8.03397,2.49662 z"
   inkscape:connector-curvature="0"
   style="fill:#eeeed4" /><path
   id="_108093784"
   class="fil2"
   d="m 284.81332,139.89693 c -6.36832,-1.31262 -9.58584,-4.20163 -9.652,-8.66732 l -1.18201,0 c -0.71576,7.08408 3.03388,10.2272 11.2472,9.43128 l -0.4132,-0.76396 z"
   inkscape:connector-curvature="0"
   style="fill:#eeeed4" /><path
   id="_108095896"
   class="fil1"
   d="m 272.40332,125.51793 c -0.0653,-2.56079 2.03551,-14.3798 3.3487,-20.6831 3.13112,0.25836 3.95353,2.92608 1.97933,7.69148 -2.06374,4.98099 -0.21872,13.1764 -5.32803,12.9916 z"
   inkscape:connector-curvature="0"
   style="fill:#c0a062" /><path
   id="_108094216"
   class="fil2"
   d="m 278.69532,109.34993 -3.46647,-1.9223 c 0.18279,-0.93078 0.35931,-1.8051 0.52328,-2.59301 2.34805,0.19363 3.39803,1.74322 2.94319,4.51531 z"
   inkscape:connector-curvature="0"
   style="fill:#eeeed4" /><path
   id="_108094456"
   class="fil1"
   d="m 226.31032,102.86493 -0.98496,-6.697399 c -6.98028,2.09682 -5.91633,7.732829 -6.69112,18.944699 -0.7497,10.8446 -0.14201,21.8423 -13.9919,19.6633 -0.76653,11.3322 9.91606,13.8057 18.1448,10.2471 5.01578,-2.16954 5.81624,-9.89182 8.44774,-9.85304 l -2.16697,-10.2431 c -6.18838,-5.0537 -3.90648,-12.2929 -6.06404,-16.4064 -2.03751,-3.88395 -0.87917,-7.14026 3.30649,-5.65512 z"
   inkscape:connector-curvature="0"
   style="fill:#c0a062" /><path
   id="_108102952"
   class="fil2"
   d="m 221.12432,98.822031 c -2.32638,3.053549 -1.93399,8.232159 -2.49064,16.290099 -0.74913,10.8446 -0.14201,21.8423 -13.9919,19.6633 -0.47908,7.08266 3.51409,10.7045 8.58548,11.5563 l 4.21845,-1.11642 -0.3941,-0.98496 c -5.97479,-0.91938 -9.58612,-1.44465 -10.2429,-6.89416 5.04886,0.8324 8.81561,-1.55301 11.1149,-6.70709 3.90791,-8.76142 1.44208,-14.5645 2.58246,-18.8312 1.01148,-3.78443 0.66358,-8.19822 0.61824,-12.975901 z"
   inkscape:connector-curvature="0"
   style="fill:#eeeed4" /><path
   id="_108103336"
   class="fil1"
   d="m 227.49232,105.62193 c 0.32851,4.79335 1.44465,11.1625 2.16697,16.7432 -5.89694,-5.72926 -2.87675,-9.0617 -4.59601,-12.8253 -2.3221,-5.08136 -1.65567,-7.71344 2.42904,-3.91789 z"
   inkscape:connector-curvature="0"
   style="fill:#c0a062" /><path
   id="_108105400"
   class="fil2"
   d="m 226.49532,118.03693 c -1.41014,-3.30935 -0.19762,-5.79228 -1.43296,-8.49708 -1.88665,-4.12863 -1.79996,-6.64008 0.48934,-5.40103 -0.47337,2.0723 1.8108,9.26588 0.94362,13.8981 z"
   inkscape:connector-curvature="0"
   style="fill:#eeeed4" /><path
   id="_108102808"
   class="fil1"
   d="m 283.63132,94.197531 c 0.52299,-0.887435 1.7954,-11.9256 7.1876,-22.1799 4.19393,-7.97608 9.38879,-14.4165 9.40305,-16.2607 0.0858,-10.9754 -41.623,-46.4362999 -47.7185,-46.2421999 -11.5412,0.368149 -51.7088,34.5634999 -51.078,43.2869999 0.148,2.05091 5.26045,5.82736 11.3735,19.8067 7.8335,17.913 5.4652,22.6604 7.20784,23.9528 17.6865,-12.4341 44.4265,-13.5006 63.6244,-2.36374 z m -38.805,-63.4274 c -6.55082,5.80882 -11.9208,7.67922 -16.5014,11.7152 -5.28012,4.65219 -9.354,9.26161 -14.8186,13.6951 l -2.5605,5.51539 1.57582,0.197049 c 11.6216,-9.71787 15.7582,-20.8145 30.138,-26.7893 0.59086,12.0157 0.39381,23.2438 0.59086,34.8655 -6.63152,2.75784 -13.6571,4.92452 -19.8951,8.27322 l -3.93956,4.33366 c 7.86258,-4.26893 15.8409,-8.07845 24.2285,-10.2431 l 1.18201,-41.5626 z m 15.1674,40.9717 2.56079,-1.96992 c -0.46054,-6.83456 -0.52585,-21.7265 0.3941,-34.0773 5.20113,3.53919 10.4433,8.40696 12.774,12.9089 3.83776,7.41231 5.12842,3.0758 9.8787,11.5164 -0.72261,-4.26779 -3.80839,-8.53557 -5.71244,-12.8036 -5.46634,-3.79156 -12.3939,-14.1984 -19.501,-15.3644 -0.91966,3.61162 -0.26292,26.527 -0.3941,39.79 z m 18.9102,10.637 1.37878,-2.75784 c -5.51539,-3.0199 -6.89416,-7.81325 -16.5462,-9.06113 l -2.36374,2.16697 c 5.38421,0.918803 11.0969,3.47987 17.5311,9.652 z"
   inkscape:connector-curvature="0"
   style="fill:#c0a062" /><path
   id="_108105640"
   class="fil2"
   d="m 300.22232,55.756931 c 0.0858,-10.9754 -41.623,-46.4362999 -47.7185,-46.2421999 -11.5412,0.368149 -51.7088,34.5634999 -51.078,43.2869999 0.148,2.05091 5.26045,5.82736 11.3735,19.8067 7.8335,17.913 5.4652,22.6604 7.20784,23.9528 0.41434,-0.291154 0.83411,-0.576319 1.25787,-0.855211 l -1.0611,-10.3726 c 7.96068,-4.84382 16.2653,-8.88262 25.8046,-10.0458 1.96964,-12.9351 1.18173,-30.5974 1.77259,-45.8965 l -2.75755,2.16697 -1.18201,40.9717 c -9.0041,2.39653 -16.9984,6.13961 -24.4256,10.637 -3.97606,-10.5711 -8.9579,-21.1419 -15.5615,-31.7138 13.8913,-17.4039 30.0351,-31.0525 48.6544,-40.5779 18.5155,13.4033 33.3541,28.883 44.5175,46.4874 l 3.19585,-1.60548 z"
   inkscape:connector-curvature="0"
   style="fill:#eeeed4" /><path
   id="_108106024"
   class="fil2"
   d="m 279.88832,83.363831 c -6.30387,-5.69846 -12.6069,-9.20799 -18.9102,-9.652 l 0,1.37878 c 5.41615,1.36224 11.2603,4.21788 17.7282,9.2579 l 1.18201,-0.984676 z"
   inkscape:connector-curvature="0"
   style="fill:#eeeed4" /><path
   id="_89901576"
   class="fil1"
   d="m 228.27932,94.788631 c 14.2315,-5.38364 29.1034,-6.49978 44.9116,-1.37906 1.52421,3.25032 1.19941,6.817169 -0.40978,12.966799 -2.29245,8.76085 -0.65788,18.0553 -3.32104,27.0434 -0.9496,3.20526 -3.93814,7.71686 -6.89245,10.5081 -3.86399,3.65069 -7.48217,6.86564 -11.1434,7.02933 -11.2133,0.50189 -12.3922,-8.35906 -14.0587,-9.74667 -5.03431,-4.1925 -4.89857,-13.6514 -5.93458,-15.4825 -2.11422,-3.73823 -0.94989,-17.0344 -1.71156,-18.6407 -2.04321,-4.31028 -1.63086,-7.746809 -1.44009,-12.298599 z m 18.7987,7.111739 0.55522,1.66907 c -2.27277,0.087 -4.62396,-1.73152 -6.53942,-1.12355 -1.55159,0.49248 -3.43796,0.31055 -4.77167,1.02517 -1.28153,0.68696 -2.84709,0.79105 -4.23784,0.83981 -0.8786,-0.21644 -1.15663,-1.1746 -0.83297,-1.57582 3.69432,-3.391757 9.26417,-2.57248 15.8267,-0.83468 z m -12.4945,5.09904 7.86715,-0.64932 c 1.36395,-0.11236 2.12848,0.89656 3.42427,2.03979 l 0,0.92707 c -1.78941,0.83439 -2.74586,1.85443 -8.14461,1.39075 l 2.31355,-1.57611 c -1.45007,-0.8036 -3.7331,-0.21615 -5.46035,-2.13218 z m 18.6033,38.3819 1.3879,-0.46368 c -4.21075,-3.56913 -7.48103,-2.54938 -10.4584,0.55607 l 3.33216,0.27833 c 1.91289,-1.484 4.28832,-1.69987 5.73839,-0.37072 z m -9.07026,-22.3433 c -0.74029,1.45235 -2.96144,2.53427 -2.22144,4.35761 1.35796,0.016 3.65097,0.53868 5.16235,1.74921 2.08256,1.66822 4.01085,2.11849 5.01292,0.95017 1.32859,-1.54873 5.06368,-1.79968 5.28098,-2.5143 1.03629,-4.1503 -1.57126,-3.73453 -2.23769,-7.44767 -0.55265,-3.07694 0.43032,-7.58512 0.10893,-10.2597 2.86876,-0.26634 6.65576,2.45699 8.63139,2.50461 3.53463,0.0855 2.79861,-1.97477 -1.22707,-2.41164 1.28695,-0.26064 3.16762,-0.1845 4.02397,-0.57717 0.85636,-0.39325 0.69096,-1.35083 -0.26292,-1.63714 -0.94532,-0.28403 -2.35233,-0.85407 -4.91968,-0.76396 -2.59586,0.0913 -5.25845,-0.27775 -5.96794,-0.63792 1.62487,-0.5036 0.70436,-5.69019 5.71215,-3.66495 0.92394,0.37386 1.52621,0.42262 3.44623,0.46825 2.24596,0.0536 5.02576,2.44586 6.57563,4.03167 0.2826,-2.64748 -1.2496,-4.85124 -3.04557,-6.2802 -2.03523,-1.619744 -4.91369,-2.410224 -6.99739,-0.86634 -1.14152,0.84609 -4.47111,0.20047 -6.24627,2.4182 -0.89485,-0.61995 -1.78998,-1.08391 -2.68398,-0.46368 l 1.11043,0.92708 c -0.38982,0.84779 -2.35461,3.77502 -1.10958,8.21077 0.40237,1.43381 0.0713,2.76924 0.13289,4.16142 0.0699,1.57782 0.48678,3.20326 0.16254,4.64791 -0.77308,3.43995 2.47752,4.3964 1.7743,6.35748 -0.30256,0.84523 -1.57953,1.22735 -2.59215,1.56784 -1.27098,0.42689 -2.47381,0.26235 -3.77901,0.13802 -2.59016,-0.24667 -4.05078,-2.05718 -3.84403,-4.96559 z m -3.14709,11.4959 c -1.48086,0.95787 -1.97449,2.1627 -1.48086,3.61561 8.29375,-3.17047 11.2489,0.8036 13.9891,-1.30321 1.17973,-0.90683 1.94768,1.62487 3.59622,0.83981 l -0.27747,-2.96658 c -5.79856,1.93143 -5.13498,-1.21908 -10.1396,-0.11948 -1.70443,0.37471 -3.79185,-0.0439 -5.68734,-0.0662 z m 10.8289,5.56272 -2.22144,-0.55636 c -1.4495,0.24753 -2.89956,0.24753 -4.34991,0 l -0.83297,0.4634 c 3.33273,1.02118 5.80112,1.05112 7.40432,0.093 z"
   inkscape:connector-curvature="0"
   style="fill:#c0a062" /><path
   id="_88841792"
   class="fil2"
   d="m 246.86632,150.63293 c -7.02819,-1.62772 -8.09442,-8.2524 -9.5,-9.42272 -5.03431,-4.19222 -4.89857,-13.6514 -5.93458,-15.4825 -2.11422,-3.73823 -0.94989,-17.0344 -1.71156,-18.6407 -2.04321,-4.31028 -1.63086,-7.746809 -1.44009,-12.298599 0.667,-0.252371 1.33572,-0.495618 2.00528,-0.728598 0.0904,2.66972 -0.80303,6.062617 0.4651,10.714197 2.01384,7.38807 0.81044,14.272 2.66943,20.9822 0.99666,3.59736 -1.43438,6.44331 3.86798,12.6551 2.28361,2.67571 4.72434,8.04566 6.84226,9.14868 0.67014,0.34905 1.56214,-0.48535 1.76118,0.1999 l 0.97499,2.87304 z"
   inkscape:connector-curvature="0"
   style="fill:#eeeed4" /><path
   id="_88789208"
   class="fil2"
   d="m 247.05032,100.43193 c -3.92758,-0.515008 -3.60563,-3.734809 -11.7836,-1.545599 l 0.57946,1.738649 c 6.37487,-1.094749 7.34073,0.90141 11.0111,1.35225 l 0.19305,-1.54531 z"
   inkscape:connector-curvature="0"
   style="fill:#eeeed4" /><path
   id="_89901936"
   class="fil2"
   d="m 264.04932,97.533931 c -3.28425,0.321952 -6.56822,1.4167 -9.85218,2.12505 -0.7728,0.643899 -0.3864,1.867259 0,2.511449 2.67913,-1.9916 6.51717,-2.437589 9.77519,-3.463329 l 0.077,-1.17317 z"
   inkscape:connector-curvature="0"
   style="fill:#eeeed4" /><path
   id="_88959584"
   class="fil2"
   d="m 249.94732,125.35193 c -2.61554,-1.97163 -1.97449,-6.58504 -1.4264,-11.0091 0.32737,-2.64291 -1.22963,-5.2422 0.46054,-7.14938 l -0.7728,-1.932 c -2.96201,7.01906 1.03059,1.09475 -2.12505,17.1929 -3.34813,1.48115 -1.86698,5.08678 4.44316,4.44316 l -0.57945,-1.5456 z"
   inkscape:connector-curvature="0"
   style="fill:#eeeed4" /><path
   id="_89938560"
   class="fil2"
   d="m 254.58432,136.16993 c -1.47402,1.13011 -2.99167,2.28275 -4.73318,1.36822 -1.66451,-0.87432 -3.67806,-0.45085 -5.89152,-0.20931 l 0,1.5456 c 2.02838,-0.18108 4.58261,0.17281 6.32611,0.9362 0.50674,0.22214 3.1679,-1.42355 4.49164,-1.90205 l -0.19306,-1.73865 z"
   inkscape:connector-curvature="0"
   style="fill:#eeeed4" /><path
   id="_88841264"
   class="fil2"
   d="m 247.43632,147.37393 c 1.86726,-0.32167 3.17902,-1.38533 5.60208,-0.96586 l 0,-1.35225 c -2.12477,-1.26214 -4.15686,0.31654 -6.09684,1.52991 l 0.49476,0.7882 z"
   inkscape:connector-curvature="0"
   style="fill:#eeeed4" /><path
   id="_88522096"
   class="fil2"
   d="m 248.00432,131.56793 -1.01804,1.57582 2.77637,0 c 0.70978,-0.15513 1.04798,-0.68069 1.01804,-1.57582 l -2.77637,0 z"
   inkscape:connector-curvature="0"
   style="fill:#eeeed4" /><path
   id="_89800248"
   class="fil2"
   d="m 386.06132,328.60393 -1.77287,2.16669 c 1.31347,2.36374 3.02019,3.3487 3.7428,6.89416 1.05026,1.64141 2.29786,1.11614 2.56079,0.19705 -1.51052,-3.08635 -3.02047,-6.17212 -4.53071,-9.2579 z"
   inkscape:connector-curvature="0"
   style="fill:#eeeed4" />
</svg>