<?xml version="1.0" encoding="UTF-8"?>
<!DOCTYPE svg PUBLIC "-//W3C//DTD SVG 1.1//EN" "http://www.w3.org/Graphics/SVG/1.1/DTD/svg11.dtd">
<!-- Creator: CorelDRAW -->
<svg xmlns="http://www.w3.org/2000/svg" xml:space="preserve" width="500px" height="580px" shape-rendering="geometricPrecision" text-rendering="geometricPrecision" image-rendering="optimizeQuality" fill-rule="evenodd" clip-rule="evenodd"
viewBox="0 0 500 580"
 xmlns:xlink="http://www.w3.org/1999/xlink"
 xmlns:svg="http://www.w3.org/2000/svg"
 version="1.0">
 <defs>
   <linearGradient id="id0" gradientUnits="userSpaceOnUse" x1="249.375" y1="348.647" x2="249.375" y2="336.249">
    <stop offset="0" stop-color="#999999"/>
    <stop offset="1" stop-color="#CCCCCC"/>
   </linearGradient>
   <linearGradient id="id1" gradientUnits="userSpaceOnUse" x1="382.836" y1="350.173" x2="382.836" y2="337.927">
    <stop offset="0" stop-color="#999999"/>
    <stop offset="1" stop-color="#CCCCCC"/>
   </linearGradient>
   <linearGradient id="id2" gradientUnits="userSpaceOnUse" x1="120.327" y1="350.173" x2="120.327" y2="337.927">
    <stop offset="0" stop-color="#999999"/>
    <stop offset="1" stop-color="#CCCCCC"/>
   </linearGradient>
 </defs>
 <g id="Layer_x0020_1">
  <metadata id="CorelCorpID_0Corel-Layer"/>
  <path id="path1937" fill="#F00000" stroke="black" stroke-width="0.510236" d="M0.309827 0.421795l499.412 -0.000283465 -0.000850394 336.108c-16.4599,322.31 -483.632,323.021 -499.412,-0.0765355l0 -336.032z"/>
  <path fill="#B2B2B2" stroke="#B2B2B2" stroke-width="0.992126" d="M248.75 12.5019c34.2142,44.8796 38.6921,139.658 36.2441,266.206 -5.83767,8.31742 -12.5067,14.1395 -14.9976,32.495 2.0829,61.24 14.1642,121.23 13.7478,183.72l-63.7396 0c-0.0711496,-62.0595 11.1059,-121.619 11.035,-184.928 2.60249,-16.6947 -6.50466,-27.1177 -17.284,-33.7864 0.0286299,-113.213 1.42724,-220.924 34.9943,-263.707z"/>
  <path fill="#666666" stroke="#666666" stroke-width="0.992126" d="M282.494 272.459c-8.27972,-6.7184 -18.4776,-12.992 -20.6212,-29.9948l-11.8732 -192.156c26.0314,56.3193 11.7264,188.935 32.4944,222.15z"/>
  <path fill="none" stroke="#E5E5E5" stroke-width="1.41732" d="M216.888 271.838c38.6323,-16.9982 16.3483,-156.367 33.1121,-223.038"/>
  <path fill="url(#id0)" d="M258.822 352.446l37.1081 0c2.23399,0 4.06177,-2.24958 4.06177,-4.99918l0 -9.99837c0,-2.74961 -1.82778,-4.99918 -4.06177,-4.99918l-38.0367 0 0.92863 19.9967zm-19.656 0l-36.3458 0c-2.23399,0 -4.06177,-2.24958 -4.06177,-4.99918l0 -9.99837c0,-2.74961 1.82778,-4.99918 4.06177,-4.99918l37.584 0 -1.23817 19.9967z"/>
  <path fill="#7F7F7F" stroke="#7F7F7F" stroke-width="0.992126" d="M284.994 278.708c-5.83767,8.31742 -12.5067,14.1395 -14.9976,32.495 2.0829,61.24 14.1642,121.23 13.7478,183.72l-13.7526 0c3.51553,-54.4479 -19.94,-159.145 -8.42344,-200.148 3.52545,-12.5518 12.6522,-16.0696 23.4258,-16.0673z"/>
  <path fill="#E5E5E5" stroke="#E5E5E5" stroke-width="0.992126" d="M248.75 12.5019c-25.9022,69.6663 -28.0811,142.478 -27.7274,194.053 0.31663,46.1254 -2.18268,63.396 2.67194,70.0983 5.85808,8.08753 17.6477,31.7373 16.6312,48.8291 -3.27317,55.0318 -10.5486,132.713 -5.11399,169.441l-15.207 0c-0.0711496,-62.0595 9.65793,-121.963 11.6598,-185.241 0.534331,-16.8874 -7.12942,-26.8053 -17.9087,-33.4741 0.0286299,-113.213 1.42724,-220.924 34.9943,-263.707z"/>
  <path fill="#7F7F7F" stroke="#7F7F7F" stroke-width="0.992126" d="M229.98 294.899c-2.79666,-8.32139 -9.15052,-14.3147 -16.2244,-18.6908 19.7496,-6.56561 20.8888,16.9441 16.2244,18.6908z"/>
  <path fill="#666666" stroke="#666666" stroke-width="0.992126" d="M248.75 12.5019c34.2142,44.8796 38.6921,139.658 36.2441,266.206 2.61525,-69.4089 6.85559,-234.191 -36.2441,-266.206z"/>
  <circle fill="#F00000" stroke="#F00000" stroke-width="1.98425" cx="253.124" cy="451.768" r="8.74659"/>
  <path fill="none" stroke="#666666" stroke-width="1.98425" d="M244.377 451.768c0,-4.82967 3.91692,-8.74659 8.74659,-8.74659"/>
  <path fill="none" stroke="#E5E5E5" stroke-width="1.98425" d="M261.87 451.768c0,4.82967 -3.91692,8.74659 -8.74659,8.74659"/>
  <path fill="#B2B2B2" stroke="#B2B2B2" stroke-width="0.992126" d="M381.853 18.1434c31.684,44.3299 35.8305,137.948 33.5636,262.947 -5.40596,8.21566 -11.5818,13.9663 -13.8884,32.097 1.92869,60.4905 13.1165,98.4107 12.731,160.135l-59.0256 0c-0.0660473,-61.2998 10.2844,-98.7945 10.2189,-161.329 2.41002,-16.4903 -6.02363,-26.7857 -16.0058,-33.3729 0.0266457,-111.827 1.3218,-218.219 32.4063,-260.478z"/>
  <path fill="#666666" stroke="#666666" stroke-width="0.992126" d="M413.101 274.918c-7.66744,-6.63619 -17.1111,-12.833 -19.0962,-29.6277l-10.995 -189.803c24.1061,55.6297 10.8592,186.622 30.0912,219.431z"/>
  <path fill="none" stroke="#E5E5E5" stroke-width="1.41732" d="M352.347 274.305c35.7752,-16.7902 15.1393,-154.453 30.6632,-220.308"/>
  <path fill="url(#id1)" d="M392.28 353.926l37.099 0c2.23342,0 4.06063,-2.22208 4.06063,-4.93796l0 -9.87591c0,-2.71588 -1.82721,-4.93796 -4.06063,-4.93796l-38.0274 0 0.928347 19.7518zm-19.6512 0l-36.3368 0c-2.23342,0 -4.06063,-2.22208 -4.06063,-4.93796l0 -9.87591c0,-2.71588 1.82721,-4.93796 4.06063,-4.93796l37.5747 0 -1.23789 19.7518z"/>
  <path fill="#7F7F7F" stroke="#7F7F7F" stroke-width="0.992126" d="M415.417 281.091c-5.40596,8.21566 -11.5818,13.9663 -13.8884,32.097 1.92869,60.4905 13.1165,98.4107 12.731,160.135l-12.7355 0c3.25559,-53.7815 -18.4643,-135.862 -7.80038,-176.362 3.2641,-12.397 11.7164,-15.8729 21.6933,-15.8706z"/>
  <path fill="#E5E5E5" stroke="#E5E5E5" stroke-width="0.992126" d="M381.853 18.1434c-23.9865,68.8133 -26.0045,140.733 -25.6768,191.677 0.293386,45.5607 -2.0211,62.6199 2.47436,69.2402 5.42495,7.98832 16.342,31.3498 15.4012,48.2312 -3.02995,54.3575 -9.76848,109.753 -4.73584,146.031l-14.0822 0c-0.0660473,-61.2998 8.94473,-99.1353 10.7975,-161.637 0.494079,-16.6796 -6.60218,-26.477 -16.5844,-33.0642 0.0266457,-111.827 1.3218,-218.219 32.4063,-260.478z"/>
  <path fill="#7F7F7F" stroke="#7F7F7F" stroke-width="0.992126" d="M364.471 297.084c-2.58973,-8.21963 -8.47361,-14.1395 -15.0245,-18.4621 18.2889,-6.48539 19.3439,16.7366 15.0245,18.4621z"/>
  <path fill="#666666" stroke="#666666" stroke-width="0.992126" d="M381.853 18.1434c31.684,44.3299 35.8305,137.948 33.5636,262.947 2.42192,-68.5593 6.34848,-231.324 -33.5636,-262.947z"/>
  <ellipse fill="#F00000" stroke="#F00000" stroke-width="1.98425" cx="384.016" cy="428.374" rx="8.09972" ry="8.63951"/>
  <path fill="none" stroke="#666666" stroke-width="1.98425" d="M375.916 428.374c0,-4.77043 3.62721,-8.63944 8.09972,-8.63944"/>
  <path fill="none" stroke="#E5E5E5" stroke-width="1.98425" d="M392.116 428.374c0,4.77071 -3.62721,8.63972 -8.09972,8.63972"/>
  <path fill="#B2B2B2" stroke="#B2B2B2" stroke-width="0.992126" d="M119.053 18.1434c31.684,44.3299 35.8305,137.948 33.5636,262.947 -5.40596,8.21566 -11.5818,13.9663 -13.8884,32.097 1.92869,60.4905 13.1165,98.4107 12.731,160.135l-59.0256 0c-0.0660473,-61.2998 10.2844,-98.7945 10.2189,-161.329 2.41002,-16.4903 -6.02363,-26.7857 -16.0058,-33.3729 0.0266457,-111.827 1.3218,-218.219 32.4063,-260.478z"/>
  <path fill="#666666" stroke="#666666" stroke-width="0.992126" d="M150.301 274.918c-7.66744,-6.63619 -17.1111,-12.833 -19.0962,-29.6277l-10.995 -189.803c24.1061,55.6297 10.8592,186.622 30.0912,219.431z"/>
  <path fill="none" stroke="#E5E5E5" stroke-width="1.41732" d="M89.5471 274.305c35.7752,-16.7902 15.1393,-154.453 30.6632,-220.308"/>
  <path fill="url(#id2)" d="M129.889 353.926l37.5628 0c2.2612,0 4.11137,-2.22208 4.11137,-4.93796l0 -9.87591c0,-2.71588 -1.85017,-4.93796 -4.11137,-4.93796l-38.5027 0 0.939969 19.7518zm-19.8967 0l-36.7909 0c-2.26148,0 -4.11166,-2.22208 -4.11166,-4.93796l0 -9.87591c0,-2.71588 1.85017,-4.93796 4.11166,-4.93796l38.0441 0 -1.2532 19.7518z"/>
  <path fill="#7F7F7F" stroke="#7F7F7F" stroke-width="0.992126" d="M152.617 281.091c-5.40596,8.21566 -11.5818,13.9663 -13.8884,32.097 1.92869,60.4905 13.1165,98.4107 12.731,160.135l-12.7355 0c3.25559,-53.7815 -18.4643,-135.862 -7.80038,-176.362 3.2641,-12.397 11.7164,-15.8729 21.6933,-15.8706z"/>
  <path fill="#E5E5E5" stroke="#E5E5E5" stroke-width="0.992126" d="M119.053 18.1434c-23.9865,68.8133 -26.0045,140.733 -25.6768,191.677 0.293386,45.5607 -2.0211,62.6199 2.47436,69.2402 5.42495,7.98832 16.342,31.3498 15.4012,48.2312 -3.02995,54.3575 -9.76848,109.753 -4.73584,146.031l-14.0822 0c-0.0660473,-61.2998 8.94473,-99.1353 10.7975,-161.637 0.494079,-16.6796 -6.60218,-26.477 -16.5844,-33.0642 0.0266457,-111.827 1.3218,-218.219 32.4063,-260.478z"/>
  <path fill="#7F7F7F" stroke="#7F7F7F" stroke-width="0.992126" d="M101.671 297.084c-2.58973,-8.21963 -8.47361,-14.1395 -15.0245,-18.4621 18.2889,-6.48539 19.3439,16.7366 15.0245,18.4621z"/>
  <path fill="#666666" stroke="#666666" stroke-width="0.992126" d="M119.053 18.1434c31.684,44.3299 35.8305,137.948 33.5636,262.947 2.42192,-68.5593 6.34848,-231.324 -33.5636,-262.947z"/>
  <ellipse fill="#F00000" stroke="#F00000" stroke-width="1.98425" cx="121.216" cy="428.374" rx="8.09972" ry="8.63951"/>
  <path fill="none" stroke="#666666" stroke-width="1.98425" d="M113.116 428.374c0,-4.77043 3.62721,-8.63944 8.09972,-8.63944"/>
  <path fill="none" stroke="#E5E5E5" stroke-width="1.98425" d="M129.315 428.374c0,4.77071 -3.62721,8.63972 -8.09972,8.63972"/>
 </g>
</svg>
