<?xml version="1.0" encoding="UTF-8"?>
<!DOCTYPE svg PUBLIC "-//W3C//DTD SVG 1.1//EN" "http://www.w3.org/Graphics/SVG/1.1/DTD/svg11.dtd">
<!-- Creator: CorelDRAW -->
<svg xmlns="http://www.w3.org/2000/svg" xml:space="preserve" width="500px" height="559px" shape-rendering="geometricPrecision" text-rendering="geometricPrecision" image-rendering="optimizeQuality" fill-rule="evenodd" clip-rule="evenodd"
viewBox="0 0 500 559"
 xmlns:xlink="http://www.w3.org/1999/xlink"
 xmlns:svg="http://www.w3.org/2000/svg"
 version="1.0">
 <g id="Layer_x0020_1">
  <metadata id="CorelCorpID_0Corel-Layer"/>
  <path id="path1937" fill="#F00000" stroke="black" stroke-width="0.992126" d="M0.682866 1.02558l498.668 0.187087 -3.70602 328.331c-23.2132,305.62 -472.275,304.841 -490.933,0.483024l-4.0286 -329.001z"/>
  <path fill="black" d="M181.718 221.864c58.074,-3.24907 30.8645,-60.7136 44.4691,-88.329 -12.9954,22.7421 21.524,88.7349 -44.4691,88.329z"/>
  <path fill="black" d="M144.559 202.371c0.406205,19.5948 -4.46627,37.8695 -17.0566,54.2157 15.332,11.4724 28.124,23.4522 35.3316,36.5499 -0.799654,-10.6863 -11.7901,-23.2248 -30.4583,-37.1591 13.8081,-22.7427 17.869,-40.6114 12.1833,-53.6066z"/>
  <path fill="white" d="M207.729 157.352c-6.87572,-63.5015 -13.0153,-122.816 2.13109,-146.741 -39.8852,-0.0300473 -43.7831,93.0958 -28.9219,152.525 -27.2222,-61.1927 -42.3924,-119.544 -34.7052,-158.005 -34.3514,19.4584 -35.773,65.0747 -3.34999,154.352 -37.5965,-53.9623 -61.5498,-108.61 -61.4954,-151.916 -34.8659,19.965 -24.3953,86.3374 30.4424,165.007 -49.2449,-37.497 -80.3481,-77.9882 -82.503,-118.733 -22.3934,32.6172 -13.6437,78.922 51.7544,132.737 -31.1562,-8.21793 -55.5112,-24.2518 -68.8031,-53.5822 -11.0656,35.4433 11.0574,66.4467 53.5808,88.8982 -27.6659,3.97021 -47.7332,-2.34822 -59.9746,-17.0496 5.22624,32.0171 23.6965,50.3861 62.1066,55.1053 -18.165,6.29178 -37.8516,0.405638 -57.2344,17.9617 8.28369,12.1011 19.3159,19.0525 49.9241,21.6162 -14.6129,2.24504 -23.6407,15.9177 -44.7489,51.4488 22.8586,-2.96816 44.2194,-12.153 67.8895,-28.9222 -25.776,33.4885 -38.1561,67.79 -39.5768,98.0312 18.5964,-11.0866 39.3489,-41.4811 63.6276,-80.9825 -18.3869,58.4907 -33.1642,87.7428 -30.1391,134.564 35.3152,-38.7655 45.3612,-89.1003 60.8877,-131.215 -9.46319,78.128 -7.99059,137.114 0.305575,164.094 20.1946,-32.7782 28.2104,-118.225 44.7517,-168.661l-113.252 -130.91 137.303 -49.6239z"/>
  <path fill="black" d="M216.148 158.57c-6.87572,-63.5015 -13.6244,-123.426 1.52192,-147.35 -39.8852,-0.0300473 -43.1739,96.7508 -28.3127,156.18 -27.2222,-61.1927 -44.2199,-122.59 -36.5326,-161.051 -34.3514,19.4584 -30.8996,67.5114 1.52334,156.789 -37.5965,-53.9623 -70.0781,-112.264 -70.0237,-155.571 -30.439,22.1788 -14.9233,86.8091 37.7524,164.398 -49.2449,-37.497 -85.8306,-76.7699 -87.9855,-117.515 -21.8058,32.0295 -6.50523,76.0471 57.8461,130.91 -31.1562,-8.21793 -62.212,-21.8152 -75.5039,-51.1455 -10.355,34.0217 16.8443,59.7459 58.4541,84.0249 -27.6659,3.97021 -51.3882,0.088441 -63.6296,-14.6129 5.22624,32.0171 22.4782,45.5128 60.8882,50.2319 -18.165,6.29178 -39.6791,4.06063 -59.0619,21.6167 8.28369,12.1011 29.6717,20.2708 61.4982,21.007 -14.6129,2.24504 -36.4332,22.0093 -57.5414,57.5405 22.8586,-2.96816 47.8744,-9.71632 71.5445,-26.4855 -25.776,33.4885 -39.3744,65.3534 -40.7951,95.5945 18.5964,-11.0866 40.5672,-39.0444 64.846,-78.5458 -18.3869,58.4907 -34.3826,86.5245 -31.3574,133.345 35.3152,-38.7655 49.6253,-86.6637 65.1518,-128.778 -9.46319,78.128 -13.4731,135.286 -5.17692,162.267 21.4129,-32.169 33.0837,-115.179 49.625,-165.615l-115.689 -133.346 140.958 -53.8881z"/>
  <path fill="#CCCCCC" d="M212.581 165.751c-6.87572,-63.5015 -14.2121,-129.997 0.9343,-153.921 -39.8852,-0.0300473 -43.7831,93.0958 -28.9219,152.525 -27.2222,-61.1927 -44.8291,-118.326 -37.1418,-156.787 -34.3514,19.4584 -33.3363,63.8564 -0.913323,153.134 -37.5965,-53.9623 -65.2048,-108.61 -65.1504,-151.916 -30.439,22.1788 -18.5783,87.4182 34.0974,165.007 -49.2449,-37.497 -81.5664,-76.1607 -83.7213,-116.905 -21.8058,32.0295 -11.3786,76.0471 52.9728,130.91 -31.1562,-8.21793 -56.7295,-23.0335 -70.0215,-52.3639 -10.355,34.0217 13.7985,61.5734 55.4083,85.8524 -27.6659,3.97021 -48.3424,-0.520725 -60.5838,-15.2221 5.22624,32.0171 22.4782,47.3403 60.8882,52.0594 -18.165,6.29178 -39.0699,1.0148 -58.4527,18.5709 8.28369,12.1011 27.235,19.0525 59.0616,19.7887 -14.6129,2.24504 -32.169,19.5727 -53.2772,55.1038 22.8586,-2.96816 46.0469,-11.5438 69.717,-28.313 -25.776,33.4885 -39.3744,65.3534 -40.7951,95.5945 18.5964,-11.0866 40.5672,-39.0444 64.846,-78.5458 -18.3869,58.4907 -34.3826,86.5245 -31.3574,133.345 35.3152,-38.7655 46.5795,-87.882 62.106,-129.996 -9.46319,78.128 -10.4272,136.504 -2.13109,163.485 20.1946,-32.7782 30.6471,-117.616 47.1884,-168.051l-82.734 -110.564 107.982 -62.7886z"/>
  <path fill="black" d="M196.467 43.7956c-6.31191,2.7995 -6.47603,70.5617 2.43553,124.821l4.55613 -5.21745c-6.16507,-32.5055 -12.3956,-76.7469 -6.99166,-119.603z"/>
  <path fill="black" d="M135.274 27.0513c-9.13323,25.776 3.14589,64.2371 30.1397,134.867l1.82665 -7.30659c-17.6576,-49.8269 -34.0974,-72.5585 -31.9663,-127.561z"/>
  <path fill="black" d="M73.1679 45.0133c2.89191,24.9888 20.9551,66.1391 61.1927,130.91l0.608882 -11.2643c-35.0578,-46.5948 -49.5902,-83.6589 -61.8015,-119.645z"/>
  <path fill="black" d="M108.462 189.885c-59.842,-45.6353 -79.6054,-89.6494 -80.3515,-111.688 6.084,28.9715 26.6831,63.1701 78.2414,105.946l2.11011 5.74243z"/>
  <path fill="black" d="M16.8463 152.177c2.91232,18.0615 21.634,39.3724 71.2392,60.2793l-2.43553 -4.87106c-38.4358,-16.0339 -61.2185,-34.5039 -68.8037,-55.4083z"/>
  <path fill="black" d="M23.8485 221.285c5.88586,10.7569 25.1671,18.2665 57.8438,22.5286l-2.13109 -5.1755c-23.036,-1.72517 -41.607,-7.50955 -55.7127,-17.3531z"/>
  <path fill="black" d="M22.3262 277.911c21.7976,-0.937418 45.8275,-3.00671 58.6837,-6.38277l0.986741 5.46945c-28.2628,2.52992 -50.1636,3.27033 -59.6705,0.913323z"/>
  <path fill="black" d="M27.1973 345.192c18.6216,-13.75 38.613,-28.059 56.3216,-42.6218l3.04441 4.87106c-21.0382,14.1704 -42.4452,29.344 -59.366,37.7507z"/>
  <path fill="black" d="M57.337 398.774c13.3954,-24.4568 29.6323,-49.7254 48.7106,-75.8058l1.52221 4.56662c-16.7445,22.0468 -33.4888,45.9454 -50.2328,71.2392z"/>
  <path fill="black" d="M92.0433 445.962c3.36132,-15.3167 20.6677,-64.2912 41.0995,-122.69l1.52221 6.6977 -42.6218 115.992z"/>
  <path fill="black" d="M176.061 124.283c-5.06665,9.34356 -3.43446,20.8182 -3.6309,37.4689l-5.69651 0.0558425c-6.40857,-10.1404 -17.2834,-21.4489 -30.1887,-27.5281 -5.42608,17.8707 6.19881,31.7835 5.0349,46.6098l-5.78155 -4.29137c-8.69046,-9.29452 -21.4155,-18.4377 -32.542,-22.8603 -3.04299,15.5537 12.4875,29.5849 10.9667,40.572 -7.9217,-7.24734 -22.1386,-12.337 -36.5644,-13.9068 0.653386,10.063 10.5185,20.4806 18.4779,32.1676 -9.44306,-3.53027 -24.8769,-0.208063 -35.9447,3.57109 5.56243,10.8709 19.3725,17.5045 30.617,24.3173l-4.65336 -0.240945c-11.9753,3.57903 -23.5457,8.57934 -29.8381,13.7829 9.06747,9.4629 22.03,14.8153 35.1561,14.5361l3.41093 4.22986c-10.4797,0.597827 -24.2082,5.4584 -36.3124,20.6739 11.7187,3.15128 26.0011,4.5017 36.9068,3.59462 -7.75815,10.6379 -15.734,26.9992 -14.5624,36.826 10.7787,0.81978 23.7926,-4.8566 28.076,-9.71887l5.08366 -5.832c-2.86129,8.92347 -7.14473,19.2699 -6.75865,29.8182 8.09547,-4.27408 20.8103,-9.25881 26.2653,-19.2166l7.00441 -14.1205 1.71043 5.12646c-6.61266,17.5887 -7.67056,37.5526 0.329386,49.4589 18.6545,-17.7021 24.5234,-52.7599 24.6067,-78.6819 -7.27937,-15.0809 -17.5272,-27.5227 -32.114,-36.108 13.1797,-13.3897 19.1285,-28.2254 20.1294,-44.0501 13.4201,14.9448 50.1239,22.3917 65.6547,-5.09726 9.75204,-17.2613 6.60388,-40.0436 6.45137,-57.9745 -0.111402,-13.0842 3.46677,-15.9154 2.67591,-24.9619 -12.7888,13.0873 -19.9089,31.4646 -28.1313,55.817 -0.593575,-15.8808 -7.37944,-33.2847 -25.8387,-54.0374z"/>
  <path fill="white" d="M173.625 123.674c-5.06665,9.34356 -8.91695,21.4274 -9.11339,38.0781l-3.25984 0.0558425c-6.40857,-10.1404 -14.2376,-22.0581 -27.1429,-28.1373 -5.42608,17.8707 1.32548,31.7835 0.161575,46.6098l-3.95405 -6.11887c-8.69046,-9.29452 -18.3696,-16.6102 -29.4962,-21.0328 -3.04299,15.5537 8.22331,34.4583 6.70252,45.4453 -7.9217,-7.24734 -18.4836,-17.8194 -32.9094,-19.3893 0.653386,10.063 4.42687,25.9631 12.3863,37.6501 -9.44306,-3.53027 -18.176,-2.03556 -29.2439,1.74359 5.56243,10.8709 16.9359,20.5503 28.1804,27.3631l-4.04419 -0.850111c-11.9753,3.57903 -24.764,8.57934 -31.0564,13.7829 9.06747,9.4629 27.5125,17.2519 40.6386,16.9727l-1.46239 2.40236c-10.4797,0.597827 -22.9898,9.11339 -35.0941,24.3289 11.7187,3.15128 18.6911,3.28337 29.5968,2.37628 -7.75815,10.6379 -7.20567,16.0342 -6.03411,25.8611 10.7787,0.81978 17.0918,-6.07493 21.3752,-10.9372l6.30199 -5.22284c-4.9938,10.345 -4.40362,29.0166 -1.27616,37.7374 8.09547,-4.27408 20.8103,-16.5688 26.2653,-26.5266l3.95858 -15.948 0.492095 5.12646c-8.74545,18.2993 -6.75723,44.5581 3.98438,55.5506 18.6545,-17.7021 25.1325,-57.024 25.2159,-82.946 -7.27937,-15.0809 -17.5272,-27.5227 -32.114,-36.108 13.1797,-13.3897 19.1285,-28.2254 20.1294,-44.0501 13.4201,14.9448 50.1239,22.3917 65.6547,-5.09726 9.75204,-17.2613 6.60388,-40.0436 6.45137,-57.9745 -0.111402,-13.0842 3.46677,-15.9154 2.67591,-24.9619 -12.7888,13.0873 -21.1272,34.5104 -29.3497,58.8629 -0.593575,-15.8808 -6.16111,-33.8939 -24.6203,-54.6466z"/>
  <path fill="#CCCCCC" d="M174.234 127.329c-5.06665,9.34356 -6.48029,21.4274 -6.67673,38.0781l-3.25984 -2.98999c-6.40857,-10.1404 -14.8467,-19.0123 -27.752,-25.0914 -5.42608,17.8707 1.32548,32.3926 0.161575,47.219l-3.34488 -6.72803c-8.69046,-9.29452 -18.3696,-16.6102 -29.4962,-21.0328 -3.04299,15.5537 7.00498,30.1941 5.48419,41.1812 -7.9217,-7.24734 -17.2653,-12.9461 -31.6911,-14.5159 0.653386,10.063 5.6452,21.0898 13.6046,32.7767 -9.44306,-3.53027 -20.0035,-2.03556 -31.0714,1.74359 5.56243,10.8709 14.4992,19.332 25.7437,26.1448l-4.65336 -0.240945c-11.9753,3.57903 -21.1091,7.97018 -27.4014,13.1737 9.06747,9.4629 19.5934,15.4244 32.7195,15.1452l3.41093 4.22986c-10.4797,0.597827 -21.1623,6.67673 -33.2666,21.8923 11.7187,3.15128 22.9553,3.28337 33.861,2.37628 -7.75815,10.6379 -11.4698,20.9075 -10.2983,30.7344 10.7787,0.81978 18.3101,-1.20161 22.5936,-6.06388l6.30199 -3.39534c-2.86129,8.92347 -4.0989,15.6149 -3.71282,26.1632 8.09547,-4.27408 15.937,-8.04048 23.2194,-15.5616l7.00441 -14.1205 1.71043 5.12646c-6.61266,17.5887 -5.23389,32.0701 2.76605,43.9764 18.6545,-17.7021 22.0867,-47.2774 22.1701,-73.1994 -7.27937,-15.0809 -17.5272,-27.5227 -32.114,-36.108 13.1797,-13.3897 19.1285,-28.2254 20.1294,-44.0501 13.4201,14.9448 50.1239,22.3917 65.6547,-5.09726 9.75204,-17.2613 6.60388,-40.0436 6.45137,-57.9745 -0.111402,-13.0842 3.46677,-15.9154 2.67591,-24.9619 -12.7888,13.0873 -17.4722,30.8554 -25.6947,55.2079 -0.593575,-15.8808 -6.77027,-33.2847 -25.2295,-54.0374z"/>
  <path fill="black" d="M154.758 375.027c-4.05921,45.1588 -8.11843,72.0511 -12.1776,108.077 5.47994,-30.5456 10.6554,-60.1779 16.4398,-91.6368l-4.26218 -16.4398z"/>
  <path fill="black" d="M294.701 157.352c6.87572,-63.5015 13.0153,-122.816 -2.13109,-146.741 39.8852,-0.0300473 43.7831,93.0958 28.9219,152.525 27.2222,-61.1927 42.3924,-119.544 34.7052,-158.005 34.3514,19.4584 35.773,65.0747 3.34999,154.352 37.5965,-53.9623 61.5498,-108.61 61.4954,-151.916 34.8659,19.965 24.3953,86.3374 -30.4424,165.007 49.2449,-37.497 80.3481,-77.9882 82.503,-118.733 22.3934,32.6172 13.6437,78.922 -51.7544,132.737 31.1562,-8.21793 55.5112,-24.2518 68.8031,-53.5822 11.0656,35.4433 -11.0574,66.4467 -53.5808,88.8982 27.6659,3.97021 46.728,-2.34822 58.9694,-17.0496 -5.22624,32.0171 -22.6914,50.3861 -61.1014,55.1053 18.165,6.29178 37.8516,0.405638 57.2344,17.9617 -8.28369,12.1011 -19.3159,19.0525 -49.9241,21.6162 14.6129,2.24504 23.6407,15.9177 44.7489,51.4488 -22.8586,-2.96816 -44.2194,-12.153 -67.8895,-28.9222 25.776,33.4885 38.1561,67.79 39.5768,98.0312 -18.5964,-11.0866 -39.3489,-41.4811 -63.6276,-80.9825 18.3869,58.4907 33.1642,87.7428 30.1391,134.564 -35.3152,-38.7655 -45.3612,-89.1003 -60.8877,-131.215 9.46319,78.128 7.99059,137.114 -0.305575,164.094 -20.1946,-32.7782 -28.2104,-118.225 -44.7517,-168.661l113.252 -130.91 -137.303 -49.6239z"/>
  <path fill="white" d="M286.283 158.57c6.87572,-63.5015 13.6244,-123.426 -1.52192,-147.35 39.8852,-0.0300473 43.1739,96.7508 28.3127,156.18 27.2222,-61.1927 44.2199,-122.59 36.5326,-161.051 34.3514,19.4584 30.8996,67.5114 -1.52334,156.789 37.5965,-53.9623 70.0781,-112.264 70.0237,-155.571 30.439,22.1788 14.9233,86.8091 -37.7524,164.398 49.2449,-37.497 85.8306,-76.7699 87.9855,-117.515 21.8058,32.0295 6.50523,76.0471 -57.8461,130.91 31.1562,-8.21793 62.212,-21.8152 75.5039,-51.1455 10.355,34.0217 -16.8443,59.7459 -58.4541,84.0249 27.6659,3.97021 51.3882,0.088441 63.6296,-14.6129 -5.22624,32.0171 -22.4782,45.5128 -60.8882,50.2319 18.165,6.29178 39.6791,4.06063 59.0619,21.6167 -8.28369,12.1011 -29.6717,20.2708 -61.4982,21.007 14.6129,2.24504 36.4332,22.0093 57.5414,57.5405 -22.8586,-2.96816 -47.8744,-9.71632 -71.5445,-26.4855 25.776,33.4885 39.3744,65.3534 40.7951,95.5945 -18.5964,-11.0866 -40.5672,-39.0444 -64.846,-78.5458 18.3869,58.4907 34.3826,86.5245 31.3574,133.345 -35.3152,-38.7655 -49.6253,-86.6637 -65.1518,-128.778 9.46319,78.128 13.4731,135.286 5.17692,162.267 -21.4129,-32.169 -33.0837,-115.179 -49.625,-165.615l115.689 -133.346 -140.958 -53.8881z"/>
  <path fill="#CCCCCC" d="M289.849 168.743c6.87572,-63.5015 14.2121,-132.989 -0.9343,-156.913 39.8852,-0.0300473 43.7831,93.0958 28.9219,152.525 27.2222,-61.1927 44.8291,-118.326 37.1418,-156.787 34.3514,19.4584 33.3363,63.8564 0.913323,153.134 37.5965,-53.9623 65.2048,-108.61 65.1504,-151.916 30.439,22.1788 18.5783,87.4182 -34.0974,165.007 49.2449,-37.497 81.5664,-76.1607 83.7213,-116.905 21.8058,32.0295 11.3786,76.0471 -52.9728,130.91 31.1562,-8.21793 56.7295,-23.0335 70.0215,-52.3639 10.355,34.0217 -13.7985,61.5734 -55.4083,85.8524 27.6659,3.97021 48.3424,-0.520725 60.5838,-15.2221 -5.22624,32.0171 -22.4782,47.3403 -60.8882,52.0594 18.165,6.29178 39.0699,1.0148 58.4527,18.5709 -8.28369,12.1011 -27.235,19.0525 -59.0616,19.7887 14.6129,2.24504 32.169,19.5727 53.2772,55.1038 -22.8586,-2.96816 -46.0469,-11.5438 -69.717,-28.313 25.776,33.4885 39.3744,65.3534 40.7951,95.5945 -18.5964,-11.0866 -40.5672,-39.0444 -64.846,-78.5458 18.3869,58.4907 34.3826,86.5245 31.3574,133.345 -35.3152,-38.7655 -46.5795,-87.882 -62.106,-129.996 9.46319,78.128 10.4272,136.504 2.13109,163.485 -20.1946,-32.7782 -30.6471,-117.616 -47.1884,-168.051l89.3163 -110.564 -114.564 -59.7966z"/>
  <path fill="black" d="M410.387 445.962c-3.36132,-15.3167 -20.6677,-64.2912 -41.0995,-122.69l-1.52221 6.6977 42.6218 115.992z"/>
  <path fill="black" d="M478.582 221.285c-5.88586,10.7569 -25.1671,18.2665 -57.8438,22.5286l2.13109 -5.1755c23.036,-1.72517 41.607,-7.50955 55.7127,-17.3531z"/>
  <path fill="black" d="M305.964 43.7956c6.31191,2.7995 5.87764,75.3489 -3.03392,129.608l-4.55613 -8.80782c6.16507,-32.5055 12.994,-77.9437 7.59005,-120.8z"/>
  <path fill="black" d="M328.806 123.674c5.06665,9.34356 8.91695,21.4274 9.11339,38.0781l3.25984 0.0558425c6.40857,-10.1404 14.2376,-22.0581 27.1429,-28.1373 5.42608,17.8707 -1.32548,31.7835 -0.161575,46.6098l3.95405 -6.11887c8.69046,-9.29452 18.3696,-16.6102 29.4962,-21.0328 3.04299,15.5537 -8.22331,34.4583 -6.70252,45.4453 7.9217,-7.24734 18.4836,-17.8194 32.9094,-19.3893 -0.653386,10.063 -4.42687,25.9631 -12.3863,37.6501 9.44306,-3.53027 18.176,-2.03556 29.2439,1.74359 -5.56243,10.8709 -16.9359,20.5503 -28.1804,27.3631l4.04419 -0.850111c11.9753,3.57903 24.764,8.57934 31.0564,13.7829 -9.06747,9.4629 -27.5125,17.2519 -40.6386,16.9727l1.46239 2.40236c10.4797,0.597827 22.9898,9.11339 35.0941,24.3289 -11.7187,3.15128 -18.6911,3.28337 -29.5968,2.37628 7.75815,10.6379 7.20567,16.0342 6.03411,25.8611 -10.7787,0.81978 -17.0918,-6.07493 -21.3752,-10.9372l-6.30199 -5.22284c4.9938,10.345 4.40362,29.0166 1.27616,37.7374 -8.09547,-4.27408 -20.8103,-16.5688 -26.2653,-26.5266l-3.95858 -15.948 -0.492095 5.12646c8.74545,18.2993 6.75723,44.5581 -3.98438,55.5506 -18.6545,-17.7021 -25.1325,-57.024 -25.2159,-82.946 7.27937,-15.0809 17.5272,-27.5227 32.114,-36.108 -13.1797,-13.3897 -19.1285,-28.2254 -20.1294,-44.0501 -13.4201,14.9448 -50.1239,22.3917 -65.6547,-5.09726 -9.75204,-17.2613 -6.60388,-40.0436 -6.45137,-57.9745 0.111402,-13.0842 -3.46677,-15.9154 -2.67591,-24.9619 12.7888,13.0873 21.1272,34.5104 29.3497,58.8629 0.593575,-15.8808 6.16111,-33.8939 24.6203,-54.6466z"/>
  <path fill="black" d="M445.093 398.774c-13.3954,-24.4568 -29.6323,-49.7254 -48.7106,-75.8058l-1.52221 4.56662c16.7445,22.0468 33.4888,45.9454 50.2328,71.2392z"/>
  <path fill="black" d="M480.104 277.911c-21.7976,-0.937418 -41.6387,-2.40832 -54.495,-5.78438l-8.16747 4.27266c15.0973,2.53162 52.9467,3.86873 62.6624,1.51172z"/>
  <path fill="white" d="M326.369 124.283c5.06665,9.34356 3.43446,20.8182 3.6309,37.4689l5.69651 0.0558425c6.40857,-10.1404 17.2834,-21.4489 30.1887,-27.5281 5.42608,17.8707 -6.19881,31.7835 -5.0349,46.6098l5.78155 -4.29137c8.69046,-9.29452 21.4155,-18.4377 32.542,-22.8603 3.04299,15.5537 -12.4875,29.5849 -10.9667,40.572 7.9217,-7.24734 22.1386,-12.337 36.5644,-13.9068 -0.653386,10.063 -10.5185,20.4806 -18.4779,32.1676 9.44306,-3.53027 24.8769,-0.208063 35.9447,3.57109 -5.56243,10.8709 -19.3725,17.5045 -30.617,24.3173l4.65336 -0.240945c11.9753,3.57903 23.5457,8.57934 29.8381,13.7829 -9.06747,9.4629 -22.03,14.8153 -35.1561,14.5361l-3.41093 4.22986c10.4797,0.597827 24.2082,5.4584 36.3124,20.6739 -11.7187,3.15128 -26.0011,4.5017 -36.9068,3.59462 7.75815,10.6379 15.734,26.9992 14.5624,36.826 -10.7787,0.81978 -23.7926,-4.8566 -28.076,-9.71887l-5.08366 -5.832c2.86129,8.92347 7.14473,19.2699 6.75865,29.8182 -8.09547,-4.27408 -20.8103,-9.25881 -26.2653,-19.2166l-7.00441 -14.1205 -1.71043 5.12646c6.61266,17.5887 7.67056,37.5526 -0.329386,49.4589 -18.6545,-17.7021 -24.5234,-52.7599 -24.6067,-78.6819 7.27937,-15.0809 17.5272,-27.5227 32.114,-36.108 -13.1797,-13.3897 -19.1285,-28.2254 -20.1294,-44.0501 -13.4201,14.9448 -50.1239,22.3917 -65.6547,-5.09726 -9.75204,-17.2613 -6.60388,-40.0436 -6.45137,-57.9745 0.111402,-13.0842 -3.46677,-15.9154 -2.67591,-24.9619 12.7888,13.0873 19.9089,31.4646 28.1313,55.817 0.593575,-15.8808 7.37944,-33.2847 25.8387,-54.0374z"/>
  <path fill="#CCCCCC" d="M328.197 127.329c5.06665,9.34356 6.48029,21.4274 6.67673,38.0781l3.25984 -2.98999c6.40857,-10.1404 14.8467,-19.0123 27.752,-25.0914 5.42608,17.8707 -1.32548,32.3926 -0.161575,47.219l3.34488 -6.72803c8.69046,-9.29452 18.3696,-16.6102 29.4962,-21.0328 3.04299,15.5537 -7.00498,30.1941 -5.48419,41.1812 7.9217,-7.24734 17.2653,-12.9461 31.6911,-14.5159 -0.653386,10.063 -5.6452,21.0898 -13.6046,32.7767 9.44306,-3.53027 20.0035,-2.03556 31.0714,1.74359 -5.56243,10.8709 -14.4992,19.332 -25.7437,26.1448l4.65336 -0.240945c11.9753,3.57903 21.1091,7.97018 27.4014,13.1737 -9.06747,9.4629 -19.5934,15.4244 -32.7195,15.1452l-3.41093 4.22986c10.4797,0.597827 21.1623,6.67673 33.2666,21.8923 -11.7187,3.15128 -22.9553,3.28337 -33.861,2.37628 7.75815,10.6379 11.4698,20.9075 10.2983,30.7344 -10.7787,0.81978 -18.3101,-1.20161 -22.5936,-6.06388l-6.30199 -3.39534c2.86129,8.92347 4.0989,15.6149 3.71282,26.1632 -8.09547,-4.27408 -15.937,-8.04048 -23.2194,-15.5616l-7.00441 -14.1205 -1.71043 5.12646c6.61266,17.5887 5.23389,32.0701 -2.76605,43.9764 -18.6545,-17.7021 -22.0867,-47.2774 -22.1701,-73.1994 7.27937,-15.0809 17.5272,-27.5227 32.114,-36.108 -13.1797,-13.3897 -19.1285,-28.2254 -20.1294,-44.0501 -13.4201,14.9448 -50.1239,22.3917 -65.6547,-5.09726 -9.75204,-17.2613 -6.60388,-40.0436 -6.45137,-57.9745 0.111402,-13.0842 -3.46677,-15.9154 -2.67591,-24.9619 12.7888,13.0873 17.4722,30.8554 25.6947,55.2079 0.593575,-15.8808 6.77027,-33.2847 25.2295,-54.0374z"/>
  <path fill="black" d="M367.157 27.0513c9.13323,25.776 -3.14589,64.2371 -30.1397,134.867l-1.82665 -7.30659c17.6576,-49.8269 34.0974,-72.5585 31.9663,-127.561z"/>
  <path fill="black" d="M429.263 45.0133c-2.89191,24.9888 -20.9551,66.1391 -61.1927,130.91l-0.608882 -11.2643c35.0578,-46.5948 49.5902,-83.6589 61.8015,-119.645z"/>
  <path fill="black" d="M395.165 188.689c59.842,-45.6353 78.4086,-88.4526 79.1547,-110.491 -6.084,28.9715 -27.2815,63.1701 -78.8398,105.946l-0.314929 4.54564z"/>
  <path fill="black" d="M485.584 152.177c-2.91232,18.0615 -21.634,39.3724 -71.2392,60.2793l2.43553 -4.87106c38.4358,-16.0339 61.2185,-34.5039 68.8037,-55.4083z"/>
  <path fill="black" d="M475.233 345.192c-18.6216,-13.75 -38.613,-28.059 -56.3216,-42.6218l-3.04441 4.87106c21.0382,14.1704 42.4452,29.344 59.366,37.7507z"/>
  <path fill="black" d="M347.672 375.027c4.05921,45.1588 8.11843,72.0511 12.1776,108.077 -5.47994,-30.5456 -10.6554,-60.1779 -16.4398,-91.6368l4.26218 -16.4398z"/>
  <path fill="black" d="M351.676 204.808c-32.692,24.1634 -54.8252,18.2747 -66.3991,-17.6658 5.17748,42.8757 45.7881,45.2962 66.3991,17.6658z"/>
  <path fill="black" d="M353.503 203.589c0.214299,3.45657 0.352063,7.97415 6.69855,11.5736l-6.69855 -11.5736z"/>
  <path fill="black" d="M178.761 221.285c60.1779,-0.913323 32.6767,-69.4126 44.4484,-88.5924 -9.94508,20.702 20.6005,91.3323 -44.4484,88.5924z"/>
  <path fill="black" d="M143.064 204.69c1.72517,22.6551 -8.36873,39.9456 -19.6333,55.2949 16.4398,11.5688 27.6027,23.9494 33.4885,37.1418 -0.470551,-9.50996 -6.09733,-20.6209 -30.1397,-37.4463 13.8013,-20.2961 21.9674,-37.9418 16.2845,-54.9905z"/>
  <path fill="black" d="M253.361 492.004c133.215,-88.3611 107.582,-176.798 76.3657,-208.514 -37.1138,-37.7085 -84.7795,0.473386 -69.336,21.3925 62.1839,-41.6089 66.4348,55.0934 7.57021,31.479 11.2932,24.7411 -3.08041,38.0894 -15.4006,46.2019 -15.2238,-5.87821 -19.0746,-24.5018 -14.5998,-48.2553 -53.0396,25.3837 -50.6498,-67.0128 4.55868,-33.6898 12.9943,-30.0294 -35.0464,-55.3621 -69.2533,-13.701 -40.1978,48.9583 -11.2388,152.051 80.0952,205.086z"/>
  <path fill="white" d="M245.442 492.004c133.215,-88.3611 109.409,-176.189 78.1932,-207.905 -37.1138,-37.7085 -82.952,-6.22744 -66.8994,21.3925 38.471,-51.1886 72.8836,56.7207 5.13355,31.479 11.2932,24.7411 -3.08041,38.0894 -15.4006,46.2019 -15.2238,-5.87821 -19.0746,-24.5018 -14.5998,-48.2553 -57.9989,28.7861 -38.4854,-82.2462 6.99534,-28.2073 12.9943,-27.5927 -37.4828,-60.8448 -71.6899,-19.1835 -40.1981,48.9586 -13.0663,151.442 78.2677,204.477z"/>
  <path fill="#BF9F4F" d="M248.488 492.004c133.215,-88.3611 109.409,-176.189 78.1932,-207.905 -37.1138,-37.7085 -82.3428,-5.0091 -66.8994,15.91 53.0465,-34.9081 63.9981,60.5758 5.13355,36.9615 11.2932,24.7411 -3.08041,38.0894 -15.4006,46.2019 -15.2238,-5.87821 -19.0746,-24.5018 -14.5998,-48.2553 -54.3286,29.647 -49.9544,-75.0016 6.38618,-34.9081 12.9943,-27.5927 -36.8737,-54.1443 -71.0808,-12.4827 -40.1984,48.9586 -13.0663,151.442 78.2677,204.477z"/>
 </g>
</svg>
