<?xml version="1.0" encoding="utf-8"?>
<!-- Generator: Adobe Illustrator 13.0.0, SVG Export Plug-In . SVG Version: 6.00 Build 14948)  -->
<svg version="1.2" baseProfile="tiny"
	 id="Layer_1" sodipodi:version="0.32" sodipodi:docname="Orimattilan_vaakuna.svg" inkscape:version="0.45+0.46pre0+devel" xmlns:dc="http://purl.org/dc/elements/1.1/" xmlns:cc="http://creativecommons.org/ns#" xmlns:rdf="http://www.w3.org/1999/02/22-rdf-syntax-ns#" xmlns:svg="http://www.w3.org/2000/svg" xmlns:sodipodi="http://sodipodi.sourceforge.net/DTD/sodipodi-0.dtd" xmlns:inkscape="http://www.inkscape.org/namespaces/inkscape" inkscape:output_extension="org.inkscape.output.svg.inkscape"
	 xmlns="http://www.w3.org/2000/svg" xmlns:xlink="http://www.w3.org/1999/xlink" x="0px" y="0px" width="500px" height="590px"
	 viewBox="0 0 500 590" xml:space="preserve">
<defs>
	
	
		<inkscape:perspective  id="perspective130" inkscape:persp3d-origin="300 : 400 : 1" inkscape:vp_x="-50 : 600 : 1" inkscape:vp_y="0 : 1000 : 0" inkscape:vp_z="700 : 600 : 1" sodipodi:type="inkscape:persp3d">
		</inkscape:perspective>
	
		<inkscape:perspective  id="perspective352" inkscape:persp3d-origin="300 : 400 : 1" inkscape:vp_x="-50 : 600 : 1" inkscape:vp_y="0 : 1000 : 0" inkscape:vp_z="700 : 600 : 1" sodipodi:type="inkscape:persp3d">
		</inkscape:perspective>
</defs>
<sodipodi:namedview  id="base" inkscape:current-layer="Layer_1" inkscape:window-y="-8" inkscape:window-x="-8" inkscape:window-height="944" inkscape:window-width="1280" inkscape:pageopacity="0.0" inkscape:pageshadow="2" inkscape:cy="291.67985" inkscape:cx="350.64621" inkscape:zoom="1" showgrid="false" pagecolor="#ffffff" bordercolor="#666666" borderopacity="1.0" objecttolerance="10.0" gridtolerance="10.0" guidetolerance="10.0">
	</sodipodi:namedview>
<g id="g3340">
	<path id="path4360" fill="#DF0024" stroke="#000000" d="M4.056,3.212c1.04,136.098-1.319,274.297,0.48,407.994
		c16.076,64.237,94.879,104.287,178.467,123.273c22.373,4.773,40.151,14.984,55.526,31.787c5.424,6.232,8.379,13.937,12.147,21.117
		v0.222c0.018-0.034,0.019-0.076,0.037-0.11c0.02,0.039,0.053,0.071,0.073,0.11v-0.222c3.768-7.181,6.723-14.885,12.146-21.117
		c15.376-16.803,33.153-27.014,55.526-31.787c83.588-18.986,162.391-59.036,178.467-123.273c1.8-133.697-0.56-271.896,0.48-407.994
		h-246.62h-0.11H4.056z"/>
	<path id="path9" fill="#C9C9C9" d="M244.645,17.564c-18.151,0.007-36.319,0.521-54.394,1.394
		c-16.08,1.291-32.019,2.098-47.865,4.328c-20.071,2.583-40.398,4.335-60.116,8.913c-7.16,1.761-15.023,3.404-20.54,8.803
		c-3.756,3.874-3.646,9.646-5.759,14.341c-1.643,3.404-0.675,7.145-0.44,10.784c1.76,12.559,2.208,25.367,3.851,37.925
		c1.409,9.625,1.541,19.352,3.301,28.976c3.638-0.118,7.394-0.337,11.15-0.807c0.47-2.934,0.58-6.118,2.458-8.583
		c3.169-4.695,8.693-6.94,13.388-9.757c1.056-0.704,1.988-1.276,3.044-1.98c-0.235-0.587-0.829-1.761-1.064-2.348
		c-8.803,4.578-16.674,11.048-26.298,13.865c1.996-2.113,4.248-4.013,6.712-5.539c0-4.108-1.167-8.436-0.11-12.544
		c2.935-4.695,8.312-6.947,13.241-9.06c2.582-1.056,4.805-2.817,4.805-5.869c-9.625,3.287-17.004,10.806-26.628,13.975
		c2.582-2.347,5.282-4.328,8.216-6.088c-1.761-3.639-3.646-8.348-1.063-12.104c3.756-4.813,9.756-6.917,15.038-9.5
		c1.174-1.408,2.208-2.949,3.264-4.475c-9.39,3.756-16.989,11.04-26.849,13.975c2.348-2.23,4.813-4.226,7.629-5.869
		c-0.352-3.639-3.536-8.678,0.22-11.26c3.639-2.817,7.857-4.343,11.847-6.456c1.644-1.056,3.059-2.237,4.585-3.411
		c-3.052-0.117-5.751,1.416-8.216,2.824c-5.751,3.521-12.089,6.104-18.192,8.803c2.23-1.996,4.57-3.866,7.152-5.392
		c0.353-2.347,0.367-4.827,1.541-6.822c4.578-2.582,9.955-2.824,15.001-3.998c0.587-0.352,1.907-1.152,2.494-1.504
		c-0.821-0.47-2.479-1.291-3.301-1.761l-0.807,0.11c-3.169,0.352-6.367,0.22-9.536,0.22c0.587-3.638,2.941-6.199,6.345-7.372
		c4.343-0.939,7.057,2.81,9.169,5.979c2.817,4.46,7.373,7.174,10.894,10.93c12.676,13.967,20.32,31.69,26.188,49.296
		c1.291-0.118,2.597-0.36,3.888-0.477l0.807-0.11c6.456-4.108,13.601-7.064,20.76-9.646c27.23-12.207,55.986-20.07,84.507-28.169
		c27.935-6.573,56.704-10.446,85.461-9.977c20.305-0.352,40.603,1.071,60.556,4.475c24.414,3.287,48.122,10.681,71.01,19.366
		c4.577,1.995,9.178,4.68,14.341,4.328c-1.761-9.507-7.416-17.371-12.581-25.235c-7.158-9.39-17.238-16.087-27.802-21.017
		c-23.475-10.916-49.171-15.596-74.641-19.586c-12.206-1.643-24.428-3.638-36.752-4.108
		C291.314,18.372,267.982,17.556,244.645,17.564z M103.14,55.013c1.082,1.069,2.091,2.223,2.971,3.484
		C105.23,57.236,104.222,56.083,103.14,55.013z"/>
	<path id="path13" fill="#BA7076" d="M227.582,30.211c8.686,0.469,17.488,0.234,26.174,0.117c6.455,1.056,13.263-0.352,19.366,2.582
		c-0.47,0.822-0.938,1.643-1.292,2.465c0.939,1.526,1.879,3.169,2.816,4.695c-2.23-1.995-4.342-4.225-7.042-5.751
		c-1.526,0.352-3.052,0.821-4.46,1.291c0.587,1.526,1.291,3.052,1.995,4.46c-2.466-1.995-4.813-4.225-7.629-5.869
		c-1.995-0.586-4.108-0.586-6.222-0.704c0.821,1.409,1.527,2.934,2.229,4.343c-1.644-1.409-3.403-2.817-5.047-4.225
		c-1.408,0.586-2.817,1.056-4.225,1.525c0.704,1.644,1.408,3.287,2.113,5.047c-2.935-3.052-5.986-5.869-9.272-8.568
		c-0.352,1.291-0.704,2.582-0.939,3.756c2.465,2.348,4.812,4.93,5.751,8.333C237.559,38.779,232.395,34.671,227.582,30.211
		L227.582,30.211z"/>
	<path id="path15" fill="#BA7076" d="M272.301,30.094c2.465,0.47,5.047,1.174,7.629,1.174c11.15-0.352,22.535,0.235,33.568,1.995
		c3.64,0,4.577,3.991,5.986,6.573c-3.169-2.464-6.808-4.46-10.563-5.751c1.056,1.995,2.229,4.108,3.287,6.221
		c-2.7-2.113-5.517-4.343-8.921-5.399c0.117,1.291,0.234,2.699,0.469,3.99c-2.934-3.286-6.924-5.164-11.268-5.868
		c0.704,1.643,1.525,3.169,2.229,4.812c-1.525-1.174-3.051-2.7-4.928-3.404c-2.935,0.704-5.987,1.291-9.038,1.174
		c0.235,1.174,0.469,2.347,0.704,3.521C278.286,36.197,275.117,33.263,272.301,30.094L272.301,30.094z"/>
	<path id="path17" fill="#BA7076" d="M200.47,33.146c1.878-0.822,3.638-2.582,5.868-1.995c2.935,0.352,4.46,3.169,6.221,5.281
		c-1.643-0.234-3.169-0.469-4.695-0.821c0.704,1.878,1.409,3.756,2.23,5.751c-3.169-3.404-7.042-6.69-12.089-5.868
		c0.939,1.878,1.76,3.873,2.699,5.751c-2.23-1.409-4.343-3.169-6.925-3.639c-2.582-0.234-5.047,0.587-7.629,0.587
		c-3.874-0.235-7.16-2.347-10.211-4.46c1.878,0.235,3.756,0.352,5.634,0.587c2.582-2.113,5.634-0.704,8.451,0
		C193.192,32.441,196.948,32.559,200.47,33.146L200.47,33.146z"/>
	<path id="path19" fill="#BA7076" d="M210.916,31.737c5.751,1.056,11.62-0.47,17.371,0.821c0.118,0.704,0.353,2.113,0.47,2.7
		c-3.169-0.47-6.338-0.705-9.39-0.118c1.056,2.23,2.23,4.343,3.286,6.456C218.427,38.779,214.437,35.375,210.916,31.737
		L210.916,31.737z"/>
	<path id="path21" fill="#BA7076" d="M317.958,32.441c2.347,0.469,4.576,1.291,6.924,1.408c2.466-0.234,4.694-1.174,7.16-1.174
		c15.492,4.813,32.043,3.756,47.769,7.277c7.277,2.113,14.438,5.047,21.949,6.221c4.577,0.704,8.686,2.934,13.146,4.46
		c-0.235,1.408-0.47,2.934-0.704,4.46c-1.88-2.934-4.108-5.751-7.864-6.103c0.117,0.704,0.234,2.347,0.353,3.169
		c-4.226-4.226-10.212-5.047-15.729-6.573c0.235,1.408,0.47,2.699,0.822,3.991c-2.348-2.935-4.93-6.104-9.038-5.399
		c-0.117,0.587-0.468,1.996-0.587,2.583c-4.342-5.047-11.268-4.578-17.019-6.573c0.118,0.586,0.354,1.878,0.587,2.464
		c-3.873-3.873-9.39-3.169-14.318-3.169c0,0.939,0.117,1.996,0.233,3.052c-2.465-2.582-5.163-4.93-8.92-5.047
		c0.704,2.113,1.408,4.226,2.113,6.221c-2.583-2.817-4.695-6.456-8.334-8.099c-1.525-1.174-2.816,0.587-3.873,1.526
		c-2.23-0.705-4.461-1.526-6.69-2.23c1.526,2.347,3.169,4.46,4.695,6.69C326.408,38.662,321.831,35.962,317.958,32.441
		L317.958,32.441z"/>
	<path id="path23" fill="#BA7076" d="M159.742,35.023c2.582-0.235,5.165-0.822,7.864-0.939c8.568,0.939,16.667,6.221,20.305,14.319
		c-3.404-2.817-6.221-6.456-10.211-8.451c-2.23-0.822-4.343-1.644-6.573-2.348c1.525,2.113,3.051,4.108,4.695,6.104
		c0.586,1.643,0.939,3.169,1.408,4.812C172.066,43.239,166.901,37.605,159.742,35.023L159.742,35.023z"/>
	<path id="path25" fill="#BA7076" d="M142.488,37.371c5.164-0.353,10.446-1.761,15.493-0.705c4.812,3.052,8.685,7.395,11.972,11.972
		c-4.813-2.935-7.747-9.272-14.202-8.92c1.761,2.817,3.639,5.634,5.165,8.686c-4.226-3.287-7.395-9.272-13.498-8.568
		c2.23,3.169,4.577,6.221,6.455,9.625c-3.286-2.934-6.338-6.338-10.916-7.16c1.409,2.935,3.052,5.751,4.93,8.451
		c-2.113-1.995-4.343-4.108-6.808-5.751c-2.934-2.113-5.751-4.108-8.685-6.221c3.756,1.056,7.394,2.113,11.033,3.169
		C143.192,40.422,142.84,38.896,142.488,37.371L142.488,37.371z"/>
	<path id="path31" fill="#BA7076" d="M125.822,39.953c1.995,0.352,3.99,0.587,5.868,1.174c2.113,1.878,3.991,3.99,5.986,5.986
		c1.76,2.347,2.464,5.399,3.169,8.333c-3.052-3.521-5.517-7.746-9.507-10.094c-1.408-0.352-4.343,0.939-2.934,2.7
		c1.526,3.052,3.639,5.751,5.282,8.568c-3.521-3.521-6.456-7.512-10.211-10.916c-1.174,0.704-2.347,1.409-3.521,2.113
		c1.056,2.582,2.113,5.047,3.169,7.629c-3.287-3.521-6.221-8.568-11.737-8.451c1.996,3.639,4.226,7.042,6.104,10.798
		c-3.873-3.639-7.629-7.277-11.854-10.446c3.521-0.587,7.277-1.057,10.916-1.409c-1.643-1.174-3.287-2.23-4.93-3.287
		c2.817-1.056,5.751-0.234,8.333,1.057c0.469-0.352,1.291-1.057,1.76-1.409c2.583,0.705,5.165,1.174,7.747,1.644
		C128.287,42.652,127.113,41.244,125.822,39.953L125.822,39.953z"/>
	<path id="path33" fill="#BA7076" d="M78.756,44.296c4.343-0.939,7.042,2.817,9.155,5.986c-1.643,0.352-3.404,0.704-5.164,1.056
		l-0.822,0.118c-0.117-1.526-0.235-3.052-0.235-4.578C80.634,46.056,79.695,45.117,78.756,44.296L78.756,44.296z"/>
	<path id="path35" fill="#C9C9C9" stroke="#C9C9C9" d="M72.418,51.69c0.587-3.638,2.934-6.22,6.338-7.394
		c0.939,0.821,1.878,1.76,2.934,2.582c0,1.526,0.118,3.052,0.235,4.578C78.756,51.808,75.587,51.69,72.418,51.69L72.418,51.69z"/>
	<path id="path37" fill="#BA7076" d="M101.174,48.286c3.873,1.526,7.864,3.991,7.864,8.568
		C105.751,54.742,103.404,51.573,101.174,48.286L101.174,48.286z"/>
	<path id="path39" fill="#C9C9C9" stroke="#C9C9C9" d="M68.544,58.615c4.578-2.583,9.977-2.817,15.023-3.991
		c-4.929,4.46-10.798,7.512-16.549,10.798C67.371,63.075,67.371,60.61,68.544,58.615L68.544,58.615z"/>
	<path id="path41" fill="#BA7076" d="M425.117,55.681c4.108,2.465,8.92,3.756,12.324,7.395c1.761,2.113,4.813,1.408,7.277,1.643
		c0.82,2.7-0.94,4.812-2.467,6.808C438.967,63.896,429.108,62.84,425.117,55.681L425.117,55.681z"/>
	<path id="path43" fill="#BA7076" d="M86.268,59.202c1.643,0,3.404,0,5.165,0.118c-0.47,4.93-1.409,10.094-0.353,15.141
		c0.353,3.639,1.878,7.395,0.939,11.033c-1.408,1.291-3.051,2.347-4.695,3.286c-0.586-0.47-1.76-1.291-2.347-1.761
		c0.704-0.939,1.526-1.995,2.347-2.934c-0.469-0.235-1.291-0.704-1.76-0.939c0.352-1.056,0.704-2.113,0.939-3.169
		c-0.352-0.117-1.291-0.587-1.643-0.822c0.234-0.821,0.469-1.643,0.704-2.465c1.174-1.408,2.23-2.934,3.286-4.46
		c-9.39,3.756-17.019,11.033-26.878,13.967c2.348-2.23,4.813-4.226,7.629-5.869c6.103-3.404,12.089-7.042,17.488-11.502
		c-1.644-0.234-3.169-0.587-4.695-0.821c1.408-1.174,2.817-2.465,4.225-3.756c-1.643-0.47-3.286-1.057-4.93-1.644
		C83.333,61.549,84.742,60.375,86.268,59.202L86.268,59.202z"/>
	<path id="path47" fill="#C9C9C9" d="M349.985,67.887c-8.921,2.113-17.833,5.502-25.345,10.784c-3.873,2.465-5.752,6.83-7.629,10.82
		c-2.348-0.352-4.805-0.704-7.152-1.173c-1.29-0.587-2.706-1.167-3.998-1.871c-3.755-1.878-7.263-4.116-10.783-6.346
		c1.995-1.76,3.865-3.426,5.979-4.952c2.23-0.469,4.593-0.924,6.822-1.394c-2.861-2.729-6.654-3.962-10.453-3.925
		c-6.334,0.063-12.729,3.668-14.929,9.903c-2.348,5.047,0.128,10.204,2.237,14.781c-17.369,1.996-34.397,5.994-50.946,11.627
		c-12.559,4.342-26.042,1.541-38.953,0.954c-4.46-0.47-8.436,2.472-10.196,6.345c-1.409,3.521-1.431,7.482-3.191,11.003
		c-1.761,3.521-5.282,5.876-7.042,9.28c-1.056,2.23-0.946,4.805-1.063,7.152c1.995-0.118,3.88-0.22,5.758-0.22
		c0.245,0.003,0.489,0,0.733,0c-0.425,2.05-0.856,4.171-1.284,6.309c6.808-0.469,13.623-1.284,20.43-1.871l0.11,1.064
		c2.23-0.705,4.68-1.203,6.675-2.494c0.705,1.526,1.775,1.782,3.301,0.843c2.23-0.234,4.438-0.352,6.786-0.586
		c-0.564-1.988-8.121-3.702-5.062-3.265c5.164,0.822,9.734,3.154,14.194,5.502c3.639,3.286,6.947,7.534,7.299,12.581
		c0.235,2.465-1.65,4.585-3.998,5.171c-5.634,1.644-12.074,2.201-17.239-1.32c-9.507-5.751-21.266-6.338-31.947-4.108
		c-6.573,1.056-12.786,4.248-19.476,4.365c-4.578,0.352-7.512-3.426-10.563-6.125c-2.934,3.051-6.441,6.712-5.502,11.407
		c0.235,6.69,7.834,11.363,13.938,9.72c3.052-1.056,6.118-1.995,9.169-2.934c6.573-2.23,11.862-7.145,18.669-9.023
		c2.582-0.587,5.406-0.455,8.106-0.807c-1.174,0.939-2.347,1.996-3.521,2.935c-2.348,1.525-2.839,6.323,0.33,7.262
		c3.521,1.056,5.296,4.24,6.822,7.409c1.526,0.939,3.169,1.856,4.695,2.677c5.047-1.995,9.742-4.585,14.671-6.932
		c-0.47-0.822-0.961-1.636-1.431-2.458c7.512-0.352,14.796,0.726,22.19,1.431c5.515-0.353,10.461,2.34,15.625,3.631
		c0.116-1.056,0.221-2.237,0.221-3.411c1.76,1.174,3.41,2.245,5.171,3.301c-0.353-1.409-0.719-2.846-0.954-4.255
		c1.41,1.057,2.847,2.142,4.256,3.081c-0.235-2.7-0.353-5.399-0.588-8.216c2.817,3.521,5.518,7.262,9.391,9.61
		c1.292,0.939,2.69,1.636,4.218,2.457c0.233,0.587,0.829,1.9,1.063,2.604c1.645,0.587,3.162,1.291,4.805,1.761
		c0.469,1.056,0.926,1.988,1.395,3.044c-4.342,2.465-8.077,5.876-12.654,8.106c-12.559,6.456-26.183,10.789-38.623,17.716
		c-9.39,5.634-18.427,11.972-25.822,19.953c-10.446,10.681-17.979,23.819-23.144,37.668c-1.526,4.226-3.624,8.678-7.849,10.673
		c-5.399-1.526-10.086-4.688-15.368-6.565c-15.316-5.899-35.139-11.609-51.606-14.634c-2.415-21.91-3.459-43.991-5.429-65.985
		c-1.408-11.15-2.487-22.19-3.778-33.34c-1.174-8.568-1.167-17.488-3.631-25.822c-2.582-7.629,3.976-14.561,2.568-22.19
		c-1.761-9.038-1.504-18.302-3.852-27.105c-0.939,0.235-1.782,0.565-2.604,0.917c0,3.052-2.223,4.811-4.805,5.869
		c1.056,3.873,2.01,7.871,4.475,11.04c-5.282,4.46-11.62,7.277-17.605,10.563c-2.465,1.526-4.717,3.426-6.712,5.539
		c9.625-2.817,17.496-9.287,26.298-13.865c0.235,0.587,0.829,1.761,1.064,2.348c-1.057,0.704-1.988,1.276-3.044,1.98
		c0.704,1.644,1.276,3.418,1.98,5.062c-1.76,1.291-3.521,2.45-5.282,3.741c0.939,1.174,1.878,2.238,2.935,3.411
		c0.821,0.353,1.665,0.814,2.604,1.284c-4.225,3.638-9.977,3.763-15.258,4.584c-1.291,1.057-2.589,2.252-3.998,3.191
		c-1.761,0.47-3.411,0.924-5.172,1.394c0.352,11.385,2.245,22.761,3.301,34.147c2.464,28.404,6.309,56.69,8.069,85.094
		c-4.812-0.705-9.375-2.333-14.304-2.568c-3.287-0.235-5.626,2.583-7.739,4.695c-4.93,4.813-9.617,11.025-8.913,18.303
		c1.291,13.967,6.213,27.332,8.326,41.3c4.343,20.304,5.619,41.089,9.023,61.51c1.291,6.339,3.426,12.786,7.886,17.716
		c1.995,1.995,4.805,3.646,7.739,2.824c0.587-0.353,1.871-0.82,2.458-1.174c4.343-2.348,9.265-2.105,13.607-0.11
		c-2.23,0.235-4.445,0.367-6.675,0.367c2.582,1.292,5.157,2.56,7.739,3.851c0.469,2.231,0.954,4.593,1.541,6.822
		c0.229,0.36,0.493,0.706,0.733,1.064c-1.993-0.645-4.349-0.896-6.015-2.128c0.352,5.282,1.173,10.564,1.76,15.846
		c2.23,17.37,3.162,34.853,5.392,52.34c1.056,7.512,0.939,15.383,3.521,22.777c2.699,1.409,5.516-0.945,8.216-1.65
		c4.93-1.644,9.955-2.208,15.001-3.265c-3.149-33.048-3.85-39.524-4.438-44.454c-0.219-7.549-0.839-19.199-1.65-27.876
		c5.399,1.761,10.798,3.529,16.432,4.585c0.704-10.094-1.995-20.07-5.869-29.343c-2.817-6.337-6.47-13.131-12.69-16.652
		c-1.291-0.471-2.67-0.578-3.961-0.696c1.643-12.677-0.374-25.367-2.017-37.926c-0.939-10.563-1.511-21.126-2.568-31.69
		c-0.395-3.729-0.797-7.5-1.063-11.297c5.681,6.438,15.7,15.377,22.411,20.467c4.108,3.169,7.988,7.139,13.388,7.959
		c1.056,1.41,1.98,2.811,3.154,4.219c2.699,2.348,5.891,4.116,9.06,5.758c0.704,0.47,2.12,1.182,2.824,1.65
		c-0.118,8.686,1.504,17.371,3.851,25.822c1.291,5.281,5.047,9.513,7.042,14.561c-1.292,4.342-3.998,8.203-5.759,12.545
		c-6.221,15.845-10.299,32.512-13.351,49.295c-2.464,13.616-9.631,25.705-13.974,38.732c-2.465,6.223-0.587,13.512,3.521,18.56
		c0.587,0.116,1.621,0.22,2.091,0.22c2.582,0,4.812,1.174,6.455,2.935c4.578,5.047,11.523,5.741,17.863,6.565
		c7.512,1.29,14.678,3.998,22.19,5.172c10.211,1.644,20.063,5.164,29.453,9.39c8.099,3.873,15.016,11.627,24.758,11.04
		c7.628,0.235,12.558-7.292,19.953-7.996c4.695-0.821,8.217,3.081,11.737,5.429c6.221-3.051,12.573-6.125,19.146-8.473
		c5.517-1.878,10.196-5.612,13.718-10.307c0.234-0.353,0.719-0.969,0.953-1.32c-7.98-8.216-17.979-14.085-28.426-18.779
		c-4.576-1.644-9.631-3.624-14.561-2.567c-4.578,1.174-3.507,6.565-4.328,10.086c-0.235,2.935-3.396,3.755-5.393,5.282
		c-3.051,1.526-5.523-1.183-6.345-3.998c-0.116-2.699,0.463-5.267,0.696-7.85c-0.117-0.821-0.462-2.471-0.696-3.411
		c-6.221,6.456-15.97,9.75-24.538,6.346c-16.314-6.69-31.932-15.391-49.186-19.146c-0.235-0.704-0.58-2.082-0.697-2.787
		c5.751-6.924,12.809-12.911,17.973-20.54c6.104-9.037,13.124-17.487,20.283-25.821c3.521,4.343,6.808,8.773,11.15,12.177
		c16.549,12.207,34.066,23.137,52.377,32.644c6.455,3.991,13.486,6.92,19.476,11.848c4.225,3.405,9.28,5.626,13.975,8.326
		c5.633,3.17,9.36,8.598,14.524,12.471c6.69,5.046,12.097,14.942,16.909,21.75c41.401-11.418,89.715-32.518,119.132-61.693
		c-21.026-15.806-48.639-34.124-62.5-63.014c-5.256-10.953-13.798-20.704-20.724-28.168c-1.526-3.053-3.756-5.635-6.455-7.63
		c-0.47-2.229-0.939-4.438-1.174-6.785c0.352-0.118,1.077-0.249,1.43-0.366c0.47,0.234,1.401,0.828,1.871,1.063
		c1.645,0.939,3.301,1.856,5.062,2.678c7.748,2.348,16.432-0.321,22.301-5.722c5.398-5.282,5.839-13.732,3.374-20.54
		c-3.64-10.328-11.847-18.676-13.607-29.709c-1.526-10.446,0.242-21.354-4.218-31.214c-1.291-3.169-3.771-5.641-6.822-6.932
		c-3.287-1.291-6.684-2.098-10.087-3.154c1.291-1.173,2.487-2.347,3.778-3.521c3.051,0,6.426-0.359,9.242,1.284
		c3.403,1.761,6.243,4.673,9.06,7.373c1.526,4.695,3.265,9.272,4.438,14.084c2.348,8.567,3.081,17.73,7.188,25.711
		c2.348,5.517,6.684,10.445,12.435,12.324c6.102,1.76,13.388,2.604,18.669-1.504c3.286-2.584,6.199-5.781,7.959-9.537
		c0.587-3.403-0.82-6.66-1.76-9.829c-0.118-0.468-0.469-1.291-0.587-1.761c-0.587-0.234-1.98-0.719-2.567-0.953
		c-0.822,1.994-1.195,4.328-2.604,6.088c-1.761,1.643-4.335,1.783-6.565,2.604c-1.994-1.057-3.852-2.37-5.612-3.778
		c-1.055-10.798-1.533-21.699-2.237-32.497c0.587,1.408,1.174,2.81,1.761,4.218c1.174,3.639,2.208,7.292,3.265,10.93
		c5.281-4.93,5.634-12.566,4.694-19.256c-0.118-3.287-1.636-6.925,0.478-9.977c6.103-8.568,2.934-21.707-5.282-27.692
		c-4.107-4.343-9.154-7.644-14.084-10.93c1.056,1.761,2.179,3.477,3.338,5.135c-1.161-1.658-2.281-3.375-3.338-5.135
		c-2.23-2.817-4.556-5.517-6.786-8.216c-2.934-4.108-4.02-9.837-8.949-12.067c-0.587-0.235-1.761-0.829-2.348-1.063
		c-0.117-1.174-0.22-2.348-0.22-3.521c4.343-0.939,8.583,0.337,12.69,1.98c1.644,2.582,3.375,5.186,5.135,7.886
		c1.526,2.465,2.847,5.26,5.429,6.786c4.343,2.817,9.595,4.13,13.352,7.886c5.518,5.399,10.944,11.488,18.339,14.305
		c3.756,0.235,7.276-1.981,10.563-3.741c4.225-2.348,3.491-7.776,3.961-11.884c-0.705,0.117-1.525,0.352-2.348,0.587
		c-2.229,0.586-4.445,1.181-6.675,1.65c-2.464-2.113-5.641-3.756-7.52-6.456c-1.878-3.169-2.678-6.683-3.852-10.086
		c-1.996-6.456-5.547-12.427-9.536-17.826c-4.694-5.634-11.604-8.598-18.412-10.71c-2.111-1.878-4.231-3.624-6.346-5.502
		c2.582,1.057,5.187,1.98,7.886,3.154c6.691,2.817,13.373,5.869,20.063,8.803c6.337,2.817,12.075,9.397,19.586,7.519
		c3.875-2.464,6.939-6.11,10.344-9.279c-0.235-0.352-0.719-1.262-0.954-1.614c1.554-3.563,4.309-6.463-1.283-2.604
		c-2.584,0.47-5.158,0.932-7.739,1.284c-4.108-2.934-7.748-6.565-9.977-11.26c-1.527-3.638-4.108-6.58-7.043-9.279
		c-5.281-5.399-10.438-11.378-17.715-14.195c-7.277-3.873-15.86-2.934-23.842-4.108c-2.817-0.822-5.648-1.761-8.582-2.348
		c2.229-0.352,4.373-0.689,6.602-0.807c4.343-0.235,8.437-1.306,12.544-2.714c5.986-1.995,11.987-5.025,18.56-4.438
		c8.451,0.704,17.121,4.218,25.455,1.284c4.107-1.408,6.448-5.289,7.739-9.28c-1.057-0.469-2.208-1.071-3.265-1.54
		c0-2.935-0.132-5.869-0.367-8.803c-2.465,2.817-4.101,7.395-8.325,7.629c-6.34,0-11.869-3.382-17.386-6.199
		c-5.047-2.582-8.555-7.284-13.718-9.867c-8.216-4.225-17.848-5.392-26.886-3.631c1.526-7.277,3.169-14.921,0-22.081
		c-10.68-0.469-21.604,2.348-30.406,8.216c-3.403,1.878-5.377,6.683-9.72,5.979c-1.877-0.235-3.881-0.462-5.759-0.697
		c-1.292-0.234-2.596-0.352-3.888-0.587c2.114-5.047,4.57-9.844,6.565-14.891C348.812,71.416,349.398,69.648,349.985,67.887z
		 M270.906,115.203c3.053,1.643,6.574,2.582,9.977,1.76c0.588,0,1.731-0.139,2.201-0.257c2.113-0.234,4.13-0.359,6.125-0.477
		c-1.057,1.056-2.136,2.135-3.191,3.191c0.588,0.118,1.651,0.213,2.238,0.33c-1.761,1.643-3.412,3.316-5.172,4.842v-0.844
		c-1.174,1.526-2.348,3.639-4.695,2.934c-3.521-1.056-5.143-4.922-7.372-7.739c-1.997,1.173-3.983,2.347-5.979,3.521
		c-0.704-1.174-1.423-2.348-2.128-3.521c0.588-0.235,1.762-0.719,2.348-0.954C267.137,117.051,269.029,116.259,270.906,115.203z
		 M198.724,120.117c0.117,0.587,0.213,1.871,0.33,2.458c-2.934,2.23-6.221,3.888-9.39,5.648c-1.174-0.587-2.237-1.167-3.411-1.871
		c1.408-0.821,2.956-1.672,4.365-2.494C193.317,122.567,196.024,121.291,198.724,120.117z M148.731,167.103
		c0.031,0.669,0.121,1.345,0.293,1.98C148.851,168.434,148.757,167.787,148.731,167.103z M429.944,242.66
		c-0.049,1.275-0.226,2.541-0.44,3.814C429.711,245.21,429.896,243.924,429.944,242.66z M423.855,243.21
		c1.07,1.875,2.055,3.792,3.118,5.648C425.912,247.001,424.922,245.086,423.855,243.21z M400.234,270.352
		c-1.525,0.704-3.052,1.533-4.694,2.237C397.183,271.885,398.709,271.056,400.234,270.352z M151.885,279.375
		c0.822,0.998,1.587,2.041,2.311,3.118C153.472,281.416,152.707,280.373,151.885,279.375z M79.226,284.437
		c1.878,4.813,1.885,10.102,2.237,15.148c1.408,15.258,3.411,30.509,3.998,45.884c0.587,6.691,2.34,13.264,1.284,19.953
		c-0.822-0.234-1.783-0.571-2.604-0.807c0.352-1.525,0.851-3.168,0.147-4.694c-1.761-4.46-2.487-9.17-3.778-13.864
		c0.469-0.47,1.401-1.291,1.871-1.761c-1.057-2.348-2.091-4.593-3.265-6.822c0.704-0.235,1.863-0.579,2.567-0.696
		c-2.112-5.869-4.108-12.199-2.347-18.303c1.174-3.404-1.042-6.441-1.98-9.61c0.117-2.935,3.147-5.994,0.917-8.692
		c-1.291-1.879-2.81-3.64-4.218-5.282C77.105,292.073,79.108,288.544,79.226,284.437z M360.989,295.146
		c0.006-0.006,0.029,0.007,0.036,0c-0.136,0.139-0.284,0.287-0.403,0.44C360.74,295.434,360.854,295.285,360.989,295.146z
		 M320.862,317.74c0.007-0.006,0.031,0.007,0.037,0c-0.269,0.287-0.539,0.613-0.771,0.954
		C320.36,318.352,320.594,318.029,320.862,317.74z M243.435,396.159c1.526,1.761,2.949,3.411,4.475,5.172
		c-0.011,0.003-0.025-0.004-0.037,0C246.347,399.57,244.96,397.92,243.435,396.159z M281.91,396.306
		c0.012-0.001,0.024,0.001,0.037,0c-0.676,0.91-1.383,1.867-2.091,2.824C280.563,398.176,281.235,397.216,281.91,396.306z
		 M252.531,401.404c0.234,0.381,0.484,0.755,0.66,0.99c-0.01,0.005-0.027-0.005-0.037,0
		C252.979,402.159,252.764,401.782,252.531,401.404z M258.143,401.44c0.132,0.426,0.271,0.83,0.33,1.063
		c-0.01,0.005-0.026-0.004-0.037,0C258.377,402.271,258.272,401.868,258.143,401.44z M241.454,438.89
		c0.499,1.174,0.978,2.358,1.467,3.558c-0.488-1.176-0.979-2.333-1.467-3.484C241.458,438.938,241.451,438.913,241.454,438.89z
		 M272.668,499.005c0.47,0.822,1.035,1.739,1.503,2.678C273.701,500.744,273.137,499.827,272.668,499.005z M261.224,521.966
		c0.788-0.026,1.597-0.005,2.384,0c-1.574-0.01-3.154,0.042-4.731,0.146C259.664,522.06,260.436,521.992,261.224,521.966z"/>
	<path id="path49" fill="#BA7076" d="M350,67.887c0.704,1.409,1.408,2.817,2.229,4.226c-2.581,5.282-5.868,10.446-6.688,16.432
		c-1.292-0.235-2.582-0.352-3.875-0.587c2.114-5.047,4.578-9.859,6.574-14.906C348.826,71.408,349.413,69.648,350,67.887L350,67.887
		z"/>
	<path id="path55" fill="#BA7076" d="M295.07,80.094c1.994-1.76,3.873-3.404,5.986-4.93c1.291,3.991,2.348,7.981,4.813,11.268
		C302.113,84.554,298.592,82.324,295.07,80.094L295.07,80.094z"/>
	<rect id="rect3297" x="63.036" y="83.663" fill="#BA7076" width="29.295" height="22.944"/>
	<path id="path61" fill="#C9C9C9" stroke="#C9C9C9" d="M70.54,86.197c3.756-4.813,9.742-6.925,15.023-9.507
		c-0.235,0.822-0.47,1.644-0.704,2.465c0.352,0.235,1.291,0.705,1.643,0.822c-0.235,1.056-0.587,2.113-0.939,3.169
		c0.469,0.235,1.291,0.704,1.76,0.939c-0.821,0.939-1.643,1.995-2.347,2.934c0.587,0.47,1.761,1.291,2.347,1.761
		c-5.164,3.287-10.329,6.573-15.728,9.507C69.835,94.648,67.958,89.953,70.54,86.197L70.54,86.197z"/>
	<path id="path77" fill="#C9C9C9" stroke="#C9C9C9" d="M71.948,105.329c2.935-4.695,8.333-6.925,13.263-9.038
		c1.056,3.873,1.995,7.864,4.46,11.033c-5.282,4.46-11.62,7.277-17.605,10.563C72.066,113.779,70.892,109.437,71.948,105.329
		L71.948,105.329z"/>
	<path id="path97" fill="#FFFFFF" d="M409.39,117.418c6.925-5.282,17.019-5.986,24.647-1.878c4.461,2.347,9.272,4.108,13.498,7.042
		c-7.042,0.704-12.559-4.695-19.248-6.103C422.065,114.718,415.61,116.479,409.39,117.418L409.39,117.418z"/>
	<path id="path99" fill="#C9C9C9" stroke="#C9C9C9" d="M76.291,123.639c3.169-4.695,8.686-6.925,13.38-9.742
		c0.704,1.644,1.291,3.404,1.995,5.047c-1.76,1.291-3.521,2.464-5.282,3.756c0.939,1.173,1.878,2.23,2.935,3.404
		c0.821,0.352,1.643,0.821,2.582,1.291c-4.225,3.638-9.977,3.756-15.258,4.577c-0.704,0-2.113,0.118-2.817,0.235
		C74.296,129.272,74.413,126.104,76.291,123.639L76.291,123.639z"/>
	<path id="path101" fill="#DF0024" d="M265.258,118.005c1.879-0.939,3.756-1.761,5.635-2.817c3.053,1.643,6.573,2.582,9.977,1.76
		c0.586,0,1.76-0.117,2.229-0.234c2.112-0.235,4.108-0.353,6.103-0.47c-1.056,1.056-2.113,2.113-3.168,3.169
		c-0.705,0-2.23,0-3.053,0c0,1.409,0.118,2.817,0.118,4.343c-1.174,1.526-2.348,3.639-4.694,2.934
		c-3.521-1.056-5.165-4.929-7.395-7.746c-1.996,1.173-3.991,2.347-5.987,3.521c-0.704-1.174-1.409-2.348-2.112-3.521
		C263.498,118.709,264.672,118.239,265.258,118.005L265.258,118.005z"/>
	<path id="path109" sodipodi:nodetypes="ccccccc" fill="#DF0024" d="M190.61,123.873c7.247-1.684,3.041-6.343,5.235-6.843
		c2.924,0.194,3.098,4.965,3.215,5.552c-2.934,2.23-6.221,3.874-9.39,5.634c-1.174-0.587-2.23-1.174-3.404-1.878
		C187.676,125.517,189.202,124.695,190.61,123.873L190.61,123.873z"/>
	<path id="path113" fill="#BA7076" d="M347.301,137.605c2.699-5.399,7.275-9.39,12.676-11.972
		C355.634,129.507,351.644,133.732,347.301,137.605L347.301,137.605z"/>
	<path id="path125" fill="#BA7076" d="M233.803,137.605c9.859,1.291,18.779,7.042,24.648,14.906
		c0.352,1.291,0.703,2.582,0.821,3.873c-3.288-0.587-5.987-2.582-7.042-5.868c-0.822-0.47-1.644-0.705-2.466-1.174
		c-3.991-4.343-9.272-7.277-14.789-9.272C234.625,139.249,234.155,138.427,233.803,137.605L233.803,137.605z"/>
	<path id="path141" fill="#BA7076" d="M242.136,149.108c6.103,2.465,8.92,11.385,3.638,15.962c0-0.587-0.117-1.76-0.117-2.465
		c0.352-4.46-0.352-9.038-3.052-12.676L242.136,149.108L242.136,149.108z"/>
	<path id="path143" fill="#FFFFFF" d="M242.605,149.93c2.7,3.638,3.404,8.216,3.052,12.676
		C243.544,158.732,242.958,154.272,242.605,149.93L242.605,149.93z"/>
	<path id="path155" fill="#BA7076" d="M260.916,171.526c2.816,3.521,5.516,7.277,9.389,9.625c1.293,0.939,2.7,1.643,4.227,2.465
		c0.234,0.586,0.82,1.878,1.056,2.582c-6.924-3.169-14.671-3.639-22.065-4.226c-8.333-0.587-16.55-2.465-24.883-2.934
		c-6.221-0.235-11.15,4.108-16.549,6.456c-3.287,1.643-6.925,0.704-10.329-0.118c5.047-1.995,9.742-4.578,14.671-6.925
		c-0.47-0.822-0.939-1.643-1.409-2.465c7.512-0.352,14.789,0.704,22.183,1.409c5.517-0.353,10.446,2.347,15.61,3.638
		c0.117-1.056,0.234-2.23,0.234-3.404c1.76,1.174,3.403,2.23,5.164,3.287c-0.352-1.409-0.704-2.817-0.939-4.226
		c1.408,1.057,2.816,2.113,4.226,3.052C261.268,177.042,261.15,174.343,260.916,171.526L260.916,171.526z"/>
	<path id="path163" fill="#FFFFFF" d="M321.479,202.277c1.761-1.526,3.874-2.699,5.986-3.521
		C326.174,200.869,323.943,202.16,321.479,202.277L321.479,202.277z"/>
	<path id="path171" fill="#BA7076" d="M331.104,211.667c4.343-3.873,8.216-8.803,13.967-10.681
		C341.667,205.916,336.854,209.789,331.104,211.667L331.104,211.667z"/>
	<path id="path173" fill="#FFFFFF" d="M321.597,205.798c1.995-0.352,3.99-0.704,6.103-0.938c-2.347,1.408-4.694,2.347-7.16,3.286
		C320.774,207.559,321.244,206.385,321.597,205.798L321.597,205.798z"/>
	<path id="path175" fill="#BA7076" d="M328.639,220.704c5.751-4.577,11.15-9.742,16.549-14.789
		c-2.229,4.46-4.928,8.686-7.042,13.263c-0.938,1.996-2.935,3.052-4.46,4.343c0.118-1.291,0.352-2.582,0.587-3.873
		C332.395,220,330.517,220.352,328.639,220.704L328.639,220.704z"/>
	<path id="path183" fill="#BA7076" d="M323.943,229.272c2.582-2.348,5.399-4.226,8.568-5.634
		C330.517,226.69,327.23,228.216,323.943,229.272L323.943,229.272z"/>
	<path id="path185" fill="#FFFFFF" d="M300.352,228.92c3.756-1.525,7.747-2.464,11.855-2.934
		C308.686,228.333,304.578,229.272,300.352,228.92L300.352,228.92z"/>
	<path id="path187" fill="#BA7076" d="M314.671,240.892c5.869-5.165,12.443-10.094,19.953-12.793
		C328.521,233.146,322.301,238.427,314.671,240.892L314.671,240.892z"/>
	<path id="path191" fill="#FFFFFF" d="M297.77,234.906c3.053-1.996,6.573-1.996,10.095-1.761
		C304.93,235.258,301.291,235.61,297.77,234.906L297.77,234.906z"/>
	<path id="path193" fill="#BA7076" d="M311.033,249.578c5.047-6.925,12.91-11.502,21.126-13.146
		c-4.107,3.287-9.154,5.517-13.38,8.803C316.432,246.995,313.85,248.521,311.033,249.578L311.033,249.578z"/>
	<path id="path197" fill="#FFFFFF" d="M287.441,255.798c3.286-1.878,7.042-2.699,10.797-2.699
		C294.953,254.977,291.197,255.563,287.441,255.798L287.441,255.798z"/>
	<path id="path199" fill="#BA7076" d="M305.281,259.906c1.88-2.465,4.227-4.578,6.926-6.104
		C310.798,256.737,308.216,258.615,305.281,259.906L305.281,259.906z"/>
	<path id="path211" fill="#BA7076" d="M300.47,279.742c2.112-3.991,5.399-6.925,9.037-9.625
		C307.981,274.46,304.46,277.629,300.47,279.742L300.47,279.742z"/>
	<path id="path219" fill="#C9C9C9" d="M165.61,286.667c1.174,0.939,2.465,1.878,3.756,2.817c-1.174,1.526-2.348,3.169-3.521,4.695
		C165.728,291.713,165.61,289.131,165.61,286.667L165.61,286.667z"/>
	<path id="path225" fill="#BA7076" d="M305.047,294.765c1.407-2.465,3.052-5.047,6.103-5.634
		C309.977,291.831,307.629,293.591,305.047,294.765L305.047,294.765z"/>
	<path id="path227" fill="#FFFFFF" d="M279.226,296.057c2.112-2.113,4.576-3.756,7.511-4.695
		C285.328,294.413,282.16,295.235,279.226,296.057L279.226,296.057z"/>
	<path id="path229" fill="#FFFFFF" d="M225.47,300.986c0.586-3.521,1.995-7.16,5.516-8.685
		C229.695,295.587,227.934,298.521,225.47,300.986L225.47,300.986z"/>
	<path id="path231" fill="#FFFFFF" d="M231.221,299.813c0.704-3.402,3.052-5.75,6.221-7.16
		C236.268,295.704,234.507,298.639,231.221,299.813L231.221,299.813z"/>
	<path id="path233" fill="#BA7076" d="M119.483,295.469c2.7,1.878,5.751,2.7,8.686,3.991c1.761,1.526,1.526,3.991,2.113,6.104
		C125.939,302.981,121.244,300.517,119.483,295.469L119.483,295.469z"/>
	<path id="path235" fill="#FFFFFF" d="M221.009,295.235c0.822-0.118,2.348-0.352,3.052-0.47c-1.643,3.053-3.404,6.104-5.751,8.803
		C219.014,300.751,219.953,297.934,221.009,295.235L221.009,295.235z"/>
	<path id="path237" fill="#FFFFFF" d="M268.662,298.521c1.878-1.644,3.989-2.817,6.221-3.521
		C273.826,297.465,271.127,298.052,268.662,298.521L268.662,298.521z"/>
	<path id="path239" fill="#FFFFFF" d="M209.39,310.493c0.704-5.4,1.643-12.56,7.747-14.554
		C214.789,300.986,212.559,306.033,209.39,310.493L209.39,310.493z"/>
	<path id="path243" fill="#BA7076" d="M133.216,301.689c2.583,1.643,4.226,4.227,3.874,7.512c-1.174-0.705-2.348-1.408-3.404-2.229
		C133.099,305.211,133.216,303.451,133.216,301.689L133.216,301.689z"/>
	<path id="path249" fill="#BA7076" d="M138.85,305.328c1.526,1.526,3.052,3.17,4.578,4.814c0.469-0.471,1.408-1.527,1.878-1.996
		c1.995,3.052,3.991,6.104,6.808,8.568c0,1.408,0,2.934,0,4.343c-3.404-1.995-5.517-5.282-7.981-8.216
		c-1.174,0.117-2.347,0.234-3.404,0.352C140.023,310.61,139.319,307.91,138.85,305.328L138.85,305.328z"/>
	<path id="path253" fill="#BA7076" d="M155.047,311.197c3.639,3.169,5.517,8.686,3.287,13.029c-1.409,0.117-2.23-0.47-2.583-1.761
		C154.226,318.826,154.812,314.953,155.047,311.197L155.047,311.197z"/>
	<path id="path271" fill="#FFFFFF" d="M194.718,370.587c-1.761-2.582-2.113-5.636-1.174-8.45
		C195.54,364.602,195.305,367.652,194.718,370.587L194.718,370.587z"/>
	<path id="path273" fill="#FFFFFF" d="M197.3,362.957c3.404,0.939,1.996,5.048,2.23,7.63
		C198.239,368.239,197.535,365.657,197.3,362.957L197.3,362.957z"/>
	<path id="path283" fill="#BA7076" d="M210.916,385.023c3.404,2.113,2.465,6.455,0.117,8.92
		C210.798,391.01,210.798,387.957,210.916,385.023L210.916,385.023z"/>
	<path id="path285" fill="#BA7076" d="M83.333,398.403c4.343-2.347,9.272-2.112,13.615-0.117c-2.23,0.235-4.46,0.353-6.69,0.353
		c2.582,1.292,5.164,2.582,7.747,3.873c0.469,2.23,0.939,4.577,1.525,6.809c-3.756-2.935-7.394-6.104-11.033-9.156
		c-2.113-1.994-5.164-0.704-7.629-0.587C81.456,399.226,82.747,398.756,83.333,398.403L83.333,398.403z"/>
	<path id="path289" fill="#BA7076" d="M202.582,401.455c3.521,5.399-0.821,11.032-4.812,14.553
		c-0.118-2.112-0.235-4.225-0.235-6.221c1.174-0.117,2.348-0.234,3.639-0.468C201.761,406.737,202.113,404.155,202.582,401.455
		L202.582,401.455z"/>
	<path id="path293" fill="#BA7076" d="M192.958,416.01c0.822,0.353,1.761,0.705,2.583,1.173c-0.352,2.467-0.705,5.282-2.465,7.277
		C192.84,421.644,192.84,418.826,192.958,416.01L192.958,416.01z"/>
	<path id="path297" fill="#BA7076" d="M186.502,435.023c0.117-3.402,0.821-6.808,2.113-9.977
		C188.38,428.333,190.493,433.615,186.502,435.023L186.502,435.023z"/>
	<path id="path299" fill="#BA7076" d="M176.408,447.816c-0.117-4.107,0.939-8.216,3.756-11.269
		C179.695,440.54,178.991,444.647,176.408,447.816L176.408,447.816z"/>
	<path id="path303" fill="#BA7076" d="M313.615,440.305c4.107,1.88,3.521,7.161,4.226,10.916
		C315.141,448.169,313.967,444.296,313.615,440.305L313.615,440.305z"/>
	<path id="path305" fill="#BA7076" d="M319.483,442.652c4.226,2.348,3.521,7.981,4.108,12.09
		C321.01,451.221,319.836,446.995,319.483,442.652L319.483,442.652z"/>
	<path id="path307" fill="#BA7076" d="M325.47,443.943c4.343,4.813,5.517,11.62,6.689,17.724
		C328.99,456.15,326.878,450.047,325.47,443.943L325.47,443.943z"/>
	<path id="path309" fill="#BA7076" d="M331.925,446.174c5.164,3.756,4.577,11.15,4.46,16.901
		C335.446,457.207,332.629,451.925,331.925,446.174L331.925,446.174z"/>
	<path id="path311" fill="#BA7076" d="M339.319,449.813c2.229,4.107,3.756,8.567,4.343,13.263
		C339.319,460.376,340.141,454.272,339.319,449.813L339.319,449.813z"/>
	<path id="path313" fill="#BA7076" d="M345.07,450.868c1.174,0.822,2.582,1.526,2.817,3.169c1.994,6.69,2.815,13.732,3.754,20.658
		c-2.581-4.813-2.465-10.329-4.107-15.492C346.714,456.502,345.657,453.803,345.07,450.868L345.07,450.868z"/>
	<path id="path315" fill="#BA7076" d="M353.521,454.507c6.103,5.75,5.281,15.023,6.221,22.652c-0.939-1.292-1.996-2.582-2.348-4.227
		C355.634,466.948,354.226,460.845,353.521,454.507L353.521,454.507z"/>
	<path id="path317" fill="#BA7076" d="M165.845,466.597c-0.235-3.054,0-5.987,1.526-8.686
		C167.488,460.845,167.019,463.896,165.845,466.597L165.845,466.597z"/>
	<path id="path319" fill="#BA7076" d="M361.854,458.967c5.047,2.935,5.164,9.625,5.281,14.906
		C363.498,469.766,363.263,464.014,361.854,458.967L361.854,458.967z"/>
	<path id="path325" fill="#BA7076" d="M371.361,464.953c3.168,3.64,3.639,8.568,3.989,13.146c0.235,4.694,1.761,9.624-0.117,14.202
		C374.766,483.146,372.652,474.108,371.361,464.953L371.361,464.953z"/>
	<path id="path327" fill="#BA7076" d="M378.286,470.821c3.991,4.108,2.817,10.329,3.169,15.493c-0.352,2.935,0.587,6.455-1.76,8.568
		C379.343,486.901,378.639,478.803,378.286,470.821L378.286,470.821z"/>
	<path id="path4369" sodipodi:nodetypes="cccccccccccccccccccccccccccccccccccccccccccccccccccsscccccccccccccc" fill="#BA7076" d="
		M243.313,396.242c-1.526,1.643-3.043,3.434-4.805,4.841c-3.169,0.587-6.478,0.119-9.646,0c-0.47-0.586-0.924-1.063-1.394-1.65
		c-1.643,1.407-3.162,2.678-4.805,3.852c-0.822,2.229-1.672,4.343-2.494,6.455c-1.056-0.352-2.201-0.564-3.375-0.917
		c-0.704,3.639-1.298,7.395-3.411,10.563c-5.751,8.685-13.959,15.383-18.889,24.538c-1.526,2.698-3.287,5.135-5.282,7.482
		c-0.939-0.704-1.775-1.394-2.714-1.98c-1.056,4.107-2.479,8.326-5.648,11.26c-4.695,4.578-8.803,10.219-9.39,16.909
		c1.761-0.117,3.668-0.25,5.429-0.367h1.027c-0.235-0.704-0.58-2.082-0.697-2.787c5.751-6.924,12.808-12.911,17.972-20.54
		c6.104-9.037,13.124-17.487,20.283-25.821c3.521,4.343,6.808,8.773,11.15,12.177c16.549,12.207,34.067,23.137,52.376,32.644
		c-2.229-5.047-3.756-10.343-6.455-15.038c0.236,3.521,0.814,7.043,1.284,10.563c-4.343-3.64-6.222-9.037-8.216-14.084
		c0,3.286,0.109,6.689,0.109,9.977c-6.571-3.991-5.502-12.442-9.609-18.192c0.352,4.577,1.174,9.184,1.761,13.644
		c-4.577-5.281-7.064-12.118-10.233-18.339c0.235,3.873,0.58,7.651,0.697,11.407c-3.286-4.108-5.047-9.17-7.042-13.864
		c-0.352,2.466-0.565,4.942-0.917,7.408c-3.991-4.461-3.411-10.819-5.759-16.102c-0.704,3.873-0.697,7.895-0.697,11.884
		c-3.639-4.344-4.35-10.006-5.171-15.404c-1.174,0.938-2.355,1.995-3.411,2.934c-0.939-4.107-2.348-8.099-2.348-12.323
		c0.704-2.231,2.832-3.749,4.475-5.393c0.705,1.409,1.387,2.957,2.091,4.365c0,1.525,0.029,3.053,0.147,4.694
		c1.173-1.995,2.677-3.895,3.264-6.125c0.352-2.465-0.103-4.906-0.22-7.372c12.911,1.761,26.167,1.145,38.843-1.907
		c4.811-1.057,7.497-5.604,10.196-9.243c-8.099,0.705-16.197,2.678-23.474,6.198c-0.119-0.468-0.463-1.65-0.697-2.237
		c-1.525,0.704-3.059,1.424-4.585,2.128c-0.353-0.47-0.931-1.512-1.284-1.98c-1.407,0.352-2.707,0.564-3.998,0.917
		C246.225,399.653,244.838,398.003,243.313,396.242z M279,472.899c6.456,3.991,13.487,6.92,19.477,11.848
		c4.225,3.404,11.301,8.097,15.996,10.796c7.157,5.505,10.884,8.915,12.598,9.724c1.752,0.827,0.985,0.173,2.368-0.819
		c2.318-1.664-2.324-8.911-4.293-9.932c0.47,2.584,0.932,5.157,1.284,7.739c-2.23-2.582-4.115-5.281-5.759-8.216
		c-0.587,0.47-1.621,1.401-2.091,1.871c-2.229-3.521-4.351-7.035-6.345-10.674c0.468,2.464,1.063,4.798,1.65,7.263
		c-2.935-1.644-8.14-5.632-10.604-7.862c-2.699-3.404-3.99-7.506-5.868-11.26c0,2.582,0.11,5.156,0.11,7.738
		c-2.348-3.638-4.461-7.387-6.455-11.26c0.353,2.935,0.719,5.979,0.953,8.913c-5.752-2.935-7.526-9.491-10.344-14.892
		c0.117,2.699,0.353,5.517,0.588,8.216C281.445,472.327,279.822,472.665,279,472.899z"/>
	<path id="path4372" fill="#FFFFFF" d="M263.33,499.768c0.822-3.521-0.234-8.92,4.344-10.094c4.929-1.057,9.977,0.939,14.553,2.582
		c10.445,4.695,20.422,10.563,28.403,18.779c-0.235,0.353-0.704,0.939-0.939,1.291c-0.938-0.704-1.76-1.525-2.699-2.229
		c-5.047-4.461-10.329-9.156-16.901-11.269c-4.93-0.117-9.977-0.469-14.672-2.348c1.996,1.525,4.108,3.169,6.104,4.813
		c-3.051-0.821-6.104-1.761-9.037-2.466c0.469,0.821,1.057,1.761,1.525,2.699c-1.642-0.233-3.286-0.587-4.928-0.82
		c-0.235,1.407-0.47,2.815-0.706,4.226c-3.521,0.352-6.923,0.352-10.444,0.117C259.927,503.523,263.096,502.702,263.33,499.768
		L263.33,499.768z"/>
	<path id="path4375" fill="#BA7076" d="M150.986,501.907c10.563-1.174,19.953,4.107,30.165,5.281
		c6.338,1.057,12.559,3.169,18.896,4.461c-0.117,0.587-0.352,1.761-0.586,2.348c7.864,0,14.906,3.402,22.417,4.929
		c0.235,0.354,0.587,0.939,0.704,1.292c9.507,2.815,17.488,10.211,27.817,10.563c-3.99-2.466-8.451-3.756-12.793-5.517
		c12.441-1.761,25.234-5.047,37.676-1.525c-1.994-4.93-4.812-9.39-7.747-13.85c7.043,3.754,10.916,11.502,18.428,14.553
		c-0.587-1.996-1.174-3.99-1.76-6.104c1.642,1.292,3.402,2.466,5.047,3.64c-0.353-1.644-0.588-3.286-0.939-4.93
		c1.76,0.938,3.402,1.761,5.163,2.699c-0.468-2.112-0.938-4.343-1.407-6.455c1.761,1.292,3.639,2.582,5.398,3.873
		c0.118-0.704,0.471-2.112,0.705-2.815c3.756,1.525,6.689-1.174,8.921-3.873c0.939,0.704,1.761,1.525,2.699,2.229
		c-3.521,4.695-8.216,8.451-13.731,10.329c-6.573,2.347-12.911,5.399-19.132,8.45c-3.521-2.348-7.042-6.221-11.737-5.399
		c-7.395,0.705-12.324,8.217-19.953,7.981c-9.742,0.587-16.667-7.159-24.765-11.032c-9.39-4.226-19.249-7.747-29.46-9.39
		c-7.512-1.174-14.671-3.874-22.183-5.164C162.489,507.658,155.564,506.954,150.986,501.907L150.986,501.907z"/>
	<path id="path4378" fill="#FFFFFF" d="M176.935,477.659h1.057c17.253,3.756,32.864,12.441,49.178,19.131
		c8.568,3.404,18.31,0.117,24.531-6.338c0.234,0.94,0.586,2.582,0.703,3.404c-4.342,4.343-10.211,7.159-16.549,6.808
		c-11.62,0.118-20.892-7.981-31.456-11.854c-8.099-2.817-16.197-6.456-25-6.69C178.579,480.711,177.757,479.185,176.935,477.659
		L176.935,477.659z"/>
	<path id="path4381" fill="#FFFFFF" d="M268.801,199.24c4.576-2.23,8.334-5.634,12.676-8.099c0.234,0.352,0.586,1.174,0.821,1.526
		c1.995,3.756,2.817,8.099,2.582,12.324c-0.938-2.817-1.878-5.634-2.7-8.451c-0.469,0.352-1.291,1.057-1.643,1.409
		c-0.352,2.817-0.587,5.634-0.939,8.451c-0.938-2.23-1.877-4.46-2.699-6.69c-0.938,3.287-1.879,6.69-2.934,10.094
		c-0.588-2.348-1.174-4.578-1.761-6.925c-1.761,3.169-2.817,6.572-3.403,10.094c-0.588-2.582-1.292-5.165-2.113-7.747
		c-1.408,3.873-2.816,7.747-4.343,11.62c-0.468-3.052-0.821-6.103-1.408-9.038c-1.526,3.169-2.935,6.456-3.989,9.859
		c-0.235-2.348-0.588-4.695-0.822-7.042c-0.469,0.235-1.525,0.822-2.112,1.057c-0.938,2.465-1.995,4.812-2.935,7.277
		c-0.469-2.113-0.821-4.343-1.291-6.456c-2.582,3.287-3.991,7.277-5.164,11.268c-0.352-2.582-0.822-5.281-1.291-7.864
		c-1.644,2.7-2.935,5.634-4.108,8.568c-0.352-1.996-0.821-3.991-1.408-5.986c-1.643,2.934-2.348,6.22-2.582,9.507
		c-0.939-2.113-2.113-4.226-3.404-6.221c-0.822,3.404-1.644,6.808-2.348,10.329c-0.587-2.7-1.174-5.282-1.76-7.981
		c-1.644,3.286-2.7,6.69-3.521,10.211c-0.352-1.995-0.587-3.991-0.939-5.986c-0.587,0.117-1.878,0.469-2.465,0.587
		c-0.234,3.286-0.586,6.573-0.821,9.859c-0.939-1.995-1.996-3.99-3.052-6.103c-0.704,3.521-1.056,7.16-1.408,10.681
		c-1.292-2.23-2.817-4.343-4.343-6.456c-0.352,3.756-0.47,7.629-0.587,11.502c-1.057-2.23-2.113-4.46-3.169-6.69
		c-0.587,0.587-1.526,1.643-2.113,2.23c0.235,3.756,0.469,7.512,0.821,11.268c-1.173-2.7-2.699-5.282-4.46-7.747
		c-0.235,3.756-0.235,7.512,0,11.268c-1.291-1.76-2.582-3.521-3.873-5.282c-0.939,4.108-0.235,8.333,0.939,12.324
		c-1.643-1.643-3.169-3.287-4.813-4.813c0.118,3.052,0.235,6.104,0.353,9.155c-1.174-1.057-2.348-2.113-3.639-3.052
		c0.352,3.169,0.704,6.221,1.056,9.39c-1.408-1.291-2.817-2.465-4.225-3.639c0.352,4.226,0.821,8.451,1.408,12.676
		c-1.526-1.526-3.051-3.052-4.695-4.578c0.587,3.874,1.174,7.747,1.996,11.62c-1.644-1.995-3.404-3.99-5.282-5.868
		c0.234,2.699,0.352,5.516,0.587,8.216c-1.409-1.526-2.817-3.052-4.226-4.578c0.352,3.169,0.704,6.338,1.056,9.507
		c-1.525-1.644-3.051-3.286-4.577-4.813c0.469,3.286,0.939,6.573,1.408,9.859c-1.291-1.761-2.582-3.403-3.756-5.047
		c0,5.517-0.234,10.915,0,16.432c-1.173-0.353-2.465-0.704-3.638-1.056c1.526,2.816,2.934,5.75,4.343,8.568
		c-1.174,0-2.23,0.117-3.404,0.117c0.821,2.465,1.643,4.93,2.582,7.395c-1.409-0.586-2.817-1.291-4.108-1.877
		c1.291,3.285,2.699,6.572,3.991,9.977c-1.644-0.939-3.404-1.88-5.047-2.817c1.174,3.286,2.465,6.455,3.756,9.624
		c-0.704,0.117-1.995,0.234-2.699,0.353c1.291,2.582,2.699,5.164,3.991,7.864c-1.409-0.353-2.817-0.705-4.226-1.057
		c1.643,2.816,3.404,5.516,5.282,8.216c-1.174-0.468-2.348-0.938-3.521-1.407c1.291,4.813,2.817,9.623,4.812,14.201
		c4.108-4.459,6.338-10.445,6.338-16.549c0.235-13.616,1.174-27.582,6.221-40.375c-0.821,7.98-2.465,15.845-1.878,23.943
		c3.169-13.146,3.521-27.23,10.916-38.967c0.939,0.468,1.878,0.938,2.817,1.291c1.761-1.762,3.639-3.639,5.517-5.399
		c-0.235,1.642-0.352,3.286-0.587,5.047c2.23-1.761,4.46-3.403,6.808-4.93c-2.582,6.456-5.399,12.911-8.803,19.015
		c0.234-3.639,0.352-7.395,0.234-11.033c-3.404,4.695-4.46,10.445-5.868,15.963c-0.587-2.582-1.057-5.281-1.526-7.863
		c-2.935,8.568-3.521,17.723-4.578,26.643c-1.291,10.445,0.704,21.244-2.23,31.572c-0.939-4.813-1.643-9.742-2.582-14.553
		c-0.587,8.333-0.235,16.783-0.705,25.116c-0.939-2.935-1.995-5.868-2.934-8.804c-0.469,3.991-0.822,7.982-1.291,11.973
		c-1.174-1.525-2.348-3.169-3.521-4.695c-0.118,3.991-0.118,7.981-0.118,12.09c-1.056-1.526-2.113-3.052-3.169-4.461
		c-0.235,4.227-0.117,8.451,0.352,12.677c-1.174-1.407-2.347-2.815-3.638-4.108c0.117,3.991,0.352,7.982,0.704,11.972
		c-1.174-1.173-2.465-2.347-3.639-3.521c0.235,3.99,0.587,7.981,0.939,11.972c-1.056-1.995-2.113-3.99-3.169-5.986
		c-1.408,4.813-0.235,9.624,0.587,14.318c-1.174-1.642-2.348-3.168-3.521-4.813c0.117,3.874,0.586,7.864,1.056,11.737
		c-1.174-0.821-2.465-1.643-3.756-2.465c0.587,4.226,1.291,8.568,2.113,12.792c-1.291-1.525-2.583-3.051-3.756-4.576
		c0.117,3.521,0.352,7.043,0.352,10.563c-3.287,3.402-3.991,8.216-5.282,12.558c-2.817,2.114-3.052,5.751-3.521,8.922
		c-1.057,0.234-1.996,0.352-2.935,0.468c-0.469,5.517-2.817,10.563-4.108,15.846c1.291,3.64,3.169,7.16,2.935,11.149
		c-0.47,0-1.526-0.117-2.113-0.233c-4.108-5.048-5.986-12.324-3.521-18.546c4.343-13.028,11.502-25.116,13.967-38.732
		c3.052-16.784,7.16-33.45,13.38-49.296c1.761-4.342,4.46-8.215,5.751-12.557c-1.995-5.049-5.751-9.273-7.042-14.555
		c-2.348-8.45-3.991-17.136-3.873-25.821c2.582-8.216,0.938-16.784,1.76-25.235c0.235-5.281,1.409-10.445,2.113-15.727
		c0.704-5.164-2.817-9.625-5.165-13.966c-0.117,2.934-0.117,5.868-0.234,8.803c-1.996-4.813-4.46-9.507-7.747-13.498
		c0.469,2.582,0.821,5.164,1.408,7.746c-2.582-3.638-5.399-6.925-8.451-10.094c-0.234,1.643-0.469,3.404-0.704,5.047
		c-1.878-2.23-3.756-4.343-5.634-6.455c-0.352,1.408-0.704,2.816-1.056,4.342c-2.113-2.464-4.226-4.812-6.221-7.277
		c-0.587,1.057-1.174,1.995-1.644,3.052c-2.464-1.761-4.812-3.521-7.159-5.282c0,1.291,0.117,2.582,0.117,3.756
		c-2.465-2.113-4.812-4.46-7.629-6.221c-4.46,0.47-3.169,6.221-4.343,9.39c0.469-4.225,0.469-8.451-1.291-12.441
		c16.784,2.935,33.216,7.512,49.061,13.615c5.282,1.878,9.977,5.047,15.376,6.573c4.225-1.995,6.338-6.456,7.864-10.681
		c5.164-13.85,12.676-26.996,23.122-37.676c7.394-7.981,16.432-14.319,25.821-19.953
		C242.626,210.038,256.241,205.695,268.801,199.24L268.801,199.24z"/>
	<rect id="rect3295" x="59.164" y="54.551" fill="#BA7076" width="24.583" height="18.166"/>
	<path id="path4395" fill="#FFFFFF" d="M190.054,18.984c41.314-1.995,82.981-2.113,124.295,1.408
		c12.324,0.47,24.53,2.465,36.737,4.108c25.47,3.99,51.174,8.685,74.647,19.601c10.563,4.93,20.657,11.62,27.816,21.01
		c-0.587,0.117-1.878,0.352-2.465,0.469c-10.094-11.737-24.648-17.84-38.615-23.474c-7.981-2.465-16.079-4.226-24.062-6.573
		c-36.618-8.451-74.295-10.563-111.619-13.028c-10.563,0-21.01-0.939-31.573-0.469c-10.563,0.234-21.244,0.939-31.808,0.939
		c-9.507-0.118-18.779,2.23-28.169,1.878c-28.287,0.821-56.456,3.99-84.038,9.859c-3.404,0.704-7.042,1.057-10.094,2.7
		c-0.235,3.169,0.352,6.338,0.704,9.507c5.164,3.287,10.563,6.573,14.084,11.62c11.62,15.141,18.779,33.099,22.77,51.526
		c-1.291,0.118-2.583,0.352-3.874,0.47c-5.868-17.606-13.498-35.329-26.173-49.296c-3.521-3.756-8.099-6.456-10.916-10.916
		c-2.113-3.169-4.813-6.925-9.155-5.986c-3.404,1.174-5.751,3.756-6.338,7.395c3.169,0,6.338,0.117,9.507-0.235l0.822-0.117
		c0.822,0.469,2.465,1.291,3.287,1.76c-0.587,0.352-1.878,1.174-2.465,1.526c-5.047,1.174-10.446,1.409-15.023,3.991
		c-1.174,1.995-1.174,4.46-1.526,6.808c-2.583,1.526-4.93,3.404-7.16,5.399c6.103-2.7,12.441-5.282,18.192-8.803
		c2.465-1.409,5.165-2.935,8.216-2.817c-1.526,1.173-2.934,2.347-4.577,3.404c-3.991,2.112-8.216,3.638-11.854,6.455
		c-3.756,2.582-0.587,7.629-0.235,11.268c-2.817,1.644-5.282,3.639-7.629,5.869c9.859-2.934,17.488-10.211,26.878-13.967
		c-1.057,1.526-2.113,3.052-3.287,4.46c-5.282,2.582-11.268,4.695-15.023,9.507c-2.582,3.756-0.704,8.451,1.056,12.089
		c-2.934,1.76-5.634,3.756-8.216,6.103c9.625-3.169,17.019-10.681,26.643-13.967c0,3.051-2.23,4.812-4.812,5.868
		c-4.93,2.113-10.329,4.343-13.263,9.038c-1.057,4.108,0.117,8.451,0.117,12.559c-2.465,1.526-4.695,3.404-6.69,5.517
		c9.625-2.817,17.488-9.272,26.292-13.85c0.234,0.587,0.821,1.761,1.056,2.347c-1.056,0.705-1.995,1.292-3.052,1.996
		c-4.695,2.817-10.211,5.047-13.38,9.742c-1.878,2.465-1.995,5.634-2.464,8.568c-3.756,0.47-7.512,0.705-11.15,0.822
		c-1.761-9.625-1.878-19.366-3.287-28.991c-1.643-12.559-2.112-25.352-3.873-37.911c-0.235-3.639-1.174-7.395,0.469-10.798
		c2.113-4.695,1.996-10.446,5.751-14.319c5.516-5.399,13.38-7.042,20.54-8.803c19.718-4.577,40.023-6.338,60.094-8.92
		C158.012,21.097,173.974,20.275,190.054,18.984L190.054,18.984z"/>
	<path id="path4399" fill="#FFFFFF" d="M67.385,136.666c1.76-0.47,3.404-0.939,5.164-1.409c2.935-0.117,5.751-0.117,8.686,0.118
		c-2.113,1.291-4.343,2.464-6.573,3.756c1.526,0.469,2.934,0.821,4.46,1.173c-0.821,1.526-1.643,2.935-2.23,4.578
		c0,2.465,1.291,4.695,2.113,6.925c-0.352,0.822-0.704,1.761-1.056,2.583c1.173,0.704,2.347,1.525,3.521,2.23
		c-2.7,2.23-3.404,5.516-3.404,8.803c1.291,0.469,2.465,0.821,3.756,1.291c-1.526,1.526-3.052,3.052-4.695,4.695
		c2.465,0.352,4.93,0.587,7.277,0.939c-1.643,1.056-3.286,2.113-4.93,3.169c1.526,0.939,3.052,1.996,4.695,2.934
		c-2.112,0.705-4.342,1.409-6.455,2.23c1.76,1.173,3.638,2.465,5.399,3.638c-1.526,1.057-3.169,2.113-4.695,3.169
		c2.113,0.587,4.226,1.057,6.338,1.526c-1.76,1.057-3.521,2.23-5.164,3.639c1.878,1.408,3.873,2.582,5.869,3.873
		c-1.878,0.822-3.874,1.761-5.869,2.7c1.995,0.939,3.873,1.878,5.751,2.817c-1.174,1.056-2.23,2.113-3.286,3.169
		c1.408,1.057,2.934,1.995,4.343,2.817c-1.644,1.174-3.404,2.348-5.047,3.521c1.644,1.057,3.404,2.23,5.165,3.287
		c-1.643,1.174-3.404,2.347-5.047,3.521c2.113,0.704,4.225,1.409,6.338,2.113c-1.761,0.939-3.521,1.761-5.164,2.582
		c0,0.587,0,1.526,0,1.996c1.76,0.587,3.638,1.173,5.399,1.76c-1.643,1.291-3.404,2.583-5.047,3.874
		c1.526,1.173,3.169,2.23,4.812,3.286c-1.643,0.939-3.873,1.291-4.46,3.287c1.76,0.704,3.521,1.408,5.282,2.112
		c-1.526,1.057-3.052,2.23-4.578,3.404c1.643,1.057,3.287,2.113,4.812,3.169c-1.643,0.939-3.286,1.878-4.929,2.935
		c2.112,0.352,4.225,0.704,6.455,1.056c-1.878,1.291-3.873,2.583-5.751,3.874c1.878,0.587,3.639,1.173,5.399,1.76
		c-1.526,1.174-4.577,1.409-4.93,3.756c1.644,0.939,3.521,1.761,5.282,2.7c-1.643,0.587-3.286,1.291-5.047,1.995
		c1.174,1.057,2.23,1.996,3.404,3.052c-1.174,1.409-2.347,2.7-3.404,4.108c1.878,0.705,3.756,1.409,5.634,1.996
		c-1.643,1.173-3.286,2.23-4.46,3.873c1.643,1.056,3.404,1.995,5.164,2.934c-1.408,0.705-2.699,1.292-3.99,1.878
		c-0.235,0.587-0.705,1.644-0.822,2.23c1.878,0.235,3.756,0.47,5.751,0.822c-1.761,1.291-3.521,2.7-5.165,4.108
		c1.761,1.291,3.639,2.465,5.399,3.874c-3.873-0.587-7.277-2.23-10.681-4.108c-0.117-6.456-0.235-13.028-0.469-19.484
		c-0.235-2.817-0.353-5.869-1.761-8.451c-5.517-3.052-13.38-5.282-18.427-0.235c2.7-0.469,5.399-0.939,8.099-1.408
		c-3.639,4.578-9.977,7.747-10.563,14.202c-1.761,7.277,2.23,14.437,0.822,21.831c-1.057-2.113-2.113-4.108-3.287-6.221
		c0.47,12.206,3.991,23.944,6.104,35.917c1.76,13.73,4.225,27.229,6.221,40.961c1.056,6.69,1.173,13.732,3.99,20.072
		c0.47-4.227,0.822-8.335,1.409-12.443c0.939,8.803,2.113,18.545,8.92,25c-0.586,0.354-1.878,0.822-2.464,1.174
		c-2.935,0.822-5.751-0.82-7.747-2.815c-4.46-4.93-6.573-11.386-7.864-17.724c-3.404-20.422-4.695-41.197-9.038-61.502
		c-2.113-13.967-7.042-27.347-8.333-41.314c-0.704-7.277,3.991-13.498,8.92-18.31c2.112-2.113,4.46-4.93,7.746-4.695
		c4.93,0.235,9.507,1.878,14.319,2.583c-1.76-28.404-5.634-56.69-8.099-85.094C69.615,159.436,67.737,148.05,67.385,136.666
		L67.385,136.666z"/>
	<path id="path4403" fill="#BA7076" d="M376.637,287.909c1.174,1.878,2.348,3.638,3.521,5.516c-2.112,2.816-4.46,5.516-5.634,8.803
		c-0.705,2.815,0.117,5.633,0.587,8.333c0.82,4.46,2.229,8.686,3.639,13.029c0.821,2.348,1.525,4.694,2.816,6.808
		c2.465,1.878,5.634,2.465,8.685,3.286c0.705,3.286,1.525,6.69,2.23,9.977c-1.644-1.056-3.404-2.112-5.165-3.052
		c0,3.521,0,7.043,0,10.682c-1.995,5.633-8.216,6.807-13.379,8.215c-0.354,0.118-1.057,0.235-1.408,0.353
		c0.234,2.348,0.704,4.577,1.174,6.808c-1.409,0-2.7,0.119-3.991,0c-1.525-1.643-2.582-3.639-3.756-5.516
		c-3.873-0.354-7.862-0.469-11.502-1.408c-4.46-1.292-7.511-4.93-11.268-7.277c-3.873-2.465-8.335-4.225-11.15-7.863
		c-3.99-4.813-4.695-11.385-8.216-16.432c-2.348-1.291-5.047-1.526-7.512-2.113c0.587-1.057,1.057-2.112,1.643-3.051l0.939-0.588
		c2.112,0.117,4.226,0.353,6.338,0.588c3.052,5.398,5.516,11.031,8.333,16.549c2.23,5.281,8.804,5.281,13.615,5.398
		c7.396-0.468,10.798-8.215,12.911-14.317c0.94,0.117,1.995,0.353,2.935,0.468c0.353,3.521,0.234,7.161,0,10.682
		c-2.935,5.986-8.804,9.037-14.554,11.503c4.813,1.761,9.742,0.117,14.438-1.056c5.281-1.056,10.445-4.577,13.027-9.271
		c0.119-10.096-0.117-20.775-4.694-30.049c-0.82,2.699-1.761,5.4-2.581,8.1c-1.644-4.344-2.701-8.922-3.521-13.498
		c1.291,0.117,2.581,0.117,3.755,0.234c-0.352-2.113-0.82-4.227-1.174-6.338c1.174,0.47,2.466,0.939,3.64,1.525
		c-0.234-1.995-0.587-3.989-0.938-5.868c1.878-0.938,4.107-1.408,5.281-3.286C376.402,291.899,376.402,289.904,376.637,287.909
		L376.637,287.909z"/>
	<path id="path4407" fill="#FFFFFF" d="M368.124,117.54c0.938-0.352,1.761-0.587,2.699-0.822c3.521,1.526,7.395,2.113,11.268,2.465
		c-1.761,1.057-3.521,2.113-5.281,3.287c4.107,0.939,8.099,1.643,12.206,2.347c-1.525,0.822-3.052,1.761-4.694,2.582
		c1.995,1.292,3.873,2.465,5.868,3.639c-1.643,0.352-3.286,0.704-4.813,1.057c3.639,1.173,7.276,2.464,11.032,3.521
		c-2.229,0.117-4.343,0.469-6.573,0.821c-0.469,0-1.408,0.118-1.995,0.118c0.235,0.587,0.704,1.76,0.939,2.347
		c2.466,0.705,5.047,1.409,7.512,2.113c-2.23,1.056-4.46,1.995-6.69,3.052c2.348,1.643,4.93,2.934,7.512,4.225
		c-1.057,0.822-2.23,1.761-3.287,2.583c2.7,1.291,5.281,2.582,8.099,3.873c-2.583,0.235-5.048,0.352-7.512,0.587
		c2.816,1.408,5.751,2.699,8.803,3.991c-2.7,0.352-5.399,0.821-8.098,1.291c1.291,2.934,1.995,6.103,1.878,9.39
		c1.643,1.173,3.286,2.347,4.93,3.521c-1.526-0.235-3.169-0.352-4.695-0.47c0.117,0.587,0.47,1.761,0.704,2.348
		c1.761,1.057,3.521,2.23,5.4,3.287c-1.761,0.352-3.521,0.586-5.281,0.821c1.995,1.526,4.107,3.052,6.221,4.578
		c-2.348-0.235-4.578-0.352-6.925-0.587c0.118,0.704,0.234,1.878,0.353,2.465c2.816,1.174,5.516,2.465,8.217,3.756
		c-2.467,0.235-5.049,0.352-7.63,0.469c3.521,1.526,7.043,3.521,8.685,7.277c-4.108-1.644-8.333-2.935-12.676-1.996
		c0,1.174,0.117,2.348,0.234,3.521c-0.352,7.981,0.353,15.845,0,23.708c-1.174-0.469-2.229-0.939-3.403-1.408
		c0.821,2.934,1.643,5.751,2.582,8.568c-1.526-1.056-3.052-2.23-4.578-3.286c-0.82,3.052-1.76,5.986-3.051,8.92
		c1.291,1.526,2.699,3.169,3.99,4.813c-2.114-0.118-4.108-0.118-6.222-0.235c1.879,1.995,3.64,3.873,5.517,5.869
		c-2.582-0.704-5.047-1.291-7.63-1.878c2.113,2.347,4.343,4.695,6.456,7.042c-2.935-0.587-5.869-1.174-8.803-1.76
		c2.466,2.347,5.047,4.812,7.629,7.042c-3.402-0.587-6.808-1.056-10.211-1.291c3.99,2.23,7.982,4.578,11.269,7.864
		c-4.46-1.056-8.803-2.465-13.146-3.756c-0.117,1.409-0.235,2.817-0.235,4.226c-1.291,1.174-2.465,2.347-3.756,3.521
		c3.404,1.056,6.809,1.878,10.096,3.169c3.873,4.108,6.221,9.39,7.159,15.023c-0.587,0.235-1.995,0.939-2.699,1.174
		c-2.699-2.347-5.517-4.812-8.333-7.16c0.233-1.056,0.586-2.113,0.82-3.169c-2.935-0.704-5.986-1.409-8.921-2.113
		c0.705,1.409,1.409,2.817,1.996,4.226c-1.174-0.118-2.467-0.118-3.64-0.118c1.643,1.996,3.287,3.991,5.048,5.986
		c-2.466-0.705-4.813-1.409-7.161-2.113c1.879,3.051,3.991,6.103,6.338,8.92c-2.699-2.113-5.517-3.756-8.567-5.282
		c-0.822,3.052-0.94,6.221-0.587,9.39c-3.64,0.939-3.756,4.93-5.049,7.864c-1.173,3.521-3.521,6.925-2.815,10.798
		c0.587,7.863,3.052,17.254-2.816,23.826c-4.226,3.99-10.095,0.939-13.732-2.348c3.403,0.588,6.809,1.996,10.329,1.526
		c1.407-1.056,2.7-2.348,4.108-3.639c-3.288,0.47-6.574,1.644-9.859,1.174c-6.455-2.229-8.803-9.39-14.319-12.794
		c-3.521-1.994-7.276,0.47-10.328,2.114l-0.939,0.587c1.643-2.582,2.7-6.809,6.337-6.689c5.869-0.588,10.446,3.873,13.616,8.332
		c1.995,2.348,3.756,5.988,7.395,5.752c3.286,0.352,6.221-2.113,6.338-5.4c1.407-8.568,2.699-17.02,4.226-25.469
		c5.164-15.61,13.263-30.048,19.131-45.306c3.64-9.742,8.803-19.014,11.973-28.991c2.934-9.742,5.751-19.718,6.103-30.047
		c1.174-11.385,1.996-23.122-0.705-34.39c-1.642-7.277-3.402-14.554-6.808-21.361C380.683,131.859,374.579,124.464,368.124,117.54
		L368.124,117.54z"/>
	<path id="path4424" fill="#FFFFFF" d="M224.98,146.39c3.756,1.878,6.573,4.93,9.625,7.629c0.939,2.583,1.643,5.165,2.465,7.864
		c-1.643,1.995-3.287,4.46-6.104,5.047c-11.62,2.817-23.943,0.821-35.446,3.99c0.469,0.705,1.408,1.996,1.878,2.7
		c-0.352,0.939-0.822,1.761-1.174,2.582c1.409-0.117,2.7-0.234,4.108-0.352c-0.469,1.057-1.056,2.113-1.526,3.169
		c0.939,0.705,1.878,1.409,2.817,2.23c-1.525,0.469-3.051,1.056-4.577,1.643c-1.526-3.169-3.287-6.338-6.808-7.395
		c-3.169-0.939-2.7-5.751-0.352-7.277c3.521-0.235,7.277,0.117,10.681-0.939c0.587-2.113,0.704-4.343,1.056-6.573
		c-8.92-2.582-18.427-1.526-26.995,1.526c-1.995,0.704-3.639,1.995-5.282,3.286c3.521-0.352,7.042-0.939,10.563-1.526
		c-6.104,3.169-13.028,5.282-19.836,4.93c-4.108-1.174-7.394-3.991-11.268-5.751c0,2.699-0.586,5.634,1.057,7.981
		c1.878,2.935,4.93,4.813,7.629,6.925c-6.103,1.644-13.732-3.051-13.967-9.742c-0.938-4.695,2.583-8.333,5.517-11.385
		c3.052,2.699,5.986,6.455,10.563,6.103c6.69-0.117,12.911-3.286,19.483-4.343c10.681-2.23,22.418-1.643,31.925,4.108
		c5.165,3.521,11.62,2.934,17.254,1.291c2.347-0.587,4.225-2.7,3.99-5.165C231.905,153.901,228.619,149.676,224.98,146.39
		L224.98,146.39z"/>
	<path id="path4428" sodipodi:nodetypes="cccccccccccccccccccscccccc" fill="#FFFFFF" d="M282.621,79.581
		c3.521-9.977,17.723-13.263,25.352-5.986c-2.229,0.47-4.576,0.939-6.808,1.408c-2.112,1.526-3.991,3.169-5.985,4.93
		c-2.348,2.23-4.814,4.343-7.396,6.221c0.354,1.761,0.705,3.521,1.174,5.165c0.94,2.347,2.467,4.46,4.343,6.221
		c-3.756,0.352-7.276,1.643-10.563,3.051c3.287,0,6.574,0,9.859,0c-22.783,7.743-24.88,16.995-29.453,17.889
		c0.793-4.917,1.435-10.806,4.1-15.424c-11.031,1.526-21.361,5.751-32.394,7.512c-8.92,1.878-17.958,0.939-26.996,0
		c-4.812-0.352-10.681-0.939-14.437,2.817c-1.643,3.169-1.76,6.925-2.699,10.329c-1.409,0.822-2.935,1.644-4.343,2.465
		c-3.287,4.226-6.925,8.686-7.16,14.319c-1.878,0-3.756,0.117-5.751,0.235c0.118-2.348,0-4.93,1.057-7.16
		c1.76-3.404,5.282-5.751,7.042-9.272c1.761-3.521,1.761-7.512,3.169-11.033c1.761-3.873,5.751-6.808,10.211-6.338
		c12.911,0.587,26.409,3.404,38.967-0.939c16.549-5.634,33.567-9.625,50.938-11.62C282.738,89.792,280.273,84.627,282.621,79.581
		L282.621,79.581z"/>
	<path id="path4432" fill="#FFFFFF" d="M198.164,113.445c1.878,0.118,3.639,0.235,5.517,0.353c0,2.699,0.704,5.516-0.235,8.099
		c-2.347,4.929-8.451,8.803-13.967,6.455c3.169-1.761,6.455-3.404,9.39-5.634C198.633,119.666,198.398,116.614,198.164,113.445
		L198.164,113.445z"/>
	<path id="path4435" fill="#BA7076" d="M346.356,147.114c-0.353-6.69,6.104-10.915,11.15-13.967
		c-3.99,7.629-5.986,15.845-9.39,23.709c-2.113,8.216,0.821,16.549,0.469,24.882c-0.118,5.869-2.582,11.385-3.053,17.253
		c-1.761-0.704-3.639-1.291-5.398-1.878c2.112-2.817,3.873-5.868,5.164-9.155c-4.343,2.582-7.982,6.104-11.972,9.155
		c3.286-4.46,8.567-7.746,9.977-13.498c-3.053,1.878-5.869,4.108-8.568,6.456c2.348-3.521,4.46-7.16,5.868-11.033
		c-5.868,3.052-9.977,8.568-15.963,11.62c-7.16,3.756-15.259,5.516-23.355,4.93c-6.456-0.353-12.559-2.583-18.898-3.756
		c-0.234-0.353-0.587-1.174-0.822-1.526c-0.468-1.057-0.938-1.996-1.406-3.052c2.815,0.235,5.75,0.117,8.568,0.822
		c2.934,1.173,5.516,2.934,8.332,4.577c0-0.704,0.119-2.23,0.119-2.934c2.581,0.821,5.281,1.643,7.981,2.465
		c0-0.587,0.234-1.644,0.353-2.23c2.464,0.352,5.047,0.821,7.629,1.173c-0.704-1.056-1.409-2.23-1.996-3.286
		c2.935,0.352,5.987,0.587,9.038,0.469c-0.117-0.587-0.353-1.995-0.47-2.699c3.169-0.47,6.809-1.057,9.038-3.756
		c4.46-4.93,9.977-9.39,12.206-15.845C343.188,159.908,346.239,153.805,346.356,147.114L346.356,147.114z"/>
	<path id="path4438" fill="#BA7076" d="M391.166,74.945c3.169,7.16,1.525,14.789,0,22.065c-0.587,0.118-1.761,0.352-2.348,0.47
		c-2.935,1.643-5.047,4.108-7.042,6.69c1.291,1.057,2.699,1.996,4.107,2.935c-3.403,0.352-6.689,0.587-9.977,0.821
		c-0.938,1.526-1.761,3.052-2.582,4.578c1.526,0.235,2.935,0.587,4.46,0.939c-2.229,0.704-4.341,1.408-6.572,2.23
		c-0.939,0.235-1.761,0.47-2.699,0.822c6.455,6.925,12.559,14.319,16.549,22.887c3.403,6.808,5.164,14.084,6.808,21.361
		c2.7,11.268,1.879,23.005,0.705,34.39c-0.352,10.329-3.169,20.305-6.104,30.047c-3.169,9.977-8.333,19.249-11.972,28.99
		c-5.868,15.258-13.966,29.695-19.131,45.307c-1.996,3.989-3.991,8.216-4.226,12.792c-0.47,5.047-0.821,10.329-3.64,14.79
		c-0.704-5.517-1.761-10.916-3.873-16.08c1.291-0.118,2.465-0.234,3.639-0.352c-0.705-3.875-1.643-7.629-2.465-11.504
		c1.408,0,2.934,0,4.343,0c-0.353-3.169-0.706-6.221-0.822-9.39c3.052-3.991,2.817-9.038,2.7-13.732
		c1.292,2.935,2.816,5.634,4.813,8.099c0-5.751-0.705-11.502-1.526-17.253c1.643,2.7,3.521,5.282,5.751,7.394
		c0.234-5.399-0.47-10.681-1.761-15.962c1.644,1.878,3.286,3.756,4.93,5.516c0.353-4.46,0.117-9.038-0.705-13.498
		c1.761,1.761,3.521,3.521,5.281,5.164c-0.468-4.929-1.174-9.859-1.761-14.671c1.761,1.643,3.404,3.286,5.165,5.047
		c-0.235-5.282-0.939-10.329-1.644-15.493c1.761,2.113,3.403,4.343,5.164,6.456c0.117-5.986-1.291-11.737-2.582-17.488
		c2.113,2.934,4.343,6.103,6.69,8.92c-0.117-5.282-1.526-10.563-3.404-15.493c1.996,2.465,3.991,5.047,6.104,7.394
		c0.939-5.751-2.348-10.798-4.694-15.845c2.347,2.113,4.694,4.225,7.16,6.338c-0.234-5.047-1.643-9.859-3.64-14.319
		c1.879,1.056,3.756,2.23,5.634,3.404c-1.055-5.634-2.934-11.033-5.163-16.197c1.878,1.174,3.873,2.348,5.75,3.521
		c-1.055-4.813-3.286-9.155-6.221-13.146c2.348,1.761,4.813,3.404,7.277,5.047c-0.821-5.517-4.108-10.094-7.512-14.202
		c2.113,1.057,4.343,2.113,6.455,3.169c-1.878-5.516-5.047-10.329-8.803-14.906c1.995,0.821,4.108,1.643,6.104,2.347
		c-1.878-3.169-3.989-6.338-6.221-9.272c1.761,0.47,3.521,1.057,5.281,1.526c-2.465-3.991-5.634-7.512-8.92-10.798
		c1.643,0.235,3.402,0.469,5.047,0.704c-3.169-4.93-7.395-8.92-12.089-12.441c1.761,0.118,3.521,0.235,5.281,0.235
		c-1.995-1.526-3.874-3.521-6.455-4.226c-2.817,0.353-5.164,1.996-7.629,3.169c-4.462,2.935-9.977,0.587-14.79,2.465
		c-6.69,1.996-11.385-4.695-13.028-10.211c2.229,1.995,4.226,4.46,6.924,5.986c2.23,0.939,4.694,0.939,7.161,1.291
		c-0.587-1.291-1.057-2.465-1.644-3.639c1.174,0.118,2.23,0.352,3.403,0.587c0.235-0.587,0.353-1.173,0.587-1.76
		c3.403-2.348,6.69-4.93,10.799-6.104c5.281-1.526,10.797-2.582,15.375-5.751c9.742-6.69,17.841-17.254,17.841-29.46
		C390.931,76.94,391.049,75.649,391.166,74.945L391.166,74.945z"/>
	<path id="path4443" fill="#FFFFFF" d="M258.21,136.919c1.761,0.235,3.521,0.47,5.399,0.705c1.292,5.399,0.705,10.915,1.408,16.432
		c1.879,4.578,3.286,9.507,3.053,14.554c1.055-1.057,1.994-2.23,3.052-3.404c0.704,3.521,1.526,7.042,2.699,10.446
		c4.577,1.526,6.456,6.221,8.686,10.094c-3.169-0.822-6.221-1.761-9.155-2.935c-1.526-0.821-2.934-1.526-4.227-2.465
		c-0.586-4.93-3.402-9.155-5.633-13.498c-2.817-5.634-0.117-12.089-2.23-17.84C259.736,145.136,258.68,141.145,258.21,136.919
		L258.21,136.919z"/>
	<path id="path4451" fill="#BA7076" d="M272.475,113.784c5.398-3.756,12.089-6.69,18.779-4.343c-2.467,0.47-5.047,1.057-7.512,1.526
		c1.879,0.47,3.873,0.822,5.751,1.291c0.587,2.23,1.056,4.578,1.526,6.925c-0.705,0-2.113,0.117-2.817,0.117
		c-0.587-0.117-1.642-0.235-2.229-0.352c1.056-1.057,2.113-2.113,3.17-3.169c-1.996,0.117-3.991,0.234-6.104,0.469
		c-0.587-1.174-1.293-2.347-1.879-3.404c-1.879,1.057-3.873,2.23-5.635,3.521c1.762,0,3.521,0.118,5.282,0.118
		c-3.403,0.822-6.924-0.118-9.977-1.761C271.301,114.488,272.005,114.019,272.475,113.784L272.475,113.784z"/>
	<path id="path4455" fill="#FFFFFF" d="M361.114,83.218c8.803-5.868,19.72-8.686,30.399-8.216c-0.117,0.704-0.235,1.995-0.353,2.7
		c-1.174,0.352-2.466,0.704-3.756,0.939c-10.563,0.939-20.657,5.751-27.816,13.615c-4.576,4.93-8.921,10.446-9.625,17.371
		c-0.117,0.587-0.352,1.878-0.468,2.465c-0.822,0.117-1.761,0.352-2.582,0.469c-1.409,2.465-2.7,4.813-4.108,7.16
		c-1.995-3.052-6.104-7.042-3.052-10.681c4.108-4.93,10.445-7.747,13.263-13.85c-4.46-0.587-9.154-0.47-13.146,2.112h-0.704
		c-2.582-0.234-5.048-0.586-7.629-1.056c4.342-6.456,12.676-7.16,19.835-7.042C355.716,89.908,357.711,85.096,361.114,83.218
		L361.114,83.218z"/>
	<path id="path4458" fill="#FFFFFF" d="M324.829,78.333c7.512-5.282,16.432-8.686,25.353-10.798c-0.586,1.76-1.173,3.521-1.76,5.164
		c-10.683,1.761-19.366,9.39-26.174,17.371c2.348,2.582,4.694,5.164,6.924,7.864c-4.461,0.117-8.803-0.704-13.146-1.409
		c-3.287-1.056-6.456-2.582-9.624-4.108c1.407-0.352,2.935-0.821,4.461-1.173c-0.939-1.292-1.88-2.465-2.817-3.756
		c0.587,0.117,1.525,0.352,1.995,0.469c2.348,0.469,4.813,0.822,7.16,1.174C319.077,85.141,320.955,80.798,324.829,78.333
		L324.829,78.333z"/>
	<path id="path2508" sodipodi:nodetypes="ccccccccccccccccccccccccccccccccccccccc" fill="#FFFFFF" d="M93.845,404.402
		c2.7,2.074,4.715,3.391,6.593,6.196c-0.235,0.61-0.138,2.952-0.373,3.44c0.352,0.243,0.822,0.61,1.174,0.732
		c0.352,0.243,1.173,0.731,1.643,0.976c-0.704,0.854-1.409,1.708-2.113,2.684c1.526,0.731,3.052,1.586,4.578,2.317
		c-1.409,0.977-2.817,1.952-4.226,2.927c1.761,0.488,3.521,1.098,5.282,1.586c-1.878,1.343-3.638,2.684-5.399,4.026
		c1.526,0.976,3.169,1.952,4.695,3.05c-1.409,1.097-2.817,2.195-3.991,3.781c1.409,0.977,2.935,1.83,4.343,2.806
		c-1.291,0.977-2.582,1.953-3.991,2.928c1.291,0.854,2.465,1.707,3.756,2.562c-1.056,1.344-2.23,2.684-3.286,4.025
		c1.76,0.367,3.404,0.854,5.047,1.344c-1.291,1.097-2.7,2.195-3.991,3.415c1.057,1.22,2.113,2.439,3.169,3.66
		c-1.056,1.22-2.23,2.439-3.286,3.781c2.23,0.977,4.46,2.073,6.573,3.173c-1.526,0.486-3.169,0.976-4.695,1.464
		c0,0.731-0.118,2.195-0.118,2.926c1.526,0.366,3.169,0.733,4.813,1.099c-1.409,0.731-2.817,1.585-4.226,2.316
		c0,0.609-0.117,1.707-0.117,2.317c1.408,0.609,2.817,1.342,4.108,2.073c-1.174,0.977-2.465,1.952-3.639,2.927
		c1.409,1.098,2.817,2.074,4.226,3.173c-1.174,1.097-2.348,2.196-3.404,3.416c0.822,1.585,1.878,3.049,2.817,4.513
		c-1.526-0.243-3.052-0.487-4.695-0.609c0.235,0.609,0.587,1.829,0.704,2.439c2.465,1.707,4.813,3.416,6.925,5.366
		c-2.699,0.733-5.516,3.173-8.216,1.708c-2.582-7.686-2.465-15.858-3.521-23.665c-2.23-18.175-3.169-36.352-5.399-54.405
		C95.019,415.381,94.197,409.892,93.845,404.402L93.845,404.402z"/>
	<path id="path2511" fill="#BA7076" d="M119.736,380.273c6.221,3.521,9.859,10.329,12.676,16.666
		c3.873,9.272,6.573,19.249,5.869,29.343c-5.634-1.056-11.033-2.815-16.432-4.576c0.704,9.39,2.465,18.661,2.23,28.169
		c-2.23-1.174-4.46-2.112-6.69-3.053c1.878-0.939,3.638-1.878,5.399-3.052c-2.23-1.644-4.695-2.817-7.16-3.873
		c2.113-0.353,4.343-0.587,6.573-0.939c-0.235-0.587-0.821-1.879-1.056-2.466c-2.113-0.468-4.226-0.938-6.456-1.408
		c2.348-0.82,4.578-1.761,6.808-2.699c-2.582-1.174-5.165-2.229-7.864-3.287c1.643-0.469,3.169-0.938,4.812-1.408
		c-5.164-2.815-10.329-5.75-15.375-8.803c-0.469-0.234-1.291-0.704-1.643-0.939c1.76-0.938,3.404-1.995,5.399-2.582
		c2.348-0.352,4.695,0.587,7.042,0.353c1.995-0.82,3.638-2.581,5.399-3.989c0.587,0.938,1.291,1.76,1.878,2.699
		c0.939-0.117,1.76-0.117,2.699-0.234c0.705,1.643,1.409,3.286,2.23,5.047c0.704-1.407,1.408-2.816,2.23-4.108
		c2.465,0.354,5.047,0.587,7.629,0.94c-1.174-7.161-3.404-14.203-6.573-20.658C126.896,389.898,123.844,384.617,119.736,380.273
		L119.736,380.273z"/>
	<path id="path2515" fill="#FFFFFF" d="M107.662,379.894c1.526,0,3.052-0.118,4.578-0.118c1.291,0.118,2.699,0.234,3.99,0.705
		c4.108,4.342,7.16,9.623,9.625,15.14c-0.704,1.525-1.408,3.169-2.112,4.813c-0.822-2.23-1.526-4.578-2.348-6.809
		c-0.587,1.643-1.174,3.287-1.643,4.93c-1.057-2.816-2.113-5.75-3.052-8.685c-0.587,4.46-1.409,8.92-2.582,13.263
		c-0.352-4.93-0.587-9.859-1.174-14.789c-2.23,6.573-2.7,13.851-7.512,19.365C106.84,398.438,109.423,389.283,107.662,379.894
		L107.662,379.894z"/>
	
		<path id="path2518" sodipodi:nodetypes="ccccccccccccccccccccccccccccccccccccccccccccccccccccccccccccccccccccccccccccccccccccccccccccccccccccccccccccccccccccccccccccccccccc" fill="#BA7076" d="
		M89.99,90.116c0.822-0.352,1.643-0.704,2.582-0.939c2.348,8.803,2.113,18.075,3.874,27.113c1.408,7.629-5.165,14.554-2.583,22.183
		c2.465,8.333,2.465,17.253,3.639,25.822c1.291,11.15,2.348,22.183,3.756,33.333c2.113,23.592,3.169,47.301,5.986,70.775
		c-0.44,3.669,2.074,9.325,2.935,17.958c-0.587,7.864,0.352,15.845,1.173,23.591c1.057,10.564,1.644,21.127,2.583,31.69
		c1.643,12.559,3.638,25.235,1.995,37.911c-1.526,0-3.052,0.118-4.578,0.118c-1.173-0.118-2.347-0.118-3.403-0.234
		c-0.353,1.761-0.705,3.638-1.057,5.399c-2.347-1.996-3.521-4.695-3.991-7.63c-0.352-0.234-1.056-0.587-1.408-0.821
		c1.174-1.055,2.23-2.113,3.404-3.052c-0.822-2.348-1.409-4.577-2.348-6.808c-0.352-0.469-1.174-1.525-1.526-1.995
		c4.695,0.235,8.333,3.991,13.146,4.108c-1.643-0.939-3.169-1.996-4.695-2.817c1.526-1.174,3.052-2.348,4.695-3.521
		c-2.464-0.353-4.929-0.588-7.394-0.821c1.878-1.644,7.277-1.879,5.751-5.164c-1.878-0.47-3.873-0.821-5.869-1.174
		c2.23-0.704,4.343-1.408,6.456-2.112c-2.113-1.408-4.225-2.699-6.338-3.873c1.995-0.354,3.873-0.588,5.869-0.94
		c-0.235-0.469-0.822-1.407-1.057-1.994c-1.526-0.47-3.052-0.94-4.578-1.409c1.644-0.938,3.287-1.879,4.93-2.699
		c-1.76-1.057-3.521-2.113-5.282-3.169c1.526-0.938,2.935-1.995,4.46-3.053c-1.761-0.587-3.639-1.174-5.399-1.642
		c1.644-1.174,3.287-2.23,4.813-3.404c-1.526-1.291-3.287-2.229-5.047-3.286c1.525-0.587,2.934-1.174,4.343-1.761
		c0-0.469,0-1.525,0-1.995c-1.878-0.235-3.639-0.353-5.399-0.587c1.644-1.174,3.287-2.348,5.047-3.639
		c-1.995-1.057-3.873-2.23-5.868-3.286c1.995-0.706,3.99-1.526,5.986-2.348c-2.465-1.292-4.93-2.582-7.395-3.64
		c1.761-0.469,3.404-0.821,5.165-1.291c0.117-0.469,0.234-1.643,0.234-2.23c-2.23-0.586-4.577-1.291-6.807-1.877
		c2.112-0.822,4.225-1.526,6.338-2.348c-0.118-0.587-0.47-1.761-0.704-2.348c-2.23-0.469-4.46-0.939-6.808-1.408
		c2.347-0.705,4.695-1.408,6.925-2.113c0-0.705-0.117-1.995-0.117-2.699c-1.878-0.704-3.639-1.408-5.399-1.995
		c1.878-1.174,3.639-2.23,5.517-3.404c-2.465-1.174-4.93-2.465-7.395-3.756c2.113-0.352,4.226-0.822,6.338-1.174
		c0-0.704-0.118-2.113-0.118-2.817c-2.347-0.469-4.695-0.939-6.925-1.408c1.878-1.409,5.282-1.526,5.869-4.226
		c-1.761-0.704-3.404-1.291-5.047-1.761c1.76-0.939,3.521-1.878,5.282-2.817c-2.113-0.469-4.226-0.939-6.338-1.291
		c1.996-0.821,3.991-1.526,5.869-2.23c-0.117-0.469-0.469-1.291-0.587-1.761c-1.995-0.586-3.991-1.056-5.986-1.643
		c2.113-0.821,4.343-1.643,6.456-2.582c-2.23-1.174-4.46-2.347-6.69-3.521c1.996-0.235,3.874-0.47,5.869-0.822
		c-0.235-0.469-0.587-1.643-0.704-2.23c-1.291-0.47-2.582-1.056-3.756-1.526c1.291-1.174,2.699-2.23,3.991-3.404
		c-1.761-0.939-3.521-1.878-5.282-2.817c1.526-0.117,3.051-0.352,4.577-0.587c0-0.704-0.117-2.113-0.234-2.817
		c-1.878-0.587-3.874-1.056-5.869-1.643c1.878-0.704,3.756-1.291,5.516-1.878c0.118-1.174,0.235-2.23,0.353-3.287
		c-1.409-0.352-2.817-0.704-4.343-1.056c1.291-1.291,2.582-2.582,3.756-3.873c-1.644-0.587-3.169-1.292-4.813-1.878
		c1.526-0.939,3.169-1.878,4.695-2.7c-1.408-1.291-2.817-2.465-4.343-3.756c0.705-0.117,1.996-0.47,2.583-0.704
		c0.117-0.704,0.117-1.996,0.117-2.7c-1.408-0.235-2.817-0.587-4.225-0.822c1.408-0.821,2.817-1.525,4.108-2.347
		c0.117-1.291,0.234-2.582,0.469-3.873c-2.465-0.235-4.812-0.47-7.16-0.705c2.23-1.173,5.165-1.643,6.338-4.108
		c-1.526-1.291-3.052-2.347-4.578-3.404c1.408-0.939,2.7-1.878,4.108-2.817c-1.761-1.408-3.639-2.699-5.517-4.108
		c1.644-0.587,3.169-1.056,4.813-1.643c-1.409-0.939-2.935-1.996-4.343-2.934c1.174-1.057,2.23-2.23,3.404-3.287
		c-1.761-1.409-3.521-2.817-5.282-4.108c1.526-0.235,3.052-0.587,4.46-0.822c-0.117-1.056-0.352-2.113-0.469-3.169
		c-1.644-0.469-3.169-0.939-4.813-1.291c1.526-0.822,2.935-1.643,4.343-2.582c-0.235-2.23-3.052-2.465-4.577-3.521
		c1.525-0.469,3.169-0.939,4.695-1.291c-1.409-1.291-2.935-2.347-4.343-3.521c1.173-0.704,2.465-1.408,3.638-2.23
		c-1.526-1.174-3.051-2.348-4.695-3.521c1.526-0.822,3.052-1.644,4.578-2.583c-1.643-0.352-3.287-0.704-4.93-1.056
		c1.174-1.056,2.465-1.995,3.639-3.052c-1.174-1.056-2.465-2.23-3.639-3.404c0.939-0.586,1.878-1.173,2.817-1.76
		c-0.704-1.174-1.408-2.348-2.113-3.404c0.587-1.057,1.174-1.996,1.761-3.052c-1.643-0.822-3.169-1.643-4.695-2.465
		c1.526-0.939,3.052-1.878,4.695-2.817c-2.465-0.587-4.93-1.056-7.395-1.643c1.409-0.939,2.817-1.996,4.226-2.934
		c-2.465-0.353-4.93-0.587-7.395-0.705c-2.934-0.235-5.751-0.235-8.686-0.117c1.409-0.939,2.7-2.113,3.991-3.169
		c5.282-0.822,11.033-0.939,15.258-4.578c-0.939-0.47-1.761-0.939-2.582-1.291c-1.057-1.174-1.996-2.23-2.935-3.404
		c1.761-1.291,3.521-2.465,5.282-3.756c-0.704-1.643-1.291-3.404-1.995-5.047c1.056-0.704,1.995-1.291,3.052-1.996
		c-0.235-0.586-0.822-1.76-1.057-2.347c-8.803,4.578-16.667,11.033-26.291,13.85c1.996-2.113,4.226-3.991,6.69-5.516
		c5.986-3.287,12.324-6.104,17.605-10.563c-2.465-3.169-3.404-7.16-4.46-11.033C87.76,94.928,89.99,93.167,89.99,90.116
		L89.99,90.116z"/>
	<path id="path2523" sodipodi:nodetypes="ccccc" fill="#BA7076" d="M88.107,364.272c3.063,1.195,4.875,2.404,8.03,2.975
		c2.068,1.073,3.763,2.401,4.827,4.318C96.138,370.068,90.998,368.769,88.107,364.272L88.107,364.272z"/>
	<path id="path45" fill="#C9C9C9" stroke="#C9C9C9" d="M69.835,69.061c3.639-2.817,7.864-4.343,11.854-6.456
		c1.644,0.587,3.287,1.174,4.93,1.644c-1.408,1.291-2.817,2.582-4.225,3.756c1.526,0.234,3.051,0.587,4.695,0.821
		c-5.399,4.46-11.385,8.099-17.488,11.502C69.249,76.69,66.08,71.643,69.835,69.061L69.835,69.061z"/>
	<path id="path3300" fill="#BA7076" d="M359.594,92.202c7.159-7.864,17.254-12.676,27.816-13.615
		c-0.586,0.939-1.173,1.995-1.76,2.934c-1.409,0.235-2.817,0.352-4.226,0.587c-2.114,4.226-6.925,4.226-10.682,5.986
		c-7.864,5.986-14.319,14.202-17.254,23.827c-1.174-0.822-2.348-1.526-3.521-2.348C350.674,102.648,355.017,97.131,359.594,92.202
		L359.594,92.202z"/>
	<path id="path3303" fill="#FFFFFF" d="M391.354,97.328c9.038-1.761,18.662-0.587,26.878,3.639
		c5.163,2.582,8.685,7.277,13.731,9.859c5.517,2.817,11.033,6.221,17.372,6.221c4.226-0.235,5.868-4.812,8.333-7.629
		c0.235,2.934,0.353,5.869,0.353,8.803l-0.117,1.174c-2.817,0.821-5.752,1.995-8.804,1.408c-5.047-0.939-9.39-3.756-14.084-5.869
		c-5.047-2.23-10.563-3.286-16.08-3.051c-6.925,0.117-12.089,5.634-18.896,5.869c-3.169,0.469-5.987-1.292-8.686-2.583
		c10.094-0.704,18.545-7.747,28.873-7.277c0.822,0,2.701,0,3.521,0c-1.526-0.704-3.052-1.408-4.576-1.995
		c-4.343-2.113-9.272-1.878-13.968-1.644c0.587-1.408,1.174-2.699,1.761-4.108c-6.689,0.352-13.263,2.348-19.953,3.639
		c0.706-1.996,1.409-3.991,1.996-5.986C389.593,97.68,390.767,97.445,391.354,97.328L391.354,97.328z"/>
	<path id="path3308" fill="#FFFFFF" d="M397.133,137.782c0.587,0,1.644,0.117,2.229,0.117c7.981,1.174,16.55,0.235,23.827,4.108
		c7.276,2.817,12.442,8.803,17.724,14.202c-0.118,0.704-0.354,1.878-0.587,2.582c-5.868-3.991-11.503-9.272-18.897-9.742
		c3.053,2.23,6.338,4.108,9.741,5.869c-6.572-2.113-13.497-3.169-20.305-4.46c1.174-0.939,2.348-1.878,3.521-2.817
		C407.579,146.467,402.063,142.242,397.133,137.782L397.133,137.782z"/>
	<path id="path3313" fill="#FFFFFF" d="M426.406,183.57c-3.756-2.582-7.512-5.164-10.563-8.568
		c6.808,2.112,13.732,5.047,18.428,10.681c-0.587,0.469-1.761,1.291-2.348,1.643c0.704,1.408,1.408,2.7,2.112,4.108
		c-5.281-2.934-10.798-5.869-15.492-9.742C421.125,182.279,423.707,182.983,426.406,183.57L426.406,183.57z"/>
	<path id="path3317" fill="#BA7076" d="M413.947,199.711c3.17,3.286,6.456,6.69,10.446,8.92c5.164,2.935,11.15,4.93,14.906,9.859
		c2.699,3.169,4.576,7.277,8.451,9.272c4.225,1.995,8.684,0,12.792-1.174c0.705-2.7,1.292-5.399,1.643-8.216
		c0.822-0.235,1.643-0.47,2.348-0.587c-0.47,4.108,0.235,9.507-3.99,11.854c-3.286,1.76-6.808,3.99-10.563,3.756
		c-7.395-2.817-12.792-8.92-18.31-14.319c-3.756-3.756-9.038-5.047-13.381-7.864c-2.582-1.526-3.873-4.343-5.398-6.808
		C413.243,202.88,413.596,201.237,413.947,199.711L413.947,199.711z"/>
	<path id="path3324" fill="#FFFFFF" d="M393.099,269.727c0.705,0.822,1.526,1.643,2.229,2.465
		c12.559,12.793,8.217,34.038,20.893,46.714c1.174,1.291,2.466,2.699,3.64,4.225c-0.587-0.117-1.761-0.234-2.348-0.234
		c-5.751-1.879-10.095-6.808-12.442-12.324c-4.108-7.981-4.813-17.136-7.16-25.703c-1.173-4.812-2.934-9.39-4.46-14.084
		L393.099,269.727L393.099,269.727z"/>
	<path id="path3327" fill="#BA7076" d="M442.751,302.567c0.94,3.169,2.348,6.455,1.761,9.858c-1.761,3.756-4.694,6.924-7.981,9.508
		c-5.281,4.107-12.559,3.286-18.66,1.525c0.587,0,1.76,0.119,2.347,0.234c-1.173-1.525-2.466-2.934-3.64-4.225
		c3.169,1.174,6.456,2.112,9.742,3.169c-1.174-1.292-2.348-2.466-3.521-3.756c4.462,1.526,9.156,1.761,13.498,0
		c-2.699-0.587-5.399-1.174-8.216-1.761c3.874-0.469,7.747-0.469,11.503-1.525C443.573,312.661,442.634,306.91,442.751,302.567
		L442.751,302.567z"/>
	<path id="path3330" fill="#BA7076" d="M414.43,262.642c-1.994-2.934-3.521-6.221-4.226-9.742
		c5.399,5.282,10.212,11.268,12.207,18.662c0.704,10.798,1.174,21.713,2.229,32.512c-4.929-4.93-4.107-12.325-6.221-18.428
		c-0.821,2.113-1.525,4.225-2.229,6.338c-0.469-4.225-1.643-8.333-4.108-11.737c-2.815-3.756-3.639-9.859-9.154-10.563
		c0-0.587,0.118-1.878,0.234-2.465c6.104,1.878,6.808,8.92,9.859,13.615c0-1.995,0.117-3.873,0.117-5.868
		c2.23,2.112,4.577,3.99,7.042,5.751C419.359,274.379,418.186,267.923,414.43,262.642L414.43,262.642z"/>
	<path id="path3333" fill="#FFFFFF" d="M406.046,244.658c4.46,1.643,10.21,2.112,13.028,6.573c2.347,3.521,4.107,7.277,5.868,11.033
		c1.644,4.46,0,9.272-0.704,13.85c-0.587-1.408-1.174-2.817-1.761-4.225c-1.995-7.395-6.809-13.38-12.206-18.662
		C408.979,250.292,407.454,247.475,406.046,244.658L406.046,244.658z"/>
	<path id="path3337" fill="#FFFFFF" d="M413.401,219.536c4.93,3.286,9.977,6.573,14.084,10.916c0.94,3.638,2.114,7.277,2.582,11.033
		c0.119,3.404-0.821,6.808-1.291,10.211c-4.577-7.042-7.395-16.08-15.728-19.718c1.644-0.235,3.169-0.587,4.695-0.822
		c-0.939-0.939-1.996-1.995-3.052-2.934c1.878,0.469,3.756,0.939,5.634,1.291C417.861,226.344,415.514,223.057,413.401,219.536
		L413.401,219.536z"/>
</g>
</svg>
