<?xml version="1.0" encoding="UTF-8"?>
<!DOCTYPE svg PUBLIC "-//W3C//DTD SVG 1.1//EN" "http://www.w3.org/Graphics/SVG/1.1/DTD/svg11.dtd">
<!-- Creator: CorelDRAW -->
<svg xmlns="http://www.w3.org/2000/svg" xml:space="preserve" width="500px" height="515px" shape-rendering="geometricPrecision" text-rendering="geometricPrecision" image-rendering="optimizeQuality" fill-rule="evenodd" clip-rule="evenodd"
viewBox="0 0 500 515"
 xmlns:xlink="http://www.w3.org/1999/xlink"
 xmlns:svg="http://www.w3.org/2000/svg"
 version="1.0">
 <g id="Layer_x0020_1">
  <metadata id="CorelCorpID_0Corel-Layer"/>
  <path id="path1937" fill="#F00000" stroke="black" stroke-width="0.368504" d="M0.0742678 -0.210047l500.115 0.159024c-9.50372,121.172 -33.2754,340.779 -35.8322,348.818 -25.2082,96.1912 -101.256,156.897 -213.833,164.025 -95.2453,-3.4441 -170.002,-59.2926 -207.351,-157.132 -3.96964,-8.93197 -29.8117,-231.845 -43.0988,-355.87z"/>
  <path fill="#8C0000" d="M267.308 65.835c30.7967,0.169512 71.0754,9.41103 99.7334,25.2354l-28.0018 0.58337 0 1.75011c21.1346,9.83169 40.9938,26.0447 59.7955,47.5447l-29.4602 0c22.3379,19.1534 39.3044,42.0996 48.4197,70.5878l-41.1276 -4.66696 -0.291685 2.0418c12.3965,15.4347 18.3274,38.721 19.8346,67.3793l-64.0239 -1.16447 -2.96873 221.966c-23.6526,8.50848 -53.5482,13.6525 -78.6175,15.2393 -25.2995,-0.914457 -46.2362,-4.65194 -68.3275,-12.7664l-1.7898 -229.03c35.2619,-10.8335 61.7587,-49.9762 55.5242,-86.4207 -14.2634,4.14709 -27.3932,3.45175 -35.0697,-2.12457 -9.48445,6.39638 -21.8197,9.46432 -32.6407,13.1695 0.115654,4.00819 -0.302173,8.15103 -2.15263,11.8511 -7.77629,15.5492 -28.5766,26.0674 -45.5185,10.7365 -5.48249,-2.47805 11.846,-2.95455 13.6981,-8.07818 -1.66139,-7.13821 -21.7831,3.06425 -31.0575,9.0944 10.6526,-26.7049 30.9929,-22.5941 43.9753,-22.0159 2.20365,0.352914 1.78753,-4.27777 2.23087,-10.086 0.0714331,-5.85638 -4.82542,-9.37474 -10.9701,-8.90731 -15.7964,1.20274 -14.0803,11.2819 -33.6359,16.4753 -7.90867,2.10019 -7.68444,-2.00891 -7.08378,-12.8917 -10.4409,-13.6568 -6.73881,-27.1868 -1.4641,-33.0534 12.7233,-14.1494 34.4852,-29.8715 55.556,-44.4141 25.4313,-17.5513 51.0568,-33.1206 74.2536,-38.6493l-1.7161 -3.85625 -6.99364 5.01562 -5.22114 0.277512c-4.96318,-14.1276 -7.20312,-28.256 -6.72066,-42.3851l15.1707 16.009c0.292252,-6.09733 1.36233,-12.1947 3.20967,-18.2928 10.2198,22.0864 24.0296,27.7217 23.7538,31.7112 -0.335622,4.86085 -3.89509,10.3606 -3.70347,15.9182l1.44879 -0.164693c0.945922,-2.57188 2.08743,-5.14375 4.59383,-7.71676 5.86687,0.810709 12.0458,2.5971 17.3585,4.09833z"/>
  <path id="path1937_0" fill="#BF9F4F" d="M250.524 512.792c-25.2995,-0.914741 -49.1531,-5.52728 -71.2443,-13.642l-1.7898 -229.613c34.8154,-10.3805 59.3079,-41.1372 55.9931,-84.3772 38.738,-13.8662 64.2087,-41.1789 42.8105,-75.6783l-3.2281 2.04775c12.4305,16.8593 8.5595,37.1551 -6.71188,50.3297 -24.3893,21.0407 -54.3719,29.6218 -68.4091,19.1327 -10.0667,6.78898 -18.0964,7.42564 -29.6308,12.1388 -0.255685,-4.36309 -1.38671,-8.14252 -3.10082,-11.3392l-1.63332 0.0935434c0.364252,6.32693 3.51921,16.2335 -0.428315,24.1274 -7.77629,15.5492 -28.5766,26.0674 -45.5185,10.7365 -5.48249,-2.47805 11.846,-2.95455 13.6981,-8.07818 -1.66139,-7.13821 -21.7831,3.06425 -31.0575,9.0944 10.6526,-26.7049 30.9929,-22.5941 43.9753,-22.0159 2.20365,0.352914 1.78753,-4.27777 2.23087,-10.086 0.0714331,-5.85638 -4.82542,-9.37474 -10.9701,-8.90731 -15.7964,1.20274 -14.0803,11.2819 -33.6359,16.4753 -7.90867,2.10019 -7.68444,-2.00891 -7.08378,-12.8917 -10.4409,-13.6568 -6.73881,-27.1868 -1.4641,-33.0534 12.7233,-14.1494 34.4852,-29.8715 55.556,-44.4141 25.4313,-17.5513 51.0568,-33.1206 74.2536,-38.6493l-1.7161 -3.85625 -6.99364 5.01562 -5.22114 0.277512c-4.96318,-14.1276 -7.20312,-28.256 -6.72066,-42.3851l15.1707 16.009c0.292252,-6.09733 1.36233,-12.1947 3.20967,-18.2928 10.2198,22.0864 24.0296,27.7217 23.7538,31.7112 -0.335622,4.86085 -3.89509,10.3606 -3.70347,15.9182l1.44879 -0.164693c0.945922,-2.57188 2.08743,-5.14375 4.59383,-7.71676 28.552,4.46599 59.7558,27.6721 71.0082,40.7291 39.9524,46.3584 50.7325,122.745 10.2311,171.785l-1.38756 224.591c-23.6526,8.50848 -51.2153,13.3608 -76.2846,14.9477z"/>
  <path fill="#BF9F4F" d="M271.876 66.1547c36.7546,14.9119 61.5606,43.8639 74.8474,77.3513 17.5334,44.1907 13.9496,92.3021 -13.3019,130.62l59.7955 1.16674c-1.50718,-28.6583 -7.43811,-51.9446 -19.8346,-67.3793l0.291685 -2.0418 41.1276 4.66696c-9.11537,-28.4882 -26.0819,-51.4344 -48.4197,-70.5878l29.4602 0c-18.8016,-21.4999 -38.6609,-37.713 -59.7955,-47.5447l0 -1.75011 28.0018 -0.58337c-28.658,-15.8244 -61.0841,-25.4988 -92.1725,-23.9182z"/>
  <path fill="white" d="M360.836 90.1398l3.21336 -0.0668977c-28.658,-15.8244 -61.0841,-25.4988 -92.1725,-23.9182 28.6685,2.56195 63.5959,10.9216 88.9592,23.9851z"/>
  <path id="path1937_1" fill="white" d="M217.654 39.284c0.292252,-6.09733 1.36233,-12.1947 3.20967,-18.2928 0.638363,1.38019 1.29175,2.6966 1.95392,3.95263 -3.48208,10.6265 -1.42129,24.9469 4.43084,41.7943l-0.583654 4.66696 -2.33348 -5.83399c-46.5554,15.154 -132.54,78.577 -131.842,87.5058 2.32044,-0.837355 9.12785,0.196158 10.6163,2.71219 2.37317,4.01074 -2.0228,6.52734 -0.522709,12.2842 1.41534,5.4326 0.638079,8.20545 -4.55159,10.6722 2.39981,3.83669 -2.78391,9.71462 0.199843,15.0089 -4.16977,-0.201543 -3.92995,-4.57229 -3.44211,-13.4144 -10.4409,-13.6568 -6.73881,-27.1868 -1.4641,-33.0534 12.7233,-14.1494 34.4852,-29.8715 55.556,-44.4141 25.4313,-17.5513 51.0568,-33.1206 74.2536,-38.6493l-1.7161 -3.85625m-16.6859 -34.7182l-2.24958 -2.37373c-0.482457,14.129 1.75748,28.2575 6.72066,42.3851 -2.17077,-14.0179 -3.8554,-27.5488 -4.47109,-40.0113zm-63.9423 151.787c3.43814,1.28069 5.73733,4.2018 5.68857,8.22756 -0.443339,5.80819 -0.0272126,10.4389 -2.23087,10.086 -12.9824,-0.578268 -33.3227,-4.68907 -43.9753,22.0159 0.869386,-0.565229 1.83458,-1.16731 2.87065,-1.7881 0.768473,-9.74495 18.0216,-21.5759 39.5158,-17.106 -3.48463,3.8503 -7.84404,9.15874 -11.329,9.79966 -1.85216,5.12362 -19.1806,5.60013 -13.6981,8.07818 4.96063,4.48895 10.6248,6.76063 16.306,7.16741 -8.46851,-3.48662 -12.2698,-6.19569 -11.4052,-8.1275 26.8268,-6.14835 34.6263,-38.6382 18.2574,-38.3531zm57.1536 3.55606c-0.943654,0.636095 -1.86917,1.2189 -2.78221,1.75606l-0.58252 -1.96101c-20.418,-13.0039 -15.9449,-43.7763 11.9591,-58.3373l0 2.62517c-26.7469,15.4315 -26.2814,40.5848 -8.59437,55.9171zm37.3448 3.50844c-0.598961,0.223087 -1.20132,0.443055 -1.80624,0.659622 3.31484,43.24 -21.1776,73.9968 -55.9931,84.3772l1.7898 229.613c0.862583,0.316914 1.72857,0.628441 2.59682,0.934583l-2.46444 -226.25 1.45843 -2.0418c30.7945,-11.0633 58.5672,-35.6284 54.4187,-87.2921z"/>
  <path fill="#8C0000" d="M95.4069 155.41c4.4297,0 5.13836,4.83251 3.08013,9.99723 -1.58032,3.96624 2.88114,8.16038 -2.20507,10.129 -7.29213,-2.62517 -8.16719,-17.7928 -0.875056,-20.1263z"/>
  <path fill="#BF9F4F" d="M90.8779 168.63c-1.13358,-4.29789 -0.443622,-9.37616 2.29918,-11.9115 4.9595,3.46337 4.7418,7.15777 -2.29918,11.9115z"/>
  <path fill="white" d="M159.578 108.741c6.61153,-4.18082 13.8064,-7.48659 19.8346,-12.5425 8.74999,2.13959 18.5701,3.2091 28.8768,3.79191l-0.291685 1.75011 -5.54202 0.291685c-4.14851,3.1235 -20.2561,19.3728 -40.4473,8.49544l-2.43043 -1.78668z"/>
  <path fill="#BF9F4F" d="M192.044 101.274c1.23279,11.1257 -16.2289,17.481 -18.7569,2.50781l1.75011 -1.16674c1.1469,6.06756 3.92344,9.05131 8.16719,7.8755 -4.13263,-0.906237 -5.48844,-3.14731 -5.05021,-8.8407l1.98624 0.175748c0.056126,6.30511 6.80429,6.38079 6.27251,-0.960662l1.16674 0.58337c0.842174,5.16048 -1.68803,6.78359 -6.70876,5.8337 4.86596,1.7983 7.20851,0.384945 7.29213,-4.08359 0.298205,1.07547 0.387496,2.36891 -0.00708662,3.90955 1.32633,-0.601229 1.02302,-2.74025 1.17383,-6.24303l2.71417 0.40904z"/>
  <path fill="#8C0000" d="M159.578 108.741c6.61153,-4.18082 13.8064,-7.48659 19.8346,-12.5425 8.74999,2.13959 18.5701,3.2091 28.8768,3.79191l-0.291685 1.75011 -5.54202 0.291685c-3.30577,2.48882 -14.2058,13.3129 -28.715,12.1034l0.168662 -0.937985c11.2759,-1.50973 19.8782,-4.91329 24.9324,-11.0894l-18.9944 -2.29238 -18.4224 10.1285 -1.84706 -1.20331z"/>
 </g>
</svg>
