<?xml version="1.0" encoding="UTF-8"?>
<!DOCTYPE svg PUBLIC "-//W3C//DTD SVG 1.1//EN" "http://www.w3.org/Graphics/SVG/1.1/DTD/svg11.dtd">
<!-- Creator: CorelDRAW -->
<svg xmlns="http://www.w3.org/2000/svg" xml:space="preserve" width="500px" height="655px" shape-rendering="geometricPrecision" text-rendering="geometricPrecision" image-rendering="optimizeQuality" fill-rule="evenodd" clip-rule="evenodd"
viewBox="0 0 500 655"
 xmlns:xlink="http://www.w3.org/1999/xlink"
 xmlns:svg="http://www.w3.org/2000/svg"
 version="1.0">
 <g id="Layer_x0020_1">
  <metadata id="CorelCorpID_0Corel-Layer"/>
  <path id="path1937" fill="#B2B2B2" stroke="black" stroke-width="0.708662" d="M-0.0226772 0.305008l500.032 0 0 435.028c-45.0029,290.018 -465.03,290.018 -500.032,0l0 -435.028z"/>
  <path fill="#F00000" stroke="#F00000" stroke-width="1.98425" d="M35.8886 202.572c8.69386,-6.63052 21.3633,-13.4544 31.072,-21.3891 15.1458,-12.3786 24.5866,-23.7268 35.0447,-24.8224 8.34605,-0.874205 18.7248,11.3825 33.26,22.1341 17.9909,13.3073 21.388,19.8678 38.0333,17.0484 16.6453,-2.81934 62.6417,-52.1065 63.8674,-62.86 -6.80032,-1.71071 -21.3004,-2.08205 -25.0878,-0.109984 -4.1967,1.05024 -11.4063,9.46545 -15.9375,5.49411 4.35544,-5.98536 7.70684,-4.60573 11.393,-11.9299 -1.97773,-10.1211 -5.57774,-6.42218 -13.4464,-6.35726 -4.24318,0.0351496 -7.83326,7.03333 -9.77301,6.98655 -2.91147,-0.465449 -5.05162,-3.54529 -7.53534,-7.05374 -1.93125,-2.72778 -4.34211,-5.89125 -3.93959,-9.47452 0.992977,-3.50362 9.26504,-6.09166 18.3728,-14.4065 5.55024,-5.06665 11.9741,-11.1671 19.6733,-14.023 1.43972,-0.693922 4.14085,-7.4401 5.67014,-10.1622 1.88589,-3.35707 12.0277,-5.76709 17.7069,-6.64186 1.2515,-3.89509 2.50328,-9.12926 3.75506,-13.0244 7.22778,1.06696 12.1122,10.838 20.0098,13.244 1.65203,-5.01959 2.6348,-6.3567 4.28712,-11.376 8.89852,3.18501 13.7798,8.71371 19.6654,15.9163 18.8153,0.189921 39.6391,3.72756 53.7676,13.9609 -8.1995,1.43121 -20.4163,-2.49364 -26.6071,3.62466 6.61975,3.4903 12.57,9.99355 16.8463,15.4928 -9.84756,-1.63786 -27.0598,-11.9798 -28.8726,-1.2308 8.98782,6.43862 20.4863,13.2109 25.0047,21.8483 -7.0217,1.48961 -20.0693,-15.433 -24.7473,1.12167 10.8763,5.22227 20.4134,14.127 25.5986,24.3709 -6.65518,5.34161 -14.6495,-8.73355 -21.3044,3.63855 0.874772,7.44974 12.797,6.53018 10.9939,20.0058 -7.94807,-4.80019 -15.8959,-4.57881 -20.4959,0.99893 8.7772,8.56517 16.5501,13.1131 20.6405,23.3521 -4.54451,1.66082 -12.102,-1.69994 -16.6462,-0.0388347 1.56132,2.90948 3.4577,9.16697 3.68022,12.4115 -11.8077,7.34089 -19.7374,21.7287 -20.1416,29.9795 -0.404221,8.25081 12.0583,22.3926 16.8253,33.9605 4.76703,11.5679 4.96177,24.0268 7.10816,36.2075 3.44721,13.0368 42.0455,30.7607 46.8318,39.4458 16.2309,-16.043 50.1781,-33.8837 58.7364,-33.7332 6.73455,0.118488 30.3857,12.2343 30.7137,22.7483 0.177732,5.69254 -4.66583,9.70016 -6.69232,14.8969 3.99515,10.3581 -7.10844,19.8374 -8.29134,39.8282 -15.4817,-0.487843 -21.2548,0.698457 -36.7362,0.210898 -2.37628,-16.8214 17.6771,-42.012 12.623,-47.4509 -1.37027,-1.48394 -7.53846,-1.97603 -14.6197,1.16589 -8.02545,3.5606 -15.9817,11.6033 -25.2156,11.1654 1.90375,11.4523 2.63792,20.5036 -0.867969,32.8669 -34.3698,-1.08255 -62.0442,-1.49528 -96.414,-2.57754 -6.41963,-13.3262 -14.5964,-23.421 -18.5893,-34.9572 -3.99288,-11.5362 -5.64605,-20.0214 -5.12136,-30.1995 -12.5252,-6.5194 -34.039,-14.923 -44.6054,-25.5838 -10.5664,-10.6608 -11.7513,-36.176 -18.129,-43.0489 -5.79402,-2.50356 -9.64602,-0.597544 -8.91326,4.50085 -1.84252,0.511087 -5.17068,-2.27509 -9.07229,-2.81339 -0.0816378,0.760536 -0.276095,1.14293 -0.0498898,2.00013 -9.13238,-5.36202 -13.2324,-1.9766 -21.2411,-2.46302 0.169512,0.461197 -0.0096378,-1.42753 0.803056,1.02274 -6.79068,-3.44608 -18.1485,-2.68271 -25.0778,-6.82753 -1.68236,4.71912 -0.409607,10.319 5.94907,16.825 -2.67959,0.450992 -7.03276,2.24107 -8.70775,5.70529 0.777827,1.55537 1.55565,3.11103 2.33376,4.66668 -2.92989,1.24838 -4.18564,3.50136 -5.77616,6.75865 0.64063,0.99978 1.28126,1.99956 1.92189,2.99934 -1.76032,0.859182 -4.19018,3.72699 -5.28066,6.59481 4.11477,5.36202 10.573,8.71569 18.0354,10.7303 0.0456378,12.4455 3.10422,24.891 -3.54529,32.3153 -9.85437,-4.38662 -23.0565,-18.1468 -27.5545,-28.2243 -1.54658,-31.0295 -12.8015,-67.0805 -3.96992,-75.3455 5.67525,-5.68999 33.7802,-5.01931 50.5032,-6.69175 1.17014,-2.17729 2.00551,-6.6977 3.17566,-8.87471 -11.8862,-1.27247 -28.2637,-16.8381 -40.4844,-26.2191 -2.94038,2.02139 -10.165,4.55613 -16.7562,7.84914l2.0092 3.73947c-6.59622,-0.272126 -15.643,0.876756 -19.3955,3.11584 -3.17084,5.61629 -2.43496,10.0035 -1.13443,14.8317 -10.2135,6.12085 -18.0833,14.2506 -28.2966,20.3718 -2.50498,-9.7526 -4.87531,-21.5136 -0.839622,-38.2417z"/>
  <path id="path1937_0" fill="#0581ED" d="M500.009 387.777l0 47.5563c-45.0029,290.018 -465.03,290.018 -500.032,0l0 -53.6899c2.99736,-4.82655 13.7432,-6.52819 29.7927,-5.91563 17.2999,0.660473 33.234,13.4821 54.341,14.3813 21.1071,0.899434 27.3691,-10.0987 48.5388,-9.94423 17.4577,0.127559 37.8834,10.3295 59.1208,9.89859 21.2375,-0.43115 39.2718,-11.609 65.9512,-11.4137 17.4439,0.127276 39.5541,9.45071 60.486,11.126 20.9319,1.67556 40.3685,-4.27238 60.9117,-4.12299 13.0102,0.0943937 23.0264,5.39915 35.9941,5.80224 12.9679,0.402803 28.8913,-2.86583 39.0305,-2.79298 7.60422,0.0544252 13.3098,3.5572 20.9923,3.04129 7.68218,-0.516189 16.2068,-3.99005 24.8726,-3.92627z"/>
 </g>
</svg>
