<?xml version="1.0" encoding="UTF-8" standalone="no"?>
<!-- Created with Inkscape (http://www.inkscape.org/) -->
<svg
   xmlns:svg="http://www.w3.org/2000/svg"
   xmlns="http://www.w3.org/2000/svg"
   xmlns:xlink="http://www.w3.org/1999/xlink"
   version="1.0"
   width="499.99997"
   height="571.08252"
   id="svg2">
  <defs
     id="defs4" />
  <g
     transform="translate(-32.871872,-37.457486)"
     style="display:inline"
     id="layer2">
    <g
       transform="matrix(1.0001166,0,0,1.0001166,-3.8341622e-3,-7.0979864e-2)"
       id="g7760">
      <path
         d="M 33.371873,38.024091 C 33.371873,152.67771 33.371873,267.33134 33.371873,381.98496 C 33.371873,506.75431 145.13742,608.03997 282.84271,608.04 C 420.54802,608.04 532.31356,504.14163 532.31356,381.98496 C 532.31356,240.01 532.31356,152.67771 532.31356,38.024091 L 33.371873,38.024091 z "
         style="fill:#df0000;fill-opacity:1;fill-rule:evenodd;stroke:#000000;stroke-width:1;stroke-linecap:butt;stroke-miterlimit:4;stroke-dasharray:none;stroke-opacity:1"
         id="path2420" />
      <g
         id="g7714">
        <g
           id="g6656">
          <path
             d="M 92.871827,107.1664 C 93.422584,98.11988 84.478805,98.04341 85.190673,107.22953 C 85.902541,116.41565 84.779695,121.10115 83.1875,130.06329 L 94.84375,130.06329 C 92.941889,121.07853 92.32107,116.21292 92.871827,107.1664 z "
             style="fill:#000000;fill-opacity:1;fill-rule:evenodd;stroke:#000000;stroke-width:1;stroke-linecap:butt;stroke-miterlimit:4;stroke-dasharray:none;stroke-opacity:1"
             id="path6654" />
          <path
             d="M 92.871827,105.1664 C 93.422584,96.11988 84.478805,96.04341 85.190673,105.22953 C 85.902541,114.41565 84.779695,119.10115 83.1875,128.06329 L 94.84375,128.06329 C 92.941889,119.07853 92.32107,114.21292 92.871827,105.1664 z "
             style="fill:#aa8c28;fill-opacity:1;fill-rule:evenodd;stroke:#000000;stroke-width:1;stroke-linecap:butt;stroke-miterlimit:4;stroke-dasharray:none;stroke-opacity:1"
             id="path2441" />
          <path
             d="M 85.190673,107.22953 C 87.045083,102.48891 91.012198,102.43358 92.871827,107.1664 C 94.731456,111.89922 99.639516,114.25 105.03125,114.25 C 112.071,114.25 117.78125,108.53975 117.78125,101.5 C 117.78125,94.46025 112.07101,88.75 105.03125,88.75 C 101.91945,88.75 99.058326,89.86494 96.84375,91.71875 C 99.913513,89.07775 101.39035,85.60139 101.78125,81.5 C 101.78125,74.460246 96.071006,68.750003 89.03125,68.75 C 81.991496,68.75 76.281248,74.460245 76.28125,81.5 C 76.253521,85.76159 78.467086,88.9343 81.25,91.75 C 79.028179,89.87007 76.167411,88.75 73.03125,88.75 C 65.991496,88.75 60.281249,94.46025 60.28125,101.5 C 60.28125,108.53975 65.991498,114.25 73.03125,114.25 C 78.428952,114.25 83.336263,111.97015 85.190673,107.22953 z "
             style="fill:#000000;fill-opacity:1;fill-rule:evenodd;stroke:#000000;stroke-width:1;stroke-linecap:butt;stroke-miterlimit:4;stroke-dasharray:none;stroke-opacity:1"
             id="path6652" />
          <path
             d="M 85.190673,105.22953 C 87.045083,100.48891 91.012198,100.43358 92.871827,105.1664 C 94.731456,109.89922 99.639516,112.25 105.03125,112.25 C 112.071,112.25 117.78125,106.53975 117.78125,99.5 C 117.78125,92.46025 112.07101,86.75 105.03125,86.75 C 101.91945,86.75 99.058326,87.86494 96.84375,89.71875 C 99.913513,87.07775 101.39035,83.60139 101.78125,79.5 C 101.78125,72.460246 96.071006,66.750003 89.03125,66.75 C 81.991496,66.75 76.281248,72.460245 76.28125,79.5 C 76.253521,83.76159 78.467086,86.9343 81.25,89.75 C 79.028179,87.87007 76.167411,86.75 73.03125,86.75 C 65.991496,86.75 60.281249,92.46025 60.28125,99.5 C 60.28125,106.53975 65.991498,112.25 73.03125,112.25 C 78.428952,112.25 83.336263,109.97015 85.190673,105.22953 z "
             style="fill:#aa8c28;fill-opacity:1;fill-rule:evenodd;stroke:#000000;stroke-width:1;stroke-linecap:butt;stroke-miterlimit:4;stroke-dasharray:none;stroke-opacity:1"
             id="path6648" />
        </g>
        <use
           transform="translate(386,0)"
           id="use6681"
           x="0"
           y="0"
           width="744.09448"
           height="1052.3622"
           xlink:href="#g6656" />
        <use
           transform="translate(-55.188533,74)"
           id="use6683"
           x="0"
           y="0"
           width="744.09448"
           height="1052.3622"
           xlink:href="#use6681" />
        <use
           transform="translate(-274,0)"
           id="use6685"
           x="0"
           y="0"
           width="744.09448"
           height="1052.3622"
           xlink:href="#use6683" />
        <use
           transform="translate(-56,72)"
           id="use6693"
           x="0"
           y="0"
           width="744.09448"
           height="1052.3622"
           xlink:href="#use6685" />
        <use
           transform="translate(386,0)"
           id="use6695"
           x="0"
           y="0"
           width="744.09448"
           height="1052.3622"
           xlink:href="#use6693" />
        <use
           transform="translate(110,0)"
           id="use6703"
           x="0"
           y="0"
           width="744.09448"
           height="1052.3622"
           xlink:href="#use6693" />
        <use
           transform="translate(166,0)"
           id="use6705"
           x="0"
           y="0"
           width="744.09448"
           height="1052.3622"
           xlink:href="#use6703" />
        <use
           transform="translate(0,146)"
           id="use6713"
           x="0"
           y="0"
           width="744.09448"
           height="1052.3622"
           xlink:href="#use6693" />
        <use
           transform="translate(0,146)"
           id="use6715"
           x="0"
           y="0"
           width="744.09448"
           height="1052.3622"
           xlink:href="#use6695" />
        <use
           transform="translate(0,146)"
           id="use6717"
           x="0"
           y="0"
           width="744.09448"
           height="1052.3622"
           xlink:href="#use6703" />
        <use
           transform="translate(0,146)"
           id="use6719"
           x="0"
           y="0"
           width="744.09448"
           height="1052.3622"
           xlink:href="#use6705" />
        <use
           transform="translate(0,290)"
           id="use6721"
           x="0"
           y="0"
           width="744.09448"
           height="1052.3622"
           xlink:href="#use6683" />
        <use
           transform="translate(0,290)"
           id="use6723"
           x="0"
           y="0"
           width="744.09448"
           height="1052.3622"
           xlink:href="#use6685" />
        <use
           transform="translate(55,72)"
           id="use6725"
           x="0"
           y="0"
           width="744.09448"
           height="1052.3622"
           xlink:href="#use6723" />
        <use
           transform="translate(164,0)"
           id="use6727"
           x="0"
           y="0"
           width="744.09448"
           height="1052.3622"
           xlink:href="#use6725" />
      </g>
      <g
         id="g7736">
        <rect
           width="44.321609"
           height="149.07651"
           x="256.42935"
           y="335.93362"
           style="opacity:1;fill:#ffffff;fill-opacity:1;fill-rule:evenodd;stroke:none;stroke-width:1;stroke-linecap:butt;stroke-miterlimit:4;stroke-dasharray:none;stroke-opacity:1"
           id="rect6620" />
        <rect
           width="44.321609"
           height="149.07651"
           x="261.92429"
           y="335.93362"
           style="opacity:1;fill:#000000;fill-opacity:1;fill-rule:evenodd;stroke:none;stroke-width:1;stroke-linecap:butt;stroke-miterlimit:4;stroke-dasharray:none;stroke-opacity:1"
           id="rect6618" />
        <rect
           width="44.321609"
           height="149.07651"
           x="258.91415"
           y="335.93362"
           style="opacity:1;fill:#cfcfcf;fill-opacity:1;fill-rule:evenodd;stroke:none;stroke-width:1;stroke-linecap:butt;stroke-miterlimit:4;stroke-dasharray:none;stroke-opacity:1"
           id="rect4532" />
        <path
           d="M 280.84375,283.375 C 200.14493,283.375 126.95555,286.63968 73.34375,291.96875 L 73.34375,335.46875 C 73.505555,335.82421 74.850037,338.71783 75.521087,339.35187 C 91.816908,342.95019 204.38977,344.0625 280.84375,344.0625 C 361.54257,344.0625 434.73195,340.79782 488.34375,335.46875 L 490.21875,296.20147 L 488.34375,291.96875 C 434.73195,286.63968 361.54257,283.37499 280.84375,283.375 z "
           style="opacity:1;fill:#ffffff;fill-opacity:1;fill-rule:evenodd;stroke:none;stroke-width:1;stroke-linecap:butt;stroke-miterlimit:4;stroke-dasharray:none;stroke-opacity:1"
           id="path6622" />
        <path
           d="M 284.84375,291.375 C 204.14493,291.375 130.95555,294.63968 77.34375,299.96875 C 76.224797,313.00773 75.872202,330.44575 75.364267,339.46121 C 76.300436,341.71745 76.055852,342.3876 77.34375,343.46875 C 130.95555,348.79782 204.14493,352.0625 284.84375,352.0625 C 365.54257,352.0625 438.73195,348.79782 492.34375,343.46875 L 492.34375,299.96875 C 491.7732,299.91204 490.57718,296.26197 490.00047,296.22789 C 434.76259,292.96342 364.68376,291.37499 284.84375,291.375 z "
           style="opacity:1;fill:#000000;fill-opacity:1;fill-rule:evenodd;stroke:none;stroke-width:1;stroke-linecap:butt;stroke-miterlimit:4;stroke-dasharray:none;stroke-opacity:1"
           id="path6624" />
        <path
           d="M 282.84375,287.375 C 202.14493,287.375 128.95555,290.63968 75.34375,295.96875 L 75.34375,339.46875 C 128.95555,344.79782 202.14493,348.0625 282.84375,348.0625 C 363.54257,348.0625 436.73195,344.79782 490.34375,339.46875 L 490.34375,295.96875 C 436.73195,290.63968 363.54257,287.37499 282.84375,287.375 z "
           style="opacity:1;fill:#cfcfcf;fill-opacity:1;fill-rule:evenodd;stroke:none;stroke-width:1;stroke-linecap:butt;stroke-miterlimit:4;stroke-dasharray:none;stroke-opacity:1"
           id="path4527" />
        <path
           d="M 315.16414,515.46934 C 315.16414,549.7722 315.16414,509.9522 315.16414,544.25505 C 315.16414,578.5579 300.44414,597.54076 282.30699,597.54076 C 264.16985,597.54076 249.44985,578.5579 249.44985,544.25505 C 249.44985,509.9522 249.44985,549.7722 249.44985,515.46934 C 249.44985,481.16648 264.16985,464.14791 282.30699,464.14791 C 300.44414,464.14791 315.16414,481.16648 315.16414,515.46934 z "
           style="fill:#aeaeae;fill-opacity:1;fill-rule:evenodd;stroke:#000000;stroke-width:1;stroke-linecap:butt;stroke-miterlimit:4;stroke-opacity:1"
           id="path4534" />
        <path
           d="M 301.5,348.83408 C 279.8552,351.35947 265.25892,352.24335 252.09794,347.82393 C 223.03808,302.94472 248.28561,268.86502 256.11755,229.1509 C 257.32101,223.04843 255.68219,212.96301 251.53408,195.59239 C 248.83829,184.30353 228.76352,171.72043 237.45508,118.07647 C 257.48368,118.07647 298.26869,118.07647 321.14286,118.07647 C 329.83442,171.72043 315.31549,184.30353 312.6197,195.59239 C 308.47159,212.96301 306.44822,223.13703 308.03623,229.1509 C 320.81507,277.54505 320.12069,319.36943 301.5,348.83408 z "
           style="fill:#ffffff;fill-opacity:1;fill-rule:evenodd;stroke:none;stroke-width:1px;stroke-linecap:butt;stroke-linejoin:miter;stroke-opacity:1"
           id="path6601" />
        <path
           d="M 309.5,348.07647 C 289.87551,348.07647 282.28716,348.07647 260.09794,348.07647 C 241.47725,318.61182 251.33871,277.54505 264.11755,229.1509 C 265.70556,223.13703 263.68219,212.96301 259.53408,195.59239 C 256.83829,184.30353 236.76352,171.72043 245.45508,118.07647 C 265.48368,118.07647 306.26869,118.07647 329.14286,118.07647 C 337.83442,171.72043 323.31549,184.30353 320.6197,195.59239 C 316.47159,212.96301 314.44822,223.13703 316.03623,229.1509 C 328.81507,277.54505 328.12069,318.61182 309.5,348.07647 z "
           style="fill:#000000;fill-opacity:1;fill-rule:evenodd;stroke:#000000;stroke-width:1px;stroke-linecap:butt;stroke-linejoin:miter;stroke-opacity:1"
           id="path6603" />
        <path
           d="M 307.5,348.07647 C 287.87551,348.07647 280.28716,348.07647 258.09794,348.07647 C 239.47725,318.61182 249.33871,277.54505 262.11755,229.1509 C 263.70556,223.13703 261.68219,212.96301 257.53408,195.59239 C 254.83829,184.30353 234.76352,171.72043 243.45508,118.07647 C 263.48368,118.07647 304.26869,118.07647 327.14286,118.07647 C 335.83442,171.72043 321.31549,184.30353 318.6197,195.59239 C 314.47159,212.96301 312.44822,223.13703 314.03623,229.1509 C 326.81507,277.54505 326.12069,318.61182 307.5,348.07647 z "
           style="fill:#cfcfcf;fill-opacity:1;fill-rule:evenodd;stroke:none;stroke-width:1px;stroke-linecap:butt;stroke-linejoin:miter;stroke-opacity:1"
           id="path4537" />
        <path
           d="M 398.83036,59.0625 C 326.07889,87.63349 242.50456,88.597637 169.23673,61.172231 C 167.06535,60.14425 167.00277,60.4918 166.3338,62.618107 C 162.54722,74.647844 158.71717,86.660539 154.8541,98.6659 C 153.93,100.84587 153.971,103.2674 154.51082,104.82039 C 222.08368,124.62157 330.70819,130.06685 412.18691,99.73135 C 414.36092,99.10252 414.25537,98.86226 413.41763,96.9229 C 408.42835,85.152724 405.79664,72.560125 401.53331,60.531415 C 400.93079,58.434766 400.78096,58.327029 398.83036,59.0625 z "
           style="opacity:1;fill:#ffffff;fill-opacity:1;fill-rule:evenodd;stroke:none;stroke-width:1;stroke-linecap:butt;stroke-miterlimit:4;stroke-dasharray:none;stroke-opacity:1"
           id="path6605" />
        <path
           d="M 307.67855,349.33916 C 299.67081,354.895 266.93852,355.21067 255.86097,351.4226 C 237.24028,321.95795 252.91011,277.54505 265.68895,229.1509 C 267.27696,223.13703 265.25359,212.96301 261.10548,195.59239 C 258.40969,184.30353 238.33492,171.72043 247.02648,118.07647 C 267.05508,118.07647 296.41152,118.07647 319.28569,118.07647 C 327.97725,171.72043 309.88689,170.7321 306.47681,195.59239 C 304.04982,213.28574 305.66248,223.13703 307.25049,229.1509 C 320.02933,277.54505 326.29924,319.87451 307.67855,349.33916 z "
           style="fill:#000000;fill-opacity:1;fill-rule:evenodd;stroke:none;stroke-width:1px;stroke-linecap:butt;stroke-linejoin:miter;stroke-opacity:1"
           id="path6737" />
        <path
           d="M 305.71429,348.58154 C 290.21728,352.43072 268.92235,351.54931 254.05733,348.58154 C 228.18372,300.90265 250.57781,282.82556 262.11755,229.1509 C 263.42494,223.06985 261.68219,212.96301 257.53408,195.59239 C 254.83829,184.30353 234.76352,171.72043 243.45508,118.07647 C 263.48368,118.07647 293.91155,118.07647 316.78572,118.07647 C 325.47728,171.72043 305.95834,161.44638 303.97684,195.59239 C 302.93132,213.4208 299.94822,223.13703 301.53623,229.1509 C 314.31507,277.54505 324.33498,319.11689 305.71429,348.58154 z "
           style="fill:#cfcfcf;fill-opacity:1;fill-rule:evenodd;stroke:none;stroke-width:1px;stroke-linecap:butt;stroke-linejoin:miter;stroke-opacity:1"
           id="path6735" />
        <path
           d="M 400.24107,63.483366 C 327.4896,92.054356 246.50456,95.607789 173.23673,68.182383 C 171.06535,67.154402 171.00277,67.501952 170.3338,69.628259 C 166.54722,81.657996 158.7886,92.152834 154.92553,104.1582 C 155.25143,106.51674 158.32814,107.95613 160.38582,108.70555 C 242.24439,138.32816 334.70819,137.07701 416.18691,106.74151 C 418.36092,106.11268 418.25537,105.87242 417.41763,103.93306 C 412.42835,92.162876 409.79664,79.570277 405.53331,67.541567 C 404.93079,65.444918 402.19167,62.747895 400.24107,63.483366 z "
           style="opacity:1;fill:#000000;fill-opacity:1;fill-rule:evenodd;stroke:#000000;stroke-width:1;stroke-linecap:butt;stroke-miterlimit:4;stroke-dasharray:none;stroke-opacity:1"
           id="path6607" />
        <path
           d="M 398.83036,63.0625 C 326.07889,91.63349 242.50456,92.597637 169.23673,65.172231 C 167.06535,64.14425 167.00277,64.4918 166.3338,66.618107 C 162.54722,78.647844 158.71717,90.660539 154.8541,102.6659 C 153.93,104.84587 154.32814,104.94597 156.38582,105.69539 C 238.24439,135.318 330.70819,134.06685 412.18691,103.73135 C 414.36092,103.10252 414.25537,102.86226 413.41763,100.9229 C 408.42835,89.152724 405.79664,76.560125 401.53331,64.531415 C 400.93079,62.434766 400.78096,62.327029 398.83036,63.0625 z "
           style="opacity:1;fill:#cfcfcf;fill-opacity:1;fill-rule:evenodd;stroke:none;stroke-width:1;stroke-linecap:butt;stroke-miterlimit:4;stroke-dasharray:none;stroke-opacity:1"
           id="path4437" />
        <path
           d="M 280.84375,206.0625 C 263.67035,206.0625 247.79369,206.9745 234.78125,208.46875 L 234.78125,229.40625 C 235.19626,229.74611 236.17597,231.05553 236.79384,231.38136 C 249.4384,232.74668 264.49833,231.78125 280.84375,231.78125 C 298.01674,231.78125 315.76898,231.1683 328.78125,229.67411 L 328.78125,210.48718 L 326.90625,208.46875 C 313.89381,206.9745 298.01715,206.0625 280.84375,206.0625 z "
           style="opacity:1;fill:#ffffff;fill-opacity:1;fill-rule:evenodd;stroke:none;stroke-width:1;stroke-linecap:butt;stroke-miterlimit:4;stroke-dasharray:none;stroke-opacity:1"
           id="path6609" />
        <path
           d="M 284.84375,210.0625 C 267.67035,210.0625 251.79369,210.9745 238.78125,212.46875 L 236.82812,231.38004 L 238.78125,233.40625 C 251.79352,234.90044 267.67076,235.78125 284.84375,235.78125 C 302.01674,235.78125 317.89398,234.90044 330.90625,233.40625 L 330.90625,212.46875 C 330.27004,212.39569 329.4484,210.58295 328.79868,210.51272 C 316.15963,209.14643 301.17749,210.0625 284.84375,210.0625 z "
           style="opacity:1;fill:#000000;fill-opacity:1;fill-rule:evenodd;stroke:none;stroke-width:1;stroke-linecap:butt;stroke-miterlimit:4;stroke-dasharray:none;stroke-opacity:1"
           id="path6611" />
        <path
           d="M 282.84375,208.0625 C 265.67035,208.0625 249.79369,208.9745 236.78125,210.46875 L 236.78125,231.40625 C 249.79352,232.90044 265.67076,233.78125 282.84375,233.78125 C 300.01674,233.78125 315.89398,232.90044 328.90625,231.40625 L 328.90625,210.46875 C 315.89381,208.9745 300.01715,208.0625 282.84375,208.0625 z "
           style="opacity:1;fill:#cfcfcf;fill-opacity:1;fill-rule:evenodd;stroke:none;stroke-width:1;stroke-linecap:butt;stroke-miterlimit:4;stroke-dasharray:none;stroke-opacity:1"
           id="path4519" />
        <path
           d="M 281.84375,470.1875 C 268.03763,471.55118 261.19432,482.31766 258.15625,494.21875 C 253.90663,516.05343 254.08769,547.07086 258.9375,568.78125 C 262.12397,579.80421 268.4442,588.74455 280.625,591.4375 C 292.84436,592.15164 300.52291,583.89135 303.9375,573.75 C 311.62679,552.52009 309.60233,521.0455 307.46875,498.875 C 304.96273,485.73863 298.92217,474.00858 284.59375,470.3125 C 283.73656,470.26357 282.76017,470.08747 281.84375,470.1875 z "
           style="fill:#cfcfcf;fill-opacity:1;fill-rule:evenodd;stroke:#000000;stroke-width:1;stroke-linecap:butt;stroke-miterlimit:4;stroke-opacity:1"
           id="path6572" />
        <path
           d="M 263.55681,576.646 C 269.35508,585.17239 276.96705,591.06366 285.49554,589.80804 C 298.31441,585.94022 302.92207,573.65867 305.04464,563.04018 C 308.58368,547.00176 308.5187,531.8831 306.61364,515.50766 C 298.73295,535.06584 274.87101,549.87831 263.55681,576.646 z "
           style="fill:#ffffff;fill-opacity:1;fill-rule:evenodd;stroke:none;stroke-width:1;stroke-linecap:butt;stroke-miterlimit:4;stroke-opacity:1"
           id="path4619" />
        <path
           d="M 281.75,469.1875 C 274.51166,469.90246 269.08223,474.15286 265.15625,479.65625 C 261.23027,485.15964 258.72653,491.93989 257.1875,497.96875 L 257.1875,498 L 257.1875,498.03125 C 255.13538,508.57512 254.9298,519.28416 254.9579,530.09821 C 256.11196,518.87902 259.44441,501.98637 260.28123,499.27296 C 262.06237,493.49758 264.36854,487.07976 268.06375,481.89986 C 271.77048,476.70382 276.08401,473.208 282.65179,472.55928 C 287.2115,472.2009 291.51114,473.89494 295.40625,476.10714 C 292.89574,471.0861 286.89236,469.44111 281.75,469.1875 z "
           style="fill:#000000;fill-opacity:1;fill-rule:evenodd;stroke:none;stroke-width:2;stroke-linecap:butt;stroke-miterlimit:4;stroke-dasharray:none;stroke-opacity:1"
           id="path6580" />
        <path
           d="M 289.5,323.59375 C 288.65503,326.49166 287.43399,328.84859 285.59375,330.53125 C 283.75351,332.21391 281.25505,333.34402 277.375,333.59375 L 277.625,336.13393 C 282.01897,336.5539 285.07169,336.19611 288.3125,333.46875 C 292.02503,330.3444 291.56812,327.69537 291.73661,324.18304 L 289.5,323.59375 z "
           style="fill:#000000;fill-opacity:1;fill-rule:evenodd;stroke:none;stroke-width:4;stroke-linecap:butt;stroke-linejoin:miter;stroke-miterlimit:4;stroke-dasharray:none;stroke-opacity:1"
           id="path6739" />
      </g>
    </g>
  </g>
</svg>
