<?xml version="1.0" encoding="UTF-8" standalone="no"?>
<svg
   xmlns:dc="http://purl.org/dc/elements/1.1/"
   xmlns:cc="http://creativecommons.org/ns#"
   xmlns:rdf="http://www.w3.org/1999/02/22-rdf-syntax-ns#"
   xmlns:svg="http://www.w3.org/2000/svg"
   xmlns="http://www.w3.org/2000/svg"
   xmlns:sodipodi="http://sodipodi.sourceforge.net/DTD/sodipodi-0.dtd"
   xmlns:inkscape="http://www.inkscape.org/namespaces/inkscape"
   width="506.725"
   height="570.021"
   id="svg2816"
   version="1.1"
   inkscape:version="0.47 r22583"
   sodipodi:docname="Paltamo.vaakuna.svg">
  <metadata
     id="metadata3352">
    <rdf:RDF>
      <cc:Work
         rdf:about="">
        <dc:format>image/svg+xml</dc:format>
        <dc:type
           rdf:resource="http://purl.org/dc/dcmitype/StillImage" />
        <dc:title />
      </cc:Work>
    </rdf:RDF>
  </metadata>
  <sodipodi:namedview
     pagecolor="#ffffff"
     bordercolor="#666666"
     borderopacity="1"
     objecttolerance="10"
     gridtolerance="10"
     guidetolerance="10"
     inkscape:pageopacity="0"
     inkscape:pageshadow="2"
     inkscape:window-width="1280"
     inkscape:window-height="738"
     id="namedview3350"
     showgrid="false"
     inkscape:zoom="0.41401984"
     inkscape:cx="253.3625"
     inkscape:cy="285.0105"
     inkscape:window-x="-8"
     inkscape:window-y="-8"
     inkscape:window-maximized="1"
     inkscape:current-layer="g2826" />
  <defs
     id="defs2818">
    <inkscape:perspective
       sodipodi:type="inkscape:persp3d"
       inkscape:vp_x="0 : 285.0105 : 1"
       inkscape:vp_y="0 : 1000 : 0"
       inkscape:vp_z="506.72501 : 285.0105 : 1"
       inkscape:persp3d-origin="253.3625 : 190.007 : 1"
       id="perspective3354" />
    <marker
       id="ArrowEnd"
       viewBox="0 0 10 10"
       refX="0"
       refY="5"
       markerUnits="strokeWidth"
       markerWidth="4"
       markerHeight="3"
       orient="auto">
      <path
         d="M 0 0 L 10 5 L 0 10 z"
         id="path2821" />
    </marker>
    <marker
       id="ArrowStart"
       viewBox="0 0 10 10"
       refX="10"
       refY="5"
       markerUnits="strokeWidth"
       markerWidth="4"
       markerHeight="3"
       orient="auto">
      <path
         d="M 10 0 L 0 5 L 10 10 z"
         id="path2824" />
    </marker>
  </defs>
  <g
     id="g2826">
    <path
       id="path2830"
       d="M 3.71445,3.83527 503.01,3.71445 488.563,347.644 C 460.862,638.256 51.1846,640.241 18.1516,347.314 L 3.71445,3.83527 z"
       style="fill:#bf9f4f;stroke:#000000;stroke-width:0.70899999999999996;stroke-miterlimit:4;stroke-dasharray:none;fill-opacity:1" />
    <path
       id="path2832"
       d="m 22.0379,206.275 10.9306,2.429 1.8274,8.997 c 23.2791,6.828 45.6013,11.565 68.8801,15.153 l 5.221,15.91 29.742,5.141 4.901,-14.572 5.414,0.683 1.821,-16.299 3.036,0.183 c 1.513,-1.934 3.026,-1.843 4.539,0.272 l 2.741,0.165 c 1.226,-2.736 4.072,-2.639 4.895,0.294 l 8.755,0.526 c 2.531,-3.488 5.163,-5.757 8.507,0.51 l 8.81,0.529 c 1.764,-3.112 3.78,-4.2 6.354,-0.832 2.028,-2.712 4.057,-2.186 6.087,1.58 2.63,-0.124 4.046,0.158 4.248,0.844 l 1.178,15.525 9.545,0.357 0.187,-15.396 c 0.917,-1.065 2.238,-1.32 3.965,-0.765 1.324,-4.543 3.154,-4.735 6.099,-1.181 2.83,-2.819 5.255,-2.399 7.276,1.259 l 9.434,-0.374 c 0.607,-5.056 6.072,-5.455 7.287,-0.288 l 6.985,-0.277 c 1.211,-4.537 3.029,-5.026 6.67,-1.466 2.526,-3.327 4.648,-3.01 6.366,0.95 l 3.957,-0.156 0.946,16.797 13.272,-0.107 -0.38,-14.513 4.989,-1.036 c 1.516,-4.457 3.438,-4.867 5.764,-1.228 2.125,-2.839 4.25,-2.439 6.376,1.2 l 9.11,-0.089 c 0.604,-4.792 5.359,-7.049 6.375,-0.666 l 8.192,0.114 c 1.111,-3.625 2.526,-6.336 6.076,-2.645 3.44,-2.703 5.666,-2.066 6.678,2.518 1.472,-0.08 3.955,-0.058 4.719,0.369 l 1.248,15.233 3.138,-0.539 3.722,15.33 27.113,-3.156 7.129,-15.298 c 26.717,-2.889 59.204,-7.398 80.456,-13.828 l 1.792,-9.729 10.964,-0.534 c -13.157,52.426 -43.925,94.934 -126.917,98.376 l -207.423,0 C 64.9535,307.557 33.6744,257.271 22.0379,206.275 z"
       style="fill:#000000;stroke:#000000;stroke-width:0.99225003" />
    <path
       id="path2834"
       d="m 36.612,232.994 -6.8318,-3.188 0.4556,-3.188 c 14.9663,7.236 33.7147,13.309 59.2076,17.307 l 0,1.518 c -16.371,-1.898 -33.2225,-6.2 -50.4024,-12.145 2.0231,4.453 4.1471,8.906 6.9835,13.359 50.7116,23.171 88.4505,28.952 143.0095,32.488 -44.302,-0.139 -90.1986,-5.599 -141.795,-30.059 3.3396,6.073 7.4892,12.145 12.4488,18.218 34.6513,12.891 67.9742,20.912 100.1972,24.898 -26.843,-1.845 -57.863,-7.461 -99.2863,-23.076 15.8771,17.231 40.1923,29.325 74.6923,35.221 -53.5909,-6.022 -80.8162,-29.503 -98.679,-71.353 z"
       style="fill:#b2b2b2;stroke:#000000;stroke-width:0.99225003" />
    <path
       id="path2836"
       d="m 104.018,297.06 c -7.3885,-2.176 -11.1338,-4.909 -18.5218,-7.895 5.8702,3.441 5.3641,4.453 18.5218,7.895 z"
       style="fill:#ffffff;stroke:#000000;stroke-width:0.99225003" />
    <path
       id="path2838"
       d="m 92.7833,265.179 c -8.3026,-1.262 -16.9091,-3.993 -22.7721,-8.502 5.8701,3.441 9.6149,4.453 22.7721,8.502 z"
       style="fill:#ffffff;stroke:#000000;stroke-width:0.99225003" />
    <path
       id="path2840"
       d="m 102.196,282.182 c -7.3882,-2.176 -14.7771,-3.998 -22.1651,-6.984 5.8701,3.441 9.0076,3.543 22.1651,6.984 z"
       style="fill:#ffffff;stroke:#000000;stroke-width:0.99225003" />
    <path
       id="path2842"
       d="m 254.921,305.561 -34.614,-0.303 c 11.538,1.998 23.076,2.352 34.614,0.303 z"
       style="fill:#b2b2b2;stroke:#000000;stroke-width:0.21602701" />
    <path
       id="path2844"
       d="m 261.297,295.238 c -14.524,-1.165 -28.086,-1.367 -40.99,-0.911 11.93,1.214 29.869,2.124 40.99,0.911 z"
       style="fill:#b2b2b2;stroke:#000000;stroke-width:0.21602701" />
    <path
       id="path2846"
       d="m 263.119,281.878 c -17.56,-0.557 -37.802,-3.795 -45.544,-1.518 11.929,1.214 34.422,2.731 45.544,1.518 z"
       style="fill:#b2b2b2;stroke:#000000;stroke-width:0.21602701" />
    <path
       id="path2848"
       d="m 407.039,249.997 c 27.023,-3.466 51.718,-8.678 72.263,-17.003 l -1.214,-0.911 c -17.456,6.301 -42.051,11.412 -69.227,16.092 l -1.822,1.822 z"
       style="fill:#b2b2b2;stroke:#000000;stroke-width:0.21602701" />
    <path
       id="path2850"
       d="m 453.798,252.426 c -14.069,6.224 -31.78,11.285 -47.67,16.092 l 3.643,0 c 17.637,-3.554 34.598,-10.91 44.027,-16.092 z"
       style="fill:#b2b2b2;stroke:#000000;stroke-width:0.21602701" />
    <path
       id="path2852"
       d="m 430.115,275.502 -39.776,11.538 c 13.259,-2.935 20.748,-1.316 39.776,-11.538 z"
       style="fill:#b2b2b2;stroke:#000000;stroke-width:0.21602701" />
    <path
       id="path2854"
       d="m 138.935,252.426 c 11.74,2.075 23.48,3.491 35.221,3.947 l -0.304,1.822 c -11.639,-0.405 -23.278,-1.923 -34.917,-3.947 l 0,-1.822 z"
       style="fill:#b2b2b2;stroke:#000000;stroke-width:0.21602701" />
    <path
       id="path2856"
       d="m 252.978,259.02 c 29.355,1.67 62.301,-1.265 64.369,-1.215 l -0.304,1.822 c -5.842,0.178 -47.694,3.163 -64.065,0.911 l 0,-1.518 z"
       style="fill:#b2b2b2;stroke:#000000;stroke-width:0.21602701" />
    <path
       id="path2858"
       d="m 183.051,257.502 c 22.903,3.391 56.002,2.986 63.762,1.518 l -0.304,1.822 c -7.993,1.038 -48.984,1.189 -63.458,-1.822 l 0,-1.518 z"
       style="fill:#b2b2b2;stroke:#000000;stroke-width:0.21602701" />
    <path
       id="path2860"
       d="m 324.331,257.805 c 14.052,-0.095 22.883,-0.675 34.006,-2.732 l -0.304,1.821 c -7.907,1.697 -22.433,2.966 -33.702,2.429 l 0,-1.518 z"
       style="fill:#b2b2b2;stroke:#000000;stroke-width:0.21602701" />
    <path
       id="path2862"
       d="m 148.955,238.763 c 12.261,1.796 17.382,2.18 26.415,1.822 l -0.303,1.821 c -8.08,0.142 -12.887,-0.344 -26.112,-1.821 l 0,-1.822 z"
       style="fill:#b2b2b2;stroke:#000000;stroke-width:0.21602701" />
    <path
       id="path2864"
       d="m 182.354,240.888 c 13.491,1.614 19.978,1.629 26.415,1.215 l 2.156,1.822 c -9.719,0.278 -14.663,0.399 -28.571,-1.215 l 0,-1.822 z"
       style="fill:#b2b2b2;stroke:#000000;stroke-width:0.21602701" />
    <path
       id="path2866"
       d="m 225.469,242.406 c 7.085,0.951 13.358,0.552 21.254,0.608 l -0.304,1.821 c -9.992,-0.405 -12.067,0.81 -26.112,-1.214 l 5.162,-1.215 z"
       style="fill:#b2b2b2;stroke:#000000;stroke-width:0.21602701" />
    <path
       id="path2868"
       d="m 256.135,242.406 c 7.085,0.951 15.181,0.552 23.076,0.608 l -0.303,1.214 c -9.993,-0.405 -12.067,1.417 -26.112,-0.607 l 3.339,-1.215 z"
       style="fill:#b2b2b2;stroke:#000000;stroke-width:0.21602701" />
    <path
       id="path2870"
       d="m 296.822,241.192 c 7.388,0.343 13.358,-0.055 21.254,0 l -0.304,1.518 c -9.993,0.803 -15.711,1.585 -26.112,0.304 l 5.162,-1.822 z"
       style="fill:#b2b2b2;stroke:#000000;stroke-width:0.21602701" />
    <path
       id="path2872"
       d="m 329.31,239.765 c 7.798,1.877 13.358,0.461 21.254,0.516 l -0.304,1.822 c -8.558,0.84 -16.781,0.803 -27.023,0 l 6.073,-2.338 z"
       style="fill:#b2b2b2;stroke:#000000;stroke-width:0.21602701" />
    <path
       id="path2874"
       d="m 193.482,241.966 c -0.102,-8.906 -0.502,-14.033 1.017,-15.652 l 0.486,-2.733 c -3.629,1.452 -2.819,8.304 -2.915,18.324 l 1.412,0.061 z"
       style="fill:#b2b2b2;stroke:#000000;stroke-width:0.21602701" />
    <path
       id="path2876"
       d="m 198.947,242.71 c -0.101,-8.906 -1.185,-15.946 2.11,-17.018 l -0.334,-2.323 c -4.317,0.858 -3.505,8.44 -3.188,18.734 l 1.412,0.607 z"
       style="fill:#b2b2b2;stroke:#000000;stroke-width:0.21602701" />
    <path
       id="path2878"
       d="m 193.371,231.905 c 0.056,-2.881 0.321,-4.731 1.128,-5.591 l 0.486,-2.733 c -1.815,0.726 -2.519,2.803 -2.782,5.949 l 1.168,2.375 z"
       style="fill:#ffffff;stroke:#000000;stroke-width:0.21602701" />
    <path
       id="path2880"
       d="m 198.729,231.263 c 0.128,-3.007 0.681,-5.035 2.328,-5.571 l -0.334,-2.323 c -2.293,0.456 -3.139,2.809 -3.38,6.459 l 1.386,1.435 z"
       style="fill:#ffffff;stroke:#000000;stroke-width:0.21602701" />
    <path
       id="path2882"
       d="m 226.277,242.649 c -0.364,-7.742 -1.242,-14.646 1.017,-17.155 l -0.197,-1.639 c -4.449,0.358 -3.092,14.453 -2.232,18.734 l 1.412,0.06 z"
       style="fill:#b2b2b2;stroke:#000000;stroke-width:0.21602701" />
    <path
       id="path2884"
       d="m 225.825,231.013 c 0.093,-2.482 0.481,-4.421 1.469,-5.519 l -0.197,-1.639 c -1.738,0.14 -2.59,2.376 -2.932,5.304 l 1.66,1.854 z"
       style="fill:#ffffff;stroke:#000000;stroke-width:0.21602701" />
    <path
       id="path2886"
       d="m 231.47,243.469 c 0.131,-8.906 0.01,-14.032 1.017,-15.652 l -0.334,-1.503 c -2.263,1.179 -1.999,7.075 -2.095,17.095 l 1.412,0.06 z"
       style="fill:#b2b2b2;stroke:#000000;stroke-width:0.21602701" />
    <path
       id="path2888"
       d="m 231.831,230.372 c 0.137,-1.2 0.341,-2.049 0.656,-2.555 l -0.334,-1.503 c -0.919,0.479 -1.421,1.737 -1.7,3.733 l 1.378,0.325 z"
       style="fill:#ffffff;stroke:#000000;stroke-width:0.21602701" />
    <path
       id="path2890"
       d="m 262.762,243.469 c -0.364,-7.742 -0.832,-16.696 1.427,-19.205 l -0.198,-1.639 c -4.448,0.359 -3.502,16.503 -2.641,20.784 l 1.412,0.06 z"
       style="fill:#b2b2b2;stroke:#000000;stroke-width:0.21602701" />
    <path
       id="path2892"
       d="m 262.867,227.74 c 0.267,-1.555 0.686,-2.77 1.322,-3.476 l -0.198,-1.639 c -1.32,0.106 -2.165,1.604 -2.678,3.77 l 1.554,1.345 z"
       style="fill:#ffffff;stroke:#000000;stroke-width:0.21602701" />
    <path
       id="path2894"
       d="m 269.184,243.333 c -0.147,-7.124 -1.73,-14.99 -0.622,-17.429 l -0.334,-1.503 c -2.652,1.276 -1.525,9.143 -0.456,18.871 l 1.412,0.061 z"
       style="fill:#b2b2b2;stroke:#000000;stroke-width:0.21602701" />
    <path
       id="path2896"
       d="m 268.195,227.808 c 0.046,-0.799 0.159,-1.447 0.367,-1.904 l -0.334,-1.503 c -0.829,0.399 -1.289,1.441 -1.496,2.983 l 1.463,0.424 z"
       style="fill:#ffffff;stroke:#000000;stroke-width:0.21602701" />
    <path
       id="path2898"
       d="m 298.427,241.966 c -0.147,-7.124 -1.321,-14.853 0.197,-16.335 l -0.334,-1.503 c -2.651,1.276 -2.072,7.913 -1.002,17.641 l 1.139,0.197 z"
       style="fill:#b2b2b2;stroke:#000000;stroke-width:0.21602701" />
    <path
       id="path2900"
       d="m 297.866,230.59 c -0.055,-2.467 0.094,-4.311 0.758,-4.959 l -0.334,-1.503 c -1.118,0.449 -1.662,1.901 -1.836,4.171 l 1.412,2.291 z"
       style="fill:#ffffff;stroke:#000000;stroke-width:0.21602701" />
    <path
       id="path2902"
       d="m 303.756,242.103 c -0.364,-7.743 -0.696,-14.236 1.564,-16.745 l -0.198,-1.64 c -4.061,-0.609 -3.296,13.189 -2.778,18.324 l 1.412,0.061 z"
       style="fill:#b2b2b2;stroke:#000000;stroke-width:0.21602701" />
    <path
       id="path2904"
       d="m 303.804,229.247 c 0.268,-1.694 0.739,-3.027 1.516,-3.889 l -0.198,-1.64 c -1.396,-0.209 -2.222,1.284 -2.683,3.542 l 1.365,1.987 z"
       style="fill:#ffffff;stroke:#000000;stroke-width:0.21602701" />
    <path
       id="path2906"
       d="m 335.595,241.42 c -0.147,-7.124 -1.321,-15.127 0.197,-16.609 l -0.881,-2.049 c -2.651,1.275 -1.798,8.732 -0.455,18.46 l 1.139,0.198 z"
       style="fill:#b2b2b2;stroke:#000000;stroke-width:0.21602701" />
    <path
       id="path2908"
       d="m 335.026,229.35 c -0.023,-2.259 0.149,-3.937 0.766,-4.539 0.435,-0.865 0.141,-1.548 -0.881,-2.049 -1.325,0.637 -1.775,2.821 -1.725,6.061 l 1.84,0.527 z"
       style="fill:#ffffff;stroke:#000000;stroke-width:0.21602701" />
    <path
       id="path2910"
       d="m 340.65,241.42 c -0.146,-7.124 -1.32,-15.127 0.198,-16.609 0.617,-1.23 0.323,-1.912 -0.881,-2.049 -2.651,1.275 -1.798,8.732 -0.455,18.46 l 1.138,0.198 z"
       style="fill:#b2b2b2;stroke:#000000;stroke-width:0.21602701" />
    <path
       id="path2912"
       d="m 340.1,227.885 c 0.062,-1.511 0.273,-2.611 0.748,-3.074 0.617,-1.23 0.323,-1.912 -0.881,-2.049 -0.994,0.478 -1.495,1.826 -1.663,3.836 l 1.796,1.287 z"
       style="fill:#ffffff;stroke:#000000;stroke-width:0.21602701" />
    <path
       id="path2914"
       d="m 154.127,239.78 c -0.101,-8.907 0.319,-13.35 1.837,-14.969 l 0.486,-2.733 c -3.628,1.452 -3.638,7.621 -3.735,17.641 l 1.412,0.061 z"
       style="fill:#b2b2b2;stroke:#000000;stroke-width:0.21602701" />
    <path
       id="path2916"
       d="m 155.222,226.031 c 0.211,-0.514 0.458,-0.916 0.742,-1.22 l 0.486,-2.733 c -0.907,0.363 -1.588,1.021 -2.1,1.96 l 0.872,1.993 z"
       style="fill:#ffffff;stroke:#000000;stroke-width:0.21602701" />
    <path
       id="path2918"
       d="m 160.276,241.01 c 0.104,-7.768 0.252,-10.343 1.154,-12.373 l 0.35,-4.509 c -2.463,0.578 -2.43,6.509 -2.915,16.821 l 1.411,0.061 z"
       style="fill:#b2b2b2;stroke:#000000;stroke-width:0.21602701" />
    <path
       id="path2920"
       d="m 160.997,229.867 c 0.121,-0.45 0.264,-0.849 0.433,-1.23 l 0.35,-4.509 c -0.693,0.162 -1.188,0.748 -1.553,1.736 l 0.77,4.003 z"
       style="fill:#ffffff;stroke:#000000;stroke-width:0.21602701" />
    <path
       id="path2922"
       d="m 95.1655,245.559 c 4.7821,1.047 9.3365,1.867 13.3915,2.187 l 0,1.776 c -4.874,-0.774 -9.2013,-1.731 -12.9815,-2.87 l -0.41,-1.093 z"
       style="fill:#b2b2b2;stroke:#000000;stroke-width:0.21602701" />
    <path
       id="path2924"
       d="m 93.2525,239.41 c 0.9109,-1.002 0.9109,-1.822 0,-2.46 -4.2585,0.502 -5.0778,5.83 -3.1429,16.535 1.2755,2.596 2.8239,2.733 5.0559,2.869 l 0.41,-1.913 c -2.0046,0.137 -3.2793,-0.638 -3.8261,-2.323 -1.3776,-6.115 -1.1267,-10.601 1.5031,-12.708 z"
       style="fill:#b2b2b2;stroke:#000000;stroke-width:0.21602701" />
    <path
       id="path2926"
       d="m 91.7494,239.547 3.5528,4.919 c -1.5938,0.456 -4.0078,-2.004 -3.5528,-4.919 z"
       style="fill:#b2b2b2;stroke:#000000;stroke-width:0.21602701" />
    <path
       id="path2928"
       d="m 93.2525,239.41 0,-2.46 c -3.0607,0.361 -4.3446,3.215 -4.1065,8.766 l 2.1121,-2.972 c 0.3563,-1.419 1.0084,-2.544 1.9944,-3.334 z"
       style="fill:#ffffff;stroke:#000000;stroke-width:0.21602701" />
    <path
       id="path2930"
       d="m 90.5195,243.646 4.2361,5.466 c -1.5938,0.456 -4.6911,-2.551 -4.2361,-5.466 z"
       style="fill:#b2b2b2;stroke:#000000;stroke-width:0.21602701" />
    <path
       id="path2932"
       d="m 90.7928,248.702 4.2361,3.553 c -1.7815,1.019 -4.8674,-0.108 -4.2361,-3.553 z"
       style="fill:#b2b2b2;stroke:#000000;stroke-width:0.21602701" />
    <path
       id="path2934"
       d="m 179.204,224.224 c 1.354,-0.26 -0.104,-2.082 -1.094,-1.718 -2.506,-0.074 -3.313,7.998 -3.291,17.939 0.026,11.335 -1.98,22.589 -0.302,27.518 1.198,4.217 5.26,4.321 6.561,0.781 -2.812,1.354 -4.374,0.416 -4.686,-2.812 l 1.093,-37.334 c -0.468,-1.666 0.105,-3.124 1.719,-4.374 z"
       style="fill:#b2b2b2;stroke:#000000;stroke-width:0.21602701" />
    <path
       id="path2936"
       d="m 252.291,226.255 c -0.677,-6.04 -7.295,-1.129 -6.405,6.248 0.256,2.122 0.281,-1.686 0.302,8.254 0.024,11.334 -0.105,23.214 1.573,28.143 1.041,5.467 4.166,5.571 5.78,2.031 -2.5,2.447 -4.374,-2.083 -4.687,-5.311 -0.156,-12.185 -1.406,-31.867 -0.468,-36.553 0.312,-2.76 1.197,-4.999 3.905,-2.812 z"
       style="fill:#b2b2b2;stroke:#000000;stroke-width:0.21602701" />
    <path
       id="path2938"
       d="m 323.222,228.911 c 1.354,-0.261 -1.823,-5.676 -2.812,-5.311 -2.506,-0.075 -2.531,6.592 -2.51,16.532 0.025,11.335 -0.262,23.371 1.417,28.299 1.197,4.218 4.946,6.509 6.248,2.968 -2.812,1.354 -4.843,-2.239 -5.155,-5.467 l -0.469,-34.366 c -0.468,-1.666 -0.364,-7.498 3.281,-2.655 z"
       style="fill:#b2b2b2;stroke:#000000;stroke-width:0.21602701" />
    <path
       id="path2940"
       d="m 179.204,224.224 c 1.354,-0.26 -0.104,-2.082 -1.094,-1.718 -4.426,-0.154 -0.665,22.966 -4.028,33.557 -0.257,4.167 -0.384,7.778 0.056,10.352 2.187,-3.179 -0.752,-10.272 2.588,-11.886 l 0.759,-25.931 c -0.468,-1.666 0.105,-3.124 1.719,-4.374 z"
       style="fill:#ffffff;stroke:#000000;stroke-width:0.21602701" />
    <path
       id="path2942"
       d="m 178.024,226.619 4.236,5.466 c -1.594,0.456 -4.691,-2.55 -4.236,-5.466 z"
       style="fill:#b2b2b2;stroke:#000000;stroke-width:0.21602701" />
    <path
       id="path2944"
       d="m 177.868,232.712 4.236,5.465 c -1.594,0.456 -4.691,-2.55 -4.236,-5.465 z"
       style="fill:#b2b2b2;stroke:#000000;stroke-width:0.21602701" />
    <path
       id="path2946"
       d="m 177.087,240.834 c 1.724,1.822 3.292,4.738 5.173,5.466 -1.594,1.706 -5.628,-2.55 -5.173,-5.466 z"
       style="fill:#b2b2b2;stroke:#000000;stroke-width:0.21602701" />
    <path
       id="path2948"
       d="m 177.243,248.957 c 1.724,1.822 2.824,4.738 4.704,5.466 -1.593,1.705 -5.159,-2.551 -4.704,-5.466 z"
       style="fill:#b2b2b2;stroke:#000000;stroke-width:0.21602701" />
    <path
       id="path2950"
       d="m 176.462,255.518 c 1.724,1.822 2.98,4.581 4.861,5.31 -1.907,3.111 -5.316,-2.395 -4.861,-5.31 z"
       style="fill:#b2b2b2;stroke:#000000;stroke-width:0.21602701" />
    <path
       id="path2952"
       d="m 175.681,261.298 c 1.724,1.822 2.824,4.737 4.704,5.466 -1.593,1.705 -5.159,-2.551 -4.704,-5.466 z"
       style="fill:#b2b2b2;stroke:#000000;stroke-width:0.21602701" />
    <path
       id="path2954"
       d="m 248.527,253.803 c 0.148,4.202 0.283,8.319 0.327,11.817 l -1.634,1.159 c -0.673,-3.48 -0.901,-8.674 -0.981,-14.445 0.763,0.49 2.307,0.198 2.288,1.469 z m -0.231,-6.597 c -0.272,-8.122 -0.437,-15.503 0.09,-18.139 0.156,-1.38 0.455,-2.63 1.054,-3.261 l 0.293,-2.173 c -2.027,0.612 -4.403,4.26 -3.847,8.87 0.256,2.121 0.281,-1.686 0.302,8.254 0.006,2.833 0.003,5.701 0.02,8.486 l 0.79,-0.338 1.298,-1.699 z"
       style="fill:#ffffff;stroke:#000000;stroke-width:0.21602701" />
    <path
       id="path2956"
       d="m 247.791,239.152 c 1.591,0.831 3.331,2.438 4.773,2.492 -0.681,1.525 -4.402,-0.413 -4.773,-2.492 z"
       style="fill:#b2b2b2;stroke:#000000;stroke-width:0.21602701" />
    <path
       id="path2958"
       d="m 247.526,250.676 c 1.724,1.822 2.98,4.581 4.861,5.309 -1.907,3.111 -5.316,-2.394 -4.861,-5.309 z"
       style="fill:#b2b2b2;stroke:#000000;stroke-width:0.21602701" />
    <path
       id="path2960"
       d="m 247.691,232.128 c 1.383,1.144 2.751,3.078 4.15,3.431 -0.983,1.35 -4.219,-1.321 -4.15,-3.431 z"
       style="fill:#b2b2b2;stroke:#000000;stroke-width:0.21602701" />
    <path
       id="path2962"
       d="m 248.837,226.806 c 1.264,1.275 2.433,3.335 3.79,3.825 -1.112,1.246 -4.067,-1.732 -3.79,-3.825 z"
       style="fill:#b2b2b2;stroke:#000000;stroke-width:0.21602701" />
    <path
       id="path2964"
       d="m 247.994,247.083 c 1.725,1.822 4.855,1.769 4.705,4.372 -1.906,-1.263 -5.003,-2.707 -4.705,-4.372 z"
       style="fill:#b2b2b2;stroke:#000000;stroke-width:0.21602701" />
    <path
       id="path2966"
       d="m 248.619,260.204 c 1.725,1.822 4.855,1.77 4.705,4.373 -1.906,-1.263 -5.004,-2.707 -4.705,-4.373 z"
       style="fill:#b2b2b2;stroke:#000000;stroke-width:0.21602701" />
    <path
       id="path2968"
       d="m 248.472,265.557 c 1.383,1.143 2.751,3.077 4.15,3.43 -0.983,1.35 -4.219,-1.32 -4.15,-3.43 z"
       style="fill:#b2b2b2;stroke:#000000;stroke-width:0.21602701" />
    <path
       id="path2970"
       d="m 320.41,265.932 -0.126,-9.215 -1.274,-6.874 -1.108,0.882 c 0.036,7.57 0.261,14.318 1.415,17.706 l 1.093,-2.499 m -0.469,-34.366 c -0.109,-0.39 -0.188,-1.01 -0.196,-1.667 -0.014,-1.095 0.164,-2.296 0.714,-2.716 l 0.998,-2.944 c -0.415,-0.46 -0.8,-0.73 -1.047,-0.639 -1.801,-0.054 -2.321,3.375 -2.462,8.999 l 1.993,-1.033 z m -1.556,2.343 -0.478,1.304 c -0.013,1.526 -0.01,3.172 -0.007,4.919 0.004,1.992 -10e-4,4.006 -0.003,6 l 1.113,-1.444 0,-9.841 -0.625,-0.938 z"
       style="fill:#ffffff;stroke:#000000;stroke-width:0.21602701" />
    <path
       id="path2972"
       d="m 319.876,229.01 c 1.183,1.349 2.225,3.477 3.549,4.049 -1.186,1.175 -3.954,-1.978 -3.549,-4.049 z"
       style="fill:#b2b2b2;stroke:#000000;stroke-width:0.21602701" />
    <path
       id="path2974"
       d="m 319.72,234.321 c 1.183,1.349 2.225,3.477 3.549,4.049 -1.186,1.175 -3.954,-1.977 -3.549,-4.049 z"
       style="fill:#b2b2b2;stroke:#000000;stroke-width:0.21602701" />
    <path
       id="path2976"
       d="m 319.407,240.725 c 1.184,1.35 2.225,3.477 3.55,4.049 -1.186,1.176 -3.954,-1.977 -3.55,-4.049 z"
       style="fill:#b2b2b2;stroke:#000000;stroke-width:0.21602701" />
    <path
       id="path2978"
       d="m 319.876,246.661 c 1.183,1.35 2.225,3.477 3.549,4.049 -1.186,1.176 -3.954,-1.977 -3.549,-4.049 z"
       style="fill:#b2b2b2;stroke:#000000;stroke-width:0.21602701" />
    <path
       id="path2980"
       d="m 319.72,252.753 c 1.183,1.35 2.225,3.477 3.549,4.049 -1.186,1.176 -3.954,-1.977 -3.549,-4.049 z"
       style="fill:#b2b2b2;stroke:#000000;stroke-width:0.21602701" />
    <path
       id="path2982"
       d="m 320.345,259.47 c 1.183,1.35 2.225,3.477 3.549,4.049 -1.186,1.176 -3.954,-1.977 -3.549,-4.049 z"
       style="fill:#b2b2b2;stroke:#000000;stroke-width:0.21602701" />
    <path
       id="path2984"
       d="m 320.813,264.313 c 1.184,1.35 2.225,3.477 3.55,4.049 -1.186,1.175 -3.955,-1.977 -3.55,-4.049 z"
       style="fill:#b2b2b2;stroke:#000000;stroke-width:0.21602701" />
    <path
       id="path2986"
       d="m 404.668,245.286 c 0.91,-1.002 0.364,-1.685 -0.547,-2.323 -2.892,0.365 -3.575,3.643 -1.64,14.348 1.276,2.596 2.824,2.733 5.056,2.869 l 0.41,-1.913 c -2.004,0.137 -3.279,-0.638 -3.826,-2.323 -0.653,-6.115 -1.704,-8.552 0.547,-10.658 z"
       style="fill:#b2b2b2;stroke:#00ff00;stroke-width:0.21602701" />
    <path
       id="path2988"
       d="m 404.668,245.286 c 0.91,-1.002 0.364,-1.685 -0.547,-2.323 -1.446,0.182 -2.34,1.093 -2.63,3.296 0.21,3.663 2.542,5.247 1.815,2.852 -0.063,-1.636 0.237,-2.772 1.362,-3.825 z"
       style="fill:#ffffff;stroke:#00ff00;stroke-width:0.21602701" />
    <path
       id="path2990"
       d="m 403.641,248.028 c 1.183,1.349 2.225,3.477 3.549,4.049 -1.186,1.175 -3.954,-1.978 -3.549,-4.049 z"
       style="fill:#b2b2b2;stroke:#000000;stroke-width:0.21602701" />
    <path
       id="path2992"
       d="m 403.914,252.127 c 1.183,1.35 3.865,3.34 4.369,4.322 -1.186,1.176 -4.774,-2.25 -4.369,-4.322 z"
       style="fill:#b2b2b2;stroke:#000000;stroke-width:0.21602701" />
    <path
       id="path2994"
       d="m 404.461,244.748 c 1.183,1.35 1.405,1.974 2.729,2.546 -1.186,1.176 -3.134,-0.474 -2.729,-2.546 z"
       style="fill:#b2b2b2;stroke:#000000;stroke-width:0.21602701" />
    <path
       id="path2996"
       d="m 385.958,251.793 c 5.763,-0.187 10.357,-0.493 15.559,-1.64 l -0.577,1.685 c -2.851,0.877 -8.085,1.736 -15.255,1.61 l 0.273,-1.655 z"
       style="fill:#b2b2b2;stroke:#000000;stroke-width:0.21602701" />
    <path
       id="path2998"
       d="m 472.729,223.507 c 3.576,0.086 6.804,-0.22 10.503,-1.093 l -0.577,1.685 c -2.305,0.876 -6.035,1.189 -10.199,1.063 l 0.273,-1.655 z"
       style="fill:#b2b2b2;stroke:#000000;stroke-width:0.21602701" />
    <path
       id="path3000"
       d="m 24.514,213.139 c 2.5947,0.345 6.1523,1.685 9.8411,2.599 l 1.4496,3.012 c -2.4506,-0.275 -7.688,-1.701 -11.3338,-3.717 l 0.0431,-1.894 z"
       style="fill:#b2b2b2;stroke:#000000;stroke-width:0.21602701" />
    <path
       id="path3002"
       d="m 24.514,213.139 c 2.5947,0.345 6.1523,1.685 9.8411,2.599 l 0.622,1.293 c -0.7331,-0.184 -11.8024,-3.248 -10.4858,-2.905 l 0.0227,-0.987 z"
       style="fill:#ffffff;stroke:#000000;stroke-width:0.21602701" />
    <path
       id="path3004"
       d="m 16.7259,55.0557 11.143,2.4291 1.8629,8.9977 C 53.4631,73.31 82.2916,78.9579 106.023,82.5464 l 5.322,15.9098 24.247,4.2298 4.996,-14.5722 5.52,0.6835 1.856,-16.2989 3.095,0.1822 c 1.543,-1.9334 3.085,-1.843 4.627,0.2725 l 2.794,0.1647 c 1.25,-2.7361 4.152,-2.6382 4.99,0.294 l 8.926,0.5259 c 2.58,-3.4879 5.263,-5.7565 8.672,0.5109 l 8.981,0.529 c 1.798,-3.1123 3.853,-4.2001 6.477,-0.833 2.068,-2.7119 4.137,-2.1852 6.205,1.5803 2.681,-0.1236 4.125,0.1579 4.331,0.8445 l 1.201,15.5251 9.73,0.3569 0.191,-15.3966 c 0.935,-1.0649 2.282,-1.3197 4.042,-0.7643 1.35,-4.5437 3.216,-4.7351 6.218,-1.1811 2.884,-2.8191 5.357,-2.3995 7.417,1.2587 l 9.617,-0.3736 c 0.619,-5.056 6.19,-5.4557 7.429,-0.2886 l 7.12,-0.2764 c 1.235,-4.5375 3.088,-5.0265 6.8,-1.4666 2.575,-3.3269 4.738,-3.0102 6.489,0.9506 l 4.035,-0.1565 0.964,16.7974 13.529,-0.1075 -0.387,-14.5123 5.086,-1.0362 c 1.546,-4.4578 3.505,-4.8671 5.876,-1.2281 2.167,-2.8393 4.333,-2.4393 6.5,1.1997 l 9.287,-0.0884 c 0.616,-4.7923 5.463,-7.0493 6.499,-0.6662 l 8.351,0.1133 c 1.132,-3.6245 2.575,-6.3356 6.194,-2.6442 3.507,-2.7034 5.776,-2.0667 6.808,2.5175 1.5,-0.0796 4.032,-0.0578 4.81,0.3691 l 1.272,15.2325 3.2,-0.5381 3.794,15.3295 27.64,-3.156 7.267,-15.2982 c 27.236,-2.8892 60.354,-7.3977 82.02,-13.828 l 1.826,-9.7286 11.177,-0.5341 C 475.651,115.377 444.286,157.885 359.682,161.326 l -211.453,0 C 60.4753,156.338 28.5885,106.052 16.7259,55.0557 z"
       style="fill:#000000;stroke:#000000;stroke-width:0.99225003" />
    <path
       id="path3006"
       d="m 31.5832,81.7751 -6.9645,-3.1883 0.4645,-3.188 c 15.2569,7.2367 34.3696,13.309 60.3577,17.3069 l 0,1.5181 C 68.7519,92.3261 51.573,88.0242 34.0594,82.0787 c 2.0624,4.4529 4.2276,8.9061 7.1192,13.3596 51.6967,23.1707 90.1684,28.9517 145.7874,32.4887 -45.162,-0.14 -91.9506,-5.6 -144.5493,-30.0596 3.4045,6.0726 7.6347,12.1446 12.6906,18.2176 35.3244,12.891 69.2947,20.912 102.1437,24.898 -27.365,-1.845 -58.9874,-7.461 -101.2152,-23.076 16.1856,17.231 40.9732,29.325 76.1432,35.221 C 77.5472,147.106 49.793,123.625 31.5832,81.7751 z"
       style="fill:#b2b2b2;stroke:#000000;stroke-width:0.99225003" />
    <path
       id="path3008"
       d="m 100.298,145.841 c -7.5313,-2.176 -11.3494,-4.909 -18.881,-7.895 5.9842,3.441 5.4683,4.454 18.881,7.895 z"
       style="fill:#ffffff;stroke:#000000;stroke-width:0.99225003" />
    <path
       id="path3010"
       d="m 88.8457,113.96 c -8.4639,-1.262 -17.2376,-3.993 -23.2145,-8.502 5.9842,3.441 9.8017,4.453 23.2145,8.502 z"
       style="fill:#ffffff;stroke:#000000;stroke-width:0.99225003" />
    <path
       id="path3012"
       d="m 98.441,130.963 c -7.5315,-2.176 -15.0639,-3.998 -22.5954,-6.984 5.9841,3.442 9.1826,3.543 22.5954,6.984 z"
       style="fill:#ffffff;stroke:#000000;stroke-width:0.99225003" />
    <path
       id="path3014"
       d="m 254.133,154.342 -35.286,-0.303 c 11.762,1.998 23.524,2.352 35.286,0.303 z"
       style="fill:#b2b2b2;stroke:#000000;stroke-width:0.21602701" />
    <path
       id="path3016"
       d="m 260.633,144.019 c -14.806,-1.164 -28.632,-1.367 -41.786,-0.911 12.161,1.214 30.449,2.124 41.786,0.911 z"
       style="fill:#b2b2b2;stroke:#000000;stroke-width:0.21602701" />
    <path
       id="path3018"
       d="m 262.49,130.659 c -17.901,-0.557 -38.536,-3.795 -46.429,-1.518 12.161,1.214 35.092,2.731 46.429,1.518 z"
       style="fill:#b2b2b2;stroke:#000000;stroke-width:0.21602701" />
    <path
       id="path3020"
       d="m 409.206,98.7782 c 27.548,-3.466 52.723,-8.6782 73.667,-17.0031 l -1.238,-0.9109 c -17.794,6.3007 -42.867,11.412 -70.572,16.0923 l -1.857,1.8217 z"
       style="fill:#b2b2b2;stroke:#000000;stroke-width:0.21602701" />
    <path
       id="path3022"
       d="m 456.873,101.207 c -14.341,6.224 -32.397,11.285 -48.596,16.093 l 3.715,0 c 17.979,-3.555 35.27,-10.911 44.881,-16.093 z"
       style="fill:#b2b2b2;stroke:#000000;stroke-width:0.21602701" />
    <path
       id="path3024"
       d="m 432.73,124.283 -40.548,11.538 c 13.516,-2.935 21.151,-1.316 40.548,-11.538 z"
       style="fill:#b2b2b2;stroke:#000000;stroke-width:0.21602701" />
    <path
       id="path3026"
       d="m 135.894,101.207 c 11.968,2.075 23.936,3.492 35.905,3.947 l -0.31,1.822 c -11.865,-0.405 -23.73,-1.923 -35.595,-3.947 l 0,-1.822 z"
       style="fill:#b2b2b2;stroke:#000000;stroke-width:0.21602701" />
    <path
       id="path3028"
       d="m 252.152,107.801 c 29.925,1.67 63.512,-1.265 65.62,-1.215 l -0.31,1.822 c -5.956,0.178 -48.621,3.163 -65.31,0.911 l 0,-1.518 z"
       style="fill:#b2b2b2;stroke:#000000;stroke-width:0.21602701" />
    <path
       id="path3030"
       d="m 180.867,106.283 c 23.348,3.391 57.09,2.986 65.001,1.518 l -0.31,1.822 c -8.148,1.038 -49.936,1.189 -64.691,-1.822 l 0,-1.518 z"
       style="fill:#b2b2b2;stroke:#000000;stroke-width:0.21602701" />
    <path
       id="path3032"
       d="m 324.891,106.586 c 14.326,-0.095 23.328,-0.675 34.667,-2.732 l -0.31,1.822 c -8.061,1.696 -22.868,2.965 -34.357,2.429 l 0,-1.519 z"
       style="fill:#b2b2b2;stroke:#000000;stroke-width:0.21602701" />
    <path
       id="path3034"
       d="m 146.108,87.544 c 12.5,1.7962 17.72,2.1804 26.929,1.8218 l -0.31,1.8217 c -8.236,0.1415 -13.137,-0.3447 -26.619,-1.8217 l 0,-1.8218 z"
       style="fill:#b2b2b2;stroke:#000000;stroke-width:0.21602701" />
    <path
       id="path3036"
       d="m 180.156,89.6694 c 13.753,1.614 20.366,1.6287 26.929,1.2145 l 2.198,1.8218 c -9.908,0.2781 -14.948,0.3991 -29.127,-1.2145 l 0,-1.8218 z"
       style="fill:#b2b2b2;stroke:#000000;stroke-width:0.21602701" />
    <path
       id="path3038"
       d="m 224.109,91.1875 c 7.222,0.9506 13.618,0.552 21.667,0.6073 l -0.31,1.8218 C 235.28,93.2114 233.165,94.4257 218.847,92.402 l 5.262,-1.2145 z"
       style="fill:#b2b2b2;stroke:#000000;stroke-width:0.21602701" />
    <path
       id="path3040"
       d="m 255.371,91.1875 c 7.222,0.9506 15.475,0.552 23.524,0.6073 l -0.309,1.2145 c -10.187,-0.4051 -12.302,1.4164 -26.62,-0.6073 l 3.405,-1.2145 z"
       style="fill:#b2b2b2;stroke:#000000;stroke-width:0.21602701" />
    <path
       id="path3042"
       d="m 296.848,89.973 c 7.532,0.3433 13.618,-0.0553 21.667,0 l -0.31,1.5182 c -10.187,0.8025 -16.016,1.5853 -26.619,0.3036 l 5.262,-1.8218 z"
       style="fill:#b2b2b2;stroke:#000000;stroke-width:0.21602701" />
    <path
       id="path3044"
       d="m 329.967,88.5459 c 7.95,1.8768 13.618,0.461 21.667,0.5162 l -0.31,1.8218 c -8.724,0.8403 -17.107,0.8032 -27.547,0 l 6.19,-2.338 z"
       style="fill:#b2b2b2;stroke:#000000;stroke-width:0.21602701" />
    <path
       id="path3046"
       d="m 191.5,90.7473 c -0.103,-8.9065 -0.511,-14.0327 1.037,-15.6521 l 0.496,-2.7326 c -3.7,1.4518 -2.874,8.304 -2.972,18.324 l 1.439,0.0607 z"
       style="fill:#b2b2b2;stroke:#000000;stroke-width:0.21602701" />
    <path
       id="path3048"
       d="m 197.072,91.4912 c -0.103,-8.9065 -1.208,-15.9458 2.151,-17.0185 l -0.34,-2.3228 c -4.401,0.8582 -3.573,8.4398 -3.251,18.734 l 1.44,0.6073 z"
       style="fill:#b2b2b2;stroke:#000000;stroke-width:0.21602701" />
    <path
       id="path3050"
       d="m 191.387,80.6864 c 0.057,-2.8809 0.328,-4.731 1.15,-5.5912 l 0.496,-2.7326 c -1.85,0.7257 -2.568,2.8021 -2.836,5.9489 l 1.19,2.3749 z"
       style="fill:#ffffff;stroke:#000000;stroke-width:0.21602701" />
    <path
       id="path3052"
       d="m 196.849,80.0443 c 0.131,-3.0074 0.695,-5.0353 2.374,-5.5716 l -0.34,-2.3228 c -2.338,0.4559 -3.201,2.8095 -3.447,6.459 l 1.413,1.4354 z"
       style="fill:#ffffff;stroke:#000000;stroke-width:0.21602701" />
    <path
       id="path3054"
       d="m 224.933,91.4305 c -0.372,-7.7427 -1.267,-14.6462 1.037,-17.1552 l -0.202,-1.6394 c -4.535,0.3586 -3.152,14.4531 -2.275,18.7339 l 1.44,0.0607 z"
       style="fill:#b2b2b2;stroke:#000000;stroke-width:0.21602701" />
    <path
       id="path3056"
       d="m 224.472,79.7942 c 0.095,-2.4823 0.49,-4.4214 1.498,-5.5189 l -0.202,-1.6394 c -1.771,0.14 -2.64,2.376 -2.988,5.3045 l 1.692,1.8538 z"
       style="fill:#ffffff;stroke:#000000;stroke-width:0.21602701" />
    <path
       id="path3058"
       d="m 230.226,92.2504 c 0.134,-8.9067 0.01,-14.0321 1.037,-15.6521 l -0.34,-1.5028 c -2.307,1.1785 -2.038,7.0742 -2.136,17.0942 l 1.439,0.0607 z"
       style="fill:#b2b2b2;stroke:#000000;stroke-width:0.21602701" />
    <path
       id="path3060"
       d="m 230.595,79.1527 c 0.139,-1.1995 0.347,-2.0483 0.668,-2.5544 l -0.34,-1.5028 c -0.937,0.4786 -1.449,1.7362 -1.733,3.7323 l 1.405,0.3249 z"
       style="fill:#ffffff;stroke:#000000;stroke-width:0.21602701" />
    <path
       id="path3062"
       d="m 262.126,92.2504 c -0.371,-7.7427 -0.848,-16.6959 1.455,-19.2049 L 263.38,71.406 c -4.535,0.3587 -3.57,16.5029 -2.693,20.7837 l 1.439,0.0607 z"
       style="fill:#b2b2b2;stroke:#000000;stroke-width:0.21602701" />
    <path
       id="path3064"
       d="m 262.233,76.5215 c 0.272,-1.555 0.7,-2.7704 1.348,-3.476 L 263.38,71.406 c -1.346,0.1063 -2.208,1.6044 -2.731,3.77 l 1.584,1.3455 z"
       style="fill:#ffffff;stroke:#000000;stroke-width:0.21602701" />
    <path
       id="path3066"
       d="m 268.673,92.1137 c -0.149,-7.124 -1.764,-14.9898 -0.634,-17.4284 l -0.341,-1.5029 c -2.703,1.2758 -1.554,9.1426 -0.464,18.8707 l 1.439,0.0606 z"
       style="fill:#b2b2b2;stroke:#000000;stroke-width:0.21602701" />
    <path
       id="path3068"
       d="m 267.665,76.589 c 0.046,-0.7986 0.162,-1.4467 0.374,-1.9037 l -0.341,-1.5029 c -0.844,0.3986 -1.313,1.4408 -1.525,2.9827 l 1.492,0.4239 z"
       style="fill:#ffffff;stroke:#000000;stroke-width:0.21602701" />
    <path
       id="path3070"
       d="m 298.484,90.7473 c -0.15,-7.1241 -1.346,-14.8532 0.201,-16.3353 l -0.341,-1.5029 c -2.702,1.2758 -2.111,7.9128 -1.021,17.6408 l 1.161,0.1974 z"
       style="fill:#b2b2b2;stroke:#000000;stroke-width:0.21602701" />
    <path
       id="path3072"
       d="m 297.912,79.3707 c -0.055,-2.4662 0.096,-4.3104 0.773,-4.9587 l -0.341,-1.5029 c -1.139,0.4494 -1.693,1.9009 -1.871,4.1706 l 1.439,2.291 z"
       style="fill:#ffffff;stroke:#000000;stroke-width:0.21602701" />
    <path
       id="path3074"
       d="m 303.917,90.8839 c -0.372,-7.7427 -0.709,-14.2362 1.594,-16.7452 l -0.201,-1.6395 c -4.14,-0.6092 -3.361,13.1893 -2.833,18.324 l 1.44,0.0607 z"
       style="fill:#b2b2b2;stroke:#000000;stroke-width:0.21602701" />
    <path
       id="path3076"
       d="m 303.966,78.0277 c 0.273,-1.6933 0.753,-3.0266 1.545,-3.889 l -0.201,-1.6395 c -1.424,-0.2092 -2.265,1.2837 -2.736,3.5421 l 1.392,1.9864 z"
       style="fill:#ffffff;stroke:#000000;stroke-width:0.21602701" />
    <path
       id="path3078"
       d="m 336.374,90.2007 c -0.15,-7.1241 -1.346,-15.1265 0.201,-16.6086 l -0.898,-2.0494 c -2.703,1.2757 -1.833,8.7326 -0.464,18.4607 l 1.161,0.1973 z"
       style="fill:#b2b2b2;stroke:#000000;stroke-width:0.21602701" />
    <path
       id="path3080"
       d="m 335.794,78.1309 c -0.023,-2.2586 0.152,-3.9369 0.781,-4.5388 0.443,-0.8652 0.144,-1.5482 -0.898,-2.0494 -1.351,0.6379 -1.809,2.8211 -1.759,6.0609 l 1.876,0.5273 z"
       style="fill:#ffffff;stroke:#000000;stroke-width:0.21602701" />
    <path
       id="path3082"
       d="m 341.528,90.2007 c -0.15,-7.1241 -1.346,-15.1265 0.201,-16.6086 0.629,-1.2295 0.33,-1.9125 -0.898,-2.0494 -2.702,1.2757 -1.833,8.7326 -0.464,18.4607 l 1.161,0.1973 z"
       style="fill:#b2b2b2;stroke:#000000;stroke-width:0.21602701" />
    <path
       id="path3084"
       d="m 340.967,76.6661 c 0.063,-1.5108 0.279,-2.611 0.762,-3.074 0.629,-1.2295 0.33,-1.9125 -0.898,-2.0494 -1.013,0.4783 -1.524,1.8263 -1.695,3.8369 l 1.831,1.2865 z"
       style="fill:#ffffff;stroke:#000000;stroke-width:0.21602701" />
    <path
       id="path3086"
       d="m 151.381,88.5609 c -0.103,-8.9064 0.325,-13.3494 1.873,-14.9688 l 0.495,-2.7326 c -3.699,1.4517 -3.709,7.6207 -3.807,17.6407 l 1.439,0.0607 z"
       style="fill:#b2b2b2;stroke:#000000;stroke-width:0.21602701" />
    <path
       id="path3088"
       d="m 152.498,74.8117 c 0.215,-0.5131 0.466,-0.916 0.756,-1.2196 l 0.495,-2.7326 c -0.924,0.3628 -1.619,1.0208 -2.141,1.9598 l 0.89,1.9924 z"
       style="fill:#ffffff;stroke:#000000;stroke-width:0.21602701" />
    <path
       id="path3090"
       d="m 157.65,89.7907 c 0.106,-7.7673 0.256,-10.3429 1.176,-12.3725 l 0.356,-4.5091 c -2.51,0.5775 -2.477,6.5095 -2.971,16.821 l 1.439,0.0606 z"
       style="fill:#b2b2b2;stroke:#000000;stroke-width:0.21602701" />
    <path
       id="path3092"
       d="m 158.385,78.6483 c 0.123,-0.4499 0.269,-0.8496 0.441,-1.2301 l 0.356,-4.5091 c -0.705,0.1622 -1.21,0.7485 -1.582,1.7365 l 0.785,4.0027 z"
       style="fill:#ffffff;stroke:#000000;stroke-width:0.21602701" />
    <path
       id="path3094"
       d="m 91.2742,94.3403 c 4.875,1.0473 15.5908,2.7775 19.7238,3.0973 l 0,1.7764 C 106.029,98.4397 95.5457,96.5721 91.6921,95.4335 l -0.4179,-1.0932 z"
       style="fill:#b2b2b2;stroke:#000000;stroke-width:0.21602701" />
    <path
       id="path3096"
       d="m 89.324,88.1912 c 0.9286,-1.0022 0.9286,-1.8218 0,-2.4596 -4.3412,0.5015 -5.1764,5.8299 -3.2039,16.5344 1.3002,2.596 2.8788,2.733 5.1541,2.869 l 0.4179,-1.913 c -2.0436,0.137 -3.3429,-0.638 -3.9004,-2.323 -1.4043,-6.1147 -1.1485,-10.6014 1.5323,-12.7078 z"
       style="fill:#b2b2b2;stroke:#000000;stroke-width:0.21602701" />
    <path
       id="path3098"
       d="m 87.7917,88.3279 3.6218,4.9193 c -1.6248,0.4555 -4.0857,-2.0041 -3.6218,-4.9193 z"
       style="fill:#b2b2b2;stroke:#000000;stroke-width:0.21602701" />
    <path
       id="path3100"
       d="m 89.324,88.1912 0,-2.4596 c -3.1201,0.3603 -4.429,3.2146 -4.1863,8.7658 l 2.1531,-2.9722 c 0.3633,-1.4195 1.028,-2.5442 2.0332,-3.334 z"
       style="fill:#ffffff;stroke:#000000;stroke-width:0.21602701" />
    <path
       id="path3102"
       d="m 86.538,92.4273 4.3183,5.4659 c -1.6248,0.4555 -4.7822,-2.5507 -4.3183,-5.4659 z"
       style="fill:#b2b2b2;stroke:#000000;stroke-width:0.21602701" />
    <path
       id="path3104"
       d="m 86.8166,97.4832 4.3183,3.5528 c -1.8161,1.019 -4.962,-0.107 -4.3183,-3.5528 z"
       style="fill:#b2b2b2;stroke:#000000;stroke-width:0.21602701" />
    <path
       id="path3106"
       d="m 176.945,73.0055 c 1.38,-0.2602 -0.106,-2.0825 -1.115,-1.7183 -2.555,-0.0742 -3.377,7.9976 -3.355,17.9385 0.026,11.3353 -2.018,22.5893 -0.307,27.5183 1.221,4.218 5.361,4.321 6.688,0.781 -2.867,1.354 -4.459,0.416 -4.777,-2.812 l 1.114,-37.3336 c -0.477,-1.6664 0.107,-3.1248 1.752,-4.3739 z"
       style="fill:#b2b2b2;stroke:#000000;stroke-width:0.21602701" />
    <path
       id="path3108"
       d="m 251.452,75.0363 c -0.69,-6.04 -7.437,-1.129 -6.529,6.2483 0.261,2.1211 0.286,-1.6863 0.308,8.2535 0.024,11.3339 -0.108,23.2139 1.603,28.1429 1.062,5.467 4.247,5.571 5.892,2.031 -2.548,2.447 -4.459,-2.083 -4.777,-5.311 -0.16,-12.184 -1.434,-31.8667 -0.478,-36.553 0.319,-2.7599 1.221,-4.9992 3.981,-2.8117 z"
       style="fill:#b2b2b2;stroke:#000000;stroke-width:0.21602701" />
    <path
       id="path3110"
       d="m 323.761,77.6918 c 1.38,-0.2603 -1.858,-5.6754 -2.867,-5.3111 -2.555,-0.0743 -2.58,6.5922 -2.558,16.5326 0.025,11.3347 -0.267,23.3707 1.444,28.2997 1.221,4.217 5.042,6.508 6.369,2.968 -2.866,1.353 -4.936,-2.24 -5.255,-5.468 l -0.477,-34.3657 c -0.478,-1.6664 -0.372,-7.4985 3.344,-2.6555 z"
       style="fill:#b2b2b2;stroke:#000000;stroke-width:0.21602701" />
    <path
       id="path3112"
       d="m 176.945,73.0055 c 1.38,-0.2602 -0.106,-2.0825 -1.115,-1.7183 -4.512,-0.1542 -0.678,22.9664 -4.107,33.5568 -0.261,4.167 -0.391,7.778 0.058,10.352 2.23,-3.179 -0.767,-10.271 2.638,-11.885 l 0.774,-25.9316 c -0.477,-1.6664 0.107,-3.1248 1.752,-4.3739 z"
       style="fill:#ffffff;stroke:#000000;stroke-width:0.21602701" />
    <path
       id="path3114"
       d="m 175.742,75.4005 4.318,5.4659 c -1.624,0.4556 -4.782,-2.5506 -4.318,-5.4659 z"
       style="fill:#b2b2b2;stroke:#000000;stroke-width:0.21602701" />
    <path
       id="path3116"
       d="m 175.583,81.4927 4.318,5.4659 c -1.625,0.4555 -4.782,-2.5507 -4.318,-5.4659 z"
       style="fill:#b2b2b2;stroke:#000000;stroke-width:0.21602701" />
    <path
       id="path3118"
       d="m 174.787,89.6155 c 1.758,1.8221 3.356,4.7376 5.273,5.4659 -1.624,1.7053 -5.737,-2.5507 -5.273,-5.4659 z"
       style="fill:#b2b2b2;stroke:#000000;stroke-width:0.21602701" />
    <path
       id="path3120"
       d="m 174.946,97.7384 c 1.758,1.822 2.879,4.7376 4.796,5.4656 -1.625,1.706 -5.26,-2.55 -4.796,-5.4656 z"
       style="fill:#b2b2b2;stroke:#000000;stroke-width:0.21602701" />
    <path
       id="path3122"
       d="m 174.15,104.299 c 1.758,1.822 3.038,4.581 4.955,5.31 -1.943,3.111 -5.419,-2.395 -4.955,-5.31 z"
       style="fill:#b2b2b2;stroke:#000000;stroke-width:0.21602701" />
    <path
       id="path3124"
       d="m 173.353,110.079 c 1.758,1.822 2.88,4.737 4.797,5.466 -1.625,1.705 -5.26,-2.551 -4.797,-5.466 z"
       style="fill:#b2b2b2;stroke:#000000;stroke-width:0.21602701" />
    <path
       id="path3126"
       d="m 247.615,102.584 c 0.15,4.202 0.288,8.319 0.334,11.817 l -1.667,1.159 c -0.686,-3.48 -0.918,-8.674 -1,-14.445 0.778,0.49 2.352,0.198 2.333,1.469 z m -0.235,-6.5971 c -0.278,-8.1223 -0.446,-15.5029 0.091,-18.1389 0.159,-1.3798 0.464,-2.63 1.075,-3.2614 l 0.298,-2.1727 c -2.066,0.6123 -4.488,4.2601 -3.921,8.8707 0.261,2.1209 0.286,-1.6863 0.308,8.2535 0.006,2.8333 0.003,5.7009 0.02,8.4857 l 0.805,-0.3373 1.324,-1.6996 z"
       style="fill:#ffffff;stroke:#000000;stroke-width:0.21602701" />
    <path
       id="path3128"
       d="m 246.864,87.9336 c 1.622,0.8306 3.397,2.4373 4.866,2.4917 -0.694,1.525 -4.487,-0.4137 -4.866,-2.4917 z"
       style="fill:#b2b2b2;stroke:#000000;stroke-width:0.21602701" />
    <path
       id="path3130"
       d="m 246.594,99.4567 c 1.758,1.8223 3.039,4.5813 4.956,5.3093 -1.944,3.111 -5.42,-2.394 -4.956,-5.3093 z"
       style="fill:#b2b2b2;stroke:#000000;stroke-width:0.21602701" />
    <path
       id="path3132"
       d="m 246.762,80.9094 c 1.411,1.1436 2.805,3.0772 4.231,3.4305 -1.002,1.3499 -4.301,-1.3206 -4.231,-3.4305 z"
       style="fill:#b2b2b2;stroke:#000000;stroke-width:0.21602701" />
    <path
       id="path3134"
       d="m 247.931,75.5872 c 1.288,1.2752 2.48,3.3349 3.864,3.8252 -1.134,1.2457 -4.147,-1.7325 -3.864,-3.8252 z"
       style="fill:#b2b2b2;stroke:#000000;stroke-width:0.21602701" />
    <path
       id="path3136"
       d="m 247.072,95.8639 c 1.758,1.822 4.949,1.7696 4.796,4.3721 -1.943,-1.2624 -5.101,-2.7066 -4.796,-4.3721 z"
       style="fill:#b2b2b2;stroke:#000000;stroke-width:0.21602701" />
    <path
       id="path3138"
       d="m 247.709,108.985 c 1.758,1.822 4.949,1.77 4.796,4.373 -1.943,-1.263 -5.101,-2.707 -4.796,-4.373 z"
       style="fill:#b2b2b2;stroke:#000000;stroke-width:0.21602701" />
    <path
       id="path3140"
       d="m 247.558,114.338 c 1.411,1.144 2.805,3.077 4.231,3.43 -1.002,1.35 -4.301,-1.32 -4.231,-3.43 z"
       style="fill:#b2b2b2;stroke:#000000;stroke-width:0.21602701" />
    <path
       id="path3142"
       d="m 320.894,114.713 -0.128,-9.214 -1.299,-6.8753 -1.13,0.8826 c 0.037,7.5697 0.266,14.3177 1.443,17.7067 l 1.114,-2.5 m -0.477,-34.3657 c -0.112,-0.3903 -0.192,-1.0101 -0.201,-1.6672 -0.014,-1.0952 0.168,-2.2955 0.728,-2.716 l 1.018,-2.9441 c -0.424,-0.4604 -0.816,-0.7303 -1.068,-0.6393 -1.836,-0.0533 -2.366,3.3756 -2.51,8.9994 l 2.033,-1.0328 z m -1.587,2.3432 -0.488,1.3032 c -0.012,1.5261 -0.01,3.1727 -0.006,4.9196 0.004,1.9919 -0.001,4.0061 -0.004,5.9994 l 1.135,-1.4438 0,-9.8412 -0.637,-0.9372 z"
       style="fill:#ffffff;stroke:#000000;stroke-width:0.21602701" />
    <path
       id="path3144"
       d="m 320.35,77.7908 c 1.206,1.3497 2.268,3.4769 3.618,4.049 -1.209,1.1756 -4.031,-1.9772 -3.618,-4.049 z"
       style="fill:#b2b2b2;stroke:#000000;stroke-width:0.21602701" />
    <path
       id="path3146"
       d="m 320.191,83.1019 c 1.206,1.3497 2.268,3.4769 3.618,4.0489 -1.209,1.1757 -4.031,-1.9772 -3.618,-4.0489 z"
       style="fill:#b2b2b2;stroke:#000000;stroke-width:0.21602701" />
    <path
       id="path3148"
       d="m 319.872,89.5064 c 1.206,1.3497 2.268,3.477 3.619,4.049 -1.21,1.1756 -4.032,-1.9772 -3.619,-4.049 z"
       style="fill:#b2b2b2;stroke:#000000;stroke-width:0.21602701" />
    <path
       id="path3150"
       d="m 320.35,95.4423 c 1.206,1.3498 2.268,3.477 3.618,4.049 -1.209,1.1757 -4.031,-1.9772 -3.618,-4.049 z"
       style="fill:#b2b2b2;stroke:#000000;stroke-width:0.21602701" />
    <path
       id="path3152"
       d="m 320.191,101.534 c 1.206,1.35 2.268,3.477 3.618,4.049 -1.209,1.176 -4.031,-1.977 -3.618,-4.049 z"
       style="fill:#b2b2b2;stroke:#000000;stroke-width:0.21602701" />
    <path
       id="path3154"
       d="m 320.828,108.251 c 1.206,1.35 2.268,3.477 3.618,4.049 -1.209,1.176 -4.031,-1.977 -3.618,-4.049 z"
       style="fill:#b2b2b2;stroke:#000000;stroke-width:0.21602701" />
    <path
       id="path3156"
       d="m 321.305,113.094 c 1.207,1.35 2.269,3.477 3.619,4.049 -1.209,1.176 -4.031,-1.977 -3.619,-4.049 z"
       style="fill:#b2b2b2;stroke:#000000;stroke-width:0.21602701" />
    <path
       id="path3158"
       d="m 406.789,94.067 c 0.928,-1.0021 0.371,-1.6851 -0.558,-2.323 -2.948,0.3649 -3.644,3.6436 -1.671,14.348 1.3,2.596 2.879,2.733 5.154,2.87 l 0.418,-1.913 c -2.044,0.136 -3.343,-0.639 -3.901,-2.323 -0.665,-6.1159 -1.736,-8.5528 0.558,-10.659 z"
       style="fill:#b2b2b2;stroke:#00ff00;stroke-width:0.21602701" />
    <path
       id="path3160"
       d="m 406.789,94.067 c 0.928,-1.0021 0.371,-1.6851 -0.558,-2.323 -1.473,0.1823 -2.385,1.0932 -2.68,3.2966 0.213,3.6622 2.591,5.2464 1.849,2.852 -0.064,-1.6369 0.242,-2.7726 1.389,-3.8256 z"
       style="fill:#ffffff;stroke:#00ff00;stroke-width:0.21602701" />
    <path
       id="path3162"
       d="m 405.742,96.8088 c 1.206,1.3497 2.268,3.4772 3.618,4.0492 -1.209,1.175 -4.031,-1.9774 -3.618,-4.0492 z"
       style="fill:#b2b2b2;stroke:#000000;stroke-width:0.21602701" />
    <path
       id="path3164"
       d="m 406.02,100.908 c 1.207,1.35 3.94,3.34 4.455,4.322 -1.209,1.176 -4.867,-2.25 -4.455,-4.322 z"
       style="fill:#b2b2b2;stroke:#000000;stroke-width:0.21602701" />
    <path
       id="path3166"
       d="m 406.578,93.5293 c 1.206,1.3497 1.432,1.9738 2.782,2.5458 -1.209,1.1757 -3.195,-0.474 -2.782,-2.5458 z"
       style="fill:#b2b2b2;stroke:#000000;stroke-width:0.21602701" />
    <path
       id="path3168"
       d="m 387.716,100.574 c 5.875,-0.187 10.558,-0.493 15.861,-1.6396 l -0.588,1.6856 c -2.907,0.876 -8.242,1.735 -15.552,1.609 l 0.279,-1.655 z"
       style="fill:#b2b2b2;stroke:#000000;stroke-width:0.21602701" />
    <path
       id="path3170"
       d="m 476.172,72.288 c 3.646,0.0865 6.937,-0.22 10.708,-1.0929 l -0.589,1.6851 c -2.349,0.8763 -6.152,1.189 -10.397,1.0626 l 0.278,-1.6548 z"
       style="fill:#b2b2b2;stroke:#000000;stroke-width:0.21602701" />
    <path
       id="path3172"
       d="m 19.2502,61.9202 c 2.6451,0.3452 6.2718,1.6849 10.0322,2.5993 l 1.4778,3.0112 C 28.262,67.2566 22.9228,65.8296 19.2063,63.8138 l 0.0439,-1.8936 z"
       style="fill:#b2b2b2;stroke:#000000;stroke-width:0.21602701" />
    <path
       id="path3174"
       d="m 19.2502,61.9202 c 2.6451,0.3452 6.2718,1.6849 10.0322,2.5993 l 0.6341,1.2922 C 29.1692,65.628 17.8849,62.5643 19.2271,62.9076 l 0.0231,-0.9874 z"
       style="fill:#ffffff;stroke:#000000;stroke-width:0.21602701" />
    <path
       id="path3176"
       d="m 36.0257,361.17 10.2566,2.345 1.7145,8.686 c 21.843,6.592 55.8442,12.076 77.6872,15.54 l 5.202,14.145 22.139,3.445 2.733,-16.758 6.599,-0.555 0.798,-14.824 2.849,0.176 c 1.419,-1.866 3.749,-5.423 3.043,-2.47 l 3.786,1.677 c 1.151,-2.641 4.126,-1.939 4.897,0.892 l 5.483,0.507 c 2.375,-3.367 4.844,-5.557 7.982,0.494 l 7.053,0.51 c 1.654,-3.004 2.939,-4.055 5.354,-0.804 1.903,-2.618 2.896,-2.11 4.8,1.526 2.468,-0.12 5.011,1.974 5.2,2.637 l -0.151,14.727 11.428,0.605 0.175,-14.864 c 0.861,-1.028 5.137,-1.577 6.757,-1.041 1.242,-4.387 2.96,-4.571 5.723,-1.14 2.655,-2.722 3.413,-2.013 5.309,1.518 l 6.726,-0.36 c 0.265,-3.967 6.708,-4.047 8.356,-0.582 l 6.858,0.036 c 1.136,-4.38 4.967,-4.245 5.954,-1.719 1.763,-3.212 5.273,-2.299 5.063,1.221 l 3.713,-0.151 0.887,16.216 12.454,-0.103 -0.357,-14.011 5.289,-1 c 1.423,-4.304 3.529,-3.788 5.712,-0.275 0.78,-2.741 4.595,-4.176 5.679,0.248 l 6.422,-0.389 c 0.567,-3.712 6.546,-4.979 7.501,-0.34 l 5.56,-0.497 c 1.043,-3.5 2.371,-5.206 5.701,-1.642 1.711,-3.218 5.621,-2.907 6.57,1.519 1.381,-0.077 5.533,0.551 6.25,0.963 l 1.171,14.706 2.945,-0.52 7.179,14.756 17.242,-0.617 4.564,-17.502 c 25.069,-2.789 55.247,-1.98 75.189,-8.188 l 1.681,-9.392 10.895,-0.515 c -12.346,50.613 -38.482,90.435 -116.354,93.758 l -194.628,0 C 76.294,458.948 46.9444,410.402 36.0257,361.17 z"
       style="fill:#000000;stroke:#000000;stroke-width:0.99225003" />
    <path
       id="path3178"
       d="m 49.7009,386.965 -6.4104,-3.078 0.4275,-3.078 c 14.0427,6.986 42.869,12.545 66.79,16.405 l 0,1.465 C 95.1462,396.847 68.1,392.998 51.98,387.258 c 1.8983,4.299 3.8912,8.598 6.5529,12.897 47.5831,22.37 82.9941,27.951 134.1871,31.365 -41.569,-0.135 -84.634,-5.406 -133.0477,-29.02 3.1336,5.863 7.0272,11.725 11.6808,17.588 32.5139,12.445 63.7809,20.189 94.0159,24.036 -25.187,-1.781 -54.294,-7.203 -93.1612,-22.277 14.8976,16.634 37.7132,28.31 70.0852,34.002 -50.2852,-5.813 -75.8313,-28.482 -92.5921,-68.884 z"
       style="fill:#b2b2b2;stroke:#000000;stroke-width:0.99225003" />
    <path
       id="path3180"
       d="m 112.948,448.814 c -6.932,-2.1 -10.446,-4.739 -17.3786,-7.621 5.5076,3.322 5.0336,4.299 17.3786,7.621 z"
       style="fill:#ffffff;stroke:#000000;stroke-width:0.99225003" />
    <path
       id="path3182"
       d="m 102.407,418.036 c -7.7905,-1.218 -15.866,-3.855 -21.3674,-8.208 5.508,3.323 9.0218,4.3 21.3674,8.208 z"
       style="fill:#ffffff;stroke:#000000;stroke-width:0.99225003" />
    <path
       id="path3184"
       d="m 111.239,434.451 c -6.932,-2.101 -13.8655,-3.86 -20.7978,-6.742 5.508,3.322 8.452,3.42 20.7978,6.742 z"
       style="fill:#ffffff;stroke:#000000;stroke-width:0.99225003" />
    <path
       id="path3186"
       d="m 254.542,457.022 -32.478,-0.293 c 10.826,1.929 21.652,2.271 32.478,0.293 z"
       style="fill:#b2b2b2;stroke:#000000;stroke-width:0.21602701" />
    <path
       id="path3188"
       d="m 260.525,447.055 c -13.628,-1.124 -26.353,-1.319 -38.461,-0.879 11.193,1.172 28.026,2.051 38.461,0.879 z"
       style="fill:#b2b2b2;stroke:#000000;stroke-width:0.21602701" />
    <path
       id="path3190"
       d="m 262.235,434.158 c -16.477,-0.538 -35.471,-3.664 -42.735,-1.466 11.193,1.172 32.299,2.637 42.735,1.466 z"
       style="fill:#b2b2b2;stroke:#000000;stroke-width:0.21602701" />
    <path
       id="path3192"
       d="m 397.276,403.38 c 25.356,-3.346 46.402,-6.86 65.68,-14.897 l -1.139,-0.879 c -16.379,6.082 -37.331,9.499 -62.831,14.017 l -1.71,1.759 z"
       style="fill:#b2b2b2;stroke:#000000;stroke-width:0.21602701" />
    <path
       id="path3194"
       d="m 441.15,405.725 c -13.2,6.008 -29.819,10.894 -44.729,15.535 l 3.419,0 c 16.549,-3.431 32.464,-10.533 41.31,-15.535 z"
       style="fill:#b2b2b2;stroke:#000000;stroke-width:0.21602701" />
    <path
       id="path3196"
       d="m 418.928,428.002 -37.321,11.139 c 12.44,-2.834 19.468,-1.27 37.321,-11.139 z"
       style="fill:#b2b2b2;stroke:#000000;stroke-width:0.21602701" />
    <path
       id="path3198"
       d="m 145.711,405.725 c 11.016,2.003 22.032,3.37 33.049,3.81 l -0.285,1.759 c -10.921,-0.391 -21.843,-1.857 -32.764,-3.811 l 0,-1.758 z"
       style="fill:#b2b2b2;stroke:#000000;stroke-width:0.21602701" />
    <path
       id="path3200"
       d="m 252.719,412.09 c 27.544,1.613 58.458,-1.221 60.398,-1.172 l -0.284,1.759 c -5.483,0.171 -44.753,3.053 -60.114,0.879 l 0,-1.466 z"
       style="fill:#b2b2b2;stroke:#000000;stroke-width:0.21602701" />
    <path
       id="path3202"
       d="m 187.106,410.625 c 21.49,3.274 52.547,2.883 59.829,1.465 l -0.285,1.759 c -7.5,1.003 -45.963,1.148 -59.544,-1.759 l 0,-1.465 z"
       style="fill:#b2b2b2;stroke:#000000;stroke-width:0.21602701" />
    <path
       id="path3204"
       d="m 319.67,410.918 c 13.186,-0.092 21.472,-0.652 31.909,-2.638 l -0.285,1.758 c -7.42,1.638 -21.049,2.863 -31.624,2.345 l 0,-1.465 z"
       style="fill:#b2b2b2;stroke:#000000;stroke-width:0.21602701" />
    <path
       id="path3206"
       d="m 162.4,387.069 c 11.505,1.734 10.845,3.016 19.321,2.67 l -0.285,1.758 c -7.581,0.137 -6.626,-1.244 -19.036,-2.669 l 0,-1.759 z"
       style="fill:#b2b2b2;stroke:#000000;stroke-width:0.21602701" />
    <path
       id="path3208"
       d="m 188.273,390.031 c 12.658,1.559 18.746,1.573 24.787,1.173 l 2.023,1.759 c -9.12,0.268 -13.759,0.385 -26.81,-1.173 l 0,-1.759 z"
       style="fill:#b2b2b2;stroke:#000000;stroke-width:0.21602701" />
    <path
       id="path3210"
       d="m 230.508,393.666 c 6.647,0.917 12.534,0.533 19.943,0.586 l -0.285,1.759 c -9.376,-0.391 -11.323,0.781 -24.502,-1.173 l 4.844,-1.172 z"
       style="fill:#b2b2b2;stroke:#000000;stroke-width:0.21602701" />
    <path
       id="path3212"
       d="m 258.415,393.926 c 6.647,0.918 14.243,0.533 21.652,0.586 l -0.285,1.173 c -9.376,-0.391 -11.323,1.367 -24.501,-0.586 l 3.134,-1.173 z"
       style="fill:#b2b2b2;stroke:#000000;stroke-width:0.21602701" />
    <path
       id="path3214"
       d="m 296.591,392.754 c 6.932,0.331 12.534,-0.054 19.943,0 l -0.285,1.465 c -9.377,0.775 -12.616,1.531 -22.376,0.293 l 2.718,-1.758 z"
       style="fill:#b2b2b2;stroke:#000000;stroke-width:0.21602701" />
    <path
       id="path3216"
       d="m 327.075,391.68 c 7.317,1.811 12.534,-1.074 19.943,-1.02 l -0.285,1.759 c -8.03,0.811 -15.746,2.293 -25.356,1.518 l 5.698,-2.257 z"
       style="fill:#b2b2b2;stroke:#000000;stroke-width:0.21602701" />
    <path
       id="path3218"
       d="m 198.715,391.072 c -0.095,-8.598 -0.47,-13.547 0.955,-15.11 l 0.456,-2.639 c -3.406,1.402 -2.646,8.017 -2.736,17.69 l 1.325,0.059 z"
       style="fill:#b2b2b2;stroke:#000000;stroke-width:0.21602701" />
    <path
       id="path3220"
       d="m 203.843,391.79 c -0.095,-8.598 -1.111,-15.394 1.98,-16.429 l -0.313,-2.243 c -4.051,0.829 -3.289,8.148 -2.991,18.086 l 1.324,0.586 z"
       style="fill:#b2b2b2;stroke:#000000;stroke-width:0.21602701" />
    <path
       id="path3222"
       d="m 198.611,381.359 c 0.053,-2.781 0.302,-4.567 1.059,-5.397 l 0.456,-2.639 c -1.703,0.701 -2.364,2.705 -2.611,5.743 l 1.096,2.293 z"
       style="fill:#ffffff;stroke:#000000;stroke-width:0.21602701" />
    <path
       id="path3224"
       d="m 203.638,380.739 c 0.121,-2.903 0.64,-4.861 2.185,-5.378 l -0.313,-2.243 c -2.152,0.845 -2.945,3.117 -3.172,6.236 l 1.3,1.385 z"
       style="fill:#ffffff;stroke:#000000;stroke-width:0.21602701" />
    <path
       id="path3226"
       d="m 234.302,393.597 c -0.341,-7.475 -1.165,-14.14 0.955,-16.562 l -0.186,-1.583 c -4.174,0.346 -2.901,13.953 -2.094,18.086 l 1.325,0.059 z"
       style="fill:#b2b2b2;stroke:#000000;stroke-width:0.21602701" />
    <path
       id="path3228"
       d="m 233.878,382.363 c 0.087,-2.397 0.451,-4.269 1.379,-5.328 l -0.186,-1.583 c -1.63,0.135 -2.43,2.294 -2.75,5.121 l 1.557,1.79 z"
       style="fill:#ffffff;stroke:#000000;stroke-width:0.21602701" />
    <path
       id="path3230"
       d="m 239.174,394.388 c 0.124,-8.599 0.01,-13.547 0.955,-15.111 l -0.314,-1.45 c -2.122,1.137 -1.875,6.829 -1.965,16.503 l 1.324,0.058 z"
       style="fill:#b2b2b2;stroke:#000000;stroke-width:0.21602701" />
    <path
       id="path3232"
       d="m 239.514,381.743 c 0.128,-1.158 0.32,-1.977 0.615,-2.466 l -0.314,-1.45 c -0.862,0.462 -1.333,1.676 -1.595,3.603 l 1.294,0.313 z"
       style="fill:#ffffff;stroke:#000000;stroke-width:0.21602701" />
    <path
       id="path3234"
       d="m 266.757,394.952 c -0.341,-7.475 -0.78,-16.118 1.34,-18.54 l -0.186,-1.583 c -4.174,0.346 -3.286,15.932 -2.478,20.065 l 1.324,0.058 z"
       style="fill:#b2b2b2;stroke:#000000;stroke-width:0.21602701" />
    <path
       id="path3236"
       d="m 266.856,379.767 c 0.25,-1.501 0.644,-2.674 1.241,-3.355 l -0.186,-1.583 c -1.239,0.103 -2.032,1.549 -2.513,3.64 l 1.458,1.298 z"
       style="fill:#ffffff;stroke:#000000;stroke-width:0.21602701" />
    <path
       id="path3238"
       d="m 272.784,394.82 c -0.138,-6.877 -1.624,-14.471 -0.584,-16.825 l -0.314,-1.451 c -2.488,1.232 -1.431,8.826 -0.427,18.218 l 1.325,0.058 z"
       style="fill:#b2b2b2;stroke:#000000;stroke-width:0.21602701" />
    <path
       id="path3240"
       d="m 271.856,379.833 c 0.042,-0.771 0.149,-1.397 0.344,-1.838 l -0.314,-1.451 c -0.777,0.385 -1.209,1.391 -1.403,2.879 l 1.373,0.41 z"
       style="fill:#ffffff;stroke:#000000;stroke-width:0.21602701" />
    <path
       id="path3242"
       d="m 300.526,392.894 c -0.138,-6.878 -1.239,-14.339 0.185,-15.77 l -0.313,-1.451 c -2.488,1.231 -1.944,7.639 -0.94,17.03 l 1.068,0.191 z"
       style="fill:#b2b2b2;stroke:#000000;stroke-width:0.21602701" />
    <path
       id="path3244"
       d="m 300,381.911 c -0.051,-2.381 0.088,-4.161 0.711,-4.787 l -0.313,-1.451 c -1.05,0.434 -1.559,1.835 -1.723,4.026 l 1.325,2.212 z"
       style="fill:#ffffff;stroke:#000000;stroke-width:0.21602701" />
    <path
       id="path3246"
       d="m 305.526,393.026 c -0.341,-7.475 -0.652,-13.744 1.468,-16.166 l -0.186,-1.583 c -3.81,-0.588 -3.093,12.733 -2.606,17.69 l 1.324,0.059 z"
       style="fill:#b2b2b2;stroke:#000000;stroke-width:0.21602701" />
    <path
       id="path3248"
       d="m 305.572,380.614 c 0.251,-1.634 0.693,-2.922 1.422,-3.754 l -0.186,-1.583 c -1.309,-0.202 -2.084,1.239 -2.517,3.42 l 1.281,1.917 z"
       style="fill:#ffffff;stroke:#000000;stroke-width:0.21602701" />
    <path
       id="path3250"
       d="m 332.061,391.759 c -0.138,-6.878 -1.239,-14.603 0.185,-16.034 l -0.826,-1.979 c -2.488,1.232 -1.687,8.431 -0.427,17.822 l 1.068,0.191 z"
       style="fill:#b2b2b2;stroke:#000000;stroke-width:0.21602701" />
    <path
       id="path3252"
       d="m 331.527,380.107 c -0.021,-2.181 0.141,-3.801 0.719,-4.382 0.408,-0.835 0.133,-1.495 -0.826,-1.979 -1.244,0.616 -1.666,2.724 -1.619,5.852 l 1.726,0.509 z"
       style="fill:#ffffff;stroke:#000000;stroke-width:0.21602701" />
    <path
       id="path3254"
       d="m 336.805,391.759 c -0.138,-6.878 -1.239,-14.603 0.185,-16.034 0.579,-1.187 0.304,-1.846 -0.826,-1.979 -2.488,1.232 -1.687,8.431 -0.427,17.822 l 1.068,0.191 z"
       style="fill:#b2b2b2;stroke:#000000;stroke-width:0.21602701" />
    <path
       id="path3256"
       d="m 336.288,378.693 c 0.059,-1.459 0.257,-2.521 0.702,-2.968 0.579,-1.187 0.304,-1.846 -0.826,-1.979 -0.933,0.462 -1.403,1.764 -1.56,3.705 l 1.684,1.242 z"
       style="fill:#ffffff;stroke:#000000;stroke-width:0.21602701" />
    <path
       id="path3258"
       d="m 167.254,388.051 c -0.095,-8.599 0.299,-12.888 1.724,-14.452 l 0.455,-2.637 c -3.404,1.401 -3.414,7.356 -3.504,17.03 l 1.325,0.059 z"
       style="fill:#b2b2b2;stroke:#000000;stroke-width:0.21602701" />
    <path
       id="path3260"
       d="m 168.281,374.777 c 0.198,-0.496 0.429,-0.884 0.697,-1.178 l 0.455,-2.637 c -0.851,0.754 -1.49,1.389 -1.971,1.892 l 0.819,1.923 z"
       style="fill:#ffffff;stroke:#000000;stroke-width:0.21602701" />
    <path
       id="path3262"
       d="m 173.024,389.238 c 0.097,-7.499 0.235,-9.985 1.082,-11.945 l 0.328,-4.353 c -2.31,0.558 -2.28,6.284 -2.735,16.239 l 1.325,0.059 z"
       style="fill:#b2b2b2;stroke:#000000;stroke-width:0.21602701" />
    <path
       id="path3264"
       d="m 173.7,378.481 c 0.113,-0.435 0.247,-0.82 0.406,-1.188 l 0.328,-4.353 c -0.65,0.561 -1.114,1.127 -1.457,1.677 l 0.723,3.864 z"
       style="fill:#ffffff;stroke:#000000;stroke-width:0.21602701" />
    <path
       id="path3266"
       d="m 115.876,398.184 c 4.487,1.011 10.583,1.802 14.387,2.111 l 0,1.715 c -4.573,-0.747 -10.455,-1.064 -14.002,-2.163 l -0.385,-1.663 z"
       style="fill:#b2b2b2;stroke:#000000;stroke-width:0.21602701" />
    <path
       id="path3268"
       d="m 114.082,392.855 c 0.854,-0.967 0.854,-1.759 0,-2.374 -3.996,0.484 -4.765,5.628 -2.949,15.962 1.196,2.507 2.649,2.639 4.743,2.77 l 0.385,-1.846 c -1.881,0.131 -3.077,-0.616 -3.59,-2.243 -1.292,-5.904 -1.057,-10.235 1.411,-12.269 z"
       style="fill:#b2b2b2;stroke:#000000;stroke-width:0.21602701" />
    <path
       id="path3270"
       d="m 112.671,392.987 3.334,4.749 c -1.496,0.44 -3.761,-1.935 -3.334,-4.749 z"
       style="fill:#b2b2b2;stroke:#000000;stroke-width:0.21602701" />
    <path
       id="path3272"
       d="m 114.082,392.855 0,-2.374 c -2.872,0.348 -4.077,3.103 -3.854,8.462 l 1.982,-2.869 c 0.334,-1.371 0.946,-2.456 1.872,-3.219 z"
       style="fill:#ffffff;stroke:#000000;stroke-width:0.21602701" />
    <path
       id="path3274"
       d="m 111.517,396.945 3.975,5.277 c -1.496,0.439 -4.402,-2.463 -3.975,-5.277 z"
       style="fill:#b2b2b2;stroke:#000000;stroke-width:0.21602701" />
    <path
       id="path3276"
       d="m 111.773,401.826 3.975,3.43 c -1.671,0.984 -4.567,-0.104 -3.975,-3.43 z"
       style="fill:#b2b2b2;stroke:#000000;stroke-width:0.21602701" />
    <path
       id="path3278"
       d="m 187.14,372.426 c 1.27,-0.251 -0.098,-2.011 -1.026,-1.659 -2.352,-0.072 -3.109,7.721 -3.088,17.318 0.023,10.943 -1.858,21.808 -0.283,26.566 1.123,4.072 4.934,4.172 6.156,0.754 -2.639,1.307 -4.104,0.402 -4.398,-2.714 l 1.026,-36.042 c -0.439,-1.609 0.098,-3.017 1.613,-4.223 z"
       style="fill:#b2b2b2;stroke:#000000;stroke-width:0.21602701" />
    <path
       id="path3280"
       d="m 255.718,378.637 c -0.635,-5.831 -6.845,-1.09 -6.009,6.032 0.24,2.048 0.263,-1.627 0.283,7.968 0.023,10.942 -0.099,22.412 1.476,27.17 0.977,5.278 3.908,5.378 5.423,1.96 -2.345,2.363 -4.104,-2.01 -4.397,-5.127 -0.147,-11.763 -1.32,-30.764 -0.44,-35.288 0.293,-2.665 1.124,-4.827 3.664,-2.715 z"
       style="fill:#b2b2b2;stroke:#000000;stroke-width:0.21602701" />
    <path
       id="path3282"
       d="m 321.666,379.986 c 1.27,-0.251 -1.71,-5.479 -2.638,-5.127 -2.352,-0.072 -2.376,6.364 -2.355,15.961 0.023,10.942 -0.246,22.562 1.329,27.32 1.124,4.072 4.641,6.283 5.863,2.865 -2.639,1.307 -4.544,-2.161 -4.837,-5.278 l -0.44,-33.177 c -0.439,-1.609 -0.342,-7.239 3.078,-2.564 z"
       style="fill:#b2b2b2;stroke:#000000;stroke-width:0.21602701" />
    <path
       id="path3284"
       d="m 187.14,372.426 c 1.27,-0.251 -0.098,-2.011 -1.026,-1.659 -4.154,-0.149 -0.624,22.172 -3.78,32.396 -0.241,4.023 -0.361,7.509 0.053,9.994 2.052,-3.069 -0.706,-9.916 2.428,-11.474 l 0.712,-25.034 c -0.439,-1.609 0.098,-3.017 1.613,-4.223 z"
       style="fill:#ffffff;stroke:#000000;stroke-width:0.21602701" />
    <path
       id="path3286"
       d="m 186.033,374.738 3.974,5.277 c -1.495,0.44 -4.401,-2.462 -3.974,-5.277 z"
       style="fill:#b2b2b2;stroke:#000000;stroke-width:0.21602701" />
    <path
       id="path3288"
       d="m 185.886,380.62 3.975,5.276 c -1.496,0.44 -4.402,-2.462 -3.975,-5.276 z"
       style="fill:#b2b2b2;stroke:#000000;stroke-width:0.21602701" />
    <path
       id="path3290"
       d="m 185.153,388.461 c 1.618,1.759 3.09,4.574 4.854,5.277 -1.495,1.646 -5.281,-2.462 -4.854,-5.277 z"
       style="fill:#b2b2b2;stroke:#000000;stroke-width:0.21602701" />
    <path
       id="path3292"
       d="m 185.3,396.303 c 1.618,1.759 2.65,4.574 4.414,5.277 -1.495,1.646 -4.841,-2.462 -4.414,-5.277 z"
       style="fill:#b2b2b2;stroke:#000000;stroke-width:0.21602701" />
    <path
       id="path3294"
       d="m 184.567,402.637 c 1.618,1.759 2.796,4.423 4.561,5.126 -1.789,3.004 -4.988,-2.312 -4.561,-5.126 z"
       style="fill:#b2b2b2;stroke:#000000;stroke-width:0.21602701" />
    <path
       id="path3296"
       d="m 183.834,408.217 c 1.618,1.759 2.65,4.573 4.414,5.277 -1.495,1.646 -4.841,-2.463 -4.414,-5.277 z"
       style="fill:#b2b2b2;stroke:#000000;stroke-width:0.21602701" />
    <path
       id="path3298"
       d="m 252.187,405.232 c 0.138,4.057 0.265,8.031 0.307,11.408 l -1.534,1.119 c -0.632,-3.359 -0.846,-8.373 -0.921,-13.945 0.716,0.473 2.165,0.191 2.148,1.418 z m -0.217,-6.369 c -0.256,-7.841 -0.411,-14.966 0.084,-17.511 0.146,-1.332 0.427,-2.539 0.989,-3.149 l 0.275,-2.097 c -1.902,0.591 -4.131,4.112 -3.609,8.563 0.24,2.048 0.263,-1.627 0.283,7.968 0.006,2.736 0.003,5.504 0.019,8.193 l 0.741,-0.326 1.218,-1.641 z"
       style="fill:#ffffff;stroke:#000000;stroke-width:0.21602701" />
    <path
       id="path3300"
       d="m 251.496,391.088 c 1.493,0.802 3.126,2.353 4.478,2.406 -0.638,1.472 -4.13,-0.399 -4.478,-2.406 z"
       style="fill:#b2b2b2;stroke:#000000;stroke-width:0.21602701" />
    <path
       id="path3302"
       d="m 251.247,402.213 c 1.618,1.759 2.797,4.423 4.561,5.126 -1.789,3.003 -4.988,-2.312 -4.561,-5.126 z"
       style="fill:#b2b2b2;stroke:#000000;stroke-width:0.21602701" />
    <path
       id="path3304"
       d="m 251.402,384.307 c 1.298,1.104 2.581,2.971 3.894,3.312 -0.923,1.303 -3.959,-1.275 -3.894,-3.312 z"
       style="fill:#b2b2b2;stroke:#000000;stroke-width:0.21602701" />
    <path
       id="path3306"
       d="m 252.478,379.169 c 1.185,1.231 2.282,3.22 3.556,3.693 -1.044,1.203 -3.817,-1.673 -3.556,-3.693 z"
       style="fill:#b2b2b2;stroke:#000000;stroke-width:0.21602701" />
    <path
       id="path3308"
       d="m 251.687,398.744 c 1.618,1.759 4.555,1.709 4.414,4.222 -1.788,-1.219 -4.695,-2.614 -4.414,-4.222 z"
       style="fill:#b2b2b2;stroke:#000000;stroke-width:0.21602701" />
    <path
       id="path3310"
       d="m 252.273,411.412 c 1.618,1.759 4.555,1.708 4.414,4.221 -1.788,-1.219 -4.694,-2.613 -4.414,-4.221 z"
       style="fill:#b2b2b2;stroke:#000000;stroke-width:0.21602701" />
    <path
       id="path3312"
       d="m 252.134,416.579 c 1.299,1.104 2.582,2.971 3.895,3.312 -0.923,1.303 -3.959,-1.275 -3.895,-3.312 z"
       style="fill:#b2b2b2;stroke:#000000;stroke-width:0.21602701" />
    <path
       id="path3314"
       d="m 319.028,415.727 -0.118,-8.896 -1.196,-6.637 -1.04,0.852 c 0.034,7.308 0.245,13.823 1.328,17.094 l 1.026,-2.413 m -0.44,-33.177 c -0.103,-0.377 -0.176,-0.975 -0.184,-1.609 -0.014,-1.058 0.154,-2.217 0.669,-2.622 l 0.937,-2.843 c -0.39,-0.444 -0.75,-0.705 -0.982,-0.617 -1.69,-0.051 -2.178,3.259 -2.311,8.688 l 1.871,-0.997 z m -1.46,2.262 -0.449,1.258 c -0.012,1.474 -0.009,3.063 -0.006,4.75 0.003,1.923 -10e-4,3.867 -0.003,5.792 l 1.044,-1.394 0,-9.501 -0.586,-0.905 z"
       style="fill:#ffffff;stroke:#000000;stroke-width:0.21602701" />
    <path
       id="path3316"
       d="m 318.527,380.082 c 1.11,1.303 2.087,3.357 3.33,3.909 -1.113,1.135 -3.71,-1.909 -3.33,-3.909 z"
       style="fill:#b2b2b2;stroke:#000000;stroke-width:0.21602701" />
    <path
       id="path3318"
       d="m 318.38,385.209 c 1.11,1.303 2.088,3.357 3.331,3.909 -1.113,1.135 -3.711,-1.909 -3.331,-3.909 z"
       style="fill:#b2b2b2;stroke:#000000;stroke-width:0.21602701" />
    <path
       id="path3320"
       d="m 318.087,391.392 c 1.11,1.303 2.088,3.357 3.33,3.909 -1.112,1.135 -3.71,-1.909 -3.33,-3.909 z"
       style="fill:#b2b2b2;stroke:#000000;stroke-width:0.21602701" />
    <path
       id="path3322"
       d="m 318.527,397.123 c 1.11,1.303 2.087,3.357 3.33,3.909 -1.113,1.135 -3.71,-1.909 -3.33,-3.909 z"
       style="fill:#b2b2b2;stroke:#000000;stroke-width:0.21602701" />
    <path
       id="path3324"
       d="m 318.38,403.004 c 1.11,1.303 2.088,3.357 3.331,3.909 -1.113,1.135 -3.711,-1.909 -3.331,-3.909 z"
       style="fill:#b2b2b2;stroke:#000000;stroke-width:0.21602701" />
    <path
       id="path3326"
       d="m 318.966,409.489 c 1.111,1.303 2.088,3.357 3.331,3.909 -1.113,1.135 -3.71,-1.909 -3.331,-3.909 z"
       style="fill:#b2b2b2;stroke:#000000;stroke-width:0.21602701" />
    <path
       id="path3328"
       d="m 319.406,414.164 c 1.11,1.303 2.088,3.357 3.331,3.909 -1.113,1.135 -3.711,-1.909 -3.331,-3.909 z"
       style="fill:#b2b2b2;stroke:#000000;stroke-width:0.21602701" />
    <path
       id="path3330"
       d="m 395.051,398.831 c 0.855,-0.967 0.342,-1.626 -0.513,-2.242 -2.713,0.352 -3.354,3.517 -1.538,13.851 1.197,2.507 2.65,2.639 4.744,2.771 l 0.384,-1.847 c -1.881,0.132 -3.076,-0.616 -3.59,-2.243 -0.613,-5.904 -1.598,-8.256 0.513,-10.29 z"
       style="fill:#b2b2b2;stroke:#00ff00;stroke-width:0.21602701" />
    <path
       id="path3332"
       d="m 395.051,398.831 c 0.855,-0.967 0.342,-1.626 -0.513,-2.242 -1.356,0.176 -2.195,1.055 -2.467,3.182 0.196,3.536 2.385,5.065 1.702,2.754 -0.058,-1.581 0.223,-2.677 1.278,-3.694 z"
       style="fill:#ffffff;stroke:#00ff00;stroke-width:0.21602701" />
    <path
       id="path3334"
       d="m 394.088,401.478 c 1.11,1.303 2.087,3.357 3.33,3.909 -1.113,1.135 -3.71,-1.908 -3.33,-3.909 z"
       style="fill:#b2b2b2;stroke:#000000;stroke-width:0.21602701" />
    <path
       id="path3336"
       d="m 394.344,405.436 c 1.11,1.303 3.626,3.225 4.1,4.173 -1.113,1.135 -4.48,-2.173 -4.1,-4.173 z"
       style="fill:#b2b2b2;stroke:#000000;stroke-width:0.21602701" />
    <path
       id="path3338"
       d="m 394.857,398.312 c 1.11,1.303 1.318,1.906 2.561,2.458 -1.113,1.135 -2.941,-0.458 -2.561,-2.458 z"
       style="fill:#b2b2b2;stroke:#000000;stroke-width:0.21602701" />
    <path
       id="path3340"
       d="m 376.585,404.81 c 5.407,-0.181 10.629,-0.173 15.51,-1.279 l -0.541,1.626 c -2.676,0.846 -8.497,1.372 -15.225,1.25 l 0.256,-1.597 z"
       style="fill:#b2b2b2;stroke:#000000;stroke-width:0.21602701" />
    <path
       id="path3342"
       d="m 455.574,377.806 c 3.356,0.083 7.296,-0.213 10.766,-1.055 l -0.541,1.627 c -2.163,0.846 -6.574,1.147 -10.481,1.025 l 0.256,-1.597 z"
       style="fill:#b2b2b2;stroke:#000000;stroke-width:0.21602701" />
    <path
       id="path3344"
       d="m 38.3491,367.797 c 2.4347,0.333 5.7728,1.626 9.234,2.509 l 1.3602,2.907 c -2.2994,-0.265 -7.2137,-1.642 -10.6346,-3.588 l 0.0404,-1.828 z"
       style="fill:#b2b2b2;stroke:#000000;stroke-width:0.21602701" />
    <path
       id="path3346"
       d="m 38.3491,367.797 c 2.4347,0.333 5.7728,1.626 9.234,2.509 l 0.5837,1.248 c -0.6879,-0.178 -11.0743,-3.135 -9.8389,-2.804 l 0.0212,-0.953 z"
       style="fill:#ffffff;stroke:#000000;stroke-width:0.21602701" />
  </g>
  <g
     id="g3348" />
</svg>
