<?xml version="1.0" encoding="UTF-8" standalone="no"?>
<!-- Created with Inkscape (http://www.inkscape.org/) -->
<svg
   xmlns:dc="http://purl.org/dc/elements/1.1/"
   xmlns:cc="http://web.resource.org/cc/"
   xmlns:rdf="http://www.w3.org/1999/02/22-rdf-syntax-ns#"
   xmlns:svg="http://www.w3.org/2000/svg"
   xmlns="http://www.w3.org/2000/svg"
   xmlns:sodipodi="http://sodipodi.sourceforge.net/DTD/sodipodi-0.dtd"
   xmlns:inkscape="http://www.inkscape.org/namespaces/inkscape"
   width="499.99826"
   height="577.92725"
   id="svg1901"
   sodipodi:version="0.32"
   inkscape:version="0.45.1"
   sodipodi:docname="Pedersöre.vaakuna.svg"
   sodipodi:docbase="D:\Eigene Datein\AR\wp\Kuwat\SVG muokkaus\Valmiit"
   version="1.0"
   inkscape:output_extension="org.inkscape.output.svg.inkscape">
  <defs
     id="defs1903" />
  <sodipodi:namedview
     id="base"
     pagecolor="#ffffff"
     bordercolor="#666666"
     borderopacity="1.0"
     inkscape:pageopacity="0.0"
     inkscape:pageshadow="2"
     inkscape:zoom="0.7"
     inkscape:cx="242.94777"
     inkscape:cy="284.64571"
     inkscape:document-units="px"
     inkscape:current-layer="layer1"
     gridtolerance="10000"
     inkscape:window-width="1680"
     inkscape:window-height="950"
     inkscape:window-x="0"
     inkscape:window-y="60" />
  <metadata
     id="metadata1906">
    <rdf:RDF>
      <cc:Work
         rdf:about="">
        <dc:format>image/svg+xml</dc:format>
        <dc:type
           rdf:resource="http://purl.org/dc/dcmitype/StillImage" />
      </cc:Work>
    </rdf:RDF>
  </metadata>
  <g
     inkscape:label="Taso 1"
     inkscape:groupmode="layer"
     id="layer1"
     style="opacity:1"
     transform="translate(-115.17275,-146.42785)">
    <path
       style="fill:#df0000;fill-opacity:1;stroke:#000000;stroke-width:1;stroke-opacity:1"
       d="M 115.67275,146.92785 L 117.44237,275.62687 C 118.4319,346.41133 120.94779,439.16558 123.0086,481.73835 C 126.63712,556.69835 127.3094,560.16768 144.37264,592.19428 C 193.40814,674.88229 263.72678,723.50024 365.34884,723.85337 C 466.97091,724.20648 543.9314,669.56393 585.97113,592.19428 C 603.03435,560.16768 603.70665,556.69835 607.33516,481.73835 C 609.39595,439.16558 611.91187,346.41133 612.9014,275.62687 L 614.67101,146.92785 L 115.67275,146.92785 z "
       id="path2167"
       sodipodi:nodetypes="ccsczcsccc" />
    <path
       id="path3244"
       style="fill:#bf9f4f;fill-opacity:1;fill-rule:evenodd;stroke:#000000;stroke-width:1px;stroke-linecap:butt;stroke-linejoin:miter;stroke-opacity:1"
       d="M 561.99735,396.39767 L 503.55174,396.83429 C 503.55174,396.83429 514.38349,420.21329 518.74011,438.68809 C 509.01425,435.36174 499.58602,430.42636 490.51531,424.21703 L 490.14106,472.71379 C 500.69075,466.74796 511.13036,460.79797 522.01481,457.24472 C 526.30952,484.34455 532.77454,530.50445 532.77454,530.50445 C 532.77454,530.50445 539.23956,484.34455 543.53427,457.24472 C 554.41873,460.79797 564.85834,466.74796 575.40803,472.71379 L 575.03378,424.21703 C 565.96307,430.42636 556.53483,435.36174 546.80898,438.68809 C 551.16561,420.21139 561.99736,396.81303 561.99735,396.39767 z M 226.79204,396.39767 L 168.34643,396.83429 C 168.34643,396.83429 179.17817,420.21329 183.5348,438.68809 C 173.80894,435.36174 164.38071,430.42636 155.31,424.21703 L 154.93575,472.71379 C 165.48544,466.74796 175.92505,460.79797 186.8095,457.24472 C 191.10421,484.34455 197.56923,530.50445 197.56923,530.50445 C 197.56923,530.50445 204.03425,484.34455 208.32896,457.24472 C 219.21341,460.79797 229.65302,466.74796 240.20272,472.71379 L 239.82846,424.21703 C 230.75776,430.42636 221.32952,435.36174 211.60366,438.68809 C 215.9603,420.21139 226.79205,396.81303 226.79204,396.39767 z M 394.39469,218.46162 L 335.94908,218.89824 C 335.94908,218.89824 346.78083,242.27724 351.13746,260.75204 C 341.4116,257.42569 331.98337,252.49031 322.91266,246.28098 L 322.5384,294.77774 C 333.0881,288.81191 343.52771,282.86192 354.41216,279.30867 C 358.70687,306.4085 365.17189,352.56841 365.17189,352.56841 C 365.17189,352.56841 371.63691,306.4085 375.93162,279.30867 C 386.81607,282.86192 397.25568,288.81191 407.80537,294.77774 L 407.43112,246.28098 C 398.36041,252.49031 388.93218,257.42569 379.20632,260.75204 C 383.56296,242.27534 394.3947,218.87698 394.39469,218.46162 z " />
    <path
       style="fill:#bf9f4f;fill-opacity:1;stroke:#000000;stroke-width:1;stroke-miterlimit:4;stroke-dashoffset:0;stroke-opacity:1"
       d="M 201.37634,169.25819 L 273.94995,510.66912 C 277.33638,547.79733 283.55587,587.8966 300.74012,621.91538 C 316.06182,641.08183 333.90009,657.06991 359.37285,658.84153 L 359.37285,699.978 L 370.97465,699.978 L 370.97465,658.84153 C 396.44741,657.06991 414.28568,641.08183 429.60738,621.91538 C 446.79164,587.8966 453.01112,547.79733 456.39755,510.66912 L 528.97116,169.25819 L 521.67325,169.25819 L 448.9749,511.38644 C 431.56445,532.14968 414.3873,550.55187 393.99112,567.74247 C 375.24224,583.54468 368.36425,595.85118 365.17375,604.63743 C 361.98325,595.85118 355.10527,583.54468 336.35638,567.74247 C 315.9602,550.55187 298.78306,532.14968 281.3726,511.38644 L 208.67425,169.25819 L 201.37634,169.25819 z "
       id="path7241" />
    <path
       style="fill:#bf9f4f;fill-opacity:1;stroke:#000000;stroke-width:1;stroke-miterlimit:4;stroke-dashoffset:0;stroke-opacity:1"
       d="M 233.28128,169.25819 L 291.88283,444.89442 C 293.57404,454.00001 295.84851,466.34235 299.7733,488.24522 C 310.82263,549.9076 353.94621,564.16479 356.44122,568.08554 C 358.93622,572.00627 357.87585,588.76293 357.87585,588.76293 L 372.47165,588.76293 C 372.47166,588.76293 371.41127,572.00627 373.90629,568.08554 C 376.40129,564.16479 419.52487,549.9076 430.5742,488.24522 C 434.49899,466.34235 436.77346,454.00001 438.46467,444.89442 L 497.06622,169.25819 L 489.76831,169.25819 L 433.69296,433.07431 C 430.58745,444.36734 423.15174,464.90426 408.11911,475.4271 C 386.73331,490.39717 378.54879,499.64653 375.34092,504.99297 C 370.91567,511.11119 368.4184,518.1461 365.45444,524.98424 C 362.1816,518.20221 358.90007,511.48403 355.00658,504.99297 C 351.79871,499.64653 343.61419,490.39717 322.22839,475.4271 C 307.19576,464.90426 299.76005,444.36734 296.65454,433.07431 L 240.57919,169.25819 L 233.28128,169.25819 z "
       id="path7239" />
    <path
       style="fill:#bf9f4f;fill-opacity:1;stroke:#000000;stroke-width:1;stroke-miterlimit:4;stroke-dashoffset:0;stroke-opacity:1"
       d="M 266.09067,169.25819 L 306.16676,357.7562 C 306.80252,363.77566 308.57078,377.06286 313.46467,407.68758 C 322.20212,462.36426 356.30832,475.00691 358.28128,478.48349 C 360.25426,481.96004 359.40404,507.35752 359.40404,507.35752 L 370.31971,507.35752 C 370.31971,507.35752 369.46948,481.96004 371.44246,478.48349 C 373.41543,475.00691 407.52161,462.36426 416.25908,407.68758 C 421.39837,375.52723 423.10032,362.4021 423.65055,356.85175 L 463.53952,169.25819 L 456.24162,169.25819 L 412.11113,376.9054 L 412.1735,376.9054 C 409.17252,384.11772 404.82865,391.347 398.51332,396.3041 C 381.60212,409.5782 375.13308,417.79213 372.5964,422.53289 C 369.65653,428.02316 367.34714,433.58189 365.17375,439.4054 C 363.00035,433.58189 360.06721,428.02316 357.12734,422.53289 C 354.59066,417.79213 348.12162,409.5782 331.21043,396.3041 C 324.83373,391.29883 320.49157,383.96913 317.48787,376.68708 L 273.38857,169.25819 L 266.09067,169.25819 z "
       id="path6236" />
  </g>
</svg>
