<?xml version="1.0" encoding="UTF-8"?>
<!DOCTYPE svg PUBLIC "-//W3C//DTD SVG 1.1//EN" "http://www.w3.org/Graphics/SVG/1.1/DTD/svg11.dtd">
<!-- Creator: CorelDRAW -->
<svg xmlns="http://www.w3.org/2000/svg" xml:space="preserve" width="500px" height="581px" shape-rendering="geometricPrecision" text-rendering="geometricPrecision" image-rendering="optimizeQuality" fill-rule="evenodd" clip-rule="evenodd"
viewBox="0 0 500 581"
 xmlns:xlink="http://www.w3.org/1999/xlink"
 xmlns:svg="http://www.w3.org/2000/svg"
 version="1.0">
 <g id="Layer_x0020_1">
  <metadata id="CorelCorpID_0Corel-Layer"/>
  <path id="path1937" fill="#F00000" stroke="black" stroke-width="0.510236" d="M0.309827 0.92693l499.412 -0.000283465 -0.000850394 329.207c-20.4044,331.227 -483.404,332.441 -499.412,-7.57531l0 -321.632z"/>
  <path fill="#BF9F4F" d="M241.466 22.5695c24.8539,-5.37449 40.3322,6.29377 43.3375,26.5238 2.48995,16.7618 -4.88325,38.5297 -2.50016,53.2715 1.88277,11.6473 16.4611,20.4029 22.6188,30.0643 5.43317,8.5252 2.08091,18.1936 5.73137,25.5308 1.66082,-9.76139 9.03317,-13.8135 17.2208,-17.0493 -18.0269,31.7024 15.2824,64.5452 15.6183,96.5807 0.278079,26.5436 -15.4494,51.052 -0.837638,67.301 3.02825,-39.7959 24.4247,-51.9939 32.2444,-70.632 5.56725,-13.2693 -6.59764,-31.839 9.91049,-63.6041l8.83049 24.0557c13.549,-9.97654 -3.58668,-41.586 9.86372,-66.4994 12.0546,-22.3288 50.5715,-43.1255 75.7018,-25.0767 -14.9097,5.72372 -27.4907,8.95834 -32.5452,28.1398 -5.0984,19.3496 3.02145,35.5286 7.27229,48.7208 4.24318,-3.13909 8.48693,-5.46605 12.731,-6.98032 -15.1781,27.3285 10.5287,59.8873 1.98227,106.792 -7.70684,42.2966 -43.2805,73.3933 -56.933,98.6338 -21.1368,39.0782 -1.71496,78.2309 -44.1088,122.403 -25.4716,26.5397 -95.4131,29.1002 -116.385,62.5315 -23.8399,-42.0616 -103.92,-32.2932 -132.534,-72.5874 -45.5905,-64.2016 -18.3708,-105.746 -41.9757,-140.381 -13.5391,-19.8663 -39.8455,-35.4371 -44.1346,-80.3503 -4.47279,-46.8355 22.6599,-75.1156 11.124,-103.745 4.24403,1.51427 10.9256,13.5924 15.1688,16.7315 4.25084,-13.1922 9.32344,-32.4184 4.22504,-51.768 -5.05446,-19.1815 -17.6355,-26.0728 -32.5452,-31.7965 25.1303,-18.0488 63.6472,6.4046 75.7018,28.7334 11.6221,23.6945 4.84696,18.737 8.64482,34.808 2.33433,-8.83049 9.54426,-13.1924 16.7533,-15.5234 -12.1623,28.681 6.59821,35.0184 10.2013,53.6701 3.60312,18.6511 -3.07361,39.2582 -0.290835,45.8915 7.81796,18.637 21.9028,21.6944 24.931,61.4903 18.2685,-36.9703 -1.72517,-45.633 -1.44709,-72.1766 -2.61695,-40.9204 41.853,-65.3244 30.8546,-96.5807 11.2473,2.21613 17.3957,15.2084 17.2208,25.5816 21.3245,-23.7923 -9.45298,-51.1348 6.95027,-82.2096 7.98605,-20.022 41.9709,-33.135 21.3985,-60.4942z"/>
  <path fill="black" stroke="black" stroke-width="0.992126" d="M243.279 499.42l0.0170079 28.4426 14.6733 0.0980788 -0.0252284 -28.944c25.0311,-0.592441 40.1584,-15.05 40.8118,-49.773l22.5496 -225.496 -6.39922 -0.0272126 -7.96366 78.9857 -2.39698 -0.0711496 5.18032 -78.9367 -6.70252 -0.0289134 -4.03229 77.472 -2.67137 -0.079937 2.74252 -77.4094 -6.09591 -0.0263622 -3.53934 79.691 -3.16318 -0.77641 2.74139 -78.9319 -7.61811 -0.0328819 -2.44035 79.4923c-2.2028,2.3709 -4.71033,4.13235 -6.60813,7.11241 -4.98785,-10.6557 -10.4579,-19.3825 -16.2578,-26.7888l0.318047 -59.9239 -7.92256 -0.0342992 -0.659339 60.0245c-6.5452,5.8527 -12.0875,15.5208 -17.0067,27.061 -2.74507,-2.33518 -5.49014,-5.58482 -8.23522,-7.31084l-2.13307 -79.8959 -7.31311 -0.031748 2.43865 79.3914 -2.74195 0.437386 -4.26756 -79.8475 -6.09704 -0.031748 3.88829 80.6664 -2.66882 -0.226488 -5.17947 -80.754 -5.18003 0.278079 5.60608 81.0083 -2.86073 -0.263906 -7.31594 -80.7642 -7.61811 -0.340441 23.4434 230.474c-0.811843,26.0371 10.2603,42.8301 38.7034,46.1132z"/>
  <path fill="none" stroke="#BF9F4F" stroke-width="0.992126" d="M213.433 302.367l4.50085 54.5723c21.4537,11.7179 32.8513,26.9907 34.8032,47.6479 1.29033,-20.5716 14.0119,-35.3004 35.4212,-47.2346l1.45587 -54.0715"/>
  <path fill="none" stroke="#BF9F4F" stroke-width="0.992126" d="M204.901 302.671l9.68117 96.3196c21.4537,11.7179 37.4222,19.6773 37.5458,48.8668 2.50923,-25.4472 17.6686,-35.9099 39.0779,-47.844l6.94092 -98.2565"/>
  <path fill="none" stroke="#BF9F4F" stroke-width="0.992126" d="M196.368 304.195l14.8615 138.372c21.4537,11.7179 40.1647,16.3253 40.8977,47.0384 2.20451,-30.9322 21.0206,-35.9099 42.4298,-47.844l12.1212 -139.394"/>
  <path fill="none" stroke="#BF9F4F" stroke-width="0.992126" d="M222.575 302.671c17.8081,16.5796 32.1171,33.999 29.5645,55.4664 -2.4531,-16.115 7.1178,-34.9852 27.419,-55.1617"/>
  <path fill="#BF9F4F" d="M274.834 321.26c-1.30932,1.06554 -3.19975,0.923245 -5.33197,4.87559 -2.13222,3.95235 -1.7657,7.7709 -0.609166,9.90397 2.07071,-0.609449 4.87616,-0.923528 6.70394,-5.48589 1.82778,-4.56236 0.394299,-6.40148 -0.762804,-9.29367z"/>
  <path fill="#BF9F4F" d="M277.026 372.766c-1.30932,1.06554 -3.19975,0.923245 -5.33197,4.87559 -2.13222,3.95235 -1.7657,7.7709 -0.609166,9.90397 2.07071,-0.609449 4.87616,-0.923528 6.70394,-5.48589 1.82778,-4.56236 0.394299,-6.40148 -0.762804,-9.29367z"/>
  <path fill="#BF9F4F" d="M279.218 417.697c-1.30932,1.06554 -3.19975,0.923245 -5.33197,4.87559 -2.13222,3.95235 -1.7657,7.7709 -0.609166,9.90397 2.07071,-0.609449 4.87616,-0.923528 6.70394,-5.48589 1.82778,-4.56236 0.394299,-6.40148 -0.762804,-9.29367z"/>
  <path fill="#BF9F4F" d="M280.314 456.052c-1.30932,1.06554 -3.19975,0.923245 -5.33197,4.87559 -2.13222,3.95235 -1.7657,7.7709 -0.609166,9.90397 2.07071,-0.609449 4.87616,-0.923528 6.70394,-5.48589 1.82778,-4.56236 0.394299,-6.40148 -0.762804,-9.29367z"/>
  <path fill="#BF9F4F" d="M249.629 291.671c-1.30932,1.06554 -3.19975,0.923245 -5.33197,4.87559 -2.13222,3.95235 -1.7657,7.7709 -0.609166,9.90397 2.07071,-0.609449 4.87616,-0.923528 6.70394,-5.48589 1.82778,-4.56236 0.394299,-6.40148 -0.762804,-9.29367z"/>
  <path fill="#BF9F4F" d="M225.845 321.432c0.268158,1.66677 -0.800504,3.23263 1.55622,7.05544 2.35673,3.82281 5.84703,5.41446 8.27263,5.47937 0.507402,-2.09792 1.63814,-4.68454 -1.3989,-8.54873 -3.03732,-3.86391 -5.34671,-3.54218 -8.42996,-3.98608z"/>
  <path fill="#BF9F4F" d="M221.883 412.545c0.268158,1.66677 -0.800504,3.23263 1.55622,7.05544 2.35673,3.82281 5.84703,5.41446 8.27263,5.47937 0.507402,-2.09792 1.63814,-4.68454 -1.3989,-8.54873 -3.03732,-3.86391 -5.34671,-3.54218 -8.42996,-3.98608z"/>
  <path fill="#BF9F4F" d="M222.493 371.712c0.268158,1.66677 -0.800504,3.23263 1.55622,7.05544 2.35673,3.82281 5.84703,5.41446 8.27263,5.47937 0.507402,-2.09792 1.63814,-4.68454 -1.3989,-8.54873 -3.03732,-3.86391 -5.34671,-3.54218 -8.42996,-3.98608z"/>
  <path fill="#BF9F4F" d="M217.313 454.597c0.268158,1.66677 -0.800504,3.23263 1.55622,7.05544 2.35673,3.82281 5.84703,5.41446 8.27263,5.47937 0.507402,-2.09792 1.63814,-4.68454 -1.3989,-8.54873 -3.03732,-3.86391 -5.34671,-3.54218 -8.42996,-3.98608z"/>
  <line fill="none" stroke="white" stroke-width="0.992126" x1="196.673" y1="302.671" x2="189.055" y2= "221.919" />
  <line fill="none" stroke="white" stroke-width="0.992126" x1="204.426" y1="303.89" x2="198.331" y2= "221.919" />
  <line fill="none" stroke="white" stroke-width="0.992126" x1="213.872" y1="303.281" x2="208.083" y2= "221.919" />
  <path fill="none" stroke="white" stroke-width="0.992126" d="M229.718 309.071c-1.46296,-2.13165 -3.12945,-4.56832 -6.22403,-6.69572l-2.61298 -79.8461"/>
  <line fill="none" stroke="white" stroke-width="0.992126" x1="287.006" y1="302.671" x2="289.749" y2= "223.138" />
  <line fill="none" stroke="white" stroke-width="0.992126" x1="295.843" y1="302.062" x2="299.195" y2= "222.529" />
  <line fill="none" stroke="white" stroke-width="0.992126" x1="305.29" y1="301.757" x2="310.165" y2= "222.529" />
  <path fill="none" stroke="white" stroke-width="0.992126" d="M258.667 527.863l-0.100063 -29.0872c27.6188,1.13471 39.7982,-18.2931 40.8042,-50.4754l22.0691 -225.162"/>
  <path fill="none" stroke="white" stroke-width="0.992126" d="M272.684 308.766c-5.01421,-9.80193 -10.2824,-18.5375 -16.1084,-25.9022l0.262772 -60.0302"/>
 </g>
</svg>
