<?xml version="1.0" encoding="UTF-8"?>
<!DOCTYPE svg PUBLIC "-//W3C//DTD SVG 1.1//EN" "http://www.w3.org/Graphics/SVG/1.1/DTD/svg11.dtd">
<!-- Creator: CorelDRAW -->
<svg xmlns="http://www.w3.org/2000/svg" xml:space="preserve" width="500px" height="569px" shape-rendering="geometricPrecision" text-rendering="geometricPrecision" image-rendering="optimizeQuality" fill-rule="evenodd" clip-rule="evenodd"
viewBox="0 0 500 569"
 xmlns:xlink="http://www.w3.org/1999/xlink"
 xmlns:svg="http://www.w3.org/2000/svg"
 version="1.0">
 <g id="Layer_x0020_1">
  <metadata id="CorelCorpID_0Corel-Layer"/>
  <path id="path1937" fill="#CCCCCC" stroke="#F00000" stroke-width="1.98425" d="M0.943087 1.51994l498.145 -0.000283465 -0.000283465 320.97c-22.5448,326.684 -480.421,326.418 -498.145,0.0289134l0.000283465 -320.998z"/>
  <path id="path1937_0" fill="#F00000" d="M480.036 411.18c-80.432,207.476 -379.304,208.646 -459.514,3.924 3.8194,-0.032315 1.69937,-1.61263 13.0422,-2.31534 11.3431,-0.702992 21.6955,12.4637 35.6967,13.6174 14.0009,1.1537 28.7739,-16.0724 43.8772,-16.2009 15.1033,-0.128126 27.6537,17.4767 44.8472,17.331 17.1933,-0.145984 29.346,-14.8107 45.9808,-14.9525 16.6348,-0.141732 26.8861,15.6033 44.1916,15.457 17.3055,-0.145984 33.77,-18.6545 49.5457,-18.7886 15.7754,-0.134362 26.731,15.5832 45.1077,15.4485 18.3767,-0.134362 32.1517,-18.0349 48.6819,-17.5249 16.5302,0.509953 21.8395,14.9859 37.1934,15.5112 15.3541,0.524977 28.6183,-14.4953 39.3639,-14.2506 10.7456,0.244347 6.59877,0.24548 11.986,2.74365z"/>
  <path fill="black" stroke="black" stroke-width="0.992126" d="M161.399 193.983l8.00107 -11.4744 -2.2303 -18.2359 14.8896 -7.62548 -0.771591 -17.9093 -11.1892 -3.56769 -7.96026 13.4368c-5.52501,-1.24923 -10.98,-2.35984 -16.3502,-3.22526l0.403087 -14.201 -18.049 -3.48577 -5.31213 16.1136c-4.90422,0.076252 -9.7098,0.208913 -14.4043,1.12507l-6.96133 -15.8233 -18.2381 1.59761 -0.613985 19.2651c-5.73222,1.11884 -11.1019,3.60851 -16.4891,5.90287l-11.7743 -11.7972 -12.8787 10.2583 10.5083 37.0015 28.7249 13.3489c21.672,-18.7693 49.7319,-18.959 80.6956,-10.7045z"/>
  <path fill="black" stroke="black" stroke-width="0.992126" d="M342.498 193.55l-9.08249 -14.5023 1.36517 -21.0475 -13.5918 -5.89522 -0.0935434 -14.4488 15.9474 -4.00025 6.0137 13.2205c5.52501,-1.24923 7.30318,-0.845859 12.6734,-1.71128l2.4086 -15.0661 14.8048 -0.890363 5.09585 14.167c4.90422,0.076252 10.7912,0.208913 15.4857,1.12507l8.25903 -16.4721 17.1567 2.89531 -0.9 17.7511c6.02079,0.253984 11.8233,4.25764 16.9217,7.41685l10.4766 -10.067 14.3926 8.9606 -10.292 39.3806 -28.2923 11.6187c-21.672,-18.7693 -47.7853,-20.6892 -78.749,-12.4347z"/>
  <path fill="black" d="M194.894 99.7966c2.6331,-12.4452 5.84306,-24.2416 9.62986,-36.6869 -5.64974,0.746363 -11.1198,1.20501 -16.1924,3.10479l-12.9124 -23.1769 -8.5938 -1.40485 -5.14857 15.8159c-5.74158,-0.888945 -6.87147,-0.268725 -10.7269,-0.413575l-5.65285 -12.2545 -15.2374 1.05619 -2.06788 14.167c-5.33679,0.941386 -9.27723,2.80432 -13.7554,4.36933l-9.34045 -11.065 -13.2636 5.707 2.41399 13.6417c-4.35997,2.5628 -6.77481,5.12362 -11.5146,9.14712l-9.39515 -6.17386 -12.8787 10.2583 8.1292 20.3477 28.5086 12.0512c21.672,-18.7693 67.0346,-26.7452 97.9983,-18.4907z"/>
  <path fill="black" d="M310.3 99.364c-2.6331,-12.4452 -8.65474,-23.8091 -12.4415,-36.2543 4.13575,1.39521 6.79408,2.07014 11.8667,3.96992l16.3729 -27.5026 7.94495 -0.10715 2.33688 16.4648c5.74158,-0.888945 7.08775,-0.052441 10.9432,-0.197291l8.24826 -17.8778 15.8862 3.00274 0.337606 19.3578c5.33679,0.941386 9.27723,2.15547 13.7554,3.72047l11.5033 -11.9302 13.6962 7.0047 -3.06284 16.886c4.35997,2.5628 5.26082,3.17707 10.0006,7.20057l12.8557 -8.55298 10.9321 10.2583 -10.0758 17.536 -29.1575 11.8349c-22.8481,-20.1419 -63.3033,-25.7803 -91.9423,-14.8139z"/>
  <path fill="black" stroke="#CCCCCC" stroke-width="2.83465" d="M189.637 64.7439c15.5753,-7.7573 106.146,-9.11481 118.912,-0.318614l16.429 -24.2935 -4.09153 -21.0997 -10.3022 -3.1561 -7.03758 11.1166c-4.39002,-2.18296 -2.96589,-0.51789 -7.93219,-2.12428l0.716315 -14.9431 -17.3322 -3.06142 -6.11037 12.977c-3.96,-0.243496 -7.13622,-0.450709 -10.2702,-0.613701l-2.17984 -14.5809 -17.0544 -0.0382677 -3.15241 14.3496c-3.42766,0.117921 -7.21361,0.31011 -11.6589,0.585355l-4.82287 -11.9755 -16.092 3.05008 -2.52822 13.9938c-3.5538,1.52787 -5.50772,1.85726 -8.48268,3.96255l-7.91178 -11.198 -11.0174 4.87729 -0.898867 20.668 12.8186 21.8228z"/>
  <path fill="black" stroke="black" stroke-width="0.992126" d="M253.824 424.936c-5.62054,-4.03058 -9.92098,-13.0751 -11.3182,-33.1518 -15.9353,6.19994 -16.6113,0.263622 -27.0332,0.167811 -8.11049,-0.0745512 -10.6101,6.37399 -21.9087,3.14958 -11.2419,-3.20825 -19.0497,-5.71918 -17.0442,-9.45667 1.02104,-2.57669 15.2739,-0.127276 21.2879,-1.84592 7.03446,-2.01005 11.2124,-6.9429 18.3311,-8.10426 7.92312,-1.29288 10.4652,6.912 23.7716,-0.397418l-1.94003 -16.8846c-23.3816,16.4058 -50.8502,3.09799 -67.7736,16.0838 -13.4323,10.3065 -13.6307,21.7769 -10.2682,28.6736 3.57931,7.34174 11.2827,10.7476 9.95868,12.3256 -2.53049,6.19059 -31.0244,0.982205 -26.5887,-33.6728l-14.8604 -3.48378c-8.9076,8.371 -4.02236,22.9428 -23.2231,23.5772 -26.8603,0.887811 -32.4584,-13.6366 -30.0229,-16.8681 3.04583,-3.34006 8.88917,2.63225 14.6086,4.92888 8.92177,3.58299 17.3211,4.34495 20.3749,-13.8022 -20.5379,5.60183 -37.8071,0.550205 -43.4285,-9.01701 -1.63361,-2.78051 -4.02662,-6.86665 -3.43276,-9.88867 3.2023,-4.70948 14.5673,8.20092 28.1112,6.98854 12.5045,-1.1194 21.352,-7.03616 33.2785,-7.79216 9.27667,-0.587906 17.6051,4.60658 26.6811,2.85534 9.60945,-1.85443 14.2866,-9.61342 22.0771,-12.2961 10.1673,-3.50107 21.507,4.47251 35.6681,-5.38356 16.6808,-11.6093 10.2492,-44.877 15.4341,-105.156 -31.5017,-13.0844 -30.0739,9.61002 -48.9104,9.19049l-0.306425 10.5744c2.35502,1.81304 6.9857,2.97411 10.0794,5.59559 1.9885,1.6852 -0.303874,5.30051 0.359433,8.13997 0.663307,2.83975 3.65046,4.27266 3.53679,6.65887 -0.0915591,1.91707 -3.40299,5.21065 -4.18167,8.17597 -0.605481,2.30599 1.44567,4.28967 0.482173,6.07833 -0.709796,1.31754 -3.70177,3.53707 -4.50851,5.44422 -0.91389,2.16113 0.347528,4.01273 -0.599528,5.34274 -3.92173,5.50914 -5.49865,-0.946772 -7.96252,12.7593l-5.84873 0.198142c-0.318047,-10.3842 -2.62573,-11.4103 -6.80627,-13.4773 -1.72347,-0.852095 -0.488977,-3.46621 -1.24328,-5.33169 -0.754583,-1.86548 -3.49909,-2.98432 -4.31603,-4.64315 -1.14265,-2.32073 0.550205,-5.0006 0.555307,-7.55859 0.00311811,-1.53524 -1.81701,-3.02797 -1.81701,-4.37188 0,-2.51036 2.73827,-5.42126 3.41462,-8.61534 0.676347,-3.19436 -0.708945,-6.67304 1.17468,-9.05188 2.93017,-3.7012 9.01786,-4.25877 9.01673,-8.16435l-0.714615 -6.74363c-38.3774,0.133228 -35.1167,-20.8219 -43.9793,-25.8106 -7.46448,-4.2018 -20.9923,4.6664 -28.1461,-24.2467l7.95685 -4.46599c0.56126,7.13934 2.4429,12.9583 7.22807,15.874l10.4136 1.17298 -5.27783 -19.1529 9.81638 -0.869953c1.21606,7.36356 3.22441,14.4627 6.97493,20.9812 7.17648,0.00822048 10.1313,-6.73909 8.86451,-20.2408l8.12041 0.379559c1.3578,15.5704 -3.29981,24.1744 -12.0733,29.6119 1.62822,6.1492 1.76258,10.8706 25.7822,13.0649 14.5851,1.33228 18.182,-12.2023 30.1136,-16.5274 16.033,-5.81188 36.6262,9.32826 36.7404,-5.09103l0.36652 -76.8192c-1.57521,-14.8879 -35.2775,0.865701 -55.1444,-12.56 -10.7898,-0.959245 -21.5107,4.63266 -34.202,0.204095 -7.45994,-2.60306 -16.5169,-10.4757 -20.9758,-17.6131l10.2336 -4.26416c5.07912,16.7511 18.1806,19.4635 36.7702,12.5717 -3.8058,-4.896 -6.7663,-10.2147 -8.88265,-15.9551l12.128 -1.05194c14.9114,26.9051 22.8345,17.4835 60.7386,18.3532 3.48151,-1.53411 4.64173,-4.44104 5.38016,-7.77005l-1.00743 -15.8791c-0.785764,-10.8981 -21.0336,1.35156 -24.9438,-31.5729l9.75657 -0.960378c0.291685,12.3472 2.27424,18.6761 18.9298,17.0861 1.89723,-3.90813 2.84514,-11.6025 2.21017,-18.889l21.043 -0.436536c-0.634961,7.28646 -0.320315,16.0506 1.57691,19.9588 13.8603,3.75761 19.0086,-4.78885 22.4127,-18.3526l7.85679 1.27701c-3.91011,32.9244 -24.7913,22.2579 -25.577,33.156l0.575717 13.0295c0.738426,3.32901 2.84854,5.91931 6.96331,7.13679 10.0681,-0.23074 18.1103,0.264189 24.7723,0.611717 18.4173,0.960662 26.2823,0.793418 37.2328,-18.9649l11.1781 0.102047c-2.11635,5.74044 -5.39348,14.2254 -9.19928,19.1214 13.4444,4.38548 30.5039,0.776126 36.7702,-13.2049l8.65049 4.58079c-4.4589,7.13736 -12.8829,14.377 -20.3426,16.9798 -12.691,4.42829 -22.4623,-0.213449 -33.2521,0.745796 -20.9602,13.0972 -60.6714,-3.11046 -57.3608,13.5099l2.58293 75.8693c0.114236,14.4193 21.6576,0.229323 37.6903,6.04092 11.9313,4.32482 13.6293,15.643 28.2138,14.311 24.0194,-2.19373 23.2041,-10.082 24.8324,-16.2312 -8.77352,-5.43742 -11.5313,-9.6086 -10.1735,-25.179l8.12041 -0.379559c-0.633544,13.1851 1.3714,17.3993 8.54788,17.3911 3.75052,-6.51855 6.0755,-10.768 7.29156,-18.1315l10.133 0.869953 -6.22772 17.5697 10.097 -2.75613c4.78517,-2.91572 6.98344,-5.88501 7.5447,-13.0244l7.32359 4.14936c-9.52215,27.7288 -20.3278,15.9165 -26.2463,21.3971 -7.6527,7.08633 -7.31594,30.2998 -46.1957,28.6603l-0.0813544 6.74363c-0.00113386,3.90558 6.40347,3.1972 9.33336,6.89783 1.88306,2.37855 0.498614,5.8578 1.17468,9.05188 0.676063,3.1938 3.41462,6.10498 3.41462,8.61534 0,1.34391 -1.81984,2.83691 -1.81701,4.37188 0.0048189,2.5577 1.69767,5.23814 0.555307,7.55859 -0.816662,1.65855 -3.56173,2.77795 -4.31603,4.64315 -0.754016,1.8652 0.479906,4.47988 -1.24328,5.33169 -4.18025,2.06674 -6.48822,3.09317 -6.80627,13.4773l-5.84873 -0.198142c-2.46388,-13.7061 -4.04107,-7.25046 -7.96252,-12.7593 -0.946772,-1.32973 0.314079,-3.18217 -0.599528,-5.34274 -0.806174,-1.90687 -2.84939,-3.17736 -3.55862,-4.49433 -0.96293,-1.7881 1.72035,-4.08983 1.11543,-6.39496 -0.777827,-2.96476 -4.72337,-5.62564 -4.81493,-7.54271 -0.113669,-2.38621 2.87405,-4.45323 3.53679,-7.29213 0.662457,-2.8389 -1.94513,-5.82208 0.0428032,-7.50671 3.09317,-2.62091 7.09115,-5.04907 9.44618,-6.86211l-0.939686 -8.67459c-16.1918,0.419528 -12.333,-21.0079 -47.9605,-7.92397 3.28507,51.0971 -4.41298,90.3807 12.2678,101.99 14.161,9.85607 25.5013,1.88306 35.6681,5.38356 7.78989,2.68214 13.1015,13.2919 28.0931,15.4624 9.14741,1.32406 18.0383,-6.60898 27.3144,-6.02164 11.9259,0.755433 15.4633,6.68495 32.9618,7.79216 15.5633,0.984756 21.9543,-11.9086 23.6784,-7.93843 0.593859,3.02202 -3.3823,10.5911 -5.01591,13.3716 -5.62139,9.56722 -23.5239,11.4525 -44.0618,4.58419 4.33559,18.2764 11.8502,17.3373 24.8077,17.2851 6.07748,-0.024378 7.76325,-7.63569 10.8091,-4.29562 2.43553,5.35096 -1.26284,16.1773 -28.1231,14.0185 -19.1486,-1.53893 -16.2153,-14.2563 -23.2231,-22.6273 -5.05843,2.21754 -9.0618,3.5898 -13.2772,4.11704 4.43566,34.655 -23.1083,36.0638 -25.0056,31.1397 -1.32406,-1.57805 4.48016,-1.5018 8.0589,-8.84268 3.36161,-6.89613 10.4465,-13.9343 -14.0678,-31.2066 -19.7731,-16.4687 -33.3099,6.33799 -63.3408,-15.1339l-0.040252 18.1511c14.3663,6.25011 14.5848,-1.21408 21.8719,0.714048 6.97238,1.84479 10.6637,6.09449 17.6978,8.10426 6.0137,1.71836 21.2168,-7.69663 22.2378,-5.11994 2.00551,3.73748 -6.43607,14.4811 -17.6774,16.4225 -11.5778,1.99928 -14.1154,-3.22384 -22.2253,-3.14958 -10.4216,0.0952441 -10.7813,6.34876 -26.7165,0.148819 -1.3972,20.0767 -2.61383,28.8045 -8.23437,32.8351z"/>
  <path fill="black" stroke="#CCCCCC" stroke-width="2.83465" d="M197.011 204.595c35.0377,-19.3215 72.0221,-19.2492 110.521,-1.08142l22.2772 -15.1399 3.02797 -28.982 -10.8108 -4.6817 -9.32599 9.59103c-4.39002,-2.18296 -9.06832,-4.07764 -14.0346,-5.68403l3.00473 -13.4175 -14.5352 -6.11263 -8.39878 11.9599c-18.3915,-1.13187 -37.0443,-1.21833 -56.0121,-0.0436536l-6.09421 -11.7213 -16.092 5.08422 1.79433 15.7737c-3.5538,1.52787 -7.03333,3.1286 -10.0083,5.23389l-10.4545 -6.87544 -12.543 7.1657 3.93222 24.7363 23.7521 14.1948z"/>
 </g>
</svg>
