<?xml version="1.0" encoding="UTF-8"?>
<!DOCTYPE svg PUBLIC "-//W3C//DTD SVG 1.1//EN" "http://www.w3.org/Graphics/SVG/1.1/DTD/svg11.dtd">
<!-- Creator: CorelDRAW -->
<svg xmlns="http://www.w3.org/2000/svg" xml:space="preserve" width="500px" height="572px" shape-rendering="geometricPrecision" text-rendering="geometricPrecision" image-rendering="optimizeQuality" fill-rule="evenodd" clip-rule="evenodd"
viewBox="0 0 500 572"
 xmlns:xlink="http://www.w3.org/1999/xlink"
 xmlns:svg="http://www.w3.org/2000/svg"
 version="1.0">
 <g id="Layer_x0020_1">
  <metadata id="CorelCorpID_0Corel-Layer"/>
  <path id="path1937" fill="black" stroke="black" stroke-width="0.510236" d="M0.149102 0.784063l499.78 -0.0181417 -0.195591 354.891c-49.1171,289.107 -451.869,287.017 -499.652,-0.756851l0.0674646 -354.116z"/>
  <path fill="#E5E5E5" d="M480.873 125.763c0.653953,-29.4143 -50.9837,-82.1733 -90.2965,-85.8144 -13.991,15.126 -24.0749,27.6395 -35.4246,42.9543 -0.884126,1.1931 0.774142,2.09424 -0.102614,3.33156 -6.1407,8.66353 -14.6205,18.5839 -19.9426,26.9989 -7.60593,12.0254 -14.766,21.5674 -20.8701,33.704 -0.987875,1.96413 1.52561,1.10778 0.558992,3.13512 -6.76715,14.1953 -17.0861,31.326 -21.8877,45.2361 -0.617953,1.79093 2.27849,1.3765 1.70447,3.19635 -4.67632,14.8241 -12.7182,34.0098 -14.5933,48.4566 -0.244347,1.64693 2.06731,1.67726 1.85471,3.26948 -2.05739,15.3955 -5.5732,27.5451 -6.30227,43.0747 -0.0674646,1.43858 1.46268,1.63077 1.41591,3.11188 -0.45411,14.3201 -1.56132,31.7118 -0.63978,45.8351 0.112819,1.7314 1.512,0.27978 1.65458,1.99616 0.999497,12.0172 1.42781,26.909 3.38599,39.1626 0.24548,1.53751 1.13443,0.85493 1.39521,2.39528 1.70362,10.0599 3.09657,22.4025 5.44706,32.5641 0.260788,1.12791 1.16107,1.30422 1.4298,2.43269 2.59852,10.9128 3.66492,25.0467 6.68807,35.7117 0.670678,2.04832 2.31988,0.497197 2.86243,2.60419 2.20564,8.56574 4.92265,21.82 8.12977,30.6471 0.707244,1.91254 1.82013,0.211748 2.66825,1.93408 3.03024,6.15203 4.84299,14.9244 7.7332,21.7477 0.416126,0.982489 2.16142,1.01254 2.67392,1.99474 2.22208,4.25651 3.88403,9.46347 5.82322,13.7129 5.04255,3.30633 21.8322,-4.18252 24.6518,-10.0848 -1.66536,-6.26514 -3.67824,-14.472 -5.59446,-22.4867 -0.354614,-1.48365 1.43915,-2.96164 0.913323,-4.41893 -1.67414,-6.38249 -5.80309,-11.8741 -7.09144,-17.8518 -0.452693,-2.10161 1.30762,-1.03691 0.834237,-3.14901 -2.12457,-9.47934 -5.57802,-19.0168 -6.95254,-28.2164 -0.254835,-1.70561 2.35106,-1.82126 2.10416,-3.51695 -1.66847,-11.4568 -4.20151,-21.8514 -4.93314,-32.7439 -0.121039,-1.80369 1.66961,-1.06299 1.56359,-2.85364 -0.693355,-11.6952 -1.26454,-22.7928 -1.0406,-33.6773 0.0549922,-2.68583 2.03868,0.0379843 2.13959,-2.61836 0.448158,-11.7901 0.447591,-23.5675 1.91565,-34.541 0.242362,-1.81162 2.71956,-0.439937 2.98545,-2.232 2.17077,-14.6174 4.23241,-28.2458 8.07534,-41.2679 0.687118,-2.32895 1.71893,0.442772 2.45849,-1.84054 3.67767,-11.9143 7.99966,-23.4349 12.9518,-34.4951 0.800504,-1.78781 2.25269,0.560126 3.08551,-1.20841 5.81556,-12.3491 13.3418,-24.2206 20.6399,-35.5555 1.46041,-2.26857 1.36517,0.875906 2.88624,-1.35808 6.82385,-10.0222 12.0665,-19.0707 20.1611,-28.3955 1.17411,-1.35269 2.36268,0.474803 3.564,-0.864851 8.69131,-9.69364 18.0774,-19.0347 28.1469,-28.0114 1.57323,-1.40258 3.16432,1.64636 4.77128,0.259087 27.1525,-14.0377 42.658,-25.3341 36.3977,-32.264z"/>
  <path fill="#BF9F4F" d="M242.561 110.313l-11.8712 -0.00141732 0 3.69865c0,16.7786 -25.6794,17.1116 -25.6187,0l0.0136063 -3.81827 -3.22554 -0.00340158c-18.7985,-0.0204095 -17.5584,-23.9428 1.89439,-23.9414l1.64891 0 -0.0138898 -5.85837c-0.0365669,-15.4372 25.6187,-15.9259 25.6187,0l0 5.86347 11.8675 0 -0.31748 -25.1708 -3.52432 -0.0141732c-20.2468,-0.0816378 -20.3051,-24.353 0,-25.168l3.09799 -0.124158 -0.00368504 -2.5971c-0.0269291,-18.8436 22.8799,-18.3682 22.8799,0l0 2.74082 4.08898 -0.0195591c19.8771,-0.0694489 19.6393,25.168 0,25.168l-4.09238 0 0.320882 25.185 12.6768 0 0 -5.36599c0,-16.556 24.4718,-16.4877 24.4718,0l0 5.36627 3.62126 -0.00538583c17.5283,-1.55509 17.7854,23.9471 -0.31748,23.9414l-3.62126 -0.00113386 0 4.32029c0,16.8253 -24.4718,16.2295 -24.4718,0l0 -4.32029 -12.6768 0 -11.0472 95.3008 -11.399 -95.1753z"/>
  <path fill="#BF9F4F" d="M76.9607 344.313l-11.8712 -0.00141732 0 3.69865c0,16.7786 -25.6794,17.1116 -25.6187,0l0.0136063 -3.81827 -3.22554 -0.00340158c-18.7985,-0.0204095 -17.5584,-23.9428 1.89439,-23.9414l1.64891 0 -0.0138898 -5.85837c-0.0365669,-15.4372 25.6187,-15.9259 25.6187,0l0 5.86347 11.8675 0 -0.31748 -25.1708 -3.52432 -0.0141732c-20.2468,-0.0816378 -20.3051,-24.353 0,-25.168l3.09799 -0.124158 -0.00368504 -2.5971c-0.0269291,-18.8436 22.8799,-18.3682 22.8799,0l0 2.74082 4.08898 -0.0195591c19.8771,-0.0694489 19.6393,25.168 0,25.168l-4.09238 0 0.320882 25.185 12.6768 0 0 -5.36599c0,-16.556 24.4718,-16.4877 24.4718,0l0 5.36627 3.62126 -0.00538583c17.5283,-1.55509 17.7854,23.9471 -0.31748,23.9414l-3.62126 -0.00113386 0 4.32029c0,16.8253 -24.4718,16.2295 -24.4718,0l0 -4.32029 -12.6768 0 -11.0472 95.3008 -11.399 -95.1753z"/>
  <path fill="#BF9F4F" d="M404.561 344.313l-11.8712 -0.00141732 0 3.69865c0,16.7786 -25.6794,17.1116 -25.6187,0l0.0136063 -3.81827 -3.22554 -0.00340158c-18.7985,-0.0204095 -17.5584,-23.9428 1.89439,-23.9414l1.64891 0 -0.0138898 -5.85837c-0.0365669,-15.4372 25.6187,-15.9259 25.6187,0l0 5.86347 11.8675 0 -0.31748 -25.1708 -3.52432 -0.0141732c-20.2468,-0.0816378 -20.3051,-24.353 0,-25.168l3.09799 -0.124158 -0.00368504 -2.5971c-0.0269291,-18.8436 22.8799,-18.3682 22.8799,0l0 2.74082 4.08898 -0.0195591c19.8771,-0.0694489 19.6393,25.168 0,25.168l-4.09238 0 0.320882 25.185 12.6768 0 0 -5.36599c0,-16.556 24.4718,-16.4877 24.4718,0l0 5.36627 3.62126 -0.00538583c17.5283,-1.55509 17.7854,23.9471 -0.31748,23.9414l-3.62126 -0.00113386 0 4.32029c0,16.8253 -24.4718,16.2295 -24.4718,0l0 -4.32029 -12.6768 0 -11.0472 95.3008 -11.399 -95.1753z"/>
  <path fill="#E5E5E5" d="M28.3723 124.643c-0.653953,-29.4143 52.1042,-82.1733 91.4171,-85.8144 13.991,15.126 26.316,28.76 37.6657,44.0748 0.884126,1.1931 -0.774142,2.09424 0.102614,3.33156 6.1407,8.66353 14.6205,18.5839 19.9426,26.9989 7.60593,12.0254 14.766,21.5674 20.8701,33.704 0.987875,1.96413 -1.52561,1.10778 -0.558992,3.13512 6.76715,14.1953 17.0861,31.326 21.8877,45.2361 0.617953,1.79093 -2.27849,1.3765 -1.70447,3.19635 4.67632,14.8241 12.7182,34.0098 14.5933,48.4566 0.244347,1.64693 -2.06731,1.67726 -1.85471,3.26948 2.05739,15.3955 5.5732,27.5451 6.30227,43.0747 0.0674646,1.43858 -1.46268,1.63077 -1.41591,3.11188 0.45411,14.3201 1.56132,31.7118 0.63978,45.8351 -0.112819,1.7314 -1.512,0.27978 -1.65458,1.99616 -0.999497,12.0172 -1.42781,26.909 -3.38599,39.1626 -0.24548,1.53751 -1.13443,0.85493 -1.39521,2.39528 -1.70362,10.0599 -3.09657,22.4025 -5.44706,32.5641 -0.260788,1.12791 -1.16107,1.30422 -1.4298,2.43269 -2.59852,10.9128 -3.66492,25.0467 -6.68807,35.7117 -0.670678,2.04832 -2.31988,0.497197 -2.86243,2.60419 -2.20564,8.56574 -4.92265,21.82 -8.12977,30.6471 -0.707244,1.91254 -1.82013,0.211748 -2.66825,1.93408 -3.03024,6.15203 -4.84299,14.9244 -7.7332,21.7477 -0.416126,0.982489 -2.16142,1.01254 -2.67392,1.99474 -2.22208,4.25651 -3.88403,9.46347 -5.82322,13.7129 -5.04255,3.30633 -21.8322,-4.18252 -24.6518,-10.0848 1.66536,-6.26514 3.67824,-14.472 5.59446,-22.4867 0.354614,-1.48365 -1.43915,-2.96164 -0.913323,-4.41893 1.67414,-6.38249 5.80309,-11.8741 7.09144,-17.8518 0.452693,-2.10161 -1.30762,-1.03691 -0.834237,-3.14901 2.12457,-9.47934 5.57802,-19.0168 6.95254,-28.2164 0.254835,-1.70561 -2.35106,-1.82126 -2.10416,-3.51695 1.66847,-11.4568 4.20151,-21.8514 4.93314,-32.7439 0.121039,-1.80369 -1.66961,-1.06299 -1.56359,-2.85364 0.693355,-11.6952 1.26454,-22.7928 1.0406,-33.6773 -0.0549922,-2.68583 -2.03868,0.0379843 -2.13959,-2.61836 -0.448158,-11.7901 -0.447591,-23.5675 -1.91565,-34.541 -0.242362,-1.81162 -2.71956,-0.439937 -2.98545,-2.232 -2.17077,-14.6174 -4.23241,-28.2458 -8.07534,-41.2679 -0.687118,-2.32895 -1.71893,0.442772 -2.45849,-1.84054 -3.67767,-11.9143 -7.99966,-23.4349 -12.9518,-34.4951 -0.800504,-1.78781 -2.25269,0.560126 -3.08551,-1.20841 -5.81556,-12.3491 -13.3418,-24.2206 -20.6399,-35.5555 -1.46041,-2.26857 -1.36517,0.875906 -2.88624,-1.35808 -6.82385,-10.0222 -12.0665,-19.0707 -20.1611,-28.3955 -1.17411,-1.35269 -2.36268,0.474803 -3.564,-0.864851 -8.69131,-9.69364 -18.0774,-19.0347 -28.1469,-28.0114 -1.57323,-1.40258 -3.16432,1.64636 -4.77128,0.259087 -27.1525,-14.0377 -46.0196,-26.4546 -39.7593,-33.3845z"/>
  <path fill="#CCCCCC" d="M24.7723 124.643c-0.653953,-29.4143 52.1042,-82.1733 91.4171,-85.8144 13.991,15.126 26.316,28.76 37.6657,44.0748 0.884126,1.1931 -0.774142,2.09424 0.102614,3.33156 6.1407,8.66353 14.6205,18.5839 19.9426,26.9989 7.60593,12.0254 14.766,21.5674 20.8701,33.704 0.987875,1.96413 -1.52561,1.10778 -0.558992,3.13512 6.76715,14.1953 17.0861,31.326 21.8877,45.2361 0.617953,1.79093 -2.27849,1.3765 -1.70447,3.19635 4.67632,14.8241 12.7182,34.0098 14.5933,48.4566 0.244347,1.64693 -2.06731,1.67726 -1.85471,3.26948 2.05739,15.3955 5.5732,27.5451 6.30227,43.0747 0.0674646,1.43858 -1.46268,1.63077 -1.41591,3.11188 0.45411,14.3201 1.56132,31.7118 0.63978,45.8351 -0.112819,1.7314 -1.512,0.27978 -1.65458,1.99616 -0.999497,12.0172 -1.42781,26.909 -3.38599,39.1626 -0.24548,1.53751 -1.13443,0.85493 -1.39521,2.39528 -1.70362,10.0599 -3.09657,22.4025 -5.44706,32.5641 -0.260788,1.12791 -1.16107,1.30422 -1.4298,2.43269 -2.59852,10.9128 -3.66492,25.0467 -6.68807,35.7117 -0.670678,2.04832 -2.31988,0.497197 -2.86243,2.60419 -2.20564,8.56574 -4.92265,21.82 -8.12977,30.6471 -0.707244,1.91254 -1.82013,0.211748 -2.66825,1.93408 -3.03024,6.15203 -4.84299,14.9244 -7.7332,21.7477 -0.416126,0.982489 -2.16142,1.01254 -2.67392,1.99474 -2.22208,4.25651 -3.88403,9.46347 -5.82322,13.7129 -5.04255,3.30633 -21.8322,-4.18252 -24.6518,-10.0848 1.66536,-6.26514 3.67824,-14.472 5.59446,-22.4867 0.354614,-1.48365 -1.43915,-2.96164 -0.913323,-4.41893 1.67414,-6.38249 5.80309,-11.8741 7.09144,-17.8518 0.452693,-2.10161 -1.30762,-1.03691 -0.834237,-3.14901 2.12457,-9.47934 5.57802,-19.0168 6.95254,-28.2164 0.254835,-1.70561 -2.35106,-1.82126 -2.10416,-3.51695 1.66847,-11.4568 4.20151,-21.8514 4.93314,-32.7439 0.121039,-1.80369 -1.66961,-1.06299 -1.56359,-2.85364 0.693355,-11.6952 1.26454,-22.7928 1.0406,-33.6773 -0.0549922,-2.68583 -2.03868,0.0379843 -2.13959,-2.61836 -0.448158,-11.7901 -0.447591,-23.5675 -1.91565,-34.541 -0.242362,-1.81162 -2.71956,-0.439937 -2.98545,-2.232 -2.17077,-14.6174 -4.23241,-28.2458 -8.07534,-41.2679 -0.687118,-2.32895 -1.71893,0.442772 -2.45849,-1.84054 -3.67767,-11.9143 -7.99966,-23.4349 -12.9518,-34.4951 -0.800504,-1.78781 -2.25269,0.560126 -3.08551,-1.20841 -5.81556,-12.3491 -13.3418,-24.2206 -20.6399,-35.5555 -1.46041,-2.26857 -1.36517,0.875906 -2.88624,-1.35808 -6.82385,-10.0222 -12.0665,-19.0707 -20.1611,-28.3955 -1.17411,-1.35269 -2.36268,0.474803 -3.564,-0.864851 -8.69131,-9.69364 -18.0774,-19.0347 -28.1469,-28.0114 -1.57323,-1.40258 -3.16432,1.64636 -4.77128,0.259087 -27.1525,-14.0377 -46.0196,-26.4546 -39.7593,-33.3845z"/>
  <path fill="#4C4C4C" stroke="#4C4C4C" stroke-width="0.216" d="M113.608 47.2692c13.6012,14.7044 25.583,27.9587 36.6163,42.8465 0.859465,1.15994 -0.752599,2.03584 0.0997796,3.23887 5.96948,8.42202 14.2132,18.0661 19.3867,26.2466 7.39418,11.6904 14.3547,20.9665 20.2887,32.7648 0.960378,1.90942 -1.48309,1.07688 -0.543402,3.04781 6.57865,13.7996 16.6099,30.4529 21.2777,43.9756 0.600945,1.74104 -2.21499,1.33824 -1.65685,3.10734 4.54592,14.4108 12.3639,33.0619 14.1866,47.1062 0.237543,1.60101 -2.00948,1.63049 -1.80284,3.17849 1.99984,14.9667 5.41786,26.7775 6.12652,41.8745 0.0657638,1.39833 -1.42186,1.58513 -1.3765,3.02514 0.441638,13.921 1.51795,30.8282 0.621922,44.5578 -0.109417,1.68321 -1.46976,0.272126 -1.60838,1.9406 -0.971717,11.6824 -1.38813,26.1593 -3.29159,38.0713 -0.238677,1.49471 -1.10296,0.831119 -1.35638,2.32866 -1.656,9.77953 -3.01011,21.7783 -5.29512,31.6568 -0.253701,1.09644 -1.12876,1.26794 -1.39011,2.36495 -2.52595,10.6087 -3.56287,24.3488 -6.50155,34.7165 -0.652252,1.99134 -2.25525,0.483307 -2.78277,2.53162 -2.14413,8.32706 -4.78545,21.2119 -7.90328,29.7933 -0.687402,1.85925 -1.76939,0.205795 -2.59399,1.88022 -2.94577,5.98054 -4.70807,14.5086 -7.51748,21.1416 -1.73764,4.1023 -6.0086,10.3348 -8.26045,15.27 -4.90224,3.21421 2.40095,-9.61314 5.05701,-16.3035 1.61915,-6.09052 6.75185,-20.7366 8.61336,-28.5273 0.34441,-1.44113 1.77591,2.20054 2.28699,0.784063 1.62765,-6.20476 3.10252,-30.2749 4.35402,-36.0856 0.439654,-2.04236 6.98344,1.21436 7.4435,-0.839056 2.06532,-9.21515 -0.608599,-28.3289 0.726804,-37.2719 0.247465,-1.65713 5.33396,0.769323 5.57405,-0.879024 1.62199,-11.1376 -3.852,-26.3225 -3.14136,-36.9114 0.117354,-1.75266 8.21878,3.41121 8.32167,1.67074 0.674079,-11.3695 -7.58608,-21.8404 -7.80265,-32.4213 -0.0530079,-2.60986 11.3522,-4.40788 11.2541,-6.99024 -0.435685,-11.4616 -5.19846,-23.546 -6.62457,-34.2136 -0.235276,-1.76003 6.56334,-2.65011 6.30482,-4.39229 -2.11039,-14.2101 -7.58892,-40.4388 -12.9113,-53.4147 -0.895182,-2.18296 4.67859,-0.839906 3.95972,-3.05943 -3.57534,-11.5824 -11.8865,-31.5978 -16.6995,-42.3491 -0.77726,-1.7365 4.15984,-2.63027 3.35027,-4.34948 -5.6537,-12.005 -14.54,-28.7198 -18.4587,-41.9601 -1.73594,0.0184252 -1.64466,1.16901 -3.12321,-1.0029 -4.76164,-11.1793 -20.257,-25.3987 -26.5938,-33.4174 -1.45899,-1.84621 3.40668,-1.92047 2.29635,-3.71707 -5.56328,-9 -12.9504,-14.2866 -19.4292,-19.6274 -1.33002,-1.09644 -4.9184,0.451559 -5.90712,-0.880441 -8.14819,-10.6543 -14.4856,-21.1541 -30.2392,-34.7823 -3.1218,-2.70085 7.89619,-5.05219 16.6643,-5.72457z"/>
  <path fill="#E5E5E5" d="M116.189 38.8284c-25.6465,2.63764 -88.4458,58.9465 -82.8414,79.3976 15.9412,3.57818 28.5693,11.9886 41.4992,23.1868 16.863,8.93509 28.8604,18.9505 34.0016,32.3796 11.8775,10.2328 20.9996,21.4112 24.774,33.7122 14.2223,11.2578 21.926,23.3841 20.3621,36.4034 13.8932,12.0662 22.2018,26.278 18.0196,44.3276 12.2227,4.71373 16.6666,17.6273 9.84076,42.2354 5.3229,10.1123 5.5097,22.6426 3.01295,36.2322 10.0675,9.22904 6.57326,21.4773 -2.38224,37.2972 2.89871,12.9042 0.951874,24.8658 -3.02287,35.7925 2.5988,11.7247 1.75862,22.9317 -4.47846,33.3814 -0.709512,10.2512 -3.10904,19.6228 -8.02148,27.7438 -2.43808,6.17159 -5.34671,12.2287 -8.83701,18.1534 1.66536,-6.26514 3.67824,-14.472 5.59446,-22.4867 0.354614,-1.48365 -1.43915,-2.96164 -0.913323,-4.41893 1.67414,-6.38249 5.80309,-11.8741 7.09144,-17.8518 0.452693,-2.10161 -1.30762,-1.03691 -0.834237,-3.14901 2.12457,-9.47934 5.57802,-19.0168 6.95254,-28.2164 0.254835,-1.70561 -2.35106,-1.82126 -2.10416,-3.51695 1.66847,-11.4568 4.20151,-21.8514 4.93314,-32.7439 0.121039,-1.80369 -1.66961,-1.06299 -1.56359,-2.85364 0.693355,-11.6952 1.26454,-22.7928 1.0406,-33.6773 -0.0549922,-2.68583 -2.03868,0.0379843 -2.13959,-2.61836 -0.448158,-11.7901 -0.447591,-23.5675 -1.91565,-34.541 -0.242362,-1.81162 -2.71956,-0.439937 -2.98545,-2.232 -2.17077,-14.6174 -4.23241,-28.2458 -8.07534,-41.2679 -0.687118,-2.32895 -1.71893,0.442772 -2.45849,-1.84054 -3.67767,-11.9143 -7.99966,-23.4349 -12.9518,-34.4951 -0.800504,-1.78781 -2.25269,0.560126 -3.08551,-1.20841 -5.81556,-12.3491 -13.3418,-24.2206 -20.6399,-35.5555 -1.46041,-2.26857 -1.36517,0.875906 -2.88624,-1.35808 -6.82385,-10.0222 -12.0665,-19.0707 -20.1611,-28.3955 -1.17411,-1.35269 -2.36268,0.474803 -3.564,-0.864851 -8.69131,-9.69364 -18.0774,-19.0347 -28.1469,-28.0114 -1.57323,-1.40258 -3.16432,1.64636 -4.77128,0.259087 -27.1525,-14.0377 -46.0196,-26.4546 -39.7593,-33.3845 -0.653953,-29.4143 52.1042,-82.1733 91.4171,-85.8144z"/>
  <path fill="black" d="M169.042 111.703c-19.4854,-8.13685 -49.9765,-0.187937 -91.4746,23.8473 11.4993,-16.6448 34.7017,-33.3465 68.2986,-48.9283 -54.6316,18.0689 -72.5174,45.2543 -80.0051,64.766 28.3419,-26.1394 62.1406,-40.6381 103.181,-39.6851z"/>
  <path fill="black" stroke="black" stroke-width="0.216" d="M190.631 145.991l-3.32334 3.7664c-45.9961,2.62828 -71.3427,17.3016 -89.381,34.3313 15.5923,-22.9008 53.1873,-36.7898 92.7043,-38.0977z"/>
  <path fill="black" stroke="black" stroke-width="0.216" d="M210.542 194.475l-3.32334 3.7664c-10.1208,-7.53109 -63.7232,-2.69972 -81.7614,14.33 28.7155,-25.4778 73.2717,-23.2041 85.0848,-18.0964z"/>
  <path fill="black" stroke="black" stroke-width="0.216" d="M225.146 242.414l-3.32334 3.7664c-10.1208,-8.80101 -59.5959,-12.2241 -77.6342,4.80558 28.7155,-25.4778 69.1444,-13.6797 80.9575,-8.57197z"/>
  <path fill="black" stroke="black" stroke-width="0.216" d="M230.543 290.354l-3.32334 3.7664c-8.37411,-6.94375 -38.0815,-19.6727 -59.5378,-5.03632 29.5756,-19.0432 51.126,-0.028063 62.8611,1.26992z"/>
  <path fill="black" stroke="black" stroke-width="0.216" d="M227.686 336.389l-3.32334 3.7664c-3.90558,-5.03263 -17.5122,-20.8262 -49.0609,-8.84608 36.3064,-16.238 44.1749,5.2509 52.3843,5.07969z"/>
  <path fill="black" stroke="black" stroke-width="0.216" d="M224.828 378.931l-2.68838 2.49647c-4.8617,-1.52674 -10.2169,-19.4273 -40.1715,-13.2908 29.5209,-8.12041 36.7518,6.16536 42.8599,10.7943z"/>
  <path fill="black" stroke="black" stroke-width="0.216" d="M219.749 414.806l-1.10098 2.81395c-11.4143,-6.72463 -12.3934,-16.7267 -37.9491,-13.9258 22.9003,-4.33333 27.2758,2.17247 39.0501,11.1118z"/>
  <path fill="black" stroke="black" stroke-width="0.216" d="M210.224 453.222l-0.783496 3.13143c-8.55808,-9.57969 -11.3377,-18.8391 -31.917,-16.1481 19.8028,-4.14737 23.7028,2.51688 32.7005,13.0167z"/>
  <path fill="black" stroke="black" stroke-width="0.216" d="M201.97 487.509l-1.41846 1.86151c-10.1455,-12.742 -13.8781,-15.7499 -27.4723,-17.4181 15.781,-0.548788 19.9982,5.16218 28.8907,15.5565z"/>
  <path fill="black" stroke="black" stroke-width="0.216" d="M189.588 511.32l-1.73594 1.86151c-8.02914,-8.72079 -10.8094,-10.459 -21.7576,-12.6558 12.183,1.25065 16.3999,3.89197 23.4936,10.7943z"/>
  <path fill="black" stroke="black" stroke-width="0.216" d="M169.64 519.745c3.71821,3.21052 6.86892,2.20932 6.13418,4.17997 -0.734741,1.97093 -4.86114,2.25354 -9.21402,0.630709 -4.35288,-1.62312 -7.28703,-4.53827 -6.55229,-6.50892 0.734741,-1.97093 5.91392,-1.51228 9.63213,1.69824z"/>
  <path fill="black" stroke="black" stroke-width="0.216" d="M61.0991 97.7341c2.98035,0 11.4293,2.77228 11.4293,6.19087 0,3.41858 -2.09934,6.50835 -5.07969,6.50835 -2.98035,0 -5.07969,-1.50236 -5.07969,-4.92095 0,-3.41858 -4.25027,-7.77827 -1.26992,-7.77827z"/>
  <ellipse fill="black" stroke="black" stroke-width="0.216" cx="75.227" cy="96.1467" rx="2.06362" ry="1.90488"/>
  <ellipse fill="black" stroke="black" stroke-width="0.216" transform="matrix(1.51197 0.918764 -0.572556 0.942231 197.774 378.265)" rx="2.06362" ry="1.90488"/>
  <path fill="#CCCCCC" d="M480.635 124.643c0.653953,-29.4143 -52.1042,-82.1733 -91.4171,-85.8144 -13.991,15.126 -26.316,28.76 -37.6657,44.0748 -0.884126,1.1931 0.774142,2.09424 -0.102614,3.33156 -6.1407,8.66353 -14.6205,18.5839 -19.9426,26.9989 -7.60593,12.0254 -14.766,21.5674 -20.8701,33.704 -0.987875,1.96413 1.52561,1.10778 0.558992,3.13512 -6.76715,14.1953 -17.0861,31.326 -21.8877,45.2361 -0.617953,1.79093 2.27849,1.3765 1.70447,3.19635 -4.67632,14.8241 -12.7182,34.0098 -14.5933,48.4566 -0.244347,1.64693 2.06731,1.67726 1.85471,3.26948 -2.05739,15.3955 -5.5732,27.5451 -6.30227,43.0747 -0.0674646,1.43858 1.46268,1.63077 1.41591,3.11188 -0.45411,14.3201 -1.56132,31.7118 -0.63978,45.8351 0.112819,1.7314 1.512,0.27978 1.65458,1.99616 0.999497,12.0172 1.42781,26.909 3.38599,39.1626 0.24548,1.53751 1.13443,0.85493 1.39521,2.39528 1.70362,10.0599 3.09657,22.4025 5.44706,32.5641 0.260788,1.12791 1.16107,1.30422 1.4298,2.43269 2.59852,10.9128 3.66492,25.0467 6.68807,35.7117 0.670678,2.04832 2.31988,0.497197 2.86243,2.60419 2.20564,8.56574 4.92265,21.82 8.12977,30.6471 0.707244,1.91254 1.82013,0.211748 2.66825,1.93408 3.03024,6.15203 4.84299,14.9244 7.7332,21.7477 0.416126,0.982489 2.16142,1.01254 2.67392,1.99474 2.22208,4.25651 3.88403,9.46347 5.82322,13.7129 5.04255,3.30633 21.8322,-4.18252 24.6518,-10.0848 -1.66536,-6.26514 -3.67824,-14.472 -5.59446,-22.4867 -0.354614,-1.48365 1.43915,-2.96164 0.913323,-4.41893 -1.67414,-6.38249 -5.80309,-11.8741 -7.09144,-17.8518 -0.452693,-2.10161 1.30762,-1.03691 0.834237,-3.14901 -2.12457,-9.47934 -5.57802,-19.0168 -6.95254,-28.2164 -0.254835,-1.70561 2.35106,-1.82126 2.10416,-3.51695 -1.66847,-11.4568 -4.20151,-21.8514 -4.93314,-32.7439 -0.121039,-1.80369 1.66961,-1.06299 1.56359,-2.85364 -0.693355,-11.6952 -1.26454,-22.7928 -1.0406,-33.6773 0.0549922,-2.68583 2.03868,0.0379843 2.13959,-2.61836 0.448158,-11.7901 0.447591,-23.5675 1.91565,-34.541 0.242362,-1.81162 2.71956,-0.439937 2.98545,-2.232 2.17077,-14.6174 4.23241,-28.2458 8.07534,-41.2679 0.687118,-2.32895 1.71893,0.442772 2.45849,-1.84054 3.67767,-11.9143 7.99966,-23.4349 12.9518,-34.4951 0.800504,-1.78781 2.25269,0.560126 3.08551,-1.20841 5.81556,-12.3491 13.3418,-24.2206 20.6399,-35.5555 1.46041,-2.26857 1.36517,0.875906 2.88624,-1.35808 6.82385,-10.0222 12.0665,-19.0707 20.1611,-28.3955 1.17411,-1.35269 2.36268,0.474803 3.564,-0.864851 8.69131,-9.69364 18.0774,-19.0347 28.1469,-28.0114 1.57323,-1.40258 3.16432,1.64636 4.77128,0.259087 27.1525,-14.0377 46.0196,-26.4546 39.7593,-33.3845z"/>
  <path fill="#E5E5E5" d="M322.639 529.156c-2.31647,-5.07657 -6.70989,-11.4877 -8.49714,-15.7076 -2.89021,-6.82328 -4.70296,-15.5957 -7.7332,-21.7477 -0.848126,-1.72233 -1.96101,-0.0215433 -2.66825,-1.93408 -3.20712,-8.82709 -5.92413,-22.0813 -8.12977,-30.6471 -0.542551,-2.10699 -2.19175,-0.555874 -2.86243,-2.60419 -3.02315,-10.6651 -4.08955,-24.7989 -6.68807,-35.7117 -0.268725,-1.12847 -1.16901,-1.30479 -1.4298,-2.43269 -2.35049,-10.1616 -3.74343,-22.5043 -5.44706,-32.5641 -0.260788,-1.54035 -1.14973,-0.857764 -1.39521,-2.39528 -1.95817,-12.2536 -2.38649,-27.1454 -3.38599,-39.1626 -0.142583,-1.71638 -1.54176,-0.264756 -1.65458,-1.99616 -0.921544,-14.1233 0.185669,-31.515 0.63978,-45.8351 0.0467717,-1.4811 -1.48337,-1.67329 -1.41591,-3.11188 0.729071,-15.5296 4.24488,-27.6792 6.30227,-43.0747 0.212599,-1.59222 -2.09906,-1.62255 -1.85471,-3.26948 1.87512,-14.4468 9.91701,-33.6325 14.5933,-48.4566 0.574016,-1.81984 -2.32243,-1.40542 -1.70447,-3.19635 4.80161,-13.9102 15.1206,-31.0408 21.8877,-45.2361 0.966615,-2.02734 -1.54687,-1.17099 -0.558992,-3.13512 6.10413,-12.1365 13.2642,-21.6785 20.8701,-33.704 5.32205,-8.41493 13.8019,-18.3353 19.9426,-26.9989 0.876756,-1.23732 -0.781512,-2.13846 0.102614,-3.33156 11.3496,-15.3147 23.6747,-28.9488 37.6657,-44.0748 29.7916,2.75925 67.305,33.7258 83.4435,61.3647 -22.119,-16.6133 -38.9123,-39.8296 -64.1982,-47.1994 -9.08646,12.3582 -22.7259,25.3979 -30.2392,34.7823 -0.988725,1.332 -6.18889,-0.819496 -5.90712,0.880441 3.47556,20.956 -7.43641,18.216 -14.3496,23.4371 -1.11033,1.7966 -4.716,-2.4446 -4.68822,-0.092693 0.224504,18.9527 -10.5248,42.3527 -26.5938,34.6873 -1.47855,2.17191 3.05745,1.3388 1.32151,1.32038 0.792,20.7768 -6.17585,35.9547 -19.4111,42.2776 -0.809575,1.71921 -4.76192,3.24794 -5.53918,4.98444 2.22633,10.0106 6.72066,27.5913 -5.90514,40.1267 -0.718867,2.21953 -9.43172,4.36876 -10.3269,6.55172 4.06772,12.672 4.44218,36.6287 -4.65676,48.9699 6.84057,6.81903 -0.239528,42.4174 -6.0344,44.9555 4.26756,-0.195591 11.8959,27.8487 7.57871,41.6339 3.27799,3.72473 5.66589,39.2258 2.32299,38.7329 2.61695,-0.813827 11.1322,23.766 8.52322,37.1985 2.5166,0.584221 12.5595,20.6056 10.8451,31.845 7.25896,11.499 19.2869,26.8095 17.2361,43.8715z"/>
  <path fill="#4C4C4C" stroke="#4C4C4C" stroke-width="0.216" d="M472.059 118.226c-15.9412,3.57818 -28.5693,11.9886 -41.4992,23.1868 -16.863,8.93509 -28.8604,18.9505 -34.0016,32.3796 -11.8775,10.2328 -20.9996,21.4112 -24.774,33.7122 -14.2223,11.2578 -21.926,23.3841 -20.3621,36.4034 -13.8932,12.0662 -22.2018,26.278 -18.0196,44.3276 -12.2227,4.71373 -16.6666,17.6273 -9.84076,42.2354 -5.3229,10.1123 -5.5097,22.6426 -3.01295,36.2322 -10.0675,9.22904 -6.57326,21.4773 2.38224,37.2972 -2.89871,12.9042 -0.951874,24.8658 3.02287,35.7925 -2.5988,11.7247 -1.75862,22.9317 4.47846,33.3814 0.709512,10.2512 3.10904,19.6228 8.02148,27.7438 2.43808,6.17159 5.34671,12.2287 8.83701,18.1534 -1.66536,-6.26514 -3.67824,-14.472 -5.59446,-22.4867 -0.354614,-1.48365 1.43915,-2.96164 0.913323,-4.41893 -1.67414,-6.38249 -5.80309,-11.8741 -7.09144,-17.8518 -0.452693,-2.10161 1.30762,-1.03691 0.834237,-3.14901 -2.12457,-9.47934 -5.57802,-19.0168 -6.95254,-28.2164 -0.254835,-1.70561 2.35106,-1.82126 2.10416,-3.51695 -1.66847,-11.4568 -4.20151,-21.8514 -4.93314,-32.7439 -0.121039,-1.80369 1.66961,-1.06299 1.56359,-2.85364 -0.693355,-11.6952 -1.26454,-22.7928 -1.0406,-33.6773 0.0549922,-2.68583 2.03868,0.0379843 2.13959,-2.61836 0.448158,-11.7901 0.447591,-23.5675 1.91565,-34.541 0.242362,-1.81162 2.71956,-0.439937 2.98545,-2.232 2.17077,-14.6174 4.23241,-28.2458 8.07534,-41.2679 0.687118,-2.32895 1.71893,0.442772 2.45849,-1.84054 3.67767,-11.9143 7.99966,-23.4349 12.9518,-34.4951 0.800504,-1.78781 2.25269,0.560126 3.08551,-1.20841 5.81556,-12.3491 13.3418,-24.2206 20.6399,-35.5555 1.46041,-2.26857 1.36517,0.875906 2.88624,-1.35808 6.82385,-10.0222 12.0665,-19.0707 20.1611,-28.3955 1.17411,-1.35269 2.36268,0.474803 3.564,-0.864851 8.69131,-9.69364 18.0774,-19.0347 28.1469,-28.0114 1.57323,-1.40258 3.16432,1.64636 4.77128,0.259087 27.1525,-14.0377 46.0196,-26.4546 39.7593,-33.3845 -2.85789,-4.51446 -5.71663,-5.35805 -8.57566,-6.41679z"/>
  <path fill="black" d="M336.364 111.703c19.4854,-8.13685 49.9765,-0.187937 91.4746,23.8473 -11.4993,-16.6448 -34.7017,-33.3465 -68.2986,-48.9283 54.6316,18.0689 72.5174,45.2543 80.0051,64.766 -28.3419,-26.1394 -62.1406,-40.6381 -103.181,-39.6851z"/>
  <path fill="black" stroke="black" stroke-width="0.216" d="M314.776 145.991c46.5219,4.28173 76.1772,18.538 89.6797,39.7514l3.02457 -1.65373c-15.5923,-22.9008 -53.1873,-36.7898 -92.7043,-38.0977z"/>
  <path fill="black" stroke="black" stroke-width="0.216" d="M294.865 194.475c27.4487,-4.8824 56.4395,1.03039 85.5803,21.5462l2.36183 -1.2274c-28.7155,-25.4778 -76.129,-25.4265 -87.9421,-20.3188z"/>
  <path fill="black" stroke="black" stroke-width="0.216" d="M280.261 242.414c40.7665,-10.8533 62.2469,-3.66577 76.7518,10.0466l4.20577 -1.47458c-28.7155,-25.4778 -69.1444,-13.6797 -80.9575,-8.57197z"/>
  <path fill="black" stroke="black" stroke-width="0.216" d="M274.864 290.354c43.8302,-15.5733 45.9114,-7.6269 65.2944,-0.13011l2.01147 -2.09225c-29.5756,-19.0432 -58.1105,-0.345543 -67.3059,2.22236z"/>
  <path fill="black" stroke="black" stroke-width="0.216" d="M277.721 336.389c17.9643,-12.3857 35.0822,-13.3421 51.3525,-2.86895l2.61921 -2.52822c-32.8142,-14.6506 -47.3497,1.44113 -53.9717,5.39717z"/>
  <path fill="black" stroke="black" stroke-width="0.216" d="M280.578 378.614c15.7601,-12.9016 30.858,-12.5578 45.7696,-8.50593l0.9 -2.28841c-29.5209,-8.12041 -40.5615,6.16536 -46.6696,10.7943z"/>
  <path fill="black" stroke="black" stroke-width="0.216" d="M285.658 414.806c11.6892,-9.26845 24.7547,-13.032 39.8296,-8.75339l1.12535 -2.04095c-22.9003,-5.92073 -32.9905,4.39484 -40.955,10.7943z"/>
  <path fill="black" stroke="black" stroke-width="0.216" d="M295.183 453.222c11.1821,-11.5498 22.0201,-16.2201 32.3547,-10.8363l1.93323 -2.49789c-19.1679,-4.46485 -29.4174,6.64413 -34.2879,13.3342z"/>
  <path fill="black" stroke="black" stroke-width="0.216" d="M304.707 487.827c11.2337,-11.6518 22.4144,-18.2753 29.4137,-13.8365l1.38189 -2.98999c-17.3684,-0.231307 -21.903,7.38454 -30.7956,16.8265z"/>
  <path fill="black" stroke="black" stroke-width="0.216" d="M316.136 511.32c9.09497,-7.9047 17.3959,-12.8974 23.9496,-11.4866l1.44879 -2.48258c-13.453,0.933166 -18.6222,8.01922 -25.3984,13.9691z"/>
  <path fill="black" stroke="black" stroke-width="0.216" d="M335.767 519.745c-3.71821,3.21052 -6.86892,2.20932 -6.13418,4.17997 0.734741,1.97093 4.86114,2.25354 9.21402,0.630709 4.35288,-1.62312 7.28703,-4.53827 6.55229,-6.50892 -0.734741,-1.97093 -5.91392,-1.51228 -9.63213,1.69824z"/>
  <path fill="black" stroke="black" stroke-width="0.216" d="M433.35 85.0754c-1.17468,-2.73912 -7.05232,-9.4116 -10.1942,-8.06429 -3.14192,1.34731 -5.15424,4.49462 -3.97956,7.23374 1.17468,2.73912 3.38287,4.07622 6.52451,2.72891 3.14192,-1.34731 8.82397,0.840756 7.6493,-1.89836z"/>
  <ellipse fill="black" stroke="black" stroke-width="0.216" cx="430.18" cy="96.1467" rx="2.06362" ry="1.90488"/>
  <ellipse fill="black" stroke="black" stroke-width="0.216" transform="matrix(-1.51197 0.918764 0.572556 0.942231 307.632 378.265)" rx="2.06362" ry="1.90488"/>
  <path fill="black" stroke="black" stroke-width="0.216" d="M425.884 72.3357c-12.2763,1.05846 -15.6626,5.71522 -7.61953,15.2391 -12.2763,-11.6405 -8.88974,-16.297 7.61953,-15.2391z"/>
  <path fill="black" stroke="black" stroke-width="0.216" d="M326.932 214.407c4.78007,1.116 9.63326,7.76977 6.33289,8.21282 -3.95972,0.53178 -5.37988,-2.74621 -9.02211,-2.53162 -0.809575,2.42447 1.87257,7.07131 4.2378,6.32126 -1.332,0.165827 -3.43332,0.0943937 -4.92633,-0.253984 -4.78007,-1.11543 -7.4075,-4.65166 -6.65037,-7.89534 0.757134,-3.24369 5.24807,-4.96914 10.0281,-3.85314z"/>
  <path fill="black" stroke="black" stroke-width="0.216" d="M317.623 231.076c-8.46652,-6.34961 -6.98485,-12.6992 -6.03213,-19.0488 -4.76249,8.46624 -2.75188,14.8156 6.03213,19.0488z"/>
  <ellipse fill="black" stroke="black" stroke-width="1.98425" transform="matrix(0.967044 -0.191695 0.254609 0.728085 313.337 251.225)" rx="4.28599" ry="1.5874"/>
  <ellipse fill="black" stroke="black" stroke-width="1.98425" transform="matrix(0.967044 -0.191695 0.254609 0.728085 307.623 306.784)" rx="4.28599" ry="1.5874"/>
  <ellipse fill="black" stroke="black" stroke-width="1.98425" transform="matrix(0.914545 0.368142 -0.184828 0.748848 335.904 179.387)" rx="4.28599" ry="1.5874"/>
 </g>
</svg>
