<?xml version="1.0" encoding="UTF-8"?>
<!DOCTYPE svg PUBLIC "-//W3C//DTD SVG 1.1//EN" "http://www.w3.org/Graphics/SVG/1.1/DTD/svg11.dtd">
<!-- Creator: CorelDRAW -->
<svg xmlns="http://www.w3.org/2000/svg" xml:space="preserve" width="500px" height="692px" shape-rendering="geometricPrecision" text-rendering="geometricPrecision" image-rendering="optimizeQuality" fill-rule="evenodd" clip-rule="evenodd"
viewBox="0 0 500 692"
 xmlns:xlink="http://www.w3.org/1999/xlink"
 xmlns:svg="http://www.w3.org/2000/svg"
 version="1.0">
 <g id="Layer_x0020_1">
  <metadata id="CorelCorpID_0Corel-Layer"/>
  <path id="path1937" fill="#FFD90F" stroke="black" stroke-width="0.992126" d="M17.6437 171.311l453.632 -0.269575 -16.6269 302.843c-19.0653,128.789 -92.964,167.968 -143.768,185.872 -32.616,11.4945 -53.9878,3.09345 -66.7741,31.3416 -14.745,-28.7467 -39.0257,-20.437 -72.006,-32.6639 -52.8764,-19.6039 -123.347,-62.265 -140.154,-184.478l-14.3022 -302.645z"/>
  <path fill="black" d="M312.971 446.9c-11.7213,-58.1423 -10.6234,-89.3322 -1.84054,-108.33 6.08344,-13.1581 5.74214,-19.37 19.4326,-31.8104 -2.85903,-16.2224 33.4692,-9.252 62.1791,-44.6601 8.72448,-10.76 6.63222,-24.5948 2.5098,-27.5054 -8.71342,-6.15147 -15.6685,-1.80907 -15.6016,4.94079 0.068315,6.88309 6.57326,10.2121 10.8451,5.80167 -1.19254,7.55377 -14.0139,11.4301 -20.2757,-1.19254l-1.49074 1.19254c1.2926,5.8646 -1.78866,10.6353 -6.85786,14.9085 -2.53814,-6.60756 -1.34419,-14.4598 0.894331,-22.661l-1.49074 -1.78895 -3.57818 3.57818c-1.74076,-9.19361 0.0479055,-17.1451 8.64709,-22.3628l6.26145 -3.57818 -0.894331 -4.47251c-2.18665,3.77688 -6.36123,5.96381 -12.5232,6.55966 2.33405,-13.519 24.1994,-21.9677 36.9732,-13.7157 35.2446,12.9747 19.8967,57.6176 1.22485,77.5239 -4.82599,5.14517 -10.7813,11.704 -30.8174,18.3232 -10.6427,3.51581 -19.3697,3.35537 -22.2891,9.70526l1.19254 1.49074c1.97887,-0.640063 17.6134,-2.65748 28.7445,-2.75613 9.64687,-0.0853229 22.3013,5.79544 27.993,10.4601 17.8039,14.5913 20.1283,39.5547 12.9444,54.6993 -2.21584,6.71868 -22.3472,35.2851 -1.6988,38.6768 -21.5626,7.99654 -26.2021,-6.83575 -22.0385,-14.0199 2.13194,-3.67852 2.82416,-6.75695 -1.81531,-5.36145 -0.109134,3.18671 -7.40693,9.20041 0.114803,22.6474 3.72699,6.66255 4.57115,20.0288 -11.147,23.8674l-3.27997 1.49074c10.6347,-19.5798 -10.6347,-20.3749 2.08715,-41.4457l1.6285 -5.29966c-7.32785,2.17531 -5.11484,10.389 -9.79682,17.0739 -4.68142,6.68466 -12.9787,9.75487 -17.176,-2.23285 23.9528,-0.993827 4.37301,-30.0158 28.3261,-35.1842 -0.795119,-4.07481 -3.57846,-5.56555 -9.54142,-1.49074 -9.44221,7.25556 -13.6165,-10.4358 -7.15607,-14.3121 -2.78334,-7.25528 3.97531,-12.7216 11.0322,-13.1196 -3.40044,10.9735 9.85862,14.6081 14.0142,12.5232 22.4283,-10.158 2.33121,-33.8219 0.59641,-31.9042 -30.3143,-13.0201 -37.3709,10.0386 -56.6524,-0.59641l-5.66533 7.75248 -0.59641 3.57789 2.23625 -1.63984c13.3679,4.32369 16.2003,10.5355 12.0759,18.0394 -7.05685,-7.55377 -11.0324,-9.04451 -18.1882,-3.87638l0 3.57818c8.94473,-7.255 21.8656,3.67767 14.0139,13.1196 -6.36095,-9.24322 -14.7101,-7.45427 -18.7846,0l1.49074 2.08715c2.48457,-7.45427 21.3687,0 13.7157,14.9085 -4.36054,-2.95682 -5.15481,-8.2389 -10.4579,-1.05874 -4.19188,5.67581 -6.72407,15.7159 -0.5743,43.9951l-0.59641 24.152 -8.34889 -0.298205z"/>
  <ellipse fill="black" transform="matrix(0.939384 -0.156331 0.156331 0.939384 85.5486 230.405)" rx="9.91248" ry="13.2713"/>
  <ellipse fill="white" transform="matrix(0.736967 -0.122645 0.122645 0.736967 84.6845 231.072)" rx="9.91248" ry="13.2713"/>
  <ellipse fill="#F00000" transform="matrix(0.831602 -0.138394 0.138394 0.831602 83.8582 229.261)" rx="9.91248" ry="13.2713"/>
  <path fill="black" d="M126.947 396.93c6.16252,-2.28784 11.3309,0.892063 14.3121,16.1011 3.47868,-2.9812 5.36712,-9.93884 5.66504,-20.8718 4.47307,3.27997 6.16252,9.74041 5.06892,19.381 6.61011,-3.30406 9.9893,-10.8085 8.64709,-24.45 3.92684,3.77632 6.11348,9.54057 4.47251,19.6793 7.10788,-3.8092 11.0344,-10.7997 11.7805,-20.9702l1.9355 0.0980788c3.87751,1.29147 2.18693,8.94501 -0.298205,18.1885 10.8493,-5.22425 14.9392,-14.2265 11.9724,-29.6887l2.63792 -1.02302c8.54759,13.4178 2.18665,25.0464 0.59641,26.8353 8.87698,10.6889 47.6958,8.1893 56.9503,47.4092l60.5288 0 -27.1335 -90.942c3.77773,-6.60813 0.994394,-18.1375 -4.77071,-31.9042 7.40467,0.644599 12.9708,7.99909 16.6975,24.7482 7.72781,-16.4489 6.38561,-34.4384 -8.94501,-52.4781l1.49074 -0.59641c5.86403,4.37358 10.237,6.36123 16.9957,15.8032 4.1743,-8.94501 -0.795402,-21.4682 -14.9085,-37.5696l2.98177 -0.298205c4.96942,2.48485 8.7463,3.77717 13.1196,9.2435 0.894331,-10.7342 -4.17458,-20.2757 -15.2067,-28.6245l-1.19282 -3.27997c4.2738,1.69002 7.95119,2.78306 12.8214,6.85815 -0.943371,-8.44838 -7.90073,-14.7098 -17.5921,-19.9775l1.49102 -2.08715c3.37918,0.49663 6.36066,1.78866 8.94501,3.8761 -1.68973,-5.76454 -6.36095,-11.8273 -9.54142,-16.3993l-3.27997 2.68356c-1.58995,-22.8597 -19.878,-4.2738 -22.6607,-4.17458 -4.07509,1.88844 -20.6731,-1.58995 -31.0099,-2.38536 -5.46633,1.19282 -8.54731,3.57818 -9.24322,7.15607 -1.31726,4.85887 -19.6305,4.94703 -9.31919,12.7877l0.0759685 5.40085c3.17962,-0.892063 5.76369,0.79767 7.75219,5.06892 5.24296,3.60284 18.0394,-10.4593 30.5229,3.95036 1.99162,2.2989 0.501733,13.752 -4.81295,18.2599 -5.20866,4.41808 -25.5679,-12.077 -29.8843,0.450709 0.298205,3.57789 4.77071,4.47251 5.36712,8.05068 6.55966,-7.85197 22.661,12.026 42.0421,-2.08743 -1.98765,4.96914 -6.75837,7.5532 -14.3121,7.75248 -6.80372,4.45521 -28.0939,4.77496 -51.2856,4.47251l-34.2896 -38.1657c-7.05657,-3.67767 -7.85169,-15.4057 -11.6286,-22.9592l-0.298205 -5.66533c-2.88227,0 -7.49821,1.04372 -6.78303,-3.46621 1.26652,-7.98804 3.30463,-10.0009 4.09947,-9.0567 1.29232,-10.7342 -13.5167,-9.2435 -12.8214,-7.15635 -4.37301,-3.4784 -11.4296,-2.48457 -12.225,1.19282 -2.69065,-5.19137 -9.44618,0.383811 -9.24322,4.47251 -11.6425,-0.494646 -9.67919,6.23566 -14.0822,10.175 -6.59367,5.8989 -6.68552,21.7942 -1.1245,19.3439 3.08126,6.26202 7.35534,10.1381 12.8214,11.6286 5.86432,1.59052 5.76482,11.2314 16.6975,15.505 -7.45427,5.06892 0.298205,11.6286 -15.2067,13.4178 0.931749,8.9076 9.34782,7.70514 15.1223,2.30684 4.79991,-4.48668 2.44517,-9.38863 8.43336,-14.83l5.06892 0.59641c-15.8032,9.44221 -1.78895,23.6548 -17.8903,27.4317 4.0904,9.15591 11.1685,7.12517 13.7016,0.745796 2.66825,-6.71953 -0.0972284,-15.2912 11.3448,-21.0215 -9.93912,10.4358 -7.05685,17.5921 -10.1378,24.1518 1.88816,3.37947 0.795119,8.8458 -2.38536,13.7157 18.089,1.69002 4.27351,-11.8273 16.6975,-25.3443l1.78923 2.38536c-11.8278,15.7037 4.37301,27.5312 -10.436,37.2714 4.47222,9.54142 14.1131,1.19254 12.8214,-7.15635l3.27969 1.78923 -3.27969 8.3486 4.77071 3.57818c8.44782,-0.894331 14.5106,-2.18636 18.1882,-3.8761l-0.0405355 2.44517c-3.93647,1.29345 -7.87295,1.69257 -11.8091,3.88035 -1.61603,2.86101 -2.43695,7.31226 -2.46246,13.3537 -5.54088,5.94454 -10.0315,10.1358 -25.4197,18.2033 -11.7224,6.14523 -11.2399,10.9244 -34.2145,15.7881 -6.75837,-0.0992126 -15.0078,-14.2126 -22.9589,-12.8214 0.596126,2.28614 -0.894615,8.15018 0.894331,10.436 -3.6771,3.37918 -6.16196,6.16224 -8.3486,10.1378 7.9115,1.39181 4.79084,9.87251 6.55966,13.7157l5.66533 -0.298205c0.0994961,-9.54142 12.424,-6.26145 19.0828,-10.734 -0.496914,10.2368 -16.2006,-0.397701 -17.2939,13.4175 5.0692,0.596126 7.35506,3.17991 6.85786,7.75248 -5.53465,0.875622 -2.38932,9.62278 4.51673,5.26451 3.85314,-2.43184 1.62709,-15.2345 10.9882,-15.9987 -0.794835,8.64709 7.15663,12.1255 11.3304,6.85815 -5.16813,-7.45427 0.993827,-16.1014 10.1378,-8.64709 1.09304,-3.57818 -1.98822,-5.5664 -6.55966,-4.77071l0.59641 -1.78895z"/>
  <path fill="#0057F0" d="M123.633 394.72c6.16252,-2.28784 11.3309,0.892063 14.3121,16.1011 3.47896,-2.9812 5.3674,-9.93884 5.66533,-20.8718 4.47279,3.27997 6.16224,9.74041 5.06892,19.381 6.61011,-3.30406 9.98901,-10.8085 8.64681,-24.45 3.92712,3.77632 6.11348,9.54057 4.47279,19.6793 7.10788,-3.8092 11.0341,-10.7997 11.7802,-20.9702l1.9355 0.0980788c3.87751,1.29147 2.18721,8.94501 -0.298205,18.1885 10.8493,-5.22425 14.9392,-14.2265 11.9724,-29.6887l2.63792 -1.02302c8.54788,13.4178 2.18665,25.0464 0.59641,26.8353 8.87698,10.6889 47.6961,8.1893 56.9506,47.4092l60.5288 0 -27.1338 -90.942c3.77802,-6.60813 0.994678,-18.1375 -4.77071,-31.9042 7.40495,0.644599 12.9711,7.99909 16.6978,24.7482 7.72753,-16.4489 6.38533,-34.4384 -8.9453,-52.4781l1.49102 -0.59641c5.86375,4.37358 10.237,6.36123 16.9957,15.8032 4.17402,-8.94501 -0.795685,-21.4682 -14.9085,-37.5696l2.98177 -0.298205c4.96942,2.48485 8.74602,3.77717 13.1193,9.2435 0.894331,-10.7342 -4.17458,-20.2757 -15.2067,-28.6245l-1.19254 -3.27997c4.27351,1.69002 7.95119,2.78306 12.8214,6.85815 -0.943654,-8.44838 -7.90101,-14.7098 -17.5921,-19.9775l1.49074 -2.08715c3.37947,0.49663 6.36095,1.78866 8.9453,3.8761 -1.69002,-5.76454 -6.36123,-11.8273 -9.54142,-16.3993l-3.27997 2.68356c-1.59024,-22.8597 -19.878,-4.2738 -22.661,-4.17458 -4.07481,1.88844 -20.6731,-1.58995 -31.0096,-2.38536 -5.46633,1.19282 -8.54731,3.57818 -9.2435,7.15607 -1.31698,4.85887 -19.6302,4.94703 -9.3189,12.7877l0.0756851 5.40085c3.17962,-0.892063 5.76369,0.79767 7.75248,5.06892 5.24296,3.60284 18.0391,-10.4593 30.5229,3.95036 1.99162,2.2989 0.501449,13.752 -4.81295,18.2599 -5.20895,4.41808 -25.5679,-12.077 -29.8843,0.450709 0.297921,3.57789 4.77071,4.47251 5.36684,8.05068 6.55994,-7.85197 22.661,12.026 42.0421,-2.08743 -1.98765,4.96914 -6.75837,7.5532 -14.3121,7.75248 -6.80344,4.45521 -28.0936,4.77496 -51.2853,4.47251l-34.2896 -38.1657c-7.05657,-3.67767 -7.85169,-15.4057 -11.6286,-22.9592l-4.17458 1.49102c-2.88227,0 -2.11323,-5.48448 -3.80155,-9.72794 -1.91282,-4.80813 -1.36658,-8.60967 2.60901,-10.8459 1.29203,-10.7342 -11.1317,-8.34889 -10.436,-6.26174 -4.37301,-3.4784 -11.4299,-2.48457 -12.225,1.19282 -2.69093,-5.19137 -9.44646,0.383811 -9.24322,4.47251 -11.6427,-0.494646 -9.67919,6.23566 -14.0825,10.175 -6.59339,5.8989 -6.68552,21.7942 -1.12422,19.3439 3.08098,6.26202 7.35534,10.1381 12.8214,11.6286 5.86403,1.59052 5.76454,11.2314 16.6975,15.505 -7.45427,5.06892 0.298205,11.6286 -15.2067,13.4178 0.931749,8.9076 9.34753,7.70514 15.1223,2.30684 4.79962,-4.48668 2.44517,-9.38863 8.43308,-14.83l5.06892 0.59641c-15.8029,9.44221 -1.78895,23.6548 -17.89,27.4317 4.0904,9.15591 11.1682,7.12517 13.7013,0.745796 2.66825,-6.71953 -0.0972284,-15.2912 11.3448,-21.0215 -9.93884,10.4358 -7.05685,17.5921 -10.1375,24.1518 1.88816,3.37947 0.794835,8.8458 -2.38536,13.7157 18.0887,1.69002 4.27351,-11.8273 16.6975,-25.3443l1.78895 2.38536c-11.8276,15.7037 4.37301,27.5312 -10.436,37.2714 4.47251,9.54142 14.1134,1.19254 12.8214,-7.15635l3.27997 1.78923 -3.27997 8.3486 4.77071 3.57818c8.4481,-0.894331 14.5106,-2.18636 18.1885,-3.8761l-0.0408189 2.44517c-3.93647,1.29345 -7.87267,1.69257 -11.8091,3.88035 -1.61603,2.86101 -2.43666,7.31226 -2.46217,13.3537 -5.54117,5.94454 -10.0318,10.1358 -25.42,18.2033 -11.7224,6.14523 -11.2397,10.9244 -34.2142,15.7881 -6.75865,-0.0992126 -15.0078,-14.2126 -22.9592,-12.8214 0.59641,2.28614 -0.894615,8.15018 0.894615,10.436 -3.67739,3.37918 -6.16224,6.16224 -8.34889,10.1378 7.91178,1.39181 4.79084,9.87251 6.55966,13.7157l5.66533 -0.298205c0.0994961,-9.54142 12.424,-6.26145 19.0828,-10.734 -0.49663,10.2368 -16.2003,-0.397701 -17.2939,13.4175 5.0692,0.596126 7.35506,3.17991 6.85815,7.75248 -5.53465,0.875622 -2.38932,9.62278 4.51644,5.26451 3.85342,-2.43184 1.62737,-15.2345 10.9882,-15.9987 -0.794552,8.64709 7.15663,12.1255 11.3307,6.85815 -5.16813,-7.45427 0.993544,-16.1014 10.1378,-8.64709 1.09276,-3.57818 -1.98822,-5.5664 -6.55994,-4.77071l0.59641 -1.78895z"/>
  <polygon fill="black" points="161.101,578.591 165.872,493.314 145.299,493.314 146.491,426.226 170.046,426.19 172.392,447.992 195.391,447.992 195.391,426.152 227.594,426.103 228.433,447.992 265.163,447.992 265.163,426.046 296.471,425.999 296.471,447.992 321.527,447.992 322.114,425.96 343.284,425.928 343.284,493.314 320.128,493.145 328.077,578.293 "/>
  <polygon fill="white" points="159.512,575.412 164.283,490.135 143.709,490.135 144.902,423.047 168.457,423.011 170.803,444.813 193.801,444.813 193.801,422.973 226.004,422.924 226.843,444.813 263.573,444.813 263.573,422.867 294.881,422.82 294.882,444.813 319.937,444.813 320.524,422.781 341.694,422.748 341.694,490.135 318.538,489.966 326.488,575.114 "/>
  <path fill="white" d="M242.455 268.288c-0.421229,2.40803 -3.84747,2.90438 -8.63944,2.53219 -14.1766,-6.50608 -20.4327,-4.8172 -23.0882,0.595843 -18.0547,2.20932 -28.0721,-5.13865 -31.43,-20.4072 0.297921,-6.55399 11.3207,-2.38337 11.6187,6.25635 1.82495,2.96703 11.5815,5.02753 18.3217,3.42595 0.645449,-4.0218 -1.09219,-5.95843 -1.63871,-8.93736 -2.3828,-12.1913 12.0161,-8.46681 8.04388,-0.149102 -0.347811,2.8304 0.0994961,6.05792 1.3405,9.6823 10.2223,0.987308 18.8246,3.23377 25.4716,7.00101z"/>
  <path fill="#F00000" d="M240.37 267.543c-0.420945,2.40832 -3.84718,2.90438 -8.63944,2.53219 -14.1766,-6.5058 -20.4324,-4.81692 -23.0882,0.595843 -18.0547,2.20932 -28.0718,-5.13836 -31.4297,-20.4069 0.297638,-6.55427 11.3204,-2.38337 11.6184,6.25607 1.82495,2.96703 11.5815,5.02781 18.3217,3.42595 0.645449,-4.0218 -1.09219,-5.95814 -1.63843,-8.93736 -2.38309,-12.1913 12.0158,-8.46681 8.04359,-0.148819 -0.347811,2.8304 0.0994961,6.05792 1.3405,9.68202 10.2223,0.987308 18.8249,3.23377 25.4716,7.00101z"/>
  <path fill="black" stroke="black" stroke-width="0.216" d="M89.775 410.095c-9.90057,2.844 -4.53458,16.5966 1.48961,19.8113 -3.47755,-9.68712 -2.23682,-13.8603 0.595843,-15.0446 1.68775,-1.63843 -0.645733,-5.36259 -2.08545,-4.76674z"/>
  <path fill="white" d="M88.2854 407.265c-9.41755,2.36126 -5.64095,12.7874 -1.3405,17.7259 -0.200693,-9.3892 1.78498,-12.3707 4.61764,-13.555 1.68775,-1.63871 -1.83742,-4.76674 -3.27714,-4.1709z"/>
  <path fill="black" d="M80.2418 372.111c-9.71547,0.722552 -13.6848,10.9998 -10.2781,17.8747 1.8652,-9.42832 6.82696,-7.94693 11.4698,-9.5332 1.24044,-1.11742 -0.100063,-8.76388 -1.19169,-8.34152z"/>
  <path fill="white" d="M78.0072 369.281c-9.71519,0.722835 -11.5991,9.65934 -8.19241,16.5342 1.86435,-4.69247 3.99657,-4.6029 8.63944,-8.34152 1.24044,-1.11742 0.644882,-8.61506 -0.447024,-8.1927z"/>
  <path fill="#F00000" d="M78.0072 368.834c-9.71519,0.722552 -13.6845,10.9998 -10.2779,17.8747 1.86491,-9.42832 6.82696,-7.94693 11.4695,-9.5332 1.24073,-1.11742 -0.0997796,-8.76388 -1.19169,-8.34152z"/>
  <path fill="black" d="M122.736 423.491c9.49125,-5.41701 12.1742,-15.3034 8.19893,-23.5534 -4.77071,-2.18636 -9.54142,0.246614 -9.83963,9.09241 3.57789,5.06892 3.13115,9.54114 1.64069,14.461z"/>
  <path fill="black" d="M76.0709 393.56c-7.183,2.36126 -6.23679,13.9791 -1.48961,18.9176 -0.20041,-9.3892 0.742394,-11.179 5.80933,-13.2571 1.68803,-1.3405 -2.88,-6.25607 -4.31972,-5.66051z"/>
  <path fill="white" d="M73.3896 392.22c-7.183,2.36126 -7.13055,11.149 -2.38309,16.0875 0.693071,-5.06948 1.63616,-8.34889 6.70281,-10.427 1.68803,-1.34079 -2.87972,-6.25635 -4.31972,-5.66051z"/>
  <path fill="#F00000" d="M72.7937 390.432c-7.183,2.36126 -6.23679,13.9791 -1.48932,18.9176 -0.200693,-9.3892 0.742394,-11.179 5.80933,-13.2571 1.68775,-1.34079 -2.88,-6.25635 -4.32,-5.66051z"/>
  <path fill="white" d="M123.481 420.661c8.7463,-5.86375 9.64177,-11.7286 5.66646,-19.9783 -4.77071,-2.18636 -9.54142,-1.98794 -9.83963,6.85786 3.57789,5.06892 5.0675,8.05153 4.17317,13.1204z"/>
  <polygon fill="#F00000" points="157.922,576.604 162.693,491.327 142.12,491.327 143.312,424.239 166.867,424.203 169.213,446.005 192.212,446.005 192.212,424.165 224.414,424.116 225.254,446.005 261.983,446.005 261.983,424.059 293.292,424.012 293.292,446.005 318.348,446.005 318.935,423.973 340.105,423.941 340.105,491.327 316.949,491.158 324.898,576.306 "/>
  <path id="path1937_0" fill="white" d="M431.288 552.302c-24.1503,63.1585 -83.0166,92.7173 -120.805,105.866 -32.6619,11.3641 -53.9878,3.09317 -66.7741,31.3413 -14.745,-28.7464 -39.0266,-20.4375 -72.006,-32.6639 -38.0041,-14.0893 -87.3338,-44.6508 -117.058,-103.541 17.4813,-0.0300473 29.4378,22.6437 54.6778,22.6106 25.2397,-0.0328819 40.4839,-26.1264 62.9459,-26.1644 22.4617,-0.0377008 48.5703,25.9767 71.8266,25.9379 23.256,-0.0388347 44.1003,-25.638 68.5497,-25.9742 24.4494,-0.336189 48.337,25.5087 70.9957,25.7392 17.8407,0.181134 37.2986,-19.1245 47.6479,-23.1514z"/>
  <path id="path1937_1" fill="#0057F0" d="M428.912 557.236c-22.1896,56.4934 -80.2429,89.7639 -118.032,102.52 -32.7708,11.0625 -53.9876,3.09373 -66.7738,31.3418 -14.745,-28.7464 -38.973,-20.575 -72.0063,-32.6639 -39.5722,-14.4819 -85.4964,-41.6818 -115.221,-100.572 17.4813,-0.0297638 32.5704,22.8563 52.443,22.8229 19.8723,-0.0334488 44.3302,-26.259 66.7922,-26.2967 22.4617,-0.0379843 44.7239,26.1091 67.9802,26.0702 23.256,-0.0391181 48.3044,-26.267 71.5609,-26.3052 23.2563,-0.0382677 45.3246,25.8387 67.9845,26.0702 17.8418,0.182268 30.1813,-15.3255 45.2724,-22.9879z"/>
  <path fill="none" stroke="black" stroke-width="1.41732" d="M147.486 445.707l21.1703 0m26.8353 0l29.8171 0m42.6385 0l25.6425 0m27.7299 0l18.7846 0"/>
  <line fill="none" stroke="black" stroke-width="1.41732" x1="145.399" y1="468.07" x2="340.105" y2= "468.07" />
  <line fill="none" stroke="black" stroke-width="1.41732" x1="162.577" y1="493.408" x2="317.159" y2= "493.413" />
  <line fill="none" stroke="black" stroke-width="1.41732" x1="168.06" y1="513.988" x2="230.676" y2= "513.988" />
  <line fill="none" stroke="black" stroke-width="1.41732" x1="253.933" y1="513.988" x2="319.079" y2= "513.975" />
  <line fill="none" stroke="black" stroke-width="1.41732" x1="164.184" y1="538.14" x2="227.993" y2= "538.14" />
  <line fill="none" stroke="black" stroke-width="1.41732" x1="256.915" y1="537.842" x2="321.307" y2= "537.843" />
  <line fill="none" stroke="black" stroke-width="1.41732" x1="209.327" y1="561.064" x2="280.802" y2= "561.157" />
  <path fill="none" stroke="black" stroke-width="1.41732" d="M182.969 447.794l0.0600945 20.8726m0.072 25.0452l0.0595276 20.5744m0.0685985 23.8536l0.0379843 13.1193"/>
  <path fill="#F00000" d="M126.865 226.878c1.06639,7.47723 5.48419,12.6595 13.2571,11.4695 -7.89478,-7.14983 4.76646,-7.29893 -4.91556,-13.555l-8.34152 2.08545z"/>
  <path fill="none" stroke="black" stroke-width="1.41732" d="M304.067 447.794l0.0600945 20.8726m0.072 25.0452l0.0592441 20.5744m0.0688819 23.8536l0.0379843 13.1193"/>
  <path fill="none" stroke="black" stroke-width="1.41732" d="M210.699 467.772l0 25.3446m0 20.5739l0 24.45"/>
  <path fill="none" stroke="black" stroke-width="1.41732" d="M276.157 467.772l0 25.3446m0 20.5739l0 24.45"/>
  <path fill="none" stroke="black" stroke-width="1.41732" d="M243.498 447.198l0.297354 21.17m0.356032 25.348l0.247181 17.5884m0.703843 50.0953l0.184536 13.117"/>
  <line fill="none" stroke="black" stroke-width="1.41732" x1="158.817" y1="468.07" x2="158.817" y2= "490.731" />
  <line fill="none" stroke="black" stroke-width="1.41732" x1="330.861" y1="468.07" x2="330.861" y2= "490.731" />
  <path fill="#FFD90F" d="M253.635 559.012l-23.8536 0 0 -33.6932c0.0994961,-17.2939 23.6551,-17.5921 24.1518,0l-0.298205 33.6932z"/>
  <path fill="black" d="M233.658 524.126l0 34.886 -3.87638 0 0 -33.6932c0.0776693,-13.5108 14.472,-16.6482 21.0028,-8.98583 -3.98665,-4.98955 -17.818,-3.14532 -17.1264,7.79301z"/>
  <path fill="white" d="M230.974 559.012l-1.19282 0 0 -33.6932c0.0464882,-8.10624 5.24693,-12.479 10.8111,-13.0241 -5.02555,3.25786 -9.88186,4.87106 -9.61824,14.2166l0 32.5006z"/>
  <path fill="#0057F0" d="M311.48 445.111c-11.7215,-58.142 -10.6237,-89.3319 -1.84054,-108.33 6.08315,-13.1581 5.74214,-19.37 19.4326,-31.8101 -2.85903,-16.2227 33.469,-9.252 62.1791,-44.6601 8.72448,-10.76 6.63222,-24.5948 2.5098,-27.5054 -8.71342,-6.15175 -16.8616,-0.914741 -16.7944,5.83512 0.0685985,6.88337 8.95862,11.7031 13.2304,7.2927 -1.19254,7.55377 -15.2067,9.04451 -21.4682,-3.57818l-1.49074 1.19282c1.2926,5.86432 -1.78895,10.635 -6.85815,14.9085 -2.53814,-6.60785 -1.34419,-14.4598 0.894615,-22.661l-1.49074 -1.78895 -3.57818 3.57789c-1.74076,-9.19361 0.0479055,-17.1448 8.64681,-22.3628l6.26174 -3.57789 -0.894615 -4.47251c-2.18665,3.77688 -6.36095,5.96381 -12.5232,6.55966 2.33405,-13.519 24.1997,-21.9677 36.9732,-13.716l-3.8761 -0.297921 -0.298205 2.08715c31.1681,6.38504 33.9568,48.5198 5.39944,75.1386 -5.16076,4.81011 -10.7813,12.3001 -30.8177,18.9193 -10.6427,3.5161 -19.3697,3.35537 -22.2891,9.70555l1.19282 1.49074c1.97858,-0.640063 17.6128,-2.65748 28.7445,-2.75613 9.64687,-0.0856063 20.5118,7.8823 26.2038,12.547 17.8041,14.5919 21.9175,36.5732 14.7334,51.7179 -4.60092,9.70045 -22.0487,39.1615 -1.4006,42.5529 -21.5626,7.99682 -26.5,-9.81723 -22.3365,-17.0014 2.13194,-3.67852 2.82388,-6.75723 -1.81531,-5.36145 -0.109134,3.18671 -8.30183,10.0947 -0.779811,23.5417 3.72699,6.66284 5.46577,19.1344 -10.2524,22.9728l-3.27997 1.49102c10.6347,-19.5798 -10.635,-20.3749 2.08715,-41.4459l1.6285 -5.29937c-7.32813,2.17531 -5.11512,10.3887 -9.79682,17.0736 -4.6817,6.68495 -12.979,9.75487 -17.1763,-2.23257 23.9531,-0.993827 3.18047,-27.3322 27.1335,-32.5006 -0.795119,-4.07509 -2.38592,-4.96914 -8.3486,-0.894615 -9.44221,7.25556 -14.5111,-8.94473 -8.05068,-12.8214 -2.78334,-7.255 4.27323,-15.107 11.3304,-15.5047 -1.29203,9.44221 5.26734,15.3062 15.2067,14.0139l-0.298205 -2.08715c14.4116,-1.39153 14.6101,-23.1579 0.59641,-32.2024l0 -3.27997c-30.3143,-13.0201 -37.6691,10.635 -56.9506,0l-5.66533 8.05068 -0.596126 4.47251 2.23597 -1.63984c13.3679,4.32369 17.9895,10.2373 13.8651,17.7412 -7.05685,-7.55377 -12.8217,-8.7463 -19.9775,-3.57818l0 3.57818c8.94501,-7.25528 24.251,5.46662 16.3996,14.9085 -6.36123,-9.24322 -16.4993,-10.1375 -20.5739,-2.68356l0.894615 2.98148c2.48457,-7.45427 23.1576,-0.596126 15.5047,14.3124 -4.36054,-2.95682 -6.94375,-7.64278 -12.2468,-0.462331 -4.19216,5.67581 -7.32048,15.4176 -1.17071,43.6969l0 24.45 -8.34889 -0.298205z"/>
  <path fill="black" d="M273.911 371.463c1.09361,-5.06892 4.572,-10.7342 6.85786,-16.1011l1.78923 4.1743c-2.08715,5.16785 -4.96914,9.14344 -8.64709,11.9268z"/>
  <path fill="black" d="M255.723 378.619c2.18665,-3.67739 11.5294,-13.3183 7.45427,-26.2389l3.8761 -2.08715c2.45962,17.3682 -3.95065,30.4376 -11.3304,28.3261z"/>
  <path fill="black" d="M235.745 391.142c3.47868,-8.05068 15.008,-10.1378 10.4358,-32.2024l2.68356 -2.38536c5.71607,15.8017 -0.247748,31.4053 -13.1193,34.5878z"/>
  <path fill="black" d="M216.662 392.633c1.09361,-4.77071 16.2009,-6.26174 12.225,-30.4135l3.57818 -2.68356c4.6715,17.3931 -1.78895,32.3017 -15.8032,33.0971z"/>
  <path fill="black" d="M203.841 392.335c0.795119,-4.27408 16.4988,-4.9697 11.9268,-26.2392l3.57789 -3.27969c5.50007,23.9474 -5.48504,30.3517 -15.5047,29.5189z"/>
  <path fill="black" d="M187.74 398.298c3.21421,-4.27238 19.7663,-11.3287 12.5232,-30.1153l3.57818 -3.57789c6.5846,20.698 -4.39767,34.7616 -16.1014,33.6932z"/>
  <path fill="white" d="M189.528 395.316c1.88873,-5.46633 2.18665,-12.5232 0.894615,-21.17 5.51792,2.08913 4.22504,22.6622 -0.894615,21.17z"/>
  <path fill="white" d="M207.419 388.757c2.28586,-9.74041 -1.98794,-14.7098 -2.98177,-22.0646 7.2567,4.91896 9.14542,19.6282 2.98177,22.0646z"/>
  <path fill="white" d="M217.557 391.44c0.298205,-7.95147 5.96353,-14.1134 2.68356,-25.6428 4.6715,2.68328 4.07509,21.9648 -2.68356,25.6428z"/>
  <path fill="white" d="M237.534 387.862c-1.29203,-7.05714 1.58995,-14.4119 -4.77071,-25.6428 8.4481,1.39124 10.933,22.1638 4.77071,25.6428z"/>
  <path fill="white" stroke="white" stroke-width="0.216" d="M256.617 377.128c-1.59024,-11.2314 -5.86403,-9.64092 -6.55966,-17.5921 5.39178,1.01849 11.7031,13.591 6.55966,17.5921z"/>
  <path fill="white" d="M273.911 369.077c-0.298205,-10.2373 -7.45427,-10.635 -6.26145,-17.2939 6.16196,4.07481 9.73985,11.9262 6.26145,17.2939z"/>
  <path fill="white" d="M118.564 252.493l-2.98177 -1.78895 -1.78895 2.08715c3.08126,3.27997 4.6715,6.55966 9.24322,9.83963l3.57818 0.298205c-1.78895,-3.47868 -8.64709,-5.16813 -8.05068,-10.436z"/>
  <path fill="white" d="M125.124 265.314c-3.8761,5.16841 -1.19254,11.8276 -11.6286,15.505 13.716,1.19254 10.436,-9.83963 16.3996,-14.6103l-4.77099 -0.894615z"/>
  <path fill="white" d="M139.734 267.699l-3.57818 -0.298205c-11.9268,8.4481 -2.08715,21.9651 -12.8214,28.0281 13.8155,-2.38536 3.18076,-19.9775 16.3996,-27.7299z"/>
  <path fill="white" d="M138.84 297.516c0.198709,-4.07537 -1.88816,-8.44838 3.57789,-16.6975l-2.68328 -0.298205c-2.38536,5.31723 -3.77688,10.8828 -2.98177,16.9957l2.08715 0z"/>
  <path fill="white" d="M144.803 327.035c8.9453,-19.6793 -3.8761,-19.6793 3.57818,-33.0968 -2.24873,10.2056 8.59692,26.2134 -3.57818,33.0968z"/>
  <path fill="white" d="M157.922 323.159c2.28614,-2.58435 -0.198709,-20.3752 9.24322,-25.941l0.151654 -2.80573 -3.72955 -0.176032c-8.7463,14.9085 -4.96942,20.8721 -8.34889,30.4135l2.68356 -1.49074z"/>
  <path fill="white" d="M177.602 304.672c-11.4299,8.15018 -9.74041,14.5111 -17.2939,20.8721l2.08715 -0.298205c6.75865,-4.67121 4.572,-12.026 16.9957,-18.7849l-1.78895 -1.78895z"/>
  <path fill="white" d="M185.056 307.654l-3.57789 -1.49074c-7.3406,4.63833 -12.0342,8.63944 -12.5093,13.1216 -0.512504,4.83137 -8.79308,10.0488 -10.1517,12.2227 5.27131,0.401103 10.2433,0.502583 13.1196,-1.49074l-3.57818 0.298205 -3.27997 -1.19282c7.85197,-3.47868 2.58435,-12.9206 19.9775,-21.4682z"/>
  <path fill="white" d="M203.841 298.411l-6.85815 -3.57818c-7.45427,0.298488 -13.3177,2.58435 -17.5921,6.85786l0.894615 1.19282c7.40495,-5.07005 15.0579,-5.16898 23.5556,-4.47251z"/>
  <path fill="white" d="M179.093 300.796c4.12441,-4.12583 9.4921,-7.00838 17.5921,-7.15607l-2.38564 -2.38536c-8.84552,1.19254 -14.4111,5.26706 -17.89,9.24322l2.68356 0.298205z"/>
  <path fill="black" d="M194.001 305.567c-7.25556,0.198709 -11.7286,-1.59052 -16.996,-4.47251l0 3.27969c7.25556,2.98148 12.9206,3.97531 16.996,2.98177l0 -1.78895z"/>
  <path fill="black" d="M178.198 330.613l0 2.98148c4.86992,-0.0992126 9.44193,-1.09332 14.6103,-2.98148l-0.59641 -2.08715c-4.9697,-1.09332 -8.7463,2.28614 -14.0139,2.08715z"/>
  <path fill="white" d="M240.218 289.167c-16.6975,3.08126 -29.2207,1.98822 -40.2531,1.19282 4.91755,5.41843 28.2748,4.92095 40.2531,-1.19282z"/>
  <path fill="white" d="M242.007 248.02c12.6862,9.16867 2.43128,20.8633 -2.21159,24.7728 -2.68498,2.26091 -14.6761,-3.04299 -19.3107,-3.65159 -8.84863,-1.16221 -6.62003,3.65981 -3.22583,7.50303 1.73906,-4.3475 -2.95994,-8.84353 8.73978,-4.23468 5.41389,2.13307 10.9738,3.90784 16.0013,1.69597 4.8532,-2.13562 13.2134,-15.0316 3.58526,-26.682l-3.57818 0.59641z"/>
  <path fill="white" d="M225.905 234.304c9.04451,0.198709 16.0019,2.18665 19.9775,7.15607l2.08715 -1.49102c-4.27351,-3.3789 -10.0381,-7.25528 -19.0831,-8.64681l-2.98148 2.98177z"/>
  <polygon fill="black" points="225.905,225.955 223.52,235.199 233.36,226.552 "/>
  <polygon fill="white" points="224.414,223.272 236.341,225.657 230.676,229.831 233.062,225.955 224.713,225.657 "/>
  <path fill="white" d="M273.016 215.519c-11.4301,2.98177 -11.8278,11.6289 -22.661,10.7342l-0.298205 2.38536c15.306,1.19254 13.9144,-8.05068 23.5554,-11.6286l-0.596126 -1.49102z"/>
  <path fill="white" d="M253.337 223.272l-26.2392 -3.27997c-2.28586,0.497197 -0.397418,2.48485 0.298205,2.38536 9.09468,1.19339 17.642,1.29232 25.941,0.894615z"/>
  <path fill="white" d="M284.049 222.974c-2.08687,3.18388 -4.17402,4.9714 -6.26145,6.55994l3.57789 -6.55994 2.68356 0z"/>
  <path fill="#F00000" d="M93.9456 235.071c3.67399,11.1217 12.1147,16.2856 19.0664,11.9166 -3.57477,-4.61764 -7.29865,0.595843 -10.7249,-13.8529l-8.34152 1.93635z"/>
  <path fill="white" d="M217.855 225.657l2.08715 0 -0.59641 2.68356c-12.8789,5.00939 -13.1431,5.04567 -9.51648,7.94467 -0.405638,2.42079 -0.016441,4.44359 1.16787,6.06926l-2.38536 0 -0.59641 -5.06892c-9.83963,-6.85786 6.55966,-7.75219 9.83963,-11.6286z"/>
  <path fill="black" d="M127.908 204.237c-6.45733,8.04076 -4.19471,18.6891 -1.19169,26.5142 3.72388,-0.595843 -1.63843,-3.42595 8.49062,-5.80933 -2.43326,-0.844441 -5.06523,-0.49663 -7.89478,1.04287 -0.0992126,-5.76 -1.39011,-12.7111 0.595843,-21.7477z"/>
  <path fill="#F00000" d="M115.693 229.857c0.507685,7.84999 5.89408,15.0188 14.2999,13.4062 -7.89478,-7.14983 -1.19169,-12.9592 -7.00101,-15.3425l-7.29893 1.93635z"/>
  <path fill="#F00000" d="M102.585 233.134c2.32838,9.62618 9.27553,14.8357 18.4708,12.9592 -9.6823,-7.74567 -3.12832,-10.8737 -10.129,-14.8955l-8.3418 1.93635z"/>
  <path fill="black" d="M115.395 208.705c-3.35197,8.73922 -4.34495,16.2366 -0.148819,21.003 0.0240945,2.40803 -0.124441,4.54281 0.744662,6.55399l2.08545 -1.04258c-1.6886,-7.84517 6.15629,-5.06523 7.44775,-6.85219 -2.55742,-1.81247 -6.97663,-0.37304 -9.3841,0.744945 -1.34107,-5.71011 -1.09276,-11.2215 0.744662,-16.5342l-1.48961 -3.87298z"/>
  <path fill="black" d="M112.863 245.2c-7.05374,1.764 -11.1243,-9.73418 -13.555,-25.7695l1.78753 0.297921c1.34079,-3.72359 3.47613,-5.85837 6.40489,-6.40517 -1.1914,6.15714 -7.14983,7.69635 -3.57477,18.4708 2.8304,-1.3405 5.26366,-1.29033 7.29893,0.148819 -2.43326,0.695339 -4.81607,-0.744378 -6.55427,1.34079 0.0748347,5.94652 4.94107,10.1415 8.1927,11.9163z"/>
  <path fill="black" d="M99.3082 243.115c-3.32646,-1.04287 -4.41893,-5.06466 -5.5114,-8.04388 2.33376,-1.73736 4.96488,-2.3828 8.34152,-2.38309 -1.83713,1.48932 -5.01477,0.893481 -6.40517,3.57477 1.19169,2.28416 2.08545,4.41921 3.57506,6.85219z"/>
  <path fill="white" stroke="white" stroke-width="0.216" d="M128.355 225.24c0.245764,-0.995245 0.494646,-4.91301 -0.145417,-8.58104 -1.20161,-6.88252 3.54614,-8.19411 2.11947,-13.3339 -0.827433,-2.98006 -11.4452,-4.80416 -8.52804,4.93399 0.903119,-0.460914 1.28041,-6.20306 6.22432,-3.18416 1.15852,0.707244 -0.565229,4.66441 -1.01084,5.86545 0.0496063,8.93736 0.49663,13.7038 1.3405,14.2997z"/>
  <path fill="white" d="M112.119 210.046c-1.88702,-8.0932 9.18539,-7.54696 8.19241,-1.04287 1.88674,1.29118 0.496347,5.11427 -1.48961,1.19169 0.0742678,-4.14567 -4.14624,-6.62854 -6.70281,-0.148819z"/>
  <path fill="white" d="M137.441 202.747c-2.09027,-2.01147 -4.99805,-1.43178 -5.21348,1.3405 0,1.24129 1.78753,1.14208 2.23427,0.149102 0.495213,-1.49358 1.68747,-1.59137 2.97921,-1.48961z"/>
  <path fill="white" d="M117.779 228.517c2.28388,-0.595843 -0.943371,-3.42595 -1.19169,-11.6187 -1.83713,2.23427 -1.88702,11.6187 1.19169,11.6187z"/>
  <path fill="white" d="M105.415 230.9c1.39039,0.0992126 -1.98595,-5.01506 0.595843,-12.6612 -3.9977,4.66668 -2.45849,12.9586 -0.595843,12.6612z"/>
  <path fill="white" d="M96.4781 227.474c-0.595843,-6.25607 0.595843,-9.73163 3.57477,-10.427 2.73062,-8.58983 10.0794,-6.15685 11.7678,-3.42624l-3.12832 0.149102c-2.43354,-2.61156 -6.05792,-0.125575 -8.19241,4.0218 -2.38337,1.88702 -2.68129,6.45477 -4.0218,9.6823z"/>
  <polygon fill="white" points="97.0739,228.815 96.031,233.581 98.1165,232.986 "/>
  <path fill="white" stroke="white" stroke-width="0.216" d="M94.5414 238.05c-0.168095,-2.0761 -1.18091,-4.48866 -1.26652,-6.63392 -0.142866,-3.57449 0.849827,-5.1497 0.670678,-10.645 -3.07843,5.01477 -5.85893,17.9243 0.595843,17.2789z"/>
  <path fill="white" d="M107.948 248.03c1.33795,0.697323 2.57754,0.450425 5.5114,-0.447024l-1.78753 -0.44674 -3.72388 0.893764z"/>
  <path fill="white" d="M97.5206 235.667c0.445607,1.8377 1.24044,3.32674 2.08545,4.76674 -0.497481,-1.48904 -0.945071,-3.02854 -1.04287,-4.91556l-1.04258 0.148819z"/>
  <polygon fill="white" points="101.989,234.177 102.883,237.305 101.096,234.773 "/>
  <polygon fill="black" points="110.778,245.2 112.714,247.136 112.714,245.498 "/>
  <path fill="white" d="M110.927 231.198c0.446457,3.12775 1.29033,6.00747 2.53219,8.34152 -0.0498898,-2.33376 0.794268,-3.77377 1.19169,-5.66051 -1.04315,-1.29061 -2.28473,-2.18466 -3.72388,-2.68101z"/>
  <path fill="black" d="M112.863 235.667c1.6217,8.79194 4.59071,7.47553 7.14983,9.23528 -2.92904,-2.92932 -4.9646,-7.24904 -5.5114,-10.5758l-1.63843 1.3405z"/>
  <polygon fill="white" points="117.183,246.541 121.652,246.541 120.162,244.306 117.928,245.349 "/>
  <path fill="white" d="M123.588 234.624c0,-2.08545 0.893764,-3.42595 0.44674,-4.91556 -1.3405,1.0423 -2.53191,2.38309 -0.44674,4.91556z"/>
  <path fill="black" d="M125.376 243.263c-2.74394,-2.08488 -4.80699,-6.10753 -7.59685,-6.25607 0.915024,2.7051 3.49795,5.1378 7.59685,6.25607z"/>
  <path fill="black" d="M127.014 230.602c-1.98624,3.42567 -1.39011,6.45421 1.78753,9.08618l0.148819 1.78753 -2.08517 -0.148819c-3.07899,-5.83484 -3.92315,-10.0553 0.148819,-10.7249z"/>
  <polygon fill="white" points="126.567,243.412 129.993,243.115 128.802,242.072 "/>
  <path fill="black" d="M135.207 238.199c-1.44028,-1.63871 -4.51843,-4.46882 -6.55427,-5.80933 0.794268,2.33348 2.97865,4.26983 6.55427,5.80933z"/>
  <path fill="black" d="M139.079 237.454c-2.18438,-2.13506 -2.18438,-4.66725 0,-7.59685l-1.48961 -1.48961c-0.645166,1.88702 -3.52517,7.19972 1.48961,9.08646z"/>
  <path fill="black" d="M157.326 211.643l168.744 -29.0849c17.0036,-1.08907 31.0246,-0.935434 38.4849,1.95137 -5.97147,4.73641 -16.7131,9.5726 -29.8398,12.7188l-175.004 32.3051 -2.38536 -17.8903z"/>
  <path fill="#0057F0" d="M157.624 209.258l168.744 -29.0849c17.0039,-1.08907 31.0249,-0.935434 38.4849,1.95137 -5.97118,4.73641 -16.7128,9.5726 -29.8395,12.7188l-175.004 32.3051 -2.38536 -17.8903z"/>
  <path fill="white" d="M190.721 210.749l149.383 -26.2389 1.19282 1.19254c-14.0139,4.572 -98.3963,17.4929 -147.594,26.2392l-2.98177 -1.19282z"/>
  <path fill="white" d="M134.462 233.879c-0.99326,-2.53219 0.347244,-5.0641 3.27714,-6.25607l-0.744662 -0.744662 0.148819 -1.63871 2.53219 3.42595 -0.44674 1.34079 -0.893764 -1.19169c-1.88731,0.695339 -3.17821,2.38394 -3.87298,5.06438z"/>
  <path fill="white" d="M313.269 183.913l-151.471 25.941 -3.87638 2.08715c4.22447,1.93776 11.3805,2.13647 17.5921,2.68356l4.1743 -1.78923 -11.3304 -1.19254c0.894615,-2.38536 132.984,-22.3628 144.911,-27.7299z"/>
  <path fill="black" d="M223.818 216.414l29.2207 2.68356c8.74602,0.496914 18.3869,-18.9836 26.2389,1.49074l6.85786 -1.19254c-2.58435,-25.941 7.35478,-21.4685 10.1378,-30.4135 -11.5294,-2.98177 -19.1823,3.27997 -13.1193,8.94501 -4.60403,0.391181 -8.80952,1.08255 -10.22,3.86788 0.23726,1.23109 1.56756,2.56195 3.39534,4.58788 -4.58929,2.90523 -10.3714,2.62942 -15.5563,-1.42441 4.67887,0.445323 8.65956,-1.20529 12.5413,-3.15496 -3.57818,-1.88844 -7.15635,-2.58406 -10.7342,-3.87638 1.64069,-9.54227 -1.34136,-15.6047 -6.85786,-18.7846 -5.3674,3.37947 -6.56051,9.44278 -4.77071,17.5921 -4.1794,0.693638 -7.363,1.58684 -8.34889,3.8761 1.5395,3.72784 5.81329,4.72196 11.3304,4.47251 -8.14989,4.77099 -17.7908,4.77099 -22.3628,-1.49074 3.58044,-0.39515 7.85537,-1.5857 9.54171,-2.38536 -1.48762,-2.88765 -4.96772,-4.27663 -8.05068,-4.77071 1.78866,-7.45399 -9.14429,-11.7278 -13.1196,-7.45427 1.29232,9.144 12.7219,15.6044 3.87638,27.4317z"/>
  <path fill="white" d="M226.204 218.203l29.2207 2.68356c8.74602,0.496914 18.3869,-18.9836 26.2389,1.49074l6.85786 -1.19254c-2.58435,-25.941 7.35478,-21.4682 10.1378,-30.4135 -11.5294,-2.98177 -19.1823,3.27997 -13.1193,8.9453 -4.60403,0.391181 -8.80952,1.08227 -10.22,3.86759 0.23726,1.23109 1.56756,2.56195 3.39562,4.58816 -4.58958,2.90495 -10.3717,2.62942 -15.5565,-1.42469 4.67887,0.445607 8.65956,-1.20501 12.5413,-3.15496 -3.57818,-1.88816 -7.15635,-2.58406 -10.7342,-3.8761 1.64069,-9.54227 -1.34136,-15.605 -6.85786,-18.7849 -5.3674,3.37975 -6.56051,9.44278 -4.77071,17.5921 -4.1794,0.693922 -7.363,1.58712 -8.34889,3.87638 1.5395,3.72756 5.81329,4.72167 11.3304,4.47251 -8.14989,4.77071 -17.7908,4.77071 -22.3628,-1.49102 3.58044,-0.394866 7.85537,-1.5857 9.54171,-2.38536 -1.48762,-2.88765 -4.96772,-4.27663 -8.05068,-4.77071 1.78866,-7.45399 -9.14429,-11.7278 -13.1196,-7.45427 1.29232,9.144 12.7219,15.6044 3.87638,27.4317z"/>
  <path fill="#F00000" d="M224.713 217.905l29.2207 2.68356c8.7463,0.496914 18.3872,-18.9836 26.2392,1.49102l6.85786 -1.19282c-2.58435,-25.9407 7.35478,-21.4682 10.1378,-30.4135 -11.5294,-2.98148 -19.1823,3.27997 -13.1196,8.9453 -4.60403,0.391181 -8.80923,1.08227 -10.22,3.86759 0.237543,1.23109 1.56784,2.56195 3.39562,4.58816 -4.58958,2.90495 -10.3714,2.62942 -15.5563,-1.42469 4.67887,0.445607 8.65956,-1.20501 12.541,-3.15496 -3.57789,-1.88816 -7.15607,-2.58406 -10.7342,-3.8761 1.64098,-9.54227 -1.34136,-15.605 -6.85786,-18.7849 -5.36712,3.37975 -6.56022,9.44278 -4.77071,17.5921 -4.17912,0.693922 -7.36271,1.58712 -8.3486,3.87638 1.5395,3.72756 5.81329,4.72167 11.3304,4.47251 -8.15018,4.77071 -17.7911,4.77071 -22.3628,-1.49102 3.58044,-0.394866 7.85537,-1.5857 9.54142,-2.38536 -1.48734,-2.88765 -4.96744,-4.27663 -8.05068,-4.77071 1.78895,-7.45399 -9.14429,-11.7278 -13.1193,-7.45427 1.29203,9.14429 12.7219,15.6044 3.8761,27.4317z"/>
  <polygon fill="black" points="240.516,214.625 265.264,218.203 264.071,219.396 240.516,216.414 "/>
  <polygon fill="black" points="286.732,215.519 284.943,217.905 278.98,217.905 278.98,219.098 286.732,219.694 "/>
  <path fill="black" d="M145.101 202.102l0.894615 -20.2757c10.7204,7.02964 13.3498,38.2476 15.505,68.5792 -5.26791,-7.35506 -6.36123,-15.9024 -9.54142,-23.8536l-3.87638 0 -1.49074 1.19254c-0.598677,-4.47081 -0.997796,-9.04281 0,-14.3121l-1.49102 0c0.496914,-1.39153 1.78895,-2.38592 3.87638,-2.98177l-3.87638 -8.3486z"/>
  <path fill="white" d="M143.312 202.996l0.894615 -20.2757c10.7201,7.02992 13.3498,38.2476 15.5047,68.5795 -5.26762,-7.35506 -6.36095,-15.9027 -9.54142,-23.8538l-3.8761 0 -1.49102 1.19282c-0.598394,-4.47109 -0.997796,-9.04281 0,-14.3121l-1.49074 0c0.496914,-1.39181 1.78866,-2.38592 3.87638,-2.98177l-3.87638 -8.34889z"/>
  <path fill="black" d="M159.413 223.57l16.9957 -9.24322c6.05594,-1.83487 11.7139,-2.47691 16.975,-1.92699l27.1542 -4.63295 1.19254 2.08743 -36.3767 5.66504c-9.34271,2.68356 -16.8968,7.15607 -21.7664,10.7342l-4.1743 0.298205 0 -2.98177z"/>
  <path fill="white" d="M114.688 395.614c-4.17458,14.2132 1.19254,9.343 1.78895,14.0142 -7.65298,1.19254 -7.95119,-7.35449 -1.78895,-14.0142z"/>
  <path fill="white" d="M87.8525 404.858c7.82391,2.92082 5.12391,5.18088 5.96325,8.0504 3.37947,-4.17402 0.0997796,-11.1314 -5.96325,-8.0504z"/>
  <path fill="white" d="M79.8018 379.215l-0.298205 -8.05068c2.98148,1.49074 3.47811,6.85786 0.298205,8.05068z"/>
  <path fill="white" d="M163.588 346.118c0.0912756,-6.16848 0.881575,-11.8375 6.55966,-14.0139l1.49102 1.49074c-3.57761,3.77688 -5.56498,7.95062 -5.96353,12.5232l-2.08715 0z"/>
  <path fill="white" d="M364.853 234.602c-2.90693,8.52237 -3.45317,15.6285 -2.38536,21.7664 1.39181,-6.65944 0.993827,-12.424 4.17458,-19.9775l0.298205 -2.38536 -2.08743 0.59641z"/>
  <path fill="white" d="M369.624 214.327c-8.10085,4.54734 -11.48,11.4551 -11.6289,19.9775l2.68356 -1.19282c0.0989292,-6.36066 3.37862,-11.9262 9.83963,-16.6975l-0.894331 -2.08715z"/>
  <path fill="white" d="M363.064 210.152c4.77099,-7.45455 13.5179,-10.5352 26.2392,-9.24322 -1.83912,-4.22561 -20.723,-2.53673 -28.6245,8.9453l2.38536 0.297921z"/>
  <path fill="black" d="M394.372 225.061l-0.894615 2.98177c4.37301,-0.695906 9.04423,7.55348 20.2757,7.75248 -1.19282,-8.34889 -3.57818,-14.9085 -7.15607,-21.4682l-2.08743 2.68356c3.47868,5.56583 5.46633,11.7278 6.85815,15.8029 -6.55994,-0.795119 -11.3307,-5.16841 -16.9957,-7.75248z"/>
  <path fill="white" d="M372.903 307.654l-0.298205 -1.49074c-14.0139,-1.09332 -21.4682,3.77688 -29.5189,1.19254 1.29203,8.7463 13.6165,-0.397701 29.8171,0.298205z"/>
  <path fill="white" d="M390.794 358.045c1.19282,-4.57229 17.2939,-9.74041 2.68356,-34.2899 13.8901,11.0075 11.2561,32.9227 -2.68356,34.2899z"/>
  <path fill="white" d="M340.701 343.137c-3.74372,-7.32274 -7.7984,-9.12161 -11.6286,-10.436 7.03729,-0.384095 13.6553,4.51162 11.6286,10.436z"/>
  <path fill="white" d="M335.93 356.256c-5.73931,-8.32026 -7.5053,-6.73852 -10.1378,-7.45427 3.1337,-2.55147 10.5565,0.882142 10.1378,7.45427z"/>
  <path fill="white" d="M331.756 368.183c-9.41358,-8.32082 -10.9692,-1.67046 -13.4178,-2.38536 1.13783,-4.54734 12.6388,-5.38413 13.4178,2.38536z"/>
  <path fill="white" d="M366.344 369.674c-2.38564,-2.38564 -2.78334,-5.5664 -1.19282,-9.54142 -6.16224,1.09304 -3.08098,9.93884 1.19282,9.54142z"/>
  <path fill="white" d="M365.151 358.641c-0.993544,-5.26762 1.19339,-9.343 6.55994,-12.225 -6.06274,-0.993827 -12.7219,8.7463 -6.55994,12.225z"/>
  <path fill="white" d="M385.725 388.757c7.4075,-2.0965 6.53896,1.03436 4.29081,6.34961 -2.83323,6.69997 -1.81219,15.9576 11.8106,16.9078 -6.52252,-3.3171 -11.1518,-10.421 -7.97783,-17.4044 3.25871,-7.16939 -4.95553,-14.4065 -8.12353,-5.85298z"/>
  <path fill="white" d="M377.078 434.079c7.723,-15.0491 -7.15918,-17.7265 -1.1092,-35.4685 2.14554,-6.29178 2.77654,-11.7833 -3.06539,-6.57355 4.00677,-8.52548 9.49182,-2.60022 5.3932,6.33033 -6.34252,13.8206 9.96889,24.0925 -1.21861,35.7117z"/>
  <path fill="white" d="M356.705 408.456c11.6368,-5.21575 8.03537,-10.7583 10.1798,-12.9149 1.40882,-1.41676 1.48054,-6.25663 1.94372,-9.2024 1.94003,-12.3432 8.9983,-8.98895 12.4543,-14.0791l-0.148819 -0.148819 -1.63871 -1.19169c-2.78051,4.18167 -12.1422,2.78249 -12.5683,13.3878 -0.152787,3.80211 0.233858,7.91122 -1.3337,10.1571 -1.61291,2.31137 -1.13131,5.39887 -2.99395,8.263 -1.64353,2.52709 -4.71345,3.40866 -5.89437,5.72911z"/>
  <path fill="white" d="M380.389 250.413c-4.51871,-3.0291 -6.85248,-5.66079 -7.00101,-7.89449l-1.63843 1.48932c1.68775,3.72388 4.56775,5.85865 8.63944,6.40517z"/>
  <path fill="white" d="M399.441 232.813l-2.98148 0c10.4216,14.5171 -12.4126,42.4471 -22.5176,47.9523 -17.1953,9.36766 -41.9341,13.4827 -42.7819,24.5033 -33.8519,37.4465 -29.935,71.3569 -19.0828,136.264l3.27969 0.59641c-17.0918,-81.7699 -8.75566,-101.91 18.7849,-134.773 -1.36715,-12.1859 29.5472,-13.7194 44.5232,-26.7534 19.3771,-16.8642 26.3571,-34.3741 20.776,-47.7893z"/>
  <path fill="#F00000" d="M120.055 420.661c8.74659,-5.86375 11.1317,-12.9203 7.15635,-21.17 -4.77071,-2.18636 -9.54171,-1.98765 -9.83963,6.85786 3.57789,5.06892 3.57789,9.24322 2.68328,14.3121z"/>
  <path fill="black" d="M127.211 399.491c-4.77071,-2.18636 -9.54171,-1.98765 -9.83963,6.85786 1.22967,1.74246 2.03726,3.37918 2.53049,4.98303 0.717166,-4.13433 -4.77213,-12.8027 7.30914,-11.8409z"/>
  <path fill="#F00000" d="M86.1999 406.222c-9.41755,2.36098 -5.93887,14.7237 -1.63843,19.6622 -0.200693,-9.3892 2.0829,-14.307 4.91556,-15.4916 1.68803,-1.63843 -1.83742,-4.76646 -3.27714,-4.17062z"/>
  <path fill="white" d="M79.1989 397.433c-0.72,-3.57562 -1.71326,-4.96573 -2.83011,-5.3623l1.48961 6.10725 1.3405 -0.744945z"/>
  <polygon id="path133" fill="#FFCB05" points="29.1886,130.585 463.565,130.585 463.49,157.068 29.7099,156.274 "/>
  <path fill="white" d="M198.513 325.934l2.38337 0 -1.04287 1.78753c-14.4301,9.73503 -18.8405,15.1832 -28.7189,20.6453 -12.6856,7.01405 -22.216,13.5904 -28.8652,17.9663 -17.1919,11.3139 -32.7064,17.367 -42.8125,19.4814l-21.4498 0.893764c-1.72375,2.69688 3.56258,2.99197 4.77836,6.63081 1.24413,3.72359 -1.49641,6.45307 -1.05421,9.15874l-2.8304 -2.23455c3.62466,-3.62466 2.63169,-9.33478 -3.87269,-11.3207 0.347528,-2.13506 2.48258,-5.01477 5.95814,-5.06438l18.4706 -0.595843c20.6232,-3.30265 36.9009,-17.5884 46.7564,-22.0227 1.66252,-0.74778 13.227,-10.3037 21.7857,-14.4797 9.00539,-4.3937 23.5154,-15.4636 30.5141,-20.846z"/>
  <path id="path3476" fill="#FFCB05" fill-rule="nonzero" stroke="black" stroke-width="1.41732" d="M29.7099 156.323c-9.58734,0 -9.58734,14.7076 0,14.7076l431.214 0c9.58734,0 9.58734,-14.3566 0,-14.3566l-431.214 -0.350929zm431.214 -25.7377c9.58734,0 9.58734,-11.0307 0,-11.0307l-4.79396 0 -421.626 0 -4.79396 0c-9.58734,0 -9.58734,11.0307 0,11.0307l431.214 0z"/>
  <polygon id="path131" fill="#FFE400" points="27.6151,122.604 464.386,122.604 464.386,126.77 27.6151,126.77 "/>
  <polygon id="path129" fill="#FFE400" points="26.7798,158.42 461.798,158.42 461.798,166.838 26.7798,166.838 "/>
  <line id="path135" fill="none" stroke="black" stroke-width="1.41732" x1="34.5039" y1="119.555" x2="461.039" y2= "119.555" />
  <polygon id="path143" fill="#ED1A24" points="282.213,143.418 246.318,132.679 246.318,143.418 "/>
  <polygon id="path145" fill="#ED1A24" points="210.423,143.418 246.318,154.156 246.318,143.418 "/>
  <polygon id="path147" fill="#F3A29A" points="210.423,143.418 246.318,132.679 246.318,143.418 "/>
  <polygon id="path149" fill="#F3A29A" points="282.213,143.418 246.318,154.156 246.318,143.418 "/>
  <polygon id="path151" fill="white" points="246.318,132.425 246.318,143.418 237.951,134.967 "/>
  <polygon id="path153" fill="white" points="246.318,154.411 246.318,143.418 254.686,151.869 "/>
  <polygon id="path155" fill="none" stroke="#ED1A24" stroke-width="1.15228" points="246.318,154.156 210.267,143.418 246.318,132.679 282.213,143.418 "/>
  <path id="path159" fill="#0057F0" d="M354.905 132.794c15.8961,0 19.5871,4.39172 19.5871,9.75941 0,5.36797 -4.62133,9.75969 -19.5871,9.75969 -14.9658,0 -19.514,-4.39172 -19.514,-9.75969 0,-5.36769 3.61786,-9.75941 19.514,-9.75941z"/>
  <path id="path161" fill="white" d="M369.449 138.271c2.41172,1.33427 3.87326,2.98658 3.87326,4.76561 0,4.32085 -8.40473,7.87919 -18.7829,7.87919 -10.3051,0 -18.7101,-3.55833 -18.7101,-7.87919 0,-0.126992 0,-0.253984 0,-0.38126 0.511654,4.13008 8.40501,7.37093 18.1253,7.37093 9.93969,0 18.1253,-3.49484 18.1253,-7.75219 0,-1.46154 -0.94989,-2.85931 -2.63084,-4.00309z"/>
  <polygon id="path175" fill="none" points="435.643,143.354 465.942,132.679 465.942,143.418 "/>
  <polygon id="path177" fill="none" stroke="#ED1A24" stroke-width="1.15228" points="462.874,154.156 435.49,143.418 462.874,132.679 473.689,143.354 "/>
  <polygon id="path179" fill="#F3A29A" points="435.49,143.418 462.874,132.679 462.874,143.418 "/>
  <polygon id="path181" fill="#F3A29A" points="473.689,143.354 462.874,143.418 462.874,154.156 "/>
  <polygon id="path179_2" fill="#F3A29A" points="56.0741,143.418 28.6897,132.679 28.6897,143.418 "/>
  <polygon id="path183" fill="#ED241A" points="473.689,143.354 462.874,132.489 462.874,143.418 "/>
  <polygon id="path185" fill="#ED241A" points="435.567,143.418 462.874,154.156 462.874,143.354 "/>
  <polygon id="path187" fill="white" points="462.874,149.009 462.874,143.418 470.851,143.418 "/>
  <polygon id="path189" fill="white" points="462.874,139.097 462.874,143.418 453.286,143.418 "/>
  <polygon id="path193" fill="none" points="58.3892,143.354 25.2802,132.679 25.2802,143.418 "/>
  <polygon id="path195" fill="none" stroke="#ED1A24" stroke-width="1.1537" points="28.5106,154.156 58.5547,143.418 28.5934,132.679 17.3064,143.354 "/>
  <polygon id="path199" fill="#F3A29A" points="17.3064,143.354 28.5934,143.418 28.5106,154.156 "/>
  <polygon id="path201" fill="#ED241A" points="58.3892,143.418 28.5106,154.156 28.5106,143.418 "/>
  <polygon id="path203" fill="#ED241A" points="17.3064,143.354 28.4275,132.679 28.5106,143.418 "/>
  <polygon id="path205" fill="white" points="28.5106,149.009 28.5106,143.418 25.2802,143.418 "/>
  <polygon id="path207" fill="white" points="28.4275,139.033 28.5106,143.418 39.2559,143.418 "/>
  <path id="path213" fill="#0057F0" d="M173.967 135.285c3.16262,0 5.83144,1.71553 5.83144,3.74882 0,2.03329 -2.66882,3.7491 -5.83144,3.7491 -3.1629,0 -5.73279,-1.71581 -5.73279,-3.7491 0,-2.03329 2.56989,-3.74882 5.73279,-3.74882z"/>
  <path id="path215" fill="white" d="M171.496 136.937c1.38387,-0.635528 3.06397,-0.572032 3.85484,0.126992 0.691654,0.635528 0.197291,1.71581 -1.18602,2.35106 -1.4828,0.571748 -3.16318,0.508252 -3.85512,-0.126992 -0.790583,-0.699307 -0.197575,-1.77931 1.1863,-2.35106z"/>
  <path id="path219" fill="#0057F0" d="M173.967 144.053c3.16262,0 5.83144,1.71553 5.83144,3.74882 0,2.03329 -2.66882,3.68532 -5.83144,3.68532 -3.1629,0 -5.73279,-1.65203 -5.73279,-3.68532 0,-2.03329 2.56989,-3.74882 5.73279,-3.74882z"/>
  <path id="path221" fill="white" d="M171.496 145.705c1.38387,-0.635528 3.06397,-0.571748 3.85484,0.126992 0.691654,0.635528 0.197291,1.71581 -1.18602,2.35106 -1.4828,0.572032 -3.16318,0.508252 -3.85512,-0.126992 -0.790583,-0.699024 -0.197575,-1.77931 1.1863,-2.35106z"/>
  <path id="path227" fill="#0057F0" d="M313.725 135.285c3.16262,0 5.83144,1.71553 5.83144,3.74882 0,2.03329 -2.66882,3.7491 -5.83144,3.7491 -3.1629,0 -5.73279,-1.71581 -5.73279,-3.7491 0,-2.03329 2.56989,-3.74882 5.73279,-3.74882z"/>
  <path id="path229" fill="white" d="M311.254 136.937c1.38387,-0.635528 3.06425,-0.572032 3.85484,0.126992 0.691654,0.635528 0.197575,1.71581 -1.18602,2.35106 -1.4828,0.571748 -3.16318,0.508252 -3.85484,-0.126992 -0.790867,-0.699307 -0.197575,-1.77931 1.18602,-2.35106z"/>
  <path id="path233" fill="#0057F0" d="M313.725 144.053c3.16262,0 5.83144,1.71553 5.83144,3.74882 0,2.03329 -2.66882,3.68532 -5.83144,3.68532 -3.1629,0 -5.73279,-1.65203 -5.73279,-3.68532 0,-2.03329 2.56989,-3.74882 5.73279,-3.74882z"/>
  <path id="path235" fill="white" d="M311.254 145.705c1.38387,-0.635528 3.06425,-0.571748 3.85484,0.126992 0.691654,0.635528 0.197575,1.71581 -1.18602,2.35106 -1.4828,0.572032 -3.16318,0.508252 -3.85484,-0.126992 -0.790867,-0.699024 -0.197575,-1.77931 1.18602,-2.35106z"/>
  <path id="path241" fill="#0057F0" d="M89.36 135.285c3.16318,0 5.73279,1.71553 5.73279,3.74882 0,2.03329 -2.56961,3.7491 -5.73279,3.7491 -3.26154,0 -5.83115,-1.71581 -5.83115,-3.7491 0,-2.03329 2.56961,-3.74882 5.83115,-3.74882z"/>
  <path id="path243" fill="white" d="M86.7907 136.937c1.38331,-0.635528 3.16262,-0.572032 3.85427,0.126992 0.790867,0.635528 0.197858,1.71581 -1.18602,2.35106 -1.38331,0.571748 -3.16262,0.508252 -3.85455,-0.126992 -0.691937,-0.699307 -0.197575,-1.77931 1.1863,-2.35106z"/>
  <path id="path247" fill="#0057F0" d="M89.36 144.053c3.16318,0 5.73279,1.71553 5.73279,3.74882 0,2.03329 -2.56961,3.68532 -5.73279,3.68532 -3.26154,0 -5.83115,-1.65203 -5.83115,-3.68532 0,-2.03329 2.56961,-3.74882 5.83115,-3.74882z"/>
  <path id="path249" fill="white" d="M86.7907 145.705c1.38331,-0.635528 3.16262,-0.571748 3.85427,0.126992 0.790867,0.635528 0.197858,1.71581 -1.18602,2.35106 -1.38331,0.572032 -3.16262,0.508252 -3.85455,-0.126992 -0.691937,-0.699024 -0.197575,-1.77931 1.1863,-2.35106z"/>
  <path id="path255" fill="#0057F0" d="M398.034 135.285c3.16318,0 5.73279,1.71553 5.73279,3.74882 0,2.03329 -2.56961,3.7491 -5.73279,3.7491 -3.26154,0 -5.83115,-1.71581 -5.83115,-3.7491 0,-2.03329 2.56961,-3.74882 5.83115,-3.74882z"/>
  <path id="path257" fill="white" d="M395.465 136.937c1.38359,-0.635528 3.1629,-0.572032 3.85455,0.126992 0.790867,0.635528 0.197858,1.71581 -1.18602,2.35106 -1.38359,0.571748 -3.16262,0.508252 -3.85455,-0.126992 -0.691937,-0.699307 -0.197858,-1.77931 1.18602,-2.35106z"/>
  <path id="path261" fill="#0057F0" d="M398.034 144.053c3.16318,0 5.73279,1.71553 5.73279,3.74882 0,2.03329 -2.56961,3.68532 -5.73279,3.68532 -3.26154,0 -5.83115,-1.65203 -5.83115,-3.68532 0,-2.03329 2.56961,-3.74882 5.83115,-3.74882z"/>
  <path id="path263" fill="white" d="M395.465 145.705c1.38359,-0.635528 3.1629,-0.571748 3.85455,0.126992 0.790867,0.635528 0.197858,1.71581 -1.18602,2.35106 -1.38359,0.572032 -3.16262,0.508252 -3.85455,-0.126992 -0.691937,-0.699024 -0.197858,-1.77931 1.18602,-2.35106z"/>
  <circle fill="white" stroke="black" stroke-width="1.41732" cx="30.8966" cy="30.844" r="29.3048"/>
  <circle fill="white" stroke="black" stroke-width="1.41732" cx="250.263" cy="37.2207" r="29.3048"/>
  <circle fill="#E5E5E5" cx="250.263" cy="37.2207" r="24.9998"/>
  <circle fill="white" stroke="black" stroke-width="1.41732" cx="469.076" cy="30.844" r="29.3048"/>
  <circle fill="#E5E5E5" cx="469.076" cy="30.844" r="24.9998"/>
  <circle fill="#E5E5E5" cx="30.8966" cy="30.844" r="24.9998"/>
  <circle fill="white" stroke="black" stroke-width="1.41732" cx="42.4694" cy="87.9005" r="29.3048"/>
  <circle fill="#E5E5E5" cx="42.4695" cy="87.9005" r="22.1573"/>
  <circle fill="#E5E5E5" cx="42.4694" cy="87.9005" r="24.9997"/>
  <circle fill="white" stroke="black" stroke-width="1.41732" cx="100.955" cy="87.9005" r="29.3048"/>
  <circle fill="#E5E5E5" cx="100.955" cy="87.9005" r="24.9997"/>
  <circle fill="white" stroke="black" stroke-width="1.41732" cx="159.441" cy="87.9005" r="29.3048"/>
  <circle fill="#E5E5E5" cx="159.441" cy="87.9005" r="22.1573"/>
  <circle fill="#E5E5E5" cx="159.441" cy="87.9005" r="24.9997"/>
  <circle fill="white" stroke="black" stroke-width="1.41732" cx="217.927" cy="87.9005" r="29.3048"/>
  <circle fill="#E5E5E5" cx="217.928" cy="87.9005" r="24.9997"/>
  <circle fill="white" stroke="black" stroke-width="1.41732" cx="276.413" cy="87.9005" r="29.3048"/>
  <circle fill="#E5E5E5" cx="276.413" cy="87.9005" r="24.9997"/>
  <circle fill="white" stroke="black" stroke-width="1.41732" cx="334.899" cy="87.9005" r="29.3048"/>
  <circle fill="#E5E5E5" cx="334.899" cy="87.9005" r="24.9997"/>
  <circle fill="white" stroke="black" stroke-width="1.41732" cx="393.385" cy="87.9005" r="29.3048"/>
  <circle fill="#E5E5E5" cx="393.385" cy="87.9005" r="22.1573"/>
  <circle fill="#E5E5E5" cx="393.385" cy="87.9005" r="24.9997"/>
  <circle fill="white" stroke="black" stroke-width="1.41732" cx="451.871" cy="87.9005" r="29.3048"/>
  <circle fill="#E5E5E5" cx="451.871" cy="87.9005" r="24.9997"/>
  <ellipse fill="white" transform="matrix(-0.224903 0.804838 -1.28006 -0.0776064 343.742 140.807)" rx="5.3195" ry="4.11052"/>
  <path fill="black" d="M360.485 147.677c2.79043,-2.79071 6.51118,-8.37185 0,-12.5578 12.2477,2.79071 12.2474,9.30189 0,12.5578z"/>
  <path id="path159_3" fill="#0057F0" d="M133.316 132.794c15.8961,0 19.5871,4.39172 19.5871,9.75941 0,5.36797 -4.62133,9.75969 -19.5871,9.75969 -14.9658,0 -19.514,-4.39172 -19.514,-9.75969 0,-5.36769 3.61786,-9.75941 19.514,-9.75941z"/>
  <path id="path161_4" fill="white" d="M147.86 138.271c2.41172,1.33427 3.87326,2.98658 3.87326,4.76561 0,4.32085 -8.40473,7.87919 -18.7829,7.87919 -10.3051,0 -18.7101,-3.55833 -18.7101,-7.87919 0,-0.126992 0,-0.253984 0,-0.38126 0.511654,4.13008 8.40501,7.37093 18.1253,7.37093 9.93969,0 18.1253,-3.49484 18.1253,-7.75219 0,-1.46154 -0.94989,-2.85931 -2.63084,-4.00309z"/>
  <ellipse fill="white" transform="matrix(-0.224903 0.804838 -1.28006 -0.0776064 122.153 140.807)" rx="5.3195" ry="4.11052"/>
  <path fill="black" d="M138.896 147.677c2.79043,-2.79071 6.51118,-8.37185 0,-12.5578 12.2477,2.79071 12.2474,9.30189 0,12.5578z"/>
  <path fill="#F00000" d="M142.12 201.804l0.894331 -20.2757c10.7204,7.02992 13.3501,38.2476 15.505,68.5792 -5.26791,-7.35506 -6.36095,-15.9024 -9.54142,-23.8536l-3.87638 0 -1.49074 1.19254c-0.598677,-4.47081 -0.997796,-9.04281 0,-14.3121l-1.49074 0c0.49663,-1.39153 1.78866,-2.38592 3.8761,-2.98177l-3.8761 -8.3486z"/>
  <path id="path1937_5" fill="none" stroke="black" stroke-width="0.992126" d="M17.6437 171.311l453.632 -0.269575 -16.6269 302.843c-19.0653,128.789 -92.964,167.968 -143.768,185.872 -32.616,11.4945 -53.9878,3.09345 -66.7741,31.3416 -14.745,-28.7467 -39.0257,-20.437 -72.006,-32.6639 -52.8764,-19.6039 -123.347,-62.265 -140.154,-184.478l-14.3022 -302.645z"/>
 </g>
</svg>
