<?xml version="1.0" encoding="UTF-8" standalone="no"?>
<!-- Created with Inkscape (http://www.inkscape.org/) -->
<svg
   xmlns:dc="http://purl.org/dc/elements/1.1/"
   xmlns:cc="http://creativecommons.org/ns#"
   xmlns:rdf="http://www.w3.org/1999/02/22-rdf-syntax-ns#"
   xmlns:svg="http://www.w3.org/2000/svg"
   xmlns="http://www.w3.org/2000/svg"
   xmlns:sodipodi="http://sodipodi.sourceforge.net/DTD/sodipodi-0.dtd"
   xmlns:inkscape="http://www.inkscape.org/namespaces/inkscape"
   width="500"
   height="565"
   id="svg6579"
   sodipodi:version="0.32"
   inkscape:version="0.46"
   version="1.0"
   sodipodi:docbase="/"
   sodipodi:docname="Pihtipudas.vaakuna.svg"
   inkscape:output_extension="org.inkscape.output.svg.inkscape">
  <defs
     id="defs6581">
    <inkscape:perspective
       sodipodi:type="inkscape:persp3d"
       inkscape:vp_x="0 : 282.5 : 1"
       inkscape:vp_y="0 : 1000 : 0"
       inkscape:vp_z="500 : 282.5 : 1"
       inkscape:persp3d-origin="250 : 188.33333 : 1"
       id="perspective13" />
  </defs>
  <sodipodi:namedview
     id="base"
     pagecolor="#ffffff"
     bordercolor="#666666"
     borderopacity="1.0"
     inkscape:pageopacity="0.0"
     inkscape:pageshadow="2"
     inkscape:zoom="0.25"
     inkscape:cx="423"
     inkscape:cy="307.35462"
     inkscape:document-units="px"
     inkscape:current-layer="layer1"
     inkscape:window-width="1012"
     inkscape:window-height="736"
     inkscape:window-x="0"
     inkscape:window-y="0"
     showguides="true"
     inkscape:guide-bbox="true"
     showgrid="false" />
  <metadata
     id="metadata6584">
    <rdf:RDF>
      <cc:Work
         rdf:about="">
        <dc:format>image/svg+xml</dc:format>
        <dc:type
           rdf:resource="http://purl.org/dc/dcmitype/StillImage" />
        <dc:title>Pihtiputaan vaakuna, Pihtipudas vapen, Coat of arms of Pihtipudas</dc:title>
        <dc:date>22.7.2007</dc:date>
        <dc:creator>
          <cc:Agent>
            <dc:title>Hippophaë, Wikipedia</dc:title>
          </cc:Agent>
        </dc:creator>
        <dc:subject>
          <rdf:Bag>
            <rdf:li>Pihtipudas</rdf:li>
            <rdf:li>vaakuna</rdf:li>
            <rdf:li>vapen</rdf:li>
            <rdf:li>coat of arms</rdf:li>
          </rdf:Bag>
        </dc:subject>
        <cc:license
           rdf:resource="http://web.resource.org/cc/PublicDomain" />
      </cc:Work>
      <cc:License
         rdf:about="http://web.resource.org/cc/PublicDomain">
        <cc:permits
           rdf:resource="http://web.resource.org/cc/Reproduction" />
        <cc:permits
           rdf:resource="http://web.resource.org/cc/Distribution" />
        <cc:permits
           rdf:resource="http://web.resource.org/cc/DerivativeWorks" />
      </cc:License>
    </rdf:RDF>
  </metadata>
  <g
     inkscape:label="Layer 1"
     inkscape:groupmode="layer"
     id="layer1">
    <path
       style="fill: none; fill-opacity: 1; fill-rule: evenodd; stroke: rgb(0, 0, 0); stroke-width: 1px; stroke-linecap: butt; stroke-linejoin: miter; stroke-opacity: 1;"
       d="M 0.5,0.5 L 499.5,0.5 L 499.5,340 C 499.5,420 410,564.5 250,564.5 C 90,564.5 0.5,420 0.5,340 L 0.5,0.5 z "
       id="path1344"
       sodipodi:nodetypes="cccccc" />
    <path
       sodipodi:nodetypes="cccccc"
       id="path4857"
       d="M 0.5,0.5 L 499.5,0.5 L 499.5,340 C 499.5,420 410,564.5 250,564.5 C 90,564.5 0.5,420 0.5,340 L 0.5,0.5 z "
       style="fill:rgb(223, 223, 223);fill-opacity:1;fill-rule:evenodd;stroke:rgb(0, 0, 0);stroke-width:0.5;stroke-linecap:butt;stroke-linejoin:miter;stroke-opacity:1;stroke-miterlimit:4;stroke-dasharray:none" />
    <path
       style="fill: rgb(0, 0, 0); fill-opacity: 1; fill-rule: evenodd; stroke: none; stroke-width: 1px; stroke-linecap: butt; stroke-linejoin: miter; stroke-opacity: 1;"
       d="M 0.5,0.5 L 499.5,0.5 L 499.5,340 C 499.5,385 472.5,437 446,469.2 L 250,260 L 54,469.2 C 27.5,437 0.5,385 0.5,340 L 0.5,0.5 z "
       id="path2236"
       sodipodi:nodetypes="cccccccc" />
    <path
       style="fill: rgb(223, 223, 223); fill-rule: evenodd; stroke: none; stroke-width: 1px; stroke-linecap: butt; stroke-linejoin: miter; stroke-opacity: 1; fill-opacity: 1;"
       d="M 0.5,0.5 L 499.5,0.5 L 250,260 L 0.5,0.5 z "
       id="path5097" />
    <path
       style="fill: rgb(223, 223, 223); fill-rule: evenodd; stroke: none; stroke-width: 1px; stroke-linecap: butt; stroke-linejoin: miter; stroke-opacity: 1; fill-opacity: 1;"
       d="M 125,335 L 80,335 C 87,305 87,281 88,252 C 73.5,267.5 62,275 43,278 C 73,221 80,207 102.5,148 C 125,207 132,221 162,278 C 143,275 131.5,267.5 117,252 C 118,281 118,305 125,335 z "
       id="path5099"
       sodipodi:nodetypes="cccccccc" />
    <path
       sodipodi:nodetypes="cccccccc"
       id="path10925"
       d="M 420,335 L 375,335 C 382,305 382,281 383,252 C 368.5,267.5 357,275 338,278 C 368,221 375,207 397.5,148 C 420,207 427,221 457,278 C 438,275 426.5,267.5 412,252 C 413,281 413,305 420,335 z "
       style="fill: rgb(223, 223, 223); fill-opacity: 1; fill-rule: evenodd; stroke: none; stroke-width: 1px; stroke-linecap: butt; stroke-linejoin: miter; stroke-opacity: 1;" />
  </g>
</svg>
