<?xml version="1.0" encoding="UTF-8" standalone="no"?>
<!-- Creator: CorelDRAW -->

<svg
   xmlns:dc="http://purl.org/dc/elements/1.1/"
   xmlns:cc="http://creativecommons.org/ns#"
   xmlns:rdf="http://www.w3.org/1999/02/22-rdf-syntax-ns#"
   xmlns:svg="http://www.w3.org/2000/svg"
   xmlns="http://www.w3.org/2000/svg"
   xmlns:sodipodi="http://sodipodi.sourceforge.net/DTD/sodipodi-0.dtd"
   xmlns:inkscape="http://www.inkscape.org/namespaces/inkscape"
   xml:space="preserve"
   width="499.98831"
   height="575.36993"
   style="fill-rule:evenodd"
   viewBox="0 0 499.98831 582.27437"
   version="1.0"
   id="svg2"
   inkscape:version="0.48.1 "
   sodipodi:docname="Pirkkala.vaakuna.svg"><metadata
   id="metadata20"><rdf:RDF><cc:Work
       rdf:about=""><dc:format>image/svg+xml</dc:format><dc:type
         rdf:resource="http://purl.org/dc/dcmitype/StillImage" /></cc:Work></rdf:RDF></metadata><sodipodi:namedview
   pagecolor="#ffffff"
   bordercolor="#666666"
   borderopacity="1"
   objecttolerance="10"
   gridtolerance="10"
   guidetolerance="10"
   inkscape:pageopacity="0"
   inkscape:pageshadow="2"
   inkscape:window-width="1280"
   inkscape:window-height="738"
   id="namedview18"
   showgrid="false"
   fit-margin-top="0"
   fit-margin-left="0"
   fit-margin-right="0"
   fit-margin-bottom="0"
   inkscape:zoom="0.45155709"
   inkscape:cx="-462.30888"
   inkscape:cy="287.05365"
   inkscape:window-x="-8"
   inkscape:window-y="-8"
   inkscape:window-maximized="1"
   inkscape:current-layer="Layer_x0020_1" />
 <defs
   id="defs4">
  <style
   type="text/css"
   id="style6">
   
    .str0 {stroke:#1F1A17;stroke-width:2.00806}
    .str3 {stroke:#1F1A17;stroke-width:2.29493}
    .str2 {stroke:white;stroke-width:2.29493}
    .str1 {stroke:#A00000;stroke-width:2.29493}
    .fil0 {fill:none}
    .fil1 {fill:#DEDEDD}
    .fil2 {fill:#F00000}
   
  </style>
 </defs>
 <g
   id="Layer_x0020_1"
   transform="matrix(0.99720523,0,0,0.99720523,-1.5401922,0.12465065)">
  <metadata
   id="CorelCorpID_0Corel-Layer" />
  <path
   id="path1937"
   class="fil0 str0"
   d="m 1.44896,1.80066 503.195,0.041309 -30.0449,337.303001 c -9.34266,144.427 -102.982,194.482 -219.699,243.418 -121.139,-42.6705 -215.24,-95.4789 -227.543,-243.078 L 1.44986,1.7999687 z"
   inkscape:connector-curvature="0"
   style="fill:none;stroke:#1f1a17;stroke-width:2.00805998" />
  <polygon
   id="path1937_0"
   class="fil1"
   points="134.378,283.928 136.169,211.221 97.3507,188.395 63.0951,211.585 60.9987,283.59 24.842,306.713 1.44896,1.80066 252.974,1.82131 252.974,187.755 216.505,211.745 216.783,283.7 174.56,306.621 "
   style="fill:#ebebea;fill-opacity:1" />
  <path
   id="path1937_1"
   class="fil2"
   d="M 254.9,582.563 C 133.761,539.8925 39.66,487.0841 27.357,339.485 l -2.52127,-32.8643 36.1641,-23.0311 2.09613,-72.0046 34.2556,-23.19 38.8187,22.8257 -1.79148,72.7065 40.1816,22.6937 42.223,-22.9212 -0.2774,-71.9555 36.469,-23.9903 1.92545,394.809 z"
   inkscape:connector-curvature="0"
   style="fill:#f00000" />
  <polygon
   id="path1937_2"
   class="fil2"
   points="366.967,211.066 366.148,284.32 327.77,306.622 290.372,283.701 291.139,211.352 252.974,187.755 252.974,1.82131 504.644,1.84197 477.496,306.623 443.936,283.924 444.872,210.733 403.772,188.397 "
   style="fill:#f00000;fill-opacity:1" />
  <path
   id="path1937_3"
   class="fil1"
   d="m 477.495,306.623 -2.89649,32.522 c -9.34266,144.427 -102.982,194.482 -219.699,243.418 l -1.92545,-394.809 38.165,23.5982 -0.76765,72.348 37.3982,22.9218 38.3784,-22.3018 0.81871,-73.2542 36.8049,-22.6693 41.0999,22.3354 -0.93518,73.1914 33.5588,22.6994 z"
   inkscape:connector-curvature="0"
   style="fill:#ebebea;fill-opacity:1" />
  <path
   id="path1937_4"
   class="fil0 str1"
   d="m 327.77,306.622 -37.3982,-22.9215 0.76737,-72.3483 -38.165,-23.5979 0,-185.933 m 224.521,304.801 -33.5591,-22.6992 0.93518,-73.1911 -41.0999,-22.3357 m -378.936999,118.224 36.1641,-23.0311 2.09642,-72.0046 34.2556,-23.19 m 77.208899,118.226 42.223,-22.9212 -0.2774,-71.9552 36.469,-23.9903"
   inkscape:connector-curvature="0"
   style="fill:none;stroke:#a00000;stroke-width:2.29492998" />
  <path
   id="path1937_5"
   class="fil0 str2"
   d="m 327.77,306.622 38.3781,-22.3018 0.81872,-73.2542 36.8049,-22.6693 m -148.872,394.167 -1.92545,-394.809 m -78.4146,118.867 -40.1816,-22.6937 1.79148,-72.7065 -38.818704,-22.8257"
   inkscape:connector-curvature="0"
   style="fill:none;stroke:#ffffff;stroke-width:2.29492998" />
  <path
   id="path1937_6"
   class="fil0 str3"
   d="M 254.9,582.563 C 133.761,539.8925 39.66,487.0841 27.357,339.485 L 1.4498,1.8 504.6448,1.8413087 474.5999,339.14431 c -9.34295,144.427 -102.982,194.482 -219.699,243.419 z"
   inkscape:connector-curvature="0"
   style="fill:none;stroke:#1f1a17;stroke-width:2.29492998" />
 </g>
</svg>