<?xml version="1.0" encoding="UTF-8" standalone="no"?>
<!-- Creator: CorelDRAW -->

<svg
   xmlns:dc="http://purl.org/dc/elements/1.1/"
   xmlns:cc="http://creativecommons.org/ns#"
   xmlns:rdf="http://www.w3.org/1999/02/22-rdf-syntax-ns#"
   xmlns:svg="http://www.w3.org/2000/svg"
   xmlns="http://www.w3.org/2000/svg"
   xmlns:sodipodi="http://sodipodi.sourceforge.net/DTD/sodipodi-0.dtd"
   xmlns:inkscape="http://www.inkscape.org/namespaces/inkscape"
   xml:space="preserve"
   width="500px"
   height="572px"
   shape-rendering="geometricPrecision"
   text-rendering="geometricPrecision"
   image-rendering="optimizeQuality"
   fill-rule="evenodd"
   clip-rule="evenodd"
   viewBox="0 0 500 572"
   version="1.0"
   id="svg2"
   inkscape:version="0.48.0 r9654"
   sodipodi:docname="Polvijärvi.vaakuna.svg"><metadata
   id="metadata31"><rdf:RDF><cc:Work
       rdf:about=""><dc:format>image/svg+xml</dc:format><dc:type
         rdf:resource="http://purl.org/dc/dcmitype/StillImage" /></cc:Work></rdf:RDF></metadata><defs
   id="defs29">
  
  
  
  
  
  
  
 
   
   
   
   
   
  
   
   
   
   
   
  
   
   
   
   
   
  </defs><sodipodi:namedview
   pagecolor="#ffffff"
   bordercolor="#666666"
   borderopacity="1"
   objecttolerance="10"
   gridtolerance="10"
   guidetolerance="10"
   inkscape:pageopacity="0"
   inkscape:pageshadow="2"
   inkscape:window-width="1280"
   inkscape:window-height="738"
   id="namedview27"
   showgrid="false"
   inkscape:zoom="1.2905935"
   inkscape:cx="218.6783"
   inkscape:cy="269.61404"
   inkscape:window-x="-8"
   inkscape:window-y="-8"
   inkscape:window-maximized="1"
   inkscape:current-layer="svg2" />
 <path
   style="fill:#d9d9d9;stroke:#000000;stroke-width:0.36850399000000000;fill-opacity:1"
   inkscape:connector-curvature="0"
   d="m -0.162142,0.159591 500.092002,0.293953 0.1165,369.602996 c -31.2409,120.423 -114.353,196.747 -249.195,201.4 -128.841,-3.5348 -219.005998,-68.0964 -250.769998,-202.157 L -0.162418,0.159544 z"
   id="path1937" /><path
   style="fill:#000000"
   inkscape:connector-curvature="0"
   d="m 255.744,0.308977 244.269,265.681003 0.0329,104.066 c -15.1926,57.0493 -39.8855,102.321 -77.9775,137.314 l -162.253,-175.174 -167.152998,187.128 c -42.6167,-33.3397 -73.0993,-82.9951 -88.9810001,-150.025 L 3.6232716,280.63488 255.74427,0.308877 z"
   id="path1937_0" /><path
   style="fill:#f00000;fill-opacity:1"
   inkscape:connector-curvature="0"
   d="m 252.144,0.308977 247.87,269.598003 0.0317,100.149 c -14.8808,57.3608 -41.5313,104.716 -79.9351,139.086 l -163.895,-176.946 -167.153002,187.128 c -42.6167,-33.3397 -73.0993,-82.9951 -88.981,-150.025 L 0.0235377,280.63488 252.14454,0.308877 z"
   id="path1937_1" /><path
   id="_46997512"
   d="m 165.005,217.37 21.2715,-6.88026 c 2.83975,-3.92995 8.11219,-5.66589 12.8852,-5.55336 4.77298,0.11254 4.01018,-0.76762 9.75714,1.65515 6.70592,2.6881 23.3898,1.94655 40.6973,1.20501 14.8439,-1.07887 36.2359,-25.5436 31.436,-48.4489 -1.09672,-13.1431 -6.38448,-15.4077 -8.65106,-26.7707 -1.60724,-7.80152 19.5477,-29.0112 26.9833,-53.339 l -0.006,22.5964 11.3556,-15.9463 c -1.22372,13.1899 -8.84948,19.0556 -5.24438,26.5816 l 14.0967,-9.70753 c -2.01118,6.04007 -7.7641,11.768 -6.03355,18.1196 l 15.8805,-9.95386 c -1.99417,14.4397 -25.1915,28.2558 -25.9384,35.2117 0.87477,5.9624 8.55893,15.2229 8.86111,29.4239 -1.25688,18.2546 -8.90646,22.1868 -15.8539,31.877 19.2345,0.91814 38.469,-0.0343 50.8439,-2.5458 -6.94829,12.2613 -22.3155,7.99682 -27.0811,11.8395 4.87786,2.32554 9.75572,2.78051 15.2572,3.23547 -3.78992,0.91531 -7.26775,3.07786 -11.681,2.74592 0.48841,1.28806 5.34218,6.00605 8.63689,6.04715 -3.73125,-1.512 -11.8278,-0.84132 -17.1179,-4.84781 -0.52101,1.09814 -1.66564,0.79313 -1.56274,3.29443 3.21846,0.91814 6.28101,1.52476 8.71994,3.22271 l 5.63726,4.87559 c -0.93969,1.87852 -4.69899,-1.18658 -4.8257,-1.38898 -6.62797,-2.22718 -14.0573,-3.24114 -19.8995,-2.48712 -5.02923,0.24633 -16.2947,4.2344 -21.6354,4.48073 -11.3771,0.0556 -36.7855,-5.81329 -54.0868,-14.8 -4.70778,-1.87399 -28.4074,0.30104 -40.229,-0.95953 -6.8675,-0.61597 -14.9822,-0.60803 -22.4734,-2.78277 z"
   inkscape:connector-curvature="0"
   style="fill:#000000" /><path
   id="_47881624"
   d="m 241.706,204.823 c 2.13421,-0.0689 4.29307,-0.15165 6.45648,-0.24435 12.5243,-0.9102 29.7108,-18.4691 31.8923,-37.6932 -11.1254,0.61937 -21.1915,-33.1387 -33.8664,-39.172 -7.31027,-5.32092 5.42835,-31.191597 -4.21966,-39.113597 -0.51732,5.08224 -3.22101,12.073297 -5.14602,9.91786 -3.20854,-3.5932 -5.6109,-18.0136 -9.71263,-20.2995 0.49011,2.59143 2.82388,12.6405 -1.42611,18.2407 -3.96567,-2.09934 -6.71783,-12.4707 -12.3928,-18.5494 -1.22315,6.95197 6.40687,14.0156 2.47975,21.5776 -4.51503,-4.04164 -12.4968,-19.5199 -16.9639,-16.0676 14.7603,23.642897 5.87197,38.896997 7.9818,47.021397 7.42252,17.5655 38.6748,22.1718 40.608,54.006 1.77336,14.5154 -2.18381,10.8584 -5.69084,20.376 z"
   inkscape:connector-curvature="0"
   style="fill:#000000" /><path
   id="_48848736"
   d="m 239.56,208.041 c 2.13421,-0.0689 4.29307,-0.15165 6.45648,-0.24435 12.5243,-0.9102 29.7108,-18.4691 31.8923,-37.6932 -11.1254,0.61937 -21.1915,-33.1387 -33.8664,-39.172 -7.31027,-5.32092 5.42835,-31.191597 -4.21966,-39.113597 -0.51732,5.08224 -3.22101,12.073297 -5.14602,9.917857 -3.20854,-3.593197 -5.6109,-18.013597 -9.71263,-20.299497 0.49011,2.59143 2.82388,12.6405 -1.42611,18.2407 -3.96567,-2.09934 -6.71783,-12.4707 -12.3928,-18.5494 -1.22315,6.95197 6.40687,14.0156 2.47975,21.577597 -4.51503,-4.041637 -12.4968,-19.519897 -16.9639,-16.067597 14.7603,23.642897 5.87197,38.896997 7.9818,47.021397 7.42252,17.5655 38.6748,22.1718 40.608,54.006 1.77336,14.5154 -2.18381,10.8584 -5.69084,20.376 z"
   inkscape:connector-curvature="0"
   style="fill:#d9d9d9;fill-opacity:1" /><path
   id="_48854264"
   d="m 157.805,217.37 22.8305,-6.56844 c 3.15156,-3.61814 6.55314,-5.9777 11.3261,-5.86517 4.77298,0.11253 4.01018,-0.76762 9.75714,1.65515 6.70592,2.6881 23.3898,1.94655 40.6973,1.20501 14.8439,-1.07887 36.2359,-25.5436 31.436,-48.4489 -1.09672,-13.1431 -6.38448,-15.4077 -8.65106,-26.7707 -1.60724,-7.80152 19.5477,-29.0112 26.9833,-53.339 l -0.006,22.5964 11.3556,-15.9463 c -1.22372,13.1899 -8.84948,19.0556 -5.24438,26.5816 l 14.0967,-9.70753 c -2.01118,6.04007 -7.7641,11.768 -6.03355,18.1196 l 15.8805,-9.95386 c -1.99417,14.4397 -25.1915,28.2558 -25.9384,35.2117 0.87477,5.9624 8.55893,15.2229 8.86111,29.4239 -1.25688,18.2546 -8.90646,22.1868 -15.8539,31.877 19.2345,0.91814 38.469,-0.0343 50.8439,-2.5458 -6.94829,12.2613 -22.3155,7.99682 -27.0811,11.8395 4.87786,2.32554 9.75572,2.78051 15.2572,3.23547 -3.78992,0.91531 -7.26775,3.07786 -11.681,2.74592 0.48841,1.28806 5.34218,6.00605 8.63689,6.04715 -3.73125,-1.512 -11.8278,-0.84132 -17.1179,-4.84781 -0.52101,1.09814 -1.66564,0.79313 -1.56274,3.29443 3.21846,0.91814 6.28101,1.52476 8.71994,3.22271 l 5.63726,4.87559 c -0.93969,1.87852 -4.69899,-1.18658 -4.8257,-1.38898 -6.62797,-2.22718 -14.0573,-3.24114 -19.8995,-2.48712 -5.02923,0.24633 -16.2947,4.2344 -21.6354,4.48073 -11.3771,0.0556 -36.7855,-5.81329 -54.0868,-14.8 -4.70778,-1.87399 -28.4074,0.30104 -40.229,-0.95953 -6.8675,-0.61597 -14.9822,-0.60803 -22.4734,-2.78277 z"
   inkscape:connector-curvature="0"
   style="fill:#ffffff;fill-opacity:1" /><path
   id="_47254024"
   d="m 161.405,217.37 20.9597,-5.63301 c 2.83975,-3.92995 8.424,-7.22495 13.197,-7.11241 4.77298,0.11253 4.01018,-0.45581 9.75714,1.96696 6.70592,2.6881 23.3898,1.94655 40.6973,1.20501 14.8439,-1.07887 36.2359,-25.5436 31.436,-48.4489 -1.09672,-13.1431 -6.38448,-15.4077 -8.65106,-26.7707 -1.60724,-7.80152 19.5477,-29.0112 26.9833,-53.339 l -0.006,22.5964 11.3556,-15.9463 c -1.22372,13.1899 -8.84948,19.0556 -5.24438,26.5816 l 14.0967,-9.70753 c -2.01118,6.04007 -7.7641,11.768 -6.03355,18.1196 l 15.8805,-9.95386 c -1.99417,14.4397 -25.1915,28.2558 -25.9384,35.2117 0.87477,5.9624 8.55893,15.2229 8.86111,29.4239 -1.25688,18.2546 -8.90646,22.1868 -15.8539,31.877 19.2345,0.91814 38.469,-0.0343 50.8439,-2.5458 -6.94829,12.2613 -22.3155,7.99682 -27.0811,11.8395 4.87786,2.32554 9.75572,2.78051 15.2572,3.23547 -3.78992,0.91531 -7.26775,3.07786 -11.681,2.74592 0.48841,1.28806 5.34218,6.00605 8.63689,6.04715 -3.73125,-1.512 -11.8278,-0.84132 -17.1179,-4.84781 -0.52101,1.09814 -1.66564,0.79313 -1.56274,3.29443 3.21846,0.91814 6.28101,1.52476 8.71994,3.22271 l 5.63726,4.87559 c -0.93969,1.87852 -4.69899,-1.18658 -4.8257,-1.38898 -6.62797,-2.22718 -14.0573,-3.24114 -19.8995,-2.48712 -5.02923,0.24633 -16.2947,4.2344 -21.6354,4.48073 -11.3771,0.0556 -36.7855,-5.81329 -54.0868,-14.8 -4.70778,-1.87399 -28.4074,0.30104 -40.229,-0.95953 -6.8675,-0.61597 -14.9822,-0.60803 -22.4734,-2.78277 z"
   inkscape:connector-curvature="0"
   style="fill:#d9d9d9;fill-opacity:1" /><path
   id="_47001592"
   d="m 35.4053,368.57 21.2715,-6.88026 c 2.83975,-3.92995 8.11219,-5.66589 12.8852,-5.55336 4.77298,0.11253 4.01018,-0.76762 9.75714,1.65515 6.70592,2.6881 23.3898,1.94655 40.6973,1.20501 14.8439,-1.07887 36.2359,-25.5436 31.436,-48.4489 -1.09672,-13.1431 -6.38448,-15.4077 -8.65106,-26.7707 -1.60724,-7.80152 19.5477,-29.0112 26.9833,-53.339 l -0.006,22.5964 11.3556,-15.9463 c -1.22372,13.1899 -8.84948,19.0556 -5.24438,26.5816 l 14.0967,-9.70753 c -2.01118,6.04007 -7.7641,11.768 -6.03355,18.1196 l 15.8805,-9.95386 c -1.99417,14.4397 -25.1915,28.2558 -25.9384,35.2117 0.87477,5.9624 8.55893,15.2229 8.86111,29.4239 -1.25688,18.2546 -8.90646,22.1868 -15.8539,31.877 19.2345,0.91814 38.469,-0.0343 50.8439,-2.5458 -6.94829,12.2613 -22.3155,7.99682 -27.0811,11.8395 4.87786,2.32554 9.75572,2.78051 15.2572,3.23547 -3.78992,0.91531 -7.26775,3.07786 -11.681,2.74592 0.48841,1.28806 5.34218,6.00605 8.63689,6.04715 -3.73125,-1.512 -11.8278,-0.84132 -17.1179,-4.84781 -0.52101,1.09814 -1.66564,0.79313 -1.56274,3.29443 3.21846,0.91814 6.28101,1.52476 8.71994,3.22271 l 5.63726,4.87559 c -0.93969,1.87852 -4.69899,-1.18658 -4.8257,-1.38898 -6.62797,-2.22718 -14.0573,-3.24114 -19.8995,-2.48712 -5.02923,0.24633 -16.2947,4.2344 -21.6354,4.48073 -11.3771,0.0556 -36.7855,-5.81329 -54.086799,-14.8 -4.70778,-1.87399 -28.4074,0.30104 -40.229,-0.95953 -6.8675,-0.61597 -14.9822,-0.60803 -22.4734,-2.78277 z"
   inkscape:connector-curvature="0"
   style="fill:#000000" /><path
   id="_48796048"
   d="m 112.106,356.023 c 2.13421,-0.0689 4.29307,-0.15165 6.45648,-0.24435 12.5243,-0.9102 29.7108,-18.4691 31.8923,-37.6932 -11.1254,0.61937 -21.1915,-33.1387 -33.8664,-39.172 -7.31027,-5.32092 5.42835,-31.1916 -4.21966,-39.1136 -0.51732,5.08224 -3.22101,12.0733 -5.14602,9.91786 -3.20854,-3.5932 -5.6109,-18.0136 -9.71263,-20.2995 0.49011,2.59143 2.82388,12.6405 -1.42611,18.2407 -3.96567,-2.09934 -6.71783,-12.4707 -12.3928,-18.5494 -1.22315,6.95197 6.40687,14.0156 2.47975,21.5776 -4.51503,-4.04164 -12.4968,-19.5199 -16.9639,-16.0676 14.7603,23.6429 5.87197,38.897 7.9818,47.0214 7.42252,17.5655 38.6748,22.1718 40.608,54.006 1.77336,14.5154 -2.18381,10.8584 -5.69084,20.376 z"
   inkscape:connector-curvature="0"
   style="fill:#000000" /><path
   id="_48798568"
   d="m 109.96,359.241 c 2.13421,-0.0689 4.29307,-0.15165 6.45648,-0.24435 12.5243,-0.9102 29.7108,-18.4691 31.8923,-37.6932 -11.1254,0.61937 -21.1915,-33.1387 -33.8664,-39.172 -7.31027,-5.32092 5.42835,-31.1916 -4.21966,-39.1136 -0.51732,5.08224 -3.22101,12.0733 -5.14602,9.91786 -3.20854,-3.5932 -5.6109,-18.0136 -9.71263,-20.2995 0.49011,2.59143 2.82388,12.6405 -1.42611,18.2407 -3.96567,-2.09934 -6.71783,-12.4707 -12.3928,-18.5494 -1.22315,6.95197 6.40687,14.0156 2.47975,21.5776 -4.51503,-4.04164 -12.4968,-19.5199 -16.9639,-16.0676 14.7603,23.6429 5.87197,38.897 7.9818,47.0214 7.42252,17.5655 38.6748,22.1718 40.608,54.006 1.77336,14.5154 -2.18381,10.8584 -5.69084,20.376 z"
   inkscape:connector-curvature="0"
   style="fill:#d9d9d9;fill-opacity:1" /><path
   id="_48798096"
   d="m 28.2053,368.57 22.8305,-6.56844 c 3.15156,-3.61814 6.55314,-5.9777 11.3261,-5.86517 4.77298,0.11253 4.01018,-0.76762 9.75714,1.65515 6.70592,2.6881 23.3898,1.94655 40.6973,1.20501 14.8439,-1.07887 36.2359,-25.5436 31.436,-48.4489 -1.09672,-13.1431 -6.38448,-15.4077 -8.65106,-26.7707 -1.60724,-7.80152 19.5477,-29.0112 26.9833,-53.339 l -0.006,22.5964 11.3556,-15.9463 c -1.22372,13.1899 -8.84948,19.0556 -5.24438,26.5816 l 14.0967,-9.70753 c -2.01118,6.04007 -7.7641,11.768 -6.03355,18.1196 l 15.8805,-9.95386 c -1.99417,14.4397 -25.1915,28.2558 -25.9384,35.2117 0.87477,5.9624 8.55893,15.2229 8.86111,29.4239 -1.25688,18.2546 -8.90646,22.1868 -15.8539,31.877 19.2345,0.91814 38.469,-0.0343 50.8439,-2.5458 -6.94829,12.2613 -22.3155,7.99682 -27.0811,11.8395 4.87786,2.32554 9.75572,2.78051 15.2572,3.23547 -3.78992,0.91531 -7.26775,3.07786 -11.681,2.74592 0.48841,1.28806 5.34218,6.00605 8.63689,6.04715 -3.73125,-1.512 -11.8278,-0.84132 -17.1179,-4.84781 -0.52101,1.09814 -1.66564,0.79313 -1.56274,3.29443 3.21846,0.91814 6.28101,1.52476 8.71994,3.22271 l 5.63726,4.87559 c -0.93969,1.87852 -4.69899,-1.18658 -4.8257,-1.38898 -6.62797,-2.22718 -14.0573,-3.24114 -19.8995,-2.48712 -5.02923,0.24633 -16.2947,4.2344 -21.6354,4.48073 -11.3771,0.0556 -36.7855,-5.81329 -54.086799,-14.8 -4.70778,-1.87399 -28.4074,0.30104 -40.229,-0.95953 -6.8675,-0.61597 -14.9822,-0.60803 -22.4734,-2.78277 z"
   inkscape:connector-curvature="0"
   style="fill:#ffffff;fill-opacity:1" /><path
   id="_47972736"
   d="m 31.8053,368.57 20.9597,-5.63301 c 2.83975,-3.92995 8.424,-7.22495 13.197,-7.11241 4.77298,0.11253 4.01018,-0.45581 9.75714,1.96696 6.70592,2.6881 23.3898,1.94655 40.6973,1.20501 14.8439,-1.07887 36.2359,-25.5436 31.436,-48.4489 -1.09672,-13.1431 -6.38448,-15.4077 -8.65106,-26.7707 -1.60724,-7.80152 19.5477,-29.0112 26.9833,-53.339 l -0.006,22.5964 11.3556,-15.9463 c -1.22372,13.1899 -8.84948,19.0556 -5.24438,26.5816 l 14.0967,-9.70753 c -2.01118,6.04007 -7.7641,11.768 -6.03355,18.1196 l 15.8805,-9.95386 c -1.99417,14.4397 -25.1915,28.2558 -25.9384,35.2117 0.87477,5.9624 8.55893,15.2229 8.86111,29.4239 -1.25688,18.2546 -8.90646,22.1868 -15.8539,31.877 19.2345,0.91814 38.469,-0.0343 50.8439,-2.5458 -6.94829,12.2613 -22.3155,7.99682 -27.0811,11.8395 4.87786,2.32554 9.75572,2.78051 15.2572,3.23547 -3.78992,0.91531 -7.26775,3.07786 -11.681,2.74592 0.48841,1.28806 5.34218,6.00605 8.63689,6.04715 -3.73125,-1.512 -11.8278,-0.84132 -17.1179,-4.84781 -0.52101,1.09814 -1.66564,0.79313 -1.56274,3.29443 3.21846,0.91814 6.28101,1.52476 8.71994,3.22271 l 5.63726,4.87559 c -0.93969,1.87852 -4.69899,-1.18658 -4.8257,-1.38898 -6.62797,-2.22718 -14.0573,-3.24114 -19.8995,-2.48712 -5.02923,0.24633 -16.2947,4.2344 -21.6354,4.48073 -11.3771,0.0556 -36.7855,-5.81329 -54.086799,-14.8 -4.70778,-1.87399 -28.4074,0.30104 -40.229,-0.95953 -6.8675,-0.61597 -14.9822,-0.60803 -22.4734,-2.78277 z"
   inkscape:connector-curvature="0"
   style="fill:#d9d9d9;fill-opacity:1" /><path
   id="_30609856"
   d="m 301.805,368.57 21.2715,-6.88026 c 2.83975,-3.92995 8.11219,-5.66589 12.8852,-5.55336 4.77298,0.11253 4.01018,-0.76762 9.75714,1.65515 6.70592,2.6881 23.3898,1.94655 40.6973,1.20501 14.8439,-1.07887 36.2359,-25.5436 31.436,-48.4489 -1.09672,-13.1431 -6.38448,-15.4077 -8.65106,-26.7707 -1.60724,-7.80152 19.5477,-29.0112 26.9833,-53.339 l -0.006,22.5964 11.3556,-15.9463 c -1.22372,13.1899 -8.84948,19.0556 -5.24438,26.5816 l 14.0967,-9.70753 c -2.01118,6.04007 -7.7641,11.768 -6.03355,18.1196 l 15.8805,-9.95386 c -1.99417,14.4397 -25.1915,28.2558 -25.9384,35.2117 0.87477,5.9624 8.55893,15.2229 8.86111,29.4239 -1.25688,18.2546 -8.90646,22.1868 -15.8539,31.877 19.2345,0.91814 38.469,-0.0343 50.8439,-2.5458 -6.94829,12.2613 -22.3155,7.99682 -27.0811,11.8395 4.87786,2.32554 9.75572,2.78051 15.2572,3.23547 -3.78992,0.91531 -7.26775,3.07786 -11.681,2.74592 0.48841,1.28806 5.34218,6.00605 8.63689,6.04715 -3.73125,-1.512 -11.8278,-0.84132 -17.1179,-4.84781 -0.52101,1.09814 -1.66564,0.79313 -1.56274,3.29443 3.21846,0.91814 6.28101,1.52476 8.71994,3.22271 l 5.63726,4.87559 c -0.93969,1.87852 -4.69899,-1.18658 -4.8257,-1.38898 -6.62797,-2.22718 -14.0573,-3.24114 -19.8995,-2.48712 -5.02923,0.24633 -16.2947,4.2344 -21.6354,4.48073 -11.3771,0.0556 -36.7855,-5.81329 -54.0868,-14.8 -4.70778,-1.87399 -28.4074,0.30104 -40.229,-0.95953 -6.8675,-0.61597 -14.9822,-0.60803 -22.4734,-2.78277 z"
   inkscape:connector-curvature="0"
   style="fill:#000000" /><path
   id="_48304112"
   d="m 378.506,356.023 c 2.13421,-0.0689 4.29307,-0.15165 6.45648,-0.24435 12.5243,-0.9102 29.7108,-18.4691 31.8923,-37.6932 -11.1254,0.61937 -21.1915,-33.1387 -33.8664,-39.172 -7.31027,-5.32092 5.42835,-31.1916 -4.21966,-39.1136 -0.51732,5.08224 -3.22101,12.0733 -5.14602,9.91786 -3.20854,-3.5932 -5.6109,-18.0136 -9.71263,-20.2995 0.49011,2.59143 2.82388,12.6405 -1.42611,18.2407 -3.96567,-2.09934 -6.71783,-12.4707 -12.3928,-18.5494 -1.22315,6.95197 6.40687,14.0156 2.47975,21.5776 -4.51503,-4.04164 -12.4968,-19.5199 -16.9639,-16.0676 14.7603,23.6429 5.87197,38.897 7.9818,47.0214 7.42252,17.5655 38.6748,22.1718 40.608,54.006 1.77336,14.5154 -2.18381,10.8584 -5.69084,20.376 z"
   inkscape:connector-curvature="0"
   style="fill:#000000" /><path
   id="_47372000"
   d="m 376.36,359.241 c 2.13421,-0.0689 4.29307,-0.15165 6.45648,-0.24435 12.5243,-0.9102 29.7108,-18.4691 31.8923,-37.6932 -11.1254,0.61937 -21.1915,-33.1387 -33.8664,-39.172 -7.31027,-5.32092 5.42835,-31.1916 -4.21966,-39.1136 -0.51732,5.08224 -3.22101,12.0733 -5.14602,9.91786 -3.20854,-3.5932 -5.6109,-18.0136 -9.71263,-20.2995 0.49011,2.59143 2.82388,12.6405 -1.42611,18.2407 -3.96567,-2.09934 -6.71783,-12.4707 -12.3928,-18.5494 -1.22315,6.95197 6.40687,14.0156 2.47975,21.5776 -4.51503,-4.04164 -12.4968,-19.5199 -16.9639,-16.0676 14.7603,23.6429 5.87197,38.897 7.9818,47.0214 7.42252,17.5655 38.6748,22.1718 40.608,54.006 1.77336,14.5154 -2.18381,10.8584 -5.69084,20.376 z"
   inkscape:connector-curvature="0"
   style="fill:#d9d9d9;fill-opacity:1" /><path
   id="_48939800"
   d="m 294.605,368.57 22.8305,-6.56844 c 3.15156,-3.61814 6.55314,-5.9777 11.3261,-5.86517 4.77298,0.11253 4.01018,-0.76762 9.75714,1.65515 6.70592,2.6881 23.3898,1.94655 40.6973,1.20501 14.8439,-1.07887 36.2359,-25.5436 31.436,-48.4489 -1.09672,-13.1431 -6.38448,-15.4077 -8.65106,-26.7707 -1.60724,-7.80152 19.5477,-29.0112 26.9833,-53.339 l -0.006,22.5964 11.3556,-15.9463 c -1.22372,13.1899 -8.84948,19.0556 -5.24438,26.5816 l 14.0967,-9.70753 c -2.01118,6.04007 -7.7641,11.768 -6.03355,18.1196 l 15.8805,-9.95386 c -1.99417,14.4397 -25.1915,28.2558 -25.9384,35.2117 0.87477,5.9624 8.55893,15.2229 8.86111,29.4239 -1.25688,18.2546 -8.90646,22.1868 -15.8539,31.877 19.2345,0.91814 38.469,-0.0343 50.8439,-2.5458 -6.94829,12.2613 -22.3155,7.99682 -27.0811,11.8395 4.87786,2.32554 9.75572,2.78051 15.2572,3.23547 -3.78992,0.91531 -7.26775,3.07786 -11.681,2.74592 0.48841,1.28806 5.34218,6.00605 8.63689,6.04715 -3.73125,-1.512 -11.8278,-0.84132 -17.1179,-4.84781 -0.52101,1.09814 -1.66564,0.79313 -1.56274,3.29443 3.21846,0.91814 6.28101,1.52476 8.71994,3.22271 l 5.63726,4.87559 c -0.93969,1.87852 -4.69899,-1.18658 -4.8257,-1.38898 -6.62797,-2.22718 -14.0573,-3.24114 -19.8995,-2.48712 -5.02923,0.24633 -16.2947,4.2344 -21.6354,4.48073 -11.3771,0.0556 -36.7855,-5.81329 -54.0868,-14.8 -4.70778,-1.87399 -28.4074,0.30104 -40.229,-0.95953 -6.8675,-0.61597 -14.9822,-0.60803 -22.4734,-2.78277 z"
   inkscape:connector-curvature="0"
   style="fill:#ffffff;fill-opacity:1" /><path
   id="_47903800"
   d="m 298.205,368.57 20.9597,-5.63301 c 2.83975,-3.92995 8.424,-7.22495 13.197,-7.11241 4.77298,0.11253 4.01018,-0.45581 9.75714,1.96696 6.70592,2.6881 23.3898,1.94655 40.6973,1.20501 14.8439,-1.07887 36.2359,-25.5436 31.436,-48.4489 -1.09672,-13.1431 -6.38448,-15.4077 -8.65106,-26.7707 -1.60724,-7.80152 19.5477,-29.0112 26.9833,-53.339 l -0.006,22.5964 11.3556,-15.9463 c -1.22372,13.1899 -8.84948,19.0556 -5.24438,26.5816 l 14.0967,-9.70753 c -2.01118,6.04007 -7.7641,11.768 -6.03355,18.1196 l 15.8805,-9.95386 c -1.99417,14.4397 -25.1915,28.2558 -25.9384,35.2117 0.87477,5.9624 8.55893,15.2229 8.86111,29.4239 -1.25688,18.2546 -8.90646,22.1868 -15.8539,31.877 19.2345,0.91814 38.469,-0.0343 50.8439,-2.5458 -6.94829,12.2613 -22.3155,7.99682 -27.0811,11.8395 4.87786,2.32554 9.75572,2.78051 15.2572,3.23547 -3.78992,0.91531 -7.26775,3.07786 -11.681,2.74592 0.48841,1.28806 5.34218,6.00605 8.63689,6.04715 -3.73125,-1.512 -11.8278,-0.84132 -17.1179,-4.84781 -0.52101,1.09814 -1.66564,0.79313 -1.56274,3.29443 3.21846,0.91814 6.28101,1.52476 8.71994,3.22271 l 5.63726,4.87559 c -0.93969,1.87852 -4.69899,-1.18658 -4.8257,-1.38898 -6.62797,-2.22718 -14.0573,-3.24114 -19.8995,-2.48712 -5.02923,0.24633 -16.2947,4.2344 -21.6354,4.48073 -11.3771,0.0556 -36.7855,-5.81329 -54.0868,-14.8 -4.70778,-1.87399 -28.4074,0.30104 -40.229,-0.95953 -6.8675,-0.61597 -14.9822,-0.60803 -22.4734,-2.78277 z"
   inkscape:connector-curvature="0"
   style="fill:#d9d9d9;fill-opacity:1" />
</svg>