<?xml version="1.0" encoding="UTF-8"?>
<!DOCTYPE svg PUBLIC "-//W3C//DTD SVG 1.1//EN" "http://www.w3.org/Graphics/SVG/1.1/DTD/svg11.dtd">
<!-- Creator: CorelDRAW -->
<svg xmlns="http://www.w3.org/2000/svg" xml:space="preserve" width="500px" height="555px" shape-rendering="geometricPrecision" text-rendering="geometricPrecision" image-rendering="optimizeQuality" fill-rule="evenodd" clip-rule="evenodd"
viewBox="0 0 500 555"
 xmlns:xlink="http://www.w3.org/1999/xlink"
 xmlns:svg="http://www.w3.org/2000/svg"
 version="1.0">
 <g id="Layer_x0020_1">
  <metadata id="CorelCorpID_0Corel-Layer"/>
  <path id="path1937" fill="#0057F0" stroke="black" stroke-width="1.41732" d="M0.810709 1.04457l498.015 -0.040252 -13.8002 317.048c-11.4284,313.264 -454.842,316.361 -470.744,0.374457l-13.4717 -317.382z"/>
  <path fill="#000066" d="M289.863 430.723l125.272 0c14.8519,-0.21515 8.39452,-15.2821 0.645733,-16.1433l-26.475 -63.9275 -11.3003 -16.1433 -40.7296 -190.168 -22.2778 -32.2866c10.8697,-24.1073 21.0932,-38.6909 15.8207,-51.9812 -5.27273,-13.2908 -27.6591,-24.6458 -58.762,-23.8924 -7.57928,-7.96394 -30.3336,-8.50196 -38.236,-0.645733 -15.9282,-1.07632 -52.458,10.5157 -56.5019,23.2467 -4.60715,14.5043 5.27386,29.8111 16.7893,53.9184l-22.2778 35.1924 -37.4525 185.971 -11.6232 16.1433 -26.475 64.5733c-8.71739,0.215433 -12.9147,15.9282 1.9372,16.1433l125.272 0c0.646016,11.8381 7.31878,19.3714 20.0177,22.6006l-5.81159 27.7665c-0.430299,5.38101 13.3452,8.17909 18.0805,10.3317 6.67276,-2.79836 13.991,-3.65925 20.0177,-8.39452l-8.39452 -30.9952c11.4347,-0.573449 19.705,-6.895 22.464,-21.3092z"/>
  <path fill="#000066" d="M54.6296 307.388l45.2013 0.645733c11.1926,3.3361 12.6992,22.4929 -4.19726,21.632l-9.36256 0.399402c-1.4641,24.8389 -3.37295,48.7616 -7.42536,70.1493 -4.80813,-6.05736 -7.24763,-15.0744 -8.61052,-25.4367l3.39421 -1.44595 -1.33427 -5.71522 3.83216 0.299906 0.407622 -2.13421 -7.58722 -3.21619c-1.86803,-10.349 -3.09033,-21.6493 -4.6355,-32.3209l-8.06826 -0.256536c-15.0673,1.82948 -18.1882,-21.2017 -1.61433,-22.6006z"/>
  <path fill="#000066" d="M66.5757 53.6148c-8.07166,3.65925 -10.0089,11.5158 0,18.7262 19.7799,20.2246 31.2171,41.5004 39.149,69.16 1.94088,6.66 2.37005,13.3194 2.58265,19.9789 1.66847,2.78221 1.82523,7.07641 1.7657,11.5869 1.17893,4.84214 1.49698,10.1143 0.954426,15.817 1.70079,2.11408 1.10693,5.37477 0.971717,8.40643 0.758552,3.44835 0.0048189,6.89556 -0.965197,10.3431 1.68038,3.65216 1.53128,6.87345 -1.09304,9.66416 -0.133228,3.23943 -0.589323,6.47887 -0.722552,9.7183 -0.362551,2.79581 -0.725103,5.59134 -1.08737,8.38687 -0.147118,2.48457 -0.293953,4.96914 -0.440788,7.45342 0.337323,3.53197 0.35263,6.41792 -1.89241,9.94904 -0.939402,5.30164 -1.12337,7.37263 -2.75103,9.05698 0.634961,3.86958 0.629008,7.09881 -1.31471,8.39141 0.986741,6.23084 -0.0705827,9.87818 -2.52737,10.9423 0.798804,3.35764 0.306142,6.28413 -1.47798,8.78004 -0.253701,6.4372 -1.36772,10.7209 -3.3429,12.8523l-0.0416693 4.55953 -32.9324 0c-2.07751,-1.26369 -3.29414,-3.38882 -3.64989,-6.37455 -1.46523,-2.18268 -2.71474,-4.47392 -2.45225,-7.52202 -1.42951,-1.53468 -1.99871,-3.07021 -1.70702,-4.60545 -1.5446,-1.70589 -2.22832,-4.27323 -2.05115,-7.70145 -2.46756,-1.61575 -3.21421,-4.52325 -2.2388,-8.72249 -2.18665,-1.28296 -3.35254,-5.0967 -3.17254,-12.4087 -1.53326,-1.73906 -3.3361,-6.8692 -3.14816,-13.775 -1.5565,-1.05506 -1.60073,-4.37953 -1.42895,-8.028 -2.03499,-3.12151 -1.80142,-7.00044 -1.24384,-10.9868 -2.02195,0.54737 -1.77506,-4.20038 -1.20444,-9.70385 -1.85499,-1.04117 -1.7674,-4.4572 -1.0338,-8.95068 -1.74614,-1.2189 -1.77109,-5.02101 -0.0742678,-11.4063 -2.60901,-3.27458 -1.66564,-8.32649 0.89178,-14.1857 -1.43291,-1.36998 -2.32611,-3.28082 0.562111,-8.97308 -0.204095,-3.21647 0.129543,-6.97181 1.64693,-11.9115 -0.660473,-2.36721 -0.0297638,-5.59644 1.89213,-9.68656 -0.363685,-2.4891 -0.40337,-5.19506 1.82523,-9.41358 -0.519874,-2.81934 0.0096378,-5.98904 2.07213,-9.66983 -0.0362835,-3.87269 1.21861,-7.31537 3.76441,-10.3272 -0.0138898,-5.28407 1.48422,-7.54356 3.19862,-9.37049 -0.822331,-4.30271 0.506268,-8.28369 3.98721,-10.0052 -0.984756,-1.93947 -0.248315,-3.66435 2.20989,-6.46271 0.470268,-4.09153 1.26454,-7.96706 4.32794,-10.3309l0.901134 -4.83874c-19.8593,-17.2794 -15.3374,-31.3778 1.61433,-34.8696l12.2689 1.29147c6.34961,1.72205 20.1251,9.90142 30.6723,7.10306l3.22866 2.26006 0 3.8744c-11.8386,6.67276 -21.7398,-4.08955 -32.6095,-6.13446l-13.8833 -1.9372z"/>
  <path fill="#000066" d="M84.3333 93.6502c-5.27329,-8.82482 -12.4841,-14.4213 -18.7262,-21.632 2.15263,-17.0042 0.107717,-44.3401 7.42593,-51.9815 6.99563,14.8519 7.53364,49.0757 11.3003,73.6135z"/>
  <path fill="#000066" d="M414.63 307.388l43.2493 -0.418961c12.3015,0.452693 14.4292,17.805 -1.71298,20.2125l-9.8949 1.28665c-0.717449,8.86252 -1.08,17.9277 -1.63559,26.898l-9.89689 12.3355 2.74536 3.66208 6.47774 -6.67531c-1.08539,12.7208 -2.96107,25.0333 -7.24536,36.0584 -8.30495,-11.7006 -7.87465,-53.068 -10.6296,-72.0987l-10.9074 -0.611433c-16.96,1.1194 -19.0162,-19.9602 -0.549638,-20.6487z"/>
  <path fill="#000066" d="M441.458 49.9927c8.07166,3.65925 3.56003,12.1615 -1.98425,21.8523 -15.3624,24.9415 -23.4533,31.3824 -30.7395,54.8448 -1.23761,4.49235 -2.30684,8.47163 -1.82325,12.1028 -2.75783,2.8063 -2.4908,5.61232 -1.79206,8.41777 -2.16794,4.32652 -2.06816,8.65248 -1.64438,12.9781 -2.52936,4.07395 -1.71751,6.75411 -0.797103,9.97257 -2.7995,5.38243 -3.11471,7.53279 -1.60016,12.9113 -1.70079,2.11408 -1.10693,8.28057 -0.971717,11.3122 -0.758552,3.44835 -1.94202,9.15563 -0.972,12.6031 -1.68038,3.65216 -1.53128,10.425 1.09304,13.2157 -2.01912,3.23972 -1.24016,10.0307 1.04542,13.2698 -1.52107,7.69408 -0.0819213,16.9472 2.7017,15.1671 0.166677,-0.951591 -1.34249,9.67777 2.52454,17.0932 -0.986741,6.23084 0.0705827,10.5239 2.52737,11.588 -0.798804,4.00592 1.30876,9.30246 3.09232,10.7172 0.253701,6.4372 1.36772,7.16939 3.3429,9.30076 0.230457,4.21002 2.07496,7.56029 4.88466,10.0483l31.9638 -0.968599c2.07751,-1.26369 0.388347,-1.77449 0.744095,-4.76022 1.46523,-2.18268 5.39462,-9.31692 5.13213,-12.365 4.13008,-4.43395 3.35254,-3.78595 3.11244,-8.43251 2.46756,-1.61575 2.89134,-5.16898 1.91594,-9.36823 5.31978,-1.78696 4.2001,-14.2693 4.06063,-19.4034 1.24611,-0.988441 2.98517,-11.3117 1.70419,-14.8176 2.02195,0.54737 2.42079,-7.42904 1.85017,-12.9325 2.55714,-7.32303 0.933733,-12.2278 1.10806,-15.8369 2.60901,-3.27458 1.34277,-13.4924 -0.246047,-19.3516 0.787181,-0.724252 1.03465,-8.12382 -1.53071,-11.556 0.204095,-3.21647 0.516189,-2.45169 -1.0012,-7.39134 0.660473,-2.36721 0.0297638,-8.82511 -2.53786,-13.2381 0.363685,-2.4891 0.726237,-4.22646 -1.50236,-8.44498 0.519874,-2.81934 -0.332504,-7.92624 -3.04073,-10.9613 0.0362835,-3.87269 0.395717,-7.31537 -2.15008,-10.3272 0.0138898,-5.28407 -0.838489,-5.92923 -2.55288,-7.75616 0.136913,-7.94977 -5.97062,-16.1515 -9.84558,-24.5395 0.175465,-2.15433 0.672662,-5.707 -2.39074,-8.07081l-0.901134 -4.83874c13.9371,-23.2007 11.0356,-38.6552 -3.59858,-39.8302l-10.7807 1.78753c-16.922,1.79915 -17.9776,20.2887 -36.4754,17.4969l-2.9058 1.9372 -0.968599 3.22866c19.7756,8.16095 27.1965,-14.5069 39.0583,-16.5518l12.8911 -0.102614z"/>
  <path fill="#000066" d="M426.253 91.713c5.27329,-8.82482 8.28737,-15.0673 14.5296,-22.2781 -1.02359,-17.9719 0.698457,-39.4971 -6.61975,-47.1385 -6.98259,19.2444 -6.41736,50.9196 -7.9098,69.4165z"/>
  <path fill="#BF9F4F" d="M287.316 429.659l125.272 0c14.8519,-0.21515 8.39452,-15.2821 0.645733,-16.1433l-26.475 -63.9275 -11.3003 -16.1433 -40.7296 -190.168 -22.2778 -32.2866c10.8697,-24.1073 21.0932,-38.6909 15.8207,-51.9812 -5.27273,-13.2908 -27.6591,-24.6458 -58.762,-23.8924 -7.57928,-7.96394 -30.3336,-8.50196 -38.236,-0.645733 -15.9282,-1.07632 -52.458,10.5157 -56.5019,23.2467 -4.60715,14.5043 5.27386,29.8111 16.7893,53.9184l-22.2778 35.1924 -37.4525 185.971 -11.6232 16.1433 -26.475 64.5733c-8.71739,0.215433 -12.9147,15.9282 1.9372,16.1433l125.272 0c0.646016,11.8381 7.31878,19.3714 20.0177,22.6006l-5.81159 27.7665c-0.430299,5.38101 13.3452,8.17909 18.0805,10.3317 6.67276,-2.79836 13.991,-3.65925 20.0177,-8.39452l-8.39452 -30.9952c11.4347,-0.573449 19.705,-6.895 22.464,-21.3092z"/>
  <path fill="#B3954A" d="M258.875 29.8551c-9.71575,-2.21925 -22.1684,-0.786048 -27.6012,4.61509 -15.9282,-1.07632 -52.458,10.5157 -56.5019,23.2467 -4.60715,14.5043 5.27386,29.8111 16.7893,53.9184l-22.2778 35.1924 -37.4525 185.971 -11.6232 16.1433 87.2272 0.984189 7.44889 -4.25651 28.7314 -2.12825 -8.51301 -10.6413 13.8336 -3.19238 7.44889 -5.32063 -2.12825 -8.51301 6.38476 -3.19238 -12.7695 -7.44889 5.32063 -7.44889 -6.38476 -13.8336 10.6413 -8.51301 -1.06413 -6.38476 -4.25651 -4.25651 7.44889 -5.32063 -7.44889 -6.38476 11.7054 -13.8336 -8.51301 -3.19238 4.25651 -7.44889 -9.57714 -8.51301 5.32063 -8.51301 -3.19238 -3.19238 2.12825 -5.32063 -6.38476 -5.32063 1.06413 -4.25651 -3.19238 -4.25651 8.51301 -8.51301 -10.6413 -6.38476 7.44889 -15.9619 -8.51301 -8.51301 19.1543 -11.7054 -7.44889 -15.9619 -13.8336 -13.8336 11.7054 -13.8336 -2.12825 -37.2444 3.19238 -1.06413 3.19238 8.51301 4.25651 -2.12825 2.12825 -15.9619 -6.38476 -9.57714 2.49024 -7.21786z"/>
  <polygon fill="#E5E5E5" points="202.216,110.989 182.198,142.308 145.391,333.444 133.445,349.588 110.199,413.838 133.445,413.515 148.943,352.493 161.535,330.861 188.01,142.308 206.736,110.667 "/>
  <path fill="white" d="M239.345 335.382l-15.4976 0 -90.0797 -0.645733 -9.04026 12.9147 18.4034 1.61433 94.277 0.322866 -0.645733 1.61433 -25.1836 0.645733 -90.0797 0 -23.8921 61.0217 132.375 0.322866 9.68599 0.968599 -0.645733 1.29147 -144.644 0c-5.05814,0.968599 -9.14769,7.10306 -2.58293,10.6546l-2.56621 2.00041c-6.67786,-4.01159 -2.57925,-14.4173 4.5034,-14.5922l26.475 -64.5733 11.6232 -16.1433 37.4525 -185.971 22.2778 -35.1924c-11.5155,-24.1073 -21.3965,-39.4141 -16.7893,-53.9184 4.04391,-12.731 40.5737,-24.323 56.5019,-23.2467 6.66766,-6.62854 23.9085,-7.28107 33.6864,-2.53956 -12.7083,-2.2286 -23.4301,-2.17361 -28.8031,1.59704 -9.79824,6.876 -3.42539,45.3235 6.09421,72.296 12.3766,-0.538299 24.753,-0.430583 44.5556,1.29147 19.4794,-31.6409 11.8383,-39.3897 6.45733,-43.587 18.2957,2.79808 5.59616,27.5511 -3.8744,43.2641l5.16586 0.968599 11.5526 -21.9019c4.32794,-9.27326 2.84485,-17.4702 -1.54375,-25.5594 6.29944,4.71714 9.10035,12.1255 4.20548,25.4554l-11.9543 22.3288 8.39452 2.26006c-35.623,-4.95071 -72.5369,-4.30498 -110.743,1.9372l-20.6634 32.9324 64.8961 0.968599 9.04026 1.29147 -6.13446 0.645733 -70.3849 -0.322866 -35.5153 183.711 84.2681 1.9372 19.0491 0m14.2061 156.913c-4.73528,-2.15263 -18.5108,-4.95071 -18.0805,-10.3317l5.81159 -27.7665c-10.7147,-2.72466 -17.1391,-8.51358 -19.2733,-17.367 6.64016,9.87846 13.2798,15.0216 19.9191,15.4298l1.29147 0.968599c-2.47521,11.5693 -4.41213,22.3316 -5.16586,31.318l14.8519 5.48873 0.645733 2.26006zm66.7197 -441.877c-10.2314,-8.19185 -28.0834,-13.9056 -50.4386,-13.3642 17.6199,1.2257 34.5402,5.24948 50.4386,13.3642z"/>
  <path fill="#B89A4C" d="M219.005 107.438c-8.39452,-11.7845 -17.5657,-24.0452 -16.7888,-33.4165 0.860882,-10.385 17.8651,-13.0224 27.1205,-15.6592 -1.29118,-6.99534 -0.860315,-14.421 1.29147,-22.2778 -7.8755,-1.31584 -50.2061,7.86813 -54.4468,24.7904 -2.76236,11.0231 3.48038,25.882 17.3171,49.4688l25.5064 -2.9058z"/>
  <path fill="white" d="M198.341 47.7077c-14.476,6.19711 -21.5802,14.1701 -17.1147,25.5339l14.209 34.5192 2.26006 0 -0.322866 -3.8744 -14.252 -30.3463c-4.3166,-8.71852 -0.26504,-17.1145 15.2206,-25.8324z"/>
  <path fill="#A18643" d="M225.785 57.3937l-0.645733 -2.58293 -21.9549 8.07166c-7.64193,5.21887 -7.42649,12.9674 -3.8744,21.632l13.2375 22.6006 1.61433 -3.22866 -11.9461 -19.0491c-3.76668,-9.57856 -2.7978,-16.5742 2.9058,-20.9863 6.88791,-2.15263 12.4844,-5.27358 20.6634,-6.45733z"/>
  <path fill="#0057F0" d="M240.314 106.146c-6.23906,0.00226772 -13.3404,0.434268 -21.3092,1.29147 -8.39452,-11.7845 -17.5657,-24.0452 -16.7888,-33.4165 0.860882,-10.385 17.8651,-13.0224 27.1205,-15.6592 0.861166,17.0045 4.95071,32.0715 10.9775,47.7842z"/>
  <path fill="#002F80" d="M221.953 107.136c-0.969166,0.0938268 -1.95165,0.194457 -2.94775,0.301606 -8.39452,-11.7845 -17.5657,-24.0452 -16.7888,-33.4165 0.860882,-10.385 17.8651,-13.0224 27.1205,-15.6592 0.040252,0.796819 0.0878741,1.58967 0.142299,2.37884l-15.5648 4.14397c-7.72016,2.80914 -11.6992,10.7561 -6.51912,19.3272l14.5576 22.9241z"/>
  <rect fill="#E5E5E5" x="195.113" y="114.864" width="13.8833" height="1.29147"/>
  <rect fill="#E5E5E5" x="191.884" y="119.707" width="13.8833" height="1.29147"/>
  <rect fill="#E5E5E5" x="188.01" y="125.841" width="13.8833" height="1.29147"/>
  <rect fill="#E5E5E5" x="185.427" y="130.684" width="15.4976" height="1.29147"/>
  <rect fill="#E5E5E5" x="180.907" y="136.819" width="17.4348" height="1.29147"/>
  <rect fill="#E5E5E5" x="174.126" y="152.316" width="18.7262" height="1.29147"/>
  <rect fill="#E5E5E5" transform="matrix(1.34658 0.0780624 -0.0578738 0.998324 173.211 158.879)" width="13.8833" height="1.29147"/>
  <rect fill="#E5E5E5" transform="matrix(1.43768 0.0780624 -0.0617896 0.998324 172.247 165.659)" width="13.8833" height="1.29147"/>
  <rect fill="#E5E5E5" transform="matrix(1.43768 0.0780624 -0.0617896 0.998324 170.956 174.376)" width="13.8833" height="1.29147"/>
  <rect fill="#E5E5E5" transform="matrix(1.43768 0.0780624 -0.0617896 0.998324 168.373 182.125)" width="13.8833" height="1.29147"/>
  <rect fill="#E5E5E5" transform="matrix(1.43768 0.0780624 -0.0617896 0.998324 167.404 190.197)" width="13.8833" height="1.29147"/>
  <rect fill="#E5E5E5" transform="matrix(1.43768 0.0780624 -0.0617896 0.998324 167.081 197.623)" width="13.8833" height="1.29147"/>
  <rect fill="#E5E5E5" transform="matrix(1.43768 0.0780624 -0.0617896 0.998324 165.467 206.663)" width="13.8833" height="1.29147"/>
  <rect fill="#E5E5E5" transform="matrix(1.43768 0.0780624 -0.0617896 0.998324 163.853 215.38)" width="13.8833" height="1.29147"/>
  <rect fill="#E5E5E5" transform="matrix(1.5998 0.0780624 -0.0687572 0.998324 159.987 223.775)" width="13.8833" height="1.29147"/>
  <rect fill="#E5E5E5" transform="matrix(1.5998 0.0780624 -0.0687572 0.998324 160.633 232.492)" width="13.8833" height="1.29147"/>
  <rect fill="#E5E5E5" transform="matrix(1.5998 0.0780624 -0.0687572 0.998324 157.404 242.178)" width="13.8833" height="1.29147"/>
  <rect fill="#E5E5E5" transform="matrix(1.66932 0.0780624 -0.0717447 0.998324 157.085 251.218)" width="13.8833" height="1.29147"/>
  <rect fill="#E5E5E5" transform="matrix(1.66932 0.0780624 -0.0717447 0.998324 154.825 261.873)" width="13.8833" height="1.29147"/>
  <rect fill="#E5E5E5" transform="matrix(1.66932 0.0780624 -0.0717447 0.998324 153.211 270.267)" width="13.8833" height="1.29147"/>
  <rect fill="#E5E5E5" transform="matrix(1.83146 0.0780624 -0.0787134 0.998324 148.377 280.922)" width="13.8833" height="1.29147"/>
  <rect fill="#E5E5E5" transform="matrix(1.83146 0.0780624 -0.0787134 0.998324 148.054 291.254)" width="13.8833" height="1.29147"/>
  <rect fill="#E5E5E5" transform="matrix(1.94725 0.0780624 -0.0836901 0.998324 143.218 311.272)" width="13.8833" height="1.29147"/>
  <rect fill="#E5E5E5" transform="matrix(1.83146 0.0780624 -0.0787134 0.998324 145.794 301.586)" width="13.8833" height="1.29147"/>
  <rect fill="#E5E5E5" transform="matrix(2.08626 0.0780624 -0.0896641 0.998324 139.997 321.28)" width="13.8833" height="1.29147"/>
  <rect fill="#E5E5E5" transform="matrix(2.08626 0.0780624 -0.0896641 0.998324 133.862 340.652)" width="13.8833" height="1.29147"/>
  <rect fill="#E5E5E5" transform="matrix(2.2947 0.0780624 -0.0986229 0.998324 124.511 358.41)" width="13.8833" height="1.29147"/>
  <rect fill="#E5E5E5" transform="matrix(2.59585 0.0780624 -0.111566 0.998324 119.039 367.127)" width="13.8833" height="1.29147"/>
  <rect fill="#E5E5E5" transform="matrix(2.87546 0.00403514 -0.0940397 1.00111 115.797 378.294)" width="13.8833" height="1.29147"/>
  <rect fill="#E5E5E5" transform="matrix(2.87546 0.00403514 -0.0940397 1.00111 111.6 386.689)" width="13.8833" height="1.29147"/>
  <polygon fill="#E5E5E5" points="108.374,397.343 149.266,397.399 154.307,398.692 108.25,398.636 "/>
  <polygon fill="#E5E5E5" points="105.146,405.738 145.391,406.762 151.724,408.378 105.021,407.031 "/>
  <path fill="white" d="M239.991 36.4074c-5.70388,19.5874 4.08983,53.7035 7.10306,64.5733l-1.61433 3.22866c-8.34832,-30.5187 -13.3024,-55.0599 -5.48873,-67.8019z"/>
  <path fill="#A88C46" d="M254.197 104.532l4.52013 0.322866c11.9577,-40.121 15.1639,-68.04 5.48873,-68.7705 6.08599,12.6621 2.00239,37.7581 -10.0089,68.4477z"/>
  <path fill="#644D36" d="M254.197 104.532l4.52013 0.322866c3.92344,-13.1647 6.9052,-25.0155 8.79818,-35.0232l-0.973418 -10.5613c-1.3405,12.5059 -5.58879,27.9989 -12.3449,45.2617z"/>
  <path fill="#A88C46" d="M315.542 52.5507c14.3138,19.1565 0.215433,34.439 -8.39452,52.6272l4.52013 -0.968599c8.07166,-15.2824 22.2778,-38.3137 3.8744,-51.6586z"/>
  <path fill="#644D36" d="M270.986 35.7616c2.47521,4.84299 1.3989,11.9461 1.29147,17.4348 2.69036,9.47056 14.4213,-0.107717 4.19726,-4.52013l-0.645733 -7.10306c-0.753449,-3.22866 -2.36806,-5.16586 -4.84299,-5.81159z"/>
  <path fill="#A88C46" d="M296.493 58.3623l-5.40369 -5.35266 -12.6768 -4.01046 1.9372 4.19726c5.05814,0.107433 10.762,3.44381 16.1433,5.16586z"/>
  <polygon fill="#E5E5E5" points="246.448,450.968 242.574,470.985 240.96,482.931 242.897,482.609 244.188,472.277 247.74,458.071 "/>
  <rect fill="white" x="244.188" y="453.551" width="4.84299" height="1.29147"/>
  <rect fill="white" x="243.866" y="458.071" width="4.84299" height="1.29147"/>
  <rect fill="white" x="242.897" y="462.268" width="5.81159" height="1.29147"/>
  <rect fill="white" x="241.283" y="467.111" width="5.81159" height="1.29147"/>
  <rect fill="white" x="240.637" y="471.308" width="5.81159" height="1.29147"/>
  <rect fill="white" x="240.314" y="476.474" width="5.81159" height="1.29147"/>
  <rect fill="white" x="239.345" y="480.349" width="5.81159" height="1.29147"/>
  <path fill="#A88C46" d="M249.677 432.564l10.0089 2.58293 0 2.9058 3.8744 -0.645733 -2.58293 2.9058 4.84299 0 -4.52013 2.9058 5.48873 5.48873c8.98725,-3.87411 15.014,-8.28709 14.529,-13.8833l4.19726 -3.55153 -10.3317 -1.61433 -25.5064 2.9058z"/>
  <path fill="#644D36" d="M222.556 430.304l51.9815 -0.645733c13.5734,9.87393 -8.839,11.6495 -10.9775,21.632l4.52013 26.475c-3.204,7.76948 -8.45292,5.30703 -12.9147,6.78019 4.83562,-1.59987 11.2785,-2.97099 9.68599,-5.48873l-5.16586 -28.7351c-0.861166,-7.21078 17.9728,-13.453 3.22866,-17.7576l-40.0354 0.968599 -0.322866 -3.22866z"/>
  <polygon fill="#A88C46" points="256.457,456.456 259.363,479.38 260.655,478.734 257.749,458.716 "/>
  <polygon fill="#644D36" points="258.717,130.039 264.852,130.039 264.852,131.653 258.395,132.622 "/>
  <polygon fill="#644D36" points="258.072,115.51 264.206,115.51 264.206,117.124 257.749,118.093 "/>
  <polygon fill="#644D36" points="257.103,137.787 263.238,137.787 263.238,139.402 256.78,140.37 "/>
  <polygon fill="#644D36" points="258.596,153.931 262.43,153.931 262.43,154.94 258.395,155.545 "/>
  <polygon fill="#644D36" points="258.273,163.617 262.108,163.617 262.108,164.626 258.072,165.231 "/>
  <polygon fill="#644D36" points="259.04,172.98 265.175,172.98 265.175,174.594 258.717,175.563 "/>
  <polygon fill="#644D36" points="260.332,183.957 266.466,183.957 266.466,185.572 260.009,186.54 "/>
  <polygon fill="#644D36" points="262.148,194.289 265.982,194.289 265.982,195.298 261.946,195.903 "/>
  <polygon fill="#644D36" points="261.502,205.912 265.336,205.912 267.273,206.921 261.3,207.204 "/>
  <polygon fill="#644D36" points="262.794,219.795 266.628,219.795 268.565,220.804 262.592,221.087 "/>
  <polygon fill="#644D36" points="265.054,230.127 268.888,230.127 270.825,231.136 264.852,231.419 "/>
  <polygon fill="#644D36" points="265.054,253.696 268.888,253.696 270.825,254.705 265.175,255.311 "/>
  <polygon fill="#644D36" points="265.699,263.06 269.534,263.06 271.47,264.068 265.82,264.674 "/>
  <polygon fill="#644D36" points="267.959,275.006 275.345,275.328 274.699,276.983 268.081,276.62 "/>
  <polygon fill="#644D36" points="265.699,242.073 269.534,242.073 271.47,243.082 265.498,243.365 "/>
  <polygon fill="#644D36" points="269.574,286.952 273.408,286.952 275.345,287.96 269.372,288.243 "/>
  <polygon fill="#644D36" points="268.282,296.315 273.296,296.315 275.829,297.324 268.441,297.929 "/>
  <polygon fill="#644D36" points="269.574,305.678 273.585,305.678 275.611,306.485 269.7,306.969 "/>
  <polygon fill="#644D36" points="270.22,315.687 275.233,315.687 277.767,316.696 270.378,317.301 "/>
  <polygon fill="#644D36" points="271.834,324.081 275.668,324.081 277.605,325.09 271.955,325.696 "/>
  <polygon fill="#644D36" points="268.928,385.426 272.762,385.426 274.699,386.435 269.049,387.04 "/>
  <polygon fill="#644D36" points="270.865,364.762 274.699,364.762 276.636,365.771 270.986,366.377 "/>
  <polygon fill="#644D36" points="273.085,342.485 269.251,342.485 267.313,343.493 272.963,344.099 "/>
  <polygon fill="#644D36" points="274.376,356.368 270.542,356.368 268.605,357.377 274.255,357.982 "/>
  <polygon fill="#B3954A" points="285.515,157.159 293.91,261.122 311.345,334.736 329.425,412.869 341.694,412.869 333.3,357.982 320.385,328.278 322.322,321.175 309.407,290.826 312.636,274.683 309.407,259.831 312.636,246.916 303.596,200.423 305.533,190.092 297.138,148.765 288.098,153.285 288.744,161.034 "/>
  <polygon fill="#644D36" points="274.699,373.803 270.865,374.771 268.928,375.78 274.578,376.386 "/>
  <polygon fill="#644D36" points="274.699,396.726 270.865,396.726 268.928,397.735 274.578,398.34 "/>
  <polygon fill="#B3954A" points="291.327,113.895 308.116,145.536 329.425,326.987 342.985,350.879 353.963,408.995 375.918,418.035 355.9,347.65 344.923,334.09 317.802,146.182 304.242,113.895 "/>
  <polygon fill="#785C41" points="302.304,114.541 317.156,142.953 344.923,334.09 353.963,345.713 375.272,414.161 403.684,414.807 374.626,348.296 364.94,337.964 326.196,140.37 308.116,113.25 "/>
  <polygon fill="#A88C46" points="291.327,113.895 308.116,145.536 329.425,326.987 342.985,350.879 353.963,408.995 358.483,409.641 345.568,347.005 332.008,321.821 309.407,140.37 297.138,114.541 "/>
  <polygon fill="#644D36" points="269.897,406.412 273.731,406.412 275.668,407.421 269.695,407.704 "/>
  <path fill="#BF9F4F" d="M275.829 114.541l10.9775 27.1208 10.3317 0.645733 -9.04026 -32.2866c-6.25125,-1.73395 -9.47623,1.06923 -12.2689,4.52013z"/>
  <polygon fill="#785C41" points="372.043,339.902 380.438,349.588 407.559,414.161 407.559,407.058 381.084,347.973 373.105,338.021 332.679,150.696 329.768,146.618 "/>
  <polygon fill="#644D36" points="245.48,414.161 250.969,415.13 414.016,415.452 412.079,412.224 "/>
  <polygon fill="#644D36" points="255.812,349.265 260.977,350.879 385.927,350.233 384.635,347.65 "/>
  <polygon fill="#644D36" points="252.906,334.09 270.341,335.059 366.555,335.382 374.949,333.767 263.56,332.476 "/>
  <polygon fill="#644D36" points="334.914,146.505 327.488,147.15 257.103,148.119 257.103,146.828 263.238,145.859 334.586,145.085 "/>
  <polygon fill="#644D36" points="258.395,122.936 264.529,122.936 264.529,124.55 258.072,125.518 "/>
  <rect fill="#644D36" x="267.758" y="115.832" width="42.2955" height="1.61433"/>
  <rect fill="#644D36" x="267.112" y="123.904" width="48.1071" height="1.61433"/>
  <rect fill="#644D36" x="266.466" y="131.653" width="53.9187" height="1.61433"/>
  <rect fill="#644D36" x="266.143" y="139.079" width="58.4388" height="1.61433"/>
  <rect fill="#644D36" x="268.081" y="154.899" width="61.9903" height="1.61433"/>
  <rect fill="#644D36" x="267.112" y="164.262" width="63.9275" height="1.61433"/>
  <rect fill="#644D36" x="269.372" y="174.271" width="63.9275" height="1.61433"/>
  <polygon fill="#644D36" points="270.018,185.572 336.851,185.249 336.851,186.863 274.861,186.54 "/>
  <polygon fill="#644D36" points="271.309,195.58 339.757,195.903 339.757,197.518 279.704,197.195 "/>
  <polygon fill="#644D36" points="270.018,207.526 341.694,207.849 341.694,209.464 278.808,209.141 "/>
  <polygon fill="#644D36" points="272.924,219.473 344.6,219.795 344.6,221.41 281.714,221.087 "/>
  <polygon fill="#644D36" points="274.538,230.127 346.214,230.45 346.214,232.064 283.328,231.741 "/>
  <polygon fill="#644D36" points="275.829,242.396 347.506,242.719 347.506,244.333 284.62,244.01 "/>
  <polygon fill="#644D36" points="275.507,253.696 348.151,252.728 351.057,253.696 351.703,255.634 288.817,255.311 "/>
  <polygon fill="#644D36" points="276.152,264.028 350.734,262.414 353.64,263.382 354.286,265.32 291.4,264.997 "/>
  <polygon fill="#644D36" points="277.767,274.683 351.057,273.068 353.963,274.037 354.609,275.974 291.723,275.651 "/>
  <polygon fill="#644D36" points="277.121,285.983 352.348,285.337 357.192,286.306 354.286,287.92 291.4,287.597 "/>
  <polygon fill="#644D36" points="279.381,296.315 354.608,295.669 359.452,296.638 356.546,298.252 293.66,297.929 "/>
  <polygon fill="#644D36" points="282.61,306.969 357.837,306.324 362.681,307.292 359.775,308.907 296.889,308.584 "/>
  <polygon fill="#644D36" points="283.256,316.332 358.483,315.687 363.326,316.655 360.42,318.27 297.534,317.947 "/>
  <polygon fill="#644D36" points="281.964,325.373 361.389,323.758 366.232,324.727 363.326,326.341 299.794,326.987 "/>
  <polygon fill="#644D36" points="280.349,340.87 360.097,339.579 367.201,340.225 363.326,341.193 299.149,342.162 "/>
  <polygon fill="#644D36" points="278.412,357.014 377.209,356.368 384.313,357.014 379.469,358.951 296.243,358.628 "/>
  <polygon fill="#644D36" points="280.349,366.054 380.115,366.054 387.218,366.7 382.375,368.637 286.88,367.991 "/>
  <polygon fill="#644D36" points="281.641,376.063 386.895,376.708 393.999,377.354 389.155,379.291 306.252,378 "/>
  <polygon fill="#644D36" points="281.964,385.426 390.77,387.363 397.873,388.009 393.03,389.946 296.566,388.009 "/>
  <polygon fill="#644D36" points="277.121,395.435 396.581,397.695 403.685,398.34 398.841,400.278 290.431,397.695 "/>
  <polygon fill="#644D36" points="280.027,407.381 400.456,405.444 407.559,406.089 402.716,408.026 295.92,408.672 "/>
  <path fill="#785C41" d="M402.393 417.712c-9.04054,-0.214866 -17.6505,0.000566929 -25.8293,0.645733 3.33525,6.35131 23.9981,7.96621 25.8293,-0.645733z"/>
  <path fill="#785C41" d="M410.465 417.39l1.9372 5.48873c0.538016,1.82948 5.59616,0.430299 5.48873,-1.29147l-1.9372 -4.19726 -5.48873 0z"/>
  <path fill="#0057F0" d="M261.709 106.146c6.23906,0.00226772 16.5691,0.434268 24.5378,1.29147 8.39452,-11.7845 13.6908,-25.3369 12.9144,-34.708 -0.860599,-10.3844 -15.2821,-12.3766 -25.829,-14.3677 -4.08983,16.3587 -6.88791,32.7172 -11.6232,47.7842z"/>
  <path fill="#000066" d="M264.228 106.167c-0.894898,-0.0136063 -1.73877,-0.0206929 -2.51858,-0.0209764 4.73528,-15.067 7.53336,-31.4255 11.6232,-47.7842l0.236693 10.0089 -9.3413 37.7963z"/>
  <path fill="#BF9F4F" d="M52.083 306.324l45.2013 0.645733c11.1926,3.3361 12.6992,22.4929 -4.19726,21.632l-9.36256 0.399402c-1.4641,24.8389 -3.37295,48.7616 -7.42536,70.1493 -4.80813,-6.05736 -7.24763,-15.0744 -8.61052,-25.4367l3.39421 -1.44595 -0.391181 -5.71522 2.88907 -0.328819 0.407622 -2.13421 -7.58722 -3.21619c-1.86803,-10.349 -3.09033,-21.0206 -4.6355,-31.6922l-8.06826 -0.256536c-15.0673,1.82948 -18.1882,-21.2017 -1.61433,-22.6006z"/>
  <path fill="white" d="M73.5806 366.223l-2.88907 0.0144567 0.391181 6.02958 -3.39421 1.44595c1.3629,10.3623 3.8024,19.3793 8.61052,25.4367 0.253134,-1.33654 0.498047,-2.68356 0.735024,-4.03966 -4.44274,-6.13418 -5.01109,-14.2053 -6.54775,-21.3078l2.58293 -0.968599 0.51137 -6.61068zm-11.5291 -35.0419c1.41449,10.0035 2.59824,19.9894 4.34948,29.6915l4.43792 1.88107 -6.16422 -31.5697 -2.62318 -0.00283465zm41.0959 -20.1268c-1.43008,-1.8686 -3.4149,-3.35566 -5.86318,-4.08529l-45.2013 -0.645733c-12.9481,1.09276 -13.8756,15.389 -6.47745,20.719 -4.6766,-9.49012 -3.91692,-17.473 9.38325,-19.4275l40.3583 0.645733c3.13966,-0.149669 5.52388,1.2138 7.80038,2.79383z"/>
  <path fill="#E5E5E5" d="M96.6385 313.427l-40.0354 -0.645733c-5.07033,0.312378 -5.60325,4.40589 -5.48873,9.04026l0 3.55153 -2.9058 -0.322866c-5.05814,-7.21078 -5.27329,-11.5158 5.16586,-14.8519l43.587 0.645733 -0.322866 2.58293z"/>
  <path fill="#644D36" d="M78.2351 336.996l-0.968599 43.2641 2.9058 -36.4839 0.968599 -13.5604c-16.0359,-0.107433 -17.0045,1.72233 -2.9058,6.78019z"/>
  <path fill="#A88C46" d="M57.8945 322.79l0 2.26006 6.13446 2.9058 34.2238 -3.22866 1.9372 -9.04026 -5.48873 1.29147c-11.3003,5.16586 -24.5378,4.52013 -36.8068,5.81159z"/>
  <path fill="#644D36" d="M64.3519 325.696l-0.645733 1.9372 30.3494 -1.29147c9.25541,-2.15235 8.82482,-8.50196 8.39452,-13.2375l-5.81159 1.61433c-0.000283465,5.48873 -2.5835,8.82539 -7.74879,10.0089l-24.5378 0.968599z"/>
  <rect fill="#E5E5E5" x="69.5177" y="338.287" width="4.52013" height="0.968599"/>
  <rect fill="#E5E5E5" x="69.8406" y="341.516" width="4.52013" height="0.968599"/>
  <rect fill="#E5E5E5" x="70.1635" y="345.713" width="4.52013" height="0.968599"/>
  <rect fill="#E5E5E5" x="70.8092" y="350.233" width="4.52013" height="0.968599"/>
  <rect fill="#E5E5E5" x="71.7778" y="355.399" width="4.52013" height="0.968599"/>
  <rect fill="#E5E5E5" x="68.872" y="336.027" width="4.52013" height="0.968599"/>
  <path fill="#CCCCCC" d="M64.029 52.5507c-8.07166,3.65925 -10.0089,11.5158 0,18.7262 19.7799,20.2246 31.2171,41.5004 39.149,69.16 1.94088,6.66 2.37005,13.3194 2.58265,19.9789 1.66847,2.78221 1.82523,7.07641 1.7657,11.5869 1.17893,4.84214 1.49698,10.1143 0.954426,15.817 1.70079,2.11408 1.10693,5.37477 0.971717,8.40643 0.758552,3.44835 0.0048189,6.89556 -0.965197,10.3431 1.68038,3.65216 1.53128,6.87345 -1.09304,9.66416 -0.133228,3.23943 -0.589323,6.47887 -0.722552,9.7183 -0.362551,2.79581 -0.725103,5.59134 -1.08737,8.38687 -0.147118,2.48457 -0.293953,4.96914 -0.440788,7.45342 0.337323,3.53197 0.35263,6.41792 -1.89241,9.94904 -0.939402,5.30164 -1.12337,7.37263 -2.75103,9.05698 0.634961,3.86958 0.629008,7.09881 -1.31471,8.39141 0.986741,6.23084 -0.0705827,9.87818 -2.52737,10.9423 0.798804,3.35764 0.306142,6.28413 -1.47798,8.78004 -0.253701,6.4372 -1.36772,10.7209 -3.3429,12.8523l0.272693 5.18825 -33.2467 -0.628725c-2.07751,-1.26369 -3.29414,-3.38882 -3.64989,-6.37455 -1.46523,-2.18268 -2.71474,-4.47392 -2.45225,-7.52202 -1.42951,-1.53468 -1.99871,-3.07021 -1.70702,-4.60545 -1.5446,-1.70589 -2.22832,-4.27323 -2.05115,-7.70145 -2.46756,-1.61575 -3.21421,-4.52325 -2.2388,-8.72249 -2.18665,-1.28296 -3.35254,-5.0967 -3.17254,-12.4087 -1.53326,-1.73906 -3.3361,-6.8692 -3.14816,-13.775 -1.5565,-1.05506 -1.60073,-4.37953 -1.42895,-8.028 -2.03499,-3.12151 -1.80142,-7.00044 -1.24384,-10.9868 -2.02195,0.54737 -1.77506,-4.20038 -1.20444,-9.70385 -1.85499,-1.04117 -1.7674,-4.4572 -1.0338,-8.95068 -1.74614,-1.2189 -1.77109,-5.02101 -0.0742678,-11.4063 -2.60901,-3.27458 -1.66564,-8.32649 0.89178,-14.1857 -1.43291,-1.36998 -2.32611,-3.28082 0.562111,-8.97308 -0.204095,-3.21647 0.129543,-6.97181 1.64693,-11.9115 -0.660473,-2.36721 -0.0297638,-5.59644 1.89213,-9.68656 -0.363685,-2.4891 -0.40337,-5.19506 1.82523,-9.41358 -0.519874,-2.81934 0.0096378,-5.98904 2.07213,-9.66983 -0.0362835,-3.87269 1.21861,-7.31537 3.76441,-10.3272 -0.0138898,-5.28407 1.48422,-7.54356 3.19862,-9.37049 -0.822331,-4.30271 0.506268,-8.28369 3.98721,-10.0052 -0.984756,-1.93947 -0.248315,-3.66435 2.20989,-6.46271 0.470268,-4.09153 1.26454,-7.96706 4.32794,-10.3309l0.901134 -4.83874c-19.8593,-17.2794 -15.3374,-31.3778 1.61433,-34.8696l12.2689 1.29147c6.34961,1.72205 20.1251,9.90142 30.6723,7.10306l3.22866 2.26006 0 3.8744c-11.8386,6.67276 -21.7398,-4.08955 -32.6095,-6.13446l-13.8833 -1.9372z"/>
  <path fill="#B2B2B2" d="M64.029 52.5507c-8.07166,3.65925 -10.0089,11.5158 0,18.7262 8.65361,8.84807 19.8771,16.3902 21.5756,27.595 4.4144,29.1215 8.14479,82.6691 2.71758,127.667 -4.10003,33.9934 -6.12737,78.0081 -11.2158,79.7851l-18.2432 0c-2.07751,-1.26369 -3.29414,-3.38882 -3.64989,-6.37455 -1.46523,-2.18268 -2.71474,-4.47392 -2.45225,-7.52202 -1.42951,-1.53468 -1.99871,-3.07021 -1.70702,-4.60545 -1.5446,-1.70589 -2.22832,-4.27323 -2.05115,-7.70145 -2.46756,-1.61575 -3.21421,-4.52325 -2.2388,-8.72249 -2.18665,-1.28296 -3.35254,-5.0967 -3.17254,-12.4087 -1.53326,-1.73906 -3.3361,-6.8692 -3.14816,-13.775 -1.5565,-1.05506 -1.60073,-4.37953 -1.42895,-8.028 -2.03499,-3.12151 -1.80142,-7.00044 -1.24384,-10.9868 -2.02195,0.54737 -1.77506,-4.20038 -1.20444,-9.70385 -1.85499,-1.04117 -1.7674,-4.4572 -1.0338,-8.95068 -1.74614,-1.2189 -1.77109,-5.02101 -0.0742678,-11.4063 -2.60901,-3.27458 -1.66564,-8.32649 0.89178,-14.1857 -1.43291,-1.36998 -2.32611,-3.28082 0.562111,-8.97308 -0.204095,-3.21647 0.129543,-6.97181 1.64693,-11.9115 -0.660473,-2.36721 -0.0297638,-5.59644 1.89213,-9.68656 -0.363685,-2.4891 -0.40337,-5.19506 1.82523,-9.41358 -0.519874,-2.81934 0.0096378,-5.98904 2.07213,-9.66983 -0.0362835,-3.87269 1.21861,-7.31537 3.76441,-10.3272 -0.0138898,-5.28407 1.48422,-7.54356 3.19862,-9.37049 -0.822331,-4.30271 0.506268,-8.28369 3.98721,-10.0052 -0.984756,-1.93947 -0.248315,-3.66435 2.20989,-6.46271 0.470268,-4.09153 1.26454,-7.96706 4.32794,-10.3309l0.901134 -4.83874c-19.8593,-17.2794 -15.3374,-31.3778 1.61433,-34.8696l12.2689 1.29147c6.34961,1.72205 20.1251,9.90142 30.6723,7.10306l3.22866 2.26006 0 3.8744c-11.8386,6.67276 -21.7398,-4.08955 -32.6095,-6.13446l-13.8833 -1.9372z"/>
  <path fill="#BF9F4F" d="M81.7867 92.5861c-5.27329,-8.82482 -12.4841,-14.4213 -18.7262,-21.632 2.15263,-17.0042 0.107717,-44.3401 7.42593,-51.9815 6.99563,14.8519 7.53364,49.0757 11.3003,73.6135z"/>
  <path fill="#E5E5E5" d="M71.7248 21.9773c-0.389197,-1.07263 -0.801355,-2.07666 -1.23846,-3.00473 -7.31821,7.64136 -5.27329,34.9773 -7.42593,51.9815l1.46891 1.6971c2.39868,-16.8911 1.24554,-44.7599 7.19547,-50.6739z"/>
  <polygon fill="#A88C46" points="71.7778,31.8872 76.6208,80.9629 78.8809,85.483 74.0379,38.3446 "/>
  <rect fill="#E5E5E5" x="68.2263" y="38.9903" width="2.9058" height="0.968599"/>
  <rect fill="#E5E5E5" x="68.2263" y="42.5903" width="2.9058" height="0.968599"/>
  <rect fill="#E5E5E5" x="68.2263" y="46.1903" width="2.9058" height="0.968599"/>
  <rect fill="#E5E5E5" x="68.2263" y="49.7903" width="2.9058" height="0.968599"/>
  <rect fill="#E5E5E5" x="68.2263" y="53.3903" width="2.9058" height="0.968599"/>
  <rect fill="#E5E5E5" x="68.2263" y="56.9903" width="2.9058" height="0.968599"/>
  <rect fill="#E5E5E5" x="68.2263" y="60.5903" width="2.9058" height="0.968599"/>
  <rect fill="#E5E5E5" x="68.2263" y="64.1903" width="2.9058" height="0.968599"/>
  <rect fill="#E5E5E5" x="68.2263" y="67.7903" width="2.9058" height="0.968599"/>
  <rect fill="#E5E5E5" x="68.2263" y="71.3903" width="2.9058" height="0.968599"/>
  <rect fill="#E5E5E5" x="68.2263" y="35.3903" width="2.9058" height="0.968599"/>
  <path fill="white" d="M64.2399 48.3319l0.111969 -2.23852c-16.9518,3.49172 -21.4736,17.5901 -1.61433,34.8696l-0.901134 4.83874c-3.0634,2.36381 -3.85767,6.23934 -4.32794,10.3309 -2.45821,2.79836 -3.19465,4.52325 -2.20989,6.46271 -3.48095,1.72148 -4.80955,5.70246 -3.98721,10.0052 -1.71439,1.82693 -3.21251,4.08643 -3.19862,9.37049 -2.5458,3.01181 -3.80069,6.45449 -3.76441,10.3272 -2.06249,3.68079 -2.592,6.85049 -2.07213,9.66983 -2.2286,4.21852 -2.18891,6.92448 -1.82523,9.41358 -1.92189,4.09011 -2.5526,7.31934 -1.89213,9.68656 -1.51739,4.93966 -1.85102,8.695 -1.64693,11.9115 -2.88822,5.69225 -1.99502,7.60309 -0.562111,8.97308 -2.55742,5.85922 -3.50079,10.9111 -0.89178,14.1857 -1.69682,6.38533 -1.67187,10.1874 0.0742678,11.4063 -0.733607,4.49348 -0.821197,7.90952 1.0338,8.95068 -0.570614,5.50347 -0.817512,10.2512 1.20444,9.70385 -0.557575,3.98636 -0.79115,7.8653 1.24384,10.9868 -0.17178,3.64847 -0.127559,6.97295 1.42895,8.028 -0.187937,6.90577 1.6149,12.0359 3.14816,13.775 -0.18,7.31197 0.98589,11.1257 3.17254,12.4087 -0.975402,4.19925 -0.228756,7.10674 2.2388,8.72249 -0.177165,3.42822 0.506551,5.99556 2.05115,7.70145 -0.291685,1.53524 0.277512,3.07077 1.70702,4.60545 -0.262488,3.0481 0.987024,5.33934 2.45225,7.52202 0.355748,2.98573 1.57238,5.11087 3.64989,6.37455l2.26006 0c-13.318,-30.8478 -21.6116,-71.3075 -22.7594,-115.016 0.415559,-5.23928 0.939402,-10.5868 2.21896,-16.6913 0.69789,-6.62939 1.28551,-13.2041 3.73947,-20.7122 -0.0294803,-3.33921 -0.380126,-6.67843 2.18268,-10.0182 -1.46381,-3.4852 1.31754,-8.31345 3.18331,-13.1961 0.0473386,-6.02929 1.38558,-11.4129 4.01499,-14.8592 0.721134,-7.32161 1.87399,-13.5655 6.05169,-17.4308 0.330803,-4.53005 1.19962,-9.3807 3.25928,-8.72561l1.9834 -6.45109c7.10306,6.99563 12.2689,14.3138 19.372,24.215 -13.6888,-24.6682 -25.511,-30.8954 -30.5048,-39.6414 -4.62671,-8.10284 -3.65159,-16.3089 10.3751,-19.4647z"/>
  <path fill="white" d="M92.1184 130.361c-12.7123,-19.9392 -26.7922,-36.5063 -30.0266,-41.6498 9.17462,5.5423 20.4208,20.8247 30.0266,41.6498z"/>
  <path fill="white" d="M89.5354 144.568c-10.7751,-19.6163 -28.4066,-42.3179 -31.6409,-47.4613 9.17462,5.5423 23.3266,26.3135 31.6409,47.4613z"/>
  <path fill="white" d="M88.5668 156.514c-10.7751,-19.6163 -30.0209,-44.2551 -34.2238,-49.0757 9.82035,4.89657 25.9095,27.9278 34.2238,49.0757z"/>
  <path fill="white" d="M88.5668 172.334c-10.7751,-19.6163 -33.5724,-46.5151 -37.7754,-51.3357 9.82035,4.89657 29.4611,30.1879 37.7754,51.3357z"/>
  <path fill="white" d="M85.3382 182.343c-14.9723,-19.9392 -34.2182,-46.1923 -39.7126,-51.6586 9.82035,4.89657 26.8781,29.5421 39.7126,51.6586z"/>
  <path fill="white" d="M84.0467 200.746c-13.6809,-19.2935 -33.2496,-51.3581 -40.6812,-57.4702 10.4661,4.89657 29.1382,35.0309 40.6812,57.4702z"/>
  <path fill="white" d="M85.0153 223.024c-11.7437,-18.3249 -36.8011,-59.7527 -45.2013,-65.8647 11.4347,3.6051 38.1784,47.9455 45.2013,65.8647z"/>
  <path fill="white" d="M79.2037 231.096c-13.6809,-19.2935 -33.5724,-51.681 -41.004,-57.7931 10.789,1.02217 29.4611,35.3537 41.004,57.7931z"/>
  <path fill="white" d="M83.0781 259.185c-11.7437,-18.3249 -37.7697,-64.9185 -46.1699,-71.0306 11.4347,3.6051 39.147,53.1114 46.1699,71.0306z"/>
  <path fill="white" d="M81.4638 271.777c-13.6809,-19.2935 -35.5096,-56.2011 -42.9412,-62.3132 10.4661,4.89657 31.3983,39.8738 42.9412,62.3132z"/>
  <path fill="white" d="M80.4952 285.983c-13.6809,-19.2935 -33.2496,-47.1609 -40.6812,-53.2729 9.49749,1.66791 29.1382,33.0937 40.6812,53.2729z"/>
  <path fill="white" d="M77.5894 299.866c-7.5464,-13.4819 -26.1465,-36.8292 -33.5781,-42.9412 9.49749,1.66791 25.5867,25.9906 33.5781,42.9412z"/>
  <path fill="white" d="M73.3921 306.646c-4.19301,-5.47059 -16.573,-24.6796 -25.5064,-31.6409 11.4347,5.86517 20.4208,20.5019 25.5064,31.6409z"/>
  <path fill="white" d="M56.2802 293.732c3.76668,3.01295 7.53307,7.31792 11.3003,12.9147l-2.26006 -0.322866c-2.4755,-4.09011 -5.38129,-6.88819 -8.71739,-8.39452l-0.322866 -4.19726z"/>
  <path fill="#7F7F7F" d="M103.419 142.63l-21.3092 -37.1296c10.4686,11.2496 18.595,25.8874 21.3092,37.1296z"/>
  <path fill="#7F7F7F" d="M97.2842 139.725l-6.65774 -10.4074 1.77421 0.0771024 -3.51099 -7.42734c6.18889,7.80293 9.95556,14.26 8.39452,17.7576z"/>
  <path fill="#7F7F7F" d="M105.356 159.419c-3.8744,-8.28709 -9.04026,-15.9282 -13.5604,-23.8921 3.55153,-0.430583 14.8519,18.8337 13.5604,23.8921z"/>
  <path fill="#7F7F7F" d="M106.647 177.823c-3.8744,-8.28709 -10.9775,-21.094 -15.4976,-29.058 3.55153,-0.430583 16.789,23.9995 15.4976,29.058z"/>
  <path fill="#7F7F7F" d="M107.293 211.401c-3.8744,-8.28709 -10.9775,-21.094 -15.4976,-29.058 3.55153,-0.430583 16.789,23.9995 15.4976,29.058z"/>
  <path fill="#7F7F7F" d="M103.742 223.67c-3.8744,-8.28709 -10.9775,-21.094 -15.4976,-29.058 3.55153,-0.430583 16.789,23.9995 15.4976,29.058z"/>
  <path fill="#7F7F7F" d="M103.742 239.49c-3.8744,-8.28709 -10.0089,-18.5111 -14.529,-26.475 3.55153,-0.430583 15.8204,21.4166 14.529,26.475z"/>
  <path fill="#7F7F7F" d="M100.19 249.176c-3.8744,-8.28709 -10.0089,-18.5111 -14.529,-26.475 3.55153,-0.430583 15.8204,21.4166 14.529,26.475z"/>
  <path fill="#7F7F7F" d="M96.3156 262.414c-3.8744,-8.28709 -10.0089,-18.5111 -14.529,-26.475 3.55153,-0.430583 15.8204,21.4166 14.529,26.475z"/>
  <path fill="#7F7F7F" d="M92.7641 268.871c-3.8744,-8.28709 -10.0089,-18.5111 -14.529,-26.475 3.55153,-0.430583 15.8204,21.4166 14.529,26.475z"/>
  <path fill="#7F7F7F" d="M89.2126 283.723c-3.8744,-8.28709 -10.0089,-18.5111 -14.529,-26.475 3.55153,-0.430583 15.8204,21.4166 14.529,26.475z"/>
  <path fill="#7F7F7F" d="M84.3696 290.18c-3.8744,-8.28709 -10.0089,-18.5111 -14.529,-26.475 3.55153,-0.430583 15.8204,21.4166 14.529,26.475z"/>
  <path fill="#7F7F7F" d="M85.0153 307.292c-3.8744,-8.28709 -10.0089,-18.5111 -14.529,-26.475 3.55153,-0.430583 15.8204,21.4166 14.529,26.475z"/>
  <path fill="#7F7F7F" d="M77.2665 306.646c-2.70284,-7.27796 -6.5503,-11.5563 -11.9461,-16.789 5.0984,-0.565229 13.4856,12.443 11.9461,16.789z"/>
  <path fill="#7F7F7F" d="M100.513 158.451l-7.74879 -16.789c4.73528,3.44353 7.31821,9.03969 7.74879,16.789z"/>
  <path fill="#7F7F7F" d="M102.773 195.903l-7.74879 -16.789c4.73528,3.44353 7.31821,9.03969 7.74879,16.789z"/>
  <path fill="#7F7F7F" d="M106.647 192.998c-4.19726,-8.28709 -10.0089,-18.834 -13.5604,-28.4122 5.48873,1.18375 12.2689,20.7709 13.5604,28.4122z"/>
  <path fill="#7F7F7F" d="M101.804 211.401l-7.74879 -16.789c4.73528,3.44353 7.31821,9.03969 7.74879,16.789z"/>
  <path fill="#7F7F7F" d="M100.513 226.253l-7.74879 -16.789c4.73528,3.44353 7.31821,9.03969 7.74879,16.789z"/>
  <path fill="#7F7F7F" d="M99.5443 240.782l-5.48873 -13.8833c4.73528,3.44353 5.05814,6.13389 5.48873,13.8833z"/>
  <path fill="#7F7F7F" d="M97.6071 255.634l-5.48873 -11.3003c5.16558,2.15206 5.48844,2.25921 5.48873,11.3003z"/>
  <path fill="#7F7F7F" d="M96.3156 270.808l-5.48873 -11.6232c5.38356,2.79525 6.13814,2.79298 5.48873,11.6232z"/>
  <path fill="#7F7F7F" d="M94.3784 279.203l-6.78019 -13.5604c5.05899,3.11925 6.88933,5.27074 6.78019,13.5604z"/>
  <path fill="#7F7F7F" d="M91.4726 280.817l-5.81159 -11.9461c5.33906,2.23569 5.65512,3.64762 5.81159,11.9461z"/>
  <path fill="#7F7F7F" d="M87.2754 304.386l-3.8744 -8.07166c5.16558,3.44353 3.87383,0.322016 3.8744,8.07166z"/>
  <path fill="#7F7F7F" d="M88.8897 298.575l-3.8744 -8.07166c5.16558,3.44353 3.87383,0.322016 3.8744,8.07166z"/>
  <path fill="#7F7F7F" d="M89.2126 294.7l-4.52013 -9.68599c5.16558,3.44353 4.1967,1.61348 4.52013,9.68599z"/>
  <path fill="#7F7F7F" d="M91.1498 291.149l-5.48873 -10.0089c5.16558,3.44353 5.48816,2.25921 5.48873,10.0089z"/>
  <path fill="white" stroke="white" stroke-width="0.216" d="M76.987 49.4l-0.366236 -2.01515c6.34961,1.72205 20.1251,9.90142 30.6723,7.10306l0.505985 3.20457c-13.9283,0.560977 -20.5416,-5.52813 -30.812,-8.29248z"/>
  <path fill="#BF9F4F" d="M412.083 306.324l43.2493 -0.418961c12.3015,0.452693 14.4292,17.805 -1.71298,20.2125l-9.8949 1.28665c-0.717449,8.86252 -1.08,17.9277 -1.63559,26.898l-9.89689 12.3355 2.74536 3.66208 6.47774 -6.67531c-1.08539,12.7208 -2.96107,25.0333 -7.24536,36.0584 -8.30495,-11.7006 -7.87465,-53.068 -10.6296,-72.0987l-10.9074 -0.611433c-16.96,1.1194 -19.0162,-19.9602 -0.549638,-20.6487z"/>
  <path fill="white" d="M441.202 366.004c0.0742678,-0.791717 0.145701,-1.58513 0.213449,-2.37997l-6.47774 6.67531 2.44857 -0.286866 3.81572 -4.00847zm-5.95729 30.742c-0.340441,0.988441 -0.698174,1.96753 -1.07461,2.93641 -8.17512,-11.5177 -7.8857,-51.7828 -10.5029,-71.1905l1.47515 0.529796c3.36728,22.5746 3.54076,57.9257 10.1024,67.7243zm25.0781 -89.5131c-1.39436,-0.774142 -3.06822,-1.25773 -4.99011,-1.32832l-43.2493 0.418961c-17.0238,0.634677 -16.6059,18.5987 -3.14958,20.5248 -12.5048,-9.52328 -9.55673,-15.3944 3.96454,-18.7656 15.808,-0.460914 32.326,-1.63134 47.4245,-0.849827z"/>
  <path fill="white" d="M448.831 310.233l-30.0983 1.30621c-5.07033,0.312378 -7.73263,5.64803 -7.61811,10.2824l0.177449 -1.59449 -2.5509 0.0320315c-4.82145,-6.50098 -4.32652,-6.72492 6.58545,-10.0607l35.7792 -2.016 -2.2748 2.05058z"/>
  <path fill="#644D36" d="M437.526 331.495l0.273543 21.4379 1.95704 -3.70715 0.41641 -5.44961 0.968599 -15.3349c-12.8449,-4.18904 -22.0371,0.126709 -3.61559,3.05377z"/>
  <path fill="#644D36" d="M417.964 321.969l0.951308 2.2921 35.318 -0.759118c9.25541,-2.15235 7.05033,-6.72747 6.62003,-11.463 -2.4103,-1.59109 -4.34778,-1.05279 -5.81159,1.61433 -0.000283465,5.48873 3.44977,4.92151 -5.08706,7.87947l-31.9907 0.436252z"/>
  <path fill="#A88C46" d="M435.966 371.432l1.95194 -0.709796c-0.354898,8.08867 -1.3612,13.737 -2.66173,17.5674 -0.650552,-4.37726 0.473386,-11.2385 0.709796,-16.8576z"/>
  <rect fill="#E5E5E5" x="427.804" y="332.038" width="3.01663" height="0.532347"/>
  <rect fill="#E5E5E5" x="427.804" y="339.238" width="3.01663" height="0.532347"/>
  <rect fill="#E5E5E5" x="427.804" y="346.438" width="3.01663" height="0.532347"/>
  <rect fill="#E5E5E5" x="428.514" y="350.038" width="2.30684" height="0.532347"/>
  <rect fill="#E5E5E5" x="427.804" y="342.838" width="3.01663" height="0.532347"/>
  <rect fill="#E5E5E5" x="428.691" y="353.638" width="2.12939" height="0.532347"/>
  <rect fill="#E5E5E5" x="428.868" y="356.3" width="2.12939" height="0.532347"/>
  <rect fill="#E5E5E5" x="429.223" y="358.607" width="2.12939" height="0.532347"/>
  <rect fill="#E5E5E5" x="431.175" y="379.191" width="2.12939" height="0.532347"/>
  <rect fill="#E5E5E5" x="431.353" y="382.563" width="2.12939" height="0.532347"/>
  <rect fill="#E5E5E5" x="431.53" y="385.757" width="2.12939" height="0.532347"/>
  <path fill="#CCCCCC" d="M438.912 48.9286c8.07166,3.65925 3.56003,12.1615 -1.98425,21.8523 -12.5331,19.9117 -23.1389,30.4393 -30.7395,54.8448 -1.23761,4.49235 -2.30684,8.47163 -1.82325,12.1028 -2.75783,2.8063 -2.4908,5.61232 -1.79206,8.41777 -2.16794,4.32652 -2.06816,8.65248 -1.64438,12.9781 -2.52936,4.07395 -1.71751,6.75411 -0.797103,9.97257 -2.7995,5.38243 -3.11471,7.53279 -1.60016,12.9113 -1.70079,2.11408 -1.10693,8.28057 -0.971717,11.3122 -0.758552,3.44835 -1.94202,9.15563 -0.972,12.6031 -1.68038,3.65216 -1.53128,10.425 1.09304,13.2157 -2.01912,3.23972 -1.24016,10.0307 1.04542,13.2698 -1.52107,7.69408 -0.0819213,16.9472 2.7017,15.1671 0.166677,-0.951591 -1.34249,9.67777 2.52454,17.0932 -0.986741,6.23084 0.0705827,10.5239 2.52737,11.588 -0.798804,4.00592 1.30876,9.30246 3.09232,10.7172 0.253701,6.4372 1.36772,7.16939 3.3429,9.30076 0.230457,4.21002 2.07496,7.56029 4.88466,10.0483l31.9638 -0.339874c2.07751,-1.26369 0.388347,-2.40321 0.744095,-5.38895 1.46523,-2.18268 5.39462,-9.31692 5.13213,-12.365 4.13008,-4.43395 3.35254,-3.78595 3.11244,-8.43251 2.46756,-1.61575 2.89134,-5.16898 1.91594,-9.36823 5.31978,-1.78696 4.2001,-14.2693 4.06063,-19.4034 1.24611,-0.988441 2.98517,-11.3117 1.70419,-14.8176 2.02195,0.54737 2.42079,-7.42904 1.85017,-12.9325 2.55714,-7.32303 0.933733,-12.2278 1.10806,-15.8369 2.60901,-3.27458 1.34277,-13.4924 -0.246047,-19.3516 0.787181,-0.724252 1.03465,-8.12382 -1.53071,-11.556 0.204095,-3.21647 0.516189,-2.45169 -1.0012,-7.39134 0.660473,-2.36721 0.0297638,-8.82511 -2.53786,-13.2381 0.363685,-2.4891 0.726237,-4.22646 -1.50236,-8.44498 0.519874,-2.81934 -0.332504,-7.92624 -3.04073,-10.9613 0.0362835,-3.87269 0.395717,-7.31537 -2.15008,-10.3272 0.0138898,-5.28407 -0.838489,-5.92923 -2.55288,-7.75616 0.136913,-7.94977 -5.97062,-16.1515 -9.84558,-24.5395 0.175465,-2.15433 0.672662,-5.707 -2.39074,-8.07081l-0.901134 -4.83874c13.9371,-23.2007 11.0356,-38.6552 -3.59858,-39.8302l-10.7807 1.78753c-16.922,1.79915 -17.9776,20.2887 -36.4754,17.4969l-2.9058 1.9372 -0.968599 3.22866c19.7756,8.16095 27.1965,-14.5069 39.0583,-16.5518l12.8911 -0.102614z"/>
  <path fill="#BF9F4F" d="M423.706 90.6489c5.96013,-7.73519 10.2254,-15.2558 14.5296,-21.9637 -1.02359,-17.9719 0.698457,-39.8115 -6.61975,-47.4528 -6.98259,19.2444 -6.41736,50.9196 -7.9098,69.4165z"/>
  <rect fill="#E5E5E5" x="431.936" y="39.687" width="2.9058" height="0.968599"/>
  <polygon fill="#A88C46" points="433.391,41.726 433.879,71.4467 435.333,69.6765 434.199,38.6671 "/>
  <rect fill="#E5E5E5" x="431.936" y="32.3773" width="2.9058" height="0.968599"/>
  <rect fill="#E5E5E5" x="432.097" y="34.8999" width="2.9058" height="0.968599"/>
  <rect fill="#E5E5E5" x="431.614" y="43.8225" width="1.77619" height="0.968599"/>
  <rect fill="#E5E5E5" x="430.646" y="46.7773" width="2.9058" height="0.968599"/>
  <rect fill="#E5E5E5" x="430.646" y="50.3773" width="2.9058" height="0.968599"/>
  <rect fill="#E5E5E5" x="430.969" y="52.8483" width="2.26006" height="0.968599"/>
  <rect fill="#E5E5E5" x="430.646" y="58.3838" width="1.93748" height="0.968599"/>
  <rect fill="#E5E5E5" x="428.872" y="66.4645" width="2.09877" height="0.358866"/>
  <rect fill="#E5E5E5" x="428.872" y="70.0129" width="2.26006" height="0.410457"/>
  <rect fill="#E5E5E5" x="431.936" y="29.2612" width="2.9058" height="0.968599"/>
  <rect fill="#E5E5E5" x="430.485" y="56.3967" width="2.26006" height="0.968599"/>
  <rect fill="#E5E5E5" x="430.001" y="61.7193" width="2.26006" height="0.968599"/>
  <path fill="white" d="M423.706 90.6489c0.823748,-1.37877 1.59279,-2.69462 2.32725,-3.96085 0.228189,-23.2501 1.27162,-45.7591 6.24246,-64.6991 -0.211465,-0.265323 -0.431433,-0.51789 -0.659906,-0.756567 -6.98259,19.2444 -6.41736,50.9196 -7.9098,69.4165z"/>
  <path fill="white" d="M434.814 74.17c0.688819,-1.09134 1.39295,-2.2201 2.11295,-3.3891 4.50454,-7.87352 8.32734,-14.9627 5.27358,-19.3071 5.05899,5.57745 0.415559,15.626 -7.38652,22.6962zm-8.8767 13.4807c-8.68706,12.7967 -14.4329,20.8536 -19.7498,37.9749 -1.23761,4.49235 -2.30684,8.47163 -1.82325,12.1028 -2.75783,2.8063 -2.4908,5.61232 -1.79206,8.41777 -2.16794,4.32652 -2.06816,8.65248 -1.64438,12.9781 -2.52936,4.07395 -1.71751,6.75411 -0.797103,9.97257 -2.7995,5.38243 -3.11471,7.53279 -1.60016,12.9113 -1.70079,2.11408 -1.10693,8.28057 -0.971717,11.3122 -0.758552,3.44835 -1.94202,9.15563 -0.972,12.6031 -1.68038,3.65216 -1.53128,10.425 1.09304,13.2157 -2.01912,3.23972 -1.24016,10.0307 1.04542,13.2698 -1.52107,7.69408 -0.0819213,16.9472 2.7017,15.1671 0.166677,-0.951591 -1.34249,9.67777 2.52454,17.0932 -0.986741,6.23084 0.0705827,10.5239 2.52737,11.588 -0.798804,4.00592 1.30876,9.30246 3.09232,10.7172 0.253701,6.4372 1.36772,7.16939 3.3429,9.30076 0.230457,4.21002 2.07496,7.56029 4.88466,10.0483l2.68158 -0.0810709c-1.51143,-3.30888 -2.80715,-6.61777 -2.5903,-9.92778 -2.47521,-2.04463 -3.65868,-4.51984 -3.55153,-7.42593 -3.01351,-3.12095 -4.3047,-7.53307 -3.8744,-13.2375 -2.26006,-2.3675 -2.7978,-6.45676 -1.61433,-12.2689 -2.26517,-1.17354 -4.09748,-3.21137 -2.9058,-11.3003 -3.01323,-4.52013 -3.87383,-10.3317 -2.58293,-17.4348 -1.29515,-1.93351 -2.26602,-4.19046 -0.968599,-8.71739 -2.37373,-4.62699 -2.47862,-9.25512 -2.26006,-13.8833 -0.322583,-7.0492 -0.10715,-13.2914 1.29147,-17.7576 -0.541701,-3.98211 -0.759402,-7.96366 1.29147,-11.9461 -1.29742,-6.78161 -0.326268,-12.8078 0.968599,-18.7262 0.107717,-6.34961 0.753449,-12.1612 2.58293,-16.789 -0.968315,-4.73528 0.646016,-12.4841 4.84299,-23.2464l-0.968599 -2.26006c2.35559,-9.93402 8.26895,-21.1564 15.7961,-33.6705zm12.155 -46.518c7.31707,0.587339 11.7009,4.74492 12.5133,11.6555 -2.44942,-5.17663 -6.62003,-9.0618 -12.5133,-11.6555zm-10.7807 1.78753c-16.922,1.79915 -17.9776,20.2887 -36.4754,17.4969l-2.9058 1.9372c21.7157,1.92983 24.1693,-15.8794 38.6771,-17.5524l0.704126 -1.88164z"/>
  <path fill="white" d="M429.891 96.5676c-14.3887,18.7654 -20.2981,37.0168 -24.0251,41.8153 2.07014,-10.5171 7.74142,-25.6663 24.0251,-41.8153z"/>
  <path fill="white" d="M431.855 104.791c-12.1785,16.1926 -24.5248,40.9161 -29.2572,45.9655 4.52126,-11.5673 15.8111,-32.4547 29.2572,-45.9655z"/>
  <path fill="white" d="M432.111 204.609c-12.5997,21.8489 -26.1405,48.1105 -29.8908,52.1734 1.01282,-7.91802 12.1728,-28.1724 29.8908,-52.1734z"/>
  <path fill="white" d="M433.094 178.212c-18.6021,25.1856 -31.7988,51.6929 -33.3828,54.0236 -0.404221,-8.15783 12.7304,-32.938 33.3828,-54.0236z"/>
  <path fill="white" d="M431.012 117.124c-13.2395,21.2664 -26.3767,45.5321 -30.1181,52.0798 1.24243,-10.9026 13.7248,-32.455 30.1181,-52.0798z"/>
  <path fill="white" d="M431.958 131.738c-13.9635,23.0377 -28.1994,47.7099 -31.0504,54.3322 -0.0291969,-8.70804 12.3766,-31.7152 31.0504,-54.3322z"/>
  <path fill="white" d="M435.449 160.015c-12.3154,19.967 -33.6884,51.3862 -37.3927,58.868 -0.00737008,-8.30353 26.1346,-49.6973 37.3927,-58.868z"/>
  <path fill="white" d="M436.627 143.021c-13.451,19.4545 -33.5305,49.8694 -36.7322,58.9434 -2.72948,-10.4879 19.5939,-40.4218 36.7322,-58.9434z"/>
  <path fill="white" d="M432.434 189.758c-12.5994,21.8489 -28.0775,48.4333 -31.8277,52.4962 1.01282,-7.91802 14.11,-28.4953 31.8277,-52.4962z"/>
  <path fill="white" d="M435.017 218.816c-12.5997,21.8486 -25.8177,45.8501 -29.5679,49.913 1.01282,-7.91802 11.85,-25.9121 29.5679,-49.913z"/>
  <path fill="white" d="M436.631 230.762c-12.5997,21.8486 -25.8177,45.8501 -29.5679,49.913 1.01282,-7.91802 11.85,-25.9121 29.5679,-49.913z"/>
  <path fill="white" d="M440.828 243.031c-13.2455,19.5888 -25.4948,46.8187 -29.2448,50.8816 2.14498,-9.90369 13.9904,-35.0819 29.2448,-50.8816z"/>
  <path fill="white" d="M436.294 279.203c-7.15692,10.0899 -11.0316,17.7851 -16.4662,27.4436 -0.302457,-7.24734 8.25733,-20.8905 16.4662,-27.4436z"/>
  <path fill="white" d="M435.002 267.902c-7.15692,10.0899 -13.2917,20.6909 -18.7262,31.6409 -0.302457,-7.24734 10.5174,-25.0878 18.7262,-31.6409z"/>
  <polygon fill="white" points="439.845,292.828 435.551,298.704 435.325,300.512 437.133,299.834 439.845,294.636 "/>
  <polygon fill="white" points="433.388,293.732 427.254,302.126 426.931,304.709 429.514,303.741 433.388,296.315 "/>
  <path fill="#B2B2B2" d="M441.126 85.5403l-6.59055 7.90867c19.696,68.4131 28.2107,137.504 9.22678,208.262l8.78741 -7.4693c25.6314,-90.1251 -7.46844,-183.894 -11.4236,-208.701z"/>
  <path fill="#E5E5E5" d="M455.639 288.23c4.13008,-4.43395 3.35254,-3.78595 3.11244,-8.43251 2.46756,-1.61575 2.89134,-5.16898 1.91594,-9.36823 5.31978,-1.78696 4.2001,-14.2693 4.06063,-19.4034 1.24611,-0.988441 2.98517,-11.3117 1.70419,-14.8176 2.02195,0.54737 2.42079,-7.42904 1.85017,-12.9325 2.55714,-7.32303 0.933733,-12.2278 1.10806,-15.8369 2.60901,-3.27458 1.34277,-13.4924 -0.246047,-19.3516 0.787181,-0.724252 1.03465,-8.12382 -1.53071,-11.556 0.204095,-3.21647 0.516189,-2.45169 -1.0012,-7.39134 0.660473,-2.36721 0.0297638,-8.82511 -2.53786,-13.2381 0.363685,-2.4891 0.726237,-4.22646 -1.50236,-8.44498 0.519874,-2.81934 -0.332504,-7.92624 -3.04073,-10.9613 0.0362835,-3.87269 0.395717,-7.31537 -2.15008,-10.3272 0.0138898,-5.28407 -0.838489,-5.92923 -2.55288,-7.75616 0.136913,-7.94977 -5.97062,-16.1515 -9.84558,-24.5395 0.175465,-2.15433 0.672662,-5.707 -2.39074,-8.07081l-0.901134 -4.83874c1.79575,29.6779 39.5632,108.214 13.9479,207.267z"/>
  <path fill="#7F7F7F" d="M440.814 302.449c5.70416,-8.39452 12.0538,-15.4976 18.0805,-23.2464 -9.57799,5.91931 -19.4791,17.5422 -18.0805,23.2464z"/>
  <path fill="#7F7F7F" d="M439.523 291.149c5.38129,-9.04026 17.2196,-23.5692 23.8921,-30.3494 -9.25512,4.62784 -25.2907,24.6453 -23.8921,30.3494z"/>
  <path fill="#7F7F7F" d="M441.137 275.328c5.38129,-9.04026 17.2196,-23.5692 23.8921,-30.3494 -4.73499,0.753449 -25.2907,24.6453 -23.8921,30.3494z"/>
  <path fill="#7F7F7F" d="M443.074 258.539c5.38129,-9.04026 18.5111,-25.5064 25.1836,-32.2866 -3.44353,-0.538016 -26.5822,26.5825 -25.1836,32.2866z"/>
  <path fill="#7F7F7F" d="M443.074 225.607c5.38129,-9.04026 19.8026,-26.7979 26.475,-33.5781 -3.44353,-0.538016 -27.8737,27.8739 -26.475,33.5781z"/>
  <path fill="#7F7F7F" d="M444.688 241.105c5.38129,-9.04026 18.5111,-25.5064 25.1836,-32.2866 -3.44353,-0.538016 -26.5822,26.5825 -25.1836,32.2866z"/>
  <path fill="#7F7F7F" d="M439.523 214.307c5.38129,-9.04026 21.4169,-30.3494 28.0894,-37.1296 -3.44353,-1.50661 -29.488,31.4255 -28.0894,37.1296z"/>
  <path fill="#7F7F7F" d="M439.845 200.746c5.38129,-9.04026 20.7712,-28.4122 27.4436,-35.1924 -3.44353,-1.50661 -28.8423,29.4883 -27.4436,35.1924z"/>
  <path fill="#7F7F7F" d="M437.908 186.863c5.38129,-9.04026 19.8026,-27.1208 26.475,-33.901 -3.44353,-1.50661 -27.8737,28.1968 -26.475,33.901z"/>
  <path fill="#7F7F7F" d="M437.908 172.334c5.38129,-9.04026 17.5425,-23.8921 24.215,-30.6723 -3.44353,-1.50661 -25.6136,24.9681 -24.215,30.6723z"/>
  <path fill="#7F7F7F" d="M435.648 157.805c5.38129,-9.04026 16.251,-21.9549 22.9235,-28.7351 -3.44353,-1.50661 -24.3221,23.0309 -22.9235,28.7351z"/>
  <path fill="#7F7F7F" d="M435.971 141.985c5.5321,-8.28341 12.452,-15.6898 19.0491,-24.215 -2.90296,-0.426047 -20.1234,19.1588 -19.0491,24.215z"/>
  <path fill="#7F7F7F" d="M433.065 130.684c5.38129,-9.04026 12.6995,-17.7576 19.372,-24.5378 -3.44325,-0.645449 -20.7703,20.4477 -19.372,24.5378z"/>
  <path fill="#7F7F7F" d="M436.94 113.572c5.38129,-9.04026 3.33638,-5.48873 10.0089,-12.2689 -2.15178,-6.13418 -11.4072,10.4389 -10.0089,12.2689z"/>
  <path fill="#7F7F7F" d="M433.065 102.272c5.38129,-9.04026 2.69065,-4.52013 9.36312,-11.3003 -3.12038,-2.90551 -10.7615,9.47027 -9.36312,11.3003z"/>
  <path fill="#7F7F7F" d="M430.805 94.5233c5.38129,-9.04026 4.95071,-8.07166 11.6232,-14.8519 -3.12038,-2.90551 -13.0215,13.0218 -11.6232,14.8519z"/>
  <path fill="#7F7F7F" d="M438.231 104.209c2.4755,-3.49257 -0.214866,0.0357166 6.13446,-8.07166 -2.79751,-1.93691 -7.53279,6.24161 -6.13446,8.07166z"/>
  <path fill="#7F7F7F" d="M442.694 113.25c1.9114,-2.6966 -0.165827,0.0274961 4.73641,-6.23226 -2.16,-1.49528 -5.81613,4.81918 -4.73641,6.23226z"/>
  <path fill="#7F7F7F" d="M444.688 124.227c2.4755,-3.49257 -0.214866,0.0357166 6.13446,-8.07166 -2.79751,-1.93691 -7.53279,6.24161 -6.13446,8.07166z"/>
  <path fill="#7F7F7F" d="M447.917 146.828c2.4755,-3.49257 0.108,-1.25575 6.45733,-9.36312 -2.79723,-0.316347 -7.85537,8.50536 -6.45733,9.36312z"/>
  <path fill="#7F7F7F" d="M449.854 150.379c2.4755,-3.49257 0.108,-1.25575 6.45733,-9.36312 -2.79751,-1.93691 -7.85566,7.53307 -6.45733,9.36312z"/>
  <path fill="#7F7F7F" d="M446.626 136.496c2.4755,-3.49257 0.108,-1.25575 6.45733,-9.36312 -2.79751,-1.93691 -7.85566,7.53307 -6.45733,9.36312z"/>
  <path fill="#7F7F7F" d="M452.114 162.325c2.4755,-3.49257 0.108,-1.25575 6.45733,-9.36312 -2.79723,-0.316347 -7.85537,8.50536 -6.45733,9.36312z"/>
  <path fill="#7F7F7F" d="M450.245 159.24c2.66542,-3.34999 0.177449,-1.24781 6.967,-8.99037 -2.7754,-0.471118 -8.31544,8.05607 -6.967,8.99037z"/>
  <path fill="#7F7F7F" d="M453.232 172.317c3.08381,-2.96901 0.340441,-1.21351 8.0915,-7.99314 -2.68895,-0.833103 -9.30473,6.88961 -8.0915,7.99314z"/>
  <path fill="#7F7F7F" d="M453.232 176.191c3.08381,-2.96901 0.340441,-1.21351 8.0915,-7.99314 -2.68895,-0.833103 -9.30473,6.88961 -8.0915,7.99314z"/>
  <path fill="#7F7F7F" d="M453.232 187.815c3.08381,-2.96929 1.30876,-2.50526 9.05982,-9.28489 -2.68895,-0.833103 -10.2733,8.18107 -9.05982,9.28489z"/>
  <path fill="#7F7F7F" d="M454.523 196.532c3.08381,-2.96901 0.340441,-1.21351 8.0915,-7.99314 -2.68895,-0.833103 -9.30473,6.88961 -8.0915,7.99314z"/>
  <path fill="#7F7F7F" d="M454.846 201.052c3.08381,-2.96901 0.340441,-1.21351 8.0915,-7.99314 -2.68895,-0.833103 -9.30473,6.88961 -8.0915,7.99314z"/>
  <path fill="#7F7F7F" d="M457.106 210.738c3.08381,-2.96901 0.340441,-1.21351 8.0915,-7.99314 -2.68895,-0.833103 -9.30473,6.88961 -8.0915,7.99314z"/>
  <path fill="#7F7F7F" d="M455.492 216.227c3.08381,-2.96901 0.340441,-1.21351 8.0915,-7.99314 -2.68895,-0.833103 -9.30473,6.88961 -8.0915,7.99314z"/>
  <path fill="#7F7F7F" d="M456.138 233.016c3.08381,-2.96901 0.340441,-1.21351 8.0915,-7.99314 -2.68895,-0.833103 -9.30473,6.88961 -8.0915,7.99314z"/>
  <path fill="#7F7F7F" d="M454.201 253.357c3.08381,-2.96901 1.63191,-5.08791 9.38297,-11.8675 -2.68895,-0.833103 -10.5965,10.764 -9.38297,11.8675z"/>
  <path fill="#7F7F7F" d="M454.201 247.545c3.08381,-2.96901 0.340441,-1.21351 8.0915,-7.99314 -2.68895,-0.833103 -9.30473,6.88961 -8.0915,7.99314z"/>
  <path fill="#7F7F7F" d="M453.555 264.657c3.08381,-2.58718 0.340725,0.437386 8.0915,-7.99314 -2.68895,-0.833103 -9.30473,6.88961 -8.0915,7.99314z"/>
  <path fill="#7F7F7F" d="M451.295 278.54c3.08381,-2.96901 0.340441,-1.21351 8.0915,-7.99314 -2.68895,-0.833103 -9.30473,6.88961 -8.0915,7.99314z"/>
  <path fill="#7F7F7F" d="M445.443 300.455c3.11358,-2.93811 0.35263,-1.21011 8.17144,-7.91178 -2.68073,-0.859748 -9.37361,6.79607 -8.17144,7.91178z"/>
  <polygon fill="#7F7F7F" points="437.262,41.2504 437.585,48.3534 439.006,48.9991 438.748,41.6378 "/>
  <polygon fill="#7F7F7F" points="76.4876,47.448 77.5851,54.2928 79.2641,54.9386 78.2312,48.0938 "/>
 </g>
</svg>
