<?xml version="1.0" encoding="UTF-8"?>
<!DOCTYPE svg PUBLIC "-//W3C//DTD SVG 1.1//EN" "http://www.w3.org/Graphics/SVG/1.1/DTD/svg11.dtd">
<!-- Creator: CorelDRAW -->
<svg xmlns="http://www.w3.org/2000/svg" xml:space="preserve" width="500px" height="551px" shape-rendering="geometricPrecision" text-rendering="geometricPrecision" image-rendering="optimizeQuality" fill-rule="evenodd" clip-rule="evenodd"
viewBox="0 0 500 551"
 xmlns:xlink="http://www.w3.org/1999/xlink"
 xmlns:svg="http://www.w3.org/2000/svg"
 version="1.0">
 <g id="Layer_x0020_1">
  <metadata id="CorelCorpID_0Corel-Layer"/>
  <path id="path1937" fill="black" stroke="black" stroke-width="0.992126" d="M0.775276 4.36422l498.065 -1.27077 -13.8096 345.021c-20.001,110.007 -100.007,195.013 -235.015,200.013 -135.009,-5.00032 -220.014,-90.0063 -235.015,-205.013l-14.2254 -338.75z"/>
  <g id="_47926792">
   <polygon id="_48845088" fill="#B2B2B2" stroke="#B2B2B2" stroke-width="0.992126" points="215.014,283.111 225.014,283.111 215.014,318.113 245.016,318.113 245.016,283.111 252.488,283.111 252.488,318.113 280.018,318.113 270.017,283.111 280.018,283.111 340.022,478.123 150.01,478.123 "/>
   <polygon id="_48921864" fill="#E60000" stroke="red" stroke-width="0.992126" points="250.016,403.119 280.018,478.123 220.014,478.123 "/>
   <polygon id="_61640800" fill="#4C4C4C" stroke="#4C4C4C" stroke-width="0.992126" points="218.937,478.123 214.884,478.123 249.384,397.227 250.016,403.119 "/>
   <polygon id="_48935840" fill="#E5E5E5" stroke="#E5E5E5" stroke-width="0.992126" points="280.018,478.123 284.07,478.123 243.119,378.117 238.938,378.117 "/>
   <polygon id="_46260208" fill="#4C4C4C" stroke="#4C4C4C" stroke-width="0.992126" points="340.022,478.123 280.018,283.111 283.754,283.111 346.229,478.123 "/>
   <polygon id="_48935744" fill="#CCCCCC" stroke="#CCCCCC" stroke-width="0.992126" points="215.014,283.111 150.01,478.123 155.01,478.123 218.356,283.637 "/>
   <polygon id="_47969536" fill="#CCCCCC" stroke="#CCCCCC" stroke-width="0.992126" points="245.704,317.195 245.704,282.806 242.86,282.7 243.14,317.151 "/>
   <polygon id="_61641176" fill="#4C4C4C" stroke="#4C4C4C" stroke-width="0.992126" points="254.554,317.511 278.259,317.151 277.155,313.866 254.87,313.99 254.554,283.122 251.71,283.016 251.989,317.467 "/>
   <polygon id="_47910872" fill="#4C4C4C" stroke="#4C4C4C" stroke-width="0.992126" points="217.891,316.879 242.392,316.95 242.577,314.18 219.053,313.913 227.057,282.805 224.212,282.7 214.694,316.519 "/>
   <polygon id="_48949936" fill="#CCCCCC" stroke="#CCCCCC" stroke-width="0.992126" points="281.736,317.195 272.254,283.121 269.409,283.016 278.539,317.151 "/>
  </g>
  <g id="_47604104">
   <polygon id="_61082696" fill="#B2B2B2" stroke="#B2B2B2" stroke-width="0.992126" points="101.154,46.5367 111.155,46.5367 101.154,81.5389 131.156,81.5389 131.156,46.5367 138.628,46.5367 138.628,81.5389 166.159,81.5389 156.158,46.5367 166.159,46.5367 226.162,241.549 36.1503,241.549 "/>
   <polygon id="_48651176" fill="#E60000" stroke="red" stroke-width="0.992126" points="136.157,166.544 166.159,241.549 106.155,241.549 "/>
   <polygon id="_45526448" fill="#4C4C4C" stroke="#4C4C4C" stroke-width="0.992126" points="105.077,241.549 101.025,241.549 135.524,160.652 136.157,166.544 "/>
   <polygon id="_61641152" fill="#E5E5E5" stroke="#E5E5E5" stroke-width="0.992126" points="166.159,241.549 170.211,241.549 129.26,141.543 125.079,141.543 "/>
   <polygon id="_48900904" fill="#4C4C4C" stroke="#4C4C4C" stroke-width="0.992126" points="226.162,241.549 166.159,46.5367 169.895,46.5367 232.37,241.549 "/>
   <polygon id="_48473624" fill="#CCCCCC" stroke="#CCCCCC" stroke-width="0.992126" points="101.154,46.5367 36.1503,241.549 41.1506,241.549 104.497,47.0628 "/>
   <polygon id="_47935256" fill="#CCCCCC" stroke="#CCCCCC" stroke-width="0.992126" points="131.845,80.621 131.845,46.2314 129.001,46.1257 129.28,80.5765 "/>
   <polygon id="_48887232" fill="#4C4C4C" stroke="#4C4C4C" stroke-width="0.992126" points="140.695,80.9371 164.4,80.5763 163.296,77.292 141.011,77.4156 140.695,46.5475 137.85,46.4417 138.13,80.8926 "/>
   <polygon id="_47908920" fill="#4C4C4C" stroke="#4C4C4C" stroke-width="0.992126" points="104.032,80.3047 128.533,80.3761 128.718,77.6056 105.194,77.3382 113.197,46.2311 110.353,46.1257 100.835,79.9444 "/>
   <polygon id="_47920016" fill="#CCCCCC" stroke="#CCCCCC" stroke-width="0.992126" points="167.876,80.621 158.394,46.5472 155.55,46.4417 164.679,80.5765 "/>
  </g>
  <g id="_61565984">
   <polygon id="_61212904" fill="#B2B2B2" stroke="#B2B2B2" stroke-width="0.992126" points="328.873,47.8018 338.874,47.8018 328.873,82.804 358.875,82.804 358.875,47.8018 366.347,47.8018 366.347,82.804 393.877,82.804 383.876,47.8018 393.877,47.8018 453.881,242.814 263.869,242.814 "/>
   <polygon id="_48886808" fill="#E60000" stroke="red" stroke-width="0.992126" points="363.875,167.809 393.877,242.814 333.873,242.814 "/>
   <polygon id="_47932472" fill="#4C4C4C" stroke="#4C4C4C" stroke-width="0.992126" points="332.796,242.814 328.744,242.814 363.243,161.918 363.875,167.809 "/>
   <polygon id="_48940008" fill="#E5E5E5" stroke="#E5E5E5" stroke-width="0.992126" points="393.877,242.814 397.929,242.814 356.978,142.808 352.797,142.808 "/>
   <polygon id="_45529928" fill="#4C4C4C" stroke="#4C4C4C" stroke-width="0.992126" points="453.881,242.814 393.877,47.8018 397.613,47.8018 460.089,242.814 "/>
   <polygon id="_61082720" fill="#CCCCCC" stroke="#CCCCCC" stroke-width="0.992126" points="328.873,47.8018 263.869,242.814 268.869,242.814 332.215,48.3279 "/>
   <polygon id="_61019104" fill="#CCCCCC" stroke="#CCCCCC" stroke-width="0.992126" points="359.564,81.8862 359.564,47.4965 356.719,47.3908 356.999,81.8416 "/>
   <polygon id="_61555520" fill="#4C4C4C" stroke="#4C4C4C" stroke-width="0.992126" points="368.413,82.2022 392.118,81.8414 391.015,78.5571 368.729,78.6807 368.413,47.8126 365.569,47.7068 365.849,82.1577 "/>
   <polygon id="_61666792" fill="#4C4C4C" stroke="#4C4C4C" stroke-width="0.992126" points="331.75,81.5698 356.252,81.6412 356.436,78.8707 332.913,78.6033 340.916,47.4962 338.071,47.3908 328.553,81.2095 "/>
   <polygon id="_48797072" fill="#CCCCCC" stroke="#CCCCCC" stroke-width="0.992126" points="395.595,81.8862 386.113,47.8123 383.268,47.7068 392.398,81.8416 "/>
  </g>
 </g>
</svg>
