<?xml version="1.0" encoding="UTF-8" standalone="no"?>
<!-- Created with Inkscape (http://www.inkscape.org/) -->
<svg
   xmlns:dc="http://purl.org/dc/elements/1.1/"
   xmlns:cc="http://creativecommons.org/ns#"
   xmlns:rdf="http://www.w3.org/1999/02/22-rdf-syntax-ns#"
   xmlns:svg="http://www.w3.org/2000/svg"
   xmlns="http://www.w3.org/2000/svg"
   xmlns:sodipodi="http://sodipodi.sourceforge.net/DTD/sodipodi-0.dtd"
   xmlns:inkscape="http://www.inkscape.org/namespaces/inkscape"
   version="1.0"
   width="500.00125"
   height="515.58386"
   id="svg1901"
   sodipodi:version="0.32"
   inkscape:version="0.46"
   sodipodi:docname="Punkalaidun.vaakuna.svg"
   inkscape:output_extension="org.inkscape.output.svg.inkscape">
  <metadata
     id="metadata8">
    <rdf:RDF>
      <cc:Work
         rdf:about="">
        <dc:format>image/svg+xml</dc:format>
        <dc:type
           rdf:resource="http://purl.org/dc/dcmitype/StillImage" />
      </cc:Work>
    </rdf:RDF>
  </metadata>
  <sodipodi:namedview
     inkscape:window-height="669"
     inkscape:window-width="640"
     inkscape:pageshadow="2"
     inkscape:pageopacity="0.0"
     guidetolerance="10.0"
     gridtolerance="10.0"
     objecttolerance="10.0"
     borderopacity="1.0"
     bordercolor="#666666"
     pagecolor="#ffffff"
     id="base"
     showgrid="false"
     inkscape:zoom="0.22401787"
     inkscape:cx="250.00063"
     inkscape:cy="257.79193"
     inkscape:window-x="69"
     inkscape:window-y="63"
     inkscape:current-layer="svg1901" />
  <defs
     id="defs1903">
    <inkscape:perspective
       sodipodi:type="inkscape:persp3d"
       inkscape:vp_x="0 : 257.79193 : 1"
       inkscape:vp_y="0 : 1000 : 0"
       inkscape:vp_z="500.00125 : 257.79193 : 1"
       inkscape:persp3d-origin="250.00063 : 171.86129 : 1"
       id="perspective10" />
  </defs>
  <g
     transform="translate(-11.9838, -10.6328)"
     style="opacity: 1;"
     id="layer1">
    <path
       d="M 12.48826,11.137356 C 14.713296,77.587193 21.167188,161.19867 30.713695,291.86581 C 32.365371,314.47301 35.882467,335.56775 41.245348,355.11879 L 485.93966,355.11879 C 492.02754,326.09846 495.19559,284.35897 499.56143,208.62161 C 503.44941,142.99142 508.51527,74.73305 511.48049,11.137356 L 12.48826,11.137356 z "
       style="fill:#0057f0;fill-opacity:1;stroke:rgb(0, 0, 0);stroke-width:0.5;stroke-opacity:1;stroke-miterlimit:4;stroke-dasharray:none"
       id="path2226" />
    <path
       d="M 72.052009,88.075179 L 72.052009,192.28809 L 22.673062,181.72491 C 23.288036,190.26918 23.935527,199.11088 24.596508,208.18016 L 72.052009,218.33343 L 72.052009,232.08134 L 25.605528,222.14879 C 26.218714,230.5329 26.911616,239.78933 27.560506,248.63559 L 72.052009,258.15822 L 72.052009,275.46923 L 28.853314,266.23038 C 29.503752,275.10151 30.031232,282.52464 30.713695,291.86581 C 30.734559,292.15139 30.7553,292.43208 30.776759,292.71717 L 72.052009,301.5461 L 72.052009,315.10482 L 32.069567,306.55968 C 33.112434,315.81854 34.495987,324.80406 36.200245,333.51944 L 72.052009,341.1817 L 72.052009,355.11879 L 41.245348,355.11879 C 64.300263,439.16833 121.36379,494.63097 210.06711,518.48554 C 302.79319,543.42197 405.79017,502.26039 458.66457,419.12854 C 472.3282,397.64587 480.35811,381.72549 485.93966,355.11879 L 459.35827,355.11879 L 459.35827,340.9925 L 487.48472,347.0151 C 488.82087,339.51019 490.04099,331.15276 491.14242,321.69498 L 459.35827,314.91563 L 459.35827,301.13619 L 492.56135,308.23087 C 493.32481,300.4438 494.05273,291.93171 494.76859,282.6585 L 459.35827,275.09084 L 459.35827,260.52311 L 495.80914,268.31149 C 496.37281,260.29933 496.93872,251.76868 497.51186,242.61299 L 459.35827,234.44623 L 459.35827,218.3965 L 498.48935,226.75245 C 498.84308,220.83421 499.19312,215.011 499.56143,208.62161 C 499.71022,206.11006 499.88236,203.5728 500.03441,201.05396 L 459.35827,192.35115 L 459.35827,88.075179 L 433.8805,88.075179 L 433.8805,186.89614 L 325.44231,163.72019 L 320.11342,188.63039 L 433.8805,212.94148 L 433.8805,228.99121 L 278.9643,195.88273 L 278.9643,88.075179 L 253.48653,88.075179 L 253.48653,190.42771 L 147.5709,167.78781 L 142.24201,192.72954 L 253.48653,216.50458 L 253.48653,231.07232 L 97.52978,197.74311 L 97.52978,88.075179 L 72.052009,88.075179 z M 278.9643,221.9596 L 433.8805,255.06809 L 433.8805,269.63583 L 278.9643,236.52734 L 278.9643,221.9596 z M 97.52978,223.78845 L 253.48653,257.11766 L 253.48653,270.8971 L 97.52978,237.53636 L 97.52978,223.78845 z M 278.9643,262.57268 L 433.8805,295.68117 L 433.8805,309.46061 L 278.9643,276.32059 L 278.9643,262.57268 z M 97.52978,263.61323 L 253.48653,296.94245 L 253.48653,314.25346 L 97.52978,280.92424 L 97.52978,263.61323 z M 278.9643,302.39747 L 433.8805,335.53749 L 433.8805,355.11879 L 344.0146,355.11879 L 348.39753,334.56 L 278.9643,319.70848 L 278.9643,302.39747 z M 97.52978,307.00112 L 253.48653,340.33033 L 253.48653,355.11879 L 157.40885,355.11879 L 161.85484,334.30774 L 97.52978,320.55984 L 97.52978,307.00112 z M 278.9643,345.78535 L 322.57291,355.11879 L 278.9643,355.11879 L 278.9643,345.78535 z M 97.52978,346.63671 L 137.1969,355.11879 L 97.52978,355.11879 L 97.52978,346.63671 z "
       style="fill:rgb(191, 159, 79);fill-opacity:1;stroke:rgb(0, 0, 0);stroke-width:0.5;stroke-opacity:1;stroke-miterlimit:4;stroke-dasharray:none"
       id="path2230" />
  </g>
</svg>
