<?xml version="1.0" encoding="UTF-8"?>
<!DOCTYPE svg PUBLIC "-//W3C//DTD SVG 1.1//EN" "http://www.w3.org/Graphics/SVG/1.1/DTD/svg11.dtd">
<!-- Creator: CorelDRAW -->
<svg xmlns="http://www.w3.org/2000/svg" xml:space="preserve" width="500px" height="572px" shape-rendering="geometricPrecision" text-rendering="geometricPrecision" image-rendering="optimizeQuality" fill-rule="evenodd" clip-rule="evenodd"
viewBox="0 0 500 572"
 xmlns:xlink="http://www.w3.org/1999/xlink"
 xmlns:svg="http://www.w3.org/2000/svg"
 version="1.0">
 <g id="Layer_x0020_1">
  <metadata id="CorelCorpID_0Corel-Layer"/>
  <path id="path1937" fill="#0581ED" stroke="black" stroke-width="0.368504" d="M0 0.221386l500.031 0.000283465 0 337.021c-0.000283465,133.646 -125.008,232.081 -250.016,232.823 -125.008,0.741827 -250.016,-96.2079 -250.015,-230.823l0 -339.022z"/>
  <path id="path1937_0" fill="#BF9F4F" d="M500.031 169.788l-8.99093 13.0691 -0.123307 23.8465 -18.8617 -16.2598 -15.5809 -0.114236 -0.0374173 15.1645 34.2502 32.7892 -0.0912756 17.4297 -19.3204 -0.153071 -16.5631 -17.5717 -0.171213 36.9763 -12.5734 10.4791 -13.7078 -10.4063 0.625323 -37.171 -18.6605 17.8895 -20.4571 -0.205795 -0.0150236 -15.4681 35.4841 -34.0849 0.183118 -16.0296 -15.262 0.0399685 -18.9774 18.4842 0.122457 -26.4121 -12.2584 -11.7201 -12.7423 10.9205 0.192189 26.6859 -20.7547 -17.8373 -15.5809 -0.114236 -0.0374173 15.1645 35.5122 34.3667 0.224221 16.7987 -19.0049 -0.153071 -18.4561 -18.5182 -0.171213 36.9763 -12.5734 10.4791 -13.7078 -10.4063 0.625323 -37.171 -18.6605 17.8895 -20.4571 -0.205795 -0.0150236 -15.4681 35.4841 -34.0849 0.183118 -16.0296 -15.262 0.0399685 -18.9774 18.4842 0.122457 -26.4121 -12.5739 -11.4061 -12.1113 10.9205 -0.123307 26.6859 -20.4392 -17.8373 -15.5809 -0.114236 -0.0374173 15.1645 35.5122 34.3667 -0.0912756 16.1677 -19.6359 -0.153071 -17.5096 -17.8872 -0.171213 36.9763 -12.5734 10.4791 -13.7078 -10.4063 0.625323 -37.171 -18.6605 17.8895 -20.4571 -0.205795 -0.0150236 -15.4681 35.4841 -34.0849 0.183118 -16.0296 -15.262 0.0399685 -18.9774 18.4842 0.122457 -26.4121 -11.1685 -12.9229 -11.1648 10.9205 -0.123307 27.6324 -20.4392 -18.7838 -15.5809 -0.114236 -0.0374173 15.1645 35.5122 34.3667 -0.0912756 17.1142 -18.3739 -0.153071 -18.7716 -18.8337 -0.171213 36.9763 -12.5734 10.4791 -13.7078 -10.4063 0.625323 -37.171 -18.6605 17.8895 -20.4571 -0.205795 -0.0150236 -15.4681 35.4841 -34.0849 0.183118 -16.0296 -15.262 0.0399685 -18.9774 18.4842 0.122457 -26.4121 -11.1118 -11.0965 -4.22759 0.0104882 0 169.454c0,13.4538 1.67556,27.669 3.82592,40.8804 5.2441,0.100347 -2.60419,-0.900851 14.3697,-0.577985 11.1379,0.212032 27.1565,17.2874 48.8081,17.701 21.6519,0.413858 38.4662,-16.0313 62.9388,-15.5648 20.0211,0.381543 41.0403,20.1631 62.0694,20.5651 21.0288,0.401953 35.1995,-18.7053 56.486,-18.2993 18.9581,0.361134 40.2721,18.8938 61.5215,19.3 21.2496,0.406205 41.5724,-17.3282 59.391,-16.9889 17.39,0.33137 33.2714,17.5808 54.6163,17.9887 21.3452,0.408189 42.3068,-17.2814 57.0036,-17.0014 14.6968,0.280063 9.50684,0.775276 12.9348,0.840473 3.91777,-18.0349 6.06643,-34.8582 6.06643,-50.8434l0 -166.824z"/>
  <path id="path1937_1" fill="#E5E5E5" d="M498.009 168.853l-8.99093 13.0691 -0.123307 23.8465 -18.8617 -16.2598 -15.5809 -0.114236 -0.0374173 15.1645 34.2502 32.7892 -0.0912756 17.4297 -19.3204 -0.153071 -16.5631 -17.5717 -0.171213 36.9763 -12.5734 10.4791 -13.7078 -10.4063 0.625323 -37.171 -18.6605 17.8895 -20.4571 -0.205795 -0.0150236 -15.4681 35.4841 -34.0849 0.183118 -16.0296 -15.262 0.0399685 -18.9774 18.4842 0.122457 -26.4121 -12.2584 -11.7201 -12.7423 10.9205 0.192189 26.6859 -20.7547 -17.8373 -15.5809 -0.114236 -0.0374173 15.1645 35.5122 34.3667 0.224221 16.7987 -19.0049 -0.153071 -18.4561 -18.5182 -0.171213 36.9763 -12.5734 10.4791 -13.7078 -10.4063 0.625323 -37.171 -18.6605 17.8895 -20.4571 -0.205795 -0.0150236 -15.4681 35.4841 -34.0849 0.183118 -16.0296 -15.262 0.0399685 -18.9774 18.4842 0.122457 -26.4121 -12.5739 -11.4061 -12.1113 10.9205 -0.123307 26.6859 -20.4392 -17.8373 -15.5809 -0.114236 -0.0374173 15.1645 35.5122 34.3667 -0.0912756 16.1677 -19.6359 -0.153071 -17.5096 -17.8872 -0.171213 36.9763 -12.5734 10.4791 -13.7078 -10.4063 0.625323 -37.171 -18.6605 17.8895 -20.4571 -0.205795 -0.0150236 -15.4681 35.4841 -34.0849 0.183118 -16.0296 -15.262 0.0399685 -18.9774 18.4842 0.122457 -26.4121 -11.1685 -12.9229 -11.1648 10.9205 -0.123307 27.6324 -20.4392 -18.7838 -15.5809 -0.114236 -0.0374173 15.1645 35.5122 34.3667 -0.0912756 17.1142 -18.3739 -0.153071 -18.7716 -18.8337 -0.171213 36.9763 -12.5734 10.4791 -13.7078 -10.4063 0.625323 -37.171 -18.6605 17.8895 -20.4571 -0.205795 -0.0150236 -15.4681 35.4841 -34.0849 0.183118 -16.0296 -15.262 0.0399685 -18.9774 18.4842 0.122457 -26.4121 -11.1118 -11.0965 -2.20507 0.0104882 0 169.454c0,13.4538 1.67556,27.669 3.82592,40.8804 5.2441,0.100347 -4.62643,-0.900851 12.3472,-0.577985 11.1379,0.211748 27.1565,17.2874 48.8081,17.701 21.6519,0.413858 38.4662,-16.0313 62.9388,-15.5648 20.0211,0.381543 41.0403,20.1631 62.0694,20.5651 21.0288,0.401953 35.1995,-18.7053 56.486,-18.2993 18.9581,0.361134 40.2721,18.8938 61.5215,19.3 21.2496,0.406205 41.5724,-17.3282 59.391,-16.9889 17.39,0.33137 33.2714,17.5808 54.6163,17.9887 21.3452,0.408189 42.3068,-17.2814 57.0036,-17.0014 14.6968,0.280063 9.50684,0.775276 12.9348,0.840473 3.91777,-18.0349 6.06643,-34.8582 6.06643,-50.8434l0 -166.824z"/>
  <path id="path1937_2" fill="black" d="M500.031 172.759l-6.78983 11.9696 -0.123307 23.8465 -18.8617 -16.2598 -15.5809 -0.114236 -0.0374173 15.1645 34.2502 32.7892 -0.0912756 17.4297 -19.3204 -0.153071 -16.5631 -17.5717 -0.171213 36.9763 -12.5734 10.4791 -13.7078 -10.4063 0.625323 -37.171 -18.6605 17.8895 -20.4571 -0.205795 -0.0150236 -15.4681 35.4841 -34.0849 0.183118 -16.0296 -15.262 0.0399685 -18.9774 18.4842 0.122457 -26.4121 -12.2584 -11.7201 -12.7423 10.9205 0.192189 26.6859 -20.7547 -17.8373 -15.5809 -0.114236 -0.0374173 15.1645 35.5122 34.3667 0.224221 16.7987 -19.0049 -0.153071 -18.4561 -18.5182 -0.171213 36.9763 -12.5734 10.4791 -13.7078 -10.4063 0.625323 -37.171 -18.6605 17.8895 -20.4571 -0.205795 -0.0150236 -15.4681 35.4841 -34.0849 0.183118 -16.0296 -15.262 0.0399685 -18.9774 18.4842 0.122457 -26.4121 -12.5739 -11.4061 -12.1113 10.9205 -0.123307 26.6859 -20.4392 -17.8373 -15.5809 -0.114236 -0.0374173 15.1645 35.5122 34.3667 -0.0912756 16.1677 -19.6359 -0.153071 -17.5096 -17.8872 -0.171213 36.9763 -12.5734 10.4791 -13.7078 -10.4063 0.625323 -37.171 -18.6605 17.8895 -20.4571 -0.205795 -0.0150236 -15.4681 35.4841 -34.0849 0.183118 -16.0296 -15.262 0.0399685 -18.9774 18.4842 0.122457 -26.4121 -11.1685 -12.9229 -11.1648 10.9205 -0.123307 27.6324 -20.4392 -18.7838 -15.5809 -0.114236 -0.0374173 15.1645 35.5122 34.3667 -0.0912756 17.1142 -18.3739 -0.153071 -18.7716 -18.8337 -0.171213 36.9763 -12.5734 10.4791 -13.7078 -10.4063 0.625323 -37.171 -18.6605 17.8895 -20.4571 -0.205795 -0.0150236 -15.4681 35.4841 -34.0849 0.183118 -16.0296 -15.262 0.0399685 -18.9774 18.4842 0.122457 -26.4121 -11.1118 -11.0965 -4.22759 0.0104882 0 169.454c0,13.4538 1.67556,27.669 3.82592,40.8804 5.2441,0.100347 -2.60419,-0.900851 14.3697,-0.577985 11.1379,0.212032 27.1565,17.2874 48.8081,17.701 21.6519,0.413858 38.4662,-16.0313 62.9388,-15.5648 20.0211,0.381543 41.0403,20.1631 62.0694,20.5651 21.0288,0.401953 35.1995,-18.7053 56.486,-18.2993 18.9581,0.361134 40.2721,18.8938 61.5215,19.3 21.2496,0.406205 41.5724,-17.3282 59.391,-16.9889 17.39,0.33137 33.2714,17.5808 54.6163,17.9887 21.3452,0.408189 42.3068,-17.2814 57.0036,-17.0014 14.6968,0.280063 6.85644,0.693922 10.2844,0.759118 3.91777,-18.0349 5.68857,-33.2671 6.48312,-49.2095l0.0325984 -167.277z"/>
  <path id="path1937_3" fill="#BF9F4F" d="M500.031 169.788l-8.99093 13.0691 -0.123307 23.8465 -18.8617 -16.2598 -15.5809 -0.114236 -0.0374173 15.1645 34.2502 32.7892 -0.0912756 17.4297 -19.3204 -0.153071 -16.5631 -17.5717 -0.171213 36.9763 -12.5734 10.4791 -13.7078 -10.4063 0.625323 -37.171 -18.6605 17.8895 -20.4571 -0.205795 -0.0150236 -15.4681 35.4841 -34.0849 0.183118 -16.0296 -15.262 0.0399685 -18.9774 18.4842 0.122457 -26.4121 -12.2584 -11.7201 -12.7423 10.9205 0.192189 26.6859 -20.7547 -17.8373 -15.5809 -0.114236 -0.0374173 15.1645 35.5122 34.3667 0.224221 16.7987 -19.0049 -0.153071 -18.4561 -18.5182 -0.171213 36.9763 -12.5734 10.4791 -13.7078 -10.4063 0.625323 -37.171 -18.6605 17.8895 -20.4571 -0.205795 -0.0150236 -15.4681 35.4841 -34.0849 0.183118 -16.0296 -15.262 0.0399685 -18.9774 18.4842 0.122457 -26.4121 -12.5739 -11.4061 -12.1113 10.9205 -0.123307 26.6859 -20.4392 -17.8373 -15.5809 -0.114236 -0.0374173 15.1645 35.5122 34.3667 -0.0912756 16.1677 -19.6359 -0.153071 -17.5096 -17.8872 -0.171213 36.9763 -12.5734 10.4791 -13.7078 -10.4063 0.625323 -37.171 -18.6605 17.8895 -20.4571 -0.205795 -0.0150236 -15.4681 35.4841 -34.0849 0.183118 -16.0296 -15.262 0.0399685 -18.9774 18.4842 0.122457 -26.4121 -11.1685 -12.9229 -11.1648 10.9205 -0.123307 27.6324 -20.4392 -18.7838 -15.5809 -0.114236 -0.0374173 15.1645 35.5122 34.3667 -0.0912756 17.1142 -18.3739 -0.153071 -18.7716 -18.8337 -0.171213 36.9763 -12.5734 10.4791 -13.7078 -10.4063 0.625323 -37.171 -18.6605 17.8895 -20.4571 -0.205795 -0.0150236 -15.4681 35.4841 -34.0849 0.183118 -16.0296 -15.262 0.0399685 -18.9774 18.4842 0.122457 -26.4121 -11.1118 -11.0965 -4.22759 0.0104882 0 169.454c0,13.4538 1.67556,27.669 3.82592,40.8804 5.2441,0.100347 -2.60419,-0.900851 14.3697,-0.577985 11.1379,0.212032 27.1565,17.2874 48.8081,17.701 21.6519,0.413858 38.4662,-16.0313 62.9388,-15.5648 20.0211,0.381543 41.0403,20.1631 62.0694,20.5651 21.0288,0.401953 35.1995,-18.7053 56.486,-18.2993 18.9581,0.361134 40.2721,18.8938 61.5215,19.3 21.2496,0.406205 41.5724,-17.3282 59.391,-16.9889 17.39,0.33137 33.2714,17.5808 54.6163,17.9887 21.3452,0.408189 42.3068,-17.2814 57.0036,-17.0014 14.6968,0.280063 9.50684,0.775276 12.9348,0.840473 3.91777,-18.0349 6.06643,-34.8582 6.06643,-50.8434l0 -166.824z"/>
  <polygon fill="#E5E5E5" stroke="#E5E5E5" stroke-width="1.41732" points="144.904,33.8437 160.736,36.8742 160.637,70.2536 183.799,60.219 195.406,74.5019 185.547,88.428 161.079,84.2267 172.618,104.597 192.846,104.372 201.007,92.0753 202.839,91.9993 210.376,104.248 233.003,104.306 243.02,78.954 219.025,85.9244 209.942,70.9186 219.588,56.257 240.614,62.8866 235.357,34.9237 250.567,25.7307 265.264,35.481 259.079,62.769 281.176,56.0486 290.658,70.5804 281.912,85.3804 256.983,78.8687 265.413,103.761 290.874,104.038 298.179,92.1799 300.636,92.2632 307.905,103.847 326.844,104.002 340.053,84.3866 319.404,88.1649 307.806,73.6937 319.316,58.5664 342.238,69.3026 339.587,37.6339 358.016,33.2799 339.893,134.56 161.007,135.477 "/>
  <polygon fill="black" stroke="black" stroke-width="1.41732" points="148.348,36.9618 164.18,39.9923 164.081,73.3717 187.243,63.3371 198.85,77.62 188.991,91.5461 164.523,87.3448 176.062,107.715 196.29,107.49 204.451,95.1934 206.283,95.1174 213.82,107.367 236.447,107.424 246.464,82.0721 222.469,89.0425 213.386,74.0367 223.032,59.3751 244.059,66.0048 238.801,38.0418 254.012,28.8488 268.708,38.5991 262.523,65.8871 284.62,59.1667 294.102,73.6986 285.356,88.4985 260.427,81.9868 268.857,106.879 294.318,107.156 301.623,95.298 304.08,95.3813 311.349,106.965 330.288,107.12 343.497,87.5047 322.848,91.283 311.25,76.8118 322.76,61.6845 345.682,72.4207 343.031,40.752 361.46,36.398 343.337,137.678 164.451,138.595 "/>
  <polygon fill="#BF9F4F" stroke="#BF9F4F" stroke-width="1.41732" points="147.257,35.0909 163.088,38.1215 162.989,71.5009 186.152,61.4662 197.758,75.7491 187.9,89.6752 163.432,85.474 174.97,105.845 195.198,105.619 203.359,93.3225 205.192,93.2466 212.728,105.496 235.356,105.553 245.373,80.2012 221.378,87.1716 212.295,72.1659 221.94,57.5042 242.967,64.1339 237.71,36.1709 252.92,26.9779 267.616,36.7282 261.432,64.0163 283.529,57.2959 293.011,71.8277 284.265,86.6277 259.335,80.1159 267.765,105.008 293.227,105.285 300.531,93.4271 302.988,93.5105 310.258,105.094 329.197,105.249 342.406,85.6338 321.757,89.4121 310.159,74.941 321.668,59.8136 344.59,70.5498 341.94,38.8812 360.369,34.5271 342.246,135.807 163.36,136.724 "/>
 </g>
</svg>
