<?xml version="1.0" encoding="UTF-8" standalone="no"?>
<!-- Created with Inkscape (http://www.inkscape.org/) -->
<svg
   xmlns:dc="http://purl.org/dc/elements/1.1/"
   xmlns:cc="http://web.resource.org/cc/"
   xmlns:rdf="http://www.w3.org/1999/02/22-rdf-syntax-ns#"
   xmlns:svg="http://www.w3.org/2000/svg"
   xmlns="http://www.w3.org/2000/svg"
   xmlns:sodipodi="http://sodipodi.sourceforge.net/DTD/sodipodi-0.dtd"
   xmlns:inkscape="http://www.inkscape.org/namespaces/inkscape"
   width="500.00452"
   height="549.4079"
   id="svg1901"
   sodipodi:version="0.32"
   inkscape:version="0.45.1"
   sodipodi:docname="Puumala.vaakuna.svg"
   sodipodi:docbase="D:\Eigene Datein\AR\wp\Kuwat\SVG muokkaus\Valmiit"
   version="1.0"
   inkscape:output_extension="org.inkscape.output.svg.inkscape">
  <defs
     id="defs1903" />
  <sodipodi:namedview
     id="base"
     pagecolor="#ffffff"
     bordercolor="#666666"
     borderopacity="1.0"
     inkscape:pageopacity="0.0"
     inkscape:pageshadow="2"
     inkscape:zoom="1.3450844"
     inkscape:cx="250.00226"
     inkscape:cy="274.70394"
     inkscape:document-units="px"
     inkscape:current-layer="layer1"
     gridtolerance="10000"
     inkscape:window-width="1680"
     inkscape:window-height="950"
     inkscape:window-x="0"
     inkscape:window-y="60" />
  <metadata
     id="metadata1906">
    <rdf:RDF>
      <cc:Work
         rdf:about="">
        <dc:format>image/svg+xml</dc:format>
        <dc:type
           rdf:resource="http://purl.org/dc/dcmitype/StillImage" />
      </cc:Work>
    </rdf:RDF>
  </metadata>
  <g
     inkscape:label="Taso 1"
     inkscape:groupmode="layer"
     id="layer1"
     style="opacity:1"
     transform="translate(25.254489,-134.66983)">
    <g
       id="g4254"
       transform="translate(-1e-6,0)">
      <path
         style="fill:#cfcfcf;fill-opacity:1"
         d="M -22.754489,137.16983 L -21.189109,319.53662 C -19.389097,529.23792 -18.04273,538.22208 17.22532,577.44866 C 29.001307,590.54639 51.313099,608.93753 66.785256,618.33639 C 117.05456,645.27755 170.98765,663.15187 224.6695,681.57774 C 279.35956,665.8226 331.25768,642.32054 382.71028,618.33639 C 398.18244,608.93753 420.49424,590.54639 432.27022,577.44866 C 467.53827,538.22208 468.88464,529.23792 470.68465,319.53662 L 472.25003,137.16983 L -22.754489,137.16983 z "
         id="path2187"
         sodipodi:nodetypes="ccscccsccc" />
      <path
         sodipodi:nodetypes="ccszczsccc"
         id="path2244"
         d="M -22.754489,137.16983 L -21.189109,319.53662 C -19.389097,529.23792 -18.04273,538.22208 17.22532,577.44866 C 29.001307,590.54639 50.425884,607.87198 66.785256,616.90782 C 82.870272,625.79211 170.98765,663.15187 224.6695,681.57774 C 279.35956,665.8226 363.02562,626.5374 381.63885,616.55067 C 400.10123,606.64488 420.49424,590.54639 432.27022,577.44866 C 467.53827,538.22208 468.88464,529.23792 470.68465,319.53662 L 472.25003,137.16983 L -22.754489,137.16983 z "
         style="fill:none;stroke:#000000;stroke-width:5;stroke-miterlimit:4;stroke-dasharray:none;stroke-opacity:1" />
      <g
         transform="matrix(1.0018433,0,0,1.0018433,1.9730721,-0.7546157)"
         id="g7115">
        <path
           style="fill:#df0000;fill-opacity:1;fill-rule:evenodd;stroke:#000000;stroke-width:0.99816006px;stroke-linecap:butt;stroke-linejoin:miter;stroke-opacity:1"
           d="M 240.92138,298.53095 C 240.92138,298.53095 261.88204,308.1274 260.87189,337.42182 C 260.49309,361.91803 260.30368,369.05222 258.59905,377.32284 C 262.45026,373.21909 267.62863,370.66246 269.20565,358.88756 C 270.98549,345.59829 267.43788,340.38915 270.2158,341.96751 C 273.75134,346.95514 283.70492,372.57846 277.64401,385.20537 C 271.58309,397.83228 264.65997,402.07158 264.65997,402.07158 L 261.12443,407.12234 L 235.87062,410.65788 C 235.87062,410.65788 226.42582,406.99607 222.76402,396.51574 C 219.10222,386.03541 218.69803,379.34315 221.22341,368.73655 C 223.74879,358.12995 230.31478,346.00812 227.28432,338.43197 C 224.25387,330.85583 236.3757,346.00812 237.89092,359.64518 C 239.40615,373.28223 238.90108,374.29239 238.90108,376.31269 C 238.90108,378.333 245.46707,354.59441 244.96199,330.85583 C 244.45692,307.11724 241.93153,300.04617 240.92138,298.53095 z "
           id="path6142"
           transform="translate(-27.142853,135.23318)"
           sodipodi:nodetypes="cccscsccczsssssc" />
        <g
           id="g6138">
          <path
             transform="matrix(1.0645161,0,0,1.0645161,-58.294655,93.831224)"
             d="M 310.6219 461.67059 A 46.972092 46.972092 0 1 1  216.67772,461.67059 A 46.972092 46.972092 0 1 1  310.6219 461.67059 z"
             sodipodi:ry="46.972092"
             sodipodi:rx="46.972092"
             sodipodi:cy="461.67059"
             sodipodi:cx="263.64981"
             id="path4196"
             style="opacity:1;fill:#000000;fill-opacity:1;stroke:none;stroke-width:5;stroke-miterlimit:4;stroke-dasharray:none;stroke-dashoffset:0;stroke-opacity:1"
             sodipodi:type="arc" />
          <path
             transform="matrix(0.7983847,-0.7983847,0.7983847,0.7983847,-117.47538,146.39103)"
             d="M -45.456864 465.71118 A 13.889598 9.0913725 0 1 1  -73.23606,465.71118 A 13.889598 9.0913725 0 1 1  -45.456864 465.71118 z"
             sodipodi:ry="9.0913725"
             sodipodi:rx="13.889598"
             sodipodi:cy="465.71118"
             sodipodi:cx="-59.346462"
             id="path5167"
             style="opacity:1;fill:#cfcfcf;fill-opacity:1;stroke:none;stroke-width:5;stroke-miterlimit:4;stroke-dasharray:none;stroke-dashoffset:0;stroke-opacity:1"
             sodipodi:type="arc" />
        </g>
      </g>
      <path
         id="path6144"
         d="M 213.75831,434.31509 L 213.75831,434.31509 z "
         style="fill:none;fill-rule:evenodd;stroke:#000000;stroke-width:1px;stroke-linecap:butt;stroke-linejoin:miter;stroke-opacity:1" />
      <g
         transform="translate(2.3873621,0)"
         id="g3252">
        <g
           id="g7141"
           transform="matrix(1.0018433,0,0,1.0018433,149.86221,-50.846782)">
          <path
             style="fill:#df0000;fill-opacity:1;fill-rule:evenodd;stroke:#000000;stroke-width:0.99816006px;stroke-linecap:butt;stroke-linejoin:miter;stroke-opacity:1"
             d="M 243.42138,301.38809 C 243.42138,301.38809 264.38204,310.98454 263.37189,340.27896 C 262.99309,364.77517 260.30368,369.05222 258.59905,377.32284 C 262.45026,373.21909 267.62863,370.66246 269.20565,358.88756 C 270.98549,345.59829 267.43788,340.38915 270.2158,341.96751 C 273.75134,346.95514 283.70492,372.57846 277.64401,385.20537 C 271.58309,397.83228 264.65997,402.07158 264.65997,402.07158 L 261.12443,407.12234 L 235.87062,410.65788 C 235.87062,410.65788 226.42582,406.99607 222.76402,396.51574 C 219.10222,386.03541 218.69803,379.34315 221.22341,368.73655 C 223.74879,358.12995 230.31478,346.00812 227.28432,338.43197 C 224.25387,330.85583 236.3757,346.00812 237.89092,359.64518 C 239.40615,373.28223 238.90108,374.29239 238.90108,376.31269 C 238.90108,378.333 246.5385,358.88012 247.10485,335.85583 C 247.68872,312.11905 244.43153,302.90331 243.42138,301.38809 z "
             id="path7143"
             transform="translate(-27.142853,135.23318)"
             sodipodi:nodetypes="cccscsccczsssssc" />
          <g
             id="g7145">
            <path
               transform="matrix(1.0645161,0,0,1.0645161,-58.294655,93.831224)"
               d="M 310.6219 461.67059 A 46.972092 46.972092 0 1 1  216.67772,461.67059 A 46.972092 46.972092 0 1 1  310.6219 461.67059 z"
               sodipodi:ry="46.972092"
               sodipodi:rx="46.972092"
               sodipodi:cy="461.67059"
               sodipodi:cx="263.64981"
               id="path7147"
               style="opacity:1;fill:#000000;fill-opacity:1;stroke:none;stroke-width:5;stroke-miterlimit:4;stroke-dasharray:none;stroke-dashoffset:0;stroke-opacity:1"
               sodipodi:type="arc" />
            <path
               transform="matrix(0.7983847,-0.7983847,0.7983847,0.7983847,-117.47538,146.39103)"
               d="M -45.456864 465.71118 A 13.889598 9.0913725 0 1 1  -73.23606,465.71118 A 13.889598 9.0913725 0 1 1  -45.456864 465.71118 z"
               sodipodi:ry="9.0913725"
               sodipodi:rx="13.889598"
               sodipodi:cy="465.71118"
               sodipodi:cx="-59.346462"
               id="path7149"
               style="opacity:1;fill:#cfcfcf;fill-opacity:1;stroke:none;stroke-width:5;stroke-miterlimit:4;stroke-dasharray:none;stroke-dashoffset:0;stroke-opacity:1"
               sodipodi:type="arc" />
          </g>
        </g>
        <g
           transform="matrix(1.0018433,0,0,1.0018433,-150.69079,-50.846782)"
           id="g7151">
          <path
             sodipodi:nodetypes="cccscsccczsssssc"
             transform="translate(-27.142853,135.23318)"
             id="path7153"
             d="M 243.42138,301.38809 C 243.42138,301.38809 264.38204,310.98454 263.37189,340.27896 C 262.99309,364.77517 260.30368,369.05222 258.59905,377.32284 C 262.45026,373.21909 267.62863,370.66246 269.20565,358.88756 C 270.98549,345.59829 267.43788,340.38915 270.2158,341.96751 C 273.75134,346.95514 283.70492,372.57846 277.64401,385.20537 C 271.58309,397.83228 264.65997,402.07158 264.65997,402.07158 L 261.12443,407.12234 L 235.87062,410.65788 C 235.87062,410.65788 226.42582,406.99607 222.76402,396.51574 C 219.10222,386.03541 218.69803,379.34315 221.22341,368.73655 C 223.74879,358.12995 230.31478,346.00812 227.28432,338.43197 C 224.25387,330.85583 236.3757,346.00812 237.89092,359.64518 C 239.40615,373.28223 238.90108,374.29239 238.90108,376.31269 C 238.90108,378.333 246.5385,358.88012 247.10485,335.85583 C 247.68872,312.11905 244.43153,302.90331 243.42138,301.38809 z "
             style="fill:#df0000;fill-opacity:1;fill-rule:evenodd;stroke:#000000;stroke-width:0.99816006px;stroke-linecap:butt;stroke-linejoin:miter;stroke-opacity:1" />
          <g
             id="g7155">
            <path
               sodipodi:type="arc"
               style="opacity:1;fill:#000000;fill-opacity:1;stroke:none;stroke-width:5;stroke-miterlimit:4;stroke-dasharray:none;stroke-dashoffset:0;stroke-opacity:1"
               id="path7157"
               sodipodi:cx="263.64981"
               sodipodi:cy="461.67059"
               sodipodi:rx="46.972092"
               sodipodi:ry="46.972092"
               d="M 310.6219 461.67059 A 46.972092 46.972092 0 1 1  216.67772,461.67059 A 46.972092 46.972092 0 1 1  310.6219 461.67059 z"
               transform="matrix(1.0645161,0,0,1.0645161,-58.294655,93.831224)" />
            <path
               sodipodi:type="arc"
               style="opacity:1;fill:#cfcfcf;fill-opacity:1;stroke:none;stroke-width:5;stroke-miterlimit:4;stroke-dasharray:none;stroke-dashoffset:0;stroke-opacity:1"
               id="path7159"
               sodipodi:cx="-59.346462"
               sodipodi:cy="465.71118"
               sodipodi:rx="13.889598"
               sodipodi:ry="9.0913725"
               d="M -45.456864 465.71118 A 13.889598 9.0913725 0 1 1  -73.23606,465.71118 A 13.889598 9.0913725 0 1 1  -45.456864 465.71118 z"
               transform="matrix(0.7983847,-0.7983847,0.7983847,0.7983847,-117.47538,146.39103)" />
          </g>
        </g>
      </g>
      <path
         id="path3264"
         transform="translate(-25.254494,134.66983)"
         d="M 2.5,2.5 L 4.0625,184.875 C 5.7900364,386.13288 7.1264094,402.51829 38.40625,438.1875 L 100.1875,5.375 L 172.8125,517.53125 C 174.15893,518.07843 175.52086,518.60883 176.875,519.15625 L 250.1875,5.375 L 323.1875,520.1875 C 324.4419,519.66615 325.69064,519.14789 326.9375,518.625 L 400.1875,5.375 L 461.5625,438.21875 C 492.87078,402.52637 494.20943,386.19561 495.9375,184.875 L 497.5,2.5 L 2.5,2.5 z "
         style="fill:#000000;stroke:none;stroke-width:5;stroke-miterlimit:4;stroke-dasharray:none;stroke-opacity:1" />
    </g>
  </g>
</svg>
