<?xml version="1.0" encoding="UTF-8"?>
<!DOCTYPE svg PUBLIC "-//W3C//DTD SVG 1.1//EN" "http://www.w3.org/Graphics/SVG/1.1/DTD/svg11.dtd">
<!-- Creator: CorelDRAW -->
<svg xmlns="http://www.w3.org/2000/svg" xml:space="preserve" width="500px" height="601px" shape-rendering="geometricPrecision" text-rendering="geometricPrecision" image-rendering="optimizeQuality" fill-rule="evenodd" clip-rule="evenodd"
viewBox="0 0 500 601"
 xmlns:xlink="http://www.w3.org/1999/xlink"
 xmlns:svg="http://www.w3.org/2000/svg"
 version="1.0">
 <g id="Layer_x0020_1">
  <metadata id="CorelCorpID_0Corel-Layer"/>
  <path id="path1937" fill="black" stroke="black" stroke-width="1.41732" d="M0.757701 1.44255l498.386 -0.429449 0.00992126 467.686c-0.30189,36.9224 -46.245,84.2358 -87.948,84.1748l-96.3573 -0.140315c-33.268,-0.0487559 -59.3723,13.3532 -65.848,45.6903 -9.27015,-33.2623 -36.7166,-45.5349 -71.7044,-45.5891l-87.8551 -0.13578c-51.7102,-0.079937 -90.0865,-50.8034 -88.6255,-84.1851l-0.0578268 -467.071z"/>
  <path fill="#CCCCCC" d="M447.1 42.4528c3.82224,4.26728 1.79008,8.05607 2.20365,12.3239 -0.160158,7.12262 -14.055,24.4673 -21.2434,34.4653 -5.25005,-15.4865 -0.623339,-31.4246 8.60797,-46.0576 3.09855,-6.04488 -4.02577,-7.61726 -12.4279,-5.0366 -13.3546,4.28684 -28.1931,11.5951 -49.3107,29.7902 -44.0969,30.0501 -85.1667,68.3045 -126.094,115.451 -31.737,36.5599 -59.3694,111.202 -87.0446,147.834 -16.0101,6.64781 -26.5881,12.9229 -27.2611,20.4233l10.5429 0.75515 8.91185 -7.50785c-12.4509,19.4888 -27.6971,36.1823 -45.26,50.5602 -5.9675,28.1928 8.48438,45.2841 35.8478,41.2109 20.797,-32.6665 51.6096,-52.8129 86.0443,-68.4301 22.7149,-12.8611 51.5455,-40.4303 85.6531,-77.0366 54.8859,-56.2879 96.8786,-106.148 123.098,-175.538 17.1547,-37.4335 27.6608,-66.716 14.9803,-73.4619 -5.07685,-3.85597 -5.57745,-4.40986 -7.24763,0.253984z"/>
  <path fill="black" d="M113.398 425.403c12.2258,-8.8492 29.1813,-23.2835 45.6217,-41.6155 26.5051,-29.5552 53.7166,-67.1996 72.9216,-92.5966 21.399,-28.2983 46.7028,-56.6513 71.1406,-85.0768 21.7488,-25.2981 57.2363,-54.4315 56.6235,-84.2026 6.87374,25.9982 -29.5566,58.3985 -54.3932,86.1441 -18.1743,20.3026 -46.457,52.9642 -70.3384,84.3166 -41.8604,54.9562 -82.2008,110.542 -121.576,133.031z"/>
  <polygon fill="#4C4C4C" points="319.643,209.445 298.878,254.17 308.143,263.434 304.309,267.268 310.379,266.629 307.184,270.782 313.893,272.699 314.212,274.935 326.991,270.143 325.713,276.213 319.324,282.602 319.963,285.797 314.212,292.186 295.364,252.892 306.545,224.779 311.657,223.821 309.101,220.626 312.935,218.07 310.698,214.876 315.171,214.556 "/>
  <path fill="white" d="M374.929 67.938c-44.0969,30.0501 -85.1667,68.3045 -126.094,115.451 39.3364,-44.3234 81.6466,-82.2033 126.094,-115.451zm-126.143 287.982c-6.4304,4.96517 -12.4912,9.10007 -18.1698,12.3151 -34.4347,15.6172 -65.2473,35.7636 -86.0443,68.4301 -1.28239,0.190772 -2.53701,0.334488 -3.76186,0.432 29.3241,-46.664 74.638,-62.5697 107.976,-81.1772zm72.1829 -69.5586c52.5867,-54.3322 92.9325,-103.305 118.398,-170.7 17.1547,-37.4335 27.6608,-66.716 14.9803,-73.4619 11.353,7.04183 1.96526,36.4612 -19.0576,78.4347l-6.38929 17.5706 -2.55572 1.59732 -0.319465 4.15304 -5.11144 10.8618 -4.15304 1.27786c-21.9869,46.9848 -57.5433,88.1547 -97.4367,127.466l1.64495 2.80063zm113.798 -248.93c2.44403,0.826016 3.45033,2.73062 1.9012,5.75292 -9.23131,14.633 -13.858,30.5711 -8.60797,46.0576 -4.3098,-7.86615 -4.61764,-16.5623 -3.05802,-25.9484 1.63389,-9.83226 11.247,-21.0773 9.76479,-25.8622z"/>
  <polygon fill="#CCCCCC" points="233.068,93.479 194.733,93.3877 194.733,62.1715 233.068,62.1715 233.068,23.0743 263.737,23.0743 263.737,62.1715 302.073,62.1715 302.073,93.3877 263.737,93.479 263.737,130.537 233.068,130.537 "/>
  <polygon fill="#CCCCCC" points="62.9068,296.789 24.571,296.698 24.571,265.481 62.9068,265.481 62.9068,226.384 93.5754,226.384 93.5754,265.481 131.911,265.481 131.911,296.698 93.5754,296.789 93.5754,333.847 62.9068,333.847 "/>
  <polygon fill="#CCCCCC" points="233.068,496.679 194.733,496.588 194.733,465.372 233.068,465.372 233.068,426.275 263.737,426.275 263.737,465.372 302.073,465.372 302.073,496.588 263.737,496.679 263.737,533.737 233.068,533.737 "/>
  <polygon fill="#CCCCCC" points="401.307,296.789 362.971,296.698 362.971,265.481 401.307,265.481 401.307,226.384 431.976,226.384 431.976,265.481 470.311,265.481 470.311,296.698 431.976,296.789 431.976,333.847 401.307,333.847 "/>
  <path fill="#CCCCCC" d="M58.1349 43.2508c-3.82224,4.26728 -5.30107,8.53484 -5.71465,12.8027 0.160158,7.12262 11.5016,23.1905 18.69,33.1886 5.25005,-15.4865 1.9012,-30.7857 -7.33011,-45.4187 -3.09855,-6.04488 2.74791,-8.25619 11.1501,-5.67553 13.3546,4.28684 28.1931,11.5951 49.3107,29.7902 44.0969,30.0501 85.1667,68.3045 126.094,115.451 31.737,36.5599 59.3694,111.202 87.0446,147.834 16.0101,6.64781 26.5881,12.9229 27.2611,20.4233l-10.5429 0.75515 -8.91185 -7.50785c12.4509,19.4888 27.6971,36.1823 45.26,50.5602 5.9675,28.1928 -8.48438,45.2841 -35.8478,41.2109 -20.797,-32.6665 -51.6096,-52.8129 -86.0443,-68.4301 -22.7149,-12.8611 -51.5455,-40.4303 -85.6531,-77.0366 -54.8859,-56.2879 -94.9635,-106.307 -121.183,-175.697 -17.1547,-37.4335 -26.384,-66.716 -13.7035,-73.4619 5.07685,-3.85597 8.45008,-3.45232 10.1203,1.21153z"/>
  <path fill="white" d="M202.136 132.169c-25.2757,-24.5605 -51.0236,-45.919 -77.895,-64.2306 -21.1176,-18.195 -35.9561,-25.5033 -49.3107,-29.7902 -8.40218,-2.58066 -14.2486,-0.369355 -11.1501,5.67553 -1.12791,-6.1937 6.17641,-6.53528 16.3916,-2.25865 13.1346,5.49865 30.8736,18.0074 39.4866,28.9128l3.83358 0.319465 2.23625 2.55572 2.87518 0 0.638929 3.51411 3.51411 -0.319465 1.59732 4.15304 5.4309 0c21.5396,15.6421 41.7694,33.9072 62.3512,51.4681zm161.797 216.72c0.384945,0.902552 0.624189,1.82098 0.708095,2.7584l-10.5429 0.75515c4.88211,-0.530079 9.22876,-1.27389 9.83481,-3.51355zm-95.0843 17.7333c-10.2243,-6.3601 -15.3371,-11.4421 -23.0054,-17.1629l-4.39881 -4.56747 -1.58627 -2.67562 -3.69808 -0.704693 -5.17266 -5.08507 0.0867402 -5.16614 -6.46611 0.672945 -0.313795 -4.73868 -4.99011 -0.154772 -0.189921 -3.9189 -3.64734 -0.228189 -4.38123 -4.33333c-82.4239,-82.8046 -122.327,-134.369 -146.784,-201.049 -13.6304,-37.1634 -29.3525,-61.3364 -16.2867,-75.4705 -12.6805,6.74589 -3.45118,36.0284 13.7035,73.4619 26.2191,69.3896 66.2967,119.409 121.183,175.697 34.1076,36.6063 62.9382,64.1756 85.6531,77.0366l-0.983339 0.622772m-209.436 -325.607c-0.835087,-2.33178 -2.09594,-3.59887 -3.78284,-3.80069 -0.0172913,2.65068 2.52142,2.9588 3.78284,3.80069z"/>
  <path fill="black" d="M81.3226 118.717c-4.68539,-14.6954 3.40781,-41.5304 -5.11144,-62.6151l-2.23625 0.958394c8.41267,18.3161 2.76888,37.91 4.15304,56.8647 -5.1378,-3.46054 -7.74681,-11.9798 -8.62555,-23.9599 -6.28271,-6.92164 -11.607,-14.1627 -16.9316,-24.5988 4.47251,12.7786 9.90341,16.9316 15.0148,25.8766 2.12995,23.108 10.3295,25.4509 13.737,27.474z"/>
  <path fill="black" d="M50.654 58.6574c0.441071,-4.2823 -2.23115,-3.89424 3.19465,-15.6538l2.23625 1.91679c-4.20066,2.18835 -4.70693,8.07109 -5.4309,13.737z"/>
  <path fill="black" d="M73.336 50.0318l5.75037 4.47251c1.06469,-4.89827 -0.851811,-6.38873 -5.75037,-4.47251z"/>
  <circle fill="black" cx="72.5372" cy="47.6357" r="1.43745"/>
  <path fill="black" d="M112.95 79.1031c4.15304,8.83871 -1.59732,18.3161 -11.5007,9.26448l-2.23625 1.27786c9.58394,9.79824 19.1676,2.98375 16.9316,-10.8618l-3.19465 0.319465z"/>
  <path fill="black" d="M95.3791 80.381l-1.91679 1.27786c-4.47251,-9.90341 4.47251,-22.3625 15.3343,-12.4591l-2.23625 0.638929c-6.24076,-6.70819 -14.5746,1.27814 -11.1813,10.5423z"/>
  <path fill="black" d="M100.81 71.1165l7.34769 -2.55572c5.85666,14.4825 -9.69052,20.6586 -12.4591,7.02822l2.23625 -3.51411 3.51411 3.19465 -0.638929 -4.15304z"/>
  <path fill="black" d="M79.0864 117.758c2.87518,2.9812 7.87975,3.40725 15.0148,1.27786 7.88032,0.906237 14.6957,-1.64863 19.1679,-11.8202 3.19947,-4.78942 5.97118,-9.79257 5.75037,-16.2927l0.958394 -8.94501c-0.850678,4.36876 -1.80879,8.52378 -3.51411,11.1813 1.50293,4.79452 -1.48394,8.84041 -5.11144,12.7786 -2.87518,8.30665 -8.73241,11.9271 -17.5706,10.8618 -4.15332,3.19521 -8.30637,3.40781 -12.4591,0.638929l-2.23625 0.319465z"/>
  <path fill="black" d="M62.1547 112.008l1.91679 4.15304c11.363,5.27131 17.7174,8.67912 28.7518,7.98662 12.4591,1.17128 19.1679,-1.17156 23.9599,-13.737 1.49046,-4.68539 3.83301,-8.83843 7.02822,-11.8202 -1.06554,-4.36536 -0.958961,-9.90256 -0.319465,-15.9732 -1.97065,3.56712 -3.14192,8.46539 -2.55572,16.2927 -3.83386,5.4309 -6.81591,11.2881 -8.94501,17.5706 -3.35367,5.16501 -10.8079,6.2297 -20.1263,5.4309 -8.46652,0.53263 -15.6016,-0.532347 -19.8068,-5.11144l-5.75037 -1.59732 -4.15304 -3.19465z"/>
  <path fill="black" d="M71.4192 134.69c11.4996,8.66948 18.2041,6.20107 26.1961,7.34769 4.79084,-0.635244 9.68826,-1.59137 15.3343,-4.79197 7.74964,-7.76807 14.7254,-18.3076 18.2095,-38.0163 -1.27814,-4.04646 -1.27843,-8.51896 0,-13.4175 -1.17354,-2.23625 -1.59874,-4.47222 -1.91679,-6.70876l-0.319465 7.98662c-0.70441,5.2835 -0.485008,9.6429 -0.319465,14.0564 -2.28898,14.7501 -8.67856,25.3987 -16.9316,34.1827 -3.62069,2.66202 -7.56085,4.04646 -11.8202,5.11144 -7.24139,0.212882 -10.6489,-0.852095 -15.9732,-1.27786 -4.15332,-0.422362 -8.30637,-2.34085 -12.4591,-4.47251z"/>
  <path fill="black" d="M108.477 151.302l1.91679 0.958394c19.0259,-6.36548 27.0326,-10.4182 27.7934,-49.517 1.59761,-7.34797 1.70391,-13.7367 -0.958394,-18.529l-2.23625 0.958394c3.52715,5.64066 2.24419,12.3511 0.638929,18.8484 -0.000283465,30.9884 -6.60246,43.0217 -24.5988,44.7251l-2.55572 2.55572z"/>
  <path fill="black" d="M385.773 425.403c-12.2258,-8.8492 -29.1813,-23.2835 -45.6217,-41.6155 -26.5051,-29.5552 -53.7166,-67.1996 -72.9216,-92.5966 -21.399,-28.2983 -46.7028,-56.6513 -71.1406,-85.0768 -21.7488,-25.2981 -57.2363,-54.4315 -56.6235,-84.2026 -6.87374,25.9982 29.5566,58.3985 54.3932,86.1441 18.1743,20.3026 46.457,52.9642 70.3384,84.3166 41.8604,54.9562 82.2008,110.542 121.576,133.031z"/>
  <path fill="black" d="M363.729 436.904l-0.319465 -12.1397c-0.965197,4.68907 -0.858615,8.73553 0.319465,12.1397z"/>
  <path fill="black" d="M368.521 435.945l0.638929 -9.90341c-1.5789,3.48832 -2.05937,6.84255 -0.638929,9.90341z"/>
  <path fill="black" d="M374.911 434.348l0.638929 -9.90341c-1.2841,3.94384 -1.49698,7.24479 -0.638929,9.90341z"/>
  <path fill="black" d="M358.937 436.904l-1.59732 -13.4175c-0.780945,4.65959 -0.623055,9.18539 1.59732,13.4175z"/>
  <path fill="black" d="M378.744 431.792l0.319465 -11.1813c-1.23137,3.91436 -1.6594,7.69493 -0.319465,11.1813z"/>
  <path fill="black" d="M382.897 428.278l-8.94501 -6.06983c2.55345,3.30888 5.53522,5.33197 8.94501,6.06983zm-1.91679 -16.9316l1.91679 16.9316c1.00233,-5.64435 -0.0365669,-11.2881 -1.91679,-16.9316z"/>
  <path fill="black" d="M385.773 412.305l1.27786 9.90341c1.07461,-3.51525 0.648284,-6.81619 -1.27786,-9.90341z"/>
  <path fill="black" d="M388.328 412.944c1.07263,-7.92482 -1.67244,-15.0854 -7.02822,-21.7236 3.46082,6.12284 6.12312,13.0439 7.02822,21.7236z"/>
  <path fill="black" d="M380.342 432.431l-8.30608 -4.79197c2.0452,3.04384 4.97424,4.31944 8.30608,4.79197z"/>
  <path fill="black" d="M373.313 434.667l-7.02822 -3.83358c1.91367,2.34936 4.25651,3.62721 7.02822,3.83358z"/>
  <path fill="black" d="M389.926 415.499l-6.70876 -2.55572c1.59307,2.13732 3.82932,2.98914 6.70876,2.55572z"/>
  <path fill="black" d="M386.731 420.291l-9.26448 -4.15304c2.5251,2.69688 5.45216,4.45607 9.26448,4.15304z"/>
  <path fill="black" d="M383.856 407.832l-5.75037 -3.51411c1.48819,2.45027 3.40469,3.6343 5.75037,3.51411z"/>
  <path fill="black" d="M390.564 410.069l-4.79197 -1.91679c2.02564,-0.432567 3.62296,0.206362 4.79197,1.91679z"/>
  <path fill="black" d="M381.939 403.04c-0.0671811,-5.21802 -1.60753,-10.4366 -6.38929,-15.6538 2.77115,4.89685 5.32829,9.90114 6.38929,15.6538z"/>
  <path fill="black" d="M385.773 402.721l4.15304 -0.638929c-1.38359,-1.0732 -2.76832,-0.859465 -4.15304,0.638929z"/>
  <path fill="black" d="M376.508 395.373c3.61928,2.57074 7.45285,2.78334 11.5007,0.638929 -3.83358,0.639213 -7.66715,0.426331 -11.5007,-0.638929z"/>
  <path fill="black" d="M366.605 386.428l13.0981 4.47251c-4.36592,-3.17849 -8.73156,-4.29421 -13.0981,-4.47251z"/>
  <path fill="black" d="M351.27 427l0.638929 -7.34769c-1.49839,2.66372 -1.71128,5.11314 -0.638929,7.34769zm8.94501 0.958394l-8.94501 -0.958394c3.19635,1.81984 6.17811,2.13902 8.94501,0.958394z"/>
  <path fill="black" d="M349.354 419.972l-7.34769 -2.87518c2.05739,2.38365 4.4314,3.49115 7.34769,2.87518z"/>
  <path fill="black" d="M337.853 410.707l4.15304 1.27786c-1.38416,0.646016 -2.76832,0.219685 -4.15304,-1.27786z"/>
  <path fill="black" d="M325.713 401.124l-0.958394 -6.70876c-0.752032,3.09288 -0.432,5.32914 0.958394,6.70876z"/>
  <path fill="black" d="M318.365 396.012l-1.27786 -5.75037c-0.431433,2.34539 -0.00510236,4.26218 1.27786,5.75037z"/>
  <path fill="black" d="M333.061 406.554l-1.91679 -4.15304c-0.218268,1.81276 0.420662,3.19691 1.91679,4.15304z"/>
  <path fill="black" d="M337.533 410.388l0.319465 -3.83358c-1.1778,1.70646 -1.2841,2.98432 -0.319465,3.83358z"/>
  <path fill="black" d="M344.881 419.333l-0.319465 -6.70876c1.45077,2.23625 1.01934,4.47222 0.319465,6.70876z"/>
  <path fill="black" d="M355.423 413.902l6.38929 5.11144c-3.09458,-0.498614 -5.01024,-2.47039 -6.38929,-5.11144z"/>
  <path fill="black" d="M369.799 394.415l-3.83358 -7.02822c0.125291,2.93159 1.13499,5.38158 3.83358,7.02822z"/>
  <path fill="black" d="M358.618 377.164c4.94674,4.36422 10.5902,7.16117 17.2511,7.66715 -5.37733,-1.80992 -11.0211,-4.15247 -17.2511,-7.66715z"/>
  <path fill="black" d="M365.327 377.164c-5.12249,-1.05165 -8.53002,-4.2463 -10.2229,-9.58394 2.55543,4.04646 5.96268,7.24111 10.2229,9.58394z"/>
  <path fill="black" d="M370.438 402.082c-3.31767,0.92863 -4.37641,-1.52986 -5.11144,-4.47251 1.38274,2.13222 2.87263,4.04986 5.11144,4.47251z"/>
  <path fill="black" d="M358.937 392.179c0.649134,-3.19777 -0.415843,-5.96637 -3.19465,-8.30608 1.9165,3.19465 2.98177,5.96325 3.19465,8.30608z"/>
  <path fill="black" d="M352.868 372.372c0.300473,-3.30662 -0.604914,-5.75632 -2.87518,-7.34769 1.38416,2.02309 2.34255,4.47222 2.87518,7.34769z"/>
  <path fill="black" d="M355.743 365.663c-6.56618,-1.85641 -9.76678,-6.62882 -9.90341,-14.0564 1.38359,6.60246 5.11059,10.8618 9.90341,14.0564z"/>
  <path fill="black" d="M334.019 332.758c-2.7788,-7.06933 -8.79903,-11.4854 -16.2927,-14.6954 6.92192,4.52551 12.7786,9.31692 16.2927,14.6954z"/>
  <path fill="black" d="M343.284 346.176l-3.51411 -9.90341c2.67137,3.30095 3.84236,6.60189 3.51411,9.90341zm-15.9732 -13.0981c6.68381,2.42362 12.2893,6.38759 15.9732,13.0981 -4.84555,-5.32488 -10.2764,-9.47793 -15.9732,-13.0981z"/>
  <path fill="black" d="M318.046 315.188c0.774993,-5.00542 -1.59874,-10.0103 -5.11144,-15.0148 2.55543,5.00485 4.25906,10.0094 5.11144,15.0148z"/>
  <path fill="black" d="M324.116 325.091l-0.319465 -9.58394c1.17751,3.40895 1.28438,6.60359 0.319465,9.58394z"/>
  <path fill="black" d="M332.741 334.036l2.55572 15.0148c-2.13732,-4.57625 -2.98914,-9.58082 -2.55572,-15.0148z"/>
  <path fill="black" d="M339.131 344.898l3.51411 10.2229c-2.24277,-2.76435 -3.41377,-6.17188 -3.51411,-10.2229z"/>
  <path fill="black" d="M345.839 352.245l-9.90341 -5.75037c2.65805,3.41688 5.959,5.33367 9.90341,5.75037z"/>
  <path fill="black" d="M346.798 373.011l1.27786 3.83358c0.431433,-1.49216 0.00566929,-2.77002 -1.27786,-3.83358z"/>
  <path fill="black" d="M320.602 338.189l2.23625 6.06983c0.325984,-2.23739 -0.418961,-4.26047 -2.23625,-6.06983z"/>
  <path fill="black" d="M341.047 368.538l-0.958394 -3.19465c1.39068,0.635811 1.71014,1.70079 0.958394,3.19465z"/>
  <path fill="black" d="M351.59 381.636l-0.958394 -3.51411c1.39068,0.956977 1.71014,2.12797 0.958394,3.51411z"/>
  <path fill="black" d="M304.628 308.798l-0.638929 -7.66715c1.49839,2.77002 1.71128,5.32573 0.638929,7.66715z"/>
  <path fill="black" d="M310.698 299.853l0.638929 4.79197c0.699024,-1.86548 0.378425,-3.35537 -0.638929,-4.79197z"/>
  <path fill="black" d="M335.297 360.871l4.47251 2.55572c-1.91906,0.219685 -3.4098,-0.631843 -4.47251,-2.55572z"/>
  <path fill="black" d="M344.242 361.19l-5.11144 -3.19465c2.34624,-0.00680315 4.05014,1.05789 5.11144,3.19465z"/>
  <path fill="black" d="M374.272 394.415l-2.87518 -3.19465c0.315213,1.92161 1.27361,2.98658 2.87518,3.19465z"/>
  <path fill="black" d="M299.836 298.575c1.77222,-2.69065 0.59726,-5.08621 -1.91679,-7.34769 1.49074,2.44914 2.12967,4.89799 1.91679,7.34769z"/>
  <path fill="black" d="M320.921 332.119c-3.17934,0.118488 -4.29506,-2.1206 -4.47251,-5.4309 1.06469,2.66202 2.55515,4.47222 4.47251,5.4309z"/>
  <path fill="black" d="M322.518 327.327c-3.25758,-0.229039 -4.74633,-2.52114 -5.4309,-5.75037 1.38416,2.34284 3.19436,4.25934 5.4309,5.75037z"/>
  <path fill="black" d="M299.836 380.358l-2.55572 -3.83358c-0.219685,2.13506 0.631843,3.41292 2.55572,3.83358z"/>
  <path fill="black" d="M280.349 370.135c-2.35276,-0.204095 -3.204,-1.908 -2.55572,-5.11144 0.425764,2.12939 1.27729,3.83301 2.55572,5.11144z"/>
  <path fill="black" d="M286.738 375.247c-2.16595,-1.02983 -2.64302,-3.74684 -2.23625,-7.34769 0.319181,2.44914 1.06469,4.89799 2.23625,7.34769z"/>
  <path fill="black" d="M307.823 289.95l-2.23625 -6.06983c-0.112252,2.6657 0.632977,4.68879 2.23625,6.06983z"/>
  <path fill="black" d="M311.337 296.659l-1.91679 -1.91679c1.06753,-0.00396851 1.70646,0.634961 1.91679,1.91679z"/>
  <path fill="black" d="M303.031 283.241l-1.91679 -7.66715c-0.298772,2.74337 0.0717166,5.3521 1.91679,7.66715z"/>
  <path fill="black" d="M292.169 283.241l-1.27786 -4.15304c1.71128,1.38416 2.13732,2.76832 1.27786,4.15304z"/>
  <path fill="black" d="M297.281 271.74c-3.62806,-2.93669 -1.80879,-6.01569 -2.23625,-10.2229 0.745229,3.40753 0.212882,6.49559 2.23625,10.2229z"/>
  <path fill="black" d="M288.655 250.017l1.59732 13.737c-1.60356,-3.72132 -2.13562,-8.30013 -1.59732,-13.737z"/>
  <path fill="black" d="M285.461 253.531l-4.15304 -13.4175c0.526961,5.3297 1.91112,9.80221 4.15304,13.4175z"/>
  <path fill="black" d="M280.988 257.045l1.27786 4.15304c-1.28608,-0.965764 -1.71071,-2.34482 -1.27786,-4.15304z"/>
  <path fill="black" d="M280.988 246.503l7.66715 2.87518c-2.77002,0.327402 -5.32573,-0.630709 -7.66715,-2.87518z"/>
  <path fill="black" d="M268.848 220.307c4.64117,5.81074 1.56756,10.8176 9.58394,14.0564 -6.38929,-4.04646 -5.75037,-11.2876 -9.58394,-14.0564z"/>
  <path fill="black" d="M159.591 119.675c2.76832,5.21773 -7.34797,5.00457 -6.38929,1.27786 -3.4149,6.81364 13.1913,7.23827 6.38929,-1.27786z"/>
  <path fill="black" d="M176.007 126.395c-5.0811,-0.072567 -0.731906,-7.61301 1.68151,-5.34728 -3.72444,-5.39632 -10.9199,6.95112 -1.68151,5.34728z"/>
  <path fill="black" d="M162.001 148.046c-4.97197,1.04882 -2.39159,-7.26492 0.461764,-5.58652 -4.82202,-4.44274 -9.11934,9.18681 -0.461764,5.58652z"/>
  <path fill="black" d="M174.973 141.035c-3.29925,-3.86476 5.23616,-5.5749 5.12703,-2.2663 1.59534,-6.35981 -12.4296,-3.61503 -5.12703,2.2663z"/>
  <path fill="black" d="M205.763 175.834c-5.9366,-2.59994 1.9491,-7.39446 3.66463,-3.53651 -1.70702,-8.18618 -15.3176,0.84926 -3.66463,3.53651z"/>
  <path fill="black" d="M187.113 161.162c-3.29925,-3.86476 5.23616,-5.5749 5.12703,-2.2663 1.59534,-6.35981 -12.4296,-3.61503 -5.12703,2.2663z"/>
  <g id="_51908240">
   <ellipse id="_51910032" fill="#4C4C4C" cx="197.448" cy="142.996" rx="3.6737" ry="3.51411"/>
   <path id="_51908280" fill="black" d="M198.096 146.763c-5.9366,-2.59994 1.9491,-7.39446 3.66463,-3.53651 -1.70702,-8.18618 -15.3176,0.84926 -3.66463,3.53651z"/>
  </g>
  <g id="_51905536">
   <ellipse id="_51907296" fill="#4C4C4C" cx="205.115" cy="195.069" rx="3.6737" ry="3.51411"/>
   <path id="_51905656" fill="black" d="M205.763 198.836c-5.9366,-2.59994 1.9491,-7.39446 3.66463,-3.53651 -1.70702,-8.18618 -15.3176,0.84926 -3.66463,3.53651z"/>
  </g>
  <g id="_51902832">
   <ellipse id="_51904592" fill="#4C4C4C" cx="222.686" cy="209.445" rx="3.6737" ry="3.51411"/>
   <path id="_51902952" fill="black" d="M223.333 213.212c-5.9366,-2.59994 1.9491,-7.39446 3.66463,-3.53651 -1.70702,-8.18618 -15.3176,0.84926 -3.66463,3.53651z"/>
  </g>
  <g id="_51899944">
   <ellipse id="_51901888" fill="#4C4C4C" transform="matrix(-0.0321272 0.999484 -0.999484 -0.0321272 176.004 165.98)" rx="3.6737" ry="3.51411"/>
   <path id="_51900080" fill="black" d="M172.218 166.506c2.78929,-5.84986 7.32785,2.1858 3.41688,3.7766 8.23692,-1.4434 -0.356599,-15.3371 -3.41688,-3.7766z"/>
  </g>
  <path fill="black" d="M184.677 179.285c2.78929,-5.84986 7.32785,2.1858 3.41688,3.7766 8.23692,-1.4434 -0.356599,-15.3371 -3.41688,-3.7766z"/>
  <g id="_50261792">
   <ellipse id="_51897992" fill="#4C4C4C" transform="matrix(0.0321272 -0.999484 0.999484 0.0321272 229.081 178.072)" rx="3.6737" ry="3.51411"/>
   <path id="_51896288" fill="black" d="M232.867 177.546c-2.78929,5.84986 -7.32785,-2.1858 -3.41688,-3.7766 -8.23692,1.4434 0.356599,15.3371 3.41688,3.7766z"/>
  </g>
  <path fill="black" d="M209.794 161.162c-1.64948,-1.9321 -1.61773,-3.96539 0.40904,-4.46202 1.72772,-0.423213 4.77241,0.541418 4.71799,2.19572 1.59534,-6.35981 -12.4296,-3.61503 -5.12703,2.2663z"/>
  <g id="_51617776">
   <ellipse id="_51894392" fill="#4C4C4C" transform="matrix(0.0321272 -0.999484 0.999484 0.0321272 219.817 187.976)" rx="3.6737" ry="3.51411"/>
   <path id="_51892752" fill="black" d="M223.603 187.45c-2.78929,5.84986 -7.32785,-2.1858 -3.41688,-3.7766 -8.23692,1.4434 0.356599,15.3371 3.41688,3.7766z"/>
  </g>
  <path fill="black" d="M241.746 196.535c-4.23468,4.90592 -6.49106,-4.04277 -2.2989,-4.54451 -8.32564,-0.782079 -3.70432,14.887 2.2989,4.54451z"/>
  <path fill="black" d="M237.283 219.649c-4.35033,-2.6263 2.25043,-6.62315 3.19096,-3.4492 -0.493229,-6.53811 -11.9767,0.172913 -3.19096,3.4492z"/>
  <g id="_51613312">
   <ellipse id="_51615224" fill="#4C4C4C" transform="matrix(-0.0244241 0.759839 -0.759839 -0.0244241 233.072 232.74)" rx="3.6737" ry="3.51411"/>
   <path id="_51613448" fill="black" d="M230.194 233.14c2.1206,-4.44728 5.57093,1.66167 2.59767,2.87093 6.26202,-1.09729 -0.270992,-11.6598 -2.59767,-2.87093z"/>
  </g>
  <g id="_51610592">
   <ellipse id="_51612368" fill="#4C4C4C" transform="matrix(-0.0244241 0.759839 -0.759839 -0.0244241 258.949 230.504)" rx="3.6737" ry="3.51411"/>
   <path id="_51610728" fill="black" d="M256.07 230.904c2.1206,-4.44728 5.57093,1.66167 2.59767,2.87093 6.26202,-1.09729 -0.270992,-11.6598 -2.59767,-2.87093z"/>
  </g>
  <path fill="black" d="M254.853 215.176c-4.35033,-2.6263 2.25043,-6.62315 3.19096,-3.4492 -0.493229,-6.53811 -11.9767,0.172913 -3.19096,3.4492z"/>
  <g id="_51402072">
   <ellipse id="_51403832" fill="#4C4C4C" transform="matrix(-0.994053 -0.108898 0.108898 -0.994053 263.539 248.049)" rx="3.6737" ry="3.51411"/>
   <path id="_51402192" fill="black" d="M263.305 244.234c5.61799,3.23093 -2.7428,7.13792 -4.02803,3.11613 0.805607,8.32366 15.319,0.824032 4.02803,-3.11613z"/>
  </g>
  <ellipse fill="#4C4C4C" transform="matrix(-0.954563 -0.298008 0.298008 -0.954563 283.315 269.79)" rx="3.6737" ry="3.51411"/>
  <path fill="black" d="M283.819 266.001c4.89203,4.25084 -3.4251,5.19988 -3.91295,0.686268 -1.76825,12.1567 14.2356,5.35153 3.91295,-0.686268z"/>
  <path fill="black" d="M275.151 286.34c-3.62466,-5.37251 5.28293,-4.56577 4.66838,-0.38863 4.2154,-6.9772 -11.7972,-7.26322 -4.66838,0.38863z"/>
  <path fill="black" d="M288.718 291.717c5.03207,4.08388 -3.72416,5.90627 -4.35288,1.7314 -2.00041,7.90243 13.4014,3.51241 4.35288,-1.7314z"/>
  <path fill="black" d="M281.627 251.295l-4.15304 3.83358c2.02706,-0.420662 3.41121,-1.69852 4.15304,-3.83358z"/>
  <path fill="black" d="M283.544 253.531l-6.38929 -3.19465c1.80822,2.45736 3.93761,3.2006 6.38929,3.19465z"/>
  <path fill="#F00000" d="M97.2959 147.149c20.6586,15.2277 40.9978,17.3574 61.9762,45.6835 -10.9145,5.00599 -23.6934,7.34854 -40.572,3.83358 -7.88032,-17.5711 -19.0616,-31.0952 -30.3491,-41.8499 -5.02498,-3.51269 -8.33896,-7.13311 0.319465,-11.5007 3.94441,-1.39465 6.39185,0.952441 8.62555,3.83358z"/>
  <path fill="#8C0000" d="M116.464 188.999l6.38929 11.8202c25.3443,3.30095 38.7615,1.9165 40.2526,-4.15304 -14.1531,-19.7249 -31.7276,-29.5118 -50.4754,-39.9331 12.6247,14.8847 28.0681,14.4074 46.3224,39.2942l-3.51411 1.27786c-4.36621,-6.28328 -9.15818,-10.8618 -14.3759,-13.737 4.68539,4.57937 8.51896,9.58337 11.5007,15.0148l-6.38929 1.27786c-1.22315,-7.13481 -12.831,-12.1391 -25.2377,-24.2793 13.5238,12.6723 13.6304,16.399 20.4457,24.5988l-8.30608 -0.638929c-5.46775,-6.43607 -8.04473,-10.5732 -11.5007,-13.737 3.14646,4.73329 6.34734,9.4116 8.62555,15.0148l-6.38929 -2.87518 -7.34769 -8.94501z"/>
  <path fill="#8C0000" d="M89.6287 154.497c1.06469,-2.23625 2.44914,-3.51411 5.11144,-4.79197 1.06469,2.34284 6.60218,1.49102 5.11144,-0.638929l-2.23625 -2.55572c-5.00542,1.06526 -8.62555,3.4081 -10.2229,7.02822l2.23625 0.958394z"/>
  <path fill="#F00000" d="M185.149 351.926c-1.49102,-16.6122 -4.89855,-54.6285 6.06983,-63.254 9.58394,-5.32432 12.4591,25.7703 23.0015,39.6136l-29.0713 23.6404z"/>
  <polygon fill="#8C0000" points="186.427,328.605 189.621,352.245 191.857,350.009 "/>
  <polygon fill="#8C0000" points="195.372,330.841 196.969,346.815 198.886,345.537 "/>
  <polygon fill="#8C0000" points="198.247,311.354 200.483,342.661 203.358,339.786 "/>
  <polygon fill="#8C0000" points="203.678,323.494 206.233,338.828 208.47,335.633 "/>
  <path fill="#8C0000" d="M193.455 292.186c8.41238,12.0331 12.9915,27.2608 19.4873,40.8915l1.91679 -3.83358c-8.41267,-9.79711 -11.7139,-31.0947 -21.4041,-37.0579z"/>
  <path fill="#8C0000" d="M189.302 310.396c1.27502,-6.50778 2.76491,-12.0524 5.75037,-10.8618 -4.15304,-5.3246 -5.11144,5.00485 -5.75037,10.8618z"/>
  <g id="_51383848">
   <ellipse id="_51385424" fill="#4C4C4C" cx="328.297" cy="357.76" rx="2.96937" ry="2.84038"/>
   <path id="_51383968" fill="black" d="M328.821 360.804c-4.79821,-2.10161 1.57578,-5.97657 2.96221,-2.85846 -1.37991,-6.61663 -12.3809,0.686552 -2.96221,2.85846z"/>
  </g>
  <g id="_51381176">
   <ellipse id="_51383056" fill="#4C4C4C" cx="361.071" cy="383.72" rx="2.26479" ry="2.1664"/>
   <path id="_51381216" fill="black" d="M361.47 386.042c-3.65981,-1.60299 1.20161,-4.5584 2.25921,-2.18013 -1.0525,-5.04681 -9.44306,0.523559 -2.25921,2.18013z"/>
  </g>
  <path fill="#F00000" d="M268.848 365.663c1.75691,13.657 8.35881,31.813 22.0431,56.5453 3.62013,-12.4594 8.51868,-24.4925 14.6954,-36.0995 -14.163,-9.0516 -24.173,-12.3528 -36.7384,-20.4457z"/>
  <path fill="#8C0000" d="M276.196 383.553c3.83414,11.5013 9.37134,23.4278 16.6122,35.78l0.319465 -6.06983c-6.20816,-8.77408 -11.5829,-19.2152 -16.9316,-29.7102z"/>
  <path fill="#8C0000" d="M281.308 380.039l9.90341 22.3625 2.87518 -1.27786c-4.67944,-5.96722 -7.31311,-12.9563 -10.2229,-19.8068l-2.55572 -1.27786z"/>
  <path fill="#8C0000" d="M300.156 405.596l-7.01717 -17.2568 -3.52517 -4.7863c1.64948,6.28186 4.63096,13.2032 10.5423,22.0431z"/>
  <path fill="#8C0000" d="M277.474 373.65l14.6954 7.98662c-5.85666,-1.70362 -11.0747,-4.36592 -14.6954,-7.98662z"/>
  <path fill="#8C0000" d="M272.363 374.289c0.705544,0 1.91679,-3.90019 1.91679,-3.19465 0,0.705544 -1.53071,-0.319465 -2.23625,-0.319465 -0.705544,0 -0.958394,-0.89178 -0.958394,-1.59732 0,-0.705544 0.572315,5.11144 1.27786,5.11144z"/>
  <path fill="#8C0000" d="M278.752 377.164c0.705544,0 0.319465,0.252851 0.319465,0.958394 0,0.705544 0.386079,1.59732 -0.319465,1.59732 -0.705544,0 -1.27786,-0.572315 -1.27786,-1.27786 0,-0.705544 0.572315,-1.27786 1.27786,-1.27786z"/>
  <path fill="#8C0000" d="M273.96 376.205c0.705544,0 0.958394,1.21124 0.958394,1.91679 0,0.705544 -0.252851,1.59732 -0.958394,1.59732 -0.705544,0 -1.59732,-0.89178 -1.59732,-1.59732 0,-0.705544 0.89178,-1.91679 1.59732,-1.91679z"/>
  <path fill="#8C0000" d="M302.392 385.47l-9.26448 -1.27786c3.51411,1.70334 6.60189,2.12939 9.26448,1.27786z"/>
  <path fill="white" d="M270.765 374.289c4.47251,17.1445 11.5007,33.4369 21.0847,48.8781l1.59732 -3.83358 3.19465 2.55572c1.49074,-12.7786 8.09292,-20.4457 12.1397,-30.6686l-4.15304 -4.15304c-3.40781,10.7552 -10.2232,21.2976 -12.4591,31.9465 -9.69052,-15.8669 -14.5891,-28.8584 -21.4041,-44.7251z"/>
  <polygon fill="#8C0000" points="301.434,388.025 305.267,396.332 307.184,393.137 "/>
  <path fill="#F00000" d="M354.784 436.584c9.22366,25.8628 27.0868,55.9191 51.4338,81.783 19.1497,-74.297 29.9342,-67.1851 49.3311,-80.5094 6.73144,-4.62388 12.337,-10.6231 18.076,-17.2468 -26.4628,-10.5951 -54.7886,-19.3272 -84.6582,-26.5156 10.2226,21.4044 -5.3246,48.9847 -34.1827,42.4888z"/>
  <path fill="white" d="M466.134 417.68c2.51348,0.960662 5.01081,1.93748 7.49169,2.93074 -5.73903,6.62372 -11.3445,12.623 -18.076,17.2468 -19.3969,13.3243 -30.1813,6.21241 -49.3311,80.5094 -24.3471,-25.8639 -42.2102,-55.9202 -51.4338,-81.783 18.493,32.5256 36.2512,61.2346 50.4754,71.5601 9.21997,-46.0341 20.3831,-60.323 34.2632,-69.1555 8.89711,-5.66192 17.9357,-7.78252 26.6105,-21.3086z"/>
  <path fill="#8C0000" d="M373.952 450.002c9.18114,19.4607 21.6944,38.2558 35.1411,56.8647 -13.3781,-15.2014 -26.4495,-33.4641 -38.9747,-57.1842l3.83358 0.319465z"/>
  <path fill="#8C0000" d="M397.273 500.797c-6.54974,-10.2504 -14.1109,-19.9942 -22.3625,-29.3908 8.09207,12.1399 15.1197,22.3625 22.3625,29.3908z"/>
  <path fill="#8C0000" d="M411.649 495.046c-14.0301,-18.5026 -26.3296,-36.6591 -36.0995,-54.309l-2.55572 2.23625c12.5249,18.7957 25.2768,36.6857 38.6552,52.0728z"/>
  <path fill="black" d="M291.85 379.4l-1.27786 -6.70876c-0.780378,3.2006 -0.0861733,5.22255 1.27786,6.70876z"/>
  <polygon fill="#8C0000" points="381.3,442.015 390.564,452.557 383.536,441.696 "/>
  <path fill="#8C0000" d="M395.356 456.71l-2.55572 1.59732 23.0015 25.8766c-7.02822,-12.2462 -14.6954,-18.1032 -20.4457,-27.474z"/>
  <path fill="#8C0000" d="M392.481 440.098l-0.958394 3.51411c10.0097,8.62555 17.1445,17.5706 30.0297,25.8766 -12.5657,-12.0334 -19.381,-19.5939 -29.0713,-29.3908z"/>
  <polygon fill="#8C0000" points="396.315,435.945 418.677,455.752 419.316,451.918 398.871,435.945 "/>
  <polygon fill="#8C0000" points="416.441,440.418 431.775,452.238 422.511,441.696 "/>
  <path fill="#8C0000" d="M443.596 444.89l-41.2109 -25.2377c16.2167,5.80281 32.0318,15.8119 41.2109,25.2377z"/>
  <path fill="#8C0000" d="M406.218 412.944c20.4727,8.15953 37.8834,16.0126 49.8365,23.3209l-54.9479 -22.682 5.11144 -0.638929z"/>
  <path fill="#8C0000" d="M465.958 427l-54.9479 -16.9316c12.8843,0.212599 31.8393,6.49531 54.9479,16.9316z"/>
  <path fill="#8C0000" d="M468.194 423.167l-37.3774 -13.0981c13.5774,2.50186 26.3557,6.33515 37.3774,13.0981z"/>
  <path fill="#8C0000" d="M409.732 402.721l-10.8618 -3.19465c2.35588,3.19833 5.95616,4.25736 10.8618,3.19465z"/>
  <path fill="#8C0000" d="M380.661 436.584c-6.29462,-0.62674 -13.8555,2.56791 -23.3209,2.55572 7.29411,1.54488 15.1741,0.160158 23.3209,-2.55572z"/>
  <line fill="none" stroke="white" stroke-width="1.41732" x1="100.171" y1="73.3527" x2="100.81" y2= "69.5192" />
  <path fill="#F00000" d="M249.202 182.394l4.14936 -3.19181c24.7728,1.47912 48.2655,5.70161 70.0603,13.5652 -16.3999,21.3942 -17.8931,39.0101 -29.3647,62.2403 -13.8495,-27.6596 -28.0026,-54.364 -44.845,-72.6137z"/>
  <path fill="#8C0000" d="M279.205 223.728c-8.7378,-15.6138 -18.4467,-29.7114 -25.0557,-39.8977 7.09399,6.83178 14.98,17.7353 25.0557,39.8977z"/>
  <path fill="#8C0000" d="M322.773 194.682c-15.6932,-4.8943 -31.5992,-8.93764 -47.7176,-12.1289 16.7397,1.15824 32.6911,5.01421 47.7176,12.1289z"/>
  <path fill="#8C0000" d="M255.745 186.065c2.86923,-0.695339 6.86013,-0.268441 11.0118,0.319181 -3.93704,-1.70249 -7.87352,-2.34028 -11.8097,-1.91509l0.797953 1.59591z"/>
  <path fill="#8C0000" d="M279.365 188.139c14.3827,2.18721 29.9296,6.00407 46.4409,11.1713 -12.6972,-5.12164 -26.979,-9.7767 -46.9196,-12.7673l0.478772 1.59591z"/>
  <path fill="#8C0000" d="M318.464 210.482c-13.5938,-6.50126 -43.378,-9.99213 -53.1437,-10.533l-1.27673 -2.71304c28.7391,3.69666 50.8042,7.84517 54.4204,13.246z"/>
  <path fill="#8C0000" d="M270.587 208.088c17.5969,1.46098 32.5174,4.33361 45.0046,8.77748 -11.065,-5.63896 -26.3857,-9.14996 -45.9621,-10.533l0.957544 1.7555z"/>
  <path fill="#8C0000" d="M278.567 215.908c17.5969,1.46098 21.5056,1.30139 33.9928,5.74526 -11.065,-5.63896 -15.374,-6.11774 -34.9503,-7.50076l0.957544 1.7555z"/>
  <path fill="#8C0000" d="M282.078 225.005c8.8183,0.982772 12.6173,-0.0283465 28.5667,2.87263 -12.1416,-4.10599 -16.3879,-3.87355 -29.5243,-4.62813l0.957544 1.7555z"/>
  <path fill="#8C0000" d="M283.833 229.314c5.94567,0.663591 12.7769,-0.347528 25.8537,2.23427 -13.2588,-3.9464 -15.7496,-3.23518 -26.8112,-3.98977l0.957544 1.7555z"/>
  <path fill="#8C0000" d="M285.748 233.782c6.74363,-0.134362 10.7022,0.290835 20.9064,1.7555 -11.8225,-3.78681 -14.9516,-3.23518 -21.8639,-3.51099l0.957544 1.7555z"/>
  <path fill="#8C0000" d="M287.185 237.931c4.82854,-0.453544 10.2234,0.290835 16.757,1.59591 -5.27925,-2.51008 -12.3982,-3.39477 -17.7146,-3.51099l0.957544 1.91509z"/>
  <path fill="#8C0000" d="M290.855 245.751c3.39222,-0.772725 6.87203,0.131244 10.3734,0.319181 -3.84293,-1.55254 -7.61046,-2.43723 -11.3309,-2.23427l0.957544 1.91509z"/>
  <path fill="#8C0000" d="M289.738 241.442c2.75386,-0.453544 7.66999,0.131244 12.4481,1.11713 -5.27925,-2.51008 -8.568,-2.916 -13.4056,-3.03222l0.957544 1.91509z"/>
  <path fill="#8C0000" d="M292.451 250.06c3.0515,-0.432851 3.08778,-0.0748347 6.70281,0 -3.84293,-1.18006 -3.94016,-1.63956 -7.66035,-1.91509l0.957544 1.91509z"/>
  <path fill="white" d="M98.5737 166.956c-3.50901,-5.64775 -7.44605,-10.9749 -14.3759,-14.0564 0.478488,9.0516 7.50615,9.05131 14.3759,14.0564z"/>
  <path fill="white" d="M117.742 194.11c-3.03449,-1.91594 -7.72044,-10.5421 -15.3343,-21.7236 6.06983,6.92164 10.8618,14.1627 15.3343,21.7236z"/>
  <path fill="none" stroke="white" stroke-width="0.510236" d="M72.3776 91.5622c4.04703,-14.2693 2.556,-28.9647 -4.47251,-44.0861"/>
  <path fill="none" stroke="white" stroke-width="0.992126" d="M78.128 124.787c0.744945,3.61984 1.91594,5.9624 3.51411,7.02822"/>
  <path fill="none" stroke="white" stroke-width="0.992126" d="M69.8219 123.828c0.212882,2.02309 0.851811,3.62041 1.91679,4.79197"/>
  <path fill="none" stroke="white" stroke-width="0.992126" d="M79.4058 134.69c-2.12967,-1.70362 -4.04646,-5.43062 -4.47251,-7.98662"/>
  <path fill="black" d="M448.516 58.6574c-0.441071,-4.2823 2.23115,-3.89424 -3.19465,-15.6538l-2.23625 1.91679c4.20066,2.18835 4.70693,8.07109 5.4309,13.737z"/>
  <path fill="black" d="M427.59 47.1592l-5.75037 4.47251c-1.06469,-4.89827 0.851811,-6.38873 5.75037,-4.47251z"/>
  <circle fill="black" cx="429.186" cy="45.7206" r="1.43745"/>
  <path fill="black" d="M390.051 79.1031c-4.15304,8.83871 1.59732,18.3161 11.5007,9.26448l2.23625 1.27786c-9.58394,9.79824 -19.1676,2.98375 -16.9316,-10.8618l3.19465 0.319465z"/>
  <path fill="black" d="M407.462 81.6577l1.91679 1.27786c4.47251,-9.90341 -4.47251,-22.3625 -15.3343,-12.4591l2.23625 0.638929c6.24076,-6.70819 14.5746,1.27814 11.1813,10.5423z"/>
  <path fill="black" d="M397.057 73.3451l-4.87247 3.52403c6.5469,13.7716 20.3151,5.62196 11.5223,-4.90649l-4.15191 -0.333921 0.430583 4.72961 -2.92847 -3.01323z"/>
  <path fill="black" d="M434.46 120.634l-1.91679 4.15304c-11.363,5.27131 -17.7174,8.67912 -28.7518,7.98662 -11.7661,0.478205 -22.6273,-5.69906 -28.4324,-17.2511 -1.49046,-4.68539 -1.59676,-9.47736 -4.79197,-12.4591 1.06554,-4.36536 0.958961,-9.90256 0.319465,-15.9732 1.97065,3.56712 3.14192,8.46539 2.55572,16.2927 2.69773,5.43118 3.40866,11.2887 8.94501,17.5706 3.35367,5.16501 13.0442,10.3827 22.3625,9.58394 8.46652,0.53263 15.6016,-0.532347 19.8068,-5.11144l5.75037 -1.59732 4.15304 -3.19465z"/>
  <path fill="black" d="M424.237 142.357c-11.4996,8.66948 -17.8846,1.4091 -25.8766,2.55572 -4.79084,-0.635244 -10.3272,-0.952441 -15.9732,-4.15304 -7.74964,-7.76807 -14.406,-17.0297 -17.89,-36.7384 1.27814,-4.04646 1.27843,-8.51896 0,-13.4175 1.17354,-2.23625 1.59874,-4.47222 1.91679,-6.70876l0.319465 7.98662c0.70441,5.2835 0.485008,9.6429 0.319465,14.0564 2.28898,14.7501 8.35909,23.8014 16.6122,32.5854 3.62069,2.66202 9.47764,3.40753 13.737,4.47251 7.24139,0.212882 9.0516,1.38416 14.3759,0.958394 4.15332,-0.422362 8.30637,0.534331 12.4591,-1.59732z"/>
  <path fill="black" d="M389.734 154.816l-1.91679 0.958394c-19.2331,-4.91641 -27.7716,-5.24013 -27.7934,-49.517 -1.59761,-7.34797 -2.34284,-10.8615 0.319465,-15.6538l1.91679 -0.638929c-3.52715,5.64066 -1.2858,11.0733 0.319465,17.5706 -3.40725,31.6704 5.4669,43.2491 24.5988,44.7251l2.55572 2.55572z"/>
  <path fill="black" d="M135.441 436.904l0.319465 -12.1397c1.39521,3.61758 1.61008,7.34202 -0.319465,12.1397z"/>
  <path fill="black" d="M130.649 435.945l-0.638929 -9.90341c1.17808,2.97921 1.71269,7.24564 0.638929,9.90341z"/>
  <path fill="black" d="M124.259 434.348l-0.638929 -9.90341c0.536032,3.30066 2.57244,6.28016 0.638929,9.90341z"/>
  <path fill="black" d="M140.233 436.904l1.59732 -13.4175c0.861733,4.47222 0.651118,9.26646 -1.59732,13.4175z"/>
  <path fill="black" d="M120.426 431.792l-0.319465 -11.1813c1.50406,4.15588 2.25666,7.88202 0.319465,11.1813z"/>
  <path fill="black" d="M118.189 411.346c-3.64167,5.64378 -4.2806,11.2873 -1.91679,16.9316 -0.319465,-5.64407 0.638929,-11.2878 1.91679,-16.9316z"/>
  <path fill="#F00000" d="M219.14 366.621c-1.75691,13.657 -7.71988,29.5767 -19.8068,45.6835 -3.62013,-12.4594 -8.83815,-13.9501 -23.3209,-19.4873 14.163,-9.0516 30.5623,-18.1032 43.1277,-26.1961z"/>
  <path fill="black" d="M113.398 412.305l-1.27786 9.90341c2.14158,-2.87206 2.56734,-6.17301 1.27786,-9.90341z"/>
  <path fill="black" d="M118.828 432.431l8.30608 -4.79197c-1.15994,2.24079 -4.25027,4.48158 -8.30608,4.79197z"/>
  <line fill="none" stroke="black" stroke-width="1.41732" x1="132.885" y1="430.834" x2="125.857" y2= "434.667" />
  <path fill="black" d="M109.244 415.499l6.70876 -2.55572c-1.37821,2.56762 -3.61418,3.41915 -6.70876,2.55572z"/>
  <path fill="black" d="M112.439 420.291l9.26448 -4.15304c-2.2303,3.09969 -5.3178,4.48384 -9.26448,4.15304z"/>
  <path fill="black" d="M116.592 402.721l5.75037 -5.75037c0.657071,2.77484 -1.25972,4.69162 -5.75037,5.75037z"/>
  <path fill="black" d="M108.606 410.069l4.79197 -1.91679c-1.16816,1.92586 -2.76548,2.56479 -4.79197,1.91679z"/>
  <path fill="black" d="M113.398 402.721l-4.15304 -0.638929c1.38416,1.92869 2.76832,2.14129 4.15304,0.638929z"/>
  <polygon fill="#8C0000" points="177.162,391.859 219.97,366.621 218.054,373.011 206.553,375.886 203.997,380.039 199.844,381.636 198.247,384.511 192.496,383.872 186.746,391.22 182.912,390.262 "/>
  <path fill="black" d="M138.955 427.959l8.94501 -0.958394c-2.55288,2.03556 -5.53493,2.35502 -8.94501,0.958394z"/>
  <path fill="black" d="M137.677 424.444l19.4873 -7.34769c-6.01257,4.3801 -12.6159,6.39978 -19.4873,7.34769z"/>
  <line fill="none" stroke="black" stroke-width="1.41732" x1="157.164" y1="411.985" x2="161.317" y2= "410.707" />
  <path fill="black" d="M173.457 401.124l0.958394 -6.70876c0.539717,2.65947 0.218835,4.89997 -0.958394,6.70876z"/>
  <line fill="none" stroke="black" stroke-width="1.41732" x1="161.317" y1="406.554" x2="161.637" y2= "410.388" />
  <line fill="none" stroke="black" stroke-width="1.41732" x1="154.608" y1="412.624" x2="154.289" y2= "419.333" />
  <path fill="black" d="M143.747 417.416l-6.06983 2.55572c2.45225,0.434551 4.47591,-0.41726 6.06983,-2.55572z"/>
  <line fill="none" stroke="black" stroke-width="1.41732" x1="187.833" y1="304.645" x2="188.472" y2= "299.853" />
  <path fill="black" d="M199.334 380.358l2.55572 -3.83358c0.00623622,1.70674 -0.845292,2.9846 -2.55572,3.83358z"/>
  <path fill="black" d="M207.32 379.4l1.27786 -6.70876c0.861449,1.80709 0.435118,4.04334 -1.27786,6.70876z"/>
  <path fill="black" d="M218.821 370.135c2.62517,-0.467717 3.14929,-1.15087 2.55572,-5.11144 -0.425764,2.12939 -1.27729,3.83301 -2.55572,5.11144z"/>
  <path fill="black" d="M212.432 375.247l2.23625 -7.34769c0.538866,2.44885 -0.206362,4.8977 -2.23625,7.34769z"/>
  <path fill="black" d="M343.432 121.907c-0.00793701,-5.90655 -8.83786,-0.964914 -6.24076,1.87427 -6.21581,-4.41014 8.24372,-12.5875 6.24076,-1.87427z"/>
  <path fill="black" d="M350.957 119.367c5.0811,-0.072567 0.731906,-7.61301 -1.68151,-5.34728 3.72444,-5.39632 10.9199,6.95112 1.68151,5.34728z"/>
  <path fill="black" d="M323.432 171.686c4.97197,1.04882 2.39159,-7.26492 -0.461764,-5.58652 4.82202,-4.44274 9.11934,9.18681 0.461764,5.58652z"/>
  <path fill="black" d="M327.408 138.863c4.56945,-2.22321 -2.57017,-7.20369 -3.79304,-4.12725 1.08057,-6.46725 12.8381,1.65628 3.79304,4.12725z"/>
  <path fill="black" d="M301.406 173.042c5.05758,0.492378 1.57323,-7.4846 -1.07717,-5.50092 4.30101,-4.94901 10.08,8.12126 1.07717,5.50092z"/>
  <g id="_50260960">
   <ellipse id="_50261920" fill="#4C4C4C" transform="matrix(0.420911 -0.907102 -0.907102 -0.420911 322.072 153.214)" rx="3.6737" ry="3.51411"/>
   <path id="_50261080" fill="black" d="M318.928 151.04c-0.140315,6.47944 7.52769,1.34419 4.7503,-1.83572 6.70734,4.99436 -7.21758,13.5371 -4.7503,1.83572z"/>
  </g>
  <g id="_50258240">
   <ellipse id="_50260016" fill="#4C4C4C" transform="matrix(-0.280477 -0.959861 -0.959861 0.280477 340.018 149.692)" rx="3.6737" ry="3.51411"/>
   <path id="_50258376" fill="black" d="M336.221 150.127c4.16041,4.96885 6.55059,-3.94526 2.36636,-4.50964 8.3367,-0.657355 3.48123,14.9409 -2.36636,4.50964z"/>
  </g>
  <path fill="black" d="M300.533 152.893c5.2458,3.8058 5.39235,-5.42183 1.19679,-4.95014 7.92511,-2.66825 7.01575,13.6429 -1.19679,4.95014z"/>
  <path fill="#F00000" d="M401.874 147.149c-20.6586,15.2277 -40.9978,17.3574 -61.9762,45.6835 10.9145,5.00599 23.6934,7.34854 40.572,3.83358 7.88032,-17.5711 19.0616,-31.0952 30.3491,-41.8499 5.02498,-3.51269 8.33896,-7.13311 -0.319465,-11.5007 -3.94441,-1.39465 -6.39185,0.952441 -8.62555,3.83358z"/>
  <path fill="#8C0000" d="M382.706 188.999l-6.38929 11.8202c-25.3443,3.30095 -38.7615,1.9165 -40.2526,-4.15304 14.1531,-19.7249 31.7276,-29.5118 50.4754,-39.9331 -12.6247,14.8847 -28.0681,14.4074 -46.3224,39.2942l3.51411 1.27786c4.36621,-6.28328 9.15818,-10.8618 14.3759,-13.737 -4.68539,4.57937 -8.51896,9.58337 -11.5007,15.0148l6.38929 1.27786c1.22315,-7.13481 12.831,-12.1391 25.2377,-24.2793 -13.5238,12.6723 -13.6304,16.399 -20.4457,24.5988l8.30608 -0.638929c5.46775,-6.43607 8.04473,-10.5732 11.5007,-13.737 -3.14646,4.73329 -6.34734,9.4116 -8.62555,15.0148l6.38929 -2.87518 7.34769 -8.94501z"/>
  <path fill="#8C0000" d="M409.541 154.497c-1.06469,-2.23625 -2.44914,-3.51411 -5.11144,-4.79197 -1.06469,2.34284 -6.60218,1.49102 -5.11144,-0.638929l2.23625 -2.55572c5.00542,1.06526 8.62555,3.4081 10.2229,7.02822l-2.23625 0.958394z"/>
  <g id="_50251024">
   <ellipse id="_50252784" fill="#4C4C4C" cx="174.706" cy="353.287" rx="2.96937" ry="2.84038"/>
   <path id="_50251144" fill="black" d="M174.183 356.332c4.79821,-2.10161 -1.57578,-5.97657 -2.96221,-2.85846 1.37991,-6.61663 12.3809,0.686552 2.96221,2.85846z"/>
  </g>
  <g id="_51607976">
   <ellipse id="_50250232" fill="#4C4C4C" cx="143.211" cy="390.429" rx="2.26479" ry="2.1664"/>
   <path id="_51608096" fill="black" d="M142.811 392.751c3.65981,-1.60299 -1.20161,-4.5584 -2.25921,-2.18013 1.0525,-5.04681 9.44306,0.523559 2.25921,2.18013z"/>
  </g>
  <path fill="#F00000" d="M144.386 436.584c-9.22366,25.8628 -27.0868,55.9191 -51.4338,81.783 -19.1497,-74.297 -29.9342,-67.1851 -49.3311,-80.5094 -6.73144,-4.62388 -12.337,-10.6231 -18.076,-17.2468 26.4628,-10.5951 54.7886,-19.3272 84.6582,-26.5156 -10.2226,21.4044 5.3246,48.9847 34.1827,42.4888z"/>
  <path fill="white" d="M92.9518 518.367c24.3471,-25.8639 42.2102,-55.9202 51.4338,-81.783 -18.493,32.5256 -39.1264,63.7903 -53.3506,74.1158l1.91679 7.66715z"/>
  <path fill="#8C0000" d="M125.218 450.002c-9.18114,19.4607 -21.6944,38.2558 -35.1411,56.8647 13.3781,-15.2014 26.4495,-33.4641 38.9747,-57.1842l-3.83358 0.319465z"/>
  <path fill="#8C0000" d="M101.897 500.797c6.54974,-10.2504 14.1109,-19.9942 22.3625,-29.3908 -8.09207,12.1399 -15.1197,22.3625 -22.3625,29.3908z"/>
  <path fill="#8C0000" d="M87.5209 495.046c14.0301,-18.5026 26.3296,-36.6591 36.0995,-54.309l2.55572 2.23625c-12.5249,18.7957 -25.2768,36.6857 -38.6552,52.0728z"/>
  <polygon fill="#8C0000" points="117.87,442.015 108.606,452.557 115.634,441.696 "/>
  <path fill="#8C0000" d="M103.814 456.71l2.55572 1.59732 -23.0015 25.8766c7.02822,-12.2462 14.6954,-18.1032 20.4457,-27.474z"/>
  <path fill="#8C0000" d="M106.689 440.098l0.958394 3.51411c-10.0097,8.62555 -17.1445,17.5706 -30.0297,25.8766 12.5657,-12.0334 19.381,-19.5939 29.0713,-29.3908z"/>
  <polygon fill="#8C0000" points="102.855,435.945 80.4926,455.752 79.8537,451.918 100.299,435.945 "/>
  <polygon fill="#8C0000" points="82.7289,440.418 67.3946,452.238 76.6591,441.696 "/>
  <path fill="#8C0000" d="M55.5744 444.89l41.2109 -25.2377c-16.2167,5.80281 -32.0318,15.8119 -41.2109,25.2377z"/>
  <path fill="#8C0000" d="M92.9518 412.944c-20.4727,8.15953 -37.8834,16.0126 -49.8365,23.3209l54.9479 -22.682 -5.11144 -0.638929z"/>
  <path fill="#8C0000" d="M33.2119 427l54.9479 -16.9316c-12.8843,0.212599 -31.8393,6.49531 -54.9479,16.9316z"/>
  <path fill="#8C0000" d="M30.9756 423.167l37.3774 -13.0981c-13.5774,2.50186 -26.3557,6.33515 -37.3774,13.0981z"/>
  <path fill="#8C0000" d="M89.4377 402.721l10.8618 -3.19465c-2.35588,3.19833 -5.95616,4.25736 -10.8618,3.19465z"/>
  <path fill="#8C0000" d="M118.509 436.584c6.29462,-0.62674 13.8555,2.56791 23.3209,2.55572 -7.29411,1.54488 -15.1741,0.160158 -23.3209,-2.55572z"/>
  <line fill="none" stroke="white" stroke-width="1.41732" x1="392.456" y1="76.0658" x2="391.817" y2= "72.2322" />
  <path fill="white" d="M381.428 194.11c3.03449,-1.91594 7.72044,-10.5421 15.3343,-21.7236 -6.06983,6.92164 -10.8618,14.1627 -15.3343,21.7236z"/>
  <path fill="none" stroke="white" stroke-width="0.510236" d="M426.792 91.5622c-4.04703,-14.2693 -2.556,-28.9647 4.47251,-44.0861"/>
  <g id="_50014616">
   <ellipse id="_50016304" fill="#4C4C4C" cx="168.078" cy="343.268" rx="2.96937" ry="2.84038"/>
   <path id="_50014736" fill="black" d="M168.601 340.224c-4.79821,2.10161 1.57578,5.97657 2.96221,2.85846 -1.37991,6.61663 -12.3809,-0.686552 -2.96221,-2.85846z"/>
  </g>
  <g id="_50012056">
   <ellipse id="_50013744" fill="#4C4C4C" transform="matrix(0.759885 0.275476 0.39824 -1.09852 159.409 357.035)" rx="3.6737" ry="3.51411"/>
   <path id="_50012176" fill="black" d="M161.401 353.075c-5.54627,1.22088 -1.46324,8.65985 1.3765,4.8943 -4.55726,8.52265 -11.3015,-5.15254 -1.3765,-4.8943z"/>
  </g>
  <g id="_50248744">
   <ellipse id="_50249632" fill="#4C4C4C" cx="178.62" cy="335.601" rx="2.96937" ry="2.84038"/>
   <path id="_50248864" fill="black" d="M179.144 332.557c-4.79821,2.10161 1.57578,5.97657 2.96221,2.85846 -1.37991,6.61663 -12.3809,-0.686552 -2.96221,-2.85846z"/>
  </g>
  <g id="_50246336">
   <ellipse id="_50248024" fill="#4C4C4C" cx="180.857" cy="317.711" rx="2.96937" ry="2.84038"/>
   <path id="_50246456" fill="black" d="M181.38 314.667c-4.79821,2.10161 1.57578,5.97657 2.96221,2.85846 -1.37991,6.61663 -12.3809,-0.686552 -2.96221,-2.85846z"/>
  </g>
  <g id="_50243928">
   <ellipse id="_50245616" fill="#4C4C4C" transform="matrix(0.759885 0.275476 0.39824 -1.09852 158.451 371.411)" rx="3.6737" ry="3.51411"/>
   <path id="_50244048" fill="black" d="M160.443 367.451c-5.54627,1.22088 -1.46324,8.65985 1.3765,4.8943 -4.55726,8.52265 -11.3015,-5.15254 -1.3765,-4.8943z"/>
  </g>
  <g id="_51363688">
   <ellipse id="_50243072" fill="#4C4C4C" cx="125.32" cy="407.36" rx="2.26479" ry="2.1664"/>
   <path id="_51363808" fill="black" d="M124.921 409.682c3.65981,-1.60299 -1.20161,-4.5584 -2.25921,-2.18013 1.0525,-5.04681 9.44306,0.523559 2.25921,2.18013z"/>
  </g>
  <g id="_51360784">
   <ellipse id="_51362680" fill="#4C4C4C" transform="matrix(0.0768046 -0.769888 -0.769888 -0.0768046 128.259 392.854)" rx="3.6737" ry="3.51411"/>
   <path id="_51360904" fill="black" d="M125.409 392.067c1.54573,4.77014 5.84249,-0.932882 3.00416,-2.55005 6.17131,1.94315 -1.83033,11.7278 -3.00416,2.55005z"/>
  </g>
  <path fill="black" d="M154.8 412.944l-0.958394 7.66715c1.60611,-2.87717 1.92558,-5.11115 0.958394,-7.66715z"/>
  <path fill="black" d="M170.773 391.22l-6.06983 17.5706c3.7389,-5.42778 5.76227,-11.2844 6.06983,-17.5706z"/>
  <path fill="black" d="M162.467 410.069l-14.3759 6.06983c5.22085,-0.736158 10.0125,-2.75925 14.3759,-6.06983z"/>
  <path fill="black" d="M162.147 392.179l-1.59959 2.87518c2.03443,0.328536 2.13874,-2.23852 1.59959,-2.87518z"/>
  <path fill="black" d="M179.718 376.205l3.51411 -8.94501c0.443906,4.05808 -1.37339,6.60898 -3.51411,8.94501z"/>
  <path fill="black" d="M193.774 367.26l-6.70876 1.27786c2.66514,0.432567 4.9011,0.00623622 6.70876,-1.27786z"/>
  <path fill="black" d="M204.317 354.162l-1.91679 7.98662c0.319465,-1.33087 1.28296,-2.01912 1.60186,-3.99317 0.218268,-1.35071 -0.00453544,-2.6623 0.314929,-3.99345z"/>
  <path fill="black" d="M176.523 385.789l-2.87518 0.638929c1.28013,0.752315 2.56025,0.217701 2.87518,-0.638929z"/>
  <path fill="black" d="M182.273 379.719l-4.15304 0.958394c1.70589,0.645733 3.7338,0.326268 4.15304,-0.958394z"/>
  <path fill="black" d="M195.691 377.483l-7.66715 1.59732c2.9846,0.754583 5.54032,0.222236 7.66715,-1.59732z"/>
  <path fill="black" d="M208.47 359.593l-2.87518 13.0981c1.60186,-4.04419 2.88199,-8.41011 2.87518,-13.0981z"/>
  <path fill="black" d="M216.134 356.068l-1.59506 10.2342c0.638929,-2.87518 2.56479,-6.71556 1.59506,-10.2342z"/>
  <path fill="black" d="M196.01 366.302l3.51411 -7.98662c-0.206079,2.66202 -0.73389,5.32432 -3.51411,7.98662z"/>
  <path fill="black" d="M151.285 408.471l-0.638929 3.19465c1.17808,-1.06469 1.39096,-1.80794 0.638929,-3.19465z"/>
  <path fill="black" d="M158.953 408.471l-3.19465 -4.79197c0.607465,1.59732 0.756567,3.19408 3.19465,4.79197z"/>
  <path fill="black" d="M207.192 371.094l-14.6954 0.958394c5.86347,0.967465 9.15336,0.648 14.6954,-0.958394z"/>
  <path fill="black" d="M174.606 381.956l0.319465 -4.47251c0.751748,1.49046 0.644882,2.9812 -0.319465,4.47251z"/>
  <path fill="#7F7F7F" d="M188.982 369.497l0 4.47251c0.965197,-1.49074 0.965197,-3.30321 0,-4.47251z"/>
  <path fill="#666666" d="M192.177 361.19l-0.319465 3.19465c1.0715,-1.06469 1.17808,-1.48621 0.319465,-3.19465z"/>
  <path fill="#8C0000" d="M197.608 406.235c4.57909,-6.92192 8.83871,-18.6355 13.737,-24.5988 -4.36592,11.128 -8.73156,20.073 -13.0981,27.7934l-0.638929 -3.19465z"/>
  <polygon fill="#8C0000" points="199.525,388.025 192.177,402.401 189.941,401.124 196.01,388.664 "/>
  <path fill="#7F7F7F" d="M157.355 398.887l-7.66715 2.87518c3.19918,0.650268 6.39837,-0.308126 7.66715,-2.87518z"/>
  <path fill="black" d="M148.091 406.235l-2.87518 7.02822c-0.00680315,-2.98602 0.629859,-5.32885 2.87518,-7.02822z"/>
  <path fill="black" d="M169.175 392.498l-3.83358 1.27786c2.88652,0.861166 2.87745,-0.208347 3.83358,-1.27786z"/>
  <path fill="black" d="M185.468 381.317l0.958394 -5.4309c0.538583,2.23909 0.219118,4.04929 -0.958394,5.4309z"/>
  <path fill="#666666" d="M205.914 357.676l7.98662 -5.75037c-1.69682,2.23852 -4.35912,5.44224 -7.98662,5.75037z"/>
  <path fill="#666666" d="M167.898 389.303l0.319465 -5.75037c1.50888,1.91679 0.756,3.83329 -0.319465,5.75037z"/>
  <path fill="#4C4C4C" d="M247.125 353.843l-27.7934 -25.5572 0.81978 11.5977 1.56983 -6.62627 4.34466 5.87169 -1.18715 6.64158 5.71153 -0.526961 2.31874 3.1337 -1.11373 3.86532 3.92429 -0.0671811 5.01619 6.77906c2.556,-1.27814 4.68596,-2.98233 6.38929,-5.11144z"/>
  <path fill="black" d="M229.235 340.424l-1.27786 20.4474c2.08743,-6.86863 2.62035,-13.5765 1.27786,-20.4474z"/>
  <path fill="black" d="M219.651 357.996c8.22388,-1.60356 15.8309,-2.77597 26.1992,-2.87518 -8.3041,2.24504 -17.0368,3.20343 -26.1992,2.87518z"/>
  <path fill="black" d="M241.377 350.009l-18.5318 0.958678c6.60586,1.39635 12.7831,1.0766 18.5318,-0.958678z"/>
  <path fill="black" d="M222.526 340.745l-2.23625 5.11144c2.13931,-1.91821 2.56309,-3.62183 2.23625,-5.11144z"/>
  <path fill="black" d="M223.484 363.107c7.68133,0.135496 13.6443,-4.01868 17.8926,-12.4614 -1.57663,3.72699 -11.1838,11.2884 -17.8926,12.4614z"/>
  <path fill="black" d="M227.957 356.079l-2.87518 9.58394c-0.221386,-2.76577 0.0932599,-5.96013 2.87518,-9.58394z"/>
  <path fill="black" d="M227.637 358.954l10.8618 0.638929c-3.61984,1.5035 -7.24026,1.29005 -10.8618,-0.638929z"/>
  <path fill="black" d="M233.388 365.343l-4.47251 0.958394c1.16901,-0.96293 2.98148,-1.60413 4.47251,-0.958394z"/>
  <g id="_50912856">
   <ellipse id="_50978160" fill="#4C4C4C" transform="matrix(-0.993927 0.110038 0.110038 0.993927 287.699 177.262)" rx="3.6737" ry="3.51411"/>
   <path id="_50912976" fill="black" d="M287.47 181.078c5.6143,-3.23745 -2.75103,-7.13481 -4.03172,-3.11159 0.795969,-8.32451 15.3181,-0.841607 4.03172,3.11159z"/>
  </g>
  <g id="_50306392">
   <ellipse id="_50912136" fill="#4C4C4C" transform="matrix(0.317513 0.948254 0.948254 -0.317513 310.15 184.253)" rx="3.6737" ry="3.51411"/>
   <path id="_50306528" fill="black" d="M313.928 183.671c-4.35033,-4.80359 -6.39298,4.19613 -2.19005,4.59808 -8.30467,0.980221 -4.05808,-14.7946 2.19005,-4.59808z"/>
  </g>
  <g id="_50943584">
   <ellipse id="_50943784" fill="#4C4C4C" transform="matrix(-0.624023 0.0690859 0.0690859 0.624023 272.057 177.085)" rx="3.6737" ry="3.51411"/>
   <path id="_50943704" fill="black" d="M271.913 179.48c3.52488,-2.03244 -1.72715,-4.47959 -2.53106,-1.95364 0.499748,-5.22624 9.61711,-0.528095 2.53106,1.95364z"/>
  </g>
  <path fill="black" d="M343.171 135.243c3.23547,3.91805 6.39695,-4.19244 3.11925,-4.65733 6.53981,-0.470835 1.40967,12.8676 -3.11925,4.65733z"/>
  <path fill="black" d="M314.213 288.997c-0.455811,-9.45015 -0.401953,-19.4091 -0.000283465,-29.7156 1.00432,9.90482 1.13839,19.8099 0.000283465,29.7156z"/>
  <path fill="black" d="M319.004 286.12c0.524693,-9.89745 1.28353,-20.0285 2.23654,-30.3534 0.325984,10.1174 -0.419528,20.2351 -2.23654,30.3534z"/>
  <path fill="black" d="M324.755 273.977c0.528662,-8.51811 1.70022,-17.2502 3.51411,-26.1961 -0.568347,8.53087 -1.65912,17.2358 -3.51411,26.1961z"/>
  <path fill="black" d="M329.866 273.338c4.35033,-6.99619 5.90599,-16.3026 5.11144,-27.1545 -0.585071,9.42407 -1.96923,18.582 -5.11144,27.1545z"/>
  <path fill="black" d="M342.325 231.168c0.652819,13.5388 -0.301323,25.4696 -4.79197,33.8633 3.20088,-9.68344 4.15644,-21.6128 4.79197,-33.8633z"/>
  <path fill="black" d="M345.52 255.128c3.75846,-5.11881 5.3538,-14.8102 5.11144,-29.0713 -1.2892,9.89717 -1.92813,20.12 -5.11144,29.0713z"/>
  <path fill="black" d="M353.507 248.419l5.75037 -28.1129c-0.488126,10.7986 -2.40491,20.1694 -5.75037,28.1129z"/>
  <path fill="black" d="M370.758 223.501l0 -15.3343c1.49953,5.75405 1.35666,10.7226 0,15.3343z"/>
  <path fill="black" d="M376.189 220.626l1.27786 -17.89c1.05704,6.19484 0.523276,12.265 -1.27786,17.89z"/>
  <path fill="black" d="M366.605 234.682c-22.1698,15.2705 -43.9793,30.6777 -61.3381,34.1833 19.8068,-6.17613 41.5313,-23.2149 61.3381,-34.1833z"/>
  <path fill="black" d="M376.508 222.862c-10.8814,10.1942 -32.0601,23.8924 -49.517,29.7102 16.9316,-7.77345 33.4369,-17.6769 49.517,-29.7102z"/>
  <path fill="black" d="M328.269 264.073c-6.93893,3.50703 -13.4082,7.24763 -19.4888,11.1821 6.92448,-3.0841 13.4206,-6.81137 19.4888,-11.1821z"/>
  <path fill="black" d="M352.229 249.378l-14.0564 8.94501c4.97084,-1.55254 9.65623,-4.5343 14.0564,-8.94501z"/>
  <path fill="black" d="M339.45 262.156l-13.4175 8.62555c4.67348,-1.46863 9.17235,-4.15616 13.4175,-8.62555z"/>
  <path fill="black" d="M357.34 230.849l-10.5423 3.83358c3.51383,0.222803 7.02709,-0.62589 10.5423,-3.83358z"/>
  <path fill="black" d="M382.897 213.598l-20.4457 13.737c7.3681,-3.11443 14.2189,-7.7641 20.4457,-13.737z"/>
  <path fill="black" d="M313.254 258.962l-11.183 4.15361c4.176,-0.293386 7.86274,-1.71666 11.183,-4.15361z"/>
  <path fill="black" d="M319.963 252.253l-4.47251 2.23625c1.91877,0.112252 3.40923,-0.632977 4.47251,-2.23625z"/>
  <path fill="black" d="M327.63 243.627l-5.4309 3.19465c2.23852,0.00708662 4.04844,-1.05732 5.4309,-3.19465z"/>
  <path fill="black" d="M337.533 234.682l-7.34769 4.15304c3.30633,-0.241228 5.75518,-1.62539 7.34769,-4.15304z"/>
  <path fill="black" d="M367.244 218.39l-5.75037 2.87518c2.21358,0.17915 4.10825,-0.768189 5.75037,-2.87518z"/>
  <path fill="black" d="M395.037 196.347c-7.02369,9.49919 -14.904,15.569 -23.6404,18.2095 8.33245,-4.25962 16.1592,-10.5421 23.6404,-18.2095z"/>
  <path fill="black" d="M406.218 177.818c-8.63717,17.2114 -21.7429,25.928 -36.0995,32.2659 14.112,-7.98293 27.1046,-17.4586 36.0995,-32.2659z"/>
  <path fill="black" d="M395.995 194.11l0.319465 -6.06983c1.03663,1.73736 0.930048,3.76044 -0.319465,6.06983z"/>
  <path fill="black" d="M400.787 187.082l-0.958394 -5.75037c1.17638,1.34532 1.49584,3.26211 0.958394,5.75037z"/>
  <path fill="black" d="M303.989 266.312l1.59761 -13.4204c-1.81786,4.68737 -2.35049,9.16073 -1.59761,13.4204z"/>
  <path fill="black" d="M309.74 255.767l0.319465 -9.26448c-0.85578,3.27543 -1.17751,6.41736 -0.319465,9.26448z"/>
  <path fill="black" d="M314.851 251.295l0.638929 -12.1397c-1.49839,4.26047 -1.71128,8.30693 -0.638929,12.1397z"/>
  <path fill="black" d="M327.31 233.085l-0.958394 5.4309c1.17638,-1.81021 1.49584,-3.62013 0.958394,-5.4309z"/>
  <path fill="black" d="M334.019 222.862l-1.27786 6.70876c1.85414,-1.95024 2.28019,-4.18649 1.27786,-6.70876z"/>
  <path fill="black" d="M344.242 211.681l-1.27786 10.2229c-0.717449,-3.12151 -0.291118,-6.52904 1.27786,-10.2229z"/>
  <path fill="black" d="M355.104 204.014l0 6.06983c-0.857197,-1.45162 -0.857197,-3.47471 0,-6.06983z"/>
  <path fill="black" d="M318.685 226.696l-5.4309 2.23625c2.45282,0.112535 4.26331,-0.63326 5.4309,-2.23625z"/>
  <path fill="black" d="M323.796 221.265l-5.75037 1.59732c2.39896,0.191055 4.2086,-0.501449 5.75037,-1.59732z"/>
  <path fill="black" d="M332.102 212.639c-3.01465,4.2086 -6.70649,5.20328 -10.8618,2.55572 3.19436,1.27814 6.81478,0.426331 10.8618,-2.55572z"/>
  <path fill="black" d="M341.047 203.694l-6.70876 2.87518c2.80743,0.184536 5.04369,-0.773575 6.70876,-2.87518z"/>
  <path fill="black" d="M383.856 206.25l0 -10.2229c1.3218,3.40668 1.53553,6.81392 0,10.2229z"/>
  <path fill="black" d="M386.092 196.347l16.6122 -24.5988c-4.92888,9.98533 -10.5375,18.0417 -16.6122,24.5988z"/>
  <path fill="black" d="M388.648 203.694l1.59732 -8.62555c0.896315,2.8749 0.363969,5.75008 -1.59732,8.62555z"/>
  <path fill="black" d="M358.299 214.876l-8.30608 3.19465c3.53537,-0.0479055 6.48199,-0.859748 8.30608,-3.19465z"/>
  <path fill="black" d="M364.688 212l-0.638929 3.51411c0.784063,-0.885544 0.996945,-2.05654 0.638929,-3.51411z"/>
  <path fill="black" d="M365.007 205.931l-2.87518 0.638929c1.24384,0.644599 2.20224,0.431433 2.87518,-0.638929z"/>
  <path fill="black" d="M339.45 229.89l-4.15304 1.59732c2.10076,0.901985 3.19862,-0.203811 4.15304,-1.59732z"/>
  <path fill="black" d="M322.838 239.474l-3.19465 1.27786c1.49301,0.431717 2.55799,0.00538583 3.19465,-1.27786z"/>
  <path fill="black" d="M334.978 240.752l0 2.55572c-0.857197,-0.851528 -0.857197,-1.70334 0,-2.55572z"/>
  <path fill="black" d="M349.034 212l0 -4.79197c-0.857197,1.88277 -0.857197,3.4801 0,4.79197z"/>
  <path fill="black" d="M352.229 217.751l0 3.51411c-0.860882,-0.956126 -1.43405,-1.9834 0,-3.51411z"/>
  <path fill="black" d="M330.186 231.168l-6.06983 2.87518c2.5441,0.052441 4.81692,-0.780662 6.06983,-2.87518z"/>
  <path fill="black" d="M427.944 88.7142c-0.332504,18.1797 -0.890079,27.8878 -11.1713,34.312 6.1115,0.139465 10.4871,-6.47037 12.7673,-21.2256 2.76633,-2.34085 4.68114,-5.10747 5.74526,-8.29871 -1.70164,2.23597 -3.45714,4.3115 -5.58567,5.26649l0 -2.55345c4.89033,-4.95468 8.75963,-11.9512 12.7673,-18.6721 -4.53005,6.43975 -8.82397,13.6222 -13.0864,15.7995l-0.478772 -5.26649 -0.957544 0.638363z"/>
  <line fill="none" stroke="white" stroke-width="1.41732" x1="396.924" y1="72.7144" x2="399.318" y2= "70.9555" />
  <path fill="black" d="M452.999 43.5501c12.6128,20.3292 -8.73213,48.5048 -16.9166,74.3692 16.2153,-32.6435 29.9693,-63.9984 16.9166,-74.3692z"/>
  <path fill="black" d="M423.635 127.335c0.904252,1.7555 -0.745229,5.00088 -4.94731,9.73503 4.28258,-3.00529 7.36781,-6.40942 7.81994,-10.6926l-2.87263 0.957544z"/>
  <path fill="black" d="M428.582 125.42c0.904252,1.7555 0.0527244,7.07556 -4.14936,11.8097 4.28258,-3.00529 6.56986,-8.4841 7.02199,-12.7673l-2.87263 0.957544z"/>
  <path fill="black" d="M410.389 167.712l-1.11713 -6.06444c1.8051,2.02025 1.60441,4.04192 1.11713,6.06444z"/>
  <path fill="black" d="M414.538 163.403l-3.51099 -8.4583c0.241512,3.03336 1.19735,6.067 3.51099,8.4583z"/>
  <path fill="black" d="M413.9 154.306l0.319181 3.67058c-1.24895,-1.22343 -1.35524,-2.44658 -0.319181,-3.67058z"/>
  <path fill="black" d="M422.358 144.89l-2.39386 5.26649c1.98057,-1.14095 3.28195,-2.38677 2.39386,-5.26649z"/>
  <path fill="black" d="M434.966 121.909c-1.91565,7.97953 -4.8943,13.4056 -8.93708,16.2782 0.0130394,5.32007 -2.24788,10.6393 -6.06444,15.9591 3.06312,-6.00435 4.69786,-11.4375 4.90422,-16.2995 3.65131,-3.59802 7.01689,-8.91043 10.0973,-15.9378z"/>
  <line fill="none" stroke="white" stroke-width="1.41732" x1="140.743" y1="344.898" x2="147.132" y2= "344.578" />
  <line fill="none" stroke="white" stroke-width="1.41732" x1="136.909" y1="350.329" x2="142.66" y2= "349.37" />
  <path fill="white" d="M225.721 367.58c-6.96133,18.7019 -14.2291,34.6485 -22.0431,45.6835l-4.79197 -2.55572c10.1965,-11.5007 17.278,-24.3862 19.8068,-39.2942l7.02822 -3.83358z"/>
  <polygon fill="white" points="190.899,399.526 181.954,395.373 179.079,398.568 "/>
  <path fill="none" stroke="white" stroke-width="0.708662" d="M417.719 107.216c2.55572,-16.825 -3.51411,-27.8997 4.79197,-47.6002"/>
  <path fill="black" d="M183.871 383.231l-3.51411 12.7786c2.45821,-4.25934 3.62948,-8.8407 3.51411,-12.7786z"/>
  <path fill="black" d="M148.043 419.378l-0.958394 7.66715c1.60611,-2.87717 1.92558,-5.11115 0.958394,-7.66715z"/>
  <path fill="black" d="M115.335 427.691l9.26448 -4.15304c-2.1206,3.7474 -5.42353,4.70098 -9.26448,4.15304z"/>
 </g>
</svg>
