<?xml version="1.0" encoding="UTF-8" standalone="no"?>
<!-- Created with Inkscape (http://www.inkscape.org/) -->
<svg
   xmlns:svg="http://www.w3.org/2000/svg"
   xmlns="http://www.w3.org/2000/svg"
   version="1.0"
   width="500.00003"
   height="571.07422"
   id="svg2">
  <defs
     id="defs4" />
  <g
     transform="translate(-22.718751,-246.08205)"
     id="layer2">
    <g
       id="g2328">
      <path
         d="M 23.247922,246.61122 C 23.247922,361.26483 23.247922,475.91846 23.247922,590.57208 C 23.247922,715.34143 135.01347,816.62709 272.71876,816.62712 C 410.42406,816.62712 522.1896,712.72875 522.1896,590.57208 C 522.1896,448.59712 522.1896,361.26483 522.1896,246.61122 L 23.247922,246.61122 z "
         style="fill:#df0000;fill-opacity:1;fill-rule:evenodd;stroke:#000000;stroke-width:1.05834115;stroke-linecap:butt;stroke-miterlimit:4;stroke-dasharray:none;stroke-opacity:1"
         id="rect2263" />
      <path
         d="M 272.96681,264.60302 C 253.77153,264.60302 238.17384,280.2007 238.17384,299.39598 L 239.43062,315.93256 C 234.68889,316.39424 230.02038,315.49738 225.30838,315.40339 C 206.1131,315.40339 190.54849,331.00107 190.54849,350.19635 C 190.54849,369.39163 206.11309,384.95624 225.30838,384.95624 L 239.43062,384.09634 L 239.43062,437.80715 L 186.97659,437.80715 C 186.47144,432.91071 187.72701,428.18259 187.83649,423.32111 C 187.83649,404.12582 172.27188,388.56122 153.0766,388.56122 C 133.88132,388.56121 118.28364,404.12583 118.28364,423.32111 L 118.81281,437.80715 C 113.18867,438.45537 107.85006,436.73335 102.27624,436.58345 C 83.080947,436.58343 67.483272,452.14806 67.483272,471.34334 C 67.483271,490.53861 83.080947,506.1363 102.27624,506.1363 L 118.81281,504.87952 C 119.27449,509.62124 118.37763,514.28976 118.28364,519.00176 C 118.28364,538.19703 133.88132,553.76165 153.0766,553.76165 C 172.27188,553.76164 187.83649,538.19705 187.83649,519.00176 L 186.97659,504.87952 L 239.43062,504.87952 L 239.32589,653.2277 C 238.76314,657.97623 236.91136,664.48436 230.89775,668.39322 C 220.20689,675.34227 207.1121,675.61661 194.55035,674.28024 C 181.98859,672.94385 154.68302,674.50702 131.24832,628.77157 C 147.50142,631.79541 168.88557,630.65674 168.88557,630.65674 C 129.49382,588.75274 92.738276,570.55506 54.518594,546.75014 C 53.330258,592.76866 57.397525,644.81286 78.728147,696.40619 C 87.614271,683.66832 90.599485,670.09225 91.95741,657.87595 C 121.25156,710.55722 157.051,731.59426 187.17503,745.68519 C 214.30036,758.37341 248.56389,766.54198 272.66915,812.26146 L 272.73529,812.16224 L 272.76837,812.26146 C 296.87362,766.54198 331.17023,758.37341 358.29556,745.68519 C 388.41959,731.59426 424.18603,710.55722 453.48011,657.87595 C 455.35123,671.58215 459.74478,684.53668 466.70937,696.40619 C 488.04,644.81286 492.10726,592.76866 490.91893,546.75014 C 452.69924,570.55506 415.94367,588.75274 376.55194,630.65674 C 376.55194,630.65674 397.93609,631.79541 414.1892,628.77157 C 390.7545,674.50702 363.44895,672.94385 350.88717,674.28024 C 338.32541,675.61661 325.23063,675.34227 314.53977,668.39322 C 309.68252,665.23601 307.43631,657.42279 306.46875,653.2277 L 306.50299,504.87952 L 359.32083,504.87952 L 358.46092,519.00176 C 358.46092,538.19705 374.02552,553.76164 393.22081,553.76165 C 412.41609,553.76165 428.01377,538.19703 428.01378,519.00176 C 427.91979,514.28976 427.02292,509.62124 427.48461,504.87952 L 444.02119,506.1363 C 463.21648,506.1363 478.81415,490.53861 478.81415,471.34334 C 478.81415,452.14806 463.21647,436.58343 444.02119,436.58345 C 438.44736,436.73335 433.10874,438.45537 427.48461,437.80715 L 428.01378,423.32111 C 428.01378,404.12583 412.41608,388.56121 393.22081,388.56122 C 374.02553,388.56122 358.46091,404.12582 358.46092,423.32111 C 358.57041,428.18259 359.82597,432.91071 359.32083,437.80715 L 306.50299,437.80715 L 306.50299,384.09634 C 311.39943,383.59118 316.12755,384.84676 320.98903,384.95624 C 340.18431,384.95624 355.74892,369.39163 355.74892,350.19635 C 355.74892,331.00107 340.18431,315.40339 320.98903,315.40339 L 306.50299,315.93256 C 305.85477,310.30842 307.57679,304.96981 307.7267,299.39598 C 307.7267,280.2007 292.16209,264.60302 272.96681,264.60302 z "
         style="fill:#aa8c28;fill-opacity:1;fill-rule:evenodd;stroke:#000000;stroke-width:1.05834115;stroke-linecap:butt;stroke-miterlimit:4;stroke-dasharray:none;stroke-opacity:1"
         id="path2268" />
    </g>
  </g>
</svg>
