<?xml version="1.0" encoding="UTF-8"?>
<!DOCTYPE svg PUBLIC "-//W3C//DTD SVG 1.1//EN" "http://www.w3.org/Graphics/SVG/1.1/DTD/svg11.dtd">
<!-- Creator: CorelDRAW -->
<svg xmlns="http://www.w3.org/2000/svg" xml:space="preserve" width="500px" height="579px" shape-rendering="geometricPrecision" text-rendering="geometricPrecision" image-rendering="optimizeQuality" fill-rule="evenodd" clip-rule="evenodd"
viewBox="0 0 500 579"
 xmlns:xlink="http://www.w3.org/1999/xlink"
 xmlns:svg="http://www.w3.org/2000/svg"
 version="1.0">
 <g id="Layer_x0020_1">
  <metadata id="CorelCorpID_0Corel-Layer"/>
  <path id="path1937" fill="#F00000" stroke="#F00000" stroke-width="1.98425" d="M1.12706 1.23562l497.698 0 -0.108284 340.325c-27.5108,314.086 -464.16,315.615 -497.709,0l0.119906 -340.325z"/>
  <path fill="#BF9F4F" d="M98.3634 72.4405c31.5352,-30.0481 14.205,-57.3035 -7.21928,-60.8134 -30.4444,-4.98785 -25.5728,20.3261 -43.9917,33.8686l23.9525 13.2625c8.43364,-11.1271 9.55673,-21.9487 16.0044,-29.5092 6.55484,-7.68671 16.3582,-7.93418 21.9543,-0.297354 -3.75534,-1.94627 -7.94438,-5.06778 -16.0662,-1.14208 8.14479,10.421 -1.62822,28.1407 -11.8417,35.286l17.2077 9.34498zm-27.6715 1.24299c-8.52492,7.64561 -16.1376,16.9328 -18.3492,30.4288 3.75704,-5.67865 13.0799,-14.7016 19.0539,-17.8311 -6.47377,11.7944 -6.83462,19.5233 -3.70205,24.3335 5.16416,-10.5457 11.147,-20.0001 18.9318,-27.0516l-15.9344 -9.8796z"/>
  <path fill="#CCCCCC" d="M110.911 81.1922l-64.6404 -33.8105c-3.79786,-3.36217 -7.15833,-7.16032 -10.0814,-11.3953 -10.1801,-2.33915 -20.6875,-4.02321 -30.5396,-7.01717 7.78196,7.2737 15.5636,15.8573 23.3456,23.7858l7.43868 -0.472536 65.6312 38.2397 8.84608 -9.32996z"/>
  <path fill="#BF9F4F" d="M94.4842 99.6058c-0.436536,-0.873071 -5.4567,4.80189 -5.23843,5.23843 2.07354,5.12901 5.89295,9.82177 11.4591,14.0783l-9.82205 9.82205c-2.18268,1.85528 3.81969,4.36536 6.22063,1.63701l6.22063 -7.53024c1.48422,2.26999 4.13235,2.21159 6.54803,2.61921 0.0986457,5.58794 -2.4721,15.7484 -2.21358,24.4463 0.292536,9.84161 4.39058,17.1204 13.6726,14.5145 40.1613,15.1696 91.1268,37.5421 121.466,31.758 -42.74,-22.2523 -87.3494,-46.9378 -126.704,-74.6476 -0.828851,-2.6331 -0.0878741,-5.5012 -1.96441,-7.20284 11.0222,-10.2592 23.245,-19.317 36.0142,-27.8291 3.87496,7.74794 3.00189,22.481 -0.654803,36.0142 -0.109134,1.74614 6.32977,-3.38315 6.54803,-4.58362 0.982205,-10.3133 1.41874,-21.4441 0.654803,-34.3772 7.98038,-4.11931 15.4831,-9.19418 22.5907,-15.0605l0.982205 -2.94662 -1.96441 -2.29181c-7.039,5.67525 -14.8966,10.8045 -24.5551,14.7331 -3.49229,-7.0937 -8.94898,-11.8956 -13.4235,-18.0071 -0.763937,-1.41874 -6.54832,2.6195 -6.22063,3.27402 10.3677,10.2586 9.60378,12.3321 13.0961,18.6619 -13.2055,8.84041 -25.5376,18.5528 -36.9964,29.1388l-8.18504 0.982205c-3.81997,-3.27402 -6.33005,-7.42111 -7.53024,-12.4413z"/>
  <path fill="#F00000" d="M114.456 126.78c1.20047,11.4591 -6.7663,44.854 9.49465,24.8825l4.25622 1.96441 0 6.54803c35.7183,16.4585 70.3695,29.3936 98.5479,32.4128 -41.0891,-20.4559 -77.5401,-40.4411 -112.299,-65.8077z"/>
  <path fill="#CCCCCC" d="M230.805 198.275c-7.79046,22.0037 -28.6747,31.2406 -51.8516,62.085 5.5647,4.20095 11.1308,7.6938 16.6978,10.1495l0 1.96441 -10.4777 21.8024c-1.4811,-0.0496063 -2.95455,-0.0436536 -4.38888,0.0144567 -5.21377,-3.24992 -10.6175,-6.87402 -16.0438,-11.2031 1.33143,-2.72353 1.60243,-4.2874 2.09367,-6.51572 0.370772,-1.68066 2.02989,-4.56803 5.89692,-7.86388l-1.2223 0.145984c-4.35657,3.50844 -6.13729,6.48652 -6.40347,7.82618 -0.505985,2.54891 -0.983623,4.48299 -1.74104,5.70161 -1.43688,3.6703 -6.73852,8.25052 -13.4025,8.92602 -6.87629,3.50221 -16.789,6.8006 -26.9413,6.87147 -13.8464,0.0966615 -24.1583,4.35997 -31.4107,5.03008 3.39874,19.3785 4.41071,25.0725 13.2627,33.1078 1.82154,3.41405 3.58866,8.46397 4.97537,13.1871 -2.3074,-0.251433 -3.14192,-1.64721 -6.59367,-0.262488 -0.708945,1.61263 0.380693,3.5521 1.79773,4.83789l6.72775 -1.03833c1.08425,7.73632 0.861166,15.6903 -0.668126,23.8643 2.10841,-4.09465 2.82671,-13.9955 1.82891,-24.9591 7.66148,0.695055 9.83679,2.69547 11.8026,6.17188 3.27714,5.79544 2.77824,15.1124 2.68044,25.0645 -13.1899,-2.48825 -17.3503,-0.317197 -25.526,-5.42495 -2.2748,-1.06271 -8.0915,-8.45207 -10.5069,-9.94224 -3.50362,-2.16085 -4.56888,-7.92114 -5.03944,-11.4375 -3.1286,-23.3731 -8.30863,-28.9891 -9.79739,-37.4885 -0.683717,-3.90161 -4.62274,-12.6938 -7.45966,-18.4927 -1.41874,-2.75443 -0.464882,-4.92718 0.887528,-8.79109 0.708378,-2.02394 -0.330236,-2.91799 3.40073,-5.73874 24.7782,-4.23071 29.3312,-11.8287 44.8002,-18.305 4.64514,-3.51213 14.4184,-4.66044 19.4479,-9.07399 4.89855,-4.29903 3.63685,-6.66596 5.20555,-10.9236 -2.34114,2.94917 -2.28132,6.29462 -5.33934,8.89852 -3.49229,2.97326 -8.46397,3.5538 -20.0948,8.64652 -5.62762,-2.67874 -10.7572,-2.79666 -13.6074,-4.96007 -2.81679,-2.13846 -5.23248,-3.07191 -8.06004,-4.5377 -10.8904,-5.64548 -9.51931,-10.4162 -26.6774,-18.4697 -5.23701,0.990426 -4.46825,6.89641 -7.54668,12.4906 -3.95178,7.18129 -5.40766,15.3269 -3.64932,22.2477 1.66989,6.57185 -2.03641,7.7264 -3.40214,14.6285l-2.1875 0.173197c-0.945071,-2.06816 -2.05399,-4.62728 -4.79764,-6.20419 -2.61269,1.53128 -1.79121,8.78684 0.012189,10.9726 2.19288,-0.573166 2.5869,-0.492095 5.59814,-0.247465 1.68406,1.52504 4.61169,3.78 5.12703,6.86665 0.286299,7.37433 -10.9845,28.133 -15.3303,28.9089 -6.58092,-10.7521 -10.1495,-9.47566 -15.1892,-18.8325 -2.75868,-5.12249 -0.719433,-9.71519 -0.693355,-15.4477 0.031748,-6.91881 -2.09055,-13.1151 1.85584,-19.0219 14.3518,-21.4807 16.4704,-22.43 23.9624,-58.7155 0.366236,-1.83317 10.7734,-4.54762 12.8925,-3.08013 3.75222,2.59937 25.1844,11.4741 33.6509,12.8906 5.66476,0.947623 22.0159,6.55257 31.6882,10.2339 0.327969,9.36908 1.3371,17.1431 3.84832,22.5987l0.570898 -0.978804c-3.63629,-11.0517 -3.44013,-27.8493 -2.69632,-45.4672 1.88277,-0.987308 1.9732,-5.43515 5.09358,-9.04564 1.66082,-1.92161 1.67839,-4.21881 5.5715,-6.6841 3.51581,-4.24488 11.7757,-7.01802 10.5486,-12.7349 -0.821481,3.55663 -2.39471,2.73175 -3.72189,4.97707 -1.50747,2.55005 -3.69241,4.12469 -6.23311,4.71515 -0.868536,-4.09493 -0.13578,-11.0259 0.674646,-16.9115 27.8263,11.5288 65.6861,21.9093 86.1004,22.8008zm-141.871 -93.7327c-5.43969,5.98989 -3.01238,7.19632 -15.4769,15.0327 -3.65981,2.3006 -0.24463,6.87062 0.701292,9.93884 -0.394583,2.53361 0.282898,8.54334 4.58334,8.19638 3.07928,-0.248599 4.79027,-4.53033 7.84404,-7.85339 5.09103,-5.53918 6.37767,-2.99424 11.9197,-9.97201l1.51087 0.329669 0.981355 -0.981355c-5.74016,-4.40674 -9.37928,-9.41273 -12.0637,-14.6908zm20.4004 21.884c0.959245,2.90523 -2.55628,6.81109 -2.0452,11.9225 0.51874,5.18655 -2.36296,7.46703 -6.4012,6.95311 -1.5463,4.92123 -8.83758,3.23603 -8.80555,1.38983 1.07745,-5.08479 3.47613,-6.39808 3.30945,-8.89144 -0.125858,-1.88646 1.08482,-3.52658 2.40151,-5.60722l5.87481 -6.25096 5.66618 0.484158zm66.0419 -62.2131c1.98964,-4.13207 4.69162,-1.07717 5.80564,-5.52728 1.90885,-7.6252 7.41742,-18.6851 8.3452,-23.8567 -0.577134,0.665008 -5.6778,6.92476 -9.64262,8.20772 -6.12227,1.98142 -5.38129,7.58523 -13.3835,13.6366l-3.26296 -0.00113386c1.31528,0.000283465 3.91918,-4.67178 6.90265,-6.02618 -0.989008,-19.6438 2.73317,-16.5529 1.3201,-22.191 -0.428315,1.07887 -2.01118,2.57925 -2.70936,3.92655 -0.922394,1.77902 -5.93859,3.51468 -7.18753,6.40772 -0.625323,1.4485 -4.60942,3.00983 -5.54599,11.5863 5.25714,-0.318047 8.98923,0.454677 11.1952,2.31817 -4.89232,-1.21606 -8.47645,-0.469418 -12.7142,-0.70441 -5.33055,-5.93405 -3.47953,-13.4405 0.245197,-15.0749 1.24838,-0.547654 1.39748,-2.53247 2.08545,-2.89162 0.725103,-0.378142 2.66655,-0.185953 2.52765,-1.54913 -7.01037,-0.813827 -8.7806,0.596693 -11.268,3.10139 -4.18025,4.2086 -2.62262,7.68218 -2.41455,10.3499 -4.32114,-8.33698 -2.59115,-14.3654 0.157323,-18.2954 1.24895,-1.78639 4.00195,-1.49187 3.66378,-4.37584 -8.86989,-0.420378 -8.32451,0.282898 -11.7462,3.73408 -1.76769,1.78328 -4.01868,5.81103 -3.9274,8.61959 0.104315,3.21392 -0.325984,6.64923 1.09417,8.59975 2.90296,3.98807 6.40035,5.87991 6.84029,7.96564 -8.01241,-4.83676 -12.6357,-14.0638 -11.8525,-21.2567 0.382394,-3.51269 3.29188,-6.2847 3.10649,-8.83361 -7.33805,2.83153 -9.71547,4.37868 -10.834,10.1174 -2.52652,12.9603 5.4034,23.9978 19.69,24.8933l8.61676 -1.67698c-3.10961,1.30507 -7.20029,2.28302 -9.16413,3.58838 3.62381,5.35522 10.0284,10.0573 12.8353,16.5577 8.70917,-3.29216 13.6568,-8.0572 21.2219,-11.3494zm-17.7545 52.6034c2.73373,-3.37011 5.63131,-7.39474 7.87522,-11.7459l1.73282 -0.830835c-2.77342,7.51068 -6.25465,13.4138 -10.7711,16.5634 -0.072567,10.3895 -0.772441,17.7951 -2.196,23.8538 1.85017,0.636945 2.38961,3.11754 9.03317,6.4338 11.5036,5.74214 40.3087,23.792 66.7647,36.8524 0.483024,-7.0492 -5.94624,-13.2446 -8.208,-36.8416 -3.42624,-35.7469 -11.183,-46.7799 -18.5207,-61.5442l1.99814 -0.278646c3.53395,5.78041 6.03355,11.8208 7.82419,18.0388 8.63377,-1.11345 16.5932,6.57015 27.7345,1.99588 6.60785,-2.71276 11.8885,-5.95418 9.54171,-17.913 -1.89298,3.42425 -5.49326,10.3235 -14.4011,8.04274 -10.5698,-2.70595 -13.0167,-9.34045 -29.0531,-9.02325l-0.926646 -1.37764c9.67692,-2.9041 14.9196,-0.163276 24.8686,-0.191055 8.79279,-0.024378 18.0156,-5.45131 16.0143,-18.7347 -20.1796,22.0397 -27.0261,-4.25622 -50.6784,7.20794 2.21669,2.84173 4.65251,6.12 7.30715,9.83481l-0.219118 1.90687c-6.82356,-8.50309 -13.7835,-16.1873 -21.0416,-22.0717l1.29033 -1.20076c4.91386,3.43928 8.81944,6.68892 11.554,10.5659 7.43783,-9.72766 26.8444,-1.22088 39.1329,-12.8186 4.34438,-4.1006 5.95843,-3.97843 5.85723,-12.2088 -0.0476221,-3.90388 -2.92394,-6.26089 -4.04504,-7.93191 -1.5772,7.33663 -4.65251,13.4065 -14.4201,13.3787 -21.0424,-2.54608 -34.8398,-0.552473 -40.5516,9.036l-0.957827 4.02321 -22.5712 15.211c1.05987,10.5616 0.716032,21.6408 0.0325984,31.7673zm-8.30977 2.61014c-2.70085,6.00974 -6.04318,7.86076 -9.14656,7.22211 -4.26756,-0.878174 -11.6221,0.861733 -14.9324,-1.70674 -2.96617,-2.3023 -5.68375,-4.86822 -8.33245,-4.01584l-0.528378 -6.76318c10.6447,-8.56035 21.6848,-17.1207 33.2025,-25.6794 2.42617,7.39049 1.72545,19.5718 -0.262772,30.943zm-16.56 -55.4287c-13.049,9.50627 -28.3031,27.1293 -36.4989,33.8105 -0.723118,0.58904 -1.39436,1.14973 -2.01657,1.68265 1.98113,5.81698 5.43402,10.8167 7.90583,13.036 2.50696,-1.63673 4.68737,-2.34539 7.36044,-1.47203 7.80832,-9.00114 19.8876,-19.0205 35.9827,-29.7678 -1.57323,-4.7007 -7.40013,-10.2467 -12.7335,-17.2894zm18.6395 89.9706c-1.08425,5.32432 -2.66684,6.80599 -4.25169,9.24945l0.383528 4.15984c22.3311,9.54964 48.8223,18.1715 73.9928,24.2277 -23.8116,-12.109 -46.9681,-25.528 -70.1246,-37.637zm168.027 73.713c5.18655,-0.307843 10.2152,-0.753166 13.8161,-1.26085 7.87493,-1.10976 14.0956,-1.332 18.8306,0.65452 8.47645,3.55635 14.4451,7.56142 22.6775,13.7605 18.9473,3.80466 24.4018,-18.781 38.6082,-32.4669 9.3189,-7.20624 21.3265,-11.7819 37.713,-10.0009 62.9782,22.9099 2.81027,92.0061 2.06901,140.452 -13.1791,-36.9811 -1.5857,-45.4207 5.07232,-72.7067 -8.3333,19.0845 -11.8114,35.6185 -17.3736,54.2753 -2.50639,8.40671 -0.738992,18.7866 -3.60482,32.1506 -17.943,-28.4244 1.54035,-59.2623 6.46781,-94.4204 -9.83226,40.0074 -17.0444,45.3098 -21.6374,73.8584 -8.31969,-27.9386 -2.56932,-41.7291 4.8875,-58.5142 7.38057,-16.6142 7.56681,-26.6284 3.31625,-28.8091 -15.4352,-7.91944 -15.3298,11.192 -44.0337,6.75071 11.3445,10.8289 13.8804,38.9699 9.46914,53.0816l0.314079 8.91893c2.53134,5.14942 3.97077,10.8448 6.28385,18.0689 5.25062,10.5815 13.775,12.9776 19.6804,19.9576l-0.675213 14.2977c-5.59191,9.06605 -7.56142,27.506 -7.93673,36.3668l2.24221 5.58794 -0.211181 6.82923 -4.51077 5.88048c-0.892347,-1.1058 -2.47578,-4.79821 -5.14432,-3.14334 -3.37068,3.35027 -10.6699,7.68274 -4.54507,13.9796l-2.64416 11.3417c-11.4233,5.06835 -16.897,5.89068 -32.4286,3.68561 0.630426,-5.73421 3.00699,-10.9216 4.51077,-17.5272 2.85988,-4.38208 6.15657,-8.32734 9.89037,-11.8349 9.30189,-5.87339 15.4134,-8.99547 17.3256,-18.7971 1.08794,-5.57944 4.66923,-25.134 -2.8304,-38.1748 -3.02542,-5.26111 -8.38772,-8.46085 -13.6091,-11.9843 -6.71329,-4.53005 -14.0641,-9.93714 -18.9156,-15.2751 -3.83046,-4.65903 -9.7835,-12.261 -15.5367,-19.0321 -7.00895,-8.24882 -18.6531,-13.8594 -41.6509,-11.6376 -21.9002,0.394866 -58.4555,19.1302 -98.4073,2.68186l0.212315 -2.4086c4.25424,-2.14668 5.88104,-5.29427 8.78485,-8.23125 4.21484,-4.26246 6.69459,-8.93027 7.42196,-12.5583 34.6927,10.5301 51.5662,3.22016 90.8538,13.7506 -5.28973,-22.2968 14.1375,-34.9376 5.24807,-67.5465zm40.7138 106.465c-0.187937,18.9714 3.58725,17.1488 8.92092,26.5949 -0.878457,9.63213 -8.73468,21.1365 -13.4736,38.8806 -2.21925,8.31033 -2.45991,17.9521 -5.37137,22.0297 -2.22293,1.70958 -4.44614,5.05644 -6.66851,5.12958 -2.20847,2.71276 -1.62255,-7.17818 -5.70728,-7.32955 -2.72183,2.83606 -3.69723,5.34501 -2.92592,8.18136 5.23729,4.67717 2.29039,7.71903 -0.00170079,13.0518 -6.39241,1.92302 -11.0307,3.79928 -29.9812,3.47811 2.77427,-5.3983 3.8211,-9.69336 5.37648,-16.4571 6.84255,-6.75355 6.624,-10.8187 11.0421,-15.6263 8.08753,-4.49745 11.4642,-6.61493 15.6002,-11.9826 3.37578,-4.3818 12.545,-30.6352 8.58189,-38.5365 -6.87544,-13.7069 -11.9177,-8.14989 -22.8875,-25.5521 -3.87099,-6.14098 -7.87437,-8.27887 -9.96123,-16.8015 -1.36602,-5.57944 -4.7211,-10.5562 -7.78848,-16.234l9.72199 0.0104882 0.149102 6.25635c7.94382,-2.3658 17.0926,-2.65805 23.3045,0.789733 6.58574,3.65556 13.1105,11.3142 22.0697,24.1169z"/>
  <path fill="#BF9F4F" d="M246.931 211.897c-5.82095,3.69723 -13.542,9.65566 -20.0835,15.6456 -7.0441,6.44939 -16.4883,10.7059 -23.4882,14.5324 -6.05254,3.30917 -0.648851,11.9993 -5.45811,25.1008l-1.79943 1.35468c-5.02299,-2.19969 -9.99213,-5.16274 -14.5797,-8.2338 13.9864,-22.0037 39.8696,-35.4529 50.8867,-60.5415 3.15156,9.66189 8.75566,12.9453 14.5222,12.1419z"/>
  <path fill="none" d="M87.5605 103.41c23.2866,19.4513 44.1459,31.5199 67.3869,46.0834 8.50564,5.32942 65.0586,32.7694 69.9058,39.7704 -36.1083,0 -48.435,-6.60303 -75.574,-20.2008 -23.0094,-11.5291 -38.0696,-2.69972 -44.7146,-31.5638"/>
  <path fill="#CCCCCC" d="M283.366 93.4456c-9.92353,-2.54013 -12.6437,-5.07997 -18.9655,-7.61981l-1.7898 0.708378c-2.96844,-4.95836 44.8594,-4.01669 43.687,-0.384095 1.80794,4.24829 3.61616,18.646 -2.10558,22.8946l0.953292 13.7608 6.19144 3.68306c26.6188,2.05625 17.2233,39.1451 16.0129,60.1909 -7.23062,-1.95959 -13.4787,-1.95449 -21.6913,-5.87792l-0.981922 -19.9715 -3.9291 -2.2921 -3.92854 9.49493c-7.64022,-13.7509 -5.02129,-29.2487 6.87487,-44.5266l-0.327118 -1.30961c-13.0961,13.6415 -16.5886,36.1225 -6.54775,48.7829l5.23814 -9.49465 1.30961 0.654803 0.654803 17.3523 -2.94662 1.63701 -0.327402 3.60142 -4.25622 2.61921 0 3.27373 -17.68 0.655087 -0.65452 -3.27402 -2.2218 0.0592441 -0.369071 0.773008 -8.49544 0.938835 -1.27587 -33.8891c0.54737,-13.9691 10.2631,-18.4428 9.82914,-30.7743l-1.96469 -9.8229 11.3267 -10.7535c8.26215,0.626174 11.2184,-2.85817 10.9284,-6.58942 -0.524977,-6.74759 -6.92448,-9.07144 -12.5481,-4.50057m22.1684 120.729c-9.45326,-0.727654 -18.906,-1.89241 -28.3584,-3.49257l-2.02337 4.66186c-7.98208,-3.52063 -17.4376,-3.60397 -21.1626,-7.1246 -9.74949,7.27342 -21.3302,16.4146 -23.2155,18.6171 -3.12917,3.65499 -6.63222,5.73336 -11.0205,8.84211 0.572032,5.82803 7.03673,13.6202 11.5379,20.4307 18.8779,-6.84199 39.0929,-19.1197 54.6642,-20.3119 11.9143,-0.912756 9.68032,-6.65462 19.1823,-10.1741l0.396 -11.4486zm-87.2828 22.0564c-3.47074,2.05994 -7.98917,4.33729 -12.1331,6.47887 -2.76917,1.70391 -3.90218,3.08183 -4.05241,4.78687 -0.17348,3.96029 0.307559,7.26577 -0.521008,11.8817 8.8373,0.757418 15.7102,3.15213 23.893,6.20164 1.05817,-2.20507 3.62466,-5.37109 4.89685,-7.02114 -6.6464,-8.31629 -10.6736,-15.7592 -12.0833,-22.3279zm-25.6184 80.7415c-1.06753,0.664441 -6.06359,-1.61802 -9.09582,-3.90019l-4.00224 -6.58517c5.98989,-10.6152 17.2038,-25.1643 21.5198,-43.6074 7.6697,-1.0715 21.8874,3.75024 23.0091,5.62564 -1.68917,13.0686 -5.34019,20.075 -13.3347,27.4323 -5.82803,5.36344 -10.0043,12.2981 -18.0961,21.0348zm-13.9357 16.5186c2.01912,1.03181 3.94866,2.27367 5.76766,3.78029 8.09008,1.2274 5.81896,-3.62126 6.2932,-11.5104l-6.56589 -2.86696c-2.81565,3.85994 -4.2103,7.06422 -5.49496,10.597zm-9.271 -23.9301c-12.5728,3.67087 -35.2965,8.06656 -35.2622,14.6146 11.2652,3.66577 23.9394,3.21336 35.1828,5.95134l6.98769 -11.4891c-2.46699,-2.3709 -6.07862,-6.37909 -6.90832,-9.07682z"/>
  <path id="path1937_0" fill="#CCCCCC" d="M465.406 455.51c-90.9457,162.418 -334.212,163.2 -428.428,0.64715 3.89906,3.07021 12.9195,7.18016 23.2549,7.16457 10.3351,-0.0155906 26.096,-14.4403 38.7576,-14.4587 12.6618,-0.0181417 24.8105,14.3623 37.2141,14.3439 12.4038,-0.0184252 24.7399,-14.438 37.2144,-14.4564 12.4741,-0.0184252 25.0926,14.3617 37.639,14.343 12.5464,-0.0187087 24.8763,-14.4383 37.639,-14.457 12.7627,-0.0187087 25.96,14.3606 38.9393,14.3413 12.9796,-0.0192756 26.1238,-14.4403 38.9404,-14.459 12.8163,-0.0187087 25.3072,14.3617 37.9607,14.3427 12.6536,-0.0192756 24.7547,-14.4383 37.9616,-14.4576 13.2072,-0.0189921 30.7987,14.3538 41.2829,14.3382 10.4845,-0.0155906 15.9574,-4.91018 21.6244,-7.23232z"/>
  <path fill="#BF9F4F" d="M202.854 458.766c0.763654,-7.42111 3.71027,-11.1317 4.91103,-15.0605 5.4567,-0.436536 10.2586,-0.218268 15.3879,-0.327402 2.31874,3.0566 3.98268,6.768 5.97402,10.1517 -8.75793,6.54775 -16.8608,8.94756 -26.2729,5.23616z"/>
  <path fill="#BF9F4F" d="M209.402 440.758c-6.7663,-8.29418 -1.09134,-10.0403 2.29181,-14.0783 5.12929,1.41874 9.60378,0.218268 12.4413,1.30961l5.23843 6.87544c-1.37565,-0.0212599 -3.91465,3.44892 -6.22063,6.22063 -4.58362,-0.109134 -9.16725,1.41874 -13.7509,-0.327402z"/>
  <path fill="#BF9F4F" d="M222.498 425.698l6.87544 -8.18504 -0.654803 -10.4769 -9.49465 -4.58362c-5.30646,3.05575 -4.23326,5.3932 -6.02448,8.96429 -1.26113,2.51433 -2.30684,5.99301 -1.16419,8.39254 1.23534,2.59342 2.22662,4.49745 3.91465,5.56129l6.54803 0.327402z"/>
  <path fill="#BF9F4F" d="M220.861 401.47c5.4567,1.96441 8.29418,1.30961 12.4413,1.96441 2.29181,-1.20047 4.58362,-4.36536 6.87544,-6.54803 -1.30961,-2.51008 -3.27402,-5.02016 -3.92882,-7.53024 -3.92882,-1.30961 -8.51245,-1.30961 -12.7687,-1.96441 -4.03909,3.81969 -5.67666,7.96706 -2.61921,14.0783z"/>
  <path fill="#BF9F4F" d="M223.808 385.1l0.327402 -8.83985c1.96441,-1.85499 3.92882,-3.27373 5.89323,-4.25622l11.4591 6.87544c-0.982205,2.40095 -2.29181,5.4567 -3.92882,7.20284 -6.54803,0.654803 -9.49465,0.327402 -13.7509,-0.982205z"/>
  <path fill="#BF9F4F" d="M231.993 452.545c4.03795,-2.83748 10.0403,-4.03795 14.0783,-6.54803 -1.74614,-6.7663 -4.47449,-8.62158 -6.22063,-11.4591l-9.16725 0.654803 -5.89323 6.87544c2.40095,3.49229 4.14709,7.96678 7.20284,10.4769z"/>
  <path fill="#BF9F4F" d="M231.338 433.883c-1.09134,0.218268 -5.7841,-5.12929 -6.22063,-7.20284 0,-2.40095 4.25622,-7.0937 5.89323,-8.18504 4.58362,0.873071 7.53024,4.03795 11.7865,4.58362 -0.54567,2.94662 -1.41874,6.22063 -1.63701,8.83985l-9.82205 1.96441z"/>
  <path fill="#BF9F4F" d="M243.125 421.769l-10.1495 -4.91103c-1.85528,-1.20047 -1.09134,-6.32977 -1.63701,-9.49465 2.40095,-1.96441 6.4389,-3.92882 9.16725,-6.87544 2.51008,0.873071 5.02016,2.72835 7.53024,2.61921 0.763937,3.81969 0.218268,8.29418 0.327402,12.4413l-5.23843 6.22063z"/>
  <path fill="#BF9F4F" d="M245.416 401.143c-5.02016,-4.03795 -5.4567,-9.05811 -8.18504,-13.0961 2.83748,-1.74614 5.67496,-4.47449 6.54803,-7.20284l6.22063 -0.327402c5.12929,3.16488 8.29418,7.31197 12.4413,10.4769l0 3.27402 -11.1317 4.91103 -5.89323 1.96441z"/>
  <path fill="#BF9F4F" d="M234.94 365.129l4.58362 -2.29181 3.60142 -3.60142c1.09134,0.654803 8.09292,-0.00311811 10.2722,2.00551 1.89468,1.74671 6.15232,3.06936 5.77049,8.47134 -2.40095,2.61921 -6.1115,5.89323 -10.1495,8.83985l-7.20284 -0.982205c-2.72835,-2.61921 -5.12929,-5.89323 -8.18504,-7.85764l1.30961 -4.58362z"/>
  <path fill="#BF9F4F" d="M249.673 446.979c-1.96441,-4.69276 -4.58362,-8.73071 -6.87544,-13.0961l0 -6.54803c1.30961,-2.72835 4.58362,-6.1115 6.87544,-9.16725 3.79219,2.70085 6.99449,0.443622 10.4596,2.95314 3.24,2.34652 3.00501,7.52372 4.60092,14.7266 -2.72835,3.81969 -5.4567,7.31197 -8.18504,11.4591l-6.87544 -0.327402z"/>
  <path fill="#BF9F4F" d="M253.601 378.879c2.97354,-2.66032 5.91959,-5.19789 8.18504,-8.83985 1.80227,1.70107 7.18952,0.290835 8.0538,3.32703 0.847843,2.97751 4.08161,5.09301 3.88658,7.14983 -0.717449,7.56057 -6.12567,6.28951 -9.64857,10.4769 -2.51093,-3.8744 -6.82101,-8.56659 -10.4769,-12.1139z"/>
  <path fill="#BF9F4F" d="M251.308 413.967l0 -11.7763c1.02558,-1.06129 2.63112,-2.85024 4.4691,-3.06539 2.51178,-0.294236 2.72098,-2.15688 5.32375,-2.18863 3.39421,-0.0416693 5.93603,7.10788 7.21729,10.815l-6.05169 10.1407c-4.96148,0 -10.0862,-1.47203 -10.9585,-3.92542z"/>
  <path fill="#BF9F4F" d="M269.791 407.261c-1.30847,-9.43172 -3.76186,-10.1951 -4.90677,-13.5754 0.945638,-2.40208 3.16318,-4.90025 5.76284,-5.12788 2.28643,-0.20041 3.09147,-1.9885 7.64901,1.0389 0.618237,5.07544 2.13534,6.29774 2.3057,7.98095 0.33137,3.27487 0.539433,6.86381 -1.48791,9.847 -2.45339,2.07156 -6.21525,1.52646 -9.32287,-0.163559z"/>
  <path fill="#BF9F4F" d="M267.501 434.739c0.306425,-4.57966 -3.4543,-4.19584 -2.41852,-7.07415 0.760252,-2.11351 -2.19175,-4.59043 -0.617103,-8.76756 2.3349,-6.1937 5.31638,-5.61827 5.97969,-8.20148 3.21647,1.14491 5.45188,0.654237 8.17796,0.981355 1.74444,2.12627 3.48917,5.23389 5.23389,7.85084 -0.735874,2.82132 -1.404,6.23736 -2.22066,9.091 -0.634961,2.21896 -1.49017,3.90529 -1.70476,5.95644 -4.47081,1.19962 -8.28709,0.109134 -12.4305,0.163559z"/>
  <path fill="#BF9F4F" d="M260.141 448.805c2.45339,-3.87071 4.25254,-7.7417 7.36016,-11.6127 4.4161,0.163559 8.0144,-0.163559 12.2669,-0.490677l2.61695 2.78051 3.43474 19.1364c-6.52196,-0.252851 -13.813,-2.12627 -15.052,-3.39676 -2.82132,-2.89332 -6.15374,-4.05269 -10.6268,-6.41679z"/>
  <path fill="#CCCCCC" d="M215.325 109.747c2.37147,5.2064 4.06177,10.5491 4.25254,16.1924 5.86488,2.0914 21.1796,6.16904 28.2983,-0.368221 4.35147,-3.996 5.25657,-6.47235 4.5771,-13.3707 -3.41093,7.08407 -10.4675,8.24089 -17.3103,6.63959 -8.79789,-2.05852 -15.1665,-7.86643 -19.8176,-9.09298z"/>
  <path fill="#CCCCCC" d="M219.742 127.411c1.19906,3.76158 1.96214,6.8692 2.28983,9.32287 4.19783,1.3629 21.3171,12.2122 29.2771,-0.817796 -15.0049,3.13087 -21.6836,-3.52914 -31.5669,-8.50508z"/>
  <path fill="#CCCCCC" d="M329.559 192.588c-0.916725,7.42082 -1.54233,13.9689 -3.27402,19.6441l9.52725 0.883843 36.6364 14.504 3.92882 -8.83985 -20.2989 -11.1317 -11.1317 -5.56583 -15.3879 -9.49465z"/>
  <path fill="#CCCCCC" d="M304.021 181.456l-3.60142 6.54803 -0.327402 3.27402c2.94718,4.96517 5.34785,11.9492 6.54803,21.2811l19.6441 -0.982205 1.96441 -21.9359c-8.07591,-2.40095 -16.1518,-1.52787 -24.2277,-8.18504z"/>
  <path fill="#CCCCCC" d="M298.455 191.933c2.83748,5.89323 4.80189,12.6595 5.89323,20.2989 -8.9487,-0.900851 -17.8977,-2.15575 -26.8469,-3.92882 0.873071,-5.02016 1.30961,-10.0403 1.30961,-15.0605l19.6441 -1.30961z"/>
  <path fill="#CCCCCC" d="M316.732 303.401l0 3.76186c5.28832,-1.41761 11.4489,-1.52731 18.4822,-0.327118 -3.708,-2.16822 -9.54171,-3.44892 -18.4822,-3.43474z"/>
  <path fill="#CCCCCC" d="M233.153 199.541c1.14491,4.14312 4.14312,7.35959 8.34152,10.6313 4.74633,0.27411 9.56495,-3.51666 14.2393,-2.61751 6.75723,1.29997 14.6594,3.65471 18.309,5.23446 2.61666,-4.81153 3.16177,-12.4719 2.28983,-22.0805l-17.1737 0c-6.24076,-5.976 -8.05833,-5.54145 -10.2178,-7.14501 -1.52873,-1.13499 -4.4572,-0.744378 -7.55518,1.24668 -3.84577,2.47153 -8.32848,3.17509 -9.70498,3.77206 3.27118,2.67165 9.81355,3.70743 12.7576,6.54237 -0.326551,2.94435 -4.85207,4.08955 -11.2856,4.4161z"/>
  <path fill="#BF9F4F" d="M224.321 280.339c1.57635,-14.9873 6.68268,-21.9906 14.3093,-24.5829 5.29597,-1.8 7.56681,-3.72444 12.7599,-5.76794 12.2735,-4.83024 17.2613,-10.7787 36.7787,-13.1136 10.4426,-1.24923 12.0637,-6.84341 18.7495,-10.3465l10.4678 0.654237c8.77748,33.4208 -9.59556,45.2515 -5.88813,65.5872 -30.5555,-8.90249 -57.3222,-3.51411 -87.177,-12.4305z"/>
  <path fill="#BF9F4F" d="M176.726 305.363l-6.54237 3.43474c2.07184,3.65273 4.41638,7.03276 7.36016,9.81355l-0.163559 1.63559c-2.23512,3.87071 -4.47052,5.779 -6.70592,11.6127l6.54237 2.45339c1.41732,-5.67014 3.81629,-9.37758 5.72457,-14.0661 5.73846,2.82189 11.3808,5.35692 16.683,6.86948l0.327118 1.47203 -5.88813 7.36016 8.66863 -1.47203 2.12627 9.15931 4.4161 -8.0144c2.37147,2.23484 5.26082,4.46996 8.50508,6.70592l-2.45339 -9.81355c3.21647,-0.327118 6.21496,-1.30847 8.99575,-2.94406 -3.40753,-1.36347 -6.67928,-2.45395 -9.64999,-2.94406 1.03578,-2.45339 2.23512,-4.57966 3.10762,-7.36016 -2.94463,0.545103 -5.67099,1.74387 -8.17796,3.5983l-5.07033 -7.52372 -1.79915 8.66863c-15.5656,-4.13008 -21.1813,-7.97386 -26.0059,-18.6457z"/>
  <path fill="#F00000" d="M311.498 427.542c8.83219,0.763087 14.0661,0.545103 21.0991,0.817796l1.96271 1.14491 -3.10762 0.654237 -17.9915 -1.14491 -1.96271 -1.47203z"/>
  <path fill="#F00000" d="M358.767 364.408c1.41874,-5.57972 -1.83657,-7.13367 -3.92542,-9.97711l0 -1.63559 1.30847 0.817796c5.28888,3.76186 5.67014,9.81355 2.61695,10.7949z"/>
  <path fill="#F00000" d="M411.433 364.572c1.90942,-6.0704 1.1075,-7.78791 -2.12627,-12.9212l0 -1.63559 1.30847 0.817796c6.59736,2.78051 6.32438,9.48643 0.817796,13.739z"/>
  <path fill="#F00000" d="M394.259 429.178l0.327118 1.14491c-7.10136,0.436819 -14.1069,0.491244 -20.772,-0.817796l2.12627 -1.14491c3.98013,1.09049 12.2125,0.545386 18.3186,0.817796z"/>
  <path fill="#F00000" d="M87.2587 292.442l-1.14491 0.981355c-0.899434,4.74265 -2.80743,7.25046 -5.88813,7.1966l-2.45339 0.981355 0.490677 0.981355c5.04397,1.3218 9.95046,-2.74082 8.99575,-10.1407z"/>
  <path fill="#F00000" d="M33.6113 309.289l2.61695 -0.163559c5.01562,-4.47052 9.3773,-6.48766 15.5381,-13.4118l-0.163559 -2.28983c-6.32438,6.92419 -12.9759,10.7405 -17.9915,15.8652z"/>
  <path fill="#F00000" d="M59.1265 225.874l-2.12627 1.30847c5.17918,1.74444 9.48615,0.872504 12.9212,-2.61695l-1.14491 0.163559c-3.78964,1.33654 -7.16996,1.99049 -9.64999,1.14491z"/>
  <path fill="#F00000" d="M138.453 81.7782l0 1.14491 -1.63559 -0.327118c-2.1532,-3.40016 0.023811,-5.42523 -2.22548,-7.62293 -1.34958,-1.31868 -4.70551,-1.8428 -7.42451,-1.53638 -0.763087,4.03484 -0.0541418,6.81534 5.56101,6.86948l0.490677 1.30847c-0.7903,-1.06299 -4.01584,0.63978 -6.29689,-1.88079 -2.14016,-2.36438 -0.599811,-6.54265 -1.88107,-8.25988 2.48542,1.22655 6.52791,-0.556441 10.2368,2.37175 3.10706,2.4531 1.18998,6.32438 3.17509,7.93248z"/>
  <path fill="#F00000" d="M128.803 75.0722c2.61695,3.97984 3.43474,1.908 3.76186,0.163559l0.981355 0.817796c0.142866,2.14668 -0.802772,2.87717 -2.01345,2.84854 -1.5565,-0.0368504 -3.28167,-1.43802 -2.72977,-3.82989z"/>
  <path fill="#F00000" d="M79.0807 119.07l1.14491 0c-0.872504,7.74199 6.92391,-1.19934 8.66863,-2.78051l-0.163559 1.47203c-5.27131,5.14857 -5.26025,6.41027 -6.78558,7.09059 -3.07559,1.37169 -5.37903,0.0447874 -2.86441,-5.78211z"/>
  <path fill="#CCCCCC" d="M222.522 139.351l2.12627 16.683 11.2856 4.90677c1.30847,8.1927 -0.490961,10.4015 4.74321,8.34152l9.15931 -7.52372c0.981355,-1.36318 -1.30847,-4.36167 -2.94406,-3.10762 -1.79943,2.12599 -5.12504,4.25225 -8.99575,5.39745l0 -1.79915c4.66129,0.449575 8.56659,-5.66306 10.8561,-4.52353 0.69789,0.347528 1.60158,1.4023 1.57436,3.70573 2.7309,-0.333921 4.03739,1.63134 4.4161,3.43474 1.63559,-0.217984 2.61695,0.435969 2.94406,1.96271 4.68851,-0.109134 4.30696,3.54359 2.28983,8.0144l4.57966 1.63559c-0.708945,-7.85084 -0.76337,-15.3746 -0.654237,-23.0618 -4.90677,-4.26274 -5.6109,-5.44139 -8.6675,-6.05311 -2.37657,-0.475654 -5.41588,-0.570898 -9.16045,1.14633 -2.01742,1.85358 -4.03455,3.87071 -6.21525,5.39745 2.88907,1.85329 6.26939,1.25348 9.32287,-1.14491 1.25376,0.817512 2.94378,0.981071 5.07033,0.490677 0.762804,0.92693 1.52617,1.25376 2.28983,1.30847 -2.12769,2.2371 -1.69143,3.43559 0.981355,3.92542l0.163559 1.14491c-2.39925,0.654237 -4.03484,-0.654237 -4.4161,-3.92542 -1.09077,-0.163843 -2.18126,-0.545386 -3.27118,-1.14491 -4.7435,5.66986 -11.9401,2.18041 -10.1407,-1.79915l3.43474 -3.10762 0 -0.981355c-6.92419,-2.58945 -13.8484,-5.86092 -20.772,-9.32287z"/>
  <path fill="#CCCCCC" d="M249.836 163.231l-8.50508 7.1966c-0.892914,3.6411 2.02876,4.35714 4.57966,3.5983l6.05169 -6.37881c1.85358,-5.56101 -1.03606,-4.57966 -2.12627,-4.4161z"/>
  <path fill="#CCCCCC" d="M253.762 166.175l-5.88813 7.36016c-1.96271,3.5983 1.96271,3.43474 3.92542,2.45339l4.90677 -7.52372c0.109134,-2.07269 -0.872504,-2.83578 -2.94406,-2.28983z"/>
  <path fill="#CCCCCC" d="M257.524 167.974c-1.63559,2.78051 -3.10762,5.72457 -4.90677,8.34152 -0.10885,2.07184 1.30904,2.39868 4.25254,0.981355 1.30847,-2.28983 1.96271,-3.5983 2.94406,-5.39745 0.714331,-2.62233 0.935717,-4.80614 -2.28983,-3.92542z"/>
  <path fill="#BF9F4F" d="M264.078 86.1823c-8.29418,10.1489 -6.98457,20.2983 3.92882,30.4484l15.3879 -14.0783c6.83518,2.39386 10.8675,-1.43632 10.8476,-5.05559 -0.0192756,-3.56372 -4.58589,-8.28794 -11.0089,-2.63594 -6.00237,-1.85528 -9.87903,-1.58485 -19.1554,-8.67856z"/>
  <path fill="#F00000" d="M263.787 92.6677l1.6611 0.16611c-0.221669,3.98665 -3.43304,6.97663 3.32221,15.9466l-0.664441 1.99332c-6.20192,-9.35802 -6.81081,-11.2405 -4.31887,-18.106z"/>
  <path fill="#F00000" d="M268.933 93.4983l1.55169 1.59817c-0.758268,2.29238 -1.2308,5.0057 1.1092,8.76076l-0.421229 2.23739c-3.59773,-4.65647 -3.26325,-6.37881 -2.23965,-12.5963z"/>
  <polygon fill="#F00000" points="273.588,96.9866 274.75,96.4883 275.083,104.295 273.92,104.129 "/>
  <path fill="#F00000" d="M288.205 95.6577c1.71638,2.71332 1.77165,5.09414 -3.82054,3.65443 3.87581,4.37443 10.5755,-2.87915 3.82054,-3.65443z"/>
  <path fill="#BF9F4F" d="M262.458 85.1928c12.4095,-3.01748 27.8439,-2.79581 44.0192,-0.332221 0.443055,-8.58218 3.10054,-15.6138 7.9733,-21.096l-0.16611 -1.49499c-3.42737,-0.212315 -5.9692,0.68315 -7.62463,2.68554 -6.81591,-2.11295 -8.2613,5.90655 -3.83698,8.11163l-0.16611 0.996662 -2.32554 0c-0.16611,-1.71638 -1.82721,-2.76832 -1.99332,-5.64775l-2.82388 0c0.0549922,2.65777 -0.554174,3.98665 -1.82721,3.98665l-2.98999 0c-1.6611,-0.0549922 -2.65777,-0.996095 -2.98999,-2.82388 3.67512,2.18013 6.40999,0.480473 6.84681,-2.96476 0.476504,-3.75704 -1.89836,-5.62451 -4.35515,-5.67298 1.07263,-3.28394 -0.95726,-4.80558 -2.88255,-5.02158 -2.4755,-0.277512 -5.66164,1.49187 -4.59241,5.68602 -5.37109,-1.10721 -8.74857,10.2436 0.664441,8.63774l-1.32888 2.98999 -2.82388 0c-0.664441,-1.21805 -1.99332,-2.10388 -2.98999,-3.1561l-0.498331 -1.99332 -4.15276 -0.16611c0.220819,1.60639 -0.000850394,2.99084 -0.664441,4.15276l-1.32888 0.16611 -0.996662 1.6611c-2.43638,0.332221 -5.37109,0.664441 -5.81386,-2.49165 3.36699,1.35638 6.76432,0.443622 7.03418,-4.09918 0.393449,-6.62372 -3.19323,-6.50041 -5.8714,-5.03688 -0.774993,-2.9897 -3.98608,-2.38025 -8.63774,-2.15943l-0.996662 1.49499 8.13941 23.5877z"/>
  <path fill="#CCCCCC" d="M274.75 32.0375c-3.64195,7.4177 -5.18259,17.1278 -4.98331,28.7371l-5.64775 0c-2.95115,-4.52126 -4.74293,-10.4562 -4.31887,-14.2855 0.623055,1.34504 1.66621,3.98155 2.65777,4.8172l0.498331 -1.32888c-1.31924,-2.02677 -3.68618,-10.7323 -1.99332,-15.116 0.830835,4.56492 1.92331,3.95065 2.75358,4.79169 -0.87704,-5.59474 -1.03323,-10.2285 1.23307,-14.4261 0.830552,2.82388 0.351496,5.51679 2.49165,8.47163 -0.795969,-6.37172 -0.0206929,-11.5211 2.32554,-15.4483 0.311528,3.24624 0.667559,6.1852 1.32888,6.97663 0.220536,-8.87641 4.32624,-11.6629 11.7938,-16.611 -1.32378,2.97525 -4.48073,5.42636 -5.14942,8.13941 2.28898,-3.26183 5.97515,-7.15663 10.6662,-8.80385 -1.53553,2.15972 -2.85307,4.31915 -3.68958,6.4783 4.22901,-5.05503 9.15704,-7.49141 14.7838,-7.30885 -4.32114,1.5205 -6.0001,3.28082 -6.4783,5.14942 5.1823,-3.21222 10.0908,-4.69843 12.9566,-2.62262 -5.66788,2.19118 -12.2647,4.69049 -14.2583,7.81852 -1.51172,2.37203 -2.69291,2.8304 -3.28139,4.51701 -0.787748,2.25666 -2.39868,2.13449 -2.98006,3.85625 -0.81241,2.40633 -2.15717,4.17572 -2.94435,6.64385 -0.701292,2.19799 -2.08063,4.20775 -2.54239,6.59679 -0.650835,3.36671 -1.61575,6.9001 -1.15654,9.32457 0.565512,2.98545 -0.648284,5.54315 -0.909638,8.88152l1.49499 0 0.16611 -3.65443 1.49499 1.49499c-0.475087,-2.80403 -1.56161,-5.8697 -1.16277,-8.80385l2.32554 1.99332c-1.37991,-3.02514 -1.84309,-5.91931 -0.996662,-9.46829l1.6611 3.1561c0.276662,-3.37777 -0.232158,-6.88621 0.830552,-10.1327 0.926363,1.04145 0.674079,3.65443 1.99332,5.48164 -0.700441,-6.01087 0.127843,-11.3667 4.31887,-15.2821l0.498331 4.31887c0.230173,-4.91471 2.55572,-8.95663 6.97663,-12.1261l-1.6611 4.65109c1.82495,-3.62466 6.05764,-6.59339 12.4231,-9.17122l-2.29039 4.35402c2.28302,-1.90772 5.43912,-3.29188 9.46829,-4.15276l-3.65443 3.82054c6.59282,-3.98211 11.9636,-4.64655 16.1127,-1.99332 -4.02435,0.49663 -7.96082,1.08028 -10.6311,3.32221 8.59578,-2.58775 13.0938,-0.53178 16.4449,2.82388 -2.71332,-0.16611 -5.2954,-1.11798 -8.13941,-0.498331 4.63777,0.226205 8.40303,1.49981 11.2955,3.82054 -2.7686,0.276945 -5.5372,-0.624756 -8.30552,0.830552 2.73855,0.125858 4.95326,0.513355 6.64441,1.16277l-1.6611 0.830552c-3.30293,0.458079 -3.98665,1.43972 -5.97997,2.15943 -5.5338,-0.348095 -6.74561,1.6611 -9.13607,2.49165 -5.16104,-0.751465 -5.86942,3.21166 -8.80385,4.8172 -2.59824,0.674079 -3.10082,2.65777 -4.65109,3.98665 -2.30457,1.05591 -3.9104,3.16006 -4.8172,6.31219l-0.664441 2.49165 -1.16277 -0.16611 -1.99332 3.48832 -0.332221 2.15943 -2.15943 7.14274 -5.64775 -4.65109c2.51547,-12.8469 7.72725,-21.5464 14.7838,-27.4082 -8.15159,4.82429 -13.7495,13.337 -15.6144,27.2421 -3.36473,0.476788 -5.85638,2.52539 -7.47496,6.14608 -2.8046,0.255685 -3.90671,2.21386 -4.48498,5.48164l-2.98999 -0.498331c-1.57124,-11.2326 -0.861449,-21.816 2.32554,-33.2221z"/>
  <path fill="#CCCCCC" d="M297.146 66.6037c-0.261921,-1.8771 -1.04769,-3.75421 -2.35729,-5.23843 -0.130961,-3.92882 1.04769,-6.28611 1.57153,-9.42917 0.305575,2.05172 0.349229,4.36536 1.44057,6.28611 -1.00403,-5.98054 -0.829418,-6.46073 1.57153,-11.2626l1.70249 3.92882c-1.21691,-4.05978 -0.355181,-7.33352 4.05978,-11.2626l0.392882 4.05978c1.20558,-4.37925 3.42029,-8.4549 8.11956,-11.7865 -0.436536,1.92076 -1.39691,3.71055 -1.30961,5.76227 1.65855,-4.82429 7.63881,-9.84445 13.227,-10.3459 -1.17865,1.83345 -2.88114,3.40498 -3.53594,5.50035 4.59411,-5.22766 10.4655,-8.04274 18.2035,-7.3338l-6.41707 4.45266c11.2082,-5.37562 26.7707,-0.649701 28.8114,9.56013 -5.08536,-7.50955 -11.1098,-9.60435 -17.8107,-7.9886 22.6236,-0.676347 25.2646,27.9167 10.2149,34.3117 1.09134,-2.92479 8.68706,-8.94898 1.17865,-15.7153 1.74614,8.99263 -1.2223,13.7945 -8.90533,14.4057 1.26595,-2.96844 8.42514,-6.59169 1.04769,-13.6199 1.57153,10.3459 -4.97651,11.6555 -9.03629,12.9651 1.17865,-3.71055 7.85764,-5.84958 1.96441,-14.2747 1.17921,10.6753 -2.70624,12.5955 -8.64341,11.7865 2.38989,-3.59036 8.65389,-3.56854 1.04769,-11.0007 2.66287,5.23843 1.30961,8.64341 -3.53594,7.20284 0.814678,-0.687402 3.86561,-2.68866 0.176599,-5.55222 -6.82668,-5.29909 -17.9206,-1.16079 -21.6542,9.35008l-7.85764 2.75017c4.86737,-12.9833 11.9684,-25.3488 31.1686,-25.0135 -14.3331,-3.62948 -29.6416,10.0057 -33.1331,27.2398l-1.70249 0.261921z"/>
  <path fill="#F00000" d="M104.306 119.25l1.63701 -1.30961c1.52787,1.74614 3.05575,1.74614 4.58362,0 -1.20076,3.49229 -3.2743,3.92882 -6.22063,1.30961z"/>
 </g>
</svg>
