<?xml version="1.0" encoding="UTF-8"?>
<!DOCTYPE svg PUBLIC "-//W3C//DTD SVG 1.1//EN" "http://www.w3.org/Graphics/SVG/1.1/DTD/svg11.dtd">
<!-- Creator: CorelDRAW -->
<svg xmlns="http://www.w3.org/2000/svg" xml:space="preserve" width="500px" height="605px" style="shape-rendering:geometricPrecision; text-rendering:geometricPrecision; image-rendering:optimizeQuality; fill-rule:evenodd; clip-rule:evenodd"
viewBox="0 0 500 605"
 xmlns:xlink="http://www.w3.org/1999/xlink">
 <defs>
  <style type="text/css">
   <![CDATA[
    .fil1 {fill:#00923F}
    .fil0 {fill:#4D4948}
    .fil6 {fill:#DA251D}
    .fil7 {fill:#FACF00}
    .fil5 {fill:#FFF500}
    .fil4 {fill:#DA251D;fill-rule:nonzero}
    .fil3 {fill:#FACF00;fill-rule:nonzero}
    .fil2 {fill:white;fill-rule:nonzero}
   ]]>
  </style>
 </defs>
 <g id="Layer_x0020_1">
  <metadata id="CorelCorpID_0Corel-Layer"/>
  <polygon class="fil0" points="104.831,29.869 104.831,114.648 "/>
  <path class="fil1" d="M487.659 367.466c-11.4917,130.239 -106.327,237.495 -237.493,237.495 -131.165,0 -226,-107.256 -237.492,-237.495l-11.4917 -218.342c39.5864,-1.53978 76.0278,-17.4473 103.65,-42.1365l145.334 0 145.335 0c27.6123,24.649 64.101,40.5984 103.65,42.1365l-11.4922 218.342z"/>
  <path class="fil2" d="M437.862 330.851c12.6941,0 22.983,4.39058 22.983,9.80646 0,5.41616 -10.2889,9.80618 -22.9825,9.80618 -2.34567,0 -4.60914,-0.150236 -6.74079,-0.428599 1.30706,1.70674 2.56847,3.59235 3.74145,5.62337 6.34649,10.9925 7.68926,22.0975 2.99877,24.8054 -4.69021,2.70794 -13.6366,-4.00649 -19.9837,-14.9993 -1.17269,-2.03131 -2.17502,-4.0663 -2.99934,-6.05169 -0.824315,1.98482 -1.82608,4.02038 -2.99906,6.0514 -6.34706,10.993 -15.2941,17.7089 -19.9843,15.0012 -4.69049,-2.70794 -3.34772,-13.8147 2.99906,-24.8071 1.17326,-2.03102 2.43439,-3.91663 3.74173,-5.62337 -2.13194,0.278362 -4.39512,0.428599 -6.74079,0.428599 -12.6933,0 -22.983,-4.39002 -22.983,-9.80618 0,-5.41559 10.2898,-9.80646 22.983,-9.80646 2.34567,0 4.60885,0.150236 6.74079,0.428599 -1.30734,-1.70646 -2.56847,-3.59178 -3.74173,-5.62281 -6.34677,-10.993 -7.68898,-22.0989 -2.99906,-24.8068 4.69021,-2.70851 13.6372,4.00791 19.9843,15.0007 1.17298,2.03131 2.17474,4.06602 2.99906,6.05112 0.824315,-1.9851 1.82665,-4.0201 2.99877,-6.05112 6.34706,-10.9936 15.2941,-17.7075 19.9843,-14.9998 4.69049,2.70794 3.34772,13.8127 -2.99877,24.8054 -1.17298,2.03131 -2.43439,3.91692 -3.74145,5.62337 2.13137,-0.278646 4.39512,-0.428599 6.74022,-0.428599z"/>
  <path class="fil3" d="M401.395 340.657c0,-7.44662 6.03666,-13.4836 13.4836,-13.4836 7.44662,0 13.4836,6.03695 13.4836,13.4836 0,7.44662 -6.03695,13.4833 -13.4836,13.4833 -7.4469,0 -13.4836,-6.03666 -13.4836,-13.4833z"/>
  <path class="fil2" d="M273.149 166.136c12.6935,0 22.983,4.39058 22.983,9.80646 0,5.41559 -10.2895,9.80561 -22.9825,9.80589 -2.34567,0 -4.60914,-0.149953 -6.74079,-0.428599 1.30706,1.70674 2.56847,3.59235 3.74145,5.62337 6.34621,10.9928 7.6887,22.0978 2.99877,24.8057 -4.69021,2.70794 -13.6372,-4.00677 -19.9837,-14.9995 -1.17298,-2.03102 -2.17531,-4.0663 -2.99934,-6.05169 -0.824599,1.98539 -1.82636,4.02038 -2.99934,6.05169 -6.34677,10.9928 -15.2938,17.7086 -19.9843,15.001 -4.69021,-2.70794 -3.34743,-13.8144 2.99934,-24.8071 1.17269,-2.03102 2.43439,-3.91663 3.74173,-5.62337 -2.13194,0.278646 -4.39512,0.428599 -6.74107,0.428599 -12.6933,0 -22.9828,-4.3903 -22.9828,-9.80589 0,-5.41588 10.2895,-9.80618 22.9828,-9.80618 2.34595,-0.000283465 4.60914,0.149669 6.74107,0.428315 -1.30734,-1.70674 -2.56904,-3.59206 -3.74173,-5.62309 -6.34677,-10.9928 -7.68955,-22.0989 -2.99934,-24.8068 4.69049,-2.70822 13.6375,4.00791 19.9843,15.0007 1.17298,2.03131 2.17474,4.06602 2.99934,6.05112 0.824032,-1.9851 1.82636,-4.0201 2.99877,-6.05112 6.34706,-10.993 15.2941,-17.7072 19.9843,-14.9995 4.68992,2.70794 3.34743,13.8124 -2.99877,24.8054 -1.17298,2.03131 -2.43439,3.91663 -3.74145,5.62337 2.13109,-0.278646 4.39512,-0.428599 6.74022,-0.428599z"/>
  <path class="fil3" d="M236.683 175.942c0,-7.44662 6.03638,-13.4836 13.4836,-13.4836 7.44662,0 13.4836,6.03695 13.4836,13.4836 0,7.4469 -6.03695,13.4836 -13.4836,13.4836 -7.44718,0 -13.4836,-6.03666 -13.4836,-13.4836z"/>
  <path class="fil2" d="M273.149 495.565c12.6935,0 22.983,4.39058 22.983,9.80646 0,5.41559 -10.2895,9.80589 -22.9825,9.80589 -2.34567,0 -4.60914,-0.149953 -6.74079,-0.428315 1.30706,1.70674 2.56847,3.59178 3.74145,5.62337 6.34621,10.9925 7.6887,22.0972 2.99877,24.8051 -4.69021,2.70822 -13.6372,-4.00677 -19.9837,-14.999 -1.17298,-2.03188 -2.17531,-4.0663 -2.99934,-6.05197 -0.824599,1.9851 -1.82636,4.0201 -2.99934,6.05169 -6.34677,10.9925 -15.2938,17.7089 -19.9843,15.0012 -4.69021,-2.70822 -3.34743,-13.8147 2.99934,-24.8071 1.17269,-2.03159 2.43439,-3.91663 3.74173,-5.62337 -2.13194,0.278362 -4.39512,0.428315 -6.74107,0.428315 -12.6933,0 -22.9828,-4.3903 -22.9828,-9.80589 0,-5.41559 10.2895,-9.80646 22.9828,-9.80646 2.34595,0 4.60914,0.150236 6.74107,0.428599 -1.30734,-1.70646 -2.56904,-3.59178 -3.74173,-5.62337 -6.34677,-10.9925 -7.68955,-22.0989 -2.99934,-24.8068 4.69049,-2.70794 13.6375,4.00847 19.9843,15.0007 1.17298,2.03131 2.17474,4.06658 2.99934,6.05169 0.824032,-1.9851 1.82636,-4.02038 2.99877,-6.05169 6.34706,-10.993 15.2941,-17.7069 19.9843,-14.9993 4.68992,2.70794 3.34743,13.8124 -2.99877,24.8054 -1.17298,2.03102 -2.43439,3.91635 -3.74145,5.62337 2.13109,-0.278646 4.39512,-0.428599 6.74022,-0.428599z"/>
  <path class="fil3" d="M236.683 505.371c0,-7.4469 6.03638,-13.4836 13.4836,-13.4836 7.44662,0 13.4836,6.03666 13.4836,13.4836 0,7.44662 -6.03695,13.4833 -13.4836,13.4833 -7.44718,0 -13.4836,-6.03666 -13.4836,-13.4833z"/>
  <path class="fil2" d="M389.598 447.262c12.693,0 22.9822,4.39058 22.9822,9.80618 0,5.41588 -10.2892,9.80618 -22.9822,9.80618 -2.34595,0 -4.60914,-0.149953 -6.74107,-0.428599 1.30706,1.70674 2.56876,3.59206 3.74145,5.62337 6.34677,10.9928 7.68898,22.0978 2.99877,24.8051 -4.69049,2.70822 -13.6369,-4.00621 -19.9834,-14.999 -1.17298,-2.03102 -2.17474,-4.0663 -2.99962,-6.05197 -0.824599,1.98567 -1.82636,4.02066 -2.99934,6.05197 -6.34621,10.9928 -15.2935,17.7086 -19.9834,15.001 -4.69106,-2.70822 -3.34772,-13.8144 2.99849,-24.8071 1.17298,-2.03131 2.43439,-3.91663 3.74173,-5.62337 -2.13194,0.278646 -4.3954,0.428599 -6.74022,0.428599 -12.6938,0 -22.9833,-4.3903 -22.9833,-9.80618 0,-5.41559 10.2895,-9.80589 22.9825,-9.80618 2.34567,0 4.60914,0.149953 6.74107,0.428599 -1.30734,-1.70674 -2.56876,-3.59206 -3.74173,-5.62337 -6.34621,-10.9925 -7.6887,-22.0989 -2.99849,-24.8068 4.68992,-2.70794 13.6366,4.00819 19.9834,15.001 1.17298,2.03131 2.17474,4.06602 2.99934,6.05112 0.824882,-1.9851 1.82665,-4.0201 2.99962,-6.0514 6.34621,-10.9928 15.2929,-17.7069 19.9834,-14.9993 4.69021,2.70794 3.34772,13.8124 -2.99877,24.8051 -1.17269,2.03159 -2.43439,3.91663 -3.74145,5.62337 2.13194,-0.278646 4.39512,-0.428315 6.74107,-0.428315z"/>
  <path class="fil3" d="M353.131 457.068c0,-7.4469 6.0361,-13.4836 13.4833,-13.4836 7.44662,0 13.4836,6.03666 13.4836,13.4836 0,7.4469 -6.03695,13.4836 -13.4836,13.4836 -7.44718,0 -13.4833,-6.03666 -13.4833,-13.4836z"/>
  <path class="fil2" d="M108.437 330.851c12.6938,0 22.983,4.39058 22.983,9.80646 0,5.41616 -10.2892,9.80618 -22.983,9.80618 -2.3451,0 -4.60914,-0.150236 -6.74022,-0.428599 1.30649,1.70674 2.56819,3.59235 3.74088,5.62337 6.34706,10.9925 7.68955,22.0975 2.99934,24.8054 -4.68992,2.70794 -13.6372,-4.00649 -19.9843,-14.9993 -1.17213,-2.03131 -2.17474,-4.0663 -2.99934,-6.05169 -0.824599,1.98482 -1.8258,4.02038 -2.99877,6.0514 -6.34649,10.993 -15.2938,17.7089 -19.9843,15.0012 -4.68992,-2.70794 -3.34715,-13.8147 2.99962,-24.8071 1.17269,-2.03102 2.43411,-3.91663 3.74088,-5.62337 -2.13137,0.278362 -4.39455,0.428599 -6.74051,0.428599 -12.693,0 -22.9825,-4.39002 -22.9825,-9.80618 -0.000850394,-5.41559 10.2889,-9.80646 22.9825,-9.80646 2.34595,0 4.60914,0.150236 6.74107,0.428599 -1.30734,-1.70646 -2.56876,-3.59178 -3.74145,-5.62281 -6.34677,-10.993 -7.68955,-22.0989 -2.99962,-24.8068 4.69049,-2.70851 13.6378,4.00791 19.9843,15.0007 1.17241,2.03131 2.17417,4.06602 2.99877,6.05112 0.824599,-1.9851 1.82665,-4.0201 2.99934,-6.05112 6.34706,-10.9936 15.2943,-17.7075 19.9843,-14.9998 4.69021,2.70794 3.34772,13.8127 -2.99934,24.8054 -1.17269,2.03131 -2.43439,3.91692 -3.74088,5.62337 2.13109,-0.278646 4.39455,-0.428599 6.74022,-0.428599z"/>
  <path class="fil3" d="M71.9694 340.657c0,-7.44662 6.03695,-13.4836 13.4836,-13.4836 7.44718,0 13.4836,6.03695 13.4836,13.4836 0,7.44662 -6.03638,13.4833 -13.4836,13.4833 -7.44662,0 -13.4836,-6.03666 -13.4836,-13.4833z"/>
  <path class="fil2" d="M156.701 447.262c12.6941,0 22.983,4.39058 22.983,9.80618 0,5.41588 -10.2889,9.80618 -22.983,9.80618 -2.34539,0 -4.60885,-0.149953 -6.74079,-0.428599 1.30734,1.70674 2.56876,3.59206 3.74173,5.62337 6.34677,10.9928 7.68955,22.0978 2.99906,24.8051 -4.69021,2.70822 -13.6372,-4.00621 -19.9843,-14.999 -1.17241,-2.03102 -2.17446,-4.0663 -2.99906,-6.05197 -0.824599,1.98567 -1.82665,4.02066 -2.99877,6.05197 -6.34706,10.9928 -15.2941,17.7086 -19.9843,15.001 -4.69049,-2.70822 -3.34772,-13.8144 2.99906,-24.8071 1.17269,-2.03131 2.43439,-3.91663 3.74145,-5.62337 -2.13165,0.278646 -4.3954,0.428599 -6.74051,0.428599 -12.6933,0 -22.9836,-4.3903 -22.9836,-9.80618 0,-5.41559 10.2898,-9.80589 22.9836,-9.80618 2.3451,0 4.60885,0.149953 6.74051,0.428599 -1.30706,-1.70674 -2.56819,-3.59206 -3.74145,-5.62337 -6.34677,-10.9925 -7.68955,-22.0989 -2.99906,-24.8068 4.69021,-2.70794 13.6372,4.00819 19.9843,15.001 1.17213,2.03131 2.17417,4.06602 2.99877,6.05112 0.824599,-1.9851 1.82665,-4.0201 2.99906,-6.0514 6.34706,-10.9928 15.2935,-17.7069 19.9843,-14.9993 4.69049,2.70794 3.34772,13.8124 -2.99906,24.8051 -1.17298,2.03159 -2.43439,3.91663 -3.74173,5.62337 2.13194,-0.278646 4.3954,-0.428315 6.74079,-0.428315z"/>
  <path class="fil3" d="M120.234 457.068c0,-7.4469 6.03695,-13.4836 13.4836,-13.4836 7.44718,0 13.4836,6.03666 13.4836,13.4836 0,7.4469 -6.03638,13.4836 -13.4836,13.4836 -7.44662,0 -13.4836,-6.03666 -13.4836,-13.4836z"/>
  <path class="fil2" d="M389.598 214.401c12.693,-0.000283465 22.9822,4.3903 22.9828,9.80618 0,5.41616 -10.2898,9.80618 -22.9828,9.80618 -2.34595,0 -4.60914,-0.149953 -6.74107,-0.428315 1.30706,1.70646 2.56876,3.59206 3.74145,5.62309 6.34677,10.9928 7.68898,22.0978 2.99877,24.8057 -4.69049,2.70794 -13.6369,-4.00677 -19.9834,-14.9993 -1.17298,-2.03102 -2.17474,-4.06658 -2.99962,-6.05197 -0.824599,1.98539 -1.82636,4.02038 -2.99934,6.0514 -6.34621,10.993 -15.2935,17.7089 -19.9834,15.001 -4.69021,-2.70737 -3.34772,-13.8138 2.99849,-24.8068 1.17298,-2.03102 2.43439,-3.91663 3.74173,-5.62309 -2.13194,0.278362 -4.3954,0.428315 -6.74022,0.428315 -12.6938,0 -22.9833,-4.39002 -22.9833,-9.80618 0,-5.41588 10.2895,-9.80589 22.9825,-9.80589 2.34567,-0.000283465 4.60914,0.149669 6.74107,0.428315 -1.30734,-1.70674 -2.56876,-3.59206 -3.74173,-5.62309 -6.34621,-10.9925 -7.6887,-22.0989 -2.99849,-24.8068 4.68992,-2.70794 13.6372,4.00791 19.9834,15.0007 1.17298,2.03102 2.17474,4.0663 2.99934,6.05169 0.824882,-1.98539 1.82665,-4.02066 2.99962,-6.05197 6.34621,-10.9928 15.2929,-17.7072 19.9834,-14.9993 4.69021,2.70794 3.34772,13.8124 -2.99877,24.8054 -1.17269,2.03131 -2.43439,3.91635 -3.74145,5.62337 2.13194,-0.278646 4.39512,-0.428599 6.74107,-0.428599z"/>
  <path class="fil3" d="M353.131 224.208c0,-7.4469 6.0361,-13.4836 13.4833,-13.4836 7.44662,0 13.4836,6.03666 13.4836,13.4836 0,7.4469 -6.03695,13.4836 -13.4836,13.4836 -7.44718,0 -13.4833,-6.03666 -13.4833,-13.4836z"/>
  <path class="fil2" d="M156.701 214.401c12.6941,-0.000283465 22.983,4.3903 22.983,9.80618 0,5.41616 -10.2889,9.80618 -22.983,9.80618 -2.34539,0 -4.60885,-0.149953 -6.74079,-0.428315 1.30734,1.70646 2.56876,3.59206 3.74173,5.62309 6.34677,10.9928 7.68955,22.0978 2.99906,24.8057 -4.69021,2.70794 -13.6372,-4.00677 -19.9843,-14.9993 -1.17241,-2.03102 -2.17446,-4.06658 -2.99906,-6.05197 -0.824599,1.98539 -1.82665,4.02038 -2.99877,6.0514 -6.34706,10.993 -15.2941,17.7089 -19.9843,15.001 -4.69049,-2.70737 -3.34772,-13.8138 2.99906,-24.8068 1.17269,-2.03102 2.43439,-3.91663 3.74145,-5.62309 -2.13165,0.278362 -4.3954,0.428315 -6.74051,0.428315 -12.6933,0 -22.9836,-4.39002 -22.9836,-9.80618 0,-5.41588 10.2898,-9.80589 22.9836,-9.80589 2.3451,-0.000283465 4.60885,0.149669 6.74051,0.428315 -1.30706,-1.70674 -2.56819,-3.59206 -3.74145,-5.62309 -6.34677,-10.9925 -7.68955,-22.0989 -2.99906,-24.8068 4.69021,-2.70794 13.6372,4.00791 19.9843,15.0007 1.17213,2.03102 2.17417,4.0663 2.99877,6.05169 0.824599,-1.98539 1.82665,-4.02066 2.99906,-6.05197 6.34706,-10.9928 15.2935,-17.7072 19.9843,-14.9993 4.69049,2.70794 3.34772,13.8124 -2.99906,24.8054 -1.17298,2.03131 -2.43439,3.91635 -3.74173,5.62337 2.13194,-0.278646 4.3954,-0.428599 6.74079,-0.428599z"/>
  <path class="fil3" d="M120.234 224.208c0,-7.4469 6.03695,-13.4836 13.4836,-13.4836 7.44718,0 13.4836,6.03666 13.4836,13.4836 0,7.4469 -6.03638,13.4836 -13.4836,13.4836 -7.44662,0 -13.4836,-6.03666 -13.4836,-13.4836z"/>
  <polygon class="fil4" points="104.831,22.2078 395.501,22.2078 395.501,106.987 104.831,106.987 "/>
  <polygon class="fil3" points="109.676,27.0525 136.32,27.0525 136.32,45.6231 109.676,45.6231 "/>
  <polygon class="fil5" points="104.831,22.2078 141.165,22.2078 136.32,27.0525 109.676,27.0525 109.676,45.6231 104.831,50.4675 "/>
  <polygon class="fil3" points="364.012,27.0525 390.656,27.0525 390.656,45.6231 364.012,45.6231 "/>
  <polygon class="fil5" points="359.167,22.2078 395.501,22.2078 390.656,27.0525 364.012,27.0525 364.012,45.6231 359.167,50.4675 "/>
  <polygon class="fil3" points="146.01,27.0525 208.988,27.0525 208.988,45.6231 146.01,45.6231 "/>
  <polygon class="fil5" points="141.165,22.2078 213.833,22.2078 208.988,27.0525 146.01,27.0525 146.01,45.6231 141.165,50.4675 "/>
  <polygon class="fil3" points="218.677,27.0525 281.656,27.0525 281.656,45.6231 218.677,45.6231 "/>
  <polygon class="fil5" points="213.833,22.2078 286.5,22.2078 281.656,27.0525 218.677,27.0525 218.677,45.6231 213.833,50.4675 "/>
  <polygon class="fil3" points="291.344,27.0525 354.323,27.0525 354.323,45.6231 291.344,45.6231 "/>
  <polygon class="fil5" points="286.5,22.2078 359.167,22.2078 354.323,27.0525 291.344,27.0525 291.344,45.6231 286.5,50.4675 "/>
  <polygon class="fil6" points="177.499,50.4675 158.121,33.5115 158.121,0.407339 167.809,0.407339 167.809,7.67424 172.654,7.67424 172.654,0.407339 177.499,0.407339 182.343,0.407339 182.343,7.67424 187.188,7.67424 187.188,0.407339 196.876,0.407339 196.877,33.5115 "/>
  <polygon class="fil5" points="172.654,0.407339 182.343,0.407339 179.114,3.63714 175.884,3.63714 175.884,10.9038 172.654,7.67424 "/>
  <polygon class="fil5" points="187.188,0.407339 196.877,0.407339 193.647,3.63714 190.417,3.63714 190.417,10.9038 187.188,7.67424 "/>
  <polygon class="fil5" points="158.121,0.407339 167.809,0.407339 164.58,3.63714 161.351,3.63714 161.351,30.2823 158.121,33.5115 "/>
  <polygon class="fil7" points="177.499,44.4115 161.351,30.2823 161.351,3.63714 164.58,3.63714 164.58,10.9038 175.884,10.9038 175.884,3.63714 179.114,3.63714 179.114,10.9038 190.417,10.9038 190.417,3.63714 193.647,3.63714 193.647,30.2823 "/>
  <polygon class="fil6" points="104.831,50.4675 85.453,33.5115 85.453,0.407339 95.1424,0.407339 95.1424,7.67424 99.9865,7.67424 99.9865,0.407339 104.831,0.407339 109.676,0.407339 109.676,7.67424 114.521,7.67424 114.521,0.407339 124.209,0.407339 124.209,33.5115 "/>
  <polygon class="fil5" points="99.9865,0.407339 109.676,0.407339 106.446,3.63714 103.216,3.63714 103.216,10.9038 99.9865,7.67424 "/>
  <polygon class="fil5" points="114.521,0.407339 124.209,0.407339 120.979,3.63714 117.75,3.63714 117.75,10.9038 114.521,7.67424 "/>
  <polygon class="fil5" points="85.453,0.407339 95.1424,0.407339 91.9126,3.63714 88.6828,3.63714 88.6828,30.2823 85.453,33.5115 "/>
  <polygon class="fil7" points="104.831,44.4115 88.6828,30.2823 88.6828,3.63714 91.9126,3.63714 91.9126,10.9038 103.216,10.9038 103.216,3.63714 106.446,3.63714 106.446,10.9038 117.75,10.9038 117.75,3.63714 120.979,3.63714 120.979,30.2823 "/>
  <polygon class="fil6" points="322.833,50.4675 303.455,33.5115 303.455,0.407339 313.145,0.407339 313.145,7.67424 317.989,7.67424 317.989,0.407339 322.833,0.407339 327.678,0.407339 327.678,7.67424 332.522,7.67424 332.522,0.407339 342.212,0.407339 342.212,33.5115 "/>
  <polygon class="fil5" points="317.989,0.407339 327.678,0.407339 324.448,3.63714 321.219,3.63714 321.219,10.9038 317.989,7.67424 "/>
  <polygon class="fil5" points="332.523,0.407339 342.212,0.407339 338.982,3.63714 335.752,3.63714 335.752,10.9038 332.523,7.67424 "/>
  <polygon class="fil5" points="303.455,0.407339 313.145,0.407339 309.915,3.63714 306.685,3.63714 306.685,30.2823 303.455,33.5115 "/>
  <polygon class="fil7" points="322.833,44.4115 306.685,30.2823 306.685,3.63714 309.915,3.63714 309.915,10.9038 321.219,10.9038 321.219,3.63714 324.448,3.63714 324.448,10.9038 335.752,10.9038 335.752,3.63714 338.982,3.63714 338.982,30.2823 "/>
  <polygon class="fil6" points="395.501,50.4675 376.123,33.5115 376.123,0.407339 385.812,0.407339 385.812,7.67424 390.656,7.67424 390.656,0.407339 395.501,0.407339 400.345,0.407339 400.345,7.67424 405.19,7.67424 405.19,0.407339 414.879,0.407339 414.879,33.5115 "/>
  <polygon class="fil5" points="390.656,0.407339 400.345,0.407339 397.116,3.63714 393.886,3.63714 393.886,10.9038 390.656,7.67424 "/>
  <polygon class="fil5" points="405.19,0.407339 414.879,0.407339 411.649,3.63714 408.42,3.63714 408.42,10.9038 405.19,7.67424 "/>
  <polygon class="fil5" points="376.123,0.407339 385.812,0.407339 382.582,3.63714 379.353,3.63714 379.353,30.2823 376.123,33.5115 "/>
  <polygon class="fil7" points="395.501,44.4115 379.353,30.2823 379.353,3.63714 382.582,3.63714 382.582,10.9038 393.886,10.9038 393.886,3.63714 397.116,3.63714 397.116,10.9038 408.42,10.9038 408.42,3.63714 411.649,3.63714 411.649,30.2823 "/>
  <polygon class="fil3" points="291.344,83.5719 354.323,83.5719 354.323,102.143 291.344,102.143 "/>
  <polygon class="fil6" points="250.166,50.4675 230.788,33.5115 230.788,0.407339 240.477,0.407339 240.477,7.67424 245.322,7.67424 245.322,0.407339 250.166,0.407339 255.011,0.407339 255.011,7.67424 259.855,7.67424 259.855,0.407339 269.544,0.407339 269.544,33.5115 "/>
  <polygon class="fil5" points="245.322,0.407339 255.011,0.407339 251.781,3.63714 248.551,3.63714 248.551,10.9038 245.322,7.67424 "/>
  <polygon class="fil5" points="259.855,0.407339 269.544,0.407339 266.315,3.63714 263.085,3.63714 263.085,10.9038 259.855,7.67424 "/>
  <polygon class="fil5" points="230.788,0.407339 240.477,0.407339 237.247,3.63714 234.018,3.63714 234.018,30.2823 230.788,33.5115 "/>
  <polygon class="fil7" points="250.166,44.4115 234.018,30.2823 234.018,3.63714 237.247,3.63714 237.247,10.9038 248.551,10.9038 248.551,3.63714 250.166,3.63714 251.781,3.63714 251.781,10.9038 263.085,10.9038 263.084,3.63714 266.314,3.63714 266.314,30.2823 "/>
  <polygon class="fil5" points="322.833,50.4675 395.501,50.4675 390.656,55.3122 327.678,55.3122 327.678,73.8825 322.833,78.7272 "/>
  <polygon class="fil5" points="250.166,50.4675 322.833,50.4675 317.989,55.3122 255.011,55.3122 255.011,73.8825 250.166,78.7272 "/>
  <polygon class="fil5" points="104.831,50.4675 177.499,50.4675 172.654,55.3122 109.676,55.3122 109.676,73.8825 104.831,78.7272 "/>
  <polygon class="fil5" points="177.499,50.4675 250.166,50.4675 245.322,55.3122 182.343,55.3122 182.343,73.8825 177.499,78.7272 "/>
  <polygon class="fil5" points="104.831,78.7272 141.165,78.7272 136.32,83.5719 109.676,83.5719 109.676,102.143 104.831,106.987 "/>
  <polygon class="fil5" points="359.167,78.7272 395.501,78.7272 390.656,83.5719 364.012,83.5719 364.012,102.143 359.167,106.987 "/>
  <polygon class="fil5" points="141.165,78.7272 213.833,78.7272 208.988,83.5719 146.01,83.5719 146.01,102.143 141.165,106.987 "/>
  <polygon class="fil5" points="213.833,78.7272 286.5,78.7272 281.656,83.5719 218.677,83.5719 218.677,102.143 213.833,106.987 "/>
  <polygon class="fil3" points="109.676,55.3122 172.654,55.3122 172.654,73.8825 109.676,73.8825 "/>
  <polygon class="fil3" points="182.343,55.3122 245.322,55.3122 245.322,73.8825 182.343,73.8825 "/>
  <polygon class="fil3" points="255.011,55.3122 317.989,55.3122 317.989,73.8825 255.011,73.8825 "/>
  <polygon class="fil3" points="327.678,55.3122 390.656,55.3122 390.656,73.8825 327.678,73.8825 "/>
  <polygon class="fil3" points="109.676,83.5719 136.32,83.5719 136.32,102.143 109.676,102.143 "/>
  <polygon class="fil3" points="364.012,83.5719 390.656,83.5719 390.656,102.143 364.012,102.143 "/>
  <polygon class="fil3" points="146.01,83.5719 208.988,83.5719 208.988,102.143 146.01,102.143 "/>
  <polygon class="fil3" points="218.677,83.5719 281.656,83.5719 281.656,102.143 218.677,102.143 "/>
  <polygon class="fil5" points="286.5,78.7272 359.167,78.7272 354.323,83.5719 291.344,83.5719 291.344,102.143 286.5,106.987 "/>
 </g>
</svg>
