<?xml version="1.0" encoding="UTF-8"?>
<!DOCTYPE svg PUBLIC "-//W3C//DTD SVG 1.1//EN" "http://www.w3.org/Graphics/SVG/1.1/DTD/svg11.dtd">
<!-- Creator: CorelDRAW -->
<svg xmlns="http://www.w3.org/2000/svg" xml:space="preserve" width="500px" height="585px" shape-rendering="geometricPrecision" text-rendering="geometricPrecision" image-rendering="optimizeQuality" fill-rule="evenodd" clip-rule="evenodd"
viewBox="0 0 500 585"
 xmlns:xlink="http://www.w3.org/1999/xlink"
 xmlns:dc="http://purl.org/dc/elements/1.1/"
 xmlns:cc="http://web.resource.org/cc/"
 xmlns:rdf="http://www.w3.org/1999/02/22-rdf-syntax-ns#"
 xmlns:svg="http://www.w3.org/2000/svg"
 xmlns:sodipodi="http://sodipodi.sourceforge.net/DTD/sodipodi-0.dtd"
 xmlns:inkscape="http://www.inkscape.org/namespaces/inkscape"
 sodipodi:version="0.32"
 inkscape:version="0.45.1"
 sodipodi:docname="Raisio.vaakuna.svg"
 sodipodi:docbase="/"
 version="1.0"
 inkscape:output_extension="org.inkscape.output.svg.inkscape">
 <g id="Layer_x0020_1">
  <metadata id="CorelCorpID_0Corel-Layer"/>
  <path id="path5171" fill="#CCCCCC" stroke="black" stroke-width="2.83465" d="M1.6098 1.60328l496.918 0 0 318.167c0,154.354 -119.001,263.397 -248.459,263.397 -129.458,0 -248.459,-109.043 -248.459,-263.397l0 -318.167z" sodipodi:nodetypes="cccccc"/>
  <path id="path3185" fill="#CCCCCC" stroke="#BF9F4F" stroke-width="5.66929" stroke-linecap="round" stroke-linejoin="round" d="M323.013 62.3486c0.000283465,27.15 -22.1434,49.2937 -49.2931,49.2937 -27.15,0 -49.2928,-22.1437 -49.2928,-49.2937 0,-27.1502 22.1428,-49.2934 49.2928,-49.2934 27.1497,0 49.2934,22.1431 49.2934,49.2934l-0.000283465 0z" sodipodi:type="arc" sodipodi:cx="283" sodipodi:cy="68" sodipodi:rx="48.5" sodipodi:ry="48.5"/>
  <path id="path5173" fill="#F00000" stroke="black" stroke-width="1.41732" d="M264.508 504.247l-33.139 16.5971c-1.63162,-5.70586 -1.24696,-13.2931 0.774426,-17.8418 1.96186,-4.41411 7.40467,-7.68133 9.21147,-12.1989 2.50838,-6.27052 0.66189,-14.6931 5.22822,-19.6676 7.15238,-7.79159 17.1573,-9.28148 29.8942,-20.3701 12.7369,-11.0894 29.4506,-29.5373 29.3576,-35.1474 -0.282614,-17.0425 -30.7656,-28.1563 -36.3478,-73.9401l72.9445 -5.97487c0.33704,25.3395 -7.32501,36.879 -9.70952,48.7956 -0.615685,3.07758 1.42498,6.28866 1.49386,9.46007 0.0972284,4.46344 -2.36438,9.40337 -0.995812,13.4439 2.11691,6.24955 9.71207,10.7331 9.70923,16.6799 -0.00226772,5.34444 -3.07758,9.76394 -9.21147,14.6886 -4.40674,3.53792 -11.9679,5.13836 -16.9288,8.46454 -9.6446,6.46611 -18.3113,14.4264 -26.1405,23.4017 -5.78013,6.62599 -7.64986,17.2664 -13.4439,22.1573 -3.68618,3.11188 -8.6023,-3.72529 -11.7011,-1.24469 -1.53071,1.2257 -5.67213,6.37937 -0.995528,12.6967z" sodipodi:nodetypes="ccsssssccsssssssssc"/>
  <path id="path6144" fill="#BF9F4F" stroke="black" stroke-width="1.41732" d="M230.102 511.6c5.66164,8.02857 25.7726,-1.04032 32.8125,-12.8293 4.89203,4.77978 5.56271,14.6585 3.98353,16.6802 -8.2389,10.5429 -24.8536,21.7639 -34.3565,23.1528 -1.87313,0.273827 -1.20104,-3.36728 -1.56047,-8.81008 -0.359433,-5.44252 -3.94129,-10.3638 -0.879024,-18.1936z" sodipodi:nodetypes="ccsssc"/>
  <path id="path6146" fill="#F00000" stroke="black" stroke-width="1.41732" d="M112.147 307.571l38.8375 39.0864c-23.3195,11.7703 -41.1228,14.7569 -62.4884,14.6886 -13.6653,-0.0436536 -36.6939,-6.99931 -39.75,-5.22851 -4.01868,2.32838 0.416977,15.6104 1.16135,22.7384 0.417544,3.99203 3.61503,8.03424 3.48577,11.6181 -0.135496,3.75166 5.59985,4.60432 8.79619,7.80038 2.44687,2.44687 4.94674,3.19947 5.14545,6.47292 0.133228,2.20365 -5.98366,6.65547 -1.99191,10.2901 3.22725,2.93896 6.20051,1.29997 9.29424,0.829985l-0.165827 26.2236c-11.9169,4.14766 -19.7527,-2.48712 -21.2443,-7.46873 -1.59817,-5.33707 -6.44315,-8.227 -11.452,-12.1158 -3.29896,-2.56139 -7.48687,-7.95714 -7.46873,-12.1161 0.121039,-27.5786 -17.608,-56.8143 -17.4271,-63.4009 0.152221,-5.67014 8.63065,-19.0074 13.9419,-19.0868 3.27175,-0.0473386 5.13071,3.06425 8.96202,2.98772 4.46684,-0.0895748 5.48759,-2.32384 9.95868,-2.32384 4.32539,0 10.4411,1.21436 14.7713,1.16192 6.47603,-0.076252 39.5961,-12.7933 47.6337,-22.1573z" sodipodi:nodetypes="ccsssssssccssssssssc"/>
  <path id="path7117" fill="#BF9F4F" stroke="black" stroke-width="1.41732" d="M67.2347 443.552c7.26152,-6.92929 6.98741,-16.2655 3.41887,-27.0536 6.92136,-3.1201 11.5801,-1.71836 13.0788,0.69704 5.33396,8.5989 5.26025,17.9249 2.72211,30.6051 -0.466866,2.33008 -4.38803,-0.415559 -7.10391,-1.36091 -2.97043,-1.03408 -5.40255,-1.60158 -12.1158,-2.88765z" sodipodi:nodetypes="ccsssc"/>
  <path id="path4182" fill="#F00000" stroke="black" stroke-width="1.41732" d="M309.818 118.862l27.6344 -0.995812c19.9993,60.6147 63.152,20.2555 76.4297,-17.9249 23.7181,75.6411 -45.9167,138.506 -103.815,124.976l-0.248882 -106.056z" sodipodi:nodetypes="ccccc"/>
  <path id="path8092" fill="#F00000" stroke="black" stroke-width="1.41732" d="M100.943 173.632c-7.344,13.9419 -29.0186,22.7492 -28.8788,27.1364 0.391748,12.3182 3.57562,11.579 3.73436,16.9291 0.249165,8.51358 -2.61383,7.34457 -4.85462,8.71399 -3.93137,2.40236 -5.6194,6.59934 -7.59317,4.23184 -2.16907,-2.60136 4.73018,-7.09512 -6.7218,-31.244 -9.46063,5.97487 -14.1409,26.3098 -16.0577,28.3813 -1.80992,1.95562 -6.72548,0.377292 -7.96678,-0.747213 -2.0211,-1.83062 -1.67896,-4.99011 -3.60964,-7.46873 -1.72517,-2.21414 -7.52315,-4.83194 -7.46901,-8.33982 0.0717166,-4.60999 3.48577,-10.7464 4.97906,-16.4313 7.39701,-28.148 5.13695,-69.8335 26.8878,-93.6077 26.7628,-29.2524 115.608,30.5966 133.109,72.0315 24.4349,57.852 8.61109,48.2808 92.9438,48.2145 55.2776,-0.043937 72.9443,-7.59289 115.018,17.4271 65.2266,-13.568 79.3834,35.7594 79.6663,64.7292 0.359433,36.8445 -8.54788,71.4504 -2.82161,94.3543 -12.7426,-15.4834 -8.07279,-44.1304 -10.622,-69.2099 0.165827,18.3816 0.0827717,35.3103 1.16192,56.7621 -16.0163,-27.8419 -4.93767,-84.8529 -15.7677,-106.554 10.8301,21.6179 0,67.1769 13.6097,129.458 -13.7755,-24.1075 -16.9707,-37.5511 -17.9249,-58.754 -0.622489,18.2985 1.86718,31.7418 4.73046,57.011 -36.9703,-60.3717 16.8044,-147.88 -43.8166,-152.859 12.8211,22.1573 17.8294,32.3269 18.1735,51.5342 0.487559,27.1741 -9.4184,37.5625 -13.6925,55.2685 -1.74246,7.21985 1.61858,8.33982 1.49386,15.1863 -0.130677,7.18215 -2.49789,4.61906 -2.73855,12.6967 -0.21515,7.21985 13.559,19.0131 13.6097,24.232 0.0535748,5.52444 -1.36913,5.31099 -3.98353,12.282 -2.61383,6.97068 -1.90857,3.81714 -5.64293,15.7672 -3.73436,11.9497 -5.13213,20.9948 -6.80485,31.8665 -0.995528,6.47292 2.40662,4.10769 0.663874,11.452 -1.74246,7.34429 -7.79443,16.8154 -10.2901,16.9291 -3.66293,0.166961 -4.92151,-3.03251 -7.46873,-2.98743 -4.23836,0.0768189 -7.91263,6.67276 -7.867,10.7549 0.0334488,2.9897 0.69704,4.55584 1.59336,11.253l-34.6547 -0.199559c-0.821764,-9.55985 7.81682,-13.7174 9.80873,-18.0743 1.99191,-4.35657 -0.124724,-3.23603 4.73018,-8.71342 4.85462,-5.47711 11.7009,-2.86271 15.9333,-12.4475 5.84731,-13.2432 9.0156,-24.5282 10.2073,-39.3355 0.871371,-10.8295 -2.6144,-12.0745 -3.98353,-18.9207 -1.56132,-7.80605 0.892063,-5.06183 -3.23603,-12.4478 -9.8076,-17.5465 -14.4397,-16.431 -23.1531,-31.3685 -8.71371,-14.9375 -5.39575,-19.2294 -11.452,-26.8875 -3.24397,-4.10173 -10.4958,-9.00397 -22.6553,-8.9623 -31.0088,0.105449 -44.5632,19.7921 -116.761,21.1615 -58.4683,1.12422 -111.842,-19.1764 -112.778,-75.932 -0.491244,-29.5503 12.6612,-39.0977 12.697,-48.7956 0.0997796,-26.3149 -0.622489,-49.7917 -3.48577,-65.4761z" sodipodi:nodetypes="csssscsssssssscsccccccccssssssssssssccssssssssssssc"/>
  <path id="path30475" fill="#BF9F4F" stroke="black" stroke-width="1.41732" d="M95.2175 283.173c0.342142,42.0741 5.52699,73.897 28.8955,74.4381 4.47761,0.104032 12.0206,-3.48321 14.3235,-7.32756l0.0994961 7.51862c-3.17424,3.1595 -7.40381,5.6469 -16.3811,5.63471 -24.5554,-0.0340158 -34.0016,-34.7358 -34.0328,-80.015l7.09541 -0.248882z" sodipodi:nodetypes="csccscc"/>
  <path id="path7119" fill="#F00000" stroke="black" stroke-width="1.41732" d="M172.145 329.728c0.871371,11.5767 11.2377,14.2455 10.9542,30.1238 -0.249165,13.9416 -4.38066,15.4301 -4.23241,24.647 0.128693,8.22643 2.0109,7.84319 1.49386,14.4391 -0.498047,6.34848 -3.98353,4.35714 -3.48577,11.95 0.432284,6.588 2.6144,6.84624 2.24079,15.9336 -0.373606,9.08674 -2.67279,11.2853 -5.47711,21.659 -3.49229,12.9198 -1.89071,25.6524 1.24498,27.6341 3.03789,1.92019 2.48939,9.80845 2.48939,17.4271 0,7.46873 -0.672095,11.3275 -4.23241,11.3275 -4.85433,0 -11.7006,-2.73827 -11.7006,3.98325 0,4.31547 0,5.60155 1.49358,12.0745l-32.8623 1.49386c-1.24469,-7.21985 -1.22372,-12.9657 0.622489,-15.6841 7.61103,-11.2085 22.1735,-13.8702 22.7795,-32.3646 0.554174,-16.8029 0.249165,-24.1486 -1.24469,-28.6302 -3.87723,-11.6306 -8.84807,-11.9444 -8.71371,-23.1528 0.12274,-10.2569 2.57443,-14.317 2.73855,-21.6593 0.498047,-22.3101 -12.4478,-47.4265 -19.1696,-79.1686m45.0613 7.96678l0 0 0 0z" sodipodi:nodetypes="cssssssssssccssssss"/>
  <path id="path2196" fill="#BF9F4F" stroke="black" stroke-width="1.41732" d="M346.091 513.21c6.54775,6.32325 15.9582,8.56404 33.3604,3.98296 2.86299,6.17414 0.331654,9.89604 -3.31115,11.6016 -10.2283,4.788 -20.4741,7.01972 -35.5513,4.87928 -2.51802,-0.36 0.149386,-2.09112 2.09169,-7.66772 1.94173,-5.5766 -0.348945,-6.07465 3.41036,-12.7962z" sodipodi:nodetypes="ccsssc"/>
  <path id="path3170" fill="#BF9F4F" stroke="black" stroke-width="1.41732" d="M249.073 309.563l19.5435 0.124158c0.783496,21.5501 1.60243,37.3941 -10.4564,49.667 -8.23267,1.66195 -11.9857,1.87087 -22.6551,3.11216 18.921,-22.5343 14.6001,-30.6842 13.568,-52.9033z" sodipodi:nodetypes="ccccc"/>
  <path id="path8048" fill="#BF9F4F" stroke="black" stroke-width="1.41732" d="M60.8616 235.788c52.5606,0.732756 102.29,-8.03566 144.395,-30.041l0 7.13707c-44.8917,23.9856 -92.8721,31.1939 -144.561,29.8746l0.16611 -6.97068z" sodipodi:nodetypes="ccccc"/>
  <path id="path30473" fill="#BF9F4F" stroke="black" stroke-width="1.41732" d="M97.8313 271.472c35.2902,-19.9205 81.3399,-18.4955 110.413,-48.1731l0.373323 11.2034c-29.558,28.5112 -73.6674,24.9041 -111.284,47.7998l0.497764 -10.8301z" sodipodi:nodetypes="ccccc"/>
  <path id="path3172" fill="#BF9F4F" stroke="black" stroke-width="1.41732" d="M203.514 206.744c8.84126,23.4737 71.6378,13.2313 119.25,13.3192 14.6038,44.7843 -1.92926,61.2227 13.6925,102.197 -42.7485,-17.231 -94.0578,3.65414 -149.872,6.47292 16.431,-35.0575 18.949,-75.2364 16.9291,-121.989z" sodipodi:nodetypes="ccccc"/>
  <path id="path2170" fill="#0000BF" stroke="black" stroke-width="1.41732" d="M251.313 213.963l53.028 15.4352c-3.42312,18.921 -45.4853,40.4878 -65.2266,50.7875 -4.94674,2.58038 -8.04841,9.56977 -5.72627,13.4433 8.9504,14.9292 1.18261,43.0699 -6.47292,61.7414l-21.9079 0.995812c0.18652,-18.796 -0.547654,-43.4319 -6.22375,-68.7121 -1.20104,-5.34841 -2.31817,-12.4396 2.4891,-19.1696 13.3784,-18.7282 25.7051,-35.6012 50.0403,-54.5216z" sodipodi:nodetypes="ccssccssc"/>
  <path id="path3174" fill="#F00000" stroke="black" stroke-width="1.41732" d="M199.904 350.267c16.0401,1.20246 26.1573,-0.729922 34.7298,-3.48548 0.839906,8.21566 -1.96214,18.3606 -1.99191,19.4185 -0.0714331,2.55118 3.2366,1.64976 3.11188,5.35295 -0.124441,3.70318 -4.22674,7.90668 -3.60992,9.46007 0.902552,2.27197 4.64315,1.37169 5.10378,5.97515 0.288284,2.88028 -2.01487,7.70089 -12.3233,8.09122 -12.4761,0.466299 -21.9705,9.46007 -35.9742,9.21147 -14.004,-0.249165 -20.3993,-4.54025 -20.4148,-8.0915 -0.0153071,-3.00643 4.94447,-5.61572 8.21594,-5.60155 1.68435,0.00765355 5.20016,1.00828 8.71342,0.871371 3.39307,-0.132095 16.2904,-7.56709 17.0532,-21.0368 0.338457,-5.96665 -1.21323,-12.3854 -2.61383,-20.1654z" sodipodi:nodetypes="ccssssssssssc"/>
  <path id="path4112" fill="#F00000" stroke="black" stroke-width="1.41732" d="M55.26 94.9621c-6.28158,-12.0345 -6.00633,-23.4726 -5.10378,-34.8543 3.77348,13.0535 17.405,18.862 15.9333,32.6132l-10.8295 2.24107z" sodipodi:nodetypes="cccc"/>
  <path id="path5089" fill="#BF9F4F" stroke="black" stroke-width="1.41732" d="M27.5012 185.831c11.7987,-0.0116221 22.2871,2.67421 30.4971,8.58898l-4.23213 5.97487c-10.5537,-4.80699 -18.7172,-5.79827 -26.8872,-5.60155 -4.22929,0.102047 -1.63304,-8.96004 0.622205,-8.9623z" sodipodi:nodetypes="cccss"/>
  <path id="path5091" fill="#F00000" stroke="black" stroke-width="1.41732" d="M47.4177 141.268c9.3447,-8.78344 14.9919,-4.12129 20.7882,0 -6.78643,4.99862 -13.6709,6.57383 -20.7882,0z" sodipodi:nodetypes="ccc"/>
  <path id="path5093" fill="#BF9F4F" stroke="black" stroke-width="1.41732" d="M44.0567 115.626c11.3114,-0.918709 30.9954,3.14277 38.8375,14.8127 6.47292,-15.7153 5.19704,-21.1303 5.10378,-29.3771l4.85433 -6.34819c5.24523,33.6549 -18.1398,82.7502 -30.1235,103.442l-6.97096 -2.86299c7.74879,-13.9414 19.1075,-39.0552 24.2734,-57.7579 -11.7632,-14.9686 -28.1838,-14.0468 -39.335,-13.3192 -4.21994,0.274961 -0.320882,-8.29021 3.36047,-8.58898z" sodipodi:nodetypes="cccccccss"/>
  <path id="path4116" fill="#F00000" stroke="black" stroke-width="1.41732" d="M22.5221 99.8167c23.5953,4.94958 16.5288,-20.3 61.8656,-9.46035l0.124441 12.1986c-37.717,-13.7733 -26.0158,28.8709 -63.1103,10.9542 15.6002,0.702709 16.6867,-2.11238 27.0119,-8.58898 -13.5578,7.62945 -17.4509,4.60205 -25.8917,-5.1035z" sodipodi:nodetypes="cccccc"/>
  <path id="path7045" fill="#F00000" stroke="black" stroke-width="1.41732" d="M180.61 161.433c3.10309,0.0172913 9.07796,5.55648 9.21119,19.9168 0.0756851,8.12325 -4.2704,9.94876 -1.11997,20.7876 -11.0531,-12.6646 0.368788,-20.0424 -8.3401,-27.3852l0.248882 -13.3192z" sodipodi:nodetypes="csccc"/>
  <path id="path7043" fill="#F00000" stroke="black" stroke-width="1.41732" d="M168.909 146.247c7.70882,0.141732 13.3447,6.67644 13.4433,21.0368 0.0756851,10.8621 -9.37361,12.5632 -3.98325,35.8498 -21.6337,-19.76 -2.3692,-28.8805 -9.46007,-45.8079l0 -11.0787z" sodipodi:nodetypes="csccc"/>
  <path id="path7041" fill="#F00000" stroke="black" stroke-width="1.41732" d="M155.838 130.812c12.1901,-0.10715 16.9546,12.1479 17.1782,26.6383 0.263906,16.9554 -11.1166,7.33465 -7.96678,44.0654 -20.0152,-28.8471 7.71336,-39.9592 -8.96259,-59.0029l-0.248882 -11.7009z" sodipodi:nodetypes="csccc"/>
  <path id="path7039" fill="#F00000" stroke="black" stroke-width="1.41732" d="M141.523 116.995c12.1901,-0.10715 20.0605,11.7751 19.9168,25.1447 -0.248882,22.6828 -12.2369,26.8776 -11.0787,49.5423 -16.4055,-30.0918 11.6966,-44.3157 -8.58898,-62.9861l-0.249165 -11.7009z" sodipodi:nodetypes="csccc"/>
  <path id="path7037" fill="#F00000" stroke="black" stroke-width="1.41732" d="M126.586 107.161c12.1901,-0.106866 19.9698,3.94158 20.0407,20.041 0.139748,31.5457 -9.12473,24.2637 -7.96649,46.9284 -18.1483,-27.2285 9.33166,-41.5772 -11.95,-54.7705l-0.124158 -12.1989z" sodipodi:nodetypes="csccc"/>
  <path id="path7035" fill="#F00000" stroke="black" stroke-width="1.41732" d="M107.416 97.2026c12.1907,-0.10715 25.5816,2.69688 25.5183,16.6799 -0.119906,26.4419 -11.7391,26.8781 -9.08674,50.0403 -20.1399,-31.8342 13.1902,-48.2987 -16.0577,-59.9984l-0.37389 -6.7218z" sodipodi:nodetypes="csccc"/>
  <path id="path7033" fill="#F00000" stroke="black" stroke-width="1.41732" d="M90.7365 90.6052c7.08633,0.141732 24.8462,0.0839056 24.6464,13.0703 -0.256252,16.4832 -8.50224,18.413 -6.34819,40.9533 -14.6628,-21.1292 7.46419,-41.328 -17.9249,-47.302l-0.373323 -6.72152z" sodipodi:nodetypes="csccc"/>
  <path id="path4114" fill="#F00000" stroke="black" stroke-width="1.41732" stroke-linecap="round" d="M77.6659 103.178c1.63984,-15.0928 2.15773,-29.3151 8.3401,-43.568 0.994394,16.5192 15.5866,28.1044 1.36942,46.9284m-9.70952 -3.36047l0 0 0 0z" sodipodi:nodetypes="ccc"/>
  <path id="path7047" fill="black" stroke="black" stroke-width="1.41732" d="M30.4056 208.487c-0.124158,-1.8051 0.505134,-2.05597 1.65969,-2.07496 1.26539,-0.0206929 0.440504,1.45616 2.65578,1.49386 2.42731,0.0413858 0.974835,-7.32359 3.4852,-7.38567 1.59817,-0.0396851 1.54658,0.714615 1.57663,4.23213 0.0206929,2.59342 -2.33291,6.63903 -5.06183,6.63903 -2.86299,0 -4.17458,-0.863717 -4.31547,-2.90438z" sodipodi:nodetypes="cssssss"/>
  <path id="path26515" fill="none" stroke="black" stroke-width="1.41732" stroke-linecap="round" d="M412.803 139.359c-8.94416,10.1032 -17.8835,13.5405 -29.0449,17.5096" sodipodi:nodetypes="cc"/>
  <path id="path26513" fill="none" stroke="black" stroke-width="1.41732" stroke-linecap="round" d="M415.459 118.032c-9.77443,15.4451 -19.3774,29.2805 -41.078,34.3559" sodipodi:nodetypes="cc"/>
  <path id="path26509" fill="none" stroke="black" stroke-width="1.41732" stroke-linecap="round" d="M366.664 153.633c-22.388,-0.81978 -31.244,-12.0461 -35.1031,-22.1573" sodipodi:nodetypes="cc"/>
  <path id="path26511" fill="none" stroke="black" stroke-width="1.41732" stroke-linecap="round" d="M360.274 158.612c-13.8801,-0.948473 -31.9726,-1.1778 -39.9994,-21.0782" sodipodi:nodetypes="cc"/>
  <path id="path26507" fill="none" stroke="black" stroke-width="1.41732" stroke-linecap="round" d="M384.837 187.491c-19.4837,15.9432 -49.1689,24.3014 -67.2183,24.1486" sodipodi:nodetypes="cc"/>
  <path id="path4180" fill="#F00000" stroke="black" stroke-width="1.41732" d="M434.048 99.9412c0,0 7.68473,89.4566 8.21566,95.3504 0.220252,2.4463 -1.49386,2.48967 -4.23241,5.72599 -2.73855,3.2366 -2.95002,5.03915 -6.32353,5.02895 -8.59408,-0.0252284 -3.34857,-5.06381 -7.31934,-5.02895 -2.1858,0.0192756 -1.82721,3.93392 -3.78397,3.98325 -1.27814,0.0331654 -3.50873,-0.0759685 -3.4852,2.73855 0.0745512,9.14939 -0.884126,13.2284 -7.41912,13.394 -2.40775,0.0609449 -3.21534,-1.88107 -4.48129,-1.99162 -1.11827,-0.0977953 -3.14504,-0.930331 -2.98772,-2.39017 1.48791,-13.7951 12.1496,-118.055 12.1496,-118.055l19.6673 1.24498z" sodipodi:nodetypes="cssssssssscc"/>
  <path id="path3205" fill="#FFCFAF" stroke="black" stroke-width="1.41732" d="M403.924 84.3563c9.08674,0.423213 26.9725,2.03074 29.0784,2.78844 2.67421,0.962079 11.5999,10.6002 12.149,11.452 0.767056,1.1897 1.10324,4.43254 -0.488977,4.43679 -0.942804,0.00255118 -1.12932,-0.640347 -2.29947,-1.64863 2.31534,2.02904 2.49137,10.9967 0.149386,11.0475 -1.19849,0.0266457 -1.26964,-0.852378 -3.58498,-4.82315 2.34028,4.00791 2.04747,4.48214 1.84224,8.81263 -0.198992,4.20775 -0.323717,8.36504 -3.18671,8.36504 -2.15093,0 -2.58491,-4.23751 -3.08693,-9.26108 -0.314362,-3.14646 -4.38151,-5.15339 -8.46454,-7.16996 -4.08274,-2.01657 -7.54668,-3.92258 -8.96259,-2.38989 -2.34397,2.53786 1.61858,7.26974 1.59364,11.7507 -0.0289134,5.20441 -0.749764,8.62838 -3.58498,8.56404 -4.0337,-0.0881575 -2.72353,-5.64293 -4.97962,-10.8547 -2.16567,-5.004 -0.621922,-8.9623 -6.52252,-7.16996l0.348662 -23.8998z" sodipodi:nodetypes="cssscscsssssssscc"/>
  <path id="path2200" fill="#0000BF" stroke="black" stroke-width="1.41732" d="M315.047 185.084l-91.1183 -0.497764 20.4143 -108.297 94.3546 20.4148c9.9584,1.82495 18.0519,6.25635 20.9126,6.22375 2.33603,-0.0252284 6.01597,-2.84485 12.6967,-6.09959 4.18281,-2.03783 11.1541,-3.16573 19.1696,-8.09093 7.09285,-4.35827 16.9597,-7.88939 16.8049,-4.97906 -3.50107,6.07748 -4.74435,15.8063 -1.86718,24.6464 -8.16889,6.66114 -27.258,16.0801 -38.8018,22.0507 -8.13204,4.20577 -40.3487,0.835937 -44.2435,5.44139 -1.66762,1.97206 -2.89984,28.1744 -8.32196,49.1868z" sodipodi:nodetypes="ccccsssccssc"/>
  <path id="path7073" fill="#0000BF" stroke="black" stroke-width="1.41732" d="M239.115 188.819l79.1686 0.398551c4.92888,22.7296 3.80892,35.4263 0.198992,48.4968 -0.224221,2.51405 -4.53827,4.68879 -8.56404,5.07827 -1.38274,0.134079 -1.14548,4.82996 -6.97096,5.27811 -4.72281,0.363402 -5.45216,-4.48129 -10.5557,-4.48129 -5.10378,0 -5.22822,5.05389 -9.9584,4.68057 -4.71685,-0.372473 -3.40044,-4.03569 -8.56432,-5.5766 -4.75484,-1.41902 -7.39389,4.75512 -12.2485,3.58498 -5.05644,-1.2189 -3.48548,-9.48558 -7.96649,-10.8547 -4.48129,-1.36942 -7.36923,5.40255 -11.5518,4.3818 -4.39512,-1.07263 -1.19509,-5.80082 -5.6761,-7.16996 -4.48129,-1.36942 -6.19909,4.25707 -9.56013,2.38989 -3.36104,-1.86718 -0.428315,-5.77134 -3.18671,-7.96678 -1.21975,-0.970583 -6.02759,0.518173 -4.28202,-0.896032 8.95777,-7.25783 21.803,-15.2011 19.7175,-37.3436z" sodipodi:nodetypes="cccssssssssssssc"/>
  <path id="path7067" fill="#CCCCCC" stroke="black" stroke-width="1.41732" d="M295.379 181.682c59.3612,-15.1863 101.238,-25.9053 165.64,-31.7007 -59.2586,24.6056 -98.7461,34.4806 -162.652,48.7956l-2.98772 -17.0949z" sodipodi:nodetypes="cccc"/>
  <path id="path7071" fill="#FFCFAF" stroke="black" stroke-width="1.41732" d="M253.853 181.549c23.6985,0.62589 18.9964,-5.13666 26.6885,-5.17862 5.71748,-0.0308977 8.62498,1.70277 11.7505,5.07884l3.08693 22.705c1.94542,8.37893 -4.04759,9.57005 -9.46007,-0.796819 5.44564,10.3998 -1.72999,11.4727 -7.07046,1.59364 5.4737,9.77075 -3.31739,11.1733 -6.87147,1.89213 4.12668,9.24719 -2.01799,10.692 -7.26917,0.896032 -2.63849,-4.9218 -6.20192,-5.21008 -10.8547,-6.67191l0 -19.5182z" sodipodi:nodetypes="cscccccscc"/>
  <path id="path7069" fill="#BF9F4F" stroke="black" stroke-width="1.41732" d="M284.093 171.06c4.65194,-3.90331 11.3213,-4.73811 18.2568,-3.31909 -3.98183,19.0582 0.952158,33.6583 7.46873,47.4676 -6.1869,2.97014 -11.8582,4.01953 -18.5888,2.82132 2.13364,-15.6753 0.452693,-30.8523 -7.13679,-46.9698z" sodipodi:nodetypes="ccccc"/>
  <path id="path7077" fill="#BF9F4F" stroke="black" stroke-width="1.41732" d="M53.7908 203.856l6.07493 0c4.68227,13.4493 -5.13043,23.8907 0.497764,32.3646l-4.68057 3.78397c-8.17824,-9.43087 3.564,-21.473 -1.89213,-36.1486z" sodipodi:nodetypes="ccccc"/>
  <path id="path7075" fill="#BF9F4F" stroke="black" stroke-width="1.41732" stroke-linecap="round" stroke-linejoin="round" d="M63.7495 239.058c0.000283465,0.00113386 0.000283465,0.00113386 0.000283465,0.00113386 0,2.76973 -2.25893,5.02895 -5.02866,5.02895 -2.76973,0 -5.02895,-2.25921 -5.02895,-5.02895 0,-0.0195591 0,-0.0589607 0,-0.0785197 0,0.0759685 0,0.0759685 0,0.0759685 0,-2.76973 2.25921,-5.02866 5.02895,-5.02866 2.76973,0 5.02866,2.25893 5.02866,5.02866 0,0.0195591 0,0.0592441 0,0.0788032l-0.000283465 -0.0773859z" sodipodi:type="arc" sodipodi:cx="59.549999" sodipodi:cy="240.85001" sodipodi:rx="5.0500002" sodipodi:ry="5.0500002"/>
  <path id="path8050" fill="#BF9F4F" stroke="black" stroke-width="1.41732" d="M61.6916 197.781c48.206,13.5431 112.23,12.0421 139.249,4.31518 4.36082,-1.24696 6.91002,7.18725 3.65159,7.96678 -26.7347,6.39383 -91.1991,11.5937 -143.731,-5.97515l0.829985 -6.30681z" sodipodi:nodetypes="csscc"/>
  <path id="path4118" fill="#BF9F4F" stroke="black" stroke-width="1.41732" stroke-linecap="round" stroke-linejoin="round" d="M64.2223 200.021c0.000283465,3.7029 -3.01918,6.72265 -6.72152,6.72265 -3.70233,0 -6.72152,-3.01975 -6.72152,-6.72208 0,-3.70205 3.01918,-6.7218 6.72152,-6.7218 3.70233,0 6.7218,3.01975 6.7218,6.7218l-0.000283465 -0.000566929z" sodipodi:type="arc" sodipodi:cx="59.25" sodipodi:cy="200.375" sodipodi:rx="5.5" sodipodi:ry="5.5"/>
  <path id="path2194" fill="#0000BF" stroke="black" stroke-width="1.41732" stroke-linecap="round" d="M239.447 122.596c-0.534331,15.6858 -3.83471,31.0794 -8.29871,45.3104 10.0689,2.73855 23.673,6.77226 34.0742,12.3483 -5.07515,5.2132 -10.0647,11.2918 -8.14933,22.6219 -19.5282,-2.56224 -53.0453,-12.528 -55.4675,-16.5473 -3.24425,-5.38385 2.91062,-56.6759 15.2694,-83.6496l23.9 1.6594m-1.32803 18.2568l0 0 0 0z" sodipodi:nodetypes="ccccscc"/>
  <path id="path2198" fill="#F00000" stroke="black" stroke-width="1.41732" d="M274.218 108.405c10.2447,-4.84696 15.7422,-18.4096 19.6679,-22.9039 4.72366,-5.40851 17.265,-3.29017 10.1903,5.85865 7.04353,-9.13153 21.1456,-6.04347 12.2321,3.33638 8.94586,-9.37758 15.4845,-4.84866 19.0536,-3.20343 5.20129,2.39754 8.28199,4.18252 12.763,7.33578 -4.89572,0.996095 -9.92977,0.33874 -14.1574,2.85506 -20.3831,12.1323 -33.4097,25.9744 -59.7161,15.4349l-0.0334488 -8.71342z" sodipodi:nodetypes="csccscscc"/>
  <path id="path2202" fill="#FFCFAF" stroke="black" stroke-width="1.41732" d="M281.769 37.6189c21.4739,0.14315 19.474,31.8257 7.46958,46.7949 -3.7474,4.67292 -2.48032,9.94876 -9.523,11.4375 -3.00643,0.635811 -6.38589,0.104032 -10.8924,-3.1303 2.39074,1.72205 6.1441,5.3864 10.084,4.40759 -0.773859,1.23704 -3.96936,3.25077 -7.89704,3.38514 -9.58706,0.0657638 -17.1422,-16.2465 -17.2604,-32.4927 -0.111969,-15.4021 17.365,-30.3735 28.0194,-30.4022z" sodipodi:nodetypes="cscsss"/>
  <path id="path2206" fill="black" stroke="black" stroke-width="0.992126" stroke-linejoin="round" d="M272.159 81.4683c1.56104,2.29408 2.42391,2.9503 9.04819,1.09332 -4.36564,-0.109984 -4.68369,-1.44709 -9.04819,-1.09332z" sodipodi:nodetypes="ccc"/>
  <path id="path3171" fill="#F00000" stroke="black" stroke-width="1.41732" d="M271.678 120.605c-32.1721,0.33874 -31.3438,-8.76359 -48.4971,-8.66382 -16.7029,0.0972284 -12.4475,9.13692 -16.0824,21.0617 -4.33191,-5.05361 -8.21452,-11.7763 -8.01667,-21.2607 0.174331,-8.43988 6.6138,-10.7084 10.8547,-12.2488 8.8166,-3.20315 20.8389,-18.773 31.1692,-18.8212 10.6339,-0.0504567 9.68457,23.8751 30.6717,28.2813l-0.0994961 11.6515z" sodipodi:nodetypes="cscssscc"/>
  <path id="path3169" fill="#BF9F4F" stroke="black" stroke-width="1.41732" d="M284.923 33.4695c12.6802,-4.94618 18.5377,11.1932 18.1242,20.0163 -0.233008,4.97594 -3.20854,13.3328 6.43975,12.1822 -1.17836,4.00309 -4.78488,4.16183 -9.12813,3.15326 2.50214,1.5721 5.20016,1.77052 7.96621,1.49386 -1.98794,3.66406 -4.75484,4.99266 -8.86281,5.21178 3.2074,0.51052 3.07417,0.689103 5.47682,0.796252 -1.71468,5.94199 -13.7948,8.32536 -14.8581,6.09506 -1.75833,-3.68929 6.66114,-12.9263 5.79629,-19.7002 -2.1977,-5.49355 -0.97115,-20.3732 -8.40558,-22.936 -3.59405,1.01934 -10.6869,3.82649 -15.5543,1.85471 -6.1217,2.43099 -10.8697,12.1949 -13.2511,21.6082 -3.36416,13.2511 1.00063,19.6464 -15.7181,19.7717 -5.86007,0.0442205 -10.8369,-3.09714 -11.9656,-13.8634 7.524,4.57002 8.77437,4.65846 15.1036,2.65578 -6.41226,2.06901 -11.1552,0.35915 -12.9127,-10.7881 17.2168,21.6868 12.9234,-44.3585 51.7496,-27.5514z" sodipodi:nodetypes="cscccccsscsscccc"/>
  <path id="path2208" fill="black" d="M265.67 60.6722c3.77887,-1.72517 7.29525,-2.39613 9.98306,-0.822615 0.838205,0.584504 0.350646,1.83147 0.526111,2.74677 -3.1371,1.03465 -5.02526,-3.32816 -10.5092,-1.92416z" sodipodi:nodetypes="ccc"/>
  <path id="path2212" fill="none" stroke="black" stroke-width="1.41732" stroke-linecap="round" d="M282.383 63.4193c-1.62085,3.19295 -0.333071,4.15276 0.216,9.5349 0.360567,3.53906 -0.792567,3.46054 -3.04554,3.2366 -2.49307,-0.248032 -4.15786,-1.01254 -4.9544,-2.30712" sodipodi:nodetypes="csss"/>
  <path id="path25526" fill="none" stroke="black" stroke-width="1.41732" stroke-linecap="round" d="M264.342 111.808c-4.38038,-0.81978 -7.84262,-2.83436 -11.1203,-5.97487" sodipodi:nodetypes="cc"/>
  <path id="path25528" fill="none" stroke="black" stroke-width="1.41732" stroke-linecap="round" d="M263.181 116.621c-4.38038,-0.81978 -9.66785,-1.83855 -12.9458,-4.97906" sodipodi:nodetypes="cc"/>
  <path id="path23584" fill="none" stroke="black" stroke-width="1.41732" stroke-linecap="round" d="M295.711 112.804c-2.5543,2.00183 -6.34819,3.14022 -14.9372,2.98743" sodipodi:nodetypes="cc"/>
  <path id="path25524" fill="none" stroke="black" stroke-width="1.41732" stroke-linecap="round" d="M292.06 105.833c-2.38876,2.83181 -5.51906,4.63436 -12.78,5.14517" sodipodi:nodetypes="cc"/>
  <path id="path3167" fill="#BF9F4F" stroke="black" stroke-width="1.41732" stroke-linecap="round" stroke-linejoin="round" d="M281.936 116.207c-0.000283465,5.5304 -4.51077,10.0409 -10.0412,10.0409 -5.5304,0 -10.0415,-4.51049 -10.0415,-10.0409 0,-5.5304 4.51106,-10.0409 10.0415,-10.0409 5.5304,0 10.0409,4.51049 10.0409,10.0409l0.000283465 0z" sodipodi:type="arc" sodipodi:cx="275.33334" sodipodi:cy="116.5" sodipodi:rx="9.333333" sodipodi:ry="9.333333"/>
  <path id="path3207" fill="none" stroke="black" stroke-width="1.41732" stroke-linecap="round" d="M432.505 94.0655c3.31172,2.01147 7.04807,4.49405 9.83367,7.29468" sodipodi:nodetypes="cc"/>
  <path id="path3209" fill="none" stroke="black" stroke-width="1.41732" stroke-linecap="round" d="M428.446 98.9204c4.10854,2.2354 9.31352,6.58517 10.531,8.78797" sodipodi:nodetypes="cc"/>
  <path id="path8090" fill="#BF9F4F" stroke="black" stroke-width="1.41732" d="M129.001 514.604c7.71874,4.47421 15.7351,7.27172 33.2856,2.31506 4.18847,6.02504 -0.174331,13.5618 -3.56032,14.7881 -10.923,3.95575 -21.1139,2.98687 -34.8041,0.0745512 -2.89106,-0.617386 -0.243496,-2.02195 2.04151,-6.62202 1.41279,-2.84457 1.09502,-5.06041 3.03732,-10.5557z" sodipodi:nodetypes="ccsssc"/>
  <line id="path25530" fill="none" stroke="black" stroke-width="1.41732" stroke-linecap="round" x1="418.53" y1="120.77" x2="417.866" y2= "148.986"  sodipodi:nodetypes="cc"/>
  <line id="path26501" fill="none" stroke="black" stroke-width="1.41732" stroke-linecap="round" x1="417.866" y1="183.508" x2="417.202" y2= "206.412"  sodipodi:nodetypes="cc"/>
  <line id="path26503" fill="none" stroke="black" stroke-width="1.41732" stroke-linecap="round" x1="425.003" y1="187.491" x2="425.003" y2= "200.603"  sodipodi:nodetypes="cc"/>
  <line id="path26505" fill="none" stroke="black" stroke-width="1.41732" stroke-linecap="round" x1="423.011" y1="107.327" x2="422.347" y2= "135.542"  sodipodi:nodetypes="cc"/>
  <path id="path30471" fill="#BF9F4F" stroke="black" stroke-width="1.41732" d="M88.2964 294.75c-2.89417,-19.7609 1.01622,-28.7535 10.2821,-28.8791 4.65591,-0.0632126 6.3961,1.86633 6.34848,5.22794 -0.151937,10.8774 -9.504,9.92722 -16.6306,23.6512z" sodipodi:nodetypes="cssc"/>
  <sodipodi:namedview id="base" pagecolor="#ffffff" bordercolor="#666666" borderopacity="1.0" inkscape:pageopacity="0.0" inkscape:pageshadow="2" inkscape:zoom="1" inkscape:cx="460" inkscape:cy="290.06874" inkscape:document-units="px" inkscape:current-layer="layer1" gridtolerance="10000" inkscape:window-width="1272" inkscape:window-height="969" inkscape:window-x="0" inkscape:window-y="-1" width="500px" height="585px"/>
  <path fill="black" stroke="black" stroke-width="0.216" d="M271.208 109.584c-4.31915,1.10069 -5.41899,2.75896 -5.30192,5.63329l5.30192 0 0 -5.63329z"/>
  <path fill="black" stroke="black" stroke-width="0.216" d="M273.753 109.915c4.31915,1.10069 5.08762,2.42759 4.97055,5.30192l-4.97055 0 0 -5.30192z"/>
  <path fill="black" stroke="black" stroke-width="0.216" d="M271.208 123.08c-4.31915,-1.10069 -5.41899,-2.42759 -5.30192,-5.30192l5.30192 0 0 5.30192z"/>
  <path fill="black" stroke="black" stroke-width="0.216" d="M273.422 122.748c3.87751,-1.10098 4.64627,-2.09679 4.97055,-4.97055l-4.97055 0 0 4.97055z"/>
  <path id="path2208_0" fill="black" d="M284.709 61.9977c4.01443,-1.25348 4.68737,-0.981355 6.66936,-0.822615 1.16929,0.584221 1.34476,1.83147 0.526111,2.74677 -4.02123,-0.181134 -2.92791,-1.89241 -7.19547,-1.92416z" sodipodi:nodetypes="ccc"/>
  <path fill="none" stroke="black" stroke-width="0.992126" d="M268.557 54.9077c2.42986,-0.998363 5.52246,-1.66309 7.95289,0"/>
  <path fill="none" stroke="black" stroke-width="0.992126" d="M291.241 55.9018c-1.95846,-0.762804 -2.12003,-0.955843 -4.97055,-0.994111"/>
  <path fill="black" stroke="black" stroke-width="0.216" d="M61.7817 137.088c2.56167,0 4.30781,2.00325 5.96466,3.47925 -2.98233,2.13874 -2.74025,4.14227 -5.30192,4.14227 -2.56167,0 -3.97644,-1.00942 -3.97644,-3.47953 0,-2.47011 0.752032,-4.14199 3.3137,-4.14199z"/>
 </g>
</svg>
