<?xml version="1.0" encoding="UTF-8"?>
<!DOCTYPE svg PUBLIC "-//W3C//DTD SVG 1.1//EN" "http://www.w3.org/Graphics/SVG/1.1/DTD/svg11.dtd">
<!-- Creator: CorelDRAW -->
<svg xmlns="http://www.w3.org/2000/svg" xml:space="preserve" width="500px" height="573px" shape-rendering="geometricPrecision" text-rendering="geometricPrecision" image-rendering="optimizeQuality" fill-rule="evenodd" clip-rule="evenodd"
viewBox="0 0 500 573"
 xmlns:xlink="http://www.w3.org/1999/xlink"
 xmlns:svg="http://www.w3.org/2000/svg"
 version="1.0">
 <g id="Layer_x0020_1">
  <metadata id="CorelCorpID_0Corel-Layer"/>
  <path id="path1937" fill="#BF9F4F" stroke="black" stroke-width="0.368504" d="M0.474236 -0.0314646l499.161 0.556725 0.0666142 367.259c-30.5442,106.184 -112.582,203.207 -244.836,204.517 -132.58,-1.31839 -221.369,-87.3803 -254.341,-204.628l-0.0504567 -367.704z"/>
  <path id="path1937_0" fill="black" d="M0.474236 -0.0314646l172.847 -0.0232441c14.5123,14.6384 5.17635,39.9861 25.2944,63.8124 20.1178,23.8263 74.2692,31.6296 88.8432,52.3179 25.5339,36.2463 9.57034,50.6773 36.0712,80.1377 26.5005,29.4602 58.3657,23.8845 78.5186,43.7746 20.1529,19.8902 24.1279,64.834 40.0921,83.7156 15.9642,18.8816 43.4543,15.8848 57.5572,31.2404l0.00255118 12.8401c-19.567,68.0239 -60.6357,132.288 -121.949,170.037 -20.1172,-22.6848 -64.4443,-24.7862 -86.1608,-48.4804 -21.7165,-23.6942 -22.5312,-69.9563 -45.8762,-93.6825 -23.3447,-23.7266 -60.3814,-20.5702 -83.0948,-44.5096 -22.7135,-23.9392 -19.0347,-56.9571 -41.239,-85.9119 -22.2041,-28.9545 -72.8408,-32.6081 -88.8137,-56.162 -15.9732,-23.5542 -14.8961,-47.7644 -32.0743,-70.8752l-0.0189921 -138.231z"/>
 </g>
</svg>
