<?xml version="1.0" encoding="UTF-8"?>
<!DOCTYPE svg PUBLIC "-//W3C//DTD SVG 1.1//EN" "http://www.w3.org/Graphics/SVG/1.1/DTD/svg11.dtd">
<!-- Creator: CorelDRAW -->
<svg xmlns="http://www.w3.org/2000/svg" xml:space="preserve" width="500px" height="564px" shape-rendering="geometricPrecision" text-rendering="geometricPrecision" image-rendering="optimizeQuality" fill-rule="evenodd" clip-rule="evenodd"
viewBox="0 0 500 564.286"
 xmlns:xlink="http://www.w3.org/1999/xlink"
 xmlns:svg="http://www.w3.org/2000/svg"
 version="1.0">
 <g id="Layer_x0020_1">
  <metadata id="CorelCorpID_0Corel-Layer"/>
  <path id="path1937" fill="#004D27" stroke="black" stroke-width="0.308571" d="M3.48338 4.88045l494.465 -1.26182 -0.473386 349.649c-10.7146,103.996 -113.452,207.992 -247.381,207.992 -133.929,0 -236.666,-103.996 -247.381,-207.992l0.769809 -348.387z"/>
  <g id="_46129048">
   <path id="_47392264" fill="white" stroke="black" stroke-width="0.308571" d="M440.867 39.4818c5.4903,-0.00283465 8.63636,1.45255 12.6028,7.22713l-6.97485 130.557 -10.9559 0 -7.44864 -130.869c3.59271,-4.85656 7.28626,-6.91249 12.7766,-6.91532z"/>
   <path id="_46201872" fill="#E5E5E5" stroke="#E5E5E5" stroke-width="0.308571" d="M440.962 41.3381c4.533,-0.00283465 7.34457,1.41246 10.6194,7.0279l-6.18722 126.957 -8.61692 0 -6.5784 -127.568c2.96625,-4.72252 6.23015,-6.4144 10.7632,-6.41683z"/>
  </g>
  <path fill="white" stroke="black" stroke-width="0.308571" d="M2.86866 320.184c20.6569,-14.3781 21.2716,-19.1254 37.7704,-18.9699 16.4989,0.155501 28.2614,26.4626 46.9162,26.4626 18.6548,0 28.6392,-26.4626 51.6869,-26.4626 23.0477,0 31.4083,26.4626 51.6869,26.4626 20.2787,0 36.5677,-26.4626 57.8401,-26.4626 21.2724,0 39.0971,26.4626 60.3014,26.4626 21.2044,0 30.485,-26.4626 55.3789,-26.4626 24.8939,0 33.1909,26.4626 52.9176,26.4626 19.7267,0 32.2081,-26.5088 52.8605,-26.4626 14.9021,-0.462452 23.5458,9.27253 27.5499,12.4129l-0.315861 38.0559c-0.313026,37.7866 -15.2561,63.0065 -28.029,84.123 -0.271721,-0.314646 -2.8719,-3.8045 -12.7442,-3.67127 -17.2561,0.133228 -29.0604,30.9325 -49.9667,30.728 -20.9063,-0.204499 -28.7085,-25.3648 -49.6626,-25.3648 -20.9541,0 -26.6655,25.4118 -51.6849,25.5495 -25.0194,0.137683 -37.2371,-24.7967 -57.8373,-24.7967 -20.6002,0 -31.8849,24.6606 -55.376,24.7967 -23.4911,0.136063 -34.4624,-24.0524 -52.9152,-24.0524 -18.4527,0 -29.8342,23.9362 -46.7704,24.0524 -16.9362,0.11622 -30.6279,-22.9371 -43.0619,-23.4348 -8.33184,-0.0874691 -6.99024,1.26101 -14.2392,3.83609 -14.3603,-24.0649 -28.7555,-53.4124 -32.4607,-90.181l0.155096 -33.0836z"/>
  <g id="_47186656">
   <path id="_46716984" fill="white" stroke="black" stroke-width="0.308571" d="M53.3084 40.4038c5.4903,-0.00283465 8.63636,1.45255 12.6028,7.22713l-6.97485 130.557 -10.9559 0 -7.44864 -130.869c3.59271,-4.85656 7.28626,-6.91249 12.7766,-6.91532z"/>
   <path id="_46746288" fill="#E5E5E5" stroke="#E5E5E5" stroke-width="0.308571" d="M53.4035 42.2601c4.533,-0.00283465 7.34457,1.41246 10.6194,7.0279l-6.18722 126.957 -8.61692 0 -6.5784 -127.568c2.96625,-4.72252 6.23015,-6.4144 10.7632,-6.41683z"/>
  </g>
  <path fill="#004D27" d="M24.8667 108.486l447.806 0 -3.54857 36.8281 -41.6551 6.66101 -7.74061 19.8944c-5.4984,0.824072 -12.2254,-0.334488 -16.4944,2.47303 -3.92598,2.23694 -7.57701,22.2394 -12.0205,35.1213 -5.28014,-8.73354 -11.175,-25.3964 -15.2253,-25.5398 -4.68041,0.847559 -12.4336,23.4992 -18.3426,35.5793 -4.75492,-7.99411 -9.81678,-22.5958 -13.6488,-23.3214 -5.08414,0.610259 -13.2439,22.3662 -19.5582,33.8797 -6.15442,-9.24945 -14.1542,-25.7677 -18.4629,-27.7479 -4.52976,0.714331 -12.7502,22.5755 -19.1254,33.8631 -6.33219,-11.4042 -14.8175,-33.7112 -18.9966,-34.2122 -4.82416,0.581102 -12.7231,25.3195 -19.0841,38.6848 -6.97444,-12.1732 -16.4094,-35.5793 -20.9229,-36.5196 -4.86668,0.494848 -11.5759,21.4708 -17.3634,32.2064 -6.51199,-12.2534 -15.4845,-35.74 -19.536,-36.7605 -4.95415,0.398875 -11.7524,19.6692 -17.627,30.21 -5.81467,-11.4248 -11.6285,-33.7521 -17.444,-34.2741 -5.77782,0.217053 -10.5979,17.6137 -15.2399,26.4213 -6.62052,-11.5143 -16.0089,-33.2694 -19.8607,-34.5414 -5.06551,0.342992 -8.28284,17.2014 -12.4238,25.8022 -5.54578,-11.5844 -15.3942,-32.7446 -16.6365,-34.7532 -3.49147,-2.88 -10.6712,-3.11892 -16.0064,-4.67879l-2.44427 -20.6225 -45.9375 -7.64747 -2.46047 -37.0059z"/>
  <path fill="white" stroke="black" stroke-width="0.308571" d="M24.8667 109.91l447.806 0 -3.54857 34.2814 -41.6551 6.20018 -7.74061 18.5187c-5.4984,0.766974 -12.2254,-0.311406 -16.4944,2.30173 -3.92598,2.08225 -7.57701,20.7018 -12.0205,32.6928 -5.28014,-8.12977 -11.175,-23.6401 -15.2253,-23.7738 -4.68041,0.788842 -12.4336,21.8742 -18.3426,33.1188 -4.75492,-7.44135 -9.81678,-21.0331 -13.6488,-21.7085 -5.08414,0.568144 -13.2439,20.8193 -19.5582,31.5367 -6.15442,-8.60963 -14.1542,-23.9856 -18.4629,-25.8289 -4.52976,0.664927 -12.7502,21.014 -19.1254,31.5213 -6.33219,-10.6157 -14.8175,-31.3799 -18.9966,-31.8464 -4.82416,0.541012 -12.7231,23.5685 -19.0841,36.0097 -6.97444,-11.3313 -16.4094,-33.1188 -20.9229,-33.9939 -4.86668,0.460428 -11.5759,19.9859 -17.3634,29.9792 -6.51199,-11.4062 -15.4845,-33.2686 -19.536,-34.2186 -4.95415,0.371339 -11.7524,18.309 -17.627,28.1209 -5.81467,-10.6348 -11.6285,-31.418 -17.444,-31.9039 -5.77782,0.20207 -10.5979,16.3956 -15.2399,24.5942 -6.62052,-10.7178 -16.0089,-30.9685 -19.8607,-32.1526 -5.06551,0.3191 -8.28284,16.0117 -12.4238,24.018 -5.54578,-10.7834 -15.3942,-30.4801 -16.6365,-32.3498 -3.49147,-2.68117 -10.6712,-2.90349 -16.0064,-4.35523l-2.44427 -19.1966 -45.9375 -7.11861 -2.46047 -34.4466z"/>
  <path fill="#E5E5E5" d="M2.86866 322.02c20.6569,-13.8456 21.2716,-18.4171 37.7704,-18.2677 16.4989,0.149831 28.2614,25.4835 46.9162,25.4835 18.6548,0 28.6392,-25.4835 51.6869,-25.4835 23.0477,0 31.4083,25.4835 51.6869,25.4835 20.2787,0 34.7236,-25.4835 57.8401,-25.4835 23.1165,0 39.0971,25.4835 60.3014,25.4835 21.2044,0 30.485,-25.4835 55.3789,-25.4835 24.8939,0 33.1884,25.4835 52.9152,25.4835 19.7267,0 32.2105,-25.5276 52.8629,-25.4835 16.5944,-0.268886 21.1679,7.20324 27.0907,12.1035l-0.1636 36.6516c-0.462452,34.7192 -14.9491,60.7934 -27.722,81.1284 -0.271721,-0.302902 -2.8719,-3.93692 -12.7442,-3.80855 -17.2561,0.127964 -29.0604,29.7873 -49.9667,29.5905 -20.9063,-0.196805 -28.7085,-24.4261 -49.6626,-24.4261 -20.9541,0 -26.6655,24.4715 -51.6849,24.6039 -25.0194,0.132418 -37.2371,-23.8787 -57.8373,-23.8787 -20.6002,0 -31.8849,23.7475 -55.376,23.8787 -23.4911,0.131204 -34.4624,-23.1619 -52.9152,-23.1619 -18.4527,0 -29.8342,23.0501 -46.7704,23.1619 -16.9362,0.111766 -30.6279,-22.088 -43.0619,-22.5674 -8.33184,-0.0842295 -6.99024,1.21444 -14.2392,3.69395 -14.3603,-23.174 -28.7555,-51.4351 -32.4607,-86.843l0.155096 -31.859z"/>
  <path fill="#E5E5E5" d="M24.8667 109.91l447.806 0 -3.54857 33.1771 -41.6551 6.00054 -7.74061 17.9218c-5.4984,0.742272 -12.2254,-0.301282 -16.4944,2.22763 -3.92598,2.01543 -7.57701,20.0349 -12.0205,31.6395 -5.28014,-7.86776 -11.175,-22.8784 -15.2253,-23.0076 -4.68041,0.76333 -12.4336,21.1691 -18.3426,32.0517 -4.75492,-7.20162 -9.81678,-20.3556 -13.6488,-21.0092 -5.08414,0.549921 -13.2439,20.1487 -19.5582,30.5206 -6.15442,-8.33224 -14.1542,-23.2129 -18.4629,-24.9967 -4.52976,0.643465 -12.7502,20.337 -19.1254,30.5057 -6.33219,-10.2736 -14.8175,-30.3688 -18.9966,-30.8203 -4.82416,0.5236 -12.7231,22.8092 -19.0841,34.8495 -6.97444,-10.9664 -16.4094,-32.0517 -20.9229,-32.8989 -4.86668,0.445849 -11.5759,19.342 -17.3634,29.0134 -6.51199,-11.0385 -15.4845,-32.1967 -19.536,-33.116 -4.95415,0.35919 -11.7524,17.719 -17.627,27.2146 -5.81467,-10.2918 -11.6285,-30.4056 -17.444,-30.8758 -5.77782,0.195186 -10.5979,15.8671 -15.2399,23.8017 -6.62052,-10.3724 -16.0089,-29.9707 -19.8607,-31.1167 -5.06551,0.308571 -8.28284,15.4958 -12.4238,23.2441 -5.54578,-10.436 -15.3942,-29.4981 -16.6365,-31.3075 -3.49147,-2.59492 -10.6712,-2.80994 -16.0064,-4.21512 -0.814758,-6.19289 -1.62952,-12.3858 -2.44427,-18.5783 -15.3128,-2.29647 -30.6251,-4.59294 -45.9375,-6.889l-2.46047 -33.3371z"/>
 </g>
</svg>
