<?xml version="1.0" encoding="UTF-8"?>
<!DOCTYPE svg PUBLIC "-//W3C//DTD SVG 1.1//EN" "http://www.w3.org/Graphics/SVG/1.1/DTD/svg11.dtd">
<!-- Creator: CorelDRAW -->
<svg xmlns="http://www.w3.org/2000/svg" xml:space="preserve" width="500px" height="857px" style="shape-rendering:geometricPrecision; text-rendering:geometricPrecision; image-rendering:optimizeQuality; fill-rule:evenodd; clip-rule:evenodd"
viewBox="0 0 500 882"
 xmlns:xlink="http://www.w3.org/1999/xlink"
 xmlns:svg="http://www.w3.org/2000/svg"
 version="1.0">
 <defs>
  <style type="text/css">
   <![CDATA[
    .str10 {stroke:#1F1A17;stroke-width:0.216}
    .str2 {stroke:black;stroke-width:1.06299}
    .str8 {stroke:#ED1A24;stroke-width:1.15228}
    .str9 {stroke:#ED1A24;stroke-width:1.1537}
    .str7 {stroke:#1F1A17;stroke-width:1.41732}
    .str6 {stroke:#1F1A17;stroke-width:1.98425}
    .str1 {stroke:black;stroke-width:1.98425}
    .str0 {stroke:black;stroke-width:2.12599}
    .str5 {stroke:black;stroke-width:3.82677}
    .str4 {stroke:black;stroke-width:6.37796}
    .str3 {stroke:black;stroke-width:8.50394}
    .fil6 {fill:none}
    .fil15 {fill:#1F1A17}
    .fil13 {fill:#C2C1C1}
    .fil3 {fill:black}
    .fil4 {fill:#406AEB}
    .fil0 {fill:#E5E5E5}
    .fil9 {fill:#ED1A24}
    .fil12 {fill:#ED241A}
    .fil10 {fill:#F3A29A}
    .fil7 {fill:#FFCB05}
    .fil5 {fill:#FFCC00}
    .fil8 {fill:#FFE400}
    .fil1 {fill:white}
    .fil11 {fill:#004E90}
    .fil14 {fill:white}
    .fil2 {fill:#FFCB05;fill-rule:nonzero}
   ]]>
  </style>
 </defs>
 <g id="Layer_x0020_1">
  <metadata id="CorelCorpID_0Corel-Layer"/>
  <path id="path4242" class="fil0 str0" d="M23.3062 63.4394c9.559,0 17.3256,8.06542 17.3256,17.6236 0,9.559 -7.76665,17.3256 -17.3256,17.3256 -9.85805,0 -17.6244,-7.76665 -17.6244,-17.3256 0,-9.55871 7.76637,-17.6236 17.6244,-17.6236z"/>
  <path id="path4244" class="fil1" d="M15.5398 71.2055c4.18167,-2.98687 9.55871,-2.6881 11.6498,0.597544 2.38961,2.98715 0.597544,8.0657 -3.58469,11.0529 -4.18167,2.68838 -9.55871,2.38961 -11.6501,-0.597827 -2.09084,-3.28592 -0.597544,-8.36419 3.58498,-11.0526z"/>
  <path id="path4236" class="fil0 str0" d="M476.47 65.2164c9.559,0 17.3254,8.06485 17.3254,17.6236 0,9.559 -7.76665,17.3256 -17.3254,17.3256 -9.85777,0 -17.6244,-7.76665 -17.6244,-17.3256 0,-9.559 7.76665,-17.6236 17.6244,-17.6236z"/>
  <path id="path4238" class="fil1" d="M468.703 72.9828c4.18195,-2.98743 9.559,-2.68866 11.6498,0.59726 2.38989,2.98743 0.597827,8.0657 -3.58441,11.0529 -4.18167,2.6881 -9.55928,2.38989 -11.6501,-0.597544 -2.09084,-3.28592 -0.59726,-8.36419 3.58469,-11.0526z"/>
  <path id="path3476" class="fil2 str1" d="M26.1578 141.316l-0.175465 -42.8344c3.38655,-3.76696 5.58284,-8.48665 5.0349,-15.4015 0.423496,-6.91115 -2.35814,-13.8217 -9.77386,-20.7332 0.965481,-31.0451 1.40173,-45.9607 -18.0675,-50.3513 3.22951,-6.05112 9.9326,-10.5372 17.1791,-10.6625 11.1932,-0.194173 16.4741,9.00964 22.5102,15.4015l11.2547 -1.77676c-1.1211,22.5825 -8.92885,37.9885 -16.5864,53.9053 17.3322,-12.2893 35.1938,-19.281 53.3135,-23.6948l-0.592158 13.0323c9.79229,7.44917 17.3446,15.4585 23.991,23.6948 -7.48007,10.512 -15.5268,19.8904 -24.5838,27.2489l0.592725 9.47793c-18.2319,1.18261 -34.1277,-11.6436 -50.9437,-18.9559 10.9661,13.777 20.5461,27.0267 45.3164,27.5451 26.2517,0.549922 44.286,-23.5415 45.9085,-29.914l17.1785 -0.296221c8.14536,20.4857 28.9897,32.7759 47.0937,32.5803 23.7603,-0.237827 42.0548,-17.6735 41.762,-28.73 -17.172,11.1453 -33.3445,17.8126 -51.5356,18.9559l0.592158 -9.47793c-9.81582,-7.2893 -15.9764,-16.0407 -21.9175,-24.88 5.94624,-9.28035 12.4807,-18.5607 23.1027,-27.8408l-0.592725 -10.0709c18.5825,4.67377 34.5232,11.3335 49.1667,20.7332 -9.74665,-14.091 -15.8066,-30.9492 -21.6216,-49.7585l9.18227 3.5538c8.01525,-8.5972 17.4583,-15.2918 27.8411,-20.7329 10.1341,5.77276 20.0401,11.8494 27.8416,20.7329l9.47793 -2.96164c-3.64422,17.2324 -11.217,32.5004 -19.5486,47.3891 14.0749,-8.57736 29.7683,-13.9173 46.205,-17.771l-0.592441 11.2547c8.48665,5.63726 16.7672,13.1893 23.6948,22.7239 -6.62372,14.8626 -14.9573,19.779 -23.1024,27.0349l1.18432 8.88577c-16.9815,3.78397 -33.9622,-6.51657 -50.9434,-16.5864 10.5222,11.6093 17.8254,26.6565 40.2812,26.6565 29.0381,0.000283465 46.3796,-24.9588 47.0931,-31.6914l20.7329 -0.888662c8.55978,24.2172 25.8171,33.5458 42.9472,33.1727 20.2397,0.61937 34.2893,-11.1158 46.2045,-26.6567 -16.6672,9.66615 -33.8845,15.3941 -52.128,17.1791l0.592158 -11.8474c-9.90709,-4.07792 -15.861,-14.3141 -22.7526,-24.4228 6.79323,-9.59556 13.449,-20.0279 23.3453,-26.5207l-2.96192 -10.6631c19.1245,4.97084 37.8408,12.801 53.017,22.5105 -11.1294,-13.6704 -15.927,-32.2087 -16.882,-54.4981l12.4398 1.77676c7.02766,-8.87103 14.5553,-15.3578 24.287,-15.3578 9.72397,0 15.9562,11.8038 15.9562,11.8038 -25.8457,15.188 -11.6118,36.332 -15.9562,50.9434 -6.63251,3.25162 -10.7427,9.38693 -11.8474,18.9559 0.736158,11.2258 2.1977,15.6087 6.76914,17.6304l0 41.1976 -449.984 0.000283465z"/>
  <path id="path4144" class="fil0 str0" d="M138.226 64.0316c9.55928,0 17.3256,8.06485 17.3256,17.6241 0,9.559 -7.76637,17.3256 -17.3256,17.3256 -9.85777,0 -17.6244,-7.76665 -17.6244,-17.3256 0,-9.55928 7.76665,-17.6241 17.6244,-17.6241z"/>
  <path id="path4146" class="fil1" d="M130.459 71.7982c4.18252,-2.98743 9.559,-2.68838 11.6507,0.597827 2.38961,2.98743 0.59726,8.06542 -3.58498,11.0523 -4.18167,2.68838 -9.55871,2.39017 -11.6498,-0.59726 -2.09112,-3.28592 -0.597544,-8.36419 3.58469,-11.0526l-0.000566929 -0.000283465z"/>
  <path id="path4224" class="fil0 str0" d="M250.777 65.2164c9.559,0 17.3256,8.06485 17.3256,17.6236 0,9.559 -7.76665,17.3256 -17.3256,17.3256 -9.85777,0 -17.6244,-7.76665 -17.6244,-17.3256 0,-9.559 7.76665,-17.6236 17.6244,-17.6236z"/>
  <path id="path4226" class="fil1" d="M243.01 72.9828c4.18167,-2.98743 9.55871,-2.68866 11.6498,0.59726 2.38961,2.98743 0.596977,8.0657 -3.58498,11.0529 -4.18167,2.6881 -9.55871,2.38989 -11.6498,-0.597544 -2.0914,-3.28592 -0.597544,-8.36419 3.58498,-11.0526z"/>
  <path id="path4230" class="fil0 str0" d="M362.735 65.2164c9.559,0 17.3254,8.06485 17.3254,17.6236 0,9.559 -7.76665,17.3256 -17.3254,17.3256 -9.85777,0 -17.6244,-7.76665 -17.6244,-17.3256 0,-9.559 7.76665,-17.6236 17.6244,-17.6236z"/>
  <path id="path4232" class="fil1" d="M354.969 72.9828c4.18224,-2.98743 9.55928,-2.68866 11.6501,0.59726 2.38989,2.98743 0.597827,8.0657 -3.58469,11.0529 -4.18167,2.6881 -9.559,2.38989 -11.6498,-0.597544 -2.09084,-3.28592 -0.59726,-8.36419 3.58441,-11.0526z"/>
  <polygon id="path4255" class="fil3 str2" points="101.588,83.0795 37.3697,82.0302 37.4304,83.7791 "/>
  <polygon id="path4261" class="fil3 str2" points="251.029,17.3265 250.329,59.3847 252.471,59.478 "/>
  <path class="fil4 str3" d="M495.619 216.054l0 512.293c-1.73906,26.7185 -9.70045,41.0488 -33.5931,53.189l-211.906 96.5801 -213.605 -99.3793c-23.0182,-13.1749 -33.1841,-24.5254 -32.1931,-49.8065l0 -512.875 491.298 -0.00141732z"/>
  <polygon class="fil5 str4" points="214.514,216.054 287.299,216.054 287.299,456.568 495.62,456.987 495.62,528.189 287.299,528.189 287.299,860.367 250.12,878.116 214.514,861.021 214.514,528.189 4.3217,528.568 4.3217,458.203 214.514,458.203 "/>
  <path class="fil5 str5" d="M86.207 581.68l-19.4434 19.3672 19.2538 19.3966 -0.205512 56.6422 -10.3198 11.1365 30.6593 30.3092 29.0537 -29.1651 -18.76 0.0297638 -6.49163 -7.34259 -0.0598111 -65.4058 6.59849 -6.26996 11.3655 10.3439c-13.0442,9.80108 -3.42142,30.7882 14.2798,23.9735l18.1318 -18.644c-15.4276,1.39635 -23.8592,-9.44873 -13.7546,-26.2398l-18.8685 -18.5916 -20.3783 20.1935 -21.06 -19.7334 -0.000850394 0z"/>
  <path class="fil6 str0" d="M25.9824 101.398c15.0664,14.7453 27.3555,34.4588 59.8142,34.4957 32.4581,0.0371339 43.9489,-23.5653 54.1534,-34.0699 6.65774,8.46341 17.1663,34.9036 54.2503,35.5332 37.0837,0.629859 48.2922,-23.6444 57.0481,-35.117 10.9715,12.6697 24.4582,34.8829 55.7351,35.0076 31.2764,0.124724 45.1097,-22.254 56.8755,-34.5867 11.1977,15.1141 18.9014,36.3212 54.8042,35.8991 35.9031,-0.422079 46.8567,-24.7005 57.8067,-35.4773"/>
  <polygon id="path4255_0" class="fil3 str2" points="170.689,85.178 229.797,84.1286 229.741,85.8771 "/>
  <polygon id="path4255_1" class="fil3 str2" points="330.527,83.7791 271.418,82.7297 271.473,84.4784 "/>
  <polygon id="path4255_2" class="fil3 str2" points="399.078,84.4784 463.083,83.429 463.023,85.1775 "/>
  <path class="fil5 str5" d="M86.207 271.126l-19.4434 19.3674 19.2538 19.3966 -0.205512 56.6419 -10.3198 11.1368 30.6593 30.3092 29.0537 -29.1651 -18.76 0.0294803 -6.49163 -7.3423 -0.0598111 -65.4061 6.59849 -6.26967 11.3655 10.3436c-13.0442,9.80136 -3.42142,30.7885 14.2798,23.9735l18.1318 -18.6438c-15.4276,1.39635 -23.8592,-9.44873 -13.7546,-26.2398l-18.8685 -18.5916 -20.3783 20.1935 -21.06 -19.7337 -0.000850394 0z"/>
  <path class="fil5 str5" d="M362.106 271.126l-19.4434 19.3674 19.2538 19.3966 -0.205512 56.6419 -10.3198 11.1368 30.659 30.3092 29.0537 -29.1651 -18.7597 0.0294803 -6.49163 -7.3423 -0.0600945 -65.4061 6.59877 -6.26967 11.3655 10.3436c-13.0445,9.80136 -3.4217,30.7885 14.2798,23.9735l18.1315 -18.6438c-15.4273,1.39635 -23.8589,-9.44873 -13.7543,-26.2398l-18.8688 -18.5916 -20.3783 20.1935 -21.06 -19.7337 -0.000566929 0z"/>
  <path class="fil5 str5" d="M362.106 581.68l-19.4434 19.3672 19.2538 19.3966 -0.205512 56.6422 -10.3198 11.1365 30.659 30.3092 29.0537 -29.1651 -18.7597 0.0297638 -6.49163 -7.34259 -0.0600945 -65.4058 6.59877 -6.26996 11.3655 10.3439c-13.0445,9.80108 -3.4217,30.7882 14.2798,23.9735l18.1315 -18.644c-15.4273,1.39635 -23.8589,-9.44873 -13.7543,-26.2398l-18.8688 -18.5916 -20.3783 20.1935 -21.06 -19.7334 -0.000566929 0z"/>
  <polygon id="path133" class="fil7" points="24.73,156.233 479.183,156.233 479.105,191.652 25.2757,190.59 "/>
  <path id="path3476_0" class="fil2 str6" d="M25.2757 190.656c-10.0307,0 -10.0307,19.6705 0,19.6705l451.145 0c10.0307,0 10.0307,-19.201 0,-19.201l-451.145 -0.469418zm451.145 -34.4228c10.0307,0 10.0307,-14.7529 0,-14.7529l-5.01534 0 -441.114 0 -5.01534 0c-10.0307,0 -10.0307,14.7529 0,14.7529l451.145 0z"/>
  <polygon id="path131" class="fil8" points="23.0839,145.559 480.043,145.559 480.043,151.13 23.0839,151.13 "/>
  <polygon id="path129" class="fil8" points="22.21,193.461 477.334,193.461 477.334,204.719 22.21,204.719 "/>
  <line id="path135" class="fil6 str7" x1="30.291" y1="141.48" x2="476.541" y2= "141.48" />
  <polygon id="path143" class="fil9" points="289.45,173.395 251.896,159.033 251.896,173.395 "/>
  <polygon id="path145" class="fil9" points="214.342,173.395 251.896,187.758 251.896,173.395 "/>
  <polygon id="path147" class="fil10" points="214.342,173.395 251.896,159.033 251.896,173.395 "/>
  <polygon id="path149" class="fil10" points="289.45,173.395 251.896,187.758 251.896,173.395 "/>
  <polygon id="path151" class="fil1" points="251.896,158.693 251.896,173.395 243.141,162.092 "/>
  <polygon id="path153" class="fil1" points="251.896,188.098 251.896,173.395 260.65,184.698 "/>
  <polygon id="path155" class="fil6 str8" points="251.896,187.758 214.178,173.395 251.896,159.033 289.45,173.395 "/>
  <path id="path159" class="fil11" d="M365.501 159.187c16.6309,0 20.4922,5.87367 20.4922,13.053 0,7.17903 -4.83449,13.0527 -20.4922,13.0527 -15.6575,0 -20.416,-5.87367 -20.416,-13.0527 0,-7.17931 3.7851,-13.053 20.416,-13.053z"/>
  <path id="path161" class="fil1" d="M380.717 166.512c2.5234,1.78469 4.05269,3.99458 4.05269,6.37399 0,5.77871 -8.79336,10.5378 -19.6515,10.5378 -10.7813,0 -19.5747,-4.75909 -19.5747,-10.5378 0,-0.170079 0,-0.339874 0,-0.509953 0.535181,5.52388 8.79336,9.85805 18.9629,9.85805 10.3992,0 18.9632,-4.67405 18.9632,-10.368 0,-1.95477 -0.993827,-3.82422 -2.75273,-5.35408z"/>
  <polygon id="path175" class="fil6" points="449.971,173.311 481.671,159.033 481.671,173.395 "/>
  <polygon id="path177" class="fil6 str8" points="478.461,187.758 449.811,173.395 478.461,159.033 489.776,173.311 "/>
  <polygon id="path179" class="fil10" points="449.811,173.395 478.461,159.033 478.461,173.395 "/>
  <polygon id="path181" class="fil10" points="489.776,173.311 478.461,173.395 478.461,187.758 "/>
  <polygon id="path179_1" class="fil10" points="52.8585,173.395 24.2085,159.033 24.2085,173.395 "/>
  <polygon id="path183" class="fil12" points="489.776,173.311 478.461,158.778 478.461,173.395 "/>
  <polygon id="path185" class="fil12" points="449.891,173.395 478.461,187.758 478.461,173.311 "/>
  <polygon id="path187" class="fil1" points="478.461,180.874 478.461,173.395 486.807,173.395 "/>
  <polygon id="path189" class="fil1" points="478.461,167.617 478.461,173.395 468.429,173.395 "/>
  <polygon id="path193" class="fil6" points="55.2804,173.311 20.641,159.033 20.641,173.395 "/>
  <polygon id="path195" class="fil6 str9" points="24.0208,187.758 55.4536,173.395 24.1075,159.033 12.299,173.311 "/>
  <polygon id="path199" class="fil10" points="12.299,173.311 24.1075,173.395 24.0208,187.758 "/>
  <polygon id="path201" class="fil12" points="55.2804,173.395 24.0208,187.758 24.0208,173.395 "/>
  <polygon id="path203" class="fil12" points="12.299,173.311 23.9341,159.033 24.0208,173.395 "/>
  <polygon id="path205" class="fil1" points="24.0208,180.874 24.0208,173.395 20.641,173.395 "/>
  <polygon id="path207" class="fil1" points="23.9341,167.532 24.0208,173.395 35.2627,173.395 "/>
  <path id="path213" class="fil13 str10" d="M176.2 162.518c3.30888,0 6.10101,2.29436 6.10101,5.01392 0,2.71928 -2.79213,5.01421 -6.10101,5.01421 -3.30888,0 -5.99755,-2.29493 -5.99755,-5.01421 0,-2.71956 2.68866,-5.01392 5.99755,-5.01392z"/>
  <path id="path215" class="fil1" d="M173.614 164.727c1.44794,-0.849827 3.2057,-0.764788 4.03314,0.169795 0.723685,0.850111 0.206646,2.29465 -1.24101,3.14447 -1.5514,0.764788 -3.30917,0.679748 -4.03285,-0.170079 -0.827433,-0.934867 -0.207213,-2.37969 1.24073,-3.14419z"/>
  <path id="path219" class="fil13 str10" d="M176.2 174.245c3.30888,0 6.10101,2.29436 6.10101,5.01392 0,2.71928 -2.79213,4.92888 -6.10101,4.92888 -3.30888,0 -5.99755,-2.20961 -5.99755,-4.92888 0,-2.71956 2.68866,-5.01392 5.99755,-5.01392z"/>
  <path id="path221" class="fil1" d="M173.614 176.455c1.44794,-0.849544 3.2057,-0.764788 4.03314,0.170079 0.723685,0.849827 0.206646,2.29465 -1.24101,3.14419 -1.5514,0.765071 -3.30917,0.679748 -4.03285,-0.169795 -0.827433,-0.934867 -0.207213,-2.3794 1.24073,-3.14447z"/>
  <path id="path227" class="fil13 str10" d="M322.418 162.518c3.30888,0 6.10129,2.29436 6.10129,5.01392 0,2.71928 -2.79241,5.01421 -6.10129,5.01421 -3.30888,0 -5.99755,-2.29493 -5.99755,-5.01421 0,-2.71956 2.68866,-5.01392 5.99755,-5.01392z"/>
  <path id="path229" class="fil1" d="M319.832 164.727c1.44794,-0.849827 3.20599,-0.764788 4.03314,0.169795 0.723685,0.850111 0.206646,2.29465 -1.24073,3.14447 -1.5514,0.764788 -3.30945,0.679748 -4.03314,-0.170079 -0.82715,-0.934867 -0.206646,-2.37969 1.24073,-3.14419z"/>
  <path id="path233" class="fil13 str10" d="M322.418 174.245c3.30888,0 6.10129,2.29436 6.10129,5.01392 0,2.71928 -2.79241,4.92888 -6.10129,4.92888 -3.30888,0 -5.99755,-2.20961 -5.99755,-4.92888 0,-2.71956 2.68866,-5.01392 5.99755,-5.01392z"/>
  <path id="path235" class="fil1" d="M319.832 176.455c1.44794,-0.849544 3.20599,-0.764788 4.03314,0.170079 0.723685,0.849827 0.206646,2.29465 -1.24073,3.14419 -1.5514,0.765071 -3.30945,0.679748 -4.03314,-0.169795 -0.82715,-0.934867 -0.206646,-2.3794 1.24073,-3.14447z"/>
  <path id="path241" class="fil13 str10" d="M87.6827 162.518c3.30945,0 5.99783,2.29436 5.99783,5.01392 0,2.71928 -2.68838,5.01421 -5.99783,5.01421 -3.41235,0 -6.10073,-2.29493 -6.10073,-5.01421 0,-2.71956 2.68838,-5.01392 6.10073,-5.01392z"/>
  <path id="path243" class="fil1" d="M84.9946 164.727c1.44737,-0.849827 3.30888,-0.764788 4.03257,0.169795 0.82715,0.850111 0.206929,2.29465 -1.24101,3.14447 -1.44737,0.764788 -3.30888,0.679748 -4.03257,-0.170079 -0.723969,-0.934867 -0.206929,-2.37969 1.24101,-3.14419z"/>
  <path id="path247" class="fil13 str10" d="M87.6827 174.245c3.30945,0 5.99783,2.29436 5.99783,5.01392 0,2.71928 -2.68838,4.92888 -5.99783,4.92888 -3.41235,0 -6.10073,-2.20961 -6.10073,-4.92888 0,-2.71956 2.68838,-5.01392 6.10073,-5.01392z"/>
  <path id="path249" class="fil1" d="M84.9946 176.455c1.44737,-0.849544 3.30888,-0.764788 4.03257,0.170079 0.82715,0.849827 0.206929,2.29465 -1.24101,3.14419 -1.44737,0.765071 -3.30888,0.679748 -4.03257,-0.169795 -0.723969,-0.934867 -0.206929,-2.3794 1.24101,-3.14447z"/>
  <path id="path255" class="fil13 str10" d="M410.624 162.518c3.30917,0 5.99755,2.29436 5.99755,5.01392 0,2.71928 -2.68838,5.01421 -5.99755,5.01421 -3.41263,0 -6.10073,-2.29493 -6.10073,-5.01421 0,-2.71956 2.6881,-5.01392 6.10073,-5.01392z"/>
  <path id="path257" class="fil1" d="M407.936 164.727c1.44737,-0.849827 3.30888,-0.764788 4.03257,0.169795 0.82715,0.850111 0.206929,2.29465 -1.24073,3.14447 -1.44765,0.764788 -3.30888,0.679748 -4.03285,-0.170079 -0.723969,-0.934867 -0.206929,-2.37969 1.24101,-3.14419z"/>
  <path id="path261" class="fil13 str10" d="M410.624 174.245c3.30917,0 5.99755,2.29436 5.99755,5.01392 0,2.71928 -2.68838,4.92888 -5.99755,4.92888 -3.41263,0 -6.10073,-2.20961 -6.10073,-4.92888 0,-2.71956 2.6881,-5.01392 6.10073,-5.01392z"/>
  <path id="path263" class="fil1" d="M407.936 176.455c1.44737,-0.849544 3.30888,-0.764788 4.03257,0.170079 0.82715,0.849827 0.206929,2.29465 -1.24073,3.14419 -1.44765,0.765071 -3.30888,0.679748 -4.03285,-0.169795 -0.723969,-0.934867 -0.206929,-2.3794 1.24101,-3.14447z"/>
  <ellipse class="fil14" transform="matrix(-0.235298 1.07642 -1.33922 -0.103794 353.822 169.904)" rx="5.3195" ry="4.11052"/>
  <path class="fil15" d="M371.34 179.092c2.9194,-3.73238 6.81222,-11.1969 0,-16.7953 12.8137,3.73238 12.8135,12.441 0,16.7953z"/>
  <path id="path159_2" class="fil11" d="M133.67 159.187c16.6309,0 20.4922,5.87367 20.4922,13.053 0,7.17903 -4.83449,13.0527 -20.4922,13.0527 -15.6575,0 -20.416,-5.87367 -20.416,-13.0527 0,-7.17931 3.7851,-13.053 20.416,-13.053z"/>
  <path id="path161_3" class="fil1" d="M148.886 166.512c2.5234,1.78469 4.05269,3.99458 4.05269,6.37399 0,5.77871 -8.79336,10.5378 -19.6515,10.5378 -10.7813,0 -19.5747,-4.75909 -19.5747,-10.5378 0,-0.170079 0,-0.339874 0,-0.509953 0.535181,5.52388 8.79336,9.85805 18.9629,9.85805 10.3992,0 18.9632,-4.67405 18.9632,-10.368 0,-1.95477 -0.993827,-3.82422 -2.75273,-5.35408z"/>
  <ellipse class="fil14" transform="matrix(-0.235298 1.07642 -1.33922 -0.103794 121.991 169.904)" rx="5.3195" ry="4.11052"/>
  <path class="fil15" d="M139.509 179.092c2.9194,-3.73238 6.81222,-11.1969 0,-16.7953 12.8137,3.73238 12.8135,12.441 0,16.7953z"/>
 </g>
</svg>
