<?xml version="1.0" encoding="UTF-8"?>
<!DOCTYPE svg PUBLIC "-//W3C//DTD SVG 1.1//EN" "http://www.w3.org/Graphics/SVG/1.1/DTD/svg11.dtd">
<!-- Creator: CorelDRAW -->
<svg xmlns="http://www.w3.org/2000/svg" xml:space="preserve" width="500px" height="573px" shape-rendering="geometricPrecision" text-rendering="geometricPrecision" image-rendering="optimizeQuality" fill-rule="evenodd" clip-rule="evenodd"
viewBox="0 0 500 573"
 xmlns:xlink="http://www.w3.org/1999/xlink"
 xmlns:svg="http://www.w3.org/2000/svg"
 version="1.0">
 <g id="Layer_x0020_1">
  <metadata id="CorelCorpID_0Corel-Layer"/>
  <path id="path1937" fill="black" stroke="black" stroke-width="0.992126" d="M0.775276 0.776693l498.622 -0.0442205 -0.0269291 355.6c-21.7741,143.431 -148.131,215.766 -249.06,215.281 -108.275,0.575433 -239.259,-70.9166 -249.626,-224.847l0.0907087 -345.99z"/>
  <path fill="#E5E5E5" d="M303.744 87.7998c-28.5633,7.77685 -27.0791,12.1025 -44.5601,28.0199 -31.8124,28.9673 -70.8268,74.4857 -158.407,117.303 -24.0262,27.1412 -14.4558,62.9989 -66.6074,61.3412l29.9962 7.44492 167.787 -140.054 71.7911 -74.0549z"/>
  <path fill="#B2B2B2" d="M430.723 20.588l-16.2675 4.2789 -79.4384 55.0522c-3.32958,1.47798 -36.7075,12.5731 -55.6767,21.4764 -8.64114,4.05553 -47.7233,54.5097 -97.119,89.5247 -22.6982,16.0903 -67.2078,37.8675 -76.1502,44.1156 -4.25424,5.10322 -29.5104,59.4003 -44.2656,61.1643 -18.6531,3.70602 -30.2593,-16.5467 -34.1771,2.50923 -1.43263,8.18646 35.2018,36.9822 43.5929,36.5729 4.83307,-0.205795 8.75934,-1.83487 15.2036,-2.42362 6.44344,-0.588473 14.5009,2.28841 17.7987,-0.0663307 18.0184,-15.8474 0.425764,-39.0626 17.8302,-63.5057 7.35364,-11.4307 93.9467,-49.5519 138.933,-82.0698 32.3204,-23.3623 77.7802,-82.7728 170.128,-147.908l-0.392599 -18.7206z"/>
  <path id="path1937_0" fill="white" stroke="#B2B2B2" stroke-width="0.992126" d="M490.743 390.72c-36.3124,118.207 -148.842,177.734 -240.432,177.294 -98.97,0.525544 -216.914,-59.1614 -244.372,-186.982 20.7989,-23.7073 44.3778,-34.8619 68.1778,-33.1424 23.8,1.7195 33.2119,13.9275 55.3309,26.54 34.5172,-34.9115 74.8843,-63.847 121.534,-63.6313 46.6495,0.215433 82.0911,27.7064 122.098,67.6917 19.2149,-19.004 30.1643,-27.4272 54.5253,-27.2486 24.361,0.178866 44.513,14.9349 63.1381,39.4784z"/>
  <path id="path1937_1" fill="#B2B2B2" stroke="#B2B2B2" stroke-width="0.992126" d="M490.743 394.32c-36.3124,118.207 -148.842,177.734 -240.432,177.294 -98.97,0.525544 -216.914,-59.1614 -244.372,-186.982 20.7989,-23.7073 44.3778,-34.8619 68.1778,-33.1424 23.8,1.7195 33.2119,13.9275 55.3309,26.54 34.5172,-34.9115 74.8843,-63.847 121.534,-63.6313 46.6495,0.215433 82.0911,27.7064 122.098,67.6917 19.2149,-19.004 30.1643,-27.4272 54.5253,-27.2486 24.361,0.178866 44.513,14.9349 63.1381,39.4784z"/>
  <path fill="black" d="M59.7487 26.3112l19.9514 4.2789 112.055 64.4874c21.8183,14.8694 62.1726,60.4471 120.179,101.566 22.6982,16.0903 67.2078,37.8675 76.1502,44.1156 4.25424,5.10322 29.5104,59.4003 44.2656,61.1643 22.951,3.09203 26.282,-18.375 32.6557,0.987875 1.43263,8.18646 -32.1591,41.5463 -40.5502,41.137 -4.83307,-0.205795 -9.66643,-7.01292 -16.111,-7.60167 -6.44344,-0.588756 -15.1149,3.80977 -18.4127,2.06901 -18.0184,-15.8474 -0.425764,-39.0626 -17.8302,-63.5057 -7.35364,-11.4307 -93.9464,-49.5516 -138.933,-82.0698 -32.3206,-23.3626 -83.306,-86.4567 -175.654,-151.592l2.23455 -15.0367z"/>
  <path fill="#F00000" stroke="#F00000" stroke-width="0.992126" d="M248.772 384.962c13.3495,0 25.9895,3.04498 37.2626,8.47758l14.8896 -14.7597 -12.2244 -12.1056 49.3657 -4.27521 1.87767 46.745 -14.8598 -9.23613 -11.9018 13.104c12.8597,15.0253 21.5484,36.6857 21.5484,58.0079 0,47.4653 -38.4925,85.9578 -85.9578,85.9578 -47.4653,0 -85.9578,-38.4925 -85.9578,-85.9578 0,-47.4653 38.4925,-85.9578 85.9578,-85.9578z"/>
  <path fill="#E5E5E5" d="M185.936 90.2693c38.3573,-0.738426 81.0491,81.4933 208.438,143.772 19.4621,28.6625 32.5548,63.6945 58.3866,69.0024l-23.2968 -3.25899 -167.787 -140.054 -75.7412 -69.4622z"/>
  <circle fill="#B2B2B2" stroke="#B2B2B2" stroke-width="0.992126" cx="248.772" cy="472.148" r="49.1188"/>
  <path fill="#B2B2B2" d="M63.3487 22.7112l19.9514 4.2789 94.7064 62.6318 31.3554 11.109c5.08224,0.969449 47.9058,53.0898 106.172,92.3126 22.6982,16.0903 67.2078,37.8675 76.1502,44.1156 4.25424,5.10322 29.5104,59.4003 44.2656,61.1643 22.951,3.09203 26.282,-18.375 32.6557,0.987875 1.43263,8.18646 -29.1164,38.5036 -37.5075,38.0943 -4.83307,-0.205795 -12.7094,-2.44914 -19.1537,-3.03761 -6.44315,-0.588473 -15.1149,2.28841 -18.4127,0.547654 -18.0184,-15.8474 -0.425764,-39.0626 -17.8302,-63.5057 -7.35364,-11.4307 -93.9464,-49.5516 -138.933,-82.0698 -32.3206,-23.3626 -83.306,-86.4567 -175.654,-151.592l2.23455 -15.0367z"/>
  <path fill="black" stroke="black" stroke-width="0.992126" d="M89.6698 13.7333c13.68,8.65333 31.6063,11.9988 41.04,25.9603l0.721134 8.4773c23.3643,11.3924 39.1074,22.0303 62.4719,36.4434 -2.59058,10.999 -1.64069,16.5254 -4.79679,22.7557 -15.7881,6.85078 -23.4836,9.29821 -32.1367,21.9549 -14.6483,-11.2836 -26.1119,-18.3206 -41.8218,-23.2345 1.06158,38.2167 4.2463,40.3399 0,111.465 -38.9245,-8.84665 -64.0486,-18.7546 -97.6649,-64.7561 56.6173,-62.2792 59.0942,-89.5264 72.1871,-139.066z"/>
  <path fill="#B2B2B2" d="M85.4558 10.0494c13.68,8.65333 31.6063,11.9988 41.04,25.9603l0.721134 8.4773c23.3643,11.3924 40.6287,23.5517 63.9933,37.9647 0.887528,2.74961 3.24397,8.25931 2.55033,10.4488 -2.08091,6.56901 -4.3526,6.4063 -6.71953,11.0789 -11.2241,9.89349 -25.6326,9.00482 -34.2856,21.6615 -14.6483,-11.2836 -26.1119,-18.3206 -41.8218,-23.2345 1.06158,38.2167 4.2463,40.3399 0,111.465 -38.9245,-8.84665 -64.0486,-18.7546 -97.6649,-64.7561 56.6173,-62.2792 59.0942,-89.5264 72.1871,-139.066z"/>
  <line fill="none" stroke="black" stroke-width="3.96851" x1="88.5221" y1="27.6231" x2="119.221" y2= "46.0426" />
  <path fill="none" stroke="#4C4C4C" stroke-width="2.83465" d="M35.7194 134.456c16.1663,25.6867 39.0872,45.5389 74.9061,56.4866"/>
  <path fill="#E5E5E5" d="M85.4558 10.0494c13.68,8.65333 31.6063,11.9988 41.04,25.9603l0.721134 8.4773c23.3643,11.3924 40.4079,23.5245 63.7725,37.9375 -41.9964,-19.4791 -69.2377,-33.7482 -68.6546,-38.3261 0.706111,-9.88668 -23.8337,-24.4066 -33.353,-26.8577 -2.59115,4.85036 -7.10618,26.4983 -23.4034,62.4583 -14.3187,31.5941 -48.8911,70.649 -52.1036,69.4423 20.1507,-23.8042 40.4498,-45.3274 53.2171,-75.9926 9.39147,-22.5578 13.8507,-41.8275 18.7639,-63.0992z"/>
  <path fill="#E5E5E5" d="M404.994 10.0494c-13.68,8.65333 -34.649,11.9988 -44.0827,25.9603l-0.721134 8.4773c-23.3643,11.3924 -38.4389,18.36 -63.3249,32.7731 -0.12841,2.3692 0.218268,14.9326 0.905953,16.8174 2.68243,7.35024 2.17956,5.14715 4.74378,10.209 11.2241,9.89349 28.0885,9.31182 36.7416,21.9685 14.6483,-11.2836 26.1119,-20.1626 41.8218,-25.0764 -1.06158,38.2167 -4.2463,43.4098 0,114.535 38.9245,-8.84665 66.5045,-19.0616 100.121,-65.0631 -56.6173,-62.2792 -63.1123,-91.0613 -76.2052,-140.601z"/>
  <path fill="#B2B2B2" d="M409.151 10.0494c-13.68,8.65333 -31.6063,11.9988 -41.04,25.9603l-0.721134 8.4773c-22.269,10.8584 -44.064,20.8772 -67.5196,34.1572l0 10.2665c2.59569,7.89478 5.13128,10.0069 7.6955,15.0687 11.2241,9.89349 25.6326,9.00482 34.2856,21.6615 14.6483,-11.2836 26.1119,-18.3206 41.8218,-23.2345 -1.06158,38.2167 -4.2463,40.3399 0,111.465 38.9245,-8.84665 64.0486,-18.7546 97.6649,-64.7561 -56.6173,-62.2792 -59.0942,-89.5264 -72.1871,-139.066z"/>
  <line fill="none" stroke="black" stroke-width="3.96851" x1="409.127" y1="27.6231" x2="372.343" y2= "46.0426" />
  <path fill="none" stroke="black" stroke-width="0.992126" d="M413.32 25.4741c0.818646,8.28851 2.86526,15.7587 6.13985,22.4104"/>
  <path fill="none" stroke="#4C4C4C" stroke-width="2.83465" d="M461.211 134.763c-18.1168,25.2961 -43.6853,44.189 -77.3621,55.5656"/>
  <path fill="none" stroke="#4C4C4C" stroke-width="2.83465" d="M457.527 139.368c-17.873,25.5076 -34.5127,38.6555 -68.7663,49.4258"/>
  <path fill="none" stroke="#4C4C4C" stroke-width="2.83465" d="M41.8592 143.666c16.9846,24.9061 24.5554,32.4014 59.5565,44.2069"/>
  <path fill="none" stroke="#4C4C4C" stroke-width="2.83465" d="M45.5431 148.885c16.9846,24.9061 13.8107,24.7266 48.8118,36.5321"/>
  <path fill="none" stroke="#4C4C4C" stroke-width="2.83465" d="M452.615 146.122c-18.3203,23.819 -17.6922,26.0181 -51.5747,38.374"/>
  <polygon fill="#E5E5E5" points="427.442,21.4832 430.511,21.4832 430.818,38.9818 427.749,40.5167 "/>
  <line fill="none" stroke="#E5E5E5" stroke-width="0.992126" x1="47.5331" y1="296.498" x2="85.0269" y2= "323.994" />
  <line fill="none" stroke="black" stroke-width="0.992126" x1="597.443" y1="261.504" x2="538.703" y2= "249.006" />
  <line fill="none" stroke="#E5E5E5" stroke-width="0.992126" x1="444.968" y1="298.998" x2="414.973" y2= "330.243" />
 </g>
</svg>
