<?xml version="1.0" encoding="UTF-8" standalone="no"?>
<!-- Creator: CorelDRAW -->

<svg
   xmlns:dc="http://purl.org/dc/elements/1.1/"
   xmlns:cc="http://creativecommons.org/ns#"
   xmlns:rdf="http://www.w3.org/1999/02/22-rdf-syntax-ns#"
   xmlns:svg="http://www.w3.org/2000/svg"
   xmlns="http://www.w3.org/2000/svg"
   xmlns:sodipodi="http://sodipodi.sourceforge.net/DTD/sodipodi-0.dtd"
   xmlns:inkscape="http://www.inkscape.org/namespaces/inkscape"
   xml:space="preserve"
   width="500px"
   height="572px"
   shape-rendering="geometricPrecision"
   text-rendering="geometricPrecision"
   image-rendering="optimizeQuality"
   fill-rule="evenodd"
   clip-rule="evenodd"
   viewBox="0 0 500 572"
   version="1.0"
   id="svg2"
   inkscape:version="0.48.0 r9654"
   sodipodi:docname="Rautalampi.vaakuna.svg"><metadata
   id="metadata21"><rdf:RDF><cc:Work
       rdf:about=""><dc:format>image/svg+xml</dc:format><dc:type
         rdf:resource="http://purl.org/dc/dcmitype/StillImage" /></cc:Work></rdf:RDF></metadata><defs
   id="defs19">
  
  
  
  
  
  
  
  
 </defs><sodipodi:namedview
   pagecolor="#ffffff"
   bordercolor="#666666"
   borderopacity="1"
   objecttolerance="10"
   gridtolerance="10"
   guidetolerance="10"
   inkscape:pageopacity="0"
   inkscape:pageshadow="2"
   inkscape:window-width="640"
   inkscape:window-height="480"
   id="namedview17"
   showgrid="false"
   inkscape:zoom="0.45629371"
   inkscape:cx="250"
   inkscape:cy="286"
   inkscape:window-x="0"
   inkscape:window-y="0"
   inkscape:window-maximized="0"
   inkscape:current-layer="svg2" />
 <path
   style="fill:#d9d9d9;stroke:#000000;stroke-width:0.36850399000000000;fill-opacity:1"
   inkscape:connector-curvature="0"
   d="m -0.162142,0.159591 500.092002,0.293953 0.1165,369.602996 c -31.2409,120.423 -114.353,196.747 -249.195,201.4 -128.841,-3.5348 -219.005998,-68.0964 -250.769998,-202.157 L -0.162418,0.159544 z"
   id="path1937" /><path
   style="fill:#f00000"
   inkscape:connector-curvature="0"
   d="M 366.872,544.7 C 333.7707,560.686 295.0953,569.9295 250.851,571.456 122.01,567.9212 31.845,503.3596 0.081,369.299 L -0.064417,148.74 c 7.64448,8.24939 7.80322,20.2425 15.4468,28.491 15.1163,16.312 55.5894,14.7331 72.4533,31.9187 19.111997,19.4769 9.6636,58.9907 26.793097,77.4754 18.0255,19.4522 61.9521,18.0111 78.4191,36.5278 16.4667,18.517 12.975,61.9957 31.0017,81.4488 20.0089,21.5921 54.6443,18.2313 74.3233,39.824 17.3645,19.0522 16.0319,61.8166 33.6867,80.8679 8.69131,9.379 26.1201,10.0256 34.8123,19.4054 z"
   id="path1937_0" /><path
   style="fill:#000000"
   inkscape:connector-curvature="0"
   d="m 143.937,0.244347 355.993,0.209197 0.1165,369.602996 c -1.95222,7.52627 -4.10797,14.8805 -6.46555,22.0553 -7.11326,-7.97244 -16.2649,-4.68567 -24.7757,-14.3337 -16.0319,-18.1735 -7.90101,-55.8941 -23.5494,-73.433 -15.5344,-17.4104 -58.7639,-18.1253 -74.5674,-34.9994 -20.3196,-21.695 -11.9923,-62.0124 -31.9646,-84.3976 -15.5336,-17.4096 -64.5378,-19.8578 -78.8074,-37.0338 -18.3478,-22.0842 -8.92971,-54.527796 -25.9756,-77.007996 -17.0459,-22.4802 -65.2641,-15.3173 -78.5761,-35.2588 -10.3813,-15.5506 -5.03745,-18.9037 -11.4273,-35.403 z"
   id="path1937_1" /><path
   style="fill:#d9d9d9;fill-opacity:1"
   inkscape:connector-curvature="0"
   id="path9"
   d="m 105.878,353.382 c 13.3067,0 25.6703,4.04674 35.9269,10.9766 l 18.2823,-15.393 -12.9152,-13.1927 40.0952,0.0156 0.0258,41.2427 -12.7559,-12.812 -16.2547,16.2272 c 7.46674,10.499 11.8579,23.3368 11.8579,37.1979 0,35.485 -28.7773,64.2623 -64.2623,64.2623 -35.485005,0 -64.262305,-28.7773 -64.262305,-64.2623 0,-35.485 28.7773,-64.2623 64.262305,-64.2623 z" /><circle
   style="fill:#f00000;fill-opacity:1"
   sodipodi:ry="41.003201"
   sodipodi:rx="41.003201"
   sodipodi:cy="416.80499"
   sodipodi:cx="107.035"
   id="circle11"
   r="41.003201"
   cy="416.80499"
   cx="107.035" /><path
   style="fill:#d9d9d9;fill-opacity:1"
   inkscape:connector-curvature="0"
   id="path13"
   d="m 394.703,52.8758 c 13.3067,0 25.6703,4.04674 35.9269,10.9766 l 18.2823,-15.393 -12.9152,-13.1927 40.0952,0.01559 0.0258,41.2427 -12.7559,-12.812 -16.2547,16.2272 c 7.46674,10.499 11.8579,23.3368 11.8579,37.1979 0,35.485 -28.7773,64.2623 -64.2623,64.2623 -35.485,0 -64.2623,-28.7773 -64.2623,-64.2623 0,-35.485 28.7773,-64.2623 64.2623,-64.2623 z" /><circle
   style="fill:#000000"
   sodipodi:ry="41.003201"
   sodipodi:rx="41.003201"
   sodipodi:cy="116.299"
   sodipodi:cx="395.85999"
   id="circle15"
   r="41.003201"
   cy="116.299"
   cx="395.85999" />
</svg>