<?xml version="1.0" encoding="UTF-8"?>
<!DOCTYPE svg PUBLIC "-//W3C//DTD SVG 1.1//EN" "http://www.w3.org/Graphics/SVG/1.1/DTD/svg11.dtd">
<!-- Creator: CorelDRAW -->
<svg xmlns="http://www.w3.org/2000/svg" xml:space="preserve" width="500px" height="567px" shape-rendering="geometricPrecision" text-rendering="geometricPrecision" image-rendering="optimizeQuality" fill-rule="evenodd" clip-rule="evenodd"
viewBox="0 0 500 567"
 xmlns:xlink="http://www.w3.org/1999/xlink"
 xmlns:svg="http://www.w3.org/2000/svg"
 version="1.0">
 <g id="Layer_x0020_1">
  <metadata id="CorelCorpID_0Corel-Layer"/>
  <path id="path1937" fill="#0057F0" stroke="black" stroke-width="1.98425" d="M1.31953 1.75295l497.609 0 -29.4999 349.994c-7.3749,101.395 -123.912,198.874 -220.392,213.913 -99.9706,-18.6148 -211.881,-113.68 -220.62,-213.358l-27.0975 -350.549z"/>
  <path fill="#000066" d="M27.6985 22.5916l76.8603 96.7272 -31.7517 -15.7703c9.8915,127.852 16.073,222.414 182.335,213.086 132.559,2.12599 173.84,-45.2458 178.486,-214.015l-30.8483 15.444 75.4427 -97.1212c-10.5712,128.334 -11.5852,228.025 -44.8237,274.46 -30.7259,42.9239 -67.8909,68.0763 -140.529,72.1222l-77.2861 0.485859c-58.2784,-4.15899 -99.1024,-22.1142 -126.155,-52.1408 -49.8963,-55.3828 -53.4881,-156.849 -61.7301,-293.278z"/>
  <path fill="#000066" d="M116.121 24.5282l70.1876 96.308 -27.9006 -13.8436c5.22312,89.5714 12.1419,189.736 95.527,165.308 77.7915,18.1182 93.4189,-65.3301 92.4376,-161.115l-29.0823 15.5061 77.4148 -105.864c-8.1995,72.4159 -3.17197,208.541 -42.683,262.076 -18.6199,25.2298 -48.8356,38.6912 -97.348,37.8672 -59.6237,-1.44198 -87.2414,-11.4639 -108.663,-51.7488 -32.7915,-61.6672 -26.8129,-165.332 -29.8905,-244.494z"/>
  <path fill="#000066" d="M198.287 124.721l54.4068 -101.42 57.6508 107.092c-14.3782,-7.62265 -25.6405,-19.6064 -38.4608,-29.4092 9.47027,88.8724 15.1586,133.863 15.215,164.828 6.13956,-5.73109 17.3804,0.0447874 -0.882993,19.5639 -0.132095,1.30507 -0.279496,2.59285 -0.442205,3.86532 -0.997796,7.81002 -0.707811,17.1797 -0.63978,29.5203 0.0734174,13.3345 1.60611,27.6543 3.5674,41.6914 14.2098,15.4809 4.50482,14.7147 2.58832,17.2358 1.69455,10.7606 3.38939,21.0152 4.572,30.1326 4.40646,33.9769 13.2463,47.9172 7.21588,56.598l-9.23046 10.4034c-5.79374,4.55471 2.49732,20.033 -1.9457,36.3994 -3.34743,12.3313 -15.1379,22.7517 -38.5682,38.2232 -15.1778,-5.80848 -33.937,-24.7924 -37.5208,-39.5756 -3.59575,-14.8309 6.11037,-29.7593 -3.36444,-38.9072l-7.18016 -4.79877c-9.56268,-8.0966 2.87263,-25.1853 6.68155,-56.4812 1.40712,-11.5625 3.08891,-24.3383 4.57342,-37.7972 -5.96665,8.79931 -15.6991,1.29713 1.6115,-15.9347 1.91934,-21.1601 2.96107,-43.4271 1.46891,-64.935 -0.123874,-1.7881 -0.248315,-3.57647 -0.372473,-5.36485 -12.8823,-18.9425 -12.8883,-26.2548 -0.0175748,-21.9368 1.74189,-46.4998 12.8701,-112.956 15.8981,-162.885 -11.34,8.27575 -24.5495,15.9287 -36.8241,23.8932z"/>
  <path fill="#CCCCCC" d="M24.4364 20.4168l76.8603 96.7272 -31.7517 -15.7703c9.8915,127.852 16.073,222.414 182.335,213.086 132.559,2.12599 173.84,-45.2458 178.486,-214.015l-30.8483 15.444 75.4427 -97.1212c-10.5712,128.334 -11.5852,228.025 -44.8237,274.46 -30.7259,42.9239 -67.8909,68.0763 -140.529,72.1222l-77.2861 0.485859c-58.2784,-4.15899 -99.1024,-22.1142 -126.155,-52.1408 -49.8963,-55.3828 -53.4881,-156.849 -61.7301,-293.278z"/>
  <path fill="#CCCCCC" d="M112.859 22.3535l70.1876 96.308 -27.9006 -13.8436c5.22312,89.5714 12.1419,189.736 95.527,165.308 77.7915,18.1182 93.4189,-65.3301 92.4376,-161.115l-29.0823 15.5061 77.4148 -105.864c-8.1995,72.4159 -3.17197,208.541 -42.683,262.076 -18.6199,25.2298 -48.8356,38.6912 -97.348,37.8672 -59.6237,-1.44198 -87.2414,-11.4639 -108.663,-51.7488 -32.7915,-61.6672 -26.8129,-165.332 -29.8905,-244.494z"/>
  <path fill="white" d="M123.731 284.848c25.9637,21.998 65.8004,33.1098 128.148,29.6119 132.559,2.12599 173.84,-45.2458 178.486,-214.015l3.53339 -2.05512c-1.55707,87.8931 -15.1903,148.401 -47.8296,183.817 -49.4776,53.6854 -235.829,46.4105 -262.338,2.64189zm350.578 -258.081c0.213165,-2.65408 0.430016,-5.32092 0.650268,-7.99966l-75.4427 97.1212 7.94183 -3.97644 66.8506 -85.1451zm-445.614 -0.989859l-4.25906 -5.3606c8.24202,136.428 11.8338,237.895 61.7301,293.278 2.53588,2.81452 5.19307,5.52388 7.97415,8.12495 -53.2678,-68.0077 -55.8411,-163.025 -65.4452,-296.042z"/>
  <path fill="#666666" d="M289.266 358.505c63.9136,-2.98403 98.1794,-27.1525 125.149,-56.7641 35.9535,-39.4761 34.0447,-92.0951 47.338,-218.982l2.59399 0.554174c-15.0866,151.184 -14.6639,182.353 -47.9651,219.555 -28.7198,32.0851 -62.2517,53.5734 -126.34,58.9816l-0.775276 -3.34432z"/>
  <path fill="white" d="M183.503 249.776c13.693,20.4228 34.5983,29.8919 67.1701,20.3496 77.7915,18.1182 93.4189,-65.3301 92.4376,-161.115l3.24851 -2.61099c1.92189,67.7736 -6.34706,124.263 -32.1905,150.785 -44.5391,45.7081 -127.295,20.3661 -130.666,-7.40807zm207.208 -224.152c0.232158,-2.38365 0.475654,-4.70863 0.731906,-6.97153l-77.4148 105.864 8.75169 -4.6664 67.9312 -94.2259zm-235.089 260.835c-4.62218,-5.5681 -8.85657,-12.0583 -12.8727,-19.6112 -32.7909,-61.6672 -26.8129,-165.332 -29.8905,-244.494l4.07169 5.58737c2.02309,74.1538 -1.67669,195.81 38.6915,258.518z"/>
  <path fill="#CCCCCC" d="M195.025 122.546l54.4068 -101.42 57.6508 107.092c-14.3782,-7.62265 -25.6405,-19.6064 -38.4608,-29.4092 9.47027,88.8724 15.1586,133.863 15.215,164.828 6.13956,-5.73109 17.3804,0.0447874 -0.882993,19.5639 -0.132095,1.30507 -0.279496,2.59285 -0.442205,3.86532 -0.997796,7.81002 -0.707811,17.1797 -0.63978,29.5203 0.0734174,13.3345 1.60611,27.6543 3.5674,41.6914 14.2098,15.4809 4.50482,14.7147 2.58832,17.2358 1.69455,10.7606 3.38939,21.0152 4.572,30.1326 4.40646,33.9769 13.2463,47.9172 7.21588,56.598l-9.23046 10.4034c-5.79374,4.55471 2.49732,20.033 -1.9457,36.3994 -3.34743,12.3313 -15.1379,22.7517 -38.5682,38.2232 -15.1778,-5.80848 -33.937,-24.7924 -37.5208,-39.5756 -3.59575,-14.8309 6.11037,-29.7593 -3.36444,-38.9072l-7.18016 -4.79877c-9.56268,-8.0966 2.87263,-25.1853 6.68155,-56.4812 1.40712,-11.5625 3.08891,-24.3383 4.57342,-37.7972 -5.96665,8.79931 -15.6991,1.29713 1.6115,-15.9347 1.91934,-21.1601 2.96107,-43.4271 1.46891,-64.935 -0.123874,-1.7881 -0.248315,-3.57647 -0.372473,-5.36485 -12.8823,-18.9425 -12.8883,-26.2548 -0.0175748,-21.9368 1.74189,-46.4998 12.8701,-112.956 15.8981,-162.885 -11.34,8.27575 -24.5495,15.9287 -36.8241,23.8932z"/>
  <path fill="white" d="M253.105 486.649c7.49282,0.321166 12.5283,6.80826 12.5283,14.8073 0,7.99909 -5.03518,14.4859 -11.2436,14.4859 -6.20844,0 -13.4918,-9.3773 -13.4918,-17.3764 0,-7.99909 4.7143,-12.238 12.2071,-11.9169z"/>
  <path fill="#000066" d="M247.993 487.933c6.04885,-0.485292 10.7303,5.37194 10.7303,13.1845 0,4.15021 -0.433701,10.4533 -2.65777,13.0414 -1.96243,2.28359 -5.53323,2.06986 -8.07251,1.42781 -5.91591,-1.49641 -11.3726,-6.6566 -11.3726,-14.4692 0,-3.90614 1.23761,-6.48029 3.23745,-9.04026 1.99956,-2.55997 5.71266,-3.9498 8.13515,-4.14425z"/>
  <path fill="#666666" d="M65.759 102.691c4.66951,64.6688 4.15418,132.574 39.8316,170.711l-2.94293 -0.140032c-30.9484,-32.8782 -35.3673,-99.4842 -38.6294,-170.406l1.74076 -0.16526z"/>
  <path fill="#666666" d="M150.7 108.242c3.74117,60.5554 8.39226,127.562 33.7493,152.338l-1.73906 0.843874c-18.8796,-14.3039 -31.7954,-74.6876 -33.3337,-151.091l1.3235 -2.09055z"/>
  <path fill="#666666" d="M283.661 310.134c58.2707,-9.055 72.7705,-45.491 82.8882,-86.2039 5.89011,-23.7011 10.3632,-103.047 13.1879,-137.931l-2.32214 0.968882c-4.25254,52.1105 -6.47603,117.139 -13.0717,137.641 -4.81323,14.961 -11.9497,73.7643 -80.6979,83.5433l0.0155906 1.98113z"/>
  <path fill="#666666" d="M263.495 108.388c2.32611,40.5904 11.4885,108.467 13.1771,149.517l3.2349 9.43852 -13.7072 -155.453 -2.70482 -3.50249z"/>
  <path fill="#666666" d="M256.449 343.987l13.3764 135.241c2.20706,5.04227 3.63147,18.9105 0.480756,28.8729 -0.538299,2.30173 2.97354,0.554174 3.05802,-0.570331 1.66167,-7.68444 2.07723,-12.5651 -0.934583,-30.2179l-13.3957 -131.153 -2.58491 -2.17247z"/>
  <path fill="#666666" d="M266.34 351.485c5.34444,68.6954 17.5425,101.254 14.1639,117.301 -0.614551,1.90743 2.50951,2.56904 2.82898,0.115937 2.49251,-13.0847 -10.9032,-71.6517 -14.953,-114.019l-2.03981 -3.39761z"/>
  <path fill="#666666" d="M275.34 366.945c0.591307,13.921 8.65871,32.6639 8.79336,47.6657 0.117921,13.1533 9.86514,22.4289 6.36095,48.1728l3.11981 -4.1624c0.749197,-20.4732 -6.27392,-35.6658 -6.43153,-40.2401 -0.443055,-12.8673 -7.92652,-37.3258 -8.83333,-48.5456l-3.00926 -2.89049z"/>
  <path fill="#666666" d="M287.383 377.312c-6.12681,-1.86917 -53.3753,-69.7822 -78.1935,-102.493l4.36139 2.49222c23.7799,32.5026 68.1205,93.9773 74.1436,97.5082l-0.311528 2.49222z"/>
  <path fill="#7F7F7F" d="M256.264 317.608l6.82016 9.54794c0.415276,-7.06139 -5.08848,-8.20375 1.24611,-19.9378l-8.06627 10.3898zm-6.94602 -9.72482l-3.36784 -4.71487c2.68016,0.408756 5.24126,-0.0768189 7.83978,-0.282614l-4.47194 4.99748z"/>
  <path fill="white" d="M287.072 371.082c-6.12709,-3.39166 -53.064,-70.7582 -77.8819,-102.493 0.236126,-3.08466 1.30309,-4.50822 3.20088,-4.2704l0.101197 -3.76696c-4.3886,-0.96293 -6.23991,1.06895 -6.48907,3.90699 -0.320315,3.64904 2.20961,8.83474 7.54838,12.8531 23.7796,33.0849 68.1203,94.2418 74.1436,97.5082l-0.623055 -3.73833z"/>
  <path fill="#666666" d="M216.043 263.605l-2.18069 0c26.1683,34.6833 64.7978,84.943 78.505,104.05l-5.91903 -12.1496c-20.9764,-25.9608 -46.9369,-61.2672 -70.4053,-91.9007z"/>
  <path fill="#666666" d="M247.196 325.599c-10.6957,12.1496 -23.8836,33.3335 -35.8257,46.7292l3.73833 -0.311528c11.1112,-14.8496 20.9764,-29.3876 33.3335,-44.86l-1.24611 -1.55764z"/>
  <path fill="white" d="M242.835 320.614l-1.86917 -2.80375c-11.111,14.6418 -21.5992,29.2836 -32.3989,43.9254 -5.50347,8.09972 -1.03833,7.47667 0.623055,5.6075 11.215,-15.5764 21.8069,-30.8412 33.645,-46.7292z"/>
  <path fill="white" d="M250 307.53l1.86917 2.18069 35.5142 -47.3522c-1.66195,0.208063 -3.32334,1.24668 -4.98444,3.11528 -10.7997,14.0187 -20.6649,28.0375 -32.3989,42.0562z"/>
  <path fill="#666666" d="M255.919 315.318c12.0455,-15.5764 24.0914,-29.9067 36.1372,-46.7292 1.97291,-2.59597 1.14208,1.9732 0.311528,2.49222l-35.475 46.1384 -0.973701 -1.90148z"/>
  <ellipse fill="#0057F0" cx="251.708" cy="502.053" rx="11.745" ry="12.2788"/>
  <path fill="white" d="M239.936 345.233l-7.45739 133.995c-2.20706,5.04227 -4.56605,20.1569 -1.41562,30.119 0.538299,2.30173 -2.66202,0.554174 -2.74649,-0.570331 -1.66139,-7.68444 -1.14293,-15.6807 2.18069,-31.1528l8.1 -132.711 1.3388 0.319748z"/>
  <path fill="white" d="M233.236 351.485c-4.7211,58.1037 -16.2961,96.5804 -12.2944,113.874 0.614551,1.90743 -2.50951,2.56904 -2.82926,0.115937 -2.49222,-14.0193 11.8378,-80.3742 13.0839,-110.592l2.03981 -3.39761z"/>
  <path fill="white" d="M225.389 363.917l-1.86917 2.18069c-3.11528,25.4412 -7.78819,53.0635 -14.0187,78.1935l-1.24611 14.6418 1.86917 -2.80375 4.04986 -18.0686c3.15581,-20.5322 9.08108,-49.237 11.215,-74.1436z"/>
  <path fill="#666666" d="M173.676 295.38c-1.55764,-0.830835 -4.98444,-0.104032 -3.73833,1.24611 11.3375,8.80753 26.1493,14.1412 45.7946,14.6418l-1.55764 -2.18069c-16.8491,-1.22032 -30.0889,-6.04942 -40.4986,-13.7072z"/>
  <path fill="#666666" d="M81.152 296.938c24.1104,36.7988 70.5929,59.2549 129.284,62.3055l-1.86917 -2.80375c-59.567,-4.11506 -100.87,-24.7538 -125.546,-60.4364l-1.86917 0.934583z"/>
  <polygon fill="white" points="250,29.3358 250.935,104.102 248.131,35.2548 "/>
  <polygon fill="white" points="118.224,34.0087 121.795,43.1093 153.738,100.053 155.607,99.4295 "/>
  <polygon fill="white" points="65.8871,91.0183 64.018,91.6413 30.996,34.0087 30.0614,29.9588 "/>
  <polygon fill="white" points="388.63,28.7127 353.116,96.3142 355.608,94.4451 387.695,32.7626 "/>
  <polygon fill="white" points="467.758,39.3046 437.228,93.1989 442.836,86.0338 469.627,38.9931 "/>
  <path fill="white" d="M352.804 117.187l-1.55764 2.18069c0.397134,63.3989 -6.99392,108.598 -22.4396,127.717 11.3579,-9.94479 23.6894,-39.0949 23.9973,-129.897z"/>
  <polygon fill="white" points="232.243,170.146 225.078,253.013 226.324,249.897 233.178,175.131 "/>
  <path fill="white" d="M124.454 126.844c3.33468,44.9569 7.77345,83.5104 15.2649,104.362 -6.46555,-26.4773 -10.567,-62.4076 -13.7072,-102.181l-1.55764 -2.18069z"/>
  <path fill="white" d="M41.8995 127.467c3.37918,59.6064 10.9545,102.874 19.3147,120.873l-0.311528 -6.85361c-6.77679,-13.0442 -13.267,-57.5445 -17.4456,-111.215l-1.55764 -2.80375z"/>
  <path fill="white" d="M438.474 115.006c-2.60051,59.7867 -8.19865,93.2959 -19.0321,121.923 9.89944,-21.2599 16.7601,-50.3912 20.9013,-121.3l-1.86917 -0.623055z"/>
  <path fill="white" d="M200.837 118.831c-1.95307,1.23307 -3.89395,2.47011 -5.81159,3.71452l54.4068 -101.42 1.95392 3.62948 -50.5491 94.0763zm20.5863 405.621c-4.33701,-5.59134 -7.58495,-11.4469 -8.87273,-16.759 -3.59547,-14.8309 6.11037,-29.7593 -3.36444,-38.9072l-7.18016 -4.79877c-9.56268,-8.0966 2.87263,-25.1853 6.68155,-56.4812 1.31074,-10.7739 2.94293,-22.6083 4.43537,-35.0674l4.47846 -0.422362c-4.33729,54.7971 -14.8442,64.6557 -14.0859,83.6108 0.379559,9.48416 11.3068,12.4095 14.3079,19.2158 1.95137,4.42602 -3.96992,34.1822 4.45096,47.6413l-0.850961 1.9681zm-5.43629 -180.106c1.45332,-18.2968 1.98595,-37.1909 0.354331,-55.5072 -0.0915591,-1.02841 -0.173197,-2.08035 -0.243496,-3.15411l3.06114 2.84173 0.623339 55.7632 -2.18098 2.18098 -1.61433 -2.12457zm15.8624 -245.694c-3.06936,50.6166 -14.4632,118.219 -15.9647,164.794l3.89764 4.20775 15.5761 -169.16 -3.50901 0.157606z"/>
  <path fill="#666666" d="M285.826 278.558l-3.4268 5.6075c-0.64715,13.5771 -3.81515,45.8204 4.04986,71.6514l5.6075 10.9035c-9.21657,-28.0508 -9.47594,-60.8395 -6.23055,-88.1623z"/>
 </g>
</svg>
