<?xml version="1.0" encoding="UTF-8"?>
<!DOCTYPE svg PUBLIC "-//W3C//DTD SVG 1.1//EN" "http://www.w3.org/Graphics/SVG/1.1/DTD/svg11.dtd">
<!-- Creator: CorelDRAW -->
<svg xmlns="http://www.w3.org/2000/svg" xml:space="preserve" width="500px" height="645px" shape-rendering="geometricPrecision" text-rendering="geometricPrecision" image-rendering="optimizeQuality" fill-rule="evenodd" clip-rule="evenodd"
viewBox="0 0 500 645"
 xmlns:xlink="http://www.w3.org/1999/xlink"
 xmlns:svg="http://www.w3.org/2000/svg"
 version="1.0">
 <g id="Layer_x0020_1">
  <metadata id="CorelCorpID_0Corel-Layer"/>
  <path id="path1937" fill="#CCCCCC" stroke="black" stroke-width="0.992126" d="M0.378142 1.19027l499.276 -0.117638 -0.568347 415.158c-37.8369,306.839 -462.737,301.186 -498.457,0.483307l-0.250866 -415.524z"/>
  <path fill="#F00000" d="M89.5306 290.904c10.097,-37.4335 -7.61443,-52.1428 7.91547,-93.367 14.8096,-39.3126 -12.0399,-56.0461 6.12936,-94.7475 11.49,-24.4741 -2.17304,-65.2164 19.8077,-85.468 0.0776693,14.2328 4.15616,21.2851 8.76133,34.1705 13.8155,38.6549 -5.74555,61.7134 6.14495,98.0828 13.845,42.3479 -10.0437,56.3485 7.05912,101.986 5.27046,14.0638 4.71997,24.7246 3.85257,39.384l10.6554 0.0096378c8.26952,-25.2502 -12.5855,-36.3549 5.98961,-89.1533 13.9419,-39.6281 -16.3038,-53.6097 6.12936,-99.0117 11.9767,-24.2394 -2.78221,-62.1706 19.1985,-82.4222 0.0776693,14.2328 2.93783,17.0209 7.543,29.9064 13.8155,38.6549 -6.96331,58.6681 4.92662,95.0369 13.8444,42.3474 -7.58552,56.5127 8.27745,102.595 5.57462,16.1941 1.47147,26.5995 3.03959,43.0855l10.6552 0.0096378c8.26952,-25.2502 -8.52208,-59.7232 2.64869,-92.2457 10.58,-30.8035 -11.4299,-63.3569 7.34769,-102.058 11.8018,-24.3241 -4.00054,-52.424 16.7618,-76.3305 0.0776693,14.2328 2.93783,17.0209 7.543,29.9064 13.8155,38.6549 -5.13553,58.0592 6.75411,94.4278 13.8441,42.3471 -7.58523,49.8121 8.88662,97.7219 5.5681,16.1958 5.11852,37.9097 -0.0136063,48.6108l17.0487 0.0136063c9.48785,-30.1235 -12.659,-53.595 5.84419,-96.5566 10.8105,-25.0999 -11.4304,-56.0464 9.17519,-100.839 11.2992,-24.5622 -3.39137,-54.8606 21.6352,-69.6297 0.0776693,14.2328 -1.30564,12.7491 3.27884,25.6422 16.2731,42.3026 -5.99556,66.7225 7.97244,102.347 14.455,36.8663 -7.31396,52.1547 5.23162,86.1478 10.1109,29.4999 3.13852,36.4425 4.70665,52.9285l9.43739 0.00822048c8.26952,-25.2502 -8.81235,-58.4711 3.66718,-90.5134 14.8436,-38.113 -11.1243,-60.3114 8.26158,-102.057 11.3865,-24.5203 -4.6097,-51.8148 18.5893,-81.813 0.0776693,14.2328 3.54699,18.8484 8.15216,31.7339 13.8155,38.6549 -6.7354,59.8133 4.92662,96.2553 16.2808,50.8751 -7.58495,49.8121 8.88662,97.7219 5.5681,16.1955 7.75219,33.442 3.83783,48.7097l10.6554 0.00992126c9.48728,-29.8168 -8.35682,-59.5454 3.62268,-91.7785 14.8439,-39.941 -14.4754,-58.4839 6.73852,-103.276 11.5719,-24.4338 -5.82803,-53.6423 16.7618,-75.7214 0.0776693,14.2328 3.54699,17.0209 8.15216,29.9064 20.5163,55.7116 -3.89339,65.8083 6.44939,94.1233 23.6064,64.6254 -2.40633,64.1277 8.58218,98.0263 5.28066,16.2907 9.01616,33.1478 5.1018,48.4155l16.9688 0.000283465 -0.171213 125.363c-37.8369,306.839 -462.737,301.186 -498.457,0.483307l-0.0759685 -125.848 16.854 0.0138898c14.9703,-47.7893 -13.2231,-57.4489 7.45881,-99.4063 15.0752,-30.5833 -10.8221,-58.4822 6.12936,-95.9658 11.141,-24.6356 -3.39137,-65.8256 21.6352,-80.5947 0.0776693,14.2328 1.74019,21.8866 6.32466,34.7797 12.009,33.7743 -4.99635,56.0928 9.79994,91.3819 17.5011,41.7402 -9.14089,49.718 5.23162,93.4577 8.89314,27.0638 3.34999,39.9039 4.91811,56.3899l10.6549 0.00992126z"/>
  <path fill="#BF9F4F" d="M85.2974 408.072c-1.31924,-11.7717 3.85625,-19.0783 15.5265,-21.9198 -1.04258,-13.5235 6.51827,-18.2418 17.6576,-17.962 0.710363,-10.8584 7.10363,-15.628 19.1798,-14.3087 5.58142,0.608882 12.685,11.5688 20.3976,16.4398l5.78438 0c10.9851,14.334 20.9806,30.3174 29.5308,48.7106l0.608882 6.08882c24.6901,64.0301 25.905,123.458 16.4398,181.751 -13.2432,10.1225 -27.4507,11.0866 -42.3173,5.78438 13.4209,-57.337 8.70208,-109.396 -22.5286,-153.743 -16.0722,-3.54983 -18.5939,-7.81285 -19.1798,-12.1776 -3.45033,-2.13109 -5.6829,-4.6681 -6.6977,-7.61103 -3.56032,-0.808158 -4.26728,-3.04243 -4.56662,-5.47994 -4.87191,-2.02961 -6.39411,-5.17578 -6.39326,-8.82879 -4.56662,-1.21776 -8.21991,-4.26218 -8.21991,-7.30659l-15.2221 -9.43767z"/>
  <polygon fill="#BF9F4F" points="499.257,290.868 0.55304,290.866 0.563244,308.16 499.234,308.159 "/>
  <path fill="#BF9F4F" d="M198.245 342.313c6.69742,-11.0614 17.3529,-15.5265 33.793,-10.351 11.1118,-10.4017 23.188,-8.27037 35.924,2.43553 12.3806,-6.1903 23.9494,-3.85625 34.7063,7.00215l-6.46923 23.7694c0.531213,3.44211 -0.155055,6.47887 -2.05852,9.10999 -0.395717,3.64564 -1.19707,7.29185 -2.40378,10.9383 0.723685,2.95143 0.229606,5.90315 -1.48167,8.85544 0.319465,4.37981 -0.574583,7.92822 -2.68895,10.6792 1.52929,4.39795 0.267307,9.3549 -2.26262,14.5661 -9.7132,59.7524 -13.8195,123.133 -9.73049,191.816 -21.1085,12.8412 -39.7814,14.4655 -56.0172,-7.61103 5.46775,-59.3847 2.55005,-118.307 -4.26218,-182.36l-3.34885 -2.73997c-0.507402,-2.43553 -0.608882,-4.87106 -0.304441,-7.30659 -0.608882,-2.63849 -0.811843,-5.27698 -0.608882,-7.91547 -1.0148,-2.23257 -1.21776,-5.6829 -0.608882,-10.351 -1.42073,-2.13109 -2.43553,-5.47994 -3.04441,-10.0466l-0.913323 -9.13323c-2.13109,-3.45033 -3.04441,-8.11843 -2.73997,-14.0043l-5.47994 -17.3531z"/>
  <path fill="none" stroke="#644D36" stroke-width="2.83465" d="M238.431 410.508c6.39326,1.42073 10.351,5.98734 9.43767,13.091 -5.58142,-0.402236 -9.53887,-5.37648 -9.43767,-13.091z"/>
  <path fill="#BF9F4F" d="M416.378 409.29c-0.958111,-7.21644 -3.97814,-18.2254 -14.6132,-23.1375 1.04258,-13.5235 -6.51827,-18.2418 -17.6576,-17.962 -0.710363,-10.8584 -5.27698,-18.6724 -17.3531,-17.3531 -5.58142,0.608882 -15.425,15.8309 -23.1375,20.702l-4.56662 0.608882 -6.64413 9.67607c-4.69531,2.94066 -7.86813,6.13531 -7.6921,9.88725 -3.45714,3.17424 -4.3767,6.04403 -4.89062,9.52158 -4.15219,2.9401 -6.68098,5.88019 -7.58637,8.82029 -3.44268,2.18098 -5.66759,4.76759 -6.67531,7.76098l1.21776 9.43767c-21.0368,40.5882 -32.9071,122.24 -20.0931,180.534 12.3806,11.8477 28.2121,10.7819 43.8395,3.95773 -18.5964,-65.2524 -4.74435,-108.483 26.4864,-152.829 16.0722,-3.54983 17.985,-6.29065 18.5709,-10.6554 3.45033,-2.13109 6.29178,-5.27698 7.30659,-8.21991 3.56032,-0.808158 5.1806,-4.26019 5.47994,-6.6977 4.87191,-2.02961 7.61188,-3.65358 7.61103,-7.30659 4.56662,-1.21776 6.08882,-5.47994 6.08882,-8.52435l14.3087 -8.21991z"/>
  <path fill="none" stroke="#644D36" stroke-width="2.83465" d="M237.822 400.157c6.39326,1.42073 10.351,6.59622 9.43767,13.6998 -5.58142,-0.402236 -9.53887,-5.98536 -9.43767,-13.6998z"/>
  <path fill="none" stroke="#644D36" stroke-width="2.83465" d="M237.518 390.415c6.39326,1.42073 10.351,5.98734 9.43767,13.091 -5.58142,-0.402236 -9.53887,-5.37648 -9.43767,-13.091z"/>
  <path fill="none" stroke="#644D36" stroke-width="2.83465" d="M237.518 379.759c6.39326,1.42073 10.351,6.29178 9.43767,13.3954 -5.58142,-0.402236 -9.53887,-5.68092 -9.43767,-13.3954z"/>
  <path fill="none" stroke="#644D36" stroke-width="2.83465" d="M236.3 367.277c6.39326,1.42073 11.2643,7.81399 10.351,14.9176 -5.58114,0.616536 -10.4519,-6.59169 -10.351,-14.9176z"/>
  <path fill="none" stroke="#644D36" stroke-width="2.83465" d="M235.691 356.926c7.0047,1.7263 12.892,7.71506 10.9599,14.3087 -5.98677,0.00368504 -11.467,-6.18832 -10.9599,-14.3087z"/>
  <path fill="none" stroke="#644D36" stroke-width="2.83465" d="M259.623 410.508c-6.39326,1.42073 -10.351,5.98734 -9.43767,13.091 5.58142,-0.402236 9.53887,-5.37648 9.43767,-13.091z"/>
  <path fill="none" stroke="#644D36" stroke-width="2.83465" d="M259.319 401.679c-6.39326,1.42073 -10.9599,5.37846 -10.0466,12.4821 5.58142,-0.402236 10.1478,-4.76759 10.0466,-12.4821z"/>
  <path fill="none" stroke="#644D36" stroke-width="2.83465" d="M259.319 391.633c-6.39326,1.42073 -11.2643,5.07402 -10.351,12.1776 5.58142,-0.402236 10.4522,-4.46315 10.351,-12.1776z"/>
  <path fill="none" stroke="#644D36" stroke-width="2.83465" d="M259.319 381.282c-5.37506,1.93068 -10.9576,5.07572 -10.6554,11.8732 5.58142,-0.402236 10.7566,-4.15871 10.6554,-11.8732z"/>
  <path fill="none" stroke="#644D36" stroke-width="2.83465" d="M260.536 370.931c-6.39326,1.42073 -11.8732,5.6829 -10.9599,12.7865 5.58114,0.616536 11.0608,-4.4606 10.9599,-12.7865z"/>
  <path fill="none" stroke="#644D36" stroke-width="2.83465" d="M260.841 361.188c-7.51437,0.707528 -13.502,6.49503 -11.2643,13.6998 4.03824,0.00311811 11.1217,-5.57944 11.2643,-13.6998z"/>
  <path fill="none" stroke="#644D36" stroke-width="2.83465" d="M248.588 349.319c4.3543,5.75207 5.82237,14.1126 0.169228,18.0179 -4.65279,-3.76725 -5.67695,-12.0294 -0.169228,-18.0179z"/>
  <line fill="none" stroke="#644D36" stroke-width="3.40158" x1="248.478" y1="366.364" x2="248.173" y2= "424.512" />
  <line fill="none" stroke="#644D36" stroke-width="2.83465" x1="247.26" y1="422.381" x2="246.651" y2= "619.355" />
  <line fill="none" stroke="#644D36" stroke-width="1.41732" x1="239.649" y1="357.231" x2="238.431" y2= "328.918" />
  <line fill="none" stroke="#644D36" stroke-width="1.41732" x1="258.306" y1="361.368" x2="260.047" y2= "329.527" />
  <line fill="none" stroke="#644D36" stroke-width="1.41732" x1="244.825" y1="354.186" x2="243.607" y2= "325.873" />
  <line fill="none" stroke="#644D36" stroke-width="1.41732" x1="249.087" y1="350.837" x2="247.869" y2= "325.569" />
  <line fill="none" stroke="#644D36" stroke-width="1.41732" x1="252.594" y1="356.557" x2="253.958" y2= "327.7" />
  <path fill="none" stroke="#644D36" stroke-width="2.83465" d="M262.011 410.977c6.15742,2.23172 9.49437,7.26945 7.67481,14.1965 -5.48334,-1.11685 -8.76785,-6.55909 -7.67481,-14.1965z"/>
  <path fill="none" stroke="#644D36" stroke-width="2.83465" d="M262.739 400.634c6.15714,2.23172 9.41613,7.87352 7.59629,14.8005 -5.48334,-1.11713 -8.68933,-7.16315 -7.59629,-14.8005z"/>
  <path fill="none" stroke="#644D36" stroke-width="2.83465" d="M263.691 390.934c6.15714,2.23143 9.49437,7.26945 7.67481,14.1965 -5.48334,-1.11713 -8.76785,-6.55909 -7.67481,-14.1965z"/>
  <path fill="none" stroke="#644D36" stroke-width="2.83465" d="M265.062 380.367c6.15714,2.23172 9.45525,7.57163 7.63541,14.4987 -5.48306,-1.11713 -8.72845,-6.86126 -7.63541,-14.4987z"/>
  <path fill="none" stroke="#644D36" stroke-width="2.83465" d="M265.461 367.832c6.15714,2.23143 10.0225,8.82567 8.20262,15.7527 -5.61402,-0.106583 -9.37418,-7.50898 -8.20262,-15.7527z"/>
  <path fill="none" stroke="#644D36" stroke-width="2.83465" d="M266.189 357.489c6.72435,2.61326 11.9565,8.59352 9.19191,14.8839 -5.93745,-0.766772 -10.7396,-6.89613 -9.19191,-14.8839z"/>
  <path fill="none" stroke="#644D36" stroke-width="2.83465" d="M282.722 411.878c-6.52281,0.586205 -11.0353,4.60573 -11.0435,11.7678 5.58681,0.319181 10.1514,-4.10429 11.0435,-11.7678z"/>
  <path fill="none" stroke="#644D36" stroke-width="2.83465" d="M283.557 403.388c-6.52281,0.586205 -12.0271,3.99147 -12.0353,11.1538 5.58681,0.319181 11.143,-3.4903 12.0353,-11.1538z"/>
  <path fill="none" stroke="#644D36" stroke-width="2.83465" d="M285.154 393.424c-6.52309,0.586488 -11.6442,4.30129 -11.6527,11.4633 5.58681,0.319465 10.7603,-3.79984 11.6527,-11.4633z"/>
  <path fill="none" stroke="#644D36" stroke-width="2.83465" d="M285.921 384.302c-6.52281,0.586205 -11.6833,4.29874 -11.6915,11.4608 5.58681,0.319465 10.7994,-3.79758 11.6915,-11.4608z"/>
  <path fill="none" stroke="#644D36" stroke-width="2.83465" d="M289.025 374.573c-6.52281,0.586488 -12.589,4.18139 -12.5972,11.3437 5.45528,1.32945 11.626,-3.07389 12.5972,-11.3437z"/>
  <path fill="none" stroke="#644D36" stroke-width="2.83465" d="M290.581 364.951c-7.16854,0.810709 -14.0479,4.85547 -12.9804,11.6427 5.9366,0.774142 12.4384,-3.5246 12.9804,-11.6427z"/>
  <path fill="none" stroke="#644D36" stroke-width="2.83465" d="M279.957 351.604c3.57789,6.26457 3.95802,14.7444 -2.15065,17.8897 -4.12951,-4.33446 -4.08189,-12.6595 2.15065,-17.8897z"/>
  <path fill="none" stroke="#644D36" stroke-width="2.83465" d="M277.659 368.794c-3.45827,18.3475 -6.25748,36.1361 -8.09235,56.1073"/>
  <path fill="none" stroke="#644D36" stroke-width="2.83465" d="M270.152 423.279c-7.14841,69.1657 -8.66665,132.396 -7.68303,193.431"/>
  <line fill="none" stroke="#644D36" stroke-width="1.41732" x1="268.857" y1="358.604" x2="270.379" y2= "335.241" />
  <line fill="none" stroke="#644D36" stroke-width="1.41732" x1="286.442" y1="365.523" x2="293.867" y2= "333.451" />
  <line fill="none" stroke="#644D36" stroke-width="1.41732" x1="272.554" y1="360.513" x2="275.599" y2= "332.279" />
  <path fill="none" stroke="#644D36" stroke-width="1.41732" d="M278.125 353.783c0.225921,-6.17216 1.31386,-13.5612 2.34851,-22.1712"/>
  <line fill="none" stroke="#644D36" stroke-width="1.41732" x1="280.895" y1="352.391" x2="285.02" y2= "332.683" />
  <line fill="none" stroke="#644D36" stroke-width="1.41732" x1="283.21" y1="361.122" x2="289.299" y2= "333.497" />
  <line fill="none" stroke="#644D36" stroke-width="1.41732" x1="289.314" y1="365.879" x2="297.216" y2= "337.104" />
  <line fill="none" stroke="#644D36" stroke-width="1.41732" x1="290.816" y1="368.541" x2="299.652" y2= "340.757" />
  <line fill="none" stroke="#644D36" stroke-width="1.41732" x1="265.568" y1="357.963" x2="267.076" y2= "334.668" />
  <line fill="none" stroke="#644D36" stroke-width="1.41732" x1="261.306" y1="361.008" x2="263.423" y2= "332.842" />
  <path fill="none" stroke="#644D36" stroke-width="2.83465" d="M235.86 409.455c-6.15742,2.23172 -9.49437,7.26945 -7.67481,14.1965 5.48334,-1.11685 8.76785,-6.55909 7.67481,-14.1965z"/>
  <path fill="none" stroke="#644D36" stroke-width="2.83465" d="M234.828 400.634c-6.15714,2.23172 -9.41613,6.65575 -7.59629,13.5828 5.48334,-1.11713 8.68933,-5.94539 7.59629,-13.5828z"/>
  <path fill="none" stroke="#644D36" stroke-width="2.83465" d="M234.79 390.629c-6.15714,2.23143 -10.1032,6.05169 -8.28341,12.9787 5.48334,-1.11713 9.37645,-5.34133 8.28341,-12.9787z"/>
  <path fill="none" stroke="#644D36" stroke-width="2.83465" d="M233.418 380.062c-6.15714,2.23172 -10.0641,6.6583 -8.24457,13.5853 5.48334,-1.11685 9.33761,-5.94794 8.24457,-13.5853z"/>
  <path fill="none" stroke="#644D36" stroke-width="2.83465" d="M233.02 367.528c-6.15714,2.23143 -9.71802,7.91235 -7.89818,14.8394 5.61402,-0.106583 9.06974,-6.59566 7.89818,-14.8394z"/>
  <path fill="none" stroke="#644D36" stroke-width="2.83465" d="M232.292 357.184c-6.72435,2.61326 -11.0432,7.98463 -8.27859,14.275 5.93745,-0.766772 9.8263,-6.28725 8.27859,-14.275z"/>
  <path fill="none" stroke="#644D36" stroke-width="2.83465" d="M214.924 408.259c6.52281,0.586205 11.7227,6.12284 11.7312,13.2849 -5.58681,0.319465 -10.8388,-5.62139 -11.7312,-13.2849z"/>
  <path fill="none" stroke="#644D36" stroke-width="2.83465" d="M213.631 396.469c6.52309,0.586488 11.9489,6.12766 11.9574,13.2897 -5.58681,0.319465 -11.065,-5.62621 -11.9574,-13.2897z"/>
  <path fill="none" stroke="#644D36" stroke-width="2.83465" d="M212.56 385.519c6.52281,0.586205 11.3788,5.82066 11.3871,12.9827 -5.58681,0.319465 -10.495,-5.3195 -11.3871,-12.9827z"/>
  <path fill="none" stroke="#644D36" stroke-width="2.83465" d="M209.455 374.269c6.52281,0.586488 13.1981,5.70331 13.2063,12.8656 -5.45528,1.32945 -12.2352,-4.59581 -13.2063,-12.8656z"/>
  <path fill="none" stroke="#644D36" stroke-width="2.83465" d="M207.9 364.647c7.16854,0.810709 13.7435,6.07323 12.676,12.8605 -5.42722,0.264756 -11.8281,-5.04766 -12.676,-12.8605z"/>
  <path fill="none" stroke="#644D36" stroke-width="2.83465" d="M218.524 351.3c-3.57789,6.26457 -3.95802,14.7444 2.15065,17.8897 4.12951,-4.33446 4.08189,-12.6595 -2.15065,-17.8897z"/>
  <line fill="none" stroke="#644D36" stroke-width="2.83465" x1="221.234" y1="366.601" x2="228.265" y2= "423.743" />
  <path fill="none" stroke="#644D36" stroke-width="2.83465" d="M227.719 422.347c5.67525,70.3778 4.93881,132.327 3.72558,192.841"/>
  <line fill="none" stroke="#644D36" stroke-width="1.41732" x1="229.624" y1="358.3" x2="228.102" y2= "334.937" />
  <line fill="none" stroke="#644D36" stroke-width="1.41732" x1="212.039" y1="365.218" x2="204.613" y2= "333.146" />
  <line fill="none" stroke="#644D36" stroke-width="1.41732" x1="225.926" y1="360.209" x2="222.882" y2= "331.975" />
  <path fill="none" stroke="#644D36" stroke-width="1.41732" d="M220.356 353.479c-0.326835,-6.17216 -1.21181,-13.5612 -2.34851,-22.1712"/>
  <line fill="none" stroke="#644D36" stroke-width="1.41732" x1="217.586" y1="352.087" x2="213.461" y2= "332.378" />
  <line fill="none" stroke="#644D36" stroke-width="1.41732" x1="215.271" y1="360.818" x2="209.182" y2= "333.192" />
  <line fill="none" stroke="#644D36" stroke-width="1.41732" x1="209.775" y1="364.966" x2="201.569" y2= "336.799" />
  <line fill="none" stroke="#644D36" stroke-width="1.41732" x1="207.665" y1="367.018" x2="198.829" y2= "340.453" />
  <line fill="none" stroke="#644D36" stroke-width="1.41732" x1="232.913" y1="357.659" x2="231.708" y2= "333.146" />
  <path fill="none" stroke="#644D36" stroke-width="2.83465" d="M233.865 356.926c3.15241,85.9156 5.37194,173.366 6.08882,260.906"/>
  <path fill="none" stroke="#644D36" stroke-width="2.83465" d="M262.162 358.448c-3.15241,85.9156 -5.98082,171.844 -6.6977,259.384"/>
  <path fill="none" stroke="#644D36" stroke-width="2.83465" d="M219.16 417.206c7.54781,84.3171 8.9932,102.609 5.1755,191.798"/>
  <path fill="none" stroke="#644D36" stroke-width="2.83465" d="M275.86 422.99c-7.54781,84.3171 -10.211,100.477 -6.39326,189.667"/>
  <path fill="none" stroke="#644D36" stroke-width="2.83465" d="M119.784 402.963c4.81266,-4.44189 11.2876,-4.44841 16.6022,0.35263 -2.67591,4.93625 -9.82007,4.47789 -16.6022,-0.35263z"/>
  <path fill="none" stroke="#644D36" stroke-width="2.83465" d="M127.7 409.66c4.81266,-4.44189 9.76536,-3.53509 15.08,1.26595 -2.67591,4.93625 -8.29786,3.56457 -15.08,-1.26595z"/>
  <path fill="none" stroke="#644D36" stroke-width="2.83465" d="M134.093 417.881c5.1171,-3.83329 8.85204,-2.92621 14.1667,1.87455 -2.67591,4.93654 -7.38454,2.95597 -14.1667,-1.87455z"/>
  <path fill="none" stroke="#644D36" stroke-width="2.83465" d="M138.964 425.187c5.1171,-3.83301 10.0698,-3.23036 15.3845,1.57039 -2.67591,4.93654 -8.6023,3.26013 -15.3845,-1.57039z"/>
  <path fill="none" stroke="#644D36" stroke-width="2.83465" d="M144.444 433.102c5.1171,-3.83301 10.0698,-3.23036 15.3845,1.57039 -2.67591,4.93654 -8.6023,3.26013 -15.3845,-1.57039z"/>
  <path fill="none" stroke="#644D36" stroke-width="2.83465" d="M149.924 440.713c5.1171,-3.83301 9.46092,-3.53452 14.7756,1.26624 -2.67591,4.93654 -7.99342,3.56429 -14.7756,-1.26624z"/>
  <path fill="none" stroke="#644D36" stroke-width="2.83465" d="M137.214 389.293c4.64712,4.61481 5.25288,11.374 0.687969,16.8928 -5.04822,-2.45849 -5.21859,-9.90652 -0.687969,-16.8928z"/>
  <path fill="none" stroke="#644D36" stroke-width="2.83465" d="M143.303 393.555c4.64712,4.61481 5.25288,11.374 0.687969,16.8928 -5.04822,-2.45849 -5.21859,-9.90652 -0.687969,-16.8928z"/>
  <path fill="none" stroke="#644D36" stroke-width="2.83465" d="M148.783 401.471c4.64712,4.61481 5.25288,11.374 0.687969,16.8928 -5.04822,-2.45849 -5.21859,-9.90652 -0.687969,-16.8928z"/>
  <path fill="none" stroke="#644D36" stroke-width="2.83465" d="M153.654 408.473c4.64712,4.61481 5.25288,11.374 0.687969,16.8928 -5.04822,-2.45849 -5.21859,-9.90652 -0.687969,-16.8928z"/>
  <path fill="none" stroke="#644D36" stroke-width="2.83465" d="M159.439 417.301c4.64712,4.61481 5.25288,11.374 0.687969,16.8928 -5.04822,-2.45849 -5.21859,-9.90652 -0.687969,-16.8928z"/>
  <path fill="none" stroke="#644D36" stroke-width="2.83465" d="M164.919 425.521c4.64712,4.61481 5.25288,11.374 0.687969,16.8928 -5.04822,-2.45849 -5.21859,-9.90652 -0.687969,-16.8928z"/>
  <path fill="none" stroke="#644D36" stroke-width="2.83465" d="M122.955 388.493c6.54152,0.312662 11.5197,4.92492 11.8278,12.0804 -5.3949,1.55679 -10.5112,-3.85852 -11.8278,-12.0804z"/>
  <line fill="none" stroke="#644D36" stroke-width="1.41732" x1="123.657" y1="400.157" x2="103.868" y2= "382.804" />
  <line fill="none" stroke="#644D36" stroke-width="1.41732" x1="116.046" y1="403.201" x2="99.9105" y2= "387.066" />
  <line fill="none" stroke="#644D36" stroke-width="1.41732" x1="124.57" y1="394.677" x2="102.346" y2= "375.193" />
  <line fill="none" stroke="#644D36" stroke-width="1.41732" x1="125.484" y1="389.806" x2="106.304" y2= "373.366" />
  <line fill="none" stroke="#644D36" stroke-width="1.41732" x1="129.137" y1="389.501" x2="109.348" y2= "369.713" />
  <path fill="none" stroke="#644D36" stroke-width="1.41732" d="M136.443 391.024c-7.10363,-7.40807 -14.6132,-14.4102 -22.5286,-21.0064"/>
  <path fill="none" stroke="#644D36" stroke-width="1.41732" d="M138.27 389.197c-6.39298,-7.91547 -13.9025,-14.7147 -21.9198,-21.0064"/>
  <path fill="none" stroke="#644D36" stroke-width="2.83465" d="M139.916 390.03c4.81266,-4.44189 11.592,-4.75285 16.9067,0.048189 -2.67591,4.93625 -10.1245,4.78233 -16.9067,-0.048189z"/>
  <path fill="none" stroke="#644D36" stroke-width="2.83465" d="M146.614 397.337c4.81266,-4.44189 11.2876,-4.44841 16.6022,0.35263 -2.67591,4.93625 -9.82007,4.47789 -16.6022,-0.35263z"/>
  <path fill="none" stroke="#644D36" stroke-width="2.83465" d="M152.094 404.948c5.1171,-3.83301 11.2876,-3.23036 16.6022,1.57039 -2.67591,4.93654 -9.82007,3.26013 -16.6022,-1.57039z"/>
  <path fill="none" stroke="#644D36" stroke-width="2.83465" d="M158.183 411.95c5.1171,-3.83301 11.2876,-3.23036 16.6022,1.57039 -2.67591,4.93654 -9.82007,3.26013 -16.6022,-1.57039z"/>
  <path fill="none" stroke="#644D36" stroke-width="2.83465" d="M162.445 419.561c5.1171,-3.83329 11.592,-2.92621 16.9067,1.87484 -2.67591,4.93625 -10.1245,2.9554 -16.9067,-1.87484z"/>
  <path fill="none" stroke="#644D36" stroke-width="2.83465" d="M168.534 427.172c5.42126,-3.22384 10.0695,-2.31704 15.3845,2.48372 -2.67676,5.81868 -11.0375,3.72813 -15.3845,-2.48372z"/>
  <path fill="none" stroke="#644D36" stroke-width="2.83465" d="M159.782 374.838c4.6474,4.61481 3.42624,11.374 -1.13868,16.8928 -4.74407,-4.28542 -3.39194,-9.90681 1.13868,-16.8928z"/>
  <path fill="none" stroke="#644D36" stroke-width="2.83465" d="M163.74 380.318c4.64712,4.61481 5.25288,11.374 0.687969,16.8928 -4.61537,-2.24306 -3.91947,-9.25682 -0.687969,-16.8928z"/>
  <path fill="none" stroke="#644D36" stroke-width="2.83465" d="M170.742 389.147c4.46825,4.43509 4.47421,10.5962 0.687969,16.8928 -5.04822,-2.45849 -5.21859,-9.90652 -0.687969,-16.8928z"/>
  <path fill="none" stroke="#644D36" stroke-width="2.83465" d="M175.004 396.454c4.64712,4.61481 5.25288,11.374 0.687969,16.8928 -4.61509,-1.80964 -3.9189,-7.95714 -0.687969,-16.8928z"/>
  <path fill="none" stroke="#644D36" stroke-width="2.83465" d="M179.875 404.065c4.64712,4.61481 5.25288,11.374 0.687969,16.8928 -5.04822,-2.45849 -5.21859,-9.90652 -0.687969,-16.8928z"/>
  <path fill="none" stroke="#644D36" stroke-width="2.83465" d="M185.355 412.285c4.64712,4.61481 4.03512,11.9829 -0.529796,17.5017 -5.04822,-2.45849 -4.00082,-10.5154 0.529796,-17.5017z"/>
  <path fill="none" stroke="#644D36" stroke-width="2.83465" d="M143.391 375.256c6.54152,0.312662 11.5197,4.92492 11.8278,12.0804 -5.3949,1.55679 -10.5112,-3.85852 -11.8278,-12.0804z"/>
  <line fill="none" stroke="#644D36" stroke-width="1.41732" x1="144.094" y1="386.92" x2="124.305" y2= "369.567" />
  <line fill="none" stroke="#644D36" stroke-width="1.41732" x1="138.614" y1="389.356" x2="119.434" y2= "372.916" />
  <line fill="none" stroke="#644D36" stroke-width="1.41732" x1="145.007" y1="381.44" x2="122.783" y2= "361.956" />
  <line fill="none" stroke="#644D36" stroke-width="1.41732" x1="145.92" y1="376.569" x2="125.827" y2= "357.998" />
  <line fill="none" stroke="#644D36" stroke-width="1.41732" x1="149.574" y1="376.265" x2="129.48" y2= "354.65" />
  <path fill="none" stroke="#644D36" stroke-width="1.41732" d="M157.793 376.569c-7.10363,-7.40807 -14.6132,-16.5413 -22.5286,-23.1375"/>
  <path fill="none" stroke="#644D36" stroke-width="2.83465" d="M101.204 415.145c4.81266,-4.44189 10.679,-4.75285 15.9936,0.048189 -2.67591,4.93625 -9.21147,4.78233 -15.9936,-0.048189z"/>
  <path fill="none" stroke="#644D36" stroke-width="2.83465" d="M106.989 421.538c4.81266,-4.44189 10.9831,-5.05758 16.2978,-0.256536 -2.67591,4.93625 -9.51563,5.08677 -16.2978,0.256536z"/>
  <path fill="none" stroke="#644D36" stroke-width="2.83465" d="M112.164 427.322c5.1171,-3.83301 11.2876,-3.23036 16.6022,1.57039 -2.67591,4.93654 -9.82007,3.26013 -16.6022,-1.57039z"/>
  <path fill="none" stroke="#644D36" stroke-width="2.83465" d="M118.253 434.324c5.1171,-3.83301 11.2876,-3.23036 16.6022,1.57039 -2.67591,4.93654 -9.82007,3.26013 -16.6022,-1.57039z"/>
  <path fill="none" stroke="#644D36" stroke-width="2.83465" d="M123.733 442.24c5.1171,-3.83301 11.2876,-3.23036 16.6022,1.57039 -2.67591,4.93654 -9.82007,3.26013 -16.6022,-1.57039z"/>
  <path fill="none" stroke="#644D36" stroke-width="2.83465" d="M128.604 449.546c5.1171,-3.83301 11.2876,-3.23036 16.6022,1.57039 -2.67647,5.19506 -9.81893,3.82989 -16.6022,-1.57039z"/>
  <path fill="none" stroke="#644D36" stroke-width="2.83465" d="M117.721 400.257c4.64712,4.61481 5.25288,11.374 0.687969,16.8928 -5.04822,-2.45849 -5.21859,-9.90652 -0.687969,-16.8928z"/>
  <path fill="none" stroke="#644D36" stroke-width="2.83465" d="M123.506 405.432c4.64712,4.61481 5.25288,11.374 0.687969,16.8928 -5.04822,-2.45849 -5.21859,-9.90652 -0.687969,-16.8928z"/>
  <path fill="none" stroke="#644D36" stroke-width="2.83465" d="M129.29 410.608c4.64712,4.61481 5.25288,11.374 0.687969,16.8928 -5.04822,-2.45849 -5.21859,-9.90652 -0.687969,-16.8928z"/>
  <path fill="none" stroke="#644D36" stroke-width="2.83465" d="M134.161 417.61c4.64712,4.61481 5.25288,11.374 0.687969,16.8928 -5.04822,-2.45849 -5.21859,-9.90652 -0.687969,-16.8928z"/>
  <path fill="none" stroke="#644D36" stroke-width="2.83465" d="M139.945 426.439c4.64712,4.61481 5.25288,11.374 0.687969,16.8928 -5.04822,-2.45849 -5.21859,-9.90652 -0.687969,-16.8928z"/>
  <path fill="none" stroke="#644D36" stroke-width="2.83465" d="M145.425 434.659c4.64712,4.61481 5.25288,11.374 0.687969,16.8928 -5.04822,-2.45849 -5.21859,-9.90652 -0.687969,-16.8928z"/>
  <path fill="none" stroke="#644D36" stroke-width="2.83465" d="M103.766 401.893c6.54152,0.312662 11.5197,4.92492 11.8278,12.0804 -5.3949,1.55679 -10.5112,-3.85852 -11.8278,-12.0804z"/>
  <line fill="none" stroke="#644D36" stroke-width="1.41732" x1="105.99" y1="410.512" x2="86.8105" y2= "397.726" />
  <line fill="none" stroke="#644D36" stroke-width="1.41732" x1="102.337" y1="412.643" x2="86.5061" y2= "403.51" />
  <line fill="none" stroke="#644D36" stroke-width="1.41732" x1="104.164" y1="404.423" x2="88.9416" y2= "393.463" />
  <line fill="none" stroke="#644D36" stroke-width="1.41732" x1="105.99" y1="402.292" x2="92.8993" y2= "390.419" />
  <path fill="none" stroke="#644D36" stroke-width="2.83465" d="M183.023 430.297c22.5187,53.0819 35.4314,123.902 18.2665,182.056"/>
  <path fill="none" stroke="#644D36" stroke-width="2.83465" d="M169.932 429.688c33.1787,57.1609 40.3013,128.101 23.1375,184.187"/>
  <path fill="none" stroke="#644D36" stroke-width="2.83465" d="M150.143 443.083c35.2412,52.3585 45.7535,112.114 28.313,171.096"/>
  <path fill="none" stroke="#644D36" stroke-width="2.83465" d="M164.452 441.865c25.4373,49.3909 41.2373,111.158 21.3109,172.923"/>
  <path fill="none" stroke="#644D36" stroke-width="2.83465" d="M144.359 449.476c37.7042,53.5899 45.1582,105.575 26.7908,164.094"/>
  <path fill="none" stroke="#644D36" stroke-width="2.83465" d="M380.866 403.877c-3.89991,-2.1583 -8.75112,-3.58526 -14.7756,0.35263 2.67591,4.93654 7.99342,4.47789 14.7756,-0.35263z"/>
  <path fill="none" stroke="#644D36" stroke-width="2.83465" d="M374.169 411.487c-4.81266,-4.44189 -10.6787,-4.44813 -15.9934,0.352914 2.67591,4.93625 9.21119,4.47761 15.9934,-0.352914z"/>
  <path fill="none" stroke="#644D36" stroke-width="2.83465" d="M368.384 418.794c-5.1171,-3.83301 -10.3742,-2.92564 -15.6889,1.87512 2.67591,4.93654 8.90674,2.9554 15.6889,-1.87512z"/>
  <path fill="none" stroke="#644D36" stroke-width="2.83465" d="M361.991 426.405c-5.1171,-3.83329 -10.0698,-3.53509 -15.3845,1.26567 2.67591,4.93654 8.6023,3.56485 15.3845,-1.26567z"/>
  <path fill="none" stroke="#644D36" stroke-width="2.83465" d="M356.207 434.321c-5.1171,-3.83301 -9.76564,-3.5348 -15.0803,1.26595 2.67591,4.93654 8.29815,3.56457 15.0803,-1.26595z"/>
  <path fill="none" stroke="#644D36" stroke-width="2.83465" d="M351.336 441.627c-5.1171,-3.83301 -9.76536,-3.5348 -15.08,1.26595 2.67591,4.93654 8.29786,3.56457 15.08,-1.26595z"/>
  <path fill="none" stroke="#644D36" stroke-width="2.83465" d="M365.567 387.467c-4.64712,4.61481 -5.25288,11.374 -0.687969,16.8928 5.04822,-2.45849 5.21859,-9.90652 0.687969,-16.8928z"/>
  <path fill="none" stroke="#644D36" stroke-width="2.83465" d="M358.869 393.251c-4.64712,4.61481 -5.25288,11.374 -0.687969,16.8928 5.04822,-2.45849 5.21859,-9.90652 0.687969,-16.8928z"/>
  <path fill="none" stroke="#644D36" stroke-width="2.83465" d="M352.172 402.384c-4.64712,4.61481 -5.25288,11.374 -0.687969,16.8928 5.04822,-2.45849 5.21859,-9.90652 0.687969,-16.8928z"/>
  <path fill="none" stroke="#644D36" stroke-width="2.83465" d="M344.865 410.909c-4.64712,4.61481 -5.25288,11.374 -0.687969,16.8928 5.04822,-2.45849 5.21859,-9.90652 0.687969,-16.8928z"/>
  <path fill="none" stroke="#644D36" stroke-width="2.83465" d="M338.472 418.52c-4.64712,4.61481 -5.25288,11.374 -0.687969,16.8928 5.04822,-2.45849 5.21859,-9.90652 0.687969,-16.8928z"/>
  <path fill="none" stroke="#644D36" stroke-width="2.83465" d="M332.383 428.262c-4.64712,4.61481 -5.55704,10.7651 -0.992126,16.2839 5.04822,-2.45849 5.52274,-9.29793 0.992126,-16.2839z"/>
  <path fill="none" stroke="#644D36" stroke-width="2.83465" d="M379.522 390.016c-6.54152,0.312662 -10.6064,4.01159 -10.9145,11.1671 5.3949,1.55679 9.59783,-2.9452 10.9145,-11.1671z"/>
  <line fill="none" stroke="#644D36" stroke-width="1.41732" x1="376.689" y1="398.635" x2="401.044" y2= "380.064" />
  <line fill="none" stroke="#644D36" stroke-width="1.41732" x1="381.865" y1="402.897" x2="400.74" y2= "387.067" />
  <line fill="none" stroke="#644D36" stroke-width="1.41732" x1="379.734" y1="389.806" x2="398.609" y2= "376.107" />
  <line fill="none" stroke="#644D36" stroke-width="1.41732" x1="370.905" y1="392.546" x2="395.565" y2= "372.149" />
  <path fill="none" stroke="#644D36" stroke-width="1.41732" d="M366.034 389.806c7.10363,-7.40807 13.091,-12.2791 21.0064,-18.8753"/>
  <path fill="none" stroke="#644D36" stroke-width="2.83465" d="M361.039 390.944c-4.81266,-4.44189 -11.592,-4.75285 -16.9067,0.048189 2.67591,4.93625 10.1245,4.78233 16.9067,-0.048189z"/>
  <path fill="none" stroke="#644D36" stroke-width="2.83465" d="M354.645 398.555c-4.81266,-4.44189 -11.592,-4.75285 -16.9067,0.048189 2.67591,4.93625 10.1245,4.78233 16.9067,-0.048189z"/>
  <path fill="none" stroke="#644D36" stroke-width="2.83465" d="M348.861 405.862c-5.1171,-3.83301 -11.2876,-3.23036 -16.6022,1.57039 2.67591,4.93654 9.82007,3.26013 16.6022,-1.57039z"/>
  <path fill="none" stroke="#644D36" stroke-width="2.83465" d="M342.772 412.864c-5.1171,-3.83301 -11.2876,-3.23036 -16.6022,1.57039 2.67591,4.93654 9.82007,3.26013 16.6022,-1.57039z"/>
  <path fill="none" stroke="#644D36" stroke-width="2.83465" d="M337.292 420.78c-5.1171,-3.83301 -11.2876,-3.23036 -16.6022,1.57039 2.67591,4.93654 9.82007,3.26013 16.6022,-1.57039z"/>
  <path fill="none" stroke="#644D36" stroke-width="2.83465" d="M332.421 428.086c-5.42126,-3.22384 -10.0695,-2.31704 -15.3845,2.48372 2.67676,5.81868 11.0375,3.72813 15.3845,-2.48372z"/>
  <path fill="none" stroke="#644D36" stroke-width="2.83465" d="M343.304 376.362c-4.34211,4.00394 -4.7435,10.9641 -0.687969,17.5011 5.04822,-2.45849 5.21859,-10.5151 0.687969,-17.5011z"/>
  <path fill="none" stroke="#644D36" stroke-width="2.83465" d="M337.215 381.232c-4.64712,4.61481 -5.25288,11.374 -0.687969,16.8928 5.04822,-2.45849 5.21859,-9.90652 0.687969,-16.8928z"/>
  <path fill="none" stroke="#644D36" stroke-width="2.83465" d="M330.213 390.061c-4.46825,4.43509 -4.47421,10.5962 -0.687969,16.8928 5.04822,-2.45849 5.21859,-9.90652 0.687969,-16.8928z"/>
  <path fill="none" stroke="#644D36" stroke-width="2.83465" d="M324.733 398.89c-4.64712,4.61481 -5.59843,11.7193 -1.03323,17.2381 4.61509,-1.80964 4.26416,-8.3024 1.03323,-17.2381z"/>
  <path fill="none" stroke="#644D36" stroke-width="2.83465" d="M318.644 408.023c-4.16551,4.64996 -4.19046,11.4517 -0.687969,16.8928 5.04822,-2.45849 5.21859,-9.90652 0.687969,-16.8928z"/>
  <path fill="none" stroke="#644D36" stroke-width="2.83465" d="M312.86 413.807c-4.64712,4.61481 -4.03512,11.9829 0.529796,17.5017 5.04822,-2.45849 4.00082,-10.5154 -0.529796,-17.5017z"/>
  <path fill="none" stroke="#644D36" stroke-width="2.83465" d="M357.564 376.17c-6.54152,0.312662 -10.6061,4.31603 -10.9145,11.4715 5.3949,1.55679 9.59783,-3.24964 10.9145,-11.4715z"/>
  <line fill="none" stroke="#644D36" stroke-width="1.41732" x1="358.079" y1="387.834" x2="382.739" y2= "367.437" />
  <line fill="none" stroke="#644D36" stroke-width="1.41732" x1="355.948" y1="382.354" x2="379.999" y2= "362.566" />
  <line fill="none" stroke="#644D36" stroke-width="1.41732" x1="355.035" y1="377.483" x2="378.477" y2= "357.999" />
  <line fill="none" stroke="#644D36" stroke-width="1.41732" x1="351.381" y1="377.179" x2="374.215" y2= "354.65" />
  <path fill="none" stroke="#644D36" stroke-width="1.41732" d="M343.162 377.483c7.10363,-7.40807 19.4842,-19.8902 27.3997,-26.4864"/>
  <path fill="none" stroke="#644D36" stroke-width="2.83465" d="M400.664 417.276c-4.81266,-4.44189 -10.3742,-4.44841 -15.6889,0.35263 2.67591,4.93625 8.90674,4.47789 15.6889,-0.35263z"/>
  <path fill="none" stroke="#644D36" stroke-width="2.83465" d="M395.793 423.061c-4.81266,-4.44189 -11.592,-4.75285 -16.9067,0.048189 2.67591,4.42687 10.1242,4.47647 16.9067,-0.048189z"/>
  <path fill="none" stroke="#644D36" stroke-width="2.83465" d="M389.4 428.541c-5.52331,-3.02145 -12.3027,-2.72325 -17.2111,1.26595 2.67591,4.93654 10.429,3.56457 17.2111,-1.26595z"/>
  <path fill="none" stroke="#644D36" stroke-width="2.83465" d="M382.702 435.238c-5.1171,-3.83301 -11.2876,-3.23036 -16.6022,1.57039 2.67591,4.93654 9.82007,3.26013 16.6022,-1.57039z"/>
  <path fill="none" stroke="#644D36" stroke-width="2.83465" d="M377.222 443.154c-5.1171,-3.83301 -11.2876,-3.23036 -16.6022,1.57039 2.67591,4.93654 9.82007,3.26013 16.6022,-1.57039z"/>
  <path fill="none" stroke="#644D36" stroke-width="2.83465" d="M372.351 450.46c-5.1171,-3.83301 -11.2876,-3.23036 -16.6022,1.57039 2.67591,4.93654 9.82007,3.26013 16.6022,-1.57039z"/>
  <path fill="none" stroke="#644D36" stroke-width="2.83465" d="M387.8 399.649c-4.21484,4.00366 -4.56151,8.83389 -1.29685,15.3703 4.05014,-2.81424 5.96466,-8.8407 1.29685,-15.3703z"/>
  <path fill="none" stroke="#644D36" stroke-width="2.83465" d="M381.712 403.911c-4.64712,4.61481 -5.86177,9.54737 -1.29685,15.0661 5.04822,-2.45849 5.82747,-8.08016 1.29685,-15.0661z"/>
  <path fill="none" stroke="#644D36" stroke-width="2.83465" d="M375.014 410.609c-4.6474,4.61481 -5.55761,10.1563 -0.992693,15.675 5.04822,-2.45849 5.52331,-8.68904 0.992693,-15.675z"/>
  <path fill="none" stroke="#644D36" stroke-width="2.83465" d="M367.098 419.742c-4.6474,4.61452 -5.55733,10.156 -0.99241,15.6747 5.04822,-2.45849 5.52303,-8.68876 0.99241,-15.6747z"/>
  <path fill="none" stroke="#644D36" stroke-width="2.83465" d="M361.01 427.353c-4.64712,4.61481 -5.25288,11.374 -0.687969,16.8928 5.04822,-2.45849 5.21859,-9.90652 0.687969,-16.8928z"/>
  <path fill="none" stroke="#644D36" stroke-width="2.83465" d="M355.53 435.573c-4.64712,4.61481 -5.25288,11.374 -0.687969,16.8928 5.04822,-2.45849 5.21859,-9.90652 0.687969,-16.8928z"/>
  <path fill="none" stroke="#644D36" stroke-width="2.83465" d="M400.843 403.415c-6.5418,0.312662 -12.1292,3.70715 -12.4373,10.8627 3.85881,1.81502 11.2918,-3.28734 12.4373,-10.8627z"/>
  <line fill="none" stroke="#644D36" stroke-width="1.41732" x1="400.749" y1="405.337" x2="412.013" y2= "396.204" />
  <line fill="none" stroke="#644D36" stroke-width="1.41732" x1="396.791" y1="412.948" x2="414.144" y2= "401.075" />
  <line fill="none" stroke="#644D36" stroke-width="1.41732" x1="395.574" y1="404.119" x2="410.187" y2= "392.551" />
  <line fill="none" stroke="#644D36" stroke-width="1.41732" x1="390.094" y1="403.206" x2="404.707" y2= "391.333" />
  <path fill="none" stroke="#644D36" stroke-width="2.83465" d="M315.191 431.21c-19.9743,49.902 -37.7768,115.408 -24.5809,178.523"/>
  <path fill="none" stroke="#644D36" stroke-width="2.83465" d="M326.76 432.732c-33.1787,57.1609 -42.7383,125.057 -25.5745,181.142"/>
  <path fill="none" stroke="#644D36" stroke-width="2.83465" d="M348.375 443.996c-36.2772,52.8767 -50.4675,111.121 -30.7491,168.964"/>
  <path fill="none" stroke="#644D36" stroke-width="2.83465" d="M333.762 442.474c-27.8394,49.0224 -42.6765,110.105 -22.2242,172.314"/>
  <path fill="none" stroke="#644D36" stroke-width="2.83465" d="M355.074 451.608c-39.2576,54.1077 -51.3165,103.364 -29.5316,160.744"/>
  <line fill="none" stroke="#644D36" stroke-width="1.41732" x1="399.836" y1="416.297" x2="415.362" y2= "405.033" />
  <path fill="none" stroke="#644D36" stroke-width="3.40158" d="M390.043 412.335c-13.3441,12.2029 -24.2028,26.4609 -35.924,41.0995"/>
  <path fill="none" stroke="#644D36" stroke-width="3.40158" d="M369.95 401.679c-13.8535,12.2023 -24.8128,27.0695 -36.2285,41.7084"/>
  <path fill="none" stroke="#644D36" stroke-width="3.40158" d="M347.726 387.675c-14.0695,12.2029 -22.665,29.8094 -33.4885,44.4484"/>
  <path fill="none" stroke="#644D36" stroke-width="3.40158" d="M114.464 413.248c13.3441,14.7084 20.8542,24.3227 32.2708,39.2729"/>
  <path fill="none" stroke="#644D36" stroke-width="3.40158" d="M133.339 400.157c11.4653,13.5644 20.8023,26.9847 32.2708,43.5351"/>
  <path fill="none" stroke="#644D36" stroke-width="3.40158" d="M154.954 387.675c10.5871,12.786 19.6421,27.7362 28.6175,44.144"/>
  <path fill="#BF9F4F" d="M331.509 550.45l-159.445 1.62255c-4.05921,-4.97254 -4.18054,-10.6356 -1.74501,-15.6081 -2.53701,-4.26218 -4.54677,-7.83383 -2.82161,-13.0093 -2.13874,-4.55556 -3.97106,-7.69352 -1.21776,-15.5265l166.529 1.52221c3.97531,4.87106 1.53269,9.74212 -1.82665,14.6132 3.24737,2.63849 3.18671,7.87578 -0.872504,12.9498 3.86816,3.3446 2.42164,8.46114 1.39975,13.4362z"/>
  <line fill="none" stroke="#644D36" stroke-width="2.83465" x1="166.279" y1="507.929" x2="332.808" y2= "509.451" />
  <line fill="none" stroke="#644D36" stroke-width="2.83465" x1="167.233" y1="522.806" x2="332.199" y2= "523.456" />
  <line fill="none" stroke="#644D36" stroke-width="2.83465" x1="169.059" y1="536.769" x2="331.022" y2= "536.973" />
  <line fill="none" stroke="#644D36" stroke-width="2.83465" x1="172.063" y1="552.073" x2="331.509" y2= "550.796" />
  <line fill="none" stroke="#644D36" stroke-width="2.83465" x1="173.89" y1="523.151" x2="186.676" y2= "507.929" />
  <line fill="none" stroke="#644D36" stroke-width="2.83465" x1="194.592" y1="523.76" x2="207.378" y2= "508.538" />
  <line fill="none" stroke="#644D36" stroke-width="2.83465" x1="215.872" y1="523.456" x2="228.659" y2= "508.234" />
  <line fill="none" stroke="#644D36" stroke-width="2.83465" x1="235.699" y1="523.151" x2="248.485" y2= "507.929" />
  <line fill="none" stroke="#644D36" stroke-width="2.83465" x1="259.072" y1="523.76" x2="271.859" y2= "508.538" />
  <line fill="none" stroke="#644D36" stroke-width="2.83465" x1="276.768" y1="523.76" x2="289.554" y2= "508.538" />
  <line fill="none" stroke="#644D36" stroke-width="2.83465" x1="301.108" y1="524.064" x2="313.894" y2= "508.842" />
  <line fill="none" stroke="#644D36" stroke-width="2.83465" x1="173.281" y1="537.46" x2="186.067" y2= "522.238" />
  <line fill="none" stroke="#644D36" stroke-width="2.83465" x1="193.983" y1="536.851" x2="205.856" y2= "522.847" />
  <line fill="none" stroke="#644D36" stroke-width="2.83465" x1="215.887" y1="536.547" x2="227.456" y2= "522.847" />
  <line fill="none" stroke="#644D36" stroke-width="2.83465" x1="237.487" y1="536.851" x2="249.056" y2= "522.847" />
  <line fill="none" stroke="#644D36" stroke-width="2.83465" x1="259.087" y1="536.547" x2="270.656" y2= "522.847" />
  <line fill="none" stroke="#644D36" stroke-width="2.83465" x1="276.783" y1="536.547" x2="288.656" y2= "522.847" />
  <line fill="none" stroke="#644D36" stroke-width="2.83465" x1="298.687" y1="536.242" x2="310.256" y2= "522.847" />
  <line fill="none" stroke="#644D36" stroke-width="2.83465" x1="173.281" y1="551.464" x2="185.458" y2= "537.46" />
  <line fill="none" stroke="#644D36" stroke-width="2.83465" x1="194.881" y1="551.464" x2="207.667" y2= "536.242" />
  <line fill="none" stroke="#644D36" stroke-width="2.83465" x1="214.403" y1="552.073" x2="227.19" y2= "536.851" />
  <line fill="none" stroke="#644D36" stroke-width="2.83465" x1="238.081" y1="551.464" x2="250.867" y2= "536.242" />
  <line fill="none" stroke="#644D36" stroke-width="2.83465" x1="256.081" y1="551.464" x2="268.867" y2= "536.242" />
  <line fill="none" stroke="#644D36" stroke-width="2.83465" x1="277.681" y1="551.464" x2="290.467" y2= "536.242" />
  <line fill="none" stroke="#644D36" stroke-width="2.83465" x1="299.281" y1="551.464" x2="312.067" y2= "536.242" />
  <line fill="none" stroke="#644D36" stroke-width="2.83465" x1="214.403" y1="552.073" x2="227.19" y2= "536.851" />
  <path id="path1937_0" fill="none" stroke="black" stroke-width="0.992126" d="M0.378142 1.19027l499.276 -0.117638 -0.568347 415.158c-37.8369,306.839 -462.737,301.186 -498.457,0.483307l-0.250866 -415.524z"/>
 </g>
</svg>
