<?xml version="1.0" encoding="UTF-8"?>
<!DOCTYPE svg PUBLIC "-//W3C//DTD SVG 1.1//EN" "http://www.w3.org/Graphics/SVG/1.1/DTD/svg11.dtd">
<!-- Creator: CorelDRAW -->
<svg xmlns="http://www.w3.org/2000/svg" xml:space="preserve" width="500px" height="605px" shape-rendering="geometricPrecision" text-rendering="geometricPrecision" image-rendering="optimizeQuality" fill-rule="evenodd" clip-rule="evenodd"
viewBox="0 0 500 605"
 xmlns:xlink="http://www.w3.org/1999/xlink"
 xmlns:svg="http://www.w3.org/2000/svg"
 version="1.0">
 <g id="Layer_x0020_1">
  <metadata id="CorelCorpID_0Corel-Layer"/>
  <path id="path1937" fill="#BF9F4F" stroke="black" stroke-width="1.98425" d="M0.920126 1.96838l494.221 0.0405355 -1.50406 289.228c-7.80548,144.593 -103.104,267.05 -239.674,312.372 -131.317,-36.4261 -233.63,-137.45 -245.713,-311.205l-7.33011 -290.436z"/>
  <polygon id="path1937_0" fill="black" stroke="black" stroke-width="1.98425" points="0.920126,1.96838 498.713,2.00891 493.637,291.237 8.25024,292.405 "/>
  <path fill="#BF9F4F" d="M271.369 22.0507c1.70334,0.185386 3.81714,0.770457 3.68986,5.2852 -0.248599,8.81689 2.47181,34.0186 -8.03112,35.6927l-1.72658 134.544c-0.0442205,9.73446 2.00778,16.1609 9.68344,20.5112 0.527244,19.5126 0.513638,42.3754 -0.273543,71.0796l-43.2459 0.547087c-1.32718,-28.3958 -2.54325,-49.7393 -2.64444,-67.246 5.51282,-6.70536 4.64315,-6.94687 8.587,-24.6019l-3.45487 -134.834c-8.31629,-1.74501 -7.39106,-30.3185 -7.83978,-35.4056 -0.122173,-1.38756 0.83367,-5.13808 3.63175,-5.28548 2.53531,-0.530929 39.4773,-0.736725 41.6242,-0.286866z"/>
  <path fill="black" d="M274.503 292.366c-2.17644,79.3591 -7.79471,186.554 -8.08611,289.927 0.0430866,14.6458 -21.2961,15.8465 -21.2511,0.288284 -2.42674,-88.4226 -10.334,-207.235 -14.2192,-290.244l43.5563 0.0294803z"/>
  <path fill="#BF9F4F" d="M221.358 88.2882c-91.4973,-3.89339 -110.613,53.464 -160.634,67.7214 -17.8166,5.07827 -29.571,3.41292 -36.5791,-4.22164 -13.6417,0.564945 -11.9018,-14.9403 -4.51276,-17.5966 10.0749,-0.528095 13.2902,8.85629 20.1946,8.96599 5.19081,0.0824882 36.3492,-11.6566 58.0136,-32.4652 34.0866,-32.7399 63.8697,-50.9366 130.09,-49.3555l51.7405 -2.59427c83.5373,-0.749197 96.2099,23.0956 129.087,48.1008 36.9286,28.0863 73.1135,42.0877 77.7694,26.4827 3.76866,1.45474 16.4285,32.5355 -46.5622,14.3252 -45.3578,-13.1128 -69.9815,-65.1039 -159.198,-59.3618l-59.4091 -0.00113386z"/>
  <path fill="black" d="M278.284 76.2849c74.6564,-2.80035 98.3121,21.5977 117.611,36.3784 20.2142,15.482 32.059,25.3704 71.0754,34.5827 1.4451,0.015874 1.19055,-2.89191 2.6949,-2.96192 -27.7588,-5.39377 -48.2678,-15.3748 -67.2993,-30.4214 -28.1682,-22.2701 -53.6599,-43.4415 -124.678,-41.1514l0.595843 3.57364z"/>
  <path fill="black" d="M222.069 76.8612c-63.9956,-3.37663 -97.3401,30.5459 -105.222,36.6667 -21.4923,16.691 -31.4827,30.2684 -70.4991,39.481 -1.4451,0.0155906 -1.19027,-2.89219 -2.69462,-2.96221 27.7588,-5.39377 47.3661,-19.9522 67.2991,-35.608 12.4339,-9.76564 40.6942,-42.865 111.712,-40.5749l-0.595843 2.99736z"/>
  <path fill="#CCCCCC" stroke="black" stroke-width="2.83465" d="M47.6 158.936l-9.79626 4.89799c71.6349,41.4451 143.402,82.3604 215.808,120.726 78.3468,-43.471 222.169,-113.942 228.774,-129.658 -4.0337,0.192189 -5.47455,2.11323 -9.50826,2.30514l-221.282 117.556c-68.2869,-37.2388 -135.709,-76.9785 -203.995,-115.827z"/>
  <path fill="#CCCCCC" stroke="black" stroke-width="2.83465" d="M463.657 153.173l7.49141 -15.8471c0.672378,-1.24866 6.53074,-0.191906 5.76255,1.72857l-6.91512 15.5591c-1.15257,2.59285 -7.39531,0.383811 -6.33884,-1.44057z"/>
  <path fill="#CCCCCC" stroke="black" stroke-width="2.83465" d="M483.538 154.614c-11.3338,-0.960378 -18.057,0.76904 -20.1691,5.18627 5.95446,5.95474 12.6771,4.22561 20.1691,-5.18627z"/>
  <path fill="#CCCCCC" stroke="black" stroke-width="2.83465" d="M454.149 165.563l11.5251 3.45742c3.45742,1.53666 6.33884,-3.26551 4.89799,-4.89799l-10.9488 -4.03399c-4.32199,-0.384095 -8.06769,2.68951 -5.47427,5.47455z"/>
  <path fill="#CCCCCC" stroke="black" stroke-width="2.83465" d="M446.946 171.902l11.5251 3.45742c3.4577,1.53666 6.33884,-3.26551 4.89827,-4.89799l-10.9488 -4.03399c-4.32199,-0.384095 -8.06769,2.68951 -5.47455,5.47455z"/>
  <path fill="#CCCCCC" stroke="black" stroke-width="2.83465" d="M54.5151 176.511c-2.11266,-1.92076 -0.191906,-6.43465 -3.16942,-12.1014 0.288567,-3.26495 2.11323,-4.22532 5.47455,-2.88114 3.75449,5.38299 3.8469,8.83843 3.7457,12.6777 -0.000283465,1.72885 -4.51474,3.36132 -6.05084,2.30485z"/>
  <path fill="#CCCCCC" stroke="black" stroke-width="2.83465" d="M46.1594 173.63c-2.11295,-1.92076 1.24866,-7.01122 -1.72885,-12.6777 0.288567,-3.26523 0.672662,-3.07304 4.03399,-1.72885 3.17821,4.23043 2.98262,8.26243 2.59314,11.8134 -0.288567,0.864567 -3.36217,3.64961 -4.89827,2.59314z"/>
  <path fill="#CCCCCC" stroke="black" stroke-width="2.83465" d="M30.3123 137.902c4.80784,8.88917 7.96536,18.7696 8.93197,29.9653 1.82466,3.93732 3.07304,3.55323 4.89827,-1.72885 0.768473,-8.64426 -1.63276,-17.2882 -5.47455,-25.9316 -3.16942,-3.4577 -5.95503,-4.22618 -8.35569,-2.30485z"/>
  <path fill="#CCCCCC" stroke="black" stroke-width="2.83465" d="M37.8037 158.648c-5.95474,1.24838 -12.7738,-3.26551 -16.9997,-2.30514 3.36132,11.2371 9.41216,13.6378 18.1522,7.20341l-1.15257 -4.89827z"/>
  <path fill="#CCCCCC" d="M249.694 290.177c2.09169,97.5518 2.89871,193.217 4.31178,290.003 -0.192189,2.30485 2.59285,0.864 3.4577,0.288 -1.73962,-98.2475 -0.474803,-193.629 0.0456378,-290.291l-7.81512 0.000283465z"/>
  <path fill="#BF9F4F" stroke="black" stroke-width="2.83465" d="M220.765 61.5484l0 37.4565c0,2.20904 6.62712,2.40123 6.91512,0.576284l-0.288 -38.0327c0.0958111,-1.72885 -6.43522,-1.15257 -6.62712,0z"/>
  <path fill="#BF9F4F" stroke="black" stroke-width="2.83465" d="M227.968 61.8364l0 39.4736c0,3.74542 6.05055,3.07304 6.33884,-0.288l0 -38.8973c0.0955276,-2.21074 -6.14722,-1.72999 -6.33884,-0.288284z"/>
  <path fill="#BF9F4F" stroke="black" stroke-width="2.83465" d="M278.898 61.2601l0 37.4567c0,2.20876 -6.33884,2.68923 -6.62684,0.864284l0 -38.321c-0.0960945,-1.72857 6.43493,-1.15257 6.62684,0z"/>
  <path fill="#BF9F4F" stroke="black" stroke-width="2.83465" d="M271.695 60.9721l0 39.7616c0,3.74542 -6.05055,3.36104 -6.33884,0l0 -39.4736c-0.0955276,-2.21074 6.14722,-1.7297 6.33884,-0.288z"/>
  <path fill="black" stroke="black" stroke-width="0.216" d="M236.036 57.5144c-2.11295,-8.64369 -2.78504,-17.2877 -2.88114,-25.9314 0.0232441,-1.39266 0.360851,-4.03257 2.88114,-4.03399l29.6765 0c2.20876,0.192473 2.40151,1.72942 2.3057,3.4577 0.0955276,8.69216 1.05562,19.5438 -1.72828,26.6516 -10.5435,-4.09493 -20.5744,-3.8194 -30.2539,-0.144z"/>
  <path fill="black" stroke="black" stroke-width="0.216" d="M267.926 57.8478c-6.15912,-10.3297 -12.4849,-18.6256 -17.0138,-30.5867 -4.52948,13.4359 -10.2447,21.8682 -16.4033,28.7892 -1.52816,1.73254 -0.290551,8.16038 2.96731,5.10577 4.98785,-1.9338 7.20794,-5.44734 13.1114,-5.54911 4.37698,0.610583 7.31509,1.90176 11.0809,4.03909 1.49244,3.71254 6.86807,-0.780095 6.25748,-1.7983z"/>
  <path fill="#CCCCCC" stroke="black" stroke-width="0.216" d="M264.272 54.6333c-5.47852,-6.37342 -9.84473,-15.5098 -14.1182,-26.7959 -4.27351,12.6777 -7.73093,21.418 -13.542,27.9485 -1.4417,1.63474 -1.63332,6.33997 1.44057,3.45742 4.70636,-1.82466 6.17159,-5.37818 11.742,-5.47455 2.63424,-0.15874 4.45238,0.0839056 11.8491,4.3577 3.24057,4.29704 5.46322,-0.195874 2.62857,-3.49314z"/>
  <polyline fill="none" stroke="black" stroke-width="2.83465" points="247.344,55.3553 249.002,264.391 242.375,268.424 240.934,226.07 248.426,218.578 "/>
  <line fill="none" stroke="black" stroke-width="2.83465" x1="240.934" y1="235.866" x2="248.137" y2= "231.256" />
  <line fill="none" stroke="black" stroke-width="2.83465" x1="241.799" y1="244.222" x2="249.183" y2= "239.971" />
  <line fill="none" stroke="black" stroke-width="2.83465" x1="241.799" y1="255.242" x2="248.461" y2= "251.532" />
  <polyline fill="none" stroke="black" stroke-width="2.83465" points="254.105,56.1096 255.186,262.95 262.425,267.777 262.389,226.934 254.61,217.714 "/>
  <line fill="none" stroke="black" stroke-width="2.83465" x1="262.101" y1="235.29" x2="255.475" y2= "229.527" />
  <line fill="none" stroke="black" stroke-width="2.83465" x1="261.813" y1="244.51" x2="254.898" y2= "239.9" />
  <line fill="none" stroke="black" stroke-width="2.83465" x1="262.389" y1="255.459" x2="254.5" y2= "250.091" />
  <line fill="none" stroke="black" stroke-width="2.83465" x1="249.002" y1="264.679" x2="249.29" y2= "272.746" />
  <line fill="none" stroke="black" stroke-width="2.83465" x1="255.052" y1="262.95" x2="255.052" y2= "272.458" />
  <path fill="black" d="M227.959 519.505c-16.2062,-5.01959 -25.7556,-8.50139 -32.8014,-21.3843 -3.73805,-6.83405 -3.07899,-17.6261 -0.966615,-27.303 1.75039,-8.0178 4.76958,-15.1812 4.67292,-19.5063 -0.277228,-12.3525 -9.34923,-22.1003 -5.23134,-31.9876 3.63345,-8.72391 20.5988,-17.5578 19.3365,-28.3867 -17.1252,-10.8624 -14.8725,-20.8868 -8.36363,-28.1137 5.0624,-5.62167 14.5894,-7.5413 11.2462,-13.3968 -8.03481,0.656221 -15.1211,4.63125 -21.6201,10.6651 -14.2903,-28.2195 -0.507969,-42.7805 -3.4594,-61.1124 -19.3229,2.79411 -21.5306,35.3257 -19.3142,75.8143 -6.66369,-5.28038 -9.64942,-22.6605 -12.3724,-36.9125 -3.83584,-20.0755 3.96255,-20.5186 0.84189,-26.5059 -20.6124,8.15386 -21.1884,39.2145 -12.9725,75.8138 -16.7145,-16.9112 -10.9551,-45.6358 -19.8902,-49.2931 -14.8717,14.8085 -6.65405,49.7594 16.7193,80.4266 -7.80463,0.839906 -16.742,-13.1547 -22.9051,-26.8314 -4.49802,-9.98023 -6.30681,-18.9833 -11.1101,-25.9214 -12.2995,14.4136 -7.11071,38.8205 23.6378,77.8326 -15.5665,-8.84041 -24.2144,-28.0582 -36.3218,-42.0871 -7.64221,15.7564 0.524977,38.2411 42.0871,75.5263 -19.1526,-11.6084 -24.2042,-7.61896 -30.598,-16.2003 -4.25169,-5.70586 -8.57311,-7.38227 -13.2188,-7.14983 -2.05342,11.7927 4.13944,24.2359 39.7812,42.9523 -2.82898,10.9239 -24.5395,14.1874 -19.8768,21.9011 4.02435,6.65802 19.787,-0.5743 34.8667,-8.64057 -4.70495,26.3458 -0.284882,37.637 10.3768,38.628 -0.598677,-11.7346 1.56444,-22.0884 8.64908,-29.9801 7.42507,24.7371 21.0209,42.1268 34.592,37.4749 -9.46205,-15.205 -14.5545,-28.2251 -13.2602,-38.0515 19.8887,9.65509 34.494,12.8251 37.4749,1.7297z"/>
  <path fill="white" d="M187.054 411.624c10.3728,-45.0442 -7.49112,-40.2421 -11.2368,-74.6252 1.15228,35.824 19.0162,32.4624 11.2368,74.6252z"/>
  <path fill="white" d="M155.072 391.743c-6.62655,-8.35541 -8.45122,-19.4 -10.9488,-32.8468 3.55181,16.2337 5.47144,25.7443 12.1014,31.9825l-1.15257 0.864284z"/>
  <path fill="white" d="M166.021 398.37c-6.33855,-10.3723 -10.7561,-22.2812 -13.254,-35.7279 4.13008,15.6552 9.02835,27.0845 14.6948,34.2873l-1.44085 1.44057z"/>
  <path fill="white" d="M150.174 408.743c-8.83588,-15.7221 -12.4183,-18.7948 -14.4062,-30.5416 4.00649,15.7779 11.3032,21.0662 15.5588,29.6771l-1.15257 0.864567z"/>
  <path fill="white" d="M147.869 415.082c-8.83616,-15.7221 -10.1135,-16.2017 -14.6945,-26.2199 7.128,12.1771 11.1594,18.0414 15.8471,25.3554l-1.15257 0.864567z"/>
  <path fill="white" d="M142.683 438.996c-10.1324,-13.1275 -11.1217,-14.184 -14.6945,-26.2196 5.90344,13.8098 10.0792,19.4822 15.8468,25.3554l-1.15228 0.864284z"/>
  <path fill="white" d="M124.242 444.471c-8.02035,-9.51931 -10.5455,-7.88854 -15.8471,-22.4742 6.76829,13.8104 11.9044,15.7368 16.9994,21.6096l-1.15228 0.864567z"/>
  <path fill="white" d="M144.987 485.961c-6.91512,-2.30514 -11.8131,-4.32199 -17.2877,-9.50826 2.13251,3.96199 6.11575,7.75559 16.7114,10.9488l0.576284 -1.44057z"/>
  <path fill="white" d="M147.581 498.927c-0.211181,2.61695 -5.83115,5.83484 -12.9657,9.22026 5.76255,-1.48819 11.0449,-3.69695 15.2708,-7.49141l-2.30514 -1.72885z"/>
  <path fill="white" d="M179.851 513.334c-3.36161,-10.1806 -5.95503,-21.8985 -7.77941,-35.1516 -0.096378,13.2534 2.49676,24.9707 7.77941,35.1516z"/>
  <path fill="white" d="M173.224 457.149c-1.34504,-9.98873 -2.3057,-20.3613 -2.88142,-31.1179 -0.840756,10.0125 -0.120473,20.3366 2.88142,31.1179z"/>
  <path fill="white" d="M169.478 463.775c-1.34504,-9.98845 -2.3057,-20.3613 -2.88142,-31.1179 -0.840756,10.0128 -0.120189,20.3369 2.88142,31.1179z"/>
  <path fill="white" d="M163.428 467.809c0.489544,-4.80643 -2.39584,-8.26215 -5.76255,-11.5251 6.86665,2.54523 8.11503,7.44322 5.76255,11.5251z"/>
  <path fill="white" d="M160.546 500.944c-2.49732,4.80218 -3.07332,11.5248 -1.72885,20.1691 -2.47266,-7.01178 -2.61666,-13.7344 0.288,-20.7454l1.44085 0.576284z"/>
  <path fill="white" d="M173.8 518.232c-3.36132,-10.1809 -4.80246,-10.0851 -6.62684,-23.3385 0.672095,14.0219 2.11266,13.9255 6.62684,23.3385z"/>
  <path fill="white" d="M174.088 420.556l-3.7457 -8.35569c2.40095,2.01657 3.64904,4.80189 3.7457,8.35569z"/>
  <path fill="black" d="M289.025 517.199c16.2062,-5.01959 18.8374,-6.1954 25.8832,-19.078 3.73748,-6.83405 3.07871,-17.6264 0.966331,-27.303 -1.74983,-8.0178 -9.9584,-20.9466 -9.86174,-25.2717 0.277228,-12.3525 13.9609,-21.524 9.8436,-31.411 -3.63317,-8.72334 -22.3285,-17.5578 -21.066,-28.3867 17.1252,-10.8624 16.0254,-17.428 9.51676,-24.6546 -5.0624,-5.62111 -13.4362,-5.81159 -10.0933,-11.6671 8.03481,0.656221 15.1214,4.63125 21.6204,10.6651 14.2903,-28.2195 0.507685,-42.7805 3.45912,-61.1124 19.3232,2.79411 23.2603,34.7491 21.0439,75.2381 6.66369,-5.28066 7.34315,-16.3188 10.0661,-30.5708 3.83613,-20.0755 -3.96255,-33.2025 -0.84189,-39.1898 20.6127,8.15386 20.0356,44.4033 11.8196,81.0026 16.7145,-16.9112 10.3785,-51.9775 19.3136,-55.6348 14.8717,14.8085 11.8429,47.4531 -11.5305,78.1203 7.80463,0.839906 13.8594,-2.77767 20.0225,-16.4537 4.49717,-9.97994 7.45994,-22.4425 12.2633,-29.3806 12.2993,14.4136 5.38101,39.3971 -25.3678,78.4089 15.5667,-8.84013 27.6738,-30.3642 39.7812,-44.3931 7.64221,15.7564 0.628158,36.5114 -40.934,73.7966 19.1523,-11.6084 12.6734,-2.43014 24.8326,-11.0115 4.25169,-5.70586 13.7619,-10.8414 18.4076,-10.6092 3.20627,13.5224 -11.058,25.9659 -46.6997,44.6823 2.82898,10.9239 26.2687,4.38662 21.6065,12.1 -4.02378,6.65717 -14.0216,12.6859 -29.1013,4.61962 4.70466,26.3458 -6.63364,31.8716 -17.2953,32.8626 0.598677,-11.7346 3.62438,-18.629 -3.46025,-26.5207 -7.42507,24.7368 -23.3272,44.4328 -36.8983,39.7809 9.46234,-15.205 14.5545,-28.2251 13.2605,-38.0515 -17.0062,5.04284 -27.5757,10.5188 -30.5566,-0.576567z"/>
  <path fill="white" d="M320.706 411.624c-10.3728,-45.0442 7.49112,-40.2421 11.2368,-74.6252 -1.15257,35.824 -19.0165,32.4624 -11.2368,74.6252z"/>
  <path fill="white" d="M352.688 391.743c6.62655,-8.35541 8.45093,-19.4 10.9488,-32.8468 -3.55181,16.2337 -5.47144,25.7443 -12.1014,31.9825l1.15257 0.864284z"/>
  <path fill="white" d="M341.739 398.37c6.33855,-10.3723 10.7561,-22.2812 13.2537,-35.7279 -4.1298,15.6552 -9.02807,27.0845 -14.6945,34.2873l1.44085 1.44057z"/>
  <path fill="white" d="M357.586 408.743c8.83616,-15.7221 12.4186,-18.7948 14.4065,-30.5416 -4.00649,15.7779 -11.3032,21.0662 -15.5588,29.6771l1.15228 0.864567z"/>
  <path fill="white" d="M359.891 415.082c8.83616,-15.7221 10.1135,-16.2017 14.6945,-26.2199 -7.128,12.1771 -11.1594,18.0414 -15.8471,25.3554l1.15257 0.864567z"/>
  <path fill="white" d="M365.078 438.996c10.1324,-13.1275 11.1217,-14.184 14.6945,-26.2196 -5.90372,13.8098 -10.0792,19.4822 -15.8471,25.3554l1.15257 0.864284z"/>
  <path fill="white" d="M383.518 444.471c8.02035,-9.51931 10.5455,-7.88854 15.8471,-22.4742 -6.76829,13.8104 -11.9044,15.7368 -16.9997,21.6096l1.15257 0.864567z"/>
  <path fill="white" d="M362.773 485.961c6.91484,-2.30514 11.8131,-4.32199 17.2877,-9.50826 -2.13251,3.96199 -6.11575,7.75559 -16.7114,10.9488l-0.576284 -1.44057z"/>
  <path fill="white" d="M360.18 498.927c0.211181,2.61695 5.83115,5.83484 12.9657,9.22026 -5.76255,-1.48819 -11.0449,-3.69695 -15.2708,-7.49141l2.30514 -1.72885z"/>
  <path fill="white" d="M327.909 513.334c3.36161,-10.1806 5.95503,-21.8985 7.77941,-35.1516 0.096378,13.2534 -2.49676,24.9707 -7.77941,35.1516z"/>
  <path fill="white" d="M334.536 457.149c1.34504,-9.98873 2.3057,-20.3613 2.88142,-31.1179 0.840756,10.0125 0.120189,20.3366 -2.88142,31.1179z"/>
  <path fill="white" d="M338.282 463.775c1.34504,-9.98845 2.3057,-20.3613 2.88142,-31.1179 0.840756,10.0128 0.120189,20.3369 -2.88142,31.1179z"/>
  <path fill="white" d="M344.333 467.809c-0.489544,-4.80643 2.39584,-8.26215 5.76255,-11.5251 -6.86665,2.54523 -8.11503,7.44322 -5.76255,11.5251z"/>
  <path fill="white" d="M347.214 500.944c2.49732,4.80218 3.07332,11.5248 1.72885,20.1691 2.47238,-7.01178 2.61666,-13.7344 -0.288284,-20.7454l-1.44057 0.576284z"/>
  <path fill="white" d="M333.96 518.232c3.36161,-10.1809 4.80274,-10.0851 6.62712,-23.3385 -0.672378,14.0219 -2.11266,13.9255 -6.62712,23.3385z"/>
  <path fill="white" d="M333.672 420.556l3.7457 -8.35569c-2.40095,2.01657 -3.64932,4.80189 -3.7457,8.35569z"/>
 </g>
</svg>
