<?xml version="1.0" encoding="UTF-8" standalone="no"?>
<!-- Created with Inkscape (http://www.inkscape.org/) -->
<svg
   xmlns:dc="http://purl.org/dc/elements/1.1/"
   xmlns:cc="http://creativecommons.org/ns#"
   xmlns:rdf="http://www.w3.org/1999/02/22-rdf-syntax-ns#"
   xmlns:svg="http://www.w3.org/2000/svg"
   xmlns="http://www.w3.org/2000/svg"
   xmlns:sodipodi="http://sodipodi.sourceforge.net/DTD/sodipodi-0.dtd"
   xmlns:inkscape="http://www.inkscape.org/namespaces/inkscape"
   version="1.0"
   width="500"
   height="568"
   id="svg4872"
   sodipodi:version="0.32"
   inkscape:version="0.46"
   sodipodi:docname="Rovaniemi.vaakuna.svg"
   inkscape:output_extension="org.inkscape.output.svg.inkscape">
  <metadata
     id="metadata11">
    <rdf:RDF>
      <cc:Work
         rdf:about="">
        <dc:format>image/svg+xml</dc:format>
        <dc:type
           rdf:resource="http://purl.org/dc/dcmitype/StillImage" />
      </cc:Work>
    </rdf:RDF>
  </metadata>
  <sodipodi:namedview
     inkscape:window-height="718"
     inkscape:window-width="1024"
     inkscape:pageshadow="2"
     inkscape:pageopacity="0.0"
     guidetolerance="10.0"
     gridtolerance="10.0"
     objecttolerance="10.0"
     borderopacity="1.0"
     bordercolor="#666666"
     pagecolor="#ffffff"
     id="base"
     showgrid="false"
     inkscape:zoom="0.40669014"
     inkscape:cx="253.46395"
     inkscape:cy="346.21865"
     inkscape:window-x="-8"
     inkscape:window-y="-8"
     inkscape:current-layer="svg4872" />
  <defs
     id="defs4874">
    <inkscape:perspective
       sodipodi:type="inkscape:persp3d"
       inkscape:vp_x="0 : 284 : 1"
       inkscape:vp_y="0 : 1000 : 0"
       inkscape:vp_z="500 : 284 : 1"
       inkscape:persp3d-origin="250 : 189.33333 : 1"
       id="perspective13" />
  </defs>
  <g
     id="layer1">
    <path
       d="M 1.2324316,0.85018663 L 500.23243,0.85018663 L 500.23243,330.35019 C 500.23243,460.35019 350.73243,567.85019 250.73243,567.85019 C 150.73243,567.85019 1.2324316,460.35019 1.2324316,330.35019 L 1.2324316,0.85018663 z "
       style="fill:#008021;fill-opacity:1;fill-rule:evenodd;stroke:rgb(0, 0, 0);stroke-width:0.50000000000000000;stroke-linecap:butt;stroke-linejoin:miter;stroke-opacity:1;stroke-miterlimit:4;stroke-dasharray:none"
       id="path11078" />
    <path
       d="M 1.3125,0.5 L 0.90625,170.71875 L 113.46875,314.875 L 124.46875,270.34375 L 180.5625,352.3125 L 180.5625,553.4375 C 204.67464,562.54066 228.48817,567.5 250,567.5 C 272.79553,567.5 298.16731,561.91532 323.75,551.75 L 323.75,352.3125 L 378.8125,269.3125 L 391.84375,320.9375 L 499.5,174.21875 L 499.5,0.5 L 453.21875,0.5 L 366.8125,128.625 L 357.78125,83.0625 L 251.65625,222.75 L 143.5,79.03125 L 136.5,133.6875 L 52.84375,0.5 L 1.3125,0.5 z "
       style="fill:rgb(210, 211, 211);fill-opacity:1;fill-rule:evenodd;stroke:rgb(0, 0, 0);stroke-width:0.5;stroke-linecap:butt;stroke-linejoin:miter;stroke-opacity:1;stroke-miterlimit:4;stroke-dasharray:none"
       id="path4897" />
    <g
       transform="matrix(0.945488, 0, 0, 0.921491, 17.4939, 5.76773)"
       style="fill: rgb(232, 195, 0); fill-opacity: 1;"
       id="g11093">
      <path
         d="M 216.17065,111.1445 C 216.4996,111.80239 216.8169,113.97711 217.16112,115.35401 C 217.42815,116.4221 217.65636,117.44376 217.65636,118.82066 C 217.65636,120.45507 218.01565,122.23875 218.39922,123.77302 C 218.722,125.06415 218.64683,126.63646 218.64683,127.98253 C 218.64683,129.17125 219.37501,130.89524 219.63731,131.94442 C 219.95411,133.21163 220.68073,134.77413 221.12301,135.6587 C 221.91521,137.24308 222.88366,138.65743 224.09443,139.86821 C 225.49596,141.26973 226.74598,142.25151 228.55156,143.33486 C 230.21683,144.33402 231.85194,145.85171 233.2563,146.5539 C 235.49127,147.67138 236.03058,148.40141 238.95152,149.2777 C 241.08959,149.91912 243.10689,150.51579 245.38959,150.51579 C 247.27852,150.51579 249.01518,150.88019 250.83719,150.51579 C 252.607,150.16183 254.38818,149.93756 256.03718,149.52531 C 256.36733,149.44277 256.69749,149.36023 257.02765,149.2777 C 258.56733,148.89277 260.69293,148.80695 262.22763,148.0396 C 263.76934,147.26875 265.31495,146.37214 266.93237,145.56342 C 268.37993,144.83965 269.96736,144.01415 270.89426,143.08724 C 271.95292,142.02858 272.8204,141.65634 273.86568,140.61106 C 274.92729,139.54945 275.97044,139.00154 276.8371,138.13488 C 277.72282,137.24916 278.5714,136.15296 279.31328,135.41108 C 280.28913,134.43523 280.83464,132.61598 281.29423,131.69681 C 282.14906,129.98714 282.37604,128.36001 282.77994,126.74444 C 283.1312,125.3394 283.27517,123.76594 283.27517,122.28732 C 283.27517,120.80693 283.52279,119.36279 283.52279,117.83019 C 283.52279,116.18945 283.76686,115.36111 284.26565,114.36353 C 284.92891,113.03701 285.0085,111.69149 285.0085,110.15403 C 285.0085,108.38997 285.25731,106.93261 285.99897,105.44928 C 286.65817,104.13088 286.88011,102.62364 287.7323,101.48739 C 288.61211,100.3143 289.31819,98.265531 289.71324,97.277882 C 290.23991,95.961221 290.88874,94.926899 291.44657,93.811228 C 292.10692,92.490538 292.80673,91.586152 293.42752,90.344574 C 294.11657,88.96646 294.62796,87.943688 295.16084,86.877919 C 295.74795,85.703704 296.10191,84.846989 296.39893,83.658883 C 296.76464,82.196064 297.2751,81.144715 297.63703,79.696993 C 298.01004,78.204917 298.13226,76.934194 298.13226,75.487484 C 298.13226,74.061249 298.22119,72.624155 297.88464,71.277975 C 297.43858,69.493724 297.25059,67.612477 296.89417,65.830376 C 296.62946,64.506811 295.73257,63.412524 295.40846,62.116104 C 295.01459,60.540632 294.09413,59.830201 293.67514,58.154213 C 293.31533,56.714989 292.4568,56.272047 292.18943,54.935177 C 291.87228,53.349457 291.69419,52.403035 291.69419,50.725668 C 291.69419,49.026576 291.86863,47.624914 292.18943,46.020923 C 292.45914,44.672358 293.14901,43.420674 293.42752,42.306651 C 293.80869,40.781975 294.85174,39.458203 295.65608,37.849524 C 296.18753,36.786619 296.80922,35.543248 297.38941,34.38287 C 297.95821,33.245267 298.13226,31.801725 298.13226,30.420979 C 298.13226,29.384548 298.37988,27.917096 298.37988,26.706707 C 298.37988,25.12706 297.80852,23.507973 298.13226,22.001962 C 298.49669,20.306657 297.30817,18.263792 297.01903,17.107207 C 296.55217,15.239761 293.71792,11.757054 294.59099,14.462383 C 295.16124,16.229381 295.6475,19.537217 294.91323,20.516253 C 294.03297,21.689924 293.40951,22.762819 292.43704,23.735289 C 291.46974,24.702595 290.51502,26.152546 289.71324,26.954325 C 288.44657,28.221004 287.75929,28.908284 286.74183,29.925743 C 285.56039,31.10718 284.52272,32.144849 283.52279,33.144779 C 282.34401,34.323563 281.32578,35.073136 280.55137,36.363815 C 279.87796,37.486163 279.28643,38.150837 278.57043,39.582851 C 277.80227,41.119161 277.21648,42.027209 276.8371,43.544742 C 276.48835,44.939749 276.1915,45.879524 275.84663,47.259014 C 275.55937,48.408026 275.84663,50.031149 275.84663,51.220905 C 275.84663,52.851885 275.59901,54.694786 275.59901,56.420886 C 275.59901,57.906595 275.59901,59.392304 275.59901,60.878013 C 275.59901,62.74494 275.35139,64.588168 275.35139,66.325612 C 275.35139,68.285017 274.81585,69.769212 274.1133,71.525594 C 273.46427,73.148162 272.74271,74.779402 272.37997,76.230339 C 271.99885,77.754845 270.72893,79.284806 270.15141,80.439847 C 269.56209,81.618486 268.2587,83.075408 267.67523,83.658883 C 266.7276,84.606507 267.0986,83.436891 266.18531,84.350181 C 265.32357,85.211918 265.89213,84.501285 266.43714,83.411265 C 267.19894,81.887669 267.31122,80.905404 267.67523,79.449375 C 268.1215,77.664306 268.41808,75.844616 268.41808,74.001775 C 268.41808,72.433527 268.41808,70.865278 268.41808,69.29703 C 268.41808,67.822364 267.70355,66.191277 267.42761,65.087521 C 267.03897,63.532969 266.32319,62.650781 265.9419,61.125631 C 265.65188,59.965555 264.39372,58.524496 263.96096,57.658977 C 263.34894,56.434944 262.28772,55.483241 261.98001,53.944704 C 261.81145,53.101901 260.77335,51.531388 260.24668,50.47805 C 259.55687,49.098423 259.88481,46.230324 260.24668,44.782832 C 260.68823,43.016665 261.55101,41.794083 261.98001,40.078087 C 262.37268,38.50743 262.72287,37.733742 262.72287,35.868579 C 262.72287,33.964879 262.88858,33.064788 262.47525,31.411452 C 262.05709,29.738806 258.96561,27.406579 257.52288,25.963852 C 256.3706,24.811569 254.92947,23.865676 254.05623,22.992435 C 253.05383,21.990031 252.58492,19.809401 252.07528,18.535308 C 251.58404,17.307184 251.82767,15.663233 251.82767,14.325799 C 251.82767,13.197709 253.08056,12.082437 253.56099,11.601999 C 253.84047,11.322519 251.66546,12.797384 251.08481,13.087708 C 250.14282,13.558704 249.16343,14.172207 248.36101,14.573417 C 247.15359,15.177128 245.8811,16.06286 245.14198,16.801981 C 243.89414,18.049814 243.13025,19.339717 242.41818,20.763871 C 241.8357,21.928817 241.86812,23.020769 242.17056,24.230525 C 242.51517,25.608975 242.87784,26.883176 243.40865,27.944798 C 244.0258,29.179096 244.0515,30.020981 244.39912,31.411452 C 244.67357,32.509225 243.15123,34.650097 242.66579,35.620961 C 241.92767,37.097208 240.92714,38.102466 239.69438,39.335233 C 238.4972,40.532406 238.19657,41.745001 237.2182,43.049505 C 236.40658,44.131657 236.27665,45.776291 235.9801,47.259014 C 235.60195,49.14977 235.48487,50.619649 235.48487,52.706614 C 235.48487,54.472322 235.64325,55.97471 235.9801,57.658977 C 236.35456,59.531231 236.86986,61.667047 237.71343,63.354194 C 238.57044,65.068215 239.07698,66.824156 239.94199,68.554176 C 240.52937,69.728925 240.93247,71.625337 240.93247,73.258921 C 240.93247,74.768323 241.05565,76.232844 240.68485,77.716047 C 240.31952,79.177371 239.53555,80.7575 238.95152,81.925556 C 238.28122,83.266157 237.08467,84.040025 235.9801,85.144592 C 235.39646,85.728234 234.5793,86.270367 233.99916,85.490241 C 232.47112,83.435463 232.26732,83.212476 231.21504,81.107908 C 230.51013,79.698093 229.7461,77.993771 228.73885,76.650781 C 228.11831,75.82339 227.40932,73.945981 227.00553,72.936509 C 226.48136,71.626098 225.90723,70.16204 225.20977,69.032226 C 223.76089,66.685205 223.41287,65.827929 222.85634,63.601812 C 222.48425,62.113453 221.86587,62.298496 221.86587,60.58791 C 221.86587,59.2655 221.93703,57.989725 222.21605,56.873638 C 222.57075,55.454818 222.85634,53.687821 222.85634,52.211377 C 222.85634,50.432132 223.35158,48.809135 223.35158,47.011396 C 223.35158,44.991277 223.05909,43.803996 222.36111,42.059033 C 221.75558,40.54523 221.37524,39.339837 220.13254,38.097142 C 218.84721,36.811806 217.2767,35.2413 215.92303,33.887634 C 214.58077,32.545374 213.02304,31.403119 211.71352,30.420979 C 210.47322,29.490751 209.54955,28.257005 208.74211,27.449561 C 207.64296,26.35041 207.27904,26.009128 206.51354,24.478144 C 205.88973,23.230525 205.64474,22.488642 205.27545,21.011489 C 204.98865,19.864267 205.31973,18.1106 205.52307,17.297217 C 205.96333,15.536166 206.25278,16.072268 205.02783,17.297217 C 204.3143,18.010747 203.16798,18.815916 202.55165,19.278162 C 201.5431,20.03458 200.77745,20.804743 199.82785,21.754344 C 199.08028,22.501914 198.79355,24.158236 198.58976,24.97338 C 198.30019,26.131666 198.82215,27.883861 199.085,28.93527 C 199.38803,30.147402 199.98404,30.733362 200.57071,31.906688 C 201.30453,33.374338 202.19457,34.411562 202.79927,35.620961 C 203.31241,36.647235 204.05989,37.376813 204.78022,38.097142 C 205.37243,38.689359 206.00056,39.794981 206.51354,40.820942 C 206.91626,41.62638 207.75928,42.561912 208.49449,43.297124 C 208.939,43.741633 209.26576,45.639356 209.48496,46.51616 C 209.57025,46.857294 209.48496,47.39058 209.48496,47.75425"
         style="fill:rgb(232, 195, 0);fill-opacity:1;fill-rule:evenodd;stroke:rgb(0, 0, 0);stroke-width:0.53566891;stroke-linecap:butt;stroke-linejoin:miter;stroke-opacity:1;stroke-miterlimit:4;stroke-dasharray:none"
         id="path11089" />
      <path
         d="M 209.48496,46.020923 C 209.8306,46.92385 209.02408,49.10255 208.74211,50.230432 C 208.38169,51.672104 207.63681,52.68865 207.00878,53.944704 C 206.8437,54.274862 206.67862,54.605019 206.51354,54.935177 C 205.85837,56.245527 205.4654,57.031462 204.78022,58.401831 C 204.13593,59.690397 203.4473,61.257302 203.04689,62.858958 C 202.66923,64.369604 202.31822,65.745271 202.05642,67.316085 C 201.79112,68.907862 201.56118,70.639432 201.56118,72.268448 C 201.56118,73.754157 201.56118,75.239866 201.56118,76.725575 C 201.56118,78.581716 202.12488,79.970836 202.55165,81.677938 C 202.92268,83.162035 203.15055,84.609061 203.78974,85.887447 C 204.42697,87.161903 204.97958,88.762358 205.52307,89.849337 C 206.3773,91.557789 206.94175,92.686697 207.75163,94.306464 C 208.44642,95.696035 209.08784,96.483648 209.73258,97.773118 C 210.59695,99.501857 211.32452,100.88631 211.96114,102.47786 C 212.40624,103.5906 213.4009,105.26547 213.69447,106.43975 C 214.03108,107.78619 214.55131,109.23299 215.4278,110.40164 C 216.06145,111.24651 216.49105,113.30738 216.91351,114.36353 C 217.13993,114.92959 217.2295,115.73837 217.40874,116.09686"
         style="fill:rgb(232, 195, 0);fill-opacity:1;fill-rule:evenodd;stroke:rgb(0, 0, 0);stroke-width:0.53566891;stroke-linecap:butt;stroke-linejoin:miter;stroke-opacity:1;stroke-miterlimit:4;stroke-dasharray:none"
         id="path11091" />
    </g>
  </g>
</svg>
