<?xml version="1.0" encoding="UTF-8"?>
<!DOCTYPE svg PUBLIC "-//W3C//DTD SVG 1.1//EN" "http://www.w3.org/Graphics/SVG/1.1/DTD/svg11.dtd">
<!-- Creator: CorelDRAW -->
<svg xmlns="http://www.w3.org/2000/svg" xml:space="preserve" width="500px" height="570px" shape-rendering="geometricPrecision" text-rendering="geometricPrecision" image-rendering="optimizeQuality" fill-rule="evenodd" clip-rule="evenodd"
viewBox="0 0 500 570"
 xmlns:xlink="http://www.w3.org/1999/xlink"
 xmlns:svg="http://www.w3.org/2000/svg"
 version="1.0">
 <g id="Layer_x0020_1">
  <metadata id="CorelCorpID_0Corel-Layer"/>
  <path id="path1937" fill="#0581ED" stroke="black" stroke-width="2.83465" d="M1.34787 1.91707l497.207 -0.121323 -35.5042 319.009c-16.1204,154.158 -114.468,209.134 -213.698,247.375 -113.396,-40.4235 -196.558,-90.3504 -220.342,-247.195l-27.6633 -319.067z"/>
  <path fill="black" d="M262.402 344.986l0.586772 -27.3186c-0.880158,-12.0288 75.6936,-159.309 76.2804,-180.139 -26.4538,29.6688 -50.3161,79.2754 -73.6399,142.586 0.659055,-9.99553 0.26504,-33.8548 3.5314,-51.3326 2.27962,-12.1986 14.6582,-43.3137 21.1034,-63.0046 10.8142,-33.0378 17.1397,-58.2798 16.7326,-61.6944 -0.303874,-2.54863 -11.6175,-21.856 -23.0377,-44.919 -10.7277,-21.6652 -22.0686,-47.007 -25.9577,-45.4439 -0.684567,5.67213 24.1554,75.5958 35.7931,110.9 -11.571,23.5803 -19.2458,47.8094 -26.1114,72.1729 -8.17966,-34.2595 -11.7054,-65.1952 6.74788,-72.1729 -9.51789,1.19934 -7.8429,-2.62488 -3.22725,-6.16111 -10.5131,5.86772 -14.8827,12.4401 -14.8158,9.68174 0.24463,-10.0729 15.5495,-21.515 13.3489,-23.7643 -6.00718,4.65109 -8.91071,5.61317 -9.85749,4.0921 -3.51355,-5.64605 6.03837,-17.2148 3.10961,-19.6416 -3.32504,-0.880158 -7.88911,15.3825 -8.21481,14.3759 -3.22725,-9.97512 4.88977,-16.1362 4.1074,-20.2436 -1.57691,-0.586772 -6.57723,5.61402 -6.72095,3.32788 -0.111685,-1.77874 3.57931,-8.90221 2.90693,-11.8361 -1.79688,-0.947339 -6.65348,6.77084 -8.40728,5.55166 -2.25525,-1.56728 3.38315,-17.0121 -1.56784,-19.9276 -1.86548,0.362551 -4.8532,16.9472 -7.45342,16.124 -5.66986,-1.79462 1.33682,-22.1752 -3.40186,-20.2314l-1.50661 6.52252 -3.30435 -9.46404 -3.69723 -2.04605 0.880158 12.909 -7.04126 -8.50819 2.0537 -8.80158c-1.95591,1.85811 -3.52063,2.34709 -4.69418,1.46693 -1.17354,-0.880158 -0.195591,-5.76992 -2.34709,-6.74788l-7.04126 10.8553 -1.46693 -19.6569 -2.93386 4.98756 -2.34709 2.0537 1.17354 7.62804c-4.69418,-4.69418 -2.0537,-13.4958 -10.5619,-15.2561l0.293386 10.2685 -9.97512 -5.28095c2.83606,10.7575 6.84567,8.60599 11.7354,12.909l0 2.93386 -11.4421 -2.0537c4.00961,4.00961 0.977953,3.91181 5.86772,4.69418l9.97512 7.92142 2.93386 3.81402c-7.13878,-2.83578 -10.366,-5.96523 -16.723,-4.1074 4.00961,5.86772 7.72583,-1.17354 23.7643,24.6444l-2.0537 0.586772c-4.35317,-3.60822 -6.41877,-9.40848 -10.4553,-12.1898 -3.71651,-2.56082 -0.968032,0.710646 -10.3751,-3.65301 -0.166394,4.03087 8.46879,4.24772 6.5418,10.332 -4.86964,-0.901418 -4.50766,-1.90035 -8.5955,-1.23704 3.45714,6.41169 6.62089,2.84825 13.3053,6.61918l-0.0782363 3.68589c-5.77814,0.966048 -10.3827,0.856063 -9.99978,2.89729 2.64047,4.2052 11.4421,-6.55229 30.5121,8.50819l0 5.57433c-8.80158,-8.46057 -17.6029,-8.85147 -26.4047,-5.57433 0.684567,4.05865 12.4781,-1.69455 13.2024,5.42807 0.185102,1.82268 -10.1707,-1.7606 -14.9627,0.146268 1.80936,3.96085 13.288,1.5205 13.6429,3.37436 0.538583,2.81084 -12.909,4.73953 -10.4156,7.48092 11.3689,-3.3497 20.9041,-4.37613 29.9254,0.880158l-0.880158 4.98756 -17.3098 -7.04126 -3.52063 7.04126 -11.7354 2.34709c0.962646,2.27821 4.64202,2.6297 9.60747,2.32951 0.0484725,3.48236 1.29232,4.31292 1.96668,4.25622 0.674079,-0.0566929 1.36743,-4.52325 2.07496,-4.59355 1.75465,-3.30265 19.8148,0.34441 30.6522,5.92923l0.293386 4.69418c-5.95559,-6.57128 -14.7609,-5.39008 -25.2312,-4.98756 3.20769,2.44517 -0.886678,4.89005 -3.52063,7.33465l9.77415 2.85789c-3.45345,3.25276 -16.2955,2.69121 -13.8816,7.99739 3.76469,1.20076 8.11616,0.0541418 12.1742,0.0810709 -0.244063,4.47166 -5.1823,9.82347 -0.732189,13.4147 2.78731,-10.2195 3.68192,-13.3532 5.13468,-12.4685 4.25339,2.59115 -0.587055,12.9087 4.54706,15.6957 -3.52035,-19.3632 12.2247,-28.4582 27.8717,-14.9627 1.66252,15.6473 8.01922,31.8813 8.80158,46.9418 -3.9617,13.2517 -3.08126,25.6717 0,38.1402 -2.44488,22.0039 -3.42284,44.8881 -5.57433,67.1854l0.293386 34.9129 9.97512 2.38082z"/>
  <path fill="#CCCCCC" d="M254.858 344.907c-9.87733,-56.3301 -9.64971,-132.351 -17.4733,-164.917 -1.05109,-2.00466 -23.7884,1.32038 -24.0576,4.1074 -13.8869,44.8881 -29.2408,96.8174 -29.632,144.933 0.391181,3.81402 4.30299,2.34709 3.81402,0l29.632 -97.9909 21.5807 114.161 16.1362 -0.293386z"/>
  <path fill="black" d="M254.107 342.819c-9.87733,-56.3301 -8.89937,-130.263 -16.723,-162.829 -1.63786,-0.831119 -4.71827,-0.146551 -4.98756,0.586772 -5.12022,13.9995 -47.1206,125.863 -44.8881,148.453l29.632 -97.9909 4.54281 11.6799 -1.49698 -19.9613 6.01937 -15.569 3.528 31.0691 -0.836221 -38.0291 5.61402 -14.0885c7.70542,51.444 7.78281,112.57 19.5956,156.679z"/>
  <path fill="black" d="M238.851 315.241c0.674363,8.35654 1.24923,16.6629 3.52063,25.818l1.17354 -2.0537 -4.69418 -23.7643z"/>
  <path fill="black" d="M242.959 315.241l2.34709 25.5246 2.64047 -1.46693c-2.34199,-8.01978 -3.51525,-16.0387 -4.98756,-24.0576z"/>
  <path fill="#CCCCCC" d="M259.682 345.2l-0.293386 -25.8517c-0.880158,-12.0288 76.8671,-159.895 77.4539,-180.726 -26.4538,29.6688 -51.4897,74.5813 -74.8134,137.891 0.659055,-9.99553 0.264756,-30.0405 3.5314,-47.5186 2.27991,-12.1989 14.9516,-41.8468 21.3968,-61.5376 10.8142,-33.0378 17.1403,-58.2795 16.7326,-61.6944 -0.304158,-2.5492 -12.4977,-26.5502 -23.9179,-49.6131 -10.7277,-21.6652 -20.6016,-42.6062 -24.4908,-41.0431 -0.990709,3.01238 3.50929,22.7534 14.2322,45.8893 7.06281,20.4146 15.2257,43.4744 20.6807,60.0231 -11.571,23.5803 -19.2458,47.8094 -26.1114,72.1729 -8.17966,-34.6584 -10.5324,-62.9768 7.92142,-68.6523 -8.73553,3.93732 -5.59333,-0.180284 -1.76032,-6.45449 -9.92637,7.62804 -15.4695,10.093 -15.4026,7.33465 0.24463,-10.0729 15.5495,-21.515 13.3489,-23.7643 -6.00718,4.65109 -8.91071,5.61317 -9.85749,4.0921 -3.51355,-5.64605 6.03837,-17.2148 3.10961,-19.6416 -3.32504,-0.880158 -7.88911,15.3825 -8.21481,14.3759 -3.22725,-9.97512 4.88977,-16.1362 4.1074,-20.2436 -1.57691,-0.586772 -6.57723,5.6143 -6.72095,3.32788 -0.111969,-1.77874 3.57931,-8.90221 2.90693,-11.8361 -1.79688,-0.947339 -6.6532,6.77084 -8.40728,5.55166 -2.25525,-1.56756 3.38315,-17.0121 -1.56784,-19.9276 -1.86548,0.362551 -4.85292,16.9472 -7.45342,16.124 -5.66986,-1.7949 1.33682,-22.1752 -3.40186,-20.2314l-1.50661 6.52252 -3.30435 -9.46404 -3.69723 -2.04605 1.17354 18.1899 -8.21481 -10.2685 2.93386 -12.3222c-1.95591,1.85811 -3.52063,2.34709 -4.69418,1.46693 -1.17354,-0.880158 -0.195591,-5.76992 -2.34709,-6.74788l-7.04126 10.8553 -2.34709 -18.1899 -1.76032 4.69418 -2.64047 0.880158 1.17354 7.62804c-4.69418,-4.69418 -6.74788,-11.7354 -14.0825,-14.0825l3.81402 9.09497 -12.909 -5.28095c2.83606,10.7575 9.77953,8.60599 14.6693,12.909l0 2.93386 -19.0701 -0.586772c4.00961,4.00961 9.77953,2.44488 14.6693,3.22725l11.7354 8.80158 0 2.93386c-7.13878,-2.83578 -13.8867,-3.32476 -20.2436,-1.46693 4.00961,5.86772 14.4737,-5.57433 30.5121,20.2436l-3.52063 2.34709c-1.34986,-5.61118 -4.5224,-9.40111 -8.98838,-11.8964 -3.94073,-2.20195 -4.19528,0.41726 -13.6023,-3.9464 -0.166394,4.03087 8.46879,4.24772 6.5418,10.332 -4.86964,-0.901418 -9.49522,-1.31358 -13.5831,-0.650268 3.45714,6.41169 11.6084,2.26148 18.2928,6.03241l-0.0782363 3.68589c-5.77814,0.966048 -14.1968,2.61638 -13.8138,4.65761 2.64047,4.2052 15.2561,-8.3126 34.3262,6.74788l0 5.57433c-8.80158,-8.46057 -17.6029,-8.85147 -26.4047,-5.57433 0.684567,4.05865 12.4781,-1.69484 13.2024,5.42807 0.185386,1.82268 -10.1707,-1.7606 -14.9627,0.146268 1.80936,3.96085 13.2877,1.5205 13.6429,3.37436 0.538583,2.81112 -12.909,4.73953 -10.4156,7.48092 11.3689,-3.3497 20.9041,-4.37613 29.9254,0.880158l-0.880158 4.98756 -13.7891 -4.40079 -6.16111 7.33465 -11.7354 2.34709c0.962646,2.27821 4.64202,2.6297 9.60747,2.32951 0.0484725,3.48236 1.29203,4.3132 1.96668,4.25622 0.674363,-0.0569764 1.36743,-4.52325 2.07496,-4.59355 1.75465,-3.30265 22.1618,-2.58945 30.3588,1.23506l-0.293386 6.45449c-5.95559,-6.57128 -14.7609,-5.39008 -25.2312,-4.98756 3.20769,2.44517 -0.886678,4.89005 -3.52063,7.33465l9.77415 2.85789c-3.45345,3.25276 -16.2955,2.69121 -13.8816,7.99739 3.76469,1.20076 8.11616,0.0541418 12.1742,0.0810709 -0.244063,4.47166 -5.1823,9.82347 -0.732189,13.4147 2.78731,-10.2195 3.68192,-13.3535 5.13468,-12.4685 4.25367,2.59115 -0.587055,12.9087 4.54706,15.6957 -3.52035,-19.3632 12.2247,-28.4582 27.8717,-14.9627 1.66252,15.6473 5.96551,31.0011 6.74788,46.0616 -3.9617,13.2517 -3.08126,25.6717 0,38.1402 -2.44488,22.0039 -3.42284,44.8881 -5.57433,67.1854l0.880158 39.0203 10.2685 2.08743z"/>
  <path fill="black" d="M254.694 340.765c-0.415559,-8.38574 -0.36652,-17.2364 0,-26.4047 -1.1245,5.72117 -2.00466,11.6867 -2.34709,18.1899l2.34709 8.21481z"/>
  <path fill="black" d="M255.868 339.885c-1.02132,-14.4405 1.34929,-23.7935 3.52063,-33.446 -1.76485,11.4429 -3.13767,22.7886 -1.76032,33.446l-1.76032 0z"/>
  <path fill="black" d="M288.434 231.039l21.7106 -41.074c-9.31465,13.2752 -16.3072,27.0156 -21.7106,41.074z"/>
  <path fill="black" d="M274.938 265.365l9.68174 -22.2973c-1.83175,8.36221 -5.4995,15.501 -9.68174,22.2973z"/>
  <path fill="black" d="M292.209 127.81c-6.3567,20.9282 -14.546,44.8625 -21.1961,64.9106 3.61786,-21.9552 11.3176,-45.3028 21.1961,-64.9106z"/>
  <path fill="black" d="M238.265 137.742l3.81402 -0.293386c3.03137,4.79169 4.88948,9.19248 5.57433,13.2024 -2.4446,-4.30299 -5.37874,-8.60656 -9.38835,-12.909z"/>
  <polygon fill="black" points="252.347,131.581 253.227,137.449 254.401,131.581 "/>
  <polygon fill="black" points="241.785,104.296 240.612,89.627 242.665,89.3336 "/>
  <polygon fill="black" points="250.293,120.433 250,106.643 251.76,103.71 "/>
  <polygon fill="black" points="243.252,118.379 244.132,124.247 245.306,118.379 "/>
  <path fill="black" d="M232.397 82.5857c-2.69008,-3.76441 -3.76555,-10.2189 -4.1074,-17.8965l2.0537 -0.293386c-0.0980788,6.84567 0.586488,12.909 2.0537,18.1899z"/>
  <path fill="black" d="M225.062 82.2924c-2.69008,-3.76441 -4.05893,-8.45859 -4.40079,-16.1362l2.0537 -0.293386c-0.0980788,6.84567 0.879874,11.1487 2.34709,16.4296z"/>
  <polygon fill="black" points="203.645,50.0199 207.459,59.1149 205.699,50.0199 "/>
  <line fill="none" stroke="black" stroke-width="0.992126" x1="205.992" y1="147.131" x2="211.566" y2= "146.544" />
  <line fill="none" stroke="black" stroke-width="0.992126" x1="206.872" y1="138.916" x2="211.566" y2= "140.089" />
  <line fill="none" stroke="black" stroke-width="0.992126" x1="208.633" y1="134.222" x2="211.566" y2= "134.808" />
  <line fill="none" stroke="black" stroke-width="0.992126" x1="205.405" y1="126.007" x2="211.273" y2= "127.18" />
  <line fill="none" stroke="black" stroke-width="0.992126" x1="202.178" y1="121.019" x2="205.112" y2= "121.899" />
  <line fill="none" stroke="black" stroke-width="0.992126" x1="193.377" y1="127.474" x2="198.657" y2= "127.18" />
  <line fill="none" stroke="black" stroke-width="0.992126" x1="193.67" y1="106.35" x2="195.137" y2= "107.524" />
  <line fill="none" stroke="black" stroke-width="0.992126" x1="191.323" y1="115.152" x2="194.55" y2= "113.978" />
  <line fill="none" stroke="black" stroke-width="0.992126" x1="195.137" y1="100.189" x2="198.364" y2= "101.069" />
  <line fill="none" stroke="black" stroke-width="0.992126" x1="186.042" y1="91.6807" x2="192.496" y2= "92.2675" />
  <line fill="none" stroke="black" stroke-width="0.992126" x1="185.162" y1="81.4122" x2="187.215" y2= "82.8791" />
  <line fill="none" stroke="black" stroke-width="0.992126" x1="184.282" y1="62.9289" x2="187.802" y2= "63.809" />
  <line fill="none" stroke="white" stroke-width="0.992126" x1="198.951" y1="130.994" x2="198.657" y2= "133.635" />
  <line fill="none" stroke="white" stroke-width="0.992126" x1="255.868" y1="82.8791" x2="253.227" y2= "87.8667" />
  <line fill="none" stroke="white" stroke-width="0.992126" x1="251.174" y1="74.6643" x2="248.533" y2= "81.7056" />
  <line fill="none" stroke="white" stroke-width="0.992126" x1="243.546" y1="59.7016" x2="243.252" y2= "68.2098" />
  <line fill="none" stroke="white" stroke-width="0.992126" x1="233.57" y1="56.7678" x2="232.69" y2= "64.6892" />
  <line fill="none" stroke="white" stroke-width="0.992126" x1="212.74" y1="40.6315" x2="213.914" y2= "46.4993" />
  <line fill="none" stroke="white" stroke-width="0.992126" x1="203.058" y1="35.644" x2="203.938" y2= "45.3257" />
  <polyline fill="none" stroke="white" stroke-width="0.992126" points="217.728,48.2596 214.794,53.8339 217.728,60.2884 "/>
  <line fill="none" stroke="white" stroke-width="0.992126" x1="242.665" y1="75.5445" x2="243.839" y2= "79.9453" />
  <line fill="none" stroke="white" stroke-width="0.992126" x1="265.256" y1="105.176" x2="261.735" y2= "108.99" />
  <line fill="none" stroke="white" stroke-width="0.992126" x1="189.562" y1="106.35" x2="192.79" y2= "106.35" />
  <line fill="none" stroke="white" stroke-width="0.992126" x1="183.695" y1="93.441" x2="185.455" y2= "92.5609" />
  <line fill="none" stroke="white" stroke-width="0.992126" x1="188.976" y1="43.272" x2="191.616" y2= "45.0323" />
  <line fill="none" stroke="white" stroke-width="0.992126" x1="188.389" y1="51.7802" x2="193.083" y2= "54.7141" />
  <path fill="black" d="M127.068 360.411l2.64047 -41.5698c-0.880158,-12.0288 55.1566,-155.495 55.7433,-176.325 -26.4538,29.6688 -33.2997,74.2879 -56.6235,137.598 0.659055,-9.99553 0.26504,-33.8548 3.5314,-51.3326 2.27962,-12.1986 14.6582,-43.3137 21.1034,-63.0046 10.8142,-33.0378 17.1397,-58.2798 16.7326,-61.6944 -0.303874,-2.54863 -11.6175,-21.856 -23.0377,-44.919 -10.7277,-21.6652 -28.4465,-41.692 -32.3357,-40.129 -0.684567,5.67213 27.3444,59.6509 38.9821,94.955 -11.571,23.5803 -16.0569,58.4394 -22.9224,82.8029 -8.17966,-34.2595 -9.65169,-69.596 8.80158,-76.5737 -9.51789,1.19934 -7.8429,-2.62488 -3.22725,-6.16111 -10.5131,5.86772 -14.8827,12.4401 -14.8158,9.68174 0.24463,-10.0729 13.4958,-17.1142 11.2952,-19.3635 -6.00718,4.65109 -8.91071,5.61317 -9.85749,4.0921 -3.51355,-5.64605 6.03837,-17.2148 3.10961,-19.6416 -3.32504,-0.880158 -7.88911,15.3825 -8.21481,14.3759 -3.22725,-9.97512 4.88977,-16.1362 4.1074,-20.2436 -1.57691,-0.586772 -6.57723,5.61402 -6.72095,3.32788 -0.111685,-1.77874 3.57931,-8.90221 2.90693,-11.8361 -1.79688,-0.947339 -6.65348,6.77084 -8.40728,5.55166 -2.25525,-1.56728 3.38315,-17.0121 -1.56784,-19.9276 -1.86548,0.362551 -4.8532,16.9472 -7.45342,16.124 -5.66986,-1.79462 1.33682,-22.1752 -3.40186,-20.2314l-1.50661 6.52252 -3.30435 -9.46404 -3.69723 -2.04605 0.880158 12.909 -7.04126 -8.50819 2.0537 -8.80158c-1.95591,1.85811 -3.52063,2.34709 -4.69418,1.46693 -1.17354,-0.880158 -0.195591,-5.76992 -2.34709,-6.74788l-7.04126 10.8553 -1.46693 -19.6569 -2.93386 4.98756 -2.34709 2.0537 1.17354 7.62804c-4.69418,-4.69418 -2.0537,-13.4958 -10.5619,-15.2561l0.293386 10.2685 -9.97512 -5.28095c2.83606,10.7575 6.84567,8.60599 11.7354,12.909l0 2.93386 -11.4421 -2.0537c4.00961,4.00961 0.977953,3.91181 5.86772,4.69418l9.97512 7.92142 2.93386 3.81402c-7.13878,-2.83578 -10.366,-5.96523 -16.723,-4.1074 4.00961,5.86772 7.72583,-1.17354 23.7643,24.6444l-2.0537 0.586772c-4.35317,-3.60822 -6.41877,-9.40848 -10.4553,-12.1898 -3.71651,-2.56082 -0.968032,0.710646 -10.3751,-3.65301 -0.166394,4.03087 8.46879,4.24772 6.5418,10.332 -4.86964,-0.901418 -4.50766,-1.90035 -8.5955,-1.23704 3.45714,6.41169 6.62089,2.84825 13.3053,6.61918l-0.0782363 3.68589c-5.77814,0.966048 -10.3827,0.856063 -9.99978,2.89729 2.64047,4.2052 11.4421,-6.55229 30.5121,8.50819l0 5.57433c-8.80158,-8.46057 -17.6029,-8.85147 -26.4047,-5.57433 0.684567,4.05865 12.4781,-1.69455 13.2024,5.42807 0.185102,1.82268 -10.1707,-1.7606 -14.9627,0.146268 1.80936,3.96085 13.288,1.5205 13.6429,3.37436 0.538583,2.81084 -12.909,4.73953 -10.4156,7.48092 11.3689,-3.3497 20.9041,-4.37613 29.9254,0.880158l-0.880158 4.98756 -17.3098 -7.04126 -3.52063 7.04126 -11.7354 2.34709c0.962646,2.27821 4.64202,2.6297 9.60747,2.32951 0.0484725,3.48236 1.29232,4.31292 1.96668,4.25622 0.674079,-0.0566929 1.36743,-4.52325 2.07496,-4.59355 1.75465,-3.30265 19.8148,0.34441 30.6522,5.92923l0.293386 4.69418c-5.95559,-6.57128 -14.7609,-5.39008 -25.2312,-4.98756 3.20769,2.44517 -0.886678,4.89005 -3.52063,7.33465l9.77415 2.85789c-3.45345,3.25276 -16.2955,2.69121 -13.8816,7.99739 3.76469,1.20076 8.11616,0.0541418 12.1742,0.0810709 -0.244063,4.47166 -5.1823,9.82347 -0.732189,13.4147 2.78731,-10.2195 3.68192,-13.3532 5.13468,-12.4685 4.25339,2.59115 -0.587055,12.9087 4.54706,15.6957 -3.52035,-19.3632 12.2247,-28.4582 27.8717,-14.9627 1.66252,15.6473 8.01922,31.8813 8.80158,46.9418 -3.9617,13.2517 -3.08126,25.6717 0,38.1402 -2.44488,22.0039 -3.42284,44.8881 -5.57433,67.1854l1.76032 39.9005 9.97512 12.818z"/>
  <path fill="#CCCCCC" d="M117.014 348.038c-9.87733,-56.3301 -8.60599,-135.482 -16.4296,-168.048 -1.05109,-2.00466 -23.7884,1.32038 -24.0576,4.1074 -13.8869,44.8881 -29.2408,96.8174 -29.632,144.933 0.391181,3.81402 4.30299,2.34709 3.81402,0l29.632 -97.9909 20.537 115.205 16.1362 1.79405z"/>
  <path fill="black" d="M117.307 342.819c-9.87733,-56.3301 -8.89937,-130.263 -16.723,-162.829 -1.63786,-0.831119 -4.71827,-0.146551 -4.98756,0.586772 -5.12022,13.9995 -47.1206,125.863 -44.8881,148.453l29.632 -97.9909 4.54281 20.0296 -1.49698 -28.311 6.01937 -15.569 3.528 31.0691 -0.836221 -38.0291 5.61402 -14.0885c7.70542,51.444 7.78281,112.57 19.5956,156.679z"/>
  <path fill="black" d="M101.008 318.372c2.06617,8.35626 2.64132,16.6626 3.52063,25.818l1.17354 -2.0537 -4.69418 -23.7643z"/>
  <path fill="black" d="M107.202 322.547l0.259654 21.3497 2.64047 -1.46693c-2.34199,-8.01978 -1.42781,-11.8638 -2.90013,-19.8828z"/>
  <path fill="#CCCCCC" d="M124.349 354.362l1.76032 -33.8406c-0.880158,-12.0288 56.3301,-156.081 56.9169,-176.912 -25.3967,29.6686 -32.1483,69.594 -57.797,132.904 0.659055,-9.99553 0.264756,-30.0405 3.5314,-47.5186 2.27991,-12.1989 14.9516,-41.8468 21.3968,-61.5376 10.8142,-33.0378 17.1403,-58.2795 16.7326,-61.6944 -0.304158,-2.5492 -12.4977,-26.5502 -23.9179,-49.6131 -10.7272,-23.3963 -26.9793,-38.401 -30.8687,-35.7282 -2.83748,3.54529 22.0221,42.0047 33.3944,76.6622 1.56898,9.17037 1.10778,17.6703 4.7075,22.8722 -11.571,23.5803 -16.0569,48.8724 -22.9224,73.2359 -8.17966,-34.6584 -8.47871,-67.3776 9.97512,-73.0531 -8.73553,3.93732 -5.59333,-0.180284 -1.76032,-6.45449 -9.92637,7.62804 -15.4695,10.093 -15.4026,7.33465 0.24463,-10.0729 13.4958,-17.1142 11.2952,-19.3635 -6.00718,4.65109 -8.91071,5.61317 -9.85749,4.0921 -3.51355,-5.64605 6.03837,-17.2148 3.10961,-19.6416 -3.32504,-0.880158 -7.88911,15.3825 -8.21481,14.3759 -3.22725,-9.97512 4.88977,-16.1362 4.1074,-20.2436 -1.57691,-0.586772 -6.57723,5.6143 -6.72095,3.32788 -0.111969,-1.77874 3.57931,-8.90221 2.90693,-11.8361 -1.79688,-0.947339 -6.6532,6.77084 -8.40728,5.55166 -2.25525,-1.56756 3.38315,-17.0121 -1.56784,-19.9276 -1.86548,0.362551 -4.85292,16.9472 -7.45342,16.124 -5.66986,-1.7949 1.33682,-22.1752 -3.40186,-20.2314l-1.50661 6.52252 -3.30435 -9.46404 -3.69723 -2.04605 1.17354 18.1899 -8.21481 -10.2685 2.93386 -12.3222c-1.95591,1.85811 -3.52063,2.34709 -4.69418,1.46693 -1.17354,-0.880158 -0.195591,-5.76992 -2.34709,-6.74788l-7.04126 10.8553 -2.34709 -18.1899 -1.76032 4.69418 -2.64047 0.880158 1.17354 7.62804c-4.69418,-4.69418 -6.74788,-11.7354 -14.0825,-14.0825l3.81402 9.09497 -12.909 -5.28095c2.83606,10.7575 9.77953,8.60599 14.6693,12.909l0 2.93386 -19.0701 -0.586772c4.00961,4.00961 9.77953,2.44488 14.6693,3.22725l11.7354 8.80158 0 2.93386c-7.13878,-2.83578 -13.8867,-3.32476 -20.2436,-1.46693 4.00961,5.86772 16.5611,-6.61805 32.5996,19.1999l-2.47691 0.259654c-1.35043,-6.35329 -7.65298,-8.49629 -12.1195,-8.7653 -4.50567,-0.271276 -4.19528,0.41726 -13.6023,-3.9464 -0.166394,4.03087 8.46879,4.24772 6.5418,10.332 -4.86964,-0.901418 -9.49522,-1.31358 -13.5831,-0.650268 3.45714,6.41169 11.6084,2.26148 18.2928,6.03241l-0.0782363 3.68589c-5.77814,0.966048 -14.1968,2.61638 -13.8138,4.65761 2.64047,4.2052 15.2561,-8.3126 34.3262,6.74788l0 5.57433c-8.80158,-8.46057 -17.6029,-8.85147 -26.4047,-5.57433 0.684567,4.05865 12.4781,-1.69484 13.2024,5.42807 0.185386,1.82268 -10.1707,-1.7606 -14.9627,0.146268 1.80936,3.96085 13.2877,1.5205 13.6429,3.37436 0.538583,2.81112 -12.909,4.73953 -10.4156,7.48092 11.3689,-3.3497 20.9041,-4.37613 29.9254,0.880158l-0.880158 4.98756 -13.7891 -4.40079 -6.16111 7.33465 -11.7354 2.34709c0.962646,2.27821 4.64202,2.6297 9.60747,2.32951 0.0484725,3.48236 1.29203,4.3132 1.96668,4.25622 0.674363,-0.0569764 1.36743,-4.52325 2.07496,-4.59355 1.75465,-3.30265 22.1618,-2.58945 30.3588,1.23506l-0.293386 6.45449c-5.95559,-6.57128 -14.7609,-5.39008 -25.2312,-4.98756 3.20769,2.44517 -0.886678,4.89005 -3.52063,7.33465l9.77415 2.85789c-3.45345,3.25276 -16.2955,2.69121 -13.8816,7.99739 3.76469,1.20076 8.11616,0.0541418 12.1742,0.0810709 -0.244063,4.47166 -5.1823,9.82347 -0.732189,13.4147 2.78731,-10.2195 3.68192,-13.3535 5.13468,-12.4685 4.25367,2.59115 -0.587055,12.9087 4.54706,15.6957 -3.52035,-19.3632 12.2247,-28.4582 27.8717,-14.9627 1.66252,15.6473 5.96551,31.0011 6.74788,46.0616 -0.6463,13.252 0.234425,25.6723 0,38.1402 -2.44488,22.0039 -3.42284,44.8881 -5.57433,67.1854l2.34709 44.0079 10.2685 6.2623z"/>
  <path fill="black" d="M117.894 348.071c0.976252,-8.38574 1.02558,-13.0618 0,-22.2299 -1.1245,5.72117 -0.960945,7.51181 -1.30337,14.0151l1.30337 8.21481z"/>
  <path fill="black" d="M147.904 232.282l15.4942 -43.5606c-9.31465,13.2752 -10.0908,29.5022 -15.4942,43.5606z"/>
  <path fill="black" d="M135.651 265.365l8.43846 -24.7839c-1.83175,8.36221 -4.25622,17.9875 -8.43846,24.7839z"/>
  <path fill="black" d="M152.22 139.503c-6.3567,20.9282 -12.42,42.7366 -19.0701,62.7846 3.61786,-21.9552 9.19163,-43.1768 19.0701,-62.7846z"/>
  <path fill="black" d="M106.745 135.689l1.94995 0.0172913c3.03137,4.79169 6.75355,8.8818 7.4384,12.8917 -2.4446,-4.30299 -5.37874,-8.60656 -9.38835,-12.909z"/>
  <polygon fill="black" points="121.708,128.354 121.035,135.775 122.519,130.529 "/>
  <path id="path1937_0" fill="#CCCCCC" d="M457.558 356.354c-26.5652,127.405 -117.013,176.683 -208.205,211.826 -103.012,-36.7217 -181.073,-81.2863 -212.336,-206.721 13.3705,-7.6544 32.2416,-19.5123 53.9306,-19.7753 21.6893,-0.263339 45.1721,22.7733 76.205,22.4487 31.0329,-0.324851 44.7939,-20.8962 79.1686,-21.2094 34.3749,-0.313512 47.5214,19.645 79.2488,19.3244 31.7274,-0.320315 64.1359,-23.1018 86.6651,-23.3748 22.5292,-0.272977 33.4049,9.17434 45.3235,17.4821z"/>
  <polygon fill="black" points="92.6629,117.205 85.3283,105.47 92.6635,115.429 "/>
  <polygon fill="black" points="109.093,115.531 104.088,101.224 107.091,106.368 "/>
  <path fill="black" d="M100.256 96.1155c-1.15654,2.78419 1.41506,8.67544 1.81219,11.4599l-1.81219 -11.4599z"/>
  <path fill="black" d="M74.7318 69.1073c-2.37855,-4.56321 -6.36832,-10.6469 -10.51,-12.1326 7.18498,0.947056 11.266,11.3817 10.51,12.1326z"/>
  <path fill="black" d="M88.8489 77.5982c-2.69008,-3.76441 -4.05893,-5.97317 -4.40079,-13.6508l1.43235 0.638646c-0.0980788,6.84567 1.50123,7.73122 2.96844,13.0122z"/>
  <polygon fill="black" points="66.2236,46.9131 70.659,59.1149 68.588,50.0199 "/>
  <line fill="none" stroke="black" stroke-width="0.992126" x1="69.192" y1="147.131" x2="74.7664" y2= "146.544" />
  <line fill="none" stroke="black" stroke-width="0.992126" x1="70.0722" y1="138.916" x2="74.7664" y2= "140.089" />
  <line fill="none" stroke="black" stroke-width="0.992126" x1="71.8325" y1="134.222" x2="74.7664" y2= "134.808" />
  <line fill="none" stroke="black" stroke-width="0.992126" x1="68.6053" y1="126.007" x2="74.473" y2= "127.18" />
  <line fill="none" stroke="black" stroke-width="0.992126" x1="65.378" y1="121.019" x2="68.3119" y2= "121.899" />
  <line fill="none" stroke="black" stroke-width="0.992126" x1="56.5764" y1="127.474" x2="61.8574" y2= "127.18" />
  <line fill="none" stroke="black" stroke-width="0.992126" x1="56.8698" y1="106.35" x2="58.3368" y2= "107.524" />
  <line fill="none" stroke="black" stroke-width="0.992126" x1="54.5227" y1="115.152" x2="57.75" y2= "113.978" />
  <line fill="none" stroke="black" stroke-width="0.992126" x1="58.3368" y1="100.189" x2="61.564" y2= "101.069" />
  <line fill="none" stroke="black" stroke-width="0.992126" x1="49.2418" y1="91.6807" x2="55.6963" y2= "92.2675" />
  <line fill="none" stroke="black" stroke-width="0.992126" x1="48.3616" y1="81.4122" x2="50.4153" y2= "82.8791" />
  <line fill="none" stroke="black" stroke-width="0.992126" x1="47.4815" y1="62.9289" x2="51.0021" y2= "63.809" />
  <line fill="none" stroke="white" stroke-width="0.992126" x1="62.1508" y1="130.994" x2="61.8574" y2= "133.635" />
  <line fill="none" stroke="white" stroke-width="0.992126" x1="119.068" y1="82.8791" x2="116.427" y2= "87.8667" />
  <line fill="none" stroke="white" stroke-width="0.992126" x1="114.373" y1="74.6643" x2="111.733" y2= "81.7056" />
  <line fill="none" stroke="white" stroke-width="0.992126" x1="106.745" y1="59.7016" x2="106.452" y2= "68.2098" />
  <line fill="none" stroke="white" stroke-width="0.992126" x1="96.7703" y1="56.7678" x2="95.8902" y2= "64.6892" />
  <line fill="none" stroke="white" stroke-width="0.992126" x1="75.9399" y1="40.6315" x2="77.1135" y2= "46.4993" />
  <line fill="none" stroke="white" stroke-width="0.992126" x1="66.2582" y1="35.644" x2="67.1383" y2= "45.3257" />
  <polyline fill="none" stroke="white" stroke-width="0.992126" points="80.9275,48.2596 77.9936,53.8339 80.9275,60.2884 "/>
  <line fill="none" stroke="white" stroke-width="0.992126" x1="105.865" y1="75.5445" x2="107.039" y2= "79.9453" />
  <line fill="none" stroke="white" stroke-width="0.992126" x1="128.456" y1="105.176" x2="124.935" y2= "108.99" />
  <line fill="none" stroke="white" stroke-width="0.992126" x1="52.7624" y1="106.35" x2="55.9897" y2= "106.35" />
  <line fill="none" stroke="white" stroke-width="0.992126" x1="46.8947" y1="93.441" x2="48.655" y2= "92.5609" />
  <line fill="none" stroke="white" stroke-width="0.992126" x1="52.1756" y1="43.272" x2="54.8161" y2= "45.0323" />
  <line fill="none" stroke="white" stroke-width="0.992126" x1="51.5889" y1="51.7802" x2="56.2831" y2= "54.7141" />
  <path fill="black" d="M399.202 342.898l0.586772 -25.2312c-0.880158,-12.0288 88.0158,-178.672 74.2267,-202.143 -8.85062,34.6564 -42.9815,97.7588 -66.3052,161.069 0.659055,-9.99553 0.265606,-31.8016 3.5314,-49.2789 2.27906,-12.1981 5.56328,-18.3759 12.0084,-38.0668 12.4124,-31.8782 44.3242,-84.8022 43.1374,-88.6859 -0.749764,-2.45367 -7.8035,-20.0957 -19.2237,-43.1586 -10.7277,-21.6652 -16.2009,-48.4739 -20.09,-46.9109 -0.684567,5.67213 9.77953,75.5958 21.4172,110.9 -15.1019,21.5632 -28.268,49.9051 -33.1526,75.4002 -8.17966,-34.2595 -6.42444,-67.2489 12.0288,-74.2267 -9.51789,1.19934 -7.8429,-2.62488 -3.22725,-6.16111 -10.5131,5.86772 -14.8827,12.4401 -14.8158,9.68174 0.24463,-10.0729 15.5495,-21.515 13.3489,-23.7643 -6.00718,4.65109 -8.91071,5.61317 -9.85749,4.0921 -3.51355,-5.64605 6.03837,-17.2148 3.10961,-19.6416 -3.32504,-0.880158 -7.88911,15.3825 -8.21481,14.3759 -3.22725,-9.97512 4.88977,-16.1362 4.1074,-20.2436 -1.57691,-0.586772 -6.57752,5.61402 -6.72095,3.32788 -0.111685,-1.77846 3.57931,-8.90221 2.90693,-11.8361 -1.79688,-0.947339 -6.65348,6.77084 -8.40728,5.55166 -2.25525,-1.56728 3.38315,-17.0121 -1.56784,-19.9276 -1.86548,0.362551 -4.8532,16.9472 -7.45342,16.124 -5.66986,-1.79462 1.33682,-22.1752 -3.40186,-20.2314l-1.50661 6.52252 -3.30435 -9.46404 -3.69723 -2.04605 0.880158 12.909 -7.04126 -8.50819 2.0537 -8.80158c-1.95591,1.85811 -3.52063,2.34709 -4.69418,1.46693 -1.17354,-0.880158 -0.195591,-5.76992 -2.34709,-6.74788l-7.04126 10.8553 -1.46693 -19.6569 -2.93386 4.98756 -2.34709 2.0537 1.17354 7.62804c-4.69418,-4.69418 -2.0537,-13.4958 -10.5619,-15.2561l0.293386 10.2685 -9.97512 -5.28095c2.83606,10.7575 6.84567,8.60599 11.7354,12.909l0 2.93386 -11.4421 -2.0537c4.00961,4.00961 0.977953,3.91181 5.86772,4.69418l9.97512 7.92142 2.93386 3.81402c-7.13878,-2.83578 -10.366,-5.96523 -16.723,-4.1074 4.00961,5.86772 7.72583,-1.17354 23.7643,24.6444l-2.0537 0.586772c-4.35317,-3.60822 -6.41877,-9.40876 -10.4553,-12.1898 -3.71622,-2.56082 -0.968032,0.710646 -10.3751,-3.65301 -0.166394,4.03087 8.46879,4.24772 6.5418,10.332 -4.86964,-0.901418 -4.50766,-1.90035 -8.5955,-1.23704 3.45714,6.41169 6.62089,2.84825 13.3053,6.61918l-0.0782363 3.68589c-5.77814,0.966048 -10.3827,0.856063 -9.99978,2.89729 2.64047,4.2052 11.4421,-6.55229 30.5121,8.50819l0 5.57433c-8.80158,-8.46057 -17.6029,-8.85147 -26.4047,-5.57433 0.684567,4.05865 12.4784,-1.69455 13.2024,5.42807 0.185102,1.82239 -10.1707,-1.7606 -14.9627,0.146268 1.80936,3.96085 13.288,1.5205 13.6429,3.37436 0.538583,2.81084 -12.909,4.73953 -10.4156,7.48092 11.3689,-3.3497 20.9041,-4.37613 29.9254,0.880158l-0.880158 4.98756 -17.3098 -7.04126 -3.52063 7.04126 -11.7354 2.34709c0.962646,2.27821 4.64202,2.6297 9.60747,2.32951 0.0484725,3.48236 1.2926,4.31292 1.96668,4.25622 0.674079,-0.0564095 1.36743,-4.52325 2.07496,-4.59355 1.75465,-3.30265 19.8148,0.34441 30.6522,5.92923l0.293386 4.69418c-5.95559,-6.57128 -14.7609,-5.39008 -25.2312,-4.98756 3.20769,2.44517 -0.886678,4.89005 -3.52063,7.33465l9.77415 2.85789c-3.45345,3.25276 -16.2955,2.69121 -13.8816,7.99739 3.76469,1.20076 8.11616,0.0541418 12.1742,0.0810709 -0.244063,4.47166 -5.1823,9.82347 -0.732189,13.4147 2.78731,-10.2195 3.68192,-13.3532 5.13468,-12.4685 4.25339,2.59115 -0.587055,12.9087 4.54706,15.6957 -3.52035,-19.3632 10.4644,-28.1648 26.1114,-14.6693 1.66252,15.6473 2.1515,30.121 2.93386,45.1814 -3.9617,13.2517 -3.08126,25.6717 0,38.1402 -2.44488,22.0039 -11.931,48.4087 -14.0825,70.706l0.293386 34.9129 9.97512 0.293386z"/>
  <path fill="#CCCCCC" d="M390.321 343.406c-9.87733,-56.3301 1.66252,-130.85 -6.16111,-163.416 -1.05109,-2.00466 -24.9619,-0.439937 -25.2312,2.34709 -21.0986,37.7669 -58.6636,90.0292 -61.3177,140.825 0.391181,3.81402 4.30299,2.34709 3.81402,0 13.2027,-36.771 33.7397,-73.4443 63.3714,-111.78l8.21481 141.119 17.3098 -9.09497z"/>
  <path fill="black" d="M390.907 342.819c-9.87733,-56.3301 1.07575,-130.263 -6.74788,-162.829 -1.63786,-0.831119 -4.71827,-0.146551 -4.98756,0.586772 -44.6933,63.1265 -83.6079,136.913 -77.7473,142.586 27.8717,-68.9457 40.7807,-78.9208 63.6648,-112.073l0.435402 6.9857 1.73027 -11.1597c1.61547,-3.33128 3.62211,-6.27166 6.01937,-8.82114l4.11477 27.2551 -0.542835 -32.1613c1.38104,-3.6241 3.74202,-5.2869 5.9074,-7.3406 7.70542,51.444 -3.65925,112.863 8.15358,156.972z"/>
  <path fill="black" d="M374.608 320.459c0.674363,9.74807 1.24895,18.0542 3.52063,25.818l1.17354 -2.0537 -4.69418 -23.7643z"/>
  <path fill="black" d="M379.759 319.416l2.34709 25.5246 2.64047 -1.46693c-2.34199,-8.01978 -3.51525,-16.0387 -4.98756,-24.0576z"/>
  <path fill="#CCCCCC" d="M396.482 348.331l-0.293386 -28.9828c-0.880158,-12.0288 89.1893,-179.259 75.4002,-202.73 -8.85062,34.6564 -44.155,93.0646 -67.4788,156.375 0.659055,-9.99553 0.265323,-27.9873 3.5314,-45.4649 2.27934,-12.1983 5.85666,-16.909 12.3018,-36.5998 12.3681,-31.8926 44.3583,-84.7905 43.1374,-88.6859 -0.767339,-2.44885 -8.68366,-24.7898 -20.1039,-47.8528 -10.7277,-21.6652 -14.7339,-44.0731 -18.6231,-42.5101 -2.17077,3.01351 -1.80567,22.7529 6.37144,45.8893 3.70658,20.4143 8.71059,43.4744 14.1656,60.0231 -15.1019,21.5632 -28.268,49.9051 -33.1526,75.4002 -8.17966,-34.6584 -5.25147,-65.0305 13.2024,-70.706 -8.73553,3.93732 -5.59333,-0.180284 -1.76032,-6.45449 -9.92637,7.62804 -15.4695,10.093 -15.4026,7.33465 0.24463,-10.0729 15.5495,-21.515 13.3489,-23.7643 -6.00718,4.65109 -8.91071,5.61317 -9.85749,4.0921 -3.51355,-5.64605 6.03837,-17.2148 3.10961,-19.6416 -3.32504,-0.880158 -7.88911,15.3825 -8.21481,14.3759 -3.22725,-9.97512 4.88977,-16.1362 4.1074,-20.2436 -1.57691,-0.586772 -6.57723,5.61402 -6.72095,3.32788 -0.111685,-1.77874 3.57931,-8.90221 2.90693,-11.8361 -1.79688,-0.947339 -6.65348,6.77084 -8.40728,5.55166 -2.25525,-1.56728 3.38315,-17.0121 -1.56784,-19.9276 -1.86548,0.362551 -4.8532,16.9472 -7.45342,16.124 -5.66986,-1.79462 1.33682,-22.1752 -3.40186,-20.2314l-1.50661 6.52252 -3.30435 -9.46404 -3.69723 -2.04605 0.129827 18.1899 -7.17109 -10.2685 2.93386 -12.3222c-1.95591,1.85811 -3.52063,2.34709 -4.69418,1.46693 -1.17354,-0.880158 -0.195591,-5.76992 -2.34709,-6.74788l-7.04126 10.8553 -2.34709 -18.1899 -1.76032 4.69418 -2.64047 0.880158 1.17354 7.62804c-4.69418,-4.69418 -6.74788,-11.7354 -14.0825,-14.0825l3.81402 9.09497 -12.909 -5.28095c2.83606,10.7575 9.77953,8.60599 14.6693,12.909l0 2.93386 -19.0701 -0.586772c4.00961,4.00961 9.77953,2.44488 14.6693,3.22725l11.7354 8.80158 0 2.93386c-7.13878,-2.83578 -13.8867,-3.32476 -20.2436,-1.46693 4.00961,5.86772 12.3863,-6.61805 28.4247,19.1999l-1.4332 3.3908c-1.34986,-5.61118 -4.52268,-9.40111 -8.98838,-11.8964 -3.94073,-2.20167 -4.19528,0.41726 -13.6023,-3.9464 -0.166394,4.03087 8.46879,4.24772 6.5418,10.332 -4.86964,-0.901418 -9.49522,-1.31358 -13.5831,-0.650268 3.45714,6.41169 11.6084,2.26148 18.2928,6.03241l-0.0782363 3.68589c-5.77814,0.966048 -14.1968,2.61638 -13.8138,4.65761 2.64047,4.2052 15.2561,-8.3126 34.3262,6.74788l0 5.57433c-8.80158,-8.46057 -17.6029,-8.85147 -26.4047,-5.57433 0.684567,4.05865 12.4781,-1.69455 13.2024,5.42807 0.185102,1.82268 -10.1707,-1.7606 -14.9627,0.146268 1.80936,3.96085 13.288,1.5205 13.6429,3.37436 0.538583,2.81084 -12.909,4.73953 -10.4156,7.48092 11.3689,-3.3497 20.9041,-4.37613 29.9254,0.880158l-0.880158 4.98756 -13.7891 -4.40079 -6.16111 7.33465 -11.7354 2.34709c0.962646,2.27821 4.64202,2.6297 9.60747,2.32951 0.0484725,3.48236 1.29232,4.3132 1.96668,4.25622 0.674363,-0.0566929 1.36743,-4.52325 2.07496,-4.59355 1.75465,-3.30265 22.1618,-2.58945 30.3588,1.23506l-0.293386 6.45449c-5.95559,-6.57128 -14.7609,-5.39008 -25.2312,-4.98756 3.20769,2.44517 -0.886678,4.89005 -3.52063,7.33465l9.77415 2.85789c-3.45345,3.25276 -16.2955,2.69121 -13.8816,7.99739 3.76469,1.20076 8.11616,0.0541418 12.1742,0.0810709 -0.244063,4.47166 -5.1823,9.82347 -0.732189,13.4147 2.78731,-10.2195 3.68192,-13.3532 5.13468,-12.4685 4.25339,2.59115 -0.587055,12.9087 4.54706,15.6957 -3.52035,-19.3632 10.4644,-28.1648 26.1114,-14.6693 1.66252,15.6473 0.0977953,29.2408 0.880158,44.3013 -1.908,9.64602 -2.9829,19.0106 -1.76032,34.9129 -1.56473,22.0039 -6.65008,53.6896 -8.80158,69.2391l-2.64047 43.7145 10.2685 5.21859z"/>
  <path fill="black" d="M426.477 236.012l20.4673 -46.0471c-9.31465,13.2752 -15.0639,31.9887 -20.4673,46.0471z"/>
  <path fill="black" d="M411.738 265.365l9.68174 -22.2973c-1.83175,8.36221 -5.4995,15.501 -9.68174,22.2973z"/>
  <path fill="black" d="M436.382 140.676c-7.28731,21.3934 -15.4038,34.8404 -21.4172,54.5698 3.90104,-21.6723 12.0427,-34.4571 21.4172,-54.5698z"/>
  <polygon fill="black" points="397.386,89.3336 396.213,74.6643 398.266,74.3709 "/>
  <polygon fill="black" points="407.948,125.127 407.655,111.338 409.415,108.404 "/>
  <path fill="black" d="M387.411 99.8955c-1.45021,-5.66504 -4.18734,-10.3995 -7.04126,-14.6693l1.44964 -0.845575c2.35588,4.46514 4.22561,7.16202 5.59162,15.5149z"/>
  <polygon fill="black" points="380.076,51.7802 383.89,60.8752 382.13,51.7802 "/>
  <line fill="none" stroke="black" stroke-width="0.992126" x1="360.126" y1="145.957" x2="365.7" y2= "145.37" />
  <line fill="none" stroke="black" stroke-width="0.992126" x1="361.006" y1="137.742" x2="365.7" y2= "138.916" />
  <line fill="none" stroke="black" stroke-width="0.992126" x1="362.767" y1="133.048" x2="365.7" y2= "133.635" />
  <line fill="none" stroke="black" stroke-width="0.992126" x1="359.539" y1="124.833" x2="365.407" y2= "126.007" />
  <line fill="none" stroke="black" stroke-width="0.992126" x1="356.312" y1="119.846" x2="359.246" y2= "120.726" />
  <line fill="none" stroke="black" stroke-width="0.992126" x1="347.51" y1="126.3" x2="352.791" y2= "126.007" />
  <line fill="none" stroke="black" stroke-width="0.992126" x1="347.804" y1="105.176" x2="349.271" y2= "106.35" />
  <line fill="none" stroke="black" stroke-width="0.992126" x1="345.457" y1="113.978" x2="348.684" y2= "112.804" />
  <line fill="none" stroke="black" stroke-width="0.992126" x1="349.271" y1="99.0154" x2="352.498" y2= "99.8955" />
  <line fill="none" stroke="black" stroke-width="0.992126" x1="340.176" y1="90.5072" x2="346.63" y2= "91.0939" />
  <line fill="none" stroke="black" stroke-width="0.992126" x1="339.296" y1="80.2387" x2="341.349" y2= "81.7056" />
  <line fill="none" stroke="black" stroke-width="0.992126" x1="338.415" y1="61.7553" x2="341.936" y2= "62.6355" />
  <line fill="none" stroke="white" stroke-width="0.992126" x1="353.085" y1="129.821" x2="352.791" y2= "132.461" />
  <line fill="none" stroke="white" stroke-width="0.992126" x1="410.002" y1="81.7056" x2="407.361" y2= "86.6931" />
  <line fill="none" stroke="white" stroke-width="0.992126" x1="405.307" y1="73.4908" x2="402.667" y2= "80.532" />
  <line fill="none" stroke="white" stroke-width="0.992126" x1="397.679" y1="58.5281" x2="397.386" y2= "67.0363" />
  <line fill="none" stroke="white" stroke-width="0.992126" x1="387.704" y1="55.5942" x2="386.824" y2= "63.5157" />
  <line fill="none" stroke="white" stroke-width="0.992126" x1="366.874" y1="39.458" x2="368.047" y2= "45.3257" />
  <line fill="none" stroke="white" stroke-width="0.992126" x1="357.192" y1="34.4704" x2="358.072" y2= "44.1522" />
  <polyline fill="none" stroke="white" stroke-width="0.992126" points="371.861,47.086 368.928,52.6604 371.861,59.1149 "/>
  <line fill="none" stroke="white" stroke-width="0.992126" x1="396.799" y1="74.3709" x2="397.973" y2= "78.7717" />
  <line fill="none" stroke="white" stroke-width="0.992126" x1="419.39" y1="104.003" x2="415.869" y2= "107.817" />
  <line fill="none" stroke="white" stroke-width="0.992126" x1="343.696" y1="105.176" x2="346.924" y2= "105.176" />
  <line fill="none" stroke="white" stroke-width="0.992126" x1="337.829" y1="92.2675" x2="339.589" y2= "91.3873" />
  <line fill="none" stroke="white" stroke-width="0.992126" x1="343.11" y1="42.0985" x2="345.75" y2= "43.8588" />
  <line fill="none" stroke="white" stroke-width="0.992126" x1="342.523" y1="50.6067" x2="347.217" y2= "53.5405" />
  <polygon fill="black" points="399.04,99.8955 400.8,99.6021 401.387,107.23 "/>
  <line fill="none" stroke="black" stroke-width="0.992126" x1="404.028" y1="140.676" x2="404.028" y2= "144.49" />
  <polygon fill="black" points="118.498,139.399 119.689,151.169 119.62,141.574 "/>
  <path fill="black" d="M127.071 347.22c3.81402,-0.293386 19.0701,11.1487 36.9666,14.0825 -15.6473,-0.293386 -32.7614,-11.4421 -37.26,-10.5619l0.293386 -3.52063z"/>
  <path fill="black" d="M264.348 340.472c3.81402,-0.293386 33.7394,15.8428 51.6359,18.7767 -15.6473,-0.293386 -47.4307,-17.0164 -51.9293,-16.1362l0.293386 -2.64047z"/>
  <path fill="black" d="M425.657 334.604c3.81402,-0.293386 22.2973,7.92142 28.4584,15.8428 -7.43244,-5.86772 -24.2532,-14.3759 -28.7518,-13.4958l0.293386 -2.34709z"/>
  <path fill="black" d="M104.917 68.1546c-1.15654,2.78419 0.172347,8.67544 0.569481,11.4599l-0.569481 -11.4599z"/>
 </g>
</svg>
