<?xml version="1.0" encoding="UTF-8"?>
<!DOCTYPE svg PUBLIC "-//W3C//DTD SVG 1.1//EN" "http://www.w3.org/Graphics/SVG/1.1/DTD/svg11.dtd">
<!-- Creator: CorelDRAW -->
<svg xmlns="http://www.w3.org/2000/svg" xml:space="preserve" width="500px" height="578px" shape-rendering="geometricPrecision" text-rendering="geometricPrecision" image-rendering="optimizeQuality" fill-rule="evenodd" clip-rule="evenodd"
viewBox="0 0 500 578"
 xmlns:xlink="http://www.w3.org/1999/xlink"
 xmlns:svg="http://www.w3.org/2000/svg"
 version="1.0">
 <g id="Layer_x0020_1">
  <metadata id="CorelCorpID_0Corel-Layer"/>
  <path id="path1937" fill="#F00000" stroke="black" stroke-width="0.992126" d="M0.426898 0.910489l499.412 -0.000283465 -0.000850394 340.01c-24.9571,310.199 -476.486,321.101 -499.412,-0.375307l0 -339.634z"/>
  <polygon id="path1937_0" fill="#CCCCCC" points="0.426898,0.910489 499.839,0.910205 499.838,188.606 0.426898,188.606 "/>
  <path fill="#F00000" d="M25.615 38.1186l22.2185 4.00366 -0.655087 10.3805 -11.329 -1.152 1.97178 9.12246c8.01015,13.6403 38.2626,26.1689 64.7348,33.5818l11.1115 -11.4477 5.33651 0.451276 2.47777 -2.76293 2.61213 -0.842174 -9.46744 17.5442c9.12671,3.11726 18.8702,4.3869 28.8941,4.8172l10.37 -10.741 5.39547 -0.27326 2.73458 -2.52907 3.348 -0.334772 -10.0789 16.1671c9.50967,1.68265 21.3707,2.35786 32.2243,3.03307l10.7671 -10.7711 5.79997 0.252851 1.25887 -2.37714 3.52743 -0.790016 -8.57112 14.3858c10.9599,0.795969 22.2557,1.25632 32.8799,0.37304l9.74382 -11.3204 5.06126 -0.117354 2.34142 -2.4446 3.70488 -0.0419528 -8.72674 15.0511 33.2952 -0.150803 11.7323 -11.0744 4.46542 0.126425 1.21096 -3.72416 2.30769 -0.0779528 -4.97906 14.9406 32.9114 -0.769323 13.0187 -11.02 4.65336 0.0218268 1.14747 -2.65947 3.54898 -1.82891 -5.59814 15.5906 24.9063 -0.265606 12.1156 -13.6826 4.33956 -0.164693 3.0155 -2.55487 3.01606 0.000850394 -7.38964 15.7915c26.2627,-2.12088 50.0057,-6.4817 68.205,-15.77l0.99156 -8.60032 9.13862 -0.0110551 0.103748 8.27207 16.4906 -0.244347 -0.313229 5.76709 -16.7326 -0.0538583c-0.310394,7.23175 -2.63622,17.1507 -4.96205,23.0389l22.201 0.106866 -0.720284 7.91802 -24.4613 0.0722835c-14.5984,19.5755 -33.5344,28.9168 -52.8044,28.6929 -92.346,0.58904 -185.013,0.534614 -278.254,-0.667276 -81.586,8.68706 -113.236,-55.3042 -96.2859,-118.239z"/>
  <path fill="#F00000" d="M408.547 62.9757l77.2583 -1.34362c3.35906,0.336189 1.56728,5.0383 0.335906,5.03859l-11.0849 0.335906 -1.67953 2.68725 -1.34362 66.1734c-0.788315,4.4915 4.69984,3.92655 10.0772,3.69496l14.4439 0.335906 -0.671811 18.4748 -27.5443 -1.34362c-5.48646,-0.111969 -8.1737,-3.47103 -8.73355,-9.40536l7.05402 -75.9147 -3.02315 -5.7104 -55.4244 0.671811c-1.56756,0.111969 -0.78378,-3.80693 0.335906,-3.69496z"/>
  <path fill="black" stroke="#FFD90F" stroke-width="0.216" d="M405.86 61.632l80.2815 -4.03087c3.35906,0.336189 0.223654,7.72555 -1.00772,7.72583l-11.0849 0.335906 -1.67953 2.68725 -1.34362 66.1734c-0.788315,4.4915 3.69213,4.26246 9.06945,4.03087l15.1158 0.671811 0 17.4671 -26.8725 -0.671811c-5.48646,-0.111969 -10.525,-2.1274 -11.0849,-8.06174l8.39764 -77.5942 -3.02315 -5.7104 -57.104 0.671811c-1.56756,0.111969 -0.78378,-3.80693 0.335906,-3.69496z"/>
  <path fill="white" d="M407.204 57.9371l72.8915 -1.34362c3.35906,0.336189 1.56728,5.0383 0.335906,5.03859l-11.0849 0.335906 -1.67953 2.68725 -1.34362 66.1734c-0.788315,4.4915 3.35622,6.9497 8.73355,6.71811l14.4439 0.335906 0 13.7721 -25.5288 0c-5.48646,-0.111969 -8.50961,-3.13512 -9.06945,-9.06945l6.0463 -75.9147 -3.02315 -5.7104 -51.0577 0.671811c-1.56756,0.111969 -0.78378,-3.80693 0.335906,-3.69496z"/>
  <path fill="#F00000" d="M409.555 59.2807l72.8915 -1.34362c3.35906,0.336189 1.56728,5.0383 0.335906,5.03859l-11.0849 0.335906 -1.67953 2.68725 -1.34362 66.1734c-0.788315,4.4915 3.35622,6.9497 8.73355,6.71811l14.4439 0.335906 0 13.7721 -25.5288 0c-5.48646,-0.111969 -8.50961,-3.13512 -9.06945,-9.06945l6.0463 -75.9147 -3.02315 -5.7104 -51.0577 0.671811c-1.56756,0.111969 -0.78378,-3.80693 0.335906,-3.69496z"/>
  <path fill="black" d="M24.9432 37.1109l22.2185 4.00366 -0.655087 10.3805 -11.329 -1.152 1.97178 9.12246c8.01015,13.6403 38.2626,26.1689 64.7348,33.5818l11.1115 -11.4477 5.33651 0.451276 2.47777 -2.76293 2.61213 -0.842174 -9.46744 17.5442c9.12671,3.11726 18.8702,4.3869 28.8941,4.8172l10.37 -10.741 5.39547 -0.27326 2.73458 -2.52907 3.348 -0.334772 -10.0789 16.1671c9.50967,1.68265 21.3707,2.35786 32.2243,3.03307l10.7671 -10.7711 5.79997 0.252851 1.25887 -2.37714 3.52743 -0.790016 -8.57112 14.3858c10.9599,0.795969 22.2557,1.25632 32.8799,0.37304l9.74382 -11.3204 5.06126 -0.117354 2.34142 -2.4446 3.70488 -0.0419528 -8.72674 15.0511 33.2952 -0.150803 11.7323 -11.0744 4.46542 0.126425 1.21096 -3.72416 2.30769 -0.0779528 -4.97906 14.9406 32.9114 -0.769323 13.0187 -11.02 4.65336 0.0218268 1.14747 -2.65947 3.54898 -1.82891 -5.59814 15.5906 24.9063 -0.265606 12.1156 -13.6826 4.33956 -0.164693 3.0155 -2.55487 3.01606 0.000850394 -7.38964 15.7915c26.2627,-2.12088 50.0057,-6.4817 68.205,-15.77l0.99156 -8.60032 9.13862 -0.0110551 0.103748 8.27207 16.4906 -0.244347 -0.313229 5.76709 -16.7326 -0.0538583c-0.310394,7.23175 -2.63622,17.1507 -4.96205,23.0389l22.201 0.106866 -0.720284 7.91802 -24.4613 0.0722835c-14.5984,19.5755 -33.5344,28.9168 -52.8044,28.6929 -92.346,0.58904 -185.013,0.534614 -278.254,-0.667276 -81.586,8.68706 -113.236,-55.3042 -96.2859,-118.239z"/>
  <path fill="white" d="M20.2405 33.7519l22.2185 4.00366 0.35263 8.70095 -11.329 -1.152 1.97178 9.12246c8.01015,13.6403 38.9344,25.4971 65.4066,32.91l10.7756 -9.76819 9.41868 0.541134 -8.79563 12.8415c9.12671,3.11726 18.8702,4.3869 28.8941,4.8172l10.37 -10.741 10.8062 0.893764 -9.40706 12.1363c9.50967,1.68265 21.3707,2.35786 32.2243,3.03307l11.103 -10.4352 8.90674 0.10885 -7.56341 11.3627c10.9599,0.795969 22.9275,1.25632 33.5517,0.37304l9.40791 -11.6564 10.7717 0.419244 -8.39084 12.028 33.2952 -0.150803 12.0682 -10.7385 7.98407 -0.988441 -5.31496 11.9174 32.9114 -0.769323 13.0187 -11.02 10.3575 -0.435685 -6.60586 11.5597 24.9063 -0.265606 12.1156 -13.6826 10.707 -0.0314646 -7.72555 13.1043c26.2627,-2.12088 48.998,-4.80218 67.1973,-14.0905l0.99156 -8.60032 9.13862 -0.0110551 0.439654 6.92844 14.4751 -0.244347 1.3663 7.11071 -16.7326 -0.0538583c-0.310394,7.23175 -2.30032,16.4789 -4.62614,22.3671l21.8651 0.106866 -0.720284 8.58983 -24.4613 0.0722835c-14.5984,19.5755 -33.5344,28.9168 -52.8044,28.6929 -92.346,0.58904 -185.013,0.534614 -278.254,-0.667276 -81.586,8.68706 -113.236,-55.3042 -96.2859,-118.239z"/>
  <path fill="#F00000" d="M22.9278 34.4237l22.2185 4.00366 -0.655087 10.3805 -11.329 -1.152 1.97178 9.12246c8.01015,13.6403 38.2626,26.1689 64.7348,33.5818l11.1115 -11.4477 5.33651 0.451276 2.47777 -2.76293 2.61213 -0.842174 -9.46744 17.5442c9.12671,3.11726 18.8702,4.3869 28.8941,4.8172l10.37 -10.741 5.39547 -0.27326 2.73458 -2.52907 3.348 -0.334772 -10.0789 16.1671c9.50967,1.68265 21.3707,2.35786 32.2243,3.03307l10.7671 -10.7711 5.79997 0.252851 1.25887 -2.37714 3.52743 -0.790016 -8.57112 14.3858c10.9599,0.795969 22.2557,1.25632 32.8799,0.37304l9.74382 -11.3204 5.06126 -0.117354 2.34142 -2.4446 3.70488 -0.0419528 -8.72674 15.0511 33.2952 -0.150803 11.7323 -11.0744 4.46542 0.126425 1.21096 -3.72416 2.30769 -0.0779528 -4.97906 14.9406 32.9114 -0.769323 13.0187 -11.02 4.65336 0.0218268 1.14747 -2.65947 3.54898 -1.82891 -5.59814 15.5906 24.9063 -0.265606 12.1156 -13.6826 4.33956 -0.164693 3.0155 -2.55487 3.01606 0.000850394 -7.38964 15.7915c26.2627,-2.12088 50.0057,-6.4817 68.205,-15.77l0.99156 -8.60032 9.13862 -0.0110551 0.103748 8.27207 16.4906 -0.244347 -0.313229 5.76709 -16.7326 -0.0538583c-0.310394,7.23175 -2.63622,17.1507 -4.96205,23.0389l22.201 0.106866 -0.720284 7.91802 -24.4613 0.0722835c-14.5984,19.5755 -33.5344,28.9168 -52.8044,28.6929 -92.346,0.58904 -185.013,0.534614 -278.254,-0.667276 -81.586,8.68706 -113.236,-55.3042 -96.2859,-118.239z"/>
  <path fill="black" d="M68.6109 82.7941c-15.4687,-6.52507 -27.6313,-14.3487 -37.2855,-22.5057 1.15455,60.8106 35.9686,82.152 93.8333,83.6499 86.8428,0.81326 173.686,1.13726 260.529,1.05562 56.6493,-1.55679 63.9326,-41.8717 61.4886,-54.8099 -12.4288,4.87049 -24.8576,8.67742 -37.2855,11.7567 12.1623,-1.62369 24.0027,-4.53487 35.2701,-9.74126l0.671811 1.34362c-10.3011,6.60615 -24.6331,10.525 -35.9419,13.7721 13.0445,-1.90318 25.2488,-4.92662 35.606,-10.4131l-0.671811 2.01543c-45.4887,18.2101 -63.2739,15.5237 -112.194,17.388 -38.6966,1.47487 -80.339,1.9423 -120.779,0.411024 -69.696,-2.63877 -129.443,-7.83581 -177.168,-42.992l-1.34362 -3.02315c10.0491,7.44633 22.646,14.1642 38.9651,19.8184 -15.5387,-7.94977 -29.7037,-15.8993 -38.9651,-23.8493l0 -2.68725c11.3091,9.40536 23.0658,15.6756 35.2701,18.8107z"/>
  <path fill="#F00000" d="M150.016 125.799c97.4926,6.13786 163.505,4.44444 243.062,0.719717 18.1145,-2.09934 34.4378,-7.3338 48.9702,-15.7034 -9.45978,3.90416 -18.9196,6.4647 -28.3794,7.68218 13.5734,-3.72841 24.9072,-7.73689 31.3135,-12.3608 -8.62215,2.39783 -17.5802,5.80366 -25.8662,7.19405 10.3054,-2.67761 18.7631,-6.5863 26.3809,-11.0546 -42.8015,17.5382 -59.9562,13.6454 -108.835,16.3803 -38.3607,2.14611 -83.3624,2.61383 -123.803,1.08284 -69.6958,-2.63849 -130.115,-8.17172 -177.504,-42.6561 8.02205,12.2125 31.8317,21.4019 49.2588,29.5838 -13.8064,-2.42051 -32.9876,-12.007 -47.4667,-20.6972 13.0518,11.9449 33.1095,19.6863 55.1296,26.2511 -17.5827,-1.94343 -35.1652,-8.78599 -52.7482,-19.6863 7.15267,12.2085 48.4577,26.2074 110.486,33.2643z"/>
  <path fill="#F00000" d="M154.383 141.587c63.902,1.77109 147.046,1.08539 227.275,1.05562 20.8018,-1.76343 36.7892,-6.32608 49.9779,-15.3675 -8.74432,4.95666 -29.2612,10.7935 -39.8001,10.3694 14.7594,-2.54239 38.6286,-10.8108 44.4138,-16.0557 -8.25789,4.13972 -29.8131,11.5815 -38.6306,10.2172 11.4951,-0.297638 35.8447,-10.3799 42.8403,-16.0931 -42.8015,17.5382 -46.8561,13.3101 -95.7343,16.0444 -38.3601,2.14583 -84.0345,1.94173 -124.474,0.411024 -69.6955,-2.63821 -116.679,-1.45361 -177.84,-32.243 8.59465,11.7593 37.33,16.8046 56.3128,24.2093 -13.8067,-1.3269 -38.698,-8.28284 -51.8335,-16.6663 13.0521,12.8775 36.8042,17.0997 58.8246,21.8843 -6.83433,0.673796 -31.4703,-1.55055 -49.0533,-11.9605 3.11925,8.18249 28.1183,13.4513 54.7654,18.555 -15.8678,-0.367654 -31.7359,-2.69518 -47.6034,-9.33421 19.9531,15.1532 74.1561,14.7949 90.5596,14.974z"/>
  <path fill="#CCCCCC" d="M269.447 280.268c3.35509,-5.20895 8.31742,-8.81037 16.8182,-8.8733 14.0488,-15.7161 33.531,-25.1632 60.9551,-25.4466 4.83222,-12.4736 14.2617,-25.3647 30.4112,-38.8658 8.32451,21.225 21.6652,39.5249 42.3366,53.549 -4.83506,3.48973 -8.12665,6.59367 -11.0324,11.6266 7.5223,4.21314 6.9429,7.65468 22.5669,12.6397 16.1138,-5.02271 16.0243,-20.0761 52.9711,-35.9008 -11.0619,22.6074 -20.7377,43.5056 -21.4875,51.6776 3.65131,18.5635 14.6327,32.4978 21.7562,49.1327 -13.3492,-3.17821 -28.821,-13.4311 -45.2571,-26.8997 -7.85282,-3.05377 -14.677,-3.02117 -20.4713,0.0983623 0.0992126,3.80778 4.31462,6.24473 7.70684,8.95607 -16.4339,12.7967 -31.646,28.6475 -46.0216,46.5891 -8.21651,-6.47944 -14.3756,-15.0165 -18.4762,-25.6108l-6.97011 0.754867c3.9566,7.86359 4.63436,13.5414 2.41937,16.2612 -8.96145,-1.18687 -16.3794,-10.4752 -21.0969,-17.4487 -15.6331,-2.33291 -40.5255,-10.6818 -46.899,-23.3184 -8.39424,-0.943654 -16.274,-4.97367 -23.6393,-12.0895 -10.6251,0.346394 -14.563,-4.45125 -11.8137,-14.3924 8.50536,2.92536 12.8957,1.73594 13.1712,-3.56854 -28.6365,2.19713 -12.5206,-17.5961 2.05228,-18.8708z"/>
  <path fill="white" d="M375.404 208.977c-14.7963,12.8143 -23.5786,25.0827 -28.184,36.9715 -27.4241,0.283465 -46.9063,9.73049 -60.9551,25.4466l0.771591 3.04469c16.5889,-11.4455 21.0895,-24.3054 63.2705,-25.8483 4.05071,-11.2207 12.2808,-22.8589 26.6199,-35.1074l-1.52277 -4.50709zm106.505 45.2821c0.843591,-1.74019 1.69994,-3.49597 2.56394,-5.26196 -36.9468,15.8247 -36.8572,30.8781 -52.9711,35.9008l1.36488 2.2731c17.119,-2.86895 13.405,-18.4691 49.0422,-32.912zm-124.237 115.698c-6.16082,-0.815811 -11.5923,-5.46123 -15.9185,-10.5508m-44.259 -21.57c-3.47386,-2.59597 -6.22489,-5.48731 -7.81824,-8.64624l1.60413 -0.35263c0.142016,2.87093 5.68545,5.48476 6.21411,8.99887zm-30.1 -38.6966c-0.275528,5.30448 -4.66583,6.49389 -13.1712,3.56854 -0.17178,0.621071 -0.31748,1.2223 -0.437103,1.8034 -0.358866,1.74359 -0.482457,3.30633 -0.371055,4.68794l5.0726 4.20605c-7.78848,-13.7599 17.1527,3.09005 8.90674,-14.2659z"/>
  <path fill="black" d="M375.965 211.11c-12.2448,7.88485 -20.9855,20.6745 -28.7447,34.8384 4.83222,-12.4736 14.2617,-25.3647 30.4112,-38.8658 8.32451,21.225 21.6652,39.5249 42.3366,53.549 -4.83506,3.48973 -8.12665,6.59367 -11.0324,11.6266 7.5223,4.21314 6.9429,7.65468 22.5669,12.6397 -17.6519,1.00006 -28.6107,-17.2797 -49.2531,-25.2899 -37.88,-14.6991 -60.5809,-6.85729 -79.5119,2.55969 20.9373,-17.9759 65.4999,-19.8808 104.803,8.73355 2.68725,-4.70268 5.37449,-7.72583 9.06945,-11.0849l-3.69496 -2.35134c-4.03314,2.23484 -7.27966,6.04347 -10.4131,10.0772 1.23137,-4.36706 3.35877,-8.28596 6.38221,-11.7567l-3.02315 -2.68725c-3.24766,1.36573 -6.49446,5.12051 -9.74126,8.39764 1.90347,-4.25481 4.14284,-7.50189 6.71811,-10.749l-3.02315 -3.02315c-3.47131,1.4332 -6.94233,6.44939 -10.4131,10.749 1.45531,-5.59843 3.80665,-10.3011 7.05402,-14.108l-3.02315 -3.69496c-3.24709,2.1274 -7.50189,7.94977 -11.7567,14.4439 -0.447874,-3.91918 2.68725,-10.0775 9.40536,-18.4748l-2.35134 -3.02315c-4.19896,1.67839 -9.01361,8.28454 -14.108,17.1312 0.783496,-4.92662 4.7024,-11.6447 11.7567,-20.1543l-2.68725 -5.03859c-6.04659,4.8138 -12.0929,12.0918 -18.1389,20.4902 1.45559,-7.44633 7.1657,-15.9559 15.7876,-25.1929l-1.67953 -3.02315c-8.28624,6.26939 -15.3403,16.2346 -21.8339,27.8802 0.0538583,-6.60558 8.11616,-18.1383 19.8184,-31.911l-1.67953 -2.68725zm108.777 138.697c-7.12347,-16.6348 -18.1049,-30.5691 -21.7562,-49.1327 0.702709,-7.6612 9.25059,-26.5076 19.4312,-47.4616 -17.0376,8.41493 -30.0722,17.5581 -37.2558,27.7654 12.2046,-9.20977 22.2815,-15.7598 30.9033,-20.4902l-4.03087 8.39764c-9.40536,4.70268 -18.4748,11.9806 -24.1852,18.1389 7.27796,-3.69496 16.2354,-10.749 21.8339,-12.4285l-4.70268 8.06174c-6.38221,3.24709 -13.1003,4.47874 -19.1466,9.74126 5.82237,-1.7915 11.9806,-4.25481 17.4671,-5.37449l-2.01543 5.7104 -13.7721 4.36677c4.36677,1.67953 8.39764,-0.335906 12.7644,-0.335906l-1.00772 4.03087 -11.4208 1.00772 13.4362 4.03087 1.67953 4.36677c-5.59843,-0.782079 -11.1971,-2.35021 -16.7953,-4.03087 5.82237,4.03087 12.9884,5.7104 18.4748,9.06945l2.35134 5.03859c-7.38992,-2.23937 -14.7798,-5.82237 -22.1698,-8.73355 7.93531,6.32608 16.361,10.6929 25.1929,13.4362l1.67953 5.03859c-7.8378,-2.46331 -15.6756,-6.94205 -23.5134,-10.4131 7.36158,6.0738 15.8151,11.0565 25.8647,14.4439l3.02315 5.37449c-6.0463,-2.05937 -12.0929,-5.08933 -18.1389,-8.06174 6.60615,4.87106 13.212,8.90136 19.8184,11.0849l5.99018 7.35818zm-104.043 28.7439c14.3756,-17.9416 29.5878,-33.7924 46.0216,-46.5891 -3.39222,-2.71134 -7.60763,-5.14829 -7.70684,-8.95607 5.7943,-3.11953 12.6184,-3.15213 20.4713,-0.0983623 -1.74671,-8.77238 -17.4336,-6.51317 -27.9142,1.40258l1.67953 2.68725 3.35906 -2.01543 5.7104 7.72583c-35.9629,27.0153 -34.8035,34.5311 -41.6208,45.8433zm-25.4463 -24.8559c3.9566,7.86359 4.63436,13.5414 2.41937,16.2612l-2.86923 -2.31449c-0.110835,-11.8137 -7.6133,-20.5469 -18.4748,-27.8802l1.67953 -1.34362c8.49204,4.3081 15.0242,9.1766 17.2451,15.277zm-57.7582 -15.8596c10.4227,7.78876 27.356,12.9226 39.0807,14.6721l-2.59852 -3.67654c-12.5405,-4.92662 -13.3243,-0.111969 -37.6214,-14.7798l1.13924 3.78425zm-44.0793 -28.6367c0.445607,5.52728 4.65307,8.16067 12.6218,7.90101 7.36526,7.11581 15.245,11.1458 23.6393,12.0895 26.276,-12.4277 23.2296,-37.7929 8.02262,-55.9369 11.0718,21.9458 11.5475,39.301 -8.39764,53.0731 -9.68599,-1.90318 -16.2921,-6.27024 -21.498,-11.7567 -6.14013,-0.44674 -10.9361,-2.23682 -14.3881,-5.36996zm13.9793 -10.0599c-28.6365,2.19713 -12.5206,-17.5961 2.05228,-18.8708 3.35509,-5.20895 8.31742,-8.81037 16.8182,-8.8733l0.0130394 2.86526c-17.7426,4.52665 -13.9286,9.41556 -17.2939,10.5061 -3.02684,0.980788 -13.3818,2.24221 -14.8674,8.44838 -1.32917,5.55251 21.2443,-3.15978 18.0533,8.92574l-4.77553 -3.00132z"/>
  <path fill="black" d="M421.984 286.017c-17.803,-4.19868 -24.107,-14.8927 -51.9395,-23.6815 -24.9931,-7.89222 -42.2822,-2.68696 -54.8785,-1.51143 21.8129,-7.7607 44.1338,-6.34933 62.3104,0.704693 18.1775,7.05402 28.1812,18.7447 44.5076,24.4882z"/>
  <path fill="black" d="M289.973 315.241c9.40564,-9.93742 10.3011,-22.534 5.37449,-36.9496 8.62186,13.6602 7.38992,26.8725 -3.69496,39.6369l-1.67953 0 0 -2.68725z"/>
  <path fill="black" d="M385.706 271.909l21.8339 21.1621c-2.23937,-6.38221 -10.861,-19.8184 -21.8339,-21.1621z"/>
  <path fill="black" d="M363.536 264.519c10.3011,8.62158 17.915,17.2432 26.8725,25.8647 -2.23937,-6.38221 -15.8995,-24.5211 -26.8725,-25.8647z"/>
  <path fill="black" d="M347.413 261.496c5.59843,6.60615 17.915,15.2277 25.1929,27.2084 -1.90347,-8.06174 -14.22,-25.8647 -25.1929,-27.2084z"/>
  <path fill="black" d="M317.853 265.191c5.59843,6.60615 11.8687,5.48646 24.1852,19.4825 -1.90347,-8.06174 -13.8841,-16.7953 -24.1852,-19.4825z"/>
  <path fill="black" d="M329.946 261.496c5.59843,6.60615 21.6099,14.22 28.8879,26.2006 -1.90347,-8.06174 -17.915,-24.857 -28.8879,-26.2006z"/>
  <path fill="black" d="M309.119 270.565c5.00145,5.48561 14.4927,8.68819 19.3139,15.9554 -0.559843,-6.0463 -8.67685,-13.604 -19.3139,-15.9554z"/>
  <path fill="black" stroke="black" stroke-width="0.216" d="M307.44 280.643l8.73355 -12.0926 3.02315 0.335906 -0.335906 2.35134c-4.47874,2.79921 -6.60615,7.94977 -11.4208,9.40536z"/>
  <path fill="black" stroke="black" stroke-width="0.216" d="M314.158 286.689c3.20825,-5.86092 6.7235,-10.491 10.3785,-14.5613l2.38592 2.46869c-4.47874,2.79921 -7.94977,10.637 -12.7644,12.0926z"/>
  <path fill="black" stroke="black" stroke-width="0.216" d="M326.922 288.873c1.75975,-4.14454 4.41241,-7.615 6.5503,-9.74183 0.78378,1.00772 1.39947,1.17581 2.18325,2.18353 -1.2291,1.1194 -4.58929,6.10243 -8.73355,7.5583z"/>
  <polygon fill="black" points="319.809,266.056 323.501,268.07 325.515,262.532 "/>
  <polygon fill="black" points="327.193,269.916 330.885,271.93 333.989,268.577 331.053,267.231 "/>
  <polygon fill="black" points="335.919,275.286 338.604,277.971 342.715,273.947 339.779,272.601 "/>
  <path fill="black" d="M342.464 289.55c3.10422,-1.95676 5.20186,-4.58476 7.80293,-5.87027l-1.92954 -3.69496c-2.85307,2.74082 -4.8104,5.92923 -5.87339,9.56523z"/>
  <path fill="black" d="M335.248 263.204l3.69184 2.34936c0.839056,-1.73424 2.18154,-3.3001 4.02747,-4.69871 -2.7411,0.223937 -5.1463,0.783213 -7.71931,2.34936z"/>
  <polygon fill="black" points="343.806,269.413 345.82,271.594 350.77,267.234 348.673,265.553 "/>
  <polygon fill="black" points="351.861,275.957 353.372,279.649 359.161,274.45 356.728,272.097 "/>
  <path fill="black" d="M355.385 291.396c3.88772,-2.40435 6.60019,-5.81556 10.1523,-8.21963l-1.92954 -3.02372c-3.35651,2.90863 -7.15975,7.60734 -8.22274,11.2433z"/>
  <polygon fill="black" points="352.533,263.707 355.05,261.693 355.218,262.7 354.043,265.553 "/>
  <polygon fill="black" points="359.581,269.58 363.944,267.063 365.79,268.573 361.594,271.594 "/>
  <polygon fill="black" points="366.461,276.964 370.992,274.111 373.341,275.957 368.642,279.817 "/>
  <path fill="black" d="M377.872 280.32l2.51717 1.84592c-2.1257,3.13229 -5.59389,4.41893 -7.88712,7.38369 0.0558425,-5.25884 1.50973,-5.81755 5.36996,-9.22961z"/>
  <polygon fill="black" points="365.957,265.049 370.656,264.546 370.153,265.385 367.971,266.895 "/>
  <path fill="black" d="M380.725 268.406c-1.95732,0.670961 -3.91521,1.56558 -5.87339,2.68498l2.68498 2.34936c1.28693,-1.45446 2.34992,-3.13257 3.18841,-5.03433z"/>
  <polygon fill="black" points="381.732,277.803 386.934,272.769 389.283,274.279 383.074,279.649 "/>
  <path fill="black" d="M387.773 285.522c0.894898,-2.68498 4.13915,-4.02747 6.20901,-6.0412l5.03433 -1.67811 -1.17468 2.34936 -8.89399 6.88026 -1.17468 -1.5103z"/>
  <polygon fill="black" points="395.66,290.221 401.701,284.012 404.722,284.012 403.379,286.194 396.667,291.731 "/>
  <path fill="black" d="M317.124 296.766l0 2.01373c52.8605,-2.46132 69.8094,1.45417 104.714,2.18154l-0.167811 -1.5103c-42.5608,-6.21666 -62.9363,-5.81103 -104.546,-2.68498z"/>
  <path fill="black" d="M430.229 309.016c-0.503433,-3.32816 1.5103,-6.6566 1.5103,-9.98504 0,-3.32816 -2.34936,-5.81726 -1.5103,-9.98448 5.24438,5.6075 5.94312,12.1241 0,19.9695z"/>
  <path fill="black" d="M406.232 328.985l4.5309 -3.35622 2.51717 1.5103c-0.783213,1.45417 2.12542,5.59361 3.18841,8.39056 -3.91578,-1.5103 -4.47506,-4.36309 -6.71244,-6.54463l-2.34936 1.34249 -1.17468 -1.34249z"/>
  <path fill="black" d="M353.372 348.284l2.18154 2.51717 10.2365 -0.671244c5.48079,9.85522 11.018,18.8119 16.9489,21.4798 -3.91578,-7.32785 -10.5163,-14.3201 -11.7468,-21.9833l4.02747 -1.00687c3.98551,7.76467 7.87295,14.059 11.4112,15.103 -2.92961,-3.41206 -5.57292,-9.11764 -8.05493,-16.1099l4.69871 -1.34249c1.80397,4.01329 4.18082,7.50898 8.22274,11.0755 -0.503433,-3.58016 -5.36996,-10.1806 -5.03433,-12.7536l4.5309 -2.51717c2.46104,2.7411 3.07644,6.99222 7.38369,8.22274 -0.895182,-4.19528 -3.636,-6.37682 -3.69184,-10.0687l2.68498 -2.34936c2.23739,2.29351 2.46104,5.09046 6.71244,6.88026 -0.895182,-5.09018 -3.80381,-4.97821 -3.69184,-8.72618l2.68498 -2.18154c1.45446,2.74139 3.80353,4.81096 7.04807,6.20901 -0.783213,-3.41206 -4.2514,-6.48851 -4.36309,-10.7399 -15.893,10.3626 -23.487,16.376 -52.1893,18.9627z"/>
  <path fill="black" d="M340.45 345.431c3.85966,5.48164 8.05493,9.11764 11.579,16.4455l0.671244 -1.17468c-1.70617,-5.32829 -6.06955,-10.3907 -12.2502,-15.2708z"/>
  <path fill="black" d="M315.782 302.136l-0.671244 2.68498c6.88026,2.62885 14.0961,-0.951024 25.6751,10.9077l-0.671244 1.34249c-6.36265,2.02762 -14.9941,-2.10926 -16.4767,-3.82366 -2.28189,-2.63877 -5.88444,-1.23194 -7.52032,-5.57377l-1.5103 1.00687c6.71131,12.8398 19.2971,13.6222 33.2266,10.0687 -2.01345,-3.5314 -6.43607,-6.36463 -10.2441,-9.15478 -3.57676,-2.62035 -6.51317,-5.28265 -9.37049,-6.0721 -4.03569,-1.11543 -8.92035,-0.232725 -12.4373,-1.38643z"/>
  <path fill="black" d="M285.576 279.146c4.95128,2.51717 6.0412,3.01096 6.0412,7.5515 0,4.54054 -5.06325,9.73928 -9.22961,8.05493 -4.16636,-1.68435 -6.71159,-4.52551 -6.88026,-8.05493 -0.168662,-3.52942 5.11739,-10.0687 10.0687,-7.5515z"/>
  <path fill="#CCCCCC" d="M287.422 290.892c-0.111969,-11.0755 -4.58703,-6.0412 -6.88026,-8.55837l1.67811 -1.67811c6.20873,0.950741 7.9424,4.36252 5.20214,10.2365z"/>
  <path fill="white" d="M279.367 283.341c-1.34589,1.17468 -1.512,2.34936 -1.5103,3.52403 1.62284,-0.113102 3.18869,-0.114803 4.36309,0.671244 0.670961,-0.783213 0.894331,-1.79008 0.671244,-3.0206 -1.17468,0.111685 -2.34936,-0.783213 -3.52403,-1.17468z"/>
  <path fill="#CCCCCC" d="M36.5814 280.268c3.35509,-5.20895 8.31742,-8.81037 16.8182,-8.8733 14.0488,-15.7161 33.531,-25.1632 60.9551,-25.4466 4.83222,-12.4736 14.2617,-25.3647 30.4112,-38.8658 8.32451,21.225 21.6652,39.5249 42.3366,53.549 -4.83506,3.48973 -8.12665,6.59367 -11.0324,11.6266 7.5223,4.21314 6.9429,7.65468 22.5669,12.6397 16.1138,-5.02271 16.0243,-20.0761 52.9711,-35.9008 -11.0619,22.6074 -20.7377,43.5056 -21.4875,51.6776 3.65131,18.5635 14.6327,32.4978 21.7562,49.1327 -13.3492,-3.17821 -28.821,-13.4311 -45.2571,-26.8997 -7.85282,-3.05377 -14.677,-3.02117 -20.4713,0.0983623 0.0992126,3.80778 4.31462,6.24473 7.70684,8.95607 -16.4339,12.7967 -31.646,28.6475 -46.0216,46.5891 -8.21651,-6.47944 -14.3756,-15.0165 -18.4762,-25.6108l-6.97011 0.754867c3.9566,7.86359 4.63436,13.5414 2.41937,16.2612 -8.96145,-1.18687 -16.3794,-10.4752 -21.0969,-17.4487 -15.6331,-2.33291 -40.5255,-10.6818 -46.899,-23.3184 -8.39424,-0.943654 -16.274,-4.97367 -23.6393,-12.0895 -10.6251,0.346394 -14.563,-4.45125 -11.8137,-14.3924 8.50536,2.92536 12.8957,1.73594 13.1712,-3.56854 -28.6365,2.19713 -12.5206,-17.5961 2.05228,-18.8708z"/>
  <path fill="white" d="M142.539 208.977c-14.7963,12.8143 -23.5786,25.0827 -28.184,36.9715 -27.4241,0.283465 -46.9063,9.73049 -60.9551,25.4466l0.771591 3.04469c16.5889,-11.4455 21.0895,-24.3054 63.2705,-25.8483 4.05071,-11.2207 12.2808,-22.8589 26.6199,-35.1074l-1.52277 -4.50709zm106.505 45.2821c0.843591,-1.74019 1.69994,-3.49597 2.56394,-5.26196 -36.9468,15.8247 -36.8572,30.8781 -52.9711,35.9008l1.36488 2.2731c17.119,-2.86895 13.405,-18.4691 49.0422,-32.912zm-124.237 115.698c-6.16082,-0.815811 -11.5923,-5.46123 -15.9185,-10.5508m-44.259 -21.57c-3.47386,-2.59597 -6.22489,-5.48731 -7.81824,-8.64624l1.60413 -0.35263c0.142016,2.87093 5.68545,5.48476 6.21411,8.99887zm-30.1 -38.6966c-0.275528,5.30448 -4.66583,6.49389 -13.1712,3.56854 -0.17178,0.621071 -0.31748,1.2223 -0.437103,1.8034 -0.358866,1.74359 -0.482457,3.30633 -0.371055,4.68794l5.0726 4.20605c-7.78848,-13.7599 17.1527,3.09005 8.90674,-14.2659z"/>
  <path fill="black" d="M143.1 211.11c-12.2448,7.88485 -20.9855,20.6745 -28.7447,34.8384 4.83222,-12.4736 14.2617,-25.3647 30.4112,-38.8658 8.32451,21.225 21.6652,39.5249 42.3366,53.549 -4.83506,3.48973 -8.12665,6.59367 -11.0324,11.6266 7.5223,4.21314 6.9429,7.65468 22.5669,12.6397 -17.6519,1.00006 -28.6107,-17.2797 -49.2531,-25.2899 -37.88,-14.6991 -60.5809,-6.85729 -79.5119,2.55969 20.9373,-17.9759 65.4999,-19.8808 104.803,8.73355 2.68725,-4.70268 5.37449,-7.72583 9.06945,-11.0849l-3.69496 -2.35134c-4.03314,2.23484 -7.27966,6.04347 -10.4131,10.0772 1.23137,-4.36706 3.35877,-8.28596 6.38221,-11.7567l-3.02315 -2.68725c-3.24766,1.36573 -6.49446,5.12051 -9.74126,8.39764 1.90347,-4.25481 4.14284,-7.50189 6.71811,-10.749l-3.02315 -3.02315c-3.47131,1.4332 -6.94233,6.44939 -10.4131,10.749 1.45531,-5.59843 3.80665,-10.3011 7.05402,-14.108l-3.02315 -3.69496c-3.24709,2.1274 -7.50189,7.94977 -11.7567,14.4439 -0.447874,-3.91918 2.68725,-10.0775 9.40536,-18.4748l-2.35134 -3.02315c-4.19896,1.67839 -9.01361,8.28454 -14.108,17.1312 0.783496,-4.92662 4.7024,-11.6447 11.7567,-20.1543l-2.68725 -5.03859c-6.04659,4.8138 -12.0929,12.0918 -18.1389,20.4902 1.45559,-7.44633 7.1657,-15.9559 15.7876,-25.1929l-1.67953 -3.02315c-8.28624,6.26939 -15.3403,16.2346 -21.8339,27.8802 0.0538583,-6.60558 8.11616,-18.1383 19.8184,-31.911l-1.67953 -2.68725zm108.777 138.697c-7.12347,-16.6348 -18.1049,-30.5691 -21.7562,-49.1327 0.702709,-7.6612 9.25059,-26.5076 19.4312,-47.4616 -17.0376,8.41493 -30.0722,17.5581 -37.2558,27.7654 12.2046,-9.20977 22.2815,-15.7598 30.9033,-20.4902l-4.03087 8.39764c-9.40536,4.70268 -18.4748,11.9806 -24.1852,18.1389 7.27796,-3.69496 16.2354,-10.749 21.8339,-12.4285l-4.70268 8.06174c-6.38221,3.24709 -13.1003,4.47874 -19.1466,9.74126 5.82237,-1.7915 11.9806,-4.25481 17.4671,-5.37449l-2.01543 5.7104 -13.7721 4.36677c4.36677,1.67953 8.39764,-0.335906 12.7644,-0.335906l-1.00772 4.03087 -11.4208 1.00772 13.4362 4.03087 1.67953 4.36677c-5.59843,-0.782079 -11.1971,-2.35021 -16.7953,-4.03087 5.82237,4.03087 12.9884,5.7104 18.4748,9.06945l2.35134 5.03859c-7.38992,-2.23937 -14.7798,-5.82237 -22.1698,-8.73355 7.93531,6.32608 16.361,10.6929 25.1929,13.4362l1.67953 5.03859c-7.8378,-2.46331 -15.6756,-6.94205 -23.5134,-10.4131 7.36158,6.0738 15.8151,11.0565 25.8647,14.4439l3.02315 5.37449c-6.0463,-2.05937 -12.0929,-5.08933 -18.1389,-8.06174 6.60615,4.87106 13.212,8.90136 19.8184,11.0849l5.99018 7.35818zm-104.043 28.7439c14.3756,-17.9416 29.5878,-33.7924 46.0216,-46.5891 -3.39222,-2.71134 -7.60763,-5.14829 -7.70684,-8.95607 5.7943,-3.11953 12.6184,-3.15213 20.4713,-0.0983623 -1.74671,-8.77238 -17.4336,-6.51317 -27.9142,1.40258l1.67953 2.68725 3.35906 -2.01543 5.7104 7.72583c-35.9629,27.0153 -34.8035,34.5311 -41.6208,45.8433zm-25.4463 -24.8559c3.9566,7.86359 4.63436,13.5414 2.41937,16.2612l-2.86923 -2.31449c-0.110835,-11.8137 -7.6133,-20.5469 -18.4748,-27.8802l1.67953 -1.34362c8.49204,4.3081 15.0242,9.1766 17.2451,15.277zm-57.7582 -15.8596c10.4227,7.78876 27.356,12.9226 39.0807,14.6721l-2.59852 -3.67654c-12.5405,-4.92662 -13.3243,-0.111969 -37.6214,-14.7798l1.13924 3.78425zm-44.0793 -28.6367c0.445607,5.52728 4.65307,8.16067 12.6218,7.90101 7.36526,7.11581 15.245,11.1458 23.6393,12.0895 26.276,-12.4277 23.2296,-37.7929 8.02262,-55.9369 11.0718,21.9458 11.5475,39.301 -8.39764,53.0731 -9.68599,-1.90318 -16.2921,-6.27024 -21.498,-11.7567 -6.14013,-0.44674 -10.9361,-2.23682 -14.3881,-5.36996zm13.9793 -10.0599c-28.6365,2.19713 -12.5206,-17.5961 2.05228,-18.8708 3.35509,-5.20895 8.31742,-8.81037 16.8182,-8.8733l0.0130394 2.86526c-17.7426,4.52665 -13.9286,9.41556 -17.2939,10.5061 -3.02684,0.980788 -13.3818,2.24221 -14.8674,8.44838 -1.32917,5.55251 21.2443,-3.15978 18.0533,8.92574l-4.77553 -3.00132z"/>
  <path fill="black" d="M189.119 286.017c-17.803,-4.19868 -24.107,-14.8927 -51.9395,-23.6815 -24.9931,-7.89222 -42.2822,-2.68696 -54.8785,-1.51143 21.8129,-7.7607 44.1338,-6.34933 62.3104,0.704693 18.1775,7.05402 28.1812,18.7447 44.5076,24.4882z"/>
  <path fill="black" d="M57.1077 315.241c9.40564,-9.93742 10.3011,-22.534 5.37449,-36.9496 8.62186,13.6602 7.38992,26.8725 -3.69496,39.6369l-1.67953 0 0 -2.68725z"/>
  <path fill="black" d="M152.841 271.909l21.8339 21.1621c-2.23937,-6.38221 -10.861,-19.8184 -21.8339,-21.1621z"/>
  <path fill="black" d="M130.671 264.519c10.3011,8.62158 17.915,17.2432 26.8725,25.8647 -2.23937,-6.38221 -15.8995,-24.5211 -26.8725,-25.8647z"/>
  <path fill="black" d="M114.548 261.496c5.59843,6.60615 17.915,15.2277 25.1929,27.2084 -1.90347,-8.06174 -14.22,-25.8647 -25.1929,-27.2084z"/>
  <path fill="black" d="M84.9878 265.191c5.59843,6.60615 11.8687,5.48646 24.1852,19.4825 -1.90347,-8.06174 -13.8841,-16.7953 -24.1852,-19.4825z"/>
  <path fill="black" d="M97.0804 261.496c5.59843,6.60615 21.6099,14.22 28.8879,26.2006 -1.90347,-8.06174 -17.915,-24.857 -28.8879,-26.2006z"/>
  <path fill="black" d="M76.2543 270.565c5.00145,5.48561 14.4927,8.68819 19.3139,15.9554 -0.559843,-6.0463 -8.67685,-13.604 -19.3139,-15.9554z"/>
  <path fill="black" stroke="black" stroke-width="0.216" d="M74.5747 280.643l8.73355 -12.0926 3.02315 0.335906 -0.335906 2.35134c-4.47874,2.79921 -6.60615,7.94977 -11.4208,9.40536z"/>
  <path fill="black" stroke="black" stroke-width="0.216" d="M81.2929 286.689c3.20825,-5.86092 6.7235,-10.491 10.3785,-14.5613l2.38592 2.46869c-4.47874,2.79921 -7.94977,10.637 -12.7644,12.0926z"/>
  <path fill="black" stroke="black" stroke-width="0.216" d="M94.0573 288.873c1.75975,-4.14454 4.41241,-7.615 6.5503,-9.74183 0.78378,1.00772 1.39947,1.17581 2.18325,2.18353 -1.2291,1.1194 -4.58929,6.10243 -8.73355,7.5583z"/>
  <polygon fill="black" points="86.9443,266.056 90.6361,268.07 92.6499,262.532 "/>
  <polygon fill="black" points="94.328,269.916 98.0198,271.93 101.124,268.577 98.1876,267.231 "/>
  <polygon fill="black" points="103.054,275.286 105.739,277.971 109.85,273.947 106.914,272.601 "/>
  <path fill="black" d="M109.599 289.55c3.10422,-1.95676 5.20186,-4.58476 7.80293,-5.87027l-1.92954 -3.69496c-2.85307,2.74082 -4.8104,5.92923 -5.87339,9.56523z"/>
  <path fill="black" d="M102.383 263.204l3.69184 2.34936c0.839056,-1.73424 2.18154,-3.3001 4.02747,-4.69871 -2.7411,0.223937 -5.1463,0.783213 -7.71931,2.34936z"/>
  <polygon fill="black" points="110.941,269.413 112.955,271.594 117.905,267.234 115.808,265.553 "/>
  <polygon fill="black" points="118.996,275.957 120.507,279.649 126.296,274.45 123.863,272.097 "/>
  <path fill="black" d="M122.52 291.396c3.88772,-2.40435 6.60019,-5.81556 10.1523,-8.21963l-1.92954 -3.02372c-3.35651,2.90863 -7.15975,7.60734 -8.22274,11.2433z"/>
  <polygon fill="black" points="119.667,263.707 122.185,261.693 122.352,262.7 121.178,265.553 "/>
  <polygon fill="black" points="126.716,269.58 131.079,267.063 132.925,268.573 128.729,271.594 "/>
  <polygon fill="black" points="133.596,276.964 138.127,274.111 140.476,275.957 135.777,279.817 "/>
  <path fill="black" d="M145.007 280.32l2.51717 1.84592c-2.1257,3.13229 -5.59389,4.41893 -7.88712,7.38369 0.0558425,-5.25884 1.50973,-5.81755 5.36996,-9.22961z"/>
  <polygon fill="black" points="133.092,265.049 137.791,264.546 137.288,265.385 135.106,266.895 "/>
  <path fill="black" d="M147.86 268.406c-1.95732,0.670961 -3.91521,1.56558 -5.87339,2.68498l2.68498 2.34936c1.28693,-1.45446 2.34992,-3.13257 3.18841,-5.03433z"/>
  <polygon fill="black" points="148.867,277.803 154.069,272.769 156.418,274.279 150.209,279.649 "/>
  <path fill="black" d="M154.908 285.522c0.894898,-2.68498 4.13915,-4.02747 6.20901,-6.0412l5.03433 -1.67811 -1.17468 2.34936 -8.89399 6.88026 -1.17468 -1.5103z"/>
  <polygon fill="black" points="162.795,290.221 168.836,284.012 171.857,284.012 170.514,286.194 163.802,291.731 "/>
  <path fill="black" d="M84.2593 296.766l0 2.01373c52.8605,-2.46132 69.8094,1.45417 104.714,2.18154l-0.167811 -1.5103c-42.5608,-6.21666 -62.9363,-5.81103 -104.546,-2.68498z"/>
  <path fill="black" d="M197.364 309.016c-0.503433,-3.32816 1.5103,-6.6566 1.5103,-9.98504 0,-3.32816 -2.34936,-5.81726 -1.5103,-9.98448 5.24438,5.6075 5.94312,12.1241 0,19.9695z"/>
  <path fill="black" d="M173.367 328.985l4.5309 -3.35622 2.51717 1.5103c-0.783213,1.45417 2.12542,5.59361 3.18841,8.39056 -3.91578,-1.5103 -4.47506,-4.36309 -6.71244,-6.54463l-2.34936 1.34249 -1.17468 -1.34249z"/>
  <path fill="black" d="M120.507 348.284l2.18154 2.51717 10.2365 -0.671244c5.48079,9.85522 11.018,18.8119 16.9489,21.4798 -3.91578,-7.32785 -10.5163,-14.3201 -11.7468,-21.9833l4.02747 -1.00687c3.98551,7.76467 7.87295,14.059 11.4112,15.103 -2.92961,-3.41206 -5.57292,-9.11764 -8.05493,-16.1099l4.69871 -1.34249c1.80397,4.01329 4.18082,7.50898 8.22274,11.0755 -0.503433,-3.58016 -5.36996,-10.1806 -5.03433,-12.7536l4.5309 -2.51717c2.46104,2.7411 3.07644,6.99222 7.38369,8.22274 -0.895182,-4.19528 -3.636,-6.37682 -3.69184,-10.0687l2.68498 -2.34936c2.23739,2.29351 2.46104,5.09046 6.71244,6.88026 -0.895182,-5.09018 -3.80381,-4.97821 -3.69184,-8.72618l2.68498 -2.18154c1.45446,2.74139 3.80353,4.81096 7.04807,6.20901 -0.783213,-3.41206 -4.2514,-6.48851 -4.36309,-10.7399 -15.893,10.3626 -23.487,16.376 -52.1893,18.9627z"/>
  <path fill="black" d="M107.585 345.431c3.85966,5.48164 8.05493,9.11764 11.579,16.4455l0.671244 -1.17468c-1.70617,-5.32829 -6.06955,-10.3907 -12.2502,-15.2708z"/>
  <path fill="black" d="M82.9168 302.136l-0.671244 2.68498c6.88026,2.62885 14.0961,-0.951024 25.6751,10.9077l-0.671244 1.34249c-6.36265,2.02762 -14.9941,-2.10926 -16.4767,-3.82366 -2.28189,-2.63877 -5.88444,-1.23194 -7.52032,-5.57377l-1.5103 1.00687c6.71131,12.8398 19.2971,13.6222 33.2266,10.0687 -2.01345,-3.5314 -6.43607,-6.36463 -10.2441,-9.15478 -3.57676,-2.62035 -6.51317,-5.28265 -9.37049,-6.0721 -4.03569,-1.11543 -8.92035,-0.232725 -12.4373,-1.38643z"/>
  <path fill="black" d="M52.7108 279.146c4.95128,2.51717 6.0412,3.01096 6.0412,7.5515 0,4.54054 -5.06325,9.73928 -9.22961,8.05493 -4.16636,-1.68435 -6.71159,-4.52551 -6.88026,-8.05493 -0.168662,-3.52942 5.11739,-10.0687 10.0687,-7.5515z"/>
  <path fill="#CCCCCC" d="M54.5568 290.892c-0.111969,-11.0755 -4.58703,-6.0412 -6.88026,-8.55837l1.67811 -1.67811c6.20873,0.950741 7.9424,4.36252 5.20214,10.2365z"/>
  <path fill="white" d="M46.5018 283.341c-1.34589,1.17468 -1.512,2.34936 -1.5103,3.52403 1.62284,-0.113102 3.18869,-0.114803 4.36309,0.671244 0.670961,-0.783213 0.894331,-1.79008 0.671244,-3.0206 -1.17468,0.111685 -2.34936,-0.783213 -3.52403,-1.17468z"/>
  <path fill="#CCCCCC" d="M158.217 425.547c3.35509,-5.20895 8.31742,-8.81037 16.8182,-8.8733 14.0488,-15.7161 33.531,-25.1632 60.9551,-25.4466 4.83222,-12.4736 14.2617,-25.3647 30.4112,-38.8658 8.32451,21.225 21.6652,39.5249 42.3366,53.549 -4.83506,3.48973 -8.12665,6.59367 -11.0324,11.6266 7.5223,4.21314 6.9429,7.65468 22.5669,12.6397 16.1138,-5.02271 16.0243,-20.0761 52.9711,-35.9008 -11.0619,22.6074 -20.7377,43.5056 -21.4875,51.6776 3.65131,18.5635 14.6327,32.4978 21.7562,49.1327 -13.3492,-3.17821 -28.821,-13.4311 -45.2571,-26.8997 -7.85282,-3.05377 -14.677,-3.02117 -20.4713,0.0983623 0.0992126,3.80778 4.31462,6.24473 7.70684,8.95607 -16.4339,12.7967 -31.646,28.6475 -46.0216,46.5891 -8.21651,-6.47944 -14.3756,-15.0165 -18.4762,-25.6108l-6.97011 0.754867c3.9566,7.86359 4.63436,13.5414 2.41937,16.2612 -8.96145,-1.18687 -16.3794,-10.4752 -21.0969,-17.4487 -15.6331,-2.33291 -40.5255,-10.6818 -46.899,-23.3184 -8.39424,-0.943654 -16.274,-4.97367 -23.6393,-12.0895 -10.6251,0.346394 -14.563,-4.45125 -11.8137,-14.3924 8.50536,2.92536 12.8957,1.73594 13.1712,-3.56854 -28.6365,2.19713 -12.5206,-17.5961 2.05228,-18.8708z"/>
  <path fill="white" d="M264.175 354.256c-14.7963,12.8143 -23.5786,25.0827 -28.184,36.9715 -27.4241,0.283465 -46.9063,9.73049 -60.9551,25.4466l0.771591 3.04469c16.5889,-11.4455 21.0895,-24.3054 63.2705,-25.8483 4.05071,-11.2207 12.2808,-22.8589 26.6199,-35.1074l-1.52277 -4.50709zm106.505 45.2821c0.843591,-1.74019 1.69994,-3.49597 2.56394,-5.26196 -36.9468,15.8247 -36.8572,30.8781 -52.9711,35.9008l1.36488 2.2731c17.119,-2.86895 13.405,-18.4691 49.0422,-32.912zm-124.237 115.698c-6.16082,-0.815811 -11.5923,-5.46123 -15.9185,-10.5508m-44.259 -21.57c-3.47386,-2.59597 -6.22489,-5.48731 -7.81824,-8.64624l1.60413 -0.35263c0.142016,2.87093 5.68545,5.48476 6.21411,8.99887zm-30.1 -38.6966c-0.275528,5.30448 -4.66583,6.49389 -13.1712,3.56854 -0.17178,0.621071 -0.31748,1.2223 -0.437103,1.8034 -0.358866,1.74359 -0.482457,3.30633 -0.371055,4.68794l5.0726 4.20605c-7.78848,-13.7599 17.1527,3.09005 8.90674,-14.2659z"/>
  <path fill="black" d="M264.735 356.389c-12.2448,7.88485 -20.9855,20.6745 -28.7447,34.8384 4.83222,-12.4736 14.2617,-25.3647 30.4112,-38.8658 8.32451,21.225 21.6652,39.5249 42.3366,53.549 -4.83506,3.48973 -8.12665,6.59367 -11.0324,11.6266 7.5223,4.21314 6.9429,7.65468 22.5669,12.6397 -17.6519,1.00006 -28.6107,-17.2797 -49.2531,-25.2899 -37.88,-14.6991 -60.5809,-6.85729 -79.5119,2.55969 20.9373,-17.9759 65.4999,-19.8808 104.803,8.73355 2.68725,-4.70268 5.37449,-7.72583 9.06945,-11.0849l-3.69496 -2.35134c-4.03314,2.23484 -7.27966,6.04347 -10.4131,10.0772 1.23137,-4.36706 3.35877,-8.28596 6.38221,-11.7567l-3.02315 -2.68725c-3.24766,1.36573 -6.49446,5.12051 -9.74126,8.39764 1.90347,-4.25481 4.14284,-7.50189 6.71811,-10.749l-3.02315 -3.02315c-3.47131,1.4332 -6.94233,6.44939 -10.4131,10.749 1.45531,-5.59843 3.80665,-10.3011 7.05402,-14.108l-3.02315 -3.69496c-3.24709,2.1274 -7.50189,7.94977 -11.7567,14.4439 -0.447874,-3.91918 2.68725,-10.0775 9.40536,-18.4748l-2.35134 -3.02315c-4.19896,1.67839 -9.01361,8.28454 -14.108,17.1312 0.783496,-4.92662 4.7024,-11.6447 11.7567,-20.1543l-2.68725 -5.03859c-6.04659,4.8138 -12.0929,12.0918 -18.1389,20.4902 1.45559,-7.44633 7.1657,-15.9559 15.7876,-25.1929l-1.67953 -3.02315c-8.28624,6.26939 -15.3403,16.2346 -21.8339,27.8802 0.0538583,-6.60558 8.11616,-18.1383 19.8184,-31.911l-1.67953 -2.68725zm108.777 138.697c-7.12347,-16.6348 -18.1049,-30.5691 -21.7562,-49.1327 0.702709,-7.6612 9.25059,-26.5076 19.4312,-47.4616 -17.0376,8.41493 -30.0722,17.5581 -37.2558,27.7654 12.2046,-9.20977 22.2815,-15.7598 30.9033,-20.4902l-4.03087 8.39764c-9.40536,4.70268 -18.4748,11.9806 -24.1852,18.1389 7.27796,-3.69496 16.2354,-10.749 21.8339,-12.4285l-4.70268 8.06174c-6.38221,3.24709 -13.1003,4.47874 -19.1466,9.74126 5.82237,-1.7915 11.9806,-4.25481 17.4671,-5.37449l-2.01543 5.7104 -13.7721 4.36677c4.36677,1.67953 8.39764,-0.335906 12.7644,-0.335906l-1.00772 4.03087 -11.4208 1.00772 13.4362 4.03087 1.67953 4.36677c-5.59843,-0.782079 -11.1971,-2.35021 -16.7953,-4.03087 5.82237,4.03087 12.9884,5.7104 18.4748,9.06945l2.35134 5.03859c-7.38992,-2.23937 -14.7798,-5.82237 -22.1698,-8.73355 7.93531,6.32608 16.361,10.6929 25.1929,13.4362l1.67953 5.03859c-7.8378,-2.46331 -15.6756,-6.94205 -23.5134,-10.4131 7.36158,6.0738 15.8151,11.0565 25.8647,14.4439l3.02315 5.37449c-6.0463,-2.05937 -12.0929,-5.08933 -18.1389,-8.06174 6.60615,4.87106 13.212,8.90136 19.8184,11.0849l5.99018 7.35818zm-104.043 28.7439c14.3756,-17.9416 29.5878,-33.7924 46.0216,-46.5891 -3.39222,-2.71134 -7.60763,-5.14829 -7.70684,-8.95607 5.7943,-3.11953 12.6184,-3.15213 20.4713,-0.0983623 -1.74671,-8.77238 -17.4336,-6.51317 -27.9142,1.40258l1.67953 2.68725 3.35906 -2.01543 5.7104 7.72583c-35.9629,27.0153 -34.8035,34.5311 -41.6208,45.8433zm-25.4463 -24.8559c3.9566,7.86359 4.63436,13.5414 2.41937,16.2612l-2.86923 -2.31449c-0.110835,-11.8137 -7.6133,-20.5469 -18.4748,-27.8802l1.67953 -1.34362c8.49204,4.3081 15.0242,9.1766 17.2451,15.277zm-57.7582 -15.8596c10.4227,7.78876 27.356,12.9226 39.0807,14.6721l-2.59852 -3.67654c-12.5405,-4.92662 -13.3243,-0.111969 -37.6214,-14.7798l1.13924 3.78425zm-44.0793 -28.6367c0.445607,5.52728 4.65307,8.16067 12.6218,7.90101 7.36526,7.11581 15.245,11.1458 23.6393,12.0895 26.276,-12.4277 23.2296,-37.7929 8.02262,-55.9369 11.0718,21.9458 11.5475,39.301 -8.39764,53.0731 -9.68599,-1.90318 -16.2921,-6.27024 -21.498,-11.7567 -6.14013,-0.44674 -10.9361,-2.23682 -14.3881,-5.36996zm13.9793 -10.0599c-28.6365,2.19713 -12.5206,-17.5961 2.05228,-18.8708 3.35509,-5.20895 8.31742,-8.81037 16.8182,-8.8733l0.0130394 2.86526c-17.7426,4.52665 -13.9286,9.41556 -17.2939,10.5061 -3.02684,0.980788 -13.3818,2.24221 -14.8674,8.44838 -1.32917,5.55251 21.2443,-3.15978 18.0533,8.92574l-4.77553 -3.00132z"/>
  <path fill="black" d="M310.754 431.296c-17.803,-4.19868 -24.107,-14.8927 -51.9395,-23.6815 -24.9931,-7.89222 -42.2822,-2.68696 -54.8785,-1.51143 21.8129,-7.7607 44.1338,-6.34933 62.3104,0.704693 18.1775,7.05402 28.1812,18.7447 44.5076,24.4882z"/>
  <path fill="black" d="M178.743 460.52c9.40564,-9.93742 10.3011,-22.534 5.37449,-36.9496 8.62186,13.6602 7.38992,26.8725 -3.69496,39.6369l-1.67953 0 0 -2.68725z"/>
  <path fill="black" d="M274.477 417.188l21.8339 21.1621c-2.23937,-6.38221 -10.861,-19.8184 -21.8339,-21.1621z"/>
  <path fill="black" d="M252.307 409.798c10.3011,8.62158 17.915,17.2432 26.8725,25.8647 -2.23937,-6.38221 -15.8995,-24.5211 -26.8725,-25.8647z"/>
  <path fill="black" d="M236.183 406.775c5.59843,6.60615 17.915,15.2277 25.1929,27.2084 -1.90347,-8.06174 -14.22,-25.8647 -25.1929,-27.2084z"/>
  <path fill="black" d="M206.624 410.47c5.59843,6.60615 11.8687,5.48646 24.1852,19.4825 -1.90347,-8.06174 -13.8841,-16.7953 -24.1852,-19.4825z"/>
  <path fill="black" d="M218.716 406.775c5.59843,6.60615 21.6099,14.22 28.8879,26.2006 -1.90347,-8.06174 -17.915,-24.857 -28.8879,-26.2006z"/>
  <path fill="black" d="M197.89 415.844c5.00145,5.48561 14.4927,8.68819 19.3139,15.9554 -0.559843,-6.0463 -8.67685,-13.604 -19.3139,-15.9554z"/>
  <path fill="black" stroke="black" stroke-width="0.216" d="M196.211 425.922l8.73355 -12.0926 3.02315 0.335906 -0.335906 2.35134c-4.47874,2.79921 -6.60615,7.94977 -11.4208,9.40536z"/>
  <path fill="black" stroke="black" stroke-width="0.216" d="M202.929 431.968c3.20825,-5.86092 6.7235,-10.491 10.3785,-14.5613l2.38592 2.46869c-4.47874,2.79921 -7.94977,10.637 -12.7644,12.0926z"/>
  <path fill="black" stroke="black" stroke-width="0.216" d="M215.693 434.152c1.75975,-4.14454 4.41241,-7.615 6.5503,-9.74183 0.78378,1.00772 1.39947,1.17581 2.18325,2.18353 -1.2291,1.1194 -4.58929,6.10243 -8.73355,7.5583z"/>
  <polygon fill="black" points="208.58,411.335 212.272,413.349 214.286,407.811 "/>
  <polygon fill="black" points="215.964,415.195 219.656,417.209 222.76,413.856 219.823,412.51 "/>
  <polygon fill="black" points="224.69,420.565 227.375,423.25 231.486,419.226 228.55,417.88 "/>
  <path fill="black" d="M231.235 434.829c3.10422,-1.95676 5.20186,-4.58476 7.80293,-5.87027l-1.92954 -3.69496c-2.85307,2.74082 -4.8104,5.92923 -5.87339,9.56523z"/>
  <path fill="black" d="M224.019 408.483l3.69184 2.34936c0.839056,-1.73424 2.18154,-3.3001 4.02747,-4.69871 -2.7411,0.223937 -5.1463,0.783213 -7.71931,2.34936z"/>
  <polygon fill="black" points="232.577,414.692 234.591,416.873 239.541,412.513 237.444,410.832 "/>
  <polygon fill="black" points="240.632,421.236 242.142,424.928 247.932,419.729 245.499,417.377 "/>
  <path fill="black" d="M244.156 436.675c3.88772,-2.40435 6.60019,-5.81556 10.1523,-8.21963l-1.92954 -3.02372c-3.35651,2.90863 -7.15975,7.60734 -8.22274,11.2433z"/>
  <polygon fill="black" points="241.303,408.986 243.82,406.972 243.988,407.979 242.814,410.832 "/>
  <polygon fill="black" points="248.351,414.859 252.714,412.342 254.56,413.853 250.365,416.873 "/>
  <polygon fill="black" points="255.232,422.243 259.763,419.39 262.112,421.236 257.413,425.096 "/>
  <path fill="black" d="M266.643 425.599l2.51717 1.84592c-2.1257,3.13229 -5.59389,4.41893 -7.88712,7.38369 0.0558425,-5.25884 1.50973,-5.81755 5.36996,-9.22961z"/>
  <polygon fill="black" points="254.728,410.328 259.427,409.825 258.923,410.664 256.742,412.174 "/>
  <path fill="black" d="M269.496 413.685c-1.95732,0.670961 -3.91521,1.56558 -5.87339,2.68498l2.68498 2.34936c1.28693,-1.45446 2.34992,-3.13257 3.18841,-5.03433z"/>
  <polygon fill="black" points="270.502,423.082 275.705,418.048 278.054,419.558 271.845,424.928 "/>
  <path fill="black" d="M276.544 430.801c0.894898,-2.68498 4.13915,-4.02747 6.20901,-6.0412l5.03433 -1.67811 -1.17468 2.34936 -8.89399 6.88026 -1.17468 -1.5103z"/>
  <polygon fill="black" points="284.431,435.5 290.472,429.291 293.493,429.291 292.15,431.473 285.438,437.01 "/>
  <path fill="black" d="M205.895 442.045l0 2.01373c52.8605,-2.46132 69.8094,1.45417 104.714,2.18154l-0.167811 -1.5103c-42.5608,-6.21666 -62.9363,-5.81103 -104.546,-2.68498z"/>
  <path fill="black" d="M319 454.295c-0.503433,-3.32816 1.5103,-6.6566 1.5103,-9.98504 0,-3.32816 -2.34936,-5.81726 -1.5103,-9.98448 5.24438,5.6075 5.94312,12.1241 0,19.9695z"/>
  <path fill="black" d="M295.003 474.265l4.5309 -3.35622 2.51717 1.5103c-0.783213,1.45417 2.12542,5.59361 3.18841,8.39056 -3.91578,-1.5103 -4.47506,-4.36309 -6.71244,-6.54463l-2.34936 1.34249 -1.17468 -1.34249z"/>
  <path fill="black" d="M242.142 493.563l2.18154 2.51717 10.2365 -0.671244c5.48079,9.85522 11.018,18.8119 16.9489,21.4798 -3.91578,-7.32785 -10.5163,-14.3201 -11.7468,-21.9833l4.02747 -1.00687c3.98551,7.76467 7.87295,14.059 11.4112,15.103 -2.92961,-3.41206 -5.57292,-9.11764 -8.05493,-16.1099l4.69871 -1.34249c1.80397,4.01329 4.18082,7.50898 8.22274,11.0755 -0.503433,-3.58016 -5.36996,-10.1806 -5.03433,-12.7536l4.5309 -2.51717c2.46104,2.7411 3.07644,6.99222 7.38369,8.22274 -0.895182,-4.19528 -3.636,-6.37682 -3.69184,-10.0687l2.68498 -2.34936c2.23739,2.29351 2.46104,5.09046 6.71244,6.88026 -0.895182,-5.09018 -3.80381,-4.97821 -3.69184,-8.72618l2.68498 -2.18154c1.45446,2.74139 3.80353,4.81096 7.04807,6.20901 -0.783213,-3.41206 -4.2514,-6.48851 -4.36309,-10.7399 -15.893,10.3626 -23.487,16.376 -52.1893,18.9627z"/>
  <path fill="black" d="M229.221 490.71c3.85966,5.48164 8.05493,9.11764 11.579,16.4455l0.671244 -1.17468c-1.70617,-5.32829 -6.06955,-10.3907 -12.2502,-15.2708z"/>
  <path fill="black" d="M204.553 447.415l-0.671244 2.68498c6.88026,2.62885 14.0961,-0.951024 25.6751,10.9077l-0.671244 1.34249c-6.36265,2.02762 -14.9941,-2.10926 -16.4767,-3.82366 -2.28189,-2.63877 -5.88444,-1.23194 -7.52032,-5.57377l-1.5103 1.00687c6.71131,12.8398 19.2971,13.6222 33.2266,10.0687 -2.01345,-3.5314 -6.43607,-6.36463 -10.2441,-9.15478 -3.57676,-2.62035 -6.51317,-5.28265 -9.37049,-6.0721 -4.03569,-1.11543 -8.92035,-0.232725 -12.4373,-1.38643z"/>
  <path fill="black" d="M174.347 424.425c4.95128,2.51717 6.0412,3.01096 6.0412,7.5515 0,4.54054 -5.06325,9.73928 -9.22961,8.05493 -4.16636,-1.68435 -6.71159,-4.52551 -6.88026,-8.05493 -0.168662,-3.52942 5.11739,-10.0687 10.0687,-7.5515z"/>
  <path fill="#CCCCCC" d="M176.193 436.171c-0.111969,-11.0755 -4.58703,-6.0412 -6.88026,-8.55837l1.67811 -1.67811c6.20873,0.950741 7.9424,4.36252 5.20214,10.2365z"/>
  <path fill="white" d="M168.138 428.62c-1.34589,1.17468 -1.512,2.34936 -1.5103,3.52403 1.62284,-0.113102 3.18869,-0.114803 4.36309,0.671244 0.670961,-0.783213 0.894331,-1.79008 0.671244,-3.0206 -1.17468,0.111685 -2.34936,-0.783213 -3.52403,-1.17468z"/>
 </g>
</svg>
