<?xml version="1.0" encoding="UTF-8"?>
<!DOCTYPE svg PUBLIC "-//W3C//DTD SVG 1.1//EN" "http://www.w3.org/Graphics/SVG/1.1/DTD/svg11.dtd">
<!-- Creator: CorelDRAW -->
<svg xmlns="http://www.w3.org/2000/svg" xml:space="preserve" width="500px" height="573px" shape-rendering="geometricPrecision" text-rendering="geometricPrecision" image-rendering="optimizeQuality" fill-rule="evenodd" clip-rule="evenodd"
viewBox="0 0 500 573"
 xmlns:xlink="http://www.w3.org/1999/xlink"
 xmlns:svg="http://www.w3.org/2000/svg"
 version="1.0">
 <g id="Layer_x0020_1">
  <metadata id="CorelCorpID_0Corel-Layer"/>
  <path id="path1937" fill="#F00000" stroke="black" stroke-width="0.510236" d="M0.309827 0.714615l499.412 -0.000283465 -0.000850394 343.607c-4.59156,117.074 -98.9139,224.508 -248.668,226.583 -142.49,0 -243.039,-121.236 -250.744,-234.158l0 -336.032z"/>
  <path id="path1937_0" fill="#BF9F4F" stroke="black" stroke-width="0.216" d="M469.446 438.959c-14.8235,26.4135 -33.8599,51.9103 -58.6517,71.4135l0.388347 -262.016c0.106583,-71.8532 -68.0117,-150.864 -163.305,-151.008 -95.2937,-0.144284 -164.171,79.693 -163.897,158.224 0.274394,78.5311 60.6135,169.882 153.724,169.261 93.1102,-0.620504 119.549,-37.6095 142.651,-51.586 2.01855,-2.21698 5.17635,1.41846 2.67902,3.74655 -20.5982,25.3253 -64.0214,80.8634 -152.598,80.4668 -101.231,-0.453544 -190.953,-84.9209 -191.478,-197.1 -0.527528,-112.7 92.5563,-217.715 206.385,-218.432 113.829,-0.716882 225.023,90.2688 224.418,214.272l-0.31578 182.758z"/>
  <path fill="#BF9F4F" stroke="black" stroke-width="0.216" d="M105.188 179.59l82.1243 24.5857c-17.4325,-28.2461 -4.3767,-30.9059 -6.78501,-45.934 -2.23228,-13.9317 -18.1398,-15.7538 -16.5047,-38.02 11.689,22.0725 27.0998,14.4899 36.5309,25.8877 12.1258,14.6546 2.24929,26.5136 28.4604,37.0738l22.2361 -86.3706 24.52 84.2171c10.2654,-26.5932 31.6925,-21.9268 41.4241,-32.9783 7.16032,-8.13175 3.09912,-17.3285 19.2416,-24.8264 -13.297,20.251 -2.15887,29.7329 -7.09484,42.4327 -5.34104,13.7427 -17.6675,16.0075 -17.9232,38.8069l83.185 -18.9394 -61.5399 50.999c28.6767,1.84932 20.6504,11.4052 37.2793,16.7933 14.1188,4.57455 24.2668,-3.72331 40.8223,7.28703 -25.0866,0.410457 -25.6669,15.73 -39.2868,16.9693 -15.2728,1.38983 -21.0529,-11.827 -37.0525,2.92337l58.4422 59.6038 -75.6148 -23.9678c-3.34375,11.0237 8.03878,17.3891 8.26952,41.146 0.162425,16.7148 16.7701,19.889 15.1492,43.7236 -9.85975,-23.5888 -23.6546,-14.4808 -33.2555,-23.5313 -11.5869,-10.9227 3.35395,-18.4354 -29.5753,-37.3065l-26.1689 84.2001 -21.3727 -79.0816c-18.5224,25.6623 -20.5464,15.6073 -31.0207,25.7443 -14.0805,13.6267 0.822615,21.6335 -29.196,36.5326 16.2666,-32.8312 -0.733323,-29.1793 3.26353,-45.6905 4.55471,-18.817 26.7681,-20.9974 18.4496,-38.1334l-82.9645 21.8843 59.7614 -60.1937c-24.1399,3.46139 -24.81,-12.0603 -40.6704,-15.0191 -14.0941,-2.62942 -14.1432,13.6539 -43.856,-3.00246 26.4915,0.767339 29.6317,-17.7605 45.9221,-22.1312 13.4972,-3.62155 28.5687,12.0402 37.9378,-2.86356l-63.1378 -62.8209z"/>
 </g>
</svg>
