<?xml version="1.0" encoding="UTF-8"?>
<!DOCTYPE svg PUBLIC "-//W3C//DTD SVG 1.1//EN" "http://www.w3.org/Graphics/SVG/1.1/DTD/svg11.dtd">
<!-- Creator: CorelDRAW -->
<svg xmlns="http://www.w3.org/2000/svg" xml:space="preserve" width="500px" height="577px" shape-rendering="geometricPrecision" text-rendering="geometricPrecision" image-rendering="optimizeQuality" fill-rule="evenodd" clip-rule="evenodd"
viewBox="0 0 500 577"
 xmlns:xlink="http://www.w3.org/1999/xlink"
 xmlns:svg="http://www.w3.org/2000/svg"
 version="1.0">
 <g id="Layer_x0020_1">
  <metadata id="CorelCorpID_0Corel-Layer"/>
  <path id="path1937" fill="#B2B2B2" stroke="black" stroke-width="3.96851" d="M2.0401 2.19373l496.002 -0.0192756 0.116504 351.094c-27.4975,139.725 -112.465,218.292 -247.307,221.719 -128.841,-3.5521 -217.119,-79.0351 -248.882,-213.745l0.0708662 -359.049z"/>
  <polygon id="path1937_0" fill="black" points="498.703,103.359 498.725,169.804 1.52362,169.806 1.47884,102.427 4.2738,102.922 33.4973,60.6218 60.3329,103.671 87.7851,60.31 113.989,103.671 142.376,59.9973 168.893,103.671 196.032,60.3108 222.548,103.671 250.312,59.9973 277.452,103.671 304.592,59.6855 330.484,103.671 358.56,59.9979 385.387,103.671 413.15,60.9341 439.667,103.671 466.806,59.9973 494.453,103.374 "/>
  <path id="path1937_1" fill="black" d="M429.057 501.833l-355.931 -0.313512c-22.9836,-26.7766 -38.7227,-52.0189 -54.2506,-87.2898l15.5656 -21.5793 25.8917 43.0495 27.4521 -43.3613 26.2038 43.3613 28.3876 -43.674 26.5161 43.674 27.1398 -43.3605 26.5159 43.3605 27.7637 -43.674 27.14 43.674 27.1398 -43.9858 25.8925 43.9858 28.0755 -43.6734 26.8277 43.6734 27.7623 -42.7371 26.5178 42.7371 27.1389 -43.674 14.9134 22.7203c-17.8608,39.8265 -29.1988,57.86 -52.6626,87.0869z"/>
  <polygon id="path1937_2" fill="#F00000" points="496.187,271.93 496.069,338.376 3.86476,339.006 3.81997,271.312 4.2738,272.122 33.4973,229.822 60.3329,272.871 87.7851,229.51 113.989,272.871 142.376,229.197 168.893,272.871 196.032,229.511 222.548,272.871 250.312,229.197 277.452,272.871 304.592,228.886 330.484,272.871 358.56,229.198 385.387,272.871 413.15,230.134 439.667,272.871 466.806,229.197 494.453,272.574 "/>
 </g>
</svg>
