<?xml version="1.0" encoding="UTF-8" standalone="no"?>
<!-- Created with Inkscape (http://www.inkscape.org/) -->
<svg
   xmlns:svg="http://www.w3.org/2000/svg"
   xmlns="http://www.w3.org/2000/svg"
   version="1.0"
   width="502"
   height="730"
   id="svg2">
  <defs
     id="defs61" />
  <g
     style="display:inline"
     id="g4">
    <path
       d="M 250.76001,1.352063 C 240.47629,1.352053 233.072,7.9344934 233.072,15.339745 C 233.072,23.567795 236.3628,26.036205 236.3628,26.036205 C 236.3628,26.036205 231.72611,26.239335 228.13582,25.213405 L 238.83089,38.378285 C 238.83089,38.378285 230.07454,31.894315 224.02233,30.150235 C 224.02233,30.150235 226.49042,34.264255 226.49042,39.201085 C 226.49042,39.201085 223.19963,34.264255 217.44074,34.264255 C 211.44435,34.264255 205.92297,39.201085 205.92297,51.543165 C 205.92297,62.239625 211.73024,70.467675 218.26344,70.467675 C 224.84502,70.467675 228.95851,63.885235 228.95851,63.885235 C 228.95851,63.885235 229.97813,69.140145 226.49042,72.936085 C 226.49042,72.936085 236.37721,72.094745 242.12168,64.708045 C 242.12168,64.708045 231.42661,86.923777 213.32725,86.923777 C 187.82361,86.923777 177.95124,56.479995 177.95124,56.479995 L 175.48314,56.479995 C 175.48314,56.479995 171.36965,95.151822 143.39792,95.151822 C 128.12668,95.151822 121.18508,82.809745 121.18508,82.809745 C 121.18508,82.809745 128.095,85.789065 135.99364,84.455355 C 135.99364,84.455355 130.54455,81.149725 131.05745,75.404505 C 131.05745,75.404505 134.71179,79.518525 140.92983,79.518525 C 146.68871,79.518525 151.6249,71.426675 151.6249,61.416825 C 151.6249,49.074745 141.75253,40.023895 134.34824,40.023895 C 125.29857,40.023895 123.65317,50.720355 123.65317,50.720355 C 121.08867,48.463305 120.36238,40.846695 120.36238,40.846695 C 114.31017,44.232265 109.6673,54.834385 109.6673,54.834385 C 109.6673,54.834385 112.1354,43.315115 108.84461,37.555475 C 104.27345,41.133365 100.61763,43.315115 100.61763,43.315115 C 100.61763,43.315115 104.73112,36.732675 102.26302,32.618645 C 99.738851,28.411155 95.681441,26.859015 89.099851,26.859015 C 81.078551,26.859015 71.000501,35.087065 71.000501,35.087065 C 71.000501,35.087065 94.858741,45.783525 124.47587,113.25352 C 198.51869,91.860604 250.34866,94.329012 250.96569,94.329012 C 251.58271,94.329012 303.41268,91.860604 377.4555,113.25352 C 407.07263,45.783535 430.93087,35.087065 430.93087,35.087065 C 430.93087,35.087065 420.85282,26.859015 412.83152,26.859015 C 406.24993,26.859015 402.19252,28.411155 399.66835,32.618655 C 397.20026,36.732675 401.31375,43.315115 401.31375,43.315115 C 401.31375,43.315115 397.65792,41.133375 393.08677,37.555485 C 389.79597,43.315115 392.26407,54.834385 392.26407,54.834385 C 392.26407,54.834385 387.6212,44.232275 381.56899,40.846705 C 381.56899,40.846705 380.8427,48.463315 378.2782,50.720365 C 378.2782,50.720365 376.63281,40.023895 367.58313,40.023895 C 360.17885,40.023895 350.30647,49.074755 350.30647,61.416825 C 350.30647,71.426685 355.24266,79.518525 361.00154,79.518525 C 367.21958,79.518525 370.87392,75.404515 370.87392,75.404515 C 371.38682,81.149725 365.93773,84.455355 365.93773,84.455355 C 373.83637,85.789065 380.7463,82.809745 380.7463,82.809745 C 380.7463,82.809745 373.80469,95.151822 358.53345,95.151822 C 330.56172,95.151822 326.44823,56.479995 326.44823,56.479995 L 323.98013,56.479995 C 323.98013,56.479995 314.10776,86.923777 288.60412,86.923777 C 270.50476,86.923777 259.80969,64.708045 259.80969,64.708045 C 265.55416,72.094755 275.44095,72.936095 275.44095,72.936095 C 271.95324,69.140145 272.97286,63.885245 272.97286,63.885245 C 272.97286,63.885245 277.08635,70.467685 283.66793,70.467685 C 290.20113,70.467685 296.0084,62.239635 296.0084,51.543165 C 296.0084,39.201095 290.48702,34.264265 284.49063,34.264265 C 278.73174,34.264265 275.44095,39.201095 275.44095,39.201095 C 275.44095,34.264265 277.90904,30.150235 277.90904,30.150235 C 271.85683,31.894315 263.10048,38.378285 263.10048,38.378285 L 273.79556,25.213405 C 270.20526,26.239335 265.56858,26.036215 265.56858,26.036215 C 265.56858,26.036215 268.85937,23.567795 268.85937,15.339745 C 268.85937,7.9345034 261.45509,1.352063 250.76001,1.352063 z "
       style="fill:#e6bf31;fill-opacity:1;fill-rule:evenodd;stroke:#ba313b;stroke-width:1px;stroke-linecap:butt;stroke-linejoin:miter;stroke-opacity:1"
       id="path3092" />
    <path
       d="M 251.17136,131.35523 L 137.63904,145.34291 C 133.52555,130.53242 124.47587,114.07632 124.47587,114.07632 C 124.47587,114.07632 182.40829,96.845152 251.17136,95.974622 C 319.93443,96.845152 377.86685,114.07632 377.86685,114.07632 C 377.86685,114.07632 368.81717,130.53242 364.70368,145.34291 L 251.17136,131.35523 z "
       style="fill:#e6bf31;fill-opacity:1;fill-rule:evenodd;stroke:#ba313b;stroke-width:1px;stroke-linecap:butt;stroke-linejoin:miter;stroke-opacity:1"
       id="path2217" />
    <path
       d="M 96.504141,51.543165 L 100.61763,63.062435 M 128.32906,54.164985 L 112.9581,66.353655 M 130.79097,69.759145 L 112.1354,69.644865 M 242.3978,24.002605 L 248.70327,41.669505 M 225.57472,43.495305 L 245.41247,49.897555 M 225.36955,60.730945 L 245.41247,53.188775"
       style="fill:none;fill-opacity:0.75;fill-rule:evenodd;stroke:#ba313b;stroke-width:1px;stroke-linecap:butt;stroke-linejoin:miter;stroke-opacity:1"
       id="path3973" />
    <path
       d="M 406.66128,51.428885 L 402.54779,62.948155 M 374.83636,54.050715 L 390.20732,66.239375 M 372.37445,69.644865 L 391.03002,69.530585 M 260.76761,23.888325 L 254.46215,41.555225 M 277.5907,43.381025 L 257.75294,49.783275 M 277.79587,60.616675 L 257.75294,53.074495"
       style="fill:none;fill-opacity:0.75;fill-rule:evenodd;stroke:#ba313b;stroke-width:1px;stroke-linecap:butt;stroke-linejoin:miter;stroke-opacity:1"
       id="path5841" />
    <path
       d="M 262.27767,49.897571 C 262.27767,56.032273 257.30516,61.005439 251.17125,61.005439 C 245.03735,61.005439 240.06483,56.032273 240.06483,49.897571 C 240.06483,43.762865 245.03735,38.789704 251.17125,38.789704 C 257.30516,38.789704 262.27767,43.762865 262.27767,49.897571 L 262.27767,49.897571 z "
       style="color:#000000;fill:#ffffff;fill-opacity:1;fill-rule:evenodd;stroke:#8497a8;stroke-width:1;stroke-linecap:round;stroke-linejoin:miter;marker:none;marker-start:none;marker-mid:none;marker-end:none;stroke-miterlimit:4;stroke-dasharray:none;stroke-dashoffset:0;stroke-opacity:1;visibility:visible;display:inline;overflow:visible"
       id="path3971" />
    <path
       d="M 238.00819,85.278165 C 238.00819,85.278165 247.88057,74.581695 251.17136,67.176455 C 254.46215,74.581695 264.33453,85.278165 264.33453,85.278165 L 238.00819,85.278165 z "
       style="fill:none;fill-opacity:0.75;fill-rule:evenodd;stroke:#ba313b;stroke-width:1px;stroke-linecap:butt;stroke-linejoin:miter;stroke-opacity:1"
       id="path3977" />
    <path
       d="M 251.17136,123.94998 C 240.93706,123.94998 232.66066,119.53065 232.66066,114.0854 C 232.66066,108.64015 240.93706,104.22081 251.15307,104.22081 C 261.36908,104.22081 269.64549,108.64015 269.64549,114.0854 C 269.64549,119.53065 261.36908,123.94998 251.17136,123.94998 z "
       style="color:#000000;fill:#ba313b;fill-opacity:1;fill-rule:evenodd;stroke:#e6bf31;stroke-width:1;stroke-linecap:round;stroke-linejoin:miter;marker:none;marker-start:none;marker-mid:none;marker-end:none;stroke-miterlimit:4;stroke-dashoffset:0;stroke-opacity:1;visibility:visible;display:inline;overflow:visible"
       id="path3984" />
    <path
       d="M 112.1354,87.746574 C 117.07159,95.974624 130.23475,100.91145 130.23475,100.91145 L 120.36238,104.20267 M 178.02897,71.246741 C 177.12854,81.986939 167.25616,92.683404 167.25616,92.683404 L 193.5825,88.569379 C 193.5825,88.569379 181.24203,81.986939 178.02897,71.246741 z "
       style="fill:none;fill-opacity:0.75;fill-rule:evenodd;stroke:#ba313b;stroke-width:1px;stroke-linecap:butt;stroke-linejoin:miter;stroke-opacity:1"
       id="path3975" />
    <path
       d="M 140.62431,135.48723 C 133.38704,137.52024 126.52214,135.56802 125.27499,131.13684 C 124.02783,126.70567 128.86838,121.46528 136.0927,119.4359 C 143.31703,117.40652 150.18193,119.35875 151.42908,123.78992 C 152.67624,128.22109 147.83569,133.46149 140.62431,135.48723 z "
       style="color:#000000;fill:#ba313b;fill-opacity:1;fill-rule:evenodd;stroke:none;stroke-width:1;stroke-linecap:round;stroke-linejoin:miter;marker:none;marker-start:none;marker-mid:none;marker-end:none;stroke-miterlimit:4;stroke-dashoffset:0;stroke-opacity:1;visibility:visible;display:inline;overflow:visible"
       id="path3992" />
    <path
       d="M 168.07886,116.54475 C 168.07886,119.04407 166.05302,121.07017 163.55402,121.07017 C 161.05502,121.07017 159.02918,119.04407 159.02918,116.54475 C 159.02918,114.04542 161.05502,112.01932 163.55402,112.01932 C 166.05302,112.01932 168.07886,114.04542 168.07886,116.54475 z "
       style="color:#000000;fill:#ffffff;fill-opacity:1;fill-rule:evenodd;stroke:#ffffff;stroke-width:1;stroke-linecap:round;stroke-linejoin:miter;marker:none;marker-start:none;marker-mid:none;marker-end:none;stroke-miterlimit:4;stroke-dasharray:none;stroke-dashoffset:0;stroke-opacity:1;visibility:visible;display:inline;overflow:visible"
       id="path5740" />
    <path
       d="M 170.13561,128.88682 C 170.13561,131.38615 168.10977,133.41225 165.61077,133.41225 C 163.11177,133.41225 161.08593,131.38615 161.08593,128.88682 C 161.08593,126.3875 163.11177,124.3614 165.61077,124.3614 C 168.10977,124.3614 170.13561,126.3875 170.13561,128.88682 z "
       style="color:#000000;fill:#ffffff;fill-opacity:1;fill-rule:evenodd;stroke:#ffffff;stroke-width:1;stroke-linecap:round;stroke-linejoin:miter;marker:none;marker-start:none;marker-mid:none;marker-end:none;stroke-miterlimit:4;stroke-dasharray:none;stroke-dashoffset:0;stroke-opacity:1;visibility:visible;display:inline;overflow:visible"
       id="path5742" />
    <path
       d="M 225.25637,108.3167 C 225.25637,110.81602 223.23054,112.84212 220.73153,112.84212 C 218.23253,112.84212 216.2067,110.81602 216.2067,108.3167 C 216.2067,105.81737 218.23253,103.79127 220.73153,103.79127 C 223.23054,103.79127 225.25637,105.81737 225.25637,108.3167 z "
       style="color:#000000;fill:#ffffff;fill-opacity:1;fill-rule:evenodd;stroke:#ffffff;stroke-width:1;stroke-linecap:round;stroke-linejoin:miter;marker:none;marker-start:none;marker-mid:none;marker-end:none;stroke-miterlimit:4;stroke-dasharray:none;stroke-dashoffset:0;stroke-opacity:1;visibility:visible;display:inline;overflow:visible"
       id="path5744" />
    <path
       d="M 226.90177,120.65878 C 226.90177,123.1581 224.87593,125.1842 222.37693,125.1842 C 219.87793,125.1842 217.85209,123.1581 217.85209,120.65878 C 217.85209,118.15945 219.87793,116.13335 222.37693,116.13335 C 224.87593,116.13335 226.90177,118.15945 226.90177,120.65878 z "
       style="color:#000000;fill:#ffffff;fill-opacity:1;fill-rule:evenodd;stroke:#ffffff;stroke-width:1;stroke-linecap:round;stroke-linejoin:miter;marker:none;marker-start:none;marker-mid:none;marker-end:none;stroke-miterlimit:4;stroke-dasharray:none;stroke-dashoffset:0;stroke-opacity:1;visibility:visible;display:inline;overflow:visible"
       id="path5746" />
    <path
       d="M 190.29171,107.49389 L 175.48314,119.83597 L 193.5825,126.41841 L 208.39106,114.89914 L 190.29171,107.49389 z "
       style="fill:#3c60a7;fill-opacity:1;fill-rule:evenodd;stroke:#3c60a7;stroke-width:1px;stroke-linecap:butt;stroke-linejoin:miter;stroke-opacity:1"
       id="path5748" />
    <path
       d="M 116.66023,69.644861 C 116.66023,75.779563 111.68772,80.752729 105.55381,80.752729 C 99.419908,80.752729 94.44739,75.779563 94.44739,69.644861 C 94.44739,63.510155 99.419908,58.536994 105.55381,58.536994 C 111.68772,58.536994 116.66023,63.510155 116.66023,69.644861 L 116.66023,69.644861 z "
       style="color:#000000;fill:#ffffff;fill-opacity:1;fill-rule:evenodd;stroke:#8497a8;stroke-width:1;stroke-linecap:round;stroke-linejoin:miter;marker:none;marker-start:none;marker-mid:none;marker-end:none;stroke-miterlimit:4;stroke-dasharray:none;stroke-dashoffset:0;stroke-opacity:1;visibility:visible;display:inline;overflow:visible"
       id="path3094" />
    <path
       d="M 188.23496,55.657181 C 188.23496,61.791883 183.26245,66.765049 177.12854,66.765049 C 170.99464,66.765049 166.02212,61.791883 166.02212,55.657181 C 166.02212,49.522475 170.99464,44.549314 177.12854,44.549314 C 183.26245,44.549314 188.23496,49.522475 188.23496,55.657181 L 188.23496,55.657181 z "
       style="color:#000000;fill:#ffffff;fill-opacity:1;fill-rule:evenodd;stroke:#8497a8;stroke-width:1;stroke-linecap:round;stroke-linejoin:miter;marker:none;marker-start:none;marker-mid:none;marker-end:none;stroke-miterlimit:4;stroke-dasharray:none;stroke-dashoffset:0;stroke-opacity:1;visibility:visible;display:inline;overflow:visible"
       id="path3969" />
    <path
       d="M 112.1354,87.746574 C 117.07159,95.974624 130.23475,100.91145 130.23475,100.91145 L 120.36238,104.20267 M 178.02897,71.246741 C 177.12854,81.986939 167.25616,92.683404 167.25616,92.683404 L 193.5825,88.569379 C 193.5825,88.569379 181.24203,81.986939 178.02897,71.246741 z "
       style="fill:none;fill-opacity:0.75;fill-rule:evenodd;stroke:#ba313b;stroke-width:1px;stroke-linecap:butt;stroke-linejoin:miter;stroke-opacity:1"
       id="path5761" />
    <path
       d="M 140.62431,135.48723 C 133.38704,137.52024 126.52214,135.56802 125.27499,131.13684 C 124.02783,126.70567 128.86838,121.46528 136.0927,119.4359 C 143.31703,117.40652 150.18193,119.35875 151.42908,123.78992 C 152.67624,128.22109 147.83569,133.46149 140.62431,135.48723 z "
       style="color:#000000;fill:#ba313b;fill-opacity:1;fill-rule:evenodd;stroke:none;stroke-width:1;stroke-linecap:round;stroke-linejoin:miter;marker:none;marker-start:none;marker-mid:none;marker-end:none;stroke-miterlimit:4;stroke-dashoffset:0;stroke-opacity:1;visibility:visible;display:inline;overflow:visible"
       id="path5763" />
    <path
       d="M 168.07886,116.54475 C 168.07886,119.04407 166.05302,121.07017 163.55402,121.07017 C 161.05502,121.07017 159.02918,119.04407 159.02918,116.54475 C 159.02918,114.04542 161.05502,112.01932 163.55402,112.01932 C 166.05302,112.01932 168.07886,114.04542 168.07886,116.54475 z "
       style="color:#000000;fill:#ffffff;fill-opacity:1;fill-rule:evenodd;stroke:#ffffff;stroke-width:1;stroke-linecap:round;stroke-linejoin:miter;marker:none;marker-start:none;marker-mid:none;marker-end:none;stroke-miterlimit:4;stroke-dasharray:none;stroke-dashoffset:0;stroke-opacity:1;visibility:visible;display:inline;overflow:visible"
       id="path5765" />
    <path
       d="M 170.13561,128.88682 C 170.13561,131.38615 168.10977,133.41225 165.61077,133.41225 C 163.11177,133.41225 161.08593,131.38615 161.08593,128.88682 C 161.08593,126.3875 163.11177,124.3614 165.61077,124.3614 C 168.10977,124.3614 170.13561,126.3875 170.13561,128.88682 z "
       style="color:#000000;fill:#ffffff;fill-opacity:1;fill-rule:evenodd;stroke:#ffffff;stroke-width:1;stroke-linecap:round;stroke-linejoin:miter;marker:none;marker-start:none;marker-mid:none;marker-end:none;stroke-miterlimit:4;stroke-dasharray:none;stroke-dashoffset:0;stroke-opacity:1;visibility:visible;display:inline;overflow:visible"
       id="path5767" />
    <path
       d="M 225.25637,108.3167 C 225.25637,110.81602 223.23054,112.84212 220.73153,112.84212 C 218.23253,112.84212 216.2067,110.81602 216.2067,108.3167 C 216.2067,105.81737 218.23253,103.79127 220.73153,103.79127 C 223.23054,103.79127 225.25637,105.81737 225.25637,108.3167 z "
       style="color:#000000;fill:#ffffff;fill-opacity:1;fill-rule:evenodd;stroke:#ffffff;stroke-width:1;stroke-linecap:round;stroke-linejoin:miter;marker:none;marker-start:none;marker-mid:none;marker-end:none;stroke-miterlimit:4;stroke-dasharray:none;stroke-dashoffset:0;stroke-opacity:1;visibility:visible;display:inline;overflow:visible"
       id="path5769" />
    <path
       d="M 226.90177,120.65878 C 226.90177,123.1581 224.87593,125.1842 222.37693,125.1842 C 219.87793,125.1842 217.85209,123.1581 217.85209,120.65878 C 217.85209,118.15945 219.87793,116.13335 222.37693,116.13335 C 224.87593,116.13335 226.90177,118.15945 226.90177,120.65878 z "
       style="color:#000000;fill:#ffffff;fill-opacity:1;fill-rule:evenodd;stroke:#ffffff;stroke-width:1;stroke-linecap:round;stroke-linejoin:miter;marker:none;marker-start:none;marker-mid:none;marker-end:none;stroke-miterlimit:4;stroke-dasharray:none;stroke-dashoffset:0;stroke-opacity:1;visibility:visible;display:inline;overflow:visible"
       id="path5771" />
    <path
       d="M 190.29171,107.49389 L 175.48314,119.83597 L 193.5825,126.41841 L 208.39106,114.89914 L 190.29171,107.49389 z "
       style="fill:#3c60a7;fill-opacity:1;fill-rule:evenodd;stroke:#3c60a7;stroke-width:1px;stroke-linecap:butt;stroke-linejoin:miter;stroke-opacity:1"
       id="path5773" />
    <path
       d="M 251.17136,169.20426 C 186.24832,169.20426 133.52543,159.19857 133.52549,153.24101 C 133.52555,147.28345 186.21665,134.80941 251.17136,134.80941 C 316.12607,134.80941 368.81717,147.28345 368.81723,153.24101 C 368.81729,159.19857 316.0944,169.20426 251.17136,169.20426 z "
       style="color:#000000;fill:#ba313b;fill-opacity:1;fill-rule:evenodd;stroke:#ba313b;stroke-width:1.49999964;stroke-linecap:round;stroke-linejoin:miter;marker:none;marker-start:none;marker-mid:none;marker-end:none;stroke-miterlimit:4;stroke-dashoffset:0;stroke-opacity:1;visibility:visible;display:inline;overflow:visible"
       id="path1336" />
    <path
       d="M 251.20303,134.80941 C 186.21665,134.80941 133.52555,147.28345 133.52549,153.24101 C 133.52549,153.24101 131.88015,146.16572 135.17094,144.52011 C 162.07286,131.0674 224.84502,128.06401 251.17136,128.06401 C 277.4977,128.06401 340.26986,131.0674 367.17178,144.52011 C 370.46257,146.16572 368.81723,153.24101 368.81723,153.24101 C 368.81717,147.28345 316.12607,134.80941 251.20303,134.80941 z "
       style="color:#000000;fill:#e6bf31;fill-opacity:1;fill-rule:evenodd;stroke:#ba313b;stroke-width:1.49999964;stroke-linecap:round;stroke-linejoin:miter;marker:none;marker-start:none;marker-mid:none;marker-end:none;stroke-miterlimit:4;stroke-dashoffset:0;stroke-opacity:1;visibility:visible;display:inline;overflow:visible"
       id="path1339" />
    <path
       d="M 384.85948,70.449761 C 384.85948,76.584463 389.83199,81.557629 395.9659,81.557629 C 402.0998,81.557629 407.07232,76.584463 407.07232,70.449761 C 407.07232,64.315055 402.0998,59.341894 395.9659,59.341894 C 389.83199,59.341894 384.85948,64.315055 384.85948,70.449761 L 384.85948,70.449761 z "
       style="color:#000000;fill:#ffffff;fill-opacity:1;fill-rule:evenodd;stroke:#8497a8;stroke-width:1;stroke-linecap:round;stroke-linejoin:miter;marker:none;marker-start:none;marker-mid:none;marker-end:none;stroke-miterlimit:4;stroke-dasharray:none;stroke-dashoffset:0;stroke-opacity:1;visibility:visible;display:inline;overflow:visible"
       id="path5811" />
    <path
       d="M 313.28478,56.462081 C 313.28478,62.596783 318.25729,67.569949 324.3912,67.569949 C 330.5251,67.569949 335.49762,62.596783 335.49762,56.462081 C 335.49762,50.327375 330.5251,45.354214 324.3912,45.354214 C 318.25729,45.354214 313.28478,50.327375 313.28478,56.462081 L 313.28478,56.462081 z "
       style="color:#000000;fill:#ffffff;fill-opacity:1;fill-rule:evenodd;stroke:#8497a8;stroke-width:1;stroke-linecap:round;stroke-linejoin:miter;marker:none;marker-start:none;marker-mid:none;marker-end:none;stroke-miterlimit:4;stroke-dasharray:none;stroke-dashoffset:0;stroke-opacity:1;visibility:visible;display:inline;overflow:visible"
       id="path5813" />
    <path
       d="M 389.38436,88.551474 C 384.44817,96.779524 371.28501,101.71635 371.28501,101.71635 L 381.15738,105.00757 M 323.49079,72.051641 C 324.39122,82.791839 334.2636,93.488304 334.2636,93.488304 L 307.93726,89.374279 C 307.93726,89.374279 320.27773,82.791839 323.49079,72.051641 z "
       style="fill:none;fill-opacity:0.75;fill-rule:evenodd;stroke:#ba313b;stroke-width:1px;stroke-linecap:butt;stroke-linejoin:miter;stroke-opacity:1"
       id="path5817" />
    <path
       d="M 360.89545,136.29213 C 368.13272,138.32514 374.99762,136.37292 376.24477,131.94174 C 377.49193,127.51057 372.65138,122.27018 365.42706,120.2408 C 358.20273,118.21142 351.33783,120.16365 350.09068,124.59482 C 348.84352,129.02599 353.68407,134.26639 360.89545,136.29213 z "
       style="color:#000000;fill:#ba313b;fill-opacity:1;fill-rule:evenodd;stroke:none;stroke-width:1;stroke-linecap:round;stroke-linejoin:miter;marker:none;marker-start:none;marker-mid:none;marker-end:none;stroke-miterlimit:4;stroke-dashoffset:0;stroke-opacity:1;visibility:visible;display:inline;overflow:visible"
       id="path5819" />
    <path
       d="M 333.4409,117.34965 C 333.4409,119.84897 335.46674,121.87507 337.96574,121.87507 C 340.46474,121.87507 342.49058,119.84897 342.49058,117.34965 C 342.49058,114.85032 340.46474,112.82422 337.96574,112.82422 C 335.46674,112.82422 333.4409,114.85032 333.4409,117.34965 z "
       style="color:#000000;fill:#ffffff;fill-opacity:1;fill-rule:evenodd;stroke:#ffffff;stroke-width:1;stroke-linecap:round;stroke-linejoin:miter;marker:none;marker-start:none;marker-mid:none;marker-end:none;stroke-miterlimit:4;stroke-dasharray:none;stroke-dashoffset:0;stroke-opacity:1;visibility:visible;display:inline;overflow:visible"
       id="path5821" />
    <path
       d="M 331.3842,129.69172 C 331.3842,132.19105 333.41004,134.21715 335.90904,134.21715 C 338.40804,134.21715 340.43388,132.19105 340.43388,129.69172 C 340.43388,127.1924 338.40804,125.1663 335.90904,125.1663 C 333.41004,125.1663 331.3842,127.1924 331.3842,129.69172 z "
       style="color:#000000;fill:#ffffff;fill-opacity:1;fill-rule:evenodd;stroke:#ffffff;stroke-width:1;stroke-linecap:round;stroke-linejoin:miter;marker:none;marker-start:none;marker-mid:none;marker-end:none;stroke-miterlimit:4;stroke-dasharray:none;stroke-dashoffset:0;stroke-opacity:1;visibility:visible;display:inline;overflow:visible"
       id="path5823" />
    <path
       d="M 276.2634,109.1216 C 276.2634,111.62092 278.28924,113.64702 280.78824,113.64702 C 283.28724,113.64702 285.31308,111.62092 285.31308,109.1216 C 285.31308,106.62227 283.28724,104.59617 280.78824,104.59617 C 278.28924,104.59617 276.2634,106.62227 276.2634,109.1216 z "
       style="color:#000000;fill:#ffffff;fill-opacity:1;fill-rule:evenodd;stroke:#ffffff;stroke-width:1;stroke-linecap:round;stroke-linejoin:miter;marker:none;marker-start:none;marker-mid:none;marker-end:none;stroke-miterlimit:4;stroke-dasharray:none;stroke-dashoffset:0;stroke-opacity:1;visibility:visible;display:inline;overflow:visible"
       id="path5825" />
    <path
       d="M 274.618,121.46367 C 274.618,123.963 276.64384,125.9891 279.14284,125.9891 C 281.64184,125.9891 283.66768,123.963 283.66768,121.46367 C 283.66768,118.96435 281.64184,116.93825 279.14284,116.93825 C 276.64384,116.93825 274.618,118.96435 274.618,121.46367 z "
       style="color:#000000;fill:#ffffff;fill-opacity:1;fill-rule:evenodd;stroke:#ffffff;stroke-width:1;stroke-linecap:round;stroke-linejoin:miter;marker:none;marker-start:none;marker-mid:none;marker-end:none;stroke-miterlimit:4;stroke-dasharray:none;stroke-dashoffset:0;stroke-opacity:1;visibility:visible;display:inline;overflow:visible"
       id="path5827" />
    <path
       d="M 311.22805,108.29879 L 326.03662,120.64087 L 307.93726,127.22331 L 293.1287,115.70404 L 311.22805,108.29879 z "
       style="fill:#3c60a7;fill-opacity:1;fill-rule:evenodd;stroke:#3c60a7;stroke-width:1px;stroke-linecap:butt;stroke-linejoin:miter;stroke-opacity:1"
       id="path5829" />
    <path
       d="M 251.17136,98.881262 C 179.59663,98.443042 126.45913,116.24171 126.45913,116.24171 C 124.08403,117.00649 121.81706,116.24006 121.37622,114.52326 C 120.93539,112.80646 122.49257,110.80864 124.86768,110.04385 C 124.86768,110.04385 173.01505,91.037794 251.17136,91.037794 C 329.32767,91.037794 377.47504,110.04385 377.47504,110.04385 C 379.85015,110.80864 381.40733,112.80646 380.9665,114.52326 C 380.52566,116.24006 378.25869,117.00649 375.88359,116.24171 C 375.88359,116.24171 322.74609,98.443042 251.17136,98.881262 z "
       style="color:#000000;fill:#e6bf31;fill-opacity:1;fill-rule:evenodd;stroke:#ba313b;stroke-width:1;stroke-linecap:round;stroke-linejoin:miter;marker:none;marker-start:none;marker-mid:none;marker-end:none;stroke-miterlimit:4;stroke-dashoffset:0;stroke-opacity:1;visibility:visible;display:inline;overflow:visible"
       id="rect1341" />
    <path
       d="M 251.17136,724.59763 C 251.17136,724.59763 261.04374,704.85031 283.25658,694.97665 C 315.7938,680.51379 344.95893,677.69776 379.51225,657.95043 C 414.25195,638.09659 419.00175,625.86103 419.00175,625.86103 C 414.83556,623.73913 411.9926,619.15198 411.9926,614.0447 C 411.9926,607.15979 417.57961,601.57205 424.46363,601.57205 C 428.23652,601.57205 431.57134,603.35684 433.81032,606.11371 C 433.81032,606.11371 455.40614,575.25853 468.36363,541.93492 C 481.32113,508.61132 485.64029,472.8193 485.64029,472.8193 C 485.64029,472.8193 480.7041,477.75613 473.29982,477.75613 C 463.42744,477.75613 458.49126,467.88248 458.49126,462.94564 C 458.49126,462.94564 460.95935,346.93014 463.42744,297.56184 C 463.67395,292.63117 465.89554,282.75135 480.7041,282.75135 C 493.04457,282.75135 497.98076,292.62501 497.98076,292.62501 C 497.98076,292.62501 500.44885,282.75135 500.44885,270.40927 C 500.44885,258.0672 493.04457,248.19354 493.04457,248.19354 C 493.04457,248.19354 500.44885,240.78829 500.44885,225.9778 C 500.44885,211.16731 495.51267,203.76207 495.51267,203.76207 C 495.51267,203.76207 493.04457,221.04097 465.89554,221.04097 C 438.7465,221.04097 352.36321,156.86218 251.17136,156.86218 C 149.97951,156.86218 63.596221,221.04097 36.447181,221.04097 C 9.2981492,221.04097 6.8300552,203.76207 6.8300552,203.76207 C 6.8300552,203.76207 1.8938672,211.16731 1.8938672,225.9778 C 1.8938672,240.78829 9.2981492,248.19354 9.2981492,248.19354 C 9.2981492,248.19354 1.8938672,258.0672 1.8938672,270.40927 C 1.8938672,282.75135 4.3619612,292.62501 4.3619612,292.62501 C 4.3619612,292.62501 9.2981492,282.75135 21.638619,282.75135 C 36.447181,282.75135 38.668771,292.63117 38.915281,297.56184 C 41.383371,346.93014 43.851461,462.94564 43.851461,462.94564 C 43.851461,467.88248 38.915281,477.75613 29.042901,477.75613 C 21.638619,477.75613 16.702431,472.8193 16.702431,472.8193 C 16.702431,472.8193 21.021596,508.61132 33.979091,541.93492 C 46.936581,575.25853 68.532401,606.11371 68.532401,606.11371 C 70.771381,603.35684 74.106201,601.57205 77.879091,601.57205 C 84.763111,601.57205 90.350121,607.15979 90.350121,614.0447 C 90.350121,619.15198 87.507161,623.73913 83.340971,625.86103 C 83.340971,625.86103 88.090771,638.09659 122.83047,657.95043 C 157.38379,677.69776 186.54892,680.51379 219.08614,694.97665 C 241.29898,704.85031 251.17136,724.59763 251.17136,724.59763 z "
       style="fill:#3c60a7;fill-opacity:1;fill-rule:evenodd;stroke:#000000;stroke-width:1px;stroke-linecap:butt;stroke-linejoin:miter;stroke-opacity:1"
       id="path1315" />
    <path
       d="M 272.56151,290.1566 L 265.15723,290.1566 C 265.15723,290.1566 258.57564,284.39697 258.57564,273.7005 L 261.86643,273.7005 C 267.62532,276.16892 272.56151,281.10575 272.56151,281.10575 L 272.56151,290.1566 z "
       style="fill:#ffffff;fill-opacity:1;fill-rule:evenodd;stroke:#3c60a7;stroke-width:1px;stroke-linecap:butt;stroke-linejoin:miter;stroke-opacity:1"
       id="path10981" />
    <path
       d="M 234.7174,290.1566 L 242.12168,290.1566 C 242.12168,290.1566 248.70327,284.39697 248.70327,273.7005 L 245.41247,273.7005 C 239.65359,276.16892 234.7174,281.10575 234.7174,281.10575 L 234.7174,290.1566 z "
       style="fill:#ffffff;fill-opacity:1;fill-rule:evenodd;stroke:#3c60a7;stroke-width:1px;stroke-linecap:butt;stroke-linejoin:miter;stroke-opacity:1"
       id="path10983" />
    <path
       d="M 224.84502,245.72513 L 236.3628,245.72513 C 236.3628,245.72513 246.23517,250.66196 248.70327,265.47245 L 242.94438,265.47245 C 238.00819,260.53562 227.31312,257.2444 227.31312,257.2444 L 224.84502,245.72513 z "
       style="fill:#ffffff;fill-opacity:1;fill-rule:evenodd;stroke:#3c60a7;stroke-width:1px;stroke-linecap:butt;stroke-linejoin:miter;stroke-opacity:1"
       id="path11860" />
    <path
       d="M 282.43388,245.72513 L 270.91611,245.72513 C 270.91611,245.72513 261.04374,250.66196 258.57564,265.47245 L 264.33453,265.47245 C 269.27072,260.53562 279.96579,257.2444 279.96579,257.2444 L 282.43388,245.72513 z "
       style="fill:#ffffff;fill-opacity:1;fill-rule:evenodd;stroke:#3c60a7;stroke-width:1px;stroke-linecap:butt;stroke-linejoin:miter;stroke-opacity:1"
       id="path11862" />
    <path
       d="M 253.63945,306.6127 C 247.88057,301.67587 243.76708,292.62502 243.76708,291.80221 C 243.76708,290.97941 248.70327,280.28294 248.70327,273.7005 L 258.57564,273.7005 C 258.57564,280.28294 263.51183,290.97941 263.51183,291.80221 C 263.51183,292.62502 259.39834,301.67587 253.63945,306.6127 z M 253.63945,296.73904 C 253.63945,296.73904 252.02199,295.10487 251.99406,290.1566 C 251.96613,285.20834 253.52772,276.946 253.63945,276.946 C 253.75119,276.946 255.31278,285.20834 255.28485,290.1566 C 255.25692,295.10487 253.63945,296.73904 253.63945,296.73904 z "
       style="fill:#ffffff;fill-opacity:1;fill-rule:evenodd;stroke:#3c60a7;stroke-width:1px;stroke-linecap:butt;stroke-linejoin:miter;stroke-opacity:1"
       id="path10967" />
    <path
       d="M 253.63945,203.76208 C 247.88057,208.69891 238.00819,235.02867 238.00819,235.85147 C 238.00819,236.67428 248.70327,258.89001 248.70327,265.47245 L 258.57564,265.47245 C 258.57564,258.89001 269.27072,236.67428 269.27072,235.85147 C 269.27072,235.02867 259.39834,208.69891 253.63945,203.76208 z M 253.63945,221.86379 C 253.63945,221.86379 251.19929,225.96638 251.17136,230.91464 C 251.14343,235.8629 253.52772,262.22696 253.63945,262.22696 C 253.75119,262.22696 256.13548,235.8629 256.10755,230.91464 C 256.07962,225.96638 253.63945,221.86379 253.63945,221.86379 z "
       style="fill:#ffffff;fill-opacity:1;fill-rule:evenodd;stroke:#3c60a7;stroke-width:1px;stroke-linecap:butt;stroke-linejoin:miter;stroke-opacity:1"
       id="path10985" />
    <rect
       width="27.971731"
       height="8.2280502"
       rx="5.4222779"
       ry="3.6589315"
       x="239.65358"
       y="265.47244"
       style="color:#000000;fill:#ffffff;fill-opacity:1;fill-rule:evenodd;stroke:#3c60a7;stroke-width:1;stroke-linecap:round;stroke-linejoin:miter;marker:none;marker-start:none;marker-mid:none;marker-end:none;stroke-miterlimit:4;stroke-dasharray:none;stroke-dashoffset:0;stroke-opacity:1;visibility:visible;display:inline;overflow:visible"
       id="rect11864" />
    <path
       d="M 436.82726,601.627 C 438.4127,599.21407 440.53624,595.9085 442.986,591.90924 C 442.85999,592.12603 425.58334,581.42956 411.59747,581.42956 C 391.85272,581.42956 385.23998,592.12603 370.46257,592.12603 C 355.65401,592.12603 343.85292,581.42956 330.15037,581.42956 C 316.9872,581.42956 302.62804,592.16264 290.66086,592.12603 C 277.49817,592.08577 263.5157,581.42956 250.34866,581.42956 C 234.7174,581.42956 227.38426,591.97678 211.68186,592.12603 C 196.98438,592.26573 187.82361,581.42956 172.19235,581.42956 C 156.56109,581.42956 143.39792,592.12603 131.05745,592.12603 C 116.95772,592.12603 109.6673,581.42956 91.567951,581.42956 C 73.549471,581.42956 60.305421,591.30322 59.252601,591.73915 C 61.772971,595.8584 63.953771,599.25182 65.566831,601.70517 C 66.064311,601.17688 75.113991,592.94883 91.567951,592.94883 C 107.19921,592.94883 113.35953,602.82249 131.88015,602.82249 C 149.15681,602.82249 156.13223,592.12603 172.19235,592.12603 C 185.35552,592.12603 196.05059,603.6453 211.68186,603.6453 C 227.64351,603.6453 234.78367,592.12603 251.17136,592.12603 C 263.51183,592.12603 275.8523,602.82249 291.48356,602.82249 C 307.50992,602.82249 315.3418,592.94883 330.15037,592.94883 C 345.21446,592.94883 353.18591,602.82249 370.46257,602.82249 C 382.80304,602.82249 395.96621,592.94883 410.77477,592.94883 C 428.05143,592.94883 436.27841,601.17688 436.82726,601.627 z "
       style="fill:#e6bf31;fill-opacity:1;fill-rule:evenodd;stroke:#e6bf31;stroke-width:1px;stroke-linecap:butt;stroke-linejoin:miter;stroke-opacity:1"
       id="path13623" />
    <path
       d="M 151.6249,425.91942 C 149.97951,427.56503 148.74546,425.09661 150.8022,417.69137 C 152.85895,410.28612 159.02918,397.12124 159.02918,397.12124 C 159.02918,397.12124 157.88831,391.3071 159.02918,385.60197 C 159.85188,381.48795 164.64785,369.23353 177.95124,360.91782 C 191.11441,352.68977 199.31204,350.22136 210.85916,350.22136 C 220.73153,350.22136 230.60391,357.6266 234.7174,364.20904 C 241.73801,375.44347 242.94438,382.31075 240.47629,402.05807 C 235.39426,442.71958 169.72426,481.04735 168.90156,513.13675 C 168.54307,527.11984 182.88743,528.77004 182.88743,528.77004 C 179.98603,533.70306 173.01505,540.28931 173.01505,540.28931 C 173.01505,540.28931 177.95124,539.46651 189.46901,521.3648 C 202.72696,500.52817 211.68186,479.81315 236.3628,461.30003 C 261.04374,442.78692 275.23528,446.69524 313.69641,448.95796 C 352.15754,451.22067 388.86881,468.11975 390.20732,470.35089 C 392.67542,474.46491 385.27113,480.43025 376.22146,485.98418 C 367.17178,491.53812 354.00861,492.56662 354.00861,492.56662 L 363.05829,495.03504 C 358.41606,497.79172 342.49084,499.97187 342.49084,499.97187 L 349.89512,501.61748 C 349.89512,501.61748 350.71782,504.08589 340.84544,509.02272 C 330.97307,513.95955 310.40562,521.3648 310.40562,521.3648 C 310.40562,521.3648 321.70709,519.09949 338.98375,511.69425 C 356.26041,504.289 361.42914,497.33402 374.57606,493.38943 C 382.80304,490.92101 388.56193,493.38944 393.49811,493.38943 C 405.88136,493.38943 419.82445,484.33857 419.82445,484.33857 C 417.2132,503.34518 395.96621,519.71919 395.96621,519.71919 C 395.96621,519.71919 406.03031,521.30896 406.66128,523.83321 C 407.48398,527.12443 399.257,536.38099 386.09383,546.87175 C 372.93066,557.36252 354.00861,565.79627 354.00861,565.79627 C 361.69731,565.07083 367.17178,567.44188 367.17178,567.44188 C 361.22392,574.26105 345.78163,578.96115 345.78163,578.96115 C 345.78163,578.96115 338.37735,575.66993 329.32767,575.66993 C 316.1645,575.66993 308.76022,586.36639 292.30626,586.36639 C 275.0296,586.36639 268.44802,575.66993 251.99406,575.66993 C 233.8947,575.66993 228.13582,586.36639 211.68186,586.36639 C 196.87329,586.36639 187.55922,575.69089 171.68893,575.67987 C 157.38379,575.66993 148.33411,582.25237 148.33411,582.25237 C 148.33411,582.25237 132.90852,579.57825 125.29857,569.08749 C 117.68861,558.59672 116.56596,540.96986 121.18508,519.71919 C 125.29857,500.79467 137.63904,485.98418 158.20649,464.59125 C 181.89805,439.94883 194.1679,431.72122 208.39106,412.75454 C 215.79535,402.88088 218.26344,396.29844 217.44074,389.716 C 216.61804,383.13356 211.68186,380.66515 210.03646,381.48795 C 201.89216,385.56062 195.84492,392.39011 186.17822,398.76685 C 176.51152,405.14359 171.36965,406.9949 171.36965,406.9949 C 171.36965,406.9949 155.72293,421.82085 151.6249,425.91942 z M 171.86982,385.04442 C 171.86982,385.04442 170.87767,381.34856 172.19235,379.84234 C 173.50703,378.33612 175.89449,377.99103 177.12854,379.01953 C 178.36259,380.04804 178.97961,382.31075 177.95124,383.95636 C 176.92287,385.60197 173.01505,385.60197 173.01505,385.60197 C 170.34798,388.78236 168.90156,394.65283 168.90156,394.65283 C 168.07886,397.12124 168.90156,405.34929 168.90156,405.34929 C 168.90156,405.34929 166.83966,397.11712 164.78807,395.47563 C 163.96537,394.65283 161.49728,397.12124 161.49728,397.12124 L 160.67458,389.716 L 171.86982,385.04442 z "
       style="fill:#ffffff;fill-opacity:1;fill-rule:evenodd;stroke:#ffffff;stroke-width:1px;stroke-linecap:butt;stroke-linejoin:miter;stroke-opacity:1"
       id="path13625" />
    <path
       d="M 160.12524,172.34206 C 100.80782,191.33361 54.918191,221.04097 36.447181,221.04097 C 9.2981492,221.04097 6.8300552,203.76207 6.8300552,203.76207 C 6.8300552,203.76207 1.8938672,211.16731 1.8938672,225.9778 C 1.8938672,240.78829 9.2981492,248.19354 9.2981492,248.19354 C 9.2981492,248.19354 1.8938672,258.0672 1.8938672,270.40927 C 1.8938672,282.75135 4.3619612,292.62501 4.3619612,292.62501 C 4.3619612,292.62501 9.2981492,282.75135 21.638619,282.75135 C 36.447181,282.75135 38.716831,292.629 38.915281,297.56184 L 40.414501,334.8283 L 159.85188,334.58806 L 160.12524,172.34206 z "
       style="fill:#e6bf31;fill-opacity:1;fill-rule:evenodd;stroke:#000000;stroke-width:1px;stroke-linecap:butt;stroke-linejoin:miter;stroke-opacity:1"
       id="path2201" />
    <path
       d="M 24.509542,227.11044 L 58.445321,250.66195 C 58.445321,250.66195 61.736111,250.66195 63.381511,251.48476 C 65.026901,252.30756 65.026901,253.95317 65.026901,253.95317 L 74.899281,272.05488 C 76.544681,275.3461 77.184041,279.5228 75.721981,284.39696 C 74.487931,288.51098 71.608491,290.15659 69.140391,290.15659 C 65.994181,290.15659 62.468631,286.31315 63.381511,283.57415 C 65.026901,278.63732 69.963091,278.63732 69.963091,278.63732 L 55.154531,258.89 L 25.537401,235.85146 L 26.975576,234.1012 L 22.246608,230.09183 L 24.509542,227.11044 z "
       style="fill:#8497a8;fill-opacity:1;fill-rule:evenodd;stroke:#8497a8;stroke-width:1px;stroke-linecap:butt;stroke-linejoin:miter;stroke-opacity:1"
       id="path2205" />
    <path
       d="M 53.148041,263.20922 C 52.780531,262.06749 53.664031,260.63872 56.543471,260.43302 C 59.422921,260.22732 64.340541,260.61505 64.665811,262.28382 C 65.085371,264.43623 61.617621,265.16209 58.853581,265.41908 C 56.089541,265.67608 53.611201,264.6481 53.148041,263.20922 z M 59.131491,265.50685 C 55.964341,265.6351 54.310241,266.51996 54.207661,267.8152 C 54.096121,269.2236 55.246281,270.55957 58.413431,270.43132 C 61.580581,270.30308 67.390651,269.84917 66.876261,267.30224 C 66.513731,265.50715 62.298641,265.37861 59.131491,265.50685 z M 60.618901,270.43132 C 57.374811,270.77758 56.131031,272.02153 56.207961,273.40653 C 56.284901,274.79154 58.503191,275.59946 61.747281,275.25321 C 64.991361,274.90696 68.633141,274.26581 68.209811,272.3293 C 67.761161,270.27696 63.862981,270.08507 60.618901,270.43132 z M 63.337261,275.3045 C 60.516321,275.6764 59.221261,276.8947 59.387941,278.12582 C 59.554641,279.35693 60.875351,280.13921 63.696291,279.7673 C 66.517231,279.3954 69.556161,277.61284 69.389471,276.38173 C 69.222781,275.15061 66.158201,274.93259 63.337261,275.3045 z M 58.875041,254.06772 C 62.324281,253.67017 75.297131,254.11296 77.954891,256.06828 C 82.657211,259.52781 81.647761,267.55871 84.417411,270.8417 L 86.930621,273.56042 L 76.877791,290.43699 L 76.570061,271.61114 L 78.672951,270.7391 C 78.672951,270.7391 77.744201,270.79359 75.646841,270.73911 C 74.659511,270.71346 72.351471,270.49545 70.825591,267.76391 C 69.299721,265.03236 69.543341,260.42849 69.543341,260.42849 C 69.543341,260.42849 65.234991,259.45386 62.362751,258.787 C 59.338131,258.08477 54.626031,254.55745 58.875041,254.06772 z "
       style="fill:#8497a8;fill-opacity:1;fill-rule:evenodd;stroke:#e6bf31;stroke-width:1.5;stroke-linecap:butt;stroke-linejoin:miter;stroke-miterlimit:2;stroke-dasharray:none;stroke-opacity:1"
       id="path2207" />
    <path
       d="M 87.249331,273.39873 L 103.85981,279.92771 L 94.502821,308.80034 L 76.659241,291.38971 L 87.249331,273.39873 z "
       style="fill:#8497a8;fill-opacity:1;fill-rule:evenodd;stroke:#e6bf31;stroke-width:1.5;stroke-linecap:butt;stroke-linejoin:miter;stroke-miterlimit:4;stroke-dasharray:none;stroke-opacity:1"
       id="path3955" />
    <path
       d="M 109.4526,325.53721 C 109.4526,325.53721 100.78468,316.02436 93.821331,313.19513 L 104.51641,279.46013 L 109.4526,281.10574 L 108.6299,319.77757 L 109.4526,320.60038 L 110.27529,319.77757 L 109.65827,281.10574 L 114.38878,279.46013 L 124.46683,313.19513 C 117.50349,316.02436 109.4526,325.53721 109.4526,325.53721 z "
       style="fill:#8497a8;fill-opacity:1;fill-rule:evenodd;stroke:#e6bf31;stroke-width:1.5;stroke-linecap:butt;stroke-linejoin:miter;stroke-miterlimit:4;stroke-opacity:1"
       id="path5705" />
    <path
       d="M 114.16555,279.56212 L 125.6545,310.64784 C 139.70793,300.18334 150.17107,290.02662 150.17107,290.02662 L 151.19687,268.48206 L 131.39896,252.47752 L 114.16555,279.56212 z "
       style="fill:#8497a8;fill-opacity:1;fill-rule:evenodd;stroke:#e6bf31;stroke-width:1.5;stroke-linecap:butt;stroke-linejoin:miter;stroke-miterlimit:4;stroke-dasharray:none;stroke-opacity:1"
       id="path6585" />
    <path
       d="M 158.98632,298.86177 C 158.98632,298.86177 154.48916,297.12071 152.02297,293.27586 C 149.55679,289.43101 151.4427,287.94385 149.12158,283.91764 C 146.35963,279.12678 143.68666,280.43565 141.14274,275.93777 C 139.11177,272.34683 141.91644,267.24396 139.69205,263.67778 C 136.39644,258.39422 131.1274,256.61919 130.98786,249.96691 C 130.87906,244.78 133.38152,244.1271 133.01884,239.08527 C 132.58047,232.99123 127.76006,232.81018 127.79633,225.73711 C 127.83259,218.66404 133.1639,218.33759 133.1639,210.79299 C 133.1639,203.24838 128.37661,202.84938 127.79633,196.42921 C 127.21604,190.00904 130.84279,185.1123 130.84279,185.1123 L 158.98632,174.52083 L 158.98632,298.86177 z "
       style="fill:#8497a8;fill-opacity:1;fill-rule:evenodd;stroke:#e6bf31;stroke-width:1.39999998;stroke-linecap:butt;stroke-linejoin:miter;stroke-miterlimit:4;stroke-dasharray:none;stroke-opacity:1"
       id="path7460" />
    <path
       d="M 158.89035,293.92516 C 155.30006,290.43699 157.55682,286.35891 156.53102,282.33214 C 155.50522,278.30535 151.2914,278.74774 150.78655,273.9195 C 150.37623,269.99531 153.75828,269.17241 153.35105,264.58352 C 152.89918,259.49173 144.86196,257.23885 144.73434,251.14381 C 144.63176,246.45017 147.5521,246.63157 147.60657,240.8845 C 147.65786,235.47271 143.37589,235.19273 143.19565,228.36813 C 143.01613,221.57134 150.01224,220.01173 150.17107,213.69732 C 150.27365,209.61924 146.83108,208.98944 147.19625,202.71985 C 147.50399,197.4363 158.99293,190.20348 158.99293,190.20348 L 158.89035,293.92516 z "
       style="fill:#8497a8;fill-opacity:1;fill-rule:evenodd;stroke:#e6bf31;stroke-width:1.5;stroke-linecap:butt;stroke-linejoin:miter;stroke-miterlimit:4;stroke-dasharray:none;stroke-opacity:1"
       id="path8335" />
    <path
       d="M 251.17136,724.59763 C 251.17136,724.59763 261.04374,704.85031 283.25658,694.97665 C 315.7938,680.51379 344.95893,677.69776 379.51225,657.95043 C 414.25195,638.09659 419.00175,625.86103 419.00175,625.86103 C 414.83556,623.73913 411.9926,619.15198 411.9926,614.0447 C 411.9926,607.15979 417.57961,601.57205 424.46363,601.57205 C 428.23652,601.57205 431.57134,603.35684 433.81032,606.11371 C 433.81032,606.11371 455.40614,575.25853 468.36363,541.93492 C 481.32113,508.61132 485.64029,472.8193 485.64029,472.8193 C 485.64029,472.8193 480.7041,477.75613 473.29982,477.75613 C 463.42744,477.75613 458.49126,467.88248 458.49126,462.94564 C 458.49126,462.94564 460.95935,346.93014 463.42744,297.56184 C 463.67395,292.63117 465.89554,282.75135 480.7041,282.75135 C 493.04457,282.75135 497.98076,292.62501 497.98076,292.62501 C 497.98076,292.62501 500.44885,282.75135 500.44885,270.40927 C 500.44885,258.0672 493.04457,248.19354 493.04457,248.19354 C 493.04457,248.19354 500.44885,240.78829 500.44885,225.9778 C 500.44885,211.16731 495.51267,203.76207 495.51267,203.76207 C 495.51267,203.76207 493.04457,221.04097 465.89554,221.04097 C 438.7465,221.04097 352.36321,156.86218 251.17136,156.86218 C 149.97951,156.86218 63.596221,221.04097 36.447181,221.04097 C 9.2981492,221.04097 6.8300552,203.76207 6.8300552,203.76207 C 6.8300552,203.76207 1.8938672,211.16731 1.8938672,225.9778 C 1.8938672,240.78829 9.2981492,248.19354 9.2981492,248.19354 C 9.2981492,248.19354 1.8938672,258.0672 1.8938672,270.40927 C 1.8938672,282.75135 4.3619612,292.62501 4.3619612,292.62501 C 4.3619612,292.62501 9.2981492,282.75135 21.638619,282.75135 C 36.447181,282.75135 38.668771,292.63117 38.915281,297.56184 C 41.383371,346.93014 43.851461,462.94564 43.851461,462.94564 C 43.851461,467.88248 38.915281,477.75613 29.042901,477.75613 C 21.638619,477.75613 16.702431,472.8193 16.702431,472.8193 C 16.702431,472.8193 21.021596,508.61132 33.979091,541.93492 C 46.936581,575.25853 68.532401,606.11371 68.532401,606.11371 C 70.771381,603.35684 74.106201,601.57205 77.879091,601.57205 C 84.763111,601.57205 90.350121,607.15979 90.350121,614.0447 C 90.350121,619.15198 87.507161,623.73913 83.340971,625.86103 C 83.340971,625.86103 88.090771,638.09659 122.83047,657.95043 C 157.38379,677.69776 186.54892,680.51379 219.08614,694.97665 C 241.29898,704.85031 251.17136,724.59763 251.17136,724.59763 z "
       style="fill:none;fill-opacity:1;fill-rule:evenodd;stroke:#000000;stroke-width:1.5;stroke-linecap:butt;stroke-linejoin:miter;stroke-miterlimit:4;stroke-dasharray:none;stroke-opacity:1"
       id="path15373" />
  </g>
</svg>
