<?xml version="1.0" encoding="UTF-8" standalone="no"?>
<!-- Created with Inkscape (http://www.inkscape.org/) -->
<svg
   xmlns:dc="http://purl.org/dc/elements/1.1/"
   xmlns:cc="http://web.resource.org/cc/"
   xmlns:rdf="http://www.w3.org/1999/02/22-rdf-syntax-ns#"
   xmlns:svg="http://www.w3.org/2000/svg"
   xmlns="http://www.w3.org/2000/svg"
   xmlns:sodipodi="http://sodipodi.sourceforge.net/DTD/sodipodi-0.dtd"
   xmlns:inkscape="http://www.inkscape.org/namespaces/inkscape"
   width="500"
   height="560"
   id="svg2"
   sodipodi:version="0.32"
   inkscape:version="0.45.1"
   version="1.0"
   sodipodi:docbase="/"
   sodipodi:docname="Saltvik.vaakuna.svg"
   inkscape:output_extension="org.inkscape.output.svg.inkscape">
  <defs
     id="defs4" />
  <sodipodi:namedview
     id="base"
     pagecolor="#ffffff"
     bordercolor="#666666"
     borderopacity="1.0"
     gridtolerance="10000"
     guidetolerance="10"
     objecttolerance="10"
     inkscape:pageopacity="0.0"
     inkscape:pageshadow="2"
     inkscape:zoom="1"
     inkscape:cx="401.89559"
     inkscape:cy="285.98361"
     inkscape:document-units="px"
     inkscape:current-layer="layer1"
     width="500px"
     height="560px"
     inkscape:window-width="1133"
     inkscape:window-height="967"
     inkscape:window-x="62"
     inkscape:window-y="5" />
  <metadata
     id="metadata7">
    <rdf:RDF>
      <cc:Work
         rdf:about="">
        <dc:format>image/svg+xml</dc:format>
        <dc:type
           rdf:resource="http://purl.org/dc/dcmitype/StillImage" />
        <dc:title>Saltvikin vaakuna, Saltviks vapen, Coat of arms of Saltvik</dc:title>
        <dc:date>2007-07-22</dc:date>
        <dc:creator>
          <cc:Agent>
            <dc:title>Hippophaë, Wikipedia</dc:title>
          </cc:Agent>
        </dc:creator>
        <dc:subject>
          <rdf:Bag>
            <rdf:li>Saltvik</rdf:li>
            <rdf:li>vaakuna</rdf:li>
            <rdf:li>vapen</rdf:li>
            <rdf:li>coat of arms</rdf:li>
          </rdf:Bag>
        </dc:subject>
        <cc:license
           rdf:resource="http://web.resource.org/cc/PublicDomain" />
        <dc:identifier>http://commons.wikimedia.org/wiki/Image:Saltvik.vaakuna.svg</dc:identifier>
      </cc:Work>
      <cc:License
         rdf:about="http://web.resource.org/cc/PublicDomain">
        <cc:permits
           rdf:resource="http://web.resource.org/cc/Reproduction" />
        <cc:permits
           rdf:resource="http://web.resource.org/cc/Distribution" />
        <cc:permits
           rdf:resource="http://web.resource.org/cc/DerivativeWorks" />
      </cc:License>
    </rdf:RDF>
  </metadata>
  <g
     inkscape:label="Layer 1"
     inkscape:groupmode="layer"
     id="layer1">
    <path
       style="fill:#bf9f4f;fill-opacity:1;fill-rule:evenodd;stroke:black;stroke-width:1px;stroke-linecap:butt;stroke-linejoin:miter;stroke-opacity:1"
       d="M 0.5,0.5 L 499.5,0.5 L 499.5,290 C 499.5,325 489,348 465,384 C 409,460 335,515 250,559.5 C 165,515 89,460 35,384 C 11,348 0.5,317 0.5,290 L 0.5,0.5 z "
       id="path2184"
       sodipodi:nodetypes="cccscscc" />
    <path
       style="fill:none;fill-opacity:0.75;fill-rule:evenodd;stroke:black;stroke-width:2.99999976;stroke-linecap:round;stroke-linejoin:miter;stroke-miterlimit:4;stroke-dasharray:none;stroke-opacity:1"
       d="M 56.5,293.13289 C 78.000002,303.92873 99.500005,303.92873 121,293.13289 C 142.5,303.92873 164,303.92873 185.50001,293.13289 C 207.00001,303.92873 228.50001,303.92873 250.00001,293.13289 C 271.50001,303.92873 293.00001,303.92873 314.50002,293.13289 C 336.00002,303.92873 357.50002,303.92873 379.00002,293.13289 C 400.50002,303.92873 422.00002,303.92873 443.50003,293.13289"
       id="path4867"
       sodipodi:nodetypes="ccccccc" />
    <path
       style="fill:none;fill-opacity:0.75;fill-rule:evenodd;stroke:black;stroke-width:2.99999976;stroke-linecap:round;stroke-linejoin:miter;stroke-miterlimit:4;stroke-dasharray:none;stroke-opacity:1"
       d="M 56.5,168.28613 C 78.000002,179.08197 99.500005,179.08197 121,168.28613 C 142.5,179.08197 164,179.08197 185.50001,168.28613 C 207.00001,179.08197 228.50001,179.08197 250.00001,168.28613 C 271.50001,179.08197 293.00001,179.08197 314.50002,168.28613 C 336.00002,179.08197 357.50002,179.08197 379.00002,168.28613 C 400.50002,179.08197 422.00002,179.08197 443.50003,168.28613"
       id="path7536"
       sodipodi:nodetypes="ccccccc" />
    <path
       sodipodi:nodetypes="ccccccc"
       id="path7534"
       d="M 56.5,230.70952 C 78.000002,241.50536 99.500005,241.50536 121,230.70952 C 142.5,241.50536 164,241.50536 185.50001,230.70952 C 207.00001,241.50536 228.50001,241.50536 250.00001,230.70952 C 271.50001,241.50536 293.00001,241.50536 314.50002,230.70952 C 336.00002,241.50536 357.50002,241.50536 379.00002,230.70952 C 400.50002,241.50536 422.00002,241.50536 443.50003,230.70952"
       style="fill:none;fill-opacity:0.75;fill-rule:evenodd;stroke:black;stroke-width:2.99999976;stroke-linecap:round;stroke-linejoin:miter;stroke-miterlimit:4;stroke-dasharray:none;stroke-opacity:1" />
    <path
       sodipodi:nodetypes="ccccccc"
       id="path7532"
       d="M 56.5,355.55632 C 78.000002,366.35216 99.500005,366.35216 121,355.55632 C 142.5,366.35216 164,366.35216 185.50001,355.55632 C 207.00001,366.35216 228.50001,366.35216 250.00001,355.55632 C 271.50001,366.35216 293.00001,366.35216 314.50002,355.55632 C 336.00002,366.35216 357.50002,366.35216 379.00002,355.55632 C 400.50002,366.35216 422.00002,366.35216 443.50003,355.55632"
       style="fill:none;fill-opacity:0.75;fill-rule:evenodd;stroke:black;stroke-width:2.99999976;stroke-linecap:round;stroke-linejoin:miter;stroke-miterlimit:4;stroke-dasharray:none;stroke-opacity:1" />
    <path
       sodipodi:nodetypes="cccccccc"
       id="path5760"
       d="M 0.5,0.5 L 499.5,0.5 L 499.5,290 C 499.5,325 489,348 465,384 L 250,130 L 35,384 C 11,348 0.5,317 0.5,290 L 0.5,0.5 z "
       style="fill:red;fill-opacity:1;fill-rule:evenodd;stroke:black;stroke-width:1px;stroke-linecap:butt;stroke-linejoin:miter;stroke-opacity:1" />
    <path
       sodipodi:nodetypes="ccc"
       id="path2148"
       d="M 397.5,64.5 C 417.5,64.5 402.5,116.5 397.5,146.5 C 392.5,116.5 377.5,64.5 397.5,64.5 z "
       style="fill:#bf9f4f;fill-opacity:1;fill-rule:evenodd;stroke:black;stroke-width:1;stroke-linecap:butt;stroke-linejoin:miter;stroke-miterlimit:4;stroke-dasharray:none;stroke-opacity:1" />
    <path
       sodipodi:nodetypes="ccc"
       id="path2150"
       d="M 397.5,165.5 C 402.5,181.5 412.5,209.5 397.5,209.5 C 382.5,209.5 392.5,181.5 397.5,165.5 z "
       style="fill:#bf9f4f;fill-opacity:1;fill-rule:evenodd;stroke:black;stroke-width:1;stroke-linecap:butt;stroke-linejoin:miter;stroke-miterlimit:4;stroke-dasharray:none;stroke-opacity:1" />
    <path
       transform="matrix(0.914844,0,0,0.536235,168.0263,-31.2354)"
       d="M 264 349.16666 A 13.166667 13.333333 0 1 1  237.66666,349.16666 A 13.166667 13.333333 0 1 1  264 349.16666 z"
       sodipodi:ry="13.333333"
       sodipodi:rx="13.166667"
       sodipodi:cy="349.16666"
       sodipodi:cx="250.83333"
       id="path2152"
       style="fill:#bf9f4f;fill-opacity:1;stroke:black;stroke-width:1;stroke-miterlimit:4;stroke-dasharray:none;stroke-opacity:1"
       sodipodi:type="arc" />
    <path
       style="fill:#bf9f4f;fill-opacity:1;fill-rule:evenodd;stroke:black;stroke-width:0.96924376px;stroke-linecap:butt;stroke-linejoin:miter;stroke-opacity:1"
       d="M 391.01538,121.41538 C 386.78069,107.46127 385.33934,93.53437 381.00662,86.36763 C 378.22593,82.1709 373.88257,78.79767 368.58517,78.99258 C 367.08717,83.48656 368.51607,88.08653 371.49076,93.12261 C 376.03981,100.11331 385.67755,109.19921 391.01538,121.41538 z "
       id="path2154"
       sodipodi:nodetypes="ccccc" />
    <path
       sodipodi:nodetypes="ccccccc"
       id="path2156"
       d="M 354.98981,191.0102 C 360.06248,188.72663 360.71349,187.04482 364.78125,187.16829 C 369.17975,187.11734 371.97034,190.67696 376.7708,190.626 C 381.70446,190.67628 392.49817,184.31315 393.0102,163.98981 C 389.55226,175.58921 385.88437,180.40911 376.76966,181.03823 C 372.30454,180.94414 369.44733,178.84418 365.38419,178.5495 C 360.31151,178.89191 357.44967,183.24606 354.98981,191.0102 z "
       style="fill:#bf9f4f;fill-opacity:1;fill-rule:evenodd;stroke:black;stroke-width:0.97961164px;stroke-linecap:butt;stroke-linejoin:miter;stroke-opacity:1" />
    <path
       sodipodi:nodetypes="cccccccccc"
       id="path2158"
       d="M 353.5,152.5 C 360.5,154.5 362.5,153.5 362.5,148.5 C 362.5,141.5 345.5,131.5 345.5,113.5 C 345.5,106.5 351.5,97.5 359.5,97.5 C 370.5,97.5 392.5,106.5 392.5,146.5 C 389.5,136.5 387.5,121.5 373.5,121.5 C 368.5,121.5 366.5,126.5 366.5,130.5 C 366.5,137.5 372.5,142.5 372.5,149.5 C 372.5,156.5 369.5,159.5 363.5,159.5 C 357.5,159.5 354.5,158.5 353.5,152.5 z "
       style="fill:#bf9f4f;fill-opacity:1;fill-rule:evenodd;stroke:black;stroke-width:1px;stroke-linecap:butt;stroke-linejoin:miter;stroke-opacity:1" />
    <path
       style="fill:#bf9f4f;fill-opacity:1;fill-rule:evenodd;stroke:black;stroke-width:1px;stroke-linecap:butt;stroke-linejoin:miter;stroke-opacity:1"
       d="M 441.5,152.5 C 434.5,154.5 432.5,153.5 432.5,148.5 C 432.5,141.5 449.5,131.5 449.5,113.5 C 449.5,106.5 443.5,97.5 435.5,97.5 C 424.5,97.5 402.5,106.5 402.5,146.5 C 405.5,136.5 407.5,121.5 421.5,121.5 C 426.5,121.5 428.5,126.5 428.5,130.5 C 428.5,137.5 422.5,142.5 422.5,149.5 C 422.5,156.5 425.5,159.5 431.5,159.5 C 437.5,159.5 440.5,158.5 441.5,152.5 z "
       id="path2160"
       sodipodi:nodetypes="cccccccccc" />
    <path
       sodipodi:nodetypes="ccccc"
       id="path2162"
       d="M 403.98462,121.41538 C 408.21931,107.46127 409.66066,93.53437 413.99338,86.36763 C 416.77407,82.1709 421.11743,78.79767 426.41483,78.99258 C 427.91283,83.48656 426.48393,88.08653 423.50924,93.12261 C 418.96019,100.11331 409.32245,109.19921 403.98462,121.41538 z "
       style="fill:#bf9f4f;fill-opacity:1;fill-rule:evenodd;stroke:black;stroke-width:0.96924376px;stroke-linecap:butt;stroke-linejoin:miter;stroke-opacity:1" />
    <path
       style="fill:#bf9f4f;fill-opacity:1;fill-rule:evenodd;stroke:black;stroke-width:0.97961164px;stroke-linecap:butt;stroke-linejoin:miter;stroke-opacity:1"
       d="M 440.0102,191.01019 C 434.93753,188.72662 434.28652,187.04481 430.21876,187.16828 C 425.82026,187.11733 423.02967,190.67695 418.22921,190.62599 C 413.29555,190.67627 402.50184,184.31314 401.98981,163.9898 C 405.44775,175.5892 409.11564,180.4091 418.23035,181.03822 C 422.69547,180.94413 425.55268,178.84417 429.61582,178.54949 C 434.6885,178.8919 437.55034,183.24605 440.0102,191.01019 z "
       id="path2164"
       sodipodi:nodetypes="ccccccc" />
    <path
       sodipodi:nodetypes="ccc"
       id="path2166"
       d="M 102.5,64.5 C 122.5,64.5 107.5,116.5 102.5,146.5 C 97.5,116.5 82.5,64.5 102.5,64.5 z "
       style="fill:#bf9f4f;fill-opacity:1;fill-rule:evenodd;stroke:black;stroke-width:1;stroke-linecap:butt;stroke-linejoin:miter;stroke-miterlimit:4;stroke-dasharray:none;stroke-opacity:1" />
    <path
       sodipodi:nodetypes="ccc"
       id="path2168"
       d="M 102.5,165.5 C 107.5,181.5 117.5,209.5 102.5,209.5 C 87.5,209.5 97.5,181.5 102.5,165.5 z "
       style="fill:#bf9f4f;fill-opacity:1;fill-rule:evenodd;stroke:black;stroke-width:1;stroke-linecap:butt;stroke-linejoin:miter;stroke-miterlimit:4;stroke-dasharray:none;stroke-opacity:1" />
    <path
       transform="matrix(0.914844,0,0,0.536235,-126.9737,-31.2354)"
       d="M 264 349.16666 A 13.166667 13.333333 0 1 1  237.66666,349.16666 A 13.166667 13.333333 0 1 1  264 349.16666 z"
       sodipodi:ry="13.333333"
       sodipodi:rx="13.166667"
       sodipodi:cy="349.16666"
       sodipodi:cx="250.83333"
       id="path2170"
       style="fill:#bf9f4f;fill-opacity:1;stroke:black;stroke-width:1;stroke-miterlimit:4;stroke-dasharray:none;stroke-opacity:1"
       sodipodi:type="arc" />
    <path
       style="fill:#bf9f4f;fill-opacity:1;fill-rule:evenodd;stroke:black;stroke-width:0.96924376px;stroke-linecap:butt;stroke-linejoin:miter;stroke-opacity:1"
       d="M 96.01538,121.41538 C 91.78069,107.46127 90.33934,93.53437 86.00662,86.36763 C 83.22593,82.1709 78.88257,78.79767 73.58517,78.99258 C 72.08717,83.48656 73.51607,88.08653 76.49076,93.12261 C 81.03981,100.11331 90.67755,109.19921 96.01538,121.41538 z "
       id="path2172"
       sodipodi:nodetypes="ccccc" />
    <path
       sodipodi:nodetypes="ccccccc"
       id="path2174"
       d="M 59.98981,191.0102 C 65.06248,188.72663 65.71349,187.04482 69.78125,187.16829 C 74.17975,187.11734 76.97034,190.67696 81.7708,190.626 C 86.70446,190.67628 97.49817,184.31315 98.0102,163.98981 C 94.55226,175.58921 90.88437,180.40911 81.76966,181.03823 C 77.30454,180.94414 74.44733,178.84418 70.38419,178.5495 C 65.31151,178.89191 62.44967,183.24606 59.98981,191.0102 z "
       style="fill:#bf9f4f;fill-opacity:1;fill-rule:evenodd;stroke:black;stroke-width:0.97961164px;stroke-linecap:butt;stroke-linejoin:miter;stroke-opacity:1" />
    <path
       sodipodi:nodetypes="cccccccccc"
       id="path2176"
       d="M 58.5,152.5 C 65.5,154.5 67.5,153.5 67.5,148.5 C 67.5,141.5 50.5,131.5 50.5,113.5 C 50.5,106.5 56.5,97.5 64.5,97.5 C 75.5,97.5 97.5,106.5 97.5,146.5 C 94.5,136.5 92.5,121.5 78.5,121.5 C 73.5,121.5 71.5,126.5 71.5,130.5 C 71.5,137.5 77.5,142.5 77.5,149.5 C 77.5,156.5 74.5,159.5 68.5,159.5 C 62.5,159.5 59.5,158.5 58.5,152.5 z "
       style="fill:#bf9f4f;fill-opacity:1;fill-rule:evenodd;stroke:black;stroke-width:1px;stroke-linecap:butt;stroke-linejoin:miter;stroke-opacity:1" />
    <path
       style="fill:#bf9f4f;fill-opacity:1;fill-rule:evenodd;stroke:black;stroke-width:1px;stroke-linecap:butt;stroke-linejoin:miter;stroke-opacity:1"
       d="M 146.5,152.5 C 139.5,154.5 137.5,153.5 137.5,148.5 C 137.5,141.5 154.5,131.5 154.5,113.5 C 154.5,106.5 148.5,97.5 140.5,97.5 C 129.5,97.5 107.5,106.5 107.5,146.5 C 110.5,136.5 112.5,121.5 126.5,121.5 C 131.5,121.5 133.5,126.5 133.5,130.5 C 133.5,137.5 127.5,142.5 127.5,149.5 C 127.5,156.5 130.5,159.5 136.5,159.5 C 142.5,159.5 145.5,158.5 146.5,152.5 z "
       id="path2178"
       sodipodi:nodetypes="cccccccccc" />
    <path
       sodipodi:nodetypes="ccccc"
       id="path2180"
       d="M 108.98462,121.41538 C 113.21931,107.46127 114.66066,93.53437 118.99338,86.36763 C 121.77407,82.1709 126.11743,78.79767 131.41483,78.99258 C 132.91283,83.48656 131.48393,88.08653 128.50924,93.12261 C 123.96019,100.11331 114.32245,109.19921 108.98462,121.41538 z "
       style="fill:#bf9f4f;fill-opacity:1;fill-rule:evenodd;stroke:black;stroke-width:0.96924376px;stroke-linecap:butt;stroke-linejoin:miter;stroke-opacity:1" />
    <path
       style="fill:#bf9f4f;fill-opacity:1;fill-rule:evenodd;stroke:black;stroke-width:0.97961164px;stroke-linecap:butt;stroke-linejoin:miter;stroke-opacity:1"
       d="M 145.0102,191.01019 C 139.93753,188.72662 139.28652,187.04481 135.21876,187.16828 C 130.82026,187.11733 128.02967,190.67695 123.22921,190.62599 C 118.29555,190.67627 107.50184,184.31314 106.98981,163.9898 C 110.44775,175.5892 114.11564,180.4091 123.23035,181.03822 C 127.69547,180.94413 130.55268,178.84417 134.61582,178.54949 C 139.6885,178.8919 142.55034,183.24605 145.0102,191.01019 z "
       id="path2182"
       sodipodi:nodetypes="ccccccc" />
    <path
       style="fill:none;fill-opacity:0.75;fill-rule:evenodd;stroke:black;stroke-width:2.99999976;stroke-linecap:round;stroke-linejoin:miter;stroke-miterlimit:4;stroke-dasharray:none;stroke-opacity:1"
       d="M 64,417.97972 C 78.000002,428.77556 99.500005,428.77556 121,417.97972 C 142.5,428.77556 164,428.77556 185.50001,417.97972 C 207.00001,428.77556 228.50001,428.77556 250.00001,417.97972 C 271.50001,428.77556 293.00001,428.77556 314.50002,417.97972 C 336.00002,428.77556 357.50002,428.77556 379.00002,417.97972 C 400.50002,428.77556 422.00002,428.77556 436,417.97972"
       id="path7538"
       sodipodi:nodetypes="ccccccc" />
    <path
       sodipodi:nodetypes="ccccc"
       id="path7540"
       d="M 129,480.40312 C 142.5,491.19896 164,491.19896 185.50001,480.40312 C 207.00001,491.19896 228.50001,491.19896 250.00001,480.40312 C 271.50001,491.19896 293.00001,491.19896 314.50002,480.40312 C 336.00002,491.19896 357.50002,491.19896 370,480.40312"
       style="fill:none;fill-opacity:0.75;fill-rule:evenodd;stroke:black;stroke-width:2.99999976;stroke-linecap:round;stroke-linejoin:miter;stroke-miterlimit:4;stroke-dasharray:none;stroke-opacity:1" />
  </g>
</svg>
