<?xml version="1.0" encoding="UTF-8"?>
<!DOCTYPE svg PUBLIC "-//W3C//DTD SVG 1.1//EN" "http://www.w3.org/Graphics/SVG/1.1/DTD/svg11.dtd">
<!-- Creator: CorelDRAW -->
<svg xmlns="http://www.w3.org/2000/svg" xml:space="preserve" width="500px" height="575px" shape-rendering="geometricPrecision" text-rendering="geometricPrecision" image-rendering="optimizeQuality" fill-rule="evenodd" clip-rule="evenodd"
viewBox="0 0 500 575"
 xmlns:xlink="http://www.w3.org/1999/xlink"
 xmlns:dc="http://purl.org/dc/elements/1.1/"
 xmlns:cc="http://web.resource.org/cc/"
 xmlns:rdf="http://www.w3.org/1999/02/22-rdf-syntax-ns#"
 xmlns:svg="http://www.w3.org/2000/svg"
 xmlns:sodipodi="http://sodipodi.sourceforge.net/DTD/sodipodi-0.dtd"
 xmlns:inkscape="http://www.inkscape.org/namespaces/inkscape"
 version="1.0"
 sodipodi:version="0.32"
 inkscape:version="0.45.1"
 sodipodi:docname="Sauvo.svg"
 sodipodi:docbase="/home/pasi/temppi"
 inkscape:output_extension="org.inkscape.output.svg.inkscape">
 <g id="Layer_x0020_1">
  <metadata id="CorelCorpID_0Corel-Layer"/>
  <path id="path2438" fill="#BF9F4F" stroke="black" stroke-width="0.510236" d="M0.488977 0.528945l-0.0104882 352.952c48.8673,296.271 464.432,294.466 498.953,-12.9104l0.117071 -339.979 -499.059 -0.0629292z" sodipodi:nodetypes="cccccc"/>
  <path id="path3523" fill="white" fill-rule="nonzero" d="M428.002 319.136c2.52567,15.7725 34.1439,24.5319 42.9089,43.0631 -30.0005,-4.90139 -56.5824,-21.1737 -86.4355,-26.3801 26.8937,20.7309 54.2021,40.9292 81.1353,61.6187 -6.5194,30.6116 -34.9322,50.7501 -63.7654,58.1928 -27.2792,-34.5186 -55.2351,-68.5123 -82.6572,-102.928 -9.73078,0.721701 -19.4519,1.49216 -29.1575,2.4429 -1.09162,26.153 -8.26952,55.7901 -7.40325,82.122 15.3627,3.7029 34.3162,-1.21295 42.323,10.2308 -10.9865,-2.51773 -26.115,2.88028 -29.1135,-0.0802205 -9.40309,-0.682583 -9.05415,2.49817 -18.3702,3.88205 -8.85062,10.8201 -19.7116,20.7275 -23.4165,34.7321 -7.02511,4.69531 -9.66643,7.34372 -16.3621,12.5053 -2.01175,-17.7231 24.9259,-35.1026 22.5723,-41.8187 -17.21,14.2427 -40.7529,21.4305 -47.3094,29.7218 2.42107,-8.23663 7.42649,-17.3376 36.9709,-36.6248 -7.23515,1.20473 -16.9484,2.19062 -23.8862,5.61997 -5.70161,0.521292 -13.6157,0.517607 -20.713,4.17969 2.13789,-7.88542 15.8349,-13.9275 20.1512,-15.08 14.6914,-0.500599 29.0381,1.02529 43.2355,-2.88737 2.1634,-22.8345 4.13802,-52.6235 6.16224,-75.4209 -3.66832,-8.5133 -8.52463,-16.4418 -12.8152,-24.6317 -9.53575,22.811 -28.2249,42.9472 -39.3103,64.9262 7.79103,5.88728 13.9998,1.04287 24.2164,1.49953 6.12992,0.273827 12.42,2.15093 16.2887,5.73648 -8.74092,1.2257 -13.6545,3.82366 -16.8353,6.74589 -23.9647,-6.95226 -43.9345,12.174 -51.3868,33.1078 -2.56677,1.04627 -7.70117,3.13909 -10.2688,4.18564 -1.75323,3.25417 -4.18167,10.8422 -5.93547,14.0964 0.920126,-15.6549 13.3444,-35.9212 23.0718,-48.1011 -8.79449,5.01449 -20.9169,12.2434 -29.0285,20.8043 -7.47015,-0.0144567 -10.9055,7.09144 -15.8703,9.84898 10.478,-21.8758 14.0122,-26.4328 35.3775,-36.9482 -9.30303,0.837638 -22.0811,3.86362 -31.0252,6.63648 -5.02498,0.478772 -12.9501,3.56117 -17.9751,4.04022 15.1447,-23.4459 43.6116,-9.16526 64.5648,-20.7627 13.6837,-15.4673 22.7716,-39.3954 34.3902,-56.3993 -10.5143,-10.728 -13.2574,-25.7366 -15.8156,-39.9544 -30.7585,-17.6397 -58.1701,-40.4751 -81.3439,-67.2846 -29.0702,-35.259 -40.2358,-84.5263 -28.3105,-128.744 -25.8336,-39.8429 -19.3822,-19.6464 -60.776,-38.253 21.0215,-4.40844 40.3637,-3.90331 61.6873,-5.00769 -25.8106,-2.91288 -51.8054,-2.17162 -77.6804,-1.45843 9.3481,-12.0512 24.7689,-19.8712 40.0232,-17.9076 11.8049,-8.28709 18.959,-19.5061 30.5674,-27.9958 28.0556,-13.2236 61.7242,-4.14312 76.485,24.4658 12.5235,24.6121 23.0482,52.1374 46.2776,69.6127 31.553,25.3369 60.1699,54.4592 80.5972,89.6877 13.4039,25.5518 34.6881,50.4973 61.3968,62.0448 15.1359,20.0568 31.8433,33.5129 52.5637,48.9184z" sodipodi:nodetypes="cccccccccccccccccccccccccccccccccccccccccccccccccc"/>
  <sodipodi:namedview inkscape:cy="223.15338" inkscape:cx="166.03068" inkscape:zoom="1.2096579" inkscape:window-height="949" inkscape:window-width="1280" inkscape:pageshadow="2" inkscape:pageopacity="0.0" guidetolerance="10.0" gridtolerance="10.0" objecttolerance="10.0" borderopacity="1.0" bordercolor="#666666" pagecolor="#ffffff" id="base" inkscape:window-x="0" inkscape:window-y="25" inkscape:current-layer="svg3497" showgrid="false" showguides="true" width="460.12px" height="527.23px" units="px"/>
  <path id="path3523_0" fill="black" fill-rule="nonzero" stroke="black" stroke-width="0.216" d="M382.546 273.573c16.575,11.2578 44.3081,18.3232 59.7033,31.4042 13.894,10.8057 31.428,16.5872 42.8579,30.5552 -14.595,-0.217134 -31.051,0.44504 -44.6633,-5.14318 -4.50454,-4.14709 -5.14659,-5.32857 -7.35336,-10.2679 -19.4604,-12.8968 -43.4268,-34.727 -50.5446,-46.5483zm49.0558 49.163c2.52567,15.7725 34.1439,24.5319 42.9089,43.0631 -30.0005,-4.90139 -56.5824,-21.1737 -86.4355,-26.3801 26.8937,20.7309 54.2021,40.9292 81.1353,61.6187 -6.5194,30.6116 -34.9322,50.7501 -63.7654,58.1928 -27.2792,-34.5186 -55.2351,-68.5123 -82.6572,-102.928 -9.73078,0.721701 -19.4519,1.49216 -29.1575,2.4429 -1.09162,26.153 -9.34838,53.6327 -8.48211,79.9643 15.3627,3.70318 37.5523,-2.29096 43.4018,12.3885 -10.9865,-2.51773 -26.115,2.88028 -29.1135,-0.0802205 -9.40309,-0.682583 -9.05415,2.49817 -18.3702,3.88205 -8.85062,10.8201 -19.7116,20.7275 -23.4165,34.7321 -7.02511,4.69531 -11.8236,7.34372 -18.5193,12.5053 -2.01175,-17.7231 24.9262,-36.1814 22.5723,-42.8976 -17.21,14.2427 -39.6746,21.4305 -46.2308,29.7218 2.42079,-8.23663 6.34791,-16.2587 35.8923,-35.5459 -7.23487,1.20473 -14.7912,2.19062 -21.729,5.61997 -5.70161,0.521292 -13.6157,0.517607 -20.713,4.17969 2.13789,-7.88542 13.6775,-16.0849 17.9938,-17.2375 14.6914,-0.500599 29.0378,-0.0535748 43.2355,-3.96595 2.1634,-22.8345 6.29547,-49.3875 8.31969,-72.1849 -3.66832,-8.5133 -8.52463,-16.4418 -12.8152,-24.6317 -9.53575,22.811 -28.2249,42.9472 -39.3103,64.9262 7.79103,5.88728 13.9998,1.04287 24.2164,1.49953 6.12992,0.273827 12.42,2.15093 16.2887,5.73648 -8.74092,1.2257 -13.6545,3.82366 -16.8353,6.74589 -23.9647,-6.95226 -43.9345,12.174 -51.3868,33.1078 -2.56677,1.04627 -7.70117,3.13909 -10.2688,4.18564 -1.75323,3.25417 -5.26054,9.76366 -7.01405,13.0178 0.919843,-15.6552 14.423,-34.8426 24.1503,-47.0225 -8.79449,5.01449 -20.9169,12.2434 -29.0285,20.8043 -7.47015,-0.0144567 -11.9843,6.01285 -16.9492,8.77011 10.478,-21.8755 15.0911,-25.3539 36.4564,-35.8693 -9.30303,0.837638 -22.0811,3.86362 -31.0252,6.63648 -5.02498,0.478772 -14.029,2.48258 -19.0539,2.96136 15.145,-23.4456 44.6905,-12.4007 65.6436,-23.9984 13.6837,-15.467 22.7716,-35.0807 34.3902,-52.0847 -10.5143,-10.728 -13.2574,-25.7366 -15.8156,-39.9544 -30.7585,-17.6397 -58.1701,-40.4751 -81.3439,-67.2846 -29.0702,-35.259 -40.2358,-84.5263 -28.3105,-128.744 -25.8336,-39.8429 -23.6965,-22.8821 -65.0903,-41.4887 21.0215,-4.40844 42.5208,-3.90331 63.8445,-5.00769 -25.8106,-2.91288 -51.8052,-1.09361 -77.6801,-0.380126 9.34782,-12.0512 23.6897,-18.7926 38.9444,-16.8287 11.8049,-8.28709 21.1159,-19.5061 32.7243,-27.9961 28.0559,-13.2236 66.0391,-4.14284 80.7996,24.4661 12.5235,24.6118 19.8125,53.216 43.0418,70.6913 31.553,25.3369 60.1699,54.4592 80.5972,89.6877 13.4039,25.5518 34.6881,50.4973 61.3968,62.0448 15.1359,20.0568 31.8433,33.5129 52.5637,48.9184z" sodipodi:nodetypes="cccccccccccccccccccccccccccccccccccccccccccccccccc"/>
  <path id="path3527" fill="#FDFDFA" fill-rule="nonzero" d="M129.349 46.3093c9.32996,-0.679181 6.65518,13.7305 -1.33625,13.0351 -9.60095,0.629292 -6.85559,-13.7171 1.33625,-13.0351z"/>
  <path id="path3541" fill="none" fill-rule="nonzero" stroke="#FDFDFA" stroke-width="0.351213" d="M148.068 158.255c5.44791,-20.1022 25.7145,-32.6322 46.1883,-29.3338 -13.9638,3.79446 -31.1216,3.63884 -39.0918,18.0082 -14.9564,18.8637 -6.67276,42.5628 -0.530079,63.0122 -5.15991,-16.4639 -15.2272,-34.5444 -6.56646,-51.6867z"/>
  <path id="path3543" fill="#FDFDFA" fill-rule="nonzero" d="M148.068 158.255c5.44791,-20.1022 25.7145,-32.6322 46.1883,-29.3338 -13.9638,3.79446 -31.1216,3.63884 -39.0918,18.0082 -14.9564,18.8637 -6.67276,42.5628 -0.530079,63.0122 -5.15991,-16.4639 -15.2272,-34.5444 -6.56646,-51.6867z"/>
  <polygon id="path2457" fill="white" fill-rule="nonzero" points="364.322,70.9798 386.688,18.8847 410.721,66.9901 463.026,62.3296 430.718,105.887 464.148,147.589 410.492,139.808 387.95,191.433 367.942,138.045 312.237,147.228 348.363,100.564 315.331,62.3058 "/>
  <polygon id="path2457_1" fill="black" fill-rule="nonzero" points="369.715,69.9013 391.002,18.8847 410.721,69.1472 463.026,62.3296 430.718,105.887 464.148,147.589 410.492,139.808 391.186,186.04 372.256,139.123 318.708,146.15 350.519,105.957 315.331,62.3058 "/>
  <path id="path2459" fill="#BF9F4F" stroke="black" stroke-width="0.216" d="M411.171 104.946c0.000283465,10.7246 -9.32202,19.4723 -20.7522,19.4723 -11.4304,0 -20.7527,-8.74772 -20.7527,-19.4723 0,-10.7252 9.3223,-19.4726 20.7527,-19.4726 11.4301,0 20.7525,8.74744 20.7525,19.4726l-0.000283465 0z" sodipodi:ry="3.7653437" sodipodi:rx="4.0128312" sodipodi:cy="73.207565" sodipodi:cx="19.639891" sodipodi:type="arc"/>
  <path id="path2465" fill="black" stroke="#FDFDFA" stroke-width="0.702426" d="M170.576 235.708c0,0 3.10309,10.3433 16.5487,21.7205 13.4461,11.3774 22.7548,12.4115 22.7548,12.4115l0 0m-39.3035 -34.132l0 0 0 0z"/>
  <path id="path2459_2" fill="white" d="M390.418 124.418c14.9542,-9.63808 19.8417,-20.7142 14.6625,-33.2303 3.75931,3.52743 6.08996,8.39566 6.08996,13.758l-0.000283465 0c0.000283465,10.7246 -9.32202,19.4723 -20.7522,19.4723z" sodipodi:ry="3.7653437" sodipodi:rx="4.0128312" sodipodi:cy="73.207565" sodipodi:cx="19.639891" sodipodi:type="arc"/>
  <polygon id="path2457_3" fill="white" fill-rule="nonzero" points="81.7336,325.525 104.1,273.43 128.132,321.536 180.437,316.875 148.13,360.433 181.559,402.135 127.903,394.354 105.362,445.979 85.3532,392.59 29.6484,401.774 65.7737,355.11 32.7422,316.851 "/>
  <polygon id="path2457_4" fill="black" fill-rule="nonzero" points="87.1263,324.447 108.414,273.43 128.132,323.693 180.437,316.875 148.13,360.433 181.559,402.135 127.903,394.354 108.597,440.586 89.667,393.669 36.1194,400.695 67.9306,360.502 32.7422,316.851 "/>
  <path id="path2459_5" fill="#BF9F4F" stroke="black" stroke-width="0.216" d="M128.582 359.491c0.000283465,10.7246 -9.32202,19.4723 -20.7522,19.4723 -11.4304,0 -20.7527,-8.74772 -20.7527,-19.4723 0,-10.7252 9.3223,-19.4726 20.7527,-19.4726 11.4301,0 20.7525,8.74744 20.7525,19.4726l-0.000283465 0z" sodipodi:ry="3.7653437" sodipodi:rx="4.0128312" sodipodi:cy="73.207565" sodipodi:cx="19.639891" sodipodi:type="arc"/>
  <path id="path2459_6" fill="white" d="M107.83 378.964c14.9542,-9.63808 19.8417,-20.7142 14.6625,-33.2303 3.75931,3.52743 6.08996,8.39566 6.08996,13.758l-0.000283465 0c0.000283465,10.7246 -9.32202,19.4723 -20.7522,19.4723z" sodipodi:ry="3.7653437" sodipodi:rx="4.0128312" sodipodi:cy="73.207565" sodipodi:cx="19.639891" sodipodi:type="arc"/>
  <path fill="none" stroke="white" stroke-width="1.41732" d="M265.318 346.526c-6.39723,-5.23276 -11.5149,-15.5852 -16.0515,-28.2645"/>
 </g>
</svg>
