<?xml version="1.0" encoding="UTF-8" standalone="no"?>
<!-- Created with Inkscape (http://www.inkscape.org/) -->
<svg
   xmlns:svg="http://www.w3.org/2000/svg"
   xmlns="http://www.w3.org/2000/svg"
   version="1.0"
   width="800.12097"
   height="940.547"
   viewBox="0 0 800.121 940.547"
   id="Layer_1"
   xml:space="preserve"><defs
   id="defs12" />
<path
   d="M 0.06,0.06 L 800.06,0.06 L 800.06,492.856 C 800.06,1089.697 0.06,1089.697 0.06,492.856 L 0.06,0.06 L 0.06,0.06 z "
   style="fill-rule:evenodd"
   id="path3" />
<path
   d="M 0.06,0.06 L 800.06,0.06 L 800.06,492.856 C 800.06,1089.697 0.06,1089.697 0.06,492.856 L 0.06,0.06 L 0.06,0.06 z "
   style="fill:none;stroke:#000000;stroke-width:0.1203;stroke-miterlimit:10"
   id="path5" />
<path
   d="M 390.847,668.344 C 394.398,667.918 398.376,668.344 401.927,667.918 C 403.204,679.281 406.514,695.666 405.297,699.174 C 404.196,702.35 398.273,703.756 395.611,699.962 C 393.175,696.492 391.841,679.139 390.847,668.344 M 256.182,844.036 C 256.182,844.036 275.939,846.747 288.996,850.854 C 311.935,831.249 322.141,821.9 339.867,807.105 C 335.639,802.054 329.12,795.769 324.891,791.072 C 306.766,808.132 274.946,832.271 256.182,844.036 z M 368.448,836.892 C 355.48,821.545 352.095,819.846 343.284,810.566 C 335.483,817.72 328.578,824.086 316.953,833.829 C 338.43,840.896 352.011,836.151 368.448,836.892 z M 382.613,842.501 C 387.564,840.477 392.112,837.619 397.183,834.952 C 385.461,819.506 345.458,782.12 334.078,765.744 C 328.599,770.857 325.175,773.84 319.622,778.954 C 336.801,794.481 361.352,819.377 382.613,842.501 z M 397.54,823.93 C 401.652,821.8 404.935,821.054 407.051,818.939 C 404.592,796.334 402.134,780.552 400.02,759.878 C 387.714,770.615 378.701,781.191 366.514,791.146 C 376.276,805.222 389.404,815.625 397.54,823.93 z M 399.594,713.271 C 404.231,741.125 407.764,783.204 413.421,823.816 C 416.357,823.816 417.69,825.131 422.901,821.884 C 417.986,772.219 414.1,750.15 411.292,709.453 C 406.75,707.196 401.4,708.112 399.594,713.271 z M 419.315,744.636 C 421.291,758.495 423.687,787.534 426.967,811.941 C 460.564,793.173 485.809,771.358 514.941,747.863 C 498.231,732.341 458.79,703.127 458.79,701.952 C 445.399,716.047 437.28,726.717 419.315,744.636 z M 361.672,787.535 C 377.754,772.623 386.731,765.379 399.89,752.307 C 398.406,741.817 397.499,728.173 396.207,728.173 C 381.75,742.62 367.44,756.159 348.739,771.282 C 354.604,778.685 357.012,781.619 361.672,787.535 z M 418.775,736.83 C 431.72,723.802 441.618,712.514 458.994,695.41 C 472.112,706.123 520.506,744.777 526.728,750.135 C 533.611,743.388 539.502,737.572 540.401,735.445 C 516.791,712.069 463.136,674.883 454.015,665.271 C 444.448,676.262 426.938,700.645 416.368,711.217 C 417.66,721.789 417.483,726.023 418.775,736.83 z M 468.062,669.05 C 501.807,696.398 507.182,699.157 537.073,724.072 C 589.897,688.438 631.231,584.291 634.989,568.315 C 592.936,560.797 567.091,557.599 526.33,552.669 C 519.869,574.165 514.163,592.027 503.591,615.638 C 495.602,630.791 475.926,656.641 468.062,669.05 z M 388.018,690.623 C 383.503,662.931 385.463,644.299 371.907,637.562 C 359.78,631.535 360.203,623.839 361.524,615.79 C 357.496,609.394 358.632,603.928 357.848,598.835 C 337.13,604.233 337.411,640.851 363.963,652.53 C 374.055,662.034 360.068,687.214 388.018,690.623 z M 411.645,609.193 C 426.423,618.922 406.483,633.099 404.477,637.826 C 402.823,641.722 406.446,673.39 411.214,687.89 C 430.07,681.87 414.347,651.941 421.591,642.803 C 431.627,630.144 444.385,591.543 409.555,589.964 C 410.331,598.385 410.491,602.771 411.645,609.193 z M 364.035,611.686 C 368.609,614.175 372.83,615.649 376.846,610.716 C 369.158,556.943 356.27,491.928 352.651,426.682 C 349.283,423.224 343.109,421.951 340.193,427.511 C 341.778,451.362 345.847,493.282 364.035,611.686 z M 382.16,613.945 C 385.454,616.69 389.457,614.767 392.872,612.699 C 391.062,597.82 370.239,448.926 368.754,428.678 C 365.367,425.626 361.955,424.463 357.812,428.422 C 361.073,491.949 375.347,550.631 382.16,613.945 z M 397.674,609.73 C 401.727,611.584 403.014,611.062 406.765,609.319 C 399.836,548.238 391.361,489.285 385.253,429.26 C 380.929,424.35 376.463,425.941 373.441,428.8 C 379.577,474.79 394.9,591.452 397.674,609.73 z M 641.694,566.315 C 714.554,586.067 718.309,578.039 728.718,524.573 C 741.33,459.796 720.929,467.779 658.322,463.81 C 650.383,473.421 647.629,493.519 645.134,513.174 C 642.397,534.764 640.375,555.998 641.694,566.315 z M 634.494,561.435 C 633.724,548.229 636.217,529.084 638.58,510.934 C 640.944,492.782 643.179,475.62 648.639,467.499 C 558.191,457.396 482.625,449.228 392.53,439.714 C 394.691,465.13 396.894,478.272 402,525.955 C 481.408,537.574 550.271,545.93 634.494,561.435 z M 665.95,513.932 C 663.616,546.521 720.898,544.085 721.918,520.887 C 723.035,495.512 667.665,489.985 665.95,513.932 z M 671.733,516.402 C 670.456,531.328 712.367,540.055 715.26,520.525 C 718.085,501.487 673.384,497.127 671.733,516.402 z M 344.714,517.711 C 339.72,484.866 337.407,460.144 334.179,432.504 C 297.06,427.922 262.78,425.233 225.778,421.006 C 228.134,435.254 235.323,462.706 216.012,463.528 C 197.197,464.329 202.818,442.132 199.117,418.571 C 165.992,416.925 133.281,406.329 102.504,406.329 C 96.216,480.602 128.428,488.341 186.831,496.924 C 238.148,504.466 305.969,511.744 344.714,517.711 z M 551.579,449.961 C 572.953,452.274 644.354,461.538 650.885,461.538 C 652.698,434.477 655.988,413.177 658.508,386.96 C 608.701,385.785 558.936,392.32 551.579,449.961 z M 207.991,453.767 C 209.466,460.307 224.774,457.73 224.753,450.841 C 224.57,390.265 180.112,367.888 174.26,409.252 C 176.139,408.665 185.93,411.169 188.515,411.169 C 188.77,406.31 188.221,402.166 191.869,401.436 C 206.527,398.501 204.375,437.728 207.991,453.767 z "
   style="fill:#ffb310;fill-rule:evenodd"
   id="path7" />
<polygon
   points="697.052,338.023 636.685,277.653 657.08,256.879 598.054,197.252 538.718,256.879 559.529,277.653 499.057,338.023 438.996,277.653 460.07,256.879 400.059,197.252 340.613,256.879 361.313,277.653 301.061,338.023 240.801,277.653 261.828,256.879 202.063,197.252 142.508,256.879 163.584,277.526 103.066,338.023 42.985,277.653 63.956,256.879 4.069,197.252 4.07,4.069 796.053,4.069 796.053,197.252 736.474,256.879 757.546,277.653 697.052,338.023 "
   style="fill:#ffb310;fill-rule:evenodd"
   id="polygon9" />
</svg>