<?xml version="1.0" encoding="UTF-8"?>
<!DOCTYPE svg PUBLIC "-//W3C//DTD SVG 1.1//EN" "http://www.w3.org/Graphics/SVG/1.1/DTD/svg11.dtd">
<!-- Creator: CorelDRAW -->
<svg xmlns="http://www.w3.org/2000/svg" xml:space="preserve" width="500px" height="820px" shape-rendering="geometricPrecision" text-rendering="geometricPrecision" image-rendering="optimizeQuality" fill-rule="evenodd" clip-rule="evenodd"
viewBox="0 0 500 820"
 xmlns:xlink="http://www.w3.org/1999/xlink"
 xmlns:svg="http://www.w3.org/2000/svg"
 version="1.0">
 <g id="Layer_x0020_1">
  <metadata id="CorelCorpID_0Corel-Layer"/>
  <path id="path1937" fill="#0581ED" stroke="black" stroke-width="1.98425" d="M3.61814 175.286l492.073 -0.275528 -1.25802 542.878c0.517607,42.8295 -24.2195,83.6592 -67.5978,83.5952l-130.946 0.180284c-26.3228,0.0870237 -34.5427,4.60205 -42.1844,15.9993 -8.65588,-10.1438 -12.2145,-15.8063 -41.5225,-15.7479l-146.382 0.292252c-37.2518,-3.39477 -61.6573,-35.3325 -61.6952,-76.2356l-0.486992 -550.686z"/>
  <polygon id="path133" fill="#BF9F4F" points="28.8612,133.504 472.629,133.504 472.553,160.56 29.3939,159.749 "/>
  <path id="path1937_0" fill="black" d="M494.123 646.751l-0.16441 70.9626c0.517607,42.8292 -24.2195,83.6592 -67.5978,83.5952l-130.945 0.180284c-26.3231,0.0870237 -34.5427,4.60205 -42.1844,15.9993 -8.65616,-10.1438 -12.2145,-15.8063 -41.5228,-15.7482l-146.382 0.292536c-37.2515,-3.39477 -61.6573,-35.3325 -61.6952,-76.2358l-0.0694489 -79.0481c14.6948,0 27.6214,-11.0336 43.2958,-11.0336 15.6747,0 32.8419,12.6357 49.9638,12.6357 17.1216,0 35.1783,-12.6354 52.7667,-12.6354 17.5887,0 35.7333,12.6357 52.7667,12.6357 17.0331,0 32.76,-12.6354 49.434,-12.6354 16.674,0 33.7408,12.6357 50.6112,12.6357 16.8704,0 33.0939,-12.6349 50.6115,-12.6349 17.5173,0 36.8399,11.0341 54.493,11.0341 17.6533,0 36.9938,-11.0339 51.4299,-11.0339 14.4363,0 23.4595,11.0341 35.189,11.0341z"/>
  <path id="path3476" fill="#BF9F4F" fill-rule="nonzero" stroke="black" stroke-width="1.41732" d="M29.3939 159.799c-9.79484,0 -9.79484,15.0253 0,15.0253l440.538 0c9.79484,0 9.79484,-14.6667 0,-14.6667l-440.538 -0.358583zm440.538 -26.2945c9.79484,0 9.79484,-11.2691 0,-11.2691l-4.89742 0 -430.743 0 -4.89742 0c-9.79484,0 -9.79484,11.2691 0,11.2691l440.538 0z"/>
  <polygon id="path131" fill="#C4A177" points="27.2537,125.351 473.469,125.351 473.469,129.607 27.2537,129.607 "/>
  <polygon id="path129" fill="#C4A177" points="26.4005,161.941 470.824,161.941 470.824,170.541 26.4005,170.541 "/>
  <line id="path135" fill="none" stroke="black" stroke-width="1.41732" x1="34.2913" y1="122.235" x2="470.049" y2= "122.235" />
  <polygon id="path143" fill="#ED1A24" points="287.357,146.614 250.686,135.644 250.686,146.614 "/>
  <polygon id="path145" fill="#ED1A24" points="214.014,146.614 250.686,157.585 250.686,146.614 "/>
  <polygon id="path147" fill="#F3A29A" points="214.014,146.614 250.686,135.644 250.686,146.614 "/>
  <polygon id="path149" fill="#F3A29A" points="287.357,146.614 250.686,157.585 250.686,146.614 "/>
  <polygon id="path151" fill="white" points="250.686,135.384 250.686,146.614 242.137,137.98 "/>
  <polygon id="path153" fill="white" points="250.686,157.844 250.686,146.614 259.234,155.248 "/>
  <polygon id="path155" fill="none" stroke="#ED1A24" stroke-width="1.15228" points="250.686,157.585 213.855,146.614 250.686,135.644 287.357,146.614 "/>
  <path id="path159" fill="#0057F0" d="M361.62 135.761c16.24,0 20.0103,4.48668 20.0103,9.97059 0,5.48391 -4.72082,9.97059 -20.0103,9.97059 -15.2895,0 -19.9361,-4.48668 -19.9361,-9.97059 0,-5.48391 3.6961,-9.97059 19.9361,-9.97059z"/>
  <path id="path161" fill="white" d="M376.479 141.356c2.46388,1.36318 3.95717,3.05121 3.95717,4.86879 0,4.41411 -8.58643,8.04955 -19.1891,8.04955 -10.5282,0 -19.1146,-3.63543 -19.1146,-8.04955 0,-0.129827 0,-0.259654 0,-0.389481 0.522425,4.21937 8.58643,7.53024 18.517,7.53024 10.1546,0 18.5173,-3.57024 18.5173,-7.91972 0,-1.49301 -0.970583,-2.9211 -2.68781,-4.08983z"/>
  <polygon id="path175" fill="none" points="444.104,146.55 475.059,135.644 475.059,146.614 "/>
  <polygon id="path177" fill="none" stroke="#ED1A24" stroke-width="1.15228" points="471.924,157.585 443.947,146.614 471.924,135.644 482.973,146.55 "/>
  <polygon id="path179" fill="#F3A29A" points="443.947,146.614 471.924,135.644 471.924,146.614 "/>
  <polygon id="path181" fill="#F3A29A" points="482.973,146.55 471.924,146.614 471.924,157.585 "/>
  <polygon id="path179_1" fill="#F3A29A" points="56.3281,146.614 28.3516,135.644 28.3516,146.614 "/>
  <polygon id="path183" fill="#ED241A" points="482.973,146.55 471.924,135.449 471.924,146.614 "/>
  <polygon id="path185" fill="#ED241A" points="444.026,146.614 471.924,157.585 471.924,146.55 "/>
  <polygon id="path187" fill="white" points="471.924,152.327 471.924,146.614 480.074,146.614 "/>
  <polygon id="path189" fill="white" points="471.924,142.2 471.924,146.614 462.128,146.614 "/>
  <polygon id="path193" fill="none" points="58.6931,146.55 24.8684,135.644 24.8684,146.614 "/>
  <polygon id="path195" fill="none" stroke="#ED1A24" stroke-width="1.1537" points="28.1685,157.585 58.8623,146.614 28.2532,135.644 16.7222,146.55 "/>
  <polygon id="path199" fill="#F3A29A" points="16.7222,146.55 28.2532,146.614 28.1685,157.585 "/>
  <polygon id="path201" fill="#ED241A" points="58.6931,146.614 28.1685,157.585 28.1685,146.614 "/>
  <polygon id="path203" fill="#ED241A" points="16.7222,146.55 28.0837,135.644 28.1685,146.614 "/>
  <polygon id="path205" fill="white" points="28.1685,152.327 28.1685,146.614 24.8684,146.614 "/>
  <polygon id="path207" fill="white" points="28.0837,142.135 28.1685,146.614 39.1459,146.614 "/>
  <path id="path213" fill="#0057F0" d="M176.769 138.305c3.23093,0 5.95758,1.75266 5.95758,3.83018 0,2.07695 -2.72665,3.82989 -5.95758,3.82989 -3.23121,0 -5.85666,-1.75295 -5.85666,-3.82989 0,-2.07751 2.62545,-3.83018 5.85666,-3.83018z"/>
  <path id="path215" fill="white" d="M174.245 139.993c1.41392,-0.648851 3.13058,-0.583937 3.93818,0.129827 0.706678,0.649418 0.201827,1.75295 -1.21153,2.40208 -1.51484,0.583937 -3.2315,0.519024 -3.93818,-0.129827 -0.807874,-0.714331 -0.20211,-1.81786 1.21153,-2.40208z"/>
  <path id="path219" fill="#0057F0" d="M176.769 147.263c3.23093,0 5.95758,1.75266 5.95758,3.83018 0,2.07695 -2.72665,3.76498 -5.95758,3.76498 -3.23121,0 -5.85666,-1.68803 -5.85666,-3.76498 0,-2.07751 2.62545,-3.83018 5.85666,-3.83018z"/>
  <path id="path221" fill="white" d="M174.245 148.951c1.41392,-0.648851 3.13058,-0.584221 3.93818,0.129827 0.706678,0.649418 0.201827,1.75295 -1.21153,2.4018 -1.51484,0.584504 -3.2315,0.519307 -3.93818,-0.129543 -0.807874,-0.714331 -0.20211,-1.81758 1.21153,-2.40208z"/>
  <path id="path227" fill="#0057F0" d="M319.549 138.305c3.23121,0 5.95786,1.75266 5.95786,3.83018 0,2.07695 -2.72665,3.82989 -5.95786,3.82989 -3.23093,0 -5.85638,-1.75295 -5.85638,-3.82989 0,-2.07751 2.62545,-3.83018 5.85638,-3.83018z"/>
  <path id="path229" fill="white" d="M317.025 139.993c1.41364,-0.648851 3.1303,-0.583937 3.93818,0.129827 0.706678,0.649418 0.201827,1.75295 -1.21181,2.40208 -1.51484,0.583937 -3.2315,0.519024 -3.93818,-0.129827 -0.807591,-0.714331 -0.201543,-1.81786 1.21181,-2.40208z"/>
  <path id="path233" fill="#0057F0" d="M319.549 147.263c3.23121,0 5.95786,1.75266 5.95786,3.83018 0,2.07695 -2.72665,3.76498 -5.95786,3.76498 -3.23093,0 -5.85638,-1.68803 -5.85638,-3.76498 0,-2.07751 2.62545,-3.83018 5.85638,-3.83018z"/>
  <path id="path235" fill="white" d="M317.025 148.951c1.41364,-0.648851 3.1303,-0.584221 3.93818,0.129827 0.706678,0.649418 0.201827,1.75295 -1.21181,2.4018 -1.51484,0.584504 -3.2315,0.519307 -3.93818,-0.129543 -0.807591,-0.714331 -0.201543,-1.81758 1.21181,-2.40208z"/>
  <path id="path241" fill="#0057F0" d="M90.3337 138.305c3.2315,0 5.85666,1.75266 5.85666,3.83018 0,2.07695 -2.62517,3.82989 -5.85666,3.82989 -3.33213,0 -5.95729,-1.75295 -5.95729,-3.82989 0,-2.07751 2.62517,-3.83018 5.95729,-3.83018z"/>
  <path id="path243" fill="white" d="M87.7085 139.993c1.41336,-0.648851 3.23121,-0.583937 3.93789,0.129827 0.807874,0.649418 0.20211,1.75295 -1.21181,2.40208 -1.41336,0.583937 -3.23093,0.519024 -3.93761,-0.129827 -0.707244,-0.714331 -0.20211,-1.81786 1.21153,-2.40208z"/>
  <path id="path247" fill="#0057F0" d="M90.3337 147.263c3.2315,0 5.85666,1.75266 5.85666,3.83018 0,2.07695 -2.62517,3.76498 -5.85666,3.76498 -3.33213,0 -5.95729,-1.68803 -5.95729,-3.76498 0,-2.07751 2.62517,-3.83018 5.95729,-3.83018z"/>
  <path id="path249" fill="white" d="M87.7085 148.951c1.41336,-0.648851 3.23121,-0.584221 3.93789,0.129827 0.807874,0.649418 0.20211,1.75295 -1.21181,2.4018 -1.41336,0.584504 -3.23093,0.519307 -3.93761,-0.129543 -0.707244,-0.714331 -0.20211,-1.81758 1.21153,-2.40208z"/>
  <path id="path255" fill="#0057F0" d="M405.682 138.305c3.2315,0 5.85638,1.75266 5.85638,3.83018 0,2.07695 -2.62488,3.82989 -5.85638,3.82989 -3.33241,0 -5.95729,-1.75295 -5.95729,-3.82989 0,-2.07751 2.62488,-3.83018 5.95729,-3.83018z"/>
  <path id="path257" fill="white" d="M401.481 139.993c1.41336,-0.648851 3.23121,-0.583937 3.93789,0.129827 0.807874,0.649418 0.20211,1.75295 -1.21181,2.40208 -1.41336,0.583937 -3.23093,0.519024 -3.93761,-0.129827 -0.707244,-0.714331 -0.20211,-1.81786 1.21153,-2.40208z"/>
  <path id="path261" fill="#0057F0" d="M405.682 147.263c3.2315,0 5.85638,1.75266 5.85638,3.83018 0,2.07695 -2.62488,3.76498 -5.85638,3.76498 -3.33241,0 -5.95729,-1.68803 -5.95729,-3.76498 0,-2.07751 2.62488,-3.83018 5.95729,-3.83018z"/>
  <path id="path263" fill="white" d="M403.057 148.951c1.41336,-0.648851 3.23093,-0.584221 3.93789,0.129827 0.807591,0.649418 0.20211,1.75295 -1.21181,2.4018 -1.41336,0.584504 -3.23121,0.519307 -3.93789,-0.129543 -0.706961,-0.714331 -0.20211,-1.81758 1.21181,-2.40208z"/>
  <circle fill="#CCCCCC" stroke="black" stroke-width="1.41732" cx="30.6061" cy="31.6063" r="29.9384"/>
  <circle fill="#CCCCCC" stroke="black" stroke-width="1.41732" cx="249.782" cy="38.1209" r="29.9384"/>
  <circle fill="#CCCCCC" stroke="black" stroke-width="1.41732" cx="469.605" cy="31.6063" r="29.9384"/>
  <circle fill="#CCCCCC" stroke="black" stroke-width="1.41732" cx="42.4292" cy="89.8964" r="29.9384"/>
  <circle fill="#CCCCCC" stroke="black" stroke-width="1.41732" cx="101.715" cy="89.8964" r="29.9384"/>
  <circle fill="#CCCCCC" stroke="black" stroke-width="1.41732" cx="161.466" cy="89.8964" r="29.9384"/>
  <circle fill="#CCCCCC" stroke="black" stroke-width="1.41732" cx="220.752" cy="89.8964" r="29.9384"/>
  <circle fill="#CCCCCC" stroke="black" stroke-width="1.41732" cx="280.503" cy="89.8964" r="29.9384"/>
  <circle fill="#CCCCCC" stroke="black" stroke-width="1.41732" cx="339.452" cy="89.8964" r="29.9384"/>
  <circle fill="#CCCCCC" stroke="black" stroke-width="1.41732" cx="398.892" cy="89.8964" r="29.9384"/>
  <circle fill="#CCCCCC" stroke="black" stroke-width="1.41732" cx="457.531" cy="89.8964" r="29.9384"/>
  <ellipse fill="white" transform="matrix(-0.229766 0.82224 -1.30774 -0.0792844 350.216 143.947)" rx="5.3195" ry="4.11052"/>
  <path fill="black" d="M367.321 150.966c2.8508,-2.85109 6.65207,-8.55298 0,-12.8293 12.5124,2.85109 12.5121,9.50315 0,12.8293z"/>
  <path id="path159_2" fill="#0057F0" d="M135.24 135.761c16.2397,0 20.0103,4.48668 20.0103,9.97059 0,5.48391 -4.7211,9.97059 -20.0103,9.97059 -15.2895,0 -19.9361,-4.48668 -19.9361,-9.97059 0,-5.48391 3.6961,-9.97059 19.9361,-9.97059z"/>
  <path id="path161_3" fill="white" d="M150.098 141.356c2.46416,1.36318 3.95745,3.05121 3.95745,4.86879 0,4.41411 -8.58671,8.04955 -19.1894,8.04955 -10.5279,0 -19.1143,-3.63543 -19.1143,-8.04955 0,-0.129827 0,-0.259654 0,-0.389481 0.522425,4.21937 8.58643,7.53024 18.517,7.53024 10.1546,0 18.5173,-3.57024 18.5173,-7.91972 0,-1.49301 -0.970583,-2.9211 -2.6881,-4.08983z"/>
  <ellipse fill="white" transform="matrix(-0.229766 0.82224 -1.30774 -0.0792844 123.835 143.947)" rx="5.3195" ry="4.11052"/>
  <path fill="black" d="M140.941 150.966c2.8508,-2.85109 6.65207,-8.55298 0,-12.8293 12.5124,2.85109 12.5121,9.50315 0,12.8293z"/>
  <path fill="#BF9F4F" d="M275.163 690.004c0.550772,-18.023 14.9315,-19.1928 24.8817,-13.2168 16.6711,10.0125 31.7404,44.4566 44.807,51.6657 8.74404,6.87515 15.4491,-2.93159 11.8953,-6.63534 -2.45622,-2.55969 -6.97663,-2.22265 -5.99755,-0.23641 1.36063,2.76038 0.127276,6.66964 -3.0943,1.66507 -18.3181,-21.8668 -19.9052,-40.3759 -35.767,-54.9457 -13.2591,-12.1802 -36.1894,-17.3041 -47.9393,8.88719l-25.9226 0c-11.7502,-26.1913 -34.6802,-21.0674 -47.9396,-8.88719 -15.8616,14.5698 -17.4487,33.0789 -35.7667,54.9457 -3.22186,5.00457 -4.45493,1.09531 -3.0943,-1.66507 0.979087,-1.98624 -3.54132,-2.32328 -5.99755,0.23641 -3.5538,3.70375 3.15099,13.5105 11.8953,6.63534 13.0666,-7.20907 28.1359,-41.6532 44.807,-51.6657 9.95018,-5.976 24.3309,-4.80614 24.8814,13.2168l48.3511 0z"/>
  <path fill="#CCCCCC" stroke="black" stroke-width="1.41732" d="M252.045 792.016c-4.95865,0 -63.1021,-47.0047 -96.0523,-71.4391 -1.81219,-4.14709 0.593575,-4.54224 3.60199,-4.40249 70.4384,53.0955 88.848,69.238 92.4503,69.238 3.60255,0 21.9597,-16.1425 92.3982,-69.238 3.00841,-0.139748 5.41418,0.255402 3.60199,4.40249 -32.9502,24.4344 -91.0412,71.4391 -96.0001,71.4391z"/>
  <path fill="#CCCCCC" stroke="black" stroke-width="1.41732" d="M152.391 724.179l5.80309 4.40221c1.40088,1.60101 5.80337,-2.00098 3.40186,-4.00195l-6.00322 -4.60262c-1.86775,-1.80113 -5.73648,3.00161 -3.20173,4.20236z"/>
  <g id="_58709848">
   <polygon id="_57134896" fill="#BF9F4F" stroke="black" stroke-width="3.96851" points="200.378,389.623 206.786,276.679 293.697,276.679 300.105,390.023 "/>
   <path id="_58067824" fill="black" d="M243.633 334.352l12.4158 0c-0.733323,-8.54504 1.28098,-23.0766 -6.408,-22.8288 -7.68898,0.247465 -5.55477,15.3366 -6.00775,22.8288z"/>
   <polygon id="_58132528" fill="#BF9F4F" stroke="black" stroke-width="3.96851" points="293.448,277.08 207.187,277.08 198.376,253.45 250.994,231.422 302.259,253.45 "/>
   <circle id="_57545336" fill="black" cx="217.6" cy="265.865" r="4.40559"/>
   <circle id="_57874224" fill="black" cx="233.113" cy="265.865" r="4.40559"/>
   <circle id="_58036888" fill="black" cx="250.3" cy="265.865" r="4.40559"/>
   <circle id="_57855952" fill="black" cx="267.488" cy="265.865" r="4.40559"/>
   <circle id="_57827296" fill="black" cx="283" cy="265.865" r="4.40559"/>
   <line id="_58385408" fill="none" stroke="black" stroke-width="3.96851" x1="199.577" y1="256.654" x2="300.906" y2= "256.654" />
   <path id="_56608760" fill="black" d="M247.238 231.422l0.400252 -8.01015c-5.47342,0.400536 -6.14098,-11.6147 0.400536,-12.0152l0.400536 -13.6174 2.80375 0 0.486425 13.6287c6.81818,-0.400536 6.16026,11.6144 0.429166,12.0144l0.285732 7.99966 -5.2064 0z"/>
  </g>
  <path fill="#CCCCCC" stroke="black" stroke-width="1.41732" d="M351.512 724.579l-5.80309 4.40221c-1.40088,1.60101 -5.80337,-2.00098 -3.40186,-4.00224l6.00322 -4.60233c1.86775,-1.80113 5.73648,3.00161 3.20173,4.20236z"/>
  <polygon fill="#CCCCCC" points="240.439,777.208 239.839,739.988 252.045,730.182 264.653,740.388 264.653,777.408 252.045,769.003 "/>
  <path fill="#CCCCCC" d="M250.845 642.334c-3.86873,10.2056 -11.5396,26.4144 -11.6065,30.6167 2.13477,-1.93465 5.26989,-3.06851 7.80435,-4.40249l-0.200126 5.00287 8.40473 0 0 -4.80274c2.73458,1.33398 5.26933,1.86775 8.20432,4.00224 0.200126,-2.73487 -8.40445,-20.2779 -12.6068,-30.4166z"/>
  <path fill="#BF9F4F" stroke="black" stroke-width="1.41732" d="M247.643 674.552c2.8681,-0.669544 5.73591,-0.401669 8.60457,0l0 108.459c-2.86838,2.40151 -5.73676,2.40151 -8.60457,0l0 -108.459z"/>
  <path id="path1937_4" fill="#CCCCCC" d="M494.123 646.751c-11.7298,0 -20.753,-11.0341 -35.1893,-11.0341 -14.436,0 -33.7762,11.0339 -51.4299,11.0339 -17.6533,0 -36.9757,-11.0341 -54.493,-11.0341 -17.5176,0 -33.7408,12.6349 -50.6115,12.6349 -16.8704,0 -33.9372,-12.6354 -50.6112,-12.6354 -16.674,0 -32.4009,12.6352 -49.4343,12.6352 -17.0331,0 -35.1777,-12.6357 -52.7661,-12.6357 -17.5887,0 -35.6457,12.6354 -52.767,12.6354 -17.1216,0 -34.289,-12.6357 -49.9635,-12.6357 -15.6747,0 -28.6013,11.0339 -43.2961,11.0339l0 -55.1676c14.6948,0 27.6214,-11.0339 43.2961,-11.0339 15.6745,0 32.8419,12.6357 49.9635,12.6357 17.1213,0 35.1783,-12.6354 52.767,-12.6354 17.5884,0 35.733,12.6357 52.7661,12.6357 17.0334,0 32.7603,-12.6352 49.4343,-12.6352 16.674,0 33.7408,12.6354 50.6112,12.6354 16.8707,0 33.0939,-12.6349 50.6115,-12.6349 17.5173,0 36.8396,11.0341 54.493,11.0341 17.6536,0 36.9938,-11.0339 51.4299,-11.0339 14.4363,0 23.4595,11.0341 35.1893,11.0341l0 55.1676z"/>
  <path fill="none" d="M138.637 476.849l10.8335 -0.349229c-0.640063,-7.45626 1.46721,-19.4372 -5.24211,-19.2209 -6.70904,0.216284 -4.84668,13.0326 -5.59134,19.5701z"/>
  <g id="_58109216">
   <polygon id="_57755464" fill="#BF9F4F" stroke="black" stroke-width="3.96851" points="48.3168,464.351 52.3219,311.357 139.232,311.357 146.842,463.95 "/>
   <path id="_56430576" fill="black" d="M89.5692 365.425l12.4158 0c-0.733607,-8.54504 1.28069,-23.0766 -6.40829,-22.8288 -7.68898,0.247465 -5.55477,15.3366 -6.00747,22.8288z"/>
   <polygon id="_58068840" fill="#BF9F4F" stroke="black" stroke-width="3.96851" points="138.983,311.757 52.7222,311.757 43.9112,288.127 96.5291,266.099 147.794,288.127 "/>
   <circle id="_107610784" fill="black" cx="63.1355" cy="300.543" r="4.40559"/>
   <circle id="_57803216" fill="black" cx="78.6479" cy="300.543" r="4.40559"/>
   <circle id="_58035832" fill="black" cx="95.8356" cy="300.543" r="4.40559"/>
   <circle id="_57714224" fill="black" cx="113.023" cy="300.543" r="4.40559"/>
   <circle id="_56738632" fill="black" cx="128.536" cy="300.543" r="4.40559"/>
   <line id="_57891744" fill="none" stroke="black" stroke-width="3.96851" x1="45.1126" y1="291.331" x2="146.441" y2= "291.331" />
   <path id="_57834336" fill="black" d="M92.7732 266.099l0.400536 -8.01015c-5.4737,0.400536 -6.14126,-11.6147 0.400536,-12.0152l0.400252 -13.6174 2.80375 0 0.486425 13.6287c6.81818,-0.400536 6.16026,11.6144 0.429166,12.0144l0.285732 7.99966 -5.2064 0z"/>
   <polygon id="_57718848" fill="#BF9F4F" stroke="black" stroke-width="3.96851" points="48.5859,464.117 42.5781,473.729 40.1752,525.395 169.139,525.395 169.539,464.117 "/>
  </g>
  <path fill="none" d="M195.426 476.849l10.8335 -0.349229c-0.640063,-7.45626 1.46721,-19.4372 -5.24211,-19.2209 -6.70904,0.216284 -4.84668,13.0326 -5.59134,19.5701z"/>
  <g id="_58111576">
   <polygon id="_58101968" fill="#BF9F4F" stroke="black" stroke-width="3.96851" points="112.886,420.862 234.742,420.862 234.742,480.538 109.282,480.538 "/>
   <polygon id="_56614664" fill="#BF9F4F" stroke="black" stroke-width="3.96851" points="195.033,389.831 174.934,389.831 174.934,397.84 158.881,397.84 158.881,389.831 137.531,389.831 137.531,397.84 124.355,397.84 124.355,389.831 102.254,389.831 102.254,421.263 195.31,421.263 "/>
   <polygon id="_58117560" fill="#BF9F4F" stroke="black" stroke-width="3.96851" points="101.892,539.31 234.769,539.31 234.742,480.138 109.282,480.138 105.096,488.417 "/>
   <path id="_58099856" fill="black" d="M139.901 468.122l12.4158 -0.400536c-0.733323,-8.54504 1.68151,-22.2758 -6.00747,-22.028 -7.68898,0.248032 -5.55477,14.936 -6.40829,22.4286z"/>
  </g>
  <g id="_58116536">
   <polygon id="_58048096" fill="#BF9F4F" stroke="black" stroke-width="3.96851" points="451.947,464.351 447.942,311.357 361.032,311.357 353.422,463.95 "/>
   <path id="_58096592" fill="black" d="M410.695 365.425l-12.4158 0c0.733323,-8.54504 -1.28098,-23.0766 6.408,-22.8288 7.68898,0.247465 5.55477,15.3366 6.00775,22.8288z"/>
   <polygon id="_57886872" fill="#BF9F4F" stroke="black" stroke-width="3.96851" points="361.281,311.757 447.542,311.757 456.353,288.127 403.735,266.099 352.47,288.127 "/>
   <circle id="_57903024" fill="black" cx="437.128" cy="300.543" r="4.40559"/>
   <circle id="_58080744" fill="black" cx="421.616" cy="300.543" r="4.40559"/>
   <circle id="_58064776" fill="black" cx="404.428" cy="300.543" r="4.40559"/>
   <circle id="_58129456" fill="black" cx="387.241" cy="300.543" r="4.40559"/>
   <circle id="_58097312" fill="black" cx="371.728" cy="300.543" r="4.40559"/>
   <line id="_57580816" fill="none" stroke="black" stroke-width="3.96851" x1="455.151" y1="291.331" x2="353.823" y2= "291.331" />
   <path id="_57887816" fill="black" d="M407.491 266.099l-0.400252 -8.01015c5.47342,0.400536 6.14098,-11.6147 -0.400536,-12.0152l-0.400536 -13.6174 -2.80375 0 -0.486425 13.6287c-6.81818,-0.400536 -6.16026,11.6144 -0.429166,12.0144l-0.285732 7.99966 5.2064 0z"/>
   <polygon id="_57890816" fill="#BF9F4F" stroke="black" stroke-width="3.96851" points="451.678,464.117 457.686,473.729 460.089,525.395 331.125,525.395 330.725,464.117 "/>
  </g>
  <g id="_57212280">
   <polygon id="_58034640" fill="#BF9F4F" stroke="black" stroke-width="3.96851" points="385.6,420.862 263.744,420.862 263.744,480.538 389.204,480.538 "/>
   <polygon id="_58051464" fill="#BF9F4F" stroke="black" stroke-width="3.96851" points="303.453,389.831 323.552,389.831 323.552,397.84 339.605,397.84 339.605,389.831 360.955,389.831 360.955,397.84 374.13,397.84 374.13,389.831 396.232,389.831 396.232,421.263 303.175,421.263 "/>
   <polygon id="_58496600" fill="#BF9F4F" stroke="black" stroke-width="3.96851" points="396.594,539.31 263.717,539.31 263.744,480.138 389.204,480.138 393.39,488.417 "/>
   <path id="_57814048" fill="black" d="M358.584 468.122l-12.4158 -0.400536c0.733607,-8.54504 -1.68151,-22.2758 6.00775,-22.028 7.68898,0.248032 5.55449,14.936 6.408,22.4286z"/>
  </g>
  <g id="_58132856">
   <polygon id="_56620248" fill="#BF9F4F" stroke="black" stroke-width="3.96851" points="275.273,389.369 261.256,389.369 261.256,381.612 240.429,381.612 240.429,389.369 226.812,389.369 226.812,381.612 205.185,381.612 205.185,389.369 192.769,389.369 192.769,381.612 171.942,381.612 171.942,412.051 328.942,412.051 328.942,381.612 308.115,381.612 308.115,389.369 295.699,389.369 295.699,381.612 275.273,381.612 "/>
   <rect id="_57797016" fill="#BF9F4F" stroke="black" stroke-width="3.96851" x="177.95" y="412.051" width="143.782" height="80.5021"/>
   <path id="_58132960" fill="black" d="M211.593 481.339l12.4158 -0.400536c-0.733607,-8.54504 1.68151,-22.2761 -6.00747,-22.028 -7.68898,0.248032 -5.55477,14.936 -6.40829,22.4286z"/>
   <path id="_57907952" fill="black" d="M276.675 481.339l12.4158 -0.400536c-0.733323,-8.54504 1.68151,-22.2761 -6.00747,-22.028 -7.68898,0.248032 -5.55477,14.936 -6.40829,22.4286z"/>
   <polygon id="_58085296" fill="#BF9F4F" stroke="black" stroke-width="3.96851" points="169.94,550.627 329.551,550.627 329.551,500.964 321.732,492.553 177.95,492.553 169.94,500.964 "/>
  </g>
  <circle fill="white" cx="19.7851" cy="20.7853" r="8.0821"/>
  <circle fill="white" cx="239.2" cy="28.1409" r="8.0821"/>
  <circle fill="white" cx="459.827" cy="20.7853" r="8.0821"/>
  <circle fill="white" cx="32.3952" cy="77.5306" r="8.0821"/>
  <circle fill="white" cx="91.3017" cy="77.5306" r="8.0821"/>
  <circle fill="white" cx="150.147" cy="77.5306" r="8.0821"/>
  <circle fill="white" cx="210.105" cy="77.5306" r="8.0821"/>
  <circle fill="white" cx="268.95" cy="77.5306" r="8.0821"/>
  <circle fill="white" cx="328.571" cy="77.5306" r="8.0821"/>
  <circle fill="white" cx="389.207" cy="77.5306" r="8.0821"/>
  <circle fill="white" cx="446.94" cy="77.5306" r="8.0821"/>
  <path id="path1937_5" fill="none" stroke="black" stroke-width="1.98425" d="M3.61814 175.286l492.073 -0.275528 -1.25802 542.878c0.517607,42.8295 -24.2195,83.6592 -67.5978,83.5952l-130.946 0.180284c-26.3228,0.551339 -34.0784,5.99528 -42.1844,15.9993 -8.65588,-10.1438 -12.2145,-15.8063 -41.5225,-15.7479l-146.382 0.292252c-37.2518,-3.39477 -61.6573,-35.3325 -61.6952,-76.2356l-0.486992 -550.686z"/>
 </g>
</svg>
