<?xml version="1.0" encoding="UTF-8"?>
<!DOCTYPE svg PUBLIC "-//W3C//DTD SVG 1.1//EN" "http://www.w3.org/Graphics/SVG/1.1/DTD/svg11.dtd">
<!-- Creator: CorelDRAW -->
<svg xmlns="http://www.w3.org/2000/svg" xml:space="preserve" width="500px" height="567px" shape-rendering="geometricPrecision" text-rendering="geometricPrecision" image-rendering="optimizeQuality" fill-rule="evenodd" clip-rule="evenodd"
viewBox="0 0 500 567"
 xmlns:xlink="http://www.w3.org/1999/xlink"
 xmlns:svg="http://www.w3.org/2000/svg"
 version="1.0">
 <g id="Layer_x0020_1">
  <metadata id="CorelCorpID_0Corel-Layer"/>
  <path id="path1937" fill="#BF9F4F" stroke="black" stroke-width="1.98425" d="M0.786615 0.56778l498.224 -0.0668977 0.0660473 364.67c-23.1231,107.348 -104.536,197.093 -244.211,200.832 -127.632,-3.74655 -221.056,-86.3272 -254.028,-202.162l-0.0504567 -363.272z"/>
  <path id="path1937_0" fill="black" stroke="black" stroke-width="1.98425" d="M0.786615 0.56778l336.15 0.0615118c0.0221102,8.61846 -5.5766,7.62067 -5.62451,23.0684 -0.0476221,15.4477 22.142,27.7784 21.5048,43.6884 -0.637229,15.9103 -22.0079,30.5246 -22.0178,46.728 -0.0102047,16.2034 22.591,33.8655 21.9532,50.4956 -0.638079,16.6303 -20.1229,29.2949 -20.1331,47.4066 -0.0102047,18.1114 20.0767,32.2098 20.0659,53.7265 -0.0110551,21.5164 -20.1257,33.9214 -20.1368,52.7653 -0.0110551,18.8436 20.0775,33.3244 20.0665,52.7653 -0.0107717,19.4406 -21.4214,34.4274 -21.3922,53.2052 0.0294803,18.7778 21.3313,34.4248 21.3228,51.9492 -0.00878741,18.0275 -18.1389,32.5205 -18.5281,50.4621 -0.214866,9.92495 4.31235,16.0141 4.33531,25.0282 -25.0931,8.33245 -52.9333,13.2664 -83.4869,14.0842 -127.632,-3.74655 -221.056,-86.3272 -254.028,-202.162l-0.0504567 -363.272z"/>
  <path fill="#BF9F4F" stroke="black" stroke-width="0.368504" d="M213.191 58.4507c1.00687,-10.4856 -9.92126,-10.9208 -8.28596,-17.6375 3.80892,-9.40593 17.6684,-17.5555 30.2715,-18.7957 11.3956,3.1337 11.4846,21.9711 7.80463,38.2961 -11.5824,24.8122 -38.8043,40.0521 -66.0175,56.1206 -32.8431,19.3932 -66.0155,34.3956 -64.9256,64.5086 0.115654,21.21 14.0508,26.7163 22.9609,37.2478 -6.53613,30.6783 -6.66539,56.8344 0.899717,92.5166 -16.0968,7.11752 -22.4172,11.6785 -21.9073,32.6597 -0.0552756,30.2304 29.7003,45.8827 59.8448,63.2438 34.164,19.6761 69.9928,42.9886 72.0267,64.5126 -0.421512,13.6191 0.413575,30.3789 -6.91739,34.5756 -13.1913,-2.93159 -30.1516,-7.74737 -35.805,-16.3321 0.180567,-6.13474 9.15534,-9.1287 6.1954,-18.4042 0.0436536,-25.9084 -58.4796,-37.9287 -98.4382,-65.4925 -22.4155,-15.4621 -36.8374,-41.0752 -37.0383,-65.8851 0.12274,-22.5337 13.4371,-31.248 24.8669,-46.8717l-0.00510236 -63.3745c-11.7507,-10.7252 -26.6423,-18.3093 -27.0862,-41.5973 0.800504,-44.7338 34.706,-70.1119 72.4471,-87.4177 24.1929,-11.0931 58.8697,-20.4877 69.109,-41.8731z"/>
  <path fill="#BF9F4F" stroke="black" stroke-width="2.83465" d="M207.537 466.125c7.53109,-5.23843 13.8061,-11.7332 20.7094,-25.1377 26.3891,-50.8768 55.2909,-99.8694 84.8211,-154.515l-1.88447 -16.3321c-32.8113,53.4331 -61.8537,108.122 -95.2929,166.58 -5.92526,14.8269 -16.8758,15.8343 -23.4289,23.7515 -1.88447,10.6787 8.79421,8.79421 15.0758,5.65342z"/>
  <polygon fill="#BF9F4F" stroke="black" stroke-width="2.83465" points="86.3028,233.079 71.2304,254.906 248.414,254.928 275.509,237.943 331.913,238.104 309.299,263.858 331.913,290.241 275.309,289.908 249.022,271.037 71.2253,270.602 86.3028,293.382 12.8084,263.858 "/>
  <path fill="#BF9F4F" stroke="black" stroke-width="2.83465" d="M209.584 56.8721c7.53109,5.23843 9.24719,13.2528 16.1504,26.6573 26.3891,50.8768 67.2259,118.714 96.7561,173.36 1.36091,3.55947 2.40775,10.2597 -3.76895,17.5884 -0.768756,-1.25206 -5.94114,-6.2881 -6.71641,-7.56284 -0.774993,-1.27474 1.26737,-3.19493 0.483591,-4.49348 -31.915,-52.8636 -67.239,-118.907 -99.1106,-174.625 -10.849,-19.0114 -16.4506,-18.661 -16.4081,-23.7515 -0.314079,-10.6787 7.90271,-9.68571 12.6139,-7.17307z"/>
 </g>
</svg>
