<?xml version="1.0" encoding="UTF-8" standalone="no"?>
<!-- Created with Inkscape (http://www.inkscape.org/) -->
<svg
   xmlns:dc="http://purl.org/dc/elements/1.1/"
   xmlns:cc="http://creativecommons.org/ns#"
   xmlns:rdf="http://www.w3.org/1999/02/22-rdf-syntax-ns#"
   xmlns:svg="http://www.w3.org/2000/svg"
   xmlns="http://www.w3.org/2000/svg"
   xmlns:sodipodi="http://sodipodi.sourceforge.net/DTD/sodipodi-0.dtd"
   xmlns:inkscape="http://www.inkscape.org/namespaces/inkscape"
   version="1.0"
   width="500"
   height="530"
   id="svg2"
   sodipodi:version="0.32"
   inkscape:version="0.46"
   sodipodi:docname="Sievi.vaakuna.svg"
   inkscape:output_extension="org.inkscape.output.svg.inkscape">
  <metadata
     id="metadata10">
    <rdf:RDF>
      <cc:Work
         rdf:about="">
        <dc:format>image/svg+xml</dc:format>
        <dc:type
           rdf:resource="http://purl.org/dc/dcmitype/StillImage" />
      </cc:Work>
    </rdf:RDF>
  </metadata>
  <sodipodi:namedview
     inkscape:window-height="669"
     inkscape:window-width="640"
     inkscape:pageshadow="2"
     inkscape:pageopacity="0.0"
     guidetolerance="10.0"
     gridtolerance="10.0"
     objecttolerance="10.0"
     borderopacity="1.0"
     bordercolor="#666666"
     pagecolor="#ffffff"
     id="base"
     showgrid="false"
     inkscape:zoom="0.43584906"
     inkscape:cx="250"
     inkscape:cy="265"
     inkscape:window-x="138"
     inkscape:window-y="63"
     inkscape:current-layer="svg2" />
  <defs
     id="defs7">
    <inkscape:perspective
       sodipodi:type="inkscape:persp3d"
       inkscape:vp_x="0 : 265 : 1"
       inkscape:vp_y="0 : 1000 : 0"
       inkscape:vp_z="500 : 265 : 1"
       inkscape:persp3d-origin="250 : 176.66667 : 1"
       id="perspective12" />
  </defs>
  <g
     id="layer2">
    <path
       d="M 0,0 L 500,0 L 475,330 C 467.42424,430 375,530 250,530 C 125,530 32.575758,430 25,330 L 0,0 z "
       style="fill:#008000;fill-opacity:1;fill-rule:evenodd;stroke:none;stroke-width:1px;stroke-linecap:butt;stroke-linejoin:miter;stroke-opacity:1"
       id="path2962" />
    <path
       d="M 2,2 L 5.9067889,77.336167 C 7.2869819,77.034609 10.529781,77 12,77 C 23.04,77 32,85.96 32,97 C 31.999999,100.72524 30.96354,104.20024 29.1875,107.1875 C 30.110939,107.05669 31.04063,107 32,107 C 43.039999,107 52,115.96 52,127 C 51.999999,138.04 43.04,147 32,147 C 26.123249,147 20.84773,144.44628 17.1875,140.40625 C 26.510612,181.07008 56.232068,148.78637 66.8125,189.59375 C 63.152273,185.55372 57.87675,183 52,183 C 40.959999,183 32,191.96 32,203 C 31.999999,214.04 40.96,223 52,223 C 52.959369,223 53.88906,222.94331 54.8125,222.8125 C 53.036459,225.79976 52,229.27476 52,233 C 51.999999,244.04 60.96,253 72,253 C 83.040003,253 92,244.04 92,233 C 92.000003,229.27476 90.96354,225.79976 89.1875,222.8125 C 90.110943,222.94331 91.04063,223 92,223 C 103.04,223 112,214.04 112,203 C 112,191.96 103.04,183 92,183 C 86.123253,183 80.84773,185.55372 77.1875,189.59375 C 86.57802,149.1451 116.07079,181.6987 126.8125,140.40625 C 123.15227,144.44628 117.87675,147 112,147 C 100.96,147 92,138.04 92,127 C 91.999997,115.96 100.96,107 112,107 C 112.95937,107 113.88906,107.05669 114.8125,107.1875 C 113.03646,104.20024 112,100.72524 112,97 C 112,85.96 120.96,77 132,77 C 143.04,77 152,85.96 152,97 C 152,100.72524 150.96354,104.20024 149.1875,107.1875 C 150.11094,107.05669 151.04063,107 152,107 C 163.04,107 172,115.96 172,127 C 172,138.04 163.04,147 152,147 C 146.12325,147 140.84773,144.44628 137.1875,140.40625 C 146.43222,181.23884 176.38764,149.06324 186.8125,189.59375 C 183.15227,185.55372 177.87675,183 172,183 C 160.96,183 152,191.96 152,203 C 152,214.04 160.96,223 172,223 C 172.95937,223 173.88906,222.94331 174.8125,222.8125 C 173.03646,225.79976 172,229.27476 172,233 C 172,244.04 180.96,253 192,253 C 203.04,253 212,244.04 212,233 C 212,229.27476 210.96354,225.79976 209.1875,222.8125 C 210.11094,222.94331 211.04063,223 212,223 C 223.04,223 232,214.04 232,203 C 232,191.96 223.04,183 212,183 C 206.12325,183 200.84773,185.55372 197.1875,189.59375 C 206.55851,149.23153 235.98046,182.04596 246.8125,140.40625 C 243.15227,144.44628 237.87675,147 232,147 C 220.96,147 212,138.04 212,127 C 212,115.96 220.96,107 232,107 C 232.95937,107 233.88906,107.05669 234.8125,107.1875 C 233.03646,104.20024 232,100.72524 232,97 C 232,85.96 240.96,77 252,77 C 263.04,77 272,85.96 272,97 C 272,100.72524 270.96354,104.20024 269.1875,107.1875 C 270.11094,107.05669 271.04063,107 272,107 C 283.04,107 292,115.96 292,127 C 292,138.04 283.04,147 272,147 C 266.12325,147 260.84773,144.44628 257.1875,140.40625 C 266.4235,181.54107 296.53907,149.16543 306.8125,189.59375 C 303.15227,185.55372 297.87675,183 292,183 C 280.96,183 272,191.96 272,203 C 272,214.04 280.96,223 292,223 C 292.95937,223 293.88906,222.94331 294.8125,222.8125 C 293.03646,225.79976 292,229.27476 292,233 C 292,244.04 300.96,253 312,253 C 323.04,253 332,244.04 332,233 C 332,229.27476 330.96354,225.79976 329.1875,222.8125 C 330.11094,222.94331 331.04063,223 332,223 C 343.04,223 352,214.04 352,203 C 352,191.96 343.04,183 332,183 C 326.12325,183 320.84773,185.55372 317.1875,189.59375 C 326.53831,149.3847 355.89128,182.38877 366.8125,140.40625 C 363.15227,144.44628 357.87675,147 352,147 C 340.96,147 332,138.04 332,127 C 332,115.96 340.96,107 352,107 C 352.95937,107 353.88906,107.05669 354.8125,107.1875 C 353.03646,104.20024 352,100.72524 352,97 C 352,85.959997 360.96,77 372,77 C 383.04,76.999997 392,85.96 392,97 C 392,100.72524 390.96354,104.20024 389.1875,107.1875 C 390.11094,107.05669 391.04063,107 392,107 C 403.04,107 412,115.96 412,127 C 412,138.04 403.04,147 392,147 C 386.12325,147 380.84773,144.44628 377.1875,140.40625 C 387.21838,182.68003 416.52513,148.49552 426.8125,189.59375 C 423.15227,185.55372 417.87675,183 412,183 C 400.96,183 392,191.96 392,203 C 392,214.04 400.96,223 412,223 C 412.95937,223 413.88906,222.94331 414.8125,222.8125 C 413.03646,225.79976 412,229.27476 412,233 C 412,244.04 420.96,253 432,253 C 443.04,253 452,244.04 452,233 C 452,229.27476 450.96354,225.79976 449.1875,222.8125 C 450.11094,222.94331 451.04063,223 452,223 C 463.04,223 472,214.04 472,203 C 472,191.96 463.04,183 452,183 C 446.12325,183 440.84773,185.55372 437.1875,189.59375 C 446.48238,149.47217 475.78671,182.79075 486.8125,140.40625 C 483.15227,144.44628 477.87675,147 472,147 C 460.96,147 452,138.04 452,127 C 452,115.96 460.96,107 472,107 C 472.95937,107 473.88906,107.05669 474.8125,107.1875 C 473.03646,104.20024 472,100.72524 472,97 C 472,85.959997 480.96,77 492,77 C 493.47022,77 492.75168,76.973155 494.15625,77.125 L 499.9375,0.375 L 2,2 z "
       style="overflow: visible; marker: none; opacity: 1; color: black; fill: rgb(89, 70, 22); fill-opacity: 1; fill-rule: evenodd; stroke: none; stroke-width: 1.25; stroke-linecap: butt; stroke-linejoin: miter; stroke-miterlimit: 4; stroke-dasharray: none; stroke-dashoffset: 0pt; stroke-opacity: 1; visibility: visible; display: inline;"
       id="path3740" />
    <path
       d="M 0,0 L 5.71875,75.46875 C 7.0989431,75.167192 8.5297812,75 10,75 C 21.04,75 30,83.96 30,95 C 29.999999,98.72524 28.96354,102.20024 27.1875,105.1875 C 28.110939,105.05669 29.04063,105 30,105 C 41.039999,105 50,113.96 50,125 C 49.999999,136.04 41.04,145 30,145 C 24.123249,145 18.84773,142.44628 15.1875,138.40625 C 24.510612,179.07008 54.232068,146.78637 64.8125,187.59375 C 61.152273,183.55372 55.87675,181 50,181 C 38.959999,181 30,189.96 30,201 C 29.999999,212.04 38.96,221 50,221 C 50.959369,221 51.88906,220.94331 52.8125,220.8125 C 51.036459,223.79976 50,227.27476 50,231 C 49.999999,242.04 58.96,251 70,251 C 81.040003,251 90,242.04 90,231 C 90.000003,227.27476 88.96354,223.79976 87.1875,220.8125 C 88.110943,220.94331 89.04063,221 90,221 C 101.04,221 110,212.04 110,201 C 110,189.96 101.04,181 90,181 C 84.123253,181 78.84773,183.55372 75.1875,187.59375 C 84.57802,147.1451 114.07079,179.6987 124.8125,138.40625 C 121.15227,142.44628 115.87675,145 110,145 C 98.959997,145 90,136.04 90,125 C 89.999997,113.96 98.959997,105 110,105 C 110.95937,105 111.88906,105.05669 112.8125,105.1875 C 111.03646,102.20024 110,98.725244 110,95 C 110,83.96 118.96,75 130,75 C 141.04,75 150,83.96 150,95 C 150,98.725244 148.96354,102.20024 147.1875,105.1875 C 148.11094,105.05669 149.04063,105 150,105 C 161.04,105 170,113.96 170,125 C 170,136.04 161.04,145 150,145 C 144.12325,145 138.84773,142.44628 135.1875,138.40625 C 144.43222,179.23884 174.38764,147.06324 184.8125,187.59375 C 181.15227,183.55372 175.87675,181 170,181 C 158.96,181 150,189.96 150,201 C 150,212.04 158.96,221 170,221 C 170.95937,221 171.88906,220.94331 172.8125,220.8125 C 171.03646,223.79976 170,227.27476 170,231 C 170,242.04 178.96,251 190,251 C 201.04,251 210,242.04 210,231 C 210,227.27476 208.96354,223.79976 207.1875,220.8125 C 208.11094,220.94331 209.04063,221 210,221 C 221.04,221 230,212.04 230,201 C 230,189.96 221.04,181 210,181 C 204.12325,181 198.84773,183.55372 195.1875,187.59375 C 204.55851,147.23153 233.98046,180.04596 244.8125,138.40625 C 241.15227,142.44628 235.87675,145 230,145 C 218.96,145 210,136.04 210,125 C 210,113.96 218.96,105 230,105 C 230.95937,105 231.88906,105.05669 232.8125,105.1875 C 231.03646,102.20024 230,98.725244 230,95 C 230,83.96 238.96,75 250,75 C 261.04,75 270,83.96 270,95 C 270,98.725244 268.96354,102.20024 267.1875,105.1875 C 268.11094,105.05669 269.04063,105 270,105 C 281.04,105 290,113.96 290,125 C 290,136.04 281.04,145 270,145 C 264.12325,145 258.84773,142.44628 255.1875,138.40625 C 264.4235,179.54107 294.53907,147.16543 304.8125,187.59375 C 301.15227,183.55372 295.87675,181 290,181 C 278.96,181 270,189.96 270,201 C 270,212.04 278.96,221 290,221 C 290.95937,221 291.88906,220.94331 292.8125,220.8125 C 291.03646,223.79976 290,227.27476 290,231 C 290,242.04 298.96,251 310,251 C 321.04,251 330,242.04 330,231 C 330,227.27476 328.96354,223.79976 327.1875,220.8125 C 328.11094,220.94331 329.04063,221 330,221 C 341.04,221 350,212.04 350,201 C 350,189.96 341.04,181 330,181 C 324.12325,181 318.84773,183.55372 315.1875,187.59375 C 324.53831,147.3847 353.89128,180.38877 364.8125,138.40625 C 361.15227,142.44628 355.87675,145 350,145 C 338.96,145 330,136.04 330,125 C 330,113.96 338.96,105 350,105 C 350.95937,105 351.88906,105.05669 352.8125,105.1875 C 351.03646,102.20024 350,98.725244 350,95 C 350,83.959997 358.96,75 370,75 C 381.04,74.999997 390,83.96 390,95 C 390,98.725241 388.96354,102.20024 387.1875,105.1875 C 388.11094,105.05669 389.04063,105 390,105 C 401.04,105 410,113.96 410,125 C 410,136.04 401.04,145 390,145 C 384.12325,145 378.84773,142.44628 375.1875,138.40625 C 385.21838,180.68003 414.52513,146.49552 424.8125,187.59375 C 421.15227,183.55372 415.87675,181 410,181 C 398.96,181 390,189.96 390,201 C 390,212.04 398.96,221 410,221 C 410.95937,221 411.88906,220.94331 412.8125,220.8125 C 411.03646,223.79976 410,227.27476 410,231 C 410,242.04 418.96,251 430,251 C 441.04,251 450,242.04 450,231 C 450,227.27476 448.96354,223.79976 447.1875,220.8125 C 448.11094,220.94331 449.04063,221 450,221 C 461.04,221 470,212.04 470,201 C 470,189.96 461.04,181 450,181 C 444.12325,181 438.84773,183.55372 435.1875,187.59375 C 444.48238,147.47217 473.78671,180.79075 484.8125,138.40625 C 481.15227,142.44628 475.87675,145 470,145 C 458.96,145 450,136.04 450,125 C 450,113.96 458.96,105 470,105 C 470.95937,105 471.88906,105.05669 472.8125,105.1875 C 471.03646,102.20024 470,98.725244 470,95 C 470,83.959997 478.96,75 490,75 C 491.47022,75 492.90106,75.167192 494.28125,75.46875 L 500,0 L 0,0 z "
       style="overflow: visible; marker: none; opacity: 1; color: black; fill: rgb(172, 137, 45); fill-opacity: 1; fill-rule: evenodd; stroke: none; stroke-width: 1.25; stroke-linecap: butt; stroke-linejoin: miter; stroke-miterlimit: 4; stroke-dasharray: none; stroke-dashoffset: 0pt; stroke-opacity: 1; visibility: visible; display: inline;"
       id="path1926" />
    <path
       d="M 34.875,315.1875 C 30.792411,315.1875 27.196229,315.52374 23.9375,316.09375 L 25,330 C 27.122966,358.02316 35.919868,386.0525 50.21875,411.875 C 71.708725,417.6454 76.763535,434.8125 106.59375,434.8125 C 142.44862,434.81249 142.42639,410 178.28125,410 C 214.13612,410 214.14514,434.8125 250,434.8125 C 285.85487,434.81249 285.86388,410 321.71875,410 C 357.57359,410 357.55137,434.8125 393.40625,434.8125 C 423.23646,434.81249 428.29127,417.6454 449.78125,411.875 C 464.08013,386.0525 472.87703,358.02316 475,330 L 476.0625,316.09375 C 472.80377,315.52374 469.20759,315.1875 465.125,315.1875 C 429.27012,315.18751 429.26111,340 393.40625,340 C 357.55138,340 357.5736,315.1875 321.71875,315.1875 C 285.86387,315.18751 285.85487,340 250,340 C 214.14514,340 214.13612,315.1875 178.28125,315.1875 C 142.42639,315.18751 142.44862,340 106.59375,340 C 70.738879,340 70.729866,315.1875 34.875,315.1875 z "
       style="fill: rgb(172, 137, 45); fill-opacity: 1; fill-rule: evenodd; stroke: none; stroke-width: 1.19295px; stroke-linecap: butt; stroke-linejoin: miter; stroke-opacity: 1;"
       id="path1960" />
  </g>
</svg>
