<?xml version="1.0" encoding="UTF-8"?>
<!DOCTYPE svg PUBLIC "-//W3C//DTD SVG 1.1//EN" "http://www.w3.org/Graphics/SVG/1.1/DTD/svg11.dtd">
<!-- Creator: CorelDRAW -->
<svg xmlns="http://www.w3.org/2000/svg" xml:space="preserve" width="500px" height="575px" shape-rendering="geometricPrecision" text-rendering="geometricPrecision" image-rendering="optimizeQuality" fill-rule="evenodd" clip-rule="evenodd"
viewBox="0 0 500 575"
 xmlns:xlink="http://www.w3.org/1999/xlink">
 <g id="Layer_x0020_1">
  <metadata id="CorelCorpID_0Corel-Layer"/>
  <path fill="#0057F0" fill-rule="nonzero" d="M499.882 324.32c0,138.054 -111.912,249.959 -249.966,249.959 -138.054,0 -249.97,-111.906 -249.97,-249.959l0 -323.791 499.936 0 0 323.791z"/>
  <path fill="#CCCCCC" fill-rule="nonzero" d="M201.563 53.6463c0,0 22.5264,-25.9073 38.6856,-36.1199 0,0 5.08706,8.89881 8.07761,11.4585 2.99027,2.56139 15.7286,11.0679 15.7286,11.0679l-14.0244 15.7286c0,0 54.4145,8.04501 80.3557,14.449 0,0 10.2498,-12.706 31.4898,-11.4585l2.10274 5.08706c0,0 -4.23638,6.40545 -13.1689,11.0662 0,0 6.98287,7.78876 39.5411,-1.27984 10.6957,-2.97808 18.1355,-11.2192 33.5492,-16.5345 1.18715,-0.409323 14.3564,-6.11065 31.1086,-10.2606 0,0 -2.17219,14.8734 -21.708,31.4575 -19.5358,16.5841 9.32315,28.4686 16.5841,41.6699 0,0 4.69474,8.07761 5.12391,17.4331 0,0 -10.2172,3.87836 -37.8629,-10.603 -27.6503,-14.4814 -27.5205,-21.0334 -55.1707,-18.9369l11.3613 10.8595c0,0 -32.2263,1.43263 -51.7621,23.9587l-26.8399 -20.4619c0,0 -32.0842,9.50996 -42.2643,10.3638 0,0 8.98215,17.6848 -7.17279,30.0325l-4.19301 -0.943371 -26.3721 -25.9413c0,0 -49.752,2.5611 -109.71,-8.50054 0,0 -32.3467,-0.855213 -47.651,-11.9231l-1.67187 -3.4149c0,0 -0.969449,-2.16765 2.49024,-1.10551 3.45203,1.06243 11.1589,2.39613 11.1589,2.39613 0,0 6.6447,0.262488 1.59647,-4.25339l-19.4 -5.58227 -6.38391 -2.38989c0,0 -1.58995,-3.19266 2.1291,-2.92564 0,0 4.25481,-8.7738 51.027,-19.4 0,0 4.78744,-5.84958 15.948,-5.31553 0,0 27.1114,-13.822 83.4588,-19.6671l3.83953 -0.0107717z"/>
  <path fill="black" fill-rule="nonzero" d="M58.1894 110.795c0,0 3.71906,5.84986 24.7153,7.70712 0,0 4.52041,0.267024 6.11065,2.92394l3.71906 -3.18501 1.06838 1.59024c0,0 13.0224,2.65691 18.3379,3.98608 5.31553,1.32945 46.7785,9.83594 97.0107,7.44605l5.58085 4.47562c0,0 -49.752,2.5611 -109.71,-8.50054 0,0 -32.3467,-0.855213 -47.651,-11.9231l-1.67187 -3.4149c0,0 -0.969449,-2.16765 2.49024,-1.10551z"/>
  <path fill="none" fill-rule="nonzero" stroke="black" stroke-width="0.216" d="M58.1894 110.795c0,0 3.71906,5.84986 24.7153,7.70712 0,0 4.52041,0.267024 6.11065,2.92394l3.71906 -3.18501 1.06838 1.59024c0,0 13.0224,2.65691 18.3379,3.98608 5.31553,1.32945 46.7785,9.83594 97.0107,7.44605l5.58085 4.47562"/>
  <path fill="black" d="M93.8614 79.6754c1.93606,-0.112535 11.8352,-0.203528 8.70889,10.1248 0,0 6.6447,5.58255 -0.265606,9.56863 0,0 6.9103,-0.267024 6.9103,-11.9602 0,0 -1.59477,-4.2531 -5.31553,-6.11037 -3.71906,-1.8635 -2.92394,-4.52041 -2.92394,-4.52041l-1.08539 0.426047c-1.06214,0.815245 -1.57323,1.43575 -1.57323,1.43575 -1.53128,0.347244 -3.01351,0.693071 -4.4555,1.03578z"/>
  <path fill="black" fill-rule="nonzero" d="M47.2899 98.0397l4.51559 1.59619 5.84986 2.39159 5.84958 1.59477 2.38989 1.32917 1.32917 0.795119 0.528095 1.8618 -0.210047 0.350362 -15.9973 -4.60347 -6.38391 -2.38989c0,0 -1.58995,-3.19266 2.1291,-2.92564z"/>
  <path fill="black" fill-rule="nonzero" d="M70.9447 108.937c0,0 7.17733,-0.53263 17.5425,6.37767l0.528095 2.39159c0,0 -5.31553,-5.58255 -16.2088,-6.912l-0.256252 -0.0368504c-0.284032,-0.500315 -0.795119,-1.09616 -1.60554,-1.82041z"/>
  <path fill="black" fill-rule="nonzero" d="M54.2016 92.9912c0,0 9.036,3.98636 12.4883,8.50196l2.13024 0c0,0 0.795119,-3.18643 -11.1648,-10.0981l-3.45373 1.59619z"/>
  <path fill="black" fill-rule="nonzero" d="M241.104 161.68c0,0 19.6067,-13.9425 4.72706,-32.5474l2.39159 -2.38989 47.3066 -7.97386 -3.98636 4.2531 -0.15137 0.177732c-8.48325,2.44687 -30.7534,8.70577 -38.9217,9.39119 0,0 8.98215,17.6848 -7.17279,30.0325l-4.19301 -0.943371z"/>
  <path fill="black" fill-rule="nonzero" d="M319.717 137.641l1.85726 5.04822c19.5358,-22.5261 51.7621,-23.9587 51.7621,-23.9587l-11.3613 -10.8595 -2.92422 -5.31553 -8.76898 0.799937 -0.534048 3.72047 12.7613 8.23947c-30.2978,11.247 -42.7921,22.3257 -42.7921,22.3257z"/>
  <path fill="black" fill-rule="nonzero" d="M359.051 102.555c0,0 20.1997,-3.45345 37.4755,6.9103 17.2758,10.3655 44.6497,22.8597 50.2322,23.1253 0,0 3.45827,-8.50649 -13.8175,-25.2482 -17.2758,-16.7428 -14.6186,-21.2633 -6.91172,-30.2978 7.70684,-9.03629 14.8856,-14.0845 23.1205,-27.9082l0.643748 -0.920126c1.692,-0.469134 3.43191,-0.924662 5.21518,-1.3663 0,0 -2.17219,14.8734 -21.708,31.4575 -19.5358,16.5841 9.32315,28.4686 16.5841,41.6699 0,0 4.69474,8.07761 5.12391,17.4331 0,0 -10.2172,3.87836 -37.8629,-10.603 -27.6503,-14.4814 -27.5205,-21.0334 -55.1707,-18.9369l-2.92422 -5.31553z"/>
  <path fill="black" fill-rule="nonzero" d="M387.225 102.823l2.38989 1.59477c0,0 15.6807,-9.82971 7.97386,-26.0447l-1.59619 -1.59477 -1.06072 2.65691c0,0 7.17733,13.8234 -6.91172,22.0584l-0.795119 1.32945z"/>
  <path fill="black" fill-rule="nonzero" d="M445.168 54.4522c0,0 -9.57034,-1.32775 -44.1216,15.948l-11.4321 5.31553 -1.92841 -1.35241c0.869386,-0.227055 1.7555,-0.464882 2.66485,-0.718016 10.6957,-2.97808 18.1355,-11.2192 33.5492,-16.5345 1.05902,-0.364536 11.6436,-4.93881 25.7978,-8.86649l0.251433 0.625323 -4.7812 5.58255z"/>
  <path fill="black" fill-rule="nonzero" d="M114.368 73.2717c1.01594,2.75584 2.02564,5.04851 2.02564,8.5544 0,1.32945 -0.663874,1.99304 -1.06243,3.19125l2.12457 0.527811c1.06214,-3.18473 1.06214,-5.17805 1.59477,-8.50026l2.12428 -0.534331c1.72743,1.06243 2.65833,-2.65833 2.65833,-4.78262l6.11688 0c-0.267024,3.32221 -0.13748,5.17947 0,8.50196l2.38989 1.06838 1.59619 -6.38391c0.795119,0.13578 1.19197,1.32917 2.12457,1.32917 2.52709,0 3.85484,0 6.37739,0 1.06214,0 1.06214,-1.58995 1.59477,-2.39131l4.25509 0c0.396567,1.59619 0.663591,2.65833 1.06214,4.25481 1.32747,-2.39131 2.52567,-3.85654 4.2531,-5.84958 1.45899,0.799654 2.52114,1.59477 3.71934,2.65691l-1.06243 4.25339c0.795119,2.65833 1.72772,4.38435 3.72076,6.37739 0,-0.794835 0.53263,-1.19169 0.53263,-1.99304 0,-2.12428 -1.06668,-3.32221 -1.06668,-5.44507 0,-4.52183 2.92394,-9.036 7.44435,-9.036 4.11732,0 6.11207,2.78816 9.57034,4.7812l0.528095 -2.12428 -1.06243 -4.25339c1.19821,-0.396851 1.8635,-1.06214 3.19125,-1.06214 1.85726,0 2.25553,2.12428 3.72076,3.19266 1.06214,-1.19792 1.8618,-1.8635 3.18643,-2.66315 0,0.930898 1.06668,1.19792 1.06668,2.1291 0,1.06214 -1.59619,1.06214 -1.59619,2.12428 0,1.59477 1.59619,2.26006 2.12428,3.71906l2.12428 0.534048c1.46523,-2.92394 1.99928,-5.31525 4.78744,-6.91172l2.12457 0.534331 -2.12457 2.12428c0.930898,1.59477 1.86208,3.19096 3.71934,3.19096 3.72047,0 5.84958,-0.13578 9.57005,-0.13578 0.931182,0 1.19821,-1.46041 2.12457,-1.46041 0.930898,0 0.402803,1.72743 1.06668,2.12428l2.12428 0 -0.534048 -4.24715c1.32917,1.72602 2.12882,2.65691 3.19096,4.7812 3.45373,-1.72602 5.7138,-3.19096 9.57034,-3.19096 1.32775,0 1.85726,1.06668 3.18501,1.06668 1.06838,0 1.19962,-1.32917 2.13052,-1.59619l4.25339 0.529512 1.06214 2.12882c-1.59647,0.930898 -2.65862,1.45899 -4.25339,2.12428l0 4.25339c0.930898,0.534331 1.45899,1.19821 2.12428,2.1291 2.52567,-4.52041 4.52041,-7.97868 3.72529,-13.288 1.85726,1.19197 2.91799,1.9868 4.78148,3.18501 0.131244,-1.06214 1.59619,-1.06214 1.59619,-2.12287 0,-1.06214 -1.72743,-0.665292 -2.13052,-1.59619 2.26035,-1.19821 3.72529,-1.99332 6.38391,-2.1291 1.59024,4.78602 4.38435,6.78048 6.90548,11.1651 1.06696,-3.19266 1.46523,-5.58255 0,-8.50196 1.8635,-0.13748 2.92422,-0.534048 4.78744,-0.534048 1.72602,0 1.99332,2.65691 3.71934,2.65691 2.65833,0 3.85654,-2.12287 6.37767,-2.65691l0 4.2531c1.99446,0.131244 3.32221,0.795119 4.78744,2.12428 1.72743,-1.06214 2.52255,-2.65833 2.65833,-4.7812 0.795119,0 1.19197,-0.534048 1.99304,-0.534048 4.38463,0 6.37767,3.71906 10.7623,3.71906 2.78816,0 5.31553,-0.528095 6.91172,-2.65691 0.663874,1.46495 1.19197,2.65691 1.59477,4.2531l2.12428 1.06214c0.398551,-2.52085 0.795119,-3.98608 1.59647,-6.37739l2.12428 0.534048 0 4.64996c2.52737,-0.402803 3.85512,-0.13578 6.37767,0.131244 0,1.06214 -0.529512,1.72602 -0.529512,2.78816 0,1.73225 1.06214,2.52737 1.59619,4.12384l2.12457 1.06214c0.131244,-1.59647 0.534048,-2.52737 0.534048,-4.11761 0,-1.86321 -1.46523,-2.65833 -2.13052,-4.39058l2.13052 -1.59024c2.25411,2.25553 2.38989,4.65166 3.71906,7.43981 3.98636,-0.930898 6.50892,-0.930898 10.6311,-1.59619l0 4.25481 2.12428 1.06214c1.19792,-2.39159 1.59619,-5.31695 4.25339,-5.31695 2.26006,0 3.05518,2.52709 3.19266,4.78744 2.38989,-0.930898 3.71906,-2.1291 6.37767,-2.1291 3.05518,0 3.58923,3.32249 5.31525,5.84958 0.795119,-2.65833 1.72602,-4.65137 4.25339,-5.84958 -0.13578,1.72602 -0.398268,2.65862 -1.06668,4.25339 0.930898,0 1.19792,1.06214 2.12882,1.06214 1.06214,0 1.19339,-1.32917 2.12428,-1.59647 0.267024,3.72076 2.7944,6.78218 6.37767,7.44605l2.1291 -0.534048 0.534048 -2.12428c-2.26006,-0.931182 -3.72529,-2.1291 -4.78744,-4.25339l0.534048 -2.12428c1.19197,0.398268 1.85726,1.06214 3.18501,1.06214 2.26035,0 3.05688,-1.59477 5.31695,-2.12428 0.930898,1.46041 1.72602,2.6521 2.65691,4.24857 2.39159,-3.32249 5.44677,-4.11732 9.56892,-4.7812 4.38463,-2.52737 8.76898,-0.136063 12.7553,-3.19266 3.85654,-2.92422 4.25481,-6.5075 6.91172,-10.6311 -0.376725,0 -0.659339,-0.12189 -0.94167,-0.246898 -3.81487,2.25553 -7.47071,4.20236 -11.6113,5.3555 -32.5582,9.0686 -39.5411,1.27984 -39.5411,1.27984 8.93254,-4.66073 13.1689,-11.0662 13.1689,-11.0662l-2.10274 -5.08706 -1.49754 2.32498 -1.59477 4.25339 -12.7551 9.5641 -15.6424 -4.68397c-25.9413,-6.40403 -80.3557,-14.449 -80.3557,-14.449l14.0244 -15.7286c0,0 -12.7383,-8.50649 -15.7286,-11.0679 -2.99055,-2.55969 -8.07761,-11.4585 -8.07761,-11.4585 -1.73197,1.09474 -3.53225,2.36523 -5.37392,3.76866l0.586488 0.469418c0,0 12.2273,15.4123 22.3257,19.1327l-12.7553 13.822 -39.3341 -0.53263 -3.29301 -1.49584 -0.841323 0.95556 0 0 -3.83953 0.0107717c-54.3943,5.64293 -81.5383,18.7146 -83.3553,19.6146z"/>
  <path fill="none" fill-rule="nonzero" stroke="black" stroke-width="0.55304" d="M305.098 117.909l21.634 16.4421m-13.8453 -19.3244l20.1903 15.5713m-12.4016 -18.4567l20.1889 15.5758m-12.4002 -18.4584l19.7841 15.2595m-11.9971 -18.1449l20.0251 15.4494m-140.59 7.91519l26.2517 26.5295m-19.0403 -28.5503l21.3438 22.7823m-14.4227 -24.226l16.7321 18.1695"/>
  <path fill="none" fill-rule="nonzero" stroke="black" stroke-width="0.216" d="M201.563 53.6463c0,0 22.5264,-25.9073 38.6856,-36.1199 0,0 5.08706,8.89881 8.07761,11.4585 2.99027,2.56139 15.7286,11.0679 15.7286,11.0679l-14.0244 15.7286c0,0 54.4145,8.04501 80.3557,14.449 0,0 10.2498,-12.706 31.4898,-11.4585l2.10274 5.08706c0,0 -4.23638,6.40545 -13.1689,11.0662 0,0 6.98287,7.78876 39.5411,-1.27984 10.6957,-2.97808 18.1355,-11.2192 33.5492,-16.5345 1.18715,-0.409323 14.3564,-6.11065 31.1086,-10.2606 0,0 -2.17219,14.8734 -21.708,31.4575 -19.5358,16.5841 9.32315,28.4686 16.5841,41.6699 0,0 4.69474,8.07761 5.12391,17.4331 0,0 -10.2172,3.87836 -37.8629,-10.603 -27.6503,-14.4814 -27.5205,-21.0334 -55.1707,-18.9369l11.3613 10.8595c0,0 -32.2263,1.43263 -51.7621,23.9587l-26.8399 -20.4619c0,0 -32.0842,9.50996 -42.2643,10.3638 0,0 8.98215,17.6848 -7.17279,30.0325l-4.19301 -0.943371 -26.3721 -25.9413c0,0 -49.752,2.5611 -109.71,-8.50054 0,0 -32.3467,-0.855213 -47.651,-11.9231l-1.67187 -3.4149c0,0 -0.969449,-2.16765 2.49024,-1.10551 3.45203,1.06243 11.1589,2.39613 11.1589,2.39613 0,0 6.6447,0.262488 1.59647,-4.25339l-19.4 -5.58227 -6.38391 -2.38989c0,0 -1.58995,-3.19266 2.1291,-2.92564 0,0 4.25481,-8.7738 51.027,-19.4 0,0 4.78744,-5.84958 15.948,-5.31553 0,0 27.1114,-13.822 83.4588,-19.6671l3.83953 -0.0107717z"/>
  <path fill="black" fill-rule="nonzero" d="M124.896 103.355c0,0 38.0095,-3.45827 51.5659,6.9069 0,0 -9.04082,10.103 -24.4545,9.83594 -15.4137,-0.267024 -17.0087,-3.72076 -17.0087,-3.72076l0 -3.98608 28.969 -0.795119 -35.0856 -1.59619 -0.260788 -1.32945 32.1551 -0.265606c0,0 -3.45345,-3.45345 -35.8804,-2.39131l0 -2.65833z"/>
  <path fill="black" fill-rule="nonzero" d="M108.153 119.303c0,0 19.4,-6.37767 9.036,-20.2011l1.32945 -2.39159 -1.59647 -0.794835c0,0 -1.06214,4.24857 -6.91172,7.97386l0 2.12428c0,0 3.45969,-1.06214 5.84958,-4.52041 0,0 7.44605,5.84958 -5.31553,14.8842l-2.39131 2.92564z"/>
  <path fill="black" fill-rule="nonzero" d="M72.0068 96.9775c0,0 4.78573,6.11037 14.089,1.85726l0.795119 1.32917c0,0 -6.91172,6.6447 -15.4137,-0.528095l0.529512 -2.65833z"/>
  <path fill="black" fill-rule="nonzero" d="M88.7483 88.2037c0,0 1.8618,5.31553 0.534048,7.44435l1.86208 0.267307c0,0 1.58995,-3.19125 -0.534331,-7.17733l-1.8618 -0.534331z"/>
  <path fill="black" fill-rule="nonzero" d="M76.2599 90.0672c0,1.46353 1.48677,2.65691 3.32249,2.65691 1.83572,0 3.32221,-1.19339 3.32221,-2.65691 0,-1.47147 -1.48649,-2.65862 -3.32221,-2.65862 -1.83572,0 -3.32249,1.18715 -3.32249,2.65862zm-1.59619 1.8618c0,-2.64614 2.74025,-4.78744 6.1166,-4.78744 3.3704,0 6.11065,2.14129 6.11065,4.78744 0,2.64161 -2.74025,4.7812 -6.11065,4.7812 -3.37635,0 -6.1166,-2.13959 -6.1166,-4.7812z"/>
  <path fill="none" fill-rule="nonzero" stroke="black" stroke-width="0.55304" d="M207.288 55.2473c0,0 15.4185,-18.8657 31.6318,-31.8881m-23.1253 31.8881c0,0 18.8719,-23.6531 26.3118,-28.4346m-19.6671 29.236c0,0 17.5428,-20.467 23.3924,-24.7156m-15.9525 24.9826l19.6733 -22.591m-13.0224 22.591l13.8175 -14.8859m193.486 17.8053c0,0 -17.0084,2.65691 -40.3949,13.2894m34.0172 -5.84504c0,0 -21.2618,5.31553 -39.3324,13.0224m30.2159 -1.84649c0,0 -21.1813,3.44296 -30.4832,5.83285m24.4545 3.72047l-23.9202 0.528095m24.7153 5.84958c0,0 -21.5303,-0.528095 -25.2496,-2.39131m50.7648 34.8137c0,0 -33.4891,-7.70684 -56.6144,-26.0447m50.7663 15.9463c0,0 -24.4497,-4.7812 -47.308,-19.6654m38.539 9.03459c0,0 -24.4545,-5.31553 -37.2098,-12.4883m-275.885 -5.31553c0,0 2.39754,5.04851 0,7.43981m7.44577 -1.85726l8.76926 0.528095m5.58255 0.267024l9.30161 0.534331m18.3376 1.32775l4.25339 0.262205m3.98778 0l5.58255 -0.262205m21.7899 0.262205l8.24089 0m17.8098 -0.262205l6.37767 -0.53263m5.84816 -0.267307l7.17421 -0.267024m5.58255 0.267024l5.31553 -0.267024m13.0224 -1.32917l5.31525 -0.261071m4.52041 0l4.78148 0m4.2531 -0.267024l5.58255 -0.267024m8.50196 0l3.98636 -0.267024m13.5564 -0.267024l6.11688 0m19.3998 -0.261071l4.25339 -0.267024m-216.612 -6.91172c-0.0649134,0.794835 -0.13578,1.32917 -0.267024,2.12428m27.1128 -10.8918c-0.0708662,1.52362 -0.267024,2.38989 -0.267024,3.91521 0,0.665292 0,0.997229 0,1.6611m6.9103 -6.11065l0 4.25339m7.96933 -5.58255c0,2.39131 -0.262488,3.72076 -0.262488,6.11065m13.8175 -3.18501l-0.528095 2.12287m6.37767 0.534048c1.8635,1.85726 1.52986,4.05269 1.32917,6.6447m7.17733 -9.83594c0,1.32945 0.0666142,2.1291 0.262488,3.45827m2.92422 3.45373l-0.528095 5.31553m5.57632 -11.1651l0 6.91172m6.6447 -12.7568l0.403087 5.31695 0.131244 6.37767m16.4804 -2.65862c0,2.05965 0.0649134,3.25758 -0.267024,5.31553m2.92564 -15.1512c-0.20211,2.46076 -0.267024,3.92117 -0.267024,6.38221m5.84334 -11.9602c0.267024,4.11732 0.801355,6.50892 0.801355,10.6325m-0.534331 3.71906c-0.398268,1.19339 -0.794835,1.85726 -0.794835,3.1218 0,0.467717 0.267024,0.663874 0.267024,1.13159m4.51418 0c0,1.2583 0.0663307,1.92359 0.267024,3.18643m7.43981 -19.133c1.06838,4.24885 1.79717,6.77594 1.06838,11.1592m18.8657 -6.37767c1.13329,2.85903 0.866268,4.65166 1.06696,7.70684m-3.45827 1.8635l0 4.2531m10.6308 -14.089c0.534331,3.45827 1.32945,5.31553 1.32945,8.7738m11.6929 0.260788c0.331937,2.32498 0.930898,3.5246 1.06838,5.84958m77.3374 2.92422c1.59647,-0.136063 2.65862,-0.265606 4.25339,-0.53263m5.31553 0c2.52709,-0.131244 3.85654,-0.398551 6.37767,-0.534331"/>
  <path fill="#CCCCCC" fill-rule="nonzero" d="M201.563 214.004c0,0 22.5264,-25.9087 38.6856,-36.1213 0,0 5.08706,8.90022 8.07761,11.4602 2.99027,2.56422 15.7286,11.0662 15.7286,11.0662l-14.0244 15.7303c0,0 54.4145,8.04331 80.3557,14.4488 0,0 10.2498,-12.7074 31.4898,-11.4599l2.10274 5.08706c0,0 -4.23638,6.40517 -13.1689,11.0676 0,0 6.98287,7.78734 39.5411,-1.27984 10.6957,-2.9795 18.1355,-11.2207 33.5492,-16.5359 1.18715,-0.407622 14.3564,-6.11065 31.1086,-10.2606 0,0 -2.17219,14.8734 -21.708,31.4575 -19.5358,16.5838 9.32315,28.4684 16.5841,41.6699 0,0 4.69474,8.07733 5.12391,17.4348 0,0 -10.2172,3.87808 -37.8629,-10.6047 -27.6503,-14.4814 -27.5205,-21.0334 -55.1707,-18.9369l11.3613 10.861c0,0 -32.2263,1.43121 -51.7621,23.9573l-26.8399 -20.4622c0,0 -32.0842,9.51024 -42.2643,10.3655 0,0 8.98215,17.6834 -7.17279,30.0308l-4.19301 -0.94167 -26.3721 -25.9413c0,0 -49.752,2.56451 -109.71,-8.50196 0,0 -32.3467,-0.855213 -47.651,-11.9214l-1.67187 -3.41518c0,0 -0.969449,-2.16737 2.49024,-1.10523 3.45203,1.06668 11.1589,2.39584 11.1589,2.39584 0,0 6.6447,0.261071 1.59647,-4.2531l-19.4 -5.58255 -6.38391 -2.39159c0,0 -1.58995,-3.19096 2.1291,-2.92394 0,0 4.25481,-8.76898 51.027,-19.4 0,0 4.78744,-5.84958 15.948,-5.31695 0,0 27.1114,-13.822 83.4588,-19.6654l3.83953 -0.0110551z"/>
  <path fill="black" fill-rule="nonzero" d="M58.1894 271.153c0,0 3.71906,5.84788 24.7153,7.71137 0,0 4.52041,0.261071 6.11065,2.9194l3.71906 -3.18643 1.06838 1.59024c0,0 13.0224,2.65833 18.3379,3.99232 5.31553,1.32293 46.7785,9.83112 97.0107,7.43981l5.58085 4.47704c0,0 -49.752,2.56451 -109.71,-8.50196 0,0 -32.3467,-0.855213 -47.651,-11.9214l-1.67187 -3.41518c0,0 -0.969449,-2.16737 2.49024,-1.10523z"/>
  <path fill="none" fill-rule="nonzero" stroke="black" stroke-width="0.216" d="M58.1894 271.153c0,0 3.71906,5.84788 24.7153,7.71137 0,0 4.52041,0.261071 6.11065,2.9194l3.71906 -3.18643 1.06838 1.59024c0,0 13.0224,2.65833 18.3379,3.99232 5.31553,1.32293 46.7785,9.83112 97.0107,7.43981l5.58085 4.47704"/>
  <path fill="black" d="M93.8614 240.033c1.93748,-0.112819 11.8352,-0.202394 8.70889,10.1228 0,0 6.6447,5.58255 -0.265606,9.56892 0,0 6.9103,-0.267024 6.9103,-11.9602 0,0 -1.59477,-4.25339 -5.31553,-6.11065 -3.71906,-1.8618 -2.92394,-4.52013 -2.92394,-4.52013l-1.08227 0.426047c-1.06526,0.814961 -1.57635,1.43717 -1.57635,1.43717 -1.53128,0.348945 -3.01351,0.693355 -4.4555,1.03606z"/>
  <path fill="black" fill-rule="nonzero" d="M47.2899 258.397l4.51559 1.59477 5.84986 2.39131 5.84958 1.59647 2.38989 1.32775 1.32917 0.795119 0.528095 1.86321 -0.210047 0.350646 -15.9973 -4.60375 -6.38391 -2.39159c0,0 -1.58995,-3.19096 2.1291,-2.92394z"/>
  <path fill="black" fill-rule="nonzero" d="M70.9447 269.295c0,0 7.17733,-0.534331 17.5425,6.37767l0.528095 2.38989c0,0 -5.31553,-5.58255 -16.2088,-6.9103l-0.256252 -0.0357166c-0.282614,-0.500032 -0.795119,-1.09758 -1.60554,-1.82154z"/>
  <path fill="black" fill-rule="nonzero" d="M54.2016 253.347c0,0 9.036,3.98778 12.4883,8.50819l2.13024 0c0,0 0.795119,-3.19266 -11.1648,-10.103l-3.45373 1.59477z"/>
  <path fill="black" fill-rule="nonzero" d="M241.104 322.038c0,0 19.6067,-13.9425 4.72706,-32.5474l2.39159 -2.39131 47.3066 -7.97386 -3.98636 4.2531 -0.15137 0.177732c-8.48325,2.44687 -30.7534,8.70719 -38.9217,9.3926 0,0 8.98215,17.6834 -7.17279,30.0308l-4.19301 -0.94167z"/>
  <path fill="black" fill-rule="nonzero" d="M319.717 297.997l1.85726 5.04822c19.5358,-22.5261 51.7621,-23.9573 51.7621,-23.9573l-11.3613 -10.861 -2.92422 -5.30929 -8.76898 0.795119 -0.534048 3.71906 12.7613 8.24117c-30.2978,11.2467 -42.7921,22.324 -42.7921,22.324z"/>
  <path fill="black" fill-rule="nonzero" d="M359.051 262.918c0,0 20.1997,-3.45969 37.4755,6.90548 17.2758,10.364 44.6497,22.8583 50.2322,23.1253 0,0 3.45827,-8.50819 -13.8175,-25.2496 -17.2758,-16.7414 -14.6186,-21.2618 -6.91172,-30.2978 7.70684,-9.03629 14.8856,-14.0845 23.1205,-27.9065l0.645449 -0.921827c1.692,-0.467717 3.43021,-0.924662 5.21348,-1.3663 0,0 -2.17219,14.8734 -21.708,31.4575 -19.5358,16.5838 9.32315,28.4684 16.5841,41.6699 0,0 4.69474,8.07733 5.12391,17.4348 0,0 -10.2172,3.87808 -37.8629,-10.6047 -27.6503,-14.4814 -27.5205,-21.0334 -55.1707,-18.9369l-2.92422 -5.30929z"/>
  <path fill="black" fill-rule="nonzero" d="M387.225 263.179l2.38989 1.59647c0,0 15.6807,-9.83112 7.97386,-26.0447l-1.59619 -1.59619 -1.06072 2.65833c0,0 7.17733,13.822 -6.91172,22.0632l-0.795119 1.32293z"/>
  <path fill="black" fill-rule="nonzero" d="M445.168 214.81c0,0 -9.57034,-1.32917 -44.1216,15.9466l-11.4321 5.31525 -1.92841 -1.35071c0.869386,-0.227055 1.7555,-0.464599 2.66485,-0.718016 10.6957,-2.9795 18.1355,-11.2207 33.5492,-16.5359 1.05902,-0.362835 11.6436,-4.93881 25.7978,-8.86649l0.251433 0.62674 -4.7812 5.58255z"/>
  <path fill="black" fill-rule="nonzero" d="M114.368 233.628c1.01594,2.75726 2.02564,5.05304 2.02564,8.5544 0,1.32917 -0.663874,1.99474 -1.06243,3.19266l2.12457 0.528095c1.06214,-3.18671 1.06214,-5.17975 1.59477,-8.50196l2.12428 -0.534331c1.72743,1.06214 2.65833,-2.65691 2.65833,-4.7812l6.11688 0c-0.267024,3.32249 -0.13748,5.18429 0,8.50649l2.38989 1.06214 1.59619 -6.37739c0.795119,0.131244 1.19197,1.32917 2.12457,1.32917 2.52709,0 3.85484,0 6.37739,0 1.06214,0 1.06214,-1.59647 1.59477,-2.39613l4.25509 0c0.396567,1.59477 0.663591,2.65691 1.06214,4.25339 1.32747,-2.39159 2.52567,-3.85654 4.2531,-5.84362 1.45899,0.795119 2.52114,1.59024 3.71934,2.6572l-1.06243 4.24857c0.795119,2.65691 1.72772,4.38917 3.72076,6.37767 0,-0.795119 0.53263,-1.19339 0.53263,-1.9885 0,-2.1291 -1.06668,-3.32249 -1.06668,-5.45131 0,-4.51588 2.92394,-9.03629 7.44435,-9.03629 4.11732,0 6.11207,2.78986 9.57034,4.7829l0.528095 -2.12428 -1.06243 -4.25339c1.19821,-0.398268 1.8635,-1.06214 3.19125,-1.06214 1.85726,0 2.25553,2.12428 3.72076,3.19125 1.06214,-1.19821 1.8618,-1.8618 3.18643,-2.65862 0,0.926363 1.06668,1.19339 1.06668,2.12428 0,1.06214 -1.59619,1.06214 -1.59619,2.12457 0,1.59619 1.59619,2.26006 2.12428,3.72529l2.12428 0.527811c1.46523,-2.92394 1.99928,-5.31553 4.78744,-6.9103l2.12457 0.53263 -2.12457 2.12457c0.930898,1.59619 1.86208,3.19096 3.71934,3.19096 3.72047,0 5.84958,-0.13578 9.57005,-0.13578 0.931182,0 1.19821,-1.45899 2.12457,-1.45899 0.930898,0 0.402803,1.72602 1.06668,2.1291l2.12428 0 -0.534048 -4.25339c1.32917,1.72602 2.12882,2.65691 3.19096,4.7812 3.45373,-1.72602 5.7138,-3.18501 9.57034,-3.18501 1.32775,0 1.85726,1.06072 3.18501,1.06072 1.06838,0 1.19962,-1.32775 2.13052,-1.59477l4.25339 0.534048 1.06214 2.12287c-1.59647,0.932599 -2.65862,1.46041 -4.25339,2.12428l0 4.25339c0.930898,0.534048 1.45899,1.19962 2.12428,2.13052 2.52567,-4.52041 4.52041,-7.97386 3.72529,-13.2894 1.85726,1.19339 2.91799,1.99304 4.78148,3.18643 0.131244,-1.06214 1.59619,-1.06214 1.59619,-2.12428 0,-1.06214 -1.72743,-0.663874 -2.13052,-1.59647 2.26035,-1.19792 3.72529,-1.99304 6.38391,-2.12428 1.59024,4.7829 4.38435,6.77594 6.90548,11.1606 1.06696,-3.18643 1.46523,-5.58255 0,-8.50196 1.8635,-0.13578 2.92422,-0.534331 4.78744,-0.534331 1.72602,0 1.99332,2.65862 3.71934,2.65862 2.65833,0 3.85654,-2.12428 6.37767,-2.65862l0 4.25339c1.99446,0.131244 3.32221,0.796536 4.78744,2.12428 1.72743,-1.06214 2.52255,-2.65691 2.65833,-4.7812 0.795119,0 1.19197,-0.534331 1.99304,-0.534331 4.38463,0 6.37767,3.72076 10.7623,3.72076 2.78816,0 5.31553,-0.529512 6.91172,-2.65833 0.663874,1.46495 1.19197,2.65833 1.59477,4.2531l2.12428 1.06214c0.398551,-2.52114 0.795119,-3.98608 1.59647,-6.37767l2.12428 0.534331 0 4.65166c2.52737,-0.398268 3.85512,-0.13748 6.37767,0.129543 0,1.06214 -0.529512,1.72772 -0.529512,2.7944 0,1.72602 1.06214,2.52114 1.59619,4.11732l2.12457 1.06243c0.131244,-1.59647 0.534048,-2.52114 0.534048,-4.11761 0,-1.8635 -1.46523,-2.65833 -2.13052,-4.38435l2.13052 -1.59647c2.25411,2.26176 2.38989,4.65166 3.71906,7.43981 3.98636,-0.930898 6.50892,-0.930898 10.6311,-1.59477l0 4.25339 2.12428 1.06214c1.19792,-2.39159 1.59619,-5.31553 4.25339,-5.31553 2.26006,0 3.05518,2.52737 3.19266,4.78744 2.38989,-0.932599 3.71906,-2.13052 6.37767,-2.13052 3.05518,0 3.58923,3.32249 5.31525,5.84958 0.795119,-2.65691 1.72602,-4.65166 4.25339,-5.84958 -0.13578,1.73225 -0.398268,2.65862 -1.06668,4.25481 0.930898,0 1.19792,1.06072 2.12882,1.06072 1.06214,0 1.19339,-1.32775 2.12428,-1.59477 0.267024,3.72529 2.7944,6.78048 6.37767,7.44435l2.1291 -0.53263 0.534048 -2.12428c-2.26006,-0.932599 -3.72529,-2.13052 -4.78744,-4.25339l0.534048 -2.12428c1.19197,0.396851 1.85726,1.06214 3.18501,1.06214 2.26035,0 3.05688,-1.59619 5.31695,-2.12428 0.930898,1.45899 1.72602,2.65238 2.65691,4.24715 2.39159,-3.32079 5.44677,-4.11761 9.56892,-4.78148 4.38463,-2.52709 8.76898,-0.130961 12.7553,-3.19096 3.85654,-2.9194 4.25481,-6.50892 6.91172,-10.6311 -0.376725,0 -0.659339,-0.12189 -0.94167,-0.246898 -3.81487,2.25553 -7.47071,4.20236 -11.6113,5.3555 -32.5582,9.06719 -39.5411,1.27984 -39.5411,1.27984 8.93254,-4.66243 13.1689,-11.0676 13.1689,-11.0676l-2.10274 -5.08706 -1.49754 2.32639 -1.59477 4.25339 -12.7551 9.56892 -15.6424 -4.68879c-25.9413,-6.40545 -80.3557,-14.4488 -80.3557,-14.4488l14.0244 -15.7303c0,0 -12.7383,-8.50196 -15.7286,-11.0662 -2.99055,-2.55997 -8.07761,-11.4602 -8.07761,-11.4602 -1.73197,1.09474 -3.53225,2.36381 -5.37392,3.76866l0.586488 0.469418c0,0 12.2273,15.4137 22.3257,19.1327l-12.7553 13.8237 -39.3341 -0.534331 -3.29131 -1.49584 -0.843024 0.956977 0 0 -3.83953 0.0110551c-54.3943,5.64095 -81.5383,18.7129 -83.3553,19.6129z"/>
  <path fill="none" fill-rule="nonzero" stroke="black" stroke-width="0.55304" d="M305.098 278.265l21.634 16.4421m-13.8453 -19.3229l20.1903 15.5758m-12.4016 -18.4629l20.1889 15.5761m-12.4002 -18.4567l19.7827 15.2578m-11.9957 -18.1449l20.0251 15.4491m-140.59 7.91547l26.2517 26.5295m-19.0403 -28.5503l21.3438 22.7823m-14.4227 -24.2243l16.7321 18.1678"/>
  <path fill="none" fill-rule="nonzero" stroke="black" stroke-width="0.216" d="M201.563 214.004c0,0 22.5264,-25.9087 38.6856,-36.1213 0,0 5.08706,8.90022 8.07761,11.4602 2.99027,2.56422 15.7286,11.0662 15.7286,11.0662l-14.0244 15.7303c0,0 54.4145,8.04331 80.3557,14.4488 0,0 10.2498,-12.7074 31.4898,-11.4599l2.10274 5.08706c0,0 -4.23638,6.40517 -13.1689,11.0676 0,0 6.98287,7.78734 39.5411,-1.27984 10.6957,-2.9795 18.1355,-11.2207 33.5492,-16.5359 1.18715,-0.407622 14.3564,-6.11065 31.1086,-10.2606 0,0 -2.17219,14.8734 -21.708,31.4575 -19.5358,16.5838 9.32315,28.4684 16.5841,41.6699 0,0 4.69474,8.07733 5.12391,17.4348 0,0 -10.2172,3.87808 -37.8629,-10.6047 -27.6503,-14.4814 -27.5205,-21.0334 -55.1707,-18.9369l11.3613 10.861c0,0 -32.2263,1.43121 -51.7621,23.9573l-26.8399 -20.4622c0,0 -32.0842,9.51024 -42.2643,10.3655 0,0 8.98215,17.6834 -7.17279,30.0308l-4.19301 -0.94167 -26.3721 -25.9413c0,0 -49.752,2.56451 -109.71,-8.50196 0,0 -32.3467,-0.855213 -47.651,-11.9214l-1.67187 -3.41518c0,0 -0.969449,-2.16737 2.49024,-1.10523 3.45203,1.06668 11.1589,2.39584 11.1589,2.39584 0,0 6.6447,0.261071 1.59647,-4.2531l-19.4 -5.58255 -6.38391 -2.39159c0,0 -1.58995,-3.19096 2.1291,-2.92394 0,0 4.25481,-8.76898 51.027,-19.4 0,0 4.78744,-5.84958 15.948,-5.31695 0,0 27.1114,-13.822 83.4588,-19.6654l3.83953 -0.0110551z"/>
  <path fill="black" fill-rule="nonzero" d="M124.896 263.713c0,0 38.0095,-3.45373 51.5659,6.9103 0,0 -9.04082,10.0981 -24.4545,9.83112 -15.4137,-0.267024 -17.0087,-3.71906 -17.0087,-3.71906l0 -3.98778 28.969 -0.795119 -35.0856 -1.59477 -0.260788 -1.32917 32.1551 -0.267307c0,0 -3.45345,-3.45345 -35.8804,-2.39131l0 -2.65691z"/>
  <path fill="black" fill-rule="nonzero" d="M108.153 279.659c0,0 19.4,-6.37767 9.036,-20.2011l1.32945 -2.38989 -1.59647 -0.795119c0,0 -1.06214,4.24715 -6.91172,7.97244l0 2.12428c0,0 3.45969,-1.06214 5.84958,-4.51418 0,0 7.44605,5.84334 -5.31553,14.8796l-2.39131 2.92394z"/>
  <path fill="black" fill-rule="nonzero" d="M72.0068 257.335c0,0 4.78573,6.11065 14.089,1.85726l0.795119 1.32775c0,0 -6.91172,6.6447 -15.4137,-0.528095l0.529512 -2.65691z"/>
  <path fill="black" fill-rule="nonzero" d="M88.7483 248.56c0,0 1.8618,5.32148 0.534048,7.44605l1.86208 0.267024c0,0 1.58995,-3.19266 -0.534331,-7.17903l-1.8618 -0.534048z"/>
  <path fill="black" fill-rule="nonzero" d="M76.2599 250.423c0,1.46976 1.48677,2.65691 3.32249,2.65691 1.83572,0 3.32221,-1.18715 3.32221,-2.65691 0,-1.46523 -1.48649,-2.65862 -3.32221,-2.65862 -1.83572,0 -3.32249,1.19339 -3.32249,2.65862zm-1.59619 1.8618c0,-2.64161 2.74025,-4.78744 6.1166,-4.78744 3.3704,0 6.11065,2.14583 6.11065,4.78744 0,2.64161 -2.74025,4.7829 -6.11065,4.7829 -3.37635,0 -6.1166,-2.14129 -6.1166,-4.7829z"/>
  <path fill="none" fill-rule="nonzero" stroke="black" stroke-width="0.55304" d="M207.288 215.605c0,0 15.4185,-18.8657 31.6318,-31.8881m-23.1253 31.8881c0,0 18.8719,-23.6531 26.3118,-28.436m-19.6671 29.2357c0,0 17.5428,-20.4667 23.3924,-24.7153m-15.9525 24.9826l19.6733 -22.5913m-13.0224 22.5913l13.8175 -14.8844m193.486 17.8039c0,0 -17.0084,2.66315 -40.3949,13.2894m34.0172 -5.84362c0,0 -21.2618,5.31553 -39.3324,13.0224m30.2159 -1.84621c0,0 -21.1813,3.44098 -30.4832,5.83257m24.4545 3.71906l-23.9202 0.534048m24.7153 5.84362c0,0 -21.5303,-0.528095 -25.2496,-2.38989m50.7648 34.8183c0,0 -33.4891,-7.70684 -56.6144,-26.0507m50.7663 15.9477c0,0 -24.4497,-4.78262 -47.308,-19.6671m38.539 9.03459c0,0 -24.4545,-5.31525 -37.2098,-12.488m-275.885 -5.31553c0,0 2.39754,5.04851 0,7.43981m7.44577 -1.85726l8.76926 0.528095m5.58255 0.267024l9.30161 0.534331m18.3376 1.32917l4.25339 0.260788m3.98778 0l5.58255 -0.260788m21.7899 0.260788l8.24089 0m17.8098 -0.260788l6.37767 -0.534331m5.84816 -0.267024l7.17421 -0.267024m5.58255 0.267024l5.31553 -0.267024m13.0224 -1.32321l5.31525 -0.267024m4.52041 0l4.78148 0m4.2531 -0.267024l5.58255 -0.267024m8.50196 0l3.98636 -0.265606m13.5564 -0.262488l6.11688 0m19.3998 -0.267024l4.25339 -0.265606m-216.612 -6.91172c-0.0649134,0.795119 -0.13578,1.32917 -0.267024,2.12428m27.1128 -10.8933c-0.0708662,1.52532 -0.267024,2.39131 -0.267024,3.91663 0,0.66841 0,1.00205 0,1.66592m6.9103 -6.11688l0 4.25481m7.96933 -5.58255c0,2.38989 -0.262488,3.71934 -0.262488,6.11518m13.8175 -3.19096l-0.528095 2.12428m6.37767 0.534048c1.8635,1.86208 1.52986,4.05128 1.32917,6.64328m7.17733 -9.83594c0,1.32945 0.0666142,2.13052 0.262488,3.45827m2.92422 3.45373l-0.528095 5.31525m5.57632 -11.1651l0 6.912m6.6447 -12.7553l0.403087 5.31553 0.131244 6.37767m16.4804 -2.65862c0,2.05937 0.0649134,3.25758 -0.267024,5.31695m2.92564 -15.1467c-0.20211,2.45622 -0.267024,3.91521 -0.267024,6.37767m5.84334 -11.9602c0.267024,4.11761 0.801355,6.50892 0.801355,10.6311m-0.534331 3.72047c-0.398268,1.19821 -0.794835,1.86208 -0.794835,3.1201 0,0.468 0.267024,0.663874 0.267024,1.13329m4.51418 0c0,1.26284 0.0663307,1.92841 0.267024,3.18501m7.43981 -19.133c1.06838,4.25481 1.79717,6.77594 1.06838,11.1606m18.8657 -6.37767c1.13329,2.85931 0.866268,4.64996 1.06696,7.70684m-3.45827 1.8618l0 4.25339m10.6308 -14.089c0.534331,3.45827 1.32945,5.31553 1.32945,8.77352m11.6929 0.267307c0.331937,2.32498 0.930898,3.51836 1.06838,5.84334m77.3374 2.92564c1.59647,-0.13578 2.65862,-0.267024 4.25339,-0.534331m5.31553 0c2.52709,-0.131244 3.85654,-0.398268 6.37767,-0.527811"/>
  <path fill="#CCCCCC" fill-rule="nonzero" d="M201.563 373.445c0,0 22.5264,-25.9075 38.6856,-36.1199 0,0 5.08706,8.89399 8.07761,11.4599 2.99027,2.55969 15.7286,11.0662 15.7286,11.0662l-14.0244 15.7289c0,0 54.4145,8.03878 80.3557,14.4442 0,0 10.2498,-12.7012 31.4898,-11.4599l2.10274 5.09301c0,0 -4.23638,6.40545 -13.1689,11.0662 0,0 6.98287,7.78876 39.5411,-1.27984 10.6957,-2.98403 18.1355,-11.219 33.5492,-16.5407 1.18715,-0.402803 14.3564,-6.11037 31.1086,-10.2541 0,0 -2.17219,14.8734 -21.708,31.4527 -19.5358,16.5841 9.32315,28.4669 16.5841,41.6699 0,0 4.69474,8.07591 5.12391,17.4393 0,0 -10.2172,3.87666 -37.8629,-10.6047 -27.6503,-14.4811 -27.5205,-21.0393 -55.1707,-18.9369l11.3613 10.8595c0,0 -32.2263,1.43263 -51.7621,23.959l-26.8399 -20.4667c0,0 -32.0842,9.50854 -42.2643,10.3638 0,0 8.98215,17.6848 -7.17279,30.0308l-4.19301 -0.937134 -26.3721 -25.9396c0,0 -49.752,2.55969 -109.71,-8.50819 0,0 -32.3467,-0.855213 -47.651,-11.9217l-1.67187 -3.4149c0,0 -0.969449,-2.16284 2.49024,-1.10069 3.45203,1.06214 11.1589,2.39131 11.1589,2.39131 0,0 6.6447,0.267024 1.59647,-4.2531l-19.4 -5.57802 -6.38391 -2.39613c0,0 -1.58995,-3.18643 2.1291,-2.92394 0,0 4.25481,-8.76898 51.027,-19.4 0,0 4.78744,-5.84504 15.948,-5.31553 0,0 27.1114,-13.8172 83.4588,-19.6671l3.83953 -0.00595276z"/>
  <path fill="black" fill-rule="nonzero" d="M58.1894 430.593c0,0 3.71906,5.84504 24.7153,7.70684 0,0 4.52041,0.267024 6.11065,2.92564l3.71906 -3.19266 1.06838 1.59619c0,0 13.0224,2.65691 18.3379,3.98636 5.31553,1.32917 46.7785,9.83112 97.0107,7.43981l5.58085 4.48328c0,0 -49.752,2.55969 -109.71,-8.50819 0,0 -32.3467,-0.855213 -47.651,-11.9217l-1.67187 -3.4149c0,0 -0.969449,-2.16284 2.49024,-1.10069z"/>
  <path fill="none" fill-rule="nonzero" stroke="black" stroke-width="0.216" d="M58.1894 430.593c0,0 3.71906,5.84504 24.7153,7.70684 0,0 4.52041,0.267024 6.11065,2.92564l3.71906 -3.19266 1.06838 1.59619c0,0 13.0224,2.65691 18.3379,3.98636 5.31553,1.32917 46.7785,9.83112 97.0107,7.43981l5.58085 4.48328"/>
  <path fill="black" d="M93.8614 399.47c1.93748,-0.112819 11.8352,-0.202394 8.70889,10.129 0,0 6.6447,5.58255 -0.265606,9.56863 0,0 6.9103,-0.267024 6.9103,-11.9599 0,0 -1.59477,-4.25339 -5.31553,-6.11688 -3.71906,-1.85726 -2.92394,-4.51418 -2.92394,-4.51418l-1.09616 0.430866c-1.05591,0.810426 -1.56246,1.42639 -1.56246,1.42639 -1.53128,0.348945 -3.01351,0.693071 -4.4555,1.03606z"/>
  <path fill="black" fill-rule="nonzero" d="M47.2899 417.834l4.51559 1.59477 5.84986 2.39131 5.84958 1.59647 2.38989 1.32775 1.32917 0.801071 0.528095 1.85726 -0.210047 0.350646 -15.9973 -4.59921 -6.38391 -2.39613c0,0 -1.58995,-3.18643 2.1291,-2.92394z"/>
  <path fill="black" fill-rule="nonzero" d="M70.9447 428.732c0,0 7.17733,-0.528095 17.5425,6.37739l0.528095 2.39613c0,0 -5.31553,-5.58255 -16.2088,-6.91172l-0.254835 -0.0371339c-0.284032,-0.500032 -0.796536,-1.09928 -1.60696,-1.82466z"/>
  <path fill="black" fill-rule="nonzero" d="M54.2016 412.784c0,0 9.036,3.98778 12.4883,8.50819l2.13024 0c0,0 0.795119,-3.19125 -11.1648,-10.0984l-3.45373 1.59024z"/>
  <path fill="black" fill-rule="nonzero" d="M241.104 481.478c0,0 19.6067,-13.9425 4.72706,-32.5471l2.39159 -2.38989 47.3066 -7.97415 -3.98636 4.25339 -0.145134 0.168378c-8.47871,2.44545 -30.7579,8.7086 -38.9279,9.39572 0,0 8.98215,17.6848 -7.17279,30.0308l-4.19301 -0.937134z"/>
  <path fill="black" fill-rule="nonzero" d="M319.717 457.433l1.85726 5.05446c19.5358,-22.5264 51.7621,-23.959 51.7621,-23.959l-11.3613 -10.8595 -2.92422 -5.31525 -8.76898 0.799654 -0.534048 3.72076 12.7613 8.23465c-30.2978,11.2516 -42.7921,22.3243 -42.7921,22.3243z"/>
  <path fill="black" fill-rule="nonzero" d="M359.051 422.354c0,0 20.1997,-3.45373 37.4755,6.9103 17.2758,10.3652 44.6497,22.8535 50.2322,23.1205 0,0 3.45827,-8.50196 -13.8175,-25.2496 -17.2758,-16.7414 -14.6186,-21.2573 -6.91172,-30.2978 7.70684,-9.03459 14.8856,-14.0845 23.1205,-27.902l0.645449 -0.921827c1.692,-0.467717 3.43021,-0.923245 5.21348,-1.3646 0,0 -2.17219,14.8734 -21.708,31.4527 -19.5358,16.5841 9.32315,28.4669 16.5841,41.6699 0,0 4.69474,8.07591 5.12391,17.4393 0,0 -10.2172,3.87666 -37.8629,-10.6047 -27.6503,-14.4811 -27.5205,-21.0393 -55.1707,-18.9369l-2.92422 -5.31525z"/>
  <path fill="black" fill-rule="nonzero" d="M387.225 422.621l2.38989 1.59477c0,0 15.6807,-9.83594 7.97386,-26.0493l-1.59619 -1.59024 -1.06072 2.65691c0,0 7.17733,13.8175 -6.91172,22.0587l-0.795119 1.32917z"/>
  <path fill="black" fill-rule="nonzero" d="M445.168 374.251c0,0 -9.57034,-1.32775 -44.1216,15.9415l-11.4321 5.31553 -1.92671 -1.34759c0.869103,-0.227055 1.7538,-0.463181 2.66315,-0.716599 10.6957,-2.98403 18.1355,-11.219 33.5492,-16.5407 1.05902,-0.359717 11.6453,-4.9371 25.7978,-8.86167l0.251433 0.627024 -4.7812 5.58255z"/>
  <path fill="black" fill-rule="nonzero" d="M114.368 393.065c1.01594,2.75896 2.02564,5.05304 2.02564,8.55922 0,1.32917 -0.663874,1.99304 -1.06243,3.18643l2.12457 0.534048c1.06214,-3.19266 1.06214,-5.1857 1.59477,-8.50791l2.12428 -0.528095c1.72743,1.06214 2.65833,-2.65862 2.65833,-4.78744l6.11688 0c-0.267024,3.32221 -0.13748,5.18429 0,8.50649l2.38989 1.06214 1.59619 -6.37767c0.795119,0.131244 1.19197,1.32945 2.12457,1.32945 2.52709,0 3.85484,0 6.37739,0 1.06214,0 1.06214,-1.59647 1.59477,-2.39159l4.25509 0c0.396567,1.59647 0.663591,2.65862 1.06214,4.25481 1.32747,-2.39754 2.52567,-3.85654 4.2531,-5.84958 1.45899,0.795119 2.52114,1.59477 3.71934,2.65691l-1.06243 4.25339c0.795119,2.65862 1.72772,4.38463 3.72076,6.37909 0,-0.796536 0.53263,-1.19934 0.53263,-1.99446 0,-2.12287 -1.06668,-3.32249 -1.06668,-5.44536 0,-4.52013 2.92394,-9.04224 7.44435,-9.04224 4.11732,0 6.11207,2.7944 9.57034,4.78744l0.528095 -2.12882 -1.06243 -4.24885c1.19821,-0.396567 1.8635,-1.06668 3.19125,-1.06668 1.85726,0 2.25553,2.1291 3.72076,3.19125 1.06214,-1.19197 1.8618,-1.86208 3.18643,-2.6572 0,0.931182 1.06668,1.19821 1.06668,2.12287 0,1.06838 -1.59619,1.06838 -1.59619,2.13052 0,1.59477 1.59619,2.26035 2.12428,3.71906l2.12428 0.534331c1.46523,-2.92422 1.99928,-5.31553 4.78744,-6.91172l2.12457 0.527811 -2.12457 2.13052c0.930898,1.59477 1.86208,3.19125 3.71934,3.19125 3.72047,0 5.84958,-0.136063 9.57005,-0.136063 0.931182,0 1.19821,-1.46041 2.12457,-1.46041 0.930898,0 0.402803,1.72772 1.06668,2.12428l2.12428 0 -0.534048 -4.2531c1.32917,1.72602 2.12882,2.65833 3.19096,4.78744 3.45373,-1.73225 5.7138,-3.19125 9.57034,-3.19125 1.32775,0 1.85726,1.06214 3.18501,1.06214 1.06838,0 1.19962,-1.32917 2.13052,-1.59619l4.25339 0.534048 1.06214 2.1291c-1.59647,0.926363 -2.65862,1.46041 -4.25339,2.12428l0 4.25339c0.930898,0.527811 1.45899,1.19339 2.12428,2.12428 2.52567,-4.52041 4.52041,-7.97415 3.72529,-13.2894 1.85726,1.19792 2.91799,1.99304 4.78148,3.19096 0.131244,-1.06668 1.59619,-1.06668 1.59619,-2.12882 0,-1.06214 -1.72743,-0.663874 -2.13052,-1.59647 2.26035,-1.19169 3.72529,-1.9868 6.38391,-2.12287 1.59024,4.78148 4.38435,6.77452 6.90548,11.1651 1.06696,-3.19266 1.46523,-5.58255 0,-8.50791 1.8635,-0.129827 2.92422,-0.534331 4.78744,-0.534331 1.72602,0 1.99332,2.65862 3.71934,2.65862 2.65833,0 3.85654,-2.12428 6.37767,-2.65862l0 4.25481c1.99446,0.136063 3.32221,0.799937 4.78744,2.1291 1.72743,-1.06214 2.52255,-2.65862 2.65833,-4.78744 0.795119,0 1.19197,-0.528095 1.99304,-0.528095 4.38463,0 6.37767,3.71906 10.7623,3.71906 2.78816,0 5.31553,-0.53263 6.91172,-2.65691 0.663874,1.45899 1.19197,2.65691 1.59477,4.25339l2.12428 1.06214c0.398551,-2.52737 0.795119,-3.98636 1.59647,-6.37767l2.12428 0.528095 0 4.65166c2.52737,-0.398551 3.85512,-0.131244 6.37767,0.13578 0,1.06214 -0.529512,1.72602 -0.529512,2.78816 0,1.72743 1.06214,2.52737 1.59619,4.11732l2.12457 1.06838c0.131244,-1.59619 0.534048,-2.52709 0.534048,-4.12356 0,-1.85726 -1.46523,-2.65691 -2.13052,-4.38463l2.13052 -1.59477c2.25411,2.26035 2.38989,4.65024 3.71906,7.44463 3.98636,-0.931182 6.50892,-0.931182 10.6311,-1.59647l0 4.25481 2.12428 1.06214c1.19792,-2.39131 1.59619,-5.31695 4.25339,-5.31695 2.26006,0 3.05518,2.52255 3.19266,4.7829 2.38989,-0.930898 3.71906,-2.12428 6.37767,-2.12428 3.05518,0 3.58923,3.32221 5.31525,5.84334 0.795119,-2.65691 1.72602,-4.64996 4.25339,-5.84334 -0.13578,1.72602 -0.398268,2.65833 -1.06668,4.2531 0.930898,0 1.19792,1.06214 2.12882,1.06214 1.06214,0 1.19339,-1.32917 2.12428,-1.59477 0.267024,3.71934 2.7944,6.77452 6.37767,7.4384l2.1291 -0.528095 0.534048 -2.12882c-2.26006,-0.926363 -3.72529,-2.12457 -4.78744,-4.24885l0.534048 -2.12882c1.19197,0.396851 1.85726,1.06214 3.18501,1.06214 2.26035,0 3.05688,-1.59024 5.31695,-2.12428 0.930898,1.45899 1.72602,2.65833 2.65691,4.2531 2.39159,-3.32221 5.44677,-4.12186 9.56892,-4.78744 4.38463,-2.52114 8.76898,-0.129543 12.7553,-3.18643 3.85654,-2.92394 4.25481,-6.51345 6.91172,-10.6308 -0.376725,0 -0.660756,-0.123591 -0.943371,-0.248599 -3.81487,2.25383 -7.47071,4.20236 -11.6096,5.35692 -32.5582,9.0686 -39.5411,1.27984 -39.5411,1.27984 8.93254,-4.66073 13.1689,-11.0662 13.1689,-11.0662l-2.10274 -5.09301 -1.49754 2.33121 -1.59477 4.24857 -12.7551 9.56863 -15.6424 -4.68851c-25.9413,-6.40545 -80.3557,-14.4442 -80.3557,-14.4442l14.0244 -15.7289c0,0 -12.7383,-8.50649 -15.7286,-11.0662 -2.99055,-2.56592 -8.07761,-11.4599 -8.07761,-11.4599 -1.73055,1.09304 -3.52914,2.36211 -5.36939,3.76555l0.581953 0.466016c0,0 12.2273,15.4185 22.3257,19.1393l-12.7553 13.8172 -39.3341 -0.527811 -3.29301 -1.49613 -0.841323 0.955843 0 0 -3.83953 0.00595276c-54.3974,5.64747 -81.5415,18.7177 -83.3553,19.6146z"/>
  <path fill="none" fill-rule="nonzero" stroke="black" stroke-width="0.55304" d="M305.098 437.707l21.634 16.4356m-13.8453 -19.3227l20.1903 15.5758m-12.4016 -18.4567l20.1889 15.5713m-12.4002 -18.4584l19.7841 15.264m-11.9971 -18.1446l20.0299 15.4477m-140.595 7.91065l26.2517 26.5354m-19.0403 -28.5548l21.3438 22.7872m-14.4227 -24.226l16.7321 18.1695"/>
  <path fill="none" fill-rule="nonzero" stroke="black" stroke-width="0.216" d="M201.563 373.445c0,0 22.5264,-25.9075 38.6856,-36.1199 0,0 5.08706,8.89399 8.07761,11.4599 2.99027,2.55969 15.7286,11.0662 15.7286,11.0662l-14.0244 15.7289c0,0 54.4145,8.03878 80.3557,14.4442 0,0 10.2498,-12.7012 31.4898,-11.4599l2.10274 5.09301c0,0 -4.23638,6.40545 -13.1689,11.0662 0,0 6.98287,7.78876 39.5411,-1.27984 10.6957,-2.98403 18.1355,-11.219 33.5492,-16.5407 1.18715,-0.402803 14.3564,-6.11037 31.1086,-10.2541 0,0 -2.17219,14.8734 -21.708,31.4527 -19.5358,16.5841 9.32315,28.4669 16.5841,41.6699 0,0 4.69474,8.07591 5.12391,17.4393 0,0 -10.2172,3.87666 -37.8629,-10.6047 -27.6503,-14.4811 -27.5205,-21.0393 -55.1707,-18.9369l11.3613 10.8595c0,0 -32.2263,1.43263 -51.7621,23.959l-26.8399 -20.4667c0,0 -32.0842,9.50854 -42.2643,10.3638 0,0 8.98215,17.6848 -7.17279,30.0308l-4.19301 -0.937134 -26.3721 -25.9396c0,0 -49.752,2.55969 -109.71,-8.50819 0,0 -32.3467,-0.855213 -47.651,-11.9217l-1.67187 -3.4149c0,0 -0.969449,-2.16284 2.49024,-1.10069 3.45203,1.06214 11.1589,2.39131 11.1589,2.39131 0,0 6.6447,0.267024 1.59647,-4.2531l-19.4 -5.57802 -6.38391 -2.39613c0,0 -1.58995,-3.18643 2.1291,-2.92394 0,0 4.25481,-8.76898 51.027,-19.4 0,0 4.78744,-5.84504 15.948,-5.31553 0,0 27.1114,-13.8172 83.4588,-19.6671l3.83953 -0.00595276z"/>
  <path fill="black" fill-rule="nonzero" d="M124.896 423.154c0,0 38.0095,-3.45827 51.5659,6.90718 0,0 -9.04082,10.103 -24.4545,9.83594 -15.4137,-0.267307 -17.0087,-3.72076 -17.0087,-3.72076l0 -3.98636 28.969 -0.801071 -35.0856 -1.59477 -0.260788 -1.32945 32.1551 -0.260788c0,0 -3.45345,-3.45969 -35.8804,-2.39754l0 -2.65238z"/>
  <path fill="black" fill-rule="nonzero" d="M108.153 439.095c0,0 19.4,-6.37767 9.036,-20.1952l1.32945 -2.39584 -1.59647 -0.795119c0,0 -1.06214,4.2531 -6.91172,7.97386l0 2.12287c0,0 3.45969,-1.06214 5.84958,-4.51418 0,0 7.44605,5.84334 -5.31553,14.8842l-2.39131 2.9194z"/>
  <path fill="black" fill-rule="nonzero" d="M72.0068 416.771c0,0 4.78573,6.11518 14.089,1.8618l0.795119 1.32917c0,0 -6.91172,6.6447 -15.4137,-0.534048l0.529512 -2.65691z"/>
  <path fill="black" fill-rule="nonzero" d="M88.7483 408.002c0,0 1.8618,5.31553 0.534048,7.43981l1.86208 0.267307c0,0 1.58995,-3.18671 -0.534331,-7.17903l-1.8618 -0.528095z"/>
  <path fill="black" fill-rule="nonzero" d="M76.2599 409.866c0,1.46523 1.48677,2.65691 3.32249,2.65691 1.83572,0 3.32221,-1.19169 3.32221,-2.65691 0,-1.47118 -1.48649,-2.65833 -3.32221,-2.65833 -1.83572,0 -3.32249,1.18715 -3.32249,2.65833zm-1.59619 1.85726c0,-2.64161 2.74025,-4.7829 6.1166,-4.7829 3.3704,0 6.11065,2.14129 6.11065,4.7829 0,2.64161 -2.74025,4.78148 -6.11065,4.78148 -3.37635,0 -6.1166,-2.13988 -6.1166,-4.78148z"/>
  <path fill="none" fill-rule="nonzero" stroke="black" stroke-width="0.55304" d="M207.288 375.046c0,0 15.4185,-18.8702 31.6318,-31.8926m-23.1253 31.8926c0,0 18.8719,-23.6531 26.3118,-28.4406m-19.6671 29.2374c0,0 17.5428,-20.4622 23.3924,-24.717m-15.9525 24.9823l19.6733 -22.591m-13.0224 22.591l13.8175 -14.8779m193.486 17.8036c0,0 -17.0084,2.65691 -40.3949,13.2894m34.0172 -5.84958c0,0 -21.2618,5.31553 -39.3324,13.0224m30.2159 -1.84167c0,0 -21.1813,3.43644 -30.4832,5.82803m24.4545 3.72529l-23.9202 0.527811m24.7153 5.84958c0,0 -21.5303,-0.534048 -25.2496,-2.39131m50.7648 34.8137c0,0 -33.4891,-7.70684 -56.6144,-26.0447m50.7663 15.9466c0,0 -24.4497,-4.78772 -47.308,-19.6656m38.539 9.03459c0,0 -24.4545,-5.31553 -37.2098,-12.4943m-275.885 -5.31553c0,0 2.39754,5.05446 0,7.44605m7.44577 -1.8635l8.76926 0.534048m5.58255 0.267307l9.30161 0.527811m18.3376 1.32945l4.25339 0.267024m3.98778 0l5.58255 -0.267024m21.7899 0.267024l8.24089 0m17.8098 -0.267024l6.37767 -0.528095m5.84816 -0.267024l7.17421 -0.267024m5.58255 0.267024l5.31553 -0.267024m13.0224 -1.32945l5.31525 -0.267024m4.52041 0l4.78148 0m4.2531 -0.267024l5.58255 -0.261071m8.50196 0l3.98636 -0.267024m13.5564 -0.267024l6.11688 0m19.3998 -0.265606l4.25339 -0.267024m-216.612 -6.90718c-0.0649134,0.796536 -0.13578,1.32917 -0.267024,2.12428m27.1128 -10.8981c-0.0708662,1.53156 -0.267024,2.39159 -0.267024,3.92145 0,0.665575 0,0.997512 0,1.6611m6.9103 -6.11037l0 4.24857m7.96933 -5.57774c0,2.39131 -0.262488,3.72047 -0.262488,6.11037m13.8175 -3.19096l-0.528095 2.12882m6.37767 0.529512c1.8635,1.8618 1.52986,4.05723 1.32917,6.6447m7.17733 -9.83112c0,1.32917 0.0666142,2.12428 0.262488,3.45345m2.92422 3.45827l-0.528095 5.30929m5.57632 -11.1589l0 6.91172m6.6447 -12.7613l0.403087 5.31553 0.131244 6.38363m16.4804 -2.65833c0,2.05937 0.0649134,3.25134 -0.267024,5.31525m2.92564 -15.1512c-0.20211,2.45622 -0.267024,3.92145 -0.267024,6.37767m5.84334 -11.9602c0.267024,4.12356 0.801355,6.51345 0.801355,10.6308m-0.534331 3.72076c-0.398268,1.19821 -0.794835,1.8618 -0.794835,3.12633 0,0.461481 0.267024,0.663874 0.267024,1.12706m4.51418 0c0,1.26284 0.0663307,1.92813 0.267024,3.19096m7.43981 -19.1373c1.06838,4.2531 1.79717,6.78048 1.06838,11.1634m18.8657 -6.37767c1.13329,2.85449 0.866268,4.65166 1.06696,7.70684m-3.45827 1.85726l0 4.25339m10.6308 -14.0831c0.534331,3.45203 1.32945,5.31553 1.32945,8.76756m11.6929 0.267024c0.331937,2.32668 0.930898,3.5246 1.06838,5.84986m77.3374 2.9194c1.59647,-0.131244 2.65862,-0.261071 4.25339,-0.528095m5.31553 0c2.52709,-0.13578 3.85654,-0.398268 6.37767,-0.534048"/>
 </g>
</svg>
