<?xml version="1.0" encoding="UTF-8"?>
<!DOCTYPE svg PUBLIC "-//W3C//DTD SVG 1.1//EN" "http://www.w3.org/Graphics/SVG/1.1/DTD/svg11.dtd">
<!-- Creator: CorelDRAW -->
<svg xmlns="http://www.w3.org/2000/svg" xml:space="preserve" width="500px" height="570px" shape-rendering="geometricPrecision" text-rendering="geometricPrecision" image-rendering="optimizeQuality" fill-rule="evenodd" clip-rule="evenodd"
viewBox="0 0 500 570"
 xmlns:xlink="http://www.w3.org/1999/xlink"
 xmlns:svg="http://www.w3.org/2000/svg"
 version="1.0">
 <g id="Layer_x0020_1">
  <metadata id="CorelCorpID_0Corel-Layer"/>
  <path id="path1937" fill="#0581ED" stroke="black" stroke-width="0.992126" d="M0.683717 1.11713l498.971 -0.116504 -0.933166 299.976c0.382961,357.646 -497.884,356.679 -497.414,0.482457l-0.623906 -300.342z"/>
  <polygon fill="black" points="389.357,36.6701 373.572,70.4946 342.453,64.1807 353.728,96.6521 330.277,117.849 363.65,128.673 365.003,162.948 391.612,141.3 419.122,158.889 419.122,126.418 453.849,116.045 429.044,94.3971 442.574,59.6707 406.494,70.0436 "/>
  <path fill="#8C0000" d="M317.807 179.594c30.7568,18.9218 65.5206,45.1035 104.536,26.0178 -17.0079,38.4112 -19.0168,75.572 -7.36952,111.596 -33.7819,9.66615 -30.1034,21.0266 -40.0059,26.3197l0 -4.21115c8.659,-65.4302 -15.1759,-113.694 -57.1601,-159.722z"/>
  <path fill="#F00000" d="M317.827 180.191c30.7568,18.9218 63.7093,45.1035 102.724,26.0178 -17.0079,38.4112 -19.0168,75.572 -7.36952,111.596 -33.7819,9.66615 -30.1034,21.0266 -40.0059,26.3197l0 -4.21115c8.24344,-65.4305 -13.7548,-113.694 -55.3488,-159.722z"/>
  <path fill="#CCCCCC" d="M54.2078 53.7361c5.95333,132.337 354.074,241.198 222.256,400.6 -57.0334,44.0652 -9.14741,55.8176 36.396,10.8408 31.9346,-31.93 51.3442,-73.9114 59.4647,-118.26 19.2926,-105.365 -57.098,-186.067 -140.552,-238.039 -66.2894,-41.2821 -137.732,-63.2211 -177.565,-55.1427z"/>
  <polygon fill="white" points="393.867,37.5721 378.082,71.3965 346.963,65.0826 358.238,97.5541 334.787,118.751 368.16,129.575 369.513,163.85 396.122,142.202 423.632,159.791 423.632,127.32 458.358,116.947 433.554,95.2991 447.084,60.5727 411.004,70.9455 "/>
  <polygon fill="#CCCCCC" points="391.612,38.0231 375.827,71.8475 344.708,65.5336 355.983,98.0051 332.532,119.202 365.905,130.026 367.258,164.301 393.867,142.653 421.377,160.242 421.377,127.771 456.104,117.398 431.299,95.7501 444.829,61.0237 408.749,71.3965 "/>
  <polygon fill="#E5E5E5" points="392.063,39.3761 394.318,93.9462 406.043,65.5336 "/>
  <polygon fill="#E5E5E5" points="400.18,101.162 443.927,62.8277 431.75,93.4952 "/>
  <polygon fill="#E5E5E5" points="397.024,107.476 422.73,126.869 455.653,116.947 "/>
  <polygon fill="#E5E5E5" points="420.024,159.34 393.867,112.437 394.318,141.751 "/>
  <polygon fill="#E5E5E5" points="392.965,105.221 367.709,162.948 365.905,131.379 "/>
  <polygon fill="#E5E5E5" points="389.808,103.868 355.532,98.0051 332.532,118.751 "/>
  <polygon fill="#E5E5E5" points="389.808,98.9071 375.827,71.8475 344.708,65.0826 "/>
  <polygon fill="black" points="119.161,269.994 103.377,303.819 72.2583,297.505 83.5331,329.976 60.0815,351.173 93.4549,361.997 94.8079,396.272 121.416,374.625 148.927,392.213 148.927,359.742 183.653,349.369 158.849,327.721 172.379,292.995 136.299,303.368 "/>
  <polygon fill="white" points="123.671,270.896 107.887,304.721 76.7682,298.407 88.043,330.878 64.5914,352.075 97.9648,362.899 99.3178,397.174 125.926,375.527 153.437,393.115 153.437,360.644 188.163,350.271 163.359,328.623 176.888,293.897 140.809,304.27 "/>
  <polygon fill="#CCCCCC" points="121.416,271.347 105.632,305.172 74.5132,298.858 85.788,331.329 62.3364,352.526 95.7099,363.35 97.0629,397.625 123.671,375.978 151.182,393.566 151.182,361.095 185.908,350.722 161.104,329.074 174.634,294.348 138.554,304.721 "/>
  <polygon fill="#E5E5E5" points="121.867,272.7 124.122,327.27 135.848,298.858 "/>
  <polygon fill="#E5E5E5" points="129.985,334.486 173.732,296.152 161.555,326.82 "/>
  <polygon fill="#E5E5E5" points="126.828,340.8 152.535,360.193 185.457,350.271 "/>
  <polygon fill="#E5E5E5" points="149.829,392.664 123.671,345.761 124.122,375.076 "/>
  <polygon fill="#E5E5E5" points="122.769,338.545 97.5138,396.272 95.7099,364.703 "/>
  <polygon fill="#E5E5E5" points="119.612,337.192 85.3371,331.329 62.3364,352.075 "/>
  <polygon fill="#E5E5E5" points="119.612,332.231 105.632,305.172 74.5132,298.407 "/>
  <path fill="white" stroke="white" stroke-width="0.992126" d="M103.451 146.028c6.31559,11.4287 33.0829,25.2635 80.3019,41.5043l-17.1431 -19.8499c-21.9552,-13.2333 -51.1285,-23.7597 -63.1588,-21.6544z"/>
  <path fill="#F00000" d="M104.735 146.67c6.31559,11.4287 33.0829,25.2635 80.3019,41.5043l-17.1431 -19.8499c-21.9552,-13.2333 -51.1285,-23.7597 -63.1588,-21.6544z"/>
  <path fill="#8C0000" d="M105.637 146.67c21.8979,8.96769 35.8308,14.1735 54.1361,23.459l5.41361 4.51134c-21.1348,-11.2479 -37.7739,-14.152 -59.5497,-27.9703z"/>
  <circle fill="#F00000" cx="96.6912" cy="77.7742" r="13.8039"/>
  <path fill="#8C0000" d="M92.4546 83.5232c-8.67005,-15.1495 14.2492,-17.0104 7.6286,-0.91389 1.59421,-1.3354 2.97326,-3.28054 2.97326,-5.57433 0,-4.02265 -3.13625,-7.28533 -7.00328,-7.28533 -3.86731,0 -7.31112,3.36501 -7.31112,7.38794 0,2.82841 1.44765,5.17862 3.71254,6.38561z"/>
  <path fill="white" d="M93.2239 71.648c-9.01928,15.1495 14.1823,16.4974 7.8823,0.811276 1.65827,1.3354 2.71928,3.38315 2.71928,5.67695 0,4.02265 -3.2624,7.28533 -7.28533,7.28533 -4.02293,0 -7.28533,-3.2624 -7.28533,-7.28533 0,-2.82841 1.61291,-5.28123 3.96907,-6.48822z"/>
  <path fill="#8C0000" d="M94.5893 91.4191c9.59103,-3.58271 14.5775,-6.80542 14.3921,-13.3356 -0.109417,-3.85314 -2.72098,-8.28256 -8.02404,-13.441 5.53522,1.79773 9.53802,6.99818 9.53802,13.1318 0,7.62265 -6.18151,13.8042 -13.8042,13.8042 -0.714331,0 -1.41647,-0.0547087 -2.10189,-0.159307z"/>
  <path fill="white" d="M96.6912 63.9703c-15.3853,-2.4001 -21.3472,19.2288 -8.65134,24.5599 -3.14192,-2.53049 -5.15254,-6.40914 -5.15254,-10.7561 0,-7.62208 6.18151,-13.8039 13.8039,-13.8039z"/>
  <path fill="white" stroke="white" stroke-width="0.992126" d="M187.225 222.245c5.77985,10.4593 30.2763,23.1205 73.4896,37.9834l-15.6886 -18.1658c-20.0928,-12.1107 -46.7912,-21.7443 -57.801,-19.8176z"/>
  <path fill="#F00000" d="M188.401 222.833c5.77985,10.4593 30.2763,23.1202 73.4896,37.9834l-15.6889 -18.1661c-20.0925,-12.1105 -46.791,-21.744 -57.8007,-19.8173z"/>
  <path fill="#8C0000" d="M189.226 222.833c20.0401,8.20687 32.7912,12.9711 49.5437,21.4688l4.95411 4.12866c-19.3419,-10.2937 -34.5694,-12.9512 -54.4978,-25.5974z"/>
  <path fill="#8C0000" d="M420.735 206.194c-19.8992,22.7849 -50.0465,27.9584 -66.2644,14.6259 21.6714,10.1237 43.7967,3.90529 66.2644,-14.6259z"/>
  <path fill="white" d="M397.155 224.402c-18.8436,4.9612 -35.4852,3.39251 -49.5491,-5.96977l2.38791 4.47733c18.2574,8.53172 33.679,8.08356 47.1612,1.49244z"/>
  <path fill="#8C0000" d="M364.321 245.594c18.3076,0.919843 31.4413,-0.224788 39.4005,-3.28337 -3.65613,5.14885 -24.1027,6.88989 -39.4005,3.28337z"/>
  <path fill="white" d="M394.767 245.893c-12.4373,1.79093 -23.8799,2.18891 -33.1322,0l1.19395 2.98488c12.5362,0.734741 23.3813,0.243213 31.9383,-2.98488z"/>
  <polygon fill="#8C0000" points="369.097,265.295 402.528,264.996 402.229,267.086 "/>
  <polygon fill="white" points="397.453,266.787 369.395,267.981 369.395,265.892 "/>
  <path fill="#8C0000" d="M372.38 282.308c10.1738,0.746363 20.6708,3.43304 31.6398,8.95465 -10.5463,-7.91065 -21.0926,-9.80108 -31.6398,-8.95465z"/>
  <path fill="white" d="M396.856 288.278c-7.21389,-3.40725 -15.3729,-4.55046 -24.1776,-4.77581l0.596977 2.6864c6.3618,-1.30139 14.8212,0.194173 23.5806,2.08942z"/>
  <path fill="#8C0000" d="M374.768 301.71c13.6996,0.123874 26.0887,4.45323 34.9231,14.9244l2.38791 -0.298488 0 -1.49244c-11.541,-11.2445 -24.177,-14.8258 -37.311,-14.9244l0 1.79093z"/>
  <path fill="white" d="M403.721 310.366c-7.76041,-5.67213 -17.71,-8.06004 -28.6549,-8.95465l0 2.6864c9.55163,-1.09474 19.1033,0.994678 28.6549,6.26826z"/>
  <path fill="#8C0000" d="M392.379 323.5c-4.47392,-3.48492 -10.3456,-6.26967 -16.4169,-8.95465 4.07877,0.546803 9.15308,2.33745 16.4169,6.86523l0 2.08942z"/>
  <polygon fill="white" points="375.664,314.844 375.365,318.127 384.618,318.127 "/>
  <path fill="white" d="M340.734 208.592l-22.7463 -28.7059c6.88989,6.56646 18.2438,18.9547 22.7463,28.7059z"/>
  <path fill="white" d="M356.262 237.237l-6.56674 -13.432c2.78589,4.17884 5.57178,8.35767 6.56674,13.432z"/>
  <path fill="white" d="M366.709 264.698l-5.0743 -15.8199c2.78589,4.17884 4.07934,10.7456 5.0743,15.8199z"/>
  <path fill="white" d="M360.441 246.49l-3.58186 -8.35767c2.78589,4.17884 2.5869,3.28337 3.58186,8.35767z"/>
  <path fill="white" d="M371.485 282.607l-3.28337 -15.2229c2.4874,4.47733 2.88539,9.25314 3.28337,15.2229z"/>
  <path fill="#8C0000" d="M248.189 273.859c48.5413,47.5095 68.5917,94.277 51.9251,138.567 -12.0756,-44.7557 -37.4343,-60.001 -66.1139,-71.5479 7.92511,-14.6421 24.1767,-24.3026 14.1888,-67.0196z"/>
  <path fill="#8C0000" d="M355.665 403.495c0.994961,6.06926 6.16876,10.0491 6.56674,18.8048 -7.7607,-0.795969 -14.3274,5.57178 -21.4912,8.35767 4.17884,-7.7607 10.4471,-17.9093 14.9244,-27.1624z"/>
  <path fill="white" d="M373.873 300.218l-2.08942 -15.2229c2.18891,4.47733 1.98992,9.55163 2.08942,15.2229z"/>
  <path fill="#F00000" d="M354.769 404.39c0.994961,6.06926 6.16876,10.0491 6.56674,18.8048 -7.7607,-0.795969 -14.3274,5.57178 -21.4912,8.35767 4.17884,-7.7607 10.4471,-17.9093 14.9244,-27.1624z"/>
  <path fill="white" d="M332.98 439.91l19.9987 -33.7292 -2.38791 7.46221 4.77581 4.47733 -7.16372 -0.895465c-4.17912,8.45774 -9.45241,15.8204 -15.2229,22.6851z"/>
  <path fill="#F00000" d="M249.396 275.067c48.5413,47.5095 68.5917,93.6732 51.9251,137.964 -12.0756,-44.7557 -37.4343,-60.001 -66.1139,-71.5479 7.92511,-14.6421 24.1767,-23.6988 14.1888,-66.4158z"/>
  <path fill="#8C0000" d="M241.245 337.86c13.9878,-11.3715 23.9502,-23.1452 29.8871,-35.3211 -4.41496,15.9812 -17.6224,29.302 -29.8871,35.3211z"/>
  <path fill="white" d="M272.34 300.123c-1.58485,7.69918 -7.67339,17.5609 -18.1134,29.2833 9.4595,-8.15074 15.5976,-17.4084 20.2266,-27.1701l-2.11323 -2.11323z"/>
  <path fill="#8C0000" d="M253.623 349.03c11.0696,-7.39588 21.636,-16.5535 31.0947,-29.5852 -5.13185,12.2769 -15.4967,22.1386 -31.0947,29.5852z"/>
  <path fill="white" d="M285.623 318.841c-2.10699,5.03093 -6.33572,10.0627 -10.868,15.0945 5.23276,-3.72331 8.95607,-7.74851 12.9813,-12.9813l-2.11323 -2.11323z"/>
  <path fill="#8C0000" d="M295.283 338.463c-4.01301,3.43446 -19.9381,17.7996 -25.0569,21.4342 9.15704,-4.72933 17.5093,-11.8741 25.0569,-21.4342z"/>
  <path fill="white" d="M296.793 337.256c-7.04438,8.45348 -13.3841,14.8938 -23.8493,22.6417 7.84914,-3.42142 16.1008,-10.4655 24.755,-21.1323l-0.90567 -1.50945z"/>
  <path fill="#8C0000" d="M302.831 357.482l-19.0191 14.4907c7.04381,-3.42085 13.5842,-7.848 19.0191,-14.4907z"/>
  <path fill="white" d="M303.736 356.275c-5.67581,7.10476 -13.5298,12.3327 -20.8304,17.8115 6.84284,-2.61638 15.0945,-9.35859 21.7361,-15.3964l-0.90567 -2.41512z"/>
  <path fill="#8C0000" d="M306.755 376.2c-5.68574,5.68602 -10.8181,8.60457 -15.6983,10.2643 5.58454,-3.97446 10.9185,-8.20092 15.6983,-12.9813l0 2.71701z"/>
  <path fill="#8C0000" d="M312.793 463.446c-8.16889,9.68911 -14.1826,20.5115 -21.0739,29.4772 -5.83257,7.58778 -9.22706,14.7217 -13.4334,20.4007 -11.8264,15.9656 -16.2811,29.3423 -22.248,29.2173 -14.5284,0.289417 -14.0533,-9.82999 -29.7885,-14.6463 -11.899,-3.64195 -19.5653,-1.68718 -34.0282,-5.0658 -25.5745,-5.97487 -52.109,-21.437 -52.109,-32.5148 16.9812,-4.71685 19.8167,-0.401386 57.7537,-9.54341 26.7242,-6.44003 37.9423,-7.08066 54.2325,-13.3183 9.77386,-3.74258 17.4257,-11.8556 23.8643,-14.8745 -4.72933,7.14473 -11.8741,14.6917 -21.4342,22.6417l5.43402 -0.90567 -0.90567 6.33969 -1.20756 2.71701 3.32079 -0.30189 2.41512 3.62268 -0.90567 3.62268 5.73591 -4.83024 11.7737 -1.81134 -0.90567 2.71701 9.35859 -9.35859c7.74851,-1.50945 15.1951,-9.35859 24.1512,-13.585z"/>
  <polygon fill="white" points="301.925,381.03 307.359,376.2 307.057,379.219 "/>
  <path fill="#F00000" d="M313.699 464.653c-8.16889,9.68911 -14.1826,20.5115 -21.0739,29.4772 -5.83257,7.58778 -8.92517,13.5142 -13.1315,19.1931 -11.8264,15.9656 -20.2056,28.1347 -23.7575,28.3116 -11.2076,0.591307 -11.9395,-8.62215 -27.6752,-13.4388 -11.8993,-3.64252 -20.7729,-1.98907 -35.2358,-5.36769 -25.5745,-5.97487 -51.8071,-20.2295 -51.8071,-31.3073 16.9812,-4.71685 19.8167,-0.401386 57.7537,-9.54341 26.7242,-6.44003 37.9423,-7.08066 54.2325,-13.3183 9.77386,-3.74258 17.4257,-11.8556 23.8643,-14.8745 -4.72933,7.14473 -11.8741,14.6917 -21.4342,22.6417l5.43402 -0.90567 -0.90567 6.33969 -1.20756 2.71701 3.32079 -0.30189 2.41512 3.62268 -0.90567 3.62268 5.73591 -4.83024 11.7737 -1.81134 -0.90567 2.71701 9.35859 -9.35859c7.74851,-1.50945 15.1951,-9.35859 24.1512,-13.585z"/>
  <path fill="#8C0000" d="M257.245 474.616c-31.0442,17.4478 -68.2773,22.0008 -108.982,19.321 34.045,5.49638 80.7906,1.47685 108.982,-19.321z"/>
  <polygon fill="white" points="259.962,475.823 243.66,482.767 256.34,475.823 "/>
  <path fill="#8C0000" d="M258.755 484.276c-22.7546,16.5793 -46.1764,25.8075 -69.7366,33.5098 28.2903,-11.469 55.0789,-23.2382 71.246,-37.1325l-1.50945 3.62268z"/>
  <path fill="white" d="M260.566 484.88c-22.7546,16.5793 -52.2142,27.6188 -76.0763,35.0192 27.6866,-9.65764 58.0978,-21.7287 74.2649,-35.623l1.81134 0.60378z"/>
  <path fill="#8C0000" d="M263.585 485.484c-9.15733,14.0882 -28.277,30.8934 -32.906,42.2646l2.11323 -0.30189c8.95607,-13.9876 20.931,-26.1638 31.3966,-39.2457l-0.60378 -2.71701z"/>
  <path fill="white" d="M233.094 528.05c9.78634,-14.7671 20.503,-24.9809 31.3966,-36.8306l-0.30189 -3.32079c-9.45922,13.3838 -24.9562,27.3714 -31.0947,40.1514z"/>
  <path fill="#8C0000" d="M280.793 485.786c-8.95607,18.5159 -21.5348,31.5978 -26.8682,56.4534 3.816,-22.6865 9.34725,-27.3132 25.3588,-57.3591l1.50945 0.90567z"/>
  <path fill="white" d="M282.302 485.786c-8.95607,18.5159 -21.8367,30.994 -27.1701,55.8496 3.816,-22.6865 9.95103,-26.4076 25.9625,-56.4534l1.20756 0.60378z"/>
  <path fill="#E5E5E5" d="M108.414 68.5738c44.5105,37.1648 37.3777,62.5357 -19.6228,47.0948 59.3456,17.6094 80.2993,-14.0856 19.6228,-47.0948z"/>
  <path fill="#E5E5E5" d="M84.8662 67.97c-14.963,1.33257 -24.0063,-5.09556 -22.6417,-14.7957 -3.96936,11.2351 20.1107,15.6288 22.6417,14.7957z"/>
  <path fill="#E5E5E5" d="M78.5265 73.7059c-6.0806,4.59666 -12.2307,3.96851 -15.9973,2.2731 -6.27789,-2.82558 -6.27676,-6.21185 -7.8738,-18.373 2.90013,6.00378 3.46507,13.2202 7.61868,16.3296 5.34048,3.99827 12.3829,3.21506 16.2524,-0.229606z"/>
  <path fill="#E5E5E5" d="M139.81 64.9511c41.2529,63.7195 9.64205,79.3537 -41.057,70.6422 53.5493,9.83849 99.1826,-9.45213 41.057,-70.6422z"/>
  <path fill="#E5E5E5" d="M152.791 87.291c23.5293,-1.78073 37.1268,5.07487 48.0005,19.6228 17.2074,1.10665 30.7925,8.65389 40.7551,22.6417 -6.49077,-13.3336 -18.8685,-22.0887 -39.8495,-24.1512 -18.1653,-20.9398 -33.9639,-22.9502 -48.9062,-18.1134z"/>
  <path fill="#E5E5E5" d="M202.905 130.763c-6.33232,-15.8173 -23.5786,-24.8621 -44.9816,-25.9625 22.4402,-2.0126 38.0378,7.24536 44.9816,25.9625z"/>
  <path fill="#E5E5E5" d="M162.452 124.122c7.07641,0.837071 10.1075,-2.37062 14.7926,-3.62268l6.64158 -10.868 -4.22646 10.868c33.8746,1.65373 48.572,7.48602 48.6043,23.2455 -2.98743,-20.8803 -35.231,-24.7059 -65.812,-19.6228z"/>
  <path fill="#E5E5E5" d="M218.905 161.254c13.7682,4.76079 26.4594,4.47137 41.057,8.75481 -5.33339,-8.65418 -10.3649,-15.497 -16.9058,-23.2455 -18.3929,-0.983623 -25.9495,-3.87553 -35.5156,-5.94057 -10.7198,-2.31421 -17.8815,-1.59902 -22.7092,-3.9206 -2.57159,-1.23676 3.42,-3.39647 18.6772,-6.44089 -16.8679,-1.35865 -25.1459,4.31688 -21.7732,7.24592 3.30917,2.87433 12.2479,2.32526 22.9337,4.05298 10.6914,1.72885 21.6065,5.87254 36.5757,6.5126l14.7926 18.1134c-17.4816,-3.41235 -27.1724,-4.22731 -37.1325,-5.13213z"/>
  <path fill="#E5E5E5" d="M278.378 189.934c-19.4907,-0.697323 -33.7757,-2.60476 -35.189,-10.3022 -0.983906,-5.3589 6.61011,-4.51559 20.6983,-5.39603 -16.2451,-1.60668 -23.1287,-1.56671 -22.5363,5.65172 0.455811,5.55336 11.2158,9.84841 37.027,10.0466z"/>
  <path fill="#E5E5E5" d="M305.695 215.741c-25.075,0.236126 -37.4797,-6.91059 -38.6836,-13.2123 -1.35865,-7.11355 6.29122,-7.2584 22.5363,-5.65172 -14.0882,0.880441 -20.9154,-0.933449 -20.3964,4.49036 0.664725,6.94885 15.2643,10.6798 36.6985,11.2079l11.1699 11.4718 -0.456662 1.65628 -10.868 -9.96237z"/>
  <path fill="#E5E5E5" d="M290.755 230.387c16.988,6.97493 46.3842,10.7104 38.6419,19.321 -9.65112,-0.657355 -19.6787,0.380693 -18.3872,3.16035 5.12192,11.0217 33.1895,12.9878 38.9157,33.6702l-17.8115 -8.15103 14.7926 4.52835c-4.88155,-14.4867 -32.3569,-18.464 -37.8411,-27.94 -3.35509,-5.79714 2.71673,-8.39197 19.1239,-7.38114 -1.27928,-6.33997 -22.6644,-11.4721 -37.4343,-17.2077z"/>
  <path fill="#E5E5E5" d="M355.058 310.086c-7.96876,-12.3715 -18.724,-20.359 -28.0758,-22.038 9.3583,-0.95556 18.7169,5.28265 28.0758,22.038z"/>
  <path fill="#E5E5E5" d="M345.095 396.728c-6.19937,-6.34026 -11.2805,-8.40501 -9.24492,-15.5101 0.829701,-2.89616 3.95093,-7.03191 11.0563,-5.32035 -7.1949,-12.0251 -9.36029,-21.6595 -6.33969,-26.7928 4.31433,-7.33181 9.30841,2.28954 19.321,14.1134 9.22706,-17.9436 -13.0612,-30.2692 -18.7172,-35.9249 -19.5222,-16.9058 4.72961,-30.4909 18.4153,-3.62268 -16.4027,-25.3588 -35.5224,-12.9813 -15.0945,4.52835 4.42772,4.42772 25.1575,14.5913 16.0002,38.0381 -10.0125,-11.8239 -14.705,-22.9547 -19.0191,-15.6229 -3.0206,5.13298 0.352347,14.7677 7.54725,26.7928 -7.10533,-1.71156 -10.8303,1.51852 -11.66,4.41468 -2.03556,7.10504 1.5361,8.56602 7.73547,14.9063z"/>
  <path fill="#E5E5E5" d="M332.718 413.332c-2.51603,-11.8743 -2.61638,-21.3336 -0.30189,-28.3777 -3.06992,5.93603 -3.87525,14.3884 0.30189,28.3777z"/>
  <path fill="#E5E5E5" d="M162.15 126.537c181.747,110.195 238.94,227.444 102.039,360.457 116.782,-120.598 101.085,-233.68 -107.473,-360.457l5.43402 0z"/>
 </g>
</svg>
