<?xml version="1.0" encoding="UTF-8" standalone="no"?>
<!-- Creator: CorelDRAW -->
<svg
   xmlns:dc="http://purl.org/dc/elements/1.1/"
   xmlns:cc="http://creativecommons.org/ns#"
   xmlns:rdf="http://www.w3.org/1999/02/22-rdf-syntax-ns#"
   xmlns:svg="http://www.w3.org/2000/svg"
   xmlns="http://www.w3.org/2000/svg"
   xmlns:sodipodi="http://sodipodi.sourceforge.net/DTD/sodipodi-0.dtd"
   xmlns:inkscape="http://www.inkscape.org/namespaces/inkscape"
   xml:space="preserve"
   width="500px"
   height="576px"
   shape-rendering="geometricPrecision"
   text-rendering="geometricPrecision"
   image-rendering="optimizeQuality"
   fill-rule="evenodd"
   clip-rule="evenodd"
   viewBox="0 0 500 576"
   version="1.0"
   id="svg2"
   sodipodi:version="0.32"
   inkscape:version="0.46"
   sodipodi:docname="Siilinjärvi.vaakuna.svg"
   inkscape:output_extension="org.inkscape.output.svg.inkscape"><metadata
   id="metadata32"><rdf:RDF><cc:Work
       rdf:about=""><dc:format>image/svg+xml</dc:format><dc:type
         rdf:resource="http://purl.org/dc/dcmitype/StillImage" /></cc:Work></rdf:RDF></metadata><defs
   id="defs30"><inkscape:perspective
     sodipodi:type="inkscape:persp3d"
     inkscape:vp_x="0 : 288 : 1"
     inkscape:vp_y="0 : 1000 : 0"
     inkscape:vp_z="500 : 288 : 1"
     inkscape:persp3d-origin="250 : 192 : 1"
     id="perspective34" /></defs><sodipodi:namedview
   inkscape:window-height="671"
   inkscape:window-width="640"
   inkscape:pageshadow="2"
   inkscape:pageopacity="0.0"
   guidetolerance="10.0"
   gridtolerance="10.0"
   objecttolerance="10.0"
   borderopacity="1.0"
   bordercolor="#666666"
   pagecolor="#ffffff"
   id="base"
   showgrid="false"
   inkscape:zoom="0.40104167"
   inkscape:cx="200.89143"
   inkscape:cy="254.51983"
   inkscape:window-x="69"
   inkscape:window-y="63"
   inkscape:current-layer="svg2" />
 <g
   id="Layer_x0020_1">
  <metadata
   id="CorelCorpID_0Corel-Layer" />
  <path
   id="path1937"
   fill="black"
   stroke="black"
   stroke-width="1.98425"
   d="M0.823182 0.849827l498.224 0.558709 0.0660473 369.298c-23.1228,108.711 -106.081,199.595 -245.756,203.381 -127.632,-3.79418 -219.511,-87.7357 -252.483,-205.041l-0.0504567 -368.197z" />
  <path
   fill="#FFFFCC"
   d="M249.709 307.787c62.4022,54.7577 78.2127,79.7244 82.1084,126.807 0.101764,40.407 -30.1677,67.0641 -44.0337,67.2872 -14.9695,0.563528 -28.7839,-25.5855 -24.6801,-47.2967 18.3396,8.49402 28.4718,-4.93059 28.8179,-16.907 0.326268,-13.337 -12.9274,-25.0622 -29.9407,-16.5759 10.7184,-14.72 3.97503,-33.8026 -13.1511,-35.2755 -17.3639,0.0493229 -26.2296,19.9834 -14.7362,36.6735 -18.7682,-9.42378 -29.8973,0.544252 -30.9881,14.8071 -0.405355,16.7976 18.5661,22.2253 31.9487,16.018 0.707244,20.7655 -2.8868,49.7574 -26.144,49.5525 -18.8827,-0.696473 -42.9083,-40.7021 -41.3807,-75.5076 2.1223,-31.4331 19.7572,-71.0037 82.1795,-119.583z"
   id="path7" />
  <path
   d="M251.181 312.451c62.4022,54.7577 78.2127,79.7244 82.1084,126.807 0.101764,40.407 -30.1677,67.0641 -44.0337,67.2872 -14.9695,0.563528 -28.7839,-25.5855 -24.6801,-47.2967 18.3396,8.49402 28.4718,-4.93059 28.8179,-16.907 0.326268,-13.337 -12.9274,-25.0622 -29.9407,-16.5759 10.7184,-14.72 3.97503,-33.8026 -13.1511,-35.2755 -17.3639,0.0493229 -26.2296,19.9834 -14.7362,36.6735 -18.7682,-9.42378 -29.8973,0.544252 -30.9881,14.8071 -0.405355,16.7976 18.5661,22.2253 31.9487,16.018 0.707244,20.7655 -2.8868,49.7574 -26.144,49.5525 -18.8827,-0.696473 -42.9083,-40.7021 -41.3807,-75.5076 2.1223,-31.4331 19.7572,-71.0037 82.1795,-119.583z"
   id="path9"
   style="fill:#bf9f4f;fill-opacity:1"
   stroke-width="2.83465"
   stroke="#CC9933"
   fill="#CC9933" />
  <path
   fill="#FFFFCC"
   d="M388.459 41.5704c-99.0227,2.33802 -187.069,118.547 -248.419,206.699l48.8523 36.6265 20.8732 6.48936c30.8497,-93.6307 203.489,-273.04 227.724,-168.835 4.86652,-9.28092 13.8688,-4.16608 16.4673,-24.2133 4.64315,-31.881 -33.4982,-56.5382 -65.4982,-56.7666z"
   id="path11" />
  <path
   fill="#FFFFCC"
   d="M102.121 35.1887c74.558,1.0817 177.054,95.9863 246.081,196.561l-45.0482 50.9173 -18.2908 3.40101c-26.5921,-91.5018 -197.032,-272.202 -237.13,-168.66 -6.43692,-8.33868 -10.0474,-13.4144 -10.5171,-22.8175 0.0507402,-41.8445 39.2916,-60.2374 64.9052,-59.4014z"
   id="path13" />
  <path
   fill="#CC9933"
   stroke="#CC9933"
   stroke-width="0.216"
   d="M392.85 43.5073c-95.8295,1.27361 -190.227,122.526 -251.577,210.677 15.6385,17.9671 20.9296,32.4442 50.1086,36.6789l25.5844 0.521859c30.8497,-93.6307 194.973,-266.653 219.209,-162.449 4.86652,-9.28092 23.4485,-11.617 23.9182,-28.4709 -1.74331,-32.9454 -42.694,-55.6657 -67.2432,-56.9585z"
   id="path15"
   style="fill:#bf9f4f;fill-opacity:1" />
  <path
   fill="black"
   stroke="black"
   stroke-width="0.216"
   d="M110.863 51.7652c74.5413,0.209197 184.888,112.231 246.238,200.382l-42.6405 45.5953 -34.0997 -1.29288c-26.5921,-91.5018 -193.909,-253.88 -227.724,-162.449 -4.86652,-9.28092 -7.48233,-21.1966 -7.95204,-29.5353 0.678898,-30.8166 41.6296,-51.408 66.1788,-52.7009z"
   id="path17" />
  <path
   fill="#FFFFCC"
   d="M172.594 284.755c2.53247,-12.9736 -30.1068,-37.8063 -39.2471,-41.0499 -2.52397,-0.895748 -7.92596,1.37906 -8.78967,1.94684 -113.296,156.463 -73.878,167.635 -70.2839,175.012 22.841,34.619 63.8629,3.69921 72.2381,-10.1203 7.74737,-12.4586 -35.4731,-20.0486 46.0826,-125.788z"
   id="path19" />
  <path
   fill="#CC9933"
   stroke="#CC9933"
   stroke-width="0.216"
   d="M107.408 38.1852c74.5413,0.209197 188.273,116.68 249.623,204.832 -11.7301,15.5531 -19.499,35.7477 -52.4121,42.2102l-21.3268 4.02917c-26.5921,-91.5018 -200.295,-263.844 -234.111,-168.154 -4.86652,-9.28092 -9.61115,-16.5552 -10.0809,-24.8939 2.71786,-37.2935 38.8772,-59.482 68.3076,-58.023z"
   id="path21"
   style="fill:#bf9f4f;fill-opacity:1" />
  <path
   fill="#FFFFCC"
   stroke="#FFFFCC"
   stroke-width="0.216"
   d="M327.409 282.685c-5.93122,-5.16331 27.7648,-46.8236 46.6756,-43.3429 9.66586,2.7017 112.531,170.539 48.9963,198.498 -14.029,8.79421 -54.1092,-2.56507 -56.0979,-18.5134 2.75698,-11.3941 38.5781,-35.1085 -39.5739,-136.642z"
   id="path23" />
  <path
   fill="#CC9933"
   stroke="#CC9933"
   stroke-width="0.216"
   d="M329.462 279.52c-0.549638,-3.87355 3.86759,-8.00306 5.73534,-9.87619 13.0793,-13.1165 22.2177,-22.2123 42.3187,-29.3837 112.231,163.112 57.9997,197.451 52.7653,199.754 -17.9391,14.4848 -44.534,4.89402 -57.1624,-13.1913 -9.00369,-14.029 32.5593,-40.307 -43.657,-147.303z"
   id="path25"
   style="fill:#bf9f4f;fill-opacity:1" />
  <path
   fill="#CC9933"
   stroke="#CC9933"
   stroke-width="0.216"
   d="M175.054 287.669c2.05257,-10.5154 -35.928,-36.3943 -43.7837,-39.1828 -2.5251,-0.896315 -6.09392,2.12939 -6.95764,2.69717 -112.231,163.112 -69.6206,161.332 -61.5595,180.281 18.2659,24.9653 64.2178,-5.05899 68.347,-15.8786 7.74737,-24.1671 -34.4086,-20.0486 43.9538,-127.917z"
   id="path27"
   style="fill:#bf9f4f;fill-opacity:1" />
 </g>
</svg>