<?xml version="1.0" encoding="UTF-8" standalone="no"?>
<!-- Creator: CorelDRAW -->
<svg
   xmlns:dc="http://purl.org/dc/elements/1.1/"
   xmlns:cc="http://creativecommons.org/ns#"
   xmlns:rdf="http://www.w3.org/1999/02/22-rdf-syntax-ns#"
   xmlns:svg="http://www.w3.org/2000/svg"
   xmlns="http://www.w3.org/2000/svg"
   xmlns:sodipodi="http://sodipodi.sourceforge.net/DTD/sodipodi-0.dtd"
   xmlns:inkscape="http://www.inkscape.org/namespaces/inkscape"
   xml:space="preserve"
   width="500px"
   height="571px"
   shape-rendering="geometricPrecision"
   text-rendering="geometricPrecision"
   image-rendering="optimizeQuality"
   fill-rule="evenodd"
   clip-rule="evenodd"
   viewBox="0 0 500 571"
   version="1.0"
   id="svg2"
   sodipodi:version="0.32"
   inkscape:version="0.46"
   sodipodi:docname="Simo.vaakuna.svg"
   inkscape:output_extension="org.inkscape.output.svg.inkscape"><metadata
   id="metadata224"><rdf:RDF><cc:Work
       rdf:about=""><dc:format>image/svg+xml</dc:format><dc:type
         rdf:resource="http://purl.org/dc/dcmitype/StillImage" /></cc:Work></rdf:RDF></metadata><defs
   id="defs222"><inkscape:perspective
     sodipodi:type="inkscape:persp3d"
     inkscape:vp_x="0 : 285.5 : 1"
     inkscape:vp_y="0 : 1000 : 0"
     inkscape:vp_z="500 : 285.5 : 1"
     inkscape:persp3d-origin="250 : 190.33333 : 1"
     id="perspective226" /></defs><sodipodi:namedview
   inkscape:window-height="669"
   inkscape:window-width="640"
   inkscape:pageshadow="2"
   inkscape:pageopacity="0.0"
   guidetolerance="10.0"
   gridtolerance="10.0"
   objecttolerance="10.0"
   borderopacity="1.0"
   bordercolor="#666666"
   pagecolor="#ffffff"
   id="base"
   showgrid="false"
   inkscape:zoom="0.40455342"
   inkscape:cx="75.412719"
   inkscape:cy="450.68147"
   inkscape:window-x="92"
   inkscape:window-y="63"
   inkscape:current-layer="svg2" />
 <g
   id="Layer_x0020_1">
  <metadata
   id="CorelCorpID_0Corel-Layer" />
  <path
   id="path3268"
   fill="#008ACF"
   d="M-0.488126 0.842741l499.019 0 0 344.324c0,124.755 -124.755,224.559 -249.51,224.559 -124.755,0 -249.51,-99.8042 -249.51,-224.559l0 -344.324z"
   style="fill:#0066ff" />
  <path
   id="path1953"
   fill="#B2B2B2"
   stroke="black"
   stroke-width="0.216"
   d="M297.295 224.348l0.297071 92.7491c26.913,0.380693 46.1282,-13.8124 69.2635,-8.00079 11.757,1.70561 105.579,48.2811 118.342,38.9214 4.02066,-7.46703 0.431433,-11.9619 -1.79065,-27.3492 -3.39591,-28.207 -4.67547,-31.5947 -3.93959,-50.3141 0.206362,-11.7048 -0.390614,-37.7246 3.41943,-55.2447 4.12838,-14.6101 7.74057,-22.8362 3.57619,-27.0814 -31.138,-5.51537 -112.605,46.4029 -114.328,46.4029 -14.7234,5.06863 -57.5986,-6.06189 -74.8398,-10.0831z" />
  <path
   fill="black"
   fill-opacity="0.749020"
   d="M396.235 275.58l78.1617 4.19981m-78.1617 -4.19981l0 0 0 0z"
   id="path8" />
  <path
   id="path5266"
   fill="none"
   stroke="black"
   stroke-width="0.937418"
   d="M403.703 270.41l74.7148 0.178016m-82.1829 -2.47606l0 0 0 0z" />
  <path
   fill="black"
   fill-opacity="0.749020"
   d="M399.153 245.404c29.5716,-11.7221 50.5007,-19.6934 81.3308,-26.1405m-90.1367 29.2037l0 0 0 0z"
   id="path11" />
  <path
   id="path5268"
   fill="none"
   stroke="black"
   stroke-width="0.937418"
   d="M400.688 246.169c28.8176,-11.7218 49.7517,-20.4585 79.7956,-26.9056m-87.8386 29.2037l0 0 0 0z" />
  <path
   fill="black"
   fill-opacity="0.749020"
   d="M398.39 293.234c26.4351,7.94382 53.0816,15.1467 80.6622,19.0811m-80.6622 -19.0811l0 0 0 0z"
   id="path14" />
  <path
   id="path5270"
   fill="none"
   stroke="black"
   stroke-width="0.937418"
   d="M398.39 293.234c26.4351,7.94382 57.1023,15.7215 84.6828,19.656m-84.6828 -19.656l0 0 0 0z" />
  <path
   fill="black"
   fill-opacity="0.749020"
   d="M388.049 239.592c30.7264,-14.8096 62.7886,-27.0836 96.7292,-35.7891m-96.7292 35.7891l0 0 0 0z"
   id="path17" />
  <path
   id="path5272"
   fill="none"
   stroke="black"
   stroke-width="0.937418"
   d="M395.517 237.294c30.7264,-14.8096 55.3201,-24.7856 89.2608,-33.4911" />
  <path
   fill="black"
   fill-opacity="0.749020"
   d="M375.693 257.343l100.782 -21.4742m-100.782 21.4742l0 0 0 0z"
   id="path20" />
  <path
   id="path5274"
   fill="none"
   stroke="black"
   stroke-width="0.937418"
   d="M404.417 256.961c25.7417,-6.00832 48.6116,-9.14486 74.9294,-12.8563m-103.654 13.2389l0 0 0 0z" />
  <path
   fill="black"
   fill-opacity="0.749020"
   d="M377.411 264.787l97.0597 -9.4476m-97.0597 9.4476l0 0 0 0z"
   id="path23" />
  <path
   fill="black"
   fill-opacity="0.749020"
   d="M394.369 280.714l80.9618 12.1323m-80.9618 -12.1323l0 0 0 0z"
   id="path25" />
  <path
   id="path5278"
   fill="none"
   stroke="black"
   stroke-width="0.937418"
   d="M402.986 281.288l76.7495 8.68451m-76.7495 -8.68451l0 0 0 0z" />
  <path
   fill="black"
   fill-opacity="0.749020"
   d="M393.794 306.005c30.0419,11.5668 60.0837,22.0238 90.1256,28.3567m-90.1256 -28.3567l0 0 0 0z"
   id="path28" />
  <path
   id="path5280"
   fill="none"
   stroke="black"
   stroke-width="0.937418"
   d="M393.794 306.005c30.0419,11.5668 60.0837,22.0238 90.1256,28.3567m-90.1256 -28.3567l0 0 0 0z" />
  <path
   id="path1953_0"
   fill="#7F7F7F"
   d="M297.869 287.542l-0.277228 29.5549c26.913,0.380693 46.1282,-13.8124 69.2635,-8.00079 2.66343,0.386362 9.53972,3.07673 18.7311,6.89698 10.1217,-18.5539 17.9504,-22.3886 18.1451,-48.816 -30.2343,16.5586 -85.1743,22.0881 -105.862,20.365z" />
  <path
   id="path1953_1"
   fill="#E5E5E5"
   d="M297.295 224.348l0.296504 13.4691c35.5227,-1.81758 22.0989,6.91711 43.9671,10.4865 18.9099,-12.4007 28.6302,5.33254 35.5822,-6.9772 18.9179,0.877323 24.2722,23.7586 26.4943,23.2829 -4.39087,-16.2995 -3.33071,-18.2744 -15.6855,-38.543 -9.27241,5.2767 -15.3576,8.36476 -15.8148,8.36476 -14.7234,5.06863 -57.5986,-6.06189 -74.8398,-10.0831z" />
  <path
   id="path1953_2"
   fill="#E5E5E5"
   d="M480.066 187.64c-16.1527,0.540567 -40.3827,10.7677 -61.7979,21.5212 3.27543,8.08016 28.3975,-8.6264 38.4024,-10.5834 14.8652,-8.20262 26.1868,-0.703843 23.3955,-10.9378z" />
  <path
   id="path1953_3"
   fill="black"
   d="M298.444 310.522l-0.852095 6.57496c26.913,0.380693 46.1282,-13.8124 69.2635,-8.00079 11.757,1.70561 105.579,48.856 118.342,39.4963 -12.325,-0.127276 -30.8013,-7.61273 -108.069,-42.3635 -48.998,-11.5444 -50.9261,11.7819 -78.6844,4.29307z" />
  <path
   id="path5098"
   fill="#CCCCCC"
   d="M354.651 263.944c2.60192,0.682583 3.73011,-3.0892 0.733607,-3.46621 -1.69597,-1.70929 -4.66243,-0.918993 -4.25452,1.6611 0.133795,1.21238 2.47266,2.37147 3.52092,1.8051z" />
  <path
   id="path5100"
   fill="#CCCCCC"
   d="M339.8 262.304c1.47855,0.101764 4.72819,1.58684 5.30788,0.0595276 -1.6098,-1.22854 -3.98636,-1.84649 -3.35084,-4.2086 -2.0177,-1.49159 -6.2589,-0.97852 -5.89238,2.2354 0.0291969,2.61865 2.46784,3.98892 3.93534,1.91367z" />
  <path
   id="path5102"
   fill="#CCCCCC"
   d="M349.841 258.293c2.45736,-0.210614 3.91153,-2.65351 0.718867,-3.22384 -2.14838,-0.377292 -3.63912,-1.83232 -4.7914,-3.09373 -1.72006,-0.886961 -5.29824,-0.599528 -3.28621,2.03017 0.992693,2.17814 3.18501,3.62069 5.56725,3.70233 0.587622,0.23726 1.08028,0.909071 1.7915,0.585071z" />
  <path
   id="path5104"
   fill="#CCCCCC"
   d="M325.238 250.001c1.47118,0.621071 6.91257,0.0394016 3.47755,-1.79745 -1.27531,-0.390898 -3.98211,-0.528378 -1.33512,-1.69852 -0.672945,-1.63162 -5.41985,-3.54189 -5.84986,-0.648851 -0.68967,2.4154 2.03046,4.96092 3.96595,4.50482m-0.25852 -0.36l0 0 0 0z" />
  <path
   id="path5106"
   fill="#CCCCCC"
   d="M318.74 259.623c3.47414,-0.554457 -3.05773,-1.56898 -2.3417,-3.15014 1.52362,-2.94123 -2.10898,-4.3441 -4.40759,-3.46195 -3.06539,1.11912 -2.88567,5.27726 -3.33241,7.92312 2.30088,1.40117 5.09358,0.0257953 7.53676,-0.227339 0.797103,-0.397701 1.56614,-1.23477 2.54495,-1.08369z" />
  <path
   id="path5110"
   fill="#CCCCCC"
   d="M331.164 263.617c1.95959,-1.11713 4.09125,-3.5521 2.59455,-5.85638 -1.20558,-1.70277 -4.09663,-3.87269 -5.93235,-1.9525 -0.705544,2.46416 -2.29776,6.82753 0.868819,8.10256 0.809575,0.266457 1.77307,0.261921 2.46898,-0.293669z" />
  <path
   id="path5112"
   fill="#CCCCCC"
   d="M308.543 249.465c1.53581,-1.14123 6.9103,-0.946772 4.44643,-4.04958 -2.25411,-0.75515 -4.17827,-1.81474 -4.86936,-4.11647 -1.54885,-0.728221 -6.32523,-2.99679 -5.44139,0.512221 0.189071,3.3857 2.76803,5.23729 5.15877,7.06337l0.228756 0.240662 0.476788 0.349795 0 0z" />
  <path
   id="path5200"
   fill="#4D4D4B"
   d="M391.326 289.71c2.19402,0.750331 6.26655,-2.08176 2.16879,-2.66428 -1.51002,-0.674363 -4.5292,-0.265606 -2.68895,1.83005 0.0456378,0.166961 0.957544,0.872788 0.520158,0.834237z" />
  <path
   id="path5202"
   fill="#4D4D4B"
   d="M371.77 296.613c2.19373,0.750048 6.26684,-2.08205 2.16851,-2.66457 -1.50973,-0.674363 -4.5292,-0.265606 -2.68895,1.82976 0.0456378,0.167244 0.957544,0.873071 0.520441,0.834804z" />
  <path
   id="path5204"
   fill="#4D4D4B"
   d="M377.072 285.63c2.19373,0.750048 6.26655,-2.08205 2.16851,-2.66457 -1.51002,-0.674363 -4.5292,-0.265606 -2.68866,1.82976 0.0456378,0.167528 0.95726,0.873071 0.520158,0.834804z" />
  <path
   id="path5128"
   fill="#4D4D4B"
   d="M385.097 303.819c2.1943,0.749764 6.26684,-2.08233 2.16851,-2.66457 -1.50945,-0.674646 -4.5292,-0.265606 -2.68838,1.82976 0.0456378,0.167528 0.95726,0.872788 0.519874,0.834804z" />
  <path
   id="path5194"
   fill="#4D4D4B"
   d="M364.801 300.58c2.68441,0.176882 3.07673,-3.74032 0.0632126,-3.54218 -1.98936,-1.35666 -4.75229,-0.0181417 -3.86221,2.4378 0.361134,1.16476 2.87717,1.85953 3.79899,1.10438z" />
  <path
   id="path5196"
   fill="#4D4D4B"
   d="M335.867 297.052c2.68441,0.176882 3.07673,-3.7406 0.0626457,-3.54274 -1.98907,-1.3561 -4.75172,-0.0178583 -3.86192,2.4378 0.361418,1.16532 2.87745,1.8601 3.79928,1.10495z" />
  <path
   id="path5140"
   fill="#4D4D4B"
   d="M361.468 291.222c1.47033,-0.180567 4.94306,0.661607 5.22255,-0.947623 -1.81361,-0.901134 -4.26416,-1.05732 -4.08784,-3.4971 -2.26403,-1.08198 -6.33118,0.226488 -5.36173,3.31229 0.524977,2.56564 3.17962,3.44892 4.22703,1.13244z" />
  <path
   id="path5146"
   fill="#4D4D4B"
   d="M388.093 292.782c3.30605,-1.20331 -3.29981,-0.960662 -2.89644,-2.64898 0.937985,-3.17707 -2.89474,-3.86532 -4.98444,-2.56309 -2.79723,1.6801 -1.8326,5.72854 -1.7691,8.41096 2.52482,0.939686 5.00542,-0.940536 7.35676,-1.65232 0.707244,-0.541985 1.30309,-1.50945 2.29323,-1.54658z" />
  <path
   id="path5148"
   fill="#4D4D4B"
   d="M302.353 307.053c2.1943,0.750048 6.26684,-2.08205 2.16851,-2.66457 -1.50945,-0.674363 -4.5292,-0.265606 -2.68838,1.83005 0.0456378,0.166961 0.95726,0.872788 0.519874,0.83452z" />
  <path
   id="path5152"
   fill="#4D4D4B"
   d="M306.881 298.727c1.29147,-1.41194 6.60529,-2.24022 3.59773,-4.81918 -2.35644,-0.314079 -4.44699,-0.989575 -5.56158,-3.1184 -1.65884,-0.421512 -6.77878,-1.74331 -5.24551,1.53468 0.82715,3.28819 3.71112,4.61764 6.40432,5.95701l0.270425 0.193039 0.534614 0.252851 0 0z" />
  <path
   id="path5154"
   fill="#4D4D4B"
   d="M310.888 310.792c2.47408,0.782646 5.7104,-0.224504 7.31509,-2.25269 1.17666,-2.82699 -1.44454,-5.65484 -4.14,-6.192 -2.80715,-0.836788 -5.7447,-1.48167 -6.41679,0.0997796 0.759685,2.66939 1.01962,3.39817 1.31159,6.29433 -0.151654,1.53354 1.29005,1.14038 1.93011,2.05058z" />
  <path
   id="path5160"
   fill="#4D4D4B"
   d="M353.705 298.632c1.47061,-0.180567 4.94334,0.66104 5.22255,-0.948189 -1.81332,-0.901134 -4.26416,-1.05676 -4.08784,-3.4971 -2.26403,-1.0817 -6.33118,0.226772 -5.36173,3.31229 0.524977,2.56592 3.17934,3.44892 4.22703,1.13301z" />
  <path
   id="path5164"
   fill="#4D4D4B"
   d="M344.041 292.064c1.56246,0.330803 6.79437,-1.27219 3.07361,-2.42419 -1.32633,-0.142299 -4.00961,0.23641 -1.63304,-1.41477 -0.970583,-1.4743 -5.99301,-2.44942 -5.86659,0.472252 -0.219118,2.50243 2.93414,4.48583 4.74832,3.67115m-0.322299 -0.304441l0 0 0 0z" />
  <path
   id="path5168"
   fill="#4D4D4B"
   d="M333.218 290.262c2.1943,0.749764 6.26684,-2.08233 2.16851,-2.66485 -1.50945,-0.674363 -4.5292,-0.265323 -2.68838,1.83005 0.0456378,0.166961 0.95726,0.872788 0.519874,0.834804z" />
  <path
   id="path5172"
   fill="#4D4D4B"
   d="M324.754 300.261c1.29203,-1.41194 6.60586,-2.23994 3.5983,-4.81947 -2.35673,-0.313512 -4.44699,-0.989292 -5.56214,-3.1184 -1.65855,-0.421229 -6.77849,-1.74274 -5.24551,1.53524 0.827717,3.28819 3.7114,4.61707 6.40489,5.95701l0.270142 0.192756 0.534331 0.252851 0 0z" />
  <path
   id="path5100_4"
   fill="#CCCCCC"
   d="M364.503 257.133c1.47827,0.101764 4.72791,1.58684 5.30759,0.0595276 -1.6098,-1.22854 -3.98636,-1.84649 -3.35055,-4.2086 -2.0177,-1.49159 -6.25918,-0.97852 -5.89238,2.2354 0.0289134,2.61865 2.46756,3.98892 3.93534,1.91367z" />
  <path
   id="path5164_5"
   fill="#CCCCCC"
   d="M379.66 252.999c1.56246,0.330803 6.79437,-1.27247 3.07361,-2.42447 -1.32633,-0.142299 -4.00989,0.23641 -1.63304,-1.41449 -0.970583,-1.47458 -5.99329,-2.4497 -5.86687,0.472252 -0.219118,2.50243 2.93443,4.48583 4.74832,3.67087m-0.322016 -0.304158l0 0 0 0z" />
  <path
   fill="#333333"
   stroke="#333333"
   stroke-width="0.216"
   d="M399.539 286.598c-2.13902,-0.603213 -5.12986,5.27273 -8.06882,8.04303 -2.93925,2.7703 -6.81421,4.40731 -6.12907,7.13934 3.09203,2.25043 15.9619,-10.3799 14.1979,-15.1824z"
   id="path59" />
  <path
   id="path1953_6"
   fill="#B2B2B2"
   stroke="black"
   stroke-width="0.216"
   d="M207.82 224.348l-0.297071 92.7491c-26.9127,0.380693 -46.1279,-13.8124 -69.2635,-8.00079 -11.757,1.70561 -105.579,48.2811 -118.342,38.9214 -4.02066,-7.46703 -0.431433,-11.9619 1.79065,-27.3492 3.39619,-28.207 4.67547,-31.5947 3.93959,-50.3141 -0.206362,-11.7048 0.390614,-37.7246 -3.41943,-55.2447 -4.12838,-14.6101 -7.74057,-22.8362 -3.57619,-27.0814 31.138,-5.51537 112.605,46.4029 114.328,46.4029 14.7234,5.06863 57.5986,-6.06189 74.8398,-10.0831z" />
  <path
   fill="black"
   fill-opacity="0.749020"
   d="M108.879 275.58l-78.1617 4.19981m78.1617 -4.19981l0 0 0 0z"
   id="path62" />
  <path
   id="path5266_7"
   fill="none"
   stroke="black"
   stroke-width="0.937418"
   d="M101.411 270.41l-74.7148 0.178016m82.1829 -2.47606l0 0 0 0z" />
  <path
   fill="black"
   fill-opacity="0.749020"
   d="M105.961 245.404c-29.5716,-11.7221 -50.5007,-19.6934 -81.3306,-26.1405m90.1367 29.2037l0 0 0 0z"
   id="path65" />
  <path
   id="path5268_8"
   fill="none"
   stroke="black"
   stroke-width="0.937418"
   d="M104.426 246.169c-28.8176,-11.7218 -49.7517,-20.4585 -79.7956,-26.9056m87.8386 29.2037l0 0 0 0z" />
  <path
   fill="black"
   fill-opacity="0.749020"
   d="M106.724 293.234c-26.4351,7.94382 -53.0816,15.1467 -80.6622,19.0811m80.6622 -19.0811l0 0 0 0z"
   id="path68" />
  <path
   id="path5270_9"
   fill="none"
   stroke="black"
   stroke-width="0.937418"
   d="M106.724 293.234c-26.4351,7.94382 -57.1023,15.7215 -84.6828,19.656m84.6828 -19.656l0 0 0 0z" />
  <path
   fill="black"
   fill-opacity="0.749020"
   d="M117.065 239.592c-30.7264,-14.8096 -62.7886,-27.0836 -96.7292,-35.7891m96.7292 35.7891l0 0 0 0z"
   id="path71" />
  <path
   id="path5272_10"
   fill="none"
   stroke="black"
   stroke-width="0.937418"
   d="M109.597 237.294c-30.7264,-14.8096 -55.3201,-24.7856 -89.2608,-33.4911" />
  <path
   fill="black"
   fill-opacity="0.749020"
   d="M129.421 257.343l-100.782 -21.4742m100.782 21.4742l0 0 0 0z"
   id="path74" />
  <path
   id="path5274_11"
   fill="none"
   stroke="black"
   stroke-width="0.937418"
   d="M100.697 256.961c-25.7417,-6.00832 -48.6116,-9.14486 -74.9294,-12.8563m103.654 13.2389l0 0 0 0z" />
  <path
   fill="black"
   fill-opacity="0.749020"
   d="M127.703 264.787l-97.0597 -9.4476m97.0597 9.4476l0 0 0 0z"
   id="path77" />
  <path
   fill="black"
   fill-opacity="0.749020"
   d="M110.746 280.714l-80.9618 12.1323m80.9618 -12.1323l0 0 0 0z"
   id="path79" />
  <path
   id="path5278_12"
   fill="none"
   stroke="black"
   stroke-width="0.937418"
   d="M102.128 281.288l-76.7495 8.68451m76.7495 -8.68451l0 0 0 0z" />
  <path
   fill="black"
   fill-opacity="0.749020"
   d="M111.321 306.005c-30.0419,11.5668 -60.0837,22.0238 -90.1256,28.3567m90.1256 -28.3567l0 0 0 0z"
   id="path82" />
  <path
   id="path5280_13"
   fill="none"
   stroke="black"
   stroke-width="0.937418"
   d="M111.321 306.005c-30.0419,11.5668 -60.0837,22.0238 -90.1256,28.3567m90.1256 -28.3567l0 0 0 0z" />
  <path
   id="path1953_14"
   fill="#7F7F7F"
   d="M207.245 287.542l0.277228 29.5549c-26.9127,0.380693 -46.1279,-13.8124 -69.2635,-8.00079 -2.66343,0.386362 -9.53972,3.07673 -18.7311,6.89698 -10.1217,-18.5539 -17.9504,-22.3886 -18.1451,-48.816 30.2343,16.5586 85.1743,22.0881 105.862,20.365z" />
  <path
   id="path1953_15"
   fill="#E5E5E5"
   d="M207.82 224.348l-0.296221 13.4691c-14.29,-4.20747 -41.4258,8.79393 -79.5496,3.50929 -18.9179,0.877323 -24.2722,23.7586 -26.4943,23.2829 4.39087,-16.2995 3.33071,-18.2744 15.6855,-38.543 9.27241,5.2767 15.3576,8.36476 15.8148,8.36476 14.7234,5.06863 57.5986,-6.06189 74.8398,-10.0831z" />
  <path
   id="path1953_16"
   fill="#E5E5E5"
   d="M24.7374 187.951c30.1587,2.40747 71.1956,26.3291 93.856,38.6391 -0.47452,6.2127 -7.543,-2.40123 -43.0705,-19.6092 -25.4475,-13.4943 -54.5111,-15.0216 -50.7855,-19.0298z" />
  <path
   id="path1953_17"
   fill="black"
   d="M206.67 310.522l0.852095 6.57496c-26.9127,0.380693 -46.1279,-13.8124 -69.2635,-8.00079 -11.757,1.70561 -105.579,48.856 -118.342,39.4963 12.325,-0.127276 30.8013,-7.61273 108.069,-42.3635 48.998,-11.5444 50.9261,11.7819 78.6844,4.29307z" />
  <path
   id="path5098_18"
   fill="#CCCCCC"
   d="M150.464 263.944c-2.60192,0.682583 -3.73011,-3.0892 -0.733607,-3.46621 1.69597,-1.70929 4.66243,-0.918993 4.25452,1.6611 -0.133795,1.21238 -2.47266,2.37147 -3.52092,1.8051z" />
  <path
   id="path5100_19"
   fill="#CCCCCC"
   d="M165.315 262.304c-1.47855,0.101764 -4.72819,1.58684 -5.30788,0.0595276 1.61008,-1.22854 3.98636,-1.84649 3.35084,-4.2086 2.0177,-1.49159 6.2589,-0.97852 5.89238,2.2354 -0.0291969,2.61865 -2.46784,3.98892 -3.93534,1.91367z" />
  <path
   id="path5102_20"
   fill="#CCCCCC"
   d="M155.274 258.293c-2.45736,-0.210614 -3.91153,-2.65351 -0.718867,-3.22384 2.14838,-0.377292 3.63912,-1.83232 4.7914,-3.09373 1.72006,-0.886961 5.29824,-0.599528 3.28621,2.03017 -0.992693,2.17814 -3.18501,3.62069 -5.56725,3.70233 -0.587622,0.23726 -1.08028,0.909071 -1.7915,0.585071z" />
  <path
   id="path5104_21"
   fill="#CCCCCC"
   d="M179.877 250.001c-1.47118,0.621071 -6.91257,0.0394016 -3.47755,-1.79745 1.27531,-0.390898 3.98211,-0.528378 1.33512,-1.69852 0.672945,-1.63162 5.41985,-3.54189 5.84986,-0.648851 0.68967,2.4154 -2.03046,4.96092 -3.96595,4.50482m0.25852 -0.36l0 0 0 0z" />
  <path
   id="path5106_22"
   fill="#CCCCCC"
   d="M186.375 259.623c-3.47414,-0.554457 3.05773,-1.56898 2.3417,-3.15014 -1.52362,-2.94123 2.10898,-4.3441 4.40759,-3.46195 3.06539,1.11912 2.88567,5.27726 3.33241,7.92312 -2.30088,1.40117 -5.09358,0.0257953 -7.53676,-0.227339 -0.797103,-0.397701 -1.56614,-1.23477 -2.54495,-1.08369z" />
  <path
   id="path5110_23"
   fill="#CCCCCC"
   d="M173.95 263.617c-1.95959,-1.11713 -4.09125,-3.5521 -2.59455,-5.85638 1.20558,-1.70277 4.09663,-3.87269 5.93263,-1.9525 0.70526,2.46416 2.29748,6.82753 -0.869103,8.10256 -0.809575,0.266457 -1.77307,0.261921 -2.46898,-0.293669z" />
  <path
   id="path5112_24"
   fill="#CCCCCC"
   d="M196.571 249.465c-1.5361,-1.14123 -6.91059,-0.946772 -4.44671,-4.04958 2.25411,-0.75515 4.17827,-1.81474 4.86936,-4.11647 1.54885,-0.728221 6.32523,-2.99679 5.44139,0.512221 -0.189071,3.3857 -2.76803,5.23729 -5.15877,7.06337l-0.228473 0.240662 -0.476788 0.349795 0 0z" />
  <path
   id="path5200_25"
   fill="#4D4D4B"
   d="M113.788 289.71c-2.19402,0.750331 -6.26655,-2.08176 -2.16879,-2.66428 1.51002,-0.674363 4.5292,-0.265606 2.68895,1.83005 -0.0456378,0.166961 -0.957544,0.872788 -0.520158,0.834237z" />
  <path
   id="path5202_26"
   fill="#4D4D4B"
   d="M133.344 296.613c-2.19402,0.750048 -6.26712,-2.08205 -2.16879,-2.66457 1.50973,-0.674363 4.5292,-0.265606 2.68895,1.82976 -0.0456378,0.167244 -0.957544,0.873071 -0.520158,0.834804z" />
  <path
   id="path5204_27"
   fill="#4D4D4B"
   d="M128.042 285.63c-2.19373,0.750048 -6.26655,-2.08205 -2.16851,-2.66457 1.51002,-0.674363 4.5292,-0.265606 2.68866,1.82976 -0.0456378,0.167528 -0.95726,0.873071 -0.520158,0.834804z" />
  <path
   id="path5128_28"
   fill="#4D4D4B"
   d="M120.017 303.819c-2.1943,0.749764 -6.26684,-2.08233 -2.16851,-2.66457 1.50945,-0.674646 4.5292,-0.265606 2.68838,1.82976 -0.0456378,0.167528 -0.95726,0.872788 -0.519874,0.834804z" />
  <path
   id="path5194_29"
   fill="#4D4D4B"
   d="M140.313 300.58c-2.68441,0.176882 -3.07673,-3.74032 -0.0632126,-3.54218 1.98964,-1.35666 4.75229,-0.0181417 3.86249,2.4378 -0.361418,1.16476 -2.87745,1.85953 -3.79928,1.10438z" />
  <path
   id="path5196_30"
   fill="#4D4D4B"
   d="M169.247 297.052c-2.68441,0.176882 -3.07673,-3.7406 -0.0626457,-3.54274 1.98907,-1.3561 4.75172,-0.0178583 3.86192,2.4378 -0.361418,1.16532 -2.87745,1.8601 -3.79928,1.10495z" />
  <path
   id="path5140_31"
   fill="#4D4D4B"
   d="M143.646 291.222c-1.47033,-0.180567 -4.94306,0.661607 -5.22255,-0.947623 1.81361,-0.901134 4.26416,-1.05732 4.08784,-3.4971 2.26403,-1.08198 6.33118,0.226488 5.36173,3.31229 -0.524977,2.56564 -3.17934,3.44892 -4.22703,1.13244z" />
  <path
   id="path5146_32"
   fill="#4D4D4B"
   d="M117.021 292.782c-3.30605,-1.20331 3.29981,-0.960662 2.89644,-2.64898 -0.937985,-3.17707 2.89474,-3.86532 4.98444,-2.56309 2.79723,1.6801 1.8326,5.72854 1.7691,8.41096 -2.52482,0.939686 -5.00542,-0.940536 -7.35676,-1.65232 -0.707244,-0.541985 -1.30309,-1.50945 -2.29323,-1.54658z" />
  <path
   id="path5148_33"
   fill="#4D4D4B"
   d="M202.762 307.053c-2.1943,0.750048 -6.26684,-2.08205 -2.16851,-2.66457 1.50945,-0.674363 4.5292,-0.265606 2.68838,1.83005 -0.0456378,0.166961 -0.95726,0.872788 -0.519874,0.83452z" />
  <path
   id="path5152_34"
   fill="#4D4D4B"
   d="M198.234 298.727c-1.29147,-1.41194 -6.60529,-2.24022 -3.59773,-4.81918 2.35644,-0.314079 4.44699,-0.989575 5.56158,-3.1184 1.65912,-0.421512 6.77878,-1.74331 5.24551,1.53468 -0.82715,3.28819 -3.71112,4.61764 -6.40432,5.95701l-0.270425 0.193039 -0.534614 0.252851 0 0z" />
  <path
   id="path5154_35"
   fill="#4D4D4B"
   d="M194.226 310.792c-2.47408,0.782646 -5.7104,-0.224504 -7.31509,-2.25269 -1.17666,-2.82699 1.44454,-5.65484 4.14,-6.192 2.80715,-0.836788 5.7447,-1.48167 6.41679,0.0997796 -0.759685,2.66939 -1.01962,3.39817 -1.31159,6.29433 0.151654,1.53354 -1.29005,1.14038 -1.93011,2.05058z" />
  <path
   id="path5160_36"
   fill="#4D4D4B"
   d="M151.409 298.632c-1.47061,-0.180567 -4.94334,0.66104 -5.22255,-0.948189 1.81332,-0.901134 4.26416,-1.05676 4.08784,-3.4971 2.26403,-1.0817 6.33118,0.226772 5.36173,3.31229 -0.524977,2.56592 -3.17934,3.44892 -4.22703,1.13301z" />
  <path
   id="path5164_37"
   fill="#4D4D4B"
   d="M161.073 292.064c-1.56246,0.330803 -6.79437,-1.27219 -3.07361,-2.42419 1.32633,-0.142299 4.00961,0.23641 1.63304,-1.41477 0.970583,-1.4743 5.99301,-2.44942 5.86659,0.472252 0.219118,2.50243 -2.93414,4.48583 -4.74832,3.67115m0.322299 -0.304441l0 0 0 0z" />
  <path
   id="path5168_38"
   fill="#4D4D4B"
   d="M171.896 290.262c-2.1943,0.749764 -6.26684,-2.08233 -2.16851,-2.66485 1.50945,-0.674363 4.5292,-0.265323 2.68838,1.83005 -0.0456378,0.166961 -0.95726,0.872788 -0.519874,0.834804z" />
  <path
   id="path5172_39"
   fill="#4D4D4B"
   d="M180.36 300.261c-1.29203,-1.41194 -6.60586,-2.23994 -3.5983,-4.81947 2.35673,-0.313512 4.44699,-0.989292 5.56214,-3.1184 1.65855,-0.421229 6.77849,-1.74274 5.24551,1.53524 -0.827717,3.28819 -3.7114,4.61707 -6.40489,5.95701l-0.269858 0.192756 -0.534614 0.252851 0 0z" />
  <path
   id="path5100_40"
   fill="#CCCCCC"
   d="M140.611 257.133c-1.47827,0.101764 -4.72791,1.58684 -5.30759,0.0595276 1.6098,-1.22854 3.98636,-1.84649 3.35055,-4.2086 2.0177,-1.49159 6.25918,-0.97852 5.89266,2.2354 -0.0291969,2.61865 -2.46784,3.98892 -3.93562,1.91367z" />
  <path
   id="path5164_41"
   fill="#CCCCCC"
   d="M125.454 252.999c-1.56246,0.330803 -6.79437,-1.27247 -3.07332,-2.42447 1.32605,-0.142299 4.00961,0.23641 1.63276,-1.41449 0.970583,-1.47458 5.99329,-2.4497 5.86687,0.472252 0.219118,2.50243 -2.93443,4.48583 -4.74832,3.67087m0.322016 -0.304158l0 0 0 0z" />
  <path
   fill="#333333"
   stroke="#333333"
   stroke-width="0.216"
   d="M105.576 286.598c2.13902,-0.603213 5.12986,5.27273 8.06882,8.04303 2.93925,2.7703 6.81449,4.40731 6.12907,7.13934 -3.09203,2.25043 -15.9619,-10.3799 -14.1979,-15.1824z"
   id="path113" />
  <path
   id="path1953_42"
   fill="#B2B2B2"
   stroke="black"
   stroke-width="0.216"
   d="M207.061 328.604l97.299 0.311528c0.399402,28.2331 -14.4901,48.3911 -8.39339,72.6614 1.78923,12.3335 50.6495,110.758 40.8308,124.147 -7.83326,4.21767 -12.5487,0.452693 -28.6912,-1.87824 -29.5906,-3.56287 -33.1444,-4.90507 -52.782,-4.1332 -12.2791,0.216567 -39.5754,-0.409607 -57.9549,3.58725 -15.3267,4.33077 -23.9562,8.12013 -28.4097,3.75166 -5.78608,-32.6656 48.6794,-118.129 48.6794,-119.937 5.31695,-15.4457 -6.35953,-60.4239 -10.5781,-78.5109z" />
  <path
   fill="black"
   fill-opacity="0.749020"
   d="M260.807 432.398l4.40561 81.9959m-4.40561 -81.9959l0 0 0 0z"
   id="path116" />
  <path
   id="path5266_43"
   fill="none"
   stroke="black"
   stroke-width="0.937418"
   d="M255.384 440.232l0.186803 78.38m-2.59795 -86.2144l0 0 0 0z" />
  <path
   fill="black"
   fill-opacity="0.749020"
   d="M229.151 435.459c-12.297,31.0221 -20.6595,52.9779 -27.4227,85.3203m30.636 -94.5584l0 0 0 0z"
   id="path119" />
  <path
   id="path5268_44"
   fill="none"
   stroke="black"
   stroke-width="0.937418"
   d="M229.953 437.069c-12.297,30.2312 -21.4622,52.1921 -28.2254,83.71m30.636 -92.1476l0 0 0 0z" />
  <path
   fill="black"
   fill-opacity="0.749020"
   d="M279.327 434.658c8.3333,27.7319 15.8893,55.6852 20.0169,84.6188m-20.0169 -84.6188l0 0 0 0z"
   id="path122" />
  <path
   id="path5270_45"
   fill="none"
   stroke="black"
   stroke-width="0.937418"
   d="M279.327 434.658c8.3333,27.7319 16.4925,59.9032 20.6201,88.8367m-20.6201 -88.8367l0 0 0 0z" />
  <path
   fill="black"
   fill-opacity="0.749020"
   d="M223.053 423.81c-15.5361,32.2336 -28.4125,65.8684 -37.5449,101.474m37.5449 -101.474l0 0 0 0z"
   id="path125" />
  <path
   id="path5272_46"
   fill="none"
   stroke="black"
   stroke-width="0.937418"
   d="M220.642 431.645c-15.5361,32.2336 -26.0017,58.0337 -35.134,93.6392" />
  <path
   fill="black"
   fill-opacity="0.749020"
   d="M241.675 410.848l-22.5275 105.726m22.5275 -105.726l0 0 0 0z"
   id="path128" />
  <path
   id="path5274_47"
   fill="none"
   stroke="black"
   stroke-width="0.937418"
   d="M241.274 440.981c-6.30284,27.0048 -9.5933,50.9964 -13.487,78.6053m13.8884 -108.738l0 0 0 0z" />
  <path
   fill="black"
   fill-opacity="0.749020"
   d="M249.484 412.65l-9.91134 101.821m9.91134 -101.821l0 0 0 0z"
   id="path131" />
  <path
   fill="black"
   fill-opacity="0.749020"
   d="M266.192 430.439l12.7276 84.9331m-12.7276 -84.9331l0 0 0 0z"
   id="path133" />
  <path
   id="path5278_48"
   fill="none"
   stroke="black"
   stroke-width="0.937418"
   d="M266.795 439.479l9.11056 80.5145m-9.11056 -80.5145l0 0 0 0z" />
  <path
   fill="black"
   fill-opacity="0.749020"
   d="M292.724 429.837c12.134,31.5153 23.1038,63.0309 29.7474,94.5465m-29.7474 -94.5465l0 0 0 0z"
   id="path136" />
  <path
   id="path5280_49"
   fill="none"
   stroke="black"
   stroke-width="0.937418"
   d="M292.724 429.837c12.134,31.5153 23.1038,63.0309 29.7474,94.5465m-29.7474 -94.5465l0 0 0 0z" />
  <path
   id="path1953_50"
   fill="#7F7F7F"
   d="M273.355 329.206l31.0048 -0.290835c0.399402,28.2331 -14.4901,48.3911 -8.39339,72.6614 0.405355,2.79411 3.22753,10.0074 7.23544,19.6498 -19.4641,10.6183 -23.4868,18.8311 -51.2107,19.0352 17.3707,-31.7174 23.1715,-89.3526 21.3639,-111.056z" />
  <path
   id="path1953_51"
   fill="#E5E5E5"
   d="M207.061 328.604l14.1299 0.310961c-4.24432,15.0191 8.58388,60.9806 3.68164,83.4517 0.920126,19.8456 24.9239,25.4628 24.425,27.7937 -17.0992,-4.6063 -19.171,-3.49399 -40.434,-16.4548 5.5355,-9.72709 8.7755,-16.111 8.7755,-16.5906 5.31695,-15.4457 -6.35953,-60.4239 -10.5781,-78.5109z" />
  <path
   id="path1953_52"
   fill="black"
   d="M297.462 329.809l6.89755 -0.894048c0.399402,28.2331 -14.4901,48.3911 -8.39339,72.6614 1.78923,12.3335 51.2527,110.758 41.4338,124.147 -0.133512,-12.9294 -7.98605,-32.3121 -44.4416,-113.371 -12.1107,-51.4012 12.3599,-53.4243 4.50369,-82.5441z" />
  <path
   id="path5098_53"
   fill="#CCCCCC"
   d="M248.6 388.773c0.716315,2.72977 -3.24057,3.91323 -3.63629,0.76989 -1.79291,-1.77931 -0.96378,-4.89118 1.74274,-4.46344 1.27191,0.140598 2.48797,2.59399 1.89354,3.69355z" />
  <path
   id="path5100_54"
   fill="#CCCCCC"
   d="M246.879 373.194c0.106866,1.55084 1.66479,4.96007 0.0626457,5.5681 -1.28891,-1.68888 -1.93691,-4.18195 -4.41496,-3.51496 -1.56473,-2.11691 -1.02643,-6.56618 2.3451,-6.18151 2.74706,0.0303307 4.18451,2.5886 2.00721,4.12838z" />
  <path
   id="path5102_55"
   fill="#CCCCCC"
   d="M242.672 383.727c-0.220819,2.57811 -2.78334,4.10344 -3.38173,0.7543 -0.395717,-2.25383 -1.92246,-3.8177 -3.24567,-5.0264 -0.930331,-1.80454 -0.628725,-5.55846 2.12967,-3.4475 2.28529,1.04145 3.79843,3.3412 3.88403,5.84022 0.248882,0.616536 0.953575,1.13329 0.613701,1.87937z" />
  <path
   id="path5104_56"
   fill="#CCCCCC"
   d="M233.973 357.918c0.651402,1.54347 0.0411024,7.25159 -1.88561,3.64819 -0.410457,-1.33795 -0.554457,-4.1777 -1.78186,-1.40088 -1.71184,-0.705827 -3.71566,-5.68574 -0.680599,-6.13673 2.53361,-0.723402 5.20413,2.13024 4.72564,4.16041m-0.377575 -0.270992l0 0 0 0z" />
  <path
   id="path5106_57"
   fill="#CCCCCC"
   d="M244.067 351.101c-0.58167,3.64451 -1.64608,-3.20769 -3.30463,-2.45651 -3.0858,1.59817 -4.55755,-2.21244 -3.63175,-4.62388 1.17411,-3.21562 5.53607,-3.0274 8.31147,-3.49569 1.47005,2.4137 0.0272126,5.34331 -0.23811,7.9064 -0.417544,0.835937 -1.29572,1.64296 -1.13698,2.66967z" />
  <path
   id="path5110_58"
   fill="#CCCCCC"
   d="M248.257 364.134c-1.17213,2.05569 -3.72643,4.29194 -6.14381,2.72183 -1.78611,-1.26482 -4.06233,-4.29761 -2.04832,-6.22347 2.5852,-0.739843 7.16259,-2.4103 8.49997,0.911623 0.27978,0.84926 0.275244,1.8601 -0.307843,2.59002z" />
  <path
   id="path5112_59"
   fill="#CCCCCC"
   d="M233.411 340.404c-1.19707,1.6115 -0.99326,7.24961 -4.248,4.6647 -0.792284,-2.36466 -1.90375,-4.38321 -4.31858,-5.10832 -0.763937,-1.62482 -3.14391,-6.63534 0.537449,-5.70813 3.55153,0.198142 5.49411,2.90381 7.40977,5.41191l0.252567 0.239811 0.366803 0.500032 0 0z" />
  <path
   id="path5200_60"
   fill="#4D4D4B"
   d="M275.63 427.248c0.787181,2.30145 -2.18381,6.57383 -2.79468,2.2748 -0.707811,-1.584 -0.278646,-4.75115 1.91962,-2.82047 0.175181,0.0479055 0.915591,1.00432 0.875056,0.54567z" />
  <path
   id="path5202_61"
   fill="#4D4D4B"
   d="M282.871 406.733c0.786615,2.30145 -2.18438,6.5744 -2.79525,2.2748 -0.707528,-1.58343 -0.278646,-4.75115 1.91962,-2.82047 0.175181,0.0479055 0.915591,1.00432 0.875622,0.54567z" />
  <path
   id="path5204_62"
   fill="#4D4D4B"
   d="M271.35 412.294c0.786615,2.30173 -2.18438,6.57411 -2.79553,2.27509 -0.707528,-1.584 -0.278362,-4.75144 1.91962,-2.82076 0.175748,0.0479055 0.915874,1.00432 0.875906,0.54567z" />
  <path
   id="path5128_63"
   fill="#4D4D4B"
   d="M290.431 420.713c0.786615,2.30202 -2.18438,6.5744 -2.79525,2.27509 -0.707528,-1.58372 -0.278646,-4.75144 1.91962,-2.82019 0.175465,0.0476221 0.915591,1.00432 0.875622,0.545103z" />
  <path
   id="path5194_64"
   fill="#4D4D4B"
   d="M287.033 399.422c0.185669,2.81594 -3.924,3.22725 -3.71622,0.0660473 -1.42299,-2.08715 -0.0189921,-4.98529 2.55742,-4.05184 1.22202,0.379276 1.95109,3.01862 1.1588,3.9858z" />
  <path
   id="path5196_65"
   fill="#4D4D4B"
   d="M283.332 369.068c0.185386,2.81565 -3.924,3.22725 -3.71651,0.0654803 -1.42271,-2.08658 -0.0187087,-4.98473 2.55742,-4.05128 1.2223,0.378992 1.95109,3.01862 1.15909,3.9858z" />
  <path
   id="path5140_66"
   fill="#4D4D4B"
   d="M277.216 395.925c-0.189354,1.54261 0.693922,5.18542 -0.994111,5.47881 -0.945355,-1.90262 -1.1092,-4.47307 -3.6686,-4.28854 -1.13499,-2.37487 0.237827,-6.64158 3.47471,-5.62451 2.6915,0.550772 3.61786,3.33553 1.188,4.43424z" />
  <path
   id="path5146_67"
   fill="#4D4D4B"
   d="M278.852 423.856c-1.26227,3.46819 -1.00772,-3.46167 -2.77909,-3.03874 -3.33269,0.984189 -4.05468,-3.03647 -2.68866,-5.22879 1.7623,-2.93443 6.00974,-1.92246 8.82341,-1.85613 0.98589,2.64898 -0.986457,5.25118 -1.7331,7.71789 -0.56863,0.741827 -1.58372,1.36715 -1.62255,2.40576z" />
  <path
   id="path5148_68"
   fill="#4D4D4B"
   d="M293.824 333.91c0.786615,2.30202 -2.18438,6.5744 -2.79525,2.27509 -0.707528,-1.58372 -0.278646,-4.75144 1.91962,-2.82047 0.175181,0.0479055 0.915591,1.00432 0.875622,0.545386z" />
  <path
   id="path5152_69"
   fill="#4D4D4B"
   d="M285.09 338.66c-1.48139,1.35496 -2.35021,6.92929 -5.05588,3.77433 -0.329103,-2.4721 -1.03776,-4.66526 -3.27118,-5.83455 -0.442205,-1.74019 -1.82863,-7.11128 1.61008,-5.5029 3.44948,0.867969 4.84384,3.8931 6.24926,6.71868l0.202394 0.283748 0.265323 0.560693 0 0z" />
  <path
   id="path5154_70"
   fill="#4D4D4B"
   d="M297.746 342.864c0.821197,2.5954 -0.235276,5.99018 -2.36325,7.67367 -2.96532,1.23449 -5.93207,-1.51512 -6.49559,-4.34296 -0.877607,-2.94491 -1.55424,-6.02646 0.104882,-6.73144 2.80006,0.796819 3.56457,1.06951 6.60303,1.37565 1.60895,-0.159024 1.19622,1.35354 2.15093,2.02507z" />
  <path
   id="path5160_71"
   fill="#4D4D4B"
   d="M284.99 387.781c-0.189071,1.5429 0.693638,5.1857 -0.994394,5.47852 -0.945355,-1.90205 -1.10891,-4.47307 -3.6686,-4.28825 -1.13499,-2.37515 0.237827,-6.64186 3.47471,-5.62479 2.6915,0.550772 3.61786,3.33553 1.18828,4.43452z" />
  <path
   id="path5164_72"
   fill="#4D4D4B"
   d="M278.1 377.644c0.346961,1.63899 -1.33484,7.12772 -2.54325,3.22441 -0.149386,-1.39153 0.248032,-4.20662 -1.48394,-1.71326 -1.54687,-1.01792 -2.56989,-6.28696 0.495496,-6.1543 2.62517,-0.230173 4.7058,3.07814 3.85087,4.98104m-0.319181 -0.33789l0 0 0 0z" />
  <path
   id="path5168_73"
   fill="#4D4D4B"
   d="M276.208 366.289c0.786898,2.30202 -2.18438,6.5744 -2.79525,2.27509 -0.707528,-1.58372 -0.278646,-4.75144 1.91962,-2.82019 0.175181,0.0479055 0.915591,1.00432 0.875622,0.545103z" />
  <path
   id="path5172_74"
   fill="#4D4D4B"
   d="M286.698 357.41c-1.4811,1.35524 -2.34992,6.92986 -5.05559,3.77462 -0.328819,-2.47238 -1.03805,-4.66498 -3.27147,-5.83455 -0.441921,-1.74019 -1.82835,-7.111 1.61065,-5.5029 3.4492,0.868252 4.84356,3.89339 6.24898,6.71868l0.202394 0.283465 0.26504 0.560693 0 0z" />
  <path
   id="path5100_75"
   fill="#CCCCCC"
   d="M241.455 399.109c0.106583,1.55084 1.6645,4.96007 0.0623622,5.56838 -1.28891,-1.68917 -1.93691,-4.18195 -4.41496,-3.51525 -1.56473,-2.11663 -1.02643,-6.56618 2.3451,-6.18151 2.74706,0.0306142 4.18451,2.58888 2.0075,4.12838z" />
  <path
   id="path5164_76"
   fill="#CCCCCC"
   d="M237.118 415.009c0.346961,1.63928 -1.33484,7.12772 -2.54325,3.22441 -0.149102,-1.39124 0.248032,-4.20662 -1.48394,-1.71298 -1.54687,-1.01821 -2.56989,-6.28725 0.495496,-6.15459 2.62517,-0.22989 4.7058,3.07814 3.85115,4.98133m-0.319465 -0.338173l0 0 0 0z" />
  <path
   fill="#333333"
   stroke="#333333"
   stroke-width="0.216"
   d="M272.365 435.863c-0.632693,-2.24419 5.53125,-5.38186 8.43733,-8.46482 2.90636,-3.08325 4.62359,-7.14841 7.4897,-6.42955 2.36098,3.24369 -10.889,16.7448 -15.927,14.8944z"
   id="path166" />
  <path
   id="path1953_77"
   fill="#B2B2B2"
   stroke="black"
   stroke-width="0.216"
   d="M208.177 210.582l92.7491 -0.297071c0.380693,-26.9127 -13.8124,-46.1279 -8.00079,-69.2635 1.70561,-11.7567 48.2811,-105.579 38.9214,-118.342 -7.46674,-4.02066 -11.9619,-0.431433 -27.3492,1.79065 -28.207,3.39619 -31.5947,4.67547 -50.3141,3.93959 -11.7048,-0.206079 -37.7246,0.390614 -55.2447,-3.41943 -14.6101,-4.1281 -22.8362,-7.74057 -27.0814,-3.57619 -5.51537,31.138 46.4032,112.606 46.4032,114.329 5.06835,14.7232 -6.06218,57.5983 -10.0834,74.8395z" />
  <path
   fill="black"
   fill-opacity="0.749020"
   d="M259.41 111.641l4.19953 -78.1617m-4.19953 78.1617l0 0 0 0z"
   id="path169" />
  <path
   id="path5266_78"
   fill="none"
   stroke="black"
   stroke-width="0.937418"
   d="M254.24 104.173l0.178016 -74.7148m-2.47606 82.1829l0 0 0 0z" />
  <path
   fill="black"
   fill-opacity="0.749020"
   d="M229.234 108.723c-11.7221,-29.5716 -19.6934,-50.5007 -26.1405,-81.3306m29.2037 90.1367l0 0 0 0z"
   id="path172" />
  <path
   id="path5268_79"
   fill="none"
   stroke="black"
   stroke-width="0.937418"
   d="M229.999 107.188c-11.7218,-28.8176 -20.4585,-49.7517 -26.9056,-79.7956m29.2037 87.8386l0 0 0 0z" />
  <path
   fill="black"
   fill-opacity="0.749020"
   d="M277.064 109.486c7.94353,-26.4351 15.1464,-53.0813 19.0809,-80.6619m-19.0809 80.6619l0 0 0 0z"
   id="path175" />
  <path
   id="path5270_80"
   fill="none"
   stroke="black"
   stroke-width="0.937418"
   d="M277.064 109.486c7.94353,-26.4351 15.7212,-57.1023 19.6557,-84.6828m-19.6557 84.6828l0 0 0 0z" />
  <path
   fill="black"
   fill-opacity="0.749020"
   d="M223.421 119.827c-14.8096,-30.7264 -27.0836,-62.7886 -35.7888,-96.7292m35.7888 96.7292l0 0 0 0z"
   id="path178" />
  <path
   id="path5272_81"
   fill="none"
   stroke="black"
   stroke-width="0.937418"
   d="M221.123 112.359c-14.8096,-30.7264 -24.7859,-55.3201 -33.4911,-89.2608" />
  <path
   fill="black"
   fill-opacity="0.749020"
   d="M241.173 132.184l-21.4742 -100.782m21.4742 100.782l0 0 0 0z"
   id="path181" />
  <path
   id="path5274_82"
   fill="none"
   stroke="black"
   stroke-width="0.937418"
   d="M240.79 103.459c-6.00803,-25.7417 -9.14486,-48.6114 -12.8563,-74.9294m13.2389 103.654l0 0 0 0z" />
  <path
   fill="black"
   fill-opacity="0.749020"
   d="M248.617 130.465l-9.44788 -97.06m9.44788 97.06l0 0 0 0z"
   id="path184" />
  <path
   fill="black"
   fill-opacity="0.749020"
   d="M264.543 113.508l12.1323 -80.9618m-12.1323 80.9618l0 0 0 0z"
   id="path186" />
  <path
   id="path5278_83"
   fill="none"
   stroke="black"
   stroke-width="0.937418"
   d="M265.118 104.89l8.68422 -76.7495m-8.68422 76.7495l0 0 0 0z" />
  <path
   fill="black"
   fill-opacity="0.749020"
   d="M289.835 114.083c11.5665,-30.0419 22.0235,-60.0837 28.3564,-90.1256m-28.3564 90.1256l0 0 0 0z"
   id="path189" />
  <path
   id="path5280_84"
   fill="none"
   stroke="black"
   stroke-width="0.937418"
   d="M289.835 114.083c11.5665,-30.0419 22.0235,-60.0837 28.3564,-90.1256m-28.3564 90.1256l0 0 0 0z" />
  <path
   id="path1953_85"
   fill="#7F7F7F"
   d="M271.371 210.007l29.5549 0.277228c0.380693,-26.9127 -13.8124,-46.1279 -8.00079,-69.2635 0.386362,-2.66343 3.07673,-9.53972 6.89726,-18.7311 -18.5542,-10.1217 -22.3886,-17.9504 -48.8163,-18.1451 16.5586,30.2343 22.0881,85.1743 20.365,105.862z" />
  <path
   id="path1953_86"
   fill="#E5E5E5"
   d="M208.177 210.582l13.4691 -0.296221c-1.81758,-35.5229 6.91711,-22.0992 10.4865,-43.9674 -12.4007,-18.9099 5.33254,-28.6299 -6.9772,-35.5822 0.877323,-18.9176 23.7586,-24.2722 23.2829,-26.4943 -16.2995,4.39115 -18.2744,3.33071 -38.543,15.6858 5.2767,9.27213 8.36504,15.3573 8.36504,15.8148 5.06835,14.7232 -6.06218,57.5983 -10.0834,74.8395z" />
  <path
   id="path1953_87"
   fill="black"
   d="M294.351 209.433l6.57496 0.852095c0.380693,-26.9127 -13.8124,-46.1279 -8.00079,-69.2635 1.70561,-11.7567 48.856,-105.579 39.4963,-118.342 -0.127276,12.325 -7.61273,30.8013 -42.3635,108.069 -11.5444,48.998 11.7819,50.9261 4.29307,78.6844z" />
  <path
   id="path5098_88"
   fill="#CCCCCC"
   d="M247.773 153.226c0.682583,-2.60192 -3.08891,-3.73011 -3.46621,-0.733607 -1.70929,1.69597 -0.918993,4.66243 1.6611,4.25452 1.21238,-0.133795 2.37175,-2.47266 1.8051,-3.52092z" />
  <path
   id="path5100_89"
   fill="#CCCCCC"
   d="M246.133 168.077c0.101764,-1.47827 1.58684,-4.72819 0.0595276,-5.30788 -1.22854,1.61008 -1.84649,3.98636 -4.2086,3.35084 -1.49131,2.0177 -0.97852,6.25918 2.2354,5.89238 2.61865,-0.0289134 3.9892,-2.46784 1.91367,-3.93534z" />
  <path
   id="path5102_90"
   fill="#CCCCCC"
   d="M242.123 158.036c-0.210614,-2.45764 -2.65351,-3.91181 -3.22384,-0.71915 -0.377008,2.14838 -1.83232,3.63912 -3.09373,4.7914 -0.886961,1.72006 -0.599528,5.29824 2.03017,3.28621 2.17843,-0.992693 3.62069,-3.18501 3.70233,-5.56725 0.23726,-0.587622 0.909071,-1.08028 0.585071,-1.79121z" />
  <path
   id="path5104_91"
   fill="#CCCCCC"
   d="M233.831 182.639c0.620788,-1.47118 0.0391181,-6.91257 -1.79745,-3.47755 -0.391181,1.27531 -0.528662,3.98211 -1.6988,1.3354 -1.63162,0.672945 -3.54189,5.41956 -0.648567,5.84958 2.41512,0.68967 4.96063,-2.03046 4.50454,-3.96595m-0.359717 0.25852l0 0 0 0z" />
  <path
   id="path5106_92"
   fill="#CCCCCC"
   d="M243.452 189.137c-0.554457,-3.47414 -1.56898,3.05773 -3.14986,2.3417 -2.94151,-1.52362 -4.34438,2.10898 -3.46224,4.40788 1.1194,3.0651 5.27726,2.88567 7.92312,3.33213 1.40117,-2.30088 0.0260788,-5.09358 -0.227055,-7.53676 -0.397984,-0.796819 -1.23506,-1.56614 -1.08397,-2.54495z" />
  <path
   id="path5110_93"
   fill="#CCCCCC"
   d="M247.447 176.712c-1.11713,-1.95959 -3.5521,-4.09125 -5.85638,-2.59455 -1.70277,1.20558 -3.87241,4.09663 -1.9525,5.93263 2.46444,0.70526 6.82753,2.29748 8.10256,-0.869103 0.26674,-0.809575 0.262205,-1.77307 -0.293669,-2.46898z" />
  <path
   id="path5112_94"
   fill="#CCCCCC"
   d="M233.295 199.333c-1.14123,-1.5361 -0.946772,-6.91059 -4.04929,-4.44671 -0.75515,2.25411 -1.81474,4.17827 -4.11647,4.86936 -0.728504,1.54885 -2.99707,6.32523 0.512221,5.44139 3.38542,-0.189071 5.23701,-2.76803 7.06309,-5.15877l0.240662 -0.228473 0.349795 -0.476788 0 0z" />
  <path
   id="path5200_95"
   fill="#4D4D4B"
   d="M273.539 116.55c0.750331,-2.19402 -2.08176,-6.26655 -2.66428,-2.16851 -0.674363,1.50973 -0.265323,4.5292 1.83005,2.68866 0.166961,-0.0456378 0.872788,-0.95726 0.834237,-0.520158z" />
  <path
   id="path5202_96"
   fill="#4D4D4B"
   d="M280.442 136.106c0.750048,-2.19402 -2.08205,-6.26712 -2.66457,-2.16879 -0.674363,1.50973 -0.265606,4.5292 1.82976,2.68895 0.167244,-0.0456378 0.873071,-0.957544 0.834804,-0.520158z" />
  <path
   id="path5204_97"
   fill="#4D4D4B"
   d="M269.46 130.804c0.750048,-2.19373 -2.08205,-6.26655 -2.66457,-2.16851 -0.674363,1.51002 -0.265606,4.5292 1.83005,2.68866 0.167244,-0.0456378 0.872788,-0.95726 0.83452,-0.520158z" />
  <path
   id="path5128_98"
   fill="#4D4D4B"
   d="M287.648 122.779c0.750048,-2.19402 -2.08205,-6.26684 -2.66457,-2.16851 -0.674363,1.50973 -0.265606,4.5292 1.82976,2.68838 0.167528,-0.0456378 0.872788,-0.95726 0.834804,-0.519874z" />
  <path
   id="path5194_99"
   fill="#4D4D4B"
   d="M284.41 143.075c0.176882,-2.68441 -3.7406,-3.07673 -3.54246,-0.0632126 -1.35666,1.98964 -0.0181417,4.75229 2.4378,3.86249 1.16476,-0.361418 1.85981,-2.87745 1.10466,-3.79928z" />
  <path
   id="path5196_100"
   fill="#4D4D4B"
   d="M280.881 172.01c0.176882,-2.68441 -3.74032,-3.07673 -3.54274,-0.0626457 -1.3561,1.98907 -0.0178583,4.75172 2.4378,3.86192 1.16532,-0.361418 1.8601,-2.87745 1.10495,-3.79928z" />
  <path
   id="path5140_101"
   fill="#4D4D4B"
   d="M275.051 146.408c-0.180284,-1.47033 0.661607,-4.94306 -0.947623,-5.22255 -0.901134,1.81389 -1.05732,4.26416 -3.4971,4.08784 -1.08198,2.26403 0.226772,6.33118 3.31229,5.36173 2.56564,-0.524977 3.44892,-3.17934 1.13244,-4.22703z" />
  <path
   id="path5146_102"
   fill="#4D4D4B"
   d="M276.612 119.783c-1.20331,-3.30605 -0.960945,3.29981 -2.64926,2.89644 -3.17679,-0.937985 -3.86532,2.89474 -2.56309,4.98473 1.6801,2.79695 5.72854,1.83232 8.41096,1.7691 0.939686,-2.5251 -0.940252,-5.0057 -1.65203,-7.35676 -0.542268,-0.707528 -1.50973,-1.30337 -1.54658,-2.29351z" />
  <path
   id="path5148_103"
   fill="#4D4D4B"
   d="M290.883 205.524c0.749764,-2.19402 -2.08233,-6.26684 -2.66485,-2.16851 -0.674363,1.50973 -0.265323,4.5292 1.83005,2.68838 0.166961,-0.0456378 0.872788,-0.95726 0.834804,-0.519874z" />
  <path
   id="path5152_104"
   fill="#4D4D4B"
   d="M282.557 200.996c-1.41194,-1.29147 -2.24022,-6.60529 -4.81918,-3.59773 -0.313795,2.35644 -0.989575,4.44699 -3.1184,5.56158 -0.421512,1.65912 -1.74331,6.77878 1.53468,5.24551 3.28819,-0.82715 4.61764,-3.71084 5.95701,-6.40432l0.193039 -0.270425 0.252851 -0.534614 0 0z" />
  <path
   id="path5154_105"
   fill="#4D4D4B"
   d="M294.622 196.988c0.782646,-2.47408 -0.224504,-5.7104 -2.25269,-7.31481 -2.82699,-1.17695 -5.65484,1.44425 -6.192,4.13972 -0.836788,2.80715 -1.48167,5.7447 0.100063,6.41679 2.6691,-0.759685 3.39789,-1.01962 6.29405,-1.31159 1.53383,0.151654 1.14038,-1.29005 2.05058,-1.93011z" />
  <path
   id="path5160_106"
   fill="#4D4D4B"
   d="M282.462 154.171c-0.180284,-1.47061 0.66104,-4.94334 -0.947906,-5.22227 -0.901134,1.81304 -1.05704,4.26388 -3.4971,4.08784 -1.08198,2.26403 0.226488,6.3309 3.31229,5.36145 2.56564,-0.524977 3.44863,-3.17934 1.13272,-4.22703z" />
  <path
   id="path5164_107"
   fill="#4D4D4B"
   d="M275.894 163.835c0.330803,-1.56246 -1.27219,-6.79437 -2.42419,-3.07361 -0.142299,1.32633 0.23641,4.00989 -1.41449,1.63304 -1.47458,0.970583 -2.4497,5.99301 0.472252,5.86659 2.50243,0.219402 4.48555,-2.93414 3.67087,-4.74832m-0.304441 0.322299l0 0 0 0z" />
  <path
   id="path5168_108"
   fill="#4D4D4B"
   d="M274.091 174.658c0.749764,-2.19402 -2.08233,-6.26684 -2.66457,-2.16851 -0.674646,1.50973 -0.265606,4.5292 1.82976,2.68838 0.166961,-0.0456378 0.872788,-0.95726 0.834804,-0.519874z" />
  <path
   id="path5172_109"
   fill="#4D4D4B"
   d="M284.091 183.122c-1.41194,-1.29203 -2.23994,-6.60586 -4.81947,-3.5983 -0.313229,2.35701 -0.989292,4.44699 -3.1184,5.56214 -0.421229,1.65855 -1.74246,6.77849 1.53524,5.24551 3.28819,-0.827717 4.61707,-3.7114 5.95701,-6.40489l0.192756 -0.269858 0.252851 -0.534614 0 0z" />
  <path
   id="path5100_110"
   fill="#CCCCCC"
   d="M240.963 143.373c0.101764,-1.47827 1.58684,-4.72791 0.0595276,-5.30759 -1.22854,1.6098 -1.84649,3.98636 -4.2086,3.35084 -1.49131,2.0177 -0.97852,6.2589 2.2354,5.89238 2.61865,-0.0291969 3.98892,-2.46784 1.91367,-3.93562z" />
  <path
   id="path5164_111"
   fill="#CCCCCC"
   d="M236.828 128.216c0.330803,-1.56217 -1.27247,-6.79437 -2.42447,-3.07332 -0.142016,1.32605 0.236693,4.00961 -1.41449,1.63276 -1.47458,0.970583 -2.4497,5.99329 0.472252,5.86687 2.50243,0.219118 4.48583,-2.93443 3.67115,-4.74832m-0.304441 0.322016l0 0 0 0z" />
  <path
   fill="#333333"
   stroke="#333333"
   stroke-width="0.216"
   d="M270.427 108.338c-0.602929,2.13902 5.27273,5.13014 8.04303,8.06882 2.7703,2.93925 4.40731,6.81449 7.13963,6.12907 2.25043,-3.09203 -10.3802,-15.9619 -15.1827,-14.1979z"
   id="path219" />
 </g>
</svg>