<?xml version="1.0" encoding="UTF-8"?>
<!DOCTYPE svg PUBLIC "-//W3C//DTD SVG 1.1//EN" "http://www.w3.org/Graphics/SVG/1.1/DTD/svg11.dtd">
<!-- Creator: CorelDRAW -->
<svg xmlns="http://www.w3.org/2000/svg" xml:space="preserve" width="500px" height="571px" shape-rendering="geometricPrecision" text-rendering="geometricPrecision" image-rendering="optimizeQuality" fill-rule="evenodd" clip-rule="evenodd"
viewBox="0 0 500 571"
 xmlns:xlink="http://www.w3.org/1999/xlink"
 xmlns:svg="http://www.w3.org/2000/svg"
 version="1.0">
 <g id="Layer_x0020_1">
  <metadata id="CorelCorpID_0Corel-Layer"/>
  <path id="path1937" fill="black" stroke="black" stroke-width="2.83465" d="M1.71043 1.84791l496.852 -0.0405355 -0.132378 315.32c-11.8715,333.669 -481.211,336.406 -496.696,0.212032l-0.023811 -315.491z"/>
  <path id="path1937_0" fill="white" d="M490.567 377.995c-9.9343,42.776 -28.497,78.3712 -52.7808,106.759 -7.20454,3.28451 -11.5804,7.20936 -24.1234,7.21956 -12.543,0.0104882 -33.829,-17.97 -51.389,-17.9555 -17.5601,0.0141732 -37.5829,18.0309 -55.1753,18.0445 -17.5924,0.0136063 -36.7651,-17.9711 -54.0615,-17.9575 -17.2967,0.0136063 -35.0223,18.0298 -51.9982,18.0431 -16.9756,0.0133228 -35.699,-17.9725 -52.8682,-17.9595 -17.1692,0.0133228 -38.0744,18.0332 -52.3378,18.0442 -14.2631,0.0113386 -23.6191,-3.90388 -32.1497,-7.17336 -24.4777,-28.4264 -43.308,-64.139 -53.5964,-107.162 7.82448,-2.1841 16.2275,-10.7966 30.03,-10.7943 13.8027,0.00255118 35.1919,16.9141 52.7876,16.9175 17.5958,0.00311811 35.0087,-16.8999 52.7871,-16.8962 17.7786,0.00368504 35.8126,16.9141 53.8872,16.9177 18.0743,0.00340158 36.2313,-16.8996 54.5602,-16.8962 18.3288,0.00368504 37.2215,16.9146 55.4128,16.918 18.1916,0.00368504 35.8263,-16.899 53.739,-16.8956 17.913,0.00368504 37.1231,16.9155 53.7392,16.9186 16.6159,0.00311811 33.7045,-16.9002 45.9607,-16.8976 12.2562,0.00226772 21.6632,8.61818 27.5766,10.8057z"/>
  <path id="path1937_1" fill="#CCCCCC" d="M489.375 382.928c-10.1877,40.5868 -28.2444,74.5373 -51.5883,101.826 -7.20454,3.28451 -11.5804,7.20936 -24.1234,7.21956 -12.543,0.0104882 -33.829,-17.97 -51.389,-17.9555 -17.5601,0.0141732 -37.5829,18.0309 -55.1753,18.0445 -17.5924,0.0136063 -36.7651,-17.9711 -54.0615,-17.9575 -17.2967,0.0136063 -35.0223,18.0298 -51.9982,18.0431 -16.9756,0.0133228 -35.699,-17.9725 -52.8682,-17.9595 -17.1692,0.0133228 -38.0744,18.0332 -52.3378,18.0442 -14.2631,0.0113386 -23.6191,-3.90388 -32.1497,-7.17336 -23.7183,-27.5448 -42.1339,-61.9314 -52.6145,-103.182 10.5395,-5.70303 17.4583,-11.4846 29.048,-11.1747 13.7974,0.368504 35.1919,16.9141 52.7876,16.9172 17.5958,0.00311811 35.0087,-16.8996 52.7871,-16.8962 17.7786,0.00368504 35.8126,16.9141 53.8872,16.9177 18.0743,0.00368504 36.2313,-16.8996 54.5602,-16.8959 18.3288,0.00340158 37.2215,16.9143 55.4128,16.918 18.1916,0.00340158 35.8263,-16.8993 53.739,-16.8956 17.913,0.00340158 37.1231,16.9152 53.7392,16.9183 16.6159,0.00311811 33.7045,-16.8987 45.9607,-16.8976 9.40508,0.000850394 17.3109,4.84214 26.384,12.1388z"/>
  <path id="path1937_2" fill="#666666" d="M431.966 482.815c-7.20482,3.28422 -11.581,5.74725 -24.124,5.75745 -12.543,0.0104882 -28.7113,-19.4324 -48.4648,-18.6868 -19.7535,0.745512 -36.1202,19.4933 -53.7126,19.5069 -17.5927,0.0136063 -31.6477,-19.4332 -51.1376,-19.4196 -19.4902,0.0136063 -34.2913,16.5679 -54.9221,16.581 -20.6306,0.0133228 -29.852,-18.7036 -51.4072,-18.6905 -21.5549,0.0133228 -36.6115,19.4953 -54.5298,18.7756 -17.9181,-0.72 -22.8884,-5.36627 -29.2258,-10.8292 6.33742,-0.385512 12.7698,5.72315 30.6879,6.44287 17.9181,0.719717 32.2438,-18.0315 53.7988,-18.0445 21.5549,-0.0130394 31.5077,17.9725 52.1382,17.9595 20.6306,-0.0130394 32.508,-15.8366 51.9979,-15.8499 19.4899,-0.0133228 36.4694,18.7019 54.0618,18.6885 17.5924,-0.0133228 33.9591,-18.7614 53.7126,-19.5069 19.7535,-0.745512 35.9218,20.1592 48.4648,20.149 12.543,-0.0102047 13.2639,-2.47323 22.6619,-2.83323z"/>
  <path fill="#CCCCCC" stroke="black" stroke-width="0.216" d="M57.6199 180.204c-17.2471,-4.20803 -25.8324,-23.8802 -15.5489,-36.131 -17.714,-7.16741 -21.2891,-37.08 -8.45632,-39.3086 21.9254,-3.80778 63.0706,16.3298 171.791,1.40627 -0.810426,-14.091 -3.21279,-20.0872 11.9616,-31.1871 22.4218,-16.401 48.159,-13.5641 83.9192,-9.86457 17.7117,-17.9527 28.9517,-27.5256 44.5178,-34.7088 10.8989,-5.0298 26.6471,-17.2352 31.3994,-17.8146 -4.87389,16.327 -5.57178,29.4063 -15.3936,49.4442 1.65628,-0.850678 1.78299,0.634677 6.28016,-1.99559 21.8067,-12.7531 46.5642,-18.2412 70.5221,-28.4411 -6.09222,19.7385 -1.66961,29.5807 -18.2764,59.2155 11.005,-2.9863 17.6071,0.737008 29.5379,11.867 11.073,10.3295 22.623,1.91225 28.2543,9.61597 4.41978,6.0463 -5.68914,25.8647 -35.8606,23.8425 6.32126,6.36832 10.9568,15.9846 14.5845,24.3987 3.76356,8.72873 13.3741,14.7064 20.3284,8.24485 9.47367,-8.80271 10.6733,12.4849 3.83301,17.7993 -2.08176,17.7877 -12.204,25.473 -29.1297,21.8191 8.77267,12.6714 -2.24731,37.095 26.9365,37.3964 -3.4509,23.5415 -29.1682,23.9916 -51.1739,8.77267 12.4279,14.8646 8.77437,46.4295 37.2838,44.5944 0.984473,2.67676 -1.10863,9.95415 -5.07572,12.634 -3.17027,2.14129 -4.86142,0.76252 -6.42643,4.84101 -0.973418,2.53616 -8.39963,12.9251 -22.7713,3.02599 -7.48744,-5.15736 -18.881,2.39386 -29.3284,-25.6184 -2.85137,12.9056 -4.86766,28.582 5.81783,37.2124 11.8242,9.54993 -6.07266,5.73903 -12.9674,8.82511 -15.1761,6.79238 -22.1766,-18.828 -27.0853,-22.2713 -10.5976,-7.4333 -5.06495,-13.9666 -11.8216,-14.2625 -4.05921,8.80725 4.14794,5.43685 2.66202,18.5689 -1.40598,12.4248 0.962646,14.4159 11.5203,22.0173 -19.7498,14.4051 -34.4027,-5.78296 -38.3071,-9.88186 -0.675213,29.5027 -19.2875,17.4107 -13.159,37.6359 -34.2819,-5.34331 0.092126,-35.2735 -21.2006,-44.9464 1.66961,17.708 -16.8832,32.1664 -26.3591,30.0033 -3.28904,-0.750615 -9.56949,0.774709 -0.929764,-10.635 3.6017,-4.75654 -4.13121,-18.5658 -5.78098,-19.749 -11.4523,-8.21226 -41.7467,1.96951 -69.8137,-18.133 -11.6884,-8.37156 -36.6222,-18.6489 -60.8088,-21.5368 -26.2874,-3.13852 -53.0408,3.6737 -60.0106,-3.08183 0.656504,-6.35443 8.73411,-11.7819 18.0502,-14.4252 -3.43474,-5.8252 -7.69238,-12.9912 -7.81541,-22.1275 -25.9407,-0.291118 -41.2852,41.3172 -51.535,34.073 -4.36819,-3.08721 -7.55717,-20.0724 -2.04803,-33.3269 4.07962,-9.81553 21.2202,-29.5036 38.9619,-32.1815l-0.731055 -2.92422c-6.74844,-5.23077 -11.6402,-17.3684 -10.3473,-32.7008z"/>
  <path fill="black" d="M78.0514 216.566c-6.39156,-16.7 0.824599,-26.5964 4.94816,-37.1112 2.88567,-1.03068 5.77191,-1.23647 8.65928,-0.61852 -0.206646,14.0202 8.24656,25.9784 19.7926,34.0186 -0.206362,-10.3085 -5.3606,-15.6691 -0.61852,-30.926 1.64891,0.000283465 4.12299,-0.824032 7.42224,-2.47408 0.205795,19.7929 6.18463,28.2464 17.9371,33.4001 1.03068,-7.0098 -7.21616,-22.0604 3.0926,-26.5964 3.50447,1.23732 7.00952,1.65005 10.5148,1.23704 -1.85556,7.21616 4.94816,16.2879 12.9889,19.7926 -1.85556,-8.24684 -1.23704,-15.6691 1.85556,-22.2667 31.9694,-16.3908 50.8414,10.5333 57.8072,14.2189 7.94325,4.20236 25.1776,4.99408 33.7337,28.459 -61.2335,30.926 -118.137,-22.2667 -178.134,-11.1334z"/>
  <path fill="black" d="M117.018 261.718l-5.56668 1.23704c-4.7418,-2.26772 -15.6691,-3.9172 -17.9371,-17.9371 7.83496,-1.85528 14.845,-1.23647 21.0297,1.85556 -1.64891,4.94816 -0.824315,9.89632 2.47408,14.8445z"/>
  <path fill="black" d="M142.996 261.718l-3.71112 0c-7.42196,-4.94816 -11.5452,-9.89632 -12.3704,-14.8445 5.15452,1.23704 11.5458,4.32964 15.463,3.71112 -0.828,5.57093 -0.20778,8.86848 0.61852,11.1334z"/>
  <path fill="black" d="M169.592 262.337l-5.56668 0c-5.97855,-4.32936 -9.4836,-7.83411 -10.5148,-10.5148 4.74208,0.61852 10.1027,2.47408 14.226,1.85556 -0.206079,2.8868 0.412441,5.77333 1.85556,8.65928z"/>
  <path fill="black" d="M179.489 254.296c2.06164,3.0926 7.21588,8.04076 9.89632,9.2778 10.3085,-0.61852 71.9544,24.7408 68.0372,-24.1223 -31.5445,16.7 -50.7186,14.226 -77.9335,14.8445z"/>
  <path fill="white" d="M42.071 144.073c-7.39106,8.80498 -5.35408,20.965 2.77994,28.671l5.67638 2.69036 0.92778 -1.5463c-12.8855,-8.24656 -14.0193,-22.2662 -4.32964,-30.926l0 -3.0926 -2.47408 1.23704 -2.58038 2.96646zm164.633 -36.6758l-6.34507 -0.552189c-104.954,13.6256 -145.161,-5.8286 -166.744,-2.08063 -10.025,1.74104 -10.0361,20.3791 -1.11487,31.868 2.40151,1.59477 4.80274,2.77682 7.20341,3.54643l-0.61852 -1.85556c-11.8545,-5.03717 -16.081,-34.0589 4.02038,-28.7612l9.89632 9.89632 1.85556 0 -5.56668 -9.2778 4.32964 0.30926 7.42224 12.0611 -4.32964 -11.4426 1.86378 0.784914 6.7955 5.09103 0.92778 -0.155055 -1.85556 -3.71112 2.47408 -0.463465 4.02038 4.94816 0.92778 -1.23704 -1.85556 -2.78334 4.6389 0 5.87594 6.1852 0.61852 -2.16482 -2.78334 -4.02038 3.40186 0.30926 4.6389 6.49446 0.92778 -1.23704 -2.78334 -4.32964 3.0926 0 6.80372 7.42224 1.39181 -0.464315 -4.79367 -7.26718 2.16482 0c2.68016,3.50504 5.05134,5.61969 8.04076,10.5148l-0.154488 -2.4755c-0.876756,-3.45203 -2.52595,-5.35918 -3.86589,-7.73008l5.56668 0.92778c2.21584,3.19663 4.89544,7.3715 6.1852,12.0611l0.773008 -3.40243c-0.876756,-3.40129 -2.83493,-6.18463 -4.17487,-8.96797l4.02038 0c3.60624,3.66151 5.256,7.78678 5.56696,17.0093 1.95562,-7.36895 1.13046,-12.5751 -3.09288,-17.0093l3.40186 0c6.69685,5.05247 5.61742,11.1345 7.42224,18.2463 1.18261,-9.36454 -0.569764,-15.0605 -4.32964,-18.2463l4.6389 0.30926c5.56356,5.00088 4.7931,10.465 6.49446,18.2463 2.80517,-1.48564 1.05335,-14.4422 -3.40186,-18.2463l3.71112 -0.30926c7.98407,8.09207 5.15424,15.2569 7.7315,22.8852 2.61241,-11.8638 1.1948,-16.6343 -3.71112,-23.5038l2.78334 0c7.52089,7.4744 5.61827,15.721 8.50479,23.6585 1.09247,-14.3229 -0.27411,-17.265 -5.41219,-23.6585l2.78334 -0.30926c9.684,7.01065 7.62718,16.1839 9.58706,22.8852 0.925512,-5.56838 2.98403,-16.1317 -4.02038,-22.8852l4.32964 0c2.93698,4.02293 3.71112,14.8433 5.56668,20.4112 2.35502,-2.85137 1.34986,-12.6675 -2.78334,-21.0297l3.40186 0c6.28441,7.78281 4.38123,15.7198 6.80372,21.9575 2.16227,-4.89827 3.13937,-13.9164 -4.63862,-21.8033l4.32936 -0.463465c5.01052,4.13603 4.87247,18.0678 7.42224,22.2667 1.08085,-14.0151 -0.671528,-20.0982 -3.71112,-22.576l3.71112 -0.30926c5.82038,7.93644 3.29868,12.7828 4.94816,19.1741 2.41909,-8.09065 0.667276,-12.0101 -3.40186,-19.1741l2.47408 0.154205c4.43027,3.97021 3.9172,10.2577 5.87594,15.6181 2.0588,-5.66929 1.23392,-10.9264 -2.47408,-15.7723l3.40186 -0.61852c1.99616,3.86674 3.31002,5.77701 3.0926,14.8445 2.29125,-4.47166 2.2388,-9.44533 -1.23704,-15.1537l3.0926 -0.30926c1.95789,2.78419 3.29783,6.18605 4.02038,10.2056 1.02869,-2.62914 0.101197,-6.23707 -2.16482,-10.5148l3.71112 -0.30926c2.54948,3.78766 2.24164,7.54952 2.78334,8.35002 0.411591,-1.90772 0.308126,-4.58759 -0.92778,-8.96854l4.6389 -0.30926c2.00948,3.76243 2.01062,6.44315 3.71112,9.89632 0.514488,-4.58589 -1.44284,-6.39128 -1.85499,-9.58706l4.32907 -0.92778 0 -2.16482zm-149.084 72.8068c-1.29288,15.3323 3.59887,27.47 10.3473,32.7008l6.6824 5.20753 1.23704 0 -0.61852 -1.85556c-10.5412,-9.66473 -14.7161,-21.7777 -14.5352,-35.5649l-3.11301 -0.487843zm11.0784 35.625c-17.7418,2.67789 -34.8823,22.3659 -38.9619,32.1815 -5.50914,13.2545 -2.32016,30.2397 2.04803,33.3269 0.640347,0.452693 1.30139,0.714615 1.98312,0.807874l0.369071 -3.10876c-15.8366,-11.211 4.18791,-50.3323 36.8019,-58.4501 0.572032,-1.58627 -0.435402,-5.02753 -2.24022,-4.75739zm20.283 49.8419c-2.8406,-5.09641 -5.56413,-11.126 -5.66192,-18.4065l1.84507 -10.5965 1.85556 0c-1.75266,8.14366 0.515055,18.5553 5.87594,29.3797l-3.91465 -0.376725zm2.15348 3.72104c-6.98684,1.98227 -13.2778,5.53096 -16.2632,9.86202l0.0932599 4.87503c5.74895,-20.1892 88.6329,-16.7528 138.36,-11.6941 13.3838,1.36148 29.2178,0.869386 38.4276,-5.41729 15.7527,-10.753 14.4201,-41.1815 -4.0697,-55.9616 4.94533,6.33459 7.82873,12.2567 8.65134,17.7676 -52.8829,29.744 -109.168,-17.2083 -170.71,-13.4419 -8.71087,2.83266 -4.43282,7.21191 -0.154488,6.643 46.3366,-11.7037 109.373,38.1356 171.482,10.3507 5.6367,36.8926 -12.3024,39.852 -46.3295,36.699 -35.7806,-3.3154 -87.1127,-7.99682 -119.488,0.31748zm218.402 100.162c-17.4495,-7.97103 1.60583,-28.9942 -8.21679,-39.4849l-3.2743 -4.69162 0.463465 -2.6263c20.8043,17.9206 -3.65641,38.0041 14.2129,46.3465l-3.18529 0.456378zm57.1601 -27.4153c-3.68079,-2.71786 -6.0789,-4.75852 -7.48942,-7.1966 -2.93046,-1.33455 -4.83052,-6.27392 -5.70048,-11.573l-1.69937 -1.08142c0.173764,8.1618 7.91774,22.6576 14.8893,19.851zm4.8257 -18.0221c2.73657,4.76901 6.14381,10.9344 10.6234,14.4062l1.48621 -1.2498c-8.96032,-5.1497 -9.57827,-15.243 -15.7578,-28.4258 -1.05392,2.67534 2.21613,9.60917 3.64819,15.2694zm102.733 -78.5889c-14.9,-1.74444 -16.5521,-11.4406 -17.9042,-21.3455l-3.04469 -6.7921 -0.308977 1.54488c2.65153,10.7371 2.85704,18.8739 11.1232,25.6451 -18.3841,-10.5568 -8.49685,-30.2284 -25.954,-34.9143 16.8412,10.8198 11.039,45.6985 36.0887,35.862zm1.59194 -75.6718c-6.79947,4.63521 -15.4673,-1.13017 -18.9953,-9.31323 -3.40101,-7.88769 -7.68785,-16.833 -13.4189,-23.1676l-4.33956 -0.16441c13.8008,11.5353 15.0883,42.3814 37.2317,35.9958 0.422929,-2.18551 0.702992,-0.72737 -0.477922,-3.35055zm2.9228 -51.4916c0.631559,-2.47181 0.393732,-4.6457 -0.642048,-6.06274 -5.63159,-7.70372 -17.1814,0.713481 -28.2543,-9.61597 -11.3715,-10.6081 -17.9025,-14.4879 -28.0185,-12.2426l-1.45474 2.42958c16.9855,-4.62643 23.7923,9.28375 36.2092,16.4676 9.43229,5.45726 17.0637,-1.55282 17.7072,7.01462l3.55323 -0.154488 0.9 2.16397zm-110.825 -58.254c25.4801,-14.3365 49.4036,-19.0607 70.6672,-28.5072 -0.285449,0.925229 -0.548221,1.82863 -0.790867,2.71361 -6.5795,0.92863 -8.98782,4.79254 -12.6318,7.72923l-0.617953 -2.00835c-1.96044,-1.45332 -2.83465,1.4349 -3.55323,4.94362l-1.23591 -1.08142 0.463465 -2.47181c-3.50221,0.412441 -5.14999,2.06022 -4.94362,4.94362l-2.00835 0.154488 -0.154488 -2.16284c-2.43525,0.0904252 -4.10542,1.40343 -4.48016,4.78914l-2.78079 0.154488 0.308977 -2.16284c-4.42885,0.97852 -5.76766,3.8109 -7.26095,5.71607l-1.69937 -0.463465 0 -1.69937c-3.75931,1.08142 -4.73783,3.86221 -6.643,6.02504l-1.85386 0.308977 -0.154488 -2.6263c-4.22277,1.08142 -5.66476,4.94362 -7.10646,6.95197l-1.08142 -0.308977 0 -2.47181c-2.36891,2.11153 -4.53175,4.42885 -6.48851,6.95197l-1.85386 -0.154488 0 -1.69937c-2.21443,1.64806 -7.05515,2.83238 -7.10646,8.18788l-1.23591 0.154488 0 -2.16284c-2.88397,2.67761 -5.04709,6.48879 -7.10646,10.8142l-0.617953 -2.31732c-3.9138,2.88397 -4.89232,7.00356 -7.41544,10.5052l-0.772441 -1.85386c-7.40268,7.28703 -15.5137,10.5316 -23.6367,11.5866 23.4026,-9.89065 25.1771,-24.7252 43.7908,-38.4784zm6.64526 -46.6325c-6.47207,2.98857 -19.4199,12.6105 -28.7861,16.9325 -14.7144,6.7904 -25.5637,15.7164 -41.6685,31.8379l0.244063 2.50753 4.01669 -1.23591 4.17118 -4.17118 0.154488 3.55323 15.2943 -16.2213 0.154488 2.6263c3.14107,-3.08977 3.9651,-6.17953 9.42378,-9.2693l0.154488 2.93528c3.29556,-3.03817 5.3555,-6.6943 9.88725,-9.11481l-0.154488 2.31732c4.94362,-3.14107 5.87055,-5.3555 8.80583,-8.03339l1.39039 1.54488c1.80227,-1.49329 2.52312,-3.45005 5.40709,-4.48016l0.92693 1.23591c3.86221,-3.81062 6.643,-7.62123 11.5866,-11.4321l-1.00857 -1.53269zm-106.21 54.8657c17.0827,2.5115 29.4208,-2.02876 70.6045,13.8694l1.08142 -0.463465 -0.92693 -2.16284c-18.0788,-7.28504 -40.0125,-14.2053 -61.4551,-16.6915 -23.9559,-2.77767 -43.1569,-0.463748 -60.3173,12.0886 -13.5142,9.88526 -13.0876,15.7235 -12.2598,26.8367l1.48139 4.49263 2.31732 -1.69937c-1.64806,-9.93827 -3.24454,-15.8604 4.48016,-23.7912 -4.63493,8.62583 -5.35607,15.7839 -3.39874,21.9373l1.69937 -0.463465c-5.31071,-23.9993 22.2537,-39.0164 56.6938,-33.9528m-1.97008 287.923c-1.88306,-0.739276 -2.31165,-2.81764 3.08806,-9.94848 3.6017,-4.75654 -4.13093,-18.5655 -5.78098,-19.749 -2.23682,-1.60384 -5.19222,-2.50639 -8.71002,-3.06964l1.32633 -1.82948c12.153,2.67761 15.5001,13.8524 16.9937,14.9854l2.16284 0.617953c1.76343,-9.0893 -5.98677,-16.0416 -9.2693,-21.1649 10.0525,6.70026 16.0143,19.5095 7.72441,25.0271 -0.657922,10.7598 -7.34089,10.2419 -7.53506,15.1311z"/>
  <path fill="white" d="M260.515 226.463c-9.42265,-19.4108 -18.3671,-25.0345 -29.9928,-27.7107 -8.77408,-2.01997 -13.091,-7.89789 -22.8906,-16.8228l6.1852 1.5463c7.0064,8.49629 13.6868,10.5211 21.0396,13.6307 12.0855,5.11144 22.2664,12.5787 25.6587,29.3565z"/>
  <path fill="white" d="M256.494 265.429c10.4117,-9.1749 12.5765,-23.4009 7.42224,-42.9871l0.92778 -0.61852c6.43153,19.7932 3.67342,38.2451 -8.04076,46.389l-0.30926 -2.78334z"/>
  <path fill="white" d="M216.291 180.383c3.40186,4.12328 6.34026,7.93815 9.93487,9.74155 3.5949,1.80369 7.84772,2.21641 11.4041,4.48441l1.85556 -0.92778c-7.83468,-4.84526 -13.5045,-3.19578 -20.1019,-12.6797l-3.0926 -0.61852z"/>
  <path fill="#666666" d="M243.196 196.155l3.71112 -0.61852c20.1277,6.4423 28.4258,23.9669 29.0704,44.8427 -1.5463,-8.14394 -3.50532,-15.0511 -5.87594,-20.7204 2.3709,9.2778 3.60794,18.5553 4.32964,27.8334l0.92778 -5.56668c3.40725,24.7042 -17.0875,44.4206 -40.2038,41.7501l-1.23704 -1.85556c24.1041,1.80425 40.2988,-12.9643 37.315,-44.9294 -1.65203,-17.6976 -9.1063,-35.4325 -28.0372,-40.7356z"/>
  <path fill="#666666" d="M271.648 207.288c15.5146,30.6947 13.5558,63.0125 -9.58706,72.3668 22.3957,-12.5249 19.4576,-48.5019 8.04076,-70.5113l1.5463 -1.85556z"/>
  <path fill="#666666" d="M268.865 282.748c15.1937,-11.6484 22.4354,-33.503 12.6797,-66.4909 11.2408,19.6931 9.59074,57.2154 -12.6797,66.4909z"/>
  <path fill="white" d="M280.926 211.618c-4.84526,-7.83496 -7.6286,-15.6696 -8.35002,-23.5038l-1.85556 0c1.13358,10.3604 4.12186,18.9162 10.2056,23.5038z"/>
  <path fill="white" d="M294.533 216.875c-10.9278,-11.4429 -17.3188,-21.6485 -17.3186,-30.6167l-2.78334 0.92778c2.37005,10.9792 7.8327,21.1845 20.1019,29.689z"/>
  <path fill="white" d="M297.008 210.381c-5.25742,-8.76246 -13.2982,-12.2675 -15.7723,-26.2871l-2.16482 0.92778c2.11295,11.1586 9.63837,20.3848 17.9371,25.3593z"/>
  <path fill="white" d="M306.285 206.979c-11.444,-5.51509 -17.2165,-13.8654 -20.4112,-23.5038l-3.0926 -0.30926c5.90145,13.7361 13.4779,22.4467 23.5038,23.813z"/>
  <path fill="white" d="M303.193 200.485c-7.42337,-7.47411 -12.784,-14.6903 -13.6074,-21.3389l-3.0926 -0.92778c3.50447,11.1334 9.07115,18.5556 16.7,22.2667z"/>
  <path fill="white" d="M312.161 197.083c-5.66986,-5.97912 -17.2157,-10.1027 -18.8649,-21.6482l-3.0926 0c3.14277,10.9276 11.3896,17.3188 21.9575,21.6482z"/>
  <path fill="white" d="M317.109 188.733c-11.9597,-3.35027 -18.0417,-11.4945 -20.1019,-17.9371l-4.32964 -0.30926c7.73122,13.0918 15.8752,19.1738 24.4315,18.2463z"/>
  <path fill="white" d="M309.069 181.001c-2.47408,-3.63543 -7.11326,-8.02092 -8.35002,-14.226l-3.71112 -0.30926c3.65981,7.37122 7.57616,12.9373 12.0611,14.5352z"/>
  <path fill="white" d="M313.708 172.961c-4.84526,-4.43282 -8.04104,-8.45348 -9.58706,-12.0611l-3.0926 0.61852c4.6389,6.70054 8.86508,10.5146 12.6797,11.4426z"/>
  <path fill="#666666" d="M307.213 226.463c7.01008,6.28838 13.608,9.69052 19.7926,10.2056l-0.61852 3.71112c-6.49446,-1.44312 -13.8132,-6.18463 -21.9575,-14.226l2.78334 0.30926z"/>
  <path fill="#666666" d="M309.687 221.514c7.01008,6.28838 9.89689,9.38126 20.7204,9.2778l-0.30926 4.94816c-6.80372,-0.824599 -15.0503,-6.49389 -23.1945,-14.5352l2.78334 0.30926z"/>
  <path fill="#666666" d="M313.398 216.257c7.01008,6.28838 11.1339,9.38126 23.5038,8.04076l0.30926 4.02038c-11.7519,1.03096 -16.5966,-4.32907 -26.2871,-12.3704l2.47408 0.30926z"/>
  <path fill="#666666" d="M318.346 205.124c6.39156,7.21616 12.371,4.12384 24.7408,2.78334l-0.30926 2.78334c-14.226,3.50504 -17.2151,2.16539 -26.9056,-5.87594l2.47408 0.30926z"/>
  <path fill="#666666" d="M314.017 209.762c6.39156,7.21616 12.6802,7.21644 25.0501,5.87594l-0.30926 2.78334c-14.226,1.95874 -17.5244,-0.927213 -27.2149,-8.96854l2.47408 0.30926z"/>
  <path fill="#666666" d="M323.295 199.866c4.536,6.28838 14.2265,3.81458 24.4315,0.61852l0.61852 3.40186c-14.226,2.88652 -17.8336,3.71169 -27.5241,-4.32964l2.47408 0.30926z"/>
  <path fill="#666666" d="M421.949 47.401c-12.9504,13.7772 -37.2362,15.0959 -49.5882,26.9932 -8.85289,8.52662 -7.91547,17.9901 -16.9027,31.4569l5.56668 -3.0926 0.61852 2.78334 8.96854 -19.4834 -2.16482 22.2667 2.47408 0.30926 0.255118 -8.047 1.9097 -11.1271 1.5463 -1.23704 -0.61852 13.9167 1.5463 0.30926 1.85556 -11.7519 2.47408 -9.58706 -0.61852 7.11298 0 9.58706 2.78334 -7.11298 0.30926 -3.71112 3.0926 -8.65928 -1.5463 9.2778 0 3.40186 -1.23704 2.47408 -0.30926 3.0926 2.16482 -0.92778 4.02038 -17.3186 3.0926 -0.61852 -0.61852 10.2056 1.85556 -1.23704 0.92778 -1.85556 0.61852 -8.04076 0.61852 -2.78334 2.16482 -1.23704 -0.92778 5.56668 0.61852 7.11298 2.16482 -2.47408 1.23704 -9.2778 4.6389 -6.1852 -1.23704 6.49446 0.30926 3.0926 1.5463 -2.78334 2.16482 -7.11298 3.0926 -1.23704 -1.85556 3.40186 0.30926 2.16482 2.16482 -2.78334 2.47408 -6.1852 2.16482 -0.61852 -0.61852 3.71112 -3.40186 6.1852 -3.40186 7.11298 1.85556 -0.30926 7.42224 -12.3704 3.0926 -11.4426 0.92778 -7.42224z"/>
  <path fill="#666666" d="M363.808 34.7213l-0.92778 0.61852 -8.04076 8.04076 1.5463 0.30926 4.32964 -3.40186 0 3.0926 -10.5148 7.7315 0 2.47408 4.02038 -2.16482 6.49446 -4.6389 -1.5463 4.32964 -11.4426 6.1852 -2.78334 0.61852 -1.5463 1.85556 3.0926 -0.30926 1.85556 1.5463 7.7315 -4.32964 -3.90586 5.21717 -12.1757 4.06063 -0.30926 1.5463 6.1852 0 4.02038 -0.92778 -4.02038 4.02038 -7.11298 0.30926 1.23704 1.85556 5.25742 0 -2.78334 3.40186c-16.9061,-1.75266 -17.7307,-11.8551 -47.9353,-11.7519 28.7938,6.28101 26.2239,9.65566 45.7705,15.1537 -0.92778,2.3709 -6.80372,15.2566 -19.4834,16.3908l-0.61852 1.85556c22.0606,-1.64948 29.2768,-24.9472 45.7705,-36.4927l-3.0926 0.30926 -9.2778 6.1852c11.615,-20.4976 11.6796,-29.9622 15.1537,-42.3686l-3.0926 1.5463 -1.85556 7.7315z"/>
  <path fill="white" d="M304.43 77.3992c9.3807,1.85556 18.1432,4.94816 27.2149,7.42224l2.78334 -0.30926 -0.92778 -1.5463c-7.21616,-2.06192 -13.8138,-4.43282 -21.6482,-6.1852 -2.88652,-0.618237 -5.3606,-0.411874 -7.42224,0.61852z"/>
  <path fill="white" d="M364.735 135.849c-3.19578,-5.25742 -7.01008,-8.96854 -15.1537,-12.0611l0 2.47408c4.22646,1.13386 9.27752,4.32936 15.1537,9.58706z"/>
  <path fill="white" d="M338.448 159.044c-2.67846,-7.32785 -5.46293,-10.5199 -13.9167,-12.3704l-0.30926 1.85556c4.22646,1.13386 9.27752,4.0201 14.226,10.5148z"/>
  <path fill="white" d="M344.015 158.735c-0.30274,-4.06035 -4.11251,-10.5265 -12.6797,-15.1537l-3.0926 1.23704c6.13389,1.0817 14.6891,10.2563 15.7723,13.9167z"/>
  <path fill="white" d="M348.963 151.312c-0.303024,-4.58674 -4.73216,-9.5196 -13.2982,-12.9889l-3.0926 1.23704c6.13389,1.0817 15.3077,8.0915 16.3908,11.7519z"/>
  <path fill="white" d="M352.984 146.364c-0.0399685,-3.79814 -4.77298,-9.64035 -15.1537,-12.6797l-3.0926 1.85556c6.23651,-0.465449 16.4407,6.64725 18.2463,10.8241z"/>
  <path fill="white" d="M341.85 129.046l-1.85556 1.85556c3.40158,0.412158 6.80344,1.23647 10.2056,2.47408l0 -1.85556c-4.10344,-1.48507 -6.0069,-1.86973 -8.35002,-2.47408z"/>
  <polygon fill="white" points="352.674,135.54 355.458,135.54 360.406,142.962 "/>
  <path fill="#666666" d="M348.345 163.992c3.71112,9.48416 8.96854,11.2365 10.2056,29.3797l2.78334 0c0.30926,-12.8857 -8.04076,-22.0604 -12.9889,-29.3797z"/>
  <path fill="#666666" d="M354.221 163.683c3.7114,10.0312 7.42281,11.4443 8.65928,27.2149l1.85556 -0.30926c-1.84025,-15.7484 -6.16791,-20.3876 -10.5148,-26.9056z"/>
  <path fill="#666666" d="M354.221 155.023c5.25742,9.79342 12.3704,13.4014 13.6074,31.5445l3.40186 2.47408c0.30926,-12.8857 -9.89632,-26.6993 -17.0093,-34.0186z"/>
  <path fill="#666666" d="M358.55 149.457c5.78353,9.79342 14.4556,16.4942 14.5352,34.6371l3.40186 2.47408c-2.16482,-20.9265 -8.96854,-29.1733 -17.9371,-37.1112z"/>
  <path fill="#666666" d="M365.663 147.601c5.25742,9.79342 12.3704,15.8754 13.6074,34.0186l2.16482 2.16482c1.23704,-14.432 -8.65928,-28.8641 -15.7723,-36.1834z"/>
  <path fill="#666666" d="M370.921 146.364c5.87594,7.01008 12.0611,15.5662 13.2982,31.2353l3.0926 3.71112c-2.85506,-16.035 -6.90492,-29.2079 -16.3908,-34.9464z"/>
  <path fill="#666666" d="M322.058 139.56c-2.26772,-8.76218 -33.2969,1.95874 -48.5538,-10.5148l-2.47408 0.61852c10.3088,7.52542 16.9064,13.5045 35.5649,14.226l0.30926 -2.47408c-5.97912,-0.561827 -12.5762,0.16526 -17.9371,-2.47408 11.0305,1.13414 21.7514,-2.06164 33.0908,0.61852z"/>
  <path fill="#666666" d="M259.587 111.418c5.96778,9.20608 10.7785,18.7268 35.2556,22.8852 -6.9069,-2.78334 -15.9786,-5.87594 -20.4112,-9.58706l4.02038 -0.61852 -4.02038 -2.78334 -4.02038 0.61852 -10.8241 -10.5148z"/>
  <path fill="#666666" d="M276.287 125.025l2.78334 0.61852c4.86964,2.60986 13.1973,5.74866 22.271,4.92662 13.2412,-1.19934 28.9347,-0.56863 33.7051,3.4234 -13.6074,-3.60822 -25.9778,0.824599 -38.9668,1.23704 -3.50504,-4.32964 -14.7416,-5.25742 -19.7926,-10.2056z"/>
  <path fill="white" d="M311.852 106.16c-9.79342,6.2881 -20.2054,4.53544 -36.4927,-11.1334l2.78334 0.30926c6.59736,4.32964 11.0302,13.9167 29.9982,11.1334l3.71112 -0.30926z"/>
  <path fill="white" d="M275.978 99.9752l6.80372 3.0926c13.7103,16.107 31.8535,7.1898 46.0797,7.11298l5.25742 1.85556c-23.7101,-2.16482 -38.4514,13.2982 -58.1409,-12.0611z"/>
  <path fill="white" d="M265.463 91.0066l0 1.85556c1.95846,1.95846 4.22646,4.22646 5.87594,6.1852l2.16482 -0.92778c-3.17622,-3.4441 -4.97679,-5.37506 -8.04076,-7.11298z"/>
  <polygon fill="white" points="274.122,99.9752 273.813,102.14 280.617,109.253 282.782,108.944 "/>
  <path fill="white" d="M300.1 121.623c-31.5445,-9.38098 -23.813,-18.4527 -35.2556,-26.2871 5.97884,7.42224 9.48388,26.5964 35.2556,26.2871z"/>
  <path fill="white" d="M339.685 117.603c-13.2982,-1.6492 -25.0501,2.57726 -37.1112,2.47408l-0.61852 2.16482c15.0506,-0.721701 19.277,-2.98942 37.7297,-4.6389z"/>
  <path fill="white" d="M265.772 94.0992c-9.17547,-10.5945 -28.5557,-9.67919 -33.0908,6.49446 3.8109,-3.72699 4.88977,-7.35251 8.92687,-9.56892 5.90088,-3.23943 14.9604,-3.47131 21.9991,3.38372l2.16482 -0.30926z"/>
  <path fill="white" d="M216.909 90.3881l-1.5463 -0.30926c2.88624,-10.7209 18.1432,-15.5659 23.5038,-17.6278l0 1.5463 2.47408 -0.61852 0.30926 -0.92778c8.65928,-3.50476 22.4725,-1.13358 36.8019,1.5463l-6.80372 0c-17.0093,-4.43254 -50.4094,1.95874 -54.739,16.3908z"/>
  <polygon fill="white" points="219.074,89.1511 220.93,89.1511 217.837,95.027 217.621,92.8817 "/>
  <path fill="white" d="M223.713 102.14c-1.85556,-0.61852 -5.25742,-0.30926 -5.56668,-1.85556l-0.30926 2.78334c2.3709,0.515339 4.32936,0.205795 5.87594,-0.92778z"/>
  <path fill="white" d="M246.907 83.8936c-16.5971,4.32964 -13.0921,10.8241 -18.2463,15.7723 1.44312,-8.35002 3.50476,-15.1537 18.2463,-15.7723z"/>
  <path fill="white" d="M305.358 84.5122c-16.3151,-5.08337 -23.0437,-1.1897 -31.0085,-2.48088 -14.1982,-2.30145 -21.9025,-4.37584 -36.1009,-0.611717 18.4096,-8.53597 31.7744,-0.673796 41.1523,-1.60044 18.7994,-1.85811 21.1839,2.67336 25.9571,4.69304z"/>
  <path fill="white" d="M290.204 149.766c-11.1334,-1.03124 -17.3186,-4.53629 -18.5556,-10.5148l2.16482 0c2.3709,5.97884 10.927,7.0098 16.3908,10.5148z"/>
  <path fill="white" d="M212.27 170.177c-6.9069,-1.5463 -12.2675,-0.30926 -18.8649,0.92778 4.12328,-1.85556 14.1228,-5.25742 18.8649,-0.92778z"/>
  <path fill="white" d="M214.435 168.94l0.92778 2.16482c2.16482,-0.721701 4.6389,2.57698 6.80372,1.85556 -1.75266,-2.16482 -4.32992,-3.50532 -7.7315,-4.02038z"/>
  <path fill="white" d="M222.167 165.848c-16.145,-4.53544 -22.4272,1.44369 -29.9982,2.16482 8.55582,-6.13474 20.9256,-9.02126 29.9982,-2.16482z"/>
  <path fill="white" d="M222.785 166.157l2.47408 2.16482c2.16482,0.206079 3.0926,1.6492 5.25742,1.85556 -1.75266,-2.16482 -4.32992,-3.50532 -7.7315,-4.02038z"/>
  <path fill="white" d="M230.826 162.755c-4.39314,0.721985 -14.0771,-5.97855 -30.3075,0.30926 7.47298,-5.05162 19.842,-5.77276 30.3075,-0.30926z"/>
  <path fill="white" d="M240.413 159.972c-5.01166,-0.204378 -15.624,-5.76992 -30.926,-1.5463 6.13276,-5.67014 24.6867,-3.60766 30.926,1.5463z"/>
  <path fill="white" d="M248.454 158.425c-4.74888,0.846709 -11.6442,-6.5486 -27.2149,-4.32964 6.44202,-4.12384 20.9755,-0.824315 27.2149,4.32964z"/>
  <path fill="white" d="M247.835 171.414c-6.28838,1.44312 -8.86564,-5.15452 -14.8445,-7.11298 9.07144,0.412158 7.31906,5.4635 14.8445,7.11298z"/>
  <path fill="white" d="M255.257 167.394c-6.28838,1.44312 -7.93786,-3.91748 -13.9167,-5.87594 9.07115,0.929481 6.391,4.53657 13.9167,5.87594z"/>
  <path fill="white" d="M257.422 163.373c-2.37118,-1.23732 -4.74236,-2.88709 -7.11298,-4.94816 0.30926,2.88595 2.67988,4.53544 7.11298,4.94816z"/>
  <path fill="#666666" d="M60.7329 149.766l1.5463 2.47408c17.4685,1.28835 23.1508,-1.43603 42.9871,-11.4426l2.10869 -3.02202c-11.0546,5.88586 -15.7819,6.42898 -22.8291,8.5887l19.4834 -10.2056 -0.126425 -1.81332c-7.58637,3.59405 -13.6964,7.4693 -22.7588,10.7819l-1.5463 -0.92778c6.41027,-2.26772 11.1334,-4.53572 16.7,-6.80372l-0.0983623 -1.71496c-5.6829,2.9092 -12.3676,5.90599 -17.8387,6.35386l0 -1.23704c6.38448,-1.60668 11.7026,-3.51836 15.463,-5.87594l-1.5463 -0.61852c-4.24999,1.51824 -10.7495,5.35635 -14.0854,3.85172l-0.548221 -1.6869c5.38895,-0.604914 9.95726,-2.45736 14.9709,-4.5686l-1.63049 -0.787181c-5.22369,2.26006 -9.64517,3.79247 -13.8606,3.19096l-0.576284 -1.78526c3.40611,-0.495496 6.87884,-1.59761 10.4726,-3.78142l-2.19288 -0.238961c-4.3234,1.9525 -7.9784,3.23688 -9.559,2.09452l-0.61852 -1.23704c5.17408,-0.313795 7.49112,-2.06249 11.1609,-4.25934l-0.631843 -0.534331c-3.15354,1.35439 -6.65859,2.84939 -11.1475,2.93811l-0.61852 -0.92778c2.3332,-0.484725 4.66668,-1.1452 7.00044,-2.19288l-0.534048 -1.1948c-2.16624,1.11543 -4.66611,1.78554 -7.39418,2.15065l-3.40186 -4.02038 -1.85556 0 0 0.92778c7.039,6.37484 7.7607,14.5879 6.49446,24.7408l-1.25093 -0.210898c0.408756,-5.27018 -0.843024,-10.2373 -3.07871,-13.3965l-0.983906 0.505985c0.815245,2.85336 2.42702,6.71443 0.056126,14.957l-0.92778 0.30926 -0.196725 -3.96425 -1.60243 -1.64466 -1.01225 5.22936c-1.23732,0.801638 -2.56847,1.13414 -3.99232,0.998079z"/>
  <path fill="#666666" d="M250.928 309.963c-10.3731,-0.450992 -37.5151,-0.724819 -47.7669,-8.2253 -22.265,-16.2896 -36.5905,-26.2313 -53.6704,-23.01 48.6567,5.77276 45.6673,42.7808 101.437,31.2353z"/>
  <path fill="white" d="M241.959 273.779c-6.5435,6.49106 -23.2209,3.47386 -50.6812,0.831402 -24.3162,-2.34 -64.8009,-2.55147 -89.1043,-0.522142 66.697,-9.68996 121.024,6.28838 139.786,-0.30926z"/>
  <path fill="white" d="M36.3013 264.811c0,1.64948 -3.71112,-1.33994 -2.78334,-3.40186 6.85191,-30.3973 45.4176,-47.3287 104.53,-33.0908l-0.61852 1.5463c-47.1081,-13.7716 -99.2674,1.90857 -101.128,34.9464z"/>
  <polygon fill="white" points="175.159,237.905 145.779,230.483 146.707,232.338 175.468,240.07 "/>
  <path fill="#666666" d="M33.8273 264.192c1.85556,1.75238 6.49446,1.95846 9.2778,-4.02038l0.30926 3.0926c-3.40158,5.3606 -6.49418,6.59736 -9.89632,3.71112l0.30926 -2.78334z"/>
  <path fill="#666666" d="M29.8069 262.027l-0.92778 4.6389c3.3823,11.7261 14.2943,10.6277 18.5409,2.28104 3.96737,-7.79783 15.4973,-24.2773 30.6315,-24.857l0 -3.71112c-15.3953,2.89843 -25.916,14.7305 -31.7758,23.7872 -6.1424,9.49408 -13.3013,13.3095 -16.4687,-2.13902z"/>
  <polygon fill="#666666" points="93.8237,238.833 95.9885,240.379 108.359,240.688 108.668,238.524 "/>
  <path fill="#666666" d="M126.296 242.235l2.47408 1.5463 9.58706 2.16482c1.5463,0.412158 4.02038,-3.19578 1.85556,-3.40186l-13.9167 -0.30926z"/>
  <path fill="#666666" d="M166.809 245.946l-2.47408 2.16482 -9.89632 -2.16482 0.30926 -1.5463c4.02066,-0.308977 8.04104,0.206362 12.0611,1.5463z"/>
  <path fill="#666666" d="M180.417 246.255l0 3.0926c29.8948,4.43282 54.8416,1.03096 74.8409,-10.2056l0.30926 -3.71112c-20.6691,13.2472 -46.2345,15.721 -75.1502,10.8241z"/>
  <path fill="white" d="M280.307 342.435c5.31185,-4.05269 4.49887,-17.4093 -0.543685,-25.8287 -4.67575,-7.80633 -9.89405,-11.3406 -10.2804,-18.3954l-1.23704 0c0.102898,16.9061 15.6691,13.7103 12.0611,44.2242z"/>
  <path fill="white" d="M278.452 302.231c4.74208,8.14394 14.4323,7.01008 14.226,26.2871l-1.5463 0c-3.40186,-21.1326 -14.8445,-18.7617 -12.6797,-26.2871z"/>
  <path fill="#666666" d="M278.761 327.591c0.412441,10.9267 -2.67988,19.3799 -6.49446,21.6482l0 2.47408c6.2898,-1.54488 9.69166,-8.34832 8.04076,-24.1223l-1.5463 0z"/>
  <path fill="#666666" d="M284.019 347.074c11.0041,-11.3913 7.86019,-26.03 -0.61852,-35.5649l-0.92778 2.78334c6.70281,13.7109 4.6406,24.7411 -2.16482,32.4723l3.71112 0.30926z"/>
  <path fill="#666666" d="M293.296 335.631l3.0926 -1.5463c1.75266,-15.8754 -2.26772,-26.39 -12.0611,-31.5445l0.30926 -2.78334 -6.1852 -3.40186 -1.23704 2.47408 4.94816 4.02038 0.30926 3.0926c7.31963,6.59764 12.1643,12.1643 10.8241,29.689z"/>
  <path fill="white" d="M310.924 364.702c-6.5795,-11.4165 4.61197,-18.828 3.14589,-33.0132 -1.27162,-12.3027 -7.66404,-13.7625 -8.40331,-21.4166 -11.4423,-6.59736 -14.6381,-12.9886 -15.1537,-27.5241l-0.92778 0.30926c-1.44312,14.0199 3.19606,20.5143 11.1334,26.5964 1.38189,7.45427 9.70215,10.2501 10.423,19.1421 1.70561,21.0328 -9.81412,26.3645 -0.217417,35.9062z"/>
  <path fill="white" d="M295.77 285.222l1.23704 1.85556c1.44284,17.5246 19.0701,16.2876 23.1945,30.3075 -8.14394,-10.5148 -23.0916,-9.58706 -24.4315,-32.163z"/>
  <path fill="#666666" d="M311.852 361.609l-0.30926 -2.16482 -1.85556 -3.0926c4.12356,-7.52514 7.6286,-19.9987 4.32964,-29.3797l1.23704 -4.94816c7.52542,15.3856 0.824315,16.8806 1.23704,25.9778 22.8691,-24.391 1.15994,-39.4713 -12.5666,-50.3422 -8.10454,-6.41849 -3.51496,-20.6572 -8.15386,-28.2098l2.47408 0c4.6647,2.68498 0.550488,13.1343 6.26259,20.1166 5.8544,7.15663 15.4193,8.18363 20.4327,16.5373 4.15389,6.92107 5.04624,19.5758 7.94183,27.9814l-5.25742 1.5463c0.412158,7.31906 -5.9794,15.6694 -12.6797,18.5556l0 4.02038 -3.0926 3.40186z"/>
  <path fill="#666666" d="M314.326 313.055c0.818079,3.65301 4.85008,6.21014 5.93575,8.99263 2.38876,6.12227 1.51824,12.1011 -0.678331,21.3148 3.81402,-4.94816 5.15396,-11.1334 4.02038,-18.5556l2.78334 6.80372 -0.92778 -8.35002 -11.1334 -10.2056z"/>
  <path fill="white" d="M343.397 343.363c-14.3725,-4.99493 -10.933,-26.3617 -20.1733,-39.7806 -7.83922,-11.3839 -20.7553,-7.51692 -21.2675,-23.6177l0.92778 0.61852c3.43559,15.2212 14.2166,9.68457 23.7047,23.0188 8.91326,12.5266 1.20671,28.9531 22.9935,40.3795l-6.1852 -0.61852z"/>
  <path fill="#666666" d="M356.385 340.889c-7.11298,2.78334 -11.1334,-3.0926 -16.7,-4.6389 4.32964,4.6389 10.2056,10.5148 16.7,4.6389z"/>
  <path fill="white" d="M346.18 336.25c-2.07865,-3.81345 -6.69317,-8.13062 -8.47389,-13.6451 -2.44006,-7.55689 -2.00325,-16.5495 -4.76192,-22.1326 -4.77213,-9.65736 -10.7827,-11.8939 -15.7093,-20.933 -3.8554,-7.07358 -0.289701,-13.5301 -12.1864,-18.7486l-0.30926 1.85556c10.8111,4.80614 5.73449,10.2963 9.576,18.0397 3.9172,7.89619 11.1271,9.3464 15.6385,17.5054 6.40318,11.5804 -1.16419,27.4252 16.2264,38.0588z"/>
  <path fill="white" d="M310.924 256.151l0.92778 3.40186c9.01333,7.35109 6.27534,13.7753 10.6498,21.1261 2.46047,4.13518 7.25103,5.66504 10.2444,9.9995 3.8486,5.57348 5.63103,13.9674 8.79478,19.2838l1.5463 -0.30926c-3.3823,-8.57537 -5.88983,-16.3021 -9.21147,-20.8865 -3.32164,-4.58419 -6.84255,-6.15203 -10.3912,-11.3176 -2.89814,-4.21852 0.945638,-10.5514 -12.5603,-21.2978z"/>
  <path fill="white" d="M325.15 272.542c-1.13414,-11.5458 -9.69024,-14.7416 -14.226,-21.3389 7.7315,3.81402 19.7926,12.8857 17.3186,27.8334l-3.0926 -6.49446z"/>
  <path fill="white" d="M332.882 279.655c-0.256536,-18.197 -5.7206,-25.8253 -17.0093,-32.7816l1.5463 2.78334c7.8344,5.66958 12.3698,14.2257 13.6074,25.6686l1.85556 4.32964z"/>
  <path fill="#666666" d="M326.696 290.789l-3.71112 -7.42224c0.412441,3.29868 1.6492,5.77276 3.71112,7.42224z"/>
  <path fill="#666666" d="M331.954 296.974l2.78334 7.11298c7.31906,9.17462 2.88624,27.3178 17.3186,35.8742l0.92778 -1.23704c-8.30637,-6.56674 -5.7104,-29.0112 -10.1512,-24.2547 -2.25156,-6.26826 -5.36202,-12.5425 -10.8785,-17.4954z"/>
  <path fill="#666666" d="M355.767 339.342c-9.703,-7.96337 -5.9434,-32.1834 -15.5418,-39.6332l-2.08602 -4.90025c18.9678,11.5455 9.17462,30.5136 17.9371,42.0594l-0.30926 2.47408z"/>
  <path fill="white" d="M382.673 326.663c-8.76246,-6.80372 -4.84526,-26.2871 -16.0815,-39.8945 13.7103,9.58706 7.62832,25.0501 16.0815,39.8945z"/>
  <path fill="white" d="M382.673 301.303c2.01147,-8.55723 -2.73118,-14.9485 -11.1334,-19.1741l-1.23704 0.61852c5.97884,5.4635 7.31906,10.6177 10.5148,16.3908l1.85556 2.16482z"/>
  <path fill="white" d="M386.384 311.818c-2.57726,-11.649 -3.60822,-23.2977 -11.7519,-32.7816l3.71112 0.30926c7.21701,7.67849 7.83496,14.6889 8.04076,32.4723z"/>
  <path fill="white" d="M382.673 276.872l-1.5463 -0.30926c6.1852,10.7209 5.56668,22.0604 8.35002,33.0908 -2.268,-10.9273 4.43254,-20.9268 -6.80372,-32.7816z"/>
  <path fill="white" d="M384.837 275.635l1.23704 -1.5463c7.85707,6.40829 4.95808,12.0969 6.80372,18.5556 -0.747213,-7.19037 -3.0875,-14.0258 -8.04076,-17.0093z"/>
  <path fill="white" d="M409.578 335.013c-3.8143,-2.68044 -6.70082,-6.28838 -9.58706,-9.89632 0.102898,5.77276 5.15424,10.6177 9.58706,9.89632z"/>
  <path fill="white" d="M393.497 261.409l5.56668 4.32964c6.11207,14.3257 2.83833,22.0986 18.5556,36.8019 -20.1019,-12.7828 -14.5352,-28.349 -24.1223,-41.1316z"/>
  <path fill="white" d="M421.33 310.89c-12.6391,-1.02671 -19.2336,-13.089 -18.8649,-24.1223l2.16482 2.16482c1.39039,12.4228 7.88485,18.6075 16.7,21.9575z"/>
  <path fill="white" d="M429.989 307.179c-5.96041,-7.03956 -13.5198,-12.8809 -17.8226,-21.8296 -4.04164,-8.40586 -3.60964,-18.8263 -9.70158,-22.7038l-2.16482 0 1.02274 1.68888c9.24605,13.663 1.4828,24.5427 28.6662,42.8446z"/>
  <path fill="white" d="M398.136 331.302c-3.7114,-2.68044 -7.01037,-6.18577 -9.89632,-10.5148 1.23676,6.80344 4.53515,10.3082 9.89632,10.5148z"/>
  <path fill="white" d="M405.867 260.79l5.87594 0c9.79314,13.2982 3.50476,24.4315 22.8852,42.6779 -25.0501,-14.5352 -16.0815,-30.6167 -28.7612,-42.6779z"/>
  <path fill="white" d="M413.599 256.77l8.65928 3.0926c12.164,15.0506 2.06164,26.39 25.3593,45.152 -26.4935,-14.5352 -21.4421,-34.6371 -34.0186,-48.2446z"/>
  <path fill="white" d="M324.532 240.379l-0.30926 2.78334c14.0196,7.8344 10.1024,31.4413 37.4205,34.6371l-0.30926 -1.85556c-23.7101,-3.19578 -21.4421,-28.6583 -36.8019,-35.5649z"/>
  <path fill="white" d="M359.169 271.614c-16.7,-8.76246 -14.8445,-25.5657 -27.8334,-31.8538l0 1.85556c10.5148,6.2881 9.58706,24.9469 27.8334,29.9982z"/>
  <path fill="white" d="M362.571 266.976c-15.8754,-7.7315 -8.86564,-23.1945 -27.2149,-28.7612 15.1537,10.4117 8.96854,23.6067 27.2149,28.7612z"/>
  <path fill="white" d="M358.86 261.1c-6.9069,-8.86564 -4.536,-18.968 -20.7204,-26.5964l3.0926 -0.61852c14.2257,6.90633 14.2257,16.9058 17.6278,27.2149z"/>
  <path fill="white" d="M343.087 229.246l0.92778 1.85556c6.03071,1.95817 11.3907,7.93701 15.7723,19.7926 -2.268,-12.1646 -7.83468,-19.3808 -16.7,-21.6482z"/>
  <path fill="white" d="M376.178 266.666c-20.8236,-4.02038 -5.77304,-26.9056 -29.9982,-41.7501l-0.61852 2.16482c18.2463,7.62832 10.2056,41.2345 30.6167,39.5853z"/>
  <path fill="white" d="M387.621 251.513c-17.2157,-5.77304 -13.7106,-25.4625 -36.8019,-33.0908l-0.92778 0.92778c17.4215,7.31906 19.9987,26.39 35.5649,34.0186l2.16482 -1.85556z"/>
  <path fill="white" d="M357.932 213.783l2.16482 0.30926c21.2358,10.6177 19.8955,32.3691 35.8742,31.8538l-2.47408 1.23704c-14.3291,-0.30926 -19.3805,-23.5038 -35.5649,-33.4001z"/>
  <path fill="white" d="M390.713 240.07c-5.91449,-3.20854 -12.1388,-15.0766 -17.744,-22.9241 -4.60205,-6.44315 -14.0454,-10.7983 -18.7486,-17.2797 8.10341,6.60529 14.3518,8.57226 22.7642,17.6516 5.66986,6.11944 7.19377,16.0659 13.7285,22.5522z"/>
  <path fill="white" d="M389.476 229.864c-7.83468,-9.69024 -8.86564,-20.3083 -23.5038,-29.0704 18.3492,4.7418 18.7617,21.8543 23.5038,29.0704z"/>
  <path fill="white" d="M368.447 195.537l2.78334 0c16.2876,9.48388 13.7103,27.9363 28.4519,40.5131 -13.1953,-8.55638 -17.731,-31.6477 -31.2353,-40.5131z"/>
  <path fill="white" d="M429.062 242.235c-5.66986,-3.19578 -11.34,-5.56696 -17.0093,-7.11298 5.97884,-1.03096 11.3394,0.102898 17.0093,7.11298z"/>
  <path fill="white" d="M433.082 235.74l3.40186 3.71112c2.4738,6.80372 6.28781,14.4318 19.7926,18.2463l-4.94816 0c-10.9806,-3.84492 -16.3406,-12.7596 -18.2463,-21.9575z"/>
  <path fill="white" d="M433.082 219.04l3.71112 1.5463c8.45292,9.89632 9.48388,29.3797 25.9778,29.3797l1.5463 1.5463c-19.6897,4.6389 -20.8236,-21.6482 -31.2353,-32.4723z"/>
  <path fill="white" d="M390.404 195.537c5.8989,8.54986 8.30977,20.9296 28.4519,20.7204l1.23704 2.47408c-16.9061,-0.309543 -26.8027,-8.04104 -29.689,-23.1945z"/>
  <path fill="white" d="M261.896 144.781l0 2.6263c-14.586,0.437953 -24.6535,-2.80573 -28.1169,-11.4321l-2.93528 0.308977 -0.463465 -5.2526 -0.772441 -2.31732 2.6263 1.08142c5.69651,10.982 15.3139,16.363 29.6617,14.9854z"/>
  <path fill="#666666" d="M247.374 141.228l0.154488 1.69937c-8.65163,-2.96022 -13.3376,-9.03657 -16.2213,-16.5302l-0.617953 2.31732 -1.23591 -0.92693 -0.772441 -5.09811 -1.08142 1.08142c-0.463465,4.48016 1.69937,13.1315 0,25.0271l-1.23591 0.154488c0.965764,-13.981 -1.22287,-23.4564 -6.02504,-29.1983 0.541134,6.87487 0.953292,13.6213 1.08142,20.0835l-1.08142 -0.463465c0.217134,-15.8352 -4.16438,-21.6439 -8.49685,-26.7265l-0.154488 2.47181c2.62687,1.6869 3.91408,8.56148 3.24425,23.0188l-1.69937 -5.2526c-2.42022,-7.46674 1.49358,-14.3158 -4.94362,-18.3841 -2.49732,-1.90517 -0.0507402,-3.07701 0.0773859,-5.13638 0.12841,-2.05965 -2.05994,-3.92684 1.62199,-3.97843 9.59982,12.9572 21.2794,7.96337 24.2943,-1.58032 1.29713,-4.10599 6.32665,-9.57657 13.3101,-11.0704 8.43563,-1.80482 19.2305,6.27506 20.1742,14.1956 29.1983,40.5275 63.4947,1.03011 81.5698,19.62l-2.00835 -0.463465c-7.05572,-5.22709 -18.0244,-3.78539 -24.8726,-1.08142 6.64271,-0.154205 11.6379,0.721134 14.9854,2.6263l-4.94362 0.463465c-8.11191,-2.2011 -23.9409,3.27543 -37.6455,1.34164 -15.0993,-2.1308 -25.0141,-9.16526 -32.9556,-18.7988l0.308977 -2.93528c-5.76766,-1.85386 -7.05515,-7.41544 -17.3027,-5.56158l10.1962 4.48016 -0.154488 1.54488c-3.888,-1.93125 -8.62526,-1.31329 -13.7495,0.463465l10.3507 2.00835 -0.617953 1.54488c-14.3674,-2.26573 -13.4405,6.12822 -24.5636,5.71607l2.47181 2.93528c4.04306,-1.71354 8.42117,-1.74302 11.0679,-3.1731 3.29471,-1.78044 7.73575,-2.56309 13.3532,-0.15137 5.26536,2.26035 11.2071,9.01418 11.6308,17.142 0.801922,15.3765 15.0029,21.7894 25.4344,22.6417l-4.63465 1.23591c-3.36019,-0.128976 -6.88791,-1.26198 -10.6597,-3.86221l0 4.17118c4.73726,3.86192 9.73219,7.20907 15.2943,9.42378l-3.86221 -0.154488c-10.0196,-5.18655 -19.0338,-12.4211 -21.9373,-21.9373l-1.69937 0 -0.308977 -2.00835 -2.47181 -0.154488c-1.90545,0.824032 -4.84101,0.823748 -8.80583,0l0.463465 -2.00835c9.63156,3.4251 14.8331,-9.91248 6.95197,-15.9123 -1.23591,14.2129 -12.8225,14.2129 -17.6117,4.63465l1.08142 -0.617953c4.85377,8.99915 13.7874,6.08996 13.286,-7.41544l-3.70772 0.463465c0.157606,4.91131 -1.91594,6.66284 -3.70063,6.72038 -2.29351,0.0742678 -4.00451,-2.74252 -2.32441,-9.81015 -8.23919,-1.4417 -8.96004,16.0671 1.69937,21.1649z"/>
  <path fill="#666666" d="M233.161 98.4343l-0.308977 3.24425c-6.25947,7.90073 -14.3949,7.66602 -19.0021,3.70772 -0.308693,-1.80255 -1.02926,-3.39903 -2.16284,-4.78914l2.47181 0.308977c1.13131,3.54671 8.32791,4.97481 12.8662,3.42454 3.5674,-1.21833 3.33921,-5.05021 6.13588,-5.89635z"/>
  <path fill="white" d="M242.276 120.681l0.154488 2.47181 2.93528 0c0,-1.13301 0,-2.26602 0,-3.39874 -1.23619,-0.102898 -2.2663,0.206079 -3.08977,0.92693z"/>
  <path fill="white" d="M251.39 113.574l1.85386 2.00835c17.6117,6.12794 8.65134,33.4208 22.7098,35.6868l3.08977 -0.463465c-15.9951,-4.83449 -4.19925,-31.5862 -27.6534,-37.2317z"/>
  <path fill="#666666" d="M152.827 177.223c45.4196,4.37726 33.524,-27.5502 81.5698,-25.7995l1.34362 -1.38473 -1.18913 -1.70504c-8.96032,0.772441 -16.4534,0.772725 -24.0423,1.9698 -7.58892,1.19679 -13.5757,3.59178 -23.0766,4.05525l-0.92693 0.92693 10.8142 0.308977c-7.15805,2.5234 -13.4924,3.6051 -19.0021,3.24425l-0.617953 1.39039c6.57837,-0.0768189 13.4014,-0.643465 20.3925,-1.54488 -8.92857,3.6051 -18.9833,5.40737 -29.9707,5.71607l-0.154488 0.92693c8.49657,0.155339 16.7352,-0.462614 24.4091,-2.78079 -5.40709,4.94362 -17.6117,7.56993 -27.8079,8.34237l-0.617953 0.772441c7.10618,0.0515906 14.6242,-0.926646 22.5553,-2.93528 -7.42848,5.69055 -18.5261,7.95629 -32.1336,7.8789l-1.54488 0.617953z"/>
  <polygon fill="#666666" points="230.843,137.056 232.852,137.056 232.123,146.174 232.079,148.488 230.689,148.488 "/>
  <path fill="white" d="M142.167 168.572l-1.85386 0.154488 1.69937 2.00835c4.83988,2.72948 10.9681,3.45005 17.4572,3.70772l3.55323 -3.08977c-9.24435,1.64806 -17.8444,0.463465 -20.8559,-2.78079z"/>
  <path fill="white" d="M123.629 171.353l-0.154488 1.08142c10.8142,-0.669544 15.7578,5.92186 20.8559,8.18788l0.154488 -1.69937 1.69937 -0.772441c-7.51862,-2.26602 -11.4837,-8.08498 -22.5553,-6.79748z"/>
  <path fill="white" d="M146.647 178.459l-1.08142 1.23591 0.154488 2.00835 15.2943 0.308977c2.16284,-0.721134 4.48016,-1.75096 6.02504,-3.08977 -6.79748,-0.154488 -14.2129,1.69937 -20.3925,-0.463465z"/>
  <polygon fill="white" points="91.9585,159.148 91.804,160.539 104.318,164.401 102.773,162.392 "/>
  <polygon fill="white" points="90.8771,161.929 91.0316,163.628 98.447,165.791 103.236,165.946 "/>
  <polygon fill="white" points="88.7142,164.864 88.7142,166.564 95.6662,169.344 100.455,169.035 "/>
  <path fill="#666666" d="M104.936 162.392l3.08977 2.6263c4.17062,0.669827 8.3418,0.566079 12.5135,0l-0.154488 -2.16284c-4.7897,0.655937 -10.6605,0.836221 -15.4488,-0.463465z"/>
  <path fill="#666666" d="M105.244 166.1l2.16284 2.93528c4.17062,0.669827 6.33345,0.411591 10.5052,-0.154488l-0.154488 -1.69937c-4.7897,0.655937 -7.72526,0.218268 -12.5135,-1.08142z"/>
  <path fill="#666666" d="M132.898 170.735c-12.8741,-4.99522 -17.5604,1.59619 -31.6701,-1.08142l4.32567 2.16284c9.78407,1.54488 15.8607,-2.78079 22.5553,-1.08142l4.78914 0z"/>
  <path fill="#666666" d="M51.4826 170.426c7.38936,5.43317 22.8895,4.24857 29.8162,-1.54488 0.257386,-2.52312 -2.42051,-1.80227 -3.86221,-1.54488 -5.40652,6.12992 -14.779,6.02618 -25.954,3.08977z"/>
  <path fill="#666666" d="M55.8082 164.092c7.26038,3.27005 11.3284,2.7034 16.5302,-1.85386 1.59619,-1.23591 -1.59647,-2.00835 -3.08977,-1.39039 -2.08573,2.6521 -4.9697,4.66044 -13.4405,3.24425z"/>
  <path fill="#666666" d="M57.0442 167.491c5.40681,3.88829 11.4832,4.09408 18.5386,-1.08142 1.59619,-1.23591 -1.59647,-2.00835 -3.08977,-1.39039 -2.06022,3.29613 -7.20992,4.11988 -15.4488,2.47181z"/>
  <path fill="white" d="M88.2508 154.822c-5.21405,2.04888 -10.7501,2.4857 -16.3758,2.47181 7.31197,1.64835 12.7707,0.824032 16.3758,-2.47181z"/>
  <path fill="white" d="M48.5473 146.944l0 2.16284c-5.14999,5.76766 -4.11988,11.5863 1.08142,16.5302l-1.23591 1.54488c-6.97777,-8.25251 -5.68999,-15.7969 0.154488,-20.238z"/>
  <path fill="white" d="M49.6287 168.417l-2.47181 0.154488c1.28806,1.02983 2.57471,1.64778 3.86221,1.85386l-1.39039 -2.00835z"/>
  <polygon fill="white" points="51.3281,165.946 51.0191,167.954 53.9544,170.271 54.1089,168.572 "/>
  <path fill="white" d="M50.7101 153.123l-1.85386 0.308977c-0.180567,4.63493 0.540567,8.23919 3.24425,9.57827l2.00835 -0.617953c-2.98743,-1.02983 -4.11988,-4.11988 -3.39874,-9.2693z"/>
  <polygon fill="white" points="56.2717,158.221 58.4345,160.848 58.589,159.612 57.8166,158.221 "/>
  <path fill="white" d="M108.798 140.455c-6.25777,3.65301 -17.9847,7.63597 -22.1505,9.69336 -5.66391,2.79723 -12.3741,3.26183 -23.2691,2.97468 1.76684,2.1617 19.5602,2.16624 25.1065,-1.91169 4.98898,-3.66803 16.3616,-5.47285 20.3131,-10.7564z"/>
  <path fill="white" d="M52.7185 125.933c2.90948,4.86567 4.66044,10.633 3.86221,18.3841 -0.103181,0.66926 1.80227,0.875339 2.47181,-0.308977 0.43767,-9.96577 -2.23994,-15.1152 -6.33402,-18.0751z"/>
  <path fill="white" d="M57.9711 127.324c2.90948,4.86567 5.43288,7.85226 4.63465,18.0751 -0.103181,0.66926 1.02983,1.18432 1.69937,0 0.43767,-9.96577 -2.23994,-15.1152 -6.33402,-18.0751z"/>
  <path fill="white" d="M39.4325 116.664c-2.0469,-1.10069 -3.64139,-1.24753 -4.40533,-0.466583 -1.80624,1.84706 -1.16306,4.52211 -1.77421,7.41855 -2.88397,-5.87055 3.03817,-14.0584 6.17953,-6.95197z"/>
  <path fill="white" d="M91.9585 181.24l1.85386 0.154488c3.39166,11.4256 8.70832,21.2227 17.4572,28.1169l0 3.08977c-9.7886,-7.27002 -17.7727,-16.2544 -19.311,-31.3611z"/>
  <path fill="white" d="M118.53 180.931l1.85386 0.154488c2.61638,14.0624 5.09755,25.9248 15.1399,28.4258l0 3.08977c-12.0535,-5.50885 -16.9073,-15.4347 -16.9937,-31.6701z"/>
  <path fill="white" d="M149.583 188.346l2.16284 0c0.746363,5.79288 3.68164,9.70668 10.3507,16.2213l0.463465 2.47181c-8.18816,-3.81062 -12.6167,-10.7629 -12.977,-18.6931z"/>
  <polygon fill="white" points="409.741,79.2777 411.595,79.4322 411.749,81.904 408.196,86.5387 408.041,83.1399 "/>
  <path fill="white" d="M404.797 85.1483c-1.6475,2.00806 -3.0892,4.22249 -4.32567,6.643l-0.154488 4.78914c2.11153,-4.30016 4.22391,-7.9577 6.33402,-10.1962l-1.85386 -1.23591z"/>
  <polygon fill="white" points="398,89.4739 400.317,89.6284 395.682,99.6702 393.674,99.8246 391.975,103.069 390.275,102.914 387.186,107.24 386.722,113.111 385.177,110.33 383.787,108.785 385.486,107.549 388.73,98.7432 391.357,98.4343 392.902,94.4176 395.682,94.4176 "/>
  <polygon fill="white" points="382.86,102.914 380.697,107.858 382.551,107.549 385.177,102.914 "/>
  <polygon fill="white" points="383.632,109.248 382.242,109.094 380.388,115.119 382.705,117.436 "/>
  <path fill="#666666" d="M419.628 90.0919c-13.5374,17.1542 -29.8746,17.0895 -28.7348,36.3047l1.54488 3.08977 2.47181 -0.308977 -0.308977 -9.73276 1.54488 -0.92693 0.154488 8.49685 1.85386 0 0 -10.9687 1.23591 -0.772441 -0.154488 3.24425 2.16284 0.154488 0 -6.17953 0.92693 0.154488 0.154488 3.86221 0.617953 0 1.39039 -1.54488 0.154488 -2.78079c5.45896,-1.59647 10.9176,-1.54517 16.3758,0.154488l2.93528 -1.54488c-6.02476,-2.16312 -11.6379,-3.50221 -16.8392,-4.01669 7.19717,-1.85386 15.6161,-0.772725 24.8726,2.31732 -5.69055,-3.88885 -11.5098,-6.61833 -17.6117,-6.79748l-0.154488 -1.54488c5.30391,-0.760252 11.2774,-0.0133228 18.2296,2.93528 -3.77206,-4.51928 -10.2351,-5.93547 -14.8309,-7.56993 5.9794,0.549922 11.2482,-0.430583 18.6931,2.78079l-0.463465 -1.69937 -5.2526 -2.78079 1.69937 -1.54488 -1.08142 -0.154488 -2.00835 1.39039 -1.39039 -0.308977 0 -1.23591 -3.08977 0.308977 0 0.92693 -4.78914 -0.463465 1.54488 -2.6263 -1.85386 -0.617953z"/>
  <path fill="white" d="M433.069 100.134l4.17118 0c7.36385,2.98658 11.02,10.9171 25.7995,12.2046l-1.39039 1.08142c-12.6167,0.978237 -21.8344,-12.2562 -28.5803,-13.286z"/>
  <path fill="white" d="M428.279 106.159l4.17118 0c6.86381,3.28706 10.9307,9.36369 27.4989,9.57827l-1.39039 1.08142c-14.1168,2.85222 -23.9162,-9.15223 -30.2797,-10.6597z"/>
  <path fill="white" d="M421.945 112.338l3.70772 -0.92693c7.97953,2.32498 13.4039,7.5223 30.2797,10.1962l-1.39039 1.08142c-14.4244,0.392882 -26.354,-9.80561 -32.597,-10.3507z"/>
  <path fill="white" d="M431.215 121.453l2.16284 -0.308977c4.47988,3.14107 8.96004,4.63436 13.4405,4.48016l-2.16284 1.23591c-4.68624,-0.566646 -9.47566,-1.90573 -13.4405,-5.40709z"/>
  <path fill="#666666" d="M428.434 122.071l2.93528 0c5.87055,4.37698 13.286,7.67282 17.6117,2.47181 7.88259,-0.84926 13.9609,-1.87937 13.595,-3.55323 -6.84936,0.759685 -12.7199,-0.193039 -17.9206,-2.31732 8.03339,-2.26573 18.0751,1.49358 24.1002,-6.79748 5.81896,-0.566362 6.07635,3.96539 4.01669,8.49685l2.47181 -0.617953c-8.14933,13.5437 -32.4814,15.1401 -46.8099,2.31732z"/>
  <path fill="#666666" d="M401.553 118.363c0.213732,1.34504 16.6201,20.9092 21.8449,24.1526 5.74951,3.5691 8.24967,4.35657 8.89824,0.256536l-0.463465 -1.69937 6.643 0.772441c3.83641,5.13638 8.26498,8.50876 10.5052,15.9123l2.93528 0.772441c-3.55323,-9.88725 -8.54873,-17.3027 -14.9854,-22.2463l19.62 -1.23591c-33.1637,1.23591 -35.5839,-21.3194 -54.9978,-16.6847z"/>
  <path fill="white" d="M400.317 120.99l3.39874 1.39039c17.9206,23.6367 25.3361,23.7912 29.0438,21.7828 2.67761,-3.03846 6.43692,1.18432 3.39874,3.86221 -13.2052,2.05909 -21.3024,-6.44712 -35.8413,-27.0354z"/>
  <path fill="white" d="M407.269 138.601c5.23588,8.9521 12.0056,15.8287 24.2547,15.2943 0.669544,1.00432 8.7463,2.67902 5.09783,-2.08573 -2.04293,-2.66797 -6.84879,-1.54488 -6.64271,-0.231591 -10.6095,1.56898 -15.141,-6.62882 -22.7098,-12.977z"/>
  <path fill="white" d="M435.386 159.766c-1.90545,2.8321 -9.41103,2.69036 -15.3717,-0.135496 -5.9607,-2.82586 -10.3765,-8.33585 -12.2817,-10.6787 1.28523,11.0991 24.7669,21.1411 31.3611,10.9687l-3.70772 -0.154488z"/>
  <path fill="white" d="M429.979 167.799c-13.8118,4.08161 -17.8549,-5.62564 -24.4091,-9.88725 5.04652,10.711 21.3707,15.7062 24.4091,9.88725z"/>
  <path fill="white" d="M449.444 164.71l3.39874 1.23591c4.84668,9.30813 15.0296,13.9173 26.263,8.03339l0 1.39039c-8.93481,7.41544 -24.1776,2.16255 -29.6617,-10.6597z"/>
  <path fill="white" d="M462.576 182.012c-4.94391,-1.54488 -8.85799,-4.32567 -11.7411,-8.34237l-2.78079 -0.308977 1.23591 2.6263c3.88744,3.99118 8.16123,6.56589 13.286,6.02504z"/>
  <polygon fill="white" points="446.973,177.532 447.282,180.622 450.989,184.175 452.998,183.557 "/>
  <path fill="#666666" d="M450.371 177.532l-0.154488 2.00835c9.68117,9.93856 19.5684,10.3504 29.6617,0.92693l0.308977 -5.2526c-10.9687,9.68145 -18.436,10.6084 -29.8162,2.31732z"/>
  <path fill="white" d="M448.363 190.355c6.43692,4.5377 13.7489,5.2458 23.0188,2.78079l0.463465 1.39039c-7.98265,9.09043 -15.8613,9.19304 -23.0188,3.86221l2.6263 -0.617953c3.55295,2.62602 7.93021,2.78051 13.1315,0.463465 -7.90526,-0.0133228 -12.7457,-1.32633 -16.2213,-7.8789z"/>
  <path fill="#666666" d="M445.891 200.088l0.154488 2.78079c7.82646,5.33169 17.1984,5.38385 29.9707,-6.17953l0 -4.01669 -1.85386 0.463465c-7.42819,9.10205 -16.7236,11.857 -28.2714,6.95197z"/>
  <path fill="white" d="M395.991 189.119l0.463465 3.39874c5.56158,6.43692 8.34237,17.045 28.2714,16.9937l-0.463465 -2.31732c-20.3925,0.92693 -22.4008,-14.0584 -28.2714,-18.0751z"/>
  <path fill="white" d="M398.154 178.923c3.03052,8.24344 11.4517,23.279 28.2714,22.7098 1.08142,-0.669544 1.54488,-2.88397 -0.154488,-2.16284 -14.3067,2.78703 -20.454,-12.1085 -28.1169,-20.5469z"/>
  <path fill="white" d="M427.198 196.38c-19.7745,-3.29584 -17.6117,-36.8714 -43.1022,-38.6221 20.6498,7.46674 23.0701,38.107 42.9477,40.4759l0.154488 -1.85386z"/>
  <polygon fill="white" points="429.206,198.234 428.743,201.169 431.215,197.925 "/>
  <path fill="#666666" d="M82.1427 283.559c-8.29304,-0.105165 -0.209764,-8.08328 0.629859,-3.14929 27.9856,3.15468 42.4877,-7.71534 80.0839,5.0091 20.5486,6.95481 29.2754,18.9354 53.6122,27.7988 15.9066,5.79317 27.9661,-2.87972 50.5375,7.81796l-2.20451 0.629859c-20.1291,-8.13969 -32.5741,-0.89915 -51.8454,-6.43323 -19.6101,-5.63131 -35.9734,-21.8693 -59.7147,-26.7871 -34.3545,-7.1161 -50.5673,-0.602929 -71.0989,-4.88608z"/>
  <path fill="#666666" d="M369.673 311.903c5.56214,7.34769 10.2903,26.6531 21.4152,23.6197 -7.72781,-9.20892 -11.4908,-21.1207 -11.9673,-35.2721l2.83436 6.92844 2.20451 0c1.22598,4.00451 2.94662,25.9299 14.8017,24.2496 -3.84803,-3.8812 -6.37767,-8.75084 -7.58835,-14.6086 1.46636,0.0960945 2.06759,3.03506 3.65783,4.36734 -1.34249,-3.16517 -2.19033,-6.82441 -2.54325,-10.9777 -0.432284,1.78668 -0.246331,3.94441 -1.29628,5.3606 -2.59115,-13.1406 3.22186,-25.7868 -7.03163,-38.3094l0.956693 -1.05647c4.12611,3.24936 6.27477,10.9899 8.17626,19.6373l0.944788 -3.46422c3.67399,14.1718 -2.53899,29.0852 11.0225,42.5155 -5.71805,1.5188 -12.1774,2.17247 -18.0187,6.0395 -1.77676,-0.318898 -3.22413,-0.967749 -4.34126,-1.94542l2.51943 -1.88958c-5.75887,-0.411307 -10.3592,-9.41726 -15.7465,-25.1943z"/>
  <path fill="#666666" d="M405.89 292.062c4.39115,18.8949 16.7732,15.6708 26.0272,24.715 4.78375,4.6749 16.4001,4.19329 17.748,-2.35502 6.09137,-3.43673 5.67411,-4.60205 5.16189,-8.91865 -0.833386,-7.02284 -8.00391,-2.66173 -13.4252,-12.9334 -8.04218,-15.2374 -10.3229,-33.1634 -23.2296,-37.6696l-0.00141732 2.71644c13.9567,4.84498 8.928,34.3355 30.5496,46.7275 -14.1596,-2.81849 -22.9881,-12.0002 -27.3988,-26.4541l-1.88958 0.629859c2.58945,11.0866 10.0233,21.0319 23.3048,29.6034 -3.17792,0.430016 -7.84885,-1.38076 -13.542,-4.72394l-3.14929 -1.88958c8.00816,10.0165 13.6769,9.69478 17.951,12.5972 -10.825,3.28422 -10.0899,-2.90268 -12.9433,-4.47647 -4.53997,-2.50356 -14.1704,-2.45169 -25.1632,-17.5686z"/>
  <path fill="#666666" d="M456.48 305.516l1.17921 3.06595c2.24051,-1.02246 3.06595,-3.30151 2.47635,-6.83944 -2.16199,0.66841 -2.79099,1.92614 -3.65556,3.77348z"/>
  <path fill="#666666" d="M317.238 241.988l5.82577 -0.314646c13.3316,11.5478 14.3921,34.2658 39.0512,36.5318l0 -2.83436c-3.5161,0.744095 -7.4007,-2.93414 -11.3375,-7.24337 3.94895,2.54466 7.38652,4.06602 10.0777,4.09408l-2.83351 -2.36211c3.88403,0.734741 6.82413,3.35736 12.5963,2.04718 -5.77162,-2.6246 -9.34073,-5.56385 -10.0775,-8.18788 7.59544,3.01606 13.2894,4.6423 15.4313,3.46394l0.314929 -1.25972c-18.7347,-2.65862 -7.48262,-21.5895 -21.7301,-35.9019 13.2307,1.89553 18.2806,28.9627 51.9633,25.5093l-0.314929 -2.51943c-13.4351,2.09112 -24.3527,-5.04709 -32.7526,-21.4152 10.7093,18.4632 33.6898,23.5539 37.7915,12.9121 -23.8215,1.21153 -24.1829,-19.5174 -36.2169,-31.8079l2.36268 0.787465c9.55276,8.60826 8.40756,22.5652 29.4452,25.9815 -16.3709,-10.0287 -19.2121,-28.8675 -31.178,-41.8856 9.91985,6.35159 19.2104,17.2656 28.3436,20.4704l-2.51943 -3.46422c7.17648,3.72501 13.5011,5.40454 18.5808,4.09408l0 -2.51943c-7.12007,-1.34306 -13.8784,-4.73925 -18.8958,-11.3375l2.20451 0.314929c4.35799,4.35544 9.9224,7.87153 20.7853,7.5583 1.25972,-1.67953 2.83408,-2.88709 3.77915,-5.03887 -10.4443,-1.5497 -17.0595,-1.55339 -24.7229,-13.2282l1.26113 -2.2028c6.5418,8.53824 14.5066,12.7627 23.1469,10.3921 2.57046,-1.36517 3.41065,-3.2023 3.46422,-5.98366 -22.3526,-1.8995 -21.7361,-34.7916 -42.5155,-38.7363 4.95156,-1.78186 14.442,3.01436 23.3552,10.5355 8.82822,3.81884 18.163,3.5623 19.1602,-1.08765l-10.0777 -0.944788 0.314929 -2.51943c9.98051,1.53695 17.4135,0.768756 18.5808,-5.66873 -7.33522,3.98495 -13.8711,3.72246 -21.2579,-2.67647 12.3559,5.11144 21.2771,2.74961 20.628,-6.14155l4.09408 0c2.21471,10.478 0.0873071,17.7562 -5.66873,22.36 8.72164,13.623 25.928,24.482 47.395,8.50451 -0.996945,2.1515 -2.62318,4.30299 -3.93477,5.98224 -13.9113,13.3053 -29.9724,6.72038 -47.2394,-11.0225l-3.14929 0c6.40347,8.97421 11.7051,15.6402 19.5253,18.4241l-4.72366 0.786615c-7.03673,-4.51247 -12.5994,-9.76167 -17.951,-15.1166l-3.46422 -0.314929c3.68986,5.97118 11.1164,12.191 21.1003,18.5808l-6.61352 -2.20451 1.88958 2.83436c-10.2867,-5.08082 -16.0376,-11.069 -22.0451,-17.0062 4.09578,9.18199 11.9673,10.4978 17.951,15.7465l0.314929 4.09408c5.24863,1.7331 7.98038,6.29802 15.7465,8.50309l2.51943 6.61352 -2.83436 -4.72394 -5.98366 -1.25972c5.92838,7.61131 6.97975,12.0762 8.81802,24.2496 -4.5686,-6.51033 -5.51877,-28.2813 -20.7853,-26.1391l0 1.57465c4.49915,2.98006 7.25471,7.20511 8.81802,12.2822l-1.88958 -0.314929c-2.62488,-4.30243 -5.45925,-7.13679 -8.50309,-8.50309 -5.3538,3.88432 -8.34775,10.2855 -16.0614,11.6524 7.52911,1.98284 12.8296,4.73868 14.4867,8.81802 -3.91351,-3.01663 -11.3139,-4.53884 -21.1003,-5.03887 10.1395,2.29805 17.041,5.78892 19.2107,11.0225l-1.25972 0.944788c-6.03751,-6.74731 -15.8635,-9.10744 -22.3597,-8.66013 8.43648,6.16649 18.913,3.29669 30.5762,19.7141 4.38236,6.16876 18.133,6.80485 20.4421,6.89698l0.157039 -1.88901c-7.48007,-1.79263 -13.2007,-8.3401 -17.4782,-15.4321l2.51943 0c7.12007,9.41046 15.6096,15.0905 25.8242,11.9673l-3.46422 -0.629859 1.04032 -2.96873c-9.05783,-0.917859 -16.2794,-8.2457 -18.6764,-17.1867l1.88958 0c3.64989,10.059 13.987,18.015 23.9346,14.4867l2.83436 1.25972 -1.25972 2.20451 -3.14929 1.25972 4.40901 1.88958c-10.0372,12.6235 -28.2974,10.4267 -36.608,4.12328 -7.3029,-5.53862 -11.6941,-11.2496 -16.615,-14.8309l-2.20451 0.314929c-3.26721,17.941 -20.9373,20.526 -34.3273,15.1166l-0.629859 2.20451c10.4596,8.17937 19.2872,17.3067 16.6913,33.0676l-1.88958 11.3375 -1.25972 -1.57465 -0.629859 11.9673 -0.629859 -17.0062 -0.944788 2.20451 0 -11.3375 -1.25972 3.77915 0 -8.50309 -0.629859 0.944788 -0.314929 -3.46422 -1.88958 -1.88958 3.14929 -0.314929 0 -1.88958 -3.77915 0.629859 -0.944788 -3.14929 2.20451 -0.944788 -0.629859 -1.57465 -2.20451 0.314929 -5.03887 -5.66873 -0.629859 4.09408c-2.90268,6.13758 -8.44045,8.76189 -16.3763,8.18816l-1.57465 1.88958c0.630426,2.51887 2.51943,3.77915 3.77915,5.66873l-5.3538 -3.46422 4.00564 6.28696 -6.80655 -6.81506 -5.23021 -1.04684c12.0144,8.74007 13.4875,19.2889 16.2193,28.029 -3.46564,-5.91648 -6.23651,-12.8432 -10.5134,-17.9484 -4.14539,-4.94759 -8.20007,-5.89663 -14.6809,-12.2848 13.4827,15.478 14.2223,16.6399 18.2659,27.0839 -5.87877,-7.66177 -11.3375,-13.4357 -16.3763,-17.3211 5.35096,7.4503 4.40901,8.45065 6.61352,12.7548 -1.04995,1.1554 -1.88986,3.35991 -2.51943,6.61352 -1.47317,-15.2198 -17.7347,-15.179 -15.7465,-38.8939 -8.29191,-8.29446 -11.8638,-21.623 -20.6274,-28.3439z"/>
  <polygon fill="white" points="123.083,134.912 124.658,139.321 127.178,139.164 124.344,134.755 "/>
  <polygon fill="white" stroke="white" stroke-width="0.216" points="157.568,137.746 157.726,142.156 159.3,142.156 159.394,135.551 "/>
  <polygon fill="white" points="189.631,125.001 189.79,129.725 190.736,129.725 190.734,125.001 "/>
  <polygon fill="white" points="194.193,118.866 194.352,125.792 195.141,126.263 195.139,118.708 "/>
  <path fill="white" d="M131.693 144.791c0.261921,-4.30016 -0.105165,-7.5515 -1.10126,-9.75402 2.67421,0.891213 3.35594,8.18051 1.10126,9.75402z"/>
  <path fill="#666666" d="M45.1656 140.386l-1.57323 1.57323c-5.01364,-7.53251 -4.59411,-18.2429 -0.242929,-19.7637 5.25203,-1.83543 15.3252,7.07301 11.8848,26.0566l-2.20252 0.157323 -0.314646 -2.0452 1.88787 -0.629292 -0.471969 -1.57323 0.786615 -0.786615 0.157323 -5.03433 -0.786615 0.629292 -0.157323 -2.98914 -1.73055 -2.35984 0.471969 7.5515 -0.471969 0.157323 -2.20252 -7.07953 -1.41591 -0.314646 0.471969 4.0904 -1.57323 -1.10126 0 -3.77575 -0.943937 0.314646 -0.629292 3.4611 -1.10126 0 -2.67449 -2.0452 0.314646 1.41591 1.10126 3.30378 1.41591 0.786615z"/>
  <path fill="#666666" d="M45.7949 173.581l4.71969 1.88787 2.35984 -0.786615 1.88787 1.57323c26.6137,3.4064 21.8398,-3.58526 34.9254,-2.44063 4.73301,0.413858 11.6802,6.05566 18.7798,6.20929 6.16422,0.133512 11.1662,-4.71969 17.2582,-4.12328 9.19871,0.900284 12.9617,7.49566 28.3275,7.95345 9.22139,0.274677 12.9396,-3.2828 25.1515,-4.13773l-18.8787 6.60756 -0.157323 9.43937 -1.73055 -3.4611 0 -4.87701c-10.1149,0.832536 -18.5709,0.00623622 -24.0704,-3.77575 -1.69937,2.07638 -1.61547,8.10369 -2.83181,11.4846l-1.73055 0.157323c-0.917859,-4.19556 -0.0788032,-8.86281 0.943937,-13.3724 -5.27018,-2.15008 -9.08561,-2.09792 -12.5467,-1.47515 -0.157323,-1.73736 -6.25351,2.28813 -10.4224,1.94712 -1.57323,7.34174 -0.786615,14.3688 -1.10126,21.3959l-1.57323 -1.41591c-2.15036,-7.21078 -1.94088,-13.8183 -0.471969,-20.2947 -9.5967,-0.681733 -13.3724,-6.55512 -23.5984,-2.0452 -5.58822,7.02312 -7.89478,17.9844 -9.28205,30.0487l-1.88787 -2.83181c0.679748,-9.66331 2.0948,-18.8677 6.13559,-26.4302 -5.76851,-0.367087 -11.6943,0.681733 -17.7775,-0.629292 -5.70331,-1.53411 -9.66275,-3.81543 -12.4285,-6.60756z"/>
  <path fill="#666666" d="M209.374 135.857c-0.420378,-8.70293 -1.78498,-19.5197 -6.29859,-23.6197 1.67953,6.61352 3.35906,11.9673 4.40901,20.7853l1.88958 2.83436z"/>
  <path fill="#666666" d="M202.131 133.653c-0.420378,-8.70293 -0.52526,-16.0554 -5.03887,-20.1555 1.67953,6.61352 2.7292,11.0225 3.77915,19.8405l1.25972 0.314929z"/>
  <path fill="#666666" d="M95.9996 253.011c-4.0938,-3.9892 -6.92816,-8.39793 -8.50309,-13.227 -0.629859,-1.67953 0.629859,-3.35906 0.944788,-5.03887 1.56076,3.07219 2.89786,6.59311 5.3538,7.87323 -0.318614,3.46451 0.837638,6.92873 2.20451,10.3927z"/>
  <path fill="#666666" d="M128.437 253.326c-3.14901,-4.0938 -6.08797,-8.083 -7.5583,-13.8569 -0.629859,-1.67953 0.629859,-3.67399 0.944788,-5.3538 1.56076,3.07219 1.00828,7.22296 3.46422,8.50309 -0.318614,3.46451 2.72721,5.98394 3.14929,10.7076z"/>
  <path fill="#666666" d="M149.852 244.508l-0.314929 3.14929c1.40513,3.90699 3.72104,5.99386 5.98366,8.18816 -2.30939,-3.77915 -4.19925,-7.5583 -5.66873,-11.3375z"/>
  <path fill="#666666" d="M172.842 245.768l1.25972 7.24337 8.50309 9.76281c-60.1674,-0.930331 -72.4873,0.135213 -91.3295,5.3538l-0.314929 1.25972c26.7171,-8.18958 89.0723,-3.78029 129.751,0 -9.86797,-2.36239 -20.2609,-4.4623 -31.8079,-5.98366 -9.76281,-7.13849 -10.0777,-12.7023 -16.0614,-17.636z"/>
  <path fill="white" d="M119.619 259.624c-4.51474,-11.9166 -3.98977,-24.3043 1.57465,-25.8242l-0.314929 2.83436c-2.67789,4.93285 -1.62765,14.2758 1.88958,23.3048l-3.14929 -0.314929z"/>
  <path fill="white" d="M146.388 261.829c-4.19981,-6.24785 -3.67484,-21.4699 1.57465,-23.6197l-0.314929 2.51943c-2.67789,4.93285 -1.62765,12.3863 1.88958,21.4152l-3.14929 -0.314929z"/>
  <path fill="white" d="M171.268 242.933l0.314929 2.83436c-2.6246,4.82882 1.67953,11.5472 3.46422,16.3763l-2.51943 0.314929c-5.14403,-8.29304 -5.3538,-19.3159 -1.25972,-19.5256z"/>
 </g>
</svg>
