<?xml version="1.0" encoding="UTF-8"?>
<!DOCTYPE svg PUBLIC "-//W3C//DTD SVG 1.1//EN" "http://www.w3.org/Graphics/SVG/1.1/DTD/svg11.dtd">
<!-- Creator: CorelDRAW -->
<svg xmlns="http://www.w3.org/2000/svg" xml:space="preserve" width="500px" height="597px" shape-rendering="geometricPrecision" text-rendering="geometricPrecision" image-rendering="optimizeQuality" fill-rule="evenodd" clip-rule="evenodd"
viewBox="0 0 500 597"
 xmlns:xlink="http://www.w3.org/1999/xlink"
 xmlns:svg="http://www.w3.org/2000/svg"
 version="1.0">
 <g id="Layer_x0020_1">
  <metadata id="CorelCorpID_0Corel-Layer"/>
  <path id="path1937" fill="#0057F0" stroke="black" stroke-width="2.83465" d="M1.40428 2.34397l497.094 -0.429449 0.0096378 424.851c-0.30189,36.9227 4.09011,74.5699 -48.9487,96.4659 -66.0583,22.1658 -181.975,-0.413008 -199.453,67.7764 -21.5941,-68.0828 -122.451,-53.0686 -188.79,-66.1799 -59.2614,-3.90473 -61.3143,-64.8655 -59.8533,-98.2475l-0.0578268 -424.236z"/>
  <path id="path1937_0" fill="black" d="M5.32488 454.415c-1.33937,-11.8692 -0.43852,-14.8459 -0.0274961,-24.2345l-0.00538583 -45.436c7.76637,-0.139748 16.3548,4.15418 32.2484,3.86873 15.8936,-0.285449 51.2283,-10.9012 75.0331,-11.3292 23.8048,-0.427748 43.2403,14.6424 68.3918,14.19 25.1515,-0.452693 42.1447,-12.3129 68.3998,-12.7845 26.2551,-0.471969 50.9806,13.2489 78.6192,12.7845 27.6387,-0.464315 43.5371,-13.7911 68.3998,-14.2557 24.8627,-0.464882 52.3916,14.5432 72.2268,14.2557 19.8354,-0.287433 24.5367,-6.05566 30.5362,-6.16309l0.00141732 50.415c-0.0566929,6.92278 -0.650268,11.3746 -0.786048,18.2393 -5.69622,0.136347 -11.8097,5.32488 -29.7516,5.26479 -17.9419,-0.0598111 -49.6925,-11.3199 -72.2268,-12.784 -22.534,-1.4641 -42.8618,12.172 -68.3998,12.7845 -25.5379,0.612567 -51.5877,-13.4325 -78.6192,-12.7843 -27.0312,0.648284 -38.8503,13.5901 -68.4003,14.2988 -29.5498,0.708662 -41.5744,-14.942 -68.3912,-14.2988 -26.8169,0.643181 -60.0163,12.4305 -74.7922,12.7843 -14.7762,0.353764 -25.5308,-4.98189 -32.4564,-4.8155zm-0.0739843 -364.946l0.0096378 70.0878c6.23594,-0.079937 15.7099,5.04992 32.5208,4.86681 16.8109,-0.183118 48.483,-12.8404 74.7922,-13.178 26.3092,-0.337606 40.3229,13.4408 68.3912,13.0799 28.0687,-0.360851 39.5773,-12.7097 68.4003,-13.0799 28.823,-0.370205 49.2409,13.1615 78.6189,12.7845 29.3777,-0.376725 45.8961,-12.496 68.4,-12.7845 22.5043,-0.288567 59.8043,12.9274 72.2268,12.7843 12.4228,-0.14315 26.0325,-7.93559 30.2114,-7.98889l-0.00141732 -65.2935c-6.64952,0 -12.4546,6.80344 -30.21,5.52586 -17.7551,-1.27786 -46.7187,-12.7843 -72.1395,-12.7843 -25.4205,0 -41.3932,12.7843 -68.4873,12.7843 -27.0944,0 -52.839,-14.059 -78.6189,-14.059 -25.78,0 -44.674,14.059 -68.3998,14.059 -23.7257,0 -45.5936,-12.7843 -68.3918,-12.7843 -22.7982,0 -57.9637,12.7843 -74.7922,12.7843 -16.8287,0 -21.4872,-6.80429 -32.5304,-6.80429z"/>
  <path id="path1937_1" fill="white" d="M1.80737 448.258c-1.33965,-11.8692 -1.39691,-14.5267 -0.98589,-23.9154l-0.00538583 -45.436c7.76637,-0.139465 13.1601,3.83499 29.0537,3.54955 15.8936,-0.285449 51.2283,-10.9012 75.0331,-11.3292 23.8048,-0.427748 43.2403,14.6424 68.3918,14.19 25.1515,-0.452693 42.1447,-12.3129 68.3998,-12.7845 26.2551,-0.471969 50.9806,13.2489 78.6192,12.7845 27.6387,-0.464315 43.5371,-13.7911 68.3998,-14.2557 24.8627,-0.464882 52.3916,14.5432 72.2268,14.2557 19.8354,-0.287433 27.7314,-6.3754 33.7309,-6.48284l0.00113386 50.7348c-0.0564095,6.92278 -0.0113386,11.0548 -0.147118,17.9195 -5.69594,0.13663 -15.643,5.64463 -33.5849,5.58454 -17.9419,-0.0598111 -49.6925,-11.3199 -72.2268,-12.784 -22.534,-1.4641 -42.8618,12.172 -68.3998,12.7845 -25.5379,0.612567 -51.5877,-13.4325 -78.6192,-12.7843 -27.0312,0.648284 -38.8503,13.5901 -68.4003,14.2988 -29.5498,0.708662 -41.5744,-14.942 -68.3912,-14.2988 -26.8169,0.643181 -60.0163,12.4305 -74.7922,12.7843 -14.7762,0.353764 -21.3778,-4.98189 -28.3034,-4.8155zm-1.35213 -364.946l0.0096378 70.407c6.23622,-0.079937 12.835,4.73074 29.6459,4.54762 16.8109,-0.183118 48.483,-12.8404 74.7922,-13.178 26.3092,-0.337606 40.3229,13.4408 68.3912,13.0799 28.0687,-0.360851 39.5773,-12.7097 68.4003,-13.0799 28.823,-0.370205 49.2409,13.1615 78.6189,12.7845 29.3777,-0.376725 45.8961,-12.496 68.4,-12.7845 22.5043,-0.288567 59.8043,12.9274 72.2268,12.7843 12.4228,-0.14315 29.5467,-8.25506 33.7255,-8.30835l-0.00141732 -64.9741c-6.64952,0 -15.9684,6.804 -33.7241,5.52586 -17.7554,-1.27814 -46.7187,-12.7843 -72.1395,-12.7843 -25.4205,0 -41.3932,12.7843 -68.4873,12.7843 -27.0944,0 -52.839,-14.059 -78.6189,-14.059 -25.78,0 -44.674,14.059 -68.3998,14.059 -23.7257,0 -45.5936,-12.7843 -68.3918,-12.7843 -22.7982,0 -57.9637,12.7843 -74.7922,12.7843 -16.8287,0 -18.6123,-6.80429 -29.6555,-6.80429z"/>
  <path fill="white" d="M72.9842 242.616l209.008 0c-0.319748,-8.94473 13.0978,-8.94445 13.7373,-0.319465l17.5989 0.319465c6.54832,-9.57657 15.4928,-15.9579 29.7102,-15.3102 4.10117,-41.5199 66.0255,-45.6625 70.1269,0.670111 45.1446,6.76233 39.6638,65.9968 -0.706678,66.371 -1.42214,28.9596 -52.5399,44.1 -65.1036,2.24362 -19.6484,0.425481 -29.0741,-10.1945 -32.4295,-23.2923l-19.516 -0.000283465c0.691937,8.73213 -13.3642,9.26419 -14.0562,0l-124.272 0 0.638929 65.4903 -24.2745 0.346394 -0.0345827 -15.2121 13.6857 -0.191339 -0.0473386 -20.7091 -14.1809 -0.00510236 -0.483024 -18.6276 -16.3981 0.887811 -0.256536 18.9332 -14.8745 0.259937 0.308977 19.6112 12.7905 -0.455528 0.00680315 15.804 -23.0287 0.338173 0.0178583 -66.4702 -19.8856 0.000283465c-4.50085,-0.427465 -6.79125,-2.55884 -7.03134,-6.39213l0 -16.6195c0.426898,-5.5389 3.4098,-8.09519 8.9487,-7.67056z"/>
  <path fill="black" d="M77.2719 249.093l209.008 0c-0.319748,-8.94473 13.0978,-8.94445 13.7373,-0.319465l17.5989 0.319465c6.54832,-9.57657 15.4928,-15.9579 29.7102,-15.3102 4.10117,-41.5199 64.4281,-46.3014 70.1269,1.30904 45.1446,6.76233 39.6638,65.3579 -0.706678,65.7321 -1.42214,28.9596 -52.5399,44.1 -65.1036,2.24362 -19.6484,0.425481 -29.0741,-10.1945 -32.4295,-23.2923l-19.516 -0.000283465c0.691937,8.73213 -13.3642,9.26419 -14.0562,0l-124.272 0 0.638929 65.4903 -24.594 0.346394 0.284882 -15.2121 13.6857 -0.191339 -0.0473386 -20.7091 -14.1809 -0.00510236 -0.483024 -18.6276 -16.7176 -0.0705827 0.0629292 19.8916 -14.8745 0.259937 0.308977 19.6112 12.7905 -0.455528 0.00680315 15.804 -23.0287 0.338173 0.0178583 -66.4702 -19.8856 0.000283465c-4.50085,-0.427465 -6.79125,-2.55884 -7.03134,-6.39213l0 -16.6195c0.426898,-5.5389 3.4098,-8.09519 8.9487,-7.67056z"/>
  <path id="path1937_2" fill="#CCCCCC" d="M1.48961 450.815c-1.33937,-11.8692 -0.43852,-14.8459 -0.0274961,-24.2345l-0.00538583 -45.436c7.76637,-0.139748 16.3548,4.15418 32.2484,3.86873 15.8936,-0.285449 51.2283,-10.9012 75.0331,-11.3292 23.8048,-0.427748 43.2403,14.6424 68.3918,14.19 25.1515,-0.452693 42.1447,-12.3129 68.3998,-12.7845 26.2551,-0.471969 50.9806,13.2489 78.6192,12.7845 27.6387,-0.464315 43.5371,-13.7911 68.3998,-14.2557 24.8627,-0.464882 52.3916,14.5432 72.2268,14.2557 19.8354,-0.287433 27.7314,-6.3754 33.7309,-6.48284l0.00113386 50.7348c-0.0564095,6.92278 -0.0113386,11.0548 -0.147118,17.9195 -5.69594,0.13663 -15.643,5.64463 -33.5849,5.58454 -17.9419,-0.0598111 -49.6925,-11.3199 -72.2268,-12.784 -22.534,-1.4641 -42.8618,12.172 -68.3998,12.7845 -25.5379,0.612567 -51.5877,-13.4325 -78.6192,-12.7843 -27.0312,0.648284 -38.8503,13.5901 -68.4003,14.2988 -29.5498,0.708662 -41.5744,-14.942 -68.3912,-14.2988 -26.8169,0.643181 -60.0163,12.4305 -74.7922,12.7843 -14.7762,0.353764 -25.5308,-4.98189 -32.4564,-4.8155zm-0.0739843 -364.946l0.0096378 70.0878c6.23594,-0.079937 15.7099,5.04992 32.5208,4.86681 16.8109,-0.183118 48.483,-12.8404 74.7922,-13.178 26.3092,-0.337606 40.3229,13.4408 68.3912,13.0799 28.0687,-0.360851 39.5773,-12.7097 68.4003,-13.0799 28.823,-0.370205 49.2409,13.1615 78.6189,12.7845 29.3777,-0.376725 45.8961,-12.496 68.4,-12.7845 22.5043,-0.288567 59.8043,12.9274 72.2268,12.7843 12.4228,-0.14315 29.5467,-8.25506 33.7255,-8.30835l-0.00141732 -64.9741c-6.64952,0 -15.9684,6.804 -33.7241,5.52586 -17.7554,-1.27814 -46.7187,-12.7843 -72.1395,-12.7843 -25.4205,0 -41.3932,12.7843 -68.4873,12.7843 -27.0944,0 -52.839,-14.059 -78.6189,-14.059 -25.78,0 -44.674,14.059 -68.3998,14.059 -23.7257,0 -45.5936,-12.7843 -68.3918,-12.7843 -22.7982,0 -57.9637,12.7843 -74.7922,12.7843 -16.8287,0 -21.4872,-6.80429 -32.5304,-6.80429z"/>
  <path fill="#BF9F4F" d="M73.577 244.167l209.008 0c-0.319748,-8.94473 13.0978,-8.94445 13.7373,-0.319465l17.5989 0.319465c6.54832,-9.57657 15.4928,-15.9579 29.7102,-15.3102 4.10117,-41.5199 64.8613,-43.7457 70.56,1.6285 45.1446,6.76233 39.2307,65.0384 -1.13981,65.4126 -1.42214,28.9596 -52.5399,44.1 -65.1036,2.24362 -19.6484,0.425481 -29.0741,-10.1945 -32.4295,-23.2923l-19.516 -0.000283465c0.691937,8.73213 -13.3642,9.26419 -14.0562,0l-124.272 0 0.638929 65.4903 -24.2745 0.346394 -0.0345827 -15.2121 13.6857 -0.191339 -0.0473386 -20.7091 -14.1809 -0.00510236 -0.483024 -18.6276 -16.7176 0.248882 0.0629292 19.5721 -14.8745 0.259937 0.308977 19.6112 12.7905 -0.455528 0.00680315 15.804 -23.0287 0.338173 0.0178583 -66.4702 -19.8856 0.000283465c-4.50085,-0.427465 -6.79125,-2.55884 -7.03134,-6.39213l0 -16.6195c0.426898,-5.5389 3.4098,-8.09519 8.9487,-7.67056z"/>
  <rect fill="#644D36" x="91.226" y="276.137" width="66.4487" height="3.19465"/>
  <path fill="#644D36" d="M298.239 247.066l0 0c1.58145,0 2.87518,1.29373 2.87518,2.87518l0 24.9182 -5.75037 0 0 -24.9182c0,-1.58145 1.29373,-2.87518 2.87518,-2.87518z"/>
  <polygon fill="white" points="67.5856,253.775 104.644,255.499 143.619,253.54 171.092,253.455 141.369,254.849 105.603,253.181 68.2246,256.011 "/>
  <path fill="white" d="M209.747 253.136c-7.40126,-0.479339 -15.3882,-0.372756 -23.6404,0 7.87975,0.745796 15.7595,0.958394 23.6404,0z"/>
  <path fill="white" d="M284.822 252.178c-8.20148,-0.479339 -17.0518,-0.372756 -26.1961,0 8.73156,0.745796 17.4631,0.958394 26.1961,0z"/>
  <path fill="white" d="M251.597 252.497c-3.33071,-0.13748 -6.67729,1.62879 -10.0789,1.51172 -4.37273,-0.15052 -8.84013,-2.1634 -13.4873,-2.10813 -4.32709,0.0515906 -9.04508,0.468284 -13.4918,0.59641 4.63181,0.279496 9.58451,1.12365 14.2152,1.21918 4.34211,0.0892914 8.5853,-1.07632 12.8387,-1.38132 3.3086,-0.236976 6.62599,0.424063 10.004,0.162142z"/>
  <path fill="white" d="M360.921 247.717c-37.4879,-12.2321 -39.513,47.9398 3.68674,37.7172 -5.65285,27.0921 40.1905,35.7724 37.7172,0.283748 43.8982,7.76637 30.1604,-48.8716 -1.41789,-35.4487 10.4324,-43.9212 -51.1847,-37.2728 -39.9861,-2.55232z"/>
  <path fill="black" d="M357.292 240.459c-37.4879,-12.2321 -39.513,47.9398 3.68674,37.7172 -5.65257,27.0921 40.1905,35.7724 37.7172,0.283465 43.8982,7.76665 30.1606,-48.8716 -1.41789,-35.4484 10.4326,-43.9212 -51.1847,-37.2728 -39.9861,-2.55232z"/>
  <polygon fill="#644D36" points="95.6985,341.308 97.6153,338.114 107.838,338.114 110.093,335.633 111.306,338.74 114.227,331.085 114.547,340.989 "/>
  <path fill="#0057F0" d="M359.711 245.298c-37.4879,-12.2321 -39.5133,47.9398 3.68674,37.7172 -5.65285,27.0921 40.1905,35.7724 37.7172,0.283465 43.8982,7.76665 30.1604,-48.8716 -1.41817,-35.4484 10.4326,-43.9212 -51.1844,-37.2731 -39.9858,-2.55232z"/>
  <path fill="#644D36" d="M328.908 259.845c1.59704,-15.2277 11.181,-21.2973 28.1129,-19.4873 -3.54104,-20.3394 12.5912,-34.2887 35.78,-23.3209 -16.293,-12.9915 -40.7852,-3.51383 -38.0163,20.7652 -21.7704,-2.85874 -27.993,8.80498 -25.8766,22.0431z"/>
  <path fill="#644D36" d="M402.385 239.718l-1.27786 3.19465c3.93931,-1.49528 7.87975,-1.49386 11.8202,-1.27786l-10.5423 -1.91679z"/>
  <rect fill="#644D36" x="69.2544" y="274.221" width="22.5133" height="2.08545"/>
  <rect fill="#644D36" x="157.689" y="274.368" width="124.897" height="2.14413"/>
  <rect fill="#644D36" x="296.003" y="273.262" width="20.1263" height="2.55572"/>
  <path fill="#644D36" d="M296.642 276.776c-2.44942,1.06498 -5.85695,4.04674 -12.1397,2.87518 4.87984,3.31682 7.58381,2.90268 12.1397,-2.87518z"/>
  <path fill="#644D36" d="M328.269 293.069c8.46596,3.40753 15.281,5.53748 19.8068,4.15304l0.319465 2.23625c-7.13481,0.851528 -13.8438,-1.27843 -20.1263,-6.38929z"/>
  <path fill="#644D36" d="M368.202 322.14c33.2243,5.75037 42.1693,-15.9732 45.0445,-28.7518 22.1893,-1.1177 33.1841,-9.21062 30.6686,-38.0163 6.81506,16.9316 0.212882,39.2942 -29.3908,42.1693 -6.97493,24.1781 -29.018,32.057 -46.3224,24.5988z"/>
  <path id="path1937_3" fill="none" stroke="black" stroke-width="2.83465" d="M1.40428 2.34397l497.094 -0.429449 0.0096378 424.851c-0.30189,36.9227 4.09011,74.5699 -48.9487,96.4659 -66.0583,22.1658 -181.975,-0.413008 -199.453,67.7764 -21.5941,-68.0828 -122.451,-53.0686 -188.79,-66.1799 -59.2614,-3.90473 -61.3143,-64.8655 -59.8533,-98.2475l-0.0578268 -424.236z"/>
 </g>
</svg>
