<?xml version="1.0" encoding="UTF-8" standalone="no"?>
<!-- Created with Inkscape (http://www.inkscape.org/) -->
<svg
   xmlns:dc="http://purl.org/dc/elements/1.1/"
   xmlns:cc="http://creativecommons.org/ns#"
   xmlns:rdf="http://www.w3.org/1999/02/22-rdf-syntax-ns#"
   xmlns:svg="http://www.w3.org/2000/svg"
   xmlns="http://www.w3.org/2000/svg"
   xmlns:sodipodi="http://sodipodi.sourceforge.net/DTD/sodipodi-0.dtd"
   xmlns:inkscape="http://www.inkscape.org/namespaces/inkscape"
   version="1.0"
   width="500"
   height="568"
   id="svg4872"
   sodipodi:version="0.32"
   inkscape:version="0.46"
   sodipodi:docname="Sodankyla.vaakuna.svg"
   inkscape:output_extension="org.inkscape.output.svg.inkscape">
  <metadata
     id="metadata12">
    <rdf:RDF>
      <cc:Work
         rdf:about="">
        <dc:format>image/svg+xml</dc:format>
        <dc:type
           rdf:resource="http://purl.org/dc/dcmitype/StillImage" />
      </cc:Work>
    </rdf:RDF>
  </metadata>
  <sodipodi:namedview
     inkscape:window-height="814"
     inkscape:window-width="1152"
     inkscape:pageshadow="2"
     inkscape:pageopacity="0.0"
     guidetolerance="10.0"
     gridtolerance="10.0"
     objecttolerance="10.0"
     borderopacity="1.0"
     bordercolor="#666666"
     pagecolor="#ffffff"
     id="base"
     showgrid="false"
     showguides="true"
     inkscape:guide-bbox="true"
     inkscape:zoom="1.1502934"
     inkscape:cx="282.17554"
     inkscape:cy="272.4155"
     inkscape:window-x="-8"
     inkscape:window-y="-8"
     inkscape:current-layer="svg4872" />
  <defs
     id="defs4874">
    <inkscape:perspective
       sodipodi:type="inkscape:persp3d"
       inkscape:vp_x="0 : 284 : 1"
       inkscape:vp_y="0 : 1000 : 0"
       inkscape:vp_z="500 : 284 : 1"
       inkscape:persp3d-origin="250 : 189.33333 : 1"
       id="perspective14" />
    <inkscape:perspective
       id="perspective2853"
       inkscape:persp3d-origin="250 : 192.33333 : 1"
       inkscape:vp_z="500 : 288.5 : 1"
       inkscape:vp_y="0 : 1000 : 0"
       inkscape:vp_x="0 : 288.5 : 1"
       sodipodi:type="inkscape:persp3d" />
  </defs>
  <path
     d="M 1.2885154,1.9965563 L 500.33889,1.8692396 L 500.37689,345.6715 C 442.87928,641.71962 55.676969,642.29751 1.2334854,344.63571 L 1.2884954,1.9961074 L 1.2885154,1.9965563 z"
     id="path1937"
     style="fill:#000000;stroke:#000000;stroke-width:0.50583059" />
  <g
     id="layer1">
    <path
       d="M 1.21875,230.40625 L 1.21875,330.34375 C 1.21875,362.32525 10.272767,392.94428 25.40625,420.9375 L 476.0625,420.9375 C 491.18673,392.94428 500.21875,362.32525 500.21875,330.34375 L 500.21875,230.40625 L 1.21875,230.40625 z "
       style="fill:#cccccc;fill-opacity:1;fill-rule:evenodd;stroke:rgb(0, 0, 0);stroke-width:1px;stroke-linecap:butt;stroke-linejoin:miter;stroke-opacity:1"
       id="path11078" />
    <path
       d="M 319.15625,280.90625 C 319.1565,280.90991 319.1562,280.93463 319.15625,280.9375 C 319.1492,280.93747 319.12759,280.93756 319.125,280.9375 C 315.20278,281.13002 311.37003,282.62635 308.8125,285.25 C 306.93462,287.73991 305.119,290.51684 304.9375,293.5625 C 305.15128,296.18024 306.81854,298.51141 308.40625,300.6875 C 309.89631,302.35342 311.3676,304.07949 311.90625,306.1875 C 312.21434,307.17951 312.42492,308.20049 312.5625,309.21875 C 312.56244,309.2215 312.56275,309.24709 312.5625,309.25 C 312.56234,309.25147 312.56251,309.27936 312.5625,309.28125 C 312.56259,309.28255 312.56259,309.30765 312.5625,309.3125 C 312.56229,309.31625 312.56256,309.34006 312.5625,309.34375 C 312.56263,309.3456 312.56254,309.3732 312.5625,309.375 C 312.56255,309.37956 312.56255,309.40444 312.5625,309.40625 C 312.56312,309.40675 312.59063,309.40619 312.59375,309.40625 C 312.59387,309.40813 312.59378,309.43568 312.59375,309.4375 C 312.5935,309.44102 312.59384,309.46512 312.59375,309.46875 C 312.5937,309.47359 312.5937,309.49867 312.59375,309.5 C 312.59381,309.50406 312.59391,309.52843 312.59375,309.53125 C 312.5937,309.53577 312.59376,309.56069 312.59375,309.5625 C 312.59355,309.56603 312.59382,309.59014 312.59375,309.59375 C 312.59621,309.59576 312.6249,309.62464 312.625,309.625 C 312.6252,309.63625 312.6253,309.7105 312.625,309.71875 C 312.62495,309.72285 312.62484,309.74728 312.625,309.75 C 312.62496,309.75176 312.62512,309.77958 312.625,309.78125 C 312.62494,309.79084 312.62515,309.80719 312.625,309.8125 C 312.62494,309.81708 312.62502,309.84192 312.625,309.84375 C 312.62482,309.84749 312.62505,309.87133 312.625,309.875 C 312.62492,309.88351 312.62491,309.8985 312.625,309.90625 C 312.6453,311.65809 311.45246,313.46306 310.8125,315.59375 C 310.30382,317.28725 307.36629,318.94082 306.09375,320 C 304.30845,321.48598 302.76894,322.75126 301.34375,323.9375 C 300.20438,324.88582 298.39367,325.38529 296.9375,326.03125 C 298.18044,323.75331 298.40833,321.1835 298.21875,318.6875 C 297.89059,315.66374 298.3368,312.47963 296.90625,309.625 C 294.77649,305.77372 291.90301,302.18762 288.09375,299.4375 C 284.99034,297.77637 283.33295,294.36445 284.0625,291.28125 C 284.26714,288.59744 288.35216,287.54221 290.6875,288.96875 C 290.71912,289.01971 290.77848,289.08005 290.8125,289.125 C 290.83398,289.15249 290.88161,289.18695 290.90625,289.21875 C 290.91021,289.22353 290.93376,289.24592 290.9375,289.25 C 291.0162,289.33317 291.10131,289.40675 291.1875,289.46875 C 291.21093,289.48486 291.25837,289.5178 291.28125,289.53125 C 291.30851,289.5456 291.37264,289.5777 291.40625,289.59375 C 291.43352,289.60138 291.50056,289.61643 291.53125,289.625 C 291.53415,289.62498 291.55909,289.62518 291.5625,289.625 C 291.58107,289.6302 291.63556,289.64901 291.65625,289.65625 C 291.65918,289.65625 291.68393,289.65633 291.6875,289.65625 C 291.72123,289.65674 291.78575,289.65612 291.8125,289.65625 C 291.83113,289.65594 291.88093,289.65633 291.90625,289.65625 C 291.91144,289.65563 291.93216,289.65721 291.9375,289.65625 C 291.97017,289.6489 292.03252,289.63236 292.0625,289.625 C 292.14636,289.60222 292.23655,289.57268 292.3125,289.53125 C 292.33631,289.51653 292.37992,289.48823 292.40625,289.46875 C 292.43523,289.44743 292.50357,289.398 292.53125,289.375 C 292.53678,289.36922 292.55703,289.34987 292.5625,289.34375 C 292.58948,289.31166 292.63173,289.25618 292.65625,289.21875 C 292.6945,289.15786 292.72204,289.0915 292.75,289.03125 C 292.77009,288.98552 292.79807,288.89235 292.8125,288.84375 C 292.83266,288.77019 292.83798,288.67211 292.84375,288.59375 C 292.84601,288.54999 292.84641,288.48227 292.84375,288.4375 C 292.83762,288.3849 292.8231,288.29793 292.8125,288.25 C 292.81082,288.24314 292.81463,288.22632 292.8125,288.21875 C 292.79761,288.17025 292.7663,288.10384 292.75,288.0625 C 292.71141,287.97063 292.6576,287.87162 292.59375,287.78125 C 291.51839,285.47835 289.3909,282.85116 286.09375,283.25 C 285.36982,283.1935 284.63258,283.21433 283.90625,283.25 C 279.98403,283.44254 276.12003,284.9701 273.5625,287.59375 C 271.68458,290.08368 269.869,292.86061 269.6875,295.90625 C 269.90124,298.52401 271.56854,300.85516 273.15625,303.03125 C 274.64633,304.69719 276.1176,306.42324 276.65625,308.53125 C 276.96433,309.52332 277.20618,310.54425 277.34375,311.5625 C 277.34358,311.57 277.34402,311.61744 277.34375,311.625 C 277.34364,311.62726 277.34379,311.65431 277.34375,311.65625 C 277.34372,311.65809 277.34368,311.68572 277.34375,311.6875 C 277.34371,311.68931 277.3437,311.71418 277.34375,311.71875 C 277.34369,311.72055 277.34365,311.74814 277.34375,311.75 C 277.34489,311.74995 277.36758,311.74993 277.375,311.75 C 277.37493,311.75363 277.37527,311.7777 277.375,311.78125 C 277.37494,311.78309 277.37492,311.81065 277.375,311.8125 C 277.37509,311.81517 277.37504,311.84099 277.375,311.84375 C 277.37476,311.84798 277.37498,311.86469 277.375,311.875 C 277.37494,311.87859 277.37523,311.90272 277.375,311.90625 C 277.37493,311.90824 277.37514,311.93511 277.375,311.9375 C 277.3809,311.94319 277.40479,311.96771 277.40625,311.96875 C 277.4062,311.97287 277.40625,311.99725 277.40625,312 C 277.40584,312.01098 277.40556,312.05167 277.40625,312.0625 C 277.40612,312.06419 277.40628,312.09197 277.40625,312.09375 C 277.40623,312.10191 277.40602,312.11918 277.40625,312.125 C 277.4062,312.12869 277.40643,312.15248 277.40625,312.15625 C 277.40622,312.15807 277.40629,312.18293 277.40625,312.1875 C 277.40617,312.196 277.40615,312.211 277.40625,312.21875 C 277.42657,313.97058 276.20247,315.77556 275.5625,317.90625 C 275.05387,319.59978 272.11627,321.28456 270.84375,322.34375 C 269.05846,323.82972 267.55019,325.06375 266.125,326.25 C 266.02428,326.33384 265.9231,326.42314 265.8125,326.5 L 263.59375,326.5 C 263.6589,326.37913 263.748,326.24557 263.8125,326.125 C 265.36257,323.70389 265.64367,320.90194 265.4375,318.1875 C 265.10932,315.16372 265.55554,311.97964 264.125,309.125 C 261.99521,305.27374 259.0905,301.65637 255.28125,298.90625 C 252.17782,297.24513 250.5517,293.8957 251.28125,290.8125 C 251.48586,288.1287 255.57091,287.04221 257.90625,288.46875 C 258.21892,288.97256 258.62837,289.18748 259,289.1875 C 259.07402,289.18592 259.21152,289.17247 259.28125,289.15625 C 259.28442,289.15615 259.30978,289.15755 259.3125,289.15625 C 259.38443,289.13287 259.46643,289.10047 259.53125,289.0625 C 259.62642,289.00356 259.70642,288.89885 259.78125,288.8125 C 259.89732,288.67173 259.98382,288.48081 260.03125,288.28125 C 260.03848,288.24788 260.05815,288.18984 260.0625,288.15625 C 260.06429,288.13946 260.06149,288.1105 260.0625,288.09375 C 260.06382,288.06008 260.06399,288.00296 260.0625,287.96875 C 260.0607,287.95885 260.0658,287.91765 260.0625,287.90625 C 260.05717,287.88886 260.03479,287.8587 260.03125,287.84375 C 260.02472,287.80572 260.01079,287.73116 260,287.6875 C 259.97308,287.59998 259.92364,287.49291 259.875,287.40625 C 259.87246,287.40193 259.87754,287.37998 259.875,287.375 C 259.86735,287.35867 259.85185,287.32962 259.84375,287.3125 C 259.84096,287.30708 259.81539,287.28619 259.8125,287.28125 C 258.73712,284.97836 256.57839,282.41365 253.28125,282.8125 C 252.55729,282.75601 251.82008,282.71434 251.09375,282.75 C 247.17152,282.94254 243.33877,284.4701 240.78125,287.09375 C 238.90333,289.58367 237.08775,292.32936 236.90625,295.375 C 237.12001,297.99275 238.7873,300.35515 240.375,302.53125 C 241.86509,304.19719 243.33634,305.98574 243.875,308.09375 C 244.18307,309.08581 244.42494,310.0755 244.5625,311.09375 C 244.56261,311.09831 244.56259,311.12317 244.5625,311.125 C 244.56246,311.12868 244.56272,311.15248 244.5625,311.15625 C 244.56249,311.1581 244.56243,311.18572 244.5625,311.1875 C 244.56246,311.18931 244.5624,311.21687 244.5625,311.21875 C 244.56612,311.22175 244.58674,311.24295 244.59375,311.25 C 244.59363,311.2525 244.59381,311.27926 244.59375,311.28125 C 244.59371,311.2831 244.59367,311.31063 244.59375,311.3125 C 244.59361,311.31533 244.5937,311.33968 244.59375,311.34375 C 244.5938,311.34509 244.5938,311.37017 244.59375,311.375 C 244.59371,311.37861 244.59398,311.40271 244.59375,311.40625 C 244.59913,311.41077 244.62253,311.4669 244.625,311.46875 C 244.62481,311.4712 244.62504,311.49802 244.625,311.5 C 244.6249,311.50512 244.62486,311.53051 244.625,311.53125 C 244.62496,311.5375 244.62483,311.55979 244.625,311.5625 C 244.62487,311.56415 244.62503,311.59195 244.625,311.59375 C 244.62514,311.59666 244.62504,311.62093 244.625,311.625 C 244.62493,311.62766 244.62505,311.65203 244.625,311.65625 C 244.62494,311.65993 244.62518,311.68373 244.625,311.6875 C 244.62497,311.68934 244.62504,311.71416 244.625,311.71875 C 244.62518,311.72649 244.62506,311.74294 244.625,311.75 C 244.6453,313.50184 243.38997,315.30681 242.75,317.4375 C 242.24133,319.13103 239.33503,320.75331 238.0625,321.8125 C 236.27719,323.29845 234.76893,324.595 233.34375,325.78125 C 233.01703,326.05319 232.63155,326.29024 232.21875,326.5 L 230.21875,326.5 C 230.52418,325.96842 230.80672,325.41163 231.09375,324.875 C 232.6438,322.4539 232.89369,319.68319 232.6875,316.96875 C 232.35932,313.94499 232.80555,310.72964 231.375,307.875 C 229.24521,304.02377 226.37173,300.43761 222.5625,297.6875 C 219.45905,296.02639 217.80169,292.6457 218.53125,289.5625 C 218.73588,286.87869 222.82091,285.82345 225.15625,287.25 C 225.21097,287.33816 225.28218,287.42865 225.34375,287.5 C 225.40582,287.56971 225.52807,287.63426 225.59375,287.6875 C 225.65046,287.73026 225.72326,287.78144 225.78125,287.8125 C 225.78869,287.81256 225.81123,287.81268 225.8125,287.8125 C 225.83941,287.82576 225.87988,287.86214 225.90625,287.875 C 225.9111,287.87713 225.9332,287.87347 225.9375,287.875 C 225.96728,287.88252 226.02716,287.90011 226.0625,287.90625 C 226.06907,287.90753 226.08791,287.90487 226.09375,287.90625 C 226.09943,287.91218 226.11949,287.93166 226.125,287.9375 C 226.13553,287.93779 226.17504,287.93846 226.1875,287.9375 C 226.19184,287.9375 226.21439,287.93716 226.21875,287.9375 C 226.22163,287.93749 226.24663,287.93759 226.25,287.9375 C 226.25509,287.93742 226.27847,287.93746 226.28125,287.9375 C 226.31364,287.9373 226.36848,287.93944 226.40625,287.9375 C 226.41006,287.93702 226.43344,287.93761 226.4375,287.9375 C 226.44593,287.93779 226.46022,287.93689 226.46875,287.9375 C 226.4729,287.93772 226.49605,287.93749 226.5,287.9375 C 226.50901,287.9337 226.58476,287.91019 226.59375,287.90625 C 226.64825,287.8841 226.73592,287.83626 226.78125,287.8125 C 226.81578,287.7889 226.88026,287.73881 226.90625,287.71875 C 226.91288,287.71312 226.931,287.6933 226.9375,287.6875 C 226.963,287.66365 227.00781,287.62009 227.03125,287.59375 C 227.05986,287.56009 227.10001,287.50583 227.125,287.46875 C 227.15887,287.41593 227.19311,287.33969 227.21875,287.28125 C 227.25272,287.19885 227.29406,287.06589 227.3125,286.96875 C 227.31495,286.95402 227.3109,286.9204 227.3125,286.90625 C 227.31587,286.85439 227.31661,286.77189 227.3125,286.71875 C 227.30712,286.66544 227.2944,286.58532 227.28125,286.53125 C 227.26678,286.47709 227.24127,286.39815 227.21875,286.34375 C 227.17893,286.25309 227.12573,286.15198 227.0625,286.0625 C 225.98715,283.75964 223.85965,281.16364 220.5625,281.5625 C 219.83857,281.50601 219.10135,281.46435 218.375,281.5 C 214.45279,281.69255 210.62001,283.22009 208.0625,285.84375 C 206.18455,288.3337 204.33775,291.1106 204.15625,294.15625 C 204.36998,296.77403 206.0373,299.13641 207.625,301.3125 C 209.11507,302.97843 210.58633,304.70447 211.125,306.8125 C 211.43309,307.80459 211.67493,308.8255 211.8125,309.84375 C 211.81273,309.84612 211.81254,309.87217 211.8125,309.875 C 211.81254,309.88384 211.81231,309.90257 211.8125,309.90625 C 211.81271,309.90798 211.81243,309.93572 211.8125,309.9375 C 211.81227,309.94126 211.81256,309.96508 211.8125,309.96875 C 211.81266,309.96973 211.81256,309.995 211.8125,310 C 211.81561,309.99975 211.84132,310.00006 211.84375,310 C 211.84357,310.0025 211.84381,310.02926 211.84375,310.03125 C 211.8439,310.03222 211.8438,310.0575 211.84375,310.0625 C 211.84349,310.06607 211.84384,310.09012 211.84375,310.09375 C 211.84361,310.10479 211.84392,310.14522 211.84375,310.15625 C 211.84399,310.15819 211.84381,310.18296 211.84375,310.1875 C 211.84354,310.19103 211.84382,310.21513 211.84375,310.21875 C 211.84683,310.21885 211.87146,310.21919 211.875,310.21875 C 211.87484,310.22117 211.87505,310.24802 211.875,310.25 C 211.87516,310.25203 211.87505,310.27699 211.875,310.28125 C 211.87487,310.29358 211.87511,310.3043 211.875,310.3125 C 211.87523,310.3146 211.87503,310.34195 211.875,310.34375 C 211.87518,310.36083 211.87514,310.39403 211.875,310.40625 C 211.87496,310.41084 211.87502,310.43565 211.875,310.4375 C 211.87538,310.45302 211.87483,310.48451 211.875,310.5 C 211.89532,312.25186 210.67122,314.05681 210.03125,316.1875 C 209.52259,317.88104 206.58503,319.56581 205.3125,320.625 C 203.52722,322.11098 202.01893,323.31376 200.59375,324.5 C 199.73871,325.2117 198.52084,325.69863 197.34375,326.15625 C 197.68961,325.57284 197.96546,324.96537 198.28125,324.375 C 199.8313,321.95387 200.11244,319.18319 199.90625,316.46875 C 199.57809,313.44499 200.0243,310.26089 198.59375,307.40625 C 196.46397,303.55499 193.55924,299.96886 189.75,297.21875 C 186.64656,295.55761 185.02045,292.1457 185.75,289.0625 C 185.95464,286.37869 190.03966,285.29221 192.375,286.71875 C 192.44475,286.83114 192.54088,286.96696 192.625,287.0625 C 192.639,287.07773 192.67365,287.11137 192.6875,287.125 C 192.73291,287.16576 192.82852,287.24861 192.875,287.28125 C 192.8804,287.28393 192.9007,287.27886 192.90625,287.28125 C 192.90887,287.2826 192.935,287.311 192.9375,287.3125 C 192.94748,287.31826 192.98646,287.33761 193,287.34375 C 193.00266,287.34653 193.02894,287.37276 193.03125,287.375 C 193.03625,287.37666 193.05721,287.37361 193.0625,287.375 C 193.08994,287.381 193.13048,287.39851 193.15625,287.40625 C 193.16386,287.4084 193.17906,287.40336 193.1875,287.40625 C 193.20457,287.41233 193.23696,287.4343 193.25,287.4375 C 193.25315,287.43733 193.27842,287.43756 193.28125,287.4375 C 193.28692,287.43832 193.30614,287.43635 193.3125,287.4375 C 193.34678,287.44444 193.40598,287.46299 193.4375,287.46875 C 193.44154,287.47328 193.46063,287.49244 193.46875,287.5 C 193.47329,287.50028 193.49564,287.49993 193.5,287.5 C 193.50279,287.49706 193.52805,287.47264 193.53125,287.46875 C 193.53473,287.46816 193.55859,287.46896 193.5625,287.46875 C 193.57933,287.46899 193.60893,287.46842 193.625,287.46875 C 193.64935,287.46478 193.71437,287.44572 193.75,287.4375 C 193.75228,287.43753 193.78013,287.43781 193.78125,287.4375 C 193.78397,287.43619 193.80932,287.40933 193.8125,287.40625 C 193.8256,287.40013 193.89615,287.37942 193.90625,287.375 C 193.93232,287.35803 193.97488,287.32942 194,287.3125 C 194.00198,287.31127 193.99755,287.28252 194,287.28125 C 194.00557,287.27864 194.02516,287.28395 194.03125,287.28125 C 194.03366,287.2799 194.06058,287.28258 194.0625,287.28125 C 194.22883,287.16013 194.35459,286.94569 194.4375,286.75 C 194.57248,286.4077 194.56881,286.00074 194.28125,285.59375 C 193.20589,283.29087 191.04713,280.66365 187.75,281.0625 C 187.20703,281.02015 186.67133,280.99408 186.125,281 C 185.94288,281.00199 185.74409,281.02234 185.5625,281.03125 C 181.64029,281.22382 177.77626,282.75134 175.21875,285.375 C 173.34082,287.86492 171.5565,290.61059 171.375,293.65625 C 171.58872,296.27399 173.25606,298.6364 174.84375,300.8125 C 176.33384,302.47844 177.80509,304.23573 178.34375,306.34375 C 178.65181,307.33581 178.89367,308.32548 179.03125,309.34375 C 179.03153,309.34632 179.0313,309.37224 179.03125,309.375 C 179.03113,309.38086 179.03127,309.39609 179.03125,309.40625 C 179.03103,309.41004 179.03131,309.43382 179.03125,309.4375 C 179.03137,309.43935 179.03129,309.46694 179.03125,309.46875 C 179.03131,309.47334 179.0313,309.49819 179.03125,309.5 C 179.0366,309.50518 179.06002,309.52928 179.0625,309.53125 C 179.06262,309.53309 179.06252,309.56069 179.0625,309.5625 C 179.06226,309.56605 179.06258,309.59014 179.0625,309.59375 C 179.06247,309.59858 179.06244,309.62365 179.0625,309.625 C 179.06275,309.62692 179.06255,309.65171 179.0625,309.65625 C 179.06231,309.65979 179.06256,309.71513 179.0625,309.71875 C 179.06786,309.72391 179.0913,309.74799 179.09375,309.75 C 179.09369,309.75196 179.09393,309.77884 179.09375,309.78125 C 179.09385,309.78689 179.09374,309.80399 179.09375,309.8125 C 179.0937,309.81523 179.09378,309.83964 179.09375,309.84375 C 179.09371,309.84552 179.09386,309.87333 179.09375,309.875 C 179.09369,309.8846 179.09389,309.90094 179.09375,309.90625 C 179.09368,309.9117 179.09353,309.9317 179.09375,309.9375 C 179.0937,309.94207 179.09377,309.96691 179.09375,309.96875 C 179.09357,309.97253 179.09379,309.99632 179.09375,310 C 179.11405,311.75179 177.85871,313.58807 177.21875,315.71875 C 176.7101,317.41226 173.80379,319.06582 172.53125,320.125 C 170.74595,321.61097 169.23769,322.87626 167.8125,324.0625 C 166.89297,324.82789 165.50469,325.28753 164.25,325.78125 L 162.65625,325.78125 C 163.7288,323.59931 163.92929,321.17279 163.75,318.8125 C 163.42185,315.78871 163.86806,312.60464 162.4375,309.75 C 160.30774,305.89872 157.40298,302.28136 153.59375,299.53125 C 150.49032,297.87013 148.86419,294.48946 149.59375,291.40625 C 149.7984,288.72244 153.88342,287.66721 156.21875,289.09375 C 156.36928,289.33633 156.539,289.51103 156.71875,289.625 C 156.71942,289.62568 156.74704,289.62505 156.75,289.625 C 156.75419,289.62719 156.77702,289.62239 156.78125,289.625 C 156.79821,289.63655 156.82832,289.67708 156.84375,289.6875 C 156.84741,289.68968 156.87158,289.68588 156.875,289.6875 C 156.95035,289.72138 157.04728,289.76304 157.125,289.78125 C 157.13213,289.78115 157.1543,289.78116 157.15625,289.78125 C 157.1733,289.78091 157.20016,289.78153 157.21875,289.78125 C 157.22571,289.78114 157.24791,289.78094 157.25,289.78125 C 157.2499,289.7841 157.25032,289.80886 157.25,289.8125 C 157.27873,289.81381 157.34671,289.81352 157.375,289.8125 C 157.39842,289.80555 157.44823,289.78735 157.46875,289.78125 C 157.47157,289.78136 157.4966,289.78094 157.5,289.78125 C 157.50304,289.77822 157.52767,289.75379 157.53125,289.75 C 157.53409,289.75006 157.55918,289.7498 157.5625,289.75 C 157.64157,289.72295 157.74317,289.66562 157.8125,289.625 C 157.90768,289.56605 158.01891,289.4926 158.09375,289.40625 C 158.11491,289.38059 158.13763,289.34004 158.15625,289.3125 C 158.16524,289.29851 158.17915,289.26443 158.1875,289.25 C 158.21559,289.19878 158.26117,289.11834 158.28125,289.0625 C 158.29206,289.03026 158.30436,288.971 158.3125,288.9375 C 158.32184,288.89527 158.33866,288.8251 158.34375,288.78125 C 158.34799,288.73712 158.34383,288.67038 158.34375,288.625 C 158.34419,288.60056 158.34541,288.55022 158.34375,288.53125 C 158.33453,288.4467 158.31027,288.33622 158.28125,288.25 C 158.24082,288.13782 158.20339,288.0172 158.125,287.90625 C 157.04964,285.60335 154.89089,283.0074 151.59375,283.40625 C 150.86982,283.34975 150.13258,283.30809 149.40625,283.34375 C 145.48404,283.5363 141.62002,285.0951 139.0625,287.71875 C 137.1846,290.20867 135.40025,292.95435 135.21875,296 C 135.43251,298.61773 137.09979,300.98016 138.6875,303.15625 C 140.17757,304.82217 141.61759,306.57949 142.15625,308.6875 C 142.46435,309.67954 142.73743,310.66925 142.875,311.6875 C 142.87492,311.6926 142.87491,311.71793 142.875,311.71875 C 142.87508,311.72322 142.87507,311.74811 142.875,311.75 C 142.87495,311.7537 142.87522,311.77746 142.875,311.78125 C 142.87498,311.78308 142.87492,311.81072 142.875,311.8125 C 142.87495,311.81431 142.8749,311.84189 142.875,311.84375 C 142.87445,311.84723 142.87498,311.87196 142.875,311.875 C 142.87497,311.88015 142.875,311.90525 142.875,311.90625 C 142.87497,311.90809 142.87492,311.93563 142.875,311.9375 C 142.87478,311.94175 142.87498,311.99112 142.875,312 C 142.87497,312.00359 142.87522,312.02771 142.875,312.03125 C 142.87521,312.03194 142.87507,312.06053 142.875,312.0625 C 142.88195,312.06946 142.90343,312.09104 142.90625,312.09375 C 142.90623,312.0989 142.90625,312.12402 142.90625,312.125 C 142.90623,312.13321 142.90592,312.15083 142.90625,312.15625 C 142.90616,312.15789 142.90628,312.18572 142.90625,312.1875 C 142.90643,312.19043 142.90629,312.21467 142.90625,312.21875 C 142.90613,312.22405 142.90627,312.24042 142.90625,312.25 C 142.90623,312.25367 142.90643,312.27748 142.90625,312.28125 C 142.90625,312.28308 142.90629,312.30792 142.90625,312.3125 C 142.90646,312.32023 142.90632,312.33669 142.90625,312.34375 C 142.9266,314.09558 141.70246,315.90057 141.0625,318.03125 C 140.55385,319.72476 137.64753,321.37832 136.375,322.4375 C 134.89294,323.67109 133.5584,324.77537 132.34375,325.78125 L 129.625,325.78125 C 130.91861,323.47725 131.13,320.84668 130.9375,318.3125 C 130.60933,315.28874 131.05554,312.10463 129.625,309.25 C 127.49521,305.39872 124.59048,301.78135 120.78125,299.03125 C 117.6778,297.37011 116.05169,294.0207 116.78125,290.9375 C 116.98588,288.25372 121.07091,287.16721 123.40625,288.59375 C 123.46627,288.69047 123.54892,288.79985 123.625,288.875 C 123.67596,288.92352 123.73289,288.99222 123.78125,289.03125 C 123.85542,289.08817 123.955,289.14997 124.03125,289.1875 C 124.09797,289.21833 124.21578,289.26377 124.28125,289.28125 C 124.31556,289.28873 124.36537,289.30534 124.40625,289.3125 C 124.41258,289.31338 124.43185,289.31202 124.4375,289.3125 C 124.48259,289.31535 124.54974,289.31528 124.59375,289.3125 C 124.61033,289.31229 124.66876,289.31191 124.6875,289.3125 C 124.69195,289.31246 124.71468,289.31276 124.71875,289.3125 C 124.72166,289.3096 124.74639,289.28502 124.75,289.28125 C 124.75281,289.28143 124.77806,289.28065 124.78125,289.28125 C 124.78115,289.27832 124.78166,289.2537 124.78125,289.25 C 124.78417,289.25 124.80888,289.24984 124.8125,289.25 C 124.81523,289.25007 124.84085,289.24965 124.84375,289.25 C 124.88882,289.2373 124.95821,289.20766 125,289.1875 C 125.00396,289.18504 125.02632,289.15962 125.03125,289.15625 C 125.06494,289.13201 125.10272,289.11096 125.125,289.09375 C 125.15238,289.06887 125.22987,289.02003 125.25,289 C 125.26176,288.98771 125.27011,288.9505 125.28125,288.9375 C 125.30835,288.90416 125.3516,288.8494 125.375,288.8125 C 125.40674,288.76002 125.44385,288.68168 125.46875,288.625 C 125.47734,288.60863 125.49567,288.5743 125.5,288.5625 C 125.50991,288.52877 125.52399,288.46635 125.53125,288.4375 C 125.53696,288.41259 125.55456,288.37657 125.5625,288.34375 C 125.56351,288.33878 125.5619,288.31677 125.5625,288.3125 C 125.56426,288.27792 125.56159,288.2183 125.5625,288.1875 C 125.56274,288.15435 125.56324,288.10323 125.5625,288.0625 C 125.56217,288.05619 125.56309,288.03688 125.5625,288.03125 C 125.54632,287.90464 125.49835,287.75346 125.4375,287.625 C 125.42544,287.60093 125.39118,287.55515 125.375,287.53125 C 125.35243,287.49944 125.33485,287.46913 125.3125,287.4375 C 124.23714,285.13462 122.10964,282.53865 118.8125,282.9375 C 118.08855,282.88099 117.35134,282.83934 116.625,282.875 C 112.70277,283.06757 108.83876,284.59509 106.28125,287.21875 C 104.40332,289.70868 102.58775,292.45434 102.40625,295.5 C 102.61999,298.11776 104.28729,300.48017 105.875,302.65625 C 107.36507,304.3222 108.83634,306.07949 109.375,308.1875 C 109.68308,309.17955 109.92491,310.16926 110.0625,311.1875 C 110.06278,311.18842 110.06259,311.21374 110.0625,311.21875 C 110.06273,311.21967 110.0625,311.24807 110.0625,311.25 C 110.06244,311.25366 110.06271,311.27748 110.0625,311.28125 C 110.06247,311.2831 110.06241,311.31073 110.0625,311.3125 C 110.06246,311.31431 110.06244,311.33917 110.0625,311.34375 C 110.06264,311.34398 110.08752,311.34406 110.09375,311.34375 C 110.09391,311.34398 110.09378,311.36982 110.09375,311.375 C 110.0937,311.37862 110.09403,311.40269 110.09375,311.40625 C 110.09371,311.40805 110.09367,311.4669 110.09375,311.46875 C 110.09359,311.47159 110.0937,311.49591 110.09375,311.5 C 110.09381,311.50133 110.09381,311.52643 110.09375,311.53125 C 110.09371,311.53485 110.09398,311.55896 110.09375,311.5625 C 110.09371,311.5643 110.09379,311.5892 110.09375,311.59375 C 110.10111,311.59378 110.12359,311.59393 110.125,311.59375 C 110.12521,311.59445 110.12508,311.6199 110.125,311.625 C 110.12523,311.6277 110.12505,311.65214 110.125,311.65625 C 110.12481,311.66174 110.12503,311.67786 110.125,311.6875 C 110.1249,311.68917 110.12503,311.71697 110.125,311.71875 C 110.12517,311.72163 110.12504,311.74594 110.125,311.75 C 110.12498,311.75819 110.12479,311.77544 110.125,311.78125 C 110.12497,311.78491 110.12518,311.80873 110.125,311.8125 C 110.12539,311.82799 110.12482,311.8595 110.125,311.875 C 110.14532,313.62681 108.92121,315.43182 108.28125,317.5625 C 107.7726,319.25602 104.83503,320.94081 103.5625,322 C 101.84022,323.43351 100.35051,324.63261 98.96875,325.78125 L 96.15625,325.78125 C 96.294609,325.52445 96.425387,325.22509 96.5625,324.96875 C 98.112567,322.54767 98.42493,319.80819 98.21875,317.09375 C 97.89059,314.06998 98.336781,310.88588 96.90625,308.03125 C 94.776476,304.17996 91.84049,300.59386 88.03125,297.84375 C 84.92783,296.18261 83.332953,292.73944 84.0625,289.65625 C 84.26714,286.97242 88.35216,285.9172 90.6875,287.34375 C 90.837572,287.58558 91.007818,287.78989 91.1875,287.90625 C 91.190317,287.90799 91.215749,287.9046 91.21875,287.90625 C 91.22507,287.90937 91.243188,287.93468 91.25,287.9375 C 91.278445,287.94791 91.31824,287.95891 91.34375,287.96875 C 91.347919,287.97055 91.370226,287.96644 91.375,287.96875 C 91.395948,287.97948 91.446047,288.02003 91.46875,288.03125 C 91.474182,288.03374 91.494953,288.02921 91.5,288.03125 C 91.50572,288.03423 91.525016,288.0591 91.53125,288.0625 C 91.533527,288.06346 91.56083,288.06206 91.5625,288.0625 C 91.564814,288.06245 91.592177,288.06219 91.59375,288.0625 C 91.605656,288.06216 91.643943,288.06328 91.65625,288.0625 C 91.660333,288.06278 91.68346,288.06176 91.6875,288.0625 C 91.693328,288.06847 91.713085,288.08786 91.71875,288.09375 C 91.723832,288.09364 91.746861,288.09359 91.75,288.09375 C 91.790395,288.09477 91.841994,288.09539 91.875,288.09375 C 91.891587,288.09363 91.918743,288.09322 91.9375,288.09375 C 91.941959,288.09371 91.964662,288.09401 91.96875,288.09375 C 91.968566,288.08993 91.968681,288.06558 91.96875,288.0625 C 91.97172,288.06254 91.996316,288.06217 92,288.0625 C 92.001162,288.06252 92.023635,288.06244 92.03125,288.0625 C 92.033878,288.05961 92.060112,288.03449 92.0625,288.03125 C 92.065233,288.0302 92.088133,288.03396 92.09375,288.03125 C 92.106985,288.02457 92.119062,288.003 92.125,288 C 92.16558,287.97749 92.217627,287.95446 92.25,287.9375 C 92.253028,287.93767 92.27881,287.9375 92.28125,287.9375 C 92.281203,287.93652 92.281296,287.91216 92.28125,287.90625 C 92.298826,287.89474 92.350213,287.86046 92.375,287.84375 C 92.378646,287.84081 92.400629,287.81804 92.40625,287.8125 C 92.412505,287.80606 92.43195,287.78688 92.4375,287.78125 C 92.444361,287.77482 92.462038,287.7566 92.46875,287.75 C 92.481869,287.73646 92.550027,287.70169 92.5625,287.6875 C 92.580573,287.66292 92.610439,287.61401 92.625,287.59375 C 92.641095,287.57017 92.673114,287.52483 92.6875,287.5 C 92.705892,287.46639 92.734924,287.41058 92.75,287.375 C 92.778414,287.30294 92.799085,287.17206 92.8125,287.09375 C 92.821428,287.02158 92.816261,286.91982 92.8125,286.84375 C 92.797289,286.63357 92.744629,286.40104 92.59375,286.1875 C 91.51839,283.88462 89.359647,281.25741 86.0625,281.65625 C 85.338562,281.59976 84.601336,281.58934 83.875,281.625 C 79.952782,281.81755 76.08878,283.3451 73.53125,285.96875 C 71.653338,288.45868 69.869004,291.23559 69.6875,294.28125 C 69.901261,296.89899 71.568547,299.26141 73.15625,301.4375 C 74.646338,303.10343 76.086346,304.82949 76.625,306.9375 C 76.93309,307.92956 77.206176,308.9505 77.34375,309.96875 C 77.343264,309.97228 77.344054,309.99733 77.34375,310 C 77.343946,310.00378 77.3436,310.02839 77.34375,310.03125 C 77.34354,310.035 77.343812,310.05884 77.34375,310.0625 C 77.343921,310.06349 77.343812,310.08875 77.34375,310.09375 C 77.343592,310.09552 77.343698,310.12042 77.34375,310.125 C 77.343901,310.12611 77.343894,310.1513 77.34375,310.15625 C 77.343902,310.15719 77.343801,310.1825 77.34375,310.1875 C 77.34349,310.19102 77.343842,310.21513 77.34375,310.21875 C 77.343912,310.22003 77.343801,310.24518 77.34375,310.25 C 77.343983,310.25193 77.343801,310.27671 77.34375,310.28125 C 77.343541,310.28478 77.343822,310.30889 77.34375,310.3125 C 77.343839,310.31326 77.343812,310.33866 77.34375,310.34375 C 77.350871,310.35095 77.374413,310.37452 77.375,310.375 C 77.375239,310.39189 77.375166,310.42517 77.375,310.4375 C 77.375239,310.43963 77.375022,310.46697 77.375,310.46875 C 77.375187,310.48823 77.375139,310.51903 77.375,310.53125 C 77.375188,310.53295 77.375042,310.55792 77.375,310.5625 C 77.374827,310.56627 77.375042,310.59008 77.375,310.59375 C 77.395336,312.34559 76.171219,314.18181 75.53125,316.3125 C 75.022603,318.00603 72.116276,319.65956 70.84375,320.71875 C 69.058473,322.20473 67.518933,323.47 66.09375,324.65625 C 65.559355,325.10105 64.847506,325.4686 64.125,325.78125 L 63.125,325.78125 C 63.348129,325.36653 63.559502,324.94582 63.78125,324.53125 C 65.331315,322.11014 65.612432,319.27693 65.40625,316.5625 C 65.078086,313.53874 65.493037,310.3859 64.0625,307.53125 C 61.932727,303.67998 59.05924,300.06261 55.25,297.3125 C 52.146576,295.65135 50.551702,292.27071 51.28125,289.1875 C 51.485889,286.50369 55.570911,285.41721 57.90625,286.84375 C 58.074843,287.11542 58.25846,287.35052 58.46875,287.46875 C 58.483893,287.47683 58.514211,287.49386 58.53125,287.5 C 58.534107,287.50097 58.559683,287.4988 58.5625,287.5 C 58.57056,287.50451 58.586139,287.52762 58.59375,287.53125 C 58.673278,287.56055 58.827503,287.5836 58.90625,287.59375 C 58.95829,287.59703 59.015693,287.59614 59.0625,287.59375 C 59.075305,287.59202 59.110636,287.56541 59.125,287.5625 C 59.154036,287.55611 59.196831,287.56709 59.21875,287.5625 C 59.221079,287.56256 59.247274,287.56234 59.25,287.5625 C 59.261257,287.55732 59.301277,287.53695 59.3125,287.53125 C 59.315415,287.53126 59.340135,287.53107 59.34375,287.53125 C 59.346948,287.52977 59.372005,287.50164 59.375,287.5 C 59.401743,287.48095 59.440887,287.458 59.46875,287.4375 C 59.472715,287.43504 59.495067,287.40875 59.5,287.40625 C 59.516845,287.3986 59.544652,287.3831 59.5625,287.375 C 59.56799,287.37225 59.589005,287.37781 59.59375,287.375 C 59.596271,287.37295 59.622347,287.34616 59.625,287.34375 C 59.630588,287.33794 59.650898,287.31803 59.65625,287.3125 C 59.662497,287.30637 59.681377,287.28753 59.6875,287.28125 C 59.691245,287.27723 59.714735,287.25477 59.71875,287.25 C 59.743903,287.21805 59.761392,287.15182 59.78125,287.125 C 59.812128,287.08128 59.881132,287.01688 59.90625,286.96875 C 59.918297,286.94434 59.921312,286.90799 59.9375,286.875 C 59.939754,286.87001 59.9671,286.84803 59.96875,286.84375 C 59.979206,286.80923 59.991837,286.75024 60,286.71875 C 60.017033,286.64611 60.028119,286.54557 60.03125,286.46875 C 60.031529,286.45185 60.031643,286.4241 60.03125,286.40625 C 60.027549,286.31506 59.992003,286.18705 59.96875,286.09375 C 59.963665,286.07539 59.974727,286.04882 59.96875,286.03125 C 59.928106,285.92077 59.826739,285.79611 59.75,285.6875 C 58.674637,283.3846 56.578396,280.8199 53.28125,281.21875 C 52.738292,281.17638 52.171346,281.11905 51.625,281.125 C 51.442901,281.12696 51.244076,281.14734 51.0625,281.15625 C 47.140279,281.34879 43.30752,282.87635 40.75,285.5 C 38.872086,287.98992 37.025254,290.7356 36.84375,293.78125 C 37.05751,296.39901 38.756048,298.7614 40.34375,300.9375 C 41.833836,302.60345 43.305095,304.36073 43.84375,306.46875 C 44.151842,307.4608 44.362426,308.4505 44.5,309.46875 C 44.500092,309.46904 44.523945,309.4695 44.53125,309.46875 C 44.53452,309.46896 44.561069,309.46739 44.5625,309.46875 C 44.56256,309.471 44.562377,309.49713 44.5625,309.5 C 44.559568,309.50259 44.502327,309.52907 44.5,309.53125 C 44.50008,309.53301 44.500031,309.56066 44.5,309.5625 C 44.500122,309.56436 44.500031,309.59193 44.5,309.59375 C 44.499844,309.59552 44.499949,309.62042 44.5,309.625 C 44.506257,309.63015 44.561305,309.65526 44.5625,309.65625 C 44.562612,309.65808 44.562531,309.71694 44.5625,309.71875 C 44.562664,309.72 44.562551,309.74518 44.5625,309.75 C 44.562467,309.75276 44.562458,309.77718 44.5625,309.78125 C 44.562467,309.78401 44.562407,309.80982 44.5625,309.8125 C 44.562293,309.81604 44.562572,309.84012 44.5625,309.84375 C 44.56254,309.84392 44.587491,309.84404 44.59375,309.84375 C 44.593937,309.84407 44.593791,309.86986 44.59375,309.875 C 44.593896,309.87535 44.593781,309.9011 44.59375,309.90625 C 44.593979,309.90893 44.593668,309.93375 44.59375,309.9375 C 44.593711,309.94022 44.593781,309.96465 44.59375,309.96875 C 44.593731,309.97054 44.593863,309.99832 44.59375,310 C 44.594081,310.00578 44.593802,310.02308 44.59375,310.03125 C 44.593937,310.03292 44.593791,310.05792 44.59375,310.0625 C 44.593577,310.06629 44.593791,310.09007 44.59375,310.09375 C 44.594133,310.10924 44.593565,310.14075 44.59375,310.15625 C 44.614074,311.90806 43.389971,313.68182 42.75,315.8125 C 42.241346,317.50605 39.303777,319.19081 38.03125,320.25 C 36.245961,321.73594 34.706434,322.97001 33.28125,324.15625 C 32.619917,324.70668 31.756275,325.13566 30.84375,325.5 C 32.239531,323.14656 32.51063,320.45217 32.3125,317.84375 C 31.984342,314.81997 32.430546,311.63588 31,308.78125 C 28.870233,304.92998 25.99674,301.34386 22.1875,298.59375 C 19.084077,296.93258 17.426692,293.48944 18.15625,290.40625 C 18.360897,287.72243 22.44591,286.66721 24.78125,288.09375 C 24.919741,288.3169 25.116373,288.511 25.28125,288.625 C 25.290243,288.63096 25.301593,288.65066 25.3125,288.65625 C 25.329588,288.66439 25.358559,288.68 25.375,288.6875 C 25.380094,288.68994 25.401699,288.68511 25.40625,288.6875 C 25.420827,288.69477 25.454131,288.7122 25.46875,288.71875 C 25.482467,288.72458 25.514213,288.74624 25.53125,288.75 C 25.548512,288.75346 25.578459,288.74627 25.59375,288.75 C 25.596099,288.74996 25.623705,288.74971 25.625,288.75 C 25.628488,288.75084 25.652224,288.78001 25.65625,288.78125 C 25.67376,288.78729 25.703091,288.776 25.71875,288.78125 C 25.721616,288.78121 25.746488,288.78137 25.75,288.78125 C 25.753506,288.78219 25.775609,288.80956 25.78125,288.8125 C 25.787578,288.81607 25.806934,288.80968 25.8125,288.8125 C 25.815064,288.81278 25.838376,288.81261 25.84375,288.8125 C 25.865216,288.81304 25.910665,288.8129 25.9375,288.8125 C 25.940572,288.81202 25.964166,288.8135 25.96875,288.8125 C 26.002723,288.8042 26.075582,288.78505 26.09375,288.78125 C 26.099776,288.78121 26.122248,288.78105 26.125,288.78125 C 26.128366,288.78127 26.153244,288.78149 26.15625,288.78125 C 26.159093,288.78129 26.186094,288.78168 26.1875,288.78125 C 26.192423,288.77932 26.213848,288.7834 26.21875,288.78125 C 26.282158,288.75082 26.349928,288.68925 26.40625,288.65625 C 26.501438,288.5973 26.581415,288.52385 26.65625,288.4375 C 26.77717,288.29087 26.892342,288.10503 26.9375,287.90625 C 26.94403,287.87427 26.933915,287.81378 26.9375,287.78125 C 26.938202,287.77309 26.936996,287.75818 26.9375,287.75 C 26.938497,287.72533 26.938077,287.68125 26.9375,287.65625 C 26.937314,287.65207 26.937489,287.62991 26.9375,287.625 C 26.938194,287.59787 26.93883,287.556 26.9375,287.53125 C 26.936849,287.527 26.938524,287.50493 26.9375,287.5 C 26.929673,287.46746 26.912502,287.43198 26.90625,287.40625 C 26.897681,287.37403 26.888191,287.31603 26.875,287.28125 C 26.835993,287.18458 26.776063,287.05713 26.71875,286.96875 C 26.712185,286.96293 26.690515,286.94177 26.6875,286.9375 C 25.612158,284.63462 23.453397,282.03866 20.15625,282.4375 C 19.432322,282.38101 18.726335,282.37059 18,282.40625 C 14.077791,282.59879 10.21378,284.12634 7.65625,286.75 C 5.7783358,289.23992 3.9627542,291.98561 3.78125,295.03125 C 3.995008,297.64901 5.6622971,300.0114 7.25,302.1875 C 8.740095,303.85343 10.242596,305.57948 10.78125,307.6875 C 11.089343,308.67953 11.299926,309.70049 11.4375,310.71875 C 11.437562,310.72324 11.437716,310.74795 11.4375,310.75 C 11.437428,310.75507 11.437284,310.78056 11.4375,310.78125 C 11.43748,310.78307 11.437418,310.81072 11.4375,310.8125 C 11.437552,310.8171 11.437665,310.84198 11.4375,310.84375 C 11.43746,310.84556 11.437397,310.87312 11.4375,310.875 C 11.43991,310.87693 11.467998,310.90545 11.46875,310.90625 C 11.468709,310.90987 11.469017,310.93396 11.46875,310.9375 C 11.46872,310.93931 11.468668,310.96688 11.46875,310.96875 C 11.468864,310.97141 11.468781,310.99724 11.46875,311 C 11.46872,311.00359 11.468966,311.02771 11.46875,311.03125 C 11.468709,311.03579 11.468544,311.06057 11.46875,311.0625 C 11.468751,311.06346 11.468781,311.08861 11.46875,311.09375 C 11.474939,311.09955 11.499651,311.12434 11.5,311.125 C 11.499948,311.12913 11.500021,311.15351 11.5,311.15625 C 11.499984,311.16036 11.500038,311.18125 11.5,311.1875 C 11.499896,311.18918 11.500042,311.21697 11.5,311.21875 C 11.499742,311.22935 11.499578,311.26963 11.5,311.28125 C 11.499968,311.28492 11.500186,311.30874 11.5,311.3125 C 11.499958,311.3171 11.499825,311.34205 11.5,311.34375 C 11.520343,313.09558 10.32747,314.96305 9.6875,317.09375 C 9.1788568,318.78725 6.2100363,320.40956 4.9375,321.46875 C 3.5633498,322.61251 2.3559968,323.64452 1.21875,324.59375 L 1.21875,330.34375 C 1.21875,339.39824 1.9605055,348.34878 3.34375,357.15625 L 162.3125,357.15625 L 162.3125,357.875 L 498,357.875 C 499.45842,348.83314 500.21875,339.64724 500.21875,330.34375 L 500.21875,325.0625 C 499.61823,325.55937 499.03021,326.03326 498.46875,326.5 L 495.59375,326.5 C 495.73212,326.24316 495.89413,325.97509 496.03125,325.71875 C 497.58129,323.29763 497.86243,320.52694 497.65625,317.8125 C 497.3281,314.78874 497.77429,311.60463 496.34375,308.75 C 494.21395,304.89872 491.34049,301.31261 487.53125,298.5625 C 484.42783,296.90138 482.77046,293.45819 483.5,290.375 C 483.70465,287.69119 487.78966,286.63596 490.125,288.0625 C 490.27507,288.30433 490.50783,288.50865 490.6875,288.625 C 490.68907,288.62585 490.68471,288.65337 490.6875,288.65625 C 490.69071,288.65981 490.71591,288.65338 490.71875,288.65625 C 490.72592,288.65897 490.74141,288.68546 490.75,288.6875 C 490.77412,288.69219 490.82538,288.68209 490.84375,288.6875 C 490.84959,288.69002 490.86871,288.71519 490.875,288.71875 C 490.88826,288.72733 490.92352,288.74038 490.9375,288.75 C 490.94451,288.7546 490.96183,288.77717 490.96875,288.78125 C 490.97217,288.7831 490.99664,288.77963 491,288.78125 C 491.00071,288.78142 491.02367,288.78129 491.03125,288.78125 C 491.03628,288.78207 491.05709,288.81127 491.0625,288.8125 C 491.09075,288.82004 491.13217,288.80778 491.15625,288.8125 C 491.15907,288.81273 491.18242,288.81261 491.1875,288.8125 C 491.2178,288.81328 491.28113,288.81297 491.3125,288.8125 C 491.32909,288.81239 491.41874,288.81198 491.4375,288.8125 C 491.43805,288.81236 491.46636,288.78354 491.46875,288.78125 C 491.47108,288.78133 491.49726,288.78101 491.5,288.78125 C 491.50662,288.77792 491.51843,288.78772 491.53125,288.78125 C 491.53685,288.77854 491.55927,288.75129 491.5625,288.75 C 491.5753,288.74336 491.61055,288.72754 491.625,288.71875 C 491.6396,288.70957 491.67394,288.69608 491.6875,288.6875 C 491.69368,288.68371 491.71339,288.65932 491.71875,288.65625 C 491.72176,288.65643 491.74757,288.65625 491.75,288.65625 C 491.74995,288.65527 491.75004,288.63091 491.75,288.625 C 491.75558,288.62239 491.77516,288.6277 491.78125,288.625 C 491.78401,288.62364 491.81009,288.5951 491.8125,288.59375 C 491.84179,288.57241 491.87835,288.5561 491.90625,288.53125 C 491.91999,288.51842 491.95546,288.48236 491.96875,288.46875 C 492.047,288.38491 492.13303,288.26061 492.1875,288.15625 C 492.21349,288.10346 492.23228,288.02436 492.25,287.96875 C 492.2608,287.93145 492.27475,287.88168 492.28125,287.84375 C 492.28642,287.80797 492.31114,287.75567 492.3125,287.71875 C 492.31369,287.60725 492.28462,287.4611 492.25,287.34375 C 492.20602,287.20658 492.12726,287.04214 492.03125,286.90625 C 490.95588,284.60336 488.79715,282.00741 485.5,282.40625 C 484.77607,282.34975 484.07009,282.33933 483.34375,282.375 C 479.42154,282.56751 475.55754,284.06386 473,286.6875 C 471.12206,289.17742 469.30651,291.95435 469.125,295 C 469.33876,297.61776 471.00604,299.98015 472.59375,302.15625 C 474.08382,303.82221 475.5551,305.54823 476.09375,307.65625 C 476.40183,308.64831 476.64367,309.66924 476.78125,310.6875 C 476.78412,310.69035 476.80909,310.71527 476.8125,310.71875 C 476.80669,310.72393 476.78278,310.74802 476.78125,310.75 C 476.78102,310.75376 476.78131,310.77758 476.78125,310.78125 C 476.7814,310.78219 476.78131,310.8075 476.78125,310.8125 C 476.78107,310.81428 476.7812,310.83917 476.78125,310.84375 C 476.78138,310.84487 476.78139,310.87005 476.78125,310.875 C 476.78421,310.87497 476.80883,310.8753 476.8125,310.875 C 476.81264,310.87597 476.81255,310.90125 476.8125,310.90625 C 476.81223,310.90979 476.81259,310.93388 476.8125,310.9375 C 476.81265,310.93879 476.81255,310.96393 476.8125,310.96875 C 476.81272,310.97069 476.81255,310.99546 476.8125,311 C 476.81228,311.00353 476.81257,311.02763 476.8125,311.03125 C 476.81258,311.03202 476.81256,311.05741 476.8125,311.0625 C 476.81815,311.06792 476.84316,311.09327 476.84375,311.09375 C 476.84399,311.11066 476.84392,311.14392 476.84375,311.15625 C 476.84399,311.15838 476.84377,311.18572 476.84375,311.1875 C 476.84394,311.20699 476.8439,311.23778 476.84375,311.25 C 476.84394,311.25169 476.84379,311.27667 476.84375,311.28125 C 476.84395,311.28902 476.84382,311.30542 476.84375,311.3125 C 476.86409,313.06433 475.63997,314.93181 475,317.0625 C 474.49135,318.75606 471.55377,320.37831 470.28125,321.4375 C 468.49597,322.92347 466.98769,324.22 465.5625,325.40625 C 465.02812,325.85105 464.34752,326.18734 463.625,326.5 L 462.59375,326.5 C 462.81689,326.08524 463.02825,325.66456 463.25,325.25 C 464.80006,322.82885 465.08118,320.02694 464.875,317.3125 C 464.54684,314.28873 464.99303,311.13591 463.5625,308.28125 C 461.43271,304.42997 458.52799,300.81261 454.71875,298.0625 C 451.61533,296.40137 449.98921,292.98945 450.71875,289.90625 C 450.92337,287.22242 455.00841,286.16721 457.34375,287.59375 C 457.51234,287.8654 457.75846,288.06927 457.96875,288.1875 C 457.97441,288.19335 457.99428,288.21295 458,288.21875 C 458.00277,288.21868 458.02833,288.21904 458.03125,288.21875 C 458.03399,288.21864 458.06004,288.21853 458.0625,288.21875 C 458.06825,288.22459 458.08808,288.24414 458.09375,288.25 C 458.17328,288.27926 458.26499,288.30234 458.34375,288.3125 C 458.34718,288.31287 458.36955,288.31247 458.375,288.3125 C 458.38741,288.31226 458.39842,288.31225 458.40625,288.3125 C 458.44653,288.31278 458.49782,288.31421 458.53125,288.3125 C 458.57546,288.30781 458.64914,288.28927 458.6875,288.28125 C 458.68982,288.28127 458.74889,288.28162 458.75,288.28125 C 458.7564,288.27446 458.77796,288.25247 458.78125,288.25 C 458.78416,288.25009 458.81169,288.25043 458.8125,288.25 C 458.84996,288.23391 458.90372,288.20511 458.9375,288.1875 C 458.94073,288.18397 458.96594,288.15913 458.96875,288.15625 C 458.98205,288.15022 459.0181,288.13262 459.03125,288.125 C 459.03426,288.12179 459.05982,288.09649 459.0625,288.09375 C 459.06569,288.09047 459.09095,288.06532 459.09375,288.0625 C 459.12782,288.03204 459.18461,287.975 459.21875,287.9375 C 459.24319,287.90741 459.28741,287.8488 459.3125,287.8125 C 459.3248,287.79236 459.35917,287.74445 459.375,287.71875 C 459.41113,287.64553 459.44776,287.54974 459.46875,287.46875 C 459.48367,287.40519 459.49538,287.29134 459.5,287.21875 C 459.50183,287.10893 459.50063,286.96198 459.46875,286.84375 C 459.42699,286.69999 459.34636,286.54263 459.25,286.40625 C 458.17464,284.10333 456.01589,281.53865 452.71875,281.9375 C 452.17577,281.89516 451.67135,281.8378 451.125,281.84375 C 450.94291,281.84571 450.71282,281.86609 450.53125,281.875 C 446.60905,282.06756 442.77628,283.5951 440.21875,286.21875 C 438.34085,288.70868 436.52526,291.48559 436.34375,294.53125 C 436.55752,297.14899 438.2248,299.5114 439.8125,301.6875 C 441.30256,303.35343 442.77384,305.07948 443.3125,307.1875 C 443.62059,308.1795 443.86243,309.2005 444,310.21875 C 444.00303,310.21882 444.02779,310.21924 444.03125,310.21875 C 444.03133,310.22101 444.03113,310.24712 444.03125,310.25 C 444.02641,310.25444 444.00466,310.2769 444,310.28125 C 444.00007,310.28303 444.00003,310.31066 444,310.3125 C 444.00011,310.31434 444.00003,310.34192 444,310.34375 C 443.99983,310.34551 443.99994,310.37042 444,310.375 C 444.00564,310.38043 444.03065,310.40577 444.03125,310.40625 C 444.03139,310.40811 444.03129,310.4357 444.03125,310.4375 C 444.03144,310.43878 444.03131,310.46393 444.03125,310.46875 C 444.03124,310.47147 444.03121,310.49593 444.03125,310.5 C 444.03124,310.50278 444.03116,310.52857 444.03125,310.53125 C 444.03107,310.53481 444.03133,310.55888 444.03125,310.5625 C 444.03144,310.56284 444.0313,310.5886 444.03125,310.59375 C 444.0314,310.59407 444.03129,310.61986 444.03125,310.625 C 444.03148,310.62768 444.03117,310.65251 444.03125,310.65625 C 444.03121,310.65899 444.03129,310.68339 444.03125,310.6875 C 444.03123,310.68928 444.03137,310.71707 444.03125,310.71875 C 444.03158,310.72455 444.03131,310.74184 444.03125,310.75 C 444.03144,310.75168 444.0313,310.77666 444.03125,310.78125 C 444.03108,310.78499 444.0313,310.80882 444.03125,310.8125 C 444.03163,310.828 444.03107,310.8595 444.03125,310.875 C 444.05158,312.62679 442.82747,314.40056 442.1875,316.53125 C 441.67884,318.22479 438.77253,319.90956 437.5,320.96875 C 435.71472,322.45469 434.20643,323.68876 432.78125,324.875 C 432.11991,325.42545 431.22502,325.85441 430.3125,326.21875 C 431.70831,323.8653 432.01063,321.20217 431.8125,318.59375 C 431.48435,315.56999 431.93054,312.35464 430.5,309.5 C 428.37025,305.64868 425.43424,302.09385 421.625,299.34375 C 418.52159,297.68261 416.9267,294.23944 417.65625,291.15625 C 417.86091,288.47242 421.94591,287.38596 424.28125,288.8125 C 424.41973,289.03564 424.58513,289.26099 424.75,289.375 C 424.75419,289.37746 424.77613,289.37228 424.78125,289.375 C 424.81576,289.3923 424.85452,289.42673 424.875,289.4375 C 424.87619,289.43806 424.90491,289.43641 424.90625,289.4375 C 424.91219,289.44449 424.93385,289.46711 424.9375,289.46875 C 424.95933,289.47442 425.0094,289.49541 425.03125,289.5 C 425.03635,289.50124 425.05792,289.4986 425.0625,289.5 C 425.06365,289.50032 425.09147,289.50003 425.09375,289.5 C 425.11022,289.50543 425.1397,289.52542 425.15625,289.53125 C 425.16,289.53243 425.1843,289.53048 425.1875,289.53125 C 425.19106,289.53116 425.21582,289.53125 425.21875,289.53125 C 425.23219,289.53833 425.26826,289.55716 425.28125,289.5625 C 425.28473,289.5624 425.30964,289.56254 425.3125,289.5625 C 425.31787,289.56241 425.3415,289.56239 425.34375,289.5625 C 425.37241,289.56322 425.40934,289.56411 425.4375,289.5625 C 425.44861,289.55949 425.48648,289.53638 425.5,289.53125 C 425.50413,289.52979 425.52758,289.53237 425.53125,289.53125 C 425.5404,289.53088 425.58274,289.53045 425.59375,289.53125 C 425.59713,289.53129 425.622,289.53149 425.625,289.53125 C 425.63027,289.52963 425.65087,289.53311 425.65625,289.53125 C 425.7327,289.50218 425.81002,289.44432 425.875,289.40625 C 425.9702,289.34733 426.08142,289.27385 426.15625,289.1875 C 426.19011,289.14644 426.2227,289.07779 426.25,289.03125 C 426.34038,288.86931 426.39416,288.66512 426.40625,288.46875 C 426.40653,288.44429 426.40668,288.39376 426.40625,288.375 C 426.4063,288.35046 426.40648,288.30852 426.40625,288.28125 C 426.40598,288.2763 426.40681,288.25424 426.40625,288.25 C 426.39908,288.21545 426.38229,288.15501 426.375,288.125 C 426.36699,288.09492 426.35424,288.03477 426.34375,288 C 426.32924,287.96223 426.30118,287.88717 426.28125,287.84375 C 426.25689,287.79851 426.21835,287.73327 426.1875,287.6875 C 425.11216,285.38463 422.9534,282.7574 419.65625,283.15625 C 418.93232,283.09975 418.19509,283.08934 417.46875,283.125 C 413.54653,283.31751 409.68253,284.87635 407.125,287.5 C 405.24708,289.98993 403.46276,292.70435 403.28125,295.75 C 403.49503,298.36774 405.1623,300.7614 406.75,302.9375 C 408.2401,304.60344 409.68009,306.32949 410.21875,308.4375 C 410.52682,309.42954 410.79992,310.45049 410.9375,311.46875 C 410.93757,311.47327 410.93771,311.49794 410.9375,311.5 C 410.93742,311.5051 410.93727,311.53057 410.9375,311.53125 C 410.93748,311.53309 410.9374,311.56072 410.9375,311.5625 C 410.93756,311.56707 410.93766,311.59197 410.9375,311.59375 C 410.93746,311.59556 410.93738,311.62313 410.9375,311.625 C 410.93735,311.62787 410.93731,311.65605 410.9375,311.65625 C 410.93746,311.65986 410.93776,311.68395 410.9375,311.6875 C 410.93747,311.6893 410.9374,311.71689 410.9375,311.71875 C 410.93762,311.7214 410.93753,311.74724 410.9375,311.75 C 410.93747,311.75361 410.93771,311.77771 410.9375,311.78125 C 410.93746,311.78581 410.93728,311.81058 410.9375,311.8125 C 410.93751,311.81348 410.93753,311.8386 410.9375,311.84375 C 410.94516,311.85131 410.96839,311.87435 410.96875,311.875 C 410.9687,311.87908 410.96877,311.90351 410.96875,311.90625 C 410.96871,311.9125 410.96858,311.93479 410.96875,311.9375 C 410.96865,311.93917 410.96879,311.96697 410.96875,311.96875 C 410.9685,311.97936 410.96833,312.01963 410.96875,312.03125 C 410.96872,312.0349 410.96893,312.05874 410.96875,312.0625 C 410.96871,312.06711 410.96857,312.09205 410.96875,312.09375 C 410.9891,313.84556 409.76497,315.68181 409.125,317.8125 C 408.61634,319.50601 405.71004,321.15956 404.4375,322.21875 C 402.6522,323.7047 401.11268,324.97 399.6875,326.15625 C 399.53977,326.27918 399.38698,326.3916 399.21875,326.5 L 397.09375,326.5 C 397.18169,326.33766 397.2884,326.19315 397.375,326.03125 C 398.92507,323.61015 399.20618,320.77693 399,318.0625 C 398.67184,315.03871 399.11804,311.88589 397.6875,309.03125 C 395.55774,305.17995 392.65298,301.56261 388.84375,298.8125 C 385.74032,297.15136 384.14544,293.80195 384.875,290.71875 C 385.07963,288.03491 389.16466,286.94846 391.5,288.375 C 391.51667,288.40084 391.54516,288.44467 391.5625,288.46875 C 391.72046,288.68023 391.88357,288.84658 392.0625,288.9375 C 392.06321,288.93785 392.09085,288.9346 392.09375,288.9375 C 392.09669,288.94046 392.09297,288.96829 392.09375,288.96875 C 392.09583,288.97013 392.1225,288.96734 392.125,288.96875 C 392.13704,288.97425 392.14839,288.99572 392.15625,289 C 392.15722,289.00026 392.18464,289.00002 392.1875,289 C 392.18927,289.00031 392.21636,288.99905 392.21875,289 C 392.22441,289.00281 392.24367,288.99642 392.25,289 C 392.25231,289.00107 392.27959,289.03078 392.28125,289.03125 C 392.30547,289.03991 392.35498,289.05814 392.375,289.0625 C 392.38255,289.06226 392.39795,289.06319 392.40625,289.0625 C 392.41051,289.06224 392.43317,289.06255 392.4375,289.0625 C 392.44185,289.06278 392.46443,289.06175 392.46875,289.0625 C 392.47549,289.06233 392.49749,289.06222 392.5,289.0625 C 392.56176,289.06511 392.64567,289.0654 392.71875,289.0625 C 392.73046,289.06173 392.77076,289.06396 392.78125,289.0625 C 392.79287,289.05929 392.83084,289.0359 392.84375,289.03125 C 392.85188,289.02835 392.8682,289.03328 392.875,289.03125 C 392.93009,289.01333 393.00875,288.99079 393.0625,288.96875 C 393.06353,288.9682 393.06262,288.9404 393.0625,288.9375 C 393.06647,288.93505 393.08882,288.90875 393.09375,288.90625 C 393.1106,288.89861 393.1384,288.8831 393.15625,288.875 C 393.16723,288.86949 393.18007,288.84948 393.1875,288.84375 C 393.20071,288.83247 393.23726,288.79318 393.25,288.78125 C 393.25625,288.77513 393.27512,288.75628 393.28125,288.75 C 393.35317,288.67281 393.44976,288.56503 393.5,288.46875 C 393.53612,288.39554 393.57275,288.29974 393.59375,288.21875 C 393.59748,288.20286 393.59037,288.17489 393.59375,288.15625 C 393.60156,288.1078 393.62229,288.04178 393.625,288 C 393.62566,287.98379 393.62505,287.95402 393.625,287.9375 C 393.62297,287.85421 393.6143,287.74402 393.59375,287.65625 C 393.58027,287.60347 393.55176,287.52161 393.53125,287.46875 C 393.49507,287.38078 393.43175,287.27147 393.375,287.1875 C 392.29967,284.88461 390.17215,282.3199 386.875,282.71875 C 386.15106,282.66226 385.41383,282.6206 384.6875,282.65625 C 380.76527,282.84877 376.90128,284.3451 374.34375,286.96875 C 372.46584,289.45866 370.65025,292.23561 370.46875,295.28125 C 370.68249,297.89902 372.3498,300.2614 373.9375,302.4375 C 375.42761,304.10342 376.89885,305.82947 377.4375,307.9375 C 377.7456,308.92955 377.98741,309.9505 378.125,310.96875 C 378.12511,310.96968 378.12509,310.99498 378.125,311 C 378.12498,311.00194 378.1248,311.03029 378.125,311.03125 C 378.12498,311.03492 378.12521,311.05873 378.125,311.0625 C 378.125,311.06431 378.12492,311.09197 378.125,311.09375 C 378.12498,311.09556 378.12489,311.12313 378.125,311.125 C 378.13251,311.12482 378.1549,311.12491 378.15625,311.125 C 378.15619,311.127 378.15604,311.15576 378.15625,311.15625 C 378.15622,311.15986 378.15651,311.18396 378.15625,311.1875 C 378.15637,311.19014 378.15628,311.21599 378.15625,311.21875 C 378.15631,311.22282 378.15629,311.24723 378.15625,311.25 C 378.1562,311.25482 378.15609,311.27998 378.15625,311.28125 C 378.15622,311.28582 378.15604,311.31056 378.15625,311.3125 C 378.16361,311.31253 378.18617,311.31241 378.1875,311.3125 C 378.18748,311.31349 378.18755,311.33861 378.1875,311.34375 C 378.18742,311.34886 378.18737,311.37425 378.1875,311.375 C 378.18745,311.37911 378.18753,311.40352 378.1875,311.40625 C 378.18746,311.41587 378.18717,311.46333 378.1875,311.46875 C 378.1874,311.47043 378.18755,311.4982 378.1875,311.5 C 378.18746,311.50409 378.18752,311.52853 378.1875,311.53125 C 378.18747,311.53493 378.18769,311.55874 378.1875,311.5625 C 378.18746,311.56707 378.18733,311.59205 378.1875,311.59375 C 378.1879,311.60924 378.18732,311.64075 378.1875,311.65625 C 378.20783,313.40809 376.98371,315.18182 376.34375,317.3125 C 375.83507,319.00603 372.89754,320.65957 371.625,321.71875 C 369.83973,323.20473 368.30018,324.47 366.875,325.65625 C 366.48604,325.97999 366.03568,326.26028 365.53125,326.5 L 363.6875,326.5 C 364.01927,325.93047 364.31661,325.32653 364.625,324.75 C 366.17505,322.32886 366.48744,319.58945 366.28125,316.875 C 365.95312,313.85123 366.36806,310.60464 364.9375,307.75 C 362.80772,303.89871 359.90297,300.34385 356.09375,297.59375 C 352.9903,295.93259 351.39544,292.5207 352.125,289.4375 C 352.32965,286.75368 356.41466,285.66721 358.75,287.09375 C 358.79925,287.17309 358.85598,287.27616 358.90625,287.34375 C 358.96424,287.41879 359.02811,287.5078 359.09375,287.5625 C 359.09786,287.56579 359.11801,287.58718 359.125,287.59375 C 359.16001,287.6193 359.21577,287.66374 359.25,287.6875 C 359.26318,287.69529 359.29832,287.71166 359.3125,287.71875 C 359.4072,287.76267 359.53827,287.79176 359.625,287.8125 C 359.62754,287.81234 359.65394,287.81254 359.65625,287.8125 C 359.66816,287.81218 359.70644,287.81328 359.71875,287.8125 C 359.72283,287.81277 359.74596,287.81178 359.75,287.8125 C 359.7569,287.81237 359.77914,287.81232 359.78125,287.8125 C 359.81495,287.81452 359.86625,287.81358 359.90625,287.8125 C 359.91138,287.81257 359.93476,287.8127 359.9375,287.8125 C 359.95405,287.81229 359.98122,287.81186 360,287.8125 C 360.00446,287.81249 360.02717,287.81279 360.03125,287.8125 C 360.03486,287.81233 360.0585,287.81234 360.0625,287.8125 C 360.06688,287.81288 360.08938,287.81222 360.09375,287.8125 C 360.09797,287.81253 360.12106,287.81285 360.125,287.8125 C 360.14135,287.80478 360.17562,287.78725 360.1875,287.78125 C 360.2061,287.76966 360.26069,287.73263 360.28125,287.71875 C 360.2841,287.71882 360.30933,287.71828 360.3125,287.71875 C 360.31249,287.71772 360.31256,287.69336 360.3125,287.6875 C 360.31495,287.68751 360.34072,287.6873 360.34375,287.6875 C 360.34653,287.68469 360.37196,287.6596 360.375,287.65625 C 360.42882,287.61908 360.51138,287.54882 360.5625,287.5 C 360.5753,287.48613 360.61232,287.45269 360.625,287.4375 C 360.70662,287.33499 360.80045,287.18104 360.84375,287.0625 C 360.8773,286.95453 360.90504,286.80257 360.90625,286.6875 C 360.90359,286.52481 360.86154,286.33513 360.78125,286.15625 C 360.76978,286.13192 360.7318,286.08655 360.71875,286.0625 C 360.6961,286.02263 360.68345,285.97599 360.65625,285.9375 C 359.58086,283.63462 357.42214,281.03864 354.125,281.4375 C 353.40106,281.38102 352.66384,281.33934 351.9375,281.375 C 348.0153,281.56756 344.15129,283.12634 341.59375,285.75 C 339.71584,288.23993 337.93151,290.95434 337.75,294 C 337.96375,296.61772 339.63104,299.04267 341.21875,301.21875 C 342.70881,302.8847 344.14884,304.61073 344.6875,306.71875 C 344.9956,307.7108 345.26869,308.73175 345.40625,309.75 C 345.40619,309.75566 345.40618,309.77174 345.40625,309.78125 C 345.40617,309.7862 345.40602,309.81156 345.40625,309.8125 C 345.40604,309.81625 345.40632,309.84007 345.40625,309.84375 C 345.40619,309.84874 345.4062,309.87408 345.40625,309.875 C 345.40626,309.87697 345.40606,309.90576 345.40625,309.90625 C 345.40747,309.90624 345.43128,309.9063 345.4375,309.90625 C 345.43746,309.91144 345.43732,309.9373 345.4375,309.9375 C 345.43745,309.94248 345.43745,309.96782 345.4375,309.96875 C 345.43724,309.97228 345.43759,309.99638 345.4375,310 C 345.43737,310.01101 345.43767,310.02022 345.4375,310.03125 C 345.43745,310.03579 345.43751,310.06069 345.4375,310.0625 C 345.4373,310.06606 345.43756,310.09012 345.4375,310.09375 C 345.43658,310.10087 345.43442,310.12211 345.4375,310.125 C 345.43747,310.13015 345.43736,310.15591 345.4375,310.15625 C 345.43775,310.17315 345.43767,310.20643 345.4375,310.21875 C 345.43769,310.23586 345.43765,310.30029 345.4375,310.3125 C 345.43734,310.31623 345.43755,310.34007 345.4375,310.34375 C 345.43789,310.35923 345.43733,310.39076 345.4375,310.40625 C 345.45784,312.15809 344.23372,313.93183 343.59375,316.0625 C 343.08511,317.75603 340.17878,319.47207 338.90625,320.53125 C 337.12099,322.01722 335.58144,323.22002 334.15625,324.40625 C 333.30123,325.11792 332.05209,325.60488 330.875,326.0625 C 331.2209,325.47908 331.52797,324.87164 331.84375,324.28125 C 333.39382,321.86014 333.67495,319.0582 333.46875,316.34375 C 333.14059,313.31996 333.5868,310.16713 332.15625,307.3125 C 330.02645,303.46122 327.12173,299.84385 323.3125,297.09375 C 320.20906,295.43259 318.6142,292.05195 319.34375,288.96875 C 319.54839,286.28494 323.63341,285.19846 325.96875,286.625 C 326.12032,286.86924 326.2858,287.07596 326.46875,287.1875 C 326.53549,287.22619 326.61987,287.25645 326.6875,287.28125 C 326.75911,287.30401 326.89806,287.33624 326.96875,287.34375 C 327.02075,287.34662 327.07844,287.34716 327.125,287.34375 C 327.1319,287.34381 327.1538,287.34378 327.15625,287.34375 C 327.17787,287.34446 327.22692,287.34385 327.25,287.34375 C 327.25337,287.34382 327.27843,287.34376 327.28125,287.34375 C 327.28189,287.34301 327.28131,287.31544 327.28125,287.3125 C 327.30659,287.30728 327.37516,287.29036 327.40625,287.28125 C 327.41311,287.27864 327.43063,287.25242 327.4375,287.25 C 327.47178,287.23841 327.53024,287.2349 327.5625,287.21875 C 327.58958,287.20051 327.63395,287.1422 327.65625,287.125 C 327.65877,287.12295 327.68485,287.12741 327.6875,287.125 C 327.70395,287.10899 327.7044,287.07592 327.71875,287.0625 C 327.72265,287.05867 327.74594,287.0672 327.75,287.0625 C 327.76666,287.04113 327.79666,286.99106 327.8125,286.96875 C 327.81625,286.9637 327.80901,286.9418 327.8125,286.9375 C 327.83291,286.9112 327.88219,286.87672 327.90625,286.84375 C 327.9098,286.83854 327.93458,286.81729 327.9375,286.8125 C 327.96884,286.75233 328.00946,286.65428 328.03125,286.59375 C 328.04204,286.56416 328.0507,286.50274 328.0625,286.46875 C 328.06764,286.45235 328.09118,286.4201 328.09375,286.40625 C 328.10392,286.32438 328.09842,286.2076 328.09375,286.125 C 328.07617,285.90877 327.99723,285.68598 327.84375,285.46875 C 326.76841,283.16586 324.60964,280.5699 321.3125,280.96875 C 320.76954,280.92636 320.23383,280.90033 319.6875,280.90625 C 319.55092,280.90776 319.41941,280.89931 319.28125,280.90625 C 319.27868,280.90619 319.25705,280.90628 319.25,280.90625 C 319.24541,280.90615 319.22397,280.90653 319.21875,280.90625 C 319.21808,280.9064 319.19048,280.9064 319.1875,280.90625 C 319.18459,280.90631 319.15678,280.90568 319.15625,280.90625 z "
       style="fill: rgb(255, 0, 0); fill-opacity: 1; fill-rule: evenodd; stroke: none; stroke-width: 1px; stroke-linecap: butt; stroke-linejoin: miter; stroke-opacity: 1;"
       id="path4023" />
    <g
       transform="matrix(1.52213, 0, 0, 1.40729, 63.9484, -292.653)"
       id="g18253">
      <path
         d="M 166.74037,304.36883 L 132.55872,299.99398 L 118.05973,331.25584 L 104.75763,299.46624 L 70.434581,302.54067 L 91.314131,275.12592 L 71.490061,246.9385 L 105.67171,251.31334 L 120.1707,220.05148 L 133.4728,251.84108 L 167.79586,248.76665 L 146.91631,276.18141 L 166.74037,304.36883 z"
         style="fill:#cccccc;fill-opacity:1;stroke:none;stroke-opacity:1"
         id="path14743" />
    </g>
  </g>
</svg>
