<?xml version="1.0" encoding="UTF-8" standalone="no"?>
<!-- Created with Inkscape (http://www.inkscape.org/) -->
<svg
   xmlns:dc="http://purl.org/dc/elements/1.1/"
   xmlns:cc="http://web.resource.org/cc/"
   xmlns:rdf="http://www.w3.org/1999/02/22-rdf-syntax-ns#"
   xmlns:svg="http://www.w3.org/2000/svg"
   xmlns="http://www.w3.org/2000/svg"
   xmlns:sodipodi="http://inkscape.sourceforge.net/DTD/sodipodi-0.dtd"
   xmlns:inkscape="http://www.inkscape.org/namespaces/inkscape"
   width="500"
   height="545"
   id="svg6579"
   sodipodi:version="0.32"
   inkscape:version="0.43"
   version="1.0"
   sodipodi:docbase=""
   sodipodi:docname="Soini.vaakuna.svg">
  <defs
     id="defs6581" />
  <sodipodi:namedview
     id="base"
     pagecolor="#ffffff"
     bordercolor="#666666"
     borderopacity="1.0"
     inkscape:pageopacity="0.0"
     inkscape:pageshadow="2"
     inkscape:zoom="1"
     inkscape:cx="505.36066"
     inkscape:cy="266.50471"
     inkscape:document-units="px"
     inkscape:current-layer="layer1"
     inkscape:window-width="1139"
     inkscape:window-height="806"
     inkscape:window-x="0"
     inkscape:window-y="0" />
  <metadata
     id="metadata6584">
    <rdf:RDF>
      <cc:Work
         rdf:about="">
        <dc:format>image/svg+xml</dc:format>
        <dc:type
           rdf:resource="http://purl.org/dc/dcmitype/StillImage" />
      </cc:Work>
    </rdf:RDF>
  </metadata>
  <g
     inkscape:label="Layer 1"
     inkscape:groupmode="layer"
     id="layer1">
    <path
       style="fill:#ee1c25;fill-opacity:1;fill-rule:evenodd;stroke:#000000;stroke-width:1px;stroke-linecap:butt;stroke-linejoin:miter;stroke-opacity:1"
       d="M 0.5,0.5 L 499.5,0.5 L 499.5,320 C 499.5,400 410,544.5 250,544.5 C 90,544.5 0.5,400 0.5,320 L 0.5,0.5 z "
       id="path1344"
       sodipodi:nodetypes="cccccc" />
    <path
       style="fill:#ac8b2e;fill-opacity:1;fill-rule:evenodd;stroke:#000000;stroke-width:1px;stroke-linecap:butt;stroke-linejoin:miter;stroke-opacity:1"
       d="M 0.5,280 C 20,280 35,310 55,310 C 75,310 100,280 120,280 C 140,280 165,310 185,310 C 205,310 230,280 250,280 C 270,280 295,310 315,310 C 335,310 360,280 380,280 C 400,280 425,310 445,310 C 465,310 480,280 499.5,280 L 499.5,320 C 499.5,352 485.5,389.5 466.7,420 C 460,425 455,430 445,430 C 425,430 400,405 380,405 C 360,405 335,430 315,430 C 295,430 270,405 250,405 C 230,405 205,430 185,430 C 165,430 140,405 120,405 C 100,405 75,430 55,430 C 45,430 40,425 33.3,420 C 14.5,389.5 0.5,352 0.5,320 L 0.5,280 z "
       id="path1346"
       sodipodi:nodetypes="ccccccccccccccccccccc" />
    <path
       style="fill:#ac8b2e;fill-opacity:1;fill-rule:evenodd;stroke:#000000;stroke-width:1px;stroke-linecap:butt;stroke-linejoin:miter;stroke-opacity:1"
       d="M 250,54 C 238,65 228,77 219,92 C 194,91 164,117 187,148 C 205,117 229,129 229,144 C 229,175.6 185,190 163,190 C 144,190 133,180 133,168 C 133,156 141,139 170,147 C 169,129 149,115 126,114 C 119,99 97,84 68,83 C 102,121 98,185 98,238 L 402,238 C 402,185 398,121 432,83 C 403,84 381,99 374,114 C 351,115 331,129 330,147 C 359,139 367,156 367,168 C 367,180 356,190 337,190 C 315,190 271,175.6 271,144 C 271,129 295,117 313,148 C 336,117 306,91 281,92 C 272,77 262,65 250,54 z "
       id="path2223"
       sodipodi:nodetypes="ccccccccccccccsssccc" />
  </g>
</svg>
