<?xml version="1.0" encoding="UTF-8" standalone="no"?>
<!-- Created with Inkscape (http://www.inkscape.org/) -->
<svg
   xmlns:svg="http://www.w3.org/2000/svg"
   xmlns="http://www.w3.org/2000/svg"
   version="1.0"
   width="805.27502"
   height="935.216"
   viewBox="0 0 805.275 935.216"
   id="Layer_1"
   xml:space="preserve"><defs
   id="defs128" />
<g
   id="g3">
	<g
   id="g5">
		<path
   d="M 443.637,396.341 C 492.332,365.081 521.549,315.238 528.49,261.758 L 531.961,241.888 C 535.543,230.721 541.756,221.402 549.76,214.042 L 542.764,214.406 C 524.741,221.402 511.475,235.255 504.87,252.326 L 470.504,302.365 C 468.657,305.919 464.459,307.29 461.045,305.919 C 457.631,304.1 456.119,299.902 457.967,296.488 L 457.967,296.488 L 465.187,287.784 C 491.326,249.499 503.136,205.702 501.792,163.611 L 498.602,112.817 C 498.938,100.056 501.792,87.406 505.934,76.743 L 496.475,79.066 C 479.068,87.798 468.658,105.205 468.658,123.619 L 464.236,168.144 C 454.049,195.262 440.169,219.918 424.832,240.179 L 426.959,225.934 C 453.042,171.95 452.314,111.836 429.758,60.679 L 423.489,49.261 C 413.805,35.996 401.884,25.585 389.402,18.589 L 391.081,29.027 C 401.548,46.07 400.205,66.92 390.13,82.62 C 368.526,113.181 356.771,147.295 353.916,181.046 L 352.965,198.089 C 355.036,214.405 357.723,230.105 361.305,243.594 C 342.779,220.646 333.095,193.164 331.697,166.437 L 325.484,112.816 C 325.091,96.5 317.759,81.892 306.677,71.845 L 304.606,97.592 L 297.218,137.22 L 291.341,156.978 C 279.475,189.749 281.882,224.228 296.154,253.668 L 336.174,312.802 C 302.759,305.918 279.475,276.98 278.859,243.985 L 278.859,243.593 C 272.198,229.012 258.989,219.693 243.988,217.23 L 251.992,241.522 C 255.91,261.028 258.205,280.17 258.989,297.213 C 264.642,330.236 286.807,355.983 316.36,367.765 L 337.965,378.932 C 344.234,382.738 348.039,389.343 348.767,396.339 L 443.637,396.339 L 443.637,396.341 z "
   style="fill:#ff0000;fill-rule:evenodd"
   id="path7" />
		<path
   d="M 443.637,396.341 C 492.332,365.081 521.549,315.238 528.49,261.758 L 531.961,241.888 C 535.543,230.721 541.756,221.402 549.76,214.042 L 542.764,214.406 C 524.741,221.402 511.475,235.255 504.87,252.326 L 470.504,302.365 C 468.657,305.919 464.459,307.29 461.045,305.919 C 457.631,304.1 456.119,299.902 457.967,296.488 L 457.967,296.488 L 465.187,287.784 C 491.326,249.499 503.136,205.702 501.792,163.611 L 498.602,112.817 C 498.938,100.056 501.792,87.406 505.934,76.743 L 496.475,79.066 C 479.068,87.798 468.658,105.205 468.658,123.619 L 464.236,168.144 C 454.049,195.262 440.169,219.918 424.832,240.179 L 426.959,225.934 C 453.042,171.95 452.314,111.836 429.758,60.679 L 423.489,49.261 C 413.805,35.996 401.884,25.585 389.402,18.589 L 391.081,29.027 C 401.548,46.07 400.205,66.92 390.13,82.62 C 368.526,113.181 356.771,147.295 353.916,181.046 L 352.965,198.089 C 355.036,214.405 357.723,230.105 361.305,243.594 C 342.779,220.646 333.095,193.164 331.697,166.437 L 325.484,112.816 C 325.091,96.5 317.759,81.892 306.677,71.845 L 304.606,97.592 L 297.218,137.22 L 291.341,156.978 C 279.475,189.749 281.882,224.228 296.154,253.668 L 336.174,312.802 C 302.759,305.918 279.475,276.98 278.859,243.985 L 278.859,243.593 C 272.198,229.012 258.989,219.693 243.988,217.23 L 251.992,241.522 C 255.91,261.028 258.205,280.17 258.989,297.213 C 264.642,330.236 286.807,355.983 316.36,367.765 L 337.965,378.932 C 344.234,382.738 348.039,389.343 348.767,396.339 L 443.637,396.339 L 443.637,396.341 z "
   style="fill:none;stroke:#ff0000;stroke-width:1.7177;stroke-miterlimit:3"
   id="path9" />
		<path
   d="M 284.342,542.37 L 272.924,531.568 C 262.177,521.493 244.715,521.857 234.639,533.023 C 233.968,533.639 233.184,534.395 232.96,535.122 L 204.75,554.88 C 171.727,576.457 127.565,566.774 106.352,533.639 C 104.617,530.952 103.162,528.126 102.154,525.663 L 66.724,479.403 C 58.608,468.992 43.384,466.894 32.973,474.869 C 30.119,476.968 28.048,479.795 26.704,482.229 L 26.704,469.355 C 32.246,452.312 50.268,442.601 67.676,448.114 C 72.993,449.849 77.359,452.676 80.941,456.482 L 117.155,484.328 L 135.513,501.371 C 146.931,506.52 158.853,508.256 170.271,507.276 L 161.932,502.742 C 123.983,486.79 101.763,449.233 103.89,409.493 L 104.618,376.862 L 110.159,338.186 L 113.965,307.29 C 115.028,290.582 105.625,276.002 91.017,269.37 L 91.017,267.663 L 91.745,265.2 C 117.38,262.737 140.049,281.88 142.511,308.018 C 142.511,308.269 142.511,308.633 142.511,308.633 L 148.78,407.395 C 147.66,435.633 167.81,459.672 195.292,464.066 C 168.929,440.53 155.664,407.395 156,374.4 L 169.881,272.196 L 178.948,236.99 L 180.459,216.476 C 175.869,202.623 164.395,192.548 150.85,189.022 L 151.466,185.943 C 168.146,182.389 184.881,186.922 197.139,196.969 C 207.549,213.061 212.363,231.084 211.971,248.519 L 208.557,367.402 L 211.356,393.904 L 218.632,410.947 C 225.965,428.242 246.058,436.582 263.521,429.362 C 275.051,424.828 282.664,414.39 284.342,402.971 L 284.342,542.37 L 284.342,542.37 z "
   style="fill:#ff0000;fill-rule:evenodd"
   id="path11" />
		<path
   d="M 284.342,542.37 L 272.924,531.568 C 262.177,521.493 244.715,521.857 234.639,533.023 C 233.968,533.639 233.184,534.395 232.96,535.122 L 204.75,554.88 C 171.727,576.457 127.565,566.774 106.352,533.639 C 104.617,530.952 103.162,528.126 102.154,525.663 L 66.724,479.403 C 58.608,468.992 43.384,466.894 32.973,474.869 C 30.119,476.968 28.048,479.795 26.704,482.229 L 26.704,469.355 C 32.246,452.312 50.268,442.601 67.676,448.114 C 72.993,449.849 77.359,452.676 80.941,456.482 L 117.155,484.328 L 135.513,501.371 C 146.931,506.52 158.853,508.256 170.271,507.276 L 161.932,502.742 C 123.983,486.79 101.763,449.233 103.89,409.493 L 104.618,376.862 L 110.159,338.186 L 113.965,307.29 C 115.028,290.582 105.625,276.002 91.017,269.37 L 91.017,267.663 L 91.745,265.2 C 117.38,262.737 140.049,281.88 142.511,308.018 C 142.511,308.269 142.511,308.633 142.511,308.633 L 148.78,407.395 C 147.66,435.633 167.81,459.672 195.292,464.066 C 168.929,440.53 155.664,407.395 156,374.4 L 169.881,272.196 L 178.948,236.99 L 180.459,216.476 C 175.869,202.623 164.395,192.548 150.85,189.022 L 151.466,185.943 C 168.146,182.389 184.881,186.922 197.139,196.969 C 207.549,213.061 212.363,231.084 211.971,248.519 L 208.557,367.402 L 211.356,393.904 L 218.632,410.947 C 225.965,428.242 246.058,436.582 263.521,429.362 C 275.051,424.828 282.664,414.39 284.342,402.971 L 284.342,542.37 L 284.342,542.37 z "
   style="fill:none;stroke:#ff0000;stroke-width:1.7177;stroke-miterlimit:3"
   id="path13" />
		<path
   d="M 520.542,542.37 L 531.96,531.568 C 542.763,521.493 560.169,521.857 570.244,533.023 C 570.972,533.639 571.699,534.395 572.315,535.122 L 600.188,555.244 C 633.156,576.457 677.317,566.774 698.586,533.639 C 700.265,530.952 701.776,528.126 703.119,525.663 L 738.214,479.795 C 746.274,468.992 761.498,466.894 771.965,474.869 C 774.763,476.968 776.834,479.795 778.569,482.593 L 778.178,469.356 C 773.028,452.313 754.614,442.854 737.598,448.115 C 731.946,449.85 727.411,452.677 723.941,456.483 L 687.784,484.693 L 669.37,501.372 C 658.231,506.521 646.029,508.257 634.891,507.277 L 643.006,502.743 C 680.899,486.791 703.119,449.234 701.385,409.858 L 700.265,377.227 L 695.116,338.187 L 690.974,307.291 C 689.855,290.976 699.65,276.003 714.258,269.371 L 713.922,267.664 L 713.53,265.201 C 687.783,262.738 664.835,281.881 662.763,308.019 C 662.763,308.27 662.763,308.634 662.371,308.998 L 656.102,407.759 C 657.221,435.633 636.959,459.897 609.478,464.067 C 636.008,440.531 649.217,407.396 649.217,374.4 L 634.889,272.196 L 625.933,236.99 L 624.478,216.476 C 629.347,202.623 640.541,192.548 654.031,189.022 L 653.416,185.943 C 636.736,182.389 620.28,186.922 607.743,196.969 C 597.332,213.061 592.799,231.084 592.799,248.519 L 596.381,367.402 L 593.527,394.269 L 586.306,410.948 C 578.974,428.243 559.048,436.583 541.417,429.363 C 529.887,424.829 522.274,414.391 520.54,402.972 L 520.54,542.37 L 520.542,542.37 z "
   style="fill:#ff0000;fill-rule:evenodd"
   id="path15" />
		<path
   d="M 520.542,542.37 L 531.96,531.568 C 542.763,521.493 560.169,521.857 570.244,533.023 C 570.972,533.639 571.699,534.395 572.315,535.122 L 600.188,555.244 C 633.156,576.457 677.317,566.774 698.586,533.639 C 700.265,530.952 701.776,528.126 703.119,525.663 L 738.214,479.795 C 746.274,468.992 761.498,466.894 771.965,474.869 C 774.763,476.968 776.834,479.795 778.569,482.593 L 778.178,469.356 C 773.028,452.313 754.614,442.854 737.598,448.115 C 731.946,449.85 727.411,452.677 723.941,456.483 L 687.784,484.693 L 669.37,501.372 C 658.231,506.521 646.029,508.257 634.891,507.277 L 643.006,502.743 C 680.899,486.791 703.119,449.234 701.385,409.858 L 700.265,377.227 L 695.116,338.187 L 690.974,307.291 C 689.855,290.976 699.65,276.003 714.258,269.371 L 713.922,267.664 L 713.53,265.201 C 687.783,262.738 664.835,281.881 662.763,308.019 C 662.763,308.27 662.763,308.634 662.371,308.998 L 656.102,407.759 C 657.221,435.633 636.959,459.897 609.478,464.067 C 636.008,440.531 649.217,407.396 649.217,374.4 L 634.889,272.196 L 625.933,236.99 L 624.478,216.476 C 629.347,202.623 640.541,192.548 654.031,189.022 L 653.416,185.943 C 636.736,182.389 620.28,186.922 607.743,196.969 C 597.332,213.061 592.799,231.084 592.799,248.519 L 596.381,367.402 L 593.527,394.269 L 586.306,410.948 C 578.974,428.243 559.048,436.583 541.417,429.363 C 529.887,424.829 522.274,414.391 520.54,402.972 L 520.54,542.37 L 520.542,542.37 z "
   style="fill:none;stroke:#ff0000;stroke-width:1.7177;stroke-miterlimit:3"
   id="path17" />
		<path
   d="M 708.382,779.521 C 763.01,744.791 795.642,688.847 802.638,628.594 L 802.638,2.638 L 2.638,2.638 L 2.638,628.595 C 9.634,692.655 45.456,746.891 96.502,779.27 L 402.273,932.268 L 708.382,779.521 z "
   style="fill:#dedede;fill-rule:evenodd"
   id="path19" />
		<path
   d="M 708.382,779.521 C 763.01,744.791 795.642,688.847 802.638,628.594 L 802.638,2.638 L 2.638,2.638 L 2.638,628.595 C 9.634,692.655 45.456,746.891 96.502,779.27 L 402.273,932.268 L 708.382,779.521 z "
   style="fill:none;stroke:#dedede;stroke-width:1.7177;stroke-miterlimit:3"
   id="path21" />
		
			<line
   fill="none"
   stroke="#000000"
   stroke-width="1.7177"
   stroke-miterlimit="3"
   x1="313.22299"
   y1="525.29901"
   x2="313.22299"
   y2="545.92401"
   id="line23"
   style="fill:none;stroke:#000000;stroke-width:1.7177;stroke-miterlimit:3" />
		<polyline
   fill="none"
   stroke="#000000"
   stroke-width="1.7177"
   stroke-miterlimit="3"
   points="296.879,578.556 290.275,591.065     279.192,605.674 269.006,613.65 261.786,617.456 255.517,622.717 252.326,627.615   "
   id="polyline25"
   style="fill:none;stroke:#000000;stroke-width:1.7177;stroke-miterlimit:3" />
		
			<line
   fill="none"
   stroke="#000000"
   stroke-width="1.7177"
   stroke-miterlimit="3"
   x1="285.461"
   y1="606.03802"
   x2="285.461"
   y2="608.10901"
   id="line27"
   style="fill:none;stroke:#000000;stroke-width:1.7177;stroke-miterlimit:3" />
		
			<line
   fill="none"
   stroke="#000000"
   stroke-width="1.7177"
   stroke-miterlimit="3"
   x1="298.61499"
   y1="552.78101"
   x2="298.61499"
   y2="560.505"
   id="line29"
   style="fill:none;stroke:#000000;stroke-width:1.7177;stroke-miterlimit:3" />
		
			<line
   fill="none"
   stroke="#000000"
   stroke-width="1.7177"
   stroke-miterlimit="3"
   x1="311.48801"
   y1="585.18799"
   x2="303.87601"
   y2="591.065"
   id="line31"
   style="fill:none;stroke:#000000;stroke-width:1.7177;stroke-miterlimit:3" />
		
			<line
   fill="none"
   stroke="#000000"
   stroke-width="1.7177"
   stroke-miterlimit="3"
   x1="299.67801"
   y1="594.87201"
   x2="297.60699"
   y2="596.57898"
   id="line33"
   style="fill:none;stroke:#000000;stroke-width:1.7177;stroke-miterlimit:3" />
		
			<line
   fill="none"
   stroke="#000000"
   stroke-width="1.7177"
   stroke-miterlimit="3"
   x1="321.89801"
   y1="430.70801"
   x2="321.89801"
   y2="447.13501"
   id="line35"
   style="fill:none;stroke:#000000;stroke-width:1.7177;stroke-miterlimit:3" />
		
			<line
   fill="none"
   stroke="#000000"
   stroke-width="1.7177"
   stroke-miterlimit="3"
   x1="316.74899"
   y1="409.49399"
   x2="316.74899"
   y2="420.66101"
   id="line37"
   style="fill:none;stroke:#000000;stroke-width:1.7177;stroke-miterlimit:3" />
		
			<line
   fill="none"
   stroke="#000000"
   stroke-width="1.7177"
   stroke-miterlimit="3"
   x1="337.23499"
   y1="408.12299"
   x2="337.23499"
   y2="424.07501"
   id="line39"
   style="fill:none;stroke:#000000;stroke-width:1.7177;stroke-miterlimit:3" />
		
			<line
   fill="none"
   stroke="#000000"
   stroke-width="1.7177"
   stroke-miterlimit="3"
   x1="314.67899"
   y1="468.26401"
   x2="314.67899"
   y2="475.23199"
   id="line41"
   style="fill:none;stroke:#000000;stroke-width:1.7177;stroke-miterlimit:3" />
		
			<line
   fill="none"
   stroke="#000000"
   stroke-width="1.7177"
   stroke-miterlimit="3"
   x1="322.29099"
   y1="472.43399"
   x2="322.29099"
   y2="477.69501"
   id="line43"
   style="fill:none;stroke:#000000;stroke-width:1.7177;stroke-miterlimit:3" />
		
			<line
   fill="none"
   stroke="#000000"
   stroke-width="1.7177"
   stroke-miterlimit="3"
   x1="317.36499"
   y1="482.59299"
   x2="317.36499"
   y2="484.944"
   id="line45"
   style="fill:none;stroke:#000000;stroke-width:1.7177;stroke-miterlimit:3" />
		
			<line
   fill="none"
   stroke="#000000"
   stroke-width="1.7177"
   stroke-miterlimit="3"
   x1="298.95099"
   y1="477.69501"
   x2="298.95099"
   y2="540.99902"
   id="line47"
   style="fill:none;stroke:#000000;stroke-width:1.7177;stroke-miterlimit:3" />
		
			<line
   fill="none"
   stroke="#000000"
   stroke-width="1.7177"
   stroke-miterlimit="3"
   x1="297.99899"
   y1="408.87799"
   x2="297.99899"
   y2="468.01199"
   id="line49"
   style="fill:none;stroke:#000000;stroke-width:1.7177;stroke-miterlimit:3" />
		
			<line
   fill="none"
   stroke="#000000"
   stroke-width="1.7177"
   stroke-miterlimit="3"
   x1="359.23099"
   y1="493.39499"
   x2="359.23099"
   y2="499.664"
   id="line51"
   style="fill:none;stroke:#000000;stroke-width:1.7177;stroke-miterlimit:3" />
		
			<line
   fill="none"
   stroke="#000000"
   stroke-width="1.7177"
   stroke-miterlimit="3"
   x1="357.72101"
   y1="463.45099"
   x2="357.72101"
   y2="466.52899"
   id="line53"
   style="fill:none;stroke:#000000;stroke-width:1.7177;stroke-miterlimit:3" />
		<path
   d="M 708.382,779.521 C 763.01,744.791 795.642,688.847 802.638,628.594 L 802.638,2.638 L 2.638,2.638 L 2.638,628.595 C 9.634,692.655 45.456,746.891 96.502,779.27 L 402.273,932.268 L 708.382,779.521 z "
   style="fill:#dedede;fill-rule:evenodd"
   id="path55" />
		<path
   d="M 708.382,779.521 C 763.01,744.791 795.642,688.847 802.638,628.594 L 802.638,2.638 L 2.638,2.638 L 2.638,628.595 C 9.634,692.655 45.456,746.891 96.502,779.27 L 402.273,932.268 L 708.382,779.521 z "
   style="fill:none;stroke:#000000;stroke-width:0.36809999;stroke-miterlimit:3"
   id="path57" />
		<path
   d="M 402.273,909.935 L 398.859,905.765 L 395.613,901.595 L 395.053,856.09 L 390.127,815.706 C 389.008,810.557 383.858,807.003 378.597,808.122 C 376.527,808.458 375.127,809.466 373.784,810.921 L 362.981,815.343 C 352.962,822.703 346.582,832.778 344.455,843.945 L 338.578,856.818 C 334.045,861.967 329.902,867.621 326.432,872.406 L 322.625,872.406 L 320.163,872.406 L 317.756,871.427 L 318.092,869.692 L 322.625,864.795 L 330.237,850.187 L 336.506,830.318 C 340.313,818.172 347.645,808.125 356.768,800.736 C 362.645,795.95 368.914,791.781 375.127,788.59 L 379.324,784.784 C 385.201,778.543 386.545,769.448 383.522,761.864 L 379.324,739.531 C 376.134,729.82 366.059,723.943 355.648,725.286 L 315.628,736.452 C 304.602,740.258 296.878,749.689 294.415,760.492 L 294.079,805.661 C 293.071,821.361 283.389,834.122 269.787,840.364 L 265.589,843.19 L 263.854,843.19 L 261.391,842.574 L 260.663,840.756 L 259.711,839.748 L 258.592,838.656 L 261.39,836.557 L 262.51,834.85 L 273.2,826.51 C 277.118,819.262 279.469,811.174 280.197,803.926 L 276.727,768.104 L 276.727,760.128 L 276.727,745.155 L 276.727,741.965 L 268.779,744.064 L 264.245,750.333 C 255.178,765.278 244.711,778.907 234.301,789.961 C 233.181,791.052 231.838,791.78 230.495,792.032 L 225.961,802.219 L 221.035,810.923 L 214.766,815.708 L 211.967,818.898 L 208.553,818.898 L 206.426,816.828 L 206.426,814 L 209.896,810.922 L 213.086,807.732 L 214.038,806.025 L 214.766,803.198 L 216.501,798.412 L 215.55,793.515 L 214.43,790.688 L 209.617,789.709 C 199.43,787.862 189.411,787.862 180.456,789.345 L 177.602,789.961 L 169.262,792.788 L 168.534,794.131 L 166.463,794.859 L 164.001,794.495 L 159.859,794.495 L 159.188,792.032 L 159.468,789.345 L 161.931,786.518 C 174.412,779.27 187.678,775.352 200.551,774.736 L 214.432,774.736 C 220.701,775.352 226.354,771.909 228.817,766.396 L 242.25,740.621 C 246.448,729.091 254.452,720.751 264.639,715.966 L 262.176,705.163 C 258.986,695.732 263.128,685.657 271.468,680.76 L 287.811,670.321 L 296.878,667.271 C 299.677,666.152 302.755,667.635 303.875,670.321 C 304.827,673.148 303.483,676.338 300.685,677.318 C 300.685,677.318 300.293,677.318 300.069,677.318 L 283.39,688.121 C 279.192,691.563 278.464,697.804 281.543,701.974 C 283.614,704.436 286.468,705.78 289.267,705.78 L 307.289,701.61 L 352.962,688.121 C 367.795,681.124 374.4,663.465 367.179,648.493 C 362.981,639.398 355.033,633.521 345.966,631.422 L 304.211,635.956 C 288.539,639.035 275.273,648.13 266.934,660.248 L 261.393,665.174 L 254.789,668.98 L 250.647,670.072 L 247.569,672.171 C 235.031,676.593 226.356,686.024 222.158,697.806 L 217.233,705.782 C 201.897,726.771 180.068,740.261 156.784,745.55 L 131.764,753.498 C 129.301,755.961 125.103,755.961 122.641,753.134 C 120.178,750.699 120.57,746.893 123.033,744.43 C 123.985,743.451 125.496,742.723 126.839,742.723 L 152.978,735.363 C 175.87,727.751 193.557,711.799 203.968,691.565 C 205.088,689.466 206.431,687.759 207.83,686.388 C 212.699,680.511 211.748,671.807 206.095,667.274 C 203.017,664.812 199.211,663.692 195.684,664.056 L 179.34,666.155 C 165.124,668.617 153.201,677.685 146.317,689.467 L 136.914,698.926 C 128.91,708.973 116.765,714.262 104.619,713.87 L 86.82,715.969 C 79.208,717.312 72.211,719.411 66.334,721.846 L 64.599,721.482 L 60.457,718.683 L 58.61,717.312 L 58.61,714.485 L 60.457,712.778 L 62.528,711.071 L 65.27,710.315 L 85.14,702.339 C 93.088,700.268 100.7,699.288 108.032,699.288 L 113.965,696.826 L 119.842,693.999 L 137.249,668.252 C 142.51,661.368 148.052,654.735 153.593,649.474 L 150.123,642.59 L 146.708,640.771 C 137.249,637.693 127.174,639.036 119.226,644.689 L 95.942,656.471 C 84.02,659.297 71.874,661.62 61.408,663.075 L 30.12,663.467 L 27.322,661.984 L 25.251,659.297 L 25.251,656.471 L 25.251,655.351 L 30.121,652.664 L 32.248,651.544 L 45.849,651.936 L 61.073,649.837 L 77.753,645.667 C 89.283,643.96 99.358,638.419 106.97,630.695 L 120.571,621.376 L 128.183,617.206 C 146.318,610.574 165.74,614.743 179.733,626.889 L 186.673,631.423 C 201.561,637.328 218.017,634.502 230.107,625.546 L 243.988,612.281 L 259.324,594.51 L 277.739,579.286 L 284.343,569.463 L 284.343,396.343 L 443.638,396.343 L 464.459,431.073 L 520.543,358.45 L 520.543,569.46 L 527.147,579.283 L 545.561,594.507 L 560.898,612.278 L 574.779,625.543 C 587.652,635.226 603.939,636.961 618.213,631.812 L 625.209,626.887 C 639.817,614.013 659.296,610.935 676.703,617.204 L 684.314,621.374 L 697.86,630.693 C 706.311,639.397 716.722,644.322 727.189,645.665 L 743.869,649.835 L 759.037,651.934 L 772.638,651.934 L 774.765,652.662 L 779.691,655.349 L 779.691,656.469 L 779.691,659.295 L 777.564,661.982 L 774.765,663.465 L 743.477,663.465 C 731.331,661.366 719.074,658.903 708.998,656.833 L 685.658,644.687 C 677.318,638.67 666.908,638.055 658.232,641.133 L 654.761,642.589 L 651.347,649.473 C 657.616,655.714 663.101,661.983 667.635,668.251 L 685.098,693.998 L 690.975,696.825 L 696.852,699.287 C 705.192,699.539 712.804,700.63 719.8,702.338 L 739.67,710.314 L 742.357,711.434 L 744.427,712.777 L 746.275,714.484 L 746.275,717.311 L 744.427,718.682 L 740.285,721.481 L 738.55,722.236 C 731.554,719.018 724.726,716.947 718.065,715.967 L 700.266,713.868 C 687.393,714.26 675.639,708.607 668.027,699.287 L 658.568,689.464 C 651.347,676.59 639.089,668.614 625.545,666.152 L 609.257,664.053 C 601.869,663.074 594.873,668.615 594.313,675.975 C 593.53,679.781 594.874,683.587 597.001,686.386 C 598.792,688.121 600.19,689.828 600.919,691.563 C 611.944,713.14 630.695,728.477 651.965,735.361 L 678.104,742.721 C 681.518,742.721 683.981,745.771 683.981,749.353 C 683.588,752.768 680.51,755.594 676.984,755.23 C 675.641,755.23 674.297,754.502 673.178,753.495 L 648.494,745.547 C 622.747,739.53 601.87,724.922 587.653,705.779 L 582.727,697.803 C 578.585,685.293 569.238,676.338 557.373,672.168 L 554.294,670.069 L 550.097,668.977 L 543.492,665.171 L 537.951,660.637 C 528.884,647.371 515.283,639.032 500.675,635.953 L 458.976,631.811 C 443.024,634.862 432.222,650.561 435.245,666.877 C 437.372,676.588 443.641,684.312 451.98,688.118 L 497.596,701.971 L 515.619,705.777 C 521.16,705.525 525.693,700.992 525.47,695.339 C 525.47,692.652 523.623,689.826 521.552,688.119 L 504.872,677.316 C 501.794,676.588 500.059,673.874 500.675,671.047 C 501.403,668.248 504.257,666.15 507.279,666.877 C 507.279,667.269 507.671,667.269 508.007,667.269 L 516.962,670.319 L 533.418,680.758 C 542.149,685.655 545.955,696.094 542.766,705.161 L 540.303,715.964 C 551.105,721.113 558.829,730.209 562.635,740.619 L 576.124,766.394 C 578.587,772.271 584.464,775.35 590.509,774.734 L 604.334,774.734 C 618.551,775.35 631.815,779.883 643.01,786.516 L 645.305,789.343 L 645.697,792.03 L 645.082,794.857 L 640.884,794.857 L 638.478,794.857 L 636.351,794.129 L 635.623,792.786 L 627.283,789.959 L 624.484,789.343 C 614.409,787.86 604.335,788.224 595.267,789.707 L 590.509,791.05 L 589.39,793.513 L 588.382,798.41 L 590.117,803.196 L 590.732,806.023 L 591.851,807.73 L 594.874,810.92 L 598.456,813.998 L 598.456,816.825 L 595.993,818.895 L 592.803,818.895 L 590.116,815.705 L 583.846,810.92 L 578.977,802.216 L 574.387,792.029 C 572.708,791.778 571.7,791.05 570.581,789.958 C 558.827,777.197 548.416,763.204 540.692,750.33 L 536.102,744.061 L 528.154,741.962 L 528.154,745.152 L 528.154,760.488 L 528.154,768.492 L 524.74,803.922 C 525.691,812.261 528.154,819.874 531.736,826.506 L 542.371,834.846 L 543.49,836.553 L 546.289,838.652 L 545.226,839.744 L 544.219,841.115 L 543.49,842.57 L 540.692,843.186 L 539.293,843.186 L 534.76,840.36 C 520.935,834.119 511.811,820.63 510.747,805.657 L 510.468,760.488 C 508.005,748.958 499.665,740.254 489.254,736.448 L 449.234,725.282 C 438.824,723.574 428.637,729.816 425.615,739.527 L 421.417,761.86 C 418.227,769.836 420.074,778.903 425.615,784.78 L 429.757,788.586 C 436.753,792.028 443.022,796.198 448.172,800.732 C 457.967,809.072 464.851,819.511 468.377,830.314 L 474.646,850.183 L 482.258,864.791 L 486.792,869.688 L 487.184,871.423 L 484.33,872.402 L 482.259,872.402 L 478.453,872.402 C 474.311,866.889 470.113,861.348 465.915,856.814 L 460.318,843.941 C 457.967,832.019 451.362,821.972 441.903,815.339 L 431.1,810.917 C 427.294,806.999 421.417,806.999 417.612,810.917 C 416.157,812.26 415.149,813.995 414.758,815.702 L 409.888,856.086 L 409.273,901.591 L 406.083,905.761 L 402.273,909.935 z "
   style="fill-rule:evenodd"
   id="path59" />
		<path
   d="M 402.273,909.935 L 398.859,905.765 L 395.613,901.595 L 395.053,856.09 L 390.127,815.706 C 389.008,810.557 383.858,807.003 378.597,808.122 C 376.527,808.458 375.127,809.466 373.784,810.921 L 362.981,815.343 C 352.962,822.703 346.582,832.778 344.455,843.945 L 338.578,856.818 C 334.045,861.967 329.902,867.621 326.432,872.406 L 322.625,872.406 L 320.163,872.406 L 317.756,871.427 L 318.092,869.692 L 322.625,864.795 L 330.237,850.187 L 336.506,830.318 C 340.313,818.172 347.645,808.125 356.768,800.736 C 362.645,795.95 368.914,791.781 375.127,788.59 L 379.324,784.784 C 385.201,778.543 386.545,769.448 383.522,761.864 L 379.324,739.531 C 376.134,729.82 366.059,723.943 355.648,725.286 L 315.628,736.452 C 304.602,740.258 296.878,749.689 294.415,760.492 L 294.079,805.661 C 293.071,821.361 283.389,834.122 269.787,840.364 L 265.589,843.19 L 263.854,843.19 L 261.391,842.574 L 260.663,840.756 L 259.711,839.748 L 258.592,838.656 L 261.39,836.557 L 262.51,834.85 L 273.2,826.51 C 277.118,819.262 279.469,811.174 280.197,803.926 L 276.727,768.104 L 276.727,760.128 L 276.727,745.155 L 276.727,741.965 L 268.779,744.064 L 264.245,750.333 C 255.178,765.278 244.711,778.907 234.301,789.961 C 233.181,791.052 231.838,791.78 230.495,792.032 L 225.961,802.219 L 221.035,810.923 L 214.766,815.708 L 211.967,818.898 L 208.553,818.898 L 206.426,816.828 L 206.426,814 L 209.896,810.922 L 213.086,807.732 L 214.038,806.025 L 214.766,803.198 L 216.501,798.412 L 215.55,793.515 L 214.43,790.688 L 209.617,789.709 C 199.43,787.862 189.411,787.862 180.456,789.345 L 177.602,789.961 L 169.262,792.788 L 168.534,794.131 L 166.463,794.859 L 164.001,794.495 L 159.859,794.495 L 159.188,792.032 L 159.468,789.345 L 161.931,786.518 C 174.412,779.27 187.678,775.352 200.551,774.736 L 214.432,774.736 C 220.701,775.352 226.354,771.909 228.817,766.396 L 242.25,740.621 C 246.448,729.091 254.452,720.751 264.639,715.966 L 262.176,705.163 C 258.986,695.732 263.128,685.657 271.468,680.76 L 287.811,670.321 L 296.878,667.271 C 299.677,666.152 302.755,667.635 303.875,670.321 C 304.827,673.148 303.483,676.338 300.685,677.318 C 300.685,677.318 300.293,677.318 300.069,677.318 L 283.39,688.121 C 279.192,691.563 278.464,697.804 281.543,701.974 C 283.614,704.436 286.468,705.78 289.267,705.78 L 307.289,701.61 L 352.962,688.121 C 367.795,681.124 374.4,663.465 367.179,648.493 C 362.981,639.398 355.033,633.521 345.966,631.422 L 304.211,635.956 C 288.539,639.035 275.273,648.13 266.934,660.248 L 261.393,665.174 L 254.789,668.98 L 250.647,670.072 L 247.569,672.171 C 235.031,676.593 226.356,686.024 222.158,697.806 L 217.233,705.782 C 201.897,726.771 180.068,740.261 156.784,745.55 L 131.764,753.498 C 129.301,755.961 125.103,755.961 122.641,753.134 C 120.178,750.699 120.57,746.893 123.033,744.43 C 123.985,743.451 125.496,742.723 126.839,742.723 L 152.978,735.363 C 175.87,727.751 193.557,711.799 203.968,691.565 C 205.088,689.466 206.431,687.759 207.83,686.388 C 212.699,680.511 211.748,671.807 206.095,667.274 C 203.017,664.812 199.211,663.692 195.684,664.056 L 179.34,666.155 C 165.124,668.617 153.201,677.685 146.317,689.467 L 136.914,698.926 C 128.91,708.973 116.765,714.262 104.619,713.87 L 86.82,715.969 C 79.208,717.312 72.211,719.411 66.334,721.846 L 64.599,721.482 L 60.457,718.683 L 58.61,717.312 L 58.61,714.485 L 60.457,712.778 L 62.528,711.071 L 65.27,710.315 L 85.14,702.339 C 93.088,700.268 100.7,699.288 108.032,699.288 L 113.965,696.826 L 119.842,693.999 L 137.249,668.252 C 142.51,661.368 148.052,654.735 153.593,649.474 L 150.123,642.59 L 146.708,640.771 C 137.249,637.693 127.174,639.036 119.226,644.689 L 95.942,656.471 C 84.02,659.297 71.874,661.62 61.408,663.075 L 30.12,663.467 L 27.322,661.984 L 25.251,659.297 L 25.251,656.471 L 25.251,655.351 L 30.121,652.664 L 32.248,651.544 L 45.849,651.936 L 61.073,649.837 L 77.753,645.667 C 89.283,643.96 99.358,638.419 106.97,630.695 L 120.571,621.376 L 128.183,617.206 C 146.318,610.574 165.74,614.743 179.733,626.889 L 186.673,631.423 C 201.561,637.328 218.017,634.502 230.107,625.546 L 243.988,612.281 L 259.324,594.51 L 277.739,579.286 L 284.343,569.463 L 284.343,396.343 L 443.638,396.343 L 464.459,431.073 L 520.543,358.45 L 520.543,569.46 L 527.147,579.283 L 545.561,594.507 L 560.898,612.278 L 574.779,625.543 C 587.652,635.226 603.939,636.961 618.213,631.812 L 625.209,626.887 C 639.817,614.013 659.296,610.935 676.703,617.204 L 684.314,621.374 L 697.86,630.693 C 706.311,639.397 716.722,644.322 727.189,645.665 L 743.869,649.835 L 759.037,651.934 L 772.638,651.934 L 774.765,652.662 L 779.691,655.349 L 779.691,656.469 L 779.691,659.295 L 777.564,661.982 L 774.765,663.465 L 743.477,663.465 C 731.331,661.366 719.074,658.903 708.998,656.833 L 685.658,644.687 C 677.318,638.67 666.908,638.055 658.232,641.133 L 654.761,642.589 L 651.347,649.473 C 657.616,655.714 663.101,661.983 667.635,668.251 L 685.098,693.998 L 690.975,696.825 L 696.852,699.287 C 705.192,699.539 712.804,700.63 719.8,702.338 L 739.67,710.314 L 742.357,711.434 L 744.427,712.777 L 746.275,714.484 L 746.275,717.311 L 744.427,718.682 L 740.285,721.481 L 738.55,722.236 C 731.554,719.018 724.726,716.947 718.065,715.967 L 700.266,713.868 C 687.393,714.26 675.639,708.607 668.027,699.287 L 658.568,689.464 C 651.347,676.59 639.089,668.614 625.545,666.152 L 609.257,664.053 C 601.869,663.074 594.873,668.615 594.313,675.975 C 593.53,679.781 594.874,683.587 597.001,686.386 C 598.792,688.121 600.19,689.828 600.919,691.563 C 611.944,713.14 630.695,728.477 651.965,735.361 L 678.104,742.721 C 681.518,742.721 683.981,745.771 683.981,749.353 C 683.588,752.768 680.51,755.594 676.984,755.23 C 675.641,755.23 674.297,754.502 673.178,753.495 L 648.494,745.547 C 622.747,739.53 601.87,724.922 587.653,705.779 L 582.727,697.803 C 578.585,685.293 569.238,676.338 557.373,672.168 L 554.294,670.069 L 550.097,668.977 L 543.492,665.171 L 537.951,660.637 C 528.884,647.371 515.283,639.032 500.675,635.953 L 458.976,631.811 C 443.024,634.862 432.222,650.561 435.245,666.877 C 437.372,676.588 443.641,684.312 451.98,688.118 L 497.596,701.971 L 515.619,705.777 C 521.16,705.525 525.693,700.992 525.47,695.339 C 525.47,692.652 523.623,689.826 521.552,688.119 L 504.872,677.316 C 501.794,676.588 500.059,673.874 500.675,671.047 C 501.403,668.248 504.257,666.15 507.279,666.877 C 507.279,667.269 507.671,667.269 508.007,667.269 L 516.962,670.319 L 533.418,680.758 C 542.149,685.655 545.955,696.094 542.766,705.161 L 540.303,715.964 C 551.105,721.113 558.829,730.209 562.635,740.619 L 576.124,766.394 C 578.587,772.271 584.464,775.35 590.509,774.734 L 604.334,774.734 C 618.551,775.35 631.815,779.883 643.01,786.516 L 645.305,789.343 L 645.697,792.03 L 645.082,794.857 L 640.884,794.857 L 638.478,794.857 L 636.351,794.129 L 635.623,792.786 L 627.283,789.959 L 624.484,789.343 C 614.409,787.86 604.335,788.224 595.267,789.707 L 590.509,791.05 L 589.39,793.513 L 588.382,798.41 L 590.117,803.196 L 590.732,806.023 L 591.851,807.73 L 594.874,810.92 L 598.456,813.998 L 598.456,816.825 L 595.993,818.895 L 592.803,818.895 L 590.116,815.705 L 583.846,810.92 L 578.977,802.216 L 574.387,792.029 C 572.708,791.778 571.7,791.05 570.581,789.958 C 558.827,777.197 548.416,763.204 540.692,750.33 L 536.102,744.061 L 528.154,741.962 L 528.154,745.152 L 528.154,760.488 L 528.154,768.492 L 524.74,803.922 C 525.691,812.261 528.154,819.874 531.736,826.506 L 542.371,834.846 L 543.49,836.553 L 546.289,838.652 L 545.226,839.744 L 544.219,841.115 L 543.49,842.57 L 540.692,843.186 L 539.293,843.186 L 534.76,840.36 C 520.935,834.119 511.811,820.63 510.747,805.657 L 510.468,760.488 C 508.005,748.958 499.665,740.254 489.254,736.448 L 449.234,725.282 C 438.824,723.574 428.637,729.816 425.615,739.527 L 421.417,761.86 C 418.227,769.836 420.074,778.903 425.615,784.78 L 429.757,788.586 C 436.753,792.028 443.022,796.198 448.172,800.732 C 457.967,809.072 464.851,819.511 468.377,830.314 L 474.646,850.183 L 482.258,864.791 L 486.792,869.688 L 487.184,871.423 L 484.33,872.402 L 482.259,872.402 L 478.453,872.402 C 474.311,866.889 470.113,861.348 465.915,856.814 L 460.318,843.941 C 457.967,832.019 451.362,821.972 441.903,815.339 L 431.1,810.917 C 427.294,806.999 421.417,806.999 417.612,810.917 C 416.157,812.26 415.149,813.995 414.758,815.702 L 409.888,856.086 L 409.273,901.591 L 406.083,905.761 L 402.273,909.935 z "
   style="fill:none;stroke:#000000;stroke-width:0.36809999;stroke-miterlimit:3"
   id="path61" />
		
			<line
   fill="none"
   stroke="#DEDEDE"
   stroke-width="3.4354"
   stroke-miterlimit="3"
   x1="313.22299"
   y1="525.29901"
   x2="313.22299"
   y2="545.92401"
   id="line63"
   style="fill:none;stroke:#dedede;stroke-width:3.43540001;stroke-miterlimit:3" />
		<polyline
   fill="none"
   stroke="#DEDEDE"
   stroke-width="3.4354"
   stroke-miterlimit="3"
   points="296.879,578.556 290.275,591.065     279.192,605.674 269.006,613.65 261.786,617.456 255.517,622.717 252.326,627.615   "
   id="polyline65"
   style="fill:none;stroke:#dedede;stroke-width:3.43540001;stroke-miterlimit:3" />
		
			<line
   fill="none"
   stroke="#DEDEDE"
   stroke-width="3.4354"
   stroke-miterlimit="3"
   x1="285.461"
   y1="606.03802"
   x2="285.461"
   y2="608.10901"
   id="line67"
   style="fill:none;stroke:#dedede;stroke-width:3.43540001;stroke-miterlimit:3" />
		
			<line
   fill="none"
   stroke="#DEDEDE"
   stroke-width="3.4354"
   stroke-miterlimit="3"
   x1="298.61499"
   y1="552.78101"
   x2="298.61499"
   y2="560.505"
   id="line69"
   style="fill:none;stroke:#dedede;stroke-width:3.43540001;stroke-miterlimit:3" />
		
			<line
   fill="none"
   stroke="#DEDEDE"
   stroke-width="3.4354"
   stroke-miterlimit="3"
   x1="311.48801"
   y1="585.18799"
   x2="303.87601"
   y2="591.065"
   id="line71"
   style="fill:none;stroke:#dedede;stroke-width:3.43540001;stroke-miterlimit:3" />
		
			<line
   fill="none"
   stroke="#DEDEDE"
   stroke-width="3.4354"
   stroke-miterlimit="3"
   x1="299.67801"
   y1="594.87201"
   x2="297.60699"
   y2="596.57898"
   id="line73"
   style="fill:none;stroke:#dedede;stroke-width:3.43540001;stroke-miterlimit:3" />
		
			<line
   fill="none"
   stroke="#DEDEDE"
   stroke-width="3.4354"
   stroke-miterlimit="3"
   x1="321.89801"
   y1="430.70801"
   x2="321.89801"
   y2="447.13501"
   id="line75"
   style="fill:none;stroke:#dedede;stroke-width:3.43540001;stroke-miterlimit:3" />
		
			<line
   fill="none"
   stroke="#DEDEDE"
   stroke-width="3.4354"
   stroke-miterlimit="3"
   x1="316.74899"
   y1="409.49399"
   x2="316.74899"
   y2="420.66101"
   id="line77"
   style="fill:none;stroke:#dedede;stroke-width:3.43540001;stroke-miterlimit:3" />
		
			<line
   fill="none"
   stroke="#DEDEDE"
   stroke-width="3.4354"
   stroke-miterlimit="3"
   x1="337.23499"
   y1="408.12299"
   x2="337.23499"
   y2="424.07501"
   id="line79"
   style="fill:none;stroke:#dedede;stroke-width:3.43540001;stroke-miterlimit:3" />
		
			<line
   fill="none"
   stroke="#DEDEDE"
   stroke-width="3.4354"
   stroke-miterlimit="3"
   x1="314.67899"
   y1="468.26401"
   x2="314.67899"
   y2="475.23199"
   id="line81"
   style="fill:none;stroke:#dedede;stroke-width:3.43540001;stroke-miterlimit:3" />
		
			<line
   fill="none"
   stroke="#DEDEDE"
   stroke-width="3.4354"
   stroke-miterlimit="3"
   x1="322.29099"
   y1="472.43399"
   x2="322.29099"
   y2="477.69501"
   id="line83"
   style="fill:none;stroke:#dedede;stroke-width:3.43540001;stroke-miterlimit:3" />
		
			<line
   fill="none"
   stroke="#DEDEDE"
   stroke-width="3.4354"
   stroke-miterlimit="3"
   x1="317.36499"
   y1="482.59299"
   x2="317.36499"
   y2="484.944"
   id="line85"
   style="fill:none;stroke:#dedede;stroke-width:3.43540001;stroke-miterlimit:3" />
		
			<line
   fill="none"
   stroke="#DEDEDE"
   stroke-width="3.4354"
   stroke-miterlimit="3"
   x1="298.95099"
   y1="477.69501"
   x2="298.95099"
   y2="540.99902"
   id="line87"
   style="fill:none;stroke:#dedede;stroke-width:3.43540001;stroke-miterlimit:3" />
		
			<line
   fill="none"
   stroke="#DEDEDE"
   stroke-width="3.4354"
   stroke-miterlimit="3"
   x1="297.99899"
   y1="408.87799"
   x2="297.99899"
   y2="468.01199"
   id="line89"
   style="fill:none;stroke:#dedede;stroke-width:3.43540001;stroke-miterlimit:3" />
		
			<line
   fill="none"
   stroke="#DEDEDE"
   stroke-width="3.4354"
   stroke-miterlimit="3"
   x1="359.23099"
   y1="493.39499"
   x2="359.23099"
   y2="499.664"
   id="line91"
   style="fill:none;stroke:#dedede;stroke-width:3.43540001;stroke-miterlimit:3" />
		
			<line
   fill="none"
   stroke="#DEDEDE"
   stroke-width="3.4354"
   stroke-miterlimit="3"
   x1="357.72101"
   y1="463.45099"
   x2="357.72101"
   y2="466.52899"
   id="line93"
   style="fill:none;stroke:#dedede;stroke-width:3.43540001;stroke-miterlimit:3" />
		<path
   d="M 443.637,396.341 C 492.332,365.081 521.549,315.238 528.49,261.758 L 531.961,241.888 C 535.543,230.721 541.756,221.402 549.76,214.042 L 542.764,214.406 C 524.741,221.402 511.475,235.255 504.87,252.326 L 470.504,302.365 C 468.657,305.919 464.459,307.29 461.045,305.919 C 457.631,304.1 456.119,299.902 457.967,296.488 L 457.967,296.488 L 465.187,287.784 C 491.326,249.499 503.136,205.702 501.792,163.611 L 498.602,112.817 C 498.938,100.056 501.792,87.406 505.934,76.743 L 496.475,79.066 C 479.068,87.798 468.658,105.205 468.658,123.619 L 464.236,168.144 C 454.049,195.262 440.169,219.918 424.832,240.179 L 426.959,225.934 C 453.042,171.95 452.314,111.836 429.758,60.679 L 423.489,49.261 C 413.805,35.996 401.884,25.585 389.402,18.589 L 391.081,29.027 C 401.548,46.07 400.205,66.92 390.13,82.62 C 368.526,113.181 356.771,147.295 353.916,181.046 L 352.965,198.089 C 355.036,214.405 357.723,230.105 361.305,243.594 C 342.779,220.646 333.095,193.164 331.697,166.437 L 325.484,112.816 C 325.091,96.5 317.759,81.892 306.677,71.845 L 304.606,97.592 L 297.218,137.22 L 291.341,156.978 C 279.475,189.749 281.882,224.228 296.154,253.668 L 336.174,312.802 C 302.759,305.918 279.475,276.98 278.859,243.985 L 278.859,243.593 C 272.198,229.012 258.989,219.693 243.988,217.23 L 251.992,241.522 C 255.91,261.028 258.205,280.17 258.989,297.213 C 264.642,330.236 286.807,355.983 316.36,367.765 L 337.965,378.932 C 344.234,382.738 348.039,389.343 348.767,396.339 L 443.637,396.339 L 443.637,396.341 z "
   style="fill:#ff0000;fill-rule:evenodd"
   id="path95" />
		<path
   d="M 443.637,396.341 C 492.332,365.081 521.549,315.238 528.49,261.758 L 531.961,241.888 C 535.543,230.721 541.756,221.402 549.76,214.042 L 542.764,214.406 C 524.741,221.402 511.475,235.255 504.87,252.326 L 470.504,302.365 C 468.657,305.919 464.459,307.29 461.045,305.919 C 457.631,304.1 456.119,299.902 457.967,296.488 L 457.967,296.488 L 465.187,287.784 C 491.326,249.499 503.136,205.702 501.792,163.611 L 498.602,112.817 C 498.938,100.056 501.792,87.406 505.934,76.743 L 496.475,79.066 C 479.068,87.798 468.658,105.205 468.658,123.619 L 464.236,168.144 C 454.049,195.262 440.169,219.918 424.832,240.179 L 426.959,225.934 C 453.042,171.95 452.314,111.836 429.758,60.679 L 423.489,49.261 C 413.805,35.996 401.884,25.585 389.402,18.589 L 391.081,29.027 C 401.548,46.07 400.205,66.92 390.13,82.62 C 368.526,113.181 356.771,147.295 353.916,181.046 L 352.965,198.089 C 355.036,214.405 357.723,230.105 361.305,243.594 C 342.779,220.646 333.095,193.164 331.697,166.437 L 325.484,112.816 C 325.091,96.5 317.759,81.892 306.677,71.845 L 304.606,97.592 L 297.218,137.22 L 291.341,156.978 C 279.475,189.749 281.882,224.228 296.154,253.668 L 336.174,312.802 C 302.759,305.918 279.475,276.98 278.859,243.985 L 278.859,243.593 C 272.198,229.012 258.989,219.693 243.988,217.23 L 251.992,241.522 C 255.91,261.028 258.205,280.17 258.989,297.213 C 264.642,330.236 286.807,355.983 316.36,367.765 L 337.965,378.932 C 344.234,382.738 348.039,389.343 348.767,396.339 L 443.637,396.339 L 443.637,396.341 z "
   style="fill:none;stroke:#ff0000;stroke-width:3.43540001;stroke-miterlimit:3"
   id="path97" />
		<path
   d="M 284.342,542.37 L 272.924,531.568 C 262.177,521.493 244.715,521.857 234.639,533.023 C 233.968,533.639 233.184,534.395 232.96,535.122 L 204.75,554.88 C 171.727,576.457 127.565,566.774 106.352,533.639 C 104.617,530.952 103.162,528.126 102.154,525.663 L 66.724,479.403 C 58.608,468.992 43.384,466.894 32.973,474.869 C 30.119,476.968 28.048,479.795 26.704,482.229 L 26.704,469.355 C 32.246,452.312 50.268,442.601 67.676,448.114 C 72.993,449.849 77.359,452.676 80.941,456.482 L 117.155,484.328 L 135.513,501.371 C 146.931,506.52 158.853,508.256 170.271,507.276 L 161.932,502.742 C 123.983,486.79 101.763,449.233 103.89,409.493 L 104.618,376.862 L 110.159,338.186 L 113.965,307.29 C 115.028,290.582 105.625,276.002 91.017,269.37 L 91.017,267.663 L 91.745,265.2 C 117.38,262.737 140.049,281.88 142.511,308.018 C 142.511,308.269 142.511,308.633 142.511,308.633 L 148.78,407.395 C 147.66,435.633 167.81,459.672 195.292,464.066 C 168.929,440.53 155.664,407.395 156,374.4 L 169.881,272.196 L 178.948,236.99 L 180.459,216.476 C 175.869,202.623 164.395,192.548 150.85,189.022 L 151.466,185.943 C 168.146,182.389 184.881,186.922 197.139,196.969 C 207.549,213.061 212.363,231.084 211.971,248.519 L 208.557,367.402 L 211.356,393.904 L 218.632,410.947 C 225.965,428.242 246.058,436.582 263.521,429.362 C 275.051,424.828 282.664,414.39 284.342,402.971 L 284.342,542.37 L 284.342,542.37 z "
   style="fill:#ff0000;fill-rule:evenodd"
   id="path99" />
		<path
   d="M 284.342,542.37 L 272.924,531.568 C 262.177,521.493 244.715,521.857 234.639,533.023 C 233.968,533.639 233.184,534.395 232.96,535.122 L 204.75,554.88 C 171.727,576.457 127.565,566.774 106.352,533.639 C 104.617,530.952 103.162,528.126 102.154,525.663 L 66.724,479.403 C 58.608,468.992 43.384,466.894 32.973,474.869 C 30.119,476.968 28.048,479.795 26.704,482.229 L 26.704,469.355 C 32.246,452.312 50.268,442.601 67.676,448.114 C 72.993,449.849 77.359,452.676 80.941,456.482 L 117.155,484.328 L 135.513,501.371 C 146.931,506.52 158.853,508.256 170.271,507.276 L 161.932,502.742 C 123.983,486.79 101.763,449.233 103.89,409.493 L 104.618,376.862 L 110.159,338.186 L 113.965,307.29 C 115.028,290.582 105.625,276.002 91.017,269.37 L 91.017,267.663 L 91.745,265.2 C 117.38,262.737 140.049,281.88 142.511,308.018 C 142.511,308.269 142.511,308.633 142.511,308.633 L 148.78,407.395 C 147.66,435.633 167.81,459.672 195.292,464.066 C 168.929,440.53 155.664,407.395 156,374.4 L 169.881,272.196 L 178.948,236.99 L 180.459,216.476 C 175.869,202.623 164.395,192.548 150.85,189.022 L 151.466,185.943 C 168.146,182.389 184.881,186.922 197.139,196.969 C 207.549,213.061 212.363,231.084 211.971,248.519 L 208.557,367.402 L 211.356,393.904 L 218.632,410.947 C 225.965,428.242 246.058,436.582 263.521,429.362 C 275.051,424.828 282.664,414.39 284.342,402.971 L 284.342,542.37 L 284.342,542.37 z "
   style="fill:none;stroke:#ff0000;stroke-width:3.43540001;stroke-miterlimit:3"
   id="path101" />
		<path
   d="M 520.542,542.37 L 531.96,531.568 C 542.763,521.493 560.169,521.857 570.244,533.023 C 570.972,533.639 571.699,534.395 572.315,535.122 L 600.188,555.244 C 633.156,576.457 677.317,566.774 698.586,533.639 C 700.265,530.952 701.776,528.126 703.119,525.663 L 738.214,479.795 C 746.274,468.992 761.498,466.894 771.965,474.869 C 774.763,476.968 776.834,479.795 778.569,482.593 L 778.178,469.356 C 773.028,452.313 754.614,442.854 737.598,448.115 C 731.946,449.85 727.411,452.677 723.941,456.483 L 687.784,484.693 L 669.37,501.372 C 658.231,506.521 646.029,508.257 634.891,507.277 L 643.006,502.743 C 680.899,486.791 703.119,449.234 701.385,409.858 L 700.265,377.227 L 695.116,338.187 L 690.974,307.291 C 689.855,290.976 699.65,276.003 714.258,269.371 L 713.922,267.664 L 713.53,265.201 C 687.783,262.738 664.835,281.881 662.763,308.019 C 662.763,308.27 662.763,308.634 662.371,308.998 L 656.102,407.759 C 657.221,435.633 636.959,459.897 609.478,464.067 C 636.008,440.531 649.217,407.396 649.217,374.4 L 634.889,272.196 L 625.933,236.99 L 624.478,216.476 C 629.347,202.623 640.541,192.548 654.031,189.022 L 653.416,185.943 C 636.736,182.389 620.28,186.922 607.743,196.969 C 597.332,213.061 592.799,231.084 592.799,248.519 L 596.381,367.402 L 593.527,394.269 L 586.306,410.948 C 578.974,428.243 559.048,436.583 541.417,429.363 C 529.887,424.829 522.274,414.391 520.54,402.972 L 520.54,542.37 L 520.542,542.37 z "
   style="fill:#ff0000;fill-rule:evenodd"
   id="path103" />
		<path
   d="M 520.542,542.37 L 531.96,531.568 C 542.763,521.493 560.169,521.857 570.244,533.023 C 570.972,533.639 571.699,534.395 572.315,535.122 L 600.188,555.244 C 633.156,576.457 677.317,566.774 698.586,533.639 C 700.265,530.952 701.776,528.126 703.119,525.663 L 738.214,479.795 C 746.274,468.992 761.498,466.894 771.965,474.869 C 774.763,476.968 776.834,479.795 778.569,482.593 L 778.178,469.356 C 773.028,452.313 754.614,442.854 737.598,448.115 C 731.946,449.85 727.411,452.677 723.941,456.483 L 687.784,484.693 L 669.37,501.372 C 658.231,506.521 646.029,508.257 634.891,507.277 L 643.006,502.743 C 680.899,486.791 703.119,449.234 701.385,409.858 L 700.265,377.227 L 695.116,338.187 L 690.974,307.291 C 689.855,290.976 699.65,276.003 714.258,269.371 L 713.922,267.664 L 713.53,265.201 C 687.783,262.738 664.835,281.881 662.763,308.019 C 662.763,308.27 662.763,308.634 662.371,308.998 L 656.102,407.759 C 657.221,435.633 636.959,459.897 609.478,464.067 C 636.008,440.531 649.217,407.396 649.217,374.4 L 634.889,272.196 L 625.933,236.99 L 624.478,216.476 C 629.347,202.623 640.541,192.548 654.031,189.022 L 653.416,185.943 C 636.736,182.389 620.28,186.922 607.743,196.969 C 597.332,213.061 592.799,231.084 592.799,248.519 L 596.381,367.402 L 593.527,394.269 L 586.306,410.948 C 578.974,428.243 559.048,436.583 541.417,429.363 C 529.887,424.829 522.274,414.391 520.54,402.972 L 520.54,542.37 L 520.542,542.37 z "
   style="fill:none;stroke:#ff0000;stroke-width:3.43540001;stroke-miterlimit:3"
   id="path105" />
		<path
   d="M 284.342,446.043 C 251.375,461.379 211.747,446.771 196.411,413.664 C 192.941,406.052 190.87,398.076 190.534,390.716 L 186.672,375.491 L 184.265,396.341 C 186.952,429.728 213.09,455.727 245.442,460.288 L 264.248,471.062 L 264.248,474.868 L 190.142,475.232 C 167.585,476.967 147.66,460.651 144.245,438.431 L 137.976,430.343 L 139.711,442.601 C 146.707,474.869 177.604,495.746 209.899,490.205 L 241.299,484.944 C 249.639,481.865 258.594,484.692 264.247,490.961 C 239.844,492.304 217.623,501.372 200.216,514.889 L 188.07,521.493 C 170.271,528.49 151.465,527.398 135.512,520.514 L 141.445,528.49 C 162.658,538.565 186.334,536.466 205.085,524.684 L 238.835,506.158 C 249.302,496.475 265.981,497.202 275.665,508.005 C 276.728,508.984 277.4,510.328 278.072,511.447 L 284.341,521.131 L 284.341,446.043 L 284.342,446.043 z "
   style="fill:#f7ffba;fill-rule:evenodd"
   id="path107" />
		<path
   d="M 284.342,446.043 C 251.375,461.379 211.747,446.771 196.411,413.664 C 192.941,406.052 190.87,398.076 190.534,390.716 L 186.672,375.491 L 184.265,396.341 C 186.952,429.728 213.09,455.727 245.442,460.288 L 264.248,471.062 L 264.248,474.868 L 190.142,475.232 C 167.585,476.967 147.66,460.651 144.245,438.431 L 137.976,430.343 L 139.711,442.601 C 146.707,474.869 177.604,495.746 209.899,490.205 L 241.299,484.944 C 249.639,481.865 258.594,484.692 264.247,490.961 C 239.844,492.304 217.623,501.372 200.216,514.889 L 188.07,521.493 C 170.271,528.49 151.465,527.398 135.512,520.514 L 141.445,528.49 C 162.658,538.565 186.334,536.466 205.085,524.684 L 238.835,506.158 C 249.302,496.475 265.981,497.202 275.665,508.005 C 276.728,508.984 277.4,510.328 278.072,511.447 L 284.341,521.131 L 284.341,446.043 L 284.342,446.043 z "
   style="fill:none;stroke:#f7ffba;stroke-width:0.36809999;stroke-miterlimit:3"
   id="path109" />
		<path
   d="M 520.542,446.043 C 553.9,461.379 593.192,447.134 608.864,413.664 C 612.335,406.052 614.013,398.076 614.798,390.716 L 618.212,375.491 L 621.011,396.341 C 617.932,429.728 592.185,455.727 559.778,460.288 L 540.692,471.062 L 540.692,474.868 L 614.798,475.232 C 637.354,476.967 657.615,460.651 660.694,438.431 L 666.907,430.343 L 665.172,442.601 C 658.232,474.869 627.279,495.746 595.264,490.205 L 563.64,484.944 C 555.244,482.229 546.288,484.692 540.692,490.961 C 565.095,492.304 587.26,501.372 604.723,514.889 L 617.204,521.493 C 634.611,528.49 653.418,527.762 669.762,520.514 L 663.492,528.49 C 642.279,538.565 618.548,536.466 599.797,524.936 L 566.439,506.158 C 555.636,496.475 538.957,497.202 529.274,508.005 C 528.49,508.984 527.539,510.328 526.811,511.447 L 520.542,521.131 L 520.542,446.043 z "
   style="fill:#f7ffba;fill-rule:evenodd"
   id="path111" />
		<path
   d="M 520.542,446.043 C 553.9,461.379 593.192,447.134 608.864,413.664 C 612.335,406.052 614.013,398.076 614.798,390.716 L 618.212,375.491 L 621.011,396.341 C 617.932,429.728 592.185,455.727 559.778,460.288 L 540.692,471.062 L 540.692,474.868 L 614.798,475.232 C 637.354,476.967 657.615,460.651 660.694,438.431 L 666.907,430.343 L 665.172,442.601 C 658.232,474.869 627.279,495.746 595.264,490.205 L 563.64,484.944 C 555.244,482.229 546.288,484.692 540.692,490.961 C 565.095,492.304 587.26,501.372 604.723,514.889 L 617.204,521.493 C 634.611,528.49 653.418,527.762 669.762,520.514 L 663.492,528.49 C 642.279,538.565 618.548,536.466 599.797,524.936 L 566.439,506.158 C 555.636,496.475 538.957,497.202 529.274,508.005 C 528.49,508.984 527.539,510.328 526.811,511.447 L 520.542,521.131 L 520.542,446.043 z "
   style="fill:none;stroke:#f7ffba;stroke-width:0.36809999;stroke-miterlimit:3"
   id="path113" />
		<path
   d="M 427.293,396.341 L 430.483,376.107 C 447.163,352.795 465.577,331.33 483.376,313.895 C 453.432,326.796 431.491,350.724 420.297,378.57 L 414.42,378.206 L 423.487,309.725 C 436.024,280.536 449.849,252.326 463.507,228.65 C 470.727,215.133 474.645,200.552 474.645,186.56 L 467.649,204.359 C 456.51,225.936 443.357,246.058 429.756,262.009 C 421.416,276.002 416.882,291.338 416.882,305.919 L 401.882,374.008 L 397.124,374.008 C 405.072,340.285 404.345,306.534 396.005,276.73 C 390.743,246.058 388.393,215.749 388.393,189.386 C 402.274,159.805 409.271,129.245 409.886,100.307 C 396.733,132.686 384.251,165.318 374.401,193.556 L 374.065,230.105 C 379.718,251.934 384.867,273.903 388.673,292.681 L 392.591,348.261 L 387.665,357.328 L 382.739,357.328 L 383.132,330.966 C 367.516,296.487 348.037,264.836 327.552,239.061 C 319.828,229.014 313.559,218.211 309.753,207.773 C 308.074,224.844 314.287,240.908 325.705,251.935 L 351.116,289.492 C 365.724,307.655 373.784,329.484 375.128,350.725 L 374.792,386.547 L 371.378,386.547 L 366.061,370.595 C 359.457,349.746 341.041,336.117 320.165,334.018 C 302.422,328.141 288.541,315.631 281.32,299.903 C 287.813,324.698 305.947,343.113 328.56,351.817 L 350.109,365.082 C 359.793,372.666 364.381,384.812 362.646,396.342 L 427.293,396.342 L 427.293,396.341 z "
   style="fill:#f7ffba;fill-rule:evenodd"
   id="path115" />
		<path
   d="M 427.293,396.341 L 430.483,376.107 C 447.163,352.795 465.577,331.33 483.376,313.895 C 453.432,326.796 431.491,350.724 420.297,378.57 L 414.42,378.206 L 423.487,309.725 C 436.024,280.536 449.849,252.326 463.507,228.65 C 470.727,215.133 474.645,200.552 474.645,186.56 L 467.649,204.359 C 456.51,225.936 443.357,246.058 429.756,262.009 C 421.416,276.002 416.882,291.338 416.882,305.919 L 401.882,374.008 L 397.124,374.008 C 405.072,340.285 404.345,306.534 396.005,276.73 C 390.743,246.058 388.393,215.749 388.393,189.386 C 402.274,159.805 409.271,129.245 409.886,100.307 C 396.733,132.686 384.251,165.318 374.401,193.556 L 374.065,230.105 C 379.718,251.934 384.867,273.903 388.673,292.681 L 392.591,348.261 L 387.665,357.328 L 382.739,357.328 L 383.132,330.966 C 367.516,296.487 348.037,264.836 327.552,239.061 C 319.828,229.014 313.559,218.211 309.753,207.773 C 308.074,224.844 314.287,240.908 325.705,251.935 L 351.116,289.492 C 365.724,307.655 373.784,329.484 375.128,350.725 L 374.792,386.547 L 371.378,386.547 L 366.061,370.595 C 359.457,349.746 341.041,336.117 320.165,334.018 C 302.422,328.141 288.541,315.631 281.32,299.903 C 287.813,324.698 305.947,343.113 328.56,351.817 L 350.109,365.082 C 359.793,372.666 364.381,384.812 362.646,396.342 L 427.293,396.342 L 427.293,396.341 z "
   style="fill:none;stroke:#f7ffba;stroke-width:0.36809999;stroke-miterlimit:3"
   id="path117" />
		<line
   fill="none"
   stroke="#000000"
   stroke-width="5.2757"
   stroke-miterlimit="3"
   x1="802.638"
   y1="2.638"
   x2="2.638"
   y2="2.638"
   id="line119"
   style="fill:none;stroke:#000000;stroke-width:5.27570009;stroke-miterlimit:3" />
		<line
   fill="none"
   stroke="#000000"
   stroke-width="5.2757"
   stroke-miterlimit="3"
   x1="2.638"
   y1="2.638"
   x2="802.638"
   y2="2.638"
   id="line121"
   style="fill:none;stroke:#000000;stroke-width:5.27570009;stroke-miterlimit:3" />
		<line
   fill="none"
   stroke="#000000"
   stroke-width="5.2757"
   stroke-miterlimit="3"
   x1="2.638"
   y1="2.638"
   x2="802.638"
   y2="2.638"
   id="line123"
   style="fill:none;stroke:#000000;stroke-width:5.27570009;stroke-miterlimit:3" />
		<path
   d="M 708.382,779.521 C 763.01,744.791 795.642,688.847 802.638,628.594 L 802.638,2.638 L 2.638,2.638 L 2.638,628.595 C 9.634,692.655 45.456,746.891 96.502,779.27 L 402.273,932.268 L 708.382,779.521 z "
   style="fill:none;stroke:#000000;stroke-width:5.27570009;stroke-miterlimit:3"
   id="path125" />
	</g>
</g>
</svg>