<?xml version="1.0" encoding="UTF-8" standalone="no"?>
<!-- Created with Inkscape (http://www.inkscape.org/) -->
<svg
   xmlns:dc="http://purl.org/dc/elements/1.1/"
   xmlns:cc="http://web.resource.org/cc/"
   xmlns:rdf="http://www.w3.org/1999/02/22-rdf-syntax-ns#"
   xmlns:svg="http://www.w3.org/2000/svg"
   xmlns="http://www.w3.org/2000/svg"
   xmlns:sodipodi="http://sodipodi.sourceforge.net/DTD/sodipodi-0.dtd"
   xmlns:inkscape="http://www.inkscape.org/namespaces/inkscape"
   width="500"
   height="640"
   id="svg1901"
   sodipodi:version="0.32"
   inkscape:version="0.45.1"
   sodipodi:docname="Sottunga.vaakuna.svg"
   sodipodi:docbase="/"
   version="1.0"
   inkscape:output_extension="org.inkscape.output.svg.inkscape">
  <defs
     id="defs1903" />
  <sodipodi:namedview
     id="base"
     pagecolor="#ffffff"
     bordercolor="#666666"
     borderopacity="1.0"
     inkscape:pageopacity="0.0"
     inkscape:pageshadow="2"
     inkscape:zoom="1"
     inkscape:cx="497.96494"
     inkscape:cy="332.82043"
     inkscape:document-units="px"
     inkscape:current-layer="layer1"
     gridtolerance="10000"
     inkscape:window-width="1271"
     inkscape:window-height="968"
     inkscape:window-x="-2"
     inkscape:window-y="-3"
     width="500px"
     height="640px" />
  <metadata
     id="metadata1906">
    <rdf:RDF>
      <cc:Work
         rdf:about="">
        <dc:format>image/svg+xml</dc:format>
        <dc:type
           rdf:resource="http://purl.org/dc/dcmitype/StillImage" />
        <dc:title>Sottungan vaakuna, Sottunga vapen, Coat of arms of Sottunga</dc:title>
        <dc:date>2007-07-26</dc:date>
        <dc:creator>
          <cc:Agent>
            <dc:title>Hippophaë, Wikipedia</dc:title>
          </cc:Agent>
        </dc:creator>
        <dc:subject>
          <rdf:Bag>
            <rdf:li>Sottunga</rdf:li>
            <rdf:li>vaakuna</rdf:li>
            <rdf:li>vapen</rdf:li>
            <rdf:li>coat of arms</rdf:li>
          </rdf:Bag>
        </dc:subject>
        <cc:license
           rdf:resource="http://web.resource.org/cc/PublicDomain" />
        <dc:identifier>http://commons.wikimedia.org/wiki/Image:Sottunga.vaakuna.svg</dc:identifier>
      </cc:Work>
      <cc:License
         rdf:about="http://web.resource.org/cc/PublicDomain">
        <cc:permits
           rdf:resource="http://web.resource.org/cc/Reproduction" />
        <cc:permits
           rdf:resource="http://web.resource.org/cc/Distribution" />
        <cc:permits
           rdf:resource="http://web.resource.org/cc/DerivativeWorks" />
      </cc:License>
    </rdf:RDF>
  </metadata>
  <g
     inkscape:label="Taso 1"
     inkscape:groupmode="layer"
     id="layer1"
     style="opacity:1">
    <path
       style="fill:#0000bf;fill-rule:evenodd;stroke:#000000;stroke-width:1px;stroke-linecap:butt;stroke-linejoin:miter;stroke-opacity:1;fill-opacity:1"
       d="M 0.5,0.5 L 499.5,0.5 L 499.5,475 C 420,556 355,599 250,639.5 C 145,599 80,556 0.5,475 L 0.5,0.5 z "
       id="path2187"
       sodipodi:nodetypes="cccccc" />
    <path
       style="fill:#bf9f4f;fill-rule:evenodd;stroke:#000000;stroke-width:1px;stroke-linecap:butt;stroke-linejoin:miter;stroke-opacity:1;fill-opacity:1"
       d="M 341,325 L 377,325 L 380,329 L 343,329 L 341,325 z "
       id="path10003"
       sodipodi:nodetypes="ccccc" />
    <path
       sodipodi:nodetypes="ccccc"
       id="path10005"
       d="M 351.00003,345 L 391.61541,345 L 395.00003,349 L 353.25644,349 L 351.00003,345 z "
       style="fill:#bf9f4f;fill-rule:evenodd;stroke:#000000;stroke-width:1px;stroke-linecap:butt;stroke-linejoin:miter;stroke-opacity:1;fill-opacity:1" />
    <path
       style="fill:#bf9f4f;fill-rule:evenodd;stroke:#000000;stroke-width:1px;stroke-linecap:butt;stroke-linejoin:miter;stroke-opacity:1;fill-opacity:1"
       d="M 330.50001,305 L 364.65385,305 L 367.50001,309 L 332.39744,309 L 330.50001,305 z "
       id="path10007"
       sodipodi:nodetypes="ccccc" />
    <path
       sodipodi:nodetypes="ccccc"
       id="path10009"
       d="M 320,285 L 349.53847,285 L 352,289 L 321.64103,289 L 320,285 z "
       style="fill:#bf9f4f;fill-rule:evenodd;stroke:#000000;stroke-width:1px;stroke-linecap:butt;stroke-linejoin:miter;stroke-opacity:1;fill-opacity:1" />
    <path
       style="fill:#bf9f4f;fill-rule:evenodd;stroke:#000000;stroke-width:0.99999994px;stroke-linecap:butt;stroke-linejoin:miter;stroke-opacity:1;fill-opacity:1"
       d="M 309.5,265 L 336.26923,265 L 338.5,269 L 310.98718,269 L 309.5,265 z "
       id="path10011"
       sodipodi:nodetypes="ccccc" />
    <path
       sodipodi:nodetypes="ccccc"
       id="path10013"
       d="M 299.5,245 L 320.73076,245 L 322.5,249 L 300.67949,249 L 299.5,245 z "
       style="fill:#bf9f4f;fill-rule:evenodd;stroke:#000000;stroke-width:1px;stroke-linecap:butt;stroke-linejoin:miter;stroke-opacity:1;fill-opacity:1" />
    <path
       style="fill:#bf9f4f;fill-rule:evenodd;stroke:#000000;stroke-width:1px;stroke-linecap:butt;stroke-linejoin:miter;stroke-opacity:1;fill-opacity:1"
       d="M 289.5,225 L 307.03846,225 L 308.5,229 L 290.47436,229 L 289.5,225 z "
       id="path10015"
       sodipodi:nodetypes="ccccc" />
    <path
       sodipodi:nodetypes="ccccc"
       id="path10017"
       d="M 279.5,205 L 292.42308,205 L 293.5,209 L 280.21795,209 L 279.5,205 z "
       style="fill:#bf9f4f;fill-rule:evenodd;stroke:#000000;stroke-width:1.00000012px;stroke-linecap:butt;stroke-linejoin:miter;stroke-opacity:1;fill-opacity:1" />
    <path
       style="fill:#bf9f4f;fill-rule:evenodd;stroke:#000000;stroke-width:0.99999994px;stroke-linecap:butt;stroke-linejoin:miter;stroke-opacity:1;fill-opacity:1"
       d="M 269,185 L 277.30769,185 L 278,189 L 269.46154,189 L 269,185 z "
       id="path10019"
       sodipodi:nodetypes="ccccc" />
    <path
       id="path9999"
       d="M 246,149 L 410,374 L 414,370 L 250,145 L 246,149 z "
       style="fill:#bf9f4f;fill-rule:evenodd;stroke:#000000;stroke-width:1px;stroke-linecap:butt;stroke-linejoin:miter;stroke-opacity:1;fill-opacity:1"
       sodipodi:nodetypes="ccccc" />
    <path
       style="fill:#bf9f4f;fill-rule:evenodd;stroke:#000000;stroke-width:1px;stroke-linecap:butt;stroke-linejoin:miter;stroke-opacity:1;fill-opacity:1"
       d="M 50,351 L 250,145 L 254,149 L 54,355 L 50,351 z "
       id="path9997" />
    <path
       sodipodi:nodetypes="ccccccccccccccccccccccc"
       d="M 450,522 C 440,532 420,532 410,522 C 400,532 380,532 370,522 C 360,532 340,532 330,522 C 320,532 300,532 290,522 C 280,532 260,532 250,522 C 240,532 220,532 210,522 C 200,532 180,532 170,522 C 160,532 140,532 130,522 C 120,532 100,532 90,522 C 80,532 60,532 50,522 C 59.1,530 65.1,535 73.25,541.5 C 80,541.5 85,539 90,534 C 100,544 120,544 130,534 C 140,544 160,544 170,534 C 180,544 200,544 210,534 C 220,544 240,544 250,534 C 260,544 280,544 290,534 C 300,544 320,544 330,534 C 340,544 360,544 370,534 C 380,544 400,544 410,534 C 415,539 420,541.5 426.75,541.5 C 434.9,535 440.9,530 450,522 z "
       style="fill:#bf9f4f;fill-rule:evenodd;stroke:#000000;stroke-width:1px;stroke-linecap:butt;stroke-linejoin:miter;stroke-opacity:1;fill-opacity:1"
       id="path5129" />
    <path
       style="fill:#ff0000;fill-rule:evenodd;stroke:#000000;stroke-width:1px;stroke-linecap:butt;stroke-linejoin:miter;stroke-opacity:1;fill-opacity:1"
       d="M 250,56.5 C 255.80752,49.507855 270.66941,42.7598 280.9,42.8 C 294.35649,42.852876 309.75132,59.352186 323.5,59.7 C 333.38969,59.955249 341.79173,52.077949 352,52.2 C 360.44611,52.299787 365.01734,57.543905 374.5,57.5 C 385.67846,57.447692 399.96822,49.162885 408,44 C 399.90155,55.096218 386.20787,64.54624 375.9,64.6 C 367.80643,64.642211 364.54589,62.381604 356,62.5 C 348.22728,62.607684 341.65877,69.176301 333.4,75.5 C 345.7921,72.976301 354.61484,71.710385 363.2,72 C 368.6183,72.182783 387.0714,78.443002 398.7,74.3 C 391.00473,82.076335 388.16464,83.339723 381.2,83.5 C 374.38926,83.656735 368.54729,80.028294 361,80.5 C 352.54729,81.028294 346.76791,85.064128 337.7,90.9 C 362.66791,90.997462 400.58852,84.84843 391.5,125 C 382.92186,102.28176 376.72334,99.367232 359.1,99.3 C 349.09659,99.261177 342.25445,101.19877 328,101.2 C 314.70307,101.20115 292.27835,90.292089 279.6,90.6 C 269.27012,90.850875 260.63126,96.72376 249.5,102.5 L 250,56.5 z "
       id="path9995"
       sodipodi:nodetypes="csssscsscscssccssscc" />
    <path
       sodipodi:nodetypes="ccccc"
       style="fill:#bf9f4f;fill-rule:evenodd;stroke:#000000;stroke-width:1px;stroke-linecap:butt;stroke-linejoin:miter;stroke-opacity:1;fill-opacity:1"
       d="M 248,149 L 370,385 L 373,385 L 251,149 L 248,149 z "
       id="path10001" />
    <path
       style="fill:#bf9f4f;fill-rule:evenodd;stroke:#000000;stroke-width:1px;stroke-linecap:butt;stroke-linejoin:miter;stroke-opacity:1;fill-opacity:1"
       d="M 232,400 L 248,35 L 252,35 L 268,400 L 232,400 z "
       id="path9018"
       sodipodi:nodetypes="ccccc" />
    <path
       style="fill:#bf9f4f;fill-rule:evenodd;stroke:#000000;stroke-width:1px;stroke-linecap:butt;stroke-linejoin:miter;stroke-opacity:1;fill-opacity:1"
       d="M 250,385 C 460,385 450,300 470,320 C 490,340 420,480 250,480 C 80,480 10,340 30,320 C 50,300 40,385 250,385 z "
       id="path5131"
       sodipodi:nodetypes="cssss" />
    <path
       id="path2189"
       style="fill:#bf9f4f;fill-opacity:1;fill-rule:evenodd;stroke:#000000;stroke-width:1px;stroke-linecap:butt;stroke-linejoin:miter;stroke-opacity:1"
       d="M 432.97,405.73 C 428.43,410.52 423.99,414.79 419.22,419.07 L 460,485 C 457,484 453,482 450,480 C 440,490 420,490 410,480 C 400,490 380,490 370,480 C 360,490 340,490 330,480 C 320,490 300,490 290,480 C 280,490 260,490 250,480 C 240,490 220,490 210,480 C 200,490 180,490 170,480 C 160,490 140,490 130,480 C 120,490 100,490 90,480 C 80,490 60,490 50,480 C 40,490 20,490 5.4,480 C 11.5,486 17.4,492 21.7,496 C 25.5,500.5 40,502 50,492 C 60,502 80,502 90,492 C 100,502 120,502 130,492 C 140,502 160,502 170,492 C 180,502 200,502 210,492 C 220,502 240,502 250,492 C 260,502 280,502 290,492 C 300,502 320,502 330,492 C 340,502 360,502 370,492 C 380,502 400,502 410,492 C 420,502 440,502 450,492 C 460,502 474,500.5 478.3,496 C 482.6,492 488.5,486 494.6,480 C 491.6,482 487.6,484 484.6,485 L 432.97,405.73 z "
       sodipodi:nodetypes="ccccccccccccccccccccccccccccccc" />
    <path
       style="fill:none;fill-rule:evenodd;stroke:#000000;stroke-width:1px;stroke-linecap:round;stroke-linejoin:miter;stroke-opacity:1"
       d="M 49.3,328 C 70,395 100,440 182.5,472"
       id="path6102"
       sodipodi:nodetypes="cc" />
    <path
       sodipodi:nodetypes="cc"
       id="path7074"
       d="M 450.7,328 C 430,395 400,440 317.5,472"
       style="fill:none;fill-rule:evenodd;stroke:#000000;stroke-width:1px;stroke-linecap:round;stroke-linejoin:miter;stroke-opacity:1" />
    <path
       style="fill:none;fill-rule:evenodd;stroke:#000000;stroke-width:1px;stroke-linecap:round;stroke-linejoin:miter;stroke-opacity:1"
       d="M 65.5,370 C 160,425 340,425 434.5,370"
       id="path7076"
       sodipodi:nodetypes="cc" />
    <path
       sodipodi:nodetypes="cc"
       id="path7078"
       d="M 94.5,415 C 190,450 310,450 405.5,415"
       style="fill:none;fill-rule:evenodd;stroke:#000000;stroke-width:1px;stroke-linecap:round;stroke-linejoin:miter;stroke-opacity:1" />
    <path
       style="fill:#bf9f4f;fill-rule:evenodd;stroke:#000000;stroke-width:1px;stroke-linecap:butt;stroke-linejoin:miter;stroke-opacity:1;fill-opacity:1"
       d="M 210,123 C 220,170 280,170 290,123 L 210,123 z "
       id="path9020"
       sodipodi:nodetypes="ccc" />
    <path
       sodipodi:type="arc"
       style="opacity:1;fill:#bf9f4f;fill-opacity:1;stroke:#000000;stroke-width:2.14285731;stroke-linecap:round;stroke-linejoin:round;stroke-miterlimit:4;stroke-dasharray:none;stroke-opacity:1"
       id="path9024"
       sodipodi:cx="250"
       sodipodi:cy="30"
       sodipodi:rx="7.5"
       sodipodi:ry="7.5"
       d="M 257.5 30 A 7.5 7.5 0 1 1  242.5,30 A 7.5 7.5 0 1 1  257.5 30 z"
       transform="matrix(0.9333333,0,0,0.9333333,16.666675,4.0000012)" />
  </g>
</svg>
