<?xml version="1.0" encoding="UTF-8"?>
<!DOCTYPE svg PUBLIC "-//W3C//DTD SVG 1.1//EN" "http://www.w3.org/Graphics/SVG/1.1/DTD/svg11.dtd">
<!-- Creator: CorelDRAW -->
<svg xmlns="http://www.w3.org/2000/svg" xml:space="preserve" width="500px" height="562px" shape-rendering="geometricPrecision" text-rendering="geometricPrecision" image-rendering="optimizeQuality" fill-rule="evenodd" clip-rule="evenodd"
viewBox="0 0 500 562"
 xmlns:xlink="http://www.w3.org/1999/xlink"
 xmlns:svg="http://www.w3.org/2000/svg"
 version="1.0">
 <g id="Layer_x0020_1">
  <metadata id="CorelCorpID_0Corel-Layer"/>
  <path id="path1937" fill="black" stroke="black" stroke-width="0.216" d="M0.262772 0.649418l499.262 0.169795 -10.0797 326.427c-28.4658,312.4 -451.059,306.607 -478.078,-1.5446l-11.1042 -325.053z"/>
  <path fill="#BF9F4F" stroke="black" stroke-width="0.216" d="M86.7124 174.34c1.33767,8.25109 6.24331,13.826 14.7175,16.7244 4.62104,-3.42964 8.90873,-8.52492 12.7106,-16.0554 8.21339,-2.56025 14.0533,-4.76362 11.5217,-18.07 10.0998,2.61638 13.6383,-3.78879 10.616,-19.2164 12.1068,4.48214 15.6016,-1.28806 10.4856,-17.3103 14.5817,-0.00878741 19.501,-7.68104 10.2986,-26.5547 9.4252,-4.95014 10.9029,-11.9506 -5.10265,-23.4644 3.1697,-13.108 -0.632126,-19.245 -11.4044,-18.4107 -5.65767,-3.95518 -6.23934,-9.29509 -4.51276,-15.7124 -6.17585,0.864 -11.1209,2.54835 -14.8354,5.05191 -5.65966,-0.858331 -8.85884,-5.40737 -13.2883,-8.11106 3.25332,-4.52721 8.35229,-7.82419 12.221,-12.659 -3.09402,-3.92684 -8.03339,-6.62372 -12.0498,-9.93572 -5.99471,4.14851 -10.2971,13.9363 -13.8297,26.2877 -19.7632,-3.91238 -25.2763,-1.67414 -26.9952,10.0981 -14.4924,0.285732 -20.141,6.7235 -15.7697,20.1314 -14.7291,6.73484 -16.3358,15.52 -4.82032,26.3548 -11.5787,13.5884 -9.03487,22.3064 3.17112,27.692 -5.66419,13.1349 -2.40888,21.0671 11.611,22.7188 -2.9812,12.6573 -0.91389,19.6506 10.0483,18.3643 1.47969,11.5628 5.52274,17.7423 15.2067,12.0767z"/>
  <path id="path1937_0" fill="#CCCCCC" d="M492.746 220.314l-3.30151 106.933c-5.24013,57.5068 -23.8357,104.232 -50.8607,140.273 -86.1744,-174.579 -274.496,-172.179 -375.504,-0.475937 -27.6744,-36.4144 -46.6478,-83.5631 -51.7136,-141.341l-3.59887 -105.355 484.978 -0.0334488z"/>
  <line fill="none" stroke="#7F7F7F" stroke-width="0.708662" x1="386.108" y1="280.504" x2="386.994" y2= "325.43" />
  <line fill="none" stroke="#7F7F7F" stroke-width="0.708662" x1="115.842" y1="303.918" x2="115.389" y2= "326.768" />
  <line fill="none" stroke="#7F7F7F" stroke-width="0.708662" x1="435.613" y1="331.346" x2="436.498" y2= "376.272" />
  <line fill="none" stroke="white" stroke-width="1.41732" x1="118.776" y1="280.63" x2="118.985" y2= "329.883" />
  <path fill="none" stroke="white" stroke-width="1.98425" d="M9.87024 384.28l59.5052 -0.253417m343.856 -1.46268l77.7388 -0.330803"/>
  <line fill="none" stroke="#7F7F7F" stroke-width="0.708662" x1="75.0342" y1="334.691" x2="75.9195" y2= "379.617" />
  <line fill="none" stroke="white" stroke-width="1.41732" x1="78.3358" y1="331.208" x2="78.5455" y2= "380.46" />
  <line fill="none" stroke="white" stroke-width="1.41732" x1="389.711" y1="278.623" x2="389.921" y2= "327.876" />
  <line fill="none" stroke="white" stroke-width="1.41732" x1="439.955" y1="329.869" x2="440.164" y2= "379.121" />
  <path fill="none" stroke="#7F7F7F" stroke-width="0.708662" d="M20.1056 377.036l56.632 -0.240945m329.136 -1.40003l75.6443 -0.355181"/>
  <line fill="none" stroke="white" stroke-width="1.98425" x1="9.87024" y1="330.28" x2="490.971" y2= "328.233" />
  <line fill="none" stroke="#7F7F7F" stroke-width="0.708662" x1="11.7088" y1="326.067" x2="489.745" y2= "324.633" />
  <g id="_48387984">
   <path id="path1937_1" fill="white" d="M464.984 405.433c-8.68224,23.3748 -15.4281,47.3927 -28.9406,65.4132 -86.1744,-174.579 -275.926,-180.888 -376.934,-9.18539 -11.2425,-14.7932 -19.7402,-32.2835 -27.762,-50.6132 137.83,-190.711 316.936,-158.218 433.636,-5.61459z"/>
   <path id="path1937_2" fill="#7F7F7F" d="M473.338 402.265c-8.68224,23.3748 -19.2793,43.9614 -32.7918,61.9818 -86.1744,-174.579 -276.255,-169.39 -375.256,5.65767 -11.2422,-14.7929 -19.6583,-34.2199 -27.6798,-52.5493 137.162,-193.813 320.366,-165.686 435.728,-15.0902z"/>
   <path id="path1937_3" fill="#CCCCCC" d="M472.184 405.433c-8.68224,23.3748 -20.0872,44.0663 -33.5996,62.0867 -86.1744,-174.579 -274.496,-172.179 -375.504,-0.475937 -11.2425,-14.7932 -21.0492,-31.3586 -29.0707,-49.688 137.162,-193.813 321.474,-164.526 438.174,-11.9228z"/>
  </g>
  <line fill="none" stroke="#7F7F7F" stroke-width="1.98425" x1="134.812" y1="317.77" x2="161.848" y2= "364.21" />
  <line fill="none" stroke="#7F7F7F" stroke-width="1.41732" x1="202.446" y1="284.265" x2="219.89" y2= "338.665" />
  <line fill="none" stroke="#7F7F7F" stroke-width="1.98425" x1="74.1011" y1="360.154" x2="114.064" y2= "400.96" />
  <line fill="none" stroke="#7F7F7F" stroke-width="1.41732" x1="51.9829" y1="429.017" x2="78.5841" y2= "442.954" />
  <line fill="none" stroke="#7F7F7F" stroke-width="1.41732" x1="304.769" y1="288.204" x2="286.175" y2= "340.484" />
  <line fill="none" stroke="#7F7F7F" stroke-width="1.41732" x1="376.456" y1="317.266" x2="350.303" y2= "361.019" />
  <line fill="none" stroke="#7F7F7F" stroke-width="1.41732" x1="392.098" y1="399.323" x2="430.48" y2= "358.835" />
  <line fill="none" stroke="#7F7F7F" stroke-width="1.41732" x1="433.3" y1="440.39" x2="469.28" y2= "412.903" />
  <polygon fill="white" points="137.329,318.439 161.799,360.471 142.218,315.427 "/>
  <polygon fill="white" stroke="white" stroke-width="1.41732" points="205.176,286.472 221.483,337.327 209.56,285.417 "/>
  <polygon fill="white" points="307.532,289.87 289.47,340.712 292.146,341.381 309.434,289.639 "/>
  <polygon fill="white" points="351.015,363.457 377.106,319.305 381.119,321.312 "/>
  <polygon fill="white" points="78.742,361.45 114.867,399.582 82.7558,359.443 "/>
  <polygon fill="white" points="36.5964,412.962 79.4109,441.059 35.9275,416.975 "/>
  <polygon fill="white" points="430.624,362.788 393.83,400.251 397.175,404.934 "/>
  <polygon fill="white" points="466.748,419.651 431.293,444.403 433.3,449.755 466.079,423.665 "/>
  <line fill="none" stroke="white" stroke-width="1.98425" x1="9.87024" y1="279.88" x2="490.971" y2= "277.833" />
  <line fill="none" stroke="#7F7F7F" stroke-width="1.98425" x1="8.33811" y1="225.88" x2="492.196" y2= "223.833" />
  <line fill="none" stroke="white" stroke-width="5.66929" x1="7.60593" y1="217.548" x2="492.716" y2= "217.765" />
  <line fill="none" stroke="#7F7F7F" stroke-width="1.41732" x1="9.87024" y1="276.28" x2="490.971" y2= "274.233" />
  <line fill="none" stroke="white" stroke-width="1.41732" x1="79.4109" y1="230.331" x2="79.6207" y2= "279.583" />
  <path fill="white" d="M135.715 110.428c-14.7881,5.1463 -32.063,22.5252 -52.5926,40.9054 21.4274,-9.53802 34.7556,-30.4537 52.5926,-40.9054z"/>
  <line fill="none" stroke="white" stroke-width="1.41732" x1="165.811" y1="230.331" x2="166.021" y2= "279.583" />
  <path fill="white" d="M135.715 56.2972c-22.5992,18.9218 -39.3789,26.3376 -57.5136,48.2868 6.99506,-3.62977 12.6332,-8.28964 18.7461,-14.514 4.81692,-3.79559 9.82205,-6.86835 14.2002,-12.2485 9.55304,-5.37874 17.2296,-13.9558 24.5673,-21.5243z"/>
  <path fill="white" d="M145.864 76.9037c-15.2909,6.02929 -32.768,17.1958 -49.2095,37.8298 7.71506,-2.11436 12.509,-9.61059 17.0521,-13.9198 4.41468,-2.3023 9.65141,-7.38085 14.6262,-12.9192 5.19449,-3.15695 11.0548,-7.24564 17.5312,-10.9908z"/>
  <path fill="white" d="M113.571 50.7612c-3.58838,8.81689 -17.3259,13.9428 -26.4501,22.4518 4.55159,-9.81582 15.5251,-13.1474 26.4501,-22.4518z"/>
  <path fill="white" d="M92.6567 41.5344l6.15118 -3.38315c-0.052441,-7.02199 3.84321,-14.6084 9.53434,-22.4518 3.94611,0.656221 7.17166,3.47358 10.2952,6.59934 0.516189,-0.561827 1.01906,-1.14208 1.50265,-1.74643 -3.09402,-3.92684 -8.03339,-6.62372 -12.0498,-9.93572 -5.99471,4.14851 -10.2971,13.9363 -13.8297,26.2877 -15.4398,-3.05632 -22.1822,-2.35871 -25.2131,3.70602 9.09978,-0.614551 17.2772,3.07673 23.6092,0.924095zm-25.3914 5.46803c-9.9635,0.196441 -15.7467,3.30095 -16.9679,9.57856 6.94318,0.623055 13.5791,-4.28995 19.9074,-2.74422l-2.93953 -6.83433zm-27.5411 36.9292c-2.27821,-6.56844 1.64523,-12.1677 11.7714,-16.7978l9.79002 -0.072c-9.80108,4.3166 -16.6805,10.0939 -21.5615,16.8698zm4.30498 33.8582c-6.84567,-5.43544 -6.76148,-13.2608 2.64614,-24.3011l18.6086 -6.4355c-18.9261,10.0148 -22.0125,13.9558 -21.2548,30.7366zm3.65953 17.5527c-1.09077,-3.66492 -0.320315,-8.4155 2.15773,-14.1619l20.3584 -11.0605c-9.14627,6.35726 -17.881,10.459 -22.5162,25.2224zm16.0282 25.7814c-3.97219,-2.49761 -4.30895,-8.52265 -2.2595,-17.2244 3.5212,4.20378 1.50633,11.4832 2.2595,17.2244zm14.3184 14.9341c-3.67881,-1.44312 -5.60495,-6.56759 -6.52961,-13.7942 2.484,0.599811 3.73777,9.50372 6.52961,13.7942zm14.3212 9.66586c-3.0104,-2.94747 -4.89175,-6.74221 -5.64407,-11.3834 4.04249,4.10344 7.3647,8.10369 5.64407,11.3834zm60.5322 -125.577c-0.612,-4.51219 -3.07786,-7.17109 -7.39673,-7.97641l7.39673 7.97641zm-17.7041 -18.1854c0.00425197,-1.78583 0.318614,-3.68618 0.858048,-5.6914 -2.31591,0.324 -4.45862,0.76337 -6.4287,1.31811l5.57065 4.37329z"/>
  <line fill="none" stroke="white" stroke-width="1.41732" x1="252.211" y1="230.331" x2="252.421" y2= "279.583" />
  <path fill="white" d="M88.6584 47.378c-12.0147,6.30992 -13.4121,11.3352 -19.3762,11.0721 4.61339,-5.22851 14.1477,-8.3041 19.3762,-11.0721z"/>
  <line fill="none" stroke="white" stroke-width="0.992126" x1="342.211" y1="230.331" x2="342.421" y2= "279.583" />
  <line fill="none" stroke="white" stroke-width="0.992126" x1="443.011" y1="230.331" x2="443.221" y2= "279.583" />
  <line fill="none" stroke="white" stroke-width="1.41732" x1="40.5505" y1="279.172" x2="40.7602" y2= "328.425" />
  <line fill="none" stroke="#7F7F7F" stroke-width="0.708662" x1="249.535" y1="230.331" x2="250.42" y2= "275.256" />
  <line fill="none" stroke="#7F7F7F" stroke-width="0.708662" x1="335.935" y1="230.331" x2="336.82" y2= "275.256" />
  <line fill="none" stroke="#7F7F7F" stroke-width="0.708662" x1="440.335" y1="230.331" x2="441.22" y2= "275.256" />
  <path fill="white" d="M81.5845 128.266c0.922678,2.97326 -7.99654,4.10088 -9.22678,7.99654 0.615118,-5.74101 5.84362,-8.40643 9.22678,-7.99654z"/>
  <line fill="none" stroke="#7F7F7F" stroke-width="0.708662" x1="76.735" y1="230.331" x2="77.6203" y2= "275.256" />
  <g id="_48341104">
   <path id="_48353192" fill="none" stroke="#4F2900" stroke-width="2.26772" d="M50.8286 66.7542c5.9074,1.38132 13.0453,-2.97865 21.4141,-13.0799 11.4744,-4.91244 20.9299,-11.7003 21.6442,-17.3684"/>
   <path id="_48352224" fill="none" stroke="#4F2900" stroke-width="2.26772" d="M46.2152 93.8194c9.42577,-2.20422 17.7239,-7.79188 25.5096,-14.9185 7.79556,-1.79462 14.4635,-6.97352 20.6192,-13.6911 6.1047,-2.91543 11.5427,-6.49701 16.0081,-11.0534 4.40504,-4.05326 8.80952,-8.36306 13.2151,-13.2372"/>
   <path id="_48351504" fill="none" stroke="#4F2900" stroke-width="2.26772" d="M50.2135 120.885c9.13692,-3.57506 16.3261,-9.58508 22.1825,-17.2616 8.4909,-1.32945 15.0344,-7.0424 20.2453,-15.7541 6.18889,-2.71956 11.9673,-6.66907 17.3364,-11.8497 6.30482,-3.45345 11.9435,-7.90696 16.6088,-13.822 7.86104,-0.941386 12.4413,-4.75342 13.7418,-11.4361"/>
   <path id="_48350784" fill="none" stroke="#4F2900" stroke-width="2.26772" d="M61.5932 143.336c5.22029,-4.18961 10.0304,-9.19928 14.4309,-15.0296 8.20233,-0.224788 14.7385,-4.44784 18.8408,-14.5157 6.31928,-3.47216 11.8185,-8.58473 16.4979,-15.3377 5.47654,-2.6881 9.82489,-7.06904 13.6607,-12.219 9.81752,-5.57037 19.1222,-11.1407 27.2996,-16.7122"/>
   <path id="_48349240" fill="none" stroke="#4F2900" stroke-width="2.26772" d="M71.7427 162.405c4.1281,-3.34885 7.84574,-7.92822 11.1541,-13.7381 6.01087,-2.06561 11.0225,-5.46435 14.5732,-10.8111 6.04233,-3.47471 11.3414,-8.43563 15.7442,-15.1917 15.7314,-4.64882 16.7,-16.0642 24.1277,-16.7151 4.24233,-2.80488 7.66489,-6.43011 10.2674,-10.8757l9.63497 -1.56161"/>
   <path id="_48348272" fill="none" stroke="#4F2900" stroke-width="2.26772" d="M87.1206 175.938c4.97679,-5.28803 9.0309,-12.4217 14.9307,-15.8647 7.14643,-2.50328 12.2426,-6.64696 15.2884,-12.4316 6.37626,-3.94611 11.1124,-9.53263 14.209,-16.7596 5.69424,-0.974268 10.9786,-4.40901 15.8536,-10.3048"/>
   <path id="_48347336" fill="none" stroke="#4F2900" stroke-width="2.26772" d="M151.96 70.3936c-9.01078,1.20132 -16.8494,-1.50576 -23.4003,-8.50649 -7.19689,-0.269291 -13.83,-3.35906 -20.2073,-7.73065 -6.69969,-2.36948 -13.3223,-5.86772 -20.0228,-9.8796"/>
   <path id="_48346480" fill="none" stroke="#4F2900" stroke-width="2.26772" d="M157.062 93.858c-10.3207,1.04797 -20.897,-0.467433 -32.0389,-7.6235 -5.21348,-1.98539 -10.427,-5.20129 -15.6404,-9.648 -6.60218,-2.40775 -12.0767,-6.50722 -17.0391,-11.3766 -8.23805,-1.92274 -15.1435,-5.51169 -20.1013,-11.5356"/>
   <path id="_48345488" fill="none" stroke="#4F2900" stroke-width="2.26772" d="M147.402 120.577c-4.12186,-3.43899 -8.24429,-8.10794 -12.367,-14.008 -6.30142,3.65131 -14.0899,1.35666 -23.6724,-8.11559 -6.67588,-2.22038 -12.865,-5.90259 -18.7214,-10.5846 -7.52599,-2.24986 -12.2839,-4.80728 -18.8875,-9.51789 -8.23947,-1.27814 -15.6589,-5.01733 -22.2582,-11.2173"/>
   <path id="_48343984" fill="none" stroke="#4F2900" stroke-width="2.26772" d="M136.278 137.723c-2.80658,-1.87002 -4.38293,-4.15021 -4.72961,-6.84114 -6.52167,-1.09871 -12.6329,-3.83755 -18.3345,-8.21764 -7.19292,-1.52221 -13.6168,-4.06914 -18.3492,-8.87301 -8.59692,-1.95676 -15.1438,-5.55392 -19.6404,-10.7915 -7.93333,1.07461 -15.8672,-1.18261 -23.8014,-10.7728"/>
   <path id="_48343128" fill="none" stroke="#4F2900" stroke-width="2.26772" d="M125.662 156.939c-2.77399,-3.09912 -4.62558,-6.81364 -8.32252,-9.29793 -7.2995,-2.24816 -13.9839,-4.80388 -20.0531,-9.51279 -5.33027,-3.53339 -12.1983,-6.14438 -15.9911,-10.6007 -9.21175,0.028063 -17.2959,-3.89197 -24.8672,-9.60719"/>
   <path id="_48341144" fill="none" stroke="#4F2900" stroke-width="2.26772" d="M114.14 175.009c-4.64485,-8.97704 -4.67632,-12.7256 -12.0892,-14.9363 -12.5359,-4.21172 -18.9204,-6.78331 -19.1546,-11.4061 -5.1772,-3.23887 -14.3527,-3.09487 -18.2999,-7.87181"/>
  </g>
  <path fill="#4F2900" d="M136.638 119.039c-2.87093,3.69071 -6.15175,4.92095 -9.84189,3.69071 3.5881,3.99827 7.17619,2.15291 9.84189,-3.69071z"/>
  <path fill="#4F2900" d="M156.629 108.89c-2.87093,3.69071 -6.15175,4.92095 -9.84189,3.69071 3.5881,3.99827 7.17619,2.15291 9.84189,-3.69071z"/>
  <path fill="#4F2900" d="M153.861 83.9776c-2.87093,3.69071 -6.15175,4.92095 -9.84189,3.69071 3.5881,3.99827 7.17619,2.15291 9.84189,-3.69071z"/>
  <path fill="#4F2900" d="M133.87 96.2799c-2.87093,3.69071 -6.15175,4.92095 -9.84189,3.69071 3.5881,3.99827 7.17619,2.15291 9.84189,-3.69071z"/>
  <path fill="#4F2900" d="M118.799 111.043c-2.87093,3.69071 -6.15175,4.92095 -9.84189,3.69071 3.5881,3.99827 7.17619,2.15291 9.84189,-3.69071z"/>
  <path fill="#4F2900" d="M115.416 86.7456c-2.87093,3.69071 -6.15175,4.92095 -9.84189,3.69071 3.5881,3.99827 7.17619,2.15291 9.84189,-3.69071z"/>
  <path fill="#4F2900" d="M133.87 73.213c-2.87093,3.69071 -6.15175,4.92095 -9.84189,3.69071 3.5881,3.99827 7.17619,2.15291 9.84189,-3.69071z"/>
  <path fill="#4F2900" d="M103.114 126.421c-2.87093,3.69071 -6.15175,4.92095 -9.84189,3.69071 3.5881,3.99827 7.17619,2.15291 9.84189,-3.69071z"/>
  <path fill="#4F2900" d="M98.8079 100.893c-2.87093,3.69071 -6.15175,4.92095 -9.84189,3.69071 3.5881,3.99827 7.17619,2.15291 9.84189,-3.69071z"/>
  <path fill="#4F2900" d="M98.1927 76.5961c-2.87093,3.69071 -6.15175,4.92095 -9.84189,3.69071 3.5881,3.99827 7.17619,2.15291 9.84189,-3.69071z"/>
  <path fill="#4F2900" d="M116.031 64.2938c-2.87093,3.69071 -6.15175,4.92095 -9.84189,3.69071 3.5881,3.99827 7.17619,2.15291 9.84189,-3.69071z"/>
  <path fill="#4F2900" d="M131.102 50.7612c-2.87093,3.69071 -6.15175,4.92095 -9.84189,3.69071 3.5881,3.99827 7.17619,2.15291 9.84189,-3.69071z"/>
  <path fill="#4F2900" d="M105.267 147.95c-2.87093,3.69071 -6.15175,4.92095 -9.84189,3.69071 3.5881,3.99827 7.17619,2.15291 9.84189,-3.69071z"/>
  <path fill="#4F2900" d="M97.5776 53.5292c-2.87093,3.69071 -6.15175,4.92095 -9.84189,3.69071 3.5881,3.99827 7.17619,2.15291 9.84189,-3.69071z"/>
  <path fill="#4F2900" d="M78.8165 67.3694c-2.87093,3.69071 -6.15175,4.92095 -9.84189,3.69071 3.5881,3.99827 7.17619,2.15291 9.84189,-3.69071z"/>
  <path fill="#4F2900" d="M80.6619 92.5892c-2.87093,3.69071 -6.15175,4.92095 -9.84189,3.69071 3.5881,3.99827 7.17619,2.15291 9.84189,-3.69071z"/>
  <path fill="#4F2900" d="M84.045 116.886c-2.87093,3.69071 -6.15175,4.92095 -9.84189,3.69071 3.5881,3.99827 7.17619,2.15291 9.84189,-3.69071z"/>
  <path fill="#4F2900" d="M104.344 170.094c3.23008,5.17748 1.38444,9.79115 -2.76803,14.1477 5.22851,-2.87036 6.7663,-5.12589 2.76803,-14.1477z"/>
  <path fill="#4F2900" d="M119.722 155.024c3.23008,5.17748 1.38444,9.79115 -2.76803,14.1477 5.22851,-2.87036 6.7663,-5.12589 2.76803,-14.1477z"/>
  <path fill="#4F2900" d="M131.409 139.953c3.23008,5.17748 1.38444,9.79115 -2.76803,14.1477 5.22851,-2.87036 6.7663,-5.12589 2.76803,-14.1477z"/>
  <path fill="#4F2900" d="M84.9677 157.792c3.23008,5.17748 1.38444,9.79115 -2.76803,14.1477 5.22851,-2.87036 6.7663,-5.12589 2.76803,-14.1477z"/>
  <path fill="#4F2900" d="M51.4437 86.1305c2.38536,-2.75443 5.20781,-5.28945 5.84362,-8.91922l1.84536 1.84536c-1.25121,3.01493 -4.68907,4.93512 -7.68898,7.07386z"/>
  <path fill="#4F2900" d="M52.674 112.581c2.38536,-2.75443 5.20781,-5.28945 5.84362,-8.91922l1.84536 1.84536c-1.25121,3.01493 -4.68907,4.93512 -7.68898,7.07386z"/>
  <path fill="#4F2900" d="M60.0554 136.878c2.38536,-2.75443 5.20781,-5.28945 5.84362,-8.91922l1.84536 1.84536c-1.25121,3.01493 -4.68907,4.93512 -7.68898,7.07386z"/>
  <path fill="#4F2900" d="M67.1293 158.099c2.38536,-2.75443 5.20781,-5.28945 5.84362,-8.91922l1.84536 1.84536c-1.25121,3.01493 -4.68907,4.93512 -7.68898,7.07386z"/>
  <path fill="#4F2900" d="M79.1241 140.568c4.51446,-1.44595 6.01909,-1.63021 7.99654,-3.99827 -1.2515,6.29575 -4.99692,2.95314 -7.99654,3.99827z"/>
  <path fill="#4F2900" d="M113.263 137.493c4.51446,-1.44595 6.01909,-1.63021 7.99654,-3.99827 -1.2515,6.29575 -4.99692,2.95314 -7.99654,3.99827z"/>
  <path fill="#4F2900" d="M75.4334 45.2251c4.51446,-1.44595 6.01909,-1.63021 7.99654,-3.99827 -1.2515,6.29575 -4.99692,2.95314 -7.99654,3.99827z"/>
  <path fill="#4F2900" d="M143.712 56.2972c3.07531,1.74274 4.10032,4.30555 3.07559,7.68898l3.38315 -2.15291c-1.84649,-5.84873 -4.82088,-5.74951 -6.45874,-5.53607z"/>
  <path fill="#4F2900" d="M144.942 128.266l-0.307559 7.38142 -2.76803 0c1.84564,-1.64041 2.87121,-4.10088 3.07559,-7.38142z"/>
  <path fill="#4F2900" d="M108.957 38.7664c1.53751,3.79332 0.614835,6.3567 -2.76803,7.68898 4.31915,-0.401386 7.50586,-1.52306 2.76803,-7.68898z"/>
  <path fill="#4F2900" d="M113.878 20.3128c-3.89594,2.1532 -6.15175,5.12618 -6.7663,8.91922 -1.43547,-5.02328 0.81978,-7.99626 6.7663,-8.91922z"/>
  <path fill="#BF9F4F" stroke="black" stroke-width="0.216" d="M237.289 177.737c1.33767,8.25109 6.24331,13.826 14.7175,16.7244 4.62104,-3.42964 8.90873,-8.52492 12.7106,-16.0554 8.21339,-2.56025 14.0533,-4.76362 11.5217,-18.07 10.0998,2.61638 13.6383,-3.78879 10.616,-19.2164 12.1068,4.48214 15.6016,-1.28806 10.4856,-17.3103 14.5817,-0.00878741 19.501,-7.68104 10.2986,-26.5547 9.4252,-4.95014 10.9029,-11.9506 -5.10265,-23.4644 3.1697,-13.108 -0.632126,-19.245 -11.4044,-18.4107 -5.65767,-3.95518 -6.23934,-9.29509 -4.51276,-15.7124 -6.17585,0.864 -11.1209,2.54835 -14.8354,5.05191 -5.65966,-0.858331 -8.85884,-5.40737 -13.2883,-8.11106 3.25332,-4.52721 8.35229,-7.82419 12.221,-12.659 -3.09402,-3.92684 -8.03339,-6.62372 -12.0498,-9.93572 -5.99471,4.14851 -10.2971,13.9363 -13.8297,26.2877 -19.7632,-3.91238 -25.2763,-1.67414 -26.9952,10.0981 -14.4924,0.285732 -20.141,6.7235 -15.7697,20.1314 -14.7291,6.73484 -16.3358,15.52 -4.82032,26.3548 -11.5787,13.5884 -9.03487,22.3064 3.17112,27.692 -5.66419,13.1349 -2.40888,21.0671 11.611,22.7188 -2.9812,12.6573 -0.91389,19.6506 10.0483,18.3643 1.47969,11.5628 5.52274,17.7423 15.2067,12.0767z"/>
  <path fill="white" d="M286.292 113.824c-14.7881,5.1463 -32.063,22.5252 -52.5926,40.9054 21.4274,-9.53802 34.7556,-30.4537 52.5926,-40.9054z"/>
  <path fill="white" d="M286.292 59.6937c-22.5992,18.9218 -39.3789,26.3376 -57.5136,48.2868 6.99506,-3.62977 12.6332,-8.28964 18.7461,-14.514 4.81692,-3.79559 9.82205,-6.86835 14.2002,-12.2485 9.55304,-5.37874 17.2296,-13.9558 24.5673,-21.5243z"/>
  <path fill="white" d="M296.441 80.3002c-15.2909,6.02929 -32.768,17.1958 -49.2095,37.8298 7.71506,-2.11436 12.509,-9.61059 17.0521,-13.9198 4.41468,-2.3023 9.65141,-7.38085 14.6262,-12.9192 5.19449,-3.15695 11.0548,-7.24564 17.5312,-10.9908z"/>
  <path fill="white" d="M264.148 54.1576c-3.58838,8.81689 -17.3259,13.9428 -26.4501,22.4518 4.55159,-9.81582 15.5251,-13.1474 26.4501,-22.4518z"/>
  <path fill="white" d="M243.234 44.9309l6.15118 -3.38315c-0.052441,-7.02199 3.84321,-14.6084 9.53434,-22.4518 3.94611,0.656221 7.17166,3.47358 10.2952,6.59934 0.516189,-0.561827 1.01906,-1.14208 1.50265,-1.74643 -3.09402,-3.92684 -8.03339,-6.62372 -12.0498,-9.93572 -5.99471,4.14851 -10.2971,13.9363 -13.8297,26.2877 -15.4398,-3.05632 -22.1822,-2.35871 -25.2131,3.70602 9.09978,-0.614551 17.2772,3.07673 23.6092,0.924095zm-25.3914 5.46803c-9.9635,0.196441 -15.7467,3.30095 -16.9679,9.57856 6.94318,0.623055 13.5791,-4.28995 19.9074,-2.74422l-2.93953 -6.83433zm-27.5411 36.9292c-2.27821,-6.56844 1.64523,-12.1677 11.7714,-16.7978l9.79002 -0.072c-9.80108,4.3166 -16.6805,10.0939 -21.5615,16.8698zm4.30498 33.8582c-6.84567,-5.43544 -6.76148,-13.2608 2.64614,-24.3011l18.6086 -6.4355c-18.9261,10.0148 -22.0125,13.9558 -21.2548,30.7366zm3.65953 17.5527c-1.09077,-3.66492 -0.320315,-8.4155 2.15773,-14.1619l20.3584 -11.0605c-9.14627,6.35726 -17.881,10.459 -22.5162,25.2224zm16.0282 25.7814c-3.97219,-2.49761 -4.30895,-8.52265 -2.2595,-17.2244 3.5212,4.20378 1.50633,11.4832 2.2595,17.2244zm14.3184 14.9341c-3.67881,-1.44312 -5.60495,-6.56759 -6.52961,-13.7942 2.484,0.599811 3.73777,9.50372 6.52961,13.7942zm14.3212 9.66586c-3.0104,-2.94747 -4.89175,-6.74221 -5.64407,-11.3834 4.04249,4.10344 7.3647,8.10369 5.64407,11.3834zm60.5322 -125.577c-0.612,-4.51219 -3.07786,-7.17109 -7.39673,-7.97641l7.39673 7.97641zm-17.7041 -18.1854c0.00425197,-1.78583 0.318614,-3.68618 0.858048,-5.6914 -2.31591,0.324 -4.45862,0.76337 -6.4287,1.31811l5.57065 4.37329z"/>
  <path fill="white" d="M239.235 50.7745c-12.0147,6.30992 -13.4121,11.3352 -19.3762,11.0721 4.61339,-5.22851 14.1477,-8.3041 19.3762,-11.0721z"/>
  <path fill="white" d="M232.162 131.663c0.922678,2.97326 -7.99654,4.10088 -9.22678,7.99654 0.615118,-5.74101 5.84362,-8.40643 9.22678,-7.99654z"/>
  <g id="_47283528">
   <path id="_47320088" fill="none" stroke="#4F2900" stroke-width="2.26772" d="M201.406 70.1507c5.9074,1.38132 13.0453,-2.97865 21.4141,-13.0799 11.4744,-4.91244 20.9299,-11.7003 21.6442,-17.3684"/>
   <path id="_47319120" fill="none" stroke="#4F2900" stroke-width="2.26772" d="M196.792 97.2159c9.42577,-2.20422 17.7239,-7.79188 25.5096,-14.9185 7.79556,-1.79462 14.4635,-6.97352 20.6192,-13.6911 6.1047,-2.91543 11.5427,-6.49701 16.0081,-11.0534 4.40504,-4.05326 8.80952,-8.36306 13.2151,-13.2372"/>
   <path id="_47318416" fill="none" stroke="#4F2900" stroke-width="2.26772" d="M200.791 124.281c9.13692,-3.57506 16.3261,-9.58508 22.1825,-17.2616 8.4909,-1.32945 15.0344,-7.0424 20.2453,-15.7541 6.18889,-2.71956 11.9673,-6.66907 17.3364,-11.8497 6.30482,-3.45345 11.9435,-7.90696 16.6088,-13.822 7.86104,-0.941386 12.4413,-4.75342 13.7418,-11.4361"/>
   <path id="_48327696" fill="none" stroke="#4F2900" stroke-width="2.26772" d="M212.17 146.733c5.22029,-4.18961 10.0304,-9.19928 14.4309,-15.0296 8.20233,-0.224788 14.7385,-4.44784 18.8408,-14.5157 6.31928,-3.47216 11.8185,-8.58473 16.4979,-15.3377 5.47654,-2.6881 9.82489,-7.06904 13.6607,-12.219 9.81752,-5.57037 19.1222,-11.1407 27.2996,-16.7122"/>
   <path id="_48326896" fill="none" stroke="#4F2900" stroke-width="2.26772" d="M222.32 165.802c4.1281,-3.34885 7.84574,-7.92822 11.1541,-13.7381 6.01087,-2.06561 11.0225,-5.46435 14.5732,-10.8111 6.04233,-3.47471 11.3414,-8.43563 15.7442,-15.1917 15.7314,-4.64882 16.7,-16.0642 24.1277,-16.7151 4.24233,-2.80488 7.66489,-6.43011 10.2674,-10.8757l9.63497 -1.56161"/>
   <path id="_48325792" fill="none" stroke="#4F2900" stroke-width="2.26772" d="M237.698 179.334c4.97679,-5.28803 9.0309,-12.4217 14.9307,-15.8647 7.14643,-2.50328 12.2426,-6.64696 15.2884,-12.4316 6.37626,-3.94611 11.1124,-9.53263 14.209,-16.7596 5.69424,-0.974268 10.9786,-4.40901 15.8536,-10.3048"/>
   <path id="_47292368" fill="none" stroke="#4F2900" stroke-width="2.26772" d="M302.537 73.7901c-9.01078,1.20132 -16.8494,-1.50576 -23.4003,-8.50649 -7.19689,-0.269291 -13.83,-3.35906 -20.2073,-7.73065 -6.69969,-2.36948 -13.3223,-5.86772 -20.0228,-9.8796"/>
   <path id="_48541104" fill="none" stroke="#4F2900" stroke-width="2.26772" d="M307.639 97.2545c-10.3207,1.04797 -20.897,-0.467433 -32.0389,-7.6235 -5.21348,-1.98539 -10.427,-5.20129 -15.6404,-9.648 -6.60218,-2.40775 -12.0767,-6.50722 -17.0391,-11.3766 -8.23805,-1.92274 -15.1435,-5.51169 -20.1013,-11.5356"/>
   <path id="_47298696" fill="none" stroke="#4F2900" stroke-width="2.26772" d="M297.979 123.974c-4.12186,-3.43899 -8.24429,-8.10794 -12.367,-14.008 -6.30142,3.65131 -14.0899,1.35666 -23.6724,-8.11559 -6.67588,-2.22038 -12.865,-5.90259 -18.7214,-10.5846 -7.52599,-2.24986 -12.2839,-4.80728 -18.8875,-9.51789 -8.23947,-1.27814 -15.6589,-5.01733 -22.2582,-11.2173"/>
   <path id="_47286488" fill="none" stroke="#4F2900" stroke-width="2.26772" d="M286.855 141.12c-2.80658,-1.87002 -4.38293,-4.15021 -4.72961,-6.84114 -6.52167,-1.09871 -12.6329,-3.83755 -18.3345,-8.21764 -7.19292,-1.52221 -13.6168,-4.06914 -18.3492,-8.87301 -8.59692,-1.95676 -15.1438,-5.55392 -19.6404,-10.7915 -7.93333,1.07461 -15.8672,-1.18261 -23.8014,-10.7728"/>
   <path id="_47285632" fill="none" stroke="#4F2900" stroke-width="2.26772" d="M276.239 160.336c-2.77399,-3.09912 -4.62558,-6.81364 -8.32252,-9.29793 -7.2995,-2.24816 -13.9839,-4.80388 -20.0531,-9.51279 -5.33027,-3.53339 -12.1983,-6.14438 -15.9911,-10.6007 -9.21175,0.028063 -17.2959,-3.89197 -24.8672,-9.60719"/>
   <path id="_47283648" fill="none" stroke="#4F2900" stroke-width="2.26772" d="M264.717 178.406c-4.64485,-8.97704 -4.67632,-12.7256 -12.0892,-14.9363 -12.5359,-4.21172 -18.9204,-6.78331 -19.1546,-11.4061 -5.1772,-3.23887 -14.3527,-3.09487 -18.2999,-7.87181"/>
  </g>
  <path fill="#4F2900" d="M287.215 122.436c-2.87093,3.69071 -6.15175,4.92095 -9.84189,3.69071 3.5881,3.99827 7.17619,2.15291 9.84189,-3.69071z"/>
  <path fill="#4F2900" d="M307.206 112.286c-2.87093,3.69071 -6.15175,4.92095 -9.84189,3.69071 3.5881,3.99827 7.17619,2.15291 9.84189,-3.69071z"/>
  <path fill="#4F2900" d="M304.438 87.374c-2.87093,3.69071 -6.15175,4.92095 -9.84189,3.69071 3.5881,3.99827 7.17619,2.15291 9.84189,-3.69071z"/>
  <path fill="#4F2900" d="M284.447 99.6764c-2.87093,3.69071 -6.15175,4.92095 -9.84189,3.69071 3.5881,3.99827 7.17619,2.15291 9.84189,-3.69071z"/>
  <path fill="#4F2900" d="M269.376 114.439c-2.87093,3.69071 -6.15175,4.92095 -9.84189,3.69071 3.5881,3.99827 7.17619,2.15291 9.84189,-3.69071z"/>
  <path fill="#4F2900" d="M265.993 90.1421c-2.87093,3.69071 -6.15175,4.92095 -9.84189,3.69071 3.5881,3.99827 7.17619,2.15291 9.84189,-3.69071z"/>
  <path fill="#4F2900" d="M284.447 76.6095c-2.87093,3.69071 -6.15175,4.92095 -9.84189,3.69071 3.5881,3.99827 7.17619,2.15291 9.84189,-3.69071z"/>
  <path fill="#4F2900" d="M253.691 129.817c-2.87093,3.69071 -6.15175,4.92095 -9.84189,3.69071 3.5881,3.99827 7.17619,2.15291 9.84189,-3.69071z"/>
  <path fill="#4F2900" d="M249.385 104.29c-2.87093,3.69071 -6.15175,4.92095 -9.84189,3.69071 3.5881,3.99827 7.17619,2.15291 9.84189,-3.69071z"/>
  <path fill="#4F2900" d="M248.77 79.9926c-2.87093,3.69071 -6.15175,4.92095 -9.84189,3.69071 3.5881,3.99827 7.17619,2.15291 9.84189,-3.69071z"/>
  <path fill="#4F2900" d="M266.608 67.6902c-2.87093,3.69071 -6.15175,4.92095 -9.84189,3.69071 3.5881,3.99827 7.17619,2.15291 9.84189,-3.69071z"/>
  <path fill="#4F2900" d="M281.679 54.1576c-2.87093,3.69071 -6.15175,4.92095 -9.84189,3.69071 3.5881,3.99827 7.17619,2.15291 9.84189,-3.69071z"/>
  <path fill="#4F2900" d="M255.844 151.346c-2.87093,3.69071 -6.15175,4.92095 -9.84189,3.69071 3.5881,3.99827 7.17619,2.15291 9.84189,-3.69071z"/>
  <path fill="#4F2900" d="M248.155 56.9257c-2.87093,3.69071 -6.15175,4.92095 -9.84189,3.69071 3.5881,3.99827 7.17619,2.15291 9.84189,-3.69071z"/>
  <path fill="#4F2900" d="M229.394 70.7658c-2.87093,3.69071 -6.15175,4.92095 -9.84189,3.69071 3.5881,3.99827 7.17619,2.15291 9.84189,-3.69071z"/>
  <path fill="#4F2900" d="M231.239 95.9857c-2.87093,3.69071 -6.15175,4.92095 -9.84189,3.69071 3.5881,3.99827 7.17619,2.15291 9.84189,-3.69071z"/>
  <path fill="#4F2900" d="M234.622 120.283c-2.87093,3.69071 -6.15175,4.92095 -9.84189,3.69071 3.5881,3.99827 7.17619,2.15291 9.84189,-3.69071z"/>
  <path fill="#4F2900" d="M254.921 173.491c3.23008,5.17748 1.38444,9.79115 -2.76803,14.1477 5.22851,-2.87036 6.7663,-5.12589 2.76803,-14.1477z"/>
  <path fill="#4F2900" d="M270.299 158.42c3.23008,5.17748 1.38444,9.79115 -2.76803,14.1477 5.22851,-2.87036 6.7663,-5.12589 2.76803,-14.1477z"/>
  <path fill="#4F2900" d="M281.986 143.35c3.23008,5.17748 1.38444,9.79115 -2.76803,14.1477 5.22851,-2.87036 6.7663,-5.12589 2.76803,-14.1477z"/>
  <path fill="#4F2900" d="M235.545 161.188c3.23008,5.17748 1.38444,9.79115 -2.76803,14.1477 5.22851,-2.87036 6.7663,-5.12589 2.76803,-14.1477z"/>
  <path fill="#4F2900" d="M202.021 89.5269c2.38536,-2.75443 5.20781,-5.28945 5.84362,-8.91922l1.84536 1.84536c-1.25121,3.01493 -4.68907,4.93512 -7.68898,7.07386z"/>
  <path fill="#4F2900" d="M203.251 115.977c2.38536,-2.75443 5.20781,-5.28945 5.84362,-8.91922l1.84536 1.84536c-1.25121,3.01493 -4.68907,4.93512 -7.68898,7.07386z"/>
  <path fill="#4F2900" d="M210.632 140.274c2.38536,-2.75443 5.20781,-5.28945 5.84362,-8.91922l1.84536 1.84536c-1.25121,3.01493 -4.68907,4.93512 -7.68898,7.07386z"/>
  <path fill="#4F2900" d="M217.706 161.496c2.38536,-2.75443 5.20781,-5.28945 5.84362,-8.91922l1.84536 1.84536c-1.25121,3.01493 -4.68907,4.93512 -7.68898,7.07386z"/>
  <path fill="#4F2900" d="M229.701 143.965c4.51446,-1.44595 6.01909,-1.63021 7.99654,-3.99827 -1.2515,6.29575 -4.99692,2.95314 -7.99654,3.99827z"/>
  <path fill="#4F2900" d="M263.84 140.889c4.51446,-1.44595 6.01909,-1.63021 7.99654,-3.99827 -1.2515,6.29575 -4.99692,2.95314 -7.99654,3.99827z"/>
  <path fill="#4F2900" d="M226.01 48.6216c4.51446,-1.44595 6.01909,-1.63021 7.99654,-3.99827 -1.2515,6.29575 -4.99692,2.95314 -7.99654,3.99827z"/>
  <path fill="#4F2900" d="M294.289 59.6937c3.07531,1.74274 4.10032,4.30555 3.07559,7.68898l3.38315 -2.15291c-1.84649,-5.84873 -4.82088,-5.74951 -6.45874,-5.53607z"/>
  <path fill="#4F2900" d="M295.519 131.663l-0.307559 7.38142 -2.76803 0c1.84564,-1.64041 2.87121,-4.10088 3.07559,-7.38142z"/>
  <path fill="#4F2900" d="M259.534 42.1628c1.53751,3.79332 0.614835,6.3567 -2.76803,7.68898 4.31915,-0.401386 7.50586,-1.52306 2.76803,-7.68898z"/>
  <path fill="#4F2900" d="M264.455 23.7093c-3.89594,2.1532 -6.15175,5.12618 -6.7663,8.91922 -1.43547,-5.02328 0.81978,-7.99626 6.7663,-8.91922z"/>
  <path fill="#BF9F4F" stroke="black" stroke-width="0.216" d="M394.659 173.208c1.33767,8.25109 6.24331,13.826 14.7175,16.7244 4.62104,-3.42964 8.90873,-8.52492 12.7106,-16.0554 8.21339,-2.56025 14.0533,-4.76362 11.5217,-18.07 10.0998,2.61638 13.6383,-3.78879 10.616,-19.2164 12.1068,4.48214 15.6016,-1.28806 10.4856,-17.3103 14.5817,-0.00878741 19.501,-7.68104 10.2986,-26.5547 9.4252,-4.95014 10.9029,-11.9506 -5.10265,-23.4644 3.1697,-13.108 -0.632126,-19.245 -11.4044,-18.4107 -5.65767,-3.95518 -6.23934,-9.29509 -4.51276,-15.7124 -6.17585,0.864 -11.1209,2.54835 -14.8354,5.05191 -5.65966,-0.858331 -8.85884,-5.40737 -13.2883,-8.11106 3.25332,-4.52721 8.35229,-7.82419 12.221,-12.659 -3.09402,-3.92684 -8.03339,-6.62372 -12.0498,-9.93572 -5.99471,4.14851 -10.2971,13.9363 -13.8297,26.2877 -19.7632,-3.91238 -25.2763,-1.67414 -26.9952,10.0981 -14.4924,0.285732 -20.141,6.7235 -15.7697,20.1314 -14.7291,6.73484 -16.3358,15.52 -4.82032,26.3548 -11.5787,13.5884 -9.03487,22.3064 3.17112,27.692 -5.66419,13.1349 -2.40888,21.0671 11.611,22.7188 -2.9812,12.6573 -0.91389,19.6506 10.0483,18.3643 1.47969,11.5628 5.52274,17.7423 15.2067,12.0767z"/>
  <path fill="white" d="M443.662 109.295c-14.7881,5.1463 -32.063,22.5252 -52.5926,40.9054 21.4274,-9.53802 34.7556,-30.4537 52.5926,-40.9054z"/>
  <path fill="white" d="M443.662 55.1651c-22.5992,18.9218 -39.3789,26.3376 -57.5136,48.2868 6.99506,-3.62977 12.6332,-8.28964 18.7461,-14.514 4.81692,-3.79559 9.82205,-6.86835 14.2002,-12.2485 9.55304,-5.37874 17.2296,-13.9558 24.5673,-21.5243z"/>
  <path fill="white" d="M453.811 75.7715c-15.2909,6.02929 -32.768,17.1958 -49.2095,37.8298 7.71506,-2.11436 12.509,-9.61059 17.0521,-13.9198 4.41468,-2.3023 9.65141,-7.38085 14.6262,-12.9192 5.19449,-3.15695 11.0548,-7.24564 17.5312,-10.9908z"/>
  <path fill="white" d="M421.518 49.629c-3.58838,8.81689 -17.3259,13.9428 -26.4501,22.4518 4.55159,-9.81582 15.5251,-13.1474 26.4501,-22.4518z"/>
  <path fill="white" d="M400.604 40.4022l6.15118 -3.38315c-0.052441,-7.02199 3.84321,-14.6084 9.53434,-22.4518 3.94611,0.656221 7.17166,3.47358 10.2952,6.59934 0.516189,-0.561827 1.01906,-1.14208 1.50265,-1.74643 -3.09402,-3.92684 -8.03339,-6.62372 -12.0498,-9.93572 -5.99471,4.14851 -10.2971,13.9363 -13.8297,26.2877 -15.4398,-3.05632 -22.1822,-2.35871 -25.2131,3.70602 9.09978,-0.614551 17.2772,3.07673 23.6092,0.924095zm-25.3914 5.46803c-9.9635,0.196441 -15.7467,3.30095 -16.9679,9.57856 6.94318,0.623055 13.5791,-4.28995 19.9074,-2.74422l-2.93953 -6.83433zm-27.5411 36.9292c-2.27821,-6.56844 1.64523,-12.1677 11.7714,-16.7978l9.79002 -0.072c-9.80108,4.3166 -16.6805,10.0939 -21.5615,16.8698zm4.30498 33.8582c-6.84567,-5.43544 -6.76148,-13.2608 2.64614,-24.3011l18.6086 -6.4355c-18.9261,10.0148 -22.0125,13.9558 -21.2548,30.7366zm3.65953 17.5527c-1.09077,-3.66492 -0.320315,-8.4155 2.15773,-14.1619l20.3584 -11.0605c-9.14627,6.35726 -17.881,10.459 -22.5162,25.2224zm16.0282 25.7814c-3.97219,-2.49761 -4.30895,-8.52265 -2.2595,-17.2244 3.5212,4.20378 1.50633,11.4832 2.2595,17.2244zm14.3184 14.9341c-3.67881,-1.44312 -5.60495,-6.56759 -6.52961,-13.7942 2.484,0.599811 3.73777,9.50372 6.52961,13.7942zm14.3212 9.66586c-3.0104,-2.94747 -4.89175,-6.74221 -5.64407,-11.3834 4.04249,4.10344 7.3647,8.10369 5.64407,11.3834zm60.5322 -125.577c-0.612,-4.51219 -3.07786,-7.17109 -7.39673,-7.97641l7.39673 7.97641zm-17.7041 -18.1854c0.00425197,-1.78583 0.318614,-3.68618 0.858048,-5.6914 -2.31591,0.324 -4.45862,0.76337 -6.4287,1.31811l5.57065 4.37329z"/>
  <path fill="white" d="M396.605 46.2459c-12.0147,6.30992 -13.4121,11.3352 -19.3762,11.0721 4.61339,-5.22851 14.1477,-8.3041 19.3762,-11.0721z"/>
  <path fill="white" d="M389.532 127.134c0.922678,2.97326 -7.99654,4.10088 -9.22678,7.99654 0.615118,-5.74101 5.84362,-8.40643 9.22678,-7.99654z"/>
  <g id="_48914024">
   <path id="_48265888" fill="none" stroke="#4F2900" stroke-width="2.26772" d="M358.776 65.6221c5.9074,1.38132 13.0453,-2.97865 21.4141,-13.0799 11.4744,-4.91244 20.9299,-11.7003 21.6442,-17.3684"/>
   <path id="_48265032" fill="none" stroke="#4F2900" stroke-width="2.26772" d="M354.162 92.6873c9.42577,-2.20422 17.7239,-7.79188 25.5096,-14.9185 7.79556,-1.79462 14.4635,-6.97352 20.6192,-13.6911 6.1047,-2.91543 11.5427,-6.49701 16.0081,-11.0534 4.40504,-4.05326 8.80952,-8.36306 13.2151,-13.2372"/>
   <path id="_48264312" fill="none" stroke="#4F2900" stroke-width="2.26772" d="M358.16 119.753c9.13692,-3.57506 16.3261,-9.58508 22.1825,-17.2616 8.4909,-1.32945 15.0344,-7.0424 20.2453,-15.7541 6.18889,-2.71956 11.9673,-6.66907 17.3364,-11.8497 6.30482,-3.45345 11.9435,-7.90696 16.6088,-13.822 7.86104,-0.941386 12.4413,-4.75342 13.7418,-11.4361"/>
   <path id="_48263592" fill="none" stroke="#4F2900" stroke-width="2.26772" d="M369.54 142.204c5.22029,-4.18961 10.0304,-9.19928 14.4309,-15.0296 8.20233,-0.224788 14.7385,-4.44784 18.8408,-14.5157 6.31928,-3.47216 11.8185,-8.58473 16.4979,-15.3377 5.47654,-2.6881 9.82489,-7.06904 13.6607,-12.219 9.81752,-5.57037 19.1222,-11.1407 27.2996,-16.7122"/>
   <path id="_48262048" fill="none" stroke="#4F2900" stroke-width="2.26772" d="M379.69 161.273c4.1281,-3.34885 7.84574,-7.92822 11.1541,-13.7381 6.01087,-2.06561 11.0225,-5.46435 14.5732,-10.8111 6.04233,-3.47471 11.3414,-8.43563 15.7442,-15.1917 15.7314,-4.64882 16.7,-16.0642 24.1277,-16.7151 4.24233,-2.80488 7.66489,-6.43011 10.2674,-10.8757l9.63497 -1.56161"/>
   <path id="_48261080" fill="none" stroke="#4F2900" stroke-width="2.26772" d="M395.068 174.806c4.97679,-5.28803 9.0309,-12.4217 14.9307,-15.8647 7.14643,-2.50328 12.2426,-6.64696 15.2884,-12.4316 6.37626,-3.94611 11.1124,-9.53263 14.209,-16.7596 5.69424,-0.974268 10.9786,-4.40901 15.8536,-10.3048"/>
   <path id="_48260144" fill="none" stroke="#4F2900" stroke-width="2.26772" d="M459.907 69.2615c-9.01078,1.20132 -16.8494,-1.50576 -23.4003,-8.50649 -7.19689,-0.269291 -13.83,-3.35906 -20.2073,-7.73065 -6.69969,-2.36948 -13.3223,-5.86772 -20.0228,-9.8796"/>
   <path id="_48259424" fill="none" stroke="#4F2900" stroke-width="2.26772" d="M465.009 92.7258c-10.3207,1.04797 -20.897,-0.467433 -32.0389,-7.6235 -5.21348,-1.98539 -10.427,-5.20129 -15.6404,-9.648 -6.60218,-2.40775 -12.0767,-6.50722 -17.0391,-11.3766 -8.23805,-1.92274 -15.1435,-5.51169 -20.1013,-11.5356"/>
   <path id="_48258432" fill="none" stroke="#4F2900" stroke-width="2.26772" d="M455.349 119.445c-4.12186,-3.43899 -8.24429,-8.10794 -12.367,-14.008 -6.30142,3.65131 -14.0899,1.35666 -23.6724,-8.11559 -6.67588,-2.22038 -12.865,-5.90259 -18.7214,-10.5846 -7.52599,-2.24986 -12.2839,-4.80728 -18.8875,-9.51789 -8.23947,-1.27814 -15.6589,-5.01733 -22.2582,-11.2173"/>
   <path id="_48257184" fill="none" stroke="#4F2900" stroke-width="2.26772" d="M444.225 136.591c-2.80658,-1.87002 -4.38293,-4.15021 -4.72961,-6.84114 -6.52167,-1.09871 -12.6329,-3.83755 -18.3345,-8.21764 -7.19292,-1.52221 -13.6168,-4.06914 -18.3492,-8.87301 -8.59692,-1.95676 -15.1438,-5.55392 -19.6404,-10.7915 -7.93333,1.07461 -15.8672,-1.18261 -23.8014,-10.7728"/>
   <path id="_48914368" fill="none" stroke="#4F2900" stroke-width="2.26772" d="M433.609 155.807c-2.77399,-3.09912 -4.62558,-6.81364 -8.32252,-9.29793 -7.2995,-2.24816 -13.9839,-4.80388 -20.0531,-9.51279 -5.33027,-3.53339 -12.1983,-6.14438 -15.9911,-10.6007 -9.21175,0.028063 -17.2959,-3.89197 -24.8672,-9.60719"/>
   <path id="_48914064" fill="none" stroke="#4F2900" stroke-width="2.26772" d="M422.087 173.877c-4.64485,-8.97704 -4.67632,-12.7256 -12.0892,-14.9363 -12.5359,-4.21172 -18.9204,-6.78331 -19.1546,-11.4061 -5.1772,-3.23887 -14.3527,-3.09487 -18.2999,-7.87181"/>
  </g>
  <path fill="#4F2900" d="M444.585 117.907c-2.87093,3.69071 -6.15175,4.92095 -9.84189,3.69071 3.5881,3.99827 7.17619,2.15291 9.84189,-3.69071z"/>
  <path fill="#4F2900" d="M464.576 107.758c-2.87093,3.69071 -6.15175,4.92095 -9.84189,3.69071 3.5881,3.99827 7.17619,2.15291 9.84189,-3.69071z"/>
  <path fill="#4F2900" d="M461.808 82.8454c-2.87093,3.69071 -6.15175,4.92095 -9.84189,3.69071 3.5881,3.99827 7.17619,2.15291 9.84189,-3.69071z"/>
  <path fill="#4F2900" d="M441.817 95.1478c-2.87093,3.69071 -6.15175,4.92095 -9.84189,3.69071 3.5881,3.99827 7.17619,2.15291 9.84189,-3.69071z"/>
  <path fill="#4F2900" d="M426.746 109.911c-2.87093,3.69071 -6.15175,4.92095 -9.84189,3.69071 3.5881,3.99827 7.17619,2.15291 9.84189,-3.69071z"/>
  <path fill="#4F2900" d="M423.363 85.6134c-2.87093,3.69071 -6.15175,4.92095 -9.84189,3.69071 3.5881,3.99827 7.17619,2.15291 9.84189,-3.69071z"/>
  <path fill="#4F2900" d="M441.817 72.0808c-2.87093,3.69071 -6.15175,4.92095 -9.84189,3.69071 3.5881,3.99827 7.17619,2.15291 9.84189,-3.69071z"/>
  <path fill="#4F2900" d="M411.061 125.289c-2.87093,3.69071 -6.15175,4.92095 -9.84189,3.69071 3.5881,3.99827 7.17619,2.15291 9.84189,-3.69071z"/>
  <path fill="#4F2900" d="M406.755 99.7612c-2.87093,3.69071 -6.15175,4.92095 -9.84189,3.69071 3.5881,3.99827 7.17619,2.15291 9.84189,-3.69071z"/>
  <path fill="#4F2900" d="M406.14 75.464c-2.87093,3.69071 -6.15175,4.92095 -9.84189,3.69071 3.5881,3.99827 7.17619,2.15291 9.84189,-3.69071z"/>
  <path fill="#4F2900" d="M423.978 63.1616c-2.87093,3.69071 -6.15175,4.92095 -9.84189,3.69071 3.5881,3.99827 7.17619,2.15291 9.84189,-3.69071z"/>
  <path fill="#4F2900" d="M439.049 49.629c-2.87093,3.69071 -6.15175,4.92095 -9.84189,3.69071 3.5881,3.99827 7.17619,2.15291 9.84189,-3.69071z"/>
  <path fill="#4F2900" d="M413.214 146.818c-2.87093,3.69071 -6.15175,4.92095 -9.84189,3.69071 3.5881,3.99827 7.17619,2.15291 9.84189,-3.69071z"/>
  <path fill="#4F2900" d="M405.525 52.397c-2.87093,3.69071 -6.15175,4.92095 -9.84189,3.69071 3.5881,3.99827 7.17619,2.15291 9.84189,-3.69071z"/>
  <path fill="#4F2900" d="M386.764 66.2372c-2.87093,3.69071 -6.15175,4.92095 -9.84189,3.69071 3.5881,3.99827 7.17619,2.15291 9.84189,-3.69071z"/>
  <path fill="#4F2900" d="M388.609 91.4571c-2.87093,3.69071 -6.15175,4.92095 -9.84189,3.69071 3.5881,3.99827 7.17619,2.15291 9.84189,-3.69071z"/>
  <path fill="#4F2900" d="M391.992 115.754c-2.87093,3.69071 -6.15175,4.92095 -9.84189,3.69071 3.5881,3.99827 7.17619,2.15291 9.84189,-3.69071z"/>
  <path fill="#4F2900" d="M412.291 168.962c3.23008,5.17748 1.38444,9.79115 -2.76803,14.1477 5.22851,-2.87036 6.7663,-5.12589 2.76803,-14.1477z"/>
  <path fill="#4F2900" d="M427.669 153.892c3.23008,5.17748 1.38444,9.79115 -2.76803,14.1477 5.22851,-2.87036 6.7663,-5.12589 2.76803,-14.1477z"/>
  <path fill="#4F2900" d="M439.356 138.821c3.23008,5.17748 1.38444,9.79115 -2.76803,14.1477 5.22851,-2.87036 6.7663,-5.12589 2.76803,-14.1477z"/>
  <path fill="#4F2900" d="M392.915 156.66c3.23008,5.17748 1.38444,9.79115 -2.76803,14.1477 5.22851,-2.87036 6.7663,-5.12589 2.76803,-14.1477z"/>
  <path fill="#4F2900" d="M359.391 84.9983c2.38536,-2.75443 5.20781,-5.28945 5.84362,-8.91922l1.84536 1.84536c-1.25121,3.01493 -4.68907,4.93512 -7.68898,7.07386z"/>
  <path fill="#4F2900" d="M360.621 111.448c2.38536,-2.75443 5.20781,-5.28945 5.84362,-8.91922l1.84536 1.84536c-1.25121,3.01493 -4.68907,4.93512 -7.68898,7.07386z"/>
  <path fill="#4F2900" d="M368.002 135.746c2.38536,-2.75443 5.20781,-5.28945 5.84362,-8.91922l1.84536 1.84536c-1.25121,3.01493 -4.68907,4.93512 -7.68898,7.07386z"/>
  <path fill="#4F2900" d="M375.076 156.967c2.38536,-2.75443 5.20781,-5.28945 5.84362,-8.91922l1.84536 1.84536c-1.25121,3.01493 -4.68907,4.93512 -7.68898,7.07386z"/>
  <path fill="#4F2900" d="M387.071 139.436c4.51446,-1.44595 6.01909,-1.63021 7.99654,-3.99827 -1.2515,6.29575 -4.99692,2.95314 -7.99654,3.99827z"/>
  <path fill="#4F2900" d="M421.21 136.361c4.51446,-1.44595 6.01909,-1.63021 7.99654,-3.99827 -1.2515,6.29575 -4.99692,2.95314 -7.99654,3.99827z"/>
  <path fill="#4F2900" d="M383.38 44.0929c4.51446,-1.44595 6.01909,-1.63021 7.99654,-3.99827 -1.2515,6.29575 -4.99692,2.95314 -7.99654,3.99827z"/>
  <path fill="#4F2900" d="M451.658 55.1651c3.07531,1.74274 4.10032,4.30555 3.07559,7.68898l3.38315 -2.15291c-1.84649,-5.84873 -4.82088,-5.74951 -6.45874,-5.53607z"/>
  <path fill="#4F2900" d="M452.889 127.134l-0.307559 7.38142 -2.76803 0c1.84564,-1.64041 2.87121,-4.10088 3.07559,-7.38142z"/>
  <path fill="#4F2900" d="M416.904 37.6342c1.53751,3.79332 0.614835,6.3567 -2.76803,7.68898 4.31915,-0.401386 7.50586,-1.52306 2.76803,-7.68898z"/>
  <path fill="#4F2900" d="M421.825 19.1806c-3.89594,2.1532 -6.15175,5.12618 -6.7663,8.91922 -1.43547,-5.02328 0.81978,-7.99626 6.7663,-8.91922z"/>
  <path fill="#BF9F4F" stroke="black" stroke-width="0.216" d="M236.157 521.26c1.33767,8.01468 6.24331,13.43 14.7175,16.2454 4.62104,-3.33128 8.90873,-8.28085 12.7106,-15.5957 8.21339,-2.48684 14.0533,-4.62699 11.5217,-17.5524 10.0998,2.54154 13.6383,-3.68022 10.616,-18.6659 12.1068,4.35373 15.6016,-1.25121 10.4856,-16.8146 14.5817,-0.00850394 19.501,-7.46107 10.2986,-25.7942 9.4252,-4.80841 10.9029,-11.6082 -5.10265,-22.7923 3.1697,-12.7327 -0.632126,-18.6936 -11.4044,-17.8835 -5.65767,-3.8418 -6.23934,-9.02892 -4.51276,-15.2623 -6.17585,0.839339 -11.1209,2.47521 -14.8354,4.90706 -5.65966,-0.83367 -8.85884,-5.25232 -13.2883,-7.87862 3.25332,-4.39767 8.35229,-7.59997 12.221,-12.2964 -3.09402,-3.8143 -8.03339,-6.43408 -12.0498,-9.65112 -5.99471,4.02973 -10.2971,13.5371 -13.8297,25.5348 -19.7632,-3.80041 -25.2763,-1.62624 -26.9952,9.80873 -14.4924,0.277795 -20.141,6.53103 -15.7697,19.5548 -14.7291,6.54208 -16.3358,15.0755 -4.82032,25.6 -11.5787,13.1993 -9.03487,21.6675 3.17112,26.8988 -5.66419,12.7587 -2.40888,20.4639 11.611,22.0683 -2.9812,12.2947 -0.91389,19.0877 10.0483,17.8382 1.47969,11.2317 5.52274,17.2341 15.2067,11.7309z"/>
  <path fill="white" d="M285.16 459.178c-14.7881,4.9989 -32.063,21.8801 -52.5926,39.7338 21.4274,-9.26504 34.7556,-29.5815 52.5926,-39.7338z"/>
  <path fill="white" d="M285.16 406.598c-22.5992,18.3799 -39.3789,25.5833 -57.5136,46.9038 6.99506,-3.52573 12.6332,-8.0521 18.7461,-14.0981 4.81692,-3.68703 9.82205,-6.67163 14.2002,-11.8979 9.55304,-5.22454 17.2296,-13.5558 24.5673,-20.9078z"/>
  <path fill="white" d="M295.309 426.614c-15.2909,5.85666 -32.768,16.7034 -49.2095,36.7464 7.71506,-2.05399 12.509,-9.33534 17.0521,-13.5213 4.41468,-2.23625 9.65141,-7.16939 14.6262,-12.549 5.19449,-3.06652 11.0548,-7.03815 17.5312,-10.6761z"/>
  <path fill="white" d="M263.016 401.22c-3.58838,8.56432 -17.3259,13.5434 -26.4501,21.8086 4.55159,-9.53462 15.5251,-12.7707 26.4501,-21.8086z"/>
  <path fill="white" d="M242.102 392.258l6.15118 -3.28621c-0.052441,-6.82101 3.84321,-14.19 9.53434,-21.8089 3.94611,0.637512 7.17166,3.37408 10.2952,6.41055 0.516189,-0.545953 1.01906,-1.10948 1.50265,-1.69654 -3.09402,-3.8143 -8.03339,-6.43408 -12.0498,-9.65112 -5.99471,4.02973 -10.2971,13.5371 -13.8297,25.5348 -15.4398,-2.96873 -22.1822,-2.29125 -25.2131,3.59972 9.09978,-0.596977 17.2772,2.98857 23.6092,0.897733zm-25.3914 5.31128c-9.9635,0.191055 -15.7467,3.20655 -16.9679,9.30445 6.94318,0.605197 13.5791,-4.16721 19.9074,-2.6657l-2.93953 -6.63874zm-27.5411 35.8716c-2.27821,-6.38022 1.64523,-11.8193 11.7714,-16.3168l9.79002 -0.0697323c-9.80108,4.19273 -16.6805,9.80476 -21.5615,16.3865zm4.30498 32.8884c-6.84567,-5.27981 -6.76148,-12.8809 2.64614,-23.6052l18.6086 -6.25096c-18.9261,9.72794 -22.0125,13.5558 -21.2548,29.8562zm3.65953 17.0498c-1.09077,-3.55975 -0.320315,-8.17427 2.15773,-13.7563l20.3584 -10.7436c-9.14627,6.17528 -17.881,10.1594 -22.5162,24.4999zm16.0282 25.043c-3.97219,-2.42589 -4.30895,-8.27859 -2.2595,-16.7309 3.5212,4.08331 1.50633,11.1541 2.2595,16.7309zm14.3184 14.5063c-3.67881,-1.40173 -5.60495,-6.37937 -6.52961,-13.3991 2.484,0.582803 3.73777,9.2316 6.52961,13.3991zm14.3212 9.3892c-3.0104,-2.86328 -4.89175,-6.54917 -5.64407,-11.0574 4.04249,3.9858 7.3647,7.87153 5.64407,11.0574zm60.5322 -121.98c-0.612,-4.38293 -3.07786,-6.96558 -7.39673,-7.74794l7.39673 7.74794zm-17.7041 -17.6644c0.00425197,-1.7348 0.318614,-3.58073 0.858048,-5.52841 -2.31591,0.314646 -4.45862,0.741544 -6.4287,1.28041l5.57065 4.248z"/>
  <path fill="white" d="M238.103 397.934c-12.0147,6.12907 -13.4121,11.0103 -19.3762,10.7549 4.61339,-5.07884 14.1477,-8.06627 19.3762,-10.7549z"/>
  <path fill="white" d="M231.029 476.505c0.922678,2.88822 -7.99654,3.98353 -9.22678,7.7675 0.615118,-5.5766 5.84362,-8.16548 9.22678,-7.7675z"/>
  <g id="_47889680">
   <path id="_47822232" fill="none" stroke="#4F2900" stroke-width="2.26772" d="M200.273 416.755c5.9074,1.34164 13.0453,-2.89332 21.4141,-12.7055 11.4744,-4.77156 20.9299,-11.365 21.6442,-16.871"/>
   <path id="_47298480" fill="none" stroke="#4F2900" stroke-width="2.26772" d="M195.66 443.045c9.42577,-2.14101 17.7239,-7.56879 25.5096,-14.4913 7.79556,-1.74302 14.4635,-6.77367 20.6192,-13.2987 6.1047,-2.8321 11.5427,-6.31106 16.0081,-10.7368 4.40504,-3.93732 8.80952,-8.12353 13.2151,-12.8582"/>
   <path id="_47297760" fill="none" stroke="#4F2900" stroke-width="2.26772" d="M199.658 469.335c9.13692,-3.47273 16.3261,-9.3104 22.1825,-16.7672 8.4909,-1.29118 15.0344,-6.84057 20.2453,-15.3028 6.18889,-2.64161 11.9673,-6.47802 17.3364,-11.5101 6.30482,-3.3548 11.9435,-7.68076 16.6088,-13.4263 7.86104,-0.914457 12.4413,-4.61736 13.7418,-11.1084"/>
   <path id="_47009912" fill="none" stroke="#4F2900" stroke-width="2.26772" d="M211.038 491.144c5.22029,-4.0697 10.0304,-8.93594 14.4309,-14.5993 8.20233,-0.218268 14.7385,-4.32029 18.8408,-14.0998 6.31928,-3.37266 11.8185,-8.33896 16.4979,-14.8983 5.47654,-2.61128 9.82489,-6.86665 13.6607,-11.8692 9.81752,-5.41077 19.1222,-10.8215 27.2996,-16.2335"/>
   <path id="_47368816" fill="none" stroke="#4F2900" stroke-width="2.26772" d="M221.188 509.666c4.1281,-3.25304 7.84574,-7.70117 11.1541,-13.3447 6.01087,-2.00636 11.0225,-5.30788 14.5732,-10.5015 6.04233,-3.37521 11.3414,-8.19383 15.7442,-14.7566 15.7314,-4.51559 16.7,-15.6039 24.1277,-16.2363 4.24233,-2.72438 7.66489,-6.24586 10.2674,-10.5642l9.63497 -1.51682"/>
   <path id="_47368432" fill="none" stroke="#4F2900" stroke-width="2.26772" d="M236.565 522.811c4.97679,-5.13638 9.0309,-12.0657 14.9307,-15.4103 7.14643,-2.43156 12.2426,-6.45648 15.2884,-12.0753 6.37626,-3.83329 11.1124,-9.25966 14.209,-16.2797 5.69424,-0.946489 10.9786,-4.28258 15.8536,-10.0097"/>
   <path id="_47950768" fill="none" stroke="#4F2900" stroke-width="2.26772" d="M301.405 420.29c-9.01078,1.16702 -16.8494,-1.46268 -23.4003,-8.263 -7.19689,-0.261354 -13.83,-3.26268 -20.2073,-7.50898 -6.69969,-2.30173 -13.3223,-5.69991 -20.0228,-9.5967"/>
   <path id="_47982000" fill="none" stroke="#4F2900" stroke-width="2.26772" d="M306.507 443.083c-10.3207,1.01792 -20.897,-0.45411 -32.0389,-7.40523 -5.21348,-1.92841 -10.427,-5.05219 -15.6404,-9.37163 -6.60218,-2.33887 -12.0767,-6.3207 -17.0391,-11.0506 -8.23805,-1.86775 -15.1435,-5.3538 -20.1013,-11.2054"/>
   <path id="_47971640" fill="none" stroke="#4F2900" stroke-width="2.26772" d="M296.847 469.036c-4.12186,-3.34035 -8.24429,-7.8755 -12.367,-13.6066 -6.30142,3.54671 -14.0899,1.31783 -23.6724,-7.88315 -6.67588,-2.15688 -12.865,-5.73364 -18.7214,-10.2815 -7.52599,-2.18523 -12.2839,-4.66951 -18.8875,-9.2452 -8.23947,-1.24158 -15.6589,-4.87361 -22.2582,-10.8961"/>
   <path id="_47971568" fill="none" stroke="#4F2900" stroke-width="2.26772" d="M285.723 485.691c-2.80658,-1.81644 -4.38293,-4.03144 -4.72961,-6.64526 -6.52167,-1.06724 -12.6329,-3.72756 -18.3345,-7.98237 -7.19292,-1.47855 -13.6168,-3.95235 -18.3492,-8.61874 -8.59692,-1.90063 -15.1438,-5.3949 -19.6404,-10.4825 -7.93333,1.044 -15.8672,-1.1486 -23.8014,-10.4641"/>
   <path id="_47943240" fill="none" stroke="#4F2900" stroke-width="2.26772" d="M275.107 504.357c-2.77399,-3.0104 -4.62558,-6.61833 -8.32252,-9.03147 -7.2995,-2.18381 -13.9839,-4.6664 -20.0531,-9.24038 -5.33027,-3.43219 -12.1983,-5.96835 -15.9911,-10.2971 -9.21175,0.0272126 -17.2959,-3.78057 -24.8672,-9.33194"/>
   <path id="_47889720" fill="none" stroke="#4F2900" stroke-width="2.26772" d="M263.585 521.91c-4.64485,-8.71994 -4.67632,-12.361 -12.0892,-14.5086 -12.5359,-4.09096 -18.9204,-6.58885 -19.1546,-11.0792 -5.1772,-3.14617 -14.3527,-3.00614 -18.2999,-7.64646"/>
  </g>
  <path fill="#4F2900" d="M286.083 467.543c-2.87093,3.58498 -6.15175,4.77978 -9.84189,3.58498 3.5881,3.88375 7.17619,2.09112 9.84189,-3.58498z"/>
  <path fill="#4F2900" d="M306.074 457.684c-2.87093,3.58498 -6.15175,4.78007 -9.84189,3.58498 3.5881,3.88375 7.17619,2.0914 9.84189,-3.58498z"/>
  <path fill="#4F2900" d="M303.306 433.485c-2.87093,3.58498 -6.15175,4.78007 -9.84189,3.58498 3.5881,3.88375 7.17619,2.0914 9.84189,-3.58498z"/>
  <path fill="#4F2900" d="M283.314 445.435c-2.87093,3.58498 -6.15175,4.78007 -9.84189,3.58498 3.5881,3.88375 7.17619,2.0914 9.84189,-3.58498z"/>
  <path fill="#4F2900" d="M268.244 459.775c-2.87093,3.58498 -6.15175,4.77978 -9.84189,3.58498 3.5881,3.88375 7.17619,2.09112 9.84189,-3.58498z"/>
  <path fill="#4F2900" d="M264.861 436.174c-2.87093,3.58498 -6.15175,4.77978 -9.84189,3.58498 3.5881,3.88375 7.17619,2.09112 9.84189,-3.58498z"/>
  <path fill="#4F2900" d="M283.314 423.029c-2.87093,3.58498 -6.15175,4.78007 -9.84189,3.58498 3.5881,3.88375 7.17619,2.0914 9.84189,-3.58498z"/>
  <path fill="#4F2900" d="M252.559 474.713c-2.87093,3.58498 -6.15175,4.78007 -9.84189,3.58498 3.5881,3.88375 7.17619,2.09112 9.84189,-3.58498z"/>
  <path fill="#4F2900" d="M248.253 449.916c-2.87093,3.58498 -6.15175,4.78007 -9.84189,3.58498 3.5881,3.88375 7.17619,2.0914 9.84189,-3.58498z"/>
  <path fill="#4F2900" d="M247.638 426.315c-2.87093,3.58498 -6.15175,4.78007 -9.84189,3.58498 3.5881,3.88375 7.17619,2.0914 9.84189,-3.58498z"/>
  <path fill="#4F2900" d="M265.476 414.365c-2.87093,3.58498 -6.15175,4.78007 -9.84189,3.58498 3.5881,3.88375 7.17619,2.0914 9.84189,-3.58498z"/>
  <path fill="#4F2900" d="M280.546 401.22c-2.87093,3.58498 -6.15175,4.77978 -9.84189,3.58498 3.5881,3.88375 7.17619,2.09112 9.84189,-3.58498z"/>
  <path fill="#4F2900" d="M254.711 495.625c-2.87093,3.58526 -6.15175,4.78007 -9.84189,3.58526 3.5881,3.88375 7.17619,2.09112 9.84189,-3.58526z"/>
  <path fill="#4F2900" d="M247.022 403.909c-2.87093,3.58498 -6.15175,4.78007 -9.84189,3.58498 3.5881,3.88375 7.17619,2.0914 9.84189,-3.58498z"/>
  <path fill="#4F2900" d="M228.261 417.353c-2.87093,3.58498 -6.15175,4.77978 -9.84189,3.58498 3.5881,3.88375 7.17619,2.09112 9.84189,-3.58498z"/>
  <path fill="#4F2900" d="M230.107 441.85c-2.87093,3.58498 -6.15175,4.78007 -9.84189,3.58498 3.5881,3.88375 7.17619,2.0914 9.84189,-3.58498z"/>
  <path fill="#4F2900" d="M233.49 465.451c-2.87093,3.58498 -6.15175,4.78007 -9.84189,3.58498 3.5881,3.88375 7.17619,2.0914 9.84189,-3.58498z"/>
  <path fill="#4F2900" d="M253.789 517.135c3.23008,5.02923 1.38444,9.51081 -2.76803,13.7424 5.22851,-2.78816 6.7663,-4.97906 2.76803,-13.7424z"/>
  <path fill="#4F2900" d="M269.167 502.496c3.23008,5.02923 1.38444,9.51052 -2.76803,13.7424 5.22851,-2.78816 6.7663,-4.97906 2.76803,-13.7424z"/>
  <path fill="#4F2900" d="M280.854 487.858c3.23008,5.02923 1.38444,9.51081 -2.76803,13.7427 5.22851,-2.78816 6.7663,-4.97906 2.76803,-13.7427z"/>
  <path fill="#4F2900" d="M234.413 505.185c3.23008,5.02923 1.38444,9.51081 -2.76803,13.7424 5.22851,-2.78788 6.7663,-4.97906 2.76803,-13.7424z"/>
  <path fill="#4F2900" d="M200.889 435.576c2.38536,-2.67562 5.20781,-5.13808 5.84362,-8.66382l1.84536 1.79263c-1.25121,2.92847 -4.68907,4.79367 -7.68898,6.87118z"/>
  <path fill="#4F2900" d="M202.119 461.269c2.38536,-2.67534 5.20781,-5.1378 5.84362,-8.66382l1.84536 1.79263c-1.25121,2.92847 -4.68907,4.79367 -7.68898,6.87118z"/>
  <path fill="#4F2900" d="M209.5 484.87c2.38536,-2.67534 5.20781,-5.1378 5.84362,-8.66382l1.84536 1.79263c-1.25121,2.92847 -4.68907,4.79367 -7.68898,6.87118z"/>
  <path fill="#4F2900" d="M216.574 505.484c2.38536,-2.67562 5.20781,-5.13808 5.84362,-8.66382l1.84536 1.79263c-1.25121,2.92847 -4.68907,4.79367 -7.68898,6.87118z"/>
  <path fill="#4F2900" d="M228.569 488.455c4.51446,-1.40457 6.01909,-1.58343 7.99654,-3.88375 -1.2515,6.11547 -4.99692,2.86866 -7.99654,3.88375z"/>
  <path fill="#4F2900" d="M262.708 485.468c4.51446,-1.40457 6.01909,-1.58343 7.99654,-3.88375 -1.2515,6.11547 -4.99692,2.86866 -7.99654,3.88375z"/>
  <path fill="#4F2900" d="M224.878 395.843c4.51446,-1.40457 6.01909,-1.58343 7.99654,-3.88375 -1.2515,6.11547 -4.99692,2.86866 -7.99654,3.88375z"/>
  <path fill="#4F2900" d="M293.156 406.598c3.07531,1.69285 4.10032,4.18224 3.07559,7.46873l3.38315 -2.09112c-1.84649,-5.6812 -4.82088,-5.58482 -6.45874,-5.37761z"/>
  <path fill="#4F2900" d="M294.387 476.505l-0.307559 7.17024 -2.76803 0c1.84564,-1.59364 2.87121,-3.98353 3.07559,-7.17024z"/>
  <path fill="#4F2900" d="M258.402 389.569c1.53751,3.68447 0.614835,6.17443 -2.76803,7.46873 4.31915,-0.390047 7.50586,-1.4794 2.76803,-7.46873z"/>
  <path fill="#4F2900" d="M263.323 371.644c-3.89594,2.09169 -6.15175,4.97934 -6.7663,8.66382 -1.43547,-4.87928 0.81978,-7.76722 6.7663,-8.66382z"/>
 </g>
</svg>
