<?xml version="1.0" encoding="UTF-8" standalone="no"?>
<!-- Created with Inkscape (http://www.inkscape.org/) -->
<svg
   xmlns:dc="http://purl.org/dc/elements/1.1/"
   xmlns:cc="http://web.resource.org/cc/"
   xmlns:rdf="http://www.w3.org/1999/02/22-rdf-syntax-ns#"
   xmlns:svg="http://www.w3.org/2000/svg"
   xmlns="http://www.w3.org/2000/svg"
   xmlns:sodipodi="http://sodipodi.sourceforge.net/DTD/sodipodi-0.dtd"
   xmlns:inkscape="http://www.inkscape.org/namespaces/inkscape"
   width="500"
   height="555"
   id="svg2"
   sodipodi:version="0.32"
   inkscape:version="0.45.1"
   sodipodi:docbase="/"
   sodipodi:docname="Sund.vaakuna.svg"
   version="1.0"
   inkscape:output_extension="org.inkscape.output.svg.inkscape">
  <defs
     id="defs4" />
  <sodipodi:namedview
     id="base"
     pagecolor="#ffffff"
     bordercolor="#666666"
     borderopacity="1.0"
     inkscape:pageopacity="0.0"
     inkscape:pageshadow="2"
     inkscape:zoom="1"
     inkscape:cx="496"
     inkscape:cy="290.05678"
     inkscape:document-units="px"
     inkscape:current-layer="layer1"
     inkscape:window-width="1200"
     inkscape:window-height="963"
     inkscape:window-x="0"
     inkscape:window-y="0"
     height="555px" />
  <metadata
     id="metadata7">
    <rdf:RDF>
      <cc:Work
         rdf:about="">
        <dc:format>image/svg+xml</dc:format>
        <dc:type
           rdf:resource="http://purl.org/dc/dcmitype/StillImage" />
        <dc:title>Sundin vaakuna, Sunds vapen, Coat of arms of Sund</dc:title>
        <dc:creator>
          <cc:Agent>
            <dc:title>Hippophaë, Wikipedia</dc:title>
          </cc:Agent>
        </dc:creator>
        <dc:subject>
          <rdf:Bag>
            <rdf:li>Sund</rdf:li>
            <rdf:li>vaakuna</rdf:li>
            <rdf:li>vapen</rdf:li>
            <rdf:li>coat of arms</rdf:li>
          </rdf:Bag>
        </dc:subject>
        <cc:license
           rdf:resource="http://web.resource.org/cc/PublicDomain" />
        <dc:date>2006-09-18</dc:date>
        <dc:identifier>http://commons.wikimedia.org/wiki/Image:Sund.vaakuna.svg</dc:identifier>
      </cc:Work>
      <cc:License
         rdf:about="http://web.resource.org/cc/PublicDomain">
        <cc:permits
           rdf:resource="http://web.resource.org/cc/Reproduction" />
        <cc:permits
           rdf:resource="http://web.resource.org/cc/Distribution" />
        <cc:permits
           rdf:resource="http://web.resource.org/cc/DerivativeWorks" />
      </cc:License>
    </rdf:RDF>
  </metadata>
  <g
     inkscape:label="Layer 1"
     inkscape:groupmode="layer"
     id="layer1">
    <path
       style="fill:red;fill-opacity:1;fill-rule:evenodd;stroke:black;stroke-width:1px;stroke-linecap:butt;stroke-linejoin:miter;stroke-opacity:1"
       d="M 0.5,0.5 L 499.5,0.5 L 499.5,440 C 499.5,500 470,530 400,530 C 260,530 255,540 250,554.5 C 245,540 240,530 100,530 C 30,530 0.5,500 0.5,440 L 0.5,0.5 z "
       id="path18102"
       sodipodi:nodetypes="cccscscc" />
    <path
       style="fill:#bf9f4f;fill-opacity:1;fill-rule:evenodd;stroke:black;stroke-width:3;stroke-linecap:butt;stroke-linejoin:miter;stroke-opacity:1;stroke-miterlimit:4;stroke-dasharray:none"
       d="M 45,385 L 80,385 L 80,415 L 130,415 L 130,385 L 370,385 L 370,415 L 420,415 L 420,385 L 455,385 L 455,465 L 45,465 L 45,385 z "
       id="path18104"
       sodipodi:nodetypes="cccccccccccccc" />
    <path
       style="fill:none;fill-opacity:0.75;fill-rule:evenodd;stroke:black;stroke-width:1px;stroke-linecap:butt;stroke-linejoin:miter;stroke-opacity:1"
       d="M 45,415 L 455,415 L 455,440 L 45,440 L 45,415 z "
       id="path18106"
       sodipodi:nodetypes="ccccc" />
    <path
       style="fill:none;fill-opacity:0.75;fill-rule:evenodd;stroke:black;stroke-width:1px;stroke-linecap:butt;stroke-linejoin:miter;stroke-opacity:1"
       d="M 80,440 L 130,440 L 130,465 L 80,465 L 80,440 z "
       id="path18108" />
    <path
       id="path18110"
       d="M 107.5,415 L 157.5,415 L 157.5,440 L 107.5,440 L 107.5,415 z "
       style="fill:none;fill-opacity:0.75;fill-rule:evenodd;stroke:black;stroke-width:1px;stroke-linecap:butt;stroke-linejoin:miter;stroke-opacity:1" />
    <path
       style="fill:none;fill-opacity:0.75;fill-rule:evenodd;stroke:black;stroke-width:1px;stroke-linecap:butt;stroke-linejoin:miter;stroke-opacity:1"
       d="M 57.5,415 L 107.5,415 L 107.5,440 L 57.5,440 L 57.5,415 z "
       id="path18112" />
    <path
       id="path18114"
       d="M 365,440 L 415,440 L 415,465 L 365,465 L 365,440 z "
       style="fill:none;fill-opacity:0.75;fill-rule:evenodd;stroke:black;stroke-width:1px;stroke-linecap:butt;stroke-linejoin:miter;stroke-opacity:1" />
    <path
       style="fill:none;fill-opacity:0.75;fill-rule:evenodd;stroke:black;stroke-width:1px;stroke-linecap:butt;stroke-linejoin:miter;stroke-opacity:1"
       d="M 392.5,415 L 442.5,415 L 442.5,440 L 392.5,440 L 392.5,415 z "
       id="path18116" />
    <path
       id="path18118"
       d="M 342.5,415 L 392.5,415 L 392.5,440 L 342.5,440 L 342.5,415 z "
       style="fill:none;fill-opacity:0.75;fill-rule:evenodd;stroke:black;stroke-width:1px;stroke-linecap:butt;stroke-linejoin:miter;stroke-opacity:1" />
    <path
       style="fill:#bf9f4f;fill-opacity:1;fill-rule:evenodd;stroke:black;stroke-width:3;stroke-linecap:butt;stroke-linejoin:miter;stroke-opacity:1;stroke-miterlimit:4;stroke-dasharray:none"
       d="M 170,170 L 330,170 L 330,470 L 170,470 L 170,170 z "
       id="path19890"
       sodipodi:nodetypes="ccccc" />
    <path
       style="fill:none;fill-opacity:0.75;fill-rule:evenodd;stroke:black;stroke-width:1px;stroke-linecap:butt;stroke-linejoin:miter;stroke-opacity:1"
       d="M 200,445 L 250,445 L 250,470 L 200,470 L 200,445 z "
       id="path19892" />
    <path
       id="path19894"
       d="M 250,445 L 300,445 L 300,470 L 250,470 L 250,445 z "
       style="fill:none;fill-opacity:0.75;fill-rule:evenodd;stroke:black;stroke-width:1px;stroke-linecap:butt;stroke-linejoin:miter;stroke-opacity:1" />
    <path
       style="fill:none;fill-opacity:0.75;fill-rule:evenodd;stroke:black;stroke-width:1px;stroke-linecap:butt;stroke-linejoin:miter;stroke-opacity:1"
       d="M 170,420 L 220,420 L 220,445 L 170,445 L 170,420 z "
       id="path19896" />
    <path
       id="path19898"
       d="M 280,420 L 330,420 L 330,445 L 280,445 L 280,420 z "
       style="fill:none;fill-opacity:0.75;fill-rule:evenodd;stroke:black;stroke-width:1px;stroke-linecap:butt;stroke-linejoin:miter;stroke-opacity:1" />
    <path
       id="path19900"
       d="M 200,395 L 250,395 L 250,420 L 200,420 L 200,395 z "
       style="fill:none;fill-opacity:0.75;fill-rule:evenodd;stroke:black;stroke-width:1px;stroke-linecap:butt;stroke-linejoin:miter;stroke-opacity:1" />
    <path
       style="fill:none;fill-opacity:0.75;fill-rule:evenodd;stroke:black;stroke-width:1px;stroke-linecap:butt;stroke-linejoin:miter;stroke-opacity:1"
       d="M 250,395 L 300,395 L 300,420 L 250,420 L 250,395 z "
       id="path19902" />
    <path
       style="fill:none;fill-opacity:0.75;fill-rule:evenodd;stroke:black;stroke-width:1px;stroke-linecap:butt;stroke-linejoin:miter;stroke-opacity:1"
       d="M 170,370 L 220,370 L 220,395 L 170,395 L 170,370 z "
       id="path19906" />
    <path
       id="path19908"
       d="M 280,370 L 330,370 L 330,395 L 280,395 L 280,370 z "
       style="fill:none;fill-opacity:0.75;fill-rule:evenodd;stroke:black;stroke-width:1px;stroke-linecap:butt;stroke-linejoin:miter;stroke-opacity:1" />
    <path
       style="fill:none;fill-opacity:0.75;fill-rule:evenodd;stroke:black;stroke-width:1.00000036px;stroke-linecap:butt;stroke-linejoin:miter;stroke-opacity:1"
       d="M 200.00016,344.99999 L 250.00017,344.99999 L 250.00017,370 L 200.00016,370 L 200.00016,344.99999 z "
       id="path19910" />
    <path
       id="path19912"
       d="M 280,320 L 330,320 L 330,345 L 280,345 L 280,320 z "
       style="fill:none;fill-opacity:0.75;fill-rule:evenodd;stroke:black;stroke-width:1px;stroke-linecap:butt;stroke-linejoin:miter;stroke-opacity:1" />
    <path
       style="fill:none;fill-opacity:0.75;fill-rule:evenodd;stroke:black;stroke-width:1px;stroke-linecap:butt;stroke-linejoin:miter;stroke-opacity:1"
       d="M 170,320 L 220,320 L 220,345 L 170,345 L 170,320 z "
       id="path19914" />
    <path
       id="path19916"
       d="M 200.00016,294.99999 L 250.00017,294.99999 L 250.00017,320 L 200.00016,320 L 200.00016,294.99999 z "
       style="fill:none;fill-opacity:0.75;fill-rule:evenodd;stroke:black;stroke-width:1.00000036px;stroke-linecap:butt;stroke-linejoin:miter;stroke-opacity:1" />
    <path
       style="fill:none;fill-opacity:0.75;fill-rule:evenodd;stroke:black;stroke-width:1px;stroke-linecap:butt;stroke-linejoin:miter;stroke-opacity:1"
       d="M 280,270 L 330,270 L 330,295 L 280,295 L 280,270 z "
       id="path19918" />
    <path
       id="path19920"
       d="M 170,270 L 220,270 L 220,295 L 170,295 L 170,270 z "
       style="fill:none;fill-opacity:0.75;fill-rule:evenodd;stroke:black;stroke-width:1px;stroke-linecap:butt;stroke-linejoin:miter;stroke-opacity:1" />
    <path
       style="fill:none;fill-opacity:0.75;fill-rule:evenodd;stroke:black;stroke-width:1.00000036px;stroke-linecap:butt;stroke-linejoin:miter;stroke-opacity:1"
       d="M 200.00016,244.99999 L 250.00017,244.99999 L 250.00017,270 L 200.00016,270 L 200.00016,244.99999 z "
       id="path19922" />
    <path
       id="path19924"
       d="M 280,220 L 330,220 L 330,245 L 280,245 L 280,220 z "
       style="fill:none;fill-opacity:0.75;fill-rule:evenodd;stroke:black;stroke-width:1px;stroke-linecap:butt;stroke-linejoin:miter;stroke-opacity:1" />
    <path
       style="fill:none;fill-opacity:0.75;fill-rule:evenodd;stroke:black;stroke-width:1px;stroke-linecap:butt;stroke-linejoin:miter;stroke-opacity:1"
       d="M 170,220 L 220,220 L 220,245 L 170,245 L 170,220 z "
       id="path19926" />
    <path
       id="path19928"
       d="M 200.00016,194.99999 L 250.00017,194.99999 L 250.00017,220 L 200.00016,220 L 200.00016,194.99999 z "
       style="fill:none;fill-opacity:0.75;fill-rule:evenodd;stroke:black;stroke-width:1.00000036px;stroke-linecap:butt;stroke-linejoin:miter;stroke-opacity:1" />
    <path
       style="fill:none;fill-opacity:0.75;fill-rule:evenodd;stroke:black;stroke-width:1px;stroke-linecap:butt;stroke-linejoin:miter;stroke-opacity:1"
       d="M 280,170 L 330,170 L 330,195 L 280,195 L 280,170 z "
       id="path19930" />
    <path
       id="path19934"
       d="M 170,170 L 220,170 L 220,195 L 170,195 L 170,170 z "
       style="fill:none;fill-opacity:0.75;fill-rule:evenodd;stroke:black;stroke-width:1px;stroke-linecap:butt;stroke-linejoin:miter;stroke-opacity:1" />
    <path
       style="fill:#bf9f4f;fill-opacity:1;fill-rule:evenodd;stroke:black;stroke-width:2;stroke-linecap:butt;stroke-linejoin:miter;stroke-opacity:1;stroke-miterlimit:4;stroke-dasharray:none"
       d="M 235,470 L 235,395 C 235,375 265,375 265,395 L 265,470 L 235,470 z "
       id="path19936"
       sodipodi:nodetypes="ccccc" />
    <path
       style="fill:black;fill-opacity:1;fill-rule:evenodd;stroke:black;stroke-width:1px;stroke-linecap:butt;stroke-linejoin:miter;stroke-opacity:1"
       d="M 245,330.75 C 245,325.75 255,325.75 255,330.75 L 255,360.75 C 255,365.75 245,365.75 245,360.75 L 245,330.75 z "
       id="path19940"
       sodipodi:nodetypes="ccccc" />
    <path
       sodipodi:nodetypes="ccccc"
       id="path19942"
       d="M 205.5,280.75 C 205.5,275.75 215.5,275.75 215.5,280.75 L 215.5,310.75 C 215.5,315.75 205.5,315.75 205.5,310.75 L 205.5,280.75 z "
       style="fill:#bf9f4f;fill-opacity:1;fill-rule:evenodd;stroke:black;stroke-width:2;stroke-linecap:butt;stroke-linejoin:miter;stroke-opacity:1;stroke-miterlimit:4;stroke-dasharray:none" />
    <path
       style="fill:black;fill-opacity:1;fill-rule:evenodd;stroke:black;stroke-width:1px;stroke-linecap:butt;stroke-linejoin:miter;stroke-opacity:1"
       d="M 245,205.75 C 245,200.75 255,200.75 255,205.75 L 255,235.75 C 255,240.75 245,240.75 245,235.75 L 245,205.75 z "
       id="path19944"
       sodipodi:nodetypes="ccccc" />
    <path
       id="path20833"
       d="M 250,344.99999 L 300.00001,344.99999 L 300.00001,370 L 250,370 L 250,344.99999 z "
       style="fill:none;fill-opacity:0.75;fill-rule:evenodd;stroke:black;stroke-width:1.00000036px;stroke-linecap:butt;stroke-linejoin:miter;stroke-opacity:1" />
    <path
       style="fill:none;fill-opacity:0.75;fill-rule:evenodd;stroke:black;stroke-width:1.00000036px;stroke-linecap:butt;stroke-linejoin:miter;stroke-opacity:1"
       d="M 250,294.99999 L 300.00001,294.99999 L 300.00001,320 L 250,320 L 250,294.99999 z "
       id="path20835" />
    <path
       style="fill:#bf9f4f;fill-opacity:1;fill-rule:evenodd;stroke:black;stroke-width:2;stroke-linecap:butt;stroke-linejoin:miter;stroke-opacity:1;stroke-miterlimit:4;stroke-dasharray:none"
       d="M 284.5,280.75 C 284.5,275.75 294.5,275.75 294.5,280.75 L 294.5,310.75 C 294.5,315.75 284.5,315.75 284.5,310.75 L 284.5,280.75 z "
       id="path19946"
       sodipodi:nodetypes="ccccc" />
    <path
       id="path20837"
       d="M 250,244.99999 L 300.00001,244.99999 L 300.00001,270 L 250,270 L 250,244.99999 z "
       style="fill:none;fill-opacity:0.75;fill-rule:evenodd;stroke:black;stroke-width:1.00000036px;stroke-linecap:butt;stroke-linejoin:miter;stroke-opacity:1" />
    <path
       style="fill:none;fill-opacity:0.75;fill-rule:evenodd;stroke:black;stroke-width:1.00000036px;stroke-linecap:butt;stroke-linejoin:miter;stroke-opacity:1"
       d="M 250,194.99999 L 300.00001,194.99999 L 300.00001,220 L 250,220 L 250,194.99999 z "
       id="path20839" />
    <path
       style="fill:#bf9f4f;fill-opacity:1;fill-rule:evenodd;stroke:black;stroke-width:3;stroke-linecap:butt;stroke-linejoin:miter;stroke-opacity:1;stroke-miterlimit:4;stroke-dasharray:none"
       d="M 250,32 L 298,32 C 287,38 278,43 289,53 L 250,53 L 250,32 z "
       id="path27941"
       sodipodi:nodetypes="ccccc" />
    <path
       style="fill:black;fill-opacity:1;fill-rule:evenodd;stroke:black;stroke-width:1px;stroke-linecap:butt;stroke-linejoin:miter;stroke-opacity:1"
       d="M 248,82 L 248,14 L 252,14 L 252,82 L 248,82 z "
       id="path27054"
       sodipodi:nodetypes="ccccc" />
    <path
       style="fill:#bf9f4f;fill-opacity:1;fill-rule:evenodd;stroke:black;stroke-width:3;stroke-linecap:butt;stroke-linejoin:miter;stroke-opacity:1;stroke-miterlimit:4;stroke-dasharray:none"
       d="M 250,75 L 340,170 L 160,170 L 250,75 z "
       id="path20841" />
    <path
       style="fill:none;fill-opacity:0.75;fill-rule:evenodd;stroke:black;stroke-width:1.0000006px;stroke-linecap:butt;stroke-linejoin:miter;stroke-opacity:1"
       d="M 200.00016,151.00004 L 250.00017,151.00004 L 250.00017,170.00005 L 200.00016,170.00005 L 200.00016,151.00004 z "
       id="path20843" />
    <path
       id="path20845"
       d="M 250,151.00004 L 300.00001,151.00004 L 300.00001,170.00005 L 250,170.00005 L 250,151.00004 z "
       style="fill:none;fill-opacity:0.75;fill-rule:evenodd;stroke:black;stroke-width:1.0000006px;stroke-linecap:butt;stroke-linejoin:miter;stroke-opacity:1" />
    <path
       id="path20847"
       d="M 225,132.00004 L 275.00001,132.00004 L 275.00001,151.00005 L 225,151.00005 L 225,132.00004 z "
       style="fill:none;fill-opacity:0.75;fill-rule:evenodd;stroke:black;stroke-width:1.0000006px;stroke-linecap:butt;stroke-linejoin:miter;stroke-opacity:1" />
    <path
       style="fill:none;fill-opacity:0.75;fill-rule:evenodd;stroke:black;stroke-width:1px;stroke-linecap:butt;stroke-linejoin:miter;stroke-opacity:1"
       d="M 250,75 L 322,151 L 178,151 L 250,75 z "
       id="path20849"
       sodipodi:nodetypes="cccc" />
    <path
       style="fill:none;fill-opacity:0.75;fill-rule:evenodd;stroke:black;stroke-width:1px;stroke-linecap:butt;stroke-linejoin:miter;stroke-opacity:1"
       d="M 196,132 L 304,132 L 250,75 L 196,132 z "
       id="path21736"
       sodipodi:nodetypes="cccc" />
    <path
       style="fill:none;fill-opacity:0.75;fill-rule:evenodd;stroke:black;stroke-width:1px;stroke-linecap:butt;stroke-linejoin:miter;stroke-opacity:1"
       d="M 250,75 L 286,113 L 214,113 L 250,75 z "
       id="path21738" />
    <path
       style="fill:none;fill-opacity:0.75;fill-rule:evenodd;stroke:black;stroke-width:1px;stroke-linecap:butt;stroke-linejoin:miter;stroke-opacity:1"
       d="M 250,132 L 250,113"
       id="path22625"
       sodipodi:nodetypes="cc" />
    <path
       style="fill:none;fill-opacity:0.75;fill-rule:evenodd;stroke:black;stroke-width:1px;stroke-linecap:butt;stroke-linejoin:miter;stroke-opacity:1"
       d="M 250,75 L 268,94 L 232,94 L 250,75 z "
       id="path24397" />
  </g>
</svg>
