<?xml version="1.0" encoding="UTF-8"?>
<!DOCTYPE svg PUBLIC "-//W3C//DTD SVG 1.1//EN" "http://www.w3.org/Graphics/SVG/1.1/DTD/svg11.dtd">
<!-- Creator: CorelDRAW -->
<svg xmlns="http://www.w3.org/2000/svg" xml:space="preserve" width="500px" height="554px" shape-rendering="geometricPrecision" text-rendering="geometricPrecision" image-rendering="optimizeQuality" fill-rule="evenodd" clip-rule="evenodd"
viewBox="0 0 500 554"
 xmlns:xlink="http://www.w3.org/1999/xlink"
 xmlns:svg="http://www.w3.org/2000/svg"
 version="1.0">
 <g id="Layer_x0020_1">
  <metadata id="CorelCorpID_0Corel-Layer"/>
  <path id="path1937" fill="#CCCCCC" stroke="#0581ED" stroke-width="0.216" d="M0.565229 0.306425l499.262 0.169795 -12.2241 344.265c-46.2977,275.493 -425.853,280.085 -475.934,-0.314079l-11.1042 -344.121z"/>
  <path id="path1937_0" fill="#0581ED" stroke="#0581ED" stroke-width="0.216" d="M499.827 0.476221l-12.2241 344.265c-10.851,64.5684 -40.0091,114.256 -78.9401,148.881l-400.608 -261.22 491.772 -231.927z"/>
  <path fill="#4F2900" d="M56.7766 230.032c2.43298,-13.1315 21.7219,-18.1593 51.2961,-15.4253 13.193,-11.6297 16.1623,-14.9153 30.528,-14.5721 28.8017,0.688536 33.8468,30.7069 56.3191,33.3057 7.90498,-0.630709 14.9122,-4.55414 19.2254,-5.48419 1.40117,0.885544 -0.191055,7.15947 2.40747,8.94331 4.33531,-1.73877 6.27591,-6.47093 11.2099,-7.91037 1.49358,1.70306 -0.00623622,5.80082 2.68469,7.8035 4.0218,0.0643465 5.34955,-5.25912 8.47361,-6.09251 1.13698,0.345827 1.37622,4.8824 3.4115,6.42586 12.9073,-13.8093 65.6269,-2.77342 78.8338,-12.691 26.644,-76.3348 21.4583,-109.036 50.0049,-113.787 5.36797,-24.9265 14.6265,-42.1132 32.3739,-41.4808 7.31934,-15.8321 18.5377,-26.7908 36.239,-22.6582 16.528,-27.5896 52.7117,-17.4121 34.0177,21.5524 6.34989,9.48728 7.33692,22.7415 -5.8697,38.1169 7.98435,11.7247 -1.54687,28.2909 -19.9103,48.7996 0.289984,26.9223 -2.83918,28.7683 -75.699,97.1023l1.16221 4.20492c7.34684,-3.62013 13.0969,-2.84995 17.2514,2.31109 9.61229,-2.15433 17.2293,-0.716315 22.8509,4.31433 13.4079,-4.16892 22.0771,-2.17616 27.5034,4.03257 16.3417,-2.31194 27.4949,1.36318 33.4596,11.0254l-87.437 17.5966c12.2961,5.30476 22.1927,0.533481 27.8666,8.74517 9.93062,-1.39096 17.8648,-0.786048 21.409,4.21144 13.2826,1.01452 19.9296,3.92514 22.0371,8.13374 13.8833,0.0223937 21.7797,4.03597 23.69,12.0413 -35.2789,4.37159 -66.9719,6.33005 -103.048,8.30778l6.98117 11.9735c-34.4979,4.9371 -68.1701,8.43846 -88.2905,4.59071 -55.3383,5.82832 -95.4766,3.46961 -98.0986,-22.6502 -17.0595,-1.91112 -27.9573,-10.4579 -34.6391,-23.544 -2.30117,0.171496 -3.90132,2.44658 -5.40057,5.02243 -2.32356,-2.5234 -3.44977,-5.04709 -3.37805,-7.56993 -1.60696,-0.105732 -3.61304,0.586772 -6.01767,2.07808 -2.12088,-4.62983 -2.44545,-8.6607 -1.872,-12.9909 -2.93273,0.264756 -5.06693,1.72658 -6.40262,4.38662 -3.84803,-3.81118 -3.80466,-8.22104 -4.35997,-12.3316 -2.35984,0.0634961 -5.91676,2.23087 -8.27604,4.69956 -15.4208,-29.2998 -11.9832,-27.4683 -69.0118,-37.0117 6.86948,-4.80529 20.3244,-4.82088 33.4803,-6.93185 -8.46171,-4.17685 -22.9102,5.41588 -27.1809,-12.5306 7.07443,0.991276 8.46171,4.37726 24.8159,-0.318614 -11.0985,-4.09266 -22.7452,-5.24126 -34.6411,-3.744z"/>
  <path fill="#BF9F4F" d="M55.1231 228.108c2.43298,-13.1315 20.9806,-16.2349 50.5548,-13.5009 13.193,-11.6297 18.8561,-15.8136 33.2221,-15.4701 28.802,0.688819 35.6429,31.6049 58.1151,34.2037 7.90498,-0.630709 10.4221,-4.55414 14.7353,-5.48419 1.40117,0.885544 -0.191055,7.15947 2.40747,8.94331 4.33531,-1.73877 6.27591,-6.47093 11.2099,-7.91037 1.49358,1.70306 -0.00623622,5.80082 2.68469,7.8035 4.0218,0.0643465 5.34955,-5.25912 8.47361,-6.09251 1.13698,0.345827 1.37622,4.8824 3.4115,6.42586 12.9073,-13.8093 65.6269,-2.77342 78.8338,-12.691 26.644,-76.3348 21.4583,-109.036 50.0049,-113.787 5.36797,-24.9265 14.6265,-42.1132 32.3739,-41.4808 7.31934,-15.8321 18.5377,-26.7908 36.239,-22.6582 16.528,-27.5896 52.7117,-17.4121 34.0177,21.5524 6.34989,9.48728 7.33692,22.7415 -5.8697,38.1169 7.98435,11.7247 -1.54687,28.2909 -19.9103,48.7996 0.289984,26.9223 -1.79858,25.6465 -74.6584,93.9805l1.16221 4.20492c7.34684,-3.62013 13.0969,-2.84995 17.2514,2.31109 9.61229,-2.15433 17.2293,-0.716315 22.8509,4.31433 13.4079,-4.16892 22.0771,-2.17616 27.5034,4.03257 16.3417,-2.31194 27.4949,1.36318 33.4596,11.0254l-87.437 17.5966c12.2961,5.30476 22.1927,0.533481 27.8666,8.74517 9.93062,-1.39096 17.8648,-0.786048 21.409,4.21144 13.2826,1.01452 19.9296,3.92514 22.0371,8.13374 13.8833,0.0223937 21.7797,4.03597 23.69,12.0413 -35.2789,4.37159 -70.8633,7.82674 -106.939,9.80448l9.07654 11.6742c-34.4979,4.9371 -65.1768,7.54044 -85.2971,3.69269 -55.3383,5.82832 -96.6739,3.17027 -99.296,-22.9496 -17.0595,-1.91112 -27.9573,-10.4579 -34.6391,-23.544 -2.30117,0.171496 -3.90132,2.44658 -5.40057,5.02243 -2.32356,-2.5234 -3.44977,-5.04709 -3.37805,-7.56993 -1.60696,-0.105732 -3.61304,0.586772 -6.01767,2.07808 -2.12088,-4.62983 -2.44545,-8.6607 -1.872,-12.9909 -2.93273,0.264756 -5.06693,1.72658 -6.40262,4.38662 -3.84803,-3.81118 -3.80466,-8.22104 -4.35997,-12.3316 -2.35984,0.0634961 -5.91676,2.23087 -8.27604,4.69956 -15.4208,-29.2998 -11.6838,-26.2709 -68.7124,-35.8143 6.31758,-4.80558 19.7649,-6.01852 33.181,-8.1292 -8.46171,-4.17685 -22.9102,5.41588 -27.1809,-12.5306 7.07443,0.991276 7.86303,4.97594 24.2172,0.280063 -11.0985,-4.09266 -22.4459,-4.64259 -34.3417,-3.14532z"/>
  <path fill="#644D36" d="M214.082 311.725c25.96,20.2127 94.7384,24.0024 179.005,21.8517l-19.7564 1.49669 1.49669 2.09537c-88.1005,2.64132 -144.486,-4.93654 -160.745,-25.4438z"/>
  <path fill="#FFE6C8" d="M231.743 321.004c-35.371,-21.2224 -37.942,-47.3049 2.76321,-59.3881l1.12819 -3.17367c-11.8769,3.71509 -20.7981,7.83723 -26.157,13.049 -17.5068,17.0257 -2.80091,39.8965 22.2656,49.5128z"/>
  <path fill="#4F2900" stroke="#4F2900" stroke-width="0.992126" d="M225.757 262.034c6.18775,-5.28832 9.08079,-10.1775 5.68744,-14.6676 7.08633,5.7875 3.19465,10.4769 -5.68744,14.6676z"/>
  <path fill="#FFE6C8" d="M262.276 323.998c-1.34646,-11.1762 -6.535,-19.0585 -13.4702,-25.4438 9.35434,5.1137 14.493,13.1457 13.4702,25.4438z"/>
  <path fill="#FFE6C8" d="M264.671 298.554c-3.39251,-4.49008 -8.2817,-7.38369 -12.8716,-9.57884 6.08655,0.498898 10.3771,3.39251 12.8716,9.57884z"/>
  <path fill="#FFE6C8" d="M266.467 284.186c-3.8914,-3.09317 -8.18193,-5.78722 -12.8716,-8.08215 5.78722,0 9.7784,2.69405 12.8716,8.08215z"/>
  <path fill="#FFE6C8" d="M268.562 275.804c-3.09317,-6.18633 -8.18193,-10.3771 -15.2663,-12.5722 8.88038,-0.498898 14.5678,5.18854 15.2663,12.5722z"/>
  <path fill="#FFE6C8" d="M279.937 317.412c-3.09317,-6.18633 -8.18193,-11.8738 -15.2663,-14.0689 8.88038,-0.498898 14.5678,6.68523 15.2663,14.0689z"/>
  <path fill="#FFE6C8" d="M288.019 306.935c-1.34646,-11.1762 -8.33103,-19.3578 -19.1577,-23.6478 12.3477,-0.573733 20.1804,11.3496 19.1577,23.6478z"/>
  <path fill="#FFE6C8" d="M290.414 289.873c-1.34646,-11.1762 -11.0251,-19.0585 -22.7497,-22.7497 13.2457,-1.47175 23.7725,10.4516 22.7497,22.7497z"/>
  <path fill="none" stroke="#FFE6C8" stroke-width="1.41732" d="M135.207 221.324c4.0544,-0.637796 9.52923,4.92236 9.12983,9.57884 -0.399402,4.65647 -4.75597,9.07966 -9.72851,9.87818 -4.97254,0.79852 -10.3669,-4.63663 -9.72851,-9.87818 0.638363,-5.24155 6.27279,-8.94104 10.3272,-9.57884z"/>
  <ellipse fill="black" cx="133.56" cy="229.257" rx="5.98677" ry="4.63975"/>
  <line fill="none" stroke="#FFE6C8" stroke-width="1.41732" x1="113.205" y1="223.719" x2="125.478" y2= "247.666" />
  <line fill="none" stroke="#FFE6C8" stroke-width="1.41732" x1="92.5509" y1="247.367" x2="114.403" y2= "248.564" />
  <path fill="none" stroke="#FFE6C8" stroke-width="0.992126" d="M71.2979 218.331c12.0733,-0.947906 24.1467,-1.24724 36.22,-0.598677 -0.0997796,-1.39691 2.79383,-3.69184 4.49008,-4.78942"/>
  <path fill="#FFE6C8" d="M372.133 190.792l0 -2.39471c-7.35874,1.79632 -13.2956,5.48759 -18.2597,10.4769l2.99339 2.69405c3.09317,-5.58766 8.18193,-9.17972 15.2663,-10.7762z"/>
  <path fill="none" stroke="#FFE6C8" stroke-width="1.98425" d="M351.479 200.67c-4.19103,1.74558 -6.18662,5.13836 -7.18413,9.2795"/>
  <path fill="none" stroke="#FFE6C8" stroke-width="0.992126" d="M283.828 238.686c30.1334,1.39691 31.231,-4.68964 39.2134,-6.58545 1.59647,-4.96403 5.08848,-8.50621 9.87818,-11.0755 -1.54772,-2.39443 2.94236,-6.984 10.1775,-12.5722"/>
  <path fill="none" stroke="#FFE6C8" stroke-width="0.992126" d="M306.279 243.475c11.3749,2.09537 14.3683,-6.88479 23.3484,-10.7762 2.2938,-2.79978 4.68766,-5.0984 7.78281,-3.8914 0.698457,-4.3903 4.98898,-8.38148 12.8716,-11.9735l9.2795 -7.78281c-1.09758,3.69184 -1.39691,7.38369 -0.898016,11.0755 -2.9931,3.89112 -3.99147,7.78309 -2.99339,11.6742 -4.19074,2.99339 -5.98677,7.18413 -5.3881,12.5722"/>
  <path fill="none" stroke="#4F2900" stroke-width="0.992126" d="M345.792 252.456c-0.399118,4.3903 -1.79603,7.68303 -2.99339,10.4769"/>
  <path fill="none" stroke="#4F2900" stroke-width="0.992126" d="M338.907 267.123c-0.698457,3.59206 -1.79603,6.38589 -3.29273,8.38148"/>
  <path fill="none" stroke="#4F2900" stroke-width="0.992126" d="M357.166 282.988c1.01169,-1.37055 2.23484,-2.31477 2.39471,-5.3881"/>
  <path fill="none" stroke="#4F2900" stroke-width="0.992126" d="M358.663 273.11c2.19515,-3.19295 3.59206,-7.58325 4.19074,-13.1709"/>
  <path fill="#4F2900" d="M376.923 289.873l-2.99339 -2.09537 1.49669 -11.0755 5.98677 0.299339c-2.69405,0.698457 -4.19074,4.98898 -4.49008,12.8716z"/>
  <path fill="#4F2900" d="M374.229 264.13l0.299339 11.3749 4.49008 -1.49669c-1.89581,-3.39251 -1.79603,-7.18413 0.299339,-11.3749l-5.08876 1.49669z"/>
  <polygon fill="#4F2900" points="370.337,249.163 371.235,260.837 375.127,258.143 373.63,252.456 372.133,253.354 "/>
  <path fill="#4F2900" d="M366.446 241.081c-1.19735,4.3903 -3.29273,9.07994 -6.28611,14.0689 7.78281,-4.3903 6.58545,-9.97796 6.28611,-14.0689z"/>
  <path fill="#4F2900" d="M367.643 238.985l-2.99339 -4.19074c5.887,-3.69184 6.98457,-9.7784 3.29273,-18.2597l0.793985 -2.99452c4.42488,9.28035 4.06007,17.7619 -1.09332,25.4449z"/>
  <path fill="#4F2900" d="M373.031 198.874c0.997796,5.887 0.798237,10.9758 -0.598677,15.2663 4.19074,-4.29052 4.3903,-9.37928 0.598677,-15.2663z"/>
  <path fill="#4F2900" d="M372.732 188.098l0.299339 2.69405c0.760252,6.16706 -2.26715,10.4406 -4.78942,14.9669 7.51267,-5.23928 10.8712,-14.3198 4.49008,-17.661z"/>
  <path fill="#4F2900" d="M330.226 353.632l-4.49008 8.08215c-36.7566,-0.256819 -42.3692,12.5274 -35.322,30.5326 3.04271,-19.0605 9.32882,-24.9472 17.9603,-24.8451 -12.5833,8.1533 -16.6476,17.979 -9.2795,29.3352 -0.000283465,-17.7361 9.07994,-27.3648 31.4306,-25.1445l11.9735 -19.457 -12.2729 1.49669z"/>
  <path fill="#4F2900" d="M89.8569 231.203c14.8422,3.34262 26.3668,9.52867 35.6213,17.661 -11.9239,-6.78558 -24.7961,-12.0742 -38.3154,-16.4636l2.69405 -1.19735z"/>
  <path fill="#4F2900" d="M106.021 260.238c6.38618,0.598961 11.6739,-1.7949 16.4636,-5.98677l2.99339 0c-5.93688,5.58851 -11.126,9.18057 -14.6676,8.38148l-4.78942 -2.39471z"/>
  <path fill="#4F2900" d="M352.976 352.435l-9.57884 13.4702c-33.7269,5.2081 -39.0566,17.5326 -36.8187,30.8319 5.42353,-10.1061 12.0946,-17.9671 21.5099,-20.8868 -10.8731,8.85714 -14.7254,17.7148 -10.4343,26.5742 13.0964,-24.2093 41.2841,-27.5769 50.5882,-9.87818 0.898016,-3.49229 0,-7.58325 0,-11.3749l6.88479 9.2795c0.53263,-6.21496 -2.26063,-23.9766 -18.8583,-18.559l0.288 -4.0663 12.2842 -18.0848 -15.865 2.69405z"/>
  <polygon fill="#4F2900" points="374.229,200.67 471.214,67.4643 473.01,71.0564 374.827,204.861 "/>
  <polygon fill="#4F2900" points="370.337,219.828 464.629,105.78 466.724,108.773 371.834,224.018 "/>
  <polygon fill="#4F2900" points="367.943,238.087 445.471,153.674 445.771,159.062 366.745,244.673 "/>
  <path fill="#FFE6C8" d="M470.34 275.322l2.85647 -0.574583c-5.96466,-9.66218 -17.1179,-13.3373 -33.4596,-11.0254 -5.42636,-6.20873 -14.0956,-8.20148 -27.5034,-4.03257 -5.62167,-5.03065 -13.2387,-6.46866 -22.8509,-4.31433 -4.15446,-5.16104 -9.90454,-5.93122 -17.2514,-2.31109 5.63925,-0.0048189 10.9284,0.989008 14.9695,4.18139l-16.763 6.58545 23.0491 -5.3881c6.68523,-2.39471 11.774,-1.19735 15.2663,3.59206l-28.7365 8.08215 35.6213 -7.78281c9.23046,-2.79496 16.7136,-2.29635 20.355,4.49008l-55.3777 13.1709 5.08876 0.299339 55.677 -12.8716c11.6816,-2.15688 21.3679,0.476221 29.0591,7.89903zm8.76813 50.3578c0.551339,-0.0677481 1.10296,-0.136063 1.65402,-0.204095 -1.91027,-8.00533 -9.80675,-12.0189 -23.69,-12.0413 -2.10756,-4.2086 -8.75452,-7.11922 -22.0371,-8.13374 -3.54416,-4.99748 -11.4783,-5.6024 -21.409,-4.21144 -5.67383,-8.21169 -15.5704,-3.44041 -27.8666,-8.74517l-21.4087 -1.57266 -20.9537 -7.18413c-17.5612,-12.7718 -37.118,-15.9647 -58.6704,-9.57884l2.69405 2.09537c17.2871,-5.33821 34.8976,-3.54246 52.983,8.68082 -12.6712,1.84649 -30.831,-0.149102 -51.4863,-3.8914l0.598677 1.79603c22.6749,5.86205 41.0842,6.51062 56.575,3.59206l14.9669 5.08876c-16.5526,4.98983 -42.6801,3.39307 -71.2426,-1.19735l-0.299339 1.79603c27.9505,5.91166 53.3693,6.75978 75.7327,1.49669 10.7544,0.285732 20.1852,0.857481 23.6478,3.59206 -29.6345,5.84929 -62.7614,6.02391 -98.7818,1.49669l0 2.09537c33.6966,3.79191 67.8688,5.92016 104.769,-1.49669 7.58325,-1.53156 14.1687,0.643748 18.559,4.19074 -38.7267,7.27172 -80.0107,7.89534 -122.729,4.78942l0 1.49669c42.3065,4.22674 84.6131,5.16388 126.92,-4.19074 6.18633,-0.199559 11.5744,0.798237 16.1643,2.99339 -47.8814,11.147 -96.8984,11.5081 -146.377,7.48347l-0.299339 1.49669c49.8141,4.70608 100.053,4.88183 151.465,-7.18413 7.98237,0.798237 13.1709,2.79383 15.5656,5.98677 -58.246,10.4454 -114.971,12.9025 -170.024,6.58545l-0.299339 2.69405c56.5124,5.73704 115.208,2.74365 175.712,-7.48347 7.71988,-0.237827 14.2424,2.31817 19.5676,7.66857zm-264.122 21.7828c-9.79512,-4.02151 -15.7371,-10.3785 -16.6793,-19.7651 3.564,8.18476 9.1236,14.7728 16.6793,19.7651zm-29.6544 -22.9059c-9.88073,-3.93704 -16.8616,-10.9976 -21.6641,-20.4032 5.98621,7.21219 13.2823,13.9881 21.6641,20.4032zm-25.304 -18.0567c-0.622205,0.786048 -1.19849,1.71014 -1.7606,2.67591 -2.32356,-2.5234 -3.44977,-5.04709 -3.37805,-7.56993 1.11147,1.93181 2.42362,3.76299 5.13865,4.89402zm-9.019 -3.98013c-0.673512,0.31011 -1.38614,0.698174 -2.13732,1.16419 -2.12088,-4.62983 -2.44545,-8.6607 -1.872,-12.9909 0.735024,4.84328 1.67074,9.38637 4.00932,11.8267zm-8.57254 -9.92722c-0.725386,0.660473 -1.33852,1.48961 -1.8394,2.48712 -3.84803,-3.81118 -3.80466,-8.22104 -4.35997,-12.3316 1.76599,3.58186 3.63147,7.06337 6.19937,9.84445zm-12.5189 -6.912c-0.702142,0.551339 -1.36687,1.15002 -1.95647,1.76712 -6.66454,-12.6629 -9.7509,-19.2875 -15.711,-23.4984 8.88237,5.44762 12.6763,12.9906 17.6675,21.7313zm-68.04 -33.609c-0.861449,-0.14315 -1.73792,-0.289134 -2.62885,-0.438236 6.86948,-4.80529 20.0251,-6.01824 33.181,-8.1292m-21.7233 -11.0806c-1.65005,-0.538016 -3.2468,-1.14038 -5.45755,-1.44992 0.133228,0.560693 0.276662,1.09502 0.429449,1.60299l6.81818 2.6674 -1.79008 -2.82047zm-13.358 -4.57172c-0.739276,0.0771024 -1.48082,0.162992 -2.22406,0.256536 2.43298,-13.1315 20.9806,-16.2349 50.5548,-13.5009 13.193,-11.6297 18.8561,-15.8136 33.2221,-15.4701 28.802,0.688819 35.6429,31.6049 58.1151,34.2037 7.90498,-0.630709 10.4221,-4.55414 14.7353,-5.48419 0.788032,0.498047 0.329669,3.00076 0.502299,5.15027 -45.5037,9.41868 -39.5215,-32.0465 -74.848,-31.911 -10.9361,0.0419528 -21.3973,5.46265 -31.1063,14.1344 -19.3723,0.441071 -46.755,-4.21682 -48.9512,12.6213zm156.811 8.94841c4.33531,-1.73877 6.27591,-6.47093 11.2099,-7.91037 1.02671,1.17071 0.638929,3.47358 1.17043,5.44904 -4.12696,-0.0776693 -8.25364,1.64069 -12.3803,2.46132zm13.8946 -0.106866c4.0218,0.0643465 5.34955,-5.25912 8.47361,-6.09251 0.710363,0.216 1.07065,2.06929 1.73736,3.80551 -1.7246,-0.358016 -6.04432,1.01509 -10.211,2.28699zm15.6645 1.09502c17.5612,-7.58325 61.1649,-2.89361 79.6241,-8.38148l-1.19735 -4.19074 27.4995 -96.7646c4.00394,-8.05607 9.80448,-13.6176 16.204,-13.6913l-35.322 106.864 4.49008 -7.18413 43.8968 -128.189c3.45232,-7.759 13.1162,-13.4223 21.3591,-13.398l-55.0783 131.11 4.49008 -2.99339 57.3543 -137.892c6.47405,-12.958 16.791,-15.4862 28.8553,-13.2738l-78.4267 146.077 5.98677 -4.19074 74.9685 -142.193c5.63896,-12.7463 17.1709,-18.4952 29.9945,-16.8727 -8.75594,-4.62501 -22.5043,-0.440221 -31.0263,13.7855 -17.7012,-4.13263 -28.9196,6.82611 -36.239,22.6582 -17.7474,-0.63241 -27.006,16.5543 -32.3739,41.4808 -28.5466,4.75087 -23.3609,37.4522 -50.0049,113.787 -12.7942,9.60747 -62.6704,-0.448725 -77.5097,11.4676l2.45537 1.9851"/>
  <path fill="#BF9F4F" d="M350.88 351.836l-9.57884 13.4702c-33.7269,5.2081 -39.0566,17.5326 -36.8187,30.8319 5.42353,-10.1061 12.0946,-17.9671 21.5099,-20.8868 -10.8731,8.85714 -14.7254,17.7148 -10.4343,26.5742 13.0964,-24.2093 41.2841,-27.5769 50.5882,-9.87818 0.898016,-3.49229 0,-7.58325 0,-11.3749l6.88479 9.2795c0.53263,-6.21496 -2.26063,-23.9766 -18.8583,-18.559l0.288 -4.0663 12.2842 -18.0848 -15.865 2.69405z"/>
  <path fill="#BF9F4F" d="M329.328 352.435l-4.49008 8.08215c-36.7566,-0.256819 -42.3692,12.5274 -35.322,30.5326 3.04271,-19.0605 9.32882,-24.9472 17.9603,-24.8451 -12.5833,8.1533 -16.6476,17.979 -9.2795,29.3352 -0.000283465,-17.7361 9.07994,-27.3648 31.4306,-25.1445l11.9735 -19.457 -12.2729 1.49669z"/>
  <path fill="#4F2900" d="M366.745 385.961c-1.59647,-3.99118 -3.99118,-7.18413 -7.18413,-9.57884 2.09537,0.895465 4.19074,1.99191 6.28611,4.49008l0.898016 5.08876z"/>
  <path fill="#FFE6C8" d="M304.183 395.54c-0.801355,-13.4714 7.87833,-24.4468 37.4173,-29.9339l6.88479 -10.7762c3.19295,1.19735 4.78942,3.19295 4.78942,5.98677l-7.78281 7.48347c-22.5502,1.09758 -36.3198,10.1775 -41.3087,27.2398z"/>
  <path fill="#FFE6C8" d="M315.558 401.227c-2.69462,-9.20438 -1.6971,-20.9282 27.5392,-31.4306l3.29273 1.49669c-18.1531,4.83222 -29.3369,15.531 -30.8319,29.9339z"/>
  <path fill="#FFE6C8" d="M361.656 379.675c-2.29493,-1.99559 -4.98898,-3.19295 -8.08215,-3.59206 2.49449,-3.8914 7.68303,-5.68744 14.6676,-1.79603 -5.78722,-1.29713 -9.57884,-0.997796 -11.3749,0.898016 1.89581,0.598677 4.3903,2.69405 4.78942,4.49008z"/>
  <path fill="#FFE6C8" d="M289.216 390.451c-7.28391,-20.7542 4.58986,-30.7321 35.6213,-29.9339l3.8914 -5.68744 3.8914 0.299339 -4.19074 9.2795c-31.4861,-4.34296 -40.4646,7.2326 -39.2134,26.0425z"/>
  <path fill="#FFE6C8" d="M297.897 394.642c-5.65767,-10.7331 -2.92706,-21.1958 16.1643,-31.1312l9.2795 -0.299339c-3.30945,3.19833 -13.8521,3.34432 -18.1449,7.03446 -6.27364,5.39292 -8.2321,14.3989 -7.29893,24.3961z"/>
 </g>
</svg>
