<?xml version="1.0" encoding="UTF-8"?>
<!DOCTYPE svg PUBLIC "-//W3C//DTD SVG 1.1//EN" "http://www.w3.org/Graphics/SVG/1.1/DTD/svg11.dtd">
<!-- Creator: CorelDRAW -->
<svg xmlns="http://www.w3.org/2000/svg" xml:space="preserve" width="500px" height="541px" shape-rendering="geometricPrecision" text-rendering="geometricPrecision" image-rendering="optimizeQuality" fill-rule="evenodd" clip-rule="evenodd"
viewBox="0 0 500 541"
 xmlns:xlink="http://www.w3.org/1999/xlink"
 xmlns:svg="http://www.w3.org/2000/svg"
 version="1.0">
 <g id="Layer_x0020_1">
  <metadata id="CorelCorpID_0Corel-Layer"/>
  <path id="path1937" fill="black" stroke="black" stroke-width="0.382677" d="M499.695 0.494929l-17.1692 301.155c-11.7771,314.678 -450.183,320.865 -464.583,-0.0303307l-17.773 -301.125 499.525 -0.000566929z"/>
  <rect fill="#CCCCCC" x="212.817" y="123.169" width="73.8992" height="123.477"/>
  <polygon fill="white" points="212.817,123.169 286.716,123.169 286.716,125.508 215.389,125.508 215.155,246.647 212.817,246.647 "/>
  <path fill="#BF9F4F" d="M210.712 143.281l0.142016 -22.5879 77.9766 0.0218268 -0.00992126 24.9046c47.5937,-7.06281 42.4681,-85.4088 -8.4189,-103.833 15.827,34.7017 7.22183,53.9601 -7.48347,70.8591l-1.63701 -0.701575c14.6551,-45.4465 -10.3677,-89.5678 -44.9008,-87.463 9.1012,14.0119 14.9083,28.7844 15.9024,44.667 -19.529,16.1359 -13.4487,26.4257 -16.8378,37.8851l-3.97559 -0.233858c-2.41654,-4.52126 14.5772,-52.3063 -26.8937,-60.5693 16.6439,23.2418 -0.562961,33.3448 -8.6349,53.5281 -7.02709,17.5708 1.62652,38.365 24.7711,43.5232z"/>
  <path fill="white" d="M206.872 50.6302c-3.37975,-1.92076 -7.4367,-3.43191 -12.2964,-4.40022 16.6439,23.2418 -0.562961,33.3448 -8.6349,53.5281 -5.16048,12.9033 -1.86406,27.5457 9.41755,36.4567 -28.6356,-38.8814 22.4745,-49.2322 4.5961,-85.0737l6.91767 -0.510803zm66.0461 62.0156c14.7053,-16.899 23.3104,-36.1573 7.48347,-70.8591 5.96325,2.15887 11.2981,5.1412 15.9934,8.73497l-9.44533 -2.88851 -0.935434 2.10473c7.96054,10.0366 8.95437,45.6222 -10.0559,65.0126l-2.8063 0 -0.233858 -2.10473zm-16.5356 -76.7543c-8.24145,-7.76325 -18.6038,-12.1048 -30.0022,-11.4103 9.1012,14.0119 14.9083,28.7844 15.9024,44.667 -19.529,16.1359 -13.4487,26.4257 -16.8378,37.8851l-3.97559 -0.233858 -0.233858 1.16929 7.71733 0c1.23449,-16.2065 2.34369,-26.75 16.6039,-37.6512 -4.13405,-25.0441 -7.14558,-31.4705 -14.4992,-42.7961 6.02476,-1.18545 14.9341,1.44907 25.325,8.37015z"/>
  <rect fill="#CCCCCC" x="212.817" y="385.178" width="73.8992" height="120.669"/>
  <polygon fill="white" points="212.817,384.908 286.716,384.908 286.716,387.246 215.389,387.246 215.155,505.847 212.817,505.847 "/>
  <path fill="#BF9F4F" d="M210.02 406.635l0.142016 -24.1237 79.0509 0.0218268 -0.00992126 19.6733c44.6814,-7.01093 32.1783,-89.718 -14.5695,-108.603 13.6321,35.4334 9.18114,59.768 -4.02236,76.1661l-2.32923 -1.3938c18.6752,-37.2492 -6.01881,-90.4882 -48.1312,-85.8479 10.9471,14.3195 19.9845,32.0919 19.1327,47.6666 -15.044,16.5433 -12.0223,24.793 -15.2226,34.8854l-0.994111 0.172347 -2.75074 -1.79065c2.04463,-5.07884 17.6539,-59.2087 -29.2011,-66.7993 21.8418,22.716 6.75383,40.7628 -4.33389,61.2403 -9.00964,16.6402 -1.43773,49.0899 23.239,48.7324z"/>
  <path fill="white" d="M203.411 301.062c-3.37975,-1.92076 -7.4367,-3.43191 -12.2964,-4.40022 21.9149,23.2713 5.77446,42.2598 -5.25317,62.466 -6.6566,12.1975 -3.39619,32.4485 7.88542,41.3595 -28.8346,-46.491 31.6355,-59.2657 3.35934,-98.9144l6.30482 -0.510803zm67.1998 68.707c12.6862,-16.8987 17.5606,-41.4647 4.02236,-76.1661 0.745229,0.269858 1.48082,0.552756 2.20649,0.847843 19.4854,45.6214 5.63471,61.9076 -5.68857,76.8101l-0.540284 -1.49187zm-18.6123 -78.3695c-8.24145,-7.76325 -20.6805,-9.79739 -31.8481,-8.87216 10.5911,13.4161 19.7246,30.9192 19.1327,47.4358 -14.917,16.5546 -12.3497,24.5534 -14.9919,35.1162l-3.74485 -1.6183 -0.695339 2.78447 7.71733 0.922961c3.08778,-16.2068 4.50964,-25.3658 15.681,-36.2668 -2.54806,-25.6785 -9.57827,-34.6045 -18.4218,-45.3342 6.02476,-1.18545 16.78,-1.08907 27.1709,5.832z"/>
  <rect fill="#CCCCCC" x="73.1078" y="210.782" width="69.6079" height="129.465"/>
  <polygon fill="white" points="72.6619,210.649 142.716,210.649 142.716,212.988 75.2344,212.988 75.0002,340.247 72.6619,340.247 "/>
  <path fill="#BF9F4F" d="M70.5572 235.543l-0.0184252 -27.7906 74.1456 0.0875906 -0.0810709 25.0061c47.5937,-7.06281 49.8382,-88.4039 -7.74029,-104.29 20.448,29.4679 11.1254,52.6213 -7.94495,74.0895l-1.63701 -0.701575c20.4364,-43.2763 -6.39496,-87.935 -43.3687,-88.3823 9.1012,14.0119 17.0532,26.333 18.0473,42.2155 -19.529,16.1359 -17.1258,29.7964 -20.5149,41.2557l-3.97559 -0.233858c-0.118205,-6.43635 17.1822,-54.4762 -26.8937,-60.5693 16.6439,23.2418 1.58173,33.6515 -6.48992,53.8345 -7.02681,17.5706 2.196,43.035 26.4716,45.4788z"/>
  <path fill="white" d="M62.5655 139.405c-3.37975,-1.92076 -7.13027,-2.20621 -11.99,-3.17452 16.6439,23.2418 1.58117,33.6521 -6.48992,53.8345 -5.15962,12.9025 -2.31647,28.9976 8.96514,37.9086 -28.6356,-38.8814 20.7819,-50.9905 2.90353,-86.832 0.569764,-2.21301 2.77342,-2.79184 6.61125,-1.7365zm66.3526 63.2413c18.7396,-20.0648 27.9074,-42.7575 7.94495,-74.0895 1.16135,0.318047 2.33291,0.665575 3.50136,1.04343 14.745,22.7747 16.3069,49.2049 -8.40615,75.1507l-2.8063 0 -0.233858 -2.10473zm-15.8434 -77.908c-8.24145,-7.76325 -17.7639,-11.8704 -29.1623,-11.1759 9.1012,14.0119 17.0532,26.333 18.0473,42.2155 -17.384,8.16889 -17.1258,29.7964 -20.5149,41.2557l-3.97559 -0.233858 -0.233858 1.16929 7.71733 0c1.23449,-16.2065 6.02079,-30.1207 20.281,-41.0219 -4.13405,-25.0441 -9.29056,-29.0191 -16.6442,-40.3447 6.02476,-1.18545 14.0941,1.21465 24.4851,8.13572z"/>
  <rect fill="#CCCCCC" x="355.417" y="210.782" width="69.6079" height="129.465"/>
  <polygon fill="white" points="354.971,210.649 425.024,210.649 425.024,212.988 357.543,212.988 357.309,340.247 354.971,340.247 "/>
  <path fill="#BF9F4F" d="M352.866 235.543l-0.0184252 -27.7906 74.1456 0.0875906 -0.0810709 25.0061c39.8191,-8.10539 53.318,-79.1201 -0.0796536,-100 16.3344,36.0822 0.220252,53.9751 -15.6056,69.7995l-1.63701 -0.701575c23.9292,-40.5221 4.20095,-83.1099 -39.1978,-88.3829 9.39317,16.1717 14.4272,31.5329 15.7184,44.667 -19.529,16.1359 -13.2647,27.3456 -16.6538,38.8049l-3.97559 -0.233858c-1.24214,-5.84221 12.3024,-58.8532 -32.0448,-63.8808 16.6439,23.2418 4.25084,38.7437 -3.67115,58.9845 -6.66426,17.0269 0.392882,38.8466 23.101,43.6402z"/>
  <path fill="white" d="M336.086 133.52c-0.85578,-0.218835 -1.73877,-0.419811 -2.64983,-0.601229 16.6439,23.2418 4.39909,38.8029 -3.67115,58.9845 -5.15877,12.9016 -2.31647,28.9976 8.96514,37.9086 -27.2942,-42.878 23.6027,-53.6834 -2.64416,-96.2918zm75.1408 69.126c15.8145,-15.5565 31.9524,-33.1668 15.6056,-69.7995 1.16135,0.502016 2.33291,0.665575 3.50136,1.04343 0.705544,-0.61115 20.3811,39.3041 -16.0668,70.8608l-2.8063 0 -0.233858 -2.10473zm-10.5083 -76.8042c-7.88372,-6.69033 -18.4686,-11.5951 -30.3265,-12.2803 8.71824,14.7781 14.29,29.6532 15.7184,44.667 -19.529,16.1359 -13.2647,27.3456 -16.6538,38.8049l-3.97559 -0.233858 -0.233858 1.16929 7.71733 0c0.894048,-16.0362 1.50945,-27.3447 16.42,-38.571 -4.61991,-21.6434 -7.29411,-29.1439 -14.3153,-42.7961 6.02419,-0.159591 15.2581,2.93471 25.6493,9.2401z"/>
 </g>
</svg>
