<?xml version="1.0" encoding="UTF-8" standalone="no"?>
<!-- Created with Inkscape (http://www.inkscape.org/) -->
<svg
   xmlns:dc="http://purl.org/dc/elements/1.1/"
   xmlns:cc="http://creativecommons.org/ns#"
   xmlns:rdf="http://www.w3.org/1999/02/22-rdf-syntax-ns#"
   xmlns:svg="http://www.w3.org/2000/svg"
   xmlns="http://www.w3.org/2000/svg"
   xmlns:sodipodi="http://sodipodi.sourceforge.net/DTD/sodipodi-0.dtd"
   xmlns:inkscape="http://www.inkscape.org/namespaces/inkscape"
   width="524"
   height="550.14215"
   id="svg1315"
   sodipodi:version="0.32"
   inkscape:version="0.46"
   version="1.0"
   sodipodi:docbase="Z:\private\svg"
   sodipodi:docname="Suonenjoki_coat_of_arms.svg"
   inkscape:output_extension="org.inkscape.output.svg.inkscape">
  <defs
     id="defs3">
    <inkscape:perspective
       sodipodi:type="inkscape:persp3d"
       inkscape:vp_x="0 : 275.07108 : 1"
       inkscape:vp_y="0 : 1000 : 0"
       inkscape:vp_z="524 : 275.07108 : 1"
       inkscape:persp3d-origin="262 : 183.38072 : 1"
       id="perspective20" />
    <linearGradient
       id="linearGradient5896">
      <stop
         style="stop-color: rgb(226, 255, 255); stop-opacity: 1;"
         offset="0"
         id="stop5898" />
      <stop
         style="stop-color: rgb(255, 255, 255); stop-opacity: 0;"
         offset="1"
         id="stop5900" />
    </linearGradient>
    <linearGradient
       id="linearGradient5866">
      <stop
         style="stop-color: rgb(31, 134, 36); stop-opacity: 1;"
         offset="0"
         id="stop5868" />
      <stop
         style="stop-color: rgb(31, 13, 71); stop-opacity: 1;"
         offset="1"
         id="stop5870" />
    </linearGradient>
  </defs>
  <sodipodi:namedview
     inkscape:document-units="mm"
     id="base"
     pagecolor="#ffffff"
     bordercolor="#666666"
     borderopacity="1.0"
     inkscape:pageopacity="0.0"
     inkscape:pageshadow="2"
     inkscape:zoom="0.53588673"
     inkscape:cx="262.25596"
     inkscape:cy="258.29383"
     inkscape:current-layer="layer13"
     showgrid="false"
     inkscape:grid-bbox="false"
     inkscape:grid-points="false"
     gridtolerance="1px"
     inkscape:window-width="964"
     inkscape:window-height="732"
     inkscape:window-x="44"
     inkscape:window-y="0">
    <inkscape:grid
       id="GridFromPre046Settings"
       type="xygrid"
       originx="0px"
       originy="0px"
       spacingx="2px"
       spacingy="2px"
       color="#0000ff"
       empcolor="#0000ff"
       opacity="0.2"
       empopacity="0.4"
       empspacing="5" />
  </sodipodi:namedview>
  <metadata
     id="metadata4">
    <rdf:RDF>
      <cc:Work
         rdf:about="">
        <dc:format>image/svg+xml</dc:format>
        <dc:type
           rdf:resource="http://purl.org/dc/dcmitype/StillImage" />
      </cc:Work>
    </rdf:RDF>
  </metadata>
  <g
     inkscape:label="vaakunan_muoto"
     inkscape:groupmode="layer"
     id="layer1"
     style="opacity: 1; display: inline;"
     transform="translate(12, -14.36)">
    <path
       style="fill: rgb(0, 0, 0); fill-opacity: 1; fill-rule: evenodd; stroke: rgb(0, 0, 0); stroke-width: 1px; stroke-linecap: butt; stroke-linejoin: miter; stroke-opacity: 1;"
       d="M -11.5,14.859979 L 511.5,14.859979 L 493,350.50214 C 489.8,425.50213 400,564.00213 250,564.00213 C 100,564.00213 10.2,425.50213 7,350.50214 L -11.5,14.859979 z "
       id="path1383"
       sodipodi:nodetypes="cccccc" />
  </g>
  <g
     inkscape:groupmode="layer"
     id="layer11"
     inkscape:label="rengas"
     style="opacity: 1; display: inline;"
     transform="translate(12, -14.36)">
    <path
       style="opacity:1;fill:#bf9f4f;fill-opacity:1;fill-rule:evenodd;stroke:rgb(0, 106, 0);stroke-width:1.70000000000000000;stroke-linecap:square;stroke-linejoin:miter;stroke-miterlimit:4;stroke-dasharray:none;stroke-opacity:0"
       d="M 247.03125,65.1875 C 130.32469,65.1875 35.59375,159.91844 35.59375,276.625 C 35.59375,393.33156 130.32469,488.03125 247.03125,488.03125 C 363.73781,488.03125 458.43752,393.33156 458.4375,276.625 C 458.4375,159.91844 363.73781,65.1875 247.03125,65.1875 z M 247.03125,124.34375 C 331.08197,124.34375 399.28125,192.57428 399.28125,276.625 C 399.28126,360.67572 331.08197,428.875 247.03125,428.875 C 162.98053,428.87499 94.75,360.67572 94.75,276.625 C 94.749999,192.57428 162.98053,124.34375 247.03125,124.34375 z "
       id="path5769" />
  </g>
  <g
     inkscape:groupmode="layer"
     id="layer13"
     inkscape:label="lehdet"
     style="opacity: 1; display: inline;"
     transform="translate(12, -14.36)">
    <path
       style="fill:#bf9f4f;fill-opacity:1;fill-rule:evenodd;stroke:none;stroke-width:1.30000000000000000;stroke-linecap:butt;stroke-linejoin:miter;stroke-miterlimit:4;stroke-dasharray:none;stroke-opacity:1"
       d="M 248.25,134.1875 C 246.28482,134.12937 245.36532,136.96967 244.34375,139.8125 C 243.15984,143.10705 243.23074,145.71485 241.65625,146.53125 C 240.08176,147.34765 239.58355,145.31449 238.84375,143.75 C 237.99765,141.9607 239.07313,138.31678 236.0625,140.9375 C 234.69829,142.12505 234.07645,143.63003 232.09375,146.3125 C 230.11105,148.99497 229.46624,151.0731 228.125,151.65625 C 226.78376,152.2394 227.06863,150.60769 226.71875,148.625 C 226.42855,146.98053 228.51637,142.75806 225.3125,145.59375 C 223.85307,146.88547 222.43693,150.32647 220.6875,154.875 C 218.93806,159.42353 220.09319,162.26507 218.34375,163.78125 C 216.5943,165.29743 215.60355,162.761 214.84375,160.75 C 214.02553,158.58441 217.45334,151.52254 211.34375,157.71875 C 210.29429,158.7831 209.11217,159.80916 208.0625,162.375 C 207.01285,164.94083 207.35826,164.26787 207.125,168 C 206.89174,171.73213 207.72935,172.88282 208.3125,177.78125 C 208.89564,182.67967 209.16434,183.73996 208.40625,184.90625 C 207.64817,186.07253 205.29638,184.81128 203.96875,182.46875 C 201.91389,178.84308 203.35577,175.11088 201.40625,176.625 C 199.71131,177.94139 198.54352,180.47211 197.84375,184.4375 C 197.4655,189.31229 198.57096,193.07081 201.65625,196.8125 C 203.52232,199.26171 203.16967,200.13611 202.59375,201 C 202.24387,201.52483 200.59543,201.23326 199.3125,201 C 195.68385,200.34026 196.98659,194.30497 194.1875,196.8125 C 193.07757,197.8068 192.66071,201.00503 193.59375,203.6875 C 194.52678,206.36997 194.01089,206.32171 195.46875,209.0625 C 196.92661,211.80329 197.4548,211.85715 199.4375,214.65625 C 201.42019,217.45536 203.81445,218.96708 203.40625,220.25 C 202.99806,221.53292 199.09541,221.18079 197.8125,219.78125 C 195.91453,217.71073 193.88309,215.04884 193.125,217.90625 C 192.34134,222.02135 193.57127,225.5121 195.46875,227.9375 C 198.4509,230.25252 200.94373,232.27848 202.46875,236.09375 C 202.06056,236.38532 199.91182,236.82031 197.8125,235.1875 C 195.93481,233.72706 193.9414,229.40989 193.125,234.25 C 192.8237,236.03627 192.67538,237.98602 195.25,242.0625 C 196.64955,244.27845 198.62446,246.30553 203.40625,250.5625 C 213.56366,259.60506 237.17961,273.42416 239.3125,278.09375 C 241.05365,281.90571 241.0597,285.42802 238.84375,288.34375 C 236.6278,291.25949 234.14257,292.12632 230.46875,289.75 C 226.79493,287.37367 227.53849,284.38363 224.15625,278.84375 C 220.774,273.30385 217.74497,269.58872 215.0625,266.90625 C 213.65327,265.49701 206.32085,261.05049 199.90625,256.09375 C 193.49165,251.13702 190.62995,246.81892 187.53125,246.375 C 182.34126,245.63149 186.83371,248.80525 188,252.1875 C 188.95354,254.95277 190.2765,258.14788 188.46875,258.03125 C 186.661,257.91463 184.63001,254.86774 180.78125,251.71875 C 176.93248,248.56976 175.51887,247.14629 173.0625,245.4375 C 171.44997,244.3646 169.80501,244.02027 168.40625,244.96875 C 166.24861,247.06807 169.21484,246.71931 170.03125,248.46875 C 170.84765,250.21817 172.62053,251.61886 171.6875,251.96875 C 170.75447,252.31865 168.99497,250.92466 166.3125,249.875 C 163.63003,248.82534 163.79491,248.13114 160.9375,247.78125 C 158.08008,247.43136 156.8761,247.43137 153.84375,247.78125 C 150.81139,248.13114 149.88816,248.51543 148.8125,249.15625 C 146.07171,250.78906 149.49164,250.15041 150.4375,250.8125 C 151.6038,251.62889 152.9534,251.92104 150.5625,252.5625 C 148.17159,253.20396 146.47319,252.90849 140.875,253.375 C 135.2768,253.84153 130.3856,252.77821 129.6875,254.3125 C 128.36084,257.22824 134.6052,256.61943 137.8125,258.71875 C 141.01979,260.81806 142.50781,263.03739 140.875,262.6875 C 139.27843,262.34539 133.77761,261.86663 128.9375,261.75 C 124.09739,261.63337 121.29922,261.27512 118.84375,262.59375 C 114.93451,264.69306 120.67913,265.01731 120.0625,267 C 119.44587,268.98271 119.77232,269.30051 117.90625,270.875 C 116.04018,272.4495 114.303,271.91686 111.1875,272.5 C 107.91763,273.11205 105.38513,273.61363 104.96875,274.8125 C 103.93584,277.78654 107.16798,275.76507 111.25,277.28125 C 113.84187,278.24396 114.52065,277.86943 113.9375,279.96875 C 113.35435,282.06805 110.45925,282.05303 106.84375,284.96875 C 103.22824,287.88447 99.379468,288.65096 100.3125,291.625 C 101.24553,294.59903 105.55525,295.07741 111.25,297.6875 C 116.84819,300.25334 119.82729,300.18611 120.46875,302.34375 C 121.11536,304.51871 118.87059,305.75468 115.21875,305.84375 C 110.43695,305.96037 109.85156,305.31335 108.21875,307.9375 C 107.2737,309.45633 109.73438,310.50279 113,312.71875 C 118.32735,315.47908 121.48062,317.04336 125.96875,317.03125 C 130.16739,316.91462 133.87723,315.93778 134.34375,316.8125 C 134.81027,317.68721 132.82756,318.66519 127.8125,320.53125 C 124.28744,321.84289 119.26702,319.66156 120.375,323.21875 C 120.90157,324.90932 126.8778,326.14007 129.09375,327.65625 C 133.54516,329.04267 133.94075,330.03555 137.625,329.875 C 140.89061,329.87501 142.88656,329.44686 143.21875,330.34375 C 143.80189,331.91825 141.83034,332.20871 139.03125,333.375 C 136.64085,334.37099 130.38059,332.49917 134.8125,336.40625 C 135.55614,337.06183 139.24889,336.8605 142.28125,337.09375 C 146.82916,337.24515 148.01816,337.19571 151.625,335.9375 C 153.95759,335.23772 155.98968,333.71485 156.28125,334.53125 C 156.57281,335.34764 155.69697,337.23606 152.78125,339.21875 C 150.37015,340.85829 145.43249,339.73467 149.28125,343.875 C 152.50394,346.49219 156.95635,346.84915 160.9375,346.21875 C 164.20311,345.63559 164.572,344.46818 168.1875,342.71875 C 171.80302,340.96931 172.71485,339.33148 173.53125,340.03125 C 174.34765,340.73102 173.4202,342.35102 171.4375,345.5 C 169.45481,348.64898 163.38673,350.82116 167.46875,351.8125 C 171.8718,352.41971 173.0251,352.47829 176.46875,350.875 C 179.50112,349.06725 182.28851,348.178 185.4375,344.5625 C 188.58648,340.947 190.75865,337.40206 191.75,337.34375 C 192.74135,337.28544 190.57254,340.84487 189.40625,344.34375 C 188.23996,347.84261 183.56362,350.3524 187.0625,351.34375 C 193.57393,350.45023 199.72835,345.13415 203.96875,340.375 C 208.9838,334.77679 211.10381,334.18245 216.46875,324.96875 C 221.83369,315.75505 221.47267,310.93609 227.1875,306.5625 C 232.85288,302.22675 239.1011,306.30497 239.28125,307.46875 C 239.85958,311.20471 241.41406,322.89063 240.34375,347.6875 C 239.27344,372.48438 233.95734,404.3225 235,406.65625 C 236.25848,409.47307 260.0315,409.99332 260.1875,405.03125 C 260.29302,401.6749 254.89724,335.25978 258.03125,310.1875 C 258.19619,308.86798 264.06563,302.80756 268.21875,304.28125 C 272.37187,305.75495 271.44093,310.19899 274.65625,316.09375 C 277.87157,321.9885 277.04335,322.11422 281.0625,327.875 C 285.08166,333.63579 285.89576,333.49818 290.71875,339.125 C 295.54174,344.75182 296.65039,346.09151 300.53125,348.21875 C 304.2227,348.78956 306.28456,351.15205 309.40625,349.875 C 309.94215,348.20034 307.46906,347.03679 306.53125,343.6875 C 305.59346,340.3382 304.0622,336.75897 305,336.625 C 305.93779,336.49104 307.8116,339.6999 310.625,342.78125 C 314.33843,347.90841 319.67426,350.41431 326.09375,349.3125 C 326.8306,348.17374 325.00927,347.02751 323.9375,344.75 C 322.86571,342.47247 320.00388,340.38846 321.8125,340.1875 C 323.62111,339.98654 326.49849,342.0619 331.1875,343.9375 C 335.87649,345.81312 339.32072,347.09824 341.53125,347.03125 C 339.86262,344.02709 337.91189,341.92139 338,339.15625 C 340.07656,338.08447 343.89144,339.54022 348.3125,339.40625 C 352.73359,339.27229 356.66028,339.33075 358,338.125 C 359.33972,336.91926 354.27902,335.59449 352.1875,334.25 C 349.77571,332.69964 345.69572,331.96023 347.90625,330.6875 C 350.11679,329.41477 356.36855,329.73669 362.53125,329.46875 C 368.69394,329.20079 376.43468,329.47092 375.6875,328.4375 C 374.44101,326.71351 374.32714,327.29279 370.5625,324.75 C 367.71901,322.8294 364.47263,320.16134 366.28125,318.21875 C 368.08988,316.27615 371.98681,316.65026 377.8125,315.8125 C 383.90316,314.93664 388.34697,314.03506 389.5,311.4375 C 390.6849,308.76816 388.22516,310.24345 385.84375,307.78125 C 383.26011,305.10996 381.33673,306.36291 381.875,302.96875 C 382.27453,300.44949 386.09254,300.28186 389.84375,298.40625 C 393.59495,296.53065 395.41089,296.67928 394.875,294.46875 C 394.33911,292.25822 392.54173,292.10797 387.71875,289.5625 C 382.89576,287.01704 379.06729,286.47832 378.0625,284.46875 C 377.05771,282.45916 380.8741,283.00493 383.6875,281.53125 C 386.5009,280.05757 390.04934,280.23715 389.3125,278.5625 C 388.57567,276.88784 385.03709,276.68811 380.75,274.8125 C 376.46289,272.9369 373.5942,272.67016 372.1875,271.0625 C 370.78079,269.45485 373.65131,269.71471 375.125,268.375 C 376.59869,267.03527 379.4692,266.99148 378.0625,265.71875 C 376.6558,264.44601 373.78709,264.487 369.5,263.28125 C 365.2129,262.07551 362.5809,262.34869 360.90625,260.875 C 359.2316,259.40132 361.84345,259.14788 362.78125,257.40625 C 363.71904,255.66462 365.96502,255.73236 363.6875,255.0625 C 361.40999,254.39264 359.18033,254.31684 353.6875,254.71875 C 348.19466,255.12067 344.63009,256.53604 342.6875,255.53125 C 340.74492,254.52645 344.29859,253.09899 345.90625,250.6875 C 347.5139,248.276 349.35318,248.37964 347.8125,247.84375 C 346.27181,247.30786 344.43901,247.22278 339.75,248.5625 C 335.061,249.90221 332.7195,251.45096 330.375,251.25 C 328.03051,251.04904 330.375,249.49163 330.375,247.75 C 330.37501,246.00836 332.85348,243.94632 330.375,244.28125 C 327.89653,244.61618 325.4257,246.68225 320.46875,249.09375 C 315.51178,251.50524 313.27767,253.70529 310.53125,253.90625 C 307.78482,254.10721 308.60509,251.91582 309.46875,249.90625 C 310.28996,247.99544 316.43263,243.08674 308.40625,245.875 C 301.59675,248.24053 292.4053,259.76993 286.21875,266.65625 C 275.96261,278.07249 277.10059,281.32424 265,289.28125 C 263.35911,290.49887 259.60936,292.07812 257.96875,289.28125 C 257.96874,289.28124 254.53288,283.06007 258.4375,278.09375 C 262.57212,272.83489 276.40745,269.20948 285.125,261.0625 C 294.08716,252.68692 291.68919,256.05634 296.9375,249.875 C 302.18582,243.69366 306.44615,240.47404 307.4375,237.5 C 308.42886,234.52596 303.4056,237.31252 300.40625,238.625 C 296.48087,240.34271 294.14174,241.29491 294.375,238.4375 C 294.60825,235.58009 298.92411,233.13559 302.65625,227.1875 C 306.38839,221.23942 308.72935,216.99497 309.3125,214.3125 C 309.89563,211.63004 306.41232,215.27085 304.15625,216.625 C 302.90991,217.3731 298.13796,219.35776 299.03125,216.96875 C 300.70892,212.48197 301.33594,213.53569 302.96875,207.9375 C 304.60157,202.3393 307.19852,195.60532 305.5625,194.59375 C 303.61154,193.38743 302.6596,197.94643 300.09375,199.8125 C 297.5279,201.67856 296.88309,204.99302 296.125,202.71875 C 295.3669,200.44448 299.15871,195.78611 299.21875,190.03125 C 299.28466,183.53167 300.15832,178.30981 299.5,176.40625 C 297.25745,169.92191 295.50455,178.214 294.375,181.75 C 293.62347,184.10259 290.59123,189.5159 289.25,187.125 C 287.90877,184.7341 289.11663,179.65177 289,172.1875 C 288.88338,164.72323 289.64713,159.85107 288.78125,157.25 C 286.68364,150.94887 285.91793,159.22902 284.5625,162.15625 C 283.12291,165.26521 281.83286,168.40373 280.375,167.0625 C 278.91715,165.72126 279.5664,161.94419 278.75,156.8125 C 277.93358,151.68081 278.48057,147.71005 277.125,146.53125 C 273.93113,143.75388 275.48429,147.26834 274.53125,150.96875 C 273.89263,153.44836 273.89313,156.22265 271.96875,155.40625 C 270.04436,154.58986 269.40959,151.53627 266.84375,147.6875 C 264.2779,143.83874 263.23493,140.75809 261.71875,140 C 260.20256,139.24192 261.24777,142.32367 260.78125,144.65625 C 260.31475,146.98885 261.47656,150.04352 259.84375,149.34375 C 258.21093,148.64398 255.25203,141.59967 254.75,140.5625 C 253.89684,138.79993 250.27077,134.59989 248.65625,134.25 C 248.5157,134.21954 248.38101,134.19138 248.25,134.1875 z "
       id="path5796"
       sodipodi:nodetypes="cssssssssssssssssssccsssssssscccssssssssssssssccssssssssssssssssssssssssssccsssccsssccssccsssccsssccsssssssssssccssccsssccssssssssssssssssssssssssssssssssssssssscssssssssssssssscsssssssssssssssssc" />
  </g>
  <g
     inkscape:groupmode="layer"
     id="layer15"
     inkscape:label="ruodot"
     style="opacity: 1; display: inline;"
     transform="translate(12, -14.36)">
    <path
       style="fill: rgb(0, 0, 0); fill-opacity: 1; fill-rule: evenodd; stroke: none; stroke-width: 1px; stroke-linecap: butt; stroke-linejoin: miter; stroke-opacity: 1;"
       d="M 250.0625,158.625 C 248.74299,158.625 250.55262,193.49025 248.8125,193.6875 C 248.17131,193.76018 242.57653,189.66631 239.65625,186.59375 C 235.34198,182.05452 235.55045,180.50975 233.40625,176.46875 C 231.26205,172.42776 231.22194,164.43169 230.84375,166.9375 C 230.67863,168.03155 229.52851,171.71587 232.25,177.40625 C 234.97148,183.09663 237.26541,188.15092 241.71875,190.625 C 246.17209,193.09908 248.93465,197.12597 249.46875,197.90625 C 250.55845,199.49819 249.98426,223.72194 249.375,224.6875 C 248.28101,226.42124 242.32757,221.19555 235.8125,216 C 229.29743,210.80444 227.81095,208.77726 223.6875,201.4375 C 219.56404,194.09774 220.86982,186.28126 220.375,186.28125 C 219.88018,186.28125 218.71861,194.01527 221.6875,201.4375 C 224.65639,208.85973 225.2401,209.45367 232.25,215.96875 C 239.25989,222.48382 247.46236,227.7668 248.6875,229.375 C 249.7967,230.831 249.26,252.25141 248.90625,253.5 C 248.42336,255.20446 240.96996,251.81539 234.125,246.125 C 227.28006,240.43462 227.8544,239.19128 222.90625,232.59375 C 217.9581,225.99621 215.66326,220.65716 214.34375,219.75 C 213.02424,218.84284 212.59439,221.38158 217.625,228.96875 C 222.65562,236.55592 226.46924,242.09424 234.46875,250.09375 C 242.46827,258.09326 248.15328,258.00861 248.25,259.09375 C 246.91397,269.46524 251.57675,282.66455 243.8125,290.6875 C 242.10599,292.01469 240.99507,293.82607 239.5625,295.40625 C 233.21237,297.9628 220.9171,294.68997 219.28125,293.71875 C 218.7441,293.39984 209.98304,283.4335 201.40625,276.09375 C 192.82945,268.75399 190.58651,266.02235 184.375,263.90625 C 174.38311,260.50227 165.09116,262.20656 164.84375,263.03125 C 164.59634,263.85594 178.49231,264.08066 184.90625,267.1875 C 191.21076,270.24133 199.59513,278.81481 206.6875,285 C 213.77985,291.18519 213.94666,292.02236 212.34375,292.40625 C 210.63026,292.81663 187.17233,291.52568 185.625,290.78125 C 183.92605,289.96389 175.48022,280.30138 173.625,278.8125 C 167.33045,273.76086 161.15056,270.31871 154.15625,267.65625 C 152.28096,266.9424 143.77606,266.11282 143.28125,266.9375 C 142.78643,267.76219 146.55317,267.50662 152.875,269.5625 C 158.98271,271.54874 159.51267,272.55186 166.6875,277.5 C 173.86232,282.44815 181.91072,290.54507 180.75,291.09375 C 179.47719,291.6954 163.34496,290.38459 156.5,289.3125 C 152.10801,288.3474 149.15233,282.88537 137.28125,278.25 C 129.44667,276.43568 123.03994,275.8927 121.6875,276.75 C 118.96844,278.47356 125.12857,276.98844 132.25,278.71875 C 142.09314,281.11036 143.24544,283.42607 147.78125,286.3125 C 152.31706,289.19892 151.8575,290.6303 148.0625,291.3125 C 139.45063,292.86056 115.09375,291.9305 115.09375,293.25 C 115.09375,294.56951 151.11524,292.75987 151.3125,294.5 C 151.38518,295.14119 149.8921,300.56678 147.28125,303.90625 C 143.90831,308.22052 143.50975,307.9808 139.46875,310.125 C 135.42776,312.2692 127.43169,312.34057 129.9375,312.71875 C 131.03155,312.88387 134.71587,314.00272 140.40625,311.28125 C 146.09663,308.55977 148.83843,306.26583 151.3125,301.8125 C 153.78658,297.35916 154.75097,294.3466 155.53125,293.8125 C 157.12319,292.7228 181.59694,294.95321 182.5625,295.5625 C 184.29624,296.65649 181.13305,302.35993 175.9375,308.875 C 170.74194,315.39007 168.74601,316.90779 161.40625,321.03125 C 154.06649,325.15471 146.25001,323.84894 146.25,324.34375 C 146.25,324.83857 153.98402,325.96888 161.40625,323 C 168.82848,320.03111 169.42244,319.47863 175.9375,312.46875 C 182.45257,305.45886 185.6418,297.47514 187.25,296.25 C 188.706,295.1408 211.75141,297.33376 213,297.6875 C 214.70446,298.17039 209.44037,306.9988 203.75,313.84375 C 198.05962,320.68869 196.84754,320.11434 190.25,325.0625 C 183.65246,330.01065 178.28216,332.30548 177.375,333.625 C 176.46784,334.94451 179.00659,335.37438 186.59375,330.34375 C 194.18092,325.31313 199.71924,321.49954 207.71875,313.5 C 215.71826,305.50048 217.50862,298.44046 218.59375,298.34375 C 220.6979,298.1562 235.77948,300.25464 239.5625,300.65625 C 248.04479,305.45064 251.30601,309.99503 254.13824,315.51264 C 256.32785,321.3627 255.24842,312.54742 255.69978,309.10066 C 255.91504,304.34562 258.83927,302.84138 262.7366,300.37296 C 266.28763,299.21596 277.42664,297.81003 279.0625,298.78125 C 279.59965,299.10016 289.2982,308.59775 297.875,315.9375 C 306.4518,323.27726 308.69472,326.04015 314.90625,328.15625 C 324.89814,331.56023 333.2526,330.29345 333.5,329.46875 C 333.74741,328.64406 320.78892,327.95059 314.375,324.84375 C 308.07049,321.78992 299.6861,313.21645 292.59375,307.03125 C 285.5014,300.84606 284.3971,300.47764 286,300.09375 C 287.71349,299.68337 309.51514,299.34932 311.0625,300.09375 C 312.76145,300.91111 320.76978,309.16736 322.625,310.65625 C 328.91955,315.70789 335.09943,319.15003 342.09375,321.8125 C 343.96904,322.52635 352.47392,323.35595 352.96875,322.53125 C 353.46357,321.70656 349.69684,321.96212 343.375,319.90625 C 337.26729,317.92001 336.73734,316.91688 329.5625,311.96875 C 322.38768,307.0206 313.62053,299.39241 314.78125,298.84375 C 316.05406,298.2421 332.43631,297.67791 339.28125,298.75 C 343.67324,299.7151 346.59769,305.17711 358.46875,309.8125 C 366.30333,311.62682 372.74133,312.16981 374.09375,311.3125 C 376.81281,309.58894 370.65267,311.07406 363.53125,309.34375 C 353.68811,306.95214 352.53582,304.63641 348,301.75 C 343.46419,298.86358 343.92374,297.43218 347.71875,296.75 C 356.33062,295.20194 380.68749,296.16326 380.6875,294.84375 C 380.6875,293.52424 344.63474,295.30261 344.4375,293.5625 C 344.36482,292.92131 345.88916,287.52698 348.5,284.1875 C 351.87294,279.87323 352.2715,280.08171 356.3125,277.9375 C 360.35349,275.7933 368.34957,275.75319 365.84375,275.375 C 364.7497,275.20988 361.06539,274.05976 355.375,276.78125 C 349.68462,279.50273 346.94282,281.79667 344.46875,286.25 C 341.99467,290.70334 341.03029,293.71591 340.25,294.25 C 338.65806,295.3397 315.1218,295.92176 314.15625,295.3125 C 312.42251,294.21851 315.08569,287.10881 320.28125,280.59375 C 325.47681,274.07868 327.47274,272.56095 334.8125,268.4375 C 342.15226,264.31404 349.99999,265.65108 350,265.15625 C 350,264.66143 342.23473,263.49986 334.8125,266.46875 C 327.39027,269.43764 326.82757,270.02136 320.3125,277.03125 C 313.79743,284.04114 311.07694,293.39984 309.46875,294.625 C 308.01275,295.7342 286.59233,295.19749 285.34375,294.84375 C 283.63929,294.36086 288.90337,285.5012 294.59375,278.65625 C 300.28413,271.81131 301.49621,272.38566 308.09375,267.4375 C 314.69129,262.48935 320.06158,260.19452 320.96875,258.875 C 321.87591,257.55549 319.30593,257.15687 311.71875,262.1875 C 304.13158,267.21812 298.62452,271.00047 290.625,279 C 282.62549,286.99952 280.83512,294.05954 279.75,294.15625 C 277.64585,294.3438 262.64843,294.14551 259.69009,293.66143 C 256.55125,291.59948 255.19684,289.59436 253.1769,287.19364 C 250.62035,280.84351 251.87252,261.41709 252.84375,259.78125 C 253.16266,259.2441 265.9415,252.5768 273.28125,244 C 280.62101,235.4232 283.35266,233.18027 285.46875,226.96875 C 288.87273,216.97686 287.6372,208.62242 286.8125,208.375 C 285.98781,208.12759 285.29434,221.08607 282.1875,227.5 C 279.13367,233.80451 272.64276,241.47014 264.125,248.5625 C 256.89322,254.58407 254.5714,254.44666 254.1875,252.84375 C 253.77712,251.13026 253.44308,229.32858 254.1875,227.78125 C 255.00486,226.0823 265.35485,220.16771 266.84375,218.3125 C 271.89539,212.01795 275.33755,205.86931 278,198.875 C 278.71385,196.99971 279.54345,188.46356 278.71875,187.96875 C 277.89406,187.47393 278.61836,191.74067 276.5625,198.0625 C 274.57626,204.17021 273.10441,204.23142 268.15625,211.40625 C 263.2081,218.58107 253.45492,225.22323 252.90625,224.0625 C 252.3046,222.78969 252.20915,206.15745 253.28125,199.3125 C 254.24635,194.92051 262.30212,191.30857 266.9375,179.4375 C 268.75182,171.60292 269.29479,165.19618 268.4375,163.84375 C 266.71394,161.12469 268.1678,167.25356 266.4375,174.375 C 264.04589,184.21814 262.44891,183.96419 259.5625,188.5 C 256.67608,193.03581 252.65094,197.01376 251.96875,193.21875 C 250.42069,184.60688 251.38202,158.625 250.0625,158.625 z M 252.87053,293.14565 C 257.93661,297.17734 255.52115,298.86016 253.07031,301.88337 C 248.34479,301.42701 241.27221,300.94092 244,295.09375 C 246.79434,293.22265 249.22353,289.69554 252.87053,293.14565 z "
       id="path5977"
       sodipodi:nodetypes="csssssssssssssssssssscccssssssssssssssccssssssssssssssssssssssssssccccssssssssssssssccssssssssssssssssssssssssssccssssssssssssssccssssccccc" />
  </g>
</svg>
