<?xml version="1.0" encoding="UTF-8"?>
<!DOCTYPE svg PUBLIC "-//W3C//DTD SVG 1.1//EN" "http://www.w3.org/Graphics/SVG/1.1/DTD/svg11.dtd">
<!-- Creator: CorelDRAW -->
<svg xmlns="http://www.w3.org/2000/svg" xml:space="preserve" width="500px" height="560px" shape-rendering="geometricPrecision" text-rendering="geometricPrecision" image-rendering="optimizeQuality" fill-rule="evenodd" clip-rule="evenodd"
viewBox="0 0 500 560"
 xmlns:xlink="http://www.w3.org/1999/xlink"
 xmlns:svg="http://www.w3.org/2000/svg"
 version="1.0">
 <g id="Layer_x0020_1">
  <metadata id="CorelCorpID_0Corel-Layer"/>
  <path id="path1937" fill="#0057F0" stroke="#0057F0" stroke-width="0.992126" d="M0.161858 0.722835l499.554 -0.121606 -15.0117 318.804c-1.11487,319.797 -466.225,317.973 -468.454,-0.148536l-16.088 -318.534z"/>
  <path fill="#CCCCCC" d="M97.1995 52.0115l-6.24473 -6.62627 -0.564378 -3.77858 -1.36998 -3.13937 6.13219 -6.02079c2.97354,-1.38104 5.53351,-1.10636 7.68019,0.824032l7.16655 7.0132 31.03 -29.2408c31.6006,37.6852 62.2114,75.2049 88.8381,112.062l22.5352 -12.1927 20.5503 12.5311 89.0935 -105.272c1.54375,-0.57515 3.08721,-0.322583 4.63153,0.758268l23.3218 21.7982 15.2187 -13.8478c1.88164,-1.24498 3.76328,-1.24866 5.64492,-0.00992126l8.37213 6.28866 -0.246898 2.20762 3.12406 3.17651 -15.5982 15.7416c9.2041,7.75333 17.0629,16.5149 22.9564,26.7517l3.85427 4.41666 -90.8082 80.0734c10.2957,8.45008 20.7723,16.1745 31.8974,21.3103l1.10183 4.31263 3.65783 2.30797 -4.4691 18.2874 -4.45692 1.67669 -26.8773 -16.4628 0.232158 30.5467c28.8459,27.1086 59.7614,52.9756 92.7465,77.6016l-1.37934 3.41972 4.25962 3.42255 -30.8823 27.6157 7.93446 8.84693 0.322866 5.00344 4.09351 3.85087 -7.59997 7.7573c-1.83543,1.34844 -3.6703,1.86973 -5.50488,1.56359l-12.181 -11.7403 -30.2196 27.2509 -25.1875 -28.6342 -1.84309 52.7352 -47.6972 0.242362 -0.532914 4.07509 10.1282 1.70589 5.76255 6.61947 1.76428 12.7233 6.59339 -0.214866 6.65178 7.72668 3.53112 16.674 9.01389 0.189921 6.78558 6.20249 4.27578 15.5237 32.2135 -0.0297638 5.73931 6.60615 4.88211 23.9638 -257.701 -0.336473 -8.78344 -10.5273 7.29468 -24.3992 33.1444 0.154205 4.3886 -16.4203c0.948189,-2.95654 2.7241,-4.25764 5.32829,-3.90331l11.0463 -0.00907087 0.133228 -12.4512c1.22343,-3.24737 4.1023,-6.08117 8.6366,-8.50026l8.623 0.040252 6.48142 -20.3791 17.3937 -0.59641 -0.0181417 -4.59581 -45.7685 0.143717 -6.32608 -7.27541 -1.21096 -45.0698 -17.5873 23.6378c-3.60964,2.24674 -6.80514,2.83777 -9.58621,1.77421l-21.117 -20.628 -10.8391 11.4843c-2.61241,1.64353 -5.22454,2.04576 -7.8361,1.20699l-11.3808 -10.6637 0.293669 -6.85049 9.76706 -13.5451 -27.4198 -27.006 91.8913 -82.757 -0.0141732 -34.935 -30.5501 17.7982 -0.282331 -6.50552 -3.50929 0.124441c-5.98507,-7.86955 -8.5561,-16.2567 -3.05603,-22.3668l36.2549 -25.6241 -89.0428 -69.9038 -3.17821 -4.90025 -4.16835 -4.02236 28.6243 -28.3873z"/>
  <polygon fill="#0057F0" points="127.394,56.7956 143.225,40.3447 164.331,64.245 149.743,78.5231 "/>
  <polygon fill="#0057F0" points="340.945,328.701 357.086,315.043 377.882,338.633 360.811,354.153 "/>
  <path fill="white" d="M97.1995 52.0115l-28.6243 28.3873 4.16835 4.02236c9.52583,-7.26605 19.0514,-17.7687 28.5778,-29.1776l-4.12186 -3.23206zm67.7651 107.214l-36.2549 25.6241c-5.50007,6.11008 -2.92904,14.4972 3.05603,22.3668l1.82976 -0.0649134 0.00680315 -17.1967 33.8329 -21.4172 -0.620788 -1.55197 4.65591 -2.79354 -6.5058 -4.96659zm5.88501 72.3221l21.1068 -18.6236 0.620788 3.72473 -13.3469 12.7261 15.2093 13.6573 -2.17276 2.17276 -15.8301 -13.6573 -5.58709 5.58709 -11.4846 11.1742 15.5197 15.5197 -1.86236 1.86236 -16.7613 -14.5885 -20.1756 16.7613 17.0717 17.0717 -2.17276 2.17276 -17.0717 -16.7613 -43.7655 38.4888 23.2795 22.038 -2.17276 3.10394 -24.2107 -22.038 -8.2355 6.06019 -4.57739 -4.50851 91.8913 -82.757 -0.0141732 -34.935 0.0861733 -1.80936 4.65591 -3.41433 0 40.972zm-69.1994 108.95l-9.76706 13.5451 -0.293669 6.85049 15.319 -15.7411 -5.25827 -4.65449zm72.3033 10.2416l0.931182 43.7655 -1.24158 4.9663 -2.49619 -0.319748 -1.21096 -45.0698 4.01755 -3.34233zm49.288 55.5438l0.0181417 4.59581 -17.3937 0.59641 -6.48142 20.3791 -8.623 -0.040252c-4.5343,2.41909 -7.41317,5.25288 -8.6366,8.50026l-0.133228 12.4512 -11.0463 0.00907087c-2.60419,-0.354331 -4.3801,0.946772 -5.32829,3.90331l-4.3886 16.4203 -33.1444 -0.154205 -7.29468 24.3992 3.80636 4.56208 2.48825 -2.17701c0.723969,-6.41481 2.6898,-12.4158 5.89748,-18.0028 15.649,0.672378 30.2888,0.672378 43.4551,-0.310394l1.24158 -3.10394 -9.31182 0.310394 0 -3.10394 -1.55197 -0.310394 0 -1.24158 3.41433 -0.620788 0 -10.5534 4.9663 -3.72473c7.96678,0.723969 14.7954,0.31011 21.1068,-0.620788l0 -2.48315 -7.44945 -1.24158 0.310394 -10.243 2.79354 -7.44945c6.41481,0.723969 12.8296,0.620504 19.2444,-0.310394l0 -3.41433 -4.03512 -0.310394 4.03512 -14.8989c4.44898,1.03465 8.89796,0.206929 13.3469,-0.620788l1.55197 2.17276 0.931182 -3.10394 0.310394 -10.8638 -4.09975 0.604063zm121.197 71.3838l32.2135 -0.0297638 2.45225 2.82274 -0.601229 4.05921 -51.5254 0 -20.486 -2.48315 34.1433 -2.48315 1.55197 2.17276 3.72473 -2.48315 -1.47317 -1.5755zm-4.27578 -15.5237l-6.78558 -6.20249 -9.01389 -0.189921 0.441638 1.764 6.20788 0 -0.310394 2.17276 -5.89748 0 0 1.24158 -3.41433 -0.310394 -0.310394 -2.17276 -4.03512 0 -0.310394 3.72473 23.4281 -0.0274961zm-25.9824 -30.7931l-6.59339 0.214866 0.146268 2.35984 6.51827 -0.310394 -0.0711496 -2.26432zm-14.1202 -19.1279l-10.1282 -1.70589 0.10885 1.99134 10.0193 -0.285449zm108.287 -72.6571l7.93446 8.84693 0.322866 5.00344 -3.02712 -0.503433 -125.399 -135.953 2.48315 -2.79354 2.48315 2.48315 15.2093 -15.2093 30.1082 26.0731 -3.72473 3.10394 -26.3835 -24.2107 -12.4158 12.7261 -1.86236 -0.620788 0 1.86236c15.5268,13.7461 73.2478,78.0679 109.879,118.26l4.392 0.931182zm26.6227 -31.0383l1.37934 -3.41972c-32.9851,-24.626 -63.9006,-50.493 -92.7465,-77.6016l-2.34709 2.18013 1.55197 3.72473 -3.72473 -2.79354 0 3.41433 13.0365 10.5534 -17.6924 17.6924 2.17276 2.79354 17.3821 -17.3821 2.48315 0.310394 23.2795 20.7964 -21.4172 19.5548 2.17276 2.79354 21.4172 -20.486 39.1096 31.6602 -27.3147 25.1419 2.17276 2.48315 27.9354 -26.0731c3.71622,2.37997 7.43273,3.93194 11.1495,4.65704zm-59.4539 -117.377l-1.10183 -4.31263c-11.1251,-5.13581 -21.6017,-12.8602 -31.8974,-21.3103l-5.60665 3.01153 5.58709 5.89748 22.9691 13.9677 7.75985 6.51827 2.28983 -3.77206zm30.9983 -136.865c9.2041,7.75333 17.0629,16.5149 22.9564,26.7517l-3.47755 2.45367 -27.0043 -25.4523 4.34551 -4.65591 3.17991 0.902835zm12.721 -21.1258l-8.37213 -6.28866c-1.88164,-1.23874 -3.76328,-1.23506 -5.64492,0.00992126l-15.2187 13.8478 -23.3218 -21.7982c-1.54432,-1.08085 -3.08778,-1.33342 -4.63153,-0.758268l-89.0935 105.272 -20.5503 -12.5311 -22.5352 12.1927c-26.6267,-36.8566 -57.2375,-74.3763 -88.8381,-112.062l-31.03 29.2408 -7.16655 -7.0132c-2.14668,-1.93039 -4.70665,-2.20507 -7.68019,-0.824032l-6.13219 6.02079 1.36998 3.13937c2.71162,-2.59625 5.52614,-4.98444 9.0686,-5.91789 37.8618,40.5207 85.0034,82.1699 132.538,127.882l3.10394 -1.55197 -84.7375 -79.1504 6.20788 -1.55197 12.1054 -12.4158 -4.65591 -4.34551 -14.8989 14.2781 -25.1419 -24.5211 -1.86236 0.931182 -9.31182 -9.9326 0.620788 -1.86236c9.9326,-10.0412 19.8652,-19.6665 29.7978,-26.3835l88.7726 114.225 4.03512 -2.17276 -0.310394 -2.17276 15.8301 -9.00142 18.934 11.1742 0 4.65591 -3.72473 4.03512 1.86236 2.17276 4.34551 -2.17276 12.1054 10.243 2.79354 -2.17276 -11.4846 -10.5534 -0.310394 -2.79354 33.5225 -40.972 3.41433 1.86236 13.9677 14.2781 1.86236 -2.17276 -16.4509 -16.7613 31.3498 -40.3512 18.934 16.1405 2.79354 0 -0.931182 -1.86236 -18.0028 -16.7613 15.8301 -21.7276 26.0731 21.4172 -116.708 117.95 3.72473 2.79354c40.4189,-43.4413 85.9354,-88.9209 130.676,-134.09l6.82866 4.65591 1.86236 0 4.41638 -3.77206z"/>
  <polygon fill="white" points="137.637,95.9052 138.879,97.7675 120.876,116.081 119.324,115.77 119.635,113.287 "/>
  <polygon fill="white" points="145.087,133.773 144.156,135.946 146.328,134.704 161.227,119.806 159.675,118.564 "/>
  <polygon fill="white" points="170.143,152.895 169.314,154.829 171.248,153.724 184.507,140.465 183.126,139.36 "/>
  <polygon fill="white" points="193.112,174.623 192.283,176.557 194.838,175.763 205.924,163.745 204.543,162.64 "/>
  <polygon fill="white" points="177.057,101.492 176.747,104.286 178.299,104.596 194.75,87.5245 193.508,86.283 "/>
  <polygon fill="white" points="201.889,124.461 197.854,124.151 210.89,111.114 212.132,112.666 "/>
  <polygon fill="white" points="221.754,144.947 233.239,133.152 233.239,131.29 235.101,131.6 239.447,137.808 238.205,139.981 234.48,134.084 223.185,145.727 "/>
  <path fill="white" d="M105.356 338.323l3.41433 4.34551 12.1054 -11.4846 101.809 -115.777c0.620788,1.7589 1.55197,2.89701 2.79354,3.41433 -21.4172,-34.4537 15.5197,-75.4257 54.9397,-45.6279 -24.0687,-33.4707 -80.9485,-5.12107 -60.8372,40.972l-3.72473 5.58709 -2.79354 0 -13.0365 -12.4158 -3.41433 0.620788 11.1742 11.795 3.10394 0.620788 0.310394 4.65591 -54.9397 60.2164 -2.17276 0.310394 -33.2121 36.0057 -0.310394 3.72473 -6.82866 4.65591 -0.620788 2.48315 -7.75985 5.89748z"/>
  <path fill="white" d="M269.244 195.231l-6.51827 -0.620788 -9.31182 -9.00142 -2.79354 0.310394 -9.9326 11.4846 -3.72473 0 0.310394 -3.10394 12.7261 -14.2781c1.55197,-0.620788 3.10394,-0.620788 4.65591,0l14.5885 15.2093z"/>
  <polygon fill="white" points="304.009,162.95 315.803,174.124 316.114,176.297 313.01,176.608 301.215,165.433 "/>
  <polygon fill="white" points="343.739,118.564 340.945,121.668 359.879,139.36 361.121,138.429 361.431,134.704 "/>
  <polygon fill="white" points="358.948,101.803 378.813,121.047 381.917,118.564 361.431,99.6299 359.569,99.9403 "/>
  <polygon fill="white" points="327.288,71.0737 343.739,85.9726 344.981,85.3518 344.981,83.179 331.053,69.7896 329.15,69.5217 "/>
  <polygon fill="white" points="380.365,78.5231 377.882,81.0063 399.299,101.492 402.403,100.871 401.783,99.3195 "/>
  <polygon fill="white" points="313.32,240.549 329.461,225.339 332.254,227.823 315.493,242.721 "/>
  <polygon fill="white" points="377.882,338.633 382.538,343.599 365.467,358.498 363.915,358.809 362.363,363.465 360.5,363.154 357.396,366.258 354.292,366.258 354.292,364.085 358.638,358.188 335.669,329.321 340.014,326.528 360.811,353.842 "/>
  <polygon fill="white" points="322.632,323.424 345.912,300.765 347.774,303.248 323.874,325.286 "/>
  <polygon fill="white" points="300.905,295.799 320.459,275.623 322.632,277.796 302.146,297.661 "/>
  <polygon fill="white" points="282.281,273.761 280.419,271.278 298.732,253.896 300.594,256.068 "/>
  <polygon fill="white" points="262.105,247.688 278.867,232.789 280.419,235.272 264.589,250.481 "/>
  <polygon fill="white" points="234.17,238.686 231.997,238.997 232.618,241.48 240.067,246.446 "/>
  <polygon fill="white" points="213.684,260.104 211.511,260.104 211.201,263.518 223.617,274.071 222.685,269.726 "/>
  <polygon fill="white" points="190.404,281.831 193.508,279.038 203.441,289.901 206.234,294.247 204.682,296.109 "/>
  <path fill="white" d="M172.402 301.076l-2.79354 3.10394c5.89748,5.2767 11.4846,11.1742 17.6924,15.8301l1.24158 -2.79354 -16.1405 -16.1405z"/>
  <polygon fill="white" points="148.501,364.706 145.708,367.189 125.842,348.255 129.878,345.772 "/>
  <polygon fill="white" points="289.42,414.99 289.73,418.404 296.249,418.404 294.386,414.68 "/>
  <polygon fill="white" points="265.83,486.691 265.83,493.83 268.313,493.83 268.313,486.691 "/>
  <polygon fill="black" points="127.084,56.4852 121.187,52.45 141.983,28.5497 171.16,65.797 168.987,68.9009 142.914,40.0343 "/>
  <path fill="black" d="M254.966 393.573c3.10394,-22.6588 1.86236,-98.0845 2.79354,-147.127l-3.72473 -1.55197c0.310394,49.5596 -0.620788,125.503 0.931182,148.679z"/>
  <polygon fill="black" points="232.308,275.313 232.308,386.744 234.791,389.227 235.411,271.278 "/>
  <polygon fill="black" points="212.442,309.456 211.822,393.883 214.615,393.573 215.857,386.434 214.615,386.434 215.236,304.8 "/>
  <polygon fill="black" points="196.302,328.08 195.681,387.986 194.439,393.262 192.888,386.434 193.198,333.046 "/>
  <polygon fill="black" points="274.832,273.45 274.832,383.02 272.348,381.778 277.004,395.435 278.867,379.605 278.246,275.313 "/>
  <path fill="black" d="M295.938 293.626c0.206929,12.8296 -0.827717,26.28 0.620788,38.4888l0.310394 62.3892 2.48315 -4.9663 -0.620788 -82.8752 -2.79354 -13.0365z"/>
  <polygon fill="black" points="317.355,391.711 316.424,388.296 316.424,329.942 318.597,325.597 318.597,386.123 "/>
  <path fill="black" d="M273.59 201.129l-4.03512 -2.79354 -15.2093 16.1405 -11.795 -12.4158 -4.65591 -1.86236 -2.17276 2.17276 16.1405 14.8989c2.17304,1.13783 4.3458,1.03436 6.51827,-0.310394l15.2093 -15.8301z"/>
  <path fill="black" d="M227.652 154.259l12.4158 -12.4158 2.48315 0.931182 12.4158 -7.44945 0 -1.55197 3.10394 0.310394 0.310394 0.931182c8.38063,5.27641 16.2439,11.071 22.9691,18.0028l-4.65591 4.9663c-5.07005,-4.13858 -10.5537,-7.44945 -16.4509,-9.9326 3.51751,3.4149 8.27689,6.31134 10.5534,10.5534 -5.38016,-2.38025 -10.3465,-5.58709 -14.8989,-9.62221l-1.86236 1.24158 -0.310394 6.20788 -2.79354 -1.24158 0.310394 -4.34551 -17.3821 10.243 -6.20788 -6.82866z"/>
  <polygon fill="#CCCCCC" points="272.969,151.776 259.001,139.36 254.966,142.464 "/>
  <polygon fill="#CCCCCC" points="232.618,157.984 251.862,143.395 253.104,147.431 "/>
  <polygon fill="black" points="307.112,97.7675 306.802,101.182 303.388,101.182 319.839,115.15 322.011,112.666 "/>
  <polygon fill="black" points="338.462,94.0428 323.874,80.6959 326.046,77.2816 338.462,89.3869 "/>
  <path fill="black" d="M342.808 54.6228l-2.17276 3.41433c5.58709,6.20788 12.0019,11.588 19.2444,16.1405l0 -4.34551c-6.15657,-4.13887 -11.7437,-9.41556 -17.0717,-15.2093z"/>
  <polygon fill="black" points="366.708,34.1368 364.225,34.4472 364.225,38.1719 378.193,51.5189 381.297,51.8293 382.538,49.9669 "/>
  <polygon fill="black" points="300.284,223.167 312.7,210.441 313.941,214.476 305.25,221.615 "/>
  <polygon fill="black" points="337.841,231.547 320.77,245.825 322.322,248.619 338.462,235.272 "/>
  <polygon fill="black" points="342.808,270.347 346.222,262.587 359.879,253.275 362.983,253.585 362.673,256.379 "/>
  <polygon fill="black" points="367.018,297.351 389.056,276.554 391.54,278.727 368.881,299.213 "/>
  <path fill="black" d="M434.97 308.526l4.25962 3.42255 -30.8823 27.6157 -0.97767 -0.931182 -2.79354 -0.620788 -2.17276 -2.48315c11.6314,-7.06139 22.5904,-15.8037 32.5667,-27.0031zm-145.038 101.989l0.532914 -4.07509 47.6972 -0.242362 1.84309 -52.7352 25.1875 28.6342 30.2196 -27.2509 12.181 11.7403c1.83458,0.306142 3.66945,-0.21515 5.50488,-1.56359l7.59997 -7.7573 -4.09351 -3.85087 -8.61421 6.94602 -30.729 -33.2121 -3.41433 -0.620788 -22.9691 -27.0043 -2.17276 -0.310394 -30.729 -34.4537 -3.41433 -0.620788 -33.8329 -35.6953c13.9938,-12.907 18.9088,-32.3065 10.5534,-47.8007l1.86236 -4.9663 2.79354 2.48315 0.310394 34.4537 2.48315 -3.10394 0 -29.4874 4.65591 3.10394 1.24158 3.10394 4.9663 0.310394 3.10394 7.75985 -0.620788 -12.1054 -15.2093 -13.0365 36.3161 -39.1096 18.3132 17.6924 2.17276 -2.79354 -17.0717 -18.3132 15.8301 -18.6236 11.4846 11.4846 9.00142 6.51827 0 -1.86236 -11.795 -12.4158 -6.51827 -6.20788 17.6924 -18.6236c7.45002,5.92328 14.8992,13.3214 22.3484,21.7276l1.55197 -0.620788c-6.93185,-9.31182 -14.2778,-16.9682 -22.038,-22.9691l18.0028 -19.2444c7.65638,7.34599 15.0024,15.6232 22.9691,22.038l5.2767 0.310394 -24.8315 -25.1419 7.13906 -9.62221 3.80069 0.902835 15.5982 -15.7416 -3.12406 -3.17651 0.246898 -2.20762 -9.4955 9.6344 -2.01685 -0.260788 -122.959 136.248c20.5929,27.7109 -16.6521,76.9125 -58.0437,42.8344 2.89729,5.89777 5.17351,9.00171 7.75985,10.243l-18.6236 15.5197 -27.9354 31.3498 -2.79354 1.24158 -29.7978 33.5225 -1.86236 0.620788 -29.7978 31.9706 -17.3821 17.6924 -0.310394 2.79354 -1.55197 1.24158 -10.8638 -8.69103 -1.97206 1.77336 11.3808 10.6637c2.61156,0.838772 5.22369,0.436536 7.8361,-1.20699l10.8391 -11.4843 21.117 20.628c2.78107,1.06356 5.97657,0.472536 9.58621,-1.77421l17.5873 -23.6378 76.0289 -100.185 -0.620788 -2.48315 -99.0156 125.71 -25.4523 -22.9691 42.8344 -43.4551 9.62221 11.1742 10.8638 8.07024 1.24158 -1.55197 -19.2444 -19.8652 18.0028 -21.1068 12.4158 15.2093 5.89748 1.86236 1.86236 -1.24158 -18.3132 -17.0717 17.6924 -17.6924 14.8989 13.9677 0.931182 -3.41433c-5.1755,-4.24063 -10.1432,-8.5853 -13.6573,-13.6573l20.1756 -18.934c2.94888,4.13887 6.156,7.76013 9.9326,10.243l3.10394 -1.24158c-4.55244,-2.27622 -8.27717,-5.79402 -11.1742,-10.5534l6.51827 -7.75985 6.20788 -1.55197c11.3559,5.92385 23.6166,5.87225 36.6265,-3.10394l7.13906 8.07024 -15.5197 13.0365 0 3.41433 2.17276 0.620788 15.8301 -14.8989 18.934 18.6236 -15.8301 14.5885 -0.931182 5.58709 2.17276 -3.41433 6.51827 -2.79354 10.243 -12.1054 20.1756 20.1756 -19.8652 18.3132 3.10394 2.17276 19.5548 -17.3821 23.9003 23.2795 -17.6924 13.3469 0.310394 2.79354 -4.34551 3.72473 0.931182 2.17276 6.20788 -5.89748 1.24158 2.17276 16.1405 -13.6573 24.8315 28.8666 2.48315 -3.41433 9.00142 9.9326 -30.4186 27.0043 -18.934 -22.6588 -5.58709 -9.9326 -67.0451 -84.4271 -8.38063 -7.75985 -0.310394 4.03512 13.9677 13.6573 58.0437 75.4257 -1.86236 56.4917 -159.906 0.316347 3.88347 4.46655 45.7685 -0.143717 3.78936 -0.914457 16.7613 -0.310394 0.931182 18.3132c-4.75909,-4.24318 -10.6563,-2.79468 -17.0717,1.24158 -0.827717,-1.03465 -2.58662,-2.37969 -2.48315,-3.72473 0.517607,4.03484 0.207213,8.48382 -0.931182,13.3469l-12.7261 0 2.48315 3.10394 9.9326 0c-0.206929,6.00095 0.206929,12.0019 -0.620788,18.0028l-22.6588 0.620788 -4.03512 0.931182 0 1.24158 8.38063 0.931182 17.0717 0.310394c1.50038,6.20759 1.9148,13.2426 0.931182,21.1068l-38.1784 -0.310394 1.86236 2.48315 16.4509 0.931182 18.934 0.931182 -1.24158 18.3132 4.03512 -7.44945 0.620788 -11.4846 1.55197 -4.65591c3.72473,1.24158 7.03559,0.413858 9.9326,-2.48315 4.0354,-0.413858 6.41509,0.827717 7.13906,3.72473l0.310394 16.1405 -1.55197 1.55197 2.48315 5.58709 8.38063 -2.17276 -1.55197 -4.9663 -2.79354 -7.75985 0 -6.82866 1.86236 0.620788 -3.41433 -5.58709 0.620788 -16.7613c1.86265,-2.89701 2.17332,-6.82895 0,-10.8638l0 -20.1756 2.79354 -1.55197 -0.931182 -1.55197c2.01969,-5.52614 10.7714,-6.42983 15.5197,-2.17276l-3.72473 9.00142 5.2767 -8.07024 -0.310394 4.03512 -2.17276 5.89748 2.17276 -2.17276 0.931182 21.7276c-1.7589,7.65638 -3.2074,14.692 -1.55197,22.038 -0.206929,10.3465 -1.24158,19.0375 -3.10394,26.0731 3.00303,-2.58038 5.79827,-5.68063 7.13906,-12.4158 -1.4485,-3.31087 -1.65543,-7.44945 -0.620788,-12.4158 6.51855,-3.72473 12.2091,-2.89701 17.0717,2.48315l-0.310394 17.3821 -2.17276 5.89748 8.69103 -3.41433 -0.620788 -17.0717 6.20788 -0.310394 -0.620788 12.4158 3.10394 0.620788 -0.620788 -13.6573 35.0745 -2.48315 -0.931182 -1.24158 -36.6265 0.620788 -1.24158 -18.3132 16.4509 0.620788 2.48315 -1.55197 -1.24158 -1.24158 -10.8638 -0.620788 -7.44945 0 -2.48315 -3.10394c1.2206,-3.31087 3.7664,-6.62174 -0.310394,-9.9326 -1.34476,-2.48315 -1.44822,-4.9663 -0.310394,-7.44945l7.75985 -0.310394 0 -2.79354 -9.31182 -0.310394 -2.48315 -14.5885 0.620788 -7.13906m-164.192 90.8374l4.03455 4.83591c86.6121,1.1795 224.581,2.88199 257.701,0.336473l-4.88211 -23.9638 -3.40016 -3.9138 2.30542 25.2964c-38.0724,1.61943 -170.505,-1.00347 -255.758,-2.59115zm218.9 -25.3678l-4.27578 -15.5237 -4.80444 0.0274961 4.9663 17.0717 1.86236 2.48315 3.41433 -2.48315 -1.16277 -1.5755zm-20.0753 -21.9161l-3.53112 -16.674 -4.29137 -4.98501 4.8498 26.2165 3.41433 0.310394 -0.441638 -4.86794zm-245.398 -137.595l22.6845 22.3424 6.18945 4.96488 2.17276 -2.17276 -26.6939 -24.8315 -4.35288 -0.303024zm18.2339 -266.143l-6.24473 -6.62627 -0.564378 -3.77858c45.2364,42.931 87.3689,88.966 131.053,133.449l-1.55197 1.55197 -6.82866 0.620788 -5.2767 7.13906 -9.00142 1.55197 -5.58709 -2.48315 0.620788 21.4172 -3.72473 6.51827 0.310394 -22.038c-5.0074,1.36602 -8.91156,4.93909 -13.0365,8.07024l12.4158 -10.5534c-5.48362,1.96583 -10.967,5.06977 -16.4509,8.69103l13.3469 -10.243c-6.77679,2.27594 -12.9844,5.69055 -18.934,9.62221l14.5885 -11.1742 -15.8301 9.62221 -0.396567 2.43014 -30.5501 17.7982 -0.282331 -6.50552 52.9566 -29.8633 -4.9663 -3.41433 -6.82866 -8.38063 16.7613 11.1742 6.51827 5.2767 2.17276 0 9.62221 -12.1054 -45.771 -47.6555 -20.7451 -18.0405 -23.0732 -26.6017 -24.7224 -25.4696zm67.7651 107.214l-89.0428 -69.9038 -3.17821 -4.90025 11.5061 4.03455 23.5899 -24.2107 0.620788 4.03512 -4.34551 7.44945 -18.0028 16.1405 38.4888 30.4186 9.9326 -10.8638 9.31182 -7.44945 0.310394 4.9663 -7.13906 7.44945 -10.8638 8.38063 22.3484 18.0028 2.79354 -0.931182 15.2093 -17.3821 3.10394 2.79354 -12.7261 14.2781 -4.65591 3.41433 22.6588 17.3821 14.8989 -16.1405 2.48315 4.34551 -13.9677 13.9677 -5.58709 0 -7.74737 -5.27698zm142.622 272.339l-1.76428 -12.7233 -3.9532 -4.54139 2.13902 21.7973 7.75985 1.55197 0 -1.55197 -4.34551 -1.55197 0.164126 -2.98063zm36.0159 -204.059l-0.232158 -30.5467 26.8773 16.4628 4.45692 -1.67669 4.4691 -18.2874 -3.65783 -2.30797 -2.60022 4.39285 -0.931182 9.62221 -1.86236 3.41433c-15.7266,-8.07024 -28.9701,-18.0028 -43.4551,-27.9354l4.34551 -3.72473 0.310394 -2.48315 4.9663 -6.51827 -4.03512 0 -13.6573 11.795 -2.48315 0.620788 -1.86236 4.03512 -0.310394 4.34551 1.55197 1.55197 0 15.8301 3.41433 1.55197 -0.620788 -18.3132 1.55197 1.86236 -0.310394 2.17276 13.9677 6.20788 -14.8989 -11.795 16.7613 9.62221 -0.310394 -3.10394 -15.5197 -9.31182 -0.310394 -2.79354 3.10394 -0.310394 5.58709 5.2767 11.795 7.13906 0.310394 34.1433 1.24158 1.24158 2.34709 -2.18013zm-6.38221 -59.5883l-0.620788 -2.48315 1.55197 -2.17276 -0.310394 -1.24158 91.6294 -80.9833 3.85427 4.41666 -90.8082 80.0734 -5.29625 2.39074z"/>
  <path fill="#CCCCCC" d="M286.316 471.792c-3.62013,-0.831402 -7.34372,-1.35128 -11.795,0.310394l-4.03512 -0.310394 -0.310394 -19.2444 4.9663 -0.931182c4.0354,-2.58633 7.65667,-1.86208 10.8638,2.17276l0.310394 18.0028z"/>
  <path fill="#CCCCCC" d="M286.006 447.271c-3.62013,-0.831402 -7.34372,-1.35128 -11.795,0.310394l-4.03512 -0.310394 -0.310394 -19.2444 4.9663 -0.931182c4.0354,-2.58633 7.65667,-1.86208 10.8638,2.17276l0.310394 18.0028z"/>
  <path fill="#CCCCCC" d="M243.171 473.034c-3.62013,-0.831402 -7.34372,-1.35128 -11.795,0.310394l-4.03512 -0.310394 -0.310394 -19.2444 4.9663 -0.931182c4.0354,-2.58633 7.65667,-1.86208 10.8638,2.17276l0.310394 18.0028z"/>
  <path fill="#CCCCCC" d="M243.482 448.202c-3.62013,-0.831402 -7.34372,-1.35128 -11.795,0.310394l-4.03512 -0.310394 -0.310394 -19.2444 4.9663 -0.931182c4.0354,-2.58633 7.65667,-1.86208 10.8638,2.17276l0.310394 18.0028z"/>
  <path fill="#CCCCCC" d="M270.176 405.368l15.8301 -0.310394 0 16.1405c-9.72567,-3.82819 -9.82914,1.65543 -16.1405,1.55197l0.310394 -17.3821z"/>
  <polygon fill="#CCCCCC" points="295.628,461.239 295.628,478.31 292.524,478.31 293.766,461.86 "/>
  <polygon fill="#CCCCCC" points="251.552,414.99 254.966,417.163 267.072,416.232 267.072,414.369 "/>
  <polygon fill="#CCCCCC" points="247.827,405.989 247.827,408.161 268.003,408.161 267.692,405.989 "/>
  <polygon fill="#CCCCCC" points="250.31,409.403 250.31,411.576 267.382,411.576 267.119,409.403 "/>
  <polygon fill="black" points="209.959,181.884 210.27,203.301 212.132,207.957 213.684,203.612 213.374,181.574 "/>
  <polygon fill="black" points="160.917,85.6622 173.954,70.7633 180.161,65.797 179.851,69.8321 163.09,86.9038 "/>
  <polygon fill="black" points="183.265,110.804 184.197,107.7 199.406,93.7324 202.199,93.422 199.095,98.6987 188.036,108.471 "/>
  <polygon fill="black" points="204.372,132.532 204.682,130.049 217.719,117.322 219.271,121.047 207.786,131.911 "/>
  <polygon fill="black" points="205.924,230.306 208.718,228.133 198.785,218.511 195.06,218.511 "/>
  <polygon fill="black" points="185.438,252.344 188.542,249.861 177.678,239.928 175.195,240.238 177.057,242.721 177.057,244.894 "/>
  <polygon fill="black" points="166.814,272.83 168.987,270.967 155.019,257.62 152.536,259.172 "/>
  <polygon fill="black" points="145.397,294.557 147.88,292.384 133.292,278.417 129.567,278.106 130.188,280.59 "/>
  <path fill="black" d="M176.747 348.255c22.3804,-30.5218 45.5956,-61.0444 70.4594,-91.5662 -23.0644,31.8226 -46.5664,62.225 -70.4594,91.5662z"/>
  <path fill="black" d="M231.687 280.59l-49.9734 65.8035c17.5371,-21.4946 34.0915,-43.4807 49.9734,-65.8035z"/>
  <path fill="black" d="M332.365 345.462c-36.707,-40.4357 -56.7766,-70.8375 -66.4243,-85.0479 22.1202,27.4706 38.2859,51.2467 66.4243,85.0479z"/>
  <path fill="black" d="M263.458 263.518l65.1827 83.4959c-18.3648,-20.6666 -50.1282,-60.3451 -65.1827,-83.4959z"/>
  <path fill="black" d="M334.538 344.531c-35.7231,-40.9278 -39.3421,-50.3782 -49.663,-64.2515 22.1202,27.4706 21.5246,30.4503 49.663,64.2515z"/>
  <path fill="black" d="M217.719 460.618l2.17276 -29.177c0.0515906,9.33761 -0.568914,19.0111 -2.17276,29.177z"/>
  <path fill="black" d="M220.202 462.791l2.17276 -29.177c0.0515906,9.33761 -0.568914,19.0111 -2.17276,29.177z"/>
  <path fill="black" d="M212.753 482.966l2.17276 -29.177c0.0515906,9.33761 -0.568914,19.0111 -2.17276,29.177z"/>
  <path fill="black" d="M220.823 484.208l2.17276 -29.177c0.0515906,9.33761 -0.568914,19.0111 -2.17276,29.177z"/>
  <path fill="black" d="M218.961 490.105l2.17276 -29.177c0.0515906,9.33761 -0.568914,19.0111 -2.17276,29.177z"/>
  <path fill="black" d="M215.236 500.969l2.17276 -29.177c0.0515906,9.33761 -0.568914,19.0111 -2.17276,29.177z"/>
  <path fill="black" d="M254.966 503.452l2.17276 -17.6924c0.0515906,9.33761 -0.568914,7.52655 -2.17276,17.6924z"/>
  <path fill="black" d="M257.139 502.521l2.17276 -17.6924c0.0515906,9.33761 -0.568914,7.52655 -2.17276,17.6924z"/>
  <path fill="black" d="M259.312 501.9l2.17276 -17.6924c0.0515906,9.33761 -0.568914,7.52655 -2.17276,17.6924z"/>
  <path fill="black" d="M262.416 501.28l2.17276 -17.6924c0.0515906,9.33761 -0.568914,7.52655 -2.17276,17.6924z"/>
  <path fill="black" d="M250.931 444.477l2.17276 -17.6924c0.0515906,9.33761 -0.568914,7.52655 -2.17276,17.6924z"/>
  <path fill="black" d="M254.346 438.27l1.24158 -10.243c0.0515906,9.33761 0.362268,0.0771024 -1.24158,10.243z"/>
  <path fill="black" d="M175.505 166.675l7.75985 8.38063c-4.14369,-2.27339 -6.10753,-5.27471 -7.75985,-8.38063z"/>
  <path fill="black" d="M173.333 170.71l8.38063 7.44945c-4.14369,-2.27339 -6.72832,-4.34353 -8.38063,-7.44945z"/>
 </g>
</svg>
