<?xml version="1.0" encoding="UTF-8"?>
<!DOCTYPE svg PUBLIC "-//W3C//DTD SVG 1.1//EN" "http://www.w3.org/Graphics/SVG/1.1/DTD/svg11.dtd">
<!-- Creator: CorelDRAW -->
<svg xmlns="http://www.w3.org/2000/svg" xml:space="preserve" width="500px" height="567px" shape-rendering="geometricPrecision" text-rendering="geometricPrecision" image-rendering="optimizeQuality" fill-rule="evenodd" clip-rule="evenodd"
viewBox="0 0 500 567"
 xmlns:xlink="http://www.w3.org/1999/xlink"
 xmlns:svg="http://www.w3.org/2000/svg"
 version="1.0">
 <g id="Layer_x0020_1">
  <metadata id="CorelCorpID_0Corel-Layer"/>
  <path id="path1937" fill="#F00000" stroke="#F00000" stroke-width="1.98425" d="M1.224 1.30621l497.584 -0.000566929 0.913323 331.893c-25.6964,310.309 -477.704,314.345 -499.412,-7.57531l0.914174 -324.317z"/>
  <path fill="#CCCCCC" d="M139.08 101.018l32.6055 -23.4638c-2.91402,-11.1223 15.3394,-23.311 21.5308,-10.5367 6.55314,13.5207 -7.14558,21.1003 -16.3505,17.2406l-33.5197 24.378c0.100063,20.4177 -17.2293,19.457 -21.9711,10.2421 -4.55783,-8.85742 -0.497481,-20.7885 17.7049,-17.8603z"/>
  <path id="path1937_0" fill="white" d="M471.838 433.198c-90.4944,177.332 -356.423,178.451 -444.706,-3.69411 7.22353,-1.29742 17.8339,-11.6547 29.2272,-11.5832 11.393,0.0714331 21.2891,13.0331 41.9448,13.811 20.6558,0.778111 35.0204,-16.0322 54.2041,-15.9199 19.1838,0.112252 30.9373,17.1689 50.0565,17.2721 19.1194,0.103465 31.3211,-16.0679 49.0711,-15.296 17.75,0.771874 24.9613,17.1238 43.8735,16.5433 18.9125,-0.580536 26.4113,-15.3788 45.2024,-15.2782 18.7914,0.10063 28.4383,16.4639 51.2825,15.8871 22.8441,-0.576567 34.035,-12.6496 49.8612,-12.5674 15.8261,0.0822048 20.1464,10.764 29.9826,10.8255z"/>
  <path id="path1937_1" fill="#CCCCCC" d="M470.009 438.569c-90.097,170.177 -352.047,171.894 -440.744,-2.77994 7.22353,-1.29742 15.7008,-10.7405 27.0941,-10.669 11.393,0.0714331 21.2891,13.0331 41.9448,13.811 20.6558,0.778111 35.0204,-16.0322 54.2041,-15.9199 19.1838,0.112252 30.9373,17.1689 50.0565,17.2721 19.1194,0.103465 31.3211,-16.0679 49.0711,-15.296 17.75,0.771874 24.9613,17.1238 43.8735,16.5433 18.9125,-0.580536 26.4113,-15.3788 45.2024,-15.2782 18.7914,0.10063 28.4383,16.4639 51.2825,15.8871 22.8441,-0.576567 34.035,-12.6496 49.8612,-12.5674 15.8261,0.0822048 18.3178,8.93566 28.154,8.99717z"/>
  <path fill="#CCCCCC" d="M46.5404 209.624l-4.31093 17.7653c37.152,34.4203 86.8165,54.474 145.909,63.7039l0.286583 -22.5425 -7.9937 -4.18932 0.0702992 -18.8107 -9.67777 1.36658 -56.1943 -114.02c0.507685,19.1514 -15.533,19.5628 -20.5509,11.6566 -4.42744,-6.97522 -0.989859,-23.3702 14.0613,-23.8005l-9.23528 -18.5876c-0.448725,-2.17588 5.50177,-8.31317 9.62419,-6.52734l78.2295 135.067 1.99162 0.114236 6.1047 -207.458c1.48734,-4.63975 10.8978,-4.09918 12.6901,-0.206929l5.53947 207.069 3.53821 -0.401386 77.6387 -137.407c2.35786,-1.05506 7.76353,0.937701 9.81752,5.06381l-12.6638 26.3818c12.7811,0.337323 14.5826,15.5662 9.83084,22.0992 -3.69581,5.08082 -14.5176,3.14589 -17.6922,-7.90611l-52.3976 111.344 -11.213 -3.71537 -0.225354 19.891 -6.13616 1.22003 0.623339 27.8754c26.7032,3.88403 53.8512,6.43522 81.368,7.88202l0.716032 -26.2817 -10.0783 0.0331654 0.114236 -30.6295 37.5157 0.109134 0.00680315 -14.6506 -10.1625 0.0096378 0.023811 -14.5072 56.1405 0.214583 0.00737008 43.7366 10.3329 0.254835 1.14973 -72.5057 25.7431 -0.219685 -0.0572599 73.5231 14.3365 0.00765355 -0.109984 -21.3117 32.5349 -0.0170079 0.234709 21.0206 22 0.24548 -0.571748 8.55355c-9.63497,1.12989 -15.3082,4.69786 -14.2776,7.96111l2.47606 16.7219 23.129 -2.43184 5.80507 20.721c-23.2583,18.0958 -33.3598,32.0264 -13.5391,38.744l0.131244 17.2432 -379.002 -0.914174c-102.314,-16.5169 -83.2868,-112.038 -77.0953,-169.649l23.4638 11.0934z"/>
  <path fill="#333333" d="M107.389 300.308c93.3472,40.3251 258.609,31.5896 384.258,9.44646l0.662174 2.8681c-31.5862,17.8234 -38.8259,34.668 -39.6669,51.9823l-6.09449 0.304725 0.304725 -6.39922c-121.788,-2.53956 -368.514,4.97707 -365.365,-7.61811 11.4778,7.82107 243.576,3.45345 365.365,5.18032 0.911623,-11.7828 10.5605,-23.6668 30.4725,-39.6142 -152.665,29.6637 -324.035,16.1552 -369.936,-16.1504z"/>
  <path fill="white" d="M53.9085 350.896c-33.3425,-36.8983 -35.4748,-75.3455 -26.3574,-144.443l17.5139 9.25059 1.47543 -6.08003 -23.4638 -11.0934c-5.00939,46.6127 -18.4215,118.043 30.8319,152.365zm126.593 -105.345l3.67767 -1.31131 -0.0600945 22.0547 -3.68788 -1.93266 0.0702992 -18.8107zm-4.14964 0.585922l-5.52813 0.780662 -56.1943 -114.02c0.0314646,1.19679 -0.00141732,2.32073 -0.092126,3.3738 -4.36536,-18.5258 -29.452,-3.53197 -13.0961,12.9858 -2.98375,-0.471402 -5.74583,-2.15518 -7.36271,-4.70296 -4.42744,-6.97522 -0.989859,-23.3702 14.0613,-23.8005l-9.23528 -18.5876c-0.448725,-2.17588 5.50177,-8.31317 9.62419,-6.52734l1.20558 2.08148 -8.13544 4.21314 74.753 144.204zm17.2738 -14.3909c6.48596,1.62539 15.41,0.812977 19.4584,-1.52277l3.53821 -0.401386 77.6387 -137.407c1.32605,-0.593292 3.61701,-0.222803 5.73279,0.949607l-80.7713 142.953 -30.7772 0.304725 0.304441 -5.80196 6.1047 -207.458c1.48734,-4.63975 10.8978,-4.09918 12.6901,-0.206929l-8.43393 -0.144567 -5.48504 208.736m97.2482 -84.2463c-9.01049,-14.1236 0.262488,-24.2856 12.278,-14.0304 -1.25603,-5.04794 -4.94731,-9.43002 -11.7371,-9.60917 -2.38847,4.31235 -8.14196,11.1223 -6.93411,16.7298 1.53921,3.40186 3.8914,5.67411 6.39326,6.90974zm38.9636 156.771c4.82485,-8.12608 8.38035,-16.7596 9.14174,-26.511 1.3201,-0.711213 3.04725,-0.609733 5.18032,0.304725 -1.2189,10.4114 -4.67235,19.1466 -9.14174,27.1205 43.4064,-0.401669 87.7272,-2.85194 127.341,-7.61216 0.637512,-0.0765355 0.657071,-2.64784 1.28891,-2.75414l23.129 -2.43184 1.81701 6.48567c-72.6254,10.5497 -182.004,14.5372 -276.686,1.43887 -6.05963,-2.05739 -12.0577,-2.96532 -17.9819,-2.72693 -65.6204,-10.8629 -122.206,-30.6465 -151.444,-63.0956l-0.914174 13.4079c28.3394,30.4725 62.1638,40.5284 93.8552,53.9362 -38.1923,-7.72016 -72.3212,-26.4098 -95.0741,-50.5843 -0.812693,3.45345 -1.01594,7.51635 -0.609449,11.2748 10.2589,14.6268 47.3338,40.2236 81.0567,52.1079 -31.0374,-6.29632 -67.6063,-27.7282 -81.6662,-47.2323 -0.711213,4.97707 -1.11742,10.2589 -0.304725,14.9315 20.9242,23.87 52.5141,35.8557 74.6575,42.3567 -30.8789,-3.45373 -56.882,-16.9631 -74.3528,-37.7858 -0.101764,5.07855 1.01565,9.24322 2.4378,14.3221 7.82107,10.9701 33.0117,25.9016 62.7733,33.8244 -20.8755,-2.84343 -47.6912,-13.7115 -61.2496,-27.4252 1.42186,5.48504 4.36762,12.4937 7.00866,16.4551 13.9153,14.0168 45.5052,21.2287 52.7173,24.9874 -20.8106,-3.5555 -38.4083,-9.44646 -50.2796,-19.5024 2.69008,7.46533 11.5277,14.8805 23.1591,23.7685 -44.0836,-17.3693 -46.1152,-84.4087 -36.2622,-125.242l2.79411 -0.699591c37.152,34.4203 86.8165,54.474 145.909,63.7039l0.286583 -22.5425 3.6771 2.50441 -0.914174 21.9402c7.67226,1.36942 15.3445,1.92728 23.0168,1.67244 26.3098,3.84577 53.4322,6.4732 81.368,7.88202l0.716032 -26.2817 3.38117 -0.0325984 -1.2189 27.7299m0 0c3.14844,1.54205 6.29717,1.25603 9.44589,1.88419l0.614835 -1.78668 21.3259 0.207213m-0.609449 -72.8292l-1.52362 16.4551 7.00866 0 0.304725 -1.52362 15.8457 0 -0.304725 -14.3221c1.52362,0 3.04725,0 4.57087,0l0.609449 15.8457 11.8843 0c1.01565,0 1.72658,4.57087 0.304725,4.57087l-76.4859 -0.304725 -0.609449 24.1237 -4.62246 0.0153071 0.114236 -30.6295 37.5157 0.109134 0.00538583 -12.2068c-0.0342992,-1.01594 4.50227,-2.94577 5.38243,-2.13307m40.6213 -10.6656l-2.22605 0.609733 -48.1465 0 0.000283465 9.7492 -5.7926 0.00566929 0.023811 -14.5072 56.1405 0.214583 0.000566929 3.92797zm37.2286 -27.7299l-2.58293 0.914457 -17.0646 0.304725 -0.914174 68.8678 19.1976 0 1.31074 -1.49584 14.3365 0.00765355 -0.109984 -21.3117 32.5349 -0.0170079 0.0572599 5.1429 -26.1893 0.304725 -0.304725 17.674 25.9016 0.609449 0.76989 -2.71049 22 0.24548 -0.369355 5.52246 -107.723 -1.2291 1.92813 -5.29087 10.3329 0.254835 1.14973 -72.5057 25.7431 -0.219685 -0.00396851 4.932z"/>
  <path fill="#CCCCCC" d="M263.879 102.847l-36.8717 -29.5583c2.30457,-9.59868 -15.9494,-20.2632 -21.8356,-6.87997 -6.04885,13.7529 9.8881,21.1003 19.093,17.2406l35.348 27.1205c-2.53786,17.0657 15.8998,18.9258 20.7522,9.02325 4.02973,-8.22303 1.71638,-19.8743 -16.486,-16.9461z"/>
  <path fill="#F00000" d="M308.507 275.625l31.0819 0.609449c-1.99361,11.338 -5.32035,20.454 -9.75119,27.7299l-21.9402 0 0.609449 -28.3394z"/>
  <rect fill="#F00000" x="333.799" y="230.526" width="16.7599" height="15.541"/>
  <path fill="white" d="M263.879 102.847l-36.8717 -29.5583c1.87228,-7.79868 -9.82687,-16.3009 -17.437,-12.037 -3.81855,2.664 -3.47443,7.03503 -2.01458,12.1859 7.06252,-15.2836 19.2861,-7.37348 16.4044,7.77402 1.38473,-0.427748 2.76917,-2.07439 3.23943,-3.11188l35.0926 28.2991 -2.67931 4.37103c-1.11005,7.46618 1.79433,12.022 5.81925,13.9555 -9.35575,-20.8423 16.6918,-26.0498 12.9847,-2.19572 0.773575,-0.778678 1.4366,-1.69228 1.94825,-2.73657 4.02973,-8.22303 1.71638,-19.8743 -16.486,-16.9461z"/>
  <path fill="white" d="M139.08 101.018l32.6055 -23.4638c-2.91402,-11.1223 15.3394,-23.311 21.5308,-10.5367 1.02387,2.11238 1.55339,4.08019 1.68265,5.88189 -6.51459,-9.16895 -23.3725,-7.02511 -18.0332,11.3587l-1.9851 -3.91606 -33.2181 25.1413 1.6835 3.15269c0.0155906,3.23008 -0.405071,5.92498 -1.14265,8.13685 -4.72054,-21.1915 -23.6276,-6.25465 -17.7982,5.76992 -1.24101,-0.986741 -2.28954,-2.2252 -3.03024,-3.66463 -4.55755,-8.85742 -0.497481,-20.7885 17.7049,-17.8603z"/>
 </g>
</svg>
