<?xml version="1.0" encoding="UTF-8" standalone="no"?>
<!-- Created with Inkscape (http://www.inkscape.org/) -->
<svg
   xmlns:svg="http://www.w3.org/2000/svg"
   xmlns="http://www.w3.org/2000/svg"
   version="1.0"
   width="500.00003"
   height="571.07428"
   id="svg3503">
  <defs
     id="defs3505" />
  <g
     transform="translate(-132.85714,-239.6822)"
     id="layer4">
    <path
       d="M 133.38631,240.21137 C 133.38631,354.86499 133.38631,469.51862 133.38631,584.17224 C 133.38631,708.94159 245.15186,810.22725 382.85715,810.22728 C 520.56245,810.22728 632.32799,706.32891 632.32799,584.17224 C 632.32799,442.19728 632.32799,354.86499 632.32799,240.21137 L 133.38631,240.21137 z "
       style="fill:#df0000;fill-opacity:1;fill-rule:evenodd;stroke:#000000;stroke-width:1.05834115;stroke-linecap:butt;stroke-miterlimit:4;stroke-dasharray:none;stroke-opacity:1"
       id="path2420" />
    <path
       d="M 556.84375,620.5625 C 551.376,667.68868 530.52047,704.40149 501.75,729.53125 C 577.23838,746.34499 579.36456,683.76086 569.65625,620.5625 L 556.84375,620.5625 z "
       style="fill:#aa8c28;fill-opacity:1;fill-rule:evenodd;stroke:#000000;stroke-width:1px;stroke-linecap:butt;stroke-linejoin:miter;stroke-opacity:1"
       id="path3609" />
    <path
       d="M 233.5625,615.84375 C 271.81546,830.88887 535.15987,807.19861 556.84375,620.5625 L 484.78125,620.5625 C 454.25258,689.04447 341.25614,684.03643 315.8125,626.21875 L 233.5625,615.84375 z "
       style="fill:#aa8c28;fill-opacity:1;fill-rule:evenodd;stroke:#000000;stroke-width:1px;stroke-linecap:butt;stroke-linejoin:miter;stroke-opacity:1"
       id="path3596" />
    <path
       d="M 256.3664,619.0046 C 285.53058,776.97238 498.09865,789.0381 540.37207,620.46369"
       style="fill:none;fill-rule:evenodd;stroke:#000000;stroke-width:1px;stroke-linecap:butt;stroke-linejoin:miter;stroke-opacity:1"
       id="path3598" />
    <path
       d="M 278.69866,621.59126 C 295.08718,730.58079 470.18866,759.14767 520.8185,620.73154"
       style="fill:none;fill-rule:evenodd;stroke:#000000;stroke-width:1px;stroke-linecap:butt;stroke-linejoin:miter;stroke-opacity:1"
       id="path3600" />
    <path
       d="M 298.32493,623.9968 C 337.50235,733.53698 487.9897,694.57264 500.67564,620.08869"
       style="fill:none;fill-rule:evenodd;stroke:#000000;stroke-width:1px;stroke-linecap:butt;stroke-linejoin:miter;stroke-opacity:1"
       id="path3602" />
    <path
       d="M 586.0625,590.71875 L 472.5,599.5 L 472.5,620.5625 L 582.78125,620.5625 C 584.60003,620.5625 586.06252,619.10005 586.0625,617.28125 L 586.0625,590.71875 z "
       style="fill:#aa8c28;fill-opacity:1;fill-rule:evenodd;stroke:#000000;stroke-width:1;stroke-linecap:butt;stroke-miterlimit:4;stroke-dasharray:none;stroke-opacity:1"
       id="rect3614" />
    <path
       d="M 602.9375,567.5625 L 472.28125,578.65625 L 472.5,599.5 L 601.78125,589.5 L 602.9375,567.5625 z "
       style="fill:#aa8c28;fill-opacity:1;fill-rule:evenodd;stroke:#000000;stroke-width:1px;stroke-linecap:butt;stroke-linejoin:miter;stroke-opacity:1"
       id="path3619" />
    <path
       d="M 462.14286,579.50504 L 622.14286,565.93361 L 622.5,543.79075 L 462.14286,557.36218 L 462.14286,579.50504 z "
       style="fill:#aa8c28;fill-opacity:1;fill-rule:evenodd;stroke:#000000;stroke-width:1px;stroke-linecap:butt;stroke-linejoin:miter;stroke-opacity:1"
       id="path3624" />
    <path
       d="M 206.65625,581.46875 C 208.92878,591.22095 208.9375,612.71877 208.9375,612.71875 L 330.34375,628.0625 L 330.34375,601 L 206.65625,581.46875 z "
       style="fill:#aa8c28;fill-opacity:1;fill-rule:evenodd;stroke:#000000;stroke-width:1px;stroke-linecap:butt;stroke-linejoin:miter;stroke-opacity:1"
       id="path3629" />
    <rect
       width="8.0812197"
       height="10.606602"
       ry="0"
       x="489.92398"
       y="603.34937"
       style="fill:none;fill-opacity:1;fill-rule:evenodd;stroke:#000000;stroke-width:1;stroke-linecap:butt;stroke-miterlimit:4;stroke-dasharray:none;stroke-opacity:1"
       id="rect3651" />
    <rect
       width="8.0812197"
       height="10.606602"
       ry="0"
       x="507.42395"
       y="603.34937"
       style="fill:none;fill-opacity:1;fill-rule:evenodd;stroke:#000000;stroke-width:1;stroke-linecap:butt;stroke-miterlimit:4;stroke-dasharray:none;stroke-opacity:1"
       id="rect3653" />
    <rect
       width="8.0812197"
       height="10.606602"
       ry="0"
       x="524.92395"
       y="603.34937"
       style="fill:none;fill-opacity:1;fill-rule:evenodd;stroke:#000000;stroke-width:1;stroke-linecap:butt;stroke-miterlimit:4;stroke-dasharray:none;stroke-opacity:1"
       id="rect3655" />
    <rect
       width="8.0812197"
       height="10.606602"
       ry="0"
       x="542.42395"
       y="603.34937"
       style="fill:none;fill-opacity:1;fill-rule:evenodd;stroke:#000000;stroke-width:1;stroke-linecap:butt;stroke-miterlimit:4;stroke-dasharray:none;stroke-opacity:1"
       id="rect3657" />
    <rect
       width="8.0812197"
       height="10.606602"
       ry="0"
       x="559.92395"
       y="603.34937"
       style="fill:none;fill-opacity:1;fill-rule:evenodd;stroke:#000000;stroke-width:1;stroke-linecap:butt;stroke-miterlimit:4;stroke-dasharray:none;stroke-opacity:1"
       id="rect3659" />
    <rect
       width="8.1606035"
       height="10.606602"
       ry="0"
       x="234.20222"
       y="561.27618"
       transform="matrix(0.9902723,0.1391429,0,1,0,0)"
       style="fill:none;fill-opacity:1;fill-rule:evenodd;stroke:#000000;stroke-width:1.00489962;stroke-linecap:butt;stroke-miterlimit:4;stroke-dasharray:none;stroke-opacity:1"
       id="rect3661" />
    <rect
       width="8.1606035"
       height="10.606602"
       ry="0"
       x="251.8741"
       y="561.27618"
       transform="matrix(0.9902723,0.1391429,0,1,0,0)"
       style="fill:none;fill-opacity:1;fill-rule:evenodd;stroke:#000000;stroke-width:1.00489962;stroke-linecap:butt;stroke-miterlimit:4;stroke-dasharray:none;stroke-opacity:1"
       id="rect3663" />
    <rect
       width="8.1606035"
       height="10.606602"
       ry="0"
       x="269.54602"
       y="561.27618"
       transform="matrix(0.9902723,0.1391429,0,1,0,0)"
       style="fill:none;fill-opacity:1;fill-rule:evenodd;stroke:#000000;stroke-width:1.00489962;stroke-linecap:butt;stroke-miterlimit:4;stroke-dasharray:none;stroke-opacity:1"
       id="rect3665" />
    <rect
       width="8.1606035"
       height="10.606602"
       ry="0"
       x="287.21793"
       y="561.27618"
       transform="matrix(0.9902723,0.1391429,0,1,0,0)"
       style="fill:none;fill-opacity:1;fill-rule:evenodd;stroke:#000000;stroke-width:1.00489962;stroke-linecap:butt;stroke-miterlimit:4;stroke-dasharray:none;stroke-opacity:1"
       id="rect3667" />
    <rect
       width="8.1606035"
       height="10.606602"
       ry="0"
       x="304.88983"
       y="561.27618"
       transform="matrix(0.9902723,0.1391429,0,1,0,0)"
       style="fill:none;fill-opacity:1;fill-rule:evenodd;stroke:#000000;stroke-width:1.00489962;stroke-linecap:butt;stroke-miterlimit:4;stroke-dasharray:none;stroke-opacity:1"
       id="rect3669" />
    <path
       d="M 378.8125,251.34375 L 378.59375,267.625 C 348.3868,270.02228 289.2014,259.38632 283,267.625 C 279.31719,272.51769 281.18759,279.34191 281.59375,284.90625 C 281.59376,284.90624 233.83708,282.13595 228.28125,284.15625 C 217.66375,287.67965 219.34728,294.55144 219.46875,303.84375 C 187.56918,305.11551 175.33168,300.81274 155.0625,328.09375 C 177.67227,310.54378 207.00089,319.28225 234.5,319.4375 C 242.67572,319.34839 243.38309,312.26696 244.21875,305.09375 C 244.21874,305.09374 300.96185,309.02179 305.5625,305.34375 C 311.87666,300.29582 308.34173,284.61694 307.84375,282.625 C 313.6543,283.14394 362.3747,286.93424 378.375,285.75 L 378.21875,297.78125 L 336.875,297.78125 L 354.0625,342.21875 L 377.625,341.84375 L 377.34375,363.875 C 334.05842,368.25656 290.78533,372.94625 247.5,378.09375 L 247.5,388.4375 C 290.84901,384.67339 334.04572,380.64732 377.15625,376.40625 L 373.34375,668.09375 C 379.71915,669.48773 386.29438,670.3335 392.9375,670.625 L 392.9375,374.84375 C 450.87775,369.0662 508.62353,362.90511 566.1875,356.375 L 566.1875,346.25 C 508.43591,351.30567 450.68909,356.56308 392.9375,362.3125 L 392.9375,341.59375 L 417.6875,341.21875 L 432.84375,297.78125 L 392.9375,297.78125 L 392.9375,251.34375 L 378.8125,251.34375 z M 362.125,311.40625 L 377.28125,311.40625 L 377.28125,325.0625 L 362.125,325.0625 L 362.125,311.40625 z M 396.125,311.40625 L 411.28125,311.40625 L 411.28125,325.0625 L 396.125,325.0625 L 396.125,311.40625 z "
       style="fill:#aa8c28;fill-opacity:1;fill-rule:evenodd;stroke:#000000;stroke-width:1px;stroke-linecap:butt;stroke-linejoin:miter;stroke-opacity:1"
       id="path3671" />
    <path
       d="M 402.3125,341.4375 L 394.0625,341.5625 L 409.40625,360.71875 C 412.14625,360.45028 414.88501,360.17266 417.625,359.90625 L 402.3125,341.4375 z M 427.125,371.375 C 424.30315,371.66409 421.47902,371.93147 418.65625,372.21875 L 560.59375,549.03125 L 573.5625,547.9375 L 427.125,371.375 z "
       style="fill:#aa8c28;fill-opacity:1;fill-rule:evenodd;stroke:#000000;stroke-width:1px;stroke-linecap:butt;stroke-linejoin:miter;stroke-opacity:1"
       id="path3701" />
    <path
       d="M 526.8125,347.0625 C 524.95305,347.08534 523.50056,348.3659 522.65625,348.96875 C 519.87704,353.72758 520.81925,357.86991 520.6875,362.1875 C 508.90178,372.2233 488.5759,380.49235 475.71875,366.65625 C 473.159,360.62933 474.38068,357.48923 475.53125,353.78125 C 474.53568,352.80678 469.10744,349.97766 465.1875,353.625 C 462.74124,357.92525 462.69176,363.24694 463.5625,368.96875 C 451.64868,379.16907 436.00788,385.57809 422.6875,373.0625 C 419.6543,368.00296 420.65365,363.68452 422.84375,358.625 C 419.51041,356.99313 416.90476,355.21011 412.5,359.15625 C 410.21903,365.28674 410.73977,369.72548 410.71875,374.5 C 402.35927,383.24759 393.7107,386.03092 387.6875,375.40625 C 385.98879,369.87676 386.23415,366.22208 391.0625,361.65625 C 389.28332,358.72977 382.35727,359.97227 379.65625,362 C 375.89787,368.81967 376.57414,373.42871 376.4375,378.4375 C 362.97543,389.52087 343.3604,395.46112 331.78125,381.125 C 329.95568,377.2363 328.85002,375.66338 333.40625,368.25 C 331.85173,366.55702 330.81051,363.54176 325.90625,367.71875 C 320.37073,372.43338 322.52371,378.51842 321.59375,383.78125 C 316.96717,391.21925 290.81533,402.40347 282.3125,387 C 282.70288,381.61709 280.44054,380.97005 288.5625,373.0625 C 287.9865,370.05742 285.96348,371.09571 281.59375,373.78125 C 245.77737,442.48381 231.33495,516.68806 293.18211,587.30498 C 325.64241,521.36561 414.12571,572.58625 469.28125,613.0625 C 433.14618,561.96367 421.74986,447.27266 528.5625,361.125 C 528.92578,356.97622 528.03969,352.626 530.53125,348.78125 C 529.19197,347.48845 527.92817,347.0488 526.8125,347.0625 z M 388.90625,406.625 C 376.94438,416.02499 350.40853,455.47514 359.6875,458.03125 C 372.07911,461.4448 401.45831,443.98178 411.875,438.9375 C 403.92878,458.7655 406.56063,476.19431 405.3125,494.5 C 400.56253,490.42465 363.10006,464.97084 358.46875,473.03125 C 355.39975,478.37259 371.69648,519.15178 379.09375,527.09375 C 362.94557,526.27461 350.8896,524.13312 332.34375,524.8125 C 338.6953,512.74529 348.77481,480.84367 345.03125,472.21875 C 342.55101,466.50443 302.8921,485.30047 296.46875,488.96875 C 296.64184,472.71684 297.7881,461.61752 296.46875,443.59375 C 296.43773,443.54862 296.44782,443.49566 296.46875,443.46875 C 296.47195,443.51212 296.46558,443.55046 296.46875,443.59375 C 297.66654,445.3368 336.68617,460.28104 342.8125,459.15625 C 351.24883,459.94938 341.35659,420.13935 339.40625,408.375 C 353.36661,409.05515 367.08301,409.87631 388.90625,406.625 z "
       style="fill:#aa8c28;fill-opacity:1;fill-rule:evenodd;stroke:#000000;stroke-width:1px;stroke-linecap:butt;stroke-linejoin:miter;stroke-opacity:1"
       id="path3688" />
    <path
       d="M 151.5625,520.0625 L 142.84375,531.65625 C 142.84375,531.65625 202.50446,571.29466 205.71875,578.4375 C 206.06956,579.21709 206.37784,580.27398 206.65625,581.46875 L 335.8125,601.875 L 338.58036,602.17857 L 338.5625,584.71875 C 338.5625,584.71875 252.61362,569.65243 226.54219,560.72383 C 200.47076,551.79526 151.5625,520.06249 151.5625,520.0625 z "
       style="fill:#aa8c28;fill-opacity:1;fill-rule:evenodd;stroke:#000000;stroke-width:1px;stroke-linecap:butt;stroke-linejoin:miter;stroke-opacity:1"
       id="path3631" />
    <path
       d="M 459.46875,449.21875 C 458.28034,451.97476 457.13556,454.71637 456.09375,457.46875 L 512.375,553.125 L 523.1875,552.1875 L 459.46875,449.21875 z "
       style="fill:#aa8c28;fill-opacity:1;fill-rule:evenodd;stroke:#000000;stroke-width:1px;stroke-linecap:butt;stroke-linejoin:miter;stroke-opacity:1"
       id="path3709" />
    <path
       d="M 451.4375,471.4375 C 450.13458,475.87285 448.98497,480.29726 448.03125,484.6875 L 478.90625,555.96875 L 488.8125,555.125 L 451.4375,471.4375 z "
       style="fill:#aa8c28;fill-opacity:1;fill-rule:evenodd;stroke:#000000;stroke-width:1px;stroke-linecap:butt;stroke-linejoin:miter;stroke-opacity:1"
       id="path3717" />
    <path
       d="M 388.90625,406.625 C 367.08301,409.87631 353.36661,409.05515 339.40625,408.375 C 341.35659,420.13935 351.24883,459.94938 342.8125,459.15625 C 336.68617,460.28104 297.66654,445.3368 296.46875,443.59375 C 297.7881,461.61752 296.64184,472.71684 296.46875,488.96875 C 302.8921,485.30047 342.55101,466.50443 345.03125,472.21875 C 348.77481,480.84367 338.6953,512.74529 332.34375,524.8125 C 350.8896,524.13312 362.94557,526.27461 379.09375,527.09375 C 371.69648,519.15178 355.39975,478.37259 358.46875,473.03125 C 363.10006,464.97084 400.56253,490.42465 405.3125,494.5 C 406.56063,476.19431 403.92878,458.7655 411.875,438.9375 C 401.45831,443.98178 372.07911,461.4448 359.6875,458.03125 C 350.40853,455.47514 376.94438,416.02499 388.90625,406.625 z "
       style="fill:#df0000;fill-opacity:1;fill-rule:evenodd;stroke:#000000;stroke-width:1;stroke-linecap:butt;stroke-miterlimit:4;stroke-dasharray:none;stroke-opacity:1"
       id="rect3729" />
    <path
       d="M 156.73214,541.07589 C 159.202,543.04517 160.46158,543.95066 163.47321,545.74554 L 377.5625,346.28125 L 377.625,341.84375 L 374.1875,341.90625 L 156.73214,541.07589 z "
       style="fill:#aa8c28;fill-opacity:1;fill-rule:evenodd;stroke:#000000;stroke-width:1px;stroke-linecap:butt;stroke-linejoin:miter;stroke-opacity:1"
       id="path3693" />
  </g>
</svg>
