<?xml version="1.0" encoding="UTF-8"?>
<!DOCTYPE svg PUBLIC "-//W3C//DTD SVG 1.1//EN" "http://www.w3.org/Graphics/SVG/1.1/DTD/svg11.dtd">
<!-- Creator: CorelDRAW -->
<svg xmlns="http://www.w3.org/2000/svg" xml:space="preserve" width="500px" height="560px" shape-rendering="geometricPrecision" text-rendering="geometricPrecision" image-rendering="optimizeQuality" fill-rule="evenodd" clip-rule="evenodd"
viewBox="0 0 500 560"
 xmlns:xlink="http://www.w3.org/1999/xlink"
 xmlns:svg="http://www.w3.org/2000/svg"
 version="1.0">
 <g id="Layer_x0020_1">
  <metadata id="CorelCorpID_0Corel-Layer"/>
  <path id="path1937" fill="#F00000" stroke="#F00000" stroke-width="0.368504" d="M0.161858 0.423213l499.554 -0.121606 -10.0434 318.804c-7.37802,320.676 -467.415,319.578 -477.148,-0.148536l-12.3616 -318.534z"/>
  <path fill="#CCCCCC" d="M236.28 242.452c-17.168,-24.9696 -70.5904,-10.4703 -90.1262,-11.9069 -22.3614,-1.64466 -25.7471,-13.3906 -24.7502,-20.5177 3.50136,-25.0336 41.1551,6.22857 39.8047,-19.0854 -0.136063,-2.55062 -15.1753,-10.2186 -43.4679,2.16964 -29.1782,12.776 -61.6607,-6.82498 -62.3183,-16.1566 -4.25225,-23.9525 45.0411,1.19225 45.2055,-24.8854 0.06463,-10.2362 -16.5382,-11.9075 -36.2781,-7.25783 -23.9122,5.63244 -50.8672,-8.91497 -49.5598,-28.3989 1.59987,-23.8482 35.7401,3.11641 35.2058,-14.5264 0.639213,-5.46974 -25.0486,-4.65052 -26.1635,-21.8548 -0.751465,-11.5971 19.3683,-1.25518 7.83355,-19.8618 -6.04488,-9.75147 -2.68356,-19.9315 7.78706,-30.7973 6.75213,-7.00696 27.7988,-15.6033 37.5769,-9.59812 8.67062,5.32545 10.8048,-3.30747 18.6197,-2.24391 10.3759,1.41222 9.05755,18.8813 19.3706,23.0582 18.2795,7.40353 -12.9059,-35.4784 15.7686,-33.9636 37.5854,1.98567 4.91698,78.0605 30.0671,74.6587 16.0954,-2.17701 -9.20211,-40.5318 15.5693,-40.237 16.4035,0.195024 18.0309,33.7652 14.9145,54.8654 -3.34006,22.6148 1.52476,49.9368 13.9782,51.5418 17.1519,3.87241 -10.9162,-43.1354 12.2536,-46.0154 7.14133,-0.887528 17.5504,6.96388 21.1388,29.0977 5.78495,35.6845 -11.1994,80.411 11.2859,105.653 11.9271,-11.5784 9.23188,-70.5898 15.0168,-106.274 3.5881,-22.1338 14.6324,-29.4735 21.7599,-28.4766 25.0336,3.50164 -13.5933,47.4035 11.6325,44.1522 12.4535,-1.60498 12.35,-28.9267 9.00964,-51.5418 -3.11669,-21.1005 -1.06526,-50.5341 18.6409,-53.0022 17.642,-2.20961 6.30567,36.197 14.9482,35.8895 25.3636,-0.902552 -6.49134,-64.4517 30.6882,-70.3112 17.4957,-2.75726 3.07843,40.1256 18.8739,32.7215 10.0755,-4.72281 9.61512,-19.7822 19.9916,-21.1949 7.81541,-1.06413 8.7069,6.32722 17.3775,1.00176 9.77812,-6.0052 28.3402,3.21194 35.0926,10.2192 10.4709,10.8661 15.0744,19.8034 9.0292,29.5552 -11.535,18.6069 4.85887,7.02199 4.10712,18.6197 -1.11543,17.2046 -19.3499,15.764 -18.7107,21.2338 2.57102,21.9903 27.3943,-11.1852 28.995,12.6632 1.30762,19.4848 -28.7949,40.0641 -52.0441,32.1253 -17.2562,-5.89238 -32.7665,-2.90665 -31.3095,8.49997 4.03966,31.6213 46.3524,-9.00426 43.9634,24.8854 -0.657638,9.33166 -29.1937,21.5788 -43.6862,19.8831 -23.2359,-2.71871 -56.8242,-20.9021 -57.7525,-5.27499 -1.61093,27.1154 35.6823,-7.81144 39.1836,17.2222 0.996945,7.12715 -6.11462,20.1149 -28.4766,21.7599 -19.5361,1.43717 -74.8214,-13.6837 -91.9894,11.2859l63.9182 11.1271c24.6359,-21.8418 57.1383,-24.7399 64.5914,2.48428 36.8538,13.8674 57.35,27.3232 55.2753,63.3493 4.55414,5.58936 9.93657,6.21043 16.1479,1.86321 -0.828284,9.72993 -8.48807,14.4916 -22.9796,12.4214 -18.6324,17.5969 -43.8897,12.6281 -83.2235,-9.31607 -27.5726,9.93459 -48.6131,-6.41566 -39.7486,-46.5803 -16.2907,-21.0699 -57.9929,-27.4402 -62.0683,-9.79541 0.374457,9.78917 0.895748,20.9602 44.6576,41.0451 29.1816,13.3931 31.6086,44.8521 25.8656,49.1865 -7.56511,5.70983 -14.1267,3.39477 -15.4494,-2.69206 -2.44262,-11.2385 -8.02574,-4.48016 -13.4393,-8.67402 -4.51389,-3.49682 -8.79393,-4.85292 -8.69358,-1.07093 0.379276,14.2883 10.9375,21.3375 29.4537,34.7426 22.7126,16.4435 35.2908,37.4689 25.539,50.6591 -13.2438,17.9136 -20.0702,9.34782 -24.4375,-1.9749 -3.82762,-9.92325 -17.4813,-15.6617 -20.8259,-6.00038 -4.67036,13.4892 12.9549,20.5974 27.3926,37.8972 11.2297,13.4558 17.767,30.7644 8.07761,44.0776 -3.90813,5.36967 -12.3832,3.22271 -13.3795,-3.4886 -0.829418,-5.58312 -6.56958,-7.41204 -10.3527,-10.7702 -4.2874,-3.8058 -7.05459,-8.43166 -9.02467,-2.98545 -3.78482,10.4632 6.0704,13.1227 -2.87575,18.565 -7.25755,4.41496 -3.18501,8.51074 -9.89037,20.2745 -11.3292,19.8748 -27.9519,9.27383 -37.6302,8.27207 -15.8343,-1.63899 -32.8076,15.2651 -43.9744,-16.081 -5.78551,-16.24 -9.45355,-1.90091 -11.1002,-23.8975 -2.0126,-26.8849 -17.6372,15.7476 -31.3203,4.0955 -10.9488,-9.32344 0.477071,-32.2033 16.5694,-46.474 12.9974,-11.5265 29.2683,-20.0988 20.4761,-31.2551 -14.9876,-19.0168 -24.5461,35.4166 -47.4412,7.90044 -8.61789,-9.54766 5.38526,-35.9014 16.8313,-44.9501 18.3518,-14.5077 35.0861,-16.7063 37.7351,-30.8965 4.98444,-26.7015 -22.1916,15.2277 -33.6739,3.72841 -5.7447,-4.33474 -11.1419,-35.3163 32.6977,-54.1545 17.9969,-7.73377 37.1186,-18.3881 33.4653,-37.6257 -3.14447,-13.0964 -45.4944,-8.51613 -58.5771,14.2056 6.11235,39.9612 -11.6929,48.4478 -40.3696,45.3382 -40.3696,23.3935 -66.6613,26.2916 -83.8446,9.93714 -10.9721,1.86293 -19.4599,-1.24243 -25.4639,-9.31607 7.87181,1.67046 15.3286,2.09395 19.8743,-6.21071 -8.07364,-24.6359 9.31635,-42.2331 55.8964,-60.2439 2.56195,-12.8872 13.6738,-20.4083 21.3693,-21.3905 12.8254,-1.63729 28.2393,7.98605 42.6011,17.043 19.5449,-7.79811 40.4357,-12.2315 63.2926,-11.7482z"/>
  <path fill="white" d="M75.8861 193.324c-11.8505,-4.46967 -20.1353,-11.7031 -20.4642,-16.369 -4.25225,-23.9525 45.0411,1.19225 45.2055,-24.8854 0.0300473,-4.79821 -3.60142,-7.71478 -9.5023,-8.97988 24.0738,-1.94088 16.0846,24.5316 -1.52419,25.333 -28.5798,1.30054 -44.2843,5.12419 -13.7149,24.9012zm74.6377 -150.885c0.0637796,-17.6726 -2.11776,-34.8832 -19.7357,-35.8138 -28.6744,-1.51484 2.51093,41.3671 -15.7686,33.9636 -10.313,-4.17685 -8.99462,-21.6459 -19.3706,-23.0582 -7.81484,-1.06356 -9.94904,7.56936 -18.6197,2.24391 -9.77812,-6.0052 -30.8248,2.59115 -37.5769,9.59812 -10.4706,10.8658 -13.8319,21.0458 -7.78706,30.7973 11.5347,18.6066 -8.58501,8.2647 -7.83355,19.8618 1.11487,17.2043 26.8027,16.3851 26.1635,21.8548 0.534331,17.6428 -33.6059,-9.32174 -35.2058,14.5264 -0.959812,14.3084 13.3217,25.9549 30.4475,28.9015 -17.3599,-6.43323 -26.7718,-19.3399 -26.3548,-27.6616 0.665008,-13.2721 32.0891,3.48293 34.0495,-12.6896 2.02649,-16.7199 -29.3964,-6.8675 -23.3997,-25.7635 1.6954,-5.34303 6.88111,0.695055 10.8173,-6.93411 4.4572,-8.63915 -18.3952,-21.2644 2.63282,-39.6624 21.8588,-19.1248 36.4598,-1.36176 43.6612,-7.70769 17.6961,-15.5942 21.1816,28.1463 34.6623,17.5842 12.3041,-9.64063 -13.9827,-30.0373 11.6308,-32.4326 15.2907,-1.43008 16.0143,33.9287 17.5873,32.3918zm42.0409 31.4377c-0.569197,-16.7868 -4.86284,-32.6957 -16.1402,-32.8297 -24.7714,-0.294803 0.525827,38.0602 -15.5693,40.237 -9.60265,1.29855 -10.7759,-8.98952 -10.6495,-22.3166 -2.55345,10.1611 0.865418,34.4982 15.8547,24.4956 9.81383,-6.54889 -5.87396,-33.0321 7.93134,-38.6901 6.27506,-2.57159 14.6582,1.39975 18.5729,29.1039zm-137.802 249.868c0.620788,-3.31087 0.413858,-6.20788 -0.620788,-8.69103 -0.300189,-6.93581 -6.34111,-23.8672 56.4917,-50.5942l0.931182 3.10394c-29.5795,12.13 -52.8134,24.8032 -53.3877,39.42 4.18706,-10.0877 26.0189,-21.8826 55.8709,-34.4537l28.5072 51.8516c1.23562,0.133795 2.45169,0.246331 3.64592,0.335622l-33.7051 -63.0511c13.2435,-36.1092 44.8002,-17.8994 58.354,-4.9663 5.12164,1.03493 9.67437,0.931182 13.9677,0.310394 14.692,-6.44089 32.0743,-9.18312 53.3877,-6.51827l-1.92529 -8.03963c-22.8569,-0.483307 -43.7477,3.95008 -63.2926,11.7482 -14.3617,-9.05698 -29.7757,-18.6803 -42.6011,-17.043 -7.6955,0.982205 -18.8073,8.50337 -21.3693,21.3905 -46.5801,18.0108 -63.97,35.608 -55.8964,60.2439 -2.27282,4.15219 -5.27329,6.12284 -8.68961,6.84596 2.82076,2.17389 5.84929,3.41178 10.3314,-1.89298zm-16.5473 6.38136c-1.81134,-1.39748 -3.46791,-3.10536 -4.96885,-5.12362 1.9681,0.210331 3.9104,0.446457 5.7875,0.591307l-0.818646 4.53232zm203.286 -65.2884c3.65329,19.2376 -15.4684,29.8919 -33.4653,37.6257 -43.8395,18.8382 -38.4424,49.8198 -32.6977,54.1545 -8.67459,-46.734 82.2873,-51.8752 66.1629,-91.7802zm-32.7617 79.4659c1.01112,0.985323 1.20699,3.57959 0.272693,8.58586 -2.64898,14.19 -19.3833,16.3888 -37.7351,30.8965 -11.446,9.04876 -25.4492,35.4025 -16.8313,44.9501 -1.25717,-49.7926 61.1161,-48.9909 58.6171,-81.4014l-4.3234 -3.03109zm-9.6035 73.789c0.898867,0.652536 1.81446,1.5548 2.75103,2.74309 8.79222,11.1563 -7.47865,19.7286 -20.4761,31.2551 -16.0923,14.2707 -27.5182,37.1506 -16.5694,46.474 1.28268,1.09219 2.58293,1.70759 3.88687,1.94769 -23.9176,-29.3318 57.6987,-62.6987 34.4018,-83.3392l-3.9943 0.919276zm17.4816 115.78c-3.40895,-2.84882 -6.56391,-7.6697 -9.35547,-15.5061 -5.78551,-16.24 -9.45383,-1.9012 -11.1002,-23.8975 -0.113669,-1.52249 -0.271559,-2.82274 -0.469984,-3.92173l2.78249 -2.29408c0.240945,18.9136 7.85991,17.1791 9.53944,22.629 2.03783,6.61295 2.58378,10.6739 8.60372,22.9904zm85.0153 -46.5367c-3.78482,10.4632 6.0704,13.1227 -2.87575,18.565 -7.25755,4.41496 -3.18501,8.51074 -9.89037,20.2745 3.58469,-9.07087 1.62425,-11.9288 4.34353,-17.0719 1.86038,-3.51893 7.00243,-3.67767 7.99285,-7.3406 1.46268,-5.41049 -4.6749,-4.53997 -0.91956,-17.2344l1.34929 2.80743zm-2.71332 -64.7306c-4.67036,13.4892 12.9549,20.5974 27.3926,37.8972 11.2297,13.4558 17.767,30.7644 8.07761,44.0776 15.1807,-44.3968 -47.5472,-62.4099 -35.4702,-81.9749zm45.2634 7.97528c7.43159,-46.4701 -58.0791,-51.9682 -54.9927,-85.4017 0.379276,14.2883 10.9375,21.3375 29.4537,34.7426 22.7126,16.4435 35.2908,37.4689 25.539,50.6591m-29.3851 -70.6247c-1.74614,-0.997229 -2.97893,-2.74961 -3.47471,-5.03207 -0.763087,-3.51184 -1.83317,-5.26677 -3.10904,-6.14722l5.72684 2.28246 0.856914 8.89682zm-19.5979 -244.141c1.25972,-7.19547 0.177165,-13.1729 -8.42797,-14.3765 -7.12744,-0.996945 -18.1718,6.34281 -21.7599,28.4766 -5.78495,35.6842 -3.08977,94.6956 -15.0168,106.274 -22.4853,-25.242 -5.50092,-69.9684 -11.2859,-105.653 -3.58838,-22.1338 -13.9975,-29.9852 -21.1388,-29.0977 -23.1698,2.88 4.89827,49.8878 -12.2536,46.0154 -7.78337,-1.0029 -12.6023,-12.0521 -14.3065,-25.7185 -0.30841,11.3403 6.31049,31.4841 19.8717,28.124 8.75594,-2.16964 -7.21701,-42.4415 6.79153,-45.6684 8.03452,-1.85074 18.9482,10.4638 20.1977,37.8661 1.11657,24.484 -9.77471,80.8487 12.7491,97.8812 5.30136,0.743811 11.7349,-15.1498 14.6075,-47.0636 3.51836,-39.0884 -3.11414,-97.242 28.2268,-85.7849l1.74501 8.72533zm178.634 -60.5112c3.02542,-8.39226 -1.64438,-16.4237 -10.8062,-25.9314 -6.75241,-7.00725 -25.3145,-16.2244 -35.0926,-10.2192 -8.67062,5.32545 -9.56212,-2.06589 -17.3775,-1.00176 -10.3765,1.41279 -9.91616,16.4721 -19.9916,21.1949 -15.7955,7.4041 -1.37821,-35.4787 -18.8739,-32.7215 -37.1795,5.8595 -5.3246,69.4086 -30.6882,70.3112 -8.64256,0.307559 2.69377,-38.0991 -14.9482,-35.8895 -19.7062,2.46813 -21.7576,31.9017 -18.6409,53.0022 3.34035,22.6151 3.44353,49.9371 -9.00964,51.5418 -9.31153,1.19991 -9.92268,-4.0252 -8.24712,-11.2714 -2.22576,6.17726 -6.73229,16.9764 9.81808,14.8737 26.4909,-3.36586 -0.0130394,-84.0192 19.3972,-101.194 8.24429,-7.29496 15.4015,-1.26397 15.8791,8.86394 0.978237,20.74 1.68775,24.7958 9.66076,23.2994 18.4609,-3.46479 3.0532,-53.7058 21.583,-67.6293 6.04999,-4.54592 11.912,-2.45991 12.3732,5.48136 0.551339,9.48898 1.33937,18.2458 5.19137,21.4583 8.7772,7.32048 18.0315,-5.83115 19.0695,-8.38375 4.3475,-10.6923 8.65701,-5.01959 16.1138,-4.86255 5.79997,0.12189 14.2339,-3.11953 17.7078,-3.29698 23.7665,-1.21408 33.5897,17.7548 36.8822,32.3748zm-5.80961 12.0592c-1.15058,6.21241 8.72646,1.12365 8.13969,10.1843 -0.0694489,1.0749 -0.206362,2.07751 -0.401103,3.0138l-1.34787 -3.57959 -10.243 -4.65591 3.85229 -4.96262zm5.05758 41.1081c6.10838,-2.38025 12.3477,-1.18687 12.9373,8.45802 0.397984,-1.82183 0.551622,-3.65811 0.429166,-5.48476 -1.60073,-23.8485 -26.424,9.32712 -28.995,-12.6632 -4.66696,12.9909 7.31906,12.9283 15.6285,9.68996m-69.4857 38.8704c-0.542551,1.36913 -0.729071,2.94605 -0.501449,4.72819 4.03966,31.6213 46.3524,-9.00426 43.9634,24.8854 -0.0822048,1.16646 -0.600095,2.37827 -1.47175,3.60312l-1.27956 -11.3896c-33.0219,2.6572 -46.5922,-4.61849 -40.7106,-21.8271zm-57.9768 44.2216c-1.61093,27.1154 35.6823,-7.81144 39.1836,17.2222 0.435969,3.11811 -0.679748,7.35789 -3.94583,11.2791 14.0168,-37.1254 -39.6323,7.38284 -35.2378,-28.5012zm-81.2824 50.2679l63.9182 11.1271c24.6359,-21.8418 57.1383,-24.7399 64.5914,2.48428l-1.92756 1.25717c-7.56567,-15.2093 -22.9839,-17.4915 -36.5409,-12.9872 -11.9622,3.97418 -16.6142,11.9203 -27.7107,15.7808 -6.41481,2.27622 -34.8676,-10.3465 -61.1476,-10.8638l-2.17276 -3.10394 0.989859 -3.6944zm131.074 14.586c35.2381,13.5357 54.737,27.1931 52.7111,62.3747 4.55414,5.58936 9.93657,6.21043 16.1479,1.86321 -5.46463,7.13566 -11.4982,5.16473 -17.7902,-0.945355 1.75521,-34.4458 -19.8244,-49.184 -49.3526,-60.5268l-1.7161 -2.76577zm-67.2852 65.8752c-9.73645,-6.63251 -14.4884,-20.8786 -10.3822,-42.3275l3.33695 4.98076c-3.08495,11.3621 -2.28898,23.5001 7.04523,37.3468zm-69.7896 -59.245c-0.99156,1.23987 -1.70447,2.68328 -2.0863,4.33729 0.374457,9.78917 0.895748,20.9602 44.6576,41.0451 29.1816,13.3931 31.6086,44.8523 25.8656,49.1865 7.4143,-57.4359 -83.2559,-50.62 -70.8752,-96.8814l2.43836 2.31251zm-112.182 -32.5021c-22.3614,-1.64466 -25.7471,-13.3906 -24.7502,-20.5177 3.50136,-25.0336 41.1551,6.22857 39.8047,-19.0854 -0.0657638,-1.23534 -3.62863,-3.67143 -10.4998,-4.44728 17.1255,-4.27323 22.9615,25.1734 -6.43352,20.2561 -22.8181,-3.81714 -30.3956,12.344 1.8788,23.7943z"/>
  <polygon fill="white" points="116.841,272.84 127.084,240.559 124.29,241.801 115.289,270.357 "/>
  <polygon fill="white" points="109.83,265.145 133.631,271.126 136.401,270.559 134.376,268.537 112.186,263.406 "/>
  <polygon fill="white" points="132.05,302.638 137.857,283.597 138.569,278.428 136.396,280.911 130.498,300.155 "/>
  <polygon fill="white" points="140.121,317.848 145.928,298.806 146.639,293.637 144.466,296.12 138.569,315.364 "/>
  <polygon fill="white" points="119.142,281.596 139.218,286.956 141.988,286.389 139.964,284.367 121.498,279.857 "/>
  <polygon fill="white" points="127.833,299.288 144.805,303.717 147.575,303.15 145.551,301.128 130.189,297.549 "/>
  <polygon fill="white" points="137.456,316.36 149.461,319.858 152.231,319.291 150.207,317.268 139.812,314.621 "/>
  <polygon fill="white" points="113.555,255.523 125.561,259.02 128.331,258.454 126.306,256.431 115.911,253.784 "/>
  <polygon fill="white" points="121.005,244.349 133.01,247.846 135.78,247.28 133.756,245.257 123.361,242.61 "/>
  <polygon fill="white" points="123.049,287.429 128.856,268.387 129.567,263.218 127.394,265.701 121.497,284.946 "/>
  <polygon fill="white" points="138.843,237.566 136.477,243.232 136.946,246.02 138.728,244.068 139.877,239.36 "/>
  <polygon fill="black" points="150.364,246.767 139.5,276.565 141.362,279.048 152.226,249.251 "/>
  <polygon fill="black" points="161.848,253.906 146.018,293.016 147.88,295.499 163.711,256.39 "/>
  <polygon fill="black" points="173.643,261.666 154.709,309.157 156.571,311.64 175.505,264.149 "/>
  <polygon fill="black" points="181.403,274.703 161.538,321.572 163.4,324.055 183.265,277.186 "/>
  <polygon fill="black" points="162.445,251.348 138.025,245.92 135.799,248.084 160.22,253.511 "/>
  <polygon fill="black" points="178.897,267.798 134.61,257.716 132.385,259.879 181.637,271.204 "/>
  <polygon fill="black" points="183.242,281.145 139.266,270.752 139.524,273.537 181.016,283.309 "/>
  <polygon fill="black" points="177.965,292.94 145.474,286.272 145.731,289.056 180.395,295.725 "/>
  <polygon fill="black" points="176.413,307.839 149.82,302.102 150.077,304.886 178.843,310.623 "/>
  <polygon fill="black" points="165.549,319.944 151.992,317.622 152.25,320.406 167.979,322.729 "/>
  <polygon fill="black" points="135.465,246.767 132.671,255.148 134.533,256.7 136.706,248.94 "/>
  <path fill="black" d="M140.741 322.503l-4.03512 -0.310394c-37.1432,23.4859 -63.5267,26.2794 -79.1504,8.38063 -3.62098,1.47118 -7.24224,1.14832 -10.8638,0.931182 2.26857,1.34702 7.44492,1.96696 13.0365,2.48315 16.8905,17.2786 45.0851,10.9672 81.0128,-11.4846z"/>
  <polygon fill="white" points="318.711,294.772 332.863,291.748 335.633,292.315 333.92,294.026 318.733,296.823 "/>
  <polygon fill="white" points="329.571,265.527 335.378,284.569 336.089,289.738 333.916,287.254 328.019,268.01 "/>
  <polygon fill="white" points="337.952,250.006 343.759,269.204 344.47,274.217 342.298,271.734 336.556,252.178 "/>
  <polygon fill="white" points="321.642,280.5 339.073,276.385 341.843,276.952 339.818,278.974 323.998,282.239 "/>
  <polygon fill="white" points="323.642,267.009 340.613,262.58 343.383,263.147 341.358,264.703 325.997,268.748 "/>
  <polygon fill="white" points="338.088,251.494 363.477,246.284 366.247,246.851 363.911,248.406 336.087,254.166 "/>
  <polygon fill="white" points="319.79,308.285 332.885,304.943 335.655,305.51 333.63,307.532 321.057,310.335 "/>
  <polygon fill="white" points="359.199,241.023 361.747,247.941 363.528,250.312 363.875,247.372 361.604,240.092 "/>
  <polygon fill="white" points="322.748,284.938 328.555,303.046 329.266,308.215 327.093,305.732 322.441,290.689 "/>
  <polygon fill="black" points="347.884,324.043 337.02,291.6 338.882,289.117 349.746,321.56 "/>
  <polygon fill="black" points="359.057,321.262 344.783,278.106 346.646,275.623 360.919,318.778 "/>
  <polygon fill="black" points="368.206,304.164 354.408,267.568 356.27,265.085 370.069,301.681 "/>
  <polygon fill="black" points="376.278,287.237 365.127,257.953 365.9,253.914 378.14,284.754 "/>
  <polygon fill="black" points="361.833,317.284 333.678,321.778 329.896,319.303 359.607,315.12 "/>
  <polygon fill="black" points="368.947,302.078 332.13,310.449 329.905,308.286 371.688,298.673 "/>
  <polygon fill="black" points="377.183,287.487 341.611,293.834 341.868,291.049 378.536,284.856 "/>
  <polygon fill="black" points="381.865,272.89 346.573,278.625 346.83,275.841 383.518,270.417 "/>
  <polygon fill="black" points="387.161,258.147 359.012,261.55 363.626,259.077 389.903,255.83 "/>
  <polygon fill="black" points="333.919,324.666 328.791,309.593 330.653,308.041 336.094,324.205 "/>
  <polygon fill="white" points="348.534,243.003 353.408,257.532 354.119,262.545 351.946,260.062 347.138,245.175 "/>
  <polygon fill="white" points="373.36,239.467 375.131,246.385 376.6,248.912 377.103,245.971 375.299,239.47 "/>
  <polygon fill="white" points="348.23,261.874 352.13,260.557 355.055,260.502 352.408,261.902 "/>
  <polygon fill="black" points="383.281,271.208 377.266,253.129 378.039,249.09 385.143,268.725 "/>
  <path fill="black" stroke="black" stroke-width="0.992126" d="M395.818 259.567l-2.02309 -0.466866c-5.36117,3.51043 -25.9739,44.8348 -33.6144,65.2057l-2.64558 -0.933733c0.252851,-4.81975 24.2283,-54.1369 35.3262,-67.54l3.11244 0.778111 -0.155622 2.95682z"/>
  <path fill="black" d="M363.293 324.461c33.9018,18.6265 52.5249,26.1493 76.0992,7.93673l-0.311244 -3.89055c-16.837,20.3023 -44.5048,11.6076 -72.9868,-4.66866l-2.8012 0.622489z"/>
  <path fill="white" d="M459.934 324.928c-3.13824,1.81559 -7.13282,1.34873 -11.516,-0.155622 2.82784,4.3064 11.1796,4.77298 11.516,0.155622z"/>
  <path fill="white" d="M390.06 263.924c-1.76372,1.81531 -2.90495,3.8384 -3.42369,6.06926 29.8794,12.346 36.1043,16.9109 47.6204,23.4989 -3.384,-9.85607 -19.6767,-16.7556 -44.1967,-29.5682z"/>
  <path fill="black" d="M257.433 243.214c4.0269,-5.48277 7.88712,-10.0653 11.3428,-15.6543 3.91635,-6.3343 7.4024,-13.6097 11.6365,-18.504 8.58926,-21.2114 -11.2748,-61.9138 10.5582,-95.0239 -13.968,30.3285 -1.24214,57.5527 -1.86321,86.3289l26.7061 -29.1903c21.5221,-25.8837 3.62438,-79.0824 10.5582,-116.761 -0.31011,73.2147 13.0377,63.775 3.72643,101.856l26.085 -21.7375c18.6276,-13.7194 10.6631,-86.1636 16.7689,-114.277 -0.828284,33.952 5.79317,54.2466 -2.48428,101.856 12.5498,-8.7738 28.2166,-27.2356 38.3474,-46.4604 10.1307,-19.2254 14.7263,-39.2145 18.7912,-41.1106 -4.34948,21.5297 -12.4234,41.404 -24.2218,59.6228 18.8382,-23.3904 34.5725,-30.9509 50.9278,-49.6857 -11.6977,16.1473 -26.4991,29.8114 -39.7486,44.7171 18.218,-3.31229 8.81093,-7.55575 54.6543,-9.93714 -5.55477,3.08098 -26.8359,4.70835 -44.0567,11.2998 -13.9283,5.33084 -24.3525,14.6588 -42.5815,30.0002 31.2602,-8.27632 68.4179,17.2803 94.7121,2.17502 -22.415,22.4782 -68.0579,-11.4061 -101.545,5.27868l-43.7857 38.1963c37.8831,-10.3439 68.0063,26.1814 98.7503,15.5268 -27.0595,18.9403 -78.5679,-30.5433 -109.221,-3.02882 -13.6831,10.4366 -21.9013,22.2387 -35.4889,35.0138l-0.620788 3.41603 4.3475 -3.10536c27.1202,-6.41452 53.9303,10.4505 83.2235,1.24214 -19.7989,19.7773 -95.6515,-23.2855 -115.519,41.6118 -14.188,63.3053 47.0452,59.1602 56.6414,88.7505 -18.6747,-19.8584 -55.8148,-29.3409 -57.2655,-49.068 -1.65005,13.7974 -1.04485,28.6991 0.366236,39.1813 3.77121,37.1889 63.8493,59.1545 72.6787,85.737 -19.0103,-23.2713 -48.5876,-34.9175 -71.9552,-64.4698 -0.0858898,17.5873 0.423496,34.8778 1.99276,51.6388 25.6794,51.0665 53.1593,47.3406 63.4522,79.4435 -16.1921,-29.1552 -50.6143,-41.1183 -65.3304,-67.5128 2.0418,23.7379 -0.362268,31.8036 2.20536,41.4712 12.0113,24.3281 19.8734,29.2918 23.7742,61.3313 -8.24485,-17.9053 -19.1792,-39.8699 -27.5091,-55.442 -0.526961,23.6393 -1.91906,29.9472 -3.55748,44.8311 -0.813544,-16.1541 -0.924945,-19.3677 -1.12904,-50.8686 -15.2555,12.0813 -29.7122,47.0617 -31.0244,54.292 4.85717,-38.5359 31.2472,-53.4595 30.8421,-67.6596l-0.74126 -32.1319c-22.2857,17.1349 -47.9832,38.2317 -63.0831,60.3482 1.66904,-23.6302 66.8529,-58.9507 62.3112,-78.6646 0.477922,-17.3883 0.593575,-32.8609 -0.584504,-48.5927 -20.3431,23.5786 -42.4287,24.4332 -72.4944,65.9739 6.12482,-28.9296 69.6836,-55.9772 72.3436,-81.1738l-0.575717 -37.9769c-40.6347,41.2804 -33.7295,22.7188 -60.1872,50.5131 2.35871,-18.301 47.6436,-35.1216 56.5688,-56.194 2.89701,-8.07846 6.36265,-14.6696 3.86958,-25.1178 -16.8545,-77.9137 -80.9748,-30.6026 -117.979,-51.1824 28.3391,9.57714 72.5505,-11.1115 87.2606,-0.309543 -1.78554,-9.82574 -20.8715,-26.7389 -29.2811,-33.1532 -24.1348,-20.9962 -89.6108,18.2444 -121.016,-2.86866 9.89207,1.1537 28.6657,4.85036 45.4853,0.409607 19.0622,-5.03263 40.0011,-12.5439 61.956,-10.9701l-28.266 -27.6429c-28.588,-26.9501 -63.1627,9.38183 -117.065,-19.8672 34.054,15.1053 76.4884,2.2748 100.299,5.27443 -18.229,-15.3414 -18.7206,-16.5991 -27.3722,-21.6196 -25.6958,-8.70945 -45.3002,-6.66 -49.6437,-9.43739 19.1495,-0.412158 28.366,-0.514205 46.584,3.72926 -36.7254,-29.6127 -40.1723,-45.942 -45.646,-56.8225 13.1287,19.7374 26.8914,35.5402 52.7902,55.5832 -3.87184,-9.47169 -3.2417,-23.9703 -6.08003,-36.4666 -2.74819,-12.1008 -6.66482,-20.7014 -5.1052,-27.8121 16.791,44.7304 8.46369,58.3603 18.7912,68.1149l25.0005 21.3185c-10.7606,-35.1933 7.03503,-74.422 -8.38177,-101.545 24.3834,14.9879 -6.47348,92.0617 22.9768,112.415l25.7746 26.7038c-9.31125,-38.0806 3.72614,-18.0876 0.00170079,-98.1309 12.8333,48.2718 -8.37468,78.3202 9.31663,103.725l33.8451 40.0541c-4.96659,-51.1246 9.62164,-47.6198 -0.621638,-88.812 15.0044,17.9008 -0.514205,72.5709 8.07506,93.7823 3.66378,7.76098 12.8974,27.6021 22.0482,33.2272l4.644 0z"/>
  <path fill="white" d="M254.348 241.158c4.0269,-5.48277 7.88712,-10.0653 11.3428,-15.6543 3.91635,-6.3343 7.4024,-13.6097 11.6365,-18.504 8.58926,-21.2114 -11.2748,-61.9138 10.5582,-95.0239 -13.968,30.3285 -1.24214,57.5527 -1.86321,86.3289l26.7061 -29.1903c21.5221,-25.8837 3.62438,-79.0824 10.5582,-116.761 -0.31011,73.2147 13.0377,63.775 3.72643,101.856l26.085 -21.7375c18.6276,-13.7194 10.6631,-86.1636 16.7689,-114.277 -0.828284,33.952 5.79317,54.2466 -2.48428,101.856 12.5498,-8.7738 28.2166,-27.2356 38.3474,-46.4604 10.1307,-19.2254 14.7263,-39.2145 18.7912,-41.1106 -4.34948,21.5297 -12.4234,41.404 -24.2218,59.6228 18.8382,-23.3904 34.5725,-30.9509 50.9278,-49.6857 -11.6977,16.1473 -26.4991,29.8114 -39.7486,44.7171 18.218,-3.31229 8.81093,-7.55575 54.6543,-9.93714 -5.55477,3.08098 -26.8359,4.70835 -44.0567,11.2998 -13.9283,5.33084 -24.3525,14.6588 -42.5815,30.0002 31.2602,-8.27632 68.4179,17.2803 94.7121,2.17502 -22.415,22.4782 -68.0579,-11.4061 -101.545,5.27868l-43.7857 38.1963c37.8831,-10.3439 68.0063,26.1814 98.7503,15.5268 -27.0595,18.9403 -78.5679,-30.5433 -109.221,-3.02882 -13.6831,10.4366 -21.9013,22.2387 -35.4889,35.0138l-0.620788 3.41603 4.3475 -3.10536c27.1202,-6.41452 53.9303,10.4505 83.2235,1.24214 -19.7989,19.7773 -95.6515,-23.2855 -115.519,41.6118 -14.188,63.3053 47.0452,59.1602 56.6414,88.7505 -18.6747,-19.8584 -55.8148,-29.3409 -57.2655,-49.068 -1.65005,13.7974 -1.04485,28.6991 0.366236,39.1813 3.77121,37.1889 63.8493,59.1545 72.6787,85.737 -19.0103,-23.2713 -48.5876,-34.9175 -71.9552,-64.4698 -0.0858898,17.5873 0.423496,34.8778 1.99276,51.6388 25.6794,51.0665 53.1593,47.3406 63.4522,79.4435 -16.1921,-29.1552 -50.6143,-41.1183 -65.3304,-67.5128 2.0418,23.7379 -0.362268,31.8036 2.20536,41.4712 12.0113,24.3281 19.8734,29.2918 23.7742,61.3313 -8.24485,-17.9053 -19.1792,-39.8699 -27.5091,-55.442 -0.526961,23.6393 -1.91906,29.9472 -3.55748,44.8311 -0.813544,-16.1541 -0.924945,-19.3677 -1.12904,-50.8686 -15.2555,12.0813 -29.7122,47.0617 -31.0244,54.292 4.85717,-38.5359 31.2472,-53.4595 30.8421,-67.6596l-0.74126 -32.1319c-22.2857,17.1349 -47.9832,38.2317 -63.0831,60.3482 1.66904,-23.6302 66.8529,-58.9507 62.3112,-78.6646 0.477922,-17.3883 0.593575,-32.8609 -0.584504,-48.5927 -20.3431,23.5786 -42.4287,24.4332 -72.4944,65.9739 6.12482,-28.9296 69.6836,-55.9772 72.3436,-81.1738l-0.575717 -37.9769c-40.6347,41.2804 -33.7295,22.7188 -60.1872,50.5131 2.35871,-18.301 47.6436,-35.1216 56.5688,-56.194 2.89701,-8.07846 6.36265,-14.6696 3.86958,-25.1178 -16.8545,-77.9137 -80.9748,-30.6026 -117.979,-51.1824 28.3391,9.57714 72.5505,-11.1115 87.2606,-0.309543 -1.78554,-9.82574 -20.8715,-26.7389 -29.2811,-33.1532 -24.1348,-20.9962 -89.6108,18.2444 -121.016,-2.86866 9.89207,1.1537 28.6657,4.85036 45.4853,0.409607 19.0622,-5.03263 40.0011,-12.5439 61.956,-10.9701l-28.266 -27.6429c-28.588,-26.9501 -63.1627,9.38183 -117.065,-19.8672 34.054,15.1053 76.4884,2.2748 100.299,5.27443 -18.229,-15.3414 -18.7206,-16.5991 -27.3722,-21.6196 -25.6958,-8.70945 -45.3002,-6.66 -49.6437,-9.43739 19.1495,-0.412158 28.366,-0.514205 46.584,3.72926 -36.7254,-29.6127 -40.1723,-45.942 -45.646,-56.8225 13.1287,19.7374 26.8914,35.5402 52.7902,55.5832 -3.87184,-9.47169 -3.2417,-23.9703 -6.08003,-36.4666 -2.74819,-12.1008 -6.66482,-20.7014 -5.1052,-27.8121 16.791,44.7304 8.46369,58.3603 18.7912,68.1149l25.0005 21.3185c-10.7606,-35.1933 7.03503,-74.422 -8.38177,-101.545 24.3834,14.9879 -6.47348,92.0617 22.9768,112.415l25.7746 26.7038c-9.31125,-38.0806 3.72614,-18.0876 0.00170079,-98.1309 12.8333,48.2718 -8.37468,78.3202 9.31663,103.725l33.8451 40.0541c-4.96659,-51.1246 9.62164,-47.6198 -0.621638,-88.812 15.0044,17.9008 -0.514205,72.5709 8.07506,93.7823 3.66378,7.76098 12.8974,27.6021 22.0482,33.2272l4.644 0z"/>
 </g>
</svg>
