<?xml version="1.0" encoding="UTF-8"?>
<!DOCTYPE svg PUBLIC "-//W3C//DTD SVG 1.1//EN" "http://www.w3.org/Graphics/SVG/1.1/DTD/svg11.dtd">
<!-- Creator: CorelDRAW -->
<svg xmlns="http://www.w3.org/2000/svg" xml:space="preserve" width="500px" height="594px" shape-rendering="geometricPrecision" text-rendering="geometricPrecision" image-rendering="optimizeQuality" fill-rule="evenodd" clip-rule="evenodd"
viewBox="0 0 500 594"
 xmlns:xlink="http://www.w3.org/1999/xlink"
 xmlns:svg="http://www.w3.org/2000/svg"
 version="1.0">
 <g id="Layer_x0020_1">
  <metadata id="CorelCorpID_0Corel-Layer"/>
  <path id="path1937" fill="#F00000" stroke="black" stroke-width="0.510236" d="M0.29537 0.38041l499.438 -0.00992126 -0.00907087 343.458c-0.00141732,70.5898 -44.9362,140.721 -87.9755,163.648l-161.736 86.1585 -159.728 -86.5103c-49.6729,-26.9036 -89.9777,-90.6764 -89.9796,-163.105l-0.0102047 -343.64z"/>
  <path fill="#BF9F4F" d="M450.892 31.4269c-35.0524,24.7337 -30.1343,89.1077 -213.658,78.6005 58.9998,7.95374 171.16,-0.263906 233.098,-31.879 -15.3159,29.0792 -62.3081,63.599 -237.797,39.246 137.866,27.2412 163.203,3.28394 234.604,28.1526 -52.9526,18.4796 -185.522,-3.21449 -238.433,-23.6523 34.4523,16.2476 81.1233,18.5797 125.515,31.4226 48.2457,13.9578 81.955,39.7658 75.4044,59.8575 -27.8745,-41.0003 -118.616,-48.6802 -185.582,-76.991 -51.9996,-21.9835 -105.089,-27.8578 -124.246,-26.0813 -45.7047,9.252 -14.9117,27.5292 -39.3168,50.9953 -3.08948,4.71288 -24.7445,11.1634 -31.9788,-2.34822 -1.46665,2.9401 -4.85008,15.2201 -7.1966,16.4838 -3.73408,1.12224 2.03783,-4.26841 0.33789,-9.02665 -1.39635,-3.90926 -0.420945,-7.7624 -1.26539,-8.57537 -4.21682,2.83975 -3.82139,16.4699 -15.9979,17.7061 -0.56126,-0.138047 13.201,-19.9539 10.8649,-19.4896 -5.39065,-0.424914 -7.60933,11.6717 -20.7213,14.8167 -1.23194,-0.819213 1.41874,-3.20343 6.0823,-7.7726 4.24545,-4.16013 8.29843,-12.1742 7.53534,-12.4379 -4.39257,-0.103181 -10.1324,8.85034 -19.1778,6.09874 -0.233008,-1.74728 7.57985,-3.70205 11.8996,-8.41493 3.35622,-3.66208 7.92,-4.85773 7.14785,-6.15629 -6.17528,-3.92967 -14.5845,5.90882 -16.0648,5.79799 -0.187087,-1.86378 5.17833,-16.1314 19.7654,-9.94678 -5.14914,-9.13408 -13.0572,-23.8493 1.25263,-35.0997 19.4879,-15.3213 47.3457,-1.14491 89.2956,-7.46193 11.912,-1.79348 63.4213,-2.85251 95.2081,1.28353 104.86,13.6446 175.685,-26.0549 201.17,-50.0559 12.5538,-11.823 25.7888,-15.4868 32.2557,-15.0718z"/>
  <path fill="#CCCCCC" d="M171.218 14.8371c7.092,-4.29137 19.5628,-2.2595 28.7212,1.47345 13.8266,5.63613 24.5809,17.1096 37.5069,12.6346 0.333638,1.98709 -0.477638,3.97276 -1.08028,5.95843 1.92841,1.1177 4.35827,0.313229 6.46129,0.556725 -1.40457,3.45714 -2.30882,5.04227 -3.71452,6.1594 1.88702,1.4349 4.47279,1.47147 6.70933,2.38167 -1.10183,3.34545 -6.22375,3.89481 -5.92781,6.01711 16.9603,35.9323 -4.11166,62.1786 -25.6,83.0226 -13.7959,13.3818 -29.6334,24.0469 -41.0227,35.7395 -10.7022,10.9862 -7.36952,18.2716 -2.03046,22.2347 9.12218,6.77084 24.6784,1.6594 37.7442,-3.27714 10.654,-4.0252 19.4261,-4.20605 25.1119,-7.02652l-0.280063 3.44495c1.98454,-0.290551 3.96851,-0.814394 5.95248,-1.57181l0.113102 2.91033 4.19981 -0.0572599c-1.1075,1.6251 -1.84649,3.25021 -1.61121,4.87531 3.9138,-0.102047 14.6092,1.9817 19.4318,6.52933 44.8725,-1.26935 64.0605,43.3264 90.9857,45.3867 17.3656,1.32888 17.9028,-10.4508 24.2328,-14.5403 1.77194,3.65613 2.58236,7.31055 2.43241,10.9653 7.23544,-4.38492 7.30545,-7.37207 10.696,-11.0585 1.57011,3.94271 2.08375,7.88429 1.32406,11.8259 5.67411,-1.46183 5.23106,-5.60325 8.63377,-9.80306l3.1371 11.7318c2.44233,-1.68775 4.8841,-4.07452 7.327,-7.16117l0.396567 12.5048c9.97286,1.02047 40.165,10.0227 43.7508,61.882 0.270992,31.8773 -26.032,78.7584 -15.1892,108.286 -40.1312,-16.7309 12.6295,-108.137 -17.9541,-134.463 24.2442,58.1874 -27.665,108.792 -15.747,152.857 -18.2546,-17.6482 -15.0185,-41.9871 -5.88473,-65.6867 9.55389,-24.7893 14.0618,-45.3779 5.03632,-64.6084 -0.506268,25.7423 -2.04973,47.8426 -26.3359,63.9443 12.9223,-31.0825 10.1231,-35.2372 10.1945,-60.5934 -4.97254,19.042 -2.99197,28.1001 -27.1423,47.575 1.20217,-6.98259 11.7122,-14.8575 9.78152,-52.3021 -4.24942,16.0078 -4.69276,28.0162 -20.905,36.6353 8.10851,-15.139 5.39575,-30.2633 1.40287,-42.683 -2.08658,11.1206 -5.36627,17.2375 -9.31607,21.3673 -1.93125,-4.1709 -0.891213,-8.86593 -3.1714,-11.988 -1.92246,9.76451 -4.0354,16.3106 -6.42359,18.1531 -2.02195,-5.2098 -1.42214,-10.4193 -3.4441,-15.6285 -2.2388,12.2667 -5.03065,17.8917 -8.20063,18.9743 -1.13499,-6.30992 0.701575,-15.2413 -3.40384,-18.9298 -2.34992,10.0454 -6.40375,18.0088 -12.947,22.9286l0.278079 -11.0931 -8.13856 0.578835 4.52693 7.15607 -4.25509 0.356882 3.76044 6.82413 -3.99005 0.333638 3.21931 6.64413 -3.4492 0.525827 3.16318 6.2898 -3.9651 0.172063c3.91606,17.7891 14.2115,10.5928 11.8556,31.0057 -1.06356,9.21289 0.81893,35.2885 3.70006,65.9586 2.54211,27.0629 5.148,53.0643 8.25563,58.1312 5.09103,8.30098 24.3097,-0.311811 25.0461,6.80372 10.0746,2.70114 12.7568,9.76564 14.3884,14.5208 -4.31632,-0.979087 -7.12318,-4.67632 -14.2645,-4.75881 -2.19912,1.50775 0.496347,4.08359 -14.4712,4.12101 -10.6954,0.0269291 -8.79449,4.77014 -16.5609,5.04992 -5.90485,0.212599 -5.89238,6.87345 -14.993,6.62712 -4.45862,-0.120189 -6.97777,5.39377 -11.0684,5.36599 -3.97559,-0.0269291 -7.70854,6.33969 -11.4253,6.26457 -6.02504,-0.12274 -7.54611,11.9361 -18.4272,7.22835 -7.59147,2.15348 -9.86826,5.67468 -13.4785,9.04252 -0.80504,-7.68586 0.533764,-13.4856 8.97648,-18.0828 -2.07553,-7.68218 13.0601,-8.38489 19.2515,-11.8539 -6.15005,-3.14958 -6.60955,2.86668 -13.8515,0.829701 -4.77666,-1.34362 -10.573,7.33323 -14.4644,0.218268 -6.40375,-0.671528 -10.207,3.09827 -14.9491,6.56022 0.0209764,-6.25011 2.72948,-14.8856 13.621,-17.5995 5.71862,-7.63966 12.7154,-1.51427 29.2768,-3.47017 -2.55572,-3.35906 -6.95027,-0.660473 -11.5135,-3.52829 -5.70614,-3.58611 -11.1614,4.4589 -15.4083,-4.75087 -5.59814,-1.19537 -11.4486,1.81729 -16.8749,2.74819 2.86611,-6.43805 8.1207,-11.499 19.0485,-12.5609 6.984,-11.4418 34.412,14.4366 49.779,6.58659 5.22057,-2.66684 -0.524693,-21.4056 -6.87033,-76.8992 -4.21314,-36.8467 -5.0641,-39.8058 -9.90879,-45.4125 -2.69943,-3.12378 -3.2091,-8.52974 -3.54444,-15.9231 -0.376441,-8.28964 -4.64627,-14.3552 -14.658,-24.5101l-3.71225 2.89786c-1.01792,-3.66888 -5.76766,-11.0378 -10.874,-13.8481 -3.29783,-1.81502 -3.57251,-5.20526 -7.31764,-6.79975l1.69257 7.55915 -3.70488 0.762237 3.39534 6.984 -4.53373 0.204095 4.21597 7.67282 -4.11846 0.708945 3.57137 7.00016 -4.52807 0.232158c7.48177,9.54851 0.0802205,21.3619 -8.93481,21.8109 -12.1723,0.605764 -43.7366,10.7617 -64.2045,16.6022 -22.1964,6.33374 -41.3323,10.8462 -42.1968,13.1236 -2.96362,6.28498 16.7865,2.1515 15.3176,12.083 7.40353,7.54952 6.45846,16.477 1.86917,21.0342 -1.60498,-3.02485 -2.45736,-9.00341 -6.07947,-11.221 -12.6235,3.69865 -15.6033,-13.9255 -22.1862,-11.0838 -0.322866,7.52967 5.03377,7.33408 2.1977,16.1286 -1.2325,3.82195 4.2497,9.13125 2.03414,12.4118 -2.9863,4.42148 2.94491,8.30722 1.14775,11.8182 -2.46586,4.81578 4.74321,8.32196 -1.86832,14.3836 0.737859,7.02142 3.95575,7.76977 4.74095,11.092 -10.4763,-0.138614 -12.5875,-6.68155 -15.0395,-12.1768 -6.91002,-6.54974 -0.932599,-11.3173 -2.89871,-32.5443 -6.71415,3.38995 0.291402,11.624 -4.15758,16.4322 -4.96063,5.36003 6.13134,12.3613 -3.40101,17.2786 -1.40939,8.39963 1.97433,9.94848 1.49613,13.7438 -10.8575,-6.283 -9.95046,-10.906 -10.8094,-17.293 -5.89266,-6.15969 4.16977,-20.8712 3.84406,-39.2956 -1.78554,1.34646 -3.52829,3.09288 -3.46366,5.93207 0.210614,9.21742 -7.29638,5.62309 -5.49014,15.101 0.860599,4.51616 -3.06454,6.02136 -5.37648,7.56057 -3.50391,4.93399 -2.0829,10.1336 -1.32945,15.0426 -9.07484,-5.31411 -7.26718,-13.3486 -6.94233,-20.0339 -5.09925,-7.02029 5.89805,-18.9204 13.4873,-31.4881 7.59062,-12.57 6.89018,-21.4384 17.4334,-24.6526 26.4461,-8.06287 93.4867,-32.9264 108.571,-37.9743 0.248315,-3.03704 1.22457,-6.24926 3.80268,-9.28489 -1.3286,-2.78504 -2.54098,-6.21128 -2.06419,-9.57799l-5.51679 5.44394c-3.97644,-9.37985 -15.1543,-15.6906 -17.8577,-38.7389 -18.7002,-11.649 -40.4343,-26.646 -53.2327,-45.7747 -3.55408,1.56473 -7.10788,1.73169 -10.6628,0.499465 4.01471,-21.5144 -18.6545,-29.9826 -17.9592,-63.7875 1.99134,-17.8912 14.3073,-35.7151 32.1435,-48.3472 19.2696,-13.6477 42.1169,-30.8271 50.7008,-36.7404 19.292,-13.2905 34.6813,-34.7599 26.7562,-46.9659 -13.4836,-20.7672 -34.6751,11.0954 -52.278,7.22211 -27.8504,19.5228 -60.5214,45.237 -63.7118,45.3345l5.04255 -10.9361 41.6702 -42.5832 13.9774 -9.76281 -0.0992126 -0.895748 -57.2794 36.6004 -15.9653 0.325701c17.4515,-16.4855 36.862,-32.9712 52.3545,-49.4572 4.89288,-28.8371 21.0662,-23.3408 36.7637,-32.84z"/>
  <path fill="white" d="M421.676 282.398c29.3885,25.2978 -18.1817,110.69 13.6658,132.169 -24.2249,-30.3228 19.0579,-104.696 -13.9371,-136.851l-1.4366 0.239528 1.70787 4.44246zm-15.1248 20.9455l-1.47061 1.61688c9.02552,19.2305 4.51758,39.8197 -5.03632,64.6084 -8.7052,22.5885 -12.0529,45.7577 3.4577,63.1613 -26.7605,-43.1289 23.8235,-83.863 3.04923,-129.387m-26.6406 62.7242c11.5835,-28.5262 8.95947,-33.1929 9.02863,-57.7565l-1.77676 -10.0018 0.239528 -7.18385c5.82747,11.6796 8.37298,58.4294 -7.49141,74.9421m-8.33216 -62.4836c1.93068,37.4446 -8.57934,45.3195 -9.78152,52.3021 1.13187,-0.912756 2.20677,-1.80312 3.22725,-2.67222 8.40445,-12.1762 11.0551,-34.4223 7.95204,-66.7369l-2.69717 -6.74278c1.24214,8.75906 0.866268,15.8998 1.2994,23.8499zm-27.3697 13.6718c-0.471685,0.584221 -0.954709,1.13187 -1.4485,1.64778 -1.93125,-4.1709 -0.891213,-8.86593 -3.1714,-11.988l1.29061 -1.82778 3.32929 12.168zm-14.4876 -7.81569c2.02195,5.20923 1.42214,10.4187 3.4441,15.6285 0.596977,-0.460347 1.17666,-1.2155 1.74076,-2.24107l-3.46677 -12.8849 -1.71808 -0.502583zm-5.89692 17.2775c-0.742678,0.871371 -1.51115,1.42611 -2.30372,1.69682 -1.13499,-6.30992 0.701575,-15.2413 -3.40384,-18.9298l0.645733 -1.4298c3.08041,3.47755 4.58788,10.1472 5.06183,18.6627zm-16.3162 3.7097c-0.741827,0.708095 -1.5205,1.37112 -2.3383,1.98595l0.278079 -11.0931 -0.441071 -12.7259 -8.09178 0 1.34873 -2.15802 5.66419 0c-0.0890079,-2.69887 -0.269858,-4.58901 -1.07887,-5.12448l0.809008 -4.31547c2.41314,8.90051 3.7715,9.88243 3.85002,33.431zm14.5769 176.909c5.42098,3.69836 16.308,0.524126 20.9435,2.20507l0.295654 2.84684c-4.30838,0.163276 -15.6991,0.634961 -21.2392,-5.05191zm37.4806 19.285c-1.63162,-4.75512 -4.31377,-12.4356 -14.3884,-14.5208l-0.00566929 2.13506c5.36088,0.456095 10.1577,3.60737 14.3941,12.3857zm-59.9672 -8.69046c-4.58561,5.85978 -18.83,8.43251 -49.8841,6.4664 -4.51474,0.132378 -5.02611,7.34712 -3.3823,14.254 -0.540284,-0.446457 -1.05704,-1.08879 -1.54318,-1.97802 -2.46388,-2.86016 -1.2325,-5.7206 -1.84904,-8.58076 -5.48759,1.34589 -9.74353,5.15481 -12.7684,11.4284 0.992977,-5.56753 4.44047,-11.6821 13.2894,-13.8869 4.5754,-7.93503 18.3215,-0.918142 29.2768,-3.47017 12.7006,-0.0252284 22.5785,-1.84677 26.2451,-7.6201 -32.8777,3.75988 -48.8191,-25.1206 -51.5194,2.0418 -0.566646,-0.66841 -1.11657,-1.5497 -1.6475,-2.70085l1.74274 -6.73115c-5.98706,-0.457229 -11.5645,2.78136 -16.7315,6.02022 3.15043,-4.73613 8.28369,-8.23947 17.1624,-9.10177 6.984,-11.4418 34.412,14.4366 49.779,6.58659 5.22057,-2.66684 -0.524693,-21.4056 -6.87033,-76.8992 -4.21314,-36.8467 -5.0641,-39.8058 -9.90879,-45.4125 -2.69943,-3.12378 -3.2091,-8.52974 -3.54444,-15.9231 -0.376441,-8.28964 -4.64627,-14.3552 -14.658,-24.5101l4.40759 -1.95279c6.30766,6.92051 17.2882,18.9627 16.1331,27.8595 -0.691654,5.32829 1.67187,9.71122 2.77087,11.5441 7.97018,13.2925 10.6251,82.719 17.9725,126.78 2.72778,16.3585 -35.2114,28.1838 -46.3507,32.576 -2.04973,0.594709 -1.63644,10.1194 5.8595,12.8696 -1.47317,0.105165 -3.18444,-0.188221 -5.22454,-1.07065 -2.88114,-1.9834 -4.32425,-8.07194 -4.02208,-7.79585 -3.83273,2.7995 -7.04892,5.80366 -9.65027,12.7094 0.140882,-5.68942 2.3108,-10.2186 9.17037,-13.9538 -2.07553,-7.68218 13.0601,-8.38489 19.2515,-11.8539 15.0803,-7.06763 25.89,-12.3367 26.4937,-17.6944m-58.7155 -187.767c3.74514,1.59449 4.01981,4.98473 7.31764,6.79975 5.10633,2.81027 9.85607,10.1792 10.874,13.8481l1.37367 -1.07263 -4.2687 -8.56715 0.239528 -1.4366c1.27701,1.53241 2.55402,4.76759 3.83131,7.66262 -1.836,-13.1703 -4.15077,-9.57827 -6.22602,-14.3674l1.67613 -1.19735c1.836,3.59178 4.15077,5.26791 5.50772,10.7756 1.03748,-8.62045 -10.1373,-14.3674 -19.1565,-36.637 1.83572,8.54051 6.54492,15.1656 9.81752,22.7483l-0.478772 0.479055c-5.58737,-8.78032 -8.30126,-15.6447 -12.4518,-23.4669l0 1.67613c1.83572,6.5452 5.10832,12.1326 7.66262,18.1987l-1.43688 -0.239244c-2.95314,-7.50303 -7.34315,-12.6116 -8.85997,-22.5091l-1.4366 0c1.11742,5.58737 2.23484,9.49834 4.78914,15.3252l-1.19735 -0.239528c-2.23455,-5.26848 -4.07027,-9.41925 -4.54961,-13.6491l-1.67613 0.239528c-1.66649,10.698 6.24501,19.0015 8.64908,25.6289zm-106.219 89.5491c-3.29698,-2.28331 -9.31607,-2.45509 -12.0334,-3.87156l0.410457 1.47798c3.03307,1.43688 6.30567,2.15518 9.0995,4.31036 0.601796,0.79767 3.5983,1.11657 2.5234,-1.91679zm7.15096 20.8508c1.27332,-4.62444 0.12926,-10.4664 -4.96063,-15.6566l-0.882426 3.6669c2.9058,1.44198 4.85377,5.43855 5.84306,11.9897zm-26.6582 48.5691c-7.45597,-1.42016 -9.34101,-7.03049 -11.4863,-11.8389l3.32703 0.368788c0.165543,4.14227 2.88595,7.96564 8.15925,11.4701zm-18.6953 -79.7154c-1.4366,12.2562 3.35254,20.202 4.31036,35.3322 1.35128,14.5933 -1.0508,21.4078 -0.43937,26.369l2.8338 -0.160724c3.53452,-34.261 -6.444,-56.0401 -3.86277,-60.0432 2.05937,-3.19436 -0.579685,-5.65711 3.14419,-7.00498l105.84 -36.1579c2.39443,-3.9909 0.239244,-6.30567 4.31008,-10.5361l-4.54961 -9.0995 -1.74132 0.648851c0.20211,2.5149 1.13301,4.96432 2.12939,7.05289 -2.57811,3.03562 -3.55436,6.24785 -3.80268,9.28489 -15.0846,5.04794 -82.1251,29.9115 -108.571,37.9743 -10.5432,3.21421 -9.84275,12.083 -17.4334,24.6526 -6.16592,10.211 -14.5823,19.9823 -14.7864,27.0519l1.96781 1.09021 0.479055 -1.19707 0.7183 -0.239528c7.66262,-14.2878 15.086,-26.6596 22.9879,-42.863 -0.750331,8.01411 -0.543118,15.3102 -2.25184,24.0432 0.274677,15.5452 -6.84511,28.4477 -5.53805,35.8002l1.56416 0.0209764 1.19735 -1.4366c4.07055,-19.3961 5.98621,-33.0452 7.90186,-55.3147l1.91565 -5.02866 1.67641 -0.239244m-10.2969 66.3296l-2.2646 -0.835937c0.69789,5.18939 0.230173,9.2143 5.85383,13.911 -5.98536,-9.38722 -0.955843,-9.67465 -3.58923,-13.0751zm-19.0389 -0.927497c-3.30435,-4.81493 -2.22718,-10.5877 -1.98369,-15.6016l2.58435 2.40123c-0.51874,3.80098 -1.11798,7.72186 -0.600662,13.2004zm78.4245 -192.075l2.39443 0c3.91153,5.10832 8.7806,10.2169 14.6069,15.3252l1.67613 -0.7183c2.9897,2.75754 6.45789,5.99414 9.68656,8.27348l0.141449 1.6115c-16.3315,-10.728 -33.4922,-23.9264 -44.2905,-40.066l2.37543 0.00935434c4.19018,5.46775 8.58104,10.7365 13.4096,15.5648m-26.2089 -16.5662c2.7258,-20.4336 -18.8768,-29.2836 -18.1982,-62.2959 1.99134,-17.8912 14.3073,-35.7151 32.1435,-48.3472 19.2696,-13.6477 42.1169,-30.8274 50.7008,-36.7404 16.2768,-11.2136 29.7774,-28.2507 28.838,-40.6321 1.97462,10.0735 -4.07452,21.2686 -11.9908,31.9023l1.49273 -5.79288c-5.58142,8.70463 -11.4576,15.3391 -17.5374,20.5557 1.86633,-3.11443 4.85093,-6.60274 7.27626,-9.90426l-23.6934 22.7982 8.02177 -11.0251c-7.64901,7.03871 -13.9915,14.0777 -22.947,21.1164l9.88782 -11.5863c-9.57629,7.84885 -16.1685,14.9502 -24.253,22.4246 1.67896,-3.11443 4.47761,-6.60246 6.71613,-9.90397 -9.57629,8.72079 -14.6761,15.9466 -22.0144,23.9193 1.92784,-4.92066 5.16189,-7.97273 7.46249,-11.9597 -9.12586,8.11361 -15.6237,18.8589 -18.2832,33.45 -0.310394,-11.9597 1.61688,-11.2122 2.98517,-16.8185 -3.46876,2.66995 -6.17414,9.2693 -6.15657,29.8999 -1.92784,-4.67207 -0.870804,-10.4652 -1.67924,-13.8288 -4.04249,12.1467 2.55005,23.3595 3.91777,31.7685l-5.41021 -11.3995c0.249732,9.38467 9.26023,18.9539 11.7686,24.8193 6.1166,5.27074 4.96432,12.8512 7.82079,19.2824 -0.18652,-14.2016 -5.97005,-17.5657 -8.95522,-26.3489 3.08977,3.12378 5.31836,8.32621 7.56681,11.624 2.18806,3.20939 2.25893,7.13707 4.37301,11.1745l0 -7.66205 2.05228 4.48498 -0.37304 3.73748 1.49244 -0.186803c-0.0836221,-3.99288 -0.444473,-7.67509 -2.2388,-10.4647 3.48265,3.36388 3.79361,7.28816 4.29109,10.0911l1.30592 0 0 -8.78287 1.49273 1.86832 -0.18652 6.91455 0.745796 -0.187087 0.187087 -6.72747 1.49216 0 0.18652 4.67178c1.74132,-2.24192 1.99021,-5.23191 2.98517,-7.84829 1.1228,4.43821 -0.949607,14.4 -5.78325,12.3335 -2.60561,4.55755 -5.95729,7.24592 -7.81711,4.70155 -1.65005,1.06356 -6.08372,5.58794 -9.68542,4.90451zm126.481 -222.177c-2.23654,-0.910205 -4.8223,-0.946772 -6.70933,-2.38167l-1.3388 1.17184 0.559559 2.24249c2.49676,0.153921 4.99295,-0.189921 7.48857,-1.03266zm-2.9948 -8.54108c-2.10302,-0.243496 -4.53288,0.560977 -6.46129,-0.556725l-1.76372 2.09537 0 1.1211c3.30265,-0.0450709 5.91959,-1.11827 8.22501,-2.65975zm-5.38101 -6.51515c-12.926,4.47506 -23.6804,-6.99846 -37.5069,-12.6346 -9.15846,-3.73295 -21.6292,-5.76482 -28.7212,-1.47345 -15.6974,9.49919 -31.8708,4.00281 -36.7637,32.84 -15.4925,16.486 -34.903,32.9718 -52.3545,49.4572l5.11909 -0.104315c33.0616,-33.9815 43.3616,-31.4544 50.184,-48.8191 5.11229,9.03799 15.8808,3.10394 22.4031,8.10426 6.4423,4.93824 3.05377,11.5271 4.64854,15.6285 4.25991,-16.4441 -4.98501,-20.3919 -11.2635,-20.9761 -7.87975,-0.73304 -15.2907,-0.514488 -13.5493,-11.5396 1.55452,2.67846 -0.434551,6.47859 7.46249,8.59607 -8.70577,-7.16372 -4.16636,-13.0184 -3.1714,-14.7626 0.000283465,6.82158 -0.372756,10.6838 3.91777,11.9594 -3.58158,-9.19304 -1.3252,-12.5391 1.1194,-15.6971 -1.11969,4.8909 -0.870804,7.38284 0,8.78315 1.24469,-8.73383 6.03298,-13.0193 8.20885,-13.6417 -1.24384,2.92791 -4.35288,5.29484 -3.73153,8.78315 3.10961,-4.98331 9.0173,-10.1534 9.88782,-10.465 -0.994961,3.4886 -5.90769,6.97663 -5.78325,10.465 4.10457,-4.4847 10.0746,-12.3335 11.7536,-13.4547 1.05761,0.809859 -2.17673,3.30123 -2.42532,6.35329 3.60709,-3.36331 6.65405,-8.78259 14.1786,-10.0908 -1.4298,1.93125 -5.09896,2.92791 -6.52961,5.7926 5.03773,-1.61943 9.51478,-6.04205 17.9096,-3.73692 -2.736,0.56041 -5.47229,0.747496 -8.20829,1.6818 2.73657,0.623055 12.9351,-0.435685 19.4023,2.9897 -2.736,-0.249165 -7.52457,-0.498331 -9.32826,0.373606 7.08974,1.6818 14.739,1.49499 21.2684,5.04567 -1.67868,0.560693 -7.46221,-0.747496 -9.51449,0 3.35821,2.36721 16.6042,2.86554 21.8276,3.17679 -4.91273,3.05263 -8.70634,0.498614 -13.0595,0.747496 8.24032,4.10514 17.9881,3.04073 22.6196,-3.38173zm-90.6733 38.867l-5.30646 3.05462 -39.4841 40.3498 0.160441 1.65203c14.1783,-13.1496 28.9619,-27.9187 44.6301,-45.0564zm55.1608 282.808l-1.0783 1.06413c-3.97644,-9.37985 -15.1543,-15.6906 -17.8577,-38.7389l3.7389 2.84457c-0.479055,3.91068 1.27701,9.41811 5.26791,16.5223l1.43688 0.718583c-3.11414,-5.90712 -4.70977,-11.175 -5.26819,-15.8043l1.43688 0.7183c1.18857,5.42693 3.26948,10.8547 5.74696,16.2831l1.91565 1.43688c-1.51569,-3.11301 -3.03279,-7.10391 -4.54961,-11.4939l1.67613 0.239528c1.91565,6.22574 5.74696,12.9305 8.62045,19.3961l0 2.1549 -2.39443 -4.78914 -1.19735 0 2.87348 5.98649 -0.479055 1.19735 -3.11273 -5.98649 -1.19735 0 4.42148 8.25052zm182.64 -54.4329c-6.11377,-13.4861 -13.576,-15.6439 -17.5317,-24.2748l-3.2366 -1.07887 -2.15802 -3.77632 -0.809008 -0.269575 0.809008 2.96703 -1.34844 -0.809292 -2.42759 -4.8549 -1.07887 -0.809292 -0.539433 2.96703 -2.42731 -6.4732 0 -4.58533 -4.31575 -7.28249 -2.69717 0.269858 5.66419 11.8675 1.34873 0.809292 0 4.04561 -1.6183 0.269858 0 1.34844 1.6183 0.269858c3.14646,17.0824 10.8782,21.7576 15.1041,26.972l0 4.04589c-6.02391,-9.44023 -13.3963,-8.36136 -18.8805,-33.9849 -3.29868,29.7822 20.105,52.8202 0.623622,76.3988 8.10851,-15.139 5.39575,-30.2633 1.40287,-42.683 -10.8935,-21.7724 0.482457,-36.3612 -11.1291,-53.8234l-1.67613 0c3.19295,6.6257 5.18854,12.4526 4.54961,16.5226 -1.59647,-8.06174 -4.62955,-11.3343 -6.94432,-17.7199l-0.7183 1.43688c2.51405,5.38838 4.50907,11.2949 5.74696,17.9592l-1.43688 -0.478772c-1.17638,-6.22602 -3.85058,-12.4515 -6.94403,-18.6778l-0.957827 0.479055c1.87455,4.37103 3.5504,9.91871 4.78914,17.4804l-0.957827 0.239244c-1.83628,-7.10334 -3.99147,-13.2494 -6.46555,-18.4382l-0.7183 0.239528c1.03776,5.1086 2.31477,8.78004 3.11301,15.3252l-6.22602 -18.1987 -1.4366 0.239528c2.39414,6.54548 4.3098,15.1659 3.59178,17.9592l-6.94432 -21.0722 -1.4366 -1.19735c2.07525,6.46583 3.51184,12.2927 4.31008,17.4804l-0.957827 -0.239528c-2.23484,-8.62045 -3.9909,-12.4518 -5.98649,-18.6775l-0.957827 0.239528c2.23512,6.30596 3.51213,11.9733 3.83131,17.0014l-6.94403 -19.3961 -1.67641 -0.478772c1.75606,5.26791 3.03336,10.057 4.54989,15.0857l0.478772 3.59178c-2.23484,-3.43219 -4.94873,-12.6113 -7.42309,-18.917l-3.35254 -3.83131 -0.239244 2.39443 4.07055 8.3812 0.718583 5.74696c-3.83131,-7.58296 -7.42337,-15.4052 -11.4939,-22.7486l-1.67641 0.479055c2.43553,3.79191 4.98898,8.58133 7.42337,15.5648l0 3.83131c-2.9931,-5.42778 -4.88948,-9.94508 -6.94432,-14.0978 -1.47203,-2.9744 -4.66951,-5.25855 -8.14167,-12.003l-0.478772 2.1549c4.15021,6.12652 8.69953,13.1108 11.0149,23.2274l-2.39443 -0.7183c-3.19323,-11.1747 -8.46114,-18.8374 -15.0857,-27.2982l-0.718583 1.19735c7.06394,9.45893 10.4162,19.3572 11.4939,22.7486l-0.957827 3.11273c-3.19606,-5.49695 -3.76044,-12.0628 -6.98854,-16.9515 -3.22413,-4.88325 -7.89959,-7.92936 -10.2524,-14.8964l-1.19735 1.91565c4.37018,6.72463 8.4807,13.0708 12.2125,24.6643l-0.957827 2.15518c-4.7897,-10.8556 -9.73843,-22.3495 -14.1282,-27.2982l-0.239244 2.39443c3.19266,3.43276 5.74696,9.73843 7.66262,18.9173l-1.43688 0.239528c-5.98649,-17.4008 -8.38092,-16.8421 -11.4939,-23.4669l-0.239528 2.39443 5.50772 10.7756 0 4.78914 -0.479055 -1.19735c-2.39443,-4.54961 -4.78914,-10.2966 -10.7756,-17.2409l-1.19707 0c2.63367,3.83131 4.62898,7.34344 5.98621,10.5361l-0.7183 3.83131c-3.2726,-8.46057 -5.82662,-10.6957 -8.85997,-16.0435l-0.957827 1.19735c1.99559,3.59178 3.75166,6.22574 5.98649,10.7756l-0.7183 3.83131c-2.47436,-5.58709 -5.26876,-11.175 -8.38092,-16.7621l-0.479055 1.43688 4.54961 9.33874 0 3.59178c-4.46967,-11.9727 -10.6158,-17.7996 -19.1565,-19.6353l-0.7183 -1.67641 -4.78914 -1.91565 -8.14167 -0.478772 -1.4366 0.957827 8.85997 1.19735 2.87348 0.7183 1.67613 1.19735 -1.43688 0.239244 0.239528 2.15518c6.46583,0.479055 11.6541,2.87348 15.5648,7.18385 -12.4518,-6.30596 -24.9035,-7.82249 -31.6083,-7.42337 -0.319181,-0.558709 -0.638646,-1.11742 -0.957827,-1.67613 4.54989,0 9.41897,0.319181 14.6069,0.957827 -7.42337,-2.95342 -12.6913,-3.2726 -19.3961,-2.39443l1.67613 0.957827 -22.5091 1.91565c4.46996,-2.39471 14.4473,-2.39471 21.3117,-4.31036l-10.5361 -0.239528c-4.7092,1.39748 -9.41811,2.11578 -14.1279,2.87348l0.7183 0.957827c-7.82249,0.320599 -13.8884,-0.797386 -19.1565,-5.50744l1.43688 0c7.02936,3.8469 13.3251,5.49326 18.438,3.59178 -10.0973,-0.318898 -16.2434,-3.27175 -20.5931,-7.42309l1.77647 -1.42044c0.581103,0.599811 1.2172,1.14718 1.88447,1.64239 9.12218,6.77084 24.6784,1.6594 37.7442,-3.27714 10.654,-4.0252 19.4261,-4.20605 25.1119,-7.02652l-0.280063 3.44495c1.98454,-0.290551 3.96851,-0.814394 5.95248,-1.57181l0.113102 2.91033 4.19981 -0.0572599c-1.1075,1.6251 -1.84649,3.25021 -1.61121,4.87531 3.9138,-0.102047 14.6092,1.9817 19.4318,6.52933 44.8725,-1.26935 64.0605,43.3264 90.9857,45.3867 15.1946,1.16221 17.5054,-7.71081 22.0864,-12.6867 2.09112,2.88057 -1.03918,12.7854 -0.248315,12.2743 3.68759,-0.654237 4.01925,-2.26743 4.82712,-3.16262 5.42636,-3.28876 6.82243,-5.79147 8.61166,-8.39197 1.31499,3.68221 -1.39691,11.1858 -0.549638,12.4194 3.4852,-1.18148 3.04101,-2.92309 3.95802,-3.26013 5.67411,-1.46183 5.23106,-5.60325 8.63377,-9.80306 -0.212599,5.04284 -2.58038,12.4804 -0.637796,15.1288l3.7749 -3.39704c1.83175,-1.26567 3.66293,-2.92479 5.49496,-4.97736 0.50315,5.18996 -2.17106,8.46794 -4.47619,11.518 1.4315,0.146551 9.98504,-0.739559 12.111,-0.161008 7.5943,2.06617 18.7373,7.54753 27.1168,21.1422 -7.63541,-8.38545 -14.6319,-14.2177 -20.9894,-17.496l5.74696 9.0995c-4.15049,-3.91125 -6.14608,-8.06174 -12.4518,-11.7335l-0.239528 2.39443 -1.67613 -1.4366 -1.4366 0.239528 0.239244 1.67613c4.90961,3.36898 9.29963,8.51556 13.1703,18.6778l0.957827 1.4366 1.19707 0c0.0796536,-2.79326 -1.1177,-6.22545 -3.59178,-10.2966 3.9909,4.46996 5.10832,8.46085 5.50744,12.6913l1.91565 2.39443 0.957827 0.239528c0.159307,-2.43383 -1.1177,-6.34507 -2.87348,-11.973 3.75052,6.22602 4.62784,11.8137 4.54989,16.7621 -10.616,-12.4518 -17.8795,-14.3674 -26.8192,-21.5513l-0.239528 -1.67613 -1.67613 -0.7183 -0.479055 -1.91565 -1.43688 -0.957827 -0.239244 1.91565 3.59178 8.14139 -2.15518 -2.87348 -0.7183 -0.478772 -1.67613 -3.59178 -1.19735 -0.239528 -0.7183 -2.15518 -2.15518 -1.91565 -1.67613 -0.239528c3.33269,4.88863 7.12375,10.5165 8.85997,15.8043 -6.2263,-11.6547 -11.5741,-16.2839 -16.5226,-17.7199l-12.9308 -3.11301 -0.239528 1.67641 8.62045 2.87348 5.98649 0.478772c5.02866,5.02866 15.8043,17.2409 22.9879,30.89l-1.67613 0.479055c-4.62955,-8.14167 -11.414,-14.8465 -16.7621,-22.9879l-0.239244 1.91565 1.91565 3.83131 -0.479055 0.957827 -5.02866 -8.3812 -1.67613 -1.19707 -0.239528 1.19707 4.31036 7.42337 0 2.1549 -7.66262 -12.2122 -1.43688 -0.239528 0.239528 1.91565 6.94432 10.7756 -2.15518 -0.957827 -7.66262 -10.5361 -1.4366 0c0.797953,5.66731 12.3718,17.7996 17.4801,26.3404l0.957827 5.02866c-5.18797,-10.0573 -11.3341,-15.8043 -16.2831,-21.5513l-1.91565 0 0.479055 3.35225 -3.83131 -10.057 -1.19735 -1.67613 -1.4366 -0.239528 0 1.91565 2.1549 5.02866 -0.239244 1.19707 -3.35027 -8.69301 -1.6183 0.539433c0.71915,8.00193 4.13547,9.53037 6.20363,14.2951l0.539433 3.2366c-6.24019,-6.90407 -9.36227,-11.5316 -10.5191,-16.183l-1.88816 1.07887c1.52844,2.51745 3.0566,6.6532 4.58533,7.55207l-0.269858 2.15773 -5.93377 -7.01263 -2.69717 -3.77603 -2.15773 0c5.57405,8.54136 14.9241,17.352 22.3866,25.6232l0.809292 4.58533 1.6183 1.34873 0 3.77603"/>
  <path fill="#4C4C4C" d="M129.941 53.4436c0.435402,2.30428 0.684567,4.23525 1.67924,6.35329l-8.20885 5.97997c2.11521,-3.05291 4.41581,-7.28901 6.52961,-12.3333z"/>
  <path fill="#CCCCCC" d="M114.643 237.698c-1.36828,-2.42929 -1.61717,-4.85859 -4.10429,-7.28816 -0.310961,2.42958 2.36325,5.79317 4.10429,7.28816z"/>
  <path fill="#CCCCCC" d="M121.359 248.724c-0.435402,-3.73748 -1.61717,-5.79317 -4.10429,-8.22246 0.248882,2.42929 2.36325,5.23304 4.10429,8.22246z"/>
  <path fill="#CCCCCC" d="M246.841 327.045l1.91565 0.239528c0.87789,3.83131 4.15049,6.70479 6.22574,10.057l-1.67613 -0.7183c-2.15518,-3.19266 -5.26819,-5.42778 -6.46526,-9.57827z"/>
  <polygon fill="#CCCCCC" points="353.639,251.376 358.188,257.602 359.625,257.362 359.386,256.165 355.554,251.136 "/>
  <polygon fill="#CCCCCC" points="367.048,256.644 369.682,256.884 369.922,254.968 361.541,248.502 359.864,248.982 "/>
  <path fill="#CCCCCC" d="M379.74 253.531l1.19707 3.35254c-5.90655,-0.798804 -10.057,-3.35254 -13.4096,-6.70507l0.239528 -0.957827 11.973 4.31036z"/>
  <path fill="#CCCCCC" d="M365.851 246.108c1.91565,1.59619 4.15049,2.23484 6.70479,1.91565l-0.239528 -1.43688c-1.75436,0.279496 -3.50901,-0.0796536 -5.26337,-1.07773l-1.20189 0.598961z"/>
  <polygon fill="#CCCCCC" points="390.754,248.024 391.712,249.7 398.896,251.615 398.896,250.179 392.91,248.502 "/>
  <polygon fill="#CCCCCC" points="380.218,245.869 380.937,247.305 385.247,247.784 385.007,246.108 "/>
  <polygon fill="#CCCCCC" points="192.484,195.103 198.71,193.906 203.02,193.906 193.202,196.54 "/>
  <polygon fill="#CCCCCC" points="208.767,192.709 206.612,194.146 219.543,194.385 218.824,192.948 "/>
  <polygon fill="#CCCCCC" points="220.261,191.272 222.416,192.469 229.36,192.469 226.247,191.033 "/>
  <path fill="#CCCCCC" d="M248.277 203.963c-0.319181,-5.10832 -4.23043,-8.06174 -8.85997,-10.2966l-6.70479 0.239528 0.479055 1.67613 4.54961 0.479055c4.46996,2.39443 7.02397,5.26791 10.5361,7.90186z"/>
  <polygon fill="#CCCCCC" points="227.923,190.075 227.205,189.117 232.713,188.399 231.515,190.314 "/>
  <path fill="#CCCCCC" d="M243.009 187.441c-2.1549,1.91565 -4.31008,2.87348 -6.46555,2.87348l0.239528 1.67641c2.71389,0.237827 5.42807,1.03635 8.14167,1.91565l-0.479055 -1.43688 -3.41603 -1.65827 1.97943 -3.3704z"/>
  <polygon fill="#CCCCCC" points="239.417,183.849 235.347,186.962 235.347,188.159 243.249,185.525 239.891,185.538 "/>
  <polygon fill="#CCCCCC" points="233.67,181.694 229.121,184.567 229.121,186.004 233.67,184.089 "/>
  <polygon fill="#CCCCCC" points="224.092,187.202 223.613,186.004 228.163,186.004 227.205,187.202 "/>
  <path fill="#4C4C4C" d="M92.9192 96.5693l2.6932 0c20.4449,-12.6116 40.8946,-25.1473 61.3415,-39.7973l1.19679 0.598394 -1.68832 1.77222 0.491528 0.621638 2.99225 -1.19679 0.897733 1.49613 -3.88999 2.26318 1.32576 0.644599 3.46167 -1.71099 1.49641 2.99225c-0.370772,-13.8526 -15.6232,-7.51947 -24.2377,-12.5674l0.83452 1.54176 -1.0046 1.23591 0.362268 1.1812 1.90262 -1.86435 1.49613 0.920693 -2.11663 2.24759 0.91956 0.422362 2.6932 -1.79518 1.79518 0.299055 -3.29131 2.6932 0.128976 1.4349 5.364 -3.74457 2.05342 -0.084189 -5.10888 3.80551 1.13386 0.874772 5.70473 -4.38123 2.09452 0.299339c-13.8166,11.2258 -41.2302,27.0686 -61.0424,39.7973z"/>
  <polygon fill="#4C4C4C" points="104.219,111.659 100.794,114.987 101.971,115.202 106.254,111.551 "/>
  <path fill="#4C4C4C" d="M97.0464 119.497l-1.49896 3.00671 63.0587 -45.8476 2.03414 -0.107433c9.85295,3.18699 21.9575,-12.6746 39.0155,-13.7364 7.10192,-0.442205 15.7269,5.6914 15.7992,18.6758 2.30627,-11.0639 -2.52057,-17.1748 -11.3485,-20.5078l-10.7059 -2.79184 -0.642614 1.1812 3.9617 0.858898 -0.535465 0.966331 -3.10479 0 -4.60347 -1.50293 -1.28466 0.536599 0.106866 0.751748 2.67647 0.751181 -0.321166 1.07405 -4.4966 0.107433 -3.96114 -0.537166 -0.963497 0.214866 0.10715 1.28835 2.03386 0.214866 0.749481 0.966331 -2.03414 1.18091 -4.2823 -0.214583 -1.1778 -0.644032 -1.28466 0.321732 0.963497 1.1812 2.24844 0.644032 -0.321166 1.39606 -2.89077 0.107433 -3.85399 -0.751748 -1.07065 0 0.10715 1.39606 1.60583 0.429166 1.49868 0.214866 0 0.859182 -2.03414 0.858615 -2.35502 -0.751181 -2.89106 -2.0401 -0.214016 0.966048 0.749481 1.39606 1.49896 0.536599 -0.428032 1.07405 -3.10507 -0.107433 -1.49896 -3.97276c-12.8061,11.92 -43.0801,34.6448 -65.3066,50.3567z"/>
  <path fill="#4C4C4C" d="M167.578 36.9859l-4.38577 -1.79405 7.17676 0 0.598111 -0.79767 -0.797386 -1.3955c5.14999,0.399118 10.4661,-0.663874 15.55,0.79767l0 1.3955c-14.7526,-4.4521 -24.3218,20.2017 -38.2768,8.1737l0 -1.79433 3.78766 2.79099 1.79433 -0.398835 -2.59172 -1.79405 0.199276 -0.996945 0.996945 0 3.3891 2.59172 3.58838 -0.199276 -3.18983 -1.99361 0.996945 -0.996662 3.3891 1.59477 3.3891 -0.199276 0.598111 -0.996945 -4.18677 -0.398551 0.598111 -1.39578 7.97443 -0.597827 -0.598111 -1.59506z"/>
  <path fill="#4C4C4C" d="M178.942 46.1566l0 1.99361c3.52177,-2.19317 4.05326,-7.17704 8.1737,-7.77515l-0.199559 -1.19622 -3.58838 0.598111c-1.13017,-1.39493 -3.65499,-2.05965 -7.97415,-2.39216l-0.199559 1.3955c3.92117,0.664725 4.65166,1.32917 6.97748,1.99361 -1.06356,2.79525 -2.12712,4.18904 -3.18954,5.38271z"/>
  <ellipse fill="#8C0000" cx="173.16" cy="44.4619" rx="5.38268" ry="5.48236"/>
  <ellipse fill="white" cx="171.566" cy="42.6676" rx="1.79423" ry="2.29248"/>
  <path fill="#4C4C4C" d="M217.817 73.4687c-2.90806,-8.52322 -8.65645,-12.9433 -16.3474,-14.5534 8.70463,-0.597827 15.948,7.04381 16.3474,14.5534z"/>
  <path fill="#4C4C4C" d="M218.813 68.6841c-2.85789,-5.09046 -4.51928,-6.74759 -8.57226,-10.1673 3.78737,0.829985 6.91087,3.48747 8.57226,10.1673z"/>
  <path fill="#4C4C4C" d="M234.164 33.9956l1.3955 -0.199276 0 1.59477c-1.86038,3.72076 -4.7177,4.98331 -9.76876,3.3891 4.12016,-0.531496 6.91144,-2.12684 8.37326,-4.7846z"/>
  <path fill="#4C4C4C" d="M230.775 42.9667c2.92451,-0.531496 5.84816,-2.12684 8.77182,-4.7846 -2.39216,4.7846 -5.31553,6.37937 -8.77182,4.7846z"/>
  <path fill="#4C4C4C" d="M243.933 45.5584c-4.7846,1.13017 -6.77821,3.05688 -11.9614,1.59477 3.45515,2.92422 7.44152,2.39188 11.9614,-1.59477z"/>
  <path fill="#4C4C4C" d="M234.454 49.8898l1.79518 -0.299339c15.5568,20.109 7.18696,47.3692 -9.36256,67.4697 -30.6227,37.1931 -83.9974,58.1403 -53.7741,78.8525 -34.7477,-16.9716 16.6728,-41.3416 49.8682,-77.6841 16.2434,-17.7829 28.027,-45.3237 11.4732,-68.3388z"/>
  <path fill="#4C4C4C" d="M236.313 70.2375c1.95562,-5.06693 1.30394,-9.45156 0.565229,-12.5391 3.48945,3.63912 1.51058,8.51301 -0.565229,12.5391z"/>
  <path fill="#4C4C4C" d="M235.052 59.7643c0.398551,-4.48866 -1.39663,-6.98287 -2.6932,-9.2761 3.90132,1.58939 3.59717,5.28208 2.6932,9.2761z"/>
  <path fill="#4C4C4C" d="M237.825 77.8329c2.38762,-4.87843 2.11862,-9.30274 1.65062,-12.443 3.16063,3.92854 0.766489,8.61222 -1.65062,12.443z"/>
  <path fill="#4C4C4C" d="M235.251 91.5154c3.38797,-4.24488 3.48577,-8.32337 3.70914,-11.4902 2.23427,4.51984 -0.519307,8.27433 -3.70914,11.4902z"/>
  <path fill="#4C4C4C" d="M230.463 104.681c3.38825,-4.24488 3.7851,-8.32309 4.00847,-11.4902 2.23427,4.52013 -0.818646,8.27433 -4.00847,11.4902z"/>
  <path fill="#4C4C4C" d="M220.818 116.186c4.47789,-3.07389 6.95622,-9.63978 8.09292,-12.6043 2.09679,3.6961 -3.67852,10.0307 -8.09292,12.6043z"/>
  <path fill="#4C4C4C" d="M209.747 127.258c4.47789,-3.07361 8.15301,-9.34073 9.28971,-12.3052 1.49839,4.29477 -4.87559,10.33 -9.28971,12.3052z"/>
  <path fill="#4C4C4C" d="M201.369 134.439c4.07906,-3.47301 6.25777,-7.04778 7.79301,-9.61229 0.701008,4.69389 -4.17657,8.03537 -7.79301,9.61229z"/>
  <path fill="#4C4C4C" d="M190.597 144.014c4.47789,-3.07361 9.05074,-9.34045 10.1874,-12.3049 1.49839,4.29477 -5.77333,10.3297 -10.1874,12.3049z"/>
  <path fill="#4C4C4C" d="M178.628 153.29c4.47789,-3.07361 9.05074,-9.34045 10.1874,-12.3049 1.49839,4.29477 -5.77333,10.3297 -10.1874,12.3049z"/>
  <path fill="#4C4C4C" d="M168.155 161.071c4.07906,-3.47301 6.25777,-7.04778 7.79273,-9.61229 0.701008,4.69389 -4.17629,8.03537 -7.79273,9.61229z"/>
  <path fill="#4C4C4C" d="M171.915 198.007c-12.0688,-6.18407 -18.7518,-12.9665 -5.68517,-31.1196 -11.9449,11.7196 -12.7928,27.4788 5.68517,31.1196z"/>
  <path fill="#4C4C4C" d="M163.936 199.005c-2.09509,-3.39137 -14.0633,-9.47651 -5.48561,-25.2354 -8.18164,9.57572 -3.29499,21.244 5.48561,25.2354z"/>
  <path fill="#4C4C4C" d="M160.601 245.316c2.00863,-4.35629 -0.705544,-14.4556 12.4381,-18.9028 8.81689,-2.98318 17.9507,-8.10369 3.51043,-19.7728l-1.19594 0.598111 3.18954 3.58866 -4.18649 -1.99361 -1.3955 0.996662 6.77821 2.79099 0.996662 1.3955 -0.597827 0.996945 -8.97137 -3.3891 -0.597827 1.19594 10.167 3.78794 0 0.797386 -1.3955 0.996945 -8.97109 -3.78794 -0.996662 0.797386 9.17037 4.7846 -0.199276 0.797386 -1.99361 0.199559 -7.77487 -3.18983 0 1.19622 5.98054 3.18983 -0.598111 1.3955 -1.79405 0.199276 -7.37632 -3.18983 -0.398835 1.19622 4.98416 2.99027 -0.797386 1.19622 -1.59506 0 -4.7846 -2.19288 -0.797386 0.996662 4.38605 2.19317 -0.199559 1.59477 -1.19622 0.398551 -4.18649 -1.59477 -0.199276 0.797386 3.3891 1.99361 -0.996662 1.99361 -2.59172 -0.598111 -0.398835 0.797386c0.731339,0.332788 1.46183,1.06356 2.19288,1.39578 -1.22995,3.48917 -1.36261,7.34372 -0.996662,11.3632z"/>
  <path fill="white" d="M197.681 289.773c-1.59477,-8.23975 -28.9069,-21.6635 -32.296,-39.6723l4.38577 8.57254c-1.86038,-5.51566 -3.52177,-10.0341 -4.38577,-16.5467l0.797386 0c1.12989,4.51899 1.26284,7.0441 4.58533,13.5561 -2.19288,-5.98054 -2.79099,-11.5628 -4.18649,-17.3441l1.19594 -0.996945 1.3955 5.58227 0.79767 0 -1.19622 -8.97109 1.59477 -0.598111 0.598111 0.598111 0.598111 4.98388 1.19622 1.79405c0.332504,-2.72438 -0.132378,-5.98025 -1.3955,-9.76848l1.59477 0.398835 2.59172 6.1801 0.598111 -1.59506 -1.59506 -6.1801 1.79433 -0.398551 1.99361 5.58199 0.797386 -1.79433 -1.59477 -4.98388 1.59477 0 2.19288 4.58533 0 -3.18983 -0.996662 -2.79099 2.19288 0 1.79433 4.18649 0.598111 -2.19288 -1.79433 -4.58533 1.3955 -0.398551 2.59172 4.18649 0.199276 -2.59172 -1.59477 -3.3891 0.398551 -1.19622 2.59172 2.99055 0 -1.59506 -2.39216 -2.79099 0 -1.59477 3.3891 1.79405 -0.199559 -1.19594 -2.99027 -2.39244 -0.199276 -0.996662 2.99027 0.996662 -0.199276 -0.996662 -3.98721 -2.19317 -0.398835 -0.797386 2.79099 0.199559 -1.3955 -1.3955 -5.78126 -1.79433c4.4331,5.5114 5.31525,7.4829 3.39931,11.2646 -3.97588,7.84574 -23.188,3.91947 -21.9677,25.1839 0.69704,12.145 8.19411,20.3604 18.252,28.135 6.74504,5.21348 11.6263,9.73219 17.6604,16.1566z"/>
  <polygon fill="#4C4C4C" points="244.531,231.959 247.123,232.557 247.322,233.753 243.135,232.956 241.142,233.554 245.129,235.348 242.936,235.547 239.547,234.152 237.155,234.55 242.936,236.743 243.733,238.338 237.155,235.946 237.553,237.74 241.939,239.335 241.939,240.332 238.151,239.534 238.55,240.93 240.743,241.528 241.142,242.525 238.55,242.126 238.351,246.113 236.955,246.711 238.151,247.708 237.753,248.506 235.759,247.11 233.765,247.708 235.36,248.904 235.36,250.3 231.573,247.509 229.38,247.708 233.367,250.698 233.367,252.094 229.38,249.502 229.38,251.496 233.566,253.888 231.772,254.088 229.38,253.091 229.18,254.686 230.775,255.085 231.772,256.081 227.3,256.728 227.785,258.474 226.389,258.673 225.791,258.075 224.196,258.274 227.585,260.866 226.19,261.265 221.206,258.274 221.206,258.075 219.81,258.274 219.81,258.673 223.798,261.265 224.395,263.258 219.611,260.068 220.01,262.66 223.997,264.853 223,265.252 219.412,263.856 219.412,265.65 221.804,267.445 222.003,268.441 219.013,266.847 220.409,269.638 215.225,269.837 216.621,271.232 216.621,272.429 211.637,269.239 210.441,269.239 213.83,272.03 213.431,273.027 209.643,269.837 208.846,270.036 208.846,271.631 212.633,274.023 212.633,275.02 208.846,273.027 208.846,274.621 211.637,276.615 211.637,277.412 208.646,276.615 208.248,278.409 210.042,278.808 210.441,280.203 207.85,279.386 206.235,280.168 206.994,281.845 205.656,281.998 203.662,279.606 200.871,279.406 204.26,282.596 203.064,282.995 198.28,278.409 196.967,278.466 199.476,282.795 192.897,275.618 196.286,276.615 206.453,277.612 207.45,266.647 217.418,266.847 217.618,255.682 227.187,255.284 226.788,245.515 236.756,243.92 234.762,233.354 245.527,229.766 246.923,230.364 246.923,230.962 245.328,230.763 "/>
  <polygon fill="white" points="192.099,274.023 203.463,274.621 205.257,264.454 214.826,263.258 215.823,255.085 224.196,252.094 224.994,243.721 233.765,241.329 232.37,232.158 244.332,228.171 245.129,229.766 234.762,233.155 236.556,243.92 226.589,245.316 227.187,255.085 217.418,255.682 217.219,266.647 207.45,266.248 206.453,277.412 196.286,276.814 "/>
  <path fill="white" d="M199.476 292.564l0.199276 2.99027c7.50898,-1.86038 11.0305,-6.37881 10.5661,-13.5564l11.164 -1.79433 0 -8.77153 11.164 -1.99361 -1.19594 -10.3669 9.5692 -3.58838 -0.598111 -9.36993 11.164 -1.79405 -1.19622 -9.96804 0.79767 0 5.58199 9.5692 0.996662 0.598111 0 -2.59172c-3.66435,-5.58992 -6.5058,-9.09468 -8.57226,-10.9647l-0.199559 11.5628 -9.76848 1.99361 -1.19622 10.7654 -8.1737 1.99361 -0.199276 10.3666 -9.96804 2.39244 -1.59477 9.17037 -8.77182 1.79433c-1.46154,6.54662 -5.1171,9.80249 -9.76848,11.5628z"/>
  <path fill="#4C4C4C" d="M162.196 252.891c5.78155,20.268 22.129,19.6036 35.8846,44.0584 4.11988,1.12961 8.23975,-1.728 11.7621,-3.78794 7.67963,2.91147 16.1734,5.59021 24.3853,7.43868l-4.90592 1.26737 2.26176 1.29997 -13.2364 -3.56287 -1.48762 -0.221953 13.4547 5.02158 0.364819 1.14832 -3.66123 -0.491528 2.86328 1.512 0.0447874 0.795119 -8.66325 -2.63594 -3.25559 -0.0493229 12.1708 4.22816 -0.206929 2.12202c-8.01638,-1.77364 -16.1496,-4.01386 -24.6974,-7.91689l-3.02032 0.0496063c9.6035,3.93704 19.2073,7.44152 28.8116,10.3156l1.85471 2.00013c-3.7114,-10.9264 -0.511087,-15.2082 9.60152,-12.8432 19.3725,6.06841 40.5114,7.72441 62.0167,8.46567l0.199276 -1.79433c-2.76066,-0.036 -5.51849,-0.121039 -8.26668,-0.251433 2.54211,-3.29499 4.91811,-7.25415 6.92958,-12.6751l1.92132 5.22397c-0.460347,-4.01159 -1.18715,-7.22495 -2.17899,-9.64035 -2.12684,5.73109 -3.05745,8.87046 -8.7721,17.1936 -32.6381,-1.79603 -63.5828,-10.0919 -84.3285,-18.5902l1.35808 -4.06517 5.68574 0.695906 -5.24948 -2.81084 1.80822 -0.136347 9.39345 2.87773 -7.62492 -3.5212 3.38825 -0.27241 7.26293 1.85811 -4.85802 -2.60022 1.3955 -0.199276 0.990426 -0.511937 2.82643 0.294803 -3.61616 -1.66224 0.786898 -0.770741 3.39024 0.0564095 -3.49143 -1.06356 -0.288284 -2.12428c23.0414,10.0029 46.8649,15.3181 70.9716,18.9391l-0.199559 -2.59172c-25.666,-2.60306 -52.0297,-10.819 -70.7721,-18.5403l-0.199559 -1.3955 5.58227 -0.199276 5.58199 0.996662 -3.98721 -1.59477 1.19622 0 5.98054 1.19594 -4.58504 -1.59477 0.398551 -1.3955 4.98416 0.797386 -3.78794 -1.79405 0.199276 -1.3955 4.18649 0.597827 -4.18649 -1.59477 0 -1.79433 4.7846 1.39578 -4.58504 -2.39244 0 -1.19622c16.2017,5.93065 32.1752,10.9474 47.846,14.7526l0 -2.19288c-15.7578,-3.55295 -31.9555,-8.87046 -48.2448,-14.5534l-0.199276 -1.3955 3.3891 -0.199276 2.39216 0.398835 -1.19622 -1.19622 1.79433 0.199276 3.78794 0.797386 -2.99055 -1.79405 0.199559 -0.598111 0.996662 0 5.18344 1.3955 -3.98721 -2.39244 -0.398835 -1.59477 5.18344 1.99361 -0.598111 -0.797386 -4.38577 -2.39244 0.199276 -0.996662 5.38271 1.99361 -0.797386 -0.996945 -4.7846 -2.39216 -0.398835 -1.19622c9.70158,4.38577 19.1376,7.97443 28.3088,10.7654l-0.398551 -2.59172c-7.54243,-1.06328 -16.9126,-5.05021 -27.1128,-10.3666l6.37937 -0.797386 2.39244 1.19594 -1.3955 -1.79405 1.19622 -0.398835 1.99361 0.398835 -0.996945 -1.19622 2.39244 -0.797386 -2.79099 -1.79433 1.3955 -1.19622 -3.3891 -7.17676 0.398551 9.76848 -10.9647 2.39244 0.797386 8.77182 -9.76848 3.98693 0.996662 10.1673 -11.164 2.19317 0 9.17037 -11.164 1.19622c0.223937,7.57474 -2.04576,11.5622 -10.5661,13.7557 -6.31333,-16.2147 -27.7773,-22.6607 -37.4794,-42.6629z"/>
  <path fill="white" d="M211.836 287.38l-0.797386 2.99027c24.8822,10.0426 53.5315,16.1393 83.1325,18.5406l2.59172 -3.3891c0.64715,-8.62271 -0.31663,-17.8265 -3.3891,-27.5117l-1.3955 3.78794c1.12932,2.72466 1.06299,5.44933 1.59477,8.1737 -1.92699,0.199276 -4.31972,-0.0666142 -6.77821,-0.398835l-2.39244 1.79433 10.1673 1.3955 0.598111 13.5564c-33.6549,-2.93103 -60.7164,-10.158 -83.3318,-18.9391z"/>
  <path fill="white" d="M223.2 274.223c19.0301,7.33465 39.2482,13.1984 60.4055,17.3441l0.199559 -2.79099c-21.9461,-4.92605 -40.5201,-10.093 -55.0231,-15.55l-5.41446 -0.27241 -0.167528 1.26935z"/>
  <path fill="white" d="M234.762 260.866c16.2388,5.59049 32.3371,10.7569 48.0453,14.7526l1.19622 11.9614 1.79405 -1.59477c-0.631559,-11.3477 -2.55912,-20.7508 -6.37937,-27.3121l-0.398551 4.58533c0.930048,2.25893 2.12627,4.91698 2.39216,9.76848l-5.78126 -1.59477 -1.3955 0.597827 -0.996945 -1.59477c-12.4121,-3.33043 -23.9411,-7.10249 -35.2865,-10.9647l-3.18954 0.199276 0 1.19622z"/>
  <path fill="white" d="M274.036 268.84l0.996945 -4.58533c-4.91755,-13.6888 -9.30331,-23.1248 -13.1579,-28.3091l0 2.39244c2.69178,4.61821 5.41673,8.93736 7.57588,17.3441 -6.84454,-1.99361 -13.4235,-4.7846 -19.7365,-8.37298l-5.18344 0.398835c9.08788,4.70155 17.9598,8.32394 26.5147,10.3666l2.99027 10.7654z"/>
  <path fill="#4C4C4C" d="M273.039 270.036l1.3955 1.79405c5.24948,-6.51232 2.72438,-10.8315 4.7846,-13.5564 0.797386,0.133228 1.99361,2.65833 2.99027,5.38271 -0.25937,-4.54649 -1.91452,-6.39185 -4.98388,-10.9647 -2.19288,1.26284 1.3955,11.4965 -4.18649,17.3444z"/>
  <path fill="#4C4C4C" d="M285.001 286.982l-0.996662 3.98721c9.63525,-5.71465 5.71465,-8.63859 8.77182,-13.1576 0.797386,0.133228 1.99361,5.44933 2.99027,8.1737 -0.429449,-4.3767 -0.292819,-8.61137 -2.99027,-13.5564 -2.19317,1.26284 -2.19317,8.70548 -7.77515,14.5531z"/>
  <path fill="#4C4C4C" d="M258.885 229.367c0.996662,9.50259 -0.598111,9.83481 -0.598111,12.9583l-0.199276 6.57865c1.46324,-2.5166 2.79298,-5.76737 3.18983,-14.1542l3.98693 5.38271c-0.926079,-3.38854 -2.25213,-6.84426 -6.37937,-10.7654z"/>
  <path fill="#4C4C4C" d="M194.89 305.123l-1.79405 0.199276c13.4892,6.78586 26.979,10.9556 40.4697,12.9583l-0.996945 -1.99361c-13.5899,-2.17701 -26.2165,-5.79912 -37.6787,-11.164z"/>
  <path fill="#4C4C4C" d="M187.714 307.516l-1.79433 0.199276c12.5751,7.01377 35.7336,14.6478 50.4377,16.3474l-0.797386 -2.19288c-14.514,-1.25575 -35.862,-8.11758 -47.846,-14.3538z"/>
  <path fill="#4C4C4C" d="M201.469 290.77c-3.72161,-8.24032 -16.0152,-16.6799 -23.1256,-25.3185 2.32583,6.57865 15.6161,14.9519 22.5275,25.7173l0.598111 -0.398835z"/>
  <path fill="#4C4C4C" d="M176.35 304.924l-1.79433 0.199276c11.7777,10.0043 45.5023,22.0241 61.8013,24.9199l0.961229 4.37018 -3.11414 0.586772 2.55572 6.65348 -4.07707 0.0161575 3.54898 7.831 -3.57619 -0.318614 2.3777 7.10164 1.31726 1.67669c-12.6411,-3.87836 -24.8834,-10.0826 -27.7554,-15.6215l-1.58797 0.13011c0.0172913,1.63446 -0.497197,3.00359 -1.54233,4.10712l1.11855 -0.431717 -0.504567 1.59052 2.46331 -1.77194c5.8303,4.70041 13.2554,8.86933 22.2752,12.5076l-2.36806 0.0912756 1.93578 2.59682 -3.35027 -0.647433 3.3344 2.67364 -2.95455 -0.060378 3.21024 1.77279 -5.4326 9.00652c4.33219,-2.41058 6.00605,-8.21056 8.01298,-10.6209 3.22895,4.83081 1.34022,8.2338 -3.27317,8.61364l-0.764504 4.56463c-1.01282,3.20145 -35.5731,7.71307 -100.3,28.9488 -10.2742,3.37096 -11.145,4.53345 -9.60577,8.54703 0.860315,-4.39087 3.56117,-4.59893 24.1393,-10.8981 25.0206,-7.65978 85.5601,-23.1007 87.3462,-24.6093l0.000850394 -3.62636c11.5798,-1.38104 3.22186,-13.0635 3.43588,-15.3082l4.70381 0.0167244 -2.83068 -7.06479 3.20173 0.131244 -3.16063 -7.71534 4.13858 -0.876189 -3.0498 -6.65603 3.59377 -0.63326 -2.62942 -9.46545c-14.514,-1.25575 -47.0259,-11.1078 -61.8013,-22.3282z"/>
  <path fill="#4C4C4C" d="M116.343 416.964c-0.664725,-1.29543 0.0663307,-6.18038 -0.997229,-8.07421 -1.06243,-1.89326 -4.31915,-1.3955 -5.38214,-3.28904 7.90753,-0.598111 9.2367,5.18315 6.37937,11.3632z"/>
  <path fill="#4C4C4C" d="M134.485 422.147l1.19594 0.996662c0.0394016,5.37903 -4.58447,11.965 -8.82312,10.5333 -5.9984,-2.02649 -11.0333,-11.7241 -14.3263,-12.397 -4.43736,-0.906237 -4.4504,3.02258 -3.03647,5.7104 5.70756,10.8459 -1.18375,12.3469 2.35077,17.6613 3.74287,5.62734 -2.22293,7.31254 0.681166,12.0419 4.63635,7.55037 -0.394583,7.48999 2.3417,12.6187 3.15411,5.91222 -3.36841,12.3653 -11.683,6.46243l-0.199559 -1.99361c9.46234,5.87849 12.1484,0.398268 9.84615,-4.09436 -2.60646,-5.08592 1.91452,-6.72265 -1.82325,-12.9779 -2.26063,-3.78369 2.10983,-6.75468 -1.42611,-12.2457 -2.76378,-4.29137 3.04866,-10.8176 -1.57436,-15.9599 -1.83969,-2.04605 -1.99928,-8.29616 2.60164,-8.88804 5.7447,-0.738709 11.1909,11.0361 17.2766,12.3554 3.73436,0.809008 6.90265,-8.41692 6.59821,-9.82347z"/>
  <path fill="#4C4C4C" d="M99.597 441.883c-0.928914,1.69257 -3.92202,5.23049 -2.7258,9.38977 2.28416,7.9424 -4.34466,7.97443 -1.84054,16.0206 3.09827,9.95471 -4.26473,14.9596 -12.1796,5.09159l1.99361 0c7.77487,6.77821 10.9046,1.62879 7.99881,-6.08032 -2.28898,-6.07295 4.27323,-7.76325 2.19232,-14.4652 -1.55339,-5.00173 3.45118,-9.84445 3.56457,-12.947l0.797386 0.398835 0.199276 2.59172z"/>
  <path fill="#4C4C4C" d="M88.6323 433.311c-0.928914,1.69257 -7.50955,4.63351 -6.31418,8.79194 2.28331,7.94155 -6.95651,4.47789 -5.42892,12.4322 2.01827,10.5061 -9.847,11.969 -13.1766,0.70526l1.99361 0.598111c1.99361,5.78155 10.2192,8.05805 9.59386,-1.09616 -0.603213,-8.82766 6.18237,-6.09959 5.38186,-13.269 -0.731339,-6.54747 6.84029,-8.44895 6.95367,-11.5515l0.797386 0.797386 0.199276 2.59172z"/>
  <path fill="#4C4C4C" d="M300.351 318.68l-7.57559 -0.199276 3.58838 7.37604 -5.38271 -0.398551 4.98388 7.57559 -3.78766 -0.398835 4.18649 7.37632 -4.58533 -0.797386 2.59172 8.1737c-9.63497,1.09672 -18.5394,-3.28932 -27.1128,-10.1673 -2.45849,3.58838 -2.92366,6.1801 -7.37632,10.7654l1.19622 0c3.15695,-2.52595 5.54911,-5.05134 6.57893,-7.57559 7.0441,5.7977 14.9525,9.21997 24.1223,9.17037 2.51915,5.68999 1.1058,7.87267 4.24262,11.6986 3.84492,4.68964 8.33358,10.0672 6.12397,17.2086l-1.3955 -0.598111 -1.19594 -3.78794 0 10.9647 0.996662 1.3955 0.398835 -6.37937c3.48293,0.808158 2.25298,17.3665 3.69269,36.8121 1.82353,24.6215 5.22114,53.932 6.50523,66.2443 1.9508,18.7109 3.27147,24.5957 9.73786,26.7262l0.199276 -1.59506c-4.74038,-0.776977 -5.92016,-8.92489 -7.3338,-23.2033 -1.88192,-19.008 -5.03207,-40.9255 -6.72974,-62.9059 -1.99191,-25.7888 -1.03436,-40.3175 -3.67937,-43.075 7.57559,-11.8953 -6.1801,-11.8287 -9.76848,-29.5053l3.58838 -0.598111 -2.39216 -7.17676 3.78766 0.598111 -2.79099 -7.17704 2.99027 0 -3.18954 -6.77821 3.18954 -0.398551 -2.99027 -7.57559 8.1737 0 -1.3955 -1.59506 -2.19288 -0.199276z"/>
  <path fill="#4C4C4C" d="M250.512 510.862l-2.19288 1.3955c-0.780945,11.2178 9.307,0.821197 14.7682,5.83852 4.18762,3.8469 6.61947,-1.1846 12.9424,3.93024l5.58199 -0.598111c-8.34804,-0.947056 -6.33147,-4.22079 -12.4849,-3.43899 -4.45578,0.565512 -5.71635,-4.58079 -13.4544,-3.03704 -8.51103,1.69824 -6.06643,-1.38501 -5.16048,-4.09011z"/>
  <path fill="#4C4C4C" d="M246.923 530.997l-1.3955 0.996662c1.35524,11.8457 8.79648,0.557008 14.6126,3.23263 4.83846,2.22576 8.31175,-5.9624 14.4938,-0.640914l5.78155 -2.59172c-5.73166,0.861733 -9.53802,-2.58491 -14.8025,0.392315 -5.21433,2.94888 -7.615,-1.81077 -13.3931,2.04321 -1.71099,1.14123 -6.41537,2.4103 -5.29682,-3.43219z"/>
  <path fill="#4C4C4C" d="M258.287 552.727l1.79433 0.199276c6.46101,6.0514 8.39424,-5.8218 16.0347,-6.68977 4.60063,-0.522425 6.20363,-6.43607 12.1853,-7.08917 6.78643,-0.740693 3.97899,-5.22851 13.9941,-6.17329 4.84951,-0.457229 4.72847,-5.35096 14.2707,-5.95333 6.26939,-0.396284 3.5538,-6.55824 17.2542,-3.88545 5.256,1.02501 10.5469,-0.543402 9.792,-13.2704l1.19622 1.3955c2.23455,12.2494 -5.69282,14.8278 -13.127,13.1304 -8.95153,-2.0435 -11.0923,5.29796 -16.5997,5.00145 -8.20262,-0.441921 -7.11978,6.59169 -14.7118,6.32693 -6.21071,-0.216567 -6.89273,5.52303 -12.0614,5.51225 -5.56526,-0.0113386 -7.43018,7.26435 -11.9815,6.6549 -6.06955,-0.812977 -10.5667,14.7098 -18.0403,4.84073z"/>
  <path fill="#4C4C4C" d="M315.104 509.865l0.199559 1.3955c5.04964,0.863434 7.70797,4.38548 7.97415,10.5659l1.19622 -1.3955c1.52844,-6.11377 -1.66139,-10.2342 -9.36993,-10.5659z"/>
  <path fill="#4C4C4C" d="M328.461 302.133l-2.19288 -2.19317c0.270425,9.06974 1.4692,11.2731 -2.59172,22.5278l0 1.19594c4.38633,-5.18372 4.0544,-10.3008 4.7846,-21.5306z"/>
  <path fill="#4C4C4C" d="M316.898 303.529l-2.19288 -2.19317c0.286016,11.9154 -2.93783,19.2575 -6.97748,25.3188l0 1.19594c4.38605,-5.18372 8.44016,-13.0918 9.17037,-24.3216z"/>
  <path fill="#4C4C4C" d="M338.827 299.541l-2.19288 -2.19288c0.0212599,9.24038 0.756284,9.93005 -2.39244,20.1351l0.199559 2.19288c3.85484,-6.5126 3.12463,-10.2345 4.38577,-20.1351z"/>
  <path fill="#4C4C4C" d="M343.612 312.898l0.199559 1.19622c5.91392,-6.4457 4.65137,-12.8917 6.97748,-19.537 -6.59594,-12.3934 -2.97496,-24.2221 -4.38605,-33.891l-1.19594 -2.39244c-1.5035,3.48038 0.588756,5.98536 -0.538299,12.0288 -2.62347,14.0604 6.84284,28.2359 -1.05676,42.5954z"/>
  <path fill="#4C4C4C" d="M354.178 336.822c7.79358,-5.1171 15.4658,-23.2257 15.7788,-37.0851l1.03011 -0.424063c0.815245,-6.03468 -0.901134,-13.7154 -0.461481,-19.7068 4.71799,6.57865 10.0341,12.5595 14.1542,19.7365 0.531496,22.5275 -6.91115,34.8877 -16.1479,49.4408 11.7077,-12.2309 19.7677,-29.2076 18.7124,-56.4191 0.0544252,-1.76513 0.708662,0.861166 0.68967,-0.905103 -0.0688819,-6.24019 -0.787181,-12.1487 -2.25723,-17.2358 5.23219,4.33673 9.78407,10.8825 13.955,18.9388 4.28429,34.1 -2.12032,55.9863 -16.1479,69.1776l-2.79099 3.3891c18.5182,-14.5446 23.6642,-30.9376 21.5368,-72.5446l0.918426 -1.9012c-0.272693,-6.25975 -0.721418,-12.9949 -1.32321,-20.2496l-3.58866 -4.38577 1.99361 23.923c-5.96523,-9.83452 -12.2451,-17.1439 -18.7396,-22.7271 2.65777,11.7624 3.32249,20.3346 3.18954,28.1098 -5.14999,-8.5235 -11.5294,-15.4009 -17.3441,-22.7271l1.59477 24.3218c-5.38271,-6.31304 -13.955,-11.8284 -18.5403,-31.4986 1.19622,20.401 13.3571,26.2491 16.1481,32.4953 2.25865,17.8444 -7.30999,30.4036 -12.3602,38.2771z"/>
  <path fill="#4C4C4C" d="M404.404 432.885c-17.7199,-33.1248 39.2709,-98.337 12.9308,-151.816l0 2.39471 2.63395 6.22602 -0.7183 0.239244 -2.15518 -4.07055 -0.7183 4.78914 -1.43688 -1.67641c-1.11742,-13.3296 -3.19266,-18.997 -5.50744,-27.5375 8.22133,5.30277 19.3136,12.3939 25.3823,20.3539 -0.753733,-8.67884 -3.06794,-18.2965 -11.4939,-30.1717 67.017,55.8973 -1.89241,116.733 13.8886,162.831 -0.87789,-0.7183 -1.75606,-1.4366 -2.63395,-2.1549 -13.0144,-42.2989 43.9404,-94.2441 -1.43688,-150.14l0 2.15518 6.39468 8.72816 2.22576 4.92095 -7.18356 -10.0573 0.239244 2.39471 7.66262 11.7332 -0.239244 1.91594 -5.98649 -9.57856 0.478772 3.59206 5.02866 7.66262 -0.239528 1.4366 -3.59178 -5.74696 -0.239528 1.91565 3.11301 5.02866 -0.478772 1.19735 -1.67641 -2.87348 -0.239244 2.15518 -1.43688 0c-6.54889,-9.79059 -13.3835,-15.3692 -19.6353,-19.8751l3.59178 5.74696 -0.239528 1.67613 -5.02866 -8.14139 -1.19707 -0.239528 0 1.43688 4.17572 5.81868 1.09219 3.75959 -3.59178 -5.98649 -0.7183 1.91565c33.9231,52.92 -22.9082,116.376 -11.0152,158.042z"/>
  <path fill="#4C4C4C" d="M301.437 273.167l-2.87348 -11.0152c3.83131,4.86907 3.35225,7.34344 2.87348,11.0152z"/>
  <path fill="#4C4C4C" d="M308.381 274.603c-0.638646,-3.51213 -1.59647,-7.34344 -2.87348,-11.4939 3.83131,4.86907 3.35225,7.82221 2.87348,11.4939z"/>
  <path fill="#4C4C4C" d="M316.762 275.561c-0.638646,-3.51213 -1.35695,-6.38561 -2.63395,-10.5361 3.83131,4.86907 3.11273,6.86438 2.63395,10.5361z"/>
  <path fill="#4C4C4C" d="M322.27 276.279c-0.638363,-3.51184 -1.35695,-6.38533 -2.63395,-10.5361 3.83131,4.86907 3.11301,6.86466 2.63395,10.5361z"/>
  <path fill="#4C4C4C" d="M327.298 277.237c-0.437386,-3.03137 -0.436252,-5.58539 -2.15518,-10.5361 3.83131,4.86907 2.63424,6.86466 2.15518,10.5361z"/>
  <path fill="#4C4C4C" d="M339.032 278.674c-0.638646,-3.51213 -1.35695,-6.38561 -2.63395,-10.5361 3.83131,4.86879 3.11273,6.86438 2.63395,10.5361z"/>
  <path fill="#4C4C4C" d="M314.847 299.986c0.25937,-4.11081 -0.818363,-15.9245 -3.11301,-19.3961 4.84895,3.51156 4.48951,14.5267 3.11301,19.3961z"/>
  <path fill="#4C4C4C" d="M310.297 301.183c0.25937,-4.11109 -2.01572,-18.798 -4.31036,-22.2696 4.84895,3.51156 5.68687,17.4002 4.31036,22.2696z"/>
  <path fill="#4C4C4C" d="M324.664 297.352c0.25937,-4.11109 0.139465,-11.6144 -2.15518,-15.086 4.69276,4.12186 3.69893,11.5591 2.15518,15.086z"/>
  <path fill="#4C4C4C" d="M319.636 299.986c0.25937,-4.11081 -0.0997796,-14.4879 -2.39471,-17.9595 4.84895,3.51184 3.77121,13.0901 2.39471,17.9595z"/>
  <path fill="#4C4C4C" d="M331.13 299.507c0.259654,-4.11081 -0.818363,-12.0932 -3.11301,-15.5645 4.84866,4.22958 4.48923,11.2535 3.11301,15.5645z"/>
  <path fill="#4C4C4C" d="M335.44 299.268c0.25937,-4.11109 -0.100063,-11.8539 -2.39471,-15.3252 4.48923,4.94788 3.49087,11.573 2.39471,15.3252z"/>
  <path fill="#4C4C4C" d="M340.708 298.549c0.259654,-4.11081 -1.05761,-12.3324 -3.35225,-15.804 4.84838,4.22958 4.72847,11.4931 3.35225,15.804z"/>
  <path fill="#4C4C4C" d="M344.06 297.591c0.25937,-4.11081 -0.100063,-10.4168 -2.39471,-13.8884 4.48923,4.94788 3.49087,10.1358 2.39471,13.8884z"/>
  <path fill="#4C4C4C" d="M303.592 286.936l-2.15547 -8.26215c2.87377,3.65216 2.51462,5.50829 2.15547,8.26215z"/>
  <path fill="#4C4C4C" d="M333.333 276.664l-1.72403 -6.60983c2.2989,2.92167 2.01147,4.40646 1.72403,6.60983z"/>
  <path fill="#4C4C4C" d="M157.523 172.116l5.50772 -7.18356c-3.25304,1.41506 -6.08599,5.52558 -5.50772,7.18356z"/>
  <path fill="#4C4C4C" d="M147.705 183.131l5.26819 -7.66262c-3.25304,1.41506 -5.84646,6.00463 -5.26819,7.66262z"/>
  <path fill="#4C4C4C" d="M154.171 195.103c-1.63644,-3.91096 -2.11578,-7.34372 -2.39471,-11.0149 -1.75606,4.31008 -0.957827,7.9818 2.39471,11.0149z"/>
  <polygon fill="#4C4C4C" points="189.131,274.364 191.526,277.716 193.681,277.956 190.568,274.843 "/>
  <path fill="#4C4C4C" d="M177.159 257.841c3.75109,4.38945 7.82193,8.46029 12.2122,12.2122l-2.39443 -0.479055 -9.8178 -9.81752 0 -1.91565z"/>
  <path fill="#4C4C4C" d="M180.272 256.165c3.23603,3.78737 6.74816,7.29922 10.5361,10.5361l-2.06589 -0.413008 -8.47021 -8.47021 0 -1.65288z"/>
  <path fill="#4C4C4C" d="M183.384 253.531c3.53055,4.1315 7.36186,7.96281 11.4939,11.4939l-2.25354 -0.450709 -9.24038 -9.24038 0 -1.80284z"/>
  <path fill="#4C4C4C" d="M186.258 250.658c3.23632,3.78709 6.74844,7.29922 10.5361,10.5361l-2.06589 -0.413292 -8.47021 -8.47021 0 -1.6526z"/>
  <path fill="#4C4C4C" d="M189.61 246.347c3.23632,3.78737 6.74816,7.29922 10.5361,10.5364l-2.06589 -0.413292 -8.47021 -8.47021 0 -1.65288z"/>
  <path fill="#4C4C4C" d="M191.047 241.558c3.45714,4.04561 7.20851,7.79698 11.2547,11.2547l-2.20677 -0.441355 -9.04791 -9.04791 0 -1.76542z"/>
  <path fill="#4C4C4C" d="M193.681 238.445c2.57414,3.01238 5.84674,5.80621 8.85997,8.38092l-2.1223 -0.328819 -6.73767 -6.73767 0 -1.31443z"/>
  <path fill="#4C4C4C" d="M204.457 243.953l-7.90215 -8.14167c3.11301,1.03776 7.18356,4.70948 7.90215,8.14167z"/>
  <path fill="#4C4C4C" d="M204.696 239.577l-5.74696 -5.92101c2.26403,0.754583 5.22454,3.42482 5.74696,5.92101z"/>
  <path fill="#4C4C4C" d="M206.612 235.572l-7.90186 -8.14167c3.11273,1.03776 7.18356,4.7092 7.90186,8.14167z"/>
  <path fill="#4C4C4C" d="M205.415 230.34l-9.0995 -9.37503c3.58469,1.1948 8.27207,5.42268 9.0995,9.37503z"/>
  <path fill="#4C4C4C" d="M204.437 224.294l-8.82 -7.13651c3.21477,0.657355 7.69578,3.81515 8.82,7.13651z"/>
  <path fill="#4C4C4C" d="M255.7 238.206c-7.18356,-9.49805 -15.4049,-16.1232 -25.3823,-19.8751l1.19707 -0.478772c7.54356,2.07269 14.8082,5.26451 21.0725,12.4518l0 2.39471 2.39443 3.11273 0.7183 2.39471z"/>
  <path fill="#4C4C4C" d="M237.365 211.865c2.02337,0.769323 6.71018,2.70794 8.2783,6.1577 -3.30662,-2.65125 -6.22574,-4.93172 -8.62045,-5.30249l0.342142 -0.855213z"/>
  <path fill="#4C4C4C" d="M234.628 215.218c2.19458,0.757985 8.42117,1.79575 11.2547,6.94403 -4.62926,-3.71169 -8.38063,-5.22794 -11.7335,-5.74696l0.478772 -1.19707z"/>
  <path fill="#4C4C4C" d="M135.083 264.454l-1.99361 0.598111c1.72743,3.25644 4.38548,6.4457 6.97748,8.1737 -3.27572,-4.50992 -4.83789,-6.4664 -4.98388,-8.77182z"/>
  <path fill="#4C4C4C" d="M135.482 263.457l2.19288 -0.598111 5.78155 8.57254c-2.85761,-2.25978 -5.71522,-5.31666 -7.97443,-7.97443z"/>
  <polygon fill="#4C4C4C" points="140.067,260.666 138.672,261.663 144.253,267.245 144.852,266.049 "/>
  <polygon fill="#4C4C4C" points="141.861,259.071 147.044,264.056 148.639,264.056 142.659,257.277 "/>
  <polygon fill="#4C4C4C" points="144.453,255.085 145.649,254.088 149.636,260.068 148.639,259.869 "/>
  <polygon fill="#4C4C4C" points="147.842,250.1 145.848,251.297 151.43,256.081 151.43,254.287 "/>
  <polygon fill="#4C4C4C" points="122.523,266.049 124.716,266.448 128.703,264.056 128.504,262.062 "/>
  <path fill="#4C4C4C" d="M136.08 258.673l0 2.19288c-1.12961,1.26227 -2.25865,2.25921 -3.3891,2.99027l-1.3955 -0.597827 4.7846 -4.58533z"/>
  <path fill="#4C4C4C" d="M144.253 248.107c-1.42923,5.54967 -3.95462,8.54022 -6.97748,10.3669 3.72104,0.96463 8.63802,-4.41751 6.97748,-10.3669z"/>
  <path fill="#4C4C4C" d="M145.649 246.512c3.52177,0.0660473 5.18287,-2.52482 4.98388,-7.77487l-0.996662 -1.39578c-0.200126,4.65336 -1.13074,7.24592 -3.98721,9.17065z"/>
  <polygon fill="#4C4C4C" points="148.839,247.309 150.434,248.506 151.829,247.708 150.16,246.184 "/>
  <polygon fill="#4C4C4C" points="143.257,273.027 148.041,277.811 148.041,279.008 143.655,275.02 "/>
  <polygon fill="#4C4C4C" points="146.446,271.83 151.231,276.615 151.231,277.811 146.845,273.824 "/>
  <polygon fill="#4C4C4C" points="149.038,268.641 153.823,273.425 153.823,274.621 149.437,270.634 "/>
  <polygon fill="#4C4C4C" points="151.032,265.65 154.819,269.438 154.819,270.385 151.347,267.229 "/>
  <polygon fill="#4C4C4C" points="152.427,262.062 156.414,265.65 156.414,266.597 152.942,263.441 "/>
  <polygon fill="#4C4C4C" points="154.022,256.28 156.614,258.872 156.016,259.47 153.823,257.477 "/>
  <polygon fill="#4C4C4C" points="213.83,338.217 213.83,339.812 216.222,342.204 217.817,341.606 "/>
  <polygon fill="#4C4C4C" points="214.029,334.03 214.029,335.625 216.82,337.818 218.016,337.419 "/>
  <polygon fill="#4C4C4C" points="214.029,328.847 214.029,330.123 216.262,331.877 217.219,331.558 "/>
  <polygon fill="#4C4C4C" points="216.023,326.056 216.023,327.332 218.255,329.086 219.212,328.767 "/>
  <polygon fill="#4C4C4C" points="219.013,342.802 219.013,344.397 222.601,347.986 224.196,347.188 "/>
  <polygon fill="#4C4C4C" points="219.611,336.822 219.611,338.416 223,341.805 224.395,341.008 "/>
  <polygon fill="#4C4C4C" points="221.206,331.638 221.206,333.233 223.997,335.426 224.794,334.828 "/>
  <polygon fill="#4C4C4C" points="222.801,327.651 222.801,329.246 225.592,331.439 226.389,330.841 "/>
  <polygon fill="#4C4C4C" points="226.788,345.593 226.788,347.188 230.376,351.375 232.37,351.375 "/>
  <polygon fill="#4C4C4C" points="226.987,341.207 226.987,342.802 230.576,346.989 232.968,347.188 "/>
  <polygon fill="#4C4C4C" points="228.183,337.021 227.785,338.616 231.373,342.802 233.367,342.802 "/>
  <polygon fill="#4C4C4C" points="228.782,331.638 228.383,333.632 232.171,338.217 235.36,339.613 "/>
  <polygon fill="#4C4C4C" points="230.376,329.046 230.376,330.357 233.324,333.796 234.962,333.796 "/>
  <polygon fill="#4C4C4C" points="226.389,349.78 226.389,350.919 228.952,353.909 230.376,353.909 "/>
  <polygon fill="#4C4C4C" points="217.418,354.166 219.013,354.166 212.833,349.381 212.633,350.976 "/>
  <polygon fill="#4C4C4C" points="217.817,356.757 219.412,357.156 214.428,352.77 214.228,354.365 "/>
  <polygon fill="#4C4C4C" points="218.813,360.545 220.209,360.146 215.424,356.558 215.424,357.954 "/>
  <polygon fill="#4C4C4C" points="217.219,361.143 219.81,365.33 220.409,364.532 218.614,361.343 "/>
  <polygon fill="#4C4C4C" points="277.624,334.429 277.624,336.024 281.213,339.613 283.605,340.011 "/>
  <polygon fill="#4C4C4C" points="277.624,329.046 277.624,330.641 281.213,334.23 283.605,334.628 "/>
  <polygon fill="#4C4C4C" points="285.399,339.014 285.399,340.609 288.988,344.198 291.38,344.596 "/>
  <polygon fill="#4C4C4C" points="284.602,333.831 284.602,335.426 288.19,339.014 290.583,339.413 "/>
  <polygon fill="#4C4C4C" points="284.801,328.648 284.004,330.243 289.586,335.027 291.779,334.23 "/>
  <polygon fill="#4C4C4C" points="285.997,324.661 285.2,325.857 291.181,331.837 293.174,331.439 "/>
  <polygon fill="#4C4C4C" points="285.2,318.481 284.801,320.075 288.788,324.86 290.583,324.461 "/>
  <polygon fill="#4C4C4C" points="277.624,317.683 277.226,319.477 281.213,323.664 283.007,323.664 "/>
  <polygon fill="#4C4C4C" points="277.624,324.063 277.226,325.657 281.611,330.243 282.808,329.445 "/>
  <polygon fill="#4C4C4C" points="269.65,322.667 269.65,324.262 271.843,326.654 274.235,327.053 "/>
  <polygon fill="#4C4C4C" points="270.647,328.847 268.853,329.246 271.444,331.638 273.837,332.037 "/>
  <polygon fill="#4C4C4C" points="269.849,316.088 269.65,317.448 271.245,319.187 273.184,319.278 "/>
  <polygon fill="#4C4C4C" points="271.843,313.098 270.048,313.062 272.64,315.4 274.58,315.49 "/>
  <polygon fill="#4C4C4C" points="272.279,308.313 272.042,309.927 273.936,311.993 276.239,312.101 "/>
  <polygon fill="#4C4C4C" points="278.621,312.699 276.827,312.663 281.213,318.191 282.554,317.683 "/>
  <polygon fill="#4C4C4C" points="286.795,314.294 285,314.258 289.387,319.785 292.322,323.066 292.472,320.938 290.079,318.769 "/>
  <polygon fill="#4C4C4C" points="279.855,309.31 279.618,310.924 281.512,312.99 283.815,313.098 "/>
  <polygon fill="#4C4C4C" points="283.244,308.911 283.007,310.525 284.901,312.592 287.204,312.699 "/>
  <polygon fill="#4C4C4C" points="287.63,309.709 287.393,311.323 292.277,316.379 294.58,316.487 "/>
  <polygon fill="#4C4C4C" points="293.997,310.077 293.427,311.605 297.142,317.574 299.371,318.162 "/>
  <polygon fill="#4C4C4C" points="297.187,309.877 296.617,311.406 300.331,317.374 302.561,317.963 "/>
  <polygon fill="#4C4C4C" points="301.396,308.833 300.479,310.183 302.675,316.862 304.702,317.961 "/>
  <rect fill="#4C4C4C" x="294.57" y="313.098" width="9.96793" height="1.19615"/>
  <polygon fill="#4C4C4C" points="293.374,315.69 303.342,315.69 304.538,317.085 295.766,317.085 "/>
  <polygon fill="#4C4C4C" points="290.383,309.709 290.184,311.068 291.779,312.808 293.718,312.898 "/>
  <polygon fill="#4C4C4C" points="284.004,342.802 283.804,344.162 286.595,347.098 289.132,347.786 "/>
  <polygon fill="#4C4C4C" points="276.229,347.786 283.605,351.973 281.611,349.58 277.824,347.786 "/>
  <polygon fill="#4C4C4C" points="279.219,351.973 286.197,355.96 284.602,353.368 281.013,351.574 "/>
  <polygon fill="#4C4C4C" points="281.213,355.76 288.39,359.748 286.596,357.555 283.007,355.561 "/>
  <polygon fill="#4C4C4C" points="283.605,359.947 288.39,362.516 287.343,360.794 284.713,359.548 "/>
  <polygon fill="#4C4C4C" points="285.399,363.536 290.383,366.304 289.137,364.781 286.507,363.536 "/>
  <path fill="#DEB95C" d="M52.3885 136.213c-4.04958,2.09027 -8.88293,6.13985 -11.5614,6.85815l-1.76343 -0.195874 0.195874 -0.979654 1.56756 -0.196158c3.46224,-8.46227 23.3768,-25.3709 46.4412,-30.9606 -24.0364,5.74044 -40.4966,15.0321 -47.8128,28.6092 1.39153,-11.6779 10.0735,-24.1878 52.7117,-31.9405 -11.2621,-0.323433 -20.8517,2.74819 -26.6616,4.51503 -14.8836,4.52523 -26.6227,12.1107 -27.6177,26.8376l-0.587906 0.392032c-3.9841,-37.2963 53.5609,-31.6792 72.6991,-36.6435l2.35134 -2.35134c-18.9102,3.06964 -44.1936,-0.382677 -57.0654,2.60561 -18.7217,4.34608 -29.5387,15.0497 -19.7484,34.0376l-0.392032 0.784063c-11.0251,-15.3179 -5.97317,-24.878 4.96573,-33.444 12.458,-9.75515 39.1743,0.371622 73.6118,-5.55109l2.72977 -2.56025c-38.7366,4.29477 -64.9146,-7.89931 -83.4889,6.70366 -14.3099,11.2504 -6.40177,25.9657 -1.25263,35.0997l8.33301 8.37383 4.31093 2.93925 -1.95931 -3.52715 -1.37169 -0.587906 -0.196158 -0.979654 1.56784 -0.195874c2.74337,-2.74337 6.66227,-5.09499 9.99355,-7.64221m154.549 -40.7886c-22.4881,-1.97688 -50.4808,-2.03017 -68.5857,-1.31754l-0.526961 1.54347 4.50681 1.17581 62.1176 1.95959 2.48825 -3.36132zm221.335 115.853c0.465733,0.624473 0.917008,1.25717 1.35241,1.89751 6.55059,-20.0917 -27.1588,-45.8997 -75.4044,-59.8575 -23.9295,-6.92306 -48.5221,-10.7918 -71.5057,-15.4327 7.24054,5.24041 108.839,15.91 142.378,61.0336 -21.7919,-20.1254 -65.7352,-39.835 -97.7812,-43.1099 36.4456,6.91569 100.569,35.6196 100.96,55.4689zm34.3332 -64.2997c1.56926,-0.447307 3.08126,-0.924378 4.53317,-1.43065 -71.4008,-24.8686 -96.7377,-0.911339 -234.604,-28.1526l3.65811 2.94633c58.2928,16.3488 166.788,12.5819 211.826,23.7104 -33.6898,-1.00658 -66.97,-2.32044 -98.5649,-4.89884l-1.37169 1.17553c35.9042,4.23666 74.9532,5.55449 114.523,6.6498zm6.19512 -66.0889c0.543685,-0.917292 1.05335,-1.83147 1.53184,-2.74025 -61.9385,31.6151 -174.098,39.8327 -233.098,31.879l-1.04117 0.515622c7.95742,5.04936 57.8852,7.89931 107.968,3.07503 43.274,-4.16892 82.8346,-12.0702 111.108,-24.8261 -27.5205,18.6905 -55.808,21.1003 -74.3792,25.5501l-1.06299 1.29572c45.8275,-6.29065 72.4797,-18.8532 88.9731,-34.7491zm-22.2143 -46.0715c1.37395,-1.19679 2.80318,-2.33008 4.30555,-3.39024 -6.46696,-0.414992 -19.7019,3.24936 -32.2557,15.0718 -23.1514,21.8035 -83.7216,56.5623 -173.233,52.515 -0.979371,0.642898 -1.43632,1.54658 -1.37169,2.71134 39.3778,0.910772 74.7119,-2.0194 105.273,-12.4223 64.393,-21.9192 65.5263,-40.0093 84.4104,-48.1275 -19.9874,14.9579 -24.6901,28.9361 -59.9619,44.8733l-0.195874 1.37169c35.3163,-12.4393 46.9225,-34.6765 73.0293,-52.6031zm-416.867 102.277c-10.6333,-3.36019 -15.8386,4.62076 -17.3217,8.68479l2.07298 -0.541701c4.76873,-8.92063 14.2384,-7.49197 16.9455,-0.996662l1.99332 0.199276 0 -3.3891 -3.69014 -3.9566z"/>
  <path fill="#BF9F4F" d="M95.8094 103.372c-36.8192,2.45651 -60.5441,7.30744 -60.4058,29.9038 -5.37421,-24.3967 17.8387,-30.4416 60.4058,-29.9038z"/>
  <path fill="#644D36" d="M33.0114 139.257l8.97109 11.9616c0.43115,4.02038 1.22882,6.94375 2.19288,9.36993l-0.598111 -7.77515 2.03839 2.16624 1.68151 5.46236 0.716315 -3.28677c8.1927,7.67169 20.0194,9.53093 30.4886,0.382677 14.5253,-12.6924 6.03751,-37.313 23.8862,-47.5866l5.18315 -4.7846 -7.37632 0.79767 5.78155 -0.199559 -1.59506 0.797386c-24.1379,6.13985 -24.3326,27.2279 -35.4966,38.4191 -4.80047,4.81238 -11.0129,7.0886 -21.7191,6.23736l0 -1.19622 -0.996945 0.797386 -0.199276 -1.59477 -2.39244 -0.199276 -0.598111 0.996662c-2.52539,-3.58838 -6.64526,-7.17676 -9.96775,-10.7654z"/>
  <path fill="#BF9F4F" d="M94.6132 112.543c-19.8697,9.36993 -14.6197,43.8591 -47.0486,39.473 10.8794,7.91008 20.761,4.57087 26.9141,-3.18047 8.99462,-11.3304 9.92778,-29.2445 20.1345,-36.2926z"/>
  <path fill="#BF9F4F" d="M98.2015 110.749c-13.1769,8.82539 -13.9246,26.7089 -20.535,36.3748 -5.55874,8.12835 -16.3012,16.1561 -31.2982,5.6897 16.613,14.5199 26.6729,8.58416 34.6881,-2.89049 8.27547,-11.848 5.1171,-28.9735 17.1451,-39.174z"/>
  <path fill="#644D36" d="M67.301 135.668c-10.101,8.57311 -16.1484,11.0976 -21.7301,10.5661 5.66221,3.11471 13.4039,-2.50214 21.7301,-10.5661z"/>
  <path fill="#DEB95C" d="M35.2043 144.839c-2.02847,0.883276 -3.48548,2.42391 -6.38363,2.8012 -3.46904,0.451276 -5.85695,3.33269 -7.02369,3.99515 -3.42199,1.94287 -3.98155,4.93966 -12.5093,4.96573 1.71411,-2.07978 4.92435,-2.22973 8.03934,-4.57569 4.26898,-3.21477 6.31106,-6.93043 12.6938,-7.58523 -5.71011,2.5577 -7.24196,4.22022 -9.96775,6.77821 4.80586,-3.20854 9.08561,-5.55931 15.1512,-6.37937z"/>
  <path fill="#DEB95C" d="M16.2108 168.9c9.71689,-4.51021 12.2703,-13 18.4056,-19.5001 -3.3497,1.8241 -4.90819,4.64315 -7.36215,6.96416l3.48208 -6.16848c-1.8635,1.14066 -4.64854,5.98706 -7.28249,10.046 -2.68016,4.13008 -6.49106,7.13679 -7.24309,8.65843z"/>
  <path fill="#DEB95C" d="M35.5119 159.846c-3.28592,3.14901 -4.1366,7.24961 -5.11059,7.33692 -1.64608,2.36325 -2.39669,4.22901 -4.93796,7.08917 3.54416,-0.335055 9.15931,-7.1555 10.0485,-14.4261z"/>
  <polygon fill="#DEB95C" points="37.8003,152.185 36.0094,156.065 37.4023,155.966 38.4965,153.28 "/>
  <polygon fill="#644D36" points="34.4174,147.808 34.5169,149.201 36.1089,149.002 37.4023,147.808 37.2033,147.111 "/>
  <polygon fill="#644D36" points="38.795,150.892 38.994,153.877 39.6904,153.877 39.9889,151.091 "/>
  <path fill="#DEB95C" d="M41.6804 155.767c0.0994961,5.60495 3.48208,10.2147 -0.895465,18.9031 4.2789,-2.76775 4.77638,-13.3467 0.895465,-18.9031z"/>
  <path fill="#644D36" d="M223.598 127.295l0.598111 -0.996945c68.3136,29.372 178.094,42.9951 203.146,80.9397 -29.6382,-36.2169 -135.63,-50.5043 -203.745,-79.9427z"/>
  <path fill="#DEB95C" d="M232.769 125.501l-3.18983 0.398835c11.2482,5.32715 29.4166,9.58394 46.052,14.7524 -16.8795,-6.84454 -30.3693,-9.90171 -42.8621,-15.1512z"/>
  <path fill="#644D36" d="M233.367 122.71l1.3955 0c24.9611,7.41459 41.6478,11.4202 59.8227,14.6925 22.3469,4.0235 63.6353,14.9865 159.87,9.6293 -23.3921,2.21017 -58.4538,5.10832 -95.3536,1.71666 -24.1985,-2.22435 -98.5632,-14.0329 -125.735,-26.0385z"/>
  <path fill="#644D36" d="M466.816 82.8386c-29.3284,48.2281 -172.05,46.7618 -231.854,33.2932l3.98041 -0.411874c62.9654,10.5114 143.186,10.3598 191.257,-8.72391 14.9227,-5.92385 27.9508,-14.6222 36.6163,-24.1574z"/>
  <path fill="#644D36" d="M241.336 108.838l0.897449 -0.897733c44.4351,1.49613 88.4719,0.997796 124.927,-11.6697 31.4484,-10.9273 51.2677,-28.5262 65.0821,-49.9711l3.29159 -2.99225c-10.2268,15.5548 -21.4158,33.016 -45.2809,44.7407 -41.2526,20.2666 -78.8227,24.6742 -148.917,20.7902z"/>
  <path fill="#DEB95C" d="M266.471 128.287l-36.2064 -7.77997c11.2201,4.28797 23.389,6.68155 36.2064,7.77997z"/>
  <path fill="#DEB95C" d="M277.243 104.648l-36.5057 -0.299339c9.77443,0.897449 21.9427,0.997229 36.5057,0.299339z"/>
  <path fill="#644D36" d="M241.336 98.6639c-6.22233,13.8526 -13.3101,20.7862 -20.3477,28.1274l2.0948 0.897733 1.19679 -2.6932 4.48838 1.19707 -2.69291 -2.0948 1.49613 -1.79518c7.92936,3.83925 17.5045,7.13112 27.828,10.1735 -9.87534,-3.69071 -19.2501,-7.3817 -27.529,-11.0713l1.19707 -2.09452 3.59065 0.598394 -2.69291 -2.39386 1.19679 -1.19679 2.39386 -0.598394 0 -1.19707 3.59065 -1.19679 -2.09452 -1.19707 0.897733 -2.09452 3.88999 -0.897733 -2.6932 -0.299055 0.897733 -1.19707 5.38611 -0.299055 -4.78772 -0.897733 0.598394 -0.598394 4.48838 -0.299339 -4.18904 -1.19707 5.38611 -0.897449 -3.88999 -0.598677 0.299339 -1.49613 2.69291 -0.299055 0 -2.09452 -2.69291 -0.299339z"/>
  <path fill="#DEB95C" d="M128.228 104.948l-1.79547 1.79518c24.5373,1.09672 46.082,4.08869 61.0424,7.48063l4.18904 -2.39358c-19.3,-4.14085 -40.9436,-5.93632 -63.436,-6.88224z"/>
  <path fill="#DEB95C" d="M135.709 99.2623l-1.19707 1.79547 54.1602 5.38611 8.07903 0.598394 2.6932 -2.99225c-21.3625,-2.05484 -41.728,-2.3675 -63.7353,-4.78772z"/>
  <path fill="#644D36" d="M137.504 94.1755l-23.0403 16.7567 2.99225 -0.299339 1.49613 -1.79518c26.8302,0.79767 48.8727,3.19068 66.1292,7.18129l0 -1.49613c-18.7016,-5.08791 -39.0492,-6.88309 -60.1447,-7.18129l2.39386 -2.6932c20.2972,0.69789 41.2427,2.69235 63.1369,6.5829l0 -1.49613c-17.8917,-2.81821 -37.9653,-4.76334 -59.8454,-5.98451l-1.49641 -0.897733 4.78772 0 -4.18904 -0.897449 1.79518 -0.598677 3.29159 0 0 -1.49613 0.897733 -0.897449 11.6697 1.19679 -0.598394 -1.19679 -10.7722 -0.598677 0 -0.897449 5.38611 0 -3.74995 -1.60781 -0.140032 -1.68378z"/>
 </g>
</svg>
