<?xml version="1.0" encoding="UTF-8"?>
<!DOCTYPE svg PUBLIC "-//W3C//DTD SVG 1.1//EN" "http://www.w3.org/Graphics/SVG/1.1/DTD/svg11.dtd">
<!-- Creator: CorelDRAW -->
<svg xmlns="http://www.w3.org/2000/svg" xml:space="preserve" width="500px" height="588px" shape-rendering="geometricPrecision" text-rendering="geometricPrecision" image-rendering="optimizeQuality" fill-rule="evenodd" clip-rule="evenodd"
viewBox="0 0 500 588"
 xmlns:xlink="http://www.w3.org/1999/xlink"
 xmlns:svg="http://www.w3.org/2000/svg"
 version="1.0">
 <g id="Layer_x0020_1">
  <metadata id="CorelCorpID_0Corel-Layer"/>
  <path id="path1937" fill="#0057F0" stroke="black" stroke-width="0.992126" d="M0.688819 0.7183l498.87 0 -0.182268 350.652c-34.3179,316.218 -464.275,313.187 -498.722,0l0.0342992 -350.652z"/>
  <path fill="#CCCCCC" d="M374.543 89.5173l-213.477 408.801c-11.8998,26.3676 -63.0542,1.15625 -50.6191,-24.3425l228.729 -403.424c15.8397,-0.722835 20.0109,-13.4195 19.7209,-22.538 -0.598961,-18.8734 17.1907,-21.7454 28.0032,-16.583 10.8128,5.16246 16.9399,25.8908 -1.95449,34.2751 -9.00879,3.9977 -15.9324,9.8983 -10.4026,23.8116z"/>
  <path fill="white" d="M353.132 75.8654l3.92882 1.96441 1.96441 2.94662 -7.85764 -4.91103 -0.982205 -0.982205 -0.982205 1.30961 1.63701 1.30961 -86.9349 156.253c-1.14435,1.83175 -4.3526,-0.758552 -3.43361,-1.58003l87.5693 -156.997 5.74583 -3.24142 1.96441 0.327402c-0.873071,1.20047 -3.07276,1.51654 -2.61921,3.60142m-123.006 210.27l1.91112 4.35373 -107.759 195.758c-1.32095,2.72268 -1.16787,5.88756 -1.0148,9.19985 -2.05228,-2.13817 -4.54677,-7.02822 -2.47181,-11.4265l109.335 -197.886z"/>
  <path fill="white" d="M397.063 47.3601c-0.521859,-6.87572 -4.75625,-13.3484 -10.1628,-15.9296 -10.8125,-5.16246 -28.6022,-2.29039 -28.0032,16.583 0.289984,9.11849 -3.8812,21.8152 -19.7209,22.538l-228.729 403.424c-4.34126,8.90164 -0.543969,17.4212 4.43566,23.0239 -1.88901,-4.20095 -3.63033,-7.81257 -2.12882,-10.3921 1.52787,3.75506 2.46614,6.08457 3.9943,6.69544 -2.82189,-3.07588 -1.99389,-11.9582 0.556441,-15.2898l226.66 -403.457 1.30961 -0.982205 3.27402 0.982205 -1.63701 -1.30961 0.654803 -1.30989 4.91103 -0.981922c16.9155,-13.8594 2.40066,-34.5952 20.2989,-38.6331l-0.327402 1.63673c-6.65745,5.3487 -8.62215,8.40445 -6.87544,19.9715 1.41874,-13.8597 6.1115,-20.7349 15.0605,-22.5907 7.2224,0.975119 14.9907,6.97068 16.4293,16.0214z"/>
  <path fill="#666666" d="M365.085 85.3983l-5.91279 -3.40696 1.15087 -0.864284 3.58214 2.23937 -0.0368504 -5.94255 1.54261 -0.282331 0.0946772 7.03106 2.58378 1.24724 -0.694772 -6.76715 3.48662 2.08913 0.835937 9.04564 -213.979 409.962c-6.444,13.3345 -37.3,8.40076 -42.3907,-6.6807 14.8544,12.5476 33.9035,14.1979 39.2193,3.92967l215.304 -408.843c-0.996662,-0.574583 -1.99389,-1.14945 -2.99084,-1.72375l-217.114 408.114c-4.42885,13.2491 -25.0903,7.22126 -25.42,-1.88079 7.20822,9.7509 19.4834,10.4593 25.0325,-2.87688l215.706 -404.391z"/>
  <path fill="#CCCCCC" d="M165.311 71.3727l224.852 402.438c13.7452,22.5607 -36.1715,52.488 -50.55,28.8853l-209.753 -413.598c7.94126,-13.7242 -1.81021,-21.4316 -9.64262,-26.1097 -16.2113,-9.68315 -11.1892,-25.2621 -1.00687,-31.5777 10.1823,-6.31559 25.5249,-3.36784 26.0243,17.4535 0.236126,9.8538 5.37931,19.6532 20.0764,22.5082z"/>
  <path fill="white" d="M141.389 34.8211c-5.30816,-7.71166 -15.0199,-7.85056 -22.1788,-3.41008 -10.1823,6.31531 -15.2045,21.8945 1.00687,31.5777l2.28047 -0.983339c-8.92971,-3.77065 -10.0843,-12.7375 -7.66489,-18.2778 0.663307,8.20574 2.67817,13.7092 10.0233,15.1824 -15.1741,-8.22615 -7.20652,-39.2995 16.5331,-24.0888zm-11.5294 54.2773c0.868536,-1.50095 1.52561,-2.93017 1.99644,-4.29137 9.32882,-3.80863 18.6576,-9.97569 27.9865,-14.9633 0.89263,0.33789 1.83345,0.643465 2.82359,0.914174l-21.9283 12.2587 217.384 410.764c1.74076,3.86476 -2.70936,5.07629 -4.06403,2.75017l-215.57 -412.257 -8.62867 4.824zm6.53188 -1.77392l211.862 410.709c3.50731,7.49934 -7.28334,7.1864 -8.64029,4.66243l-209.203 -412.513 5.98167 -2.85846z"/>
  <path fill="#666666" d="M155.381 76.5202l1.63701 -0.654803 224.27 405.978 0.876473 3.40753c0.981355,-0.507969 1.42243,-2.36721 1.61858,-4.84016l0.743811 1.62284c1.49698,14.5735 -21.2993,24.7 -34.3945,21.8305 12.2975,-1.24583 23.1208,-5.07232 30.7015,-14.5738l-1.7725 -5.6143 -223.681 -407.156z"/>
  <path fill="#666666" d="M160.619 72.9187l3.27402 -0.654803 225.58 404.669c2.27565,4.54649 1.98737,13.4175 -5.80309,20.7556 -9.75771,9.19163 -27.612,15.6844 -38.8369,7.97811 18.8266,3.79106 31.3645,-4.23666 37.5548,-11.8692 4.81436,-5.93603 5.73166,-10.76 3.15638,-15.2274l-224.925 -405.651z"/>
  <polygon fill="#666666" points="362.173,496.545 362.663,495.658 366.159,495.377 377.355,486.522 377.208,489.765 369.395,496.545 365.858,496.545 365.563,496.988 "/>
  <path fill="#666666" d="M134.29 31.788c6.22177,1.40939 10.1407,5.76199 9.2863,16.2142l0.88441 -0.147402 -0.147402 1.17921 -13.1187 6.92788c-2.67789,-1.40032 -4.74123,-3.41518 -5.45386,-6.78048 1.86718,1.81786 3.43956,3.04611 5.15906,4.56945 -0.392882,-3.1938 -3.14447,-6.09279 -4.71685,-9.1389 1.7691,0.786048 3.93137,3.14447 6.48567,7.07528l0.88441 0.442205c-0.612,-3.72132 -3.06907,-8.36476 -6.04347,-13.2661 1.94117,1.25915 4.59468,4.83307 8.10709,11.2025 0.467433,-2.99651 -0.66274,-7.2224 -5.30646,-14.1506 2.77625,2.01373 5.42892,5.25629 7.81229,11.2025 0.687969,-4.47137 -1.37594,-9.13947 -6.19087,-14.0032 3.53764,1.10438 6.58347,4.54366 8.5493,13.1187 1.08085,-5.60155 -0.982772,-10.417 -6.19087,-14.4454z"/>
  <path fill="#666666" d="M129.278 55.9619c-1.86718,-0.589607 -3.58696,-1.91622 -5.15906,-3.09543 -0.147402,1.52277 1.08028,3.04583 3.68504,4.56945l1.47402 -1.47402z"/>
  <path fill="#666666" d="M126.183 57.5844c-1.60101,-0.505701 -2.78079,-1.79065 -4.12895,-2.80177 -0.126425,1.30564 0.926363,2.61156 3.15978,3.91805l0.969166 -1.11628z"/>
  <path fill="#666666" d="M123.364 59.3751c-1.02387,-0.32315 -1.77846,-1.1452 -2.64076,-1.79178 -0.0807874,0.835087 0.592441,1.67046 2.0211,2.50583l0.619654 -0.714048z"/>
  <polygon fill="#666666" points="142.986,74.9767 153.305,68.7858 155.81,68.9332 155.516,70.1124 148.293,74.9767 146.671,75.2715 143.871,76.5981 "/>
  <polygon fill="#666666" points="139.007,76.5981 140.775,75.8611 141.955,76.4507 141.96,78.1441 140.628,78.9565 "/>
  <polygon fill="#666666" points="134.29,79.5462 134.437,82.052 135.911,82.1994 136.059,80.1358 138.712,79.6936 138.564,78.0721 135.469,78.6617 "/>
  <path fill="#CCCCCC" d="M65.3454 159.025c-0.109134,-34.5955 62.3155,-37.1055 65.4803,0.327402l7.20284 205.608c0.873071,40.0521 -83.7057,41.1435 -79.886,0.327402l7.20284 -206.263z"/>
  <path fill="#0057F0" d="M97.8078 154.131c7.36611,0 13.3398,3.84832 13.3398,9.1389 0,5.29059 -5.53153,10.1707 -12.8976,10.1707 -7.36611,0 -14.0769,-4.88013 -14.0769,-10.1707 0,-5.29059 6.26854,-9.1389 13.6347,-9.1389z"/>
  <path fill="#666666" d="M108.562 136.762l0.327402 19.3167c2.11663,1.59279 3.06992,4.35062 4.25622,6.87544 0.113102,-2.28926 -0.102898,-4.79792 -2.61921,-8.83985l1.42753 -8.27235 1.78951 -5.51764 3.33099 -1.92529 -8.51245 -1.63701z"/>
  <path fill="white" d="M127.099 147.173c-14.0675,-24.1234 -61.8486,-18.4181 -61.7534,11.8528l-7.20284 206.263 1.96441 1.96441 0 4.58362c-0.54567,3.60114 5.12958,3.27373 5.23843,0l6.22063 -212.484c-0.000283465,-7.20284 4.14681,-15.7153 7.53024,-17.6797 -4.14709,6.54803 -6.1115,11.6773 -5.89323,18.3345l-4.25622 211.502c-0.327402,7.53024 6.87544,5.89323 5.89323,0l3.60142 -210.192c-0.218268,-9.16725 3.05575,-14.8422 9.82205,-17.0249l21.2811 -7.85764 7.20284 1.63701 0 2.61921 6.54803 5.23843 3.80325 1.24328z"/>
  <path fill="#CCCCCC" d="M144.903 49.3288c4.46514,-2.04038 6.62627,-0.0881575 9.82035,6.37484 2.52255,5.10378 4.28088,9.7903 1.23477,11.0186 -49.9723,24.3853 -47.9106,48.1221 -46.8737,89.915 -1.42469,10.8094 -21.5697,9.08958 -21.0784,1.47402 -1.2223,-62.0124 14.3753,-89.3509 56.897,-108.782z"/>
  <path fill="#666666" d="M87.2813 171.794c-9.11452,-5.0743 -7.58637,-16.6425 0.654803,-20.6263l0.327402 3.92882c-7.20312,3.16517 -7.20284,9.3858 -0.982205,16.6975z"/>
  <path fill="white" d="M153.289 53.0025c-2.49137,-4.27408 -4.61877,-5.39518 -8.38602,-3.6737 -42.5217,19.4315 -58.1193,46.77 -56.897,108.782 -0.191622,2.97468 2.7652,5.04992 6.52507,5.83002 -2.18495,-1.03181 -4.46967,-2.03953 -5.05106,-3.47159 -0.11452,-62.8614 8.31799,-87.7851 57.9288,-110.699 2.25468,-0.544252 3.92003,2.15433 5.88019,3.2315z"/>
  <path fill="#666666" d="M89.7744 158.553l0 1.03181c-0.344126,4.07792 18.4742,4.17657 17.983,-1.91622l0.442205 -25.6479 -1.32661 0 -0.147402 12.0869 -0.589607 1.03181 -0.294803 12.5291 -0.147402 1.32661 -0.88441 -2.65323 -0.442205 -8.6967 -1.47402 0.737008 0.737008 10.3181 -1.76882 0.442205 -0.589607 -10.4655 -1.47402 0.294803 -0.147402 9.87591 -2.21102 0.589607 -0.147402 -8.9915 -1.47402 -1.91622 0.147402 11.0551 -1.62142 0 -0.589607 -1.47402 -0.294803 -7.95969 -0.737008 0 -0.737008 5.15906 0 3.53764 -2.21102 -0.294803z"/>
  <path fill="#666666" d="M120.581 86.3266l2.35843 2.35843c3.23036,-6.00605 16.9141,-14.3345 31.8388,-22.5525 1.52277,-1.03153 2.06306,-3.43871 1.17921,-5.45386l-6.19087 -10.7603 -2.06362 0.88441 1.47402 2.21102 -4.56945 3.09543 -1.03181 1.76882 5.60126 -2.21102 2.35843 0.147402 -0.294803 1.03181 -7.51748 4.71685 1.17921 0.737008 7.37008 -3.09543 0.294803 0.88441 -7.51748 5.30646 1.76882 0.147402 6.19087 -3.09543 0 1.47402c-10.8096,7.46844 -22.9456,13.0207 -32.4284,22.4051z"/>
  <path fill="#CCCCCC" d="M108.347 75.2715c-9.23726,-5.35578 -17.3441,3.68447 -11.9395,13.8558 -7.76268,-0.639213 -12.1357,8.15585 -5.60126,16.6564 -6.768,-1.48989 -11.6396,12.7709 -2.06362,18.2778l19.8992 8.8441c7.46816,0.491244 9.63015,-11.6941 4.71685,-14.8876 9.87591,-0.687969 8.5493,-8.74602 5.74866,-14.4454 10.5636,-0.393166 8.59834,-9.33563 4.71685,-14.8876l-15.4772 -13.4136z"/>
  <path fill="white" d="M89.4796 122.44l0.357166 2.10756 -1.09417 -0.486142c-9.576,-5.50687 -4.70438,-19.7677 2.06362,-18.2778 -6.53443,-8.50054 -2.16142,-17.2956 5.60126,-16.6564 -5.40454,-10.1713 2.70227,-19.2115 11.9395,-13.8558l10.0168 8.68111 1.33313 2.81622 -10.9077 -8.9915c-11.9395,-6.28923 -14.8876,8.30382 -7.07528,13.7084l8.9915 8.25449 -10.0233 -7.22268c-9.49578,-3.63572 -13.3036,6.19115 -6.48567,14.298l15.6246 9.72851c-4.86737,-1.15143 -9.9224,-3.61418 -15.1824,-7.51748 -8.16889,-2.05087 -11.4364,8.14451 -5.15906,13.4136z"/>
  <path fill="#666666" d="M101.419 88.8325l-2.21102 -0.147402c4.34778,4.44643 9.55588,8.77011 16.6564,12.8239 8.35229,2.30939 12.8727,-2.40775 7.37008,-11.9395l-1.47402 0 0 2.06362c-2.50583,0.589607 -6.19087,-1.76882 -9.2863,-2.65323 2.92309,2.53021 6.21468,4.44643 10.3181,5.01166 -5.84731,2.0143 -11.6943,-0.639213 -17.5408,-6.48567l0.147402 1.47402c3.04583,3.53736 7.86104,6.68155 14.4454,9.43371 -5.9332,-0.479622 -12.1,-3.9926 -18.4252,-9.58111z"/>
  <path fill="#666666" d="M94.4913 103.425l-2.21102 -0.147402c4.34778,4.44643 10.4403,8.77011 17.5408,12.8239 8.35229,2.30939 12.7253,-3.73436 7.22268,-13.2661l-1.47402 0 1.17921 2.80063c-3.09543,0.737008 -8.6967,-2.21102 -11.7921,-3.09543 2.92309,2.53021 5.03547,5.33084 9.2863,6.33827 -5.14659,1.54687 -10.7728,-1.99106 -17.0986,-7.51748l0.147402 1.47402c3.04583,3.53736 9.04026,7.12375 15.6246,9.87591 -5.7858,-0.0374173 -12.1,-3.6978 -18.4252,-9.2863z"/>
  <path fill="#666666" d="M89.4796 120.082l-2.21102 -0.147402c5.23219,7.39446 9.70328,7.7383 16.8038,11.4973 12.138,3.9104 11.9795,-11.3567 7.22268,-12.5291l0.88441 2.50583c-2.50583,0.589607 -7.51748,0.442205 -10.6129,-0.442205 2.92309,2.53021 6.36208,2.3828 10.4655,2.94803 -2.3091,2.2354 -8.64766,2.3332 -17.246,-3.68504l0.147402 1.47402c3.34063,2.94775 8.15585,4.02832 14.5928,6.04347 -6.06955,0.202677 -13.9822,-0.774426 -20.0466,-7.66489z"/>
  <polygon fill="white" points="84.3347,169.83 84.6621,377.075 87.2813,377.075 86.2991,170.812 "/>
  <path fill="#666666" d="M112.491 170.812l2.94662 203.971c-11.7859,7.58637 -26.4098,6.49446 -38.306,0.654803 7.37292,9.991 40.5556,7.92397 43.5444,-5.23843l-2.94662 1.96441 -4.36791 -196.774 -0.87052 -4.57796z"/>
  <path fill="#666666" d="M110.199 371.509c-6.00265,2.83748 -12.005,3.92882 -18.0071,3.27402 4.25566,3.1663 14.5142,1.63871 18.0071,-3.27402z"/>
  <path fill="#666666" d="M136.719 362.669c2.51008,33.8315 -60.7876,41.1435 -74.6476,15.3879 29.1388,23.2455 69.4092,3.92882 69.7366,-5.89323l-3.60142 0.982205c-9.6996,18.267 -54.1443,16.439 -60.8967,3.60142 7.1949,5.06977 16.9861,8.0487 29.0438,6.62287 13.2752,-1.56954 24.7635,0.0924095 28.9063,-9.89689l-1.30961 -5.89323 0.654803 1.30961 -4.58362 -208.228c0.284032,-9.71235 -4.16155,-12.2227 -7.85764,-16.3701 6.22092,1.74614 9.3858,7.85764 9.49465,18.3345l5.89323 201.352c-0.654803,5.89323 4.58362,10.8043 4.91103,0l-6.22063 -203.316c0.110268,-8.62186 -4.58249,-14.8425 -11.4591,-19.9715 6.15515,3.64932 14.3742,5.57944 15.0605,26.5195l6.87544 195.459z"/>
  <path fill="white" d="M111.836 165.573c-2.34595,7.25896 -11.8406,10.5327 -20.2989,7.53024 8.29418,3.81997 18.6619,0.982205 20.2989,-7.53024z"/>
  <path fill="#CCCCCC" d="M370.365 161.317c-0.436536,-31.9762 64.9347,-40.0521 65.4803,0.327402l5.89323 205.608c0.873071,40.0521 -83.1161,40.7013 -79.2964,-0.114803l7.92284 -205.821z"/>
  <path fill="#0057F0" d="M403.155 156.423c7.36611,0 14.6495,4.17572 14.6495,9.4663 0,5.29059 -6.18633,11.1529 -13.5524,11.1529 -7.36611,0 -14.4043,-5.53493 -14.4043,-10.8255 0,-5.29059 5.94114,-9.79371 13.3073,-9.79371z"/>
  <path fill="#666666" d="M414.795 135.878l0.0325984 24.4247c3.14844,-0.191622 3.4611,2.4188 4.6474,4.94362 0.112819,-3.19833 -1.08567,-7.51578 -3.60142,-9.82205l0.592725 -7.74794 1.31471 -5.05985 1.69399 -4.2171c-0.970867,-1.0372 -2.53077,-1.87767 -4.68,-2.52142z"/>
  <path fill="white" d="M420.385 137.355l1.31641 3.61418c1.62936,1.71468 5.88983,2.28388 7.93985,6.15544l3.13143 1.03068c-2.89899,-4.9714 -7.27229,-8.53739 -12.3877,-10.8003zm-26.8812 -1.38983c-12.8205,3.61616 -23.3637,11.9483 -23.4666,27.3169l-7.59544 203.856 1.96441 1.96441 0 4.58362c-0.54567,3.60114 5.12958,3.27373 5.23843,0l6.94063 -209.422c-0.000283465,-7.20284 5.75122,-16.5827 9.13465,-18.5471 -4.14709,6.54803 -6.7337,11.8899 -6.51544,18.5471l-5.95843 209.095c-0.327402,7.53024 6.87544,5.89323 5.89323,0l4.32142 -209.75c0.329103,-8.803 5.20158,-13.4107 9.82205,-17.0249"/>
  <path fill="#666666" d="M394.251 176.806c-10.0052,-4.53997 -9.54511,-19.9772 -0.229606,-24.6062l0.0325984 6.43465c-7.66772,0.453827 -7.66829,10.1174 0.197008,18.1715z"/>
  <polygon fill="white" points="390.125,174.547 389.126,378.254 391.745,378.254 392.09,175.529 "/>
  <path fill="#666666" d="M417.987 173.76l0.735591 206.477c-3.17934,2.55628 -9.47254,2.60873 -15.6654,2.60447 -9.66133,-0.00680315 -19.7136,-1.63276 -22.1984,-5.48731 2.09707,5.52246 12.4469,6.81846 22.5179,6.91767 9.76054,0.096378 19.2609,-0.813544 20.7318,-7.29185l-2.79921 2.40662 -2.45169 -201.049 -0.87052 -4.57796z"/>
  <path fill="#666666" d="M413.484 375.194c-6.00265,3.94299 -12.1527,3.26523 -18.1545,1.3578 4.25537,4.00139 14.6614,4.29166 18.1545,-1.3578z"/>
  <path fill="#666666" d="M440.429 364.961c2.65748,34.8633 -61.3772,41.1435 -73.6158,12.145 21.8378,26.4776 66.6871,11.0135 67.5255,2.21386l-1.98 -0.934016c-9.10971,17.8739 -52.6697,12.5082 -60.0123,0.0637796 7.1949,5.06977 15.7235,8.2012 27.8646,8.09689 11.0636,-0.0952441 26.0901,1.56643 27.5797,-10.4865l-0.130394 -6.18803 0.654803 1.30961 -3.27402 -208.228c0.284032,-9.71235 -4.16155,-12.2227 -7.85764,-16.3701 6.22092,1.74614 9.3858,7.85764 9.49465,18.3345l3.99402 208.28c-0.117071,6.59481 1.13414,1.45758 2.31109,1.36743 1.17695,-0.0901418 1.98425,5.6041 2.15773,-2.54665l-3.87921 -209.065c0.110268,-8.62186 -5.0247,-17.3483 -11.9013,-22.4773 6.15515,3.64932 14.8164,8.08526 15.5027,29.0254l5.56583 195.459z"/>
  <path fill="white" d="M418.165 169.502c-2.34595,7.25896 -12.168,9.87789 -20.6263,6.87544 8.29418,4.14737 18.9893,1.63701 20.6263,-6.87544z"/>
  <path fill="#CCCCCC" d="M358.502 49.9836c-4.35118,-2.27084 -5.73959,0.432284 -9.82035,6.37484 -3.50447,5.1035 -5.59049,8.8081 -0.907371,11.0186 49.9723,24.3853 45.3892,51.8227 46.5633,91.9942 -0.666426,6.73512 3.03052,7.0577 9.20722,7.00611 5.33254,-0.044504 10.7977,-2.04775 10.5446,-5.9743 2.76775,-61.4716 -11.1776,-87.2414 -55.5874,-110.419z"/>
  <path fill="#666666" d="M139.544 496.109c-5.83796,1.88079 -9.82262,-0.252 -12.9651,-4.20945l1.52589 0.126992c3.82281,3.18416 7.19689,4.12384 10.1222,2.81877l1.31698 1.26369z"/>
  <path fill="#666666" d="M290.411 245.394c-16.2768,14.7342 -30.8696,-6.36945 -38.7269,-19.5319l25.2567 45.9672 13.4702 -26.4354z"/>
  <path fill="white" d="M370.156 50.0006c0.546236,-6.2212 3.27458,-11.1322 8.18504,-14.7331 -6.22035,2.29153 -8.9487,7.20255 -8.18504,14.7331z"/>
  <path fill="#666666" d="M366.605 53.602l1.04145 1.31273c4.26955,3.10422 9.3824,6.70451 14.2968,9.16413 8.66552,-1.40854 16.6076,-10.6081 12.0444,-22.9975 0.500032,11.649 -4.7007,17.8115 -11.0622,20.0509l0 -1.63701c7.05232,-4.10627 9.70045,-11.4304 7.85764,-20.2989 -0.0668977,13.7608 -7.71648,19.1693 -11.7865,19.3167 5.472,-4.25027 8.66552,-9.41131 8.18504,-16.0427 -2.17814,8.71796 -7.55518,14.7623 -10.5265,15.2093 1.17071,-3.84945 3.97843,-8.443 5.94284,-12.5901 -2.40095,2.34822 -5.79402,7.97018 -8.69103,11.9551l-1.45843 -0.496063c0.119055,-2.57953 1.52787,-5.4567 2.29181,-8.18504 -2.26205,1.93465 -3.23433,6.54803 -4.20662,6.69685l-3.92882 -1.45843z"/>
  <path fill="white" d="M394.306 157.964l1.76882 -1.91622 0 -19.457 -2.23257 0.147685c0.239811,6.6447 0.25937,13.6681 0.45411,21.1337 0.0127559,0.498047 0.0269291,0.997796 0.0413858,1.49924m-6.63733 -89.7486c-7.75503,-7.14274 -17.4022,-13.4827 -29.1983,-19.639 -4.3509,-2.27084 -5.73959,0.432284 -9.82035,6.37484 -2.84712,4.14652 -4.75796,7.36952 -2.86271,9.61796l1.17099 -1.61263 6.78048 4.27465 2.06362 0 -6.92788 -5.30646 0 -1.32661 1.03181 -0.147402 4.12725 2.80063 2.50583 -0.147402 -6.19087 -3.83244 1.17921 -1.76882 6.92788 3.97984 0.294803 -1.47402 -6.04347 -4.71685 0 -1.03181 1.03181 -0.294803 6.19087 3.53764 1.76882 -0.737008 -6.92788 -4.86425 -0.147402 -1.03181 1.91622 -0.294803c6.38731,2.35843 16.1158,8.25449 29.1855,17.6882l1.94372 -0.0476221z"/>
  <path fill="#666666" d="M348.936 67.949c13.9133,6.92051 23.4885,14.0919 30.0946,21.7344l2.74649 -2.91458c-12.3432,-9.66189 -22.4016,-15.408 -31.9862,-20.3414l-0.85493 1.52164zm65.4149 84.8107c0.242929,-10.7683 -0.0994961,-20.3746 -1.11373,-29.0257l-2.27452 1.94882 0.88441 32.5758 -0.442205 1.76882 -1.32661 0 -0.442205 -13.4136 -1.17921 0.442205 0 7.07528 -0.737008 2.21102 0 5.60126 -1.32661 0.147402 -0.294803 -12.6765 -1.32661 0 -0.294803 12.6765 -2.06362 0 0 -12.2343 -0.88441 0.147402 0.147402 4.56945 -0.737008 2.06362 -0.147402 4.71685 -1.62142 0.147402 0 -9.2863 -0.737008 0.147402 -0.147402 2.50583 -0.589607 0.88441 0.147402 5.89607 -2.94803 -0.589607c0.692504,4.47931 12.4486,5.46322 16.7511,1.77619 2.20706,-1.89128 2.59795,-5.68574 2.70397,-10.0758z"/>
  <path fill="#666666" d="M368.806 63.1846l-0.88441 1.47402c5.01137,2.13704 10.023,5.23248 15.035,9.72851l1.32661 -0.147402c-5.15906,-4.71685 -3.09543,-5.60126 -15.4772,-11.0551z"/>
  <path fill="#666666" d="M369.69 67.1644l-3.39024 0.294803c5.01137,2.13704 8.10681,4.05326 13.1187,8.5493l1.32661 -0.147402c-3.83244,-3.24284 -4.27465,-5.89607 -11.0551,-8.6967z"/>
  <path fill="#666666" d="M365.563 68.9332l-2.21102 0.294803c5.01137,2.13704 9.87563,5.08507 14.8876,9.58111l1.32661 -0.147402c-3.83244,-3.24284 -7.22268,-6.92788 -14.0032,-9.72851z"/>
  <path fill="#666666" d="M363.794 71.2917l-2.21102 0.294803c5.01137,2.13704 9.87563,5.08507 14.8876,9.58111l1.32661 -0.147402c-3.83244,-3.24284 -7.22268,-6.92788 -14.0032,-9.72851z"/>
  <path fill="#CCCCCC" d="M393.566 75.2715c9.38467,-6.09279 17.3441,4.27408 11.9395,14.4454 7.76268,-0.639213 12.7253,9.18766 6.19087,17.6882 5.88359,-0.310677 12.8188,11.8865 2.65323,17.0986l-21.0784 9.43371c-7.46816,1.67046 -9.92495,-10.3674 -3.97984,-13.7084 -11.2986,-3.38967 -9.57969,-8.74574 -4.42205,-14.1506l-1.21975 -0.551906c-11.4832,1.20558 -9.26023,-9.92863 -5.56073,-15.2201l15.4772 -15.035z"/>
  <path fill="white" d="M400.279 73.5469c-2.01175,-0.313512 -4.31575,0.168662 -6.71244,1.7246l-15.4772 15.035c-3.63884,5.2047 -5.72287,15.592 4.31377,15.251l0.25852 -1.39521c-3.61162,-1.71893 -5.38073,-5.15849 -3.09543,-12.3817 6.90435,-5.93065 12.9243,-15.1039 20.7128,-18.2336zm-10.9871 46.6821c-5.01591,2.81877 -4.05071,11.8295 0.859182,13.5726l2.53389 -0.896032c-4.12725,-0.540567 -5.30646,-7.86161 -2.21102,-10.0233 6.28895,-4.17657 14.4944,-8.35285 18.8674,-13.8558l-20.0495 11.2025zm-4.42205 -14.0032c-4.51276,4.72904 -6.46186,9.10092 0.763937,12.6119l1.59732 -0.377575c-4.32312,-3.44041 -4.51871,-6.87997 -0.589607,-10.3181 8.45717,-6.20929 14.2424,-11.5285 16.8038,-15.772 -6.43777,4.94419 -12.2845,10.5786 -18.5754,13.8558z"/>
  <path fill="#666666" d="M397.254 75.4189l-0.147402 1.17921 2.21102 -0.147402c-1.36375,3.89367 -3.8931,7.55348 -7.22268,11.0551l0 1.03181 1.03181 -0.147402 6.19087 -5.89607 -0.147402 2.21102c-3.93052,4.12725 -7.12432,7.95969 -11.7921,12.3817l1.76882 0 10.0233 -9.43371 0 1.91622c-5.01166,5.5029 -10.3181,13.2168 -17.246,11.6447 5.18117,5.41134 15.8672,-5.43487 21.5629,-12.9124 3.60737,-4.73584 1.74728,-13.4838 -6.23311,-12.8829z"/>
  <path fill="#666666" d="M405.214 91.7805l1.47402 0.589607c-1.36375,3.89367 -4.18791,6.66907 -7.51748,10.1707l0 1.03181 1.03181 -0.147402 8.10709 -8.40189 0 2.50583c-3.54501,5.33906 -8.28312,9.99071 -13.2661,13.8558l1.62142 0.147402 12.3817 -11.6447 0 1.91622c-5.01166,5.5029 -12.0869,14.396 -23.1421,13.561 5.18117,5.41134 19.2577,-3.66633 24.9531,-11.1436 3.60709,-4.73556 2.33688,-13.0416 -5.6435,-12.4407z"/>
  <path fill="#666666" d="M409.783 109.174l0.147402 2.06362 2.06362 0.294803c-1.06895,2.86186 -6.54633,7.25868 -9.72851,9.58111l2.35843 0.294803 8.9915 -8.9915 1.03181 1.17921c-3.04583,4.56917 -11.3,11.2513 -17.8356,14.1506l1.62142 0.147402c6.92788,-2.89928 12.0869,-6.38788 15.4772,-10.4655l0.147402 1.76882c-7.81229,8.45093 -21.0784,16.0175 -22.6999,8.25449 -2.33632,11.3074 18.0502,-0.757985 24.8057,-5.5423 4.69021,-3.32164 1.59987,-13.3364 -6.38051,-12.7355z"/>
 </g>
</svg>
