<?xml version="1.0" encoding="UTF-8" standalone="no"?>
<!-- Creator: CorelDRAW -->
<svg
   xmlns:dc="http://purl.org/dc/elements/1.1/"
   xmlns:cc="http://creativecommons.org/ns#"
   xmlns:rdf="http://www.w3.org/1999/02/22-rdf-syntax-ns#"
   xmlns:svg="http://www.w3.org/2000/svg"
   xmlns="http://www.w3.org/2000/svg"
   xmlns:sodipodi="http://sodipodi.sourceforge.net/DTD/sodipodi-0.dtd"
   xmlns:inkscape="http://www.inkscape.org/namespaces/inkscape"
   xml:space="preserve"
   width="500px"
   height="572px"
   shape-rendering="geometricPrecision"
   text-rendering="geometricPrecision"
   image-rendering="optimizeQuality"
   fill-rule="evenodd"
   clip-rule="evenodd"
   viewBox="0 0 500 572"
   version="1.0"
   id="svg2"
   sodipodi:version="0.32"
   inkscape:version="0.46"
   sodipodi:docname="Tohmajärvi.vaakuna.svg"
   inkscape:output_extension="org.inkscape.output.svg.inkscape"><metadata
   id="metadata14"><rdf:RDF><cc:Work
       rdf:about=""><dc:format>image/svg+xml</dc:format><dc:type
         rdf:resource="http://purl.org/dc/dcmitype/StillImage" /></cc:Work></rdf:RDF></metadata><defs
   id="defs12"><inkscape:perspective
     sodipodi:type="inkscape:persp3d"
     inkscape:vp_x="0 : 286 : 1"
     inkscape:vp_y="0 : 1000 : 0"
     inkscape:vp_z="500 : 286 : 1"
     inkscape:persp3d-origin="250 : 190.66667 : 1"
     id="perspective16" /></defs><sodipodi:namedview
   inkscape:window-height="669"
   inkscape:window-width="640"
   inkscape:pageshadow="2"
   inkscape:pageopacity="0.0"
   guidetolerance="10.0"
   gridtolerance="10.0"
   objecttolerance="10.0"
   borderopacity="1.0"
   bordercolor="#666666"
   pagecolor="#ffffff"
   id="base"
   showgrid="false"
   inkscape:zoom="0.80769231"
   inkscape:cx="250"
   inkscape:cy="286"
   inkscape:window-x="115"
   inkscape:window-y="63"
   inkscape:current-layer="svg2" />
 <g
   id="Layer_x0020_1">
  <metadata
   id="CorelCorpID_0Corel-Layer" />
  <path
   id="path1937"
   fill="#B2B2B2"
   stroke="black"
   stroke-width="0.368504"
   d="M-0.162142 0.159591l500.092 0.293953 0.116504 369.603c-31.2409,120.423 -114.353,196.747 -249.195,201.4 -128.841,-3.5348 -219.006,-68.0964 -250.77,-202.157l-0.24378 -369.14z"
   style="fill:#cccccc;stroke-width:1;stroke-miterlimit:4;stroke-dasharray:none" />
  <path
   fill="black"
   stroke="black"
   stroke-width="1.98425"
   d="M31.6826 266.08l415.205 0 0 52.2355c-61.6527,2.51121 -121.556,38.312 -121.909,74.7598 -0.184819,19.0916 13.8949,45.2954 54.9408,51.141l0 61.6111 -259.838 0 0 -56.2536c32.5914,-11.6079 55.7263,-3.17339 58.9323,-52.2355 3.20599,-49.0621 -114.739,-45.5386 -147.331,-131.258z"
   id="path7" />
  <path
   fill="#F00000"
   stroke="#E60000"
   stroke-width="2.83465"
   d="M94.633 66.583c-21.5345,54.2172 38.6328,44.055 55.9403,78.1541 8.6743,-24.9324 -33.5472,-28.4049 -2.10331,-70.7732 -2.05285,49.4822 14.0859,28.031 26.7253,50.0032 9.83084,17.0895 -23.3805,18.3892 40.0105,59.2132 -35.6219,-72.7611 18.4941,-75.7781 -14.4488,-104.278 41.0596,0.421795 12.4719,33.0336 30.7624,45.5267 16.1192,-22.0275 1.43291,-36.0077 0.140598,-52.67 0.269008,-9.04848 27.3254,-18.0967 8.84325,-55.3111 37.1095,21.4673 15.3043,35.1428 16.0637,54.9284 -2.11153,17.585 21.4041,16.1736 9.47651,56.7162 22.3416,-18.6849 -2.19487,-44.0756 37.5588,-57.3957 -40.6281,33.9078 19.1965,47.6966 -12.0558,103.064 44.343,-18.974 26.6905,-40.7934 38.2924,-46.6801 14.8456,-17.1332 33.4381,-20.681 36.2937,-42.8332 14.4899,43.5002 -25.9342,42.7402 -12.7834,62.0986 13.1281,-26.0986 66.4376,-10.6189 59.4754,-78.2961 43.1584,54.4808 -23.5117,76.7716 -31.2494,95.0392 17.3061,-3.55578 33.2728,-29.9123 51.9185,9.45156 -38.8418,-15.6478 -50.8961,47.8375 -72.326,57.6732 -58.0394,-2.2354 -66.5221,7.60054 -81.7016,33.531l-54.9142 0c-27.6803,-49.6259 -76.7906,-21.4597 -103.132,-44.2607 -20.537,-21.46 -2.23228,-42.9197 -53.5748,-60.3559 8.25308,-2.30315 23.2401,-10.8533 44.9297,-0.176599 -5.60098,-29.8956 -64.7768,-28.9426 -18.1423,-92.3687z"
   id="path9" />
 </g>
</svg>