<?xml version="1.0" encoding="UTF-8"?>
<!DOCTYPE svg PUBLIC "-//W3C//DTD SVG 1.1//EN" "http://www.w3.org/Graphics/SVG/1.1/DTD/svg11.dtd">
<!-- Creator: CorelDRAW -->
<svg xmlns="http://www.w3.org/2000/svg" xml:space="preserve" width="500px" height="569px" shape-rendering="geometricPrecision" text-rendering="geometricPrecision" image-rendering="optimizeQuality" fill-rule="evenodd" clip-rule="evenodd"
viewBox="0 0 500 569"
 xmlns:xlink="http://www.w3.org/1999/xlink"
 xmlns:svg="http://www.w3.org/2000/svg"
 version="1.0">
 <g id="Layer_x0020_1">
  <metadata id="CorelCorpID_0Corel-Layer"/>
  <path id="path1937" fill="#006F00" stroke="#006F00" stroke-width="0.510236" d="M0.262772 0.523276l499.262 0.169795 -8.84948 341.19c-28.4916,303.967 -455.953,299.867 -482.999,-0.314079l-7.41345 -341.046z"/>
  <path fill="#CCCCCC" stroke="black" stroke-width="0.216" d="M79.3046 191.909c2.29947,-7.34939 10.7484,-4.93767 22.4124,-5.5783 2.80347,-0.153921 5.67185,-1.05987 8.59295,-1.39776 4.86936,-0.563244 9.88838,-0.644315 15.008,-1.06299 11.7658,-0.962079 6.69912,-3.7029 28.008,-4.17062 10.7558,-20.3017 18.7211,-23.3904 31.5627,-34.8041 5.42211,-4.8189 4.42092,-9.25881 13.8858,-14.8623 5.85355,-3.46564 13.2228,-3.69666 20.0203,-5.16019 5.45698,-1.17496 7.34145,-6.96558 16.3026,-6.41537 7.21616,11.363 8.28114,25.8018 10.5764,48.8523 5.93178,-15.3683 23.0876,-43.8959 34.7746,-58.4416 12.5311,11.5231 47.5144,13.2052 52.0489,25.3434l-3.31002 -0.310677c4.55726,2.76406 -0.58167,7.60649 12.2998,26.8376 18.3665,27.4201 47.3718,53.9428 5.41191,74.3911 -7.26265,1.59931 -7.45144,7.812 -10.7155,9.4116 -7.17563,7.78706 -21.7327,7.27002 -19.6812,11.3664 22.983,56.0526 26.2823,54.2843 10.8204,62.6655 4.65307,21.4401 5.92243,40.6247 5.65455,58.7843 16.1759,13.2823 24.0735,31.4351 26.3069,52.92 11.3111,10.603 18.0074,23.5131 14.5525,41.5004l2.57017 4.62359c-12.9305,21.9648 -28.5268,31.2684 -48.0184,22.068 1.8017,-1.87342 3.09062,-4.25906 3.25247,-7.77232 -16.8528,-24.179 -27.739,-47.6765 -37.9933,-71.032 -17.3393,-16.5005 -10.2881,-24.2238 -13.8739,-37.8218 -2.87887,-10.9162 -8.77267,-1.84139 -14.5259,-27.5358 -8.60117,17.4294 -18.2594,32.3918 -29.3207,44.0802 2.67988,24.6039 -2.89332,41.5443 -17.3344,61.1252 1.80425,10.0877 -5.46463,21.4316 -18.4229,37.2609 3.48718,2.33348 -0.953292,6.20476 -1.83969,8.53824 -22.9085,-1.95024 -39.9955,-4.90224 -48.943,-14.243 2.40265,-4.66158 5.31808,-8.81122 9.36199,-11.8315 -6.20476,-12.4869 0.508536,-20.9764 3.22271,-30.0799 1.43036,-4.79736 0.907654,-10.5432 2.60986,-15.2238 1.20189,-3.30548 3.34177,-6.59226 4.56832,-9.8623 0.716032,-1.90857 0.510803,-5.04312 1.22769,-6.94205 2.28019,-6.03751 5.51764,-10.4499 7.83808,-16.3488 1.04542,-2.65777 2.0829,-5.32177 3.11131,-7.99144 -6.27959,-26.3838 29.8074,-59.3873 24.8046,-72.4558 -2.10302,0.164976 -5.43629,1.86803 -6.61635,1.11061 -7.14926,-11.7663 15.253,-34.4001 26.456,-61.7491 -13.4847,-13.8104 -17.3455,-35.3189 -18.5114,-58.9816 -11.9891,13.8606 -26.2341,26.0291 -41.5043,37.4295 -18.4425,-1.45531 -35.7679,-4.69786 -50.1069,-12.7171 -6.63619,-0.00368504 -11.427,2.4531 -17.1405,3.67966 -7.21531,-2.14866 -13.5079,-8.60287 -17.9552,-16.5949 6.28356,-9.94281 -3.1184,-14.042 -1.44822,-20.6014z"/>
  <path fill="#BF9F4F" d="M201.713 500.083l-3.34177 5.2047c3.77943,19.7941 -3.92372,29.3363 -23.1083,28.6268l-60.5892 -10.1495c-11.4489,-3.70602 -15.0041,-7.71988 -9.43456,-12.6556 -5.10038,-12.9413 -3.02287,-22.0371 14.847,-22.6721l28.9865 2.31024c7.48602,7.18696 21.943,11.9137 43.3721,14.1806l5.05162 -6.49276 4.21654 1.6475z"/>
  <path fill="#BF9F4F" d="M328.735 497.93c17.5306,9.63695 34.7539,2.25525 48.9019,-23.9896 16.7105,12.8152 18.453,26.2449 6.15118,37.5222 -13.6942,10.7294 -32.0213,20.0319 -50.4397,28.603 -26.443,11.1504 -37.9432,-11.8131 -29.1181,-25.6774 10.9701,-5.72911 14.847,-9.55588 19.4162,-13.036 1.52306,-1.15994 3.1235,-2.28161 5.08848,-3.42227z"/>
  <path fill="white" d="M329.187 133.901l3.31002 0.310677c-4.53458,-12.1382 -39.5178,-13.8203 -52.0489,-25.3434 -1.46069,1.81814 -3.00756,3.85512 -4.60658,6.05679l18.8668 11.6172 1.53638 -5.83824c13.8461,2.68951 26.0765,6.38164 30.6539,12.5966 10.9641,14.8859 -7.27115,33.0035 -0.205795,42.5996 4.4229,6.0069 8.59834,0.464032 11.1878,-1.73027 -24.012,6.32381 2.41484,-23.9179 -8.69358,-40.269zm4.58136 366.673c-1.75975,-0.541985 -3.55295,-1.24214 -5.38016,-2.10444 1.8017,-1.87342 3.09062,-4.25906 3.25247,-7.77232 -9.74297,-13.9782 -17.492,-27.7291 -24.2773,-41.3564 10.6543,14.5468 20.4058,36.8739 29.1345,41.4768l-3.53367 2.61184 1.38274 3.07276c4.76249,-1.43405 9.72993,-3.2777 14.9029,-5.53096 -2.38139,1.76627 -6.17103,3.81487 -10.601,5.99188 3.84236,-0.155339 9.52328,-1.74019 17.0538,-4.76277 -4.39257,5.81244 -23.3805,6.14523 -21.9342,8.37355zm-47.0781 -88.7134c-8.27235,-11.5243 -3.94753,-18.7569 -6.91682,-30.0172 -2.87858,-10.9162 -8.77267,-1.84139 -14.5259,-27.5358l-2.80318 -15.8987c7.72781,15.266 4.60148,17.2086 8.46624,26.1788 2.64416,6.13786 7.39531,9.17575 10.2637,15.0953 3.81288,7.86955 0.269008,18.0207 4.78205,26.7517 6.88252,13.3158 15.448,2.96788 25.8058,32.2997 -7.075,-10.9627 -8.70577,-16.6853 -25.0719,-26.8739zm-102.327 -27.5587c3.22441,7.45541 -11.1098,33.9869 -16.0793,46.2325 -5.81726,14.3357 1.74699,16.107 -11.4883,33.3034 1.16249,-5.18117 3.7338,-9.84416 5.1755,-14.6801 1.43008,-4.79736 0.907654,-10.5432 2.60986,-15.2238 1.20189,-3.30548 3.34177,-6.59226 4.56832,-9.8623 0.716032,-1.90857 0.510803,-5.04312 1.22769,-6.94205 2.28019,-6.03751 5.51764,-10.4499 7.83808,-16.3488 1.04542,-2.65777 2.0829,-5.32177 3.11131,-7.99144 -6.27959,-26.3838 29.8074,-59.3873 24.8046,-72.4558l3.92258 -8.19667 4.76277 0.614551c-4.8994,31.3447 -36.311,58.0062 -30.4532,71.5505m43.9733 -124.556c-2.69178,18.2857 -13.6568,29.5058 -21.8452,43.2652 3.19947,1.01027 6.96331,-3.05575 10.984,-9.42832l2.29295 0.721985c-2.52114,3.6601 -4.11959,7.32048 -3.87269,10.9809 3.85795,-0.471402 4.33276,-6.78615 6.96076,-10.0253 1.15994,2.91543 -2.90835,8.29163 2.5577,12.4376l-21.6595 -0.324284 -2.98488 -1.23449c5.38328,-12.2012 17.7616,-28.2833 25.2011,-46.4446 -13.4847,-13.8104 -17.3455,-35.3189 -18.5114,-58.9816l4.7452 8.947c0.217417,18.8779 5.26196,35.714 16.132,50.0859m-145.394 -53.8152c-0.0107717,1.90715 -0.594992,4.05525 -2.19033,6.5795 1.0423,1.87285 2.1858,3.6618 3.41915,5.33027 1.2977,-1.60016 3.51751,-2.7394 3.89367,-4.80047 -3.17509,0.153354 -4.71175,-0.717449 -4.60914,-2.61184l3.99458 -1.2291 1.07547 -2.91912 -5.5834 -0.349229zm67.5556 -26.1513c-18.0437,0.640347 -13.9666,3.17367 -25.1807,4.0904 -5.11966,0.418677 -10.1387,0.499748 -15.008,1.06299 -2.9211,0.33789 -5.78948,1.24384 -8.59295,1.39776 -11.664,0.64063 -20.113,-1.77109 -22.4124,5.5783 -0.99156,3.89452 1.92019,6.92192 3.13399,10.8198l23.4491 -3.82337c-6.99052,-1.0372 -14.3141,-1.57521 -22.1239,-1.38274 -7.68331,-6.14466 10.4967,-8.65418 25.043,-8.14281 8.09859,6.11093 14.2458,4.80614 20.2802,3.07276 -8.34804,1.02387 -12.5989,-0.000566929 -12.7519,-3.07276 0.162142,-0.928063 5.74101,-1.13669 11.3051,-2.4891 6.715,-1.63247 11.0381,-4.60772 21.1125,-3.65641 10.1563,3.01408 18.7866,3.60567 21.9702,-4.4555 -8.48296,5.33934 -15.0194,5.08394 -20.2241,1.00063zm4.32199 -2.82444c10.0185,-17.8656 17.8285,-21.1816 30.068,-32.0599 0.719717,-0.63978 1.32661,-1.27361 1.85981,-1.90375 -2.70255,9.7441 -7.24904,19.2833 -13.6383,28.6186l4.92095 -17.2233c-7.94382,5.6194 -14.0956,11.9115 -18.7611,18.7611l2.15291 0.307559 -0.922678 2.15291c-2.30315,1.67783 -4.1967,2.12655 -5.6795,1.34674m90.853 -9.64545c-2.29521,-23.0505 -3.36019,-37.4893 -10.5764,-48.8523 -8.96117,-0.550205 -10.8456,5.24041 -16.3026,6.41537 -6.79748,1.46353 -14.1667,1.69484 -20.0203,5.16019 -4.43622,2.62658 -6.57383,4.99748 -8.15074,7.27172m0 0c9.43739,-6.19824 27.4867,-6.55285 40.6151,-12.7511 8.50904,19.4786 9.32911,40.1876 15.9931,61.8194 0,-20.7091 7.38142,-25.4251 11.0721,-38.1373l-5.14092 3.22469c-3.15836,5.93972 -5.78665,11.4372 -7.48942,15.8494"/>
  <path fill="#BF9F4F" d="M224.78 121.785c-24.0412,29.8072 -44.5448,62.5621 -58.7438,100.572l-21.8367 -5.22851c-2.15291,0.204945 -3.4852,2.04973 -3.99827,5.53607l-7.68898 41.2129 81.3016 20.8137c2.40151,1.92387 1.52873,4.16948 1.28551,7.1915 10.2628,3.79474 16.0336,8.72278 39.1932,6.59736 7.43896,1.4383 13.4753,3.65358 16.9288,5.38016 2.14668,-11.4103 3.85342,-23.0414 5.6469,-34.6289 0.219969,-1.42299 4.89742,-0.848126 5.12107,-2.26914 -9.75544,-1.7365 -27.7611,-0.839056 -26.5839,-7.09569 -7.29525,-1.05846 10.7419,-16.1073 3.81884,-17.3792 -24.1024,-4.42914 -43.4707,-9.47878 -40.8654,-10.4559l-28.0256 -6.29122c21.0257,-26.2675 110.171,-80.0776 103.34,-111.029 -4.20151,-5.34473 -9.1236,-5.64662 -14.1477,-5.22851 -2.05285,31.2236 -38.7482,58.4796 -96.5736,103.032 6.20249,-23.144 23.1185,-50.6705 47.3641,-81.1956 4.25594,-10.7155 4.15361,-16.0472 -5.53607,-9.53434z"/>
  <path fill="#FFC8C8" stroke="white" stroke-width="0.216" d="M214.469 49.8084c1.73707,-1.78243 4.31915,-0.465733 7.28618,2.26063l2.14725 -0.385512c8.43988,-18.8759 33.7292,-11.8627 28.7008,10.4375 16.2984,1.68265 2.33008,10.2793 12.022,33.1642 5.436,-8.61591 11.5569,-1.19962 13.557,5.33849 -2.62432,2.20365 -1.5925,6.0069 -0.898016,6.84369l3.0977 1.25547c-12.4625,16.6309 -22.5658,33.048 -30.5209,49.2699l-4.78205 5.31298c-1.49074,-20.4857 -4.26331,-37.1259 -9.85522,-45.3056l2.304 -0.456378 0.829418 -6.5418 -8.26101 2.43836c-1.87342,-0.276378 -5.28548,0.984473 -5.92781,-2.98205 -0.387496,-2.39301 0.416693,-4.1383 -0.252,-6.57213 -0.862583,-3.13795 -3.29528,-4.0011 -2.3743,-11.329 -1.93238,-0.443055 -3.28876,-1.87597 -4.07169,-5.42041 -0.535465,-2.42419 -0.333354,-4.98671 -0.377858,-7.19122 -0.0700158,-3.47103 -4.04788,-6.04942 -4.65818,-9.2469 -0.531496,-2.78306 2.6898,-8.24656 1.91849,-10.7918l0.116221 -10.0984z"/>
  <path fill="#BF9F4F" d="M208.74 23.8949c2.9211,-2.74337 10.8913,-2.45679 23.9114,0.860032 0.259654,-5.18769 0.835087,-8.54504 1.91622,-9.88158 7.55745,3.08863 14.815,7.15578 21.8673,11.2567 12.0203,-8.9195 18.5335,-13.1993 20.9602,-13.0283 0.0235276,6.11717 -1.21521,11.7292 -3.71622,16.8372 8.96429,2.24816 16.2876,6.13786 21.2128,12.4265 -6.77424,0.126142 -10.8045,1.38529 -11.8052,4.16041 8.02007,7.32955 14.1055,10.637 11.0149,14.9372 -2.17021,0.777827 -5.57093,3.00643 -7.74057,1.76542 10.0641,11.5878 15.7493,17.0708 15.2101,22.6001 -3.07191,0.683433 -9.47991,3.25928 -13.1199,2.80658 6.23651,6.715 10.4049,10.3139 7.74879,12.9013 -5.09896,-1.7348 -8.71371,-3.74995 -19.9301,-3.48435 -3.22271,-7.10391 -6.90038,-9.50486 -11.7196,-3.08013 -8.7327,-14.1066 3.17424,-31.811 -11.4284,-33.2306 3.79871,-22.9864 -22.1309,-28.1248 -28.9358,-10.0196l-2.3074 0.100347c-9.19049,-7.19122 -12.7001,2.65947 -22.4583,2.28529 -2.43921,-3.09288 2.12797,-6.56448 2.90806,-10.9828 -4.28684,-2.79298 -7.43755,-6.53273 -10.3986,-11.9767 4.50794,-1.99191 15.8326,0.181984 22.6131,-1.99899 -1.99758,-2.19317 -4.56293,-3.25021 -5.80281,-5.25402z"/>
  <path fill="#FFC8C8" stroke="black" stroke-width="0.216" d="M19.6382 207.287c-0.410173,-14.4556 -0.307843,-15.9934 16.9158,-15.6855 6.52592,-7.46759 6.90095,-9.63071 16.7845,-9.67352 4.98444,-0.0215433 12.3695,0.65452 14.1273,2.48428 4.99805,5.20328 3.56684,6.80457 12.7616,6.26655 -5.12618,6.7663 7.27881,8.61166 0.922678,21.8367 -9.40224,-0.261354 -10.425,5.08394 -16.3063,7.23855 -14.5712,5.33792 -39.0002,2.41852 -41.8224,-11.2368l-3.38315 -1.23024z"/>
  <path fill="black" d="M23.944 198.675c5.4394,0.399402 8.72618,3.56684 16.3188,1.19821 5.3538,-3.07729 6.3377,-5.17351 11.5143,-4.83477 3.09118,0.202394 3.65669,1.86236 5.69084,5.78948l-5.22851 -0.615118c-0.552189,-5.55676 -1.34901,-3.3721 -4.86029,-0.763937 -2.18013,1.61972 -5.26281,0.802772 -7.74964,4.76221l-15.6855 0 0 -5.53607z"/>
  <path fill="black" d="M27.0196 221.434c0.663591,2.25666 8.42769,2.52624 17.2775,2.8766 7.80889,0.30926 11.9869,3.48293 20.166,-1.62737 7.8463,-4.90224 9.33137,-4.60687 16.3794,-5.2475l0.307559 1.23024c-8.05748,0.935434 -9.60095,4.90677 -16.5291,7.08435 -8.9076,2.80006 -22.0601,3.33383 -37.6013,0.912189l0 -5.22851z"/>
  <path fill="white" d="M62.5995 182.635c-2.89389,-0.51052 -6.45733,-0.718867 -9.26108,-0.706961 -9.88356,0.0428032 -10.2586,2.20592 -16.7845,9.67352 -16.8197,-0.300473 -17.3118,1.15909 -16.9438,14.69l5.77134 -0.164976c-2.61184,-2.20224 -1.53638,-7.01632 -1.38274,-11.2156 1.2291,-3.2777 8.911,0.665575 19.2047,-2.45821 3.81742,-7.81541 6.11859,-6.13559 10.8513,-6.72917 5.03859,-0.631843 4.44529,-2.94066 14.1917,4.73188 -0.0388347,-2.14611 -3.76469,-5.21377 -5.6469,-7.82051zm16.503 12.4506c-0.342709,-1.33087 -0.156756,-2.71531 1.12479,-4.40674 -4.59723,0.269008 -6.53811,0.00283465 -7.95459,-0.980504 2.27651,1.79575 4.55301,5.12788 6.8298,5.38725zm-54.0717 18.0539c-0.966331,-1.37594 -1.65685,-2.91543 -2.00948,-4.62218l6.81563 1.14293c-0.358583,6.24785 8.96202,3.43106 13.6738,9.06463 -5.17125,0.319465 -5.03717,-3.78114 -8.23833,-3.1028 -4.22362,0.894898 -7.83213,-0.646866 -10.2416,-2.48258z"/>
  <path fill="black" stroke="#FFD90F" stroke-width="0.216" d="M73.1387 190.177c-2.00438,-0.855496 -2.70539,-2.67562 -5.67298,-5.76482 -0.768756,-0.800504 -2.61496,-1.38047 -4.86624,-1.77732 2.49676,2.4018 5.30079,5.57207 6.10781,8.12778l4.4314 -0.585638zm-48.447 22.4552c3.42312,5.39235 10.9599,8.41323 19.2149,9.32939l-1.16419 -3.08325c-4.52807,0.421795 -3.8058,-3.40299 -7.97641,-2.53417 -2.86781,0.59726 -7.0492,-0.742678 -10.0743,-3.71197zm-1.67046 -4.11506l-3.38315 -1.23024c-0.00935434,-0.33874 -0.0192756,-0.670394 -0.028063,-0.995528 3.35736,1.1228 7.73915,1.22145 13.146,0.295937 0.255685,0.921827 -0.717449,1.84365 -2.91912,2.76548 -2.01572,-0.0221102 -4.39002,-0.403654 -6.81563,-0.835654z"/>
  <path fill="white" d="M256.434 62.7826c-1.04032,-0.285165 -2.3023,-0.504 -3.83018,-0.661607 0.617386,2.78107 1.84932,4.74236 3.69581,5.88473 -0.153921,-1.58769 0.511654,-2.35588 1.99729,-2.30457l-1.86293 -2.91855zm21.7488 37.8411c-6.01796,-3.57137 -5.64038,-10.7518 -9.94167,-8.86848 3.3137,2.95597 5.09131,8.67771 9.94167,8.86848zm-40.7625 21.3163c-0.679181,-1.47203 -1.40967,-2.78986 -2.196,-3.93988l2.304 -0.456378 0.829418 -6.5418c1.67868,-0.555874 1.5137,3.9583 2.57811,6.01427 -0.864567,3.33128 -2.49732,1.5925 -3.51553,4.92378zm-4.78772 -9.24832l-2.53588 0.74863c-1.87342,-0.276378 -5.28548,0.984473 -5.92781,-2.98205 -0.387496,-2.39301 0.416693,-4.1383 -0.252,-6.57213 -0.862583,-3.13795 -3.29528,-4.0011 -2.3743,-11.329 -1.93238,-0.443055 -3.28876,-1.87597 -4.07169,-5.42041 -0.535465,-2.42419 -0.333354,-4.98671 -0.377858,-7.19122 -0.0700158,-3.47103 -4.04788,-6.04942 -4.65818,-9.2469 -0.531496,-2.78306 2.6898,-8.24656 1.91849,-10.7918l0.116221 -10.0984c0.868536,-0.891213 1.94854,-1.00772 3.18161,-0.560693 2.23058,4.86964 1.18318,10.7634 -3.14107,17.6825 0.979087,0.806457 1.94343,3.14362 3.25984,5.18655 1.02387,1.5891 2.0761,2.20422 3.34658,4.18536 0.141732,-2.95087 1.17213,-5.45698 2.15093,-7.98917 3.07276,2.81651 -2.30457,15.0052 -0.921827,20.8948l1.84365 0.614551c0.358299,5.12107 2.09962,6.55512 1.99729,11.2156 2.51575,2.81906 4.46599,5.43175 2.45821,6.60643 0.253701,2.45055 2.65833,3.36473 3.98778,5.04737zm-2.20762 -69.1847c-2.58265,1.79065 -4.87361,4.49008 -6.52196,8.17654l2.28359 2.49477c0.183685,-3.24992 2.82558,-7.1144 4.23836,-10.6713z"/>
  <path fill="black" stroke="black" stroke-width="0.216" d="M221.705 71.038l4.61339 0c-0.285449,-1.89553 3.96766,-3.32986 15.9931,-5.22851 -1.60923,-0.892347 -12.155,-1.83572 -20.6065,5.22851z"/>
  <path fill="black" d="M210.762 71.9558c2.39981,1.42271 2.7961,2.47011 3.42567,4.66526 0.278646,-0.718583 0.817512,-0.86967 1.88164,-1.64835l-0.300473 -2.49251c-2.1668,-0.331087 -3.8058,-0.49663 -5.00684,-0.52441z"/>
  <path fill="#644D36" d="M276.687 270.409c-1.72743,11.1974 -3.3908,22.4274 -5.46492,33.4514 -3.45345,-1.72658 -9.48983,-3.94186 -16.9288,-5.38016 -23.1596,2.12542 -28.9304,-2.80262 -39.1932,-6.59736l10.3184 -2.33121c15.6132,7.82221 29.5557,1.90715 41.4822,-20.5875l9.78634 1.44482zm-18.1454 -27.4706c-27.1999,-6.40885 -42.9767,-9.31578 -40.182,-10.9069 0.154488,6.50013 23.5573,8.10851 41.0128,10.9678m-3.26013 -74.0999c-17.9232,15.6186 -38.4492,31.0853 -52.6493,43.6743l-20.2949 13.9864 -1.69002 -1.99729c2.54948,-1.3955 26.6882,-20.7604 52.0634,-41.811 21.6995,-18.0014 34.9858,-32.1664 43.1552,-44.5 5.58936,-8.43846 7.24734,-17.8637 10.6379,-23.3864 1.20529,15.1671 -12.3409,33.9469 -31.2222,54.034zm-83.238 53.8197c-0.0277795,0.363685 -0.0822048,0.718016 -0.153638,1.07547 9.343,-25.3922 28.0423,-56.6 52.5442,-91.4145l3.9206 0.368221c-15.8834,20.1263 -28.5375,38.9319 -36.9834,56.0155 -5.29512,7.41912 -12.6065,22.2304 -19.3278,34.8772"/>
  <path fill="none" stroke="black" stroke-width="0.992126" d="M222.012 104.254c2.87121,-1.85017 5.02498,-3.28819 7.07386,-1.84536"/>
  <path fill="none" stroke="black" stroke-width="0.992126" d="M226.032 89.2078c0.562961,3.12406 -1.74104,4.19925 -6.9137,3.2264"/>
  <path fill="none" stroke="black" stroke-width="0.992126" d="M218.965 89.2078c1.2121,-3.86306 0.311811,-10.7082 2.61184,-12.7519"/>
  <path fill="black" d="M228.952 72.0003c3.68703,0.819213 3.94271,1.84309 1.07547,4.30186l1.99729 0.921827c1.01169,-1.8652 4.73159,-3.0858 4.81323,-5.16841 0.076252,-1.94485 -3.7681,-1.62397 -6.57752,-1.43575 -0.917008,0.0612284 -0.124441,1.23959 -1.30847,1.38047z"/>
  <path fill="black" d="M250.768 148.358c5.79288,-12.9379 13.2058,-25.6258 23.5066,-37.334l2.15093 1.07547c-9.28432,9.65169 -17.6063,22.5071 -25.6575,36.2585z"/>
  <path fill="black" d="M268.283 97.0433c-0.115087,5.46662 0.9343,10.1015 3.68731,13.5201l0.921827 -2.30457c1.74132,0.460914 3.27742,1.53638 4.60914,3.2264l0.460914 -2.15093 0.768189 1.2291 1.69002 -1.53638c-4.45578,-1.55962 -5.12221,-4.00536 -2.61184,-7.98917 -2.35616,-0.153921 -4.30243,-1.74189 -5.83824,-4.76277 -0.614551,2.5098 -1.84365,2.76577 -3.68731,0.768189z"/>
  <path fill="#FFC8C8" d="M254.165 282.002c8.443,-2.11266 3.65528,-7.57644 11.8947,-13.9144 10.4477,-8.03651 -0.924378,-3.42539 4.43566,-12.7681 -0.524126,-1.51795 -3.46536,-3.35679 -3.90047,-4.86284 -1.08369,-3.74882 2.76803,-6.30142 -7.67594,-7.49311 -1.43547,2.15291 -3.17821,-3.69071 -4.30583,6.45874 -10.3102,7.36781 -18.1239,0.0291969 -24.7796,5.49553 -6.5727,5.39774 -5.95701,14.1953 -7.24366,15.7567 -10.2986,6.84596 -12.805,12.4622 -7.51975,16.8483 -1.41449,6.13163 3.83528,8.16265 9.28999,2.40236 -1.40457,6.19455 3.35197,6.52904 11.4919,2.86299 0.871087,2.3417 6.8417,3.25843 18.313,-10.7861z"/>
  <path fill="white" d="M266.595 250.457c-1.08369,-3.74882 2.76803,-6.30142 -7.67594,-7.49311 -1.43547,2.15291 -3.17821,-3.69071 -4.30583,6.45874 -10.3102,7.36781 -18.1239,0.0291969 -24.7796,5.49553 -6.5727,5.39774 -5.95701,14.1953 -7.24366,15.7567 -10.2986,6.84596 -12.805,12.4622 -7.51975,16.8483l3.25106 -3.96142c-3.38343,-3.38343 -0.615402,-7.58665 8.3041,-12.6099 4.96999,-14.4879 12.708,-12.9061 20.9458,-15.5914 8.23777,-2.68526 10.2093,-6.56221 19.0239,-4.90337z"/>
  <path fill="white" d="M223.857 289.405c-2.30712,-0.461197 -4.76759,0.614268 -6.45988,-1.99786 -1.74019,4.45805 2.66627,4.66271 6.45988,1.99786z"/>
  <path fill="white" d="M238.001 287.256c-9.06719,8.50082 -8.60882,1.63786 -12.913,2.45651 1.4349,3.89566 7.17307,4.97169 12.913,-2.45651z"/>
  <path fill="none" stroke="white" stroke-width="0.708662" d="M241.696 289.097c4.00762,-4.76362 8.34095,-4.68085 13.2446,-10.3482 4.32737,-5.00088 4.9303,-12.219 10.745,-13.0263"/>
  <path fill="black" d="M236.16 293.096l9.84189 -9.84189 -0.922678 -2.15291c-2.35928,1.38614 -1.1846,3.2332 -10.7646,11.0721 -4.25452,1.92019 -7.73972,2.17616 -9.53434,-1.23024 2.20649,-3.48633 11.327,-8.20205 14.9165,-13.225 -5.74129,4.40844 -13.1723,8.66325 -17.2233,13.225 -4.40703,1.61235 -5.99585,0.126709 -6.30482,-2.76803 0.661323,-1.4366 7.1606,-4.932 8.5646,-7.38426 2.87008,-1.96611 6.89613,-4.09975 8.52038,-5.68092 -7.9047,2.29408 -11.3539,8.27547 -18.1831,12.4132 -1.41449,6.13163 3.83528,8.16265 9.28999,2.40236 -1.40457,6.19455 3.35197,6.52904 11.4919,2.86299m18.313 -10.7861c8.443,-2.11266 3.65556,-7.57616 11.8947,-13.9141l-0.0816378 -2.04293c-5.72939,3.52006 -5.93603,6.78728 -8.16662,10.5857 -1.7348,2.95399 -3.91153,3.73578 -3.64649,5.37137z"/>
  <polyline fill="none" stroke="#644D36" stroke-width="1.41732" points="125.131,510.233 135.588,521.92 152.811,508.695 "/>
  <polyline fill="none" stroke="#644D36" stroke-width="1.41732" points="138.664,509.002 150.043,523.15 167.574,509.002 "/>
  <polyline fill="none" stroke="#644D36" stroke-width="1.41732" points="148.198,506.849 163.883,526.841 180.492,509.925 "/>
  <polyline fill="none" stroke="#644D36" stroke-width="1.41732" points="160.5,506.234 178.646,527.148 194.024,509.31 "/>
  <line fill="none" stroke="#644D36" stroke-width="1.41732" x1="173.418" y1="507.464" x2="188.181" y2= "524.38" />
  <polyline fill="none" stroke="#644D36" stroke-width="1.41732" points="116.519,513.923 120.825,519.767 130.667,510.848 "/>
  <path fill="#644D36" d="M185.413 511.155c5.56413,6.28129 5.51594,18.5343 -7.07386,9.84189l-6.15118 6.7663c16.5081,2.92366 26.3503,-0.56126 21.5291,-18.146 -1.53808,1.74302 -4.30611,2.25553 -8.3041,1.5378z"/>
  <path fill="none" stroke="#644D36" stroke-width="0.992126" d="M168.189 501.928c9.58593,5.02385 18.9153,7.17676 27.6803,3.99827"/>
  <polyline fill="none" stroke="white" stroke-width="0.992126" points="105.447,507.772 121.44,489.318 125.131,490.549 135.588,504.696 "/>
  <line fill="none" stroke="white" stroke-width="0.992126" x1="116.827" y1="496.392" x2="111.598" y2= "490.241" />
  <line fill="none" stroke="white" stroke-width="0.992126" x1="110.368" y1="504.389" x2="103.909" y2= "497.007" />
  <line fill="none" stroke="white" stroke-width="0.992126" x1="116.212" y1="508.08" x2="124.823" y2= "501.006" />
  <line fill="none" stroke="white" stroke-width="0.992126" x1="120.21" y1="500.698" x2="124.823" y2= "505.619" />
  <line fill="none" stroke="white" stroke-width="0.992126" x1="143.585" y1="500.698" x2="149.736" y2= "496.085" />
  <line fill="none" stroke="white" stroke-width="0.992126" x1="129.129" y1="496.392" x2="136.203" y2= "491.164" />
  <path fill="black" d="M192.445 504.928l5.05162 -6.49276 4.21654 1.6475 -3.34177 5.2047c3.77943,19.7941 -3.92372,29.3363 -23.1083,28.6268l-60.5892 -10.1495c-11.4489,-3.70602 -15.0041,-7.71988 -9.43456,-12.6556 10.8887,8.91043 40.4603,14.2047 76.79,18.1916 17.2094,4.07537 18.8359,-24.0406 10.4156,-24.3729z"/>
  <path fill="white" d="M149.073 490.748l-28.9865 -2.31024c-5.30504,0.188504 -9.21856,1.12252 -11.9653,2.68158 8.33528,-0.600378 25.2825,1.26 37.9239,1.89014l3.02797 -2.26148z"/>
  <path fill="none" stroke="white" stroke-width="0.992126" d="M149.736 491.471c1.94769,5.02328 7.27881,6.04857 11.3797,7.68898l-3.69071 1.5378"/>
  <path fill="none" stroke="white" stroke-width="0.992126" d="M151.889 488.703c7.94495,4.35657 16.5566,8.04728 26.1425,10.7646"/>
  <path fill="none" stroke="white" stroke-width="0.992126" d="M154.042 484.705c6.79153,3.71594 15.0443,6.94517 24.2972,9.84189"/>
  <line fill="none" stroke="white" stroke-width="0.992126" x1="156.502" y1="482.245" x2="170.342" y2= "486.858" />
  <path fill="none" stroke="black" stroke-width="0.992126" d="M195.254 501.006c-5.68942,-1.28098 -11.1229,-2.81877 -15.9931,-4.92095"/>
  <path fill="none" stroke="black" stroke-width="0.992126" d="M171.265 488.088c10.4822,1.92217 19.9653,4.84384 27.9879,9.22678"/>
  <path fill="none" stroke="black" stroke-width="0.992126" d="M182.029 501.313c1.332,1.63984 5.84277,2.15206 12.9175,2.15291"/>
  <path fill="black" d="M164.191 483.475l3.07559 1.23024c-2.46047,-17.4283 9.22678,-25.0146 5.53607,-45.8263 -0.296221,20.4299 -8.29333,26.3764 -8.61166,44.5961z"/>
  <path fill="white" d="M164.191 461.946c-3.30605,4.86964 -4.17742,8.7653 -3.38315,11.9948l2.15291 -1.84536c-0.618803,-2.35417 0.202961,-6.14892 1.23024,-10.1495z"/>
  <path fill="white" d="M169.727 481.63l4.92095 1.84536c-0.512788,-10.457 3.89566,-13.8402 3.07559,-31.371 -3.28082,9.84189 -4.10088,19.9913 -7.99654,29.5257z"/>
  <path fill="none" stroke="white" stroke-width="0.510236" d="M184.797 487.166c3.4852,-2.05002 6.97096,-6.56079 10.457,-13.5326"/>
  <path fill="black" d="M224.473 446.26c-13.8402,16.3006 -6.15118,23.3745 -27.6803,45.2112l3.38315 0.307559c22.1652,-22.6083 8.88634,-22.1995 24.2972,-45.5188z"/>
  <path fill="black" stroke="black" stroke-width="0.216" d="M215.553 413.351c-18.5562,20.4015 -3.89594,34.6519 -21.5291,52.9002 16.8129,-7.89364 7.99597,-33.8312 21.5291,-52.9002z"/>
  <path fill="black" d="M232.162 399.819c-0.281197,7.92822 -0.9703,22.4232 -6.22602,36.0646 -4.32709,11.2306 -13.7733,21.3775 -19.3014,29.1379 25.7834,-22.4515 26.3985,-38.2394 25.5274,-65.2026z"/>
  <path fill="black" d="M238.928 392.745c-17.8384,11.3797 -6.7663,38.4449 -18.4536,47.0566 9.53434,-15.378 -2.15291,-38.1373 18.4536,-47.0566z"/>
  <path fill="white" d="M208.172 411.198c-2.97326,11.9948 -7.79159,16.3006 -8.91922,35.9844 -1.33285,-18.7611 4.71572,-25.835 8.91922,-35.9844z"/>
  <path fill="white" d="M232.162 393.975c-10.5593,4.71629 -13.7373,12.3029 -9.53434,22.7594 0.102614,-11.0718 2.05002,-16.1975 9.53434,-22.7594z"/>
  <path fill="white" d="M197.407 415.812l4.92095 -0.615118c-3.98013,-20.3542 30.2494,-45.3476 23.3745,-53.2077 -3.79588,3.80353 -6.87033,4.00451 -9.84189,3.69071 -1.19821,-8.50904 6.52451,-14.8649 14.4553,-27.3728l-0.922678 -4.92095c-3.79332,11.9948 -19.2739,27.0652 -17.5309,34.7542 3.89679,-0.304158 10.7657,-2.14639 13.8402,-4.92095 -0.206079,15.1121 -24.2634,21.9195 -28.2954,52.5926z"/>
  <path fill="black" d="M202.636 407.815l2.46047 3.07559c19.5041,-30.1405 27.8595,-48.3888 22.7594,-52.2851l-7.99654 3.99827c4.92095,-8.50904 7.38142,-12.4047 12.9175,-24.9123l-0.922678 -4.92095c-3.79332,11.9948 -14.353,25.835 -15.0704,33.2164 3.89679,-0.304158 7.69011,-0.916158 10.7646,-3.69071 -1.74387,9.26845 -14.7291,32.684 -24.9123,45.5188z"/>
  <path fill="black" d="M206.019 320.468c-6.25408,3.07503 -8.8166,0.40989 -7.68898,-7.99654 4.13263,-4.31518 16.8066,-1.89411 32.4749,-1.47118 13.8249,0.37304 28.6815,0.116221 34.8806,0.548504 13.8867,3.49484 28.4051,8.34208 33.0486,6.41736 7.29496,-3.02372 5.83994,-9.62476 6.01144,-28.2541l2.76803 -1.84536c1.50661,19.9953 -2.33008,31.9683 -7.39644,33.6028 -9.43314,3.04328 -22.0788,-5.86092 -34.7392,-7.76778l-5.53607 -0.615118c5.6384,11.9945 8.81632,23.9893 9.53434,35.9844 -3.99827,-12.2511 -7.99682,-23.8363 -11.9948,-34.4466l-3.38315 0.307559c6.22148,17.0691 6.69544,33.7796 5.53607,44.2885 -4.66384,8.63859 -10.6107,15.3533 -16.9158,21.5291 9.43257,-13.2772 15.789,-23.7351 15.378,-27.9879 -3.72671,6.95339 -9.90879,15.2929 -16.6082,18.7611 10.662,-11.4055 16.6079,-23.7594 15.378,-32.6013 -1.53808,6.7663 -5.43374,11.6872 -11.0721,15.9931 10.3544,-11.5594 12.1998,-19.7096 5.22851,-40.5978l-22.7594 -0.922678c-7.17648,11.1745 -8.81689,24.5021 -19.6838,37.2147 11.3797,-22.5544 10.457,-30.9611 13.8402,-37.2147l-14.1477 -1.5378 -2.15291 8.61166z"/>
  <path fill="#F0F0F0" d="M302.9 389.362c-2.28189,-7.30035 -2.80177,-18.9519 -6.96756,-20.6416 -2.42731,-0.984473 -4.60233,1.48536 -6.12879,7.17081 -3.06766,-2.08091 -5.9641,-10.1614 -7.80945,-17.9762 -2.17389,-9.20665 -5.64605,-9.64234 -9.54256,-21.7607 2.35644,14.777 11.5421,28.1166 12.0141,36.3898 0.325134,5.69877 5.3538,7.62633 7.11241,5.87594 1.86605,-1.85726 -0.866552,-8.9847 4.21994,-5.52671 4.07169,2.76832 2.46302,10.6251 7.10192,16.4687z"/>
  <polygon fill="black" points="296.134,421.348 298.594,421.655 313.665,448.413 311.819,449.028 "/>
  <path fill="white" d="M322.892 461.638c1.07206,4.88977 4.8634,13.6525 14.4553,27.6803l3.99827 -1.5378c-5.72202,-8.82908 -9.29056,-13.9672 -12.8585,-24.3329l-5.59503 -1.80964z"/>
  <path fill="black" d="M324.122 460.1c1.07206,4.88977 3.94073,12.1147 13.225,27.6803l3.07559 -0.615118c-6.02958,-7.9064 -10.8284,-17.0427 -14.3963,-27.4085l-1.90432 0.343276z"/>
  <polygon fill="white" points="336.117,473.633 345.343,487.473 356.415,481.322 350.572,466.867 353.34,481.937 351.495,482.86 345.958,472.71 347.496,484.705 342.268,482.245 "/>
  <path fill="black" d="M334.118 495.93c10.5871,-4.82429 20.0205,-8.81008 25.6811,-13.2248l-4.61424 -11.9937 1.84592 -1.07688 4.76703 11.8398 9.99582 -7.53393 3.69071 4.30583c-3.88347,4.99266 -6.48907,14.078 -26.7577,22.7594 9.08079,-6.89131 12.7854,-9.27213 21.2216,-16.6082 -4.35714,2.25553 -8.09944,4.97169 -13.0708,6.76602 4.42092,-3.04951 8.75169,-6.27874 12.7633,-10.1492l0 -2.15291c-9.93601,8.83474 -22.7129,13.9836 -35.5227,17.0685z"/>
  <path fill="white" d="M353.245 425.828c0.52441,16.5929 2.54721,25.8625 6.76007,24.4284l-2.45821 -20.1266 -4.30186 -4.30186z"/>
  <path fill="black" d="M334.654 387.573l4.30186 0c21.2542,29.7627 15.6297,42.0557 19.9395,56.6774 2.22095,7.53506 8.1275,6.38901 5.87169,28.8989l-1.84365 -0.153638c2.31392,-16.1668 -0.183685,-17.3872 -6.95141,-28.8763 -0.65537,-20.6255 -4.32567,-37.7085 -21.318,-56.5464z"/>
  <path fill="white" d="M338.495 413.076l-8.911 -6.9137c-1.94627,20.7411 6.09421,13.0592 8.911,6.9137z"/>
  <path fill="white" d="M351.401 429.823l-3.53367 -3.07276c-0.256536,5.14772 0.511087,7.34996 3.53367,3.07276z"/>
  <path fill="black" d="M336.037 389.109l-5.22369 -4.14822c3.18756,6.98287 -0.85663,22.3401 2.49534,29.2451 3.6377,7.49367 7.53874,-2.70879 11.003,-1.6971 3.37918,0.986741 0.220252,8.83389 4.41865,15.7025 1.75465,2.87065 20.5121,8.8013 21.568,43.2476l1.69002 -0.153638c-0.284882,-36.7382 -20.0801,-40.3282 -22.4045,-44.8827 -2.49647,-4.89175 -0.0694489,-12.6167 -3.89481,-15.7397 -4.89997,-4.00025 -6.19087,7.17534 -10.3266,1.99729 -3.80636,-4.76561 -0.216,-17.1995 0.674646,-23.5712z"/>
  <path fill="black" d="M319.905 313.98l3.07276 -1.84365c4.64429,23.2498 5.75178,46.5007 5.07005,69.7516 -3.03704,-3.20627 0.6823,-42.3785 -8.14281,-67.9079z"/>
  <path fill="black" d="M297.167 259.899l4.60914 0.921827c-1.84365,-4.35288 21.0484,-11.0106 31.3421,-17.6684l-0.460914 -3.84095c-8.45008,8.85997 -35.0294,15.5687 -35.4903,20.5875z"/>
  <path fill="white" d="M292.558 257.749c-0.211181,-3.14986 5.98734,-5.65909 13.981,-7.98917 -6.00747,2.89446 -10.6441,5.65966 -10.9083,8.14281 -1.22939,0.972851 -2.25383,0.92126 -3.07276,-0.153638z"/>
  <path fill="white" d="M301.161 261.282l-6.29915 -0.614551c1.38246,2.61184 3.78936,1.74132 6.29915,0.614551z"/>
  <path fill="black" d="M332.657 177.857c-8.96202,-11.9838 -0.409607,-21.5093 -0.614551,-29.0376 4.88722,24.7898 30.7939,39.8186 30.4478,60.1076 -0.192473,11.2844 -8.24911,20.4999 -23.8414,26.5442 -2.15263,0.7183 -2.71588,-0.306992 -1.99729,-2.45821 52.1856,-18.6928 5.58199,-48.7545 -3.68731,-77.1262l-0.307276 21.9702z"/>
  <path fill="black" d="M269.512 260.36c4.67717,-7.07981 14.6764,-13.2508 26.4257,-19.8193l1.2291 1.53638c-19.9794,9.03317 -23.1421,18.0082 -27.6548,18.2829z"/>
  <path fill="white" d="M287.027 237.161l0.153638 4.60914c8.29645,-3.41858 13.0079,-7.28448 14.7492,-11.5228 -4.66044,2.91912 -8.39906,6.45279 -14.9029,6.9137z"/>
  <path fill="white" d="M303.927 206.126c-11.9838,13.8274 -35.3367,19.9729 -44.7086,37.334l4.91641 0.614551c-0.921827,-11.2669 39.3313,-27.1429 41.0213,-37.9486l-1.2291 0z"/>
  <path fill="white" d="M278.269 240.234c-4.99351,0.24378 -9.65396,1.65203 -13.8274,4.76277l1.99729 1.84365c2.23824,-2.20167 6.71981,-4.40391 11.8301,-6.60643z"/>
  <path fill="white" d="M269.512 253.447l2.45821 0.153638c2.30372,-2.96986 5.73534,-5.94 9.67919,-8.911l-2.45821 -0.614551c-3.99458,5.42863 -9.21827,6.86268 -9.67919,9.37191z"/>
  <path fill="white" d="M327.741 210.428c-2.53247,-5.41843 -11.3304,-2.42958 -18.1854,-8.27235 -10.5786,-9.01616 -17.8985,-31.2126 -9.93034,-66.0884 -9.72397,16.007 -5.50318,54.3728 4.72394,67.9422 2.52255,3.34687 6.10214,3.26948 8.81405,4.31433 4.5207,1.74161 6.63137,3.78851 14.5777,2.10416z"/>
  <path fill="black" d="M297.935 180.622l2.15093 0.153638c1.41392,12.496 6.26627,21.6116 12.5983,24.1211l0.307276 -1.99729c13.6225,5.37733 9.42293,0.921827 14.1347,1.38274l0.153638 4.14822c-16.6513,2.24136 -27.8541,-4.64684 -29.3448,-27.8085z"/>
  <path fill="white" d="M320.673 201.363l5.99188 -0.153638c0.946772,-3.43219 3.30236,-2.35673 6.29915,0.768189l-0.153638 -5.83824c-5.88983,0.717166 -9.93572,2.45877 -12.1374,5.22369z"/>
  <path fill="black" d="M214.663 209.813c0.473103,12.7772 1.67669,20.2031 3.38003,23.9675l40.714 9.06463 4.91641 -6.29915 -9.52555 1.2291c-2.66315,-7.37462 -4.0972,-34.4149 -6.14551,-51.6223 -0.398551,17.3622 -0.168662,34.3641 2.30457,50.0859 -3.38003,0.102047 -4.60914,-1.22967 -5.07005,-6.76007 -1.63899,1.43405 -2.45877,3.27742 -2.45821,5.53096 -3.91805,-0.179717 -6.32523,-4.94306 -7.37462,-14.1347l-0.768189 10.7547c-5.53096,2.09962 -5.6846,-3.32901 -8.29645,-4.91641l-0.307276 -17.2074c-0.921827,7.32331 -0.921827,19.4094 -2.76548,21.9702 -7.47752,-0.16526 -5.88983,-18.1055 -8.60372,-21.6629z"/>
  <path fill="black" d="M277.962 149.895c-0.543685,32.137 0.314362,60.3706 7.98917,68.6761l15.2101 -9.67919c-7.91377,-5.4 -9.91078,-27.4221 -9.21827,-56.9997l-1.69002 1.38274c-0.896315,23.3252 -0.185669,42.9871 6.29915,55.156l-3.38003 3.38003c-2.30485,1.2291 -2.15121,-2.76577 -2.30457,-4.14822l-1.38274 1.69002c-0.70526,0.908504 -0.0141732,2.57244 2.15093,4.30186l-2.30457 1.2291 -0.153638 -2.76548c-7.18271,5.7617 -10.2971,-25.3644 -9.67919,-61.1479l-1.53638 -1.07547z"/>
  <path fill="white" d="M281.496 212.733c-3.42057,-21.3619 -5.18684,-37.743 -5.6846,-60.3797 -1.2875,22.106 0.926363,44.269 5.6846,60.3797z"/>
  <path fill="white" d="M289.639 185.385c0.448158,7.51522 1.39493,14.8638 3.07276,21.9702l2.45821 -0.768189c-2.99622,-5.22369 -4.58419,-12.7006 -5.53096,-21.202z"/>
  <path fill="black" d="M238.938 166.027c-2.97043,-4.66044 0.204662,-13.1618 -6.14551,-26.4257 3.89197,1.89298 5.53096,12.2383 6.14551,26.4257z"/>
  <path fill="black" d="M217.736 181.698l-2.30457 0.153638c-2.51632,-15.1875 0.92778,-31.1596 13.981,-48.3959l5.83824 4.30186 -1.07547 2.45821 -5.37733 -2.61184c-11.3054,19.1801 -13.6865,33.1101 -11.0619,44.0941z"/>
  <path fill="black" d="M229.259 142.213l-2.15093 1.53638c-0.255685,7.92511 0.153921,13.6862 1.53638,16.2856 -0.178866,-5.36514 -0.485575,-12.7658 0.614551,-17.822z"/>
  <path fill="black" d="M184.55 210.735c1.28013,-5.37704 4.60857,-12.1881 9.98646,-20.4338 0.614551,3.38003 2.91912,2.45821 3.68731,2.30457 1.07547,-6.19654 3.2264,-5.78693 3.2264,-18.5902l1.99729 1.2291c-0.819496,7.88684 -1.94627,13.4691 -1.53638,22.7384l-5.22369 4.14822 -0.460914 -6.29915c-5.88955,6.04318 -8.39906,13.0082 -11.6765,14.9029z"/>
  <path fill="black" d="M87.4511 208.738l2.15093 -2.76548c18.8975,-0.255969 29.3448,4.25055 40.4068,4.30186 -1.17808,-4.55783 0.255969,-5.27471 3.53367,-8.60372 7.16967,-1.69002 24.6331,3.99458 33.954,-1.38274l1.84365 1.69002c-17.822,8.45008 -16.132,0.460914 -33.6467,3.2264l-0.460914 6.9137c-13.0082,3.02145 -25.0943,-6.09449 -47.7814,-3.38003z"/>
  <path fill="black" d="M144.297 186.921c0.255969,-1.38331 1.94599,-1.33172 5.07005,0.153638 6.15714,3.8537 13.0456,2.59909 20.4338,-2.15093 1.02416,3.89225 -18.8464,11.0109 -25.5039,1.99729z"/>
  <ellipse fill="black" transform="matrix(0.990796 -0.135366 0.135366 0.990796 162.119 181.006)" rx="5.07005" ry="1.76684"/>
  <path fill="black" d="M313.357 256.804c-5.85326,4.62671 -9.04082,8.41522 -13.6667,10.3666 -8.58615,1.21238 -15.3607,2.48485 -15.859,-0.217134l-7.68898 2.15291c1.23024,11.7896 3.07503,7.29383 3.69071,35.3693l2.76803 0.307559c-0.638646,-14.9131 1.15597,-25.9846 8.3041,-28.603l0.922678 11.3797c3.07417,-3.89736 2.15376,-10.7135 4.61339,-16.3006l1.84536 8.3041 2.15291 -4.61339c4.56265,1.74841 9.27922,16.8633 15.9931,23.6821l0.922678 -1.5378c-5.09981,-8.06287 -9.45723,-17.9816 -12.9175,-30.1408l1.5378 -0.922678c6.35556,4.36224 10.5602,21.3228 17.2233,30.1408 -5.02356,-10.3547 -9.1253,-30.6955 -15.0704,-31.0635l4.92095 -5.84362c5.02328,12.9164 9.17632,28.5474 15.6855,36.292l1.19906 -0.808441c-9.85182,-16.4356 -11.8996,-34.2513 -16.577,-37.944z"/>
  <polygon fill="black" points="325.283,309.371 325.743,315.055 332.196,313.673 330.353,308.91 "/>
  <path fill="white" d="M331.582 304.762c-5.0434,1.00347 -9.19616,1.27956 -12.1504,1.2892 -1.71865,-2.23058 -3.30208,-4.29959 -3.67427,-7.12744l1.84365 -0.921827c2.04775,6.4029 6.96501,4.45635 13.981,6.76007z"/>
  <path fill="white" d="M302.544 284.328c-3.12378,6.60643 -9.47424,16.9002 -9.37191,19.8193 -0.102331,1.89468 3.17537,2.86781 4.76277,4.30186l2.30457 -1.69002 -4.14822 -2.30457c2.81679,-2.91912 2.8681,-9.98646 7.06734,-17.0538l-0.614551 -3.07276z"/>
  <polyline fill="none" stroke="#644D36" stroke-width="1.41732" points="319.201,532.684 329.965,536.683 334.271,520.69 "/>
  <path fill="none" stroke="#644D36" stroke-width="1.41732" d="M326.89 523.765c4.51077,3.79304 9.43172,6.35585 14.7628,7.68898l6.45874 -23.0669"/>
  <polyline fill="none" stroke="#644D36" stroke-width="1.41732" points="340.115,517.614 354.878,523.458 361.336,499.16 "/>
  <path fill="none" stroke="#644D36" stroke-width="1.41732" d="M344.421 508.08c9.61115,4.74123 17.7613,7.04778 24.9123,7.68898l2.76803 -23.3745"/>
  <line fill="none" stroke="#644D36" stroke-width="1.41732" x1="354.57" y1="501.313" x2="378.56" y2= "508.387" />
  <path fill="none" stroke="#644D36" stroke-width="1.41732" d="M364.72 494.547c6.1509,1.94769 13.1219,3.07531 20.914,3.38315"/>
  <line fill="none" stroke="#644D36" stroke-width="1.41732" x1="319.816" y1="530.839" x2="317.048" y2= "539.758" />
  <path fill="#644D36" d="M317.663 536.99c7.72725,3.3704 28.4616,-5.52274 64.895,-29.2181 4.30555,-9.84161 4.10032,-18.0428 -0.615118,-24.6047l-3.99827 0c4.40816,9.32939 4.30555,17.4288 -0.307559,24.2972 -4.73018,2.3417 -17.5978,9.65623 -17.9368,14.5403 -7.5926,0.064063 -22.6018,13.153 -42.0372,14.9854z"/>
  <polygon fill="#644D36" points="369.025,489.318 376.714,481.63 377.022,489.011 "/>
  <line fill="none" stroke="#644D36" stroke-width="0.992126" x1="318.586" y1="518.844" x2="322.276" y2= "520.382" />
  <line fill="none" stroke="white" stroke-width="1.41732" x1="314.28" y1="528.686" x2="301.362" y2= "525.61" />
  <line fill="none" stroke="white" stroke-width="1.41732" x1="310.897" y1="525.303" x2="309.974" y2= "529.916" />
  <line fill="none" stroke="white" stroke-width="1.41732" x1="304.746" y1="514.846" x2="307.821" y2= "515.769" />
  <line fill="none" stroke="white" stroke-width="1.41732" x1="313.05" y1="516.999" x2="314.895" y2= "517.614" />
  <line fill="none" stroke="white" stroke-width="1.41732" x1="324.737" y1="509.002" x2="329.35" y2= "510.848" />
  <line fill="none" stroke="white" stroke-width="1.41732" x1="330.581" y1="504.389" x2="333.349" y2= "501.313" />
  <path fill="black" d="M376.302 476.346c0.448158,-0.783496 0.893481,-1.58542 1.3354,-2.40548 16.7105,12.8152 18.453,26.2449 6.15118,37.5222 -13.6942,10.7294 -32.0213,20.0319 -50.4397,28.603 -11.1555,4.70381 -19.652,3.33638 -25.0844,-0.858048l0.787181 -4.98558 6.45874 2.76803 -1.23024 1.23024 -3.99827 1.23024c23.7844,5.02328 52.7976,-18.2486 72.2764,-30.1408 10.986,-13.1669 7.36243,-23.8983 -6.25635,-32.9638z"/>
  <path fill="white" d="M322.122 506.849l-7.22693 5.53635 -2.68271 -2.56337c3.1714,-2.01062 5.47966,-3.76186 7.51408,-5.37194l2.39556 2.39896zm20.4659 -4.87644c-4.56123,-0.123591 -9.19616,-1.4828 -13.8526,-4.04249 -2.27877,1.32265 -4.06687,2.61978 -5.81329,3.98098l1.89978 1.04343 4.4555 -2.91912 3.84095 0c2.86781,1.74104 2.81651,3.02145 8.60372,5.22369l0.865985 -3.28649z"/>
  <path fill="white" d="M218.359 232.031l-28.0256 -6.29122 -4.86142 -0.255685 2.15093 2.76548 21.0484 5.99188 -1.2291 6.60643 4.4555 -6.76007 7.37462 1.84365 -0.913323 -3.90047zm71.1831 -120.985c-3.15666,-1.79745 -6.56249,-1.85074 -10.0165,-1.56331 -2.05285,31.2236 -38.7482,58.4796 -96.5736,103.032l1.75181 2.67562c50.1358,-38.8919 92.621,-71.6823 99.0964,-103.245l5.74186 -0.9zm-64.762 10.7391c-24.0412,29.8072 -44.5448,62.5621 -58.7438,100.572l-21.8367 -5.22851c-2.15291,0.204945 -3.4852,2.04973 -3.99827,5.53607l-7.68898 41.2129 9.78747 -2.13449 -6.45279 -6.14551 5.6846 -3.53367 -4.76277 -4.76277 9.06463 -2.91912 -6.29915 -5.6846 7.22098 -2.61184 -5.22369 -5.83824 7.98917 -3.68731 -5.6846 -4.91641c4.0972,-2.40718 24.1725,4.55783 28.423,1.99729l-2.45821 -2.76548c9.59386,-29.876 32.1097,-63.8326 57.3069,-98.6355l-2.32781 -0.454677z"/>
  <path fill="#644D36" d="M193.769 231.937l-3.07276 2.91912c3.07276,2.40662 6.14551,4.19896 9.21827,5.37733 -2.25354,-2.15093 -4.30243,-4.91641 -6.14551,-8.29645z"/>
  <path fill="#644D36" d="M201.604 250.988l-13.8274 5.53096c1.53638,-6.35046 6.14551,-8.19383 13.8274,-5.53096z"/>
  <path fill="black" d="M129.241 268.657l0.307276 3.84095c29.7544,3.73833 61.3525,15.0052 80.5062,17.2074l1.69002 -2.45821c-25.837,-6.40517 -53.3897,-12.5958 -82.5035,-18.5902z"/>
  <path fill="black" d="M139.995 266.66l0.921827 2.61184c41.2515,8.18107 48.2165,12.7641 67.7543,17.5147l0 -3.68731c-22.892,-5.47994 -45.9377,-11.8814 -68.6761,-16.4393z"/>
  <path fill="#644D36" d="M197.302 274.649c-1.74047,-1.12507 -8.65361,-4.50425 -13.0592,2.15093l3.07276 0.921827c2.09934,-2.25298 5.42807,-3.27714 9.98646,-3.07276z"/>
  <path fill="#644D36" d="M210.208 239.619c-0.298488,6.75752 -4.7537,13.8243 -2.30457,17.6684 3.48236,0.102331 1.43376,-1.94627 11.8301,-2.91912l-0.153638 -3.99458c-1.84365,0.204662 0.460914,3.17509 -7.83553,1.53638l1.2291 -12.291c-0.716882,-1.02416 -1.63899,-1.02416 -2.76548,0z"/>
  <path fill="#644D36" d="M206.367 260.207c-1.02784,2.62233 -4.79084,16.9863 -2.61184,21.0484 12.2397,-0.512221 3.43106,-7.01632 13.8274,-7.98917l1.99729 -5.37733c-3.54019,-1.33795 -6.20816,3.6771 -11.6765,4.60914l1.2291 -12.291c-0.716882,-1.02416 -1.63899,-1.02416 -2.76548,0z"/>
  <path fill="#BF9F4F" d="M274.428 273.42l-5.07005 27.0403c-2.7652,-4.96772 -4.86454,-4.81408 -14.1347,-7.83553l1.69002 -1.84365 10.1401 2.91912 0.307276 -2.15093c-3.17509,-0.614551 -5.42835,-0.614551 -9.52555,-3.2264l1.2291 -1.53638c3.07276,1.79206 6.14551,2.76491 9.21827,2.91912l1.69002 -2.30457 -7.83553 -2.30457 1.2291 -1.84365 6.60643 1.69002 1.2291 -3.53367 -4.60914 -1.07547 0.460914 -1.69002 4.76277 0.460914 0.614551 -2.30457 -3.07276 -0.614551 0.307276 -1.53638 3.07276 0.460914 0.307276 -2.45821 1.38274 0.768189z"/>
  <path fill="white" d="M204.677 255.598c-0.422362,6.63194 -1.57465,12.7772 -3.2264,18.5902l0 -0.614551 0.614551 -11.6765 -2.91912 -1.53638c2.61184,-0.358583 3.84095,-0.870804 5.53096,-4.76277z"/>
  <path fill="white" d="M209.747 162.339l-4.76277 6.60643c1.48536,5.47966 0.512221,16.7976 0.768189,25.1966l2.45821 -1.53638c0.512221,-10.0891 -3.73833,-18.0269 1.53638,-30.2667z"/>
  <path fill="white" d="M218.504 148.512l-4.76277 7.98917c1.35071,5.84362 -5.2937,14.8955 -3.07276,33.4931l1.69002 -1.53638c-2.63792,-16.8486 3.35424,-26.3744 6.14551,-39.9458z"/>
  <path fill="black" d="M106.502 226.56c-3.68731,-2.50923 -4.30186,-5.94057 -6.45279,-8.911l2.30457 0 1.53638 2.30457c0.256536,-1.28041 1.12706,-2.35559 2.61184,-3.2264 0.664158,2.25525 1.43121,4.35657 2.91912,5.37733l-0.614551 3.53367 -1.07547 -1.69002 -1.2291 2.61184z"/>
  <path fill="black" d="M87.912 231.63l0 3.99458c13.7744,5.22992 17.5921,-1.72375 24.2051,-2.74734 4.52438,-0.700158 10.4403,3.90784 21.4254,7.0492l0.460914 -5.6846c-6.62542,2.83238 -19.0593,-5.03348 -20.4747,-4.94192 -5.71663,0.369638 -19.0488,11.929 -25.6167,2.33008z"/>
  <path fill="white" d="M101.279 212.118l0 4.14822c0.870237,-2.10019 2.96986,-2.97071 6.29915,-2.61184 -0.871087,-1.332 -2.97071,-1.84394 -6.29915,-1.53638z"/>
  <path fill="white" d="M226.647 171.25c-0.460914,2.30457 -0.614551,4.30186 0,6.45279l2.30457 -1.84365c-1.02529,-1.02246 -1.69087,-2.76463 -2.30457,-4.60914z"/>
  <path fill="white" d="M246.159 178.471l1.69002 -0.614551c-0.563244,2.40662 -0.717166,4.60857 -0.460914,6.60643 -0.870804,-2.15093 -1.12677,-3.53367 -1.2291,-5.99188z"/>
  <path fill="black" d="M260.14 144.517l0.153638 2.45821c5.91506,-6.17074 11.1898,-13.2375 15.0565,-22.2775l-1.53638 -1.38274c-3.07984,8.54646 -7.72753,15.5248 -13.6738,21.202z"/>
  <path fill="black" stroke="black" stroke-width="0.216" d="M225.725 296.773c-0.613985,3.86646 -1.79206,6.32466 -3.2264,8.14281l1.2291 1.53638c1.28126,-2.20224 2.09962,-4.968 3.38003,-7.98917 5.99159,1.07518 12.649,1.33087 19.0511,0.768189 0.308693,2.81764 -0.101764,5.27499 -0.614551,7.68189 1.66394,-1.86945 1.86888,-4.42999 2.30457,-7.52826 5.06977,-0.81978 12.1881,0.0507402 20.1266,2.91912l0.307276 6.45279c3.53367,-7.27229 5.37733,-19.6143 8.911,-33.8003l-0.54737 -3.66775c-2.4806,10.3898 -5.72939,29.3831 -7.4418,31.1689 -12.8033,-7.11865 -27.9111,-2.40718 -43.4795,-5.6846z"/>
  <path fill="white" d="M240.935 306.759l26.1184 0.460914 -0.460914 -1.2291c-8.5527,0.256252 -17.4124,-0.102331 -25.6575,0.768189z"/>
  <line fill="none" stroke="white" stroke-width="0.708662" x1="274.889" y1="308.449" x2="293.633" y2= "313.826" />
  <path fill="white" d="M163.809 172.633c-0.614551,0.716599 -0.614551,1.43348 0,2.15093 2.38139,0.255685 4.63436,1.02359 6.60643,2.91912 0.921544,0.102047 1.43348,-0.410173 1.53638,-1.53638 -2.10019,-1.79291 -4.81436,-2.97071 -8.14281,-3.53367z"/>
  <path fill="white" d="M333.272 161.418l3.84095 11.3692 1.84365 -4.14822c-2.20224,-2.25354 -4.0972,-6.96501 -5.6846,-7.22098z"/>
  <path fill="black" d="M191.464 225.331c3.89197,-2.50923 8.0915,-4.8651 11.6765,-7.52826l-0.153638 -3.68731c-4.76334,3.50816 -8.39934,7.29837 -11.5228,11.2156z"/>
  <path fill="black" d="M332.497 134.211l-3.31002 -0.310677c5.32545,3.22498 -1.96441,5.45556 12.2998,26.8376 18.3152,27.4544 47.3718,53.9428 5.41191,74.3911 -7.26265,1.59931 -7.45144,7.812 -10.7155,9.4116 -7.17563,7.78706 -21.7327,7.27002 -19.6812,11.3664 22.983,56.0526 26.2823,54.2843 10.8204,62.6655 4.65307,21.4401 5.92243,40.6247 5.65455,58.7843 16.1759,13.2823 24.0735,31.4351 26.3069,52.92 11.3111,10.603 18.0074,23.5131 14.5525,41.5004l2.57017 4.62359 1.26624 -2.02309c1.52334,-18.1874 -3.26495,-33.5894 -15.6711,-45.6304 -3.11783,-22.3736 -11.8369,-39.5941 -25.1966,-52.5442 -1.02444,-21.9713 -2.81679,-41.6373 -6.29915,-56.2315 19.7677,-7.30574 1.37424,-28.4624 -9.52555,-62.9915 10.192,-3.66151 18.5907,-8.73156 23.0457,-16.9002 6.75468,-3.93307 26.8509,-8.27859 25.7947,-29.7757 -1.35921,-27.6625 -34.5617,-50.7288 -37.3238,-76.0933zm-67.2495 220.096c-8.60117,17.4294 -18.2594,32.3918 -29.3207,44.0802 2.67988,24.6039 -2.89332,41.5443 -17.3344,61.1252 1.80425,10.0877 -5.46463,21.4316 -18.4229,37.2609 3.48718,2.33348 -0.953292,6.20476 -1.83969,8.53824l3.73493 -0.359717c0.307276,-2.50951 1.53638,-4.40447 1.2291,-7.52826 7.5053,-4.5754 13.9518,-15.8066 18.5902,-38.4095 13.3532,-13.3917 18.0391,-33.5699 17.0538,-60.0724 17.7849,-16.628 21.7403,-30.1992 26.3098,-44.6346zm-130.57 -121.273c-6.68552,-1.88164 -13.0037,-4.35118 -18.8289,-7.60876l-2.12542 -2.24532 2.76548 -1.53638c3.94328,3.68703 9.93515,6.96444 17.9756,9.83282l0.213165 1.55764zm-34.3846 -4.30356c-0.521859,0.133512 -1.04939,0.259654 -1.58485,0.374457 -4.05836,-1.20841 -7.82504,-3.77972 -11.1359,-7.22041l2.64444 -1.62369c0.768189,2.7652 3.38003,5.32545 7.83553,7.68189l0.460914 -2.76548 1.77987 3.55323z"/>
  <path fill="black" d="M273.679 29.939c1.87569,-3.83103 3.04129,-7.9458 3.4971,-12.3443l-2.87858 0.543118 -4.61339 13.8402 3.99487 -2.03896zm3.9464 71.434c1.50888,4.06233 9.22252,3.5674 12.7692,4.49036 2.90835,0.756851 2.25525,3.55011 9.80363,2.74706 2.65606,-2.58747 -0.589607,-8.64681 -6.51855,-16.2845 3.63997,0.452693 7.27994,0.337323 10.3518,-0.34611 0.53915,-5.52926 -4.22334,-14.0879 -14.2875,-25.6757 2.16964,1.24101 4.34013,1.47288 6.51033,0.695055 3.09062,-4.30016 -1.45701,-10.6832 -9.47708,-18.0128 1.00063,-2.77512 5.03093,-1.5738 8.11446,-6.62089l-14.1355 6.22063c14.6602,11.0718 15.7876,16.4027 3.38315,15.9931 12.4299,13.4547 15.7898,21.3046 16.4619,25.1737 -5.256,-0.508252 -5.08281,1.04457 -13.3863,0.968882 4.41468,3.47584 8.19071,8.87925 11.7865,14.8215l-21.3761 -4.17033z"/>
  <path fill="white" d="M252.445 23.8329c-5.79515,-3.29499 -11.7377,-6.44996 -17.8781,-8.95947 -0.540567,0.668126 -0.954993,1.84167 -1.26624,3.49654l19.1444 5.46293zm22.3407 -10.0219c-1.49556,0.677764 -3.46989,1.83997 -5.97232,3.49314l5.17578 1.14123 0.796536 -4.63436zm20.1053 28.5545c-4.9252,-6.28866 -12.2485,-10.1784 -21.2128,-12.4265l0.310961 2.96164c5.45783,0.149953 11.5583,4.14936 17.8384,9.22678l3.0634 0.23811z"/>
 </g>
</svg>
