<?xml version="1.0" encoding="UTF-8" standalone="no"?>
<!-- Created with Inkscape (http://www.inkscape.org/) -->
<svg
   xmlns:svg="http://www.w3.org/2000/svg"
   xmlns="http://www.w3.org/2000/svg"
   version="1.0"
   width="499.99899"
   height="627.74652"
   id="svg1901">
  <defs
     id="defs1903" />
  <g
     transform="translate(-81.363757,-67.40885)"
     style="opacity:1"
     id="layer1">
    <path
       d="M 331.28512,111.37025 L 297.68936,223.877 L 290.50143,229.75235 L 279.09449,190.34374 L 278.81322,189.15617 L 278.56321,190.31249 L 259.78083,254.75385 L 248.81142,263.69189 L 257.18693,263.69189 L 295.28296,263.69189 L 300.31451,263.69189 L 413.85258,263.69189 L 405.41457,256.81648 L 385.88215,189.40618 L 385.72589,189.96872 L 385.53838,189.15617 L 384.00704,195.87532 L 373.75642,231.03368 L 366.44348,225.06457 L 331.28512,111.37025 z "
       style="fill:#0000bf;fill-opacity:1;stroke:#000000;stroke-width:2.00060105;stroke-miterlimit:4;stroke-dasharray:none;stroke-opacity:1"
       id="path21856" />
    <path
       d="M 97.896119,130.12138 C 96.318645,152.3798 95.145084,170.78295 93.427101,192.62513 L 116.39723,216.06403 C 145.25217,245.53848 157.93509,275.58412 158.27474,315.38249 C 158.61198,354.90074 143.60706,385.18765 108.30299,416.26354 L 81.863907,439.57744 L 88.614312,469.89176 C 108.90633,560.56595 184.52567,652.77392 306.84616,667.2161 C 314.7206,676.61628 322.76912,685.88715 331.34763,694.65525 C 339.99235,685.94364 347.97247,676.59335 355.88035,667.2161 C 478.20083,652.77392 553.82017,560.56595 574.11219,469.89176 L 580.8626,439.57744 L 554.42351,416.26354 C 519.11944,385.18765 504.11452,354.90074 504.45176,315.38249 C 504.79141,275.58412 517.47433,245.53848 546.32927,216.06403 L 569.2994,192.62513 C 567.58142,170.78295 566.40786,152.3798 564.83039,130.12138 C 491.53346,93.720587 413.23733,67.907224 331.17207,67.909 C 249.10679,67.910776 170.24236,96.53534 97.896119,130.12138 z "
       style="fill:#dfdfdf;fill-opacity:1;stroke:#000000;stroke-width:1.00030053;stroke-miterlimit:4;stroke-dasharray:none;stroke-opacity:1"
       id="path2167" />
    <path
       d="M 331.31602,278.95656 L 400.62759,278.95656 L 400.62759,471.47173 L 331.31602,471.47173 L 331.31602,278.95656 z M 331.31602,488.73292 L 413.39475,488.73292 L 413.39476,599.87391 L 331.31602,599.87391 L 331.31602,488.73292 z M 331.31602,471.47173 L 400.62759,471.47173 L 418.23207,488.73292 L 331.31602,488.73292 L 331.31602,471.47173 z M 331.31602,278.95656 L 400.62759,278.95656 L 413.14872,263.68811 L 331.31602,263.68811 L 331.31602,278.95656 z M 331.31602,599.87391 L 413.39476,599.87391 L 429.17608,618.38056 L 331.31602,618.38056 L 331.31602,599.87391 z M 331.24644,278.95656 L 261.93486,278.95656 L 261.93486,471.47173 L 331.24644,471.47173 L 331.24644,278.95656 z M 331.24644,488.73292 L 249.16771,488.73292 L 249.1677,599.87391 L 331.24644,599.87391 L 331.24644,488.73292 z M 331.24644,471.47173 L 261.93486,471.47173 L 244.28575,488.73292 L 331.24644,488.73292 L 331.24644,471.47173 z M 331.24644,278.95656 L 261.93486,278.95656 L 249.41374,263.68811 L 331.24644,263.68811 L 331.24644,278.95656 z M 331.24644,599.87391 L 249.1677,599.87391 L 233.38638,618.38056 L 331.24644,618.38056 L 331.24644,599.87391 z "
       style="fill:#ff0000;fill-opacity:0.94117647;stroke:#000000;stroke-width:2;stroke-linejoin:bevel;stroke-miterlimit:4;stroke-dasharray:none;stroke-opacity:1"
       id="path7108" />
    <path
       d="M 371.49095,534.51856 C 362.31442,534.68266 355.28517,541.76204 355.30417,551.50234 L 355.30417,591.6038 L 388.06961,591.6038 L 388.06961,550.39269 C 388.25667,541.18937 380.66747,534.35446 371.49095,534.51856 z M 365.76332,380.12074 C 359.0698,380.25979 353.94254,386.25863 353.95642,394.51223 L 353.95642,428.49284 L 377.85612,428.49284 L 377.85612,393.57194 C 377.99254,385.77336 372.45686,379.98168 365.76332,380.12074 z M 340.6191,448.97588 L 353.39007,448.97588 L 353.39007,462.36983 L 340.6191,462.36983 L 340.6191,448.97588 z M 380.4937,314.46125 L 390.46268,314.46125 L 390.46268,324.1454 L 380.4937,324.1454 L 380.4937,314.46125 z M 360.84494,314.46125 L 370.81391,314.46125 L 370.81391,324.1454 L 360.84494,324.1454 L 360.84494,314.46125 z M 341.37479,314.46125 L 351.34377,314.46125 L 351.34377,324.1454 L 341.37479,324.1454 L 341.37479,314.46125 z M 380.4937,286.41711 L 390.46268,286.41711 L 390.46268,296.10126 L 380.4937,296.10126 L 380.4937,286.41711 z M 360.84494,286.41711 L 370.81391,286.41711 L 370.81391,296.10126 L 360.84494,296.10126 L 360.84494,286.41711 z M 341.37479,286.41711 L 351.34377,286.41711 L 351.34377,296.10126 L 341.37479,296.10126 L 341.37479,286.41711 z M 377.95175,448.97588 L 390.72272,448.97588 L 390.72272,462.36983 L 377.95175,462.36983 L 377.95175,448.97588 z M 340.6191,354.30457 L 353.39007,354.30457 L 353.39007,367.69851 L 340.6191,367.69851 L 340.6191,354.30457 z M 377.95175,354.30457 L 390.72272,354.30457 L 390.72272,367.69851 L 377.95175,367.69851 L 377.95175,354.30457 z "
       style="fill:#0000bf;fill-opacity:1;stroke:#000000;stroke-width:1.00030053;stroke-miterlimit:4;stroke-dasharray:none;stroke-opacity:1"
       id="rect4115" />
    <path
       d="M 291.17354,534.51856 C 281.99702,534.68266 274.96777,541.76204 274.98677,551.50234 L 274.98677,591.6038 L 307.75222,591.6038 L 307.75222,550.39269 C 307.93927,541.18937 300.35007,534.35446 291.17354,534.51856 z M 296.27195,380.12074 C 302.96548,380.25979 308.09274,386.25863 308.07886,394.51223 L 308.07886,428.49284 L 284.17917,428.49284 L 284.17917,393.57194 C 284.04274,385.77336 289.57842,379.98168 296.27195,380.12074 z M 321.41618,448.97588 L 308.64521,448.97588 L 308.64521,462.36983 L 321.41618,462.36983 L 321.41618,448.97588 z M 281.54158,314.46125 L 271.5726,314.46125 L 271.5726,324.1454 L 281.54158,324.1454 L 281.54158,314.46125 z M 301.19035,314.46125 L 291.22137,314.46125 L 291.22137,324.1454 L 301.19035,324.1454 L 301.19035,314.46125 z M 320.66049,314.46125 L 310.69151,314.46125 L 310.69151,324.1454 L 320.66049,324.1454 L 320.66049,314.46125 z M 281.54158,286.41711 L 271.5726,286.41711 L 271.5726,296.10126 L 281.54158,296.10126 L 281.54158,286.41711 z M 301.19035,286.41711 L 291.22137,286.41711 L 291.22137,296.10126 L 301.19035,296.10126 L 301.19035,286.41711 z M 320.66049,286.41711 L 310.69151,286.41711 L 310.69151,296.10126 L 320.66049,296.10126 L 320.66049,286.41711 z M 284.08353,448.97588 L 271.31256,448.97588 L 271.31256,462.36983 L 284.08353,462.36983 L 284.08353,448.97588 z M 321.41618,354.30457 L 308.64521,354.30457 L 308.64521,367.69851 L 321.41618,367.69851 L 321.41618,354.30457 z M 284.08353,354.30457 L 271.31256,354.30457 L 271.31256,367.69851 L 284.08353,367.69851 L 284.08353,354.30457 z "
       style="fill:#0000bf;fill-opacity:1;stroke:#000000;stroke-width:1.00030053;stroke-miterlimit:4;stroke-dasharray:none;stroke-opacity:1"
       id="path5091" />
    <g
       id="g2225">
      <path
         d="M 250.0625,38.65625 L 222.75,160.03125 L 209.53125,168.78125 L 196.59375,122 L 177.8125,189.84375 L 168.09375,196.28125 L 176.03125,196.28125 L 323.96875,196.28125 L 331.875,196.28125 L 322.1875,189.84375 L 303.40625,122 L 290.46875,168.78125 L 277.3125,160.0625 L 250.0625,38.65625 z "
         transform="translate(81.363757,67.40885)"
         style="fill:#0000bf;fill-opacity:1;stroke:#000000;stroke-width:2.00060105;stroke-miterlimit:4;stroke-opacity:1"
         id="path2196" />
      <path
         d="M 343.63713,82.071134 C 345.46614,82.795026 346.36305,84.866939 345.63915,86.695943 C 344.91526,88.524946 342.84334,89.421849 341.01434,88.697958 C 339.18534,87.974067 338.28844,85.902153 339.01232,84.073149 C 339.73617,82.244275 341.80781,81.347351 343.63676,82.070991 M 321.71215,82.071134 C 323.54115,82.795026 324.43806,84.866939 323.71417,86.695943 C 322.99028,88.524946 320.91837,89.421849 319.08936,88.697958 C 317.26036,87.974067 316.36346,85.902153 317.08735,84.073149 C 317.81118,82.244275 319.88284,81.347351 321.71179,82.070991 M 332.67463,70.976636 C 334.50364,71.700526 335.40055,73.77244 334.67666,75.601444 C 333.95277,77.430447 331.88086,78.327351 330.05185,77.60346 C 328.22285,76.879569 327.32595,74.807654 328.04984,72.978652 C 328.77367,71.149776 330.84532,70.252852 332.67427,70.976493 M 320.42796,82.963551 L 342.29854,82.963551 L 342.29854,88.077565 L 320.42796,88.077565 L 320.42796,82.963551 z M 333.92025,74.837825 L 333.92025,104.3554 L 328.80623,104.3554 L 328.80623,74.837825 L 333.92025,74.837825 z "
         style="fill:#ff0000;fill-opacity:1;stroke:none;stroke-width:2;stroke-linejoin:bevel;stroke-miterlimit:4;stroke-opacity:1"
         id="path34685" />
      <path
         d="M 331.36324,189.40473 L 351.91326,263.68952 L 310.81325,263.68952 L 331.36324,189.40473 z "
         style="fill:#0000bf;fill-opacity:1;stroke:#000000;stroke-width:2.00060105;stroke-miterlimit:4;stroke-dasharray:none;stroke-opacity:1"
         id="path6103" />
      <g
         id="g2219">
        <path
           d="M 335.58311,102.55185 C 341.46855,104.8812 344.35464,111.54828 342.02528,117.43371 C 339.69591,123.31914 333.02884,126.20524 327.14339,123.87587 C 321.25794,121.5465 318.37186,114.87943 320.70124,108.99399 C 323.03043,103.10897 329.69668,100.22282 335.58195,102.55137"
           style="fill:#ff0000;fill-opacity:1;stroke:#000000;stroke-width:1.00030053;stroke-miterlimit:4;stroke-opacity:1"
           id="path2181" />
        <path
           d="M 387.98973,177.06251 C 392.47319,178.83698 394.67179,183.91592 392.89731,188.39939 C 391.1228,192.88286 386.04389,195.08146 381.56041,193.30696 C 377.07695,191.53247 374.87834,186.45355 376.65283,181.97009 C 378.4272,177.48693 383.50547,175.28828 387.98883,177.06216"
           style="fill:#ff0000;fill-opacity:1;stroke:#000000;stroke-width:1.00030053;stroke-miterlimit:4;stroke-opacity:1"
           id="path2179" />
        <path
           d="M 281.16609,177.06251 C 285.64955,178.83698 287.84816,183.91592 286.07366,188.39939 C 284.29918,192.88286 279.22024,195.08146 274.7368,193.30696 C 270.2533,191.53247 268.0547,186.45355 269.82921,181.97009 C 271.60356,177.48693 276.68184,175.28828 281.16522,177.06216"
           style="fill:#ff0000;fill-opacity:1;stroke:#000000;stroke-width:1.00030053;stroke-miterlimit:4;stroke-opacity:1"
           id="path2177" />
        <path
           d="M 334.57856,177.06251 C 339.06203,178.83698 341.26062,183.91592 339.48615,188.39939 C 337.71165,192.88286 332.63273,195.08146 328.14925,193.30696 C 323.66578,191.53247 321.46717,186.45355 323.24167,181.97009 C 325.01604,177.48693 330.0943,175.28828 334.57766,177.06216"
           style="fill:#ff0000;fill-opacity:1;stroke:#000000;stroke-width:1.00030053;stroke-miterlimit:4;stroke-opacity:1"
           id="path6106" />
      </g>
    </g>
  </g>
</svg>
