<?xml version="1.0" encoding="UTF-8"?>
<!DOCTYPE svg PUBLIC "-//W3C//DTD SVG 1.1//EN" "http://www.w3.org/Graphics/SVG/1.1/DTD/svg11.dtd">
<!-- Creator: CorelDRAW -->
<svg xmlns="http://www.w3.org/2000/svg" xml:space="preserve" width="500px" height="579px" shape-rendering="geometricPrecision" text-rendering="geometricPrecision" image-rendering="optimizeQuality" fill-rule="evenodd" clip-rule="evenodd"
viewBox="0 0 500 579"
 xmlns:xlink="http://www.w3.org/1999/xlink"
 xmlns:svg="http://www.w3.org/2000/svg"
 version="1.0">
 <defs>
   <linearGradient id="id0" gradientUnits="userSpaceOnUse" x1="204.362" y1="332.199" x2="228.878" y2="332.199">
    <stop offset="0" stop-color="#F00000"/>
    <stop offset="0.988235" stop-color="#9F0000"/>
    <stop offset="1" stop-color="#4D0000"/>
   </linearGradient>
   <linearGradient id="id1" gradientUnits="userSpaceOnUse" x1="144.485" y1="269.711" x2="167.356" y2="269.711">
    <stop offset="0" stop-color="#F00000"/>
    <stop offset="0.988235" stop-color="#9F0000"/>
    <stop offset="1" stop-color="#4D0000"/>
   </linearGradient>
   <linearGradient id="id2" gradientUnits="userSpaceOnUse" x1="90.044" y1="186.988" x2="113.57" y2="186.988">
    <stop offset="0" stop-color="#F00000"/>
    <stop offset="0.988235" stop-color="#9F0000"/>
    <stop offset="1" stop-color="#4D0000"/>
   </linearGradient>
   <linearGradient id="id3" gradientUnits="userSpaceOnUse" x1="32.072" y1="218.797" x2="54.8448" y2="218.797">
    <stop offset="0" stop-color="#F00000"/>
    <stop offset="0.988235" stop-color="#9F0000"/>
    <stop offset="1" stop-color="#4D0000"/>
   </linearGradient>
   <linearGradient id="id4" gradientUnits="userSpaceOnUse" x1="49.8005" y1="322.13" x2="71.7486" y2="322.13">
    <stop offset="0" stop-color="#F00000"/>
    <stop offset="0.988235" stop-color="#9F0000"/>
    <stop offset="1" stop-color="#4D0000"/>
   </linearGradient>
   <linearGradient id="id5" gradientUnits="userSpaceOnUse" x1="117.001" y1="407.488" x2="139.502" y2="407.488">
    <stop offset="0" stop-color="#F00000"/>
    <stop offset="0.988235" stop-color="#9F0000"/>
    <stop offset="1" stop-color="#4D0000"/>
   </linearGradient>
 </defs>
 <g id="Layer_x0020_1">
  <metadata id="CorelCorpID_0Corel-Layer"/>
  <path id="path1937" fill="#CCCCCC" stroke="#F00000" stroke-width="0.992126" d="M0.482173 1.01991l498.966 -0.296504 0.0776693 333.108c-19.8802,324.747 -480.301,326.344 -499.054,0.0788032l0.0107717 -332.89z"/>
  <path id="path1937_0" fill="#F00000" stroke="#F00000" stroke-width="0.992126" d="M0.482173 1.01991l498.966 -0.296504 0.0776693 333.108c-3.57194,58.3526 -21.369,106.272 -48.2706,143.73l-450.773 -476.542z"/>
  <path fill="white" d="M286.607 173.345c10.4888,6.08003 17.2103,16.5957 17.2103,30.5915 0,22.9677 -18.771,41.5939 -41.9173,41.5939 -23.1463,0 -41.9173,-18.6262 -41.9173,-41.5939 0,-14.474 7.7213,-25.2258 19.2249,-31.199l-0.440221 -6.44599 -21.1263 -0.0325984c0.751465,-14.7132 -3.22044,-25.7936 -14.095,-31.5649 -13.5774,-3.6961 15.4332,-16.7817 26.6706,16.0739l21.9019 -0.236126 -0.287717 -13.9425c-34.4251,-11.0945 -9.15988,-39.6267 -35.8725,-50.3859l0.609733 -9.28148 -19.5029 -0.937418 -0.0181417 -10.849 19.9137 -0.0130394 -0.809859 -10.711c24.7133,-9.85578 9.52101,-23.065 33.8987,-44.6576l0.145134 9.08278 22.9411 0.0337323c1.26567,-13.4235 8.2321,-13.0981 13.8572,-0.0300473l40.5987 0.331654c4.99323,17.7483 26.4183,12.3582 28.0585,0.931749l10.8981 0.185386c0.932882,26.6066 0.97115,19.7907 -15.9806,34.8835l65.2485 147.761c24.4392,41.565 39.1536,-16.4656 66.2755,1.96101 4.48895,29.221 -22.2483,-6.45307 -22.4257,14.8856 -0.072,8.68508 21.6017,16.6252 21.6743,40.9881 0.0731339,24.5982 -30.2851,25.4254 -28.4845,10.5344 24.736,12.4965 29.2057,-44.8648 -40.6026,-36.0955l-86.1849 -189.562c-3.85625,-9.77188 -22.4674,-10.2662 -27.3291,-4.83647l-7.00583 -2.08573c3.04611,5.41956 7.21078,10.5596 13.8356,15.0837l0.36 6.71018 3.28252 0.0994961 -0.431717 3.78992 14.3856 0.147969 0.217134 10.3742 -18.5647 0.00396851 0.0416693 13.9765c-2.21783,5.67156 -11.8074,10.9607 -12.9657,20.0616 -1.50123,11.7972 -9.6276,19.0264 -21.4166,27.4374l0.363402 14.2753 36.4252 0.331937 0.255685 18.1216 -20.4582 -0.145984 -0.455811 4.35487z"/>
  <path fill="black" d="M292.727 178.834c10.4888,6.08003 17.2103,16.5957 17.2103,30.5915 0,22.9677 -18.771,41.5939 -41.9173,41.5939 -23.1463,0 -41.9173,-18.6262 -41.9173,-41.5939 0,-14.474 7.7213,-25.2258 19.2249,-31.199l-0.440221 -6.44599 -21.1263 -0.0325984c0.751465,-14.7132 -3.22044,-25.7936 -14.095,-31.5649 -13.5774,-3.6961 15.4332,-16.7817 26.6706,16.0739l21.9019 -0.236126 -0.287717 -13.9425c-34.4251,-11.0945 -9.15988,-39.6267 -35.8725,-50.3859l0.609733 -9.28148 -19.5029 -0.937418 -0.0181417 -10.849 19.9137 -0.0130394 -0.809859 -10.711c24.7133,-9.85578 9.52101,-23.065 33.8987,-44.6576l0.145134 9.08278 22.9411 0.0337323c1.26567,-13.4235 8.2321,-13.0981 13.8572,-0.0300473l40.5987 0.331654c4.99323,17.7483 26.4183,12.3582 28.0585,0.931749l10.8981 0.185386c0.932882,26.6066 0.97115,19.7907 -15.9806,34.8835l65.2485 147.761c24.4392,41.565 39.1536,-16.4656 66.2755,1.96101 4.48895,29.221 -22.2483,-6.45307 -22.4257,14.8856 -0.072,8.68508 21.6017,16.6252 21.6743,40.9881 0.0731339,24.5982 -30.2851,25.4254 -28.4845,10.5344 24.736,12.4965 29.2057,-44.8648 -40.6026,-36.0955l-86.1849 -189.562c-3.85625,-9.77188 -22.4674,-10.2662 -27.3291,-4.83647l-7.00583 -2.08573c3.04611,5.41956 7.21078,10.5596 13.8356,15.0837l0.36 6.71018 3.28252 0.0994961 -0.431717 3.78992 14.3856 0.147969 0.217134 10.3742 -18.5647 0.00396851 0.0416693 13.9765c-2.21783,5.67156 -11.8074,10.9607 -12.9657,20.0616 -1.50123,11.7972 -9.6276,19.0264 -21.4166,27.4374l0.363402 14.2753 36.4252 0.331937 0.255685 18.1216 -20.4582 -0.145984 -0.455811 4.35487z"/>
  <path fill="#006F00" d="M25.6584 74.3857c5.42041,-2.29408 15.1373,7.03871 20.3465,16.022 5.20951,8.98328 3.73493,16.2785 12.7375,24.6487 6.85985,6.37824 14.0995,16.6139 15.2589,28.41 0.769607,7.83298 13.1051,22.5323 12.7624,34.1501 -0.688252,23.3164 -9.65651,48.6108 4.29988,63.1009 -0.974552,-16.2264 1.06639,-27.4266 1.09701,-41.6424 0.194457,-2.01628 5.24807,0.658772 7.78763,1.15484 2.24107,0.437953 7.49849,0.709229 6.38901,1.81758 -5.78892,6.14778 -7.38936,25.6978 -5.30419,56.9747 7.52344,11.4914 7.3406,29.5166 17.0419,38.4954 0.29537,-22.2959 -11.3034,-30.0175 -10.3382,-48.2925 0.493796,-9.3498 3.31399,-18.4827 1.27304,-32.2846 -2.232,-15.0942 8.3795,-16.0316 8.83021,-33.933 0.167528,-6.64952 -0.594425,-16.2179 1.32945,-22.8592 0.996095,-3.43843 3.86561,-7.92085 6.7938,-11.9435 4.104,5.0743 -4.02945,7.93418 13.7736,31.2795 14.3535,18.8215 16.026,48.1099 7.78394,67.8252 -4.21994,10.0939 -2.73855,19.3751 -5.61203,24.8621 -6.09733,11.6442 -17.1403,16.9863 -13.3455,37.8156 3.71282,7.38879 8.51471,13.8705 14.9083,19.0262 -3.53452,-20.4653 5.99811,-30.5439 0.45326,-47.1558 -0.199276,-1.94287 3.74457,0.213449 7.579,0.891213 4.34636,0.768189 8.76756,0.257669 7.39531,2.68895 -5.41786,6.90038 -5.15282,17.1975 -5.0349,27.0544 0.250299,20.9171 8.64114,43.3766 22.5091,51.9489 2.31534,-18.3314 -13.7965,-29.1251 -11.3145,-47.6238 0.888378,-6.62174 1.98539,-17.8223 5.69991,-26.7738 6.21213,-14.9706 -3.09175,-26.1156 4.96262,-37.7816 7.68898,-11.1368 12.4481,-22.1973 14.4077,-24.0843 5.59219,12.822 14.6625,48.0232 13.3107,71.4226 -1.95988,33.9279 -21.0643,50.6812 -11.0208,74.0679 5.80082,6.00322 12.1881,11.615 20.6734,15.8292 -2.42929,-8.44101 -4.41921,-20.0424 -4.23099,-28.497 0.213732,-9.6018 -2.5801,-10.5262 -2.17956,-15.8284 0.216284,-3.19238 3.68589,-0.852378 7.03588,-0.405355 3.37805,0.450709 6.69402,-0.981638 5.31922,1.85698 -5.81925,17.8039 -0.972284,36.8362 18.2271,61.7888l18.1378 10.4729c-0.6463,-9.93119 -8.70662,-21.4917 -9.46829,-26.4858 -0.502866,-3.29726 -9.00879,-21.9325 -9.54652,-28.9718 -0.956126,-12.5144 0.27978,-21.3673 -2.40832,-31.2296 -4.28542,-15.7238 8.33188,-27.3164 4.12469,-55.1469 3.02173,3.40441 18.5647,18.9366 25.1765,31.1726 9.50089,17.5819 9.93856,38.4939 10.6149,54.5794 1.61376,38.3842 -11.4333,55.7623 -0.443906,64.9432 1.73084,2.00268 19.042,15.3972 26.3016,17.0649 -0.290835,-4.73868 -6.6532,-11.0509 -9.2829,-17.8087 -3.7131,-9.54256 -3.81373,-19.6416 -2.10132,-24.5634 3.61729,-10.3955 -7.37093,-36.7693 -3.04895,-44.045 5.00627,-8.42826 4.83591,-14.2424 8.66608,-18.2787 4.30328,7.64476 9.07767,19.7708 14.1684,29.4667 3.59745,6.85163 7.27115,10.4783 9.1321,18.7467 6.81109,30.2579 -6.77792,44.2542 -0.217701,63.6477 10.3433,15.7079 23.5347,27.2279 37.061,49.6372l10.2229 0.66274c-5.33821,5.41701 -4.20038,15.9704 -10.0715,18.7291 -3.75251,1.76343 -17.1621,5.33169 -21.8166,13.3637 -4.64627,8.01723 -7.95119,13.2222 -14.3952,14.8742 -15.656,4.01386 -22.7976,-11.5379 -15.7555,-20.4744 1.03776,0.686552 1.42299,3.93336 2.62091,6.47944 1.75124,3.72161 9.16158,4.98161 11.7023,-5.11399 2.91487,-11.5812 25.2652,-23.8 -4.65676,-48.9997 -14.944,-11.9001 -32.8439,15.2711 -40.282,16.3466 -13.4371,1.94258 -16.0044,15.1727 -39.4569,17.644 -11.6235,1.22485 -14.3334,-2.9384 -43.2414,-7.08974 1.7331,-3.84492 13.4552,-9.96237 20.0877,-17.03 7.07103,-7.53534 13.354,-13.4646 21.1105,-12.7083 8.22246,0.801922 15.675,-2.016 23.9414,-7.95175 6.91909,-4.96829 22.3588,-4.89657 31.9224,-2.42051 5.80422,1.50293 6.91937,1.63984 8.89002,0.365386 -14.6823,-12.3304 -30.3097,-22.7702 -46.7782,-31.5255 -12.409,-2.3023 -20.268,8.32082 -21.6014,16.3307 -0.867685,5.21292 -7.0458,12.9288 -15.2615,17.5363 -11.3136,6.34479 -21.3863,15.2116 -30.596,21.2207 -15.1518,9.8864 -32.9942,6.55654 -39.3764,7.40807 -15.9579,2.12967 -24.0423,-3.19975 -34.5155,-5.01024l26.6803 -26.9266c-21.399,-13.6123 -41.1214,-5.09216 -59.167,-21.7225 10.4732,-8.9093 24.7859,-6.48709 43.9937,-17.7758 24.8964,-14.6319 41.3031,5.72174 66.2434,-4.1349 13.6386,-5.3898 24.1223,3.33241 42.0149,0.986457 -5.66448,-7.7247 -18.6517,-13.1576 -26.5524,-19.6515 -36.5349,-4.78715 -53.9978,-2.89559 -58.3385,4.83761 -3.3188,2.43553 -2.36325,-3.22044 -3.43162,-7.19972 -0.643181,-2.39471 -10.2623,-6.99081 -3.51723,-6.75695 16.7318,-2.63849 33.5753,-3.82309 48.1836,-3.55351l-18.1066 -13.7957c-39.0113,-7.83128 -49.5187,53.4172 -134.136,17.7528 4.14964,-10.0604 16.0121,-7.37802 32.5695,-22.1332 -17.0289,-1.34362 -32.2129,-13.7551 -46.5577,-31.1978 8.36448,-4.71288 24.0506,3.34035 41.0811,-4.80444 22.1372,-10.5866 40.6375,1.95817 55.2923,3.8058 17.7781,2.24107 17.1091,13.9405 30.2397,15.1044 -15.1549,-20.1464 -48.3061,-36.2962 -69.9435,-29.1671 -4.23071,0.759685 -1.19764,-4.28967 -1.36913,-6.27789 -0.227906,-2.64019 -2.03046,-7.98577 1.6492,-8.28993 11.2904,4.51219 25.5988,3.32362 43.2607,10.8541l-8.99972 -11.4282c-6.52422,-2.99906 -18.1318,0.00992126 -30.2888,-1.77789 -8.87103,-1.3045 -16.1365,-7.3372 -23.425,-8.40076 -14.8425,-2.16595 -18.3396,-14.0196 -24.8814,-20.7919 -13.3251,-13.7954 -18.1976,-30.1697 -17.7341,-40.0706 0.413858,-8.83616 -4.14482,-15.6436 -2.11805,-22.6817 30.712,12.6292 25.856,26.7971 45.4981,35.7208 22.7908,10.3541 29.6212,38.4911 45.4025,42.9381 -11.9109,-36.2631 -31.1457,-54.3566 -54.6837,-64.6793 -3.25559,-1.83912 3.21449,-4.35005 5.65909,-5.85326 2.38365,-1.4658 6.23226,-7.36725 8.34237,-4.84696 -1.06044,7.91575 4.25055,9.79541 18.9513,20.0588 -5.86488,-34.5036 -19.8224,-33.607 -33.2915,-53.191 -7.32643,-10.6526 -15.173,-36.9201 -16.6538,-47.4049 -2.30202,-16.3001 3.3446,-22.5502 2.22463,-29.8443 -1.77676,-11.5733 -1.02019,-18.392 -0.731622,-21.1725 0.997229,-9.6035 -5.19307,-10.6603 -4.52268,-16.393z"/>
  <path fill="#CCCCCC" d="M289.127 175.234c10.4888,6.08003 17.2103,16.5957 17.2103,30.5915 0,22.9677 -18.771,41.5939 -41.9173,41.5939 -23.1463,0 -41.9173,-18.6262 -41.9173,-41.5939 0,-14.474 7.7213,-25.2258 19.2249,-31.199l-0.440221 -6.44599 -21.1263 -0.0325984c0.751465,-14.7132 -3.22044,-25.7936 -14.095,-31.5649 -13.5774,-3.6961 15.4332,-16.7817 26.6706,16.0739l21.9019 -0.236126 -0.287717 -13.9425c-34.4251,-11.0945 -9.15988,-39.6267 -35.8725,-50.3859l0.609733 -9.28148 -19.5029 -0.937418 -0.0181417 -10.849 19.9137 -0.0130394 -0.809859 -10.711c24.7133,-9.85578 9.52101,-23.065 33.8987,-44.6576l0.145134 9.08278 22.9411 0.0337323c1.26567,-13.4235 8.2321,-13.0981 13.8572,-0.0300473l40.5987 0.331654c4.99323,17.7483 26.4183,12.3582 28.0585,0.931749l10.8981 0.185386c0.932882,26.6066 0.97115,19.7907 -15.9806,34.8835l65.2485 147.761c24.4392,41.565 39.1536,-16.4656 66.2755,1.96101 4.48895,29.221 -22.2483,-6.45307 -22.4257,14.8856 -0.072,8.68508 21.6017,16.6252 21.6743,40.9881 0.0731339,24.5982 -30.2851,25.4254 -28.4845,10.5344 24.736,12.4965 29.2057,-44.8648 -40.6026,-36.0955l-86.1849 -189.562c-3.85625,-9.77188 -22.4674,-10.2662 -27.3291,-4.83647l-7.00583 -2.08573c3.04611,5.41956 7.21078,10.5596 13.8356,15.0837l0.36 6.71018 3.28252 0.0994961 -0.431717 3.78992 14.3856 0.147969 0.217134 10.3742 -18.5647 0.00396851 0.0416693 13.9765c-2.21783,5.67156 -11.8074,10.9607 -12.9657,20.0616 -1.50123,11.7972 -9.6276,19.0264 -21.4166,27.4374l0.363402 14.2753 36.4252 0.331937 0.255685 18.1216 -20.4582 -0.145984 -0.455811 4.35487z"/>
  <path fill="url(#id0)" d="M218.018 319.717c6.23877,0 10.0746,6.21695 10.4675,14.4729 0.392882,8.25591 -6.17074,10.4924 -12.4095,10.4924 -6.23877,0 -11.7136,-3.42539 -11.7136,-10.1098 0,-6.68438 7.41685,-14.8555 13.6556,-14.8555z"/>
  <path fill="url(#id1)" d="M157.907 257.838c5.86233,0 8.89597,5.43118 9.28886,13.6871 0.392882,8.25591 -4.79566,10.059 -11.0344,10.059 -6.23877,0 -11.9101,-4.95638 -11.9101,-11.6408 0,-6.68438 7.7933,-12.1054 13.6556,-12.1054z"/>
  <path fill="url(#id2)" d="M102.006 175.397c5.86205,0 10.7782,4.6783 11.1711,12.9342 0.392882,8.25591 -4.98388,10.2472 -11.2227,10.2472 -6.23877,0 -11.9101,-4.95638 -11.9101,-11.6408 0,-6.68438 6.09959,-11.5407 11.9616,-11.5407z"/>
  <path fill="url(#id3)" d="M43.469 207.018c5.86205,0 10.59,5.80791 10.9828,11.9931 0.392882,6.1852 -4.79566,11.5648 -11.0344,11.5648 -6.23877,0 -11.3454,-5.33282 -11.3454,-12.0172 0,-6.68438 5.53493,-11.5407 11.397,-11.5407z"/>
  <path fill="url(#id4)" d="M61.9146 310.728c7.55604,-0.188221 9.27241,5.80791 9.6653,11.9931 0.392882,6.1852 -4.79566,11.0001 -11.0344,11.0001 -6.23877,0 -10.969,-4.76816 -10.969,-11.4525 0,-6.68438 4.78205,-11.3525 12.3381,-11.5407z"/>
  <path fill="url(#id5)" d="M128.921 395.803c8.49714,-0.188221 10.0253,5.80791 10.4182,11.9931 0.392882,6.1852 -5.36032,11.5648 -11.5991,11.5648 -6.23877,0 -10.969,-4.57994 -10.969,-11.2643 0,-6.68438 3.65273,-12.1054 12.1499,-12.2936z"/>
  <path fill="white" d="M218.558 323.052c0.29452,0.741827 -1.70277,0.577134 -3.20542,1.40372 -1.50265,0.826583 -2.03499,2.70907 -2.5183,1.77846 -0.483307,-0.930615 0.572599,-2.27112 2.07525,-3.0977 1.50265,-0.826583 3.35395,-0.8263 3.64847,-0.0844725z"/>
  <path fill="white" d="M159.153 262.052c0.10885,0.790583 -1.79121,0.153638 -3.44778,0.59726 -1.65657,0.443622 -2.62318,2.14469 -2.87036,1.12535 -0.246898,-1.01906 1.09871,-2.06844 2.75528,-2.51206 1.65657,-0.443906 3.45402,-0.00141732 3.56287,0.789449z"/>
  <path fill="white" d="M127.271 399.658c0.29452,0.741827 -1.70277,0.577134 -3.20542,1.40372 -1.50265,0.826583 -2.03499,2.70907 -2.5183,1.77846 -0.483307,-0.930615 0.572599,-2.27112 2.07525,-3.0977 1.50265,-0.826583 3.35395,-0.8263 3.64847,-0.0844725z"/>
  <path fill="white" d="M60.4525 314.77c0.29452,0.741827 -1.70277,0.577134 -3.20542,1.40372 -1.50265,0.826583 -2.03499,2.70907 -2.5183,1.77846 -0.483307,-0.930615 0.572599,-2.27112 2.07525,-3.0977 1.50265,-0.826583 3.35395,-0.8263 3.64847,-0.0844725z"/>
  <path fill="white" d="M104.193 179.988c-0.0790867,1.73225 -2.16765,-0.222803 -3.82422,0.220819 -1.65685,0.443906 -4.31745,2.52114 -4.37613,0.937134 -0.0586772,-1.58372 2.03953,-2.06816 3.6961,-2.51206 1.65657,-0.443622 4.58362,-0.377858 4.50425,1.35411z"/>
  <path fill="white" d="M42.4477 211.551c0.537733,1.09672 -1.16079,0.853796 -2.27622,2.15632 -1.11543,1.3028 -1.75862,4.33219 -2.70284,3.05915 -0.943937,-1.27304 0.136063,-2.6708 1.2515,-3.97361 1.11543,-1.30252 3.18983,-2.33887 3.72756,-1.24186z"/>
  <path fill="black" d="M78.5311 298.867l6.21128 0c-7.43471,-5.00372 -13.081,-10.3048 -17.5045,-15.8105l2.82331 -2.07043c-2.70652,-1.92302 -7.3321,-3.76526 -12.7843,-7.20284 -5.80422,-3.65953 -12.4464,-8.90249 -15.2856,-10.2745 -8.00136,-3.86674 -10.0077,-16.0115 -12.3976,-18.661 -0.438803,1.88221 -0.125008,3.76441 0.941103,5.64662 -4.07792,0.43937 -5.33282,-3.2624 -9.97569,-2.63509 4.95695,0.470835 3.51383,4.67518 10.9168,4.89373l5.27018 9.59925c-2.9486,1.44312 -5.52104,-2.57216 -10.5404,-0.188221 4.89373,5.08196 8.2817,1.50576 12.4226,2.25865 3.19975,2.72948 6.39978,4.86312 9.59925,6.58772 0.376441,1.12932 -7.52882,-1.31754 -7.90526,2.82331 3.26268,-2.13307 11.4188,0.815811 12.6108,-0.752882l9.59925 6.96416c-2.47748,1.09814 -9.69194,-0.407339 -14.6812,2.63509 6.90152,-0.752882 12.8619,-0.752882 16.7516,0 3.82621,5.60013 8.09235,11.09 13.9283,16.187z"/>
  <path fill="black" d="M64.791 275.528l-7.15238 -10.1639c1.25461,3.76441 1.75663,7.3406 7.15238,10.1639z"/>
  <path fill="black" d="M127.468 331.806c-12.1462,-26.2395 -22.4107,-26.5164 -34.0231,-26.6239 -6.73739,-0.0623622 -15.0523,0.252 -20.9242,-3.47414 -11.2604,-7.14501 -17.1369,-3.14873 -29.1872,-9.80476 6.16706,10.1245 17.2911,2.052 26.0969,11.6901 3.59858,3.93846 17.7072,4.25282 26.6182,4.04136 10.3368,-0.245197 16.6142,3.4784 21.0178,10.3714 2.00154,3.13314 4.36309,7.3698 5.23021,11.3981l5.17153 2.4018z"/>
  <path fill="black" d="M183.558 355.334c1.56869,-10.9794 -3.63884,-14.0536 -2.63509,-25.0333 6.74051,-5.7172 11.8117,-11.6249 12.7817,-15.0443 0.931749,-3.28337 4.30328,-5.53068 5.09925,-9.23613 -2.03896,2.25865 -6.33714,6.96444 -9.62306,11.1521 -3.28564,4.18762 -4.80728,7.85821 -6.56391,8.04643 1.00035,-9.17802 2.94463,-13.6313 3.76441,-23.7158 -1.00403,2.88624 -2.00778,3.88999 -3.01153,8.65815 -3.19975,-11.0421 -7.3406,-8.90901 -7.90526,-16.187 -1.41165,5.48986 2.86696,6.55059 3.27033,9.69364 0.363402,2.83068 2.18806,4.57994 4.07027,7.43443l-0.752882 7.71704c-4.03881,-1.70164 -4.89884,-3.76384 -5.12419,-5.94964 -0.326835,-3.16914 -3.39279,-1.49698 -4.66328,-8.54334 -0.267591,1.81928 -0.803056,3.63969 0,5.4584l-2.63509 -1.12932c1.16958,1.8343 2.94293,4.10712 4.14397,4.77468 3.35424,1.86435 0.0909922,2.72948 7.14926,8.02432l-0.564662 7.15238c-3.70148,-3.95263 -9.47367,-10.5404 -11.105,-11.8579 0.752882,4.89373 5.27018,4.51729 10.1639,14.6812 0.25115,11.3562 2.196,14.4303 4.14085,23.904z"/>
  <path fill="black" d="M188.452 297.926c0.752882,-11.5444 4.89373,-7.08974 6.77594,-17.1281 0.564662,10.7912 -2.63509,4.83081 -6.77594,17.1281z"/>
  <path fill="black" d="M183.558 288.892c-2.38422,-4.70551 -3.4509,-9.97569 -7.15238,-14.1165 1.63077,5.70926 3.26211,10.4148 7.15238,14.1165z"/>
  <path fill="black" d="M188.64 271.387c0.376441,-3.51355 2.82331,-5.70955 2.82331,-8.84637 2.25865,5.96013 -1.50576,4.57994 -2.82331,8.84637z"/>
  <path fill="black" d="M185.817 281.739l0 -8.2817c1.00375,2.7601 1.00375,5.52076 0,8.2817z"/>
  <path fill="black" d="M186.946 253.318c0.502016,-3.89027 0.501733,-7.78026 0,-11.6697 -1.00375,3.88942 -1.00375,7.77941 0,11.6697z"/>
  <path fill="black" d="M257.717 400.506l0.188221 -3.95263c-11.903,-24.5254 0.463181,-44.0354 3.83641,-48.363 3.37947,-4.33559 3.58725,-11.2785 3.50419,-19.961 -2.44687,7.96819 -1.88221,16.1243 -7.3406,20.516 -0.501449,-6.96444 -1.00347,-11.1679 -1.50576,-14.1165 2.38025,-2.35588 3.32873,-8.43421 3.19975,-17.3163 -1.10381,6.4287 -1.80709,14.3306 -4.51729,14.8694 -2.5166,-18.5907 -6.13985,-27.5927 -10.1639,-33.1268 3.57619,12.0461 5.4584,24.0922 7.90526,36.1383 -4.14085,-1.81928 -4.14085,-4.39172 -6.21128,-6.58772 0.219118,3.76469 2.85477,6.83915 6.58772,9.59925 3.07446,21.2063 -2.69773,20.0143 -2.63509,32.5622 -4.39172,-1.81928 -4.83081,-4.39172 -7.52882,-6.58772 1.88221,3.70177 2.63509,5.89777 7.90526,8.84637 -0.191339,7.98407 1.94343,16.9875 6.77594,27.4802z"/>
  <path fill="black" d="M247.553 357.969c-2.44488,-3.45317 -5.77106,-5.08366 -9.22281,-8.46993 2.41512,3.57591 5.30107,7.1521 9.22281,10.7286l0 -2.25865z"/>
  <path fill="black" d="M250.565 348.934c-2.13336,-2.32158 -2.196,-5.20753 -6.3995,-6.96416l6.21128 9.03459 0.188221 -2.07043z"/>
  <path fill="black" d="M254.141 372.838c4.392,-3.32532 8.40728,-8.72108 12.6108,-19.5749 0.502299,6.88536 -3.07361,14.3827 -12.6108,22.7747l0 -3.19975z"/>
  <path fill="black" d="M307.407 449.067l1.12932 -5.83484c-6.3995,-16.124 -2.07043,-33.0012 -6.21128,-56.8426l-1.12932 15.0576c0.459213,-0.702142 -2.49704,-2.76747 -3.95263,-8.84637 0.502016,4.83137 2.00778,8.90958 4.51729,12.2343l0 4.51729c-2.69773,-1.94485 -3.8897,-4.64259 -5.83484,-6.96416 -1.81928,5.39575 3.51355,7.02709 5.27018,11.105l0.376441 5.64662c-4.32907,-2.82331 -3.38797,-6.77594 -6.77594,-9.03459 0.753166,5.6469 3.07474,8.34492 7.3406,11.4815 0.595843,8.5955 1.03521,17.3795 5.27018,27.4802z"/>
  <path fill="black" d="M143.844 193.087c11.13,29.9951 -1.28041,52.6102 -1.65345,63.4913 -0.478772,13.966 -16.0498,20.5362 -18.1097,43.6062l-2.82331 -1.12932c2.82529,-28.5163 18.8269,-28.6118 18.8286,-41.8819 0.00141732,-11.4772 6.18435,-26.1031 6.40063,-38.9126 0.316347,-18.7464 -4.3886,-16.9821 -2.64274,-25.1737z"/>
  <path fill="black" d="M130.856 226.026c5.14488,-7.3406 2.57244,-8.2817 7.52882,-12.9872 1.2549,7.52882 -1.25461,5.83484 -7.52882,12.9872z"/>
  <path fill="black" d="M137.068 204.192c0.506835,3.32561 -3.57336,4.76873 -6.21128,9.97569 -0.564662,-6.71301 3.76441,-7.77969 6.21128,-9.97569z"/>
  <path fill="black" d="M125.963 253.694c0.690803,-1.24866 1.31811,-3.00104 1.50576,-8.2817 2.13279,-0.125291 3.51298,-2.25808 4.14085,-6.3995 -1.56898,4.15106 -3.13739,4.77468 -4.70551,4.89373 1.22343,-11.34 -5.47711,-13.4274 -2.07213,-21.8086 1.12734,-2.77484 5.71096,-25.772 1.31924,-34.2811 1.50576,15.1832 -0.752882,14.9324 -1.12932,22.3982 -3.45062,0.752882 -5.01903,-4.14085 -7.71704,-6.58772l-3.01153 1.69399 10.1639 9.78747c-2.14101,6.823 -3.25077,6.70564 -5.10548,9.92863 -3.1235,5.42863 5.41134,0.846993 5.67014,18.3045 -4.51729,-4.76816 -5.08196,-8.59522 -13.5519,-14.3048 0.752882,4.32907 10.1639,8.65815 9.03459,12.9872 -2.25865,-1.00687 -4.51729,-0.691937 -6.77594,-0.188221 3.89027,0.125858 7.78026,1.50633 11.6697,4.14085 0.188221,2.57244 0.376441,5.14488 0.564662,7.71704z"/>
  <path fill="black" d="M122.01 278.163c-0.0048189,-3.19975 0.430299,-6.3995 3.95263,-9.59925l-6.58772 0c0.558142,3.20003 1.05222,6.39978 2.63509,9.59925z"/>
  <path fill="black" d="M134.621 260.282l-7.15238 11.2932 -2.07043 -9.22281c2.5098,-2.07043 3.51355,-4.14085 7.52882,-6.21128l-2.82331 5.83484 4.51729 -1.69399z"/>
  <path fill="black" d="M102.059 399.565c19.4496,-4.20378 34.3817,-27.9822 61.1717,-25.0333l-3.38797 -3.38797c-19.4494,-1.06668 -40.0281,18.3827 -57.7837,28.4213z"/>
  <path fill="black" d="M42.0163 390.907c20.0733,-1.04287 65.1586,-6.98004 98.4394,-21.2689l-9.59925 0c-7.17194,1.71695 -15.6589,7.06564 -21.5158,7.40948 -13.1295,0.771307 -33.3689,5.84844 -37.6379,7.37745 -7.32983,2.62545 -20.232,2.54466 -29.6864,6.48199z"/>
  <polygon fill="black" points="88.8832,392.789 78.3428,401.448 83.4248,401.448 89.0714,396.177 "/>
  <polygon fill="black" points="81.7308,395.236 77.4017,399.001 71.1905,402.2 77.0253,395.613 "/>
  <path fill="black" d="M73.6373 394.86c-3.2624,2.25865 -7.84233,2.07043 -9.41103,7.90526 3.07446,-2.32158 7.6544,-5.58397 9.41103,-7.90526z"/>
  <path fill="black" d="M52.9331 400.318c4.70551,-2.88624 9.97569,-4.45465 14.1165,-5.27018 -5.27018,2.88595 -6.96416,5.39547 -14.1165,5.27018z"/>
  <path fill="black" d="M62.1559 393.354c-1.19225,3.32532 -11.607,3.4509 -14.8694,8.2817 0.627307,-7.84233 8.97166,-5.1446 14.8694,-8.2817z"/>
  <path fill="black" d="M40.5105 364.368c15.1832,7.96791 40.1995,4.29761 57.1723,-4.37613 24.829,-12.689 36.8127,1.49017 55.3836,3.62325 -21.3137,2.43014 -27.7583,-13.0275 -58.472,0.890646 -41.2325,18.6849 -51.4899,0.485859 -54.0839,-0.137764z"/>
  <polygon fill="black" points="66.1085,349.499 60.2737,341.405 55.9446,342.535 63.2852,347.993 "/>
  <path fill="black" d="M45.9689 352.51l-12.0461 -5.4584c2.88595,6.0857 8.03056,3.70148 12.0461,5.4584z"/>
  <polygon fill="black" points="48.4158,353.263 48.7922,355.522 56.6975,353.828 "/>
  <path fill="black" d="M100.176 348.181l-13.3637 -2.25865c5.45811,-1.50576 9.91248,-0.752882 13.3637,2.25865z"/>
  <path fill="black" d="M87.3774 351.946c-2.196,-4.58022 -11.5444,-0.313795 -17.3163,-8.65815 2.76038,4.95638 11.1677,10.6656 17.3163,8.65815z"/>
  <path fill="black" d="M77.4017 353.451l-10.7286 2.25865c3.89055,0.818363 7.15267,-0.562961 10.7286,-2.25865z"/>
  <path fill="black" d="M82.6719 353.263c-3.35254,1.1469 -6.3292,3.04725 -9.68174,4.19386 -3.79899,1.29969 -7.97585,1.84706 -11.7754,3.14674 9.26958,-0.329386 16.7043,-2.49364 21.4571,-7.3406z"/>
  <path fill="black" d="M85.4952 357.216c-3.35254,1.1469 -4.63521,2.10614 -7.98775,3.25276 -3.79899,1.29969 -7.97585,1.84706 -11.7754,3.14674 9.26958,-0.329386 15.0103,-1.55254 19.7632,-6.3995z"/>
  <path fill="black" d="M92.2712 355.898c-6.45109,7.10561 -14.1131,5.887 -19.0103,10.9168 10.1296,-0.473386 16.5416,-5.88558 19.0103,-10.9168z"/>
  <path fill="black" d="M73.6373 192.334l-7.71704 -5.64662c-3.28706,-11.7 -12.5118,-17.786 -21.4571,-26.7273 4.95666,0.564662 9.91304,8.46993 14.8694,10.1639l-1.31754 -5.4584c-1.69399,-2.44687 -9.03459,-4.70551 -13.5519,-10.7286 5.39575,1.44312 7.21531,5.70955 11.105,6.02306 -1.25461,-4.39172 -0.250866,-10.2892 -3.76441,-13.1754l-8.84637 -12.799 6.96416 6.02306c-0.376158,-12.3024 -9.78719,-12.4844 -12.9872,-19.3867l6.96416 2.63509c-5.52104,-14.9321 0.0629292,-22.9 -9.22281,-35.7619 3.75647,-0.352914 7.37859,6.85021 7.6955,12.1399 0.297638,4.96715 2.19799,12.3993 3.78595,20.6104l2.63509 -3.57619c4.64287,5.70955 -0.878174,7.27796 -1.31754,10.9168l4.14085 8.2817c2.196,-0.250866 3.07446,-4.83081 5.4584,-6.96416 1.50151,5.01931 -3.77178,13.8036 -1.12932,21.8336 3.88999,-1.94485 2.88624,-6.14835 4.89373,-9.22281 1.06668,7.52882 -3.70148,9.22281 -2.44687,18.6338l3.01153 8.65815c4.34778,-0.0232441 3.48123,-6.44826 6.96416,-13.7401 0.157606,6.83915 -1.09701,13.5524 -5.4584,16.9399 2.38422,4.45465 4.76844,8.9093 6.02306,14.493l0.941103 1.31754c1.06696,-5.20696 2.88652,-10.4145 5.4584,-15.6223 -0.564662,6.71329 -4.89373,14.3677 -1.69399,20.1396z"/>
  <path fill="black" d="M61.5912 184.053c-3.57619,-2.63509 -5.27018,-5.64662 -10.7286,-7.90526 3.76441,6.77594 7.15238,5.27018 10.7286,7.90526z"/>
  <path fill="black" d="M68.3672 197.416c-1.69399,-2.196 -5.83484,-8.72108 -18.0692,-13.3637 3.01153,2.22718 6.18718,4.99635 8.65815,7.81087 1.12904,1.28608 3.76441,1.63162 9.41103,5.55279z"/>
  <polygon fill="black" points="68.1789,194.217 72.1316,197.228 71.9433,195.534 69.8729,194.217 "/>
  <polygon fill="black" points="69.6847,200.24 72.1316,202.498 75.896,198.358 "/>
  <polygon fill="black" points="186.005,383.755 184.311,386.202 183.935,389.778 186.57,388.272 189.017,384.508 "/>
  <polygon fill="black" points="170.759,373.026 170.759,377.544 172.077,377.544 173.206,373.591 "/>
  <polygon fill="black" points="180.17,379.049 179.229,383.567 181.299,383.567 182.052,379.426 "/>
  <polygon fill="black" points="175.276,374.72 175.276,377.732 176.594,377.732 176.782,374.532 "/>
  <polygon fill="black" points="194.098,387.331 191.652,390.343 191.652,393.166 193.91,393.166 196.734,387.896 "/>
  <polygon fill="black" points="200.686,392.413 196.922,397.307 198.051,401.071 201.816,395.236 "/>
  <polygon fill="black" points="206.145,396.177 203.321,399.001 203.321,403.142 205.956,402.765 208.403,396.93 "/>
  <polygon fill="black" points="212.544,400.13 209.721,403.142 211.415,405.4 214.05,401.448 "/>
  <polygon fill="black" points="219.32,402.2 216.873,404.836 216.873,407.847 219.132,407.847 221.767,403.142 "/>
  <polygon fill="black" points="223.461,407.659 221.202,410.482 221.202,413.117 223.084,413.305 226.096,408.035 "/>
  <polygon fill="black" points="227.978,411.8 225.343,415.376 227.037,416.693 230.049,412.176 "/>
  <polygon fill="black" points="234.942,416.129 230.613,420.646 228.919,419.705 232.872,414.623 "/>
  <path fill="black" d="M143.655 402.2c4.14085,0.0626457 8.2817,0.125291 12.4226,0.188221 14.7438,-5.1446 29.6759,-0.689953 41.9732,-0.752882 -14.1999,-6.40347 -41.7731,-4.70807 -54.3957,0.564662z"/>
  <path fill="black" d="M211.979 431.186c-10.6656,-0.564662 -14.1792,1.31754 -20.7043,2.82331 -3.07389,-2.00835 -6.90095,-3.01181 -11.4815,-3.01153 1.50576,1.94485 7.52882,2.57216 9.59925,4.14085 -14.3048,8.78344 -36.1383,2.50951 -54.2075,3.76441 5.99159,2.57188 17.7868,2.50923 27.1038,3.76441l-8.84637 10.5404c2.88652,-1.31754 6.52536,-4.14085 10.9168,-8.46993 3.70177,-0.502016 7.77997,0.125291 11.105,-1.50576l-8.2817 9.03459 4.14085 1.12932 10.1639 -11.6697c1.94088,0.205795 8.45348,-1.20813 10.7734,-4.12526 2.24617,-2.82501 14.3189,-3.23121 19.7184,-6.41509z"/>
  <polygon fill="black" points="167.183,431.939 170.006,434.951 173.771,434.951 169.065,431.751 "/>
  <polygon fill="black" points="140.079,443.797 134.056,451.514 127.468,450.385 135.938,443.797 "/>
  <polygon fill="black" points="146.29,447.185 141.773,450.761 139.326,450.197 144.032,446.809 "/>
  <polygon fill="black" points="128.41,442.668 122.01,449.444 117.305,450.008 122.951,443.609 "/>
  <polygon fill="black" points="112.599,443.233 108.27,448.691 112.787,449.067 115.046,447.562 114.293,443.609 "/>
  <polygon fill="black" points="132.362,430.245 132.362,432.127 136.315,434.951 137.444,432.692 134.244,430.057 "/>
  <polygon fill="black" points="147.796,431.186 145.538,433.821 152.125,434.198 152.314,433.257 "/>
  <path fill="black" d="M135.562 464.125c-3.00558,-2.71729 -9.43994,-6.26485 -17.0586,-8.12608 -8.63405,-2.10926 -18.9525,-3.18104 -23.7852,-5.61402 2.78589,7.97358 8.10936,4.032 23.5732,7.68728 4.73386,1.11912 9.66558,5.39717 17.2707,6.05282z"/>
  <polygon fill="black" points="126.904,483.7 123.516,487.464 126.716,489.158 "/>
  <polygon fill="black" points="137.821,484.453 133.68,489.158 133.68,490.852 136.691,489.347 140.456,490.476 142.526,487.653 138.573,487.464 "/>
  <polygon fill="black" points="154.572,482.194 154.572,484.265 149.49,489.723 147.42,488.782 151.561,482.382 "/>
  <path fill="black" d="M162.854 483.135l-0.188221 3.95263 0.752882 1.50576c-2.25865,1.88221 -4.51729,4.51729 -6.77594,6.21128l-1.88221 -1.50576 0.752882 -4.14085c1.50576,-2.57244 5.27018,-2.13336 7.3406,-6.02306z"/>
  <path fill="black" d="M152.69 493.487c-4.07821,1.12932 -7.96819,0 -12.2343,3.76441 7.52882,0.188221 8.84637,-2.82331 15.2459,-2.25865l-3.01153 -1.50576z"/>
  <path fill="black" d="M175.088 466.195c-2.44687,-4.45465 -22.21,5.20725 -35.5737,-3.19975 13.8027,14.0536 24.0293,2.13307 35.5737,3.19975z"/>
  <path fill="black" d="M235.131 428.551c-9.16271,4.69049 -10.2498,5.16614 -15.9236,12.9895 -8.60769,11.869 -20.6348,10.8065 -35.8044,21.4656 -14.2316,10.0001 -35.1516,13.2001 -50.8522,18.0584 15.7215,2.24788 50.9474,-9.49408 54.6894,-13.993 6.62372,-7.96337 16.7616,-8.65191 25.6099,-13.1814 12.8222,-6.56363 9.08193,-16.7046 22.2809,-25.3392z"/>
  <path fill="black" d="M215.367 461.678c-17.3163,8.46993 -34.6326,23.1511 -51.9489,31.6211 19.3867,-3.76441 41.2203,-21.8336 51.9489,-31.6211z"/>
  <path fill="black" d="M217.061 459.231c1.19225,-4.45465 3.51355,-2.69802 5.4584,-12.2343l4.89373 -1.12932c-6.38051,4.4538 -3.61134,11.9197 -10.3521,13.3637z"/>
  <path fill="black" d="M295.738 351.004c2.98403,8.8081 17.8234,31.8691 17.987,55.5988 0.176882,25.6408 -6.84652,31.6976 -0.670678,42.0877 -4.4246,-20.6085 7.74,-15.8941 1.59562,-55.9911 -2.65125,-17.3018 -12.5453,-31.8124 -18.7237,-47.342l-0.188221 5.64662z"/>
  <path fill="black" d="M286.515 472.407l-40.6556 3.19975 -9.22281 3.57619 15.0576 1.12932 -9.97569 7.90526c-8.53257,4.89373 -29.4877,4.70551 -35.7619,14.6812l3.38797 -0.752882c5.77219,-6.14863 17.3792,-4.58022 23.5276,-6.58772 -0.188221,3.51326 -2.82331,7.40325 -3.95263,11.105 4.43934,-3.95263 6.60388,-7.90555 6.02306,-11.8579l4.51729 -1.50576c0.470835,2.44658 -0.0938268,4.89345 -1.12932,7.3406 3.95263,-2.76066 4.89373,-4.95666 3.76441,-8.46993 5.14488,-1.2549 3.70177,-5.52133 14.8694,-12.2343 1.58428,2.82303 -0.0150236,8.03027 -3.95263,14.8694 3.3103,-1.01962 6.41566,-5.50602 9.22281,-15.0576l6.02306 -1.69399c-0.564662,5.83484 -3.76441,7.52882 -5.08196,11.2932 3.13767,-2.1138 6.27449,-6.23112 9.41103,-11.8579l10.5404 0.376441 3.38797 -5.4584z"/>
  <path fill="black" d="M245.859 499.887c3.19975,-4.58022 1.50576,-8.21906 6.21128,-13.7401l0.564662 4.14085c-2.25865,3.19975 -1.88221,6.58772 -6.77594,9.59925z"/>
  <polygon fill="black" points="249.059,430.998 246.988,434.763 248.871,434.763 249.247,433.257 "/>
  <polygon fill="black" points="256.776,435.704 254.706,439.092 253.012,438.527 254.706,435.892 "/>
  <polygon fill="black" points="276.351,447.185 278.233,448.503 275.41,452.455 273.716,451.326 "/>
  <polygon fill="black" points="251.506,432.692 253.012,432.88 251.318,436.833 250.188,435.892 "/>
  <polygon fill="black" points="261.293,435.327 257.529,440.033 263.928,442.291 "/>
  <polygon fill="black" points="274.469,445.679 271.457,449.444 270.14,449.067 272.586,445.679 "/>
  <polygon fill="black" points="276.727,453.396 278.421,454.526 281.433,450.385 278.986,450.197 "/>
  <polygon fill="black" points="286.327,454.338 287.456,455.279 284.821,458.102 283.691,456.596 "/>
  <polygon fill="black" points="291.409,456.032 288.397,459.231 289.715,461.113 292.726,457.349 "/>
  <polygon fill="black" points="270.328,446.997 269.951,448.503 268.257,447.373 269.951,445.491 "/>
  <polygon fill="black" points="297.055,459.796 295.926,458.855 292.161,461.302 293.855,462.243 "/>
  <polygon fill="black" points="300.255,463.937 297.808,466.195 295.738,463.937 298.937,461.302 "/>
  <polygon fill="black" points="315.689,470.524 317.007,471.466 313.995,476.924 313.995,472.971 "/>
  <polygon fill="black" points="322.277,476.171 324.535,477.489 321.336,483.135 319.642,480.877 "/>
  <polygon fill="black" points="327.923,478.053 329.806,479.559 325.665,486.147 324.347,484.076 "/>
  <polygon fill="black" points="318.889,472.971 320.206,473.912 317.571,478.618 315.689,477.3 "/>
  <polygon fill="black" points="330.182,484.076 331.876,484.829 328.112,489.723 326.606,488.782 "/>
  <polygon fill="black" points="335.076,489.347 336.581,490.664 332.441,495.37 330.935,494.24 "/>
  <path fill="black" d="M322.277 541.484c-6.65065,0.0629292 -9.91304,2.38422 -19.9514,0.188221 6.13276,6.33714 10.3674,7.34089 19.9514,-0.188221z"/>
  <path fill="black" d="M336.77 514.568c-2.57414,2.19175 -4.85859,4.13008 -6.44089,7.49934 -1.79688,3.82621 -8.64227,7.50161 -7.48744,9.25229 9.91276,-3.51326 10.7912,-11.5441 13.9283,-16.7516z"/>
  <path fill="black" d="M81.1662 210.215c-1.47543,-11.6314 3.26013,-27.5925 1.78498,-39.2236 -1.22202,-9.63723 -9.40904,-13.8166 -9.87846,-24.5832 8.95607,10.9284 12.541,21.4441 12.3789,32.0987 -0.20863,13.699 -2.35616,22.1207 -4.28542,31.7081z"/>
  <path fill="black" d="M189.205 370.203c-3.2624,-40.7812 29.99,-42.6008 7.15238,-116.697l-2.82331 3.19975c24.1552,71.3356 -13.991,69.0769 -4.32907,113.497z"/>
  <path fill="black" d="M232.684 408.223c-13.898,-21.5751 -21.6777,-37.715 -17.5045,-62.1128l1.50576 -1.88221 3.57619 1.31754c-8.48183,11.3009 -1.05562,39.3925 15.9987,62.6774l-3.57619 0z"/>
  <path fill="black" d="M168.5 358.721c-15.1832,-21.4571 -12.6737,-32.3739 -15.0576,-47.9962 -1.34164,16.2261 -3.23915,42.2476 15.0576,47.9962z"/>
  <path fill="black" d="M151.937 325.783l0.376441 -29.1742c-0.87789,9.72426 -1.00347,19.4491 -0.376441,29.1742z"/>
  <path fill="black" d="M270.516 423.846c-6.30822,-11.2955 -4.91755,-18.1752 -0.681449,-29.4018 4.98643,-13.2154 4.24857,-46.7107 0.116787,-64.7085 -1.52731,7.24819 2.86781,45.853 -2.98715,65.4106 -3.72841,12.4537 -5.51792,13.8952 0.540284,28.5114l3.01153 0.188221z"/>
  <path fill="black" d="M274.092 196.287l-0.376441 17.5045c-6.96416,0.376441 -9.22281,0.752882 -19.1985,0l0 -2.63509 16.5634 -0.564662 0 -14.493 3.01153 0.188221z"/>
  <polygon fill="white" points="271.269,197.981 254.894,197.793 254.894,211.345 253.388,211.157 253.388,194.593 271.269,194.593 "/>
  <path fill="black" d="M242.848 167.301l40.8439 1.31754 0 2.82331c-4.01556,4.9887 -19.0108,4.23581 -24.2805,0l-11.2932 -0.376441 -5.08196 -1.88221 -0.188221 -1.88221z"/>
  <path fill="black" d="M256.211 115.164l5.83484 0c-0.564662,16.5634 -2.44687,10.7286 -2.82331,15.2459l-1.12932 6.58772 -1.31754 -8.2817 -1.69399 4.70551c-1.88221,-6.08599 0.941103,-7.46618 1.12932,-18.2574z"/>
  <path fill="#F00000" d="M275.033 77.5199l-19.3867 0c0.564662,31.3699 -3.19975,30.7426 0,34.2561l19.5749 -0.188221 -0.188221 -34.0679z"/>
  <path fill="black" d="M275.033 77.5199l-19.3867 0c0.564662,31.3699 -3.19975,30.7426 0,34.2561l1.50917 -0.023811 0.0955276 -6.96104 1.67017 -0.728504 0.113102 -22.0255 10.7776 -0.216567 5.22114 -4.30073z"/>
  <rect fill="#F00000" x="253.012" y="42.1345" width="22.0218" height="21.2689"/>
  <path fill="black" d="M253.012 42.1345l22.0218 0 0 2.44687c-6.90152,0 -13.0501,2.07043 -20.7043,0l0.376158 18.8221 -1.6937 0 0 -21.2689z"/>
  <path fill="black" d="M283.748 27.5652l0.602646 74.7281 0.903969 0.301323c1.50435,6.02646 0.801071,12.4546 -2.10926,19.2847l3.3086 -0.445323c2.56621,-4.47733 2.42306,-22.2001 17.1814,-30.2896l-0.602646 -9.03969 -1.20529 0 0 8.13572 -1.80794 0 0 -10.245 -1.65742 0 0.15052 11.2995 -2.4103 1.05477 -0.301323 -25.0098 -1.50661 0 0.15052 24.7085 -1.65713 1.80794 0 -35.5561 -2.56167 4.82173 -0.451559 23.9525 -2.71191 1.96073 0.602929 -54.2379 -3.91748 -7.23204z"/>
  <polygon fill="black" points="220.348,72.9737 220.348,87.7247 222.756,87.7247 222.756,77.7904 221.702,73.1243 "/>
  <polygon fill="black" points="223.207,72.8232 225.766,72.8232 226.218,87.7247 224.562,87.5742 224.713,78.3924 223.207,77.1883 "/>
  <polygon fill="black" points="226.218,80.4997 227.573,80.4997 227.573,74.6295 228.927,74.6295 228.927,80.1987 231.637,80.1987 232.088,90.8856 230.432,90.5845 230.432,86.9721 228.927,86.9721 228.927,90.8856 227.573,90.5845 227.573,88.6278 226.067,86.9721 "/>
  <path fill="black" d="M252.554 9.0927c-0.669827,9.27071 -1.70873,18.222 0.225354,32.6013l2.62914 0 0.150236 -4.05638 2.17843 0 0 4.43197 2.4789 0.225354 -0.225354 -16.9767 -1.35213 0 0.150236 7.58693 -3.15496 0.0751181 -0.0751181 -22.5354 -3.00473 -1.35213z"/>
  <path fill="black" d="M251.878 59.8726c0.175181,5.40851 0.725953,13.0706 2.32866,15.7748l2.32866 0 0.525827 -9.99071 -1.12677 0 -0.225354 -2.10331 -1.27701 -0.375591 -0.150236 -3.3052 -2.40378 0z"/>
  <polygon fill="black" points="256.986,65.6567 257.211,72.6427 258.563,75.6474 260.216,75.7225 260.066,65.6567 "/>
  <polygon fill="black" points="285.306,30.8018 285.456,28.1727 288.536,22.5388 289.587,22.5388 289.662,29.7502 286.808,29.6751 286.808,33.5812 "/>
  <polygon fill="black" points="291.315,28.3229 292.667,37.6376 292.667,41.6189 291.24,41.6189 291.24,38.6141 288.385,38.539 288.385,37.1869 289.963,37.1869 289.813,28.2478 "/>
  <polygon fill="black" points="292.817,22.3886 292.742,33.5812 294.32,37.262 297.249,37.0366 298.752,34.7831 298.376,22.3886 295.897,22.3886 295.897,29.6751 294.245,29.6751 294.32,22.3886 "/>
  <polygon fill="black" points="351.635,38.6141 344.048,45.7504 346.076,48.7551 354.114,40.7174 "/>
  <path fill="black" d="M349.456 48.68l11.8687 -12.3194c0.8263,-2.67902 2.4789,-2.7292 2.70425,-12.695l2.62914 0.0751181 -0.375591 12.6198c-0.988441,5.08337 -5.97175,10.1665 -12.7701,15.249l-4.1315 0 0.0751181 -2.92961z"/>
  <path fill="black" d="M464.162 278.391c1.17695,-0.600945 7.53704,0.225354 8.93906,-8.56347 2.72353,7.13594 -6.87912,12.244 -8.93906,8.56347z"/>
  <path fill="black" d="M475.805 266.372c-1.50236,-2.10331 0.751181,0.525827 1.12677,-11.9438 1.22712,2.02819 2.2286,8.18788 -1.12677,11.9438z"/>
  <polygon fill="black" stroke="black" stroke-width="0.216" points="307.649,66.5014 307.649,74.3284 309.004,74.3284 309.154,71.4685 311.864,71.4685 312.014,66.6519 "/>
  <polygon fill="black" points="313.67,66.8024 314.121,70.7159 315.175,70.7159 315.175,67.1035 "/>
  <path fill="white" d="M480.897 216.269c-17.0087,-0.15052 -3.46195,-8.12807 -7.22495,-8.57963 -5.87027,0.15052 -7.22495,11.289 7.22495,8.57963z"/>
  <polygon fill="white" points="275.15,77.5574 275.62,77.5574 275.62,112.062 255.75,112.062 255.821,111.603 275.15,111.646 "/>
  <polygon fill="white" points="275.017,43.8693 275.487,43.8693 275.487,63.8567 255.616,63.8567 255.687,63.398 275.017,63.4408 "/>
 </g>
</svg>
