<?xml version="1.0" encoding="UTF-8"?>
<!DOCTYPE svg PUBLIC "-//W3C//DTD SVG 1.1//EN" "http://www.w3.org/Graphics/SVG/1.1/DTD/svg11.dtd">
<!-- Creator: CorelDRAW -->
<svg xmlns="http://www.w3.org/2000/svg" xml:space="preserve" width="500px" height="535px" shape-rendering="geometricPrecision" text-rendering="geometricPrecision" image-rendering="optimizeQuality" fill-rule="evenodd" clip-rule="evenodd"
viewBox="0 0 500 535"
 xmlns:xlink="http://www.w3.org/1999/xlink"
 xmlns:svg="http://www.w3.org/2000/svg"
 version="1.0">
 <g id="Layer_x0020_1">
  <metadata id="CorelCorpID_0Corel-Layer"/>
  <path id="path1937" fill="#BF9F4F" stroke="black" stroke-width="0.992126" d="M-0.088441 -0.00510236l499.847 -0.117071c-9.50372,116.654 -25.0733,347.453 -27.6302,355.193 -22.559,111.925 -109.563,174.602 -215.007,178.035 -123.41,-1.06016 -196.488,-77.7016 -223.78,-184.396 -3.96964,-8.5989 -20.1427,-229.315 -33.4298,-348.715z"/>
  <path id="path1937_0" fill="black" stroke="black" stroke-width="0.992126" d="M471.024 360.281c-24.1784,108.659 -110.106,169.446 -213.902,172.825 -119.554,-1.02699 -191.871,-72.9856 -221.087,-174.483 167.939,-88.4019 279.09,-85.6721 434.989,1.6577z"/>
  <path fill="#BF9F4F" d="M190.949 424.618c10.1982,-8.20857 21.9266,-5.61317 14.3442,10.3859 8.79024,-6.04262 17.3804,-6.29235 20.4537,3.5691 3.07332,9.86145 -6.73682,12.397 -15.247,11.2 3.25588,6.99563 9.2744,15.1192 20.7564,15.0701 11.482,-0.0490394 15.3094,-7.4693 19.4423,-15.0078 -10.1463,4.26558 -18.4813,-1.52419 -18.3226,-8.335 0.15874,-6.81081 8.47163,-13.5848 16.7933,-7.55689 -3.71197,-6.02192 -3.71452,-14.1117 5.77049,-14.1205 9.48501,-0.00878741 10.309,8.40161 6.02448,14.434 7.52287,-4.44388 17.6017,-3.03251 17.2154,7.51947 -0.386362,10.552 -9.83651,11.0903 -17.1496,7.61896 3.42085,6.94602 8.27802,14.7302 20.4066,14.9216 12.1286,0.191339 14.1664,-9.36256 18.9958,-14.889 -9.14004,3.4818 -17.6584,-2.34369 -15.3037,-11.5316 2.35474,-9.18794 11.751,-8.80271 19.0355,-3.48321 -6.62089,-11.8318 1.37736,-19.4117 13.6443,-10.9222 -9.83708,18.5414 -14.6563,37.5914 -15.5061,62.8657l-95.5662 0.564095c-1.97518,-20.3919 -3.10507,-39.0932 -15.7873,-62.3027z"/>
  <path fill="#BF9F4F" d="M107.063 337.736c10.1982,-8.20857 21.9266,-5.61317 14.3442,10.3859 8.79024,-6.04262 17.3804,-6.29235 20.4537,3.5691 3.07332,9.86145 -6.73682,12.397 -15.247,11.2 3.25588,6.99563 9.2744,15.1192 20.7564,15.0701 11.482,-0.0490394 15.3094,-7.4693 19.4423,-15.0078 -10.1463,4.26558 -18.4813,-1.52419 -18.3226,-8.335 0.15874,-6.81081 8.47163,-13.5848 16.7933,-7.55689 -3.71197,-6.02192 -3.71452,-14.1117 5.77049,-14.1205 9.48501,-0.00878741 10.309,8.40161 6.02448,14.434 7.52287,-4.44388 17.6017,-3.03251 17.2154,7.51947 -0.386362,10.552 -9.83651,11.0903 -17.1496,7.61896 3.42085,6.94602 8.27802,14.7302 20.4066,14.9216 12.1286,0.191339 14.1664,-9.36256 18.9958,-14.889 -9.14004,3.4818 -17.6584,-2.34369 -15.3037,-11.5316 2.35474,-9.18794 11.751,-8.80271 19.0355,-3.48321 -6.62089,-11.8318 1.37736,-19.4117 13.6443,-10.9222 -9.83708,18.5414 -14.6563,37.5914 -15.5061,62.8657l-95.5662 0.564095c-1.97518,-20.3919 -3.10507,-39.0932 -15.7873,-62.3027z"/>
  <path fill="#BF9F4F" d="M273.837 337.736c10.1982,-8.20857 21.9266,-5.61317 14.3442,10.3859 8.79024,-6.04262 17.3804,-6.29235 20.4537,3.5691 3.07332,9.86145 -6.73682,12.397 -15.247,11.2 3.25588,6.99563 9.2744,15.1192 20.7564,15.0701 11.482,-0.0490394 15.3094,-7.4693 19.4423,-15.0078 -10.1463,4.26558 -18.4813,-1.52419 -18.3226,-8.335 0.15874,-6.81081 8.47163,-13.5848 16.7933,-7.55689 -3.71197,-6.02192 -3.71452,-14.1117 5.77049,-14.1205 9.48501,-0.00878741 10.309,8.40161 6.02448,14.434 7.52287,-4.44388 17.6017,-3.03251 17.2154,7.51947 -0.386362,10.552 -9.83651,11.0903 -17.1496,7.61896 3.42085,6.94602 8.27802,14.7302 20.4066,14.9216 12.1286,0.191339 14.1664,-9.36256 18.9958,-14.889 -9.14004,3.4818 -17.6584,-2.34369 -15.3037,-11.5316 2.35474,-9.18794 11.751,-8.80271 19.0355,-3.48321 -6.62089,-11.8318 1.37736,-19.4117 13.6443,-10.9222 -9.83708,18.5414 -14.6563,37.5914 -15.5061,62.8657l-95.5662 0.564095c-1.97518,-20.3919 -3.10507,-39.0932 -15.7873,-62.3027z"/>
  <path fill="black" stroke="black" stroke-width="0.992126" d="M58.1692 46.3805c4.46032,-8.43704 21.8821,-9.54794 29.7238,-8.96826 22.5247,2.08942 77.4522,86.7359 179.153,86.5715 59.0769,0.340725 84.3421,-21.8597 84.8124,-45.4689 0.659339,-7.32218 -4.31632,-16.8982 -12.3914,-16.8942 -8.4498,0.572032 -12.3914,4.52523 -12.67,12.7052 -0.103181,8.33528 4.30214,13.8532 12.3704,14.0176 -16.2933,4.24347 -45.5477,2.00665 -46.6257,-32.0695 -0.726804,-26.6074 23.6234,-43.3528 43.4653,-43.4741 23.5571,-0.447024 49.7906,25.0688 49.777,46.1585 -0.0178583,27.9576 -43.4523,54.7912 -51.1044,63.4958 2.79014,2.33887 8.30637,6.98712 14.9496,4.59326 16.645,-5.99811 44.5213,-25.3208 69.7618,-22.9246 23.3348,0.0328819 53.9955,22.0433 53.9442,51.9432 0.015874,31.0686 -26.1723,46.3584 -45.5978,46.4329 -22.0896,0.348662 -38.2618,-11.4185 -38.3735,-31.0751 0.17263,-11.0937 4.57172,-15.143 8.97081,-22.2917 -0.0413858,11.482 4.7075,19.0193 14.2464,19.2308 10.008,-0.0133228 15.1951,-8.39651 15.3663,-14.694 -0.032315,-7.87238 -8.23578,-15.1812 -18.6931,-15.1639 -22.9306,-0.775559 -73.8233,21.4177 -107.739,42.6124 -8.32224,33.2881 -25.632,67.5749 -12.9824,96.8687 -1.7365,0 -13.7373,-13.5099 -22.6196,-13.9156 -6.2949,5.54145 -6.391,10.2379 -5.92356,16.3432 10.5168,0.606048 19.6248,5.43884 26.479,14.7798l-15.609 -1.71921c-1.0817,-1.61773 -1.71921,-4.6715 -6.06274,-4.8532 -4.34353,-0.181701 -5.16671,3.26268 -6.20022,5.31695l-37.1327 1.40428c-4.25084,-2.16595 -8.46596,-5.184 -14.1613,-5.37081 -5.69537,-0.186803 -8.54448,5.80054 -10.5483,9.64347l-10.3317 0.708945c3.94696,-13.5357 19.4462,-21.0064 27.3382,-21.299 6.08939,0.530646 14.1514,6.41481 26.7217,3.28252 6.2144,-8.76445 10.175,-12.4571 8.50026,-24.0392 -45.819,-13.5471 -112.647,-31.2871 -129.852,-72.6633 -5.59418,0.628158 -15.4559,9.00482 -26.7466,-6.83348 10.0429,0.514488 14.923,2.14214 16.0481,-9.3138 -9.25881,3.7355 -22.4187,4.13263 -32.0253,-7.3681 9.89178,-2.26857 23.7371,-0.476788 21.5629,-15.16 -11.0849,11.4661 -25.2454,6.79692 -33.6994,-0.970583 33.6407,-11.9787 23.491,-28.5698 -5.15424,-58.8416 21.9325,-12.9592 11.0061,-32.9862 -0.946772,-40.737z"/>
  <path fill="none" stroke="#BF9F4F" stroke-width="5.66929" d="M174.435 127.191c38.4809,-2.35502 81.8096,5.12504 105.049,28.7878 -10.0783,-1.68945 -18.1843,-3.94243 -27.1355,-0.841607 28.7263,8.50763 71.8229,20.1149 94.3507,47.7828 -25.3001,-13.4915 -65.5336,-32.3362 -90.2702,-33.9934 48.2536,16.1014 106.088,36.7109 122.502,72.8178 -39.8855,-26.5555 -93.2953,-53.6746 -120.501,-55.9985 44.7132,17.4039 123.238,45.5148 141.747,92.5042 -35.6848,-30.1952 -106.487,-69.196 -129.313,-68.8893 62.0419,22.0462 141.218,66.2159 140.502,102.579 -44.0314,-46.5356 -96.4565,-66.2792 -149.16,-79.9643 -49.2996,-12.801 -99.6566,-25.1824 -113.484,-78.8205"/>
  <path fill="black" stroke="black" stroke-width="0.992126" d="M148.876 130.315c42.9727,-8.06939 102.006,-3.4594 130.609,25.6643 -10.0783,-1.68945 -18.1843,-3.94243 -27.1355,-0.841607 28.7263,8.50763 71.8229,20.1149 94.3507,47.7828 -25.3001,-13.4915 -65.5336,-32.3362 -90.2702,-33.9934 48.2536,16.1014 106.088,36.7109 122.502,72.8178 -39.8855,-26.5555 -93.2953,-53.6746 -120.501,-55.9985 44.7132,17.4039 123.238,45.5148 141.747,92.5042 -35.6848,-30.1952 -106.487,-69.196 -129.313,-68.8893 62.0419,22.0462 141.218,66.2159 140.502,102.579 -44.0314,-46.5356 -96.4565,-66.2792 -149.16,-79.9643 -49.2996,-12.801 -99.6566,-25.1824 -113.484,-78.8205l0.153354 -22.8405z"/>
  <circle fill="#BF9F4F" stroke="#BF9F4F" stroke-width="0.992126" cx="80.8147" cy="55.2881" r="4.99323"/>
  <path fill="#F00000" stroke="#F00000" stroke-width="0.992126" d="M69.9546 45.845c6.10441,-20.562 32.6809,2.6314 29.4511,20.0052 -10.2764,-19.3368 -22.9737,-20.2405 -25.3588,-10.1435 -2.06646,-2.06646 -5.68914,-5.25969 -4.09238,-9.86174z"/>
  <path fill="black" stroke="black" stroke-width="0.992126" d="M337.778 188.981c14.182,-16.2482 29.2093,-28.8337 45.6458,-42.5464 -21.9776,7.05317 -46.2096,17.6667 -65.651,30.1487 7.13792,3.85058 15.6847,7.13792 20.0052,12.3976z"/>
  <path fill="black" stroke="black" stroke-width="0.992126" d="M375.816 25.2763c10.707,-4.97792 21.4141,-4.03881 30.4305,-1.40882 5.07175,3.0994 7.88939,6.48057 7.88939,10.707 -0.469701,4.13235 -16.1547,29.3973 -29.0217,44.2369 6.66822,-17.8452 8.82851,-30.6184 -9.29821,-53.5351z"/>
  <path fill="black" stroke="black" stroke-width="0.992126" d="M377.289 109.726c10.0792,-4.42829 61.8976,-24.8618 90.6636,-26.5536 2.44205,-12.867 -12.3035,-28.4043 -18.3147,-26.0564 -5.65285,0.481323 -44.1213,32.9377 -69.2552,44.6312 20.7417,-19.2487 62.4212,-44.5856 64.747,-48.5759 -1.59647,-7.88939 -11.6461,-18.8782 -24.7952,-15.7788 -3.8829,1.42611 -18.1395,30.2122 -30.9305,43.2522 -16.1175,16.431 -27.8615,28.3218 -45.991,40.9952 4.39881,4.65874 24.7748,-7.20454 33.876,-11.914z"/>
  <path fill="black" stroke="black" stroke-width="0.992126" d="M417.813 99.2325c18.2205,-5.72939 50.516,-13.2829 52.958,-9.99582 5.72911,6.29263 3.00529,31.1817 0.281764,37.4746 -10.707,-10.8011 -25.3451,-26.2579 -53.2398,-27.4788z"/>
  <path fill="black" stroke="black" stroke-width="0.992126" d="M34.6 72.0491c10.6129,0.375591 24.3272,2.16028 32.4046,0.000283465 -0.469701,4.50822 -6.29433,8.4532 -8.45433,10.4255 -8.73468,2.72353 -16.3426,-4.69673 -23.9502,-10.4258z"/>
  <path fill="black" stroke="black" stroke-width="0.992126" d="M28.9647 51.5699c18.5012,0.188221 31.0884,14.4646 38.3205,15.7793 -1.03295,-10.1435 -8.26498,-16.3434 -13.2432,-19.4426 -5.93207,-4.40476 -13.837,-7.23204 -25.0773,3.66321z"/>
  <path fill="black" stroke="black" stroke-width="0.992126" d="M39.6717 63.5962c7.23175,-2.44205 18.6908,1.8788 18.3152,4.79055 -0.610866,1.97433 -13.2593,0.776977 -18.3152,-4.79055z"/>
 </g>
</svg>
