<?xml version="1.0" encoding="UTF-8"?>
<!DOCTYPE svg PUBLIC "-//W3C//DTD SVG 1.1//EN" "http://www.w3.org/Graphics/SVG/1.1/DTD/svg11.dtd">
<!-- Creator: CorelDRAW -->
<svg xmlns="http://www.w3.org/2000/svg" xml:space="preserve" width="500px" height="559px" shape-rendering="geometricPrecision" text-rendering="geometricPrecision" image-rendering="optimizeQuality" fill-rule="evenodd" clip-rule="evenodd"
viewBox="0 0 500 559"
 xmlns:xlink="http://www.w3.org/1999/xlink"
 xmlns:svg="http://www.w3.org/2000/svg"
 version="1.0">
 <g id="Layer_x0020_1">
  <metadata id="CorelCorpID_0Corel-Layer"/>
  <path id="path1937" fill="#F00000" stroke="black" stroke-width="0.510236" d="M0.309827 0.610016l499.412 -0.000283465 -0.000850394 329.207c-20.4389,305.128 -483.369,306.522 -499.412,-7.57531l0 -321.632z"/>
  <path fill="black" stroke="black" stroke-width="0.992126" d="M212.357 481.795l-7.77374 -0.0739843c-36.3756,-0.34611 -37.3487,-61.4889 0,-59.9902l7.78309 0.312378 0 -117.988 -88.4231 -0.00311811 0 9.29254c0,35.7766 -64.4939,36.61 -64.3643,0l0.0340158 -9.59301 -4.14199 -0.00878741c-44.0552,-0.0932599 -45.307,-69.992 0,-69.9889l4.14284 0.000283465 -0.0348662 -14.7189c-0.0844725,-35.7778 64.3643,-36.6098 64.3643,0l0 14.7317 88.4138 0 0 -101.211 -7.77374 -0.0357166c-37.3782,-0.171496 -36.349,-58.5315 0,-59.9902l7.78309 -0.312378 -0.00935434 -6.52479c-0.0677481,-47.3423 78.7371,-46.1495 78.7371,0l0 6.88649 10.2733 -0.0493229c36.3784,-0.174331 37.3782,59.9902 0,59.9902l-10.2818 0 0.00850394 101.246 93.4217 0 0 -13.4819c0,-36.6098 64.3643,-35.7769 64.3643,0l0 13.4821 9.09837 -0.0133228c44.0379,-0.064063 45.3237,70.0027 0,69.9889l-9.09837 -0.00283465 0 10.8544c0,36.61 -64.3643,35.7775 -64.3643,0l0 -10.8547 -93.4217 0 0 118.079 10.2733 -0.0878741c36.3773,-0.310961 37.3774,59.7201 0,59.9902l-10.2733 0.0742678 0 2.50639c0,47.3431 -78.7371,46.1492 -78.7371,0l0 -2.50668z"/>
  <path fill="white" stroke="white" stroke-width="0.992126" d="M206.202 476.686l-7.77374 -0.0739843c-36.3756,-0.34611 -37.3487,-61.4889 0,-59.9902l7.78309 0.312378 0 -117.988 -88.4231 -0.00311811 0 9.29254c0,35.7766 -64.4939,36.61 -64.3643,0l0.0340158 -9.59301 -4.14199 -0.00878741c-44.0552,-0.0932599 -45.307,-69.992 0,-69.9889l4.14284 0.000283465 -0.0348662 -14.7189c-0.0844725,-35.7778 64.3643,-36.6098 64.3643,0l0 14.7317 88.4138 0 0 -101.211 -7.77374 -0.0357166c-37.3782,-0.171496 -36.349,-58.5315 0,-59.9902l7.78309 -0.312378 -0.00935434 -6.52479c-0.0677481,-47.3423 78.7371,-46.1495 78.7371,0l0 6.88649 10.2733 -0.0493229c36.3784,-0.174331 37.3782,59.9902 0,59.9902l-10.2818 0 0.00850394 101.246 93.4217 0 0 -13.4819c0,-36.6098 64.3643,-35.7769 64.3643,0l0 13.4821 9.09837 -0.0133228c44.0379,-0.064063 45.3237,70.0027 0,69.9889l-9.09837 -0.00283465 0 10.8544c0,36.61 -64.3643,35.7775 -64.3643,0l0 -10.8547 -93.4217 0 0 118.079 10.2733 -0.0878741c36.3773,-0.310961 37.3774,59.7201 0,59.9902l-10.2733 0.0742678 0 2.50639c0,47.3431 -78.7371,46.1492 -78.7371,0l0 -2.50668z"/>
  <path fill="#CCCCCC" stroke="#CCCCCC" stroke-width="0.992126" d="M208.757 478.195l-7.77374 -0.0739843c-36.3756,-0.34611 -37.3487,-61.4889 0,-59.9902l7.78309 0.312378 0 -117.988 -88.4231 -0.00311811 0 9.29254c0,35.7766 -64.4939,36.61 -64.3643,0l0.0340158 -9.59301 -4.14199 -0.00878741c-44.0552,-0.0932599 -45.307,-69.992 0,-69.9889l4.14284 0.000283465 -0.0348662 -14.7189c-0.0844725,-35.7778 64.3643,-36.6098 64.3643,0l0 14.7317 88.4138 0 0 -101.211 -7.77374 -0.0357166c-37.3782,-0.171496 -36.349,-58.5315 0,-59.9902l7.78309 -0.312378 -0.00935434 -6.52479c-0.0677481,-47.3423 78.7371,-46.1495 78.7371,0l0 6.88649 10.2733 -0.0493229c36.3784,-0.174331 37.3782,59.9902 0,59.9902l-10.2818 0 0.00850394 101.246 93.4217 0 0 -13.4819c0,-36.6098 64.3643,-35.7769 64.3643,0l0 13.4821 9.09837 -0.0133228c44.0379,-0.064063 45.3237,70.0027 0,69.9889l-9.09837 -0.00283465 0 10.8544c0,36.61 -64.3643,35.7775 -64.3643,0l0 -10.8547 -93.4217 0 0 118.079 10.2733 -0.0878741c36.3773,-0.310961 37.3774,59.7201 0,59.9902l-10.2733 0.0742678 0 2.50639c0,47.3431 -78.7371,46.1492 -78.7371,0l0 -2.50668z"/>
  <path fill="black" stroke="black" stroke-width="0.992126" d="M59.1523 66.8577c16.0084,16.664 29.3088,13.3535 39.115,21.5365 7.53591,6.28838 7.45541,16.8576 14.0085,22.4847 6.55314,5.62706 17.7302,6.60303 24.209,13.8243 7.40892,8.25789 7.82476,27.1069 27.2061,28.5922 3.75392,-12.0053 -6.28951,-12.8015 -7.45682,-21.4648 -1.07036,-7.94268 -2.9469,-16.2856 -7.09711,-23.548 21.0045,15.3298 18.1794,24.9778 24.1316,36.089 3.85002,7.18753 12.2885,7.47752 16.2354,15.605 8.40643,17.3112 -6.13928,26.3208 13.5867,38.922l-0.0442205 20.59 -15.9208 0.0379843c-8.2355,-17.8345 -20.7298,-11.4335 -31.9422,-17.6556 -4.51049,-2.50299 -7.50643,-10.1052 -11.8962,-13.3693 -6.27364,-4.66526 -13.3685,-4.95185 -19.9508,-9.31834 -8.46256,-5.6143 -3.23518,-5.67638 -19.8595,-16.5135 18.6214,-2.02479 21.7216,7.16032 29.9957,5.99783 -2.16595,-6.70196 -8.59805,-20.2813 -13.4558,-25.9251 -5.17096,-6.00718 -15.1138,-7.00895 -21.2122,-15.4729 -4.43509,-6.15572 -6.67531,-14.5086 -11.6725,-22.1689 -8.32848,-12.767 -21.4438,-11.2856 -27.98,-38.2431z"/>
  <path fill="#CCCCCC" stroke="#CCCCCC" stroke-width="0.992126" d="M54.521 67.1423c16.0084,16.664 29.3088,13.3535 39.115,21.5365 7.53591,6.28838 7.45541,16.8576 14.0085,22.4847 6.55314,5.62706 17.7302,6.60303 24.209,13.8243 7.40892,8.25789 7.82476,27.1069 27.2061,28.5922 3.75392,-12.0053 -6.28951,-12.8015 -7.45682,-21.4648 -1.07036,-7.94268 -2.9469,-16.2856 -7.09711,-23.548 21.0045,15.3298 18.1794,24.9778 24.1316,36.089 3.85002,7.18753 12.2885,7.47752 16.2354,15.605 8.40643,17.3112 -6.13928,26.3208 13.5867,38.922l1.37452 20.59 -17.3395 0.0379843c-8.2355,-17.8345 -20.7298,-11.4335 -31.9422,-17.6556 -4.51049,-2.50299 -7.50643,-10.1052 -11.8962,-13.3693 -6.27364,-4.66526 -13.3685,-4.95185 -19.9508,-9.31834 -8.46256,-5.6143 -3.23518,-5.67638 -19.8595,-16.5135 18.6214,-2.02479 21.7216,7.16032 29.9957,5.99783 -2.16595,-6.70196 -8.59805,-20.2813 -13.4558,-25.9251 -5.17096,-6.00718 -15.1138,-7.00895 -21.2122,-15.4729 -4.43509,-6.15572 -6.67531,-14.5086 -11.6725,-22.1689 -8.32848,-12.767 -21.4438,-11.2856 -27.98,-38.2431z"/>
  <path fill="#CCCCCC" stroke="#CCCCCC" stroke-width="0.992126" d="M439.057 72.2481c-16.0084,16.664 -25.0526,8.81377 -34.8588,16.9965 -7.53563,6.28838 -7.45541,16.8576 -14.0085,22.4847 -6.55314,5.62706 -17.7304,6.60331 -24.209,13.8243 -7.40863,8.25761 -13.4997,35.0518 -32.8811,36.5372 -3.75392,-12.0053 8.30013,-12.157 8.30807,-20.8973 0.00566929,-6.52337 4.29506,-20.3528 9.65084,-29.2229 -21.0045,15.3298 -15.91,22.9918 -21.8616,34.1028 -3.84973,7.18696 -12.856,8.32876 -16.8029,16.4563 -8.40643,17.3112 6.70678,24.6183 -13.0193,37.2195l-0.239528 20.3063 16.2045 0.321732c8.2355,-17.8345 27.5414,-12.003 38.7522,-18.2231 4.50851,-2.50129 12.6703,-16.3375 19.8411,-19.8955 5.98337,-2.96901 10.531,-2.68186 17.1133,-7.04835 8.46256,-5.6143 5.78892,-6.52763 11.9146,-16.7973 -12.1433,13.2072 -29.7142,9.05471 -34.2519,11.9565 2.16595,-6.70196 6.32807,-21.4163 11.1858,-27.0601 5.17096,-6.00718 17.6678,-6.72548 23.766,-15.1892 4.43481,-6.15544 4.40561,-13.6576 9.40252,-21.3177 8.32819,-12.7667 19.4576,-7.59685 25.9937,-34.5543z"/>
  <path fill="black" stroke="black" stroke-width="0.992126" d="M443.791 72.4431c-16.0084,16.664 -25.0526,8.81377 -34.8588,16.9965 -7.53563,6.28838 -7.45541,16.8576 -14.0085,22.4847 -6.55314,5.62706 -17.7304,6.60331 -24.209,13.8243 -7.40863,8.25761 -13.4997,35.0518 -32.8811,36.5372 -3.75392,-12.0053 8.30013,-12.157 8.30807,-20.8973 0.00566929,-6.52337 4.29506,-20.3528 9.65084,-29.2229 -21.0045,15.3298 -15.91,22.9918 -21.8616,34.1028 -3.84973,7.18696 -12.856,8.32876 -16.8029,16.4563 -8.40643,17.3112 6.70678,24.6183 -13.0193,37.2195l-1.37452 20.59 17.3395 0.0379843c8.2355,-17.8345 27.5414,-12.003 38.7522,-18.2231 4.50851,-2.50129 12.6703,-16.3375 19.8411,-19.8955 5.98337,-2.96901 10.531,-2.68186 17.1133,-7.04835 8.46256,-5.6143 5.78892,-6.52763 11.9146,-16.7973 -12.1433,13.2072 -29.7142,9.05471 -34.2519,11.9565 2.16595,-6.70196 6.32807,-21.4163 11.1858,-27.0601 5.17096,-6.00718 17.6678,-6.72548 23.766,-15.1892 4.43481,-6.15544 4.40561,-13.6576 9.40252,-21.3177 8.32819,-12.7667 19.4576,-7.59685 25.9937,-34.5543z"/>
  <path fill="#BF9F4F" stroke="#BF9F4F" stroke-width="0.992126" d="M55.5523 66.8577c16.0084,16.664 29.3088,13.3535 39.115,21.5365 7.53591,6.28838 7.45541,16.8576 14.0085,22.4847 6.55314,5.62706 17.7302,6.60303 24.209,13.8243 7.40892,8.25789 7.82476,27.1069 27.2061,28.5922 3.75392,-12.0053 -6.28951,-12.8015 -7.45682,-21.4648 -1.07036,-7.94268 -2.9469,-16.2856 -7.09711,-23.548 21.0045,15.3298 18.1794,24.9778 24.1316,36.089 3.85002,7.18753 12.2885,7.47752 16.2354,15.605 8.40643,17.3112 -6.13928,26.3208 13.5867,38.922l-0.0442205 20.0225 -15.9208 0.605481c-8.2355,-17.8345 -20.7298,-11.4335 -31.9422,-17.6556 -4.51049,-2.50299 -7.50643,-10.1052 -11.8962,-13.3693 -6.27364,-4.66526 -13.3685,-4.95185 -19.9508,-9.31834 -8.46256,-5.6143 -3.23518,-5.67638 -19.8595,-16.5135 18.6214,-2.02479 21.7216,7.16032 29.9957,5.99783 -2.16595,-6.70196 -8.59805,-20.2813 -13.4558,-25.9251 -5.17096,-6.00718 -15.1138,-7.00895 -21.2122,-15.4729 -4.43509,-6.15572 -6.67531,-14.5086 -11.6725,-22.1689 -8.32848,-12.767 -21.4438,-11.2856 -27.98,-38.2431z"/>
  <path fill="#BF9F4F" stroke="#BF9F4F" stroke-width="0.992126" d="M440.191 72.4431c-16.0084,16.664 -25.0526,8.81377 -34.8588,16.9965 -7.53563,6.28838 -7.45541,16.8576 -14.0085,22.4847 -6.55314,5.62706 -17.7304,6.60331 -24.209,13.8243 -7.40863,8.25761 -13.4997,35.0518 -32.8811,36.5372 -3.75392,-12.0053 8.30013,-12.157 8.30807,-20.8973 0.00566929,-6.52337 4.29506,-20.3528 9.65084,-29.2229 -21.0045,15.3298 -15.91,22.9918 -21.8616,34.1028 -3.84973,7.18696 -12.856,8.32876 -16.8029,16.4563 -8.40643,17.3112 6.70678,24.6183 -13.0193,37.2195l0.0442205 20.59 15.9208 0.0379843c8.2355,-17.8345 27.5414,-12.003 38.7522,-18.2231 4.50851,-2.50129 12.6703,-16.3375 19.8411,-19.8955 5.98337,-2.96901 10.531,-2.68186 17.1133,-7.04835 8.46256,-5.6143 5.78892,-6.52763 11.9146,-16.7973 -12.1433,13.2072 -29.7142,9.05471 -34.2519,11.9565 2.16595,-6.70196 6.32807,-21.4163 11.1858,-27.0601 5.17096,-6.00718 17.6678,-6.72548 23.766,-15.1892 4.43481,-6.15544 4.40561,-13.6576 9.40252,-21.3177 8.32819,-12.7667 19.4576,-7.59685 25.9937,-34.5543z"/>
  <path fill="#CCCCCC" stroke="#CCCCCC" stroke-width="0.992126" d="M409.188 440.201c-16.0084,-16.664 -23.3518,-10.5177 -33.1563,-18.699 -7.53421,-6.28668 -5.46917,-9.48019 -11.1711,-15.391 -5.70189,-5.91081 -8.93481,-3.48236 -15.4128,-10.7031 -7.40835,-8.25704 -1.29855,-21.7157 -23.8011,-30.8622 -3.75392,12.0053 4.02066,9.68145 5.18684,18.3436 1.06923,7.94155 0.109417,19.4068 4.25962,26.6692 -21.0045,-15.3298 -11.3718,-19.3045 -17.3217,-30.4141 -3.84832,-7.18526 -7.28363,-3.91096 -10.8442,-11.9163 -6.46753,-14.5417 6.60728,-24.198 -9.33052,-39.2057l-0.239528 -18.8875 19.042 -0.0379843c13.6267,18.1182 22.1491,8.02914 33.361,14.2506 4.50992,2.50243 10.912,13.227 15.3011,16.4906 6.27307,4.6647 7.69352,1.54687 14.2758,5.91336 8.46256,5.6143 4.65392,-0.566079 9.92835,15.3785 -16.0781,-12.3625 -14.2903,-3.79276 -24.2751,-8.20914 -4.82202,-2.13251 -8.53711,-10.4712 -15.9355,-3.7474 9.25966,6.70196 7.74681,17.1601 12.6045,22.8039 5.17096,6.00718 13.1292,5.02441 19.226,13.4867 4.43339,6.15402 3.27203,11.1053 8.26753,18.7639 8.32678,12.7653 17.1876,11.0018 20.035,35.9731z"/>
  <path fill="black" stroke="black" stroke-width="0.992126" d="M414.402 439.917c-16.0084,-16.664 -23.3518,-10.5177 -33.1563,-18.699 -7.53421,-6.28668 -5.46917,-9.48019 -11.1711,-15.391 -5.70189,-5.91081 -8.93481,-3.48236 -15.4128,-10.7031 -7.40835,-8.25704 -1.29855,-21.7157 -23.8011,-30.8622 -3.75392,12.0053 4.02066,9.68145 5.18684,18.3436 1.06923,7.94155 0.109417,19.4068 4.25962,26.6692 -21.0045,-15.3298 -11.3718,-19.3045 -17.3217,-30.4141 -3.84832,-7.18526 -7.28363,-3.91096 -10.8442,-11.9163 -6.46753,-14.5417 6.60728,-24.198 -9.33052,-39.2057l-0.239528 -18.8875 19.042 -0.0379843c13.6267,18.1182 22.1491,8.02914 33.361,14.2506 4.50992,2.50243 10.912,13.227 15.3011,16.4906 6.27307,4.6647 7.69352,1.54687 14.2758,5.91336 8.46256,5.6143 4.65392,-0.566079 9.92835,15.3785 -16.0781,-12.3625 -14.2903,-3.79276 -24.2751,-8.20914 -4.82202,-2.13251 -8.53711,-10.4712 -15.9355,-3.7474 9.25966,6.70196 7.74681,17.1601 12.6045,22.8039 5.17096,6.00718 13.1292,5.02441 19.226,13.4867 4.43339,6.15402 3.27203,11.1053 8.26753,18.7639 8.32678,12.7653 17.1876,11.0018 20.035,35.9731z"/>
  <path fill="#CCCCCC" stroke="#CCCCCC" stroke-width="0.992126" d="M81.5525 447.383c16.0084,-16.664 30.4447,-21.2995 40.25,-29.4815 7.53478,-6.28753 6.32041,-18.5601 12.8735,-24.1872 6.55314,-5.62706 15.461,-6.31985 21.939,-13.5405 7.40835,-8.25704 -1.25518,-15.1895 13.5862,-15.5398 3.75392,12.0053 -4.30384,9.68117 -5.47059,18.3436 -1.06951,7.94211 1.87682,14.2994 -2.27339,21.5617 21.0045,-15.3298 12.2224,-18.169 18.1729,-29.2791 3.84888,-7.18583 5.90315,-3.77462 9.14174,-11.9163 5.33311,-13.407 -9.72851,-21.0767 7.34429,-35.8007l0.239528 -18.8875 -19.042 -0.0379843c-13.6267,18.1182 -22.1491,8.02914 -33.361,14.2506 -4.50992,2.50243 -10.912,13.227 -15.3011,16.4906 -6.27307,4.6647 -7.97726,3.5331 -14.5596,7.89959 -8.46256,5.6143 -9.76139,6.52763 -15.0358,22.4722 17.4969,-16.6187 20.5328,-12.8727 30.5175,-17.2891 4.82202,-2.13251 7.40211,-9.05245 13.6656,-7.43613 -2.16595,6.70196 -0.936851,9.78265 -5.79459,15.4264 -5.17096,6.00718 -15.1149,7.5773 -21.2122,16.0404 -4.43424,6.15459 -1.56898,18.4822 -6.56504,26.1414 -8.32734,12.7658 -22.5788,17.8118 -29.1149,44.7693z"/>
  <path fill="black" stroke="black" stroke-width="0.992126" d="M86.5713 447.578c16.0084,-16.664 30.4447,-21.2995 40.25,-29.4815 7.53478,-6.28753 6.32041,-18.5601 12.8735,-24.1872 6.55314,-5.62706 15.461,-6.31985 21.939,-13.5405 7.40835,-8.25704 -1.25518,-15.1895 13.5862,-15.5398 3.75392,12.0053 -4.30384,9.68117 -5.47059,18.3436 -1.06951,7.94211 1.87682,14.2994 -2.27339,21.5617 21.0045,-15.3298 12.2224,-18.169 18.1729,-29.2791 3.84888,-7.18583 5.90315,-3.77462 9.14174,-11.9163 5.33311,-13.407 -9.72851,-21.0767 7.34429,-35.8007l0.239528 -18.8875 -19.042 -0.0379843c-13.6267,18.1182 -22.1491,8.02914 -33.361,14.2506 -4.50992,2.50243 -10.912,13.227 -15.3011,16.4906 -6.27307,4.6647 -7.97726,3.5331 -14.5596,7.89959 -8.46256,5.6143 -9.76139,6.52763 -15.0358,22.4722 17.4969,-16.6187 20.5328,-12.8727 30.5175,-17.2891 4.82202,-2.13251 7.40211,-9.05245 13.6656,-7.43613 -2.16595,6.70196 -0.936851,9.78265 -5.79459,15.4264 -5.17096,6.00718 -15.1149,7.5773 -21.2122,16.0404 -4.43424,6.15459 -1.56898,18.4822 -6.56504,26.1414 -8.32734,12.7658 -22.5788,17.8118 -29.1149,44.7693z"/>
  <path fill="#BF9F4F" stroke="#BF9F4F" stroke-width="0.992126" d="M82.9713 447.578c16.0084,-16.664 30.4447,-21.2995 40.25,-29.4815 7.53478,-6.28753 6.32041,-18.5601 12.8735,-24.1872 6.55314,-5.62706 15.461,-6.31985 21.939,-13.5405 7.40835,-8.25704 -1.25518,-15.1895 13.5862,-15.5398 3.75392,12.0053 -4.30384,9.68117 -5.47059,18.3436 -1.06951,7.94211 1.87682,14.2994 -2.27339,21.5617 21.0045,-15.3298 12.2224,-18.169 18.1729,-29.2791 3.84888,-7.18583 5.90315,-3.77462 9.14174,-11.9163 5.33311,-13.407 -9.72851,-21.0767 7.34429,-35.8007l0.239528 -18.8875 -19.042 -0.0379843c-13.6267,18.1182 -22.1491,8.02914 -33.361,14.2506 -4.50992,2.50243 -10.912,13.227 -15.3011,16.4906 -6.27307,4.6647 -7.97726,3.5331 -14.5596,7.89959 -8.46256,5.6143 -9.76139,6.52763 -15.0358,22.4722 17.4969,-16.6187 20.5328,-12.8727 30.5175,-17.2891 4.82202,-2.13251 7.40211,-9.05245 13.6656,-7.43613 -2.16595,6.70196 -0.936851,9.78265 -5.79459,15.4264 -5.17096,6.00718 -15.1149,7.5773 -21.2122,16.0404 -4.43424,6.15459 -1.56898,18.4822 -6.56504,26.1414 -8.32734,12.7658 -22.5788,17.8118 -29.1149,44.7693z"/>
  <path fill="#BF9F4F" stroke="#BF9F4F" stroke-width="0.992126" d="M410.802 439.917c-16.0084,-16.664 -23.3518,-10.5177 -33.1563,-18.699 -7.53421,-6.28668 -5.46917,-9.48019 -11.1711,-15.391 -5.70189,-5.91081 -8.93481,-3.48236 -15.4128,-10.7031 -7.40835,-8.25704 -1.29855,-21.7157 -23.8011,-30.8622 -3.75392,12.0053 4.02066,9.68145 5.18684,18.3436 1.06923,7.94155 0.109417,19.4068 4.25962,26.6692 -21.0045,-15.3298 -11.3718,-19.3045 -17.3217,-30.4141 -3.84832,-7.18526 -7.28363,-3.91096 -10.8442,-11.9163 -6.46753,-14.5417 6.60728,-24.198 -9.33052,-39.2057l-0.239528 -18.8875 19.042 -0.0379843c13.6267,18.1182 22.1491,8.02914 33.361,14.2506 4.50992,2.50243 10.912,13.227 15.3011,16.4906 6.27307,4.6647 7.69352,1.54687 14.2758,5.91336 8.46256,5.6143 4.65392,-0.566079 9.92835,15.3785 -16.0781,-12.3625 -14.2903,-3.79276 -24.2751,-8.20914 -4.82202,-2.13251 -8.53711,-10.4712 -15.9355,-3.7474 9.25966,6.70196 7.74681,17.1601 12.6045,22.8039 5.17096,6.00718 13.1292,5.02441 19.226,13.4867 4.43339,6.15402 3.27203,11.1053 8.26753,18.7639 8.32678,12.7653 17.1876,11.0018 20.035,35.9731z"/>
 </g>
</svg>
