<?xml version="1.0" encoding="UTF-8"?>
<!DOCTYPE svg PUBLIC "-//W3C//DTD SVG 1.1//EN" "http://www.w3.org/Graphics/SVG/1.1/DTD/svg11.dtd">
<!-- Creator: CorelDRAW -->
<svg xmlns="http://www.w3.org/2000/svg" xml:space="preserve" width="500px" height="571px" style="shape-rendering:geometricPrecision; text-rendering:geometricPrecision; image-rendering:optimizeQuality; fill-rule:evenodd; clip-rule:evenodd"
viewBox="0 0 500 580"
 xmlns:xlink="http://www.w3.org/1999/xlink"
 xmlns:svg="http://www.w3.org/2000/svg"
 version="1.0">
 <defs>
  <style type="text/css">
   <![CDATA[
    .str0 {stroke:#006338;stroke-width:0.708662}
    .str1 {stroke:#1F1A17;stroke-width:0.992126}
    .fil4 {fill:#1F1A17}
    .fil5 {fill:#70614E}
    .fil1 {fill:#C2C1C1}
    .fil2 {fill:white}
    .fil3 {fill:#006338}
    .fil0 {fill:#00824A}
   ]]>
  </style>
 </defs>
 <g id="Layer_x0020_1">
  <metadata id="CorelCorpID_0Corel-Layer"/>
  <path id="path1937" class="fil0 str0" d="M0.342709 0.758835l499.234 -0.120756 -0.0459213 343.887c-26.0524,313.598 -464.531,314.875 -499.153,-0.329953l-0.0342992 -343.436z"/>
  <path id="path1937_0" class="fil1" d="M382.145 0.666709l117.431 -0.0286299 -0.0204095 153.368c-1.98964,1.63134 -1.69143,-1.62284 -8.07988,3.60907 -6.38816,5.23191 -12.3375,29.2178 -24.6654,39.2817 -12.3282,10.0638 -33.1875,9.27922 -48.0252,21.4217 -14.838,12.1425 -22.4235,39.6961 -38.6317,53.1176 -16.2085,13.4215 -41.963,12.1351 -57.7968,25.5422 -15.8338,13.407 -25.3488,41.9043 -41.2555,55.7615 -15.9066,13.8572 -40.8399,9.51789 -56.8565,22.8288 -16.0163,13.3109 -27.4346,38.0001 -42.4809,50.5043 -15.0463,12.5042 -36.8785,14.0329 -51.9103,26.5255 -15.0316,12.4923 -24.893,32.8079 -35.1097,41.2991 -10.2169,8.49119 -14.9239,8.94218 -20.4613,13.5437 -38.5974,-38.8301 -66.2151,-93.2307 -73.9058,-163.246l-0.00396851 -41.3652c5.96495,-4.7211 4.68085,-10.1537 14.2963,-17.7642 9.61569,-7.61018 37.2144,-6.50665 50.599,-17.0994 13.3849,-10.5931 16.8571,-36.557 30.9929,-47.7451 14.1361,-11.1878 38.4089,-9.74949 53.8248,-21.9509 15.4159,-12.2015 21.8143,-37.6469 37.3913,-49.9754 15.5767,-12.3284 40.4096,-9.036 56.0696,-21.4305 15.66,-12.3948 23.4666,-41.5216 37.8944,-52.941 14.4275,-11.4194 32.4924,-2.76973 48.6737,-15.5761 11.1234,-8.80385 18.7413,-37.7819 29.204,-46.063 10.4624,-8.28085 16.6564,-6.73427 22.8263,-11.6172z"/>
  <path id="path1937_1" class="fil2" d="M382.145 0.666709l7.69748 -0.00170079c-10.3805,10.2158 -11.8355,7.07981 -24.9007,17.8914 -13.0652,10.8119 -14.387,31.9981 -30.5955,45.4196 -16.2082,13.4215 -33.2442,4.176 -49.0779,16.9413 -15.8338,12.7653 -19.7569,37.7425 -35.6635,51.5999 -15.9066,13.8572 -40.4306,7.90583 -56.4472,21.2168 -16.0163,13.3109 -22.6823,36.9034 -37.7286,49.4076 -15.0463,12.5039 -37.5202,11.6949 -51.7927,21.132 -14.2724,9.43711 -18.0173,36.2024 -35.3659,50.0927 -17.3489,13.8901 -34.2828,5.39207 -48.6975,17.8447 -3.52403,3.04469 -4.44274,9.23471 -19.1993,15.7501l-0.000850394 -5.13156c5.96495,-4.7211 4.68085,-10.1537 14.2963,-17.7642 9.61569,-7.61018 37.2144,-6.50665 50.599,-17.0994 13.3849,-10.5931 16.8571,-36.557 30.9929,-47.7451 14.1361,-11.1878 38.4089,-9.74949 53.8248,-21.9509 15.4159,-12.2015 21.8143,-37.6469 37.3913,-49.9754 15.5767,-12.3284 40.4096,-9.036 56.0696,-21.4305 15.66,-12.3948 23.4666,-41.5216 37.8944,-52.941 14.4275,-11.4194 32.4924,-2.76973 48.6737,-15.5761 11.1234,-8.80385 18.7413,-37.7819 29.204,-46.063 10.4624,-8.28085 16.6564,-6.73427 22.8263,-11.6172z"/>
  <path id="path1937_2" class="fil3" d="M489.914 154.622l9.64262 -7.03106 -0.000566929 6.41481c-1.98964,1.63134 -0.864851,-1.62284 -7.25301,3.60907 -6.38844,5.23191 -12.3375,29.2178 -24.6657,39.2817 -12.3282,10.0638 -33.1872,10.3 -48.0252,22.4425 -14.8377,12.1425 -22.229,39.6961 -38.4372,53.1176 -16.2085,13.4218 -42.984,14.1775 -58.8178,27.5845 -15.8338,13.4067 -24.0701,39.1448 -39.9765,53.0019 -15.9066,13.8572 -40.4907,11.2561 -56.507,24.567 -16.0166,13.3109 -28.4556,36.2619 -43.5019,48.7661 -15.0463,12.5042 -36.8785,15.054 -51.9103,27.5463 -15.0319,12.4923 -25.5005,32.5043 -35.7171,40.9955 -10.2169,8.49119 -14.9239,7.92142 -20.4613,12.5229 -1.50747,-1.51654 -2.99849,-3.05745 -4.47222,-4.62189 33.3102,-11.0373 39.1093,-43.2352 52.5422,-53.5578 13.4328,-10.3227 44.6834,-17.4175 58.0683,-28.0106 13.3846,-10.5931 25.5827,-38.1067 39.7188,-49.2945 14.1358,-11.1881 43.1079,-13.5697 58.5238,-25.7712 15.4159,-12.2012 24.499,-41.5894 40.076,-53.9178 15.577,-12.3284 43.7658,-13.1494 59.4258,-25.5439 15.66,-12.3948 20.1107,-38.1651 34.5382,-49.5845 14.4278,-11.4194 35.1785,-11.4973 51.3587,-24.3026 10.3689,-8.20659 15.7796,-28.3159 25.8514,-38.2142z"/>
  <path class="fil4 str1" d="M17.7494 347.056l15.088 -5.43005c3.14249,3.11925 6.2847,5.19676 9.42747,5.75065 19.5928,-8.22331 39.1856,-19.2855 58.779,-30.9373l7.35364 6.07125 5.63046 0.991843 9.10687 -6.07125 -4.02747 -11.321c97.3024,-59.9945 246.671,-174.543 281.251,-206.743l19.436 1.60299c19.4638,-13.496 37.9624,-27.7433 49.7021,-47.2476l-2.68498 -9.39742 9.39742 -10.7399c24.9398,35.0048 17.3387,71.172 -29.5348,108.742l-262.457 203.387c-53.4016,36.9936 -115.745,66.6615 -166.469,1.34249z"/>
  <path class="fil5" d="M397.475 139.639c31.9757,-24.6847 62.0198,-49.4765 78.5467,-75.0201l4.48838 -3.84718c-10.5131,25.7528 -45.0576,52.2564 -83.035,78.8673z"/>
  <path class="fil5" d="M403.567 152.143c38.5237,-29.8035 60.4985,-50.2396 72.4553,-71.8141l4.48838 -3.84718c-10.5131,25.7528 -38.9662,49.0504 -76.9437,75.6613z"/>
  <path class="fil5" d="M412.223 157.913c38.5234,-31.8067 52.4824,-42.5713 64.4403,-61.8755l2.56479 -1.92359c-12.9864,24.764 -30.8325,36.4669 -67.0051,63.7991z"/>
  <path class="fil5" d="M51.8701 356.043l-1.60299 3.20599c40.6092,-15.12 99.1715,-45.8966 121.827,-66.6845 -29.2952,18.4102 -75.3279,46.6645 -120.224,63.4785z"/>
  <path class="fil5" d="M56.3585 361.493l6.73257 0.961796c38.9092,-13.4206 75.8393,-27.3733 99.3856,-49.0516 -29.2952,20.0132 -62.504,34.4818 -106.118,48.0898z"/>
  <path class="fil5" d="M68.2206 366.944l-1.60299 3.20599c60.9906,-9.53122 131.193,-60.1115 163.185,-88.8058 -29.2952,19.372 -77.5721,65.5798 -161.582,85.5998z"/>
  <path class="fil5" d="M83.6093 370.47l-4.80898 1.92359c65.0189,-4.15899 113.677,-46.7036 153.567,-78.8673 -34.7454,22.2574 -71.4807,66.8622 -148.758,76.9437z"/>
  <path class="fil5" d="M186.842 298.977c20.291,-14.2532 39.6607,-28.8133 57.3871,-43.922 -19.1293,14.5338 -39.5408,29.0676 -61.2343,43.6014l3.84718 0.320599z"/>
  <polygon class="fil5" points="167.286,310.198 178.827,302.183 180.43,302.183 171.133,308.915 "/>
  <path class="fil5" d="M89.7007 380.088c-23.7776,4.15559 -44.9368,-7.57276 -64.4403,-28.2127l-0.320599 -3.20599 3.20599 -2.88539 5.77077 -0.641197 0 1.92359 -2.24419 0.961796 -0.961796 2.88539c16.2437,18.7019 35.907,28.4267 58.9901,29.1745z"/>
  <path class="fil5" d="M98.0363 320.457c-16.5104,11.0608 -34.7842,20.3582 -53.8606,28.8539l1.28239 2.24419c20.6255,-6.73285 39.5408,-16.8851 56.7459,-30.4569l-4.16778 -0.641197z"/>
  <path class="fil5" d="M114.066 327.51l-0.961796 -1.60299c6.37682,-4.59525 11.3272,-7.26662 11.8621,-10.9004l-2.56479 -7.37377 37.8306 -25.0067 3.52658 -0.320599 1.28239 3.20599c-12.1827,7.48063 -23.4037,16.5643 -36.5482,22.4419l-0.320599 3.20599 2.24419 4.48838 -0.961796 3.52658 -15.3887 8.33556z"/>
  <path class="fil5" d="M178.507 270.764c-1.49613,1.28239 1.49613,4.48838 2.24419,3.84718 15.4956,-9.40423 30.9912,-21.3732 46.4868,-32.0599 3.74032,-2.67165 -0.85493,-6.30511 -4.16778,-3.20599 -14.8544,10.4729 -28.747,22.2282 -44.5632,31.4187z"/>
  <path class="fil5" d="M240.703 225.56c-1.92359,2.56451 1.06838,5.77049 2.24419,3.84718 15.4956,-9.40423 31.3118,-22.6556 46.8074,-33.3423 4.59496,-3.95405 -0.320882,-8.22841 -4.48838,-3.84718 -14.8544,10.4729 -28.747,24.1518 -44.5632,33.3423z"/>
  <path class="fil5" d="M302.578 179.073c-1.92359,2.56451 1.06838,6.41169 2.24419,4.48838 15.4956,-9.40423 29.0676,-22.6556 44.5632,-33.3423 6.30482,-4.8087 0.74778,-7.15918 -5.12958,-1.92359 -14.8544,10.4729 -25.8616,21.587 -41.6778,30.7775z"/>
  <path class="fil5" d="M357.721 138.357c-1.92359,2.56451 1.70958,5.77049 2.88539,3.84718 15.4956,-9.40423 28.4264,-22.335 43.922,-33.0217 4.70183,-3.8469 -0.214016,-9.40337 -6.73257,-2.88539 -13.2514,10.4729 -25.2204,20.9458 -40.0748,32.0599z"/>
  <path class="fil4" d="M255.45 182.92l15.3887 19.6512 45.8456 -35.0399 -14.1063 -18.5947c-1.08198,-1.41109 -5.13836,2.99055 -7.18186,4.46457 -3.75931,-0.982489 -5.09585,-0.510803 -6.29037,2.78136 -2.89559,-0.523276 -5.88048,2.25156 -5.2492,5.12362l-2.60022 1.57606c-4.21795,-4.2069 -10.6265,0.69789 -7.32898,5.74895l-3.28791 2.57301c-3.17197,-3.34262 -6.57922,-0.657071 -5.97118,1.98482 -3.47017,-1.05506 -5.71408,1.36573 -4.90904,5.43969 -1.32973,1.53751 -4.58277,3.71594 -4.30923,4.29137z"/>
  <path class="fil5" d="M273.404 193.82c-4.58816,-3.76866 -8.19638,-9.04791 -11.8621,-12.8239l-0.961796 2.88539 13.4651 15.3887 -0.641197 -5.45018z"/>
  <path class="fil5" d="M275.968 189.653c-4.58816,-3.76895 -7.23459,-10.6509 -10.9004,-14.4269l-0.961796 2.88539 13.4651 15.3887 -1.60299 -3.84718z"/>
  <path class="fil5" d="M280.136 187.088c-4.58759,-3.76895 -7.87578,-10.6509 -11.5415,-14.4269l-0.961796 2.88539 13.4651 15.3887 -0.961796 -3.84718z"/>
  <path class="fil5" d="M298.09 171.379c-2.45764,-1.54913 -2.45792,-6.14466 -10.9004,-12.8239l-0.961796 2.88539 12.5033 13.4651 -0.641197 -3.52658z"/>
  <path class="fil5" d="M302.899 170.096c-2.45764,-1.54913 -5.66391,-8.70945 -10.9004,-15.0681l-0.961796 2.88539 12.5033 16.0299 -0.641197 -3.84718z"/>
  <path class="fil5" d="M281.003 173.665c-0.383528,-4.91726 -2.13364,-5.87225 -2.38082,-8.60344 -0.383528,-1.0474 -2.4069,-1.41165 -1.97093,0.54652 1.99758,5.743 3.08438,8.51755 4.35175,8.05692z"/>
  <path class="fil5" d="M286.059 178.31c-0.793418,-4.50681 -2.45225,-5.55307 -2.38082,-8.60344 -0.74778,-1.95817 -2.68129,-2.34567 -1.97093,0.54652 0.195591,0.796252 2.19969,7.13707 4.35175,8.05692z"/>
  <path class="fil5" d="M291.126 183.986c-0.628158,-3.56797 -1.2583,-4.94277 -1.20161,-7.35789 -0.592158,-1.55027 -0.940536,-2.09736 -1.97036,0.0229606 -0.312378,0.643181 0.673512,5.75462 3.17197,7.33493z"/>
  <path class="fil5" d="M295.634 189.178c-0.628158,-3.56825 -0.848126,-5.62621 -0.791433,-8.04133 -0.592158,-1.55027 -0.938835,-1.96073 -1.97036,0.159307 -0.313229,0.643748 0.263622,6.3017 2.7618,7.88202z"/>
  <path class="fil5" d="M298.776 194.37c-0.627874,-3.56825 -0.984473,-4.94306 -0.92778,-7.35818 -0.0456378,-0.730489 -2.19402,-2.1121 -2.24391,0.159307 -0.580252,1.41336 0.673512,5.61855 3.17169,7.19887z"/>
  <path class="fil5" d="M303.422 200.518c-0.715181,-4.39172 -1.68293,-4.34863 -2.15773,-6.26514 -0.592158,-1.55027 -0.803056,-2.23427 -1.83373,-0.113953 -0.312945,0.643748 1.49329,4.79906 3.99147,6.37909z"/>
  <path class="fil4 str1" d="M315.865 139.81l14.7816 18.4368 48.2743 -38.9866 -14.7135 -16.166c-1.08198,-1.41109 -3.31682,1.16901 -5.36032,2.64302 -3.75931,-0.982489 -5.09585,-0.510803 -6.29037,2.78136 -2.89559,-0.523276 -6.48766,2.25156 -5.85638,5.12362l-4.11818 3.7012c-4.62189,-4.96942 -12.2445,0.136347 -8.54334,6.05254l-4.19868 4.09096c-3.77915,-2.12825 -6.57922,0.557292 -6.57837,3.19918 -3.47017,-1.05506 -5.71408,0.758552 -4.90904,4.83251 -1.32973,1.53751 -2.76123,3.71594 -2.48769,4.29137z"/>
  <path class="fil5" d="M334.425 146.157c-3.95405,-2.67165 -7.9081,-8.5493 -11.8621,-12.8239l-0.961796 2.88539 13.4651 15.3887 -0.641197 -5.45018z"/>
  <path class="fil5" d="M339.944 143.674c-3.95405,-2.67165 -7.5875,-10.1523 -11.5415,-14.4269l-0.961796 2.88539 13.4651 15.3887 -0.961796 -3.84718z"/>
  <path class="fil5" d="M358.504 126.447c-2.45764,-1.54913 -2.45792,-6.14466 -10.9004,-12.8239l-0.961796 2.88539 12.5033 13.4651 -0.641197 -3.52658z"/>
  <path class="fil5" d="M363.313 125.165c-2.45764,-1.54913 -5.66391,-8.70945 -10.9004,-15.0681l-0.961796 2.88539 12.5033 16.0299 -0.641197 -3.84718z"/>
  <path class="fil5" d="M341.418 128.733c-0.383528,-4.91726 -2.13364,-5.87225 -2.38082,-8.60344 -0.383528,-1.0474 -2.4069,-1.41165 -1.97093,0.54652 1.99758,5.743 3.08438,8.51755 4.35175,8.05692z"/>
  <path class="fil5" d="M346.473 133.379c-0.793418,-4.50681 -2.45225,-5.55307 -2.38082,-8.60344 -0.74778,-1.95817 -2.38451,-2.40293 -1.97093,0.54652 0.196158,1.40003 2.19997,7.3732 4.35175,8.05692z"/>
  <path class="fil5" d="M351.54 139.054c-0.628158,-3.56797 -1.2583,-4.94277 -1.20161,-7.35789 -0.592158,-1.55027 -1.3972,-2.26375 -1.97036,0.0229606 -0.312378,1.24696 0.673796,5.99074 3.17197,7.33493z"/>
  <path class="fil5" d="M354.834 144.854c-0.628158,-3.56825 -0.848126,-5.62621 -0.791433,-8.04133 -0.592158,-1.55027 -1.3972,-2.12769 -1.97036,0.159307 -0.312662,1.24753 0.263906,6.53783 2.7618,7.88202z"/>
  <path class="fil5" d="M358.584 150.653c-0.627874,-3.56825 -0.984473,-4.94306 -0.92778,-7.35818 -0.0456378,-0.730489 -2.19402,-2.1121 -2.24391,0.159307 -0.579969,2.01713 0.673796,5.85468 3.17169,7.19887z"/>
  <path class="fil5" d="M367.612 121.893c-2.45764,-1.54913 -3.97588,-5.53748 -11.2039,-14.0383l-0.961796 2.88539 11.8962 13.4651 0.269575 -2.31222z"/>
  <path class="fil4" d="M192.607 230.584l13.5672 19.9548 51.3102 -37.4686 -15.3207 -19.8091c-1.08198,-1.41109 -5.13836,2.99055 -7.18186,4.46457 -3.75931,-0.982489 -5.09585,-0.510803 -6.29037,2.78136 -2.89559,-0.523276 -5.88048,2.85874 -5.2492,5.73081l-3.81458 3.7012c-4.06517,-4.86794 -11.0806,-0.268158 -7.63257,5.74895l-3.28791 2.57301c-3.77915,-2.12825 -6.88281,-1.26425 -6.57837,2.592 -3.47017,-1.05506 -5.71408,0.454961 -4.90904,4.52892 -1.32973,1.53751 -4.88636,4.62671 -4.61282,5.20214z"/>
  <path class="fil5" d="M206.917 243.002c-4.58816,-3.76866 -8.19638,-9.04791 -11.8621,-12.8239l-0.961796 2.88539 13.4651 15.3887 -0.641197 -5.45018z"/>
  <path class="fil5" d="M211.607 238.227c-4.58816,-3.76895 -7.23459,-10.6509 -10.9004,-14.4269l-0.961796 2.88539c4.48838,6.95141 8.97648,11.6762 13.4651,15.3887l-1.60299 -3.84718z"/>
  <path class="fil5" d="M217.293 235.662c-4.58759,-3.76895 -7.87578,-10.6509 -11.5415,-14.4269l-0.961796 2.88539 13.4651 15.3887 -0.961796 -3.84718z"/>
  <path class="fil5" d="M237.675 217.828c-2.45764,-1.54913 -2.45792,-6.14466 -10.9004,-12.8239l-0.961796 2.88539 12.5033 13.4651 -0.641197 -3.52658z"/>
  <path class="fil5" d="M244.002 214.724c-2.45764,-1.54913 -5.66391,-8.70945 -10.9004,-15.0681l-0.961796 2.88539 12.5033 16.0299 -0.641197 -3.84718z"/>
  <path class="fil5" d="M218.464 220.418c-0.383528,-4.91726 -2.13364,-5.87225 -2.38082,-8.60344 -0.383528,-1.0474 -2.4069,-1.41165 -1.97093,0.54652 1.99758,5.743 3.08438,8.51755 4.35175,8.05692z"/>
  <path class="fil5" d="M223.519 225.063c-0.793418,-4.50681 -2.45225,-5.55307 -2.38082,-8.60344 -0.74778,-1.95817 -2.68129,-2.34567 -1.97093,0.54652 0.195591,0.796252 2.19969,7.13707 4.35175,8.05692z"/>
  <path class="fil5" d="M228.586 230.739c-0.628158,-3.56797 -1.2583,-4.94277 -1.20161,-7.35789 -0.592158,-1.55027 -0.940536,-2.09736 -1.97036,0.0229606 -0.312378,0.643181 0.673512,5.75462 3.17197,7.33493z"/>
  <path class="fil5" d="M233.094 235.931c-0.628158,-3.56825 -0.848126,-5.62621 -0.791433,-8.04133 -0.592158,-1.55027 -0.938835,-1.96073 -1.97036,0.159307 -0.313229,0.643748 0.263622,6.3017 2.7618,7.88202z"/>
  <path class="fil5" d="M236.237 241.123c-0.627874,-3.56825 -0.984473,-4.94306 -0.92778,-7.35818 -0.0456378,-0.730489 -2.19402,-2.1121 -2.24391,0.159307 -0.580252,1.41336 0.673512,5.61855 3.17169,7.19887z"/>
  <path class="fil4" d="M131.889 274.604l12.6564 18.4368 48.5779 -33.8256 -14.1063 -18.5947c-1.08198,-1.41109 -5.13836,2.99055 -7.18186,4.46457 -3.75931,-0.982489 -5.09585,-0.510803 -6.29037,2.78136 -2.89559,-0.523276 -5.88048,2.85874 -5.2492,5.73081l-1.68945 1.27247c-4.6474,-5.3864 -11.9157,-0.862867 -8.23975,5.44536l-2.68073 1.96583c-3.17197,-2.12825 -7.48999,-0.657071 -7.18555,3.19918 -3.47017,-1.05506 -5.1069,0.758552 -4.30186,4.83251 -1.32973,1.53751 -4.58277,3.71594 -4.30923,4.29137z"/>
  <path class="fil5" d="M145.288 284.594c-4.58816,-3.76866 -5.46407,-7.83355 -9.12983,-11.6096l-0.961796 2.88539 10.7328 14.1744 -0.641197 -5.45018z"/>
  <path class="fil5" d="M151.8 283.462c-4.58816,-3.76895 -6.6274,-12.776 -10.2932,-16.5521l-0.961796 2.88539 10.7328 16.2995 0.522142 -2.63282z"/>
  <path class="fil5" d="M159.004 278.772c-4.58759,-3.76895 -9.09015,-10.9545 -12.7559,-14.7305l-1.87257 2.27821 14.0723 16.2995 0.556158 -3.84718z"/>
  <path class="fil5" d="M174.528 263.063c-2.45764,-1.54913 -2.45792,-6.14466 -10.9004,-12.8239l-0.961796 2.88539 12.5033 13.4651 -0.641197 -3.52658z"/>
  <path class="fil5" d="M179.337 261.781c-2.45764,-1.54913 -5.66391,-8.70945 -10.9004,-15.0681l-0.961796 2.88539 12.5033 16.0299 -0.641197 -3.84718z"/>
  <path class="fil5" d="M157.442 265.349c-0.383528,-4.91726 -2.13364,-5.87225 -2.38082,-8.60344 -0.383528,-1.0474 -2.4069,-1.41165 -1.97093,0.54652 1.99758,5.743 3.08438,8.51755 4.35175,8.05692z"/>
  <path class="fil5" d="M162.497 269.994c-0.793418,-4.50681 -2.45225,-5.55307 -2.38082,-8.60344 -0.74778,-1.95817 -2.68129,-2.34567 -1.97093,0.54652 0.195591,0.796252 2.19969,7.13707 4.35175,8.05692z"/>
  <path class="fil5" d="M167.564 275.67c-0.628158,-3.56797 -1.2583,-4.94277 -1.20161,-7.35789 -0.592158,-1.55027 -0.940536,-2.09736 -1.97036,0.0229606 -0.312378,0.643181 0.673512,5.75462 3.17197,7.33493z"/>
  <path class="fil5" d="M172.073 280.863c-0.628158,-3.56825 -0.848126,-5.62621 -0.791433,-8.04133 -0.592158,-1.55027 -0.938835,-1.96073 -1.97036,0.159307 -0.313229,0.643748 0.263622,6.3017 2.7618,7.88202z"/>
  <path class="fil5" d="M175.215 286.054c-0.627874,-3.56825 -0.984473,-4.94306 -0.92778,-7.35818 -0.0456378,-0.730489 -2.19402,-2.1121 -2.24391,0.159307 -0.580252,1.41336 0.673512,5.61855 3.17169,7.19887z"/>
  <path class="fil5" d="M180.403 289.73c-1.1486,-3.5212 -2.53417,-3.95348 -4.85944,-3.62778 -1.6509,-0.168662 -2.35644,-0.287717 -0.926646,1.58627 0.433984,0.568914 3.25106,3.56173 5.78608,2.04151z"/>
  <path class="fil5" d="M422.69 100.712c-1.92359,2.56451 3.22753,4.25254 4.40334,2.32923 18.5624,-14.1404 30.532,-24.0061 42.4041,-37.2719 4.05043,-4.52636 2.9092,-12.4866 -2.4823,-5.01052 -10.9877,15.2359 -29.471,30.3715 -44.3251,39.9532z"/>
  <path class="fil5" d="M470.96 42.7258c-1.92359,2.56451 -0.25937,6.88536 1.06384,5.06155 0.227622,-0.313795 3.31937,-2.96476 5.0624,-5.09131 3.18019,-3.88063 -0.142299,-6.8057 -3.08948,-4.40334 -0.665292,0.685985 -3.0583,4.85547 -3.03676,4.4331z"/>
  <path class="fil5" d="M242.124 242.605c-3.81515,-2.24901 -3.69581,-2.38989 -5.97827,-1.83912 -1.6594,-0.00680315 -1.40428,-0.600378 -0.767622,1.66932 0.487843,1.73792 4.37159,3.14447 6.74589,0.169795z"/>
  <path class="fil5" d="M366.691 150.712c-3.81515,-2.24901 -3.69581,-2.38989 -5.97827,-1.83912 -1.6594,-0.00680315 -1.40428,-0.600378 -0.767622,1.66932 0.487843,1.73792 4.37159,3.14447 6.74589,0.169795z"/>
 </g>
</svg>
