<?xml version="1.0" encoding="UTF-8" standalone="no"?>
<!-- Creator: CorelDRAW -->

<svg
   xmlns:dc="http://purl.org/dc/elements/1.1/"
   xmlns:cc="http://creativecommons.org/ns#"
   xmlns:rdf="http://www.w3.org/1999/02/22-rdf-syntax-ns#"
   xmlns:svg="http://www.w3.org/2000/svg"
   xmlns="http://www.w3.org/2000/svg"
   xmlns:sodipodi="http://sodipodi.sourceforge.net/DTD/sodipodi-0.dtd"
   xmlns:inkscape="http://www.inkscape.org/namespaces/inkscape"
   xml:space="preserve"
   width="500px"
   height="571px"
   shape-rendering="geometricPrecision"
   text-rendering="geometricPrecision"
   image-rendering="optimizeQuality"
   fill-rule="evenodd"
   clip-rule="evenodd"
   viewBox="0 0 500 571"
   version="1.0"
   id="svg2"
   inkscape:version="0.48.0 r9654"
   sodipodi:docname="Utsjoki.vaakuna.svg"><metadata
   id="metadata17"><rdf:RDF><cc:Work
       rdf:about=""><dc:format>image/svg+xml</dc:format><dc:type
         rdf:resource="http://purl.org/dc/dcmitype/StillImage" /></cc:Work></rdf:RDF></metadata><defs
   id="defs15">
  
  
 
   
   
   
   
   
   
  </defs><sodipodi:namedview
   pagecolor="#ffffff"
   bordercolor="#666666"
   borderopacity="1"
   objecttolerance="10"
   gridtolerance="10"
   guidetolerance="10"
   inkscape:pageopacity="0"
   inkscape:pageshadow="2"
   inkscape:window-width="1280"
   inkscape:window-height="738"
   id="namedview13"
   showgrid="false"
   inkscape:zoom="5.1416941"
   inkscape:cx="440.38699"
   inkscape:cy="183.47388"
   inkscape:window-x="-8"
   inkscape:window-y="-8"
   inkscape:window-maximized="1"
   inkscape:current-layer="svg2" />
 <path
   id="path1937"
   d="M -0.470268,0.65367 499.39773,0.6102999 499.99414,335.4043 c -5.82832,125.022 -104.04,235.582 -253.25,234.626 C 93.911142,560.12151 13.508142,470.0991 0.685142,323.0953 L -0.469978,0.6542999 z"
   inkscape:connector-curvature="0"
   style="fill:#000000;stroke:#000000;stroke-width:0.99212599" /><path
   id="_47980000"
   d="m 181.683,83.4676 c 61.4741,-17.6074 47.4891,-1.71043 64.895,-63.6877 20.9273,62.4804 6.84142,47.0866 65.4988,63.6877 -65.8007,20.2232 -44.6718,3.92372 -65.1969,61.5748 -18.4122,-57.0473 -0.60378,-38.3332 -65.1969,-61.5748 z"
   inkscape:connector-curvature="0"
   style="fill:#ffffff;stroke:#ffffff;stroke-width:0.99212599" /><path
   id="_47876680"
   d="m 183.482,83.4676 c 61.4739,-17.6074 47.4888,-1.71043 64.895,-63.6877 20.9273,62.4804 6.84142,47.0866 65.4988,63.6877 -65.8007,20.2232 -44.6721,3.92372 -65.1969,61.5748 -18.4122,-57.0473 -0.60378,-38.3332 -65.1969,-61.5748 z"
   inkscape:connector-curvature="0"
   style="fill:#d9d9d9;stroke:#d9d9d9;stroke-width:0.99212599000000001;fill-opacity:1;stroke-opacity:1" /><path
   id="_47911680"
   d="m 8.72986,223.52 98.7069,169.634 c 2.11805,-10.8814 3.94583,-17.2536 2.46614,-29.1419 0.85578,-16.1447 -14.4261,-22.6862 -17.4711,-35.3339 -2.02082,-8.44215 3.18161,-15.787 1.6869,-25.1445 -1.01906,-22.6792 -14.1214,-31.4048 -16.8205,-39.8877 -3.19465,-12.4163 1.48167,-21.4838 0.936567,-30.5119 -0.104032,-13.7381 -5.22255,-23.4746 -14.1185,-40.4456 8.77578,7.31764 19.3629,17.352 20.5931,23.4627 3.32391,14.0899 -0.499748,22.6775 3.12775,32.9633 3.57421,14.1197 17.276003,24.4205 20.743703,38.3871 2.21329,11.5183 -2.12428,23.237 2.69632,32.6271 3.69298,11.8896 12.6935,12.1295 15.685,20.8851 2.74054,9.59925 2.35446,16.0954 4.57597,21.7259 3.24709,8.22955 7.89534,13.1012 14.5477,19.9074 l -19.381,-200.27 28.3862,97.9084 28.3864,97.9084 c 7.02822,-14.2554 8.30722,-19.0576 9.15052,-34.2542 0.0411,-13.754 -8.08215,-24.569 -9.11821,-40.1344 0.50995,-15.643 6.41764,-14.2625 6.98627,-33.4097 0.71263,-23.5704 -11.6581,-29.3488 -13.3858,-46.6138 -0.33931,-9.62873 3.384,-20.1422 5.45896,-30.7599 2.3091,-8.9966 -1.00176,-15.9097 -1.03947,-24.4375 4.04901,8.55723 11.7207,12.5875 15.1665,22.3523 1.96158,14.612 -5.13185,15.6413 -1.96328,27.989 1.65969,9.93317 13.2803,22.1304 11.9217,36.1383 0.095,13.6899 -3.3429,19.9049 -2.46274,29.8117 1.13159,12.7386 6.22403,25.6983 12.943,37.6725 1.87427,10.5236 -2.92621,13.5014 -1.93691,23.3677 0.92919,9.26901 6.1869,25.0948 14.2699,34.4038 4.40107,-1.16504 3.97247,-2.93358 5.95871,-10.7388 l 13.5814,-194.277 21.6119,194.703 c 12.3112,-16.7547 18.5063,-38.3446 20.0308,-61.1306 0.38182,-12.8684 6.8743,-18.8929 6.68665,-26.2381 -0.41244,-16.1586 -9.22989,-26.7693 -6.57638,-42.4381 7.1263,-22.1301 19.6855,-39.1289 20.7754,-67.2954 2.47606,9.22479 7.06507,17.8458 7.42876,27.6747 -1.94854,13.7648 -11.8409,32.0474 -11.88,48.0714 -0.9343,11.9951 8.7755,28.9622 7.60848,44.9263 1.61773,15.4012 -5.20385,21.3242 -4.47619,32.2787 -0.90425,5.80224 2.29323,8.51386 1.3388,14.5488 -0.80107,13.7976 -12.2428,29.9594 0.20806,44.5592 4.34608,-2.15065 7.48489,-4.90507 9.41613,-9.16867 l 48.6941,-189.638 -16.1782,202.051 c 10.4244,-18.254 19.6413,-33.791 29.4616,-49.3282 6.90066,-14.3685 4.14284,-31.4532 7.12007,-49.7455 4.79991,-14.7362 17.4481,-22.2285 22.5505,-38.7754 l 14.1959,-56.7771 c 0.20721,10.9953 -1.4485,25.1966 -1.16022,35.5119 0.28517,10.2121 2.21414,16.0073 0.43058,22.7639 -4.16636,14.3717 -11.3513,18.1786 -15.2158,34.3616 -3.55295,13.5272 1.95506,19.3102 0.11651,29.0826 -0.91531,14.9462 -16.922,34.42 -20.5535,55.101 -3.68532,9.49125 -4.05043,24.4157 -2.60447,34.8126 5.06211,-3.37323 8.01128,-7.04835 10.6588,-11.9305 l 85.4278,-164.031 -60.2218,185.82 c 7.19348,1.71298 11.8287,-7.56596 19.2067,-17.644 6.77424,-8.87074 18.4045,-14.3147 19.9684,-21.2309 7.65468,-14.1846 1.10523,-19.0298 5.56299,-28.3777 4.18762,-8.03254 13.8093,-13.3489 28.8632,-26.2108 -0.18567,14.7076 1.43915,6.17358 -0.55758,26.0121 -5.01449,4.39654 -11.2363,10.6041 -12.6284,15.3028 -2.33717,6.37427 -0.14683,11.541 -1.27673,17.3118 -8.24826,23.7691 -30.079,38.4829 -30.1777,52.2916 14.7838,-10.717 23.08132,-15.93396 34.84682,-34.80056 -16.8398,45.2812 -37.45522,78.72396 -77.23442,113.13956 -55.5381,-18.5128 -70.0263,-30.9886 -159.37,-38.6351 -66.0019,3.21931 -90.9542,11.8724 -162.991998,40.4462 -27.4309,-22.9 -45.807,-52.4404 -63.5789,-87.414 l 8.65106,1.56302 c -7.68473,-11.0869 -1.4845,-20.3624 -4.33928,-30.2417 -3.77518,-7.65752 -9.96463,-10.1835 -14.0414,-18.4445 -2.58605,-4.17033 0.563244,-9.84955 -1.41874,-14.3215 -2.54438,-4.31263 -5.69197,-1.68293 -7.93418,-6.90123 -2.79525,-15.0559 -4.68482,-31.9227 -5.06523,-48.7894 8.84353,13.9408 14.5267,13.8626 19.4066,21.6998 6.13219,9.56467 5.02016,19.1293 10.5491,28.9962 6.09591,10.5228 19.7376,15.6127 23.7209,26.4376 5.93859,10.8731 2.82189,19.9355 19.6265,27.7906 1.96781,-4.17657 3.02995,-7.74907 2.28161,-11.6232 l -67.2412,-177.912 z"
   inkscape:connector-curvature="0"
   style="fill:#ffffff;fill-opacity:1;stroke:#ffffff;stroke-width:0.99212599;stroke-opacity:1"
   sodipodi:nodetypes="cccccccccccccccccccccccccccccccccccccccccccccccccccccccccccccccccccccccccccccccccccccc" /><path
   id="_47905456"
   d="M 11.1331,224.727 109.84,394.361 c 2.11833,-10.8816 3.94611,-17.2539 2.46614,-29.1422 0.85578,-16.1447 -14.4261,-22.6862 -17.4711,-35.3339 -2.02082,-8.44215 3.18161,-15.787 1.6869,-25.1445 -1.01906,-22.6792 -14.1214,-31.4048 -16.8205,-39.8875 -3.19465,-12.4163 1.48195,-21.4841 0.936567,-30.5121 -0.104032,-13.7378 -5.22227,-23.4746 -14.1182,-40.4453 8.77578,7.31736 19.3629,17.3517 20.5929,23.4624 3.32391,14.0902 -0.499748,22.6777 3.12775,32.9633 3.57421,14.1197 17.276303,24.4205 20.743703,38.3871 2.21329,11.5183 -2.12428,23.237 2.69632,32.6274 3.69298,11.8894 12.6938,12.1292 15.685,20.8848 2.74054,9.59925 2.35446,16.0957 4.57597,21.7262 3.24709,8.22926 7.89534,13.1012 14.5477,19.9072 l -19.381,-200.27 28.3862,97.9084 28.3864,97.9084 c 7.02822,-14.2552 8.30722,-19.0576 9.15052,-34.2539 0.0414,-13.7543 -8.08215,-24.569 -9.11821,-40.1346 0.51023,-15.6427 6.41764,-14.2625 6.98627,-33.4097 0.71263,-23.5704 -11.6581,-29.3488 -13.3858,-46.6135 -0.33931,-9.62901 3.384,-20.1424 5.45896,-30.7602 2.3091,-8.9966 -1.00176,-15.9097 -1.03947,-24.4375 4.04901,8.55752 11.7207,12.5875 15.1665,22.3526 1.96158,14.6118 -5.13185,15.641 -1.96299,27.9887 1.6594,9.93345 13.28,22.1304 11.9217,36.1386 0.0947,13.6896 -3.34318,19.9046 -2.46302,29.8114 1.13159,17.8699 11.3556,29.0186 12.943,37.6725 1.87455,10.5236 -2.92621,13.5017 -1.93691,23.3677 0.92919,9.26901 6.18718,25.0948 14.2702,34.4038 4.40079,-1.16504 3.97219,-2.93358 5.95871,-10.7385 l 13.5811,-194.277 21.6119,194.703 c 12.3114,-16.7547 18.5063,-38.3443 20.031,-61.1306 0.38154,-12.8684 6.87402,-18.8929 6.68637,-26.2378 -0.41244,-16.1589 -9.22989,-26.7693 -6.5761,-42.4381 7.12602,-22.1301 19.6855,-39.1292 20.7751,-67.2957 2.47606,9.22479 7.06536,17.8461 7.42876,27.6747 -1.94854,13.7648 -11.8406,32.0474 -11.88,48.0714 -0.9343,11.9951 8.7755,28.9622 7.60848,44.9263 1.61773,15.4012 -5.20385,21.3242 -4.47619,32.2787 -0.90397,5.80252 2.29351,8.51386 1.3388,14.5488 -0.80079,13.7976 -12.2428,29.9594 0.20834,44.5592 4.3458,-2.15065 7.4846,-4.90507 9.41613,-9.16867 l 48.6941,-189.638 -16.1782,202.051 c 10.4241,-18.2537 19.641,-33.791 29.4616,-49.3282 6.90066,-14.3683 4.14284,-31.4532 7.11978,-49.7455 4.80019,-14.7362 17.4484,-22.2282 22.5505,-38.7751 l 14.1959,-56.7774 c 0.2075,10.9953 -1.4485,25.1966 -1.16022,35.5119 0.28517,10.2121 2.21414,16.0073 0.43087,22.7642 -4.16665,14.3714 -11.3513,18.1786 -15.2161,34.3613 -3.55295,13.5275 1.95506,19.3102 0.1165,29.0829 -0.9153,14.946 -16.922,34.4197 -20.5535,55.1007 -3.68532,9.49125 -4.05043,24.4157 -2.60447,34.8126 5.06211,-3.37323 8.01128,-7.04807 10.6588,-11.9305 l 85.4278,-164.031 -60.2215,185.82 c 7.1932,1.71298 11.8284,-7.56596 19.2064,-17.644 6.77424,-8.87074 18.4048,-14.3144 19.9687,-21.2309 7.65468,-14.1846 1.10495,-19.0296 5.56271,-28.3774 4.18762,-8.03282 13.8096,-13.3489 28.8635,-26.2111 -0.18595,14.7076 1.43915,6.17358 -0.55786,26.0121 -5.01449,4.39682 -11.236,10.6044 -12.6284,15.3031 -2.33717,6.37399 -0.14683,11.541 -1.27673,17.3118 -8.24826,23.7688 -30.079,38.4829 -30.1774,52.2913 14.7838,-10.717 22.54,-16.9064 34.3055,-35.773 -14.15581,43.45519 -36.85346,81.67108 -76.0896,114.414 -55.5381,-18.5131 -69.3845,-31.2908 -153.746,-38.9373 -78.4574,-0.51704 -99.8983,11.2686 -171.936995,39.8427 -29.8457,-24.711 -50.455946,-56.25879 -63.060398,-86.53703 l 10.848998,1.28955 c -7.68444,-11.0869 -1.48422,-20.3624 -4.33928,-30.2414 -3.7749,-7.6578 -9.96463,-10.1838 -14.0414,-18.4448 -2.58577,-4.17005 0.563244,-9.84955 -1.41874,-14.3215 -2.5441,-4.31263 -8.10652,-5.00315 -10.3487,-10.2212 -2.79525,-15.0559 -4.38321,-28.3008 -4.76362,-45.1676 8.84353,13.9411 16.6399,13.5607 21.5198,21.3982 6.13191,9.56438 5.02016,19.1293 10.5489,28.9959 6.09591,10.5228 19.7379,15.6127 23.7209,26.4376 5.93859,10.8731 2.82189,19.9355 19.6265,27.7906 1.96781,-4.17629 3.03024,-7.74879 2.28161,-11.6232 l -67.2412,-177.912 z"
   inkscape:connector-curvature="0"
   style="fill:#d9d9d9;fill-opacity:1;stroke:#d9d9d9;stroke-width:0.99212599;stroke-opacity:1"
   sodipodi:nodetypes="cccccccccccccccccccccccccccccccccccccccccccccccccccccccccccccccccccccccccccccccccccccc" />
</svg>