<?xml version="1.0" encoding="UTF-8"?>
<!DOCTYPE svg PUBLIC "-//W3C//DTD SVG 1.1//EN" "http://www.w3.org/Graphics/SVG/1.1/DTD/svg11.dtd">
<!-- Creator: CorelDRAW -->
<svg xmlns="http://www.w3.org/2000/svg" xml:space="preserve" width="500px" height="573px" shape-rendering="geometricPrecision" text-rendering="geometricPrecision" image-rendering="optimizeQuality" fill-rule="evenodd" clip-rule="evenodd"
viewBox="0 0 500 573"
 xmlns:xlink="http://www.w3.org/1999/xlink"
 xmlns:svg="http://www.w3.org/2000/svg"
 version="1.0">
 <g id="Layer_x0020_1">
  <metadata id="CorelCorpID_0Corel-Layer"/>
  <path id="path1937" fill="#004D27" stroke="black" stroke-width="0.992126" d="M0.0419528 0.514772l499.244 -0.371622 -0.609449 337.902c-10.825,128.606 -122.149,234.012 -249.172,234.012 -135.307,0 -230.637,-99.8842 -248.366,-218.825l-1.09672 -352.718z"/>
  <path id="path1937_0" fill="#BF9F4F" d="M248.617 0.801922c6.72152,108.3 93.159,281.62 243.319,377.304 -27.627,109.943 -128.738,193.951 -242.431,193.951 -126.85,0 -218.593,-88.6459 -244.341,-197.623 155.865,-98.9961 239.394,-258.194 243.453,-373.632z"/>
  <circle fill="#006633" stroke="black" stroke-width="0.992126" cx="247.141" cy="380.081" r="114.921"/>
  <circle fill="none" stroke="#009933" stroke-width="8.50394" cx="246.989" cy="378.548" r="103.725"/>
  <path fill="none" stroke="#33CC99" stroke-width="2.83465" d="M144.459 362.754c7.60876,-49.7826 50.6231,-87.931 102.53,-87.931 21.4784,0 41.4349,6.53188 57.9895,17.7171m44.9022 99.2172c-6.49021,51.0415 -50.0902,90.5165 -102.892,90.5165 -28.6382,0 -54.5692,-11.6124 -73.3411,-30.3843"/>
  <circle fill="#BF9F4F" stroke="black" stroke-width="0.992126" cx="247.141" cy="380.081" r="89.7645"/>
  <path fill="none" stroke="black" stroke-width="2.83465" d="M157.377 380.081c0,-49.5672 40.1973,-89.7645 89.7645,-89.7645 49.5672,0 89.7645,40.1973 89.7645,89.7645"/>
  <path fill="none" stroke="black" stroke-width="2.83465" d="M348.19 434.854c-19.463,35.8234 -57.4209,60.1478 -101.049,60.1478 -43.6278,0 -81.5857,-24.3244 -101.049,-60.1478"/>
  <path fill="#006633" stroke="black" stroke-width="0.992126" d="M154.163 305.419l205.139 116.4c-4.94844,13.0524 -9.8966,22.6536 -16.9155,32.9451l-206.046 -117.78c4.56038,-11.9021 10.5007,-21.7335 17.822,-31.5646z"/>
  <path fill="#006633" stroke="black" stroke-width="0.992126" d="M154.163 454.763l205.139 -116.4c-4.94844,-13.0524 -9.8966,-22.6536 -16.9155,-32.9451l-206.046 117.78c4.56038,11.9021 10.5007,21.7335 17.822,31.5646z"/>
  <path fill="#006633" stroke="black" stroke-width="0.992126" d="M229.253 498.425l-0.310677 -235.862c13.7917,-2.15575 24.5838,-2.60504 36.9998,-0.905103l-0.441071 236.643c-12.5997,1.92387 -24.0826,1.62425 -36.248,0.124441z"/>
  <circle fill="#33CC66" stroke="#009933" stroke-width="2.83465" cx="248.105" cy="301.262" r="6.37923"/>
  <path fill="none" stroke="black" stroke-width="1.41732" d="M250.588 295.384c2.28983,0.968882 3.89651,3.23632 3.89651,5.87821 0,3.52233 -2.85676,6.37909 -6.37909,6.37909 -2.42164,0 -4.52863,-1.35043 -5.6092,-3.33893"/>
  <circle fill="#BF9F4F" stroke="black" stroke-width="1.98425" cx="247.758" cy="379.575" r="13.9715"/>
  <circle fill="#33CC66" stroke="#009933" stroke-width="2.83465" cx="316.561" cy="341.085" r="6.37923"/>
  <path fill="none" stroke="black" stroke-width="1.41732" d="M319.044 335.207c2.28983,0.968882 3.89651,3.23632 3.89651,5.87821 0,3.52233 -2.85676,6.37909 -6.37909,6.37909 -2.42164,0 -4.52863,-1.35043 -5.6092,-3.33893"/>
  <circle fill="#33CC66" stroke="#009933" stroke-width="2.83465" cx="177.191" cy="337.98" r="6.37923"/>
  <path fill="none" stroke="black" stroke-width="1.41732" d="M179.673 332.102c2.28983,0.968882 3.89651,3.23632 3.89651,5.87821 0,3.52233 -2.85676,6.37909 -6.37909,6.37909 -2.42164,0 -4.52863,-1.35043 -5.6092,-3.33893"/>
  <circle fill="#33CC66" stroke="#009933" stroke-width="2.83465" cx="177.191" cy="418.705" r="6.37923"/>
  <path fill="none" stroke="black" stroke-width="1.41732" d="M179.673 412.827c2.28983,0.968882 3.89651,3.23632 3.89651,5.87821 0,3.52233 -2.85676,6.37909 -6.37909,6.37909 -2.42164,0 -4.52863,-1.35043 -5.6092,-3.33893"/>
  <circle fill="#33CC66" stroke="#009933" stroke-width="2.83465" cx="246.186" cy="457.687" r="6.37923"/>
  <path fill="none" stroke="black" stroke-width="1.41732" d="M248.669 451.809c2.28983,0.968882 3.89651,3.23632 3.89651,5.87821 0,3.52233 -2.85676,6.37909 -6.37909,6.37909 -2.42164,0 -4.52863,-1.35043 -5.6092,-3.33893"/>
  <circle fill="#33CC66" stroke="#009933" stroke-width="2.83465" cx="316.906" cy="418.705" r="6.37923"/>
  <path fill="none" stroke="black" stroke-width="1.41732" d="M319.389 412.827c2.28983,0.968882 3.89651,3.23632 3.89651,5.87821 0,3.52233 -2.85676,6.37909 -6.37909,6.37909 -2.42164,0 -4.52863,-1.35043 -5.6092,-3.33893"/>
  <path fill="none" stroke="#009933" stroke-width="2.83465" d="M264.374 268.858c-11.2825,-1.69994 -21.0892,-1.25065 -33.6215,0.905103l-0.120473 56.7213"/>
  <path fill="none" stroke="#33CC66" stroke-width="1.41732" d="M264.374 268.858c-11.2825,-1.69994 -21.0892,-1.25065 -33.6215,0.905103l-0.120473 56.7213"/>
  <line fill="none" stroke="#33CC66" stroke-width="1.98425" x1="158.473" y1="309.928" x2="167.22" y2= "314.614" />
  <line fill="none" stroke="#33CC66" stroke-width="1.98425" x1="340.02" y1="309.928" x2="331.273" y2= "314.614" />
 </g>
</svg>
