<?xml version="1.0" encoding="UTF-8"?>
<!DOCTYPE svg PUBLIC "-//W3C//DTD SVG 1.1//EN" "http://www.w3.org/Graphics/SVG/1.1/DTD/svg11.dtd">
<!-- Creator: CorelDRAW -->
<svg xmlns="http://www.w3.org/2000/svg" xml:space="preserve" width="500px" height="579px" shape-rendering="geometricPrecision" text-rendering="geometricPrecision" image-rendering="optimizeQuality" fill-rule="evenodd" clip-rule="evenodd"
viewBox="0 0 500 579"
 xmlns:xlink="http://www.w3.org/1999/xlink"
 xmlns:svg="http://www.w3.org/2000/svg"
 version="1.0">
 <g id="Layer_x0020_1">
  <metadata id="CorelCorpID_0Corel-Layer"/>
  <path id="path1937" fill="#F00000" stroke="black" stroke-width="0.708662" d="M0.386362 0.568914l499.246 -0.0433701 -0.0260788 407.278c-18.6676,190.425 -222.11,46.6175 -249.556,170.441 -22.5559,-114.869 -228.786,13.3441 -249.755,-170.532l0.0907087 -407.144z"/>
  <path fill="#BF9F4F" d="M54.9397 268.484c98.8422,-57.0379 236.694,-52.3055 390.93,-24.5424 24.325,3.55918 4.33729,51.4313 2.07496,76.1244l15.4531 0.579685 -3.21166 19.2251 -31.4918 -1.53893c0.326268,-20.0591 8.15159,-54.4346 5.06948,-62.2225 -9.19673,5.37988 -16.3483,16.8953 -23.4998,28.4111 -155.547,-34.2343 -286.135,-36.0896 -374.413,16.9435 -4.71572,-22.7733 0.170079,-41.1157 19.0885,-52.9801z"/>
  <path fill="#644D36" d="M63.8487 271.225c58.5063,-36.54 228.022,-46.8958 359.83,-15.5906 4.52041,-4.78148 11.2762,-6.23651 19.6441,-4.98898 -10.9145,2.02677 -15.7995,5.76851 -18.085,10.2898 -155.802,-33.9874 -294.454,-21.2032 -361.389,10.2898z"/>
  <path fill="#8C0000" d="M463.398 320.645l-3.21166 19.2251 -31.4918 -1.53893c0.326268,-20.0591 8.15159,-54.4346 5.06948,-62.2225 -9.19673,5.37988 -16.3483,16.8953 -23.4998,28.4111 -155.547,-34.2343 -286.135,-36.0896 -374.413,16.9435 -4.71572,-22.7733 0.170079,-41.1157 19.0885,-52.9801 -16.0254,13.8538 -20.6952,30.6695 -17.5949,49.5128 66.7182,-46.1529 217.03,-56.9534 373.238,-16.8378 6.75581,-17.7732 20.6833,-29.9339 24.9449,-28.063 3.11811,2.18268 -0.935434,32.7402 -5.6126,61.7386l28.3748 2.18268 5.10803 -16.3715z"/>
  <path fill="none" d="M54.9397 268.484c98.8422,-57.0379 236.694,-52.3055 390.93,-24.5424 6.46129,0.945355 9.79597,5.01761 11.1668,10.9508 -4.53402,-3.86674 -7.15833,-7.68076 -11.833,-8.64908 -137.364,-29.0928 -299.213,-29.4214 -390.264,22.2406zm407.965 55.1149l0.493512 -2.95314 -15.4531 -0.579685 -0.256536 2.29606 15.2161 1.23676z"/>
  <polygon fill="#F00000" points="386.885,269.354 386.885,275.278 394.325,275.278 394.292,281.788 399.987,281.782 399.987,275.081 406.529,275.076 406.529,269.31 400.211,269.304 400.216,262.1 394.374,262.106 394.369,269.348 "/>
  <path fill="#BF9F4F" d="M263.72 168.772c3.88063,-13.4464 -1.41874,-16.3692 -11.9512,-17.1485 -11.7006,-0.865418 -17.4716,6.38249 -12.9648,16.185 -14.2883,-2.40832 -20.5693,3.49399 -19.5795,13.3773 1.34192,13.3985 8.26016,25.8287 24.9599,12.5617 -4.41043,15.1858 -18.6942,15.4046 -22.2724,0.656504l-7.68756 -0.0348662c-4.44671,17.0422 -18.4022,13.968 -23.4714,-0.801355 12.0421,13.2698 21.6023,-1.86888 21.3911,-12.695 -0.231024,-11.8536 -11.918,-18.5973 -23.275,-3.65216 4.63125,-27.7013 -19.3723,-24.2068 -25.5526,-7.64646 17.981,8.31487 17.2534,39.0801 22.1386,59.5559 43.1464,-3.00132 85.8385,-2.81934 128.154,0 2.42589,-30.551 8.16719,-54.6928 23.074,-61.115 -3.8126,-12.8608 -28.6983,-17.8455 -26.1763,3.59292 -11.357,-14.9451 -21.778,-2.57726 -22.3396,9.26476 -0.475654,10.0304 6.27166,23.9029 18.8966,12.3832 -3.50986,15.7045 -17.1536,17.8433 -20.0415,-1.38132l-4.94164 0.168945c-1.22372,14.6974 -18.2534,22.5652 -24.0829,-0.790583 16.6998,13.267 21.7474,3.33099 23.0891,-10.0672 0.989575,-9.883 -3.70262,-21.3701 -17.3673,-12.4138z"/>
  <path fill="#644D36" d="M184.803 226.186c0.206646,1.00176 0.423496,1.98454 0.652252,2.94406 43.1464,-3.00132 85.8385,-2.81934 128.154,0 0.0850394,-1.07405 0.175181,-2.13988 0.269858,-3.19805 -42.406,-1.77364 -85.4227,-1.71496 -129.077,0.253984z"/>
  <path fill="#8C0000" d="M185.455 229.13c-4.88523,-20.4758 -4.15758,-51.2411 -22.1386,-59.5559 1.93125,-5.17493 5.60325,-9.07427 9.59812,-11.1441 -3.9532,3.50674 -6.73654,6.75411 -6.94772,9.42917 17.043,8.32621 17.1193,36.1134 19.4882,61.2709zm8.19213 -56.9739c-1.57748,1.28976 -3.18104,2.96277 -4.77808,5.06438 0.447591,-2.67789 0.627874,-5.06495 0.58252,-7.17619 -0.240662,3.0651 -0.637512,5.81868 -1.19027,8.72816 1.58769,-2.20592 3.38315,-4.72309 5.38583,-6.61635zm0.0629292 27.4459c-1.15597,-1.70476 -2.1651,-3.72671 -2.9571,-6.0344 10.5367,11.611 19.1733,1.47175 21.0266,-8.49714 -4.5652,13.5428 -12.9243,15.7048 -21.8033,7.88939 0.551339,2.7 2.14299,4.5669 3.7338,6.64215zm20.5143 -5.23304c-0.937701,3.59462 -2.2989,6.29462 -3.9104,8.17824 2.4823,-1.25036 3.64734,-4.15077 3.9104,-8.17824zm6.99279 -22.3943c-1.71241,2.35843 -2.36381,5.50488 -1.99276,9.2109 1.34192,13.3985 8.26016,25.8287 24.9599,12.5617 -0.619937,2.13534 -1.43547,3.97531 -2.38876,5.51849 2.57329,-3.10819 4.45351,-6.85276 4.80756,-11.9979 -15.8233,20.4548 -28.5789,7.15267 -25.386,-15.2932zm16.8914 -14.4754c-1.26964,2.76633 -1.13528,6.32693 0.695339,10.309 -0.557859,-0.0938268 -1.1041,-0.175465 -1.63758,-0.244347 2.32583,1.59109 4.50114,3.48293 6.45591,5.815 -3.53566,-4.64599 -5.85808,-9.75204 -5.51367,-15.8797zm25.6113 11.2725c0.72737,-2.52114 1.13272,-4.67235 1.24073,-6.50892 -1.77562,4.14199 -3.6411,7.92397 -5.60211,11.3244l4.36139 -4.8155zm-3.37918 29.1878c-0.896032,-1.8669 -1.68973,-4.09096 -2.34255,-6.70678 16.6998,13.267 21.7477,3.33099 23.0891,-10.0672 0.41726,-4.16892 -0.176032,-8.62441 -2.02819,-11.7094 6.67418,26.1848 -10.4066,33.2034 -21.5028,17.0972 -0.829418,3.02428 0.65367,7.06281 2.78447,11.3862zm21.7301 -5.79657c-0.244914,2.74195 -1.04032,5.24296 -2.20904,7.34259 1.78498,-1.88022 2.6691,-4.36252 2.23455,-7.72385m10.3921 -22.9853c-2.5132,3.12095 -4.11052,7.63541 -4.32085,12.0762 -0.475654,10.0304 6.27166,23.9029 18.8966,12.3832 -0.767622,3.43531 -2.02054,6.22148 -3.53934,8.27689 3.25588,-3.13455 4.84753,-7.10278 5.19166,-11.4871 -14.0834,12.2051 -23.6804,2.00835 -16.2281,-21.2491zm19.4681 -7.13736c-1.34306,2.3298 -1.96158,5.59418 -1.44936,9.94876 -0.443622,-0.583654 -0.885544,-1.12592 -1.32605,-1.62822 0.931749,1.43376 1.49358,2.95994 1.68435,4.57966 -0.0521575,-5.13355 0.172913,-9.01673 1.09106,-12.9002zm1.65288 67.4708c2.42589,-30.551 8.16719,-54.6928 23.074,-61.115 -0.23726,-0.800504 -0.556158,-1.57096 -0.945071,-2.3057 -18.8379,11.2864 -21.8279,41.0023 -22.129,63.4207z"/>
  <path fill="white" d="M334.882 164.304c-4.82684,-6.96473 -16.0526,-10.0301 -21.4912,-4.53373 6.77481,-2.11947 13.8869,-1.09247 21.4912,4.53373zm-26.1122 5.21745c-5.56951,-6.05452 -10.7972,-5.75122 -14.5953,-2.47947 4.47619,-1.11912 9.28971,-0.551906 14.5953,2.47947zm-7.21276 34.1496c-3.9824,3.39421 -8.93963,2.59228 -12.0563,-3.45685 3.29273,6.84227 7.10391,9.62023 12.0563,3.45685zm-14.2061 -9.92523c-0.120756,-0.599528 -0.230457,-1.22315 -0.327685,-1.87058l-4.94164 0.168945c-0.0419528,0.507118 -0.103181,1.0063 -0.181984,1.49613l5.45131 0.205512zm-10.9298 9.95613c-5.3572,4.38548 -13.1465,3.22696 -17.3699,-8.89285 4.12583,14.01 10.2013,15.0803 17.3699,8.89285zm3.83783 -31.5525c-1.70646,-5.19931 -5.7858,-8.53654 -12.9291,-5.37477 6.17811,-0.231874 10.0729,2.00891 12.9291,5.37477zm-16.0895 -15.116c-1.73764,-3.72841 -6.14665,-4.94703 -12.4002,-5.40936 -3.65613,-0.270425 -6.7337,0.251433 -9.09922,1.39606 8.51726,-0.124724 16.3072,0.537733 21.4994,4.01329zm-25.365 10.7756c-7.59062,-1.27928 -12.9217,-0.213165 -16.1028,2.54891 3.90671,-1.50803 9.15364,-2.42617 16.1028,-2.54891zm-1.70164 36.2194c-4.32709,2.49761 -9.36596,1.3252 -12.617,-3.51666 2.38989,5.65144 6.0772,8.10312 12.617,3.51666zm-14.6186 -7.64873c-0.212599,-0.625607 -0.404221,-1.2841 -0.571748,-1.97518l-7.68756 -0.0348662c-0.146268,0.561544 -0.303307,1.10154 -0.469701,1.61972l8.72901 0.390331zm-17.5827 9.45015c-3.8795,0.661323 -8.07024,-1.6251 -11.1909,-6.22715 2.04463,5.83654 5.55024,8.41352 11.1909,6.22715zm6.33062 -30.1042c-1.98907,-5.52359 -7.00611,-8.61421 -12.9637,-6.33657 5.22964,0.0371339 9.67182,1.87228 12.9637,6.33657zm-23.2268 -13.0742c-1.65742,-3.73862 -4.56718,-5.57575 -7.85764,-5.85128 3.03421,1.67414 5.65342,3.62466 7.85764,5.85128z"/>
  <path fill="#BF9F4F" d="M54.9397 135.284c98.8422,-57.0379 236.694,-52.3055 390.93,-24.5424 24.325,3.55918 4.33729,51.4313 2.07496,76.1244l15.4531 0.579685 -3.21166 19.2251 -31.4918 -1.53893c0.326268,-20.0591 8.15159,-54.4346 5.06948,-62.2225 -9.19673,5.37988 -16.3483,16.8953 -23.4998,28.4111 -155.547,-34.2343 -286.135,-36.0896 -374.413,16.9435 -4.71572,-22.7733 0.170079,-41.1157 19.0885,-52.9801z"/>
  <path fill="#644D36" d="M63.8487 138.025c58.5063,-36.54 228.022,-46.8958 359.83,-15.5906 4.52041,-4.78148 11.2762,-6.23651 19.6441,-4.98898 -10.9145,2.02677 -15.7995,5.76851 -18.085,10.2898 -155.802,-33.9874 -294.454,-21.2032 -361.389,10.2898z"/>
  <path fill="#8C0000" d="M463.398 187.445l-3.21166 19.2251 -31.4918 -1.53893c0.326268,-20.0591 8.15159,-54.4346 5.06948,-62.2225 -9.19673,5.37988 -16.3483,16.8953 -23.4998,28.4111 -155.547,-34.2343 -286.135,-36.0896 -374.413,16.9435 -4.71572,-22.7733 0.170079,-41.1157 19.0885,-52.9801 -16.0254,13.8538 -20.6952,30.6695 -17.5949,49.5128 66.7182,-46.1529 217.03,-56.9534 373.238,-16.8378 6.75581,-17.7732 20.6833,-29.9339 24.9449,-28.063 3.11811,2.18268 -0.935434,32.7402 -5.6126,61.7386l28.3748 2.18268 5.10803 -16.3715z"/>
  <path fill="none" d="M54.9397 135.284c98.8422,-57.0379 236.694,-52.3055 390.93,-24.5424 6.46129,0.945355 9.79597,5.01761 11.1668,10.9508 -4.53402,-3.86674 -7.15833,-7.68076 -11.833,-8.64908 -137.364,-29.0928 -299.213,-29.4214 -390.264,22.2406zm407.965 55.1149l0.493512 -2.95314 -15.4531 -0.579685 -0.256536 2.29606 15.2161 1.23676z"/>
  <polygon fill="#F00000" points="386.885,136.154 386.885,142.078 394.325,142.078 394.292,148.588 399.987,148.582 399.987,141.881 406.529,141.876 406.529,136.11 400.211,136.104 400.216,128.9 394.374,128.906 394.369,136.148 "/>
  <path fill="#BF9F4F" d="M263.72 35.572c3.88063,-13.4464 -1.41874,-16.3692 -11.9512,-17.1485 -11.7006,-0.865418 -17.4716,6.38249 -12.9648,16.185 -14.2883,-2.40832 -20.5693,3.49399 -19.5795,13.3773 1.34192,13.3985 8.26016,25.8287 24.9599,12.5617 -4.41043,15.1858 -18.6942,15.4046 -22.2724,0.656504l-7.68756 -0.0348662c-4.44671,17.0422 -18.4022,13.968 -23.4714,-0.801355 12.0421,13.2698 21.6023,-1.86888 21.3911,-12.695 -0.231024,-11.8536 -11.918,-18.5973 -23.275,-3.65216 4.63125,-27.7013 -19.3723,-24.2068 -25.5526,-7.64646 17.981,8.31487 17.2534,39.0801 22.1386,59.5559 43.1464,-3.00132 85.8385,-2.81934 128.154,0 2.42589,-30.551 8.16719,-54.6928 23.074,-61.115 -3.8126,-12.8608 -28.6983,-17.8455 -26.1763,3.59292 -11.357,-14.9451 -21.778,-2.57726 -22.3396,9.26476 -0.475654,10.0304 6.27166,23.9029 18.8966,12.3832 -3.50986,15.7045 -17.1536,17.8433 -20.0415,-1.38132l-4.94164 0.168945c-1.22372,14.6974 -18.2534,22.5652 -24.0829,-0.790583 16.6998,13.267 21.7474,3.33099 23.0891,-10.0672 0.989575,-9.883 -3.70262,-21.3701 -17.3673,-12.4138z"/>
  <path fill="#644D36" d="M184.803 92.9861c0.206646,1.00176 0.423496,1.98454 0.652252,2.94406 43.1464,-3.00132 85.8385,-2.81934 128.154,0 0.0850394,-1.07405 0.175181,-2.13988 0.269858,-3.19805 -42.406,-1.77364 -85.4227,-1.71496 -129.077,0.253984z"/>
  <path fill="#8C0000" d="M185.455 95.9301c-4.88523,-20.4758 -4.15758,-51.2411 -22.1386,-59.5559 1.93125,-5.17493 5.60325,-9.07427 9.59812,-11.1441 -3.9532,3.50674 -6.73654,6.75411 -6.94772,9.42917 17.043,8.32621 17.1193,36.1134 19.4882,61.2709zm8.19213 -56.9739c-1.57748,1.28976 -3.18104,2.96277 -4.77808,5.06438 0.447591,-2.67789 0.627874,-5.06495 0.58252,-7.17619 -0.240662,3.0651 -0.637512,5.81868 -1.19027,8.72816 1.58769,-2.20592 3.38315,-4.72309 5.38583,-6.61635zm0.0629292 27.4459c-1.15597,-1.70476 -2.1651,-3.72671 -2.9571,-6.0344 10.5367,11.611 19.1733,1.47175 21.0266,-8.49714 -4.5652,13.5428 -12.9243,15.7048 -21.8033,7.88939 0.551339,2.7 2.14299,4.5669 3.7338,6.64215zm20.5143 -5.23304c-0.937701,3.59462 -2.2989,6.29462 -3.9104,8.17824 2.4823,-1.25036 3.64734,-4.15077 3.9104,-8.17824zm6.99279 -22.3943c-1.71241,2.35843 -2.36381,5.50488 -1.99276,9.2109 1.34192,13.3985 8.26016,25.8287 24.9599,12.5617 -0.619937,2.13534 -1.43547,3.97531 -2.38876,5.51849 2.57329,-3.10819 4.45351,-6.85276 4.80756,-11.9979 -15.8233,20.4548 -28.5789,7.15267 -25.386,-15.2932zm16.8914 -14.4754c-1.26964,2.76633 -1.13528,6.32693 0.695339,10.309 -0.557859,-0.0938268 -1.1041,-0.175465 -1.63758,-0.244347 2.32583,1.59109 4.50114,3.48293 6.45591,5.815 -3.53566,-4.64599 -5.85808,-9.75204 -5.51367,-15.8797zm25.6113 11.2725c0.72737,-2.52114 1.13272,-4.67235 1.24073,-6.50892 -1.77562,4.14199 -3.6411,7.92397 -5.60211,11.3244l4.36139 -4.8155zm-3.37918 29.1878c-0.896032,-1.8669 -1.68973,-4.09096 -2.34255,-6.70678 16.6998,13.267 21.7477,3.33099 23.0891,-10.0672 0.41726,-4.16892 -0.176032,-8.62441 -2.02819,-11.7094 6.67418,26.1848 -10.4066,33.2034 -21.5028,17.0972 -0.829418,3.02428 0.65367,7.06281 2.78447,11.3862zm21.7301 -5.79657c-0.244914,2.74195 -1.04032,5.24296 -2.20904,7.34259 1.78498,-1.88022 2.6691,-4.36252 2.23455,-7.72385m10.3921 -22.9853c-2.5132,3.12095 -4.11052,7.63541 -4.32085,12.0762 -0.475654,10.0304 6.27166,23.9029 18.8966,12.3832 -0.767622,3.43531 -2.02054,6.22148 -3.53934,8.27689 3.25588,-3.13455 4.84753,-7.10278 5.19166,-11.4871 -14.0834,12.2051 -23.6804,2.00835 -16.2281,-21.2491zm19.4681 -7.13736c-1.34306,2.3298 -1.96158,5.59418 -1.44936,9.94876 -0.443622,-0.583654 -0.885544,-1.12592 -1.32605,-1.62822 0.931749,1.43376 1.49358,2.95994 1.68435,4.57966 -0.0521575,-5.13355 0.172913,-9.01673 1.09106,-12.9002zm1.65288 67.4708c2.42589,-30.551 8.16719,-54.6928 23.074,-61.115 -0.23726,-0.800504 -0.556158,-1.57096 -0.945071,-2.3057 -18.8379,11.2864 -21.8279,41.0023 -22.129,63.4207z"/>
  <path fill="white" d="M334.882 31.1034c-4.82684,-6.96473 -16.0526,-10.0301 -21.4912,-4.53373 6.77481,-2.11947 13.8869,-1.09247 21.4912,4.53373zm-26.1122 5.21745c-5.56951,-6.05452 -10.7972,-5.75122 -14.5953,-2.47947 4.47619,-1.11912 9.28971,-0.551906 14.5953,2.47947zm-7.21276 34.1496c-3.9824,3.39421 -8.93963,2.59228 -12.0563,-3.45685 3.29273,6.84227 7.10391,9.62023 12.0563,3.45685zm-14.2061 -9.92523c-0.120756,-0.599528 -0.230457,-1.22315 -0.327685,-1.87058l-4.94164 0.168945c-0.0419528,0.507118 -0.103181,1.0063 -0.181984,1.49613l5.45131 0.205512zm-10.9298 9.95613c-5.3572,4.38548 -13.1465,3.22696 -17.3699,-8.89285 4.12583,14.01 10.2013,15.0803 17.3699,8.89285zm3.83783 -31.5525c-1.70646,-5.19931 -5.7858,-8.53654 -12.9291,-5.37477 6.17811,-0.231874 10.0729,2.00891 12.9291,5.37477zm-16.0895 -15.116c-1.73764,-3.72841 -6.14665,-4.94703 -12.4002,-5.40936 -3.65613,-0.270425 -6.7337,0.251433 -9.09922,1.39606 8.51726,-0.124724 16.3072,0.537733 21.4994,4.01329zm-25.365 10.7756c-7.59062,-1.27928 -12.9217,-0.213165 -16.1028,2.54891 3.90671,-1.50803 9.15364,-2.42617 16.1028,-2.54891zm-1.70164 36.2194c-4.32709,2.49761 -9.36596,1.3252 -12.617,-3.51666 2.38989,5.65144 6.0772,8.10312 12.617,3.51666zm-14.6186 -7.64873c-0.212599,-0.625607 -0.404221,-1.2841 -0.571748,-1.97518l-7.68756 -0.0348662c-0.146268,0.561544 -0.303307,1.10154 -0.469701,1.61972l8.72901 0.390331zm-17.5827 9.45015c-3.8795,0.661323 -8.07024,-1.6251 -11.1909,-6.22715 2.04463,5.83654 5.55024,8.41352 11.1909,6.22715zm6.33062 -30.1042c-1.98907,-5.52359 -7.00611,-8.61421 -12.9637,-6.33657 5.22964,0.0371339 9.67182,1.87228 12.9637,6.33657zm-23.2268 -13.0742c-1.65742,-3.73862 -4.56718,-5.57575 -7.85764,-5.85128 3.03421,1.67414 5.65342,3.62466 7.85764,5.85128z"/>
  <path fill="#BF9F4F" d="M66.1649 398.254c100.46,-53.2588 226.36,-46.7932 379.705,-21.1125 24.325,3.55918 4.33729,51.4313 2.07496,76.1244l9.84048 0.891497 -3.21166 19.2251 -29.3091 -2.16255c0.326268,-20.0591 8.15159,-54.4346 5.06948,-62.2225 -9.19673,5.37988 -16.0364,17.8308 -23.188,29.3465 -155.547,-34.2343 -275.533,-38.5841 -363.811,14.449 -4.71572,-22.7733 3.91181,-42.6748 22.8302,-54.5392z"/>
  <path fill="#644D36" d="M63.8487 404.425c58.5063,-36.54 228.022,-46.8958 359.83,-15.5906 4.52041,-4.78148 11.2762,-6.23651 19.6441,-4.98898 -10.9145,2.02677 -15.7995,5.76851 -18.085,10.2898 -155.802,-33.9874 -294.454,-21.2032 -361.389,10.2898z"/>
  <path fill="#8C0000" d="M457.785 454.157l-3.21166 19.2251 -29.3091 -2.16255c0.326268,-20.0591 8.15159,-54.4346 5.06948,-62.2225 -9.19673,5.37988 -16.0364,17.8308 -23.188,29.3465 -155.13,-31.7302 -275.119,-36.0995 -363.811,14.449 -4.71544,-22.2789 3.9121,-42.3369 22.8302,-54.5392 -16.0254,13.8538 -24.4369,32.2285 -21.3367,51.0718 66.718,-44.1717 206.428,-52.2831 362.636,-14.3433 6.75553,-16.3318 20.3712,-29.8154 24.6331,-28.9984 3.11811,2.18268 -0.935434,32.7402 -5.6126,61.7386l26.1921 2.8063 5.10803 -16.3715z"/>
  <path fill="none" d="M54.9397 401.684c98.8422,-57.0379 236.694,-52.3055 390.93,-24.5424 6.46129,0.945355 9.79597,5.01761 11.1668,10.9508 -4.53402,-3.86674 -7.15833,-7.68076 -11.833,-8.64908 -137.364,-29.0928 -299.213,-29.4214 -390.264,22.2406zm407.965 55.4267l0.493512 -2.95314 -15.4531 -0.891497 -0.256536 2.29606 15.2161 1.54857z"/>
  <polygon fill="#F00000" points="386.885,402.554 386.885,408.478 394.325,408.478 394.292,414.988 399.987,414.982 399.987,408.281 406.529,408.276 406.529,402.51 400.211,402.504 400.216,395.3 394.374,395.306 394.369,402.548 "/>
  <path fill="#BF9F4F" d="M263.72 301.972c3.88063,-13.4464 -1.41874,-16.3692 -11.9512,-17.1485 -11.7006,-0.865418 -17.4716,6.38249 -12.9648,16.185 -14.2883,-2.40832 -20.5693,3.49399 -19.5795,13.3773 1.34192,13.3985 8.26016,25.8287 24.9599,12.5617 -4.41043,15.1858 -18.6942,15.4046 -22.2724,0.656504l-7.68756 -0.0348662c-4.44671,17.0422 -18.4022,13.968 -23.4714,-0.801355 12.0421,13.2698 21.6023,-1.86888 21.3911,-12.695 -0.231024,-11.8536 -11.918,-18.5973 -23.275,-3.65216 4.63125,-27.7013 -19.3723,-24.2068 -25.5526,-7.64646 17.981,8.31487 17.2534,39.0801 22.1386,59.5559 43.1464,-3.00132 85.8385,-2.81934 128.154,0 2.42589,-30.551 8.16719,-54.6928 23.074,-61.115 -3.8126,-12.8608 -28.6983,-17.8455 -26.1763,3.59292 -11.357,-14.9451 -21.778,-2.57726 -22.3396,9.26476 -0.475654,10.0304 6.27166,23.9029 18.8966,12.3832 -3.50986,15.7045 -17.1536,17.8433 -20.0415,-1.38132l-4.94164 0.168945c-1.22372,14.6974 -18.2534,22.5652 -24.0829,-0.790583 16.6998,13.267 21.7474,3.33099 23.0891,-10.0672 0.989575,-9.883 -3.70262,-21.3701 -17.3673,-12.4138z"/>
  <path fill="#644D36" d="M184.803 359.386c0.206646,1.00176 0.423496,1.98454 0.652252,2.94406 43.1464,-3.00132 85.8385,-2.81934 128.154,0 0.0850394,-1.07405 0.175181,-2.13988 0.269858,-3.19805 -42.406,-1.77364 -85.4227,-1.71496 -129.077,0.253984z"/>
  <path fill="#8C0000" d="M185.455 362.33c-4.88523,-20.4758 -4.15758,-51.2411 -22.1386,-59.5559 1.93125,-5.17493 5.60325,-9.07427 9.59812,-11.1441 -3.9532,3.50674 -6.73654,6.75411 -6.94772,9.42917 17.043,8.32621 17.1193,36.1134 19.4882,61.2709zm8.19213 -56.9739c-1.57748,1.28976 -3.18104,2.96277 -4.77808,5.06438 0.447591,-2.67789 0.627874,-5.06495 0.58252,-7.17619 -0.240662,3.0651 -0.637512,5.81868 -1.19027,8.72816 1.58769,-2.20592 3.38315,-4.72309 5.38583,-6.61635zm0.0629292 27.4459c-1.15597,-1.70476 -2.1651,-3.72671 -2.9571,-6.0344 10.5367,11.611 19.1733,1.47175 21.0266,-8.49714 -4.5652,13.5428 -12.9243,15.7048 -21.8033,7.88939 0.551339,2.7 2.14299,4.5669 3.7338,6.64215zm20.5143 -5.23304c-0.937701,3.59462 -2.2989,6.29462 -3.9104,8.17824 2.4823,-1.25036 3.64734,-4.15077 3.9104,-8.17824zm6.99279 -22.3943c-1.71241,2.35843 -2.36381,5.50488 -1.99276,9.2109 1.34192,13.3985 8.26016,25.8287 24.9599,12.5617 -0.619937,2.13534 -1.43547,3.97531 -2.38876,5.51849 2.57329,-3.10819 4.45351,-6.85276 4.80756,-11.9979 -15.8233,20.4548 -28.5789,7.15267 -25.386,-15.2932zm16.8914 -14.4754c-1.26964,2.76633 -1.13528,6.32693 0.695339,10.309 -0.557859,-0.0938268 -1.1041,-0.175465 -1.63758,-0.244347 2.32583,1.59109 4.50114,3.48293 6.45591,5.815 -3.53566,-4.64599 -5.85808,-9.75204 -5.51367,-15.8797zm25.6113 11.2725c0.72737,-2.52114 1.13272,-4.67235 1.24073,-6.50892 -1.77562,4.14199 -3.6411,7.92397 -5.60211,11.3244l4.36139 -4.8155zm-3.37918 29.1878c-0.896032,-1.8669 -1.68973,-4.09096 -2.34255,-6.70678 16.6998,13.267 21.7477,3.33099 23.0891,-10.0672 0.41726,-4.16892 -0.176032,-8.62441 -2.02819,-11.7094 6.67418,26.1848 -10.4066,33.2034 -21.5028,17.0972 -0.829418,3.02428 0.65367,7.06281 2.78447,11.3862zm21.7301 -5.79657c-0.244914,2.74195 -1.04032,5.24296 -2.20904,7.34259 1.78498,-1.88022 2.6691,-4.36252 2.23455,-7.72385m10.3921 -22.9853c-2.5132,3.12095 -4.11052,7.63541 -4.32085,12.0762 -0.475654,10.0304 6.27166,23.9029 18.8966,12.3832 -0.767622,3.43531 -2.02054,6.22148 -3.53934,8.27689 3.25588,-3.13455 4.84753,-7.10278 5.19166,-11.4871 -14.0834,12.2051 -23.6804,2.00835 -16.2281,-21.2491zm19.4681 -7.13736c-1.34306,2.3298 -1.96158,5.59418 -1.44936,9.94876 -0.443622,-0.583654 -0.885544,-1.12592 -1.32605,-1.62822 0.931749,1.43376 1.49358,2.95994 1.68435,4.57966 -0.0521575,-5.13355 0.172913,-9.01673 1.09106,-12.9002zm1.65288 67.4708c2.42589,-30.551 8.16719,-54.6928 23.074,-61.115 -0.23726,-0.800504 -0.556158,-1.57096 -0.945071,-2.3057 -18.8379,11.2864 -21.8279,41.0023 -22.129,63.4207z"/>
  <path fill="white" d="M334.882 297.504c-4.82684,-6.96473 -16.0526,-10.0301 -21.4912,-4.53373 6.77481,-2.11947 13.8869,-1.09247 21.4912,4.53373zm-26.1122 5.21745c-5.56951,-6.05452 -10.7972,-5.75122 -14.5953,-2.47947 4.47619,-1.11912 9.28971,-0.551906 14.5953,2.47947zm-7.21276 34.1496c-3.9824,3.39421 -8.93963,2.59228 -12.0563,-3.45685 3.29273,6.84227 7.10391,9.62023 12.0563,3.45685zm-14.2061 -9.92523c-0.120756,-0.599528 -0.230457,-1.22315 -0.327685,-1.87058l-4.94164 0.168945c-0.0419528,0.507118 -0.103181,1.0063 -0.181984,1.49613l5.45131 0.205512zm-10.9298 9.95613c-5.3572,4.38548 -13.1465,3.22696 -17.3699,-8.89285 4.12583,14.01 10.2013,15.0803 17.3699,8.89285zm3.83783 -31.5525c-1.70646,-5.19931 -5.7858,-8.53654 -12.9291,-5.37477 6.17811,-0.231874 10.0729,2.00891 12.9291,5.37477zm-16.0895 -15.116c-1.73764,-3.72841 -6.14665,-4.94703 -12.4002,-5.40936 -3.65613,-0.270425 -6.7337,0.251433 -9.09922,1.39606 8.51726,-0.124724 16.3072,0.537733 21.4994,4.01329zm-25.365 10.7756c-7.59062,-1.27928 -12.9217,-0.213165 -16.1028,2.54891 3.90671,-1.50803 9.15364,-2.42617 16.1028,-2.54891zm-1.70164 36.2194c-4.32709,2.49761 -9.36596,1.3252 -12.617,-3.51666 2.38989,5.65144 6.0772,8.10312 12.617,3.51666zm-14.6186 -7.64873c-0.212599,-0.625607 -0.404221,-1.2841 -0.571748,-1.97518l-7.68756 -0.0348662c-0.146268,0.561544 -0.303307,1.10154 -0.469701,1.61972l8.72901 0.390331zm-17.5827 9.45015c-3.8795,0.661323 -8.07024,-1.6251 -11.1909,-6.22715 2.04463,5.83654 5.55024,8.41352 11.1909,6.22715zm6.33062 -30.1042c-1.98907,-5.52359 -7.00611,-8.61421 -12.9637,-6.33657 5.22964,0.0371339 9.67182,1.87228 12.9637,6.33657zm-23.2268 -13.0742c-1.65742,-3.73862 -4.56718,-5.57575 -7.85764,-5.85128 3.03421,1.67414 5.65342,3.62466 7.85764,5.85128z"/>
 </g>
</svg>
