<?xml version="1.0" encoding="UTF-8"?>
<!DOCTYPE svg PUBLIC "-//W3C//DTD SVG 1.1//EN" "http://www.w3.org/Graphics/SVG/1.1/DTD/svg11.dtd">
<!-- Creator: CorelDRAW -->
<svg xmlns="http://www.w3.org/2000/svg" xml:space="preserve" width="500px" height="579px" shape-rendering="geometricPrecision" text-rendering="geometricPrecision" image-rendering="optimizeQuality" fill-rule="evenodd" clip-rule="evenodd"
viewBox="0 0 500 579"
 xmlns:xlink="http://www.w3.org/1999/xlink"
 xmlns:svg="http://www.w3.org/2000/svg"
 version="1.0">
 <g id="Layer_x0020_1">
  <metadata id="CorelCorpID_0Corel-Layer"/>
  <path id="path1937" fill="#F00000" stroke="black" stroke-width="1.98425" d="M0.909355 1.24526l497.584 -0.000566929 -0.000850394 335.798c-17.4867,320.85 -474.329,320.219 -497.583,0.0428032l0 -335.84z"/>
  <path fill="black" d="M40.2044 176.032c-0.0365669,-8.50082 12.4518,-19.9718 29.287,-12.1663l-8.08583 -12.0725c-17.0204,-2.07043 -25.0211,16.0586 -21.2012,24.2388z"/>
  <path fill="black" d="M34.0056 161.929c1.64041,-7.96791 11.9923,-19.3425 26.7214,-10.7243l2.41994 -10.9868c-21.632,-5.68659 -33.7927,11.6847 -29.1413,21.7111z"/>
  <path fill="black" d="M31.5743 142.974c1.91112,-8.68678 14.235,-11.9186 26.8228,-3.95065l2.71106 -11.306c-18.059,-5.91364 -33.9183,5.63386 -29.5339,15.2566z"/>
  <path fill="black" d="M34.9486 125.051c1.03238,-7.13792 12.3423,-9.67834 23.55,-2.21925l4.12866 -8.95493c-18.061,-7.72158 -28.8009,-0.143717 -27.6786,11.1742z"/>
  <path fill="black" d="M64.918 338.149c0.618237,-5.5457 -2.64416,-14.4768 8.38545,-17.9751l-5.59673 -7.69465c-12.0713,7.67793 -7.02907,20.7984 -2.78873,25.6697z"/>
  <path fill="black" d="M50.5999 329.368c-0.723685,-6.28214 2.5458,-13.7591 14.197,-17.6718l-6.8641 -8.81122c-15.0319,8.66552 -12.4648,21.6865 -7.33295,26.483z"/>
  <path fill="black" d="M41.3995 321.379c-0.301606,-6.55767 4.24687,-17.0629 15.6816,-19.5375l-6.74192 -10.7935c-14.6727,5.30929 -15.571,24.8514 -8.93963,30.331z"/>
  <path fill="black" d="M33.6867 305.309c-0.514205,-6.63307 4.87531,-15.2972 16.1853,-15.368l-3.07786 -9.47481c-18.4737,4.27777 -19.6033,16.6439 -13.1074,24.8428z"/>
  <path fill="black" d="M110.248 518.537c5.26989,-3.80693 15.4891,-9.73134 23.3433,-3.42369l-0.311244 -8.71484c-14.11,-2.35984 -22.9289,5.68092 -23.0321,12.1385z"/>
  <path fill="black" d="M106.513 505.465c4.02492,-4.42942 14.8669,-7.55292 22.7208,-1.24498l0 -9.33733c-14.11,-2.35984 -21.3727,4.43594 -22.7208,10.5823z"/>
  <path fill="black" d="M105.891 493.326c4.52296,-4.35232 12.096,-6.11547 21.7871,-1.24498l1.55622 -8.09235c-14.4729,-2.36013 -20.5943,1.63417 -23.3433,9.33733z"/>
  <path fill="black" d="M108.38 482.744c3.11074,-4.14992 9.54227,-5.08394 24.2771,-0.933733l0.622489 -7.15862c-17.1184,-2.8012 -24.4845,0 -24.8995,8.09235z"/>
  <path fill="black" d="M296.372 529.43c1.99588,-3.21024 9.24038,-9.62136 28.012,-6.53613l-1.86747 -8.40359c-12.7091,-2.36041 -27.3382,7.75531 -26.1445,14.9397z"/>
  <path fill="black" d="M293.882 517.603c1.16674,-3.44155 10.6569,-8.63802 27.3895,-5.29115l-3.42369 -7.46986c-14.5769,-0.804189 -24.2257,3.08665 -23.9658,12.761z"/>
  <path fill="black" d="M293.26 502.663c11.9665,-8.27122 19.3093,-2.11578 26.1445,-0.311244l0.622489 -8.40359c-13.1805,-4.33559 -22.8277,-0.339307 -26.767,8.71484z"/>
  <path fill="black" d="M292.015 490.525c5.24693,-4.87644 16.9759,-4.77241 28.012,0.311244l0.622489 -9.64857c-14.7838,-3.73521 -26.4039,0.518457 -28.6345,9.33733z"/>
  <path fill="black" stroke="black" stroke-width="0.992126" d="M226.207 95.7413c-7.20851,-15.2453 -45.4933,-12.005 -64.5177,-11.1929 -2.83918,-3.01266 -10.3467,-20.0313 -6.33827,-21.1765 15.3281,-0.606898 31.0714,-2.87377 47.2303,-6.80003 9.49267,-11.3281 21.0081,-17.5983 35.4813,-16.4764 4.80274,-9.81043 9.08731,-18.7909 17.2108,-29.4307l8.39056 28.5874c5.71068,-9.21515 13.7041,-19.7793 22.7361,-27.3337 -1.51172,13.7568 -1.18658,30.2567 -1.57465,32.1497 -1.55084,7.56 -3.52658,11.9636 -3.7321,18.7994 2.13902,-0.666426 2.30712,-3.51156 3.61673,-6.66737 13.4226,14.8813 18.4416,43.4574 26.5731,51.4916 -7.34032,-0.820914 -8.14451,-3.50929 -13.6171,-8.06514 5.01959,10.8612 9.35122,20.3757 13.551,32.8578 -3.06397,-3.20287 -8.04785,-6.4063 -12.7681,-9.61456 11.0755,13.0584 4.72167,28.9182 17.0425,42.2881 -10.8865,-7.22353 -8.38942,-4.79849 -14.6072,-9.22082 8.54533,16.0642 5.57462,19.3677 10.385,30.1411 -4.99862,-4.48044 -6.15884,-4.65477 -10.3263,-5.81244 6.41566,8.9161 7.255,13.7857 9.52158,22.7024 -5.19477,-5.34529 -10.175,-8.88463 -13.0785,-11.988 5.6914,16.9376 10.1594,18.7177 13.0346,27.9567 -4.82854,-0.769323 -9.34611,-8.28199 -12.6179,-9.46574l12.8285 22.3892c-3.58299,-2.72977 -5.92129,-4.3183 -9.50372,-5.38101 28.5653,43.795 55.5265,44.3512 60.2161,80.6905 2.16936,-0.306709 1.9525,0.113102 2.46246,-1.85273 16.4429,-11.6997 9.48785,-34.937 -10.5905,-63.1191 6.76715,1.92217 12.7049,6.3343 17.8129,13.237 -13.0065,-16.9679 -15.1194,-25.8435 -25.6357,-37.209 3.708,-0.720851 10.8927,2.86526 18.7526,7.95685 -23.0964,-20.2575 -17.7378,-31.3569 -26.8115,-45.0615 6.57355,2.60759 10.6571,10.1951 15.986,15.2926 -14.5049,-19.6036 -10.3348,-43.2533 -20.1708,-56.943 8.7721,4.18649 11.3193,17.7106 18.8464,24.6986 -7.84687,-13.3997 -8.64426,-35.2976 -6.52167,-58.6763 0.877323,9.05953 4.86709,9.40423 10.1018,21.5765 -6.0035,-16.8129 -5.23729,-30.8761 0.898016,-47.4806 -0.102614,10.6362 2.90721,14.4252 4.36082,21.638l1.51739 0.0419528c-2.64047,-18.614 -1.18176,-35.1 5.93348,-43.5433 -1.51399,11.3513 -0.84841,19.8989 5.11399,21.2825 -4.50114,-12.7602 1.5154,-25.8965 17.0382,-39.4861l-0.640914 4.86369c-3.05575,1.53241 -5.70189,7.29865 -8.46284,17.1397 -2.52737,9.00851 -3.2641,15.4429 -4.5584,27.2174 2.60164,-5.76964 6.49985,-11.7987 13.2528,-18.398l0.368504 4.97566c-5.45046,2.63764 -8.53144,19.5551 -10.1582,36.3841 4.86709,-7.33805 9.73389,-12.6006 14.6016,-15.7879l-0.0379843 2.53361c-6.78615,6.13219 -10.1469,25.3919 -11.9509,50.6194l2.42306 0.929197c1.15994,-10.3173 5.09585,-18.6109 12.8968,-23.9465 -6.11547,11.8341 -5.69452,33.628 -9.31975,50.4423 4.89714,-5.44791 4.81522,-9.65169 7.22211,-13.5428 2.72778,-4.40986 5.45726,-5.39717 8.18561,-11.6751 1.03947,7.08407 -3.32192,8.42967 -4.33333,14.6923 -1.47827,9.15364 -0.936567,21.1034 -0.680599,32.2705 2.40293,-7.36385 7.50416,-14.3124 14.0593,-20.8451 -7.73348,16.7681 -2.13647,36.9068 -10.9233,54.178 5.7875,-4.76958 6.59509,-12.6516 16.429,-20.8446 -8.12863,14.4856 -3.49597,33.8128 -16.9152,49.4751 7.46079,-1.14151 11.1867,-11.6201 19.5812,-17.43 -6.08457,22.5641 -10.1687,31.4756 -18.9814,39.8438l2.52624 2.14356c5.10265,-5.15509 8.87386,-11.378 17.1539,-18.0269 -6.02221,16.9523 -13.5746,27.9788 -23.7447,33.3128 6.57837,-1.02643 12.2749,-1.2223 18.0247,-0.587055 -16.992,6.72548 -19.9208,14.0842 -30.6802,19.2152 -6.45477,3.07843 -14.9471,3.91295 -18.8861,4.72706 2.3451,8.83871 5.06155,18.4161 7.15181,25.5376 -4.47222,-1.89581 -7.12914,-2.10416 -8.26498,-4.78829 2.75329,6.88876 2.39414,10.0429 3.90246,15.9982 -3.64876,-3.19947 -5.24807,-3.54529 -8.06542,-5.08196 3.67795,7.48659 0.197291,10.6158 6.05424,19.6586 -5.87311,-3.28309 -9.15223,-7.65496 -10.7711,-7.82476 3.02117,6.11377 1.06243,10.6716 6.57383,20.2093 -3.456,-2.61468 -7.54696,-4.6457 -10.1718,-4.76986l2.71502 9.73134c10.8938,25.7678 31.7523,-17.1896 44.3157,11.4568 -4.22703,26.8135 -13.1224,57.6732 -15.4817,88.8441 0.612284,9.61626 -8.94246,26.4166 -19.0157,28.7708 -14.1401,-1.85584 -31.9108,-0.702426 -42.7298,1.59279 -4.44133,-16.4812 -5.34274,-26.6757 -3.43786,-43.242 12.4753,-4.12214 26.1958,6.07295 39.6051,4.752 5.84674,-9.64007 8.11446,-23.0411 8.98186,-53.4305 -2.37232,-5.52444 -9.0516,-6.17074 -22.2151,-0.0722835 7.13963,6.79181 8.05437,12.7539 5.23474,17.8863 -7.23402,-15.8023 -16.9577,-10.44 -24.5027,-19.3947 -0.713481,3.00784 3.79899,5.38044 6.02873,9.37418 2.23002,3.99373 2.17758,9.60917 1.04882,15.3678 -1.96101,-2.43099 -2.32611,-7.8293 -5.44876,-11.0571 -4.01471,-4.14936 -10.3405,-4.47251 -14.5347,-11.2161 0.424063,7.9869 8.00674,10.6827 1.27247,23.961 -2.18098,-15.0222 -12.1431,-15.4157 -13.0791,-25.4577 -0.351213,9.27582 -3.65953,16.5807 -8.99037,22.5374 3.83159,-17.4821 -4.1641,-24.3819 2.15773,-34.7052l-0.772725 -1.03096c-5.10747,8.86904 -10.6302,14.8334 -16.5671,17.8934 -0.276095,-4.48668 8.73326,-13.0462 12.0872,-32.686 -2.89984,3.18416 -8.71541,6.36945 -14.9474,9.55474 10.9775,-20.2691 11.6838,-19.0624 20.7938,-29.0602 -6.22602,4.55528 -16.8092,6.82838 -22.4121,5.88558 7.80662,-5.42608 12.5011,-8.77692 15.3286,-17.5224 -11.2326,15.3785 -6.5914,2.43383 -23.7373,18.1239 -0.43115,-4.27918 2.56139,-8.55837 5.24296,-13.771 -6.39043,3.53877 -12.7809,9.4116 -19.1707,17.9308l-5.83172 -9.8212c-4.25084,5.44479 -8.08668,7.56936 -11.5075,6.37484 -0.954426,-2.47408 2.13732,-4.94816 2.11691,-7.42196 -37.4018,10.3949 -28.5333,30.2304 -16.3446,38.0515 1.70022,1.52504 0.599528,8.65248 0.743811,12.045 -0.54,6.09166 -17.5751,37.7445 -29.319,69.67 -3.77121,9.55389 -10.5508,15.5806 -18.4714,14.3456 -14.6254,-3.51865 -22.3688,-2.90041 -33.6643,-0.621638 -2.24929,0.801922 -4.18677,-0.574583 -6.43493,-4.12895 -5.55109,-22.2517 -10.8323,-23.4159 1.25518,-39.2908 20.6119,-1.75011 26.284,15.1744 39.426,5.64322 8.03651,-11.3465 12.8962,-31.7713 15.1237,-59.7169 -5.43799,4.40362 -6.20759,15.5514 -12.5787,15.7022 5.09131,-10.2592 5.41077,-20.5186 1.89184,-28.9097 -2.6864,6.47433 -3.50532,14.1939 -9.61541,19.4236 -1.24356,-2.75386 1.70362,-6.60785 2.77512,-13.5445 0.623622,-4.03739 -2.00551,-13.0124 -1.60781,-20.2193 -3.99062,10.078 -10.3672,16.9404 -16.0172,18.7194 9.56212,-12.551 6.9857,-22.3007 10.6345,-32.9842 -5.58227,8.15726 -9.81525,14.0321 -23.904,14.8238 3.49909,-4.55131 8.55468,-6.92476 12.0541,-11.4758 3.0875,-4.01584 3.99714,-8.96542 7.08463,-12.9813 -9.13578,3.86079 -17.9342,3.67455 -26.2398,-2.42447l5.57972 -3.40696c17.1405,2.82047 20.8979,-8.36504 31.5026,-11.4582 -2.87263,-4.49093 -22.2415,5.20583 -23.6551,-17.8177 16.4631,14.6747 21.7213,2.89361 33.8273,3.25134 -17.6304,-7.68813 -18.1378,-18.1247 -13.3501,-26.6414 1.68435,2.20649 1.8411,8.24344 6.02873,11.8083 7.6955,6.55087 18.2137,1.10948 30.5388,3.26183 -13.5048,-6.49843 -16.1649,-15.8502 -13.8952,-26.4988 4.92633,24.3459 25.4832,14.6492 54.6948,18.0057 23.4442,2.69377 41.0905,20.5444 54.3872,14.0528 10.0267,0.788032 16.3185,-1.3286 18.8753,-6.34989 0.30926,-11.8925 -5.60637,-22.54 -17.7463,-31.9425 4.68992,3.40583 3.67257,9.09468 0.0615118,15.8216 -2.29975,-14.8544 -7.06366,-22.3163 -13.5128,-24.7198 4.14085,8.19496 4.96177,15.2487 2.46274,19.2937 -3.3738,-10.7464 -5.91733,-16.0974 -16.0339,-21.6556 5.83824,9.20268 6.69685,16.7454 2.57613,22.6287 -3.46961,-17.1731 -10.9854,-17.8503 -16.0112,-28.1761 1.8017,11.5563 2.30627,20.7777 -0.0413858,24.8635 -2.63651,-14.652 -7.73689,-24.5574 -14.5227,-31.7387l3.89877 -13.4325 -1.83118 -0.613418c-2.30514,10.0494 -6.26996,18.8541 -11.8945,26.4144 -0.616252,-5.09613 0.946205,-10.8147 0.0187087,-16.2221 -5.44876,8.14167 -11.4678,14.5715 -17.7457,20.2232 0.526394,-4.33588 5.09896,-7.11525 4.06914,-13.0071 -4.0252,10.3643 -12.6264,6.588 -20.4806,21.5496 -0.978237,-7.02936 3.95717,-12.1913 4.53544,-18.2869 -5.08933,9.16555 -12.2406,10.2186 -15.7629,12.9597 -3.0617,2.38224 -2.75443,3.61418 -7.70485,8.91978 -1.0525,-7.9132 2.56365,-11.1577 3.06737,-16.5807 -15.5191,16.435 -18.4759,10.3564 -24.1574,20.2873 -3.38599,-1.81956 -2.7258,-3.84662 3.8486,-12.3055 -11.6345,3.29273 -19.2217,5.02923 -20.8936,13.3038l-4.2429 0.523843c-1.24186,-7.15408 4.6749,-6.52706 4.67802,-12.4359 -8.51273,5.73194 -15.1313,3.21761 -19.3827,12.3798l-3.62155 1.34589c-0.183685,-3.51269 1.50038,-6.09137 6.29717,-12.0932 -6.32637,3.57676 -18.9765,8.11248 -21.619,15.6586 -0.65452,-5.41361 4.29336,-8.33726 4.57285,-13.7506 -8.20347,6.19626 -19.8893,9.93544 -22.0742,15.1537 -1.36403,3.25814 -7.85651,7.58948 -15.5254,13.2018 -11.4046,-4.81607 -30.3231,-28.5741 -25.6657,-40.2378 4.28202,-7.01915 22.8501,-6.94007 37.0636,-10.7016 10.5282,-2.78646 14.2515,-6.13956 22.3149,-8.23692 5.45981,-1.41987 10.7668,-0.308977 16.4217,-1.67046 3.33921,-0.804189 6.37909,-3.52743 9.73248,-4.35288 10.893,-2.68129 17.119,-1.91225 24.8159,-3.99657 2.84797,-0.771307 5.61232,-2.22662 8.28029,-3.10649 3.60199,-1.18828 8.1207,-0.948189 11.1549,-1.93096 4.55131,-1.47458 4.64145,-4.31575 8.61478,-5.46265 3.47159,-1.00233 9.82545,-5.00173 13.4513,-8.50536 -12.8665,-0.658205 -7.10646,-1.27786 -26.1034,-1.94202 -0.224221,-1.95562 -3.97191,-1.63021 4.9697,-5.25175 -2.55232,-4.49802 -23.0431,-1.2274 -26.5595,-1.79008 6.21808,-4.38917 5.01789,-5.14687 15.387,-7.87493 -8.32394,-3.4903 -21.0053,0.178016 -33.9976,-5.80196 9.10517,-3.49172 13.5417,0.486425 18.601,-4.25027 -11.7774,1.30025 -18.8858,-5.49185 -28.4842,-4.19159 4.11166,-6.38844 6.0446,-1.88334 11.4015,-5.15906 -13.352,1.43036 -7.53478,-5.23588 -26.0955,-5.67298 6.09307,-5.98054 11.5637,-0.133795 16.412,-4.24658 -13.7075,0.0960945 -17.7664,-10.7014 -33.3414,-6.87033 4.88353,-4.44955 7.27711,-3.91918 13.7169,-6.81251 -13.1145,-3.90218 -9.31749,-9.43909 -36.5409,-9.29452 -9.79229,-6.54463 -15.2538,-46.8845 -4.84895,-52.0716 23.6659,1.79093 24.3578,11.8032 41.4434,21.6561 20.2915,11.7017 42.2436,24.5597 62.644,40.2676 11.5396,8.8852 17.2349,8.74574 25.9844,11.7023 9.91616,3.35112 15.6234,7.57389 27.0933,6.87289 2.33858,-3.98778 12.7695,-1.75039 16.3534,-8.22785 -6.88281,5.02016 -13.7659,5.06183 -20.6487,0.123024 5.17692,-1.92784 9.16895,-0.730489 12.7519,-2.24334 4.60715,-1.94513 2.83011,-3.21534 9.89745,-8.35342 -9.2676,6.10243 -15.63,5.25402 -21.5771,0.567213 2.38252,-0.259087 8.27915,-0.676063 12.9132,-3.52148 4.08869,-2.51093 6.29689,-6.3241 8.78741,-9.61711 -8.26101,5.7189 -13.824,5.93972 -17.9342,2.52964 9.17178,-3.17764 13.3639,-5.94 15.0667,-10.7768 -6.79833,5.76454 -10.6384,4.00592 -14.9451,0.638929 4.10854,-3.98892 11.6408,0.737008 10.7697,-9.16555 -4.536,-14.94 -24.6339,-3.7355 -43.7981,-10.2716l-2.16595 -8.98158c28.7683,-2.14725 47.4886,-2.79638 40.4184,-28.4168z"/>
  <path fill="#CCCCCC" stroke="#CCCCCC" stroke-width="0.992126" d="M224.367 91.3839c-7.20851,-14.6228 -34.2885,-12.005 -65.4514,-7.7692 -2.83918,-3.01266 -9.72426,-19.0976 -5.71578,-20.2428 15.3281,-0.606898 31.0714,-2.87377 47.2303,-6.80003 9.49267,-11.3281 21.0081,-17.5983 35.4813,-16.4764 4.80274,-9.81043 11.266,-20.0359 19.3896,-30.6757l7.45682 27.9649c5.71068,-9.21515 12.4591,-17.9119 21.4912,-25.4662 -1.51172,13.7568 -1.1863,30.2567 -1.57465,32.1497 -1.55084,7.56029 -3.52658,15.3873 -3.7321,22.2231 2.13902,-0.666426 3.86334,-2.57783 5.17295,-5.73364 11.2439,15.5038 15.3292,34.7426 23.4607,42.7768 -7.34032,-0.820914 -10.9457,-9.11169 -16.4183,-13.6675 5.29569,9.75657 10.2283,20.6042 13.8623,35.3478 -3.06397,-3.20287 -6.80287,-6.09506 -11.5231,-9.30331 11.0755,13.0584 7.83411,34.5206 20.1549,47.8905 -10.8865,-7.22353 -12.4356,-14.4471 -18.6534,-18.8694 8.54533,16.0642 6.81959,24.3476 11.63,35.121 -4.99862,-4.48044 -9.58252,-9.01219 -13.75,-10.1699 6.41566,8.9161 10.3674,17.8319 12.634,26.7486 -5.19477,-5.34529 -8.3075,-14.7983 -13.3897,-14.7892 5.6914,16.9376 4.24573,16.2278 11.1671,28.8904 -3.27232,-4.50425 -7.16741,-6.41452 -10.4392,-7.59827l10.0273 20.833c-3.58299,-2.72977 -7.16627,-5.25203 -10.7487,-6.31474 24.6368,50.9664 58.2999,48.3988 65.5073,91.2728 2.16936,-0.306709 3.50873,-1.44312 4.01868,-3.40895 16.4429,-11.6997 9.48785,-34.937 -10.5905,-63.1191 6.76715,1.92217 12.7049,6.3343 17.8129,13.237 -13.0065,-16.9679 -15.1194,-25.8435 -25.6357,-37.209 3.708,-0.720851 10.8927,2.86526 18.7526,7.95685 -23.0964,-20.2575 -17.7378,-31.3569 -26.8115,-45.0615 6.57355,2.60759 10.6571,10.1951 15.986,15.2926 -14.5049,-19.6036 -10.3348,-43.2533 -20.1708,-56.943 8.7721,4.18649 11.3193,17.7106 18.8464,24.6986 -7.84687,-13.3997 -8.64426,-35.2976 -6.52167,-58.6763 0.877323,9.05953 4.86709,9.40423 10.1018,21.5765 -6.0035,-16.8129 -5.23729,-30.8761 0.898016,-47.4806 -0.102614,10.6362 2.90721,14.4252 4.36082,21.638l1.51739 0.0419528c-2.64047,-18.614 -1.18176,-35.1 5.93348,-43.5433 -1.51399,11.3513 -0.84841,19.8989 5.11399,21.2825 -4.50114,-12.7602 1.5154,-25.8965 17.0382,-39.4861l-0.640914 4.86369c-3.05575,1.53241 -5.70189,7.29865 -8.46284,17.1397 -2.52737,9.00851 -3.2641,15.4429 -4.5584,27.2174 2.60164,-5.76964 6.49985,-11.7987 13.2528,-18.398l0.368504 4.97566c-5.45046,2.63764 -8.53144,19.5551 -10.1582,36.3841 4.86709,-7.33805 9.73389,-12.6006 14.6016,-15.7879l-0.0379843 2.53361c-6.78615,6.13219 -10.1469,25.3919 -11.9509,50.6194l2.42306 0.929197c1.15994,-10.3173 5.09585,-18.6109 12.8968,-23.9465 -6.11547,11.8341 -5.69452,33.628 -9.31975,50.4423 4.89714,-5.44791 4.81522,-9.65169 7.22211,-13.5428 2.72778,-4.40986 5.45726,-5.39717 8.18561,-11.6751 1.03947,7.08407 -3.32192,8.42967 -4.33333,14.6923 -1.47827,9.15364 -0.936567,21.1034 -0.680599,32.2705 2.40293,-7.36385 7.50416,-14.3124 14.0593,-20.8451 -8.30977,16.1918 -3.23603,35.8073 -10.9233,54.178 5.7875,-4.76958 6.59509,-12.6516 16.429,-20.8446 -8.12835,13.3793 -3.49569,30.4934 -16.9152,49.4751 7.46079,-1.14151 11.1867,-11.6201 19.5812,-17.43 -6.32722,22.0796 -10.7872,30.2372 -18.9814,39.8438l2.52624 2.14356c5.10265,-5.15509 8.87386,-11.378 17.1539,-18.0269 -6.463,16.0707 -14.8969,26.2673 -24.6784,32.379 6.57837,-1.02643 13.2086,-1.53354 18.9584,-0.8983 -16.992,6.72548 -21.4767,14.3949 -32.2365,19.5265 -6.45534,3.07871 -14.0134,2.66797 -17.9524,3.48208 1.72035,8.52634 2.46416,17.5844 6.84057,25.2264 -3.64195,-4.38548 -7.2326,-8.64 -9.19871,-8.83446 2.75329,6.88876 3.01663,11.9103 4.52495,17.8656 -3.64876,-3.19947 -7.11553,-6.03525 -9.93289,-7.57191 3.67795,7.48659 2.99849,14.3507 5.43175,20.5923 -4.93937,-5.15055 -8.21849,-7.34372 -9.83736,-7.51352 3.9549,6.73626 2.92989,13.4728 5.32885,20.2093 -3.456,-2.61468 -5.99074,-4.33446 -8.61563,-4.45862l3.96 15.3337c10.8938,25.7678 32.9973,-17.1896 45.5607,11.4568 -4.22703,26.8135 -14.0562,57.6732 -16.4154,88.8441 0.612284,9.61626 -10.8099,24.5492 -20.8831,26.9034 -14.1401,-1.85584 -27.5533,-1.63616 -38.3723,0.659055l-1.49924 -7.27796c0.281197,-1.13102 3.75279,-2.26233 9.01531,-3.39307 -0.729638,-1.80397 -4.05269,-1.01452 -10.5917,0.502016 -0.65537,-3.11244 -2.14101,-5.39518 -4.45578,-6.84709 7.89563,-2.70822 15.7655,-3.47103 22.8325,-1.19792 -4.15503,-3.87043 -10.3847,-4.83619 -18.6888,-2.89616l-0.659339 -6.20164c4.68936,-3.96114 11.6623,-2.78504 19.6736,0.725953 -1.56813,-6.18974 -8.11588,-8.22926 -19.643,-6.11859l0.889796 -7.73632c12.4753,-4.12214 24.0171,6.69544 37.4264,5.37449 5.84674,-9.64007 9.67068,-27.7098 10.5381,-58.0992 -2.37232,-5.52444 -11.5415,-2.12457 -24.7051,3.97389 7.13963,6.79181 9.29934,12.7539 6.47972,17.8863 -7.23402,-15.8023 -16.9577,-10.44 -24.5027,-19.3947 -0.713481,3.00784 3.79899,5.38044 6.02873,9.37418 2.23002,3.99373 2.17758,9.60917 1.04882,15.3678 -1.96101,-2.43099 -2.32611,-7.8293 -5.44876,-11.0571 -4.01471,-4.14936 -10.3405,-4.47251 -14.5347,-11.2161 0.424063,7.9869 8.00674,10.6827 1.27247,23.961 -2.18098,-15.0222 -12.1431,-15.4157 -13.0791,-25.4577 -0.351213,9.27582 -3.65953,16.5807 -8.99037,22.5374 3.83159,-17.4821 -4.1641,-24.3819 2.15773,-34.7052l-0.772725 -1.03096c-5.10747,8.86904 -10.6302,14.8334 -16.5671,17.8934 -0.276095,-4.48668 8.73326,-13.0462 12.0872,-32.686 -2.89984,3.18416 -8.71541,6.36945 -14.9474,9.55474 10.9775,-20.2691 16.3525,-23.7311 25.4625,-33.7289 -6.22602,4.55528 -12.4518,7.45087 -18.6772,8.68678 7.80662,-5.42608 13.1236,-12.5118 15.9511,-21.2573 -11.2326,15.3785 -15.6175,8.03622 -32.7634,23.7263 -0.43115,-4.27918 2.56139,-8.55837 5.24296,-13.771 -6.39043,3.53877 -12.7809,9.4116 -19.1707,17.9308l-5.83172 -9.8212c-4.25084,5.44479 -8.08668,7.56936 -11.5075,6.37484 -0.954426,-2.47408 2.75981,-6.19314 2.7394,-8.66693 -37.9222,9.35377 -29.7791,32.7181 -17.2783,41.1639 1.70022,1.52504 0.288284,6.78501 0.432567,10.1775 -0.54,6.09166 -17.8863,38.0557 -29.6303,69.9812 -3.77121,9.55389 -9.61711,13.7132 -17.5377,12.4781 -14.6254,-3.51865 -21.435,-2.90041 -32.7305,-0.621638 -2.24929,0.801922 -4.49802,1.29288 -6.74618,-2.26148 0.0918426,-2.63849 0.391465,-5.27755 2.1498,-7.91519 5.26989,-1.00261 10.021,-0.966898 13.6315,1.35184l-0.105732 -2.70227c-5.77446,-1.31358 -11.4792,-2.28104 -18.0655,-1.95024 0.262772,-3.24709 1.18828,-7.15862 -1.20473,-7.74936 5.01818,-1.73565 10.8669,-1.39578 17.5459,1.01934l0.222236 -2.82104c-8.2063,-1.93323 -14.0774,-2.6212 -17.6131,-1.75266 1.12819,-1.89865 1.42639,-4.212 0.894615,-6.94007 6.46583,-1.8 12.9331,-1.31698 19.4006,0.205228 -6.63619,-3.40498 -11.6121,-4.73471 -14.9267,-3.98863l0.571181 -6.67021c17.1882,-1.43887 24.4165,15.4857 37.5585,5.95446 8.03651,-11.3465 12.8962,-31.7713 15.1237,-59.7169 -5.43799,4.40362 -6.20759,15.5514 -12.5787,15.7022 5.09131,-10.2592 5.41077,-20.5186 1.89184,-28.9097 -2.6864,6.47433 -3.50532,14.1939 -9.61541,19.4236 -1.24356,-2.75386 1.70362,-6.60785 2.77512,-13.5445 0.623622,-4.03739 -2.00551,-13.0124 -1.60781,-20.2193 -3.99062,10.078 -10.3672,16.9404 -16.0172,18.7194 9.56212,-12.551 6.9857,-22.3007 10.6345,-32.9842 -5.58227,8.15726 -9.81525,14.0321 -23.904,14.8238 3.49909,-4.55131 8.55468,-6.92476 12.0541,-11.4758 3.0875,-4.01584 4.61962,-10.2104 7.70712,-14.2262 -9.13578,3.86079 -17.9342,3.67455 -26.2398,-2.42447l4.95723 -2.16199c17.1405,2.82047 21.2091,-8.98753 31.8138,-12.0807l-0.347528 -2.81197c-12.7491,1.22287 -22.1783,-0.770741 -23.6188,-14.3833 16.4631,14.6747 24.2113,0.714898 36.3172,1.07263 -17.6304,-7.68813 -20.6277,-15.946 -15.84,-24.4627 1.68435,2.20649 1.8411,8.24344 6.02873,11.8083 7.6955,6.55087 18.2137,1.10948 30.5388,3.26183 -13.5048,-6.49843 -16.1649,-15.8502 -13.8952,-26.4988 4.92633,24.3459 25.4832,14.6492 54.6948,18.0057 23.4442,2.69377 41.0905,20.5444 54.3872,14.0528 10.0267,0.788032 16.3185,-1.3286 18.8753,-6.34989 0.30926,-11.8925 -5.60637,-22.54 -17.7463,-31.9425 4.68992,3.40583 3.67257,9.09468 0.0615118,15.8216 -2.29975,-14.8544 -7.06366,-22.3163 -13.5128,-24.7198 4.14085,8.19496 4.96177,15.2487 2.46274,19.2937 -3.3738,-10.7464 -5.91733,-16.0974 -16.0339,-21.6556 5.83824,9.20268 6.69685,16.7454 2.57613,22.6287 -3.46961,-17.1731 -10.9854,-17.8503 -16.0112,-28.1761 1.8017,11.5563 2.30627,20.7777 -0.0413858,24.8635 -2.63651,-14.652 -7.73689,-24.5574 -14.5227,-31.7387l3.89877 -13.4325 -1.83118 -0.613418c-2.30514,10.0494 -6.26996,18.8541 -11.8945,26.4144 -0.616252,-5.09613 0.946205,-10.8147 0.0187087,-16.2221 -5.44876,8.14167 -11.4678,14.5715 -17.7457,20.2232 0.526394,-4.33588 5.41021,-8.98271 4.38038,-14.8745 -4.0252,10.3643 -12.9376,8.45547 -20.7919,23.417 -0.978237,-7.02936 3.95717,-12.1913 4.53544,-18.2869 -6.02306,6.36435 -12.8631,9.28489 -16.3854,12.026 -3.0617,2.38224 -2.13194,4.54791 -7.08237,9.85352 -1.0525,-7.9132 1.94117,-11.7802 2.44488,-17.2032 -15.5191,16.435 -17.8535,9.73389 -23.5349,20.9098 -3.38599,-1.81956 -1.79206,-6.95906 4.78233,-15.4179 -11.6345,3.29273 -20.1555,8.14167 -21.8273,16.4163l-4.2429 0.523843c-1.24186,-7.15408 5.60863,-9.01701 5.61175,-14.9258 -8.51273,5.73194 -16.0651,5.70756 -20.3165,14.8697l-3.62155 1.34589c-0.183685,-3.51269 2.12287,-8.27008 6.91966,-14.2719 -2.98063,1.3646 -6.94744,4.46712 -11.4324,7.43981 -4.4847,2.97269 -9.4887,5.81641 -10.8091,10.3975 -0.65452,-5.41361 4.29336,-9.89349 4.57285,-15.3068 -8.20347,6.19626 -18.955,10.2461 -21.1405,15.465 -1.3646,3.25871 -8.479,6.03326 -16.1479,11.6456 -2.31307,-0.541985 -3.89707,-2.54183 -5.37591,-4.74973 2.7241,-0.506835 7.10844,-5.5783 13.1533,-15.2141 -7.49736,2.68781 -10.9485,12.223 -17.8234,12.7321 -2.39414,-2.19855 -3.95858,-4.81181 -4.69219,-7.83978 5.81159,-0.726237 9.54794,-4.7727 11.2102,-12.1382 -5.78268,3.43673 -8.14167,8.42996 -13.6128,10.3107 -3.09997,-3.02769 -4.95468,-6.4698 -5.56385,-10.3266 2.87093,-0.189354 4.91216,-2.03868 6.12397,-5.54797 -2.69632,-1.02926 -5.39292,0.858048 -8.08867,3.1629 -0.850961,-2.19402 -1.28721,-4.80274 -1.30762,-7.82589 4.28202,-7.01915 22.8501,-6.94007 37.0636,-10.7016 10.5282,-2.78646 14.2515,-6.13956 22.3149,-8.23692 5.45981,-1.41987 10.7668,-0.308977 16.4217,-1.67046 3.33921,-0.804189 6.37909,-3.52743 9.73248,-4.35288 10.893,-2.68129 17.119,-1.91225 24.8159,-3.99657 2.84797,-0.771307 5.61232,-2.22662 8.28029,-3.10649 3.60199,-1.18828 8.1207,-0.948189 11.1549,-1.93096 4.55131,-1.47458 4.64145,-4.31575 8.61478,-5.46265 3.47159,-1.00233 9.82545,-5.00173 13.4513,-8.50536 8.70038,0.836221 17.8163,-5.79742 27.3475,-19.9009 -19.9395,23.9009 -33.9268,9.82659 -35.0583,14.3405 -0.927213,3.69865 -10.3853,-1.1486 -18.3926,3.61843 -0.224221,-1.95562 0.696756,-4.12016 9.63837,-7.7417l-0.39515 -2.18495c-8.20233,-0.930898 -18.4791,0.498047 -30.833,2.88482 6.21808,-4.38917 13.7327,-7.01433 24.1019,-9.7424 -8.32394,-3.4903 -25.674,-0.133228 -42.7125,-3.93449 9.10517,-3.49172 19.4553,-1.0698 24.5146,-5.80649 -11.7774,1.30025 -22.3095,-6.42558 -34.3979,-2.63537 4.11166,-6.38844 14.4482,-3.75081 19.8051,-7.02652 -13.4711,1.42895 -17.9158,-7.72441 -33.8766,-5.05049 6.09307,-5.98054 19.0335,-0.756284 23.8819,-4.86907 -13.7075,0.0960945 -24.6138,-11.0126 -40.1888,-7.18158 4.88353,-4.44955 11.9458,-2.98545 18.3855,-5.87877 -13.1145,-3.90218 -13.9861,-10.6841 -41.2095,-10.5395 -4.60744,-0.495496 -6.72463,-3.89566 -6.35131,-10.2005 4.78914,0.771591 9.00823,0.401953 12.9682,-0.486425 -1.72176,-2.50186 -7.43868,-2.72013 -14.9709,-1.90063 -0.0496063,-4.22306 2.39074,-6.57837 3.5864,-9.86741 3.63685,0.759402 6.65122,0.273827 9.97711,0.41074 -3.09288,-2.45225 -8.67572,-2.7258 -14.2586,-1.75436 -0.59641,-5.10066 1.29713,-7.71137 1.9457,-11.5671l4.87446 -0.512504c0.782363,-1.96356 -2.80857,-2.57499 -7.02454,-3.7046 -0.191906,-3.33298 3.03988,-6.04347 3.1595,-9.99893 23.6659,1.79093 24.3578,11.8032 41.4434,21.6561 20.2915,11.7017 42.2436,24.5597 62.644,40.2676 11.5396,8.8852 17.2349,8.74574 25.9844,11.7023 9.91616,3.35112 15.6234,7.57389 27.0933,6.87289 2.33858,-3.98778 12.7695,-1.75039 16.3534,-8.22785 -6.88281,5.02016 -13.7659,5.06183 -20.6487,0.123024 5.17692,-1.92784 9.16867,-0.730489 12.7519,-2.24334 4.60715,-1.94542 4.07509,-4.77156 11.1424,-9.90964 -9.2676,6.10243 -16.8749,6.81024 -22.822,2.12343 2.38252,-0.259087 8.27915,-0.676063 12.9132,-3.52148 4.08869,-2.51093 6.91937,-7.25783 9.40989,-10.5508 -8.26101,5.7189 -14.4465,6.87345 -18.5567,3.46337 9.17178,-3.17764 14.6089,-7.18498 16.3117,-12.0217 -6.79833,5.76454 -11.8834,5.2509 -16.1901,1.88391 4.10854,-3.98892 13.197,-2.06419 12.3259,-11.9667 -4.536,-14.94 -30.2363,-4.98047 -45.3544,-7.47043l-2.16595 -8.98158c28.7683,-2.14725 47.7998,-7.1538 40.7296,-32.7742z"/>
  <path fill="black" d="M167.828 82.7949c0.778678,2.95597 2.3349,9.38892 5.6024,16.4959 -0.103748,-5.08366 0.622489,-10.5823 2.17871,-16.4959l-7.78111 0z"/>
  <path fill="#BF9F4F" d="M39.2706 173.542c-0.399685,-5.23191 6.69345,-18.2594 23.9959,-14.6565l-2.79468 -9.58224c-17.0204,-2.07043 -25.0211,16.0586 -21.2012,24.2388z"/>
  <path fill="#BF9F4F" d="M33.0718 159.439c1.64041,-7.96791 11.6807,-19.6537 26.4098,-11.0356l2.73147 -10.6756c-21.632,-5.68659 -33.7927,11.6847 -29.1413,21.7111z"/>
  <path fill="#BF9F4F" d="M30.6406 140.485c1.91112,-8.68678 14.235,-13.1635 26.8231,-5.19562l2.71077 -10.061c-18.059,-5.91364 -33.9183,5.63386 -29.5339,15.2566z"/>
  <path fill="#BF9F4F" d="M34.0149 122.561c1.03238,-7.13792 12.0314,-10.9233 23.2387,-3.46422l4.43991 -7.70996c-18.061,-7.72158 -28.8009,-0.143717 -27.6786,11.1742z"/>
  <path fill="#BF9F4F" d="M62.428 337.837c0.618237,-5.5457 -1.71071,-15.4106 9.31919,-18.9088l-6.53046 -6.76092c-12.0713,7.67793 -7.02907,20.7984 -2.78873,25.6697z"/>
  <path fill="#BF9F4F" d="M48.1099 329.057c-0.723685,-6.28214 1.61178,-14.0703 13.2636,-17.983l-5.93065 -8.49997c-15.0319,8.66552 -12.4648,21.6865 -7.33295,26.483z"/>
  <path fill="#BF9F4F" d="M38.9095 321.068c-0.301606,-6.55767 3.31314,-17.3741 14.7481,-19.8488l-5.80848 -10.4822c-14.6727,5.30929 -15.571,24.8514 -8.93963,30.331z"/>
  <path fill="#BF9F4F" d="M31.1967 304.997c-0.514205,-6.63307 3.63062,-15.9197 14.9403,-15.9905l-1.83288 -8.85232c-18.4737,4.27777 -19.6033,16.6439 -13.1074,24.8428z"/>
  <path fill="black" d="M178.099 82.7949c0.778394,-2.17417 0.46715,2.56451 3.73493,10.5823 1.97121,-3.00869 2.07496,-6.63988 3.11244,-9.95982l-6.84737 -0.622489z"/>
  <path fill="black" d="M188.059 82.7949c0.778394,-2.17389 0.46715,0.385795 3.73493,8.40359 1.97121,-3.00869 0.51874,-5.08366 1.55622,-8.40359l-5.29115 0z"/>
  <path fill="black" d="M196.151 82.7949c0.778394,-2.17417 0.46715,0.0742678 3.73493,8.09235 1.97121,-3.00869 0.51874,-4.77241 1.55622,-8.09235l-5.29115 0z"/>
  <path fill="black" d="M205.489 83.1062c0.778394,-2.17417 1.08964,2.87547 3.42369,6.84737 2.38621,-3.00898 2.48967,-2.59399 3.11244,-5.91364l-6.53613 -0.933733z"/>
  <path fill="black" d="M183.079 117.032c0.677481,11.723 41.8825,-0.707528 34.5481,0.933733 -2.28671,-2.17644 -2.49251,-5.70473 -3.11244,-8.71484 -1.86747,2.8012 -2.90495,6.01739 -3.11244,9.64857 -3.95093,-3.11216 -4.05128,-6.53585 -4.66866,-9.64857 -1.76627,3.52772 -3.94668,6.43266 -4.04618,9.95982 -2.8012,-3.11244 -3.11244,-6.53613 -4.04618,-10.2711 -2.07496,2.8012 -3.52743,6.01739 -3.11244,9.64857 -4.52466,-2.26942 -3.50816,-8.86337 -4.97991,-11.516 -2.28246,3.73493 -3.31994,7.46986 -3.11244,11.2048 -1.14123,-1.03748 -2.90495,-0.829985 -4.35742,-1.24498z"/>
  <path fill="black" d="M218.561 106.45c-31.9601,-8.63859 -36.735,12.6125 -67.0343,10.5146 -24.1092,-1.66904 -34.2598,-22.5354 -14.8229,-33.2354 -1.52362,7.61896 -4.09096,17.2508 13.9164,21.5839 31.0657,7.47553 43.7465,-16.4069 67.9408,1.13698z"/>
  <path fill="#BF9F4F" d="M295.127 527.874c1.99588,-3.21024 9.55163,-9.9326 28.3232,-6.84737l-2.17871 -8.09235c-12.7091,-2.36041 -27.3382,7.75531 -26.1445,14.9397z"/>
  <path fill="#BF9F4F" d="M292.637 516.047c1.16674,-3.44155 10.9681,-9.26051 27.7007,-5.91364l-3.73493 -6.84737c-14.5769,-0.804189 -24.2257,3.08665 -23.9658,12.761z"/>
  <path fill="#BF9F4F" d="M292.015 501.107c11.9665,-8.27122 19.9318,-2.73827 26.767,-0.933733l0 -7.78111c-13.1805,-4.33559 -22.8277,-0.339307 -26.767,8.71484z"/>
  <path fill="#BF9F4F" d="M290.77 488.969c5.24693,-4.87644 17.9096,-6.01739 28.9457,-0.933733l-0.311244 -8.40359c-14.7838,-3.73521 -26.4039,0.518457 -28.6345,9.33733z"/>
  <path fill="#BF9F4F" d="M110.248 516.669c4.90649,-4.53345 14.3994,-9.73134 22.7208,-2.48995l0.311244 -9.64857c-14.11,-2.35984 -22.9289,5.68092 -23.0321,12.1385z"/>
  <path fill="#BF9F4F" d="M106.513 503.597c3.66151,-5.15594 14.3994,-8.48637 22.7208,-1.24498l0 -9.33733c-14.11,-2.35984 -21.3727,4.43594 -22.7208,10.5823z"/>
  <path fill="#BF9F4F" d="M105.891 491.459c4.15956,-5.07855 11.6286,-7.04892 21.7871,-1.24498l1.55622 -8.09235c-14.4729,-2.36013 -20.5943,1.63417 -23.3433,9.33733z"/>
  <path fill="#BF9F4F" d="M108.38 480.876c2.74762,-4.87644 9.07512,-6.01767 24.2771,-0.933733l0.622489 -7.15862c-17.1184,-2.8012 -24.4845,0 -24.8995,8.09235z"/>
  <circle fill="#BF9F4F" cx="55.8128" cy="65.5764" r="20.5515"/>
  <circle fill="#BF9F4F" cx="55.8128" cy="234.777" r="20.5515"/>
  <circle fill="#BF9F4F" cx="73.8128" cy="396.777" r="20.5515"/>
  <circle fill="#BF9F4F" cx="444.613" cy="65.5764" r="20.5515"/>
  <circle fill="#BF9F4F" cx="444.613" cy="234.777" r="20.5515"/>
  <circle fill="#BF9F4F" cx="437.413" cy="396.777" r="20.5515"/>
  <circle fill="#BF9F4F" cx="248.189" cy="507.63" r="20.5515"/>
  <path fill="black" d="M233.189 94.6222c3.9651,21.9254 -4.10429,29.9478 -41.0154,28.7368l-3.18132 1.14265c19.6214,2.02309 34.9438,1.32293 42.7572,-5.13525 7.81342,-6.45818 6.56192,-19.9199 1.43943,-24.7442z"/>
  <path fill="black" d="M156.935 66.6102l4.97991 10.8935c1.03748,-2.69745 0.829985,-6.63988 1.24498,-9.95982 -1.45247,-1.24498 -5.08366,-1.55622 -6.22489,-0.933733z"/>
  <path fill="#BF9F4F" d="M225.097 70.0339c-2.07496,-9.95982 -7.88485,-13.6947 -17.4297,-11.2048 -0.414992,7.46986 5.70614,12.4498 17.4297,11.2048z"/>
  <path fill="black" stroke="black" stroke-width="0.992126" d="M206.422 59.4516c17.261,-6.7955 14.8944,9.09582 25.3814,13.0193l-0.48189 1.29798c-7.46986,-3.00869 -19.9196,1.76372 -22.4096,-9.02608 2.66117,3.44551 8.43959,7.27569 16.4959,5.29115l-3.42369 -3.42369c-6.32863,0.622489 -9.12983,-1.34873 -7.15862,-6.53613 -2.8012,-3.00869 -5.91364,1.14123 -8.40359,-0.622489z"/>
  <path fill="none" stroke="black" stroke-width="0.992126" d="M238.481 49.1806c4.36791,3.90047 7.80378,9.20325 7.15862,15.5622 3.11244,2.69745 0.829985,3.73493 3.11244,8.09235"/>
  <path fill="none" stroke="black" stroke-width="0.992126" d="M242.527 48.8693c4.36791,3.90047 7.80378,9.20325 7.15862,15.5622 3.11244,2.69745 0.829985,3.73493 3.11244,8.09235"/>
  <path fill="none" stroke="black" stroke-width="0.992126" d="M247.195 49.4918c4.36791,3.90047 6.55881,8.892 5.91364,15.251 3.11244,2.69745 0.51874,3.42369 2.8012,7.78111"/>
  <path fill="none" stroke="black" stroke-width="0.708662" d="M234.434 52.6042c4.87616,4.56492 6.43238,9.12983 4.66866,13.6947 3.63487,0.709796 5.81188,7.25244 7.78111,14.6285"/>
  <path fill="none" stroke="black" stroke-width="0.708662" d="M231.944 59.1404c1.76372,3.31994 1.97121,6.32863 5.29115,9.95982"/>
  <path fill="none" stroke="black" stroke-width="0.708662" d="M247.818 72.2126c3.21619,4.87616 4.35742,10.9973 3.42369,18.3634"/>
  <path fill="none" stroke="black" stroke-width="0.708662" d="M252.175 73.7689c3.21619,4.87616 4.35742,10.9973 3.42369,18.3634"/>
  <path fill="none" stroke="black" stroke-width="0.708662" d="M255.288 70.9677c3.21619,4.87616 4.35742,10.0636 3.42369,17.4297"/>
  <path fill="black" d="M254.354 59.7629l25.2108 -37.3493c1.71156,12.4243 0.466583,25.3409 -2.8012,38.5943l-3.73493 0 -0.622489 -3.42369 -3.73493 5.91364 -0.622489 -3.11244 -3.42369 -0.622489 1.86747 -4.66866 -3.11244 2.8012 -4.35742 0.622489c2.07496,7.46986 6.95112,9.02608 6.22489,22.4096 -1.97121,-5.49865 -4.77241,-10.5823 -8.40359,-15.251 1.24498,-3.63118 0.414992,-5.6024 -2.48995,-5.91364z"/>
  <path fill="black" d="M263.38 64.4315c3.11244,4.14992 4.97991,8.71484 5.6024,13.6947l-0.622489 -9.02608 2.17871 0c-0.726237,-1.97121 -3.11244,-3.52743 -7.15862,-4.66866z"/>
  <path fill="none" stroke="black" stroke-width="0.992126" d="M269.605 64.4315c3.11244,1.76372 4.35742,4.66866 4.97991,8.09235"/>
  <path fill="none" stroke="black" stroke-width="0.708662" d="M179.033 65.6765c1.76769,3.00643 2.07695,5.6007 2.17871,7.78111"/>
  <path fill="none" stroke="black" stroke-width="0.708662" d="M182.633 65.6765c1.76769,3.00643 2.07695,5.6007 2.17871,7.78111"/>
  <path fill="none" stroke="black" stroke-width="0.708662" d="M186.233 65.6765c1.76769,3.00643 2.07695,5.6007 2.17871,7.78111"/>
  <path fill="none" stroke="black" stroke-width="0.708662" d="M189.833 65.6765c1.76769,3.00643 2.07695,5.6007 2.17871,7.78111"/>
  <path fill="none" stroke="black" stroke-width="0.708662" d="M171.833 65.6765c1.76769,3.00643 2.07695,5.6007 2.17871,7.78111"/>
  <path fill="none" stroke="black" stroke-width="0.708662" d="M174.188 65.6765c1.76769,3.00643 2.07695,5.6007 2.17871,7.78111"/>
  <path fill="none" stroke="black" stroke-width="0.992126" d="M193.433 65.6765c1.76769,3.00643 3.01068,5.91194 3.11244,8.09235"/>
  <path fill="none" stroke="black" stroke-width="0.992126" d="M198.33 64.7428c1.76769,3.00643 0.831969,5.28945 0.933733,7.46986"/>
  <path fill="none" stroke="black" stroke-width="0.708662" d="M164.716 68.4777c1.76769,3.00643 2.07695,5.6007 2.17871,7.78111"/>
  <path fill="none" stroke="black" stroke-width="0.708662" d="M167.517 70.3452c1.76769,3.00643 0.831969,5.91194 0.933733,8.09235"/>
  <path fill="black" d="M238.169 41.0882c7.4177,0.466299 15.0948,1.71128 23.3433,4.66866l1.55622 -9.64857 -7.46986 -27.0782c-6.12114,9.85607 6.12114,21.5796 -7.46986,31.1244 -4.25367,-0.207496 -7.36611,0.311244 -9.95982,0.933733z"/>
  <path fill="black" d="M365.157 126.058c2.28246,-7.57361 2.90495,-15.9772 1.86747,-25.2108 5.1874,8.50734 7.46986,17.4297 6.84737,26.767l-2.48995 -1.86747c0.933733,-4.66866 0.622489,-7.67736 -0.933733,-9.02608 -2.42816,0.456662 -3.7491,5.33962 -5.29115,9.33733z"/>
  <path fill="black" d="M367.647 164.963c2.28246,-7.57361 1.34873,-15.666 0.933733,-24.8995 5.91364,7.78111 10.2708,15.5622 8.71484,25.8333l-2.8012 -1.55622c0.933733,-4.66866 0,-7.36611 -1.55622,-8.71484 -2.42816,0.456662 -3.7491,5.33962 -5.29115,9.33733z"/>
  <path fill="black" d="M380.408 190.485c0.726237,-5.08366 -2.07496,-15.3547 0,-24.8995 2.27565,9.44816 9.1253,16.6039 8.09235,25.522l-2.8012 -0.933733c0.311244,-3.73493 -0.311244,-7.67736 -1.86747,-9.02608 -2.42816,0.456662 -1.88164,5.33962 -3.42369,9.33733z"/>
  <path fill="black" d="M389.745 220.987c0.990426,-5.08337 -0.870237,-15.6654 0.622489,-25.2108 4.14312,6.02448 5.07912,15.0477 5.29115,24.5883l-1.55622 -0.311244c0.933733,-2.48995 0,-9.54482 -1.55622,-10.8935 -2.42816,0.456662 -1.25915,7.82958 -2.8012,11.8273z"/>
  <path fill="black" d="M390.99 257.403c-2.43326,-3.21591 1.93096,-19.0891 5.29115,-28.3232 4.14312,6.02448 1.34419,16.6039 1.55622,26.1445l-1.55622 -0.311244c0.933733,-2.48995 0.622489,-12.6573 -0.933733,-14.006 -2.42816,0.456662 -1.88164,11.8758 -4.35742,16.4959z"/>
  <path fill="black" d="M393.791 288.216l3.11244 -0.311244c3.57931,-8.66296 5.86205,-17.0666 5.29115,-24.8995l-4.04618 0c-0.807307,5.66618 -3.41348,10.4324 -5.91364,15.251 2.48995,-2.48995 4.56492,-5.3949 6.22489,-8.71484 0.778394,4.35714 -1.29657,10.9973 -4.66866,18.6747z"/>
  <path fill="#7F7F7F" d="M354.886 159.05c3.11188,-8.97449 0.621922,-17.3778 -0.622489,-25.522 4.4606,9.23415 10.5815,18.3643 10.8935,26.767 -4.39795,-4.82939 -3.50703,-6.2555 -5.91364,-10.5823 -1.18318,1.70164 -2.81537,5.33962 -4.35742,9.33733z"/>
  <path fill="#7F7F7F" d="M365.468 191.419c1.45191,-8.5595 -1.97178,-15.7176 -1.55622,-24.2771 4.4606,9.23415 12.1377,12.4506 12.4498,20.8534 -4.39795,-4.82939 -6.93071,-11.2354 -9.33733,-12.4498 -1.18318,1.70164 -0.0141732,11.8758 -1.55622,15.8735z"/>
  <path fill="#7F7F7F" d="M376.984 225.656c1.14066,-8.24826 -3.21676,-19.1412 -2.8012,-27.7007 4.4606,8.60939 12.1371,11.4092 12.4498,20.8534 -4.39795,-4.82939 -6.30822,-11.5467 -8.71484,-12.761 -1.18318,1.70164 2.78703,13.1207 -0.933733,19.6084z"/>
  <path fill="#7F7F7F" d="M364.846 213.206c-2.59427,-6.69203 -4.15049,-6.38022 -5.91364,-15.8735 6.12426,4.03654 10.8944,4.86822 11.8273,13.0723 -4.39795,-4.82939 -5.68574,-6.87799 -8.09235,-8.09235 -1.18318,1.70164 3.72076,5.33962 2.17871,10.8935z"/>
  <path fill="#7F7F7F" d="M379.474 248.377c1.14066,-8.24826 2.69688,-16.9625 3.11244,-25.522 2.59314,7.05317 5.60098,16.3891 5.6024,21.7871 -4.71033,-4.8291 -2.78306,-10.6126 -4.66866,-11.8273 -1.18318,1.70164 -0.325417,9.07456 -4.04618,15.5622z"/>
  <path fill="#7F7F7F" d="M380.408 277.634c1.14066,-8.24826 3.00813,-16.34 3.42369,-24.8995 5.50205,6.52649 6.84822,12.3381 6.53613,23.0321 -4.39795,-4.82939 -1.63956,-15.5928 -4.04618,-16.8072 -0.768189,2.11691 -1.77789,12.6023 -5.91364,18.6747z"/>
  <path fill="#7F7F7F" d="M380.097 297.865c5.80933,-6.38079 8.61052,-13.5388 9.02608,-22.0983 5.50205,6.52649 3.73578,20.1192 -2.48995,27.0782 2.44942,-6.07437 3.0291,-12.1691 3.11244,-18.3634 -0.768189,2.11691 -2.08913,10.1123 -9.64857,13.3835z"/>
  <path fill="black" stroke="black" stroke-width="0.992126" d="M386.322 435.123c3.42369,-19.1934 2.28246,-29.672 -3.42369,-31.4357 11.516,2.17871 12.6573,12.6573 3.42369,31.4357z"/>
  <path fill="none" stroke="black" stroke-width="0.992126" d="M359.555 515.424c7.46986,-1.65997 11.6198,-4.56492 12.4498,-8.71484"/>
  <path fill="black" d="M280.499 91.1985c3.21619,6.01739 6.74363,13.2798 13.3835,19.9196 -1.65997,-9.54482 -3.73493,-17.8447 -6.22489,-24.8995l-2.17871 2.8012c1.86747,3.52743 2.90495,7.46986 3.11244,11.8273l-8.09235 -9.64857z"/>
  <path fill="black" d="M278.32 112.986c3.21619,6.01739 5.80989,10.1673 12.4498,16.8072 0.668126,-9.54511 -0.498047,-13.4875 -4.04618,-20.5421 -0.677764,5.54032 0.965197,8.12863 0.622489,13.3835l-9.02608 -9.64857z"/>
  <path fill="black" d="M278.32 112.986c3.21619,6.01739 5.80989,10.1673 12.4498,16.8072 -0.822615,-3.96255 -1.31187,-12.0875 -4.04618,-20.2309 -0.677764,5.54032 0.965197,7.81739 0.622489,13.0723l-9.02608 -9.64857z"/>
  <path fill="black" d="M284.233 150.646c3.21619,6.01739 5.80989,10.1673 12.4498,16.8072 -0.822615,-3.96255 -2.8681,-26.0935 -5.6024,-34.2369 -0.677764,5.54032 2.52142,21.8234 2.17871,27.0782l-9.02608 -9.64857z"/>
  <path fill="black" d="M281.121 172.745c3.21619,6.01739 5.1874,12.346 11.8273,18.9859 -0.822615,-3.96255 -1.31187,-18.3124 -4.04618,-26.4558 -1.92274,5.54032 -1.836,9.06237 -1.55622,14.9397l-6.22489 -7.46986z"/>
  <path fill="#7F7F7F" d="M271.784 121.7c0.310961,5.18712 1.34844,13.6945 10.8935,21.1646 -0.200126,-5.51877 -1.31187,-12.3987 -4.97991,-18.9859 -0.677764,5.54032 1.89893,6.57241 1.55622,11.8273 -3.53169,-4.66866 -5.60495,-9.33761 -7.46986,-14.006z"/>
  <path fill="#7F7F7F" d="M274.585 190.174c0.310961,5.18712 1.34844,13.6945 10.8935,21.1646 -0.200126,-5.51877 -4.42432,-16.7562 -4.35742,-27.3895 -2.49421,6.26712 -1.05902,15.9095 0.933733,20.2309 -3.53169,-4.66866 -5.60495,-9.33761 -7.46986,-14.006z"/>
  <path fill="#7F7F7F" d="M278.942 147.534c-0.310394,3.59943 6.12142,9.57884 -3.42369,20.5421 -1.04485,-6.45251 -3.66803,-13.6437 -2.8012,-19.6084 1.30025,1.80539 2.45849,6.88366 4.04618,13.6947 3.53169,-4.66866 0.313795,-9.9601 2.17871,-14.6285z"/>
  <path fill="#7F7F7F" d="M272.095 164.963c0.778961,3.23603 3.16488,14.0913 -7.78111,25.522 -0.111118,-10.1874 -1.80057,-14.8887 -1.86747,-21.7871 1.6115,4.60658 4.32595,7.1949 4.66866,12.4498 3.53169,-4.66866 3.11499,-11.5163 4.97991,-16.1847z"/>
  <path fill="#7F7F7F" d="M268.671 197.644c1.78866,4.24488 0.231874,14.5814 -14.3172,22.4096 2.06759,-10.1874 8.47049,-14.5775 8.40359,-21.4759 2.85647,3.36161 -2.21017,10.6186 -3.42369,17.1184 4.32539,-4.66866 9.21856,-13.3844 9.33733,-18.0522z"/>
  <path fill="#7F7F7F" d="M245.328 194.22c-1.32378,5.17862 -4.43679,8.0453 -14.006,11.8273 2.06759,-10.1874 6.91427,-13.3325 6.84737,-20.2309 2.85647,3.36161 -2.52142,10.9298 -3.73493,17.4297 4.32539,-4.66866 8.59607,-4.66951 10.8935,-9.02608z"/>
  <path fill="#7F7F7F" d="M254.043 144.11c-0.74778,5.4669 -5.20498,10.1512 -15.5622,12.4498 1.16135,-9.58337 5.47172,-7.75418 8.55922,-16.1847 1.76712,4.91783 -3.61077,5.94992 -4.82429,12.4498 4.94788,-1.24498 9.5298,-4.35827 11.8273,-8.71484z"/>
  <path fill="#7F7F7F" d="M250.308 121.7c-0.851245,4.01358 -1.78129,9.52782 -9.64857,13.6947 2.06759,-10.1874 3.80183,-8.66382 3.73493,-15.5622 1.8445,5.6024 1.00233,3.57988 0.466866,8.87046 3.38599,-2.28699 2.21216,-3.27175 5.44677,-7.003z"/>
  <path fill="#7F7F7F" d="M251.708 175.39c-3.42851,6.22942 -8.16095,2.06334 -11.516,1.55622 0.538866,-3.51411 7.49481,-4.79736 10.5823,-13.2279 0.416126,8.29361 -8.07364,10.4162 -7.31424,11.9829 -1.19055,-0.333354 1.43802,3.28394 8.24797,-0.311244z"/>
  <path fill="#7F7F7F" d="M239.103 223.01c-1.8275,5.58879 -12.873,6.65575 -16.8072,6.38051 1.00573,-4.60347 7.80605,-10.8666 12.6054,-15.8735 -0.0507402,6.89301 -9.62986,11.8168 -8.87046,13.3835 -0.606331,-0.138898 6.92391,-0.0751181 13.0723,-3.89055z"/>
  <path fill="#7F7F7F" d="M224.941 245.731c-1.82806,7.92369 -15.5186,16.0971 -19.4528,14.006 0.499748,-4.43481 9.08901,-12.0206 12.4498,-17.1184 -0.0507402,6.89301 -9.31862,12.4393 -8.55922,14.006 -0.809292,2.50384 9.20155,-4.32709 15.5622,-10.8935z"/>
  <path fill="#7F7F7F" d="M239.259 248.844c-0.591591,9.94508 -12.7341,14.8176 -17.1184,13.6947 1.10381,-2.82699 10.976,-10.9324 13.6947,-17.7409 -0.0507402,6.89301 -4.9612,11.3499 -4.2018,12.9166 -0.809292,2.50384 1.26482,-2.304 7.62548,-8.87046z"/>
  <path fill="#7F7F7F" d="M219.806 264.406c-4.44218,5.06551 -13.3098,8.24202 -20.8534,6.22489 1.10381,-2.82699 6.77424,-2.84003 14.7841,-10.7379 -1.29572,6.27052 -5.73931,6.52564 -4.97991,8.09235 3.88177,-0.708945 6.88196,-2.24731 8.68933,-4.61537l2.35984 1.03606z"/>
  <path fill="#7F7F7F" d="M167.672 269.853c8.7293,-6.09506 9.57544,-9.22054 15.8735,-16.8072 -1.29572,6.27052 -8.54051,11.6612 -7.78111,13.2279 3.88177,-0.708945 7.34882,-4.89288 9.15619,-7.26095 0.382394,4.91783 -9.59585,12.8866 -17.2485,10.8403z"/>
  <path fill="#7F7F7F" d="M179.5 272.343c8.50904,-5.21348 9.3807,-8.44271 15.8735,-16.8072 -0.620788,6.43918 -7.55377,11.9078 -7.78111,13.2279 3.88177,-0.708945 4.08076,-1.4692 5.88813,-3.83726 0.382394,4.91783 -6.32778,9.4629 -13.9805,7.41657z"/>
  <path fill="#7F7F7F" d="M138.271 283.437c9.52243,-5.23985 10.908,-5.69396 20.9359,-5.49865 -9.52413,-3.13654 -13.8858,0.464032 -13.7897,-0.18652 -2.51887,-2.74592 3.95433,-6.40574 10.5551,-6.94489 -4.53458,-3.51553 -16.0098,4.4606 -17.7012,12.6301z"/>
  <path fill="#7F7F7F" d="M114.928 285.459c4.33701,-1.81559 6.9687,-3.25531 12.5323,-4.09777 -3.61077,-1.73622 -7.66148,1.39748 -7.56539,0.74693 -0.333638,-2.72551 3.58555,-5.02214 9.77726,-7.10022 -5.46832,-1.3371 -10.874,3.21506 -14.7441,10.4511z"/>
  <path fill="#7F7F7F" d="M83.181 295.419c6.04885,-0.415276 7.27994,-6.36775 12.8435,-7.21049 -2.81452,-2.53106 -10.9009,5.41616 -10.9888,4.94929 2.31251,-11.9078 6.54265,-5.95616 7.13169,-11.147 -4.84555,5.25884 -6.20561,-5.15764 -8.9864,13.4082z"/>
  <path fill="#7F7F7F" d="M163.004 280.902c4.50992,-4.93654 7.03588,-7.66148 11.8273,-8.55922 -2.75046,2.6161 -4.68879,2.41682 -5.44677,5.6024 3.88177,-0.708945 5.32573,0.242646 10.0899,-1.19169 -0.138898,3.61559 -9.13011,5.41333 -16.4704,4.14851z"/>
  <path fill="#7F7F7F" d="M204.088 263.628c-3.68731,1.71695 -7.01065,3.06766 -7.78111,1.86747l-0.466866 3.11244c3.57903,-1.03748 6.32835,-2.69745 8.24797,-4.97991z"/>
  <path fill="#7F7F7F" d="M217.005 194.843c-6.27648,0.674079 -13.1238,0.777827 -20.2309,0.622489 2.74961,6.75978 16.8191,12.5473 32.6806,4.97991 -12.761,2.17871 -21.7871,1.45247 -27.0782,-2.17871 8.00136,-0.100063 11.6274,-1.65799 14.6285,-3.42369z"/>
  <path fill="#7F7F7F" d="M215.448 205.114c-5.78296,2.64756 -16.8321,3.37323 -23.9658,3.42369 13.4949,3.72189 14.7719,13.4011 30.5019,6.22489 -11.8233,1.55395 -19.2906,-2.39046 -22.7208,-4.97991 7.17137,0.314646 14.8436,-1.24328 16.1847,-4.66866z"/>
  <path fill="#7F7F7F" d="M149.776 187.833c-3.77547,-0.355465 -14.0392,-6.99109 -18.3634,-8.09235 5.64123,-2.79213 20.1149,0.163276 22.0983,2.48995 -8.17144,-1.40854 -8.32167,-1.50293 -15.8735,-1.86747 7.26463,3.58101 10.2413,7.69408 12.1385,7.46986z"/>
  <path fill="#7F7F7F" d="M177.788 195.614c-3.77547,-0.355465 -13.7279,-6.05736 -18.0522,-7.15862 5.64095,-3.72614 20.4259,0.681449 22.4096,3.73493 -8.17144,-1.40854 -6.45421,-2.43666 -14.006,-2.8012 8.50961,3.26977 7.75134,6.44911 9.64857,6.22489z"/>
  <path fill="#7F7F7F" d="M130.168 175.072c-3.77547,-0.355465 -20.264,-8.23607 -24.5883,-9.33733 4.39625,-3.20684 18.87,-0.251433 22.0983,2.48995 -8.17144,-1.40854 -8.32167,-1.50293 -15.8735,-1.86747 9.85862,2.10217 18.8524,8.1343 18.3634,8.71484z"/>
  <path fill="#7F7F7F" d="M105.891 162.934c-3.25446,-2.95994 -16.8387,-6.37484 -21.4759,-5.91364 1.62085,-6.1903 18.6367,-6.39865 24.8995,0 -10.194,-2.96391 -16.9841,-4.51077 -19.9196,-1.24498 9.85862,0.442205 16.9849,4.91811 16.4959,7.15862z"/>
  <path fill="#7F7F7F" d="M185.569 212.733c-3.77547,-0.355465 -14.3504,-3.25616 -18.6747,-4.35742 5.64095,-3.72614 17.0022,-4.6097 18.9859,-1.55622 -8.17144,-1.40854 -12.3678,0.67578 -12.761,1.24498 12.0027,2.68725 12.1402,4.62813 12.4498,4.66866z"/>
  <path fill="#7F7F7F" d="M196.774 223.938c-4.39795,0.267024 -12.1717,-3.87865 -15.251,-5.29115 6.1081,-3.25899 18.6106,-3.93477 20.2309,-1.24498 -7.86019,0.458929 -14.5466,1.92076 -14.9397,2.48995 12.0027,2.68725 9.65027,4.00564 9.95982,4.04618z"/>
  <path fill="#7F7F7F" d="M160.047 200.134c-6.22489,-3.00869 -12.0348,-5.1874 -17.4297,-6.53613 6.22489,-0.311244 12.0348,1.86747 17.4297,6.53613z"/>
  <path fill="#7F7F7F" d="M213.27 219.431c-4.69247,7.49878 -21.6561,2.88114 -28.012,-5.29115 8.69018,6.30851 25.1334,7.29128 28.012,5.29115z"/>
  <path fill="#7F7F7F" d="M217.938 202.001c-14.341,9.36624 -19.7887,-0.853796 -33.9256,-2.48995 17.405,-3.96255 17.6635,9.15874 33.9256,2.48995z"/>
  <path fill="#7F7F7F" d="M225.875 369.14c5.30561,-4.22759 11.7541,-4.24063 18.6747,-9.33733 -1.29572,6.27052 -13.5204,6.99251 -12.761,8.55922 2.31959,0.852945 12.636,-1.15455 15.3811,-4.45975 0.382394,4.91783 -13.642,7.28419 -21.2947,5.23786z"/>
  <path fill="#7F7F7F" d="M281.588 360.425c5.30561,-4.22759 12.3766,-2.68441 19.2971,-7.78111 -1.29572,6.27052 -15.0766,5.74753 -14.3172,7.31424 -2.35077,0.903685 4.64287,5.01591 14.1361,1.14265 0.382394,4.91783 -14.2645,3.54926 -19.116,-0.67578z"/>
  <path fill="#7F7F7F" d="M209.068 348.909c10.2855,-2.98262 10.8204,-10.1543 17.7409,-9.33733 -4.7194,1.9131 -5.11682,6.68126 -12.761,8.87046 -2.03868,1.21606 7.34287,0.557292 15.6923,-3.21477 0.382394,4.91783 -15.5095,6.6617 -20.6722,3.68164z"/>
  <path fill="#7F7F7F" d="M197.552 331.479c7.17307,-2.36013 12.6879,-1.75068 19.6084,-3.42369 -5.96438,4.09181 -12.8979,3.88006 -15.251,3.89055 -2.03868,1.21606 9.52158,3.66973 16.9373,3.32136 -0.0328819,5.33282 -16.547,-0.393449 -21.2947,-3.78822z"/>
  <path fill="#7F7F7F" d="M192.572 345.796c5.30561,-4.22759 3.03931,-2.99566 9.95982,-8.09235 -1.29572,6.27052 -7.29553,5.74753 -6.53613,7.31424 -1.67556,0.126425 5.0091,0.401103 12.8911,-1.9698 -1.69285,4.08784 -13.227,4.8977 -16.3148,2.74791z"/>
  <path fill="#7F7F7F" d="M171.719 354.2c6.55059,-3.6051 6.77424,-7.66432 13.6947,-12.761 -2.22945,5.33679 -7.29553,9.17122 -10.2711,11.9829 -0.616819,0.391181 7.3372,-2.44063 12.8911,-5.39348 -1.69285,4.08784 -13.227,8.32139 -16.3148,6.17159z"/>
  <path fill="#7F7F7F" d="M171.719 371.941c3.74939,-3.6051 4.90677,-8.59805 8.09235,-12.1385 -0.145984,1.69087 -1.37679,6.36123 -5.6024,11.3604 -0.616819,0.391181 4.536,-2.75188 10.0899,-5.70473 -1.69285,4.08784 -10.4258,8.01015 -12.5799,6.48284z"/>
  <path fill="#7F7F7F" d="M188.215 368.517c3.74939,-3.6051 3.35055,-10.7768 6.53613,-14.3172 -0.810426,2.35531 -1.81219,10.5313 -4.04618,13.5391 1.56586,-2.40633 6.40999,-9.59358 10.4012,-14.1083 -0.758835,5.48873 -10.0103,17.5031 -12.8911,14.8864z"/>
  <path fill="#7F7F7F" d="M175.765 394.662c3.74939,-3.6051 3.97304,-14.2004 7.15862,-17.7409 -0.187937,2.04406 -2.43468,13.955 -4.66866,16.9628 1.56586,-2.40633 7.03248,-8.03736 10.0899,-12.8633 -0.758835,5.48873 -9.69903,16.2581 -12.5799,13.6415z"/>
  <path fill="#7F7F7F" d="M186.347 412.091c3.74939,-3.6051 1.17184,-15.7567 4.35742,-19.2971 -0.187937,2.04406 0.36652,15.5112 -1.86747,18.519 1.56586,-2.40633 9.21119,-8.65985 9.46744,-15.3533 2.9761,6.42246 -9.07654,18.7481 -11.9574,16.1314z"/>
  <path fill="#7F7F7F" d="M193.195 387.503c0.429449,-2.46416 6.56703,-17.7282 11.8273,-22.0983 -1.27758,2.7703 -8.19298,18.0009 -9.02608,20.0753 0.839906,-6.03837 11.3893,-11.7737 14.1361,-13.1746 -1.74614,2.5509 -12.553,11.2992 -16.9373,15.1977z"/>
  <path fill="black" d="M205.956 391.549c-2.37175,-3.39789 0.653386,-11.192 5.91364,-15.5622 -1.27758,2.7703 -6.01427,8.66353 -4.66866,12.2941 5.19733,-6.9721 9.52186,-9.595 12.2686,-10.9959 -1.74614,2.5509 -9.12926,7.8755 -13.5136,14.2639z"/>
  <path fill="black" stroke="black" stroke-width="0.992126" d="M205.489 445.394c5.92526,-7.23118 12.0798,-18.8127 0.311244,-26.4558 -1.34873,-0.726237 -3.31994,1.03748 -2.17871,2.48995 5.70728,2.64473 7.88514,7.41742 2.8012,18.3634l-0.933733 5.6024z"/>
  <path fill="black" d="M188.37 496.439c-6.01767,11.1271 -14.0063,15.8479 -23.3433,16.1847 11.516,2.90495 19.2971,-2.48995 23.3433,-16.1847z"/>
  <path fill="#7F7F7F" d="M314.891 343.929c4.37443,-4.23043 6.26003,-13.0638 8.40359,-15.5622 1.09899,0.445607 -0.131811,7.2944 -5.6024,13.5391 0.396567,1.7161 9.43966,-2.93017 13.5136,-7.88344 0.506551,5.73704 -13.0085,12.2975 -16.3148,9.90652z"/>
  <path fill="#7F7F7F" d="M301.819 367.583c4.84158,-3.81543 10.0471,-10.7819 11.516,-13.0723 2.30372,-0.156473 -1.404,7.15125 -8.71484,11.6717 0.396567,1.7161 9.43966,-2.93017 13.5136,-7.88344 0.506551,5.73704 -13.0085,11.6751 -16.3148,9.28404z"/>
  <path fill="#7F7F7F" d="M216.538 356.69c5.30561,-4.22759 11.1317,-2.06192 18.0522,-7.15862 -1.29572,6.27052 -15.0766,5.12504 -14.3172,6.69175 -2.35077,0.903685 5.88785,5.01591 15.3811,1.14265 0.117354,4.91755 -14.8462,3.54869 -19.116,-0.67578z"/>
  <path fill="#7F7F7F" d="M286.412 365.093l-14.3172 0.622489c5.6024,2.28246 10.3748,2.07496 14.3172,-0.622489z"/>
  <path fill="#7F7F7F" d="M269.605 366.027l-12.1385 0.311244c5.6024,2.28246 8.1961,2.38621 12.1385,-0.311244z"/>
  <path fill="#7F7F7F" d="M279.254 361.047l-11.8273 0.933733c5.6024,2.28246 7.88485,1.76372 11.8273,-0.933733z"/>
  <path fill="#7F7F7F" d="M277.386 354.822c-5.6024,1.32917 -11.2051,2.3023 -16.8072,2.8012 5.6024,2.28246 12.8648,-0.103748 16.8072,-2.8012z"/>
  <path fill="#7F7F7F" d="M294.816 345.174c-5.6024,1.32917 -20.5424,2.61354 -26.1445,3.11244 5.60211,2.77569 22.2015,-0.0773859 26.1445,-3.11244z"/>
  <path fill="#7F7F7F" d="M269.294 351.087c-5.6024,1.32917 -9.9601,0.434835 -15.5622,0.933733 5.6024,2.28246 11.6198,1.76372 15.5622,-0.933733z"/>
  <path fill="#7F7F7F" d="M305.398 333.035c-5.6024,2.41937 -19.2977,4.01443 -24.8995,3.11244 5.13496,4.17629 20.5931,1.01169 24.8995,-3.11244z"/>
  <path fill="#7F7F7F" d="M298.551 339.26c-5.6024,2.41937 -11.8278,3.70318 -17.4297,2.8012 5.13468,3.70914 13.123,0.959528 17.4297,-2.8012z"/>
  <path fill="#7F7F7F" d="M278.942 344.551c-8.40359,1.17439 -13.0728,-1.27673 -18.6747,-2.17871 5.13468,3.70914 12.8118,5.62819 18.6747,2.17871z"/>
  <path fill="#7F7F7F" d="M284.856 338.949c-8.40359,1.17439 -10.8941,-0.654237 -16.4959,-1.55622 5.13468,3.70914 10.633,5.0057 16.4959,1.55622z"/>
  <path fill="#7F7F7F" d="M296.994 350.776c-5.6024,1.32917 -8.40388,1.05732 -14.006,1.55622 5.6024,2.28246 10.0636,1.14123 14.006,-1.55622z"/>
  <path fill="#7F7F7F" d="M328.119 348.598c-6.66255,9.12955 -3.74514,16.0807 0.311244,22.7208 0.570331,-6.32863 1.71128,-12.1391 3.11244,-16.8072 -1.60838,1.91339 -3.26892,4.60602 -4.04618,11.516 -1.86747,-4.14992 -1.65997,-9.95982 0.622489,-17.4297z"/>
  <path fill="#7F7F7F" d="M328.119 380.967c-5.9332,11.8372 2.89588,20.8613 6.84737,25.2108 -1.91991,-6.74391 -2.33518,-23.7589 1.55622,-28.012 -3.42425,1.18715 -6.53755,13.9428 -4.97991,21.7871 -1.55452,-4.15021 -5.18485,-11.5163 -3.42369,-18.9859z"/>
  <path fill="#7F7F7F" d="M336.523 361.359c-4.28287,11.2873 5.31666,22.7517 8.09235,24.5883 -1.91991,-6.74391 -2.33518,-19.4015 1.55622,-23.6546 -3.11159,1.49953 -6.01654,10.1061 -4.97991,17.4297 -1.55452,-4.15021 -6.42983,-10.8938 -4.66866,-18.3634z"/>
  <path fill="#7F7F7F" d="M343.992 341.128c-3.14107,8.27802 2.93131,16.6295 4.35742,22.0983 6.48369,-3.63147 0.77726,-18.4677 4.66866,-22.7208 -5.60155,0.87704 -1.65912,15.3972 -4.35742,19.6084 -1.13953,-4.98019 -6.01455,-12.3466 -4.66866,-18.9859z"/>
  <path fill="#7F7F7F" d="M309.444 375.676c-5.49213,8.75056 -5.42977,22.1837 -1.86747,29.257 5.56781,-8.92262 5.14545,-17.8455 8.09235,-21.7871 -0.612,-1.9372 -4.02973,3.75506 -7.15862,16.8072 -2.38479,-4.15021 -1.65742,-16.8078 0.933733,-24.2771z"/>
  <path fill="#7F7F7F" d="M311.312 406.489c-4.57909,10.171 2.17361,15.1492 4.97991,21.1646 1.50406,-7.26293 1.19225,-15.9781 1.86747,-19.9196 -1.8737,0.59074 -2.60589,4.80728 -2.8012,14.6285 -3.21364,-5.50914 -6.01597,-9.96634 -4.04618,-15.8735z"/>
  <path fill="#7F7F7F" d="M298.862 403.999c-3.01663,9.64971 0.31011,13.9028 2.17871,20.2309 2.82728,-6.73342 5.03632,-15.4366 2.8012,-20.5421 -0.583087,1.28835 0.576,8.43251 -3.73493,14.9397 -1.23704,-6.03071 -1.13613,-10.4871 -1.24498,-14.6285z"/>
  <path fill="black" d="M276.141 223.789c1.0372,5.1874 2.90466,3.73436 11.516,11.2048 1.04485,-6.14126 -7.22552,-15.1999 -7.15862,-25.8333 -3.89509,5.33311 1.58599,15.8051 4.66866,20.8534 -2.54608,-1.66025 -6.69459,-2.4908 -9.02608,-6.22489z"/>
  <path fill="black" d="M290.77 235.305c1.0372,5.1874 4.77213,5.91307 13.3835,13.3835 2.10302,-4.81833 -10.8111,-10.4221 -13.0723,-23.9658 -3.89509,5.33311 4.38718,14.5602 10.5823,18.9859 -2.54608,-1.66025 -8.56205,-4.66951 -10.8935,-8.40359z"/>
  <path fill="black" d="M301.663 250.867c0.486709,6.10611 0.828,8.64681 11.8273,12.1385 -1.21748,-5.87254 -4.13717,-8.37241 -5.29115,-17.1184 -3.89509,5.33311 1.27474,8.95777 2.8012,13.6947 -2.54636,-0.619087 -7.00611,-4.35629 -9.33733,-8.71484z"/>
  <path fill="black" d="M318.159 261.449c-0.758268,4.23865 1.76173,8.95805 12.761,12.4498 -0.850111,-8.94473 -6.9052,-4.7897 -8.40359,-12.4498 -3.89509,4.08813 1.89723,3.35537 3.42369,8.09235 -2.54636,-0.619087 -5.44989,-3.7338 -7.78111,-8.09235z"/>
  <path fill="black" d="M340.257 285.104c2.17871,1.97121 3.42369,5.29115 5.6024,10.5823 3.46677,-4.8807 -0.0521575,-8.65163 -1.86747,-12.1385l1.55622 6.84737c-0.722268,-2.28473 -2.90268,-3.8401 -5.29115,-5.29115z"/>
  <line fill="none" stroke="black" stroke-width="0.992126" x1="335.589" y1="275.766" x2="339.012" y2= "279.813" />
  <polyline fill="none" stroke="black" stroke-width="0.992126" points="332.165,279.813 336.834,286.037 334.966,279.501 "/>
  <line fill="none" stroke="#7F7F7F" stroke-width="0.992126" x1="324.695" y1="277.634" x2="330.609" y2= "282.925" />
  <polyline fill="none" stroke="#7F7F7F" stroke-width="0.992126" points="312.868,269.541 320.338,279.19 312.868,271.409 "/>
  <polyline fill="none" stroke="#7F7F7F" stroke-width="0.992126" points="303.842,263.317 309.444,270.786 304.464,266.118 "/>
  <line fill="none" stroke="#7F7F7F" stroke-width="0.992126" x1="289.836" y1="272.031" x2="292.637" y2= "274.21" />
  <line fill="none" stroke="#7F7F7F" stroke-width="0.992126" x1="276.764" y1="275.455" x2="280.499" y2= "278.256" />
  <line fill="none" stroke="#7F7F7F" stroke-width="0.992126" x1="286.723" y1="246.821" x2="292.326" y2= "254.602" />
  <path fill="#7F7F7F" d="M270.227 278.256c-2.38677,-1.1228 -3.52772,-9.4303 -7.15862,-17.4297 4.46117,4.14992 6.84737,9.95982 7.15862,17.4297z"/>
  <polygon fill="#7F7F7F" points="294.505,272.031 285.167,264.25 283.922,259.27 "/>
  <path fill="#7F7F7F" d="M268.671 257.403l9.33733 14.3172c-5.6024,-1.03748 -8.71484,-5.80989 -9.33733,-14.3172z"/>
  <path fill="#7F7F7F" d="M282.055 262.694c-4.77241,-0.207496 -8.29985,-2.90495 -10.5823,-8.09235l3.42369 2.48995 -0.933733 -5.6024c1.86747,4.97991 4.56492,8.71484 8.09235,11.2048z"/>
  <path fill="#7F7F7F" d="M282.988 252.734c4.97991,6.84737 10.5823,9.95982 15.8735,14.9397 1.45247,-6.74363 -2.38621,-14.7322 -5.91364,-21.1646 0.829985,6.53613 4.77241,13.0723 5.29115,18.6747 -5.29115,-4.46117 -10.8935,-12.346 -15.251,-12.4498z"/>
  <path fill="#7F7F7F" d="M261.824 230.013c0.673796,6.85503 2.75783,12.634 11.8273,16.4959 -1.21748,-5.87254 -1.95846,-8.68366 -3.11244,-17.4297 -2.33887,4.71062 0.0297638,8.33528 0.933733,13.6947 -2.41682,-0.49011 -7.02255,-8.10737 -9.64857,-12.761z"/>
  <path fill="#7F7F7F" d="M259.645 234.682c0.673796,6.85503 4.31405,10.1441 9.64857,16.8072 1.1795,-6.75978 -0.794552,-16.4248 -3.11244,-24.5883 -2.33887,4.71062 1.89723,13.3152 2.17871,18.6747 -2.41682,-2.04576 -6.08882,-6.23991 -8.71484,-10.8935z"/>
  <path fill="#7F7F7F" d="M251.242 241.218c0.0892914,3.8075 1.62624,9.09468 11.8273,16.4959 -1.21748,-5.87254 -4.75966,-13.9748 -9.95982,-18.3634 1.70731,6.42246 4.54281,4.91159 7.31424,13.8504 -4.02151,-2.47238 -6.40262,-8.42004 -9.18171,-11.9829z"/>
  <path fill="#7F7F7F" d="M245.172 256.936l-2.95682 9.95982c4.05241,4.18819 6.94403,8.9864 9.33733,14.006 -0.414992,-4.66866 -0.207496,-8.61109 3.11244,-6.22489l-2.33433 -7.93673c-2.68271,5.08649 -4.12016,3.11811 -4.31178,-5.90514l-2.84684 -3.89906z"/>
  <path fill="#7F7F7F" d="M254.043 254.602c-1.91962,10.5301 1.71184,12.3976 2.02309,16.3403 4.14992,-3.68306 3.94243,-11.4123 5.91364,-17.1184 -2.54211,1.24441 -3.47613,9.07682 -4.66866,11.8273 -2.23058,-2.43808 -2.28246,-4.87616 -3.26806,-11.0492z"/>
  <path fill="#7F7F7F" d="M256.533 242.93c-1.91962,10.5301 1.71184,12.3976 2.02309,16.3403 5.42098,-3.50136 5.4207,-8.37808 5.75802,-14.3172 -2.54211,1.24441 -0.674929,6.27563 -4.35742,11.516 -2.23058,-2.43808 -1.81559,-6.588 -3.42369,-13.5391z"/>
  <path fill="#BF9F4F" d="M299.796 314.049c10.256,5.52189 22.7628,21.3415 5.29115,32.9919 -4.25367,4.46117 -11.931,-7.57361 0.311244,-13.6947 -0.11537,-6.81704 -3.4628,-14.2381 -5.6024,-19.2971z"/>
  <path fill="black" stroke="black" stroke-width="0.992126" d="M301.663 313.738l2.17871 -0.622489c4.46117,3.73493 8.09235,9.12983 10.8935,16.1847l-3.11244 3.73493c0,-6.01739 -3.31994,-12.4498 -9.95982,-19.2971z"/>
  <path fill="black" stroke="black" stroke-width="0.992126" d="M308.822 343.618c-3.46536,2.90495 -7.59487,9.12983 -8.40359,-1.24498l-3.73493 -0.311244c2.17134,9.26788 4.96715,15.6189 12.1385,1.55622z"/>
  <path fill="#BF9F4F" d="M165.961 83.1062c-0.622489,7.15862 1.24498,12.6573 5.6024,16.4959 -0.103748,-5.08366 0.622489,-10.5823 2.17871,-16.4959l-7.78111 0z"/>
  <path fill="#BF9F4F" d="M176.232 83.1062c-0.622772,2.02847 -0.622772,5.83285 3.73493,10.5823 1.97121,-3.00869 2.07496,-7.26237 3.11244,-10.5823l-6.84737 0z"/>
  <path fill="#BF9F4F" d="M186.192 83.1062c-0.622772,2.02847 -0.622772,3.65414 3.73493,8.40359 1.97121,-3.00869 0.51874,-5.08366 1.55622,-8.40359l-5.29115 0z"/>
  <path fill="#BF9F4F" d="M194.284 83.1062c-0.622772,2.02847 -0.622772,3.3429 3.73493,8.09235 1.97121,-3.00869 0.51874,-4.77241 1.55622,-8.09235l-5.29115 0z"/>
  <path fill="#BF9F4F" d="M203.621 83.4174c-0.622772,2.02847 -0.000283465,6.1441 3.42369,6.84737 2.38621,-3.00898 2.48967,-2.28274 3.11244,-5.6024l-6.53613 -1.24498z"/>
  <path fill="#BF9F4F" d="M181.212 117.343c-0.103748,2.28246 0.622489,4.56492 2.17871,6.84737l38.9055 -4.66866 -2.17871 -5.29115c-1.45247,1.34873 -2.90495,2.69745 -4.35742,4.04618 -2.28671,-2.17644 -2.49251,-5.70473 -3.11244,-8.71484 -1.86747,2.8012 -2.90495,6.01739 -3.11244,9.64857 -3.95093,-3.11216 -4.05128,-6.53585 -4.66866,-9.64857 -1.76627,3.52772 -3.94668,6.43266 -4.04618,9.95982 -2.8012,-3.11244 -3.11244,-6.53613 -4.04618,-10.2711 -2.07496,2.8012 -3.52743,6.01739 -3.11244,9.64857 -4.52466,-2.26942 -3.50816,-8.86337 -4.97991,-11.516 -2.28246,3.73493 -3.31994,7.46986 -3.11244,11.2048 -1.14123,-1.03748 -2.90495,-0.829985 -4.35742,-1.24498z"/>
  <path fill="#BF9F4F" d="M218.561 104.271c-31.9601,-8.63859 -38.9132,12.6128 -69.213,10.5146 -24.1095,-1.66961 -35.816,-22.8467 -16.3792,-33.5466 -1.52362,7.61896 -3.15751,17.873 14.8501,22.2063 31.066,7.47581 46.5477,-16.7182 70.742,0.825733z"/>
  <line fill="none" stroke="black" stroke-width="0.708662" x1="71.4416" y1="138.246" x2="75.1488" y2= "139.01" />
  <circle fill="black" cx="73.3655" cy="146.756" r="1.4006"/>
 </g>
</svg>
