<?xml version="1.0" encoding="UTF-8"?>
<!DOCTYPE svg PUBLIC "-//W3C//DTD SVG 1.1//EN" "http://www.w3.org/Graphics/SVG/1.1/DTD/svg11.dtd">
<!-- Creator: CorelDRAW -->
<svg xmlns="http://www.w3.org/2000/svg" xml:space="preserve" width="500px" height="567px" shape-rendering="geometricPrecision" text-rendering="geometricPrecision" image-rendering="optimizeQuality" fill-rule="evenodd" clip-rule="evenodd"
viewBox="0 0 500 567"
 xmlns:xlink="http://www.w3.org/1999/xlink"
 xmlns:svg="http://www.w3.org/2000/svg"
 version="1.0">
 <g id="Layer_x0020_1">
  <metadata id="CorelCorpID_0Corel-Layer"/>
  <path id="path1937" fill="#0581ED" stroke="black" stroke-width="0.216" d="M1.00006 -0.0357166l499.031 0 0 345.022c-15.001,118.008 -109.899,220.896 -246.016,222.014 -120.008,-2.05512 -224.014,-86.243 -253.016,-221.851l0 -345.185z"/>
  <path id="path1937_0" fill="black" d="M222.614 267.231l-63.9786 0c10.9749,75.0048 -76.0303,75.0048 -76.0309,3.99997 -64.0038,5.0006 -64.0038,-71.0042 0,-69.0044 1.00063,-67.004 81.0057,-63.0037 77.2283,2.92309l62.4691 -0.0623622 0.311811 -65.1144c-65.0041,9.00057 -71.0045,-70.0039 0.000283465,-70.0042 -7.00044,-65.0041 78.0047,-65.0041 71.3753,-0.254551 66.6332,-2.74592 65.6331,78.2592 -0.371055,73.2589l0.311811 60.8641 62.4691 0.0623622c-3.77745,-65.9268 76.2276,-69.9271 77.2283,-2.92309 64.0038,-1.99984 64.0038,74.005 0,69.0044 -0.000566929,71.0048 -87.0058,71.0048 -76.0309,-3.99997l-63.9786 0c-17.0008,140.009 93.4115,183.651 162.411,195.012 -45.0029,61.0039 -123.008,105.007 -201.013,105.007 -80.6298,-1.38047 -151.437,-38.8378 -199.726,-105.056 104.319,-29.9529 169.324,-55.7039 167.324,-193.713z"/>
  <ellipse fill="#0582ED" transform="matrix(0.943486 -0.156725 0.124765 0.823035 150.451 78.5506)" rx="10.0006" ry="3.00019"/>
  <path id="path1937_1" fill="#CC9933" stroke="black" stroke-width="0.368504" d="M219.014 267.231l-63.9786 0c10.9749,75.0048 -76.0303,75.0048 -76.0309,3.99997 -64.0038,5.0006 -64.0038,-71.0042 0,-69.0044 1.00063,-67.004 81.0057,-63.0037 77.2283,2.92309l62.4691 -0.0623622 0.311811 -65.1144c-65.0041,9.00057 -71.0045,-70.0039 0.000283465,-70.0042 -7.00044,-65.0041 78.0047,-65.0041 71.3753,-0.254551 66.6332,-2.74592 65.6331,78.2592 -0.371055,73.2589l0.311811 60.8641 62.4691 0.0623622c-3.77745,-65.9268 76.2276,-69.9271 77.2283,-2.92309 64.0038,-1.99984 64.0038,74.005 0,69.0044 -0.000566929,71.0048 -87.0058,71.0048 -76.0309,-3.99997l-63.9786 0c-17.0008,140.009 96.0064,185.012 165.006,196.373 -43.7103,61.4662 -113.808,103.929 -201.008,104.646 -80.6298,-1.38047 -154.037,-39.8378 -202.325,-106.056 104.319,-29.9529 169.324,-55.7039 167.324,-193.713z"/>
  <path fill="black" d="M72.0046 69.1682c12.0606,-12.0606 33.0021,-11.0007 48.003,-5.00032l-15.001 17.0011 97.606 107.407 -118.607 -88.4058 -16.001 15.001c-4.00025,-11.0007 -8.06032,-33.9423 4.00025,-46.0029z"/>
  <path fill="#CC9933" stroke="black" stroke-width="0.368504" d="M72.0046 61.9682c12.0606,-12.0606 33.0021,-11.0007 48.003,-5.00032l-15.001 17.0011 90.0057 107.007 -111.007 -88.0056 -16.001 15.001c-4.00025,-11.0007 -8.06032,-33.9423 4.00025,-46.0029z"/>
  <line fill="none" stroke="black" stroke-width="1.41732" x1="88.0056" y1="89.97" x2="197.013" y2= "182.976" />
  <line fill="none" stroke="black" stroke-width="1.98425" x1="84.0053" y1="94.9703" x2="106.007" y2= "73.969" />
  <path fill="black" d="M442.028 67.5213c-12.0606,-12.0606 -33.0021,-11.0007 -48.003,-5.00032l15.001 17.0011 -97.606 107.407 118.607 -88.4058 16.001 15.001c4.00025,-11.0007 8.06032,-33.9423 -4.00025,-46.0029z"/>
  <path fill="#CC9933" stroke="black" stroke-width="0.368504" d="M442.028 60.3213c-12.0606,-12.0606 -33.0021,-11.0007 -48.003,-5.00032l15.001 17.0011 -90.0057 107.007 111.007 -88.0056 16.001 15.001c4.00025,-11.0007 8.06032,-33.9423 -4.00025,-46.0029z"/>
  <line fill="none" stroke="black" stroke-width="1.41732" x1="426.027" y1="88.3231" x2="317.02" y2= "181.329" />
  <line fill="none" stroke="black" stroke-width="1.98425" x1="430.027" y1="93.3234" x2="408.026" y2= "72.3221" />
  <ellipse fill="#0582ED" transform="matrix(0.943486 0.156725 0.124765 -0.823035 150.513 402.826)" rx="10.0006" ry="3.00019"/>
  <path fill="black" d="M78.2666 420.009c12.0606,12.0606 33.0021,11.0007 48.003,5.00032l-15.001 -17.0011 83.8058 -107.607 -104.807 88.6054 -16.001 -15.001c-4.00025,11.0007 -8.06032,33.9423 4.00025,46.0029z"/>
  <path fill="#CC9933" stroke="black" stroke-width="0.368504" d="M72.0667 419.409c12.0606,12.0606 33.0021,11.0007 48.003,5.00032l-15.001 -17.0011 90.0057 -107.007 -111.007 88.0056 -16.001 -15.001c-4.00025,11.0007 -8.06032,33.9423 4.00025,46.0029z"/>
  <line fill="none" stroke="black" stroke-width="1.41732" x1="102.006" y1="402.99" x2="196.012" y2= "299.983" />
  <line fill="none" stroke="black" stroke-width="1.98425" x1="84.0674" y1="386.407" x2="106.069" y2= "407.408" />
  <ellipse fill="#0582ED" transform="matrix(-0.943486 0.156725 -0.124765 -0.823035 359.559 400.826)" rx="10.0006" ry="3.00019"/>
  <path fill="black" d="M431.805 418.008c-12.0606,12.0606 -33.0021,11.0007 -48.003,5.00032l15.001 -17.0011 -82.7436 -108.024 103.745 89.0232 16.001 -15.001c4.00025,11.0007 8.06032,33.9423 -4.00025,46.0029z"/>
  <path fill="#CC9933" stroke="black" stroke-width="0.368504" d="M438.005 417.409c-12.0606,12.0606 -33.0021,11.0007 -48.003,5.00032l15.001 -17.0011 -90.0057 -107.007 111.007 88.0056 16.001 -15.001c4.00025,11.0007 8.06032,33.9423 -4.00025,46.0029z"/>
  <line fill="none" stroke="black" stroke-width="1.41732" x1="407.026" y1="400.99" x2="314.06" y2= "297.983" />
  <line fill="none" stroke="black" stroke-width="1.98425" x1="426.005" y1="384.406" x2="404.003" y2= "405.408" />
 </g>
</svg>
