<?xml version="1.0" encoding="UTF-8"?>
<!DOCTYPE svg PUBLIC "-//W3C//DTD SVG 1.1//EN" "http://www.w3.org/Graphics/SVG/1.1/DTD/svg11.dtd">
<!-- Creator: CorelDRAW -->
<svg xmlns="http://www.w3.org/2000/svg" xml:space="preserve" width="500px" height="577px" shape-rendering="geometricPrecision" text-rendering="geometricPrecision" image-rendering="optimizeQuality" fill-rule="evenodd" clip-rule="evenodd"
viewBox="0 0 500 577"
 xmlns:xlink="http://www.w3.org/1999/xlink"
 xmlns:svg="http://www.w3.org/2000/svg"
 version="1.0">
 <defs>
   <linearGradient id="id0" gradientUnits="userSpaceOnUse" x1="59.4916" y1="272.188" x2="-87.6104" y2="165.205">
    <stop offset="0" stop-color="#8F773B"/>
    <stop offset="0.0901961" stop-color="#A78B45"/>
    <stop offset="1" stop-color="#BF9F4F"/>
   </linearGradient>
   <linearGradient id="id1" gradientUnits="userSpaceOnUse" x1="219.188" y1="171.113" x2="215.82" y2="200.592">
    <stop offset="0" stop-color="#8F773B"/>
    <stop offset="0.8" stop-color="#A78B45"/>
    <stop offset="1" stop-color="#BF9F4F"/>
   </linearGradient>
   <linearGradient id="id2" gradientUnits="userSpaceOnUse" x1="59.277" y1="34.5362" x2="-87.3961" y2="141.234">
    <stop offset="0" stop-color="#8F773B"/>
    <stop offset="0.0901961" stop-color="#A78B45"/>
    <stop offset="1" stop-color="#BF9F4F"/>
   </linearGradient>
   <linearGradient id="id3" gradientUnits="userSpaceOnUse" x1="285.353" y1="375.283" x2="279.051" y2="343.776">
    <stop offset="0" stop-color="#8F773B"/>
    <stop offset="1" stop-color="#BF9F4F"/>
   </linearGradient>
   <linearGradient id="id4" gradientUnits="userSpaceOnUse" x1="302.568" y1="514.446" x2="316.177" y2="507.86">
    <stop offset="0" stop-color="#8F773B"/>
    <stop offset="1" stop-color="#BF9F4F"/>
   </linearGradient>
   <radialGradient id="id5" gradientUnits="userSpaceOnUse" cx="237.195" cy="472.131" r="8.83418" fx="237.195" fy="472.131">
    <stop offset="0" stop-color="#BF9F4F"/>
    <stop offset="1" stop-color="#8F773B"/>
   </radialGradient>
   <linearGradient id="id6" gradientUnits="userSpaceOnUse" x1="397.238" y1="443.033" x2="393.65" y2="447.877">
    <stop offset="0" stop-color="#8F773B"/>
    <stop offset="1" stop-color="#BF9F4F"/>
   </linearGradient>
   <linearGradient id="id7" gradientUnits="userSpaceOnUse" x1="248.32" y1="274.988" x2="101.64" y2="168.312">
    <stop offset="0" stop-color="#8F773B"/>
    <stop offset="0.0901961" stop-color="#A78B45"/>
    <stop offset="1" stop-color="#BF9F4F"/>
   </linearGradient>
   <linearGradient id="id8" gradientUnits="userSpaceOnUse" x1="296.319" y1="427.595" x2="293.967" y2="415.831">
    <stop offset="0" stop-color="#8F773B"/>
    <stop offset="1" stop-color="#BF9F4F"/>
   </linearGradient>
   <linearGradient id="id9" gradientUnits="userSpaceOnUse" x1="339.7" y1="271.435" x2="193.247" y2="164.924">
    <stop offset="0" stop-color="#8F773B"/>
    <stop offset="0.0901961" stop-color="#A78B45"/>
    <stop offset="1" stop-color="#BF9F4F"/>
   </linearGradient>
   <linearGradient id="id10" gradientUnits="userSpaceOnUse" x1="402.562" y1="276.511" x2="253.429" y2="168.051">
    <stop offset="0" stop-color="#8F773B"/>
    <stop offset="0.0901961" stop-color="#A78B45"/>
    <stop offset="1" stop-color="#BF9F4F"/>
   </linearGradient>
   <linearGradient id="id11" gradientUnits="userSpaceOnUse" x1="359.726" y1="32.4394" x2="214.008" y2="138.442">
    <stop offset="0" stop-color="#8F773B"/>
    <stop offset="0.0901961" stop-color="#A78B45"/>
    <stop offset="1" stop-color="#BF9F4F"/>
   </linearGradient>
   <linearGradient id="id12" gradientUnits="userSpaceOnUse" x1="70.9501" y1="340.091" x2="-74.4957" y2="234.312">
    <stop offset="0" stop-color="#8F773B"/>
    <stop offset="0.0901961" stop-color="#A78B45"/>
    <stop offset="1" stop-color="#BF9F4F"/>
   </linearGradient>
   <linearGradient id="id13" gradientUnits="userSpaceOnUse" x1="207.276" y1="175.977" x2="74.5864" y2="54.7277">
    <stop offset="0" stop-color="#8F773B"/>
    <stop offset="0.0901961" stop-color="#A78B45"/>
    <stop offset="1" stop-color="#BF9F4F"/>
   </linearGradient>
   <linearGradient id="id14" gradientUnits="userSpaceOnUse" x1="71.591" y1="-25.935" x2="-73.2436" y2="79.4254">
    <stop offset="0" stop-color="#8F773B"/>
    <stop offset="0.0901961" stop-color="#A78B45"/>
    <stop offset="1" stop-color="#BF9F4F"/>
   </linearGradient>
   <linearGradient id="id15" gradientUnits="userSpaceOnUse" x1="208.17" y1="138.009" x2="75.585" y2="259.181">
    <stop offset="0" stop-color="#8F773B"/>
    <stop offset="0.0901961" stop-color="#A78B45"/>
    <stop offset="1" stop-color="#BF9F4F"/>
   </linearGradient>
   <linearGradient id="id16" gradientUnits="userSpaceOnUse" x1="330.114" y1="251.241" x2="184.535" y2="145.365">
    <stop offset="0" stop-color="#8F773B"/>
    <stop offset="0.0901961" stop-color="#A78B45"/>
    <stop offset="1" stop-color="#BF9F4F"/>
   </linearGradient>
   <linearGradient id="id17" gradientUnits="userSpaceOnUse" x1="311.814" y1="182.172" x2="162.049" y2="73.2518">
    <stop offset="0" stop-color="#8F773B"/>
    <stop offset="0.0901961" stop-color="#A78B45"/>
    <stop offset="1" stop-color="#BF9F4F"/>
   </linearGradient>
   <linearGradient id="id18" gradientUnits="userSpaceOnUse" x1="292.346" y1="161.401" x2="144.648" y2="268.844">
    <stop offset="0" stop-color="#8F773B"/>
    <stop offset="0.0901961" stop-color="#A78B45"/>
    <stop offset="1" stop-color="#BF9F4F"/>
   </linearGradient>
 </defs>
 <g id="Layer_x0020_1">
  <metadata id="CorelCorpID_0Corel-Layer"/>
  <path id="path1937" fill="black" stroke="black" stroke-width="1.98425" d="M0.823182 1.97632l498.224 -0.072567 0.0660473 354.46c-35.9782,279.863 -462.326,297.105 -498.24,-0.397418l-0.0504567 -353.99z"/>
  <ellipse fill="#E5E5E5" stroke="#E5E5E5" stroke-width="1.98425" cx="436.004" cy="149.93" rx="44.411" ry="48.6082"/>
  <ellipse fill="#BF9F4F" stroke="#BF9F4F" stroke-width="1.98425" cx="439.604" cy="153.53" rx="44.411" ry="48.6082"/>
  <path id="path1937_0" fill="#E5E5E5" stroke="#E5E5E5" stroke-width="0.368504" d="M286.285 147.874c6.27534,-3.25417 5.41899,-8.01723 4.65988,-21.5892 -0.88356,-15.7955 -0.528945,-27.3986 14.5131,-33.6186 2.3417,-0.040252 2.18438,-4.23156 3.5195,-2.58321 4.00791,4.94759 3.8075,18.6228 6.31361,35.1182 1.29827,8.54561 3.35367,31.8742 2.0075,39.7386 -4.65676,27.2067 -25.1002,43.9878 -48.8041,61.1187 0.99326,30.4623 5.83144,55.5517 7.9577,79.5657 5.62366,24.2209 14.9927,44.5303 20.4783,67.1165 3.62636,14.9307 9.54539,29.1016 17.6471,43.3315 42.1135,-2.08262 69.9194,5.93603 83.416,24.0562 24.0534,-1.61376 54.7152,-4.17629 74.9812,0.523276 -25.8412,48.8146 -74.9974,81.9244 -122.638,102.518 -28.2331,-15.9676 -59.4788,-20.4837 -72.1352,-26.1082 -15.4726,-6.87629 -20.1583,-13.3427 -36.2965,-22.4518 -12.9719,-7.32133 -30.8719,-5.01647 -35.2755,-16.6714 -3.43984,-9.1046 -11.9577,-100.875 -11.9571,-117.574 0.00113386,-31.1803 5.83937,-69.6201 5.15084,-99.4635 -0.290268,-12.6006 -3.88885,-19.5188 -4.55613,-30.4234 -8.27462,-6.36152 -21.5702,-29.0231 -29.634,-61.814l94.0275 -0.53915c6.4114,-8.54873 16.0058,-11.7006 26.6247,-20.2502z"/>
  <ellipse fill="#CCCCCC" stroke="#CCCCCC" stroke-width="1.98425" cx="439.289" cy="152.961" rx="27.051" ry="29.6075"/>
  <path fill="black" stroke="black" stroke-width="1.98425" d="M439.478 123.354c14.5193,0 25.6632,12.2564 25.6632,28.1478 0,15.8913 -13.0368,27.5171 -27.5562,27.5171 -14.5193,0 -25.3474,-10.9947 -25.3474,-26.8861 0,-15.8913 12.721,-28.7788 27.2404,-28.7788z"/>
  <path fill="#E5E5E5" stroke="#E5E5E5" stroke-width="1.98425" d="M427.417 135.588c20.4069,12.8911 18.5139,23.362 -0.946489,32.6789l-291.243 -0.508536c-53.8906,21.3781 0.316063,78.6915 2.52879,66.1646l5.02385 -28.0709c14.3518,25.8749 26.5986,51.7493 34.2139,77.6237 -26.695,1.32378 -58.9363,2.05058 -87.3148,-11.7816l25.3854 -10.1412c-71.1397,-50.0925 -46.304,-83.9158 -84.61,-107.489 38.8636,-23.5735 28.9656,-62.3038 89.6571,-112.397l-22.8555 -7.62407c26.6814,-8.13544 52.6306,-14.1653 80.9964,-15.5659 -7.61528,25.8744 -23.6463,53.0201 -37.9982,78.895l-2.49817 -31.8594c-2.21273,-12.5269 -52.3154,47.3114 1.57521,68.6895l288.085 1.38529z"/>
  <path fill="#E5E5E5" stroke="#E5E5E5" stroke-width="0.368504" d="M265.014 104.618c1.68265,-8.72873 17.1142,-11.7785 22.5828,-6.94092 6.95084,7.38992 5.38186,49.1704 0.664725,52.7712 -12.7664,11.1662 -17.7304,10.2209 -18.8306,8.75056 -6.03978,-9.21686 0.0912756,-44.4008 -4.41695,-54.5808z"/>
  <path fill="#BF9F4F" d="M430.071 138.369c17.2165,10.6835 17.2165,23.0482 0,37.0976l-291.243 -0.508536c-53.8906,21.3781 0.316063,78.6915 2.52879,66.1646l5.02385 -28.0709c15.1404,24.2975 27.4921,49.9609 34.2139,77.6237 -26.695,1.32378 -53.8764,-1.73367 -82.2549,-15.5659l24.1141 -8.88265c-66.0884,-50.0925 -48.8296,-85.1786 -87.1356,-108.752 38.306,-23.5729 21.0473,-59.7742 87.1356,-109.867l-24.1141 -8.88265c26.6814,-8.13544 53.8892,-14.1653 82.2549,-15.5659 -7.61528,25.8744 -19.8621,51.7488 -34.2139,77.6237l-5.02385 -28.0709c-2.21273,-12.5269 -56.4194,44.7866 -2.52879,66.1646l291.243 -0.508536z"/>
  <path fill="#635329" stroke="#66552A" stroke-width="1.98425" d="M356.941 57.7639c7.20255,-1.6835 8.84892,-1.47317 17.2865,1.26255 4.51843,15.7972 8.31657,37.9069 9.54312,53.7044l-0.176032 88.3304c-1.27021,20.2014 -3.1578,41.0344 -8.13232,56.1858 -6.58545,2.73543 -13.1709,2.31449 -19.7561,0.631276 -4.54281,-17.5714 -5.89437,-37.1415 -7.14303,-58.0791l0.427465 -85.849c1.20869,-16.204 2.00608,-39.983 7.95033,-56.1864z"/>
  <path fill="url(#id0)" d="M172.547 173.637l-0.20126 -4.3064 -38.5926 0.14315c-14.7217,2.09934 -26.0379,25.8208 -19.2708,39.7769 -3.72274,-15.7621 7.49537,-29.7811 24.5948,-35.6635l33.4698 0.0498898z"/>
  <path fill="#E5E5E5" stroke="#E5E5E5" stroke-width="0.368504" d="M228.101 108.088c1.68265,-8.72873 28.9205,-15.5645 34.3891,-10.7269 5.37336,6.75893 4.40164,65.1773 1.26198,69.0937 -6.05566,4.74208 -8.47843,13.6239 -14.6098,14.3759 -3.09345,0.379276 -11.7349,-3.29329 -13.4694,-8.69698 -7.09597,-9.21657 -1.17326,-49.7639 -7.57191,-64.0457z"/>
  <path fill="#E5E5E5" stroke="#E5E5E5" stroke-width="1.98425" d="M350.113 54.3481c7.3647,-1.6835 6.52677,-2.73175 15.1543,0.00396851 4.62019,15.7972 7.24111,35.3812 8.49515,51.1787l-0.18 88.3304c-1.29884,20.2014 -3.22895,41.0344 -8.31544,56.1858 -6.7337,2.73543 -10.9417,2.31449 -17.6752,0.631276 -4.64485,-17.5714 -6.02703,-35.8787 -7.30375,-56.8162l0.432851 -84.5904c1.23591,-16.204 3.31399,-38.7201 9.39204,-54.9236z"/>
  <path fill="none" stroke="#66552A" stroke-width="1.98425" d="M116.456 215.57c-13.7625,-20.6082 4.32142,-47.0461 18.6554,-47.1325l37.8559 -0.228473"/>
  <path id="path1937_1" fill="#BF9F4F" d="M289.885 155.074c6.27534,-3.25417 6.84199,-13.373 7.18385,-24.4287 -2.64756,-13.8943 -4.49972,-30.7605 10.4117,-34.5651 2.3417,-0.040252 3.44551,-3.91635 4.46599,-2.58321 3.87014,5.05729 4.43821,22.4087 6.9446,38.9041 1.29827,8.54589 3.35367,31.8742 2.0075,39.7386 -4.65676,27.2067 -25.1002,43.9878 -48.8041,61.1187 0.99326,30.4623 5.83144,55.5517 7.9577,79.5657 5.62366,24.2209 14.9927,44.5303 20.4783,67.1165 3.62636,14.9307 9.54539,29.1016 17.6471,43.3315 42.1135,-2.08262 69.9194,5.93603 83.416,24.0562 24.0534,-1.61376 48.1076,-5.12022 68.3737,-0.420662 -26.7851,48.1853 -68.3898,82.8684 -116.031,103.462 -28.2331,-15.9676 -59.4788,-20.4837 -72.1352,-26.1082 -15.4726,-6.87629 -20.1583,-13.3427 -36.2965,-22.4518 -12.9719,-7.32133 -28.3459,-10.0675 -32.7498,-21.7228 -3.44013,-9.10489 -11.958,-95.8233 -11.9571,-112.523 0.00170079,-31.1806 4.57654,-65.8316 3.888,-95.675 -0.290268,-12.6006 -5.15169,-23.3073 -5.81896,-34.2119 -8.27462,-6.36152 -21.5702,-29.0231 -29.634,-61.814l94.0275 -0.53915c6.4114,-8.54873 16.0058,-11.7006 26.6247,-20.2502z"/>
  <path fill="url(#id1)" d="M169.548 173.971l95.9109 1.26198c-6.73059,8.2029 -15.9851,21.7692 -24.9242,22.4002 -5.46917,-0.0428032 5.2903,-11.0945 -0.388063,-11.1359 -5.6778,-0.0413858 -29.6926,11.2374 -35.5822,11.1949 -6.20363,-0.440504 -10.5143,-3.40469 -15.1401,-6.99988 -6.52026,-1.26198 -17.4575,-8.5184 -19.8763,-16.7213z"/>
  <path fill="#E5E5E5" stroke="#E5E5E5" stroke-width="0.368504" d="M194.343 115.345c1.68265,-8.72873 26.712,-15.249 32.1806,-10.4114 5.37336,6.75893 6.29462,68.3323 3.78595,72.2486 -6.35868,7.69635 -17.644,12.613 -25.5552,0.630992 -8.15216,-10.2719 0.0861733,-47.2419 -10.4114,-62.4683z"/>
  <path fill="#BF9F4F" stroke="black" stroke-width="0.368504" d="M196.997 120.021c1.68265,-8.72873 26.712,-15.249 32.1806,-10.4114 5.37336,6.75893 6.29462,68.3323 3.78595,72.2486 -6.35868,7.69635 -17.644,12.613 -25.5552,0.630992 -9.83141,-12.6136 4.29789,-46.6957 -10.4114,-62.4683z"/>
  <path fill="#BF9F4F" stroke="#BF9F4F" stroke-width="1.98425" d="M353.529 57.7639c7.3647,-1.6835 9.04819,-1.47317 17.6757,1.26255 4.62019,15.7972 8.50394,37.9069 9.75799,53.7044l-0.18 88.3304c-1.29884,20.2014 -3.22895,41.0344 -8.31544,56.1858 -6.7337,2.73543 -13.4674,2.31449 -20.2008,0.631276 -4.64485,-17.5714 -6.02703,-37.1415 -7.30375,-58.0791l-0.821481 -87.1076c1.23591,-16.204 3.30973,-38.7244 9.38778,-54.9278z"/>
  <path fill="#E5E5E5" stroke="#E5E5E5" stroke-width="0.368504" d="M163.424 132.382c1.68265,-8.72873 24.188,-21.2434 29.6566,-16.4058 8.22643,5.12901 8.06967,61.5493 5.36344,62.7837 -5.99046,5.48731 -13.6998,7.24904 -22.0847,-1.89298 -0.58904,-8.72278 -5.91024,-21.2312 -7.44548,-35.3172 0.0416693,-2.29947 -2.15943,-7.71789 -5.48986,-9.16782z"/>
  <path fill="#BF9F4F" stroke="black" stroke-width="0.368504" d="M166.078 137.058c1.68265,-8.72873 24.188,-21.2434 29.6566,-16.4058 8.22643,5.12901 8.06967,61.5493 5.36344,62.7837 -5.99046,5.48731 -17.1703,7.56454 -25.5552,-1.57748 -4.37499,-5.56781 -2.43978,-21.5467 -3.97503,-35.6326 0.0416693,-2.29947 -2.15943,-7.71789 -5.48986,-9.16782z"/>
  <path fill="#BF9F4F" stroke="black" stroke-width="0.368504" d="M230.755 112.765c1.68265,-8.72873 28.9205,-15.5645 34.3891,-10.7269 5.37336,6.75893 4.40164,65.1773 1.26198,69.0937 -6.05566,4.74208 -8.47843,13.6239 -14.6098,14.3759 -3.09345,0.379276 -11.7349,-3.29329 -13.4694,-8.69698 -8.31544,-11.4667 4.94759,-47.6822 -7.57191,-64.0457z"/>
  <path fill="#BF9F4F" stroke="black" stroke-width="0.368504" d="M267.668 109.294c1.68265,-8.72873 17.1142,-11.7785 22.5828,-6.94092 6.95084,7.38992 5.38186,49.1704 0.664725,52.7712 -12.7664,11.1662 -17.7304,10.2209 -18.8306,8.75056 -6.03978,-9.21686 0.0912756,-44.4008 -4.41695,-54.5808z"/>
  <path fill="none" stroke="#66552A" stroke-width="1.41732" d="M182.484 187.222c-2.13477,-9.34356 -2.86866,-17.4725 -0.235843,-22.5199 5.02668,-9.63695 18.2665,-8.25194 19.7966,11.793"/>
  <path fill="none" stroke="#66552A" stroke-width="1.41732" d="M211.353 186.116c0.660756,-8.16038 -2.4361,-15.6679 -0.115087,-20.0585 7.1161,-13.4615 24.863,-10.6554 21.8869,13.428"/>
  <path fill="none" stroke="#66552A" stroke-width="1.41732" d="M243.69 182.174c0.169795,-9.69109 -1.52873,-17.3557 1.51965,-22.1752 6.54378,-10.3453 20.3482,-8.33641 21.3551,10.0247"/>
  <path fill="none" stroke="#66552A" stroke-width="0.992126" d="M185.639 142.737c5.25827,-0.736158 9.88526,-3.99742 15.7748,-2.20847"/>
  <path fill="none" stroke="#66552A" stroke-width="0.368504" d="M221.605 138.004c2.94435,-2.41937 6.73002,-3.15553 11.3579,-2.20847"/>
  <path fill="none" stroke="#66552A" stroke-width="0.992126" d="M248.738 135.796c4.4161,-1.99814 12.6198,-5.25884 18.9298,-5.99443"/>
  <path fill="url(#id2)" d="M116.716 99.5636c0.737292,-10.6177 12.4529,-28.0293 24.2674,-29.9965l-2.9914 -5.40851c-10.5381,4.77468 -27.3399,28.906 -21.276,35.405z"/>
  <path fill="none" stroke="#66552A" stroke-width="0.992126" d="M249.369 142.106c6.41509,-3.47103 12.8302,-5.04822 19.2453,-6.62542"/>
  <path fill="url(#id3)" d="M263.891 300.176l36.6222 118.707 -13.8892 -16.4078c-7.36753,-22.3112 -13.4722,-47.1549 -22.733,-102.299z"/>
  <path fill="url(#id4)" d="M358.604 532.538c-32.4128,-9.26079 -55.9857,-22.6159 -82.0843,-40.7166 -11.3261,-2.89417 -16.3775,2.57783 -15.154,16.4169 21.0251,3.87269 26.9405,25.1416 97.2383,24.2997z"/>
  <path fill="url(#id5)" d="M250.042 459.636c-4.81153,-0.949607 -4.8549,10.2453 -10.6957,13.595 -6.62003,3.79616 -16.7754,1.02302 -17.7542,4.04646 -0.756,2.25525 16.9957,11.2864 24.9472,5.97203 7.01604,-4.68879 4.37613,-23.6903 3.50277,-23.6135z"/>
  <line fill="none" stroke="#9C8241" stroke-width="1.98425" x1="324.773" y1="452.238" x2="343.702" y2= "465.174" />
  <path fill="none" stroke="#A18643" stroke-width="1.98425" d="M366.418 457.917c12.8186,0.0116221 23.5451,2.11493 32.1806,6.30992"/>
  <path fill="none" stroke="#998040" stroke-width="2.83465" d="M370.204 469.591c66.2542,14.9335 -1.26198,7.15125 -1.89298,10.7269"/>
  <path fill="url(#id6)" d="M388.187 435.202c5.25827,3.15496 10.0959,7.99257 14.5128,12.6198l-12.6198 7.88741 -1.89298 -20.5073z"/>
  <path fill="url(#id7)" d="M318.352 136.9c0.462898,3.53509 -0.121606,37.3377 -5.62451,41.228 -23.9324,20.0696 -21.1334,27.8181 -43.1445,42.0959l-6.35585 20.6201c15.4712,-14.8082 50.3825,-35.907 53.8294,-56.831 5.13298,-5.81074 4.90139,-38.4217 1.29543,-47.113z"/>
  <path fill="none" stroke="#66552A" stroke-width="1.41732" d="M182.799 186.275c-1.63247,-8.39197 -2.33972,-15.7255 0.420662,-20.5727 5.44196,-9.5556 16.973,-9.42152 18.8246,10.1614"/>
  <path fill="none" stroke="#66552A" stroke-width="1.41732" d="M211.353 186.119c0.470835,-8.95323 -1.36261,-16.8012 1.75635,-20.8301 9.43767,-12.1913 23.0278,-7.58523 20.0129,14.3535"/>
  <path fill="none" stroke="#66552A" stroke-width="1.41732" d="M243.375 182.805c0.809575,-12.507 -1.51172,-20.7839 1.54687,-24.7915 7.06054,-9.2503 21.0016,-3.80608 21.6434,12.005"/>
  <path fill="none" stroke="#66552A" stroke-width="1.41732" d="M274.924 163.559c-1.3612,-6.68098 -0.620788,-10.7362 1.88958,-12.8976 5.43657,-4.68114 14.3484,-2.70851 14.5162,3.11726"/>
  <path fill="none" stroke="#66552A" stroke-width="0.992126" d="M308.998 96.3587c2.83862,12.568 1.68151,23.9258 7.88741,25.5552"/>
  <path fill="none" stroke="#66552A" stroke-width="0.992126" d="M309.313 95.7277c1.33795,13.0677 0.339024,24.8987 7.57191,26.1862"/>
  <path fill="none" stroke="#66552A" stroke-width="1.98425" d="M304.265 139.582c3.46479,-2.42447 7.35222,-4.42545 14.1973,-3.47046"/>
  <path fill="none" stroke="#66552A" stroke-width="1.98425" d="M244.321 198.264c12.6445,-18.614 26.6105,-33.5072 46.0624,-42.2924 4.7537,-2.14668 3.89112,-11.5574 4.73244,-16.7054"/>
  <path fill="none" stroke="#66552A" stroke-width="1.41732" d="M275.24 163.559c0.00453544,-5.51764 -0.894615,-9.12615 1.54602,-11.7513 5.1086,-5.49496 14.1749,-4.06177 14.5443,2.28643"/>
  <path fill="url(#id8)" d="M286.617 408.124l16.4214 17.0711 0.630142 10.1058c-1.68605,-4.00422 -10.9471,-16.2224 -17.0515,-27.1769z"/>
  <path fill="none" stroke="#66552A" stroke-width="1.98425" d="M115.283 106.139c-3.73635,-15.9324 6.4647,-30.0243 22.0847,-42.592"/>
  <path fill="url(#id9)" d="M421.203 176.337l-21.3211 0.0328819c0.930898,3.71849 3.75506,7.12148 6.5795,10.5245 6.95481,-5.56583 1.44142,-3.25758 14.7416,-10.5574z"/>
  <path fill="url(#id10)" d="M482.725 146.049c-3.63657,32.7178 -14.5293,26.3135 -21.9518,39.4699 -0.0490394,5.16331 -2.46983,9.53207 -9.94508,13.6049 -0.484725,4.12668 39.481,-15.7005 31.8969,-53.0748z"/>
  <path fill="url(#id11)" d="M440.65 120.654c-7.10731,-0.11537 -18.3952,4.89629 -23.8184,11.302 -6.29915,-6.24274 1.86236,-13.1071 6.5795,-16.1946 7.5858,-3.26835 13.0881,-1.46069 17.2389,4.8926z"/>
  <path fill="url(#id12)" d="M178.326 287.958c-3.26835,-20.9772 -21.9572,-57.4691 -31.409,-71.6273l-3.01947 15.84c14.1732,-2.67846 11.6178,34.3755 34.4285,55.7873z"/>
  <path fill="url(#id13)" d="M178.749 289.567c-36.3708,1.61008 -62.6692,-7.25585 -77.5086,-14.3521l9.1046 -3.4543c9.39232,11.6334 43.791,12.2924 68.404,17.8064z"/>
  <path fill="url(#id14)" d="M178.326 24.7272c-4.30214,21.8291 -23.756,58.4207 -31.7248,72.8893l-2.38791 -13.9467c14.173,2.67846 17.6117,-39.1082 34.1127,-58.9425z"/>
  <path fill="url(#id15)" d="M180.011 24.3799c-35.3001,0.596693 -60.1538,8.74942 -77.1931,14.3524l8.47361 3.4543c9.39232,-11.6334 44.1065,-12.2927 68.7195,-17.8067z"/>
  <path fill="url(#id16)" d="M428.775 174.128c-20.2385,-5.57717 -36.2804,-15.3505 -43.09,-34.3562l-0.0462047 34.1867 43.1362 0.169512z"/>
  <path fill="url(#id17)" d="M377.449 190.022c-4.90139,-21.6023 11.0305,-132.303 -15.3139,-130.942 0.195024,9.29169 8.59635,21.1085 10.6852,31.6624l4.6287 99.2793z"/>
  <path fill="url(#id18)" d="M371.964 257.597c-7.08095,0.961796 -13.8198,0.898016 -20.0591,-0.663874 0.930898,-3.71849 19.8456,-3.33496 22.9856,-13.6789 -0.617386,7.14331 -0.767339,7.35846 -2.92649,14.3427z"/>
 </g>
</svg>
