<?xml version="1.0" encoding="UTF-8"?>
<!DOCTYPE svg PUBLIC "-//W3C//DTD SVG 1.1//EN" "http://www.w3.org/Graphics/SVG/1.1/DTD/svg11.dtd">
<!-- Creator: CorelDRAW -->
<svg xmlns="http://www.w3.org/2000/svg" xml:space="preserve" width="500px" height="594px" shape-rendering="geometricPrecision" text-rendering="geometricPrecision" image-rendering="optimizeQuality" fill-rule="evenodd" clip-rule="evenodd"
viewBox="0 0 500 594"
 xmlns:xlink="http://www.w3.org/1999/xlink"
 xmlns:svg="http://www.w3.org/2000/svg"
 version="1.0">
 <g id="Layer_x0020_1">
  <metadata id="CorelCorpID_0Corel-Layer"/>
  <path id="path1937" fill="#BF9F4F" stroke="black" stroke-width="0.216" d="M0.992126 0.566929l499.298 -0.040252 -14.5327 353.047c-11.8687,318.441 -454.756,321.515 -470.241,0.37474l-14.5242 -353.382z"/>
  <path fill="#F00000" d="M166.473 153.497c3.39562,-7.08492 9.9618,-13.951 20.3545,-19.2858 2.68923,-10.5766 13.9059,-15.2496 19.8751,-19.9225 -48.4268,-51.937 -5.15962,-111.132 43.9574,-110.825 49.1171,0.306992 85.169,65.2848 40.0218,109.57 11.8454,7.17081 21.3129,15.7493 27.9114,23.3575 8.90873,3.7338 17.4898,12.7154 19.1838,23.3374 3.25134,-3.21988 6.65093,-5.5698 12.6252,-8.57339 3.06114,-1.53865 3.63118,-4.13433 6.74901,-6.73937 5.19648,-4.34211 14.1245,-7.66092 17.9615,-14.7192 3.33921,-6.1424 7.89846,-1.67017 7.54696,-11.2759l-18.506 0.895182 -1.70873 -2.61865 -3.03477 -0.341292 -0.641197 -22.3795 2.05058 -0.593008 -1.13386 -33.4902 -2.09821 -1.12224 0.0266457 -25.2145 25.2768 -0.557292 1.48932 1.16787 19.3516 -0.227906 0.648284 -1.34901 24.4247 -0.172913c3.78936,0.228189 5.28322,9.7492 -0.43767,9.86769l0.216851 9.72199c6.29717,-0.0887245 5.38526,9.32514 -0.113953,9.56382l0.0303307 10.2334c5.27896,-0.0589607 5.47909,8.23805 0.108567,8.67034l0.180567 10.3643c6.04999,0.0291969 6.0378,9.23358 0.455244,9.42662l0.0277795 7.99994c6.38277,-0.579402 5.39263,8.8356 0.470268,9.07541l-16.4118 0.24378c-2.16737,7.31594 -14.1735,10.3686 -21.2601,18.0128 2.32073,4.40788 -3.35027,9.11566 -9.32854,18.0479 -8.73752,13.0555 -22.0519,32.112 -36.3498,45.4601 10.0919,136.417 38.878,128.201 7.64589,150.485 4.83704,38.3777 -7.24678,33.5622 -19.6152,44.9226 -8.16067,7.49566 -12.1085,15.1654 -23.6109,19.3453l-0.0850394 35.9456c5.36344,0.0354331 6.85786,3.79389 10.868,8.7446 4.20945,5.19619 21.4691,6.27676 -13.9915,33.4043 -1.21011,0.174047 5.40511,9.25229 4.7812,11.7998 -1.33087,5.43317 -18.1704,-0.411024 -22.0385,-3.26665 -7.59515,0.880441 -16.0237,5.62337 -23.599,-2.65323 -9.74297,3.10394 -18.4204,3.72076 -25.539,0.702992l-2.70454 0.32315c-3.98778,2.04265 -8.68593,3.37521 -14.4224,3.66917 -10.8162,6.66312 -22.7245,9.07512 -25.344,5.55619 -1.19027,-1.59931 1.87937,-5.72627 3.72728,-8.94926 -26.591,-7.35222 -33.0869,-23.074 -20.3675,-29.7448 8.93821,-4.68766 1.31386,-20.2584 17.1726,-24.6648l-1.07603 -33.5072c-11.4982,-4.34807 -8.77153,-10.2841 -16.4679,-16.2428 -22.0263,-17.053 -36.1012,-9.78237 -30.0149,-55.9245 -27.025,-21.6289 3.34488,-17.0204 5.50942,-146.551 -10.5248,-10.6546 -19.0661,-23.3238 -26.7103,-34.4645 -4.94476,-7.20652 -11.8468,-12.2732 -12.3055,-14.6478l-3.59065 0.268158 16.8585 281.41c-2.56025,3.80948 -7.52344,4.77922 -14.8901,2.9092l-22.0439 -288.28c-7.36895,-1.39351 -5.55506,-7.37859 -4.06914,-8.11588 -2.84712,-0.771307 -2.36976,-7.54215 -0.800504,-7.93446 -4.1057,-1.34476 -0.70526,-6.55144 1.39068,-5.47569 -4.50992,-1.72347 -2.13251,-7.0543 1.88447,-7.13764l-0.856914 -13.5726 -23.402 0.876189c-11.8658,12.9147 -23.5032,-1.80879 -23.6676,-8.35994 -0.333921,-13.2874 14.0258,-16.7655 20.6901,-9.26249l24.8825 -2.11748 -1.90885 -37.7986c-11.5169,-9.8161 -4.80926,-26.7381 9.84841,-26.396 10.9355,0.255118 20.0395,14.6186 10.1356,24.4993l2.55742 36.8552 26.1496 -0.748347c3.9634,-8.48637 21.8177,-6.07408 21.8115,8.36278 -0.00708662,16.416 -15.1124,14.963 -19.6759,9.59216l-26.4271 2.35644 0.404221 9.33563c15.4627,7.65893 6.65575,12.3661 13.263,23.3051 2.05455,-0.420095 4.43707,3.09543 5.50772,2.34765 7.47015,-2.76491 15.9242,17.4283 34.2173,23.1908z"/>
  <path fill="#FFC8C8" d="M270.356 106.899c-20.1155,30.7199 -19.8967,24.7071 -38.3723,1.96781l-3.60766 -48.8673 5.78693 -9.78435 16.1745 -7.65496 4.932 4.97651 14.9009 6.85021 1.25065 31.1902 -2.49194 10.1653 1.42696 11.1566z"/>
  <path fill="#FFC8C8" d="M290.682 113.033c11.8454,7.17081 21.3129,15.7493 27.9114,23.3575 8.90873,3.7338 17.4898,12.7154 19.1838,23.3374 3.25134,-3.21988 6.65093,-5.5698 12.6252,-8.57339 3.06114,-1.53865 3.63118,-4.13433 6.74901,-6.73937 5.19648,-4.34211 14.1245,-7.66092 17.9615,-14.7192 3.33921,-6.1424 7.89846,-1.67017 7.54696,-11.2759 3.44438,-0.672378 6.56079,-2.32866 10.3331,-2.01713 -1.38387,-5.56385 -5.39122,-7.62917 -12.0217,-6.1954 -5.47399,-0.837922 0.0935434,-5.82945 7.19944,-5.46095 -7.36895,-2.23909 -9.3807,-7.42961 -5.37988,-6.38844 5.18854,-0.198425 13.6511,2.48797 17.1987,7.27314l-5.51679 -9.17717c-2.45452,-2.42419 0.33874,-7.47213 4.44388,-2.35332l6.66227 8.71285c-1.97206,-4.55925 -0.444756,-15.5682 4.2704,-6.7201 12.9345,29.1407 -7.91178,26.4688 -19.9029,38.2275l-8.48296 -7.17421 -2.04321 2.4497c0.993827,4.75342 -7.49934,13.4453 -16.0328,18.7316 -8.05493,4.98983 -11.5183,12.9314 -19.2453,14.9695 -1.61433,2.3023 2.34652,6.35755 1.06072,11.507 -1.29061,-2.07269 -2.25326,-6.1132 -3.87156,-6.2178 -5.82917,1.64551 4.7401,17.7219 -3.71254,23.6313 1.8394,-7.57503 -0.974835,-8.79393 -0.818363,-13.0028 0.20126,-5.41162 1.74756,-10.5608 2.18891,-16.4523 -4.85972,-4.82485 -1.42781,-5.09159 -10.0947,-10.2274 -2.43411,-7.99739 -24.6708,-17.3146 -37.6243,-23.1676l-0.0187087 -2.92337c6.16933,2.66202 11.3409,5.01024 15.7618,6.7989 -3.86703,-8.23919 -12.9815,-10.5749 -19.4723,-15.8624l3.14107 -4.34807zm141.085 -73.0438c1.16334,-2.86668 -0.356882,-7.416 -2.96192,-7.57276l-24.4247 0.172913 -0.648284 1.34901 -19.3516 0.227906 -1.48932 -1.16787 -25.2768 0.557292 -0.0266457 25.2145 2.09821 1.12224 1.13386 33.4902 -2.05058 0.593008 0.641197 22.3795 3.03477 0.341292 -1.00942 -21.7644 1.1469 -0.983056 -0.65537 -34.5708 -2.2938 -1.1469 0 -22.938 22.938 -0.327685 1.31074 0.983056 19.1696 0 2.94917 -2.12995 22.7741 0.491528c0.997229,1.72913 2.64983,2.31137 2.99197,5.67893zm0.958394 17.9994c0.795119,-2.7377 -0.402236,-6.03496 -4.14114,-5.98252 0.233291,2.4857 3.08835,2.18608 4.14114,5.98252zm-0.225071 18.76c0.331937,-2.3675 -1.03039,-4.97849 -3.99969,-4.94533 0.677764,2.63169 2.50243,2.47777 3.99969,4.94533zm0.648851 20.4562c0.83452,-2.74649 -0.578268,-6.34876 -4.3594,-6.3669 0.306142,1.46693 3.06992,2.44233 4.3594,6.3669zm0.291118 17.0053c0.930615,-2.76605 -0.178299,-6.30766 -4.1675,-5.94567 1.38898,1.9817 2.94208,1.99758 4.1675,5.94567zm-122.713 335.593c5.36344,0.0354331 6.85786,3.79389 10.868,8.7446 2.69745,3.32986 10.7541,4.96942 6.86155,12.8571l-4.52948 2.06391c2.21358,-7.24082 -7.00044,-8.57424 -8.96089,-14.6279 -2.07695,-6.41367 -10.8003,-2.68526 -6.78303,7.20652 -4.39966,-1.15115 -6.17556,-7.87777 2.54381,-16.2442zm-133.188 34.2031c-3.35764,-5.68318 -1.80142,-11.2816 4.55783,-14.6169 8.93821,-4.68737 1.31386,-20.2584 17.1726,-24.6648l-1.07603 -33.5072 1.94343 -0.160158c-0.387496,-89.4498 -10.9426,-133.266 16.5064,-189.113l4.5275 1.05591 -0.823465 2.90608c-26.6533,47.2431 -18.4127,103.596 -15.2515,222.408 3.58838,3.82791 4.10372,8.42457 4.18082,13.1312 -1.33625,-3.09033 -2.78221,-6.07068 -4.99607,-8.28227 -9.59018,-4.53742 -9.57742,7.9166 -12.9022,15.7462 -2.7377,6.44797 -11.2731,6.45874 -10.1279,10.3158 0.585355,-1.36318 2.0452,-2.28898 4.38066,-2.77739 -2.83805,3.61843 -2.39641,5.59701 -3.26636,8.55978l-4.8257 -1.00091zm-20.319 -291.507c-1.80936,108.279 -23.3283,122.824 -14.5542,137.316 -0.586772,-4.6851 -1.59279,-9.13153 2.80857,-11.5756 5.33254,-19.1395 17.0201,-54.6982 17.2227,-120.083l-5.47711 -5.65711zm-67.5683 -68.6688c-2.63197,-1.82296 -2.42362,-3.86476 0.623906,-6.12426l-1.06129 -0.829701c-1.71553,-2.24646 0.465733,-5.77843 3.72926,-5.84589l6.96416 0.19389c-3.50873,-1.67698 -4.61424,-3.79049 -3.31767,-6.34082 33.3182,-1.64778 22.235,9.64829 30.1575,23.0743 2.05455,-0.420095 4.43707,3.09543 5.50772,2.34765 7.47015,-2.76491 15.9242,17.4283 34.2173,23.1908 3.39562,-7.08492 9.9618,-13.951 20.3545,-19.2858 2.68923,-10.5766 13.9059,-15.2496 19.8751,-19.9225l3.30718 -1.81417 5.57547 0 0 -8.52719c-5.2818,-9.8178 2.5475,-14.2804 1.04485,-26.0235 -3.09629,-24.1977 1.5925,-55.6263 31.0961,-52.361 -37.4978,4.37301 -27.4402,37.2793 -29.8451,70.1853l-1.63984 0.983906 0 5.2475 3.93562 -0.655937 1.31187 1.63984 -2.62375 3.27969 -0.327969 10.823 -1.96781 -0.983906 0.655937 6.88734 1.31187 -1.31187 2.29578 -0.327969 0 1.31187c-3.60766,5.46577 -3.71736,10.9318 -0.327969,16.3984l-3.27969 -2.62375 -0.327969 8.19922 3.27969 -1.96781 1.96781 -0.327969 -0.327969 1.63984c-4.91981,7.21503 -5.46633,12.6808 -1.63984,16.3984l-2.62375 -0.327969 0.655937 7.21531 2.95172 -3.27969 1.96781 2.29578c-2.29606,1.63984 -2.84258,6.77764 -1.63984,15.4145l-1.31187 0 0.983906 6.88734 0.983906 -0.983906 2.29578 -0.327969 0 2.29578c-2.62375,3.49824 -1.31187,7.98038 1.96781,12.4628 -4.15446,0.983906 -3.27997,9.18312 -0.327969,13.7747l-0.983906 0.655937c-5.2475,-2.07751 -6.55937,-10.4956 -3.93562,-14.4306 -0.986741,-3.06085 -1.7538,-6.12255 -0.983906,-9.18312 -3.77263,-0.327402 -4.5377,-5.46577 -3.93562,-12.7908l-5.57547 -3.60766c3.38882,14.1027 5.13808,29.1892 10.167,42.308l-5.2475 0.655937c-1.09332,-22.7393 -20.5529,-62.8609 -2.29578,-76.0887l1.63984 -7.54328 -0.327969 -6.55937c-14.7586,8.63632 -31.1573,8.41777 -43.9481,25.9095l-2.95143 0 -0.655937 1.96781c4.69843,1.53099 6.55654,3.82621 5.57547,6.23112 -1.85868,-1.20246 -2.73402,-3.38797 -5.57547,-3.60737 0.109134,1.96781 1.20161,3.4441 0.327969,5.90344 -3.40498,-5.55874 -11.8939,-10.2161 -17.5947,-14.955 -5.70048,-4.7384 -8.61364,-9.55956 -16.6102,-15.4463l0.0943937 -2.35049 -2.62205 0.282898 -7.89563 9.90341 -14.3209 -2.40548 -13.8864 -0.939686c-2.09934,-0.589607 -3.65188,-1.1418 -4.91755,-2.98602 -1.13669,-2.15858 -0.0802205,-4.66923 0.84841,-5.12986 -3.29358,-1.46523 -1.68945,-9.80561 -0.817229,-7.74794zm-43.4061 -29.5452c-0.76337,-1.56699 -1.19792,-3.08268 -1.22854,-4.31093 -0.333921,-13.2874 14.0258,-16.7655 20.6901,-9.26249l24.8825 -2.11748 -1.90885 -37.7986c-11.5169,-9.8161 -4.80926,-26.7381 9.84841,-26.396 5.80933,0.135496 11.1022,4.25254 13.3027,9.56467 -15.16,-19.476 -36.6585,2.92025 -21.5311,14.7166l2.62375 41.652 -27.5494 1.96781c-6.70451,-4.53232 -19.3125,-6.11292 -19.1296,11.9843zm91.1263 -19.2793c3.46791,-7.42536 17.5711,-6.50637 21.0385,3.51043 -7.99994,-9.78237 -15.5069,-8.08271 -21.5379,-1.79093l-25.2536 1.31187 0 -2.29578 25.7531 -0.735591zm-14.9326 36.8717c-1.1914,-2.30797 -3.6394,-4.59213 -8.95465,-7.22467l-0.881859 1.58967 7.87125 4.91953 1.96526 0.715465z"/>
  <path fill="#8C0000" d="M428.805 32.4167c1.89468,0.113953 3.21534,2.55147 3.34743,4.97509 0.131811,2.42362 -0.924662,4.83336 -3.7851,4.8926l0.216851 9.72199c6.29717,-0.0887245 5.38526,9.32514 -0.113953,9.56382l0.0303307 10.2334c5.27896,-0.0589607 5.47909,8.23805 0.108567,8.67034l0.180567 10.3643c6.04999,0.0291969 6.0378,9.23358 0.455244,9.42662l0.0277795 7.99994c6.38277,-0.579402 5.39263,8.8356 0.470268,9.07541l-16.4118 0.24378c-2.16737,7.31594 -14.1735,10.3686 -21.2601,18.0128 2.32073,4.40788 -3.35027,9.11566 -9.32854,18.0479 -8.73752,13.0555 -22.0519,32.112 -36.3498,45.4601 10.0919,136.417 38.878,128.201 7.64589,150.485 4.83704,38.3777 -7.24678,33.5622 -19.6152,44.9226 -8.16067,7.49566 -12.1085,15.1654 -23.6109,19.3453l-0.0850394 35.9456c-1.21465,4.04022 -11.7204,10.2124 -3.31087,16.549 -4.81011,1.96753 -7.43415,-0.875056 -7.87125,-8.52719 -0.327969,-13.1187 -0.327969,-26.2375 0,-39.3562l1.63984 2.29578 0.983906 34.1087c1.53014,-1.9681 2.40463,-4.04561 4.91953,-6.55937 0,-123.316 5.2475,-187.27 -20.99,-225.97l-2.29578 0.327969c3.63345,9.15393 5.76425,16.5328 4.59156,20.0061 -2.84287,-9.72709 -5.90429,-16.3962 -9.18312,-20.0061l-3.60766 0.327969 2.29578 13.4467 -1.63984 -2.95172 -1.96781 -10.167 -14.4306 0 0.000283465 7.70684 -1.14803 1.63899 -0.820063 -9.6738 -36.4045 -0.327969 -5.41191 -2.13194 7.70769 -2.29521 0.327969 -1.14832 1.31187 0 0.983906 1.96781 44.9317 -0.655937 -0.327969 -3.27969 1.96781 0.327969 0.983906 2.29578 3.60766 0 -0.655937 -2.29578 1.96781 -0.327969 0.983906 2.29578 1.96781 0 -5.2475 -10.495 1.96781 0.983906 4.91953 7.54328 -1.63984 -9.51109 4.91953 -0.983906 -0.655937 -8.19922 -3.27969 0.983906 -1.63984 -1.63984c6.77792,-1.09332 2.07695,-7.76211 -3.27969,-13.1187l4.42772 1.9681c4.15077,-4.61197 3.09515,-12.1655 -1.13017,-16.223 3.16857,-1.13924 4.37131,2.3091 6.55711,3.46366 0.548788,-3.6754 -0.0773859,-8.06089 -1.71326,-13.4833 -2.23143,2.78107 -3.93081,5.56214 -4.85093,8.34407l-2.63452 -0.140032c0.205228,-2.51518 -1.29827,-5.02923 -3.27969,-7.54328 2.24221,1.2566 4.32029,2.56791 5.2475,4.26359 5.59531,-9.37191 3.40753,-11.048 -0.30274,-18.205 1.5069,-1.37509 4.32454,3.312 6.48681,4.72252 1.09474,-6.82668 0.714898,-9.8847 -0.156473,-15.0727 -2.92025,3.00388 -5.29399,5.48901 -6.46583,8.60287 -0.455244,-0.182268 -0.910489,-0.364536 -1.36573,-0.546803 -0.38126,-1.42214 -1.52958,-2.45991 -2.78759,-3.44268l1.63984 0.327969 0 -4.26359 1.31187 3.27969c5.72457,-3.36331 6.57837,-7.98435 4.00649,-11.0645 -1.58173,-1.89439 -3.08041,-4.12951 -2.69462,-6.31786 1.74926,2.62318 4.31802,4.75484 6.2314,5.90344 0.436536,-4.91925 0.0541418,-9.18312 -0.81978,-13.2832 -3.66123,1.5857 -4.20945,4.81011 -6.3961,6.88763l-1.96725 -1.47572 -1.63956 -3.60822 3.93534 1.96838 3.93562 -7.54328 -4.59156 -9.18312 2.29578 0 4.26359 2.62375 0 -12.1348c-3.60766,5.35692 -6.34111,6.77849 -8.19922,4.26359 3.60737,-0.109134 5.90315,-3.2794 6.88734,-9.51109 -2.95172,-28.4239 6.2314,-42.7451 -18.6942,-59.6903 20.99,13.5286 22.6298,16.4262 21.6459,61.9861l0.983906 19.0222c26.1987,-21.9076 28.1069,-58.8334 -1.77647,-91.6733 27.0465,21.187 37.3315,64.5132 4.392,96.8239l-1.89043 0.432284 -0.0691654 17.7029 2.62375 10.167c3.00728,0.506835 4.25849,2.8148 7.05572,3.48945 11.6949,2.82019 30.2777,5.6401 36.0692,12.3965 8.44583,9.85267 -1.18602,19.2427 3.77462,31.0136l-2.29578 2.29578c-10.2685,-9.0961 -0.202961,-11.3046 -2.27225,-25.3199 -1.80057,3.27062 -3.60114,5.0057 -5.4017,6.52139 9.7733,-16.5824 -10.6265,-18.7342 -26.7628,-21.2136 2.07695,6.66851 0.874489,12.0254 0.327969,19.0222 10.7135,9.40167 17.4915,21.4271 37.0605,30.1731l1.63984 -0.655937c7.55859,-9.37248 18.0663,-19.0735 25.6249,-28.446 8.83956,-10.9613 8.50479,-16.0243 23.5704,-32.5562l-9.83878 -9.18341 1.96781 -0.983906 6.55909 5.57575 2.2955 -0.000566929c8.67969,-6.22545 13.5581,-10.2824 19.3725,-13.5085 4.32964,-2.40208 3.57279,-17.8373 -1.00602,-23.8794l-1.14775 -2.78844c3.60624,3.3378 6.28385,10.5534 6.72322,21.8106l16.3984 0c0.272693,-2.35021 0.0541418,-3.71707 -0.655937,-5.57547l-2.62375 -0.655937 -0.327969 -8.52719 -7.54328 0 0 8.52719 -2.29578 0.327969 0 -11.8069 12.4628 0c0.328252,-1.42073 0.328819,-2.84173 -0.655937,-4.26359l-3.60766 -2.62375 0 -10.495 -6.55937 0 0 11.1509 -2.95172 0.327969 -0.327969 -14.1027 13.4467 0c0.654803,-0.983623 0.435969,-1.96753 -0.655937,-2.95172l-2.62375 -3.60766 0 -8.85515 -7.87125 0 0 9.18312 -2.62375 0.655937 -0.327969 -13.1187 14.1027 0c0.764504,-1.20246 0.654803,-2.40463 -0.327969,-3.60766l-4.59156 -2.62375 0 -8.85515 -5.57547 0 -0.327969 9.83906 -3.27969 -0.327969 -0.327969 -12.7908 13.7755 -0.163843 0.0391181 -7.74057zm-46.1452 86.0035l-18.506 0.895182 -1.70873 -2.61865 0.0702992 -1.92671 28.2059 -0.163559c-1.9097,-4.15588 -8.74404,-2.57188 -12.1354,-4.428 7.13537,-0.419244 11.1793,-0.569764 13.0947,3.01578 0.979938,1.83458 1.53354,4.51729 -3.41972,9.11991l-2.78759 -0.000566929c2.18608,-1.74954 4.536,-3.49909 5.57547,-5.90372 -3.80693,-0.259654 -5.68999,1.62425 -5.90429,5.73931l-2.48457 -3.72898zm-70.2746 385.332c-1.33087,5.43317 -18.1704,-0.411024 -22.0385,-3.26665 -7.59515,0.880441 -16.0237,5.62337 -23.599,-2.65323 -9.74297,3.10394 -18.4204,3.72076 -25.539,0.702992l-2.70454 0.32315c-3.98778,2.04265 -8.68593,3.37521 -14.4224,3.66917 -10.8162,6.66312 -22.7245,9.07512 -25.344,5.55619 4.41298,-0.0263622 9.37248,-1.14633 15.5359,-4.67093 -1.64041,-2.08205 -6.23254,-3.50816 -11.8086,-4.27833 -12.4645,-3.44608 -20.5135,-8.73185 -24.2379,-14.0621l3.90558 0.302173c4.49575,0.491811 6.79947,5.2818 13.1757,6.08826 5.2064,0.658489 36.3818,11.7655 42.579,1.78299l1.31187 -151.522 0.327969 -57.0665 2.29578 1.96781 0.983906 207.276c7.65213,1.53014 13.993,1.31131 19.0222,-0.655937l3.27969 -0.327969c1.23676,9.20608 15.3045,5.8697 20.5784,4.4521 3.34715,-0.899434 44.2627,-21.6958 43.7888,-30.344 0.408473,4.31065 -4.1417,11.3627 -21.8719,24.9265m-155.893 -152.902c-3.80013,-3.04129 -6.46583,-5.56413 -8.23437,-8.0144 -5.37166,-18.4113 19.4298,-17.4722 30.1286,-26.7001 -2.07723,-34.1087 -4.15446,-68.2175 -6.2314,-102.326l-10.1534 -9.51024c-10.5248,-10.6546 -19.0661,-23.3238 -26.7103,-34.4645 -4.94476,-7.20652 -11.8468,-12.2732 -12.3055,-14.6478l-3.59065 0.268158 16.8585 281.41c-0.713764,1.46154 -1.81134,2.15575 -2.96447,2.7411l-18.2007 -284.831 -1.96781 -1.63984 -13.801 -1.64098c-1.84224,-0.348378 -3.11046,-0.983906 -3.95348,-1.75238l13.163 -0.870237c3.168,-0.16526 3.71424,-4.59043 0.655937,-4.91953l-13.9346 -0.573733c-0.71178,-0.192756 -1.21578,-0.760819 -1.54687,-1.51002l16.1374 -0.212032c3.4954,-0.056126 2.89446,-4.37188 -0.327969,-4.59156l-15.063 -1.62085c-0.769607,-0.252 -1.27559,-0.640063 -1.57578,-1.09701l17.9507 1.07802c3.38599,0.435402 2.83975,-4.37188 -0.655937,-4.59156l-14.3283 -0.865134c-0.845575,-0.32315 -1.44907,-0.773292 -1.84479,-1.29175l12.8934 0.51704c3.87808,0.217134 6.60926,-3.00643 1.31187,-4.26359l-7.87125 -0.655937 0.327969 -5.90344c2.18835,6.7184 8.964,5.24466 12.4628,2.95172 -0.871937,5.2441 1.20529,8.03084 8.19752,4.42772 -4.55981,1.83203 -7.03276,3.53509 -6.49077,9.63355 0.621638,6.99478 2.61525,7.55575 7.14841,8.89654 -6.88252,-0.926079 -3.77065,6.66766 -3.93562,8.52719 3.68731,-0.964347 5.57235,-1.76485 9.7509,-6.98911l-4.99323 7.48148c2.75981,0.191339 4.61736,1.2841 6.06529,2.78731 9.22394,11.0004 19.4315,26.4251 28.6552,37.4253 5.53465,6.60048 10.0862,8.77748 15.6206,15.3777 22.411,-12.5722 24.4882,-20.2249 35.7486,-28.8612l1.31187 -0.655937 0.327969 6.88734c-11.3698,8.85515 -19.1316,18.3662 -34.1087,26.5655 0.983906,34.9832 2.95314,71.4422 6.88734,106.918l-10.495 4.59156 0.983906 31.485c3.66548,19.5514 -14.9502,12.8271 -10.2818,26.9002 3.78255,11.4027 17.5751,13.6021 24.8942,19.2368 8.29559,6.38646 7.79953,12.8358 16.2167,15.1931l-0.327969 4.26359 -1.32095 1.60384c-11.4982,-4.34807 -8.77153,-10.2841 -16.4679,-16.2428 -13.0779,-10.1251 -23.3532,-11.6753 -28.2691,-20.9225m-96.4404 -297.233c-6.10923,-0.060378 -12.2182,4.43509 -11.9991,13.1547 0.16441,6.55115 11.8018,21.2746 23.6676,8.35994l23.402 -0.876189 3.46167 -4.00621 -27.5494 0.983906 -0.655937 -3.27969 -0.983906 -0.655937c-0.214299,6.57695 -5.05049,12.8341 -13.4153,8.3537 -9.15874,-4.90564 -4.10344,-18.1057 4.07225,-22.0343zm41.5131 -62.4198c10.9355,0.255118 20.0395,14.6186 10.1356,24.4993l2.55742 36.8552 -0.587339 3.26693 -3.93562 0 -2.95172 -39.3562c-2.07553,0.658489 -4.26104,1.09758 -7.21531,0l-0.327969 -1.31187c1.32633,0.278079 11.8018,0.830835 13.985,-5.7549 2.48514,-7.49651 -4.58646,-13.4345 -11.66,-18.1984zm50.3022 55.9724c5.3178,1.0508 10.355,5.32744 10.3518,12.9966 -0.00680315,16.416 -15.1124,14.963 -19.6759,9.59216l-26.4271 2.35644 0.404221 9.33563c15.4627,7.65893 6.65575,12.3661 13.263,23.3051 -5.26167,-5.21859 -0.856914,-15.1883 -16.7686,-24.0112l-0.655937 -12.7908 28.2053 -1.31187 -0.327969 -5.57547c2.50923,6.82866 8.78117,11.9412 14.9684,6.98004 7.89676,-6.33203 2.18126,-16.105 -3.33723,-20.8766z"/>
  <path fill="#339966" d="M327.41 473.231c-2.79156,4.31036 -8.72476,10.2444 -19.806,18.7217 -1.21011,0.174047 5.40511,9.25229 4.7812,11.7998 -1.33087,5.43317 -18.1704,-0.411024 -22.0385,-3.26665 -7.59515,0.880441 -16.0237,5.62337 -23.599,-2.65323 -9.74297,3.10394 -18.4204,3.72076 -25.539,0.702992l-2.70454 0.32315c-3.98778,2.04265 -8.68593,3.37521 -14.4224,3.66917 -10.8162,6.66312 -22.7245,9.07512 -25.344,5.55619 -1.19027,-1.59931 1.87937,-5.72627 3.72728,-8.94926 -20.774,-5.74385 -29.2833,-16.5963 -25.9469,-24.2504 -22.561,2.28076 -32.8394,-3.23717 -29.8182,-14.7311 8.75594,11.7062 18.3875,15.1041 28.8936,10.1937 -4.09266,-3.72303 -8.01553,-12.0736 -8.00788,-18.5981 0.00510236,-4.29166 -1.03181,-7.42933 -1.22627,-9.43115 7.76381,-0.50967 13.7517,-3.15099 17.1434,-8.90788l-4.88608 -1.18743c1.42526,-2.26658 2.4137,-4.53288 2.96447,-6.79862 -10.0063,-0.456378 -15.0931,-2.88057 -18.5397,-3.9926 -1.71298,-3.23943 -4.11676,-6.64781 -4.08841,-10.6333 0.031748,-4.4297 -2.74592,-7.704 -2.57811,-11.5631 0.493796,-11.3411 -0.728788,-16.9169 -10.0128,-20.2521 -1.53553,-10.3482 -11.5974,-19.8213 -18.0519,-16.6133 1.73395,5.61742 4.77978,7.2995 5.20186,16.8528 -7.51465,5.22142 -11.0937,10.4437 -10.7371,15.6657 4.1434,-0.714048 7.95884,-2.73997 12.4305,-2.14214 -3.64422,5.60268 -10.5681,7.92596 -10.9324,16.8086 5.95503,-1.73679 8.29418,-3.13625 10.9596,-3.22214 1.29005,13.4164 -3.0994,21.3032 -9.2075,22.5394 -7.27767,1.47288 -13.3668,-1.91849 -16.5039,-13.2086 1.78441,-5.39887 4.44416,-10.3601 7.97811,-14.8839 -3.97446,-1.0474 -7.94778,0.210898 -11.9214,1.79802 2.94633,-3.83726 3.92485,-7.01859 8.839,-11.5115 -4.52778,-1.7365 -8.72731,0.134646 -12.5989,2.66202 -3.26183,-8.79704 -4.83109,-7.08066 -8.66835,-3.97446 -2.37714,1.92387 -3.52148,9.32996 -2.17417,14.559 2.59994,10.0913 8.82993,12.5252 10.0678,29.2536 0.774993,10.4718 -3.83131,26.5612 3.10224,31.5363 -1.72545,8.13544 -0.389764,14.5222 4.00706,19.1594 -0.95726,8.25591 2.02365,13.5618 8.93963,16.5719 1.09021,4.75966 4.80416,8.208 11.1419,10.3445 3.83528,4.66526 9.14684,12.1731 14.9511,9.40423 2.3777,1.82013 4.75625,3.20315 7.13452,4.14907 -8.86621,1.2481 -26.9155,-3.40725 -26.5986,1.44879 -7.00781,2.78164 -12.0464,6.11037 -11.1798,15.8893 4.26699,-0.206646 6.89415,-5.00485 14.7691,-5.53947 -4.36791,3.78482 -5.45613,8.22558 -5.23248,13.3226 4.37414,-1.19084 7.10844,-5.33339 15.0902,-3.57222 -4.02492,4.01669 -5.42551,8.47163 -4.20208,13.3637 4.37783,-0.831685 8.09972,-4.28712 11.1657,-5.44677 5.11427,3.68561 18.8155,-4.66214 31.7183,-6.9823 9.41585,-1.69285 19.0695,-2.54721 19.1733,-4.84583 3.03477,0.863717 6.06983,1.29118 9.10517,1.28126 -4.37443,5.36911 -9.73248,8.11446 -15.0905,9.21997 12.0107,39.1944 85.0235,32.4732 122.616,20.1767l1.0355 -1.94287c-6.73115,-3.42199 -19.309,-2.25269 -18.3833,-15.1863l-0.654803 -1.84564c-12.676,-0.901418 -18.6832,-5.84731 -14.0859,-11.8865 7.11723,0.197291 13.3608,-1.35383 18.7296,-4.65392 4.57002,-0.016441 8.37525,-1.01594 12.0708,-3.65556 14.7583,2.64643 25.909,-0.610583 38.3718,0.068315 -8.43081,3.45997 -33.2598,1.67273 -34.147,6.44485 -5.46208,4.2018 -7.86246,8.84155 -7.20199,13.9184 2.50753,-0.153071 7.96706,-2.92961 9.49097,-2.42646 -2.71021,4.23723 -2.79638,8.14649 -3.21052,12.3837 3.7732,-0.289134 4.92265,-3.52999 11.9758,-3.81884 -4.14907,4.80926 -5.23644,10.0562 -3.26268,15.7405 4.85065,-2.39329 5.76567,-5.77049 16.5198,-6.19569 16.1382,-14.9329 33.7938,-25.5322 52.5569,-31.7183 1.45814,-1.04258 5.21207,-3.06907 5.35833,-5.09528 -3.98892,-6.75922 -9.94564,-12.5342 -15.9024,-17.6533l3.42482 -1.37991c5.54287,-0.415843 9.77415,-3.45487 12.6941,-9.11764 6.67786,-4.45805 10.732,-9.79059 12.1623,-15.9976 4.61679,-3.87893 7.86728,-9.12473 8.11078,-17.377 3.46649,-4.73301 3.21704,-11.4338 2.20224,-19.1183 0.227622,-6.69827 -0.637796,-12.8489 -3.90869,-17.7965 0.694489,-6.49758 -4.51418,-12.9949 -9.72256,-15.5563 -3.93052,-8.5133 -5.56498,-17.0266 -5.88756,-25.5399 2.9228,1.71666 7.15777,4.41723 9.75289,4.16636 -4.89005,-16.8165 -2.40038,-30.7355 -1.71383,-45.6925 -15.9846,8.86026 -30.0008,28.2161 -31.2259,42.3247 1.98822,0.548221 5.28832,-1.52702 9.90057,-3.2743 -0.635528,3.95547 -0.615118,7.91122 0.0615118,11.867 -2.48372,-0.286866 -4.96744,-0.135496 -7.45115,0.452977 -8.42571,-3.07276 -14.6645,-2.20961 -18.7172,2.58945 -7.23912,1.11572 -13.1936,4.5275 -13.4354,11.2195 -6.60161,2.77597 -8.82964,8.17626 -6.68466,16.2003 -5.17351,6.26287 -3.89594,13.8376 2.84769,18.7886 -0.582803,6.6875 4.41213,11.2983 11.704,14.4884 4.41808,4.43225 9.71122,5.80394 15.8786,4.11421l8.0898 1.14747c-8.57141,9.29991 -32.7974,6.60161 -51.5869,1.19792z"/>
  <path fill="white" d="M245.431 66.5586c-4.26388,-2.62205 -8.52747,-2.8406 -12.7908,-0.655937 1.47543,1.20302 2.62687,4.23921 5.69792,4.0578 3.40725,-0.20126 4.63266,-3.11613 7.09285,-3.40186z"/>
  <path fill="#644D36" d="M245.763 66.4237l-3.11443 -1.46466c-1.52731,3.8075 -4.0921,6.90407 -6.6566,3.77603 2.18183,-0.227055 4.14539,-2.14668 3.86986,-4.176 -1.14633,-0.092693 -1.03748,-0.403654 -2.78532,-0.0583937 -1.0372,0.675213 -1.30677,2.29833 -1.46665,3.55748 -0.420945,-0.545386 -0.695906,-1.81786 -0.824315,-2.9452l-3.93222 1.31074c4.91528,-4.77978 9.99412,-6.14551 14.9097,0z"/>
  <path fill="#E6A19F" d="M231 87.8766l0.655937 8.19922c6.99789,4.11449 7.76467,12.4929 20.9942,12.344l9.45412 4.94051 -7.81654 -6.05622 8.14904 2.49562 -5.33452 -3.83244 4.57654 0.7903 -2.07241 -2.73118 3.11783 0.501166 -1.9406 -2.24589c2.20677,-1.95931 3.97644,-3.91862 5.30901,-5.87792l-0.655937 17.0544c4.15418,-1.96781 6.66851,-37.3884 3.60766,-54.1148 -6.12227,1.20274 -6.34082,7.6527 -9.51109,11.4789 3.16999,0.874772 6.33997,0.875339 9.51109,0 2.66457,18.6735 -8.14224,34.0903 -19.5236,33.6668 -10.0514,-0.37389 -15.8015,-12.8067 -18.5207,-16.6124z"/>
  <path fill="white" d="M270.303 66.9952c-4.26388,-2.62205 -8.52747,-2.8406 -12.7908,-0.655937 1.47543,1.20302 2.62687,4.23921 5.69792,4.0578 3.40725,-0.20126 4.63266,-3.11613 7.09285,-3.40186z"/>
  <path fill="#644D36" d="M270.635 66.8603l-3.11443 -1.46466c-1.52731,3.8075 -4.0921,6.90407 -6.6566,3.77603 2.18183,-0.227055 4.14539,-2.14668 3.86986,-4.176 -1.14633,-0.092693 -1.03748,-0.403654 -2.78532,-0.0583937 -1.0372,0.675213 -1.30677,2.29833 -1.46665,3.55748 -0.420945,-0.545386 -0.695906,-1.81786 -0.824315,-2.9452l-3.93222 1.31074c4.91528,-4.77978 9.99412,-6.14551 14.9097,0z"/>
  <path fill="#644D36" d="M231.798 56.4673c3.20145,0.218268 6.18435,-3.60142 15.1696,2.29181 -3.78255,-5.92923 -10.6943,-6.40148 -15.1696,-2.29181z"/>
  <path fill="#644D36" d="M268.786 58.1043c-3.20145,0.218268 -6.18435,-3.60142 -15.1696,2.29181 3.78255,-5.92923 10.6943,-6.40148 15.1696,-2.29181z"/>
  <path fill="#F00000" d="M242.493 92.3724c0.836504,0.509386 7.56652,-0.072567 11.3499,-0.109134 -1.81899,5.60211 -5.9298,2.25525 -7.0937,3.71055 2.36325,2.15688 5.46151,1.34702 7.49764,-0.223087 1.91254,-1.47515 2.58038,-3.52573 3.96142,-4.2514 -1.68888,-0.719433 -3.79389,-0.644315 -4.89402,-1.63814 -1.58939,-1.43518 -2.772,-0.716599 -3.43588,-0.728788 -0.615969,-0.0110551 -1.81701,-0.74863 -3.39052,0.729355 -0.572882,0.537733 -3.60794,1.57635 -3.99487,2.51065z"/>
  <path fill="white" d="M252.206 93.7911c-0.509386,1.16419 -7.13027,0.800504 -7.74851,0.218268 1.38217,-0.618237 6.91172,-0.800221 7.74851,-0.218268z"/>
  <path fill="white" d="M290.682 113.033c11.8454,7.17081 21.3129,15.7493 27.9114,23.3575 8.90873,3.7338 17.4898,12.7154 19.1838,23.3374 3.25134,-3.21988 6.65093,-5.5698 12.6252,-8.57339 3.06114,-1.53865 3.63118,-4.13433 6.74901,-6.73937 5.19648,-4.34211 14.1245,-7.66092 17.9615,-14.7192 3.33921,-6.1424 7.89846,-1.67017 7.54696,-11.2759 2.26687,10.9772 -1.96016,5.77758 -6.5194,13.1443 -2.94208,4.7537 -8.10879,8.85345 -13.409,12.1723 -3.95178,2.47436 -12.4362,12.6524 -23.7422,19.0264 -6.5058,-4.16665 -3.51525,-9.5692 -9.43881,-15.8029 -5.78807,-6.09166 -10.317,-6.67219 -12.1187,-8.6984 -3.08325,-3.46762 -8.54788,-11.9832 -27.923,-23.8323l1.17326 -1.39635zm141.085 -73.0438c1.16334,-2.86668 -0.356882,-7.416 -2.96192,-7.57276l-24.4247 0.172913 -0.648284 1.34901 -19.3516 0.227906 -1.48932 -1.16787 -25.2768 0.557292 -0.0266457 25.2145 2.09821 1.12224 1.13386 33.4902 -2.05058 0.593008 0.641197 22.3795 3.03477 0.341292 -1.00942 -21.7644 1.1469 -0.983056 -0.65537 -34.5708 -2.2938 -1.1469 0 -22.938 22.938 -0.327685 1.31074 0.983056 19.1696 0 2.94917 -2.12995 22.7741 0.491528c0.997229,1.72913 2.64983,2.31137 2.99197,5.67893zm0.958394 17.9994c0.795119,-2.7377 -0.402236,-6.03496 -4.14114,-5.98252 0.233291,2.4857 3.08835,2.18608 4.14114,5.98252zm-0.225071 18.76c0.331937,-2.3675 -1.03039,-4.97849 -3.99969,-4.94533 0.677764,2.63169 2.50243,2.47777 3.99969,4.94533zm0.648851 20.4562c0.83452,-2.74649 -0.578268,-6.34876 -4.3594,-6.3669 0.306142,1.46693 3.06992,2.44233 4.3594,6.3669zm0.291118 17.0053c0.930615,-2.76605 -0.178299,-6.30766 -4.1675,-5.94567 1.38898,1.9817 2.94208,1.99758 4.1675,5.94567zm-122.713 335.593c5.36344,0.0354331 6.85786,3.79389 10.868,8.7446 2.69745,3.32986 10.7541,4.96942 6.86155,12.8571 -0.170646,-8.46936 -4.46117,-8.26441 -8.16747,-10.9718 -3.16006,-2.30797 -2.70454,-7.23685 -8.49827,-8.16038l-1.06384 -2.46954zm1.6577 53.9487c0.623906,-2.5475 -5.99131,-11.6257 -4.7812,-11.7998l-1.38331 1.11742c1.89099,3.5606 3.61814,10.2345 6.16451,10.6824zm-111.263 5.69651c-1.07575,-0.253701 -1.89383,-0.70526 -2.38451,-1.36488 -1.19027,-1.59902 1.87937,-5.72627 3.72728,-8.94926l2.00948 0.488977c-3.02967,2.70114 -4.69361,5.81216 -3.35225,9.82517zm-23.5826 -25.4421c-3.35764,-5.68318 -1.80142,-11.2816 4.55783,-14.6169 8.93821,-4.68737 1.31386,-20.2584 17.1726,-24.6648l-1.07603 -33.5072 2.34822 0.0946772 0.819213 35.5538c-15.4364,2.17871 -9.72851,14.0579 -14.2109,20.4231 -6.19597,8.79874 -8.57169,0.494929 -9.61087,16.7173zm-25.8285 -144.956c-2.09197,15.8613 -1.80199,25.4115 0.374457,31.807 -0.177449,-13.9861 1.61121,-20.4353 2.41682,-30.6527l-2.79128 -1.15427zm5.50942 -146.551c-1.80936,108.279 -23.3283,122.824 -14.5542,137.316 -2.34737,-18.741 16.1532,-48.4144 16.4237,-135.594l-1.86945 -1.72148zm-38.3463 235.027l-2.29181 0.447874 -22.0439 -288.28 3.30605 0.329103 21.0297 287.503zm-29.2533 -290.818c-1.13669,-2.15858 -0.0802205,-4.66923 0.84841,-5.12986 0.591307,1.49131 0.30841,3.20117 -0.84841,5.12986zm-0.406205 -19.8318c-1.71553,-2.24646 0.465733,-5.77843 3.72926,-5.84589l-0.856914 -13.5726 2.1498 -0.72652 0.983906 15.7425c-3.31257,-0.170929 -4.65931,2.44347 -6.00605,4.40249zm-42.9687 -22.5913c-0.76337,-1.56699 -1.19792,-3.08268 -1.22854,-4.31093 -0.333921,-13.2874 14.0258,-16.7655 20.6901,-9.26249l24.8825 -2.11748 -1.90885 -37.7986c-11.5169,-9.8161 -4.80926,-26.7381 9.84841,-26.396 5.80933,0.135496 11.1022,4.25254 13.3027,9.56467 -15.16,-19.476 -36.6585,2.92025 -21.5311,14.7166l2.62375 41.652 -27.5494 1.96781c-6.70451,-4.53232 -19.3125,-6.11292 -19.1296,11.9843zm91.1263 -19.2793c3.46791,-7.42536 17.5711,-6.50637 21.0385,3.51043 -7.99994,-9.78237 -15.5069,-8.08271 -21.5379,-1.79093l-25.2536 1.31187 0 -2.29578 25.7531 -0.735591zm-14.9326 36.8717c-1.1914,-2.30797 -3.6394,-4.59213 -8.95465,-7.22467l-0.881859 1.58967 7.87125 4.91953 1.96526 0.715465zm4.30838 16.0804c2.05455,-0.420095 4.43707,3.09543 5.50772,2.34765 7.47015,-2.76491 15.9242,17.4283 34.2173,23.1908 3.39562,-7.08492 9.9618,-13.951 20.3545,-19.2858 2.68923,-10.5766 13.9059,-15.2496 19.8751,-19.9225 -48.4268,-51.937 -5.15962,-111.132 43.9574,-110.825 19.1863,0.119906 36.3793,10.1078 47.5172,24.8757 -64.4349,-63.3155 -148.542,20.7051 -88.1674,84.1354l0 2.29578c-11.4803,6.39496 -19.6801,13.0632 -20.662,20.3341 -11.0418,4.80983 -18.5851,12.2437 -22.6298,22.3019 -24.4885,-10.7138 -28.6427,-30.9385 -36.0766,-24.2697 -1.2977,-1.72602 -4.23525,-3.78 -3.89339,-5.17805zm-37.0792 -4.31405c0.513922,1.79065 0.124158,3.83528 -1.1177,5.18825 -0.41726,-2.20621 0.136913,-4.94306 1.1177,-5.18825zm1.39068 -5.47569c-1.83373,-0.941103 -4.66611,2.92734 -2.5954,4.81011 0.291685,-1.60384 0.99326,-3.20712 2.5954,-4.81011z"/>
  <path fill="#006633" d="M90.9754 404.312c-1.34731,-5.22907 -0.202961,-12.6352 2.17417,-14.559 3.83726,-3.10621 5.40652,-4.82259 8.66835,3.97446 3.87156,-2.52737 8.07109,-4.39852 12.5989,-2.66202 -4.91414,4.49292 -5.89266,7.67424 -8.839,11.5115 3.97361,-1.58712 7.94693,-2.84542 11.9214,-1.79802 -3.53395,4.52381 -6.1937,9.48501 -7.97811,14.8839 3.1371,11.2901 9.22621,14.6815 16.5039,13.2086 -7.33238,13.5615 -21.9351,-10.5747 -28.0483,-36.7285 -5.44677,1.76258 -4.66753,8.11276 -7.00129,12.1691zm44.2571 2.01997c-2.66542,0.0858898 -5.00457,1.48536 -10.9596,3.22214 0.364252,-8.88265 7.28816,-11.2059 10.9324,-16.8086 -4.47166,-0.597827 -8.28709,1.4281 -12.4305,2.14214 -0.356599,-5.22199 3.22243,-10.4443 10.7371,-15.6657 -0.422079,-9.55333 -3.46791,-11.2354 -5.20186,-16.8528 6.45449,-3.20797 16.5164,6.26514 18.0519,16.6133 9.28404,3.33525 10.5066,8.911 10.0128,20.2521 -0.167811,3.85909 2.60986,7.13339 2.57811,11.5631 -0.0283465,3.98551 2.37543,7.39389 4.08841,10.6333 3.44665,1.11203 8.53342,3.53622 18.5397,3.9926 -0.550772,2.26573 -1.53921,4.53203 -2.96447,6.79862l4.88608 1.18743c-3.39166,5.75688 -9.37956,8.39821 -17.1434,8.90788 0.194457,2.00183 1.23137,5.1395 1.22627,9.43115 -0.00765355,6.52451 3.91521,14.8751 8.00788,18.5981 -10.5061,4.91046 -20.1376,1.51257 -28.8936,-10.1937 -2.26573,8.62045 3.21619,13.9204 15.6169,15.069 -9.52697,2.74054 -16.7471,-0.731055 -20.594,-13.2823 -13.7222,7.74199 -25.8741,5.74866 -35.2262,-13.5989 9.5709,13.8716 19.5378,18.2407 29.9832,11.1413 -18.1871,4.58759 -26.7616,-5.18854 -32.277,-25.2318 9.17434,19.0364 22.3356,29.0313 36.7007,16.3843l2.45764 -0.163843c5.81613,3.30548 6.14353,18.4884 27.034,18.0227 -6.99081,-8.083 -6.77226,-18.4598 -10.1582,-27.6894 -4.66951,-3.46819 -4.01443,-11.2235 -0.491528,-13.7628 0.152221,-7.6595 -5.11115,-17.5306 -6.6223,-27.4383 -0.591307,-3.8761 1.6132,-6.43663 -0.627874,-12.867 -1.36261,-3.90955 -6.85418,-4.42375 -8.31487,-6.88139 -2.02082,-8.79279 -5.7892,-13.8722 -11.3051,-15.2374 1.85669,5.89833 2.07525,11.1413 3.11301,16.7119 -4.42432,2.81254 -7.42791,5.97969 -8.35597,9.66671 3.44069,-0.437103 5.57065,-1.69313 10.3221,-1.31074l-0.327685 3.11301c-2.67619,3.76838 -6.33544,7.04523 -8.02829,11.3051 2.40293,-0.437103 5.02441,-0.655937 7.86444,-0.65537l-0.163843 2.2938 -2.06646 0.590174zm243.764 65.7009l-8.0898 -1.14747c-6.16734,1.68973 -11.4605,0.318047 -15.8786,-4.11421 -7.29185,-3.19011 -12.2868,-7.80095 -11.704,-14.4884 -6.74363,-4.95099 -8.0212,-12.5257 -2.84769,-18.7886 -2.14498,-8.02404 0.0830552,-13.4243 6.68466,-16.2003 -5.25033,7.76835 -6.41792,14.6495 -1.61858,20.2334 -1.31102,0.163843 -2.8406,-1.63843 -4.58759,-5.40681 -1.87087,8.65616 -0.369071,14.7181 3.44069,19.0057l1.80227 0.983056c2.62148,-0.65537 5.24296,-0.65537 7.86444,0 -2.38932,-2.97695 -3.89169,-7.72838 -4.09607,-15.0735l-1.96611 0.819213 3.93222 -3.93222c-1.54403,21.471 16.943,29.2125 34.0793,22.1188 0.0643465,5.54854 -2.27424,10.8788 -7.01518,15.9914zm7.70684 -80.8679c-4.61225,1.74728 -7.91235,3.82252 -9.90057,3.2743 0.124158,-1.43263 0.380693,-2.91997 0.757701,-4.44473l9.10659 -2.43921 0.983056 2.45764 -0.946772 1.152zm21.3253 -39.0504c-0.686552,14.957 -3.17622,28.876 1.71383,45.6925 -2.59512,0.250866 -6.83008,-2.4497 -9.75289,-4.16636 0.322583,8.5133 1.95704,17.0266 5.88756,25.5399 5.20838,2.56139 10.417,9.05868 9.72256,15.5563 3.2709,4.94759 4.13632,11.0982 3.90869,17.7965 1.0148,7.68444 1.26425,14.3853 -2.20224,19.1183 -0.243496,8.25222 -3.49399,13.498 -8.11078,17.377 -1.43036,6.20703 -5.48448,11.5396 -12.1623,15.9976 -2.91997,5.66277 -7.15125,8.7018 -12.6941,9.11764l-3.42482 1.37991c5.95673,5.11909 11.9135,10.8941 15.9024,17.6533 -0.146268,2.02621 -3.90019,4.05269 -5.35833,5.09528 -18.7631,6.18605 -36.4187,16.7854 -52.5569,31.7183 -10.7541,0.425197 -11.6691,3.8024 -16.5198,6.19569 -1.97376,-5.68432 -0.886394,-10.9312 3.26268,-15.7405 -7.05317,0.288851 -8.20262,3.5297 -11.9758,3.81884 0.414142,-4.23723 0.500315,-8.14649 3.21052,-12.3837 -1.52391,-0.50315 -6.98344,2.27339 -9.49097,2.42646 -0.660473,-5.07685 1.73991,-9.7166 7.20199,-13.9184 -1.8068,3.94243 -2.95824,7.44832 -3.4543,10.5174 1.60923,-0.942804 2.75188,-2.11947 6.22602,-2.12995 1.41052,-2.78419 0.199559,-4.91301 0.299339,-7.36923 0.825166,1.56813 1.6509,3.20032 1.99616,4.77666 4.04136,-4.87049 13.981,-2.20394 20.9719,-3.30577 -5.84391,3.49342 -16.2751,-0.222236 -20.9719,6.05679l0.458646 4.4229c-1.6285,2.18636 -2.60107,4.80955 -2.91799,7.87068 3.0583,-1.20161 3.65896,-3.55011 8.68366,-4.09607 -0.161008,-1.63673 -1.47288,-4.04079 -2.94917,-6.5537 1.2532,1.31896 3.4869,3.05858 4.52665,4.69219 8.04643,-4.11166 11.1779,-3.30803 16.1116,-4.79792 -3.60539,3.31455 -9.01304,1.87767 -15.4035,6.83065 0.527528,0.755717 0.210047,1.78186 -0.319465,2.77795l-0.327685 3.60454c-2.51235,1.25603 -1.584,5.13355 -1.63843,7.04523 2.62148,-1.80227 5.07912,-3.44069 7.86444,-4.42375 0.881008,-3.00501 -0.924378,-5.62621 -3.11301,-8.19213 3.25843,1.88136 6.13304,3.98155 6.32183,7.61811l2.52567 0.737859c10.546,-9.9893 20.7627,-18.9315 51.7743,-33.26 -3.94583,-11.3153 -18.7719,-18.3901 -29.967,-21.1337 -7.13084,-1.74728 -13.0107,-11.0923 -5.58681,-17.697l1.1469 0c-0.27326,2.51206 -2.18466,4.36904 -0.819213,7.53676 49.9068,-3.42737 65.3284,-60.7451 27.6894,-85.362 6.49871,-5.57065 12.3423,-5.89833 17.5312,-0.983056 -6.06246,-3.60454 -10.5956,-3.27685 -13.5989,0.983056 6.5126,3.56343 11.7825,8.72448 15.2374,16.2204 3.3857,-0.54652 6.77169,-0.437386 10.1582,0.327685 0.656504,-8.82171 -5.13326,-11.6615 -14.2543,-10.9775l5.40681 -1.80227c-0.874205,-1.42016 -2.29436,-1.96668 -4.91528,-1.63843 0.54567,-1.9114 1.41959,-2.7309 3.27685,-2.45764 -0.764788,-2.40321 -2.67619,-5.13383 -6.71755,-6.22602l4.58759 0.327685c-2.10331,0.0286299 -2.70425,-8.65559 -2.62148,-21.2995 4.25991,0.491528 6.71755,6.22602 9.33903,5.89833 -3.40668,-8.26073 -4.23978,-20.0849 -1.96611,-36.2092 -3.71395,1.50123 -8.02857,5.10577 -12.6159,9.66671 2.60079,-5.4241 8.0555,-10.8482 15.4633,-16.2712zm-59.2917 181.83c-12.4628,-0.678898 -23.6135,2.57811 -38.3718,-0.068315 -3.69553,2.63962 -7.50076,3.63912 -12.0708,3.65556 -5.36882,3.3001 -11.6124,4.85122 -18.7296,4.65392 -4.59723,6.03922 1.40995,10.9851 14.0859,11.8865l0.654803 1.84564c-0.925796,12.9336 11.6521,11.7644 18.3833,15.1863l-1.0355 1.94287c-37.5922,12.2964 -110.605,19.0176 -122.616,-20.1767l14.2897 -2.61893c-3.168,2.40293 -6.33572,4.36904 -9.50287,5.89833 16.8007,21.3299 51.412,29.3514 109.119,15.8927 -3.71395,-4.80614 -14.8005,-3.71395 -13.1074,-14.4181 -14.6169,3.22866 -34.9744,5.07118 -62.2602,5.24296 -2.18466,1.31074 -2.89474,3.44069 -0.163843,6.38986l-0.163843 1.96611c-2.83578,-0.621922 -8.06145,-9.65169 0.491528,-11.9605 8.94756,-0.240378 19.5922,1.13924 27.9332,0.352063 10.9375,-1.03238 17.4195,-2.02507 29.4117,-2.8097 -9.01843,-3.11329 -13.4838,-7.48233 -9.83056,-14.0905 -12.3086,1.22684 -26.2383,1.23817 -40.3053,1.1469 -3.63288,0.873071 -3.96057,4.14992 -2.78532,8.51982l-1.63843 -0.491528c-3.93251,-5.35238 -1.74813,-10.978 4.58759,-11.469 15.565,-0.873922 32.4408,2.34822 46.6951,-2.62148 0.65537,-4.86114 0.65537,-9.72171 0,-14.582l-12.2882 0.819213c-0.874205,6.71726 1.52873,10.7039 9.17519,12.9436 -10.2421,1.3388 -15.1571,-5.3246 -13.2713,-13.4351 -12.0708,1.58315 -28.6197,1.20019 -26.2148,10.1582l-2.94917 -0.65537c-3.65925,-12.3976 24.3031,-11.3598 30.8024,-13.1074 2.67591,-2.18466 -8.24684,-9.77613 1.63843,-12.9436l-0.327685 1.63843c-4.69701,5.51594 6.499,7.59118 6.5537,11.1413l21.6272 -1.96611c0.109134,-3.55011 3.82281,-4.6423 0.327685,-10.6498 4.69673,1.1469 2.02054,10.3221 1.80227,11.7967 4.80586,8.79279 11.4143,9.72114 15.0735,11.6328 16.6536,3.12577 40.0694,-5.61629 42.4352,2.62148l-7.45541 0.732756zm-144.609 9.70583c-3.03534,0.00992126 -6.0704,-0.417544 -9.10517,-1.28126 -0.103748,2.29862 -9.75742,3.15298 -19.1733,4.84583 -12.9027,2.32016 -26.604,10.6679 -31.7183,6.9823 -3.06595,1.15965 -6.78785,4.61509 -11.1657,5.44677 -1.22343,-4.89203 0.177165,-9.34697 4.20208,-13.3637 -7.9818,-1.76117 -10.7161,2.38139 -15.0902,3.57222 -0.223654,-5.09698 0.864567,-9.53774 5.23248,-13.3226 -7.87493,0.534614 -10.5021,5.33282 -14.7691,5.53947 -0.866552,-9.77897 4.17203,-13.1077 11.1798,-15.8893 -3.97814,3.12491 -6.15374,6.41367 -7.51011,10.3581 3.33411,-0.547087 4.86596,-2.89616 9.51109,-2.62375l0.327969 -4.26359 1.31187 -1.31187 0.983906 4.26359c6.77792,-0.765355 13.0643,0.435402 20.3341,-2.29578l-0.655937 2.62375c-6.34054,1.80284 -12.0257,1.31187 -18.0383,1.96781 -0.056126,3.06085 -3.06114,6.12199 -4.59156,9.18312l8.52747 -1.80397 -0.000283465 -5.08337 1.31273 -0.819496 1.31102 5.08309c2.79071,0.708662 16.0676,-2.35106 20.6609,-4.7554l-0.326835 1.47572c-4.70211,3.49682 -10.0596,4.37216 -18.0383,5.57547l0.327969 3.93562c-1.20274,1.85839 -3.06114,6.01257 -2.95172,7.54328l6.55937 -3.60766 1.31187 -5.90344 1.63984 1.31187 0.327969 4.59156c7.21531,2.18636 14.7586,-7.10618 43.2919,-11.1509 2.8423,-8.30863 3.06057,-20.8809 12.7905,-25.9095l-0.983623 2.95172c3.05887,1.64296 6.88592,1.75096 10.823,1.63984l0.327969 3.27969c-3.17055,0.54652 -7.65298,0.218268 -13.4467,-0.983906 -1.9681,3.49824 -3.0617,8.74574 -3.27969,15.7425 3.77178,2.34907 7.87125,2.40435 11.8069,2.62375l-3.25786 3.83244zm-53.8087 -18.919c-2.37827,-0.945922 -4.75682,-2.32895 -7.13452,-4.14907 -5.80422,2.76888 -11.1158,-4.73896 -14.9511,-9.40423 -6.3377,-2.13647 -10.0517,-5.58482 -11.1419,-10.3445 -6.91597,-3.01011 -9.89689,-8.316 -8.93963,-16.5719 -3.02258,-3.18784 -4.59893,-7.20284 -4.72791,-12.045 3.65528,1.50548 3.31852,7.76948 5.8989,8.89484 4.7007,1.31187 9.40139,1.31187 14.1027,0 -2.07723,-3.17055 -3.27997,-6.77821 -3.60766,-10.823 -4.37301,-1.96781 -9.40196,-0.983906 -13.1187,-5.90344l13.1187 3.27969 0 -1.63984 1.63984 1.31187c3.90784,20.4707 18.7209,32.1134 40.9961,37.7164l0 3.60766 -4.26359 -1.63984c-3.3891,4.15418 -7.32473,8.08952 -10.823,11.8069 5.57547,2.18636 10.7133,3.49824 15.4145,3.93562 -4.04504,1.42101 -8.09037,1.96725 -12.4628,1.96781z"/>
  <path fill="#BF9F4F" d="M366.451 438.803c2.32469,-13.8172 16.9452,-8.30835 20.3341,3.60766 -9.61994,7.32501 -21.9121,5.77162 -20.3341,-3.60766z"/>
  <path fill="#006633" d="M388.425 439.787c-13.9935,-17.9289 -29.2986,-7.98038 -18.6942,8.85515 -4.97424,-4.31802 -9.88838,-12.5555 -1.14803,-19.842 3.59093,-2.99395 14.3215,-1.74926 19.8422,10.9868z"/>
  <path fill="white" d="M189.981 555.55c-0.346961,-0.868536 -0.662174,-1.76202 -0.943654,-2.68044 5.35805,-1.10551 10.7161,-3.85087 15.0905,-9.21997 10.7736,-11.4299 9.99723,-19.4437 7.60394,-25.2156 -1.1143,-2.68696 -3.0926,-2.96362 -3.48945,-6.35868 16.2581,10.7442 -0.535748,41.4814 -18.2614,43.4747zm-55.4046 3.66775c-0.526961,0.176315 -1.06384,0.321732 -1.61093,0.425481 -1.22343,-4.89203 0.177165,-9.34697 4.20208,-13.3637l2.26091 0.0388347c-5.20214,5.73307 -6.20504,9.78719 -4.85207,12.8993zm-7.26662 -22.6885c-4.36791,3.78482 -5.45613,8.22558 -5.23248,13.3226 0.54652,-0.148819 1.06781,-0.344126 1.57663,-0.56778 -1.07717,-1.75351 0.248599,-5.47285 3.97786,-11.1577l-0.322016 -1.59704zm23.0094 -11.7987c-8.86621,1.2481 -26.9155,-3.40725 -26.5986,1.44879 -7.00781,2.78164 -12.0464,6.11037 -11.1798,15.8893 0.799937,-0.0385512 1.54233,-0.238961 2.27254,-0.542268 -1.28466,-5.70756 1.15852,-10.5276 9.05018,-14.0499 1.67301,-3.67682 4.48583,-2.48428 12.5668,-1.5789 9.15903,1.02614 23.828,1.87143 28.2906,-1.75068 3.10309,-2.51858 3.32419,-4.62444 0.687402,-9.51931 -1.95336,-3.62551 1.83232,-12.6794 -4.51644,-14.5128 4.67235,4.26699 1.04372,8.17285 2.64132,12.7188 1.3561,3.85909 2.60391,7.26435 0.527528,9.52838 -2.86299,3.12151 -9.18171,2.49619 -13.7415,2.36863zm-38.5583 -27.4125c-3.0634,-3.09997 -4.26671,-7.38142 -3.60879,-13.0572m-2.72381 -3.80608c-2.14951,-4.13377 -2.57726,-9.25172 -1.28324,-15.3533 -6.93355,-4.97509 -2.32725,-21.0645 -3.10224,-31.5363 -1.23789,-16.7284 -7.46788,-19.1622 -10.0678,-29.2536 -1.34731,-5.22907 -0.202961,-12.6352 2.17417,-14.559 2.87773,-2.32951 4.48016,-3.87751 6.47745,-0.794835 -8.20319,0.639213 -8.77153,11.107 -4.92803,18.9967 3.81629,7.83298 8.54674,19.1574 8.26526,22.7055 -1.56246,19.688 -2.52737,29.8718 3.04073,34.0648 -1.93975,3.4954 -2.13222,8.73837 -0.576284,15.73zm8.9881 -89.3897c-4.52778,-1.7365 -8.72731,0.134646 -12.5989,2.66202l1.23789 0.873071c2.63991,-0.686835 4.78857,-3.50362 11.361,-3.53509zm1.79802 11.4301c0.414425,-0.579118 0.842741,-1.15143 1.28438,-1.71666 -3.97446,-1.0474 -7.94778,0.210898 -11.9214,1.79802l-0.228189 2.01799c2.47465,-0.536032 5.60495,-3.20202 10.8652,-2.09934zm19.0176 3.83641c1.29005,13.4164 -3.0994,21.3035 -9.2075,22.5394 -3.18359,0.644315 -6.1407,0.357449 -8.72193,-1.1143 5.32687,8.49969 22.5326,1.10665 20.1597,-21.6876l-2.2303 0.262488zm-0.0272126 -13.5865c-3.64422,5.60268 -10.5681,7.92596 -10.9324,16.8086 0.744378,-0.216851 1.43206,-0.429166 2.07128,-0.633827 0.0470551,-7.2309 7.30318,-11.0211 11.4463,-15.7944l-2.5852 -0.38041zm-10.1282 1.62794c-0.760252,0.200126 -1.52561,0.38041 -2.3023,0.514205 -0.356599,-5.22199 3.22243,-10.4443 10.7371,-15.6657 -0.422079,-9.55333 -3.46791,-11.2354 -5.20186,-16.8528 3.53367,3.36132 5.92895,5.85751 7.18668,17.3217 -8.27944,6.20476 -11.753,11.0988 -10.4196,14.6826zm55.8593 33.1742c0.257386,-0.708095 0.472536,-1.41619 0.644599,-2.124 -10.0063,-0.456378 -15.0931,-2.88057 -18.5397,-3.9926 1.52221,2.57188 5.43629,4.85632 17.8951,6.1166zm2.56621 5.86205l-4.88608 -1.18743c-5.04766,0.691654 -10.4372,-1.00885 -15.9219,-3.37862 4.5326,4.8532 13.4345,6.53868 20.808,4.56605zm-6.50977 41.5471c-18.3305,1.85301 -28.8666,-1.48989 -30.5527,-8.97421 2.59399,7.84347 9.71689,13.1324 29.3618,11.3584l1.19084 -2.38422zm202.004 -2.92394c-8.57141,9.29991 -31.6177,6.96444 -50.4071,1.56076l-1.23335 2.76435c41.8266,10.4718 55.3397,0.172913 59.4227,-13.337 3.90869,-12.9328 2.80205,-23.3481 -3.71622,-27.9513l3.44069 7.20907c-7.93304,7.18186 -17.9002,7.40013 -19.4973,-4.25991 -2.96362,10.1171 8.42372,13.2024 20.3165,7.20907 0.501166,12.8667 -2.27424,21.8018 -8.32593,26.805zm-38.52 -38.5387c-3.88006,4.69701 -4.1315,10.1324 -1.16986,14.6446 -0.76167,-4.43849 -0.704126,-8.74035 1.15682,-12.7415 1.31046,2.29351 3.54926,3.7131 5.73449,3.76838 -2.56252,-2.05455 -3.97814,-3.61729 -5.72145,-5.67156zm46.2269 -42.3292c-0.635528,3.95547 -0.615118,7.91122 0.0615118,11.867 -2.48372,-0.286866 -4.96744,-0.135496 -7.45115,0.452977 -8.42571,-3.07276 -14.6645,-2.20961 -18.7172,2.58945 -7.23912,1.11572 -13.1936,4.5275 -13.4354,11.2195 -4.95099,2.08176 -7.44237,5.6401 -7.47355,10.6741 2.88,-5.33339 5.3229,-8.26413 7.32955,-8.79109 1.31046,5.35266 2.89389,8.79308 5.07912,8.02829 -6.78643,-5.54372 -4.02832,-17.9958 7.53676,-19.3334 -0.928914,3.7406 -1.03833,7.07216 0.65537,9.50287 -0.493229,-10.6243 3.38372,-16.742 16.8758,-12.9436 -3.27714,3.00331 -5.46208,6.33487 -3.44069,9.17519 3.62495,-13.7903 18.7659,-8.00164 18.8419,-3.27685 -4.53345,0.982772 -7.10022,2.83947 -7.7006,5.57065 5.58425,-5.27103 11.3457,-5.92611 17.3673,0.163843 -0.642048,-1.82353 -2.0931,-5.33764 -8.02829,-5.73449 -0.764788,-3.44069 -2.84003,-5.73449 -6.71755,-6.38986 -0.163843,-4.47846 -0.491528,-7.97386 0.983056,-12.452l-1.76599 -0.322583zm21.1776 -36.2574c0.0547087,-0.927497 0.104882,-1.85839 0.147685,-2.79298 -15.9846,8.86026 -30.0008,28.2161 -31.2259,42.3247 0.745512,0.205512 1.67556,0.0419528 2.79014,-0.334488 -1.48025,-10.2807 17.5884,-35.9623 28.2881,-39.1972zm-83.0954 219.855c-0.723685,0.491811 -1.49471,0.975402 -2.40406,1.42413 -1.97376,-5.68432 -0.886394,-10.9312 3.26268,-15.7405l2.6949 0.454961c-4.87219,6.09506 -5.23729,10.3878 -3.55351,13.8614zm-8.08838 -11.4534c-0.92693,0.486709 -1.84989,0.865701 -3.02882,0.955843 0.414142,-4.23723 0.500315,-8.14649 3.21052,-12.3837l2.77654 -1.30224c-3.47188,8.25789 -5.16841,13.6485 -2.95824,12.7301zm-6.98287 -9.51591c-0.888378,0.273827 -1.69965,0.476221 -2.32639,0.514488 -0.660473,-5.07685 1.73991,-9.7166 7.20199,-13.9184 0.887245,-4.77213 25.7162,-2.98488 34.147,-6.44485l3.1955 -0.0773859c-2.89474,4.47818 -23.8119,4.04136 -35.7177,6.06218 -0.0368504,4.1298 -8.10199,4.98274 -6.50041,13.864zm-30.1496 -11.6076c-4.59723,6.03922 1.40995,10.9851 14.0859,11.8865l0.654803 1.84564c-0.925796,12.9336 11.6521,11.7644 18.3833,15.1863l-1.0355 1.94287c-13.273,-3.66321 -20.7544,-7.75304 -18.7041,-17.0612 -14.6744,-2.25213 -17.9345,-5.81443 -13.3844,-13.8002z"/>
  <path fill="#339966" d="M111.947 484.719c-0.765355,5.57547 3.06085,9.18312 5.57547,11.8069 5.2475,0 8.52719,-3.27969 12.7908,-4.91953 -2.18806,-2.29408 -4.26614,-4.69899 -5.57547,-7.87125 -4.26359,0.327969 -7.87125,1.63984 -12.7908,0.983906z"/>
  <path fill="#339966" d="M120.802 499.477c1.53043,5.57547 5.6846,8.19922 9.18312,9.51109 3.60766,-0.655937 8.19922,-4.59156 12.7908,-7.21531 -4.48384,-1.96611 -8.85771,-5.6829 -10.167,-7.87125 -2.29578,1.96781 -7.54328,5.2475 -11.8069,5.57547z"/>
  <path fill="#339966" d="M133.921 510.628c1.85839,4.59156 6.99648,5.57547 10.823,5.90344 3.60766,-2.62375 6.55937,-6.55937 10.823,-10.167 -4.81181,-1.31017 -8.85771,-3.05915 -9.83906,-4.26359 -0.983906,2.62375 -7.21531,7.21531 -11.8069,8.52719z"/>
  <path fill="#339966" d="M285.085 522.562c0.437386,5.51594 0.27326,10.4309 -0.163843,15.0735 4.32879,-0.0668977 7.63257,-1.84252 10.6498,-4.09607 1.09219,-3.87808 1.09219,-7.75559 0,-11.6328 -3.33156,0.710079 -6.99081,0.764788 -10.4859,0.65537z"/>
  <path fill="#339966" d="M299.012 525.019c0.382677,2.45764 0.655654,4.91528 0.163843,7.37292 2.62148,0.327685 4.91528,0.163843 7.37292,0 -2.94945,-2.45764 -5.46208,-4.91528 -7.53676,-7.37292z"/>
  <path fill="white" d="M296.718 504.539c12.8341,6.93581 -4.80614,18.7872 16.3843,26.7063l-2.45764 1.47458c-20.535,-11.0322 -3.71395,-17.3129 -13.9266,-28.1809z"/>
  <path fill="#339966" d="M358.978 506.013c6.33515,4.09607 18.7325,7.7006 21.4634,7.37292 1.61093,-5.21632 0.51874,-9.53008 -1.80227,-13.4351 -6.36265,2.59455 -12.8616,4.77978 -19.6611,6.06218z"/>
  <path fill="#339966" d="M381.588 498.149c1.63843,3.33099 2.62148,7.31792 2.94917,11.9605 3.87751,-0.92863 7.31821,-3.6051 10.3221,-8.02829 -0.54567,-3.63203 -1.63843,-7.39956 -3.93222,-11.469 -2.70369,2.92224 -5.76199,5.48929 -9.33903,7.53676z"/>
  <path fill="#339966" d="M394.064 488.667c2.25468,2.94917 2.68299,6.50552 3.90643,10.9959 3.62325,-1.66422 5.82265,-5.77786 7.9098,-10.7002 -0.585638,-3.62069 -2.06164,-5.95701 -5.10265,-9.50315 -2.08432,3.39166 -3.60227,6.5041 -6.71358,9.2075z"/>
  <path fill="#339966" d="M402.686 476.206c2.77314,2.46756 3.54104,4.40306 5.59474,8.57963 3.24142,-2.32186 4.78403,-5.95871 5.8989,-11.1878 -1.26255,-3.44381 -3.48293,-5.94907 -7.14161,-8.85345 -1.40258,3.72586 -1.81077,8.21679 -4.35203,11.4616z"/>
  <path fill="#339966" d="M407.078 462.605c3.42794,1.42469 5.11455,2.01969 8.42145,5.29455 2.30343,-3.25446 1.58825,-7.35959 0.931182,-12.6658 -2.31931,-2.84117 -5.56498,-4.31858 -8.98923,-4.88353 -0.106583,3.97984 0.976536,8.35711 -0.363402,12.2547z"/>
  <path fill="#339966" d="M406.863 447.123c3.63884,0.73389 5.73648,0.82715 9.61512,3.39959 1.62964,-3.63884 -0.19474,-8.67459 -1.8669,-12.2783 -2.82558,-2.3383 -6.62372,-2.99566 -10.0925,-2.8868 0.665859,3.92514 2.24873,7.02652 2.34425,11.7655z"/>
  <path fill="#339966" d="M358.361 464.255c2.45537,3.90898 7.80605,4.248 12.3344,2.49194 0.796819,-1.73991 2.08517,-3.31597 2.39102,-5.21915 -2.89021,-0.0490394 -5.90372,-0.211748 -7.7298,-1.14265 -1.65827,1.42299 -3.74343,2.86441 -6.99563,3.86986z"/>
  <path fill="#339966" d="M347.509 454.731c0.873355,4.53288 3.54955,6.99052 8.35597,8.02829l6.5537 -3.93222c-2.67647,-1.09219 -5.51651,-2.89474 -6.88139,-4.42375 -2.2938,0.600662 -4.75144,1.03748 -8.02829,0.327685z"/>
  <path fill="#339966" d="M376.345 462.104l-1.47458 4.75144c2.02082,0.272977 4.04107,0.272693 6.06218,-0.327685 1.69285,-1.85698 2.89446,-3.71395 3.60454,-6.06218 -2.73118,1.20217 -5.4618,1.74784 -8.19213,1.63843z"/>
  <path fill="#339966" d="M162.203 423.437l0 5.07912c8.79251,3.16715 14.3084,3.05802 16.5481,-0.327685 -6.00803,-0.355181 -11.4148,-2.21188 -16.5481,-4.75144z"/>
  <path fill="#339966" d="M161.384 430.482c-0.901418,2.70312 -0.300756,5.10633 0.983056,7.37292 8.79251,3.16715 13.8169,0.764221 16.0566,-2.62148 -6.00803,-0.355181 -11.9064,-2.21188 -17.0396,-4.75144z"/>
  <path fill="#339966" d="M107.807 412.459l-2.2938 -7.37292c2.29351,-1.31046 4.80558,-2.1841 7.53676,-2.62148 -2.51263,2.56706 -4.04192,6.55427 -5.24296,9.9944z"/>
  <path fill="#339966" d="M104.039 401.482l-1.96611 -6.5537c2.29351,-1.31046 5.62479,-2.67562 8.35597,-3.11301 -2.51263,2.56706 -5.18882,6.22659 -6.38986,9.66671z"/>
  <path fill="#006633" d="M254.283 514.369c-1.44737,-0.955843 1.72857,-3.0617 1.55622,-4.83364 -0.299906,-3.08495 -3.54983,-4.69673 -2.70312,-5.48844 1.39238,-1.33824 4.32766,1.62425 4.73046,4.85348 0.402803,3.22923 -1.39947,6.39666 -3.58356,5.4686z"/>
  <path fill="#006633" d="M291.803 514.879c-0.628158,-0.120756 2.21981,-2.99339 2.04775,-4.55811 -0.299906,-2.72438 -2.73062,-4.14794 -1.88391,-4.84725 1.39238,-1.18176 3.3446,1.41534 3.7474,4.26699 0.402803,2.85194 -1.72715,5.95786 -3.91125,5.13836z"/>
  <path fill="#006633" d="M311.791 521.925c-0.628158,-0.120756 2.21981,-2.99339 2.04775,-4.55811 -0.299906,-2.72438 -2.73062,-4.14794 -1.88391,-4.84725 1.39238,-1.18176 3.3446,1.41534 3.7474,4.26699 0.402803,2.85194 -1.72715,5.95786 -3.91125,5.13836z"/>
  <path fill="#006633" d="M319.82 498.823c-1.11969,-1.59534 5.00514,-2.33802 4.66923,-5.54117 -0.299906,-4.85405 -5.3521,-5.29484 -4.50539,-5.99386 1.39238,-1.18205 6.14353,0.746079 6.53273,5.57774 0.335906,4.16892 -6.1509,7.75985 -6.69657,5.95729z"/>
  <path fill="#006633" d="M339.153 501.936c-1.11969,-1.59534 5.00514,-2.33802 4.66923,-5.54117 -0.299906,-4.85405 -5.3521,-5.29484 -4.50539,-5.99386 1.39238,-1.18205 6.14353,0.746079 6.53273,5.57774 0.335906,4.16892 -6.1509,7.75985 -6.69657,5.95729z"/>
  <path fill="#006633" d="M349.712 524.545c-0.892063,-1.04485 3.85909,-2.36438 2.96362,-5.4584 -1.15115,-4.72507 -3.41632,-4.104 -3.03392,-4.94164 0.834804,-2.71984 4.55584,1.87143 5.12022,4.82996 0.583654,3.05915 -4.19499,7.24848 -5.04992,5.57008z"/>
  <path fill="#006633" d="M379.71 491.499c-1.16958,-0.720851 4.02888,-2.75017 2.22747,-5.42013 -2.54495,-4.14397 -5.38016,-1.42186 -5.78041,-2.43695 -0.96463,-1.53383 4.33701,-3.03591 6.94942,1.04627 2.25383,3.52205 -2.06788,8.14593 -3.39647,6.81081z"/>
  <path fill="#006633" d="M331.362 518.81c-0.892063,-1.04485 3.85909,-2.69235 2.96362,-5.78608 -1.15115,-4.72507 -6.20164,-4.26813 -5.49156,-5.10548 1.16221,-1.40882 6.17896,-0.348662 7.41374,4.33843 1.06554,4.04447 -4.03087,8.23153 -4.8858,6.55314z"/>
  <path fill="#006633" d="M359.215 491.612c-0.89178,-1.04513 4.6783,-1.38161 3.78284,-4.47562 -1.15087,-4.72507 -6.03751,-3.61247 -5.32744,-4.44983 1.16221,-1.40882 5.68772,-0.839906 6.92221,3.8469 1.06526,4.04419 -4.52268,6.75666 -5.37761,5.07855z"/>
  <path fill="#006633" d="M390.823 474.867c-1.00602,-0.443055 2.2354,-2.29436 0.514488,-4.21257 -2.47238,-3.00444 -4.25622,-0.699307 -4.68482,-1.46013 -1.42441,-1.60073 3.43162,-2.71843 5.94992,0.229606 2.17247,2.54353 -0.579969,6.355 -1.77959,5.44309z"/>
  <path fill="#006633" d="M402.221 455.607c-1.03493,0.370488 0.044504,-3.20287 -2.52397,-3.4115 -3.86136,-0.480473 -3.57052,2.41965 -4.40504,2.16255 -2.13506,-0.182268 0.621071,-4.33389 4.47676,-3.92599 3.32646,0.352063 3.95036,5.01194 2.45225,5.17493z"/>
  <path fill="#006633" d="M394.562 436.933c-0.841607,0.319465 0.0362835,-2.76236 -2.05257,-2.94208 -3.13994,-0.414425 -2.90353,2.08687 -3.58214,1.86491 -1.73622,-0.157323 0.505134,-3.73748 3.64054,-3.3857 2.7051,0.303591 3.21222,4.32227 1.99417,4.46287z"/>
  <path fill="#006633" d="M374.618 420.454c0.475654,0.763937 -2.71758,0.497197 -2.49109,2.58151 0.199276,3.16091 2.60788,2.4463 2.52114,3.15496 0.180567,1.73395 -3.76469,0.225354 -4.02463,-2.91884 -0.223937,-2.71304 3.62155,-3.98608 3.99458,-2.81764z"/>
  <path fill="#006633" d="M358.146 427.939c0.786048,0.0997796 -1.13528,2.44177 0.425481,3.55465 2.28898,1.80113 3.10649,-0.532347 3.54813,-0.0255118 1.2943,0.932032 -1.89298,3.09543 -4.20321,1.35213 -1.99332,-1.50406 -0.779244,-5.31185 0.229606,-4.88126z"/>
  <path fill="#006633" d="M357.253 443.473c0.729922,0.0348662 0.0578268,2.10444 1.8428,2.35021 2.67959,0.513355 2.38082,-1.99417 2.95625,-1.75096 1.48365,0.212032 -0.534048,3.71991 -3.21109,3.26892 -2.30967,-0.388914 -2.63565,-3.76611 -1.58797,-3.86816z"/>
  <path fill="#006633" d="M372.85 454.454c0.33789,-0.647717 1.93465,0.829985 2.90636,-0.687402 1.58939,-2.21726 -0.812126,-2.99764 -0.350079,-3.41802 0.814394,-1.25802 3.15298,2.04463 1.62113,4.28599 -1.32123,1.9338 -4.5241,0.813544 -4.17742,-0.180567z"/>
  <path fill="#006633" d="M275.61 514.804c-1.20302,-1.24951 2.52057,-1.95392 2.57641,-4.37584 0.0711496,-3.09855 -2.4361,-5.35975 -1.4366,-5.94709 1.65147,-1.00091 3.86731,2.53191 3.55351,5.77106 -0.313512,3.23915 -3.42057,5.93547 -4.69333,4.55188z"/>
  <path fill="#006633" d="M231.864 516.115c-1.20302,-1.24951 3.83103,-2.44545 3.88687,-4.86709 0.0714331,-3.09827 -3.41887,-5.52388 -2.41937,-6.11122 1.65147,-1.00091 4.52268,3.18728 4.20888,6.42643 -0.313512,3.23915 -4.40362,5.93547 -5.67638,4.55188z"/>
  <path fill="#006633" d="M183.367 525.781c-1.20302,-1.24951 4.32255,-1.95449 4.37868,-4.37556 0.072,-3.0977 -3.58271,-4.37698 -2.5835,-5.61969 0.996095,-1.16504 4.52268,2.20422 4.20945,6.26259 -0.250866,3.24454 -4.73188,5.11625 -6.00463,3.73266z"/>
  <path fill="#006633" d="M188.773 507.267c-0.056126,-1.2498 5.23219,-1.95534 5.19761,-4.86709 -0.0365669,-3.09685 -4.42347,-4.86964 -3.07474,-6.11122 0.996095,-1.16504 5.2475,2.37458 4.86454,6.42643 -0.414992,4.3903 -6.53386,5.93518 -6.98741,4.55188z"/>
  <path fill="#006633" d="M170.75 513.985c-0.056126,-1.24951 4.83364,-0.975402 4.70608,-3.88403 -0.200126,-4.57087 -4.91471,-5.68885 -3.56599,-6.93043 0.996095,-1.16504 5.90315,2.86696 5.51991,6.91824 -0.415559,4.38973 -6.20646,5.27981 -6.66,3.89622z"/>
  <path fill="#006633" d="M163.568 492.585c0.236126,-1.22825 4.92775,0.175465 5.48051,-2.68299 0.868252,-4.49235 -3.45714,-6.67616 -1.85669,-7.56993 1.23959,-0.901418 5.07459,4.16126 3.75959,8.01213 -1.42469,4.17288 -7.26407,3.69184 -7.38341,2.24079z"/>
  <path fill="#006633" d="M142.199 491.724c0.657638,-1.06384 4.54309,1.91707 6.07635,-0.557859 2.40973,-3.88914 -0.85578,-7.46901 0.958111,-7.73519 1.47912,-0.401386 3.26211,5.69452 0.663024,8.82567 -2.81622,3.39307 -8.10227,0.865985 -7.69748,-0.53263z"/>
  <path fill="#006633" d="M132.281 478.019c0.82715,-0.938268 4.15588,2.65351 6.08344,0.471685 3.02939,-3.42879 0.412441,-7.50671 2.24504,-7.46391 1.52561,-0.146835 2.25836,6.16196 -0.830268,8.8115 -3.34658,2.87121 -8.13232,-0.508819 -7.49821,-1.81928z"/>
  <path fill="#006633" d="M165.152 465.217c-8.13062,-8.55893 -6.88026,-25.56 -14.9068,-24.9041 -4.36195,0.356599 -7.26293,3.97673 -2.78816,11.3051 -0.360567,-4.75682 -1.09446,-8.85515 3.47726,-7.49141 5.45755,1.62794 3.69099,14.6084 14.2177,21.0903z"/>
  <path fill="#006633" d="M147.293 398.86c-0.436819,-2.56677 -1.20132,-4.80586 -0.327685,-7.20907 7.91915,-2.56677 -2.67591,-10.0488 -3.76838,-2.2938 1.02387,4.90337 2.30769,8.15415 4.09607,9.50287z"/>
  <path fill="#006633" d="M150.734 432.94c0.338457,-5.0675 2.45764,-7.70769 1.67017,-11.1067 -1.13584,-4.90337 -4.89402,-6.03893 -5.53862,-9.468l-1.70221 -0.560977c0.629575,4.27295 -0.0796536,7.94863 0.663307,11.365 0.84189,3.87269 2.61468,4.25424 4.90734,9.77075z"/>
  <path fill="white" d="M154.011 420.651c-3.27714,-0.10885 -6.11745,0.437386 -8.51982,1.63843 3.03109,0.983906 5.92526,0.874772 8.51982,-1.63843z"/>
  <polygon fill="#FFC8C8" points="202.467,508.004 207.714,500.133 203.123,499.805 199.515,507.021 "/>
  <path fill="#8C0000" d="M212.634 137.728l0.327969 5.2475c-2.18636,0.655937 -4.81011,4.91953 -7.87125,13.4467 -0.658772,-3.82762 -1.09729,-7.54611 0,-10.495l-32.1409 11.8069c5.2115,3.82592 4.73443,7.65213 4.59156,11.4789 -1.63984,-6.55966 -4.15389,-10.0582 -7.54328,-10.495 2.4052,5.46605 0.382961,13.4739 0.69704,18.817 0.314079,5.34303 1.98142,7.03786 0.942804,10.0443 -0.436819,1.53014 -2.18608,-0.000566929 -5.2475,-4.59156 0.546803,-8.85515 1.74926,-17.0544 1.63984,-26.5655 16.8358,-8.52719 36.9513,-14.7586 44.6037,-18.6942z"/>
  <path fill="#F00000" d="M311.024 503.085c-6.44996,-0.765071 -11.1507,-2.40491 -14.1027,-4.91953 0.765355,-1.53043 6.12227,-4.37273 9.18312,-5.57547l4.91953 10.495z"/>
  <path fill="#FFC8C8" d="M311.024 503.085c-0.806174,-0.0955276 -1.58513,-0.204945 -2.3366,-0.327685l-5.20129 -9.00369c0.944504,-0.459496 1.85329,-0.535181 2.61836,-0.835654l4.91953 10.167z"/>
  <path fill="#F00000" d="M290.983 146.543c-0.327402,2.94888 -0.873355,5.46095 -1.63843,7.53676 2.40321,5.73392 2.7309,13.5437 1.63843,22.7741 8.51982,-1.95279 7.7006,-28.3042 0,-30.3109z"/>
  <path fill="#F00000" d="M299.217 174.788c-4.48186,11.4239 -6.44967,30.9929 -8.19922,47.2275 16.956,31.3447 24.0134,56.4299 20.662,184.646 12.8982,-0.794268 14.349,-12.4277 26.4101,-19.4471 26.8472,-15.6249 0.440504,-18.4904 3.73777,-32.3306 1.35411,-5.68375 21.9864,-12.4467 22.5371,-21.8115 1.05846,-17.998 -8.93821,-12.907 -22.1839,-129.423 -10.931,-0.949323 -26.5635,-10.4026 -42.9639,-28.8612z"/>
  <path fill="#FF9999" d="M334.966 202.994c-0.983906,36.0766 0.983906,93.1431 -2.95172,108.23 2.51433,0.437103 4.59128,-1.31244 6.2314,-5.2475l0.327969 -101.67 -3.60766 -1.31187z"/>
  <path fill="#FF9999" d="M343.493 318.111l-2.95172 40.9961c0.871654,-3.1731 1.96328,-6.12709 4.59156,-7.54328l2.29578 -35.0926c0.218551,-0.437103 -3.49852,-4.15418 -3.93562,1.63984z"/>
  <path fill="#8C0000" d="M338.574 306.632l-4.26359 4.26359c17.8194,0.218551 27.112,16.8355 27.8773,22.3019 1.31187,-18.2571 -13.1187,-21.4274 -23.6137,-26.5655z"/>
  <path fill="#F00000" d="M352.348 368.29c-0.109417,-3.93562 -1.53071,-11.1509 -2.29578,-16.7264 -12.0257,6.55937 -0.437386,12.7908 2.29578,16.7264z"/>
  <path fill="#8C0000" d="M408.95 115.249c-2.86668,-9.8589 -6.85389,-18.216 -12.7797,-23.2656 4.44019,0.951308 11.8959,10.8349 12.7797,23.2656z"/>
  <path fill="#8C0000" d="M402.724 115.249c-0.996945,-7.74199 -6.1594,-12.6301 -11.9616,-15.565 6.23963,0.652819 11.8386,6.16904 11.9616,15.565z"/>
  <path fill="#8C0000" d="M399.283 117.215c-2.07553,-7.11383 -7.59289,-12.2207 -14.9108,-12.7803 0.530079,-1.75408 12.1955,1.46551 14.9108,12.7803z"/>
  <path fill="#F00000" d="M193.661 134.091c1.96611,-9.01134 13.9266,-11.3051 20.1526,-17.695 0.0544252,2.45764 -0.382394,4.75144 0.163843,7.37292 -2.84003,3.60454 -11.0869,4.58759 -20.3165,10.3221z"/>
  <path fill="#8C0000" d="M102.237 117.543c-3.65046,-1.49414 -3.20429,-4.01669 0.491528,-5.07912 -3.11754,1.17099 -3.11471,4.28173 -0.491528,5.07912z"/>
  <path fill="#8C0000" d="M104.039 123.769c-3.65046,-1.49414 -3.20429,-4.01669 0.491528,-5.07912 -3.11754,1.17099 -3.11471,4.28173 -0.491528,5.07912z"/>
  <path fill="#8C0000" d="M103.22 129.995c-3.65046,-1.49414 -3.20429,-4.01669 0.491528,-5.07912 -3.11754,1.17099 -3.11471,4.28173 -0.491528,5.07912z"/>
  <path fill="#8C0000" d="M103.056 137.04c-3.65046,-1.49414 -3.20429,-4.01669 0.491528,-5.07912 -3.11754,1.17099 -3.11471,4.28173 -0.491528,5.07912z"/>
  <polygon fill="#8C0000" points="101.581,104.927 102.564,104.927 101.909,108.859 "/>
  <path fill="#F00000" d="M216.241 146.911l-2.95172 -1.63984c-5.54769,9.78407 -5.38356,18.5298 -1.31187,26.5655 -0.765071,-3.17055 -0.655654,-5.46633 0.327969,-6.88734 0.983906,5.02895 2.40548,8.30835 4.26359,9.83906 -3.02485,-9.83821 -3.42595,-16.1785 -1.20387,-19.0196 -0.64063,-2.01969 -2.21443,-3.10649 0.875906,-8.85771z"/>
  <path fill="#FFC8C8" d="M227.392 223.984l-2.95172 -1.63984c-7.24224,13.7194 -11.9976,28.15 -13.1187,43.6198l2.29578 -2.29578c2.54183,-16.098 7.18838,-28.3972 13.7747,-39.6842z"/>
  <polygon fill="#FFC8C8" points="237.887,222.344 236.903,234.151 238.543,233.823 242.807,224.968 241.495,223 "/>
  <polygon fill="#FFC8C8" points="263.469,208.241 262.813,215.128 264.453,214.8 266.749,209.225 "/>
  <path fill="#FFC8C8" d="M262.485 284.658l-1.96781 6.55937c1.31187,67.0147 2.62375,178.961 3.93562,201.045 2.51433,4.91953 5.02838,6.77764 7.54328,5.57547 -2.51462,-4.04504 -4.37301,-9.07399 -4.59156,-18.0383 -0.983906,-101.124 -3.27969,-130.094 -4.91953,-195.141z"/>
  <path fill="#8C0000" d="M296.594 475.864l-8.19922 -13.1187c-5.13836,10.9321 -0.437386,16.289 8.19922,13.1187z"/>
  <path fill="#FFC8C8" d="M290.362 428.964l-2.62375 0.327969 0.327969 25.5816c-0.546803,11.8069 5.13808,16.0705 9.18312,21.6459l3.27969 -4.26359c-7.98067,-6.01285 -10.0579,-11.3698 -10.167,-19.0222l0 -24.2697z"/>
  <path fill="#FFC8C8" d="M210.01 465.041l-0.327969 4.26359c4.15418,4.94533 11.9157,7.69522 12.4628,-4.91953l-1.31187 -0.327969c-1.96781,9.83906 -7.54328,6.55937 -10.823,0.983906z"/>
  <path fill="#8C0000" d="M212.962 418.141l-1.96781 -2.95172 0.983906 39.6842c-3.99005,7.10589 1.53524,17.4546 5.28832,15.0455 4.61225,-2.96079 -2.11805,-5.58907 -2.66457,-12.7497l-1.63984 -39.0283z"/>
  <path fill="#FFC8C8" d="M171.966 187.579c7.6527,0.655937 -0.765071,-10.167 1.63984,-20.662l-2.29578 0.327969c0.163843,3.55295 -1.14747,8.90986 -0.737859,12.5444 0.409607,3.63487 2.21358,4.56463 1.3938,7.78961z"/>
  <path fill="#FFC8C8" d="M176.229 159.046l2.62375 0c1.31102,2.51433 1.74841,5.46577 1.31187,8.85515l-1.96781 0c-0.218551,-2.952 -0.874772,-5.90372 -1.96781,-8.85515z"/>
  <path fill="#FF9999" d="M232.312 35.0737c-5.02895,5.57575 -9.29254,12.6816 -10.823,20.0061 -0.218268,-8.19922 4.04476,-15.3048 10.823,-20.0061z"/>
  <path fill="#FF9999" d="M234.608 42.6169c-5.02895,5.57575 -7.32473,10.3859 -8.85515,17.7103 -0.218268,-8.19922 2.07695,-13.009 8.85515,-17.7103z"/>
  <path fill="#FF9999" d="M231.656 40.6491c-5.02895,5.57575 -6.99676,9.72993 -8.52719,17.0544 -0.218268,-8.19922 1.74898,-12.3531 8.52719,-17.0544z"/>
  <path fill="#FF9999" d="M254.286 45.2407c-1.58967,-1.5018 -3.75364,3.03506 -3.60766,-19.0222 13.8838,-0.655937 20.2246,4.26359 22.9578,8.85515 -10.5681,-7.81597 -15.448,-7.10051 -20.662,-6.88734 4.91896,0.656221 8.08923,1.74983 9.51109,3.27969l-8.84863 -0.791717 -0.662457 1.11969 6.55937 1.63984 -6.2314 -0.327969 0 1.63984 6.88734 2.62375 -6.55937 -0.327969 0.655937 8.19922z"/>
  <path fill="#8C0000" d="M265.765 46.2246c3.19777,3.25304 5.87651,7.02454 8.19922,11.1509 -0.983623,-5.87566 -3.71651,-9.64715 -8.19922,-11.1509z"/>
  <path fill="#8C0000" d="M267.404 43.2729c3.19777,3.25304 5.54854,6.3686 7.87125,10.495 -1.96753,-5.87537 -4.15361,-8.99093 -7.87125,-10.495z"/>
  <path fill="#8C0000" d="M270.028 40.3212c3.19777,3.25304 5.54854,6.3686 7.87125,10.495 -1.96753,-5.87537 -4.15361,-8.99093 -7.87125,-10.495z"/>
  <path fill="#8C0000" d="M272.324 38.6813c3.19777,3.25304 5.87651,6.3686 6.2314,7.54328 -1.2668,-5.87452 -3.59178,-6.69459 -6.2314,-7.54328z"/>
  <path fill="#BF9F4F" d="M287.411 91.4843c-0.55474,-26.2392 0.352914,-44.7234 -4.67235,-52.0076 -9.33364,-13.5292 -22.3348,-17.6414 -33.0046,-16.2122 -11.952,-1.94684 -25.9713,3.66378 -32.1594,17.4719 -5.81273,12.9708 -2.90296,31.0354 -5.59644,55.3394 -17.3548,-19.3533 -16.3667,-74.0129 36.6894,-78.0271 29.0809,-2.19997 62.9564,34.3511 38.7434,73.4355z"/>
  <path fill="#8C0000" d="M270.394 23.099c-6.88706,-3.72813 -14.457,-5.60013 -21.727,-5.05021 -53.0561,4.01414 -54.0442,58.6738 -36.6894,78.0271l1.96781 4.26359c-24.946,-20.8123 -17.5142,-61.5181 7.06054,-77.0176 15.3995,-9.71263 48.712,-14.3442 69.3562,12.7358 -6.65603,-5.54911 -13.3124,-10.0324 -19.9681,-12.9586z"/>
  <path fill="white" d="M211.978 96.0758c2.69348,-24.304 -0.216284,-42.3686 5.59644,-55.3394 6.18803,-13.8081 20.2073,-19.4187 32.1594,-17.4719 10.6699,-1.42923 23.6713,2.68328 33.0046,16.2122 0.941953,1.36545 1.34787,3.12548 1.92161,5.256 -6.84567,-12.4566 -21.7809,-21.579 -34.6377,-19.1702 -12.2562,-1.3235 -23.0502,1.3028 -28.3802,12.2409 -9.66104,19.8264 -4.56548,55.7462 -9.66416,58.2724zm77.4006 0.983906c14.7532,-29.0424 13.7897,-53.9989 -15.1889,-71.6718 18.5522,12.3866 30.2457,38.6153 13.2211,66.0963l1.96781 5.57547z"/>
  <path fill="#8C0000" d="M267.076 112.474c3.2794,-4.26331 4.29959,-5.17068 4.51191,-8.03878 -0.957544,-4.12469 -2.18891,-9.94479 0.407622,-16.2309 0.051874,-20.228 0.859182,-31.6505 -2.87348,-35.8379 -7.07443,-7.93701 -15.0885,0.161008 -18.4445,-13.6854l0 -12.4628 -1.96781 -0.327969 0 14.4306c-1.00432,8.19922 -14.1466,4.09153 -20.1954,14.7132 -3.16829,5.56328 -1.65175,13.6837 -1.12252,34.1541 0,4.8104 -2.95172,8.6366 -4.91953,11.4789l-4.59156 -3.93562 -0.655937 1.96781c9.51137,6.01285 11.1512,12.9005 4.91953,20.662l-2.29578 -2.29578 -1.96781 1.31187 0.327969 2.95172 1.96781 -1.96781c7.6527,8.41777 8.09037,14.2115 2.29578,21.318l-3.27969 -1.96781 1.96781 3.60766 2.62375 0.327969 5.90344 -8.52719c0.219685,5.84873 0.547087,10.768 -0.983906,15.7425 -2.40463,-3.36756 -4.80983,-4.73046 -7.21531,-6.2314 4.81011,3.49795 5.46633,10.8224 0,17.0544l-0.983906 -0.327969 0 1.31187 -0.983906 3.27969 2.62375 -0.327969c7.54328,10.7135 7.54328,10.3853 1.96781,19.6781l-3.60766 -2.62375 1.63984 3.27969 -0.983906 2.29578 2.29578 -0.327969c5.02895,6.2314 8.09008,6.88734 1.31187,12.7908 1.85868,2.51433 4.37301,-0.874772 6.55937,-1.31187l0.983906 9.83906 -3.60766 -3.27969 -0.983906 2.62375 2.95172 2.95172 5.2475 -0.327969 -1.96781 -25.9095 3.27969 -0.327969 -2.62375 -5.57547 -0.655937 0 -0.655937 -7.21531c1.14832,-5.35692 0.492662,-11.9166 -0.983906,-19.0222 0.765355,-3.82649 1.09361,-8.96485 0.983906,-15.4145 5.68517,-0.109417 11.8074,-1.53099 18.3662,-4.26359l19.6781 8.85515 0.327969 -4.59156 -19.6781 -7.87125 -19.3502 4.26359c0.328252,-7.76211 0.218835,-15.5242 -0.327969,-23.2858 0.218551,-8.19893 -0.437103,-16.8355 -1.96781,-25.9095 -1.31187,-11.0962 -1.55764,-22.8484 2.58293,-29.0251 4.14057,-6.1767 12.9957,-5.46633 17.0952,-10.0032 4.02492,4.39994 15.5157,7.32558 17.3826,9.72681 1.47373,1.89553 4.01046,11.1609 2.62347,27.6616 -0.123024,5.59588 -1.31754,7.25641 -1.97858,12.911 -0.514205,4.3971 1.19254,10.4706 -0.973134,17.2622z"/>
  <path fill="#F00000" d="M227.72 96.4038c0.767056,3.60709 0.766205,7.21503 0.655937,10.823l-4.26359 -4.91953 3.60766 -5.90344z"/>
  <path fill="#F00000" d="M229.36 114.114c0.656221,4.26331 0.43767,8.5269 -0.655937,12.7908l-4.91953 -5.90344 5.57547 -6.88734z"/>
  <path fill="#F00000" d="M229.36 155.11c1.09304,5.02866 1.31131,10.4944 0.655937,16.3984l-5.90344 -8.19922 5.2475 -8.19922z"/>
  <path fill="#F00000" d="M230.344 181.02c1.31584,3.17027 1.09531,6.66822 0.655937,9.83906l-5.57547 -4.91953 4.91953 -4.91953z"/>
  <polygon fill="#8C0000" points="239.527,182.66 236.903,180.036 239.199,178.396 243.135,182.988 "/>
  <polygon fill="#8C0000" points="243.135,180.036 240.839,178.396 243.135,176.756 246.086,179.708 "/>
  <polygon fill="#8C0000" points="246.414,177.084 244.775,176.428 247.07,174.788 248.71,176.756 "/>
  <polygon fill="#FFC8C8" points="379.242,107.227 377.93,109.195 363.827,97.0597 364.155,114.442 362.187,114.442 361.203,59.0154 364.483,60.9832 365.139,94.108 "/>
  <polygon fill="#FFC8C8" points="406.135,91.8122 409.087,91.4843 406.791,37.6974 428.765,36.3855 428.765,33.7618 404.823,33.7618 402.856,34.7457 383.833,35.7296 383.505,38.0254 403.839,38.0254 "/>
  <path fill="white" d="M290.682 113.033c11.8454,7.17081 21.3129,15.7493 27.9114,23.3575 8.90873,3.7338 17.4898,12.7154 19.1838,23.3374 3.25134,-3.21988 6.65093,-5.5698 12.6252,-8.57339 3.06114,-1.53865 3.63118,-4.13433 6.74901,-6.73937 5.19648,-4.34211 14.1245,-7.66092 17.9615,-14.7192 3.33921,-6.1424 7.89846,-1.67017 7.54696,-11.2759 2.26687,10.9772 -1.96016,5.77758 -6.5194,13.1443 -2.94208,4.7537 -8.10879,8.85345 -13.409,12.1723 -3.95178,2.47436 -12.4362,12.6524 -23.7422,19.0264 -6.5058,-4.16665 -3.51525,-9.5692 -9.43881,-15.8029 -5.78807,-6.09166 -10.317,-6.67219 -12.1187,-8.6984 -3.08325,-3.46762 -8.54788,-11.9832 -27.923,-23.8323l1.17326 -1.39635zm141.085 -73.0438c1.16334,-2.86668 -0.356882,-7.416 -2.96192,-7.57276l-24.4247 0.172913 -0.648284 1.34901 -19.3516 0.227906 -1.48932 -1.16787 -25.2768 0.557292 -0.0266457 25.2145 2.09821 1.12224 1.13386 33.4902 -2.05058 0.593008 0.641197 22.3795 3.03477 0.341292 -1.00942 -21.7644 1.1469 -0.983056 -0.65537 -34.5708 -2.2938 -1.1469 0 -22.938 22.938 -0.327685 1.31074 0.983056 19.1696 0 2.94917 -2.12995 22.7741 0.491528c0.997229,1.72913 2.64983,2.31137 2.99197,5.67893zm0.958394 17.9994c0.795119,-2.7377 -0.402236,-6.03496 -4.14114,-5.98252 0.233291,2.4857 3.08835,2.18608 4.14114,5.98252zm-0.225071 18.76c0.331937,-2.3675 -1.03039,-4.97849 -3.99969,-4.94533 0.677764,2.63169 2.50243,2.47777 3.99969,4.94533zm0.648851 20.4562c0.83452,-2.74649 -0.578268,-6.34876 -4.3594,-6.3669 0.306142,1.46693 3.06992,2.44233 4.3594,6.3669zm0.291118 17.0053c0.930615,-2.76605 -0.178299,-6.30766 -4.1675,-5.94567 1.38898,1.9817 2.94208,1.99758 4.1675,5.94567zm-122.713 335.593c5.36344,0.0354331 6.85786,3.79389 10.868,8.7446 2.69745,3.32986 10.7541,4.96942 6.86155,12.8571 -0.170646,-8.46936 -4.46117,-8.26441 -8.16747,-10.9718 -3.16006,-2.30797 -2.70454,-7.23685 -8.49827,-8.16038l-1.06384 -2.46954zm1.6577 53.9487c0.623906,-2.5475 -5.99131,-11.6257 -4.7812,-11.7998l-1.38331 1.11742c1.89099,3.5606 3.61814,10.2345 6.16451,10.6824zm-111.263 5.69651c-1.07575,-0.253701 -1.89383,-0.70526 -2.38451,-1.36488 -1.19027,-1.59902 1.87937,-5.72627 3.72728,-8.94926l2.00948 0.488977c-3.02967,2.70114 -4.69361,5.81216 -3.35225,9.82517zm-23.5826 -25.4421c-3.35764,-5.68318 -1.80142,-11.2816 4.55783,-14.6169 8.93821,-4.68737 1.31386,-20.2584 17.1726,-24.6648l-1.07603 -33.5072 2.34822 0.0946772 0.819213 35.5538c-15.4364,2.17871 -9.72851,14.0579 -14.2109,20.4231 -6.19597,8.79874 -8.57169,0.494929 -9.61087,16.7173zm-25.8285 -144.956c-2.09197,15.8613 -1.80199,25.4115 0.374457,31.807 -0.177449,-13.9861 1.61121,-20.4353 2.41682,-30.6527l-2.79128 -1.15427zm5.50942 -146.551c-1.80936,108.279 -23.3283,122.824 -14.5542,137.316 -2.34737,-18.741 16.1532,-48.4144 16.4237,-135.594l-1.86945 -1.72148zm-38.3463 235.027l-2.29181 0.447874 -22.0439 -288.28 3.30605 0.329103 21.0297 287.503zm-29.2533 -290.818c-1.13669,-2.15858 -0.0802205,-4.66923 0.84841,-5.12986 0.591307,1.49131 0.30841,3.20117 -0.84841,5.12986zm-0.406205 -19.8318c-1.71553,-2.24646 0.465733,-5.77843 3.72926,-5.84589l-0.856914 -13.5726 2.1498 -0.72652 0.983906 15.7425c-3.31257,-0.170929 -4.65931,2.44347 -6.00605,4.40249zm-42.9687 -22.5913c-0.76337,-1.56699 -1.19792,-3.08268 -1.22854,-4.31093 -0.333921,-13.2874 14.0258,-16.7655 20.6901,-9.26249l24.8825 -2.11748 -1.90885 -37.7986c-11.5169,-9.8161 -4.80926,-26.7381 9.84841,-26.396 5.80933,0.135496 11.1022,4.25254 13.3027,9.56467 -15.16,-19.476 -36.6585,2.92025 -21.5311,14.7166l2.62375 41.652 -27.5494 1.96781c-6.70451,-4.53232 -19.3125,-6.11292 -19.1296,11.9843zm91.1263 -19.2793c3.46791,-7.42536 17.5711,-6.50637 21.0385,3.51043 -7.99994,-9.78237 -15.5069,-8.08271 -21.5379,-1.79093l-25.2536 1.31187 0 -2.29578 25.7531 -0.735591zm-14.9326 36.8717c-1.1914,-2.30797 -3.6394,-4.59213 -8.95465,-7.22467l-0.881859 1.58967 7.87125 4.91953 1.96526 0.715465zm4.30838 16.0804c2.05455,-0.420095 4.43707,3.09543 5.50772,2.34765 7.47015,-2.76491 15.9242,17.4283 34.2173,23.1908 3.39562,-7.08492 9.9618,-13.951 20.3545,-19.2858 2.68923,-10.5766 13.9059,-15.2496 19.8751,-19.9225 -48.4268,-51.937 -5.15962,-111.132 43.9574,-110.825 19.1863,0.119906 36.3793,10.1078 47.5172,24.8757 -64.4349,-63.3155 -148.542,20.7051 -88.1674,84.1354l0 2.29578c-11.4803,6.39496 -19.6801,13.0632 -20.662,20.3341 -11.0418,4.80983 -18.5851,12.2437 -22.6298,22.3019 -24.4885,-10.7138 -28.6427,-30.9385 -36.0766,-24.2697 -1.2977,-1.72602 -4.23525,-3.78 -3.89339,-5.17805zm-37.0792 -4.31405c0.513922,1.79065 0.124158,3.83528 -1.1177,5.18825 -0.41726,-2.20621 0.136913,-4.94306 1.1177,-5.18825zm1.39068 -5.47569c-1.83373,-0.941103 -4.66611,2.92734 -2.5954,4.81011 0.291685,-1.60384 0.99326,-3.20712 2.5954,-4.81011z"/>
  <path fill="#FFC8C8" d="M139.497 81.9732c1.09332,-5.35777 4.04561,-6.99704 9.51109,-6.2314 -5.2475,-3.4988 -10.823,-0.000283465 -9.51109,6.2314z"/>
  <path fill="#FFC8C8" d="M88.9895 30.4821c-0.54652,-4.1006 1.20331,-9.56608 8.85515,-11.4789 -7.43953,-1.63191 -12.1416,6.67673 -8.85515,11.4789z"/>
  <path fill="#FFC8C8" d="M48.9773 90.5004c1.09332,-5.79515 6.99733,-9.07427 12.4628,-7.87125 -5.24722,-4.37329 -13.7744,0.765355 -12.4628,7.87125z"/>
  <path fill="#8C0000" d="M151.304 77.7096c3.38882,9.83906 -2.73317,13.1187 -10.495,8.85515 4.7007,8.52719 19.2407,0.327969 10.495,-8.85515z"/>
  <path fill="#8C0000" d="M62.424 84.9249c3.38882,9.51109 -5.02895,15.0866 -12.7908,6.88734 6.34054,12.1348 20.5526,2.29578 12.7908,-6.88734z"/>
  <path fill="#8C0000" d="M100.381 20.3434c6.99704,7.27909 0.956977,17.1323 -9.48813,12.8458 11.2309,8.92262 20.7471,-7.25244 9.48813,-12.8458z"/>
  <path fill="#FFC8C8" d="M327.751 159.046l2.62375 1.31187c-0.65452,6.7904 -2.07638,8.97166 -3.60766,10.495l0.983906 -11.8069z"/>
  <path fill="#FFC8C8" d="M277.899 210.209c-1.53014,-4.15389 -1.31131,-7.87068 0.655937,-11.1509l5.2475 0.327969 -1.96781 -2.62375c-2.63254,-0.642614 -2.19203,-5.8955 -1.31187,-11.8069l-3.60766 2.95172 -0.655937 -7.87125 1.31187 2.29578 1.96781 1.31187c-1.85981,-5.35635 -2.07808,-10.7133 1.31187,-16.0705l-2.29578 -0.655937 -2.95172 3.60766c-0.983623,-3.93562 -1.09304,-7.87125 -0.327969,-11.8069l3.27969 1.96781c-1.64013,-6.34054 -1.09332,-11.8063 1.63984,-16.3984l-2.29578 -0.655937 -2.29578 1.63984 -0.983906 -7.54328 1.63984 0.655937c-0.109134,-5.90315 0.218835,-11.1507 2.95172,-16.7264l-2.62375 -0.327969 -1.31187 2.29578c-1.53014,-2.8423 -1.74869,-6.12199 -0.655937,-9.83906l2.29578 1.63984 -0.327969 -10.167 2.29578 -5.2475 -1.96781 0.327969 -1.31187 2.29578c-0.874205,-1.96781 -1.31131,-5.2475 -1.31187,-9.83906 0.982205,2.08148 2.73203,2.62658 4.59156,2.95172 -1.74926,-2.18636 -3.06085,-4.81011 -3.93562,-7.87125 -1.63984,-18.8033 1.31187,-30.3917 -4.91953,-34.7647 3.60766,10.2764 1.63984,23.8326 1.96781,34.7647 -2.18636,5.2475 -1.42101,11.8069 0.327969,18.6942 -2.62432,9.23925 -1.64013,15.4701 0.983906,20.3341l-0.327969 7.54328c-1.74898,6.12255 -1.31131,10.9327 1.31187,14.4306 -0.983623,2.40548 -1.09304,5.24807 -0.327969,8.52719 -4.1006,5.73959 -2.78816,10.878 0.983906,15.7425l-0.655937 3.27969c-4.80983,-2.4052 -7.54271,-6.66851 -8.85515,-13.4467 -1.42101,5.68517 1.20274,11.0421 8.52719,16.7264 -12.1348,-5.6024 -13.337,-20.0877 -8.85515,-30.8291l-0.983906 -1.31187c-3.65273,2.03386 -12.9234,26.642 9.51109,36.0766 -0.880441,2.95427 0.543118,5.13978 2.29578,7.21531 -1.20246,3.27997 -1.09276,5.68545 0.327969,7.21531 -7.14189,10.0519 -1.2685,16.3066 2.62375,17.0544l-0.983906 -4.91953z"/>
  <polygon fill="#FFC8C8" points="278.555,206.601 282.163,213.161 280.851,206.929 "/>
  <path fill="#FFC8C8" d="M226.736 206.601l3.93562 4.91953 -0.327969 1.96781c-2.23937,-1.11742 -4.04051,-3.10904 -5.40454,-5.97515l1.79688 -0.912189z"/>
  <polygon fill="#8C0000" points="224.769,207.913 226.408,215.784 227.064,211.521 "/>
  <path fill="#E6A19F" d="M243.791 81.9732c4.7007,8.30863 14.6492,0.546803 13.7747,-1.63984 -2.84258,-6.44996 -2.07723,-12.8999 -2.62375,-20.3341l-2.29578 1.96781c0.109134,6.66879 -0.109417,12.6816 1.63984,19.0222 -0.875622,4.26331 -7.3253,2.40491 -10.495,0.983906z"/>
  <path fill="#E6A19F" d="M247.398 64.5908c-1.52929,-3.39392 -1.20104,-5.36514 -3.93562,-6.2314 -0.546803,0.327969 -4.70098,0.327969 -5.2475,0.655937 3.60737,1.31159 7.32416,3.38882 9.18312,5.57547z"/>
  <polygon fill="#8C0000" points="383.833,36.3855 362.515,59.9993 359.564,57.0476 380.554,34.7457 "/>
  <rect fill="#FFC8C8" x="416.302" y="53.7679" width="12.4628" height="1.63984"/>
  <rect fill="#FFC8C8" x="415.974" y="72.7901" width="12.4628" height="1.63984"/>
  <rect fill="#FFC8C8" x="416.958" y="91.8122" width="12.4628" height="1.63984"/>
  <rect fill="#FFC8C8" x="418.27" y="109.195" width="12.4628" height="1.63984"/>
 </g>
</svg>
