<?xml version="1.0" encoding="UTF-8"?>
<!DOCTYPE svg PUBLIC "-//W3C//DTD SVG 1.1//EN" "http://www.w3.org/Graphics/SVG/1.1/DTD/svg11.dtd">
<!-- Creator: CorelDRAW -->
<svg xmlns="http://www.w3.org/2000/svg" xml:space="preserve" width="500px" height="568px" shape-rendering="geometricPrecision" text-rendering="geometricPrecision" image-rendering="optimizeQuality" fill-rule="evenodd" clip-rule="evenodd"
viewBox="0 0 500 568"
 xmlns:xlink="http://www.w3.org/1999/xlink"
 xmlns:svg="http://www.w3.org/2000/svg"
 version="1.0">
 <g id="Layer_x0020_1">
  <metadata id="CorelCorpID_0Corel-Layer"/>
  <path id="path1937" fill="#F00000" stroke="black" stroke-width="1.41732" d="M499.043 1.03861l-248.87 -0.0198425 0.398268 566.416c115.861,0.190205 231.599,-82.2583 238.832,-247.728l9.64035 -318.668z"/>
  <path id="path1937_0" fill="#CCCCCC" stroke="black" stroke-width="1.41732" d="M1.12904 1.03861l248.87 -0.0198425 -0.398268 566.416c-115.861,0.190205 -231.599,-82.2583 -238.832,-247.728l-9.64035 -318.668z"/>
  <path fill="#F00000" stroke="black" stroke-width="2.83465" d="M161.679 39.9132l-26.3356 0 -3.53282 299.969 9.9584 49.5941c1.39663,4.65024 -1.38728,6.44315 -2.87575,7.52712 -1.38728,1.01027 -5.12958,-4.93767 -7.37292,-3.39166 -4.50539,6.24189 0.195591,14.7325 8.32224,13.9096 0.720284,1.61206 1.79348,7.47723 6.97833,8.04813 5.85837,0.645166 5.9366,-6.08911 6.97777,-8.00986 7.90696,0.551339 10.9018,-3.71424 8.55468,-13.4391 -2.40151,-1.09106 -2.56564,4.27578 -6.24133,2.82898 -3.03647,-1.19509 -1.80567,-4.96573 -2.38762,-5.84249l7.95459 -50.9037 0 -300.29z"/>
  <polygon fill="#F00000" stroke="black" stroke-width="2.83465" points="38.3519,46.3366 135.023,46.3366 134.059,163.562 38.3519,163.562 "/>
  <polygon fill="#CCCCCC" stroke="black" stroke-width="1.98425" points="57.1397,121.883 63.0817,121.904 63.0817,115.641 57.1499,115.641 57.1397,109.86 51.52,109.86 51.52,115.626 46.0599,115.641 46.0599,121.904 51.52,121.883 51.52,127.524 57.1397,127.524 "/>
  <polygon fill="#CCCCCC" stroke="black" stroke-width="1.98425" points="57.1397,93.7251 63.0817,93.7463 63.0817,87.4834 57.1499,87.4834 57.1397,81.7022 51.52,81.7022 51.52,87.4679 46.0599,87.4834 46.0599,93.7463 51.52,93.7251 51.52,99.3666 57.1397,99.3666 "/>
  <polygon fill="#CCCCCC" stroke="black" stroke-width="1.98425" points="57.1397,67.8827 63.0817,67.904 63.0817,61.6411 57.1499,61.6411 57.1397,55.8598 51.52,55.8598 51.52,61.6255 46.0599,61.6411 46.0599,67.904 51.52,67.8827 51.52,73.5242 57.1397,73.5242 "/>
  <polygon fill="#CCCCCC" stroke="black" stroke-width="1.98425" points="121.94,67.8827 127.882,67.904 127.882,61.6411 121.95,61.6411 121.94,55.8598 116.32,55.8598 116.32,61.6255 110.86,61.6411 110.86,67.904 116.32,67.8827 116.32,73.5242 121.94,73.5242 "/>
  <polygon fill="#CCCCCC" stroke="black" stroke-width="1.98425" points="91.7879,67.8827 97.7298,67.904 97.7298,61.6411 91.7981,61.6411 91.7879,55.8598 86.1682,55.8598 86.1682,61.6255 80.7081,61.6411 80.7081,67.904 86.1682,67.8827 86.1682,73.5242 91.7879,73.5242 "/>
  <polygon fill="#CCCCCC" stroke="black" stroke-width="1.98425" points="57.1397,150.683 63.0817,150.704 63.0817,144.441 57.1499,144.441 57.1397,138.66 51.52,138.66 51.52,144.426 46.0599,144.441 46.0599,150.704 51.52,150.683 51.52,156.324 57.1397,156.324 "/>
  <polygon fill="#CCCCCC" stroke="black" stroke-width="1.98425" points="121.94,150.683 127.882,150.704 127.882,144.441 121.95,144.441 121.94,138.66 116.32,138.66 116.32,144.426 110.86,144.441 110.86,150.704 116.32,150.683 116.32,156.324 121.94,156.324 "/>
  <polygon fill="#CCCCCC" stroke="black" stroke-width="1.98425" points="91.7879,150.683 97.7298,150.704 97.7298,144.441 91.7981,144.441 91.7879,138.66 86.1682,138.66 86.1682,144.426 80.7081,144.441 80.7081,150.704 86.1682,150.683 86.1682,156.324 91.7879,156.324 "/>
  <path fill="#CCCCCC" stroke="black" stroke-width="2.83465" d="M83.3624 109.169c1.11061,0.91956 -17.0133,10.4219 -12.0677,16.0835 4.94561,5.66164 16.5909,-11.2589 16.0798,-11.4712 -0.511087,-0.212315 -2.87915,19.315 3.14703,18.2724 6.02618,-1.04258 3.28252,-18.5516 3.43871,-18.809 0.156189,-0.257386 10.4553,15.865 16.1612,11.3664 5.70586,-4.49858 -12.5629,-16.8798 -11.9285,-15.9114 0.634394,0.968315 19.3822,3.45232 19.5038,-3.21846 0.121606,-6.67078 -18.733,-3.23377 -19.2096,-3.28195 -0.476504,-0.048189 16.8531,-11.9458 11.0554,-16.3179 -5.7977,-4.37216 -16.4653,13.339 -16.0177,12.5442 0.447591,-0.794835 3.36983,-20.3573 -3.16375,-20.2799 -6.53358,0.0773859 -3.8177,20.3732 -2.99651,20.084 0.821197,-0.289134 -11.2465,-18.112 -16.1331,-12.0271 -4.88665,6.08485 12.4308,16.8446 12.1408,16.2068 -0.289984,-0.637796 -20.0058,-3.37918 -20.0645,3.07191 -0.0586772,6.45109 18.9439,2.76832 20.0546,3.68788z"/>
  <path fill="#F00000" stroke="black" stroke-width="2.83465" d="M137.476 458.391c-7.94126,-1.08794 -14.8836,-3.67455 -20.8262,-7.75985 -10.3538,12.4186 -22.1077,10.8754 -26.5768,0.30926 -4.80331,-11.3564 9.03572,-18.9167 9.89405,-3.84718 6.26882,-12.3148 -4.60687,-14.1375 -8.22133,-21.206 -3.61446,-7.06791 -2.96703,-16.3854 -8.1275,-14.4604 7.01774,2.39925 4.2018,12.6975 -5.25118,10.9259 -8.45604,-1.58485 -16.7375,-21.3854 2.14271,-25.4707 1.79717,-15.5132 9.96322,-28.8989 0.890363,-26.2939 8.49402,1.62425 -2.2286,17.2925 -10.6977,8.55496 -10.1237,-10.444 1.6628,-28.6373 18.6928,-19.544 16.2649,-23.362 35.1533,-26.1133 25.1867,-36.3595 2.70482,2.52312 -1.1486,12.325 -7.24933,3.44721 -7.78791,-11.3332 29.393,-31.0745 27.9765,9.44363 26.6057,8.88804 10.5075,32.8751 0.122173,32.5154 -16.8721,-0.584221 -12.7536,-18.5496 -2.67364,-14.7345 -5.99471,-11.0985 -20.9832,3.66038 -23.98,9.80023 20.4199,0.0994961 19.7972,16.3066 10.978,22.6588 -9.45241,6.80826 -18.5522,-7.49424 -8.07081,-10.0389 -8.37071,-3.74514 -17.9904,10.2478 -13.1193,18.3699 15.9426,-5.47512 19.9366,8.0966 18.0765,11.7567 -7.13339,14.0375 -15.0296,0.972567 -9.24492,0.513355 -10.4956,0.666709 1.11855,25.6918 8.98526,18.864 -4.97594,-3.96681 -2.73628,-9.216 3.99742,-11.3148 9.57629,-2.9846 19.4661,15.7969 4.1624,24.55 3.26693,2.98885 7.39248,4.68992 12.6581,4.68142 4.07537,-14.2404 17.0192,-14.7404 23.0933,-1.49896 5.26564,0.00850394 16.886,-5.06523 20.1529,-8.05408 -22.7985,-2.00778 -14.7816,-30.1572 -0.334488,-26.7985 6.8692,1.59676 11.9713,9.22167 3.24794,12.439 7.86671,6.82781 24.3525,-24.1931 10.859,-23.3609 4.66044,2.70765 -3.23575,16.8968 -10.3691,2.85931 -1.8601,-3.6601 -3.11244,-20.6045 15.8281,-12.5062 7.1195,-9.24634 -10.7444,-27.7362 -14.6183,-13.1236 10.4814,2.54466 2.50526,16.0974 -9.56977,8.1652 -9.08363,-5.96693 -14.3136,-26.3067 6.1064,-26.4062 -19.1106,-12.8852 -30.3517,12.8279 -21.3568,19.4295 8.2063,-8.31204 17.7956,8.26782 4.44643,13.985 -5.66844,2.42788 -21.8245,1.75691 -27.0808,-7.52174 -1.49244,-2.6348 -2.6915,-6.40489 -2.78646,-12.1782 11.8369,-1.9097 20.719,-17.5022 10.9511,-27.3297 4.37613,-4.43991 10.2558,-7.48744 19.0383,-8.34492 -17.1556,-33.0234 20.4004,-33.5174 22.7302,-20.3111 1.87115,10.6072 -3.58356,6.94545 -6.12511,4.79707 -5.46974,8.74715 2.55118,12.2479 10.1971,21.7446 5.78778,-15.4639 26.5646,-10.4343 26.9371,0.0575433 0.376441,10.5999 -4.95156,8.43364 -8.82397,4.93569 -8.69811,1.5171 4.33956,19.3998 6.13673,35.2877 17.3812,-4.15899 20.4248,8.52719 18.2565,16.8517 -2.70652,10.3898 -14.5174,12.8336 -10.8723,1.44057 -1.68151,-2.31902 -4.24432,-4.51191 -7.65128,2.83521 -2.04435,4.40844 -0.917008,11.8338 -4.31518,17.5252 -5.96863,9.99553 -17.845,21.1873 -11.1277,29.9208 3.12151,-9.80164 16.2048,-0.375307 9.14457,7.59459 -7.60649,8.58671 -20.3451,8.36193 -24.7031,-5.55562 -8.3469,2.64841 -15.2272,4.61084 -23.4493,5.88614 -5.26564,11.8667 -15.4029,14.3649 -23.6665,1.8737z"/>
  <path fill="white" d="M120.715 334.321c2.08006,0.769323 2.58577,-4.83676 1.45219,-9.78123 -1.00035,-4.36224 -3.54558,-7.88826 -5.73477,-6.38646 -1.87852,1.28891 2.22066,3.97162 3.32958,7.61273 1.10891,3.64082 -1.3011,7.72158 0.953008,8.55496z"/>
  <path fill="white" d="M71.7959 372.585c-2.21698,-0.0328819 -1.71043,-3.68731 0.889796,-8.04246 1.54318,-2.58463 5.22794,-4.75796 6.52876,-2.44432 0.966331,1.71836 -1.88561,1.92558 -4.40674,4.77638 -2.50725,2.83521 -0.609166,5.74611 -3.01181,5.7104z"/>
  <path fill="white" d="M85.3699 398.207c-2.05597,0.829418 -3.12548,-3.26495 -2.13789,-8.23919 0.871087,-4.38888 1.27474,-5.9624 3.78595,-5.10577 0.79115,0.269858 -0.514772,2.67052 -1.08624,6.43238 -0.569481,3.74514 1.66649,6.01427 -0.561827,6.91257z"/>
  <ellipse fill="white" transform="matrix(0.990084 0.140474 -0.140474 0.990084 73.9962 407.057)" rx="1.28353" ry="3.36926"/>
  <path fill="white" d="M102.798 398.749c-0.392882,-2.18126 1.70929,-2.46813 4.33049,-1.37849 2.14554,0.892063 3.33043,2.14186 1.9817,4.42573 -0.42463,0.718583 -2.58605,-1.34164 -3.18841,-1.57124 -0.837922,-0.320032 -2.69858,0.887811 -3.12378,-1.476z"/>
  <path fill="white" d="M145.458 397.059c2.16595,0.468 0.988441,2.20054 -1.01707,4.20803 -1.64183,1.6441 -2.60731,2.90466 -4.2052,0.788032 -0.502299,-0.665859 2.38621,-1.71921 2.82784,-2.18863 0.615118,-0.653103 0.0473386,-3.31484 2.39443,-2.80743z"/>
  <ellipse fill="white" transform="matrix(0.878126 0.47843 -0.47843 0.878126 119.722 418.689)" rx="1.12309" ry="2.00551"/>
  <path fill="white" d="M118.248 338.453c-1.17666,-1.87965 -11.8004,8.22898 -15.7595,11.3998 -4.19584,3.36076 -10.3453,11.753 -7.92454,12.841 0.828284,0.372189 5.25997,-7.67963 10.0381,-11.1611 3.07559,-2.24051 14.9457,-11.0041 13.646,-13.0796z"/>
  <path fill="white" d="M152.531 344.687c-2.21471,-1.44879 -0.449575,-3.72529 4.0663,-6.03298 2.77625,-1.41874 7.1864,-2.39726 7.44038,0.24378 0.189071,1.96158 -2.28331,0.329953 -6.76403,2.10501 -5.15821,2.0435 -3.74712,4.33531 -4.74265,3.68419z"/>
  <path fill="white" d="M171.901 332.986c-1.89269,1.15484 -8.17852,-5.05333 -7.95997,-11.2445 0.276662,-7.8429 6.97663,-13.6151 9.21175,-12.1839 2.412,1.54403 -5.58624,4.48611 -5.81329,12.7641 -0.104032,3.8041 6.61295,9.41273 4.56151,10.6642z"/>
  <path fill="white" d="M198.481 347.771c-2.29153,1.04372 -4.36621,-3.50617 -2.15121,-8.06712 1.3612,-2.80403 4.87984,-6.49248 6.56844,-4.44614 1.92189,2.32895 -0.983339,1.15767 -3.49115,5.27216 -2.88652,4.73726 0.533197,6.57666 -0.926079,7.24111z"/>
  <path fill="#CCCCCC" stroke="black" stroke-width="2.83465" d="M343.422 41.3881c10.4369,-0.843024 14.3476,-0.0918426 21.3798,-1.03238 5.05644,-0.676063 26.9651,8.50621 46.9131,15.1637l-2.79156 7.53194c22.3747,33.1611 -26.1689,69.8687 -60.7077,113.838 -8.27037,10.5287 -9.11793,4.60857 -6.18832,21.3611 20.5651,2.99254 40.3141,1.59591 49.8121,7.69323 7.0407,4.52013 10.4961,8.47871 21.7259,17.3531 4.42715,3.4988 9.87676,12.1697 15.859,20.6972 7.69153,10.9641 15.8451,22.1117 19.4066,26.1618 19.3513,11.5362 27.1412,26.4983 23.3694,44.8864 5.25544,13.2018 4.08728,25.1195 -3.50334,35.7528 1.36602,28.9001 -38.9926,46.1041 -51.8647,24.1535 16.0254,-1.20444 29.2623,-4.33899 28.1381,-15.8326 -10.2756,0.198425 -18.1962,-1.63701 -22.4759,-4.8634 11.9296,-2.76832 18.2387,-9.73843 14.7526,-23.6398 -9.50684,12.1416 -19.2274,20.3752 -25.9492,16.9909 8.97194,-10.389 9.37956,-20.2425 2.50753,-27.3124 -0.404504,9.50996 -4.98473,15.8879 -15.666,17.6899 -5.13213,3.7406 6.89556,16.1153 -0.255402,21.9087 -5.47512,4.43566 -7.97103,1.83175 -24.0574,-4.59496 -0.564662,3.02117 3.77377,5.65824 2.9075,10.1923 -0.981922,5.13865 -6.87799,8.86819 -7.58183,20.7686 -1.68491,28.4908 -4.65222,63.6699 -4.82145,67.3331 -0.520441,11.2683 1.51002,16.0359 0.368788,39.8058 8.52322,6.09534 19.2946,-3.54643 22.6792,5.76057 5.43544,4.2891 6.16054,8.68536 2.17559,13.8317 -0.901134,-3.69808 -2.33972,-7.07386 -7.53959,-8.19213 -10.4426,4.17629 -13.7959,-7.58693 -30.3883,0.344977 -12.9586,6.19484 -23.2243,10.9004 -28.1169,8.16832 -1.27247,-0.905103 -4.81522,2.85477 -5.30901,6.02646 -3.22753,-3.74343 -3.31625,-6.5846 2.14611,-11.2805 -1.82466,-3.19975 -1.28013,-3.33326 -0.24548,-4.70835 -1.57011,-0.926646 -2.28416,-2.06731 -2.14299,-3.42085 -3.60709,-0.390047 -5.93065,1.14491 -6.97125,4.60602 -3.72614,-3.33383 -1.94372,-11.4809 5.98791,-10.1614 -0.880725,-1.53468 -0.905953,-3.06936 -0.0756851,-4.60403 -3.49682,-2.15887 -6.03128,0.335055 -8.4053,2.34765 0.114236,-6.76885 3.7046,-8.93878 9.16611,-8.59465 2.82274,-0.355181 5.24438,0.492662 6.78246,3.98948 4.49915,-0.0943937 7.71449,1.30876 9.64602,4.20973 3.10224,-1.02302 6.07096,-0.842174 8.74432,1.98652l8.12325 -0.444473c1.7708,-3.59348 6.26911,-5.10123 5.31241,-10.7804 1.89043,-57.3004 8.64993,-117.51 -5.74555,-161.878 -10.7002,-32.9789 -43.8455,-56.8511 -62.1289,-76.6758 -5.62876,-6.10356 -6.39014,-12.9821 -7.24224,-19.3901 -1.44454,-10.8635 -0.614268,-21.9929 5.37931,-30.5856 7.39248,-10.5982 26.4586,-29.2774 33.7071,-33.8315 38.1098,-23.9448 71.1856,-48.5351 65.9764,-72.1576 -3.16885,-14.3691 -24.738,-6.65263 -43.7854,-26.528l10.6101 -6.10441 -9.61739 -13.9405z"/>
  <polygon fill="#F00000" points="364.977,46.3366 386.495,53.081 391.674,50.9168 410.776,56.4347 394.524,49.227 372.685,43.1249 364.014,41.8402 "/>
  <path fill="white" d="M171.949 421.626c-2.20309,0.244914 -2.34936,-3.61474 -0.96378,-6.42501 1.24866,-2.53276 3.31427,-4.43537 5.50205,-2.93499 0.688819,0.472536 -1.64353,2.83748 -2.45707,4.61877 -0.840473,1.84054 0.306425,4.47619 -2.0812,4.74123z"/>
  <path fill="white" d="M208.14 376.364c2.17446,0.434551 0.560693,-7.75333 -1.69852,-12.2947 -1.188,-2.38734 -5.14403,-9.61541 -6.50183,-8.62045 -1.15398,0.845575 2.81452,4.3784 4.63862,9.5658 1.26255,3.59008 1.20529,10.8785 3.56173,11.3494z"/>
  <path fill="white" d="M193.919 426.387c1.0508,0.894048 4.96318,-5.64208 7.59374,-10.1381 3.1938,-5.45811 3.42057,-12.4183 1.76825,-11.9605 -1.18488,0.328536 -0.836788,5.39603 -3.90784,11.6124 -1.6852,3.41121 -7.28391,8.92914 -5.45414,10.4862z"/>
  <path fill="white" d="M220.851 385.352c-0.0581103,-2.21528 2.59739,-3.12605 4.55811,-1.70334 1.41789,1.02898 2.71644,1.96469 1.1778,4.12498 -0.688819,0.966898 -1.40542,0.208347 -3.11188,-0.751465 -1.76315,-0.991843 -2.56082,0.730772 -2.62403,-1.67017z"/>
  <path fill="white" d="M142.139 444.989c-1.65317,-0.437103 0.656504,-8.31544 6.50211,-7.65496 3.61446,0.408473 6.42303,6.34337 2.93726,7.86671 -2.84712,1.24413 -2.46841,-3.19323 -4.4246,-3.27005 -3.14561,-0.123591 -2.6932,3.67229 -5.01477,3.0583z"/>
  <path fill="black" d="M154.892 458.661c1.16759,1.88334 -3.39534,5.34133 -5.74129,5.42778 -3.77405,0.138614 -6.24955,-5.28775 -3.3018,-5.7977 0.822048,-0.142299 0.794552,3.00416 4.00592,2.86725 3.46366,0.192756 4.03342,-4.11647 5.03717,-2.49732z"/>
  <path fill="black" d="M109.519 451.941c0.132378,0.113386 0.0223937,1.87937 -2.74706,2.49732 -2.26743,0.506268 -3.47471,-0.636945 -3.04554,-1.51512 0.366236,-0.748914 1.92416,0.0898583 2.54891,-0.0691654 0.869386,-0.221102 1.41846,-2.47351 3.24369,-0.91304z"/>
  <path fill="white" d="M141.863 44.7809c-0.0535748,-4.22504 2.13902,-1.39068 2.24617,0.802205l-1.92529 272.108c-0.641764,5.13411 -2.40662,3.04838 -2.88794,-0.481323l2.56706 -272.429z"/>
  <polygon fill="#BF9F4F" stroke="black" stroke-width="1.98425" points="343.459,61.4313 266.701,30.2783 267.985,28.3513 344.745,41.8391 353.094,55.008 "/>
  <polygon fill="black" points="347.634,54.6869 291.367,37.2835 290.875,38.8712 295.659,42.0313 266.701,30.2783 267.985,28.3513 278.013,30.2131 275.484,31.2387 346.992,52.7599 351.221,52.3999 353.094,55.008 350.055,57.034 "/>
  <path fill="black" d="M336.715 44.0884l6.10214 0.642331 3.21166 4.81748c-3.90955,-0.0527244 -7.12177,-1.97887 -9.3138,-5.45981z"/>
  <path fill="black" d="M349.92 50.8071l-6.49786 -9.41897c10.4369,-0.843024 14.3476,-0.0918426 21.3798,-1.03238 5.05644,-0.676063 27.6086,7.86274 46.9131,15.1637l-40.3141 -12.0733 -6.10214 -0.321166 0 2.56932c11.0801,4.44246 22.8558,8.1893 35.6494,10.9196l-1.28466 1.60583c-10.4916,-2.24816 -14.5596,-3.53282 -25.3721,-7.70797 -0.85663,10.2773 -13.2749,9.95613 -13.1678,0 -2.12882,-4.71912 -7.4693,1.48139 -11.2037,0.29537zm93.3818 315.462c-3.99997,5.78693 -14.4505,7.77629 -26.4694,8.67941 9.42747,16.077 33.6005,11.1495 45.3249,-3.99288 -4.8138,2.82699 -8.23692,5.22624 -11.7128,6.23537 -2.70425,-0.27411 -5.08762,-1.99191 -2.3366,-3.7097 4.19698,-2.55317 7.87267,-6.49644 10.7867,-12.4713l-3.36926 0.641764c-0.319465,3.70914 -4.16948,7.12432 -9.62391,10.406 -3.62863,3.48605 -4.20832,-0.622205 -1.73934,-2.69773 2.39726,-1.98113 3.93846,-4.81833 4.62473,-8.51046l19.6943 -4.7795c0.223654,-1.70816 0.301323,-3.46876 0.216,-5.27499 4.15077,-5.815 6.38136,-12.0144 6.69062,-18.5978 -3.07786,8.14649 -7.37263,14.0341 -13.4447,16.6193l-0.160441 -2.24617 -3.20882 1.60441c0.695055,-6.2572 0.588189,-11.3913 2.08573,-18.7716 3.10195,-3.47669 6.63137,-6.31106 10.5891,-8.50337l2.62148 -0.967182c-0.456095,-1.61008 -1.01282,-3.24029 -1.66961,-4.89033 0.325701,-1.5891 0.565512,-3.15298 0.718583,-4.69106l-2.6331 2.8474 -2.56706 0.320882c-0.10715,-5.0811 2.24561,-8.23635 -1.12309,-16.2045l-1.76485 2.24617c1.39011,5.02725 1.28296,9.19843 -0.320882,12.5144 -1.28381,-5.29484 -2.99537,-10.1619 -5.13411,-14.6001l3.04838 -3.36926 1.44397 0.481323 -0.962646 -4.17147 -3.36926 0.160441c-1.55112,-2.40662 -3.42284,-4.17147 -5.13411,-6.2572l-0.962646 0.802205c1.55197,1.60356 2.99622,3.31342 3.69014,5.77588l-1.12309 0.641764 0 1.28353 1.76485 0 0.641764 1.12309c-1.93266,5.12022 -23.9919,8.55525 -43.2278,6.88678 -13.2795,-1.15172 -29.6204,-7.04353 -49.3467,-12.5022 1.55084,-2.88794 4.70608,-5.13411 7.05941,-7.70117 15.5693,6.44259 35.7012,11.7442 70.1127,13.477l0.481323 -1.76485 -1.44397 0 0.641764 -2.40662c3.20882,-1.81843 6.57808,-2.67421 9.62646,-5.45499l0 -5.13411c-6.20363,1.52391 -13.424,1.52362 -21.3387,0.481323l0 -2.24617c5.08025,-0.641764 10.1605,-2.67421 15.2419,-6.73852l6.93496 2.08006c-1.37055,-0.943087 -2.81197,-1.8652 -4.32369,-2.76633 -1.3354,-1.5188 -3.31682,-4.03569 -5.67751,-7.16684l-0.784347 3.5212 -15.5628 -0.160441c-1.01934,-3.74684 6.5727,-2.93698 7.80435,-6.50835 0.970016,-2.81282 -2.8508,-5.18372 -9.5692,-4.40164l-8.50337 -6.57808c-4.24517,-8.37015 -19.3405,-15.1625 -41.5542,-20.5365 -2.19288,2.78079 1.71128,3.63657 2.56706,5.45499 3.56287,-1.07632 9.25541,0.557859 15.5222,3.16829 6.2674,2.61043 11.5053,2.6674 18.9726,9.02523l-0.802205 1.60441c-7.56029,-0.610016 -10.8204,-4.05326 -16.6947,-5.79657 -4.56832,-1.35581 -9.07002,-1.05109 -13.2174,-2.05682 -4.42092,-1.07235 -8.78939,-0.178866 -11.0004,-0.810426l-1.12309 0.962646c3.31654,5.26791 1.92558,9.06492 -1.60441,12.1935l0.481323 2.24617c2.9143,-1.12337 4.67887,-3.2624 6.73852,-6.09676 20.5795,7.53733 39.585,10.3782 56.3148,9.7869l0.802205 1.28353c-3.29811,4.33446 -15.6541,4.47052 -28.2674,2.49704 -2.37288,-0.371339 -5.30051,-1.56614 -7.50303,-1.98539 -7.24734,-1.37962 -6.89613,0.962646 -21.3466,-3.56003l1.60441 3.36926c20.463,5.43402 49.5964,11.4647 62.572,8.02205l1.60441 1.44397c-4.05383,7.07556 -33.082,9.14769 -38.7468,6.74589 -4.76249,-2.0194 -12.8928,-1.86917 -19.1974,-3.21477 -4.31292,-0.920693 -7.30063,-3.29471 -9.9224,-3.852 1.01537,-3.10252 0.106016,-6.41849 -2.7275,-9.94734l-2.08573 1.12309c2.94151,4.9201 2.45991,8.77068 -1.44397,11.5518l0.802205 1.92529 4.17147 -3.36926c3.75591,0.989292 3.36614,3.3052 8.1173,4.22079 3.99402,0.76989 9.9944,2.76662 15.3678,4.04107 4.37981,1.03861 11.0466,0.900567 15.6064,1.85471 10.9548,2.29295 22.1695,3.19918 38.562,2.23739l0.160441 2.24617c-6.31758,3.58555 -20.4579,6.33402 -28.7677,3.88545 -5.89947,-1.73821 -10.8496,-0.75515 -16.327,-2.30258 -15.6728,-4.42772 -21.2431,-3.17424 -31.2752,-7.51918l0.160441 -1.92529 -2.88794 -2.24617 -0.320882 0.962646 -1.76485 -0.641764 -0.481323 1.44397 0.962646 1.12309 -0.802205 4.49235 -4.81323 4.49235c-11.2445,-4.98189 -19.9009,-7.73037 -27.8564,-13.6035 -8.86082,-6.54152 -16.6819,-17.5623 -17.6652,-24.7536 -0.416693,-3.0464 -5.18655,-7.20426 -1.37424,-15.7195 6.07068,-13.5593 34.7273,1.76995 37.1089,-15.0735l-1.92529 -1.44397c-3.57024,13.0051 -20.7388,2.94803 -33.0769,8.803 -6.02561,2.85959 -9.40876,11.3808 -6.71273,17.9705 8.43846,20.6255 16.4194,35.8005 60.3261,49.7568 7.35392,12.2202 10.4023,22.595 5.77588,29.6816l2.56706 10.7495 1.92529 -12.0331c3.84208,1.24866 -3.4458,12.9679 1.85273,12.1626 9.87308,-1.50066 11.3068,-9.60577 14.6727,-13.6066 5.959,11.0461 -10.5636,15.0265 -0.429166,18.6857 10.6812,-1.80199 15.2615,-8.17994 15.666,-17.6899l0.646866 -10.3014c7.73433,6.37739 12.8551,13.6769 13.3166,22.6222l-3.20882 -2.40662 -0.160441 1.12309 -1.76485 -1.44397 -0.481323 1.76485 -3.75591 -2.34879c0.769607,5.52586 -1.49244,11.81 -7.09966,18.303 6.7218,3.38429 16.4424,-4.84923 25.9492,-16.9909 3.48605,13.9014 -2.82303,20.8715 -14.7526,23.6398 4.27975,3.2264 12.2003,5.06183 22.4759,4.8634m-68.283 -2.66173c-0.903119,-0.370772 -1.85556,-0.757701 -2.86073,-1.15937 -0.423496,2.26573 1.91112,4.31547 2.73912,7.11156"/>
  <path fill="#CCCCCC" d="M367.764 54.0865c0.481323,-0.267591 1.92529,1.39039 0.962646,1.60441 -2.24589,0.106583 -4.06403,-0.428315 -5.45499,-1.60441 -0.213732,-0.481323 1.01622,-1.28353 1.28353,-0.962646 0.642048,0.962646 1.71184,1.28353 3.20882,0.962646z"/>
  <path fill="#CCCCCC" d="M364.234 51.359l-1.60441 -0.160441c-0.538299,-3.80778 6.62457,-4.61651 5.29455,-0.962646 0.106866,1.44397 -1.55112,1.92529 -1.76485,0.641764 -0.534898,-2.13902 -2.83465,-1.22995 -1.92529,0.481323z"/>
  <path fill="#CCCCCC" d="M381.562 305.337l1.44397 10.1078c3.10167,3.74343 4.75966,9.73333 7.86161,11.2309l3.5297 -4.97367c-7.48744,-2.24617 -5.18769,-11.7122 -12.8353,-16.365z"/>
  <path fill="#CCCCCC" d="M396.162 306.139l0 6.2572c2.94577,3.95547 5.51537,8.07166 5.45499,13.3166 2.40662,4.06432 4.01103,1.71128 6.2572,-0.802205 0.122457,-8.67374 -5.39263,-13.9643 -11.7122,-18.7716z"/>
  <path fill="#CCCCCC" d="M392.311 306.621l-6.41764 -0.802205c-2.78079,-2.88794 -6.20363,-5.45499 -8.34293,-8.66382l-0.160441 -1.92529c3.95773,1.01622 7.91519,2.51377 11.8726,3.04838l3.04838 8.34293z"/>
  <path fill="#CCCCCC" d="M409.478 319.616c-0.10715,1.17666 2.03216,0.909355 2.08573,-0.320882 -1.01622,-4.81323 1.01622,-15.8837 -5.45499,-16.8463 -2.78079,0.00340158 -5.56158,-0.897166 -8.34293,-1.76485 -1.55055,0.749197 -1.81786,1.49783 -0.802205,2.24617 2.40662,2.03244 4.33191,4.17203 5.45499,7.05941l1.44397 -0.641764c1.872,3.42284 3.42284,6.84567 5.61544,10.2682z"/>
  <path fill="#CCCCCC" d="M417.982 304.535c5.13411,0.267307 16.2045,2.78079 16.365,19.5738l-3.04838 0 -0.160441 -1.44397 -1.44397 -1.28353 -1.76485 0.802205c-2.94151,-5.08082 -5.4017,-8.55695 -8.82426,-11.8726l-2.40662 0.160441 0 -2.08573 -0.641764 -0.160441 -0.641764 -3.5297 2.56706 -0.160441z"/>
  <path fill="#CCCCCC" d="M438.037 319.456l0 8.82426 2.40662 3.5297 1.76485 -1.44397c-1.49783,-2.91515 -1.81899,-5.5355 -1.60441,-8.02205l-1.12309 -0.641764 -0.481323 -3.20882 -0.962646 0.962646z"/>
  <path fill="#CCCCCC" d="M430.977 306.46c3.42255,3.26211 7.64759,6.04318 12.1935,13.1562 1.09672,-5.08082 -2.21896,-10.1616 -7.54073,-15.2419l-4.17147 0.160441c-0.962646,0.160441 -1.44397,1.44397 -0.481323,1.92529z"/>
  <path fill="#CCCCCC" d="M445.417 326.355c0,0.641764 0.962646,0.802205 1.44397,0 2.56762,-12.5674 0.428032,-20.0013 -6.41764,-22.3013 -0.909071,-0.213732 -2.29947,0.534898 -1.28353,1.28353 4.43906,3.79758 6.52451,10.8034 6.2572,21.0178z"/>
  <path fill="#CCCCCC" d="M447.022 341.757l-3.04838 -2.40662c-0.507969,-1.89836 0.588756,-2.95455 2.22633,-3.89055 -0.127276,-1.89808 1.89156,-3.67682 2.90778,-5.09414 2.29947,0 7.00583,-1.44397 8.34293,3.36926 -0.132095,4.97566 -2.27225,8.61109 -4.97367,11.8726l-4.33191 -3.5297 2.88794 -7.38029 0 -1.92529 -1.44397 0.962646 -2.56706 8.02205z"/>
  <path fill="#CCCCCC" d="M451.193 324.269c3.04838,-1.06951 4.81323,-4.27833 5.29455,-9.62646 -1.71156,-4.81295 -4.70608,-8.77011 -8.9847,-11.8726l-1.12309 0.962646c4.38577,5.1344 5.98961,11.9801 4.81323,20.5365z"/>
  <path fill="#CCCCCC" d="M458.413 315.926c-1.71099,-5.02696 -4.06403,-9.62589 -7.05941,-13.7979l5.13411 -1.44397c2.84797,6.48482 3.78397,11.7527 1.92529,15.2419z"/>
  <path fill="#CCCCCC" d="M416.698 254.477l-3.04838 -3.85058c-12.5144,-2.7275 -29.842,-8.50337 -36.5806,-8.66382 -3.26211,1.65855 -3.74287,3.31682 -1.44397,4.97367 13.6911,2.51377 25.1359,7.5943 41.0729,7.54073z"/>
  <path fill="black" d="M362.729 64.3213c0.18737,-1.77902 -0.294803,-3.03732 -0.963497,-3.53225 -0.479622,1.87313 -0.26589,2.94321 0.963497,3.53225z"/>
  <path fill="black" d="M368.665 68.1718c-0.37474,-1.13726 -2.46104,-5.01619 -2.88879,-6.25975 -0.962646,2.03386 0.853796,5.93859 2.88879,6.25975z"/>
  <path fill="black" d="M375.404 70.2576c-0.295654,-1.05732 -4.32085,-4.78999 -5.2954,-7.2224 -0.962646,2.03386 1.97688,6.90123 5.2954,7.2224z"/>
  <path fill="black" d="M379.736 68.0114c-1.2583,-1.37821 -5.2835,-4.14822 -6.25805,-6.58063 -0.160441,3.47783 2.45821,6.41991 6.25805,6.58063z"/>
  <path fill="black" d="M374.823 60.6646c1.44369,2.03216 3.74315,2.9948 6.89896,2.88794l0 -1.76485c-1.81843,0.106866 -3.95773,-0.588473 -5.45499,-1.60441l-1.44397 0.481323z"/>
  <polygon fill="black" points="379.476,56.3327 377.871,58.4184 379.476,59.381 380.759,56.9208 "/>
  <polygon fill="black" points="381.72,56.4395 379.902,59.2733 381.399,59.5948 382.79,56.9208 "/>
  <polygon fill="black" points="383.644,56.867 382.68,58.2047 384.178,58.5261 384.499,57.6689 "/>
  <polygon fill="black" points="359.064,59.218 358.101,60.5557 359.599,60.8772 359.92,60.02 "/>
  <path fill="black" d="M407.948 77.3187l-0.85493 2.13732c-0.0708662,0.890363 0.285449,1.92331 1.06866,3.09912l1.06866 -0.427465c-1.06866,-1.49613 -0.85493,-3.20599 -1.28239,-4.80898z"/>
  <path fill="black" d="M409.551 83.5169l-1.28239 0.106866c-0.320032,1.88844 -0.461197,3.67058 -1.06866,4.70211l0.534331 0.85493c1.31839,-1.31811 1.92359,-3.20627 1.81673,-5.66391z"/>
  <path fill="black" d="M401.536 107.562l-1.49613 -0.213732c-1.56699,3.77603 -3.41915,6.98174 -5.55704,9.61796l1.92359 0.106866c1.70986,-2.60051 3.41972,-5.77106 5.12958,-9.51109z"/>
  <path fill="black" d="M393.094 120.813l-1.38926 -1.17553c0.785197,-0.283465 1.49783,-0.674363 1.70986,-1.81673l1.70986 0.213732c-0.534331,1.06895 -1.21153,1.99531 -2.03046,2.77852z"/>
  <polygon fill="black" points="390.957,120.172 389.674,121.775 390.529,122.309 392.453,121.882 "/>
  <polygon fill="black" points="367.66,149.56 362.958,154.049 362.744,155.545 361.034,155.331 361.568,157.148 362.637,156.507 367.339,150.949 "/>
  <path fill="black" d="M316.685 193.589c0.231307,-0.463181 -0.686268,-0.445323 -1.14917,-1.58995 -0.462898,-1.14378 -0.471685,-3.45062 -0.988158,-3.43276 -0.981638,0.94167 -0.83537,3.08863 -0.0192756,4.27323 0.634961,0.921544 1.84507,1.09219 2.1566,0.749481z"/>
  <path fill="black" d="M298.09 224.473c-0.486992,-0.173764 -1.11373,2.44006 -1.57663,1.29543 -0.783496,-0.288851 0.169512,-2.48882 -0.988158,-2.57783 -1.0885,-0.020126 -0.407055,3.94469 0.728788,4.16636 1.09729,0.214016 3.38003,-2.33348 1.836,-2.88397z"/>
  <ellipse fill="black" transform="matrix(0.982598 0.185744 -0.185744 0.982598 333.623 209.94)" rx="0.694489" ry="2.56479"/>
  <path fill="black" d="M310.059 252.472c-0.486992,-0.17348 -1.00687,1.58513 -1.79036,1.18857 0.0714331,-0.609449 -0.217134,-0.729071 -1.30876,-0.333638 -1.43065,0.518173 -0.103748,1.82806 1.04939,1.92217 1.31046,0.106866 3.59348,-2.22662 2.04973,-2.7771z"/>
  <path fill="black" d="M333.142 244.03c-1.44255,-0.943937 -0.918709,0.930898 -2.1909,0.267024 -2.87008,-1.49783 -1.81673,-6.91059 -3.25928,-5.93093 -1.5497,1.47827 0.580252,7.84177 1.87002,8.06826 2.9384,0.516473 4.59553,-1.42469 3.58016,-2.40435z"/>
  <path fill="black" d="M342.872 257.993c-1.63644,-0.543118 -2.24589,1.73991 -3.65273,1.46041 -3.58469,-0.71263 -3.52573,-4.18422 -4.66923,-2.86753 -1.1194,1.8258 3.10337,4.97339 4.40816,4.86199 4.04136,0.38778 5.14602,-2.76803 3.9138,-3.45487z"/>
  <path fill="black" d="M352.383 240.36c-1.63616,-0.542835 -2.35247,5.15962 -3.75931,4.88013 -2.83663,0.463181 -3.73975,-4.07736 -4.88325,-2.76066 -1.1194,1.8258 2.99651,5.29399 4.30129,5.18259 3.40016,0.38778 5.57377,-6.61522 4.34126,-7.30205z"/>
  <path fill="black" d="M359.645 261.235c-0.378709,0.0408189 -2.49392,1.92444 -2.11096,1.82976 0.595276,-0.147402 -1.71411,1.51597 -2.80488,1.91055 -1.4298,0.517323 0.203244,2.20677 2.22491,0.960378 1.49046,-0.919276 4.31944,-4.87616 2.69093,-4.7007z"/>
  <path fill="black" d="M351.934 292.904c-0.486709,-0.17348 -1.80907,3.99175 -2.59257,3.59518 0.0714331,-0.609449 -0.217134,-0.729071 -1.30876,-0.333638 -1.43065,0.518173 -0.0969449,1.76513 1.04939,1.92217 1.95194,0.267307 4.39569,-4.63351 2.85194,-5.18372z"/>
  <path fill="black" d="M361.898 313.201c-0.298488,-0.106583 -1.11005,2.44914 -1.59052,2.20592 0.0436536,-0.374173 -0.133228,-0.447307 -0.803056,-0.204945 -0.87789,0.318047 -0.0595276,1.08312 0.643748,1.1795 1.19764,0.163843 2.69717,-2.84287 1.74983,-3.18047z"/>
  <polygon fill="black" points="354.768,320.419 355.089,322.023 356.533,324.911 356.372,320.739 "/>
  <circle fill="black" cx="353.484" cy="315.766" r="0.802205"/>
  <ellipse fill="black" cx="357.656" cy="330.045" rx="0.641764" ry="1.44397"/>
  <path fill="black" stroke="black" stroke-width="0.216" d="M365.357 309.188l1.44397 -0.962646c4.9201,1.2549 10.6421,8.58076 14.7606,27.9167 -0.561544,2.1926 11.391,10.4822 8.74404,17.1669 -0.833386,2.10444 -9.14514,-0.267024 -12.1133,-4.01074 -2.57584,1.65515 -2.14469,4.06262 -1.28353,6.57808l-4.17147 -1.60441c-0.884126,-5.40057 1.56161,-5.55818 3.73408,-10.192 2.58236,-5.50885 1.88277,-23.1642 -11.1144,-34.892z"/>
  <path fill="#F00000" d="M380.439 340.313l-0.962646 4.49235c1.33682,4.75966 3.79701,2.78079 5.45499,3.20882 -0.374457,-4.17147 -2.99509,-5.13411 -4.49235,-7.70117z"/>
  <polygon fill="black" points="394.076,350.421 392.632,352.186 392.952,353.909 392.011,354.58 392.953,356.999 394.718,355.395 394.475,353.911 395.708,353.336 "/>
  <path fill="black" d="M365.999 372.722l2.08573 0c4.09125,-6.69827 4.94646,-10.6824 -1.28353,-12.1935l-0.320882 1.60441c4.17147,4.33191 1.28353,6.2572 -0.481323,10.5891z"/>
  <path fill="black" d="M350.436 493.855c1.06923,5.02753 2.13874,4.92038 3.20882,-0.320882 2.03216,-2.08573 3.42255,-3.85058 4.17147,-7.21985 1.66365,-1.55027 1.07291,-3.10139 0.160441,-4.65279l-0.962646 0.802205 -1.12309 4.01103 -5.45499 7.38029z"/>
  <ellipse fill="black" cx="359.742" cy="476.367" rx="0.641764" ry="1.12309"/>
  <path fill="black" d="M357.335 469.468l3.5297 -0.962646c0.106866,-2.24589 0.267307,-1.87115 -0.481323,-2.40662 -1.17666,0.641764 -1.55112,2.88794 -3.04838,3.36926z"/>
  <path fill="black" d="M357.682 457.823l2.02847 4.10825c2.53531,0.531213 1.9885,0.101197 2.19118,-1.10495 -0.932032,-0.963213 -3.35679,-1.68832 -4.21966,-3.00331z"/>
  <path fill="black" d="M358.323 449.801l2.02847 3.78737c2.53559,0.531213 1.9885,0.422079 2.19118,-0.784063 -0.932032,-0.963213 -3.35679,-1.68832 -4.21966,-3.00331z"/>
  <path fill="black" d="M357.842 439.854l2.02847 3.78737c2.53559,0.531213 1.9885,0.422079 2.19118,-0.784063 -0.932032,-0.963213 -3.35679,-1.68832 -4.21966,-3.00331z"/>
  <path fill="black" d="M358.458 421.817l3.5297 -0.962646c0.106866,-2.24589 0.267307,-1.87115 -0.481323,-2.40662 -1.17666,0.641764 -1.55112,2.88794 -3.04838,3.36926z"/>
  <path fill="black" d="M358.298 428.395l4.65279 -1.12309c0.106866,-2.24589 -0.85578,-1.38983 -1.60441,-1.92529 -1.49754,0.481323 -1.55112,2.56706 -3.04838,3.04838z"/>
  <path fill="black" d="M358.619 413.795l3.85058 -1.12309c0.106866,-2.24589 -0.534898,-1.06895 -1.28353,-1.60441 -1.49754,0.481323 -1.0698,2.24617 -2.56706,2.7275z"/>
  <path fill="black" d="M359.26 405.773l2.7275 -1.44397c0.106866,-2.24589 -0.534898,-1.06895 -1.28353,-1.60441 -1.49754,0.481323 0.0532914,2.56706 -1.44397,3.04838z"/>
  <path fill="black" d="M359.581 397.109l3.5297 -1.60441c0.106866,-2.24589 -0.534898,-1.06895 -1.28353,-1.60441 -2.46019,0.641764 -0.748914,2.7275 -2.24617,3.20882z"/>
  <path fill="black" d="M358.939 390.371l3.5297 -1.60441c0.106866,-2.24589 -0.534898,-1.06895 -1.28353,-1.60441 -2.46019,0.641764 -0.748914,2.7275 -2.24617,3.20882z"/>
  <path fill="black" d="M361.186 380.744l3.5297 -1.60441c0.106866,-2.24589 -0.534898,-1.06895 -1.28353,-1.60441 -2.46019,0.641764 -0.748914,2.7275 -2.24617,3.20882z"/>
  <path fill="black" d="M365.032 448.079l-3.0617 2.00778c-0.0875906,2.58888 -0.0739843,2.03131 1.14917,2.02394 0.788599,-1.08369 0.765355,-2.95569 1.91254,-4.03172z"/>
  <path fill="black" d="M366.797 409.574l-3.0617 2.00778c-0.0875906,2.58888 -0.0739843,2.03131 1.14917,2.02394 0.788599,-1.08369 0.765355,-2.95569 1.91254,-4.03172z"/>
  <ellipse fill="black" cx="361.426" cy="434.893" rx="0.721985" ry="1.52419"/>
  <ellipse fill="black" cx="363.592" cy="403.447" rx="0.481323" ry="1.20331"/>
  <ellipse fill="black" cx="367.122" cy="396.789" rx="0.802205" ry="1.60441"/>
  <path fill="black" d="M337.119 491.93l-0.802205 3.36926 4.01103 0 0.160441 -2.88794 8.34293 1.44397 -3.20882 3.85058 -3.36926 -1.12309 -3.20882 1.60441c-2.45991,-1.49754 -4.49178,-1.49754 -6.09676,0 -2.56706,-0.802205 -4.49235,0.160441 -5.77588,1.92529 -0.74863,-3.63685 -2.62035,-4.54592 -4.97367,-0.641764 -0.106866,-1.76485 -0.695055,-2.88794 -0.320882,-5.29455l-2.56706 0.962646 0.160441 4.65279 -2.56706 -0.160441 -1.00857 -4.81011 0.848126 -5.779c0.641764,-1.71099 0.641764,-3.42227 0,-5.13411 2.9948,-1.28324 5.56214,-0.213449 7.70117,3.20882l4.81323 1.12309 -1.12309 4.17147c-1.17638,-1.55084 -2.67392,-2.29947 -4.49235,-3.69014l-2.24617 1.60441 -0.641764 -2.40662 -1.44397 0.641764c0,5.29455 2.56706,2.24617 3.85058,3.36926 6.16167,5.88218 7.75871,3.20825 10.2682,2.24617l0.160441 -1.12309 -3.04838 -0.641764 0.641764 -3.36926 3.20882 2.56706 2.7275 0.320882z"/>
  <path fill="black" d="M349.634 499.15c-1.33654,1.33682 -2.03188,2.88737 -2.08573,4.65279l-1.60441 -0.160441c-1.12309,-0.802205 -2.7275,-0.802205 -3.36926,0.481323l-1.60441 0c-4.22476,-3.04838 -6.84539,0.802205 -9.30558,1.92529l-2.08573 -0.481323 -0.802205 2.7275c-1.44369,-3.95802 -3.74315,-4.70665 -6.89896,-2.24617 -0.234425,4.84498 2.82784,4.19953 3.69014,6.57808l-2.40662 0.320882c-0.695339,-1.92558 -1.81814,-3.4234 -3.36926,-4.49235l0.481323 -5.93632c2.99509,-1.0698 5.34813,0.106866 8.02205,0.160441 0.695622,-1.81843 1.60498,-2.13931 2.7275,-0.962646 2.03244,-1.55112 7.27342,-2.13931 12.1935,-0.802205 2.13931,-0.588473 4.11818,-1.65799 6.41764,-1.76485z"/>
  <path fill="black" d="M325.247 510.541c0,-1.1228 -0.641764,-2.03159 -1.92529,-2.7275 -0.588189,-1.44369 1.17666,-1.1761 1.44397,-1.12309 0.588189,1.28353 0.74863,2.56706 0.481323,3.85058z"/>
  <path fill="black" d="M368.085 495.139l-1.28353 2.40662c-0.962646,0.666992 0.642048,2.64132 1.44397,1.44397l1.60441 -3.36926 -1.76485 -0.481323z"/>
  <path fill="black" d="M375.144 495.62c-2.67336,3.04838 -2.77994,6.09676 -0.320882,9.14514l-4.97367 -1.44397c0.642048,-1.81871 0.856347,-4.49292 0.641764,-8.02205l4.65279 0.320882z"/>
  <path fill="black" d="M376.588 495.941c0.802205,2.35304 0.160441,4.70608 -0.481323,7.05941l1.76485 -1.76485c1.33682,-0.962646 0.909071,-3.5297 3.5297,-6.2572l-4.81323 0.962646z"/>
  <path fill="black" d="M379.797 504.605l3.5297 -0.160441c-1.07008,-3.31569 0.427465,-4.9201 4.49235,-4.81323l-1.28353 -1.60441c-3.85058,0.588473 -5.93632,2.29975 -6.73852,6.57808z"/>
  <polygon fill="black" points="381.562,350.742 380.92,354.111 378.674,348.496 "/>
  <path fill="#CCCCCC" d="M355.182 338.597l-80.4524 -35.9705c-4.38917,-2.67619 -17.1286,6.20929 -17.3429,8.3503 -0.642331,6.42331 -2.24816,14.4524 0.963497,20.2334l4.17515 0.642331c3.42595,1.82013 3.96114,6.53046 10.2773,5.45981 3.21166,-2.67619 6.42331,-10.1701 2.89049,-15.7371l-5.13865 3.53282c-3.64621,-6.85474 4.2069,-14.9491 13.9022,-4.49292 2.77824,2.99651 -4.23355,12.3517 -3.62495,15.0914 5.2458,-4.71033 11.1339,-2.99736 15.7371,-14.1313l60.0582 26.6567 -1.4451 -9.63497z"/>
  <path fill="black" d="M284.37 325.985c0.793418,-2.22803 1.12819,-4.24602 0.0864567,-5.36967 -9.69534,-10.4562 -17.5484,-2.36183 -13.9022,4.49292l5.13865 -3.53282c1.43518,2.26148 1.75748,4.84129 1.41874,7.28674l-5.03263 4.36054 0.723402 4.08983c-6.31616,1.07065 -6.85134,-3.63969 -10.2773,-5.45981l-4.17515 -0.642331c-3.21166,-5.78098 -1.60583,-13.8101 -0.963497,-20.2334 0.214299,-2.14101 12.9538,-11.0265 17.3429,-8.3503l80.4524 35.9705 -3.14164 6.36889 -0.962646 -5.93632 -1.60441 0.802205 -0.481323 -1.92529 -1.92529 2.7275 -1.60441 -0.962646 0.160441 -2.88794 -1.76485 2.08573 -2.24617 -0.481323 -0.257102 3.0651 -3.02258 -1.34164 0.552189 -3.64876 1.28353 -0.962646 -0.481323 -1.28353 -2.88794 -1.76485 -1.12309 0.641764 0.962646 1.92529 -4.49235 -1.28353 1.12309 -2.24617 -3.36926 -2.40662 -0.802205 1.60441 2.08573 2.08573 -4.49235 -1.76485 0.160441 -2.88794 -3.85058 -2.7275 -1.76485 0.962646 1.28353 1.60441 -0.481323 0.641764 -2.88794 -0.641764 0 -1.92529 0.481323 -0.962646 -2.88794 -1.92529 -2.88794 -0.320882 -0.962646 2.40662 -0.962646 -0.320882 -0.160441 -3.69014 -0.962646 -1.12309 -3.04838 -1.44397 -1.92529 3.20882 -1.28353 -0.962646 -0.481323 -1.92529 0.962646 -1.28353 -5.61544 -2.56706 -0.481323 1.44397 1.76485 1.76485 -3.20882 0.320882 -0.481323 -4.65279 -3.36926 -0.802205 -0.962646 -1.44397 -1.44397 -0.160441 -0.802205 3.04838 -1.12309 -0.481323 -0.962646 -2.40662 1.44397 -0.962646 -3.20882 -0.962646 -2.56706 -1.60441 -0.802205 2.08573 -1.76485 0.320882 0.160441 -1.92529 0.481323 -1.60441 -7.05941 -2.56706 -1.28353 1.76485 0 0.802205 3.36926 1.92529 0 2.88794 -0.802205 1.44397 -1.76485 -3.5297 -1.60441 -0.481323 -0.160441 1.92529 -0.962646 1.44397 -1.60441 -2.24617 1.60441 -2.08573 -0.320882 -1.92529 -1.28353 -1.12309 -2.08573 1.76485 -1.44397 -0.641764 -2.08573 2.56706 -3.20882 -0.160441 -1.76485 1.44397 -1.12309 4.33191 2.08573 2.08573 0.962646 -3.5297 0.481323 -1.28353 3.85058 -2.40662 0.320882 0.320882 1.60441 -1.28353 2.08573 0 -0.962646 1.60441 0.160441 1.12309 0.802205 0.320882 0.481323 2.24617 -1.28353 0.962646 -2.24617 -2.88794 -0.962646 0.802205 1.44397 2.56706 0.641764 1.28353 -2.24617 0.160441 -1.60441 -1.76485 -0.641764 2.24617 2.7275 1.12309 -0.160441 0.802205 -2.24617 0.962646 -0.320882 1.28353 1.76485 0.160441 -0.320882 1.28353 -1.28353 0.641764 0.320882 1.60441 1.44397 0.641764 1.44397 2.40662 2.40662 1.12309 0.160441 -3.04838c-5.01931,-7.82221 3.60029,-18.3645 17.6485,-5.77588l-0.160441 4.97367 -2.53106 0.592725zm5.32914 4.60545c2.43411,-1.56246 4.78375,-3.97021 6.86948,-9.01503l-1.64551 -1.95902 -1.60441 0.802205 0 3.5297 -0.641764 -0.320882 0 -2.88794 -3.04838 -0.160441 -0.641764 1.28353 3.36926 3.69014 -0.641764 1.60441 -1.12309 -1.76485 -2.24617 -1.60441 -0.962646 2.40662 1.12309 0.641764 1.19367 3.75421zm66.1768 12.6369l0.750898 5.00485 -3.77773 -1.67698 3.02684 -3.32788z"/>
  <polygon fill="#CCCCCC" points="258.664,319.777 258.664,318.012 260.91,318.333 261.07,324.269 258.182,324.109 258.503,322.665 260.75,322.504 260.75,321.542 "/>
  <polygon fill="#CCCCCC" points="265.402,332.131 262.354,329.724 260.268,329.885 258.022,327.478 258.664,326.676 261.873,326.676 261.873,327.638 263.798,329.403 264.921,329.724 "/>
  <path fill="none" stroke="black" stroke-width="2.83465" d="M355.182 338.597l-80.4524 -35.9705c-4.38917,-2.67619 -17.1286,6.20929 -17.3429,8.3503 -0.642331,6.42331 -2.24816,14.4524 0.963497,20.2334l4.17515 0.642331c3.42595,1.82013 3.96114,6.53046 10.2773,5.45981 3.21166,-2.67619 6.42331,-10.1701 2.89049,-15.7371l-5.13865 3.53282c-3.64621,-6.85474 4.2069,-14.9491 13.9022,-4.49292 2.77824,2.99651 -4.23355,12.3517 -3.62495,15.0914 5.2458,-4.71033 11.1339,-2.99736 15.7371,-14.1313l60.0582 26.6567 -1.4451 -9.63497z"/>
 </g>
</svg>
