<?xml version="1.0" encoding="UTF-8"?>
<!DOCTYPE svg PUBLIC "-//W3C//DTD SVG 1.1//EN" "http://www.w3.org/Graphics/SVG/1.1/DTD/svg11.dtd">
<!-- Creator: CorelDRAW -->
<svg xmlns="http://www.w3.org/2000/svg" xml:space="preserve" width="500px" height="538px" shape-rendering="geometricPrecision" text-rendering="geometricPrecision" image-rendering="optimizeQuality" fill-rule="evenodd" clip-rule="evenodd"
viewBox="0 0 500 538"
 xmlns:xlink="http://www.w3.org/1999/xlink"
 xmlns:svg="http://www.w3.org/2000/svg"
 version="1.0">
 <g id="Layer_x0020_1">
  <metadata id="CorelCorpID_0Corel-Layer"/>
  <path id="path1937" fill="#CCCCCC" stroke="#0581ED" stroke-width="1.98425" d="M1.30054 1.31131l497.808 0 -18.2665 339.24c-50.4564,260.213 -418.467,259.162 -462.925,0.163276l-16.6161 -339.404z"/>
  <path id="path1937_0" fill="#0581ED" d="M154.698 1.31131l189.601 0 -0.822048 514.596c-59.9185,25.5283 -129.369,25.8832 -189.052,1.16532l0.272977 -515.762z"/>
  <path fill="black" d="M189.593 207.484l89.6281 -119.121c-31.7727,12.0311 -40.921,-20.8293 -41.1222,-30.5138 -0.428882,-20.6082 14.6767,-36.2713 36.2767,-37.6027 25.0243,-1.54233 44.2452,8.71342 46.7819,40.1817l-34.2224 437.472c-2.52227,18.578 -34.81,23.6497 -53.5354,10.3414 -8.24542,-5.86063 -10.8992,-20.6232 -12.7956,-31.7027l-31.011 -269.055z"/>
  <path fill="white" d="M181.567 204.474l89.6281 -119.121c-34.2638,7.92766 -40.921,-20.8293 -41.1222,-30.5138 -0.428882,-20.6082 16.683,-38.2782 38.283,-39.6091 25.024,-1.54233 42.2388,7.71024 44.7755,42.1881l-34.2224 437.472c-2.52227,18.578 -34.81,23.6497 -53.5354,10.3414 -8.24542,-5.86063 -10.8992,-20.6232 -12.7956,-31.7027l-31.011 -269.055z"/>
  <path fill="#BF9F4F" d="M210.871 451.018l80.4853 0c9.46319,0 10.6464,14.9616 0,14.9616l-80.4853 0c-9.46234,0 -10.6469,-14.9616 0,-14.9616z"/>
  <path fill="white" d="M210.871 451.018l80.4853 0c4.14,0 6.69544,2.86384 7.36838,6.08542 0.865418,4.14227 -1.24299,-4.98246 -7.2292,-4.90281l-83.4081 1.11345c-5.07657,0.0674646 -1.80142,12.8582 0.343559,12.2956 -7.13991,-2.304 -7.20851,-14.5916 2.44006,-14.5916z"/>
  <path fill="#4F2900" d="M206.556 458.813l86.7484 -0.835087c1.58513,-0.0566929 3.36841,-1.16787 3.66123,-2.02054 2.21641,1.80709 3.56429,8.76104 -5.60977,10.023l-80.4853 0c-1.18261,0 -2.23597,-0.233858 -3.15326,-0.642898 -1.31471,-2.73175 -1.70192,-4.90677 -1.16135,-6.52451z"/>
  <path fill="#BF9F4F" stroke="black" stroke-width="0.216" d="M186.583 204.474l89.6281 -119.121c-31.7727,12.0311 -40.9207,-20.8293 -41.1222,-30.5138 -0.428882,-20.6085 15.6796,-34.2646 37.2799,-35.5961 25.0243,-1.54261 42.2391,10.7195 45.7787,38.175l-34.2224 437.472c-2.52227,18.578 -34.81,23.6497 -53.5354,10.3414 -8.24542,-5.86063 -10.8992,-20.6232 -12.7956,-31.7027l-31.011 -269.055z"/>
  <polygon fill="#4F2900" points="218.963,306.328 231.767,306.049 251.113,336.113 274.635,303.683 284.934,305.91 250.418,352.536 "/>
  <line fill="none" stroke="white" stroke-width="2.83465" x1="221.514" y1="191.51" x2="233.718" y2= "463.343" />
  <line fill="none" stroke="white" stroke-width="2.83465" x1="269.906" y1="126.791" x2="258.58" y2= "462.866" />
  <line fill="none" stroke="white" stroke-width="2.83465" x1="283.28" y1="105.779" x2="266.034" y2= "462.714" />
  <line fill="none" stroke="white" stroke-width="2.83465" x1="300.22" y1="83.0005" x2="271.895" y2= "462.541" />
  <line fill="none" stroke="white" stroke-width="2.83465" x1="255.17" y1="147.783" x2="251.443" y2= "463.052" />
  <line fill="none" stroke="white" stroke-width="2.83465" x1="240.01" y1="168.774" x2="242.678" y2= "463.463" />
  <line fill="none" stroke="white" stroke-width="2.83465" x1="203.174" y1="214.516" x2="227.649" y2= "463.814" />
  <rect fill="white" x="225.643" y="450.937" width="50.2444" height="2.9228"/>
  <path fill="#4F2900" d="M225.786 462.003l49.9292 0 0.311244 3.40923 -35.9978 0.174047 33.0072 2.04265 -29.126 1.74047 19.8697 1.71751 -23.0905 1.64466 23.7379 0.972284 -19.8068 1.55424 18.4725 0.783496 -13.0859 0.44674 7.64306 2.85534 -21.2902 -1.96186c-6.53386,-3.20967 -8.87188,-7.3389 -10.5738,-15.3788z"/>
  <line fill="none" stroke="#4F2900" stroke-width="1.98425" x1="192.4" y1="247.408" x2="314.377" y2= "81.4919" />
  <line fill="none" stroke="#F00000" stroke-width="2.83465" x1="222.767" y1="191.649" x2="234.971" y2= "463.483" />
  <line fill="none" stroke="#F00000" stroke-width="2.83465" x1="271.159" y1="126.931" x2="259.833" y2= "463.005" />
  <line fill="none" stroke="#F00000" stroke-width="2.83465" x1="284.533" y1="105.918" x2="267.287" y2= "462.853" />
  <line fill="none" stroke="#F00000" stroke-width="2.83465" x1="301.473" y1="83.1396" x2="273.148" y2= "462.68" />
  <ellipse fill="#0581ED" stroke="#0581ED" stroke-width="0.992126" cx="268.737" cy="52.9427" rx="10.2281" ry="10.0775"/>
  <g id="_46758296">
   <circle id="_46756072" fill="#F00000" cx="202.867" cy="210.768" r="4.54601"/>
   <path id="_46758400" fill="#8C0000" d="M206.375 207.876c0.648567,0.786048 1.03833,1.79376 1.03833,2.89191 0,2.50186 -2.01572,4.38747 -4.29733,4.5326 2.5475,-2.13307 4.13433,-2.26318 3.25899,-7.42451z"/>
  </g>
  <g id="_46769208">
   <circle id="_46800536" fill="#F00000" cx="220.996" cy="188.611" r="4.54601"/>
   <path id="_46769248" fill="#8C0000" d="M224.504 185.719c0.648567,0.786048 1.03833,1.79376 1.03833,2.89191 0,2.50186 -2.01572,4.38747 -4.29733,4.5326 2.5475,-2.13307 4.13433,-2.26318 3.25899,-7.42451z"/>
  </g>
  <g id="_46754240">
   <circle id="_46794280" fill="#F00000" cx="239.337" cy="165.499" r="4.54601"/>
   <path id="_46754304" fill="#8C0000" d="M242.845 162.607c0.648567,0.786048 1.03833,1.79376 1.03833,2.89191 0,2.50186 -2.01572,4.38747 -4.29733,4.5326 2.5475,-2.13307 4.13433,-2.26318 3.25899,-7.42451z"/>
  </g>
  <g id="_46808616">
   <circle id="_46754104" fill="#F00000" cx="255.027" cy="144.084" r="4.54601"/>
   <path id="_46715368" fill="#8C0000" d="M258.535 141.192c0.648567,0.786048 1.03833,1.79376 1.03833,2.89191 0,2.50186 -2.01572,4.38747 -4.29733,4.5326 2.5475,-2.13307 4.13433,-2.26318 3.25899,-7.42451z"/>
  </g>
  <g id="_46748160">
   <circle id="_46809608" fill="#F00000" cx="269.763" cy="122.775" r="4.54601"/>
   <path id="_46772136" fill="#8C0000" d="M273.271 119.883c0.648567,0.786048 1.03833,1.79376 1.03833,2.89191 0,2.50186 -2.01572,4.38747 -4.29733,4.5326 2.5475,-2.13307 4.13433,-2.26318 3.25899,-7.42451z"/>
  </g>
  <g id="_46746032">
   <circle id="_46750048" fill="#F00000" cx="283.757" cy="102.102" r="4.54601"/>
   <path id="_46621288" fill="#8C0000" d="M287.265 99.2098c0.648567,0.786048 1.03833,1.79376 1.03833,2.89191 0,2.50186 -2.01572,4.38747 -4.29733,4.5326 2.5475,-2.13307 4.13433,-2.26318 3.25899,-7.42451z"/>
  </g>
  <g id="_46636032">
   <circle id="_46749072" fill="#F00000" cx="299.978" cy="80.1563" r="4.54601"/>
   <path id="_46745984" fill="#8C0000" d="M303.486 77.2645c0.648567,0.786048 1.03833,1.79376 1.03833,2.89191 0,2.50186 -2.01572,4.38747 -4.29733,4.5326 2.5475,-2.13307 4.13433,-2.26318 3.25899,-7.42451z"/>
  </g>
  <line fill="none" stroke="#F00000" stroke-width="2.83465" x1="256.422" y1="147.922" x2="252.696" y2= "463.191" />
  <path fill="black" d="M268.463 60.1081c-3.26041,2.95994 -8.15386,14.7433 -13.6809,28.1432 -0.771307,1.8703 0.991276,1.54432 0.197858,3.4577 -6.46129,15.5846 -16.1082,34.187 -22.3793,40.7668 -26.6508,27.9638 -50.614,14.3116 -55.2512,-2.46246 -3.04214,-11.005 14.7781,-36.6287 14.7141,-47.9404 -0.064063,-11.3117 -30.7318,-13.7251 -22.9629,-35.8379 6.13786,-17.4696 30.1731,-28.3105 66.1431,-15.9004l-4.06942 14.8618c-28.1724,-12.2012 -50.7274,-3.36473 -50.8901,7.11326 -0.162709,10.478 23.8757,13.1794 24.4094,33.2566 0.533764,20.0772 -15.3556,26.6859 -14.54,42.0279 0.815528,15.342 28.4494,9.21034 42.2093,-18.5942 14.2146,-28.7232 17.6057,-64.5282 38.0101,-64.8085 6.26032,2.75896 5.83569,14.8555 -1.90999,15.9165z"/>
  <line fill="none" stroke="#F00000" stroke-width="2.83465" x1="241.262" y1="168.913" x2="243.93" y2= "463.603" />
  <line fill="none" stroke="#F00000" stroke-width="2.83465" x1="204.426" y1="214.655" x2="228.901" y2= "463.953" />
  <path fill="white" d="M288.378 436.777l-4.21739 0.140032c-4.17147,0.26674 -7.05487,4.08132 -7.49537,6.11944 -1.27162,5.88558 -0.385229,15.2532 -2.26347,22.987 -1.83855,7.56964 -8.0966,12.8248 -23.129,12.3523 -17.1544,0.0136063 -21.0623,-3.68986 -24.6793,-15.4111 -3.61956,-11.7298 1.63928,-26.5521 -6.42303,-26.4705l-6.85163 -0.141165 0.106016 2.75641 6.57185 0.0464882c11.2382,-0.0178583 -9.22224,42.5826 30.2162,41.2926 18.6146,0.0277795 24.3281,-4.89827 26.2151,-13.2922 1.57578,-7.00923 0.486709,-14.5114 1.28976,-20.2003 0.514772,-3.64621 3.33553,-7.44718 5.15934,-7.21248l5.28888 -0.104032 0.212032 -2.86243z"/>
  <path fill="#BF9F4F" d="M269.1 58.8348c-7.42167,6.73796 -24.8944,57.9161 -37.4539,71.0944 -26.6516,27.9644 -50.614,14.3116 -55.2512,-2.46246 -3.04214,-11.005 14.7781,-36.6287 14.7141,-47.9404 -0.064063,-11.3117 -30.7321,-13.7248 -22.9629,-35.8379 6.13814,-17.4699 36.0411,-26.5502 72.0111,-14.1401 -4.28995,4.17203 -7.06451,8.73525 -8.02999,12.9552 -28.1724,-12.2012 -52.6349,-3.21846 -52.7976,7.25953 -0.162709,10.478 23.8757,13.1794 24.4094,33.2566 0.533764,20.0772 -15.3556,26.6859 -14.54,42.0279 0.815528,15.342 28.4494,9.21005 42.2093,-18.5942 14.2143,-28.7232 17.0195,-64.5282 37.4239,-64.8085 2.77597,2.16397 1.64381,15.0749 0.267874,17.1899z"/>
  <path fill="white" d="M179.329 49.7631c-0.0989292,6.38476 8.78854,9.88215 15.8681,16.1833 -12.5116,-2.44262 -18.3067,-11.2912 -17.8713,-18.6718l2.00325 2.48854zm74.6742 2.12712c-8.22133,12.7698 -13.0453,35.2653 -22.5955,54.5633 -13.7597,27.8045 -41.3938,33.9361 -42.2093,18.5942 -0.815528,-15.342 15.0732,-21.9507 14.54,-42.0279 -0.117071,-4.41099 -1.36913,-7.98407 -3.24992,-10.9848 5.91619,25.5402 -7.52457,28.6946 -12.5873,42.9324 -3.49739,9.83594 0.137197,20.0957 8.9555,21.0104 11.9302,1.23732 24.09,-8.604 34.3871,-21.9969 5.97742,-7.7743 22.4983,-47.3879 22.7594,-62.0907zm11.6238 -9.74665c-3.58866,0.930331 -6.59311,3.11925 -9.22281,6.24614 3.36756,-1.05619 6.58829,-3.13824 9.22281,-6.24614zm-11.1005 44.8504c-7.43613,16.6238 -15.9146,35.6258 -22.881,42.9353 -2.49846,2.62148 -4.97339,4.87758 -7.4109,6.79918 10.6299,-11.0265 20.4381,-31.515 28.1503,-50.0159l2.14158 0.28148zm-69.9203 53.0986c-4.0354,-3.3755 -6.89896,-7.87578 -8.21197,-12.6258 -3.04186,-11.0047 14.7781,-36.6287 14.7141,-47.9404 -0.00680315,-1.23704 -0.380126,-2.36806 -1.02898,-3.42992 15.8273,8.76898 -22.7316,40.9147 -5.47314,63.9961zm-5.61317 -72.8567c-7.58693,-5.03348 -15.1722,-11.2388 -10.8476,-23.5474 6.13786,-17.4699 36.3342,-26.5502 72.3042,-14.1401l-1.68095 3.28564c-12.471,-8.14536 -44.7361,-6.32665 -56.338,-0.382677 -15.899,8.14593 -17.7823,24.3388 -3.43758,34.7845z"/>
  <path fill="#4F2900" d="M224.079 36.1429c-9.43541,0 -46.859,-5.08876 -47.8661,16.6975 -4.80076,-15.7462 24.9902,-23.0077 47.8661,-16.6975z"/>
  <path fill="#4F2900" d="M194.342 102.138c5.97345,-10.2438 8.45207,-20.7133 1.27219,-31.8047 10.0741,8.53456 6.57468,23.0587 -1.27219,31.8047z"/>
  <path fill="#4F2900" d="M186.231 124.083c0.34441,-4.18791 1.0868,-8.37553 2.7034,-12.5629 -2.80914,3.76328 -3.71027,7.9509 -2.7034,12.5629z"/>
  <path fill="#4F2900" d="M268.924 53.7945c-22.7404,22.7404 -22.1043,86.986 -69.1753,90.1664 46.4604,-4.30016 48.8909,-84.0025 69.1753,-90.1664z"/>
  <path fill="#4F2900" d="M315.518 82.7368l-5.1531 3.07361c0.869386,-48.9453 -18.9346,-72.9749 -54.6398,-56.1875 8.88407,-12.3497 38.9469,-11.8205 50.8782,6.83093 6.69345,10.4635 9.83849,26.7928 8.91468,46.283z"/>
  <path fill="#4F2900" d="M257.77 81.343l-1.11317 2.7034c13.0306,2.51008 22.1791,-1.89269 26.4198,-11.0101 -4.47903,7.68728 -19.3964,12.2307 -25.3066,8.30665z"/>
  <path fill="#4F2900" d="M269.87 56.6646l-0.770174 2.17021c-3.2468,2.94775 -8.41777,14.402 -14.2591,27.4584 -0.124158,-5.3983 7.88656,-23.0613 15.0293,-29.6286z"/>
  <path fill="white" stroke="white" stroke-width="0.992126" d="M276.056 45.9031c1.80057,1.81673 2.91005,4.30101 2.91005,7.03956 0,5.56526 -4.58051,10.0783 -10.2285,10.0783 -0.793985,0 -0.394866,0.0569764 -1.13698,-0.111685 7.59033,-1.79405 12.9575,-7.19717 8.45547,-17.0062z"/>
  <line fill="none" stroke="white" stroke-width="2.83465" x1="154.943" y1="2.31222" x2="154.943" y2= "515.444" />
 </g>
</svg>
