<?xml version="1.0" encoding="UTF-8"?>
<!DOCTYPE svg PUBLIC "-//W3C//DTD SVG 1.1//EN" "http://www.w3.org/Graphics/SVG/1.1/DTD/svg11.dtd">
<!-- Creator: CorelDRAW -->
<svg xmlns="http://www.w3.org/2000/svg" xml:space="preserve" width="500px" height="537px" shape-rendering="geometricPrecision" text-rendering="geometricPrecision" image-rendering="optimizeQuality" fill-rule="evenodd" clip-rule="evenodd"
viewBox="0 0 500 537"
 xmlns:xlink="http://www.w3.org/1999/xlink"
 xmlns:svg="http://www.w3.org/2000/svg"
 version="1.0">
 <g id="Layer_x0020_1">
  <metadata id="CorelCorpID_0Corel-Layer"/>
  <path id="path1937" fill="#BF9F4F" stroke="black" stroke-width="2.83465" d="M1.61858 38.4979c124.336,9.15024 166.321,-36.6007 248.567,-36.6007 83.3817,0 101.798,41.1764 248.317,36.601l-56.2723 328.461c-19.1146,70.6584 -48.2865,101.455 -86.0313,123.373 -33.3043,19.3391 -74.0946,32.9834 -109.002,43.6913 -27.7773,-10.3017 -66.4861,-22.8461 -102.563,-43.7922 -40.8887,-23.7385 -68.9888,-44.1496 -87.5146,-123.109l-55.4993 -328.625z"/>
  <path id="path1937_0" fill="white" d="M-2.04151 37.5829c22.3416,1.64381 42.0245,1.51569 59.7597,0.198709 3.0104,4.83988 1.18063,4.84016 7.2017,14.5208 6.02107,9.6806 30.2159,22.1335 38.992,36.2429 8.77607,14.1095 5.1463,37.4638 13.6673,51.1625 8.52067,13.6987 27.8317,18.8558 36.5426,32.8615 8.71087,14.0057 3.69184,38.9824 12.985,53.9226 9.29282,14.9403 31.0847,20.4256 40.03,34.8078 8.9453,14.3819 4.51928,40.6707 11.8154,52.401 7.29638,11.7303 13.7826,14.8456 25.5589,23.4731 5.37081,-11.5027 17.2916,-13.2976 24.2394,-25.4052 6.94772,-12.1079 -0.31011,-33.1515 10.8723,-50.3921 11.1827,-17.2406 30.943,-15.8746 41.2325,-34.5286 10.2898,-18.6537 0.989008,-38.8525 11.6688,-55.2481 10.6801,-16.3956 26.5612,-14.7512 37.3638,-31.2049 10.8023,-16.4537 3.37918,-33.4568 14.4332,-50.8059 11.054,-17.3489 31.8818,-20.6714 39.187,-38.1753 7.30517,-17.5037 2.88482,-5.48079 6.15742,-15.9993 18.5947,1.47515 39.994,2.95484 65.1765,2.16879l-15.6821 91.535c-2.38536,4.09068 -1.83147,-6.40375 -11.7329,8.61194 -9.90114,15.016 -2.22945,26.9626 -14.7209,48.2485 -12.4914,21.2859 -28.662,17.6533 -39.0405,35.822 -10.3782,18.1684 -2.24702,36.9278 -12.3012,53.7735 -10.0545,16.846 -28.6297,20.0639 -38.8752,35.4079 -10.2458,15.3442 -1.13074,35.407 -11.6184,52.0813 -10.4879,16.6745 -30.9609,18.8331 -41.2441,35.1561 -10.283,16.323 -1.0681,30.9867 -11.304,47.2292 -10.2359,16.2422 -28.7802,18.2313 -39.1309,35.5859 -10.3507,17.3546 -4.032,39.5969 -15.6558,52.0745 -14.478,-13.0289 -7.78678,-37.5129 -15.9832,-51.8984 -8.19638,-14.3858 -30.2737,-16.9053 -38.687,-31.6724 -8.41352,-14.7671 -1.67811,-38.7241 -9.96662,-53.271 -8.28822,-14.5466 -30.7809,-18.0176 -41.5962,-34.928 -10.8156,-16.9101 -2.84117,-36.8615 -12.3205,-53.7231 -9.47934,-16.8613 -28.3028,-13.2392 -39.9816,-31.8884 -11.6785,-18.6489 1.59364,-33.2059 -9.04734,-50.724 -10.6407,-17.5181 -30.329,-15.6385 -39.2434,-31.5085 -8.9144,-15.8701 -4.2687,-39.5918 -9.67097,-49.0731 -5.40255,-9.48133 -10.893,-10.3969 -13.5936,-15.1376l-15.4871 -91.7017z"/>
  <path id="path1937_1" fill="#0057F0" d="M1.61858 38.4979c22.3416,1.64381 42.0245,1.51569 59.7597,0.198709 3.0104,4.83988 1.18063,4.84016 7.2017,14.5208 6.02107,9.6806 30.2159,22.1335 38.992,36.2429 8.77607,14.1095 5.1463,37.4638 13.6673,51.1625 8.52067,13.6987 27.8317,18.8558 36.5426,32.8615 8.71087,14.0057 3.69184,38.9824 12.985,53.9226 9.29282,14.9403 31.0847,20.4256 40.03,34.8078 8.9453,14.3819 4.51928,40.6707 11.8154,52.401 7.29638,11.7303 13.7826,14.8456 25.5589,23.4731 5.37081,-11.5027 17.2916,-13.2976 24.2394,-25.4052 6.94772,-12.1079 -0.31011,-33.1515 10.8723,-50.3921 11.1827,-17.2406 30.943,-15.8746 41.2325,-34.5286 10.2898,-18.6537 0.989008,-38.8525 11.6688,-55.2481 10.6801,-16.3956 26.5612,-14.7512 37.3638,-31.2049 10.8023,-16.4537 3.37918,-33.4568 14.4332,-50.8059 11.054,-17.3489 31.8818,-20.6714 39.187,-38.1753 7.30517,-17.5037 2.88482,-5.48079 6.15742,-15.9993 18.5947,1.47515 39.994,2.95484 65.1765,2.16879l-15.6821 91.535c-2.38536,4.09068 -1.83147,-6.40375 -11.7329,8.61194 -9.90114,15.016 -2.22945,26.9626 -14.7209,48.2485 -12.4914,21.2859 -28.662,17.6533 -39.0405,35.822 -10.3782,18.1684 -2.24702,36.9278 -12.3012,53.7735 -10.0545,16.846 -28.6297,20.0639 -38.8752,35.4079 -10.2458,15.3442 -1.13074,35.407 -11.6184,52.0813 -10.4879,16.6745 -30.9609,18.8331 -41.2441,35.1561 -10.283,16.323 -1.06866,30.9867 -11.304,47.2292 -10.2356,16.2422 -29.0685,19.0956 -38.5555,34.1462 -9.487,15.0508 -2.30343,40.4612 -16.2312,53.5142 -14.478,-13.0289 -7.78678,-37.5129 -15.9832,-51.8984 -8.19638,-14.3858 -30.2737,-16.9053 -38.687,-31.6724 -8.41352,-14.7671 -1.67811,-38.7241 -9.96662,-53.271 -8.28822,-14.5466 -30.7809,-18.0176 -41.5962,-34.928 -10.8156,-16.9101 -2.84117,-36.8615 -12.3205,-53.7231 -9.47934,-16.8613 -28.3028,-13.2392 -39.9816,-31.8884 -11.6785,-18.6489 1.59364,-33.2059 -9.04734,-50.724 -10.6407,-17.5181 -30.329,-15.6385 -39.2434,-31.5085 -8.9144,-15.8701 -4.2687,-39.5918 -9.67097,-49.0731 -5.40255,-9.48133 -10.893,-10.3969 -13.5936,-15.1376l-15.4871 -91.7017z"/>
  <path fill="white" d="M258.45 31.9782c12.5943,2.25014 24.1467,7.51238 33.8854,15.0137l0.808158 -12.1768 30.2681 31.1156 -12.9322 0.796252c5.89862,9.15818 9.94082,19.6248 11.5931,30.8673l7.88769 -8.41493 0.153354 46.1214 -9.42407 -7.64221c-2.4772,10.177 -6.94375,19.5764 -12.9637,27.7628l12.9359 0.854363 -32.948 30.8344 0.13011 -12.7372c-8.13402,5.4 -18.1996,10.1855 -28.0828,12.2428l8.09717 8.59607 -44.3577 0.0266457 7.22523 -9.06605c-10.0182,-1.7898 -19.3771,-5.48589 -27.6883,-10.6982l-0.269858 12.2417 -33.6529 -30.8645 13.3177 -0.122173c-6.49446,-8.45745 -11.3023,-18.2784 -13.919,-28.9585l-10.3317 8.39963 -0.101197 -48.1694 9.36737 7.45342c1.69767,-9.67692 5.17266,-18.7433 10.0755,-26.8492l-11.2467 -0.815811 29.865 -32.9803 2.28076 10.995c8.38432,-6.12879 18.0329,-10.6316 28.48,-13.0436l-11.1634 -11.058 52.882 0.248315 -10.171 10.0273z"/>
  <path fill="#0057F0" d="M261.042 33.4182c12.5943,2.25014 24.1467,7.51238 33.8854,15.0137l0.808158 -12.1768 30.2681 31.1156 -12.9322 0.796252c5.89862,9.15818 9.94082,19.6248 11.5931,30.8673l7.88769 -8.41493 0.153354 46.1214 -9.42407 -7.64221c-2.4772,10.177 -6.94375,19.5764 -12.9637,27.7628l12.9359 0.854363 -32.948 30.8344 0.13011 -12.7372c-8.13402,5.4 -18.1996,10.1855 -28.0828,12.2428l8.09717 8.59607 -44.3577 0.0266457 7.22523 -9.06605c-10.0182,-1.7898 -19.3771,-5.48589 -27.6883,-10.6982l-0.269858 12.2417 -33.6529 -30.8645 13.3177 -0.122173c-6.49446,-8.45745 -11.3023,-18.2784 -13.919,-28.9585l-10.3317 8.39963 -0.101197 -48.1694 9.36737 7.45342c1.69767,-9.67692 5.17266,-18.7433 10.0755,-26.8492l-11.2467 -0.815811 29.865 -32.9803 2.28076 10.995c8.38432,-6.12879 18.0329,-10.6316 28.48,-13.0436l-11.1634 -11.058 52.882 0.248315 -10.171 10.0273z"/>
  <circle fill="white" cx="248.56" cy="111.683" r="49.248"/>
  <circle fill="#BF9F4F" cx="245.68" cy="109.955" r="49.248"/>
  <path fill="white" d="M230.904 133.534l0.213449 24.4454 29.088 1.44 0.0830552 -2.53446 -1.77987 -23.2492 12.0648 -0.145134 0.0354331 -10.9352 25.3086 0c0.815811,-8.4481 0.623906,-17.3761 -0.864,-27.36l-24.4446 0.0989292 -0.0354331 -14.5979 -12.0645 0.145417 -0.0226772 -18.5508c-9.21175,-2.23058 -18.4227,-1.8686 -27.633,0.576284l0.0510236 17.6837 -11.5948 -0.0436536 0.0612284 14.976 -20.6345 0c-3.07219,8.73582 -3.2641,15.0239 -1.008,27.072l21.6425 0 -0.0612284 10.7461 11.5946 0.232441z"/>
  <polygon fill="#0057F0" points="232.795,135.621 232.72,161.507 260.368,161.507 260.399,135.723 272.464,135.578 272.499,124.643 298.96,124.643 298.96,97.5708 272.499,97.3817 272.464,82.7839 260.399,82.9293 260.368,56.6748 232.72,56.6748 232.795,82.6385 221.2,82.5948 221.261,97.5708 195.28,97.5708 195.28,124.643 221.261,124.643 221.2,135.389 "/>
  <rect fill="black" x="233.362" y="95.5857" width="26.2809" height="25.1464"/>
  <rect fill="white" x="236.576" y="98.6109" width="23.2557" height="22.1213"/>
  <rect fill="#BF9F4F" x="236.387" y="98.4218" width="19.0962" height="20.0415"/>
  <path fill="white" d="M295.436 125.508c1.81559,-5.13496 1.65203,-9.79711 1.65203,-15.5531 0,-5.09896 -0.199559,-9.44108 -1.63871,-14.0672 1.02728,10.7612 1.26284,19.6265 -0.0133228,29.6204zm-73.6141 27.4422c6.72463,3.44495 14.345,6.25266 22.4181,6.25266 5.52359,0 11.6997,-0.622205 16.6575,-2.30003l0.334488 2.30003c-13.7614,2.57244 -27.9533,1.1605 -39.4101,-6.25266z"/>
  <path fill="black" d="M199.849 128.011c-2.20507,-5.59134 -3.4166,-11.6824 -3.4166,-18.0561 0,-5.52388 0.909922,-10.8357 2.58803,-15.7938 -1.06781,10.6109 -1.17553,21.7018 0.828567,33.8499zm63.8876 -63.8878c-5.59106,-2.20507 -11.6824,-3.41632 -18.0561,-3.41632 -5.75603,0 -11.2822,0.988158 -16.4171,2.80375 11.4911,-1.23619 22.9819,-1.22428 34.4733,0.612567z"/>
  <path id="path1937_2" fill="none" stroke="black" stroke-width="2.83465" d="M1.61858 38.4979c124.336,9.15024 166.321,-36.6007 248.567,-36.6007 83.3817,0 101.798,41.1764 248.317,36.601l-56.2723 328.461c-19.1146,70.6584 -48.2865,101.455 -86.0313,123.373 -33.3043,19.3391 -74.0946,32.9834 -109.002,43.6913 -27.7773,-10.3017 -66.4861,-22.8461 -102.563,-43.7922 -40.8887,-23.7385 -68.9888,-44.1496 -87.5146,-123.109l-55.4993 -328.625z"/>
 </g>
</svg>
