<?xml version="1.0" encoding="UTF-8" standalone="no"?>
<!-- Creator: CorelDRAW -->

<svg
   xmlns:dc="http://purl.org/dc/elements/1.1/"
   xmlns:cc="http://creativecommons.org/ns#"
   xmlns:rdf="http://www.w3.org/1999/02/22-rdf-syntax-ns#"
   xmlns:svg="http://www.w3.org/2000/svg"
   xmlns="http://www.w3.org/2000/svg"
   xmlns:sodipodi="http://sodipodi.sourceforge.net/DTD/sodipodi-0.dtd"
   xmlns:inkscape="http://www.inkscape.org/namespaces/inkscape"
   xml:space="preserve"
   width="500px"
   height="573px"
   shape-rendering="geometricPrecision"
   text-rendering="geometricPrecision"
   image-rendering="optimizeQuality"
   fill-rule="evenodd"
   clip-rule="evenodd"
   viewBox="0 0 500 573"
   version="1.0"
   id="svg2362"
   sodipodi:version="0.32"
   inkscape:version="0.48.2 r9819"
   sodipodi:docname="Vilppula.vaakuna.svg"
   inkscape:output_extension="org.inkscape.output.svg.inkscape"><metadata
   id="metadata2371"><rdf:RDF><cc:Work
       rdf:about=""><dc:format>image/svg+xml</dc:format><dc:type
         rdf:resource="http://purl.org/dc/dcmitype/StillImage" /></cc:Work></rdf:RDF></metadata><defs
   id="defs2369" /><sodipodi:namedview
   inkscape:window-height="848"
   inkscape:window-width="1600"
   inkscape:pageshadow="2"
   inkscape:pageopacity="0.0"
   guidetolerance="10.0"
   gridtolerance="10.0"
   objecttolerance="10.0"
   borderopacity="1.0"
   bordercolor="#666666"
   pagecolor="#ffffff"
   id="base"
   inkscape:zoom="0.4652343"
   inkscape:cx="457.06379"
   inkscape:cy="208.25189"
   inkscape:window-x="-8"
   inkscape:window-y="-8"
   inkscape:current-layer="svg2362"
   showgrid="false"
   inkscape:window-maximized="1" />
 <g
   id="Layer_x0020_1">
  <metadata
   id="CorelCorpID_0Corel-Layer" />
  <path
   id="path1937"
   fill="#F00000"
   stroke="black"
   stroke-width="0.510236"
   d="M0.309827 0.714615l499.412 -0.000283465 -0.000850394 343.607c-4.59156,117.074 -98.9139,224.508 -248.668,226.583 -142.49,0 -243.039,-121.236 -250.744,-234.158l0 -336.032z"
   style="stroke:none" />
  <path
   id="path1937_0"
   d="m 428.423,249.64 0.35887,-37.4857 52.4211,-42.9163 0.41584,-25.8058 -24.9285,-6.89726 -27.5335,25.3267 -0.24123,-56.2485 -19.8607,-20.2839 -19.3473,20.8933 0.0459,55.6342 -27.6823,-25.5963 -24.9687,7.16485 0.87903,26.6088 52.0895,42.1135 0.24122,37.4922 -119.383,0 0.35887,-37.4857 52.4211,-42.9163 0.41584,-25.8058 -24.9285,-6.89726 -27.5335,25.3267 -0.24122,-56.2485 -19.8607,-20.2839 -19.3473,20.8933 0.0459,55.6342 -27.6823,-25.5963 -24.9687,7.16485 0.87902,26.6088 52.0895,42.1135 0.24123,37.4922 -119.64,0 0.35886,-37.4857 52.4211,-42.9163 0.41585,-25.8058 -24.9285,-6.89726 -27.5335,25.3267 -0.24123,-55.9358 -19.5483,-20.5965 -19.6597,20.8933 0.04592,55.6342 -27.6823,-25.5963 -24.9687,7.16485 0.879024,26.6088 52.0895,42.1135 0.241228,37.4922 -72.7584001,-2.8e-4 0,87.1064 c 2.1155,31.015 11.2365001,62.6568 26.3061001,92.2417 118.708998,-72.294 332.493998,-73.5256 449.372998,-0.16413 11.8284,-26.568 18.5848,-55.2339 19.7325,-84.5022 l 0,-94.6815 -69.2979,0 z"
   style="fill:#cccccc;stroke:none"
   inkscape:connector-curvature="0"
   sodipodi:nodetypes="ccccccccccccccccccccccccccccccccccccccccccccccccccccc" />
 </g>
</svg>