<?xml version="1.0" encoding="UTF-8"?>
<!DOCTYPE svg PUBLIC "-//W3C//DTD SVG 1.1//EN" "http://www.w3.org/Graphics/SVG/1.1/DTD/svg11.dtd">
<!-- Creator: CorelDRAW -->
<svg xmlns="http://www.w3.org/2000/svg" xml:space="preserve" width="500px" height="564px" shape-rendering="geometricPrecision" text-rendering="geometricPrecision" image-rendering="optimizeQuality" fill-rule="evenodd" clip-rule="evenodd"
viewBox="0 0 500 564"
 xmlns:xlink="http://www.w3.org/1999/xlink"
 xmlns:svg="http://www.w3.org/2000/svg"
 version="1.0">
 <g id="Layer_x0020_1">
  <metadata id="CorelCorpID_0Corel-Layer"/>
  <path id="path1937" fill="#F00000" stroke="black" stroke-width="0.992126" d="M0.683717 1.10721l498.971 -0.116504 -5.44281 298.171c0.384095,352.608 -487.96,352.092 -487.49,0.482457l-6.03808 -298.537z"/>
  <path fill="#8C0000" d="M493.977 312.847c-0.193039,14.3541 -1.8978,30.0175 -4.39314,43.8293 -7.29071,14.0638 -21.4092,-0.0442205 -21.4725,-8.39141 -0.0708662,-9.36369 7.3321,-19.4565 16.115,-10.762l0.878741 -1.6835c-10.3003,-14.6132 -0.565229,-23.2965 8.87188,-22.9924z"/>
  <path fill="#BF9F4F" d="M493.401 314.376c-0.193039,14.3541 -1.3218,28.4882 -3.81714,42.3 -7.29071,14.0638 -22.3226,1.47827 -22.3858,-6.8692 -0.0711496,-9.36369 7.3321,-19.4565 16.115,-10.762l0.878741 -1.6835c-10.3003,-14.6132 -0.227906,-23.2895 9.2092,-22.9853z"/>
  <path fill="#8C0000" d="M398.906 436.038c-8.72164,14.688 -25.6408,3.70772 -25.5181,-4.90762 0.132378,-9.29537 8.60202,-20.5308 19.7683,-10.762l0.878741 -1.6835c-10.3003,-14.6132 -0.227906,-23.2895 9.2092,-22.9853 9.43739,0.304158 18.8498,9.89434 7.23062,22.9853l0.455528 2.37742c12.9217,-9.40394 21.4827,-1.56813 21.5612,7.12318 0.0887245,9.84955 -8.67487,20.713 -24.1478,7.24366 -0.0510236,11.7204 0.8623,22.4776 2.43553,32.5752 -4.46514,2.23257 -9.33619,2.02961 -14.6132,-0.608882 2.53701,-11.6702 3.45033,-22.1227 2.73997,-31.3574z"/>
  <path fill="#BF9F4F" d="M397.688 436.952c-8.72164,14.688 -25.6408,3.70772 -25.5181,-4.90762 0.132378,-9.29537 8.60202,-20.5308 19.7683,-10.762l0.878741 -1.6835c-10.3003,-14.6132 -0.227906,-23.2895 9.2092,-22.9853 9.43739,0.304158 18.8498,9.89434 7.23062,22.9853l0.455528 2.37742c12.9217,-9.40394 21.4827,-1.56813 21.5612,7.12318 0.0887245,9.84955 -8.67487,20.713 -24.1478,7.24366 -0.0510236,11.7204 0.8623,22.4776 2.43553,32.5752 -4.46514,2.23257 -9.33619,2.02961 -14.6132,-0.608882 2.53701,-11.6702 3.45033,-22.1227 2.73997,-31.3574z"/>
  <path fill="#8C0000" d="M87.6221 437.866c-8.72164,14.688 -25.6408,3.70772 -25.5181,-4.90762 0.132378,-9.29537 8.60202,-20.5308 19.7683,-10.762l0.878741 -1.6835c-10.3003,-14.6132 -0.227906,-23.2895 9.2092,-22.9853 9.43739,0.304158 18.8498,9.89434 7.23062,22.9853l0.455528 2.37742c12.9217,-9.40394 21.4827,-1.56813 21.5612,7.12318 0.0887245,9.84955 -8.67487,20.713 -24.1478,7.24366 -0.0510236,11.7204 0.8623,22.4776 2.43553,32.5752 -4.46514,2.23257 -9.33619,2.02961 -14.6132,-0.608882 2.53701,-11.6702 3.45033,-22.1227 2.73997,-31.3574z"/>
  <path fill="#BF9F4F" d="M86.4043 438.779c-8.72164,14.688 -25.6408,3.70772 -25.5181,-4.90762 0.132378,-9.29537 8.60202,-20.5308 19.7683,-10.762l0.878741 -1.6835c-10.3003,-14.6132 -0.227906,-23.2895 9.2092,-22.9853 9.43739,0.304158 18.8498,9.89434 7.23062,22.9853l0.455528 2.37742c12.9217,-9.40394 21.4827,-1.56813 21.5612,7.12318 0.0887245,9.84955 -8.67487,20.713 -24.1478,7.24366 -0.0510236,11.7204 0.8623,22.4776 2.43553,32.5752 -4.46514,2.23257 -9.33619,2.02961 -14.6132,-0.608882 2.53701,-11.6702 3.45033,-22.1227 2.73997,-31.3574z"/>
  <ellipse fill="#CCCCCC" cx="251.956" cy="73.4096" rx="67.7611" ry="60.2792"/>
  <ellipse fill="#F00000" cx="251.979" cy="73.5615" rx="41.5562" ry="36.3808"/>
  <path fill="black" d="M233.062 41.1613c-25.1195,18.5445 -24.9197,46.9199 1.81673,65.5668 -14.4201,-5.7087 -24.4562,-18.4136 -24.4562,-33.1665 0,-14.125 9.20013,-26.373 22.6395,-32.4003z"/>
  <path fill="white" d="M251.979 109.943c67.1293,3.52573 56.4738,-80.2466 0,-72.762 22.947,0 41.5562,16.2919 41.5562,36.381 0,20.0891 -18.6092,36.381 -41.5562,36.381z"/>
  <path fill="black" d="M251.956 133.689c79.204,6.04063 96.6065,-93.661 29.3743,-114.614 22.7109,9.73673 38.3868,30.4101 38.3868,54.3342 0,33.2858 -30.344,60.2793 -67.7611,60.2793z"/>
  <path fill="white" d="M269.698 15.2187c-84.79,-8.00306 -115.82,90.8519 -17.7421,118.47 -37.4171,0 -67.7611,-26.9935 -67.7611,-60.2793 0,-33.2858 30.344,-60.2793 67.7611,-60.2793 6.13871,0 12.0869,0.726804 17.7421,2.08828z"/>
  <path fill="black" d="M273.757 104.074c5.17522,-0.706961 9.43796,2.03499 10.965,2.74139 1.8995,3.1663 2.16142,12.8645 0.321166,19.5885 1.79065,78.844 8.4807,93.4957 5.46577,224.084 -2.29663,40.5479 21.7641,55.4616 36.0955,57.0011 23.2605,2.49874 43.2522,-7.94977 77.514,-48.479 -12.9952,3.24879 -27.2089,0.812126 -40.2049,-2.43666 7.51295,-14.0108 60.9163,-46.2966 109.041,-64.5716 -2.96306,45.5738 -10.0321,89.4583 -26.8033,123.661 -7.31027,-11.1682 -12.5901,-21.1181 -13.4016,-32.2858 -56.3049,110.665 -145.63,75.1298 -183.715,144.372 -37.4369,-62.3274 -122.34,-37.3258 -177.876,-139.499 -0.811559,11.1677 -1.21805,18.0717 -8.52832,29.8491 -15.7621,-34.8747 -30.3316,-78.4296 -27.4125,-116.96 49.3427,14.0108 91.7811,34.1133 101.121,51.1699 -14.743,5.4207 -37.1339,6.679 -40.2049,7.30999 42.7901,41.1384 66.3322,51.4752 89.6973,50.3065 18.5953,-0.930331 32.6055,-21.3251 33.9633,-53.3523 -1.42158,-116.351 3.85795,-151.378 4.87333,-248.235 0.407339,-2.23313 1.82863,-2.84258 6.09166,-3.65499l42.9973 -0.609166z"/>
  <polygon fill="black" points="242.693,26.5258 239.953,26.8302 246.347,33.2235 250.304,33.2235 249.087,31.0924 "/>
  <polygon fill="black" points="236.3,27.1347 233.56,27.4391 239.953,33.8324 243.911,33.8324 242.693,31.7013 "/>
  <polygon fill="black" points="248.478,25.9169 245.738,26.2213 252.131,32.6146 256.089,32.6146 254.871,30.4835 "/>
  <polygon fill="black" points="252.962,25.287 250.207,25.1796 255.576,32.4542 259.49,33.044 258.603,30.7551 "/>
  <polygon fill="black" points="260.047,27.7435 257.307,28.048 263.7,34.4412 267.658,34.4412 266.44,32.3102 "/>
  <polygon fill="black" points="265.831,29.2657 263.091,29.5702 269.484,35.9635 273.442,35.9635 272.224,33.8324 "/>
  <polygon fill="black" points="270.398,32.0057 267.658,32.3102 274.051,38.7034 278.009,38.7034 276.791,36.5723 "/>
  <polygon fill="black" points="230.944,29.1113 228.381,30.1269 236.233,34.6093 240.051,33.5662 238.314,31.8314 "/>
  <polygon fill="black" points="225.768,31.5468 223.205,32.5624 231.057,37.0449 234.875,36.0017 233.139,34.2669 "/>
  <polygon fill="black" points="220.449,34.6272 218.116,36.0947 226.655,39.0648 230.218,37.3411 228.193,35.9532 "/>
  <polygon fill="black" points="216.354,38.3593 214.458,40.3606 223.468,41.1166 226.491,38.5617 224.185,37.7204 "/>
  <polygon fill="black" points="212.092,41.4037 210.196,43.405 219.206,44.161 222.229,41.6061 219.923,40.7648 "/>
  <polygon fill="black" points="209.048,45.3614 207.152,47.3627 216.162,48.1187 219.184,45.5638 216.879,44.7225 "/>
  <polygon fill="black" points="205.014,49.8994 203.256,52.0237 212.297,52.1728 215.141,49.4207 212.784,48.7358 "/>
  <polygon fill="black" points="202.846,55.0389 201.393,57.3818 210.37,56.3032 212.815,53.1907 210.387,52.8322 "/>
  <polygon fill="black" points="200.715,59.7427 199.338,62.1312 208.276,60.7641 210.619,57.5745 208.18,57.2942 "/>
  <polygon fill="black" points="199.664,65.0469 198.714,67.2738 206.363,65.145 208.072,62.1182 205.917,62.1292 "/>
  <polygon fill="black" points="199.664,68.7002 198.714,70.9271 206.363,68.7983 208.072,65.7715 205.917,65.7825 "/>
  <polygon fill="black" points="199.36,72.9624 198.409,75.1893 206.059,73.0605 207.768,70.0336 205.612,70.0447 "/>
  <polygon fill="black" points="198.751,78.1379 197.801,80.3648 205.45,78.236 207.159,75.2091 205.003,75.2202 "/>
  <polygon fill="black" points="199.162,82.3927 198.586,84.7446 205.788,81.4003 206.982,78.1362 204.857,78.4976 "/>
  <polygon fill="black" points="200.008,86.6498 199.235,88.9444 206.694,86.2209 208.16,83.0693 206.012,83.2499 "/>
  <polygon fill="black" points="201.32,90.7113 200.809,93.0779 207.917,89.5383 209.021,86.2424 206.907,86.662 "/>
  <polygon fill="black" points="204.055,95.3978 204.05,97.8189 210.261,92.871 210.651,89.4172 208.671,90.2693 "/>
  <polygon fill="black" points="205.93,100.502 206.797,103.04 211.612,96.9509 211.406,93.481 209.601,94.6596 "/>
  <polygon fill="black" points="208.282,104.985 210.991,107.696 214.502,100.513 213.449,96.3953 211.919,97.9135 "/>
  <polygon fill="black" points="211.447,108.117 213.69,110.741 217.394,102.585 216.346,98.6786 214.565,100.445 "/>
  <polygon fill="black" points="213.744,112.301 218.283,113.595 221.138,105.731 219.259,101.235 217.112,102.87 "/>
  <polygon fill="black" points="216.788,116.107 221.175,119.684 221.443,104.209 218.634,105.762 "/>
  <polygon fill="black" points="304.813,103.747 306.855,105.049 306.005,97.1538 303.298,94.9734 302.957,97.102 "/>
  <polygon fill="black" points="302.101,105.79 303.839,106.898 303.116,100.178 300.812,98.3223 300.521,100.134 "/>
  <polygon fill="black" points="299.209,111.271 301.86,110.399 300.376,104.441 298.072,102.584 297.781,104.396 "/>
  <polygon fill="black" points="295.419,115.714 298.863,113.134 296.997,106.159 294.449,104.107 293.823,107.48 "/>
  <polygon fill="black" points="291.461,118.911 294.905,116.33 293.648,109.508 291.1,107.456 290.779,109.459 "/>
  <polygon fill="black" points="287.504,121.346 290.795,119.375 290.908,112.248 288.36,109.282 287.126,111.742 "/>
  <polygon fill="black" points="309.466,97.4339 311.315,97.5099 307.721,92.6187 305.095,92.217 305.687,93.7548 "/>
  <polygon fill="black" points="311.292,94.0851 313.142,94.161 309.548,89.2698 306.922,88.8682 307.514,90.406 "/>
  <polygon fill="black" points="312.243,88.7086 314.237,88.7905 310.362,83.5169 307.531,83.0838 308.169,84.7418 "/>
  <polygon fill="black" points="313.735,83.9773 315.455,84.0481 312.113,79.4997 309.67,79.1261 310.221,80.5561 "/>
  <polygon fill="black" points="314.377,78.9594 316.368,79.0413 312.499,73.7742 309.67,73.3417 310.308,74.9974 "/>
  <polygon fill="black" points="315.29,74.3928 317.282,74.4747 313.412,69.2076 310.584,68.7751 311.221,70.4308 "/>
  <polygon fill="black" points="314.682,68.3039 316.673,68.3859 312.803,63.1188 309.975,62.6862 310.612,64.342 "/>
  <polygon fill="black" points="313.71,61.7919 314.903,61.8409 312.584,58.6834 310.888,58.4241 311.27,59.4168 "/>
  <path fill="#CCCCCC" d="M271.93 64.4783c5.17522,-0.706961 7.61046,0.816662 7.91915,3.35055 1.01537,96.8573 4.77184,160.826 3.35027,277.177 -2.29663,40.5479 20.5452,57.2888 34.8772,58.8286 23.2608,2.49931 51.1713,-9.77726 85.4331,-50.3065 -12.9952,3.24879 -25.9906,3.24879 -38.9866,0 7.51295,-14.0108 57.2613,-43.8599 105.386,-62.1349 -4.39087,44.6219 -12.8687,85.7401 -28.6308,120.615 -7.31027,-11.1682 -11.3718,-22.3365 -12.1833,-33.5041 -56.3049,110.665 -141.366,70.8656 -179.45,140.108 -38.2082,-61.9424 -127.054,-38.9282 -179.704,-142.545 -0.811559,11.1677 -5.48221,27.2092 -12.7925,38.9866 -15.7621,-34.8747 -24.8491,-82.0846 -21.93,-120.615 49.3427,16.4475 89.3444,42.0324 96.8573,56.0432 -16.0433,1.52221 -33.9123,1.11543 -36.5499,3.04583 42.7901,41.1384 65.723,49.0388 89.0881,47.8698 18.5956,-0.930331 32.6055,-21.3251 33.9633,-53.3523 -1.42158,-116.351 2.03046,-183.054 3.04583,-279.912 0.407339,-2.23313 3.65613,-2.84258 7.91915,-3.65499l42.3882 0z"/>
  <path fill="#8C0000" d="M162.552 159.79c-10.3003,-14.6132 -0.227906,-23.2895 9.2092,-22.9853 9.43739,0.304158 18.8498,9.89434 7.23062,22.9853 0.455528,2.37742 -18.2866,3.53821 -16.4398,0z"/>
  <path fill="#8C0000" d="M323.083 159.79c-10.3003,-14.6132 -0.227906,-23.2895 9.2092,-22.9853 9.43739,0.304158 18.8498,9.89434 7.23062,22.9853 0.455528,2.37742 -18.2866,3.53821 -16.4398,0z"/>
  <path fill="#BF9F4F" d="M321.865 160.703c-10.3003,-14.6132 -0.227906,-23.2895 9.2092,-22.9853 9.43739,0.304158 18.8498,9.89434 7.23062,22.9853 0.327118,1.70816 -17.3186,1.6835 -16.4398,0z"/>
  <path fill="#BF9F4F" d="M161.334 160.703c-10.3003,-14.6132 -0.227906,-23.2895 9.2092,-22.9853 9.43739,0.304158 18.8498,9.89434 7.23062,22.9853 0.327118,1.70816 -17.3186,1.6835 -16.4398,0z"/>
  <path fill="white" d="M78.0965 390.682c24.7859,40.4547 55.8012,58.2163 85.5369,71.5799 -44.572,-22.7438 -65.0166,-44.1686 -85.5369,-71.5799zm201.753 -322.854c-0.308693,-2.53389 -2.74394,-4.05751 -7.91915,-3.35055l-42.3882 0c-4.26303,0.81241 -7.51181,1.42186 -7.91915,3.65499 -1.01537,96.8573 -4.4674,163.561 -3.04583,279.912 -1.3578,32.0273 -15.3678,52.422 -33.9633,53.3523 -23.3651,1.16901 -46.298,-6.73144 -89.0881,-47.8698 2.63764,-1.93039 20.5067,-1.52362 36.5499,-3.04583 -7.51295,-14.0108 -47.5146,-39.5958 -96.8573,-56.0432 -2.91912,38.5302 6.16791,85.7401 21.93,120.615 7.31027,-11.7774 11.9809,-27.8189 12.7925,-38.9866 -4.01329,17.2301 -8.02772,29.0021 -12.0427,31.6194 -9.42492,-31.6678 -15.539,-68.8989 -20.0931,-108.685 33.3252,9.216 63.2852,26.0977 90.1146,49.9283l-34.4018 3.04441 0.304441 4.26218c56.8327,56.4208 127.528,81.5709 130.301,-8.21991l3.34885 -277.346c0,-0.811843 1.52221,-2.53701 2.73997,-2.43553l49.6378 -0.405355zm123.661 285.699c-34.2618,40.5292 -62.1723,52.8055 -85.4331,50.3065 -8.9572,-0.962363 -21.2392,-7.86246 -28.6302,-22.8022 21.204,47.2516 73.5889,24.1101 118.559,-24.4919l-0.913323 -2.73997 -3.58186 -0.27241zm66.3991 -62.1349c-48.1244,18.275 -97.8727,48.1241 -105.386,62.1349 1.21833,0.304441 2.43666,0.580819 3.65499,0.828 15.7371,-15.8553 39.2159,-32.7804 96.7573,-58.095l-16.1354 26.4864c7.03616,-10.4516 15.5945,-20.5985 21.1088,-31.3543zm-95.0202 151.628c19.2521,-13.1122 37.9307,-32.5287 54.2061,-64.5177 -14.1367,24.2586 -31.9516,45.9417 -54.2061,64.5177z"/>
  <path fill="black" d="M92.2995 352.887c0.460914,-2.93443 17.9748,-3.43361 33.1841,-4.26218l-13.091 -10.9599 -2.43553 0.608882 0.608882 4.10995 -6.08882 -5.02328 -1.21776 1.52221 3.50107 4.87106 -1.97887 0.608882 -5.1755 -4.56662 -2.13109 0.913323 1.21776 1.52221 -1.82665 0.913323 -3.65329 -3.34885 1.03975 5.27046 -4.3886 -3.74825 -0.971717 3.45799 -3.29046 -2.54466 -1.82665 1.52221 8.52435 9.13323z"/>
  <path fill="black" d="M58.0499 406.773l-4.10995 -12.7865 1.52221 -0.456662 3.04441 6.84992 0.456662 -2.58775 -2.89219 -8.21991 1.97887 0.152221 2.28331 4.56662 0 -5.02328 -2.28331 -6.24104 1.36998 -1.67443 2.73997 6.6977 1.21776 -2.28331 -3.95773 -8.37213 1.52221 -1.82665 2.58775 2.58775 -0.456662 -3.04441 -2.89219 -3.65329 0.152221 -1.21776 1.82665 0 3.19663 3.80551 0.913323 -2.28331 -2.43553 -4.71884 -0.152221 -2.28331 3.34885 0 2.13109 6.24104 1.06554 -4.71884 1.36998 0c-0.132378,4.11166 0.681733,6.74986 1.36998,8.82879l0.304441 -5.32772 1.97887 0.913323c-0.206079,3.80892 0.657638,6.54747 1.67443,9.13323l0.608882 -3.50107 1.52221 0.152221 0.152221 8.52435 1.67443 -4.87106 1.52221 0.913323 0.304441 8.52435 1.67443 -3.80551 1.52221 0c-0.613134,4.21569 0.200976,7.0047 1.21776,9.58989l0.608882 -6.08882 1.97887 1.52221c0.151937,4.71912 0.710079,8.42315 1.67443,11.1121l1.52221 -7.61103 1.63843 0.701008c0.0116221,4.89147 0.632693,8.97081 1.86265,12.2377l1.21776 -7.00215 1.55962 1.29203c-0.0130394,3.40073 0.48189,6.67333 2.09367,9.66785l1.52221 -5.1755 1.36998 1.36998c0.151937,4.31263 1.52192,8.62555 4.10995,12.9387l0.761103 -5.78438 1.46523 0.91389c0.348378,6.34224 2.09282,9.89405 4.47137,12.1771l0.152221 -6.6977 1.64381 1.0046c0.162142,4.94164 1.54233,8.46312 4.14057,10.5642l0.456662 -2.89219 1.84167 0.444473c0.958678,4.16438 2.32356,6.50268 4.09493,7.01433l0.913323 -1.21776 1.86208 1.44709 4.07452 7.53393c-26.748,-17.7194 -47.8409,-41.7994 -64.846,-70.4781 -2.70851,17.0873 -6.52706,27.5139 -11.2643,32.423z"/>
  <path fill="black" d="M246.042 461.268c-18.8374,-15.5378 -59.9857,-16.2326 -82.1257,-25.8174 -37.7405,-16.3386 -72.3541,-46.5018 -99.3212,-90.4791 13.862,16.0226 44.1644,62.7299 90.885,84.0935 44.6522,20.4174 69.7278,10.5446 90.5619,32.203z"/>
  <polygon fill="black" points="277.4,70.6697 278.009,136.125 269.18,136.429 273.138,134.602 267.353,133.993 262.787,132.167 273.746,130.036 273.442,128.818 263.395,128.209 263.395,125.469 272.529,125.774 272.529,123.642 264.004,123.338 264.004,121.511 272.529,121.816 272.529,119.989 264.918,119.685 264.613,116.64 272.833,116.64 272.833,114.205 264.918,113.9 262.787,111.465 272.529,111.16 272.224,109.334 263.7,109.029 264.004,106.289 271.615,106.289 272.681,103.245 264.461,103.245 264.309,100.809 272.529,100.505 272.529,98.3739 263.7,98.3739 263.7,95.9383 271.615,96.2428 271.92,93.8073 263.395,93.5028 263.852,90.3062 271.92,90.3062 271.92,88.0229 263.091,88.3273 263.091,85.5874 271.615,85.5874 271.311,84.3696 262.939,83.9129 262.482,80.4119 271.311,81.0207 271.463,79.0419 262.178,78.2808 262.178,75.9975 271.92,75.8452 271.92,74.6275 264.309,74.0186 264.309,70.3653 "/>
  <path fill="black" d="M281.205 225.63l0.304441 134.411c0.613418,14.3374 4.13518,27.9836 18.5709,41.0995l-7.62605 0.742394 -1.50718 -1.04684 1.52221 -2.28331 -0.153638 -0.74863 -3.67654 0.358866 -0.736441 -1.28466 2.4874 -1.17213 -0.204095 -0.502299 -6.54038 0.122457 -0.613985 -1.34022 5.32772 -0.608882 -0.304441 -0.913323 -6.08882 -0.456662 -0.152221 -1.67443 4.87106 0 -0.913323 -1.67443 -7.61103 -0.761103 0 -1.97887 5.78438 0 -0.913323 -1.97887 -7.00215 -0.608882 0.152221 -1.67443 5.63216 -0.456662 -0.761103 -2.28331 -7.00215 -0.304441 -0.152221 -2.28331 6.84992 0 -0.913323 -2.43553 -8.67657 -0.304441 0.152221 -2.58775 7.91547 0 -0.608882 -2.13109 -8.37213 -0.456662 -0.152221 -2.58775 8.06769 0.304441 -0.456662 -2.13109 -7.91547 -0.304441 0 -2.89219 7.30659 -0.304441 0 -2.28331 -7.91547 -0.456662 0 -2.28331 7.61103 0.152221 0.152221 -2.28331 -8.52435 -0.304441 0.152221 -2.43553 8.21991 -0.152221 0 -3.19663 -9.74212 -0.304441 0.152221 -2.89219 9.58989 0.152221 -0.304441 -2.43553 -7.61103 -0.304441 0.152221 -2.43553 6.6977 -0.152221 -0.152221 -2.13109 -8.98101 -0.152221 0.304441 -2.73997 8.82879 0 -0.152221 -2.28331 -8.98101 -0.608882 -0.152221 -2.58775 8.37213 0 0 -1.82665 -8.82879 -0.456662 0.152221 -2.43553 8.37213 -0.304441 0.152221 -2.13109 -7.91547 -0.761103 0 -2.43553 8.37213 0 0 -2.13109 -7.91547 -0.456662 0 -2.28331 7.61103 -0.152221 -0.152221 -1.82665 -7.76325 -0.304441 0 -2.73997 7.61103 -0.152221 0.456662 -2.43553 -7.45881 -0.913323 0 -2.73997 7.45881 0 0.152221 -2.73997 -7.76325 -0.304441 0.152221 -3.34885 7.45881 0.304441 0.152221 -3.04441 -8.98101 -0.304441 0.304441 -3.34885 8.82879 0.152221 0 -2.13109 -9.13323 -0.304441 0 -2.58775 8.67657 0 0 -2.58775 -8.52435 -0.152221 0 -2.43553 7.15437 0 -0.152221 -2.43553 -7.00215 -0.456662 -0.152221 -2.43553 7.45881 -0.152221 0 -2.73997 -7.45881 -0.913323 0.304441 -2.43553 7.76325 0 0.152221 -2.58775 -8.67657 -0.456662 0 -2.73997 8.52435 0 0 -2.13109 -7.76325 -0.608882 0.152221 -2.43553 7.91547 0 0.152221 -1.82665 -7.30659 -0.304441 0 -2.73997 7.30659 0 0 -2.28331 -7.61103 -0.456662 0.152221 -2.58775 7.30659 0 0 -2.58775 -7.61103 0 0.152221 -2.89219 7.61103 0.152221 -0.304441 -1.36998 -7.61103 -0.608882 0.152221 -2.89219 7.30659 0 -0.456662 -2.13109 -5.78438 -0.152221 -0.152221 -2.43553 5.9366 0.304441 0 -2.13109 -5.02328 0 -0.152221 -2.73997 5.32772 0 0.608882 -1.52221 6.6977 0.304441z"/>
  <path fill="black" d="M370.559 441.783c3.22611,-2.06731 6.27988,-4.26246 9.4544,-6.60983l1.22343 -2.54126 2.48684 -0.285165c2.2218,-1.74387 4.57852,-3.5691 6.76092,-5.48448l0.923528 -2.7258 2.42221 -0.298205c0.817796,-0.761386 1.63247,-1.53695 2.44347,-2.32611l0.449575 -2.73175 2.38649 -0.102047c0.519874,-0.533481 1.03861,-1.0732 1.55509,-1.61915l0.314079 -2.24136 2.13562 -0.40904c5.09131,-5.6401 9.70328,-11.9268 14.3864,-18.9919l0.149102 -2.86384 2.46047 -0.707244 0.824032 -4.74775 2.25269 -0.33052c0.396284,-0.678898 0.79115,-1.36403 1.18318,-2.05569l-0.0629292 -2.68186 2.23994 -0.939119c0.987875,-1.84734 2.11408,-4.34778 3.07304,-6.28498l-0.608882 -10.6554 -3.04441 0.304441 1.21776 7.00215 -3.34885 0 0.304441 6.6977 -2.73997 0 0 5.78438 -2.73997 -0.456662 -0.761103 5.02328 -3.19663 0.608882 -0.456662 5.1755 -3.19663 0.456662 -1.21776 4.87106 -3.19663 -0.152221 -0.304441 4.26218 -3.19663 -0.152221 -1.21776 7.45881 -2.89219 -1.21776 -1.67443 5.63216 -2.43553 -0.913323 -1.97887 5.78438 -3.34885 -0.456662 -2.28331 5.63216 -3.50107 -0.304441 -1.52221 5.78438 -3.50107 -2.73997 -2.58775 5.9366 -2.89219 -0.456662 -2.77399 4.60687 0.0340158 3.46082zm-110.817 47.7973c3.2091,-6.90038 15.666,-15.0191 25.2686,-22.5286 -10.1991,2.4361 -19.9412,12.685 -24.6597,14.0043 11.4673,-13.4969 29.3278,-19.3827 36.2285,-22.2242 -6.46952,-1.39493 -17.8861,2.81622 -36.5329,15.2221 6.49474,-8.42287 16.0339,-14.4102 45.0573,-24.3553 -23.6707,2.91799 -35.6961,13.1162 -42.0129,14.3087 4.39058,-6.32637 16.6524,-10.8176 31.6196,-15.5381 9.36284,-0.950457 16.4234,-3.48633 25.0064,-7.90385 -23.8802,7.75078 -51.8769,8.48495 -70.6303,28.9219l-0.608882 5.78438 3.04441 0.304441 -2.73997 5.1755 0.304441 5.78438 4.87106 0.913323 0.608882 2.43553 -6.08882 -0.913323 0.608882 23.442c28.2166,-39.0977 67.1298,-43.4954 101.616,-59.1985l1.2977 -2.11947 3.11471 0.0325984c0.788882,-0.38778 1.57521,-0.783213 2.35871,-1.18602l0.61852 -2.1926 2.58718 0.490961c0.826867,-0.45326 1.65005,-0.916441 2.46898,-1.38926l0.671528 -2.5475 3.65953 -0.0779528 1.10041 -7.31367 -2.28331 0.152221 0 0.152221 -0.761103 4.71884 -3.50107 -2.28331 -1.06554 4.4144 -1.52221 -2.28331 -1.97887 0.152221 -1.52221 4.4144 -3.34885 -1.97887 -7.00215 8.37213 0.913323 -4.10995 -2.43553 -0.304441 -4.87106 5.9366 0.152221 -3.80551 -2.73997 0 -3.04441 5.1755 -1.21776 0.152221 0.608882 -2.73997 -2.73997 0.152221 -2.28331 3.65329 -2.28331 -1.36998 -5.78438 6.08882 0.456662 -4.4144 -3.34885 0.456662 -4.26218 6.39326 0.152221 -3.80551 -2.89219 1.06554 -4.87106 6.08882 0.152221 -3.65329 -2.43553 0.456662 -2.73997 4.26218 -0.304441 -2.89219 -2.73997 0.456662 -3.80551 5.47994 -1.97887 0.304441 1.36998 -3.19663 -3.80551 0.304441 -2.43553 3.80551 -3.65329 0.304441 -1.67443 2.13109 -2.89219 1.06554c-6.19059,3.80551 -12.3809,8.32139 -18.4187,13.3954z"/>
  <path fill="black" d="M278.617 444.828c-4.64287,1.59846 -8.80356,3.67881 -12.6343,6.08882 2.33405,-0.862583 4.89657,-1.42101 6.94489,-0.799087 1.2875,-1.96611 3.58384,-4.27493 5.68942,-5.28973z"/>
  <path fill="black" d="M468.132 295.652c-17.4694,26.4342 -32.216,50.0083 -47.4696,67.2273 -22.5476,25.4531 -42.442,42.5228 -61.4821,54.2316 -28.5126,17.5337 -54.7368,20.1725 -81.4763,31.8271 54.4054,-8.75339 92.4336,-30.481 115.133,-52.8305 27.0947,-26.6771 53.0048,-57.3472 75.295,-100.456z"/>
  <path fill="black" d="M269.484 453.961l-8.82879 4.26218c2.94293,-1.82665 4.6681,-4.46514 8.82879,-4.26218z"/>
  <path fill="black" d="M410.593 349.538c-14.9267,4.29676 -27.4845,4.89459 -40.6429,3.34885l9.43767 -9.13323 1.82665 1.52221 1.82665 -1.06554 -0.152221 2.28331 2.27707 -0.184819 3.35509 -2.55515 1.52221 0 -1.06554 2.89219 1.3731 0.111118 3.8024 -3.91663 1.67443 0 -0.608882 3.34885 1.82665 0.152221 2.43553 -3.50107 1.82665 0.152221 -0.304441 1.97887 3.34885 -3.04441 2.43553 0 -1.52221 2.73997 3.34885 -1.21776 0 0.304441 3.95773 -0.304441 -1.97887 6.08882z"/>
  <path fill="black" d="M99.8621 163.466c64.6067,-15.2751 200.623,-19.5313 311.607,-3.65329l-0.490961 45.8839 -0.422362 3.4628c-38.609,6.41707 -77.694,11.0018 -116.66,13.9465 -11.1991,1.43376 -36.2109,4.70013 -38.7201,2.1943 -8.4824,-8.46993 -5.68488,0.338457 -29.1776,0.215717l-0.213732 -8.31204 -10.868 -0.407622 0.336189 9.25626c-37.421,-1.61036 -73.929,-7.15833 -111.35,-13.7563l-6.78019 -1.31017 3.36926 -6.34592 -0.629292 -41.1741z"/>
  <path fill="black" d="M439.971 405.098l3.34885 -1.06554c11.8497,-32.8833 22.4552,-68.0329 25.2686,-109.447l-10.351 17.5054 1.21776 1.82665 -0.304441 1.52221 -2.13109 -1.67443 -1.21776 2.43553 2.89219 2.89219 -0.456662 2.28331 -2.58775 -1.52221 -0.456662 1.36998 2.28331 2.89219 -0.456662 1.97887 -4.26218 -3.95773 -0.913323 1.36998 7.00215 10.6554 -0.608882 2.73997 -5.1755 -6.39326 -1.06554 1.52221 4.71884 6.6977 0 6.39326 -4.10995 -9.43767 -1.36998 2.58775 4.10995 8.21991 -0.304441 5.78438 -2.28331 -5.1755 -1.06554 2.73997 1.97887 7.00215 -0.456662 2.13109 -2.28331 -4.71884 -1.06554 2.73997 1.97887 3.95773 0.152221 5.47994 -2.58775 -4.87106 -1.06554 2.73997 1.82665 3.19663 -1.06554 2.89219 -1.67443 -3.19663 -1.36998 1.97887 1.82665 5.63216 -0.913323 2.43553 -1.21776 -3.19663 -0.913323 4.10995 -2.58775 0.304441 1.36998 7.00215 -3.19663 0 1.21776 6.39326 -2.58775 0.456662 0.913323 12.7865z"/>
  <path fill="#CCCCCC" d="M94.6534 157.215c64.6067,-15.2751 200.319,-18.0091 311.302,-2.13109l-0.18652 47.1016 -1.33569 3.76725c-101.914,16.9396 -203.827,18.0612 -305.74,0.0924095l-4.04022 -2.83238 0 -45.9978z"/>
  <path fill="white" d="M405.945 157.741l0.0107717 -2.6572c-110.983,-15.878 -246.695,-13.144 -311.302,2.13109l0 45.9978 4.04022 2.83238 1.52136 -3.55266 1.52221 -42.6218c100.515,-15.931 202.067,-14.614 304.208,-2.12967z"/>
  <path fill="black" d="M404.352 202.493c-5.47994,1.72517 -10.9599,2.23257 -16.4398,1.52221l0.913323 -19.1798 1.21776 -7.61103 2.43553 12.4821 2.13109 -11.5688 2.13109 16.7443 0.913323 -14.9176 2.43553 0 0.913323 15.8309 3.34885 6.6977z"/>
  <path fill="black" d="M119.395 205.537c-6.84992,0.000283465 -13.1417,-1.11572 -19.1798,-2.73997l0.608882 -14.0043 1.52221 9.74212 1.82665 -9.74212 2.13109 5.47994 1.82665 -5.1755 1.82665 8.82879 2.43553 -10.6554 1.52221 9.43767 2.73997 -8.82879 0.913323 12.1776 1.82665 5.47994z"/>
  <path fill="black" d="M148.317 209.19c29.8349,5.80961 63.5264,7.28107 99.8567,5.78438l-0.608882 -4.87106 -1.82665 0.304441 -0.608882 2.43553 -2.73997 1.21776 -0.304441 -3.04441 2.73997 -0.913323 0.304441 -9.13323 -3.04441 -4.26218 -0.913323 11.5688 -2.13109 0.608882 -1.21776 -13.091 -3.65329 8.52435 -0.913323 4.87106 -1.52221 0 0.608882 -10.0466 -2.43553 -3.34885 -1.52221 4.87106 -1.21776 10.0466 -2.43553 -14.3087 -3.34885 7.30659 -1.52221 6.08882 -1.82665 -14.6132 -2.13109 0.608882 -0.304441 0 -1.21776 6.39326 -0.304441 6.6977 -1.82665 0.608882 -0.913323 -14.3087 -1.52221 0 -3.34885 12.7865 -3.34885 -13.091 -3.34885 13.6998 -3.34885 -13.3954 -3.65329 12.7865 -3.95773 -12.7865 -1.82665 10.9599 -1.21776 -0.304441 -1.52221 -10.0466 -2.13109 2.43553 -0.913323 7.91547 -1.82665 -10.351 -3.04441 0.304441 -0.608882 8.82879 -3.34885 -9.74212 -1.21776 12.7865 5.63216 0.456662 5.32772 -0.456662 0 1.21776 3.65329 -0.304441 -0.304441 4.26218 -2.91175 -1.11061 -0.68315 -1.95109 -2.87377 -0.48104 -0.175465 2.33462 -1.57578 -0.314362 -0.430016 -1.97405 -2.01685 -0.0306142 -0.84841 1.40542 -2.2286 0.231307 -0.456945 -2.36891 -1.12706 0.109417 -1.5565 1.36602 -3.0566 -0.869386 3.65329 -3.80551 1.06554 -5.02328 -1.52221 -4.56662 -1.82665 -0.304441 -0.608882 5.78438 -1.21776 -5.1755 -1.82665 0.304441 -0.456662 4.4144 -2.89219 -6.54548 -1.52221 6.39326 -2.43553 -7.91547 -1.52221 5.32772 -1.82665 -10.351 -4.10995 7.91547 -0.152221 13.2432z"/>
  <path fill="black" d="M250.152 215.279c35.699,0.0666142 71.2613,-1.63899 106.554,-6.84992l0 -14.9176 -1.52221 7.15437 -1.67443 -7.61103 -1.36998 0 -0.913323 8.37213 -1.21776 -0.152221 -0.761103 -7.15437 -1.52221 0.152221 -0.761103 7.45881 -1.21776 0.456662 -1.21776 -7.61103 -1.52221 -0.152221 -1.36998 7.45881 -1.21776 0.152221 -0.608882 -7.76325 -2.43553 0.304441 -1.52221 9.43767 -1.82665 0.152221 0.456662 -9.74212 -2.13109 0.304441 -1.36998 9.28545 -1.21776 0 -1.06554 -8.21991 -1.97887 0.152221 -1.21776 9.74212 -1.67443 0 -0.761103 -9.58989 -2.28331 0.456662 -2.13109 10.9599 -2.28331 0.456662 -0.761103 -11.5688 -2.28331 0.304441 -1.36998 8.98101 -2.28331 0.304441 -0.761103 -8.67657 -2.13109 0.152221 -0.761103 11.1121 -1.82665 0 -0.456662 -10.5032 -2.28331 0.304441 -1.82665 8.06769 -1.06554 0.152221 -0.304441 -7.76325 -2.58775 0.152221 -1.67443 8.52435 -1.67443 0 0.304441 -9.58989 -2.73997 0 -1.21776 11.4165 -1.52221 0.456662 -1.21776 -11.2643 -3.19663 0.152221 -0.608882 10.351 -2.13109 0.152221 -1.06554 -11.8732 -2.43553 0 -0.913323 12.0254 -1.82665 0.456662 -1.36998 -11.8732 -2.58775 0.304441 -0.761103 11.721 -1.82665 0.152221 -1.06554 -13.091 -2.58775 0.304441 -1.52221 11.8732 -1.67443 0 -1.21776 -12.3299 -3.34885 0.152221 -1.06554 13.3954 -1.67443 -0.456662 -1.97887 -13.2432 -0.913323 18.5709z"/>
  <path fill="black" d="M360.664 143.279l4.248 -2.26687 24.3695 1.65799 0.043937 81.5908c-0.522142,0.760819 -0.739843,1.67386 -1.2617,2.43496l-24.535 0.856347 -3.77802 -1.46523c0.304441,-27.6027 2.13109,-58.8586 0.913323,-82.808z"/>
  <path fill="#CCCCCC" d="M357.772 140.691l4.248 -2.26687 24.3695 1.35354 -0.152221 81.8947 -1.22088 0.732473 -23.923 2.10274 -4.23468 -1.00857c0.304441,-27.6027 2.13109,-58.8586 0.913323,-82.808z"/>
  <path fill="white" d="M386.376 143.431l0.0136063 -3.65301 -24.3695 -1.35354 -4.248 2.26687c1.21776,23.9494 -0.608882,55.2053 -0.913323,82.808l4.23468 1.00857 2.15858 -83.2077c6.49021,1.92784 15.4159,1.42044 23.1239,2.1308z"/>
  <path fill="black" d="M383.954 217.41l-0.304441 -10.351 -1.21776 -0.152221 -0.304441 -4.26218 -1.67443 0.304441 0.304441 4.71884 -1.52221 0.456662 -0.761103 -5.63216 -1.36998 0.152221 -0.152221 5.78438 -1.21776 -0.304441 -0.456662 -5.78438 -2.43553 0.456662 -0.152221 6.84992 -1.82665 0.152221 -0.608882 -6.84992 -2.13109 -0.152221 0 7.30659 -1.67443 0.152221 -0.456662 -7.45881 -1.97887 0.152221 -0.152221 7.91547 -1.21776 0.152221 -0.761103 -7.91547 -1.36998 0.152221 0 16.4398c0.343276,2.38422 23.2523,-0.203528 23.442,-2.28331z"/>
  <path fill="black" d="M123.064 143.279l4.248 -2.26687 14.917 -0.155055 7.17733 -5.12788 8.15641 8.79818c-7.51323,27.5454 -7.82618,53.8393 -5.83739,79.7335 -0.522142,0.760819 -0.739843,1.67386 -1.2617,2.43496l-24.535 0.856347 -3.77802 -1.46523c0.304441,-27.6027 2.13109,-58.8586 0.913323,-82.808z"/>
  <path fill="#CCCCCC" d="M120.172 140.691l4.248 -2.26687 24.3695 1.35354 -0.152221 81.8947 -1.22088 0.732473 -23.923 2.10274 -4.23468 -1.00857c0.304441,-27.6027 2.13109,-58.8586 0.913323,-82.808z"/>
  <path fill="white" stroke="white" stroke-width="0.992126" d="M148.776 143.431l0.0136063 -3.65301 -24.3695 -1.35354 -4.248 2.26687c1.21776,23.9494 -0.608882,55.2053 -0.913323,82.808l4.23468 1.00857 2.15858 -83.2077c6.49021,1.92784 15.4159,1.42044 23.1239,2.1308z"/>
  <path fill="black" d="M147.592 219.887c-2.4548,-4.10712 -3.19408,-8.45915 -2.76038,-12.9796l-1.69739 -9.83396 -1.67443 0.149669 -0.933733 11.374 -2.08262 0.456662 -0.766205 -9.96322 -1.66167 0.456662 -0.926079 10.1001 -1.82665 0.152221 -0.299339 -11.6478 -2.13109 -0.152221 -0.309543 12.1045 -1.67443 0.152221 -0.896032 -11.59 -0.953575 -0.821481 -0.58337 13.4847 -1.37254 -0.312095 -0.761103 -7.91547 -1.36998 0.152221 -0.154772 13.3444c-0.0178583,1.78186 23.7217,3.82791 24.8349,3.28847z"/>
  <path fill="#8C0000" d="M325.806 351.364c-8.72164,14.688 -25.6408,3.70772 -25.5181,-4.90762 0.132378,-9.29537 8.60202,-20.5308 19.7683,-10.762l0.878741 -1.6835c-10.3003,-14.6132 -0.227906,-23.2895 9.2092,-22.9853 9.43739,0.304158 18.8498,9.89434 7.23062,22.9853l0.455528 2.37742c12.9217,-9.40394 21.4827,-1.56813 21.5612,7.12318 0.0887245,9.84955 -8.67487,20.713 -24.1478,7.24366 -0.0510236,11.7204 0.8623,22.4776 2.43553,32.5752 -4.46514,2.23257 -9.33619,2.02961 -14.6132,-0.608882 2.53701,-11.6702 3.45033,-22.1227 2.73997,-31.3574z"/>
  <path fill="#BF9F4F" d="M324.588 352.278c-8.72164,14.688 -25.6408,3.70772 -25.5181,-4.90762 0.132378,-9.29537 8.60202,-20.5308 19.7683,-10.762l0.878741 -1.6835c-10.3003,-14.6132 -0.227906,-23.2895 9.2092,-22.9853 9.43739,0.304158 18.8498,9.89434 7.23062,22.9853l0.455528 2.37742c12.9217,-9.40394 21.4827,-1.56813 21.5612,7.12318 0.0887245,9.84955 -8.67487,20.713 -24.1478,7.24366 -0.0510236,11.7204 0.8623,22.4776 2.43553,32.5752 -4.46514,2.23257 -9.33619,2.02961 -14.6132,-0.608882 2.53701,-11.6702 3.45033,-22.1227 2.73997,-31.3574z"/>
  <path fill="#8C0000" d="M325.806 351.364c-8.72164,14.688 -25.6408,3.70772 -25.5181,-4.90762 0.132378,-9.29537 8.60202,-20.5308 19.7683,-10.762l0.878741 -1.6835c-10.3003,-14.6132 -0.227906,-23.2895 9.2092,-22.9853 9.43739,0.304158 18.8498,9.89434 7.23062,22.9853l0.455528 2.37742c12.9217,-9.40394 21.4827,-1.56813 21.5612,7.12318 0.0887245,9.84955 -8.67487,20.713 -24.1478,7.24366 -0.0510236,11.7204 0.8623,22.4776 2.43553,32.5752 -4.46514,2.23257 -9.33619,2.02961 -14.6132,-0.608882 2.53701,-11.6702 3.45033,-22.1227 2.73997,-31.3574z"/>
  <path fill="#BF9F4F" d="M324.588 352.278c-8.72164,14.688 -25.6408,3.70772 -25.5181,-4.90762 0.132378,-9.29537 8.60202,-20.5308 19.7683,-10.762l0.878741 -1.6835c-10.3003,-14.6132 -0.227906,-23.2895 9.2092,-22.9853 9.43739,0.304158 18.8498,9.89434 7.23062,22.9853l0.455528 2.37742c12.9217,-9.40394 21.4827,-1.56813 21.5612,7.12318 0.0887245,9.84955 -8.67487,20.713 -24.1478,7.24366 -0.0510236,11.7204 0.8623,22.4776 2.43553,32.5752 -4.46514,2.23257 -9.33619,2.02961 -14.6132,-0.608882 2.53701,-11.6702 3.45033,-22.1227 2.73997,-31.3574z"/>
  <path fill="#8C0000" d="M404.388 269.736c-8.72164,14.688 -25.6408,3.70772 -25.5181,-4.90762 0.132378,-9.29537 8.60202,-20.5308 19.7683,-10.762l0.878741 -1.6835c-10.3003,-14.6132 -0.227906,-23.2895 9.2092,-22.9853 9.43739,0.304158 18.8498,9.89434 7.23062,22.9853l0.455528 2.37742c12.9217,-9.40394 21.4827,-1.56813 21.5612,7.12318 0.0887245,9.84955 -8.67487,20.713 -24.1478,7.24366 -0.0510236,11.7204 0.8623,22.4776 2.43553,32.5752 -4.46514,2.23257 -9.33619,2.02961 -14.6132,-0.608882 2.53701,-11.6702 3.45033,-22.1227 2.73997,-31.3574z"/>
  <path fill="#BF9F4F" d="M403.17 270.65c-8.72164,14.688 -25.6408,3.70772 -25.5181,-4.90762 0.132378,-9.29537 8.60202,-20.5308 19.7683,-10.762l0.878741 -1.6835c-10.3003,-14.6132 -0.227906,-23.2895 9.2092,-22.9853 9.43739,0.304158 18.8498,9.89434 7.23062,22.9853l0.455528 2.37742c12.9217,-9.40394 21.4827,-1.56813 21.5612,7.12318 0.0887245,9.84955 -8.67487,20.713 -24.1478,7.24366 -0.0510236,11.7204 0.8623,22.4776 2.43553,32.5752 -4.46514,2.23257 -9.33619,2.02961 -14.6132,-0.608882 2.53701,-11.6702 3.45033,-22.1227 2.73997,-31.3574z"/>
  <path fill="#8C0000" d="M165.899 524.367c-8.72164,14.688 -25.6408,3.70772 -25.5181,-4.90762 0.132378,-9.29537 8.60202,-20.5308 19.7683,-10.762l0.878741 -1.6835c-10.3003,-14.6132 -0.227906,-23.2895 9.2092,-22.9853 9.43739,0.304158 18.8498,9.89434 7.23062,22.9853l0.455528 2.37742c12.9217,-9.40394 21.4827,-1.56813 21.5612,7.12318 0.0887245,9.84955 -8.67487,20.713 -24.1478,7.24366l1.3337 27.1091c-3.9909,-0.840756 -7.93928,-2.20904 -11.8454,-4.10372 1.29373,-8.29588 1.60668,-15.4707 1.07405,-22.3965z"/>
  <path fill="#8C0000" d="M166.814 353.192c-8.72164,14.688 -25.6408,3.70772 -25.5181,-4.90762 0.132378,-9.29537 8.60202,-20.5308 19.7683,-10.762l0.878741 -1.6835c-10.3003,-14.6132 -0.227906,-23.2895 9.2092,-22.9853 9.43739,0.304158 18.8498,9.89434 7.23062,22.9853l0.455528 2.37742c12.9217,-9.40394 21.4827,-1.56813 21.5612,7.12318 0.0887245,9.84955 -8.67487,20.713 -24.1478,7.24366 -0.0510236,11.7204 0.8623,22.4776 2.43553,32.5752 -4.46514,2.23257 -9.33619,2.02961 -14.6132,-0.608882 2.53701,-11.6702 3.45033,-22.1227 2.73997,-31.3574z"/>
  <path fill="#8C0000" d="M322.76 524.063c-8.72164,14.688 -25.6408,3.70772 -25.5181,-4.90762 0.132378,-9.29537 8.60202,-20.5308 19.7683,-10.762l0.878741 -1.6835c-10.3003,-14.6132 -0.227906,-23.2895 9.2092,-22.9853 9.43739,0.304158 18.8498,9.89434 7.23062,22.9853l0.455528 2.37742c12.9217,-9.40394 21.4827,-1.56813 21.5612,7.12318 0.0887245,9.84955 -8.67487,20.713 -24.1478,7.24366 -0.0510236,11.7204 -0.139181,15.2002 1.43405,25.2978 -4.46514,2.23257 -6.29547,2.07184 -12.2275,3.85342 2.53701,-11.6702 2.06617,-19.3076 1.35581,-28.5423z"/>
  <path fill="#BF9F4F" d="M165.596 354.105c-8.72164,14.688 -25.6408,3.70772 -25.5181,-4.90762 0.132378,-9.29537 8.60202,-20.5308 19.7683,-10.762l0.878741 -1.6835c-10.3003,-14.6132 -0.227906,-23.2895 9.2092,-22.9853 9.43739,0.304158 18.8498,9.89434 7.23062,22.9853l0.455528 2.37742c12.9217,-9.40394 21.4827,-1.56813 21.5612,7.12318 0.0887245,9.84955 -8.67487,20.713 -24.1478,7.24366 -0.0510236,11.7204 0.8623,22.4776 2.43553,32.5752 -4.46514,2.23257 -9.33619,2.02961 -14.6132,-0.608882 2.53701,-11.6702 3.45033,-22.1227 2.73997,-31.3574z"/>
  <path fill="#8C0000" d="M86.4037 268.518c-8.72164,14.688 -25.6408,3.70772 -25.5181,-4.90762 0.132378,-9.29537 8.60202,-20.5308 19.7683,-10.762l0.878741 -1.6835c-10.3003,-14.6132 -0.227906,-23.2895 9.2092,-22.9853 9.43739,0.304158 18.8498,9.89434 7.23062,22.9853l0.455528 2.37742c12.9217,-9.40394 21.4827,-1.56813 21.5612,7.12318 0.0887245,9.84955 -8.67487,20.713 -24.1478,7.24366 -0.0510236,11.7204 0.8623,22.4776 2.43553,32.5752 -4.46514,2.23257 -9.33619,2.02961 -14.6132,-0.608882 2.53701,-11.6702 3.45033,-22.1227 2.73997,-31.3574z"/>
  <path fill="#BF9F4F" d="M85.186 269.431c-8.72164,14.688 -25.6408,3.70772 -25.5181,-4.90762 0.132378,-9.29537 8.60202,-20.5308 19.7683,-10.762l0.878741 -1.6835c-10.3003,-14.6132 -0.227906,-23.2895 9.2092,-22.9853 9.43739,0.304158 18.8498,9.89434 7.23062,22.9853l0.455528 2.37742c12.9217,-9.40394 21.4827,-1.56813 21.5612,7.12318 0.0887245,9.84955 -8.67487,20.713 -24.1478,7.24366 -0.0510236,11.7204 0.8623,22.4776 2.43553,32.5752 -4.46514,2.23257 -9.33619,2.02961 -14.6132,-0.608882 2.53701,-11.6702 3.45033,-22.1227 2.73997,-31.3574z"/>
  <path fill="#8C0000" d="M87.0129 96.7332c-8.72164,14.688 -25.6408,3.70772 -25.5181,-4.90762 0.132378,-9.29537 8.60202,-20.5308 19.7683,-10.762l0.878741 -1.6835c-10.3003,-14.6132 -0.227906,-23.2895 9.2092,-22.9853 9.43739,0.304158 18.8498,9.89434 7.23062,22.9853l0.455528 2.37742c12.9217,-9.40394 21.4827,-1.56813 21.5612,7.12318 0.0887245,9.84955 -8.67487,20.713 -24.1478,7.24366 -0.0510236,11.7204 0.8623,22.4776 2.43553,32.5752 -4.46514,2.23257 -9.33619,2.02961 -14.6132,-0.608882 2.53701,-11.6702 3.45033,-22.1227 2.73997,-31.3574z"/>
  <path fill="#BF9F4F" d="M85.7951 97.6465c-8.72164,14.688 -25.6408,3.70772 -25.5181,-4.90762 0.132378,-9.29537 8.60202,-20.5308 19.7683,-10.762l0.878741 -1.6835c-10.3003,-14.6132 -0.227906,-23.2895 9.2092,-22.9853 9.43739,0.304158 18.8498,9.89434 7.23062,22.9853l0.455528 2.37742c12.9217,-9.40394 21.4827,-1.56813 21.5612,7.12318 0.0887245,9.84955 -8.67487,20.713 -24.1478,7.24366 -0.0510236,11.7204 0.8623,22.4776 2.43553,32.5752 -4.46514,2.23257 -9.33619,2.02961 -14.6132,-0.608882 2.53701,-11.6702 3.45033,-22.1227 2.73997,-31.3574z"/>
  <path fill="#8C0000" d="M408.043 95.5149c-8.72164,14.688 -25.6408,3.70772 -25.5181,-4.90762 0.132378,-9.29537 8.60202,-20.5308 19.7683,-10.762l0.878741 -1.6835c-10.3003,-14.6132 -0.227906,-23.2895 9.2092,-22.9853 9.43739,0.304158 18.8498,9.89434 7.23062,22.9853l0.455528 2.37742c12.9217,-9.40394 21.4827,-1.56813 21.5612,7.12318 0.0887245,9.84955 -8.67487,20.713 -24.1478,7.24366 -0.0510236,11.7204 0.8623,22.4776 2.43553,32.5752 -4.46514,2.23257 -9.33619,2.02961 -14.6132,-0.608882 2.53701,-11.6702 3.45033,-22.1227 2.73997,-31.3574z"/>
  <path fill="#8C0000" d="M497.142 138.644l-1.34929 73.9148c-2.71134,0.0569764 -4.67433,-0.442205 -7.64249,-1.92614 2.53701,-11.6702 3.45033,-22.1227 2.73997,-31.3574 -8.72164,14.688 -25.6408,3.70772 -25.5181,-4.90762 0.132378,-9.29537 8.60202,-20.5308 19.7683,-10.762l0.878741 -1.6835c-10.3003,-14.6132 1.68576,-23.5823 11.1229,-23.2781z"/>
  <path fill="#BF9F4F" d="M406.825 96.4282c-8.72164,14.688 -25.6408,3.70772 -25.5181,-4.90762 0.132378,-9.29537 8.60202,-20.5308 19.7683,-10.762l0.878741 -1.6835c-10.3003,-14.6132 -0.227906,-23.2895 9.2092,-22.9853 9.43739,0.304158 18.8498,9.89434 7.23062,22.9853l0.455528 2.37742c12.9217,-9.40394 21.4827,-1.56813 21.5612,7.12318 0.0887245,9.84955 -8.67487,20.713 -24.1478,7.24366 -0.0510236,11.7204 0.8623,22.4776 2.43553,32.5752 -4.46514,2.23257 -9.33619,2.02961 -14.6132,-0.608882 2.53701,-11.6702 3.45033,-22.1227 2.73997,-31.3574z"/>
  <path fill="#BF9F4F" d="M320.933 525.281c-8.72164,14.688 -25.6408,3.70772 -25.5181,-4.90762 0.132378,-9.29537 8.60202,-20.5308 19.7683,-10.762l0.878741 -1.6835c-10.3003,-14.6132 -0.227906,-23.2895 9.2092,-22.9853 9.43739,0.304158 18.8498,9.89434 7.23062,22.9853l0.455528 2.37742c12.9217,-9.40394 21.4827,-1.56813 21.5612,7.12318 0.0887245,9.84955 -8.67487,20.713 -24.1478,7.24366 -0.0510236,11.7204 -0.139181,15.2002 1.43405,25.2978 -4.46514,2.23257 -6.29547,2.07184 -12.2275,3.85342 2.53701,-11.6702 2.06617,-19.3076 1.35581,-28.5423z"/>
  <path fill="#BF9F4F" d="M163.768 525.281c-8.72164,14.688 -25.6408,3.70772 -25.5181,-4.90762 0.132378,-9.29537 8.60202,-20.5308 19.7683,-10.762l0.878741 -1.6835c-10.3003,-14.6132 -0.227906,-23.2895 9.2092,-22.9853 9.43739,0.304158 18.8498,9.89434 7.23062,22.9853l0.455528 2.37742c12.9217,-9.40394 21.4827,-1.56813 21.5612,7.12318 0.0887245,9.84955 -8.67487,20.713 -24.1478,7.24366l1.3337 27.1091c-3.9909,-0.840756 -7.93928,-2.20904 -11.8454,-4.10372 1.29373,-8.29588 1.60668,-15.4707 1.07405,-22.3965z"/>
  <path fill="#8C0000" d="M7.69096 212.171l-4.25254 -74.8707c18.8751,-0.609166 22.3172,13.0244 9.78463,24.8976l1.74983 2.10189c12.9217,-9.40394 22.7007,-1.87228 22.7789,6.81874 0.088441,9.84926 -8.67487,20.713 -24.1478,7.24366 -0.0510236,11.7204 0.8623,22.4776 2.43553,32.5752 -2.79071,1.39521 -5.2407,1.74104 -8.3486,1.23364z"/>
  <path fill="#BF9F4F" d="M497.119 139.852l-1.34958 73.9367c-2.71134,0.0569764 -5.8697,-0.453827 -8.83786,-1.93776 2.53701,-11.6702 3.45033,-22.1227 2.73997,-31.3574 -8.72164,14.688 -25.6408,3.70772 -25.5181,-4.90762 0.132378,-9.29537 8.60202,-20.5308 19.7683,-10.762l0.878741 -1.6835c-10.3003,-14.6132 2.88142,-23.5925 12.3185,-23.2883z"/>
  <path fill="#8C0000" d="M7.08804 1.10721l32.1523 -0.00765355c0.0887245,9.84955 -8.94501,21.079 -24.4179,7.60961 -0.0510236,11.7204 0.8623,22.4776 2.43553,32.5752 -3.06964,1.53468 -6.33147,1.91849 -9.7852,1.15115l-0.384662 -41.3283z"/>
  <path fill="#8C0000" d="M140.04 1.07575l59.4706 -0.0141732c0.697607,11.0673 -8.7001,20.2034 -24.173,6.73399 -0.0510236,11.7204 0.8623,22.4776 2.43553,32.5752 -4.46514,2.23257 -9.33619,2.02961 -14.6132,-0.608882 2.53701,-11.6702 3.45033,-22.1227 2.73997,-31.3574 -8.72164,14.688 -26.896,6.46214 -25.8599,-7.3287z"/>
  <path fill="#BF9F4F" d="M138.555 1.07603l59.408 0.998079c0.697607,11.0673 -8.67487,20.713 -24.1478,7.24366 -0.0510236,11.7204 0.8623,22.4776 2.43553,32.5752 -4.46514,2.23257 -9.33619,2.02961 -14.6132,-0.608882 2.53701,-11.6702 3.45033,-22.1227 2.73997,-31.3574 -8.72164,14.688 -26.8586,4.94022 -25.8225,-8.85062z"/>
  <path fill="#BF9F4F" d="M464.459 0.999213l35.1958 -0.00850394 -0.734741 40.2497c-3.24397,0.488126 -7.75078,0.0300473 -11.3786,-1.78384 2.53701,-11.6702 3.45033,-22.1227 2.73997,-31.3574 -8.72164,14.688 -25.9452,1.5154 -25.8225,-7.09994z"/>
  <path fill="#BF9F4F" d="M5.51339 213.985l-2.03811 -74.8636c18.8751,-0.609166 20.1492,11.5072 8.53002,24.5982l1.74983 2.10189c12.9217,-9.40394 22.7007,-1.87228 22.7789,6.81874 0.088441,9.84926 -8.67487,20.713 -24.1478,7.24366 -0.0510236,11.7204 0.8623,22.4776 2.43553,32.5752 -2.79071,1.39521 -6.20051,2.03329 -9.30841,1.52589z"/>
  <path fill="#BF9F4F" d="M0.683717 1.10721l37.3734 -0.00737008c0.0887245,9.84955 -8.9796,22.2965 -24.4525,8.82709 -0.0510236,11.7204 0.8623,22.4776 2.43553,32.5752 -3.06964,1.53468 -11.0358,2.22803 -14.4896,1.46069l-0.866835 -42.8556z"/>
  <path fill="#8C0000" d="M12.7219 359.575c-2.57159,-7.5807 -4.09436,-24.0361 -5.03065,-44.879 13.6256,-3.50617 18.0791,9.25654 5.30221,23.2753l0.455528 2.37742c12.9217,-9.40394 19.6393,1.51427 19.4301,10.1676 -0.187087,7.74284 -7.25755,17.7092 -20.1572,9.05868z"/>
  <path fill="#BF9F4F" d="M12.113 361.402c-2.57159,-7.5807 -4.09436,-24.0361 -5.03065,-44.879 13.6256,-3.50617 18.0791,9.25654 5.30221,23.2753l0.455528 2.37742c12.9217,-9.40394 19.6393,1.51427 19.4301,10.1676 -0.187087,7.74284 -7.25755,17.7092 -20.1572,9.05868z"/>
  <path fill="#8C0000" d="M305.64 1.07575l59.4706 -0.0141732c0.697607,11.0673 -8.7001,20.2034 -24.173,6.73399 -0.0510236,11.7204 0.8623,22.4776 2.43553,32.5752 -4.46514,2.23257 -9.33619,2.02961 -14.6132,-0.608882 2.53701,-11.6702 3.45033,-22.1227 2.73997,-31.3574 -8.72164,14.688 -26.896,6.46214 -25.8599,-7.3287z"/>
  <path fill="#BF9F4F" d="M304.155 1.07603l59.408 0.998079c0.697607,11.0673 -8.67487,20.713 -24.1478,7.24366 -0.0510236,11.7204 0.8623,22.4776 2.43553,32.5752 -4.46514,2.23257 -9.33619,2.02961 -14.6132,-0.608882 2.53701,-11.6702 3.45033,-22.1227 2.73997,-31.3574 -8.72164,14.688 -26.8586,4.94022 -25.8225,-8.85062z"/>
  <path fill="white" d="M60.3332 338.882c-12.7644,-18.9995 -14.5018,-22.8436 -21.3109,-37.1418 16.0336,23.0876 8.61449,26.1213 21.3109,37.1418z"/>
  <path fill="black" d="M63.682 342.84l-8.82879 -12.7865c1.52221,5.1755 4.87106,9.23471 8.82879,12.7865z"/>
  <path id="path1937_0" fill="none" stroke="black" stroke-width="0.992126" d="M0.683717 1.10721l498.971 -0.116504 -5.44281 298.171c0.384095,352.608 -487.96,352.092 -487.49,0.482457l-6.03808 -298.537z"/>
 </g>
</svg>
