<?xml version="1.0" encoding="UTF-8" standalone="no"?>
<!-- Creator: CorelDRAW -->
<svg
   xmlns:dc="http://purl.org/dc/elements/1.1/"
   xmlns:cc="http://creativecommons.org/ns#"
   xmlns:rdf="http://www.w3.org/1999/02/22-rdf-syntax-ns#"
   xmlns:svg="http://www.w3.org/2000/svg"
   xmlns="http://www.w3.org/2000/svg"
   xmlns:sodipodi="http://sodipodi.sourceforge.net/DTD/sodipodi-0.dtd"
   xmlns:inkscape="http://www.inkscape.org/namespaces/inkscape"
   xml:space="preserve"
   width="500px"
   height="614px"
   shape-rendering="geometricPrecision"
   text-rendering="geometricPrecision"
   image-rendering="optimizeQuality"
   fill-rule="evenodd"
   clip-rule="evenodd"
   viewBox="0 0 500 614"
   version="1.0"
   id="svg2"
   sodipodi:version="0.32"
   inkscape:version="0.46"
   sodipodi:docname="Ylitornio.vaakuna.svg"
   inkscape:output_extension="org.inkscape.output.svg.inkscape"><metadata
   id="metadata13"><rdf:RDF><cc:Work
       rdf:about=""><dc:format>image/svg+xml</dc:format><dc:type
         rdf:resource="http://purl.org/dc/dcmitype/StillImage" /></cc:Work></rdf:RDF></metadata><defs
   id="defs11"><inkscape:perspective
     sodipodi:type="inkscape:persp3d"
     inkscape:vp_x="0 : 307 : 1"
     inkscape:vp_y="0 : 1000 : 0"
     inkscape:vp_z="500 : 307 : 1"
     inkscape:persp3d-origin="250 : 204.66667 : 1"
     id="perspective15" /></defs><sodipodi:namedview
   inkscape:window-height="669"
   inkscape:window-width="640"
   inkscape:pageshadow="2"
   inkscape:pageopacity="0.0"
   guidetolerance="10.0"
   gridtolerance="10.0"
   objecttolerance="10.0"
   borderopacity="1.0"
   bordercolor="#666666"
   pagecolor="#ffffff"
   id="base"
   showgrid="false"
   inkscape:zoom="0.752443"
   inkscape:cx="250"
   inkscape:cy="307"
   inkscape:window-x="115"
   inkscape:window-y="63"
   inkscape:current-layer="svg2" />
 <g
   id="Layer_x0020_1">
  <metadata
   id="CorelCorpID_0Corel-Layer" />
  <path
   id="path1937"
   fill="#B2B2B2"
   stroke="black"
   stroke-width="0.708662"
   d="M-0.473953 1.88447l501.051 -0.0691654 -4.21314 403.591c-34.3826,129.253 -110.671,202.183 -245.513,207.177 -128.841,-3.79389 -214.966,-73.0897 -246.729,-216.98l-4.5961 -393.719z"
   style="fill:#cccccc" />
  <path
   id="path1937_0"
   fill="red"
   stroke="black"
   stroke-width="0.708662"
   d="M160.244 469.539c14.29,-113.678 167.791,-100.229 179.613,2.34765 54.2242,-36.8884 86.4094,-37.1917 132.636,0.207496 -41.1798,87.5254 -112.084,136.432 -221.642,140.489 -102.67,-3.02343 -178.215,-47.6411 -220.742,-138.454 73.8899,-52.1493 110.789,-12.8123 130.135,-4.59014z" />
  <path
   fill="red"
   stroke="black"
   stroke-width="0.708662"
   d="M286.063 107.668c31.3492,-6.3 27.8257,-53.0011 46.0046,-60.3607 -9.31975,34.3743 1.70731,42.3715 -19.8859,66.8645 15.6059,15.2084 40.2463,-30.8446 57.551,-40.2792 -20.8789,20.8196 -9.47056,37.8831 -39.1127,61.4926 16.6124,13.8433 58.3708,-22.2622 66.598,-26.1723 -20.1504,25.3738 -26.7361,40.0757 -51.3961,51.8738 45.218,14.6639 69.1027,-14.9494 70.0348,-10.637 -29.5586,15.4826 -25.918,35.608 -64.4769,37.3822 -4.17742,17.3804 72.6642,4.2874 72.5369,8.39594 -26.7333,6.09931 -24.3814,8.54221 -37.7898,13.4654 -13.5193,5.22936 -27.7078,-3.22384 -29.7814,8.77862 18.6834,20.8619 45.906,10.0284 58.942,20.215 -50.6302,13.8691 -59.8445,-8.64114 -72.7878,4.07877 20.1521,11.0614 27.7441,21.9861 57.4155,37.0678 -48.5181,0.289134 -51.5415,-27.6982 -67.3453,-14.116 14.6597,33.6742 38.1189,26.9589 40.525,53.2905 -17.0459,-15.2955 -31.485,-12.3571 -41.3603,-24.338 -10.2095,-19.5214 -14.4006,-20.4486 -23.6622,-16.9645 8.65843,29.4075 12.0538,40.2361 31.2789,65.9002 -38.1339,-21.1289 -38.4004,-53.6871 -55.0639,-48.708 8.10709,24.2932 1.04003,32.9859 16.2244,68.5463 -40.0615,-44.7424 -15.0035,-62.9184 -41.5877,-62.8892 4.8121,38.0673 -13.3543,26.4127 -3.75959,66.6797 -28.4434,-24.6393 -6.78586,-53.8098 -18.9145,-64.4811 -20.6765,14.3189 -18.0145,65.1683 -22.7656,64.0245 -17.4311,-34.6536 12.6675,-68.4703 -5.09131,-72.9519 -9.31663,24.8528 -21.5728,25.1045 -32.1937,60.4565 -11.2244,-50.6866 21.7502,-62.6534 13.1703,-71.1179 -11.9628,3.15269 -19.0565,8.13005 -25.3307,15.2748 -4.98047,7.65525 -9.23358,22.2812 -25.6774,34.9764 14.3039,-28.4831 -0.136347,-44.8603 32.1225,-59.8958 -0.507969,-9.74126 -41.2002,-3.5229 -65.5061,23.389 11.412,-28.8145 19.1747,-36.3926 48.2854,-48.316 -11.3426,-31.5462 -63.2325,17.0807 -74.3451,8.20432 20.8877,-9.48019 27.307,-33.5951 69.9015,-37.2691 2.98772,-16.6612 -61.9512,-4.10457 -77.5846,-12.6981 45.3487,-0.442205 32.2254,-10.8675 72.8365,-11.293 7.99796,-9.98788 -37.7603,-26.8328 -68.3697,-30.8707 38.4852,-1.05704 50.4876,-11.4956 72.1097,2.99395 2.1841,-16.4234 -17.2545,-32.1718 -52.1533,-40.2789 53.0496,-7.65837 56.8231,4.38236 69.1827,11.5492 22.6162,-21.009 -46.5815,-41.8504 -51.4041,-56.8531 30.8004,14.2807 61.6462,9.63865 69.5852,32.2583 17.9218,-17.1105 -32.8414,-49.9082 -31.7872,-60.878 35.0034,26.3061 41.7396,12.1615 50.33,46.5081 21.0558,-28.4497 -10.317,-57.0257 -5.95361,-72.3371 4.47562,16.4761 32.6889,33.6614 32.101,66.5399 19.1588,-3.83698 12.9087,-42.5186 14.6852,-66.9657 5.12249,2.23313 23.2625,38.5384 15.6512,71.4317 26.0873,-15.0296 27.0173,-32.1486 28.2932,-63.9902 26.8739,55.8213 -3.1011,57.4274 -0.279213,73.0236z"
   id="path8"
   style="stroke-width:0.709;stroke-miterlimit:4;stroke-dasharray:none" />
 </g>
</svg>