<?xml version="1.0" encoding="UTF-8" standalone="no"?>
<!-- Created with Inkscape (http://www.inkscape.org/) -->
<svg
   xmlns:dc="http://purl.org/dc/elements/1.1/"
   xmlns:cc="http://creativecommons.org/ns#"
   xmlns:rdf="http://www.w3.org/1999/02/22-rdf-syntax-ns#"
   xmlns:svg="http://www.w3.org/2000/svg"
   xmlns="http://www.w3.org/2000/svg"
   xmlns:sodipodi="http://sodipodi.sourceforge.net/DTD/sodipodi-0.dtd"
   xmlns:inkscape="http://www.inkscape.org/namespaces/inkscape"
   version="1.0"
   width="500"
   height="565"
   id="svg2"
   sodipodi:version="0.32"
   inkscape:version="0.46"
   sodipodi:docname="Ylivieska.vaakuna.svg"
   inkscape:output_extension="org.inkscape.output.svg.inkscape">
  <metadata
     id="metadata9">
    <rdf:RDF>
      <cc:Work
         rdf:about="">
        <dc:format>image/svg+xml</dc:format>
        <dc:type
           rdf:resource="http://purl.org/dc/dcmitype/StillImage" />
      </cc:Work>
    </rdf:RDF>
  </metadata>
  <defs
     id="defs7">
    <inkscape:perspective
       sodipodi:type="inkscape:persp3d"
       inkscape:vp_x="0 : 282.5 : 1"
       inkscape:vp_y="0 : 1000 : 0"
       inkscape:vp_z="500 : 282.5 : 1"
       inkscape:persp3d-origin="250 : 188.33333 : 1"
       id="perspective11" />
  </defs>
  <sodipodi:namedview
     inkscape:window-height="671"
     inkscape:window-width="640"
     inkscape:pageshadow="2"
     inkscape:pageopacity="0.0"
     guidetolerance="10.0"
     gridtolerance="10.0"
     objecttolerance="10.0"
     borderopacity="1.0"
     bordercolor="#666666"
     pagecolor="#ffffff"
     id="base"
     showgrid="false"
     inkscape:zoom="0.81769912"
     inkscape:cx="250"
     inkscape:cy="281.27706"
     inkscape:window-x="92"
     inkscape:window-y="63"
     inkscape:current-layer="svg2" />
  <g
     id="layer2">
    <path
       d="M 2,2 L 498,2 L 485,365 C 485,465 365,563 250,563 C 135,563 15,465 15,365 L 2,2 z "
       style="fill:rgb(178, 176, 177);fill-opacity:1;fill-rule:evenodd;stroke:rgb(0, 139, 208);stroke-width:0.5;stroke-linecap:butt;stroke-linejoin:miter;stroke-miterlimit:4;stroke-dasharray:none;stroke-opacity:1"
       id="path2171" />
    <path
       d="M 250,205 L 312.13714,140 C 250,90 305,5 375,75 C 430,-10 515,95 432.47462,130 C 505,175 435,257.85565 375,200 L 295,285 L 295,390 C 392.07107,372.8274 385.15229,490 297.07107,468.98985 C 321.2132,572.07107 183.83756,572.07107 205.95939,471.01015 C 122.92893,484.04061 119.94924,377.87816 205,390 L 205,285 L 125,200 C 65,260 1.4210855e-14,170 67.020305,132.47462 C -5,87.979695 75,-5 130,75 C 170,15 260,80 192.47462,137.47462 L 250,205 z "
       style="fill: rgb(0, 139, 208); fill-opacity: 1; fill-rule: evenodd; stroke: rgb(0, 139, 208); stroke-width: 1px; stroke-linecap: butt; stroke-linejoin: miter; stroke-opacity: 1;"
       id="path3061" />
  </g>
  <path
     style="opacity:1;fill:#cccccc;fill-opacity:1;stroke:none;stroke-width:0.50000000000000000;stroke-linejoin:miter;stroke-miterlimit:4;stroke-dasharray:none;stroke-opacity:1"
     d="M 216.73593,559.39551 C 179.36209,553.00286 146.54481,540.05624 115.2316,519.35142 C 71.125977,490.18806 39.4878,452.79379 24.700404,412.34947 C 16.453263,389.79315 16.794098,394.59744 10.1417,207.1334 C 6.7887915,112.64871 3.6910628,28.051272 3.2578594,19.139069 L 2.4701981,2.9350649 L 249.63012,2.9350649 L 496.79004,2.9350649 L 496.75243,11.801407 C 496.73167,16.677895 493.72848,102.1158 490.07861,201.66342 C 484.84256,344.47347 483.02565,384.56878 481.46661,391.71082 C 470.90656,440.08685 435.7273,486.01043 382.41245,521.0178 C 361.16979,534.96607 327.94597,549.41106 302.95346,555.56484 C 276.42673,562.09638 241.57833,563.64472 216.73593,559.39552 L 216.73593,559.39551 z M 265.73746,545.17267 C 290.39466,537.85126 304.30804,511.62666 299.9907,480.61058 C 299.25055,475.29343 298.78891,470.83528 298.96481,470.70359 C 299.1407,470.57192 303.3028,471.03796 308.21389,471.73928 C 331.83171,475.11192 353.7355,465.18156 362.29596,447.22038 C 366.42141,438.56462 366.97087,425.12662 363.56807,416.11016 C 356.19974,396.58612 333.81479,385.47264 306.31656,387.68644 L 296.22727,388.49871 L 296.2722,336.66113 L 296.31715,284.82359 L 335.65997,243.05948 L 375.00272,201.29536 L 379.75275,205.36121 C 386.14707,210.83453 399.31306,217.5306 407.37056,219.40734 C 428.26233,224.27342 451.64158,212.97374 460.52999,193.71429 C 464.40715,185.31316 464.26445,165.85755 460.2698,158.24892 C 455.59362,149.34224 448.59567,140.7195 441.8983,135.61202 C 438.45783,132.98826 435.65922,130.5419 435.67923,130.17565 C 435.69926,129.80937 439.06978,127.58815 443.16934,125.23956 C 451.7458,120.32619 459.8728,111.83532 463.97866,103.49851 C 466.34015,98.703592 466.81915,95.829002 466.77671,86.70671 C 466.7339,77.51361 466.20756,74.592034 463.58192,68.974026 C 459.20415,59.607048 451.84889,51.79898 442.76153,46.871923 C 435.49892,42.934228 434.32761,42.680736 423.39487,42.680736 C 412.7123,42.680736 411.08832,43.010295 403.5851,46.700882 C 395.40356,50.725113 385.59719,59.191112 378.5097,68.348894 L 374.73438,73.227033 L 368.80605,68.273353 C 348.99188,51.716823 332.00667,45.485007 315.61561,48.757959 C 299.08002,52.059748 288.29818,63.866976 285.06675,82.212074 C 282.21349,98.41033 288.86979,117.12401 302.8299,132.1518 L 310.59104,140.50654 L 283.63899,168.63908 C 268.81534,184.11199 255.21334,198.32603 253.41229,200.22583 L 250.13769,203.68001 L 222.4303,171.21985 C 207.19126,153.36678 194.72294,138.403 194.72294,137.96701 C 194.72294,137.53103 197.7185,133.93875 201.37973,129.98418 C 205.07165,125.99649 210.11002,118.59848 212.69196,113.37407 C 216.95399,104.75017 217.34119,103.12198 217.27384,94.107464 C 217.20943,85.485588 216.68945,83.224427 213.09331,75.928589 C 208.37984,66.365866 201.72024,59.892764 191.33923,54.783684 C 184.98121,51.654526 183.13144,51.335472 171.48701,51.359344 C 159.89478,51.383106 157.93258,51.72723 151.30844,54.898042 C 147.01674,56.952379 140.96993,61.405631 136.7418,65.625851 L 129.51281,72.841292 L 126.4434,68.767507 C 120.5951,61.00552 110.18588,52.140597 102.09538,48.031738 C 95.05248,44.454922 92.530721,43.846666 83.210508,43.476738 C 73.32554,43.084393 71.813688,43.349405 64.552398,46.747378 C 55.179231,51.133613 46.967115,58.945606 42.264029,67.949811 C 39.14315,73.924808 38.852175,75.615809 38.826101,87.929654 C 38.799833,100.34317 39.063242,101.88638 42.237222,107.91281 C 46.121988,115.28884 53.670999,123.97643 60.557383,128.99615 L 65.195935,132.37732 L 59.875971,136.03757 C 52.333441,141.22697 45.763983,148.895 42.020284,156.87921 C 39.247173,162.79341 38.797619,165.3728 38.797619,175.37013 C 38.797619,186.15473 39.097497,187.58577 42.978154,195.32033 C 50.35385,210.02086 63.935937,219.20254 80.007093,220.35242 C 94.241289,221.37088 106.62968,216.65692 121.68117,204.49486 L 125.07341,201.75384 L 130.45435,207.21187 C 133.41388,210.2138 151.28633,229.15903 170.17091,249.3124 L 204.50649,285.95488 L 204.50649,337.38811 L 204.50649,388.82136 L 195.63899,388.37354 C 164.55399,386.80383 142.13636,404.32155 142.13636,430.18191 C 142.13636,444.63116 149.19782,457.05696 161.80865,464.79853 C 170.91212,470.38701 179.5462,472.51343 193.20495,472.53094 L 204.52785,472.54545 L 203.80358,479.57738 C 203.40523,483.44494 202.87312,487.28223 202.62112,488.1047 C 201.37488,492.17193 204.7888,511.13302 208.07038,518.37042 C 218.32828,540.99369 242.29578,552.1332 265.73745,545.17269 L 265.73746,545.17267 z"
     id="path3154" />
</svg>
