<?xml version="1.0" encoding="UTF-8"?>
<!DOCTYPE svg PUBLIC "-//W3C//DTD SVG 1.1//EN" "http://www.w3.org/Graphics/SVG/1.1/DTD/svg11.dtd">
<!-- Creator: CorelDRAW -->
<svg xmlns="http://www.w3.org/2000/svg" xml:space="preserve" width="500px" height="538px" shape-rendering="geometricPrecision" text-rendering="geometricPrecision" image-rendering="optimizeQuality" fill-rule="evenodd" clip-rule="evenodd"
viewBox="0 0 500 538"
 xmlns:xlink="http://www.w3.org/1999/xlink"
 xmlns:svg="http://www.w3.org/2000/svg"
 version="1.0">
 <g id="Layer_x0020_1">
  <metadata id="CorelCorpID_0Corel-Layer"/>
  <path id="path1937" fill="#F00000" stroke="#F00000" stroke-width="1.98425" d="M1.06101 1.49924l497.778 -0.124158 -20.3023 327.43c-30.1292,277.56 -430.54,274.984 -461.013,1.03606l-16.4625 -328.342z"/>
  <polygon fill="white" points="56.0072,437.671 440.513,437.965 438.486,440.557 57.4504,440.557 "/>
  <polygon fill="#8C0000" points="20.0424,348.052 476.188,348.052 475.318,352.402 21.4923,351.822 "/>
  <rect fill="white" x="13.9527" y="253.518" width="469.195" height="2.31988"/>
  <path id="path1937_0" fill="#BF9F4F" d="M483.08 255.526l-4.54337 73.2796c-0.746079,6.87175 -1.7195,13.572 -2.90778,20.1008l-455.362 -0.250299c-1.1109,-6.12227 -2.02876,-12.3939 -2.7428,-18.8144l-3.72359 -74.2714 59.5999 -0.00538583 5.79912 -43.4991 20.5812 1.2291 5.51792 42.2671 127.883 -0.012189 5.21887 -41.1789 19.9826 0.885827 5.82662 40.2905 128.753 -0.0127559 6.66907 -46.3984 18.5431 1.91849 6.3961 44.4773 58.5091 -0.00595276z"/>
  <path fill="#8C0000" d="M408.259 41.9292l9.17802 0.469134c5.93093,16.7403 24.77,28.4264 52.7253,41.9162 -0.0873071,5.11966 -1.1109,11.5115 0.372189,16.632 -5.17493,-3.70488 -6.14353,-9.20835 -11.0778,-9.36426l-0.0399685 8.03764c-6.42813,-2.01742 -11.6399,-6.55711 -16.4132,-12.7911l-3.20627 0.481323 0.27241 8.64029c-10.2181,-4.61877 -17.9612,-15.4344 -23.425,-32.2906 -3.32192,17.7358 11.3573,33.5429 16.1402,38.7989 -5.58709,0.335055 -9.08561,1.50888 -11.4973,-5.77559 -2.3366,8.05068 -1.8771,9.22734 -5.11512,12.3075 -3.78199,-2.39188 -7.61358,-8.6692 -7.58523,-12.966l-10.5523 7.66347c2.54126,-6.5503 8.65956,-19.2368 9.7886,-29.5019 -7.32444,8.53682 -15.2768,19.8717 -17.7392,21.1915 -1.89865,-2.50469 -1.53128,-8.30353 -2.51632,-11.0265 -2.45452,4.14624 -11.1685,10.9242 -14.4323,15.1821 -2.67421,-1.23477 -2.35814,-7.21985 -1.8961,-10.2087 -2.5577,2.90211 -10.7941,10.1058 -14.5695,12.4257 0.33052,-5.68885 0.742111,-11.2964 1.72658,-16.3304 19.7337,-14.08 45.0584,-29.9242 49.8623,-43.4909z"/>
  <path id="path1937_1" fill="#BF9F4F" d="M438.831 440.32c-88.2009,128.338 -293.444,127.295 -381.644,-0.356599l381.644 0.356599z"/>
  <path fill="#8C0000" d="M243.916 123.688l18.9074 -0.23811c6.70933,17.1099 29.7252,31.7795 61.8889,45.0805 -0.0986457,5.23276 0.0714331,13.7996 1.74926,19.0332l-13.9201 -14.2523 -0.132661 10.5063c-6.45563,-4.26699 -11.0602,-8.45433 -16.9231,-13.991l0.0572599 9.09241c-4.17742,-2.96929 -4.85235,-2.04945 -8.43704,-6.28838l-0.686268 -3.54784 -4.40476 -2.41143 -2.63282 8.96174c-6.14495,-3.40753 -8.14196,-4.83137 -13.1017,-9.50797 2.02394,6.74589 11.5055,17.0637 11.5319,23.0956l-14.6106 -9.78123c-1.56586,8.71512 0.241228,5.84192 -3.69099,9.47679l-12.2332 -11.0427 -8.83078 6.5897 7.34741 -28.0468 -13.0496 17.9337 -2.21329 -9.21147 -9.97144 13.8115 -2.50696 -5.19506 0.197008 -5.61118 -12.6683 12.625 -1.39691 -10.0477 -13.3305 14.9295 -2.20989 -10.9324 -8.38233 7.60678 0.657355 -13.8166c29.6136,-13.2633 55.3689,-24.5461 62.9969,-44.8206z"/>
  <path fill="#8C0000" d="M245.131 79.3525l16.477 -0.730205c6.18463,18.2412 27.1633,34.8333 56.8123,49.0136 -0.0909922,5.57887 -0.648567,10.188 0.8983,15.7677l-15.2133 -12.3375 -0.360567 11.6773c-5.95077,-4.54933 -10.1954,-5.67978 -15.5999,-11.5824l1.48167 9.69336c-4.01528,-2.61525 -11.3343,-10.1863 -11.0293,-14.7725l-4.29874 -1.85669 -0.283748 6.93496c-5.76,-3.00104 -9.76423,-14.2393 -12.5538,-23.2322 -3.67994,8.57793 3.84747,38.3942 8.48693,43.6711l-6.80089 -11.6187c-1.4434,9.29141 -5.49241,12.8951 -9.11764,16.7703l-4.1332 -15.3442 -6.71131 6.78728c4.23128,-11.3961 6.42955,-22.792 7.48687,-34.187 -4.04958,7.26548 -8.61534,13.758 -13.934,19.1194 -2.50611,-2.24221 -3.74202,-5.43629 -3.70715,-9.58252l-11.3352 12.3438c-1.98,-2.7292 -2.05455,-5.93462 -3.08154,-8.90164 -2.55997,4.51814 -6.81222,8.18986 -10.7255,12.0308 -1.54233,-1.34532 -2.92649,-2.93046 -3.19266,-6.18747 -2.6674,3.16233 -5.97005,6.00718 -9.90738,8.53512l-0.132095 -6.89301 -8.67941 5.01421 0.367654 -11.3964c28.5888,-11.558 49.4034,-28.0145 58.7866,-48.7367z"/>
  <path fill="#8C0000" d="M242.463 50.4811l16.753 -6.86098c5.93065,16.7403 28.1906,27.2047 56.1459,40.6945 -0.0873071,5.11966 -0.622205,10.7785 0.861166,15.899 -3.83103,-2.74252 -6.70989,-6.12 -8.63547,-10.1319l-2.93131 1.50066 0.204378 7.54923c-6.18265,-2.5081 -10.2532,-6.64129 -15.4358,-12.0583l-0.245764 9.6103c-4.86227,-2.19799 -11.1912,-9.14117 -8.67175,-13.7951l-4.5978 -0.513355 -2.89162 8.26952c-5.52359,-2.75443 -7.93446,-14.2583 -10.6098,-22.5113 -3.32192,17.7358 8.59437,30.5357 13.3773,35.7917 -5.58709,0.335055 -10.063,-3.37833 -12.4747,-10.6625 -2.3366,8.05068 -4.07622,8.73865 -7.31424,11.8188 -3.78199,-2.39216 -5.65881,-5.73704 -5.63018,-10.0338l-7.86473 7.41941c2.67449,-6.89358 4.85773,-18.6185 6.4834,-26.2216 2.44403,-0.455811 3.8024,-0.835937 3.79389,-2.0588 -0.0150236,-2.19175 -2.75386,-5.73988 -4.05014,-4.99862 -7.32756,10.4431 -15.6971,20.192 -24.929,29.3664 -1.89865,-2.50441 -0.0649134,-8.30353 -1.04995,-11.0262 -2.4548,4.14624 -6.77027,7.992 -10.5231,11.5169 -2.67421,-1.23477 -1.38047,-6.9755 -0.918426,-9.96435 -2.55799,2.9024 -8.10624,7.41799 -11.8817,9.73786l1.30224 -6.3258 -11.6566 6.50637 0.35263 -12.6017c21.7001,-6.08259 42.8499,-21.185 53.0382,-35.9161z"/>
  <path fill="#8C0000" d="M252.295 12.5833c4.34268,16.7403 25.2082,31.8115 45.4391,38.8721 -0.0637796,5.11966 0.735307,8.63547 1.82126,13.756 -6.84907,-6.69629 -6.75043,-6.58999 -12.041,-12.9172l0.864 9.69223c-4.52721,-2.5081 -6.31673,-6.40318 -10.1115,-11.8202l0.295937 7.46731c-3.56003,-2.19799 -7.24167,-6.04574 -5.39688,-10.6994l-3.36671 -0.275528 1.69257 6.84085c-5.71125,-2.51603 -10.8099,-13.5439 -12.7687,-21.797 -0.545386,18.1131 7.10759,28.4125 9.31862,33.4106 -3.77377,-1.25263 -4.90819,0.748347 -6.99109,-4.94788 -1.71099,8.0504 -4.65166,10.1673 -7.02227,13.2474 -2.76945,-2.39188 -4.61991,-8.83219 -4.59893,-13.1292l-3.8537 7.41912c4.1811,-9.11594 5.93859,-25.7618 4.27125,-30.507l-6.53556 11.1175c-1.39039,-2.50469 -1.00006,-3.06482 -1.7212,-5.78778 -1.79745,4.14624 -8.767,12.7542 -11.5149,16.2794 -1.95789,-1.23477 0.417827,-6.02334 0.756,-9.01219 -1.87285,2.9024 -10.4593,10.2753 -13.2239,12.5955l1.19169 -9.42152 -8.53512 8.17314 -0.456095 -11.4112c20.9625,-8.02489 27.8623,-18.1004 42.4871,-37.1449z"/>
  <path fill="#8C0000" d="M87.8585 41.9292l9.17802 0.469134c5.93093,16.7403 24.77,28.4264 52.7253,41.9162 -0.0873071,5.11966 -1.1109,11.5115 0.372189,16.632 -5.17493,-3.70488 -6.14353,-9.20835 -11.0778,-9.36426l-0.0399685 8.03764c-6.42813,-2.01742 -11.6399,-6.55711 -16.4132,-12.7911l-3.20627 0.481323 0.27241 8.64029c-10.2181,-4.61877 -15.9313,-13.4045 -21.3951,-30.2607 -3.32192,17.7358 9.32741,31.5131 14.1103,36.7691 -5.58709,0.335055 -9.08561,1.50888 -11.4973,-5.77559 -2.3366,8.05068 -1.8771,9.22734 -5.11512,12.3075 -3.78199,-2.39188 -7.61358,-8.6692 -7.58523,-12.966l-10.5523 7.66347c2.54126,-6.5503 8.65956,-19.2368 9.7886,-29.5019 -7.32444,8.53682 -15.2768,19.8717 -17.7392,21.1915 -1.89865,-2.50469 -1.53128,-8.30353 -2.51632,-11.0265 -2.45452,4.14624 -11.1685,10.9242 -14.4323,15.1821 -2.67421,-1.23477 -2.35814,-7.21985 -1.8961,-10.2087 -2.5577,2.90211 -10.7941,10.1058 -14.5695,12.4257 0.33052,-5.68885 0.742111,-11.2964 1.72658,-16.3304 19.7337,-14.08 45.0584,-29.9242 49.8623,-43.4909z"/>
  <path fill="#8C0000" d="M90.9859 12.9645c4.83137,16.2516 29.7136,29.7201 33.5736,33.1155 1.57124,5.11966 3.91493,8.63519 4.0201,13.756 -4.89062,-3.01663 -1.63758,-0.947623 -9.55985,-6.98202l0.0515906 5.75717c-6.876,-4.24517 -5.34529,-9.5383 -10.9624,-9.99752l1.20359 4.3971c-7.54385,-1.90488 -14.353,-15.2952 -14.2347,-24.2402 -0.545103,18.1131 8.08498,29.634 10.296,34.632 -3.77348,-1.25263 -5.64095,0.992693 -7.72413,-4.70353 -1.71099,8.05068 -0.986457,11.1447 -3.35707,14.2248 -2.76945,-2.39188 -3.88687,-7.61074 -3.86589,-11.9075l-7.5189 3.26551c4.1811,-9.11623 4.71685,-21.8526 3.04923,-26.5978l-6.29093 13.8056c-1.39039,-2.50469 -1.48876,-5.01959 -2.20989,-7.74256 -1.79717,4.14624 -4.12441,10.7992 -6.87232,14.3243 -1.95789,-1.23477 -1.78129,-5.2903 -1.44312,-8.27915 -1.87285,2.9024 -6.79408,10.5197 -9.55871,12.8395 0.0470551,-7.1932 0.704693,-13.775 2.70737,-19.0123 2.39216,-4.11534 16.5149,-8.1893 28.6965,-30.655z"/>
  <path fill="#8C0000" d="M404.99 158.893l18.6843 5.13751c7.33295,24.6541 29.2207,31.318 59.4255,43.0407 -0.0972284,5.23276 2.74365,12.5059 4.40164,17.7395l-17.9187 -8.29956 3.50703 8.75849c-8.94473,1.16986 -9.76621,-8.90958 -19.836,-11.0463l4.97055 14.7249c-5.10548,-2.4806 -15.1844,-12.676 -18.7268,-16.9149l1.39918 13.3223c-7.29411,-2.49137 -10.5256,-10.3158 -14.0417,-16.0305 1.13613,7.17733 5.74044,14.4323 6.21893,20.2382l-13.5726 -15.8865 -13.6848 -0.411591 -19.5613 16.8727 11.4143 -18.1398 -17.5697 16.4738 1.31896 -12.0342 -14.2194 10.4134 1.37962 -9.53405 -12.4401 11.6209 -1.20614 -12.1541 -11.8398 7.3749c-1.09587,-5.51197 -0.236693,-10.0466 -0.355181,-15.0696 30.7905,-11.4307 56.4455,-27.8445 62.2523,-50.1962z"/>
  <path fill="#8C0000" d="M404.092 121.733l21.3508 1.71666c6.70933,17.1099 18.974,27.5406 51.1376,40.8416 -0.0989292,5.23276 3.98098,16.3281 5.65909,21.5617l-20.518 -13.2749 3.77717 11.2394c-6.45563,-4.26699 -11.0602,-8.20999 -16.9231,-13.7466l1.27899 12.2689c-7.06139,-3.97673 -10.6166,-10.868 -15.4828,-15.4242l-0.189354 8.71739c-6.14495,-3.40753 -5.69849,-22.6687 -10.6583,-27.3453 0.622205,6.66482 4.36706,32.8241 9.33251,38.7338 -4.95156,-2.03868 -8.1927,-7.00952 -12.4112,-10.0256 -1.56586,8.71512 -0.736158,12.4393 -4.66866,16.0741l-8.07931 -18.6174 -10.5406 11.721c4.68907,-10.6384 10.8842,-22.5131 9.05755,-30.979 -6.62911,8.66722 -17.1726,19.2841 -25.7556,25.9971l-1.23591 -8.72278 -10.9488 14.0559 -3.53197 -11.7836 -9.49125 13.1136 -1.3972 -10.292 -8.68791 11.02c0.0277795,-5.38838 6.40829,-19.5732 9.61286,-29.3596 30.7134,-12.7131 43.1935,-16.4616 49.3135,-37.4902z"/>
  <path fill="#8C0000" d="M406.039 77.8865l10.8278 -0.531496c4.22986,20.1957 26.1938,30.3534 54.1327,44.7778 -0.0909922,5.57887 3.52658,16.1799 5.07345,21.7596l-16.1907 -7.93928 0.12841 7.7675c-5.95106,-4.54904 -8.24089,-4.45777 -13.6454,-10.3604 -0.646866,2.90523 -0.479055,6.54378 1.48139,9.4493 -6.12624,-0.869386 -9.10715,-10.2169 -10.1497,-11.7043 -1.25632,2.5971 -0.904252,0.249165 -3.01862,4.94221 -5.76,-3.00132 -9.76423,-22.3027 -12.5538,-31.2956 -3.67994,8.57793 13.8657,41.0817 18.5054,46.3587 -6.2178,-3.34375 -11.6615,-6.4834 -16.5747,-11.13 -1.44369,9.29141 -4.75966,15.0948 -8.3846,18.9697 -5.00315,-6.21411 -6.86948,-12.8764 -7.30999,-19.7425l-11.8423 6.2983c4.23128,-11.3961 9.11708,-18.3937 10.1744,-29.7887 -4.04929,7.26548 -12.2803,14.002 -17.5992,19.3635 -2.50583,-2.24192 -1.29827,-7.39078 -1.2634,-11.537l-12.5569 14.2982c-1.98,-2.7292 -0.832819,-7.88911 -1.85981,-10.8561 -2.55997,4.51814 -7.05629,8.67856 -10.9698,12.5195 -1.54233,-1.34532 0.00566929,-3.41915 -0.260504,-6.67616 -7.23997,6.40063 -4.06914,2.61978 -10.8998,8.36674 -0.203528,-6.48652 0.896599,-13.2993 3.29981,-20.4372 28.5891,-11.558 42.0727,-22.1499 51.4559,-42.8723z"/>
  <path fill="#8C0000" d="M243.436 164.269l20.2833 -0.23811c7.19745,17.1099 31.8881,31.7795 66.3917,45.0805 -0.105732,5.23276 1.09843,10.4661 2.89843,15.6997l-14.6775 -8.29956 0.623906 11.935c-6.92533,-4.26699 -13.6528,-8.93056 -19.9423,-14.4672l-0.704977 8.61619c-4.48129,-2.96929 -8.52605,-6.81166 -12.3715,-11.0506l-1.13386 10.1458c-6.59197,-3.40753 -12.3103,-7.6887 -17.6309,-12.3653 2.17106,6.74589 6.72322,14.2064 6.75128,20.2382l-12.6295 -14.4822 -15.66 -3.55578 -18.0269 14.9474 7.88174 -14.4746 -14.2988 11.3426 -2.68923 -5.19506 1.99928 -5.37307 -13.8453 13.1012 -3.54218 -11.0001 -14.3005 10.6435 -2.37062 -10.9324 -12.0575 7.13055 1.47147 -12.6261c31.7682,-13.2633 59.3975,-24.5461 67.5805,-44.8206z"/>
  <path fill="#BF9F4F" d="M239.836 160.669l20.2833 -0.23811c7.19745,17.1099 31.8881,31.7795 66.3917,45.0805 -0.105732,5.23276 1.09843,10.4661 2.89843,15.6997l-14.6775 -8.29956 0.623906 11.935c-6.92533,-4.26699 -13.6528,-8.93056 -19.9423,-14.4672l-0.704977 8.61619c-4.48129,-2.96929 -8.52605,-6.81166 -12.3715,-11.0506l-1.13386 10.1458c-6.59197,-3.40753 -12.3103,-7.6887 -17.6309,-12.3653 2.17106,6.74589 6.72322,14.2064 6.75128,20.2382l-10.3096 -12.1623c-1.67953,8.71512 -5.1052,13.9377 -9.324,17.5725l-7.49679 -13.6729 0.367654 -6.11972 -4.71657 4.464 -14.8371 6.82781 7.88174 -14.4746 -14.2988 11.3426 -2.68923 -5.19506 1.99928 -5.37307 -13.8453 13.1012 -3.54218 -11.0001 -14.3005 10.6435 -2.37062 -10.9324 -12.0575 7.13055 1.47147 -12.6261c31.7682,-13.2633 59.3975,-24.5461 67.5805,-44.8206z"/>
  <path fill="white" d="M250.69 231.374l-7.49679 -13.6729 0.132378 -2.20819 2.62687 -0.223087 5.71465 11.1912 -0.977103 4.91301zm-30.6043 -13.6128l-2.49562 1.98 -2.68923 -5.19506 2.24022 -1.41931 2.94463 4.63436zm11.8032 -9.36256l-7.88174 14.4746 3.5161 -1.6183c5.70643,-8.86054 10.103,-19.031 13.9051,-29.7961 -3.17991,5.64662 -4.93115,11.2932 -9.53944,16.9399zm-31.5148 5.55109l2.68073 8.32451 2.40208 -2.27339 -3.55493 -6.15969 -1.52787 0.108567zm-12.1388 5.71748l-3.02315 2.25043 -1.78526 -8.23267 2.28359 -0.0819213 2.52482 6.06416zm57.7151 -59.0698l-6.11433 0.0717166c-8.18306,20.2745 -35.8124,31.5573 -67.5805,44.8206l-1.47147 12.6261 3.62948 -2.14639 0.343843 -6.89046c34.1839,-12.4084 61.7865,-27.1794 71.193,-48.4815z"/>
  <path fill="#644D36" d="M263.572 205.725c2.17106,6.74589 6.72322,14.2064 6.75128,20.2382l-3.29783 -3.89055c-4.25424,-14.0261 -9.72851,-26.9674 -7.97726,-46.3298 3.01606,0.912189 5.15877,3.13455 6.9052,5.95276l-4.5241 -1.66677c-1.7212,4.91188 0.866268,16.2873 2.14271,25.6961z"/>
  <path fill="#BF9F4F" d="M240.316 120.088l18.9074 -0.23811c6.70933,17.1099 29.7252,31.7795 61.8889,45.0805 -0.0986457,5.23276 0.0714331,13.7996 1.74926,19.0332l-13.9201 -14.2523 -0.132661 10.5063c-6.45563,-4.26699 -11.0602,-8.45433 -16.9231,-13.991l0.0572599 9.09241c-4.17742,-2.96929 -4.85235,-2.04945 -8.43704,-6.28838l-0.686268 -3.54784 -4.40476 -2.41143 -2.63282 8.96174c-6.14495,-3.40753 -8.14196,-4.83137 -13.1017,-9.50797 2.02394,6.74589 11.5055,17.0637 11.5319,23.0956l-14.6106 -9.78123c-1.56586,8.71512 0.241228,5.84192 -3.69099,9.47679l-12.2332 -11.0427 -8.83078 6.5897 7.34741 -28.0468 -13.0496 17.9337 -2.21329 -9.21147 -9.97144 13.8115 -2.50696 -5.19506 0.197008 -5.61118 -12.6683 12.625 -1.39691 -10.0477 -13.3305 14.9295 -2.20989 -10.9324 -8.38233 7.60678 0.657355 -13.8166c29.6136,-13.2633 55.3689,-24.5461 62.9969,-44.8206z"/>
  <path fill="white" d="M250.434 186.269l-7.94126 -7.24394 4.00082 -2.66939 3.94044 9.91333zm-31.6245 -13.3747l-1.84989 2.45622 -2.50696 -5.19506 2.08828 -1.41931 2.26857 4.15814zm-17.422 -3.09714l0.593859 7.37207 2.23937 -2.27339 -1.4091 -5.20725 -1.42413 0.108567zm-11.3156 10.0035l-2.81792 2.25043 -1.66422 -8.23267 2.12854 -0.0819213 2.35361 6.06416zm55.9437 -59.7841l-5.69962 0.0717166c-7.62804,20.2745 -33.3834,31.5573 -62.9969,44.8206l-0.657355 13.8166 3.38343 -2.14639 -0.394016 -8.08101c31.8654,-12.4084 57.5958,-27.1794 66.3645,-48.4815z"/>
  <path fill="#644D36" d="M262.919 163.477c2.02365,6.74589 11.2674,16.1113 11.2938,22.1431l-3.07417 -3.89055c-4.74888,-3.88545 -8.69783,-22.3537 -8.21963,-18.2526z"/>
  <polygon fill="#644D36" points="232.856,184.791 243.095,176.219 244.285,177.886 "/>
  <polygon fill="white" points="232.142,181.934 233.094,183.839 242.619,176.457 "/>
  <polygon fill="white" points="228.332,165.266 230.237,164.79 231.427,168.362 229.046,170.505 "/>
  <path fill="#BF9F4F" d="M241.531 75.7525l16.477 -0.730205c6.18463,18.2412 27.1633,34.8333 56.8123,49.0136 -0.0909922,5.57887 -0.648567,10.188 0.8983,15.7677l-15.2133 -12.3375 -0.360567 11.6773c-5.95077,-4.54933 -10.1954,-5.67978 -15.5999,-11.5824l1.48167 9.69336c-4.01528,-2.61525 -11.3343,-10.1863 -11.0293,-14.7725l-4.29874 -1.85669 -0.283748 6.93496c-5.76,-3.00104 -8.89427,-7.56964 -11.6841,-16.5626 -3.67966,8.57821 2.9778,31.7245 7.61726,37.0015l-6.80089 -11.6187c-1.4434,9.29141 -5.49241,12.8951 -9.11764,16.7703l-4.1332 -15.3442 -6.71131 6.78728c4.23128,-11.3961 6.42955,-22.792 7.48687,-34.187 -4.04958,7.26548 -8.61534,13.758 -13.934,19.1194 -2.50611,-2.24221 -3.74202,-5.43629 -3.70715,-9.58252l-11.3352 12.3438c-1.98,-2.7292 -2.05455,-5.93462 -3.08154,-8.90164 -2.55997,4.51814 -6.81222,8.18986 -10.7255,12.0308 -1.54233,-1.34532 -2.92649,-2.93046 -3.19266,-6.18747 -2.6674,3.16233 -5.97005,6.00718 -9.90738,8.53512l-0.132095 -6.89301 -8.67941 5.01421 0.367654 -11.3964c28.5888,-11.558 49.4034,-28.0145 58.7866,-48.7367z"/>
  <path fill="#644D36" d="M267.62 146.217c-4.9286,-7.78507 -11.0761,-10.9621 -10.0006,-41.4312 0.793701,6.9052 3.25417,11.1912 5.95276,15.7153l-3.80977 -3.33354c1.13131,9.98108 3.5521,19.7039 7.85764,29.0495z"/>
  <path fill="white" d="M236.904 144.551c2.11153,-10.3079 4.55159,-20.725 8.57197,-31.6687 1.76599,10.9131 -2.0829,22.0249 -8.57197,31.6687z"/>
  <polygon fill="white" points="237.142,147.408 245.238,140.741 248.809,153.837 244.762,144.551 "/>
  <line fill="none" stroke="#644D36" stroke-width="1.41732" x1="238.333" y1="149.075" x2="245.476" y2= "143.36" />
  <path fill="white" d="M235.097 127.463c-0.641764,0.704693 -1.29487,1.39295 -1.95959,2.06306 -1.87965,-1.68151 -3.04498,-3.89849 -3.49512,-6.6515l1.54687 -0.944788 3.90784 5.53323zm-15.0046 2.64898l-1.99729 2.17531c-1.48479,-2.0469 -1.89836,-4.36167 -2.44545,-6.643l4.44274 4.46769zm25.149 -54.5242l-3.71055 0.16441c-9.38325,20.7221 -30.1978,37.1787 -58.7866,48.7367l-0.367654 11.3964 3.49058 -2.01657 -0.157039 -6.70054c23.0752,-9.98448 44.7287,-23.1406 59.5313,-51.5804z"/>
  <path fill="#BF9F4F" d="M238.863 46.8811l16.753 -6.86098c5.93065,16.7403 28.1906,27.2047 56.1459,40.6945 -0.0873071,5.11966 -0.622205,10.7785 0.861166,15.899 -3.83103,-2.74252 -6.70989,-6.12 -8.63547,-10.1319l-2.93131 1.50066 0.204378 7.54923c-6.18265,-2.5081 -10.2532,-6.64129 -15.4358,-12.0583l-0.245764 9.6103c-4.86227,-2.19799 -11.1912,-9.14117 -8.67175,-13.7951l-4.5978 -0.513355 -2.89162 8.26952c-5.52359,-2.75443 -9.0944,-10.1988 -10.6098,-19.0315 0.15789,18.6058 8.59437,27.0559 13.3773,32.3119 -5.58709,0.335055 -10.063,-3.37833 -12.4747,-10.6625 -2.3366,8.05068 -4.07622,8.73865 -7.31424,11.8188 -3.78199,-2.39216 -5.65881,-5.73704 -5.63018,-10.0338l-7.86473 7.41941c2.67449,-6.89358 4.85773,-18.6185 6.4834,-26.2216 2.44403,-0.455811 3.8024,-0.835937 3.79389,-2.0588 -0.0150236,-2.19175 -2.75386,-5.73988 -4.05014,-4.99862 -7.32756,10.4431 -15.6971,20.192 -24.929,29.3664 -1.89865,-2.50441 -0.0649134,-8.30353 -1.04995,-11.0262 -2.4548,4.14624 -6.77027,7.992 -10.5231,11.5169 -2.67421,-1.23477 -1.38047,-6.9755 -0.918426,-9.96435 -2.55799,2.9024 -8.10624,7.41799 -11.8817,9.73786l1.30224 -6.3258 -11.6566 6.50637 0.35263 -12.6017c21.7001,-6.08259 42.8499,-21.185 53.0382,-35.9161z"/>
  <path fill="white" d="M243.571 67.6409c-2.30173,21.8268 -8.88945,31.2718 -9.04819,34.0498 1.1812,0.564945 5.70926,-2.21698 10.715,-5.47654 1.11118,0.634961 2.69858,7.46079 1.19055,11.1912l5.23843 -1.90488 0 -4.28599c-3.41292,-1.82551 -5.23843,-4.92095 -5.47654,-9.2863 -1.82551,3.1748 -5.07969,4.92095 -7.61953,6.66709l6.9052 -26.4302c6.74646,-1.03181 0.873071,-10.8737 -1.90488,-4.5241z"/>
  <path fill="#8C0000" d="M84.5898 158.893l18.6843 5.13751c7.33295,24.6541 30.2193,35.3126 60.4242,47.0353 -0.0972284,5.23276 1.74501,8.51131 3.40299,13.7449l-17.9187 -8.29956 3.50703 8.75849c-8.94473,1.16986 -9.76621,-8.90958 -19.836,-11.0463l4.97055 14.7249c-5.10548,-2.4806 -15.1844,-12.676 -18.7268,-16.9149l1.39918 13.3223c-7.29411,-2.49137 -10.5256,-10.3158 -14.0417,-16.0305 1.13613,7.17733 5.74044,14.4323 6.21893,20.2382l-13.2826 -15.3065 -11.6549 -4.47137 -22.4612 20.3525 11.9942 -18.1398 -17.5697 16.4738 1.31896 -12.0342 -14.2194 10.4134 1.37962 -9.53405 -12.4401 11.6209 -1.20614 -12.1541 -11.8398 7.3749c-1.09587,-5.51197 -0.236693,-10.0466 -0.355181,-15.0696 30.7905,-11.4307 56.4455,-27.8445 62.2523,-50.1962z"/>
  <path fill="#8C0000" d="M83.6918 121.733l21.3508 1.71666c6.70933,17.1099 18.974,31.5352 51.1376,44.8362 -0.0989292,5.23276 3.98098,12.3335 5.65909,17.5672l-20.518 -13.2749 3.77717 11.2394c-6.45563,-4.26699 -11.0602,-8.20999 -16.9231,-13.7466l1.27899 12.2689c-7.06139,-3.97673 -10.6166,-10.868 -15.4828,-15.4242l-0.189354 8.71739c-6.14495,-3.40753 -5.69849,-22.6687 -10.6583,-27.3453 0.622205,6.66482 4.36706,32.8241 9.33251,38.7338 -4.95156,-2.03868 -8.1927,-7.00952 -12.4112,-10.0256 -1.56586,8.71512 -0.736158,12.4393 -4.66866,16.0741l-8.07931 -18.6174 -10.5406 11.721c4.68907,-10.6384 10.8842,-22.5131 9.05755,-30.979 -6.62911,8.66722 -17.1726,19.2841 -25.7556,25.9971l-1.23591 -8.72278 -10.9488 14.0559 -3.53197 -11.7836 -9.49125 13.1136 -1.3972 -10.292 -8.68791 11.02c0.0277795,-5.38838 6.40829,-19.5732 9.61286,-29.3596 30.7134,-12.7131 43.1935,-16.4616 49.3135,-37.4902z"/>
  <path fill="#644D36" d="M260.001 90.2614c-1.26992,4.5241 -3.49229,8.73071 -6.66709,12.6198 5.08054,-2.41994 6.66737,-7.02369 6.66709,-12.6198z"/>
  <path fill="#644D36" d="M271.906 103.119c-5.47654,-2.69858 -8.57197,-6.1115 -11.4293,-11.6674 0.951591,8.17597 5.3966,11.1124 11.4293,11.6674z"/>
  <path fill="#644D36" d="M274.763 101.691c-10.1208,-7.93588 -16.8676,-19.0474 -16.1915,-37.1452 0.793701,4.28599 2.22236,8.88945 4.28599,13.8104l-3.33354 -5.00032c3.56995,12.8424 9.12643,21.2148 15.2391,28.3351z"/>
  <path fill="white" d="M221.921 93.2273c-0.570048,0.577985 -1.14378,1.1537 -1.72091,1.72687 -1.1863,-1.56529 -0.915308,-4.41751 -0.785481,-7.00129l2.0126 -0.072567 0.493796 5.34699zm-11.865 0.880441c-0.48189,0.450709 -0.959812,0.896882 -1.42895,1.3371 -1.83827,-0.848693 -1.8017,-3.82762 -1.44907,-6.5778l2.10558 1.15625 0.772441 4.08444zm-11.1396 -0.981638c-1.09106,0.794835 -2.14554,1.51228 -3.08948,2.09225l0.730489 -3.55011 2.35899 1.45786zm44.7517 -48.2125l-4.80473 1.96753c-10.1883,14.7311 -31.3382,29.8335 -53.0382,35.9161l-0.35263 12.6017 2.66343 -1.48677 0.431717 -7.22268c22.1865,-9.43059 41.1684,-21.5501 55.1004,-41.7759z"/>
  <path fill="#BF9F4F" d="M251.595 8.11361c4.3424,16.7403 22.3081,32.6812 42.539,39.7418 -0.0637796,5.11966 0.735307,8.63547 1.82126,13.756 -6.84907,-6.69629 -6.75043,-6.58999 -12.041,-12.9172l0.864 9.69223c-4.52721,-2.5081 -6.31673,-6.40318 -10.1115,-11.8202l0.295937 7.46731c-3.56003,-2.19799 -7.24167,-6.04574 -5.39688,-10.6994l-3.36671 -0.275528 1.69257 6.84085c-5.71125,-2.51603 -10.8099,-13.5439 -12.7687,-21.797 -0.545386,18.1131 7.10759,28.4125 9.31862,33.4106 -3.77377,-1.25263 -4.90819,0.748347 -6.99109,-4.94788 -1.71099,8.0504 -4.65166,10.1673 -7.02227,13.2474 -2.76945,-2.39188 -4.61991,-8.83219 -4.59893,-13.1292l-3.8537 7.41912c4.1811,-9.11594 5.93859,-25.7618 4.27125,-30.507l-6.53556 11.1175c-1.39039,-2.50469 -1.00006,-3.06482 -1.7212,-5.78778 -1.79745,4.14624 -8.767,12.7542 -11.5149,16.2794 -1.95789,-1.23477 0.417827,-6.02334 0.756,-9.01219 -1.87285,2.9024 -10.4593,10.2753 -13.2239,12.5955l1.19169 -9.42152 -8.53512 8.17314 -0.456095 -11.4112c20.9625,-8.02489 30.7622,-18.97 45.3872,-38.0146z"/>
  <path fill="#644D36" d="M251.905 69.5458c4.44473,-2.22066 5.0794,-4.34041 6.42898,-7.85764 2.14299,1.90488 5.23843,3.1748 9.2863,3.80977 -5.06013,-9.90142 -8.83049,-19.5446 -10.715,-28.8114l2.61921 1.66677c-2.30485,-3.49058 -3.49427,-7.53903 -4.5241,-11.6674 -0.239244,12.0648 3.66548,24.9148 9.76252,35.2403 -1.82438,0.401953 -4.68227,-0.155622 -7.14331,-3.80977 -0.580819,2.73487 -2.19742,5.67893 -5.71465,11.4293z"/>
  <path fill="white" d="M246.428 35.0198c-2.32129,12.8183 -5.53522,23.453 -9.76252,29.2876l2.3811 -0.23811c-0.076252,1.9063 -1.26794,3.25503 -2.61921,4.5241 6.21326,-0.42378 7.60819,-4.97651 9.2863,-9.2863l-4.5241 5.00032c3.81288,-10.2793 6.51203,-20.2805 5.23843,-29.2876z"/>
  <path fill="#8C0000" d="M85.6392 77.8865l12.5677 -0.241512c4.22986,20.196 25.4526,36.055 53.3914,50.4797 -0.0909922,5.57887 2.52794,10.188 4.07481,15.7677l-16.1907 -7.93928 0.12841 7.7675c-5.95106,-4.54904 -8.24089,-4.45777 -13.6454,-10.3604 -0.646866,2.90523 -0.479055,6.54378 1.48139,9.4493 -6.12624,-0.869386 -9.10715,-10.2169 -10.1497,-11.7043 -1.25632,2.5971 -0.904252,0.249165 -3.01862,4.94221 -5.76,-3.00132 -9.76423,-22.3027 -12.5538,-31.2956 -3.67994,8.57793 13.8657,41.0817 18.5054,46.3587 -6.2178,-3.34375 -11.6615,-6.4834 -16.5747,-11.13 -1.44369,9.29141 -4.75966,15.0948 -8.3846,18.9697 -5.00315,-6.21411 -6.86948,-12.8764 -7.30999,-19.7425l-11.8423 6.2983c4.23128,-11.3961 9.11708,-18.3937 10.1744,-29.7887 -4.04929,7.26548 -12.2803,14.002 -17.5992,19.3635 -2.50583,-2.24192 -1.29827,-7.39078 -1.2634,-11.537l-12.5569 14.2982c-1.98,-2.7292 -0.832819,-7.88911 -1.85981,-10.8561 -2.55997,4.51814 -7.05629,8.67856 -10.9698,12.5195 -1.54233,-1.34532 0.00566929,-3.41915 -0.260504,-6.67616 -7.23997,6.40063 -4.06914,2.61978 -10.8998,8.36674 -0.203528,-6.48652 0.896599,-13.2993 3.29981,-20.4372 28.5891,-11.558 42.0727,-22.1499 51.4559,-42.8723z"/>
  <path fill="white" d="M228.404 52.7482c-0.750048,0.95556 -1.41364,1.79518 -1.92898,2.45622 -1.22372,-0.771591 -0.754583,-2.93188 -0.148252,-5.17295l2.07723 2.71673zm-12.3103 4.26416c-0.845292,0.72737 -1.56841,1.34022 -2.08658,1.77534l0.800221 -6.32807 1.15257 0.0175748 0.133795 4.53515zm36.2001 -46.5506c-0.262205,-0.780378 -0.495496,-1.56359 -0.699024,-2.34822 -14.6251,19.0446 -24.4247,29.9897 -45.3872,38.0146l0.456095 11.4112 1.41336 -1.35354 0.0609449 -6.46073c19.2784,-8.91723 33.7615,-21.8486 44.1559,-39.2633z"/>
  <path fill="#BF9F4F" d="M80.9898 155.293l18.6843 5.13751c7.33295,24.6541 30.2193,35.3126 60.4242,47.0353 -0.0972284,5.23276 1.74501,8.51131 3.40299,13.7449l-17.9187 -8.29956 3.50703 8.75849c-8.94473,1.16986 -9.76621,-8.90958 -19.836,-11.0463l4.97055 14.7249c-5.10548,-2.4806 -15.1844,-12.676 -18.7268,-16.9149l1.39918 13.3223c-7.29411,-2.49137 -10.5256,-10.3158 -14.0417,-16.0305 1.13613,7.17733 5.74044,14.4323 6.21893,20.2382l-10.9627 -12.4067c-1.54715,8.71512 -3.23688,14.182 -7.1229,17.8169l-7.39446 -14.6503 0.82715 -5.14233 -4.34466 4.464 -17.8211 10.493 11.4143 -18.1398 -17.5697 16.4738 1.31896 -12.0342 -14.2194 10.4134 1.37962 -9.53405 -12.4401 11.6209 -1.20614 -12.1541 -11.8398 7.3749c-1.09587,-5.51197 -0.236693,-10.0466 -0.355181,-15.0696 30.7905,-11.4307 56.4455,-27.8445 62.2523,-50.1962z"/>
  <path fill="#BF9F4F" d="M80.0918 118.133l21.3508 1.71666c6.70933,17.1099 18.974,31.5352 51.1376,44.8362 -0.0989292,5.23276 3.98098,12.3335 5.65909,17.5672l-20.518 -13.2749 3.77717 11.2394c-6.45563,-4.26699 -11.0602,-8.20999 -16.9231,-13.7466l1.27899 12.2689c-7.06139,-3.97673 -10.6166,-10.868 -15.4828,-15.4242l-0.189354 8.71739c-7.49878,-1.37764 -7.43925,-20.0585 -10.6583,-27.3453 1.60129,6.99109 5.7087,33.2711 9.33251,38.7338 -4.95156,-2.03868 -8.1927,-7.00952 -12.4112,-10.0256 -1.56586,8.71512 -0.736158,12.4393 -4.66866,16.0741l-8.07931 -18.6174 -10.5406 11.721c4.68907,-10.6384 10.8842,-22.5131 9.05755,-30.979 -6.62911,8.66722 -17.1726,19.2841 -25.7556,25.9971l-1.23591 -8.72278 -10.9488 14.0559 -3.53197 -11.7836 -9.49125 13.1136 -1.3972 -10.292 -8.68791 11.02c0.0277795,-5.38838 6.40829,-19.5732 9.61286,-29.3596 30.7134,-12.7131 43.1935,-16.4616 49.3135,-37.4902z"/>
  <path fill="#BF9F4F" d="M82.0392 74.2865l12.5677 -0.241512c4.22986,20.196 25.4526,36.055 53.3914,50.4797 -0.0909922,5.57887 2.52794,10.188 4.07481,15.7677l-16.1907 -7.93928 0.12841 7.7675c-5.95106,-4.54904 -8.24089,-4.45777 -13.6454,-10.3604 -0.646866,2.90523 -0.479055,6.54378 1.48139,9.4493 -6.12624,-0.869386 -9.10715,-10.2169 -10.1497,-11.7043 -1.25632,2.5971 -0.904252,0.249165 -3.01862,4.94221 -5.76,-3.00132 -9.47424,-21.1428 -12.2641,-30.136 -2.39386,9.22139 13.9697,40.1188 18.2157,45.199 -6.2178,-3.34375 -11.6615,-6.4834 -16.5747,-11.13 -1.44369,9.29141 -4.75966,15.0948 -8.3846,18.9697 -5.00315,-6.21411 -6.86948,-12.8764 -7.30999,-19.7425l-11.8423 6.2983c4.23128,-11.3961 9.11708,-18.3937 10.1744,-29.7887 -4.04929,7.26548 -12.2803,14.002 -17.5992,19.3635 -2.50583,-2.24192 -1.29827,-7.39078 -1.2634,-11.537l-12.5569 14.2982c-1.98,-2.7292 -0.832819,-7.88911 -1.85981,-10.8561 -2.55997,4.51814 -7.05629,8.67856 -10.9698,12.5195 -1.54233,-1.34532 0.00566929,-3.41915 -0.260504,-6.67616 -7.23997,6.40063 -4.06914,2.61978 -10.8998,8.36674 -0.203528,-6.48652 0.896599,-13.2993 3.29981,-20.4372 28.5891,-11.558 42.0727,-22.1499 51.4559,-42.8723z"/>
  <path fill="#BF9F4F" d="M84.2585 38.3292l9.17802 0.469134c5.93093,16.7403 24.77,28.4264 52.7253,41.9162 -0.0873071,5.11966 -1.1109,11.5115 0.372189,16.632 -5.17493,-3.70488 -6.14353,-9.20835 -11.0778,-9.36426l-0.0399685 8.03764c-6.42813,-2.01742 -11.6399,-6.55711 -16.4132,-12.7911l-3.20627 0.481323 0.27241 8.64029c-10.9026,-4.27607 -18.8975,-11.9222 -21.3951,-30.2607 -3.32192,17.7358 9.32741,31.5131 14.1103,36.7691 -5.58709,0.335055 -9.08561,1.50888 -11.4973,-5.77559 -2.3366,8.05068 -1.8771,9.22734 -5.11512,12.3075 -3.78199,-2.39188 -7.61358,-8.6692 -7.58523,-12.966l-10.5523 7.66347c2.54126,-6.5503 8.65956,-19.2368 9.7886,-29.5019 -7.32444,8.53682 -15.2768,19.8717 -17.7392,21.1915 -1.89865,-2.50469 -1.53128,-8.30353 -2.51632,-11.0265 -2.45452,4.14624 -11.1685,10.9242 -14.4323,15.1821 -2.67421,-1.23477 -2.35814,-7.21985 -1.8961,-10.2087 -2.5577,2.90211 -10.7941,10.1058 -14.5695,12.4257 0.33052,-5.68885 0.742111,-11.2964 1.72658,-16.3304 19.7337,-14.08 45.0584,-29.9242 49.8623,-43.4909z"/>
  <path fill="#BF9F4F" d="M89.4158 7.62492c4.83137,16.2516 27.6837,31.4598 31.5437,34.8551 1.57124,5.11966 3.91493,8.63519 4.0201,13.756 -4.89062,-3.01663 -1.63758,-0.947623 -9.55985,-6.98202l0.0515906 5.75717c-6.876,-4.24517 -5.34529,-9.5383 -10.9624,-9.99752l1.20359 4.3971c-7.42564,-1.55452 -12.3109,-7.13991 -13.3645,-22.2103 -0.545386,18.1128 7.21474,27.6041 9.42577,32.6021 -3.77348,-1.25263 -5.64095,0.992693 -7.72413,-4.70353 -1.71099,8.05068 -0.986457,11.1447 -3.35707,14.2248 -2.76945,-2.39188 -3.88687,-7.61074 -3.86589,-11.9075l-7.5189 3.26551c4.1811,-9.11623 4.71685,-21.8526 3.04923,-26.5978l-6.29093 13.8056c-1.39039,-2.50469 -1.48876,-5.01959 -2.20989,-7.74256 -1.79717,4.14624 -4.12441,10.7992 -6.87232,14.3243 -1.95789,-1.23477 -1.78129,-5.2903 -1.44312,-8.27915 -1.87285,2.9024 -6.79408,10.5197 -9.55871,12.8395 0.0470551,-7.1932 0.704693,-13.775 2.70737,-19.0123 2.39216,-4.11534 18.5448,-9.9292 30.7264,-32.3946z"/>
  <path fill="white" d="M83.5994 155.26l-2.60958 0.0331654c-5.8578,21.9543 -31.4104,38.5112 -62.2523,50.1962 0.118488,5.02299 -0.740693,9.55758 0.355181,15.0696l3.28451 -2.04605 2.82388 -12.1465c29.7085,-8.30977 54.9987,-28.5423 58.3983,-51.1064zm7.38879 76.1137l-7.39446 -14.6503 2.69405 -0.827433 4.70041 15.4777zm-28.7331 -4.83562l11.4143 -18.1398c3.22895,-4.99408 5.80621,-9.98816 7.7315,-14.9822 -2.40208,11.4384 -10.2127,22.3362 -19.1458,33.122zm-2.83323 -4.7812l-3.32221 3.11528 1.31896 -12.0342 2.00325 8.91893zm-12.4895 -1.23959l-3.73323 2.73402 1.37962 -9.53405 2.12485 0.223937 0.228756 6.5761zm-12.2341 2.42986l-2.55969 2.39102 -1.20614 -12.1541 2.82076 2.22321 0.945071 7.53988z"/>
  <path fill="#644D36" d="M91.7708 230.801c3.50221,-3.17622 6.57128,-7.65553 7.46731,-13.4391 3.37975,4.52098 7.20766,7.69748 11.2399,10.2626 -4.50142,-14.4054 -8.77862,-28.9233 -11.973,-43.9824l0.244347 -4.15389c3.50221,2.5251 8.47049,4.56123 12.706,6.8417 -5.92611,-13.5814 -9.14315,-27.5497 -10.5069,-41.7833l0.488693 -3.17651c3.60114,3.25389 11.0948,5.53436 17.593,8.06344 -10.6501,-15.8411 -17.8583,-32.2124 -20.0364,-49.358 4.07225,1.30337 8.14479,0.651685 12.9504,-0.488693 -10.59,-8.46908 -17.5133,-20.1974 -16.3712,-39.0955 2.99537,2.21783 7.40353,3.0223 11.7286,3.90955 -8.32876,-11.8505 -13.1749,-24.4749 -15.6382,-37.6294 0.770741,11.6073 2.96788,22.9292 10.2626,33.2311 -3.09543,0.0813544 -5.86488,-1.1401 -8.30778,-3.6652 -0.515906,15.4159 1.96469,30.1184 15.1495,42.272 -4.56095,0.733607 -8.47106,-0.162709 -11.7286,-2.68781 -0.97767,3.25843 -2.28104,6.51629 -3.90955,9.77386 2.03584,-0.570048 3.66463,-1.54743 4.15389,-3.6652 3.25758,15.7198 9.4476,30.7882 18.5703,45.2041 -5.78296,-3.09515 -10.9142,-6.51572 -15.3938,-10.2626 -0.97767,6.19059 -3.58441,12.3806 -7.81909,18.5703 2.93188,-1.71014 5.21207,-4.72337 6.8417,-9.04082 2.44318,14.6208 5.29314,27.4088 9.04082,36.1633 -4.35799,-2.4429 -8.26753,-5.7824 -11.973,-9.52952 -0.579685,8.00306 -3.08466,14.8039 -5.61997,21.5025 2.68753,-2.68753 4.96829,-5.37506 6.35301,-8.06344 2.80828,13.2367 6.63704,25.4537 10.7512,37.385 -3.3395,-3.50221 -7.16769,-6.02703 -10.0182,-10.5069 -0.244347,6.92391 -3.39477,13.0323 -6.24558,17.3486z"/>
  <path fill="white" d="M70.1609 184.375c4.52013,-4.09238 10.5472,-9.18227 12.4617,-13.4391 2.32101,6.92363 5.17153,13.8461 8.79648,20.7695 -9.28517,-8.38942 -6.59736,-10.6696 -8.79648,-16.3712 -4.80558,5.29455 -8.95947,8.30835 -12.4617,9.04082z"/>
  <path fill="none" stroke="#644D36" stroke-width="0.992126" d="M76.7583 182.665c3.17651,-2.93188 5.37562,-5.53805 6.59736,-7.81909"/>
  <line fill="none" stroke="#644D36" stroke-width="0.992126" x1="78.9574" y1="220.294" x2="83.8443" y2= "216.629" />
  <path fill="white" d="M70.1609 143.569l13.4391 -7.3304 6.35301 19.3034c-11.0772,-4.23553 -5.53862,-10.9142 -8.30778,-16.3712 -4.15418,3.42085 -7.98265,4.88693 -11.4843,4.39824z"/>
  <path fill="#8C0000" d="M409.936 13.5448c4.83137,16.2516 31.1638,29.1399 35.0238,32.5352 1.57124,5.11966 3.91493,8.63519 4.0201,13.756 -4.89062,-3.01663 -1.63758,-0.947623 -9.55985,-6.98202l0.0515906 5.75717c-6.876,-4.24517 -5.34529,-9.5383 -10.9624,-9.99752l1.20359 4.3971c-7.54385,-1.90488 -14.353,-15.2952 -14.2347,-24.2402 -0.545103,18.1131 8.08498,29.634 10.296,34.632 -3.77348,-1.25263 -5.64095,0.992693 -7.72413,-4.70353 -1.71099,8.05068 -0.986457,11.1447 -3.35707,14.2248 -2.76945,-2.39188 -3.88687,-7.61074 -3.86589,-11.9075l-7.5189 3.26551c4.1811,-9.11623 4.71685,-21.8526 3.04923,-26.5978l-6.29093 13.8056c-1.39039,-2.50469 -1.48876,-5.01959 -2.20989,-7.74256 -1.79717,4.14624 -4.12441,10.7992 -6.87232,14.3243 -1.95789,-1.23477 -1.78129,-5.2903 -1.44312,-8.27915 -1.87285,2.9024 -6.79408,10.5197 -9.55871,12.8395 0.0470551,-7.1932 0.704693,-13.775 2.70737,-19.0123 2.39216,-4.11534 15.065,-7.60904 27.2463,-30.0748z"/>
  <path fill="none" stroke="#644D36" stroke-width="1.41732" d="M71.627 145.28c4.3166,-1.4658 8.30722,-3.58328 11.973,-6.35301"/>
  <path fill="#BF9F4F" d="M404.659 38.3292l9.17802 0.469134c5.93093,16.7403 24.77,28.4264 52.7253,41.9162 -0.0873071,5.11966 -1.1109,11.5115 0.372189,16.632 -5.17493,-3.70488 -6.14353,-9.20835 -11.0778,-9.36426l-0.0399685 8.03764c-6.42813,-2.01742 -11.6399,-6.55711 -16.4132,-12.7911l-3.20627 0.481323 0.27241 8.64029c-10.2181,-4.61877 -15.9313,-13.4045 -21.3951,-30.2607 -3.32192,17.7358 9.32741,31.5131 14.1103,36.7691 -5.58709,0.335055 -9.08561,1.50888 -11.4973,-5.77559 -2.3366,8.05068 -1.8771,9.22734 -5.11512,12.3075 -3.78199,-2.39188 -7.61358,-8.6692 -7.58523,-12.966l-10.5523 7.66347c2.54126,-6.5503 8.65956,-19.2368 9.7886,-29.5019 -7.32444,8.53682 -15.2768,19.8717 -17.7392,21.1915 -1.89865,-2.50469 -1.53128,-8.30353 -2.51632,-11.0265 -2.45452,4.14624 -11.1685,10.9242 -14.4323,15.1821 -2.67421,-1.23477 -2.35814,-7.21985 -1.8961,-10.2087 -2.5577,2.90211 -10.7941,10.1058 -14.5695,12.4257 0.33052,-5.68885 0.742111,-11.2964 1.72658,-16.3304 19.7337,-14.08 45.0584,-29.9242 49.8623,-43.4909z"/>
  <path fill="white" d="M59.3374 175.257c-0.977953,0.81978 -1.94032,1.60101 -2.87887,2.33518l-1.23591 -8.72278 3.45402 -1.84252 0.660756 8.23011zm-15.0636 7.66829l-3.53197 -11.7836 3.27402 -1.42696 2.93216 9.77386 -2.67421 3.43673zm-9.53093 -3.4954l-3.49229 4.82542 -1.10353 -8.12948 2.38451 -1.52419 2.21131 4.82825zm48.3682 -61.2613l-3.01918 -0.0351496c-6.16139,21.0079 -18.5596,24.7975 -49.3135,37.4902 -3.20457,9.78634 -9.58508,23.9712 -9.61286,29.3596l8.68791 -11.02c-0.492095,-5.00003 1.94825,-9.51137 2.92252,-14.2668 29.7318,-10.4618 49.9315,-23.8972 50.3351,-41.5279z"/>
  <path fill="white" d="M84.333 95.1886l0 7.81909 5.13128 4.15389 0 -4.15389c-2.19912,-1.87342 -3.6652,-4.72422 -5.13128,-7.81909z"/>
  <polygon fill="white" points="77.4913,89.813 70.4053,99.3425 73.3374,99.3425 71.8713,102.763 75.0478,101.786 73.3136,98.8487 "/>
  <path fill="#644D36" d="M83.3556 94.4555c-1.79178,2.85109 -4.23553,5.37619 -7.3304,7.57474 1.43348,-4.54451 3.98013,-5.64123 7.3304,-7.57474z"/>
  <path fill="white" d="M85.3064 74.2238l-3.26721 0.0626457c-9.38325,20.7224 -22.8668,31.3143 -51.4559,42.8723 -2.40321,7.13792 -3.50334,13.9507 -3.29981,20.4372 2.34765,-1.97547 3.51411,-2.82529 4.32766,-3.3497l1.8978 -12.9127c25.3673,-11.6527 45.995,-25.6751 51.7975,-47.1099zm-17.5331 54.6463c-0.946489,0.901418 -1.84876,1.77307 -2.67959,2.61071 -2.03613,-1.82126 -1.62085,-5.56243 -1.3748,-9.12473l2.77682 -1.99984 1.27758 8.51386zm-14.8964 3.54586l-1.60356 1.82608c-1.48479,-2.04662 -1.21068,-5.46095 -1.41449,-8.29219l1.97603 -1.43972 1.04202 7.90583zm-12.187 1.29487c-0.758268,0.742961 -1.51257,1.47458 -2.24617,2.19458 -1.54233,-1.34532 0.00566929,-3.41915 -0.260504,-6.67616l2.50668 4.48158z"/>
  <path fill="white" d="M82.3782 46.5636l-4.15389 6.8417 0.488693 6.35301c1.99644,-4.39881 2.97383,-8.79676 3.6652,-13.1947z"/>
  <path fill="white" d="M83.3556 59.514c0.814394,4.72366 2.28047,8.79591 4.39824,12.2173 -0.162992,-5.04992 -2.5251,-9.61115 -0.977386,-14.6608l-3.42085 2.44347z"/>
  <path fill="white" d="M87.7658 38.5087l-3.50731 -0.179433c-4.80388,13.5666 -30.1286,29.4109 -49.8623,43.4909 -0.984473,5.03405 -1.39606,10.6415 -1.72658,16.3304 1.41562,-0.86967 3.45912,-2.42646 5.59474,-4.18564l-0.112819 -11.238c19.4814,-11.7958 37.9817,-24.5727 49.6143,-44.2182zm-19.3419 51.0993c-1.00006,1.11288 -1.80113,1.88107 -2.34,2.16992 -1.42384,-1.87852 -1.57323,-5.61005 -1.97462,-8.50706l1.8978 -1.52136 2.41682 7.85849zm-16.9552 3.69865c-0.918142,0.941386 -1.72176,1.82863 -2.33348,2.62687 -2.17276,-1.00318 -2.37147,-5.14262 -2.12173,-8.26271l3.35537 -0.790016 1.09984 6.42586z"/>
  <path fill="white" d="M90.8604 11.4097c-0.579685,-1.25178 -1.06724,-2.51547 -1.44454,-3.78482 -12.1816,22.4654 -28.3343,28.2793 -30.7264,32.3946 -2.00268,5.23729 -2.66032,11.8191 -2.70737,19.0123 1.03663,-0.86967 2.37657,-2.48514 3.74542,-4.31688l0.170929 -13.7713c24.0041,-11.7995 20.6413,-19.6895 30.962,-29.5339zm-13.085 32.7283l-1.70929 3.75166c-0.955843,-1.72176 -1.30082,-3.4492 -1.6577,-5.24495l3.36699 1.49329zm-9.29084 8.05748c-0.485008,0.843874 -0.985323,1.6149 -1.50066,2.27594 -1.22372,-0.771591 -1.61376,-2.64529 -1.65147,-4.67178l3.15213 2.39584z"/>
  <path fill="#BF9F4F" d="M401.39 155.293l18.6843 5.13751c7.33295,24.6541 29.2207,31.318 59.4255,43.0407 -0.0972284,5.23276 2.74365,12.5059 4.40164,17.7395l-17.9187 -8.29956 3.50703 8.75849c-8.94473,1.16986 -9.76621,-8.90958 -19.836,-11.0463l4.97055 14.7249c-5.10548,-2.4806 -15.1844,-12.676 -18.7268,-16.9149l1.39918 13.3223c-7.29411,-2.49137 -10.5256,-10.3158 -14.0417,-16.0305 1.13613,7.17733 5.74044,14.4323 6.21893,20.2382l-10.9627 -12.4067c-1.54715,8.71512 -3.23688,14.182 -7.1229,17.8169l-7.39446 -14.6503 0.82715 -5.14233 -4.34466 4.464 -17.8211 10.493 11.4143 -18.1398 -17.5697 16.4738 1.31896 -12.0342 -14.2194 10.4134 1.37962 -9.53405 -12.4401 11.6209 -1.20614 -12.1541 -11.8398 7.3749c-1.09587,-5.51197 -0.236693,-10.0466 -0.355181,-15.0696 30.7905,-11.4307 56.4455,-27.8445 62.2523,-50.1962z"/>
  <path fill="#BF9F4F" d="M400.492 118.133l21.3508 1.71666c6.70933,17.1099 18.974,27.5406 51.1376,40.8416 -0.0989292,5.23276 3.98098,16.3281 5.65909,21.5617l-20.518 -13.2749 3.77717 11.2394c-6.45563,-4.26699 -11.0602,-8.20999 -16.9231,-13.7466l1.27899 12.2689c-7.06139,-3.97673 -10.6166,-10.868 -15.4828,-15.4242l-0.189354 8.71739c-6.14495,-3.40753 -8.59834,-19.1889 -10.6583,-27.3453 0.622205,6.66482 4.36706,32.8241 9.33251,38.7338 -4.95156,-2.03868 -8.1927,-7.00952 -12.4112,-10.0256 -1.56586,8.71512 -0.736158,12.4393 -4.66866,16.0741l-8.07931 -18.6174 -10.5406 11.721c4.68907,-10.6384 10.8842,-22.5131 9.05755,-30.979 -6.62911,8.66722 -17.1726,19.2841 -25.7556,25.9971l-1.23591 -8.72278 -10.9488 14.0559 -3.53197 -11.7836 -9.49125 13.1136 -1.3972 -10.292 -8.68791 11.02c0.0277795,-5.38838 6.40829,-19.5732 9.61286,-29.3596 30.7134,-12.7131 43.1935,-16.4616 49.3135,-37.4902z"/>
  <path fill="#BF9F4F" d="M402.439 74.2865l12.5677 -0.241512c4.22986,20.196 24.4539,30.0634 52.3928,44.4878 -0.0909922,5.57887 3.52658,16.1799 5.07345,21.7596l-16.1907 -7.93928 0.12841 7.7675c-5.95106,-4.54904 -8.24089,-4.45777 -13.6454,-10.3604 -0.646866,2.90523 -0.479055,6.54378 1.48139,9.4493 -6.12624,-0.869386 -9.10715,-10.2169 -10.1497,-11.7043 -1.25632,2.5971 -0.904252,0.249165 -3.01862,4.94221 -5.76,-3.00132 -9.76423,-22.3027 -12.5538,-31.2956 -2.52624,8.57764 14.3172,41.0814 18.5054,46.3587 -6.2178,-3.34375 -11.6615,-6.4834 -16.5747,-11.13 -1.44369,9.29141 -4.75966,15.0948 -8.3846,18.9697 -5.00315,-6.21411 -6.86948,-12.8764 -7.30999,-19.7425l-11.8423 6.2983c4.23128,-11.3961 9.11708,-18.3937 10.1744,-29.7887 -4.04929,7.26548 -12.2803,14.002 -17.5992,19.3635 -2.50583,-2.24192 -1.29827,-7.39078 -1.2634,-11.537l-12.5569 14.2982c-1.98,-2.7292 -0.832819,-7.88911 -1.85981,-10.8561 -2.55997,4.51814 -7.05629,8.67856 -10.9698,12.5195 -1.54233,-1.34532 0.00566929,-3.41915 -0.260504,-6.67616 -7.23997,6.40063 -4.06914,2.61978 -10.8998,8.36674 -0.203528,-6.48652 0.896599,-13.2993 3.29981,-20.4372 28.5891,-11.558 42.0727,-22.1499 51.4559,-42.8723z"/>
  <path fill="#BF9F4F" d="M409.816 7.62492c4.83137,16.2516 27.6837,31.4598 31.5437,34.8551 1.57124,5.11966 3.91493,8.63519 4.0201,13.756 -4.89062,-3.01663 -1.63758,-0.947623 -9.55985,-6.98202l0.0515906 5.75717c-6.876,-4.24517 -5.34529,-9.5383 -10.9624,-9.99752l1.20359 4.3971c-7.54385,-1.90488 -14.063,-14.1353 -13.9445,-23.0803 0.324567,18.9831 7.79471,28.474 10.0057,33.4721 -3.77348,-1.25263 -5.64095,0.992693 -7.72413,-4.70353 -1.71099,8.05068 -0.986457,11.1447 -3.35707,14.2248 -2.76945,-2.39188 -3.88687,-7.61074 -3.86589,-11.9075l-7.5189 3.26551c4.1811,-9.11623 4.71685,-21.8526 3.04923,-26.5978l-6.29093 13.8056c-1.39039,-2.50469 -1.48876,-5.01959 -2.20989,-7.74256 -1.79717,4.14624 -4.12441,10.7992 -6.87232,14.3243 -1.95789,-1.23477 -1.78129,-5.2903 -1.44312,-8.27915 -1.87285,2.9024 -6.79408,10.5197 -9.55871,12.8395 0.0470551,-7.1932 0.704693,-13.775 2.70737,-19.0123 2.39216,-4.11534 18.5448,-9.9292 30.7264,-32.3946z"/>
  <path fill="white" d="M404 155.26l-2.60958 0.0331654c-5.8578,21.9543 -31.4104,38.5112 -62.2523,50.1962 0.118488,5.02299 -0.740693,9.55758 0.355181,15.0696l3.28451 -2.04605 2.82388 -12.1465c29.7085,-8.30977 54.9987,-28.5423 58.3983,-51.1064zm7.38879 76.1137l-7.39446 -14.6503 2.69405 -0.827433 4.70041 15.4777zm-28.7331 -4.83562l11.4143 -18.1398c3.22895,-4.99408 5.80621,-9.98816 7.7315,-14.9822 -2.40208,11.4384 -10.2127,22.3362 -19.1458,33.122zm-2.83323 -4.7812l-3.32221 3.11528 1.31896 -12.0342 2.00325 8.91893zm-12.4895 -1.23959l-3.73323 2.73402 1.37962 -9.53405 2.12485 0.223937 0.228756 6.5761zm-12.2341 2.42986l-2.55969 2.39102 -1.20614 -12.1541 2.82076 2.22321 0.945071 7.53988z"/>
  <path fill="#644D36" d="M413.041 230.801c3.50221,-3.17622 5.70133,-7.65553 6.59736,-13.4391 3.37975,4.52098 7.20766,7.69748 11.2399,10.2626 -4.50142,-14.4054 -8.77862,-28.9233 -11.973,-43.9824l0.244347 -4.15389c3.50221,2.5251 8.47049,4.56123 12.706,6.8417 -5.92611,-13.5814 -9.14315,-27.5497 -10.5069,-41.7833l0.488693 -3.17651c3.60114,3.25389 11.0948,5.53436 17.593,8.06344 -10.6501,-15.8411 -17.8583,-32.2124 -20.0364,-49.358 4.07225,1.30337 8.14479,0.651685 12.9504,-0.488693 -10.59,-8.46908 -17.5133,-20.1974 -16.3712,-39.0955 2.99537,2.21783 7.40353,3.0223 11.7286,3.90955 -8.32876,-11.8505 -13.1749,-24.4749 -15.6382,-37.6294 0.770741,11.6073 2.96788,22.9292 10.2626,33.2311 -3.09543,0.0813544 -5.86488,-1.1401 -8.30778,-3.6652 -0.515906,15.4159 1.96469,30.1184 15.1495,42.272 -4.56095,0.733607 -8.47106,-0.162709 -11.7286,-2.68781 -0.97767,3.25843 -2.28104,6.51629 -3.90955,9.77386 2.03584,-0.570048 3.66463,-1.54743 4.15389,-3.6652 3.25758,15.7198 9.4476,30.7882 18.5703,45.2041 -5.78296,-3.09515 -10.9142,-6.51572 -15.3938,-10.2626 -0.97767,6.19059 -3.58441,12.3806 -7.81909,18.5703 2.93188,-1.71014 5.21207,-4.72337 6.8417,-9.04082 2.44318,14.6208 5.29314,27.4088 9.04082,36.1633 -4.35799,-2.4429 -8.26753,-5.7824 -11.973,-9.52952 -0.579685,8.00306 -3.08466,14.8039 -5.61997,21.5025 2.68753,-2.68753 4.96829,-5.37506 6.35301,-8.06344 2.80828,13.2367 6.63704,25.4537 10.7512,37.385 -3.3395,-3.50221 -7.16769,-6.02703 -10.0182,-10.5069 -0.244347,6.92391 -2.52482,13.0323 -5.37562,17.3486z"/>
  <path fill="white" d="M390.561 184.375c4.52013,-4.09238 10.5472,-9.18227 12.4617,-13.4391 2.32101,6.92363 5.17153,13.8461 8.79648,20.7695 -9.28517,-8.38942 -6.59736,-10.6696 -8.79648,-16.3712 -4.80558,5.29455 -8.95947,8.30835 -12.4617,9.04082z"/>
  <path fill="none" stroke="#644D36" stroke-width="0.992126" d="M397.158 182.665c3.17651,-2.93188 5.37562,-5.53805 6.59736,-7.81909"/>
  <line fill="none" stroke="#644D36" stroke-width="0.992126" x1="399.358" y1="220.294" x2="404.244" y2= "216.629" />
  <path fill="white" d="M390.561 143.569l13.4391 -7.3304 6.35301 19.3034c-11.0772,-4.23553 -5.53862,-10.9142 -8.30778,-16.3712 -4.15418,3.42085 -7.98265,4.88693 -11.4843,4.39824z"/>
  <path fill="none" stroke="#644D36" stroke-width="1.41732" d="M392.027 145.28c4.3166,-1.4658 8.30722,-3.58328 11.973,-6.35301"/>
  <path fill="white" d="M379.738 175.257c-0.977953,0.81978 -1.94032,1.60101 -2.87887,2.33518l-1.23591 -8.72278 3.45402 -1.84252 0.660756 8.23011zm-15.0636 7.66829l-3.53197 -11.7836 3.27402 -1.42696 2.93216 9.77386 -2.67421 3.43673zm-9.53093 -3.4954l-3.49229 4.82542 -1.10353 -8.12948 2.38451 -1.52419 2.21131 4.82825zm48.3682 -61.2613l-3.01918 -0.0351496c-6.16139,21.0079 -18.5596,24.7975 -49.3135,37.4902 -3.20457,9.78634 -9.58508,23.9712 -9.61286,29.3596l8.68791 -11.02c-0.492095,-5.00003 1.94825,-9.51137 2.92252,-14.2668 29.7318,-10.4618 49.9315,-23.8972 50.3351,-41.5279z"/>
  <path fill="white" d="M404.733 95.1886l0 7.81909 5.13128 4.15389 0 -4.15389c-2.19912,-1.87342 -3.6652,-4.72422 -5.13128,-7.81909z"/>
  <polygon fill="white" points="397.891,89.813 390.805,99.3425 393.738,99.3425 392.272,102.763 395.448,101.786 393.714,98.8487 "/>
  <path fill="#644D36" d="M403.756 94.4555c-1.79178,2.85109 -4.23553,5.37619 -7.3304,7.57474 1.43348,-4.54451 3.98013,-5.64123 7.3304,-7.57474z"/>
  <path fill="white" d="M405.707 74.2238l-3.26721 0.0626457c-9.38325,20.7224 -22.8668,31.3143 -51.4559,42.8723 -2.40321,7.13792 -3.50334,13.9507 -3.29981,20.4372 2.34765,-1.97547 3.51411,-2.82529 4.32766,-3.3497l1.8978 -12.9127c25.3673,-11.6527 45.995,-25.6751 51.7975,-47.1099zm-17.5331 54.6463c-0.946489,0.901418 -1.84876,1.77307 -2.67959,2.61071 -2.03613,-1.82126 -1.62085,-5.56243 -1.3748,-9.12473l2.77682 -1.99984 1.27758 8.51386zm-14.8964 3.54586l-1.60356 1.82608c-1.48479,-2.04662 -1.21068,-5.46095 -1.41449,-8.29219l1.97603 -1.43972 1.04202 7.90583zm-12.187 1.29487c-0.758268,0.742961 -1.51257,1.47458 -2.24617,2.19458 -1.54233,-1.34532 0.00566929,-3.41915 -0.260504,-6.67616l2.50668 4.48158z"/>
  <path fill="white" d="M402.778 46.5636l-4.15389 6.8417 0.488693 6.35301c1.99644,-4.39881 2.97383,-8.79676 3.6652,-13.1947z"/>
  <path fill="white" d="M403.756 59.514c0.814394,4.72366 2.28047,8.79591 4.39824,12.2173 -0.162992,-5.04992 -2.5251,-9.61115 -0.977386,-14.6608l-3.42085 2.44347z"/>
  <path fill="white" d="M408.166 38.5087l-3.50731 -0.179433c-4.80388,13.5666 -30.1286,29.4109 -49.8623,43.4909 -0.984473,5.03405 -1.39606,10.6415 -1.72658,16.3304 1.41562,-0.86967 3.45912,-2.42646 5.59474,-4.18564l-0.112819 -11.238c19.4814,-11.7958 37.9817,-24.5727 49.6143,-44.2182zm-19.3419 51.0993c-1.00006,1.11288 -1.80113,1.88107 -2.34,2.16992 -1.42384,-1.87852 -1.57323,-5.61005 -1.97462,-8.50706l1.8978 -1.52136 2.41682 7.85849zm-16.9552 3.69865c-0.918142,0.941386 -1.72176,1.82863 -2.33348,2.62687 -2.17276,-1.00318 -2.37147,-5.14262 -2.12173,-8.26271l3.35537 -0.790016 1.09984 6.42586z"/>
  <path fill="white" d="M411.261 11.4097c-0.579685,-1.25178 -1.06724,-2.51547 -1.44454,-3.78482 -12.1816,22.4654 -28.3343,28.2793 -30.7264,32.3946 -2.00268,5.23729 -2.66032,11.8191 -2.70737,19.0123 1.03663,-0.86967 2.37657,-2.48514 3.74542,-4.31688l0.170929 -13.7713c24.0041,-11.7995 20.6413,-19.6895 30.962,-29.5339zm-13.085 32.7283l-1.70929 3.75166c-0.955843,-1.72176 -1.30082,-3.4492 -1.6577,-5.24495l3.36699 1.49329zm-9.29084 8.05748c-0.485008,0.843874 -0.985323,1.6149 -1.50066,2.27594 -1.22372,-0.771591 -1.61376,-2.64529 -1.65147,-4.67178l3.15213 2.39584z"/>
  <polygon fill="white" points="397.892,220.749 392.962,255.837 398.472,255.547 401.662,221.329 "/>
  <polygon fill="white" points="241.01,217.849 237.531,255.834 232.891,255.834 238.401,217.849 "/>
  <polygon fill="white" points="80.9391,220.459 77.1659,255.541 72.8161,255.541 78.6192,220.459 "/>
 </g>
</svg>
