<?xml version="1.0" encoding="UTF-8"?>
<!DOCTYPE svg PUBLIC "-//W3C//DTD SVG 1.1//EN" "http://www.w3.org/Graphics/SVG/1.1/DTD/svg11.dtd">
<!-- Creator: CorelDRAW -->
<svg xmlns="http://www.w3.org/2000/svg" xml:space="preserve" width="500px" height="559px" shape-rendering="geometricPrecision" text-rendering="geometricPrecision" image-rendering="optimizeQuality" fill-rule="evenodd" clip-rule="evenodd"
viewBox="0 0 500 559"
 xmlns:xlink="http://www.w3.org/1999/xlink"
 xmlns:svg="http://www.w3.org/2000/svg"
 version="1.0">
 <g id="Layer_x0020_1">
  <metadata id="CorelCorpID_0Corel-Layer"/>
  <path id="path1937" fill="#0057F0" stroke="black" stroke-width="0.510236" d="M0.309827 0.610016l499.412 -0.000283465 -0.000850394 329.207c-20.4389,305.128 -483.369,306.522 -499.412,-7.57531l0 -321.632z"/>
  <path fill="#CCCCCC" d="M398.937 385.476c-7.28363,6.68041 -13.7546,14.0715 -16.9744,21.5646 25.143,14.5953 30.5756,15.9307 35.1811,12.2244 -1.98709,3.80665 -4.2789,7.41062 -11.1404,9.28829 10.4037,3.26381 24.9721,10.1846 40.6585,5.83087l-2.79723 6.95055 6.46555 6.40857c-20.0129,-3.73975 -36.0326,-4.49433 -51.5753,-12.3979 1.04117,2.53134 2.88284,3.9498 5.28662,6.4423l-8.41607 -0.105449c9.15818,5.04879 18.2152,4.71402 28.999,3.26296l13.3245 1.78469 -1.30167 3.00671 7.33607 5.43203c-11.2765,-2.78136 -22.9615,-1.44652 -36.3912,-4.09153 -8.88634,-1.75011 -14.4301,-3.08608 -23.1494,-3.90728 -12.689,-1.19509 -17.8781,1.76287 -28.0936,0.442772 -13.7716,-1.77931 -18.6044,-9.39147 -31.6264,-15.5925 -11.4891,-5.47144 -24.4267,-7.74681 -37.0925,-10.6577 -34.2116,2.92706 -64.0874,3.25304 -84.4232,-2.14271 -22.3722,-1.81814 -44.7441,-2.4171 -63.4592,-7.28221 18.4524,-6.77764 42.9996,-5.32772 64.4996,-8.44867 9.12615,-4.39852 16.4806,-6.05452 32.9205,0.51704 19.2087,0.588473 42.0183,-1.67811 61.2278,-4.35203 -12.3591,-8.40756 -28.027,-12.1856 -39.5654,-22.0771 -25.183,-21.5884 -33.3672,-49.5859 -70.6573,-55.709 11.397,-10.1741 33.3051,-1.33824 59.8952,19.7736 -6.83915,-12.4603 -23.9879,-20.4511 -38.3429,-29.1524 7.5206,-8.36108 47.9095,21.886 53.7327,31.1771 -3.31682,-14.11 -20.6172,-20.668 -30.5521,-30.9864 16.5867,-1.95194 41.7852,26.528 48.005,33.5866 -1.35184,-8.78769 -13.8977,-16.7862 -16.9549,-22.9567 5.47937,-1.26369 11.607,4.09011 13.6023,5.69962 11.5971,11.317 16.7961,22.6349 29.611,35.6273 11.7584,11.9211 25.9373,18.5213 37.5347,26.7914 16.6212,-11.3102 21.0541,-31.1533 37.675,-42.4633 24.2926,-16.5302 59.5562,-16.6056 85.068,-41.0587 1.86038,13.6505 -9.68684,25.6759 -48.6587,43.0852 16.9421,-5.33339 29.9982,-15.0871 44.5,-25.3018 9.75515,18.3189 -35.3945,29.7601 -44.8866,35.53 13.1927,-1.84762 27.6548,-12.9895 37.5973,-10.876 -6.64243,16.2473 -24.9069,18.7776 -45.9686,23.4428 6.69969,0.736158 14.5174,-0.76252 22.8436,-3.27685 -12.8021,12.401 -16.7644,16.0058 -33.937,14.9667z"/>
  <path fill="#CCCCCC" d="M266.796 236.394c-7.28363,6.68041 -13.7546,14.0715 -16.9744,21.5646 25.143,14.5953 39.4126,18.3685 44.0181,14.6622 -1.98709,3.80665 -7.32615,8.02007 -14.1877,9.89774 10.4037,3.26381 29.8477,12.6224 45.5341,8.26867l-2.79723 6.95055 6.46555 6.40857c-20.0129,-3.73975 -40.6035,-6.6274 -56.1461,-14.531 1.04117,2.53134 2.57811,3.64507 4.98189,6.13758l-8.11134 0.808725c9.15818,5.04879 22.786,6.23764 33.5699,4.78659l18.8096 3.61304 -1.30167 3.00671 7.33607 5.43203c-11.2765,-2.78136 -28.4463,-3.2743 -41.8762,-5.91988 -8.8869,-1.75039 -19.3054,-5.52359 -28.025,-6.34507 -12.6893,-1.19537 -17.8778,1.76287 -28.0936,0.442772 -13.7716,-1.77959 -24.3941,-12.4384 -37.4162,-18.6398 -11.4894,-5.47144 -24.4267,-7.74681 -37.0925,-10.6577 -34.2116,2.92706 -64.0874,3.25304 -84.4232,-2.14271 -22.3722,-1.81814 -44.7441,-2.4171 -63.4592,-7.28221 18.4524,-6.77764 42.9996,-5.32772 64.4996,-8.44867 9.12615,-4.39852 16.4806,-6.05452 32.9205,0.51704 19.2087,0.588473 42.0183,-1.67811 61.2278,-4.35203 -12.3591,-8.40756 -28.027,-12.1856 -39.5654,-22.0771 -25.183,-21.5884 -33.3672,-49.5859 -70.6573,-55.709 11.397,-10.1741 33.3051,-1.33824 59.8952,19.7736 -6.83915,-12.4603 -23.9879,-20.4511 -38.3429,-29.1524 7.5206,-8.36108 47.9095,21.886 53.7327,31.1771 -3.31682,-14.11 -20.6172,-20.668 -30.5521,-30.9864 16.5867,-1.95194 41.7852,26.528 48.005,33.5866 -1.35184,-8.78769 -13.8977,-16.7862 -16.9549,-22.9567 5.47937,-1.26369 11.607,4.09011 13.6023,5.69962 11.5971,11.317 16.7961,22.6349 29.611,35.6273 11.7584,11.9211 25.9373,18.5213 37.5347,26.7914 16.6212,-11.3102 21.0541,-31.1533 37.675,-42.4633 24.2926,-16.5302 59.5562,-16.6056 85.068,-41.0587 1.86038,13.6505 -9.68684,25.6759 -48.6587,43.0852 16.9421,-5.33339 29.9982,-15.0871 44.5,-25.3018 9.75515,18.3189 -35.3945,29.7601 -44.8866,35.53 13.1927,-1.84762 27.6548,-12.9895 37.5973,-10.876 -6.64243,16.2473 -24.9069,18.7776 -45.9686,23.4428 6.69969,0.736158 14.5174,-0.76252 22.8436,-3.27685 -12.8021,12.401 -16.7644,16.0058 -33.937,14.9667z"/>
  <path fill="#CCCCCC" d="M392.796 110.394c-7.28363,6.68041 -13.7546,14.0715 -16.9744,21.5646 25.143,14.5953 39.4126,18.3685 44.0181,14.6622 -1.98709,3.80665 -7.32615,8.02007 -14.1877,9.89774 10.4037,3.26381 29.8477,12.6224 45.5341,8.26867l-2.79723 6.95055 6.46555 6.40857c-20.0129,-3.73975 -40.9082,-6.93213 -56.4509,-14.8357 1.04117,2.53134 2.88284,3.9498 5.28662,6.4423l-7.80662 -0.105449c9.15818,5.04879 22.4813,7.15181 33.2652,5.70076l18.8096 3.61304 -1.30167 3.00671 7.33607 5.43203c-11.2765,-2.78136 -28.4463,-3.2743 -41.8762,-5.91988 -8.8869,-1.75039 -19.3054,-5.52359 -28.025,-6.34507 -12.6893,-1.19537 -17.8778,1.76287 -28.0936,0.442772 -13.7716,-1.77959 -24.3941,-12.4384 -37.4162,-18.6398 -11.4894,-5.47144 -24.4267,-7.74681 -37.0925,-10.6577 -34.2116,2.92706 -64.0874,3.25304 -84.4232,-2.14271 -22.3722,-1.81814 -44.7441,-2.4171 -63.4592,-7.28221 18.4524,-6.77764 42.9996,-5.32772 64.4996,-8.44867 9.12615,-4.39852 16.4806,-6.05452 32.9205,0.51704 19.2087,0.588473 42.0183,-1.67811 61.2278,-4.35203 -12.3591,-8.40756 -28.027,-12.1856 -39.5654,-22.0771 -25.183,-21.5884 -33.3672,-49.5859 -70.6573,-55.709 11.397,-10.1741 33.3051,-1.33824 59.8952,19.7736 -6.83915,-12.4603 -23.9879,-20.4511 -38.3429,-29.1524 7.5206,-8.36108 47.9095,21.886 53.7327,31.1771 -3.31682,-14.11 -20.6172,-20.668 -30.5521,-30.9864 16.5867,-1.95194 41.7852,26.528 48.005,33.5866 -1.35184,-8.78769 -13.8977,-16.7862 -16.9549,-22.9567 5.47937,-1.26369 11.607,4.09011 13.6023,5.69962 11.5971,11.317 16.7961,22.6349 29.611,35.6273 11.7584,11.9211 25.9373,18.5213 37.5347,26.7914 16.6212,-11.3102 21.0541,-31.1533 37.675,-42.4633 24.2926,-16.5302 59.5562,-16.6056 85.068,-41.0587 1.86038,13.6505 -9.68684,25.6759 -48.6587,43.0852 16.9421,-5.33339 29.9982,-15.0871 44.5,-25.3018 9.75515,18.3189 -35.3945,29.7601 -44.8866,35.53 13.1927,-1.84762 27.6548,-12.9895 37.5973,-10.876 -6.64243,16.2473 -24.9069,18.7776 -45.9686,23.4428 6.69969,0.736158 14.5174,-0.76252 22.8436,-3.27685 -12.8021,12.401 -16.7644,16.0058 -33.937,14.9667z"/>
  <path fill="#F0F0F0" d="M212.563 242.346c16.6212,-11.3102 21.0541,-31.1533 37.675,-42.4633 24.2926,-16.5302 59.5562,-16.6056 85.068,-41.0587 -17.9286,32.2319 -57.2616,32.1299 -75.8537,44.1808 -23.2206,15.0511 -39.1796,50.8663 -62.2673,58.8113 5.73789,-5.87849 11.2708,-11.9611 15.378,-19.4701z"/>
  <path fill="black" d="M332.58 172.542c-12.9444,13.5184 -38.1821,28.7892 -52.1079,31.0819 16.9325,-0.794552 51.7762,-18.7163 52.1079,-31.0819z"/>
  <path fill="black" d="M330.752 188.388c-15.3383,11.3513 -28.9491,19.0202 -47.537,24.6827 18.8048,-3.96907 32.796,-8.79591 47.537,-24.6827z"/>
  <path fill="black" d="M295.404 226.173c-11.6167,5.98224 -20.2961,8.08838 -34.1292,9.75119 15.5787,1.65487 24.5016,-0.110551 34.1292,-9.75119z"/>
  <path fill="white" d="M331.057 177.417c-13.307,12.164 -26.6131,21.3565 -47.2323,26.2063 20.3151,-2.53729 34.2309,-10.6628 47.2323,-26.2063z"/>
  <path fill="white" d="M322.829 202.291c-2.79978,-1.8754 -18.6792,3.4784 -42.6614,13.4079 18.6137,-5.94057 22.1377,-5.89975 42.6614,-13.4079z"/>
  <path fill="white" d="M296.623 222.821c-9.26136,3.23575 -8.35484,1.07291 -21.6354,3.96142 11.844,-0.66189 12.5748,2.27821 21.6354,-3.96142z"/>
  <path fill="white" d="M131.317 194.584c-5.82322,-9.29112 -46.2121,-39.5382 -53.7327,-31.1771 21.6388,4.95099 38.8287,19.4366 54.7733,36.5927l-1.0406 -5.41559zm17.4529 2.60022c-6.21978,-7.05855 -31.4184,-35.5385 -48.005,-33.5866 14.7291,4.65052 34.9861,22.9785 46.6535,38.3961l1.35156 -4.80955zm63.7932 45.1616c-6.58715,-7.15181 -17.2834,-9.93005 -23.5494,-15.2564 -4.50255,-3.82734 -7.95147,-8.69046 -13.9853,-11.535 -1.74019,-0.820347 -2.92479,-2.50073 -3.81714,-4.05695 -4.62416,-8.06485 -8.84722,-12.2941 -13.0731,-16.5762 -4.46145,-4.5207 -7.64703,-10.0432 -12.7208,-14.9941 -1.99531,-1.60951 -8.12296,-6.96331 -13.6023,-5.69962 9.72086,3.33921 44.9195,55.1342 77.8978,73.3522l2.85024 -5.23389zm-100.155 -43.4053c-18.832,-20.5226 -31.879,-29.4387 -56.376,-26.155 11.397,-10.1741 33.3051,-1.33824 59.8952,19.7736l2.30003 7.33522 -5.81925 -0.953859z"/>
  <path fill="white" d="M72.1061 254.406c9.12615,-4.39852 16.4806,-6.05452 32.9205,0.51704 19.2087,0.588473 42.0183,-1.67811 61.2278,-4.35203 -15.7388,3.57818 -19.1197,7.48205 -61.9481,7.44832 -10.6484,-7.68586 -24.5463,-8.05833 -31.9408,-1.11657 -21.1932,0.853512 -42.7547,2.65947 -64.7589,5.95191 18.4524,-6.77764 42.9996,-5.32772 64.4996,-8.44867z"/>
  <path fill="white" d="M249.821 257.958c25.143,14.5953 39.4126,18.3685 44.0181,14.6622 -7.81569,10.5718 -32.5429,-1.53496 -46.5381,-11.2884l2.52 -3.3738z"/>
  <path fill="white" d="M279.652 282.518c10.4037,3.26381 29.8477,12.6224 45.5341,8.26867l-2.79723 6.95055c-22.5828,-3.03591 -30.6678,-6.96444 -47.0413,-13.0765l4.30441 -2.14271z"/>
  <path fill="white" d="M229.998 301.578c8.89087,1.10863 20.1824,-5.10151 31.2174,-2.76973 9.2316,1.95052 15.9024,4.39654 26.1666,6.69203 12.7281,2.84684 24.9996,5.04709 38.2059,6.64016 -11.2765,-2.78136 -26.0413,-2.01487 -39.4713,-4.66016 -8.88662,-1.75039 -19.3054,-5.52359 -28.025,-6.34507 -12.6893,-1.19537 -17.8778,1.76287 -28.0936,0.442772z"/>
  <path fill="black" d="M313.992 213.488c-11.9466,3.92542 -33.2728,8.82539 -46.6229,12.4937 14.8127,-0.530362 40.3787,-7.49537 46.6229,-12.4937z"/>
  <path fill="none" stroke="black" stroke-width="0.992126" d="M253.047 241.105c3.04725,0.609733 6.09449,0.406772 9.14174,-0.609449"/>
  <path fill="none" stroke="black" stroke-width="0.992126" d="M255.485 248.114c-3.04696,0.507685 -6.90662,-0.000283465 -9.14174,-0.304725"/>
  <path fill="none" stroke="black" stroke-width="0.992126" d="M250 256.036c-2.24788,0.714048 -6.0001,0.610583 -8.22756,-0.304725"/>
  <path fill="none" stroke="black" stroke-width="0.708662" d="M245.124 261.826c-2.844,0.507969 -5.89125,1.11742 -7.92284,0"/>
  <path fill="none" stroke="black" stroke-width="0.708662" d="M239.944 267.006c-3.14873,0.914457 -6.5007,1.52362 -8.83701,0"/>
  <path fill="none" stroke="black" stroke-width="0.708662" d="M156.754 200.272c1.92983,4.97707 2.64047,9.95386 2.13307,14.9315"/>
  <path fill="none" stroke="black" stroke-width="0.708662" d="M163.458 208.499c1.92983,4.97707 2.64047,9.95386 2.13307,14.9315"/>
  <path fill="none" stroke="black" stroke-width="0.708662" d="M171.991 216.117c1.92983,4.97707 2.64047,9.95386 2.13307,14.9315"/>
  <path fill="none" stroke="black" stroke-width="0.708662" d="M180.523 224.954c1.92983,4.97707 2.64047,7.83581 2.13307,12.8135"/>
  <path fill="none" stroke="black" stroke-width="0.510236" d="M189.969 233.182c1.92983,4.97707 1.7263,4.17912 1.2189,9.15676"/>
  <path fill="none" stroke="black" stroke-width="0.510236" d="M198.197 238.972c1.52334,4.16438 0.565229,2.29238 0.464599,8.08271"/>
  <path fill="black" stroke="black" stroke-width="0.216" d="M92.1527 263.35c6.50013,4.87616 -3.25077,4.33418 -9.75119,4.87559 6.30936,-1.31896 11.5988,-2.73997 9.75119,-4.87559z"/>
  <path fill="none" stroke="white" stroke-width="0.992126" d="M81.1826 263.35c3.35169,-3.04696 6.70366,-4.06233 10.0559,-3.04725"/>
  <path fill="black" d="M7.60649 262.855c18.7152,4.8651 41.0871,5.46407 63.4592,7.28221 20.3358,5.39575 50.2115,5.06977 84.4232,2.14271 12.6658,2.9109 25.6031,5.18627 37.0925,10.6577 13.0221,6.20136 23.6446,16.8602 37.4162,18.6398 10.2158,1.3201 15.4043,-1.63814 28.0936,-0.442772 8.71966,0.821481 19.1384,4.59468 28.025,6.34507 13.43,2.64529 30.9045,3.13852 42.181,5.91988 -13.121,-2.90353 -27.1571,-4.20378 -40.2784,-6.89244 -10.205,-2.09084 -19.4967,-5.62422 -29.7017,-7.52655 -10.2784,0.369071 -21.1589,2.67562 -31.1394,0.193606 -12.2865,-3.05575 -21.6638,-11.467 -32.9516,-17.2001 -12.1476,-6.16933 -25.6116,-8.335 -38.7221,-12.0453 -28.3255,3.83471 -55.7745,4.45692 -81.6614,-0.646866l2.46614 -2.59285c-6.39978,2.78476 -43.7803,0.274961 -69.4789,-4.25367m162.472 -10.0358c-12.3591,-8.40756 -31.0743,-14.0142 -42.6127,-23.9054 -25.1827,-21.5884 -33.3672,-49.5859 -70.6573,-55.709 9.50741,-1.3388 21.4535,4.0269 30.3511,10.3062 16.5314,11.6663 27.2033,30.9127 42.6872,45.023 10.5942,9.65452 28.9205,16.3029 40.2316,24.2853z"/>
  <path fill="black" d="M271.371 286.837c7.85084,5.30107 29.6739,11.0696 57.4835,17.3089 -20.0129,-3.73975 -40.6035,-6.6274 -56.1461,-14.531l-1.33739 -2.77795zm-1.79206 9.72426l8.02063 -0.79937c-4.49348,-0.742394 -4.26728,-2.90863 -8.02063,0.79937z"/>
  <path fill="white" d="M269.579 296.561c9.15818,5.04879 22.786,6.23764 33.5699,4.78659l18.8096 3.61304c-4.22532,1.39663 -13.1454,-2.7258 -20.5895,-2.11776 -21.1836,1.73055 -28.6265,-3.93109 -31.79,-6.28186z"/>
  <path fill="#F0F0F0" d="M338.563 116.346c16.6212,-11.3102 21.0541,-31.1533 37.675,-42.4633 24.2926,-16.5302 59.5562,-16.6056 85.068,-41.0587 -17.9286,32.2319 -57.2616,32.1299 -75.8537,44.1808 -23.2206,15.0511 -39.1796,50.8663 -62.2673,58.8113 5.73789,-5.87849 11.2708,-11.9611 15.378,-19.4701z"/>
  <path fill="black" d="M458.58 46.5418c-12.9444,13.5184 -38.1821,28.7892 -52.1079,31.0819 16.9325,-0.794552 51.7762,-18.7163 52.1079,-31.0819z"/>
  <path fill="black" d="M456.752 62.3875c-15.3383,11.3513 -28.9491,19.0202 -47.537,24.6827 18.8048,-3.96907 32.796,-8.79591 47.537,-24.6827z"/>
  <path fill="black" d="M421.404 100.173c-11.6167,5.98224 -20.2961,8.08838 -34.1292,9.75119 15.5787,1.65487 24.5016,-0.110551 34.1292,-9.75119z"/>
  <path fill="white" d="M457.057 51.4174c-13.307,12.164 -26.6131,21.3565 -47.2323,26.2063 20.3151,-2.53729 34.2309,-10.6628 47.2323,-26.2063z"/>
  <path fill="white" d="M448.829 76.2914c-2.79978,-1.8754 -18.6792,3.4784 -42.6614,13.4079 18.6137,-5.94057 22.1377,-5.89975 42.6614,-13.4079z"/>
  <path fill="white" d="M422.623 96.8213c-9.26136,3.23575 -8.35484,1.07291 -21.6354,3.96142 11.844,-0.66189 12.5748,2.27821 21.6354,-3.96142z"/>
  <path fill="white" d="M257.317 68.5837c-5.82322,-9.29112 -46.2121,-39.5382 -53.7327,-31.1771 21.6388,4.95099 38.8287,19.4366 54.7733,36.5927l-1.0406 -5.41559zm17.4529 2.60022c-6.21978,-7.05855 -31.4184,-35.5385 -48.005,-33.5866 14.7291,4.65052 34.9861,22.9785 46.6535,38.3961l1.35156 -4.80955zm63.7932 45.1616c-6.35613,-6.10611 -15.9443,-8.89371 -22.9456,-14.8405 -5.03093,-4.27323 -9.18397,-8.92007 -14.5891,-11.9509 -1.49159,-0.836504 -2.76605,-2.14186 -3.41518,-3.61134 -3.53679,-8.00646 -8.16775,-10.965 -11.8471,-14.8306 -4.77043,-5.01194 -6.84085,-12.0971 -14.3487,-17.1853 -1.99531,-1.60951 -8.12296,-6.96331 -13.6023,-5.69962 9.72086,3.33921 44.9195,55.1342 77.8978,73.3522l2.85024 -5.23389zm-100.155 -43.4053c-18.832,-20.5226 -31.879,-29.4387 -56.376,-26.155 11.397,-10.1741 33.3051,-1.33824 59.8952,19.7736l2.30003 7.33522 -5.81925 -0.953859z"/>
  <path fill="white" d="M198.106 128.406c9.12615,-4.39852 16.4806,-6.05452 32.9205,0.51704 19.2087,0.588473 42.0183,-1.67811 61.2278,-4.35203 -15.7388,3.57818 -19.1197,7.48205 -61.9481,7.44832 -10.6484,-7.68586 -24.5463,-8.05833 -31.9408,-1.11657 -21.1932,0.853512 -42.7547,2.65947 -64.7589,5.95191 18.4524,-6.77764 42.9996,-5.32772 64.4996,-8.44867z"/>
  <path fill="white" d="M375.821 131.958c25.143,14.5953 39.4126,18.3685 44.0181,14.6622 -7.81569,10.5718 -32.5429,-1.53496 -46.5381,-11.2884l2.52 -3.3738z"/>
  <path fill="white" d="M405.652 156.518c10.4037,3.26381 29.8477,12.6224 45.5341,8.26867l-2.79723 6.95055c-22.5828,-3.03591 -30.6678,-6.96444 -47.0413,-13.0765l4.30441 -2.14271z"/>
  <path fill="white" d="M355.998 175.577c8.89087,1.10863 20.1824,-5.10151 31.2174,-2.76973 9.2316,1.95052 15.9024,4.39654 26.1666,6.69203 12.7281,2.84684 24.9996,5.04709 38.2059,6.64016 -11.2765,-2.78136 -26.0413,-2.01487 -39.4713,-4.66016 -8.88662,-1.75039 -19.3054,-5.52359 -28.025,-6.34507 -12.6893,-1.19537 -17.8778,1.76287 -28.0936,0.442772z"/>
  <path fill="black" d="M439.992 87.4883c-11.9466,3.92542 -33.2728,8.82539 -46.6229,12.4937 14.8127,-0.530362 40.3787,-7.49537 46.6229,-12.4937z"/>
  <path fill="none" stroke="black" stroke-width="0.992126" d="M379.047 115.105c3.04725,0.609733 6.09449,0.406772 9.14174,-0.609449"/>
  <path fill="none" stroke="black" stroke-width="0.992126" d="M381.485 122.113c-3.04696,0.507685 -6.90662,-0.000283465 -9.14174,-0.304725"/>
  <path fill="none" stroke="black" stroke-width="0.992126" d="M376 130.036c-2.24788,0.714048 -6.0001,0.610583 -8.22756,-0.304725"/>
  <path fill="none" stroke="black" stroke-width="0.708662" d="M371.124 135.826c-2.844,0.507969 -5.89125,1.11742 -7.92284,0"/>
  <path fill="none" stroke="black" stroke-width="0.708662" d="M365.944 141.006c-3.14873,0.914457 -6.5007,1.52362 -8.83701,0"/>
  <path fill="none" stroke="black" stroke-width="0.992126" d="M282.754 74.2717c1.92983,4.97707 2.64047,9.95386 2.13307,14.9315"/>
  <path fill="none" stroke="black" stroke-width="0.992126" d="M289.458 82.4993c1.92983,4.97707 2.64047,9.95386 2.13307,14.9315"/>
  <path fill="none" stroke="black" stroke-width="0.992126" d="M297.991 90.1174c1.92983,4.97707 2.64047,9.95386 2.13307,14.9315"/>
  <path fill="none" stroke="black" stroke-width="0.992126" d="M306.523 98.9544c1.92983,4.97707 2.64047,6.77679 2.13307,11.7544"/>
  <path fill="none" stroke="black" stroke-width="0.708662" d="M315.969 107.182c1.92983,4.97707 0.667276,3.1201 0.159874,8.09774"/>
  <path fill="none" stroke="black" stroke-width="0.708662" d="M324.197 112.972c1.52334,4.16438 0.565229,2.29238 0.464599,8.08271"/>
  <path fill="black" stroke="black" stroke-width="0.216" d="M218.153 137.35c6.50013,4.87616 -3.25077,4.33418 -9.75119,4.87559 6.30936,-1.31896 11.5988,-2.73997 9.75119,-4.87559z"/>
  <path fill="none" stroke="white" stroke-width="0.992126" d="M207.183 137.35c3.35169,-3.04696 6.70366,-4.06233 10.0559,-3.04725"/>
  <path fill="black" d="M133.607 136.855c18.7152,4.8651 41.0871,5.46407 63.4592,7.28221 20.3358,5.39575 50.2115,5.06977 84.4232,2.14271 12.6658,2.9109 25.6031,5.18627 37.0925,10.6577 13.0221,6.20136 23.6446,16.8602 37.4162,18.6398 10.2158,1.3201 15.4043,-1.63814 28.0936,-0.442772 8.71966,0.821481 19.1384,4.59468 28.025,6.34507 13.43,2.64529 30.9045,3.13852 42.181,5.91988 -13.121,-2.90353 -27.1571,-4.20378 -40.2784,-6.89244 -10.205,-2.09084 -19.4967,-5.62422 -29.7017,-7.52655 -10.2784,0.369071 -21.1589,2.67562 -31.1394,0.193606 -12.2865,-3.05575 -21.6638,-11.467 -32.9516,-17.2001 -12.1476,-6.16933 -25.6116,-8.335 -38.7221,-12.0453 -28.3255,3.83471 -55.7745,4.45692 -81.6614,-0.646866l2.46614 -2.59285c-6.39978,2.78476 -43.7803,0.274961 -69.4789,-4.25367m162.472 -10.0358c-12.3591,-8.40756 -31.0743,-14.0142 -42.6127,-23.9054 -25.1827,-21.5884 -33.3672,-49.5859 -70.6573,-55.709 9.50741,-1.3388 21.4535,4.0269 30.3511,10.3062 16.5314,11.6663 27.2033,30.9127 42.6872,45.023 10.5942,9.65452 28.9205,16.3029 40.2316,24.2853z"/>
  <path fill="black" d="M397.066 160.532c7.85084,5.30107 29.9787,11.3743 57.7882,17.6136 -20.0129,-3.73975 -40.9082,-6.93213 -56.4509,-14.8357l-1.33739 -2.77795zm-1.18261 9.11481l7.71591 0.114803c-4.49348,-0.742394 -3.96255,-3.82281 -7.71591,-0.114803z"/>
  <path fill="white" d="M395.883 169.647c9.15818,5.04879 22.4813,7.15181 33.2652,5.70076l18.8096 3.61304c-4.22532,1.39663 -13.1451,-2.7258 -20.5895,-2.11776 -21.1836,1.73084 -28.3218,-4.84526 -31.4853,-7.19604z"/>
  <path fill="#F0F0F0" d="M344.704 391.428c16.6212,-11.3102 21.0541,-31.1533 37.675,-42.4633 24.2926,-16.5302 59.5562,-16.6056 85.068,-41.0587 -17.9286,32.2319 -57.2616,32.1299 -75.8537,44.1808 -23.2206,15.0511 -39.1796,50.8663 -62.2673,58.8113 5.73789,-5.87849 11.2708,-11.9611 15.378,-19.4701z"/>
  <path fill="black" d="M464.721 321.624c-12.9444,13.5184 -38.1821,28.7892 -52.1079,31.0819 16.9325,-0.794552 51.7762,-18.7163 52.1079,-31.0819z"/>
  <path fill="black" d="M462.893 337.47c-15.3383,11.3513 -28.9491,19.0202 -47.537,24.6827 18.8048,-3.96907 32.796,-8.79591 47.537,-24.6827z"/>
  <path fill="black" d="M427.545 375.255c-11.6167,5.98224 -20.2961,8.08838 -34.1292,9.75119 15.5787,1.65487 24.5016,-0.110551 34.1292,-9.75119z"/>
  <path fill="white" d="M463.198 326.499c-13.307,12.164 -26.6131,21.3565 -47.2323,26.2063 20.3151,-2.53729 34.2309,-10.6628 47.2323,-26.2063z"/>
  <path fill="white" d="M454.97 351.373c-2.79978,-1.8754 -18.6792,3.4784 -42.6614,13.4079 18.6137,-5.94057 22.1377,-5.89975 42.6614,-13.4079z"/>
  <path fill="white" d="M428.764 371.903c-9.26136,3.23575 -8.35484,1.07291 -21.6354,3.96142 11.844,-0.66189 12.5748,2.27821 21.6354,-3.96142z"/>
  <path fill="white" d="M263.458 343.666c-5.82322,-9.29112 -46.2121,-39.5382 -53.7327,-31.1771 21.6388,4.95099 38.8287,19.4366 54.7733,36.5927l-1.0406 -5.41559zm17.4529 2.60022c-6.21978,-7.05855 -31.4184,-35.5385 -48.005,-33.5866 14.7291,4.65052 34.9861,22.9785 46.6535,38.3961l1.35156 -4.80955zm63.7932 45.1616c-7.4092,-6.24955 -17.0873,-10.4735 -25.9549,-16.9611 -5.86432,-4.29052 -11.1991,-9.51676 -16.5733,-15.217 -5.04397,-5.35011 -7.47213,-11.5577 -11.8967,-15.2464 -4.87843,-4.06687 -7.64703,-10.0432 -12.7208,-14.9941 -1.99531,-1.60951 -8.12296,-6.96331 -13.6023,-5.69962 9.72086,3.33921 44.9195,55.1342 77.8978,73.3522l2.85024 -5.23389zm-100.155 -43.4053c-18.832,-20.5226 -31.879,-29.4387 -56.376,-26.155 11.397,-10.1741 33.3051,-1.33824 59.8952,19.7736l2.30003 7.33522 -5.81925 -0.953859z"/>
  <path fill="white" d="M204.247 403.488c9.12615,-4.39852 16.4806,-6.05452 32.9205,0.51704 19.2087,0.588473 42.0183,-1.67811 61.2278,-4.35203 -15.7388,3.57818 -19.1197,7.48205 -61.9481,7.44832 -10.6484,-7.68586 -24.5463,-8.05833 -31.9408,-1.11657 -21.1932,0.853512 -42.7547,2.65947 -64.7589,5.95191 18.4524,-6.77764 42.9996,-5.32772 64.4996,-8.44867z"/>
  <path fill="white" d="M381.962 407.04c25.143,14.5953 30.5756,15.9307 35.1811,12.2244 -7.81569,10.5718 -23.7059,0.902835 -37.7011,-8.85062l2.52 -3.3738z"/>
  <path fill="white" d="M406.003 428.553c10.4037,3.26381 24.9721,10.1846 40.6585,5.83087l-2.79723 6.95055c-22.5828,-3.03591 -25.7922,-4.52665 -42.1657,-10.6387l4.30441 -2.14271z"/>
  <path fill="white" d="M356.349 447.612c8.89087,1.10863 20.1827,-5.10123 31.2174,-2.76973 9.23131,1.95024 11.0268,1.95874 21.291,4.25424 12.7281,2.84684 24.9996,5.04709 38.2059,6.64016 -11.2765,-2.78136 -26.0416,-2.01515 -39.4713,-4.66016 -8.88634,-1.75011 -14.4301,-3.08608 -23.1494,-3.90728 -12.689,-1.19509 -17.8778,1.76287 -28.0936,0.442772z"/>
  <path fill="black" d="M446.133 362.57c-11.9466,3.92542 -33.2728,8.82539 -46.6229,12.4937 14.8127,-0.530362 40.3787,-7.49537 46.6229,-12.4937z"/>
  <path fill="none" stroke="black" stroke-width="0.992126" d="M385.188 390.187c3.04725,0.609733 6.09449,0.406772 9.14174,-0.609449"/>
  <path fill="none" stroke="black" stroke-width="0.992126" d="M387.626 397.196c-3.04696,0.507685 -6.90662,-0.000283465 -9.14174,-0.304725"/>
  <path fill="none" stroke="black" stroke-width="0.992126" d="M382.141 405.118c-2.24788,0.714048 -6.0001,0.610583 -8.22756,-0.304725"/>
  <path fill="none" stroke="black" stroke-width="0.708662" d="M377.265 410.908c-2.844,0.507969 -5.89125,1.11742 -7.92284,0"/>
  <path fill="none" stroke="black" stroke-width="0.708662" d="M372.085 416.088c-3.14873,0.914457 -6.5007,1.52362 -8.83701,0"/>
  <path fill="none" stroke="black" stroke-width="0.992126" d="M288.895 349.354c1.92983,4.97707 2.64047,9.95386 2.13307,14.9315"/>
  <path fill="none" stroke="black" stroke-width="0.992126" d="M295.599 357.581c1.92983,4.97707 2.64047,9.95386 2.13307,14.9315"/>
  <path fill="none" stroke="black" stroke-width="0.992126" d="M304.132 365.199c1.92983,4.97707 2.64047,9.95386 2.13307,14.9315"/>
  <path fill="none" stroke="black" stroke-width="0.992126" d="M312.664 374.037c1.92983,4.97707 1.58145,6.77679 1.07405,11.7544"/>
  <path fill="none" stroke="black" stroke-width="0.708662" d="M322.11 382.264c1.92983,4.97707 1.7263,4.17912 1.2189,9.15676"/>
  <path fill="none" stroke="black" stroke-width="0.708662" d="M330.338 388.054c1.52334,4.16438 2.68328,2.29238 2.58265,8.08271"/>
  <path fill="black" stroke="black" stroke-width="0.216" d="M224.294 412.432c6.50013,4.87616 -3.25077,4.33418 -9.75119,4.87559 6.30936,-1.31896 11.5988,-2.73997 9.75119,-4.87559z"/>
  <path fill="none" stroke="white" stroke-width="0.992126" d="M213.324 412.432c3.35169,-3.04696 6.70366,-4.06233 10.0559,-3.04725"/>
  <path fill="black" d="M139.748 411.937c18.7152,4.8651 41.0871,5.46407 63.4592,7.28221 20.3358,5.39575 50.2115,5.06977 84.4232,2.14271 12.6658,2.9109 25.6034,5.18627 37.0925,10.6577 13.0221,6.20107 17.8549,13.8132 31.6264,15.5925 10.2155,1.3201 15.4046,-1.63786 28.0936,-0.442772 8.71937,0.821197 14.2634,2.15717 23.1494,3.90728 13.4297,2.64473 25.4194,1.31017 36.6959,4.09153 -13.121,-2.90353 -21.6723,-2.376 -34.7933,-5.0641 -10.2044,-2.09055 -14.6211,-3.18643 -24.8261,-5.08876 -10.2784,0.369071 -21.1592,2.67562 -31.1394,0.193606 -12.2865,-3.05547 -15.874,-8.41975 -27.1619,-14.1528 -12.1476,-6.16933 -25.6116,-8.335 -38.7221,-12.0453 -28.3255,3.83471 -55.7745,4.45692 -81.6614,-0.646866l2.46614 -2.59285c-6.39978,2.78476 -43.7803,0.274961 -69.4789,-4.25367m162.472 -10.0358c-12.3591,-8.40756 -31.0743,-14.0142 -42.6127,-23.9054 -25.1827,-21.5884 -33.3672,-49.5859 -70.6573,-55.709 9.50741,-1.3388 21.4535,4.0269 30.3511,10.3062 16.5314,11.6663 27.2033,30.9127 42.6872,45.023 10.5942,9.65452 28.9205,16.3029 40.2316,24.2853z"/>
  <path fill="black" d="M397.417 432.567c7.85084,5.30107 25.1031,8.93651 52.9127,15.1759 -20.0129,-3.73975 -36.0326,-4.49433 -51.5753,-12.3979l-1.33739 -2.77795zm-1.79206 9.11481l8.32536 0.114803c-4.49348,-0.742394 -4.572,-3.82281 -8.32536,-0.114803z"/>
  <path fill="white" d="M395.625 441.682c9.15818,5.04879 18.2152,4.71402 28.999,3.26296l13.3245 1.78469c-4.22532,1.39663 -7.66007,-0.897449 -15.1044,-0.289417 -21.1836,1.73084 -24.0557,-2.40747 -27.2191,-4.75824z"/>
  <path fill="black" stroke="black" stroke-width="0.216" d="M323.591 296.564l-4.72196 0.76167c2.0812,0.507402 4.06092,0.456378 4.72196,-0.76167z"/>
  <path fill="black" stroke="black" stroke-width="0.216" d="M321.056 307.669l-4.72196 0.76167c2.0812,0.507402 4.06092,0.456378 4.72196,-0.76167z"/>
  <path fill="black" stroke="black" stroke-width="0.216" d="M449.233 170.755l-4.72196 0.76167c2.0812,0.507402 4.06092,0.456378 4.72196,-0.76167z"/>
  <path fill="black" stroke="black" stroke-width="0.216" d="M446.699 181.859l-4.72196 0.76167c2.0812,0.507402 4.06092,0.456378 4.72196,-0.76167z"/>
  <path fill="black" stroke="black" stroke-width="0.216" d="M444.732 440.219l-4.72196 0.76167c2.0812,0.507402 4.06092,0.456378 4.72196,-0.76167z"/>
  <path fill="black" stroke="black" stroke-width="0.216" d="M437.018 449.19l-4.72196 0.76167c2.0812,0.507402 4.06092,0.456378 4.72196,-0.76167z"/>
 </g>
</svg>
